<svg xmlns="http://www.w3.org/2000/svg" viewBox="0 0 128 128">
  <defs>
    <linearGradient id="bg" x1="0" x2="1" y1="0" y2="1">
      <stop offset="0" stop-color="#bae6fd"/>
      <stop offset=".5" stop-color="#f9a8d4"/>
      <stop offset="1" stop-color="#334155"/>
    </linearGradient>
    <radialGradient id="skin" cx=".5" cy=".38" r=".3">
      <stop offset="0" stop-color="#f8d7c0"/>
      <stop offset="1" stop-color="#bd7657"/>
    </radialGradient>
  </defs>
  <rect width="128" height="128" fill="url(#bg)"/>
  <path d="M23 128c5-30 21-46 41-46s36 16 41 46H23Z" fill="#1f2937"/>
  <path d="M34 62c-2-32 10-50 31-50 23 0 35 19 29 53-9-21-42-25-60-3Z" fill="#6f3522"/>
  <ellipse cx="64" cy="58" rx="27" ry="30" fill="url(#skin)"/>
  <path d="M38 52c8-17 32-25 54-6-3-21-15-34-30-34-17 0-27 15-24 40Z" fill="#6f3522"/>
  <circle cx="54" cy="59" r="3" fill="#111827"/>
  <circle cx="75" cy="59" r="3" fill="#111827"/>
  <path d="M55 78c6 5 14 5 20 0" fill="none" stroke="#7c3f2c" stroke-width="3" stroke-linecap="round"/>
</svg>
