<svg xmlns="http://www.w3.org/2000/svg" viewBox="0 0 128 128">
  <defs>
    <linearGradient id="bg" x1="0" x2="1" y1="0" y2="1">
      <stop offset="0" stop-color="#fff1f2"/>
      <stop offset=".52" stop-color="#fecdd3"/>
      <stop offset="1" stop-color="#dc2626"/>
    </linearGradient>
    <radialGradient id="skin" cx=".5" cy=".38" r=".3">
      <stop offset="0" stop-color="#ffd9c1"/>
      <stop offset="1" stop-color="#c98766"/>
    </radialGradient>
  </defs>
  <rect width="128" height="128" fill="url(#bg)"/>
  <path d="M22 128c5-31 21-48 42-48s37 17 42 48H22Z" fill="#b91c1c"/>
  <path d="M35 61c-3-32 9-50 30-50 20 0 32 18 29 50-6-18-19-29-30-29-13 0-23 10-29 29Z" fill="#3b2017"/>
  <ellipse cx="64" cy="59" rx="27" ry="31" fill="url(#skin)"/>
  <path d="M37 50c9-17 31-23 54-5-5-22-17-34-30-34-16 0-26 15-24 39Z" fill="#3b2017"/>
  <circle cx="54" cy="60" r="3" fill="#111827"/>
  <circle cx="75" cy="60" r="3" fill="#111827"/>
  <path d="M55 79c6 5 14 5 20 0" fill="none" stroke="#8a3a2a" stroke-width="3" stroke-linecap="round"/>
</svg>
