<svg xmlns="http://www.w3.org/2000/svg" viewBox="0 0 128 128">
  <defs>
    <linearGradient id="bg" x1="0" x2="1" y1="0" y2="1">
      <stop offset="0" stop-color="#dbeafe"/>
      <stop offset=".55" stop-color="#94a3b8"/>
      <stop offset="1" stop-color="#0f172a"/>
    </linearGradient>
    <radialGradient id="skin" cx=".5" cy=".38" r=".3">
      <stop offset="0" stop-color="#f5d0b8"/>
      <stop offset="1" stop-color="#b77b5f"/>
    </radialGradient>
  </defs>
  <rect width="128" height="128" fill="url(#bg)"/>
  <path d="M21 128c6-30 22-47 43-47 22 0 38 17 43 47H21Z" fill="#1e293b"/>
  <path d="M37 43c4-22 17-33 33-31 15 1 25 13 24 31-12-10-36-12-57 0Z" fill="#111827"/>
  <ellipse cx="64" cy="58" rx="27" ry="30" fill="url(#skin)"/>
  <path d="M40 43c10-14 38-18 52 0-2-18-15-31-31-31-15 0-25 11-21 31Z" fill="#111827"/>
  <circle cx="54" cy="58" r="3" fill="#111827"/>
  <circle cx="75" cy="58" r="3" fill="#111827"/>
  <path d="M56 76c5 4 13 4 18 0" fill="none" stroke="#7c3f2c" stroke-width="3" stroke-linecap="round"/>
</svg>
