<?xml version="1.0" encoding="UTF-8" standalone="no"?>
<!DOCTYPE svg PUBLIC "-//W3C//DTD SVG 1.1//EN" "http://www.w3.org/Graphics/SVG/1.1/DTD/svg11.dtd">
<svg xmlns="http://www.w3.org/2000/svg" version="1.1" viewBox="0.00 0.00 256.00 256.00" width="128" height="128">
<g stroke-width="2.00" fill="none" stroke-linecap="butt">
<path stroke="#91a2ff" vector-effect="non-scaling-stroke" d="
  M 145.16 138.17
  Q 158.05 130.93 167.15 118.90
  C 183.72 96.99 170.56 73.29 144.24 73.08
  Q 116.93 72.86 81.51 73.07
  A 0.51 0.51 0.0 0 0 81.01 73.58
  L 81.01 110.51
  A 0.62 0.62 0.0 0 0 81.63 111.13
  L 144.10 111.13
  A 0.40 0.40 0.0 0 1 144.50 111.53
  L 144.50 137.79
  A 0.44 0.44 0.0 0 0 145.16 138.17"
/>
<path stroke="#91a2ff" vector-effect="non-scaling-stroke" d="
  M 110.63 117.88
  A 0.35 0.34 -10.1 0 0 110.16 117.56
  C 98.32 121.91 87.21 129.51 82.33 141.54
  Q 80.72 145.51 80.99 156.58
  Q 81.01 157.52 81.00 182.43
  A 0.58 0.57 0.0 0 0 81.58 183.00
  L 173.61 183.00
  A 0.52 0.51 0.0 0 0 174.13 182.49
  L 174.12 145.22
  A 0.34 0.34 0.0 0 0 173.78 144.88
  L 111.09 144.88
  A 0.47 0.46 -90.0 0 1 110.63 144.41
  L 110.63 117.88"
/>
</g>
<path fill="#2244ff" d="
  M 256.00 0.00
  L 256.00 256.00
  L 0.00 256.00
  L 0.00 0.00
  L 256.00 0.00
  Z
  M 145.16 138.17
  Q 158.05 130.93 167.15 118.90
  C 183.72 96.99 170.56 73.29 144.24 73.08
  Q 116.93 72.86 81.51 73.07
  A 0.51 0.51 0.0 0 0 81.01 73.58
  L 81.01 110.51
  A 0.62 0.62 0.0 0 0 81.63 111.13
  L 144.10 111.13
  A 0.40 0.40 0.0 0 1 144.50 111.53
  L 144.50 137.79
  A 0.44 0.44 0.0 0 0 145.16 138.17
  Z
  M 110.63 117.88
  A 0.35 0.34 -10.1 0 0 110.16 117.56
  C 98.32 121.91 87.21 129.51 82.33 141.54
  Q 80.72 145.51 80.99 156.58
  Q 81.01 157.52 81.00 182.43
  A 0.58 0.57 0.0 0 0 81.58 183.00
  L 173.61 183.00
  A 0.52 0.51 0.0 0 0 174.13 182.49
  L 174.12 145.22
  A 0.34 0.34 0.0 0 0 173.78 144.88
  L 111.09 144.88
  A 0.47 0.46 -90.0 0 1 110.63 144.41
  L 110.63 117.88
  Z"
/>
<path fill="#ffffff" d="
  M 144.50 137.79
  L 144.50 111.53
  A 0.40 0.40 0.0 0 0 144.10 111.13
  L 81.63 111.13
  A 0.62 0.62 0.0 0 1 81.01 110.51
  L 81.01 73.58
  A 0.51 0.51 0.0 0 1 81.51 73.07
  Q 116.93 72.86 144.24 73.08
  C 170.56 73.29 183.72 96.99 167.15 118.90
  Q 158.05 130.93 145.16 138.17
  A 0.44 0.44 0.0 0 1 144.50 137.79
  Z"
/>
<path fill="#ffffff" d="
  M 110.63 117.88
  L 110.63 144.41
  A 0.47 0.46 -90.0 0 0 111.09 144.88
  L 173.78 144.88
  A 0.34 0.34 0.0 0 1 174.12 145.22
  L 174.13 182.49
  A 0.52 0.51 0.0 0 1 173.61 183.00
  L 81.58 183.00
  A 0.58 0.57 -0.0 0 1 81.00 182.43
  Q 81.01 157.52 80.99 156.58
  Q 80.72 145.51 82.33 141.54
  C 87.21 129.51 98.32 121.91 110.16 117.56
  A 0.35 0.34 -10.1 0 1 110.63 117.88
  Z"
/>
</svg>