<?xml version="1.0" encoding="UTF-8" standalone="no"?>
<!DOCTYPE svg PUBLIC "-//W3C//DTD SVG 1.1//EN" "http://www.w3.org/Graphics/SVG/1.1/DTD/svg11.dtd">
<svg xmlns="http://www.w3.org/2000/svg" version="1.1" viewBox="0.00 0.00 256.00 256.00" width="128" height="128">
<g stroke-width="2.00" fill="none" stroke-linecap="butt">
<path stroke="#1e835c" vector-effect="non-scaling-stroke" d="
  M 128.09 183.11
  C 142.32 183.09 154.91 190.42 162.47 202.61
  C 164.41 205.74 165.54 209.80 166.85 212.22
  A 5.56 4.88 14.7 0 0 167.39 213.02
  Q 171.51 218.04 179.03 218.05
  Q 191.91 218.08 201.88 218.10
  C 209.04 218.12 213.47 216.49 216.74 210.78
  Q 218.16 208.29 218.14 199.53
  Q 217.97 140.99 218.00 54.80
  Q 218.01 48.20 216.87 45.97
  Q 214.74 41.74 210.69 39.44
  Q 208.37 38.12 201.09 38.07
  Q 200.32 38.07 127.97 38.13
  Q 55.61 38.18 54.84 38.19
  Q 47.57 38.25 45.25 39.57
  Q 41.20 41.88 39.08 46.11
  Q 37.94 48.35 37.96 54.95
  Q 38.13 141.14 38.06 199.68
  Q 38.05 208.44 39.48 210.92
  C 42.76 216.63 47.19 218.25 54.35 218.22
  Q 64.32 218.18 77.20 218.13
  Q 84.72 218.11 88.83 213.08
  A 5.56 4.88 -14.8 0 0 89.37 212.28
  C 90.67 209.86 91.80 205.80 93.74 202.66
  C 101.28 190.46 113.85 183.12 128.09 183.11"
/>
<path stroke="#1e835c" vector-effect="non-scaling-stroke" d="
  M 89.22 141.44
  A 2.80 2.80 0.0 0 0 91.65 145.64
  L 164.37 145.64
  A 2.80 2.80 0.0 0 0 166.80 141.44
  L 130.43 78.46
  A 2.80 2.80 0.0 0 0 125.59 78.46
  L 89.22 141.44"
/>
</g>
<path fill="#1b2226" d="
  M 256.00 0.00
  L 256.00 256.00
  L 0.00 256.00
  L 0.00 0.00
  L 256.00 0.00
  Z
  M 128.09 183.11
  C 142.32 183.09 154.91 190.42 162.47 202.61
  C 164.41 205.74 165.54 209.80 166.85 212.22
  A 5.56 4.88 14.7 0 0 167.39 213.02
  Q 171.51 218.04 179.03 218.05
  Q 191.91 218.08 201.88 218.10
  C 209.04 218.12 213.47 216.49 216.74 210.78
  Q 218.16 208.29 218.14 199.53
  Q 217.97 140.99 218.00 54.80
  Q 218.01 48.20 216.87 45.97
  Q 214.74 41.74 210.69 39.44
  Q 208.37 38.12 201.09 38.07
  Q 200.32 38.07 127.97 38.13
  Q 55.61 38.18 54.84 38.19
  Q 47.57 38.25 45.25 39.57
  Q 41.20 41.88 39.08 46.11
  Q 37.94 48.35 37.96 54.95
  Q 38.13 141.14 38.06 199.68
  Q 38.05 208.44 39.48 210.92
  C 42.76 216.63 47.19 218.25 54.35 218.22
  Q 64.32 218.18 77.20 218.13
  Q 84.72 218.11 88.83 213.08
  A 5.56 4.88 -14.8 0 0 89.37 212.28
  C 90.67 209.86 91.80 205.80 93.74 202.66
  C 101.28 190.46 113.85 183.12 128.09 183.11
  Z"
/>
<path fill="#20e492" d="
  M 127.97 38.13
  Q 200.32 38.07 201.09 38.07
  Q 208.37 38.12 210.69 39.44
  Q 214.74 41.74 216.87 45.97
  Q 218.01 48.20 218.00 54.80
  Q 217.97 140.99 218.14 199.53
  Q 218.16 208.29 216.74 210.78
  C 213.47 216.49 209.04 218.12 201.88 218.10
  Q 191.91 218.08 179.03 218.05
  Q 171.51 218.04 167.39 213.02
  A 5.56 4.88 14.7 0 1 166.85 212.22
  C 165.54 209.80 164.41 205.74 162.47 202.61
  C 154.91 190.42 142.32 183.09 128.09 183.11
  C 113.85 183.12 101.28 190.46 93.74 202.66
  C 91.80 205.80 90.67 209.86 89.37 212.28
  A 5.56 4.88 -14.8 0 1 88.83 213.08
  Q 84.72 218.11 77.20 218.13
  Q 64.32 218.18 54.35 218.22
  C 47.19 218.25 42.76 216.63 39.48 210.92
  Q 38.05 208.44 38.06 199.68
  Q 38.13 141.14 37.96 54.95
  Q 37.94 48.35 39.08 46.11
  Q 41.20 41.88 45.25 39.57
  Q 47.57 38.25 54.84 38.19
  Q 55.61 38.18 127.97 38.13
  Z
  M 89.22 141.44
  A 2.80 2.80 0.0 0 0 91.65 145.64
  L 164.37 145.64
  A 2.80 2.80 0.0 0 0 166.80 141.44
  L 130.43 78.46
  A 2.80 2.80 0.0 0 0 125.59 78.46
  L 89.22 141.44
  Z"
/>
<path fill="#1b2226" d="
  M 89.22 141.44
  L 125.59 78.46
  A 2.80 2.80 0.0 0 1 130.43 78.46
  L 166.80 141.44
  A 2.80 2.80 0.0 0 1 164.37 145.64
  L 91.65 145.64
  A 2.80 2.80 0.0 0 1 89.22 141.44
  Z"
/>
</svg>