<?xml version="1.0" encoding="UTF-8" standalone="no"?>
<!DOCTYPE svg PUBLIC "-//W3C//DTD SVG 1.1//EN" "http://www.w3.org/Graphics/SVG/1.1/DTD/svg11.dtd">
<svg xmlns="http://www.w3.org/2000/svg" version="1.1" viewBox="0.00 0.00 256.00 256.00" width="128" height="128">
<g stroke-width="2.00" fill="none" stroke-linecap="butt">
<path stroke="#399b74" vector-effect="non-scaling-stroke" d="
  M 48.48 207.99
  C 55.27 208.02 62.98 207.85 70.96 208.01
  C 77.59 208.15 82.66 205.81 87.82 201.39
  C 104.91 186.77 125.17 178.86 147.23 188.30
  Q 156.71 192.36 164.10 198.44
  Q 170.38 203.60 171.16 204.09
  C 176.15 207.20 179.93 208.04 186.20 208.02
  Q 197.55 207.99 207.59 207.99
  A 0.31 0.30 -11.3 0 0 207.88 207.57
  L 141.95 48.56
  A 0.93 0.93 0.0 0 0 141.09 47.99
  L 115.47 47.99
  A 0.90 0.89 -78.7 0 0 114.64 48.55
  Q 83.07 124.90 55.83 190.80
  C 53.56 196.27 50.85 201.91 48.18 207.51
  A 0.34 0.33 -77.1 0 0 48.48 207.99"
/>
<path stroke="#399b74" vector-effect="non-scaling-stroke" d="
  M 128.35 155.12
  C 138.80 155.12 147.67 159.76 156.82 163.72
  A 0.33 0.33 0.0 0 0 157.25 163.30
  Q 132.60 99.56 128.62 89.26
  Q 128.56 89.11 128.36 89.11
  Q 128.17 89.11 128.11 89.26
  Q 124.12 99.56 99.45 163.29
  A 0.33 0.33 0.0 0 0 99.89 163.71
  C 109.04 159.75 117.91 155.12 128.35 155.12"
/>
</g>
<path fill="#0a363a" d="
  M 207.47 0.00
  C 231.69 2.22 251.06 19.07 255.12 43.27
  Q 255.56 45.85 256.00 48.43
  L 256.00 207.45
  Q 254.00 229.81 238.06 243.33
  Q 227.03 252.69 212.72 255.11
  Q 210.14 255.54 207.56 256.00
  L 48.53 256.00
  Q 30.86 254.48 18.05 243.43
  Q 4.17 231.46 0.90 212.72
  Q 0.45 210.14 0.00 207.56
  L 0.00 48.54
  C 2.18 22.00 21.99 2.69 48.47 0.00
  L 207.47 0.00
  Z
  M 48.48 207.99
  C 55.27 208.02 62.98 207.85 70.96 208.01
  C 77.59 208.15 82.66 205.81 87.82 201.39
  C 104.91 186.77 125.17 178.86 147.23 188.30
  Q 156.71 192.36 164.10 198.44
  Q 170.38 203.60 171.16 204.09
  C 176.15 207.20 179.93 208.04 186.20 208.02
  Q 197.55 207.99 207.59 207.99
  A 0.31 0.30 -11.3 0 0 207.88 207.57
  L 141.95 48.56
  A 0.93 0.93 0.0 0 0 141.09 47.99
  L 115.47 47.99
  A 0.90 0.89 -78.7 0 0 114.64 48.55
  Q 83.07 124.90 55.83 190.80
  C 53.56 196.27 50.85 201.91 48.18 207.51
  A 0.34 0.33 -77.1 0 0 48.48 207.99
  Z"
/>
<path fill="#68ffad" d="
  M 48.48 207.99
  A 0.34 0.33 -77.1 0 1 48.18 207.51
  C 50.85 201.91 53.56 196.27 55.83 190.80
  Q 83.07 124.90 114.64 48.55
  A 0.90 0.89 -78.7 0 1 115.47 47.99
  L 141.09 47.99
  A 0.93 0.93 0.0 0 1 141.95 48.56
  L 207.88 207.57
  A 0.31 0.30 -11.3 0 1 207.59 207.99
  Q 197.55 207.99 186.20 208.02
  C 179.93 208.04 176.15 207.20 171.16 204.09
  Q 170.38 203.60 164.10 198.44
  Q 156.71 192.36 147.23 188.30
  C 125.17 178.86 104.91 186.77 87.82 201.39
  C 82.66 205.81 77.59 208.15 70.96 208.01
  C 62.98 207.85 55.27 208.02 48.48 207.99
  Z
  M 128.35 155.12
  C 138.80 155.12 147.67 159.76 156.82 163.72
  A 0.33 0.33 0.0 0 0 157.25 163.30
  Q 132.60 99.56 128.62 89.26
  Q 128.56 89.11 128.36 89.11
  Q 128.17 89.11 128.11 89.26
  Q 124.12 99.56 99.45 163.29
  A 0.33 0.33 0.0 0 0 99.89 163.71
  C 109.04 159.75 117.91 155.12 128.35 155.12
  Z"
/>
<path fill="#0a363a" d="
  M 128.36 89.11
  Q 128.56 89.11 128.62 89.26
  Q 132.60 99.56 157.25 163.30
  A 0.33 0.33 0.0 0 1 156.82 163.72
  C 147.67 159.76 138.80 155.12 128.35 155.12
  C 117.91 155.12 109.04 159.75 99.89 163.71
  A 0.33 0.33 0.0 0 1 99.45 163.29
  Q 124.12 99.56 128.11 89.26
  Q 128.17 89.11 128.36 89.11
  Z"
/>
</svg>