<svg width="128" height="128" viewBox="0 0 221 221" fill="none" xmlns="http://www.w3.org/2000/svg">
<path d="M219.14 1H1V219.14H219.14V1Z" fill="#242B3B"/>
<path d="M220.14 220.14H0V0H220.14V220.14ZM2 218.14H218.14V2H2V218.14Z" fill="white"/>
<path d="M61.9709 139.57L58.1809 161.49H33.4609L57.0209 50.4199H88.0009L108.271 161.49H83.5509L79.9209 139.57H61.9609H61.9709ZM77.9609 119.96L75.1609 98.8699C74.3409 92.6099 72.8509 80.5799 71.8609 73.6599H71.5309C70.3809 80.5799 68.7309 92.9399 67.7409 98.8699L64.4409 119.96H77.9509H77.9609Z" fill="white"/>
<path d="M120.971 74.1499H101.691V50.4199H165.961V74.1499H146.521V161.49H120.981V74.1499H120.971Z" fill="white"/>
<path d="M172.011 162.8C164.431 162.8 157.841 156.37 157.841 146.49C157.841 136.61 164.761 130.01 172.341 130.01C179.921 130.01 186.681 136.11 186.681 146.49C186.681 156.87 180.751 162.8 172.181 162.8H172.021H172.011Z" fill="#3B8AC9"/>
<path d="M142.05 213.7H78.54V220.13H142.05V213.7Z" fill="#EF4160"/>
</svg>