<?xml version="1.0" encoding="UTF-8" standalone="no"?>
<!DOCTYPE svg PUBLIC "-//W3C//DTD SVG 1.1//EN" "http://www.w3.org/Graphics/SVG/1.1/DTD/svg11.dtd">
<svg xmlns="http://www.w3.org/2000/svg" version="1.1" viewBox="0.00 0.00 128.00 128.00" width="128" height="128">
<g stroke-width="2.00" fill="none" stroke-linecap="butt">
<path stroke="#fab788" vector-effect="non-scaling-stroke" d="
  M 68.33 68.92
  C 68.59 60.71 68.57 50.89 65.05 44.22
  C 59.30 33.33 48.62 30.66 38.01 35.79
  C 29.68 39.82 24.41 48.26 22.26 56.97
  Q 20.30 64.90 22.39 74.04
  C 28.76 101.95 59.31 114.80 84.28 101.42
  C 110.16 87.56 114.22 52.78 93.18 33.18
  Q 85.51 26.03 75.16 22.93
  Q 66.41 20.31 54.52 22.13
  C 50.66 22.72 47.84 26.25 51.67 29.37
  A 2.90 2.89 -17.4 0 0 52.65 29.88
  Q 53.41 30.09 58.74 29.24
  Q 65.56 28.15 73.00 30.21
  C 102.75 38.47 108.80 78.86 81.50 94.47
  C 67.50 102.47 49.52 100.58 38.32 88.83
  Q 30.14 80.24 28.94 67.29
  C 28.00 57.21 33.25 45.12 43.45 41.69
  C 54.40 38.01 59.41 46.78 60.20 56.01
  Q 60.59 60.68 60.62 68.93
  A 0.31 0.31 0.0 0 1 60.09 69.15
  L 51.76 60.88
  A 3.52 3.51 -45.8 0 0 46.73 60.96
  L 46.67 61.03
  A 3.63 3.63 0.0 0 0 46.77 66.09
  Q 53.62 72.85 60.39 79.63
  C 62.86 82.10 64.79 83.37 67.59 80.59
  Q 79.23 69.04 82.31 65.97
  A 3.53 3.53 0.0 0 0 82.39 61.05
  L 82.20 60.83
  A 3.35 3.35 0.0 0 0 77.32 60.68
  L 68.86 69.15
  A 0.31 0.31 0.0 0 1 68.33 68.92"
/>
<path stroke="#fab788" vector-effect="non-scaling-stroke" d="
  M 74.2499 89.4261
  A 9.72 3.97 -0.2 0 0 64.5161 85.4900
  A 9.72 3.97 -0.2 0 0 54.8101 89.4939
  A 9.72 3.97 -0.2 0 0 64.5439 93.4300
  A 9.72 3.97 -0.2 0 0 74.2499 89.4261"
/>
</g>
<path fill="#f97316" d="
  M 128.00 0.00
  L 128.00 128.00
  L 0.00 128.00
  L 0.00 0.00
  L 128.00 0.00
  Z
  M 68.33 68.92
  C 68.59 60.71 68.57 50.89 65.05 44.22
  C 59.30 33.33 48.62 30.66 38.01 35.79
  C 29.68 39.82 24.41 48.26 22.26 56.97
  Q 20.30 64.90 22.39 74.04
  C 28.76 101.95 59.31 114.80 84.28 101.42
  C 110.16 87.56 114.22 52.78 93.18 33.18
  Q 85.51 26.03 75.16 22.93
  Q 66.41 20.31 54.52 22.13
  C 50.66 22.72 47.84 26.25 51.67 29.37
  A 2.90 2.89 -17.4 0 0 52.65 29.88
  Q 53.41 30.09 58.74 29.24
  Q 65.56 28.15 73.00 30.21
  C 102.75 38.47 108.80 78.86 81.50 94.47
  C 67.50 102.47 49.52 100.58 38.32 88.83
  Q 30.14 80.24 28.94 67.29
  C 28.00 57.21 33.25 45.12 43.45 41.69
  C 54.40 38.01 59.41 46.78 60.20 56.01
  Q 60.59 60.68 60.62 68.93
  A 0.31 0.31 0.0 0 1 60.09 69.15
  L 51.76 60.88
  A 3.52 3.51 -45.8 0 0 46.73 60.96
  L 46.67 61.03
  A 3.63 3.63 0.0 0 0 46.77 66.09
  Q 53.62 72.85 60.39 79.63
  C 62.86 82.10 64.79 83.37 67.59 80.59
  Q 79.23 69.04 82.31 65.97
  A 3.53 3.53 0.0 0 0 82.39 61.05
  L 82.20 60.83
  A 3.35 3.35 0.0 0 0 77.32 60.68
  L 68.86 69.15
  A 0.31 0.31 0.0 0 1 68.33 68.92
  Z
  M 74.2499 89.4261
  A 9.72 3.97 -0.2 0 0 64.5161 85.4900
  A 9.72 3.97 -0.2 0 0 54.8101 89.4939
  A 9.72 3.97 -0.2 0 0 64.5439 93.4300
  A 9.72 3.97 -0.2 0 0 74.2499 89.4261
  Z"
/>
<path fill="#fafafa" d="
  M 68.33 68.92
  A 0.31 0.31 0.0 0 0 68.86 69.15
  L 77.32 60.68
  A 3.35 3.35 0.0 0 1 82.20 60.83
  L 82.39 61.05
  A 3.53 3.53 0.0 0 1 82.31 65.97
  Q 79.23 69.04 67.59 80.59
  C 64.79 83.37 62.86 82.10 60.39 79.63
  Q 53.62 72.85 46.77 66.09
  A 3.63 3.63 0.0 0 1 46.67 61.03
  L 46.73 60.96
  A 3.52 3.51 -45.8 0 1 51.76 60.88
  L 60.09 69.15
  A 0.31 0.31 0.0 0 0 60.62 68.93
  Q 60.59 60.68 60.20 56.01
  C 59.41 46.78 54.40 38.01 43.45 41.69
  C 33.25 45.12 28.00 57.21 28.94 67.29
  Q 30.14 80.24 38.32 88.83
  C 49.52 100.58 67.50 102.47 81.50 94.47
  C 108.80 78.86 102.75 38.47 73.00 30.21
  Q 65.56 28.15 58.74 29.24
  Q 53.41 30.09 52.65 29.88
  A 2.90 2.89 -17.4 0 1 51.67 29.37
  C 47.84 26.25 50.66 22.72 54.52 22.13
  Q 66.41 20.31 75.16 22.93
  Q 85.51 26.03 93.18 33.18
  C 114.22 52.78 110.16 87.56 84.28 101.42
  C 59.31 114.80 28.76 101.95 22.39 74.04
  Q 20.30 64.90 22.26 56.97
  C 24.41 48.26 29.68 39.82 38.01 35.79
  C 48.62 30.66 59.30 33.33 65.05 44.22
  C 68.57 50.89 68.59 60.71 68.33 68.92
  Z"
/>
<ellipse fill="#fafafa" cx="0.00" cy="0.00" transform="translate(64.53,89.46) rotate(-0.2)" rx="9.72" ry="3.97"/>
</svg>