<?xml version="1.0" encoding="UTF-8" standalone="no"?>
<!DOCTYPE svg PUBLIC "-//W3C//DTD SVG 1.1//EN" "http://www.w3.org/Graphics/SVG/1.1/DTD/svg11.dtd">
<svg xmlns="http://www.w3.org/2000/svg" version="1.1" viewBox="0.00 0.00 256.00 256.00" width="128" height="128">
<g stroke-width="2.00" fill="none" stroke-linecap="butt">
<path stroke="#d7fea3" vector-effect="non-scaling-stroke" d="
  M 85.25 0.00
  L 66.68 1.31
  A 2.00 1.91 28.0 0 0 65.93 1.52
  C 59.72 4.53 49.51 7.03 42.87 10.42
  C 25.29 19.38 12.13 35.52 6.05 53.97
  A 6.84 6.03 71.1 0 1 5.66 54.91
  Q 3.14 59.90 2.74 62.60
  Q 1.76 69.29 0.44 74.74
  A 1.44 0.98 -74.0 0 0 0.41 74.94
  L 0.00 80.51"
/>
<path stroke="#d7fea3" vector-effect="non-scaling-stroke" d="
  M 168.62 0.00
  L 187.50 1.08
  A 3.90 3.63 53.4 0 1 188.31 1.23
  Q 192.04 2.43 194.10 2.79
  C 198.74 3.57 201.92 5.38 207.79 7.63
  C 216.97 11.14 226.17 17.99 232.74 24.57
  Q 248.83 40.70 253.28 63.49
  Q 255.28 73.77 255.32 87.28
  Q 255.49 149.70 255.25 167.70
  Q 255.18 172.82 254.86 176.79
  Q 254.41 182.30 254.26 185.87
  Q 253.96 192.80 252.07 199.20
  Q 243.37 228.71 217.95 244.54
  C 210.79 248.99 203.78 251.24 195.44 253.67
  Q 193.76 254.16 190.61 254.10
  A 0.53 0.48 -47.9 0 0 190.51 254.11
  L 177.00 256.00"
/>
<path stroke="#d7fea3" vector-effect="non-scaling-stroke" d="
  M 75.86 256.00
  Q 66.81 255.43 64.22 254.85
  Q 57.93 253.43 48.51 249.27
  Q 40.40 245.69 33.96 241.02
  C 21.79 232.19 12.16 220.01 7.07 205.84
  C 5.03 200.14 2.60 194.96 2.57 189.19
  A 2.68 2.61 -56.4 0 0 2.41 188.34
  Q 0.80 184.23 0.86 183.45
  Q 1.07 180.32 0.43 177.62
  A 4.52 4.51 -53.0 0 1 0.32 176.83
  L 0.00 167.62"
/>
<path stroke="#688e33" vector-effect="non-scaling-stroke" d="
  M 101.87 61.56
  Q 85.10 65.84 76.65 80.00
  Q 73.87 84.68 72.06 91.65
  Q 69.78 100.44 66.97 109.19
  Q 65.60 113.45 63.40 114.64
  Q 58.96 117.04 54.87 118.14
  A 3.07 3.06 -1.7 0 0 52.66 120.48
  C 50.99 128.54 55.35 129.83 62.63 129.53
  Q 67.98 129.31 84.01 129.55
  Q 88.33 129.62 128.21 129.88
  Q 135.03 129.93 138.30 129.78
  C 146.94 129.38 155.61 129.87 163.58 129.61
  Q 176.45 129.19 194.50 129.26
  Q 198.97 129.27 200.94 128.37
  C 203.16 127.36 203.90 122.97 203.67 120.80
  A 2.84 2.83 -81.9 0 0 201.93 118.48
  C 195.46 115.82 190.58 115.19 188.47 107.27
  C 184.82 93.55 182.73 80.20 172.44 71.10
  Q 168.15 67.30 166.25 66.21
  Q 157.02 60.91 144.44 60.66"
/>
<path stroke="#6a9134" vector-effect="non-scaling-stroke" d="
  M 144.44 60.66
  Q 123.16 59.12 101.87 61.56"
/>
<path stroke="#20221d" vector-effect="non-scaling-stroke" d="
  M 144.44 60.66
  L 101.87 61.56"
/>
<path stroke="#6a9134" vector-effect="non-scaling-stroke" d="
  M 123.36 160.95
  L 132.84 160.95
  A 1.51 1.50 -89.4 0 1 134.34 162.49
  Q 134.23 166.76 134.36 170.97
  Q 134.77 183.85 145.45 191.25
  Q 155.32 198.07 166.61 195.58
  Q 172.28 194.33 177.92 191.41
  Q 179.86 190.40 182.58 187.08
  Q 188.98 179.28 190.20 169.82
  Q 191.09 162.95 196.52 157.72
  A 3.03 2.91 83.1 0 0 197.07 156.99
  C 198.72 153.90 200.27 147.84 195.02 147.03
  Q 191.60 146.51 187.68 146.44
  Q 162.78 146.02 158.25 146.12
  C 148.53 146.34 142.58 146.70 135.09 146.52
  C 126.06 146.31 118.67 146.87 110.97 146.47
  Q 94.59 145.63 65.76 146.65
  Q 62.89 146.75 60.14 147.36
  A 2.80 2.80 0.0 0 0 57.97 149.75
  Q 57.49 153.63 58.51 156.50
  A 3.36 3.28 -75.3 0 0 59.04 157.43
  C 61.18 160.08 65.06 161.16 65.58 164.93
  C 66.47 171.39 66.47 176.47 69.70 181.80
  Q 73.99 188.87 80.78 192.95
  C 89.69 198.31 100.28 196.93 109.45 192.14
  C 112.67 190.46 118.14 184.51 119.32 182.05
  C 122.49 175.43 122.06 168.69 122.08 162.23
  A 1.28 1.28 0.0 0 1 123.36 160.95"
/>
<path stroke="#688e33" vector-effect="non-scaling-stroke" d="
  M 104.76 74.91
  C 97.67 76.44 90.24 81.32 87.45 88.28
  Q 83.42 98.31 81.26 106.01
  C 80.43 108.99 78.17 116.23 82.72 116.04
  Q 91.78 115.67 97.51 115.84
  Q 121.24 116.54 149.00 116.09
  Q 162.36 115.87 174.04 116.17
  A 2.14 2.14 0.0 0 0 176.24 114.07
  Q 176.31 110.71 175.10 106.29
  Q 173.93 102.01 170.38 92.14
  Q 168.28 86.29 166.69 84.32
  Q 159.05 74.88 146.49 74.66
  Q 138.44 74.53 130.51 74.49"
/>
<path stroke="#20221d" vector-effect="non-scaling-stroke" d="
  M 130.51 74.49
  Q 117.53 71.89 104.76 74.91"
/>
<path stroke="#6a9134" vector-effect="non-scaling-stroke" d="
  M 130.51 74.49
  L 104.76 74.91"
/>
<path stroke="#6a9134" vector-effect="non-scaling-stroke" d="
  M 109.25 162.25
  Q 104.29 160.27 100.72 160.21
  Q 87.02 159.96 83.99 160.19
  Q 80.95 160.41 80.53 163.01
  C 79.04 172.27 80.56 178.10 89.79 181.63
  C 94.41 183.40 99.17 182.98 102.96 179.73
  C 108.16 175.28 110.49 169.76 109.84 163.04
  A 0.97 0.96 8.3 0 0 109.25 162.25"
/>
<path stroke="#6a9134" vector-effect="non-scaling-stroke" d="
  M 171.51 160.02
  L 151.66 160.47
  A 5.20 5.20 0.0 0 0 146.58 165.78
  L 146.60 166.76
  A 16.24 14.91 88.7 0 0 161.87 182.66
  L 162.31 182.65
  A 16.24 14.91 88.7 0 0 176.85 166.08
  L 176.83 165.10
  A 5.20 5.20 0.0 0 0 171.51 160.02"
/>
</g>
<path fill="#fdfefb" d="
  M 85.25 0.00
  L 66.68 1.31
  A 2.00 1.91 28.0 0 0 65.93 1.52
  C 59.72 4.53 49.51 7.03 42.87 10.42
  C 25.29 19.38 12.13 35.52 6.05 53.97
  A 6.84 6.03 71.1 0 1 5.66 54.91
  Q 3.14 59.90 2.74 62.60
  Q 1.76 69.29 0.44 74.74
  A 1.44 0.98 -74.0 0 0 0.41 74.94
  L 0.00 80.51
  L 0.00 0.00
  L 85.25 0.00
  Z"
/>
<path fill="#b1fd4a" d="
  M 168.62 0.00
  L 187.50 1.08
  A 3.90 3.63 53.4 0 1 188.31 1.23
  Q 192.04 2.43 194.10 2.79
  C 198.74 3.57 201.92 5.38 207.79 7.63
  C 216.97 11.14 226.17 17.99 232.74 24.57
  Q 248.83 40.70 253.28 63.49
  Q 255.28 73.77 255.32 87.28
  Q 255.49 149.70 255.25 167.70
  Q 255.18 172.82 254.86 176.79
  Q 254.41 182.30 254.26 185.87
  Q 253.96 192.80 252.07 199.20
  Q 243.37 228.71 217.95 244.54
  C 210.79 248.99 203.78 251.24 195.44 253.67
  Q 193.76 254.16 190.61 254.10
  A 0.53 0.48 -47.9 0 0 190.51 254.11
  L 177.00 256.00
  L 75.86 256.00
  Q 66.81 255.43 64.22 254.85
  Q 57.93 253.43 48.51 249.27
  Q 40.40 245.69 33.96 241.02
  C 21.79 232.19 12.16 220.01 7.07 205.84
  C 5.03 200.14 2.60 194.96 2.57 189.19
  A 2.68 2.61 -56.4 0 0 2.41 188.34
  Q 0.80 184.23 0.86 183.45
  Q 1.07 180.32 0.43 177.62
  A 4.52 4.51 -53.0 0 1 0.32 176.83
  L 0.00 167.62
  L 0.00 80.51
  L 0.41 74.94
  A 1.44 0.98 -74.0 0 1 0.44 74.74
  Q 1.76 69.29 2.74 62.60
  Q 3.14 59.90 5.66 54.91
  A 6.84 6.03 71.1 0 0 6.05 53.97
  C 12.13 35.52 25.29 19.38 42.87 10.42
  C 49.51 7.03 59.72 4.53 65.93 1.52
  A 2.00 1.91 28.0 0 1 66.68 1.31
  L 85.25 0.00
  L 168.62 0.00
  Z
  M 101.87 61.56
  Q 85.10 65.84 76.65 80.00
  Q 73.87 84.68 72.06 91.65
  Q 69.78 100.44 66.97 109.19
  Q 65.60 113.45 63.40 114.64
  Q 58.96 117.04 54.87 118.14
  A 3.07 3.06 -1.7 0 0 52.66 120.48
  C 50.99 128.54 55.35 129.83 62.63 129.53
  Q 67.98 129.31 84.01 129.55
  Q 88.33 129.62 128.21 129.88
  Q 135.03 129.93 138.30 129.78
  C 146.94 129.38 155.61 129.87 163.58 129.61
  Q 176.45 129.19 194.50 129.26
  Q 198.97 129.27 200.94 128.37
  C 203.16 127.36 203.90 122.97 203.67 120.80
  A 2.84 2.83 -81.9 0 0 201.93 118.48
  C 195.46 115.82 190.58 115.19 188.47 107.27
  C 184.82 93.55 182.73 80.20 172.44 71.10
  Q 168.15 67.30 166.25 66.21
  Q 157.02 60.91 144.44 60.66
  Q 123.16 59.12 101.87 61.56
  Z
  M 123.36 160.95
  L 132.84 160.95
  A 1.51 1.50 -89.4 0 1 134.34 162.49
  Q 134.23 166.76 134.36 170.97
  Q 134.77 183.85 145.45 191.25
  Q 155.32 198.07 166.61 195.58
  Q 172.28 194.33 177.92 191.41
  Q 179.86 190.40 182.58 187.08
  Q 188.98 179.28 190.20 169.82
  Q 191.09 162.95 196.52 157.72
  A 3.03 2.91 83.1 0 0 197.07 156.99
  C 198.72 153.90 200.27 147.84 195.02 147.03
  Q 191.60 146.51 187.68 146.44
  Q 162.78 146.02 158.25 146.12
  C 148.53 146.34 142.58 146.70 135.09 146.52
  C 126.06 146.31 118.67 146.87 110.97 146.47
  Q 94.59 145.63 65.76 146.65
  Q 62.89 146.75 60.14 147.36
  A 2.80 2.80 0.0 0 0 57.97 149.75
  Q 57.49 153.63 58.51 156.50
  A 3.36 3.28 -75.3 0 0 59.04 157.43
  C 61.18 160.08 65.06 161.16 65.58 164.93
  C 66.47 171.39 66.47 176.47 69.70 181.80
  Q 73.99 188.87 80.78 192.95
  C 89.69 198.31 100.28 196.93 109.45 192.14
  C 112.67 190.46 118.14 184.51 119.32 182.05
  C 122.49 175.43 122.06 168.69 122.08 162.23
  A 1.28 1.28 0.0 0 1 123.36 160.95
  Z"
/>
<path fill="#fdfefb" d="
  M 256.00 0.00
  L 256.00 256.00
  L 177.00 256.00
  L 190.51 254.11
  A 0.53 0.48 -47.9 0 1 190.61 254.10
  Q 193.76 254.16 195.44 253.67
  C 203.78 251.24 210.79 248.99 217.95 244.54
  Q 243.37 228.71 252.07 199.20
  Q 253.96 192.80 254.26 185.87
  Q 254.41 182.30 254.86 176.79
  Q 255.18 172.82 255.25 167.70
  Q 255.49 149.70 255.32 87.28
  Q 255.28 73.77 253.28 63.49
  Q 248.83 40.70 232.74 24.57
  C 226.17 17.99 216.97 11.14 207.79 7.63
  C 201.92 5.38 198.74 3.57 194.10 2.79
  Q 192.04 2.43 188.31 1.23
  A 3.90 3.63 53.4 0 0 187.50 1.08
  L 168.62 0.00
  L 256.00 0.00
  Z"
/>
<path fill="#22251d" d="
  M 144.44 60.66
  L 101.87 61.56
  Q 123.16 59.12 144.44 60.66
  Z"
/>
<path fill="#1e1e1c" d="
  M 101.87 61.56
  L 144.44 60.66
  Q 157.02 60.91 166.25 66.21
  Q 168.15 67.30 172.44 71.10
  C 182.73 80.20 184.82 93.55 188.47 107.27
  C 190.58 115.19 195.46 115.82 201.93 118.48
  A 2.84 2.83 -81.9 0 1 203.67 120.80
  C 203.90 122.97 203.16 127.36 200.94 128.37
  Q 198.97 129.27 194.50 129.26
  Q 176.45 129.19 163.58 129.61
  C 155.61 129.87 146.94 129.38 138.30 129.78
  Q 135.03 129.93 128.21 129.88
  Q 88.33 129.62 84.01 129.55
  Q 67.98 129.31 62.63 129.53
  C 55.35 129.83 50.99 128.54 52.66 120.48
  A 3.07 3.06 -1.7 0 1 54.87 118.14
  Q 58.96 117.04 63.40 114.64
  Q 65.60 113.45 66.97 109.19
  Q 69.78 100.44 72.06 91.65
  Q 73.87 84.68 76.65 80.00
  Q 85.10 65.84 101.87 61.56
  Z
  M 104.76 74.91
  C 97.67 76.44 90.24 81.32 87.45 88.28
  Q 83.42 98.31 81.26 106.01
  C 80.43 108.99 78.17 116.23 82.72 116.04
  Q 91.78 115.67 97.51 115.84
  Q 121.24 116.54 149.00 116.09
  Q 162.36 115.87 174.04 116.17
  A 2.14 2.14 0.0 0 0 176.24 114.07
  Q 176.31 110.71 175.10 106.29
  Q 173.93 102.01 170.38 92.14
  Q 168.28 86.29 166.69 84.32
  Q 159.05 74.88 146.49 74.66
  Q 138.44 74.53 130.51 74.49
  Q 117.53 71.89 104.76 74.91
  Z"
/>
<path fill="#22251d" d="
  M 130.51 74.49
  L 104.76 74.91
  Q 117.53 71.89 130.51 74.49
  Z"
/>
<path fill="#b1fd4a" d="
  M 130.51 74.49
  Q 138.44 74.53 146.49 74.66
  Q 159.05 74.88 166.69 84.32
  Q 168.28 86.29 170.38 92.14
  Q 173.93 102.01 175.10 106.29
  Q 176.31 110.71 176.24 114.07
  A 2.14 2.14 0.0 0 1 174.04 116.17
  Q 162.36 115.87 149.00 116.09
  Q 121.24 116.54 97.51 115.84
  Q 91.78 115.67 82.72 116.04
  C 78.17 116.23 80.43 108.99 81.26 106.01
  Q 83.42 98.31 87.45 88.28
  C 90.24 81.32 97.67 76.44 104.76 74.91
  L 130.51 74.49
  Z"
/>
<path fill="#22251d" d="
  M 123.36 160.95
  A 1.28 1.28 0.0 0 0 122.08 162.23
  C 122.06 168.69 122.49 175.43 119.32 182.05
  C 118.14 184.51 112.67 190.46 109.45 192.14
  C 100.28 196.93 89.69 198.31 80.78 192.95
  Q 73.99 188.87 69.70 181.80
  C 66.47 176.47 66.47 171.39 65.58 164.93
  C 65.06 161.16 61.18 160.08 59.04 157.43
  A 3.36 3.28 -75.3 0 1 58.51 156.50
  Q 57.49 153.63 57.97 149.75
  A 2.80 2.80 0.0 0 1 60.14 147.36
  Q 62.89 146.75 65.76 146.65
  Q 94.59 145.63 110.97 146.47
  C 118.67 146.87 126.06 146.31 135.09 146.52
  C 142.58 146.70 148.53 146.34 158.25 146.12
  Q 162.78 146.02 187.68 146.44
  Q 191.60 146.51 195.02 147.03
  C 200.27 147.84 198.72 153.90 197.07 156.99
  A 3.03 2.91 83.1 0 1 196.52 157.72
  Q 191.09 162.95 190.20 169.82
  Q 188.98 179.28 182.58 187.08
  Q 179.86 190.40 177.92 191.41
  Q 172.28 194.33 166.61 195.58
  Q 155.32 198.07 145.45 191.25
  Q 134.77 183.85 134.36 170.97
  Q 134.23 166.76 134.34 162.49
  A 1.51 1.50 -89.4 0 0 132.84 160.95
  L 123.36 160.95
  Z
  M 109.25 162.25
  Q 104.29 160.27 100.72 160.21
  Q 87.02 159.96 83.99 160.19
  Q 80.95 160.41 80.53 163.01
  C 79.04 172.27 80.56 178.10 89.79 181.63
  C 94.41 183.40 99.17 182.98 102.96 179.73
  C 108.16 175.28 110.49 169.76 109.84 163.04
  A 0.97 0.96 8.3 0 0 109.25 162.25
  Z
  M 171.51 160.02
  L 151.66 160.47
  A 5.20 5.20 0.0 0 0 146.58 165.78
  L 146.60 166.76
  A 16.24 14.91 88.7 0 0 161.87 182.66
  L 162.31 182.65
  A 16.24 14.91 88.7 0 0 176.85 166.08
  L 176.83 165.10
  A 5.20 5.20 0.0 0 0 171.51 160.02
  Z"
/>
<path fill="#b1fd4a" d="
  M 109.84 163.04
  C 110.49 169.76 108.16 175.28 102.96 179.73
  C 99.17 182.98 94.41 183.40 89.79 181.63
  C 80.56 178.10 79.04 172.27 80.53 163.01
  Q 80.95 160.41 83.99 160.19
  Q 87.02 159.96 100.72 160.21
  Q 104.29 160.27 109.25 162.25
  A 0.97 0.96 8.3 0 1 109.84 163.04
  Z"
/>
<path fill="#b1fd4a" d="
  M 171.51 160.02
  A 5.20 5.20 0.0 0 1 176.83 165.10
  L 176.85 166.08
  A 16.24 14.91 88.7 0 1 162.31 182.65
  L 161.87 182.66
  A 16.24 14.91 88.7 0 1 146.60 166.76
  L 146.58 165.78
  A 5.20 5.20 0.0 0 1 151.66 160.47
  L 171.51 160.02
  Z"
/>
<path fill="#fdfefb" d="
  M 75.86 256.00
  L 0.00 256.00
  L 0.00 167.62
  L 0.32 176.83
  A 4.52 4.51 -53.0 0 0 0.43 177.62
  Q 1.07 180.32 0.86 183.45
  Q 0.80 184.23 2.41 188.34
  A 2.68 2.61 -56.4 0 1 2.57 189.19
  C 2.60 194.96 5.03 200.14 7.07 205.84
  C 12.16 220.01 21.79 232.19 33.96 241.02
  Q 40.40 245.69 48.51 249.27
  Q 57.93 253.43 64.22 254.85
  Q 66.81 255.43 75.86 256.00
  Z"
/>
</svg>