<?xml version="1.0" encoding="UTF-8" standalone="no"?>
<!DOCTYPE svg PUBLIC "-//W3C//DTD SVG 1.1//EN" "http://www.w3.org/Graphics/SVG/1.1/DTD/svg11.dtd">
<svg xmlns="http://www.w3.org/2000/svg" version="1.1" viewBox="0.00 0.00 256.00 256.00" width="128" height="128">
<path stroke="#6d8586" stroke-width="2.00" fill="none" stroke-linecap="butt" vector-effect="non-scaling-stroke" d="
  M 173.49 104.20
  Q 160.90 104.34 80.62 104.20
  Q 63.40 104.17 58.01 105.69
  C 32.48 112.85 18.32 141.91 30.22 166.45
  C 35.76 177.87 45.48 186.15 57.34 189.59
  Q 62.48 191.09 78.30 191.06
  Q 148.89 190.92 160.61 191.03
  Q 172.45 191.14 177.34 190.24
  C 195.98 186.82 211.52 176.29 220.96 160.29
  C 242.95 123.01 223.27 75.33 181.15 65.31
  Q 174.50 63.73 158.28 63.93
  Q 147.98 64.06 87.04 63.97
  A 0.73 0.71 15.8 0 0 86.43 64.30
  L 70.28 89.79
  A 0.39 0.39 0.0 0 0 70.61 90.39
  Q 131.80 90.34 167.74 90.41
  C 183.03 90.44 196.58 99.93 201.67 114.06
  C 210.56 138.75 193.39 164.67 166.78 164.64
  Q 80.99 164.57 75.39 164.67
  Q 65.18 164.87 61.79 163.30
  C 47.66 156.73 49.17 137.25 63.26 131.66
  Q 65.63 130.72 71.37 130.73
  Q 88.19 130.76 156.62 130.75
  A 0.99 0.98 -73.8 0 0 157.45 130.29
  L 173.72 104.61
  A 0.27 0.27 0.0 0 0 173.49 104.20"
/>
<path fill="#14343b" d="
  M 256.00 0.00
  L 256.00 256.00
  L 0.00 256.00
  L 0.00 0.00
  L 256.00 0.00
  Z
  M 173.49 104.20
  Q 160.90 104.34 80.62 104.20
  Q 63.40 104.17 58.01 105.69
  C 32.48 112.85 18.32 141.91 30.22 166.45
  C 35.76 177.87 45.48 186.15 57.34 189.59
  Q 62.48 191.09 78.30 191.06
  Q 148.89 190.92 160.61 191.03
  Q 172.45 191.14 177.34 190.24
  C 195.98 186.82 211.52 176.29 220.96 160.29
  C 242.95 123.01 223.27 75.33 181.15 65.31
  Q 174.50 63.73 158.28 63.93
  Q 147.98 64.06 87.04 63.97
  A 0.73 0.71 15.8 0 0 86.43 64.30
  L 70.28 89.79
  A 0.39 0.39 0.0 0 0 70.61 90.39
  Q 131.80 90.34 167.74 90.41
  C 183.03 90.44 196.58 99.93 201.67 114.06
  C 210.56 138.75 193.39 164.67 166.78 164.64
  Q 80.99 164.57 75.39 164.67
  Q 65.18 164.87 61.79 163.30
  C 47.66 156.73 49.17 137.25 63.26 131.66
  Q 65.63 130.72 71.37 130.73
  Q 88.19 130.76 156.62 130.75
  A 0.99 0.98 -73.8 0 0 157.45 130.29
  L 173.72 104.61
  A 0.27 0.27 0.0 0 0 173.49 104.20
  Z"
/>
<path fill="#c6d5d1" d="
  M 173.49 104.20
  A 0.27 0.27 0.0 0 1 173.72 104.61
  L 157.45 130.29
  A 0.99 0.98 -73.8 0 1 156.62 130.75
  Q 88.19 130.76 71.37 130.73
  Q 65.63 130.72 63.26 131.66
  C 49.17 137.25 47.66 156.73 61.79 163.30
  Q 65.18 164.87 75.39 164.67
  Q 80.99 164.57 166.78 164.64
  C 193.39 164.67 210.56 138.75 201.67 114.06
  C 196.58 99.93 183.03 90.44 167.74 90.41
  Q 131.80 90.34 70.61 90.39
  A 0.39 0.39 0.0 0 1 70.28 89.79
  L 86.43 64.30
  A 0.73 0.71 15.8 0 1 87.04 63.97
  Q 147.98 64.06 158.28 63.93
  Q 174.50 63.73 181.15 65.31
  C 223.27 75.33 242.95 123.01 220.96 160.29
  C 211.52 176.29 195.98 186.82 177.34 190.24
  Q 172.45 191.14 160.61 191.03
  Q 148.89 190.92 78.30 191.06
  Q 62.48 191.09 57.34 189.59
  C 45.48 186.15 35.76 177.87 30.22 166.45
  C 18.32 141.91 32.48 112.85 58.01 105.69
  Q 63.40 104.17 80.62 104.20
  Q 160.90 104.34 173.49 104.20
  Z"
/>
</svg>