<?xml version="1.0" encoding="UTF-8" standalone="no"?>
<!DOCTYPE svg PUBLIC "-//W3C//DTD SVG 1.1//EN" "http://www.w3.org/Graphics/SVG/1.1/DTD/svg11.dtd">
<svg xmlns="http://www.w3.org/2000/svg" version="1.1" viewBox="0.00 0.00 256.00 256.00" width="128" height="128">
<path fill="#ed601a" d="
  M 161.75 71.86
  L 161.75 85.67
  A 1.07 1.05 -18.6 0 1 161.32 86.52
  L 143.24 99.51
  A 0.30 0.30 0.0 0 1 142.77 99.26
  Q 142.73 66.48 142.77 51.02
  C 142.80 42.34 149.49 35.56 158.22 37.40
  C 162.29 38.25 164.69 40.25 167.01 44.00
  Q 178.31 62.21 183.25 70.15
  A 0.57 0.57 0.0 0 1 183.10 70.92
  L 168.70 81.27
  A 0.57 0.57 0.0 0 1 167.89 81.11
  L 162.13 71.75
  A 0.21 0.21 0.0 0 0 161.75 71.86
  Z"
/>
<path fill="#ed601a" d="
  M 236.25 155.23
  L 236.25 62.43
  A 0.29 0.28 72.6 0 0 235.80 62.19
  L 20.10 217.18
  A 4.29 4.17 -72.3 0 1 19.09 217.72
  C 12.57 220.17 5.72 218.29 2.38 212.45
  Q 0.98 209.99 0.99 202.77
  Q 1.02 49.96 1.01 48.57
  A 2.37 2.36 -37.7 0 1 1.09 47.96
  Q 3.53 39.59 11.29 38.16
  Q 17.62 37.00 22.40 41.35
  Q 56.22 72.08 111.12 121.90
  A 0.48 0.48 0.0 0 1 111.08 122.65
  L 96.41 133.18
  A 0.72 0.72 0.0 0 1 95.51 133.13
  L 20.29 64.85
  A 0.32 0.32 0.0 0 0 19.75 65.09
  L 19.75 193.62
  A 0.27 0.27 0.0 0 0 20.17 193.84
  Q 156.34 96.15 231.17 42.31
  Q 237.76 37.57 240.65 37.23
  Q 246.03 36.60 250.87 40.39
  C 255.56 44.05 255.01 48.81 255.01 55.63
  Q 255.00 168.21 254.99 179.97
  A 1.06 0.96 -42.1 0 1 254.97 180.17
  Q 252.67 189.45 244.23 190.55
  Q 235.74 191.65 231.07 183.93
  Q 203.52 138.43 183.48 106.39
  A 0.66 0.65 -33.8 0 1 183.66 105.51
  L 198.10 95.13
  A 0.50 0.50 0.0 0 1 198.81 95.27
  L 235.81 155.36
  A 0.24 0.24 0.0 0 0 236.25 155.23
  Z"
/>
<path fill="#ed601a" d="
  M 161.73 122.18
  Q 161.74 161.34 161.76 163.26
  Q 161.90 174.47 151.25 176.99
  Q 145.45 178.36 140.38 173.85
  Q 132.29 166.67 117.73 153.38
  A 0.32 0.31 48.2 0 1 117.75 152.90
  L 132.58 142.25
  A 0.71 0.70 47.8 0 1 133.47 142.30
  L 142.56 150.55
  A 0.26 0.26 0.0 0 0 143.00 150.36
  L 143.00 135.44
  A 1.17 1.14 -18.2 0 1 143.49 134.50
  L 161.09 121.85
  A 0.41 0.40 72.0 0 1 161.73 122.18
  Z"
/>
</svg>