<?xml version="1.0" encoding="UTF-8" standalone="no"?>
<!DOCTYPE svg PUBLIC "-//W3C//DTD SVG 1.1//EN" "http://www.w3.org/Graphics/SVG/1.1/DTD/svg11.dtd">
<svg xmlns="http://www.w3.org/2000/svg" version="1.1" viewBox="0.00 0.00 256.00 256.00" width="128" height="128">
<path fill="#ffcc27" d="
  M 1.20 235.70
  L 2.22 235.00
  A 0.82 0.76 -3.2 0 0 2.46 234.75
  C 6.84 227.76 9.85 222.07 16.87 210.05
  C 23.19 199.23 28.41 189.51 34.29 179.78
  Q 37.80 173.96 41.49 167.54
  Q 59.20 136.72 80.39 99.94
  Q 82.28 96.66 84.21 93.43
  Q 95.02 75.32 106.99 54.11
  C 112.61 44.14 119.95 32.28 125.49 21.98
  Q 126.45 20.19 128.30 19.27
  A 2.08 2.07 -32.0 0 1 130.87 19.86
  C 131.85 21.12 132.35 23.05 133.21 24.56
  Q 152.37 58.16 166.72 82.75
  Q 174.47 96.02 200.89 142.30
  Q 203.33 146.58 207.54 153.40
  C 210.27 157.81 212.42 162.27 216.00 168.41
  Q 230.37 193.06 251.34 229.82
  C 252.44 231.75 254.61 234.01 255.29 235.69
  A 0.44 0.44 0.0 0 1 254.95 236.29
  Q 250.89 236.95 249.50 236.96
  Q 229.21 237.08 216.17 236.95
  A 2.58 2.56 75.6 0 1 213.94 235.62
  Q 196.33 203.65 178.78 173.50
  Q 149.82 123.75 130.73 89.94
  A 1.88 1.87 48.0 0 0 127.57 89.77
  C 122.71 96.57 120.09 101.87 113.35 113.23
  C 105.98 125.65 99.05 138.52 91.53 151.00
  Q 87.69 157.36 84.02 163.86
  Q 79.77 171.39 75.68 178.72
  C 71.34 186.51 66.17 193.97 62.40 202.69
  A 0.59 0.59 0.0 0 0 62.92 203.52
  Q 75.02 204.01 83.34 203.28
  Q 90.74 202.63 96.66 203.04
  C 107.05 203.76 120.30 202.84 132.41 203.30
  Q 141.27 203.64 147.25 203.34
  C 150.70 203.16 151.59 205.90 153.21 209.05
  Q 157.94 218.30 161.38 227.28
  C 162.46 230.08 164.62 232.89 165.38 235.17
  A 0.92 0.92 0.0 0 1 164.74 236.36
  Q 162.38 237.00 159.75 237.00
  Q 36.90 237.01 6.50 236.99
  Q 3.51 236.98 1.30 236.33
  A 0.35 0.35 0.0 0 1 1.20 235.70
  Z"
/>
</svg>