<?xml version="1.0" encoding="UTF-8" standalone="no"?>
<!DOCTYPE svg PUBLIC "-//W3C//DTD SVG 1.1//EN" "http://www.w3.org/Graphics/SVG/1.1/DTD/svg11.dtd">
<svg xmlns="http://www.w3.org/2000/svg" version="1.1" viewBox="0.00 0.00 256.00 256.00" width="128" height="128">
<g stroke-width="2.00" fill="none" stroke-linecap="butt">
<path stroke="#808080" vector-effect="non-scaling-stroke" d="
  M 37.00 128.01
  Q 37.00 131.42 38.40 133.84
  Q 46.83 148.38 76.05 198.69
  Q 79.12 203.96 80.95 205.33
  Q 84.36 207.87 88.76 208.00
  Q 89.03 208.00 128.01 208.00
  Q 167.00 208.00 167.26 207.99
  Q 171.66 207.86 175.07 205.32
  Q 176.90 203.95 179.97 198.68
  Q 209.18 148.36 217.60 133.82
  Q 219.00 131.40 219.00 127.99
  Q 219.00 124.58 217.60 122.16
  Q 209.17 107.62 179.95 57.31
  Q 176.88 52.04 175.05 50.67
  Q 171.64 48.13 167.24 48.00
  Q 166.98 48.00 127.99 48.00
  Q 89.01 48.01 88.74 48.01
  Q 84.34 48.14 80.93 50.68
  Q 79.10 52.05 76.03 57.32
  Q 46.83 107.64 38.40 122.18
  Q 37.00 124.61 37.00 128.01"
/>
<path stroke="#808080" vector-effect="non-scaling-stroke" d="
  M 113.32 124.74
  Q 122.01 131.27 137.73 143.30
  C 143.36 147.60 147.11 144.69 150.90 139.54
  Q 151.30 138.99 175.10 109.36
  C 179.63 103.72 173.49 96.80 167.16 99.03
  Q 165.48 99.63 162.52 103.32
  Q 148.68 120.59 142.01 128.94
  A 0.56 0.54 -51.8 0 1 141.25 129.04
  Q 117.74 111.21 117.11 110.69
  Q 114.80 108.79 113.38 108.55
  C 108.87 107.76 107.36 109.31 104.30 113.16
  Q 78.49 145.64 78.25 145.95
  A 2.67 2.55 76.2 0 0 77.84 146.66
  C 75.49 152.89 81.79 158.24 87.46 155.26
  Q 88.77 154.57 91.48 151.13
  Q 104.14 135.10 112.39 124.86
  A 0.68 0.67 -52.2 0 1 113.32 124.74"
/>
</g>
<path fill="#ffffff" d="
  M 234.44 0.00
  C 246.31 1.73 254.21 9.90 256.00 21.50
  L 256.00 234.47
  Q 252.83 252.74 234.51 256.00
  L 21.56 256.00
  C 9.65 254.26 1.85 246.09 0.00 234.50
  L 0.00 21.53
  Q 3.21 3.26 21.50 0.00
  L 234.44 0.00
  Z
  M 37.00 128.01
  Q 37.00 131.42 38.40 133.84
  Q 46.83 148.38 76.05 198.69
  Q 79.12 203.96 80.95 205.33
  Q 84.36 207.87 88.76 208.00
  Q 89.03 208.00 128.01 208.00
  Q 167.00 208.00 167.26 207.99
  Q 171.66 207.86 175.07 205.32
  Q 176.90 203.95 179.97 198.68
  Q 209.18 148.36 217.60 133.82
  Q 219.00 131.40 219.00 127.99
  Q 219.00 124.58 217.60 122.16
  Q 209.17 107.62 179.95 57.31
  Q 176.88 52.04 175.05 50.67
  Q 171.64 48.13 167.24 48.00
  Q 166.98 48.00 127.99 48.00
  Q 89.01 48.01 88.74 48.01
  Q 84.34 48.14 80.93 50.68
  Q 79.10 52.05 76.03 57.32
  Q 46.83 107.64 38.40 122.18
  Q 37.00 124.61 37.00 128.01
  Z"
/>
<path fill="#000000" d="
  M 127.99 48.00
  Q 166.98 48.00 167.24 48.00
  Q 171.64 48.13 175.05 50.67
  Q 176.88 52.04 179.95 57.31
  Q 209.17 107.62 217.60 122.16
  Q 219.00 124.58 219.00 127.99
  Q 219.00 131.40 217.60 133.82
  Q 209.18 148.36 179.97 198.68
  Q 176.90 203.95 175.07 205.32
  Q 171.66 207.86 167.26 207.99
  Q 167.00 208.00 128.01 208.00
  Q 89.03 208.00 88.76 208.00
  Q 84.36 207.87 80.95 205.33
  Q 79.12 203.96 76.05 198.69
  Q 46.83 148.38 38.40 133.84
  Q 37.00 131.42 37.00 128.01
  Q 37.00 124.61 38.40 122.18
  Q 46.83 107.64 76.03 57.32
  Q 79.10 52.05 80.93 50.68
  Q 84.34 48.14 88.74 48.01
  Q 89.01 48.01 127.99 48.00
  Z
  M 113.32 124.74
  Q 122.01 131.27 137.73 143.30
  C 143.36 147.60 147.11 144.69 150.90 139.54
  Q 151.30 138.99 175.10 109.36
  C 179.63 103.72 173.49 96.80 167.16 99.03
  Q 165.48 99.63 162.52 103.32
  Q 148.68 120.59 142.01 128.94
  A 0.56 0.54 -51.8 0 1 141.25 129.04
  Q 117.74 111.21 117.11 110.69
  Q 114.80 108.79 113.38 108.55
  C 108.87 107.76 107.36 109.31 104.30 113.16
  Q 78.49 145.64 78.25 145.95
  A 2.67 2.55 76.2 0 0 77.84 146.66
  C 75.49 152.89 81.79 158.24 87.46 155.26
  Q 88.77 154.57 91.48 151.13
  Q 104.14 135.10 112.39 124.86
  A 0.68 0.67 -52.2 0 1 113.32 124.74
  Z"
/>
<path fill="#ffffff" d="
  M 112.39 124.86
  Q 104.14 135.10 91.48 151.13
  Q 88.77 154.57 87.46 155.26
  C 81.79 158.24 75.49 152.89 77.84 146.66
  A 2.67 2.55 76.2 0 1 78.25 145.95
  Q 78.49 145.64 104.30 113.16
  C 107.36 109.31 108.87 107.76 113.38 108.55
  Q 114.80 108.79 117.11 110.69
  Q 117.74 111.21 141.25 129.04
  A 0.56 0.54 -51.8 0 0 142.01 128.94
  Q 148.68 120.59 162.52 103.32
  Q 165.48 99.63 167.16 99.03
  C 173.49 96.80 179.63 103.72 175.10 109.36
  Q 151.30 138.99 150.90 139.54
  C 147.11 144.69 143.36 147.60 137.73 143.30
  Q 122.01 131.27 113.32 124.74
  A 0.68 0.67 -52.2 0 0 112.39 124.86
  Z"
/>
</svg>