<?xml version="1.0" encoding="UTF-8" standalone="no"?>
<!DOCTYPE svg PUBLIC "-//W3C//DTD SVG 1.1//EN" "http://www.w3.org/Graphics/SVG/1.1/DTD/svg11.dtd">
<svg xmlns="http://www.w3.org/2000/svg" version="1.1" viewBox="0.00 0.00 144.00 144.00" width="128" height="128">
<g stroke-width="2.00" fill="none" stroke-linecap="butt">
<path stroke="#86b2d3" vector-effect="non-scaling-stroke" d="
  M 115.24 31.14
  A 0.39 0.39 0.0 0 0 114.85 30.75
  L 101.39 30.75
  A 0.39 0.39 0.0 0 0 101.00 31.14
  L 101.00 43.10
  A 0.39 0.39 0.0 0 0 101.39 43.49
  L 114.85 43.49
  A 0.39 0.39 0.0 0 0 115.24 43.10
  L 115.24 31.14"
/>
<path stroke="#86b2d3" vector-effect="non-scaling-stroke" d="
  M 48.14 77.99
  A 0.32 0.32 0.0 0 1 47.84 77.58
  L 57.17 47.01
  A 0.32 0.32 0.0 0 1 57.79 47.01
  L 76.05 106.76
  A 0.32 0.32 0.0 0 0 76.36 106.99
  L 90.56 106.99
  A 0.32 0.32 0.0 0 0 90.86 106.58
  L 68.22 32.48
  A 0.32 0.32 0.0 0 0 67.91 32.25
  L 47.22 32.25
  A 0.32 0.32 0.0 0 0 46.91 32.48
  L 24.27 106.59
  A 0.32 0.32 0.0 0 0 24.57 107.00
  L 38.66 107.00
  A 0.32 0.32 0.0 0 0 38.97 106.77
  L 43.57 91.72
  A 0.32 0.32 0.0 0 1 43.88 91.49
  L 64.65 91.49
  A 0.32 0.32 0.0 0 0 64.95 91.08
  L 61.02 78.22
  A 0.32 0.32 0.0 0 0 60.71 77.99
  L 48.14 77.99"
/>
<path stroke="#86b2d3" vector-effect="non-scaling-stroke" d="
  M 115.26 51.44
  A 0.45 0.45 0.0 0 0 114.81 50.99
  L 101.45 50.99
  A 0.45 0.45 0.0 0 0 101.00 51.44
  L 101.00 106.54
  A 0.45 0.45 0.0 0 0 101.45 106.99
  L 114.81 106.99
  A 0.45 0.45 0.0 0 0 115.26 106.54
  L 115.26 51.44"
/>
</g>
<path fill="#0d64a6" d="
  M 142.57 72.42
  A 70.15 70.15 0.0 0 1 72.42 142.57
  A 70.15 70.15 0.0 0 1 2.27 72.42
  A 70.15 70.15 0.0 0 1 72.42 2.27
  A 70.15 70.15 0.0 0 1 142.57 72.42
  Z
  M 115.24 31.14
  A 0.39 0.39 0.0 0 0 114.85 30.75
  L 101.39 30.75
  A 0.39 0.39 0.0 0 0 101.00 31.14
  L 101.00 43.10
  A 0.39 0.39 0.0 0 0 101.39 43.49
  L 114.85 43.49
  A 0.39 0.39 0.0 0 0 115.24 43.10
  L 115.24 31.14
  Z
  M 48.14 77.99
  A 0.32 0.32 0.0 0 1 47.84 77.58
  L 57.17 47.01
  A 0.32 0.32 0.0 0 1 57.79 47.01
  L 76.05 106.76
  A 0.32 0.32 0.0 0 0 76.36 106.99
  L 90.56 106.99
  A 0.32 0.32 0.0 0 0 90.86 106.58
  L 68.22 32.48
  A 0.32 0.32 0.0 0 0 67.91 32.25
  L 47.22 32.25
  A 0.32 0.32 0.0 0 0 46.91 32.48
  L 24.27 106.59
  A 0.32 0.32 0.0 0 0 24.57 107.00
  L 38.66 107.00
  A 0.32 0.32 0.0 0 0 38.97 106.77
  L 43.57 91.72
  A 0.32 0.32 0.0 0 1 43.88 91.49
  L 64.65 91.49
  A 0.32 0.32 0.0 0 0 64.95 91.08
  L 61.02 78.22
  A 0.32 0.32 0.0 0 0 60.71 77.99
  L 48.14 77.99
  Z
  M 115.26 51.44
  A 0.45 0.45 0.0 0 0 114.81 50.99
  L 101.45 50.99
  A 0.45 0.45 0.0 0 0 101.00 51.44
  L 101.00 106.54
  A 0.45 0.45 0.0 0 0 101.45 106.99
  L 114.81 106.99
  A 0.45 0.45 0.0 0 0 115.26 106.54
  L 115.26 51.44
  Z"
/>
<rect fill="#ffffff" x="101.00" y="30.75" width="14.24" height="12.74" rx="0.39"/>
<path fill="#ffffff" d="
  M 48.14 77.99
  L 60.71 77.99
  A 0.32 0.32 0.0 0 1 61.02 78.22
  L 64.95 91.08
  A 0.32 0.32 0.0 0 1 64.65 91.49
  L 43.88 91.49
  A 0.32 0.32 0.0 0 0 43.57 91.72
  L 38.97 106.77
  A 0.32 0.32 0.0 0 1 38.66 107.00
  L 24.57 107.00
  A 0.32 0.32 0.0 0 1 24.27 106.59
  L 46.91 32.48
  A 0.32 0.32 0.0 0 1 47.22 32.25
  L 67.91 32.25
  A 0.32 0.32 0.0 0 1 68.22 32.48
  L 90.86 106.58
  A 0.32 0.32 0.0 0 1 90.56 106.99
  L 76.36 106.99
  A 0.32 0.32 0.0 0 1 76.05 106.76
  L 57.79 47.01
  A 0.32 0.32 0.0 0 0 57.17 47.01
  L 47.84 77.58
  A 0.32 0.32 0.0 0 0 48.14 77.99
  Z"
/>
<rect fill="#ffffff" x="101.00" y="50.99" width="14.26" height="56.00" rx="0.45"/>
</svg>