<?xml version="1.0" encoding="UTF-8" standalone="no"?>
<!DOCTYPE svg PUBLIC "-//W3C//DTD SVG 1.1//EN" "http://www.w3.org/Graphics/SVG/1.1/DTD/svg11.dtd">
<svg xmlns="http://www.w3.org/2000/svg" version="1.1" viewBox="0.00 0.00 256.00 256.00" width="128" height="128">
<g stroke-width="2.00" fill="none" stroke-linecap="butt">
<path stroke="#9196fc" vector-effect="non-scaling-stroke" d="
  M 111.57 80.28
  A 2.36 2.36 0.0 0 0 111.58 82.66
  L 142.17 134.59
  A 2.36 2.36 0.0 0 0 144.20 135.75
  L 172.71 135.75
  A 2.36 2.36 0.0 0 0 174.75 132.19
  L 129.76 55.81
  A 2.36 2.36 0.0 0 0 125.69 55.83
  L 111.57 80.28"
/>
<path stroke="#9196fc" vector-effect="non-scaling-stroke" d="
  M 103.90 94.19
  Q 102.06 96.05 101.22 97.48
  Q 59.84 167.57 59.09 168.82
  Q 57.64 171.24 56.98 173.85
  A 1.12 1.12 0.0 0 0 58.04 175.24
  Q 75.23 175.60 86.12 175.28
  Q 89.42 175.19 91.10 172.34
  Q 110.08 140.13 118.30 126.19
  C 120.07 123.20 120.97 120.38 119.28 117.47
  Q 111.84 104.71 107.95 98.32
  Q 106.39 95.76 104.65 94.17
  A 0.55 0.54 -46.2 0 0 103.90 94.19"
/>
<path stroke="#9196fc" vector-effect="non-scaling-stroke" d="
  M 104.38 171.65
  A 2.51 2.51 0.0 0 0 106.56 175.42
  L 195.93 175.42
  A 2.51 2.51 0.0 0 0 198.09 171.64
  L 183.94 147.60
  A 2.51 2.51 0.0 0 0 181.78 146.36
  L 120.44 146.36
  A 2.51 2.51 0.0 0 0 118.27 147.61
  L 104.38 171.65"
/>
</g>
<path fill="#363ff9" d="
  M 253.94 127.72
  A 126.24 126.24 0.0 0 1 127.70 253.96
  A 126.24 126.24 0.0 0 1 1.46 127.72
  A 126.24 126.24 0.0 0 1 127.70 1.48
  A 126.24 126.24 0.0 0 1 253.94 127.72
  Z
  M 111.57 80.28
  A 2.36 2.36 0.0 0 0 111.58 82.66
  L 142.17 134.59
  A 2.36 2.36 0.0 0 0 144.20 135.75
  L 172.71 135.75
  A 2.36 2.36 0.0 0 0 174.75 132.19
  L 129.76 55.81
  A 2.36 2.36 0.0 0 0 125.69 55.83
  L 111.57 80.28
  Z
  M 103.90 94.19
  Q 102.06 96.05 101.22 97.48
  Q 59.84 167.57 59.09 168.82
  Q 57.64 171.24 56.98 173.85
  A 1.12 1.12 0.0 0 0 58.04 175.24
  Q 75.23 175.60 86.12 175.28
  Q 89.42 175.19 91.10 172.34
  Q 110.08 140.13 118.30 126.19
  C 120.07 123.20 120.97 120.38 119.28 117.47
  Q 111.84 104.71 107.95 98.32
  Q 106.39 95.76 104.65 94.17
  A 0.55 0.54 -46.2 0 0 103.90 94.19
  Z
  M 104.38 171.65
  A 2.51 2.51 0.0 0 0 106.56 175.42
  L 195.93 175.42
  A 2.51 2.51 0.0 0 0 198.09 171.64
  L 183.94 147.60
  A 2.51 2.51 0.0 0 0 181.78 146.36
  L 120.44 146.36
  A 2.51 2.51 0.0 0 0 118.27 147.61
  L 104.38 171.65
  Z"
/>
<path fill="#ebecfe" d="
  M 111.57 80.28
  L 125.69 55.83
  A 2.36 2.36 0.0 0 1 129.76 55.81
  L 174.75 132.19
  A 2.36 2.36 0.0 0 1 172.71 135.75
  L 144.20 135.75
  A 2.36 2.36 0.0 0 1 142.17 134.59
  L 111.58 82.66
  A 2.36 2.36 0.0 0 1 111.57 80.28
  Z"
/>
<path fill="#ebecfe" d="
  M 104.65 94.17
  Q 106.39 95.76 107.95 98.32
  Q 111.84 104.71 119.28 117.47
  C 120.97 120.38 120.07 123.20 118.30 126.19
  Q 110.08 140.13 91.10 172.34
  Q 89.42 175.19 86.12 175.28
  Q 75.23 175.60 58.04 175.24
  A 1.12 1.12 0.0 0 1 56.98 173.85
  Q 57.64 171.24 59.09 168.82
  Q 59.84 167.57 101.22 97.48
  Q 102.06 96.05 103.90 94.19
  A 0.55 0.54 -46.2 0 1 104.65 94.17
  Z"
/>
<path fill="#ebecfe" d="
  M 104.38 171.65
  L 118.27 147.61
  A 2.51 2.51 0.0 0 1 120.44 146.36
  L 181.78 146.36
  A 2.51 2.51 0.0 0 1 183.94 147.60
  L 198.09 171.64
  A 2.51 2.51 0.0 0 1 195.93 175.42
  L 106.56 175.42
  A 2.51 2.51 0.0 0 1 104.38 171.65
  Z"
/>
</svg>