<?xml version="1.0" encoding="UTF-8" standalone="no"?>
<!DOCTYPE svg PUBLIC "-//W3C//DTD SVG 1.1//EN" "http://www.w3.org/Graphics/SVG/1.1/DTD/svg11.dtd">
<svg xmlns="http://www.w3.org/2000/svg" version="1.1" viewBox="0.00 0.00 180.00 180.00" width="128" height="128">
<g stroke-width="2.00" fill="none" stroke-linecap="butt">
<path stroke="#f8e690" vector-effect="non-scaling-stroke" d="
  M 95.38 55.31
  L 95.38 49.11
  A 0.68 0.68 0.0 0 1 96.20 48.45
  Q 104.54 50.21 104.32 58.60
  C 104.29 59.55 103.68 60.73 103.35 61.61
  A 0.92 0.91 29.4 0 0 103.64 62.63
  Q 111.69 69.03 111.71 78.01
  Q 111.76 97.39 111.72 144.17
  C 111.71 150.50 113.87 150.73 119.78 150.30
  A 2.90 2.80 -61.1 0 0 120.95 149.94
  Q 145.53 136.14 153.66 110.41
  C 162.84 81.37 151.59 49.57 125.74 32.94
  C 106.93 20.84 83.06 19.00 62.69 27.97
  C 22.46 45.69 9.64 96.83 36.47 131.51
  Q 48.87 147.54 68.78 154.41
  A 0.34 0.34 0.0 0 0 69.23 154.12
  L 74.46 98.82
  A 0.47 0.47 0.0 0 0 74.04 98.31
  Q 60.27 96.71 56.97 83.45
  A 1.07 1.07 0.0 0 1 57.47 82.27
  L 66.31 77.17
  A 1.15 1.13 -13.1 0 0 66.87 76.29
  Q 67.92 63.27 79.78 59.61
  C 81.70 59.02 84.24 59.06 85.77 58.94
  A 0.67 0.66 87.7 0 0 86.38 58.27
  L 86.38 48.93
  A 0.48 0.47 3.3 0 1 86.91 48.46
  Q 91.61 48.98 94.21 53.03
  C 94.80 53.94 94.69 54.39 95.20 55.35
  A 0.10 0.09 31.7 0 0 95.38 55.31"
/>
<path stroke="#f8e690" vector-effect="non-scaling-stroke" d="
  M 83.50 77.48
  L 78.21 77.48
  A 1.63 1.62 2.7 0 0 76.59 78.95
  L 76.41 80.84
  A 0.73 0.73 0.0 0 0 77.14 81.63
  L 80.54 81.63
  A 3.57 3.55 -70.5 0 0 83.31 80.30
  L 84.28 79.10
  A 1.00 1.00 0.0 0 0 83.50 77.48"
/>
</g>
<path fill="#ffffff" d="
  M 180.00 0.00
  L 180.00 180.00
  L 0.00 180.00
  L 0.00 0.00
  L 180.00 0.00
  Z
  M 95.38 55.31
  L 95.38 49.11
  A 0.68 0.68 0.0 0 1 96.20 48.45
  Q 104.54 50.21 104.32 58.60
  C 104.29 59.55 103.68 60.73 103.35 61.61
  A 0.92 0.91 29.4 0 0 103.64 62.63
  Q 111.69 69.03 111.71 78.01
  Q 111.76 97.39 111.72 144.17
  C 111.71 150.50 113.87 150.73 119.78 150.30
  A 2.90 2.80 -61.1 0 0 120.95 149.94
  Q 145.53 136.14 153.66 110.41
  C 162.84 81.37 151.59 49.57 125.74 32.94
  C 106.93 20.84 83.06 19.00 62.69 27.97
  C 22.46 45.69 9.64 96.83 36.47 131.51
  Q 48.87 147.54 68.78 154.41
  A 0.34 0.34 0.0 0 0 69.23 154.12
  L 74.46 98.82
  A 0.47 0.47 0.0 0 0 74.04 98.31
  Q 60.27 96.71 56.97 83.45
  A 1.07 1.07 0.0 0 1 57.47 82.27
  L 66.31 77.17
  A 1.15 1.13 -13.1 0 0 66.87 76.29
  Q 67.92 63.27 79.78 59.61
  C 81.70 59.02 84.24 59.06 85.77 58.94
  A 0.67 0.66 87.7 0 0 86.38 58.27
  L 86.38 48.93
  A 0.48 0.47 3.3 0 1 86.91 48.46
  Q 91.61 48.98 94.21 53.03
  C 94.80 53.94 94.69 54.39 95.20 55.35
  A 0.10 0.09 31.7 0 0 95.38 55.31
  Z
  M 83.50 77.48
  L 78.21 77.48
  A 1.63 1.62 2.7 0 0 76.59 78.95
  L 76.41 80.84
  A 0.73 0.73 0.0 0 0 77.14 81.63
  L 80.54 81.63
  A 3.57 3.55 -70.5 0 0 83.31 80.30
  L 84.28 79.10
  A 1.00 1.00 0.0 0 0 83.50 77.48
  Z"
/>
<path fill="#f1cc21" d="
  M 95.20 55.35
  C 94.69 54.39 94.80 53.94 94.21 53.03
  Q 91.61 48.98 86.91 48.46
  A 0.48 0.47 3.3 0 0 86.38 48.93
  L 86.38 58.27
  A 0.67 0.66 87.7 0 1 85.77 58.94
  C 84.24 59.06 81.70 59.02 79.78 59.61
  Q 67.92 63.27 66.87 76.29
  A 1.15 1.13 -13.1 0 1 66.31 77.17
  L 57.47 82.27
  A 1.07 1.07 0.0 0 0 56.97 83.45
  Q 60.27 96.71 74.04 98.31
  A 0.47 0.47 0.0 0 1 74.46 98.82
  L 69.23 154.12
  A 0.34 0.34 0.0 0 1 68.78 154.41
  Q 48.87 147.54 36.47 131.51
  C 9.64 96.83 22.46 45.69 62.69 27.97
  C 83.06 19.00 106.93 20.84 125.74 32.94
  C 151.59 49.57 162.84 81.37 153.66 110.41
  Q 145.53 136.14 120.95 149.94
  A 2.90 2.80 -61.1 0 1 119.78 150.30
  C 113.87 150.73 111.71 150.50 111.72 144.17
  Q 111.76 97.39 111.71 78.01
  Q 111.69 69.03 103.64 62.63
  A 0.92 0.91 29.4 0 1 103.35 61.61
  C 103.68 60.73 104.29 59.55 104.32 58.60
  Q 104.54 50.21 96.20 48.45
  A 0.68 0.68 0.0 0 0 95.38 49.11
  L 95.38 55.31
  A 0.10 0.09 31.7 0 1 95.20 55.35
  Z"
/>
<path fill="#f1cc21" d="
  M 83.50 77.48
  A 1.00 1.00 0.0 0 1 84.28 79.10
  L 83.31 80.30
  A 3.57 3.55 -70.5 0 1 80.54 81.63
  L 77.14 81.63
  A 0.73 0.73 0.0 0 1 76.41 80.84
  L 76.59 78.95
  A 1.63 1.62 2.7 0 1 78.21 77.48
  L 83.50 77.48
  Z"
/>
</svg>