<?xml version="1.0" encoding="UTF-8" standalone="no"?>
<!DOCTYPE svg PUBLIC "-//W3C//DTD SVG 1.1//EN" "http://www.w3.org/Graphics/SVG/1.1/DTD/svg11.dtd">
<svg xmlns="http://www.w3.org/2000/svg" version="1.1" viewBox="0.00 0.00 512.00 512.00" width="128" height="128">
<g stroke-width="2.00" fill="none" stroke-linecap="butt">
<path stroke="#8baff7" vector-effect="non-scaling-stroke" d="
  M 222.67 284.96
  Q 204.90 347.21 182.24 426.75
  C 176.34 447.48 198.83 464.81 217.51 454.31
  Q 220.73 452.51 228.08 444.19
  Q 323.91 335.74 390.65 260.39
  Q 396.23 254.08 397.73 250.36
  C 403.52 236.02 395.52 221.43 380.71 217.35
  Q 376.73 216.25 367.27 217.64
  Q 365.09 217.96 289.73 227.39
  A 0.36 0.36 0.0 0 1 289.34 226.93
  Q 324.16 105.08 329.77 85.01
  Q 331.83 77.63 329.10 70.35
  C 322.63 53.11 300.44 49.19 288.46 62.74
  Q 141.14 229.32 121.85 251.06
  Q 115.73 257.96 114.24 261.66
  C 107.38 278.72 120.98 297.34 139.50 295.02
  Q 166.50 291.63 222.37 284.60
  A 0.28 0.28 0.0 0 1 222.67 284.96"
/>
<path stroke="#8baff7" vector-effect="non-scaling-stroke" d="
  M 244.70 266.11
  Q 225.83 332.16 198.40 428.45
  Q 197.10 432.99 197.61 435.20
  C 199.10 441.67 207.21 443.53 211.60 438.57
  Q 328.21 306.87 381.51 246.51
  C 385.34 242.17 383.65 235.38 378.26 233.28
  Q 376.47 232.58 370.66 233.33
  Q 348.57 236.16 267.69 246.29
  A 0.34 0.34 0.0 0 1 267.32 245.86
  L 314.55 80.23
  A 0.95 0.73 64.2 0 0 314.59 80.04
  C 315.07 73.74 309.43 68.59 303.40 71.18
  Q 301.72 71.90 298.10 75.99
  Q 228.97 154.17 131.95 263.83
  Q 129.24 266.89 128.82 268.25
  C 127.76 271.70 128.80 275.66 131.95 277.71
  Q 134.68 279.48 136.76 279.22
  Q 193.53 272.10 244.36 265.71
  A 0.32 0.31 -85.6 0 1 244.70 266.11"
/>
</g>
<path fill="#1c64f2" d="
  M 420.65 0.00
  Q 453.99 2.07 478.96 23.81
  Q 481.20 25.76 483.58 27.72
  A 6.21 5.18 4.3 0 1 484.29 28.41
  Q 486.13 30.51 487.94 32.54
  Q 506.72 53.51 510.89 82.27
  Q 511.54 86.69 512.00 91.14
  L 512.00 421.15
  Q 511.51 425.20 510.95 429.24
  Q 506.86 458.43 487.91 479.43
  C 486.11 481.43 484.49 483.46 482.44 485.27
  Q 480.79 486.72 479.17 488.16
  Q 458.05 507.01 428.94 510.99
  Q 425.08 511.52 421.23 512.00
  L 90.86 512.00
  Q 86.89 511.52 82.92 510.98
  Q 53.75 506.94 32.54 487.94
  Q 30.49 486.10 28.37 484.25
  A 6.20 5.64 45.0 0 1 27.75 483.63
  Q 25.90 481.50 24.06 479.45
  Q 5.11 458.32 1.04 429.24
  Q 0.48 425.19 0.00 421.14
  L 0.00 90.67
  Q 2.34 57.49 23.04 33.52
  Q 49.28 3.12 90.74 0.00
  L 420.65 0.00
  Z
  M 222.67 284.96
  Q 204.90 347.21 182.24 426.75
  C 176.34 447.48 198.83 464.81 217.51 454.31
  Q 220.73 452.51 228.08 444.19
  Q 323.91 335.74 390.65 260.39
  Q 396.23 254.08 397.73 250.36
  C 403.52 236.02 395.52 221.43 380.71 217.35
  Q 376.73 216.25 367.27 217.64
  Q 365.09 217.96 289.73 227.39
  A 0.36 0.36 0.0 0 1 289.34 226.93
  Q 324.16 105.08 329.77 85.01
  Q 331.83 77.63 329.10 70.35
  C 322.63 53.11 300.44 49.19 288.46 62.74
  Q 141.14 229.32 121.85 251.06
  Q 115.73 257.96 114.24 261.66
  C 107.38 278.72 120.98 297.34 139.50 295.02
  Q 166.50 291.63 222.37 284.60
  A 0.28 0.28 0.0 0 1 222.67 284.96
  Z"
/>
<path fill="#f9fafb" d="
  M 222.67 284.96
  A 0.28 0.28 0.0 0 0 222.37 284.60
  Q 166.50 291.63 139.50 295.02
  C 120.98 297.34 107.38 278.72 114.24 261.66
  Q 115.73 257.96 121.85 251.06
  Q 141.14 229.32 288.46 62.74
  C 300.44 49.19 322.63 53.11 329.10 70.35
  Q 331.83 77.63 329.77 85.01
  Q 324.16 105.08 289.34 226.93
  A 0.36 0.36 0.0 0 0 289.73 227.39
  Q 365.09 217.96 367.27 217.64
  Q 376.73 216.25 380.71 217.35
  C 395.52 221.43 403.52 236.02 397.73 250.36
  Q 396.23 254.08 390.65 260.39
  Q 323.91 335.74 228.08 444.19
  Q 220.73 452.51 217.51 454.31
  C 198.83 464.81 176.34 447.48 182.24 426.75
  Q 204.90 347.21 222.67 284.96
  Z
  M 244.70 266.11
  Q 225.83 332.16 198.40 428.45
  Q 197.10 432.99 197.61 435.20
  C 199.10 441.67 207.21 443.53 211.60 438.57
  Q 328.21 306.87 381.51 246.51
  C 385.34 242.17 383.65 235.38 378.26 233.28
  Q 376.47 232.58 370.66 233.33
  Q 348.57 236.16 267.69 246.29
  A 0.34 0.34 0.0 0 1 267.32 245.86
  L 314.55 80.23
  A 0.95 0.73 64.2 0 0 314.59 80.04
  C 315.07 73.74 309.43 68.59 303.40 71.18
  Q 301.72 71.90 298.10 75.99
  Q 228.97 154.17 131.95 263.83
  Q 129.24 266.89 128.82 268.25
  C 127.76 271.70 128.80 275.66 131.95 277.71
  Q 134.68 279.48 136.76 279.22
  Q 193.53 272.10 244.36 265.71
  A 0.32 0.31 -85.6 0 1 244.70 266.11
  Z"
/>
<path fill="#1c64f2" d="
  M 244.70 266.11
  A 0.32 0.31 -85.6 0 0 244.36 265.71
  Q 193.53 272.10 136.76 279.22
  Q 134.68 279.48 131.95 277.71
  C 128.80 275.66 127.76 271.70 128.82 268.25
  Q 129.24 266.89 131.95 263.83
  Q 228.97 154.17 298.10 75.99
  Q 301.72 71.90 303.40 71.18
  C 309.43 68.59 315.07 73.74 314.59 80.04
  A 0.95 0.73 64.2 0 1 314.55 80.23
  L 267.32 245.86
  A 0.34 0.34 0.0 0 0 267.69 246.29
  Q 348.57 236.16 370.66 233.33
  Q 376.47 232.58 378.26 233.28
  C 383.65 235.38 385.34 242.17 381.51 246.51
  Q 328.21 306.87 211.60 438.57
  C 207.21 443.53 199.10 441.67 197.61 435.20
  Q 197.10 432.99 198.40 428.45
  Q 225.83 332.16 244.70 266.11
  Z"
/>
</svg>