<?xml version="1.0" encoding="UTF-8" standalone="no"?>
<!DOCTYPE svg PUBLIC "-//W3C//DTD SVG 1.1//EN" "http://www.w3.org/Graphics/SVG/1.1/DTD/svg11.dtd">
<svg xmlns="http://www.w3.org/2000/svg" version="1.1" viewBox="0.00 0.00 180.00 180.00" width="128" height="128">
<g stroke-width="2.00" fill="none" stroke-linecap="butt">
<path stroke="#d193a5" vector-effect="non-scaling-stroke" d="
  M 151.16 49.51
  Q 148.89 51.27 146.16 49.86
  Q 143.12 48.30 134.29 43.22
  Q 123.74 37.15 109.76 36.84
  Q 100.44 36.64 92.28 40.51"
/>
<path stroke="#9a264a" vector-effect="non-scaling-stroke" d="
  M 92.28 40.51
  L 34.72 39.56"
/>
<path stroke="#af93a3" vector-effect="non-scaling-stroke" d="
  M 161.14 101.80
  Q 160.41 100.41 160.07 100.28
  A 1.83 1.83 0.0 0 0 157.66 101.47
  C 155.74 107.97 154.29 115.33 151.82 116.79
  A 0.51 0.51 0.0 0 1 151.07 116.24
  C 152.68 109.24 154.03 101.37 152.73 94.28
  A 1.12 1.11 -22.6 0 0 151.00 93.57
  Q 149.72 94.47 149.26 96.31
  Q 146.98 105.51 144.98 112.73
  C 144.48 114.51 143.46 117.29 142.01 117.64
  A 0.57 0.57 0.0 0 1 141.31 116.98
  C 142.84 108.47 144.44 102.61 142.89 95.72
  A 1.57 1.41 71.5 0 0 140.86 94.57
  Q 139.16 95.38 138.71 98.03
  Q 137.66 104.16 134.51 115.26
  Q 133.78 117.82 132.45 119.37
  A 0.75 0.75 0.0 0 1 131.14 118.96
  C 130.48 112.97 133.23 106.56 131.23 100.64
  A 1.80 1.54 69.1 0 0 129.06 99.46
  Q 127.45 100.16 126.97 102.56
  C 124.91 112.78 122.39 123.91 116.70 132.06
  A 0.52 0.52 0.0 0 1 115.76 131.71
  Q 116.50 124.48 113.37 117.42
  C 112.44 115.30 110.14 112.17 107.69 112.22
  A 1.64 1.64 0.0 0 0 106.08 113.92
  Q 106.25 118.35 106.21 119.00
  C 105.44 133.55 95.34 140.98 81.74 141.37
  Q 70.54 141.70 58.65 137.28
  Q 33.62 127.99 21.03 103.95
  Q 20.04 102.06 18.13 103.50"
/>
<path stroke="#c893a4" vector-effect="non-scaling-stroke" d="
  M 20.47 66.48
  Q 20.53 68.35 20.20 70.19
  C 19.86 72.13 19.92 73.81 20.73 75.32
  A 1.49 1.49 0.0 0 0 23.51 74.84
  C 24.22 70.32 27.47 59.09 31.62 57.49
  A 0.50 0.50 0.0 0 1 32.25 58.19
  C 29.13 64.19 26.23 74.87 29.16 81.29
  A 1.64 1.64 0.0 0 0 32.05 81.47
  Q 32.27 81.12 32.42 79.69
  Q 33.52 69.19 38.59 60.35
  Q 39.63 58.54 41.30 57.62
  A 0.47 0.47 0.0 0 1 41.97 58.19
  C 39.28 65.68 37.67 73.07 39.31 80.70
  Q 39.60 82.06 40.56 82.66
  A 1.64 1.53 -72.7 0 0 42.92 81.32
  C 43.40 74.67 45.53 63.88 50.43 59.24
  A 0.79 0.78 -10.7 0 1 51.70 60.10
  C 50.15 63.89 46.75 79.24 51.64 81.37
  A 1.65 1.52 -76.1 0 0 53.77 79.96
  Q 55.24 65.07 63.46 52.15
  Q 64.27 50.88 65.49 50.17
  A 0.51 0.50 77.9 0 1 66.24 50.66
  C 65.67 56.69 66.99 73.97 76.48 73.39
  A 1.29 1.29 0.0 0 0 77.69 71.95
  Q 77.48 70.15 76.74 67.28
  C 73.79 55.79 82.49 45.27 92.28 40.51"
/>
<path stroke="#c0de9f" vector-effect="non-scaling-stroke" d="
  M 140.64 61.94
  C 142.53 60.38 144.15 58.13 141.77 56.32
  Q 131.85 48.82 121.24 46.00
  A 2.22 2.19 50.5 0 0 120.55 45.93
  Q 117.20 46.08 116.88 49.64
  C 116.26 56.65 116.40 64.72 119.66 70.59
  A 2.90 2.89 70.0 0 0 122.74 72.03
  Q 125.01 71.59 127.96 70.19
  Q 134.29 67.18 140.64 61.94"
/>
<path stroke="#f992a6" vector-effect="non-scaling-stroke" d="
  M 97.03 61.79
  A 0.30 0.30 0.0 0 1 96.49 62.01
  C 94.82 59.43 91.91 55.79 88.58 56.49
  Q 85.37 57.17 84.18 59.69
  C 81.06 66.25 85.45 74.06 90.87 78.17
  Q 98.18 83.73 104.70 85.12
  Q 107.09 85.64 108.48 83.20
  C 111.42 78.02 111.87 72.83 112.14 66.78
  Q 112.51 58.66 107.97 52.71
  Q 106.02 50.16 104.05 49.48
  C 99.06 47.73 95.48 51.40 96.17 56.42
  Q 96.67 60.03 97.03 61.79"
/>
<path stroke="#98cabd" vector-effect="non-scaling-stroke" d="
  M 122.41 92.22
  Q 122.82 92.15 128.58 89.55
  C 134.25 86.98 140.31 86.60 146.46 87.47
  C 150.91 88.10 155.15 85.19 155.53 80.58
  C 155.92 75.98 152.37 72.51 148.01 71.56
  C 136.51 69.03 122.71 76.31 120.65 88.48
  Q 120.22 91.00 121.41 91.95
  A 1.31 1.30 -29.6 0 0 122.41 92.22"
/>
<path stroke="#98cabd" vector-effect="non-scaling-stroke" d="
  M 73.65 91.15
  Q 70.26 88.13 65.71 89.43
  C 57.38 91.80 54.10 98.46 54.64 106.99
  C 55.40 118.94 61.90 134.28 76.23 133.49
  Q 87.06 132.89 90.31 122.82
  C 92.26 116.80 91.28 112.34 89.72 106.60
  A 0.33 0.33 0.0 0 1 90.15 106.21
  C 95.63 108.34 99.46 105.06 100.09 99.52
  C 100.56 95.27 99.83 88.51 94.74 87.43
  Q 91.47 86.74 91.12 90.14
  A 1.31 1.11 -51.5 0 0 91.13 90.49
  L 92.10 96.19
  A 1.12 1.12 0.0 0 1 90.67 97.45
  Q 88.55 96.81 87.37 94.60
  Q 83.56 87.44 81.70 84.31
  C 80.08 81.57 76.24 78.63 74.44 82.93
  Q 73.27 85.75 73.52 87.06
  Q 74.13 90.29 74.17 90.90
  A 0.31 0.31 0.0 0 1 73.65 91.15"
/>
<path stroke="#c0de9f" vector-effect="non-scaling-stroke" d="
  M 50.14 119.31
  A 1.44 1.44 0.0 0 0 51.09 117.53
  Q 50.26 114.75 47.93 110.15
  C 45.37 105.10 43.27 98.48 41.46 94.30
  Q 39.97 90.87 38.23 89.28
  C 33.80 85.26 28.31 88.89 27.11 93.69
  C 25.16 101.47 34.70 110.65 39.97 115.08
  C 42.56 117.26 46.97 120.29 50.14 119.31"
/>
<path stroke="#98cabd" vector-effect="non-scaling-stroke" d="
  M 119.1419 95.0675
  A 6.47 6.26 -43.0 0 0 110.1407 94.9017
  A 6.47 6.26 -43.0 0 0 109.6781 103.8925
  A 6.47 6.26 -43.0 0 0 118.6793 104.0583
  A 6.47 6.26 -43.0 0 0 119.1419 95.0675"
/>
<path stroke="#98cabd" vector-effect="non-scaling-stroke" d="
  M 68.54 99.51
  Q 65.13 100.68 64.56 104.98
  Q 63.62 112.02 67.58 119.09
  C 69.44 122.39 73.16 124.64 76.75 123.41
  C 80.34 122.18 81.89 118.12 81.33 114.37
  Q 80.11 106.36 75.05 101.38
  Q 71.96 98.34 68.54 99.51"
/>
</g>
<path fill="#a2264a" d="
  M 151.16 49.51
  Q 148.89 51.27 146.16 49.86
  Q 143.12 48.30 134.29 43.22
  Q 123.74 37.15 109.76 36.84
  Q 100.44 36.64 92.28 40.51
  L 34.72 39.56
  A 76.90 72.45 89.9 0 1 65.02 17.53
  A 76.97 72.48 89.9 0 1 112.70 17.05
  A 77.04 72.54 -90.0 0 1 151.16 49.51
  Z"
/>
<path fill="#ffffff" d="
  M 151.16 49.51
  A 77.01 72.51 89.9 0 1 161.14 101.80
  Q 160.41 100.41 160.07 100.28
  A 1.83 1.83 0.0 0 0 157.66 101.47
  C 155.74 107.97 154.29 115.33 151.82 116.79
  A 0.51 0.51 0.0 0 1 151.07 116.24
  C 152.68 109.24 154.03 101.37 152.73 94.28
  A 1.12 1.11 -22.6 0 0 151.00 93.57
  Q 149.72 94.47 149.26 96.31
  Q 146.98 105.51 144.98 112.73
  C 144.48 114.51 143.46 117.29 142.01 117.64
  A 0.57 0.57 0.0 0 1 141.31 116.98
  C 142.84 108.47 144.44 102.61 142.89 95.72
  A 1.57 1.41 71.5 0 0 140.86 94.57
  Q 139.16 95.38 138.71 98.03
  Q 137.66 104.16 134.51 115.26
  Q 133.78 117.82 132.45 119.37
  A 0.75 0.75 0.0 0 1 131.14 118.96
  C 130.48 112.97 133.23 106.56 131.23 100.64
  A 1.80 1.54 69.1 0 0 129.06 99.46
  Q 127.45 100.16 126.97 102.56
  C 124.91 112.78 122.39 123.91 116.70 132.06
  A 0.52 0.52 0.0 0 1 115.76 131.71
  Q 116.50 124.48 113.37 117.42
  C 112.44 115.30 110.14 112.17 107.69 112.22
  A 1.64 1.64 0.0 0 0 106.08 113.92
  Q 106.25 118.35 106.21 119.00
  C 105.44 133.55 95.34 140.98 81.74 141.37
  Q 70.54 141.70 58.65 137.28
  Q 33.62 127.99 21.03 103.95
  Q 20.04 102.06 18.13 103.50
  A 76.95 72.45 89.9 0 1 20.47 66.48
  Q 20.53 68.35 20.20 70.19
  C 19.86 72.13 19.92 73.81 20.73 75.32
  A 1.49 1.49 0.0 0 0 23.51 74.84
  C 24.22 70.32 27.47 59.09 31.62 57.49
  A 0.50 0.50 0.0 0 1 32.25 58.19
  C 29.13 64.19 26.23 74.87 29.16 81.29
  A 1.64 1.64 0.0 0 0 32.05 81.47
  Q 32.27 81.12 32.42 79.69
  Q 33.52 69.19 38.59 60.35
  Q 39.63 58.54 41.30 57.62
  A 0.47 0.47 0.0 0 1 41.97 58.19
  C 39.28 65.68 37.67 73.07 39.31 80.70
  Q 39.60 82.06 40.56 82.66
  A 1.64 1.53 -72.7 0 0 42.92 81.32
  C 43.40 74.67 45.53 63.88 50.43 59.24
  A 0.79 0.78 -10.7 0 1 51.70 60.10
  C 50.15 63.89 46.75 79.24 51.64 81.37
  A 1.65 1.52 -76.1 0 0 53.77 79.96
  Q 55.24 65.07 63.46 52.15
  Q 64.27 50.88 65.49 50.17
  A 0.51 0.50 77.9 0 1 66.24 50.66
  C 65.67 56.69 66.99 73.97 76.48 73.39
  A 1.29 1.29 0.0 0 0 77.69 71.95
  Q 77.48 70.15 76.74 67.28
  C 73.79 55.79 82.49 45.27 92.28 40.51
  Q 100.44 36.64 109.76 36.84
  Q 123.74 37.15 134.29 43.22
  Q 143.12 48.30 146.16 49.86
  Q 148.89 51.27 151.16 49.51
  Z
  M 140.64 61.94
  C 142.53 60.38 144.15 58.13 141.77 56.32
  Q 131.85 48.82 121.24 46.00
  A 2.22 2.19 50.5 0 0 120.55 45.93
  Q 117.20 46.08 116.88 49.64
  C 116.26 56.65 116.40 64.72 119.66 70.59
  A 2.90 2.89 70.0 0 0 122.74 72.03
  Q 125.01 71.59 127.96 70.19
  Q 134.29 67.18 140.64 61.94
  Z
  M 97.03 61.79
  A 0.30 0.30 0.0 0 1 96.49 62.01
  C 94.82 59.43 91.91 55.79 88.58 56.49
  Q 85.37 57.17 84.18 59.69
  C 81.06 66.25 85.45 74.06 90.87 78.17
  Q 98.18 83.73 104.70 85.12
  Q 107.09 85.64 108.48 83.20
  C 111.42 78.02 111.87 72.83 112.14 66.78
  Q 112.51 58.66 107.97 52.71
  Q 106.02 50.16 104.05 49.48
  C 99.06 47.73 95.48 51.40 96.17 56.42
  Q 96.67 60.03 97.03 61.79
  Z
  M 122.41 92.22
  Q 122.82 92.15 128.58 89.55
  C 134.25 86.98 140.31 86.60 146.46 87.47
  C 150.91 88.10 155.15 85.19 155.53 80.58
  C 155.92 75.98 152.37 72.51 148.01 71.56
  C 136.51 69.03 122.71 76.31 120.65 88.48
  Q 120.22 91.00 121.41 91.95
  A 1.31 1.30 -29.6 0 0 122.41 92.22
  Z
  M 73.65 91.15
  Q 70.26 88.13 65.71 89.43
  C 57.38 91.80 54.10 98.46 54.64 106.99
  C 55.40 118.94 61.90 134.28 76.23 133.49
  Q 87.06 132.89 90.31 122.82
  C 92.26 116.80 91.28 112.34 89.72 106.60
  A 0.33 0.33 0.0 0 1 90.15 106.21
  C 95.63 108.34 99.46 105.06 100.09 99.52
  C 100.56 95.27 99.83 88.51 94.74 87.43
  Q 91.47 86.74 91.12 90.14
  A 1.31 1.11 -51.5 0 0 91.13 90.49
  L 92.10 96.19
  A 1.12 1.12 0.0 0 1 90.67 97.45
  Q 88.55 96.81 87.37 94.60
  Q 83.56 87.44 81.70 84.31
  C 80.08 81.57 76.24 78.63 74.44 82.93
  Q 73.27 85.75 73.52 87.06
  Q 74.13 90.29 74.17 90.90
  A 0.31 0.31 0.0 0 1 73.65 91.15
  Z
  M 50.14 119.31
  A 1.44 1.44 0.0 0 0 51.09 117.53
  Q 50.26 114.75 47.93 110.15
  C 45.37 105.10 43.27 98.48 41.46 94.30
  Q 39.97 90.87 38.23 89.28
  C 33.80 85.26 28.31 88.89 27.11 93.69
  C 25.16 101.47 34.70 110.65 39.97 115.08
  C 42.56 117.26 46.97 120.29 50.14 119.31
  Z
  M 119.1419 95.0675
  A 6.47 6.26 -43.0 0 0 110.1407 94.9017
  A 6.47 6.26 -43.0 0 0 109.6781 103.8925
  A 6.47 6.26 -43.0 0 0 118.6793 104.0583
  A 6.47 6.26 -43.0 0 0 119.1419 95.0675
  Z"
/>
<path fill="#912649" d="
  M 34.72 39.56
  L 92.28 40.51
  C 82.49 45.27 73.79 55.79 76.74 67.28
  Q 77.48 70.15 77.69 71.95
  A 1.29 1.29 0.0 0 1 76.48 73.39
  C 66.99 73.97 65.67 56.69 66.24 50.66
  A 0.51 0.50 77.9 0 0 65.49 50.17
  Q 64.27 50.88 63.46 52.15
  Q 55.24 65.07 53.77 79.96
  A 1.65 1.52 -76.1 0 1 51.64 81.37
  C 46.75 79.24 50.15 63.89 51.70 60.10
  A 0.79 0.78 -10.7 0 0 50.43 59.24
  C 45.53 63.88 43.40 74.67 42.92 81.32
  A 1.64 1.53 -72.7 0 1 40.56 82.66
  Q 39.60 82.06 39.31 80.70
  C 37.67 73.07 39.28 65.68 41.97 58.19
  A 0.47 0.47 0.0 0 0 41.30 57.62
  Q 39.63 58.54 38.59 60.35
  Q 33.52 69.19 32.42 79.69
  Q 32.27 81.12 32.05 81.47
  A 1.64 1.64 0.0 0 1 29.16 81.29
  C 26.23 74.87 29.13 64.19 32.25 58.19
  A 0.50 0.50 0.0 0 0 31.62 57.49
  C 27.47 59.09 24.22 70.32 23.51 74.84
  A 1.49 1.49 0.0 0 1 20.73 75.32
  C 19.92 73.81 19.86 72.13 20.20 70.19
  Q 20.53 68.35 20.47 66.48
  A 76.98 72.47 90.0 0 1 34.72 39.56
  Z"
/>
<path fill="#80bd3e" d="
  M 141.77 56.32
  C 144.15 58.13 142.53 60.38 140.64 61.94
  Q 134.29 67.18 127.96 70.19
  Q 125.01 71.59 122.74 72.03
  A 2.90 2.89 70.0 0 1 119.66 70.59
  C 116.40 64.72 116.26 56.65 116.88 49.64
  Q 117.20 46.08 120.55 45.93
  A 2.22 2.19 50.5 0 1 121.24 46.00
  Q 131.85 48.82 141.77 56.32
  Z"
/>
<path fill="#f3254d" d="
  M 97.03 61.79
  Q 96.67 60.03 96.17 56.42
  C 95.48 51.40 99.06 47.73 104.05 49.48
  Q 106.02 50.16 107.97 52.71
  Q 112.51 58.66 112.14 66.78
  C 111.87 72.83 111.42 78.02 108.48 83.20
  Q 107.09 85.64 104.70 85.12
  Q 98.18 83.73 90.87 78.17
  C 85.45 74.06 81.06 66.25 84.18 59.69
  Q 85.37 57.17 88.58 56.49
  C 91.91 55.79 94.82 59.43 96.49 62.01
  A 0.30 0.30 0.0 0 0 97.03 61.79
  Z"
/>
<path fill="#30957b" d="
  M 121.41 91.95
  Q 120.22 91.00 120.65 88.48
  C 122.71 76.31 136.51 69.03 148.01 71.56
  C 152.37 72.51 155.92 75.98 155.53 80.58
  C 155.15 85.19 150.91 88.10 146.46 87.47
  C 140.31 86.60 134.25 86.98 128.58 89.55
  Q 122.82 92.15 122.41 92.22
  A 1.31 1.30 -29.6 0 1 121.41 91.95
  Z"
/>
<path fill="#30957b" d="
  M 74.17 90.90
  Q 74.13 90.29 73.52 87.06
  Q 73.27 85.75 74.44 82.93
  C 76.24 78.63 80.08 81.57 81.70 84.31
  Q 83.56 87.44 87.37 94.60
  Q 88.55 96.81 90.67 97.45
  A 1.12 1.12 0.0 0 0 92.10 96.19
  L 91.13 90.49
  A 1.31 1.11 -51.5 0 1 91.12 90.14
  Q 91.47 86.74 94.74 87.43
  C 99.83 88.51 100.56 95.27 100.09 99.52
  C 99.46 105.06 95.63 108.34 90.15 106.21
  A 0.33 0.33 0.0 0 0 89.72 106.60
  C 91.28 112.34 92.26 116.80 90.31 122.82
  Q 87.06 132.89 76.23 133.49
  C 61.90 134.28 55.40 118.94 54.64 106.99
  C 54.10 98.46 57.38 91.80 65.71 89.43
  Q 70.26 88.13 73.65 91.15
  A 0.31 0.31 0.0 0 0 74.17 90.90
  Z
  M 68.54 99.51
  Q 65.13 100.68 64.56 104.98
  Q 63.62 112.02 67.58 119.09
  C 69.44 122.39 73.16 124.64 76.75 123.41
  C 80.34 122.18 81.89 118.12 81.33 114.37
  Q 80.11 106.36 75.05 101.38
  Q 71.96 98.34 68.54 99.51
  Z"
/>
<path fill="#80bd3e" d="
  M 50.14 119.31
  C 46.97 120.29 42.56 117.26 39.97 115.08
  C 34.70 110.65 25.16 101.47 27.11 93.69
  C 28.31 88.89 33.80 85.26 38.23 89.28
  Q 39.97 90.87 41.46 94.30
  C 43.27 98.48 45.37 105.10 47.93 110.15
  Q 50.26 114.75 51.09 117.53
  A 1.44 1.44 0.0 0 1 50.14 119.31
  Z"
/>
<ellipse fill="#30957b" cx="0.00" cy="0.00" transform="translate(114.41,99.48) rotate(-43.0)" rx="6.47" ry="6.26"/>
<path fill="#5f2747" d="
  M 161.14 101.80
  A 76.95 72.48 -89.9 0 1 134.70 150.19
  A 76.94 72.44 -90.0 0 1 89.25 166.99
  A 76.99 72.50 -89.9 0 1 40.38 146.63
  A 76.98 72.54 89.8 0 1 18.13 103.50
  Q 20.04 102.06 21.03 103.95
  Q 33.62 127.99 58.65 137.28
  Q 70.54 141.70 81.74 141.37
  C 95.34 140.98 105.44 133.55 106.21 119.00
  Q 106.25 118.35 106.08 113.92
  A 1.64 1.64 0.0 0 1 107.69 112.22
  C 110.14 112.17 112.44 115.30 113.37 117.42
  Q 116.50 124.48 115.76 131.71
  A 0.52 0.52 0.0 0 0 116.70 132.06
  C 122.39 123.91 124.91 112.78 126.97 102.56
  Q 127.45 100.16 129.06 99.46
  A 1.80 1.54 69.1 0 1 131.23 100.64
  C 133.23 106.56 130.48 112.97 131.14 118.96
  A 0.75 0.75 0.0 0 0 132.45 119.37
  Q 133.78 117.82 134.51 115.26
  Q 137.66 104.16 138.71 98.03
  Q 139.16 95.38 140.86 94.57
  A 1.57 1.41 71.5 0 1 142.89 95.72
  C 144.44 102.61 142.84 108.47 141.31 116.98
  A 0.57 0.57 0.0 0 0 142.01 117.64
  C 143.46 117.29 144.48 114.51 144.98 112.73
  Q 146.98 105.51 149.26 96.31
  Q 149.72 94.47 151.00 93.57
  A 1.12 1.11 -22.6 0 1 152.73 94.28
  C 154.03 101.37 152.68 109.24 151.07 116.24
  A 0.51 0.51 0.0 0 0 151.82 116.79
  C 154.29 115.33 155.74 107.97 157.66 101.47
  A 1.83 1.83 0.0 0 1 160.07 100.28
  Q 160.41 100.41 161.14 101.80
  Z"
/>
<path fill="#ffffff" d="
  M 76.75 123.41
  C 73.16 124.64 69.44 122.39 67.58 119.09
  Q 63.62 112.02 64.56 104.98
  Q 65.13 100.68 68.54 99.51
  Q 71.96 98.34 75.05 101.38
  Q 80.11 106.36 81.33 114.37
  C 81.89 118.12 80.34 122.18 76.75 123.41
  Z"
/>
</svg>