<?xml version="1.0" encoding="UTF-8" standalone="no"?>
<!DOCTYPE svg PUBLIC "-//W3C//DTD SVG 1.1//EN" "http://www.w3.org/Graphics/SVG/1.1/DTD/svg11.dtd">
<svg xmlns="http://www.w3.org/2000/svg" version="1.1" viewBox="0.00 0.00 144.00 144.00" width="128" height="128">
<g stroke-width="2.00" fill="none" stroke-linecap="butt">
<path stroke="#818181" vector-effect="non-scaling-stroke" d="
  M 74.87 12.49
  A 5.97 5.97 0.0 0 0 68.90 6.52
  A 5.97 5.97 0.0 0 0 62.93 12.49
  A 5.97 5.97 0.0 0 0 68.90 18.46
  A 5.97 5.97 0.0 0 0 74.87 12.49"
/>
<path stroke="#999999" vector-effect="non-scaling-stroke" d="
  M 56.49 13.38
  A 3.12 3.12 0.0 0 0 53.37 10.26
  A 3.12 3.12 0.0 0 0 50.25 13.38
  A 3.12 3.12 0.0 0 0 53.37 16.50
  A 3.12 3.12 0.0 0 0 56.49 13.38"
/>
<path stroke="#818181" vector-effect="non-scaling-stroke" d="
  M 100.10 16.09
  A 4.35 4.35 0.0 0 0 95.75 11.74
  A 4.35 4.35 0.0 0 0 91.40 16.09
  A 4.35 4.35 0.0 0 0 95.75 20.44
  A 4.35 4.35 0.0 0 0 100.10 16.09"
/>
<path stroke="#818181" vector-effect="non-scaling-stroke" d="
  M 45.12 19.34
  A 4.08 4.08 0.0 0 0 41.04 15.26
  A 4.08 4.08 0.0 0 0 36.96 19.34
  A 4.08 4.08 0.0 0 0 41.04 23.42
  A 4.08 4.08 0.0 0 0 45.12 19.34"
/>
<path stroke="#999999" vector-effect="non-scaling-stroke" d="
  M 110.37 20.91
  A 3.10 3.10 0.0 0 0 107.27 17.81
  A 3.10 3.10 0.0 0 0 104.17 20.91
  A 3.10 3.10 0.0 0 0 107.27 24.01
  A 3.10 3.10 0.0 0 0 110.37 20.91"
/>
<path stroke="#818181" vector-effect="non-scaling-stroke" d="
  M 90.03 22.96
  A 4.32 4.32 0.0 0 0 85.71 18.64
  A 4.32 4.32 0.0 0 0 81.39 22.96
  A 4.32 4.32 0.0 0 0 85.71 27.28
  A 4.32 4.32 0.0 0 0 90.03 22.96"
/>
<path stroke="#818181" vector-effect="non-scaling-stroke" d="
  M 35.88 28.64
  A 5.95 5.95 0.0 0 0 29.93 22.69
  A 5.95 5.95 0.0 0 0 23.98 28.64
  A 5.95 5.95 0.0 0 0 29.93 34.59
  A 5.95 5.95 0.0 0 0 35.88 28.64"
/>
<path stroke="#999999" vector-effect="non-scaling-stroke" d="
  M 75.55 26.70
  A 3.70 3.70 0.0 0 0 71.85 23.00
  A 3.70 3.70 0.0 0 0 68.15 26.70
  A 3.70 3.70 0.0 0 0 71.85 30.40
  A 3.70 3.70 0.0 0 0 75.55 26.70"
/>
<path stroke="#818181" vector-effect="non-scaling-stroke" d="
  M 61.40 32.84
  A 6.00 6.00 0.0 0 0 55.40 26.84
  A 6.00 6.00 0.0 0 0 49.40 32.84
  A 6.00 6.00 0.0 0 0 55.40 38.84
  A 6.00 6.00 0.0 0 0 61.40 32.84"
/>
<path stroke="#999999" vector-effect="non-scaling-stroke" d="
  M 103.84 30.00
  A 3.10 3.10 0.0 0 0 100.74 26.90
  A 3.10 3.10 0.0 0 0 97.64 30.00
  A 3.10 3.10 0.0 0 0 100.74 33.10
  A 3.10 3.10 0.0 0 0 103.84 30.00"
/>
<path stroke="#818181" vector-effect="non-scaling-stroke" d="
  M 124.36 33.13
  A 4.65 4.65 0.0 0 0 119.71 28.48
  A 4.65 4.65 0.0 0 0 115.06 33.13
  A 4.65 4.65 0.0 0 0 119.71 37.78
  A 4.65 4.65 0.0 0 0 124.36 33.13"
/>
<path stroke="#999999" vector-effect="non-scaling-stroke" d="
  M 73.58 38.44
  A 3.63 3.63 0.0 0 0 69.95 34.81
  A 3.63 3.63 0.0 0 0 66.32 38.44
  A 3.63 3.63 0.0 0 0 69.95 42.07
  A 3.63 3.63 0.0 0 0 73.58 38.44"
/>
<path stroke="#999999" vector-effect="non-scaling-stroke" d="
  M 39.66 39.75
  A 3.40 3.40 0.0 0 0 36.26 36.35
  A 3.40 3.40 0.0 0 0 32.86 39.75
  A 3.40 3.40 0.0 0 0 36.26 43.15
  A 3.40 3.40 0.0 0 0 39.66 39.75"
/>
<path stroke="#818181" vector-effect="non-scaling-stroke" d="
  M 93.27 42.85
  A 5.95 5.95 0.0 0 0 87.32 36.90
  A 5.95 5.95 0.0 0 0 81.37 42.85
  A 5.95 5.95 0.0 0 0 87.32 48.80
  A 5.95 5.95 0.0 0 0 93.27 42.85"
/>
<path stroke="#818181" vector-effect="non-scaling-stroke" d="
  M 113.51 42.52
  A 5.91 5.91 0.0 0 0 107.60 36.61
  A 5.91 5.91 0.0 0 0 101.69 42.52
  A 5.91 5.91 0.0 0 0 107.60 48.43
  A 5.91 5.91 0.0 0 0 113.51 42.52"
/>
<path stroke="#999999" vector-effect="non-scaling-stroke" d="
  M 23.59 40.60
  A 2.94 2.94 0.0 0 0 20.65 37.66
  A 2.94 2.94 0.0 0 0 17.71 40.60
  A 2.94 2.94 0.0 0 0 20.65 43.54
  A 2.94 2.94 0.0 0 0 23.59 40.60"
/>
<path stroke="#818181" vector-effect="non-scaling-stroke" d="
  M 133.88 45.01
  A 5.26 5.26 0.0 0 0 128.62 39.75
  A 5.26 5.26 0.0 0 0 123.36 45.01
  A 5.26 5.26 0.0 0 0 128.62 50.27
  A 5.26 5.26 0.0 0 0 133.88 45.01"
/>
<path stroke="#f9bb90" vector-effect="non-scaling-stroke" d="
  M 60.33 53.79
  A 9.80 9.80 0.0 0 0 50.53 43.99
  A 9.80 9.80 0.0 0 0 40.73 53.79
  A 9.80 9.80 0.0 0 0 50.53 63.59
  A 9.80 9.80 0.0 0 0 60.33 53.79"
/>
<path stroke="#999999" vector-effect="non-scaling-stroke" d="
  M 32.23 50.23
  A 2.92 2.92 0.0 0 0 29.31 47.31
  A 2.92 2.92 0.0 0 0 26.39 50.23
  A 2.92 2.92 0.0 0 0 29.31 53.15
  A 2.92 2.92 0.0 0 0 32.23 50.23"
/>
<path stroke="#818181" vector-effect="non-scaling-stroke" d="
  M 73.65 53.27
  A 4.55 4.55 0.0 0 0 69.10 48.72
  A 4.55 4.55 0.0 0 0 64.55 53.27
  A 4.55 4.55 0.0 0 0 69.10 57.82
  A 4.55 4.55 0.0 0 0 73.65 53.27"
/>
<path stroke="#818181" vector-effect="non-scaling-stroke" d="
  M 20.15 52.80
  A 3.72 3.72 0.0 0 0 16.43 49.08
  A 3.72 3.72 0.0 0 0 12.71 52.80
  A 3.72 3.72 0.0 0 0 16.43 56.52
  A 3.72 3.72 0.0 0 0 20.15 52.80"
/>
<path stroke="#f9bb90" vector-effect="non-scaling-stroke" d="
  M 104.34 56.90
  A 5.97 5.97 0.0 0 0 98.37 50.93
  A 5.97 5.97 0.0 0 0 92.40 56.90
  A 5.97 5.97 0.0 0 0 98.37 62.87
  A 5.97 5.97 0.0 0 0 104.34 56.90"
/>
<path stroke="#999999" vector-effect="non-scaling-stroke" d="
  M 118.29 56.20
  A 3.67 3.67 0.0 0 0 114.62 52.53
  A 3.67 3.67 0.0 0 0 110.95 56.20
  A 3.67 3.67 0.0 0 0 114.62 59.87
  A 3.67 3.67 0.0 0 0 118.29 56.20"
/>
<path stroke="#999999" vector-effect="non-scaling-stroke" d="
  M 134.57 59.71
  A 3.80 3.80 0.0 0 0 130.77 55.91
  A 3.80 3.80 0.0 0 0 126.97 59.71
  A 3.80 3.80 0.0 0 0 130.77 63.51
  A 3.80 3.80 0.0 0 0 134.57 59.71"
/>
<path stroke="#818181" vector-effect="non-scaling-stroke" d="
  M 87.38 62.78
  A 4.99 4.99 0.0 0 0 82.39 57.79
  A 4.99 4.99 0.0 0 0 77.40 62.78
  A 4.99 4.99 0.0 0 0 82.39 67.77
  A 4.99 4.99 0.0 0 0 87.38 62.78"
/>
<path stroke="#818181" vector-effect="non-scaling-stroke" d="
  M 35.37 66.26
  A 4.42 4.42 0.0 0 0 30.95 61.84
  A 4.42 4.42 0.0 0 0 26.53 66.26
  A 4.42 4.42 0.0 0 0 30.95 70.68
  A 4.42 4.42 0.0 0 0 35.37 66.26"
/>
<path stroke="#818181" vector-effect="non-scaling-stroke" d="
  M 21.63 69.70
  A 7.02 7.02 0.0 0 0 14.61 62.68
  A 7.02 7.02 0.0 0 0 7.59 69.70
  A 7.02 7.02 0.0 0 0 14.61 76.72
  A 7.02 7.02 0.0 0 0 21.63 69.70"
/>
<path stroke="#818181" vector-effect="non-scaling-stroke" d="
  M 116.60 72.02
  A 4.14 4.14 0.0 0 0 112.46 67.88
  A 4.14 4.14 0.0 0 0 108.32 72.02
  A 4.14 4.14 0.0 0 0 112.46 76.16
  A 4.14 4.14 0.0 0 0 116.60 72.02"
/>
<path stroke="#818181" vector-effect="non-scaling-stroke" d="
  M 137.47 74.49
  A 6.75 6.75 0.0 0 0 130.72 67.74
  A 6.75 6.75 0.0 0 0 123.97 74.49
  A 6.75 6.75 0.0 0 0 130.72 81.24
  A 6.75 6.75 0.0 0 0 137.47 74.49"
/>
<path stroke="#999999" vector-effect="non-scaling-stroke" d="
  M 72.53 71.81
  A 3.61 3.61 0.0 0 0 68.92 68.20
  A 3.61 3.61 0.0 0 0 65.31 71.81
  A 3.61 3.61 0.0 0 0 68.92 75.42
  A 3.61 3.61 0.0 0 0 72.53 71.81"
/>
<path stroke="#818181" vector-effect="non-scaling-stroke" d="
  M 103.44 70.86
  A 2.65 2.65 0.0 0 0 100.79 68.21
  A 2.65 2.65 0.0 0 0 98.14 70.86
  A 2.65 2.65 0.0 0 0 100.79 73.51
  A 2.65 2.65 0.0 0 0 103.44 70.86"
/>
<path stroke="#818181" vector-effect="non-scaling-stroke" d="
  M 48.29 73.89
  A 4.07 4.07 0.0 0 0 44.22 69.82
  A 4.07 4.07 0.0 0 0 40.15 73.89
  A 4.07 4.07 0.0 0 0 44.22 77.96
  A 4.07 4.07 0.0 0 0 48.29 73.89"
/>
<path stroke="#f9bb90" vector-effect="non-scaling-stroke" d="
  M 101.58 85.59
  A 12.93 12.93 0.0 0 0 88.65 72.66
  A 12.93 12.93 0.0 0 0 75.72 85.59
  A 12.93 12.93 0.0 0 0 88.65 98.52
  A 12.93 12.93 0.0 0 0 101.58 85.59"
/>
<path stroke="#818181" vector-effect="non-scaling-stroke" d="
  M 65.77 81.09
  A 6.35 6.35 0.0 0 0 59.42 74.74
  A 6.35 6.35 0.0 0 0 53.07 81.09
  A 6.35 6.35 0.0 0 0 59.42 87.44
  A 6.35 6.35 0.0 0 0 65.77 81.09"
/>
<path stroke="#818181" vector-effect="non-scaling-stroke" d="
  M 34.28 81.74
  A 2.53 2.53 0.0 0 0 31.75 79.21
  A 2.53 2.53 0.0 0 0 29.22 81.74
  A 2.53 2.53 0.0 0 0 31.75 84.27
  A 2.53 2.53 0.0 0 0 34.28 81.74"
/>
<path stroke="#818181" vector-effect="non-scaling-stroke" d="
  M 119.75 87.50
  A 5.47 5.47 0.0 0 0 114.28 82.03
  A 5.47 5.47 0.0 0 0 108.81 87.50
  A 5.47 5.47 0.0 0 0 114.28 92.97
  A 5.47 5.47 0.0 0 0 119.75 87.50"
/>
<path stroke="#818181" vector-effect="non-scaling-stroke" d="
  M 23.24 89.36
  A 5.49 5.49 0.0 0 0 17.75 83.87
  A 5.49 5.49 0.0 0 0 12.26 89.36
  A 5.49 5.49 0.0 0 0 17.75 94.85
  A 5.49 5.49 0.0 0 0 23.24 89.36"
/>
<path stroke="#818181" vector-effect="non-scaling-stroke" d="
  M 47.29 89.08
  A 4.09 4.09 0.0 0 0 43.20 84.99
  A 4.09 4.09 0.0 0 0 39.11 89.08
  A 4.09 4.09 0.0 0 0 43.20 93.17
  A 4.09 4.09 0.0 0 0 47.29 89.08"
/>
<path stroke="#818181" vector-effect="non-scaling-stroke" d="
  M 131.18 90.62
  A 2.53 2.53 0.0 0 0 128.65 88.09
  A 2.53 2.53 0.0 0 0 126.12 90.62
  A 2.53 2.53 0.0 0 0 128.65 93.15
  A 2.53 2.53 0.0 0 0 131.18 90.62"
/>
<path stroke="#818181" vector-effect="non-scaling-stroke" d="
  M 69.74 97.58
  A 2.56 2.56 0.0 0 0 67.18 95.02
  A 2.56 2.56 0.0 0 0 64.62 97.58
  A 2.56 2.56 0.0 0 0 67.18 100.14
  A 2.56 2.56 0.0 0 0 69.74 97.58"
/>
<path stroke="#818181" vector-effect="non-scaling-stroke" d="
  M 131.62 103.19
  A 6.49 6.49 0.0 0 0 125.13 96.70
  A 6.49 6.49 0.0 0 0 118.64 103.19
  A 6.49 6.49 0.0 0 0 125.13 109.68
  A 6.49 6.49 0.0 0 0 131.62 103.19"
/>
<path stroke="#818181" vector-effect="non-scaling-stroke" d="
  M 111.41 102.42
  A 4.20 4.20 0.0 0 0 107.21 98.22
  A 4.20 4.20 0.0 0 0 103.01 102.42
  A 4.20 4.20 0.0 0 0 107.21 106.62
  A 4.20 4.20 0.0 0 0 111.41 102.42"
/>
<path stroke="#818181" vector-effect="non-scaling-stroke" d="
  M 30.53 104.43
  A 5.45 5.45 0.0 0 0 25.08 98.98
  A 5.45 5.45 0.0 0 0 19.63 104.43
  A 5.45 5.45 0.0 0 0 25.08 109.88
  A 5.45 5.45 0.0 0 0 30.53 104.43"
/>
<path stroke="#818181" vector-effect="non-scaling-stroke" d="
  M 51.38 105.93
  A 5.63 5.63 0.0 0 0 45.75 100.30
  A 5.63 5.63 0.0 0 0 40.12 105.93
  A 5.63 5.63 0.0 0 0 45.75 111.56
  A 5.63 5.63 0.0 0 0 51.38 105.93"
/>
<path stroke="#818181" vector-effect="non-scaling-stroke" d="
  M 80.81 106.81
  A 4.60 4.60 0.0 0 0 76.21 102.21
  A 4.60 4.60 0.0 0 0 71.61 106.81
  A 4.60 4.60 0.0 0 0 76.21 111.41
  A 4.60 4.60 0.0 0 0 80.81 106.81"
/>
<path stroke="#818181" vector-effect="non-scaling-stroke" d="
  M 66.43 108.15
  A 5.17 5.17 0.0 0 0 61.26 102.98
  A 5.17 5.17 0.0 0 0 56.09 108.15
  A 5.17 5.17 0.0 0 0 61.26 113.32
  A 5.17 5.17 0.0 0 0 66.43 108.15"
/>
<path stroke="#999999" vector-effect="non-scaling-stroke" d="
  M 86.33 110.92
  A 6.06 6.06 0.0 0 0 86.12 114.71"
/>
<path stroke="#818181" vector-effect="non-scaling-stroke" d="
  M 86.12 114.71
  A 6.04 6.04 0.0 0 0 95.23 118.20
  A 6.04 6.04 0.0 0 0 96.86 109.63
  A 6.03 6.03 0.0 0 0 89.03 107.85
  A 6.02 5.98 -3.9 0 0 86.33 110.92"
/>
<path stroke="#1b1b1b" vector-effect="non-scaling-stroke" d="
  M 86.12 114.71
  Q 90.54 118.62 92.47 118.10
  Q 97.18 116.84 96.86 112.42
  A 2.62 2.43 -61.4 0 0 96.62 111.48
  C 94.71 107.36 89.46 107.10 87.43 111.29
  A 0.56 0.56 0.0 0 1 86.62 111.51
  Q 86.47 111.40 86.33 110.92"
/>
<path stroke="#999999" vector-effect="non-scaling-stroke" d="
  M 36.12 117.82
  A 3.11 3.11 0.0 0 0 33.01 114.71
  A 3.11 3.11 0.0 0 0 29.90 117.82
  A 3.11 3.11 0.0 0 0 33.01 120.93
  A 3.11 3.11 0.0 0 0 36.12 117.82"
/>
<path stroke="#818181" vector-effect="non-scaling-stroke" d="
  M 80.38 120.63
  A 5.15 5.15 0.0 0 0 75.23 115.48
  A 5.15 5.15 0.0 0 0 70.08 120.63
  A 5.15 5.15 0.0 0 0 75.23 125.78
  A 5.15 5.15 0.0 0 0 80.38 120.63"
/>
<path stroke="#818181" vector-effect="non-scaling-stroke" d="
  M 53.93 124.28
  A 5.50 5.50 0.0 0 0 48.43 118.78
  A 5.50 5.50 0.0 0 0 42.93 124.28
  A 5.50 5.50 0.0 0 0 48.43 129.78
  A 5.50 5.50 0.0 0 0 53.93 124.28"
/>
<path stroke="#818181" vector-effect="non-scaling-stroke" d="
  M 106.02 124.83
  A 4.68 4.68 0.0 0 0 101.34 120.15
  A 4.68 4.68 0.0 0 0 96.66 124.83
  A 4.68 4.68 0.0 0 0 101.34 129.51
  A 4.68 4.68 0.0 0 0 106.02 124.83"
/>
<path stroke="#818181" vector-effect="non-scaling-stroke" d="
  M 69.74 130.82
  A 5.17 5.17 0.0 0 0 64.57 125.65
  A 5.17 5.17 0.0 0 0 59.40 130.82
  A 5.17 5.17 0.0 0 0 64.57 135.99
  A 5.17 5.17 0.0 0 0 69.74 130.82"
/>
<path stroke="#818181" vector-effect="non-scaling-stroke" d="
  M 87.85 131.48
  A 3.81 3.81 0.0 0 0 84.04 127.67
  A 3.81 3.81 0.0 0 0 80.23 131.48
  A 3.81 3.81 0.0 0 0 84.04 135.29
  A 3.81 3.81 0.0 0 0 87.85 131.48"
/>
<path stroke="#1b1b1b" vector-effect="non-scaling-stroke" d="
  M 73.8285 12.4198
  A 4.92 4.70 -1.4 0 0 68.7952 7.8414
  A 4.92 4.70 -1.4 0 0 63.9915 12.6602
  A 4.92 4.70 -1.4 0 0 69.0248 17.2386
  A 4.92 4.70 -1.4 0 0 73.8285 12.4198"
/>
<path stroke="#1b1b1b" vector-effect="non-scaling-stroke" d="
  M 99.19 16.03
  A 3.19 3.19 0.0 0 0 96.00 12.84
  A 3.19 3.19 0.0 0 0 92.81 16.03
  A 3.19 3.19 0.0 0 0 96.00 19.22
  A 3.19 3.19 0.0 0 0 99.19 16.03"
/>
<path stroke="#1b1b1b" vector-effect="non-scaling-stroke" d="
  M 37.9732 19.2212
  A 3.06 2.75 -177.4 0 0 40.9053 22.1072
  A 3.06 2.75 -177.4 0 0 44.0868 19.4988
  A 3.06 2.75 -177.4 0 0 41.1547 16.6128
  A 3.06 2.75 -177.4 0 0 37.9732 19.2212"
/>
<path stroke="#1b1b1b" vector-effect="non-scaling-stroke" d="
  M 89.02 22.96
  A 3.10 3.10 0.0 0 0 85.92 19.86
  A 3.10 3.10 0.0 0 0 82.82 22.96
  A 3.10 3.10 0.0 0 0 85.92 26.06
  A 3.10 3.10 0.0 0 0 89.02 22.96"
/>
<path stroke="#1b1b1b" vector-effect="non-scaling-stroke" d="
  M 34.6719 28.3620
  A 3.94 3.94 0.0 0 0 30.9725 24.1953
  L 29.3753 24.1004
  A 3.94 3.94 0.0 0 0 25.2086 27.7998
  L 25.1481 28.8180
  A 3.94 3.94 0.0 0 0 28.8475 32.9847
  L 30.4447 33.0796
  A 3.94 3.94 0.0 0 0 34.6114 29.3802
  L 34.6719 28.3620"
/>
<path stroke="#1b1b1b" vector-effect="non-scaling-stroke" d="
  M 60.32 32.87
  A 4.78 4.78 0.0 0 0 55.54 28.09
  A 4.78 4.78 0.0 0 0 50.76 32.87
  A 4.78 4.78 0.0 0 0 55.54 37.65
  A 4.78 4.78 0.0 0 0 60.32 32.87"
/>
<path stroke="#1b1b1b" vector-effect="non-scaling-stroke" d="
  M 116.19 32.36
  Q 115.96 32.54 115.79 32.95
  A 0.76 0.75 46.6 0 0 115.78 33.54
  C 117.06 36.87 120.81 38.01 122.95 34.49
  A 1.90 1.84 61.8 0 0 123.23 33.50
  C 123.21 29.03 117.83 28.57 116.36 32.15
  A 0.56 0.50 87.0 0 1 116.19 32.36"
/>
<path stroke="#1b1b1b" vector-effect="non-scaling-stroke" d="
  M 92.11 42.85
  A 4.71 4.71 0.0 0 0 87.40 38.14
  A 4.71 4.71 0.0 0 0 82.69 42.85
  A 4.71 4.71 0.0 0 0 87.40 47.56
  A 4.71 4.71 0.0 0 0 92.11 42.85"
/>
<path stroke="#1b1b1b" vector-effect="non-scaling-stroke" d="
  M 112.21 42.50
  A 4.65 4.65 0.0 0 0 107.56 37.85
  A 4.65 4.65 0.0 0 0 102.91 42.50
  A 4.65 4.65 0.0 0 0 107.56 47.15
  A 4.65 4.65 0.0 0 0 112.21 42.50"
/>
<path stroke="#1b1b1b" vector-effect="non-scaling-stroke" d="
  M 132.6111 44.3868
  A 3.49 3.49 0.0 0 0 129.1272 40.8907
  L 128.3472 40.8893
  A 3.49 3.49 0.0 0 0 124.8511 44.3732
  L 124.8489 45.6132
  A 3.49 3.49 0.0 0 0 128.3328 49.1093
  L 129.1128 49.1107
  A 3.49 3.49 0.0 0 0 132.6089 45.6268
  L 132.6111 44.3868"
/>
<path stroke="#1b1b1b" vector-effect="non-scaling-stroke" d="
  M 72.52 53.26
  A 3.34 3.34 0.0 0 0 69.18 49.92
  A 3.34 3.34 0.0 0 0 65.84 53.26
  A 3.34 3.34 0.0 0 0 69.18 56.60
  A 3.34 3.34 0.0 0 0 72.52 53.26"
/>
<path stroke="#1b1b1b" vector-effect="non-scaling-stroke" d="
  M 14.97 50.46
  C 11.96 54.06 16.60 57.08 19.20 53.44
  A 1.05 1.03 -40.0 0 0 19.30 52.39
  Q 18.26 50.11 16.07 49.98
  A 1.33 1.32 -68.4 0 0 14.97 50.46"
/>
<path stroke="#1b1b1b" vector-effect="non-scaling-stroke" d="
  M 81.0524 59.0290
  A 3.90 3.65 -111.0 0 0 79.0424 63.9780
  A 3.90 3.65 -111.0 0 0 83.8476 66.3110
  A 3.90 3.65 -111.0 0 0 85.8576 61.3620
  A 3.90 3.65 -111.0 0 0 81.0524 59.0290"
/>
<path stroke="#1b1b1b" vector-effect="non-scaling-stroke" d="
  M 31.1655 62.7337
  A 3.30 3.10 -87.3 0 0 27.9134 65.8840
  A 3.30 3.10 -87.3 0 0 30.8545 69.3263
  A 3.30 3.10 -87.3 0 0 34.1066 66.1760
  A 3.30 3.10 -87.3 0 0 31.1655 62.7337"
/>
<path stroke="#1b1b1b" vector-effect="non-scaling-stroke" d="
  M 20.32 69.01
  A 4.87 4.87 0.0 0 0 15.45 64.14
  L 13.77 64.14
  A 4.87 4.87 0.0 0 0 8.90 69.01
  L 8.90 70.41
  A 4.87 4.87 0.0 0 0 13.77 75.28
  L 15.45 75.28
  A 4.87 4.87 0.0 0 0 20.32 70.41
  L 20.32 69.01"
/>
<path stroke="#1b1b1b" vector-effect="non-scaling-stroke" d="
  M 112.4003 68.7802
  A 3.25 2.67 -90.7 0 0 109.7702 72.0626
  A 3.25 2.67 -90.7 0 0 112.4797 75.2798
  A 3.25 2.67 -90.7 0 0 115.1098 71.9974
  A 3.25 2.67 -90.7 0 0 112.4003 68.7802"
/>
<path stroke="#1b1b1b" vector-effect="non-scaling-stroke" d="
  M 136.22 74.48
  A 5.56 5.56 0.0 0 0 130.66 68.92
  A 5.56 5.56 0.0 0 0 125.10 74.48
  A 5.56 5.56 0.0 0 0 130.66 80.04
  A 5.56 5.56 0.0 0 0 136.22 74.48"
/>
<path stroke="#1b1b1b" vector-effect="non-scaling-stroke" d="
  M 44.87 70.87
  Q 44.70 70.69 44.35 70.57
  A 0.65 0.64 -47.0 0 0 43.85 70.59
  C 41.09 71.85 40.32 75.10 43.42 76.73
  A 1.62 1.56 -31.8 0 0 44.28 76.91
  C 48.07 76.66 48.17 72.06 45.06 71.01
  A 0.48 0.43 -6.6 0 1 44.87 70.87"
/>
<path stroke="#1b1b1b" vector-effect="non-scaling-stroke" d="
  M 64.6694 81.1826
  A 5.26 5.00 0.9 0 0 59.4885 76.1006
  A 5.26 5.00 0.9 0 0 54.1506 81.0174
  A 5.26 5.00 0.9 0 0 59.3315 86.0994
  A 5.26 5.00 0.9 0 0 64.6694 81.1826"
/>
<path stroke="#1b1b1b" vector-effect="non-scaling-stroke" d="
  M 113.2082 83.2147
  A 4.41 4.26 -104.2 0 0 110.1602 88.5350
  A 4.41 4.26 -104.2 0 0 115.3718 91.7653
  A 4.41 4.26 -104.2 0 0 118.4198 86.4450
  A 4.41 4.26 -104.2 0 0 113.2082 83.2147"
/>
<path stroke="#1b1b1b" vector-effect="non-scaling-stroke" d="
  M 17.27 85.07
  Q 17.25 85.01 17.22 84.93
  A 0.46 0.05 -16.9 0 0 16.77 85.01
  Q 13.77 85.94 13.48 88.79
  C 12.86 94.86 22.16 95.15 22.04 89.79
  Q 21.94 84.93 17.48 85.11
  A 0.23 0.06 -4.3 0 1 17.27 85.07"
/>
<path stroke="#1b1b1b" vector-effect="non-scaling-stroke" d="
  M 46.21 89.07
  A 2.95 2.95 0.0 0 0 43.26 86.12
  A 2.95 2.95 0.0 0 0 40.31 89.07
  A 2.95 2.95 0.0 0 0 43.26 92.02
  A 2.95 2.95 0.0 0 0 46.21 89.07"
/>
<path stroke="#1b1b1b" vector-effect="non-scaling-stroke" d="
  M 130.44 103.21
  A 5.26 5.26 0.0 0 0 125.18 97.95
  A 5.26 5.26 0.0 0 0 119.92 103.21
  A 5.26 5.26 0.0 0 0 125.18 108.47
  A 5.26 5.26 0.0 0 0 130.44 103.21"
/>
<path stroke="#1b1b1b" vector-effect="non-scaling-stroke" d="
  M 109.91 103.77
  L 109.85 100.85
  A 1.23 1.23 0.0 0 0 108.59 99.64
  L 107.16 99.67
  A 3.32 2.62 -1.2 0 0 103.90 102.36
  L 103.90 102.50
  A 3.32 2.62 -1.2 0 0 107.28 105.05
  L 108.71 105.02
  A 1.23 1.23 0.0 0 0 109.91 103.77"
/>
<path stroke="#1b1b1b" vector-effect="non-scaling-stroke" d="
  M 23.9538 99.9890
  A 4.47 4.18 -103.8 0 0 20.9607 105.3271
  A 4.47 4.18 -103.8 0 0 26.0862 108.6710
  A 4.47 4.18 -103.8 0 0 29.0793 103.3329
  A 4.47 4.18 -103.8 0 0 23.9538 99.9890"
/>
<path stroke="#1b1b1b" vector-effect="non-scaling-stroke" d="
  M 41.2389 106.2238
  A 4.52 4.38 -183.6 0 0 46.0250 110.3114
  A 4.52 4.38 -183.6 0 0 50.2611 105.6562
  A 4.52 4.38 -183.6 0 0 45.4750 101.5686
  A 4.52 4.38 -183.6 0 0 41.2389 106.2238"
/>
<path stroke="#1b1b1b" vector-effect="non-scaling-stroke" d="
  M 79.68 106.82
  A 3.40 3.40 0.0 0 0 76.28 103.42
  A 3.40 3.40 0.0 0 0 72.88 106.82
  A 3.40 3.40 0.0 0 0 76.28 110.22
  A 3.40 3.40 0.0 0 0 79.68 106.82"
/>
<path stroke="#1b1b1b" vector-effect="non-scaling-stroke" d="
  M 65.25 108.16
  A 4.03 4.03 0.0 0 0 61.22 104.13
  A 4.03 4.03 0.0 0 0 57.19 108.16
  A 4.03 4.03 0.0 0 0 61.22 112.19
  A 4.03 4.03 0.0 0 0 65.25 108.16"
/>
<path stroke="#1b1b1b" vector-effect="non-scaling-stroke" d="
  M 79.24 120.67
  A 4.01 4.01 0.0 0 0 75.23 116.66
  A 4.01 4.01 0.0 0 0 71.22 120.67
  A 4.01 4.01 0.0 0 0 75.23 124.68
  A 4.01 4.01 0.0 0 0 79.24 120.67"
/>
<path stroke="#1b1b1b" vector-effect="non-scaling-stroke" d="
  M 52.96 124.30
  A 4.49 4.49 0.0 0 0 48.47 119.81
  A 4.49 4.49 0.0 0 0 43.98 124.30
  A 4.49 4.49 0.0 0 0 48.47 128.79
  A 4.49 4.49 0.0 0 0 52.96 124.30"
/>
<path stroke="#1b1b1b" vector-effect="non-scaling-stroke" d="
  M 105.0337 125.0112
  A 3.03 3.03 0.0 0 0 102.4969 121.5578
  L 101.5875 121.4186
  A 3.03 3.03 0.0 0 0 98.1340 123.9554
  L 98.0463 124.5288
  A 3.03 3.03 0.0 0 0 100.5831 127.9822
  L 101.4925 128.1214
  A 3.03 3.03 0.0 0 0 104.9460 125.5846
  L 105.0337 125.0112"
/>
<path stroke="#1b1b1b" vector-effect="non-scaling-stroke" d="
  M 63.0419 126.9559
  A 4.15 3.96 -112.5 0 0 60.9714 132.3054
  A 4.15 3.96 -112.5 0 0 66.2181 134.6241
  A 4.15 3.96 -112.5 0 0 68.2886 129.2746
  A 4.15 3.96 -112.5 0 0 63.0419 126.9559"
/>
<path stroke="#1b1b1b" vector-effect="non-scaling-stroke" d="
  M 86.80 131.45
  A 2.69 2.69 0.0 0 0 84.11 128.76
  A 2.69 2.69 0.0 0 0 81.42 131.45
  A 2.69 2.69 0.0 0 0 84.11 134.14
  A 2.69 2.69 0.0 0 0 86.80 131.45"
/>
</g>
<path fill="#ffffff" d="
  M 144.00 0.00
  L 144.00 144.00
  L 0.00 144.00
  L 0.00 0.00
  L 144.00 0.00
  Z
  M 74.87 12.49
  A 5.97 5.97 0.0 0 0 68.90 6.52
  A 5.97 5.97 0.0 0 0 62.93 12.49
  A 5.97 5.97 0.0 0 0 68.90 18.46
  A 5.97 5.97 0.0 0 0 74.87 12.49
  Z
  M 56.49 13.38
  A 3.12 3.12 0.0 0 0 53.37 10.26
  A 3.12 3.12 0.0 0 0 50.25 13.38
  A 3.12 3.12 0.0 0 0 53.37 16.50
  A 3.12 3.12 0.0 0 0 56.49 13.38
  Z
  M 100.10 16.09
  A 4.35 4.35 0.0 0 0 95.75 11.74
  A 4.35 4.35 0.0 0 0 91.40 16.09
  A 4.35 4.35 0.0 0 0 95.75 20.44
  A 4.35 4.35 0.0 0 0 100.10 16.09
  Z
  M 45.12 19.34
  A 4.08 4.08 0.0 0 0 41.04 15.26
  A 4.08 4.08 0.0 0 0 36.96 19.34
  A 4.08 4.08 0.0 0 0 41.04 23.42
  A 4.08 4.08 0.0 0 0 45.12 19.34
  Z
  M 110.37 20.91
  A 3.10 3.10 0.0 0 0 107.27 17.81
  A 3.10 3.10 0.0 0 0 104.17 20.91
  A 3.10 3.10 0.0 0 0 107.27 24.01
  A 3.10 3.10 0.0 0 0 110.37 20.91
  Z
  M 90.03 22.96
  A 4.32 4.32 0.0 0 0 85.71 18.64
  A 4.32 4.32 0.0 0 0 81.39 22.96
  A 4.32 4.32 0.0 0 0 85.71 27.28
  A 4.32 4.32 0.0 0 0 90.03 22.96
  Z
  M 35.88 28.64
  A 5.95 5.95 0.0 0 0 29.93 22.69
  A 5.95 5.95 0.0 0 0 23.98 28.64
  A 5.95 5.95 0.0 0 0 29.93 34.59
  A 5.95 5.95 0.0 0 0 35.88 28.64
  Z
  M 75.55 26.70
  A 3.70 3.70 0.0 0 0 71.85 23.00
  A 3.70 3.70 0.0 0 0 68.15 26.70
  A 3.70 3.70 0.0 0 0 71.85 30.40
  A 3.70 3.70 0.0 0 0 75.55 26.70
  Z
  M 61.40 32.84
  A 6.00 6.00 0.0 0 0 55.40 26.84
  A 6.00 6.00 0.0 0 0 49.40 32.84
  A 6.00 6.00 0.0 0 0 55.40 38.84
  A 6.00 6.00 0.0 0 0 61.40 32.84
  Z
  M 103.84 30.00
  A 3.10 3.10 0.0 0 0 100.74 26.90
  A 3.10 3.10 0.0 0 0 97.64 30.00
  A 3.10 3.10 0.0 0 0 100.74 33.10
  A 3.10 3.10 0.0 0 0 103.84 30.00
  Z
  M 124.36 33.13
  A 4.65 4.65 0.0 0 0 119.71 28.48
  A 4.65 4.65 0.0 0 0 115.06 33.13
  A 4.65 4.65 0.0 0 0 119.71 37.78
  A 4.65 4.65 0.0 0 0 124.36 33.13
  Z
  M 73.58 38.44
  A 3.63 3.63 0.0 0 0 69.95 34.81
  A 3.63 3.63 0.0 0 0 66.32 38.44
  A 3.63 3.63 0.0 0 0 69.95 42.07
  A 3.63 3.63 0.0 0 0 73.58 38.44
  Z
  M 39.66 39.75
  A 3.40 3.40 0.0 0 0 36.26 36.35
  A 3.40 3.40 0.0 0 0 32.86 39.75
  A 3.40 3.40 0.0 0 0 36.26 43.15
  A 3.40 3.40 0.0 0 0 39.66 39.75
  Z
  M 93.27 42.85
  A 5.95 5.95 0.0 0 0 87.32 36.90
  A 5.95 5.95 0.0 0 0 81.37 42.85
  A 5.95 5.95 0.0 0 0 87.32 48.80
  A 5.95 5.95 0.0 0 0 93.27 42.85
  Z
  M 113.51 42.52
  A 5.91 5.91 0.0 0 0 107.60 36.61
  A 5.91 5.91 0.0 0 0 101.69 42.52
  A 5.91 5.91 0.0 0 0 107.60 48.43
  A 5.91 5.91 0.0 0 0 113.51 42.52
  Z
  M 23.59 40.60
  A 2.94 2.94 0.0 0 0 20.65 37.66
  A 2.94 2.94 0.0 0 0 17.71 40.60
  A 2.94 2.94 0.0 0 0 20.65 43.54
  A 2.94 2.94 0.0 0 0 23.59 40.60
  Z
  M 133.88 45.01
  A 5.26 5.26 0.0 0 0 128.62 39.75
  A 5.26 5.26 0.0 0 0 123.36 45.01
  A 5.26 5.26 0.0 0 0 128.62 50.27
  A 5.26 5.26 0.0 0 0 133.88 45.01
  Z
  M 60.33 53.79
  A 9.80 9.80 0.0 0 0 50.53 43.99
  A 9.80 9.80 0.0 0 0 40.73 53.79
  A 9.80 9.80 0.0 0 0 50.53 63.59
  A 9.80 9.80 0.0 0 0 60.33 53.79
  Z
  M 32.23 50.23
  A 2.92 2.92 0.0 0 0 29.31 47.31
  A 2.92 2.92 0.0 0 0 26.39 50.23
  A 2.92 2.92 0.0 0 0 29.31 53.15
  A 2.92 2.92 0.0 0 0 32.23 50.23
  Z
  M 73.65 53.27
  A 4.55 4.55 0.0 0 0 69.10 48.72
  A 4.55 4.55 0.0 0 0 64.55 53.27
  A 4.55 4.55 0.0 0 0 69.10 57.82
  A 4.55 4.55 0.0 0 0 73.65 53.27
  Z
  M 20.15 52.80
  A 3.72 3.72 0.0 0 0 16.43 49.08
  A 3.72 3.72 0.0 0 0 12.71 52.80
  A 3.72 3.72 0.0 0 0 16.43 56.52
  A 3.72 3.72 0.0 0 0 20.15 52.80
  Z
  M 104.34 56.90
  A 5.97 5.97 0.0 0 0 98.37 50.93
  A 5.97 5.97 0.0 0 0 92.40 56.90
  A 5.97 5.97 0.0 0 0 98.37 62.87
  A 5.97 5.97 0.0 0 0 104.34 56.90
  Z
  M 118.29 56.20
  A 3.67 3.67 0.0 0 0 114.62 52.53
  A 3.67 3.67 0.0 0 0 110.95 56.20
  A 3.67 3.67 0.0 0 0 114.62 59.87
  A 3.67 3.67 0.0 0 0 118.29 56.20
  Z
  M 134.57 59.71
  A 3.80 3.80 0.0 0 0 130.77 55.91
  A 3.80 3.80 0.0 0 0 126.97 59.71
  A 3.80 3.80 0.0 0 0 130.77 63.51
  A 3.80 3.80 0.0 0 0 134.57 59.71
  Z
  M 87.38 62.78
  A 4.99 4.99 0.0 0 0 82.39 57.79
  A 4.99 4.99 0.0 0 0 77.40 62.78
  A 4.99 4.99 0.0 0 0 82.39 67.77
  A 4.99 4.99 0.0 0 0 87.38 62.78
  Z
  M 35.37 66.26
  A 4.42 4.42 0.0 0 0 30.95 61.84
  A 4.42 4.42 0.0 0 0 26.53 66.26
  A 4.42 4.42 0.0 0 0 30.95 70.68
  A 4.42 4.42 0.0 0 0 35.37 66.26
  Z
  M 21.63 69.70
  A 7.02 7.02 0.0 0 0 14.61 62.68
  A 7.02 7.02 0.0 0 0 7.59 69.70
  A 7.02 7.02 0.0 0 0 14.61 76.72
  A 7.02 7.02 0.0 0 0 21.63 69.70
  Z
  M 116.60 72.02
  A 4.14 4.14 0.0 0 0 112.46 67.88
  A 4.14 4.14 0.0 0 0 108.32 72.02
  A 4.14 4.14 0.0 0 0 112.46 76.16
  A 4.14 4.14 0.0 0 0 116.60 72.02
  Z
  M 137.47 74.49
  A 6.75 6.75 0.0 0 0 130.72 67.74
  A 6.75 6.75 0.0 0 0 123.97 74.49
  A 6.75 6.75 0.0 0 0 130.72 81.24
  A 6.75 6.75 0.0 0 0 137.47 74.49
  Z
  M 72.53 71.81
  A 3.61 3.61 0.0 0 0 68.92 68.20
  A 3.61 3.61 0.0 0 0 65.31 71.81
  A 3.61 3.61 0.0 0 0 68.92 75.42
  A 3.61 3.61 0.0 0 0 72.53 71.81
  Z
  M 103.44 70.86
  A 2.65 2.65 0.0 0 0 100.79 68.21
  A 2.65 2.65 0.0 0 0 98.14 70.86
  A 2.65 2.65 0.0 0 0 100.79 73.51
  A 2.65 2.65 0.0 0 0 103.44 70.86
  Z
  M 48.29 73.89
  A 4.07 4.07 0.0 0 0 44.22 69.82
  A 4.07 4.07 0.0 0 0 40.15 73.89
  A 4.07 4.07 0.0 0 0 44.22 77.96
  A 4.07 4.07 0.0 0 0 48.29 73.89
  Z
  M 101.58 85.59
  A 12.93 12.93 0.0 0 0 88.65 72.66
  A 12.93 12.93 0.0 0 0 75.72 85.59
  A 12.93 12.93 0.0 0 0 88.65 98.52
  A 12.93 12.93 0.0 0 0 101.58 85.59
  Z
  M 65.77 81.09
  A 6.35 6.35 0.0 0 0 59.42 74.74
  A 6.35 6.35 0.0 0 0 53.07 81.09
  A 6.35 6.35 0.0 0 0 59.42 87.44
  A 6.35 6.35 0.0 0 0 65.77 81.09
  Z
  M 34.28 81.74
  A 2.53 2.53 0.0 0 0 31.75 79.21
  A 2.53 2.53 0.0 0 0 29.22 81.74
  A 2.53 2.53 0.0 0 0 31.75 84.27
  A 2.53 2.53 0.0 0 0 34.28 81.74
  Z
  M 119.75 87.50
  A 5.47 5.47 0.0 0 0 114.28 82.03
  A 5.47 5.47 0.0 0 0 108.81 87.50
  A 5.47 5.47 0.0 0 0 114.28 92.97
  A 5.47 5.47 0.0 0 0 119.75 87.50
  Z
  M 23.24 89.36
  A 5.49 5.49 0.0 0 0 17.75 83.87
  A 5.49 5.49 0.0 0 0 12.26 89.36
  A 5.49 5.49 0.0 0 0 17.75 94.85
  A 5.49 5.49 0.0 0 0 23.24 89.36
  Z
  M 47.29 89.08
  A 4.09 4.09 0.0 0 0 43.20 84.99
  A 4.09 4.09 0.0 0 0 39.11 89.08
  A 4.09 4.09 0.0 0 0 43.20 93.17
  A 4.09 4.09 0.0 0 0 47.29 89.08
  Z
  M 131.18 90.62
  A 2.53 2.53 0.0 0 0 128.65 88.09
  A 2.53 2.53 0.0 0 0 126.12 90.62
  A 2.53 2.53 0.0 0 0 128.65 93.15
  A 2.53 2.53 0.0 0 0 131.18 90.62
  Z
  M 69.74 97.58
  A 2.56 2.56 0.0 0 0 67.18 95.02
  A 2.56 2.56 0.0 0 0 64.62 97.58
  A 2.56 2.56 0.0 0 0 67.18 100.14
  A 2.56 2.56 0.0 0 0 69.74 97.58
  Z
  M 131.62 103.19
  A 6.49 6.49 0.0 0 0 125.13 96.70
  A 6.49 6.49 0.0 0 0 118.64 103.19
  A 6.49 6.49 0.0 0 0 125.13 109.68
  A 6.49 6.49 0.0 0 0 131.62 103.19
  Z
  M 111.41 102.42
  A 4.20 4.20 0.0 0 0 107.21 98.22
  A 4.20 4.20 0.0 0 0 103.01 102.42
  A 4.20 4.20 0.0 0 0 107.21 106.62
  A 4.20 4.20 0.0 0 0 111.41 102.42
  Z
  M 30.53 104.43
  A 5.45 5.45 0.0 0 0 25.08 98.98
  A 5.45 5.45 0.0 0 0 19.63 104.43
  A 5.45 5.45 0.0 0 0 25.08 109.88
  A 5.45 5.45 0.0 0 0 30.53 104.43
  Z
  M 51.38 105.93
  A 5.63 5.63 0.0 0 0 45.75 100.30
  A 5.63 5.63 0.0 0 0 40.12 105.93
  A 5.63 5.63 0.0 0 0 45.75 111.56
  A 5.63 5.63 0.0 0 0 51.38 105.93
  Z
  M 80.81 106.81
  A 4.60 4.60 0.0 0 0 76.21 102.21
  A 4.60 4.60 0.0 0 0 71.61 106.81
  A 4.60 4.60 0.0 0 0 76.21 111.41
  A 4.60 4.60 0.0 0 0 80.81 106.81
  Z
  M 66.43 108.15
  A 5.17 5.17 0.0 0 0 61.26 102.98
  A 5.17 5.17 0.0 0 0 56.09 108.15
  A 5.17 5.17 0.0 0 0 61.26 113.32
  A 5.17 5.17 0.0 0 0 66.43 108.15
  Z
  M 86.33 110.92
  A 6.06 6.06 0.0 0 0 86.12 114.71
  A 6.04 6.04 0.0 0 0 95.23 118.20
  A 6.04 6.04 0.0 0 0 96.86 109.63
  A 6.03 6.03 0.0 0 0 89.03 107.85
  A 6.02 5.98 -3.9 0 0 86.33 110.92
  Z
  M 36.12 117.82
  A 3.11 3.11 0.0 0 0 33.01 114.71
  A 3.11 3.11 0.0 0 0 29.90 117.82
  A 3.11 3.11 0.0 0 0 33.01 120.93
  A 3.11 3.11 0.0 0 0 36.12 117.82
  Z
  M 80.38 120.63
  A 5.15 5.15 0.0 0 0 75.23 115.48
  A 5.15 5.15 0.0 0 0 70.08 120.63
  A 5.15 5.15 0.0 0 0 75.23 125.78
  A 5.15 5.15 0.0 0 0 80.38 120.63
  Z
  M 53.93 124.28
  A 5.50 5.50 0.0 0 0 48.43 118.78
  A 5.50 5.50 0.0 0 0 42.93 124.28
  A 5.50 5.50 0.0 0 0 48.43 129.78
  A 5.50 5.50 0.0 0 0 53.93 124.28
  Z
  M 106.02 124.83
  A 4.68 4.68 0.0 0 0 101.34 120.15
  A 4.68 4.68 0.0 0 0 96.66 124.83
  A 4.68 4.68 0.0 0 0 101.34 129.51
  A 4.68 4.68 0.0 0 0 106.02 124.83
  Z
  M 69.74 130.82
  A 5.17 5.17 0.0 0 0 64.57 125.65
  A 5.17 5.17 0.0 0 0 59.40 130.82
  A 5.17 5.17 0.0 0 0 64.57 135.99
  A 5.17 5.17 0.0 0 0 69.74 130.82
  Z
  M 87.85 131.48
  A 3.81 3.81 0.0 0 0 84.04 127.67
  A 3.81 3.81 0.0 0 0 80.23 131.48
  A 3.81 3.81 0.0 0 0 84.04 135.29
  A 3.81 3.81 0.0 0 0 87.85 131.48
  Z"
/>
<path fill="#020202" d="
  M 74.87 12.49
  A 5.97 5.97 0.0 0 1 68.90 18.46
  A 5.97 5.97 0.0 0 1 62.93 12.49
  A 5.97 5.97 0.0 0 1 68.90 6.52
  A 5.97 5.97 0.0 0 1 74.87 12.49
  Z
  M 73.8285 12.4198
  A 4.92 4.70 -1.4 0 0 68.7952 7.8414
  A 4.92 4.70 -1.4 0 0 63.9915 12.6602
  A 4.92 4.70 -1.4 0 0 69.0248 17.2386
  A 4.92 4.70 -1.4 0 0 73.8285 12.4198
  Z"
/>
<ellipse fill="#333333" cx="0.00" cy="0.00" transform="translate(68.91,12.54) rotate(-1.4)" rx="4.92" ry="4.70"/>
<circle fill="#333333" cx="53.37" cy="13.38" r="3.12"/>
<path fill="#020202" d="
  M 100.10 16.09
  A 4.35 4.35 0.0 0 1 95.75 20.44
  A 4.35 4.35 0.0 0 1 91.40 16.09
  A 4.35 4.35 0.0 0 1 95.75 11.74
  A 4.35 4.35 0.0 0 1 100.10 16.09
  Z
  M 99.19 16.03
  A 3.19 3.19 0.0 0 0 96.00 12.84
  A 3.19 3.19 0.0 0 0 92.81 16.03
  A 3.19 3.19 0.0 0 0 96.00 19.22
  A 3.19 3.19 0.0 0 0 99.19 16.03
  Z"
/>
<circle fill="#333333" cx="96.00" cy="16.03" r="3.19"/>
<path fill="#020202" d="
  M 45.12 19.34
  A 4.08 4.08 0.0 0 1 41.04 23.42
  A 4.08 4.08 0.0 0 1 36.96 19.34
  A 4.08 4.08 0.0 0 1 41.04 15.26
  A 4.08 4.08 0.0 0 1 45.12 19.34
  Z
  M 37.9732 19.2212
  A 3.06 2.75 -177.4 0 0 40.9053 22.1072
  A 3.06 2.75 -177.4 0 0 44.0868 19.4988
  A 3.06 2.75 -177.4 0 0 41.1547 16.6128
  A 3.06 2.75 -177.4 0 0 37.9732 19.2212
  Z"
/>
<ellipse fill="#333333" cx="0.00" cy="0.00" transform="translate(41.03,19.36) rotate(-177.4)" rx="3.06" ry="2.75"/>
<circle fill="#333333" cx="107.27" cy="20.91" r="3.10"/>
<path fill="#020202" d="
  M 90.03 22.96
  A 4.32 4.32 0.0 0 1 85.71 27.28
  A 4.32 4.32 0.0 0 1 81.39 22.96
  A 4.32 4.32 0.0 0 1 85.71 18.64
  A 4.32 4.32 0.0 0 1 90.03 22.96
  Z
  M 89.02 22.96
  A 3.10 3.10 0.0 0 0 85.92 19.86
  A 3.10 3.10 0.0 0 0 82.82 22.96
  A 3.10 3.10 0.0 0 0 85.92 26.06
  A 3.10 3.10 0.0 0 0 89.02 22.96
  Z"
/>
<circle fill="#333333" cx="85.92" cy="22.96" r="3.10"/>
<path fill="#020202" d="
  M 35.88 28.64
  A 5.95 5.95 0.0 0 1 29.93 34.59
  A 5.95 5.95 0.0 0 1 23.98 28.64
  A 5.95 5.95 0.0 0 1 29.93 22.69
  A 5.95 5.95 0.0 0 1 35.88 28.64
  Z
  M 34.6719 28.3620
  A 3.94 3.94 0.0 0 0 30.9725 24.1953
  L 29.3753 24.1004
  A 3.94 3.94 0.0 0 0 25.2086 27.7998
  L 25.1481 28.8180
  A 3.94 3.94 0.0 0 0 28.8475 32.9847
  L 30.4447 33.0796
  A 3.94 3.94 0.0 0 0 34.6114 29.3802
  L 34.6719 28.3620
  Z"
/>
<circle fill="#333333" cx="71.85" cy="26.70" r="3.70"/>
<rect fill="#333333" x="-4.74" y="-4.45" transform="translate(29.91,28.59) rotate(3.4)" width="9.48" height="8.90" rx="3.94"/>
<path fill="#020202" d="
  M 61.40 32.84
  A 6.00 6.00 0.0 0 1 55.40 38.84
  A 6.00 6.00 0.0 0 1 49.40 32.84
  A 6.00 6.00 0.0 0 1 55.40 26.84
  A 6.00 6.00 0.0 0 1 61.40 32.84
  Z
  M 60.32 32.87
  A 4.78 4.78 0.0 0 0 55.54 28.09
  A 4.78 4.78 0.0 0 0 50.76 32.87
  A 4.78 4.78 0.0 0 0 55.54 37.65
  A 4.78 4.78 0.0 0 0 60.32 32.87
  Z"
/>
<circle fill="#333333" cx="100.74" cy="30.00" r="3.10"/>
<circle fill="#333333" cx="55.54" cy="32.87" r="4.78"/>
<path fill="#020202" d="
  M 124.36 33.13
  A 4.65 4.65 0.0 0 1 119.71 37.78
  A 4.65 4.65 0.0 0 1 115.06 33.13
  A 4.65 4.65 0.0 0 1 119.71 28.48
  A 4.65 4.65 0.0 0 1 124.36 33.13
  Z
  M 116.19 32.36
  Q 115.96 32.54 115.79 32.95
  A 0.76 0.75 46.6 0 0 115.78 33.54
  C 117.06 36.87 120.81 38.01 122.95 34.49
  A 1.90 1.84 61.8 0 0 123.23 33.50
  C 123.21 29.03 117.83 28.57 116.36 32.15
  A 0.56 0.50 87.0 0 1 116.19 32.36
  Z"
/>
<path fill="#333333" d="
  M 116.36 32.15
  C 117.83 28.57 123.21 29.03 123.23 33.50
  A 1.90 1.84 61.8 0 1 122.95 34.49
  C 120.81 38.01 117.06 36.87 115.78 33.54
  A 0.76 0.75 46.6 0 1 115.79 32.95
  Q 115.96 32.54 116.19 32.36
  A 0.56 0.50 87.0 0 0 116.36 32.15
  Z"
/>
<circle fill="#333333" cx="69.95" cy="38.44" r="3.63"/>
<circle fill="#333333" cx="36.26" cy="39.75" r="3.40"/>
<path fill="#020202" d="
  M 93.27 42.85
  A 5.95 5.95 0.0 0 1 87.32 48.80
  A 5.95 5.95 0.0 0 1 81.37 42.85
  A 5.95 5.95 0.0 0 1 87.32 36.90
  A 5.95 5.95 0.0 0 1 93.27 42.85
  Z
  M 92.11 42.85
  A 4.71 4.71 0.0 0 0 87.40 38.14
  A 4.71 4.71 0.0 0 0 82.69 42.85
  A 4.71 4.71 0.0 0 0 87.40 47.56
  A 4.71 4.71 0.0 0 0 92.11 42.85
  Z"
/>
<path fill="#020202" d="
  M 113.51 42.52
  A 5.91 5.91 0.0 0 1 107.60 48.43
  A 5.91 5.91 0.0 0 1 101.69 42.52
  A 5.91 5.91 0.0 0 1 107.60 36.61
  A 5.91 5.91 0.0 0 1 113.51 42.52
  Z
  M 112.21 42.50
  A 4.65 4.65 0.0 0 0 107.56 37.85
  A 4.65 4.65 0.0 0 0 102.91 42.50
  A 4.65 4.65 0.0 0 0 107.56 47.15
  A 4.65 4.65 0.0 0 0 112.21 42.50
  Z"
/>
<circle fill="#333333" cx="20.65" cy="40.60" r="2.94"/>
<circle fill="#333333" cx="87.40" cy="42.85" r="4.71"/>
<circle fill="#333333" cx="107.56" cy="42.50" r="4.65"/>
<path fill="#020202" d="
  M 133.88 45.01
  A 5.26 5.26 0.0 0 1 128.62 50.27
  A 5.26 5.26 0.0 0 1 123.36 45.01
  A 5.26 5.26 0.0 0 1 128.62 39.75
  A 5.26 5.26 0.0 0 1 133.88 45.01
  Z
  M 132.6111 44.3868
  A 3.49 3.49 0.0 0 0 129.1272 40.8907
  L 128.3472 40.8893
  A 3.49 3.49 0.0 0 0 124.8511 44.3732
  L 124.8489 45.6132
  A 3.49 3.49 0.0 0 0 128.3328 49.1093
  L 129.1128 49.1107
  A 3.49 3.49 0.0 0 0 132.6089 45.6268
  L 132.6111 44.3868
  Z"
/>
<rect fill="#333333" x="-3.88" y="-4.11" transform="translate(128.73,45.00) rotate(0.1)" width="7.76" height="8.22" rx="3.49"/>
<circle fill="#f37721" cx="50.53" cy="53.79" r="9.80"/>
<circle fill="#333333" cx="29.31" cy="50.23" r="2.92"/>
<path fill="#020202" d="
  M 73.65 53.27
  A 4.55 4.55 0.0 0 1 69.10 57.82
  A 4.55 4.55 0.0 0 1 64.55 53.27
  A 4.55 4.55 0.0 0 1 69.10 48.72
  A 4.55 4.55 0.0 0 1 73.65 53.27
  Z
  M 72.52 53.26
  A 3.34 3.34 0.0 0 0 69.18 49.92
  A 3.34 3.34 0.0 0 0 65.84 53.26
  A 3.34 3.34 0.0 0 0 69.18 56.60
  A 3.34 3.34 0.0 0 0 72.52 53.26
  Z"
/>
<path fill="#020202" d="
  M 20.15 52.80
  A 3.72 3.72 0.0 0 1 16.43 56.52
  A 3.72 3.72 0.0 0 1 12.71 52.80
  A 3.72 3.72 0.0 0 1 16.43 49.08
  A 3.72 3.72 0.0 0 1 20.15 52.80
  Z
  M 14.97 50.46
  C 11.96 54.06 16.60 57.08 19.20 53.44
  A 1.05 1.03 -40.0 0 0 19.30 52.39
  Q 18.26 50.11 16.07 49.98
  A 1.33 1.32 -68.4 0 0 14.97 50.46
  Z"
/>
<path fill="#333333" d="
  M 16.07 49.98
  Q 18.26 50.11 19.30 52.39
  A 1.05 1.03 -40.0 0 1 19.20 53.44
  C 16.60 57.08 11.96 54.06 14.97 50.46
  A 1.33 1.32 -68.4 0 1 16.07 49.98
  Z"
/>
<circle fill="#333333" cx="69.18" cy="53.26" r="3.34"/>
<circle fill="#f37721" cx="98.37" cy="56.90" r="5.97"/>
<circle fill="#333333" cx="114.62" cy="56.20" r="3.67"/>
<circle fill="#333333" cx="130.77" cy="59.71" r="3.80"/>
<path fill="#020202" d="
  M 87.38 62.78
  A 4.99 4.99 0.0 0 1 82.39 67.77
  A 4.99 4.99 0.0 0 1 77.40 62.78
  A 4.99 4.99 0.0 0 1 82.39 57.79
  A 4.99 4.99 0.0 0 1 87.38 62.78
  Z
  M 81.0524 59.0290
  A 3.90 3.65 -111.0 0 0 79.0424 63.9780
  A 3.90 3.65 -111.0 0 0 83.8476 66.3110
  A 3.90 3.65 -111.0 0 0 85.8576 61.3620
  A 3.90 3.65 -111.0 0 0 81.0524 59.0290
  Z"
/>
<ellipse fill="#333333" cx="0.00" cy="0.00" transform="translate(82.45,62.67) rotate(-111.0)" rx="3.90" ry="3.65"/>
<path fill="#020202" d="
  M 35.37 66.26
  A 4.42 4.42 0.0 0 1 30.95 70.68
  A 4.42 4.42 0.0 0 1 26.53 66.26
  A 4.42 4.42 0.0 0 1 30.95 61.84
  A 4.42 4.42 0.0 0 1 35.37 66.26
  Z
  M 31.1655 62.7337
  A 3.30 3.10 -87.3 0 0 27.9134 65.8840
  A 3.30 3.10 -87.3 0 0 30.8545 69.3263
  A 3.30 3.10 -87.3 0 0 34.1066 66.1760
  A 3.30 3.10 -87.3 0 0 31.1655 62.7337
  Z"
/>
<path fill="#020202" d="
  M 21.63 69.70
  A 7.02 7.02 0.0 0 1 14.61 76.72
  A 7.02 7.02 0.0 0 1 7.59 69.70
  A 7.02 7.02 0.0 0 1 14.61 62.68
  A 7.02 7.02 0.0 0 1 21.63 69.70
  Z
  M 20.32 69.01
  A 4.87 4.87 0.0 0 0 15.45 64.14
  L 13.77 64.14
  A 4.87 4.87 0.0 0 0 8.90 69.01
  L 8.90 70.41
  A 4.87 4.87 0.0 0 0 13.77 75.28
  L 15.45 75.28
  A 4.87 4.87 0.0 0 0 20.32 70.41
  L 20.32 69.01
  Z"
/>
<ellipse fill="#333333" cx="0.00" cy="0.00" transform="translate(31.01,66.03) rotate(-87.3)" rx="3.30" ry="3.10"/>
<rect fill="#333333" x="8.90" y="64.14" width="11.42" height="11.14" rx="4.87"/>
<path fill="#020202" d="
  M 116.60 72.02
  A 4.14 4.14 0.0 0 1 112.46 76.16
  A 4.14 4.14 0.0 0 1 108.32 72.02
  A 4.14 4.14 0.0 0 1 112.46 67.88
  A 4.14 4.14 0.0 0 1 116.60 72.02
  Z
  M 112.4003 68.7802
  A 3.25 2.67 -90.7 0 0 109.7702 72.0626
  A 3.25 2.67 -90.7 0 0 112.4797 75.2798
  A 3.25 2.67 -90.7 0 0 115.1098 71.9974
  A 3.25 2.67 -90.7 0 0 112.4003 68.7802
  Z"
/>
<path fill="#020202" d="
  M 137.47 74.49
  A 6.75 6.75 0.0 0 1 130.72 81.24
  A 6.75 6.75 0.0 0 1 123.97 74.49
  A 6.75 6.75 0.0 0 1 130.72 67.74
  A 6.75 6.75 0.0 0 1 137.47 74.49
  Z
  M 136.22 74.48
  A 5.56 5.56 0.0 0 0 130.66 68.92
  A 5.56 5.56 0.0 0 0 125.10 74.48
  A 5.56 5.56 0.0 0 0 130.66 80.04
  A 5.56 5.56 0.0 0 0 136.22 74.48
  Z"
/>
<circle fill="#333333" cx="68.92" cy="71.81" r="3.61"/>
<circle fill="#020202" cx="100.79" cy="70.86" r="2.65"/>
<ellipse fill="#333333" cx="0.00" cy="0.00" transform="translate(112.44,72.03) rotate(-90.7)" rx="3.25" ry="2.67"/>
<circle fill="#333333" cx="130.66" cy="74.48" r="5.56"/>
<path fill="#020202" d="
  M 48.29 73.89
  A 4.07 4.07 0.0 0 1 44.22 77.96
  A 4.07 4.07 0.0 0 1 40.15 73.89
  A 4.07 4.07 0.0 0 1 44.22 69.82
  A 4.07 4.07 0.0 0 1 48.29 73.89
  Z
  M 44.87 70.87
  Q 44.70 70.69 44.35 70.57
  A 0.65 0.64 -47.0 0 0 43.85 70.59
  C 41.09 71.85 40.32 75.10 43.42 76.73
  A 1.62 1.56 -31.8 0 0 44.28 76.91
  C 48.07 76.66 48.17 72.06 45.06 71.01
  A 0.48 0.43 -6.6 0 1 44.87 70.87
  Z"
/>
<path fill="#333333" d="
  M 44.87 70.87
  A 0.48 0.43 -6.6 0 0 45.06 71.01
  C 48.17 72.06 48.07 76.66 44.28 76.91
  A 1.62 1.56 -31.8 0 1 43.42 76.73
  C 40.32 75.10 41.09 71.85 43.85 70.59
  A 0.65 0.64 -47.0 0 1 44.35 70.57
  Q 44.70 70.69 44.87 70.87
  Z"
/>
<circle fill="#f37721" cx="88.65" cy="85.59" r="12.93"/>
<path fill="#020202" d="
  M 65.77 81.09
  A 6.35 6.35 0.0 0 1 59.42 87.44
  A 6.35 6.35 0.0 0 1 53.07 81.09
  A 6.35 6.35 0.0 0 1 59.42 74.74
  A 6.35 6.35 0.0 0 1 65.77 81.09
  Z
  M 64.6694 81.1826
  A 5.26 5.00 0.9 0 0 59.4885 76.1006
  A 5.26 5.00 0.9 0 0 54.1506 81.0174
  A 5.26 5.00 0.9 0 0 59.3315 86.0994
  A 5.26 5.00 0.9 0 0 64.6694 81.1826
  Z"
/>
<ellipse fill="#333333" cx="0.00" cy="0.00" transform="translate(59.41,81.10) rotate(0.9)" rx="5.26" ry="5.00"/>
<circle fill="#020202" cx="31.75" cy="81.74" r="2.53"/>
<path fill="#020202" d="
  M 119.75 87.50
  A 5.47 5.47 0.0 0 1 114.28 92.97
  A 5.47 5.47 0.0 0 1 108.81 87.50
  A 5.47 5.47 0.0 0 1 114.28 82.03
  A 5.47 5.47 0.0 0 1 119.75 87.50
  Z
  M 113.2082 83.2147
  A 4.41 4.26 -104.2 0 0 110.1602 88.5350
  A 4.41 4.26 -104.2 0 0 115.3718 91.7653
  A 4.41 4.26 -104.2 0 0 118.4198 86.4450
  A 4.41 4.26 -104.2 0 0 113.2082 83.2147
  Z"
/>
<ellipse fill="#333333" cx="0.00" cy="0.00" transform="translate(114.29,87.49) rotate(-104.2)" rx="4.41" ry="4.26"/>
<path fill="#020202" d="
  M 23.24 89.36
  A 5.49 5.49 0.0 0 1 17.75 94.85
  A 5.49 5.49 0.0 0 1 12.26 89.36
  A 5.49 5.49 0.0 0 1 17.75 83.87
  A 5.49 5.49 0.0 0 1 23.24 89.36
  Z
  M 17.27 85.07
  Q 17.25 85.01 17.22 84.93
  A 0.46 0.05 -16.9 0 0 16.77 85.01
  Q 13.77 85.94 13.48 88.79
  C 12.86 94.86 22.16 95.15 22.04 89.79
  Q 21.94 84.93 17.48 85.11
  A 0.23 0.06 -4.3 0 1 17.27 85.07
  Z"
/>
<path fill="#020202" d="
  M 47.29 89.08
  A 4.09 4.09 0.0 0 1 43.20 93.17
  A 4.09 4.09 0.0 0 1 39.11 89.08
  A 4.09 4.09 0.0 0 1 43.20 84.99
  A 4.09 4.09 0.0 0 1 47.29 89.08
  Z
  M 46.21 89.07
  A 2.95 2.95 0.0 0 0 43.26 86.12
  A 2.95 2.95 0.0 0 0 40.31 89.07
  A 2.95 2.95 0.0 0 0 43.26 92.02
  A 2.95 2.95 0.0 0 0 46.21 89.07
  Z"
/>
<path fill="#333333" d="
  M 17.48 85.11
  Q 21.94 84.93 22.04 89.79
  C 22.16 95.15 12.86 94.86 13.48 88.79
  Q 13.77 85.94 16.77 85.01
  A 0.46 0.05 -16.9 0 1 17.22 84.93
  Q 17.25 85.01 17.27 85.07
  A 0.23 0.06 -4.3 0 0 17.48 85.11
  Z"
/>
<circle fill="#333333" cx="43.26" cy="89.07" r="2.95"/>
<circle fill="#020202" cx="128.65" cy="90.62" r="2.53"/>
<circle fill="#020202" cx="67.18" cy="97.58" r="2.56"/>
<path fill="#020202" d="
  M 131.62 103.19
  A 6.49 6.49 0.0 0 1 125.13 109.68
  A 6.49 6.49 0.0 0 1 118.64 103.19
  A 6.49 6.49 0.0 0 1 125.13 96.70
  A 6.49 6.49 0.0 0 1 131.62 103.19
  Z
  M 130.44 103.21
  A 5.26 5.26 0.0 0 0 125.18 97.95
  A 5.26 5.26 0.0 0 0 119.92 103.21
  A 5.26 5.26 0.0 0 0 125.18 108.47
  A 5.26 5.26 0.0 0 0 130.44 103.21
  Z"
/>
<path fill="#020202" d="
  M 111.41 102.42
  A 4.20 4.20 0.0 0 1 107.21 106.62
  A 4.20 4.20 0.0 0 1 103.01 102.42
  A 4.20 4.20 0.0 0 1 107.21 98.22
  A 4.20 4.20 0.0 0 1 111.41 102.42
  Z
  M 109.91 103.77
  L 109.85 100.85
  A 1.23 1.23 0.0 0 0 108.59 99.64
  L 107.16 99.67
  A 3.32 2.62 -1.2 0 0 103.90 102.36
  L 103.90 102.50
  A 3.32 2.62 -1.2 0 0 107.28 105.05
  L 108.71 105.02
  A 1.23 1.23 0.0 0 0 109.91 103.77
  Z"
/>
<circle fill="#333333" cx="125.18" cy="103.21" r="5.26"/>
<path fill="#020202" d="
  M 30.53 104.43
  A 5.45 5.45 0.0 0 1 25.08 109.88
  A 5.45 5.45 0.0 0 1 19.63 104.43
  A 5.45 5.45 0.0 0 1 25.08 98.98
  A 5.45 5.45 0.0 0 1 30.53 104.43
  Z
  M 23.9538 99.9890
  A 4.47 4.18 -103.8 0 0 20.9607 105.3271
  A 4.47 4.18 -103.8 0 0 26.0862 108.6710
  A 4.47 4.18 -103.8 0 0 29.0793 103.3329
  A 4.47 4.18 -103.8 0 0 23.9538 99.9890
  Z"
/>
<path fill="#333333" d="
  M 109.91 103.77
  A 1.23 1.23 0.0 0 1 108.71 105.02
  L 107.28 105.05
  A 3.32 2.62 -1.2 0 1 103.90 102.50
  L 103.90 102.36
  A 3.32 2.62 -1.2 0 1 107.16 99.67
  L 108.59 99.64
  A 1.23 1.23 0.0 0 1 109.85 100.85
  L 109.91 103.77
  Z"
/>
<ellipse fill="#333333" cx="0.00" cy="0.00" transform="translate(25.02,104.33) rotate(-103.8)" rx="4.47" ry="4.18"/>
<path fill="#020202" d="
  M 51.38 105.93
  A 5.63 5.63 0.0 0 1 45.75 111.56
  A 5.63 5.63 0.0 0 1 40.12 105.93
  A 5.63 5.63 0.0 0 1 45.75 100.30
  A 5.63 5.63 0.0 0 1 51.38 105.93
  Z
  M 41.2389 106.2238
  A 4.52 4.38 -183.6 0 0 46.0250 110.3114
  A 4.52 4.38 -183.6 0 0 50.2611 105.6562
  A 4.52 4.38 -183.6 0 0 45.4750 101.5686
  A 4.52 4.38 -183.6 0 0 41.2389 106.2238
  Z"
/>
<ellipse fill="#333333" cx="0.00" cy="0.00" transform="translate(45.75,105.94) rotate(-183.6)" rx="4.52" ry="4.38"/>
<path fill="#020202" d="
  M 80.81 106.81
  A 4.60 4.60 0.0 0 1 76.21 111.41
  A 4.60 4.60 0.0 0 1 71.61 106.81
  A 4.60 4.60 0.0 0 1 76.21 102.21
  A 4.60 4.60 0.0 0 1 80.81 106.81
  Z
  M 79.68 106.82
  A 3.40 3.40 0.0 0 0 76.28 103.42
  A 3.40 3.40 0.0 0 0 72.88 106.82
  A 3.40 3.40 0.0 0 0 76.28 110.22
  A 3.40 3.40 0.0 0 0 79.68 106.82
  Z"
/>
<path fill="#020202" d="
  M 66.43 108.15
  A 5.17 5.17 0.0 0 1 61.26 113.32
  A 5.17 5.17 0.0 0 1 56.09 108.15
  A 5.17 5.17 0.0 0 1 61.26 102.98
  A 5.17 5.17 0.0 0 1 66.43 108.15
  Z
  M 65.25 108.16
  A 4.03 4.03 0.0 0 0 61.22 104.13
  A 4.03 4.03 0.0 0 0 57.19 108.16
  A 4.03 4.03 0.0 0 0 61.22 112.19
  A 4.03 4.03 0.0 0 0 65.25 108.16
  Z"
/>
<circle fill="#333333" cx="76.28" cy="106.82" r="3.40"/>
<circle fill="#333333" cx="61.22" cy="108.16" r="4.03"/>
<path fill="#020202" d="
  M 86.12 114.71
  Q 90.54 118.62 92.47 118.10
  Q 97.18 116.84 96.86 112.42
  A 2.62 2.43 -61.4 0 0 96.62 111.48
  C 94.71 107.36 89.46 107.10 87.43 111.29
  A 0.56 0.56 0.0 0 1 86.62 111.51
  Q 86.47 111.40 86.33 110.92
  A 6.02 5.98 -3.9 0 1 89.03 107.85
  A 6.03 6.03 0.0 0 1 96.86 109.63
  A 6.04 6.04 0.0 0 1 95.23 118.20
  A 6.04 6.04 0.0 0 1 86.12 114.71
  Z"
/>
<path fill="#333333" d="
  M 86.12 114.71
  A 6.06 6.06 0.0 0 1 86.33 110.92
  Q 86.47 111.40 86.62 111.51
  A 0.56 0.56 0.0 0 0 87.43 111.29
  C 89.46 107.10 94.71 107.36 96.62 111.48
  A 2.62 2.43 -61.4 0 1 96.86 112.42
  Q 97.18 116.84 92.47 118.10
  Q 90.54 118.62 86.12 114.71
  Z"
/>
<circle fill="#333333" cx="33.01" cy="117.82" r="3.11"/>
<path fill="#020202" d="
  M 80.38 120.63
  A 5.15 5.15 0.0 0 1 75.23 125.78
  A 5.15 5.15 0.0 0 1 70.08 120.63
  A 5.15 5.15 0.0 0 1 75.23 115.48
  A 5.15 5.15 0.0 0 1 80.38 120.63
  Z
  M 79.24 120.67
  A 4.01 4.01 0.0 0 0 75.23 116.66
  A 4.01 4.01 0.0 0 0 71.22 120.67
  A 4.01 4.01 0.0 0 0 75.23 124.68
  A 4.01 4.01 0.0 0 0 79.24 120.67
  Z"
/>
<circle fill="#333333" cx="75.23" cy="120.67" r="4.01"/>
<path fill="#020202" d="
  M 53.93 124.28
  A 5.50 5.50 0.0 0 1 48.43 129.78
  A 5.50 5.50 0.0 0 1 42.93 124.28
  A 5.50 5.50 0.0 0 1 48.43 118.78
  A 5.50 5.50 0.0 0 1 53.93 124.28
  Z
  M 52.96 124.30
  A 4.49 4.49 0.0 0 0 48.47 119.81
  A 4.49 4.49 0.0 0 0 43.98 124.30
  A 4.49 4.49 0.0 0 0 48.47 128.79
  A 4.49 4.49 0.0 0 0 52.96 124.30
  Z"
/>
<circle fill="#333333" cx="48.47" cy="124.30" r="4.49"/>
<path fill="#020202" d="
  M 106.02 124.83
  A 4.68 4.68 0.0 0 1 101.34 129.51
  A 4.68 4.68 0.0 0 1 96.66 124.83
  A 4.68 4.68 0.0 0 1 101.34 120.15
  A 4.68 4.68 0.0 0 1 106.02 124.83
  Z
  M 105.0337 125.0112
  A 3.03 3.03 0.0 0 0 102.4969 121.5578
  L 101.5875 121.4186
  A 3.03 3.03 0.0 0 0 98.1340 123.9554
  L 98.0463 124.5288
  A 3.03 3.03 0.0 0 0 100.5831 127.9822
  L 101.4925 128.1214
  A 3.03 3.03 0.0 0 0 104.9460 125.5846
  L 105.0337 125.0112
  Z"
/>
<rect fill="#333333" x="-3.49" y="-3.32" transform="translate(101.54,124.77) rotate(8.7)" width="6.98" height="6.64" rx="3.03"/>
<path fill="#020202" d="
  M 69.74 130.82
  A 5.17 5.17 0.0 0 1 64.57 135.99
  A 5.17 5.17 0.0 0 1 59.40 130.82
  A 5.17 5.17 0.0 0 1 64.57 125.65
  A 5.17 5.17 0.0 0 1 69.74 130.82
  Z
  M 63.0419 126.9559
  A 4.15 3.96 -112.5 0 0 60.9714 132.3054
  A 4.15 3.96 -112.5 0 0 66.2181 134.6241
  A 4.15 3.96 -112.5 0 0 68.2886 129.2746
  A 4.15 3.96 -112.5 0 0 63.0419 126.9559
  Z"
/>
<ellipse fill="#333333" cx="0.00" cy="0.00" transform="translate(64.63,130.79) rotate(-112.5)" rx="4.15" ry="3.96"/>
<path fill="#020202" d="
  M 87.85 131.48
  A 3.81 3.81 0.0 0 1 84.04 135.29
  A 3.81 3.81 0.0 0 1 80.23 131.48
  A 3.81 3.81 0.0 0 1 84.04 127.67
  A 3.81 3.81 0.0 0 1 87.85 131.48
  Z
  M 86.80 131.45
  A 2.69 2.69 0.0 0 0 84.11 128.76
  A 2.69 2.69 0.0 0 0 81.42 131.45
  A 2.69 2.69 0.0 0 0 84.11 134.14
  A 2.69 2.69 0.0 0 0 86.80 131.45
  Z"
/>
<circle fill="#333333" cx="84.11" cy="131.45" r="2.69"/>
</svg>