<?xml version="1.0" encoding="UTF-8" standalone="no"?>
<!DOCTYPE svg PUBLIC "-//W3C//DTD SVG 1.1//EN" "http://www.w3.org/Graphics/SVG/1.1/DTD/svg11.dtd">
<svg xmlns="http://www.w3.org/2000/svg" version="1.1" viewBox="0.00 0.00 180.00 180.00" width="128" height="128">
<g stroke-width="2.00" fill="none" stroke-linecap="butt">
<path stroke="#9dafdf" vector-effect="non-scaling-stroke" d="
  M 64.10 154.26
  L 114.31 93.46
  A 0.28 0.27 -70.2 0 0 114.10 93.01
  L 99.54 93.01
  A 0.86 0.84 8.9 0 0 98.73 93.59
  C 94.89 105.35 77.83 103.38 77.21 90.96
  C 76.95 85.63 80.67 80.73 85.74 79.72
  C 90.50 78.77 96.65 80.97 98.36 86.25
  Q 98.68 87.25 98.75 87.37
  A 0.89 0.88 75.9 0 0 99.53 87.84
  L 118.44 87.86
  A 1.07 1.06 -70.1 0 0 119.26 87.47
  L 134.08 69.52
  A 0.24 0.24 0.0 0 0 133.90 69.13
  L 95.78 69.13
  A 0.19 0.19 0.0 0 1 95.60 68.88
  L 111.12 26.67
  A 0.49 0.48 10.0 0 0 110.66 26.02
  L 57.70 26.02
  A 0.41 0.40 3.1 0 0 57.29 26.38
  L 54.63 47.69
  A 0.45 0.44 3.9 0 0 55.08 48.19
  L 65.81 48.19
  A 0.77 0.76 8.8 0 0 66.54 47.66
  C 69.40 38.84 80.44 37.10 85.98 44.31
  C 92.78 53.17 83.12 65.13 72.97 61.04
  Q 68.33 59.18 66.49 53.88
  A 0.81 0.80 80.3 0 0 65.73 53.34
  L 54.54 53.34
  A 0.72 0.71 3.1 0 0 53.83 53.97
  L 46.64 111.48
  A 0.44 0.44 0.0 0 0 47.08 111.97
  L 78.97 111.97
  A 0.31 0.30 9.7 0 1 79.27 112.38
  L 63.91 154.15
  A 0.11 0.11 0.0 0 0 64.10 154.26"
/>
<path stroke="#9dafdf" vector-effect="non-scaling-stroke" d="
  M 83.02 50.85
  A 5.89 5.89 0.0 0 0 77.13 44.96
  A 5.89 5.89 0.0 0 0 71.24 50.85
  A 5.89 5.89 0.0 0 0 77.13 56.74
  A 5.89 5.89 0.0 0 0 83.02 50.85"
/>
<path stroke="#9dafdf" vector-effect="non-scaling-stroke" d="
  M 94.10 90.45
  A 5.89 5.89 0.0 0 0 88.21 84.56
  A 5.89 5.89 0.0 0 0 82.32 90.45
  A 5.89 5.89 0.0 0 0 88.21 96.34
  A 5.89 5.89 0.0 0 0 94.10 90.45"
/>
</g>
<path fill="#ffffff" d="
  M 180.00 0.00
  L 180.00 180.00
  L 0.00 180.00
  L 0.00 0.00
  L 180.00 0.00
  Z
  M 64.10 154.26
  L 114.31 93.46
  A 0.28 0.27 -70.2 0 0 114.10 93.01
  L 99.54 93.01
  A 0.86 0.84 8.9 0 0 98.73 93.59
  C 94.89 105.35 77.83 103.38 77.21 90.96
  C 76.95 85.63 80.67 80.73 85.74 79.72
  C 90.50 78.77 96.65 80.97 98.36 86.25
  Q 98.68 87.25 98.75 87.37
  A 0.89 0.88 75.9 0 0 99.53 87.84
  L 118.44 87.86
  A 1.07 1.06 -70.1 0 0 119.26 87.47
  L 134.08 69.52
  A 0.24 0.24 0.0 0 0 133.90 69.13
  L 95.78 69.13
  A 0.19 0.19 0.0 0 1 95.60 68.88
  L 111.12 26.67
  A 0.49 0.48 10.0 0 0 110.66 26.02
  L 57.70 26.02
  A 0.41 0.40 3.1 0 0 57.29 26.38
  L 54.63 47.69
  A 0.45 0.44 3.9 0 0 55.08 48.19
  L 65.81 48.19
  A 0.77 0.76 8.8 0 0 66.54 47.66
  C 69.40 38.84 80.44 37.10 85.98 44.31
  C 92.78 53.17 83.12 65.13 72.97 61.04
  Q 68.33 59.18 66.49 53.88
  A 0.81 0.80 80.3 0 0 65.73 53.34
  L 54.54 53.34
  A 0.72 0.71 3.1 0 0 53.83 53.97
  L 46.64 111.48
  A 0.44 0.44 0.0 0 0 47.08 111.97
  L 78.97 111.97
  A 0.31 0.30 9.7 0 1 79.27 112.38
  L 63.91 154.15
  A 0.11 0.11 0.0 0 0 64.10 154.26
  Z
  M 83.02 50.85
  A 5.89 5.89 0.0 0 0 77.13 44.96
  A 5.89 5.89 0.0 0 0 71.24 50.85
  A 5.89 5.89 0.0 0 0 77.13 56.74
  A 5.89 5.89 0.0 0 0 83.02 50.85
  Z
  M 94.10 90.45
  A 5.89 5.89 0.0 0 0 88.21 84.56
  A 5.89 5.89 0.0 0 0 82.32 90.45
  A 5.89 5.89 0.0 0 0 88.21 96.34
  A 5.89 5.89 0.0 0 0 94.10 90.45
  Z"
/>
<path fill="#3b5fbf" d="
  M 64.10 154.26
  A 0.11 0.11 0.0 0 1 63.91 154.15
  L 79.27 112.38
  A 0.31 0.30 9.7 0 0 78.97 111.97
  L 47.08 111.97
  A 0.44 0.44 0.0 0 1 46.64 111.48
  L 53.83 53.97
  A 0.72 0.71 3.1 0 1 54.54 53.34
  L 65.73 53.34
  A 0.81 0.80 80.3 0 1 66.49 53.88
  Q 68.33 59.18 72.97 61.04
  C 83.12 65.13 92.78 53.17 85.98 44.31
  C 80.44 37.10 69.40 38.84 66.54 47.66
  A 0.77 0.76 8.8 0 1 65.81 48.19
  L 55.08 48.19
  A 0.45 0.44 3.9 0 1 54.63 47.69
  L 57.29 26.38
  A 0.41 0.40 3.1 0 1 57.70 26.02
  L 110.66 26.02
  A 0.49 0.48 10.0 0 1 111.12 26.67
  L 95.60 68.88
  A 0.19 0.19 0.0 0 0 95.78 69.13
  L 133.90 69.13
  A 0.24 0.24 0.0 0 1 134.08 69.52
  L 119.26 87.47
  A 1.07 1.06 -70.1 0 1 118.44 87.86
  L 99.53 87.84
  A 0.89 0.88 75.9 0 1 98.75 87.37
  Q 98.68 87.25 98.36 86.25
  C 96.65 80.97 90.50 78.77 85.74 79.72
  C 80.67 80.73 76.95 85.63 77.21 90.96
  C 77.83 103.38 94.89 105.35 98.73 93.59
  A 0.86 0.84 8.9 0 1 99.54 93.01
  L 114.10 93.01
  A 0.28 0.27 -70.2 0 1 114.31 93.46
  L 64.10 154.26
  Z"
/>
<circle fill="#3b5fbf" cx="77.13" cy="50.85" r="5.89"/>
<circle fill="#3b5fbf" cx="88.21" cy="90.45" r="5.89"/>
</svg>