<?xml version="1.0" encoding="UTF-8" standalone="no"?>
<!DOCTYPE svg PUBLIC "-//W3C//DTD SVG 1.1//EN" "http://www.w3.org/Graphics/SVG/1.1/DTD/svg11.dtd">
<svg xmlns="http://www.w3.org/2000/svg" version="1.1" viewBox="0.00 0.00 256.00 256.00" width="128" height="128">
<g stroke-width="2.00" fill="none" stroke-linecap="butt">
<path stroke="#96caba" vector-effect="non-scaling-stroke" d="
  M 256.00 59.62
  L 0.00 59.61"
/>
<path stroke="#96caba" vector-effect="non-scaling-stroke" d="
  M 256.00 72.00
  L 0.00 72.00"
/>
<path stroke="#729794" vector-effect="non-scaling-stroke" d="
  M 99.04 101.90
  A 0.62 0.62 0.0 0 0 98.42 101.28
  L 62.82 101.28
  A 0.62 0.62 0.0 0 0 62.20 101.90
  L 62.20 137.50
  A 0.62 0.62 0.0 0 0 62.82 138.12
  L 98.42 138.12
  A 0.62 0.62 0.0 0 0 99.04 137.50
  L 99.04 101.90"
/>
<path stroke="#729794" vector-effect="non-scaling-stroke" d="
  M 146.44 101.73
  A 0.45 0.45 0.0 0 0 145.99 101.28
  L 110.05 101.28
  A 0.45 0.45 0.0 0 0 109.60 101.73
  L 109.60 137.67
  A 0.45 0.45 0.0 0 0 110.05 138.12
  L 145.99 138.12
  A 0.45 0.45 0.0 0 0 146.44 137.67
  L 146.44 101.73"
/>
<path stroke="#729794" vector-effect="non-scaling-stroke" d="
  M 193.80 101.80
  A 0.52 0.52 0.0 0 0 193.28 101.28
  L 157.48 101.28
  A 0.52 0.52 0.0 0 0 156.96 101.80
  L 156.96 137.60
  A 0.52 0.52 0.0 0 0 157.48 138.12
  L 193.28 138.12
  A 0.52 0.52 0.0 0 0 193.80 137.60
  L 193.80 101.80"
/>
<path stroke="#729794" vector-effect="non-scaling-stroke" d="
  M 241.21 101.77
  A 0.46 0.46 0.0 0 0 240.75 101.31
  L 204.89 101.31
  A 0.46 0.46 0.0 0 0 204.43 101.77
  L 204.43 137.63
  A 0.46 0.46 0.0 0 0 204.89 138.09
  L 240.75 138.09
  A 0.46 0.46 0.0 0 0 241.21 137.63
  L 241.21 101.77"
/>
<path stroke="#729794" vector-effect="non-scaling-stroke" d="
  M 51.64 148.95
  A 0.49 0.49 0.0 0 0 51.15 148.46
  L 15.29 148.46
  A 0.49 0.49 0.0 0 0 14.80 148.95
  L 14.80 184.81
  A 0.49 0.49 0.0 0 0 15.29 185.30
  L 51.15 185.30
  A 0.49 0.49 0.0 0 0 51.64 184.81
  L 51.64 148.95"
/>
<path stroke="#729794" vector-effect="non-scaling-stroke" d="
  M 99.10 149.01
  A 0.60 0.60 0.0 0 0 98.50 148.41
  L 62.78 148.41
  A 0.60 0.60 0.0 0 0 62.18 149.01
  L 62.18 184.73
  A 0.60 0.60 0.0 0 0 62.78 185.33
  L 98.50 185.33
  A 0.60 0.60 0.0 0 0 99.10 184.73
  L 99.10 149.01"
/>
<path stroke="#729794" vector-effect="non-scaling-stroke" d="
  M 146.4386 148.8678
  A 0.48 0.48 0.0 0 0 145.9578 148.3887
  L 110.0178 148.4514
  A 0.48 0.48 0.0 0 0 109.5387 148.9322
  L 109.6014 184.8722
  A 0.48 0.48 0.0 0 0 110.0822 185.3513
  L 146.0222 185.2886
  A 0.48 0.48 0.0 0 0 146.5013 184.8078
  L 146.4386 148.8678"
/>
<path stroke="#86a1a3" vector-effect="non-scaling-stroke" d="
  M 193.82 148.90
  A 0.47 0.47 0.0 0 0 193.35 148.43
  L 157.41 148.43
  A 0.47 0.47 0.0 0 0 156.94 148.90
  L 156.94 184.84
  A 0.47 0.47 0.0 0 0 157.41 185.31
  L 193.35 185.31
  A 0.47 0.47 0.0 0 0 193.82 184.84
  L 193.82 148.90"
/>
<path stroke="#729794" vector-effect="non-scaling-stroke" d="
  M 241.25 148.91
  A 0.46 0.46 0.0 0 0 240.79 148.45
  L 204.89 148.45
  A 0.46 0.46 0.0 0 0 204.43 148.91
  L 204.43 184.81
  A 0.46 0.46 0.0 0 0 204.89 185.27
  L 240.79 185.27
  A 0.46 0.46 0.0 0 0 241.25 184.81
  L 241.25 148.91"
/>
<path stroke="#729794" vector-effect="non-scaling-stroke" d="
  M 51.6312 196.1522
  A 0.51 0.51 0.0 0 0 51.1221 195.6413
  L 15.3022 195.5788
  A 0.51 0.51 0.0 0 0 14.7913 196.0879
  L 14.7288 231.9078
  A 0.51 0.51 0.0 0 0 15.2379 232.4187
  L 51.0578 232.4812
  A 0.51 0.51 0.0 0 0 51.5687 231.9721
  L 51.6312 196.1522"
/>
<path stroke="#86a1a3" vector-effect="non-scaling-stroke" d="
  M 99.1013 196.0822
  A 0.49 0.49 0.0 0 0 98.6122 195.5914
  L 62.6922 195.5287
  A 0.49 0.49 0.0 0 0 62.2014 196.0178
  L 62.1387 231.9378
  A 0.49 0.49 0.0 0 0 62.6278 232.4286
  L 98.5478 232.4913
  A 0.49 0.49 0.0 0 0 99.0386 232.0022
  L 99.1013 196.0822"
/>
<path stroke="#729794" vector-effect="non-scaling-stroke" d="
  M 146.4913 196.1322
  A 0.51 0.51 0.0 0 0 145.9822 195.6213
  L 110.1022 195.5587
  A 0.51 0.51 0.0 0 0 109.5913 196.0678
  L 109.5287 231.9478
  A 0.51 0.51 0.0 0 0 110.0378 232.4587
  L 145.9178 232.5213
  A 0.51 0.51 0.0 0 0 146.4287 232.0122
  L 146.4913 196.1322"
/>
<path stroke="#729794" vector-effect="non-scaling-stroke" d="
  M 193.82 196.09
  A 0.50 0.50 0.0 0 0 193.32 195.59
  L 157.44 195.59
  A 0.50 0.50 0.0 0 0 156.94 196.09
  L 156.94 231.97
  A 0.50 0.50 0.0 0 0 157.44 232.47
  L 193.32 232.47
  A 0.50 0.50 0.0 0 0 193.82 231.97
  L 193.82 196.09"
/>
</g>
<path fill="#616e7d" d="
  M 64.60 0.00
  L 64.57 43.70
  A 0.55 0.54 0.0 0 1 64.02 44.24
  L 50.50 44.24
  A 0.59 0.59 0.0 0 1 49.91 43.66
  L 49.90 0.00
  L 64.60 0.00
  Z"
/>
<path fill="#616e7d" d="
  M 206.10 0.00
  L 206.08 43.69
  A 0.56 0.56 0.0 0 1 205.52 44.25
  L 192.00 44.25
  A 0.58 0.58 0.0 0 1 191.42 43.67
  L 191.40 0.00
  L 206.10 0.00
  Z"
/>
<path fill="#aad4c8" d="
  M 256.00 36.51
  L 256.00 59.62
  L 0.00 59.61
  L 0.00 36.50
  C 1.49 30.02 3.69 24.99 9.84 22.13
  Q 12.98 20.67 18.40 20.69
  Q 39.79 20.80 42.19 20.75
  A 0.59 0.59 0.0 0 1 42.79 21.33
  Q 42.82 22.87 42.79 43.06
  Q 42.78 50.27 48.13 52.02
  A 4.22 4.09 53.1 0 0 49.52 52.24
  Q 61.10 52.19 63.02 52.30
  Q 67.70 52.57 70.20 49.28
  Q 71.71 47.30 71.68 41.42
  Q 71.60 25.69 71.64 21.13
  A 0.38 0.38 0.0 0 1 72.02 20.75
  L 184.02 20.75
  A 0.36 0.36 0.0 0 1 184.38 21.11
  Q 184.42 36.00 184.36 42.27
  C 184.32 47.23 185.34 50.67 189.92 52.10
  A 3.53 3.36 -35.1 0 0 190.93 52.25
  Q 200.40 52.23 202.86 52.28
  Q 208.16 52.40 209.50 51.38
  C 212.23 49.31 213.19 47.17 213.18 43.48
  Q 213.18 36.82 213.18 21.10
  A 0.32 0.32 0.0 0 1 213.50 20.78
  Q 224.31 20.73 240.25 20.76
  C 249.00 20.78 254.82 28.30 256.00 36.51
  Z"
/>
<path fill="#82bfab" d="
  M 256.00 59.62
  L 256.00 72.00
  L 0.00 72.00
  L 0.00 59.61
  L 256.00 59.62
  Z"
/>
<path fill="#aad4c8" d="
  M 256.00 72.00
  L 256.00 82.62
  L 0.00 82.63
  L 0.00 72.00
  L 256.00 72.00
  Z"
/>
<path fill="#616e7d" d="
  M 256.00 89.13
  L 256.00 239.92
  Q 254.05 253.06 242.05 256.00
  L 14.06 256.00
  Q 2.38 253.35 0.00 240.43
  L 0.00 89.13
  L 256.00 89.13
  Z
  M 99.04 101.90
  A 0.62 0.62 0.0 0 0 98.42 101.28
  L 62.82 101.28
  A 0.62 0.62 0.0 0 0 62.20 101.90
  L 62.20 137.50
  A 0.62 0.62 0.0 0 0 62.82 138.12
  L 98.42 138.12
  A 0.62 0.62 0.0 0 0 99.04 137.50
  L 99.04 101.90
  Z
  M 146.44 101.73
  A 0.45 0.45 0.0 0 0 145.99 101.28
  L 110.05 101.28
  A 0.45 0.45 0.0 0 0 109.60 101.73
  L 109.60 137.67
  A 0.45 0.45 0.0 0 0 110.05 138.12
  L 145.99 138.12
  A 0.45 0.45 0.0 0 0 146.44 137.67
  L 146.44 101.73
  Z
  M 193.80 101.80
  A 0.52 0.52 0.0 0 0 193.28 101.28
  L 157.48 101.28
  A 0.52 0.52 0.0 0 0 156.96 101.80
  L 156.96 137.60
  A 0.52 0.52 0.0 0 0 157.48 138.12
  L 193.28 138.12
  A 0.52 0.52 0.0 0 0 193.80 137.60
  L 193.80 101.80
  Z
  M 241.21 101.77
  A 0.46 0.46 0.0 0 0 240.75 101.31
  L 204.89 101.31
  A 0.46 0.46 0.0 0 0 204.43 101.77
  L 204.43 137.63
  A 0.46 0.46 0.0 0 0 204.89 138.09
  L 240.75 138.09
  A 0.46 0.46 0.0 0 0 241.21 137.63
  L 241.21 101.77
  Z
  M 51.64 148.95
  A 0.49 0.49 0.0 0 0 51.15 148.46
  L 15.29 148.46
  A 0.49 0.49 0.0 0 0 14.80 148.95
  L 14.80 184.81
  A 0.49 0.49 0.0 0 0 15.29 185.30
  L 51.15 185.30
  A 0.49 0.49 0.0 0 0 51.64 184.81
  L 51.64 148.95
  Z
  M 99.10 149.01
  A 0.60 0.60 0.0 0 0 98.50 148.41
  L 62.78 148.41
  A 0.60 0.60 0.0 0 0 62.18 149.01
  L 62.18 184.73
  A 0.60 0.60 0.0 0 0 62.78 185.33
  L 98.50 185.33
  A 0.60 0.60 0.0 0 0 99.10 184.73
  L 99.10 149.01
  Z
  M 146.4386 148.8678
  A 0.48 0.48 0.0 0 0 145.9578 148.3887
  L 110.0178 148.4514
  A 0.48 0.48 0.0 0 0 109.5387 148.9322
  L 109.6014 184.8722
  A 0.48 0.48 0.0 0 0 110.0822 185.3513
  L 146.0222 185.2886
  A 0.48 0.48 0.0 0 0 146.5013 184.8078
  L 146.4386 148.8678
  Z
  M 193.82 148.90
  A 0.47 0.47 0.0 0 0 193.35 148.43
  L 157.41 148.43
  A 0.47 0.47 0.0 0 0 156.94 148.90
  L 156.94 184.84
  A 0.47 0.47 0.0 0 0 157.41 185.31
  L 193.35 185.31
  A 0.47 0.47 0.0 0 0 193.82 184.84
  L 193.82 148.90
  Z
  M 241.25 148.91
  A 0.46 0.46 0.0 0 0 240.79 148.45
  L 204.89 148.45
  A 0.46 0.46 0.0 0 0 204.43 148.91
  L 204.43 184.81
  A 0.46 0.46 0.0 0 0 204.89 185.27
  L 240.79 185.27
  A 0.46 0.46 0.0 0 0 241.25 184.81
  L 241.25 148.91
  Z
  M 51.6312 196.1522
  A 0.51 0.51 0.0 0 0 51.1221 195.6413
  L 15.3022 195.5788
  A 0.51 0.51 0.0 0 0 14.7913 196.0879
  L 14.7288 231.9078
  A 0.51 0.51 0.0 0 0 15.2379 232.4187
  L 51.0578 232.4812
  A 0.51 0.51 0.0 0 0 51.5687 231.9721
  L 51.6312 196.1522
  Z
  M 99.1013 196.0822
  A 0.49 0.49 0.0 0 0 98.6122 195.5914
  L 62.6922 195.5287
  A 0.49 0.49 0.0 0 0 62.2014 196.0178
  L 62.1387 231.9378
  A 0.49 0.49 0.0 0 0 62.6278 232.4286
  L 98.5478 232.4913
  A 0.49 0.49 0.0 0 0 99.0386 232.0022
  L 99.1013 196.0822
  Z
  M 146.4913 196.1322
  A 0.51 0.51 0.0 0 0 145.9822 195.6213
  L 110.1022 195.5587
  A 0.51 0.51 0.0 0 0 109.5913 196.0678
  L 109.5287 231.9478
  A 0.51 0.51 0.0 0 0 110.0378 232.4587
  L 145.9178 232.5213
  A 0.51 0.51 0.0 0 0 146.4287 232.0122
  L 146.4913 196.1322
  Z
  M 193.82 196.09
  A 0.50 0.50 0.0 0 0 193.32 195.59
  L 157.44 195.59
  A 0.50 0.50 0.0 0 0 156.94 196.09
  L 156.94 231.97
  A 0.50 0.50 0.0 0 0 157.44 232.47
  L 193.32 232.47
  A 0.50 0.50 0.0 0 0 193.82 231.97
  L 193.82 196.09
  Z"
/>
<rect fill="#82bfab" x="62.20" y="101.28" width="36.84" height="36.84" rx="0.62"/>
<rect fill="#82bfab" x="109.60" y="101.28" width="36.84" height="36.84" rx="0.45"/>
<rect fill="#82bfab" x="156.96" y="101.28" width="36.84" height="36.84" rx="0.52"/>
<rect fill="#82bfab" x="204.43" y="101.31" width="36.78" height="36.78" rx="0.46"/>
<rect fill="#82bfab" x="14.80" y="148.46" width="36.84" height="36.84" rx="0.49"/>
<rect fill="#82bfab" x="62.18" y="148.41" width="36.92" height="36.92" rx="0.60"/>
<rect fill="#82bfab" x="-18.45" y="-18.45" transform="translate(128.02,166.87) rotate(-0.1)" width="36.90" height="36.90" rx="0.48"/>
<rect fill="#aad4c8" x="156.94" y="148.43" width="36.88" height="36.88" rx="0.47"/>
<rect fill="#82bfab" x="204.43" y="148.45" width="36.82" height="36.82" rx="0.46"/>
<rect fill="#82bfab" x="-18.42" y="-18.42" transform="translate(33.18,214.03) rotate(0.1)" width="36.84" height="36.84" rx="0.51"/>
<rect fill="#aad4c8" x="-18.45" y="-18.45" transform="translate(80.62,214.01) rotate(0.1)" width="36.90" height="36.90" rx="0.49"/>
<rect fill="#82bfab" x="-18.45" y="-18.45" transform="translate(128.01,214.04) rotate(0.1)" width="36.90" height="36.90" rx="0.51"/>
<rect fill="#82bfab" x="156.94" y="195.59" width="36.88" height="36.88" rx="0.50"/>
</svg>