<?xml version="1.0" encoding="UTF-8" standalone="no"?>
<!DOCTYPE svg PUBLIC "-//W3C//DTD SVG 1.1//EN" "http://www.w3.org/Graphics/SVG/1.1/DTD/svg11.dtd">
<svg xmlns="http://www.w3.org/2000/svg" version="1.1" viewBox="0.00 0.00 256.00 256.00" width="128" height="128">
<path fill="#417586" d="
  M 241.59 124.39
  A 113.59 113.59 0.0 0 1 128.00 237.98
  A 113.59 113.59 0.0 0 1 14.41 124.39
  A 113.59 113.59 0.0 0 1 128.00 10.80
  A 113.59 113.59 0.0 0 1 241.59 124.39
  Z
  M 230.29 124.39
  A 102.29 102.29 0.0 0 0 128.00 22.10
  A 102.29 102.29 0.0 0 0 25.71 124.39
  A 102.29 102.29 0.0 0 0 128.00 226.68
  A 102.29 102.29 0.0 0 0 230.29 124.39
  Z"
/>
<path fill="#417586" d="
  M 111.61 177.11
  A 0.24 0.24 0.0 0 0 111.98 177.29
  C 138.25 160.44 161.80 139.98 186.14 119.90
  C 191.02 115.88 203.38 107.12 209.84 110.15
  C 214.16 112.17 215.44 116.03 213.96 120.48
  Q 212.63 124.52 211.64 126.16
  Q 204.23 138.49 190.07 151.33
  C 187.73 153.45 185.15 154.78 182.79 152.00
  A 1.68 1.68 0.0 0 1 182.62 150.08
  L 195.36 128.01
  A 0.08 0.08 0.0 0 0 195.26 127.89
  Q 194.53 128.16 193.43 128.94
  Q 179.31 139.00 163.39 153.65
  C 156.43 160.05 92.12 220.84 85.91 193.90
  Q 85.51 192.16 87.54 187.01
  Q 89.25 182.68 93.15 176.90
  Q 99.52 167.44 107.96 157.47
  Q 123.86 138.70 141.95 116.71
  Q 151.87 104.66 159.67 93.54
  A 0.43 0.43 0.0 0 0 159.24 92.87
  Q 158.31 93.05 157.06 93.82
  C 140.44 104.06 125.69 116.66 111.66 130.66
  Q 93.83 148.44 80.00 160.73
  Q 75.76 164.49 68.70 168.18
  C 64.04 170.62 55.72 172.46 51.11 169.38
  C 43.27 164.14 48.00 150.05 50.97 142.60
  Q 52.97 137.59 58.22 129.28
  Q 65.63 117.57 79.58 101.58
  Q 91.33 88.13 104.28 75.86
  A 0.49 0.49 0.0 0 0 104.19 75.08
  C 100.57 73.03 96.25 70.64 94.44 67.07
  A 1.79 1.78 -38.9 0 1 94.65 65.14
  Q 96.43 62.99 99.09 61.83
  Q 110.69 56.75 122.66 51.66
  Q 124.47 50.89 126.53 50.52
  C 131.35 49.66 131.86 53.20 131.37 57.04
  Q 129.57 71.21 128.68 81.41
  C 127.80 91.52 120.87 86.64 116.11 83.64
  A 1.02 1.02 0.0 0 0 114.81 83.83
  C 95.93 104.99 76.68 126.47 64.25 151.79
  A 0.49 0.48 84.4 0 0 64.98 152.39
  C 74.06 145.39 81.92 138.47 90.71 129.87
  C 104.02 116.84 113.84 106.66 125.81 97.38
  Q 137.55 88.28 149.02 81.78
  C 156.16 77.73 170.36 70.82 176.60 78.37
  C 180.93 83.62 177.85 92.60 174.43 97.95
  C 159.70 120.98 142.30 140.95 122.17 163.67
  Q 115.23 171.51 111.76 176.73
  Q 111.59 176.98 111.61 177.11
  Z"
/>
<ellipse fill="#417586" cx="0.00" cy="0.00" transform="translate(179.60,157.72) rotate(-49.8)" rx="4.85" ry="3.27"/>
<ellipse fill="#417586" cx="0.00" cy="0.00" transform="translate(172.63,165.71) rotate(-48.8)" rx="4.79" ry="3.31"/>
<ellipse fill="#417586" cx="0.00" cy="0.00" transform="translate(165.38,173.91) rotate(-49.5)" rx="4.82" ry="3.26"/>
<ellipse fill="#417586" cx="0.00" cy="0.00" transform="translate(158.29,181.63) rotate(-48.5)" rx="4.38" ry="2.98"/>
<ellipse fill="#417586" cx="0.00" cy="0.00" transform="translate(151.73,188.63) rotate(-48.6)" rx="4.20" ry="2.76"/>
</svg>