<?xml version="1.0" encoding="UTF-8" standalone="no"?>
<!DOCTYPE svg PUBLIC "-//W3C//DTD SVG 1.1//EN" "http://www.w3.org/Graphics/SVG/1.1/DTD/svg11.dtd">
<svg xmlns="http://www.w3.org/2000/svg" version="1.1" viewBox="0.00 0.00 180.00 180.00" width="128" height="128">
<path fill="#3d3387" fill-opacity="0.957" d="
  M 117.05 15.86
  Q 115.31 15.48 111.29 13.43
  Q 108.59 12.06 98.55 9.33
  Q 92.11 7.58 85.29 7.61
  Q 72.21 7.66 66.51 8.94
  Q 53.35 11.89 43.73 17.72
  Q 20.34 31.90 11.95 58.35
  Q 11.30 60.39 10.69 63.97
  C 9.75 69.46 8.89 74.15 9.26 80.24
  Q 10.87 106.86 29.38 126.74
  Q 12.20 110.16 9.03 86.49
  C 5.23 58.14 19.45 31.15 43.81 16.87
  C 66.14 3.78 94.17 3.12 117.05 15.86
  Z"
/>
<path fill="#ec6623" fill-opacity="0.949" d="
  M 117.05 15.86
  Q 123.65 19.42 129.09 24.68
  A 0.16 0.15 81.3 0 1 128.91 24.93
  Q 118.93 19.43 107.77 16.14
  Q 85.69 9.69 63.96 18.69
  Q 56.17 21.91 51.96 24.72
  Q 26.56 41.72 20.53 70.48
  Q 14.13 100.94 32.46 125.78
  L 38.60 133.66
  A 0.22 0.22 0.0 0 1 38.31 133.98
  Q 33.17 130.77 29.38 126.74
  Q 10.87 106.86 9.26 80.24
  C 8.89 74.15 9.75 69.46 10.69 63.97
  Q 11.30 60.39 11.95 58.35
  Q 20.34 31.90 43.73 17.72
  Q 53.35 11.89 66.51 8.94
  Q 72.21 7.66 85.29 7.61
  Q 92.11 7.58 98.55 9.33
  Q 108.59 12.06 111.29 13.43
  Q 115.31 15.48 117.05 15.86
  Z"
/>
<path fill="#3d3387" fill-opacity="0.957" d="
  M 107.77 16.14
  Q 90.18 12.34 74.02 16.26
  C 39.39 24.66 16.49 57.42 20.31 92.75
  Q 22.16 109.88 32.46 125.78
  Q 14.13 100.94 20.53 70.48
  Q 26.56 41.72 51.96 24.72
  Q 56.17 21.91 63.96 18.69
  Q 85.69 9.69 107.77 16.14
  Z"
/>
<path fill="#4ebb88" fill-opacity="0.953" d="
  M 63.15 157.71
  Q 68.05 159.37 73.54 159.85
  Q 75.05 159.97 81.75 160.32
  Q 93.05 160.90 106.18 156.72
  Q 145.20 144.30 161.08 106.80
  Q 162.12 104.36 163.00 100.87
  Q 163.22 99.99 164.62 94.81
  Q 166.11 89.27 165.41 80.72
  C 166.31 56.67 156.67 34.99 140.12 18.37
  A 0.22 0.22 0.0 0 1 140.40 18.04
  Q 157.43 29.90 166.37 48.88
  C 185.00 88.45 171.21 134.77 133.43 157.45
  C 108.36 172.50 77.79 173.22 51.88 159.88
  Q 41.06 154.31 32.77 145.66
  A 0.23 0.23 0.0 0 1 33.06 145.31
  Q 47.25 153.90 63.15 157.71
  Z"
/>
<path fill="#4ebb88" fill-opacity="0.953" d="
  M 59.64 68.41
  C 59.64 76.76 65.51 84.26 73.78 85.45
  C 79.07 86.21 82.71 86.22 85.31 91.15
  C 90.94 101.80 75.39 110.94 68.87 100.24
  C 67.45 97.92 67.54 94.84 67.07 91.95
  C 66.14 86.19 61.92 81.47 56.79 79.37
  Q 54.41 78.40 50.59 78.08
  Q 46.99 77.78 45.79 77.16
  C 42.40 75.40 40.57 72.21 40.57 68.42
  C 40.57 64.63 42.40 61.44 45.78 59.67
  Q 46.98 59.05 50.58 58.75
  Q 54.40 58.42 56.78 57.45
  C 61.90 55.34 66.12 50.62 67.04 44.86
  C 67.51 41.97 67.42 38.89 68.83 36.56
  C 75.34 25.86 90.90 34.98 85.28 45.64
  C 82.69 50.57 79.05 50.58 73.76 51.35
  C 65.49 52.55 59.63 60.05 59.64 68.41
  Z"
/>
<circle fill="#4ebb88" fill-opacity="0.953" cx="77.16" cy="68.41" r="9.50"/>
<circle fill="#4ebb88" fill-opacity="0.953" cx="102.67" cy="68.39" r="9.47"/>
<circle fill="#4ebb88" fill-opacity="0.953" cx="130.39" cy="68.42" r="9.46"/>
<path fill="#3d3387" fill-opacity="0.957" d="
  M 118.40 104.86
  Q 129.79 123.59 110.28 133.36
  Q 109.46 133.78 103.35 134.40
  A 4.76 4.09 28.7 0 0 102.50 134.58
  Q 94.63 137.16 95.90 145.58
  A 3.44 3.29 29.7 0 0 96.16 146.45
  C 98.80 152.45 105.43 154.37 110.67 149.58
  Q 112.99 147.45 113.12 143.77
  Q 113.48 133.94 121.68 128.18
  Q 125.60 125.43 132.88 125.16
  A 4.23 4.13 -52.8 0 0 133.69 125.04
  Q 136.94 124.22 138.99 121.35
  C 141.70 117.56 140.64 112.48 137.35 109.18
  C 135.47 107.29 131.97 107.28 129.51 107.15
  Q 127.55 107.05 125.44 106.19
  C 118.65 103.42 113.77 97.36 113.29 89.84
  C 113.10 86.84 112.55 84.21 110.44 82.42
  Q 108.43 80.72 106.15 80.22
  Q 100.09 78.88 95.65 85.78
  Q 98.01 79.97 103.55 79.41
  Q 106.65 79.09 109.20 80.64
  C 114.94 84.11 113.17 88.76 114.90 94.11
  C 117.16 101.06 122.38 105.43 129.54 106.25
  C 132.27 106.56 134.23 106.58 137.26 108.11
  A 2.65 2.62 -6.3 0 1 138.07 108.75
  C 142.57 114.03 142.24 121.51 135.84 124.93
  C 133.46 126.20 129.64 126.10 126.66 126.68
  A 6.29 6.14 -61.6 0 0 125.38 127.08
  Q 115.04 131.56 114.15 141.98
  Q 113.73 146.84 113.03 147.93
  C 109.50 153.48 101.90 154.69 97.39 149.58
  C 93.11 144.71 94.57 137.86 100.15 134.65
  C 102.79 133.13 106.92 133.60 109.27 132.80
  C 114.07 131.17 117.39 128.93 119.68 124.46
  Q 124.49 115.10 118.40 104.86
  Z"
/>
<path fill="#ec6623" fill-opacity="0.949" d="
  M 118.40 104.86
  Q 113.82 100.51 108.38 99.06
  A 2.87 2.79 50.2 0 0 107.53 98.97
  Q 101.25 99.21 97.63 95.63
  Q 93.51 91.53 95.65 85.78
  Q 100.09 78.88 106.15 80.22
  Q 108.43 80.72 110.44 82.42
  C 112.55 84.21 113.10 86.84 113.29 89.84
  C 113.77 97.36 118.65 103.42 125.44 106.19
  Q 127.55 107.05 129.51 107.15
  C 131.97 107.28 135.47 107.29 137.35 109.18
  C 140.64 112.48 141.70 117.56 138.99 121.35
  Q 136.94 124.22 133.69 125.04
  A 4.23 4.13 -52.8 0 1 132.88 125.16
  Q 125.60 125.43 121.68 128.18
  Q 113.48 133.94 113.12 143.77
  Q 112.99 147.45 110.67 149.58
  C 105.43 154.37 98.80 152.45 96.16 146.45
  A 3.44 3.29 29.7 0 1 95.90 145.58
  Q 94.63 137.16 102.50 134.58
  A 4.76 4.09 28.7 0 1 103.35 134.40
  Q 109.46 133.78 110.28 133.36
  Q 129.79 123.59 118.40 104.86
  Z"
/>
<path fill="#3c68af" fill-opacity="0.965" d="
  M 165.41 80.72
  Q 166.11 89.27 164.62 94.81
  Q 163.22 99.99 163.00 100.87
  Q 162.12 104.36 161.08 106.80
  Q 145.20 144.30 106.18 156.72
  Q 93.05 160.90 81.75 160.32
  Q 75.05 159.97 73.54 159.85
  Q 68.05 159.37 63.15 157.71
  C 97.91 164.37 132.08 151.44 151.86 122.36
  Q 164.46 103.85 165.41 80.72
  Z"
/>
<circle fill="#ec6623" fill-opacity="0.949" cx="51.16" cy="116.12" r="9.50"/>
<path fill="#3d3387" fill-opacity="0.957" d="
  M 74.08 124.31
  Q 78.44 125.50 81.50 124.58
  C 87.59 122.77 89.75 114.61 85.41 110.07
  Q 80.81 105.25 73.16 108.53
  A 9.51 9.51 0.0 0 1 85.99 109.75
  A 9.51 9.51 0.0 0 1 87.32 120.56
  A 9.51 9.51 0.0 0 1 74.08 124.31
  Z"
/>
<path fill="#ec6623" fill-opacity="0.949" d="
  M 112.81 111.75
  Q 112.83 113.36 113.00 114.93
  Q 113.21 116.89 112.91 118.06
  Q 111.31 124.37 105.14 124.90
  C 100.70 125.27 97.72 123.13 96.14 119.22
  Q 95.72 118.20 95.62 116.11
  Q 95.55 114.56 95.41 112.92
  A 9.52 9.52 0.0 0 1 104.98 106.64
  A 9.53 9.49 78.0 0 1 112.81 111.75
  Z"
/>
<path fill="#ec6623" fill-opacity="0.949" d="
  M 74.08 124.31
  A 9.53 9.52 13.3 0 1 69.41 116.75
  A 9.50 9.49 -20.5 0 1 73.16 108.53
  Q 80.81 105.25 85.41 110.07
  C 89.75 114.61 87.59 122.77 81.50 124.58
  Q 78.44 125.50 74.08 124.31
  Z"
/>
<path fill="#3d3387" fill-opacity="0.957" d="
  M 95.41 112.92
  Q 95.55 114.56 95.62 116.11
  Q 95.72 118.20 96.14 119.22
  C 97.72 123.13 100.70 125.27 105.14 124.90
  Q 111.31 124.37 112.91 118.06
  Q 113.21 116.89 113.00 114.93
  Q 112.83 113.36 112.81 111.75
  A 9.52 9.51 -26.5 0 1 108.47 124.73
  A 9.52 9.51 58.4 0 1 96.84 121.96
  A 9.51 9.49 36.0 0 1 95.41 112.92
  Z"
/>
</svg>