<?xml version="1.0" encoding="UTF-8" standalone="no"?>
<!DOCTYPE svg PUBLIC "-//W3C//DTD SVG 1.1//EN" "http://www.w3.org/Graphics/SVG/1.1/DTD/svg11.dtd">
<svg xmlns="http://www.w3.org/2000/svg" version="1.1" viewBox="0.00 0.00 192.00 192.00" width="128" height="128">
<ellipse fill="#ea5708" cx="0.00" cy="0.00" transform="translate(75.94,40.15) rotate(-0.5)" rx="21.69" ry="21.30"/>
<path fill="#2c5240" d="
  M 97.30 65.34
  Q 98.98 63.54 100.56 61.82
  Q 110.31 51.16 108.71 36.69
  A 0.23 0.23 0.0 0 1 109.04 36.45
  Q 124.58 43.55 134.26 56.67
  A 0.54 0.54 0.0 0 1 134.10 57.46
  Q 124.89 62.73 109.70 71.44
  Q 108.27 72.26 105.75 71.41
  A 0.69 0.46 56.6 0 1 105.61 71.35
  L 97.38 66.02
  A 0.45 0.45 0.0 0 1 97.30 65.34
  Z"
/>
<path fill="#2c5240" d="
  M 0.00 107.86
  L 0.00 99.54
  Q 4.07 57.28 42.15 37.56
  A 0.45 0.45 0.0 0 1 42.81 37.98
  Q 41.96 54.71 54.91 65.62
  A 0.39 0.38 51.7 0 1 54.84 66.26
  C 29.40 79.33 24.10 112.60 44.25 132.74
  Q 57.12 145.61 76.28 145.95
  Q 99.29 146.36 113.43 128.38
  A 0.32 0.31 -56.1 0 0 113.34 127.91
  Q 100.51 120.52 97.40 118.96
  Q 91.91 116.20 89.98 113.50
  C 85.65 107.44 86.81 100.39 92.49 95.50
  C 94.18 94.04 97.98 92.50 100.69 91.02
  Q 153.33 62.17 155.31 61.00
  Q 162.74 56.58 167.39 56.01
  C 178.20 54.71 187.02 60.26 190.64 70.52
  Q 191.76 73.68 191.58 80.61
  Q 191.50 83.89 191.60 138.96
  Q 191.62 146.56 190.36 149.36
  C 187.36 156.08 180.84 159.44 173.42 159.26
  Q 169.84 159.18 164.81 156.23
  Q 163.27 155.33 150.20 148.42
  A 0.66 0.66 0.0 0 1 149.86 147.84
  L 149.86 120.51
  A 0.37 0.37 0.0 0 1 150.41 120.18
  L 161.32 126.14
  A 1.10 0.97 -22.3 0 0 161.67 126.26
  C 165.12 126.74 165.82 124.45 165.78 121.35
  Q 165.67 112.62 165.69 89.00
  Q 165.70 85.68 162.06 85.79
  A 1.04 0.98 -58.7 0 0 161.55 85.93
  L 129.99 103.31
  A 2.04 1.99 2.5 0 0 129.30 103.93
  C 127.16 107.04 129.55 108.59 132.35 110.01
  Q 135.75 111.72 139.94 114.22
  A 0.98 0.97 -75.0 0 1 140.42 115.06
  L 140.42 142.87
  A 0.91 0.86 -27.9 0 1 140.24 143.40
  Q 122.35 166.62 94.65 173.07
  C 86.65 174.94 78.92 174.14 70.76 174.37
  C 56.44 174.77 39.96 168.42 28.80 160.21
  Q 2.82 141.10 0.00 107.86
  Z"
/>
</svg>