<?xml version="1.0" encoding="UTF-8" standalone="no"?>
<!DOCTYPE svg PUBLIC "-//W3C//DTD SVG 1.1//EN" "http://www.w3.org/Graphics/SVG/1.1/DTD/svg11.dtd">
<svg xmlns="http://www.w3.org/2000/svg" version="1.1" viewBox="0.00 0.00 256.00 256.00" width="128" height="128">
<g stroke-width="2.00" fill="none" stroke-linecap="butt">
<path stroke="#8e8e8f" vector-effect="non-scaling-stroke" d="
  M 48.03 218.44
  Q 48.08 218.45 56.85 219.35
  C 63.99 220.09 71.43 219.54 77.59 220.02
  Q 81.65 220.33 86.40 219.94
  Q 94.69 219.25 95.18 219.17
  C 102.96 217.84 106.46 212.78 111.03 206.75
  C 113.87 203.01 116.09 198.13 118.92 193.92
  Q 119.48 193.09 123.15 187.22
  Q 124.32 185.36 138.56 162.83
  Q 150.28 144.29 156.27 134.24
  C 159.51 128.81 163.69 123.10 166.70 117.70
  Q 170.17 111.46 174.17 105.48
  Q 178.51 98.98 181.32 93.10
  C 183.89 87.72 183.82 82.83 181.08 77.21
  Q 177.96 70.82 177.67 70.40
  Q 174.39 65.66 173.18 63.25
  C 170.34 57.63 166.33 52.97 163.57 48.29
  Q 157.75 38.42 146.14 38.37
  Q 129.02 38.31 112.05 38.51
  Q 104.67 38.59 98.90 42.05
  A 5.59 5.40 4.8 0 0 97.72 43.01
  C 92.59 48.60 89.09 54.60 84.92 61.77
  Q 82.40 66.09 77.34 74.05
  Q 65.88 92.04 54.31 110.63
  Q 52.44 113.64 49.95 117.70
  Q 37.09 138.64 24.34 158.73
  C 22.56 161.54 19.20 167.59 19.19 170.29
  Q 19.15 177.83 22.33 182.97
  Q 30.82 196.71 36.61 206.14
  C 39.57 210.95 42.05 213.73 45.87 217.27
  A 4.98 4.96 -16.5 0 0 48.03 218.44"
/>
<path stroke="#8e8e8f" vector-effect="non-scaling-stroke" d="
  M 159.24 218.39
  Q 168.87 219.89 170.75 219.87
  Q 183.30 219.78 190.02 220.06
  C 195.72 220.29 202.61 219.67 206.88 218.59
  C 212.32 217.22 216.18 212.79 219.43 207.75
  Q 227.61 195.08 232.46 187.23
  C 236.11 181.31 239.61 174.60 237.24 167.57
  Q 235.77 163.24 230.52 155.43
  A 8.77 7.38 40.8 0 1 229.91 154.38
  Q 226.77 148.01 224.32 144.91
  C 219.28 138.52 215.12 127.06 205.74 126.24
  Q 194.30 125.25 178.93 126.07
  C 175.20 126.27 172.47 127.53 170.63 130.62
  Q 158.75 150.59 141.62 177.12
  Q 139.92 179.76 137.36 184.63
  C 135.06 189.01 136.53 192.28 138.92 196.37
  Q 141.21 200.29 148.26 210.34
  Q 150.79 213.95 158.26 218.05
  A 3.23 3.15 -25.2 0 0 159.24 218.39"
/>
<path stroke="#8e8e8f" vector-effect="non-scaling-stroke" d="
  M 158.07 51.85
  C 157.31 50.75 156.07 50.21 154.97 51.28
  C 149.12 56.99 145.33 65.07 140.64 72.29
  Q 135.58 80.08 119.69 105.90
  C 117.89 108.82 115.74 111.80 114.45 113.95
  Q 110.13 121.14 91.94 150.39
  Q 87.85 156.95 83.82 163.31
  C 80.52 168.52 78.57 172.78 81.70 178.14
  Q 84.73 183.34 93.16 197.22
  C 95.11 200.43 96.58 202.25 99.08 205.82
  A 1.79 1.79 0.0 0 0 101.58 206.25
  C 105.75 203.29 107.60 199.86 111.37 194.20
  Q 114.19 189.99 115.90 186.69
  C 117.92 182.79 120.56 179.47 123.71 174.47
  Q 125.00 172.43 134.11 157.36
  C 135.12 155.69 137.15 153.28 138.33 151.30
  Q 141.28 146.36 154.78 124.37
  C 158.52 118.27 162.55 113.05 165.91 107.06
  C 169.12 101.32 172.34 97.11 175.57 91.05
  C 179.01 84.59 176.78 81.62 172.82 75.07
  Q 163.57 59.77 158.07 51.85"
/>
<path stroke="#8e8e8f" vector-effect="non-scaling-stroke" d="
  M 209.52 138.82
  C 206.01 142.32 204.14 144.21 201.76 148.10
  Q 192.11 163.90 189.75 168.24
  Q 187.75 171.91 188.90 174.61
  C 191.86 181.52 196.05 186.98 199.96 193.89
  Q 203.05 199.34 207.98 205.47
  A 2.22 2.22 0.0 0 0 210.24 206.23
  C 214.48 205.16 218.34 197.89 220.02 194.29
  Q 220.87 192.48 225.62 185.92
  Q 228.46 182.01 231.64 173.68
  Q 232.38 171.74 231.48 169.98
  Q 228.07 163.31 221.32 152.85
  Q 219.18 149.54 217.12 145.86
  Q 214.09 140.45 212.38 138.80
  A 2.05 2.05 0.0 0 0 209.52 138.82"
/>
</g>
<path fill="#ffffff" d="
  M 192.26 107.17
  A 1.65 1.64 -70.7 0 0 193.25 109.24
  C 198.72 111.26 207.60 108.78 214.32 111.74
  Q 223.80 115.90 229.86 124.42
  Q 236.81 134.18 247.46 152.29
  C 251.66 159.43 256.68 167.68 254.38 176.08
  Q 252.38 183.43 249.11 189.62
  Q 241.68 203.67 232.50 216.76
  C 227.50 223.89 221.92 229.64 213.42 233.03
  Q 210.06 234.37 203.45 234.65
  Q 199.58 234.81 193.26 235.45
  C 182.61 236.53 172.09 235.25 158.16 233.83
  C 155.15 233.52 153.25 233.30 150.77 231.90
  Q 147.54 230.06 142.13 227.41
  A 4.54 4.34 76.5 0 1 141.20 226.81
  Q 135.82 222.39 133.59 220.14
  Q 132.27 218.82 130.73 215.37
  A 2.82 2.67 -80.3 0 0 130.23 214.62
  Q 128.77 213.07 126.53 215.35
  C 124.99 216.92 124.22 218.94 122.30 220.73
  C 117.16 225.52 112.20 229.75 106.23 232.37
  Q 102.38 234.07 93.72 234.80
  Q 81.08 235.88 75.29 235.79
  C 66.52 235.67 57.06 234.46 48.25 233.80
  C 43.77 233.46 39.16 230.80 33.69 227.97
  A 7.53 7.35 85.9 0 1 30.95 225.54
  C 29.68 223.69 28.45 221.45 27.02 219.93
  C 22.42 215.04 19.71 208.74 16.07 203.52
  Q 13.07 199.22 9.76 192.42
  C 8.09 189.01 6.96 187.33 5.22 184.47
  A 8.31 8.07 -68.7 0 1 4.25 182.17
  Q 2.71 176.11 2.55 172.27
  C 2.28 165.42 6.23 157.78 10.07 151.59
  Q 12.08 148.33 25.47 126.98
  Q 57.82 75.38 78.95 41.22
  Q 79.59 40.19 84.27 34.19
  C 92.82 23.22 103.80 23.12 117.46 22.89
  Q 142.37 22.46 151.23 23.14
  Q 165.80 24.26 174.73 36.27
  Q 178.63 41.52 188.59 57.79
  Q 196.53 70.77 197.99 75.36
  Q 200.99 84.79 198.44 95.16
  Q 197.17 100.33 195.03 102.77
  Q 192.94 105.16 192.26 107.17
  Z
  M 48.03 218.44
  Q 48.08 218.45 56.85 219.35
  C 63.99 220.09 71.43 219.54 77.59 220.02
  Q 81.65 220.33 86.40 219.94
  Q 94.69 219.25 95.18 219.17
  C 102.96 217.84 106.46 212.78 111.03 206.75
  C 113.87 203.01 116.09 198.13 118.92 193.92
  Q 119.48 193.09 123.15 187.22
  Q 124.32 185.36 138.56 162.83
  Q 150.28 144.29 156.27 134.24
  C 159.51 128.81 163.69 123.10 166.70 117.70
  Q 170.17 111.46 174.17 105.48
  Q 178.51 98.98 181.32 93.10
  C 183.89 87.72 183.82 82.83 181.08 77.21
  Q 177.96 70.82 177.67 70.40
  Q 174.39 65.66 173.18 63.25
  C 170.34 57.63 166.33 52.97 163.57 48.29
  Q 157.75 38.42 146.14 38.37
  Q 129.02 38.31 112.05 38.51
  Q 104.67 38.59 98.90 42.05
  A 5.59 5.40 4.8 0 0 97.72 43.01
  C 92.59 48.60 89.09 54.60 84.92 61.77
  Q 82.40 66.09 77.34 74.05
  Q 65.88 92.04 54.31 110.63
  Q 52.44 113.64 49.95 117.70
  Q 37.09 138.64 24.34 158.73
  C 22.56 161.54 19.20 167.59 19.19 170.29
  Q 19.15 177.83 22.33 182.97
  Q 30.82 196.71 36.61 206.14
  C 39.57 210.95 42.05 213.73 45.87 217.27
  A 4.98 4.96 -16.5 0 0 48.03 218.44
  Z
  M 159.24 218.39
  Q 168.87 219.89 170.75 219.87
  Q 183.30 219.78 190.02 220.06
  C 195.72 220.29 202.61 219.67 206.88 218.59
  C 212.32 217.22 216.18 212.79 219.43 207.75
  Q 227.61 195.08 232.46 187.23
  C 236.11 181.31 239.61 174.60 237.24 167.57
  Q 235.77 163.24 230.52 155.43
  A 8.77 7.38 40.8 0 1 229.91 154.38
  Q 226.77 148.01 224.32 144.91
  C 219.28 138.52 215.12 127.06 205.74 126.24
  Q 194.30 125.25 178.93 126.07
  C 175.20 126.27 172.47 127.53 170.63 130.62
  Q 158.75 150.59 141.62 177.12
  Q 139.92 179.76 137.36 184.63
  C 135.06 189.01 136.53 192.28 138.92 196.37
  Q 141.21 200.29 148.26 210.34
  Q 150.79 213.95 158.26 218.05
  A 3.23 3.15 -25.2 0 0 159.24 218.39
  Z"
/>
<path fill="#1c1d1f" d="
  M 48.03 218.44
  A 4.98 4.96 -16.5 0 1 45.87 217.27
  C 42.05 213.73 39.57 210.95 36.61 206.14
  Q 30.82 196.71 22.33 182.97
  Q 19.15 177.83 19.19 170.29
  C 19.20 167.59 22.56 161.54 24.34 158.73
  Q 37.09 138.64 49.95 117.70
  Q 52.44 113.64 54.31 110.63
  Q 65.88 92.04 77.34 74.05
  Q 82.40 66.09 84.92 61.77
  C 89.09 54.60 92.59 48.60 97.72 43.01
  A 5.59 5.40 4.8 0 1 98.90 42.05
  Q 104.67 38.59 112.05 38.51
  Q 129.02 38.31 146.14 38.37
  Q 157.75 38.42 163.57 48.29
  C 166.33 52.97 170.34 57.63 173.18 63.25
  Q 174.39 65.66 177.67 70.40
  Q 177.96 70.82 181.08 77.21
  C 183.82 82.83 183.89 87.72 181.32 93.10
  Q 178.51 98.98 174.17 105.48
  Q 170.17 111.46 166.70 117.70
  C 163.69 123.10 159.51 128.81 156.27 134.24
  Q 150.28 144.29 138.56 162.83
  Q 124.32 185.36 123.15 187.22
  Q 119.48 193.09 118.92 193.92
  C 116.09 198.13 113.87 203.01 111.03 206.75
  C 106.46 212.78 102.96 217.84 95.18 219.17
  Q 94.69 219.25 86.40 219.94
  Q 81.65 220.33 77.59 220.02
  C 71.43 219.54 63.99 220.09 56.85 219.35
  Q 48.08 218.45 48.03 218.44
  Z
  M 158.07 51.85
  C 157.31 50.75 156.07 50.21 154.97 51.28
  C 149.12 56.99 145.33 65.07 140.64 72.29
  Q 135.58 80.08 119.69 105.90
  C 117.89 108.82 115.74 111.80 114.45 113.95
  Q 110.13 121.14 91.94 150.39
  Q 87.85 156.95 83.82 163.31
  C 80.52 168.52 78.57 172.78 81.70 178.14
  Q 84.73 183.34 93.16 197.22
  C 95.11 200.43 96.58 202.25 99.08 205.82
  A 1.79 1.79 0.0 0 0 101.58 206.25
  C 105.75 203.29 107.60 199.86 111.37 194.20
  Q 114.19 189.99 115.90 186.69
  C 117.92 182.79 120.56 179.47 123.71 174.47
  Q 125.00 172.43 134.11 157.36
  C 135.12 155.69 137.15 153.28 138.33 151.30
  Q 141.28 146.36 154.78 124.37
  C 158.52 118.27 162.55 113.05 165.91 107.06
  C 169.12 101.32 172.34 97.11 175.57 91.05
  C 179.01 84.59 176.78 81.62 172.82 75.07
  Q 163.57 59.77 158.07 51.85
  Z"
/>
<path fill="#ffffff" d="
  M 154.97 51.28
  C 156.07 50.21 157.31 50.75 158.07 51.85
  Q 163.57 59.77 172.82 75.07
  C 176.78 81.62 179.01 84.59 175.57 91.05
  C 172.34 97.11 169.12 101.32 165.91 107.06
  C 162.55 113.05 158.52 118.27 154.78 124.37
  Q 141.28 146.36 138.33 151.30
  C 137.15 153.28 135.12 155.69 134.11 157.36
  Q 125.00 172.43 123.71 174.47
  C 120.56 179.47 117.92 182.79 115.90 186.69
  Q 114.19 189.99 111.37 194.20
  C 107.60 199.86 105.75 203.29 101.58 206.25
  A 1.79 1.79 0.0 0 1 99.08 205.82
  C 96.58 202.25 95.11 200.43 93.16 197.22
  Q 84.73 183.34 81.70 178.14
  C 78.57 172.78 80.52 168.52 83.82 163.31
  Q 87.85 156.95 91.94 150.39
  Q 110.13 121.14 114.45 113.95
  C 115.74 111.80 117.89 108.82 119.69 105.90
  Q 135.58 80.08 140.64 72.29
  C 145.33 65.07 149.12 56.99 154.97 51.28
  Z"
/>
<path fill="#1c1d1f" d="
  M 158.26 218.05
  Q 150.79 213.95 148.26 210.34
  Q 141.21 200.29 138.92 196.37
  C 136.53 192.28 135.06 189.01 137.36 184.63
  Q 139.92 179.76 141.62 177.12
  Q 158.75 150.59 170.63 130.62
  C 172.47 127.53 175.20 126.27 178.93 126.07
  Q 194.30 125.25 205.74 126.24
  C 215.12 127.06 219.28 138.52 224.32 144.91
  Q 226.77 148.01 229.91 154.38
  A 8.77 7.38 40.8 0 0 230.52 155.43
  Q 235.77 163.24 237.24 167.57
  C 239.61 174.60 236.11 181.31 232.46 187.23
  Q 227.61 195.08 219.43 207.75
  C 216.18 212.79 212.32 217.22 206.88 218.59
  C 202.61 219.67 195.72 220.29 190.02 220.06
  Q 183.30 219.78 170.75 219.87
  Q 168.87 219.89 159.24 218.39
  A 3.23 3.15 -25.2 0 1 158.26 218.05
  Z
  M 209.52 138.82
  C 206.01 142.32 204.14 144.21 201.76 148.10
  Q 192.11 163.90 189.75 168.24
  Q 187.75 171.91 188.90 174.61
  C 191.86 181.52 196.05 186.98 199.96 193.89
  Q 203.05 199.34 207.98 205.47
  A 2.22 2.22 0.0 0 0 210.24 206.23
  C 214.48 205.16 218.34 197.89 220.02 194.29
  Q 220.87 192.48 225.62 185.92
  Q 228.46 182.01 231.64 173.68
  Q 232.38 171.74 231.48 169.98
  Q 228.07 163.31 221.32 152.85
  Q 219.18 149.54 217.12 145.86
  Q 214.09 140.45 212.38 138.80
  A 2.05 2.05 0.0 0 0 209.52 138.82
  Z"
/>
<path fill="#ffffff" d="
  M 209.52 138.82
  A 2.05 2.05 0.0 0 1 212.38 138.80
  Q 214.09 140.45 217.12 145.86
  Q 219.18 149.54 221.32 152.85
  Q 228.07 163.31 231.48 169.98
  Q 232.38 171.74 231.64 173.68
  Q 228.46 182.01 225.62 185.92
  Q 220.87 192.48 220.02 194.29
  C 218.34 197.89 214.48 205.16 210.24 206.23
  A 2.22 2.22 0.0 0 1 207.98 205.47
  Q 203.05 199.34 199.96 193.89
  C 196.05 186.98 191.86 181.52 188.90 174.61
  Q 187.75 171.91 189.75 168.24
  Q 192.11 163.90 201.76 148.10
  C 204.14 144.21 206.01 142.32 209.52 138.82
  Z"
/>
</svg>