<?xml version="1.0" encoding="UTF-8" standalone="no"?>
<!DOCTYPE svg PUBLIC "-//W3C//DTD SVG 1.1//EN" "http://www.w3.org/Graphics/SVG/1.1/DTD/svg11.dtd">
<svg xmlns="http://www.w3.org/2000/svg" version="1.1" viewBox="0.00 0.00 500.00 500.00" width="128" height="128">
<g stroke-width="2.00" fill="none" stroke-linecap="butt">
<path stroke="#92b1f5" vector-effect="non-scaling-stroke" d="
  M 241.43 151.46
  A 0.47 0.47 0.0 0 0 240.96 151.93
  Q 241.01 183.93 240.95 212.51
  C 240.93 217.46 234.58 220.15 231.23 216.53
  Q 213.65 197.59 192.93 175.27
  A 0.50 0.50 0.0 0 0 192.22 175.24
  L 179.61 186.92
  A 0.39 0.39 0.0 0 0 179.59 187.48
  Q 181.71 189.68 214.49 225.04
  Q 220.07 231.07 222.99 232.87
  C 233.60 239.39 247.12 235.96 254.52 226.44
  C 257.73 222.30 259.04 216.83 259.03 211.51
  Q 259.00 192.24 259.06 151.85
  A 0.39 0.38 0.0 0 0 258.67 151.47
  L 241.43 151.46"
/>
<path stroke="#92b1f5" vector-effect="non-scaling-stroke" d="
  M 348.52 241.46
  A 0.47 0.47 0.0 0 0 348.05 240.99
  Q 316.06 241.02 287.48 240.95
  C 282.53 240.94 279.84 234.59 283.46 231.23
  Q 302.41 213.66 324.73 192.95
  A 0.50 0.50 0.0 0 0 324.76 192.24
  L 313.10 179.62
  A 0.39 0.39 0.0 0 0 312.54 179.60
  Q 310.33 181.73 274.96 214.49
  Q 268.92 220.07 267.12 222.99
  C 260.60 233.59 264.03 247.11 273.54 254.52
  C 277.68 257.73 283.15 259.05 288.47 259.04
  Q 307.74 259.01 348.13 259.09
  A 0.39 0.38 -90.0 0 0 348.51 258.70
  L 348.52 241.46"
/>
<path stroke="#92b1f5" vector-effect="non-scaling-stroke" d="
  M 151.45 258.60
  A 0.47 0.47 0.0 0 0 151.92 259.07
  Q 183.92 259.01 212.51 259.06
  C 217.46 259.07 220.15 265.42 216.53 268.78
  Q 197.59 286.37 175.28 307.10
  A 0.50 0.50 0.0 0 0 175.25 307.81
  L 186.93 320.42
  A 0.39 0.39 0.0 0 0 187.49 320.44
  Q 189.69 318.31 225.05 285.52
  Q 231.08 279.93 232.88 277.01
  C 239.40 266.40 235.96 252.88 226.44 245.48
  C 222.30 242.27 216.82 240.96 211.50 240.97
  Q 192.23 241.01 151.83 240.96
  A 0.39 0.38 -90.0 0 0 151.45 241.35
  L 151.45 258.60"
/>
<path stroke="#92b1f5" vector-effect="non-scaling-stroke" d="
  M 258.58 348.59
  A 0.47 0.47 0.0 0 0 259.05 348.12
  Q 259.00 316.11 259.05 287.50
  C 259.07 282.55 265.42 279.86 268.78 283.48
  Q 286.37 302.44 307.11 324.76
  A 0.50 0.50 0.0 0 0 307.82 324.79
  L 320.44 313.11
  A 0.39 0.39 0.0 0 0 320.46 312.55
  Q 318.33 310.35 285.53 274.96
  Q 279.94 268.93 277.02 267.13
  C 266.41 260.60 252.88 264.04 245.47 273.56
  C 242.26 277.70 240.95 283.18 240.95 288.51
  Q 240.99 307.79 240.93 348.21
  A 0.39 0.38 0.0 0 0 241.32 348.59
  L 258.58 348.59"
/>
</g>
<path fill="#ffffff" d="
  M 450.69 0.00
  Q 453.20 0.29 455.75 0.37
  C 464.77 0.66 473.15 2.02 480.67 7.09
  C 490.25 13.55 497.07 23.07 498.62 34.51
  Q 499.59 41.59 500.00 48.78
  L 500.00 450.88
  Q 499.63 457.98 498.73 464.99
  C 496.58 481.60 483.10 495.32 466.75 498.54
  Q 462.55 499.37 451.50 500.00
  L 48.88 500.00
  Q 44.57 499.65 40.24 499.42
  Q 19.85 498.34 8.00 482.01
  Q 2.89 474.97 1.56 466.99
  Q 0.47 460.42 0.00 451.11
  L 0.00 48.86
  Q 0.38 44.45 0.65 39.99
  Q 1.95 18.51 19.87 6.93
  Q 28.79 1.17 39.51 0.61
  Q 44.12 0.37 48.75 0.00
  L 450.69 0.00
  Z
  M 241.43 151.46
  A 0.47 0.47 0.0 0 0 240.96 151.93
  Q 241.01 183.93 240.95 212.51
  C 240.93 217.46 234.58 220.15 231.23 216.53
  Q 213.65 197.59 192.93 175.27
  A 0.50 0.50 0.0 0 0 192.22 175.24
  L 179.61 186.92
  A 0.39 0.39 0.0 0 0 179.59 187.48
  Q 181.71 189.68 214.49 225.04
  Q 220.07 231.07 222.99 232.87
  C 233.60 239.39 247.12 235.96 254.52 226.44
  C 257.73 222.30 259.04 216.83 259.03 211.51
  Q 259.00 192.24 259.06 151.85
  A 0.39 0.38 0.0 0 0 258.67 151.47
  L 241.43 151.46
  Z
  M 348.52 241.46
  A 0.47 0.47 0.0 0 0 348.05 240.99
  Q 316.06 241.02 287.48 240.95
  C 282.53 240.94 279.84 234.59 283.46 231.23
  Q 302.41 213.66 324.73 192.95
  A 0.50 0.50 0.0 0 0 324.76 192.24
  L 313.10 179.62
  A 0.39 0.39 0.0 0 0 312.54 179.60
  Q 310.33 181.73 274.96 214.49
  Q 268.92 220.07 267.12 222.99
  C 260.60 233.59 264.03 247.11 273.54 254.52
  C 277.68 257.73 283.15 259.05 288.47 259.04
  Q 307.74 259.01 348.13 259.09
  A 0.39 0.38 -90.0 0 0 348.51 258.70
  L 348.52 241.46
  Z
  M 151.45 258.60
  A 0.47 0.47 0.0 0 0 151.92 259.07
  Q 183.92 259.01 212.51 259.06
  C 217.46 259.07 220.15 265.42 216.53 268.78
  Q 197.59 286.37 175.28 307.10
  A 0.50 0.50 0.0 0 0 175.25 307.81
  L 186.93 320.42
  A 0.39 0.39 0.0 0 0 187.49 320.44
  Q 189.69 318.31 225.05 285.52
  Q 231.08 279.93 232.88 277.01
  C 239.40 266.40 235.96 252.88 226.44 245.48
  C 222.30 242.27 216.82 240.96 211.50 240.97
  Q 192.23 241.01 151.83 240.96
  A 0.39 0.38 -90.0 0 0 151.45 241.35
  L 151.45 258.60
  Z
  M 258.58 348.59
  A 0.47 0.47 0.0 0 0 259.05 348.12
  Q 259.00 316.11 259.05 287.50
  C 259.07 282.55 265.42 279.86 268.78 283.48
  Q 286.37 302.44 307.11 324.76
  A 0.50 0.50 0.0 0 0 307.82 324.79
  L 320.44 313.11
  A 0.39 0.39 0.0 0 0 320.46 312.55
  Q 318.33 310.35 285.53 274.96
  Q 279.94 268.93 277.02 267.13
  C 266.41 260.60 252.88 264.04 245.47 273.56
  C 242.26 277.70 240.95 283.18 240.95 288.51
  Q 240.99 307.79 240.93 348.21
  A 0.39 0.38 0.0 0 0 241.32 348.59
  L 258.58 348.59
  Z"
/>
<path fill="#2563eb" d="
  M 241.43 151.46
  L 258.67 151.47
  A 0.39 0.38 0.0 0 1 259.06 151.85
  Q 259.00 192.24 259.03 211.51
  C 259.04 216.83 257.73 222.30 254.52 226.44
  C 247.12 235.96 233.60 239.39 222.99 232.87
  Q 220.07 231.07 214.49 225.04
  Q 181.71 189.68 179.59 187.48
  A 0.39 0.39 0.0 0 1 179.61 186.92
  L 192.22 175.24
  A 0.50 0.50 0.0 0 1 192.93 175.27
  Q 213.65 197.59 231.23 216.53
  C 234.58 220.15 240.93 217.46 240.95 212.51
  Q 241.01 183.93 240.96 151.93
  A 0.47 0.47 0.0 0 1 241.43 151.46
  Z"
/>
<path fill="#2563eb" d="
  M 348.52 241.46
  L 348.51 258.70
  A 0.39 0.38 -90.0 0 1 348.13 259.09
  Q 307.74 259.01 288.47 259.04
  C 283.15 259.05 277.68 257.73 273.54 254.52
  C 264.03 247.11 260.60 233.59 267.12 222.99
  Q 268.92 220.07 274.96 214.49
  Q 310.33 181.73 312.54 179.60
  A 0.39 0.39 0.0 0 1 313.10 179.62
  L 324.76 192.24
  A 0.50 0.50 0.0 0 1 324.73 192.95
  Q 302.41 213.66 283.46 231.23
  C 279.84 234.59 282.53 240.94 287.48 240.95
  Q 316.06 241.02 348.05 240.99
  A 0.47 0.47 0.0 0 1 348.52 241.46
  Z"
/>
<path fill="#2563eb" d="
  M 151.45 258.60
  L 151.45 241.35
  A 0.39 0.38 -90.0 0 1 151.83 240.96
  Q 192.23 241.01 211.50 240.97
  C 216.82 240.96 222.30 242.27 226.44 245.48
  C 235.96 252.88 239.40 266.40 232.88 277.01
  Q 231.08 279.93 225.05 285.52
  Q 189.69 318.31 187.49 320.44
  A 0.39 0.39 0.0 0 1 186.93 320.42
  L 175.25 307.81
  A 0.50 0.50 0.0 0 1 175.28 307.10
  Q 197.59 286.37 216.53 268.78
  C 220.15 265.42 217.46 259.07 212.51 259.06
  Q 183.92 259.01 151.92 259.07
  A 0.47 0.47 0.0 0 1 151.45 258.60
  Z"
/>
<path fill="#2563eb" d="
  M 258.58 348.59
  L 241.32 348.59
  A 0.39 0.38 0.0 0 1 240.93 348.21
  Q 240.99 307.79 240.95 288.51
  C 240.95 283.18 242.26 277.70 245.47 273.56
  C 252.88 264.04 266.41 260.60 277.02 267.13
  Q 279.94 268.93 285.53 274.96
  Q 318.33 310.35 320.46 312.55
  A 0.39 0.39 0.0 0 1 320.44 313.11
  L 307.82 324.79
  A 0.50 0.50 0.0 0 1 307.11 324.76
  Q 286.37 302.44 268.78 283.48
  C 265.42 279.86 259.07 282.55 259.05 287.50
  Q 259.00 316.11 259.05 348.12
  A 0.47 0.47 0.0 0 1 258.58 348.59
  Z"
/>
</svg>