<?xml version="1.0" encoding="UTF-8" standalone="no"?>
<!DOCTYPE svg PUBLIC "-//W3C//DTD SVG 1.1//EN" "http://www.w3.org/Graphics/SVG/1.1/DTD/svg11.dtd">
<svg xmlns="http://www.w3.org/2000/svg" version="1.1" viewBox="0.00 0.00 180.00 180.00" width="128" height="128">
<g stroke-width="2.00" fill="none" stroke-linecap="butt">
<path stroke="#a5d9f1" vector-effect="non-scaling-stroke" d="
  M 60.62 57.96
  Q 50.66 72.26 44.50 88.47"
/>
<path stroke="#a1d1eb" vector-effect="non-scaling-stroke" d="
  M 44.50 88.47
  Q 33.93 114.95 35.10 143.21
  A 0.36 0.36 0.0 0 0 35.79 143.34
  Q 44.54 123.41 55.50 104.55"
/>
<path stroke="#a5d9f1" vector-effect="non-scaling-stroke" d="
  M 55.50 104.55
  Q 63.51 90.83 72.90 78.30"
/>
<path stroke="#a6e3f7" vector-effect="non-scaling-stroke" d="
  M 72.90 78.30
  C 78.94 70.94 83.59 65.62 90.18 60.46
  Q 90.43 60.27 90.69 60.52"
/>
<path stroke="#a1d1eb" vector-effect="non-scaling-stroke" d="
  M 90.69 60.52
  Q 92.94 62.02 93.53 62.72
  Q 101.22 71.97 104.79 83.54"
/>
<path stroke="#a5d9f1" vector-effect="non-scaling-stroke" d="
  M 104.79 83.54
  C 107.45 91.86 108.45 98.20 110.25 108.47"
/>
<path stroke="#a6e3f7" vector-effect="non-scaling-stroke" d="
  M 110.25 108.47
  Q 111.24 118.87 114.59 128.59
  C 116.37 133.75 119.22 138.14 123.34 141.15
  C 127.46 144.16 134.65 144.54 138.94 141.38
  C 152.80 131.14 142.53 103.62 136.48 91.61"
/>
<path stroke="#a5d9f1" vector-effect="non-scaling-stroke" d="
  M 136.48 91.61
  L 126.09 71.95"
/>
<path stroke="#a1d1eb" vector-effect="non-scaling-stroke" d="
  M 126.09 71.95
  Q 119.90 61.05 112.50 51.66"
/>
<path stroke="#a6e3f7" vector-effect="non-scaling-stroke" d="
  M 112.50 51.66
  Q 106.07 43.08 99.07 39.37
  C 83.33 31.04 68.22 45.30 60.62 57.96"
/>
<path stroke="#47b5e3" vector-effect="non-scaling-stroke" d="
  M 112.50 51.66
  Q 100.05 52.19 90.78 59.88
  Q 90.62 60.01 90.62 60.18
  Q 90.63 60.34 90.69 60.52"
/>
<path stroke="#4bbde8" vector-effect="non-scaling-stroke" d="
  M 72.90 78.30
  L 60.62 57.96"
/>
<path stroke="#46abdd" vector-effect="non-scaling-stroke" d="
  M 126.09 71.95
  L 104.79 83.54"
/>
<path stroke="#46abdd" vector-effect="non-scaling-stroke" d="
  M 55.50 104.55
  L 44.50 88.47"
/>
<path stroke="#4bbde8" vector-effect="non-scaling-stroke" d="
  M 136.48 91.61
  L 110.25 108.47"
/>
</g>
<path fill="#ffffff" d="
  M 180.00 0.00
  L 180.00 180.00
  L 0.00 180.00
  L 0.00 0.00
  L 180.00 0.00
  Z
  M 60.62 57.96
  Q 50.66 72.26 44.50 88.47
  Q 33.93 114.95 35.10 143.21
  A 0.36 0.36 0.0 0 0 35.79 143.34
  Q 44.54 123.41 55.50 104.55
  Q 63.51 90.83 72.90 78.30
  C 78.94 70.94 83.59 65.62 90.18 60.46
  Q 90.43 60.27 90.69 60.52
  Q 92.94 62.02 93.53 62.72
  Q 101.22 71.97 104.79 83.54
  C 107.45 91.86 108.45 98.20 110.25 108.47
  Q 111.24 118.87 114.59 128.59
  C 116.37 133.75 119.22 138.14 123.34 141.15
  C 127.46 144.16 134.65 144.54 138.94 141.38
  C 152.80 131.14 142.53 103.62 136.48 91.61
  L 126.09 71.95
  Q 119.90 61.05 112.50 51.66
  Q 106.07 43.08 99.07 39.37
  C 83.33 31.04 68.22 45.30 60.62 57.96
  Z"
/>
<path fill="#4cc6ee" d="
  M 112.50 51.66
  Q 100.05 52.19 90.78 59.88
  Q 90.62 60.01 90.62 60.18
  Q 90.63 60.34 90.69 60.52
  Q 90.43 60.27 90.18 60.46
  C 83.59 65.62 78.94 70.94 72.90 78.30
  L 60.62 57.96
  C 68.22 45.30 83.33 31.04 99.07 39.37
  Q 106.07 43.08 112.50 51.66
  Z"
/>
<path fill="#42a3d7" d="
  M 112.50 51.66
  Q 119.90 61.05 126.09 71.95
  L 104.79 83.54
  Q 101.22 71.97 93.53 62.72
  Q 92.94 62.02 90.69 60.52
  Q 90.63 60.34 90.62 60.18
  Q 90.62 60.01 90.78 59.88
  Q 100.05 52.19 112.50 51.66
  Z"
/>
<path fill="#4ab3e2" d="
  M 60.62 57.96
  L 72.90 78.30
  Q 63.51 90.83 55.50 104.55
  L 44.50 88.47
  Q 50.66 72.26 60.62 57.96
  Z"
/>
<path fill="#4ab3e2" d="
  M 136.48 91.61
  L 110.25 108.47
  C 108.45 98.20 107.45 91.86 104.79 83.54
  L 126.09 71.95
  L 136.48 91.61
  Z"
/>
<path fill="#42a3d7" d="
  M 55.50 104.55
  Q 44.54 123.41 35.79 143.34
  A 0.36 0.36 0.0 0 1 35.10 143.21
  Q 33.93 114.95 44.50 88.47
  L 55.50 104.55
  Z"
/>
<path fill="#4cc6ee" d="
  M 136.48 91.61
  C 142.53 103.62 152.80 131.14 138.94 141.38
  C 134.65 144.54 127.46 144.16 123.34 141.15
  C 119.22 138.14 116.37 133.75 114.59 128.59
  Q 111.24 118.87 110.25 108.47
  L 136.48 91.61
  Z"
/>
</svg>