<?xml version="1.0" encoding="UTF-8" standalone="no"?>
<!DOCTYPE svg PUBLIC "-//W3C//DTD SVG 1.1//EN" "http://www.w3.org/Graphics/SVG/1.1/DTD/svg11.dtd">
<svg xmlns="http://www.w3.org/2000/svg" version="1.1" viewBox="0.00 0.00 192.00 192.00" width="128" height="128">
<path fill="#414042" d="
  M 180.20 119.57
  A 0.31 0.31 0.0 0 1 180.53 120.02
  C 172.96 133.60 157.97 140.03 143.03 140.79
  Q 123.96 141.77 106.78 128.24
  Q 90.87 115.71 79.57 101.41
  C 68.07 86.87 64.02 80.59 54.43 71.79
  C 38.83 57.47 21.84 57.01 2.15 62.52
  A 0.42 0.42 0.0 0 1 1.67 61.92
  C 4.71 56.41 10.18 52.13 15.98 49.77
  C 36.48 41.42 57.79 48.24 73.72 62.81
  Q 81.36 69.79 87.43 76.83
  C 100.02 91.45 111.45 104.96 124.80 117.45
  C 138.15 129.93 153.98 133.78 170.50 123.57
  Q 175.29 120.61 180.20 119.57
  Z"
/>
<path fill="#1c75bc" d="
  M 188.60 95.23
  Q 188.07 94.34 183.69 88.73
  Q 180.74 84.95 175.60 81.40
  C 165.76 74.60 154.34 76.85 145.07 83.34
  C 136.82 89.12 127.29 99.07 119.85 105.93
  A 1.10 1.10 0.0 0 1 118.31 105.88
  Q 107.14 94.07 95.56 80.44
  Q 94.72 79.46 94.40 78.46
  A 0.76 0.76 0.0 0 1 95.54 77.58
  L 109.33 86.48
  A 1.02 1.01 -49.5 0 0 110.56 86.38
  Q 121.10 76.96 129.61 70.37
  C 156.39 49.64 184.54 61.59 189.07 95.07
  A 0.25 0.25 0.0 0 1 188.60 95.23
  Z"
/>
<path fill="#1c75bc" d="
  M 36.56 99.78
  Q 38.32 102.29 40.24 104.69
  C 51.07 118.22 67.32 123.62 81.49 110.42
  A 0.62 0.62 0.0 0 1 82.37 110.46
  Q 94.20 123.59 108.36 134.13
  Q 108.59 134.30 108.67 134.47
  A 0.95 0.94 88.4 0 1 107.46 135.75
  L 91.57 129.24
  A 1.73 1.73 0.0 0 0 90.12 129.31
  C 73.63 137.99 54.72 137.84 44.16 120.28
  Q 38.26 110.48 36.09 99.99
  A 0.26 0.26 0.0 0 1 36.56 99.78
  Z"
/>
</svg>