<?xml version="1.0" encoding="UTF-8" standalone="no"?>
<!DOCTYPE svg PUBLIC "-//W3C//DTD SVG 1.1//EN" "http://www.w3.org/Graphics/SVG/1.1/DTD/svg11.dtd">
<svg xmlns="http://www.w3.org/2000/svg" version="1.1" viewBox="0.00 0.00 256.00 256.00" width="128" height="128">
<g stroke-width="2.00" fill="none" stroke-linecap="butt">
<path stroke="#808080" vector-effect="non-scaling-stroke" d="
  M 0.00 202.50
  L 0.92 207.47
  A 0.78 0.77 1.8 0 0 1.50 208.08
  C 5.22 208.96 8.66 208.43 12.47 208.49
  Q 40.50 208.92 64.02 208.97
  C 73.65 208.98 81.30 204.86 90.51 200.54
  Q 94.42 198.70 97.62 197.79
  Q 102.96 196.27 104.87 195.31
  Q 112.51 191.46 118.69 185.20
  A 0.39 0.18 -25.1 0 1 118.74 185.14
  L 122.85 179.67
  A 2.08 1.87 -15.4 0 0 123.01 179.42
  L 124.70 176.49"
/>
<path stroke="#81e6ed" vector-effect="non-scaling-stroke" d="
  M 124.70 176.49
  Q 125.28 176.46 124.95 177.43
  A 0.42 0.41 -77.0 0 0 125.29 177.98
  Q 125.42 178.00 125.46 178.01
  A 0.83 0.82 7.0 0 1 126.08 178.79
  Q 126.17 183.07 124.19 185.61
  Q 121.91 188.55 119.46 190.19
  Q 117.94 191.20 117.39 191.38
  Q 113.53 192.68 110.91 195.84
  A 3.24 3.22 71.4 0 0 110.29 197.10
  C 109.12 202.15 111.81 204.10 116.43 205.63
  Q 119.10 206.52 121.78 207.36"
/>
<path stroke="#80cce7" vector-effect="non-scaling-stroke" d="
  M 121.78 207.36
  C 130.64 208.51 137.69 208.23 145.68 208.59
  C 156.83 209.11 168.04 209.19 177.57 206.94
  A 13.10 13.03 39.4 0 1 181.16 206.60
  C 183.74 206.71 186.94 206.87 189.90 207.29
  Q 203.48 209.22 217.17 207.89
  Q 220.94 207.52 223.87 206.12
  Q 225.19 205.48 227.73 202.80"
/>
<path stroke="#808080" vector-effect="non-scaling-stroke" d="
  M 227.73 202.80
  Q 227.17 185.78 228.10 168.56"
/>
<path stroke="#80cce7" vector-effect="non-scaling-stroke" d="
  M 228.10 168.56
  Q 228.71 150.81 228.49 133.11
  C 228.42 127.37 228.64 121.69 227.22 116.32
  Q 226.15 112.30 222.78 112.01
  Q 220.37 111.81 209.38 109.96
  Q 204.87 109.20 203.01 109.58
  Q 193.80 111.49 188.25 112.48
  Q 186.27 112.83 184.06 112.57
  Q 171.54 111.11 159.20 108.46
  A 5.62 5.54 51.1 0 0 158.15 108.34
  C 150.77 108.18 143.16 109.28 135.81 109.86
  Q 133.89 110.01 129.55 112.15"
/>
<path stroke="#81e6ed" vector-effect="non-scaling-stroke" d="
  M 129.55 112.15
  Q 122.22 113.54 114.89 114.38
  Q 115.56 114.42 115.59 114.43
  A 0.26 0.26 0.0 0 1 115.70 114.89
  Q 113.85 116.24 112.55 116.46
  A 0.08 0.08 0.0 0 1 112.48 116.33
  L 113.02 115.79
  A 0.16 0.16 0.0 0 0 112.92 115.52
  Q 112.76 115.51 112.63 115.65
  Q 112.45 115.83 112.34 115.89
  Q 109.95 117.31 109.49 121.36
  A 0.15 0.15 0.0 0 1 109.21 121.43
  Q 109.16 121.34 109.20 120.89
  Q 109.23 120.59 109.35 120.44
  Q 109.60 120.14 109.60 119.98
  Q 109.60 119.66 109.34 119.62
  Q 108.86 119.57 108.54 119.85
  A 0.56 0.56 0.0 0 0 108.39 120.47
  Q 108.46 120.63 108.45 120.70
  A 0.39 0.39 0.0 0 1 107.78 120.94
  Q 107.18 120.29 106.91 120.22
  A 0.26 0.26 0.0 0 0 106.69 120.68
  L 108.65 122.17
  A 4.60 4.19 0.7 0 1 109.40 122.87
  L 113.43 127.59
  A 0.22 0.18 28.8 0 1 113.48 127.72
  Q 113.48 127.94 113.49 127.98
  A 1.47 1.44 19.7 0 0 113.94 128.90
  L 120.63 135.25
  A 0.08 0.08 0.0 0 0 120.75 135.15
  Q 120.62 134.93 120.73 134.74
  A 0.29 0.29 0.0 0 1 121.25 134.80
  Q 121.61 135.92 121.78 135.99
  A 0.48 0.48 0.0 0 0 122.25 135.16
  Q 120.05 133.61 119.89 133.25
  A 0.17 0.17 0.0 0 1 120.15 133.04
  Q 121.03 133.64 123.56 133.63
  A 1.07 1.07 0.0 0 1 124.43 134.05
  Q 126.67 136.94 125.73 139.19
  Q 124.69 141.69 124.67 142.75"
/>
<path stroke="#808080" vector-effect="non-scaling-stroke" d="
  M 124.67 142.75
  L 120.30 135.63
  A 0.59 0.58 75.2 0 0 119.85 135.36
  Q 119.56 135.35 119.51 135.38
  A 0.29 0.28 54.4 0 1 119.17 135.32
  L 114.30 130.40
  A 5.14 4.90 85.1 0 0 113.70 129.87
  Q 111.57 128.26 110.81 126.90
  A 0.39 0.39 0.0 0 0 110.14 126.88
  Q 109.98 127.14 110.18 127.75
  A 0.04 0.03 -58.3 0 0 110.25 127.73
  Q 110.15 126.58 108.91 125.17
  C 107.86 123.97 107.58 121.88 105.78 121.21
  A 2.08 2.02 77.2 0 1 105.01 120.71
  Q 102.89 118.57 99.38 117.26
  A 2.64 2.63 -13.1 0 1 98.54 116.74
  C 94.79 113.20 88.06 108.83 82.98 109.32
  Q 75.17 110.08 67.10 109.67
  C 57.55 109.20 48.95 109.45 40.77 110.30
  C 32.61 111.15 33.39 99.88 32.96 94.54
  Q 31.52 76.66 32.33 60.57
  C 32.73 52.47 32.46 46.04 32.12 38.33
  C 31.97 34.78 30.05 33.25 26.84 32.89
  C 19.24 32.03 11.21 32.71 4.38 32.01
  C 0.02 31.57 0.49 36.00 0.00 38.86"
/>
<path stroke="#808080" vector-effect="non-scaling-stroke" d="
  M 207.98 99.26
  Q 209.43 98.00 211.52 97.97
  Q 216.63 97.88 221.78 97.54
  Q 223.15 97.45 225.14 98.09
  A 1.75 1.74 10.7 0 0 227.42 96.54
  Q 229.15 67.91 228.91 40.78
  Q 228.87 37.24 226.28 35.74
  C 222.79 33.72 210.09 29.57 209.64 36.94
  Q 208.96 47.93 208.75 50.27
  C 207.98 58.89 208.75 68.09 208.81 76.25
  Q 208.87 84.82 207.83 88.63
  Q 206.36 93.98 206.64 98.69
  A 0.81 0.81 0.0 0 0 207.98 99.26"
/>
<path stroke="#808080" vector-effect="non-scaling-stroke" d="
  M 63.33 97.62
  L 77.49 97.40
  A 2.10 2.08 29.6 0 0 78.48 97.13
  C 80.96 95.73 80.84 91.67 80.65 89.00
  C 80.43 85.76 80.08 82.38 80.23 78.66
  Q 80.60 69.69 80.69 54.11
  A 13.59 13.00 40.3 0 0 80.38 51.17
  Q 79.08 45.15 79.51 40.37
  C 79.81 37.00 78.76 33.81 75.44 33.33
  Q 69.56 32.49 64.01 34.71
  A 3.30 3.29 -7.3 0 0 61.97 37.34
  C 60.06 51.55 60.33 64.40 60.96 81.35
  Q 61.11 85.62 60.79 88.15
  Q 60.30 91.96 60.65 95.24
  A 2.66 2.65 86.4 0 0 63.33 97.62"
/>
<path stroke="#808080" vector-effect="non-scaling-stroke" d="
  M 178.62 36.18
  Q 173.71 32.79 166.01 33.07
  Q 161.92 33.21 161.71 37.28
  C 161.21 46.94 160.25 53.41 160.53 61.93
  Q 160.78 69.62 160.70 82.65
  C 160.67 87.26 159.73 92.14 160.22 96.43
  A 2.50 2.49 -88.0 0 0 162.23 98.60
  C 169.54 100.00 179.44 97.12 180.47 88.20
  C 181.06 83.09 180.39 78.21 180.40 72.92
  Q 180.41 62.15 180.57 59.08
  C 180.93 52.25 180.36 45.55 180.04 38.76
  A 3.32 3.31 16.2 0 0 178.62 36.18"
/>
<path stroke="#808080" vector-effect="non-scaling-stroke" d="
  M 110.74 35.50
  Q 109.74 36.74 109.57 38.84
  Q 108.45 52.09 108.95 63.76
  C 109.33 72.51 108.38 80.17 107.84 89.95
  A 2.19 2.15 37.3 0 0 107.96 90.77
  C 110.06 96.72 124.96 96.25 130.10 96.03
  A 1.92 1.92 0.0 0 0 131.94 94.19
  C 132.33 84.65 132.03 68.39 132.50 54.73
  Q 132.76 47.13 132.01 38.41
  A 2.91 2.90 -80.7 0 0 130.28 36.00
  Q 121.43 32.13 111.75 34.83
  A 1.99 1.95 -78.0 0 0 110.74 35.50"
/>
<path stroke="#808080" vector-effect="non-scaling-stroke" d="
  M 246.32 197.79
  Q 245.73 196.32 246.15 196.21
  Q 246.93 196.00 247.55 194.58
  Q 249.26 190.65 247.09 189.60
  C 245.62 188.89 244.64 190.07 243.10 189.90
  A 0.58 0.58 0.0 0 0 242.46 190.41
  Q 241.81 195.26 242.01 199.70
  Q 242.17 203.26 245.39 204.16
  A 1.38 1.38 0.0 0 0 247.12 203.11
  Q 247.57 200.92 246.32 197.79"
/>
<path stroke="#01676e" vector-effect="non-scaling-stroke" d="
  M 124.67 142.75
  L 127.50 152.73"
/>
<path stroke="#004c67" vector-effect="non-scaling-stroke" d="
  M 127.50 152.73
  C 127.93 160.95 128.14 167.60 125.46 174.82"
/>
<path stroke="#01676e" vector-effect="non-scaling-stroke" d="
  M 125.46 174.82
  Q 124.82 175.65 124.70 176.49"
/>
<path stroke="#808080" vector-effect="non-scaling-stroke" d="
  M 91.37 162.99
  C 91.30 156.99 90.70 152.27 87.06 147.24
  Q 84.80 144.12 83.80 142.32
  A 6.12 5.93 -83.4 0 0 82.68 140.86
  Q 80.69 138.94 78.07 135.24
  Q 75.38 131.43 71.01 131.17
  C 61.47 130.60 55.07 131.92 43.05 134.04
  C 39.60 134.64 37.12 136.13 36.76 140.03
  Q 35.13 158.07 35.36 163.28
  Q 35.52 166.81 36.33 180.26
  Q 36.63 185.18 40.47 186.61
  Q 49.62 190.02 61.14 188.21
  C 66.91 187.30 71.63 186.35 75.71 182.98
  Q 81.24 178.42 88.10 171.42
  C 90.92 168.55 91.42 166.94 91.37 162.99"
/>
<path stroke="#004c67" vector-effect="non-scaling-stroke" d="
  M 228.10 168.56
  Q 228.27 164.67 227.17 161.13
  Q 227.01 160.63 227.56 159.31
  A 0.67 0.66 -52.9 0 0 227.47 158.63
  Q 227.05 158.10 226.50 158.07
  A 0.24 0.02 -74.9 0 0 226.42 158.29
  Q 226.40 158.34 226.40 158.36
  A 0.02 0.01 -43.0 0 1 226.37 158.36
  Q 226.17 154.11 227.23 150.25
  A 2.96 2.95 -35.5 0 0 227.33 149.66
  Q 227.51 145.69 226.59 142.78
  Q 226.50 142.51 226.88 142.22
  A 0.20 0.20 0.0 0 1 227.20 142.41
  Q 227.06 143.17 227.30 143.60
  A 0.18 0.18 0.0 0 0 227.63 143.51
  C 227.48 139.84 227.30 138.64 227.67 135.31
  Q 228.31 129.54 227.40 124.54
  A 0.57 0.56 42.3 0 0 226.28 124.59
  Q 225.84 130.38 225.96 134.64
  Q 226.06 137.96 225.76 141.85
  Q 225.35 147.21 225.49 149.06
  Q 225.91 154.84 225.01 162.26
  Q 224.95 162.82 223.94 171.01
  Q 223.61 173.67 224.01 176.36
  C 224.65 180.69 224.91 185.35 224.67 189.07
  Q 224.53 191.20 225.31 194.83
  A 5.48 5.46 37.8 0 1 225.43 195.76
  Q 225.64 200.91 225.71 201.79
  Q 225.83 203.36 227.73 202.80"
/>
<path stroke="#01b3d5" vector-effect="non-scaling-stroke" d="
  M 121.78 207.36
  L 129.38 207.26
  A 0.33 0.32 -15.8 0 0 129.66 206.77
  C 124.97 199.04 122.80 194.74 126.09 185.66
  Q 127.63 181.38 128.57 176.34
  A 0.77 0.77 0.0 0 1 129.66 175.78
  L 144.18 182.57
  A 0.17 0.17 0.0 0 0 144.39 182.32
  Q 144.07 181.89 144.28 181.38"
/>
<path stroke="#80cce7" vector-effect="non-scaling-stroke" d="
  M 144.28 181.38
  L 146.71 184.82
  A 2.09 2.03 -89.2 0 0 147.08 185.21
  L 150.74 188.11
  A 2.83 2.78 -16.5 0 0 151.68 188.61
  Q 162.83 191.94 173.14 185.56
  A 1.73 1.71 -86.0 0 0 173.56 185.19
  L 179.58 177.95
  A 0.66 0.52 -4.7 0 1 179.73 177.81
  Q 183.49 175.19 187.24 172.51
  C 191.87 169.22 191.16 164.07 191.02 157.73
  Q 190.93 153.76 189.71 151.65
  Q 188.07 148.81 185.47 146.79
  Q 177.43 140.58 171.92 133.38
  A 2.75 2.63 -1.3 0 0 171.22 132.74
  L 168.94 131.29
  A 0.67 0.60 -21.6 0 0 168.67 131.19
  Q 163.76 130.22 155.81 130.44
  C 151.22 130.57 148.46 131.89 146.31 135.81
  Q 144.81 138.55 144.20 140.98"
/>
<path stroke="#01b3d5" vector-effect="non-scaling-stroke" d="
  M 144.20 140.98
  Q 137.36 143.51 133.18 144.64
  Q 131.56 145.08 128.73 144.68
  A 0.71 0.70 89.9 0 1 128.13 144.07
  Q 127.85 141.87 126.19 135.45
  C 124.45 128.72 124.54 123.84 127.47 118.13
  C 128.39 116.32 128.92 114.13 129.55 112.15"
/>
<path stroke="#81e6ed" vector-effect="non-scaling-stroke" d="
  M 144.20 140.98
  Q 144.19 149.30 143.55 157.63
  Q 143.54 157.73 143.59 157.85
  Q 143.64 157.97 143.65 158.07
  A 0.08 0.06 45.1 0 1 143.51 158.05
  Q 143.47 157.85 143.44 157.64
  A 0.02 0.02 0.0 0 0 143.42 157.62
  Q 143.42 157.63 143.41 157.63
  A 0.03 0.02 -90.0 0 0 143.39 157.66
  L 143.51 171.58
  A 0.13 0.13 0.0 0 1 143.35 171.71
  Q 143.12 171.65 143.12 171.33
  Q 143.12 170.83 143.13 171.34
  Q 143.14 171.59 143.17 171.74
  Q 143.48 173.31 144.18 175.07
  A 0.06 0.06 0.0 0 0 144.30 175.04
  Q 144.19 173.88 144.40 173.88
  Q 144.23 177.48 144.59 181.06
  A 0.28 0.24 -40.9 0 1 144.57 181.20
  Q 144.47 181.42 144.28 181.38"
/>
<path stroke="#01b3d5" vector-effect="non-scaling-stroke" d="
  M 125.46 174.82
  Q 127.76 177.70 127.14 182.07
  A 0.01 0.01 0.0 0 0 127.15 182.08
  Q 127.15 182.07 127.16 182.05
  A 0.22 0.21 61.8 0 0 127.19 181.94
  Q 127.18 176.68 128.31 167.63
  Q 129.16 160.81 127.50 152.73"
/>
</g>
<path fill="#ffffff" d="
  M 256.00 0.00
  L 256.00 256.00
  L 0.00 256.00
  L 0.00 202.50
  L 0.92 207.47
  A 0.78 0.77 1.8 0 0 1.50 208.08
  C 5.22 208.96 8.66 208.43 12.47 208.49
  Q 40.50 208.92 64.02 208.97
  C 73.65 208.98 81.30 204.86 90.51 200.54
  Q 94.42 198.70 97.62 197.79
  Q 102.96 196.27 104.87 195.31
  Q 112.51 191.46 118.69 185.20
  A 0.39 0.18 -25.1 0 1 118.74 185.14
  L 122.85 179.67
  A 2.08 1.87 -15.4 0 0 123.01 179.42
  L 124.70 176.49
  Q 125.28 176.46 124.95 177.43
  A 0.42 0.41 -77.0 0 0 125.29 177.98
  Q 125.42 178.00 125.46 178.01
  A 0.83 0.82 7.0 0 1 126.08 178.79
  Q 126.17 183.07 124.19 185.61
  Q 121.91 188.55 119.46 190.19
  Q 117.94 191.20 117.39 191.38
  Q 113.53 192.68 110.91 195.84
  A 3.24 3.22 71.4 0 0 110.29 197.10
  C 109.12 202.15 111.81 204.10 116.43 205.63
  Q 119.10 206.52 121.78 207.36
  C 130.64 208.51 137.69 208.23 145.68 208.59
  C 156.83 209.11 168.04 209.19 177.57 206.94
  A 13.10 13.03 39.4 0 1 181.16 206.60
  C 183.74 206.71 186.94 206.87 189.90 207.29
  Q 203.48 209.22 217.17 207.89
  Q 220.94 207.52 223.87 206.12
  Q 225.19 205.48 227.73 202.80
  Q 227.17 185.78 228.10 168.56
  Q 228.71 150.81 228.49 133.11
  C 228.42 127.37 228.64 121.69 227.22 116.32
  Q 226.15 112.30 222.78 112.01
  Q 220.37 111.81 209.38 109.96
  Q 204.87 109.20 203.01 109.58
  Q 193.80 111.49 188.25 112.48
  Q 186.27 112.83 184.06 112.57
  Q 171.54 111.11 159.20 108.46
  A 5.62 5.54 51.1 0 0 158.15 108.34
  C 150.77 108.18 143.16 109.28 135.81 109.86
  Q 133.89 110.01 129.55 112.15
  Q 122.22 113.54 114.89 114.38
  Q 115.56 114.42 115.59 114.43
  A 0.26 0.26 0.0 0 1 115.70 114.89
  Q 113.85 116.24 112.55 116.46
  A 0.08 0.08 0.0 0 1 112.48 116.33
  L 113.02 115.79
  A 0.16 0.16 0.0 0 0 112.92 115.52
  Q 112.76 115.51 112.63 115.65
  Q 112.45 115.83 112.34 115.89
  Q 109.95 117.31 109.49 121.36
  A 0.15 0.15 0.0 0 1 109.21 121.43
  Q 109.16 121.34 109.20 120.89
  Q 109.23 120.59 109.35 120.44
  Q 109.60 120.14 109.60 119.98
  Q 109.60 119.66 109.34 119.62
  Q 108.86 119.57 108.54 119.85
  A 0.56 0.56 0.0 0 0 108.39 120.47
  Q 108.46 120.63 108.45 120.70
  A 0.39 0.39 0.0 0 1 107.78 120.94
  Q 107.18 120.29 106.91 120.22
  A 0.26 0.26 0.0 0 0 106.69 120.68
  L 108.65 122.17
  A 4.60 4.19 0.7 0 1 109.40 122.87
  L 113.43 127.59
  A 0.22 0.18 28.8 0 1 113.48 127.72
  Q 113.48 127.94 113.49 127.98
  A 1.47 1.44 19.7 0 0 113.94 128.90
  L 120.63 135.25
  A 0.08 0.08 0.0 0 0 120.75 135.15
  Q 120.62 134.93 120.73 134.74
  A 0.29 0.29 0.0 0 1 121.25 134.80
  Q 121.61 135.92 121.78 135.99
  A 0.48 0.48 0.0 0 0 122.25 135.16
  Q 120.05 133.61 119.89 133.25
  A 0.17 0.17 0.0 0 1 120.15 133.04
  Q 121.03 133.64 123.56 133.63
  A 1.07 1.07 0.0 0 1 124.43 134.05
  Q 126.67 136.94 125.73 139.19
  Q 124.69 141.69 124.67 142.75
  L 120.30 135.63
  A 0.59 0.58 75.2 0 0 119.85 135.36
  Q 119.56 135.35 119.51 135.38
  A 0.29 0.28 54.4 0 1 119.17 135.32
  L 114.30 130.40
  A 5.14 4.90 85.1 0 0 113.70 129.87
  Q 111.57 128.26 110.81 126.90
  A 0.39 0.39 0.0 0 0 110.14 126.88
  Q 109.98 127.14 110.18 127.75
  A 0.04 0.03 -58.3 0 0 110.25 127.73
  Q 110.15 126.58 108.91 125.17
  C 107.86 123.97 107.58 121.88 105.78 121.21
  A 2.08 2.02 77.2 0 1 105.01 120.71
  Q 102.89 118.57 99.38 117.26
  A 2.64 2.63 -13.1 0 1 98.54 116.74
  C 94.79 113.20 88.06 108.83 82.98 109.32
  Q 75.17 110.08 67.10 109.67
  C 57.55 109.20 48.95 109.45 40.77 110.30
  C 32.61 111.15 33.39 99.88 32.96 94.54
  Q 31.52 76.66 32.33 60.57
  C 32.73 52.47 32.46 46.04 32.12 38.33
  C 31.97 34.78 30.05 33.25 26.84 32.89
  C 19.24 32.03 11.21 32.71 4.38 32.01
  C 0.02 31.57 0.49 36.00 0.00 38.86
  L 0.00 0.00
  L 256.00 0.00
  Z
  M 207.98 99.26
  Q 209.43 98.00 211.52 97.97
  Q 216.63 97.88 221.78 97.54
  Q 223.15 97.45 225.14 98.09
  A 1.75 1.74 10.7 0 0 227.42 96.54
  Q 229.15 67.91 228.91 40.78
  Q 228.87 37.24 226.28 35.74
  C 222.79 33.72 210.09 29.57 209.64 36.94
  Q 208.96 47.93 208.75 50.27
  C 207.98 58.89 208.75 68.09 208.81 76.25
  Q 208.87 84.82 207.83 88.63
  Q 206.36 93.98 206.64 98.69
  A 0.81 0.81 0.0 0 0 207.98 99.26
  Z
  M 63.33 97.62
  L 77.49 97.40
  A 2.10 2.08 29.6 0 0 78.48 97.13
  C 80.96 95.73 80.84 91.67 80.65 89.00
  C 80.43 85.76 80.08 82.38 80.23 78.66
  Q 80.60 69.69 80.69 54.11
  A 13.59 13.00 40.3 0 0 80.38 51.17
  Q 79.08 45.15 79.51 40.37
  C 79.81 37.00 78.76 33.81 75.44 33.33
  Q 69.56 32.49 64.01 34.71
  A 3.30 3.29 -7.3 0 0 61.97 37.34
  C 60.06 51.55 60.33 64.40 60.96 81.35
  Q 61.11 85.62 60.79 88.15
  Q 60.30 91.96 60.65 95.24
  A 2.66 2.65 86.4 0 0 63.33 97.62
  Z
  M 178.62 36.18
  Q 173.71 32.79 166.01 33.07
  Q 161.92 33.21 161.71 37.28
  C 161.21 46.94 160.25 53.41 160.53 61.93
  Q 160.78 69.62 160.70 82.65
  C 160.67 87.26 159.73 92.14 160.22 96.43
  A 2.50 2.49 -88.0 0 0 162.23 98.60
  C 169.54 100.00 179.44 97.12 180.47 88.20
  C 181.06 83.09 180.39 78.21 180.40 72.92
  Q 180.41 62.15 180.57 59.08
  C 180.93 52.25 180.36 45.55 180.04 38.76
  A 3.32 3.31 16.2 0 0 178.62 36.18
  Z
  M 110.74 35.50
  Q 109.74 36.74 109.57 38.84
  Q 108.45 52.09 108.95 63.76
  C 109.33 72.51 108.38 80.17 107.84 89.95
  A 2.19 2.15 37.3 0 0 107.96 90.77
  C 110.06 96.72 124.96 96.25 130.10 96.03
  A 1.92 1.92 0.0 0 0 131.94 94.19
  C 132.33 84.65 132.03 68.39 132.50 54.73
  Q 132.76 47.13 132.01 38.41
  A 2.91 2.90 -80.7 0 0 130.28 36.00
  Q 121.43 32.13 111.75 34.83
  A 1.99 1.95 -78.0 0 0 110.74 35.50
  Z
  M 246.32 197.79
  Q 245.73 196.32 246.15 196.21
  Q 246.93 196.00 247.55 194.58
  Q 249.26 190.65 247.09 189.60
  C 245.62 188.89 244.64 190.07 243.10 189.90
  A 0.58 0.58 0.0 0 0 242.46 190.41
  Q 241.81 195.26 242.01 199.70
  Q 242.17 203.26 245.39 204.16
  A 1.38 1.38 0.0 0 0 247.12 203.11
  Q 247.57 200.92 246.32 197.79
  Z"
/>
<path fill="#000000" d="
  M 124.67 142.75
  L 127.50 152.73
  C 127.93 160.95 128.14 167.60 125.46 174.82
  Q 124.82 175.65 124.70 176.49
  L 123.01 179.42
  A 2.08 1.87 -15.4 0 1 122.85 179.67
  L 118.74 185.14
  A 0.39 0.18 -25.1 0 0 118.69 185.20
  Q 112.51 191.46 104.87 195.31
  Q 102.96 196.27 97.62 197.79
  Q 94.42 198.70 90.51 200.54
  C 81.30 204.86 73.65 208.98 64.02 208.97
  Q 40.50 208.92 12.47 208.49
  C 8.66 208.43 5.22 208.96 1.50 208.08
  A 0.78 0.77 1.8 0 1 0.92 207.47
  L 0.00 202.50
  L 0.00 38.86
  C 0.49 36.00 0.02 31.57 4.38 32.01
  C 11.21 32.71 19.24 32.03 26.84 32.89
  C 30.05 33.25 31.97 34.78 32.12 38.33
  C 32.46 46.04 32.73 52.47 32.33 60.57
  Q 31.52 76.66 32.96 94.54
  C 33.39 99.88 32.61 111.15 40.77 110.30
  C 48.95 109.45 57.55 109.20 67.10 109.67
  Q 75.17 110.08 82.98 109.32
  C 88.06 108.83 94.79 113.20 98.54 116.74
  A 2.64 2.63 -13.1 0 0 99.38 117.26
  Q 102.89 118.57 105.01 120.71
  A 2.08 2.02 77.2 0 0 105.78 121.21
  C 107.58 121.88 107.86 123.97 108.91 125.17
  Q 110.15 126.58 110.25 127.73
  A 0.04 0.03 -58.3 0 1 110.18 127.75
  Q 109.98 127.14 110.14 126.88
  A 0.39 0.39 0.0 0 1 110.81 126.90
  Q 111.57 128.26 113.70 129.87
  A 5.14 4.90 85.1 0 1 114.30 130.40
  L 119.17 135.32
  A 0.29 0.28 54.4 0 0 119.51 135.38
  Q 119.56 135.35 119.85 135.36
  A 0.59 0.58 75.2 0 1 120.30 135.63
  L 124.67 142.75
  Z
  M 91.37 162.99
  C 91.30 156.99 90.70 152.27 87.06 147.24
  Q 84.80 144.12 83.80 142.32
  A 6.12 5.93 -83.4 0 0 82.68 140.86
  Q 80.69 138.94 78.07 135.24
  Q 75.38 131.43 71.01 131.17
  C 61.47 130.60 55.07 131.92 43.05 134.04
  C 39.60 134.64 37.12 136.13 36.76 140.03
  Q 35.13 158.07 35.36 163.28
  Q 35.52 166.81 36.33 180.26
  Q 36.63 185.18 40.47 186.61
  Q 49.62 190.02 61.14 188.21
  C 66.91 187.30 71.63 186.35 75.71 182.98
  Q 81.24 178.42 88.10 171.42
  C 90.92 168.55 91.42 166.94 91.37 162.99
  Z"
/>
<path fill="#000000" d="
  M 207.98 99.26
  A 0.81 0.81 0.0 0 1 206.64 98.69
  Q 206.36 93.98 207.83 88.63
  Q 208.87 84.82 208.81 76.25
  C 208.75 68.09 207.98 58.89 208.75 50.27
  Q 208.96 47.93 209.64 36.94
  C 210.09 29.57 222.79 33.72 226.28 35.74
  Q 228.87 37.24 228.91 40.78
  Q 229.15 67.91 227.42 96.54
  A 1.75 1.74 10.7 0 1 225.14 98.09
  Q 223.15 97.45 221.78 97.54
  Q 216.63 97.88 211.52 97.97
  Q 209.43 98.00 207.98 99.26
  Z"
/>
<path fill="#000000" d="
  M 63.33 97.62
  A 2.66 2.65 86.4 0 1 60.65 95.24
  Q 60.30 91.96 60.79 88.15
  Q 61.11 85.62 60.96 81.35
  C 60.33 64.40 60.06 51.55 61.97 37.34
  A 3.30 3.29 -7.3 0 1 64.01 34.71
  Q 69.56 32.49 75.44 33.33
  C 78.76 33.81 79.81 37.00 79.51 40.37
  Q 79.08 45.15 80.38 51.17
  A 13.59 13.00 40.3 0 1 80.69 54.11
  Q 80.60 69.69 80.23 78.66
  C 80.08 82.38 80.43 85.76 80.65 89.00
  C 80.84 91.67 80.96 95.73 78.48 97.13
  A 2.10 2.08 29.6 0 1 77.49 97.40
  L 63.33 97.62
  Z"
/>
<path fill="#000000" d="
  M 178.62 36.18
  A 3.32 3.31 16.2 0 1 180.04 38.76
  C 180.36 45.55 180.93 52.25 180.57 59.08
  Q 180.41 62.15 180.40 72.92
  C 180.39 78.21 181.06 83.09 180.47 88.20
  C 179.44 97.12 169.54 100.00 162.23 98.60
  A 2.50 2.49 -88.0 0 1 160.22 96.43
  C 159.73 92.14 160.67 87.26 160.70 82.65
  Q 160.78 69.62 160.53 61.93
  C 160.25 53.41 161.21 46.94 161.71 37.28
  Q 161.92 33.21 166.01 33.07
  Q 173.71 32.79 178.62 36.18
  Z"
/>
<path fill="#000000" d="
  M 111.75 34.83
  Q 121.43 32.13 130.28 36.00
  A 2.91 2.90 -80.7 0 1 132.01 38.41
  Q 132.76 47.13 132.50 54.73
  C 132.03 68.39 132.33 84.65 131.94 94.19
  A 1.92 1.92 0.0 0 1 130.10 96.03
  C 124.96 96.25 110.06 96.72 107.96 90.77
  A 2.19 2.15 37.3 0 1 107.84 89.95
  C 108.38 80.17 109.33 72.51 108.95 63.76
  Q 108.45 52.09 109.57 38.84
  Q 109.74 36.74 110.74 35.50
  A 1.99 1.95 -78.0 0 1 111.75 34.83
  Z"
/>
<path fill="#0098ce" d="
  M 228.10 168.56
  Q 228.27 164.67 227.17 161.13
  Q 227.01 160.63 227.56 159.31
  A 0.67 0.66 -52.9 0 0 227.47 158.63
  Q 227.05 158.10 226.50 158.07
  A 0.24 0.02 -74.9 0 0 226.42 158.29
  Q 226.40 158.34 226.40 158.36
  A 0.02 0.01 -43.0 0 1 226.37 158.36
  Q 226.17 154.11 227.23 150.25
  A 2.96 2.95 -35.5 0 0 227.33 149.66
  Q 227.51 145.69 226.59 142.78
  Q 226.50 142.51 226.88 142.22
  A 0.20 0.20 0.0 0 1 227.20 142.41
  Q 227.06 143.17 227.30 143.60
  A 0.18 0.18 0.0 0 0 227.63 143.51
  C 227.48 139.84 227.30 138.64 227.67 135.31
  Q 228.31 129.54 227.40 124.54
  A 0.57 0.56 42.3 0 0 226.28 124.59
  Q 225.84 130.38 225.96 134.64
  Q 226.06 137.96 225.76 141.85
  Q 225.35 147.21 225.49 149.06
  Q 225.91 154.84 225.01 162.26
  Q 224.95 162.82 223.94 171.01
  Q 223.61 173.67 224.01 176.36
  C 224.65 180.69 224.91 185.35 224.67 189.07
  Q 224.53 191.20 225.31 194.83
  A 5.48 5.46 37.8 0 1 225.43 195.76
  Q 225.64 200.91 225.71 201.79
  Q 225.83 203.36 227.73 202.80
  Q 225.19 205.48 223.87 206.12
  Q 220.94 207.52 217.17 207.89
  Q 203.48 209.22 189.90 207.29
  C 186.94 206.87 183.74 206.71 181.16 206.60
  A 13.10 13.03 39.4 0 0 177.57 206.94
  C 168.04 209.19 156.83 209.11 145.68 208.59
  C 137.69 208.23 130.64 208.51 121.78 207.36
  L 129.38 207.26
  A 0.33 0.32 -15.8 0 0 129.66 206.77
  C 124.97 199.04 122.80 194.74 126.09 185.66
  Q 127.63 181.38 128.57 176.34
  A 0.77 0.77 0.0 0 1 129.66 175.78
  L 144.18 182.57
  A 0.17 0.17 0.0 0 0 144.39 182.32
  Q 144.07 181.89 144.28 181.38
  L 146.71 184.82
  A 2.09 2.03 -89.2 0 0 147.08 185.21
  L 150.74 188.11
  A 2.83 2.78 -16.5 0 0 151.68 188.61
  Q 162.83 191.94 173.14 185.56
  A 1.73 1.71 -86.0 0 0 173.56 185.19
  L 179.58 177.95
  A 0.66 0.52 -4.7 0 1 179.73 177.81
  Q 183.49 175.19 187.24 172.51
  C 191.87 169.22 191.16 164.07 191.02 157.73
  Q 190.93 153.76 189.71 151.65
  Q 188.07 148.81 185.47 146.79
  Q 177.43 140.58 171.92 133.38
  A 2.75 2.63 -1.3 0 0 171.22 132.74
  L 168.94 131.29
  A 0.67 0.60 -21.6 0 0 168.67 131.19
  Q 163.76 130.22 155.81 130.44
  C 151.22 130.57 148.46 131.89 146.31 135.81
  Q 144.81 138.55 144.20 140.98
  Q 137.36 143.51 133.18 144.64
  Q 131.56 145.08 128.73 144.68
  A 0.71 0.70 89.9 0 1 128.13 144.07
  Q 127.85 141.87 126.19 135.45
  C 124.45 128.72 124.54 123.84 127.47 118.13
  C 128.39 116.32 128.92 114.13 129.55 112.15
  Q 133.89 110.01 135.81 109.86
  C 143.16 109.28 150.77 108.18 158.15 108.34
  A 5.62 5.54 51.1 0 1 159.20 108.46
  Q 171.54 111.11 184.06 112.57
  Q 186.27 112.83 188.25 112.48
  Q 193.80 111.49 203.01 109.58
  Q 204.87 109.20 209.38 109.96
  Q 220.37 111.81 222.78 112.01
  Q 226.15 112.30 227.22 116.32
  C 228.64 121.69 228.42 127.37 228.49 133.11
  Q 228.71 150.81 228.10 168.56
  Z"
/>
<path fill="#02cddb" d="
  M 129.55 112.15
  C 128.92 114.13 128.39 116.32 127.47 118.13
  C 124.54 123.84 124.45 128.72 126.19 135.45
  Q 127.85 141.87 128.13 144.07
  A 0.71 0.70 89.9 0 0 128.73 144.68
  Q 131.56 145.08 133.18 144.64
  Q 137.36 143.51 144.20 140.98
  Q 144.19 149.30 143.55 157.63
  Q 143.54 157.73 143.59 157.85
  Q 143.64 157.97 143.65 158.07
  A 0.08 0.06 45.1 0 1 143.51 158.05
  Q 143.47 157.85 143.44 157.64
  A 0.02 0.02 0.0 0 0 143.42 157.62
  Q 143.42 157.63 143.41 157.63
  A 0.03 0.02 -90.0 0 0 143.39 157.66
  L 143.51 171.58
  A 0.13 0.13 0.0 0 1 143.35 171.71
  Q 143.12 171.65 143.12 171.33
  Q 143.12 170.83 143.13 171.34
  Q 143.14 171.59 143.17 171.74
  Q 143.48 173.31 144.18 175.07
  A 0.06 0.06 0.0 0 0 144.30 175.04
  Q 144.19 173.88 144.40 173.88
  Q 144.23 177.48 144.59 181.06
  A 0.28 0.24 -40.9 0 1 144.57 181.20
  Q 144.47 181.42 144.28 181.38
  Q 144.07 181.89 144.39 182.32
  A 0.17 0.17 0.0 0 1 144.18 182.57
  L 129.66 175.78
  A 0.77 0.77 0.0 0 0 128.57 176.34
  Q 127.63 181.38 126.09 185.66
  C 122.80 194.74 124.97 199.04 129.66 206.77
  A 0.33 0.32 -15.8 0 1 129.38 207.26
  L 121.78 207.36
  Q 119.10 206.52 116.43 205.63
  C 111.81 204.10 109.12 202.15 110.29 197.10
  A 3.24 3.22 71.4 0 1 110.91 195.84
  Q 113.53 192.68 117.39 191.38
  Q 117.94 191.20 119.46 190.19
  Q 121.91 188.55 124.19 185.61
  Q 126.17 183.07 126.08 178.79
  A 0.83 0.82 7.0 0 0 125.46 178.01
  Q 125.42 178.00 125.29 177.98
  A 0.42 0.41 -77.0 0 1 124.95 177.43
  Q 125.28 176.46 124.70 176.49
  Q 124.82 175.65 125.46 174.82
  Q 127.76 177.70 127.14 182.07
  A 0.01 0.01 0.0 0 0 127.15 182.08
  Q 127.15 182.07 127.16 182.05
  A 0.22 0.21 61.8 0 0 127.19 181.94
  Q 127.18 176.68 128.31 167.63
  Q 129.16 160.81 127.50 152.73
  L 124.67 142.75
  Q 124.69 141.69 125.73 139.19
  Q 126.67 136.94 124.43 134.05
  A 1.07 1.07 0.0 0 0 123.56 133.63
  Q 121.03 133.64 120.15 133.04
  A 0.17 0.17 0.0 0 0 119.89 133.25
  Q 120.05 133.61 122.25 135.16
  A 0.48 0.48 0.0 0 1 121.78 135.99
  Q 121.61 135.92 121.25 134.80
  A 0.29 0.29 0.0 0 0 120.73 134.74
  Q 120.62 134.93 120.75 135.15
  A 0.08 0.08 0.0 0 1 120.63 135.25
  L 113.94 128.90
  A 1.47 1.44 19.7 0 1 113.49 127.98
  Q 113.48 127.94 113.48 127.72
  A 0.22 0.18 28.8 0 0 113.43 127.59
  L 109.40 122.87
  A 4.60 4.19 0.7 0 0 108.65 122.17
  L 106.69 120.68
  A 0.26 0.26 0.0 0 1 106.91 120.22
  Q 107.18 120.29 107.78 120.94
  A 0.39 0.39 0.0 0 0 108.45 120.70
  Q 108.46 120.63 108.39 120.47
  A 0.56 0.56 0.0 0 1 108.54 119.85
  Q 108.86 119.57 109.34 119.62
  Q 109.60 119.66 109.60 119.98
  Q 109.60 120.14 109.35 120.44
  Q 109.23 120.59 109.20 120.89
  Q 109.16 121.34 109.21 121.43
  A 0.15 0.15 0.0 0 0 109.49 121.36
  Q 109.95 117.31 112.34 115.89
  Q 112.45 115.83 112.63 115.65
  Q 112.76 115.51 112.92 115.52
  A 0.16 0.16 0.0 0 1 113.02 115.79
  L 112.48 116.33
  A 0.08 0.08 0.0 0 0 112.55 116.46
  Q 113.85 116.24 115.70 114.89
  A 0.26 0.26 0.0 0 0 115.59 114.43
  Q 115.56 114.42 114.89 114.38
  Q 122.22 113.54 129.55 112.15
  Z"
/>
<path fill="#000000" d="
  M 228.10 168.56
  Q 227.17 185.78 227.73 202.80
  Q 225.83 203.36 225.71 201.79
  Q 225.64 200.91 225.43 195.76
  A 5.48 5.46 37.8 0 0 225.31 194.83
  Q 224.53 191.20 224.67 189.07
  C 224.91 185.35 224.65 180.69 224.01 176.36
  Q 223.61 173.67 223.94 171.01
  Q 224.95 162.82 225.01 162.26
  Q 225.91 154.84 225.49 149.06
  Q 225.35 147.21 225.76 141.85
  Q 226.06 137.96 225.96 134.64
  Q 225.84 130.38 226.28 124.59
  A 0.57 0.56 42.3 0 1 227.40 124.54
  Q 228.31 129.54 227.67 135.31
  C 227.30 138.64 227.48 139.84 227.63 143.51
  A 0.18 0.18 0.0 0 1 227.30 143.60
  Q 227.06 143.17 227.20 142.41
  A 0.20 0.20 0.0 0 0 226.88 142.22
  Q 226.50 142.51 226.59 142.78
  Q 227.51 145.69 227.33 149.66
  A 2.96 2.95 -35.5 0 1 227.23 150.25
  Q 226.17 154.11 226.37 158.36
  A 0.02 0.01 -43.0 0 0 226.40 158.36
  Q 226.40 158.34 226.42 158.29
  A 0.24 0.02 -74.9 0 1 226.50 158.07
  Q 227.05 158.10 227.47 158.63
  A 0.67 0.66 -52.9 0 1 227.56 159.31
  Q 227.01 160.63 227.17 161.13
  Q 228.27 164.67 228.10 168.56
  Z"
/>
<path fill="#ffffff" d="
  M 144.28 181.38
  Q 144.47 181.42 144.57 181.20
  A 0.28 0.24 -40.9 0 0 144.59 181.06
  Q 144.23 177.48 144.40 173.88
  Q 144.19 173.88 144.30 175.04
  A 0.06 0.06 0.0 0 1 144.18 175.07
  Q 143.48 173.31 143.17 171.74
  Q 143.14 171.59 143.13 171.34
  Q 143.12 170.83 143.12 171.33
  Q 143.12 171.65 143.35 171.71
  A 0.13 0.13 0.0 0 0 143.51 171.58
  L 143.39 157.66
  A 0.03 0.02 -90.0 0 1 143.41 157.63
  Q 143.42 157.63 143.42 157.62
  A 0.02 0.02 0.0 0 1 143.44 157.64
  Q 143.47 157.85 143.51 158.05
  A 0.08 0.06 45.1 0 0 143.65 158.07
  Q 143.64 157.97 143.59 157.85
  Q 143.54 157.73 143.55 157.63
  Q 144.19 149.30 144.20 140.98
  Q 144.81 138.55 146.31 135.81
  C 148.46 131.89 151.22 130.57 155.81 130.44
  Q 163.76 130.22 168.67 131.19
  A 0.67 0.60 -21.6 0 1 168.94 131.29
  L 171.22 132.74
  A 2.75 2.63 -1.3 0 1 171.92 133.38
  Q 177.43 140.58 185.47 146.79
  Q 188.07 148.81 189.71 151.65
  Q 190.93 153.76 191.02 157.73
  C 191.16 164.07 191.87 169.22 187.24 172.51
  Q 183.49 175.19 179.73 177.81
  A 0.66 0.52 -4.7 0 0 179.58 177.95
  L 173.56 185.19
  A 1.73 1.71 -86.0 0 1 173.14 185.56
  Q 162.83 191.94 151.68 188.61
  A 2.83 2.78 -16.5 0 1 150.74 188.11
  L 147.08 185.21
  A 2.09 2.03 -89.2 0 1 146.71 184.82
  L 144.28 181.38
  Z"
/>
<path fill="#ffffff" d="
  M 87.06 147.24
  C 90.70 152.27 91.30 156.99 91.37 162.99
  C 91.42 166.94 90.92 168.55 88.10 171.42
  Q 81.24 178.42 75.71 182.98
  C 71.63 186.35 66.91 187.30 61.14 188.21
  Q 49.62 190.02 40.47 186.61
  Q 36.63 185.18 36.33 180.26
  Q 35.52 166.81 35.36 163.28
  Q 35.13 158.07 36.76 140.03
  C 37.12 136.13 39.60 134.64 43.05 134.04
  C 55.07 131.92 61.47 130.60 71.01 131.17
  Q 75.38 131.43 78.07 135.24
  Q 80.69 138.94 82.68 140.86
  A 6.12 5.93 -83.4 0 1 83.80 142.32
  Q 84.80 144.12 87.06 147.24
  Z"
/>
<path fill="#0098ce" d="
  M 125.46 174.82
  C 128.14 167.60 127.93 160.95 127.50 152.73
  Q 129.16 160.81 128.31 167.63
  Q 127.18 176.68 127.19 181.94
  A 0.22 0.21 61.8 0 1 127.16 182.05
  Q 127.15 182.07 127.15 182.08
  A 0.01 0.01 0.0 0 1 127.14 182.07
  Q 127.76 177.70 125.46 174.82
  Z"
/>
<path fill="#000000" d="
  M 246.32 197.79
  Q 247.57 200.92 247.12 203.11
  A 1.38 1.38 0.0 0 1 245.39 204.16
  Q 242.17 203.26 242.01 199.70
  Q 241.81 195.26 242.46 190.41
  A 0.58 0.58 0.0 0 1 243.10 189.90
  C 244.64 190.07 245.62 188.89 247.09 189.60
  Q 249.26 190.65 247.55 194.58
  Q 246.93 196.00 246.15 196.21
  Q 245.73 196.32 246.32 197.79
  Z"
/>
</svg>