<?xml version="1.0" encoding="UTF-8" standalone="no"?>
<!DOCTYPE svg PUBLIC "-//W3C//DTD SVG 1.1//EN" "http://www.w3.org/Graphics/SVG/1.1/DTD/svg11.dtd">
<svg xmlns="http://www.w3.org/2000/svg" version="1.1" viewBox="0.00 0.00 192.00 192.00" width="128" height="128">
<path fill="#2bc3f1" d="
  M 38.21 0.00
  Q 47.52 1.83 47.48 11.00
  Q 47.40 29.04 47.50 34.12
  Q 47.60 39.06 46.83 40.81
  C 44.14 46.90 39.85 47.65 32.68 47.53
  Q 21.68 47.35 14.15 47.56
  C 6.80 47.77 1.63 46.05 0.00 38.56
  L 0.00 8.90
  Q 1.62 1.40 9.19 0.00
  L 38.21 0.00
  Z"
/>
<path fill="#2bc3f1" d="
  M 182.72 0.00
  Q 190.41 1.33 192.00 9.01
  L 192.00 38.46
  Q 190.02 47.51 181.00 47.51
  Q 133.93 47.49 86.77 47.50
  Q 79.68 47.50 77.49 46.23
  Q 73.61 43.99 72.40 38.96
  A 3.87 3.81 38.9 0 1 72.30 38.09
  Q 72.31 16.34 72.24 14.90
  C 71.88 7.22 73.43 1.59 81.45 0.00
  L 182.72 0.00
  Z"
/>
<path fill="#5190ef" d="
  M 192.00 81.43
  L 192.00 110.64
  Q 189.97 119.75 180.25 119.75
  Q 95.63 119.74 11.00 119.76
  Q 2.01 119.76 0.00 110.78
  L 0.00 81.14
  Q 2.08 72.24 11.00 72.25
  Q 95.75 72.26 180.50 72.19
  Q 190.04 72.18 192.00 81.43
  Z"
/>
<path fill="#4d68c4" d="
  M 110.58 192.00
  L 9.32 192.00
  Q 1.77 190.78 0.00 183.21
  L 0.00 153.55
  Q 1.07 148.22 5.06 145.96
  Q 7.71 144.46 14.21 144.47
  Q 81.57 144.59 105.58 144.47
  C 113.08 144.43 117.83 145.82 119.58 153.06
  A 3.21 3.15 39.3 0 1 119.67 153.89
  Q 119.65 164.38 119.78 178.42
  Q 119.83 184.28 118.19 187.06
  Q 115.87 191.00 110.58 192.00
  Z"
/>
<path fill="#4d68c4" d="
  M 192.00 153.43
  L 192.00 183.10
  Q 190.34 190.62 182.82 192.00
  L 153.84 192.00
  C 146.36 190.72 144.39 185.68 144.46 178.42
  Q 144.62 163.18 144.50 158.18
  Q 144.34 151.73 145.96 149.48
  C 148.74 145.59 151.69 144.42 156.83 144.49
  Q 166.56 144.62 176.86 144.44
  C 184.71 144.31 190.17 145.34 192.00 153.43
  Z"
/>
</svg>