<?xml version="1.0" encoding="UTF-8" standalone="no"?>
<!DOCTYPE svg PUBLIC "-//W3C//DTD SVG 1.1//EN" "http://www.w3.org/Graphics/SVG/1.1/DTD/svg11.dtd">
<svg xmlns="http://www.w3.org/2000/svg" version="1.1" viewBox="0.00 0.00 256.00 256.00" width="128" height="128">
<g stroke-width="2.00" fill="none" stroke-linecap="butt">
<path stroke="#90e4c5" vector-effect="non-scaling-stroke" d="
  M 196.3718 66.5247
  A 13.54 13.54 0.0 0 0 182.8081 53.0084
  L 66.2283 53.2119
  A 13.54 13.54 0.0 0 0 52.7120 66.7755
  L 52.9282 190.6953
  A 13.54 13.54 0.0 0 0 66.4919 204.2116
  L 183.0717 204.0081
  A 13.54 13.54 0.0 0 0 196.5880 190.4445
  L 196.3718 66.5247"
/>
<path stroke="#90e4c5" vector-effect="non-scaling-stroke" d="
  M 82.30 96.62
  Q 82.31 99.30 82.77 100.83
  A 3.08 3.06 87.6 0 0 85.06 102.95
  Q 87.01 103.38 89.25 103.47
  Q 104.19 104.12 124.95 104.07
  Q 145.71 104.03 160.65 103.32
  Q 162.89 103.22 164.84 102.78
  A 3.08 3.06 -87.8 0 0 167.12 100.64
  Q 167.57 99.12 167.57 96.43
  Q 167.56 93.74 167.11 92.22
  A 3.08 3.06 87.6 0 0 164.81 90.10
  Q 162.86 89.67 160.62 89.57
  Q 145.68 88.93 124.92 88.98
  Q 104.16 89.02 89.22 89.73
  Q 86.98 89.83 85.03 90.27
  A 3.08 3.06 -87.8 0 0 82.75 92.40
  Q 82.30 93.93 82.30 96.62"
/>
<path stroke="#90e4c5" vector-effect="non-scaling-stroke" d="
  M 82.38 128.52
  Q 82.38 131.32 83.16 132.91
  A 4.22 3.98 -79.7 0 0 83.70 133.74
  Q 84.57 134.75 88.00 134.92
  Q 129.01 136.96 161.43 135.20
  C 167.20 134.89 167.39 134.09 167.39 128.51
  C 167.39 122.92 167.19 122.13 161.43 121.82
  Q 129.01 120.06 88.00 122.11
  Q 84.57 122.28 83.70 123.29
  A 4.22 3.98 79.7 0 0 83.16 124.13
  Q 82.38 125.71 82.38 128.52"
/>
<path stroke="#90e4c5" vector-effect="non-scaling-stroke" d="
  M 103.53 156.64
  Q 102.93 158.82 102.85 161.24
  C 102.67 167.18 107.87 166.86 111.97 166.60
  Q 113.45 166.51 116.53 166.84
  Q 131.44 168.41 145.28 166.57
  Q 146.46 166.42 147.94 165.12
  A 1.78 1.76 77.3 0 0 148.50 164.22
  Q 149.68 159.80 147.99 155.68
  A 1.80 1.79 -84.7 0 0 147.33 154.88
  Q 145.66 153.76 144.52 153.79
  Q 130.65 154.22 115.75 154.15
  Q 111.45 154.12 106.05 154.55
  A 2.86 2.85 -84.6 0 0 103.53 156.64"
/>
</g>
<path fill="#20c98b" d="
  M 184.49 0.00
  C 191.00 0.24 197.48 0.05 203.62 2.64
  Q 213.19 6.67 222.29 12.20
  C 237.68 21.55 248.24 36.73 253.78 53.49
  C 255.99 60.17 255.70 66.42 256.00 73.24
  L 256.00 84.23
  Q 255.53 87.47 254.96 90.69
  Q 254.67 92.32 250.02 102.13
  C 247.83 106.73 245.14 110.33 242.99 114.87
  A 10.78 10.76 76.9 0 1 241.69 116.96
  C 238.28 121.26 233.28 126.78 236.62 132.60
  C 237.64 134.36 238.77 136.67 239.91 138.31
  Q 245.76 146.80 250.06 154.69
  Q 253.59 161.16 255.20 168.17
  C 256.11 172.17 255.77 177.95 256.00 182.64
  L 256.00 192.74
  Q 255.49 198.09 254.99 199.73
  C 251.80 210.19 246.75 221.20 239.68 229.58
  Q 235.23 234.85 234.37 235.64
  Q 221.15 247.73 204.16 253.37
  Q 199.46 254.93 193.38 255.41
  Q 187.89 255.84 182.35 256.00
  L 43.01 256.00
  Q 36.84 255.80 33.38 254.39
  Q 22.35 249.93 13.07 239.92
  Q 6.96 233.32 1.35 221.38
  Q 0.48 219.53 0.00 214.34
  L 0.00 49.52
  Q 0.23 39.95 2.16 35.15
  Q 12.22 10.16 37.53 0.83
  Q 38.70 0.40 42.41 0.00
  L 184.49 0.00
  Z
  M 196.3718 66.5247
  A 13.54 13.54 0.0 0 0 182.8081 53.0084
  L 66.2283 53.2119
  A 13.54 13.54 0.0 0 0 52.7120 66.7755
  L 52.9282 190.6953
  A 13.54 13.54 0.0 0 0 66.4919 204.2116
  L 183.0717 204.0081
  A 13.54 13.54 0.0 0 0 196.5880 190.4445
  L 196.3718 66.5247
  Z"
/>
<path fill="#ffffff" d="
  M 196.5880 190.4445
  A 13.54 13.54 0.0 0 1 183.0717 204.0081
  L 66.4919 204.2116
  A 13.54 13.54 0.0 0 1 52.9282 190.6953
  L 52.7120 66.7755
  A 13.54 13.54 0.0 0 1 66.2283 53.2119
  L 182.8081 53.0084
  A 13.54 13.54 0.0 0 1 196.3718 66.5247
  L 196.5880 190.4445
  Z
  M 82.30 96.62
  Q 82.31 99.30 82.77 100.83
  A 3.08 3.06 87.6 0 0 85.06 102.95
  Q 87.01 103.38 89.25 103.47
  Q 104.19 104.12 124.95 104.07
  Q 145.71 104.03 160.65 103.32
  Q 162.89 103.22 164.84 102.78
  A 3.08 3.06 -87.8 0 0 167.12 100.64
  Q 167.57 99.12 167.57 96.43
  Q 167.56 93.74 167.11 92.22
  A 3.08 3.06 87.6 0 0 164.81 90.10
  Q 162.86 89.67 160.62 89.57
  Q 145.68 88.93 124.92 88.98
  Q 104.16 89.02 89.22 89.73
  Q 86.98 89.83 85.03 90.27
  A 3.08 3.06 -87.8 0 0 82.75 92.40
  Q 82.30 93.93 82.30 96.62
  Z
  M 82.38 128.52
  Q 82.38 131.32 83.16 132.91
  A 4.22 3.98 -79.7 0 0 83.70 133.74
  Q 84.57 134.75 88.00 134.92
  Q 129.01 136.96 161.43 135.20
  C 167.20 134.89 167.39 134.09 167.39 128.51
  C 167.39 122.92 167.19 122.13 161.43 121.82
  Q 129.01 120.06 88.00 122.11
  Q 84.57 122.28 83.70 123.29
  A 4.22 3.98 79.7 0 0 83.16 124.13
  Q 82.38 125.71 82.38 128.52
  Z
  M 103.53 156.64
  Q 102.93 158.82 102.85 161.24
  C 102.67 167.18 107.87 166.86 111.97 166.60
  Q 113.45 166.51 116.53 166.84
  Q 131.44 168.41 145.28 166.57
  Q 146.46 166.42 147.94 165.12
  A 1.78 1.76 77.3 0 0 148.50 164.22
  Q 149.68 159.80 147.99 155.68
  A 1.80 1.79 -84.7 0 0 147.33 154.88
  Q 145.66 153.76 144.52 153.79
  Q 130.65 154.22 115.75 154.15
  Q 111.45 154.12 106.05 154.55
  A 2.86 2.85 -84.6 0 0 103.53 156.64
  Z"
/>
<path fill="#20c98b" d="
  M 124.92 88.98
  Q 145.68 88.93 160.62 89.57
  Q 162.86 89.67 164.81 90.10
  A 3.08 3.06 87.6 0 1 167.11 92.22
  Q 167.56 93.74 167.57 96.43
  Q 167.57 99.12 167.12 100.64
  A 3.08 3.06 -87.8 0 1 164.84 102.78
  Q 162.89 103.22 160.65 103.32
  Q 145.71 104.03 124.95 104.07
  Q 104.19 104.12 89.25 103.47
  Q 87.01 103.38 85.06 102.95
  A 3.08 3.06 87.6 0 1 82.77 100.83
  Q 82.31 99.30 82.30 96.62
  Q 82.30 93.93 82.75 92.40
  A 3.08 3.06 -87.8 0 1 85.03 90.27
  Q 86.98 89.83 89.22 89.73
  Q 104.16 89.02 124.92 88.98
  Z"
/>
<path fill="#20c98b" d="
  M 167.39 128.51
  C 167.39 134.09 167.20 134.89 161.43 135.20
  Q 129.01 136.96 88.00 134.92
  Q 84.57 134.75 83.70 133.74
  A 4.22 3.98 -79.7 0 1 83.16 132.91
  Q 82.38 131.32 82.38 128.52
  Q 82.38 125.71 83.16 124.13
  A 4.22 3.98 79.7 0 1 83.70 123.29
  Q 84.57 122.28 88.00 122.11
  Q 129.01 120.06 161.43 121.82
  C 167.19 122.13 167.39 122.92 167.39 128.51
  Z"
/>
<path fill="#20c98b" d="
  M 103.53 156.64
  A 2.86 2.85 -84.6 0 1 106.05 154.55
  Q 111.45 154.12 115.75 154.15
  Q 130.65 154.22 144.52 153.79
  Q 145.66 153.76 147.33 154.88
  A 1.80 1.79 -84.7 0 1 147.99 155.68
  Q 149.68 159.80 148.50 164.22
  A 1.78 1.76 77.3 0 1 147.94 165.12
  Q 146.46 166.42 145.28 166.57
  Q 131.44 168.41 116.53 166.84
  Q 113.45 166.51 111.97 166.60
  C 107.87 166.86 102.67 167.18 102.85 161.24
  Q 102.93 158.82 103.53 156.64
  Z"
/>
</svg>