<?xml version="1.0" encoding="UTF-8" standalone="no"?>
<!DOCTYPE svg PUBLIC "-//W3C//DTD SVG 1.1//EN" "http://www.w3.org/Graphics/SVG/1.1/DTD/svg11.dtd">
<svg xmlns="http://www.w3.org/2000/svg" version="1.1" viewBox="0.00 0.00 256.00 256.00" width="128" height="128">
<path fill="#0c0d10" d="
  M 130.38 116.53
  Q 130.49 116.53 130.67 116.41
  Q 133.09 114.81 135.62 116.33
  A 0.92 0.91 -46.3 0 0 136.63 116.30
  Q 138.30 115.15 140.19 115.85
  A 0.33 0.33 0.0 0 0 140.61 115.43
  Q 139.88 113.50 141.03 111.93
  A 0.80 0.79 50.2 0 0 141.10 111.10
  Q 139.44 107.73 141.51 105.78
  Q 144.60 102.87 148.72 98.78
  A 0.39 0.38 48.0 0 0 148.74 98.27
  Q 133.31 79.53 132.97 55.01
  C 132.77 41.06 137.50 26.63 147.66 16.81
  A 2.09 1.99 12.0 0 1 148.41 16.35
  Q 150.68 15.55 152.59 16.73
  A 0.88 0.88 0.0 0 0 153.54 16.72
  Q 155.76 15.25 158.08 16.70
  A 0.91 0.91 0.0 0 0 158.94 16.74
  C 163.24 14.65 167.07 17.96 164.95 22.37
  A 1.26 1.24 42.7 0 0 165.01 23.57
  Q 166.01 25.23 165.38 26.76
  A 0.42 0.41 -86.3 0 0 165.87 27.32
  Q 167.95 26.74 169.31 27.76
  A 0.96 0.95 -40.3 0 0 170.35 27.84
  C 174.58 25.53 178.41 29.25 176.19 33.61
  A 0.88 0.85 41.9 0 0 176.25 34.49
  Q 177.25 35.95 176.72 37.98
  A 0.36 0.35 85.9 0 0 177.20 38.40
  Q 178.82 37.71 180.83 38.89
  A 0.91 0.89 -46.4 0 0 181.78 38.86
  Q 183.63 37.64 185.33 38.37
  Q 189.65 40.23 187.52 44.62
  A 1.07 1.06 46.0 0 0 187.51 45.51
  Q 188.20 47.00 188.27 48.02
  Q 189.31 62.18 183.62 75.48
  A 0.30 0.30 0.0 0 0 184.01 75.87
  Q 198.05 70.15 212.85 71.36
  A 0.98 0.93 59.0 0 1 213.25 71.47
  L 214.63 72.13
  A 1.00 0.97 -45.7 0 0 215.51 72.11
  C 219.75 69.83 223.57 73.46 221.41 77.85
  A 0.99 0.97 -49.2 0 0 221.47 78.84
  Q 222.56 80.50 221.85 82.17
  A 0.37 0.37 0.0 0 0 222.29 82.67
  Q 224.52 82.10 225.88 83.15
  A 0.82 0.81 -40.6 0 0 226.77 83.21
  C 230.18 81.29 233.76 83.36 233.33 87.35
  C 233.27 87.94 232.81 88.43 232.60 88.95
  A 0.94 0.91 38.5 0 0 232.72 89.86
  Q 233.86 91.40 233.10 93.36
  A 0.34 0.34 0.0 0 0 233.53 93.80
  Q 235.54 93.07 237.21 94.22
  A 0.93 0.92 -42.4 0 0 238.18 94.26
  C 241.69 92.23 244.93 94.63 244.68 98.41
  A 1.50 1.34 -32.3 0 1 244.52 98.97
  L 243.96 100.06
  A 0.82 0.81 42.4 0 0 244.00 100.88
  Q 245.51 103.20 244.02 105.43
  A 0.90 0.90 0.0 0 0 244.02 106.41
  Q 244.93 107.78 244.70 109.53
  A 2.22 2.18 66.2 0 1 244.36 110.43
  Q 243.30 112.01 241.15 113.69
  C 217.56 132.21 183.43 127.66 160.99 110.24
  A 0.74 0.74 0.0 0 0 160.04 110.28
  Q 156.39 113.69 153.74 116.51
  Q 151.05 119.38 147.75 117.50
  A 0.81 0.81 0.0 0 0 146.89 117.54
  Q 145.27 118.67 143.24 117.98
  A 0.31 0.31 0.0 0 0 142.85 118.38
  Q 143.53 120.35 142.31 122.05
  A 0.71 0.71 0.0 0 0 142.31 122.87
  Q 143.96 125.22 142.22 127.73
  Q 142.20 127.77 142.20 128.01
  Q 142.20 128.25 142.22 128.29
  Q 143.96 130.79 142.31 133.14
  A 0.71 0.71 0.0 0 0 142.31 133.96
  Q 143.53 135.66 142.85 137.63
  A 0.31 0.31 0.0 0 0 143.24 138.03
  Q 145.27 137.34 146.89 138.48
  A 0.81 0.81 0.0 0 0 147.75 138.52
  Q 151.05 136.64 153.74 139.51
  Q 156.39 142.33 160.04 145.74
  A 0.74 0.74 0.0 0 0 160.99 145.78
  C 183.43 128.37 217.57 123.83 241.15 142.35
  Q 243.30 144.03 244.36 145.61
  A 2.22 2.18 -66.2 0 1 244.70 146.52
  Q 244.93 148.27 244.02 149.63
  A 0.90 0.90 0.0 0 0 244.02 150.61
  Q 245.51 152.85 244.00 155.16
  A 0.82 0.81 -42.4 0 0 243.96 155.98
  L 244.52 157.08
  A 1.50 1.34 32.3 0 1 244.68 157.64
  C 244.92 161.42 241.68 163.81 238.17 161.78
  A 0.93 0.92 42.4 0 0 237.20 161.82
  Q 235.53 162.97 233.52 162.24
  A 0.34 0.34 0.0 0 0 233.09 162.68
  Q 233.85 164.64 232.71 166.18
  A 0.94 0.91 -38.5 0 0 232.59 167.09
  C 232.80 167.61 233.26 168.10 233.32 168.69
  C 233.75 172.68 230.17 174.75 226.76 172.83
  A 0.82 0.81 40.6 0 0 225.87 172.89
  Q 224.51 173.94 222.28 173.37
  A 0.37 0.37 0.0 0 0 221.84 173.87
  Q 222.55 175.54 221.46 177.20
  A 0.99 0.97 49.2 0 0 221.40 178.19
  C 223.56 182.58 219.74 186.21 215.50 183.93
  A 1.00 0.97 45.7 0 0 214.62 183.91
  L 213.24 184.57
  A 0.98 0.93 -58.9 0 1 212.84 184.68
  Q 198.04 185.88 184.00 180.16
  A 0.30 0.30 0.0 0 0 183.61 180.55
  Q 189.29 193.85 188.25 208.01
  Q 188.18 209.03 187.49 210.52
  A 1.07 1.06 -46.0 0 0 187.50 211.41
  Q 189.63 215.80 185.31 217.66
  Q 183.61 218.39 181.76 217.17
  A 0.91 0.89 46.4 0 0 180.81 217.14
  Q 178.80 218.31 177.18 217.62
  A 0.36 0.35 -85.9 0 0 176.70 218.04
  Q 177.23 220.07 176.23 221.53
  A 0.88 0.85 -41.9 0 0 176.17 222.41
  C 178.38 226.77 174.55 230.49 170.32 228.18
  A 0.96 0.95 40.3 0 0 169.28 228.26
  Q 167.92 229.28 165.84 228.70
  A 0.42 0.41 86.4 0 0 165.35 229.26
  Q 165.98 230.79 164.98 232.45
  A 1.26 1.24 -42.7 0 0 164.92 233.65
  C 167.04 238.06 163.21 241.37 158.91 239.28
  A 0.91 0.91 0.0 0 0 158.05 239.32
  Q 155.73 240.77 153.51 239.30
  A 0.88 0.88 0.0 0 0 152.56 239.29
  Q 150.65 240.47 148.38 239.67
  A 2.09 1.99 -12.0 0 1 147.63 239.21
  C 137.47 229.38 132.75 214.95 132.95 201.00
  Q 133.30 176.48 148.74 157.75
  A 0.39 0.38 -48.0 0 0 148.72 157.24
  Q 144.60 153.14 141.51 150.23
  Q 139.44 148.28 141.10 144.91
  A 0.80 0.79 -50.2 0 0 141.03 144.08
  Q 139.88 142.51 140.61 140.58
  A 0.33 0.33 0.0 0 0 140.19 140.16
  Q 138.30 140.86 136.63 139.71
  A 0.92 0.91 46.3 0 0 135.62 139.68
  Q 133.09 141.20 130.67 139.60
  Q 130.49 139.48 130.38 139.48
  Q 130.26 139.48 130.08 139.60
  Q 127.66 141.20 125.13 139.68
  A 0.92 0.91 -46.3 0 0 124.12 139.71
  Q 122.45 140.86 120.56 140.16
  A 0.33 0.33 0.0 0 0 120.14 140.58
  Q 120.87 142.51 119.72 144.08
  A 0.80 0.79 50.2 0 0 119.65 144.91
  Q 121.31 148.28 119.24 150.23
  Q 116.15 153.14 112.03 157.23
  A 0.39 0.38 48.0 0 0 112.01 157.74
  Q 127.44 176.48 127.78 201.00
  C 127.98 214.95 123.25 229.38 113.09 239.20
  A 2.09 1.99 12.0 0 1 112.34 239.66
  Q 110.07 240.46 108.16 239.28
  A 0.88 0.88 0.0 0 0 107.21 239.29
  Q 104.99 240.76 102.67 239.31
  A 0.91 0.91 0.0 0 0 101.81 239.27
  C 97.51 241.36 93.68 238.05 95.80 233.64
  A 1.26 1.24 42.7 0 0 95.74 232.44
  Q 94.74 230.78 95.37 229.25
  A 0.42 0.41 -86.3 0 0 94.88 228.69
  Q 92.80 229.27 91.44 228.25
  A 0.96 0.95 -40.3 0 0 90.40 228.17
  C 86.17 230.48 82.34 226.76 84.56 222.40
  A 0.88 0.85 41.9 0 0 84.50 221.52
  Q 83.50 220.06 84.03 218.03
  A 0.36 0.35 85.9 0 0 83.55 217.61
  Q 81.93 218.30 79.92 217.12
  A 0.91 0.89 -46.4 0 0 78.97 217.15
  Q 77.12 218.37 75.42 217.64
  Q 71.10 215.78 73.23 211.39
  A 1.07 1.06 46.0 0 0 73.24 210.50
  Q 72.55 209.01 72.48 207.99
  Q 71.44 193.83 77.13 180.53
  A 0.30 0.30 0.0 0 0 76.74 180.14
  Q 62.70 185.86 47.90 184.65
  A 0.98 0.93 59.0 0 1 47.50 184.54
  L 46.12 183.88
  A 1.00 0.97 -45.7 0 0 45.24 183.90
  C 41.00 186.18 37.18 182.55 39.34 178.16
  A 0.99 0.97 -49.2 0 0 39.28 177.17
  Q 38.19 175.51 38.90 173.84
  A 0.37 0.37 0.0 0 0 38.46 173.34
  Q 36.23 173.91 34.87 172.86
  A 0.82 0.81 -40.6 0 0 33.98 172.80
  C 30.57 174.72 26.99 172.65 27.42 168.66
  C 27.48 168.07 27.94 167.58 28.15 167.06
  A 0.94 0.91 38.5 0 0 28.03 166.15
  Q 26.89 164.61 27.65 162.65
  A 0.34 0.34 0.0 0 0 27.22 162.21
  Q 25.21 162.94 23.54 161.79
  A 0.93 0.92 -42.4 0 0 22.57 161.75
  C 19.06 163.78 15.82 161.38 16.07 157.60
  A 1.50 1.34 -32.3 0 1 16.23 157.04
  L 16.79 155.95
  A 0.82 0.81 42.4 0 0 16.75 155.13
  Q 15.24 152.81 16.73 150.58
  A 0.90 0.90 0.0 0 0 16.73 149.60
  Q 15.82 148.23 16.05 146.48
  A 2.22 2.18 66.2 0 1 16.39 145.58
  Q 17.45 144.00 19.60 142.32
  C 43.19 123.80 77.32 128.35 99.76 145.77
  A 0.74 0.74 0.0 0 0 100.71 145.73
  Q 104.36 142.32 107.01 139.50
  Q 109.70 136.63 113.00 138.51
  A 0.81 0.81 0.0 0 0 113.86 138.47
  Q 115.48 137.34 117.51 138.03
  A 0.31 0.31 0.0 0 0 117.90 137.63
  Q 117.22 135.66 118.44 133.96
  A 0.71 0.71 0.0 0 0 118.44 133.14
  Q 116.79 130.79 118.53 128.28
  Q 118.56 128.24 118.56 128.00
  Q 118.56 127.76 118.53 127.72
  Q 116.79 125.22 118.44 122.87
  A 0.71 0.71 0.0 0 0 118.44 122.05
  Q 117.22 120.35 117.90 118.38
  A 0.31 0.31 0.0 0 0 117.51 117.98
  Q 115.48 118.67 113.86 117.54
  A 0.81 0.81 0.0 0 0 113.00 117.50
  Q 109.70 119.37 107.01 116.50
  Q 104.36 113.68 100.72 110.27
  A 0.74 0.74 0.0 0 0 99.77 110.23
  C 77.32 127.64 43.19 132.18 19.60 113.66
  Q 17.45 111.98 16.40 110.40
  A 2.22 2.18 -66.2 0 1 16.06 109.50
  Q 15.83 107.75 16.74 106.38
  A 0.90 0.90 0.0 0 0 16.74 105.40
  Q 15.25 103.17 16.76 100.85
  A 0.82 0.81 -42.4 0 0 16.80 100.03
  L 16.24 98.94
  A 1.50 1.34 32.3 0 1 16.08 98.38
  C 15.83 94.60 19.07 92.20 22.58 94.23
  A 0.93 0.92 42.4 0 0 23.55 94.19
  Q 25.22 93.04 27.23 93.77
  A 0.34 0.34 0.0 0 0 27.66 93.33
  Q 26.90 91.37 28.04 89.83
  A 0.94 0.91 -38.5 0 0 28.16 88.92
  C 27.95 88.40 27.49 87.91 27.43 87.32
  C 27.00 83.33 30.58 81.26 33.99 83.18
  A 0.82 0.81 40.6 0 0 34.88 83.12
  Q 36.24 82.07 38.47 82.64
  A 0.37 0.37 0.0 0 0 38.91 82.14
  Q 38.20 80.47 39.30 78.81
  A 0.99 0.97 49.2 0 0 39.36 77.82
  C 37.20 73.43 41.02 69.80 45.26 72.09
  A 1.00 0.97 45.7 0 0 46.14 72.11
  L 47.52 71.45
  A 0.98 0.93 -58.9 0 1 47.92 71.34
  Q 62.72 70.13 76.76 75.85
  A 0.30 0.30 0.0 0 0 77.15 75.46
  Q 71.46 62.16 72.50 48.00
  Q 72.57 46.98 73.27 45.49
  A 1.07 1.06 -46.0 0 0 73.26 44.60
  Q 71.13 40.21 75.45 38.35
  Q 77.15 37.62 79.00 38.85
  A 0.91 0.89 46.4 0 0 79.95 38.88
  Q 81.96 37.70 83.58 38.39
  A 0.36 0.35 -85.9 0 0 84.06 37.97
  Q 83.53 35.94 84.53 34.48
  A 0.88 0.85 -41.9 0 0 84.59 33.60
  C 82.37 29.24 86.20 25.52 90.43 27.83
  A 0.96 0.95 40.3 0 0 91.47 27.75
  Q 92.83 26.73 94.91 27.31
  A 0.42 0.41 86.4 0 0 95.40 26.75
  Q 94.77 25.22 95.77 23.56
  A 1.26 1.24 -42.7 0 0 95.83 22.36
  C 93.71 17.95 97.54 14.64 101.84 16.73
  A 0.91 0.91 0.0 0 0 102.70 16.69
  Q 105.02 15.24 107.24 16.71
  A 0.88 0.88 0.0 0 0 108.19 16.72
  Q 110.10 15.54 112.37 16.35
  A 2.09 1.99 -12.0 0 1 113.12 16.81
  C 123.28 26.63 128.01 41.06 127.80 55.01
  Q 127.45 79.53 112.02 98.27
  A 0.39 0.38 -48.0 0 0 112.04 98.78
  Q 116.16 102.87 119.25 105.78
  Q 121.32 107.73 119.66 111.10
  A 0.80 0.79 -50.2 0 0 119.72 111.93
  Q 120.87 113.50 120.14 115.43
  A 0.33 0.33 0.0 0 0 120.56 115.85
  Q 122.45 115.15 124.12 116.30
  A 0.92 0.91 46.3 0 0 125.13 116.33
  Q 127.66 114.81 130.09 116.41
  Q 130.27 116.53 130.38 116.53
  Z
  M 97.48 29.96
  Q 98.15 31.63 97.03 33.34
  A 1.03 1.02 46.7 0 0 97.00 34.42
  L 97.57 35.41
  A 0.90 0.84 30.7 0 1 97.68 35.79
  C 97.97 39.65 94.60 41.94 91.17 40.00
  A 0.93 0.91 -45.6 0 0 90.23 40.02
  Q 88.56 41.08 86.68 40.45
  A 0.38 0.37 0.1 0 0 86.20 40.92
  Q 86.82 42.78 85.73 44.35
  A 0.98 0.97 -43.0 0 0 85.69 45.39
  L 86.19 46.26
  A 1.60 1.55 -58.2 0 1 86.39 47.17
  C 85.14 63.46 90.73 78.88 101.95 90.45
  A 0.52 0.52 0.0 0 0 102.74 90.41
  C 115.80 73.26 119.42 48.61 107.04 29.88
  A 0.96 0.95 67.2 0 0 106.05 29.47
  Q 103.83 29.93 102.47 28.91
  A 0.81 0.81 0.0 0 0 101.47 28.94
  Q 100.16 30.04 98.01 29.38
  A 0.44 0.44 0.0 0 0 97.48 29.96
  Z
  M 163.02 29.99
  A 0.44 0.44 0.0 0 0 162.49 29.41
  Q 160.34 30.07 159.03 28.97
  A 0.81 0.80 46.6 0 0 158.03 28.94
  Q 156.67 29.96 154.45 29.50
  A 0.96 0.95 -67.2 0 0 153.46 29.91
  C 141.09 48.64 144.71 73.28 157.77 90.42
  A 0.52 0.52 0.0 0 0 158.56 90.46
  C 169.77 78.90 175.36 63.48 174.11 47.20
  A 1.60 1.55 58.2 0 1 174.31 46.29
  L 174.81 45.42
  A 0.97 0.97 0.0 0 0 174.77 44.38
  Q 173.68 42.81 174.30 40.95
  A 0.38 0.37 -0.2 0 0 173.82 40.48
  Q 171.94 41.11 170.27 40.05
  A 0.93 0.91 45.6 0 0 169.33 40.03
  C 165.90 41.97 162.53 39.68 162.82 35.82
  A 0.90 0.84 -30.7 0 1 162.93 35.44
  L 163.50 34.45
  A 1.03 1.02 -46.7 0 0 163.47 33.37
  Q 162.35 31.66 163.02 29.99
  Z
  M 30.17 95.68
  A 0.33 0.33 0.0 0 0 29.72 96.08
  Q 30.36 98.22 29.19 99.86
  A 0.68 0.67 -47.4 0 0 29.22 100.69
  Q 30.29 101.97 29.77 103.96
  A 1.02 1.01 -66.3 0 0 30.20 105.08
  C 49.30 117.29 74.29 113.63 91.88 100.96
  A 0.63 0.62 48.1 0 0 91.93 100.00
  Q 77.01 86.31 56.50 84.89
  Q 54.24 84.74 48.22 84.88
  A 3.36 3.32 -30.8 0 1 46.45 84.44
  Q 46.44 84.44 46.19 84.25
  A 0.95 0.94 47.4 0 0 45.10 84.20
  Q 43.37 85.30 41.46 84.70
  A 0.35 0.35 0.0 0 0 41.02 85.15
  Q 41.69 87.14 40.54 88.62
  A 0.85 0.83 -42.7 0 0 40.49 89.58
  C 43.12 93.73 38.86 97.25 34.69 95.29
  A 1.05 1.02 41.4 0 0 33.69 95.34
  Q 31.92 96.43 30.17 95.68
  Z
  M 230.39 95.66
  Q 228.64 96.41 226.86 95.32
  A 1.05 1.03 -41.5 0 0 225.86 95.27
  C 221.69 97.24 217.42 93.72 220.05 89.56
  A 0.85 0.83 42.7 0 0 220.00 88.60
  Q 218.84 87.12 219.51 85.12
  A 0.35 0.35 0.0 0 0 219.07 84.67
  Q 217.16 85.28 215.42 84.18
  A 0.95 0.94 -47.4 0 0 214.33 84.23
  Q 214.08 84.42 214.07 84.42
  A 3.36 3.33 30.7 0 1 212.30 84.86
  Q 206.27 84.73 204.01 84.88
  Q 183.47 86.33 168.54 100.05
  A 0.63 0.62 -48.2 0 0 168.59 101.02
  C 186.22 113.69 211.25 117.32 230.37 105.07
  A 1.03 1.02 66.3 0 0 230.80 103.95
  Q 230.28 101.96 231.35 100.67
  A 0.68 0.67 47.4 0 0 231.38 99.84
  Q 230.20 98.20 230.84 96.06
  A 0.33 0.33 0.0 0 0 230.39 95.66
  Z
  M 30.08 160.05
  Q 31.83 159.30 33.61 160.39
  A 1.05 1.02 -41.5 0 0 34.61 160.44
  C 38.77 158.48 43.04 162.00 40.41 166.15
  A 0.85 0.83 42.7 0 0 40.46 167.11
  Q 41.61 168.59 40.94 170.59
  A 0.35 0.35 0.0 0 0 41.38 171.04
  Q 43.29 170.43 45.03 171.53
  A 0.95 0.94 -47.4 0 0 46.12 171.48
  Q 46.37 171.29 46.38 171.29
  A 3.36 3.32 30.8 0 1 48.15 170.85
  Q 54.17 170.99 56.43 170.84
  Q 76.95 169.40 91.88 155.71
  A 0.63 0.62 -48.1 0 0 91.83 154.74
  C 74.22 142.07 49.22 138.42 30.11 150.65
  A 1.03 1.02 66.3 0 0 29.68 151.77
  Q 30.20 153.76 29.13 155.04
  A 0.68 0.67 47.4 0 0 29.09 155.87
  Q 30.27 157.51 29.63 159.65
  A 0.33 0.33 0.0 0 0 30.08 160.05
  Z
  M 230.31 160.01
  A 0.33 0.33 0.0 0 0 230.76 159.61
  Q 230.12 157.47 231.29 155.83
  A 0.68 0.67 -47.5 0 0 231.26 155.00
  Q 230.19 153.72 230.71 151.73
  A 1.02 1.01 -66.4 0 0 230.28 150.61
  C 211.17 138.42 186.18 142.09 168.60 154.77
  A 0.63 0.62 48.1 0 0 168.56 155.74
  Q 183.49 169.41 204.00 170.82
  Q 206.25 170.96 212.27 170.82
  A 3.36 3.32 -30.8 0 1 214.04 171.26
  Q 214.05 171.26 214.30 171.45
  A 0.95 0.94 47.3 0 0 215.39 171.50
  Q 217.12 170.40 219.03 171.00
  A 0.35 0.35 0.0 0 0 219.47 170.55
  Q 218.80 168.56 219.95 167.08
  A 0.85 0.83 -42.8 0 0 220.00 166.12
  C 217.37 161.97 221.63 158.45 225.79 160.41
  A 1.05 1.02 41.4 0 0 226.79 160.35
  Q 228.57 159.26 230.31 160.01
  Z
  M 97.42 225.80
  A 0.44 0.44 0.0 0 0 97.95 226.38
  Q 100.10 225.72 101.41 226.82
  A 0.81 0.81 0.0 0 0 102.41 226.85
  Q 103.77 225.83 105.99 226.29
  A 0.96 0.95 -67.2 0 0 106.98 225.88
  C 119.37 207.14 115.75 182.48 102.68 165.32
  A 0.52 0.52 0.0 0 0 101.89 165.28
  C 90.67 176.86 85.07 192.28 86.32 208.58
  A 1.60 1.55 58.2 0 1 86.12 209.49
  L 85.62 210.36
  A 0.98 0.97 43.0 0 0 85.66 211.40
  Q 86.75 212.97 86.13 214.83
  A 0.38 0.37 -0.1 0 0 86.61 215.30
  Q 88.50 214.67 90.17 215.73
  A 0.93 0.91 45.6 0 0 91.11 215.75
  C 94.54 213.81 97.91 216.10 97.62 219.97
  A 0.90 0.84 -30.7 0 1 97.51 220.35
  L 96.94 221.34
  A 1.03 1.02 -46.7 0 0 96.97 222.42
  Q 98.09 224.13 97.42 225.80
  Z
  M 162.99 225.85
  Q 162.32 224.18 163.44 222.47
  A 1.03 1.02 46.6 0 0 163.47 221.39
  L 162.90 220.40
  A 0.90 0.84 30.6 0 1 162.79 220.02
  C 162.50 216.16 165.87 213.87 169.30 215.81
  A 0.93 0.91 -45.6 0 0 170.24 215.79
  Q 171.90 214.73 173.78 215.36
  A 0.38 0.37 0.1 0 0 174.26 214.89
  Q 173.64 213.03 174.73 211.46
  A 0.97 0.97 0.0 0 0 174.77 210.42
  L 174.27 209.55
  A 1.60 1.55 -58.2 0 1 174.07 208.64
  C 175.32 192.36 169.72 176.95 158.51 165.39
  A 0.52 0.52 0.0 0 0 157.72 165.43
  C 144.67 182.58 141.06 207.21 153.44 225.93
  A 0.96 0.95 67.2 0 0 154.43 226.34
  Q 156.65 225.88 158.01 226.90
  A 0.81 0.80 -46.6 0 0 159.01 226.87
  Q 160.31 225.77 162.46 226.43
  A 0.44 0.44 0.0 0 0 162.99 225.85
  Z"
/>
</svg>