<?xml version="1.0" encoding="UTF-8" standalone="no"?>
<!DOCTYPE svg PUBLIC "-//W3C//DTD SVG 1.1//EN" "http://www.w3.org/Graphics/SVG/1.1/DTD/svg11.dtd">
<svg xmlns="http://www.w3.org/2000/svg" version="1.1" viewBox="0.00 0.00 256.00 256.00" width="128" height="128">
<g stroke-width="2.00" fill="none" stroke-linecap="butt">
<path stroke="#8f8e8f" vector-effect="non-scaling-stroke" d="
  M 139.04 256.00
  L 136.90 255.50
  A 0.90 0.89 87.0 0 1 136.25 254.91
  Q 130.69 238.66 127.20 227.58
  Q 124.71 219.68 118.95 216.06
  Q 108.04 209.21 87.21 199.80
  Q 81.35 197.15 76.95 196.23
  Q 74.15 195.65 72.93 198.62
  Q 71.24 202.70 69.90 205.14
  Q 62.41 218.69 52.68 237.86
  C 50.65 241.86 47.13 248.02 44.93 253.41
  Q 44.11 255.41 40.10 256.00"
/>
<path stroke="#8f8e8f" vector-effect="non-scaling-stroke" d="
  M 215.77 88.47
  Q 219.63 87.75 223.88 85.69
  C 227.61 83.88 225.84 80.06 224.56 76.69
  C 217.91 59.17 207.80 44.19 192.72 34.04
  C 183.23 27.66 173.85 22.81 162.38 20.42
  Q 151.64 18.18 135.01 18.97
  C 129.78 19.21 123.91 21.52 125.44 28.08
  C 126.12 31.01 127.42 33.75 129.01 35.46
  Q 130.12 36.66 132.25 36.56
  C 148.15 35.82 162.94 35.87 177.23 44.21
  Q 196.63 55.53 205.87 76.37
  C 207.51 80.08 209.96 84.42 211.22 86.63
  A 1.83 1.76 -85.8 0 0 211.66 87.16
  Q 213.65 88.87 215.77 88.47"
/>
<path stroke="#8f8e8f" vector-effect="non-scaling-stroke" d="
  M 132.17 53.53
  C 133.18 56.73 134.62 59.13 138.01 59.09
  Q 146.60 58.97 150.16 59.14
  C 160.78 59.65 170.02 64.69 177.37 72.16
  C 182.28 77.16 185.79 84.50 189.21 91.65
  A 2.78 2.77 80.2 0 0 191.43 93.22
  Q 195.68 93.69 198.48 92.98
  A 2.81 2.80 80.0 0 0 200.58 89.97
  Q 200.39 88.09 199.52 85.68
  Q 191.94 64.93 173.35 53.93
  Q 165.06 49.03 157.08 47.68
  Q 147.68 46.10 139.54 46.54
  C 135.16 46.78 130.45 48.04 132.17 53.53"
/>
<path stroke="#8f8e8f" vector-effect="non-scaling-stroke" d="
  M 178.65 98.44
  A 2.37 2.37 0.0 0 0 180.88 95.26
  Q 177.67 86.50 172.12 81.22
  Q 164.72 74.16 160.86 72.18
  C 155.88 69.61 144.60 67.54 138.54 69.95
  A 2.72 2.70 -77.5 0 0 137.62 70.54
  C 135.48 72.64 136.85 76.22 139.83 76.25
  Q 148.91 76.36 158.12 79.44
  A 6.40 6.00 67.9 0 1 159.31 79.99
  Q 164.92 83.38 169.42 89.11
  C 171.03 91.17 171.86 93.49 173.11 95.98
  A 4.47 4.47 0.0 0 0 177.10 98.44
  L 178.65 98.44"
/>
<path stroke="#8f8e8f" vector-effect="non-scaling-stroke" d="
  M 189.91 174.27
  Q 185.02 168.92 180.97 166.13
  Q 162.98 153.75 149.32 144.17
  Q 145.54 141.53 140.17 137.43
  Q 138.38 136.06 136.80 134.07
  A 1.96 1.94 45.0 0 1 136.79 131.66
  L 142.92 123.85
  A 1.86 1.57 -83.5 0 1 143.28 123.51
  Q 148.39 120.07 151.84 116.66
  C 157.38 111.17 155.10 104.19 149.89 99.61
  Q 146.71 96.81 142.39 97.32
  C 132.73 98.47 132.86 106.99 132.00 114.51
  Q 131.35 120.30 126.44 126.20
  Q 124.86 128.11 123.37 126.63
  Q 120.62 123.90 119.39 123.09
  Q 101.73 111.35 79.11 95.95
  C 76.16 93.95 69.39 91.20 66.47 94.04
  A 1.94 1.93 -15.6 0 0 65.96 94.94
  C 57.91 128.44 67.88 163.67 95.51 183.94
  Q 116.49 199.33 145.72 197.75
  Q 151.08 197.46 156.94 195.69
  Q 169.29 191.97 178.96 185.48
  Q 184.14 182.01 189.93 175.22
  A 0.72 0.71 44.1 0 0 189.91 174.27"
/>
</g>
<path fill="#1e1c1f" d="
  M 256.00 0.00
  L 256.00 256.00
  L 139.04 256.00
  L 136.90 255.50
  A 0.90 0.89 87.0 0 1 136.25 254.91
  Q 130.69 238.66 127.20 227.58
  Q 124.71 219.68 118.95 216.06
  Q 108.04 209.21 87.21 199.80
  Q 81.35 197.15 76.95 196.23
  Q 74.15 195.65 72.93 198.62
  Q 71.24 202.70 69.90 205.14
  Q 62.41 218.69 52.68 237.86
  C 50.65 241.86 47.13 248.02 44.93 253.41
  Q 44.11 255.41 40.10 256.00
  L 0.00 256.00
  L 0.00 0.00
  L 256.00 0.00
  Z
  M 215.77 88.47
  Q 219.63 87.75 223.88 85.69
  C 227.61 83.88 225.84 80.06 224.56 76.69
  C 217.91 59.17 207.80 44.19 192.72 34.04
  C 183.23 27.66 173.85 22.81 162.38 20.42
  Q 151.64 18.18 135.01 18.97
  C 129.78 19.21 123.91 21.52 125.44 28.08
  C 126.12 31.01 127.42 33.75 129.01 35.46
  Q 130.12 36.66 132.25 36.56
  C 148.15 35.82 162.94 35.87 177.23 44.21
  Q 196.63 55.53 205.87 76.37
  C 207.51 80.08 209.96 84.42 211.22 86.63
  A 1.83 1.76 -85.8 0 0 211.66 87.16
  Q 213.65 88.87 215.77 88.47
  Z
  M 132.17 53.53
  C 133.18 56.73 134.62 59.13 138.01 59.09
  Q 146.60 58.97 150.16 59.14
  C 160.78 59.65 170.02 64.69 177.37 72.16
  C 182.28 77.16 185.79 84.50 189.21 91.65
  A 2.78 2.77 80.2 0 0 191.43 93.22
  Q 195.68 93.69 198.48 92.98
  A 2.81 2.80 80.0 0 0 200.58 89.97
  Q 200.39 88.09 199.52 85.68
  Q 191.94 64.93 173.35 53.93
  Q 165.06 49.03 157.08 47.68
  Q 147.68 46.10 139.54 46.54
  C 135.16 46.78 130.45 48.04 132.17 53.53
  Z
  M 178.65 98.44
  A 2.37 2.37 0.0 0 0 180.88 95.26
  Q 177.67 86.50 172.12 81.22
  Q 164.72 74.16 160.86 72.18
  C 155.88 69.61 144.60 67.54 138.54 69.95
  A 2.72 2.70 -77.5 0 0 137.62 70.54
  C 135.48 72.64 136.85 76.22 139.83 76.25
  Q 148.91 76.36 158.12 79.44
  A 6.40 6.00 67.9 0 1 159.31 79.99
  Q 164.92 83.38 169.42 89.11
  C 171.03 91.17 171.86 93.49 173.11 95.98
  A 4.47 4.47 0.0 0 0 177.10 98.44
  L 178.65 98.44
  Z
  M 189.91 174.27
  Q 185.02 168.92 180.97 166.13
  Q 162.98 153.75 149.32 144.17
  Q 145.54 141.53 140.17 137.43
  Q 138.38 136.06 136.80 134.07
  A 1.96 1.94 45.0 0 1 136.79 131.66
  L 142.92 123.85
  A 1.86 1.57 -83.5 0 1 143.28 123.51
  Q 148.39 120.07 151.84 116.66
  C 157.38 111.17 155.10 104.19 149.89 99.61
  Q 146.71 96.81 142.39 97.32
  C 132.73 98.47 132.86 106.99 132.00 114.51
  Q 131.35 120.30 126.44 126.20
  Q 124.86 128.11 123.37 126.63
  Q 120.62 123.90 119.39 123.09
  Q 101.73 111.35 79.11 95.95
  C 76.16 93.95 69.39 91.20 66.47 94.04
  A 1.94 1.93 -15.6 0 0 65.96 94.94
  C 57.91 128.44 67.88 163.67 95.51 183.94
  Q 116.49 199.33 145.72 197.75
  Q 151.08 197.46 156.94 195.69
  Q 169.29 191.97 178.96 185.48
  Q 184.14 182.01 189.93 175.22
  A 0.72 0.71 44.1 0 0 189.91 174.27
  Z"
/>
<path fill="#ffffff" d="
  M 215.77 88.47
  Q 213.65 88.87 211.66 87.16
  A 1.83 1.76 -85.8 0 1 211.22 86.63
  C 209.96 84.42 207.51 80.08 205.87 76.37
  Q 196.63 55.53 177.23 44.21
  C 162.94 35.87 148.15 35.82 132.25 36.56
  Q 130.12 36.66 129.01 35.46
  C 127.42 33.75 126.12 31.01 125.44 28.08
  C 123.91 21.52 129.78 19.21 135.01 18.97
  Q 151.64 18.18 162.38 20.42
  C 173.85 22.81 183.23 27.66 192.72 34.04
  C 207.80 44.19 217.91 59.17 224.56 76.69
  C 225.84 80.06 227.61 83.88 223.88 85.69
  Q 219.63 87.75 215.77 88.47
  Z"
/>
<path fill="#ffffff" d="
  M 138.01 59.09
  C 134.62 59.13 133.18 56.73 132.17 53.53
  C 130.45 48.04 135.16 46.78 139.54 46.54
  Q 147.68 46.10 157.08 47.68
  Q 165.06 49.03 173.35 53.93
  Q 191.94 64.93 199.52 85.68
  Q 200.39 88.09 200.58 89.97
  A 2.81 2.80 80.0 0 1 198.48 92.98
  Q 195.68 93.69 191.43 93.22
  A 2.78 2.77 80.2 0 1 189.21 91.65
  C 185.79 84.50 182.28 77.16 177.37 72.16
  C 170.02 64.69 160.78 59.65 150.16 59.14
  Q 146.60 58.97 138.01 59.09
  Z"
/>
<path fill="#ffffff" d="
  M 178.65 98.44
  L 177.10 98.44
  A 4.47 4.47 0.0 0 1 173.11 95.98
  C 171.86 93.49 171.03 91.17 169.42 89.11
  Q 164.92 83.38 159.31 79.99
  A 6.40 6.00 67.9 0 0 158.12 79.44
  Q 148.91 76.36 139.83 76.25
  C 136.85 76.22 135.48 72.64 137.62 70.54
  A 2.72 2.70 -77.5 0 1 138.54 69.95
  C 144.60 67.54 155.88 69.61 160.86 72.18
  Q 164.72 74.16 172.12 81.22
  Q 177.67 86.50 180.88 95.26
  A 2.37 2.37 0.0 0 1 178.65 98.44
  Z"
/>
<path fill="#ffffff" d="
  M 189.93 175.22
  Q 184.14 182.01 178.96 185.48
  Q 169.29 191.97 156.94 195.69
  Q 151.08 197.46 145.72 197.75
  Q 116.49 199.33 95.51 183.94
  C 67.88 163.67 57.91 128.44 65.96 94.94
  A 1.94 1.93 -15.6 0 1 66.47 94.04
  C 69.39 91.20 76.16 93.95 79.11 95.95
  Q 101.73 111.35 119.39 123.09
  Q 120.62 123.90 123.37 126.63
  Q 124.86 128.11 126.44 126.20
  Q 131.35 120.30 132.00 114.51
  C 132.86 106.99 132.73 98.47 142.39 97.32
  Q 146.71 96.81 149.89 99.61
  C 155.10 104.19 157.38 111.17 151.84 116.66
  Q 148.39 120.07 143.28 123.51
  A 1.86 1.57 -83.5 0 0 142.92 123.85
  L 136.79 131.66
  A 1.96 1.94 45.0 0 0 136.80 134.07
  Q 138.38 136.06 140.17 137.43
  Q 145.54 141.53 149.32 144.17
  Q 162.98 153.75 180.97 166.13
  Q 185.02 168.92 189.91 174.27
  A 0.72 0.71 44.1 0 1 189.93 175.22
  Z"
/>
<path fill="#ffffff" d="
  M 139.04 256.00
  L 40.10 256.00
  Q 44.11 255.41 44.93 253.41
  C 47.13 248.02 50.65 241.86 52.68 237.86
  Q 62.41 218.69 69.90 205.14
  Q 71.24 202.70 72.93 198.62
  Q 74.15 195.65 76.95 196.23
  Q 81.35 197.15 87.21 199.80
  Q 108.04 209.21 118.95 216.06
  Q 124.71 219.68 127.20 227.58
  Q 130.69 238.66 136.25 254.91
  A 0.90 0.89 87.0 0 0 136.90 255.50
  L 139.04 256.00
  Z"
/>
</svg>