<?xml version="1.0" encoding="UTF-8" standalone="no"?>
<!DOCTYPE svg PUBLIC "-//W3C//DTD SVG 1.1//EN" "http://www.w3.org/Graphics/SVG/1.1/DTD/svg11.dtd">
<svg xmlns="http://www.w3.org/2000/svg" version="1.1" viewBox="0.00 0.00 256.00 256.00" width="128" height="128">
<g stroke-width="2.00" fill="none" stroke-linecap="butt">
<path stroke="#8e8f91" vector-effect="non-scaling-stroke" d="
  M 97.69 64.46
  Q 77.16 71.82 56.77 80.04
  Q 52.21 81.88 50.63 83.62
  C 46.49 88.19 47.34 95.24 52.32 98.94
  C 56.91 102.33 61.16 101.76 66.73 99.64
  Q 78.76 95.05 105.05 85.12
  Q 105.30 85.03 105.48 84.96
  Q 126.01 77.60 146.40 69.38
  Q 150.96 67.54 152.54 65.80
  C 156.68 61.23 155.83 54.18 150.85 50.48
  C 146.26 47.09 142.01 47.66 136.44 49.78
  Q 124.41 54.37 98.12 64.30
  Q 97.88 64.39 97.69 64.46"
/>
<path stroke="#8e8f91" vector-effect="non-scaling-stroke" d="
  M 124.15 96.88
  Q 96.52 107.03 53.29 124.29
  A 2.97 2.96 16.0 0 0 52.69 124.62
  C 41.46 132.74 52.14 147.92 63.75 143.48
  C 93.02 132.28 115.59 123.42 131.83 117.45
  Q 159.46 107.29 202.69 90.03
  A 2.97 2.96 16.0 0 0 203.29 89.70
  C 214.52 81.58 203.84 66.40 192.23 70.84
  C 162.96 82.04 140.39 90.90 124.15 96.88"
/>
<path stroke="#8e8f91" vector-effect="non-scaling-stroke" d="
  M 124.16 138.30
  Q 96.55 148.45 53.34 165.71
  A 2.97 2.96 16.0 0 0 52.74 166.04
  C 41.52 174.15 52.20 189.32 63.80 184.89
  C 93.05 173.69 115.61 164.82 131.84 158.85
  Q 159.45 148.70 202.65 131.44
  A 2.97 2.96 16.0 0 0 203.25 131.11
  C 214.47 122.99 203.80 107.82 192.20 112.26
  C 162.94 123.46 140.39 132.32 124.16 138.30"
/>
<path stroke="#8e8f91" vector-effect="non-scaling-stroke" d="
  M 206.7994 161.3369
  A 10.76 10.76 0.0 0 0 192.9416 155.0507
  L 107.7601 187.0683
  A 10.76 10.76 0.0 0 0 101.4740 200.9261
  L 101.6006 201.2631
  A 10.76 10.76 0.0 0 0 115.4584 207.5493
  L 200.6399 175.5317
  A 10.76 10.76 0.0 0 0 206.9260 161.6739
  L 206.7994 161.3369"
/>
</g>
<path fill="#1d1e22" d="
  M 214.42 0.00
  C 233.88 2.02 249.59 14.80 254.58 33.74
  Q 255.10 35.70 256.00 41.44
  L 256.00 214.42
  C 254.10 233.77 241.25 249.36 222.51 254.52
  Q 220.71 255.02 214.56 256.00
  L 41.57 256.00
  C 22.11 253.95 6.42 241.19 1.42 222.26
  Q 0.92 220.35 0.00 214.55
  L 0.00 41.56
  C 2.23 19.07 19.00 2.33 41.47 0.00
  L 214.42 0.00
  Z
  M 97.69 64.46
  Q 77.16 71.82 56.77 80.04
  Q 52.21 81.88 50.63 83.62
  C 46.49 88.19 47.34 95.24 52.32 98.94
  C 56.91 102.33 61.16 101.76 66.73 99.64
  Q 78.76 95.05 105.05 85.12
  Q 105.30 85.03 105.48 84.96
  Q 126.01 77.60 146.40 69.38
  Q 150.96 67.54 152.54 65.80
  C 156.68 61.23 155.83 54.18 150.85 50.48
  C 146.26 47.09 142.01 47.66 136.44 49.78
  Q 124.41 54.37 98.12 64.30
  Q 97.88 64.39 97.69 64.46
  Z
  M 124.15 96.88
  Q 96.52 107.03 53.29 124.29
  A 2.97 2.96 16.0 0 0 52.69 124.62
  C 41.46 132.74 52.14 147.92 63.75 143.48
  C 93.02 132.28 115.59 123.42 131.83 117.45
  Q 159.46 107.29 202.69 90.03
  A 2.97 2.96 16.0 0 0 203.29 89.70
  C 214.52 81.58 203.84 66.40 192.23 70.84
  C 162.96 82.04 140.39 90.90 124.15 96.88
  Z
  M 124.16 138.30
  Q 96.55 148.45 53.34 165.71
  A 2.97 2.96 16.0 0 0 52.74 166.04
  C 41.52 174.15 52.20 189.32 63.80 184.89
  C 93.05 173.69 115.61 164.82 131.84 158.85
  Q 159.45 148.70 202.65 131.44
  A 2.97 2.96 16.0 0 0 203.25 131.11
  C 214.47 122.99 203.80 107.82 192.20 112.26
  C 162.94 123.46 140.39 132.32 124.16 138.30
  Z
  M 206.7994 161.3369
  A 10.76 10.76 0.0 0 0 192.9416 155.0507
  L 107.7601 187.0683
  A 10.76 10.76 0.0 0 0 101.4740 200.9261
  L 101.6006 201.2631
  A 10.76 10.76 0.0 0 0 115.4584 207.5493
  L 200.6399 175.5317
  A 10.76 10.76 0.0 0 0 206.9260 161.6739
  L 206.7994 161.3369
  Z"
/>
<path fill="#ffffff" d="
  M 105.48 84.96
  Q 105.30 85.03 105.05 85.12
  Q 78.76 95.05 66.73 99.64
  C 61.16 101.76 56.91 102.33 52.32 98.94
  C 47.34 95.24 46.49 88.19 50.63 83.62
  Q 52.21 81.88 56.77 80.04
  Q 77.16 71.82 97.69 64.46
  Q 97.88 64.39 98.12 64.30
  Q 124.41 54.37 136.44 49.78
  C 142.01 47.66 146.26 47.09 150.85 50.48
  C 155.83 54.18 156.68 61.23 152.54 65.80
  Q 150.96 67.54 146.40 69.38
  Q 126.01 77.60 105.48 84.96
  Z"
/>
<path fill="#ffffff" d="
  M 124.15 96.88
  C 140.39 90.90 162.96 82.04 192.23 70.84
  C 203.84 66.40 214.52 81.58 203.29 89.70
  A 2.97 2.96 16.0 0 1 202.69 90.03
  Q 159.46 107.29 131.83 117.45
  C 115.59 123.42 93.02 132.28 63.75 143.48
  C 52.14 147.92 41.46 132.74 52.69 124.62
  A 2.97 2.96 16.0 0 1 53.29 124.29
  Q 96.52 107.03 124.15 96.88
  Z"
/>
<path fill="#ffffff" d="
  M 124.16 138.30
  C 140.39 132.32 162.94 123.46 192.20 112.26
  C 203.80 107.82 214.47 122.99 203.25 131.11
  A 2.97 2.96 16.0 0 1 202.65 131.44
  Q 159.45 148.70 131.84 158.85
  C 115.61 164.82 93.05 173.69 63.80 184.89
  C 52.20 189.32 41.52 174.15 52.74 166.04
  A 2.97 2.96 16.0 0 1 53.34 165.71
  Q 96.55 148.45 124.16 138.30
  Z"
/>
<rect fill="#ffffff" x="-56.26" y="-10.94" transform="translate(154.20,181.30) rotate(-20.6)" width="112.52" height="21.88" rx="10.76"/>
</svg>