<?xml version="1.0" encoding="UTF-8" standalone="no"?>
<!DOCTYPE svg PUBLIC "-//W3C//DTD SVG 1.1//EN" "http://www.w3.org/Graphics/SVG/1.1/DTD/svg11.dtd">
<svg xmlns="http://www.w3.org/2000/svg" version="1.1" viewBox="0.00 0.00 192.00 192.00" width="128" height="128">
<g stroke-width="2.00" fill="none" stroke-linecap="butt">
<path stroke="#c66160" vector-effect="non-scaling-stroke" d="
  M 63.06 51.71
  L 62.92 56.71"
/>
<path stroke="#9c6a60" vector-effect="non-scaling-stroke" d="
  M 20.23 95.76
  L 11.85 95.89"
/>
<path stroke="#52619b" vector-effect="non-scaling-stroke" d="
  M 136.88 96.11
  L 106.47 96.12"
/>
<path stroke="#276a9a" vector-effect="non-scaling-stroke" d="
  M 62.81 181.09
  L 63.02 129.24"
/>
</g>
<path fill="#fbb040" d="
  M 48.11 0.00
  C 52.05 0.63 57.21 2.13 59.28 5.69
  Q 61.21 9.01 62.54 13.04
  A 8.34 8.29 -54.3 0 1 62.96 15.65
  L 63.06 51.71
  L 62.92 56.71
  Q 62.14 65.26 61.06 67.77
  Q 56.48 78.40 47.69 85.82
  A 3.77 3.53 8.2 0 1 47.13 86.21
  L 35.74 92.68
  A 1.98 1.77 21.6 0 1 35.20 92.88
  L 20.23 95.76
  L 11.85 95.89
  Q 5.49 93.44 3.36 91.64
  Q 0.59 89.29 0.00 83.98
  L 0.00 11.02
  Q 1.87 2.26 14.19 0.00
  L 48.11 0.00
  Z"
/>
<path fill="#911180" d="
  M 123.88 0.00
  C 129.45 0.39 135.99 0.01 140.70 0.83
  Q 152.51 2.89 161.51 7.74
  Q 163.59 8.86 168.92 12.09
  A 20.07 19.85 -4.9 0 1 173.45 15.86
  Q 179.55 22.66 179.75 22.92
  C 183.27 27.28 184.61 32.51 186.84 37.55
  A 10.74 10.47 29.5 0 1 187.64 40.31
  Q 188.87 48.54 187.12 56.74
  C 186.38 60.19 186.08 62.20 184.68 64.44
  Q 182.44 68.04 181.25 70.17
  C 174.50 82.22 161.89 89.14 149.46 93.46
  A 1.11 0.89 -49.1 0 1 149.32 93.49
  L 136.88 96.11
  L 106.47 96.12
  L 92.76 93.47
  A 3.83 3.49 60.2 0 1 91.98 93.22
  C 86.43 90.74 78.68 87.18 74.08 82.29
  C 69.95 77.89 67.50 75.18 66.05 70.74
  Q 64.01 64.51 62.92 56.71
  L 63.06 51.71
  Q 63.21 31.61 63.15 11.50
  Q 63.14 9.87 64.23 7.08
  A 2.21 2.15 82.6 0 1 64.91 6.17
  C 68.03 3.72 70.14 0.87 74.98 0.49
  Q 78.57 0.22 82.16 0.00
  L 123.88 0.00
  Z"
/>
<path fill="#3c247f" d="
  M 20.23 95.76
  Q 19.28 96.50 22.06 96.88
  C 26.79 97.51 33.05 97.20 37.56 100.07
  Q 40.69 102.07 46.61 105.25
  A 10.03 9.99 84.4 0 1 49.62 107.73
  L 58.31 118.26
  A 6.80 6.77 22.7 0 1 59.84 121.97
  Q 60.41 128.33 60.80 130.14
  Q 61.42 133.13 61.42 138.40
  C 61.42 153.13 61.08 164.12 61.46 173.10
  Q 61.72 179.52 59.73 186.46
  A 3.52 3.52 0.0 0 1 57.86 188.66
  Q 51.43 191.71 43.84 192.00
  L 14.58 192.00
  Q 7.35 191.79 3.67 188.33
  Q 0.76 185.58 0.00 179.60
  L 0.00 107.87
  C 0.83 103.69 0.95 101.73 4.88 99.93
  Q 8.44 98.29 11.85 95.89
  L 20.23 95.76
  Z"
/>
<path fill="#12b0b5" d="
  M 106.47 96.12
  L 136.88 96.11
  Q 138.19 96.46 142.95 97.33
  Q 152.81 99.12 160.68 103.36
  Q 164.05 105.17 168.68 107.84
  A 16.75 16.63 84.3 0 1 173.03 111.43
  C 175.83 114.67 179.10 117.62 181.70 121.56
  C 183.73 124.64 185.00 129.77 186.57 132.92
  A 9.64 9.61 -61.8 0 1 187.53 136.11
  Q 188.44 143.89 188.29 145.01
  Q 187.50 150.92 186.55 155.50
  A 15.94 15.94 0.0 0 1 184.72 160.32
  C 183.07 163.17 180.05 168.75 177.13 172.03
  Q 170.38 179.60 162.79 183.56
  C 153.89 188.20 145.34 191.47 135.84 192.00
  L 77.31 192.00
  Q 73.41 191.91 70.18 190.33
  A 4.59 4.57 -8.3 0 1 68.86 189.35
  C 66.77 187.11 63.26 184.22 62.81 181.09
  L 63.02 129.24
  Q 63.33 126.70 64.63 124.36
  C 65.68 122.48 65.71 120.39 66.68 118.94
  Q 69.81 114.23 75.69 107.99
  A 5.68 5.41 -83.3 0 1 76.68 107.17
  C 84.98 101.87 90.28 98.20 97.72 97.65
  Q 102.85 97.27 106.47 96.12
  Z"
/>
<path fill="#3c247f" d="
  M 63.02 129.24
  L 62.81 181.09
  Q 61.63 177.63 61.83 175.36
  C 62.92 163.55 62.57 151.15 62.46 136.25
  Q 62.44 133.91 63.02 129.24
  Z"
/>
</svg>