<?xml version="1.0" encoding="UTF-8" standalone="no"?>
<!DOCTYPE svg PUBLIC "-//W3C//DTD SVG 1.1//EN" "http://www.w3.org/Graphics/SVG/1.1/DTD/svg11.dtd">
<svg xmlns="http://www.w3.org/2000/svg" version="1.1" viewBox="0.00 0.00 512.00 512.00" width="128" height="128">
<g stroke-width="2.00" fill="none" stroke-linecap="butt">
<path stroke="#814ff5" vector-effect="non-scaling-stroke" d="
  M 277.72 2.11
  Q 278.92 9.63 279.01 17.19
  Q 279.21 34.21 279.54 51.23
  Q 279.65 57.12 277.78 66.84"
/>
<path stroke="#c3abfa" vector-effect="non-scaling-stroke" d="
  M 277.78 66.84
  C 248.43 68.16 222.53 83.50 208.07 109.16"
/>
<path stroke="#8c5ef5" vector-effect="non-scaling-stroke" d="
  M 208.07 109.16
  Q 207.26 91.00 207.55 78.13
  Q 208.24 47.01 207.99 25.87
  Q 207.89 16.99 205.70 6.33"
/>
<path stroke="#7942f6" vector-effect="non-scaling-stroke" d="
  M 329.80 11.86
  Q 329.13 23.28 329.18 27.90
  C 329.42 49.80 329.94 63.02 327.26 81.29"
/>
<path stroke="#bea3fa" vector-effect="non-scaling-stroke" d="
  M 327.26 81.29
  Q 304.91 66.24 277.78 66.84"
/>
<path stroke="#c8b3fa" vector-effect="non-scaling-stroke" d="
  M 208.07 109.16
  Q 201.00 121.87 198.53 136.29
  C 197.80 140.59 197.70 144.55 197.47 148.44
  Q 197.15 154.10 197.15 157.57
  Q 197.13 239.04 197.16 391.39
  Q 197.16 402.65 195.97 405.83
  C 191.83 416.86 178.83 423.49 167.59 418.43
  Q 154.28 412.45 154.33 397.34
  A 3.82 3.41 41.8 0 0 154.24 396.54
  C 152.24 387.76 143.70 382.61 135.26 386.50"
/>
<path stroke="#966df4" vector-effect="non-scaling-stroke" d="
  M 135.26 386.50
  C 135.39 369.91 134.90 350.20 135.00 336.77
  Q 135.20 312.65 135.38 288.49
  C 135.50 270.96 134.73 241.75 135.09 220.86
  C 135.64 188.71 135.10 162.92 135.28 126.86
  Q 135.49 85.09 134.47 51.57
  C 134.26 44.77 133.80 39.86 128.59 35.65"
/>
<path stroke="#7136f6" vector-effect="non-scaling-stroke" d="
  M 407.99 50.79
  Q 405.54 63.22 405.67 72.35
  C 405.99 94.78 406.68 124.97 406.35 152.90
  Q 406.21 165.41 406.34 196.28
  Q 406.43 220.46 405.74 254.35
  C 405.32 274.58 406.65 316.19 406.31 346.25
  C 406.08 365.84 406.47 384.84 406.07 404.28
  Q 405.75 419.86 405.66 428.63
  C 405.50 445.40 405.68 454.62 401.36 467.58"
/>
<path stroke="#7942f6" vector-effect="non-scaling-stroke" d="
  M 361.76 489.90
  Q 361.01 478.16 361.09 466.67
  Q 361.32 434.87 361.21 403.08
  Q 361.16 388.39 358.19 376.39"
/>
<path stroke="#ba9efb" vector-effect="non-scaling-stroke" d="
  M 358.19 376.39
  C 362.65 371.51 366.99 367.73 365.75 360.01
  Q 364.73 353.67 358.50 350.49
  Q 351.47 346.90 344.21 352.02"
/>
<path stroke="#7942f6" vector-effect="non-scaling-stroke" d="
  M 344.21 352.02
  Q 343.88 346.32 343.73 340.66
  Q 342.98 311.97 342.30 283.28
  Q 342.12 275.55 343.24 259.67"
/>
<path stroke="#ba9efb" vector-effect="non-scaling-stroke" d="
  M 343.24 259.67
  Q 357.04 276.75 359.54 298.63
  A 2.81 2.68 -62.1 0 0 359.79 299.52
  Q 363.50 307.59 371.09 308.23
  C 380.58 309.02 386.79 301.79 385.68 292.43
  Q 384.49 282.44 380.60 272.18
  Q 366.29 234.51 330.48 216.25
  A 0.24 0.24 0.0 0 1 330.44 215.85
  C 351.71 199.39 364.02 174.81 363.42 148.08
  C 362.82 121.21 349.40 96.60 327.26 81.29"
/>
<path stroke="#cdbafa" vector-effect="non-scaling-stroke" d="
  M 135.26 386.50
  Q 131.44 388.43 129.40 391.86
  C 124.77 399.65 129.43 414.51 133.50 421.94"
/>
<path stroke="#966df4" vector-effect="non-scaling-stroke" d="
  M 133.50 421.94
  Q 135.79 441.20 135.20 460.58
  C 135.00 467.31 134.25 473.40 129.46 478.57"
/>
<path stroke="#a27ef4" vector-effect="non-scaling-stroke" d="
  M 63.87 424.65
  Q 66.43 409.38 66.56 394.17
  Q 67.01 342.71 66.85 316.99
  C 66.43 250.32 66.88 183.85 66.62 116.98
  Q 66.56 102.11 63.97 88.98"
/>
<path stroke="#bea3fa" vector-effect="non-scaling-stroke" d="
  M 343.24 259.67
  Q 326.83 240.06 301.83 234.33"
/>
<path stroke="#c3abfa" vector-effect="non-scaling-stroke" d="
  M 301.83 234.33
  Q 291.98 232.31 281.96 232.80
  Q 275.55 233.12 273.58 232.42
  C 267.25 230.15 263.29 223.02 265.07 216.52
  C 267.94 206.07 277.08 206.02 286.64 205.66
  Q 292.40 205.44 301.01 202.10"
/>
<path stroke="#bea3fa" vector-effect="non-scaling-stroke" d="
  M 301.01 202.10
  C 332.65 189.61 346.72 151.57 329.04 121.69
  Q 319.12 104.92 300.92 97.49"
/>
<path stroke="#c3abfa" vector-effect="non-scaling-stroke" d="
  M 300.92 97.49
  Q 289.44 92.99 278.29 93.58
  C 250.02 95.09 227.85 115.94 224.55 144.43
  C 224.10 148.29 224.54 152.87 224.26 156.85
  Q 223.88 162.03 223.88 166.17
  Q 223.91 313.35 223.87 342.25
  Q 223.87 345.50 224.73 346.75
  C 242.19 371.84 270.30 384.15 300.32 378.61"
/>
<path stroke="#bea3fa" vector-effect="non-scaling-stroke" d="
  M 300.32 378.61
  C 318.39 374.98 332.36 365.71 344.21 352.02"
/>
<path stroke="#bea3fa" vector-effect="non-scaling-stroke" d="
  M 358.19 376.39
  Q 327.77 406.62 284.51 406.74"
/>
<path stroke="#c3abfa" vector-effect="non-scaling-stroke" d="
  M 284.51 406.74
  Q 250.94 405.62 224.43 385.31
  A 0.26 0.26 0.0 0 0 224.01 385.51
  Q 223.76 392.11 223.76 398.49
  Q 223.77 409.40 219.38 419.19"
/>
<path stroke="#c8b3fa" vector-effect="non-scaling-stroke" d="
  M 219.38 419.19
  C 209.75 438.90 191.02 448.84 169.33 446.25
  Q 146.71 443.54 133.50 421.94"
/>
<path stroke="#814ff5" vector-effect="non-scaling-stroke" d="
  M 300.92 97.49
  Q 296.95 113.31 297.49 131.55
  Q 297.97 147.72 297.48 181.37
  Q 297.34 190.52 301.01 202.10"
/>
<path stroke="#814ff5" vector-effect="non-scaling-stroke" d="
  M 301.83 234.33
  Q 297.51 251.23 297.62 267.92
  Q 297.69 279.11 298.29 317.34
  C 298.46 327.86 298.19 336.80 297.86 348.42
  Q 297.43 363.55 300.32 378.61"
/>
<path stroke="#814ff5" vector-effect="non-scaling-stroke" d="
  M 287.94 510.54
  C 288.72 485.52 289.61 459.98 288.55 435.67
  Q 287.93 421.52 284.51 406.74"
/>
<path stroke="#8c5ef5" vector-effect="non-scaling-stroke" d="
  M 220.29 509.87
  Q 220.93 497.75 220.71 485.82
  Q 220.33 465.26 221.22 444.71
  Q 221.62 435.67 219.38 419.19"
/>
</g>
<path fill="#8656f5" d="
  M 277.72 2.11
  Q 278.92 9.63 279.01 17.19
  Q 279.21 34.21 279.54 51.23
  Q 279.65 57.12 277.78 66.84
  C 248.43 68.16 222.53 83.50 208.07 109.16
  Q 207.26 91.00 207.55 78.13
  Q 208.24 47.01 207.99 25.87
  Q 207.89 16.99 205.70 6.33
  Q 241.44 -0.86 277.72 2.11
  Z"
/>
<path fill="#7c47f5" d="
  M 277.72 2.11
  Q 304.29 4.29 329.80 11.86
  Q 329.13 23.28 329.18 27.90
  C 329.42 49.80 329.94 63.02 327.26 81.29
  Q 304.91 66.24 277.78 66.84
  Q 279.65 57.12 279.54 51.23
  Q 279.21 34.21 279.01 17.19
  Q 278.92 9.63 277.72 2.11
  Z"
/>
<path fill="#9166f4" d="
  M 205.70 6.33
  Q 207.89 16.99 207.99 25.87
  Q 208.24 47.01 207.55 78.13
  Q 207.26 91.00 208.07 109.16
  Q 201.00 121.87 198.53 136.29
  C 197.80 140.59 197.70 144.55 197.47 148.44
  Q 197.15 154.10 197.15 157.57
  Q 197.13 239.04 197.16 391.39
  Q 197.16 402.65 195.97 405.83
  C 191.83 416.86 178.83 423.49 167.59 418.43
  Q 154.28 412.45 154.33 397.34
  A 3.82 3.41 41.8 0 0 154.24 396.54
  C 152.24 387.76 143.70 382.61 135.26 386.50
  C 135.39 369.91 134.90 350.20 135.00 336.77
  Q 135.20 312.65 135.38 288.49
  C 135.50 270.96 134.73 241.75 135.09 220.86
  C 135.64 188.71 135.10 162.92 135.28 126.86
  Q 135.49 85.09 134.47 51.57
  C 134.26 44.77 133.80 39.86 128.59 35.65
  Q 164.81 14.71 205.70 6.33
  Z"
/>
<path fill="#753df6" d="
  M 329.80 11.86
  Q 372.24 24.57 407.99 50.79
  Q 405.54 63.22 405.67 72.35
  C 405.99 94.78 406.68 124.97 406.35 152.90
  Q 406.21 165.41 406.34 196.28
  Q 406.43 220.46 405.74 254.35
  C 405.32 274.58 406.65 316.19 406.31 346.25
  C 406.08 365.84 406.47 384.84 406.07 404.28
  Q 405.75 419.86 405.66 428.63
  C 405.50 445.40 405.68 454.62 401.36 467.58
  Q 382.60 480.48 361.76 489.90
  Q 361.01 478.16 361.09 466.67
  Q 361.32 434.87 361.21 403.08
  Q 361.16 388.39 358.19 376.39
  C 362.65 371.51 366.99 367.73 365.75 360.01
  Q 364.73 353.67 358.50 350.49
  Q 351.47 346.90 344.21 352.02
  Q 343.88 346.32 343.73 340.66
  Q 342.98 311.97 342.30 283.28
  Q 342.12 275.55 343.24 259.67
  Q 357.04 276.75 359.54 298.63
  A 2.81 2.68 -62.1 0 0 359.79 299.52
  Q 363.50 307.59 371.09 308.23
  C 380.58 309.02 386.79 301.79 385.68 292.43
  Q 384.49 282.44 380.60 272.18
  Q 366.29 234.51 330.48 216.25
  A 0.24 0.24 0.0 0 1 330.44 215.85
  C 351.71 199.39 364.02 174.81 363.42 148.08
  C 362.82 121.21 349.40 96.60 327.26 81.29
  C 329.94 63.02 329.42 49.80 329.18 27.90
  Q 329.13 23.28 329.80 11.86
  Z"
/>
<path fill="#9b74f4" d="
  M 135.26 386.50
  Q 131.44 388.43 129.40 391.86
  C 124.77 399.65 129.43 414.51 133.50 421.94
  Q 135.79 441.20 135.20 460.58
  C 135.00 467.31 134.25 473.40 129.46 478.57
  Q 92.25 457.08 63.87 424.65
  Q 66.43 409.38 66.56 394.17
  Q 67.01 342.71 66.85 316.99
  C 66.43 250.32 66.88 183.85 66.62 116.98
  Q 66.56 102.11 63.97 88.98
  Q 91.91 56.99 128.59 35.65
  C 133.80 39.86 134.26 44.77 134.47 51.57
  Q 135.49 85.09 135.28 126.86
  C 135.10 162.92 135.64 188.71 135.09 220.86
  C 134.73 241.75 135.50 270.96 135.38 288.49
  Q 135.20 312.65 135.00 336.77
  C 134.90 350.20 135.39 369.91 135.26 386.50
  Z"
/>
<path fill="#6c2ff6" d="
  M 512.00 242.01
  L 512.00 271.11
  Q 508.92 321.92 487.79 366.29
  Q 458.43 427.94 401.36 467.58
  C 405.68 454.62 405.50 445.40 405.66 428.63
  Q 405.75 419.86 406.07 404.28
  C 406.47 384.84 406.08 365.84 406.31 346.25
  C 406.65 316.19 405.32 274.58 405.74 254.35
  Q 406.43 220.46 406.34 196.28
  Q 406.21 165.41 406.35 152.90
  C 406.68 124.97 405.99 94.78 405.67 72.35
  Q 405.54 63.22 407.99 50.79
  Q 457.00 87.08 484.68 141.50
  Q 504.77 180.98 510.18 225.01
  Q 511.22 233.48 512.00 242.01
  Z"
/>
<path fill="#ffffff" d="
  M 327.26 81.29
  C 349.40 96.60 362.82 121.21 363.42 148.08
  C 364.02 174.81 351.71 199.39 330.44 215.85
  A 0.24 0.24 0.0 0 0 330.48 216.25
  Q 366.29 234.51 380.60 272.18
  Q 384.49 282.44 385.68 292.43
  C 386.79 301.79 380.58 309.02 371.09 308.23
  Q 363.50 307.59 359.79 299.52
  A 2.81 2.68 -62.1 0 1 359.54 298.63
  Q 357.04 276.75 343.24 259.67
  Q 326.83 240.06 301.83 234.33
  Q 291.98 232.31 281.96 232.80
  Q 275.55 233.12 273.58 232.42
  C 267.25 230.15 263.29 223.02 265.07 216.52
  C 267.94 206.07 277.08 206.02 286.64 205.66
  Q 292.40 205.44 301.01 202.10
  C 332.65 189.61 346.72 151.57 329.04 121.69
  Q 319.12 104.92 300.92 97.49
  Q 289.44 92.99 278.29 93.58
  C 250.02 95.09 227.85 115.94 224.55 144.43
  C 224.10 148.29 224.54 152.87 224.26 156.85
  Q 223.88 162.03 223.88 166.17
  Q 223.91 313.35 223.87 342.25
  Q 223.87 345.50 224.73 346.75
  C 242.19 371.84 270.30 384.15 300.32 378.61
  C 318.39 374.98 332.36 365.71 344.21 352.02
  Q 351.47 346.90 358.50 350.49
  Q 364.73 353.67 365.75 360.01
  C 366.99 367.73 362.65 371.51 358.19 376.39
  Q 327.77 406.62 284.51 406.74
  Q 250.94 405.62 224.43 385.31
  A 0.26 0.26 0.0 0 0 224.01 385.51
  Q 223.76 392.11 223.76 398.49
  Q 223.77 409.40 219.38 419.19
  C 209.75 438.90 191.02 448.84 169.33 446.25
  Q 146.71 443.54 133.50 421.94
  C 129.43 414.51 124.77 399.65 129.40 391.86
  Q 131.44 388.43 135.26 386.50
  C 143.70 382.61 152.24 387.76 154.24 396.54
  A 3.82 3.41 41.8 0 1 154.33 397.34
  Q 154.28 412.45 167.59 418.43
  C 178.83 423.49 191.83 416.86 195.97 405.83
  Q 197.16 402.65 197.16 391.39
  Q 197.13 239.04 197.15 157.57
  Q 197.15 154.10 197.47 148.44
  C 197.70 144.55 197.80 140.59 198.53 136.29
  Q 201.00 121.87 208.07 109.16
  C 222.53 83.50 248.43 68.16 277.78 66.84
  Q 304.91 66.24 327.26 81.29
  Z"
/>
<path fill="#a888f3" d="
  M 63.87 424.65
  Q 8.10 359.75 1.69 275.25
  Q -2.01 226.47 13.48 178.00
  Q 29.12 129.08 63.97 88.98
  Q 66.56 102.11 66.62 116.98
  C 66.88 183.85 66.43 250.32 66.85 316.99
  Q 67.01 342.71 66.56 394.17
  Q 66.43 409.38 63.87 424.65
  Z"
/>
<path fill="#8656f5" d="
  M 300.92 97.49
  Q 296.95 113.31 297.49 131.55
  Q 297.97 147.72 297.48 181.37
  Q 297.34 190.52 301.01 202.10
  Q 292.40 205.44 286.64 205.66
  C 277.08 206.02 267.94 206.07 265.07 216.52
  C 263.29 223.02 267.25 230.15 273.58 232.42
  Q 275.55 233.12 281.96 232.80
  Q 291.98 232.31 301.83 234.33
  Q 297.51 251.23 297.62 267.92
  Q 297.69 279.11 298.29 317.34
  C 298.46 327.86 298.19 336.80 297.86 348.42
  Q 297.43 363.55 300.32 378.61
  C 270.30 384.15 242.19 371.84 224.73 346.75
  Q 223.87 345.50 223.87 342.25
  Q 223.91 313.35 223.88 166.17
  Q 223.88 162.03 224.26 156.85
  C 224.54 152.87 224.10 148.29 224.55 144.43
  C 227.85 115.94 250.02 95.09 278.29 93.58
  Q 289.44 92.99 300.92 97.49
  Z"
/>
<path fill="#7c47f5" d="
  M 301.01 202.10
  Q 297.34 190.52 297.48 181.37
  Q 297.97 147.72 297.49 131.55
  Q 296.95 113.31 300.92 97.49
  Q 319.12 104.92 329.04 121.69
  C 346.72 151.57 332.65 189.61 301.01 202.10
  Z"
/>
<path fill="#7c47f5" d="
  M 301.83 234.33
  Q 326.83 240.06 343.24 259.67
  Q 342.12 275.55 342.30 283.28
  Q 342.98 311.97 343.73 340.66
  Q 343.88 346.32 344.21 352.02
  C 332.36 365.71 318.39 374.98 300.32 378.61
  Q 297.43 363.55 297.86 348.42
  C 298.19 336.80 298.46 327.86 298.29 317.34
  Q 297.69 279.11 297.62 267.92
  Q 297.51 251.23 301.83 234.33
  Z"
/>
<path fill="#7c47f5" d="
  M 358.19 376.39
  Q 361.16 388.39 361.21 403.08
  Q 361.32 434.87 361.09 466.67
  Q 361.01 478.16 361.76 489.90
  Q 326.50 505.78 287.94 510.54
  C 288.72 485.52 289.61 459.98 288.55 435.67
  Q 287.93 421.52 284.51 406.74
  Q 327.77 406.62 358.19 376.39
  Z"
/>
<path fill="#8656f5" d="
  M 284.51 406.74
  Q 287.93 421.52 288.55 435.67
  C 289.61 459.98 288.72 485.52 287.94 510.54
  L 273.75 512.00
  L 240.10 512.00
  L 220.29 509.87
  Q 220.93 497.75 220.71 485.82
  Q 220.33 465.26 221.22 444.71
  Q 221.62 435.67 219.38 419.19
  Q 223.77 409.40 223.76 398.49
  Q 223.76 392.11 224.01 385.51
  A 0.26 0.26 0.0 0 1 224.43 385.31
  Q 250.94 405.62 284.51 406.74
  Z"
/>
<path fill="#9166f4" d="
  M 219.38 419.19
  Q 221.62 435.67 221.22 444.71
  Q 220.33 465.26 220.71 485.82
  Q 220.93 497.75 220.29 509.87
  Q 171.90 502.84 129.46 478.57
  C 134.25 473.40 135.00 467.31 135.20 460.58
  Q 135.79 441.20 133.50 421.94
  Q 146.71 443.54 169.33 446.25
  C 191.02 448.84 209.75 438.90 219.38 419.19
  Z"
/>
</svg>