<?xml version="1.0" encoding="UTF-8" standalone="no"?>
<!DOCTYPE svg PUBLIC "-//W3C//DTD SVG 1.1//EN" "http://www.w3.org/Graphics/SVG/1.1/DTD/svg11.dtd">
<svg xmlns="http://www.w3.org/2000/svg" version="1.1" viewBox="0.00 0.00 180.00 180.00" width="128" height="128">
<g stroke-width="2.00" fill="none" stroke-linecap="butt">
<path stroke="#93a0ab" vector-effect="non-scaling-stroke" d="
  M 16.54 72.96
  Q 15.00 72.72 15.00 73.75
  Q 14.97 87.54 14.98 101.96"
/>
<path stroke="#fafcfe" vector-effect="non-scaling-stroke" d="
  M 14.98 101.96
  Q 13.08 105.59 13.02 111.77
  Q 12.76 139.42 13.09 166.61
  A 0.98 0.98 0.0 0 0 13.99 167.58
  Q 18.59 167.96 21.56 167.96
  Q 94.83 168.02 167.58 167.98
  A 0.36 0.36 0.0 0 0 167.94 167.62
  L 167.94 14.16
  A 1.26 1.26 0.0 0 0 166.68 12.90
  L 14.51 12.90
  A 1.63 1.63 0.0 0 0 12.88 14.52
  Q 12.76 37.73 13.16 65.37
  Q 13.23 70.01 16.54 72.96"
/>
<path stroke="#98a3ac" vector-effect="non-scaling-stroke" d="
  M 14.98 101.96
  Q 22.09 102.29 29.25 102.02
  C 38.22 101.69 40.59 90.56 32.03 87.41
  A 0.25 0.25 0.0 0 1 32.02 86.94
  C 40.09 83.72 36.80 73.73 29.17 73.07
  Q 25.03 72.71 16.54 72.96"
/>
<path stroke="#98a3ac" vector-effect="non-scaling-stroke" d="
  M 47.08 73.41
  A 4.22 4.22 0.0 0 0 42.86 69.19
  A 4.22 4.22 0.0 0 0 38.64 73.41
  A 4.22 4.22 0.0 0 0 42.86 77.63
  A 4.22 4.22 0.0 0 0 47.08 73.41"
/>
<path stroke="#98a3ac" vector-effect="non-scaling-stroke" d="
  M 77.49 73.23
  Q 81.61 74.89 83.66 78.41
  A 0.87 0.86 68.2 0 0 84.58 78.81
  C 98.61 75.90 100.16 96.91 86.49 96.70
  Q 86.06 96.70 77.39 96.68
  A 0.59 0.58 -0.0 0 0 76.80 97.26
  L 76.80 101.52
  A 0.58 0.58 0.0 0 0 77.38 102.10
  C 86.57 102.10 94.25 103.17 99.40 96.17
  C 103.04 91.22 103.20 83.33 99.26 78.69
  Q 95.01 73.69 89.93 73.25
  Q 84.60 72.80 77.55 72.89
  A 0.18 0.18 0.0 0 0 77.49 73.23"
/>
<path stroke="#98a3ac" vector-effect="non-scaling-stroke" d="
  M 137.37 78.41
  L 137.37 74.21
  A 0.90 0.90 0.0 0 0 136.47 73.31
  L 131.30 73.31
  A 0.85 0.85 0.0 0 0 130.45 74.16
  L 130.45 78.32
  A 0.68 0.67 8.9 0 1 129.57 78.96
  Q 129.41 78.91 129.24 78.86
  A 0.69 0.69 0.0 0 0 128.37 79.52
  L 128.37 84.13
  A 0.70 0.70 0.0 0 0 129.07 84.83
  L 129.70 84.83
  A 0.76 0.75 0.0 0 1 130.46 85.58
  Q 130.45 90.16 130.43 94.50
  C 130.39 101.70 135.18 102.14 141.12 102.11
  A 0.76 0.76 0.0 0 0 141.87 101.35
  L 141.87 96.74
  A 0.78 0.78 0.0 0 0 141.09 95.96
  L 138.62 95.96
  A 1.24 1.24 0.0 0 1 137.38 94.72
  L 137.38 85.42
  A 0.55 0.55 0.0 0 1 137.93 84.87
  L 141.13 84.87
  A 0.73 0.73 0.0 0 0 141.86 84.14
  L 141.86 79.87
  A 0.95 0.95 0.0 0 0 140.91 78.92
  L 137.88 78.92
  A 0.51 0.51 0.0 0 1 137.37 78.41"
/>
<path stroke="#f1b193" vector-effect="non-scaling-stroke" d="
  M 64.04 87.65
  Q 63.59 87.67 62.06 87.16
  C 56.23 85.22 55.40 94.23 60.52 94.19
  Q 75.34 94.08 85.14 94.23
  C 89.61 94.30 93.23 92.75 93.55 88.26
  Q 93.95 82.69 88.28 81.01
  Q 87.04 80.64 83.44 81.94
  A 0.62 0.62 0.0 0 1 82.68 81.63
  C 81.15 78.48 79.13 76.12 75.58 75.44
  C 71.01 74.55 66.91 77.03 65.24 81.29
  Q 64.45 83.30 64.64 87.00
  A 0.63 0.62 -2.7 0 1 64.04 87.65"
/>
<path stroke="#98a3ac" vector-effect="non-scaling-stroke" d="
  M 46.46 79.37
  A 0.46 0.46 0.0 0 0 46.00 78.91
  L 40.00 78.91
  A 0.46 0.46 0.0 0 0 39.54 79.37
  L 39.54 101.65
  A 0.46 0.46 0.0 0 0 40.00 102.11
  L 46.00 102.11
  A 0.46 0.46 0.0 0 0 46.46 101.65
  L 46.46 79.37"
/>
<path stroke="#98a3ac" vector-effect="non-scaling-stroke" d="
  M 65.04 99.96
  C 65.00 104.40 64.26 108.71 58.40 107.01
  Q 56.92 106.58 56.05 105.16
  A 0.97 0.96 -15.3 0 0 55.22 104.69
  L 49.58 104.69
  A 0.56 0.56 0.0 0 0 49.03 105.36
  C 50.41 112.22 56.18 114.00 62.40 113.39
  C 71.62 112.47 72.33 104.36 71.88 97.06
  A 0.38 0.38 0.0 0 0 71.50 96.70
  Q 68.51 96.66 61.29 96.68
  C 54.06 96.71 52.23 88.29 58.37 84.82
  Q 59.06 84.43 61.59 84.45
  A 0.61 0.60 5.1 0 0 62.19 83.96
  L 62.89 80.39
  A 0.69 0.69 0.0 0 0 62.54 79.65
  C 57.94 77.28 52.60 79.32 50.13 83.62
  C 46.54 89.84 48.16 99.70 55.71 101.94
  Q 60.00 103.22 63.05 100.79
  Q 64.45 99.67 64.51 99.63
  A 0.36 0.36 0.0 0 1 65.04 99.96"
/>
<path stroke="#98a3ac" vector-effect="non-scaling-stroke" d="
  M 102.71 90.50
  C 102.71 94.96 104.97 99.80 109.30 101.61
  Q 114.70 103.87 118.98 99.63
  A 0.35 0.35 0.0 0 1 119.57 99.88
  L 119.57 101.58
  A 0.53 0.53 0.0 0 0 120.10 102.11
  L 125.99 102.11
  A 0.39 0.39 0.0 0 0 126.38 101.73
  Q 126.42 98.31 126.43 90.51
  Q 126.43 82.71 126.39 79.29
  A 0.39 0.39 0.0 0 0 126.00 78.91
  L 120.11 78.90
  A 0.53 0.53 0.0 0 0 119.58 79.43
  L 119.58 81.13
  A 0.35 0.35 0.0 0 1 118.99 81.38
  Q 114.72 77.14 109.31 79.39
  C 104.98 81.20 102.72 86.03 102.71 90.50"
/>
<path stroke="#98a3ac" vector-effect="non-scaling-stroke" d="
  M 142.32 90.51
  C 142.32 94.97 144.59 99.80 148.92 101.60
  Q 154.32 103.86 158.60 99.61
  A 0.35 0.35 0.0 0 1 159.19 99.86
  L 159.19 101.56
  A 0.53 0.53 0.0 0 0 159.72 102.09
  L 165.61 102.08
  A 0.39 0.39 0.0 0 0 165.99 101.69
  Q 166.04 98.28 166.03 90.48
  Q 166.02 82.68 165.97 79.26
  A 0.39 0.39 0.0 0 0 165.58 78.88
  L 159.69 78.88
  A 0.53 0.53 0.0 0 0 159.16 79.41
  L 159.16 81.11
  A 0.35 0.35 0.0 0 1 158.57 81.36
  Q 154.29 77.13 148.89 79.39
  C 144.57 81.21 142.31 86.04 142.32 90.51"
/>
<path stroke="#fafcfe" vector-effect="non-scaling-stroke" d="
  M 166.30 112.07
  Q 165.97 110.58 166.24 106.15
  A 1.15 0.96 -87.0 0 0 165.33 104.93
  Q 164.70 104.91 164.82 106.84
  A 0.26 0.26 0.0 0 1 164.53 107.12
  Q 160.87 106.61 160.93 110.52
  A 2.81 2.81 0.0 0 0 163.41 113.28
  Q 163.42 113.28 165.92 112.69
  A 0.52 0.52 0.0 0 0 166.30 112.07"
/>
<path stroke="#fafcfe" vector-effect="non-scaling-stroke" d="
  M 150.7858 107.0207
  A 3.14 2.69 -88.8 0 0 148.0306 110.1037
  A 3.14 2.69 -88.8 0 0 150.6542 113.2993
  A 3.14 2.69 -88.8 0 0 153.4094 110.2163
  A 3.14 2.69 -88.8 0 0 150.7858 107.0207"
/>
<path stroke="#98a3ac" vector-effect="non-scaling-stroke" d="
  M 21.86 79.01
  L 21.88 84.07
  A 0.57 0.57 0.0 0 0 22.45 84.64
  L 26.70 84.63
  A 2.94 2.87 -0.2 0 0 29.63 81.75
  L 29.63 81.29
  A 2.94 2.87 -0.2 0 0 26.68 78.43
  L 22.43 78.44
  A 0.57 0.57 0.0 0 0 21.86 79.01"
/>
<path stroke="#98a3ac" vector-effect="non-scaling-stroke" d="
  M 21.83 90.65
  L 21.85 96.07
  A 0.59 0.59 0.0 0 0 22.45 96.66
  L 27.09 96.63
  A 3.21 3.15 -0.3 0 0 30.28 93.47
  L 30.28 93.17
  A 3.21 3.15 -0.3 0 0 27.05 90.03
  L 22.41 90.06
  A 0.59 0.59 0.0 0 0 21.83 90.65"
/>
<path stroke="#98a3ac" vector-effect="non-scaling-stroke" d="
  M 114.7197 84.8307
  A 5.71 4.94 -89.1 0 0 109.6906 90.4624
  A 5.71 4.94 -89.1 0 0 114.5403 96.2493
  A 5.71 4.94 -89.1 0 0 119.5694 90.6176
  A 5.71 4.94 -89.1 0 0 114.7197 84.8307"
/>
<path stroke="#98a3ac" vector-effect="non-scaling-stroke" d="
  M 154.3098 84.8204
  A 5.71 4.94 -89.3 0 0 149.3004 90.4696
  A 5.71 4.94 -89.3 0 0 154.1702 96.2396
  A 5.71 4.94 -89.3 0 0 159.1796 90.5904
  A 5.71 4.94 -89.3 0 0 154.3098 84.8204"
/>
</g>
<path fill="#f5f9fc" d="
  M 180.00 0.00
  L 180.00 180.00
  L 0.00 180.00
  L 0.00 0.00
  L 180.00 0.00
  Z
  M 16.54 72.96
  Q 15.00 72.72 15.00 73.75
  Q 14.97 87.54 14.98 101.96
  Q 13.08 105.59 13.02 111.77
  Q 12.76 139.42 13.09 166.61
  A 0.98 0.98 0.0 0 0 13.99 167.58
  Q 18.59 167.96 21.56 167.96
  Q 94.83 168.02 167.58 167.98
  A 0.36 0.36 0.0 0 0 167.94 167.62
  L 167.94 14.16
  A 1.26 1.26 0.0 0 0 166.68 12.90
  L 14.51 12.90
  A 1.63 1.63 0.0 0 0 12.88 14.52
  Q 12.76 37.73 13.16 65.37
  Q 13.23 70.01 16.54 72.96
  Z"
/>
<path fill="#ffffff" d="
  M 14.98 101.96
  Q 22.09 102.29 29.25 102.02
  C 38.22 101.69 40.59 90.56 32.03 87.41
  A 0.25 0.25 0.0 0 1 32.02 86.94
  C 40.09 83.72 36.80 73.73 29.17 73.07
  Q 25.03 72.71 16.54 72.96
  Q 13.23 70.01 13.16 65.37
  Q 12.76 37.73 12.88 14.52
  A 1.63 1.63 0.0 0 1 14.51 12.90
  L 166.68 12.90
  A 1.26 1.26 0.0 0 1 167.94 14.16
  L 167.94 167.62
  A 0.36 0.36 0.0 0 1 167.58 167.98
  Q 94.83 168.02 21.56 167.96
  Q 18.59 167.96 13.99 167.58
  A 0.98 0.98 0.0 0 1 13.09 166.61
  Q 12.76 139.42 13.02 111.77
  Q 13.08 105.59 14.98 101.96
  Z
  M 47.08 73.41
  A 4.22 4.22 0.0 0 0 42.86 69.19
  A 4.22 4.22 0.0 0 0 38.64 73.41
  A 4.22 4.22 0.0 0 0 42.86 77.63
  A 4.22 4.22 0.0 0 0 47.08 73.41
  Z
  M 77.49 73.23
  Q 81.61 74.89 83.66 78.41
  A 0.87 0.86 68.2 0 0 84.58 78.81
  C 98.61 75.90 100.16 96.91 86.49 96.70
  Q 86.06 96.70 77.39 96.68
  A 0.59 0.58 -0.0 0 0 76.80 97.26
  L 76.80 101.52
  A 0.58 0.58 0.0 0 0 77.38 102.10
  C 86.57 102.10 94.25 103.17 99.40 96.17
  C 103.04 91.22 103.20 83.33 99.26 78.69
  Q 95.01 73.69 89.93 73.25
  Q 84.60 72.80 77.55 72.89
  A 0.18 0.18 0.0 0 0 77.49 73.23
  Z
  M 137.37 78.41
  L 137.37 74.21
  A 0.90 0.90 0.0 0 0 136.47 73.31
  L 131.30 73.31
  A 0.85 0.85 0.0 0 0 130.45 74.16
  L 130.45 78.32
  A 0.68 0.67 8.9 0 1 129.57 78.96
  Q 129.41 78.91 129.24 78.86
  A 0.69 0.69 0.0 0 0 128.37 79.52
  L 128.37 84.13
  A 0.70 0.70 0.0 0 0 129.07 84.83
  L 129.70 84.83
  A 0.76 0.75 0.0 0 1 130.46 85.58
  Q 130.45 90.16 130.43 94.50
  C 130.39 101.70 135.18 102.14 141.12 102.11
  A 0.76 0.76 0.0 0 0 141.87 101.35
  L 141.87 96.74
  A 0.78 0.78 0.0 0 0 141.09 95.96
  L 138.62 95.96
  A 1.24 1.24 0.0 0 1 137.38 94.72
  L 137.38 85.42
  A 0.55 0.55 0.0 0 1 137.93 84.87
  L 141.13 84.87
  A 0.73 0.73 0.0 0 0 141.86 84.14
  L 141.86 79.87
  A 0.95 0.95 0.0 0 0 140.91 78.92
  L 137.88 78.92
  A 0.51 0.51 0.0 0 1 137.37 78.41
  Z
  M 64.04 87.65
  Q 63.59 87.67 62.06 87.16
  C 56.23 85.22 55.40 94.23 60.52 94.19
  Q 75.34 94.08 85.14 94.23
  C 89.61 94.30 93.23 92.75 93.55 88.26
  Q 93.95 82.69 88.28 81.01
  Q 87.04 80.64 83.44 81.94
  A 0.62 0.62 0.0 0 1 82.68 81.63
  C 81.15 78.48 79.13 76.12 75.58 75.44
  C 71.01 74.55 66.91 77.03 65.24 81.29
  Q 64.45 83.30 64.64 87.00
  A 0.63 0.62 -2.7 0 1 64.04 87.65
  Z
  M 46.46 79.37
  A 0.46 0.46 0.0 0 0 46.00 78.91
  L 40.00 78.91
  A 0.46 0.46 0.0 0 0 39.54 79.37
  L 39.54 101.65
  A 0.46 0.46 0.0 0 0 40.00 102.11
  L 46.00 102.11
  A 0.46 0.46 0.0 0 0 46.46 101.65
  L 46.46 79.37
  Z
  M 65.04 99.96
  C 65.00 104.40 64.26 108.71 58.40 107.01
  Q 56.92 106.58 56.05 105.16
  A 0.97 0.96 -15.3 0 0 55.22 104.69
  L 49.58 104.69
  A 0.56 0.56 0.0 0 0 49.03 105.36
  C 50.41 112.22 56.18 114.00 62.40 113.39
  C 71.62 112.47 72.33 104.36 71.88 97.06
  A 0.38 0.38 0.0 0 0 71.50 96.70
  Q 68.51 96.66 61.29 96.68
  C 54.06 96.71 52.23 88.29 58.37 84.82
  Q 59.06 84.43 61.59 84.45
  A 0.61 0.60 5.1 0 0 62.19 83.96
  L 62.89 80.39
  A 0.69 0.69 0.0 0 0 62.54 79.65
  C 57.94 77.28 52.60 79.32 50.13 83.62
  C 46.54 89.84 48.16 99.70 55.71 101.94
  Q 60.00 103.22 63.05 100.79
  Q 64.45 99.67 64.51 99.63
  A 0.36 0.36 0.0 0 1 65.04 99.96
  Z
  M 102.71 90.50
  C 102.71 94.96 104.97 99.80 109.30 101.61
  Q 114.70 103.87 118.98 99.63
  A 0.35 0.35 0.0 0 1 119.57 99.88
  L 119.57 101.58
  A 0.53 0.53 0.0 0 0 120.10 102.11
  L 125.99 102.11
  A 0.39 0.39 0.0 0 0 126.38 101.73
  Q 126.42 98.31 126.43 90.51
  Q 126.43 82.71 126.39 79.29
  A 0.39 0.39 0.0 0 0 126.00 78.91
  L 120.11 78.90
  A 0.53 0.53 0.0 0 0 119.58 79.43
  L 119.58 81.13
  A 0.35 0.35 0.0 0 1 118.99 81.38
  Q 114.72 77.14 109.31 79.39
  C 104.98 81.20 102.72 86.03 102.71 90.50
  Z
  M 142.32 90.51
  C 142.32 94.97 144.59 99.80 148.92 101.60
  Q 154.32 103.86 158.60 99.61
  A 0.35 0.35 0.0 0 1 159.19 99.86
  L 159.19 101.56
  A 0.53 0.53 0.0 0 0 159.72 102.09
  L 165.61 102.08
  A 0.39 0.39 0.0 0 0 165.99 101.69
  Q 166.04 98.28 166.03 90.48
  Q 166.02 82.68 165.97 79.26
  A 0.39 0.39 0.0 0 0 165.58 78.88
  L 159.69 78.88
  A 0.53 0.53 0.0 0 0 159.16 79.41
  L 159.16 81.11
  A 0.35 0.35 0.0 0 1 158.57 81.36
  Q 154.29 77.13 148.89 79.39
  C 144.57 81.21 142.31 86.04 142.32 90.51
  Z
  M 166.30 112.07
  Q 165.97 110.58 166.24 106.15
  A 1.15 0.96 -87.0 0 0 165.33 104.93
  Q 164.70 104.91 164.82 106.84
  A 0.26 0.26 0.0 0 1 164.53 107.12
  Q 160.87 106.61 160.93 110.52
  A 2.81 2.81 0.0 0 0 163.41 113.28
  Q 163.42 113.28 165.92 112.69
  A 0.52 0.52 0.0 0 0 166.30 112.07
  Z
  M 150.7858 107.0207
  A 3.14 2.69 -88.8 0 0 148.0306 110.1037
  A 3.14 2.69 -88.8 0 0 150.6542 113.2993
  A 3.14 2.69 -88.8 0 0 153.4094 110.2163
  A 3.14 2.69 -88.8 0 0 150.7858 107.0207
  Z"
/>
<circle fill="#304659" cx="42.86" cy="73.41" r="4.22"/>
<path fill="#304659" d="
  M 77.49 73.23
  A 0.18 0.18 0.0 0 1 77.55 72.89
  Q 84.60 72.80 89.93 73.25
  Q 95.01 73.69 99.26 78.69
  C 103.20 83.33 103.04 91.22 99.40 96.17
  C 94.25 103.17 86.57 102.10 77.38 102.10
  A 0.58 0.58 0.0 0 1 76.80 101.52
  L 76.80 97.26
  A 0.59 0.58 0.0 0 1 77.39 96.68
  Q 86.06 96.70 86.49 96.70
  C 100.16 96.91 98.61 75.90 84.58 78.81
  A 0.87 0.86 68.2 0 1 83.66 78.41
  Q 81.61 74.89 77.49 73.23
  Z"
/>
<path fill="#304659" d="
  M 16.54 72.96
  Q 25.03 72.71 29.17 73.07
  C 36.80 73.73 40.09 83.72 32.02 86.94
  A 0.25 0.25 0.0 0 0 32.03 87.41
  C 40.59 90.56 38.22 101.69 29.25 102.02
  Q 22.09 102.29 14.98 101.96
  Q 14.97 87.54 15.00 73.75
  Q 15.00 72.72 16.54 72.96
  Z
  M 21.86 79.01
  L 21.88 84.07
  A 0.57 0.57 0.0 0 0 22.45 84.64
  L 26.70 84.63
  A 2.94 2.87 -0.2 0 0 29.63 81.75
  L 29.63 81.29
  A 2.94 2.87 -0.2 0 0 26.68 78.43
  L 22.43 78.44
  A 0.57 0.57 0.0 0 0 21.86 79.01
  Z
  M 21.83 90.65
  L 21.85 96.07
  A 0.59 0.59 0.0 0 0 22.45 96.66
  L 27.09 96.63
  A 3.21 3.15 -0.3 0 0 30.28 93.47
  L 30.28 93.17
  A 3.21 3.15 -0.3 0 0 27.05 90.03
  L 22.41 90.06
  A 0.59 0.59 0.0 0 0 21.83 90.65
  Z"
/>
<path fill="#304659" d="
  M 137.88 78.92
  L 140.91 78.92
  A 0.95 0.95 0.0 0 1 141.86 79.87
  L 141.86 84.14
  A 0.73 0.73 0.0 0 1 141.13 84.87
  L 137.93 84.87
  A 0.55 0.55 0.0 0 0 137.38 85.42
  L 137.38 94.72
  A 1.24 1.24 0.0 0 0 138.62 95.96
  L 141.09 95.96
  A 0.78 0.78 0.0 0 1 141.87 96.74
  L 141.87 101.35
  A 0.76 0.76 0.0 0 1 141.12 102.11
  C 135.18 102.14 130.39 101.70 130.43 94.50
  Q 130.45 90.16 130.46 85.58
  A 0.76 0.75 -0.0 0 0 129.70 84.83
  L 129.07 84.83
  A 0.70 0.70 0.0 0 1 128.37 84.13
  L 128.37 79.52
  A 0.69 0.69 0.0 0 1 129.24 78.86
  Q 129.41 78.91 129.57 78.96
  A 0.68 0.67 8.9 0 0 130.45 78.32
  L 130.45 74.16
  A 0.85 0.85 0.0 0 1 131.30 73.31
  L 136.47 73.31
  A 0.90 0.90 0.0 0 1 137.37 74.21
  L 137.37 78.41
  A 0.51 0.51 0.0 0 0 137.88 78.92
  Z"
/>
<path fill="#e36327" d="
  M 64.64 87.00
  Q 64.45 83.30 65.24 81.29
  C 66.91 77.03 71.01 74.55 75.58 75.44
  C 79.13 76.12 81.15 78.48 82.68 81.63
  A 0.62 0.62 0.0 0 0 83.44 81.94
  Q 87.04 80.64 88.28 81.01
  Q 93.95 82.69 93.55 88.26
  C 93.23 92.75 89.61 94.30 85.14 94.23
  Q 75.34 94.08 60.52 94.19
  C 55.40 94.23 56.23 85.22 62.06 87.16
  Q 63.59 87.67 64.04 87.65
  A 0.63 0.62 -2.7 0 0 64.64 87.00
  Z"
/>
<path fill="#ffffff" d="
  M 21.86 79.01
  A 0.57 0.57 0.0 0 1 22.43 78.44
  L 26.68 78.43
  A 2.94 2.87 -0.2 0 1 29.63 81.29
  L 29.63 81.75
  A 2.94 2.87 -0.2 0 1 26.70 84.63
  L 22.45 84.64
  A 0.57 0.57 0.0 0 1 21.88 84.07
  L 21.86 79.01
  Z"
/>
<rect fill="#304659" x="39.54" y="78.91" width="6.92" height="23.20" rx="0.46"/>
<path fill="#304659" d="
  M 64.51 99.63
  Q 64.45 99.67 63.05 100.79
  Q 60.00 103.22 55.71 101.94
  C 48.16 99.70 46.54 89.84 50.13 83.62
  C 52.60 79.32 57.94 77.28 62.54 79.65
  A 0.69 0.69 0.0 0 1 62.89 80.39
  L 62.19 83.96
  A 0.61 0.60 5.1 0 1 61.59 84.45
  Q 59.06 84.43 58.37 84.82
  C 52.23 88.29 54.06 96.71 61.29 96.68
  Q 68.51 96.66 71.50 96.70
  A 0.38 0.38 0.0 0 1 71.88 97.06
  C 72.33 104.36 71.62 112.47 62.40 113.39
  C 56.18 114.00 50.41 112.22 49.03 105.36
  A 0.56 0.56 0.0 0 1 49.58 104.69
  L 55.22 104.69
  A 0.97 0.96 -15.3 0 1 56.05 105.16
  Q 56.92 106.58 58.40 107.01
  C 64.26 108.71 65.00 104.40 65.04 99.96
  A 0.36 0.36 0.0 0 0 64.51 99.63
  Z"
/>
<path fill="#304659" d="
  M 126.43 90.51
  Q 126.42 98.31 126.38 101.73
  A 0.39 0.39 0.0 0 1 125.99 102.11
  L 120.10 102.11
  A 0.53 0.53 0.0 0 1 119.57 101.58
  L 119.57 99.88
  A 0.35 0.35 0.0 0 0 118.98 99.63
  Q 114.70 103.87 109.30 101.61
  C 104.97 99.80 102.71 94.96 102.71 90.50
  C 102.72 86.03 104.98 81.20 109.31 79.39
  Q 114.72 77.14 118.99 81.38
  A 0.35 0.35 0.0 0 0 119.58 81.13
  L 119.58 79.43
  A 0.53 0.53 0.0 0 1 120.11 78.90
  L 126.00 78.91
  A 0.39 0.39 0.0 0 1 126.39 79.29
  Q 126.43 82.71 126.43 90.51
  Z
  M 114.7197 84.8307
  A 5.71 4.94 -89.1 0 0 109.6906 90.4624
  A 5.71 4.94 -89.1 0 0 114.5403 96.2493
  A 5.71 4.94 -89.1 0 0 119.5694 90.6176
  A 5.71 4.94 -89.1 0 0 114.7197 84.8307
  Z"
/>
<path fill="#304659" d="
  M 142.32 90.51
  C 142.31 86.04 144.57 81.21 148.89 79.39
  Q 154.29 77.13 158.57 81.36
  A 0.35 0.35 0.0 0 0 159.16 81.11
  L 159.16 79.41
  A 0.53 0.53 0.0 0 1 159.69 78.88
  L 165.58 78.88
  A 0.39 0.39 0.0 0 1 165.97 79.26
  Q 166.02 82.68 166.03 90.48
  Q 166.04 98.28 165.99 101.69
  A 0.39 0.39 0.0 0 1 165.61 102.08
  L 159.72 102.09
  A 0.53 0.53 0.0 0 1 159.19 101.56
  L 159.19 99.86
  A 0.35 0.35 0.0 0 0 158.60 99.61
  Q 154.32 103.86 148.92 101.60
  C 144.59 99.80 142.32 94.97 142.32 90.51
  Z
  M 154.3098 84.8204
  A 5.71 4.94 -89.3 0 0 149.3004 90.4696
  A 5.71 4.94 -89.3 0 0 154.1702 96.2396
  A 5.71 4.94 -89.3 0 0 159.1796 90.5904
  A 5.71 4.94 -89.3 0 0 154.3098 84.8204
  Z"
/>
<ellipse fill="#ffffff" cx="0.00" cy="0.00" transform="translate(114.63,90.54) rotate(-89.1)" rx="5.71" ry="4.94"/>
<ellipse fill="#ffffff" cx="0.00" cy="0.00" transform="translate(154.24,90.53) rotate(-89.3)" rx="5.71" ry="4.94"/>
<path fill="#ffffff" d="
  M 21.83 90.65
  A 0.59 0.59 0.0 0 1 22.41 90.06
  L 27.05 90.03
  A 3.21 3.15 -0.3 0 1 30.28 93.17
  L 30.28 93.47
  A 3.21 3.15 -0.3 0 1 27.09 96.63
  L 22.45 96.66
  A 0.59 0.59 0.0 0 1 21.85 96.07
  L 21.83 90.65
  Z"
/>
<path fill="#f5f9fc" d="
  M 165.92 112.69
  Q 163.42 113.28 163.41 113.28
  A 2.81 2.81 0.0 0 1 160.93 110.52
  Q 160.87 106.61 164.53 107.12
  A 0.26 0.26 0.0 0 0 164.82 106.84
  Q 164.70 104.91 165.33 104.93
  A 1.15 0.96 -87.0 0 1 166.24 106.15
  Q 165.97 110.58 166.30 112.07
  A 0.52 0.52 0.0 0 1 165.92 112.69
  Z"
/>
<ellipse fill="#f5f9fc" cx="0.00" cy="0.00" transform="translate(150.72,110.16) rotate(-88.8)" rx="3.14" ry="2.69"/>
</svg>