<?xml version="1.0" encoding="UTF-8" standalone="no"?>
<!DOCTYPE svg PUBLIC "-//W3C//DTD SVG 1.1//EN" "http://www.w3.org/Graphics/SVG/1.1/DTD/svg11.dtd">
<svg xmlns="http://www.w3.org/2000/svg" version="1.1" viewBox="0.00 0.00 192.00 192.00" width="128" height="128">
<path fill="#0076d6" d="
  M 192.00 108.74
  L 192.00 117.39
  C 189.48 136.46 176.90 151.01 158.30 155.56
  Q 153.45 156.75 143.07 156.73
  Q 76.34 156.59 50.27 156.77
  Q 38.33 156.85 32.38 155.25
  C 14.59 150.44 2.39 135.82 0.00 117.49
  L 0.00 108.81
  Q 1.43 97.50 7.03 89.27
  Q 19.09 71.54 41.22 69.39
  A 2.03 2.00 10.6 0 0 42.81 68.32
  C 65.92 24.27 127.39 24.28 149.51 69.06
  A 0.92 0.91 77.9 0 0 150.27 69.56
  C 157.90 69.91 165.20 72.12 171.70 76.29
  Q 188.93 87.33 192.00 108.74
  Z
  M 96.02 97.59
  Q 135.62 97.59 137.17 97.60
  A 0.45 0.45 0.0 0 1 137.61 98.05
  L 137.61 146.47
  A 0.48 0.47 -0.6 0 0 138.10 146.94
  C 143.54 146.81 149.94 147.34 154.62 146.39
  C 183.16 140.57 192.31 105.10 169.53 86.65
  Q 162.36 80.84 152.01 79.45
  Q 150.90 79.30 143.95 79.41
  A 0.78 0.76 78.5 0 1 143.22 78.92
  C 135.32 58.97 118.24 45.13 96.03 45.12
  C 73.82 45.12 56.73 58.96 48.83 78.91
  A 0.78 0.76 -78.5 0 1 48.10 79.40
  Q 41.15 79.29 40.04 79.44
  Q 29.69 80.83 22.52 86.64
  C -0.26 105.09 8.88 140.56 37.42 146.38
  C 42.10 147.33 48.50 146.80 53.94 146.93
  A 0.48 0.47 0.6 0 0 54.43 146.46
  L 54.44 98.04
  A 0.45 0.45 0.0 0 1 54.88 97.60
  Q 56.43 97.58 96.02 97.59
  Z
  M 119.20 107.89
  A 0.30 0.30 0.0 0 0 119.00 107.37
  L 73.04 107.37
  A 0.30 0.30 0.0 0 0 72.84 107.89
  L 95.82 129.05
  A 0.30 0.30 0.0 0 0 96.22 129.05
  L 119.20 107.89
  Z
  M 96.00 146.90
  Q 126.59 146.88 127.20 146.90
  A 0.58 0.58 0.0 0 0 127.80 146.32
  L 127.80 114.07
  A 0.41 0.41 0.0 0 0 127.12 113.77
  Q 110.77 128.96 96.68 141.93
  Q 96.33 142.25 96.00 142.25
  Q 95.66 142.25 95.31 141.93
  Q 81.21 128.97 64.85 113.79
  A 0.41 0.41 0.0 0 0 64.17 114.09
  L 64.20 146.34
  A 0.58 0.58 0.0 0 0 64.79 146.92
  Q 65.41 146.91 96.00 146.90
  Z"
/>
</svg>