<?xml version="1.0" encoding="UTF-8" standalone="no"?>
<!DOCTYPE svg PUBLIC "-//W3C//DTD SVG 1.1//EN" "http://www.w3.org/Graphics/SVG/1.1/DTD/svg11.dtd">
<svg xmlns="http://www.w3.org/2000/svg" version="1.1" viewBox="0.00 0.00 256.00 256.00" width="128" height="128">
<g stroke-width="2.00" fill="none" stroke-linecap="butt">
<path stroke="#817484" vector-effect="non-scaling-stroke" d="
  M 60.71 16.27
  Q 50.13 16.28 39.82 17.87"
/>
<path stroke="#8e224d" vector-effect="non-scaling-stroke" d="
  M 39.82 17.87
  Q 37.48 18.13 35.72 20.27
  A 2.68 2.67 -38.4 0 0 35.38 23.14
  L 40.79 34.29
  A 0.04 0.03 -29.4 0 1 40.77 34.34
  L 40.52 34.46
  A 0.16 0.16 0.0 0 1 40.31 34.39
  L 35.81 25.10
  A 0.17 0.16 62.6 0 0 35.59 25.02
  L 35.33 25.15
  A 0.38 0.37 -23.2 0 0 35.14 25.62
  C 37.65 32.14 42.03 38.38 43.79 43.47
  C 46.02 49.95 49.21 56.20 50.39 62.60
  C 52.11 71.90 53.91 81.83 58.13 90.36
  Q 60.69 95.52 62.33 99.19
  C 67.24 110.19 65.96 119.34 64.40 133.49
  A 0.48 0.48 0.0 0 1 63.72 133.88
  C 59.08 131.78 56.65 132.70 52.51 136.09
  C 46.45 141.05 42.66 144.72 36.48 146.49
  Q 35.16 146.86 32.37 149.08"
/>
<path stroke="#c36657" vector-effect="non-scaling-stroke" d="
  M 42.10 26.48
  Q 44.24 32.57 48.49 37.99"
/>
<path stroke="#be4141" vector-effect="non-scaling-stroke" d="
  M 48.49 37.99
  L 43.26 32.25
  A 0.09 0.09 0.0 0 0 43.13 32.24
  L 42.92 32.39
  A 0.29 0.29 0.0 0 0 42.87 32.80
  Q 45.19 35.84 47.10 38.87
  Q 47.18 38.99 47.18 39.03
  A 0.07 0.06 32.1 0 1 47.05 39.05
  L 41.35 31.64
  A 0.24 0.23 55.5 0 0 41.04 31.58
  L 41.03 31.59
  A 0.13 0.13 0.0 0 0 40.99 31.77
  Q 43.37 35.63 46.10 39.19
  Q 47.87 41.51 50.68 46.85
  Q 55.62 56.23 61.98 64.77"
/>
<path stroke="#ad2856" vector-effect="non-scaling-stroke" d="
  M 61.98 64.77
  L 55.70 58.17
  A 0.05 0.05 0.0 0 0 55.62 58.22
  C 56.77 63.45 60.47 68.29 61.80 72.64
  C 63.28 77.52 62.06 81.58 61.92 85.10
  C 61.79 88.40 62.85 92.19 64.19 96.31
  Q 68.01 108.07 67.04 120.19
  Q 66.24 130.20 66.31 136.90
  C 66.40 145.25 65.90 151.27 65.76 159.32
  Q 65.62 167.02 69.54 173.08
  Q 73.60 179.38 76.11 181.99
  Q 81.70 187.80 83.91 190.35
  C 87.50 194.50 90.93 198.64 92.54 203.70
  C 96.63 216.58 88.80 225.59 79.14 232.63
  Q 77.71 233.68 76.59 235.87
  A 0.62 0.61 31.2 0 0 76.79 236.65
  L 78.82 238.07"
/>
<path stroke="#937786" vector-effect="non-scaling-stroke" d="
  M 197.91 118.06
  L 195.01 122.65
  A 0.71 0.69 13.8 0 1 194.45 122.98
  Q 194.32 122.99 194.13 123.02
  A 1.02 1.01 -1.2 0 0 193.28 123.90
  L 192.89 127.29"
/>
<path stroke="#b7b88e" vector-effect="non-scaling-stroke" d="
  M 192.89 127.29
  L 192.67 124.94
  A 0.04 0.03 -11.7 0 0 192.62 124.91
  Q 192.35 125.00 192.39 125.21
  A 0.03 0.03 0.0 0 1 192.35 125.24
  L 188.48 123.53
  A 4.09 3.97 -31.3 0 0 187.03 123.20
  C 183.07 123.08 181.95 121.58 178.81 119.58
  A 4.45 4.43 -18.6 0 0 177.92 119.14
  Q 174.95 118.07 172.94 116.39
  A 0.23 0.23 0.0 0 1 173.21 116.01
  L 174.16 116.55
  A 0.27 0.27 0.0 0 0 174.43 116.09
  L 166.99 111.53
  A 0.09 0.09 0.0 0 1 167.06 111.36
  Q 167.69 111.48 167.73 111.46
  A 0.23 0.23 0.0 0 0 167.76 111.07
  L 160.24 105.70
  A 0.10 0.09 -54.8 0 0 160.10 105.73
  L 159.88 106.11
  A 0.29 0.29 0.0 0 0 160.02 106.52
  Q 162.98 107.67 164.67 109.16
  A 0.22 0.22 0.0 0 1 164.44 109.52
  Q 160.16 107.69 157.70 105.02
  C 156.33 103.53 153.87 102.73 153.14 101.41
  A 0.09 0.03 73.2 0 0 153.12 101.38
  L 147.60 97.14
  A 2.10 1.98 73.3 0 0 147.08 96.84
  Q 143.18 95.30 139.99 92.67
  A 2.73 2.70 -16.2 0 0 139.07 92.17
  Q 137.67 91.75 136.86 90.90
  Q 133.54 87.44 130.80 85.58
  A 1.18 1.12 6.1 0 1 130.41 85.12
  Q 129.98 84.22 128.98 84.03
  Q 127.93 83.83 127.26 83.13
  Q 125.26 81.05 121.91 79.60
  C 118.25 78.00 115.49 75.94 113.01 73.18
  Q 109.44 69.21 106.75 67.25
  A 4.35 3.89 -11.3 0 0 105.97 66.79
  Q 94.59 61.71 91.87 59.65
  Q 87.34 56.22 82.61 53.69
  Q 81.35 53.02 80.60 51.89
  A 0.17 0.17 0.0 0 1 80.83 51.65
  L 82.25 52.47
  A 0.07 0.07 0.0 0 0 82.34 52.36
  Q 79.89 49.98 76.92 49.29
  C 75.66 49.00 74.54 48.22 73.69 47.57
  A 0.06 0.06 0.0 0 1 73.74 47.47
  Q 74.07 47.56 74.24 47.46
  A 0.06 0.06 0.0 0 0 74.25 47.36
  L 68.83 43.74
  A 0.03 0.03 0.0 0 0 68.78 43.77
  Q 68.81 43.89 68.95 44.06
  A 0.22 0.22 0.0 0 1 68.72 44.42
  Q 66.93 43.96 65.43 42.84
  A 0.37 0.37 0.0 0 0 64.92 43.37
  C 66.37 45.18 67.35 45.80 69.97 46.76
  Q 73.16 47.91 75.79 50.26
  Q 76.63 51.00 75.93 50.18
  A 0.22 0.21 79.3 0 0 75.83 50.11
  Q 71.33 48.83 67.95 46.61
  Q 65.69 45.13 63.74 42.03
  C 61.04 37.74 59.14 35.14 55.70 32.43
  Q 54.37 31.38 50.08 30.01
  Q 45.90 28.67 42.10 26.48"
/>
<path stroke="#937786" vector-effect="non-scaling-stroke" d="
  M 42.10 26.48
  L 38.67 22.21
  A 1.15 1.13 -59.4 0 1 38.45 21.33
  Q 38.76 19.53 39.82 17.87"
/>
<path stroke="#c36657" vector-effect="non-scaling-stroke" d="
  M 192.89 127.29
  Q 192.71 129.02 193.13 130.18"
/>
<path stroke="#e38f4f" vector-effect="non-scaling-stroke" d="
  M 193.13 130.18
  C 189.42 137.67 185.17 142.20 176.58 143.20
  C 166.04 144.43 153.01 141.96 144.36 140.16
  Q 130.47 137.26 117.69 144.70
  Q 104.48 152.39 101.83 154.15
  A 0.58 0.58 0.0 0 1 101.02 153.98
  L 100.16 152.67
  A 0.28 0.27 -31.0 0 0 99.79 152.58
  A 0.24 0.21 -33.3 0 0 99.71 152.89
  L 102.00 156.53"
/>
<path stroke="#d1685e" vector-effect="non-scaling-stroke" d="
  M 102.00 156.53
  C 99.22 154.93 99.96 152.37 98.64 150.62
  A 1.45 1.39 27.8 0 1 98.36 149.78
  L 98.37 148.48
  A 2.84 2.48 41.0 0 0 98.27 147.76
  Q 96.34 140.72 96.16 135.50
  Q 95.79 124.40 94.03 114.49
  C 93.48 111.38 93.27 107.32 91.63 104.29
  C 90.07 101.41 87.37 98.66 85.57 95.47
  Q 82.26 89.60 77.22 82.89
  Q 76.91 82.47 71.75 76.57
  Q 68.49 72.84 66.34 68.26"
/>
<path stroke="#e28249" vector-effect="non-scaling-stroke" d="
  M 66.34 68.26
  Q 66.13 67.94 66.37 67.69
  A 0.05 0.05 0.0 0 1 66.45 67.71
  Q 66.47 67.85 66.50 68.00
  Q 66.50 67.94 66.49 67.89
  Q 64.40 58.33 59.25 49.98
  Q 57.23 46.69 48.49 37.99"
/>
<path stroke="#cc514e" vector-effect="non-scaling-stroke" d="
  M 102.00 156.53
  Q 106.93 160.14 112.57 162.48
  A 6.19 6.00 -14.9 0 1 113.84 163.19
  C 117.25 165.69 120.99 167.18 124.21 169.58
  Q 124.27 169.62 129.46 172.78
  C 134.29 175.72 140.19 176.55 142.35 182.39
  C 143.45 185.36 144.20 187.73 144.49 190.96
  Q 144.94 196.04 145.16 201.35"
/>
<path stroke="#cb4448" vector-effect="non-scaling-stroke" d="
  M 145.16 201.35
  Q 145.88 210.49 144.32 226.01
  Q 143.97 229.47 144.51 240.53"
/>
<path stroke="#cb4448" vector-effect="non-scaling-stroke" d="
  M 66.34 68.26
  Q 65.83 68.58 66.62 69.17
  Q 66.82 69.31 66.81 69.52
  A 0.12 0.12 0.0 0 1 66.60 69.60
  L 61.98 64.77"
/>
<path stroke="#be4141" vector-effect="non-scaling-stroke" d="
  M 201.48 147.08
  Q 200.17 146.53 199.98 144.30
  Q 199.92 143.66 199.48 143.17
  Q 198.99 142.65 199.11 142.17
  Q 199.12 142.14 199.12 142.15
  Q 199.10 142.43 198.99 142.48
  A 0.14 0.14 0.0 0 1 198.79 142.37
  Q 198.50 140.41 196.62 138.60
  A 0.25 0.24 15.3 0 0 196.21 138.83
  L 197.71 144.75"
/>
<path stroke="#bf4f47" vector-effect="non-scaling-stroke" d="
  M 197.71 144.75
  Q 195.63 143.68 195.15 140.43
  Q 194.39 135.35 193.13 130.18"
/>
<path stroke="#dd6b38" vector-effect="non-scaling-stroke" d="
  M 197.71 144.75
  Q 198.53 143.88 199.12 145.90
  Q 199.58 147.49 199.82 148.13
  Q 203.09 156.69 206.10 162.66
  A 0.37 0.37 0.0 0 0 206.60 162.82
  L 206.61 162.81
  A 0.46 0.45 58.8 0 0 206.74 162.26
  L 204.75 157.84
  A 0.10 0.09 -76.8 0 1 204.91 157.74
  C 207.08 160.42 207.14 164.51 207.44 166.75
  A 0.86 0.84 -19.7 0 1 207.04 167.58
  Q 197.18 173.68 192.62 175.72
  C 183.50 179.80 173.98 183.32 165.12 188.36
  Q 154.86 194.20 145.16 201.35"
/>
</g>
<path fill="#7c1f4a" d="
  M 60.71 16.27
  Q 50.13 16.28 39.82 17.87
  Q 37.48 18.13 35.72 20.27
  A 2.68 2.67 -38.4 0 0 35.38 23.14
  L 40.79 34.29
  A 0.04 0.03 -29.4 0 1 40.77 34.34
  L 40.52 34.46
  A 0.16 0.16 0.0 0 1 40.31 34.39
  L 35.81 25.10
  A 0.17 0.16 62.6 0 0 35.59 25.02
  L 35.33 25.15
  A 0.38 0.37 -23.2 0 0 35.14 25.62
  C 37.65 32.14 42.03 38.38 43.79 43.47
  C 46.02 49.95 49.21 56.20 50.39 62.60
  C 52.11 71.90 53.91 81.83 58.13 90.36
  Q 60.69 95.52 62.33 99.19
  C 67.24 110.19 65.96 119.34 64.40 133.49
  A 0.48 0.48 0.0 0 1 63.72 133.88
  C 59.08 131.78 56.65 132.70 52.51 136.09
  C 46.45 141.05 42.66 144.72 36.48 146.49
  Q 35.16 146.86 32.37 149.08
  Q 32.59 93.86 32.65 38.75
  Q 32.66 26.67 33.58 21.58
  C 34.27 17.71 38.51 17.35 41.98 16.87
  C 48.13 16.02 54.50 16.18 60.71 16.27
  Z"
/>
<path fill="#86c9bd" d="
  M 197.91 118.06
  L 195.01 122.65
  A 0.71 0.69 13.8 0 1 194.45 122.98
  Q 194.32 122.99 194.13 123.02
  A 1.02 1.01 -1.2 0 0 193.28 123.90
  L 192.89 127.29
  L 192.67 124.94
  A 0.04 0.03 -11.7 0 0 192.62 124.91
  Q 192.35 125.00 192.39 125.21
  A 0.03 0.03 0.0 0 1 192.35 125.24
  L 188.48 123.53
  A 4.09 3.97 -31.3 0 0 187.03 123.20
  C 183.07 123.08 181.95 121.58 178.81 119.58
  A 4.45 4.43 -18.6 0 0 177.92 119.14
  Q 174.95 118.07 172.94 116.39
  A 0.23 0.23 0.0 0 1 173.21 116.01
  L 174.16 116.55
  A 0.27 0.27 0.0 0 0 174.43 116.09
  L 166.99 111.53
  A 0.09 0.09 0.0 0 1 167.06 111.36
  Q 167.69 111.48 167.73 111.46
  A 0.23 0.23 0.0 0 0 167.76 111.07
  L 160.24 105.70
  A 0.10 0.09 -54.8 0 0 160.10 105.73
  L 159.88 106.11
  A 0.29 0.29 0.0 0 0 160.02 106.52
  Q 162.98 107.67 164.67 109.16
  A 0.22 0.22 0.0 0 1 164.44 109.52
  Q 160.16 107.69 157.70 105.02
  C 156.33 103.53 153.87 102.73 153.14 101.41
  A 0.09 0.03 73.2 0 0 153.12 101.38
  L 147.60 97.14
  A 2.10 1.98 73.3 0 0 147.08 96.84
  Q 143.18 95.30 139.99 92.67
  A 2.73 2.70 -16.2 0 0 139.07 92.17
  Q 137.67 91.75 136.86 90.90
  Q 133.54 87.44 130.80 85.58
  A 1.18 1.12 6.1 0 1 130.41 85.12
  Q 129.98 84.22 128.98 84.03
  Q 127.93 83.83 127.26 83.13
  Q 125.26 81.05 121.91 79.60
  C 118.25 78.00 115.49 75.94 113.01 73.18
  Q 109.44 69.21 106.75 67.25
  A 4.35 3.89 -11.3 0 0 105.97 66.79
  Q 94.59 61.71 91.87 59.65
  Q 87.34 56.22 82.61 53.69
  Q 81.35 53.02 80.60 51.89
  A 0.17 0.17 0.0 0 1 80.83 51.65
  L 82.25 52.47
  A 0.07 0.07 0.0 0 0 82.34 52.36
  Q 79.89 49.98 76.92 49.29
  C 75.66 49.00 74.54 48.22 73.69 47.57
  A 0.06 0.06 0.0 0 1 73.74 47.47
  Q 74.07 47.56 74.24 47.46
  A 0.06 0.06 0.0 0 0 74.25 47.36
  L 68.83 43.74
  A 0.03 0.03 0.0 0 0 68.78 43.77
  Q 68.81 43.89 68.95 44.06
  A 0.22 0.22 0.0 0 1 68.72 44.42
  Q 66.93 43.96 65.43 42.84
  A 0.37 0.37 0.0 0 0 64.92 43.37
  C 66.37 45.18 67.35 45.80 69.97 46.76
  Q 73.16 47.91 75.79 50.26
  Q 76.63 51.00 75.93 50.18
  A 0.22 0.21 79.3 0 0 75.83 50.11
  Q 71.33 48.83 67.95 46.61
  Q 65.69 45.13 63.74 42.03
  C 61.04 37.74 59.14 35.14 55.70 32.43
  Q 54.37 31.38 50.08 30.01
  Q 45.90 28.67 42.10 26.48
  L 38.67 22.21
  A 1.15 1.13 -59.4 0 1 38.45 21.33
  Q 38.76 19.53 39.82 17.87
  Q 50.13 16.28 60.71 16.27
  Q 100.73 16.31 140.75 16.19
  Q 148.49 16.17 163.58 19.14
  C 165.92 19.60 171.04 22.01 173.75 23.88
  Q 176.10 25.50 180.26 27.94
  Q 181.83 28.86 185.55 34.03
  A 9.72 9.58 -88.2 0 0 187.19 35.80
  Q 190.86 38.86 196.61 42.37
  Q 198.08 43.27 200.50 47.25
  C 201.88 49.54 204.11 54.77 206.09 58.50
  Q 207.95 61.99 208.33 66.24
  C 209.32 77.08 209.82 89.82 205.60 100.18
  Q 204.40 103.12 202.08 109.25
  Q 200.35 113.84 197.91 118.06
  Z"
/>
<path fill="#9f254f" d="
  M 39.82 17.87
  Q 38.76 19.53 38.45 21.33
  A 1.15 1.13 -59.4 0 0 38.67 22.21
  L 42.10 26.48
  Q 44.24 32.57 48.49 37.99
  L 43.26 32.25
  A 0.09 0.09 0.0 0 0 43.13 32.24
  L 42.92 32.39
  A 0.29 0.29 0.0 0 0 42.87 32.80
  Q 45.19 35.84 47.10 38.87
  Q 47.18 38.99 47.18 39.03
  A 0.07 0.06 32.1 0 1 47.05 39.05
  L 41.35 31.64
  A 0.24 0.23 55.5 0 0 41.04 31.58
  L 41.03 31.59
  A 0.13 0.13 0.0 0 0 40.99 31.77
  Q 43.37 35.63 46.10 39.19
  Q 47.87 41.51 50.68 46.85
  Q 55.62 56.23 61.98 64.77
  L 55.70 58.17
  A 0.05 0.05 0.0 0 0 55.62 58.22
  C 56.77 63.45 60.47 68.29 61.80 72.64
  C 63.28 77.52 62.06 81.58 61.92 85.10
  C 61.79 88.40 62.85 92.19 64.19 96.31
  Q 68.01 108.07 67.04 120.19
  Q 66.24 130.20 66.31 136.90
  C 66.40 145.25 65.90 151.27 65.76 159.32
  Q 65.62 167.02 69.54 173.08
  Q 73.60 179.38 76.11 181.99
  Q 81.70 187.80 83.91 190.35
  C 87.50 194.50 90.93 198.64 92.54 203.70
  C 96.63 216.58 88.80 225.59 79.14 232.63
  Q 77.71 233.68 76.59 235.87
  A 0.62 0.61 31.2 0 0 76.79 236.65
  L 78.82 238.07
  Q 69.06 234.88 61.13 228.83
  Q 58.67 226.95 56.26 223.82
  Q 52.11 218.44 46.28 214.79
  C 43.53 213.06 40.79 207.21 39.02 203.96
  C 36.02 198.49 35.48 192.23 34.25 186.21
  Q 33.28 181.49 32.97 176.86
  Q 32.06 162.97 32.37 149.08
  Q 35.16 146.86 36.48 146.49
  C 42.66 144.72 46.45 141.05 52.51 136.09
  C 56.65 132.70 59.08 131.78 63.72 133.88
  A 0.48 0.48 0.0 0 0 64.40 133.49
  C 65.96 119.34 67.24 110.19 62.33 99.19
  Q 60.69 95.52 58.13 90.36
  C 53.91 81.83 52.11 71.90 50.39 62.60
  C 49.21 56.20 46.02 49.95 43.79 43.47
  C 42.03 38.38 37.65 32.14 35.14 25.62
  A 0.38 0.37 -23.2 0 1 35.33 25.15
  L 35.59 25.02
  A 0.17 0.16 62.6 0 1 35.81 25.10
  L 40.31 34.39
  A 0.16 0.16 0.0 0 0 40.52 34.46
  L 40.77 34.34
  A 0.04 0.03 -29.4 0 0 40.79 34.29
  L 35.38 23.14
  A 2.68 2.67 -38.4 0 1 35.72 20.27
  Q 37.48 18.13 39.82 17.87
  Z"
/>
<path fill="#e7a65f" d="
  M 192.89 127.29
  Q 192.71 129.02 193.13 130.18
  C 189.42 137.67 185.17 142.20 176.58 143.20
  C 166.04 144.43 153.01 141.96 144.36 140.16
  Q 130.47 137.26 117.69 144.70
  Q 104.48 152.39 101.83 154.15
  A 0.58 0.58 0.0 0 1 101.02 153.98
  L 100.16 152.67
  A 0.28 0.27 -31.0 0 0 99.79 152.58
  A 0.24 0.21 -33.3 0 0 99.71 152.89
  L 102.00 156.53
  C 99.22 154.93 99.96 152.37 98.64 150.62
  A 1.45 1.39 27.8 0 1 98.36 149.78
  L 98.37 148.48
  A 2.84 2.48 41.0 0 0 98.27 147.76
  Q 96.34 140.72 96.16 135.50
  Q 95.79 124.40 94.03 114.49
  C 93.48 111.38 93.27 107.32 91.63 104.29
  C 90.07 101.41 87.37 98.66 85.57 95.47
  Q 82.26 89.60 77.22 82.89
  Q 76.91 82.47 71.75 76.57
  Q 68.49 72.84 66.34 68.26
  Q 66.13 67.94 66.37 67.69
  A 0.05 0.05 0.0 0 1 66.45 67.71
  Q 66.47 67.85 66.50 68.00
  Q 66.50 67.94 66.49 67.89
  Q 64.40 58.33 59.25 49.98
  Q 57.23 46.69 48.49 37.99
  Q 44.24 32.57 42.10 26.48
  Q 45.90 28.67 50.08 30.01
  Q 54.37 31.38 55.70 32.43
  C 59.14 35.14 61.04 37.74 63.74 42.03
  Q 65.69 45.13 67.95 46.61
  Q 71.33 48.83 75.83 50.11
  A 0.22 0.21 79.3 0 1 75.93 50.18
  Q 76.63 51.00 75.79 50.26
  Q 73.16 47.91 69.97 46.76
  C 67.35 45.80 66.37 45.18 64.92 43.37
  A 0.37 0.37 0.0 0 1 65.43 42.84
  Q 66.93 43.96 68.72 44.42
  A 0.22 0.22 0.0 0 0 68.95 44.06
  Q 68.81 43.89 68.78 43.77
  A 0.03 0.03 0.0 0 1 68.83 43.74
  L 74.25 47.36
  A 0.06 0.06 0.0 0 1 74.24 47.46
  Q 74.07 47.56 73.74 47.47
  A 0.06 0.06 0.0 0 0 73.69 47.57
  C 74.54 48.22 75.66 49.00 76.92 49.29
  Q 79.89 49.98 82.34 52.36
  A 0.07 0.07 0.0 0 1 82.25 52.47
  L 80.83 51.65
  A 0.17 0.17 0.0 0 0 80.60 51.89
  Q 81.35 53.02 82.61 53.69
  Q 87.34 56.22 91.87 59.65
  Q 94.59 61.71 105.97 66.79
  A 4.35 3.89 -11.3 0 1 106.75 67.25
  Q 109.44 69.21 113.01 73.18
  C 115.49 75.94 118.25 78.00 121.91 79.60
  Q 125.26 81.05 127.26 83.13
  Q 127.93 83.83 128.98 84.03
  Q 129.98 84.22 130.41 85.12
  A 1.18 1.12 6.1 0 0 130.80 85.58
  Q 133.54 87.44 136.86 90.90
  Q 137.67 91.75 139.07 92.17
  A 2.73 2.70 -16.2 0 1 139.99 92.67
  Q 143.18 95.30 147.08 96.84
  A 2.10 1.98 73.3 0 1 147.60 97.14
  L 153.12 101.38
  A 0.09 0.03 73.2 0 1 153.14 101.41
  C 153.87 102.73 156.33 103.53 157.70 105.02
  Q 160.16 107.69 164.44 109.52
  A 0.22 0.22 0.0 0 0 164.67 109.16
  Q 162.98 107.67 160.02 106.52
  A 0.29 0.29 0.0 0 1 159.88 106.11
  L 160.10 105.73
  A 0.10 0.09 -54.8 0 1 160.24 105.70
  L 167.76 111.07
  A 0.23 0.23 0.0 0 1 167.73 111.46
  Q 167.69 111.48 167.06 111.36
  A 0.09 0.09 0.0 0 0 166.99 111.53
  L 174.43 116.09
  A 0.27 0.27 0.0 0 1 174.16 116.55
  L 173.21 116.01
  A 0.23 0.23 0.0 0 0 172.94 116.39
  Q 174.95 118.07 177.92 119.14
  A 4.45 4.43 -18.6 0 1 178.81 119.58
  C 181.95 121.58 183.07 123.08 187.03 123.20
  A 4.09 3.97 -31.3 0 1 188.48 123.53
  L 192.35 125.24
  A 0.03 0.03 0.0 0 0 192.39 125.21
  Q 192.35 125.00 192.62 124.91
  A 0.04 0.03 -11.7 0 1 192.67 124.94
  L 192.89 127.29
  Z"
/>
<path fill="#dc5d32" d="
  M 48.49 37.99
  Q 57.23 46.69 59.25 49.98
  Q 64.40 58.33 66.49 67.89
  Q 66.50 67.94 66.50 68.00
  Q 66.47 67.85 66.45 67.71
  A 0.05 0.05 0.0 0 0 66.37 67.69
  Q 66.13 67.94 66.34 68.26
  Q 65.83 68.58 66.62 69.17
  Q 66.82 69.31 66.81 69.52
  A 0.12 0.12 0.0 0 1 66.60 69.60
  L 61.98 64.77
  Q 55.62 56.23 50.68 46.85
  Q 47.87 41.51 46.10 39.19
  Q 43.37 35.63 40.99 31.77
  A 0.13 0.13 0.0 0 1 41.03 31.59
  L 41.04 31.58
  A 0.24 0.23 55.5 0 1 41.35 31.64
  L 47.05 39.05
  A 0.07 0.06 32.1 0 0 47.18 39.03
  Q 47.18 38.99 47.10 38.87
  Q 45.19 35.84 42.87 32.80
  A 0.29 0.29 0.0 0 1 42.92 32.39
  L 43.13 32.24
  A 0.09 0.09 0.0 0 1 43.26 32.25
  L 48.49 37.99
  Z"
/>
<path fill="#ba2a5d" d="
  M 61.98 64.77
  L 66.60 69.60
  A 0.12 0.12 0.0 0 0 66.81 69.52
  Q 66.82 69.31 66.62 69.17
  Q 65.83 68.58 66.34 68.26
  Q 68.49 72.84 71.75 76.57
  Q 76.91 82.47 77.22 82.89
  Q 82.26 89.60 85.57 95.47
  C 87.37 98.66 90.07 101.41 91.63 104.29
  C 93.27 107.32 93.48 111.38 94.03 114.49
  Q 95.79 124.40 96.16 135.50
  Q 96.34 140.72 98.27 147.76
  A 2.84 2.48 41.0 0 1 98.37 148.48
  L 98.36 149.78
  A 1.45 1.39 27.8 0 0 98.64 150.62
  C 99.96 152.37 99.22 154.93 102.00 156.53
  Q 106.93 160.14 112.57 162.48
  A 6.19 6.00 -14.9 0 1 113.84 163.19
  C 117.25 165.69 120.99 167.18 124.21 169.58
  Q 124.27 169.62 129.46 172.78
  C 134.29 175.72 140.19 176.55 142.35 182.39
  C 143.45 185.36 144.20 187.73 144.49 190.96
  Q 144.94 196.04 145.16 201.35
  Q 145.88 210.49 144.32 226.01
  Q 143.97 229.47 144.51 240.53
  Q 110.40 241.02 98.50 240.58
  C 91.74 240.33 84.63 240.25 78.82 238.07
  L 76.79 236.65
  A 0.62 0.61 31.2 0 1 76.59 235.87
  Q 77.71 233.68 79.14 232.63
  C 88.80 225.59 96.63 216.58 92.54 203.70
  C 90.93 198.64 87.50 194.50 83.91 190.35
  Q 81.70 187.80 76.11 181.99
  Q 73.60 179.38 69.54 173.08
  Q 65.62 167.02 65.76 159.32
  C 65.90 151.27 66.40 145.25 66.31 136.90
  Q 66.24 130.20 67.04 120.19
  Q 68.01 108.07 64.19 96.31
  C 62.85 92.19 61.79 88.40 61.92 85.10
  C 62.06 81.58 63.28 77.52 61.80 72.64
  C 60.47 68.29 56.77 63.45 55.62 58.22
  A 0.05 0.05 0.0 0 1 55.70 58.17
  L 61.98 64.77
  Z"
/>
<path fill="#9f254f" d="
  M 197.91 118.06
  Q 197.16 120.32 195.95 122.31
  Q 193.95 125.58 193.82 126.43
  Q 193.14 130.69 194.67 134.80
  Q 194.86 135.29 197.97 139.29
  Q 200.58 142.65 201.48 147.08
  Q 200.17 146.53 199.98 144.30
  Q 199.92 143.66 199.48 143.17
  Q 198.99 142.65 199.11 142.17
  Q 199.12 142.14 199.12 142.15
  Q 199.10 142.43 198.99 142.48
  A 0.14 0.14 0.0 0 1 198.79 142.37
  Q 198.50 140.41 196.62 138.60
  A 0.25 0.24 15.3 0 0 196.21 138.83
  L 197.71 144.75
  Q 195.63 143.68 195.15 140.43
  Q 194.39 135.35 193.13 130.18
  Q 192.71 129.02 192.89 127.29
  L 193.28 123.90
  A 1.02 1.01 -1.2 0 1 194.13 123.02
  Q 194.32 122.99 194.45 122.98
  A 0.71 0.69 13.8 0 0 195.01 122.65
  L 197.91 118.06
  Z"
/>
<path fill="#de783e" d="
  M 197.71 144.75
  Q 198.53 143.88 199.12 145.90
  Q 199.58 147.49 199.82 148.13
  Q 203.09 156.69 206.10 162.66
  A 0.37 0.37 0.0 0 0 206.60 162.82
  L 206.61 162.81
  A 0.46 0.45 58.8 0 0 206.74 162.26
  L 204.75 157.84
  A 0.10 0.09 -76.8 0 1 204.91 157.74
  C 207.08 160.42 207.14 164.51 207.44 166.75
  A 0.86 0.84 -19.7 0 1 207.04 167.58
  Q 197.18 173.68 192.62 175.72
  C 183.50 179.80 173.98 183.32 165.12 188.36
  Q 154.86 194.20 145.16 201.35
  Q 144.94 196.04 144.49 190.96
  C 144.20 187.73 143.45 185.36 142.35 182.39
  C 140.19 176.55 134.29 175.72 129.46 172.78
  Q 124.27 169.62 124.21 169.58
  C 120.99 167.18 117.25 165.69 113.84 163.19
  A 6.19 6.00 -14.9 0 0 112.57 162.48
  Q 106.93 160.14 102.00 156.53
  L 99.71 152.89
  A 0.24 0.21 -33.3 0 1 99.79 152.58
  A 0.28 0.27 -31.0 0 1 100.16 152.67
  L 101.02 153.98
  A 0.58 0.58 0.0 0 0 101.83 154.15
  Q 104.48 152.39 117.69 144.70
  Q 130.47 137.26 144.36 140.16
  C 153.01 141.96 166.04 144.43 176.58 143.20
  C 185.17 142.20 189.42 137.67 193.13 130.18
  Q 194.39 135.35 195.15 140.43
  Q 195.63 143.68 197.71 144.75
  Z"
/>
<path fill="#dc5d32" d="
  M 201.48 147.08
  L 204.23 152.15
  A 0.95 0.83 27.1 0 1 204.33 152.40
  L 205.83 158.66
  A 0.27 0.22 13.3 0 0 205.95 158.82
  L 206.34 159.04
  A 0.01 0.00 16.8 0 0 206.35 159.04
  Q 206.11 158.60 206.13 158.55
  A 0.30 0.29 -43.5 0 1 206.67 158.56
  L 207.97 161.78
  A 0.70 0.32 50.8 0 1 208.01 161.93
  Q 210.54 176.91 207.31 192.45
  C 206.11 198.23 202.63 205.07 199.88 209.89
  A 14.93 14.87 85.4 0 1 196.38 214.02
  Q 188.50 220.43 182.15 227.62
  Q 179.46 230.67 174.13 233.40
  Q 160.35 240.48 144.51 240.53
  Q 143.97 229.47 144.32 226.01
  Q 145.88 210.49 145.16 201.35
  Q 154.86 194.20 165.12 188.36
  C 173.98 183.32 183.50 179.80 192.62 175.72
  Q 197.18 173.68 207.04 167.58
  A 0.86 0.84 -19.7 0 0 207.44 166.75
  C 207.14 164.51 207.08 160.42 204.91 157.74
  A 0.10 0.09 -76.8 0 0 204.75 157.84
  L 206.74 162.26
  A 0.46 0.45 58.8 0 1 206.61 162.81
  L 206.60 162.82
  A 0.37 0.37 0.0 0 1 206.10 162.66
  Q 203.09 156.69 199.82 148.13
  Q 199.58 147.49 199.12 145.90
  Q 198.53 143.88 197.71 144.75
  L 196.21 138.83
  A 0.25 0.24 15.3 0 1 196.62 138.60
  Q 198.50 140.41 198.79 142.37
  A 0.14 0.14 0.0 0 0 198.99 142.48
  Q 199.10 142.43 199.12 142.15
  Q 199.12 142.14 199.11 142.17
  Q 198.99 142.65 199.48 143.17
  Q 199.92 143.66 199.98 144.30
  Q 200.17 146.53 201.48 147.08
  Z"
/>
</svg>