<?xml version="1.0" encoding="UTF-8" standalone="no"?>
<!DOCTYPE svg PUBLIC "-//W3C//DTD SVG 1.1//EN" "http://www.w3.org/Graphics/SVG/1.1/DTD/svg11.dtd">
<svg xmlns="http://www.w3.org/2000/svg" version="1.1" viewBox="0.00 0.00 256.00 256.00" width="128" height="128">
<g stroke-width="2.00" fill="none" stroke-linecap="butt">
<path stroke="#24b9ba" vector-effect="non-scaling-stroke" d="
  M 243.62 73.27
  Q 241.24 73.17 239.60 71.73"
/>
<path stroke="#19b8cb" vector-effect="non-scaling-stroke" d="
  M 239.60 71.73
  Q 235.19 65.57 229.89 60.36
  Q 221.36 51.99 211.39 42.79
  A 1.09 1.07 62.4 0 0 210.53 42.51
  C 180.75 46.09 148.57 46.35 121.07 45.56
  Q 91.72 44.71 56.64 42.58
  A 1.73 1.71 25.3 0 0 55.39 43.02
  Q 44.52 52.86 35.54 63.81
  A 0.30 0.30 0.0 0 1 35.03 63.73
  Q 34.04 61.36 32.00 59.75"
/>
<path stroke="#2eb9ab" vector-effect="non-scaling-stroke" d="
  M 239.60 71.73
  Q 194.05 71.80 148.66 71.56
  Q 121.55 71.42 96.48 73.78"
/>
<path stroke="#91dcdd" vector-effect="non-scaling-stroke" d="
  M 96.48 73.78
  Q 92.89 72.92 91.00 72.91
  Q 87.32 72.87 82.61 73.80"
/>
<path stroke="#2eb9ab" vector-effect="non-scaling-stroke" d="
  M 82.61 73.80
  Q 57.41 71.67 31.08 72.38
  A 0.91 0.90 -77.8 0 0 30.28 72.90
  L 26.08 81.58
  A 0.82 0.82 0.0 0 1 25.20 82.03
  L 19.92 81.08"
/>
<path stroke="#9cddcd" vector-effect="non-scaling-stroke" d="
  M 82.61 73.80
  Q 81.14 77.95 81.15 85.50
  Q 81.17 99.14 81.09 112.80"
/>
<path stroke="#47bb86" vector-effect="non-scaling-stroke" d="
  M 81.09 112.80
  Q 46.18 107.36 10.64 110.95"
/>
<path stroke="#47bb86" vector-effect="non-scaling-stroke" d="
  M 256.00 121.90
  C 240.09 122.81 228.01 121.91 213.89 121.48
  Q 212.11 121.43 193.78 121.54
  Q 179.15 121.63 164.62 119.64
  Q 158.34 118.78 155.79 123.96"
/>
<path stroke="#9cddcd" vector-effect="non-scaling-stroke" d="
  M 155.79 123.96
  Q 150.59 114.99 143.11 110.16
  Q 131.35 102.55 115.64 103.69
  C 110.79 104.04 108.47 105.01 104.39 107.55
  Q 101.41 109.41 97.94 109.79
  A 0.85 0.84 88.9 0 1 97.00 108.88
  Q 97.11 107.60 97.18 103.25
  Q 97.41 88.43 96.48 73.78"
/>
<path stroke="#aadeb9" vector-effect="non-scaling-stroke" d="
  M 155.79 123.96
  Q 158.31 128.41 159.65 134.56
  Q 164.10 154.99 152.54 170.98"
/>
<path stroke="#b5dfa7" vector-effect="non-scaling-stroke" d="
  M 152.54 170.98
  Q 144.29 180.96 133.68 184.68
  Q 128.02 186.66 119.69 186.76
  C 111.65 186.86 106.24 186.65 99.52 182.98
  Q 89.76 177.63 84.04 169.12"
/>
<path stroke="#aadeb9" vector-effect="non-scaling-stroke" d="
  M 84.04 169.12
  Q 81.14 165.19 81.11 159.25
  Q 81.00 136.02 81.09 112.80"
/>
<path stroke="#aadeb9" vector-effect="non-scaling-stroke" d="
  M 97.82 159.95
  Q 98.76 161.65 100.80 163.29
  C 105.26 166.86 109.29 170.04 114.32 170.38
  C 120.63 170.81 125.18 171.10 130.54 168.31
  C 141.85 162.41 147.66 151.87 144.27 139.01
  Q 143.07 134.45 141.31 131.92
  Q 136.51 125.04 127.76 121.21
  Q 120.36 117.98 112.60 120.65
  C 107.61 122.38 101.34 125.92 98.38 130.39
  Q 97.25 132.10 97.26 133.03
  Q 97.52 148.86 97.41 158.33
  A 3.30 3.24 31.4 0 0 97.82 159.95"
/>
<path stroke="#60bd60" vector-effect="non-scaling-stroke" d="
  M 84.04 169.12
  Q 81.56 170.48 80.17 172.73
  A 0.16 0.15 -42.6 0 0 80.16 172.85
  Q 80.33 173.45 80.50 172.94
  A 0.02 0.02 0.0 0 1 80.53 172.94
  L 85.27 180.12
  A 0.22 0.22 0.0 0 1 85.12 180.46
  C 70.96 182.91 58.72 183.31 42.51 184.63
  Q 37.67 185.02 34.47 186.24
  A 5.03 4.97 9.0 0 0 32.42 187.71
  L 30.63 189.87
  A 1.74 1.70 -75.4 0 1 29.65 190.46
  Q 27.55 190.91 25.16 190.14"
/>
<path stroke="#60bd60" vector-effect="non-scaling-stroke" d="
  M 250.78 170.68
  C 237.86 180.10 225.38 182.41 209.22 181.81
  C 190.76 181.13 172.20 179.58 153.67 179.38
  A 0.21 0.21 0.0 0 1 153.52 179.04
  L 157.37 174.40
  A 0.73 0.72 44.0 0 0 157.35 173.45
  Q 155.42 171.33 152.54 170.98"
/>
<path stroke="#aadeb9" vector-effect="non-scaling-stroke" d="
  M 183.04 145.18
  C 183.06 150.10 179.07 156.44 176.14 160.58
  Q 174.05 163.55 173.43 165.93
  A 1.35 1.35 0.0 0 0 174.73 167.61
  Q 176.65 167.62 178.26 166.48
  Q 194.14 155.27 206.99 148.08
  Q 209.58 146.63 209.58 145.10
  Q 209.57 143.57 206.97 142.14
  Q 194.08 135.02 178.14 123.91
  Q 176.52 122.77 174.60 122.80
  A 1.35 1.35 0.0 0 0 173.31 124.48
  Q 173.94 126.86 176.05 129.81
  C 179.01 133.94 183.03 140.26 183.04 145.18"
/>
</g>
<path fill="#0fb7da" d="
  M 243.62 73.27
  Q 241.24 73.17 239.60 71.73
  Q 235.19 65.57 229.89 60.36
  Q 221.36 51.99 211.39 42.79
  A 1.09 1.07 62.4 0 0 210.53 42.51
  C 180.75 46.09 148.57 46.35 121.07 45.56
  Q 91.72 44.71 56.64 42.58
  A 1.73 1.71 25.3 0 0 55.39 43.02
  Q 44.52 52.86 35.54 63.81
  A 0.30 0.30 0.0 0 1 35.03 63.73
  Q 34.04 61.36 32.00 59.75
  Q 49.71 35.63 75.91 21.69
  Q 80.05 19.49 83.70 18.12
  C 87.31 16.77 90.20 15.16 94.34 14.05
  C 101.42 12.14 105.92 10.60 112.51 9.56
  Q 148.00 3.99 180.62 16.82
  C 203.85 25.96 223.42 42.45 237.60 63.09
  C 239.61 66.02 241.47 69.90 243.62 73.27
  Z"
/>
<path fill="#23b8bb" d="
  M 239.60 71.73
  Q 194.05 71.80 148.66 71.56
  Q 121.55 71.42 96.48 73.78
  Q 92.89 72.92 91.00 72.91
  Q 87.32 72.87 82.61 73.80
  Q 57.41 71.67 31.08 72.38
  A 0.91 0.90 -77.8 0 0 30.28 72.90
  L 26.08 81.58
  A 0.82 0.82 0.0 0 1 25.20 82.03
  L 19.92 81.08
  Q 24.92 69.92 32.00 59.75
  Q 34.04 61.36 35.03 63.73
  A 0.30 0.30 0.0 0 0 35.54 63.81
  Q 44.52 52.86 55.39 43.02
  A 1.73 1.71 25.3 0 1 56.64 42.58
  Q 91.72 44.71 121.07 45.56
  C 148.57 46.35 180.75 46.09 210.53 42.51
  A 1.09 1.07 62.4 0 1 211.39 42.79
  Q 221.36 51.99 229.89 60.36
  Q 235.19 65.57 239.60 71.73
  Z"
/>
<path fill="#39ba9a" d="
  M 82.61 73.80
  Q 81.14 77.95 81.15 85.50
  Q 81.17 99.14 81.09 112.80
  Q 46.18 107.36 10.64 110.95
  Q 11.50 106.37 12.80 102.09
  Q 14.08 97.89 15.35 93.32
  Q 17.11 87.06 19.92 81.08
  L 25.20 82.03
  A 0.82 0.82 0.0 0 0 26.08 81.58
  L 30.28 72.90
  A 0.91 0.90 -77.8 0 1 31.08 72.38
  Q 57.41 71.67 82.61 73.80
  Z"
/>
<path fill="#39ba9a" d="
  M 239.60 71.73
  Q 241.24 73.17 243.62 73.27
  Q 248.51 82.76 249.51 86.00
  C 252.14 94.47 255.21 102.43 256.00 111.39
  L 256.00 121.90
  C 240.09 122.81 228.01 121.91 213.89 121.48
  Q 212.11 121.43 193.78 121.54
  Q 179.15 121.63 164.62 119.64
  Q 158.34 118.78 155.79 123.96
  Q 150.59 114.99 143.11 110.16
  Q 131.35 102.55 115.64 103.69
  C 110.79 104.04 108.47 105.01 104.39 107.55
  Q 101.41 109.41 97.94 109.79
  A 0.85 0.84 88.9 0 1 97.00 108.88
  Q 97.11 107.60 97.18 103.25
  Q 97.41 88.43 96.48 73.78
  Q 121.55 71.42 148.66 71.56
  Q 194.05 71.80 239.60 71.73
  Z"
/>
<path fill="#ffffff" d="
  M 96.48 73.78
  Q 97.41 88.43 97.18 103.25
  Q 97.11 107.60 97.00 108.88
  A 0.85 0.84 88.9 0 0 97.94 109.79
  Q 101.41 109.41 104.39 107.55
  C 108.47 105.01 110.79 104.04 115.64 103.69
  Q 131.35 102.55 143.11 110.16
  Q 150.59 114.99 155.79 123.96
  Q 158.31 128.41 159.65 134.56
  Q 164.10 154.99 152.54 170.98
  Q 144.29 180.96 133.68 184.68
  Q 128.02 186.66 119.69 186.76
  C 111.65 186.86 106.24 186.65 99.52 182.98
  Q 89.76 177.63 84.04 169.12
  Q 81.14 165.19 81.11 159.25
  Q 81.00 136.02 81.09 112.80
  Q 81.17 99.14 81.15 85.50
  Q 81.14 77.95 82.61 73.80
  Q 87.32 72.87 91.00 72.91
  Q 92.89 72.92 96.48 73.78
  Z
  M 97.82 159.95
  Q 98.76 161.65 100.80 163.29
  C 105.26 166.86 109.29 170.04 114.32 170.38
  C 120.63 170.81 125.18 171.10 130.54 168.31
  C 141.85 162.41 147.66 151.87 144.27 139.01
  Q 143.07 134.45 141.31 131.92
  Q 136.51 125.04 127.76 121.21
  Q 120.36 117.98 112.60 120.65
  C 107.61 122.38 101.34 125.92 98.38 130.39
  Q 97.25 132.10 97.26 133.03
  Q 97.52 148.86 97.41 158.33
  A 3.30 3.24 31.4 0 0 97.82 159.95
  Z"
/>
<path fill="#54bc72" d="
  M 81.09 112.80
  Q 81.00 136.02 81.11 159.25
  Q 81.14 165.19 84.04 169.12
  Q 81.56 170.48 80.17 172.73
  A 0.16 0.15 -42.6 0 0 80.16 172.85
  Q 80.33 173.45 80.50 172.94
  A 0.02 0.02 0.0 0 1 80.53 172.94
  L 85.27 180.12
  A 0.22 0.22 0.0 0 1 85.12 180.46
  C 70.96 182.91 58.72 183.31 42.51 184.63
  Q 37.67 185.02 34.47 186.24
  A 5.03 4.97 9.0 0 0 32.42 187.71
  L 30.63 189.87
  A 1.74 1.70 -75.4 0 1 29.65 190.46
  Q 27.55 190.91 25.16 190.14
  C 20.72 182.47 16.94 174.16 14.68 165.50
  C 13.20 159.81 11.27 154.69 10.53 148.51
  Q 8.24 129.49 10.64 110.95
  Q 46.18 107.36 81.09 112.80
  Z"
/>
<path fill="#54bc72" d="
  M 256.00 121.90
  L 256.00 151.25
  Q 254.52 161.23 250.78 170.68
  C 237.86 180.10 225.38 182.41 209.22 181.81
  C 190.76 181.13 172.20 179.58 153.67 179.38
  A 0.21 0.21 0.0 0 1 153.52 179.04
  L 157.37 174.40
  A 0.73 0.72 44.0 0 0 157.35 173.45
  Q 155.42 171.33 152.54 170.98
  Q 164.10 154.99 159.65 134.56
  Q 158.31 128.41 155.79 123.96
  Q 158.34 118.78 164.62 119.64
  Q 179.15 121.63 193.78 121.54
  Q 212.11 121.43 213.89 121.48
  C 228.01 121.91 240.09 122.81 256.00 121.90
  Z
  M 183.04 145.18
  C 183.06 150.10 179.07 156.44 176.14 160.58
  Q 174.05 163.55 173.43 165.93
  A 1.35 1.35 0.0 0 0 174.73 167.61
  Q 176.65 167.62 178.26 166.48
  Q 194.14 155.27 206.99 148.08
  Q 209.58 146.63 209.58 145.10
  Q 209.57 143.57 206.97 142.14
  Q 194.08 135.02 178.14 123.91
  Q 176.52 122.77 174.60 122.80
  A 1.35 1.35 0.0 0 0 173.31 124.48
  Q 173.94 126.86 176.05 129.81
  C 179.01 133.94 183.03 140.26 183.04 145.18
  Z"
/>
<path fill="#54bc72" d="
  M 97.41 158.33
  Q 97.52 148.86 97.26 133.03
  Q 97.25 132.10 98.38 130.39
  C 101.34 125.92 107.61 122.38 112.60 120.65
  Q 120.36 117.98 127.76 121.21
  Q 136.51 125.04 141.31 131.92
  Q 143.07 134.45 144.27 139.01
  C 147.66 151.87 141.85 162.41 130.54 168.31
  C 125.18 171.10 120.63 170.81 114.32 170.38
  C 109.29 170.04 105.26 166.86 100.80 163.29
  Q 98.76 161.65 97.82 159.95
  A 3.30 3.24 31.4 0 1 97.41 158.33
  Z"
/>
<path fill="#ffffff" d="
  M 209.58 145.10
  Q 209.58 146.63 206.99 148.08
  Q 194.14 155.27 178.26 166.48
  Q 176.65 167.62 174.73 167.61
  A 1.35 1.35 0.0 0 1 173.43 165.93
  Q 174.05 163.55 176.14 160.58
  C 179.07 156.44 183.06 150.10 183.04 145.18
  C 183.03 140.26 179.01 133.94 176.05 129.81
  Q 173.94 126.86 173.31 124.48
  A 1.35 1.35 0.0 0 1 174.60 122.80
  Q 176.52 122.77 178.14 123.91
  Q 194.08 135.02 206.97 142.14
  Q 209.57 143.57 209.58 145.10
  Z"
/>
<path fill="#6bbe4e" d="
  M 84.04 169.12
  Q 89.76 177.63 99.52 182.98
  C 106.24 186.65 111.65 186.86 119.69 186.76
  Q 128.02 186.66 133.68 184.68
  Q 144.29 180.96 152.54 170.98
  Q 155.42 171.33 157.35 173.45
  A 0.73 0.72 44.0 0 1 157.37 174.40
  L 153.52 179.04
  A 0.21 0.21 0.0 0 0 153.67 179.38
  C 172.20 179.58 190.76 181.13 209.22 181.81
  C 225.38 182.41 237.86 180.10 250.78 170.68
  Q 250.26 173.29 249.25 175.73
  C 245.00 185.90 239.65 195.76 232.84 204.40
  Q 220.99 219.45 205.75 230.47
  C 178.23 250.37 142.87 257.32 108.79 250.81
  C 78.70 245.06 52.64 227.91 33.71 203.78
  Q 29.18 198.00 25.16 190.14
  Q 27.55 190.91 29.65 190.46
  A 1.74 1.70 -75.4 0 0 30.63 189.87
  L 32.42 187.71
  A 5.03 4.97 9.0 0 1 34.47 186.24
  Q 37.67 185.02 42.51 184.63
  C 58.72 183.31 70.96 182.91 85.12 180.46
  A 0.22 0.22 0.0 0 0 85.27 180.12
  L 80.53 172.94
  A 0.02 0.02 0.0 0 0 80.50 172.94
  Q 80.33 173.45 80.16 172.85
  A 0.16 0.15 -42.6 0 1 80.17 172.73
  Q 81.56 170.48 84.04 169.12
  Z"
/>
</svg>