<?xml version="1.0" encoding="UTF-8" standalone="no"?>
<!DOCTYPE svg PUBLIC "-//W3C//DTD SVG 1.1//EN" "http://www.w3.org/Graphics/SVG/1.1/DTD/svg11.dtd">
<svg xmlns="http://www.w3.org/2000/svg" version="1.1" viewBox="0.00 0.00 512.00 512.00" width="128" height="128">
<g stroke-width="2.00" fill="none" stroke-linecap="butt">
<path stroke="#3161f0" stroke-opacity="0.878" vector-effect="non-scaling-stroke" d="
  M 512.00 0.90
  L 509.04 0.88"
/>
<path stroke="#2f68ef" stroke-opacity="0.878" vector-effect="non-scaling-stroke" d="
  M 509.04 0.88
  L 313.75 0.86"
/>
<path stroke="#2d6eee" stroke-opacity="0.878" vector-effect="non-scaling-stroke" d="
  M 313.75 0.86
  L 208.21 0.85"
/>
<path stroke="#2b74ec" stroke-opacity="0.878" vector-effect="non-scaling-stroke" d="
  M 208.21 0.85
  L 96.00 0.83"
/>
<path stroke="#297aeb" stroke-opacity="0.878" vector-effect="non-scaling-stroke" d="
  M 96.00 0.83
  L 1.14 0.79
  A 0.44 0.43 90.0 0 0 0.71 1.23
  L 0.53 83.55"
/>
<path stroke="#2b74ec" stroke-opacity="0.878" vector-effect="non-scaling-stroke" d="
  M 0.53 83.55
  L 0.50 238.26"
/>
<path stroke="#2d6eee" stroke-opacity="0.878" vector-effect="non-scaling-stroke" d="
  M 0.50 238.26
  L 0.52 320.31"
/>
<path stroke="#2f68ef" stroke-opacity="0.878" vector-effect="non-scaling-stroke" d="
  M 0.52 320.31
  L 0.51 427.98"
/>
<path stroke="#3161f0" stroke-opacity="0.878" vector-effect="non-scaling-stroke" d="
  M 0.51 427.98
  L 0.66 509.86"
/>
<path stroke="#335bf2" stroke-opacity="0.878" vector-effect="non-scaling-stroke" d="
  M 0.66 509.86
  Q 0.23 510.67 1.03 511.07
  A 0.38 0.31 51.0 0 0 1.17 511.10
  L 308.04 511.12"
/>
<path stroke="#3454f3" stroke-opacity="0.878" vector-effect="non-scaling-stroke" d="
  M 308.04 511.12
  L 512.00 511.16"
/>
<path stroke="#2582e5" vector-effect="non-scaling-stroke" d="
  M 96.00 0.83
  Q 78.87 11.83 65.76 24.78
  C 43.37 46.89 24.40 64.81 0.53 83.55"
/>
<path stroke="#2977e7" vector-effect="non-scaling-stroke" d="
  M 208.21 0.85
  L 238.88 1.09
  A 0.22 0.22 0.0 0 1 239.03 1.47
  C 222.42 18.51 205.41 40.34 195.56 51.81
  Q 118.03 142.07 22.69 210.91
  Q 7.76 221.68 0.50 238.26"
/>
<path stroke="#2c6ce9" vector-effect="non-scaling-stroke" d="
  M 313.75 0.86
  L 328.71 1.29
  A 0.29 0.29 0.0 0 1 328.94 1.74
  Q 307.64 33.59 285.58 61.82
  Q 242.17 117.39 190.11 168.61
  Q 177.59 180.93 165.04 193.28"
/>
<path stroke="#90b5f3" vector-effect="non-scaling-stroke" d="
  M 165.04 193.28
  Q 138.48 208.62 111.89 223.96
  Q 104.90 227.99 102.28 230.35
  C 93.34 238.40 89.74 250.70 91.75 262.52"
/>
<path stroke="#2c6ce9" vector-effect="non-scaling-stroke" d="
  M 91.75 262.52
  Q 66.08 283.38 38.34 301.46
  C 27.11 308.78 14.70 318.37 0.52 320.31"
/>
<path stroke="#2f61ec" vector-effect="non-scaling-stroke" d="
  M 509.04 0.88
  L 416.48 1.07
  A 0.33 0.32 -22.6 0 0 416.25 1.62
  C 423.60 9.03 418.15 17.91 413.62 24.97
  C 401.49 43.86 386.70 64.46 373.76 85.68"
/>
<path stroke="#92b0f4" vector-effect="non-scaling-stroke" d="
  M 373.76 85.68
  Q 359.17 81.29 345.95 88.91
  Q 239.68 150.21 233.32 153.87
  A 2.48 2.42 -0.4 0 0 232.41 154.77
  L 144.84 306.46
  A 0.41 0.40 -59.9 0 0 144.98 307.01
  L 167.08 319.80"
/>
<path stroke="#2f61ec" vector-effect="non-scaling-stroke" d="
  M 167.08 319.80
  C 124.63 354.76 79.66 385.00 32.06 412.78
  Q 16.91 421.62 0.51 427.98"
/>
<path stroke="#92b0f4" vector-effect="non-scaling-stroke" d="
  M 91.75 262.52
  Q 95.28 279.93 111.41 287.62
  A 0.32 0.32 0.0 0 0 111.82 287.49
  L 166.35 193.04
  A 0.22 0.22 0.0 0 0 166.10 192.71
  Q 165.58 192.85 165.04 193.28"
/>
<path stroke="#3356ee" vector-effect="non-scaling-stroke" d="
  M 512.00 25.16
  Q 501.63 41.68 491.36 58.09
  Q 456.78 113.34 416.95 164.92
  Q 406.95 177.87 398.49 192.12"
/>
<path stroke="#94aaf5" vector-effect="non-scaling-stroke" d="
  M 398.49 192.12
  Q 398.45 155.70 398.38 119.50
  Q 398.34 100.68 383.07 90.18
  Q 378.80 87.25 373.76 85.68"
/>
<path stroke="#364af0" vector-effect="non-scaling-stroke" d="
  M 512.00 206.11
  C 504.24 216.32 494.12 226.26 487.19 234.91
  Q 463.33 264.71 446.27 284.04
  Q 420.37 313.40 418.99 314.98
  Q 405.43 330.61 398.79 351.79
  A 0.13 0.13 0.0 0 1 398.54 351.75
  L 398.37 346.02"
/>
<path stroke="#95a5f6" vector-effect="non-scaling-stroke" d="
  M 398.37 346.02
  L 398.38 326.78
  A 0.25 0.25 0.0 0 0 397.92 326.66
  L 366.24 381.47"
/>
<path stroke="#364af0" vector-effect="non-scaling-stroke" d="
  M 366.24 381.47
  C 351.06 391.99 340.09 402.58 319.51 420.76
  C 295.95 441.57 260.42 469.48 227.46 494.06
  C 222.71 497.60 215.68 503.29 216.91 510.35
  A 0.67 0.67 0.0 0 0 217.57 510.91
  L 308.04 511.12"
/>
<path stroke="#3356ee" vector-effect="non-scaling-stroke" d="
  M 0.66 509.86
  C 16.37 499.39 35.68 489.68 49.68 481.72
  Q 133.73 433.91 210.17 373.68
  Q 218.68 366.97 230.07 356.20"
/>
<path stroke="#95a5f6" vector-effect="non-scaling-stroke" d="
  M 230.07 356.20
  L 243.59 364.01
  A 0.53 0.52 -59.3 0 0 244.31 363.82
  L 291.69 281.75
  A 0.61 0.61 0.0 0 1 292.52 281.52
  L 324.62 300.06
  A 0.38 0.38 0.0 0 1 324.76 300.58
  L 277.20 382.96
  A 0.45 0.44 -60.3 0 0 277.36 383.57
  L 309.73 402.26
  A 0.60 0.59 29.4 0 0 310.54 402.04
  L 398.13 250.34
  A 2.51 2.43 60.9 0 0 398.46 249.10
  L 398.49 192.12"
/>
<path stroke="#94aaf5" vector-effect="non-scaling-stroke" d="
  M 230.07 356.20
  L 211.28 345.35
  A 0.56 0.56 0.0 0 1 211.07 344.58
  L 258.47 262.49
  A 0.59 0.58 -60.1 0 0 258.26 261.69
  L 226.15 243.15
  A 0.41 0.41 0.0 0 0 225.60 243.30
  L 178.09 325.60
  A 0.50 0.50 0.0 0 1 177.41 325.78
  L 167.08 319.80"
/>
<path stroke="#92b0f4" vector-effect="non-scaling-stroke" d="
  M 245.69 209.94
  L 277.52 228.24
  A 0.69 0.69 0.0 0 0 278.47 227.99
  L 287.50 212.28
  A 19.23 18.98 -60.1 0 0 280.63 186.15
  L 280.51 186.08
  A 19.23 18.98 -60.1 0 0 254.47 193.29
  L 245.44 208.99
  A 0.69 0.69 0.0 0 0 245.69 209.94"
/>
<path stroke="#94aaf5" vector-effect="non-scaling-stroke" d="
  M 311.83 248.04
  L 343.76 266.47
  A 0.61 0.61 0.0 0 0 344.59 266.24
  L 353.63 250.58
  A 19.32 18.90 -60.0 0 0 346.93 224.40
  L 346.68 224.26
  A 19.32 18.90 -60.0 0 0 320.66 231.54
  L 311.61 247.20
  A 0.61 0.61 0.0 0 0 311.83 248.04"
/>
<path stroke="#979ff7" vector-effect="non-scaling-stroke" d="
  M 366.24 381.47
  L 343.39 421.01
  A 0.49 0.48 31.3 0 0 343.55 421.66
  Q 351.39 426.62 358.43 427.53
  Q 376.54 429.88 389.59 416.16
  Q 394.88 410.59 397.01 403.32
  Q 398.33 398.81 398.35 388.53
  Q 398.39 367.29 398.37 346.02"
/>
</g>
<path fill="#3169f5" fill-opacity="0.753" d="
  M 512.00 0.00
  L 512.00 0.90
  L 509.04 0.88
  L 313.75 0.86
  L 208.21 0.85
  L 96.00 0.83
  L 1.14 0.79
  A 0.44 0.43 90.0 0 0 0.71 1.23
  L 0.53 83.55
  L 0.50 238.26
  L 0.52 320.31
  L 0.51 427.98
  L 0.66 509.86
  Q 0.23 510.67 1.03 511.07
  A 0.38 0.31 51.0 0 0 1.17 511.10
  L 308.04 511.12
  L 512.00 511.16
  L 512.00 512.00
  L 0.00 512.00
  L 0.00 0.00
  L 512.00 0.00
  Z"
/>
<path fill="#2387e4" d="
  M 96.00 0.83
  Q 78.87 11.83 65.76 24.78
  C 43.37 46.89 24.40 64.81 0.53 83.55
  L 0.71 1.23
  A 0.44 0.43 -90.0 0 1 1.14 0.79
  L 96.00 0.83
  Z"
/>
<path fill="#277ce6" d="
  M 208.21 0.85
  L 238.88 1.09
  A 0.22 0.22 0.0 0 1 239.03 1.47
  C 222.42 18.51 205.41 40.34 195.56 51.81
  Q 118.03 142.07 22.69 210.91
  Q 7.76 221.68 0.50 238.26
  L 0.53 83.55
  C 24.40 64.81 43.37 46.89 65.76 24.78
  Q 78.87 11.83 96.00 0.83
  L 208.21 0.85
  Z"
/>
<path fill="#2a71e8" d="
  M 313.75 0.86
  L 328.71 1.29
  A 0.29 0.29 0.0 0 1 328.94 1.74
  Q 307.64 33.59 285.58 61.82
  Q 242.17 117.39 190.11 168.61
  Q 177.59 180.93 165.04 193.28
  Q 138.48 208.62 111.89 223.96
  Q 104.90 227.99 102.28 230.35
  C 93.34 238.40 89.74 250.70 91.75 262.52
  Q 66.08 283.38 38.34 301.46
  C 27.11 308.78 14.70 318.37 0.52 320.31
  L 0.50 238.26
  Q 7.76 221.68 22.69 210.91
  Q 118.03 142.07 195.56 51.81
  C 205.41 40.34 222.42 18.51 239.03 1.47
  A 0.22 0.22 0.0 0 0 238.88 1.09
  L 208.21 0.85
  L 313.75 0.86
  Z"
/>
<path fill="#2d67ea" d="
  M 509.04 0.88
  L 416.48 1.07
  A 0.33 0.32 -22.6 0 0 416.25 1.62
  C 423.60 9.03 418.15 17.91 413.62 24.97
  C 401.49 43.86 386.70 64.46 373.76 85.68
  Q 359.17 81.29 345.95 88.91
  Q 239.68 150.21 233.32 153.87
  A 2.48 2.42 -0.4 0 0 232.41 154.77
  L 144.84 306.46
  A 0.41 0.40 -59.9 0 0 144.98 307.01
  L 167.08 319.80
  C 124.63 354.76 79.66 385.00 32.06 412.78
  Q 16.91 421.62 0.51 427.98
  L 0.52 320.31
  C 14.70 318.37 27.11 308.78 38.34 301.46
  Q 66.08 283.38 91.75 262.52
  Q 95.28 279.93 111.41 287.62
  A 0.32 0.32 0.0 0 0 111.82 287.49
  L 166.35 193.04
  A 0.22 0.22 0.0 0 0 166.10 192.71
  Q 165.58 192.85 165.04 193.28
  Q 177.59 180.93 190.11 168.61
  Q 242.17 117.39 285.58 61.82
  Q 307.64 33.59 328.94 1.74
  A 0.29 0.29 0.0 0 0 328.71 1.29
  L 313.75 0.86
  L 509.04 0.88
  Z"
/>
<path fill="#315bed" d="
  M 512.00 0.90
  L 512.00 25.16
  Q 501.63 41.68 491.36 58.09
  Q 456.78 113.34 416.95 164.92
  Q 406.95 177.87 398.49 192.12
  Q 398.45 155.70 398.38 119.50
  Q 398.34 100.68 383.07 90.18
  Q 378.80 87.25 373.76 85.68
  C 386.70 64.46 401.49 43.86 413.62 24.97
  C 418.15 17.91 423.60 9.03 416.25 1.62
  A 0.33 0.32 -22.6 0 1 416.48 1.07
  L 509.04 0.88
  L 512.00 0.90
  Z"
/>
<path fill="#3450ef" d="
  M 512.00 25.16
  L 512.00 206.11
  C 504.24 216.32 494.12 226.26 487.19 234.91
  Q 463.33 264.71 446.27 284.04
  Q 420.37 313.40 418.99 314.98
  Q 405.43 330.61 398.79 351.79
  A 0.13 0.13 0.0 0 1 398.54 351.75
  L 398.37 346.02
  L 398.38 326.78
  A 0.25 0.25 0.0 0 0 397.92 326.66
  L 366.24 381.47
  C 351.06 391.99 340.09 402.58 319.51 420.76
  C 295.95 441.57 260.42 469.48 227.46 494.06
  C 222.71 497.60 215.68 503.29 216.91 510.35
  A 0.67 0.67 0.0 0 0 217.57 510.91
  L 308.04 511.12
  L 1.17 511.10
  A 0.38 0.31 51.0 0 1 1.03 511.07
  Q 0.23 510.67 0.66 509.86
  C 16.37 499.39 35.68 489.68 49.68 481.72
  Q 133.73 433.91 210.17 373.68
  Q 218.68 366.97 230.07 356.20
  L 243.59 364.01
  A 0.53 0.52 -59.3 0 0 244.31 363.82
  L 291.69 281.75
  A 0.61 0.61 0.0 0 1 292.52 281.52
  L 324.62 300.06
  A 0.38 0.38 0.0 0 1 324.76 300.58
  L 277.20 382.96
  A 0.45 0.44 -60.3 0 0 277.36 383.57
  L 309.73 402.26
  A 0.60 0.59 29.4 0 0 310.54 402.04
  L 398.13 250.34
  A 2.51 2.43 60.9 0 0 398.46 249.10
  L 398.49 192.12
  Q 406.95 177.87 416.95 164.92
  Q 456.78 113.34 491.36 58.09
  Q 501.63 41.68 512.00 25.16
  Z"
/>
<path fill="#f6f9fd" d="
  M 373.76 85.68
  Q 378.80 87.25 383.07 90.18
  Q 398.34 100.68 398.38 119.50
  Q 398.45 155.70 398.49 192.12
  L 398.46 249.10
  A 2.51 2.43 60.9 0 1 398.13 250.34
  L 310.54 402.04
  A 0.60 0.59 29.4 0 1 309.73 402.26
  L 277.36 383.57
  A 0.45 0.44 -60.3 0 1 277.20 382.96
  L 324.76 300.58
  A 0.38 0.38 0.0 0 0 324.62 300.06
  L 292.52 281.52
  A 0.61 0.61 0.0 0 0 291.69 281.75
  L 244.31 363.82
  A 0.53 0.52 -59.3 0 1 243.59 364.01
  L 230.07 356.20
  L 211.28 345.35
  A 0.56 0.56 0.0 0 1 211.07 344.58
  L 258.47 262.49
  A 0.59 0.58 -60.1 0 0 258.26 261.69
  L 226.15 243.15
  A 0.41 0.41 0.0 0 0 225.60 243.30
  L 178.09 325.60
  A 0.50 0.50 0.0 0 1 177.41 325.78
  L 167.08 319.80
  L 144.98 307.01
  A 0.41 0.40 -59.9 0 1 144.84 306.46
  L 232.41 154.77
  A 2.48 2.42 -0.4 0 1 233.32 153.87
  Q 239.68 150.21 345.95 88.91
  Q 359.17 81.29 373.76 85.68
  Z
  M 245.69 209.94
  L 277.52 228.24
  A 0.69 0.69 0.0 0 0 278.47 227.99
  L 287.50 212.28
  A 19.23 18.98 -60.1 0 0 280.63 186.15
  L 280.51 186.08
  A 19.23 18.98 -60.1 0 0 254.47 193.29
  L 245.44 208.99
  A 0.69 0.69 0.0 0 0 245.69 209.94
  Z
  M 311.83 248.04
  L 343.76 266.47
  A 0.61 0.61 0.0 0 0 344.59 266.24
  L 353.63 250.58
  A 19.32 18.90 -60.0 0 0 346.93 224.40
  L 346.68 224.26
  A 19.32 18.90 -60.0 0 0 320.66 231.54
  L 311.61 247.20
  A 0.61 0.61 0.0 0 0 311.83 248.04
  Z"
/>
<path fill="#2d67ea" d="
  M 245.69 209.94
  A 0.69 0.69 0.0 0 1 245.44 208.99
  L 254.47 193.29
  A 19.23 18.98 -60.1 0 1 280.51 186.08
  L 280.63 186.15
  A 19.23 18.98 -60.1 0 1 287.50 212.28
  L 278.47 227.99
  A 0.69 0.69 0.0 0 1 277.52 228.24
  L 245.69 209.94
  Z"
/>
<path fill="#f6f9fd" d="
  M 91.75 262.52
  C 89.74 250.70 93.34 238.40 102.28 230.35
  Q 104.90 227.99 111.89 223.96
  Q 138.48 208.62 165.04 193.28
  Q 165.58 192.85 166.10 192.71
  A 0.22 0.22 0.0 0 1 166.35 193.04
  L 111.82 287.49
  A 0.32 0.32 0.0 0 1 111.41 287.62
  Q 95.28 279.93 91.75 262.52
  Z"
/>
<path fill="#3744f1" d="
  M 512.00 206.11
  L 512.00 511.16
  L 308.04 511.12
  L 217.57 510.91
  A 0.67 0.67 0.0 0 1 216.91 510.35
  C 215.68 503.29 222.71 497.60 227.46 494.06
  C 260.42 469.48 295.95 441.57 319.51 420.76
  C 340.09 402.58 351.06 391.99 366.24 381.47
  L 343.39 421.01
  A 0.49 0.48 31.3 0 0 343.55 421.66
  Q 351.39 426.62 358.43 427.53
  Q 376.54 429.88 389.59 416.16
  Q 394.88 410.59 397.01 403.32
  Q 398.33 398.81 398.35 388.53
  Q 398.39 367.29 398.37 346.02
  L 398.54 351.75
  A 0.13 0.13 0.0 0 0 398.79 351.79
  Q 405.43 330.61 418.99 314.98
  Q 420.37 313.40 446.27 284.04
  Q 463.33 264.71 487.19 234.91
  C 494.12 226.26 504.24 216.32 512.00 206.11
  Z"
/>
<path fill="#315bed" d="
  M 311.83 248.04
  A 0.61 0.61 0.0 0 1 311.61 247.20
  L 320.66 231.54
  A 19.32 18.90 -60.0 0 1 346.68 224.26
  L 346.93 224.40
  A 19.32 18.90 -60.0 0 1 353.63 250.58
  L 344.59 266.24
  A 0.61 0.61 0.0 0 1 343.76 266.47
  L 311.83 248.04
  Z"
/>
<path fill="#315bed" d="
  M 230.07 356.20
  Q 218.68 366.97 210.17 373.68
  Q 133.73 433.91 49.68 481.72
  C 35.68 489.68 16.37 499.39 0.66 509.86
  L 0.51 427.98
  Q 16.91 421.62 32.06 412.78
  C 79.66 385.00 124.63 354.76 167.08 319.80
  L 177.41 325.78
  A 0.50 0.50 0.0 0 0 178.09 325.60
  L 225.60 243.30
  A 0.41 0.41 0.0 0 1 226.15 243.15
  L 258.26 261.69
  A 0.59 0.58 -60.1 0 1 258.47 262.49
  L 211.07 344.58
  A 0.56 0.56 0.0 0 0 211.28 345.35
  L 230.07 356.20
  Z"
/>
<path fill="#f6f9fd" d="
  M 398.37 346.02
  Q 398.39 367.29 398.35 388.53
  Q 398.33 398.81 397.01 403.32
  Q 394.88 410.59 389.59 416.16
  Q 376.54 429.88 358.43 427.53
  Q 351.39 426.62 343.55 421.66
  A 0.49 0.48 31.3 0 1 343.39 421.01
  L 366.24 381.47
  L 397.92 326.66
  A 0.25 0.25 0.0 0 1 398.38 326.78
  L 398.37 346.02
  Z"
/>
</svg>