<?xml version="1.0" encoding="UTF-8" standalone="no"?>
<!DOCTYPE svg PUBLIC "-//W3C//DTD SVG 1.1//EN" "http://www.w3.org/Graphics/SVG/1.1/DTD/svg11.dtd">
<svg xmlns="http://www.w3.org/2000/svg" version="1.1" viewBox="0.00 -0.50 1448.00 1448.00" width="128" height="128">
<g stroke-width="2.00" fill="none" stroke-linecap="butt">
<path stroke="#4d74ba" vector-effect="non-scaling-stroke" d="
  M 0.71 0.00
  L 0.87 592.04"
/>
<path stroke="#4b72b4" vector-effect="non-scaling-stroke" d="
  M 0.87 592.04
  L 0.87 778.29"
/>
<path stroke="#496fae" vector-effect="non-scaling-stroke" d="
  M 0.87 778.29
  L 0.87 919.79"
/>
<path stroke="#476da8" vector-effect="non-scaling-stroke" d="
  M 0.87 919.79
  L 0.87 1125.29"
/>
<path stroke="#446ba2" vector-effect="non-scaling-stroke" d="
  M 0.87 1125.29
  L 0.87 1295.86"
/>
<path stroke="#416798" vector-effect="non-scaling-stroke" d="
  M 0.87 1295.86
  L 0.85 1446.24
  A 0.40 0.40 0.0 0 1 0.45 1446.64
  L 0.44 1446.64
  A 0.40 0.40 0.0 0 1 0.04 1446.24
  L 0.00 1438.87"
/>
<path stroke="#3c437a" vector-effect="non-scaling-stroke" d="
  M 560.78 0.00
  Q 543.17 11.46 529.42 25.20
  Q 99.23 455.37 31.20 523.45
  Q 23.44 531.22 18.63 536.88
  Q 8.59 548.71 1.22 563.84
  A 2.08 2.07 58.2 0 0 1.01 564.75
  L 0.87 592.04"
/>
<path stroke="#383e6e" vector-effect="non-scaling-stroke" d="
  M 717.82 0.00
  Q 705.41 15.17 686.55 34.05
  Q 590.29 130.36 493.97 226.61
  C 489.17 231.41 484.95 235.87 482.52 241.61"
/>
<path stroke="#9da0ba" vector-effect="non-scaling-stroke" d="
  M 482.52 241.61
  L 358.85 241.59
  A 0.70 0.70 0.0 0 0 358.25 242.64
  L 402.34 318.90"
/>
<path stroke="#383e6e" vector-effect="non-scaling-stroke" d="
  M 402.34 318.90
  Q 389.19 331.49 376.43 344.25
  Q 62.92 657.63 15.21 705.59
  Q 8.29 712.54 1.44 719.51
  A 1.23 1.20 -23.0 0 0 1.08 720.37
  L 0.87 778.29"
/>
<path stroke="#343963" vector-effect="non-scaling-stroke" d="
  M 899.79 0.00
  Q 883.97 7.65 869.93 21.68
  Q 773.46 118.08 677.00 214.48
  Q 671.30 220.17 666.53 226.66
  Q 660.78 234.50 667.08 241.57"
/>
<path stroke="#9b9db4" vector-effect="non-scaling-stroke" d="
  M 667.08 241.57
  L 482.52 241.61"
/>
<path stroke="#303557" vector-effect="non-scaling-stroke" d="
  M 1055.79 0.00
  Q 1042.61 14.98 1026.29 31.30
  Q 861.17 196.42 840.12 217.58
  Q 834.76 222.97 831.17 227.39
  C 828.35 230.87 824.49 236.87 830.71 239.09
  Q 836.22 241.04 844.29 241.53"
/>
<path stroke="#999bae" vector-effect="non-scaling-stroke" d="
  M 844.29 241.53
  L 667.08 241.57"
/>
<path stroke="#2a2e47" vector-effect="non-scaling-stroke" d="
  M 1319.31 0.00
  Q 1300.58 11.15 1285.23 26.48
  Q 1139.67 171.94 994.17 317.46
  Q 983.78 327.85 971.76 341.08"
/>
<path stroke="#9699a8" vector-effect="non-scaling-stroke" d="
  M 971.76 341.08
  L 914.44 241.85
  A 0.69 0.68 74.6 0 0 913.85 241.51
  L 844.29 241.53"
/>
<path stroke="#32385f" vector-effect="non-scaling-stroke" d="
  M 1446.50 0.00
  Q 1447.05 1.46 1447.05 5.00
  Q 1447.06 726.00 1447.05 1447.00"
/>
<path stroke="#2a2e47" vector-effect="non-scaling-stroke" d="
  M 0.87 1295.86
  C 11.38 1285.68 24.37 1272.29 31.83 1264.83
  Q 221.82 1074.82 411.83 884.83
  Q 424.28 872.38 436.12 859.16"
/>
<path stroke="#93959e" vector-effect="non-scaling-stroke" d="
  M 436.12 859.16
  L 496.62 963.96"
/>
<path stroke="#3f739c" vector-effect="non-scaling-stroke" d="
  M 496.62 963.96
  L 358.01 1204.89
  A 0.33 0.33 0.0 0 0 358.30 1205.39
  L 663.53 1205.38"
/>
<path stroke="#406b9a" vector-effect="non-scaling-stroke" d="
  M 663.53 1205.38
  L 869.43 1205.37"
/>
<path stroke="#416798" vector-effect="non-scaling-stroke" d="
  M 869.43 1205.37
  L 913.46 1205.36
  A 1.73 1.72 -74.8 0 0 914.95 1204.50
  Q 931.25 1176.10 951.07 1141.68
  Q 955.34 1134.25 956.51 1132.26
  Q 967.14 1114.20 969.11 1110.40
  Q 969.41 1109.82 969.50 1109.68
  Q 973.59 1103.07 984.07 1084.84
  Q 985.33 1082.66 986.68 1080.32
  Q 991.91 1071.27 996.43 1063.45
  Q 1178.59 747.79 1179.47 746.03
  Q 1180.30 744.37 1183.24 739.49
  Q 1186.56 733.97 1191.69 725.22
  Q 1192.80 723.32 1192.15 722.65"
/>
<path stroke="#93959e" vector-effect="non-scaling-stroke" d="
  M 1192.15 722.65
  L 971.76 341.08"
/>
<path stroke="#add1f9" vector-effect="non-scaling-stroke" d="
  M 1192.15 722.65
  Q 1192.26 723.46 1190.97 723.46
  Q 1053.24 723.45 915.50 723.42
  Q 914.54 723.42 914.08 723.44"
/>
<path stroke="#93959e" vector-effect="non-scaling-stroke" d="
  M 914.08 723.44
  L 775.56 483.54"
/>
<path stroke="#add1f9" vector-effect="non-scaling-stroke" d="
  M 775.56 483.54
  Q 775.00 482.72 774.25 482.72
  Q 715.33 482.71 656.49 482.74"
/>
<path stroke="#add6fb" vector-effect="non-scaling-stroke" d="
  M 656.49 482.74
  L 546.99 482.76"
/>
<path stroke="#acddfd" vector-effect="non-scaling-stroke" d="
  M 546.99 482.76
  L 497.44 482.76
  A 0.42 0.41 -15.7 0 1 497.09 482.57
  Q 496.91 482.31 496.72 482.34"
/>
<path stroke="#999bae" vector-effect="non-scaling-stroke" d="
  M 496.72 482.34
  L 465.61 428.44"
/>
<path stroke="#9b9db4" vector-effect="non-scaling-stroke" d="
  M 465.61 428.44
  L 402.34 318.90"
/>
<path stroke="#343963" vector-effect="non-scaling-stroke" d="
  M 465.61 428.44
  Q 452.31 439.13 440.34 451.10
  Q 109.54 781.86 23.62 867.87
  Q 11.88 879.61 1.38 892.48
  A 1.42 1.36 -26.3 0 0 1.06 893.36
  L 0.87 919.79"
/>
<path stroke="#4579ac" vector-effect="non-scaling-stroke" d="
  M 496.72 482.34
  L 391.59 664.96"
/>
<path stroke="#303557" vector-effect="non-scaling-stroke" d="
  M 391.59 664.96
  Q 376.98 675.46 366.59 685.81
  Q 346.53 705.80 32.90 1019.15
  Q 23.05 1028.99 16.05 1037.99
  C 9.09 1046.94 4.95 1056.79 1.23 1067.40
  A 3.36 3.08 57.4 0 0 1.06 1068.38
  L 0.87 1125.29"
/>
<path stroke="#59b4f8" vector-effect="non-scaling-stroke" d="
  M 546.99 482.76
  Q 558.61 494.07 560.12 510.29
  Q 561.00 519.63 561.02 529.01
  C 561.17 593.81 561.61 658.67 560.55 723.47"
/>
<path stroke="#acddfd" vector-effect="non-scaling-stroke" d="
  M 560.55 723.47
  L 358.24 723.44"
/>
<path stroke="#4377a6" vector-effect="non-scaling-stroke" d="
  M 358.24 723.44
  Q 358.19 722.80 358.32 722.57
  Q 374.95 693.77 391.59 664.96"
/>
<path stroke="#5ba8f5" vector-effect="non-scaling-stroke" d="
  M 656.49 482.74
  Q 659.70 502.11 659.78 524.45
  Q 660.01 592.15 659.87 612.78
  Q 659.62 647.90 662.12 678.80"
/>
<path stroke="#406b9a" vector-effect="non-scaling-stroke" d="
  M 662.12 678.80
  L 636.32 723.44"
/>
<path stroke="#add6fb" vector-effect="non-scaling-stroke" d="
  M 636.32 723.44
  L 560.55 723.47"
/>
<path stroke="#416798" vector-effect="non-scaling-stroke" d="
  M 775.56 483.54
  Q 774.99 483.54 774.87 483.76
  Q 718.46 581.22 662.12 678.80"
/>
<path stroke="#416798" vector-effect="non-scaling-stroke" d="
  M 914.08 723.44
  L 873.99 792.95"
/>
<path stroke="#406b9a" vector-effect="non-scaling-stroke" d="
  M 873.99 792.95
  Q 824.89 877.89 775.94 962.71
  Q 775.49 963.51 774.84 963.43"
/>
<path stroke="#93959e" vector-effect="non-scaling-stroke" d="
  M 774.84 963.43
  L 636.32 723.44"
/>
<path stroke="#9699a8" vector-effect="non-scaling-stroke" d="
  M 358.24 723.44
  L 436.12 859.16"
/>
<path stroke="#5ba8f5" vector-effect="non-scaling-stroke" d="
  M 869.43 1205.37
  C 876.19 1189.40 877.13 1173.87 877.17 1156.23
  Q 877.56 999.93 877.23 843.63
  Q 877.17 818.21 873.99 792.95"
/>
<path stroke="#add6fb" vector-effect="non-scaling-stroke" d="
  M 774.84 963.43
  Q 774.86 963.61 774.80 963.76
  A 0.36 0.35 -79.0 0 1 774.47 963.99
  L 675.38 963.93"
/>
<path stroke="#acddfd" vector-effect="non-scaling-stroke" d="
  M 675.38 963.93
  L 496.62 963.96"
/>
<path stroke="#59b4f8" vector-effect="non-scaling-stroke" d="
  M 663.53 1205.38
  L 674.78 1205.14
  A 0.77 0.76 9.2 0 0 675.47 1204.65
  C 681.81 1188.65 683.44 1173.55 683.41 1157.41
  Q 683.29 1093.96 683.46 1011.00
  C 683.49 993.76 682.68 979.20 675.38 963.93"
/>
</g>
<path fill="#5ba3f3" d="
  M 0.71 0.00
  L 0.87 592.04
  L 0.87 778.29
  L 0.87 919.79
  L 0.87 1125.29
  L 0.87 1295.86
  L 0.85 1446.24
  A 0.40 0.40 0.0 0 1 0.45 1446.64
  L 0.44 1446.64
  A 0.40 0.40 0.0 0 1 0.04 1446.24
  L 0.00 1438.87
  L 0.00 0.00
  L 0.71 0.00
  Z"
/>
<path fill="#3e4580" d="
  M 560.78 0.00
  Q 543.17 11.46 529.42 25.20
  Q 99.23 455.37 31.20 523.45
  Q 23.44 531.22 18.63 536.88
  Q 8.59 548.71 1.22 563.84
  A 2.08 2.07 58.2 0 0 1.01 564.75
  L 0.87 592.04
  L 0.71 0.00
  L 560.78 0.00
  Z"
/>
<path fill="#3a4074" d="
  M 717.82 0.00
  Q 705.41 15.17 686.55 34.05
  Q 590.29 130.36 493.97 226.61
  C 489.17 231.41 484.95 235.87 482.52 241.61
  L 358.85 241.59
  A 0.70 0.70 0.0 0 0 358.25 242.64
  L 402.34 318.90
  Q 389.19 331.49 376.43 344.25
  Q 62.92 657.63 15.21 705.59
  Q 8.29 712.54 1.44 719.51
  A 1.23 1.20 -23.0 0 0 1.08 720.37
  L 0.87 778.29
  L 0.87 592.04
  L 1.01 564.75
  A 2.08 2.07 58.2 0 1 1.22 563.84
  Q 8.59 548.71 18.63 536.88
  Q 23.44 531.22 31.20 523.45
  Q 99.23 455.37 529.42 25.20
  Q 543.17 11.46 560.78 0.00
  L 717.82 0.00
  Z"
/>
<path fill="#363b68" d="
  M 899.79 0.00
  Q 883.97 7.65 869.93 21.68
  Q 773.46 118.08 677.00 214.48
  Q 671.30 220.17 666.53 226.66
  Q 660.78 234.50 667.08 241.57
  L 482.52 241.61
  C 484.95 235.87 489.17 231.41 493.97 226.61
  Q 590.29 130.36 686.55 34.05
  Q 705.41 15.17 717.82 0.00
  L 899.79 0.00
  Z"
/>
<path fill="#32375d" d="
  M 1055.79 0.00
  Q 1042.61 14.98 1026.29 31.30
  Q 861.17 196.42 840.12 217.58
  Q 834.76 222.97 831.17 227.39
  C 828.35 230.87 824.49 236.87 830.71 239.09
  Q 836.22 241.04 844.29 241.53
  L 667.08 241.57
  Q 660.78 234.50 666.53 226.66
  Q 671.30 220.17 677.00 214.48
  Q 773.46 118.08 869.93 21.68
  Q 883.97 7.65 899.79 0.00
  L 1055.79 0.00
  Z"
/>
<path fill="#2d3251" d="
  M 1319.31 0.00
  Q 1300.58 11.15 1285.23 26.48
  Q 1139.67 171.94 994.17 317.46
  Q 983.78 327.85 971.76 341.08
  L 914.44 241.85
  A 0.69 0.68 74.6 0 0 913.85 241.51
  L 844.29 241.53
  Q 836.22 241.04 830.71 239.09
  C 824.49 236.87 828.35 230.87 831.17 227.39
  Q 834.76 222.97 840.12 217.58
  Q 861.17 196.42 1026.29 31.30
  Q 1042.61 14.98 1055.79 0.00
  L 1319.31 0.00
  Z"
/>
<path fill="#262a3d" d="
  M 1446.50 0.00
  Q 1447.05 1.46 1447.05 5.00
  Q 1447.06 726.00 1447.05 1447.00
  L 0.00 1447.00
  L 0.00 1438.87
  L 0.04 1446.24
  A 0.40 0.40 0.0 0 0 0.44 1446.64
  L 0.45 1446.64
  A 0.40 0.40 0.0 0 0 0.85 1446.24
  L 0.87 1295.86
  C 11.38 1285.68 24.37 1272.29 31.83 1264.83
  Q 221.82 1074.82 411.83 884.83
  Q 424.28 872.38 436.12 859.16
  L 496.62 963.96
  L 358.01 1204.89
  A 0.33 0.33 0.0 0 0 358.30 1205.39
  L 663.53 1205.38
  L 869.43 1205.37
  L 913.46 1205.36
  A 1.73 1.72 -74.8 0 0 914.95 1204.50
  Q 931.25 1176.10 951.07 1141.68
  Q 955.34 1134.25 956.51 1132.26
  Q 967.14 1114.20 969.11 1110.40
  Q 969.41 1109.82 969.50 1109.68
  Q 973.59 1103.07 984.07 1084.84
  Q 985.33 1082.66 986.68 1080.32
  Q 991.91 1071.27 996.43 1063.45
  Q 1178.59 747.79 1179.47 746.03
  Q 1180.30 744.37 1183.24 739.49
  Q 1186.56 733.97 1191.69 725.22
  Q 1192.80 723.32 1192.15 722.65
  L 971.76 341.08
  Q 983.78 327.85 994.17 317.46
  Q 1139.67 171.94 1285.23 26.48
  Q 1300.58 11.15 1319.31 0.00
  L 1446.50 0.00
  Z"
/>
<path fill="#3e4580" d="
  M 1448.00 0.00
  L 1448.00 1447.00
  L 1447.05 1447.00
  Q 1447.06 726.00 1447.05 5.00
  Q 1447.05 1.46 1446.50 0.00
  L 1448.00 0.00
  Z"
/>
<path fill="#ffffff" d="
  M 482.52 241.61
  L 667.08 241.57
  L 844.29 241.53
  L 913.85 241.51
  A 0.69 0.68 74.6 0 1 914.44 241.85
  L 971.76 341.08
  L 1192.15 722.65
  Q 1192.26 723.46 1190.97 723.46
  Q 1053.24 723.45 915.50 723.42
  Q 914.54 723.42 914.08 723.44
  L 775.56 483.54
  Q 775.00 482.72 774.25 482.72
  Q 715.33 482.71 656.49 482.74
  L 546.99 482.76
  L 497.44 482.76
  A 0.42 0.41 -15.7 0 1 497.09 482.57
  Q 496.91 482.31 496.72 482.34
  L 465.61 428.44
  L 402.34 318.90
  L 358.25 242.64
  A 0.70 0.70 0.0 0 1 358.85 241.59
  L 482.52 241.61
  Z"
/>
<path fill="#363b68" d="
  M 402.34 318.90
  L 465.61 428.44
  Q 452.31 439.13 440.34 451.10
  Q 109.54 781.86 23.62 867.87
  Q 11.88 879.61 1.38 892.48
  A 1.42 1.36 -26.3 0 0 1.06 893.36
  L 0.87 919.79
  L 0.87 778.29
  L 1.08 720.37
  A 1.23 1.20 -23.0 0 1 1.44 719.51
  Q 8.29 712.54 15.21 705.59
  Q 62.92 657.63 376.43 344.25
  Q 389.19 331.49 402.34 318.90
  Z"
/>
<path fill="#32375d" d="
  M 465.61 428.44
  L 496.72 482.34
  L 391.59 664.96
  Q 376.98 675.46 366.59 685.81
  Q 346.53 705.80 32.90 1019.15
  Q 23.05 1028.99 16.05 1037.99
  C 9.09 1046.94 4.95 1056.79 1.23 1067.40
  A 3.36 3.08 57.4 0 0 1.06 1068.38
  L 0.87 1125.29
  L 0.87 919.79
  L 1.06 893.36
  A 1.42 1.36 -26.3 0 1 1.38 892.48
  Q 11.88 879.61 23.62 867.87
  Q 109.54 781.86 440.34 451.10
  Q 452.31 439.13 465.61 428.44
  Z"
/>
<path fill="#58bbfa" d="
  M 546.99 482.76
  Q 558.61 494.07 560.12 510.29
  Q 561.00 519.63 561.02 529.01
  C 561.17 593.81 561.61 658.67 560.55 723.47
  L 358.24 723.44
  Q 358.19 722.80 358.32 722.57
  Q 374.95 693.77 391.59 664.96
  L 496.72 482.34
  Q 496.91 482.31 497.09 482.57
  A 0.42 0.41 -15.7 0 0 497.44 482.76
  L 546.99 482.76
  Z"
/>
<path fill="#5aacf6" d="
  M 656.49 482.74
  Q 659.70 502.11 659.78 524.45
  Q 660.01 592.15 659.87 612.78
  Q 659.62 647.90 662.12 678.80
  L 636.32 723.44
  L 560.55 723.47
  C 561.61 658.67 561.17 593.81 561.02 529.01
  Q 561.00 519.63 560.12 510.29
  Q 558.61 494.07 546.99 482.76
  L 656.49 482.74
  Z"
/>
<path fill="#5ba3f3" d="
  M 775.56 483.54
  Q 774.99 483.54 774.87 483.76
  Q 718.46 581.22 662.12 678.80
  Q 659.62 647.90 659.87 612.78
  Q 660.01 592.15 659.78 524.45
  Q 659.70 502.11 656.49 482.74
  Q 715.33 482.71 774.25 482.72
  Q 775.00 482.72 775.56 483.54
  Z"
/>
<path fill="#262a3d" d="
  M 775.56 483.54
  L 914.08 723.44
  L 873.99 792.95
  Q 824.89 877.89 775.94 962.71
  Q 775.49 963.51 774.84 963.43
  L 636.32 723.44
  L 662.12 678.80
  Q 718.46 581.22 774.87 483.76
  Q 774.99 483.54 775.56 483.54
  Z"
/>
<path fill="#2d3251" d="
  M 391.59 664.96
  Q 374.95 693.77 358.32 722.57
  Q 358.19 722.80 358.24 723.44
  L 436.12 859.16
  Q 424.28 872.38 411.83 884.83
  Q 221.82 1074.82 31.83 1264.83
  C 24.37 1272.29 11.38 1285.68 0.87 1295.86
  L 0.87 1125.29
  L 1.06 1068.38
  A 3.36 3.08 57.4 0 1 1.23 1067.40
  C 4.95 1056.79 9.09 1046.94 16.05 1037.99
  Q 23.05 1028.99 32.90 1019.15
  Q 346.53 705.80 366.59 685.81
  Q 376.98 675.46 391.59 664.96
  Z"
/>
<path fill="#5ba3f3" d="
  M 1192.15 722.65
  Q 1192.80 723.32 1191.69 725.22
  Q 1186.56 733.97 1183.24 739.49
  Q 1180.30 744.37 1179.47 746.03
  Q 1178.59 747.79 996.43 1063.45
  Q 991.91 1071.27 986.68 1080.32
  Q 985.33 1082.66 984.07 1084.84
  Q 973.59 1103.07 969.50 1109.68
  Q 969.41 1109.82 969.11 1110.40
  Q 967.14 1114.20 956.51 1132.26
  Q 955.34 1134.25 951.07 1141.68
  Q 931.25 1176.10 914.95 1204.50
  A 1.73 1.72 -74.8 0 1 913.46 1205.36
  L 869.43 1205.37
  C 876.19 1189.40 877.13 1173.87 877.17 1156.23
  Q 877.56 999.93 877.23 843.63
  Q 877.17 818.21 873.99 792.95
  L 914.08 723.44
  Q 914.54 723.42 915.50 723.42
  Q 1053.24 723.45 1190.97 723.46
  Q 1192.26 723.46 1192.15 722.65
  Z"
/>
<path fill="#ffffff" d="
  M 358.24 723.44
  L 560.55 723.47
  L 636.32 723.44
  L 774.84 963.43
  Q 774.86 963.61 774.80 963.76
  A 0.36 0.35 -79.0 0 1 774.47 963.99
  L 675.38 963.93
  L 496.62 963.96
  L 436.12 859.16
  L 358.24 723.44
  Z"
/>
<path fill="#5aacf6" d="
  M 873.99 792.95
  Q 877.17 818.21 877.23 843.63
  Q 877.56 999.93 877.17 1156.23
  C 877.13 1173.87 876.19 1189.40 869.43 1205.37
  L 663.53 1205.38
  L 674.78 1205.14
  A 0.77 0.76 9.2 0 0 675.47 1204.65
  C 681.81 1188.65 683.44 1173.55 683.41 1157.41
  Q 683.29 1093.96 683.46 1011.00
  C 683.49 993.76 682.68 979.20 675.38 963.93
  L 774.47 963.99
  A 0.36 0.35 -79.0 0 0 774.80 963.76
  Q 774.86 963.61 774.84 963.43
  Q 775.49 963.51 775.94 962.71
  Q 824.89 877.89 873.99 792.95
  Z"
/>
<path fill="#58bbfa" d="
  M 675.38 963.93
  C 682.68 979.20 683.49 993.76 683.46 1011.00
  Q 683.29 1093.96 683.41 1157.41
  C 683.44 1173.55 681.81 1188.65 675.47 1204.65
  A 0.77 0.76 9.2 0 1 674.78 1205.14
  L 663.53 1205.38
  L 358.30 1205.39
  A 0.33 0.33 0.0 0 1 358.01 1204.89
  L 496.62 963.96
  L 675.38 963.93
  Z"
/>
</svg>