<?xml version="1.0" encoding="UTF-8" standalone="no"?>
<!DOCTYPE svg PUBLIC "-//W3C//DTD SVG 1.1//EN" "http://www.w3.org/Graphics/SVG/1.1/DTD/svg11.dtd">
<svg xmlns="http://www.w3.org/2000/svg" version="1.1" viewBox="0.00 0.00 300.00 300.00" width="128" height="128">
<path fill="#ff4800" d="
  M 31.14 0.00
  Q 160.35 50.77 289.56 101.55
  C 294.04 103.31 297.55 105.23 298.33 109.89
  Q 299.82 118.85 291.39 122.14
  Q 225.20 147.93 169.77 169.43
  A 1.45 1.43 -1.1 0 0 168.95 170.27
  Q 161.63 189.54 122.45 292.71
  Q 120.20 298.63 114.08 300.00
  L 110.79 300.00
  C 105.62 298.98 103.63 296.25 101.69 291.21
  Q 51.64 160.94 1.58 30.69
  C 0.02 26.63 5.05 23.22 8.78 25.58
  A 1.51 1.36 -2.9 0 1 9.00 25.76
  L 99.78 117.56
  A 0.90 0.90 0.0 0 1 100.00 118.43
  Q 95.38 135.16 106.03 147.43
  C 110.47 152.54 118.08 156.70 124.52 157.50
  Q 131.65 158.39 138.93 154.95
  C 154.63 147.52 161.17 129.61 153.27 114.03
  C 146.81 101.30 132.17 95.43 118.52 99.93
  A 0.82 0.82 0.0 0 1 117.68 99.73
  Q 69.44 50.87 26.60 7.52
  C 24.08 4.98 26.22 1.25 29.18 0.00
  L 31.14 0.00
  Z"
/>
</svg>