<?xml version="1.0" encoding="UTF-8" standalone="no"?>
<!DOCTYPE svg PUBLIC "-//W3C//DTD SVG 1.1//EN" "http://www.w3.org/Graphics/SVG/1.1/DTD/svg11.dtd">
<svg xmlns="http://www.w3.org/2000/svg" version="1.1" viewBox="0.00 0.00 512.00 512.00" width="128" height="128">
<g stroke-width="2.00" fill="none" stroke-linecap="butt">
<path stroke="#83bfaa" vector-effect="non-scaling-stroke" d="
  M 218.76 167.43
  L 218.76 64.43
  A 0.43 0.43 0.0 0 0 218.33 64.00
  L 160.48 64.00
  A 0.49 0.49 0.0 0 0 159.99 64.49
  L 159.99 342.45
  A 0.34 0.33 0.0 0 0 160.33 342.78
  L 217.43 342.78
  A 0.35 0.35 0.0 0 0 217.78 342.43
  L 217.78 329.59
  A 0.28 0.28 0.0 0 1 218.24 329.38
  Q 236.00 343.77 257.96 346.08
  C 307.83 351.34 349.19 317.90 357.01 268.47
  C 362.28 235.17 353.91 200.21 329.92 177.03
  Q 300.81 148.91 257.83 152.95
  Q 240.14 154.61 224.88 164.05
  C 222.77 165.36 221.25 166.68 219.40 167.79
  A 0.42 0.42 0.0 0 1 218.76 167.43"
/>
<path stroke="#83bfaa" vector-effect="non-scaling-stroke" d="
  M 256.00 448.00
  C 313.82 448.00 371.05 433.39 423.67 408.31
  A 0.33 0.33 0.0 0 0 423.83 407.85
  L 403.06 368.34
  A 0.51 0.51 0.0 0 0 402.39 368.11
  C 357.08 390.14 306.59 403.07 256.00 403.07
  C 205.42 403.07 154.92 390.14 109.62 368.12
  A 0.51 0.51 0.0 0 0 108.94 368.35
  L 88.18 407.86
  A 0.33 0.33 0.0 0 0 88.33 408.31
  C 140.96 433.39 198.18 448.00 256.00 448.00"
/>
<path stroke="#83bfaa" vector-effect="non-scaling-stroke" d="
  M 215.25 249.70
  C 215.39 274.41 231.67 293.74 257.31 293.61
  C 282.94 293.47 299.01 273.96 298.88 249.24
  C 298.75 224.53 282.46 205.20 256.83 205.34
  C 231.19 205.47 215.12 224.99 215.25 249.70"
/>
</g>
<path fill="#067f54" d="
  M 388.76 0.00
  Q 392.68 0.36 396.61 0.75
  Q 427.85 3.83 453.53 20.56
  C 456.64 22.59 460.18 25.36 462.20 26.80
  Q 465.21 28.96 468.43 31.96
  C 471.11 34.46 473.94 36.75 476.40 39.55
  C 478.75 42.23 482.07 45.51 484.44 48.79
  C 487.00 52.33 489.74 55.77 492.17 59.60
  Q 508.28 84.89 511.27 115.53
  Q 511.64 119.34 512.00 123.15
  L 512.00 388.88
  Q 511.64 392.74 511.25 396.61
  Q 508.17 427.83 491.45 453.53
  Q 489.84 456.00 488.42 457.89
  C 483.52 464.37 478.25 471.20 472.44 476.40
  Q 468.74 479.72 467.19 481.17
  C 464.70 483.50 462.43 484.97 459.33 487.33
  C 441.36 501.06 419.13 509.05 396.48 511.27
  Q 392.72 511.63 388.97 512.00
  L 123.13 512.00
  Q 119.26 511.64 115.39 511.25
  Q 84.16 508.17 58.46 491.45
  Q 56.00 489.84 54.11 488.42
  C 47.70 483.58 40.63 478.22 35.60 472.43
  Q 34.96 471.70 30.93 467.31
  C 28.55 464.72 26.71 462.02 24.41 458.98
  C 10.85 441.09 2.94 419.02 0.73 396.48
  Q 0.36 392.68 0.00 388.87
  L 0.00 123.24
  Q 2.65 72.63 37.13 37.88
  Q 72.00 2.74 123.14 0.00
  L 388.76 0.00
  Z
  M 218.76 167.43
  L 218.76 64.43
  A 0.43 0.43 0.0 0 0 218.33 64.00
  L 160.48 64.00
  A 0.49 0.49 0.0 0 0 159.99 64.49
  L 159.99 342.45
  A 0.34 0.33 0.0 0 0 160.33 342.78
  L 217.43 342.78
  A 0.35 0.35 0.0 0 0 217.78 342.43
  L 217.78 329.59
  A 0.28 0.28 0.0 0 1 218.24 329.38
  Q 236.00 343.77 257.96 346.08
  C 307.83 351.34 349.19 317.90 357.01 268.47
  C 362.28 235.17 353.91 200.21 329.92 177.03
  Q 300.81 148.91 257.83 152.95
  Q 240.14 154.61 224.88 164.05
  C 222.77 165.36 221.25 166.68 219.40 167.79
  A 0.42 0.42 0.0 0 1 218.76 167.43
  Z
  M 256.00 448.00
  C 313.82 448.00 371.05 433.39 423.67 408.31
  A 0.33 0.33 0.0 0 0 423.83 407.85
  L 403.06 368.34
  A 0.51 0.51 0.0 0 0 402.39 368.11
  C 357.08 390.14 306.59 403.07 256.00 403.07
  C 205.42 403.07 154.92 390.14 109.62 368.12
  A 0.51 0.51 0.0 0 0 108.94 368.35
  L 88.18 407.86
  A 0.33 0.33 0.0 0 0 88.33 408.31
  C 140.96 433.39 198.18 448.00 256.00 448.00
  Z"
/>
<path fill="#ffffff" d="
  M 219.40 167.79
  C 221.25 166.68 222.77 165.36 224.88 164.05
  Q 240.14 154.61 257.83 152.95
  Q 300.81 148.91 329.92 177.03
  C 353.91 200.21 362.28 235.17 357.01 268.47
  C 349.19 317.90 307.83 351.34 257.96 346.08
  Q 236.00 343.77 218.24 329.38
  A 0.28 0.28 0.0 0 0 217.78 329.59
  L 217.78 342.43
  A 0.35 0.35 0.0 0 1 217.43 342.78
  L 160.33 342.78
  A 0.34 0.33 0.0 0 1 159.99 342.45
  L 159.99 64.49
  A 0.49 0.49 0.0 0 1 160.48 64.00
  L 218.33 64.00
  A 0.43 0.43 0.0 0 1 218.76 64.43
  L 218.76 167.43
  A 0.42 0.42 0.0 0 0 219.40 167.79
  Z
  M 215.25 249.70
  C 215.39 274.41 231.67 293.74 257.31 293.61
  C 282.94 293.47 299.01 273.96 298.88 249.24
  C 298.75 224.53 282.46 205.20 256.83 205.34
  C 231.19 205.47 215.12 224.99 215.25 249.70
  Z"
/>
<path fill="#067f54" d="
  M 256.83 205.34
  C 282.46 205.20 298.75 224.53 298.88 249.24
  C 299.01 273.96 282.94 293.47 257.31 293.61
  C 231.67 293.74 215.39 274.41 215.25 249.70
  C 215.12 224.99 231.19 205.47 256.83 205.34
  Z"
/>
<path fill="#ffffff" d="
  M 256.00 403.07
  C 306.59 403.07 357.08 390.14 402.39 368.11
  A 0.51 0.51 0.0 0 1 403.06 368.34
  L 423.83 407.85
  A 0.33 0.33 0.0 0 1 423.67 408.31
  C 371.05 433.39 313.82 448.00 256.00 448.00
  C 198.18 448.00 140.96 433.39 88.33 408.31
  A 0.33 0.33 0.0 0 1 88.18 407.86
  L 108.94 368.35
  A 0.51 0.51 0.0 0 1 109.62 368.12
  C 154.92 390.14 205.42 403.07 256.00 403.07
  Z"
/>
</svg>