<?xml version="1.0" encoding="UTF-8" standalone="no"?>
<!DOCTYPE svg PUBLIC "-//W3C//DTD SVG 1.1//EN" "http://www.w3.org/Graphics/SVG/1.1/DTD/svg11.dtd">
<svg xmlns="http://www.w3.org/2000/svg" version="1.1" viewBox="0.00 0.00 256.00 256.00" width="128" height="128">
<g stroke-width="2.00" fill="none" stroke-linecap="butt">
<path stroke="#8e8d8c" vector-effect="non-scaling-stroke" d="
  M 128.50 138.60
  Q 131.12 138.61 133.59 139.57
  Q 142.89 143.19 151.08 148.63
  Q 175.90 165.14 179.20 167.26
  C 188.34 173.14 205.29 183.55 216.15 176.96
  C 229.79 168.68 224.12 153.12 216.87 143.14
  Q 210.89 134.92 206.52 130.48
  Q 180.19 103.68 147.45 83.35
  Q 139.01 78.11 128.66 78.09
  Q 118.30 78.06 109.84 83.25
  Q 76.99 103.41 50.52 130.07
  Q 46.12 134.49 40.10 142.68
  C 32.80 152.62 27.05 168.15 40.64 176.50
  C 51.47 183.15 68.47 172.83 77.64 166.99
  Q 80.96 164.89 105.86 148.51
  Q 114.08 143.11 123.40 139.54
  Q 125.87 138.60 128.50 138.60"
/>
<path stroke="#8e8d8c" vector-effect="non-scaling-stroke" d="
  M 69.36 126.59
  C 74.61 125.86 83.00 124.21 89.55 123.64
  Q 114.07 121.52 137.17 130.88
  Q 145.80 134.38 156.62 141.26
  C 169.92 149.70 182.30 158.96 196.34 166.15
  Q 203.72 169.94 210.72 168.72
  A 2.43 2.43 0.0 0 0 211.90 168.15
  Q 215.01 165.42 214.97 162.20
  C 214.90 157.53 211.37 151.43 208.72 147.79
  Q 204.08 141.42 198.75 135.99
  Q 181.73 118.64 162.35 104.74
  C 154.14 98.84 147.46 93.79 140.63 90.37
  Q 132.92 86.52 123.46 88.07
  C 118.40 88.90 112.84 92.48 108.57 95.31
  Q 87.90 109.03 68.82 125.40
  A 0.68 0.68 0.0 0 0 69.36 126.59"
/>
<path stroke="#8e8d8c" vector-effect="non-scaling-stroke" d="
  M 112.30 135.23
  A 0.42 0.42 0.0 0 0 112.08 134.56
  Q 107.09 133.29 100.79 133.19
  Q 79.41 132.85 60.17 140.92
  C 51.08 144.73 45.48 149.28 42.66 158.88
  C 40.19 167.30 46.70 170.88 53.93 168.63
  Q 61.46 166.28 71.50 160.23
  Q 74.48 158.44 100.50 141.99
  Q 104.09 139.72 111.73 135.68
  Q 112.09 135.49 112.30 135.23"
/>
</g>
<path fill="#ffffff" d="
  M 202.63 0.00
  Q 211.88 -0.42 219.82 3.92
  Q 229.54 9.23 233.74 11.54
  Q 236.68 13.15 242.07 14.23
  A 0.81 0.81 0.0 0 1 242.69 14.85
  Q 243.92 20.81 246.14 24.44
  C 250.62 31.78 255.07 39.24 256.00 47.73
  L 256.00 208.90
  C 254.90 218.22 249.91 226.55 245.43 234.60
  Q 243.32 238.40 242.78 241.91
  A 1.05 1.05 0.0 0 1 241.91 242.78
  Q 238.38 243.32 234.49 245.50
  C 226.38 250.03 217.79 255.18 208.35 256.00
  L 48.30 256.00
  C 41.62 255.29 36.42 253.11 30.73 249.77
  C 25.22 246.54 20.63 243.58 14.77 242.75
  A 0.61 0.61 0.0 0 1 14.26 242.23
  Q 13.68 238.06 11.26 233.50
  Q 7.32 226.12 3.63 219.14
  Q 0.73 213.68 0.00 207.49
  L 0.00 53.35
  Q 0.12 45.14 4.23 37.24
  Q 8.86 28.33 10.36 25.78
  C 12.32 22.43 13.43 18.64 14.27 15.55
  A 1.86 1.85 -89.9 0 1 15.56 14.25
  C 18.94 13.34 22.49 12.28 25.89 10.31
  Q 30.90 7.41 37.53 4.06
  Q 43.69 0.95 50.51 0.00
  L 202.63 0.00
  Z
  M 128.50 138.60
  Q 131.12 138.61 133.59 139.57
  Q 142.89 143.19 151.08 148.63
  Q 175.90 165.14 179.20 167.26
  C 188.34 173.14 205.29 183.55 216.15 176.96
  C 229.79 168.68 224.12 153.12 216.87 143.14
  Q 210.89 134.92 206.52 130.48
  Q 180.19 103.68 147.45 83.35
  Q 139.01 78.11 128.66 78.09
  Q 118.30 78.06 109.84 83.25
  Q 76.99 103.41 50.52 130.07
  Q 46.12 134.49 40.10 142.68
  C 32.80 152.62 27.05 168.15 40.64 176.50
  C 51.47 183.15 68.47 172.83 77.64 166.99
  Q 80.96 164.89 105.86 148.51
  Q 114.08 143.11 123.40 139.54
  Q 125.87 138.60 128.50 138.60
  Z"
/>
<path fill="#1c1b19" d="
  M 128.66 78.09
  Q 139.01 78.11 147.45 83.35
  Q 180.19 103.68 206.52 130.48
  Q 210.89 134.92 216.87 143.14
  C 224.12 153.12 229.79 168.68 216.15 176.96
  C 205.29 183.55 188.34 173.14 179.20 167.26
  Q 175.90 165.14 151.08 148.63
  Q 142.89 143.19 133.59 139.57
  Q 131.12 138.61 128.50 138.60
  Q 125.87 138.60 123.40 139.54
  Q 114.08 143.11 105.86 148.51
  Q 80.96 164.89 77.64 166.99
  C 68.47 172.83 51.47 183.15 40.64 176.50
  C 27.05 168.15 32.80 152.62 40.10 142.68
  Q 46.12 134.49 50.52 130.07
  Q 76.99 103.41 109.84 83.25
  Q 118.30 78.06 128.66 78.09
  Z
  M 69.36 126.59
  C 74.61 125.86 83.00 124.21 89.55 123.64
  Q 114.07 121.52 137.17 130.88
  Q 145.80 134.38 156.62 141.26
  C 169.92 149.70 182.30 158.96 196.34 166.15
  Q 203.72 169.94 210.72 168.72
  A 2.43 2.43 0.0 0 0 211.90 168.15
  Q 215.01 165.42 214.97 162.20
  C 214.90 157.53 211.37 151.43 208.72 147.79
  Q 204.08 141.42 198.75 135.99
  Q 181.73 118.64 162.35 104.74
  C 154.14 98.84 147.46 93.79 140.63 90.37
  Q 132.92 86.52 123.46 88.07
  C 118.40 88.90 112.84 92.48 108.57 95.31
  Q 87.90 109.03 68.82 125.40
  A 0.68 0.68 0.0 0 0 69.36 126.59
  Z
  M 112.30 135.23
  A 0.42 0.42 0.0 0 0 112.08 134.56
  Q 107.09 133.29 100.79 133.19
  Q 79.41 132.85 60.17 140.92
  C 51.08 144.73 45.48 149.28 42.66 158.88
  C 40.19 167.30 46.70 170.88 53.93 168.63
  Q 61.46 166.28 71.50 160.23
  Q 74.48 158.44 100.50 141.99
  Q 104.09 139.72 111.73 135.68
  Q 112.09 135.49 112.30 135.23
  Z"
/>
<path fill="#ffffff" d="
  M 69.36 126.59
  A 0.68 0.68 0.0 0 1 68.82 125.40
  Q 87.90 109.03 108.57 95.31
  C 112.84 92.48 118.40 88.90 123.46 88.07
  Q 132.92 86.52 140.63 90.37
  C 147.46 93.79 154.14 98.84 162.35 104.74
  Q 181.73 118.64 198.75 135.99
  Q 204.08 141.42 208.72 147.79
  C 211.37 151.43 214.90 157.53 214.97 162.20
  Q 215.01 165.42 211.90 168.15
  A 2.43 2.43 0.0 0 1 210.72 168.72
  Q 203.72 169.94 196.34 166.15
  C 182.30 158.96 169.92 149.70 156.62 141.26
  Q 145.80 134.38 137.17 130.88
  Q 114.07 121.52 89.55 123.64
  C 83.00 124.21 74.61 125.86 69.36 126.59
  Z"
/>
<path fill="#ffffff" d="
  M 112.30 135.23
  Q 112.09 135.49 111.73 135.68
  Q 104.09 139.72 100.50 141.99
  Q 74.48 158.44 71.50 160.23
  Q 61.46 166.28 53.93 168.63
  C 46.70 170.88 40.19 167.30 42.66 158.88
  C 45.48 149.28 51.08 144.73 60.17 140.92
  Q 79.41 132.85 100.79 133.19
  Q 107.09 133.29 112.08 134.56
  A 0.42 0.42 0.0 0 1 112.30 135.23
  Z"
/>
</svg>