<?xml version="1.0" encoding="UTF-8" standalone="no"?>
<!DOCTYPE svg PUBLIC "-//W3C//DTD SVG 1.1//EN" "http://www.w3.org/Graphics/SVG/1.1/DTD/svg11.dtd">
<svg xmlns="http://www.w3.org/2000/svg" version="1.1" viewBox="0.00 0.00 256.00 256.00" width="128" height="128">
<g stroke-width="2.00" fill="none" stroke-linecap="butt">
<path stroke="#59b3f2" vector-effect="non-scaling-stroke" d="
  M 184.89 0.00
  Q 182.26 8.84 181.69 12.72
  Q 178.40 35.09 195.17 50.76
  Q 199.41 54.72 205.28 59.73
  C 209.76 63.56 214.69 68.99 211.74 75.03
  Q 209.61 79.37 208.02 80.91
  Q 202.10 86.66 197.60 93.62"
/>
<path stroke="#6cc4fc" vector-effect="non-scaling-stroke" d="
  M 197.60 93.62
  L 160.09 83.16"
/>
<path stroke="#6cc4fc" vector-effect="non-scaling-stroke" d="
  M 160.09 83.16
  C 148.64 79.92 137.55 75.08 127.88 68.16
  Q 124.37 65.65 118.27 61.47
  C 104.95 52.33 89.68 49.77 73.22 50.94
  C 63.92 51.60 48.80 54.11 36.33 53.71
  Q 11.32 52.90 0.00 52.99"
/>
<path stroke="#49a1e4" vector-effect="non-scaling-stroke" d="
  M 237.74 0.00
  L 227.78 0.68
  A 1.72 1.72 0.0 0 0 226.19 2.15
  C 224.69 12.63 222.19 23.80 213.38 30.31
  Q 210.10 32.73 206.93 34.65
  C 198.77 39.60 204.03 44.76 209.25 48.73
  Q 209.91 49.24 226.70 61.06
  Q 231.48 64.42 242.20 74.14"
/>
<path stroke="#57a6da" vector-effect="non-scaling-stroke" d="
  M 242.20 74.14
  Q 241.20 84.17 242.75 94.43"
/>
<path stroke="#6baedb" vector-effect="non-scaling-stroke" d="
  M 242.75 94.43
  Q 234.44 97.41 225.99 99.32
  Q 221.80 100.27 218.33 99.89
  A 1.27 1.27 0.0 0 1 217.21 98.49
  L 217.27 97.88
  A 1.66 1.65 3.3 0 0 215.63 96.05
  L 201.30 95.99"
/>
<path stroke="#64bcf4" vector-effect="non-scaling-stroke" d="
  M 201.30 95.99
  L 197.60 93.62"
/>
<path stroke="#4e9dd4" vector-effect="non-scaling-stroke" d="
  M 256.00 59.25
  C 248.18 61.47 241.71 64.59 242.20 74.14"
/>
<path stroke="#76cdfe" vector-effect="non-scaling-stroke" d="
  M 160.09 83.16
  L 152.70 84.89"
/>
<path stroke="#88cff9" vector-effect="non-scaling-stroke" d="
  M 152.70 84.89
  Q 150.14 84.67 148.08 85.32
  A 0.66 0.66 0.0 0 0 148.07 86.57
  L 156.93 89.50"
/>
<path stroke="#7ec0e5" vector-effect="non-scaling-stroke" d="
  M 156.93 89.50
  Q 155.25 89.60 154.81 90.38"
/>
<path stroke="#88cff9" vector-effect="non-scaling-stroke" d="
  M 154.81 90.38
  Q 144.51 89.06 134.11 89.39
  Q 132.80 89.43 132.69 90.39"
/>
<path stroke="#a4d8f2" vector-effect="non-scaling-stroke" d="
  M 132.69 90.39
  Q 131.73 90.51 131.08 91.07
  A 1.22 1.19 73.1 0 0 130.67 91.86
  L 130.45 93.78"
/>
<path stroke="#a5d2d5" vector-effect="non-scaling-stroke" d="
  M 130.45 93.78
  C 116.31 92.53 103.73 95.40 90.50 99.98"
/>
<path stroke="#a4d8f2" vector-effect="non-scaling-stroke" d="
  M 90.50 99.98
  Q 92.40 98.34 93.38 96.62
  A 1.06 1.05 -71.5 0 0 92.60 95.05
  L 84.30 93.98"
/>
<path stroke="#88cff9" vector-effect="non-scaling-stroke" d="
  M 84.30 93.98
  Q 79.14 91.89 75.81 91.85
  Q 64.44 91.69 58.08 90.91
  Q 48.09 89.69 37.82 84.28
  Q 24.82 77.44 21.30 75.73
  Q 12.45 71.45 0.00 68.27"
/>
<path stroke="#5fafe2" vector-effect="non-scaling-stroke" d="
  M 256.00 65.72
  L 255.78 97.79"
/>
<path stroke="#71aacb" vector-effect="non-scaling-stroke" d="
  M 255.78 97.79
  L 242.75 94.43"
/>
<path stroke="#498db9" vector-effect="non-scaling-stroke" d="
  M 256.00 149.49
  L 255.74 147.98"
/>
<path stroke="#89a0c2" vector-effect="non-scaling-stroke" d="
  M 255.74 147.98
  Q 255.78 139.96 255.71 132.00
  Q 255.67 127.81 255.00 123.73"
/>
<path stroke="#73b7e3" vector-effect="non-scaling-stroke" d="
  M 255.00 123.73
  L 255.78 97.79"
/>
<path stroke="#b6d9ed" vector-effect="non-scaling-stroke" d="
  M 84.30 93.98
  Q 83.31 94.22 82.36 94.68
  Q 82.03 94.84 80.92 96.05
  Q 80.11 96.92 78.37 97.00
  Q 65.75 97.59 52.75 98.53
  Q 50.69 98.68 45.11 98.20
  A 0.20 0.19 7.9 0 1 44.93 97.97
  L 44.98 97.70
  A 0.07 0.07 0.0 0 1 45.05 97.64
  Q 55.39 97.59 65.20 96.52
  Q 65.24 96.51 65.22 96.44
  A 0.15 0.14 -7.9 0 0 65.08 96.34
  Q 48.35 96.77 44.60 96.50
  Q 30.98 95.54 24.94 96.54
  Q 24.23 96.66 22.51 96.54
  C 14.95 96.01 7.60 94.93 0.00 95.10"
/>
<path stroke="#7ec0e5" vector-effect="non-scaling-stroke" d="
  M 201.30 95.99
  C 193.02 95.88 185.43 93.32 177.00 90.37
  Q 172.15 88.67 153.62 85.50"
/>
<path stroke="#88cff9" vector-effect="non-scaling-stroke" d="
  M 153.62 85.50
  Q 153.54 85.18 152.70 84.89"
/>
<path stroke="#8fc1df" vector-effect="non-scaling-stroke" d="
  M 153.62 85.50
  Q 158.27 88.30 156.93 89.50"
/>
<path stroke="#9b9caa" vector-effect="non-scaling-stroke" d="
  M 255.00 123.73
  Q 250.03 127.62 243.63 128.39
  Q 239.48 128.90 236.13 129.07"
/>
<path stroke="#aeb1c1" vector-effect="non-scaling-stroke" d="
  M 236.13 129.07
  Q 227.41 127.80 219.57 126.51
  Q 213.74 125.55 211.17 123.88
  C 206.63 120.91 205.47 115.26 204.94 109.86"
/>
<path stroke="#8fc1df" vector-effect="non-scaling-stroke" d="
  M 204.94 109.86
  C 204.24 100.68 196.78 97.85 188.78 97.96"
/>
<path stroke="#adc5bc" vector-effect="non-scaling-stroke" d="
  M 188.78 97.96
  L 184.73 98.65"
/>
<path stroke="#aeb1c1" vector-effect="non-scaling-stroke" d="
  M 184.73 98.65
  L 182.28 98.22"
/>
<path stroke="#adc5bc" vector-effect="non-scaling-stroke" d="
  M 182.28 98.22
  Q 174.91 95.83 172.77 95.47
  Q 165.47 94.25 158.30 92.58"
/>
<path stroke="#accad9" vector-effect="non-scaling-stroke" d="
  M 158.30 92.58
  Q 158.07 91.71 155.24 91.10"
/>
<path stroke="#8fc1df" vector-effect="non-scaling-stroke" d="
  M 155.24 91.10
  L 154.81 90.38"
/>
<path stroke="#b6d9ed" vector-effect="non-scaling-stroke" d="
  M 155.24 91.10
  L 132.69 90.39"
/>
<path stroke="#d3ddc9" vector-effect="non-scaling-stroke" d="
  M 158.30 92.58
  Q 144.52 94.82 130.45 93.78"
/>
<path stroke="#d5c4b1" vector-effect="non-scaling-stroke" d="
  M 182.28 98.22
  L 181.09 98.47"
/>
<path stroke="#e5d1a1" vector-effect="non-scaling-stroke" d="
  M 181.09 98.47
  C 174.96 98.57 167.90 97.56 162.86 97.64
  C 156.66 97.74 151.48 97.21 145.26 97.62
  C 138.73 98.06 134.71 98.04 129.18 97.69
  Q 124.18 97.38 119.63 98.44
  A 0.18 0.18 0.0 0 0 119.65 98.80
  Q 130.49 99.69 140.73 99.15
  A 0.24 0.24 0.0 0 1 140.98 99.39
  L 140.98 99.69
  A 0.27 0.26 -2.4 0 1 140.73 99.95
  L 120.70 100.97"
/>
<path stroke="#e5d694" vector-effect="non-scaling-stroke" d="
  M 120.70 100.97
  Q 117.74 99.68 113.46 100.57
  Q 104.65 102.41 94.51 102.32"
/>
<path stroke="#d3ddc9" vector-effect="non-scaling-stroke" d="
  M 94.51 102.32
  Q 92.59 101.75 90.55 101.95
  A 0.69 0.68 13.5 0 1 89.90 100.90
  L 90.50 99.98"
/>
<path stroke="#e4dbb1" vector-effect="non-scaling-stroke" d="
  M 94.51 102.32
  Q 89.16 104.19 85.76 107.26
  Q 82.99 109.76 75.47 117.45
  Q 73.99 118.95 72.23 120.56"
/>
<path stroke="#d3ddc9" vector-effect="non-scaling-stroke" d="
  M 72.23 120.56
  L 56.16 129.74"
/>
<path stroke="#e4d6be" vector-effect="non-scaling-stroke" d="
  M 56.16 129.74
  Q 48.38 130.89 45.85 130.92
  Q 39.81 131.00 35.62 131.26
  Q 28.70 131.71 25.41 131.67
  Q 12.73 131.55 0.00 132.06"
/>
<path stroke="#e6bda6" vector-effect="non-scaling-stroke" d="
  M 181.09 98.47
  Q 183.29 99.17 184.29 100.72
  Q 186.55 104.20 188.70 109.23"
/>
<path stroke="#e5d1a1" vector-effect="non-scaling-stroke" d="
  M 188.70 109.23
  L 195.31 122.22"
/>
<path stroke="#e6bda6" vector-effect="non-scaling-stroke" d="
  M 195.31 122.22
  Q 200.72 126.06 205.62 130.61
  C 209.25 133.98 210.63 138.94 211.55 143.50
  A 0.86 0.86 0.0 0 1 210.70 144.53
  Q 204.24 144.48 198.30 146.41"
/>
<path stroke="#a99c80" vector-effect="non-scaling-stroke" d="
  M 198.30 146.41
  L 197.76 146.53
  A 0.74 0.74 0.0 0 0 197.20 147.15
  Q 197.07 148.18 195.82 148.23"
/>
<path stroke="#fbaf4b" vector-effect="non-scaling-stroke" d="
  M 195.82 148.23
  Q 192.81 151.18 191.88 156.58
  Q 191.88 156.60 191.88 156.59
  Q 191.87 156.58 191.87 156.57
  A 0.09 0.04 67.5 0 1 191.87 156.51
  L 192.44 153.21"
/>
<path stroke="#f6cf89" vector-effect="non-scaling-stroke" d="
  M 192.44 153.21
  L 196.75 145.30"
/>
<path stroke="#f6cf89" vector-effect="non-scaling-stroke" d="
  M 196.75 145.30
  C 199.55 135.86 196.18 130.48 190.77 123.43
  C 187.02 118.54 184.53 114.55 180.10 111.97
  Q 177.50 110.47 171.57 108.88
  Q 150.02 103.13 128.58 102.49
  Q 125.56 102.40 120.70 100.97"
/>
<path stroke="#b8c0d5" vector-effect="non-scaling-stroke" d="
  M 204.94 109.86
  L 204.50 116.14"
/>
<path stroke="#8fc1df" vector-effect="non-scaling-stroke" d="
  M 204.50 116.14
  L 204.74 119.39"
/>
<path stroke="#b8c0d5" vector-effect="non-scaling-stroke" d="
  M 204.74 119.39
  L 203.23 116.76"
/>
<path stroke="#b6d9ed" vector-effect="non-scaling-stroke" d="
  M 203.23 116.76
  C 202.67 108.29 201.31 100.92 191.84 98.58"
/>
<path stroke="#b7d4d0" vector-effect="non-scaling-stroke" d="
  M 191.84 98.58
  L 188.78 97.96"
/>
<path stroke="#d3ddc9" vector-effect="non-scaling-stroke" d="
  M 191.84 98.58
  L 186.81 98.42
  A 0.12 0.11 50.4 0 0 186.79 98.65
  L 193.92 99.94
  A 1.08 1.07 -3.1 0 1 194.75 100.68
  L 199.95 117.71"
/>
<path stroke="#d5c4b1" vector-effect="non-scaling-stroke" d="
  M 199.95 117.71
  Q 202.30 123.75 207.83 126.91
  Q 214.70 130.82 222.32 133.20
  A 0.39 0.39 0.0 0 1 222.17 133.96
  C 218.13 133.59 214.67 132.34 210.70 129.97
  Q 206.67 127.58 202.92 126.15
  A 4.57 4.56 -14.1 0 1 201.53 125.32
  C 196.59 120.96 194.46 114.34 191.49 105.01
  Q 190.13 100.75 184.73 98.65"
/>
<path stroke="#d4c9ce" vector-effect="non-scaling-stroke" d="
  M 199.95 117.71
  Q 201.35 118.78 202.71 119.22
  A 0.48 0.47 15.0 0 0 203.32 118.87
  Q 203.53 117.91 203.23 116.76"
/>
<path stroke="#aeb1c1" vector-effect="non-scaling-stroke" d="
  M 204.74 119.39
  Q 207.96 124.65 213.00 126.24
  Q 222.01 129.08 233.66 129.47
  A 0.24 0.24 0.0 0 0 233.91 129.25
  L 233.91 129.24
  A 0.25 0.25 0.0 0 0 233.69 128.98
  Q 225.44 128.02 215.00 125.64
  Q 207.34 123.89 204.50 116.14"
/>
<path stroke="#c49ba0" vector-effect="non-scaling-stroke" d="
  M 236.13 129.07
  Q 230.97 132.99 225.12 139.58
  Q 222.44 142.60 217.31 144.78"
/>
<path stroke="#838797" vector-effect="non-scaling-stroke" d="
  M 217.31 144.78
  Q 211.52 146.76 205.46 145.93"
/>
<path stroke="#998f91" vector-effect="non-scaling-stroke" d="
  M 205.46 145.93
  Q 207.83 145.45 210.36 145.63
  Q 204.22 145.31 198.30 146.41"
/>
<path stroke="#d5c4b1" vector-effect="non-scaling-stroke" d="
  M 195.31 122.22
  Q 194.72 114.81 188.70 109.23"
/>
<path stroke="#f5d47c" vector-effect="non-scaling-stroke" d="
  M 196.75 145.30
  Q 194.59 145.03 194.17 142.24
  C 193.35 136.80 193.38 131.83 188.94 127.30
  Q 188.36 126.71 179.03 117.21
  Q 175.81 113.92 169.94 112.67"
/>
<path stroke="#fac93e" vector-effect="non-scaling-stroke" d="
  M 169.94 112.67
  Q 163.10 111.39 156.16 111.22
  A 13.69 13.53 51.1 0 1 153.84 110.96
  Q 146.65 109.57 141.32 109.26
  Q 141.30 109.26 141.02 109.35
  Q 140.74 109.44 140.62 109.53
  A 1.08 0.86 -53.3 0 1 139.93 109.71
  L 135.55 109.01"
/>
<path stroke="#fab43e" vector-effect="non-scaling-stroke" d="
  M 135.55 109.01
  Q 132.18 108.13 128.56 108.11
  Q 114.10 108.03 100.50 111.63
  Q 98.86 112.07 94.04 115.18
  C 88.81 118.54 82.86 120.84 78.96 123.00
  A 1.12 1.02 2.7 0 0 78.61 123.29
  L 67.77 136.47
  A 1.55 1.54 47.1 0 0 67.71 138.35
  C 70.13 141.73 74.45 144.13 76.33 147.99
  Q 79.14 153.75 78.81 159.39
  Q 78.74 160.69 79.88 164.22"
/>
<path stroke="#fac93e" vector-effect="non-scaling-stroke" d="
  M 79.88 164.22
  C 80.14 168.72 80.93 173.91 83.79 177.51
  Q 90.37 185.77 100.26 188.89
  Q 103.43 189.88 110.29 190.53
  Q 115.34 191.00 120.47 191.57"
/>
<path stroke="#898a72" vector-effect="non-scaling-stroke" d="
  M 120.47 191.57
  L 111.26 192.21"
/>
<path stroke="#d3ad83" vector-effect="non-scaling-stroke" d="
  M 111.26 192.21
  L 119.41 191.42
  A 0.14 0.14 0.0 0 0 119.54 191.27
  A 0.18 0.18 0.0 0 0 119.35 191.11
  Q 109.95 191.97 100.65 190.65
  C 95.39 189.91 89.32 190.55 83.56 189.76"
/>
<path stroke="#f6cf89" vector-effect="non-scaling-stroke" d="
  M 83.56 189.76
  Q 80.28 187.49 80.15 184.02
  Q 79.54 168.07 74.24 155.06
  Q 71.65 148.69 65.46 147.27
  Q 58.09 145.58 39.53 142.36
  A 0.33 0.33 0.0 0 1 39.43 141.75
  L 42.79 139.81
  A 1.53 1.50 -44.9 0 1 44.30 139.80
  Q 53.49 144.97 60.19 138.11
  Q 60.76 137.52 62.32 134.31
  A 7.47 7.35 82.2 0 1 64.02 132.03
  Q 66.79 129.49 73.25 123.99
  Q 75.80 121.82 82.79 118.28
  Q 84.22 117.56 88.22 114.56
  A 0.18 0.17 57.8 0 0 88.27 114.33
  L 88.26 114.32
  A 0.19 0.17 -28.0 0 0 88.02 114.26
  L 75.15 120.27"
/>
<path stroke="#e5d694" vector-effect="non-scaling-stroke" d="
  M 75.15 120.27
  Q 74.56 119.72 72.23 120.56"
/>
<path stroke="#ffa800" vector-effect="non-scaling-stroke" d="
  M 135.55 109.01
  L 117.02 108.96
  A 0.21 0.20 88.6 0 0 116.82 109.18
  L 116.82 109.19
  A 0.26 0.26 0.0 0 0 117.07 109.43
  L 135.66 109.88
  A 1.54 1.52 -25.2 0 1 136.57 110.20
  C 140.00 112.84 142.92 115.84 140.83 120.38
  C 140.00 122.18 138.32 124.99 136.50 126.19
  C 132.89 128.57 130.08 132.02 126.47 136.20
  C 124.70 138.24 121.12 141.18 119.09 141.70
  C 112.99 143.27 103.98 143.22 96.33 144.27
  C 91.28 144.97 87.58 145.63 83.85 147.49
  A 2.86 2.86 0.0 0 0 82.28 150.34
  Q 83.13 158.73 87.71 165.41
  C 89.53 168.07 91.76 174.88 87.66 176.75
  A 0.52 0.51 -20.7 0 1 86.95 176.43
  Q 86.81 175.97 86.36 175.76
  A 0.35 0.35 0.0 0 0 85.91 176.26
  L 86.92 178.01
  A 0.17 0.16 7.0 0 1 86.66 178.21
  Q 80.90 172.77 79.88 164.22"
/>
<path stroke="#fac93e" vector-effect="non-scaling-stroke" d="
  M 169.94 112.67
  Q 175.86 114.71 178.18 117.31
  Q 182.57 122.24 187.43 126.88
  C 188.72 128.12 189.91 129.80 190.88 131.22
  A 1.32 1.31 31.5 0 1 191.10 132.12
  C 190.20 139.91 188.19 146.50 189.34 155.29"
/>
<path stroke="#ffa800" vector-effect="non-scaling-stroke" d="
  M 189.34 155.29
  L 188.88 158.68
  A 8.43 8.17 46.5 0 0 188.86 160.67
  C 189.54 166.81 190.63 173.16 186.08 177.67
  C 181.67 182.02 177.61 184.01 170.74 184.81
  Q 160.35 186.02 148.80 189.30
  C 142.52 191.08 136.77 191.65 130.46 192.32"
/>
<path stroke="#8e7f34" vector-effect="non-scaling-stroke" d="
  M 130.46 192.32
  Q 125.05 192.81 120.47 191.57"
/>
<path stroke="#fab43e" vector-effect="non-scaling-stroke" d="
  M 192.44 153.21
  Q 192.16 151.67 191.52 150.55
  A 0.30 0.30 0.0 0 0 190.98 150.60
  L 189.34 155.29"
/>
<path stroke="#d4a88f" vector-effect="non-scaling-stroke" d="
  M 83.56 189.76
  L 81.54 189.62"
/>
<path stroke="#e6bda6" vector-effect="non-scaling-stroke" d="
  M 81.54 189.62
  L 67.79 187.13
  A 0.13 0.12 -80.9 0 1 67.69 186.98
  A 0.03 0.03 0.0 0 1 67.72 186.95
  L 71.83 186.99
  A 0.76 0.76 0.0 0 0 72.50 185.86
  C 70.02 181.35 70.75 176.68 72.60 171.93
  Q 74.17 167.91 73.44 164.15
  A 0.39 0.39 0.0 0 0 72.72 164.03
  L 70.08 168.60
  A 0.88 0.88 0.0 0 1 68.44 168.23
  L 68.02 163.53"
/>
<path stroke="#d4a88f" vector-effect="non-scaling-stroke" d="
  M 68.02 163.53
  C 67.93 154.01 66.27 148.77 56.21 147.13"
/>
<path stroke="#b6a8a5" vector-effect="non-scaling-stroke" d="
  M 56.21 147.13
  L 50.79 145.83"
/>
<path stroke="#d4a88f" vector-effect="non-scaling-stroke" d="
  M 50.79 145.83
  L 54.70 146.14
  A 0.40 0.34 -49.7 0 0 54.82 146.12
  Q 54.88 146.10 54.85 146.12
  A 0.33 0.28 32.1 0 1 54.62 146.15
  Q 44.47 143.75 34.21 144.74"
/>
<path stroke="#b6a8a5" vector-effect="non-scaling-stroke" d="
  M 34.21 144.74
  L 9.18 145.11
  A 0.69 0.61 48.6 0 1 9.02 145.09
  L 2.57 143.78
  A 2.47 2.47 0.0 0 1 0.63 141.80
  L 0.00 138.23"
/>
<path stroke="#e5d1a1" vector-effect="non-scaling-stroke" d="
  M 56.16 129.74
  Q 65.98 128.04 75.15 120.27"
/>
<path stroke="#717280" vector-effect="non-scaling-stroke" d="
  M 255.74 147.98
  L 252.32 144.22
  A 2.41 2.41 0.0 0 0 250.63 143.43
  Q 242.96 143.09 237.18 142.15
  C 229.95 140.97 223.74 143.57 217.31 144.78"
/>
<path stroke="#93859f" vector-effect="non-scaling-stroke" d="
  M 34.21 144.74
  Q 42.43 146.38 50.79 145.83"
/>
<path stroke="#93859f" vector-effect="non-scaling-stroke" d="
  M 56.21 147.13
  Q 56.28 147.19 56.31 147.25
  A 0.20 0.14 -22.7 0 1 56.17 147.47
  L 55.90 147.59"
/>
<path stroke="#7c8fbe" vector-effect="non-scaling-stroke" d="
  M 55.90 147.59
  Q 52.78 147.47 57.34 149.14
  C 61.56 150.68 63.87 152.45 63.70 157.23
  Q 63.37 166.22 63.05 169.95
  Q 62.74 173.54 60.57 175.40
  Q 56.54 178.84 52.82 181.85
  A 0.45 0.44 -46.7 0 0 52.84 182.56
  Q 57.14 185.57 62.00 186.71"
/>
<path stroke="#a69bb6" vector-effect="non-scaling-stroke" d="
  M 62.00 186.71
  L 64.60 188.08"
/>
<path stroke="#537296" vector-effect="non-scaling-stroke" d="
  M 64.60 188.08
  L 58.79 187.28"
/>
<path stroke="#697990" vector-effect="non-scaling-stroke" d="
  M 58.79 187.28
  L 62.08 187.43
  A 0.06 0.06 0.0 0 0 62.10 187.31
  L 46.82 184.55
  A 0.10 0.09 -52.4 0 1 46.80 184.37
  Q 47.50 184.02 49.36 184.52
  A 0.05 0.04 -62.9 0 0 49.41 184.50
  L 49.58 184.29
  A 0.31 0.31 0.0 0 0 49.39 183.79
  L 41.89 182.43
  A 0.21 0.20 77.1 0 0 41.69 182.75
  L 41.88 183.02
  A 0.19 0.19 0.0 0 1 41.71 183.33
  Q 32.64 181.74 20.68 179.08
  Q 17.62 178.40 3.46 176.92
  A 0.98 0.98 0.0 0 0 2.61 177.27
  L 0.93 179.31
  A 0.18 0.18 0.0 0 1 0.61 179.19
  Q 0.63 178.83 0.75 178.55"
/>
<path stroke="#6994c0" vector-effect="non-scaling-stroke" d="
  M 0.75 178.55
  Q 1.14 177.86 0.87 177.84"
/>
<path stroke="#7c8fbe" vector-effect="non-scaling-stroke" d="
  M 0.87 177.84
  C 7.48 173.82 15.13 173.52 21.97 175.38
  C 30.33 177.66 38.32 180.44 45.19 176.27
  C 50.76 172.89 49.95 165.12 42.70 164.96
  Q 38.33 164.87 30.90 164.90
  Q 26.34 164.91 21.78 164.45"
/>
<path stroke="#6994c0" vector-effect="non-scaling-stroke" d="
  M 21.78 164.45
  Q 13.08 163.57 4.40 165.32"
/>
<path stroke="#7c8fbe" vector-effect="non-scaling-stroke" d="
  M 4.40 165.32
  Q 3.92 164.87 3.73 164.83"
/>
<path stroke="#6994c0" vector-effect="non-scaling-stroke" d="
  M 3.73 164.83
  Q 0.72 159.96 0.00 154.20"
/>
<path stroke="#205683" vector-effect="non-scaling-stroke" d="
  M 256.00 175.24
  Q 240.91 174.12 225.88 172.36
  C 219.66 171.63 209.51 170.35 205.71 176.75
  Q 204.54 178.72 203.93 181.39"
/>
<path stroke="#264f6f" vector-effect="non-scaling-stroke" d="
  M 203.93 181.39
  L 195.69 184.45"
/>
<path stroke="#244d74" vector-effect="non-scaling-stroke" d="
  M 195.69 184.45
  L 190.55 185.70"
/>
<path stroke="#264f6f" vector-effect="non-scaling-stroke" d="
  M 190.55 185.70
  Q 191.09 184.69 190.95 183.61"
/>
<path stroke="#344463" vector-effect="non-scaling-stroke" d="
  M 190.95 183.61
  Q 191.55 182.07 191.24 180.47
  A 1.25 1.22 53.0 0 1 191.34 179.69
  L 192.02 178.22"
/>
<path stroke="#466671" vector-effect="non-scaling-stroke" d="
  M 192.02 178.22
  C 194.83 173.63 194.51 167.89 195.09 162.81"
/>
<path stroke="#345c79" vector-effect="non-scaling-stroke" d="
  M 195.09 162.81
  L 194.77 167.13
  A 0.01 0.01 0.0 0 1 194.75 167.13
  Q 194.65 166.28 194.69 166.28
  A 0.81 0.80 7.0 0 1 195.35 167.11
  Q 195.23 169.04 194.72 169.93
  A 0.65 0.64 -55.7 0 0 194.87 170.74
  L 195.16 170.98
  A 0.21 0.20 25.9 0 0 195.49 170.87
  Q 196.88 164.79 197.80 163.39
  C 201.01 158.51 206.44 150.82 197.99 148.19"
/>
<path stroke="#466671" vector-effect="non-scaling-stroke" d="
  M 197.99 148.19
  L 205.23 146.15
  A 0.02 0.02 0.0 0 0 205.22 146.11
  L 204.89 146.17
  A 0.03 0.03 0.0 0 1 204.87 146.11
  L 205.46 145.93"
/>
<path stroke="#345c79" vector-effect="non-scaling-stroke" d="
  M 207.2307 150.8405
  A 6.49 1.21 -90.7 0 0 206.1001 157.3448
  A 6.49 1.21 -90.7 0 0 207.3893 163.8195
  A 6.49 1.21 -90.7 0 0 208.5199 157.3152
  A 6.49 1.21 -90.7 0 0 207.2307 150.8405"
/>
<path stroke="#4a6473" vector-effect="non-scaling-stroke" d="
  M 197.99 148.19
  Q 194.95 154.94 195.09 162.81"
/>
<path stroke="#4a4b5d" vector-effect="non-scaling-stroke" d="
  M 192.02 178.22
  Q 193.20 174.91 193.20 171.45"
/>
<path stroke="#87797a" vector-effect="non-scaling-stroke" d="
  M 193.20 171.45
  L 194.18 160.06"
/>
<path stroke="#ae8036" vector-effect="non-scaling-stroke" d="
  M 194.18 160.06
  Q 193.76 153.75 195.82 148.23"
/>
<path stroke="#c49ba0" vector-effect="non-scaling-stroke" d="
  M 68.02 163.53
  Q 67.20 164.47 66.37 163.79"
/>
<path stroke="#9a8fa8" vector-effect="non-scaling-stroke" d="
  M 66.37 163.79
  Q 66.20 158.21 65.87 152.64
  Q 65.98 158.00 65.92 163.37
  L 65.91 163.37
  A 0.01 0.01 0.0 0 1 65.90 163.36
  Q 65.73 159.04 65.43 155.25
  Q 65.38 154.63 65.38 155.25
  Q 65.36 156.90 65.63 173.32
  A 0.22 0.22 0.0 0 1 65.41 173.55
  L 65.08 173.55
  A 0.09 0.09 0.0 0 1 64.99 173.46
  L 64.74 153.02
  A 1.81 1.80 -77.3 0 0 63.73 151.41
  L 55.90 147.59"
/>
<path stroke="#aca5be" vector-effect="non-scaling-stroke" d="
  M 66.37 163.79
  L 66.02 173.42
  A 2.52 2.38 56.0 0 1 65.91 174.08
  Q 64.66 178.19 62.78 182.01
  Q 61.67 184.25 62.00 186.71"
/>
<path stroke="#d88c45" vector-effect="non-scaling-stroke" d="
  M 194.18 160.06
  L 194.39 150.98
  A 0.21 0.21 0.0 0 0 193.97 150.92
  C 191.92 158.11 191.86 165.17 190.98 172.56"
/>
<path stroke="#ae8036" vector-effect="non-scaling-stroke" d="
  M 190.98 172.56
  Q 190.14 177.74 188.08 180.10
  Q 184.78 183.87 184.53 184.31
  A 0.29 0.28 38.4 0 1 184.08 184.36
  L 183.94 183.92
  A 0.34 0.32 -35.8 0 1 184.00 183.62
  L 186.90 180.10
  A 0.16 0.16 0.0 0 0 186.67 179.88
  L 183.52 182.40
  A 0.24 0.24 0.0 0 0 183.72 182.83
  Q 183.75 182.82 184.79 182.16
  Q 184.85 182.12 184.74 182.24
  C 181.02 186.33 174.28 188.13 168.67 190.18
  A 0.57 0.33 14.9 0 1 168.56 190.21
  L 158.86 191.84
  Q 158.83 191.84 158.81 191.84
  L 148.21 192.75"
/>
<path stroke="#8e6a34" vector-effect="non-scaling-stroke" d="
  M 148.21 192.75
  L 137.88 192.84
  Q 137.82 192.84 137.76 192.84
  L 130.46 192.32"
/>
<path stroke="#74576c" vector-effect="non-scaling-stroke" d="
  M 193.20 171.45
  Q 192.79 172.04 192.21 172.21"
/>
<path stroke="#87797a" vector-effect="non-scaling-stroke" d="
  M 192.21 172.21
  Q 191.75 171.81 190.98 172.56"
/>
<path stroke="#6f9ec8" vector-effect="non-scaling-stroke" d="
  M 3.73 164.83
  L 0.87 177.84"
/>
<path stroke="#5c889b" vector-effect="non-scaling-stroke" d="
  M 0.75 178.55
  L 0.00 164.61"
/>
<path stroke="#6f9ec8" vector-effect="non-scaling-stroke" d="
  M 21.78 164.45
  Q 13.13 165.63 4.40 165.32"
/>
<path stroke="#c49ba0" vector-effect="non-scaling-stroke" d="
  M 81.54 189.62
  L 85.70 191.17"
/>
<path stroke="#878598" vector-effect="non-scaling-stroke" d="
  M 85.70 191.17
  Q 83.61 191.59 82.21 190.81
  A 1.17 1.08 -24.2 0 0 81.82 190.68
  L 72.91 189.37"
/>
<path stroke="#838797" vector-effect="non-scaling-stroke" d="
  M 72.91 189.37
  Q 70.35 189.18 67.67 188.86
  Q 68.26 189.17 68.77 189.03
  A 0.17 0.17 0.0 0 0 68.75 188.70
  L 64.60 188.08"
/>
<path stroke="#466671" vector-effect="non-scaling-stroke" d="
  M 58.79 187.28
  Q 52.63 186.06 46.38 186.27"
/>
<path stroke="#3a556e" vector-effect="non-scaling-stroke" d="
  M 46.38 186.27
  C 39.24 185.72 33.92 185.73 28.08 188.02
  Q 26.70 188.56 18.36 191.86
  A 0.54 0.37 28.9 0 1 18.16 191.88
  Q 18.10 191.88 18.06 191.88
  A 0.05 0.05 0.0 0 1 18.04 191.78
  L 25.80 187.85"
/>
<path stroke="#466671" vector-effect="non-scaling-stroke" d="
  M 25.80 187.85
  Q 33.76 185.27 42.12 185.94
  A 0.18 0.18 0.0 0 0 42.31 185.78
  L 42.34 185.48
  A 0.18 0.17 -83.5 0 0 42.19 185.28
  L 29.92 183.97
  A 2.24 2.22 31.6 0 0 28.50 184.30
  Q 26.58 185.52 21.39 186.60
  Q 13.45 188.25 5.84 187.75
  Q 3.37 187.59 0.00 189.41"
/>
<path stroke="#16477b" vector-effect="non-scaling-stroke" d="
  M 256.00 189.97
  Q 241.11 192.76 226.05 194.20
  C 215.93 195.16 203.67 195.68 203.93 181.39"
/>
<path stroke="#4a4b5d" vector-effect="non-scaling-stroke" d="
  M 192.21 172.21
  Q 191.94 173.07 191.16 176.43
  Q 190.07 181.11 185.48 184.99
  C 183.38 186.77 179.74 187.44 177.30 189.45
  A 2.42 2.34 18.5 0 1 176.27 189.94
  L 167.47 191.79"
/>
<path stroke="#3c5769" vector-effect="non-scaling-stroke" d="
  M 167.47 191.79
  L 148.21 192.75"
/>
<path stroke="#2a355b" vector-effect="non-scaling-stroke" d="
  M 190.95 183.61
  L 190.51 184.19
  A 0.31 0.28 50.2 0 1 190.02 184.12
  Q 189.99 184.06 190.02 183.94
  A 0.38 0.38 0.0 0 0 189.46 183.51
  Q 187.02 184.91 183.69 187.62
  C 177.07 193.02 165.21 193.36 156.01 193.25
  A 0.19 0.18 0.0 0 1 155.82 193.07
  L 155.82 193.06
  A 0.17 0.16 -4.1 0 1 155.97 192.90
  L 167.47 191.79"
/>
<path stroke="#2a355b" vector-effect="non-scaling-stroke" d="
  M 256.00 225.67
  C 251.90 225.59 225.46 225.19 225.70 231.79
  C 225.98 239.16 251.27 239.71 256.00 239.67"
/>
<path stroke="#2a4d71" vector-effect="non-scaling-stroke" d="
  M 149.90 256.00
  C 150.25 242.28 157.93 240.41 168.40 235.16
  Q 175.79 231.45 175.21 224.77
  C 174.27 213.82 158.84 209.97 150.56 208.62
  Q 137.98 206.56 122.99 206.95
  Q 103.63 207.44 84.16 207.24"
/>
<path stroke="#264f6f" vector-effect="non-scaling-stroke" d="
  M 84.16 207.24
  L 80.82 208.42"
/>
<path stroke="#1a3e6c" vector-effect="non-scaling-stroke" d="
  M 80.82 208.42
  Q 85.10 204.76 92.64 204.48
  C 97.66 204.30 112.81 203.79 114.56 199.79
  A 1.45 1.35 27.8 0 0 113.95 198.05
  Q 111.91 196.79 109.15 196.14
  Q 99.92 193.94 90.44 192.71"
/>
<path stroke="#2a4d71" vector-effect="non-scaling-stroke" d="
  M 90.44 192.71
  L 106.16 193.07
  A 0.15 0.14 -90.0 0 0 106.30 192.92
  A 0.17 0.17 0.0 0 0 106.14 192.74
  C 99.63 192.66 93.13 192.49 86.64 191.88
  Q 88.82 191.74 90.99 191.53"
/>
<path stroke="#676378" vector-effect="non-scaling-stroke" d="
  M 90.99 191.53
  L 111.26 192.21"
/>
<path stroke="#1a3e6c" vector-effect="non-scaling-stroke" d="
  M 190.55 185.70
  L 188.95 189.73
  A 0.74 0.74 0.0 0 0 189.71 190.74
  C 191.73 190.52 194.71 186.02 195.69 184.45"
/>
<path stroke="#244d74" vector-effect="non-scaling-stroke" d="
  M 25.80 187.85
  Q 19.38 189.49 12.97 191.02
  Q 9.27 191.90 0.00 191.82"
/>
<path stroke="#244d74" vector-effect="non-scaling-stroke" d="
  M 46.38 186.27
  C 53.52 188.78 61.36 189.45 68.87 189.91"
/>
<path stroke="#274b76" vector-effect="non-scaling-stroke" d="
  M 68.87 189.91
  Q 79.58 192.23 90.44 192.71"
/>
<path stroke="#244d74" vector-effect="non-scaling-stroke" d="
  M 80.82 208.42
  Q 73.43 214.93 63.92 214.20
  Q 61.87 214.05 55.59 212.23
  A 1.18 1.16 -52.5 0 0 54.66 212.36
  Q 52.38 213.78 50.77 216.15"
/>
<path stroke="#1a3e6c" vector-effect="non-scaling-stroke" d="
  M 50.77 216.15
  C 47.75 222.59 45.19 231.12 52.32 235.91"
/>
<path stroke="#244d74" vector-effect="non-scaling-stroke" d="
  M 52.32 235.91
  L 54.34 236.50"
/>
<path stroke="#274b76" vector-effect="non-scaling-stroke" d="
  M 54.34 236.50
  C 60.57 239.94 65.04 242.64 69.86 247.42
  A 3.62 3.60 10.5 0 1 70.64 248.55
  L 70.96 249.28
  A 0.46 0.45 75.2 0 1 70.59 249.92
  Q 70.24 249.96 69.70 250.32
  A 0.67 0.66 64.5 0 0 69.43 251.10
  C 70.59 254.37 65.77 255.27 63.74 256.00"
/>
<path stroke="#345c79" vector-effect="non-scaling-stroke" d="
  M 72.91 189.37
  Q 75.16 190.44 77.86 190.37
  Q 73.40 190.62 68.87 189.91"
/>
<path stroke="#747082" vector-effect="non-scaling-stroke" d="
  M 85.70 191.17
  Q 91.14 191.22 97.61 191.38
  Q 97.62 191.38 97.61 191.38
  L 90.99 191.53"
/>
<path stroke="#345c79" vector-effect="non-scaling-stroke" d="
  M 54.34 236.50
  C 48.37 230.63 49.96 220.46 53.72 213.86
  A 1.37 1.37 0.0 0 1 55.27 213.22
  Q 59.98 214.55 63.83 215.21
  C 71.53 216.54 78.81 212.65 84.16 207.24"
/>
<path stroke="#345c79" vector-effect="non-scaling-stroke" d="
  M 79.28 243.85
  Q 71.02 244.34 64.72 238.90
  A 0.21 0.21 0.0 0 0 64.43 238.91
  L 64.42 238.92
  A 0.21 0.21 0.0 0 0 64.41 239.21
  Q 70.13 246.07 78.82 246.28"
/>
<path stroke="#4a6473" vector-effect="non-scaling-stroke" d="
  M 78.82 246.28
  C 84.87 243.75 85.77 238.88 82.94 233.58
  C 79.44 227.05 75.73 218.09 84.40 213.81
  Q 87.49 212.28 90.59 212.15
  A 0.32 0.32 0.0 0 0 90.81 211.62
  Q 90.18 210.92 89.12 210.93
  C 84.64 210.99 81.99 211.76 77.75 214.35
  C 73.69 216.83 68.23 219.32 63.81 217.78
  Q 62.08 217.18 55.95 214.42
  A 0.82 0.81 -60.6 0 0 54.94 214.71
  C 51.44 219.90 48.91 231.00 55.91 234.48
  Q 65.99 239.49 68.20 240.69
  A 15.79 15.63 -23.9 0 0 72.06 242.16
  L 79.28 243.85"
/>
<path stroke="#466671" vector-effect="non-scaling-stroke" d="
  M 78.82 246.28
  Q 79.63 244.98 79.28 243.85"
/>
<path stroke="#264f6f" vector-effect="non-scaling-stroke" d="
  M 52.32 235.91
  C 47.82 230.37 49.45 222.23 50.77 216.15"
/>
</g>
<path fill="#61bbfa" d="
  M 184.89 0.00
  Q 182.26 8.84 181.69 12.72
  Q 178.40 35.09 195.17 50.76
  Q 199.41 54.72 205.28 59.73
  C 209.76 63.56 214.69 68.99 211.74 75.03
  Q 209.61 79.37 208.02 80.91
  Q 202.10 86.66 197.60 93.62
  L 160.09 83.16
  C 148.64 79.92 137.55 75.08 127.88 68.16
  Q 124.37 65.65 118.27 61.47
  C 104.95 52.33 89.68 49.77 73.22 50.94
  C 63.92 51.60 48.80 54.11 36.33 53.71
  Q 11.32 52.90 0.00 52.99
  L 0.00 0.00
  L 184.89 0.00
  Z"
/>
<path fill="#51aaea" d="
  M 237.74 0.00
  L 227.78 0.68
  A 1.72 1.72 0.0 0 0 226.19 2.15
  C 224.69 12.63 222.19 23.80 213.38 30.31
  Q 210.10 32.73 206.93 34.65
  C 198.77 39.60 204.03 44.76 209.25 48.73
  Q 209.91 49.24 226.70 61.06
  Q 231.48 64.42 242.20 74.14
  Q 241.20 84.17 242.75 94.43
  Q 234.44 97.41 225.99 99.32
  Q 221.80 100.27 218.33 99.89
  A 1.27 1.27 0.0 0 1 217.21 98.49
  L 217.27 97.88
  A 1.66 1.65 3.3 0 0 215.63 96.05
  L 201.30 95.99
  L 197.60 93.62
  Q 202.10 86.66 208.02 80.91
  Q 209.61 79.37 211.74 75.03
  C 214.69 68.99 209.76 63.56 205.28 59.73
  Q 199.41 54.72 195.17 50.76
  Q 178.40 35.09 181.69 12.72
  Q 182.26 8.84 184.89 0.00
  L 237.74 0.00
  Z"
/>
<path fill="#4097de" d="
  M 256.00 0.00
  L 256.00 59.25
  C 248.18 61.47 241.71 64.59 242.20 74.14
  Q 231.48 64.42 226.70 61.06
  Q 209.91 49.24 209.25 48.73
  C 204.03 44.76 198.77 39.60 206.93 34.65
  Q 210.10 32.73 213.38 30.31
  C 222.19 23.80 224.69 12.63 226.19 2.15
  A 1.72 1.72 0.0 0 1 227.78 0.68
  L 237.74 0.00
  L 256.00 0.00
  Z"
/>
<path fill="#76cdfe" d="
  M 160.09 83.16
  L 152.70 84.89
  Q 150.14 84.67 148.08 85.32
  A 0.66 0.66 0.0 0 0 148.07 86.57
  L 156.93 89.50
  Q 155.25 89.60 154.81 90.38
  Q 144.51 89.06 134.11 89.39
  Q 132.80 89.43 132.69 90.39
  Q 131.73 90.51 131.08 91.07
  A 1.22 1.19 73.1 0 0 130.67 91.86
  L 130.45 93.78
  C 116.31 92.53 103.73 95.40 90.50 99.98
  Q 92.40 98.34 93.38 96.62
  A 1.06 1.05 -71.5 0 0 92.60 95.05
  L 84.30 93.98
  Q 79.14 91.89 75.81 91.85
  Q 64.44 91.69 58.08 90.91
  Q 48.09 89.69 37.82 84.28
  Q 24.82 77.44 21.30 75.73
  Q 12.45 71.45 0.00 68.27
  L 0.00 52.99
  Q 11.32 52.90 36.33 53.71
  C 48.80 54.11 63.92 51.60 73.22 50.94
  C 89.68 49.77 104.95 52.33 118.27 61.47
  Q 124.37 65.65 127.88 68.16
  C 137.55 75.08 148.64 79.92 160.09 83.16
  Z"
/>
<path fill="#5ca2ca" d="
  M 256.00 59.25
  L 256.00 65.72
  L 255.78 97.79
  L 242.75 94.43
  Q 241.20 84.17 242.20 74.14
  C 241.71 64.59 248.18 61.47 256.00 59.25
  Z"
/>
<path fill="#61bbfa" d="
  M 256.00 65.72
  L 256.00 149.49
  L 255.74 147.98
  Q 255.78 139.96 255.71 132.00
  Q 255.67 127.81 255.00 123.73
  L 255.78 97.79
  L 256.00 65.72
  Z"
/>
<path fill="#99d0f3" d="
  M 84.30 93.98
  Q 83.31 94.22 82.36 94.68
  Q 82.03 94.84 80.92 96.05
  Q 80.11 96.92 78.37 97.00
  Q 65.75 97.59 52.75 98.53
  Q 50.69 98.68 45.11 98.20
  A 0.20 0.19 7.9 0 1 44.93 97.97
  L 44.98 97.70
  A 0.07 0.07 0.0 0 1 45.05 97.64
  Q 55.39 97.59 65.20 96.52
  Q 65.24 96.51 65.22 96.44
  A 0.15 0.14 -7.9 0 0 65.08 96.34
  Q 48.35 96.77 44.60 96.50
  Q 30.98 95.54 24.94 96.54
  Q 24.23 96.66 22.51 96.54
  C 14.95 96.01 7.60 94.93 0.00 95.10
  L 0.00 68.27
  Q 12.45 71.45 21.30 75.73
  Q 24.82 77.44 37.82 84.28
  Q 48.09 89.69 58.08 90.91
  Q 64.44 91.69 75.81 91.85
  Q 79.14 91.89 84.30 93.98
  Z"
/>
<path fill="#76cdfe" d="
  M 197.60 93.62
  L 201.30 95.99
  C 193.02 95.88 185.43 93.32 177.00 90.37
  Q 172.15 88.67 153.62 85.50
  Q 153.54 85.18 152.70 84.89
  L 160.09 83.16
  L 197.60 93.62
  Z"
/>
<path fill="#99d0f3" d="
  M 152.70 84.89
  Q 153.54 85.18 153.62 85.50
  Q 158.27 88.30 156.93 89.50
  L 148.07 86.57
  A 0.66 0.66 0.0 0 1 148.08 85.32
  Q 150.14 84.67 152.70 84.89
  Z"
/>
<path fill="#85b2cb" d="
  M 153.62 85.50
  Q 172.15 88.67 177.00 90.37
  C 185.43 93.32 193.02 95.88 201.30 95.99
  L 215.63 96.05
  A 1.66 1.65 3.3 0 1 217.27 97.88
  L 217.21 98.49
  A 1.27 1.27 0.0 0 0 218.33 99.89
  Q 221.80 100.27 225.99 99.32
  Q 234.44 97.41 242.75 94.43
  L 255.78 97.79
  L 255.00 123.73
  Q 250.03 127.62 243.63 128.39
  Q 239.48 128.90 236.13 129.07
  Q 227.41 127.80 219.57 126.51
  Q 213.74 125.55 211.17 123.88
  C 206.63 120.91 205.47 115.26 204.94 109.86
  C 204.24 100.68 196.78 97.85 188.78 97.96
  L 184.73 98.65
  L 182.28 98.22
  Q 174.91 95.83 172.77 95.47
  Q 165.47 94.25 158.30 92.58
  Q 158.07 91.71 155.24 91.10
  L 154.81 90.38
  Q 155.25 89.60 156.93 89.50
  Q 158.27 88.30 153.62 85.50
  Z"
/>
<path fill="#99d0f3" d="
  M 154.81 90.38
  L 155.24 91.10
  L 132.69 90.39
  Q 132.80 89.43 134.11 89.39
  Q 144.51 89.06 154.81 90.38
  Z"
/>
<path fill="#d2e2e6" d="
  M 132.69 90.39
  L 155.24 91.10
  Q 158.07 91.71 158.30 92.58
  Q 144.52 94.82 130.45 93.78
  L 130.67 91.86
  A 1.22 1.19 73.1 0 1 131.08 91.07
  Q 131.73 90.51 132.69 90.39
  Z"
/>
<path fill="#d4d7ac" d="
  M 158.30 92.58
  Q 165.47 94.25 172.77 95.47
  Q 174.91 95.83 182.28 98.22
  L 181.09 98.47
  C 174.96 98.57 167.90 97.56 162.86 97.64
  C 156.66 97.74 151.48 97.21 145.26 97.62
  C 138.73 98.06 134.71 98.04 129.18 97.69
  Q 124.18 97.38 119.63 98.44
  A 0.18 0.18 0.0 0 0 119.65 98.80
  Q 130.49 99.69 140.73 99.15
  A 0.24 0.24 0.0 0 1 140.98 99.39
  L 140.98 99.69
  A 0.27 0.26 -2.4 0 1 140.73 99.95
  L 120.70 100.97
  Q 117.74 99.68 113.46 100.57
  Q 104.65 102.41 94.51 102.32
  Q 92.59 101.75 90.55 101.95
  A 0.69 0.68 13.5 0 1 89.90 100.90
  L 90.50 99.98
  C 103.73 95.40 116.31 92.53 130.45 93.78
  Q 144.52 94.82 158.30 92.58
  Z"
/>
<path fill="#d2e2e6" d="
  M 90.50 99.98
  L 89.90 100.90
  A 0.69 0.68 13.5 0 0 90.55 101.95
  Q 92.59 101.75 94.51 102.32
  Q 89.16 104.19 85.76 107.26
  Q 82.99 109.76 75.47 117.45
  Q 73.99 118.95 72.23 120.56
  L 56.16 129.74
  Q 48.38 130.89 45.85 130.92
  Q 39.81 131.00 35.62 131.26
  Q 28.70 131.71 25.41 131.67
  Q 12.73 131.55 0.00 132.06
  L 0.00 95.10
  C 7.60 94.93 14.95 96.01 22.51 96.54
  Q 24.23 96.66 24.94 96.54
  Q 30.98 95.54 44.60 96.50
  Q 48.35 96.77 65.08 96.34
  A 0.15 0.14 -7.9 0 1 65.22 96.44
  Q 65.24 96.51 65.20 96.52
  Q 55.39 97.59 45.05 97.64
  A 0.07 0.07 0.0 0 0 44.98 97.70
  L 44.93 97.97
  A 0.20 0.19 7.9 0 0 45.11 98.20
  Q 50.69 98.68 52.75 98.53
  Q 65.75 97.59 78.37 97.00
  Q 80.11 96.92 80.92 96.05
  Q 82.03 94.84 82.36 94.68
  Q 83.31 94.22 84.30 93.98
  L 92.60 95.05
  A 1.06 1.05 -71.5 0 1 93.38 96.62
  Q 92.40 98.34 90.50 99.98
  Z"
/>
<path fill="#f6ca95" d="
  M 181.09 98.47
  Q 183.29 99.17 184.29 100.72
  Q 186.55 104.20 188.70 109.23
  L 195.31 122.22
  Q 200.72 126.06 205.62 130.61
  C 209.25 133.98 210.63 138.94 211.55 143.50
  A 0.86 0.86 0.0 0 1 210.70 144.53
  Q 204.24 144.48 198.30 146.41
  L 197.76 146.53
  A 0.74 0.74 0.0 0 0 197.20 147.15
  Q 197.07 148.18 195.82 148.23
  Q 192.81 151.18 191.88 156.58
  Q 191.88 156.60 191.88 156.59
  Q 191.87 156.58 191.87 156.57
  A 0.09 0.04 67.5 0 1 191.87 156.51
  L 192.44 153.21
  L 196.75 145.30
  C 199.55 135.86 196.18 130.48 190.77 123.43
  C 187.02 118.54 184.53 114.55 180.10 111.97
  Q 177.50 110.47 171.57 108.88
  Q 150.02 103.13 128.58 102.49
  Q 125.56 102.40 120.70 100.97
  L 140.73 99.95
  A 0.27 0.26 -2.4 0 0 140.98 99.69
  L 140.98 99.39
  A 0.24 0.24 0.0 0 0 140.73 99.15
  Q 130.49 99.69 119.65 98.80
  A 0.18 0.18 0.0 0 1 119.63 98.44
  Q 124.18 97.38 129.18 97.69
  C 134.71 98.04 138.73 98.06 145.26 97.62
  C 151.48 97.21 156.66 97.74 162.86 97.64
  C 167.90 97.56 174.96 98.57 181.09 98.47
  Z"
/>
<path fill="#99d0f3" d="
  M 204.94 109.86
  L 204.50 116.14
  L 204.74 119.39
  L 203.23 116.76
  C 202.67 108.29 201.31 100.92 191.84 98.58
  L 188.78 97.96
  C 196.78 97.85 204.24 100.68 204.94 109.86
  Z"
/>
<path fill="#d4d7ac" d="
  M 188.78 97.96
  L 191.84 98.58
  L 186.81 98.42
  A 0.12 0.11 50.4 0 0 186.79 98.65
  L 193.92 99.94
  A 1.08 1.07 -3.1 0 1 194.75 100.68
  L 199.95 117.71
  Q 202.30 123.75 207.83 126.91
  Q 214.70 130.82 222.32 133.20
  A 0.39 0.39 0.0 0 1 222.17 133.96
  C 218.13 133.59 214.67 132.34 210.70 129.97
  Q 206.67 127.58 202.92 126.15
  A 4.57 4.56 -14.1 0 1 201.53 125.32
  C 196.59 120.96 194.46 114.34 191.49 105.01
  Q 190.13 100.75 184.73 98.65
  L 188.78 97.96
  Z"
/>
<path fill="#d6b0b6" d="
  M 182.28 98.22
  L 184.73 98.65
  Q 190.13 100.75 191.49 105.01
  C 194.46 114.34 196.59 120.96 201.53 125.32
  A 4.57 4.56 -14.1 0 0 202.92 126.15
  Q 206.67 127.58 210.70 129.97
  C 214.67 132.34 218.13 133.59 222.17 133.96
  A 0.39 0.39 0.0 0 0 222.32 133.20
  Q 214.70 130.82 207.83 126.91
  Q 202.30 123.75 199.95 117.71
  Q 201.35 118.78 202.71 119.22
  A 0.48 0.47 15.0 0 0 203.32 118.87
  Q 203.53 117.91 203.23 116.76
  L 204.74 119.39
  Q 207.96 124.65 213.00 126.24
  Q 222.01 129.08 233.66 129.47
  A 0.24 0.24 0.0 0 0 233.91 129.25
  L 233.91 129.24
  A 0.25 0.25 0.0 0 0 233.69 128.98
  Q 225.44 128.02 215.00 125.64
  Q 207.34 123.89 204.50 116.14
  L 204.94 109.86
  C 205.47 115.26 206.63 120.91 211.17 123.88
  Q 213.74 125.55 219.57 126.51
  Q 227.41 127.80 236.13 129.07
  Q 230.97 132.99 225.12 139.58
  Q 222.44 142.60 217.31 144.78
  Q 211.52 146.76 205.46 145.93
  Q 207.83 145.45 210.36 145.63
  Q 204.22 145.31 198.30 146.41
  Q 204.24 144.48 210.70 144.53
  A 0.86 0.86 0.0 0 0 211.55 143.50
  C 210.63 138.94 209.25 133.98 205.62 130.61
  Q 200.72 126.06 195.31 122.22
  Q 194.72 114.81 188.70 109.23
  Q 186.55 104.20 184.29 100.72
  Q 183.29 99.17 181.09 98.47
  L 182.28 98.22
  Z"
/>
<path fill="#d2e2e6" d="
  M 191.84 98.58
  C 201.31 100.92 202.67 108.29 203.23 116.76
  Q 203.53 117.91 203.32 118.87
  A 0.48 0.47 15.0 0 1 202.71 119.22
  Q 201.35 118.78 199.95 117.71
  L 194.75 100.68
  A 1.08 1.07 -3.1 0 0 193.92 99.94
  L 186.79 98.65
  A 0.12 0.11 50.4 0 1 186.81 98.42
  L 191.84 98.58
  Z"
/>
<path fill="#f5d47c" d="
  M 120.70 100.97
  Q 125.56 102.40 128.58 102.49
  Q 150.02 103.13 171.57 108.88
  Q 177.50 110.47 180.10 111.97
  C 184.53 114.55 187.02 118.54 190.77 123.43
  C 196.18 130.48 199.55 135.86 196.75 145.30
  Q 194.59 145.03 194.17 142.24
  C 193.35 136.80 193.38 131.83 188.94 127.30
  Q 188.36 126.71 179.03 117.21
  Q 175.81 113.92 169.94 112.67
  Q 163.10 111.39 156.16 111.22
  A 13.69 13.53 51.1 0 1 153.84 110.96
  Q 146.65 109.57 141.32 109.26
  Q 141.30 109.26 141.02 109.35
  Q 140.74 109.44 140.62 109.53
  A 1.08 0.86 -53.3 0 1 139.93 109.71
  L 135.55 109.01
  Q 132.18 108.13 128.56 108.11
  Q 114.10 108.03 100.50 111.63
  Q 98.86 112.07 94.04 115.18
  C 88.81 118.54 82.86 120.84 78.96 123.00
  A 1.12 1.02 2.7 0 0 78.61 123.29
  L 67.77 136.47
  A 1.55 1.54 47.1 0 0 67.71 138.35
  C 70.13 141.73 74.45 144.13 76.33 147.99
  Q 79.14 153.75 78.81 159.39
  Q 78.74 160.69 79.88 164.22
  C 80.14 168.72 80.93 173.91 83.79 177.51
  Q 90.37 185.77 100.26 188.89
  Q 103.43 189.88 110.29 190.53
  Q 115.34 191.00 120.47 191.57
  L 111.26 192.21
  L 119.41 191.42
  A 0.14 0.14 0.0 0 0 119.54 191.27
  A 0.18 0.18 0.0 0 0 119.35 191.11
  Q 109.95 191.97 100.65 190.65
  C 95.39 189.91 89.32 190.55 83.56 189.76
  Q 80.28 187.49 80.15 184.02
  Q 79.54 168.07 74.24 155.06
  Q 71.65 148.69 65.46 147.27
  Q 58.09 145.58 39.53 142.36
  A 0.33 0.33 0.0 0 1 39.43 141.75
  L 42.79 139.81
  A 1.53 1.50 -44.9 0 1 44.30 139.80
  Q 53.49 144.97 60.19 138.11
  Q 60.76 137.52 62.32 134.31
  A 7.47 7.35 82.2 0 1 64.02 132.03
  Q 66.79 129.49 73.25 123.99
  Q 75.80 121.82 82.79 118.28
  Q 84.22 117.56 88.22 114.56
  A 0.18 0.17 57.8 0 0 88.27 114.33
  L 88.26 114.32
  A 0.19 0.17 -28.0 0 0 88.02 114.26
  L 75.15 120.27
  Q 74.56 119.72 72.23 120.56
  Q 73.99 118.95 75.47 117.45
  Q 82.99 109.76 85.76 107.26
  Q 89.16 104.19 94.51 102.32
  Q 104.65 102.41 113.46 100.57
  Q 117.74 99.68 120.70 100.97
  Z"
/>
<path fill="#ff9300" d="
  M 135.55 109.01
  L 117.02 108.96
  A 0.21 0.20 88.6 0 0 116.82 109.18
  L 116.82 109.19
  A 0.26 0.26 0.0 0 0 117.07 109.43
  L 135.66 109.88
  A 1.54 1.52 -25.2 0 1 136.57 110.20
  C 140.00 112.84 142.92 115.84 140.83 120.38
  C 140.00 122.18 138.32 124.99 136.50 126.19
  C 132.89 128.57 130.08 132.02 126.47 136.20
  C 124.70 138.24 121.12 141.18 119.09 141.70
  C 112.99 143.27 103.98 143.22 96.33 144.27
  C 91.28 144.97 87.58 145.63 83.85 147.49
  A 2.86 2.86 0.0 0 0 82.28 150.34
  Q 83.13 158.73 87.71 165.41
  C 89.53 168.07 91.76 174.88 87.66 176.75
  A 0.52 0.51 -20.7 0 1 86.95 176.43
  Q 86.81 175.97 86.36 175.76
  A 0.35 0.35 0.0 0 0 85.91 176.26
  L 86.92 178.01
  A 0.17 0.16 7.0 0 1 86.66 178.21
  Q 80.90 172.77 79.88 164.22
  Q 78.74 160.69 78.81 159.39
  Q 79.14 153.75 76.33 147.99
  C 74.45 144.13 70.13 141.73 67.71 138.35
  A 1.55 1.54 47.1 0 1 67.77 136.47
  L 78.61 123.29
  A 1.12 1.02 2.7 0 1 78.96 123.00
  C 82.86 120.84 88.81 118.54 94.04 115.18
  Q 98.86 112.07 100.50 111.63
  Q 114.10 108.03 128.56 108.11
  Q 132.18 108.13 135.55 109.01
  Z"
/>
<path fill="#ffbd00" d="
  M 135.55 109.01
  L 139.93 109.71
  A 1.08 0.86 -53.3 0 0 140.62 109.53
  Q 140.74 109.44 141.02 109.35
  Q 141.30 109.26 141.32 109.26
  Q 146.65 109.57 153.84 110.96
  A 13.69 13.53 51.1 0 0 156.16 111.22
  Q 163.10 111.39 169.94 112.67
  Q 175.86 114.71 178.18 117.31
  Q 182.57 122.24 187.43 126.88
  C 188.72 128.12 189.91 129.80 190.88 131.22
  A 1.32 1.31 31.5 0 1 191.10 132.12
  C 190.20 139.91 188.19 146.50 189.34 155.29
  L 188.88 158.68
  A 8.43 8.17 46.5 0 0 188.86 160.67
  C 189.54 166.81 190.63 173.16 186.08 177.67
  C 181.67 182.02 177.61 184.01 170.74 184.81
  Q 160.35 186.02 148.80 189.30
  C 142.52 191.08 136.77 191.65 130.46 192.32
  Q 125.05 192.81 120.47 191.57
  Q 115.34 191.00 110.29 190.53
  Q 103.43 189.88 100.26 188.89
  Q 90.37 185.77 83.79 177.51
  C 80.93 173.91 80.14 168.72 79.88 164.22
  Q 80.90 172.77 86.66 178.21
  A 0.17 0.16 7.0 0 0 86.92 178.01
  L 85.91 176.26
  A 0.35 0.35 0.0 0 1 86.36 175.76
  Q 86.81 175.97 86.95 176.43
  A 0.52 0.51 -20.7 0 0 87.66 176.75
  C 91.76 174.88 89.53 168.07 87.71 165.41
  Q 83.13 158.73 82.28 150.34
  A 2.86 2.86 0.0 0 1 83.85 147.49
  C 87.58 145.63 91.28 144.97 96.33 144.27
  C 103.98 143.22 112.99 143.27 119.09 141.70
  C 121.12 141.18 124.70 138.24 126.47 136.20
  C 130.08 132.02 132.89 128.57 136.50 126.19
  C 138.32 124.99 140.00 122.18 140.83 120.38
  C 142.92 115.84 140.00 112.84 136.57 110.20
  A 1.54 1.52 -25.2 0 0 135.66 109.88
  L 117.07 109.43
  A 0.26 0.26 0.0 0 1 116.82 109.19
  L 116.82 109.18
  A 0.21 0.20 88.6 0 1 117.02 108.96
  L 135.55 109.01
  Z"
/>
<path fill="#d4d7ac" d="
  M 195.31 122.22
  L 188.70 109.23
  Q 194.72 114.81 195.31 122.22
  Z"
/>
<path fill="#f5d47c" d="
  M 196.75 145.30
  L 192.44 153.21
  Q 192.16 151.67 191.52 150.55
  A 0.30 0.30 0.0 0 0 190.98 150.60
  L 189.34 155.29
  C 188.19 146.50 190.20 139.91 191.10 132.12
  A 1.32 1.31 31.5 0 0 190.88 131.22
  C 189.91 129.80 188.72 128.12 187.43 126.88
  Q 182.57 122.24 178.18 117.31
  Q 175.86 114.71 169.94 112.67
  Q 175.81 113.92 179.03 117.21
  Q 188.36 126.71 188.94 127.30
  C 193.38 131.83 193.35 136.80 194.17 142.24
  Q 194.59 145.03 196.75 145.30
  Z"
/>
<path fill="#f6ca95" d="
  M 83.56 189.76
  L 81.54 189.62
  L 67.79 187.13
  A 0.13 0.12 -80.9 0 1 67.69 186.98
  A 0.03 0.03 0.0 0 1 67.72 186.95
  L 71.83 186.99
  A 0.76 0.76 0.0 0 0 72.50 185.86
  C 70.02 181.35 70.75 176.68 72.60 171.93
  Q 74.17 167.91 73.44 164.15
  A 0.39 0.39 0.0 0 0 72.72 164.03
  L 70.08 168.60
  A 0.88 0.88 0.0 0 1 68.44 168.23
  L 68.02 163.53
  C 67.93 154.01 66.27 148.77 56.21 147.13
  L 50.79 145.83
  L 54.70 146.14
  A 0.40 0.34 -49.7 0 0 54.82 146.12
  Q 54.88 146.10 54.85 146.12
  A 0.33 0.28 32.1 0 1 54.62 146.15
  Q 44.47 143.75 34.21 144.74
  L 9.18 145.11
  A 0.69 0.61 48.6 0 1 9.02 145.09
  L 2.57 143.78
  A 2.47 2.47 0.0 0 1 0.63 141.80
  L 0.00 138.23
  L 0.00 132.06
  Q 12.73 131.55 25.41 131.67
  Q 28.70 131.71 35.62 131.26
  Q 39.81 131.00 45.85 130.92
  Q 48.38 130.89 56.16 129.74
  Q 65.98 128.04 75.15 120.27
  L 88.02 114.26
  A 0.19 0.17 -28.0 0 1 88.26 114.32
  L 88.27 114.33
  A 0.18 0.17 57.8 0 1 88.22 114.56
  Q 84.22 117.56 82.79 118.28
  Q 75.80 121.82 73.25 123.99
  Q 66.79 129.49 64.02 132.03
  A 7.47 7.35 82.2 0 0 62.32 134.31
  Q 60.76 137.52 60.19 138.11
  Q 53.49 144.97 44.30 139.80
  A 1.53 1.50 -44.9 0 0 42.79 139.81
  L 39.43 141.75
  A 0.33 0.33 0.0 0 0 39.53 142.36
  Q 58.09 145.58 65.46 147.27
  Q 71.65 148.69 74.24 155.06
  Q 79.54 168.07 80.15 184.02
  Q 80.28 187.49 83.56 189.76
  Z"
/>
<path fill="#85b2cb" d="
  M 204.74 119.39
  L 204.50 116.14
  Q 207.34 123.89 215.00 125.64
  Q 225.44 128.02 233.69 128.98
  A 0.25 0.25 0.0 0 1 233.91 129.24
  L 233.91 129.25
  A 0.24 0.24 0.0 0 1 233.66 129.47
  Q 222.01 129.08 213.00 126.24
  Q 207.96 124.65 204.74 119.39
  Z"
/>
<path fill="#d4d7ac" d="
  M 75.15 120.27
  Q 65.98 128.04 56.16 129.74
  L 72.23 120.56
  Q 74.56 119.72 75.15 120.27
  Z"
/>
<path fill="#b18589" d="
  M 255.00 123.73
  Q 255.67 127.81 255.71 132.00
  Q 255.78 139.96 255.74 147.98
  L 252.32 144.22
  A 2.41 2.41 0.0 0 0 250.63 143.43
  Q 242.96 143.09 237.18 142.15
  C 229.95 140.97 223.74 143.57 217.31 144.78
  Q 222.44 142.60 225.12 139.58
  Q 230.97 132.99 236.13 129.07
  Q 239.48 128.90 243.63 128.39
  Q 250.03 127.62 255.00 123.73
  Z"
/>
<path fill="#7585b5" d="
  M 34.21 144.74
  Q 42.43 146.38 50.79 145.83
  L 56.21 147.13
  Q 56.28 147.19 56.31 147.25
  A 0.20 0.14 -22.7 0 1 56.17 147.47
  L 55.90 147.59
  Q 52.78 147.47 57.34 149.14
  C 61.56 150.68 63.87 152.45 63.70 157.23
  Q 63.37 166.22 63.05 169.95
  Q 62.74 173.54 60.57 175.40
  Q 56.54 178.84 52.82 181.85
  A 0.45 0.44 -46.7 0 0 52.84 182.56
  Q 57.14 185.57 62.00 186.71
  L 64.60 188.08
  L 58.79 187.28
  L 62.08 187.43
  A 0.06 0.06 0.0 0 0 62.10 187.31
  L 46.82 184.55
  A 0.10 0.09 -52.4 0 1 46.80 184.37
  Q 47.50 184.02 49.36 184.52
  A 0.05 0.04 -62.9 0 0 49.41 184.50
  L 49.58 184.29
  A 0.31 0.31 0.0 0 0 49.39 183.79
  L 41.89 182.43
  A 0.21 0.20 77.1 0 0 41.69 182.75
  L 41.88 183.02
  A 0.19 0.19 0.0 0 1 41.71 183.33
  Q 32.64 181.74 20.68 179.08
  Q 17.62 178.40 3.46 176.92
  A 0.98 0.98 0.0 0 0 2.61 177.27
  L 0.93 179.31
  A 0.18 0.18 0.0 0 1 0.61 179.19
  Q 0.63 178.83 0.75 178.55
  Q 1.14 177.86 0.87 177.84
  C 7.48 173.82 15.13 173.52 21.97 175.38
  C 30.33 177.66 38.32 180.44 45.19 176.27
  C 50.76 172.89 49.95 165.12 42.70 164.96
  Q 38.33 164.87 30.90 164.90
  Q 26.34 164.91 21.78 164.45
  Q 13.08 163.57 4.40 165.32
  Q 3.92 164.87 3.73 164.83
  Q 0.72 159.96 0.00 154.20
  L 0.00 138.23
  L 0.63 141.80
  A 2.47 2.47 0.0 0 0 2.57 143.78
  L 9.02 145.09
  A 0.69 0.61 48.6 0 0 9.18 145.11
  L 34.21 144.74
  Z"
/>
<path fill="#305e77" d="
  M 255.74 147.98
  L 256.00 149.49
  L 256.00 175.24
  Q 240.91 174.12 225.88 172.36
  C 219.66 171.63 209.51 170.35 205.71 176.75
  Q 204.54 178.72 203.93 181.39
  L 195.69 184.45
  L 190.55 185.70
  Q 191.09 184.69 190.95 183.61
  Q 191.55 182.07 191.24 180.47
  A 1.25 1.22 53.0 0 1 191.34 179.69
  L 192.02 178.22
  C 194.83 173.63 194.51 167.89 195.09 162.81
  L 194.77 167.13
  A 0.01 0.01 0.0 0 1 194.75 167.13
  Q 194.65 166.28 194.69 166.28
  A 0.81 0.80 7.0 0 1 195.35 167.11
  Q 195.23 169.04 194.72 169.93
  A 0.65 0.64 -55.7 0 0 194.87 170.74
  L 195.16 170.98
  A 0.21 0.20 25.9 0 0 195.49 170.87
  Q 196.88 164.79 197.80 163.39
  C 201.01 158.51 206.44 150.82 197.99 148.19
  L 205.23 146.15
  A 0.02 0.02 0.0 0 0 205.22 146.11
  L 204.89 146.17
  A 0.03 0.03 0.0 0 1 204.87 146.11
  L 205.46 145.93
  Q 211.52 146.76 217.31 144.78
  C 223.74 143.57 229.95 140.97 237.18 142.15
  Q 242.96 143.09 250.63 143.43
  A 2.41 2.41 0.0 0 1 252.32 144.22
  L 255.74 147.98
  Z
  M 207.2307 150.8405
  A 6.49 1.21 -90.7 0 0 206.1001 157.3448
  A 6.49 1.21 -90.7 0 0 207.3893 163.8195
  A 6.49 1.21 -90.7 0 0 208.5199 157.3152
  A 6.49 1.21 -90.7 0 0 207.2307 150.8405
  Z"
/>
<path fill="#b18589" d="
  M 50.79 145.83
  Q 42.43 146.38 34.21 144.74
  Q 44.47 143.75 54.62 146.15
  A 0.33 0.28 32.1 0 0 54.85 146.12
  Q 54.88 146.10 54.82 146.12
  A 0.40 0.34 -49.7 0 1 54.70 146.14
  L 50.79 145.83
  Z"
/>
<path fill="#5c6d6b" d="
  M 205.46 145.93
  L 204.87 146.11
  A 0.03 0.03 0.0 0 0 204.89 146.17
  L 205.22 146.11
  A 0.02 0.02 0.0 0 1 205.23 146.15
  L 197.99 148.19
  Q 194.95 154.94 195.09 162.81
  C 194.51 167.89 194.83 173.63 192.02 178.22
  Q 193.20 174.91 193.20 171.45
  L 194.18 160.06
  Q 193.76 153.75 195.82 148.23
  Q 197.07 148.18 197.20 147.15
  A 0.74 0.74 0.0 0 1 197.76 146.53
  L 198.30 146.41
  Q 204.22 145.31 210.36 145.63
  Q 207.83 145.45 205.46 145.93
  Z"
/>
<path fill="#b18589" d="
  M 68.02 163.53
  Q 67.20 164.47 66.37 163.79
  Q 66.20 158.21 65.87 152.64
  Q 65.98 158.00 65.92 163.37
  L 65.91 163.37
  A 0.01 0.01 0.0 0 1 65.90 163.36
  Q 65.73 159.04 65.43 155.25
  Q 65.38 154.63 65.38 155.25
  Q 65.36 156.90 65.63 173.32
  A 0.22 0.22 0.0 0 1 65.41 173.55
  L 65.08 173.55
  A 0.09 0.09 0.0 0 1 64.99 173.46
  L 64.74 153.02
  A 1.81 1.80 -77.3 0 0 63.73 151.41
  L 55.90 147.59
  L 56.17 147.47
  A 0.20 0.14 -22.7 0 0 56.31 147.25
  Q 56.28 147.19 56.21 147.13
  C 66.27 148.77 67.93 154.01 68.02 163.53
  Z"
/>
<path fill="#8299c6" d="
  M 55.90 147.59
  L 63.73 151.41
  A 1.81 1.80 -77.3 0 1 64.74 153.02
  L 64.99 173.46
  A 0.09 0.09 0.0 0 0 65.08 173.55
  L 65.41 173.55
  A 0.22 0.22 0.0 0 0 65.63 173.32
  Q 65.36 156.90 65.38 155.25
  Q 65.38 154.63 65.43 155.25
  Q 65.73 159.04 65.90 163.36
  A 0.01 0.01 0.0 0 0 65.91 163.37
  L 65.92 163.37
  Q 65.98 158.00 65.87 152.64
  Q 66.20 158.21 66.37 163.79
  L 66.02 173.42
  A 2.52 2.38 56.0 0 1 65.91 174.08
  Q 64.66 178.19 62.78 182.01
  Q 61.67 184.25 62.00 186.71
  Q 57.14 185.57 52.84 182.56
  A 0.45 0.44 -46.7 0 1 52.82 181.85
  Q 56.54 178.84 60.57 175.40
  Q 62.74 173.54 63.05 169.95
  Q 63.37 166.22 63.70 157.23
  C 63.87 152.45 61.56 150.68 57.34 149.14
  Q 52.78 147.47 55.90 147.59
  Z"
/>
<ellipse fill="#375a7a" cx="0.00" cy="0.00" transform="translate(207.31,157.33) rotate(-90.7)" rx="6.49" ry="1.21"/>
<path fill="#ff9300" d="
  M 192.44 153.21
  L 191.87 156.51
  A 0.09 0.04 67.5 0 0 191.87 156.57
  Q 191.87 156.58 191.88 156.59
  Q 191.88 156.60 191.88 156.58
  Q 192.81 151.18 195.82 148.23
  Q 193.76 153.75 194.18 160.06
  L 194.39 150.98
  A 0.21 0.21 0.0 0 0 193.97 150.92
  C 191.92 158.11 191.86 165.17 190.98 172.56
  Q 190.14 177.74 188.08 180.10
  Q 184.78 183.87 184.53 184.31
  A 0.29 0.28 38.4 0 1 184.08 184.36
  L 183.94 183.92
  A 0.34 0.32 -35.8 0 1 184.00 183.62
  L 186.90 180.10
  A 0.16 0.16 0.0 0 0 186.67 179.88
  L 183.52 182.40
  A 0.24 0.24 0.0 0 0 183.72 182.83
  Q 183.75 182.82 184.79 182.16
  Q 184.85 182.12 184.74 182.24
  C 181.02 186.33 174.28 188.13 168.67 190.18
  A 0.57 0.33 14.9 0 1 168.56 190.21
  L 158.86 191.84
  Q 158.83 191.84 158.81 191.84
  L 148.21 192.75
  L 137.88 192.84
  Q 137.82 192.84 137.76 192.84
  L 130.46 192.32
  C 136.77 191.65 142.52 191.08 148.80 189.30
  Q 160.35 186.02 170.74 184.81
  C 177.61 184.01 181.67 182.02 186.08 177.67
  C 190.63 173.16 189.54 166.81 188.86 160.67
  A 8.43 8.17 46.5 0 1 188.88 158.68
  L 189.34 155.29
  L 190.98 150.60
  A 0.30 0.30 0.0 0 1 191.52 150.55
  Q 192.16 151.67 192.44 153.21
  Z"
/>
<path fill="#375a7a" d="
  M 197.99 148.19
  C 206.44 150.82 201.01 158.51 197.80 163.39
  Q 196.88 164.79 195.49 170.87
  A 0.21 0.20 25.9 0 1 195.16 170.98
  L 194.87 170.74
  A 0.65 0.64 -55.7 0 1 194.72 169.93
  Q 195.23 169.04 195.35 167.11
  A 0.81 0.80 7.0 0 0 194.69 166.28
  Q 194.65 166.28 194.75 167.13
  A 0.01 0.01 0.0 0 0 194.77 167.13
  L 195.09 162.81
  Q 194.95 154.94 197.99 148.19
  Z"
/>
<path fill="#b18589" d="
  M 194.18 160.06
  L 193.20 171.45
  Q 192.79 172.04 192.21 172.21
  Q 191.75 171.81 190.98 172.56
  C 191.86 165.17 191.92 158.11 193.97 150.92
  A 0.21 0.21 0.0 0 1 194.39 150.98
  L 194.18 160.06
  Z"
/>
<path fill="#5ca2ca" d="
  M 3.73 164.83
  L 0.87 177.84
  Q 1.14 177.86 0.75 178.55
  L 0.00 164.61
  L 0.00 154.20
  Q 0.72 159.96 3.73 164.83
  Z"
/>
<path fill="#5ca2ca" d="
  M 21.78 164.45
  Q 13.13 165.63 4.40 165.32
  Q 13.08 163.57 21.78 164.45
  Z"
/>
<path fill="#8299c6" d="
  M 0.87 177.84
  L 3.73 164.83
  Q 3.92 164.87 4.40 165.32
  Q 13.13 165.63 21.78 164.45
  Q 26.34 164.91 30.90 164.90
  Q 38.33 164.87 42.70 164.96
  C 49.95 165.12 50.76 172.89 45.19 176.27
  C 38.32 180.44 30.33 177.66 21.97 175.38
  C 15.13 173.52 7.48 173.82 0.87 177.84
  Z"
/>
<path fill="#d6b0b6" d="
  M 68.02 163.53
  L 68.44 168.23
  A 0.88 0.88 0.0 0 0 70.08 168.60
  L 72.72 164.03
  A 0.39 0.39 0.0 0 1 73.44 164.15
  Q 74.17 167.91 72.60 171.93
  C 70.75 176.68 70.02 181.35 72.50 185.86
  A 0.76 0.76 0.0 0 1 71.83 186.99
  L 67.72 186.95
  A 0.03 0.03 0.0 0 0 67.69 186.98
  A 0.13 0.12 -80.9 0 0 67.79 187.13
  L 81.54 189.62
  L 85.70 191.17
  Q 83.61 191.59 82.21 190.81
  A 1.17 1.08 -24.2 0 0 81.82 190.68
  L 72.91 189.37
  Q 70.35 189.18 67.67 188.86
  Q 68.26 189.17 68.77 189.03
  A 0.17 0.17 0.0 0 0 68.75 188.70
  L 64.60 188.08
  L 62.00 186.71
  Q 61.67 184.25 62.78 182.01
  Q 64.66 178.19 65.91 174.08
  A 2.52 2.38 56.0 0 0 66.02 173.42
  L 66.37 163.79
  Q 67.20 164.47 68.02 163.53
  Z"
/>
<path fill="#5c6d6b" d="
  M 0.75 178.55
  Q 0.63 178.83 0.61 179.19
  A 0.18 0.18 0.0 0 0 0.93 179.31
  L 2.61 177.27
  A 0.98 0.98 0.0 0 1 3.46 176.92
  Q 17.62 178.40 20.68 179.08
  Q 32.64 181.74 41.71 183.33
  A 0.19 0.19 0.0 0 0 41.88 183.02
  L 41.69 182.75
  A 0.21 0.20 77.1 0 1 41.89 182.43
  L 49.39 183.79
  A 0.31 0.31 0.0 0 1 49.58 184.29
  L 49.41 184.50
  A 0.05 0.04 -62.9 0 1 49.36 184.52
  Q 47.50 184.02 46.80 184.37
  A 0.10 0.09 -52.4 0 0 46.82 184.55
  L 62.10 187.31
  A 0.06 0.06 0.0 0 1 62.08 187.43
  L 58.79 187.28
  Q 52.63 186.06 46.38 186.27
  C 39.24 185.72 33.92 185.73 28.08 188.02
  Q 26.70 188.56 18.36 191.86
  A 0.54 0.37 28.9 0 1 18.16 191.88
  Q 18.10 191.88 18.06 191.88
  A 0.05 0.05 0.0 0 1 18.04 191.78
  L 25.80 187.85
  Q 33.76 185.27 42.12 185.94
  A 0.18 0.18 0.0 0 0 42.31 185.78
  L 42.34 185.48
  A 0.18 0.17 -83.5 0 0 42.19 185.28
  L 29.92 183.97
  A 2.24 2.22 31.6 0 0 28.50 184.30
  Q 26.58 185.52 21.39 186.60
  Q 13.45 188.25 5.84 187.75
  Q 3.37 187.59 0.00 189.41
  L 0.00 164.61
  L 0.75 178.55
  Z"
/>
<path fill="#104d8f" d="
  M 256.00 175.24
  L 256.00 189.97
  Q 241.11 192.76 226.05 194.20
  C 215.93 195.16 203.67 195.68 203.93 181.39
  Q 204.54 178.72 205.71 176.75
  C 209.51 170.35 219.66 171.63 225.88 172.36
  Q 240.91 174.12 256.00 175.24
  Z"
/>
<path fill="#5c6d6b" d="
  M 192.21 172.21
  Q 191.94 173.07 191.16 176.43
  Q 190.07 181.11 185.48 184.99
  C 183.38 186.77 179.74 187.44 177.30 189.45
  A 2.42 2.34 18.5 0 1 176.27 189.94
  L 167.47 191.79
  L 148.21 192.75
  L 158.81 191.84
  Q 158.83 191.84 158.86 191.84
  L 168.56 190.21
  A 0.57 0.33 14.9 0 0 168.67 190.18
  C 174.28 188.13 181.02 186.33 184.74 182.24
  Q 184.85 182.12 184.79 182.16
  Q 183.75 182.82 183.72 182.83
  A 0.24 0.24 0.0 0 1 183.52 182.40
  L 186.67 179.88
  A 0.16 0.16 0.0 0 1 186.90 180.10
  L 184.00 183.62
  A 0.34 0.32 -35.8 0 0 183.94 183.92
  L 184.08 184.36
  A 0.29 0.28 38.4 0 0 184.53 184.31
  Q 184.78 183.87 188.08 180.10
  Q 190.14 177.74 190.98 172.56
  Q 191.75 171.81 192.21 172.21
  Z"
/>
<path fill="#37294f" d="
  M 193.20 171.45
  Q 193.20 174.91 192.02 178.22
  L 191.34 179.69
  A 1.25 1.22 53.0 0 0 191.24 180.47
  Q 191.55 182.07 190.95 183.61
  L 190.51 184.19
  A 0.31 0.28 50.2 0 1 190.02 184.12
  Q 189.99 184.06 190.02 183.94
  A 0.38 0.38 0.0 0 0 189.46 183.51
  Q 187.02 184.91 183.69 187.62
  C 177.07 193.02 165.21 193.36 156.01 193.25
  A 0.19 0.18 0.0 0 1 155.82 193.07
  L 155.82 193.06
  A 0.17 0.16 -4.1 0 1 155.97 192.90
  L 167.47 191.79
  L 176.27 189.94
  A 2.42 2.34 18.5 0 0 177.30 189.45
  C 179.74 187.44 183.38 186.77 185.48 184.99
  Q 190.07 181.11 191.16 176.43
  Q 191.94 173.07 192.21 172.21
  Q 192.79 172.04 193.20 171.45
  Z"
/>
<path fill="#1c4067" d="
  M 203.93 181.39
  C 203.67 195.68 215.93 195.16 226.05 194.20
  Q 241.11 192.76 256.00 189.97
  L 256.00 225.67
  C 251.90 225.59 225.46 225.19 225.70 231.79
  C 225.98 239.16 251.27 239.71 256.00 239.67
  L 256.00 256.00
  L 149.90 256.00
  C 150.25 242.28 157.93 240.41 168.40 235.16
  Q 175.79 231.45 175.21 224.77
  C 174.27 213.82 158.84 209.97 150.56 208.62
  Q 137.98 206.56 122.99 206.95
  Q 103.63 207.44 84.16 207.24
  L 80.82 208.42
  Q 85.10 204.76 92.64 204.48
  C 97.66 204.30 112.81 203.79 114.56 199.79
  A 1.45 1.35 27.8 0 0 113.95 198.05
  Q 111.91 196.79 109.15 196.14
  Q 99.92 193.94 90.44 192.71
  L 106.16 193.07
  A 0.15 0.14 -90.0 0 0 106.30 192.92
  A 0.17 0.17 0.0 0 0 106.14 192.74
  C 99.63 192.66 93.13 192.49 86.64 191.88
  Q 88.82 191.74 90.99 191.53
  L 111.26 192.21
  L 120.47 191.57
  Q 125.05 192.81 130.46 192.32
  L 137.76 192.84
  Q 137.82 192.84 137.88 192.84
  L 148.21 192.75
  L 167.47 191.79
  L 155.97 192.90
  A 0.17 0.16 -4.1 0 0 155.82 193.06
  L 155.82 193.07
  A 0.19 0.18 -0.0 0 0 156.01 193.25
  C 165.21 193.36 177.07 193.02 183.69 187.62
  Q 187.02 184.91 189.46 183.51
  A 0.38 0.38 0.0 0 1 190.02 183.94
  Q 189.99 184.06 190.02 184.12
  A 0.31 0.28 50.2 0 0 190.51 184.19
  L 190.95 183.61
  Q 191.09 184.69 190.55 185.70
  L 188.95 189.73
  A 0.74 0.74 0.0 0 0 189.71 190.74
  C 191.73 190.52 194.71 186.02 195.69 184.45
  L 203.93 181.39
  Z"
/>
<path fill="#305e77" d="
  M 25.80 187.85
  Q 19.38 189.49 12.97 191.02
  Q 9.27 191.90 0.00 191.82
  L 0.00 189.41
  Q 3.37 187.59 5.84 187.75
  Q 13.45 188.25 21.39 186.60
  Q 26.58 185.52 28.50 184.30
  A 2.24 2.22 31.6 0 1 29.92 183.97
  L 42.19 185.28
  A 0.18 0.17 -83.5 0 1 42.34 185.48
  L 42.31 185.78
  A 0.18 0.18 0.0 0 1 42.12 185.94
  Q 33.76 185.27 25.80 187.85
  Z"
/>
<path fill="#173c71" d="
  M 195.69 184.45
  C 194.71 186.02 191.73 190.52 189.71 190.74
  A 0.74 0.74 0.0 0 1 188.95 189.73
  L 190.55 185.70
  L 195.69 184.45
  Z"
/>
<path fill="#173c71" d="
  M 46.38 186.27
  C 53.52 188.78 61.36 189.45 68.87 189.91
  Q 79.58 192.23 90.44 192.71
  Q 99.92 193.94 109.15 196.14
  Q 111.91 196.79 113.95 198.05
  A 1.45 1.35 27.8 0 1 114.56 199.79
  C 112.81 203.79 97.66 204.30 92.64 204.48
  Q 85.10 204.76 80.82 208.42
  Q 73.43 214.93 63.92 214.20
  Q 61.87 214.05 55.59 212.23
  A 1.18 1.16 -52.5 0 0 54.66 212.36
  Q 52.38 213.78 50.77 216.15
  C 47.75 222.59 45.19 231.12 52.32 235.91
  L 54.34 236.50
  C 60.57 239.94 65.04 242.64 69.86 247.42
  A 3.62 3.60 10.5 0 1 70.64 248.55
  L 70.96 249.28
  A 0.46 0.45 75.2 0 1 70.59 249.92
  Q 70.24 249.96 69.70 250.32
  A 0.67 0.66 64.5 0 0 69.43 251.10
  C 70.59 254.37 65.77 255.27 63.74 256.00
  L 0.00 256.00
  L 0.00 191.82
  Q 9.27 191.90 12.97 191.02
  Q 19.38 189.49 25.80 187.85
  L 18.04 191.78
  A 0.05 0.05 0.0 0 0 18.06 191.88
  Q 18.10 191.88 18.16 191.88
  A 0.54 0.37 28.9 0 0 18.36 191.86
  Q 26.70 188.56 28.08 188.02
  C 33.92 185.73 39.24 185.72 46.38 186.27
  Z"
/>
<path fill="#305e77" d="
  M 58.79 187.28
  L 64.60 188.08
  L 68.75 188.70
  A 0.17 0.17 0.0 0 1 68.77 189.03
  Q 68.26 189.17 67.67 188.86
  Q 70.35 189.18 72.91 189.37
  Q 75.16 190.44 77.86 190.37
  Q 73.40 190.62 68.87 189.91
  C 61.36 189.45 53.52 188.78 46.38 186.27
  Q 52.63 186.06 58.79 187.28
  Z"
/>
<path fill="#375a7a" d="
  M 85.70 191.17
  Q 91.14 191.22 97.61 191.38
  Q 97.62 191.38 97.61 191.38
  L 90.99 191.53
  Q 88.82 191.74 86.64 191.88
  C 93.13 192.49 99.63 192.66 106.14 192.74
  A 0.17 0.17 0.0 0 1 106.30 192.92
  A 0.15 0.14 90.0 0 1 106.16 193.07
  L 90.44 192.71
  Q 79.58 192.23 68.87 189.91
  Q 73.40 190.62 77.86 190.37
  Q 75.16 190.44 72.91 189.37
  L 81.82 190.68
  A 1.17 1.08 -24.2 0 1 82.21 190.81
  Q 83.61 191.59 85.70 191.17
  Z"
/>
<path fill="#b18589" d="
  M 83.56 189.76
  C 89.32 190.55 95.39 189.91 100.65 190.65
  Q 109.95 191.97 119.35 191.11
  A 0.18 0.18 0.0 0 1 119.54 191.27
  A 0.14 0.14 0.0 0 1 119.41 191.42
  L 111.26 192.21
  L 90.99 191.53
  L 97.61 191.38
  Q 97.62 191.38 97.61 191.38
  Q 91.14 191.22 85.70 191.17
  L 81.54 189.62
  L 83.56 189.76
  Z"
/>
<path fill="#375a7a" d="
  M 149.90 256.00
  L 63.74 256.00
  C 65.77 255.27 70.59 254.37 69.43 251.10
  A 0.67 0.66 64.5 0 1 69.70 250.32
  Q 70.24 249.96 70.59 249.92
  A 0.46 0.45 75.2 0 0 70.96 249.28
  L 70.64 248.55
  A 3.62 3.60 10.5 0 0 69.86 247.42
  C 65.04 242.64 60.57 239.94 54.34 236.50
  C 48.37 230.63 49.96 220.46 53.72 213.86
  A 1.37 1.37 0.0 0 1 55.27 213.22
  Q 59.98 214.55 63.83 215.21
  C 71.53 216.54 78.81 212.65 84.16 207.24
  Q 103.63 207.44 122.99 206.95
  Q 137.98 206.56 150.56 208.62
  C 158.84 209.97 174.27 213.82 175.21 224.77
  Q 175.79 231.45 168.40 235.16
  C 157.93 240.41 150.25 242.28 149.90 256.00
  Z
  M 79.28 243.85
  Q 71.02 244.34 64.72 238.90
  A 0.21 0.21 0.0 0 0 64.43 238.91
  L 64.42 238.92
  A 0.21 0.21 0.0 0 0 64.41 239.21
  Q 70.13 246.07 78.82 246.28
  C 84.87 243.75 85.77 238.88 82.94 233.58
  C 79.44 227.05 75.73 218.09 84.40 213.81
  Q 87.49 212.28 90.59 212.15
  A 0.32 0.32 0.0 0 0 90.81 211.62
  Q 90.18 210.92 89.12 210.93
  C 84.64 210.99 81.99 211.76 77.75 214.35
  C 73.69 216.83 68.23 219.32 63.81 217.78
  Q 62.08 217.18 55.95 214.42
  A 0.82 0.81 -60.6 0 0 54.94 214.71
  C 51.44 219.90 48.91 231.00 55.91 234.48
  Q 65.99 239.49 68.20 240.69
  A 15.79 15.63 -23.9 0 0 72.06 242.16
  L 79.28 243.85
  Z"
/>
<path fill="#305e77" d="
  M 84.16 207.24
  C 78.81 212.65 71.53 216.54 63.83 215.21
  Q 59.98 214.55 55.27 213.22
  A 1.37 1.37 0.0 0 0 53.72 213.86
  C 49.96 220.46 48.37 230.63 54.34 236.50
  L 52.32 235.91
  C 47.82 230.37 49.45 222.23 50.77 216.15
  Q 52.38 213.78 54.66 212.36
  A 1.18 1.16 -52.5 0 1 55.59 212.23
  Q 61.87 214.05 63.92 214.20
  Q 73.43 214.93 80.82 208.42
  L 84.16 207.24
  Z"
/>
<path fill="#5c6d6b" d="
  M 78.82 246.28
  Q 79.63 244.98 79.28 243.85
  L 72.06 242.16
  A 15.79 15.63 -23.9 0 1 68.20 240.69
  Q 65.99 239.49 55.91 234.48
  C 48.91 231.00 51.44 219.90 54.94 214.71
  A 0.82 0.81 -60.6 0 1 55.95 214.42
  Q 62.08 217.18 63.81 217.78
  C 68.23 219.32 73.69 216.83 77.75 214.35
  C 81.99 211.76 84.64 210.99 89.12 210.93
  Q 90.18 210.92 90.81 211.62
  A 0.32 0.32 0.0 0 1 90.59 212.15
  Q 87.49 212.28 84.40 213.81
  C 75.73 218.09 79.44 227.05 82.94 233.58
  C 85.77 238.88 84.87 243.75 78.82 246.28
  Z"
/>
<path fill="#1c4067" d="
  M 50.77 216.15
  C 49.45 222.23 47.82 230.37 52.32 235.91
  C 45.19 231.12 47.75 222.59 50.77 216.15
  Z"
/>
<path fill="#37294f" d="
  M 256.00 225.67
  L 256.00 239.67
  C 251.27 239.71 225.98 239.16 225.70 231.79
  C 225.46 225.19 251.90 225.59 256.00 225.67
  Z"
/>
<path fill="#305e77" d="
  M 79.28 243.85
  Q 79.63 244.98 78.82 246.28
  Q 70.13 246.07 64.41 239.21
  A 0.21 0.21 0.0 0 1 64.42 238.92
  L 64.43 238.91
  A 0.21 0.21 0.0 0 1 64.72 238.90
  Q 71.02 244.34 79.28 243.85
  Z"
/>
</svg>