<?xml version="1.0" encoding="UTF-8" standalone="no"?>
<!DOCTYPE svg PUBLIC "-//W3C//DTD SVG 1.1//EN" "http://www.w3.org/Graphics/SVG/1.1/DTD/svg11.dtd">
<svg xmlns="http://www.w3.org/2000/svg" version="1.1" viewBox="0.00 0.00 256.00 256.00" width="128" height="128">
<g stroke-width="2.00" fill="none" stroke-linecap="butt">
<path stroke="#2f03aa" vector-effect="non-scaling-stroke" d="
  M 49.66 192.84
  Q 49.77 192.78 49.91 193.14"
/>
<path stroke="#9154a6" vector-effect="non-scaling-stroke" d="
  M 49.91 193.14
  C 47.52 201.56 46.38 208.74 52.29 215.64
  C 58.00 222.31 63.56 221.96 73.24 221.98
  Q 94.85 222.02 116.46 221.98"
/>
<path stroke="#91419c" vector-effect="non-scaling-stroke" d="
  M 116.46 221.98
  L 167.85 221.98"
/>
<path stroke="#822f94" vector-effect="non-scaling-stroke" d="
  M 167.85 221.98
  Q 176.77 222.23 180.25 221.78
  Q 192.60 220.17 200.30 210.87"
/>
<path stroke="#7c2991" vector-effect="non-scaling-stroke" d="
  M 200.30 210.87
  Q 205.11 205.02 206.79 197.28
  Q 228.38 97.82 230.78 86.31
  C 233.31 74.19 224.46 64.09 212.25 64.09
  Q 209.33 64.09 206.51 64.23"
/>
<path stroke="#2f03aa" vector-effect="non-scaling-stroke" d="
  M 206.51 64.23
  Q 206.44 64.03 206.34 64.02"
/>
<path stroke="#126aa8" vector-effect="non-scaling-stroke" d="
  M 206.34 64.02
  Q 208.25 57.08 208.37 54.25
  C 208.77 45.30 203.02 37.40 194.35 35.43
  Q 192.24 34.95 182.60 34.96
  Q 138.99 35.01 85.32 34.94
  Q 74.69 34.93 70.34 36.38
  C 59.24 40.08 51.85 48.74 49.39 60.16
  Q 46.45 73.82 26.02 168.07
  Q 24.81 173.68 25.08 176.47
  C 26.00 186.04 33.71 192.66 43.25 192.83
  Q 46.56 192.89 49.66 192.84"
/>
<path stroke="#1d67fd" vector-effect="non-scaling-stroke" d="
  M 206.34 64.02
  Q 151.21 64.07 96.06 64.01
  Q 88.41 64.00 85.71 65.15
  Q 80.69 67.30 77.39 71.51
  Q 75.33 74.13 73.06 84.61
  Q 61.32 138.69 49.66 192.84"
/>
<path stroke="#8726e6" vector-effect="non-scaling-stroke" d="
  M 206.51 64.23
  L 198.15 103.01"
/>
<path stroke="#8d2ce9" vector-effect="non-scaling-stroke" d="
  M 198.15 103.01
  Q 190.82 137.03 183.43 171.03
  Q 181.02 182.12 178.69 185.47
  Q 174.33 191.73 165.56 192.97"
/>
<path stroke="#9d3ef1" vector-effect="non-scaling-stroke" d="
  M 165.56 192.97
  L 111.96 192.98"
/>
<path stroke="#9d51fb" vector-effect="non-scaling-stroke" d="
  M 111.96 192.98
  L 49.91 193.14"
/>
<path stroke="#f069da" vector-effect="non-scaling-stroke" d="
  M 167.85 221.98
  Q 168.49 207.15 165.56 192.97"
/>
<path stroke="#ff8fec" vector-effect="non-scaling-stroke" d="
  M 111.96 192.98
  L 116.46 221.98"
/>
<path stroke="#da51d0" vector-effect="non-scaling-stroke" d="
  M 200.30 210.87
  Q 200.13 151.95 199.94 130.21
  Q 199.83 117.58 198.15 103.01"
/>
<path stroke="#9d80ff" vector-effect="non-scaling-stroke" d="
  M 149.50 134.74
  L 143.23 142.07
  A 0.31 0.31 0.0 0 0 143.23 142.48
  Q 148.36 148.70 156.19 149.98
  C 165.15 151.44 175.89 148.74 179.22 139.50
  C 181.89 132.09 177.82 126.97 171.21 124.26
  C 166.84 122.47 161.53 120.98 161.26 118.44
  C 160.93 115.43 164.26 114.81 166.51 114.86
  Q 171.62 114.99 175.44 118.39
  A 0.49 0.49 0.0 0 0 176.14 118.35
  L 182.07 111.42
  A 0.86 0.85 39.8 0 0 181.95 110.19
  Q 175.24 104.77 167.02 104.76
  C 158.65 104.74 149.68 108.89 149.13 118.00
  C 148.43 129.42 158.67 130.30 165.65 133.82
  C 166.97 134.49 168.20 136.07 167.19 137.65
  Q 166.07 139.42 162.71 139.95
  Q 156.16 140.98 149.88 134.72
  A 0.26 0.26 0.0 0 0 149.50 134.74"
/>
<path stroke="#9d80ff" vector-effect="non-scaling-stroke" d="
  M 109.01 106.27
  A 0.34 0.34 0.0 0 0 108.71 106.46
  L 96.15 132.13
  A 0.34 0.34 0.0 0 1 95.51 132.03
  L 91.78 106.56
  A 0.34 0.34 0.0 0 0 91.45 106.27
  L 79.18 106.27
  A 0.34 0.34 0.0 0 0 78.85 106.67
  L 86.98 148.92
  A 0.34 0.34 0.0 0 0 87.31 149.20
  L 97.95 149.20
  A 0.34 0.34 0.0 0 0 98.25 149.01
  L 110.25 124.44
  A 0.34 0.34 0.0 0 1 110.89 124.53
  L 115.59 148.91
  A 0.34 0.34 0.0 0 0 115.92 149.19
  L 126.41 149.19
  A 0.34 0.34 0.0 0 0 126.71 149.00
  L 147.36 106.76
  A 0.34 0.34 0.0 0 0 147.06 106.27
  L 134.85 106.27
  A 0.34 0.34 0.0 0 0 134.54 106.47
  L 123.09 132.08
  A 0.34 0.34 0.0 0 1 122.45 132.01
  L 117.55 106.55
  A 0.34 0.34 0.0 0 0 117.22 106.27
  L 109.01 106.27"
/>
</g>
<path fill="#230655" d="
  M 238.01 0.00
  Q 253.24 2.62 256.00 17.93
  L 256.00 237.95
  Q 253.42 253.22 238.07 256.00
  L 18.00 256.00
  Q 2.77 253.37 0.00 238.07
  L 0.00 17.98
  Q 2.62 2.85 17.81 0.00
  L 238.01 0.00
  Z
  M 49.66 192.84
  Q 49.77 192.78 49.91 193.14
  C 47.52 201.56 46.38 208.74 52.29 215.64
  C 58.00 222.31 63.56 221.96 73.24 221.98
  Q 94.85 222.02 116.46 221.98
  L 167.85 221.98
  Q 176.77 222.23 180.25 221.78
  Q 192.60 220.17 200.30 210.87
  Q 205.11 205.02 206.79 197.28
  Q 228.38 97.82 230.78 86.31
  C 233.31 74.19 224.46 64.09 212.25 64.09
  Q 209.33 64.09 206.51 64.23
  Q 206.44 64.03 206.34 64.02
  Q 208.25 57.08 208.37 54.25
  C 208.77 45.30 203.02 37.40 194.35 35.43
  Q 192.24 34.95 182.60 34.96
  Q 138.99 35.01 85.32 34.94
  Q 74.69 34.93 70.34 36.38
  C 59.24 40.08 51.85 48.74 49.39 60.16
  Q 46.45 73.82 26.02 168.07
  Q 24.81 173.68 25.08 176.47
  C 26.00 186.04 33.71 192.66 43.25 192.83
  Q 46.56 192.89 49.66 192.84
  Z"
/>
<path fill="#00cdfa" d="
  M 206.34 64.02
  Q 151.21 64.07 96.06 64.01
  Q 88.41 64.00 85.71 65.15
  Q 80.69 67.30 77.39 71.51
  Q 75.33 74.13 73.06 84.61
  Q 61.32 138.69 49.66 192.84
  Q 46.56 192.89 43.25 192.83
  C 33.71 192.66 26.00 186.04 25.08 176.47
  Q 24.81 173.68 26.02 168.07
  Q 46.45 73.82 49.39 60.16
  C 51.85 48.74 59.24 40.08 70.34 36.38
  Q 74.69 34.93 85.32 34.94
  Q 138.99 35.01 182.60 34.96
  Q 192.24 34.95 194.35 35.43
  C 203.02 37.40 208.77 45.30 208.37 54.25
  Q 208.25 57.08 206.34 64.02
  Z"
/>
<path fill="#3a00ff" d="
  M 206.34 64.02
  Q 206.44 64.03 206.51 64.23
  L 198.15 103.01
  Q 190.82 137.03 183.43 171.03
  Q 181.02 182.12 178.69 185.47
  Q 174.33 191.73 165.56 192.97
  L 111.96 192.98
  L 49.91 193.14
  Q 49.77 192.78 49.66 192.84
  Q 61.32 138.69 73.06 84.61
  Q 75.33 74.13 77.39 71.51
  Q 80.69 67.30 85.71 65.15
  Q 88.41 64.00 96.06 64.01
  Q 151.21 64.07 206.34 64.02
  Z
  M 149.50 134.74
  L 143.23 142.07
  A 0.31 0.31 0.0 0 0 143.23 142.48
  Q 148.36 148.70 156.19 149.98
  C 165.15 151.44 175.89 148.74 179.22 139.50
  C 181.89 132.09 177.82 126.97 171.21 124.26
  C 166.84 122.47 161.53 120.98 161.26 118.44
  C 160.93 115.43 164.26 114.81 166.51 114.86
  Q 171.62 114.99 175.44 118.39
  A 0.49 0.49 0.0 0 0 176.14 118.35
  L 182.07 111.42
  A 0.86 0.85 39.8 0 0 181.95 110.19
  Q 175.24 104.77 167.02 104.76
  C 158.65 104.74 149.68 108.89 149.13 118.00
  C 148.43 129.42 158.67 130.30 165.65 133.82
  C 166.97 134.49 168.20 136.07 167.19 137.65
  Q 166.07 139.42 162.71 139.95
  Q 156.16 140.98 149.88 134.72
  A 0.26 0.26 0.0 0 0 149.50 134.74
  Z
  M 109.01 106.27
  A 0.34 0.34 0.0 0 0 108.71 106.46
  L 96.15 132.13
  A 0.34 0.34 0.0 0 1 95.51 132.03
  L 91.78 106.56
  A 0.34 0.34 0.0 0 0 91.45 106.27
  L 79.18 106.27
  A 0.34 0.34 0.0 0 0 78.85 106.67
  L 86.98 148.92
  A 0.34 0.34 0.0 0 0 87.31 149.20
  L 97.95 149.20
  A 0.34 0.34 0.0 0 0 98.25 149.01
  L 110.25 124.44
  A 0.34 0.34 0.0 0 1 110.89 124.53
  L 115.59 148.91
  A 0.34 0.34 0.0 0 0 115.92 149.19
  L 126.41 149.19
  A 0.34 0.34 0.0 0 0 126.71 149.00
  L 147.36 106.76
  A 0.34 0.34 0.0 0 0 147.06 106.27
  L 134.85 106.27
  A 0.34 0.34 0.0 0 0 134.54 106.47
  L 123.09 132.08
  A 0.34 0.34 0.0 0 1 122.45 132.01
  L 117.55 106.55
  A 0.34 0.34 0.0 0 0 117.22 106.27
  L 109.01 106.27
  Z"
/>
<path fill="#d44bcd" d="
  M 200.30 210.87
  Q 200.13 151.95 199.94 130.21
  Q 199.83 117.58 198.15 103.01
  L 206.51 64.23
  Q 209.33 64.09 212.25 64.09
  C 224.46 64.09 233.31 74.19 230.78 86.31
  Q 228.38 97.82 206.79 197.28
  Q 205.11 205.02 200.30 210.87
  Z"
/>
<path fill="#e057d2" d="
  M 200.30 210.87
  Q 192.60 220.17 180.25 221.78
  Q 176.77 222.23 167.85 221.98
  Q 168.49 207.15 165.56 192.97
  Q 174.33 191.73 178.69 185.47
  Q 181.02 182.12 183.43 171.03
  Q 190.82 137.03 198.15 103.01
  Q 199.83 117.58 199.94 130.21
  Q 200.13 151.95 200.30 210.87
  Z"
/>
<path fill="#ffffff" d="
  M 149.50 134.74
  A 0.26 0.26 0.0 0 1 149.88 134.72
  Q 156.16 140.98 162.71 139.95
  Q 166.07 139.42 167.19 137.65
  C 168.20 136.07 166.97 134.49 165.65 133.82
  C 158.67 130.30 148.43 129.42 149.13 118.00
  C 149.68 108.89 158.65 104.74 167.02 104.76
  Q 175.24 104.77 181.95 110.19
  A 0.86 0.85 39.8 0 1 182.07 111.42
  L 176.14 118.35
  A 0.49 0.49 0.0 0 1 175.44 118.39
  Q 171.62 114.99 166.51 114.86
  C 164.26 114.81 160.93 115.43 161.26 118.44
  C 161.53 120.98 166.84 122.47 171.21 124.26
  C 177.82 126.97 181.89 132.09 179.22 139.50
  C 175.89 148.74 165.15 151.44 156.19 149.98
  Q 148.36 148.70 143.23 142.48
  A 0.31 0.31 0.0 0 1 143.23 142.07
  L 149.50 134.74
  Z"
/>
<path fill="#ffffff" d="
  M 109.01 106.27
  L 117.22 106.27
  A 0.34 0.34 0.0 0 1 117.55 106.55
  L 122.45 132.01
  A 0.34 0.34 0.0 0 0 123.09 132.08
  L 134.54 106.47
  A 0.34 0.34 0.0 0 1 134.85 106.27
  L 147.06 106.27
  A 0.34 0.34 0.0 0 1 147.36 106.76
  L 126.71 149.00
  A 0.34 0.34 0.0 0 1 126.41 149.19
  L 115.92 149.19
  A 0.34 0.34 0.0 0 1 115.59 148.91
  L 110.89 124.53
  A 0.34 0.34 0.0 0 0 110.25 124.44
  L 98.25 149.01
  A 0.34 0.34 0.0 0 1 97.95 149.20
  L 87.31 149.20
  A 0.34 0.34 0.0 0 1 86.98 148.92
  L 78.85 106.67
  A 0.34 0.34 0.0 0 1 79.18 106.27
  L 91.45 106.27
  A 0.34 0.34 0.0 0 1 91.78 106.56
  L 95.51 132.03
  A 0.34 0.34 0.0 0 0 96.15 132.13
  L 108.71 106.46
  A 0.34 0.34 0.0 0 1 109.01 106.27
  Z"
/>
<path fill="#ffa2f6" d="
  M 111.96 192.98
  L 116.46 221.98
  Q 94.85 222.02 73.24 221.98
  C 63.56 221.96 58.00 222.31 52.29 215.64
  C 46.38 208.74 47.52 201.56 49.91 193.14
  L 111.96 192.98
  Z"
/>
<path fill="#ff7be2" d="
  M 165.56 192.97
  Q 168.49 207.15 167.85 221.98
  L 116.46 221.98
  L 111.96 192.98
  L 165.56 192.97
  Z"
/>
</svg>