<?xml version="1.0" encoding="UTF-8" standalone="no"?>
<!DOCTYPE svg PUBLIC "-//W3C//DTD SVG 1.1//EN" "http://www.w3.org/Graphics/SVG/1.1/DTD/svg11.dtd">
<svg xmlns="http://www.w3.org/2000/svg" version="1.1" viewBox="0.00 0.00 192.00 192.00" width="128" height="128">
<g stroke-width="2.00" fill="none" stroke-linecap="butt">
<path stroke="#2a6878" vector-effect="non-scaling-stroke" d="
  M 94.95 0.00
  Q 120.53 15.22 126.62 43.26
  C 127.81 48.77 127.94 55.65 128.53 62.06
  A 1.11 1.10 8.2 0 0 129.23 62.99
  C 137.44 66.17 140.44 73.28 138.52 81.74
  Q 138.31 82.71 136.27 95.35
  A 3.90 3.88 38.8 0 0 136.50 97.41
  Q 139.32 104.47 143.79 112.86
  Q 148.89 122.43 150.89 128.15
  Q 159.06 151.62 149.54 176.25"
/>
<path stroke="#9691bb" vector-effect="non-scaling-stroke" d="
  M 100.57 192.00
  Q 110.13 161.84 104.97 130.29
  C 103.28 120.00 99.79 108.39 93.43 100.20
  A 0.76 0.75 44.7 0 1 93.42 99.28
  Q 93.83 98.74 99.22 92.47
  C 104.66 86.15 107.56 77.24 106.30 68.99
  Q 103.85 52.93 88.62 46.40
  Q 81.73 43.45 75.76 42.47
  Q 65.12 40.72 55.75 40.15
  Q 37.20 39.04 18.29 39.72"
/>
<path stroke="#9691bb" vector-effect="non-scaling-stroke" d="
  M 16.83 150.65
  Q 51.32 153.18 82.94 142.65
  A 0.45 0.45 0.0 0 1 83.53 143.06
  L 84.13 154.41
  A 0.36 0.36 0.0 0 0 84.51 154.75
  L 92.89 154.31
  A 0.20 0.20 0.0 0 0 93.08 154.12
  Q 94.01 135.66 85.08 119.89
  A 0.86 0.86 0.0 0 0 83.84 119.61
  L 77.53 124.02
  A 0.88 0.88 0.0 0 0 77.24 125.12
  L 80.95 132.95
  A 0.77 0.77 0.0 0 1 80.49 134.01
  Q 46.63 145.23 10.78 140.55"
/>
<path stroke="#9691bb" vector-effect="non-scaling-stroke" d="
  M 0.61 85.07
  Q 27.81 75.81 55.42 82.74
  A 0.25 0.24 76.4 0 0 55.66 82.34
  Q 51.73 77.66 53.69 72.11
  C 57.75 60.61 74.59 64.46 73.58 77.04
  A 0.28 0.28 0.0 0 1 73.05 77.14
  C 70.03 70.68 60.75 72.37 60.50 79.49
  C 60.38 82.98 62.63 84.91 65.97 86.19
  Q 72.68 88.78 77.05 91.35
  A 0.72 0.71 37.1 0 0 77.93 91.23
  Q 79.66 89.35 84.58 83.68
  Q 87.65 80.14 88.34 77.54
  C 91.49 65.58 80.43 61.84 71.49 60.27
  Q 63.77 58.92 55.26 58.37
  Q 31.65 56.85 7.68 58.48"
/>
<path stroke="#9691bb" vector-effect="non-scaling-stroke" d="
  M 31.73 95.23
  Q 31.93 95.23 32.00 95.31
  C 37.32 101.43 45.67 106.33 53.96 105.95
  C 59.16 105.71 61.30 102.06 59.14 97.35
  Q 57.55 93.88 54.83 90.71
  A 2.54 2.47 -11.5 0 0 53.63 89.94
  Q 42.54 86.70 31.72 86.71
  Q 20.91 86.72 9.82 89.97
  A 2.54 2.47 11.4 0 0 8.62 90.74
  Q 5.91 93.92 4.32 97.39
  C 2.17 102.10 4.32 105.75 9.52 105.98
  C 17.81 106.35 26.15 101.44 31.46 95.31
  Q 31.53 95.23 31.73 95.23"
/>
</g>
<path fill="#2c2276" d="
  M 94.95 0.00
  Q 120.53 15.22 126.62 43.26
  C 127.81 48.77 127.94 55.65 128.53 62.06
  A 1.11 1.10 8.2 0 0 129.23 62.99
  C 137.44 66.17 140.44 73.28 138.52 81.74
  Q 138.31 82.71 136.27 95.35
  A 3.90 3.88 38.8 0 0 136.50 97.41
  Q 139.32 104.47 143.79 112.86
  Q 148.89 122.43 150.89 128.15
  Q 159.06 151.62 149.54 176.25
  Q 130.12 189.16 106.07 192.00
  L 100.57 192.00
  Q 110.13 161.84 104.97 130.29
  C 103.28 120.00 99.79 108.39 93.43 100.20
  A 0.76 0.75 44.7 0 1 93.42 99.28
  Q 93.83 98.74 99.22 92.47
  C 104.66 86.15 107.56 77.24 106.30 68.99
  Q 103.85 52.93 88.62 46.40
  Q 81.73 43.45 75.76 42.47
  Q 65.12 40.72 55.75 40.15
  Q 37.20 39.04 18.29 39.72
  Q 45.79 3.32 91.42 0.00
  L 94.95 0.00
  Z"
/>
<path fill="#27ad7a" d="
  M 100.97 0.00
  C 148.99 3.26 186.29 38.37 192.00 86.19
  L 192.00 106.00
  Q 186.45 150.60 149.54 176.25
  Q 159.06 151.62 150.89 128.15
  Q 148.89 122.43 143.79 112.86
  Q 139.32 104.47 136.50 97.41
  A 3.90 3.88 38.8 0 1 136.27 95.35
  Q 138.31 82.71 138.52 81.74
  C 140.44 73.28 137.44 66.17 129.23 62.99
  A 1.11 1.10 8.2 0 1 128.53 62.06
  C 127.94 55.65 127.81 48.77 126.62 43.26
  Q 120.53 15.22 94.95 0.00
  L 100.97 0.00
  Z"
/>
<path fill="#ffffff" d="
  M 100.57 192.00
  L 86.36 192.00
  Q 42.69 186.61 16.83 150.65
  Q 51.32 153.18 82.94 142.65
  A 0.45 0.45 0.0 0 1 83.53 143.06
  L 84.13 154.41
  A 0.36 0.36 0.0 0 0 84.51 154.75
  L 92.89 154.31
  A 0.20 0.20 0.0 0 0 93.08 154.12
  Q 94.01 135.66 85.08 119.89
  A 0.86 0.86 0.0 0 0 83.84 119.61
  L 77.53 124.02
  A 0.88 0.88 0.0 0 0 77.24 125.12
  L 80.95 132.95
  A 0.77 0.77 0.0 0 1 80.49 134.01
  Q 46.63 145.23 10.78 140.55
  Q 1.31 121.94 0.00 100.99
  L 0.00 91.54
  L 0.61 85.07
  Q 27.81 75.81 55.42 82.74
  A 0.25 0.24 76.4 0 0 55.66 82.34
  Q 51.73 77.66 53.69 72.11
  C 57.75 60.61 74.59 64.46 73.58 77.04
  A 0.28 0.28 0.0 0 1 73.05 77.14
  C 70.03 70.68 60.75 72.37 60.50 79.49
  C 60.38 82.98 62.63 84.91 65.97 86.19
  Q 72.68 88.78 77.05 91.35
  A 0.72 0.71 37.1 0 0 77.93 91.23
  Q 79.66 89.35 84.58 83.68
  Q 87.65 80.14 88.34 77.54
  C 91.49 65.58 80.43 61.84 71.49 60.27
  Q 63.77 58.92 55.26 58.37
  Q 31.65 56.85 7.68 58.48
  Q 12.21 48.17 18.29 39.72
  Q 37.20 39.04 55.75 40.15
  Q 65.12 40.72 75.76 42.47
  Q 81.73 43.45 88.62 46.40
  Q 103.85 52.93 106.30 68.99
  C 107.56 77.24 104.66 86.15 99.22 92.47
  Q 93.83 98.74 93.42 99.28
  A 0.76 0.75 44.7 0 0 93.43 100.20
  C 99.79 108.39 103.28 120.00 104.97 130.29
  Q 110.13 161.84 100.57 192.00
  Z
  M 31.73 95.23
  Q 31.93 95.23 32.00 95.31
  C 37.32 101.43 45.67 106.33 53.96 105.95
  C 59.16 105.71 61.30 102.06 59.14 97.35
  Q 57.55 93.88 54.83 90.71
  A 2.54 2.47 -11.5 0 0 53.63 89.94
  Q 42.54 86.70 31.72 86.71
  Q 20.91 86.72 9.82 89.97
  A 2.54 2.47 11.4 0 0 8.62 90.74
  Q 5.91 93.92 4.32 97.39
  C 2.17 102.10 4.32 105.75 9.52 105.98
  C 17.81 106.35 26.15 101.44 31.46 95.31
  Q 31.53 95.23 31.73 95.23
  Z"
/>
<path fill="#2c2276" d="
  M 0.61 85.07
  Q 2.28 70.77 7.68 58.48
  Q 31.65 56.85 55.26 58.37
  Q 63.77 58.92 71.49 60.27
  C 80.43 61.84 91.49 65.58 88.34 77.54
  Q 87.65 80.14 84.58 83.68
  Q 79.66 89.35 77.93 91.23
  A 0.72 0.71 37.1 0 1 77.05 91.35
  Q 72.68 88.78 65.97 86.19
  C 62.63 84.91 60.38 82.98 60.50 79.49
  C 60.75 72.37 70.03 70.68 73.05 77.14
  A 0.28 0.28 0.0 0 0 73.58 77.04
  C 74.59 64.46 57.75 60.61 53.69 72.11
  Q 51.73 77.66 55.66 82.34
  A 0.25 0.24 76.4 0 1 55.42 82.74
  Q 27.81 75.81 0.61 85.07
  Z"
/>
<path fill="#2c2276" d="
  M 31.72 86.71
  Q 42.54 86.70 53.63 89.94
  A 2.54 2.47 -11.5 0 1 54.83 90.71
  Q 57.55 93.88 59.14 97.35
  C 61.30 102.06 59.16 105.71 53.96 105.95
  C 45.67 106.33 37.32 101.43 32.00 95.31
  Q 31.93 95.23 31.73 95.23
  Q 31.53 95.23 31.46 95.31
  C 26.15 101.44 17.81 106.35 9.52 105.98
  C 4.32 105.75 2.17 102.10 4.32 97.39
  Q 5.91 93.92 8.62 90.74
  A 2.54 2.47 11.4 0 1 9.82 89.97
  Q 20.91 86.72 31.72 86.71
  Z"
/>
<path fill="#2c2276" d="
  M 16.83 150.65
  L 10.78 140.55
  Q 46.63 145.23 80.49 134.01
  A 0.77 0.77 0.0 0 0 80.95 132.95
  L 77.24 125.12
  A 0.88 0.88 0.0 0 1 77.53 124.02
  L 83.84 119.61
  A 0.86 0.86 0.0 0 1 85.08 119.89
  Q 94.01 135.66 93.08 154.12
  A 0.20 0.20 0.0 0 1 92.89 154.31
  L 84.51 154.75
  A 0.36 0.36 0.0 0 1 84.13 154.41
  L 83.53 143.06
  A 0.45 0.45 0.0 0 0 82.94 142.65
  Q 51.32 153.18 16.83 150.65
  Z"
/>
</svg>