<?xml version="1.0" encoding="UTF-8" standalone="no"?>
<!DOCTYPE svg PUBLIC "-//W3C//DTD SVG 1.1//EN" "http://www.w3.org/Graphics/SVG/1.1/DTD/svg11.dtd">
<svg xmlns="http://www.w3.org/2000/svg" version="1.1" viewBox="0.00 0.00 256.00 256.00" width="128" height="128">
<path fill="#003d51" d="
  M 0.00 143.36
  L 0.00 134.76
  C 0.64 127.15 2.82 121.49 5.89 114.16
  Q 8.68 107.49 11.80 102.81
  Q 28.66 77.54 61.14 75.19
  Q 63.27 75.03 65.93 73.96
  A 2.57 2.56 -5.5 0 0 67.48 72.09
  C 68.39 67.51 69.48 62.65 71.55 58.41
  C 81.57 37.81 98.45 26.71 120.76 22.75
  C 129.24 21.24 135.65 22.35 144.80 24.75
  Q 169.84 31.30 182.95 53.80
  Q 186.38 59.68 187.59 63.90
  C 189.19 69.41 188.68 73.92 194.21 75.57
  C 197.35 76.51 200.99 76.73 204.27 77.55
  C 216.66 80.62 227.33 87.78 235.68 97.63
  Q 241.04 103.94 244.90 112.87
  Q 253.23 132.18 248.49 154.48
  Q 247.58 158.73 246.70 160.86
  A 1.92 1.92 0.0 0 1 244.27 161.93
  Q 237.13 159.30 233.98 158.25
  C 228.05 156.26 225.58 145.87 221.92 141.07
  C 216.48 133.92 209.23 127.96 200.64 125.04
  Q 192.88 122.40 187.19 121.86
  C 174.56 120.68 162.78 125.43 152.48 133.25
  C 146.00 138.17 141.63 145.81 138.44 153.42
  Q 137.67 155.26 135.99 156.42
  A 2.14 1.98 21.6 0 1 135.09 156.77
  Q 117.92 159.40 106.81 171.79
  C 101.96 177.19 97.34 183.09 95.82 189.81
  Q 94.54 195.50 93.99 199.78
  A 2.97 2.97 0.0 0 1 91.10 202.37
  Q 77.20 202.66 63.68 202.45
  C 53.75 202.30 44.88 200.74 36.90 196.15
  C 26.76 190.33 20.17 185.56 13.40 176.48
  Q 5.48 165.86 1.21 150.48
  C 0.63 148.39 0.44 145.73 0.00 143.36
  Z"
/>
<path fill="#0077c7" d="
  M 150.02 169.71
  C 152.46 145.16 175.50 128.38 198.66 140.29
  Q 211.08 146.68 214.93 159.79
  Q 215.12 160.45 216.62 167.62
  Q 217.09 169.87 219.80 170.44
  Q 221.98 170.89 229.59 172.17
  C 240.18 173.96 250.03 183.92 253.15 194.21
  C 257.98 210.15 250.66 225.20 236.47 233.41
  A 5.63 5.52 -66.4 0 1 235.01 234.00
  Q 230.73 235.06 225.75 235.04
  Q 192.45 234.95 139.50 235.05
  C 131.90 235.07 126.12 234.21 120.45 229.00
  C 117.15 225.97 113.44 221.63 111.63 217.24
  C 103.06 196.44 115.57 174.22 137.87 171.12
  C 141.40 170.63 144.79 171.35 148.53 171.14
  A 1.60 1.58 -88.5 0 0 150.02 169.71
  Z"
/>
</svg>