<?xml version="1.0" encoding="UTF-8" standalone="no"?>
<!DOCTYPE svg PUBLIC "-//W3C//DTD SVG 1.1//EN" "http://www.w3.org/Graphics/SVG/1.1/DTD/svg11.dtd">
<svg xmlns="http://www.w3.org/2000/svg" version="1.1" viewBox="0.00 0.00 180.00 180.00" width="128" height="128">
<g stroke-width="2.00" fill="none" stroke-linecap="butt">
<path stroke="#fb6ba9" vector-effect="non-scaling-stroke" d="
  M 57.13 50.42
  Q 51.69 40.84 40.90 34.87"
/>
<path stroke="#bc70f4" vector-effect="non-scaling-stroke" d="
  M 137.29 82.00
  L 123.74 66.01"
/>
<path stroke="#32ddee" vector-effect="non-scaling-stroke" d="
  M 155.09 128.55
  L 138.67 113.01"
/>
</g>
<path fill="#fc6f97" d="
  M 57.13 50.42
  Q 51.69 40.84 40.90 34.87
  Q 54.07 21.84 67.24 8.89
  Q 71.70 4.51 74.25 3.94
  Q 79.15 2.84 83.53 7.24
  Q 95.41 19.19 117.06 41.25
  A 0.34 0.33 -45.6 0 1 117.06 41.72
  L 101.90 56.87
  A 0.56 0.55 44.6 0 1 101.11 56.87
  L 76.40 32.17
  A 0.52 0.51 45.4 0 0 75.68 32.16
  L 57.13 50.42
  Z"
/>
<path fill="#d16de9" d="
  M 137.29 82.00
  L 123.74 66.01
  L 164.85 24.90
  A 0.31 0.30 -44.3 0 1 165.28 24.90
  L 179.47 39.09
  A 0.51 0.50 45.4 0 1 179.47 39.80
  L 137.29 82.00
  Z"
/>
<path fill="#f967ba" d="
  M 40.90 34.87
  Q 51.69 40.84 57.13 50.42
  L 16.17 90.75
  A 0.55 0.55 0.0 0 1 15.39 90.75
  L 0.36 75.72
  A 0.64 0.63 -44.7 0 1 0.37 74.82
  L 40.90 34.87
  Z"
/>
<path fill="#a672fe" d="
  M 123.74 66.01
  L 137.29 82.00
  L 102.88 116.39
  A 0.44 0.43 44.5 0 1 102.27 116.39
  L 77.48 91.60
  A 0.45 0.44 44.6 0 0 76.85 91.60
  L 15.24 153.20
  A 0.71 0.71 0.0 0 1 14.24 153.20
  L 0.71 139.67
  A 0.68 0.67 45.3 0 1 0.71 138.72
  L 76.92 62.51
  A 0.38 0.38 0.0 0 1 77.46 62.51
  L 101.85 86.90
  A 0.71 0.71 0.0 0 0 102.86 86.90
  L 123.74 66.01
  Z"
/>
<path fill="#38e6dd" d="
  M 155.09 128.55
  L 138.67 113.01
  L 163.62 88.08
  A 0.45 0.44 44.6 0 1 164.25 88.08
  L 179.47 103.30
  A 0.57 0.57 0.0 0 1 179.47 104.11
  L 155.09 128.55
  Z"
/>
<path fill="#2cd3fe" d="
  M 138.67 113.01
  L 155.09 128.55
  Q 133.04 150.52 110.99 172.48
  Q 103.61 179.83 96.38 172.62
  Q 67.46 143.78 62.41 138.63
  A 0.37 0.37 0.0 0 1 62.42 138.11
  L 77.83 122.70
  A 0.37 0.37 0.0 0 1 78.36 122.70
  L 103.10 147.43
  A 0.81 0.81 0.0 0 0 104.25 147.43
  L 138.67 113.01
  Z"
/>
</svg>