<?xml version="1.0" encoding="UTF-8" standalone="no"?>
<!DOCTYPE svg PUBLIC "-//W3C//DTD SVG 1.1//EN" "http://www.w3.org/Graphics/SVG/1.1/DTD/svg11.dtd">
<svg xmlns="http://www.w3.org/2000/svg" version="1.1" viewBox="0.00 0.00 256.00 256.00" width="128" height="128">
<path fill="#fce301" d="
  M 127.99 0.00
  Q 138.00 0.03 142.99 1.46
  C 154.83 4.86 165.11 8.20 175.49 14.53
  C 190.30 23.56 200.58 36.58 206.66 52.71
  C 209.08 59.13 211.94 63.34 212.98 69.42
  Q 215.19 82.29 212.70 95.43
  A 16.86 16.71 63.5 0 1 211.35 99.53
  Q 208.29 105.93 205.58 112.85
  C 201.14 124.18 192.81 134.36 186.63 143.62
  Q 178.21 156.24 172.50 168.99
  Q 168.87 177.10 167.41 184.13
  Q 165.51 193.22 163.89 200.18
  A 2.07 2.06 3.2 0 1 162.12 201.76
  C 154.50 202.66 146.49 201.96 134.42 201.55
  A 1.15 1.14 -86.2 0 1 133.33 200.30
  Q 133.83 194.76 133.72 189.50
  Q 133.24 167.93 133.43 127.00
  Q 133.45 122.41 134.80 118.31
  A 7.96 7.87 75.5 0 1 136.48 115.42
  C 138.97 112.68 143.14 109.34 144.96 105.82
  Q 150.86 94.39 142.26 84.26
  C 131.10 71.10 112.20 77.42 107.59 92.70
  C 106.20 97.30 107.13 100.68 109.11 104.85
  C 110.81 108.44 115.73 112.09 117.47 115.08
  Q 119.41 118.42 119.88 123.76
  C 120.25 127.90 121.00 136.14 120.94 141.85
  C 120.78 157.66 121.03 169.87 120.58 184.82
  Q 120.34 193.10 120.89 200.31
  A 1.15 1.14 87.7 0 1 119.76 201.54
  Q 109.11 201.69 98.50 202.18
  Q 95.62 202.31 91.41 201.82
  A 1.99 1.99 0.0 0 1 89.71 200.32
  C 88.31 194.50 87.73 188.03 86.35 183.17
  C 81.84 167.27 73.31 152.17 64.21 139.27
  Q 55.37 126.77 52.12 121.06
  C 46.94 111.98 43.20 100.13 42.34 88.62
  C 39.68 53.24 57.76 21.12 91.15 7.90
  Q 104.55 2.60 118.60 0.00
  L 127.99 0.00
  Z"
/>
<rect fill="#6ca2fc" x="-38.08" y="-4.85" transform="translate(126.26,212.54) rotate(-0.1)" width="76.16" height="9.70" rx="3.09"/>
<rect fill="#6ca2fc" x="88.43" y="223.81" width="75.72" height="7.92" rx="2.62"/>
<path fill="#6ca2fc" d="
  M 130.11 256.00
  L 122.52 256.00
  Q 111.16 256.16 103.75 248.66
  A 6.49 6.40 -14.9 0 0 100.71 246.93
  Q 94.40 245.38 92.32 245.01
  C 88.87 244.40 87.63 243.25 87.72 239.99
  A 2.62 2.24 -1.6 0 1 90.16 237.78
  C 102.43 236.91 122.08 237.35 155.88 237.41
  Q 157.31 237.41 162.32 238.18
  Q 164.64 238.54 164.73 240.46
  Q 164.91 244.34 163.08 245.10
  C 160.66 246.10 155.83 246.70 152.76 246.06
  C 151.35 245.76 149.52 246.88 148.46 248.28
  C 143.55 254.80 137.88 255.34 130.11 256.00
  Z"
/>
</svg>