<?xml version="1.0" encoding="UTF-8" standalone="no"?>
<!DOCTYPE svg PUBLIC "-//W3C//DTD SVG 1.1//EN" "http://www.w3.org/Graphics/SVG/1.1/DTD/svg11.dtd">
<svg xmlns="http://www.w3.org/2000/svg" version="1.1" viewBox="0.00 0.00 256.00 256.00" width="128" height="128">
<path fill="#000000" d="
  M 89.78 16.85
  L 89.78 221.89
  A 0.42 0.42 0.0 0 0 90.38 222.26
  L 165.97 185.31
  A 0.42 0.42 0.0 0 0 166.21 184.93
  L 166.21 154.91
  A 0.42 0.42 0.0 0 0 165.61 154.52
  L 118.98 175.96
  A 0.42 0.42 0.0 0 1 118.38 175.57
  L 118.38 34.66
  A 0.42 0.42 0.0 0 1 119.01 34.29
  L 147.18 50.55
  A 0.42 0.42 0.0 0 1 147.39 50.91
  L 147.39 114.64
  A 0.42 0.42 0.0 0 0 147.60 115.00
  L 195.22 142.49
  A 0.42 0.42 0.0 0 1 195.43 142.85
  L 195.43 203.46
  A 0.42 0.42 0.0 0 1 195.19 203.84
  L 88.68 255.91
  A 0.42 0.42 0.0 0 1 88.27 255.89
  L 60.79 237.84
  A 0.42 0.42 0.0 0 1 60.60 237.49
  L 60.60 0.49
  A 0.42 0.42 0.0 0 1 61.23 0.12
  L 89.57 16.49
  A 0.42 0.42 0.0 0 1 89.78 16.85
  Z"
/>
</svg>