<?xml version="1.0" encoding="UTF-8" standalone="no"?>
<!DOCTYPE svg PUBLIC "-//W3C//DTD SVG 1.1//EN" "http://www.w3.org/Graphics/SVG/1.1/DTD/svg11.dtd">
<svg xmlns="http://www.w3.org/2000/svg" version="1.1" viewBox="0.00 0.00 180.00 180.00" width="128" height="128">
<g stroke-width="2.00" fill="none" stroke-linecap="butt">
<path stroke="#a8d89f" vector-effect="non-scaling-stroke" d="
  M 51.95 149.24
  C 51.83 155.46 57.51 160.02 63.45 157.19
  Q 95.39 141.97 121.56 129.61
  Q 125.42 127.79 126.53 126.29
  C 128.96 122.99 128.51 117.71 125.05 115.19
  Q 107.98 102.72 90.83 89.99"
/>
<path stroke="#e7ee90" vector-effect="non-scaling-stroke" d="
  M 90.83 89.99
  Q 106.89 78.10 122.79 66.42
  Q 126.63 63.60 127.37 61.85
  C 129.19 57.56 127.39 53.10 123.13 51.10
  Q 78.33 29.96 62.78 22.38
  A 3.22 3.09 61.0 0 0 61.84 22.09
  Q 56.07 21.25 53.26 25.14
  Q 51.86 27.09 51.88 34.74
  Q 52.02 91.95 51.95 149.24"
/>
<path stroke="#90c730" vector-effect="non-scaling-stroke" d="
  M 90.83 89.99
  Q 90.71 89.75 90.20 89.96"
/>
<path stroke="#76ab33" vector-effect="non-scaling-stroke" d="
  M 90.20 89.96
  Q 90.00 89.31 89.37 88.86
  Q 83.00 84.29 77.23 80.04"
/>
<path stroke="#e7ee90" vector-effect="non-scaling-stroke" d="
  M 77.23 80.04
  L 104.30 60.20
  A 0.23 0.23 0.0 0 0 104.26 59.80
  L 68.43 42.83
  A 0.34 0.33 -77.4 0 0 67.95 43.14
  L 68.19 73.36"
/>
<path stroke="#76ab33" vector-effect="non-scaling-stroke" d="
  M 68.19 73.36
  L 68.17 106.66"
/>
<path stroke="#e7ee90" vector-effect="non-scaling-stroke" d="
  M 68.17 106.66
  L 67.90 137.44"
/>
<path stroke="#90c730" vector-effect="non-scaling-stroke" d="
  M 67.90 137.44
  Q 61.85 140.28 56.06 143.07
  Q 52.89 144.61 51.95 149.24"
/>
<path stroke="#389641" vector-effect="non-scaling-stroke" d="
  M 90.20 89.96
  Q 90.11 90.65 89.39 91.16
  Q 83.46 95.36 77.35 99.90"
/>
<path stroke="#8fbda2" vector-effect="non-scaling-stroke" d="
  M 77.35 99.90
  L 68.17 106.66"
/>
<path stroke="#a8d89f" vector-effect="non-scaling-stroke" d="
  M 67.90 137.44
  L 104.17 120.22
  A 0.33 0.32 50.6 0 0 104.22 119.66
  L 77.35 99.90"
/>
<path stroke="#8fbda2" vector-effect="non-scaling-stroke" d="
  M 77.23 80.04
  L 68.19 73.36"
/>
</g>
<path fill="#ffffff" d="
  M 180.00 0.00
  L 180.00 180.00
  L 0.00 180.00
  L 0.00 0.00
  L 180.00 0.00
  Z
  M 51.95 149.24
  C 51.83 155.46 57.51 160.02 63.45 157.19
  Q 95.39 141.97 121.56 129.61
  Q 125.42 127.79 126.53 126.29
  C 128.96 122.99 128.51 117.71 125.05 115.19
  Q 107.98 102.72 90.83 89.99
  Q 106.89 78.10 122.79 66.42
  Q 126.63 63.60 127.37 61.85
  C 129.19 57.56 127.39 53.10 123.13 51.10
  Q 78.33 29.96 62.78 22.38
  A 3.22 3.09 61.0 0 0 61.84 22.09
  Q 56.07 21.25 53.26 25.14
  Q 51.86 27.09 51.88 34.74
  Q 52.02 91.95 51.95 149.24
  Z"
/>
<path fill="#cedc21" d="
  M 90.83 89.99
  Q 90.71 89.75 90.20 89.96
  Q 90.00 89.31 89.37 88.86
  Q 83.00 84.29 77.23 80.04
  L 104.30 60.20
  A 0.23 0.23 0.0 0 0 104.26 59.80
  L 68.43 42.83
  A 0.34 0.33 -77.4 0 0 67.95 43.14
  L 68.19 73.36
  L 68.17 106.66
  L 67.90 137.44
  Q 61.85 140.28 56.06 143.07
  Q 52.89 144.61 51.95 149.24
  Q 52.02 91.95 51.88 34.74
  Q 51.86 27.09 53.26 25.14
  Q 56.07 21.25 61.84 22.09
  A 3.22 3.09 61.0 0 1 62.78 22.38
  Q 78.33 29.96 123.13 51.10
  C 127.39 53.10 129.19 57.56 127.37 61.85
  Q 126.63 63.60 122.79 66.42
  Q 106.89 78.10 90.83 89.99
  Z"
/>
<path fill="#ffffff" d="
  M 77.23 80.04
  L 68.19 73.36
  L 67.95 43.14
  A 0.34 0.33 -77.4 0 1 68.43 42.83
  L 104.26 59.80
  A 0.23 0.23 0.0 0 1 104.30 60.20
  L 77.23 80.04
  Z"
/>
<path fill="#1e7a44" d="
  M 68.19 73.36
  L 77.23 80.04
  Q 83.00 84.29 89.37 88.86
  Q 90.00 89.31 90.20 89.96
  Q 90.11 90.65 89.39 91.16
  Q 83.46 95.36 77.35 99.90
  L 68.17 106.66
  L 68.19 73.36
  Z"
/>
<path fill="#51b13e" d="
  M 90.83 89.99
  Q 107.98 102.72 125.05 115.19
  C 128.51 117.71 128.96 122.99 126.53 126.29
  Q 125.42 127.79 121.56 129.61
  Q 95.39 141.97 63.45 157.19
  C 57.51 160.02 51.83 155.46 51.95 149.24
  Q 52.89 144.61 56.06 143.07
  Q 61.85 140.28 67.90 137.44
  L 104.17 120.22
  A 0.33 0.32 50.6 0 0 104.22 119.66
  L 77.35 99.90
  Q 83.46 95.36 89.39 91.16
  Q 90.11 90.65 90.20 89.96
  Q 90.71 89.75 90.83 89.99
  Z"
/>
<path fill="#ffffff" d="
  M 77.35 99.90
  L 104.22 119.66
  A 0.33 0.32 50.6 0 1 104.17 120.22
  L 67.90 137.44
  L 68.17 106.66
  L 77.35 99.90
  Z"
/>
</svg>