<?xml version="1.0" encoding="UTF-8" standalone="no"?>
<!DOCTYPE svg PUBLIC "-//W3C//DTD SVG 1.1//EN" "http://www.w3.org/Graphics/SVG/1.1/DTD/svg11.dtd">
<svg xmlns="http://www.w3.org/2000/svg" version="1.1" viewBox="0.00 0.00 192.00 192.00" width="128" height="128">
<g stroke-width="2.00" fill="none" stroke-linecap="butt">
<path stroke="#a38fab" vector-effect="non-scaling-stroke" d="
  M 55.62 28.99
  A 0.57 0.57 0.0 0 0 55.05 28.42
  L 29.30 28.42
  A 0.57 0.57 0.0 0 0 28.73 28.99
  L 28.73 108.37
  A 0.57 0.57 0.0 0 0 29.30 108.94
  L 81.95 108.94
  A 0.57 0.57 0.0 0 0 82.52 108.37
  L 82.52 55.75
  A 0.57 0.57 0.0 0 0 81.95 55.18
  L 56.19 55.18
  A 0.57 0.57 0.0 0 1 55.62 54.61
  L 55.62 28.99"
/>
<path stroke="#a38fab" vector-effect="non-scaling-stroke" d="
  M 109.44 29.15
  L 109.41 108.43
  A 0.53 0.52 0.0 0 0 109.94 108.95
  L 162.72 108.96
  A 0.47 0.47 0.0 0 0 163.19 108.49
  L 163.22 55.66
  A 0.45 0.44 -90.0 0 0 162.78 55.21
  L 137.08 55.18
  A 0.76 0.76 0.0 0 1 136.32 54.42
  L 136.34 28.95
  A 0.53 0.52 -90.0 0 0 135.82 28.42
  L 110.18 28.42
  A 0.74 0.73 0.0 0 0 109.44 29.15"
/>
<path stroke="#a38fab" vector-effect="non-scaling-stroke" d="
  M 95.97 135.84
  Q 56.66 135.84 56.20 135.83
  A 0.55 0.55 0.0 0 1 55.63 135.28
  L 55.58 122.76
  A 0.35 0.35 0.0 0 0 55.23 122.41
  L 29.39 122.41
  A 0.65 0.65 0.0 0 0 28.74 123.06
  L 28.74 148.75
  A 0.56 0.56 0.0 0 0 29.30 149.31
  L 55.07 149.31
  A 0.53 0.53 0.0 0 1 55.60 149.84
  L 55.60 162.21
  A 0.47 0.46 -88.8 0 0 56.04 162.68
  Q 57.11 162.73 95.97 162.73
  Q 134.83 162.74 135.89 162.69
  A 0.47 0.46 88.8 0 0 136.33 162.22
  L 136.33 149.85
  A 0.53 0.53 0.0 0 1 136.86 149.32
  L 162.63 149.32
  A 0.56 0.56 0.0 0 0 163.19 148.76
  L 163.20 123.07
  A 0.65 0.65 0.0 0 0 162.55 122.42
  L 136.71 122.42
  A 0.35 0.35 0.0 0 0 136.36 122.77
  L 136.31 135.29
  A 0.55 0.55 0.0 0 1 135.74 135.84
  Q 135.27 135.85 95.97 135.84"
/>
</g>
<path fill="#ffffff" d="
  M 192.00 0.00
  L 192.00 192.00
  L 0.00 192.00
  L 0.00 0.00
  L 192.00 0.00
  Z
  M 55.62 28.99
  A 0.57 0.57 0.0 0 0 55.05 28.42
  L 29.30 28.42
  A 0.57 0.57 0.0 0 0 28.73 28.99
  L 28.73 108.37
  A 0.57 0.57 0.0 0 0 29.30 108.94
  L 81.95 108.94
  A 0.57 0.57 0.0 0 0 82.52 108.37
  L 82.52 55.75
  A 0.57 0.57 0.0 0 0 81.95 55.18
  L 56.19 55.18
  A 0.57 0.57 0.0 0 1 55.62 54.61
  L 55.62 28.99
  Z
  M 109.44 29.15
  L 109.41 108.43
  A 0.53 0.52 0.0 0 0 109.94 108.95
  L 162.72 108.96
  A 0.47 0.47 0.0 0 0 163.19 108.49
  L 163.22 55.66
  A 0.45 0.44 -90.0 0 0 162.78 55.21
  L 137.08 55.18
  A 0.76 0.76 0.0 0 1 136.32 54.42
  L 136.34 28.95
  A 0.53 0.52 -90.0 0 0 135.82 28.42
  L 110.18 28.42
  A 0.74 0.73 0.0 0 0 109.44 29.15
  Z
  M 95.97 135.84
  Q 56.66 135.84 56.20 135.83
  A 0.55 0.55 0.0 0 1 55.63 135.28
  L 55.58 122.76
  A 0.35 0.35 0.0 0 0 55.23 122.41
  L 29.39 122.41
  A 0.65 0.65 0.0 0 0 28.74 123.06
  L 28.74 148.75
  A 0.56 0.56 0.0 0 0 29.30 149.31
  L 55.07 149.31
  A 0.53 0.53 0.0 0 1 55.60 149.84
  L 55.60 162.21
  A 0.47 0.46 -88.8 0 0 56.04 162.68
  Q 57.11 162.73 95.97 162.73
  Q 134.83 162.74 135.89 162.69
  A 0.47 0.46 88.8 0 0 136.33 162.22
  L 136.33 149.85
  A 0.53 0.53 0.0 0 1 136.86 149.32
  L 162.63 149.32
  A 0.56 0.56 0.0 0 0 163.19 148.76
  L 163.20 123.07
  A 0.65 0.65 0.0 0 0 162.55 122.42
  L 136.71 122.42
  A 0.35 0.35 0.0 0 0 136.36 122.77
  L 136.31 135.29
  A 0.55 0.55 0.0 0 1 135.74 135.84
  Q 135.27 135.85 95.97 135.84
  Z"
/>
<path fill="#461e56" d="
  M 55.62 28.99
  L 55.62 54.61
  A 0.57 0.57 0.0 0 0 56.19 55.18
  L 81.95 55.18
  A 0.57 0.57 0.0 0 1 82.52 55.75
  L 82.52 108.37
  A 0.57 0.57 0.0 0 1 81.95 108.94
  L 29.30 108.94
  A 0.57 0.57 0.0 0 1 28.73 108.37
  L 28.73 28.99
  A 0.57 0.57 0.0 0 1 29.30 28.42
  L 55.05 28.42
  A 0.57 0.57 0.0 0 1 55.62 28.99
  Z"
/>
<path fill="#461e56" d="
  M 109.44 29.15
  A 0.74 0.73 0.0 0 1 110.18 28.42
  L 135.82 28.42
  A 0.53 0.52 -90.0 0 1 136.34 28.95
  L 136.32 54.42
  A 0.76 0.76 0.0 0 0 137.08 55.18
  L 162.78 55.21
  A 0.45 0.44 -90.0 0 1 163.22 55.66
  L 163.19 108.49
  A 0.47 0.47 0.0 0 1 162.72 108.96
  L 109.94 108.95
  A 0.53 0.52 0.0 0 1 109.41 108.43
  L 109.44 29.15
  Z"
/>
<path fill="#461e56" d="
  M 95.97 162.73
  Q 57.11 162.73 56.04 162.68
  A 0.47 0.46 -88.8 0 1 55.60 162.21
  L 55.60 149.84
  A 0.53 0.53 0.0 0 0 55.07 149.31
  L 29.30 149.31
  A 0.56 0.56 0.0 0 1 28.74 148.75
  L 28.74 123.06
  A 0.65 0.65 0.0 0 1 29.39 122.41
  L 55.23 122.41
  A 0.35 0.35 0.0 0 1 55.58 122.76
  L 55.63 135.28
  A 0.55 0.55 0.0 0 0 56.20 135.83
  Q 56.66 135.84 95.97 135.84
  Q 135.27 135.85 135.74 135.84
  A 0.55 0.55 0.0 0 0 136.31 135.29
  L 136.36 122.77
  A 0.35 0.35 0.0 0 1 136.71 122.42
  L 162.55 122.42
  A 0.65 0.65 0.0 0 1 163.20 123.07
  L 163.19 148.76
  A 0.56 0.56 0.0 0 1 162.63 149.32
  L 136.86 149.32
  A 0.53 0.53 0.0 0 0 136.33 149.85
  L 136.33 162.22
  A 0.47 0.46 88.8 0 1 135.89 162.69
  Q 134.83 162.74 95.97 162.73
  Z"
/>
</svg>