<?xml version="1.0" encoding="UTF-8" standalone="no"?>
<!DOCTYPE svg PUBLIC "-//W3C//DTD SVG 1.1//EN" "http://www.w3.org/Graphics/SVG/1.1/DTD/svg11.dtd">
<svg xmlns="http://www.w3.org/2000/svg" version="1.1" viewBox="0.00 0.00 256.00 256.00" width="128" height="128">
<g stroke-width="2.00" fill="none" stroke-linecap="butt">
<path stroke="#7c7f80" vector-effect="non-scaling-stroke" d="
  M 134.80 126.17
  Q 138.48 126.17 138.69 126.18
  A 0.55 0.55 0.0 0 1 139.20 126.73
  L 139.24 145.97
  A 3.62 3.62 0.0 0 0 142.86 149.58
  L 143.39 149.58
  A 3.72 3.72 0.0 0 0 147.11 145.86
  L 147.13 100.18
  A 3.72 3.72 0.0 0 0 143.46 96.46
  L 143.12 96.44
  A 3.64 3.64 0.0 0 0 139.23 100.07
  L 139.23 118.40
  A 0.34 0.34 0.0 0 1 138.90 118.74
  Q 136.73 118.77 134.80 118.77
  Q 132.87 118.77 130.71 118.74
  A 0.34 0.34 0.0 0 1 130.38 118.40
  L 130.38 100.07
  A 3.64 3.64 0.0 0 0 126.49 96.44
  L 126.15 96.46
  A 3.72 3.72 0.0 0 0 122.48 100.18
  L 122.49 145.86
  A 3.72 3.72 0.0 0 0 126.20 149.58
  L 126.73 149.58
  A 3.62 3.62 0.0 0 0 130.36 145.97
  L 130.40 126.73
  A 0.55 0.55 0.0 0 1 130.91 126.18
  Q 131.13 126.17 134.80 126.17"
/>
<path stroke="#7c7f80" vector-effect="non-scaling-stroke" d="
  M 211.02 146.74
  Q 212.38 150.58 216.09 149.23
  A 3.29 3.29 0.0 0 0 218.25 146.14
  L 218.28 100.26
  A 3.68 3.67 -89.0 0 0 214.74 96.58
  L 214.43 96.55
  A 3.45 3.45 0.0 0 0 210.68 99.99
  L 210.68 112.79
  A 0.34 0.34 0.0 0 1 210.10 113.03
  C 205.32 108.34 197.05 110.41 196.90 117.82
  Q 196.87 119.27 196.86 140.24
  Q 196.85 143.91 197.63 145.54
  C 200.20 150.91 206.97 151.24 210.45 146.65
  A 0.33 0.33 0.0 0 1 211.02 146.74"
/>
<path stroke="#7c7f80" vector-effect="non-scaling-stroke" d="
  M 56.64 121.86
  C 60.56 119.05 60.60 115.48 60.64 110.74
  C 60.69 105.10 60.40 100.18 54.41 97.83
  C 51.26 96.60 45.93 97.13 41.49 97.15
  Q 37.52 97.16 37.51 101.52
  Q 37.46 140.03 37.54 144.99
  Q 37.60 148.57 41.08 148.87
  C 45.23 149.24 53.45 149.62 56.87 147.24
  C 61.13 144.29 61.92 141.12 61.98 135.78
  C 62.05 130.20 62.19 125.12 56.67 122.27
  A 0.24 0.24 0.0 0 1 56.64 121.86"
/>
<path stroke="#7c7f80" vector-effect="non-scaling-stroke" d="
  M 96.98 135.48
  C 96.52 136.07 95.64 136.45 95.21 137.19
  Q 92.08 142.46 96.31 146.12
  A 0.50 0.49 -37.5 0 1 96.20 146.94
  Q 92.51 148.71 92.29 153.02
  C 91.88 161.08 100.59 162.25 106.75 161.57
  C 111.90 161.00 116.64 158.19 117.62 152.96
  C 118.61 147.67 116.70 142.76 111.10 141.43
  Q 109.04 140.94 102.97 141.07
  A 1.89 1.88 -1.1 0 1 101.04 139.22
  L 101.04 139.02
  A 1.42 1.42 0.0 0 1 102.64 137.59
  C 108.61 138.34 113.73 136.11 115.31 129.92
  Q 115.99 127.27 115.51 119.65
  A 4.30 4.25 28.6 0 0 114.94 117.76
  L 114.17 116.42
  A 0.44 0.44 0.0 0 1 114.55 115.76
  L 116.02 115.76
  A 2.45 2.45 0.0 0 0 118.47 113.31
  L 118.47 111.41
  A 2.24 2.24 0.0 0 0 116.05 109.18
  Q 112.98 109.43 110.27 110.04
  C 106.97 110.77 103.14 110.10 100.10 111.35
  C 93.41 114.09 93.93 120.55 94.15 127.81
  Q 94.27 131.73 96.94 134.62
  A 0.67 0.67 0.0 0 1 96.98 135.48"
/>
<path stroke="#7c7f80" vector-effect="non-scaling-stroke" d="
  M 161.41 132.39
  Q 162.27 132.42 170.81 132.35
  Q 173.57 132.33 173.86 129.88
  Q 174.02 128.41 173.93 121.35
  C 173.87 116.87 172.31 113.03 168.34 111.45
  C 161.59 108.78 153.48 111.88 153.20 120.02
  Q 153.04 124.42 153.09 137.70
  Q 153.10 142.84 154.06 144.66
  C 158.78 153.70 175.77 150.65 173.61 138.83
  Q 173.33 137.28 171.83 136.75
  Q 168.64 135.61 167.03 138.08
  A 1.80 1.75 -25.7 0 0 166.75 138.84
  L 166.43 141.63
  A 2.09 2.09 0.0 0 1 164.83 143.41
  Q 161.39 144.20 160.93 141.80
  Q 160.26 138.34 160.72 132.99
  A 0.66 0.66 0.0 0 1 161.41 132.39"
/>
<path stroke="#7c7f80" vector-effect="non-scaling-stroke" d="
  M 81.18 146.83
  C 82.09 151.11 88.14 150.44 88.15 145.49
  Q 88.17 122.05 88.15 114.61
  A 3.65 3.65 0.0 0 0 84.46 110.85
  L 84.29 110.85
  A 3.76 3.75 90.0 0 0 80.53 114.62
  L 80.58 140.12
  A 2.89 2.88 -88.9 0 1 77.58 143.01
  L 77.56 143.01
  A 3.23 3.22 -88.2 0 1 74.54 139.79
  L 74.55 114.50
  A 3.52 3.52 0.0 0 0 70.97 110.98
  L 70.70 110.99
  A 3.74 3.73 -89.7 0 0 66.96 114.70
  Q 66.89 124.03 66.97 137.98
  C 67.00 142.70 66.87 147.66 71.35 149.25
  C 74.14 150.24 78.37 150.09 79.98 147.41
  Q 80.37 146.77 80.55 146.61
  A 0.39 0.39 0.0 0 1 81.18 146.83"
/>
<path stroke="#7c7f80" vector-effect="non-scaling-stroke" d="
  M 186.28 113.82
  Q 185.41 110.44 181.95 111.34
  Q 179.56 111.95 179.52 114.26
  Q 179.44 119.30 179.47 145.80
  A 3.65 3.65 0.0 0 0 183.12 149.44
  L 183.47 149.44
  A 3.62 3.62 0.0 0 0 187.09 145.82
  L 187.09 119.36
  A 1.03 1.03 0.0 0 1 188.19 118.33
  L 192.00 118.57
  A 0.95 0.92 -54.7 0 0 192.48 118.48
  C 195.29 117.12 195.79 111.90 192.47 110.93
  Q 188.54 109.79 186.93 113.86
  A 0.34 0.34 0.0 0 1 186.28 113.82"
/>
<path stroke="#315c72" vector-effect="non-scaling-stroke" d="
  M 233.14 144.91
  A 4.62 4.62 0.0 0 0 228.52 140.29
  A 4.62 4.62 0.0 0 0 223.90 144.91
  A 4.62 4.62 0.0 0 0 228.52 149.53
  A 4.62 4.62 0.0 0 0 233.14 144.91"
/>
<path stroke="#7c7f80" vector-effect="non-scaling-stroke" d="
  M 210.65 119.69
  A 2.52 2.52 0.0 0 0 208.13 117.17
  L 206.97 117.17
  A 2.52 2.52 0.0 0 0 204.45 119.69
  L 204.45 140.75
  A 2.52 2.52 0.0 0 0 206.97 143.27
  L 208.13 143.27
  A 2.52 2.52 0.0 0 0 210.65 140.75
  L 210.65 119.69"
/>
<path stroke="#7c7f80" vector-effect="non-scaling-stroke" d="
  M 45.37 104.37
  L 45.35 118.45
  A 0.47 0.47 0.0 0 0 45.82 118.92
  L 48.60 118.93
  A 4.25 4.07 0.1 0 0 52.85 114.87
  L 52.87 107.99
  A 4.25 4.07 0.1 0 0 48.62 103.91
  L 45.84 103.90
  A 0.47 0.47 0.0 0 0 45.37 104.37"
/>
<path stroke="#7c7f80" vector-effect="non-scaling-stroke" d="
  M 45.34 126.29
  L 45.34 141.67
  A 0.48 0.48 0.0 0 0 45.82 142.15
  L 49.33 142.15
  A 4.89 4.89 0.0 0 0 54.22 137.26
  L 54.22 130.70
  A 4.89 4.89 0.0 0 0 49.33 125.81
  L 45.82 125.81
  A 0.48 0.48 0.0 0 0 45.34 126.29"
/>
<path stroke="#7c7f80" vector-effect="non-scaling-stroke" d="
  M 108.34 120.07
  A 3.29 3.29 0.0 0 0 105.05 116.78
  L 104.69 116.78
  A 3.29 3.29 0.0 0 0 101.40 120.07
  L 101.40 128.27
  A 3.29 3.29 0.0 0 0 104.69 131.56
  L 105.05 131.56
  A 3.29 3.29 0.0 0 0 108.34 128.27
  L 108.34 120.07"
/>
<path stroke="#7c7f80" vector-effect="non-scaling-stroke" d="
  M 101.95 147.40
  A 4.52 2.96 88.5 0 0 99.64 151.13
  C 99.11 157.15 107.88 156.80 110.14 152.99
  A 2.54 2.47 -27.4 0 0 110.46 152.03
  C 110.93 147.70 107.98 147.38 104.76 147.37
  Q 102.08 147.36 101.95 147.40"
/>
<path stroke="#7c7f80" vector-effect="non-scaling-stroke" d="
  M 161.02 126.37
  L 166.16 126.37
  A 0.40 0.40 0.0 0 0 166.56 125.97
  L 166.56 119.90
  A 3.01 2.77 90.0 0 0 163.79 116.89
  L 163.39 116.89
  A 3.01 2.77 -90.0 0 0 160.62 119.90
  L 160.62 125.97
  A 0.40 0.40 0.0 0 0 161.02 126.37"
/>
</g>
<path fill="#0d0d0d" d="
  M 255.44 127.90
  A 127.51 127.51 0.0 0 1 127.93 255.41
  A 127.51 127.51 0.0 0 1 0.42 127.90
  A 127.51 127.51 0.0 0 1 127.93 0.39
  A 127.51 127.51 0.0 0 1 255.44 127.90
  Z
  M 134.80 126.17
  Q 138.48 126.17 138.69 126.18
  A 0.55 0.55 0.0 0 1 139.20 126.73
  L 139.24 145.97
  A 3.62 3.62 0.0 0 0 142.86 149.58
  L 143.39 149.58
  A 3.72 3.72 0.0 0 0 147.11 145.86
  L 147.13 100.18
  A 3.72 3.72 0.0 0 0 143.46 96.46
  L 143.12 96.44
  A 3.64 3.64 0.0 0 0 139.23 100.07
  L 139.23 118.40
  A 0.34 0.34 0.0 0 1 138.90 118.74
  Q 136.73 118.77 134.80 118.77
  Q 132.87 118.77 130.71 118.74
  A 0.34 0.34 0.0 0 1 130.38 118.40
  L 130.38 100.07
  A 3.64 3.64 0.0 0 0 126.49 96.44
  L 126.15 96.46
  A 3.72 3.72 0.0 0 0 122.48 100.18
  L 122.49 145.86
  A 3.72 3.72 0.0 0 0 126.20 149.58
  L 126.73 149.58
  A 3.62 3.62 0.0 0 0 130.36 145.97
  L 130.40 126.73
  A 0.55 0.55 0.0 0 1 130.91 126.18
  Q 131.13 126.17 134.80 126.17
  Z
  M 211.02 146.74
  Q 212.38 150.58 216.09 149.23
  A 3.29 3.29 0.0 0 0 218.25 146.14
  L 218.28 100.26
  A 3.68 3.67 -89.0 0 0 214.74 96.58
  L 214.43 96.55
  A 3.45 3.45 0.0 0 0 210.68 99.99
  L 210.68 112.79
  A 0.34 0.34 0.0 0 1 210.10 113.03
  C 205.32 108.34 197.05 110.41 196.90 117.82
  Q 196.87 119.27 196.86 140.24
  Q 196.85 143.91 197.63 145.54
  C 200.20 150.91 206.97 151.24 210.45 146.65
  A 0.33 0.33 0.0 0 1 211.02 146.74
  Z
  M 56.64 121.86
  C 60.56 119.05 60.60 115.48 60.64 110.74
  C 60.69 105.10 60.40 100.18 54.41 97.83
  C 51.26 96.60 45.93 97.13 41.49 97.15
  Q 37.52 97.16 37.51 101.52
  Q 37.46 140.03 37.54 144.99
  Q 37.60 148.57 41.08 148.87
  C 45.23 149.24 53.45 149.62 56.87 147.24
  C 61.13 144.29 61.92 141.12 61.98 135.78
  C 62.05 130.20 62.19 125.12 56.67 122.27
  A 0.24 0.24 0.0 0 1 56.64 121.86
  Z
  M 96.98 135.48
  C 96.52 136.07 95.64 136.45 95.21 137.19
  Q 92.08 142.46 96.31 146.12
  A 0.50 0.49 -37.5 0 1 96.20 146.94
  Q 92.51 148.71 92.29 153.02
  C 91.88 161.08 100.59 162.25 106.75 161.57
  C 111.90 161.00 116.64 158.19 117.62 152.96
  C 118.61 147.67 116.70 142.76 111.10 141.43
  Q 109.04 140.94 102.97 141.07
  A 1.89 1.88 -1.1 0 1 101.04 139.22
  L 101.04 139.02
  A 1.42 1.42 0.0 0 1 102.64 137.59
  C 108.61 138.34 113.73 136.11 115.31 129.92
  Q 115.99 127.27 115.51 119.65
  A 4.30 4.25 28.6 0 0 114.94 117.76
  L 114.17 116.42
  A 0.44 0.44 0.0 0 1 114.55 115.76
  L 116.02 115.76
  A 2.45 2.45 0.0 0 0 118.47 113.31
  L 118.47 111.41
  A 2.24 2.24 0.0 0 0 116.05 109.18
  Q 112.98 109.43 110.27 110.04
  C 106.97 110.77 103.14 110.10 100.10 111.35
  C 93.41 114.09 93.93 120.55 94.15 127.81
  Q 94.27 131.73 96.94 134.62
  A 0.67 0.67 0.0 0 1 96.98 135.48
  Z
  M 161.41 132.39
  Q 162.27 132.42 170.81 132.35
  Q 173.57 132.33 173.86 129.88
  Q 174.02 128.41 173.93 121.35
  C 173.87 116.87 172.31 113.03 168.34 111.45
  C 161.59 108.78 153.48 111.88 153.20 120.02
  Q 153.04 124.42 153.09 137.70
  Q 153.10 142.84 154.06 144.66
  C 158.78 153.70 175.77 150.65 173.61 138.83
  Q 173.33 137.28 171.83 136.75
  Q 168.64 135.61 167.03 138.08
  A 1.80 1.75 -25.7 0 0 166.75 138.84
  L 166.43 141.63
  A 2.09 2.09 0.0 0 1 164.83 143.41
  Q 161.39 144.20 160.93 141.80
  Q 160.26 138.34 160.72 132.99
  A 0.66 0.66 0.0 0 1 161.41 132.39
  Z
  M 81.18 146.83
  C 82.09 151.11 88.14 150.44 88.15 145.49
  Q 88.17 122.05 88.15 114.61
  A 3.65 3.65 0.0 0 0 84.46 110.85
  L 84.29 110.85
  A 3.76 3.75 90.0 0 0 80.53 114.62
  L 80.58 140.12
  A 2.89 2.88 -88.9 0 1 77.58 143.01
  L 77.56 143.01
  A 3.23 3.22 -88.2 0 1 74.54 139.79
  L 74.55 114.50
  A 3.52 3.52 0.0 0 0 70.97 110.98
  L 70.70 110.99
  A 3.74 3.73 -89.7 0 0 66.96 114.70
  Q 66.89 124.03 66.97 137.98
  C 67.00 142.70 66.87 147.66 71.35 149.25
  C 74.14 150.24 78.37 150.09 79.98 147.41
  Q 80.37 146.77 80.55 146.61
  A 0.39 0.39 0.0 0 1 81.18 146.83
  Z
  M 186.28 113.82
  Q 185.41 110.44 181.95 111.34
  Q 179.56 111.95 179.52 114.26
  Q 179.44 119.30 179.47 145.80
  A 3.65 3.65 0.0 0 0 183.12 149.44
  L 183.47 149.44
  A 3.62 3.62 0.0 0 0 187.09 145.82
  L 187.09 119.36
  A 1.03 1.03 0.0 0 1 188.19 118.33
  L 192.00 118.57
  A 0.95 0.92 -54.7 0 0 192.48 118.48
  C 195.29 117.12 195.79 111.90 192.47 110.93
  Q 188.54 109.79 186.93 113.86
  A 0.34 0.34 0.0 0 1 186.28 113.82
  Z
  M 233.14 144.91
  A 4.62 4.62 0.0 0 0 228.52 140.29
  A 4.62 4.62 0.0 0 0 223.90 144.91
  A 4.62 4.62 0.0 0 0 228.52 149.53
  A 4.62 4.62 0.0 0 0 233.14 144.91
  Z"
/>
<path fill="#eaf0f3" d="
  M 134.80 118.77
  Q 136.73 118.77 138.90 118.74
  A 0.34 0.34 0.0 0 0 139.23 118.40
  L 139.23 100.07
  A 3.64 3.64 0.0 0 1 143.12 96.44
  L 143.46 96.46
  A 3.72 3.72 0.0 0 1 147.13 100.18
  L 147.11 145.86
  A 3.72 3.72 0.0 0 1 143.39 149.58
  L 142.86 149.58
  A 3.62 3.62 0.0 0 1 139.24 145.97
  L 139.20 126.73
  A 0.55 0.55 0.0 0 0 138.69 126.18
  Q 138.48 126.17 134.80 126.17
  Q 131.13 126.17 130.91 126.18
  A 0.55 0.55 0.0 0 0 130.40 126.73
  L 130.36 145.97
  A 3.62 3.62 0.0 0 1 126.73 149.58
  L 126.20 149.58
  A 3.72 3.72 0.0 0 1 122.49 145.86
  L 122.48 100.18
  A 3.72 3.72 0.0 0 1 126.15 96.46
  L 126.49 96.44
  A 3.64 3.64 0.0 0 1 130.38 100.07
  L 130.38 118.40
  A 0.34 0.34 0.0 0 0 130.71 118.74
  Q 132.87 118.77 134.80 118.77
  Z"
/>
<path fill="#eaf0f3" d="
  M 211.02 146.74
  A 0.33 0.33 0.0 0 0 210.45 146.65
  C 206.97 151.24 200.20 150.91 197.63 145.54
  Q 196.85 143.91 196.86 140.24
  Q 196.87 119.27 196.90 117.82
  C 197.05 110.41 205.32 108.34 210.10 113.03
  A 0.34 0.34 0.0 0 0 210.68 112.79
  L 210.68 99.99
  A 3.45 3.45 0.0 0 1 214.43 96.55
  L 214.74 96.58
  A 3.68 3.67 -89.0 0 1 218.28 100.26
  L 218.25 146.14
  A 3.29 3.29 0.0 0 1 216.09 149.23
  Q 212.38 150.58 211.02 146.74
  Z
  M 210.65 119.69
  A 2.52 2.52 0.0 0 0 208.13 117.17
  L 206.97 117.17
  A 2.52 2.52 0.0 0 0 204.45 119.69
  L 204.45 140.75
  A 2.52 2.52 0.0 0 0 206.97 143.27
  L 208.13 143.27
  A 2.52 2.52 0.0 0 0 210.65 140.75
  L 210.65 119.69
  Z"
/>
<path fill="#eaf0f3" d="
  M 56.64 121.86
  A 0.24 0.24 0.0 0 0 56.67 122.27
  C 62.19 125.12 62.05 130.20 61.98 135.78
  C 61.92 141.12 61.13 144.29 56.87 147.24
  C 53.45 149.62 45.23 149.24 41.08 148.87
  Q 37.60 148.57 37.54 144.99
  Q 37.46 140.03 37.51 101.52
  Q 37.52 97.16 41.49 97.15
  C 45.93 97.13 51.26 96.60 54.41 97.83
  C 60.40 100.18 60.69 105.10 60.64 110.74
  C 60.60 115.48 60.56 119.05 56.64 121.86
  Z
  M 45.37 104.37
  L 45.35 118.45
  A 0.47 0.47 0.0 0 0 45.82 118.92
  L 48.60 118.93
  A 4.25 4.07 0.1 0 0 52.85 114.87
  L 52.87 107.99
  A 4.25 4.07 0.1 0 0 48.62 103.91
  L 45.84 103.90
  A 0.47 0.47 0.0 0 0 45.37 104.37
  Z
  M 45.34 126.29
  L 45.34 141.67
  A 0.48 0.48 0.0 0 0 45.82 142.15
  L 49.33 142.15
  A 4.89 4.89 0.0 0 0 54.22 137.26
  L 54.22 130.70
  A 4.89 4.89 0.0 0 0 49.33 125.81
  L 45.82 125.81
  A 0.48 0.48 0.0 0 0 45.34 126.29
  Z"
/>
<path fill="#0d0d0d" d="
  M 45.37 104.37
  A 0.47 0.47 0.0 0 1 45.84 103.90
  L 48.62 103.91
  A 4.25 4.07 0.1 0 1 52.87 107.99
  L 52.85 114.87
  A 4.25 4.07 0.1 0 1 48.60 118.93
  L 45.82 118.92
  A 0.47 0.47 0.0 0 1 45.35 118.45
  L 45.37 104.37
  Z"
/>
<path fill="#eaf0f3" d="
  M 96.94 134.62
  Q 94.27 131.73 94.15 127.81
  C 93.93 120.55 93.41 114.09 100.10 111.35
  C 103.14 110.10 106.97 110.77 110.27 110.04
  Q 112.98 109.43 116.05 109.18
  A 2.24 2.24 0.0 0 1 118.47 111.41
  L 118.47 113.31
  A 2.45 2.45 0.0 0 1 116.02 115.76
  L 114.55 115.76
  A 0.44 0.44 0.0 0 0 114.17 116.42
  L 114.94 117.76
  A 4.30 4.25 28.6 0 1 115.51 119.65
  Q 115.99 127.27 115.31 129.92
  C 113.73 136.11 108.61 138.34 102.64 137.59
  A 1.42 1.42 0.0 0 0 101.04 139.02
  L 101.04 139.22
  A 1.89 1.88 -1.1 0 0 102.97 141.07
  Q 109.04 140.94 111.10 141.43
  C 116.70 142.76 118.61 147.67 117.62 152.96
  C 116.64 158.19 111.90 161.00 106.75 161.57
  C 100.59 162.25 91.88 161.08 92.29 153.02
  Q 92.51 148.71 96.20 146.94
  A 0.50 0.49 -37.5 0 0 96.31 146.12
  Q 92.08 142.46 95.21 137.19
  C 95.64 136.45 96.52 136.07 96.98 135.48
  A 0.67 0.67 0.0 0 0 96.94 134.62
  Z
  M 108.34 120.07
  A 3.29 3.29 0.0 0 0 105.05 116.78
  L 104.69 116.78
  A 3.29 3.29 0.0 0 0 101.40 120.07
  L 101.40 128.27
  A 3.29 3.29 0.0 0 0 104.69 131.56
  L 105.05 131.56
  A 3.29 3.29 0.0 0 0 108.34 128.27
  L 108.34 120.07
  Z
  M 101.95 147.40
  A 4.52 2.96 88.5 0 0 99.64 151.13
  C 99.11 157.15 107.88 156.80 110.14 152.99
  A 2.54 2.47 -27.4 0 0 110.46 152.03
  C 110.93 147.70 107.98 147.38 104.76 147.37
  Q 102.08 147.36 101.95 147.40
  Z"
/>
<path fill="#eaf0f3" d="
  M 160.72 132.99
  Q 160.26 138.34 160.93 141.80
  Q 161.39 144.20 164.83 143.41
  A 2.09 2.09 0.0 0 0 166.43 141.63
  L 166.75 138.84
  A 1.80 1.75 -25.7 0 1 167.03 138.08
  Q 168.64 135.61 171.83 136.75
  Q 173.33 137.28 173.61 138.83
  C 175.77 150.65 158.78 153.70 154.06 144.66
  Q 153.10 142.84 153.09 137.70
  Q 153.04 124.42 153.20 120.02
  C 153.48 111.88 161.59 108.78 168.34 111.45
  C 172.31 113.03 173.87 116.87 173.93 121.35
  Q 174.02 128.41 173.86 129.88
  Q 173.57 132.33 170.81 132.35
  Q 162.27 132.42 161.41 132.39
  A 0.66 0.66 0.0 0 0 160.72 132.99
  Z
  M 161.02 126.37
  L 166.16 126.37
  A 0.40 0.40 0.0 0 0 166.56 125.97
  L 166.56 119.90
  A 3.01 2.77 90.0 0 0 163.79 116.89
  L 163.39 116.89
  A 3.01 2.77 -90.0 0 0 160.62 119.90
  L 160.62 125.97
  A 0.40 0.40 0.0 0 0 161.02 126.37
  Z"
/>
<path fill="#eaf0f3" d="
  M 80.55 146.61
  Q 80.37 146.77 79.98 147.41
  C 78.37 150.09 74.14 150.24 71.35 149.25
  C 66.87 147.66 67.00 142.70 66.97 137.98
  Q 66.89 124.03 66.96 114.70
  A 3.74 3.73 -89.7 0 1 70.70 110.99
  L 70.97 110.98
  A 3.52 3.52 0.0 0 1 74.55 114.50
  L 74.54 139.79
  A 3.23 3.22 -88.2 0 0 77.56 143.01
  L 77.58 143.01
  A 2.89 2.88 -88.9 0 0 80.58 140.12
  L 80.53 114.62
  A 3.76 3.75 90.0 0 1 84.29 110.85
  L 84.46 110.85
  A 3.65 3.65 0.0 0 1 88.15 114.61
  Q 88.17 122.05 88.15 145.49
  C 88.14 150.44 82.09 151.11 81.18 146.83
  A 0.39 0.39 0.0 0 0 80.55 146.61
  Z"
/>
<path fill="#eaf0f3" d="
  M 186.93 113.86
  Q 188.54 109.79 192.47 110.93
  C 195.79 111.90 195.29 117.12 192.48 118.48
  A 0.95 0.92 -54.7 0 1 192.00 118.57
  L 188.19 118.33
  A 1.03 1.03 0.0 0 0 187.09 119.36
  L 187.09 145.82
  A 3.62 3.62 0.0 0 1 183.47 149.44
  L 183.12 149.44
  A 3.65 3.65 0.0 0 1 179.47 145.80
  Q 179.44 119.30 179.52 114.26
  Q 179.56 111.95 181.95 111.34
  Q 185.41 110.44 186.28 113.82
  A 0.34 0.34 0.0 0 0 186.93 113.86
  Z"
/>
<rect fill="#0d0d0d" x="101.40" y="116.78" width="6.94" height="14.78" rx="3.29"/>
<path fill="#0d0d0d" d="
  M 161.02 126.37
  A 0.40 0.40 0.0 0 1 160.62 125.97
  L 160.62 119.90
  A 3.01 2.77 -90.0 0 1 163.39 116.89
  L 163.79 116.89
  A 3.01 2.77 -90.0 0 1 166.56 119.90
  L 166.56 125.97
  A 0.40 0.40 0.0 0 1 166.16 126.37
  L 161.02 126.37
  Z"
/>
<rect fill="#0d0d0d" x="204.45" y="117.17" width="6.20" height="26.10" rx="2.52"/>
<path fill="#0d0d0d" d="
  M 45.34 126.29
  A 0.48 0.48 0.0 0 1 45.82 125.81
  L 49.33 125.81
  A 4.89 4.89 0.0 0 1 54.22 130.70
  L 54.22 137.26
  A 4.89 4.89 0.0 0 1 49.33 142.15
  L 45.82 142.15
  A 0.48 0.48 0.0 0 1 45.34 141.67
  L 45.34 126.29
  Z"
/>
<circle fill="#54abd7" cx="228.52" cy="144.91" r="4.62"/>
<path fill="#0d0d0d" d="
  M 101.95 147.40
  Q 102.08 147.36 104.76 147.37
  C 107.98 147.38 110.93 147.70 110.46 152.03
  A 2.54 2.47 -27.4 0 1 110.14 152.99
  C 107.88 156.80 99.11 157.15 99.64 151.13
  A 4.52 2.96 88.5 0 1 101.95 147.40
  Z"
/>
</svg>