<?xml version="1.0" encoding="UTF-8" standalone="no"?>
<!DOCTYPE svg PUBLIC "-//W3C//DTD SVG 1.1//EN" "http://www.w3.org/Graphics/SVG/1.1/DTD/svg11.dtd">
<svg xmlns="http://www.w3.org/2000/svg" version="1.1" viewBox="-0.00 -0.00 196.00 196.00" width="128" height="128">
<g stroke-width="2.00" fill="none" stroke-linecap="butt">
<path stroke="#4e6fa3" vector-effect="non-scaling-stroke" d="
  M 185.68 10.69
  A 0.37 0.37 0.0 0 0 185.31 10.32
  L 10.69 10.32
  A 0.37 0.37 0.0 0 0 10.32 10.69
  L 10.32 185.31
  A 0.37 0.37 0.0 0 0 10.69 185.68
  L 185.31 185.68
  A 0.37 0.37 0.0 0 0 185.68 185.31
  L 185.68 10.69"
/>
<path stroke="#4e6fa3" vector-effect="non-scaling-stroke" d="
  M 60.10 99.53
  L 69.99 99.53
  A 0.60 0.59 89.5 0 1 70.58 100.12
  Q 70.71 106.36 70.59 115.02
  C 70.38 129.52 80.15 141.71 94.39 144.37
  C 113.38 147.93 130.16 132.57 126.78 113.18
  C 123.68 95.43 111.08 89.79 94.85 90.04
  Q 88.65 90.13 80.47 90.07
  A 0.42 0.42 0.0 0 1 80.05 89.65
  L 80.05 32.58
  A 1.25 1.24 -75.0 0 0 79.43 31.50
  L 73.23 27.92
  A 1.10 1.10 0.0 0 0 72.11 27.92
  L 51.25 39.96
  A 0.80 0.79 -15.0 0 0 50.85 40.65
  L 50.85 79.21
  A 0.81 0.80 90.0 0 0 51.65 80.02
  L 59.21 80.02
  A 0.87 0.86 -90.0 0 0 60.07 79.15
  L 60.07 47.62
  A 1.04 1.03 -13.7 0 1 60.64 46.70
  L 70.40 41.81
  A 0.33 0.33 0.0 0 1 70.88 42.10
  L 70.88 89.55
  A 0.52 0.52 0.0 0 1 70.36 90.07
  L 51.16 90.07
  A 0.61 0.61 0.0 0 0 50.55 90.67
  Q 50.49 103.39 50.59 117.24
  C 50.75 139.50 63.82 157.60 85.55 163.45
  C 101.14 167.64 118.48 165.13 130.88 154.85
  C 155.86 134.14 154.35 93.29 125.96 76.72
  Q 112.72 68.98 95.81 70.01
  A 0.23 0.23 0.0 0 0 95.59 70.24
  L 95.59 79.56
  A 0.30 0.29 88.2 0 0 95.90 79.86
  Q 102.85 79.48 108.24 80.30
  C 123.61 82.65 135.09 93.16 138.14 108.32
  C 143.00 132.49 127.72 154.48 102.79 155.75
  C 80.59 156.87 62.59 142.25 59.60 120.08
  Q 59.29 117.74 59.47 100.15
  A 0.63 0.63 0.0 0 1 60.10 99.53"
/>
<path stroke="#4e6fa3" vector-effect="non-scaling-stroke" d="
  M 80.51 99.55
  A 0.33 0.33 0.0 0 0 80.18 99.88
  Q 80.12 108.85 80.20 116.49
  C 80.31 127.69 88.93 136.11 100.00 136.18
  C 110.22 136.24 118.48 128.03 118.06 117.98
  C 117.55 105.90 109.20 99.55 97.50 99.54
  Q 85.95 99.53 80.51 99.55"
/>
<path stroke="#4e6fa3" vector-effect="non-scaling-stroke" d="
  M 106.82 117.80
  A 7.34 7.34 0.0 0 0 99.48 110.46
  A 7.34 7.34 0.0 0 0 92.14 117.80
  A 7.34 7.34 0.0 0 0 99.48 125.14
  A 7.34 7.34 0.0 0 0 106.82 117.80"
/>
</g>
<path fill="#173647" d="
  M 196.00 0.00
  L 196.00 196.00
  L 0.00 196.00
  L 0.00 0.00
  L 196.00 0.00
  Z
  M 185.68 10.69
  A 0.37 0.37 0.0 0 0 185.31 10.32
  L 10.69 10.32
  A 0.37 0.37 0.0 0 0 10.32 10.69
  L 10.32 185.31
  A 0.37 0.37 0.0 0 0 10.69 185.68
  L 185.31 185.68
  A 0.37 0.37 0.0 0 0 185.68 185.31
  L 185.68 10.69
  Z"
/>
<path fill="#84a7ff" d="
  M 185.68 185.31
  A 0.37 0.37 0.0 0 1 185.31 185.68
  L 10.69 185.68
  A 0.37 0.37 0.0 0 1 10.32 185.31
  L 10.32 10.69
  A 0.37 0.37 0.0 0 1 10.69 10.32
  L 185.31 10.32
  A 0.37 0.37 0.0 0 1 185.68 10.69
  L 185.68 185.31
  Z
  M 60.10 99.53
  L 69.99 99.53
  A 0.60 0.59 89.5 0 1 70.58 100.12
  Q 70.71 106.36 70.59 115.02
  C 70.38 129.52 80.15 141.71 94.39 144.37
  C 113.38 147.93 130.16 132.57 126.78 113.18
  C 123.68 95.43 111.08 89.79 94.85 90.04
  Q 88.65 90.13 80.47 90.07
  A 0.42 0.42 0.0 0 1 80.05 89.65
  L 80.05 32.58
  A 1.25 1.24 -75.0 0 0 79.43 31.50
  L 73.23 27.92
  A 1.10 1.10 0.0 0 0 72.11 27.92
  L 51.25 39.96
  A 0.80 0.79 -15.0 0 0 50.85 40.65
  L 50.85 79.21
  A 0.81 0.80 90.0 0 0 51.65 80.02
  L 59.21 80.02
  A 0.87 0.86 -90.0 0 0 60.07 79.15
  L 60.07 47.62
  A 1.04 1.03 -13.7 0 1 60.64 46.70
  L 70.40 41.81
  A 0.33 0.33 0.0 0 1 70.88 42.10
  L 70.88 89.55
  A 0.52 0.52 0.0 0 1 70.36 90.07
  L 51.16 90.07
  A 0.61 0.61 0.0 0 0 50.55 90.67
  Q 50.49 103.39 50.59 117.24
  C 50.75 139.50 63.82 157.60 85.55 163.45
  C 101.14 167.64 118.48 165.13 130.88 154.85
  C 155.86 134.14 154.35 93.29 125.96 76.72
  Q 112.72 68.98 95.81 70.01
  A 0.23 0.23 0.0 0 0 95.59 70.24
  L 95.59 79.56
  A 0.30 0.29 88.2 0 0 95.90 79.86
  Q 102.85 79.48 108.24 80.30
  C 123.61 82.65 135.09 93.16 138.14 108.32
  C 143.00 132.49 127.72 154.48 102.79 155.75
  C 80.59 156.87 62.59 142.25 59.60 120.08
  Q 59.29 117.74 59.47 100.15
  A 0.63 0.63 0.0 0 1 60.10 99.53
  Z"
/>
<path fill="#173647" d="
  M 59.47 100.15
  Q 59.29 117.74 59.60 120.08
  C 62.59 142.25 80.59 156.87 102.79 155.75
  C 127.72 154.48 143.00 132.49 138.14 108.32
  C 135.09 93.16 123.61 82.65 108.24 80.30
  Q 102.85 79.48 95.90 79.86
  A 0.30 0.29 88.2 0 1 95.59 79.56
  L 95.59 70.24
  A 0.23 0.23 0.0 0 1 95.81 70.01
  Q 112.72 68.98 125.96 76.72
  C 154.35 93.29 155.86 134.14 130.88 154.85
  C 118.48 165.13 101.14 167.64 85.55 163.45
  C 63.82 157.60 50.75 139.50 50.59 117.24
  Q 50.49 103.39 50.55 90.67
  A 0.61 0.61 0.0 0 1 51.16 90.07
  L 70.36 90.07
  A 0.52 0.52 0.0 0 0 70.88 89.55
  L 70.88 42.10
  A 0.33 0.33 0.0 0 0 70.40 41.81
  L 60.64 46.70
  A 1.04 1.03 -13.7 0 0 60.07 47.62
  L 60.07 79.15
  A 0.87 0.86 90.0 0 1 59.21 80.02
  L 51.65 80.02
  A 0.81 0.80 -90.0 0 1 50.85 79.21
  L 50.85 40.65
  A 0.80 0.79 -15.0 0 1 51.25 39.96
  L 72.11 27.92
  A 1.10 1.10 0.0 0 1 73.23 27.92
  L 79.43 31.50
  A 1.25 1.24 -75.0 0 1 80.05 32.58
  L 80.05 89.65
  A 0.42 0.42 0.0 0 0 80.47 90.07
  Q 88.65 90.13 94.85 90.04
  C 111.08 89.79 123.68 95.43 126.78 113.18
  C 130.16 132.57 113.38 147.93 94.39 144.37
  C 80.15 141.71 70.38 129.52 70.59 115.02
  Q 70.71 106.36 70.58 100.12
  A 0.60 0.59 89.5 0 0 69.99 99.53
  L 60.10 99.53
  A 0.63 0.63 0.0 0 0 59.47 100.15
  Z
  M 80.51 99.55
  A 0.33 0.33 0.0 0 0 80.18 99.88
  Q 80.12 108.85 80.20 116.49
  C 80.31 127.69 88.93 136.11 100.00 136.18
  C 110.22 136.24 118.48 128.03 118.06 117.98
  C 117.55 105.90 109.20 99.55 97.50 99.54
  Q 85.95 99.53 80.51 99.55
  Z"
/>
<path fill="#84a7ff" d="
  M 80.51 99.55
  Q 85.95 99.53 97.50 99.54
  C 109.20 99.55 117.55 105.90 118.06 117.98
  C 118.48 128.03 110.22 136.24 100.00 136.18
  C 88.93 136.11 80.31 127.69 80.20 116.49
  Q 80.12 108.85 80.18 99.88
  A 0.33 0.33 0.0 0 1 80.51 99.55
  Z
  M 106.82 117.80
  A 7.34 7.34 0.0 0 0 99.48 110.46
  A 7.34 7.34 0.0 0 0 92.14 117.80
  A 7.34 7.34 0.0 0 0 99.48 125.14
  A 7.34 7.34 0.0 0 0 106.82 117.80
  Z"
/>
<circle fill="#173647" cx="99.48" cy="117.80" r="7.34"/>
</svg>