<?xml version="1.0" encoding="UTF-8" standalone="no"?>
<!DOCTYPE svg PUBLIC "-//W3C//DTD SVG 1.1//EN" "http://www.w3.org/Graphics/SVG/1.1/DTD/svg11.dtd">
<svg xmlns="http://www.w3.org/2000/svg" version="1.1" viewBox="0.00 0.00 144.00 144.00" width="128" height="128">
<path fill="#094303" d="
  M 22.50 43.79
  L 22.50 24.49
  A 0.64 0.64 0.0 0 1 23.05 23.86
  Q 35.30 22.03 44.13 29.56
  C 50.23 34.74 53.30 41.35 53.23 49.58
  C 53.00 78.74 12.16 85.10 2.59 58.20
  Q 1.12 54.05 1.02 47.00
  Q 0.97 43.55 1.01 6.64
  A 0.40 0.39 -0.0 0 1 1.41 6.25
  L 19.44 6.25
  A 0.31 0.31 0.0 0 1 19.75 6.56
  Q 19.75 45.32 19.76 47.00
  C 19.78 49.60 20.51 54.21 23.18 55.55
  Q 27.16 57.56 30.50 55.55
  C 38.45 50.78 31.39 39.26 24.30 43.73
  Q 23.71 44.10 23.20 44.28
  A 0.52 0.52 0.0 0 1 22.50 43.79
  Z"
/>
<ellipse fill="#094303" cx="0.00" cy="0.00" transform="translate(89.87,36.42) rotate(-0.2)" rx="5.64" ry="5.39"/>
<rect fill="#094303" x="98.75" y="33.25" width="11.24" height="41.02" rx="0.38"/>
<path fill="#094303" d="
  M 123.50 33.85
  L 123.50 44.17
  A 0.59 0.58 90.0 0 0 124.08 44.76
  L 127.88 44.76
  A 0.62 0.61 -0.0 0 1 128.50 45.37
  L 128.50 55.92
  A 0.58 0.57 -0.0 0 1 127.92 56.49
  L 124.20 56.49
  A 0.68 0.67 -88.7 0 0 123.53 57.14
  Q 123.32 62.62 128.05 62.75
  A 0.73 0.73 0.0 0 1 128.75 63.48
  L 128.75 73.89
  A 1.01 1.00 2.1 0 1 127.67 74.89
  Q 117.49 74.07 113.73 66.20
  Q 112.10 62.79 112.21 54.37
  Q 112.34 44.09 112.23 33.94
  A 0.69 0.68 -90.0 0 1 112.91 33.25
  L 122.90 33.25
  A 0.60 0.60 0.0 0 1 123.50 33.85
  Z"
/>
<rect fill="#094303" x="84.26" y="44.25" width="11.24" height="30.00" rx="0.38"/>
<path fill="#094303" d="
  M 67.35 63.99
  Q 68.81 63.99 69.39 62.61
  A 1.24 1.21 -34.4 0 0 69.48 62.15
  L 69.48 45.16
  A 0.41 0.41 0.0 0 1 69.89 44.75
  L 80.32 44.75
  A 0.42 0.41 89.3 0 1 80.73 45.16
  Q 80.89 51.61 80.65 61.91
  C 80.47 69.50 75.06 75.27 67.34 75.26
  C 59.63 75.26 54.23 69.49 54.05 61.90
  Q 53.82 51.60 53.99 45.15
  A 0.42 0.41 -89.2 0 1 54.40 44.74
  L 64.83 44.75
  A 0.41 0.41 0.0 0 1 65.24 45.16
  L 65.22 62.15
  A 1.24 1.21 34.4 0 0 65.31 62.61
  Q 65.88 63.99 67.35 63.99
  Z"
/>
<ellipse fill="#094303" cx="0.00" cy="0.00" transform="translate(83.63,87.18) rotate(-0.7)" rx="5.64" ry="5.38"/>
<path fill="#094303" d="
  M 47.16 84.07
  Q 50.86 84.07 54.53 84.12
  A 0.49 0.49 0.0 0 1 55.01 84.60
  L 55.08 108.50
  A 2.30 2.30 0.0 0 0 57.50 110.79
  L 57.56 110.79
  A 2.31 2.31 0.0 0 0 59.86 108.49
  L 59.98 84.45
  A 0.37 0.37 0.0 0 1 60.35 84.08
  L 75.25 84.08
  A 0.47 0.47 0.0 0 1 75.72 84.55
  Q 75.78 99.59 75.70 109.23
  Q 75.64 116.92 71.05 121.72
  Q 66.19 126.80 59.39 126.67
  Q 52.89 126.55 47.81 121.41
  Q 47.42 121.01 47.14 121.01
  Q 46.87 121.01 46.48 121.41
  Q 41.39 126.55 34.89 126.66
  Q 28.09 126.79 23.24 121.70
  Q 18.65 116.90 18.60 109.21
  Q 18.52 99.57 18.59 84.53
  A 0.47 0.47 0.0 0 1 19.06 84.06
  L 33.96 84.07
  A 0.37 0.37 0.0 0 1 34.33 84.44
  L 34.44 108.48
  A 2.31 2.31 0.0 0 0 36.73 110.78
  L 36.79 110.78
  A 2.30 2.30 0.0 0 0 39.22 108.49
  L 39.30 84.59
  A 0.49 0.49 0.0 0 1 39.79 84.11
  Q 43.45 84.07 47.16 84.07
  Z"
/>
<path fill="#094303" d="
  M 102.16 83.99
  A 0.60 0.60 0.0 0 1 102.76 84.59
  L 102.76 94.91
  A 0.59 0.58 -90.0 0 0 103.34 95.51
  L 107.14 95.51
  A 0.62 0.61 0.0 0 1 107.76 96.12
  L 107.76 106.67
  A 0.58 0.57 0.0 0 1 107.18 107.24
  L 103.46 107.24
  A 0.68 0.67 -88.7 0 0 102.79 107.89
  Q 102.58 113.37 107.31 113.50
  A 0.73 0.73 0.0 0 1 108.01 114.23
  L 108.01 124.65
  A 1.01 1.00 2.1 0 1 106.93 125.65
  Q 96.74 124.83 92.98 116.95
  Q 91.35 113.54 91.46 105.12
  Q 91.59 94.83 91.48 84.68
  A 0.69 0.68 -90.0 0 1 92.16 83.99
  L 102.16 83.99
  Z"
/>
<path fill="#094303" d="
  M 122.12 96.07
  C 129.13 92.08 135.94 96.30 136.33 104.08
  Q 136.71 111.66 136.43 124.39
  A 0.63 0.63 0.0 0 1 135.80 125.00
  L 125.76 125.00
  A 0.51 0.50 90.0 0 1 125.26 124.49
  L 125.24 107.75
  A 1.72 1.72 0.0 0 0 123.39 106.04
  L 123.28 106.05
  A 1.87 1.87 0.0 0 0 121.50 107.92
  L 121.50 124.39
  A 0.61 0.60 -90.0 0 1 120.90 125.00
  L 110.89 125.00
  A 0.63 0.63 0.0 0 1 110.26 124.37
  L 110.26 84.62
  A 0.62 0.62 0.0 0 1 110.88 84.00
  L 121.21 84.00
  A 0.28 0.28 0.0 0 1 121.49 84.28
  L 121.49 95.70
  A 0.42 0.42 0.0 0 0 122.12 96.07
  Z"
/>
<rect fill="#094303" x="78.00" y="95.00" width="11.24" height="30.00" rx="0.34"/>
</svg>