<?xml version="1.0" encoding="UTF-8" standalone="no"?>
<!DOCTYPE svg PUBLIC "-//W3C//DTD SVG 1.1//EN" "http://www.w3.org/Graphics/SVG/1.1/DTD/svg11.dtd">
<svg xmlns="http://www.w3.org/2000/svg" version="1.1" viewBox="0.00 0.00 256.00 256.00" width="128" height="128">
<g stroke-width="2.00" fill="none" stroke-linecap="butt">
<path stroke="#22df91" vector-effect="non-scaling-stroke" d="
  M 90.48 87.86
  C 89.74 109.50 89.97 124.58 90.17 152.00
  Q 90.22 158.60 91.65 165.16"
/>
<path stroke="#22df91" vector-effect="non-scaling-stroke" d="
  M 244.03 88.37
  L 240.84 88.70
  A 1.26 1.24 -67.9 0 0 240.15 89.00
  Q 237.45 91.41 234.17 92.86
  Q 231.40 94.09 230.62 94.48
  Q 204.55 107.61 176.76 121.46
  C 174.58 122.54 172.03 124.43 170.61 124.94
  A 4.06 3.60 -56.6 0 1 169.90 125.13
  C 166.78 125.64 166.76 121.50 166.77 119.52
  Q 166.98 68.39 166.84 58.50
  Q 166.78 54.41 164.48 49.40"
/>
</g>
<path fill="#30f2a2" d="
  M 90.48 87.86
  C 89.74 109.50 89.97 124.58 90.17 152.00
  Q 90.22 158.60 91.65 165.16
  Q 89.30 165.47 86.12 163.87
  C 63.24 152.34 53.95 148.19 37.14 138.94
  Q 31.81 136.00 18.48 129.52
  Q 15.39 128.02 13.59 127.61
  A 1.01 1.00 88.5 0 1 12.84 126.89
  Q 12.63 126.14 12.60 122.75
  Q 12.32 88.24 12.57 56.50
  Q 12.60 52.15 13.02 49.30
  A 0.72 0.71 -72.6 0 1 14.05 48.76
  C 15.72 49.61 17.45 51.05 18.99 51.76
  Q 25.17 54.60 42.07 63.66
  Q 55.41 70.82 90.48 87.86
  Z"
/>
<path fill="#30f2a2" d="
  M 244.03 88.37
  L 240.84 88.70
  A 1.26 1.24 -67.9 0 0 240.15 89.00
  Q 237.45 91.41 234.17 92.86
  Q 231.40 94.09 230.62 94.48
  Q 204.55 107.61 176.76 121.46
  C 174.58 122.54 172.03 124.43 170.61 124.94
  A 4.06 3.60 -56.6 0 1 169.90 125.13
  C 166.78 125.64 166.76 121.50 166.77 119.52
  Q 166.98 68.39 166.84 58.50
  Q 166.78 54.41 164.48 49.40
  Q 166.60 48.05 168.48 48.99
  Q 179.13 54.30 200.05 64.78
  C 210.78 70.16 228.41 79.80 243.00 86.52
  Q 243.95 86.96 244.03 88.37
  Z"
/>
<path fill="#14cc80" d="
  M 164.48 49.40
  Q 166.78 54.41 166.84 58.50
  Q 166.98 68.39 166.77 119.52
  C 166.76 121.50 166.78 125.64 169.90 125.13
  A 4.06 3.60 -56.6 0 0 170.61 124.94
  C 172.03 124.43 174.58 122.54 176.76 121.46
  Q 204.55 107.61 230.62 94.48
  Q 231.40 94.09 234.17 92.86
  Q 237.45 91.41 240.15 89.00
  A 1.26 1.24 -67.9 0 1 240.84 88.70
  L 244.03 88.37
  Q 244.58 90.72 244.59 92.25
  Q 244.66 133.09 244.71 142.50
  Q 244.76 152.19 244.42 161.97
  Q 244.35 163.91 243.58 166.05
  A 1.00 0.99 2.8 0 1 242.89 166.67
  Q 241.73 166.96 239.04 168.28
  Q 229.42 173.01 172.36 201.60
  Q 169.59 202.98 167.48 203.50
  A 0.44 0.44 0.0 0 1 166.93 203.08
  L 166.93 127.93
  A 0.70 0.70 0.0 0 0 166.01 127.26
  Q 162.58 128.38 158.86 130.48
  C 149.83 135.60 134.67 142.91 106.25 157.13
  Q 103.16 158.68 98.94 161.14
  Q 95.26 163.28 91.65 165.16
  Q 90.22 158.60 90.17 152.00
  C 89.97 124.58 89.74 109.50 90.48 87.86
  C 95.98 84.73 101.43 81.55 107.09 78.70
  Q 130.25 67.04 153.40 55.34
  Q 158.96 52.53 164.48 49.40
  Z"
/>
</svg>