<?xml version="1.0" encoding="UTF-8" standalone="no"?>
<!DOCTYPE svg PUBLIC "-//W3C//DTD SVG 1.1//EN" "http://www.w3.org/Graphics/SVG/1.1/DTD/svg11.dtd">
<svg xmlns="http://www.w3.org/2000/svg" version="1.1" viewBox="0.00 0.00 512.00 512.00" width="128" height="128">
<g stroke-width="2.00" fill="none" stroke-linecap="butt">
<path stroke="#f4851c" vector-effect="non-scaling-stroke" d="
  M 153.22 23.33
  Q 151.34 27.60 151.09 32.24
  A 4.16 4.07 -49.1 0 0 151.15 33.23
  Q 151.82 36.70 153.44 39.29
  C 158.54 47.46 161.52 53.30 167.59 59.92
  C 176.31 69.43 185.54 77.65 196.39 83.70
  C 203.47 87.65 211.84 93.15 219.95 97.27
  C 229.77 102.25 241.08 106.42 249.18 109.83
  Q 259.80 114.29 266.91 116.41
  C 274.19 118.57 281.03 120.97 288.07 123.40"
/>
<path stroke="#ef5b24" vector-effect="non-scaling-stroke" d="
  M 288.07 123.40
  Q 285.91 129.49 286.96 135.58
  Q 287.55 138.93 290.04 151.63"
/>
<path stroke="#f26826" vector-effect="non-scaling-stroke" d="
  M 404.25 254.97
  C 399.07 240.01 388.52 228.90 376.49 219.18
  A 0.84 0.83 52.6 0 0 375.62 219.06
  Q 362.05 225.03 350.76 226.61
  Q 337.70 228.44 324.21 225.25
  Q 319.66 224.17 313.95 220.02"
/>
<path stroke="#f47f1c" vector-effect="non-scaling-stroke" d="
  M 360.78 135.97
  Q 362.91 141.15 361.04 145.44
  A 1.18 1.18 0.0 0 1 359.49 146.05
  Q 352.42 142.97 345.54 140.91
  Q 336.82 138.31 335.66 137.85
  C 331.69 136.30 326.09 134.41 320.78 133.35
  Q 318.79 132.95 316.86 132.31
  Q 302.52 127.54 288.07 123.40"
/>
<path stroke="#f26e26" vector-effect="non-scaling-stroke" d="
  M 291.45 221.08
  Q 297.10 222.58 302.10 225.49
  C 305.49 227.45 308.27 228.53 311.74 228.63
  Q 325.15 229.02 343.81 228.22
  A 0.15 0.15 0.0 0 0 343.95 228.07
  L 343.95 227.81
  A 0.35 0.34 -0.8 0 0 343.59 227.47
  Q 332.49 227.90 321.37 227.56
  Q 316.34 227.41 313.08 226.14
  Q 304.64 222.84 301.70 221.93"
/>
<path stroke="#f78a28" vector-effect="non-scaling-stroke" d="
  M 325.25 397.04
  C 316.42 384.05 306.00 375.38 295.19 365.31"
/>
<path stroke="#f7921e" vector-effect="non-scaling-stroke" d="
  M 256.03 205.07
  Q 257.92 208.50 259.32 209.69
  Q 265.03 214.54 270.70 219.47
  A 0.20 0.19 -46.1 0 0 270.96 219.46
  L 271.20 219.26
  A 0.03 0.03 0.0 0 0 271.20 219.21
  L 266.24 214.78
  A 0.09 0.09 0.0 0 1 266.27 214.63
  L 267.18 214.32
  A 0.12 0.11 -29.3 0 1 267.31 214.35
  L 278.63 227.18
  A 1.05 0.70 90.0 0 1 278.77 227.39
  C 282.16 234.37 287.42 240.48 290.16 247.64
  C 292.27 253.14 294.52 257.65 296.05 262.55
  Q 299.63 274.00 302.26 286.06
  Q 303.17 290.25 303.23 293.19
  C 303.37 299.35 302.95 304.48 296.40 306.68"
/>
<path stroke="#f4851c" vector-effect="non-scaling-stroke" d="
  M 296.40 306.68
  Q 297.36 300.92 296.47 295.25
  A 3.79 3.76 29.5 0 0 296.22 294.36
  Q 293.57 287.83 292.29 284.20
  Q 290.12 278.04 288.02 274.26
  C 285.02 268.85 282.85 262.82 278.97 257.39
  Q 269.78 244.53 266.88 241.12
  Q 261.59 234.91 259.35 232.92
  C 251.71 226.15 243.19 219.03 233.65 213.93
  Q 230.80 212.41 224.15 208.57
  Q 222.47 207.60 213.79 204.55
  C 206.58 202.03 201.27 199.72 194.40 198.10
  A 2.54 2.52 -38.8 0 0 193.73 198.03
  L 176.47 198.36
  A 0.86 0.86 0.0 0 1 175.66 197.19
  Q 175.79 196.87 176.05 196.41"
/>
<path stroke="#f26e26" vector-effect="non-scaling-stroke" d="
  M 296.40 306.68
  Q 295.44 311.68 291.85 315.65"
/>
<path stroke="#f26e26" vector-effect="non-scaling-stroke" d="
  M 182.25 395.81
  Q 168.66 400.11 155.54 405.55
  C 147.67 408.81 140.41 412.74 139.24 422.13"
/>
<path stroke="#f17325" vector-effect="non-scaling-stroke" d="
  M 120.93 402.79
  Q 112.96 379.48 117.12 357.53
  Q 117.77 354.10 119.93 345.78
  Q 121.94 338.03 123.85 334.37
  C 128.85 324.79 131.43 319.20 136.38 313.13
  C 143.44 304.48 151.04 296.22 161.25 289.47
  Q 169.61 283.95 175.94 281.04
  A 0.66 0.65 76.9 0 0 176.32 280.41
  C 175.92 270.98 170.71 265.72 163.37 260.59
  Q 159.77 258.08 133.89 240.61
  Q 125.78 235.13 113.95 230.23"
/>
</g>
<path fill="#f48626" d="
  M 394.71 141.97
  A 0.59 0.58 -4.8 0 1 394.12 142.66
  Q 392.36 142.64 390.21 141.52
  Q 384.80 138.69 374.50 132.82
  Q 350.75 119.28 290.79 87.25
  C 286.71 85.07 281.72 82.51 279.80 78.02
  Q 274.87 66.48 274.21 58.74
  Q 273.45 49.93 273.69 42.50
  C 273.89 36.05 276.03 30.10 277.73 23.97
  C 279.53 17.48 282.96 8.60 287.76 4.32
  Q 291.20 1.26 293.38 4.56
  C 294.69 6.54 296.11 9.30 297.78 11.59
  Q 308.45 26.23 328.47 53.02
  Q 368.78 106.97 381.29 123.70
  Q 390.83 136.47 394.09 140.65
  Q 394.58 141.27 394.71 141.97
  Z"
/>
<path fill="#ee6024" d="
  M 153.22 23.33
  Q 151.34 27.60 151.09 32.24
  A 4.16 4.07 -49.1 0 0 151.15 33.23
  Q 151.82 36.70 153.44 39.29
  C 158.54 47.46 161.52 53.30 167.59 59.92
  C 176.31 69.43 185.54 77.65 196.39 83.70
  C 203.47 87.65 211.84 93.15 219.95 97.27
  C 229.77 102.25 241.08 106.42 249.18 109.83
  Q 259.80 114.29 266.91 116.41
  C 274.19 118.57 281.03 120.97 288.07 123.40
  Q 285.91 129.49 286.96 135.58
  Q 287.55 138.93 290.04 151.63
  Q 278.53 150.50 267.44 147.65
  Q 258.72 145.41 256.09 145.12
  C 248.88 144.34 240.73 143.36 233.94 141.89
  Q 229.95 141.02 223.64 138.83
  C 219.32 137.33 213.75 136.60 209.09 134.94
  Q 195.65 130.12 184.36 122.11
  Q 177.25 117.05 170.30 110.47
  Q 166.78 107.13 165.04 104.73
  C 162.85 101.69 160.49 99.46 158.06 95.91
  Q 150.95 85.53 146.93 75.60
  C 144.66 70.00 143.80 63.48 142.58 56.77
  C 140.98 47.93 141.09 39.35 143.88 30.51
  Q 145.24 26.22 146.14 21.35
  A 0.93 0.93 0.0 0 1 147.44 20.68
  L 153.22 23.33
  Z"
/>
<path fill="#f9a914" d="
  M 153.22 23.33
  Q 158.80 25.66 160.32 26.66
  C 164.61 29.51 169.91 31.83 173.68 34.02
  Q 184.07 40.03 194.43 45.66
  Q 219.67 59.36 246.93 73.84
  C 249.69 75.30 252.14 77.04 254.80 78.25
  Q 260.47 80.85 264.44 83.48
  Q 268.82 86.37 271.20 87.23
  C 273.59 88.09 277.55 89.94 280.36 91.97
  Q 285.40 95.61 292.06 98.37
  A 12.95 12.86 -16.1 0 1 294.53 99.72
  Q 300.00 103.56 306.82 106.35
  A 16.19 15.35 71.4 0 1 309.57 107.81
  C 314.79 111.28 320.36 113.77 326.05 116.89
  Q 343.46 126.43 360.78 135.97
  Q 362.91 141.15 361.04 145.44
  A 1.18 1.18 0.0 0 1 359.49 146.05
  Q 352.42 142.97 345.54 140.91
  Q 336.82 138.31 335.66 137.85
  C 331.69 136.30 326.09 134.41 320.78 133.35
  Q 318.79 132.95 316.86 132.31
  Q 302.52 127.54 288.07 123.40
  C 281.03 120.97 274.19 118.57 266.91 116.41
  Q 259.80 114.29 249.18 109.83
  C 241.08 106.42 229.77 102.25 219.95 97.27
  C 211.84 93.15 203.47 87.65 196.39 83.70
  C 185.54 77.65 176.31 69.43 167.59 59.92
  C 161.52 53.30 158.54 47.46 153.44 39.29
  Q 151.82 36.70 151.15 33.23
  A 4.16 4.07 -49.1 0 1 151.09 32.24
  Q 151.34 27.60 153.22 23.33
  Z"
/>
<path fill="#ef5524" d="
  M 288.07 123.40
  Q 302.52 127.54 316.86 132.31
  Q 318.79 132.95 320.78 133.35
  C 326.09 134.41 331.69 136.30 335.66 137.85
  Q 336.82 138.31 345.54 140.91
  Q 352.42 142.97 359.49 146.05
  A 1.18 1.18 0.0 0 0 361.04 145.44
  Q 362.91 141.15 360.78 135.97
  Q 369.37 140.61 377.70 145.55
  Q 380.26 147.06 382.27 147.88
  C 386.48 149.60 388.84 151.17 393.47 154.18
  C 397.31 156.68 401.62 158.13 404.97 160.71
  Q 408.62 163.53 410.99 164.74
  C 415.30 166.95 421.24 170.96 426.42 173.59
  C 434.99 177.95 448.36 185.64 456.71 189.84
  Q 463.52 193.25 473.27 199.31
  C 476.30 201.19 478.76 203.18 480.04 206.66
  C 482.26 212.72 481.77 220.19 476.19 224.20
  Q 470.63 228.20 465.39 230.89
  Q 449.49 239.06 434.84 245.61
  Q 432.99 246.43 428.77 247.66
  Q 416.49 251.22 404.25 254.97
  C 399.07 240.01 388.52 228.90 376.49 219.18
  A 0.84 0.83 52.6 0 0 375.62 219.06
  Q 362.05 225.03 350.76 226.61
  Q 337.70 228.44 324.21 225.25
  Q 319.66 224.17 313.95 220.02
  Q 317.59 219.06 318.48 218.49
  Q 324.76 214.57 330.01 211.57
  A 9.38 9.36 7.5 0 0 331.97 210.07
  L 338.39 203.70
  A 5.52 5.26 85.6 0 0 339.15 202.77
  Q 341.78 198.79 344.64 193.69
  C 349.29 185.40 352.13 172.39 345.10 164.67
  A 3.51 3.48 -7.8 0 0 344.13 163.94
  Q 338.11 160.89 336.19 160.52
  Q 324.72 158.29 314.10 155.32
  C 306.13 153.09 298.21 152.30 290.04 151.63
  Q 287.55 138.93 286.96 135.58
  Q 285.91 129.49 288.07 123.40
  Z"
/>
<path fill="#febe2d" d="
  M 85.52 206.84
  Q 85.55 206.92 85.85 209.14
  Q 86.12 211.17 86.12 211.43
  Q 86.09 218.06 86.39 223.98
  Q 86.44 225.08 84.90 227.13
  Q 84.31 227.91 79.02 229.66
  A 3.11 3.05 34.3 0 1 78.07 229.83
  Q 66.48 230.23 52.49 227.77
  C 43.84 226.25 37.23 219.46 34.34 211.44
  C 30.19 199.92 34.11 189.32 43.06 181.56
  Q 48.66 176.71 56.26 176.17
  Q 72.53 175.04 81.06 187.64
  C 83.99 191.97 85.27 197.99 85.65 203.28
  Q 85.75 204.72 85.48 206.02
  A 1.62 1.55 43.6 0 0 85.52 206.84
  Z"
/>
<path fill="#f9a914" d="
  M 256.03 205.07
  Q 257.92 208.50 259.32 209.69
  Q 265.03 214.54 270.70 219.47
  A 0.20 0.19 -46.1 0 0 270.96 219.46
  L 271.20 219.26
  A 0.03 0.03 0.0 0 0 271.20 219.21
  L 266.24 214.78
  A 0.09 0.09 0.0 0 1 266.27 214.63
  L 267.18 214.32
  A 0.12 0.11 -29.3 0 1 267.31 214.35
  L 278.63 227.18
  A 1.05 0.70 90.0 0 1 278.77 227.39
  C 282.16 234.37 287.42 240.48 290.16 247.64
  C 292.27 253.14 294.52 257.65 296.05 262.55
  Q 299.63 274.00 302.26 286.06
  Q 303.17 290.25 303.23 293.19
  C 303.37 299.35 302.95 304.48 296.40 306.68
  Q 297.36 300.92 296.47 295.25
  A 3.79 3.76 29.5 0 0 296.22 294.36
  Q 293.57 287.83 292.29 284.20
  Q 290.12 278.04 288.02 274.26
  C 285.02 268.85 282.85 262.82 278.97 257.39
  Q 269.78 244.53 266.88 241.12
  Q 261.59 234.91 259.35 232.92
  C 251.71 226.15 243.19 219.03 233.65 213.93
  Q 230.80 212.41 224.15 208.57
  Q 222.47 207.60 213.79 204.55
  C 206.58 202.03 201.27 199.72 194.40 198.10
  A 2.54 2.52 -38.8 0 0 193.73 198.03
  L 176.47 198.36
  A 0.86 0.86 0.0 0 1 175.66 197.19
  Q 175.79 196.87 176.05 196.41
  C 181.43 194.96 186.20 194.20 192.63 193.69
  C 202.85 192.87 211.86 192.49 221.74 193.92
  Q 227.01 194.68 235.05 197.34
  C 241.42 199.46 249.73 201.30 256.03 205.07
  Z"
/>
<path fill="#ee6024" d="
  M 176.05 196.41
  Q 175.79 196.87 175.66 197.19
  A 0.86 0.86 0.0 0 0 176.47 198.36
  L 193.73 198.03
  A 2.54 2.52 -38.8 0 1 194.40 198.10
  C 201.27 199.72 206.58 202.03 213.79 204.55
  Q 222.47 207.60 224.15 208.57
  Q 230.80 212.41 233.65 213.93
  C 243.19 219.03 251.71 226.15 259.35 232.92
  Q 261.59 234.91 266.88 241.12
  Q 269.78 244.53 278.97 257.39
  C 282.85 262.82 285.02 268.85 288.02 274.26
  Q 290.12 278.04 292.29 284.20
  Q 293.57 287.83 296.22 294.36
  A 3.79 3.76 29.5 0 1 296.47 295.25
  Q 297.36 300.92 296.40 306.68
  Q 295.44 311.68 291.85 315.65
  Q 290.07 311.88 288.32 308.19
  Q 286.56 304.50 281.40 298.13
  C 273.50 288.40 263.66 281.75 251.73 276.90
  C 235.90 270.47 219.24 271.02 203.78 277.49
  C 192.39 282.26 180.39 289.56 173.35 299.33
  Q 169.03 305.32 166.51 309.65
  Q 160.64 319.75 159.63 331.54
  Q 159.46 333.49 159.43 343.48
  C 159.41 350.28 159.27 356.05 161.57 361.89
  C 163.47 366.71 163.57 371.60 166.76 376.05
  Q 169.56 379.96 172.16 383.94
  C 174.85 388.08 178.76 391.96 182.25 395.81
  Q 168.66 400.11 155.54 405.55
  C 147.67 408.81 140.41 412.74 139.24 422.13
  L 120.93 402.79
  Q 112.96 379.48 117.12 357.53
  Q 117.77 354.10 119.93 345.78
  Q 121.94 338.03 123.85 334.37
  C 128.85 324.79 131.43 319.20 136.38 313.13
  C 143.44 304.48 151.04 296.22 161.25 289.47
  Q 169.61 283.95 175.94 281.04
  A 0.66 0.65 76.9 0 0 176.32 280.41
  C 175.92 270.98 170.71 265.72 163.37 260.59
  Q 159.77 258.08 133.89 240.61
  Q 125.78 235.13 113.95 230.23
  Q 119.49 224.42 128.40 218.17
  C 135.99 212.84 140.43 209.45 146.95 206.63
  C 151.48 204.67 155.79 202.15 161.48 200.63
  Q 168.78 198.67 176.05 196.41
  Z"
/>
<path fill="#f57b27" d="
  M 291.45 221.08
  Q 297.10 222.58 302.10 225.49
  C 305.49 227.45 308.27 228.53 311.74 228.63
  Q 325.15 229.02 343.81 228.22
  A 0.15 0.15 0.0 0 0 343.95 228.07
  L 343.95 227.81
  A 0.35 0.34 -0.8 0 0 343.59 227.47
  Q 332.49 227.90 321.37 227.56
  Q 316.34 227.41 313.08 226.14
  Q 304.64 222.84 301.70 221.93
  L 313.95 220.02
  Q 319.66 224.17 324.21 225.25
  Q 337.70 228.44 350.76 226.61
  Q 362.05 225.03 375.62 219.06
  A 0.84 0.83 52.6 0 1 376.49 219.18
  C 388.52 228.90 399.07 240.01 404.25 254.97
  C 397.92 256.89 393.16 258.30 389.89 264.66
  C 384.57 275.03 379.61 286.02 374.69 296.09
  Q 350.42 345.80 327.28 393.28
  Q 326.38 395.14 325.25 397.04
  C 316.42 384.05 306.00 375.38 295.19 365.31
  Q 299.82 351.33 297.79 334.50
  Q 296.45 323.39 291.85 315.65
  Q 295.44 311.68 296.40 306.68
  C 302.95 304.48 303.37 299.35 303.23 293.19
  Q 303.17 290.25 302.26 286.06
  Q 299.63 274.00 296.05 262.55
  C 294.52 257.65 292.27 253.14 290.16 247.64
  C 287.42 240.48 282.16 234.37 278.77 227.39
  A 1.05 0.70 -90.0 0 0 278.63 227.18
  L 267.31 214.35
  A 0.12 0.11 -29.3 0 0 267.18 214.32
  L 266.27 214.63
  A 0.09 0.09 0.0 0 0 266.24 214.78
  L 271.20 219.21
  A 0.03 0.03 0.0 0 1 271.20 219.26
  L 270.96 219.46
  A 0.20 0.19 -46.1 0 1 270.70 219.47
  Q 265.03 214.54 259.32 209.69
  Q 257.92 208.50 256.03 205.07
  Q 259.86 207.20 260.92 207.62
  Q 269.67 211.10 274.85 213.85
  Q 282.88 218.12 291.45 221.08
  Z"
/>
<path fill="#ee6024" d="
  M 301.70 221.93
  Q 304.64 222.84 313.08 226.14
  Q 316.34 227.41 321.37 227.56
  Q 332.49 227.90 343.59 227.47
  A 0.35 0.34 -0.8 0 1 343.95 227.81
  L 343.95 228.07
  A 0.15 0.15 0.0 0 1 343.81 228.22
  Q 325.15 229.02 311.74 228.63
  C 308.27 228.53 305.49 227.45 302.10 225.49
  Q 297.10 222.58 291.45 221.08
  L 301.70 221.93
  Z"
/>
<path fill="#f48626" d="
  M 120.93 402.79
  Q 105.40 384.65 95.52 369.72
  Q 88.24 358.71 82.40 342.83
  Q 81.31 339.87 80.53 332.24
  C 79.39 321.08 78.20 314.05 79.21 304.99
  C 80.25 295.67 80.73 287.71 83.60 279.54
  Q 93.42 251.59 113.95 230.23
  Q 125.78 235.13 133.89 240.61
  Q 159.77 258.08 163.37 260.59
  C 170.71 265.72 175.92 270.98 176.32 280.41
  A 0.66 0.65 76.9 0 1 175.94 281.04
  Q 169.61 283.95 161.25 289.47
  C 151.04 296.22 143.44 304.48 136.38 313.13
  C 131.43 319.20 128.85 324.79 123.85 334.37
  Q 121.94 338.03 119.93 345.78
  Q 117.77 354.10 117.12 357.53
  Q 112.96 379.48 120.93 402.79
  Z"
/>
<circle fill="#f48626" cx="227.79" cy="342.62" r="26.42"/>
<path fill="#f99929" d="
  M 295.19 365.31
  C 306.00 375.38 316.42 384.05 325.25 397.04
  C 313.46 420.90 290.03 433.54 263.90 431.63
  Q 258.31 431.22 249.70 429.59
  C 246.47 428.97 246.53 425.72 248.52 423.77
  Q 265.27 407.39 276.65 394.91
  Q 288.84 381.57 295.19 365.31
  Z"
/>
<path fill="#f57b27" d="
  M 182.25 395.81
  Q 197.91 411.13 220.29 431.96
  Q 224.44 435.82 229.08 441.46
  C 231.84 444.83 234.75 447.06 236.28 451.21
  C 239.79 460.68 241.80 470.38 240.54 480.46
  Q 239.35 490.01 234.96 499.35
  A 1.58 1.47 84.1 0 1 234.62 499.80
  L 230.08 504.06
  A 2.28 2.27 -47.3 0 1 227.12 504.18
  C 223.25 501.11 220.01 498.91 216.13 495.24
  Q 201.33 481.24 178.53 460.00
  C 164.53 446.95 151.74 435.01 139.24 422.13
  C 140.41 412.74 147.67 408.81 155.54 405.55
  Q 168.66 400.11 182.25 395.81
  Z"
/>
</svg>