<?xml version="1.0" encoding="UTF-8" standalone="no"?>
<!DOCTYPE svg PUBLIC "-//W3C//DTD SVG 1.1//EN" "http://www.w3.org/Graphics/SVG/1.1/DTD/svg11.dtd">
<svg xmlns="http://www.w3.org/2000/svg" version="1.1" viewBox="0.00 0.00 512.00 512.00" width="128" height="128">
<ellipse fill="#f2b02f" cx="0.00" cy="0.00" transform="translate(145.31,119.37) rotate(-90.6)" rx="23.37" ry="23.00"/>
<ellipse fill="#f2b02f" cx="0.00" cy="0.00" transform="translate(366.50,119.37) rotate(-89.1)" rx="23.37" ry="22.99"/>
<path fill="#f2b02f" d="
  M 255.89 192.11
  C 299.05 192.10 330.66 227.89 336.66 268.35
  Q 338.87 283.23 336.95 300.26
  Q 330.68 356.09 288.93 393.20
  A 0.39 0.39 0.0 0 0 289.08 393.87
  Q 305.30 398.71 323.01 399.80
  Q 357.55 401.94 386.66 384.61
  C 430.25 358.66 456.57 310.91 457.45 260.12
  A 0.38 0.38 0.0 0 1 457.83 259.75
  L 488.81 259.75
  A 0.46 0.46 0.0 0 1 489.27 260.21
  C 488.94 324.66 451.13 388.82 393.49 417.30
  Q 359.56 434.07 320.50 431.63
  Q 286.46 429.50 256.60 415.11
  Q 256.17 414.90 255.95 414.90
  Q 255.73 414.90 255.30 415.11
  Q 225.45 429.52 191.41 431.66
  Q 152.35 434.13 118.41 417.37
  C 60.76 388.92 22.91 324.78 22.55 260.33
  A 0.46 0.46 0.0 0 1 23.01 259.87
  L 53.99 259.86
  A 0.38 0.38 0.0 0 1 54.37 260.23
  C 55.27 311.02 81.62 358.75 125.22 384.68
  Q 154.34 401.99 188.88 399.84
  Q 206.59 398.74 222.81 393.89
  A 0.39 0.39 0.0 0 0 222.96 393.22
  Q 181.19 356.13 174.89 300.30
  Q 172.96 283.27 175.16 268.39
  C 181.14 227.93 212.73 192.12 255.89 192.11
  Z
  M 255.77 378.07
  Q 256.21 378.08 257.32 377.30
  Q 296.49 349.77 304.34 303.52
  C 308.65 278.11 305.29 253.09 285.21 235.48
  Q 272.22 224.09 256.07 224.06
  Q 239.91 224.03 226.88 235.37
  C 206.73 252.90 203.28 277.91 207.49 303.33
  Q 215.16 349.61 254.23 377.29
  Q 255.33 378.07 255.77 378.07
  Z"
/>
</svg>