<?xml version="1.0" encoding="UTF-8" standalone="no"?>
<!DOCTYPE svg PUBLIC "-//W3C//DTD SVG 1.1//EN" "http://www.w3.org/Graphics/SVG/1.1/DTD/svg11.dtd">
<svg xmlns="http://www.w3.org/2000/svg" version="1.1" viewBox="0.00 0.00 192.00 192.00" width="128" height="128">
<path fill="#24a9df" d="
  M 108.15 36.93
  C 106.68 34.09 100.87 33.54 98.01 33.75
  C 83.82 34.77 70.63 44.76 61.22 55.45
  C 53.86 63.82 42.58 81.53 52.39 92.22
  C 54.04 94.02 57.30 93.49 59.96 93.19
  C 65.76 92.51 69.06 101.43 68.91 105.32
  C 68.46 116.97 59.65 135.58 44.82 133.90
  C 38.97 133.24 35.62 131.57 31.86 126.80
  Q 28.35 122.35 25.32 114.70
  C 15.86 90.80 17.14 65.34 29.40 43.51
  C 50.93 5.18 98.96 -7.55 136.80 13.44
  C 140.30 15.38 144.41 18.13 146.50 21.40
  C 157.26 38.23 138.55 50.50 124.69 53.04
  C 119.12 54.06 112.09 52.51 109.27 47.20
  A 3.66 3.59 -61.7 0 1 108.86 45.79
  C 108.66 43.54 109.39 39.32 108.15 36.93
  Z"
/>
<path fill="#033b4c" d="
  M 160.22 38.26
  A 0.26 0.26 0.0 0 1 160.69 38.18
  C 171.64 53.39 176.48 71.47 174.86 90.30
  C 171.30 131.51 146.31 167.31 111.65 188.96
  A 0.40 0.39 -9.6 0 1 111.05 188.54
  C 113.17 179.48 114.12 164.90 103.16 160.81
  Q 101.45 160.17 95.53 159.96
  Q 72.29 159.13 53.19 145.45
  A 0.27 0.27 0.0 0 1 53.26 144.97
  Q 67.16 140.64 73.90 127.29
  A 0.87 0.86 -62.0 0 1 75.09 126.92
  C 98.99 139.92 129.15 130.75 142.21 107.47
  Q 155.11 84.48 143.08 59.10
  A 0.61 0.60 -29.2 0 1 143.30 58.33
  C 151.44 53.01 157.41 47.96 160.22 38.26
  Z"
/>
</svg>