<?xml version="1.0" encoding="UTF-8" standalone="no"?>
<!DOCTYPE svg PUBLIC "-//W3C//DTD SVG 1.1//EN" "http://www.w3.org/Graphics/SVG/1.1/DTD/svg11.dtd">
<svg xmlns="http://www.w3.org/2000/svg" version="1.1" viewBox="0.00 0.00 256.00 256.00" width="128" height="128">
<path fill="#ff4900" d="
  M 159.63 9.82
  Q 162.99 10.29 170.63 12.04
  Q 175.62 13.19 181.38 15.29
  Q 195.42 20.40 207.48 28.08
  C 211.96 30.93 215.29 36.41 213.14 41.76
  Q 212.42 43.55 210.61 44.53
  C 205.65 47.21 201.19 46.00 196.65 43.08
  Q 185.86 36.14 174.80 32.49
  C 170.43 31.05 162.40 28.26 155.54 27.63
  Q 146.04 26.75 134.18 27.25
  Q 124.60 27.66 115.51 30.68
  Q 103.17 34.77 96.72 38.21
  Q 65.46 54.87 50.80 88.80
  C 49.71 91.30 46.09 93.65 43.43 94.69
  C 38.40 96.66 31.41 92.86 32.88 86.62
  Q 34.10 81.41 36.34 77.07
  C 39.43 71.06 41.57 66.19 44.90 61.19
  Q 55.42 45.38 69.23 34.73
  C 74.40 30.74 76.78 28.62 81.44 26.07
  Q 88.70 22.08 94.17 19.31
  C 98.80 16.96 102.59 16.15 107.35 14.22
  Q 109.23 13.46 112.76 12.57
  Q 136.47 6.59 159.63 9.82
  Z"
/>
<path fill="#ff4900" d="
  M 85.18 177.92
  C 80.87 178.24 76.59 178.61 72.99 176.53
  Q 71.63 175.75 69.35 171.77
  Q 59.22 154.04 58.53 134.53
  C 57.95 118.17 60.71 102.08 68.34 88.25
  Q 87.51 53.48 127.09 44.02
  Q 130.96 43.10 135.25 42.96
  Q 139.35 42.84 152.72 42.88
  C 162.00 42.92 169.64 45.60 179.50 49.24
  C 184.30 51.01 186.75 54.41 188.49 59.05
  Q 189.05 60.56 188.93 62.12
  A 2.44 2.43 -14.6 0 1 187.84 63.97
  C 184.55 66.12 180.56 68.04 176.72 66.77
  C 172.07 65.25 166.59 62.55 161.10 61.31
  Q 128.45 53.90 101.51 74.77
  Q 95.30 79.59 92.35 83.60
  C 88.35 89.04 84.73 93.28 82.45 98.48
  Q 78.03 108.52 76.47 116.24
  Q 73.19 132.55 78.30 149.70
  C 79.97 155.31 83.94 162.64 85.79 167.70
  Q 87.36 171.97 86.73 176.47
  A 1.69 1.69 0.0 0 1 85.18 177.92
  Z"
/>
<path fill="#ff4900" d="
  M 198.14 128.11
  A 53.75 53.75 0.0 0 1 144.39 181.86
  A 53.75 53.75 0.0 0 1 90.64 128.11
  A 53.75 53.75 0.0 0 1 144.39 74.36
  A 53.75 53.75 0.0 0 1 198.14 128.11
  Z
  M 181.40 128.08
  A 37.06 37.06 0.0 0 0 144.34 91.02
  A 37.06 37.06 0.0 0 0 107.28 128.08
  A 37.06 37.06 0.0 0 0 144.34 165.14
  A 37.06 37.06 0.0 0 0 181.40 128.08
  Z"
/>
<path fill="#ff4900" d="
  M 140.38 132.20
  Q 142.43 134.24 144.84 135.46
  C 147.45 136.78 149.62 135.81 153.14 134.97
  Q 159.32 133.49 163.45 137.29
  Q 166.35 139.96 164.71 144.02
  C 162.26 150.06 156.13 149.90 150.62 148.49
  Q 140.13 145.79 133.46 139.13
  Q 126.79 132.46 124.08 121.98
  C 122.67 116.47 122.50 110.34 128.54 107.88
  Q 132.60 106.24 135.27 109.14
  Q 139.07 113.26 137.60 119.44
  C 136.76 122.96 135.79 125.13 137.12 127.75
  Q 138.34 130.15 140.38 132.20
  Z"
/>
<path fill="#ff4900" d="
  M 210.01 214.04
  C 211.22 216.42 209.33 224.36 208.67 226.44
  Q 208.10 228.23 205.74 229.50
  C 198.53 233.40 194.40 235.99 188.29 238.16
  Q 177.74 241.91 169.92 243.89
  Q 167.06 244.61 158.65 245.15
  A 16.09 14.08 8.0 0 0 156.42 245.45
  Q 147.60 247.27 140.36 246.34
  Q 132.44 245.31 128.62 244.94
  Q 122.10 244.29 116.99 242.96
  Q 94.69 237.17 76.59 224.21
  Q 74.42 222.66 66.82 216.22
  Q 61.87 212.01 57.86 207.32
  Q 50.11 198.24 47.13 193.42
  C 40.20 182.21 34.74 170.47 32.03 158.09
  C 31.06 153.67 29.49 149.17 28.98 144.24
  Q 27.78 132.80 28.15 126.00
  Q 28.55 118.82 35.64 116.92
  C 40.40 115.65 44.29 119.13 46.21 123.16
  Q 47.07 124.97 47.05 131.04
  Q 46.99 142.53 48.86 149.70
  Q 50.45 155.82 51.69 160.67
  A 23.45 23.20 -66.3 0 0 53.70 165.90
  C 55.49 169.27 57.12 173.78 59.23 177.47
  C 66.43 189.99 75.83 201.02 87.44 208.80
  C 90.66 210.95 93.94 213.80 97.75 215.73
  Q 104.53 219.17 113.56 222.52
  Q 119.49 224.72 129.56 226.26
  Q 139.71 227.82 145.66 229.01
  A 4.72 4.67 -48.7 0 0 148.12 228.84
  C 150.85 227.88 152.46 227.30 155.34 227.03
  Q 172.36 225.44 188.00 217.72
  Q 193.89 214.82 194.53 214.55
  A 10.81 10.76 -62.0 0 1 196.70 213.88
  Q 202.42 212.80 209.53 213.69
  A 0.63 0.61 79.9 0 1 210.01 214.04
  Z"
/>
<path fill="#ff4900" d="
  M 208.01 174.78
  C 209.87 179.99 210.43 189.26 205.50 193.24
  Q 193.31 203.10 189.87 204.90
  Q 185.70 207.09 177.47 210.63
  C 172.75 212.66 169.85 213.27 164.12 214.85
  Q 158.85 216.30 153.48 216.75
  Q 129.26 218.75 108.32 208.80
  Q 103.63 206.57 100.55 204.31
  C 97.87 202.34 98.50 197.07 98.94 193.73
  C 99.19 191.79 99.52 190.17 101.74 189.81
  Q 107.52 188.87 111.02 190.25
  Q 125.65 196.06 126.04 196.21
  Q 129.12 197.41 132.74 197.78
  C 142.01 198.71 151.30 198.87 160.06 197.41
  Q 164.10 196.74 166.20 195.58
  C 168.54 194.30 175.17 192.48 179.31 189.80
  Q 188.07 184.14 197.89 175.93
  C 200.04 174.14 205.08 171.81 207.45 173.95
  A 2.08 1.96 12.7 0 1 208.01 174.78
  Z"
/>
</svg>