<?xml version="1.0" encoding="UTF-8" standalone="no"?>
<!DOCTYPE svg PUBLIC "-//W3C//DTD SVG 1.1//EN" "http://www.w3.org/Graphics/SVG/1.1/DTD/svg11.dtd">
<svg xmlns="http://www.w3.org/2000/svg" version="1.1" viewBox="0.00 0.00 512.00 512.00" width="128" height="128">
<g stroke-width="2.00" fill="none" stroke-linecap="butt">
<path stroke="#a29eec" vector-effect="non-scaling-stroke" d="
  M 64.47 256.51
  Q 64.47 349.13 64.45 355.10
  Q 64.36 377.01 65.98 384.30
  C 74.24 421.54 105.71 448.55 144.49 448.55
  C 183.27 448.55 214.75 421.53 223.00 384.29
  Q 224.62 377.01 224.53 355.10
  Q 224.51 349.12 224.51 256.51
  Q 224.51 163.90 224.53 157.92
  Q 224.62 136.01 223.00 128.73
  C 214.74 91.49 183.27 64.48 144.48 64.48
  C 105.70 64.48 74.23 91.49 65.97 128.73
  Q 64.36 136.02 64.44 157.93
  Q 64.47 163.90 64.47 256.51"
/>
<path stroke="#a29eec" vector-effect="non-scaling-stroke" d="
  M 336.47 88.49
  A 23.98 23.98 0.0 0 0 312.49 64.51
  A 23.98 23.98 0.0 0 0 288.51 88.49
  A 23.98 23.98 0.0 0 0 312.49 112.47
  A 23.98 23.98 0.0 0 0 336.47 88.49"
/>
<path stroke="#a29eec" vector-effect="non-scaling-stroke" d="
  M 448.68 88.49
  A 23.97 23.97 0.0 0 0 424.71 64.52
  A 23.97 23.97 0.0 0 0 400.74 88.49
  A 23.97 23.97 0.0 0 0 424.71 112.46
  A 23.97 23.97 0.0 0 0 448.68 88.49"
/>
<path stroke="#a29eec" vector-effect="non-scaling-stroke" d="
  M 336.50 184.49
  A 24.01 24.01 0.0 0 0 312.49 160.48
  A 24.01 24.01 0.0 0 0 288.48 184.49
  A 24.01 24.01 0.0 0 0 312.49 208.50
  A 24.01 24.01 0.0 0 0 336.50 184.49"
/>
<path stroke="#a29eec" vector-effect="non-scaling-stroke" d="
  M 448.48 184.49
  A 23.99 23.99 0.0 0 0 424.49 160.50
  A 23.99 23.99 0.0 0 0 400.50 184.49
  A 23.99 23.99 0.0 0 0 424.49 208.48
  A 23.99 23.99 0.0 0 0 448.48 184.49"
/>
<path stroke="#a29eec" vector-effect="non-scaling-stroke" d="
  M 448.55 289.50
  A 1.03 1.03 0.0 0 0 447.52 288.47
  L 289.54 288.47
  A 1.03 1.03 0.0 0 0 288.51 289.50
  L 288.51 447.48
  A 1.03 1.03 0.0 0 0 289.54 448.51
  L 447.52 448.51
  A 1.03 1.03 0.0 0 0 448.55 447.48
  L 448.55 289.50"
/>
<path stroke="#a29eec" vector-effect="non-scaling-stroke" d="
  M 200.46 152.49
  A 55.99 55.99 0.0 0 0 144.47 96.50
  A 55.99 55.99 0.0 0 0 88.48 152.49
  A 55.99 55.99 0.0 0 0 144.47 208.48
  A 55.99 55.99 0.0 0 0 200.46 152.49"
/>
<path stroke="#a29eec" vector-effect="non-scaling-stroke" d="
  M 200.52 360.86
  A 56.01 56.01 0.0 0 0 144.51 304.85
  A 56.01 56.01 0.0 0 0 88.50 360.86
  A 56.01 56.01 0.0 0 0 144.51 416.87
  A 56.01 56.01 0.0 0 0 200.52 360.86"
/>
<path stroke="#a29eec" vector-effect="non-scaling-stroke" d="
  M 416.48 322.02
  A 1.19 1.19 0.0 0 0 415.29 320.83
  L 321.71 320.83
  A 1.19 1.19 0.0 0 0 320.52 322.02
  L 320.52 351.32
  A 1.19 1.19 0.0 0 0 321.71 352.51
  L 415.29 352.51
  A 1.19 1.19 0.0 0 0 416.48 351.32
  L 416.48 322.02"
/>
<path stroke="#a29eec" vector-effect="non-scaling-stroke" d="
  M 416.49 385.54
  A 1.02 1.02 0.0 0 0 415.47 384.52
  L 321.51 384.52
  A 1.02 1.02 0.0 0 0 320.49 385.54
  L 320.49 415.42
  A 1.02 1.02 0.0 0 0 321.51 416.44
  L 415.47 416.44
  A 1.02 1.02 0.0 0 0 416.49 415.42
  L 416.49 385.54"
/>
<path stroke="#a29eec" vector-effect="non-scaling-stroke" d="
  M 168.28 337.64
  A 0.77 0.77 0.0 0 0 167.51 336.87
  L 121.15 336.87
  A 0.77 0.77 0.0 0 0 120.38 337.64
  L 120.38 384.00
  A 0.77 0.77 0.0 0 0 121.15 384.77
  L 167.51 384.77
  A 0.77 0.77 0.0 0 0 168.28 384.00
  L 168.28 337.64"
/>
</g>
<path fill="#453dd8" d="
  M 415.49 0.00
  Q 425.11 -0.31 434.29 1.86
  C 457.35 7.33 476.39 17.81 491.41 36.56
  Q 509.64 59.33 512.00 88.37
  L 512.00 424.74
  Q 510.83 434.40 510.14 437.53
  C 501.25 478.18 466.23 508.77 424.76 512.00
  L 88.16 512.00
  C 48.97 508.41 16.68 482.48 4.69 445.02
  Q 1.71 435.73 0.00 423.85
  L 0.00 89.36
  Q 2.56 71.78 7.04 61.27
  Q 27.03 14.38 77.02 2.30
  Q 84.42 0.51 90.23 0.00
  L 415.49 0.00
  Z
  M 64.47 256.51
  Q 64.47 349.13 64.45 355.10
  Q 64.36 377.01 65.98 384.30
  C 74.24 421.54 105.71 448.55 144.49 448.55
  C 183.27 448.55 214.75 421.53 223.00 384.29
  Q 224.62 377.01 224.53 355.10
  Q 224.51 349.12 224.51 256.51
  Q 224.51 163.90 224.53 157.92
  Q 224.62 136.01 223.00 128.73
  C 214.74 91.49 183.27 64.48 144.48 64.48
  C 105.70 64.48 74.23 91.49 65.97 128.73
  Q 64.36 136.02 64.44 157.93
  Q 64.47 163.90 64.47 256.51
  Z
  M 336.47 88.49
  A 23.98 23.98 0.0 0 0 312.49 64.51
  A 23.98 23.98 0.0 0 0 288.51 88.49
  A 23.98 23.98 0.0 0 0 312.49 112.47
  A 23.98 23.98 0.0 0 0 336.47 88.49
  Z
  M 448.68 88.49
  A 23.97 23.97 0.0 0 0 424.71 64.52
  A 23.97 23.97 0.0 0 0 400.74 88.49
  A 23.97 23.97 0.0 0 0 424.71 112.46
  A 23.97 23.97 0.0 0 0 448.68 88.49
  Z
  M 336.50 184.49
  A 24.01 24.01 0.0 0 0 312.49 160.48
  A 24.01 24.01 0.0 0 0 288.48 184.49
  A 24.01 24.01 0.0 0 0 312.49 208.50
  A 24.01 24.01 0.0 0 0 336.50 184.49
  Z
  M 448.48 184.49
  A 23.99 23.99 0.0 0 0 424.49 160.50
  A 23.99 23.99 0.0 0 0 400.50 184.49
  A 23.99 23.99 0.0 0 0 424.49 208.48
  A 23.99 23.99 0.0 0 0 448.48 184.49
  Z
  M 448.55 289.50
  A 1.03 1.03 0.0 0 0 447.52 288.47
  L 289.54 288.47
  A 1.03 1.03 0.0 0 0 288.51 289.50
  L 288.51 447.48
  A 1.03 1.03 0.0 0 0 289.54 448.51
  L 447.52 448.51
  A 1.03 1.03 0.0 0 0 448.55 447.48
  L 448.55 289.50
  Z"
/>
<path fill="#ffffff" d="
  M 144.48 64.48
  C 183.27 64.48 214.74 91.49 223.00 128.73
  Q 224.62 136.01 224.53 157.92
  Q 224.51 163.90 224.51 256.51
  Q 224.51 349.12 224.53 355.10
  Q 224.62 377.01 223.00 384.29
  C 214.75 421.53 183.27 448.55 144.49 448.55
  C 105.71 448.55 74.24 421.54 65.98 384.30
  Q 64.36 377.01 64.45 355.10
  Q 64.47 349.13 64.47 256.51
  Q 64.47 163.90 64.44 157.93
  Q 64.36 136.02 65.97 128.73
  C 74.23 91.49 105.70 64.48 144.48 64.48
  Z
  M 200.46 152.49
  A 55.99 55.99 0.0 0 0 144.47 96.50
  A 55.99 55.99 0.0 0 0 88.48 152.49
  A 55.99 55.99 0.0 0 0 144.47 208.48
  A 55.99 55.99 0.0 0 0 200.46 152.49
  Z
  M 200.52 360.86
  A 56.01 56.01 0.0 0 0 144.51 304.85
  A 56.01 56.01 0.0 0 0 88.50 360.86
  A 56.01 56.01 0.0 0 0 144.51 416.87
  A 56.01 56.01 0.0 0 0 200.52 360.86
  Z"
/>
<circle fill="#ffffff" cx="312.49" cy="88.49" r="23.98"/>
<circle fill="#ffffff" cx="424.71" cy="88.49" r="23.97"/>
<circle fill="#453dd8" cx="144.47" cy="152.49" r="55.99"/>
<circle fill="#ffffff" cx="312.49" cy="184.49" r="24.01"/>
<circle fill="#ffffff" cx="424.49" cy="184.49" r="23.99"/>
<path fill="#ffffff" d="
  M 448.55 447.48
  A 1.03 1.03 0.0 0 1 447.52 448.51
  L 289.54 448.51
  A 1.03 1.03 0.0 0 1 288.51 447.48
  L 288.51 289.50
  A 1.03 1.03 0.0 0 1 289.54 288.47
  L 447.52 288.47
  A 1.03 1.03 0.0 0 1 448.55 289.50
  L 448.55 447.48
  Z
  M 416.48 322.02
  A 1.19 1.19 0.0 0 0 415.29 320.83
  L 321.71 320.83
  A 1.19 1.19 0.0 0 0 320.52 322.02
  L 320.52 351.32
  A 1.19 1.19 0.0 0 0 321.71 352.51
  L 415.29 352.51
  A 1.19 1.19 0.0 0 0 416.48 351.32
  L 416.48 322.02
  Z
  M 416.49 385.54
  A 1.02 1.02 0.0 0 0 415.47 384.52
  L 321.51 384.52
  A 1.02 1.02 0.0 0 0 320.49 385.54
  L 320.49 415.42
  A 1.02 1.02 0.0 0 0 321.51 416.44
  L 415.47 416.44
  A 1.02 1.02 0.0 0 0 416.49 415.42
  L 416.49 385.54
  Z"
/>
<path fill="#453dd8" d="
  M 200.52 360.86
  A 56.01 56.01 0.0 0 1 144.51 416.87
  A 56.01 56.01 0.0 0 1 88.50 360.86
  A 56.01 56.01 0.0 0 1 144.51 304.85
  A 56.01 56.01 0.0 0 1 200.52 360.86
  Z
  M 168.28 337.64
  A 0.77 0.77 0.0 0 0 167.51 336.87
  L 121.15 336.87
  A 0.77 0.77 0.0 0 0 120.38 337.64
  L 120.38 384.00
  A 0.77 0.77 0.0 0 0 121.15 384.77
  L 167.51 384.77
  A 0.77 0.77 0.0 0 0 168.28 384.00
  L 168.28 337.64
  Z"
/>
<rect fill="#453dd8" x="320.52" y="320.83" width="95.96" height="31.68" rx="1.19"/>
<rect fill="#ffffff" x="120.38" y="336.87" width="47.90" height="47.90" rx="0.77"/>
<rect fill="#453dd8" x="320.49" y="384.52" width="96.00" height="31.92" rx="1.02"/>
</svg>