<?xml version="1.0" encoding="UTF-8" standalone="no"?>
<!DOCTYPE svg PUBLIC "-//W3C//DTD SVG 1.1//EN" "http://www.w3.org/Graphics/SVG/1.1/DTD/svg11.dtd">
<svg xmlns="http://www.w3.org/2000/svg" version="1.1" viewBox="0.00 0.00 128.00 128.00" width="128" height="128">
<path stroke="#b5ecef" stroke-width="2.00" fill="none" stroke-linecap="butt" vector-effect="non-scaling-stroke" d="
  M 77.24 45.39
  Q 78.64 45.12 79.86 45.88
  A 2.22 2.13 68.1 0 0 80.48 46.16
  Q 85.42 47.53 88.98 50.65
  A 0.60 0.60 0.0 0 0 89.90 50.49
  L 103.43 26.34
  A 0.93 0.93 0.0 0 0 102.98 25.03
  C 100.37 23.72 95.49 20.80 91.64 19.52
  Q 73.18 13.41 56.80 17.85
  C 40.22 22.35 27.54 35.52 23.96 52.24
  Q 23.20 55.79 22.64 62.96
  C 22.44 65.39 23.26 68.22 23.26 70.09
  Q 23.25 72.37 23.97 75.38
  C 29.47 98.34 48.36 111.27 71.37 111.58
  Q 77.24 111.66 84.91 110.23
  A 2.71 0.77 -35.8 0 0 85.82 109.90
  Q 86.04 109.79 86.45 109.69
  Q 96.11 107.50 104.35 101.82
  A 1.32 1.32 0.0 0 0 104.75 100.07
  L 90.97 76.21
  A 0.31 0.30 54.2 0 0 90.50 76.13
  Q 86.46 79.79 82.06 81.29
  Q 78.37 82.55 76.10 82.67
  Q 73.46 82.80 67.41 82.42
  A 3.23 3.18 58.9 0 1 66.28 82.13
  Q 63.10 80.66 60.64 79.40
  Q 57.98 78.03 54.78 72.84
  A 6.18 2.21 55.7 0 0 54.30 72.11
  Q 54.08 71.81 53.71 71.53
  Q 53.34 71.25 53.39 70.36
  Q 53.44 69.47 52.96 68.81
  A 1.70 1.55 -70.7 0 1 52.69 68.18
  Q 50.62 56.72 59.13 49.03
  A 1.42 1.33 -73.3 0 1 59.65 48.73
  Q 60.76 48.39 62.12 47.10
  Q 63.43 45.84 66.78 45.34
  Q 67.32 45.26 67.73 45.41
  Q 68.41 45.65 68.51 45.05
  A 0.46 0.45 4.4 0 1 68.96 44.67
  L 76.13 44.70
  A 0.29 0.29 0.0 0 1 76.39 44.86
  Q 76.41 44.90 76.45 44.98
  A 0.71 0.71 0.0 0 0 77.24 45.39"
/>
<path fill="#6bd9de" d="
  M 123.39 108.86
  A 14.56 14.56 0.0 0 1 108.83 123.42
  L 19.19 123.42
  A 14.56 14.56 0.0 0 1 4.63 108.86
  L 4.63 19.20
  A 14.56 14.56 0.0 0 1 19.19 4.64
  L 108.83 4.64
  A 14.56 14.56 0.0 0 1 123.39 19.20
  L 123.39 108.86
  Z
  M 77.24 45.39
  Q 78.64 45.12 79.86 45.88
  A 2.22 2.13 68.1 0 0 80.48 46.16
  Q 85.42 47.53 88.98 50.65
  A 0.60 0.60 0.0 0 0 89.90 50.49
  L 103.43 26.34
  A 0.93 0.93 0.0 0 0 102.98 25.03
  C 100.37 23.72 95.49 20.80 91.64 19.52
  Q 73.18 13.41 56.80 17.85
  C 40.22 22.35 27.54 35.52 23.96 52.24
  Q 23.20 55.79 22.64 62.96
  C 22.44 65.39 23.26 68.22 23.26 70.09
  Q 23.25 72.37 23.97 75.38
  C 29.47 98.34 48.36 111.27 71.37 111.58
  Q 77.24 111.66 84.91 110.23
  A 2.71 0.77 -35.8 0 0 85.82 109.90
  Q 86.04 109.79 86.45 109.69
  Q 96.11 107.50 104.35 101.82
  A 1.32 1.32 0.0 0 0 104.75 100.07
  L 90.97 76.21
  A 0.31 0.30 54.2 0 0 90.50 76.13
  Q 86.46 79.79 82.06 81.29
  Q 78.37 82.55 76.10 82.67
  Q 73.46 82.80 67.41 82.42
  A 3.23 3.18 58.9 0 1 66.28 82.13
  Q 63.10 80.66 60.64 79.40
  Q 57.98 78.03 54.78 72.84
  A 6.18 2.21 55.7 0 0 54.30 72.11
  Q 54.08 71.81 53.71 71.53
  Q 53.34 71.25 53.39 70.36
  Q 53.44 69.47 52.96 68.81
  A 1.70 1.55 -70.7 0 1 52.69 68.18
  Q 50.62 56.72 59.13 49.03
  A 1.42 1.33 -73.3 0 1 59.65 48.73
  Q 60.76 48.39 62.12 47.10
  Q 63.43 45.84 66.78 45.34
  Q 67.32 45.26 67.73 45.41
  Q 68.41 45.65 68.51 45.05
  A 0.46 0.45 4.4 0 1 68.96 44.67
  L 76.13 44.70
  A 0.29 0.29 0.0 0 1 76.39 44.86
  Q 76.41 44.90 76.45 44.98
  A 0.71 0.71 0.0 0 0 77.24 45.39
  Z"
/>
<path fill="#ffffff" d="
  M 76.45 44.98
  Q 76.41 44.90 76.39 44.86
  A 0.29 0.29 0.0 0 0 76.13 44.70
  L 68.96 44.67
  A 0.46 0.45 4.4 0 0 68.51 45.05
  Q 68.41 45.65 67.73 45.41
  Q 67.32 45.26 66.78 45.34
  Q 63.43 45.84 62.12 47.10
  Q 60.76 48.39 59.65 48.73
  A 1.42 1.33 -73.3 0 0 59.13 49.03
  Q 50.62 56.72 52.69 68.18
  A 1.70 1.55 -70.7 0 0 52.96 68.81
  Q 53.44 69.47 53.39 70.36
  Q 53.34 71.25 53.71 71.53
  Q 54.08 71.81 54.30 72.11
  A 6.18 2.21 55.7 0 1 54.78 72.84
  Q 57.98 78.03 60.64 79.40
  Q 63.10 80.66 66.28 82.13
  A 3.23 3.18 58.9 0 0 67.41 82.42
  Q 73.46 82.80 76.10 82.67
  Q 78.37 82.55 82.06 81.29
  Q 86.46 79.79 90.50 76.13
  A 0.31 0.30 54.2 0 1 90.97 76.21
  L 104.75 100.07
  A 1.32 1.32 0.0 0 1 104.35 101.82
  Q 96.11 107.50 86.45 109.69
  Q 86.04 109.79 85.82 109.90
  A 2.71 0.77 -35.8 0 1 84.91 110.23
  Q 77.24 111.66 71.37 111.58
  C 48.36 111.27 29.47 98.34 23.97 75.38
  Q 23.25 72.37 23.26 70.09
  C 23.26 68.22 22.44 65.39 22.64 62.96
  Q 23.20 55.79 23.96 52.24
  C 27.54 35.52 40.22 22.35 56.80 17.85
  Q 73.18 13.41 91.64 19.52
  C 95.49 20.80 100.37 23.72 102.98 25.03
  A 0.93 0.93 0.0 0 1 103.43 26.34
  L 89.90 50.49
  A 0.60 0.60 0.0 0 1 88.98 50.65
  Q 85.42 47.53 80.48 46.16
  A 2.22 2.13 68.1 0 1 79.86 45.88
  Q 78.64 45.12 77.24 45.39
  A 0.71 0.71 0.0 0 1 76.45 44.98
  Z"
/>
</svg>