<?xml version="1.0" encoding="UTF-8" standalone="no"?>
<!DOCTYPE svg PUBLIC "-//W3C//DTD SVG 1.1//EN" "http://www.w3.org/Graphics/SVG/1.1/DTD/svg11.dtd">
<svg xmlns="http://www.w3.org/2000/svg" version="1.1" viewBox="0.00 0.00 256.00 256.00" width="128" height="128">
<g stroke-width="2.00" fill="none" stroke-linecap="butt">
<path stroke="#b8b9ba" vector-effect="non-scaling-stroke" d="
  M 126.02 58.94
  A 1.02 1.02 0.0 0 0 125.00 57.92
  L 115.98 57.92
  A 1.02 1.02 0.0 0 0 114.96 58.94
  L 114.96 198.10
  A 1.02 1.02 0.0 0 0 115.98 199.12
  L 125.00 199.12
  A 1.02 1.02 0.0 0 0 126.02 198.10
  L 126.02 58.94"
/>
<path stroke="#b8b9ba" vector-effect="non-scaling-stroke" d="
  M 157.48 64.41
  A 1.35 1.35 0.0 0 0 156.13 63.06
  L 147.87 63.06
  A 1.35 1.35 0.0 0 0 146.52 64.41
  L 146.52 187.19
  A 1.35 1.35 0.0 0 0 147.87 188.54
  L 156.13 188.54
  A 1.35 1.35 0.0 0 0 157.48 187.19
  L 157.48 64.41"
/>
<path stroke="#b8b9ba" vector-effect="non-scaling-stroke" d="
  M 142.10 74.99
  A 1.53 1.53 0.0 0 0 140.57 73.46
  L 132.57 73.46
  A 1.53 1.53 0.0 0 0 131.04 74.99
  L 131.04 176.77
  A 1.53 1.53 0.0 0 0 132.57 178.30
  L 140.57 178.30
  A 1.53 1.53 0.0 0 0 142.10 176.77
  L 142.10 74.99"
/>
<path stroke="#b8b9ba" vector-effect="non-scaling-stroke" d="
  M 204.07 80.17
  A 1.21 1.21 0.0 0 0 202.86 78.96
  L 194.62 78.96
  A 1.21 1.21 0.0 0 0 193.41 80.17
  L 193.41 171.83
  A 1.21 1.21 0.0 0 0 194.62 173.04
  L 202.86 173.04
  A 1.21 1.21 0.0 0 0 204.07 171.83
  L 204.07 80.17"
/>
<path stroke="#b8b9ba" vector-effect="non-scaling-stroke" d="
  M 79.46 80.43
  A 1.44 1.44 0.0 0 0 78.02 78.99
  L 70.08 78.99
  A 1.44 1.44 0.0 0 0 68.64 80.43
  L 68.64 171.53
  A 1.44 1.44 0.0 0 0 70.08 172.97
  L 78.02 172.97
  A 1.44 1.44 0.0 0 0 79.46 171.53
  L 79.46 80.43"
/>
<path stroke="#b8b9ba" vector-effect="non-scaling-stroke" d="
  M 95.0406 85.6296
  A 1.68 1.68 0.0 0 0 93.3635 83.9466
  L 85.8235 83.9335
  A 1.68 1.68 0.0 0 0 84.1406 85.6105
  L 83.9994 166.4904
  A 1.68 1.68 0.0 0 0 85.6765 168.1734
  L 93.2165 168.1865
  A 1.68 1.68 0.0 0 0 94.8994 166.5095
  L 95.0406 85.6296"
/>
<path stroke="#b8b9ba" vector-effect="non-scaling-stroke" d="
  M 110.5419 90.2997
  A 1.34 1.34 0.0 0 0 109.2043 88.9573
  L 100.8643 88.9428
  A 1.34 1.34 0.0 0 0 99.5220 90.2804
  L 99.3981 161.2603
  A 1.34 1.34 0.0 0 0 100.7357 162.6027
  L 109.0757 162.6172
  A 1.34 1.34 0.0 0 0 110.4180 161.2796
  L 110.5419 90.2997"
/>
<path stroke="#b8b9ba" vector-effect="non-scaling-stroke" d="
  M 63.54 96.12
  A 1.58 1.58 0.0 0 0 61.96 94.54
  L 54.48 94.54
  A 1.58 1.58 0.0 0 0 52.90 96.12
  L 52.90 156.04
  A 1.58 1.58 0.0 0 0 54.48 157.62
  L 61.96 157.62
  A 1.58 1.58 0.0 0 0 63.54 156.04
  L 63.54 96.12"
/>
<path stroke="#b8b9ba" vector-effect="non-scaling-stroke" d="
  M 188.4075 95.9405
  A 1.38 1.38 0.0 0 0 187.0251 94.5629
  L 178.8051 94.5772
  A 1.38 1.38 0.0 0 0 177.4275 95.9596
  L 177.5325 156.1595
  A 1.38 1.38 0.0 0 0 178.9149 157.5371
  L 187.1349 157.5228
  A 1.38 1.38 0.0 0 0 188.5125 156.1404
  L 188.4075 95.9405"
/>
<path stroke="#b8b9ba" vector-effect="non-scaling-stroke" d="
  M 172.8365 100.8005
  A 1.41 1.41 0.0 0 0 171.4240 99.3930
  L 163.3240 99.4071
  A 1.41 1.41 0.0 0 0 161.9165 100.8196
  L 162.0035 150.6995
  A 1.41 1.41 0.0 0 0 163.4160 152.1070
  L 171.5160 152.0929
  A 1.41 1.41 0.0 0 0 172.9235 150.6804
  L 172.8365 100.8005"
/>
<path stroke="#b8b9ba" vector-effect="non-scaling-stroke" d="
  M 220.01 106.21
  A 1.23 1.23 0.0 0 0 218.78 104.98
  L 210.10 104.98
  A 1.23 1.23 0.0 0 0 208.87 106.21
  L 208.87 145.75
  A 1.23 1.23 0.0 0 0 210.10 146.98
  L 218.78 146.98
  A 1.23 1.23 0.0 0 0 220.01 145.75
  L 220.01 106.21"
/>
<path stroke="#b8b9ba" vector-effect="non-scaling-stroke" d="
  M 32.49 111.59
  A 1.53 1.53 0.0 0 0 30.96 110.06
  L 23.04 110.06
  A 1.53 1.53 0.0 0 0 21.51 111.59
  L 21.51 140.59
  A 1.53 1.53 0.0 0 0 23.04 142.12
  L 30.96 142.12
  A 1.53 1.53 0.0 0 0 32.49 140.59
  L 32.49 111.59"
/>
<path stroke="#b8b9ba" vector-effect="non-scaling-stroke" d="
  M 48.05 111.22
  A 1.23 1.23 0.0 0 0 46.82 109.99
  L 38.24 109.99
  A 1.23 1.23 0.0 0 0 37.01 111.22
  L 37.01 140.86
  A 1.23 1.23 0.0 0 0 38.24 142.09
  L 46.82 142.09
  A 1.23 1.23 0.0 0 0 48.05 140.86
  L 48.05 111.22"
/>
<path stroke="#b8b9ba" vector-effect="non-scaling-stroke" d="
  M 233.83 142.15
  A 1.65 1.65 0.0 0 0 235.48 140.50
  L 235.48 111.64
  A 1.65 1.65 0.0 0 0 233.83 109.99
  L 226.18 109.99
  A 1.65 1.65 0.0 0 0 224.53 111.64
  L 224.53 140.50
  A 1.65 1.65 0.0 0 0 226.18 142.15
  L 233.83 142.15"
/>
<path stroke="#b8b9ba" vector-effect="non-scaling-stroke" d="
  M 16.98 134.99
  L 16.82 116.27
  A 1.52 1.52 0.0 0 0 15.28 114.77
  L 9.47 114.82
  A 3.52 2.31 -0.5 0 0 5.97 117.16
  L 6.11 134.30
  A 3.52 2.31 -0.5 0 0 9.66 136.58
  L 15.47 136.53
  A 1.52 1.52 0.0 0 0 16.98 134.99"
/>
<path stroke="#b8b9ba" vector-effect="non-scaling-stroke" d="
  M 250.9719 116.6391
  A 1.75 1.75 0.0 0 0 249.2280 114.8831
  L 241.7880 114.8571
  A 1.75 1.75 0.0 0 0 240.0319 116.6010
  L 239.9681 134.8809
  A 1.75 1.75 0.0 0 0 241.7120 136.6369
  L 249.1520 136.6629
  A 1.75 1.75 0.0 0 0 250.9081 134.9190
  L 250.9719 116.6391"
/>
</g>
<path fill="#ffffff" d="
  M 256.00 0.00
  L 256.00 256.00
  L 0.00 256.00
  L 0.00 0.00
  L 256.00 0.00
  Z
  M 126.02 58.94
  A 1.02 1.02 0.0 0 0 125.00 57.92
  L 115.98 57.92
  A 1.02 1.02 0.0 0 0 114.96 58.94
  L 114.96 198.10
  A 1.02 1.02 0.0 0 0 115.98 199.12
  L 125.00 199.12
  A 1.02 1.02 0.0 0 0 126.02 198.10
  L 126.02 58.94
  Z
  M 157.48 64.41
  A 1.35 1.35 0.0 0 0 156.13 63.06
  L 147.87 63.06
  A 1.35 1.35 0.0 0 0 146.52 64.41
  L 146.52 187.19
  A 1.35 1.35 0.0 0 0 147.87 188.54
  L 156.13 188.54
  A 1.35 1.35 0.0 0 0 157.48 187.19
  L 157.48 64.41
  Z
  M 142.10 74.99
  A 1.53 1.53 0.0 0 0 140.57 73.46
  L 132.57 73.46
  A 1.53 1.53 0.0 0 0 131.04 74.99
  L 131.04 176.77
  A 1.53 1.53 0.0 0 0 132.57 178.30
  L 140.57 178.30
  A 1.53 1.53 0.0 0 0 142.10 176.77
  L 142.10 74.99
  Z
  M 204.07 80.17
  A 1.21 1.21 0.0 0 0 202.86 78.96
  L 194.62 78.96
  A 1.21 1.21 0.0 0 0 193.41 80.17
  L 193.41 171.83
  A 1.21 1.21 0.0 0 0 194.62 173.04
  L 202.86 173.04
  A 1.21 1.21 0.0 0 0 204.07 171.83
  L 204.07 80.17
  Z
  M 79.46 80.43
  A 1.44 1.44 0.0 0 0 78.02 78.99
  L 70.08 78.99
  A 1.44 1.44 0.0 0 0 68.64 80.43
  L 68.64 171.53
  A 1.44 1.44 0.0 0 0 70.08 172.97
  L 78.02 172.97
  A 1.44 1.44 0.0 0 0 79.46 171.53
  L 79.46 80.43
  Z
  M 95.0406 85.6296
  A 1.68 1.68 0.0 0 0 93.3635 83.9466
  L 85.8235 83.9335
  A 1.68 1.68 0.0 0 0 84.1406 85.6105
  L 83.9994 166.4904
  A 1.68 1.68 0.0 0 0 85.6765 168.1734
  L 93.2165 168.1865
  A 1.68 1.68 0.0 0 0 94.8994 166.5095
  L 95.0406 85.6296
  Z
  M 110.5419 90.2997
  A 1.34 1.34 0.0 0 0 109.2043 88.9573
  L 100.8643 88.9428
  A 1.34 1.34 0.0 0 0 99.5220 90.2804
  L 99.3981 161.2603
  A 1.34 1.34 0.0 0 0 100.7357 162.6027
  L 109.0757 162.6172
  A 1.34 1.34 0.0 0 0 110.4180 161.2796
  L 110.5419 90.2997
  Z
  M 63.54 96.12
  A 1.58 1.58 0.0 0 0 61.96 94.54
  L 54.48 94.54
  A 1.58 1.58 0.0 0 0 52.90 96.12
  L 52.90 156.04
  A 1.58 1.58 0.0 0 0 54.48 157.62
  L 61.96 157.62
  A 1.58 1.58 0.0 0 0 63.54 156.04
  L 63.54 96.12
  Z
  M 188.4075 95.9405
  A 1.38 1.38 0.0 0 0 187.0251 94.5629
  L 178.8051 94.5772
  A 1.38 1.38 0.0 0 0 177.4275 95.9596
  L 177.5325 156.1595
  A 1.38 1.38 0.0 0 0 178.9149 157.5371
  L 187.1349 157.5228
  A 1.38 1.38 0.0 0 0 188.5125 156.1404
  L 188.4075 95.9405
  Z
  M 172.8365 100.8005
  A 1.41 1.41 0.0 0 0 171.4240 99.3930
  L 163.3240 99.4071
  A 1.41 1.41 0.0 0 0 161.9165 100.8196
  L 162.0035 150.6995
  A 1.41 1.41 0.0 0 0 163.4160 152.1070
  L 171.5160 152.0929
  A 1.41 1.41 0.0 0 0 172.9235 150.6804
  L 172.8365 100.8005
  Z
  M 220.01 106.21
  A 1.23 1.23 0.0 0 0 218.78 104.98
  L 210.10 104.98
  A 1.23 1.23 0.0 0 0 208.87 106.21
  L 208.87 145.75
  A 1.23 1.23 0.0 0 0 210.10 146.98
  L 218.78 146.98
  A 1.23 1.23 0.0 0 0 220.01 145.75
  L 220.01 106.21
  Z
  M 32.49 111.59
  A 1.53 1.53 0.0 0 0 30.96 110.06
  L 23.04 110.06
  A 1.53 1.53 0.0 0 0 21.51 111.59
  L 21.51 140.59
  A 1.53 1.53 0.0 0 0 23.04 142.12
  L 30.96 142.12
  A 1.53 1.53 0.0 0 0 32.49 140.59
  L 32.49 111.59
  Z
  M 48.05 111.22
  A 1.23 1.23 0.0 0 0 46.82 109.99
  L 38.24 109.99
  A 1.23 1.23 0.0 0 0 37.01 111.22
  L 37.01 140.86
  A 1.23 1.23 0.0 0 0 38.24 142.09
  L 46.82 142.09
  A 1.23 1.23 0.0 0 0 48.05 140.86
  L 48.05 111.22
  Z
  M 233.83 142.15
  A 1.65 1.65 0.0 0 0 235.48 140.50
  L 235.48 111.64
  A 1.65 1.65 0.0 0 0 233.83 109.99
  L 226.18 109.99
  A 1.65 1.65 0.0 0 0 224.53 111.64
  L 224.53 140.50
  A 1.65 1.65 0.0 0 0 226.18 142.15
  L 233.83 142.15
  Z
  M 16.98 134.99
  L 16.82 116.27
  A 1.52 1.52 0.0 0 0 15.28 114.77
  L 9.47 114.82
  A 3.52 2.31 -0.5 0 0 5.97 117.16
  L 6.11 134.30
  A 3.52 2.31 -0.5 0 0 9.66 136.58
  L 15.47 136.53
  A 1.52 1.52 0.0 0 0 16.98 134.99
  Z
  M 250.9719 116.6391
  A 1.75 1.75 0.0 0 0 249.2280 114.8831
  L 241.7880 114.8571
  A 1.75 1.75 0.0 0 0 240.0319 116.6010
  L 239.9681 134.8809
  A 1.75 1.75 0.0 0 0 241.7120 136.6369
  L 249.1520 136.6629
  A 1.75 1.75 0.0 0 0 250.9081 134.9190
  L 250.9719 116.6391
  Z"
/>
<rect fill="#717275" x="114.96" y="57.92" width="11.06" height="141.20" rx="1.02"/>
<rect fill="#717275" x="146.52" y="63.06" width="10.96" height="125.48" rx="1.35"/>
<rect fill="#717275" x="131.04" y="73.46" width="11.06" height="104.84" rx="1.53"/>
<rect fill="#717275" x="193.41" y="78.96" width="10.66" height="94.08" rx="1.21"/>
<rect fill="#717275" x="68.64" y="78.99" width="10.82" height="93.98" rx="1.44"/>
<rect fill="#717275" x="-5.45" y="-42.12" transform="translate(89.52,126.06) rotate(0.1)" width="10.90" height="84.24" rx="1.68"/>
<rect fill="#717275" x="-5.51" y="-36.83" transform="translate(104.97,125.78) rotate(0.1)" width="11.02" height="73.66" rx="1.34"/>
<rect fill="#717275" x="52.90" y="94.54" width="10.64" height="63.08" rx="1.58"/>
<rect fill="#717275" x="-5.49" y="-31.48" transform="translate(182.97,126.05) rotate(-0.1)" width="10.98" height="62.96" rx="1.38"/>
<rect fill="#717275" x="-5.46" y="-26.35" transform="translate(167.42,125.75) rotate(-0.1)" width="10.92" height="52.70" rx="1.41"/>
<rect fill="#717275" x="208.87" y="104.98" width="11.14" height="42.00" rx="1.23"/>
<rect fill="#717275" x="21.51" y="110.06" width="10.98" height="32.06" rx="1.53"/>
<rect fill="#717275" x="37.01" y="109.99" width="11.04" height="32.10" rx="1.23"/>
<path fill="#717275" d="
  M 233.83 142.15
  L 226.18 142.15
  A 1.65 1.65 0.0 0 1 224.53 140.50
  L 224.53 111.64
  A 1.65 1.65 0.0 0 1 226.18 109.99
  L 233.83 109.99
  A 1.65 1.65 0.0 0 1 235.48 111.64
  L 235.48 140.50
  A 1.65 1.65 0.0 0 1 233.83 142.15
  Z"
/>
<path fill="#717275" d="
  M 16.98 134.99
  A 1.52 1.52 0.0 0 1 15.47 136.53
  L 9.66 136.58
  A 3.52 2.31 -0.5 0 1 6.11 134.30
  L 5.97 117.16
  A 3.52 2.31 -0.5 0 1 9.47 114.82
  L 15.28 114.77
  A 1.52 1.52 0.0 0 1 16.82 116.27
  L 16.98 134.99
  Z"
/>
<rect fill="#717275" x="-5.47" y="-10.89" transform="translate(245.47,125.76) rotate(0.2)" width="10.94" height="21.78" rx="1.75"/>
</svg>