<?xml version="1.0" encoding="UTF-8" standalone="no"?>
<!DOCTYPE svg PUBLIC "-//W3C//DTD SVG 1.1//EN" "http://www.w3.org/Graphics/SVG/1.1/DTD/svg11.dtd">
<svg xmlns="http://www.w3.org/2000/svg" version="1.1" viewBox="0.00 0.00 256.00 256.00" width="128" height="128">
<g stroke-width="2.00" fill="none" stroke-linecap="butt">
<path stroke="#fc673e" stroke-opacity="0.643" vector-effect="non-scaling-stroke" d="
  M 21.74 122.26
  L 18.03 109.19
  A 0.33 0.33 0.0 0 0 17.71 108.95
  Q 16.94 108.98 17.15 108.49
  A 0.20 0.04 -79.1 0 1 17.17 108.44
  L 17.85 104.69
  A 0.38 0.32 -21.6 0 1 17.92 104.56
  L 18.11 104.39
  A 0.03 0.03 0.0 0 1 18.16 104.42
  L 17.90 105.22
  A 0.27 0.27 0.0 0 0 18.39 105.43
  Q 19.11 104.10 19.67 102.58"
/>
<path stroke="#df5f31" stroke-opacity="0.867" vector-effect="non-scaling-stroke" d="
  M 19.67 102.58
  Q 19.64 102.79 19.66 102.94
  A 0.14 0.14 0.0 0 0 19.93 102.93
  L 20.43 92.28"
/>
<path stroke="#ffb4a0" vector-effect="non-scaling-stroke" d="
  M 46.77 100.53
  Q 48.31 98.34 48.89 95.63
  C 50.76 86.81 51.38 79.40 48.22 71.26
  C 47.49 69.39 46.05 68.62 44.22 68.49
  C 34.78 67.80 30.65 79.43 30.16 87.07
  C 29.84 91.92 32.27 94.76 36.49 96.76
  Q 40.52 98.68 45.39 100.90
  A 1.12 1.11 -59.8 0 0 46.77 100.53"
/>
<path stroke="#ffb4a0" vector-effect="non-scaling-stroke" d="
  M 71.47 105.40
  Q 72.25 106.00 73.25 106.24
  Q 84.84 109.11 97.13 108.83
  C 101.97 108.72 106.12 107.53 110.31 105.99
  A 2.28 2.27 -84.8 0 0 111.47 105.02
  Q 118.53 92.83 113.24 80.06
  C 111.31 75.40 105.76 70.84 100.34 71.03
  C 89.27 71.42 79.98 78.95 75.46 88.75
  Q 71.98 96.30 71.01 104.31
  A 1.20 1.19 -68.2 0 0 71.47 105.40"
/>
<path stroke="#ffb4a0" vector-effect="non-scaling-stroke" d="
  M 46.15 115.82
  L 54.27 110.49
  A 1.64 1.64 0.0 0 0 54.09 107.64
  Q 48.42 104.86 42.94 106.80
  A 2.62 2.62 0.0 0 0 41.62 110.71
  L 44.79 115.54
  A 0.98 0.97 56.6 0 0 46.15 115.82"
/>
</g>
<path fill="#ff6841" d="
  M 256.00 120.89
  L 256.00 134.25
  C 255.06 141.23 252.67 147.94 249.65 154.35
  C 241.58 171.49 225.21 181.37 206.76 183.78
  A 2.01 2.01 0.0 0 0 205.06 186.23
  Q 205.65 188.76 206.15 190.09
  Q 209.46 199.02 223.17 234.82
  Q 225.22 240.16 224.84 245.29
  A 2.30 2.29 2.0 0 1 222.56 247.41
  C 217.52 247.43 212.09 244.01 207.92 240.83
  C 194.84 230.84 182.27 217.19 163.77 220.72
  Q 157.15 221.98 154.05 227.18
  C 151.75 231.02 150.15 236.88 148.74 241.64
  C 147.78 244.88 146.42 246.41 143.43 247.28
  C 140.66 248.08 137.34 244.36 136.22 242.28
  Q 132.86 236.05 128.31 227.92
  Q 126.21 224.18 120.42 221.34
  A 0.92 0.89 -48.0 0 0 119.52 221.40
  Q 116.17 223.60 115.19 226.71
  Q 112.83 234.18 111.79 237.04
  Q 110.68 240.09 107.27 240.29
  C 104.68 240.44 103.69 240.34 102.08 238.28
  Q 97.75 232.74 95.21 224.27
  C 89.74 206.07 89.33 187.41 90.08 168.21
  C 90.22 164.51 92.44 156.64 90.05 153.67
  A 1.56 1.53 76.9 0 0 89.18 153.12
  Q 78.52 150.68 67.37 147.63
  Q 50.81 143.12 40.27 137.19
  Q 31.40 132.20 29.51 130.00
  Q 26.15 126.08 21.74 122.26
  L 18.03 109.19
  A 0.33 0.33 0.0 0 0 17.71 108.95
  Q 16.94 108.98 17.15 108.49
  A 0.20 0.04 -79.1 0 1 17.17 108.44
  L 17.85 104.69
  A 0.38 0.32 -21.6 0 1 17.92 104.56
  L 18.11 104.39
  A 0.03 0.03 0.0 0 1 18.16 104.42
  L 17.90 105.22
  A 0.27 0.27 0.0 0 0 18.39 105.43
  Q 19.11 104.10 19.67 102.58
  Q 19.64 102.79 19.66 102.94
  A 0.14 0.14 0.0 0 0 19.93 102.93
  L 20.43 92.28
  Q 22.16 86.83 23.59 82.04
  Q 27.38 69.37 33.50 58.92
  Q 38.46 50.44 47.74 38.13
  Q 55.90 27.32 67.87 16.57
  C 71.58 13.24 75.90 10.60 79.65 7.66
  Q 81.00 6.60 82.63 6.56
  A 0.78 0.77 78.4 0 1 83.36 7.05
  C 84.01 8.71 82.92 10.60 82.87 12.16
  C 82.62 19.98 82.45 27.92 81.10 35.51
  A 1.29 1.29 0.0 0 0 82.32 37.03
  Q 88.07 37.25 95.49 36.19
  Q 97.55 35.90 103.17 36.41
  C 111.78 37.20 119.83 37.37 130.00 37.96
  Q 135.74 38.30 141.26 40.53
  C 146.93 42.82 150.78 43.93 155.70 45.39
  A 3.00 2.97 41.6 0 0 157.75 45.28
  Q 167.60 41.16 178.49 39.21
  C 185.75 37.90 192.97 37.91 199.51 37.65
  Q 206.00 37.39 212.32 38.35
  A 0.74 0.73 -69.0 0 1 212.82 39.48
  Q 208.23 46.43 206.08 49.60
  Q 198.74 60.42 190.49 69.73
  Q 189.46 70.90 189.19 72.51
  A 1.83 1.75 39.6 0 0 189.30 73.47
  Q 195.43 88.46 196.34 104.23
  C 197.35 121.65 190.14 139.51 173.24 146.47
  Q 167.47 148.84 159.32 150.31
  Q 144.33 153.00 128.17 153.05
  A 1.57 1.57 0.0 0 0 126.74 155.26
  C 128.96 160.25 137.35 160.34 142.30 161.17
  C 145.69 161.73 150.47 164.64 154.16 165.61
  Q 157.77 166.55 163.87 166.81
  A 12.52 12.51 52.8 0 1 166.20 167.13
  C 170.64 168.17 175.90 170.17 180.90 170.62
  C 204.36 172.74 234.86 171.97 238.92 141.96
  Q 240.83 127.82 229.13 119.87
  C 223.36 115.96 219.86 113.97 216.68 110.36
  C 213.60 106.88 214.80 103.68 217.41 100.31
  Q 220.62 96.16 225.01 95.94
  C 240.29 95.17 253.48 105.77 256.00 120.89
  Z
  M 172.34 56.57
  Q 176.42 58.53 182.05 63.70
  A 2.42 2.41 -48.7 0 0 185.52 63.47
  C 188.95 59.39 192.54 56.79 193.82 51.57
  A 1.18 1.18 0.0 0 0 192.53 50.12
  C 185.98 50.94 182.37 50.99 177.62 52.72
  Q 173.61 54.18 172.24 55.09
  A 0.85 0.85 0.0 0 0 172.34 56.57
  Z
  M 46.77 100.53
  Q 48.31 98.34 48.89 95.63
  C 50.76 86.81 51.38 79.40 48.22 71.26
  C 47.49 69.39 46.05 68.62 44.22 68.49
  C 34.78 67.80 30.65 79.43 30.16 87.07
  C 29.84 91.92 32.27 94.76 36.49 96.76
  Q 40.52 98.68 45.39 100.90
  A 1.12 1.11 -59.8 0 0 46.77 100.53
  Z
  M 71.47 105.40
  Q 72.25 106.00 73.25 106.24
  Q 84.84 109.11 97.13 108.83
  C 101.97 108.72 106.12 107.53 110.31 105.99
  A 2.28 2.27 -84.8 0 0 111.47 105.02
  Q 118.53 92.83 113.24 80.06
  C 111.31 75.40 105.76 70.84 100.34 71.03
  C 89.27 71.42 79.98 78.95 75.46 88.75
  Q 71.98 96.30 71.01 104.31
  A 1.20 1.19 -68.2 0 0 71.47 105.40
  Z
  M 46.15 115.82
  L 54.27 110.49
  A 1.64 1.64 0.0 0 0 54.09 107.64
  Q 48.42 104.86 42.94 106.80
  A 2.62 2.62 0.0 0 0 41.62 110.71
  L 44.79 115.54
  A 0.98 0.97 56.6 0 0 46.15 115.82
  Z"
/>
<path fill="#ffffff" d="
  M 46.77 100.53
  A 1.12 1.11 -59.8 0 1 45.39 100.90
  Q 40.52 98.68 36.49 96.76
  C 32.27 94.76 29.84 91.92 30.16 87.07
  C 30.65 79.43 34.78 67.80 44.22 68.49
  C 46.05 68.62 47.49 69.39 48.22 71.26
  C 51.38 79.40 50.76 86.81 48.89 95.63
  Q 48.31 98.34 46.77 100.53
  Z"
/>
<path fill="#ffffff" d="
  M 71.47 105.40
  A 1.20 1.19 -68.2 0 1 71.01 104.31
  Q 71.98 96.30 75.46 88.75
  C 79.98 78.95 89.27 71.42 100.34 71.03
  C 105.76 70.84 111.31 75.40 113.24 80.06
  Q 118.53 92.83 111.47 105.02
  A 2.28 2.27 -84.8 0 1 110.31 105.99
  C 106.12 107.53 101.97 108.72 97.13 108.83
  Q 84.84 109.11 73.25 106.24
  Q 72.25 106.00 71.47 105.40
  Z"
/>
<path fill="#b4521c" fill-opacity="0.733" d="
  M 20.43 92.28
  L 19.93 102.93
  A 0.14 0.14 0.0 0 1 19.66 102.94
  Q 19.64 102.79 19.67 102.58
  Q 19.09 100.46 19.62 98.33
  A 0.03 0.03 0.0 0 0 19.56 98.31
  L 19.49 98.46
  A 0.26 0.25 -47.1 0 1 19.05 98.48
  L 18.70 97.94
  Q 18.94 97.24 18.85 96.49
  A 0.70 0.70 0.0 0 0 18.14 95.87
  L 16.23 95.89
  A 1.61 1.55 56.8 0 1 15.54 95.73
  Q 13.92 94.90 8.77 95.19
  Q 6.61 95.31 3.98 94.64
  A 1.93 1.93 0.0 0 1 2.53 92.82
  L 2.53 92.75
  A 1.39 1.29 0.9 0 1 4.00 91.43
  L 20.43 92.28
  Z"
/>
<path fill="#f16534" fill-opacity="0.286" d="
  M 18.70 97.94
  L 19.05 98.48
  A 0.26 0.25 -47.1 0 0 19.49 98.46
  L 19.56 98.31
  A 0.03 0.03 0.0 0 1 19.62 98.33
  Q 19.09 100.46 19.67 102.58
  Q 19.11 104.10 18.39 105.43
  A 0.27 0.27 0.0 0 1 17.90 105.22
  L 18.16 104.42
  A 0.03 0.03 0.0 0 0 18.11 104.39
  L 17.92 104.56
  A 0.38 0.32 -21.6 0 0 17.85 104.69
  L 17.17 108.44
  A 0.20 0.04 -79.1 0 0 17.15 108.49
  Q 16.94 108.98 17.71 108.95
  A 0.33 0.33 0.0 0 1 18.03 109.19
  L 21.74 122.26
  Q 20.00 121.43 18.29 122.01
  Q 17.90 119.14 16.25 117.06
  Q 17.74 114.64 17.38 111.75
  A 1.10 1.09 13.5 0 0 16.90 110.97
  Q 14.26 109.22 11.25 110.12
  Q 6.23 111.62 3.40 112.22
  A 2.59 2.59 0.0 0 1 0.32 109.22
  L 0.45 108.52
  A 4.46 4.45 1.2 0 1 4.23 104.91
  Q 7.22 104.50 13.61 103.18
  Q 15.12 102.86 15.95 101.99
  Q 16.02 101.92 16.12 101.37
  A 0.11 0.10 46.6 0 1 16.33 101.38
  L 16.38 101.70
  A 0.34 0.33 76.7 0 0 16.81 101.97
  Q 18.08 101.58 18.32 102.49
  A 0.17 0.16 46.4 0 0 18.64 102.50
  Q 18.69 102.31 18.26 101.33
  A 0.42 0.42 0.0 0 0 17.58 101.19
  Q 17.57 101.20 17.62 101.56
  A 0.06 0.06 0.0 0 1 17.51 101.59
  Q 17.21 100.92 16.81 100.90
  A 0.18 0.18 0.0 0 1 16.64 100.69
  L 17.23 97.47
  A 0.46 0.45 -52.6 0 1 18.09 97.35
  Q 18.30 97.80 18.70 97.94
  Z"
/>
<path fill="#ffffff" d="
  M 46.15 115.82
  A 0.98 0.97 56.6 0 1 44.79 115.54
  L 41.62 110.71
  A 2.62 2.62 0.0 0 1 42.94 106.80
  Q 48.42 104.86 54.09 107.64
  A 1.64 1.64 0.0 0 1 54.27 110.49
  L 46.15 115.82
  Z"
/>
<path fill="#de5228" fill-opacity="0.506" d="
  M 18.29 122.01
  Q 13.14 123.11 7.29 122.15
  A 1.50 1.49 -72.7 0 1 6.15 119.97
  L 6.23 119.83
  A 2.88 2.88 0.0 0 1 9.26 118.33
  Q 14.22 119.01 16.25 117.06
  Q 17.90 119.14 18.29 122.01
  Z"
/>
</svg>