<?xml version="1.0" encoding="UTF-8" standalone="no"?>
<!DOCTYPE svg PUBLIC "-//W3C//DTD SVG 1.1//EN" "http://www.w3.org/Graphics/SVG/1.1/DTD/svg11.dtd">
<svg xmlns="http://www.w3.org/2000/svg" version="1.1" viewBox="0.00 0.00 256.00 256.00" width="128" height="128">
<g stroke-width="2.00" fill="none" stroke-linecap="butt">
<path stroke="#99a0aa" vector-effect="non-scaling-stroke" d="
  M 90.69 74.44
  Q 71.60 106.06 60.76 123.17
  C 57.60 128.16 54.99 131.82 57.66 136.57
  C 61.66 143.68 66.67 150.95 70.41 157.17
  Q 80.31 173.63 89.57 188.46
  C 91.69 191.86 95.45 192.47 99.29 192.50
  Q 121.89 192.68 158.26 192.48
  Q 164.59 192.44 167.74 186.75
  C 172.38 178.35 177.92 170.73 182.90 162.81
  C 188.50 153.91 190.53 149.86 195.73 142.99
  C 198.64 139.14 202.40 132.65 199.30 127.95
  Q 190.02 113.85 181.05 99.31
  C 176.90 92.58 171.15 84.56 167.35 77.78
  C 164.32 72.37 160.72 72.30 154.79 72.30
  Q 104.02 72.27 95.26 72.52
  Q 91.79 72.62 90.69 74.44"
/>
<path stroke="#99a0aa" vector-effect="non-scaling-stroke" d="
  M 114.86 88.60
  A 2.14 2.14 0.0 0 0 113.03 91.85
  L 131.98 123.18
  A 2.14 2.14 0.0 0 0 133.81 124.21
  L 173.87 124.21
  A 2.14 2.14 0.0 0 0 175.67 120.92
  L 155.78 89.59
  A 2.14 2.14 0.0 0 0 153.97 88.60
  L 114.86 88.60"
/>
<path stroke="#99a0aa" vector-effect="non-scaling-stroke" d="
  M 74.93 131.08
  A 2.96 2.96 0.0 0 0 74.93 134.14
  L 93.96 165.62
  A 2.96 2.96 0.0 0 0 99.02 165.63
  L 118.09 134.16
  A 2.96 2.96 0.0 0 0 118.09 131.10
  L 99.06 99.62
  A 2.96 2.96 0.0 0 0 94.00 99.61
  L 74.93 131.08"
/>
<path stroke="#99a0aa" vector-effect="non-scaling-stroke" d="
  M 112.00 173.90
  A 1.45 1.45 0.0 0 0 113.12 175.78
  Q 116.49 176.38 121.00 176.44
  Q 127.28 176.52 148.52 176.42
  C 150.58 176.41 152.87 176.43 154.80 175.61
  Q 156.07 175.06 158.30 171.61
  Q 169.40 154.36 172.56 149.09
  Q 175.47 144.23 176.20 142.59
  A 1.46 1.46 0.0 0 0 175.23 140.59
  Q 173.86 140.23 171.25 140.21
  Q 166.58 140.19 140.90 140.20
  C 134.61 140.21 132.45 141.01 129.43 145.95
  Q 122.90 156.65 119.49 162.49
  Q 116.31 167.96 112.57 172.81
  Q 112.21 173.29 112.00 173.90"
/>
</g>
<path fill="#334155" d="
  M 130.48 0.00
  C 139.03 0.12 148.31 0.33 156.31 3.08
  C 163.54 5.57 170.86 7.40 178.19 10.36
  Q 185.00 13.11 188.04 14.97
  C 193.21 18.14 200.47 22.32 205.56 26.24
  Q 231.25 46.05 245.24 75.52
  C 249.19 83.85 251.16 92.11 254.31 102.98
  Q 255.84 108.24 256.00 119.64
  L 256.00 140.99
  C 255.59 145.10 255.36 149.41 254.36 153.28
  C 251.19 165.47 247.85 176.64 242.14 187.88
  Q 242.04 188.08 234.90 199.44
  Q 230.67 206.16 226.84 210.42
  Q 214.33 224.32 206.28 230.24
  Q 197.13 236.97 184.71 243.73
  Q 178.09 247.34 167.96 250.30
  Q 159.27 252.84 149.49 254.97
  Q 146.85 255.55 136.61 256.00
  L 121.52 256.00
  Q 111.38 256.02 105.86 254.91
  Q 101.70 254.08 84.71 248.76
  Q 74.18 245.47 63.60 238.76
  C 55.87 233.85 51.45 231.24 45.17 225.58
  Q 34.47 215.94 27.98 207.97
  Q 25.89 205.39 22.13 199.54
  C 17.32 192.04 14.07 186.50 10.85 179.63
  Q 9.02 175.74 6.78 167.69
  C 4.45 159.35 0.69 150.73 0.00 140.60
  L 0.00 122.27
  Q 0.14 114.78 1.44 107.52
  C 2.19 103.34 4.05 99.00 5.23 94.52
  C 8.32 82.83 12.43 72.44 18.88 62.56
  C 20.89 59.48 24.25 53.70 27.31 50.03
  Q 35.63 40.03 45.86 30.70
  Q 49.77 27.12 56.48 22.76
  C 66.29 16.38 75.65 10.62 86.99 7.41
  Q 94.40 5.31 107.39 1.10
  Q 109.31 0.47 117.13 0.00
  L 130.48 0.00
  Z
  M 90.69 74.44
  Q 71.60 106.06 60.76 123.17
  C 57.60 128.16 54.99 131.82 57.66 136.57
  C 61.66 143.68 66.67 150.95 70.41 157.17
  Q 80.31 173.63 89.57 188.46
  C 91.69 191.86 95.45 192.47 99.29 192.50
  Q 121.89 192.68 158.26 192.48
  Q 164.59 192.44 167.74 186.75
  C 172.38 178.35 177.92 170.73 182.90 162.81
  C 188.50 153.91 190.53 149.86 195.73 142.99
  C 198.64 139.14 202.40 132.65 199.30 127.95
  Q 190.02 113.85 181.05 99.31
  C 176.90 92.58 171.15 84.56 167.35 77.78
  C 164.32 72.37 160.72 72.30 154.79 72.30
  Q 104.02 72.27 95.26 72.52
  Q 91.79 72.62 90.69 74.44
  Z"
/>
<path fill="#ffffff" d="
  M 90.69 74.44
  Q 91.79 72.62 95.26 72.52
  Q 104.02 72.27 154.79 72.30
  C 160.72 72.30 164.32 72.37 167.35 77.78
  C 171.15 84.56 176.90 92.58 181.05 99.31
  Q 190.02 113.85 199.30 127.95
  C 202.40 132.65 198.64 139.14 195.73 142.99
  C 190.53 149.86 188.50 153.91 182.90 162.81
  C 177.92 170.73 172.38 178.35 167.74 186.75
  Q 164.59 192.44 158.26 192.48
  Q 121.89 192.68 99.29 192.50
  C 95.45 192.47 91.69 191.86 89.57 188.46
  Q 80.31 173.63 70.41 157.17
  C 66.67 150.95 61.66 143.68 57.66 136.57
  C 54.99 131.82 57.60 128.16 60.76 123.17
  Q 71.60 106.06 90.69 74.44
  Z
  M 114.86 88.60
  A 2.14 2.14 0.0 0 0 113.03 91.85
  L 131.98 123.18
  A 2.14 2.14 0.0 0 0 133.81 124.21
  L 173.87 124.21
  A 2.14 2.14 0.0 0 0 175.67 120.92
  L 155.78 89.59
  A 2.14 2.14 0.0 0 0 153.97 88.60
  L 114.86 88.60
  Z
  M 74.93 131.08
  A 2.96 2.96 0.0 0 0 74.93 134.14
  L 93.96 165.62
  A 2.96 2.96 0.0 0 0 99.02 165.63
  L 118.09 134.16
  A 2.96 2.96 0.0 0 0 118.09 131.10
  L 99.06 99.62
  A 2.96 2.96 0.0 0 0 94.00 99.61
  L 74.93 131.08
  Z
  M 112.00 173.90
  A 1.45 1.45 0.0 0 0 113.12 175.78
  Q 116.49 176.38 121.00 176.44
  Q 127.28 176.52 148.52 176.42
  C 150.58 176.41 152.87 176.43 154.80 175.61
  Q 156.07 175.06 158.30 171.61
  Q 169.40 154.36 172.56 149.09
  Q 175.47 144.23 176.20 142.59
  A 1.46 1.46 0.0 0 0 175.23 140.59
  Q 173.86 140.23 171.25 140.21
  Q 166.58 140.19 140.90 140.20
  C 134.61 140.21 132.45 141.01 129.43 145.95
  Q 122.90 156.65 119.49 162.49
  Q 116.31 167.96 112.57 172.81
  Q 112.21 173.29 112.00 173.90
  Z"
/>
<path fill="#334155" d="
  M 114.86 88.60
  L 153.97 88.60
  A 2.14 2.14 0.0 0 1 155.78 89.59
  L 175.67 120.92
  A 2.14 2.14 0.0 0 1 173.87 124.21
  L 133.81 124.21
  A 2.14 2.14 0.0 0 1 131.98 123.18
  L 113.03 91.85
  A 2.14 2.14 0.0 0 1 114.86 88.60
  Z"
/>
<path fill="#334155" d="
  M 74.93 131.08
  L 94.00 99.61
  A 2.96 2.96 0.0 0 1 99.06 99.62
  L 118.09 131.10
  A 2.96 2.96 0.0 0 1 118.09 134.16
  L 99.02 165.63
  A 2.96 2.96 0.0 0 1 93.96 165.62
  L 74.93 134.14
  A 2.96 2.96 0.0 0 1 74.93 131.08
  Z"
/>
<path fill="#334155" d="
  M 112.00 173.90
  Q 112.21 173.29 112.57 172.81
  Q 116.31 167.96 119.49 162.49
  Q 122.90 156.65 129.43 145.95
  C 132.45 141.01 134.61 140.21 140.90 140.20
  Q 166.58 140.19 171.25 140.21
  Q 173.86 140.23 175.23 140.59
  A 1.46 1.46 0.0 0 1 176.20 142.59
  Q 175.47 144.23 172.56 149.09
  Q 169.40 154.36 158.30 171.61
  Q 156.07 175.06 154.80 175.61
  C 152.87 176.43 150.58 176.41 148.52 176.42
  Q 127.28 176.52 121.00 176.44
  Q 116.49 176.38 113.12 175.78
  A 1.45 1.45 0.0 0 1 112.00 173.90
  Z"
/>
</svg>