<?xml version="1.0" encoding="UTF-8" standalone="no"?>
<!DOCTYPE svg PUBLIC "-//W3C//DTD SVG 1.1//EN" "http://www.w3.org/Graphics/SVG/1.1/DTD/svg11.dtd">
<svg xmlns="http://www.w3.org/2000/svg" version="1.1" viewBox="0.00 0.00 192.00 192.00" width="128" height="128">
<path stroke="#808080" stroke-width="2.00" fill="none" stroke-linecap="butt" vector-effect="non-scaling-stroke" d="
  M 125.89 79.75
  L 152.95 68.78
  A 0.41 0.40 69.7 0 0 153.18 68.27
  C 146.13 49.04 130.58 36.40 110.54 32.48
  C 74.91 25.50 42.71 45.67 36.73 82.00
  C 31.22 115.49 46.41 147.07 80.29 156.13
  C 111.14 164.38 144.76 151.19 156.15 119.83
  A 0.48 0.48 0.0 0 0 155.88 119.22
  L 128.68 108.22
  A 0.72 0.72 0.0 0 0 127.74 108.62
  C 122.55 121.71 110.96 130.20 96.63 129.45
  Q 88.03 128.99 81.17 124.30
  C 57.52 108.14 64.05 60.92 95.89 60.13
  C 107.87 59.83 117.54 64.65 123.18 75.56
  Q 123.69 76.55 124.95 79.37
  A 0.74 0.73 -22.5 0 0 125.89 79.75"
/>
<path fill="#000000" d="
  M 192.00 41.27
  L 192.00 150.94
  Q 189.11 173.54 170.59 185.31
  Q 163.09 190.08 152.93 192.00
  L 39.22 192.00
  Q 17.87 188.18 6.80 170.72
  Q 1.40 162.21 0.00 151.07
  L 0.00 41.36
  C 2.29 22.00 15.28 6.71 34.01 1.55
  Q 39.63 0.01 49.10 0.13
  Q 55.74 0.22 148.99 0.18
  Q 158.05 0.17 167.91 5.67
  Q 188.75 17.30 192.00 41.27
  Z
  M 125.89 79.75
  L 152.95 68.78
  A 0.41 0.40 69.7 0 0 153.18 68.27
  C 146.13 49.04 130.58 36.40 110.54 32.48
  C 74.91 25.50 42.71 45.67 36.73 82.00
  C 31.22 115.49 46.41 147.07 80.29 156.13
  C 111.14 164.38 144.76 151.19 156.15 119.83
  A 0.48 0.48 0.0 0 0 155.88 119.22
  L 128.68 108.22
  A 0.72 0.72 0.0 0 0 127.74 108.62
  C 122.55 121.71 110.96 130.20 96.63 129.45
  Q 88.03 128.99 81.17 124.30
  C 57.52 108.14 64.05 60.92 95.89 60.13
  C 107.87 59.83 117.54 64.65 123.18 75.56
  Q 123.69 76.55 124.95 79.37
  A 0.74 0.73 -22.5 0 0 125.89 79.75
  Z"
/>
<path fill="#ffffff" d="
  M 124.95 79.37
  Q 123.69 76.55 123.18 75.56
  C 117.54 64.65 107.87 59.83 95.89 60.13
  C 64.05 60.92 57.52 108.14 81.17 124.30
  Q 88.03 128.99 96.63 129.45
  C 110.96 130.20 122.55 121.71 127.74 108.62
  A 0.72 0.72 0.0 0 1 128.68 108.22
  L 155.88 119.22
  A 0.48 0.48 0.0 0 1 156.15 119.83
  C 144.76 151.19 111.14 164.38 80.29 156.13
  C 46.41 147.07 31.22 115.49 36.73 82.00
  C 42.71 45.67 74.91 25.50 110.54 32.48
  C 130.58 36.40 146.13 49.04 153.18 68.27
  A 0.41 0.40 69.7 0 1 152.95 68.78
  L 125.89 79.75
  A 0.74 0.73 -22.5 0 1 124.95 79.37
  Z"
/>
</svg>