<?xml version="1.0" encoding="UTF-8" standalone="no"?>
<!DOCTYPE svg PUBLIC "-//W3C//DTD SVG 1.1//EN" "http://www.w3.org/Graphics/SVG/1.1/DTD/svg11.dtd">
<svg xmlns="http://www.w3.org/2000/svg" version="1.1" viewBox="0.00 0.00 256.00 256.00" width="128" height="128">
<g stroke-width="2.00" fill="none" stroke-linecap="butt">
<path stroke="#8897a9" vector-effect="non-scaling-stroke" d="
  M 110.31 167.44
  Q 101.15 173.97 91.76 175.15
  C 74.33 177.33 59.51 169.08 55.27 151.50
  C 52.97 141.95 52.93 131.79 53.19 121.51
  C 53.43 111.91 55.41 100.12 60.88 92.61
  C 71.72 77.74 93.01 78.10 107.59 87.71
  A 0.79 0.78 -58.0 0 0 108.70 87.45
  L 119.04 69.54
  A 0.73 0.72 -60.0 0 0 118.78 68.56
  C 101.67 58.40 77.70 57.35 59.44 65.06
  C 29.85 77.57 19.04 105.74 20.85 136.48
  C 22.60 166.22 40.68 190.97 71.40 195.08
  C 89.21 197.47 106.89 195.46 121.73 185.29
  A 0.52 0.52 0.0 0 0 121.87 184.58
  L 110.75 167.52
  A 0.31 0.31 0.0 0 0 110.31 167.44"
/>
<path stroke="#8897a9" vector-effect="non-scaling-stroke" d="
  M 213.69 124.51
  C 219.28 123.45 223.10 120.06 227.28 115.78
  C 233.65 109.27 234.86 98.10 233.30 88.90
  C 230.83 74.44 217.26 65.73 203.59 63.87
  Q 197.37 63.03 189.75 63.03
  Q 154.29 63.04 138.26 63.03
  A 0.41 0.41 0.0 0 0 137.85 63.44
  L 137.85 195.64
  A 0.29 0.28 -90.0 0 0 138.13 195.93
  Q 201.65 195.92 202.25 195.91
  C 228.87 195.41 244.14 173.18 238.00 147.82
  C 234.94 135.17 225.78 129.01 213.66 125.14
  A 0.33 0.32 48.1 0 1 213.69 124.51"
/>
<path stroke="#8897a9" vector-effect="non-scaling-stroke" d="
  M 165.91 87.14
  L 165.91 114.85
  A 0.71 0.70 -89.6 0 0 166.60 115.56
  Q 181.07 115.76 193.49 115.52
  Q 200.20 115.38 203.08 110.91
  C 208.03 103.20 206.39 91.25 196.96 87.67
  Q 194.41 86.70 188.43 86.69
  Q 177.13 86.66 166.34 86.70
  A 0.44 0.43 -90.0 0 0 165.91 87.14"
/>
<path stroke="#8897a9" vector-effect="non-scaling-stroke" d="
  M 165.88 138.73
  L 165.94 172.81
  A 0.69 0.69 0.0 0 0 166.63 173.49
  L 191.44 173.45
  A 15.99 15.76 89.9 0 0 207.17 157.43
  L 207.17 153.95
  A 15.99 15.76 89.9 0 0 191.38 137.99
  L 166.57 138.03
  A 0.69 0.69 0.0 0 0 165.88 138.73"
/>
</g>
<path fill="#112e52" d="
  M 256.00 0.00
  L 256.00 256.00
  L 0.00 256.00
  L 0.00 0.00
  L 256.00 0.00
  Z
  M 110.31 167.44
  Q 101.15 173.97 91.76 175.15
  C 74.33 177.33 59.51 169.08 55.27 151.50
  C 52.97 141.95 52.93 131.79 53.19 121.51
  C 53.43 111.91 55.41 100.12 60.88 92.61
  C 71.72 77.74 93.01 78.10 107.59 87.71
  A 0.79 0.78 -58.0 0 0 108.70 87.45
  L 119.04 69.54
  A 0.73 0.72 -60.0 0 0 118.78 68.56
  C 101.67 58.40 77.70 57.35 59.44 65.06
  C 29.85 77.57 19.04 105.74 20.85 136.48
  C 22.60 166.22 40.68 190.97 71.40 195.08
  C 89.21 197.47 106.89 195.46 121.73 185.29
  A 0.52 0.52 0.0 0 0 121.87 184.58
  L 110.75 167.52
  A 0.31 0.31 0.0 0 0 110.31 167.44
  Z
  M 213.69 124.51
  C 219.28 123.45 223.10 120.06 227.28 115.78
  C 233.65 109.27 234.86 98.10 233.30 88.90
  C 230.83 74.44 217.26 65.73 203.59 63.87
  Q 197.37 63.03 189.75 63.03
  Q 154.29 63.04 138.26 63.03
  A 0.41 0.41 0.0 0 0 137.85 63.44
  L 137.85 195.64
  A 0.29 0.28 -90.0 0 0 138.13 195.93
  Q 201.65 195.92 202.25 195.91
  C 228.87 195.41 244.14 173.18 238.00 147.82
  C 234.94 135.17 225.78 129.01 213.66 125.14
  A 0.33 0.32 48.1 0 1 213.69 124.51
  Z"
/>
<path fill="#ffffff" d="
  M 110.31 167.44
  A 0.31 0.31 0.0 0 1 110.75 167.52
  L 121.87 184.58
  A 0.52 0.52 0.0 0 1 121.73 185.29
  C 106.89 195.46 89.21 197.47 71.40 195.08
  C 40.68 190.97 22.60 166.22 20.85 136.48
  C 19.04 105.74 29.85 77.57 59.44 65.06
  C 77.70 57.35 101.67 58.40 118.78 68.56
  A 0.73 0.72 -60.0 0 1 119.04 69.54
  L 108.70 87.45
  A 0.79 0.78 -58.0 0 1 107.59 87.71
  C 93.01 78.10 71.72 77.74 60.88 92.61
  C 55.41 100.12 53.43 111.91 53.19 121.51
  C 52.93 131.79 52.97 141.95 55.27 151.50
  C 59.51 169.08 74.33 177.33 91.76 175.15
  Q 101.15 173.97 110.31 167.44
  Z"
/>
<path fill="#ffffff" d="
  M 213.69 124.51
  A 0.33 0.32 48.1 0 0 213.66 125.14
  C 225.78 129.01 234.94 135.17 238.00 147.82
  C 244.14 173.18 228.87 195.41 202.25 195.91
  Q 201.65 195.92 138.13 195.93
  A 0.29 0.28 90.0 0 1 137.85 195.64
  L 137.85 63.44
  A 0.41 0.41 0.0 0 1 138.26 63.03
  Q 154.29 63.04 189.75 63.03
  Q 197.37 63.03 203.59 63.87
  C 217.26 65.73 230.83 74.44 233.30 88.90
  C 234.86 98.10 233.65 109.27 227.28 115.78
  C 223.10 120.06 219.28 123.45 213.69 124.51
  Z
  M 165.91 87.14
  L 165.91 114.85
  A 0.71 0.70 -89.6 0 0 166.60 115.56
  Q 181.07 115.76 193.49 115.52
  Q 200.20 115.38 203.08 110.91
  C 208.03 103.20 206.39 91.25 196.96 87.67
  Q 194.41 86.70 188.43 86.69
  Q 177.13 86.66 166.34 86.70
  A 0.44 0.43 -90.0 0 0 165.91 87.14
  Z
  M 165.88 138.73
  L 165.94 172.81
  A 0.69 0.69 0.0 0 0 166.63 173.49
  L 191.44 173.45
  A 15.99 15.76 89.9 0 0 207.17 157.43
  L 207.17 153.95
  A 15.99 15.76 89.9 0 0 191.38 137.99
  L 166.57 138.03
  A 0.69 0.69 0.0 0 0 165.88 138.73
  Z"
/>
<path fill="#112e52" d="
  M 165.91 87.14
  A 0.44 0.43 -90.0 0 1 166.34 86.70
  Q 177.13 86.66 188.43 86.69
  Q 194.41 86.70 196.96 87.67
  C 206.39 91.25 208.03 103.20 203.08 110.91
  Q 200.20 115.38 193.49 115.52
  Q 181.07 115.76 166.60 115.56
  A 0.71 0.70 -89.6 0 1 165.91 114.85
  L 165.91 87.14
  Z"
/>
<path fill="#112e52" d="
  M 165.88 138.73
  A 0.69 0.69 0.0 0 1 166.57 138.03
  L 191.38 137.99
  A 15.99 15.76 89.9 0 1 207.17 153.95
  L 207.17 157.43
  A 15.99 15.76 89.9 0 1 191.44 173.45
  L 166.63 173.49
  A 0.69 0.69 0.0 0 1 165.94 172.81
  L 165.88 138.73
  Z"
/>
</svg>