<?xml version="1.0" encoding="UTF-8" standalone="no"?>
<!DOCTYPE svg PUBLIC "-//W3C//DTD SVG 1.1//EN" "http://www.w3.org/Graphics/SVG/1.1/DTD/svg11.dtd">
<svg xmlns="http://www.w3.org/2000/svg" version="1.1" viewBox="0.00 0.00 256.00 256.00" width="128" height="128">
<path fill="#292a4d" d="
  M 0.00 120.73
  L 0.00 109.26
  Q 0.40 104.78 3.74 100.49
  Q 8.88 93.88 10.71 92.43
  C 20.90 84.32 33.43 83.40 44.82 89.66
  C 48.91 91.92 52.05 95.76 55.20 99.67
  A 1.38 1.38 0.0 0 0 56.75 100.10
  L 195.44 49.09
  A 0.11 0.09 -77.6 0 0 195.49 49.05
  Q 197.05 47.12 196.86 45.51
  C 195.78 36.35 199.64 26.81 206.76 20.89
  Q 217.70 11.79 232.40 14.53
  C 240.29 16.00 247.21 21.86 251.59 28.45
  Q 256.16 35.30 255.71 44.47
  Q 255.48 49.25 254.08 52.31
  C 247.67 66.37 232.58 75.53 217.39 70.19
  A 2.93 2.93 0.0 0 0 213.95 71.38
  L 137.67 190.60
  A 2.81 2.81 0.0 0 0 137.68 193.65
  C 139.08 195.79 141.33 197.97 142.74 200.51
  Q 150.41 214.36 142.52 228.52
  C 138.81 235.17 131.67 240.66 124.10 242.35
  Q 109.52 245.60 98.50 236.47
  Q 85.23 225.50 88.53 207.30
  Q 88.73 206.23 91.69 200.69
  Q 92.16 199.83 92.05 196.90
  C 91.96 194.63 88.56 192.48 87.24 190.96
  Q 81.91 184.87 45.93 144.08
  C 43.86 141.74 41.39 140.41 38.03 141.81
  Q 33.00 143.92 24.82 142.67
  Q 16.05 141.34 9.08 134.67
  Q 2.34 128.21 0.00 120.73
  Z
  M 99.62 190.71
  Q 100.32 190.61 100.82 190.29
  Q 109.55 184.82 118.63 185.63
  C 122.10 185.94 125.71 188.23 128.78 186.56
  Q 129.73 186.05 131.33 183.54
  Q 145.70 160.99 199.04 77.56
  Q 201.97 72.98 205.25 68.44
  A 3.36 3.33 -37.6 0 0 205.67 65.31
  C 204.56 62.39 203.33 59.56 200.49 57.87
  A 1.67 1.61 -31.1 0 0 199.53 57.65
  Q 197.22 57.83 195.28 58.54
  Q 98.86 94.18 68.61 105.28
  Q 64.24 106.89 60.58 108.07
  A 2.62 2.61 -11.0 0 0 58.77 110.75
  Q 59.42 120.03 55.76 127.40
  C 54.59 129.76 52.19 132.52 50.72 134.79
  A 1.55 1.55 0.0 0 0 50.86 136.67
  L 98.03 190.12
  A 1.81 1.80 65.2 0 0 99.62 190.71
  Z"
/>
</svg>