<?xml version="1.0" encoding="UTF-8" standalone="no"?>
<!DOCTYPE svg PUBLIC "-//W3C//DTD SVG 1.1//EN" "http://www.w3.org/Graphics/SVG/1.1/DTD/svg11.dtd">
<svg xmlns="http://www.w3.org/2000/svg" version="1.1" viewBox="0.00 0.00 180.00 180.00" width="128" height="128">
<g stroke-width="2.00" fill="none" stroke-linecap="butt">
<path stroke="#808080" vector-effect="non-scaling-stroke" d="
  M 89.92 131.65
  Q 90.21 131.65 90.30 131.60
  Q 125.84 110.56 139.22 102.60
  A 0.96 0.94 -17.5 0 0 139.69 101.72
  Q 139.62 100.62 139.72 81.29
  Q 139.81 64.31 139.22 60.25
  Q 136.28 40.20 120.64 27.73
  C 111.72 20.62 101.23 17.16 89.93 17.16
  C 78.62 17.16 68.13 20.61 59.21 27.72
  Q 43.57 40.20 40.63 60.25
  Q 40.04 64.31 40.13 81.29
  Q 40.22 100.62 40.15 101.72
  A 0.96 0.94 17.5 0 0 40.62 102.60
  Q 54.00 110.56 89.54 131.60
  Q 89.63 131.65 89.92 131.65"
/>
<path stroke="#808080" vector-effect="non-scaling-stroke" d="
  M 89.90 162.68
  Q 90.39 162.68 90.52 162.61
  Q 119.09 145.68 139.36 133.68
  A 0.65 0.65 0.0 0 0 139.68 133.12
  L 139.68 114.99
  A 0.39 0.39 0.0 0 0 139.09 114.66
  Q 115.12 128.90 90.35 143.54
  C 90.24 143.60 90.02 143.61 89.91 143.61
  C 89.80 143.61 89.57 143.60 89.47 143.54
  Q 64.70 128.89 40.74 114.63
  A 0.39 0.39 0.0 0 0 40.15 114.96
  L 40.14 133.09
  A 0.65 0.65 0.0 0 0 40.46 133.65
  Q 60.73 145.66 89.29 162.61
  Q 89.42 162.68 89.90 162.68"
/>
<path stroke="#808080" vector-effect="non-scaling-stroke" d="
  M 89.91 112.55
  Q 90.13 112.55 90.26 112.48
  Q 104.37 104.07 122.80 93.21
  A 0.94 0.93 -16.1 0 0 123.26 92.39
  Q 123.20 85.25 123.35 74.26
  Q 123.51 62.12 121.57 56.43
  C 116.92 42.79 104.41 33.57 89.94 33.57
  C 75.46 33.56 62.95 42.78 58.29 56.41
  Q 56.35 62.10 56.50 74.24
  Q 56.64 85.23 56.58 92.37
  A 0.94 0.93 16.2 0 0 57.04 93.19
  Q 75.46 104.06 89.57 112.48
  Q 89.70 112.55 89.91 112.55"
/>
</g>
<path fill="#ffffff" d="
  M 156.95 0.00
  Q 162.44 0.78 165.00 2.02
  Q 178.83 8.68 180.00 24.16
  L 180.00 155.65
  Q 178.95 171.27 165.00 177.97
  Q 162.61 179.12 157.04 180.00
  L 22.91 180.00
  Q 8.59 178.22 2.26 165.47
  Q 1.26 163.45 0.87 161.24
  Q 0.56 159.46 0.00 157.78
  L 0.00 22.38
  C 0.61 19.76 1.05 17.12 2.16 14.77
  Q 8.13 2.03 22.75 0.00
  L 156.95 0.00
  Z
  M 89.92 131.65
  Q 90.21 131.65 90.30 131.60
  Q 125.84 110.56 139.22 102.60
  A 0.96 0.94 -17.5 0 0 139.69 101.72
  Q 139.62 100.62 139.72 81.29
  Q 139.81 64.31 139.22 60.25
  Q 136.28 40.20 120.64 27.73
  C 111.72 20.62 101.23 17.16 89.93 17.16
  C 78.62 17.16 68.13 20.61 59.21 27.72
  Q 43.57 40.20 40.63 60.25
  Q 40.04 64.31 40.13 81.29
  Q 40.22 100.62 40.15 101.72
  A 0.96 0.94 17.5 0 0 40.62 102.60
  Q 54.00 110.56 89.54 131.60
  Q 89.63 131.65 89.92 131.65
  Z
  M 89.90 162.68
  Q 90.39 162.68 90.52 162.61
  Q 119.09 145.68 139.36 133.68
  A 0.65 0.65 0.0 0 0 139.68 133.12
  L 139.68 114.99
  A 0.39 0.39 0.0 0 0 139.09 114.66
  Q 115.12 128.90 90.35 143.54
  C 90.24 143.60 90.02 143.61 89.91 143.61
  C 89.80 143.61 89.57 143.60 89.47 143.54
  Q 64.70 128.89 40.74 114.63
  A 0.39 0.39 0.0 0 0 40.15 114.96
  L 40.14 133.09
  A 0.65 0.65 0.0 0 0 40.46 133.65
  Q 60.73 145.66 89.29 162.61
  Q 89.42 162.68 89.90 162.68
  Z"
/>
<path fill="#000000" d="
  M 89.93 17.16
  C 101.23 17.16 111.72 20.62 120.64 27.73
  Q 136.28 40.20 139.22 60.25
  Q 139.81 64.31 139.72 81.29
  Q 139.62 100.62 139.69 101.72
  A 0.96 0.94 -17.5 0 1 139.22 102.60
  Q 125.84 110.56 90.30 131.60
  Q 90.21 131.65 89.92 131.65
  Q 89.63 131.65 89.54 131.60
  Q 54.00 110.56 40.62 102.60
  A 0.96 0.94 17.5 0 1 40.15 101.72
  Q 40.22 100.62 40.13 81.29
  Q 40.04 64.31 40.63 60.25
  Q 43.57 40.20 59.21 27.72
  C 68.13 20.61 78.62 17.16 89.93 17.16
  Z
  M 89.91 112.55
  Q 90.13 112.55 90.26 112.48
  Q 104.37 104.07 122.80 93.21
  A 0.94 0.93 -16.1 0 0 123.26 92.39
  Q 123.20 85.25 123.35 74.26
  Q 123.51 62.12 121.57 56.43
  C 116.92 42.79 104.41 33.57 89.94 33.57
  C 75.46 33.56 62.95 42.78 58.29 56.41
  Q 56.35 62.10 56.50 74.24
  Q 56.64 85.23 56.58 92.37
  A 0.94 0.93 16.2 0 0 57.04 93.19
  Q 75.46 104.06 89.57 112.48
  Q 89.70 112.55 89.91 112.55
  Z"
/>
<path fill="#ffffff" d="
  M 89.94 33.57
  C 104.41 33.57 116.92 42.79 121.57 56.43
  Q 123.51 62.12 123.35 74.26
  Q 123.20 85.25 123.26 92.39
  A 0.94 0.93 -16.1 0 1 122.80 93.21
  Q 104.37 104.07 90.26 112.48
  Q 90.13 112.55 89.91 112.55
  Q 89.70 112.55 89.57 112.48
  Q 75.46 104.06 57.04 93.19
  A 0.94 0.93 16.2 0 1 56.58 92.37
  Q 56.64 85.23 56.50 74.24
  Q 56.35 62.10 58.29 56.41
  C 62.95 42.78 75.46 33.56 89.94 33.57
  Z"
/>
<path fill="#000000" d="
  M 89.91 143.61
  C 90.02 143.61 90.24 143.60 90.35 143.54
  Q 115.12 128.90 139.09 114.66
  A 0.39 0.39 0.0 0 1 139.68 114.99
  L 139.68 133.12
  A 0.65 0.65 0.0 0 1 139.36 133.68
  Q 119.09 145.68 90.52 162.61
  Q 90.39 162.68 89.90 162.68
  Q 89.42 162.68 89.29 162.61
  Q 60.73 145.66 40.46 133.65
  A 0.65 0.65 0.0 0 1 40.14 133.09
  L 40.15 114.96
  A 0.39 0.39 0.0 0 1 40.74 114.63
  Q 64.70 128.89 89.47 143.54
  C 89.57 143.60 89.80 143.61 89.91 143.61
  Z"
/>
</svg>