<?xml version="1.0" encoding="UTF-8" standalone="no"?>
<!DOCTYPE svg PUBLIC "-//W3C//DTD SVG 1.1//EN" "http://www.w3.org/Graphics/SVG/1.1/DTD/svg11.dtd">
<svg xmlns="http://www.w3.org/2000/svg" version="1.1" viewBox="0.00 0.00 600.00 600.00" width="128" height="128">
<g stroke-width="2.00" fill="none" stroke-linecap="butt">
<path stroke="#f8b49f" vector-effect="non-scaling-stroke" d="
  M 112.76 316.29
  Q 112.00 316.08 110.99 316.06
  Q 107.49 315.99 96.02 316.04
  C 92.96 316.06 92.41 316.72 92.29 319.51
  Q 92.25 320.50 92.28 335.50
  C 92.29 344.12 86.49 347.67 78.46 346.56
  Q 69.27 345.30 69.26 335.71
  Q 69.21 270.40 69.26 264.75
  Q 69.29 261.11 70.70 258.30
  C 73.15 253.41 79.97 252.47 84.74 253.76
  Q 91.77 255.66 92.12 262.91
  Q 92.22 265.15 92.43 276.47
  A 2.48 2.47 -84.0 0 0 94.33 278.83
  Q 96.20 279.27 99.75 279.27
  Q 103.38 279.26 111.62 279.14
  Q 114.63 279.09 114.68 275.74
  Q 114.83 265.31 114.61 262.38
  C 112.99 240.61 95.67 234.11 76.34 235.13
  C 61.87 235.90 49.54 242.63 46.50 257.51
  Q 45.61 261.87 45.75 268.99
  Q 45.93 278.58 45.72 328.01
  Q 45.66 340.84 47.12 345.35
  C 51.99 360.39 65.24 364.77 79.74 365.03
  C 94.99 365.30 109.69 359.71 113.60 343.37
  C 115.37 335.97 114.78 329.33 114.63 318.73
  A 2.56 2.56 0.0 0 0 112.76 316.29"
/>
<path stroke="#f8b49f" vector-effect="non-scaling-stroke" d="
  M 382.48 270.82
  Q 382.94 269.88 383.00 267.77
  C 383.59 248.64 373.28 236.82 354.20 235.30
  C 329.16 233.30 311.27 244.60 314.26 271.62
  C 315.72 284.76 325.51 295.08 335.54 302.66
  C 343.83 308.93 358.37 318.82 359.56 329.72
  C 360.10 334.65 359.07 340.58 354.28 342.99
  C 347.74 346.28 336.88 344.51 335.99 335.48
  Q 335.74 332.95 335.56 328.44
  Q 335.47 326.18 332.96 326.11
  Q 323.99 325.87 315.53 326.12
  A 2.16 2.15 -88.8 0 0 313.45 328.12
  C 312.10 347.38 319.70 362.52 340.52 364.46
  C 359.09 366.19 378.75 361.74 382.64 340.64
  Q 386.63 319.03 371.23 303.46
  C 362.67 294.81 350.64 287.95 341.98 277.80
  Q 336.51 271.38 337.92 264.04
  Q 339.08 257.97 344.44 256.21
  C 348.26 254.95 354.93 255.39 357.93 258.78
  C 360.47 261.66 360.67 265.24 360.90 269.38
  Q 361.05 271.97 363.74 272.08
  Q 371.94 272.44 380.61 272.04
  A 2.20 2.18 11.7 0 0 382.48 270.82"
/>
<path stroke="#f8b49f" vector-effect="non-scaling-stroke" d="
  M 169.50 306.49
  Q 180.28 306.49 181.53 306.48
  A 0.45 0.45 0.0 0 1 181.99 306.93
  L 181.99 361.08
  A 2.08 2.08 0.0 0 0 184.05 363.16
  Q 193.09 363.28 201.00 363.21
  C 203.18 363.19 205.47 362.92 205.47 360.49
  Q 205.49 284.73 205.53 240.51
  Q 205.54 237.14 202.50 237.06
  Q 197.74 236.93 185.02 237.03
  Q 182.00 237.05 182.01 240.03
  Q 182.02 255.92 181.97 287.56
  A 0.63 0.63 0.0 0 1 181.36 288.19
  Q 179.10 288.28 169.50 288.28
  Q 159.91 288.28 157.64 288.19
  A 0.63 0.63 0.0 0 1 157.04 287.56
  Q 156.99 255.92 157.00 240.03
  Q 157.01 237.05 153.99 237.03
  Q 141.27 236.93 136.51 237.06
  Q 133.47 237.14 133.48 240.51
  Q 133.52 284.73 133.53 360.49
  C 133.53 362.92 135.82 363.19 138.00 363.21
  Q 145.91 363.28 154.95 363.16
  A 2.08 2.08 0.0 0 0 157.01 361.08
  L 157.01 306.93
  A 0.45 0.45 0.0 0 1 157.47 306.48
  Q 158.72 306.49 169.50 306.49"
/>
<path stroke="#f8b49f" vector-effect="non-scaling-stroke" d="
  M 248.25 338.51
  L 273.66 338.51
  A 0.52 0.51 86.2 0 1 274.17 338.96
  Q 275.37 346.83 277.39 358.45
  C 277.85 361.09 277.92 363.12 280.76 363.18
  Q 289.83 363.37 297.65 363.14
  C 301.10 363.05 301.45 360.66 300.92 357.92
  Q 291.46 308.90 278.59 241.44
  Q 278.11 238.91 277.58 238.05
  A 2.25 2.25 0.0 0 0 275.67 236.99
  L 247.90 237.02
  A 2.60 2.60 0.0 0 0 245.36 239.13
  Q 237.07 282.41 223.23 353.98
  Q 222.54 357.55 222.33 360.24
  C 222.15 362.73 224.17 363.02 226.25 363.01
  Q 241.16 362.97 241.22 362.97
  A 2.86 2.86 0.0 0 0 243.89 360.60
  L 247.65 339.02
  A 0.62 0.61 -84.9 0 1 248.25 338.51"
/>
<path stroke="#f8b49f" vector-effect="non-scaling-stroke" d="
  M 425.27 254.98
  L 462.93 254.98
  A 2.34 2.34 0.0 0 0 465.27 252.78
  Q 465.66 246.35 465.45 240.64
  C 465.37 238.41 464.61 236.96 462.30 236.97
  Q 449.61 237.04 406.50 236.99
  Q 403.77 236.99 402.82 237.34
  A 2.11 2.11 0.0 0 0 401.44 239.32
  L 401.60 361.30
  A 1.88 1.87 -89.7 0 0 403.45 363.18
  Q 412.41 363.27 460.41 363.20
  C 463.00 363.20 465.05 363.61 465.28 360.74
  Q 465.64 356.23 465.44 349.35
  C 465.35 346.56 464.73 345.06 461.78 345.04
  Q 448.17 344.95 425.33 345.02
  A 0.32 0.32 0.0 0 1 425.01 344.70
  L 425.01 306.85
  A 0.30 0.29 -90.0 0 1 425.30 306.55
  L 454.62 306.42
  A 2.35 2.33 7.0 0 0 456.88 304.67
  Q 457.16 303.68 457.24 300.75
  Q 457.31 298.17 457.11 291.42
  Q 457.02 288.31 453.78 288.30
  Q 439.17 288.23 425.68 288.23
  A 0.67 0.67 0.0 0 1 425.01 287.56
  L 425.01 255.25
  A 0.27 0.26 -90.0 0 1 425.27 254.98"
/>
<path stroke="#f8b49f" vector-effect="non-scaling-stroke" d="
  M 538.67 298.51
  C 549.00 294.49 552.56 286.30 553.20 275.29
  C 554.20 257.77 551.98 242.61 532.32 238.23
  Q 527.03 237.05 522.75 237.05
  Q 492.79 236.99 488.75 236.97
  Q 486.03 236.96 484.78 237.40
  A 1.54 1.53 80.4 0 0 483.76 238.85
  L 483.76 360.73
  A 2.35 2.35 0.0 0 0 486.03 363.08
  Q 496.04 363.46 504.19 363.11
  Q 507.02 362.98 507.15 360.12
  Q 507.27 357.60 507.21 310.00
  A 0.70 0.70 0.0 0 1 507.89 309.30
  C 513.39 309.14 518.37 308.69 523.06 310.44
  C 529.57 312.86 529.83 320.13 529.81 326.25
  Q 529.73 347.00 529.87 352.24
  Q 529.99 357.11 530.91 360.58
  Q 531.61 363.19 534.48 363.22
  Q 544.93 363.33 551.16 363.13
  Q 554.42 363.02 554.15 360.24
  Q 553.23 350.81 553.24 347.75
  Q 553.31 326.00 553.20 321.76
  C 552.94 311.81 549.47 301.82 538.71 299.12
  A 0.32 0.32 0.0 0 1 538.67 298.51"
/>
<path stroke="#f8b49f" vector-effect="non-scaling-stroke" d="
  M 260.86 321.28
  Q 266.21 321.27 270.69 321.14
  A 0.45 0.44 -7.5 0 0 271.11 320.60
  Q 265.30 293.81 261.00 273.47
  Q 260.91 273.05 260.73 273.05
  Q 260.55 273.05 260.46 273.47
  Q 256.27 293.83 250.61 320.66
  A 0.45 0.44 7.2 0 0 251.03 321.19
  Q 255.51 321.30 260.86 321.28"
/>
<path stroke="#f8b49f" vector-effect="non-scaling-stroke" d="
  M 507.28 255.75
  L 507.16 290.21
  A 0.63 0.63 0.0 0 0 507.79 290.84
  L 518.15 290.88
  A 11.29 10.74 0.2 0 0 529.48 280.18
  L 529.52 265.94
  A 11.29 10.74 0.2 0 0 518.27 255.16
  L 507.91 255.12
  A 0.63 0.63 0.0 0 0 507.28 255.75"
/>
</g>
<path fill="#ffffff" d="
  M 600.00 0.00
  L 600.00 600.00
  L 0.00 600.00
  L 0.00 0.00
  L 600.00 0.00
  Z
  M 112.76 316.29
  Q 112.00 316.08 110.99 316.06
  Q 107.49 315.99 96.02 316.04
  C 92.96 316.06 92.41 316.72 92.29 319.51
  Q 92.25 320.50 92.28 335.50
  C 92.29 344.12 86.49 347.67 78.46 346.56
  Q 69.27 345.30 69.26 335.71
  Q 69.21 270.40 69.26 264.75
  Q 69.29 261.11 70.70 258.30
  C 73.15 253.41 79.97 252.47 84.74 253.76
  Q 91.77 255.66 92.12 262.91
  Q 92.22 265.15 92.43 276.47
  A 2.48 2.47 -84.0 0 0 94.33 278.83
  Q 96.20 279.27 99.75 279.27
  Q 103.38 279.26 111.62 279.14
  Q 114.63 279.09 114.68 275.74
  Q 114.83 265.31 114.61 262.38
  C 112.99 240.61 95.67 234.11 76.34 235.13
  C 61.87 235.90 49.54 242.63 46.50 257.51
  Q 45.61 261.87 45.75 268.99
  Q 45.93 278.58 45.72 328.01
  Q 45.66 340.84 47.12 345.35
  C 51.99 360.39 65.24 364.77 79.74 365.03
  C 94.99 365.30 109.69 359.71 113.60 343.37
  C 115.37 335.97 114.78 329.33 114.63 318.73
  A 2.56 2.56 0.0 0 0 112.76 316.29
  Z
  M 382.48 270.82
  Q 382.94 269.88 383.00 267.77
  C 383.59 248.64 373.28 236.82 354.20 235.30
  C 329.16 233.30 311.27 244.60 314.26 271.62
  C 315.72 284.76 325.51 295.08 335.54 302.66
  C 343.83 308.93 358.37 318.82 359.56 329.72
  C 360.10 334.65 359.07 340.58 354.28 342.99
  C 347.74 346.28 336.88 344.51 335.99 335.48
  Q 335.74 332.95 335.56 328.44
  Q 335.47 326.18 332.96 326.11
  Q 323.99 325.87 315.53 326.12
  A 2.16 2.15 -88.8 0 0 313.45 328.12
  C 312.10 347.38 319.70 362.52 340.52 364.46
  C 359.09 366.19 378.75 361.74 382.64 340.64
  Q 386.63 319.03 371.23 303.46
  C 362.67 294.81 350.64 287.95 341.98 277.80
  Q 336.51 271.38 337.92 264.04
  Q 339.08 257.97 344.44 256.21
  C 348.26 254.95 354.93 255.39 357.93 258.78
  C 360.47 261.66 360.67 265.24 360.90 269.38
  Q 361.05 271.97 363.74 272.08
  Q 371.94 272.44 380.61 272.04
  A 2.20 2.18 11.7 0 0 382.48 270.82
  Z
  M 169.50 306.49
  Q 180.28 306.49 181.53 306.48
  A 0.45 0.45 0.0 0 1 181.99 306.93
  L 181.99 361.08
  A 2.08 2.08 0.0 0 0 184.05 363.16
  Q 193.09 363.28 201.00 363.21
  C 203.18 363.19 205.47 362.92 205.47 360.49
  Q 205.49 284.73 205.53 240.51
  Q 205.54 237.14 202.50 237.06
  Q 197.74 236.93 185.02 237.03
  Q 182.00 237.05 182.01 240.03
  Q 182.02 255.92 181.97 287.56
  A 0.63 0.63 0.0 0 1 181.36 288.19
  Q 179.10 288.28 169.50 288.28
  Q 159.91 288.28 157.64 288.19
  A 0.63 0.63 0.0 0 1 157.04 287.56
  Q 156.99 255.92 157.00 240.03
  Q 157.01 237.05 153.99 237.03
  Q 141.27 236.93 136.51 237.06
  Q 133.47 237.14 133.48 240.51
  Q 133.52 284.73 133.53 360.49
  C 133.53 362.92 135.82 363.19 138.00 363.21
  Q 145.91 363.28 154.95 363.16
  A 2.08 2.08 0.0 0 0 157.01 361.08
  L 157.01 306.93
  A 0.45 0.45 0.0 0 1 157.47 306.48
  Q 158.72 306.49 169.50 306.49
  Z
  M 248.25 338.51
  L 273.66 338.51
  A 0.52 0.51 86.2 0 1 274.17 338.96
  Q 275.37 346.83 277.39 358.45
  C 277.85 361.09 277.92 363.12 280.76 363.18
  Q 289.83 363.37 297.65 363.14
  C 301.10 363.05 301.45 360.66 300.92 357.92
  Q 291.46 308.90 278.59 241.44
  Q 278.11 238.91 277.58 238.05
  A 2.25 2.25 0.0 0 0 275.67 236.99
  L 247.90 237.02
  A 2.60 2.60 0.0 0 0 245.36 239.13
  Q 237.07 282.41 223.23 353.98
  Q 222.54 357.55 222.33 360.24
  C 222.15 362.73 224.17 363.02 226.25 363.01
  Q 241.16 362.97 241.22 362.97
  A 2.86 2.86 0.0 0 0 243.89 360.60
  L 247.65 339.02
  A 0.62 0.61 -84.9 0 1 248.25 338.51
  Z
  M 425.27 254.98
  L 462.93 254.98
  A 2.34 2.34 0.0 0 0 465.27 252.78
  Q 465.66 246.35 465.45 240.64
  C 465.37 238.41 464.61 236.96 462.30 236.97
  Q 449.61 237.04 406.50 236.99
  Q 403.77 236.99 402.82 237.34
  A 2.11 2.11 0.0 0 0 401.44 239.32
  L 401.60 361.30
  A 1.88 1.87 -89.7 0 0 403.45 363.18
  Q 412.41 363.27 460.41 363.20
  C 463.00 363.20 465.05 363.61 465.28 360.74
  Q 465.64 356.23 465.44 349.35
  C 465.35 346.56 464.73 345.06 461.78 345.04
  Q 448.17 344.95 425.33 345.02
  A 0.32 0.32 0.0 0 1 425.01 344.70
  L 425.01 306.85
  A 0.30 0.29 -90.0 0 1 425.30 306.55
  L 454.62 306.42
  A 2.35 2.33 7.0 0 0 456.88 304.67
  Q 457.16 303.68 457.24 300.75
  Q 457.31 298.17 457.11 291.42
  Q 457.02 288.31 453.78 288.30
  Q 439.17 288.23 425.68 288.23
  A 0.67 0.67 0.0 0 1 425.01 287.56
  L 425.01 255.25
  A 0.27 0.26 -90.0 0 1 425.27 254.98
  Z
  M 538.67 298.51
  C 549.00 294.49 552.56 286.30 553.20 275.29
  C 554.20 257.77 551.98 242.61 532.32 238.23
  Q 527.03 237.05 522.75 237.05
  Q 492.79 236.99 488.75 236.97
  Q 486.03 236.96 484.78 237.40
  A 1.54 1.53 80.4 0 0 483.76 238.85
  L 483.76 360.73
  A 2.35 2.35 0.0 0 0 486.03 363.08
  Q 496.04 363.46 504.19 363.11
  Q 507.02 362.98 507.15 360.12
  Q 507.27 357.60 507.21 310.00
  A 0.70 0.70 0.0 0 1 507.89 309.30
  C 513.39 309.14 518.37 308.69 523.06 310.44
  C 529.57 312.86 529.83 320.13 529.81 326.25
  Q 529.73 347.00 529.87 352.24
  Q 529.99 357.11 530.91 360.58
  Q 531.61 363.19 534.48 363.22
  Q 544.93 363.33 551.16 363.13
  Q 554.42 363.02 554.15 360.24
  Q 553.23 350.81 553.24 347.75
  Q 553.31 326.00 553.20 321.76
  C 552.94 311.81 549.47 301.82 538.71 299.12
  A 0.32 0.32 0.0 0 1 538.67 298.51
  Z"
/>
<path fill="#f0683e" d="
  M 112.76 316.29
  A 2.56 2.56 0.0 0 1 114.63 318.73
  C 114.78 329.33 115.37 335.97 113.60 343.37
  C 109.69 359.71 94.99 365.30 79.74 365.03
  C 65.24 364.77 51.99 360.39 47.12 345.35
  Q 45.66 340.84 45.72 328.01
  Q 45.93 278.58 45.75 268.99
  Q 45.61 261.87 46.50 257.51
  C 49.54 242.63 61.87 235.90 76.34 235.13
  C 95.67 234.11 112.99 240.61 114.61 262.38
  Q 114.83 265.31 114.68 275.74
  Q 114.63 279.09 111.62 279.14
  Q 103.38 279.26 99.75 279.27
  Q 96.20 279.27 94.33 278.83
  A 2.48 2.47 -84.0 0 1 92.43 276.47
  Q 92.22 265.15 92.12 262.91
  Q 91.77 255.66 84.74 253.76
  C 79.97 252.47 73.15 253.41 70.70 258.30
  Q 69.29 261.11 69.26 264.75
  Q 69.21 270.40 69.26 335.71
  Q 69.27 345.30 78.46 346.56
  C 86.49 347.67 92.29 344.12 92.28 335.50
  Q 92.25 320.50 92.29 319.51
  C 92.41 316.72 92.96 316.06 96.02 316.04
  Q 107.49 315.99 110.99 316.06
  Q 112.00 316.08 112.76 316.29
  Z"
/>
<path fill="#f0683e" d="
  M 382.48 270.82
  A 2.20 2.18 11.7 0 1 380.61 272.04
  Q 371.94 272.44 363.74 272.08
  Q 361.05 271.97 360.90 269.38
  C 360.67 265.24 360.47 261.66 357.93 258.78
  C 354.93 255.39 348.26 254.95 344.44 256.21
  Q 339.08 257.97 337.92 264.04
  Q 336.51 271.38 341.98 277.80
  C 350.64 287.95 362.67 294.81 371.23 303.46
  Q 386.63 319.03 382.64 340.64
  C 378.75 361.74 359.09 366.19 340.52 364.46
  C 319.70 362.52 312.10 347.38 313.45 328.12
  A 2.16 2.15 -88.8 0 1 315.53 326.12
  Q 323.99 325.87 332.96 326.11
  Q 335.47 326.18 335.56 328.44
  Q 335.74 332.95 335.99 335.48
  C 336.88 344.51 347.74 346.28 354.28 342.99
  C 359.07 340.58 360.10 334.65 359.56 329.72
  C 358.37 318.82 343.83 308.93 335.54 302.66
  C 325.51 295.08 315.72 284.76 314.26 271.62
  C 311.27 244.60 329.16 233.30 354.20 235.30
  C 373.28 236.82 383.59 248.64 383.00 267.77
  Q 382.94 269.88 382.48 270.82
  Z"
/>
<path fill="#f0683e" d="
  M 169.50 288.28
  Q 179.10 288.28 181.36 288.19
  A 0.63 0.63 0.0 0 0 181.97 287.56
  Q 182.02 255.92 182.01 240.03
  Q 182.00 237.05 185.02 237.03
  Q 197.74 236.93 202.50 237.06
  Q 205.54 237.14 205.53 240.51
  Q 205.49 284.73 205.47 360.49
  C 205.47 362.92 203.18 363.19 201.00 363.21
  Q 193.09 363.28 184.05 363.16
  A 2.08 2.08 0.0 0 1 181.99 361.08
  L 181.99 306.93
  A 0.45 0.45 0.0 0 0 181.53 306.48
  Q 180.28 306.49 169.50 306.49
  Q 158.72 306.49 157.47 306.48
  A 0.45 0.45 0.0 0 0 157.01 306.93
  L 157.01 361.08
  A 2.08 2.08 0.0 0 1 154.95 363.16
  Q 145.91 363.28 138.00 363.21
  C 135.82 363.19 133.53 362.92 133.53 360.49
  Q 133.52 284.73 133.48 240.51
  Q 133.47 237.14 136.51 237.06
  Q 141.27 236.93 153.99 237.03
  Q 157.01 237.05 157.00 240.03
  Q 156.99 255.92 157.04 287.56
  A 0.63 0.63 0.0 0 0 157.64 288.19
  Q 159.91 288.28 169.50 288.28
  Z"
/>
<path fill="#f0683e" d="
  M 248.25 338.51
  A 0.62 0.61 -84.9 0 0 247.65 339.02
  L 243.89 360.60
  A 2.86 2.86 0.0 0 1 241.22 362.97
  Q 241.16 362.97 226.25 363.01
  C 224.17 363.02 222.15 362.73 222.33 360.24
  Q 222.54 357.55 223.23 353.98
  Q 237.07 282.41 245.36 239.13
  A 2.60 2.60 0.0 0 1 247.90 237.02
  L 275.67 236.99
  A 2.25 2.25 0.0 0 1 277.58 238.05
  Q 278.11 238.91 278.59 241.44
  Q 291.46 308.90 300.92 357.92
  C 301.45 360.66 301.10 363.05 297.65 363.14
  Q 289.83 363.37 280.76 363.18
  C 277.92 363.12 277.85 361.09 277.39 358.45
  Q 275.37 346.83 274.17 338.96
  A 0.52 0.51 86.2 0 0 273.66 338.51
  L 248.25 338.51
  Z
  M 260.86 321.28
  Q 266.21 321.27 270.69 321.14
  A 0.45 0.44 -7.5 0 0 271.11 320.60
  Q 265.30 293.81 261.00 273.47
  Q 260.91 273.05 260.73 273.05
  Q 260.55 273.05 260.46 273.47
  Q 256.27 293.83 250.61 320.66
  A 0.45 0.44 7.2 0 0 251.03 321.19
  Q 255.51 321.30 260.86 321.28
  Z"
/>
<path fill="#f0683e" d="
  M 425.27 254.98
  A 0.27 0.26 90.0 0 0 425.01 255.25
  L 425.01 287.56
  A 0.67 0.67 0.0 0 0 425.68 288.23
  Q 439.17 288.23 453.78 288.30
  Q 457.02 288.31 457.11 291.42
  Q 457.31 298.17 457.24 300.75
  Q 457.16 303.68 456.88 304.67
  A 2.35 2.33 7.0 0 1 454.62 306.42
  L 425.30 306.55
  A 0.30 0.29 90.0 0 0 425.01 306.85
  L 425.01 344.70
  A 0.32 0.32 0.0 0 0 425.33 345.02
  Q 448.17 344.95 461.78 345.04
  C 464.73 345.06 465.35 346.56 465.44 349.35
  Q 465.64 356.23 465.28 360.74
  C 465.05 363.61 463.00 363.20 460.41 363.20
  Q 412.41 363.27 403.45 363.18
  A 1.88 1.87 -89.7 0 1 401.60 361.30
  L 401.44 239.32
  A 2.11 2.11 0.0 0 1 402.82 237.34
  Q 403.77 236.99 406.50 236.99
  Q 449.61 237.04 462.30 236.97
  C 464.61 236.96 465.37 238.41 465.45 240.64
  Q 465.66 246.35 465.27 252.78
  A 2.34 2.34 0.0 0 1 462.93 254.98
  L 425.27 254.98
  Z"
/>
<path fill="#f0683e" d="
  M 538.67 298.51
  A 0.32 0.32 0.0 0 0 538.71 299.12
  C 549.47 301.82 552.94 311.81 553.20 321.76
  Q 553.31 326.00 553.24 347.75
  Q 553.23 350.81 554.15 360.24
  Q 554.42 363.02 551.16 363.13
  Q 544.93 363.33 534.48 363.22
  Q 531.61 363.19 530.91 360.58
  Q 529.99 357.11 529.87 352.24
  Q 529.73 347.00 529.81 326.25
  C 529.83 320.13 529.57 312.86 523.06 310.44
  C 518.37 308.69 513.39 309.14 507.89 309.30
  A 0.70 0.70 0.0 0 0 507.21 310.00
  Q 507.27 357.60 507.15 360.12
  Q 507.02 362.98 504.19 363.11
  Q 496.04 363.46 486.03 363.08
  A 2.35 2.35 0.0 0 1 483.76 360.73
  L 483.76 238.85
  A 1.54 1.53 80.4 0 1 484.78 237.40
  Q 486.03 236.96 488.75 236.97
  Q 492.79 236.99 522.75 237.05
  Q 527.03 237.05 532.32 238.23
  C 551.98 242.61 554.20 257.77 553.20 275.29
  C 552.56 286.30 549.00 294.49 538.67 298.51
  Z
  M 507.28 255.75
  L 507.16 290.21
  A 0.63 0.63 0.0 0 0 507.79 290.84
  L 518.15 290.88
  A 11.29 10.74 0.2 0 0 529.48 280.18
  L 529.52 265.94
  A 11.29 10.74 0.2 0 0 518.27 255.16
  L 507.91 255.12
  A 0.63 0.63 0.0 0 0 507.28 255.75
  Z"
/>
<path fill="#ffffff" d="
  M 507.28 255.75
  A 0.63 0.63 0.0 0 1 507.91 255.12
  L 518.27 255.16
  A 11.29 10.74 0.2 0 1 529.52 265.94
  L 529.48 280.18
  A 11.29 10.74 0.2 0 1 518.15 290.88
  L 507.79 290.84
  A 0.63 0.63 0.0 0 1 507.16 290.21
  L 507.28 255.75
  Z"
/>
<path fill="#ffffff" d="
  M 260.73 273.05
  Q 260.91 273.05 261.00 273.47
  Q 265.30 293.81 271.11 320.60
  A 0.45 0.44 -7.5 0 1 270.69 321.14
  Q 266.21 321.27 260.86 321.28
  Q 255.51 321.30 251.03 321.19
  A 0.45 0.44 7.2 0 1 250.61 320.66
  Q 256.27 293.83 260.46 273.47
  Q 260.55 273.05 260.73 273.05
  Z"
/>
</svg>