<?xml version="1.0" encoding="UTF-8" standalone="no"?>
<!DOCTYPE svg PUBLIC "-//W3C//DTD SVG 1.1//EN" "http://www.w3.org/Graphics/SVG/1.1/DTD/svg11.dtd">
<svg xmlns="http://www.w3.org/2000/svg" version="1.1" viewBox="0.00 0.00 256.00 256.00" width="128" height="128">
<g stroke-width="2.00" fill="none" stroke-linecap="butt">
<path stroke="#007ec4" vector-effect="non-scaling-stroke" d="
  M 71.55 96.97
  Q 38.23 98.38 4.89 97.92"
/>
<path stroke="#505052" vector-effect="non-scaling-stroke" d="
  M 256.00 111.64
  L 162.86 111.78"
/>
</g>
<path fill="#0082c9" d="
  M 71.55 96.97
  Q 38.23 98.38 4.89 97.92
  C 12.02 69.59 28.89 44.17 52.02 26.78
  C 81.64 4.51 118.21 -3.56 154.82 3.58
  A 0.17 0.16 44.1 0 1 154.83 3.90
  C 139.35 7.08 124.07 11.00 109.59 16.82
  C 94.45 22.90 79.47 32.54 71.26 46.96
  Q 59.41 67.79 68.47 90.49
  Q 69.12 92.12 71.55 96.97
  Z"
/>
<path fill="#57575a" d="
  M 256.00 110.91
  L 256.00 111.64
  L 162.86 111.78
  Q 150.78 105.39 139.45 102.04
  Q 121.46 96.71 103.23 91.69
  C 90.92 88.30 79.61 80.92 88.24 66.18
  Q 97.93 49.63 115.81 41.26
  Q 130.39 34.44 144.81 32.34
  C 166.14 29.25 190.36 31.08 210.65 39.37
  Q 232.85 48.44 243.78 69.99
  Q 252.26 86.70 255.01 105.01
  Q 255.45 107.95 256.00 110.91
  Z"
/>
<path fill="#007abf" d="
  M 71.55 96.97
  C 77.56 107.51 85.50 116.29 95.87 122.85
  Q 100.29 125.65 109.83 129.14
  C 135.88 138.67 165.20 152.90 162.60 186.40
  C 160.83 209.18 141.72 230.92 119.62 236.84
  C 94.38 243.61 67.39 239.11 45.78 224.38
  Q 29.29 213.13 18.33 193.89
  C 1.56 164.43 -3.29 130.92 4.89 97.92
  Q 38.23 98.38 71.55 96.97
  Z"
/>
<path fill="#49484a" d="
  M 256.00 111.64
  L 256.00 146.69
  C 247.76 202.21 207.33 245.21 152.17 256.00
  L 145.72 256.00
  Q 171.91 233.56 187.42 203.69
  Q 195.29 188.53 196.33 171.45
  C 197.92 145.39 185.34 124.15 162.86 111.78
  L 256.00 111.64
  Z"
/>
</svg>