<?xml version="1.0" encoding="UTF-8" standalone="no"?>
<!DOCTYPE svg PUBLIC "-//W3C//DTD SVG 1.1//EN" "http://www.w3.org/Graphics/SVG/1.1/DTD/svg11.dtd">
<svg xmlns="http://www.w3.org/2000/svg" version="1.1" viewBox="0.00 0.00 512.00 512.00" width="128" height="128">
<g stroke-width="2.00" fill="none" stroke-linecap="butt">
<path stroke="#8b8b8b" vector-effect="non-scaling-stroke" d="
  M 365.94 255.65
  Q 365.94 273.32 360.69 289.21
  Q 348.40 326.44 315.34 348.29
  C 261.29 384.02 187.45 367.23 154.28 310.68
  C 151.35 305.67 148.66 296.11 140.75 296.11
  Q 64.85 296.02 53.28 296.09
  C 47.34 296.13 41.49 301.71 43.06 307.76
  C 73.52 424.96 194.28 491.84 310.35 460.78
  C 402.91 436.00 469.10 351.90 469.12 255.67
  C 469.15 159.44 403.00 75.31 310.45 50.49
  C 194.40 19.36 73.60 86.18 43.09 203.37
  C 41.51 209.42 47.36 215.00 53.30 215.04
  Q 64.87 215.12 140.77 215.07
  C 148.68 215.07 151.38 205.51 154.31 200.50
  C 187.51 143.97 261.35 127.22 315.39 162.98
  Q 348.44 184.84 360.71 222.08
  Q 365.95 237.97 365.94 255.65"
/>
<path stroke="#8b8b8b" vector-effect="non-scaling-stroke" d="
  M 201.2501 255.5102
  A 51.45 50.61 -179.9 0 0 252.6117 306.2099
  A 51.45 50.61 -179.9 0 0 304.1499 255.6898
  A 51.45 50.61 -179.9 0 0 252.7883 204.9901
  A 51.45 50.61 -179.9 0 0 201.2501 255.5102"
/>
</g>
<path fill="#ffffff" d="
  M 261.16 0.00
  Q 325.34 1.62 379.35 31.64
  Q 423.19 56.01 453.79 93.47
  Q 509.28 161.40 512.00 250.70
  L 512.00 261.16
  C 510.10 336.52 475.87 407.21 418.00 454.23
  Q 350.22 509.30 261.30 512.00
  L 250.90 512.00
  C 180.28 510.29 113.12 479.93 66.44 428.06
  Q 3.10 357.66 0.00 261.16
  L 0.00 250.81
  Q 3.12 154.14 66.68 83.68
  Q 99.32 47.50 145.01 25.26
  Q 193.98 1.42 250.72 0.00
  L 261.16 0.00
  Z
  M 365.94 255.65
  Q 365.94 273.32 360.69 289.21
  Q 348.40 326.44 315.34 348.29
  C 261.29 384.02 187.45 367.23 154.28 310.68
  C 151.35 305.67 148.66 296.11 140.75 296.11
  Q 64.85 296.02 53.28 296.09
  C 47.34 296.13 41.49 301.71 43.06 307.76
  C 73.52 424.96 194.28 491.84 310.35 460.78
  C 402.91 436.00 469.10 351.90 469.12 255.67
  C 469.15 159.44 403.00 75.31 310.45 50.49
  C 194.40 19.36 73.60 86.18 43.09 203.37
  C 41.51 209.42 47.36 215.00 53.30 215.04
  Q 64.87 215.12 140.77 215.07
  C 148.68 215.07 151.38 205.51 154.31 200.50
  C 187.51 143.97 261.35 127.22 315.39 162.98
  Q 348.44 184.84 360.71 222.08
  Q 365.95 237.97 365.94 255.65
  Z
  M 201.2501 255.5102
  A 51.45 50.61 -179.9 0 0 252.6117 306.2099
  A 51.45 50.61 -179.9 0 0 304.1499 255.6898
  A 51.45 50.61 -179.9 0 0 252.7883 204.9901
  A 51.45 50.61 -179.9 0 0 201.2501 255.5102
  Z"
/>
<path fill="#161616" d="
  M 469.12 255.67
  C 469.10 351.90 402.91 436.00 310.35 460.78
  C 194.28 491.84 73.52 424.96 43.06 307.76
  C 41.49 301.71 47.34 296.13 53.28 296.09
  Q 64.85 296.02 140.75 296.11
  C 148.66 296.11 151.35 305.67 154.28 310.68
  C 187.45 367.23 261.29 384.02 315.34 348.29
  Q 348.40 326.44 360.69 289.21
  Q 365.94 273.32 365.94 255.65
  Q 365.95 237.97 360.71 222.08
  Q 348.44 184.84 315.39 162.98
  C 261.35 127.22 187.51 143.97 154.31 200.50
  C 151.38 205.51 148.68 215.07 140.77 215.07
  Q 64.87 215.12 53.30 215.04
  C 47.36 215.00 41.51 209.42 43.09 203.37
  C 73.60 86.18 194.40 19.36 310.45 50.49
  C 403.00 75.31 469.15 159.44 469.12 255.67
  Z"
/>
<ellipse fill="#161616" cx="0.00" cy="0.00" transform="translate(252.70,255.60) rotate(-179.9)" rx="51.45" ry="50.61"/>
</svg>