<?xml version="1.0" encoding="UTF-8" standalone="no"?>
<!DOCTYPE svg PUBLIC "-//W3C//DTD SVG 1.1//EN" "http://www.w3.org/Graphics/SVG/1.1/DTD/svg11.dtd">
<svg xmlns="http://www.w3.org/2000/svg" version="1.1" viewBox="0.00 0.00 512.00 512.00" width="128" height="128">
<path stroke="#8a8a8d" stroke-width="2.00" fill="none" stroke-linecap="butt" vector-effect="non-scaling-stroke" d="
  M 415.33 323.24
  L 374.98 323.24
  A 0.92 0.91 -78.2 0 0 374.14 323.80
  Q 368.00 338.08 359.59 349.33
  C 350.12 361.99 338.39 371.52 324.49 379.55
  Q 303.08 391.91 277.07 393.35
  C 243.68 395.20 209.14 386.30 183.42 365.25
  C 162.76 348.35 148.15 324.33 142.32 298.67
  Q 133.39 259.35 141.12 218.84
  C 144.79 199.57 153.03 180.85 165.38 165.11
  Q 171.33 157.53 175.02 153.51
  C 184.30 143.42 195.38 136.25 208.65 130.95
  Q 234.71 120.54 261.07 118.65
  Q 303.04 115.63 337.15 140.60
  C 353.80 152.79 366.20 169.16 374.14 188.23
  A 0.85 0.83 -10.8 0 0 374.92 188.75
  L 415.65 188.75
  A 0.22 0.22 0.0 0 0 415.85 188.45
  Q 398.91 146.17 365.75 115.58
  C 362.78 112.84 359.82 110.75 356.53 108.71
  Q 322.18 87.43 280.74 83.98
  C 245.77 81.06 210.09 85.65 179.45 102.97
  Q 155.79 116.35 136.84 138.99
  Q 108.10 173.35 99.61 217.91
  C 89.47 271.19 100.27 327.56 134.33 369.94
  Q 174.70 420.16 240.20 427.59
  C 276.14 431.67 313.36 426.22 345.55 409.55
  Q 361.89 401.09 373.31 390.20
  C 392.67 371.73 405.75 348.92 415.72 323.83
  A 0.43 0.42 -79.1 0 0 415.33 323.24"
/>
<path fill="#ffffff" d="
  M 395.96 0.00
  Q 404.62 0.72 407.51 1.14
  C 461.98 9.20 504.95 52.29 511.05 107.51
  Q 511.50 111.51 512.00 115.50
  L 512.00 395.95
  Q 511.34 404.09 510.85 407.51
  C 502.93 461.96 459.59 504.95 404.49 511.05
  Q 400.49 511.49 396.50 512.00
  L 115.85 512.00
  Q 111.39 511.57 106.93 511.03
  C 75.70 507.25 47.85 492.01 27.87 467.89
  Q 6.21 441.75 1.37 407.48
  Q 0.59 401.89 0.00 396.26
  L 0.00 116.10
  Q 3.55 61.28 44.64 27.39
  Q 74.68 2.61 115.52 0.00
  L 395.96 0.00
  Z
  M 415.33 323.24
  L 374.98 323.24
  A 0.92 0.91 -78.2 0 0 374.14 323.80
  Q 368.00 338.08 359.59 349.33
  C 350.12 361.99 338.39 371.52 324.49 379.55
  Q 303.08 391.91 277.07 393.35
  C 243.68 395.20 209.14 386.30 183.42 365.25
  C 162.76 348.35 148.15 324.33 142.32 298.67
  Q 133.39 259.35 141.12 218.84
  C 144.79 199.57 153.03 180.85 165.38 165.11
  Q 171.33 157.53 175.02 153.51
  C 184.30 143.42 195.38 136.25 208.65 130.95
  Q 234.71 120.54 261.07 118.65
  Q 303.04 115.63 337.15 140.60
  C 353.80 152.79 366.20 169.16 374.14 188.23
  A 0.85 0.83 -10.8 0 0 374.92 188.75
  L 415.65 188.75
  A 0.22 0.22 0.0 0 0 415.85 188.45
  Q 398.91 146.17 365.75 115.58
  C 362.78 112.84 359.82 110.75 356.53 108.71
  Q 322.18 87.43 280.74 83.98
  C 245.77 81.06 210.09 85.65 179.45 102.97
  Q 155.79 116.35 136.84 138.99
  Q 108.10 173.35 99.61 217.91
  C 89.47 271.19 100.27 327.56 134.33 369.94
  Q 174.70 420.16 240.20 427.59
  C 276.14 431.67 313.36 426.22 345.55 409.55
  Q 361.89 401.09 373.31 390.20
  C 392.67 371.73 405.75 348.92 415.72 323.83
  A 0.43 0.42 -79.1 0 0 415.33 323.24
  Z"
/>
<path fill="#15151a" d="
  M 415.33 323.24
  A 0.43 0.42 -79.1 0 1 415.72 323.83
  C 405.75 348.92 392.67 371.73 373.31 390.20
  Q 361.89 401.09 345.55 409.55
  C 313.36 426.22 276.14 431.67 240.20 427.59
  Q 174.70 420.16 134.33 369.94
  C 100.27 327.56 89.47 271.19 99.61 217.91
  Q 108.10 173.35 136.84 138.99
  Q 155.79 116.35 179.45 102.97
  C 210.09 85.65 245.77 81.06 280.74 83.98
  Q 322.18 87.43 356.53 108.71
  C 359.82 110.75 362.78 112.84 365.75 115.58
  Q 398.91 146.17 415.85 188.45
  A 0.22 0.22 0.0 0 1 415.65 188.75
  L 374.92 188.75
  A 0.85 0.83 -10.8 0 1 374.14 188.23
  C 366.20 169.16 353.80 152.79 337.15 140.60
  Q 303.04 115.63 261.07 118.65
  Q 234.71 120.54 208.65 130.95
  C 195.38 136.25 184.30 143.42 175.02 153.51
  Q 171.33 157.53 165.38 165.11
  C 153.03 180.85 144.79 199.57 141.12 218.84
  Q 133.39 259.35 142.32 298.67
  C 148.15 324.33 162.76 348.35 183.42 365.25
  C 209.14 386.30 243.68 395.20 277.07 393.35
  Q 303.08 391.91 324.49 379.55
  C 338.39 371.52 350.12 361.99 359.59 349.33
  Q 368.00 338.08 374.14 323.80
  A 0.92 0.91 -78.2 0 1 374.98 323.24
  L 415.33 323.24
  Z"
/>
</svg>