<?xml version="1.0" encoding="UTF-8" standalone="no"?>
<!DOCTYPE svg PUBLIC "-//W3C//DTD SVG 1.1//EN" "http://www.w3.org/Graphics/SVG/1.1/DTD/svg11.dtd">
<svg xmlns="http://www.w3.org/2000/svg" version="1.1" viewBox="0.00 0.00 128.00 128.00" width="128" height="128">
<g stroke-width="2.00" fill="none" stroke-linecap="butt">
<path stroke="#6cbc3a" vector-effect="non-scaling-stroke" d="
  M 128.00 68.85
  Q 114.21 74.34 99.96 76.91"
/>
<path stroke="#bce29f" vector-effect="non-scaling-stroke" d="
  M 99.96 76.91
  L 67.09 62.18
  A 0.70 0.70 0.0 0 0 66.10 62.82
  L 66.12 91.28"
/>
<path stroke="#6cbc3a" vector-effect="non-scaling-stroke" d="
  M 66.12 91.28
  Q 64.16 91.71 62.52 92.74"
/>
<path stroke="#bce29f" vector-effect="non-scaling-stroke" d="
  M 62.52 92.74
  L 62.58 85.08
  A 1.12 1.11 -77.5 0 0 61.94 84.07
  C 59.44 82.92 55.08 81.55 52.59 79.57
  C 37.33 67.40 42.80 43.57 62.04 39.74
  C 74.26 37.31 85.43 45.06 88.15 57.02
  C 88.83 59.99 88.31 64.42 88.36 66.99
  A 1.04 1.02 11.8 0 0 88.97 67.91
  L 100.10 72.82
  A 0.98 0.97 19.2 0 0 101.43 72.18
  Q 106.68 52.98 94.06 37.77
  Q 88.00 30.45 79.26 27.39
  Q 60.30 20.75 44.47 32.10
  Q 35.82 38.31 32.12 48.07
  Q 25.27 66.15 35.64 82.13"
/>
<path stroke="#6cbc3a" vector-effect="non-scaling-stroke" d="
  M 35.64 82.13
  Q 17.77 85.23 0.00 81.46"
/>
<path stroke="#aed997" vector-effect="non-scaling-stroke" d="
  M 62.52 92.74
  L 62.14 97.68
  A 0.52 0.51 5.8 0 1 61.56 98.15
  Q 45.07 95.84 35.64 82.13"
/>
<path stroke="#aed997" vector-effect="non-scaling-stroke" d="
  M 99.96 76.91
  Q 97.34 81.61 94.34 85.56
  Q 93.14 87.14 93.93 88.99
  Q 97.73 97.87 106.53 101.71
  A 0.38 0.38 0.0 0 1 106.44 102.44
  C 97.84 103.91 87.57 102.91 80.29 97.90
  A 4.68 4.67 -32.4 0 0 76.93 97.15
  L 67.29 98.69
  A 1.09 1.09 0.0 0 1 66.03 97.60
  L 66.12 91.28"
/>
</g>
<path fill="#7ac542" d="
  M 128.00 0.00
  L 128.00 68.85
  Q 114.21 74.34 99.96 76.91
  L 67.09 62.18
  A 0.70 0.70 0.0 0 0 66.10 62.82
  L 66.12 91.28
  Q 64.16 91.71 62.52 92.74
  L 62.58 85.08
  A 1.12 1.11 -77.5 0 0 61.94 84.07
  C 59.44 82.92 55.08 81.55 52.59 79.57
  C 37.33 67.40 42.80 43.57 62.04 39.74
  C 74.26 37.31 85.43 45.06 88.15 57.02
  C 88.83 59.99 88.31 64.42 88.36 66.99
  A 1.04 1.02 11.8 0 0 88.97 67.91
  L 100.10 72.82
  A 0.98 0.97 19.2 0 0 101.43 72.18
  Q 106.68 52.98 94.06 37.77
  Q 88.00 30.45 79.26 27.39
  Q 60.30 20.75 44.47 32.10
  Q 35.82 38.31 32.12 48.07
  Q 25.27 66.15 35.64 82.13
  Q 17.77 85.23 0.00 81.46
  L 0.00 0.00
  L 128.00 0.00
  Z"
/>
<path fill="#fefffc" d="
  M 62.52 92.74
  L 62.14 97.68
  A 0.52 0.51 5.8 0 1 61.56 98.15
  Q 45.07 95.84 35.64 82.13
  Q 25.27 66.15 32.12 48.07
  Q 35.82 38.31 44.47 32.10
  Q 60.30 20.75 79.26 27.39
  Q 88.00 30.45 94.06 37.77
  Q 106.68 52.98 101.43 72.18
  A 0.98 0.97 19.2 0 1 100.10 72.82
  L 88.97 67.91
  A 1.04 1.02 11.8 0 1 88.36 66.99
  C 88.31 64.42 88.83 59.99 88.15 57.02
  C 85.43 45.06 74.26 37.31 62.04 39.74
  C 42.80 43.57 37.33 67.40 52.59 79.57
  C 55.08 81.55 59.44 82.92 61.94 84.07
  A 1.12 1.11 -77.5 0 1 62.58 85.08
  L 62.52 92.74
  Z"
/>
<path fill="#fefffc" d="
  M 99.96 76.91
  Q 97.34 81.61 94.34 85.56
  Q 93.14 87.14 93.93 88.99
  Q 97.73 97.87 106.53 101.71
  A 0.38 0.38 0.0 0 1 106.44 102.44
  C 97.84 103.91 87.57 102.91 80.29 97.90
  A 4.68 4.67 -32.4 0 0 76.93 97.15
  L 67.29 98.69
  A 1.09 1.09 0.0 0 1 66.03 97.60
  L 66.12 91.28
  L 66.10 62.82
  A 0.70 0.70 0.0 0 1 67.09 62.18
  L 99.96 76.91
  Z"
/>
<path fill="#5db331" d="
  M 128.00 68.85
  L 128.00 128.00
  L 0.00 128.00
  L 0.00 81.46
  Q 17.77 85.23 35.64 82.13
  Q 45.07 95.84 61.56 98.15
  A 0.52 0.51 5.8 0 0 62.14 97.68
  L 62.52 92.74
  Q 64.16 91.71 66.12 91.28
  L 66.03 97.60
  A 1.09 1.09 0.0 0 0 67.29 98.69
  L 76.93 97.15
  A 4.68 4.67 -32.4 0 1 80.29 97.90
  C 87.57 102.91 97.84 103.91 106.44 102.44
  A 0.38 0.38 0.0 0 0 106.53 101.71
  Q 97.73 97.87 93.93 88.99
  Q 93.14 87.14 94.34 85.56
  Q 97.34 81.61 99.96 76.91
  Q 114.21 74.34 128.00 68.85
  Z"
/>
</svg>