<?xml version="1.0" encoding="UTF-8" standalone="no"?>
<!DOCTYPE svg PUBLIC "-//W3C//DTD SVG 1.1//EN" "http://www.w3.org/Graphics/SVG/1.1/DTD/svg11.dtd">
<svg xmlns="http://www.w3.org/2000/svg" version="1.1" viewBox="0.00 0.00 256.00 256.00" width="128" height="128">
<path fill="#f48120" d="
  M 32.01 172.27
  C 26.02 172.01 19.76 169.94 13.32 169.15
  A 5.05 5.02 41.6 0 0 11.54 169.25
  Q 8.88 169.86 6.01 169.67
  A 2.36 2.13 -27.4 0 1 5.17 169.45
  C 2.43 168.12 3.73 159.51 4.23 157.27
  Q 7.82 141.26 20.79 132.80
  C 24.56 130.34 30.06 127.14 35.09 126.33
  C 39.77 125.58 38.58 120.75 39.93 117.34
  C 42.25 111.49 43.64 104.96 48.76 100.03
  Q 54.79 94.22 63.17 93.13
  Q 65.69 92.80 71.31 93.79
  Q 75.33 94.49 79.52 94.66
  C 83.02 94.81 84.83 91.86 85.94 89.10
  A 5.70 5.69 -12.0 0 1 87.15 87.24
  C 90.27 84.02 93.28 78.87 97.04 75.37
  C 107.27 65.86 118.99 59.64 133.26 58.89
  C 145.55 58.24 156.40 60.03 166.89 65.93
  Q 185.28 76.28 193.52 96.76
  C 195.57 101.88 195.24 106.61 193.15 112.19
  Q 190.12 120.32 187.03 125.02
  Q 184.62 128.69 179.53 133.67
  A 4.03 3.94 -78.8 0 1 178.32 134.50
  Q 167.16 139.50 159.79 139.57
  C 139.53 139.75 114.93 140.19 89.14 140.97
  Q 81.60 141.20 74.82 142.10
  Q 72.27 142.44 70.46 144.21
  A 0.62 0.62 0.0 0 0 70.57 145.17
  Q 72.28 146.24 74.25 146.15
  C 79.74 145.89 85.63 145.51 90.93 145.81
  C 97.27 146.18 103.37 145.63 110.35 145.64
  Q 133.04 145.67 151.50 145.75
  Q 154.27 145.76 161.44 145.11
  Q 166.65 144.63 171.26 148.09
  Q 177.77 152.96 176.36 161.74
  A 4.45 4.34 -27.6 0 1 175.94 163.02
  L 172.45 169.66
  A 1.66 1.65 -1.4 0 1 171.82 170.32
  Q 170.20 171.25 168.50 171.35
  C 164.89 171.55 161.54 171.23 157.20 171.55
  Q 150.60 172.03 133.78 172.06
  Q 92.70 172.12 47.67 171.79
  Q 41.89 171.75 39.82 171.94
  Q 34.90 172.40 32.01 172.27
  Z"
/>
<path fill="#feb240" d="
  M 201.40 106.90
  A 1.46 1.46 0.0 0 1 202.94 106.03
  Q 206.53 106.52 210.10 106.90
  C 219.78 107.93 229.33 112.92 236.98 119.06
  C 241.92 123.03 245.17 128.62 248.21 133.67
  Q 250.51 137.52 251.91 142.21
  Q 254.56 151.14 254.73 152.27
  Q 255.64 158.38 254.54 164.07
  Q 253.40 170.01 247.28 170.25
  C 244.58 170.36 240.96 170.44 236.98 171.36
  Q 234.35 171.97 231.25 172.03
  Q 220.36 172.23 209.50 172.00
  Q 207.00 171.94 202.48 172.34
  A 12.21 12.18 46.7 0 1 199.57 172.25
  Q 191.61 171.06 183.80 172.12
  Q 181.51 172.44 180.75 171.96
  C 179.47 171.15 179.52 169.50 180.13 168.28
  Q 182.35 163.80 183.11 161.47
  A 4.99 4.75 73.3 0 1 183.80 160.11
  C 188.98 153.04 192.41 149.22 200.89 146.80
  Q 205.00 145.63 211.78 145.96
  C 217.36 146.22 224.89 146.76 230.76 145.42
  A 0.50 0.50 0.0 0 0 230.96 144.55
  C 226.24 140.75 220.09 140.32 214.43 140.17
  C 208.41 140.01 203.48 138.39 198.82 135.51
  A 3.05 2.98 -0.6 0 1 197.91 134.64
  Q 194.77 130.03 195.92 124.18
  Q 197.58 115.70 201.40 106.90
  Z"
/>
</svg>