<?xml version="1.0" encoding="UTF-8" standalone="no"?>
<!DOCTYPE svg PUBLIC "-//W3C//DTD SVG 1.1//EN" "http://www.w3.org/Graphics/SVG/1.1/DTD/svg11.dtd">
<svg xmlns="http://www.w3.org/2000/svg" version="1.1" viewBox="0.00 0.00 248.00 248.00" width="128" height="128">
<g stroke-width="2.00" fill="none" stroke-linecap="butt">
<path stroke="#ffa8a8" vector-effect="non-scaling-stroke" d="
  M 97.83 108.33
  A 0.36 0.36 0.0 0 0 98.33 108.33
  L 115.01 91.65
  A 0.48 0.47 -46.3 0 0 115.00 90.97
  C 94.54 71.36 62.25 73.84 45.42 96.65
  C 34.28 111.76 33.41 132.17 43.26 148.17
  C 51.37 161.35 65.97 170.00 81.56 170.21
  Q 94.44 170.39 106.29 163.87
  Q 111.23 161.15 123.47 148.66
  Q 129.73 142.27 161.02 111.04
  Q 165.86 106.21 168.32 104.89
  C 176.78 100.34 187.06 101.74 194.01 108.31
  A 0.33 0.31 43.6 0 0 194.45 108.31
  L 211.19 91.57
  A 0.45 0.45 0.0 0 0 211.18 90.93
  C 191.97 72.90 164.16 73.48 145.52 92.04
  Q 121.97 115.51 102.20 135.45
  Q 96.71 141.00 94.65 142.24
  C 84.25 148.55 71.36 146.18 64.61 136.08
  C 55.23 122.06 64.53 104.15 80.42 102.39
  C 86.91 101.67 93.22 103.81 97.83 108.33"
/>
<path stroke="#ffa8a8" vector-effect="non-scaling-stroke" d="
  M 157.13 128.79
  L 138.94 146.98
  A 0.41 0.41 0.0 0 0 138.89 147.48
  C 155.13 173.24 188.57 178.12 211.07 157.19
  A 0.58 0.58 0.0 0 0 211.09 156.35
  L 194.66 139.92
  A 0.67 0.67 0.0 0 0 193.74 139.90
  C 187.02 146.14 177.10 147.51 169.10 143.48
  Q 160.45 139.13 157.61 128.92
  A 0.29 0.29 0.0 0 0 157.13 128.79"
/>
</g>
<path fill="#ff5050" d="
  M 248.00 0.00
  L 248.00 248.00
  L 0.00 248.00
  L 0.00 0.00
  L 248.00 0.00
  Z
  M 97.83 108.33
  A 0.36 0.36 0.0 0 0 98.33 108.33
  L 115.01 91.65
  A 0.48 0.47 -46.3 0 0 115.00 90.97
  C 94.54 71.36 62.25 73.84 45.42 96.65
  C 34.28 111.76 33.41 132.17 43.26 148.17
  C 51.37 161.35 65.97 170.00 81.56 170.21
  Q 94.44 170.39 106.29 163.87
  Q 111.23 161.15 123.47 148.66
  Q 129.73 142.27 161.02 111.04
  Q 165.86 106.21 168.32 104.89
  C 176.78 100.34 187.06 101.74 194.01 108.31
  A 0.33 0.31 43.6 0 0 194.45 108.31
  L 211.19 91.57
  A 0.45 0.45 0.0 0 0 211.18 90.93
  C 191.97 72.90 164.16 73.48 145.52 92.04
  Q 121.97 115.51 102.20 135.45
  Q 96.71 141.00 94.65 142.24
  C 84.25 148.55 71.36 146.18 64.61 136.08
  C 55.23 122.06 64.53 104.15 80.42 102.39
  C 86.91 101.67 93.22 103.81 97.83 108.33
  Z
  M 157.13 128.79
  L 138.94 146.98
  A 0.41 0.41 0.0 0 0 138.89 147.48
  C 155.13 173.24 188.57 178.12 211.07 157.19
  A 0.58 0.58 0.0 0 0 211.09 156.35
  L 194.66 139.92
  A 0.67 0.67 0.0 0 0 193.74 139.90
  C 187.02 146.14 177.10 147.51 169.10 143.48
  Q 160.45 139.13 157.61 128.92
  A 0.29 0.29 0.0 0 0 157.13 128.79
  Z"
/>
<path fill="#ffffff" d="
  M 97.83 108.33
  C 93.22 103.81 86.91 101.67 80.42 102.39
  C 64.53 104.15 55.23 122.06 64.61 136.08
  C 71.36 146.18 84.25 148.55 94.65 142.24
  Q 96.71 141.00 102.20 135.45
  Q 121.97 115.51 145.52 92.04
  C 164.16 73.48 191.97 72.90 211.18 90.93
  A 0.45 0.45 0.0 0 1 211.19 91.57
  L 194.45 108.31
  A 0.33 0.31 43.6 0 1 194.01 108.31
  C 187.06 101.74 176.78 100.34 168.32 104.89
  Q 165.86 106.21 161.02 111.04
  Q 129.73 142.27 123.47 148.66
  Q 111.23 161.15 106.29 163.87
  Q 94.44 170.39 81.56 170.21
  C 65.97 170.00 51.37 161.35 43.26 148.17
  C 33.41 132.17 34.28 111.76 45.42 96.65
  C 62.25 73.84 94.54 71.36 115.00 90.97
  A 0.48 0.47 -46.3 0 1 115.01 91.65
  L 98.33 108.33
  A 0.36 0.36 0.0 0 1 97.83 108.33
  Z"
/>
<path fill="#ffffff" d="
  M 157.13 128.79
  A 0.29 0.29 0.0 0 1 157.61 128.92
  Q 160.45 139.13 169.10 143.48
  C 177.10 147.51 187.02 146.14 193.74 139.90
  A 0.67 0.67 0.0 0 1 194.66 139.92
  L 211.09 156.35
  A 0.58 0.58 0.0 0 1 211.07 157.19
  C 188.57 178.12 155.13 173.24 138.89 147.48
  A 0.41 0.41 0.0 0 1 138.94 146.98
  L 157.13 128.79
  Z"
/>
</svg>