<?xml version="1.0" encoding="UTF-8" standalone="no"?>
<!DOCTYPE svg PUBLIC "-//W3C//DTD SVG 1.1//EN" "http://www.w3.org/Graphics/SVG/1.1/DTD/svg11.dtd">
<svg xmlns="http://www.w3.org/2000/svg" version="1.1" viewBox="0.00 0.00 256.00 256.00" width="128" height="128">
<path fill="#0f171f" d="
  M 127.97 183.67
  Q 128.48 184.96 128.48 187.25
  Q 128.54 210.35 128.49 239.76
  A 0.73 0.72 88.3 0 1 127.82 240.48
  C 123.34 240.80 120.30 240.21 115.02 239.75
  Q 110.53 239.36 107.60 238.63
  Q 103.76 237.67 98.02 236.28
  C 93.19 235.11 89.66 233.30 84.07 231.14
  C 77.07 228.42 68.93 223.93 62.90 219.43
  Q 39.68 202.08 27.28 176.18
  C 24.15 169.64 21.37 161.04 19.73 155.03
  Q 19.05 152.54 17.48 142.70
  C 15.82 132.33 16.35 121.99 17.57 111.50
  Q 17.81 109.45 20.37 99.25
  Q 21.52 94.68 23.38 90.15
  C 27.36 80.47 31.51 70.97 37.99 62.37
  Q 56.41 37.94 84.36 25.66
  Q 90.96 22.76 102.78 19.66
  Q 116.44 16.07 132.74 16.53
  Q 136.82 16.64 139.24 17.00
  C 142.30 17.45 144.92 17.28 147.87 18.00
  C 155.23 19.79 160.37 20.76 166.61 23.28
  C 175.52 26.89 177.81 27.98 186.80 32.76
  C 191.19 35.09 194.04 37.83 198.23 40.68
  Q 200.02 41.90 202.41 44.25
  Q 210.86 52.54 213.21 55.29
  Q 224.00 67.89 231.00 83.62
  Q 232.91 87.91 234.36 92.80
  C 235.57 96.92 237.23 100.81 238.01 105.32
  C 239.46 113.69 241.07 120.56 240.13 127.23
  A 0.60 0.59 -85.0 0 1 239.53 127.74
  Q 212.69 127.38 192.50 127.57
  Q 189.15 127.61 186.04 128.06
  A 0.99 0.99 0.0 0 1 184.91 127.16
  C 184.32 119.43 182.98 111.13 179.41 104.00
  Q 174.58 94.36 166.80 86.73
  Q 165.59 85.55 157.76 80.14
  Q 153.07 76.90 147.82 75.17
  Q 139.91 72.58 136.98 72.34
  Q 129.30 71.71 120.24 72.45
  Q 110.94 73.22 99.82 79.53
  Q 98.98 80.01 93.28 84.34
  C 87.43 88.80 83.56 93.81 79.77 100.01
  C 78.30 102.41 77.52 105.18 76.16 107.89
  Q 75.35 109.49 74.85 111.07
  Q 71.41 122.02 72.98 134.75
  C 73.63 140.04 74.13 143.87 76.59 148.76
  C 79.32 154.22 80.70 157.22 82.97 160.52
  Q 84.66 162.99 94.00 171.70
  Q 98.66 176.03 107.83 179.90
  Q 117.40 183.93 127.25 183.21
  A 0.72 0.71 77.4 0 1 127.97 183.67
  Z"
/>
<rect fill="#0f171f" x="184.56" y="184.53" width="55.96" height="55.96" rx="0.89"/>
</svg>