<?xml version="1.0" encoding="UTF-8" standalone="no"?>
<!DOCTYPE svg PUBLIC "-//W3C//DTD SVG 1.1//EN" "http://www.w3.org/Graphics/SVG/1.1/DTD/svg11.dtd">
<svg xmlns="http://www.w3.org/2000/svg" version="1.1" viewBox="0.00 0.00 225.00 225.00" width="128" height="128">
<path fill="#000000" d="
  M 111.97 1.69
  Q 112.05 15.56 111.99 30.66
  Q 111.99 32.86 109.84 33.10
  Q 103.00 33.89 93.74 35.40
  A 1.32 1.31 77.7 0 1 92.27 34.45
  L 84.54 5.68
  A 1.09 1.09 0.0 0 1 85.35 4.34
  Q 97.99 1.40 111.16 0.93
  A 0.78 0.78 0.0 0 1 111.97 1.69
  Z"
/>
<path fill="#000000" d="
  M 182.07 71.46
  A 1.43 1.42 57.3 0 1 180.20 71.04
  Q 176.52 65.87 173.09 61.86
  Q 161.60 48.38 147.24 41.40
  Q 140.93 38.33 136.17 36.46
  A 2.12 2.12 0.0 0 1 134.82 34.40
  Q 134.92 31.95 135.27 30.64
  Q 138.11 20.35 141.70 6.71
  A 1.29 1.28 -81.8 0 1 142.97 5.75
  Q 144.93 5.80 146.15 6.20
  Q 186.12 19.52 208.22 55.47
  A 0.83 0.82 -30.9 0 1 207.93 56.63
  L 182.07 71.46
  Z"
/>
<path fill="#000000" d="
  M 71.54 42.81
  A 1.44 1.42 -32.9 0 1 71.13 44.69
  Q 65.95 48.39 61.93 51.83
  Q 48.44 63.38 41.46 77.80
  Q 38.40 84.14 36.54 88.91
  A 2.13 2.13 0.0 0 1 34.47 90.27
  Q 32.01 90.17 30.70 89.82
  Q 20.37 87.00 6.69 83.43
  A 1.29 1.29 0.0 0 1 5.73 82.16
  Q 5.77 80.19 6.17 78.96
  Q 19.45 38.86 55.46 16.62
  A 0.83 0.83 0.0 0 1 56.62 16.91
  L 71.54 42.81
  Z"
/>
<path fill="#000000" d="
  M 220.91 85.75
  C 221.91 91.16 222.98 96.31 223.26 102.16
  C 223.69 111.12 224.34 121.12 223.00 128.76
  Q 221.95 134.76 221.01 139.97
  A 1.84 1.84 0.0 0 1 218.72 141.41
  Q 207.48 138.37 197.63 135.40
  Q 195.61 134.79 190.26 133.79
  A 1.21 1.21 0.0 0 1 189.32 132.26
  Q 194.60 114.32 189.81 96.30
  Q 189.15 93.82 191.26 93.19
  Q 205.85 88.87 220.24 85.32
  A 0.55 0.55 0.0 0 1 220.91 85.75
  Z"
/>
<path fill="#000000" d="
  M 5.31 140.45
  A 0.78 0.78 0.0 0 1 4.36 139.87
  Q 1.36 127.10 0.87 114.20
  A 1.08 1.08 0.0 0 1 1.94 113.07
  L 31.60 112.94
  A 1.31 1.30 -3.0 0 1 32.89 114.10
  Q 33.87 123.40 34.91 130.17
  Q 35.24 132.30 33.12 132.88
  Q 18.64 136.89 5.31 140.45
  Z"
/>
<path fill="#000000" d="
  M 182.19 153.52
  L 208.10 168.48
  A 0.83 0.83 0.0 0 1 208.39 169.64
  Q 186.10 205.66 145.95 218.91
  Q 144.72 219.31 142.75 219.35
  A 1.29 1.29 0.0 0 1 141.48 218.39
  Q 137.92 204.69 135.10 194.35
  Q 134.75 193.04 134.66 190.58
  A 2.13 2.13 0.0 0 1 136.02 188.51
  Q 140.80 186.65 147.14 183.59
  Q 161.58 176.62 173.15 163.13
  Q 176.60 159.11 180.31 153.93
  A 1.44 1.43 -57.1 0 1 182.19 153.52
  Z"
/>
<path fill="#000000" d="
  M 16.85 168.44
  Q 28.84 161.44 41.96 153.94
  Q 43.87 152.84 45.16 154.58
  Q 49.26 160.12 55.21 167.40
  A 1.32 1.31 -42.3 0 1 55.12 169.15
  L 34.03 190.24
  A 1.09 1.09 0.0 0 1 32.46 190.21
  Q 23.59 180.72 16.59 169.53
  A 0.78 0.78 0.0 0 1 16.85 168.44
  Z"
/>
<path fill="#000000" d="
  M 92.10 188.94
  Q 101.04 191.34 110.99 192.03
  A 1.06 1.06 0.0 0 1 111.98 193.08
  L 111.98 223.55
  A 0.38 0.38 0.0 0 1 111.67 223.92
  Q 110.76 224.09 108.50 223.95
  Q 95.26 223.17 83.75 220.08
  Q 72.24 216.99 60.38 211.05
  Q 58.36 210.03 57.65 209.43
  A 0.38 0.38 0.0 0 1 57.57 208.96
  L 72.82 182.58
  A 1.06 1.06 0.0 0 1 74.21 182.16
  Q 83.16 186.54 92.10 188.94
  Z"
/>
</svg>