<?xml version="1.0" encoding="UTF-8" standalone="no"?>
<!DOCTYPE svg PUBLIC "-//W3C//DTD SVG 1.1//EN" "http://www.w3.org/Graphics/SVG/1.1/DTD/svg11.dtd">
<svg xmlns="http://www.w3.org/2000/svg" version="1.1" viewBox="0.00 0.00 128.00 128.00" width="128" height="128">
<g stroke-width="2.00" fill="none" stroke-linecap="butt">
<path stroke="#f96c03" vector-effect="non-scaling-stroke" d="
  M 79.52 41.39
  Q 78.90 43.61 79.20 45.82
  A 1.55 1.51 -33.8 0 1 78.98 46.85
  C 77.67 48.98 78.15 52.68 78.31 54.98"
/>
<path stroke="#f44d07" vector-effect="non-scaling-stroke" d="
  M 55.96 46.44
  L 56.01 27.77"
/>
<path stroke="#fb7402" vector-effect="non-scaling-stroke" d="
  M 87.89 78.72
  Q 85.44 70.72 84.30 61.43"
/>
<path stroke="#f44d07" vector-effect="non-scaling-stroke" d="
  M 49.88 72.46
  L 47.49 82.68"
/>
<path stroke="#f86404" vector-effect="non-scaling-stroke" d="
  M 70.23 104.89
  C 69.77 101.87 70.63 100.03 71.18 97.38
  A 3.06 3.03 49.4 0 0 71.24 96.53
  L 70.62 87.96"
/>
</g>
<path fill="#f65c05" d="
  M 79.52 41.39
  Q 78.90 43.61 79.20 45.82
  A 1.55 1.51 -33.8 0 1 78.98 46.85
  C 77.67 48.98 78.15 52.68 78.31 54.98
  C 72.85 54.62 69.41 52.68 65.78 48.34
  Q 62.27 44.14 58.66 40.23
  A 0.64 0.64 0.0 0 0 57.57 40.49
  L 55.96 46.44
  L 56.01 27.77
  Q 56.40 26.28 57.61 24.11
  Q 59.60 20.57 63.29 20.29
  C 69.11 19.83 70.23 22.90 72.89 28.15
  Q 76.26 34.81 79.52 41.39
  Z"
/>
<path fill="#f23e08" d="
  M 55.96 46.44
  Q 55.81 50.26 54.50 54.75
  Q 53.50 58.21 51.73 59.79
  C 46.73 64.24 40.79 69.15 40.61 69.88
  Q 40.45 70.51 41.10 70.65
  Q 45.52 71.63 49.88 72.46
  L 47.49 82.68
  Q 37.88 76.96 26.99 71.80
  Q 22.32 69.58 21.34 67.75
  C 19.44 64.19 20.79 59.30 24.63 57.37
  Q 37.05 51.14 45.51 47.00
  A 3.64 3.60 -89.3 0 0 47.14 45.39
  L 56.01 27.77
  L 55.96 46.44
  Z"
/>
<path fill="#fc7c01" d="
  M 87.89 78.72
  Q 85.44 70.72 84.30 61.43
  L 88.02 58.07
  A 0.57 0.56 -59.6 0 0 87.77 57.10
  L 78.31 54.98
  C 78.15 52.68 77.67 48.98 78.98 46.85
  A 1.55 1.51 -33.8 0 0 79.20 45.82
  Q 78.90 43.61 79.52 41.39
  L 81.74 45.52
  A 2.56 2.55 89.2 0 0 82.83 46.58
  Q 100.34 55.29 104.39 57.38
  C 108.11 59.29 108.83 65.17 106.22 68.59
  Q 105.04 70.14 101.44 71.95
  Q 95.01 75.19 87.89 78.72
  Z"
/>
<path fill="#f96b03" d="
  M 84.30 61.43
  Q 85.44 70.72 87.89 78.72
  L 83.68 80.67
  A 5.32 5.26 0.7 0 0 81.15 83.11
  L 70.23 104.89
  C 69.77 101.87 70.63 100.03 71.18 97.38
  A 3.06 3.03 49.4 0 0 71.24 96.53
  L 70.62 87.96
  Q 72.48 82.10 73.87 73.96
  C 74.80 68.54 80.13 64.99 84.30 61.43
  Z"
/>
<path fill="#f65c05" d="
  M 70.62 87.96
  L 71.24 96.53
  A 3.06 3.03 49.4 0 1 71.18 97.38
  C 70.63 100.03 69.77 101.87 70.23 104.89
  Q 64.53 110.26 58.51 105.05
  A 2.32 2.21 -83.9 0 1 57.98 104.36
  L 47.49 82.68
  L 49.88 72.46
  C 54.31 73.34 57.82 73.67 60.99 77.26
  Q 65.47 82.32 70.62 87.96
  Z"
/>
</svg>