<?xml version="1.0" encoding="UTF-8" standalone="no"?>
<!DOCTYPE svg PUBLIC "-//W3C//DTD SVG 1.1//EN" "http://www.w3.org/Graphics/SVG/1.1/DTD/svg11.dtd">
<svg xmlns="http://www.w3.org/2000/svg" version="1.1" viewBox="0.00 0.00 192.00 192.00" width="128" height="128">
<path fill="#2a48e0" d="
  M 192.00 60.42
  L 192.00 98.63
  C 189.28 113.31 181.77 124.61 168.71 131.37
  Q 162.25 134.72 149.80 136.54
  Q 129.42 139.52 110.71 139.54
  A 0.59 0.58 -90.0 0 0 110.13 140.13
  L 110.13 171.92
  A 0.36 0.36 0.0 0 1 109.60 172.24
  Q 61.64 148.23 27.94 131.62
  Q 15.77 125.62 11.39 121.57
  Q 1.87 112.77 0.00 98.59
  L 0.00 68.13
  Q 2.25 51.28 14.83 42.19
  Q 19.97 38.47 29.86 35.14
  Q 43.80 30.44 55.85 26.15
  Q 62.19 23.89 69.87 22.71
  Q 111.51 16.28 153.06 23.15
  C 158.12 23.99 162.90 25.00 167.45 27.21
  Q 187.86 37.14 192.00 60.42
  Z
  M 46.12 79.57
  C 46.12 86.61 45.43 94.92 47.20 100.37
  Q 49.98 108.93 57.72 114.07
  Q 62.11 116.98 71.79 118.43
  Q 91.85 121.43 110.13 121.43
  Q 128.40 121.43 148.46 118.43
  Q 158.14 116.99 162.53 114.08
  Q 170.27 108.94 173.06 100.37
  C 174.83 94.93 174.14 86.62 174.14 79.57
  C 174.14 72.53 174.83 64.22 173.06 58.77
  Q 170.28 50.21 162.54 45.07
  Q 158.15 42.16 148.46 40.71
  Q 128.40 37.71 110.13 37.71
  Q 91.86 37.71 71.80 40.71
  Q 62.11 42.15 57.72 45.06
  Q 49.98 50.20 47.20 58.76
  C 45.43 64.21 46.12 72.52 46.12 79.57
  Z"
/>
<rect fill="#6c93f6" x="-7.51" y="-17.95" transform="translate(82.89,79.57) rotate(0.1)" width="15.02" height="35.90" rx="7.19"/>
<rect fill="#6c93f6" x="-7.51" y="-17.95" transform="translate(137.23,79.57) rotate(0.1)" width="15.02" height="35.90" rx="7.19"/>
</svg>