<?xml version="1.0" encoding="UTF-8" standalone="no"?>
<!DOCTYPE svg PUBLIC "-//W3C//DTD SVG 1.1//EN" "http://www.w3.org/Graphics/SVG/1.1/DTD/svg11.dtd">
<svg xmlns="http://www.w3.org/2000/svg" version="1.1" viewBox="0.00 0.00 128.00 128.00" width="128" height="128">
<path fill="#2788c9" d="
  M 98.01 27.30
  A 0.19 0.19 0.0 0 0 97.67 27.25
  Q 91.43 37.19 89.10 40.60
  Q 84.48 47.35 77.07 44.21
  A 4.78 4.72 -13.9 0 1 75.86 43.49
  L 68.83 37.90
  A 1.30 1.30 0.0 0 0 67.45 37.75
  Q 66.34 38.30 65.28 40.28
  Q 57.83 54.18 56.79 56.34
  Q 54.44 61.22 52.12 62.69
  C 46.49 66.25 42.44 62.87 37.92 59.59
  Q 35.42 57.79 32.87 59.34
  Q 24.96 64.16 21.24 67.92
  C 13.53 75.71 23.17 81.63 29.67 84.41
  Q 37.07 87.58 47.71 89.13
  C 61.96 91.20 77.45 90.51 91.35 86.67
  Q 100.51 84.14 106.82 78.47
  Q 110.20 75.44 107.93 70.92
  C 107.17 69.40 104.25 66.98 102.34 65.87
  C 92.74 60.29 79.11 57.81 68.44 57.76
  A 1.64 1.64 0.0 0 1 66.86 55.73
  L 67.42 53.49
  A 2.66 2.66 0.0 0 1 70.15 51.47
  C 83.21 52.17 108.17 55.81 114.29 69.51
  Q 115.29 71.76 115.20 76.89
  C 115.07 84.88 116.79 92.43 109.89 98.17
  Q 103.04 103.88 93.86 106.37
  Q 62.87 114.80 32.79 106.22
  C 25.26 104.07 15.59 99.23 12.75 91.59
  Q 11.94 89.42 12.07 83.89
  C 12.24 77.19 10.73 69.38 15.98 64.20
  Q 22.86 57.42 31.00 53.25
  C 37.33 50.01 41.05 54.52 46.08 57.53
  A 2.32 2.32 0.0 0 0 49.30 56.68
  Q 52.61 50.82 58.65 39.21
  Q 61.17 34.36 62.84 33.18
  C 69.27 28.60 74.21 34.02 78.94 37.86
  Q 81.89 40.25 83.97 36.96
  Q 89.38 28.44 92.47 23.84
  A 0.51 0.51 0.0 0 0 91.92 23.06
  L 86.74 24.45
  A 2.71 2.70 -14.8 0 1 83.43 22.53
  L 82.93 20.67
  A 1.91 1.91 0.0 0 1 84.39 18.31
  Q 94.06 16.32 99.21 15.42
  Q 101.74 14.98 102.54 17.70
  Q 102.95 19.08 105.74 32.77
  A 1.73 1.72 -3.7 0 1 103.92 34.83
  L 101.76 34.66
  A 2.60 2.59 84.6 0 1 99.46 32.75
  L 98.01 27.30
  Z
  M 25.60 89.92
  A 0.55 0.52 16.1 0 0 25.33 89.46
  L 18.92 85.76
  A 0.47 0.47 0.0 0 0 18.22 86.20
  Q 18.66 92.87 25.44 96.13
  A 0.14 0.14 0.0 0 0 25.64 96.01
  L 25.60 89.92
  Z
  M 101.66 89.86
  L 101.57 95.97
  A 0.14 0.14 0.0 0 0 101.77 96.09
  Q 108.60 92.88 109.10 86.19
  A 0.47 0.47 0.0 0 0 108.40 85.74
  L 101.94 89.40
  A 0.55 0.53 -15.6 0 0 101.66 89.86
  Z
  M 94.85 92.19
  L 85.62 94.65
  A 0.37 0.37 0.0 0 0 85.34 95.01
  L 85.36 101.79
  A 0.24 0.24 0.0 0 0 85.66 102.02
  L 94.49 99.67
  A 0.81 0.81 0.0 0 0 95.08 98.96
  L 95.55 92.77
  A 0.56 0.55 84.5 0 0 94.85 92.19
  Z
  M 32.41 92.22
  A 0.56 0.55 -84.6 0 0 31.71 92.80
  L 32.20 98.98
  A 0.81 0.81 0.0 0 0 32.79 99.69
  L 41.61 102.01
  A 0.24 0.24 0.0 0 0 41.91 101.78
  L 41.91 95.01
  A 0.37 0.37 0.0 0 0 41.63 94.65
  L 32.41 92.22
  Z
  M 60.78 97.11
  A 0.45 0.45 0.0 0 0 60.36 96.63
  L 48.94 95.74
  A 0.45 0.45 0.0 0 0 48.46 96.16
  L 47.94 102.78
  A 0.45 0.45 0.0 0 0 48.36 103.26
  L 59.78 104.15
  A 0.45 0.45 0.0 0 0 60.26 103.73
  L 60.78 97.11
  Z
  M 78.8269 96.0414
  A 0.26 0.26 0.0 0 0 78.5510 95.7983
  L 66.8143 96.5367
  A 0.26 0.26 0.0 0 0 66.5711 96.8125
  L 67.0131 103.8386
  A 0.26 0.26 0.0 0 0 67.2890 104.0817
  L 79.0257 103.3433
  A 0.26 0.26 0.0 0 0 79.2689 103.0675
  L 78.8269 96.0414
  Z"
/>
</svg>