<?xml version="1.0" encoding="UTF-8" standalone="no"?>
<!DOCTYPE svg PUBLIC "-//W3C//DTD SVG 1.1//EN" "http://www.w3.org/Graphics/SVG/1.1/DTD/svg11.dtd">
<svg xmlns="http://www.w3.org/2000/svg" version="1.1" viewBox="0.00 0.00 192.00 192.00" width="128" height="128">
<g stroke-width="2.00" fill="none" stroke-linecap="butt">
<path stroke="#60a0e7" vector-effect="non-scaling-stroke" d="
  M 96.05 141.38
  Q 103.14 145.57 109.82 142.96
  Q 113.21 141.64 117.80 136.86
  Q 141.67 112.00 144.81 108.82
  C 149.94 103.62 152.28 97.73 149.89 90.50
  Q 148.74 87.02 143.17 81.49
  Q 142.32 80.65 115.59 52.93
  Q 107.24 44.28 96.02 50.64"
/>
<path stroke="#84b6ec" vector-effect="non-scaling-stroke" d="
  M 96.02 50.64
  Q 88.91 46.47 82.13 49.11
  Q 78.77 50.42 74.55 54.81
  Q 59.94 70.01 44.68 85.90
  A 5.30 4.95 -9.3 0 0 43.94 86.86
  Q 39.58 94.09 42.16 101.65
  Q 43.35 105.13 48.91 110.62
  Q 49.78 111.48 75.31 137.93
  Q 84.69 147.65 96.05 141.38"
/>
<path stroke="#dbeafa" vector-effect="non-scaling-stroke" d="
  M 96.02 50.64
  Q 106.63 59.95 100.84 71.67
  C 99.70 73.99 97.81 75.89 96.01 77.83"
/>
<path stroke="#84b6ec" vector-effect="non-scaling-stroke" d="
  M 96.01 77.83
  L 78.86 95.69
  A 0.52 0.52 0.0 0 0 78.86 96.41
  L 95.99 114.18"
/>
<path stroke="#dbeafa" vector-effect="non-scaling-stroke" d="
  M 95.99 114.18
  Q 97.88 116.21 99.45 118.31
  Q 104.35 124.83 102.15 132.87
  Q 100.91 137.38 96.05 141.38"
/>
<path stroke="#60a0e7" vector-effect="non-scaling-stroke" d="
  M 95.99 114.18
  L 113.11 96.31
  A 0.52 0.52 0.0 0 0 113.11 95.59
  L 96.01 77.83"
/>
</g>
<path fill="#086cd9" d="
  M 173.40 0.00
  Q 188.90 2.85 192.00 18.48
  L 192.00 173.28
  Q 189.24 188.84 173.53 192.00
  L 18.72 192.00
  Q 3.15 189.22 0.00 173.52
  L 0.00 18.61
  Q 2.87 3.09 18.48 0.00
  L 173.40 0.00
  Z
  M 96.05 141.38
  Q 103.14 145.57 109.82 142.96
  Q 113.21 141.64 117.80 136.86
  Q 141.67 112.00 144.81 108.82
  C 149.94 103.62 152.28 97.73 149.89 90.50
  Q 148.74 87.02 143.17 81.49
  Q 142.32 80.65 115.59 52.93
  Q 107.24 44.28 96.02 50.64
  Q 88.91 46.47 82.13 49.11
  Q 78.77 50.42 74.55 54.81
  Q 59.94 70.01 44.68 85.90
  A 5.30 4.95 -9.3 0 0 43.94 86.86
  Q 39.58 94.09 42.16 101.65
  Q 43.35 105.13 48.91 110.62
  Q 49.78 111.48 75.31 137.93
  Q 84.69 147.65 96.05 141.38
  Z"
/>
<path fill="#ffffff" d="
  M 96.02 50.64
  Q 106.63 59.95 100.84 71.67
  C 99.70 73.99 97.81 75.89 96.01 77.83
  L 78.86 95.69
  A 0.52 0.52 0.0 0 0 78.86 96.41
  L 95.99 114.18
  Q 97.88 116.21 99.45 118.31
  Q 104.35 124.83 102.15 132.87
  Q 100.91 137.38 96.05 141.38
  Q 84.69 147.65 75.31 137.93
  Q 49.78 111.48 48.91 110.62
  Q 43.35 105.13 42.16 101.65
  Q 39.58 94.09 43.94 86.86
  A 5.30 4.95 -9.3 0 1 44.68 85.90
  Q 59.94 70.01 74.55 54.81
  Q 78.77 50.42 82.13 49.11
  Q 88.91 46.47 96.02 50.64
  Z"
/>
<path fill="#b7d4f4" d="
  M 96.05 141.38
  Q 100.91 137.38 102.15 132.87
  Q 104.35 124.83 99.45 118.31
  Q 97.88 116.21 95.99 114.18
  L 113.11 96.31
  A 0.52 0.52 0.0 0 0 113.11 95.59
  L 96.01 77.83
  C 97.81 75.89 99.70 73.99 100.84 71.67
  Q 106.63 59.95 96.02 50.64
  Q 107.24 44.28 115.59 52.93
  Q 142.32 80.65 143.17 81.49
  Q 148.74 87.02 149.89 90.50
  C 152.28 97.73 149.94 103.62 144.81 108.82
  Q 141.67 112.00 117.80 136.86
  Q 113.21 141.64 109.82 142.96
  Q 103.14 145.57 96.05 141.38
  Z"
/>
<path fill="#086cd9" d="
  M 96.01 77.83
  L 113.11 95.59
  A 0.52 0.52 0.0 0 1 113.11 96.31
  L 95.99 114.18
  L 78.86 96.41
  A 0.52 0.52 0.0 0 1 78.86 95.69
  L 96.01 77.83
  Z"
/>
</svg>