<?xml version="1.0" encoding="UTF-8" standalone="no"?>
<!DOCTYPE svg PUBLIC "-//W3C//DTD SVG 1.1//EN" "http://www.w3.org/Graphics/SVG/1.1/DTD/svg11.dtd">
<svg xmlns="http://www.w3.org/2000/svg" version="1.1" viewBox="0.00 0.00 128.00 128.00" width="128" height="128">
<g stroke-width="2.00" fill="none" stroke-linecap="butt">
<path stroke="#5b6b81" vector-effect="non-scaling-stroke" d="
  M 19.63 61.41
  A 1.58 1.58 0.0 0 0 20.36 61.61
  Q 25.36 61.73 31.63 61.62
  C 47.48 61.33 60.11 51.66 61.22 35.39
  C 61.38 33.01 60.26 32.08 58.03 31.98
  Q 50.60 31.64 44.21 32.70
  C 31.21 34.87 20.57 44.91 18.16 58.01
  C 17.85 59.69 18.21 60.60 19.63 61.41"
/>
<path stroke="#5b6b81" vector-effect="non-scaling-stroke" d="
  M 108.44 60.91
  C 109.85 60.09 110.20 59.18 109.87 57.51
  C 107.32 44.50 96.62 34.62 83.65 32.61
  Q 77.28 31.63 69.89 32.05
  C 67.67 32.18 66.57 33.11 66.75 35.48
  C 68.04 51.66 80.72 61.14 96.50 61.25
  Q 102.74 61.29 107.72 61.12
  A 1.57 1.57 0.0 0 0 108.44 60.91"
/>
<path stroke="#5b6b81" vector-effect="non-scaling-stroke" d="
  M 19.57 67.08
  C 18.17 67.90 17.82 68.81 18.15 70.48
  C 20.69 83.49 31.39 93.37 44.35 95.39
  Q 50.72 96.37 58.11 95.95
  C 60.33 95.83 61.43 94.89 61.24 92.52
  C 59.96 76.34 47.29 66.86 31.51 66.74
  Q 25.27 66.70 20.30 66.87
  A 1.57 1.57 0.0 0 0 19.57 67.08"
/>
<path stroke="#5b6b81" vector-effect="non-scaling-stroke" d="
  M 108.41 67.09
  A 1.57 1.57 0.0 0 0 107.68 66.89
  Q 102.71 66.71 96.47 66.75
  C 80.70 66.87 68.03 76.35 66.76 92.53
  C 66.57 94.89 67.67 95.83 69.89 95.95
  Q 77.28 96.37 83.65 95.39
  C 96.60 93.37 107.29 83.49 109.83 70.49
  C 110.16 68.82 109.81 67.91 108.41 67.09"
/>
</g>
<path fill="#07081c" d="
  M 128.00 0.00
  L 128.00 128.00
  L 0.00 128.00
  L 0.00 0.00
  L 128.00 0.00
  Z
  M 19.63 61.41
  A 1.58 1.58 0.0 0 0 20.36 61.61
  Q 25.36 61.73 31.63 61.62
  C 47.48 61.33 60.11 51.66 61.22 35.39
  C 61.38 33.01 60.26 32.08 58.03 31.98
  Q 50.60 31.64 44.21 32.70
  C 31.21 34.87 20.57 44.91 18.16 58.01
  C 17.85 59.69 18.21 60.60 19.63 61.41
  Z
  M 108.44 60.91
  C 109.85 60.09 110.20 59.18 109.87 57.51
  C 107.32 44.50 96.62 34.62 83.65 32.61
  Q 77.28 31.63 69.89 32.05
  C 67.67 32.18 66.57 33.11 66.75 35.48
  C 68.04 51.66 80.72 61.14 96.50 61.25
  Q 102.74 61.29 107.72 61.12
  A 1.57 1.57 0.0 0 0 108.44 60.91
  Z
  M 19.57 67.08
  C 18.17 67.90 17.82 68.81 18.15 70.48
  C 20.69 83.49 31.39 93.37 44.35 95.39
  Q 50.72 96.37 58.11 95.95
  C 60.33 95.83 61.43 94.89 61.24 92.52
  C 59.96 76.34 47.29 66.86 31.51 66.74
  Q 25.27 66.70 20.30 66.87
  A 1.57 1.57 0.0 0 0 19.57 67.08
  Z
  M 108.41 67.09
  A 1.57 1.57 0.0 0 0 107.68 66.89
  Q 102.71 66.71 96.47 66.75
  C 80.70 66.87 68.03 76.35 66.76 92.53
  C 66.57 94.89 67.67 95.83 69.89 95.95
  Q 77.28 96.37 83.65 95.39
  C 96.60 93.37 107.29 83.49 109.83 70.49
  C 110.16 68.82 109.81 67.91 108.41 67.09
  Z"
/>
<path fill="#afcee6" d="
  M 19.63 61.41
  C 18.21 60.60 17.85 59.69 18.16 58.01
  C 20.57 44.91 31.21 34.87 44.21 32.70
  Q 50.60 31.64 58.03 31.98
  C 60.26 32.08 61.38 33.01 61.22 35.39
  C 60.11 51.66 47.48 61.33 31.63 61.62
  Q 25.36 61.73 20.36 61.61
  A 1.58 1.58 0.0 0 1 19.63 61.41
  Z"
/>
<path fill="#afcee6" d="
  M 108.44 60.91
  A 1.57 1.57 0.0 0 1 107.72 61.12
  Q 102.74 61.29 96.50 61.25
  C 80.72 61.14 68.04 51.66 66.75 35.48
  C 66.57 33.11 67.67 32.18 69.89 32.05
  Q 77.28 31.63 83.65 32.61
  C 96.62 34.62 107.32 44.50 109.87 57.51
  C 110.20 59.18 109.85 60.09 108.44 60.91
  Z"
/>
<path fill="#afcee6" d="
  M 19.57 67.08
  A 1.57 1.57 0.0 0 1 20.30 66.87
  Q 25.27 66.70 31.51 66.74
  C 47.29 66.86 59.96 76.34 61.24 92.52
  C 61.43 94.89 60.33 95.83 58.11 95.95
  Q 50.72 96.37 44.35 95.39
  C 31.39 93.37 20.69 83.49 18.15 70.48
  C 17.82 68.81 18.17 67.90 19.57 67.08
  Z"
/>
<path fill="#afcee6" d="
  M 108.41 67.09
  C 109.81 67.91 110.16 68.82 109.83 70.49
  C 107.29 83.49 96.60 93.37 83.65 95.39
  Q 77.28 96.37 69.89 95.95
  C 67.67 95.83 66.57 94.89 66.76 92.53
  C 68.03 76.35 80.70 66.87 96.47 66.75
  Q 102.71 66.71 107.68 66.89
  A 1.57 1.57 0.0 0 1 108.41 67.09
  Z"
/>
</svg>