<?xml version="1.0" encoding="UTF-8" standalone="no"?>
<!DOCTYPE svg PUBLIC "-//W3C//DTD SVG 1.1//EN" "http://www.w3.org/Graphics/SVG/1.1/DTD/svg11.dtd">
<svg xmlns="http://www.w3.org/2000/svg" version="1.1" viewBox="0.00 0.00 256.00 256.00" width="128" height="128">
<path fill="#33c69f" d="
  M 131.12 0.00
  Q 146.00 0.79 160.82 4.82
  A 0.36 0.35 26.0 0 1 161.01 5.37
  Q 123.25 57.39 122.56 58.30
  C 108.29 77.18 83.35 83.41 61.63 74.34
  Q 49.21 69.16 41.50 58.76
  Q 33.82 48.40 30.28 43.43
  A 0.54 0.53 -42.2 0 1 30.32 42.77
  Q 41.47 30.10 56.32 20.46
  A 0.56 0.56 0.0 0 1 57.09 20.62
  Q 61.43 26.95 69.55 38.23
  C 74.23 44.72 83.04 46.30 89.87 42.38
  Q 92.38 40.93 95.97 35.94
  Q 108.86 18.02 121.68 0.00
  L 131.12 0.00
  Z"
/>
<path fill="#33c69f" d="
  M 253.60 122.16
  A 0.40 0.40 0.0 0 1 253.08 122.56
  Q 210.03 108.38 200.77 105.49
  Q 185.43 100.69 179.92 97.12
  Q 162.86 86.05 157.79 66.49
  Q 152.51 46.16 163.81 27.03
  Q 165.46 24.24 175.69 10.69
  A 0.67 0.66 29.7 0 1 176.49 10.48
  Q 192.13 17.16 205.58 27.80
  A 0.58 0.58 0.0 0 1 205.69 28.59
  Q 198.56 38.42 195.31 42.62
  Q 191.49 47.58 190.74 50.58
  C 189.30 56.43 191.29 62.63 195.96 66.47
  Q 198.02 68.16 203.35 69.87
  Q 217.96 74.56 245.42 83.46
  A 1.08 1.06 88.7 0 1 246.10 84.12
  Q 252.86 102.91 253.60 122.16
  Z"
/>
<path fill="#33c69f" d="
  M 20.83 55.34
  Q 42.54 85.45 53.28 99.96
  Q 63.20 113.37 65.52 119.41
  C 75.02 144.19 65.20 171.26 41.75 183.95
  Q 37.35 186.33 28.94 188.85
  Q 25.01 190.02 15.92 193.11
  A 0.41 0.41 0.0 0 1 15.43 192.93
  Q 6.69 178.12 2.12 161.29
  A 0.53 0.53 0.0 0 1 2.46 160.65
  Q 11.64 157.48 20.44 154.65
  Q 26.32 152.76 28.75 150.63
  C 35.08 145.09 35.75 135.90 30.82 129.18
  Q 15.26 107.96 3.46 91.48
  A 1.07 1.06 -54.4 0 1 3.31 90.54
  Q 9.16 71.55 20.38 55.35
  A 0.27 0.27 0.0 0 1 20.83 55.34
  Z"
/>
<path fill="#33c69f" d="
  M 170.16 248.09
  A 0.41 0.40 -10.1 0 1 169.61 247.72
  Q 169.68 201.80 169.54 191.97
  Q 169.32 175.69 171.02 169.26
  Q 176.29 149.34 193.52 138.29
  Q 211.43 126.79 233.41 131.63
  Q 236.61 132.34 252.89 137.92
  A 0.68 0.67 -78.5 0 1 253.34 138.62
  Q 251.85 155.78 245.85 172.09
  A 0.59 0.58 18.7 0 1 245.12 172.44
  Q 233.41 168.68 228.34 166.88
  Q 222.36 164.77 219.23 164.99
  C 213.15 165.45 207.81 169.32 205.58 175.03
  Q 204.61 177.55 204.64 183.22
  Q 204.74 198.76 204.84 228.01
  A 1.09 1.08 -19.4 0 1 204.42 228.87
  Q 188.46 241.31 170.16 248.09
  Z"
/>
<path fill="#33c69f" d="
  M 131.01 256.00
  L 120.07 256.00
  Q 120.00 246.04 119.97 236.07
  Q 119.95 230.11 119.03 227.60
  C 116.93 221.91 111.43 218.02 105.51 217.54
  Q 102.59 217.30 96.60 219.27
  Q 84.49 223.26 53.42 233.14
  A 1.05 1.02 -35.4 0 1 52.52 233.00
  Q 36.44 221.71 24.34 206.10
  A 0.36 0.35 62.3 0 1 24.51 205.54
  Q 58.40 194.61 71.66 190.16
  Q 92.33 183.21 97.53 182.68
  C 124.49 179.98 148.85 197.33 154.07 224.03
  C 155.73 232.53 154.90 242.89 155.02 252.09
  A 0.70 0.69 -6.6 0 1 154.47 252.78
  Q 142.91 255.34 131.01 256.00
  Z"
/>
</svg>