<?xml version="1.0" encoding="UTF-8" standalone="no"?>
<!DOCTYPE svg PUBLIC "-//W3C//DTD SVG 1.1//EN" "http://www.w3.org/Graphics/SVG/1.1/DTD/svg11.dtd">
<svg xmlns="http://www.w3.org/2000/svg" version="1.1" viewBox="0.00 0.00 256.00 256.00" width="128" height="128">
<g stroke-width="2.00" fill="none" stroke-linecap="butt">
<path stroke="#80baff" vector-effect="non-scaling-stroke" d="
  M 175.77 123.20
  Q 183.76 116.08 186.22 109.54
  C 190.61 97.83 186.32 85.03 176.69 77.00
  Q 166.57 68.57 152.99 67.74
  Q 140.51 66.97 102.06 67.33
  Q 91.87 67.43 87.28 69.23
  C 73.37 74.68 69.67 87.43 69.56 101.26
  Q 69.47 112.84 69.53 182.21
  A 0.25 0.25 0.0 0 0 69.78 182.46
  Q 105.48 182.60 165.72 182.43
  Q 173.87 182.40 179.80 178.23
  C 186.54 173.48 191.10 165.14 192.15 157.04
  C 194.01 142.81 187.74 131.80 175.83 124.03
  A 0.53 0.52 41.1 0 1 175.77 123.20"
/>
<path stroke="#80baff" vector-effect="non-scaling-stroke" d="
  M 155.86 113.08
  C 166.54 108.35 166.27 92.98 155.43 88.72
  Q 153.20 87.85 146.33 87.91
  Q 127.08 88.08 113.25 88.04
  Q 108.58 88.03 103.96 89.36
  C 93.33 92.41 91.68 103.32 91.56 113.26
  Q 91.43 124.21 91.56 135.75
  C 91.68 146.46 94.78 157.29 105.46 161.42
  Q 109.64 163.04 120.20 162.79
  C 126.04 162.65 135.17 162.63 143.29 162.95
  C 150.79 163.24 160.93 163.52 163.37 154.23
  C 165.15 147.48 161.46 140.87 154.96 138.30
  Q 152.25 137.22 146.49 137.23
  Q 136.95 137.25 127.13 137.23
  A 3.28 3.19 55.3 0 1 125.91 136.99
  Q 121.99 135.40 121.62 131.03
  Q 121.39 128.16 121.53 121.00
  Q 121.65 115.09 127.91 114.63
  Q 131.86 114.34 147.35 114.29
  Q 153.19 114.27 155.86 113.08"
/>
</g>
<path fill="#0074ff" d="
  M 136.21 0.00
  Q 181.77 3.46 214.29 33.20
  Q 251.79 67.50 256.00 119.70
  L 256.00 136.18
  Q 253.15 175.20 230.61 204.86
  Q 195.59 250.91 136.32 256.00
  L 119.84 256.00
  Q 80.69 253.14 51.00 230.50
  Q 5.07 195.49 0.00 136.31
  L 0.00 119.84
  Q 3.44 74.36 33.09 41.84
  Q 67.41 4.21 119.72 0.00
  L 136.21 0.00
  Z
  M 175.77 123.20
  Q 183.76 116.08 186.22 109.54
  C 190.61 97.83 186.32 85.03 176.69 77.00
  Q 166.57 68.57 152.99 67.74
  Q 140.51 66.97 102.06 67.33
  Q 91.87 67.43 87.28 69.23
  C 73.37 74.68 69.67 87.43 69.56 101.26
  Q 69.47 112.84 69.53 182.21
  A 0.25 0.25 0.0 0 0 69.78 182.46
  Q 105.48 182.60 165.72 182.43
  Q 173.87 182.40 179.80 178.23
  C 186.54 173.48 191.10 165.14 192.15 157.04
  C 194.01 142.81 187.74 131.80 175.83 124.03
  A 0.53 0.52 41.1 0 1 175.77 123.20
  Z"
/>
<path fill="#ffffff" d="
  M 175.83 124.03
  C 187.74 131.80 194.01 142.81 192.15 157.04
  C 191.10 165.14 186.54 173.48 179.80 178.23
  Q 173.87 182.40 165.72 182.43
  Q 105.48 182.60 69.78 182.46
  A 0.25 0.25 0.0 0 1 69.53 182.21
  Q 69.47 112.84 69.56 101.26
  C 69.67 87.43 73.37 74.68 87.28 69.23
  Q 91.87 67.43 102.06 67.33
  Q 140.51 66.97 152.99 67.74
  Q 166.57 68.57 176.69 77.00
  C 186.32 85.03 190.61 97.83 186.22 109.54
  Q 183.76 116.08 175.77 123.20
  A 0.53 0.52 41.1 0 0 175.83 124.03
  Z
  M 155.86 113.08
  C 166.54 108.35 166.27 92.98 155.43 88.72
  Q 153.20 87.85 146.33 87.91
  Q 127.08 88.08 113.25 88.04
  Q 108.58 88.03 103.96 89.36
  C 93.33 92.41 91.68 103.32 91.56 113.26
  Q 91.43 124.21 91.56 135.75
  C 91.68 146.46 94.78 157.29 105.46 161.42
  Q 109.64 163.04 120.20 162.79
  C 126.04 162.65 135.17 162.63 143.29 162.95
  C 150.79 163.24 160.93 163.52 163.37 154.23
  C 165.15 147.48 161.46 140.87 154.96 138.30
  Q 152.25 137.22 146.49 137.23
  Q 136.95 137.25 127.13 137.23
  A 3.28 3.19 55.3 0 1 125.91 136.99
  Q 121.99 135.40 121.62 131.03
  Q 121.39 128.16 121.53 121.00
  Q 121.65 115.09 127.91 114.63
  Q 131.86 114.34 147.35 114.29
  Q 153.19 114.27 155.86 113.08
  Z"
/>
<path fill="#0074ff" d="
  M 155.43 88.72
  C 166.27 92.98 166.54 108.35 155.86 113.08
  Q 153.19 114.27 147.35 114.29
  Q 131.86 114.34 127.91 114.63
  Q 121.65 115.09 121.53 121.00
  Q 121.39 128.16 121.62 131.03
  Q 121.99 135.40 125.91 136.99
  A 3.28 3.19 55.3 0 0 127.13 137.23
  Q 136.95 137.25 146.49 137.23
  Q 152.25 137.22 154.96 138.30
  C 161.46 140.87 165.15 147.48 163.37 154.23
  C 160.93 163.52 150.79 163.24 143.29 162.95
  C 135.17 162.63 126.04 162.65 120.20 162.79
  Q 109.64 163.04 105.46 161.42
  C 94.78 157.29 91.68 146.46 91.56 135.75
  Q 91.43 124.21 91.56 113.26
  C 91.68 103.32 93.33 92.41 103.96 89.36
  Q 108.58 88.03 113.25 88.04
  Q 127.08 88.08 146.33 87.91
  Q 153.20 87.85 155.43 88.72
  Z"
/>
</svg>