<?xml version="1.0" encoding="UTF-8" standalone="no"?>
<!DOCTYPE svg PUBLIC "-//W3C//DTD SVG 1.1//EN" "http://www.w3.org/Graphics/SVG/1.1/DTD/svg11.dtd">
<svg xmlns="http://www.w3.org/2000/svg" version="1.1" viewBox="0.00 0.00 256.00 256.00" width="128" height="128">
<path fill="#ee342f" d="
  M 81.76 12.32
  A 0.73 0.73 0.0 0 1 81.49 11.17
  Q 82.48 10.04 84.08 9.56
  C 90.02 7.76 95.85 5.30 102.06 3.77
  Q 117.28 0.04 134.01 0.97
  Q 141.51 1.38 151.69 4.32
  Q 166.47 8.58 168.98 9.49
  Q 211.36 24.90 235.99 61.13
  C 244.59 73.78 250.62 89.08 253.97 103.50
  Q 256.42 114.00 254.63 122.70
  Q 253.62 127.63 249.09 135.33
  C 234.51 160.12 211.90 178.85 184.50 186.99
  Q 183.76 187.21 183.19 187.07
  A 0.62 0.62 0.0 0 1 182.73 186.29
  Q 183.42 183.86 185.07 180.30
  Q 191.96 165.50 194.61 149.88
  Q 195.93 142.08 195.84 128.30
  C 195.67 103.48 187.37 79.33 172.40 60.13
  Q 144.27 24.09 99.15 13.85
  C 93.72 12.62 89.06 12.51 84.00 12.64
  Q 82.59 12.68 81.76 12.32
  Z"
/>
<path fill="#8d2676" d="
  M 0.00 139.60
  L 0.00 120.35
  Q 0.23 110.35 1.83 104.12
  Q 2.70 100.74 7.24 87.74
  Q 10.78 77.61 13.67 71.77
  Q 25.80 47.24 47.34 30.35
  C 58.90 21.29 69.89 20.40 85.24 21.78
  Q 114.54 24.42 139.24 41.00
  Q 146.38 45.79 152.35 51.92
  A 0.46 0.46 0.0 0 1 152.03 52.70
  C 111.08 54.24 72.42 77.03 51.93 111.89
  Q 43.91 125.52 39.35 144.33
  Q 32.75 171.52 38.84 198.62
  C 40.95 208.03 44.83 217.27 49.07 226.20
  A 0.44 0.44 0.0 0 1 48.41 226.74
  Q 41.12 221.35 35.12 215.12
  Q 18.32 197.68 9.36 174.66
  Q 8.50 172.47 3.51 157.53
  Q 0.59 148.80 0.00 139.60
  Z"
/>
<path fill="#f3b01c" d="
  M 254.16 146.61
  Q 254.29 152.18 252.81 157.05
  Q 249.65 167.45 246.64 175.12
  C 241.84 187.35 234.06 199.63 224.69 210.01
  Q 195.83 241.99 152.55 251.53
  Q 147.44 252.66 137.23 254.71
  Q 135.47 255.06 126.90 255.10
  Q 122.00 255.13 116.62 254.42
  Q 102.42 252.55 89.33 248.41
  C 80.94 245.76 73.27 242.41 67.18 236.22
  Q 63.96 232.95 60.26 226.50
  Q 39.34 190.03 47.70 147.80
  Q 47.76 147.47 48.98 145.39
  A 0.44 0.44 0.0 0 1 49.67 145.30
  C 50.96 146.59 52.07 149.35 53.31 151.02
  Q 78.57 185.27 120.27 196.99
  C 168.18 210.45 225.00 190.07 252.09 147.85
  Q 252.64 147.01 253.69 146.36
  A 0.31 0.30 -16.8 0 1 254.16 146.61
  Z"
/>
</svg>