<?xml version="1.0" encoding="UTF-8" standalone="no"?>
<!DOCTYPE svg PUBLIC "-//W3C//DTD SVG 1.1//EN" "http://www.w3.org/Graphics/SVG/1.1/DTD/svg11.dtd">
<svg xmlns="http://www.w3.org/2000/svg" version="1.1" viewBox="0.00 0.00 128.00 128.00" width="128" height="128">
<path fill="#ff9750" d="
  M 72.62 0.00
  Q 81.53 1.04 89.02 5.21
  Q 94.40 8.21 101.24 15.18
  Q 108.89 22.98 120.73 34.61
  A 0.69 0.69 0.0 0 1 120.74 35.60
  L 111.94 44.40
  A 0.35 0.34 -44.4 0 1 111.45 44.40
  Q 92.89 25.90 92.65 25.64
  Q 85.34 18.09 80.90 16.12
  C 69.95 11.27 57.69 13.09 49.17 21.66
  Q 32.21 38.72 26.49 44.48
  C 15.69 55.38 15.71 72.84 26.67 83.82
  Q 28.78 85.92 49.50 106.48
  C 57.88 114.79 70.49 116.80 81.01 111.88
  Q 85.67 109.70 93.36 101.71
  Q 98.92 95.95 111.65 83.29
  A 0.31 0.30 -44.3 0 1 112.08 83.29
  L 120.92 92.13
  A 0.64 0.64 0.0 0 1 120.92 93.03
  Q 110.72 103.11 101.24 112.88
  Q 94.69 119.62 89.41 122.60
  Q 81.81 126.90 72.75 128.00
  L 65.40 128.00
  C 53.01 126.57 44.61 121.19 35.69 111.82
  Q 31.54 107.46 21.49 97.73
  Q 13.32 89.81 10.28 84.42
  C 2.30 70.23 3.13 51.81 13.64 38.69
  Q 15.20 36.74 23.48 28.41
  Q 31.89 19.95 40.16 11.65
  Q 50.01 1.75 65.21 0.00
  L 72.62 0.00
  Z"
/>
<path fill="#ff9750" d="
  M 44.72 63.95
  Q 44.72 64.06 44.83 64.17
  Q 52.85 72.16 61.56 80.90
  A 0.70 0.70 0.0 0 1 61.56 81.88
  L 52.82 90.62
  A 0.41 0.40 -44.5 0 1 52.25 90.62
  Q 42.71 81.22 35.38 73.67
  Q 31.48 69.66 31.48 64.00
  Q 31.48 58.35 35.38 54.33
  Q 42.71 46.78 52.24 37.38
  A 0.41 0.40 44.5 0 1 52.81 37.38
  L 61.56 46.12
  A 0.70 0.70 0.0 0 1 61.56 47.10
  Q 52.85 55.84 44.83 63.83
  Q 44.72 63.94 44.72 63.95
  Z"
/>
<path fill="#ff9750" d="
  M 106.06 64.02
  Q 106.05 69.68 102.15 73.70
  Q 94.81 81.25 85.25 90.65
  A 0.41 0.40 44.5 0 1 84.68 90.65
  L 75.94 81.90
  A 0.70 0.70 0.0 0 1 75.94 80.92
  Q 84.66 72.18 92.70 64.18
  Q 92.80 64.08 92.80 63.97
  Q 92.80 63.95 92.70 63.85
  Q 84.67 55.84 75.96 47.09
  A 0.70 0.70 0.0 0 1 75.96 46.11
  L 84.71 37.37
  A 0.41 0.40 -44.5 0 1 85.28 37.37
  Q 94.83 46.78 102.16 54.34
  Q 106.06 58.36 106.06 64.02
  Z"
/>
</svg>