<?xml version="1.0" encoding="UTF-8" standalone="no"?>
<!DOCTYPE svg PUBLIC "-//W3C//DTD SVG 1.1//EN" "http://www.w3.org/Graphics/SVG/1.1/DTD/svg11.dtd">
<svg xmlns="http://www.w3.org/2000/svg" version="1.1" viewBox="0.00 0.00 192.00 192.00" width="128" height="128">
<path fill="#fc384c" d="
  M 96.48 183.04
  C 94.41 184.51 91.62 183.88 90.25 181.90
  Q 89.56 180.90 89.56 177.34
  Q 89.58 91.50 89.60 14.09
  C 89.60 9.83 94.17 8.37 97.56 10.45
  Q 103.16 13.88 149.10 41.37
  Q 153.97 44.29 155.99 49.05
  Q 157.14 51.74 157.05 59.23
  Q 156.59 97.09 156.07 132.54
  Q 155.96 140.67 148.78 145.80
  Q 126.93 161.44 96.48 183.04
  Z"
/>
<path fill="#fd374b" fill-opacity="0.800" d="
  M 69.55 175.03
  C 67.82 176.01 65.55 175.20 65.55 173.03
  Q 65.67 106.54 66.13 27.35
  A 2.73 2.64 -35.1 0 1 66.32 26.36
  C 67.78 22.66 70.82 23.92 73.64 25.79
  C 81.32 30.87 84.49 32.77 84.43 43.05
  Q 84.37 52.11 84.37 151.00
  C 84.37 157.74 82.25 161.52 77.58 166.47
  Q 75.40 168.78 70.04 174.65
  A 1.89 1.78 5.5 0 1 69.55 175.03
  Z"
/>
<path fill="#ff2d00" fill-opacity="0.443" d="
  M 61.09 98.58
  Q 60.99 146.52 60.98 149.26
  C 60.94 156.37 56.42 158.58 50.95 161.49
  A 2.61 2.46 -36.2 0 1 47.97 161.12
  Q 46.60 159.75 46.66 157.75
  Q 46.82 152.03 46.94 98.55
  Q 47.05 45.06 46.91 39.35
  Q 46.86 37.35 48.23 35.98
  A 2.61 2.46 36.5 0 1 51.21 35.62
  C 56.67 38.56 61.18 40.79 61.19 47.90
  Q 61.19 50.63 61.09 98.58
  Z"
/>
</svg>