<?xml version="1.0" encoding="UTF-8" standalone="no"?>
<!DOCTYPE svg PUBLIC "-//W3C//DTD SVG 1.1//EN" "http://www.w3.org/Graphics/SVG/1.1/DTD/svg11.dtd">
<svg xmlns="http://www.w3.org/2000/svg" version="1.1" viewBox="0.00 0.00 180.00 180.00" width="128" height="128">
<g stroke-width="2.00" fill="none" stroke-linecap="butt">
<path stroke="#f5f7f8" vector-effect="non-scaling-stroke" d="
  M 180.00 83.75
  C 175.34 76.19 170.14 74.05 161.33 70.08
  Q 159.67 69.33 154.05 65.71"
/>
<path stroke="#91989b" vector-effect="non-scaling-stroke" d="
  M 154.05 65.71
  C 154.50 42.28 140.80 26.33 116.70 26.09
  Q 96.01 25.88 64.27 26.05
  C 51.66 26.12 38.96 30.57 32.24 41.28
  Q 26.49 50.44 26.31 62.51
  Q 25.96 85.53 26.08 108.53"
/>
<path stroke="#f5f7f8" vector-effect="non-scaling-stroke" d="
  M 26.08 108.53
  L 0.00 109.37"
/>
<path stroke="#8a9296" vector-effect="non-scaling-stroke" d="
  M 154.05 65.71
  Q 154.09 91.11 153.86 116.50
  Q 153.79 123.24 152.33 128.51
  C 147.50 145.94 133.24 153.90 115.75 153.96
  Q 90.86 154.05 64.25 153.97
  C 52.44 153.93 40.59 150.03 33.33 140.24
  C 26.68 131.27 25.58 119.54 26.08 108.53"
/>
<path stroke="#91989b" vector-effect="non-scaling-stroke" d="
  M 137.02 56.41
  A 1.29 1.25 65.3 0 0 137.71 54.45
  Q 137.13 53.61 135.77 53.21
  C 120.78 48.79 105.11 47.49 89.81 49.13
  C 73.96 50.82 55.95 57.44 49.74 73.66
  C 47.83 78.65 47.69 84.16 53.56 86.13
  C 58.48 87.78 63.37 89.95 66.71 86.68
  Q 67.72 85.69 69.54 80.72
  Q 73.47 70.03 83.93 63.84
  C 99.56 54.59 118.05 55.18 135.75 56.56
  Q 136.29 56.60 137.02 56.41"
/>
<path stroke="#91989b" vector-effect="non-scaling-stroke" d="
  M 133.15 66.21
  A 1.30 1.29 -83.6 0 0 132.07 64.85
  C 115.70 62.10 93.58 62.72 81.68 75.40
  C 79.03 78.22 72.18 90.21 79.89 91.62
  C 83.09 92.20 89.14 93.66 90.40 90.61
  Q 92.99 84.34 94.45 81.92
  C 102.16 69.11 116.73 67.55 131.61 67.87
  A 1.50 1.50 0.0 0 0 133.14 66.46
  L 133.15 66.21"
/>
<path stroke="#91989b" vector-effect="non-scaling-stroke" d="
  M 124.55 78.89
  A 1.13 1.12 -81.2 0 0 123.52 77.48
  C 113.26 76.96 103.00 79.48 99.02 89.26
  Q 98.16 91.38 98.14 93.09
  A 1.77 1.76 9.0 0 0 99.39 94.80
  Q 101.85 95.55 103.81 95.07
  A 2.30 2.29 -87.9 0 0 105.47 93.52
  C 107.91 85.71 114.03 79.85 122.76 80.25
  A 1.74 1.74 0.0 0 0 124.53 78.96
  L 124.55 78.89"
/>
<path stroke="#91989b" vector-effect="non-scaling-stroke" d="
  M 87.10 129.65
  Q 86.85 129.19 86.39 129.15
  Q 82.72 128.79 80.30 127.24
  Q 67.29 118.93 66.69 104.09
  C 66.58 101.43 65.53 99.25 63.30 98.28
  Q 58.68 96.27 53.03 95.56
  Q 47.70 94.90 47.44 99.96
  C 46.79 112.90 53.75 125.82 66.42 130.29
  C 71.12 131.95 82.46 134.30 86.83 131.33
  A 1.38 1.15 59.4 0 0 87.10 129.65"
/>
<path stroke="#91989b" vector-effect="non-scaling-stroke" d="
  M 102.77 121.33
  A 0.90 0.90 0.0 0 0 102.26 120.02
  C 95.15 117.81 90.71 111.51 89.87 104.27
  C 89.66 102.48 88.55 100.86 86.94 100.58
  Q 82.66 99.83 78.64 99.75
  A 2.28 2.28 0.0 0 0 76.35 101.71
  C 75.48 107.97 79.56 114.59 84.17 118.57
  Q 90.00 123.61 97.55 123.07
  C 99.41 122.94 101.76 123.05 102.77 121.33"
/>
<path stroke="#91989b" vector-effect="non-scaling-stroke" d="
  M 99.86 102.20
  A 1.89 1.89 0.0 0 0 98.02 104.53
  Q 99.49 110.61 104.82 112.63
  Q 107.28 113.56 109.46 112.96
  A 0.95 0.95 0.0 0 0 109.63 111.20
  C 107.55 110.14 105.85 108.13 105.42 105.76
  Q 105.10 103.98 104.86 103.30
  A 1.67 1.67 0.0 0 0 103.29 102.20
  L 99.86 102.20"
/>
</g>
<path fill="#fcfdfd" d="
  M 180.00 0.00
  L 180.00 83.75
  C 175.34 76.19 170.14 74.05 161.33 70.08
  Q 159.67 69.33 154.05 65.71
  C 154.50 42.28 140.80 26.33 116.70 26.09
  Q 96.01 25.88 64.27 26.05
  C 51.66 26.12 38.96 30.57 32.24 41.28
  Q 26.49 50.44 26.31 62.51
  Q 25.96 85.53 26.08 108.53
  L 0.00 109.37
  L 0.00 0.00
  L 180.00 0.00
  Z"
/>
<path fill="#263238" d="
  M 154.05 65.71
  Q 154.09 91.11 153.86 116.50
  Q 153.79 123.24 152.33 128.51
  C 147.50 145.94 133.24 153.90 115.75 153.96
  Q 90.86 154.05 64.25 153.97
  C 52.44 153.93 40.59 150.03 33.33 140.24
  C 26.68 131.27 25.58 119.54 26.08 108.53
  Q 25.96 85.53 26.31 62.51
  Q 26.49 50.44 32.24 41.28
  C 38.96 30.57 51.66 26.12 64.27 26.05
  Q 96.01 25.88 116.70 26.09
  C 140.80 26.33 154.50 42.28 154.05 65.71
  Z
  M 137.02 56.41
  A 1.29 1.25 65.3 0 0 137.71 54.45
  Q 137.13 53.61 135.77 53.21
  C 120.78 48.79 105.11 47.49 89.81 49.13
  C 73.96 50.82 55.95 57.44 49.74 73.66
  C 47.83 78.65 47.69 84.16 53.56 86.13
  C 58.48 87.78 63.37 89.95 66.71 86.68
  Q 67.72 85.69 69.54 80.72
  Q 73.47 70.03 83.93 63.84
  C 99.56 54.59 118.05 55.18 135.75 56.56
  Q 136.29 56.60 137.02 56.41
  Z
  M 133.15 66.21
  A 1.30 1.29 -83.6 0 0 132.07 64.85
  C 115.70 62.10 93.58 62.72 81.68 75.40
  C 79.03 78.22 72.18 90.21 79.89 91.62
  C 83.09 92.20 89.14 93.66 90.40 90.61
  Q 92.99 84.34 94.45 81.92
  C 102.16 69.11 116.73 67.55 131.61 67.87
  A 1.50 1.50 0.0 0 0 133.14 66.46
  L 133.15 66.21
  Z
  M 124.55 78.89
  A 1.13 1.12 -81.2 0 0 123.52 77.48
  C 113.26 76.96 103.00 79.48 99.02 89.26
  Q 98.16 91.38 98.14 93.09
  A 1.77 1.76 9.0 0 0 99.39 94.80
  Q 101.85 95.55 103.81 95.07
  A 2.30 2.29 -87.9 0 0 105.47 93.52
  C 107.91 85.71 114.03 79.85 122.76 80.25
  A 1.74 1.74 0.0 0 0 124.53 78.96
  L 124.55 78.89
  Z
  M 87.10 129.65
  Q 86.85 129.19 86.39 129.15
  Q 82.72 128.79 80.30 127.24
  Q 67.29 118.93 66.69 104.09
  C 66.58 101.43 65.53 99.25 63.30 98.28
  Q 58.68 96.27 53.03 95.56
  Q 47.70 94.90 47.44 99.96
  C 46.79 112.90 53.75 125.82 66.42 130.29
  C 71.12 131.95 82.46 134.30 86.83 131.33
  A 1.38 1.15 59.4 0 0 87.10 129.65
  Z
  M 102.77 121.33
  A 0.90 0.90 0.0 0 0 102.26 120.02
  C 95.15 117.81 90.71 111.51 89.87 104.27
  C 89.66 102.48 88.55 100.86 86.94 100.58
  Q 82.66 99.83 78.64 99.75
  A 2.28 2.28 0.0 0 0 76.35 101.71
  C 75.48 107.97 79.56 114.59 84.17 118.57
  Q 90.00 123.61 97.55 123.07
  C 99.41 122.94 101.76 123.05 102.77 121.33
  Z
  M 99.86 102.20
  A 1.89 1.89 0.0 0 0 98.02 104.53
  Q 99.49 110.61 104.82 112.63
  Q 107.28 113.56 109.46 112.96
  A 0.95 0.95 0.0 0 0 109.63 111.20
  C 107.55 110.14 105.85 108.13 105.42 105.76
  Q 105.10 103.98 104.86 103.30
  A 1.67 1.67 0.0 0 0 103.29 102.20
  L 99.86 102.20
  Z"
/>
<path fill="#fcfdfd" d="
  M 137.02 56.41
  Q 136.29 56.60 135.75 56.56
  C 118.05 55.18 99.56 54.59 83.93 63.84
  Q 73.47 70.03 69.54 80.72
  Q 67.72 85.69 66.71 86.68
  C 63.37 89.95 58.48 87.78 53.56 86.13
  C 47.69 84.16 47.83 78.65 49.74 73.66
  C 55.95 57.44 73.96 50.82 89.81 49.13
  C 105.11 47.49 120.78 48.79 135.77 53.21
  Q 137.13 53.61 137.71 54.45
  A 1.29 1.25 65.3 0 1 137.02 56.41
  Z"
/>
<path fill="#fcfdfd" d="
  M 133.15 66.21
  L 133.14 66.46
  A 1.50 1.50 0.0 0 1 131.61 67.87
  C 116.73 67.55 102.16 69.11 94.45 81.92
  Q 92.99 84.34 90.40 90.61
  C 89.14 93.66 83.09 92.20 79.89 91.62
  C 72.18 90.21 79.03 78.22 81.68 75.40
  C 93.58 62.72 115.70 62.10 132.07 64.85
  A 1.30 1.29 -83.6 0 1 133.15 66.21
  Z"
/>
<path fill="#eef1f3" d="
  M 180.00 83.75
  L 180.00 180.00
  L 0.00 180.00
  L 0.00 109.37
  L 26.08 108.53
  C 25.58 119.54 26.68 131.27 33.33 140.24
  C 40.59 150.03 52.44 153.93 64.25 153.97
  Q 90.86 154.05 115.75 153.96
  C 133.24 153.90 147.50 145.94 152.33 128.51
  Q 153.79 123.24 153.86 116.50
  Q 154.09 91.11 154.05 65.71
  Q 159.67 69.33 161.33 70.08
  C 170.14 74.05 175.34 76.19 180.00 83.75
  Z"
/>
<path fill="#fcfdfd" d="
  M 124.55 78.89
  L 124.53 78.96
  A 1.74 1.74 0.0 0 1 122.76 80.25
  C 114.03 79.85 107.91 85.71 105.47 93.52
  A 2.30 2.29 -87.9 0 1 103.81 95.07
  Q 101.85 95.55 99.39 94.80
  A 1.77 1.76 9.0 0 1 98.14 93.09
  Q 98.16 91.38 99.02 89.26
  C 103.00 79.48 113.26 76.96 123.52 77.48
  A 1.13 1.12 -81.2 0 1 124.55 78.89
  Z"
/>
<path fill="#fcfdfd" d="
  M 87.10 129.65
  A 1.38 1.15 59.4 0 1 86.83 131.33
  C 82.46 134.30 71.12 131.95 66.42 130.29
  C 53.75 125.82 46.79 112.90 47.44 99.96
  Q 47.70 94.90 53.03 95.56
  Q 58.68 96.27 63.30 98.28
  C 65.53 99.25 66.58 101.43 66.69 104.09
  Q 67.29 118.93 80.30 127.24
  Q 82.72 128.79 86.39 129.15
  Q 86.85 129.19 87.10 129.65
  Z"
/>
<path fill="#fcfdfd" d="
  M 102.77 121.33
  C 101.76 123.05 99.41 122.94 97.55 123.07
  Q 90.00 123.61 84.17 118.57
  C 79.56 114.59 75.48 107.97 76.35 101.71
  A 2.28 2.28 0.0 0 1 78.64 99.75
  Q 82.66 99.83 86.94 100.58
  C 88.55 100.86 89.66 102.48 89.87 104.27
  C 90.71 111.51 95.15 117.81 102.26 120.02
  A 0.90 0.90 0.0 0 1 102.77 121.33
  Z"
/>
<path fill="#fcfdfd" d="
  M 99.86 102.20
  L 103.29 102.20
  A 1.67 1.67 0.0 0 1 104.86 103.30
  Q 105.10 103.98 105.42 105.76
  C 105.85 108.13 107.55 110.14 109.63 111.20
  A 0.95 0.95 0.0 0 1 109.46 112.96
  Q 107.28 113.56 104.82 112.63
  Q 99.49 110.61 98.02 104.53
  A 1.89 1.89 0.0 0 1 99.86 102.20
  Z"
/>
</svg>