<?xml version="1.0" encoding="UTF-8" standalone="no"?>
<!DOCTYPE svg PUBLIC "-//W3C//DTD SVG 1.1//EN" "http://www.w3.org/Graphics/SVG/1.1/DTD/svg11.dtd">
<svg xmlns="http://www.w3.org/2000/svg" version="1.1" viewBox="0.00 0.00 180.00 180.00" width="128" height="128">
<g stroke-width="2.00" fill="none" stroke-linecap="butt">
<path stroke="#d0d1dc" vector-effect="non-scaling-stroke" d="
  M 55.38 131.27
  L 48.22 132.80
  A 0.53 0.53 0.0 0 0 48.26 133.85
  C 51.14 134.21 53.49 134.74 56.26 134.93
  Q 67.45 135.72 72.50 135.96
  Q 85.68 136.58 105.96 135.80
  C 108.32 135.71 110.62 135.13 113.06 134.93"
/>
<path stroke="#87868c" vector-effect="non-scaling-stroke" d="
  M 113.06 134.93
  L 124.47 134.00
  A 0.49 0.49 0.0 0 0 124.43 133.03
  L 123.33 133.03
  A 0.58 0.58 0.0 0 1 123.20 131.89
  Q 127.63 130.90 127.61 126.26
  Q 127.56 112.43 127.57 87.42
  A 0.34 0.34 0.0 0 1 128.08 87.12
  L 128.95 87.62
  A 1.08 1.08 0.0 0 0 130.57 86.75
  Q 131.25 75.26 122.32 69.05
  C 116.41 64.94 112.59 61.12 111.30 53.65
  A 0.26 0.26 0.0 0 1 111.54 53.35
  Q 115.47 53.05 116.27 49.56
  A 2.03 1.86 -42.5 0 0 116.30 49.22
  L 116.30 41.76
  A 2.16 2.07 34.3 0 0 116.12 40.91
  Q 114.91 38.24 112.05 37.71
  A 1.29 1.27 -7.5 0 1 111.14 37.02
  Q 104.16 22.93 88.32 23.93
  Q 75.10 24.77 69.44 37.02
  A 1.04 1.03 -82.1 0 1 68.68 37.60
  C 65.41 38.14 64.17 39.87 64.11 43.47
  Q 64.06 46.67 64.22 49.22
  Q 64.44 52.61 68.45 53.28
  A 0.70 0.70 0.0 0 1 69.02 54.11
  C 67.50 61.38 63.78 65.04 58.07 69.15
  Q 49.38 75.38 50.04 86.84
  A 1.14 1.14 0.0 0 0 51.85 87.69
  L 52.41 87.28
  A 0.38 0.38 0.0 0 1 53.02 87.59
  Q 52.92 107.04 52.94 125.25
  Q 52.94 129.22 55.38 131.27"
/>
<path stroke="#595869" vector-effect="non-scaling-stroke" d="
  M 113.06 134.93
  L 107.86 134.13
  A 1.05 1.05 0.0 0 1 107.11 133.61
  Q 106.18 131.98 104.03 132.00
  Q 94.31 132.08 74.52 131.91
  A 0.93 0.92 11.6 0 0 73.67 132.47
  Q 73.35 133.20 73.34 133.23
  Q 73.16 133.62 72.06 133.88
  C 66.71 135.17 62.44 134.48 55.95 133.77
  A 0.11 0.11 0.0 0 1 55.85 133.66
  L 55.85 133.42
  A 0.08 0.08 0.0 0 1 55.92 133.34
  Q 57.11 133.24 57.59 132.66
  A 0.55 0.55 0.0 0 0 57.39 131.80
  Q 56.10 131.24 55.38 131.27"
/>
<path stroke="#624b88" vector-effect="non-scaling-stroke" d="
  M 71.84 37.36
  Q 71.85 38.05 71.58 38.79
  A 1.03 1.02 -84.1 0 1 70.77 39.45
  L 68.17 39.87
  A 2.14 2.14 0.0 0 0 66.39 41.73
  Q 66.13 43.96 66.32 48.71
  C 66.39 50.50 67.52 51.06 69.13 51.18
  A 0.90 0.89 -82.9 0 0 70.07 50.44
  L 71.40 42.37
  A 1.83 1.83 0.0 0 1 73.51 40.86
  L 80.18 41.95"
/>
<path stroke="#4e3778" vector-effect="non-scaling-stroke" d="
  M 80.18 41.95
  Q 93.89 43.85 106.85 40.86
  A 1.88 1.88 0.0 0 1 109.13 42.39
  L 110.38 50.14
  A 1.18 1.18 0.0 0 0 111.73 51.11
  L 112.61 50.97
  A 1.97 1.96 -5.3 0 0 114.26 49.00
  Q 114.20 45.16 114.28 43.68
  C 114.46 40.50 113.01 39.91 110.09 39.49
  A 1.24 1.24 0.0 0 1 109.08 38.66
  Q 105.75 28.71 96.14 26.88"
/>
<path stroke="#624b88" vector-effect="non-scaling-stroke" d="
  M 96.14 26.88
  Q 92.30 25.66 91.32 26.19"
/>
<path stroke="#80788b" vector-effect="non-scaling-stroke" d="
  M 91.32 26.19
  Q 80.40 25.55 74.01 33.51
  Q 72.67 35.17 71.84 37.36"
/>
<path stroke="#d2b5fa" vector-effect="non-scaling-stroke" d="
  M 91.32 26.19
  Q 79.58 28.11 75.10 37.24
  A 1.10 1.10 0.0 0 1 74.37 37.82
  Q 73.23 38.09 71.84 37.36"
/>
<path stroke="#a075e7" vector-effect="non-scaling-stroke" d="
  M 96.14 26.88
  Q 87.30 31.40 85.39 39.30
  Q 85.03 40.76 84.48 40.89
  Q 83.52 41.11 82.52 40.92
  A 1.28 1.26 -55.2 0 0 81.62 41.09
  L 80.18 41.95"
/>
<path stroke="#211e2f" vector-effect="non-scaling-stroke" d="
  M 67.22 64.51
  L 56.69 72.71"
/>
<path stroke="#38384b" vector-effect="non-scaling-stroke" d="
  M 56.69 72.71
  Q 52.85 77.41 52.38 82.88
  A 0.23 0.23 0.0 0 0 52.80 83.04
  L 54.07 81.27"
/>
<path stroke="#211e2f" vector-effect="non-scaling-stroke" d="
  M 54.07 81.27
  L 61.35 76.80
  A 3.18 3.14 2.0 0 0 62.26 75.96
  Q 62.98 74.96 63.11 74.24
  A 0.91 0.91 0.0 0 1 64.00 73.50
  L 67.87 73.50
  A 0.47 0.47 0.0 0 1 68.24 74.27
  Q 66.81 76.07 66.33 77.88
  A 0.64 0.64 0.0 0 0 66.95 78.68
  L 113.22 78.68
  A 0.72 0.72 0.0 0 0 113.89 77.69
  L 112.86 75.12
  A 1.31 1.27 89.0 0 0 112.15 74.41
  L 108.43 72.91
  A 0.36 0.36 0.0 0 1 108.62 72.22
  L 115.18 73.30
  A 0.46 0.46 0.0 0 0 115.55 72.50
  C 113.29 70.62 111.63 68.80 112.36 65.98
  A 0.42 0.42 0.0 0 1 113.01 65.75
  Q 114.46 66.80 115.02 66.64
  A 0.38 0.38 0.0 0 0 115.20 66.02
  L 112.56 63.11
  A 3.21 3.07 -78.2 0 1 111.98 62.18
  Q 109.15 55.19 108.07 47.19
  Q 107.90 45.90 107.04 43.38
  A 0.54 0.54 0.0 0 0 105.99 43.62
  Q 106.77 50.48 101.80 54.01
  A 1.71 1.71 0.0 0 0 101.13 55.00
  Q 99.03 63.78 91.32 67.64
  A 2.36 2.34 -43.4 0 1 89.10 67.59
  Q 81.83 63.49 79.67 55.71
  A 4.02 3.98 14.1 0 0 78.53 53.83
  L 75.40 50.91"
/>
<path stroke="#47475b" vector-effect="non-scaling-stroke" d="
  M 75.40 50.91
  Q 73.66 47.23 74.17 43.18
  A 0.21 0.21 0.0 0 0 73.99 42.94
  L 73.98 42.94
  A 0.22 0.21 7.9 0 0 73.73 43.12
  Q 72.31 51.81 69.33 60.10
  Q 68.68 61.91 67.22 64.51"
/>
<path stroke="#595871" vector-effect="non-scaling-stroke" d="
  M 75.40 50.91
  Q 77.34 61.21 70.79 69.08
  A 0.10 0.10 0.0 0 1 70.67 69.11
  L 70.44 69.02
  A 0.29 0.29 0.0 0 1 70.30 68.60
  Q 72.34 65.14 72.65 61.27
  A 0.29 0.29 0.0 0 0 72.13 61.08
  Q 69.81 64.34 67.22 64.51"
/>
<path stroke="#4a4961" vector-effect="non-scaling-stroke" d="
  M 54.07 81.27
  Q 55.95 77.82 59.48 75.98
  C 60.72 75.33 61.39 74.50 61.32 73.02
  A 1.18 1.18 0.0 0 0 59.86 71.94
  L 56.69 72.71"
/>
<path stroke="#4e3778" vector-effect="non-scaling-stroke" d="
  M 77.5972 44.2482
  A 3.85 3.37 -134.8 0 0 77.9187 49.3546
  A 3.85 3.37 -134.8 0 0 83.0228 49.7118
  A 3.85 3.37 -134.8 0 0 82.7013 44.6054
  A 3.85 3.37 -134.8 0 0 77.5972 44.2482"
/>
<path stroke="#4e3778" vector-effect="non-scaling-stroke" d="
  M 102.8209 44.2190
  A 3.80 3.36 -46.6 0 0 97.7687 44.6714
  A 3.80 3.36 -46.6 0 0 97.5991 49.7410
  A 3.80 3.36 -46.6 0 0 102.6513 49.2886
  A 3.80 3.36 -46.6 0 0 102.8209 44.2190"
/>
<path stroke="#826c34" vector-effect="non-scaling-stroke" d="
  M 89.71 62.82
  Q 89.88 63.19 90.16 63.25
  Q 90.38 63.31 90.74 63.04
  Q 94.35 60.42 97.42 56.00
  A 2.41 2.40 -38.9 0 0 97.67 53.71
  Q 96.07 49.85 91.73 46.82"
/>
<path stroke="#87805f" vector-effect="non-scaling-stroke" d="
  M 91.73 46.82
  Q 85.54 47.14 82.79 53.87
  A 1.52 1.50 -47.7 0 0 82.84 55.12
  Q 85.28 59.84 89.71 62.82"
/>
<path stroke="#f9de79" vector-effect="non-scaling-stroke" d="
  M 91.73 46.82
  L 90.01 62.34
  A 0.47 0.45 72.4 0 1 89.88 62.61
  Q 89.79 62.71 89.71 62.82"
/>
<path stroke="#211e2f" vector-effect="non-scaling-stroke" d="
  M 128.46 83.30
  Q 127.90 75.30 121.43 70.66
  A 2.27 2.27 0.0 0 0 118.02 71.59
  L 117.88 71.91
  A 3.58 3.58 0.0 0 0 119.23 76.37
  L 125.15 80.14
  A 2.37 2.21 0.5 0 1 125.77 80.73
  L 127.79 83.55
  A 0.37 0.37 0.0 0 0 128.46 83.30"
/>
<path stroke="#47475b" vector-effect="non-scaling-stroke" d="
  M 55.19 121.72
  Q 55.37 122.11 55.22 122.54"
/>
<path stroke="#38384b" vector-effect="non-scaling-stroke" d="
  M 55.22 122.54
  C 54.74 125.49 54.47 129.83 58.25 129.96
  Q 61.31 130.06 69.03 129.88"
/>
<path stroke="#211e2f" vector-effect="non-scaling-stroke" d="
  M 69.03 129.88
  Q 95.18 130.04 121.50 130.11
  Q 125.70 130.12 125.55 126.02
  Q 125.45 123.49 125.44 121.76"
/>
<path stroke="#38384b" vector-effect="non-scaling-stroke" d="
  M 125.44 121.76
  Q 125.52 102.50 125.39 84.00
  Q 125.38 82.72 123.82 81.99"
/>
<path stroke="#47475b" vector-effect="non-scaling-stroke" d="
  M 123.82 81.99
  Q 122.86 81.02 121.50 81.01
  Q 90.70 80.89 60.01 80.97"
/>
<path stroke="#595869" vector-effect="non-scaling-stroke" d="
  M 60.01 80.97
  C 56.21 80.86 55.30 82.82 55.24 86.40
  Q 54.97 104.09 55.19 121.72"
/>
<path stroke="#9192ab" vector-effect="non-scaling-stroke" d="
  M 60.01 80.97
  Q 59.53 82.38 58.14 82.70
  Q 57.03 82.96 57.08 84.15
  Q 57.83 102.85 56.88 121.44
  A 0.61 0.61 0.0 0 1 56.26 122.02
  Q 55.80 122.01 55.19 121.72"
/>
<path stroke="#70728d" vector-effect="non-scaling-stroke" d="
  M 123.82 81.99
  Q 119.62 82.11 116.18 83.84"
/>
<path stroke="#47475b" vector-effect="non-scaling-stroke" d="
  M 116.18 83.84
  Q 90.50 83.83 64.74 83.68
  Q 59.06 83.65 58.93 89.27
  Q 58.79 94.92 58.93 115.49
  C 58.96 119.49 61.61 120.41 65.37 120.46
  Q 69.09 120.50 72.76 120.49"
/>
<path stroke="#70728d" vector-effect="non-scaling-stroke" d="
  M 72.76 120.49
  Q 74.41 121.18 74.30 122.27
  A 0.66 0.65 2.5 0 1 73.66 122.85
  L 63.47 122.90"
/>
<path stroke="#595871" vector-effect="non-scaling-stroke" d="
  M 63.47 122.90
  L 56.56 122.25"
/>
<path stroke="#70728d" vector-effect="non-scaling-stroke" d="
  M 56.56 122.25
  L 55.22 122.54"
/>
<path stroke="#4a4961" vector-effect="non-scaling-stroke" d="
  M 69.03 129.88
  L 58.44 128.77
  A 1.73 1.72 1.2 0 1 56.89 127.16
  L 56.56 122.25"
/>
<path stroke="#4a4961" vector-effect="non-scaling-stroke" d="
  M 125.44 121.76
  Q 119.31 122.37 103.94 122.70
  Q 76.72 123.29 63.47 122.90"
/>
<path stroke="#38384b" vector-effect="non-scaling-stroke" d="
  M 72.76 120.49
  Q 93.95 120.49 115.08 120.46
  C 118.83 120.46 121.86 119.85 121.97 115.72
  Q 122.13 109.90 122.04 88.74
  Q 122.02 83.65 116.18 83.84"
/>
<path stroke="#2c4374" vector-effect="non-scaling-stroke" d="
  M 61.12 99.27
  L 61.01 115.04"
/>
<path stroke="#1b2752" vector-effect="non-scaling-stroke" d="
  M 61.01 115.04
  C 60.52 118.42 63.18 118.75 65.70 118.39"
/>
<path stroke="#171f43" vector-effect="non-scaling-stroke" d="
  M 65.70 118.39
  L 88.27 118.46"
/>
<path stroke="#141939" vector-effect="non-scaling-stroke" d="
  M 88.27 118.46
  L 117.02 118.51"
/>
<path stroke="#171f43" vector-effect="non-scaling-stroke" d="
  M 117.02 118.51
  Q 119.93 118.30 119.91 115.87
  Q 119.79 102.02 119.93 88.15
  Q 119.93 87.28 119.27 86.94"
/>
<path stroke="#213060" vector-effect="non-scaling-stroke" d="
  M 119.27 86.94
  Q 118.58 86.03 117.25 86.02
  Q 104.27 85.86 91.30 85.98"
/>
<path stroke="#2c4374" vector-effect="non-scaling-stroke" d="
  M 91.30 85.98
  L 78.95 85.98"
/>
<path stroke="#3a5780" vector-effect="non-scaling-stroke" d="
  M 78.95 85.98
  Q 71.59 85.88 64.19 85.99
  C 62.28 86.02 61.06 86.47 60.95 88.50
  Q 60.70 93.54 61.12 99.27"
/>
<path stroke="#568ddb" vector-effect="non-scaling-stroke" d="
  M 78.95 85.98
  Q 79.33 86.92 78.98 87.44
  A 0.14 0.13 -72.6 0 1 78.87 87.50
  L 64.33 88.31
  A 1.01 1.01 0.0 0 0 63.38 89.41
  Q 63.89 95.30 61.12 99.27"
/>
<path stroke="#3e66bb" vector-effect="non-scaling-stroke" d="
  M 91.30 85.98
  L 90.61 87.59"
/>
<path stroke="#426fc5" vector-effect="non-scaling-stroke" d="
  M 90.61 87.59
  L 81.18 87.97
  A 1.12 1.07 28.0 0 0 80.68 88.11
  L 70.81 93.48"
/>
<path stroke="#73b6c9" vector-effect="non-scaling-stroke" d="
  M 70.81 93.48
  L 67.42 91.01
  A 0.87 0.87 0.0 0 0 66.04 91.75
  Q 66.09 93.02 68.05 94.11"
/>
<path stroke="#426fc5" vector-effect="non-scaling-stroke" d="
  M 68.05 94.11
  Q 62.72 98.09 63.10 105.52"
/>
<path stroke="#3e66bb" vector-effect="non-scaling-stroke" d="
  M 63.10 105.52
  L 63.05 113.21"
/>
<path stroke="#385dad" vector-effect="non-scaling-stroke" d="
  M 63.05 113.21
  L 62.58 114.93
  A 0.64 0.63 -89.1 0 1 62.13 115.37
  Q 61.55 115.52 61.01 115.04"
/>
<path stroke="#6dacbf" vector-effect="non-scaling-stroke" d="
  M 68.05 94.11
  L 69.27 95.13
  A 0.61 0.61 0.0 0 1 69.18 96.13
  L 66.44 97.72
  A 0.76 0.76 0.0 0 0 66.16 98.75
  L 66.36 99.09
  A 0.62 0.61 59.9 0 0 67.20 99.32
  L 72.36 96.34
  A 0.94 0.93 49.3 0 0 72.47 94.80
  L 70.81 93.48"
/>
<path stroke="#29418a" vector-effect="non-scaling-stroke" d="
  M 119.27 86.94
  Q 117.07 87.72 114.77 87.57"
/>
<path stroke="#2d4a98" vector-effect="non-scaling-stroke" d="
  M 114.77 87.57
  L 98.52 87.73
  A 3.29 3.28 24.4 0 0 96.41 88.52
  C 92.26 92.12 89.68 94.97 85.01 97.90
  Q 77.24 102.77 66.53 110.30
  Q 64.64 111.62 63.05 113.21"
/>
<path stroke="#385bb1" vector-effect="non-scaling-stroke" d="
  M 63.10 105.52
  L 72.59 99.92
  A 1.92 1.88 -60.9 0 1 73.47 99.66
  L 78.78 99.36
  A 0.65 0.65 0.0 0 0 79.37 98.91
  L 79.58 98.29
  A 0.77 0.72 -11.5 0 1 79.85 97.91
  Q 83.54 94.98 87.04 92.09
  Q 89.80 89.81 90.61 87.59"
/>
<path stroke="#1c2a63" vector-effect="non-scaling-stroke" d="
  M 117.02 118.51
  C 118.57 112.46 118.10 106.01 117.78 99.89
  A 0.31 0.31 0.0 0 0 117.32 99.63
  Q 102.26 108.12 88.27 118.46"
/>
<path stroke="#23397c" vector-effect="non-scaling-stroke" d="
  M 65.70 118.39
  Q 91.66 105.10 114.77 87.57"
/>
</g>
<path fill="#fefefe" d="
  M 180.00 0.00
  L 180.00 180.00
  L 0.00 180.00
  L 0.00 0.00
  L 180.00 0.00
  Z
  M 55.38 131.27
  L 48.22 132.80
  A 0.53 0.53 0.0 0 0 48.26 133.85
  C 51.14 134.21 53.49 134.74 56.26 134.93
  Q 67.45 135.72 72.50 135.96
  Q 85.68 136.58 105.96 135.80
  C 108.32 135.71 110.62 135.13 113.06 134.93
  L 124.47 134.00
  A 0.49 0.49 0.0 0 0 124.43 133.03
  L 123.33 133.03
  A 0.58 0.58 0.0 0 1 123.20 131.89
  Q 127.63 130.90 127.61 126.26
  Q 127.56 112.43 127.57 87.42
  A 0.34 0.34 0.0 0 1 128.08 87.12
  L 128.95 87.62
  A 1.08 1.08 0.0 0 0 130.57 86.75
  Q 131.25 75.26 122.32 69.05
  C 116.41 64.94 112.59 61.12 111.30 53.65
  A 0.26 0.26 0.0 0 1 111.54 53.35
  Q 115.47 53.05 116.27 49.56
  A 2.03 1.86 -42.5 0 0 116.30 49.22
  L 116.30 41.76
  A 2.16 2.07 34.3 0 0 116.12 40.91
  Q 114.91 38.24 112.05 37.71
  A 1.29 1.27 -7.5 0 1 111.14 37.02
  Q 104.16 22.93 88.32 23.93
  Q 75.10 24.77 69.44 37.02
  A 1.04 1.03 -82.1 0 1 68.68 37.60
  C 65.41 38.14 64.17 39.87 64.11 43.47
  Q 64.06 46.67 64.22 49.22
  Q 64.44 52.61 68.45 53.28
  A 0.70 0.70 0.0 0 1 69.02 54.11
  C 67.50 61.38 63.78 65.04 58.07 69.15
  Q 49.38 75.38 50.04 86.84
  A 1.14 1.14 0.0 0 0 51.85 87.69
  L 52.41 87.28
  A 0.38 0.38 0.0 0 1 53.02 87.59
  Q 52.92 107.04 52.94 125.25
  Q 52.94 129.22 55.38 131.27
  Z"
/>
<path fill="#0f0d19" d="
  M 113.06 134.93
  L 107.86 134.13
  A 1.05 1.05 0.0 0 1 107.11 133.61
  Q 106.18 131.98 104.03 132.00
  Q 94.31 132.08 74.52 131.91
  A 0.93 0.92 11.6 0 0 73.67 132.47
  Q 73.35 133.20 73.34 133.23
  Q 73.16 133.62 72.06 133.88
  C 66.71 135.17 62.44 134.48 55.95 133.77
  A 0.11 0.11 0.0 0 1 55.85 133.66
  L 55.85 133.42
  A 0.08 0.08 0.0 0 1 55.92 133.34
  Q 57.11 133.24 57.59 132.66
  A 0.55 0.55 0.0 0 0 57.39 131.80
  Q 56.10 131.24 55.38 131.27
  Q 52.94 129.22 52.94 125.25
  Q 52.92 107.04 53.02 87.59
  A 0.38 0.38 0.0 0 0 52.41 87.28
  L 51.85 87.69
  A 1.14 1.14 0.0 0 1 50.04 86.84
  Q 49.38 75.38 58.07 69.15
  C 63.78 65.04 67.50 61.38 69.02 54.11
  A 0.70 0.70 0.0 0 0 68.45 53.28
  Q 64.44 52.61 64.22 49.22
  Q 64.06 46.67 64.11 43.47
  C 64.17 39.87 65.41 38.14 68.68 37.60
  A 1.04 1.03 -82.1 0 0 69.44 37.02
  Q 75.10 24.77 88.32 23.93
  Q 104.16 22.93 111.14 37.02
  A 1.29 1.27 -7.5 0 0 112.05 37.71
  Q 114.91 38.24 116.12 40.91
  A 2.16 2.07 34.3 0 1 116.30 41.76
  L 116.30 49.22
  A 2.03 1.86 -42.5 0 1 116.27 49.56
  Q 115.47 53.05 111.54 53.35
  A 0.26 0.26 0.0 0 0 111.30 53.65
  C 112.59 61.12 116.41 64.94 122.32 69.05
  Q 131.25 75.26 130.57 86.75
  A 1.08 1.08 0.0 0 1 128.95 87.62
  L 128.08 87.12
  A 0.34 0.34 0.0 0 0 127.57 87.42
  Q 127.56 112.43 127.61 126.26
  Q 127.63 130.90 123.20 131.89
  A 0.58 0.58 0.0 0 0 123.33 133.03
  L 124.43 133.03
  A 0.49 0.49 0.0 0 1 124.47 134.00
  L 113.06 134.93
  Z
  M 71.84 37.36
  Q 71.85 38.05 71.58 38.79
  A 1.03 1.02 -84.1 0 1 70.77 39.45
  L 68.17 39.87
  A 2.14 2.14 0.0 0 0 66.39 41.73
  Q 66.13 43.96 66.32 48.71
  C 66.39 50.50 67.52 51.06 69.13 51.18
  A 0.90 0.89 -82.9 0 0 70.07 50.44
  L 71.40 42.37
  A 1.83 1.83 0.0 0 1 73.51 40.86
  L 80.18 41.95
  Q 93.89 43.85 106.85 40.86
  A 1.88 1.88 0.0 0 1 109.13 42.39
  L 110.38 50.14
  A 1.18 1.18 0.0 0 0 111.73 51.11
  L 112.61 50.97
  A 1.97 1.96 -5.3 0 0 114.26 49.00
  Q 114.20 45.16 114.28 43.68
  C 114.46 40.50 113.01 39.91 110.09 39.49
  A 1.24 1.24 0.0 0 1 109.08 38.66
  Q 105.75 28.71 96.14 26.88
  Q 92.30 25.66 91.32 26.19
  Q 80.40 25.55 74.01 33.51
  Q 72.67 35.17 71.84 37.36
  Z
  M 67.22 64.51
  L 56.69 72.71
  Q 52.85 77.41 52.38 82.88
  A 0.23 0.23 0.0 0 0 52.80 83.04
  L 54.07 81.27
  L 61.35 76.80
  A 3.18 3.14 2.0 0 0 62.26 75.96
  Q 62.98 74.96 63.11 74.24
  A 0.91 0.91 0.0 0 1 64.00 73.50
  L 67.87 73.50
  A 0.47 0.47 0.0 0 1 68.24 74.27
  Q 66.81 76.07 66.33 77.88
  A 0.64 0.64 0.0 0 0 66.95 78.68
  L 113.22 78.68
  A 0.72 0.72 0.0 0 0 113.89 77.69
  L 112.86 75.12
  A 1.31 1.27 89.0 0 0 112.15 74.41
  L 108.43 72.91
  A 0.36 0.36 0.0 0 1 108.62 72.22
  L 115.18 73.30
  A 0.46 0.46 0.0 0 0 115.55 72.50
  C 113.29 70.62 111.63 68.80 112.36 65.98
  A 0.42 0.42 0.0 0 1 113.01 65.75
  Q 114.46 66.80 115.02 66.64
  A 0.38 0.38 0.0 0 0 115.20 66.02
  L 112.56 63.11
  A 3.21 3.07 -78.2 0 1 111.98 62.18
  Q 109.15 55.19 108.07 47.19
  Q 107.90 45.90 107.04 43.38
  A 0.54 0.54 0.0 0 0 105.99 43.62
  Q 106.77 50.48 101.80 54.01
  A 1.71 1.71 0.0 0 0 101.13 55.00
  Q 99.03 63.78 91.32 67.64
  A 2.36 2.34 -43.4 0 1 89.10 67.59
  Q 81.83 63.49 79.67 55.71
  A 4.02 3.98 14.1 0 0 78.53 53.83
  L 75.40 50.91
  Q 73.66 47.23 74.17 43.18
  A 0.21 0.21 0.0 0 0 73.99 42.94
  L 73.98 42.94
  A 0.22 0.21 7.9 0 0 73.73 43.12
  Q 72.31 51.81 69.33 60.10
  Q 68.68 61.91 67.22 64.51
  Z
  M 77.5972 44.2482
  A 3.85 3.37 -134.8 0 0 77.9187 49.3546
  A 3.85 3.37 -134.8 0 0 83.0228 49.7118
  A 3.85 3.37 -134.8 0 0 82.7013 44.6054
  A 3.85 3.37 -134.8 0 0 77.5972 44.2482
  Z
  M 102.8209 44.2190
  A 3.80 3.36 -46.6 0 0 97.7687 44.6714
  A 3.80 3.36 -46.6 0 0 97.5991 49.7410
  A 3.80 3.36 -46.6 0 0 102.6513 49.2886
  A 3.80 3.36 -46.6 0 0 102.8209 44.2190
  Z
  M 89.71 62.82
  Q 89.88 63.19 90.16 63.25
  Q 90.38 63.31 90.74 63.04
  Q 94.35 60.42 97.42 56.00
  A 2.41 2.40 -38.9 0 0 97.67 53.71
  Q 96.07 49.85 91.73 46.82
  Q 85.54 47.14 82.79 53.87
  A 1.52 1.50 -47.7 0 0 82.84 55.12
  Q 85.28 59.84 89.71 62.82
  Z
  M 128.46 83.30
  Q 127.90 75.30 121.43 70.66
  A 2.27 2.27 0.0 0 0 118.02 71.59
  L 117.88 71.91
  A 3.58 3.58 0.0 0 0 119.23 76.37
  L 125.15 80.14
  A 2.37 2.21 0.5 0 1 125.77 80.73
  L 127.79 83.55
  A 0.37 0.37 0.0 0 0 128.46 83.30
  Z
  M 55.19 121.72
  Q 55.37 122.11 55.22 122.54
  C 54.74 125.49 54.47 129.83 58.25 129.96
  Q 61.31 130.06 69.03 129.88
  Q 95.18 130.04 121.50 130.11
  Q 125.70 130.12 125.55 126.02
  Q 125.45 123.49 125.44 121.76
  Q 125.52 102.50 125.39 84.00
  Q 125.38 82.72 123.82 81.99
  Q 122.86 81.02 121.50 81.01
  Q 90.70 80.89 60.01 80.97
  C 56.21 80.86 55.30 82.82 55.24 86.40
  Q 54.97 104.09 55.19 121.72
  Z"
/>
<path fill="#f0e2fc" d="
  M 91.32 26.19
  Q 79.58 28.11 75.10 37.24
  A 1.10 1.10 0.0 0 1 74.37 37.82
  Q 73.23 38.09 71.84 37.36
  Q 72.67 35.17 74.01 33.51
  Q 80.40 25.55 91.32 26.19
  Z"
/>
<path fill="#b488f7" d="
  M 96.14 26.88
  Q 87.30 31.40 85.39 39.30
  Q 85.03 40.76 84.48 40.89
  Q 83.52 41.11 82.52 40.92
  A 1.28 1.26 -55.2 0 0 81.62 41.09
  L 80.18 41.95
  L 73.51 40.86
  A 1.83 1.83 0.0 0 0 71.40 42.37
  L 70.07 50.44
  A 0.90 0.89 -82.9 0 1 69.13 51.18
  C 67.52 51.06 66.39 50.50 66.32 48.71
  Q 66.13 43.96 66.39 41.73
  A 2.14 2.14 0.0 0 1 68.17 39.87
  L 70.77 39.45
  A 1.03 1.02 -84.1 0 0 71.58 38.79
  Q 71.85 38.05 71.84 37.36
  Q 73.23 38.09 74.37 37.82
  A 1.10 1.10 0.0 0 0 75.10 37.24
  Q 79.58 28.11 91.32 26.19
  Q 92.30 25.66 96.14 26.88
  Z"
/>
<path fill="#8c61d6" d="
  M 80.18 41.95
  L 81.62 41.09
  A 1.28 1.26 -55.2 0 1 82.52 40.92
  Q 83.52 41.11 84.48 40.89
  Q 85.03 40.76 85.39 39.30
  Q 87.30 31.40 96.14 26.88
  Q 105.75 28.71 109.08 38.66
  A 1.24 1.24 0.0 0 0 110.09 39.49
  C 113.01 39.91 114.46 40.50 114.28 43.68
  Q 114.20 45.16 114.26 49.00
  A 1.97 1.96 -5.3 0 1 112.61 50.97
  L 111.73 51.11
  A 1.18 1.18 0.0 0 1 110.38 50.14
  L 109.13 42.39
  A 1.88 1.88 0.0 0 0 106.85 40.86
  Q 93.89 43.85 80.18 41.95
  Z"
/>
<path fill="#7f819d" d="
  M 75.40 50.91
  Q 77.34 61.21 70.79 69.08
  A 0.10 0.10 0.0 0 1 70.67 69.11
  L 70.44 69.02
  A 0.29 0.29 0.0 0 1 70.30 68.60
  Q 72.34 65.14 72.65 61.27
  A 0.29 0.29 0.0 0 0 72.13 61.08
  Q 69.81 64.34 67.22 64.51
  Q 68.68 61.91 69.33 60.10
  Q 72.31 51.81 73.73 43.12
  A 0.22 0.21 7.9 0 1 73.98 42.94
  L 73.99 42.94
  A 0.21 0.21 0.0 0 1 74.17 43.18
  Q 73.66 47.23 75.40 50.91
  Z"
/>
<path fill="#322f45" d="
  M 54.07 81.27
  Q 55.95 77.82 59.48 75.98
  C 60.72 75.33 61.39 74.50 61.32 73.02
  A 1.18 1.18 0.0 0 0 59.86 71.94
  L 56.69 72.71
  L 67.22 64.51
  Q 69.81 64.34 72.13 61.08
  A 0.29 0.29 0.0 0 1 72.65 61.27
  Q 72.34 65.14 70.30 68.60
  A 0.29 0.29 0.0 0 0 70.44 69.02
  L 70.67 69.11
  A 0.10 0.10 0.0 0 0 70.79 69.08
  Q 77.34 61.21 75.40 50.91
  L 78.53 53.83
  A 4.02 3.98 14.1 0 1 79.67 55.71
  Q 81.83 63.49 89.10 67.59
  A 2.36 2.34 -43.4 0 0 91.32 67.64
  Q 99.03 63.78 101.13 55.00
  A 1.71 1.71 0.0 0 1 101.80 54.01
  Q 106.77 50.48 105.99 43.62
  A 0.54 0.54 0.0 0 1 107.04 43.38
  Q 107.90 45.90 108.07 47.19
  Q 109.15 55.19 111.98 62.18
  A 3.21 3.07 -78.2 0 0 112.56 63.11
  L 115.20 66.02
  A 0.38 0.38 0.0 0 1 115.02 66.64
  Q 114.46 66.80 113.01 65.75
  A 0.42 0.42 0.0 0 0 112.36 65.98
  C 111.63 68.80 113.29 70.62 115.55 72.50
  A 0.46 0.46 0.0 0 1 115.18 73.30
  L 108.62 72.22
  A 0.36 0.36 0.0 0 0 108.43 72.91
  L 112.15 74.41
  A 1.31 1.27 89.0 0 1 112.86 75.12
  L 113.89 77.69
  A 0.72 0.72 0.0 0 1 113.22 78.68
  L 66.95 78.68
  A 0.64 0.64 0.0 0 1 66.33 77.88
  Q 66.81 76.07 68.24 74.27
  A 0.47 0.47 0.0 0 0 67.87 73.50
  L 64.00 73.50
  A 0.91 0.91 0.0 0 0 63.11 74.24
  Q 62.98 74.96 62.26 75.96
  A 3.18 3.14 2.0 0 1 61.35 76.80
  L 54.07 81.27
  Z"
/>
<ellipse fill="#8c61d6" cx="0.00" cy="0.00" transform="translate(80.31,46.98) rotate(-134.8)" rx="3.85" ry="3.37"/>
<ellipse fill="#8c61d6" cx="0.00" cy="0.00" transform="translate(100.21,46.98) rotate(-46.6)" rx="3.80" ry="3.36"/>
<path fill="#fef2a4" d="
  M 91.73 46.82
  L 90.01 62.34
  A 0.47 0.45 72.4 0 1 89.88 62.61
  Q 89.79 62.71 89.71 62.82
  Q 85.28 59.84 82.84 55.12
  A 1.52 1.50 -47.7 0 1 82.79 53.87
  Q 85.54 47.14 91.73 46.82
  Z"
/>
<path fill="#f4ca4e" d="
  M 89.71 62.82
  Q 89.79 62.71 89.88 62.61
  A 0.47 0.45 72.4 0 0 90.01 62.34
  L 91.73 46.82
  Q 96.07 49.85 97.67 53.71
  A 2.41 2.40 -38.9 0 1 97.42 56.00
  Q 94.35 60.42 90.74 63.04
  Q 90.38 63.31 90.16 63.25
  Q 89.88 63.19 89.71 62.82
  Z"
/>
<path fill="#322f45" d="
  M 127.79 83.55
  L 125.77 80.73
  A 2.37 2.21 0.5 0 0 125.15 80.14
  L 119.23 76.37
  A 3.58 3.58 0.0 0 1 117.88 71.91
  L 118.02 71.59
  A 2.27 2.27 0.0 0 1 121.43 70.66
  Q 127.90 75.30 128.46 83.30
  A 0.37 0.37 0.0 0 1 127.79 83.55
  Z"
/>
<path fill="#61627d" d="
  M 54.07 81.27
  L 52.80 83.04
  A 0.23 0.23 0.0 0 1 52.38 82.88
  Q 52.85 77.41 56.69 72.71
  L 59.86 71.94
  A 1.18 1.18 0.0 0 1 61.32 73.02
  C 61.39 74.50 60.72 75.33 59.48 75.98
  Q 55.95 77.82 54.07 81.27
  Z"
/>
<path fill="#a2a3b9" d="
  M 60.01 80.97
  Q 59.53 82.38 58.14 82.70
  Q 57.03 82.96 57.08 84.15
  Q 57.83 102.85 56.88 121.44
  A 0.61 0.61 0.0 0 1 56.26 122.02
  Q 55.80 122.01 55.19 121.72
  Q 54.97 104.09 55.24 86.40
  C 55.30 82.82 56.21 80.86 60.01 80.97
  Z"
/>
<path fill="#7f819d" d="
  M 123.82 81.99
  Q 119.62 82.11 116.18 83.84
  Q 90.50 83.83 64.74 83.68
  Q 59.06 83.65 58.93 89.27
  Q 58.79 94.92 58.93 115.49
  C 58.96 119.49 61.61 120.41 65.37 120.46
  Q 69.09 120.50 72.76 120.49
  Q 74.41 121.18 74.30 122.27
  A 0.66 0.65 2.5 0 1 73.66 122.85
  L 63.47 122.90
  L 56.56 122.25
  L 55.22 122.54
  Q 55.37 122.11 55.19 121.72
  Q 55.80 122.01 56.26 122.02
  A 0.61 0.61 0.0 0 0 56.88 121.44
  Q 57.83 102.85 57.08 84.15
  Q 57.03 82.96 58.14 82.70
  Q 59.53 82.38 60.01 80.97
  Q 90.70 80.89 121.50 81.01
  Q 122.86 81.02 123.82 81.99
  Z"
/>
<path fill="#61627d" d="
  M 125.44 121.76
  Q 119.31 122.37 103.94 122.70
  Q 76.72 123.29 63.47 122.90
  L 73.66 122.85
  A 0.66 0.65 2.5 0 0 74.30 122.27
  Q 74.41 121.18 72.76 120.49
  Q 93.95 120.49 115.08 120.46
  C 118.83 120.46 121.86 119.85 121.97 115.72
  Q 122.13 109.90 122.04 88.74
  Q 122.02 83.65 116.18 83.84
  Q 119.62 82.11 123.82 81.99
  Q 125.38 82.72 125.39 84.00
  Q 125.52 102.50 125.44 121.76
  Z"
/>
<path fill="#0f0d19" d="
  M 116.18 83.84
  Q 122.02 83.65 122.04 88.74
  Q 122.13 109.90 121.97 115.72
  C 121.86 119.85 118.83 120.46 115.08 120.46
  Q 93.95 120.49 72.76 120.49
  Q 69.09 120.50 65.37 120.46
  C 61.61 120.41 58.96 119.49 58.93 115.49
  Q 58.79 94.92 58.93 89.27
  Q 59.06 83.65 64.74 83.68
  Q 90.50 83.83 116.18 83.84
  Z
  M 61.12 99.27
  L 61.01 115.04
  C 60.52 118.42 63.18 118.75 65.70 118.39
  L 88.27 118.46
  L 117.02 118.51
  Q 119.93 118.30 119.91 115.87
  Q 119.79 102.02 119.93 88.15
  Q 119.93 87.28 119.27 86.94
  Q 118.58 86.03 117.25 86.02
  Q 104.27 85.86 91.30 85.98
  L 78.95 85.98
  Q 71.59 85.88 64.19 85.99
  C 62.28 86.02 61.06 86.47 60.95 88.50
  Q 60.70 93.54 61.12 99.27
  Z"
/>
<path fill="#64a0e6" d="
  M 78.95 85.98
  Q 79.33 86.92 78.98 87.44
  A 0.14 0.13 -72.6 0 1 78.87 87.50
  L 64.33 88.31
  A 1.01 1.01 0.0 0 0 63.38 89.41
  Q 63.89 95.30 61.12 99.27
  Q 60.70 93.54 60.95 88.50
  C 61.06 86.47 62.28 86.02 64.19 85.99
  Q 71.59 85.88 78.95 85.98
  Z"
/>
<path fill="#4879cf" d="
  M 91.30 85.98
  L 90.61 87.59
  L 81.18 87.97
  A 1.12 1.07 28.0 0 0 80.68 88.11
  L 70.81 93.48
  L 67.42 91.01
  A 0.87 0.87 0.0 0 0 66.04 91.75
  Q 66.09 93.02 68.05 94.11
  Q 62.72 98.09 63.10 105.52
  L 63.05 113.21
  L 62.58 114.93
  A 0.64 0.63 -89.1 0 1 62.13 115.37
  Q 61.55 115.52 61.01 115.04
  L 61.12 99.27
  Q 63.89 95.30 63.38 89.41
  A 1.01 1.01 0.0 0 1 64.33 88.31
  L 78.87 87.50
  A 0.14 0.13 -72.6 0 0 78.98 87.44
  Q 79.33 86.92 78.95 85.98
  L 91.30 85.98
  Z"
/>
<path fill="#3352a6" d="
  M 119.27 86.94
  Q 117.07 87.72 114.77 87.57
  L 98.52 87.73
  A 3.29 3.28 24.4 0 0 96.41 88.52
  C 92.26 92.12 89.68 94.97 85.01 97.90
  Q 77.24 102.77 66.53 110.30
  Q 64.64 111.62 63.05 113.21
  L 63.10 105.52
  L 72.59 99.92
  A 1.92 1.88 -60.9 0 1 73.47 99.66
  L 78.78 99.36
  A 0.65 0.65 0.0 0 0 79.37 98.91
  L 79.58 98.29
  A 0.77 0.72 -11.5 0 1 79.85 97.91
  Q 83.54 94.98 87.04 92.09
  Q 89.80 89.81 90.61 87.59
  L 91.30 85.98
  Q 104.27 85.86 117.25 86.02
  Q 118.58 86.03 119.27 86.94
  Z"
/>
<path fill="#1f306d" d="
  M 117.02 118.51
  C 118.57 112.46 118.10 106.01 117.78 99.89
  A 0.31 0.31 0.0 0 0 117.32 99.63
  Q 102.26 108.12 88.27 118.46
  L 65.70 118.39
  Q 91.66 105.10 114.77 87.57
  Q 117.07 87.72 119.27 86.94
  Q 119.93 87.28 119.93 88.15
  Q 119.79 102.02 119.91 115.87
  Q 119.93 118.30 117.02 118.51
  Z"
/>
<path fill="#3c64bb" d="
  M 90.61 87.59
  Q 89.80 89.81 87.04 92.09
  Q 83.54 94.98 79.85 97.91
  A 0.77 0.72 -11.5 0 0 79.58 98.29
  L 79.37 98.91
  A 0.65 0.65 0.0 0 1 78.78 99.36
  L 73.47 99.66
  A 1.92 1.88 -60.9 0 0 72.59 99.92
  L 63.10 105.52
  Q 62.72 98.09 68.05 94.11
  L 69.27 95.13
  A 0.61 0.61 0.0 0 1 69.18 96.13
  L 66.44 97.72
  A 0.76 0.76 0.0 0 0 66.16 98.75
  L 66.36 99.09
  A 0.62 0.61 59.9 0 0 67.20 99.32
  L 72.36 96.34
  A 0.94 0.93 49.3 0 0 72.47 94.80
  L 70.81 93.48
  L 80.68 88.11
  A 1.12 1.07 28.0 0 1 81.18 87.97
  L 90.61 87.59
  Z"
/>
<path fill="#27418a" d="
  M 114.77 87.57
  Q 91.66 105.10 65.70 118.39
  C 63.18 118.75 60.52 118.42 61.01 115.04
  Q 61.55 115.52 62.13 115.37
  A 0.64 0.63 -89.1 0 0 62.58 114.93
  L 63.05 113.21
  Q 64.64 111.62 66.53 110.30
  Q 77.24 102.77 85.01 97.90
  C 89.68 94.97 92.26 92.12 96.41 88.52
  A 3.29 3.28 24.4 0 1 98.52 87.73
  L 114.77 87.57
  Z"
/>
<path fill="#9df3c3" d="
  M 70.81 93.48
  L 72.47 94.80
  A 0.94 0.93 49.3 0 1 72.36 96.34
  L 67.20 99.32
  A 0.62 0.61 59.9 0 1 66.36 99.09
  L 66.16 98.75
  A 0.76 0.76 0.0 0 1 66.44 97.72
  L 69.18 96.13
  A 0.61 0.61 0.0 0 0 69.27 95.13
  L 68.05 94.11
  Q 66.09 93.02 66.04 91.75
  A 0.87 0.87 0.0 0 1 67.42 91.01
  L 70.81 93.48
  Z"
/>
<path fill="#182458" d="
  M 117.02 118.51
  L 88.27 118.46
  Q 102.26 108.12 117.32 99.63
  A 0.31 0.31 0.0 0 1 117.78 99.89
  C 118.10 106.01 118.57 112.46 117.02 118.51
  Z"
/>
<path fill="#322f45" d="
  M 125.44 121.76
  Q 125.45 123.49 125.55 126.02
  Q 125.70 130.12 121.50 130.11
  Q 95.18 130.04 69.03 129.88
  L 58.44 128.77
  A 1.73 1.72 1.2 0 1 56.89 127.16
  L 56.56 122.25
  L 63.47 122.90
  Q 76.72 123.29 103.94 122.70
  Q 119.31 122.37 125.44 121.76
  Z"
/>
<path fill="#61627d" d="
  M 56.56 122.25
  L 56.89 127.16
  A 1.73 1.72 1.2 0 0 58.44 128.77
  L 69.03 129.88
  Q 61.31 130.06 58.25 129.96
  C 54.47 129.83 54.74 125.49 55.22 122.54
  L 56.56 122.25
  Z"
/>
<path fill="#a2a3b9" d="
  M 113.06 134.93
  C 110.62 135.13 108.32 135.71 105.96 135.80
  Q 85.68 136.58 72.50 135.96
  Q 67.45 135.72 56.26 134.93
  C 53.49 134.74 51.14 134.21 48.26 133.85
  A 0.53 0.53 0.0 0 1 48.22 132.80
  L 55.38 131.27
  Q 56.10 131.24 57.39 131.80
  A 0.55 0.55 0.0 0 1 57.59 132.66
  Q 57.11 133.24 55.92 133.34
  A 0.08 0.08 0.0 0 0 55.85 133.42
  L 55.85 133.66
  A 0.11 0.11 0.0 0 0 55.95 133.77
  C 62.44 134.48 66.71 135.17 72.06 133.88
  Q 73.16 133.62 73.34 133.23
  Q 73.35 133.20 73.67 132.47
  A 0.93 0.92 11.6 0 1 74.52 131.91
  Q 94.31 132.08 104.03 132.00
  Q 106.18 131.98 107.11 133.61
  A 1.05 1.05 0.0 0 0 107.86 134.13
  L 113.06 134.93
  Z"
/>
</svg>