<?xml version="1.0" encoding="UTF-8" standalone="no"?>
<!DOCTYPE svg PUBLIC "-//W3C//DTD SVG 1.1//EN" "http://www.w3.org/Graphics/SVG/1.1/DTD/svg11.dtd">
<svg xmlns="http://www.w3.org/2000/svg" version="1.1" viewBox="0.00 0.00 256.00 256.00" width="128" height="128">
<g stroke-width="2.00" fill="none" stroke-linecap="butt">
<path stroke="#c7c3d4" vector-effect="non-scaling-stroke" d="
  M 55.81 86.07
  Q 54.89 87.64 52.03 88.39
  Q 48.67 89.26 47.72 89.69
  C 35.00 95.48 25.69 107.41 23.57 121.27"
/>
<path stroke="#8c9597" vector-effect="non-scaling-stroke" d="
  M 23.57 121.27
  Q 22.24 130.53 23.21 135.75
  Q 25.08 145.73 33.50 155.98
  Q 39.50 163.27 50.37 167.41
  A 4.47 4.02 56.2 0 0 51.12 167.60
  Q 53.68 167.98 56.06 168.98"
/>
<path stroke="#c7c3d4" vector-effect="non-scaling-stroke" d="
  M 71.20 86.02
  Q 71.17 87.03 70.85 87.89
  A 0.78 0.78 0.0 0 1 70.12 88.39
  L 59.86 88.37
  A 2.83 2.76 32.9 0 0 58.77 88.59
  Q 57.99 88.91 51.26 91.01
  Q 47.09 92.31 44.05 94.17
  Q 31.66 101.76 26.83 116.19
  Q 25.87 119.06 24.65 122.28"
/>
<path stroke="#54596b" vector-effect="non-scaling-stroke" d="
  M 24.65 122.28
  Q 24.74 120.99 23.57 121.27"
/>
<path stroke="#8c9597" vector-effect="non-scaling-stroke" d="
  M 72.20 169.00
  Q 75.07 167.94 78.18 167.65
  Q 80.55 167.42 84.68 164.60"
/>
<path stroke="#c7c3d4" vector-effect="non-scaling-stroke" d="
  M 84.68 164.60
  C 98.13 156.17 107.37 141.91 105.87 125.70
  A 0.65 0.65 0.0 0 0 104.71 125.37
  Q 104.56 125.57 104.54 126.34
  Q 103.82 150.49 84.28 162.44"
/>
<path stroke="#8c9597" vector-effect="non-scaling-stroke" d="
  M 84.28 162.44
  Q 74.82 166.70 65.23 167.07
  C 61.59 167.21 56.75 166.30 53.26 165.46
  Q 47.88 164.16 43.10 160.92
  Q 28.66 151.14 25.64 134.31
  Q 24.65 128.77 24.65 122.28"
/>
<path stroke="#c7c3d4" vector-effect="non-scaling-stroke" d="
  M 53.94 91.58
  C 47.37 93.64 39.09 98.43 35.20 104.46"
/>
<path stroke="#bcb8cc" vector-effect="non-scaling-stroke" d="
  M 35.20 104.46
  Q 28.08 112.86 26.93 123.46"
/>
<path stroke="#8b83a7" vector-effect="non-scaling-stroke" d="
  M 26.93 123.46
  C 25.61 129.56 27.31 136.80 29.48 142.02
  Q 35.91 157.51 50.10 163.17
  Q 68.91 170.67 85.91 158.87"
/>
<path stroke="#c7c3d4" vector-effect="non-scaling-stroke" d="
  M 85.91 158.87
  Q 91.56 155.29 94.65 151.13
  Q 100.30 143.52 102.54 132.29
  Q 102.93 130.33 102.48 128.71
  A 0.73 0.73 0.0 0 0 101.21 128.45
  Q 99.70 130.36 97.54 131.64"
/>
<path stroke="#dedce6" vector-effect="non-scaling-stroke" d="
  M 97.54 131.64
  L 97.69 123.25
  A 1.39 1.38 -1.1 0 0 96.22 121.84
  Q 94.86 121.92 93.09 121.31
  A 1.21 1.20 -80.5 0 1 92.28 120.17
  L 92.36 108.85
  A 1.50 1.49 7.8 0 0 91.25 107.40
  Q 90.60 107.23 89.53 107.53
  Q 87.38 108.14 80.09 110.79
  A 1.34 1.34 0.0 0 1 78.29 109.53
  L 78.29 106.03
  A 0.62 0.62 0.0 0 0 77.67 105.41
  L 70.81 105.41
  A 1.15 1.15 0.0 0 1 69.67 104.13
  L 71.16 91.82
  A 1.64 1.63 5.8 0 0 69.67 90.00
  Q 65.08 89.61 60.29 90.10
  C 58.45 90.29 56.26 91.45 53.94 91.58"
/>
<path stroke="#a5a0bb" vector-effect="non-scaling-stroke" d="
  M 97.54 131.64
  Q 95.61 133.48 93.23 135.72
  Q 91.70 137.16 89.85 136.76
  A 1.31 1.31 0.0 0 1 88.81 135.48
  L 88.81 128.78
  A 1.41 1.41 0.0 0 0 87.14 127.40
  Q 84.73 127.86 82.40 129.36
  C 81.38 130.01 79.70 130.00 78.83 129.36
  Q 78.21 128.91 78.50 126.64
  Q 79.05 122.34 78.88 117.13
  A 1.22 1.21 86.6 0 0 77.57 115.96
  C 74.24 116.23 72.42 122.17 68.91 123.45
  A 1.98 1.96 75.9 0 1 66.30 121.87
  Q 66.09 120.46 66.29 118.85
  A 1.01 1.01 0.0 0 0 65.41 117.73
  L 61.82 117.30
  A 0.74 0.74 0.0 0 1 61.18 116.66
  Q 60.81 113.48 61.16 112.45
  Q 63.34 106.06 63.67 100.48
  A 1.54 1.54 0.0 0 0 61.36 99.05
  L 57.03 101.55
  A 0.91 0.89 46.4 0 1 56.08 101.52
  C 54.39 100.39 53.88 99.18 54.79 96.98
  Q 55.42 95.44 56.17 92.82
  A 0.85 0.85 0.0 0 0 55.45 91.75
  L 53.94 91.58"
/>
<path stroke="#52477b" vector-effect="non-scaling-stroke" d="
  M 85.91 158.87
  Q 85.78 155.35 86.39 152.49
  Q 87.23 148.52 83.78 147.77"
/>
<path stroke="#837ca1" vector-effect="non-scaling-stroke" d="
  M 83.78 147.77
  Q 82.94 144.32 83.43 139.91
  A 2.12 2.12 0.0 0 0 81.08 137.57
  Q 78.12 137.91 75.60 139.45
  A 1.49 1.48 -15.8 0 1 73.34 138.19
  L 73.34 132.68
  A 1.29 1.29 0.0 0 0 72.06 131.39
  Q 70.12 131.38 68.49 131.98
  Q 62.42 134.21 57.01 135.82
  A 1.88 1.88 0.0 0 1 54.60 134.01
  C 54.63 127.03 55.21 118.12 53.58 117.24
  A 1.61 1.59 51.3 0 0 52.39 117.10
  Q 48.82 118.09 47.40 114.25
  A 1.65 1.64 42.9 0 1 47.36 113.28
  Q 48.39 109.36 48.88 104.53
  Q 49.02 103.15 48.36 102.68
  C 46.72 101.50 45.69 101.23 43.61 102.43
  Q 41.76 103.49 38.69 105.28
  A 1.13 1.10 -49.8 0 1 37.76 105.37
  L 35.20 104.46"
/>
<path stroke="#473b74" vector-effect="non-scaling-stroke" d="
  M 83.78 147.77
  L 68.00 152.90
  A 2.55 2.55 0.0 0 1 64.67 150.72
  Q 64.48 148.76 64.12 145.73
  A 2.47 2.37 89.1 0 0 61.98 143.56
  C 57.95 143.17 52.98 149.08 48.85 150.00
  A 1.49 1.48 70.4 0 1 47.19 149.21
  Q 46.17 147.19 46.58 144.53
  Q 47.52 138.42 47.26 134.38
  A 1.48 1.47 88.1 0 0 45.79 133.00
  L 40.68 133.00
  A 1.66 1.64 64.4 0 1 39.63 132.62
  C 35.94 129.51 43.66 116.97 36.61 117.21
  A 1.60 1.54 26.0 0 0 35.81 117.47
  L 26.93 123.46"
/>
<path stroke="#808080" vector-effect="non-scaling-stroke" d="
  M 126.12 116.67
  C 126.38 124.53 134.51 127.57 139.65 121.47
  A 1.49 1.48 30.8 0 0 139.06 119.13
  Q 139.05 119.12 138.67 119.28
  A 1.25 1.23 0.4 0 0 138.01 119.92
  Q 136.86 122.54 134.55 122.81
  C 130.30 123.30 128.51 120.50 128.38 116.60
  C 128.25 112.69 129.86 109.79 134.13 110.00
  Q 136.46 110.12 137.77 112.66
  A 1.25 1.23 -4.2 0 0 138.47 113.26
  Q 138.86 113.39 138.87 113.38
  A 1.49 1.48 -34.6 0 0 139.31 111.01
  C 133.79 105.25 125.87 108.82 126.12 116.67"
/>
<path stroke="#808080" vector-effect="non-scaling-stroke" d="
  M 247.84 113.06
  C 248.44 109.58 245.59 109.00 242.70 108.37
  Q 238.34 107.42 236.62 111.69
  A 1.66 1.63 -40.9 0 0 236.54 112.69
  Q 237.26 115.81 238.94 116.32
  Q 243.92 117.81 244.89 118.10
  Q 245.93 118.41 246.34 119.28
  A 2.48 2.27 -21.6 0 1 244.79 122.46
  Q 242.85 123.11 240.50 122.55
  A 2.03 2.02 -14.9 0 1 239.48 121.96
  Q 239.34 121.80 237.50 119.76
  A 1.02 0.91 30.6 0 0 235.78 120.10
  Q 235.72 120.52 236.01 121.09
  C 238.39 125.83 246.39 126.39 248.44 121.03
  C 250.21 116.40 243.80 115.31 239.86 114.08
  A 1.73 1.62 18.2 0 1 238.70 111.95
  C 239.50 109.68 243.51 110.30 245.27 110.95
  A 0.69 0.67 -3.3 0 1 245.63 111.26
  L 246.78 113.25
  A 0.57 0.57 0.0 0 0 247.84 113.06"
/>
<path stroke="#808080" vector-effect="non-scaling-stroke" d="
  M 168.78 116.68
  Q 172.14 116.22 172.05 112.76
  C 171.94 108.58 169.18 108.90 166.03 108.69
  Q 164.00 108.57 160.37 108.50
  A 1.11 1.11 0.0 0 0 159.24 109.61
  L 159.20 123.69
  A 0.84 0.83 -86.4 0 0 159.93 124.53
  L 160.36 124.59
  A 0.91 0.90 -86.2 0 0 161.38 123.69
  L 161.39 118.43
  A 0.70 0.70 0.0 0 1 161.94 117.76
  C 166.72 116.60 168.16 120.21 170.06 123.47
  A 2.04 2.04 0.0 0 0 171.82 124.49
  L 172.28 124.49
  A 0.66 0.66 0.0 0 0 172.82 123.46
  L 168.51 117.31
  A 0.40 0.40 0.0 0 1 168.78 116.68"
/>
<path stroke="#808080" vector-effect="non-scaling-stroke" d="
  M 184.78 116.68
  Q 188.14 116.21 188.04 112.75
  C 187.92 108.57 185.16 108.89 182.01 108.69
  Q 179.98 108.57 176.34 108.51
  A 1.11 1.11 0.0 0 0 175.21 109.62
  L 175.21 123.72
  A 0.84 0.83 -86.5 0 0 175.94 124.55
  L 176.37 124.61
  A 0.91 0.91 0.0 0 0 177.39 123.71
  L 177.39 118.45
  A 0.71 0.70 -6.8 0 1 177.93 117.77
  C 182.72 116.60 184.16 120.21 186.07 123.47
  A 2.05 2.04 -15.0 0 0 187.84 124.49
  L 188.30 124.49
  A 0.66 0.66 0.0 0 0 188.84 123.45
  L 184.51 117.31
  A 0.40 0.40 0.0 0 1 184.78 116.68"
/>
<path stroke="#808080" vector-effect="non-scaling-stroke" d="
  M 203.17 109.00
  A 0.40 0.40 0.0 0 0 202.77 108.60
  L 192.07 108.60
  A 0.40 0.40 0.0 0 0 191.67 109.00
  L 191.67 124.14
  A 0.40 0.40 0.0 0 0 192.07 124.54
  L 203.30 124.54
  A 0.40 0.40 0.0 0 0 203.70 124.14
  L 203.70 123.11
  A 0.40 0.40 0.0 0 0 203.30 122.71
  L 194.24 122.71
  A 0.40 0.40 0.0 0 1 193.84 122.31
  L 193.84 117.70
  A 0.40 0.40 0.0 0 1 194.24 117.30
  L 202.24 117.30
  A 0.40 0.40 0.0 0 0 202.64 116.90
  L 202.64 115.96
  A 0.40 0.40 0.0 0 0 202.24 115.56
  L 194.26 115.56
  A 0.40 0.40 0.0 0 1 193.86 115.16
  L 193.86 110.78
  A 0.40 0.40 0.0 0 1 194.26 110.38
  L 202.77 110.38
  A 0.40 0.40 0.0 0 0 203.17 109.98
  L 203.17 109.00"
/>
<path stroke="#808080" vector-effect="non-scaling-stroke" d="
  M 212.27 117.12
  Q 215.47 122.06 216.95 124.08
  A 1.43 1.43 0.0 0 0 219.54 123.23
  L 219.54 109.34
  A 0.56 0.55 -90.0 0 0 218.99 108.78
  L 217.87 108.78
  A 0.67 0.66 88.8 0 0 217.21 109.48
  L 217.70 120.41
  A 0.15 0.14 18.9 0 1 217.46 120.53
  Q 216.02 119.26 213.93 116.04
  Q 210.73 111.09 209.25 109.08
  A 1.43 1.43 0.0 0 0 206.66 109.92
  L 206.66 123.81
  A 0.56 0.55 -90.0 0 0 207.21 124.37
  L 208.33 124.37
  A 0.67 0.66 88.8 0 0 208.99 123.67
  L 208.50 112.74
  A 0.15 0.14 18.9 0 1 208.74 112.63
  Q 210.18 113.89 212.27 117.12"
/>
<path stroke="#808080" vector-effect="non-scaling-stroke" d="
  M 227.92 124.54
  Q 228.85 124.54 228.97 124.11
  A 0.95 0.72 -45.8 0 0 228.99 123.91
  L 228.95 111.03
  A 0.66 0.65 -89.2 0 1 229.62 110.37
  L 233.15 110.44
  A 1.02 1.02 0.0 0 0 234.18 109.58
  L 234.19 109.51
  A 0.82 0.81 -87.4 0 0 233.38 108.61
  Q 230.78 108.62 227.94 108.58
  Q 225.11 108.61 222.51 108.59
  A 0.82 0.81 87.5 0 0 221.69 109.49
  L 221.70 109.56
  A 1.02 1.02 0.0 0 0 222.73 110.43
  L 226.26 110.37
  A 0.66 0.65 89.3 0 1 226.93 111.03
  L 226.86 123.91
  A 0.95 0.72 46.0 0 0 226.88 124.11
  Q 226.99 124.54 227.92 124.54"
/>
<path stroke="#808080" vector-effect="non-scaling-stroke" d="
  M 149.11 124.99
  C 152.56 124.98 154.88 123.36 155.22 119.71
  Q 155.41 117.63 155.49 109.53
  A 0.81 0.80 3.5 0 0 154.77 108.72
  L 154.14 108.64
  A 0.85 0.85 0.0 0 0 153.19 109.54
  Q 153.47 114.16 153.15 119.13
  C 152.97 121.80 151.81 122.83 149.11 122.83
  C 146.42 122.84 145.25 121.80 145.08 119.13
  Q 144.75 114.16 145.03 109.54
  A 0.85 0.85 0.0 0 0 144.08 108.64
  L 143.45 108.72
  A 0.81 0.80 -3.6 0 0 142.73 109.53
  Q 142.81 117.63 143.01 119.71
  C 143.35 123.36 145.66 124.99 149.11 124.99"
/>
<path stroke="#808080" vector-effect="non-scaling-stroke" d="
  M 140.14 152.86
  Q 139.95 152.78 139.94 152.77
  A 1.68 1.67 -87.1 0 1 139.15 151.89
  Q 136.30 144.69 133.76 138.64
  A 1.37 1.34 65.7 0 0 131.92 137.92
  Q 131.09 138.33 130.67 139.43
  Q 128.05 146.35 125.33 152.87
  A 0.74 0.74 0.0 0 0 126.01 153.90
  L 126.40 153.90
  A 0.71 0.70 14.2 0 0 127.02 153.54
  L 129.49 149.27
  A 0.55 0.55 0.0 0 1 130.09 149.00
  Q 132.35 149.51 134.28 148.82
  A 0.84 0.83 65.1 0 1 135.29 149.19
  L 137.80 153.53
  A 0.64 0.63 -12.8 0 0 138.32 153.85
  Q 139.18 153.91 140.09 153.60
  A 0.40 0.40 0.0 0 0 140.14 152.86"
/>
<path stroke="#808080" vector-effect="non-scaling-stroke" d="
  M 141.25 153.54
  L 143.10 153.76
  A 0.54 0.54 0.0 0 0 143.70 153.22
  L 143.70 147.86
  A 0.57 0.57 0.0 0 1 144.29 147.29
  C 148.06 147.44 153.23 148.23 153.60 142.88
  C 154.04 136.67 146.08 137.58 142.06 138.06
  A 0.80 0.79 87.1 0 0 141.36 138.84
  C 141.35 141.36 141.56 152.39 141.51 152.43
  Q 141.41 152.50 141.04 152.78
  A 0.43 0.42 29.9 0 0 141.25 153.54"
/>
<path stroke="#808080" vector-effect="non-scaling-stroke" d="
  M 159.1252 138.9161
  A 0.70 0.70 0.0 0 0 158.4228 138.2185
  L 157.5628 138.2215
  A 0.70 0.70 0.0 0 0 156.8652 138.9240
  L 156.9148 153.1239
  A 0.70 0.70 0.0 0 0 157.6172 153.8215
  L 158.4772 153.8185
  A 0.70 0.70 0.0 0 0 159.1748 153.1160
  L 159.1252 138.9161"
/>
<path stroke="#808080" vector-effect="non-scaling-stroke" d="
  M 161.45 111.14
  L 161.43 114.70
  A 0.85 0.85 0.0 0 0 162.28 115.55
  L 165.77 115.57
  A 4.10 2.50 0.3 0 0 169.88 113.09
  L 169.88 112.83
  A 4.10 2.50 0.3 0 0 165.79 110.31
  L 162.30 110.29
  A 0.85 0.85 0.0 0 0 161.45 111.14"
/>
<path stroke="#808080" vector-effect="non-scaling-stroke" d="
  M 177.38 111.16
  L 177.34 114.62
  A 0.81 0.81 0.0 0 0 178.14 115.44
  L 182.49 115.49
  A 3.28 2.36 0.7 0 0 185.80 113.17
  L 185.80 112.81
  A 3.28 2.36 0.7 0 0 182.55 110.41
  L 178.20 110.36
  A 0.81 0.81 0.0 0 0 177.38 111.16"
/>
<path stroke="#54596b" vector-effect="non-scaling-stroke" d="
  M 84.28 162.44
  Q 84.75 162.23 85.02 162.87
  A 0.98 0.95 44.1 0 1 85.04 163.53
  L 84.68 164.60"
/>
<path stroke="#808080" vector-effect="non-scaling-stroke" d="
  M 132.65 141.09
  L 129.89 145.88
  A 0.99 0.98 -74.9 0 0 130.74 147.36
  L 134.23 147.36
  A 0.67 0.66 -12.2 0 0 134.84 146.42
  Q 133.63 143.76 133.42 141.26
  A 0.41 0.41 0.0 0 0 132.65 141.09"
/>
<path stroke="#808080" vector-effect="non-scaling-stroke" d="
  M 143.48 140.71
  L 143.46 144.69
  A 0.95 0.95 0.0 0 0 144.41 145.64
  L 148.41 145.65
  A 3.01 2.50 0.2 0 0 151.43 143.16
  L 151.43 142.28
  A 3.01 2.50 0.2 0 0 148.43 139.77
  L 144.43 139.76
  A 0.95 0.95 0.0 0 0 143.48 140.71"
/>
</g>
<path fill="#ffffff" d="
  M 55.81 86.07
  Q 54.89 87.64 52.03 88.39
  Q 48.67 89.26 47.72 89.69
  C 35.00 95.48 25.69 107.41 23.57 121.27
  Q 22.24 130.53 23.21 135.75
  Q 25.08 145.73 33.50 155.98
  Q 39.50 163.27 50.37 167.41
  A 4.47 4.02 56.2 0 0 51.12 167.60
  Q 53.68 167.98 56.06 168.98
  L 0.00 168.87
  L 0.00 86.08
  L 55.81 86.07
  Z"
/>
<path fill="#8e87a8" d="
  M 71.20 86.02
  Q 71.17 87.03 70.85 87.89
  A 0.78 0.78 0.0 0 1 70.12 88.39
  L 59.86 88.37
  A 2.83 2.76 32.9 0 0 58.77 88.59
  Q 57.99 88.91 51.26 91.01
  Q 47.09 92.31 44.05 94.17
  Q 31.66 101.76 26.83 116.19
  Q 25.87 119.06 24.65 122.28
  Q 24.74 120.99 23.57 121.27
  C 25.69 107.41 35.00 95.48 47.72 89.69
  Q 48.67 89.26 52.03 88.39
  Q 54.89 87.64 55.81 86.07
  L 71.20 86.02
  Z"
/>
<path fill="#ffffff" d="
  M 256.00 86.00
  L 256.00 168.99
  L 72.20 169.00
  Q 75.07 167.94 78.18 167.65
  Q 80.55 167.42 84.68 164.60
  C 98.13 156.17 107.37 141.91 105.87 125.70
  A 0.65 0.65 0.0 0 0 104.71 125.37
  Q 104.56 125.57 104.54 126.34
  Q 103.82 150.49 84.28 162.44
  Q 74.82 166.70 65.23 167.07
  C 61.59 167.21 56.75 166.30 53.26 165.46
  Q 47.88 164.16 43.10 160.92
  Q 28.66 151.14 25.64 134.31
  Q 24.65 128.77 24.65 122.28
  Q 25.87 119.06 26.83 116.19
  Q 31.66 101.76 44.05 94.17
  Q 47.09 92.31 51.26 91.01
  Q 57.99 88.91 58.77 88.59
  A 2.83 2.76 32.9 0 1 59.86 88.37
  L 70.12 88.39
  A 0.78 0.78 0.0 0 0 70.85 87.89
  Q 71.17 87.03 71.20 86.02
  L 256.00 86.00
  Z
  M 53.94 91.58
  C 47.37 93.64 39.09 98.43 35.20 104.46
  Q 28.08 112.86 26.93 123.46
  C 25.61 129.56 27.31 136.80 29.48 142.02
  Q 35.91 157.51 50.10 163.17
  Q 68.91 170.67 85.91 158.87
  Q 91.56 155.29 94.65 151.13
  Q 100.30 143.52 102.54 132.29
  Q 102.93 130.33 102.48 128.71
  A 0.73 0.73 0.0 0 0 101.21 128.45
  Q 99.70 130.36 97.54 131.64
  L 97.69 123.25
  A 1.39 1.38 -1.1 0 0 96.22 121.84
  Q 94.86 121.92 93.09 121.31
  A 1.21 1.20 -80.5 0 1 92.28 120.17
  L 92.36 108.85
  A 1.50 1.49 7.8 0 0 91.25 107.40
  Q 90.60 107.23 89.53 107.53
  Q 87.38 108.14 80.09 110.79
  A 1.34 1.34 0.0 0 1 78.29 109.53
  L 78.29 106.03
  A 0.62 0.62 0.0 0 0 77.67 105.41
  L 70.81 105.41
  A 1.15 1.15 0.0 0 1 69.67 104.13
  L 71.16 91.82
  A 1.64 1.63 5.8 0 0 69.67 90.00
  Q 65.08 89.61 60.29 90.10
  C 58.45 90.29 56.26 91.45 53.94 91.58
  Z
  M 126.12 116.67
  C 126.38 124.53 134.51 127.57 139.65 121.47
  A 1.49 1.48 30.8 0 0 139.06 119.13
  Q 139.05 119.12 138.67 119.28
  A 1.25 1.23 0.4 0 0 138.01 119.92
  Q 136.86 122.54 134.55 122.81
  C 130.30 123.30 128.51 120.50 128.38 116.60
  C 128.25 112.69 129.86 109.79 134.13 110.00
  Q 136.46 110.12 137.77 112.66
  A 1.25 1.23 -4.2 0 0 138.47 113.26
  Q 138.86 113.39 138.87 113.38
  A 1.49 1.48 -34.6 0 0 139.31 111.01
  C 133.79 105.25 125.87 108.82 126.12 116.67
  Z
  M 247.84 113.06
  C 248.44 109.58 245.59 109.00 242.70 108.37
  Q 238.34 107.42 236.62 111.69
  A 1.66 1.63 -40.9 0 0 236.54 112.69
  Q 237.26 115.81 238.94 116.32
  Q 243.92 117.81 244.89 118.10
  Q 245.93 118.41 246.34 119.28
  A 2.48 2.27 -21.6 0 1 244.79 122.46
  Q 242.85 123.11 240.50 122.55
  A 2.03 2.02 -14.9 0 1 239.48 121.96
  Q 239.34 121.80 237.50 119.76
  A 1.02 0.91 30.6 0 0 235.78 120.10
  Q 235.72 120.52 236.01 121.09
  C 238.39 125.83 246.39 126.39 248.44 121.03
  C 250.21 116.40 243.80 115.31 239.86 114.08
  A 1.73 1.62 18.2 0 1 238.70 111.95
  C 239.50 109.68 243.51 110.30 245.27 110.95
  A 0.69 0.67 -3.3 0 1 245.63 111.26
  L 246.78 113.25
  A 0.57 0.57 0.0 0 0 247.84 113.06
  Z
  M 168.78 116.68
  Q 172.14 116.22 172.05 112.76
  C 171.94 108.58 169.18 108.90 166.03 108.69
  Q 164.00 108.57 160.37 108.50
  A 1.11 1.11 0.0 0 0 159.24 109.61
  L 159.20 123.69
  A 0.84 0.83 -86.4 0 0 159.93 124.53
  L 160.36 124.59
  A 0.91 0.90 -86.2 0 0 161.38 123.69
  L 161.39 118.43
  A 0.70 0.70 0.0 0 1 161.94 117.76
  C 166.72 116.60 168.16 120.21 170.06 123.47
  A 2.04 2.04 0.0 0 0 171.82 124.49
  L 172.28 124.49
  A 0.66 0.66 0.0 0 0 172.82 123.46
  L 168.51 117.31
  A 0.40 0.40 0.0 0 1 168.78 116.68
  Z
  M 184.78 116.68
  Q 188.14 116.21 188.04 112.75
  C 187.92 108.57 185.16 108.89 182.01 108.69
  Q 179.98 108.57 176.34 108.51
  A 1.11 1.11 0.0 0 0 175.21 109.62
  L 175.21 123.72
  A 0.84 0.83 -86.5 0 0 175.94 124.55
  L 176.37 124.61
  A 0.91 0.91 0.0 0 0 177.39 123.71
  L 177.39 118.45
  A 0.71 0.70 -6.8 0 1 177.93 117.77
  C 182.72 116.60 184.16 120.21 186.07 123.47
  A 2.05 2.04 -15.0 0 0 187.84 124.49
  L 188.30 124.49
  A 0.66 0.66 0.0 0 0 188.84 123.45
  L 184.51 117.31
  A 0.40 0.40 0.0 0 1 184.78 116.68
  Z
  M 203.17 109.00
  A 0.40 0.40 0.0 0 0 202.77 108.60
  L 192.07 108.60
  A 0.40 0.40 0.0 0 0 191.67 109.00
  L 191.67 124.14
  A 0.40 0.40 0.0 0 0 192.07 124.54
  L 203.30 124.54
  A 0.40 0.40 0.0 0 0 203.70 124.14
  L 203.70 123.11
  A 0.40 0.40 0.0 0 0 203.30 122.71
  L 194.24 122.71
  A 0.40 0.40 0.0 0 1 193.84 122.31
  L 193.84 117.70
  A 0.40 0.40 0.0 0 1 194.24 117.30
  L 202.24 117.30
  A 0.40 0.40 0.0 0 0 202.64 116.90
  L 202.64 115.96
  A 0.40 0.40 0.0 0 0 202.24 115.56
  L 194.26 115.56
  A 0.40 0.40 0.0 0 1 193.86 115.16
  L 193.86 110.78
  A 0.40 0.40 0.0 0 1 194.26 110.38
  L 202.77 110.38
  A 0.40 0.40 0.0 0 0 203.17 109.98
  L 203.17 109.00
  Z
  M 212.27 117.12
  Q 215.47 122.06 216.95 124.08
  A 1.43 1.43 0.0 0 0 219.54 123.23
  L 219.54 109.34
  A 0.56 0.55 -90.0 0 0 218.99 108.78
  L 217.87 108.78
  A 0.67 0.66 88.8 0 0 217.21 109.48
  L 217.70 120.41
  A 0.15 0.14 18.9 0 1 217.46 120.53
  Q 216.02 119.26 213.93 116.04
  Q 210.73 111.09 209.25 109.08
  A 1.43 1.43 0.0 0 0 206.66 109.92
  L 206.66 123.81
  A 0.56 0.55 -90.0 0 0 207.21 124.37
  L 208.33 124.37
  A 0.67 0.66 88.8 0 0 208.99 123.67
  L 208.50 112.74
  A 0.15 0.14 18.9 0 1 208.74 112.63
  Q 210.18 113.89 212.27 117.12
  Z
  M 227.92 124.54
  Q 228.85 124.54 228.97 124.11
  A 0.95 0.72 -45.8 0 0 228.99 123.91
  L 228.95 111.03
  A 0.66 0.65 -89.2 0 1 229.62 110.37
  L 233.15 110.44
  A 1.02 1.02 0.0 0 0 234.18 109.58
  L 234.19 109.51
  A 0.82 0.81 -87.4 0 0 233.38 108.61
  Q 230.78 108.62 227.94 108.58
  Q 225.11 108.61 222.51 108.59
  A 0.82 0.81 87.5 0 0 221.69 109.49
  L 221.70 109.56
  A 1.02 1.02 0.0 0 0 222.73 110.43
  L 226.26 110.37
  A 0.66 0.65 89.3 0 1 226.93 111.03
  L 226.86 123.91
  A 0.95 0.72 46.0 0 0 226.88 124.11
  Q 226.99 124.54 227.92 124.54
  Z
  M 149.11 124.99
  C 152.56 124.98 154.88 123.36 155.22 119.71
  Q 155.41 117.63 155.49 109.53
  A 0.81 0.80 3.5 0 0 154.77 108.72
  L 154.14 108.64
  A 0.85 0.85 0.0 0 0 153.19 109.54
  Q 153.47 114.16 153.15 119.13
  C 152.97 121.80 151.81 122.83 149.11 122.83
  C 146.42 122.84 145.25 121.80 145.08 119.13
  Q 144.75 114.16 145.03 109.54
  A 0.85 0.85 0.0 0 0 144.08 108.64
  L 143.45 108.72
  A 0.81 0.80 -3.6 0 0 142.73 109.53
  Q 142.81 117.63 143.01 119.71
  C 143.35 123.36 145.66 124.99 149.11 124.99
  Z
  M 140.14 152.86
  Q 139.95 152.78 139.94 152.77
  A 1.68 1.67 -87.1 0 1 139.15 151.89
  Q 136.30 144.69 133.76 138.64
  A 1.37 1.34 65.7 0 0 131.92 137.92
  Q 131.09 138.33 130.67 139.43
  Q 128.05 146.35 125.33 152.87
  A 0.74 0.74 0.0 0 0 126.01 153.90
  L 126.40 153.90
  A 0.71 0.70 14.2 0 0 127.02 153.54
  L 129.49 149.27
  A 0.55 0.55 0.0 0 1 130.09 149.00
  Q 132.35 149.51 134.28 148.82
  A 0.84 0.83 65.1 0 1 135.29 149.19
  L 137.80 153.53
  A 0.64 0.63 -12.8 0 0 138.32 153.85
  Q 139.18 153.91 140.09 153.60
  A 0.40 0.40 0.0 0 0 140.14 152.86
  Z
  M 141.25 153.54
  L 143.10 153.76
  A 0.54 0.54 0.0 0 0 143.70 153.22
  L 143.70 147.86
  A 0.57 0.57 0.0 0 1 144.29 147.29
  C 148.06 147.44 153.23 148.23 153.60 142.88
  C 154.04 136.67 146.08 137.58 142.06 138.06
  A 0.80 0.79 87.1 0 0 141.36 138.84
  C 141.35 141.36 141.56 152.39 141.51 152.43
  Q 141.41 152.50 141.04 152.78
  A 0.43 0.42 29.9 0 0 141.25 153.54
  Z
  M 159.1252 138.9161
  A 0.70 0.70 0.0 0 0 158.4228 138.2185
  L 157.5628 138.2215
  A 0.70 0.70 0.0 0 0 156.8652 138.9240
  L 156.9148 153.1239
  A 0.70 0.70 0.0 0 0 157.6172 153.8215
  L 158.4772 153.8185
  A 0.70 0.70 0.0 0 0 159.1748 153.1160
  L 159.1252 138.9161
  Z"
/>
<path fill="#bcb8cd" d="
  M 97.54 131.64
  Q 95.61 133.48 93.23 135.72
  Q 91.70 137.16 89.85 136.76
  A 1.31 1.31 0.0 0 1 88.81 135.48
  L 88.81 128.78
  A 1.41 1.41 0.0 0 0 87.14 127.40
  Q 84.73 127.86 82.40 129.36
  C 81.38 130.01 79.70 130.00 78.83 129.36
  Q 78.21 128.91 78.50 126.64
  Q 79.05 122.34 78.88 117.13
  A 1.22 1.21 86.6 0 0 77.57 115.96
  C 74.24 116.23 72.42 122.17 68.91 123.45
  A 1.98 1.96 75.9 0 1 66.30 121.87
  Q 66.09 120.46 66.29 118.85
  A 1.01 1.01 0.0 0 0 65.41 117.73
  L 61.82 117.30
  A 0.74 0.74 0.0 0 1 61.18 116.66
  Q 60.81 113.48 61.16 112.45
  Q 63.34 106.06 63.67 100.48
  A 1.54 1.54 0.0 0 0 61.36 99.05
  L 57.03 101.55
  A 0.91 0.89 46.4 0 1 56.08 101.52
  C 54.39 100.39 53.88 99.18 54.79 96.98
  Q 55.42 95.44 56.17 92.82
  A 0.85 0.85 0.0 0 0 55.45 91.75
  L 53.94 91.58
  C 56.26 91.45 58.45 90.29 60.29 90.10
  Q 65.08 89.61 69.67 90.00
  A 1.64 1.63 5.8 0 1 71.16 91.82
  L 69.67 104.13
  A 1.15 1.15 0.0 0 0 70.81 105.41
  L 77.67 105.41
  A 0.62 0.62 0.0 0 1 78.29 106.03
  L 78.29 109.53
  A 1.34 1.34 0.0 0 0 80.09 110.79
  Q 87.38 108.14 89.53 107.53
  Q 90.60 107.23 91.25 107.40
  A 1.50 1.49 7.8 0 1 92.36 108.85
  L 92.28 120.17
  A 1.21 1.20 -80.5 0 0 93.09 121.31
  Q 94.86 121.92 96.22 121.84
  A 1.39 1.38 -1.1 0 1 97.69 123.25
  L 97.54 131.64
  Z"
/>
<path fill="#8e87a8" d="
  M 53.94 91.58
  L 55.45 91.75
  A 0.85 0.85 0.0 0 1 56.17 92.82
  Q 55.42 95.44 54.79 96.98
  C 53.88 99.18 54.39 100.39 56.08 101.52
  A 0.91 0.89 46.4 0 0 57.03 101.55
  L 61.36 99.05
  A 1.54 1.54 0.0 0 1 63.67 100.48
  Q 63.34 106.06 61.16 112.45
  Q 60.81 113.48 61.18 116.66
  A 0.74 0.74 0.0 0 0 61.82 117.30
  L 65.41 117.73
  A 1.01 1.01 0.0 0 1 66.29 118.85
  Q 66.09 120.46 66.30 121.87
  A 1.98 1.96 75.9 0 0 68.91 123.45
  C 72.42 122.17 74.24 116.23 77.57 115.96
  A 1.22 1.21 86.6 0 1 78.88 117.13
  Q 79.05 122.34 78.50 126.64
  Q 78.21 128.91 78.83 129.36
  C 79.70 130.00 81.38 130.01 82.40 129.36
  Q 84.73 127.86 87.14 127.40
  A 1.41 1.41 0.0 0 1 88.81 128.78
  L 88.81 135.48
  A 1.31 1.31 0.0 0 0 89.85 136.76
  Q 91.70 137.16 93.23 135.72
  Q 95.61 133.48 97.54 131.64
  Q 99.70 130.36 101.21 128.45
  A 0.73 0.73 0.0 0 1 102.48 128.71
  Q 102.93 130.33 102.54 132.29
  Q 100.30 143.52 94.65 151.13
  Q 91.56 155.29 85.91 158.87
  Q 85.78 155.35 86.39 152.49
  Q 87.23 148.52 83.78 147.77
  Q 82.94 144.32 83.43 139.91
  A 2.12 2.12 0.0 0 0 81.08 137.57
  Q 78.12 137.91 75.60 139.45
  A 1.49 1.48 -15.8 0 1 73.34 138.19
  L 73.34 132.68
  A 1.29 1.29 0.0 0 0 72.06 131.39
  Q 70.12 131.38 68.49 131.98
  Q 62.42 134.21 57.01 135.82
  A 1.88 1.88 0.0 0 1 54.60 134.01
  C 54.63 127.03 55.21 118.12 53.58 117.24
  A 1.61 1.59 51.3 0 0 52.39 117.10
  Q 48.82 118.09 47.40 114.25
  A 1.65 1.64 42.9 0 1 47.36 113.28
  Q 48.39 109.36 48.88 104.53
  Q 49.02 103.15 48.36 102.68
  C 46.72 101.50 45.69 101.23 43.61 102.43
  Q 41.76 103.49 38.69 105.28
  A 1.13 1.10 -49.8 0 1 37.76 105.37
  L 35.20 104.46
  C 39.09 98.43 47.37 93.64 53.94 91.58
  Z"
/>
<path fill="#787099" d="
  M 83.78 147.77
  L 68.00 152.90
  A 2.55 2.55 0.0 0 1 64.67 150.72
  Q 64.48 148.76 64.12 145.73
  A 2.47 2.37 89.1 0 0 61.98 143.56
  C 57.95 143.17 52.98 149.08 48.85 150.00
  A 1.49 1.48 70.4 0 1 47.19 149.21
  Q 46.17 147.19 46.58 144.53
  Q 47.52 138.42 47.26 134.38
  A 1.48 1.47 88.1 0 0 45.79 133.00
  L 40.68 133.00
  A 1.66 1.64 64.4 0 1 39.63 132.62
  C 35.94 129.51 43.66 116.97 36.61 117.21
  A 1.60 1.54 26.0 0 0 35.81 117.47
  L 26.93 123.46
  Q 28.08 112.86 35.20 104.46
  L 37.76 105.37
  A 1.13 1.10 -49.8 0 0 38.69 105.28
  Q 41.76 103.49 43.61 102.43
  C 45.69 101.23 46.72 101.50 48.36 102.68
  Q 49.02 103.15 48.88 104.53
  Q 48.39 109.36 47.36 113.28
  A 1.65 1.64 42.9 0 0 47.40 114.25
  Q 48.82 118.09 52.39 117.10
  A 1.61 1.59 51.3 0 1 53.58 117.24
  C 55.21 118.12 54.63 127.03 54.60 134.01
  A 1.88 1.88 0.0 0 0 57.01 135.82
  Q 62.42 134.21 68.49 131.98
  Q 70.12 131.38 72.06 131.39
  A 1.29 1.29 0.0 0 1 73.34 132.68
  L 73.34 138.19
  A 1.49 1.48 -15.8 0 0 75.60 139.45
  Q 78.12 137.91 81.08 137.57
  A 2.12 2.12 0.0 0 1 83.43 139.91
  Q 82.94 144.32 83.78 147.77
  Z"
/>
<path fill="#010100" d="
  M 128.38 116.60
  C 128.51 120.50 130.30 123.30 134.55 122.81
  Q 136.86 122.54 138.01 119.92
  A 1.25 1.23 0.4 0 1 138.67 119.28
  Q 139.05 119.12 139.06 119.13
  A 1.49 1.48 30.8 0 1 139.65 121.47
  C 134.51 127.57 126.38 124.53 126.12 116.67
  C 125.87 108.82 133.79 105.25 139.31 111.01
  A 1.49 1.48 -34.6 0 1 138.87 113.38
  Q 138.86 113.39 138.47 113.26
  A 1.25 1.23 -4.2 0 1 137.77 112.66
  Q 136.46 110.12 134.13 110.00
  C 129.86 109.79 128.25 112.69 128.38 116.60
  Z"
/>
<path fill="#010100" d="
  M 247.84 113.06
  A 0.57 0.57 0.0 0 1 246.78 113.25
  L 245.63 111.26
  A 0.69 0.67 -3.3 0 0 245.27 110.95
  C 243.51 110.30 239.50 109.68 238.70 111.95
  A 1.73 1.62 18.2 0 0 239.86 114.08
  C 243.80 115.31 250.21 116.40 248.44 121.03
  C 246.39 126.39 238.39 125.83 236.01 121.09
  Q 235.72 120.52 235.78 120.10
  A 1.02 0.91 30.6 0 1 237.50 119.76
  Q 239.34 121.80 239.48 121.96
  A 2.03 2.02 -14.9 0 0 240.50 122.55
  Q 242.85 123.11 244.79 122.46
  A 2.48 2.27 -21.6 0 0 246.34 119.28
  Q 245.93 118.41 244.89 118.10
  Q 243.92 117.81 238.94 116.32
  Q 237.26 115.81 236.54 112.69
  A 1.66 1.63 -40.9 0 1 236.62 111.69
  Q 238.34 107.42 242.70 108.37
  C 245.59 109.00 248.44 109.58 247.84 113.06
  Z"
/>
<path fill="#010100" d="
  M 168.78 116.68
  A 0.40 0.40 0.0 0 0 168.51 117.31
  L 172.82 123.46
  A 0.66 0.66 0.0 0 1 172.28 124.49
  L 171.82 124.49
  A 2.04 2.04 0.0 0 1 170.06 123.47
  C 168.16 120.21 166.72 116.60 161.94 117.76
  A 0.70 0.70 0.0 0 0 161.39 118.43
  L 161.38 123.69
  A 0.91 0.90 -86.2 0 1 160.36 124.59
  L 159.93 124.53
  A 0.84 0.83 -86.4 0 1 159.20 123.69
  L 159.24 109.61
  A 1.11 1.11 0.0 0 1 160.37 108.50
  Q 164.00 108.57 166.03 108.69
  C 169.18 108.90 171.94 108.58 172.05 112.76
  Q 172.14 116.22 168.78 116.68
  Z
  M 161.45 111.14
  L 161.43 114.70
  A 0.85 0.85 0.0 0 0 162.28 115.55
  L 165.77 115.57
  A 4.10 2.50 0.3 0 0 169.88 113.09
  L 169.88 112.83
  A 4.10 2.50 0.3 0 0 165.79 110.31
  L 162.30 110.29
  A 0.85 0.85 0.0 0 0 161.45 111.14
  Z"
/>
<path fill="#010100" d="
  M 184.78 116.68
  A 0.40 0.40 0.0 0 0 184.51 117.31
  L 188.84 123.45
  A 0.66 0.66 0.0 0 1 188.30 124.49
  L 187.84 124.49
  A 2.05 2.04 -15.0 0 1 186.07 123.47
  C 184.16 120.21 182.72 116.60 177.93 117.77
  A 0.71 0.70 -6.8 0 0 177.39 118.45
  L 177.39 123.71
  A 0.91 0.91 0.0 0 1 176.37 124.61
  L 175.94 124.55
  A 0.84 0.83 -86.5 0 1 175.21 123.72
  L 175.21 109.62
  A 1.11 1.11 0.0 0 1 176.34 108.51
  Q 179.98 108.57 182.01 108.69
  C 185.16 108.89 187.92 108.57 188.04 112.75
  Q 188.14 116.21 184.78 116.68
  Z
  M 177.38 111.16
  L 177.34 114.62
  A 0.81 0.81 0.0 0 0 178.14 115.44
  L 182.49 115.49
  A 3.28 2.36 0.7 0 0 185.80 113.17
  L 185.80 112.81
  A 3.28 2.36 0.7 0 0 182.55 110.41
  L 178.20 110.36
  A 0.81 0.81 0.0 0 0 177.38 111.16
  Z"
/>
<path fill="#010100" d="
  M 203.17 109.00
  L 203.17 109.98
  A 0.40 0.40 0.0 0 1 202.77 110.38
  L 194.26 110.38
  A 0.40 0.40 0.0 0 0 193.86 110.78
  L 193.86 115.16
  A 0.40 0.40 0.0 0 0 194.26 115.56
  L 202.24 115.56
  A 0.40 0.40 0.0 0 1 202.64 115.96
  L 202.64 116.90
  A 0.40 0.40 0.0 0 1 202.24 117.30
  L 194.24 117.30
  A 0.40 0.40 0.0 0 0 193.84 117.70
  L 193.84 122.31
  A 0.40 0.40 0.0 0 0 194.24 122.71
  L 203.30 122.71
  A 0.40 0.40 0.0 0 1 203.70 123.11
  L 203.70 124.14
  A 0.40 0.40 0.0 0 1 203.30 124.54
  L 192.07 124.54
  A 0.40 0.40 0.0 0 1 191.67 124.14
  L 191.67 109.00
  A 0.40 0.40 0.0 0 1 192.07 108.60
  L 202.77 108.60
  A 0.40 0.40 0.0 0 1 203.17 109.00
  Z"
/>
<path fill="#010100" d="
  M 213.93 116.04
  Q 216.02 119.26 217.46 120.53
  A 0.15 0.14 18.9 0 0 217.70 120.41
  L 217.21 109.48
  A 0.67 0.66 88.8 0 1 217.87 108.78
  L 218.99 108.78
  A 0.56 0.55 90.0 0 1 219.54 109.34
  L 219.54 123.23
  A 1.43 1.43 0.0 0 1 216.95 124.08
  Q 215.47 122.06 212.27 117.12
  Q 210.18 113.89 208.74 112.63
  A 0.15 0.14 18.9 0 0 208.50 112.74
  L 208.99 123.67
  A 0.67 0.66 88.8 0 1 208.33 124.37
  L 207.21 124.37
  A 0.56 0.55 90.0 0 1 206.66 123.81
  L 206.66 109.92
  A 1.43 1.43 0.0 0 1 209.25 109.08
  Q 210.73 111.09 213.93 116.04
  Z"
/>
<path fill="#010100" d="
  M 227.94 108.58
  Q 230.78 108.62 233.38 108.61
  A 0.82 0.81 -87.4 0 1 234.19 109.51
  L 234.18 109.58
  A 1.02 1.02 0.0 0 1 233.15 110.44
  L 229.62 110.37
  A 0.66 0.65 -89.2 0 0 228.95 111.03
  L 228.99 123.91
  A 0.95 0.72 -45.8 0 1 228.97 124.11
  Q 228.85 124.54 227.92 124.54
  Q 226.99 124.54 226.88 124.11
  A 0.95 0.72 46.0 0 1 226.86 123.91
  L 226.93 111.03
  A 0.66 0.65 89.3 0 0 226.26 110.37
  L 222.73 110.43
  A 1.02 1.02 0.0 0 1 221.70 109.56
  L 221.69 109.49
  A 0.82 0.81 87.5 0 1 222.51 108.59
  Q 225.11 108.61 227.94 108.58
  Z"
/>
<path fill="#010100" d="
  M 149.11 122.83
  C 151.81 122.83 152.97 121.80 153.15 119.13
  Q 153.47 114.16 153.19 109.54
  A 0.85 0.85 0.0 0 1 154.14 108.64
  L 154.77 108.72
  A 0.81 0.80 3.5 0 1 155.49 109.53
  Q 155.41 117.63 155.22 119.71
  C 154.88 123.36 152.56 124.98 149.11 124.99
  C 145.66 124.99 143.35 123.36 143.01 119.71
  Q 142.81 117.63 142.73 109.53
  A 0.81 0.80 -3.6 0 1 143.45 108.72
  L 144.08 108.64
  A 0.85 0.85 0.0 0 1 145.03 109.54
  Q 144.75 114.16 145.08 119.13
  C 145.25 121.80 146.42 122.84 149.11 122.83
  Z"
/>
<path fill="#ffffff" d="
  M 161.45 111.14
  A 0.85 0.85 0.0 0 1 162.30 110.29
  L 165.79 110.31
  A 4.10 2.50 0.3 0 1 169.88 112.83
  L 169.88 113.09
  A 4.10 2.50 0.3 0 1 165.77 115.57
  L 162.28 115.55
  A 0.85 0.85 0.0 0 1 161.43 114.70
  L 161.45 111.14
  Z"
/>
<path fill="#ffffff" d="
  M 177.38 111.16
  A 0.81 0.81 0.0 0 1 178.20 110.36
  L 182.55 110.41
  A 3.28 2.36 0.7 0 1 185.80 112.81
  L 185.80 113.17
  A 3.28 2.36 0.7 0 1 182.49 115.49
  L 178.14 115.44
  A 0.81 0.81 0.0 0 1 177.34 114.62
  L 177.38 111.16
  Z"
/>
<path fill="#16064e" d="
  M 83.78 147.77
  Q 87.23 148.52 86.39 152.49
  Q 85.78 155.35 85.91 158.87
  Q 68.91 170.67 50.10 163.17
  Q 35.91 157.51 29.48 142.02
  C 27.31 136.80 25.61 129.56 26.93 123.46
  L 35.81 117.47
  A 1.60 1.54 26.0 0 1 36.61 117.21
  C 43.66 116.97 35.94 129.51 39.63 132.62
  A 1.66 1.64 64.4 0 0 40.68 133.00
  L 45.79 133.00
  A 1.48 1.47 88.1 0 1 47.26 134.38
  Q 47.52 138.42 46.58 144.53
  Q 46.17 147.19 47.19 149.21
  A 1.49 1.48 70.4 0 0 48.85 150.00
  C 52.98 149.08 57.95 143.17 61.98 143.56
  A 2.47 2.37 89.1 0 1 64.12 145.73
  Q 64.48 148.76 64.67 150.72
  A 2.55 2.55 0.0 0 0 68.00 152.90
  L 83.78 147.77
  Z"
/>
<path fill="#192a2e" d="
  M 24.65 122.28
  Q 24.65 128.77 25.64 134.31
  Q 28.66 151.14 43.10 160.92
  Q 47.88 164.16 53.26 165.46
  C 56.75 166.30 61.59 167.21 65.23 167.07
  Q 74.82 166.70 84.28 162.44
  Q 84.75 162.23 85.02 162.87
  A 0.98 0.95 44.1 0 1 85.04 163.53
  L 84.68 164.60
  Q 80.55 167.42 78.18 167.65
  Q 75.07 167.94 72.20 169.00
  L 56.06 168.98
  Q 53.68 167.98 51.12 167.60
  A 4.47 4.02 56.2 0 1 50.37 167.41
  Q 39.50 163.27 33.50 155.98
  Q 25.08 145.73 23.21 135.75
  Q 22.24 130.53 23.57 121.27
  Q 24.74 120.99 24.65 122.28
  Z"
/>
<path fill="#8e87a8" d="
  M 84.68 164.60
  L 85.04 163.53
  A 0.98 0.95 44.1 0 0 85.02 162.87
  Q 84.75 162.23 84.28 162.44
  Q 103.82 150.49 104.54 126.34
  Q 104.56 125.57 104.71 125.37
  A 0.65 0.65 0.0 0 1 105.87 125.70
  C 107.37 141.91 98.13 156.17 84.68 164.60
  Z"
/>
<path fill="#010100" d="
  M 140.09 153.60
  Q 139.18 153.91 138.32 153.85
  A 0.64 0.63 -12.8 0 1 137.80 153.53
  L 135.29 149.19
  A 0.84 0.83 65.1 0 0 134.28 148.82
  Q 132.35 149.51 130.09 149.00
  A 0.55 0.55 0.0 0 0 129.49 149.27
  L 127.02 153.54
  A 0.71 0.70 14.2 0 1 126.40 153.90
  L 126.01 153.90
  A 0.74 0.74 0.0 0 1 125.33 152.87
  Q 128.05 146.35 130.67 139.43
  Q 131.09 138.33 131.92 137.92
  A 1.37 1.34 65.7 0 1 133.76 138.64
  Q 136.30 144.69 139.15 151.89
  A 1.68 1.67 -87.1 0 0 139.94 152.77
  Q 139.95 152.78 140.14 152.86
  A 0.40 0.40 0.0 0 1 140.09 153.60
  Z
  M 132.65 141.09
  L 129.89 145.88
  A 0.99 0.98 -74.9 0 0 130.74 147.36
  L 134.23 147.36
  A 0.67 0.66 -12.2 0 0 134.84 146.42
  Q 133.63 143.76 133.42 141.26
  A 0.41 0.41 0.0 0 0 132.65 141.09
  Z"
/>
<path fill="#010100" d="
  M 141.04 152.78
  Q 141.41 152.50 141.51 152.43
  C 141.56 152.39 141.35 141.36 141.36 138.84
  A 0.80 0.79 87.1 0 1 142.06 138.06
  C 146.08 137.58 154.04 136.67 153.60 142.88
  C 153.23 148.23 148.06 147.44 144.29 147.29
  A 0.57 0.57 0.0 0 0 143.70 147.86
  L 143.70 153.22
  A 0.54 0.54 0.0 0 1 143.10 153.76
  L 141.25 153.54
  A 0.43 0.42 29.9 0 1 141.04 152.78
  Z
  M 143.48 140.71
  L 143.46 144.69
  A 0.95 0.95 0.0 0 0 144.41 145.64
  L 148.41 145.65
  A 3.01 2.50 0.2 0 0 151.43 143.16
  L 151.43 142.28
  A 3.01 2.50 0.2 0 0 148.43 139.77
  L 144.43 139.76
  A 0.95 0.95 0.0 0 0 143.48 140.71
  Z"
/>
<rect fill="#010100" x="-1.13" y="-7.80" transform="translate(158.02,146.02) rotate(-0.2)" width="2.26" height="15.60" rx="0.70"/>
<path fill="#ffffff" d="
  M 143.48 140.71
  A 0.95 0.95 0.0 0 1 144.43 139.76
  L 148.43 139.77
  A 3.01 2.50 0.2 0 1 151.43 142.28
  L 151.43 143.16
  A 3.01 2.50 0.2 0 1 148.41 145.65
  L 144.41 145.64
  A 0.95 0.95 0.0 0 1 143.46 144.69
  L 143.48 140.71
  Z"
/>
<path fill="#ffffff" d="
  M 133.42 141.26
  Q 133.63 143.76 134.84 146.42
  A 0.67 0.66 -12.2 0 1 134.23 147.36
  L 130.74 147.36
  A 0.99 0.98 -74.9 0 1 129.89 145.88
  L 132.65 141.09
  A 0.41 0.41 0.0 0 1 133.42 141.26
  Z"
/>
</svg>