<?xml version="1.0" encoding="UTF-8" standalone="no"?>
<!DOCTYPE svg PUBLIC "-//W3C//DTD SVG 1.1//EN" "http://www.w3.org/Graphics/SVG/1.1/DTD/svg11.dtd">
<svg xmlns="http://www.w3.org/2000/svg" version="1.1" viewBox="0.00 0.00 180.00 180.00" width="128" height="128">
<g stroke-width="2.00" fill="none" stroke-linecap="butt">
<path stroke="#80affa" vector-effect="non-scaling-stroke" d="
  M 166.93 90.04
  A 76.89 76.89 0.0 0 0 90.04 13.15
  A 76.89 76.89 0.0 0 0 13.15 90.04
  A 76.89 76.89 0.0 0 0 90.04 166.93
  A 76.89 76.89 0.0 0 0 166.93 90.04"
/>
<path stroke="#80affa" vector-effect="non-scaling-stroke" d="
  M 121.66 139.40
  Q 111.96 127.38 109.51 111.62
  A 0.33 0.33 0.0 0 0 108.98 111.41
  Q 93.30 123.63 76.59 112.56
  C 67.27 106.38 60.88 94.22 63.11 82.99
  C 65.12 72.85 73.60 65.01 83.92 62.64
  Q 89.71 61.31 90.83 60.30
  Q 93.88 57.58 92.57 52.74
  Q 89.31 40.78 89.08 39.46
  C 87.30 29.45 80.26 32.17 73.39 34.03
  C 60.73 37.45 49.39 46.34 42.05 56.78
  C 28.70 75.77 27.87 100.78 40.02 120.50
  C 53.60 142.56 78.45 153.18 103.86 147.55
  Q 113.64 145.37 121.56 140.08
  A 0.47 0.46 53.8 0 0 121.66 139.40"
/>
</g>
<path fill="#005ef4" d="
  M 177.18 90.05
  A 87.14 87.14 0.0 0 1 90.04 177.19
  A 87.14 87.14 0.0 0 1 2.90 90.05
  A 87.14 87.14 0.0 0 1 90.04 2.91
  A 87.14 87.14 0.0 0 1 177.18 90.05
  Z
  M 166.93 90.04
  A 76.89 76.89 0.0 0 0 90.04 13.15
  A 76.89 76.89 0.0 0 0 13.15 90.04
  A 76.89 76.89 0.0 0 0 90.04 166.93
  A 76.89 76.89 0.0 0 0 166.93 90.04
  Z"
/>
<path fill="#ffffff" d="
  M 166.93 90.04
  A 76.89 76.89 0.0 0 1 90.04 166.93
  A 76.89 76.89 0.0 0 1 13.15 90.04
  A 76.89 76.89 0.0 0 1 90.04 13.15
  A 76.89 76.89 0.0 0 1 166.93 90.04
  Z
  M 121.66 139.40
  Q 111.96 127.38 109.51 111.62
  A 0.33 0.33 0.0 0 0 108.98 111.41
  Q 93.30 123.63 76.59 112.56
  C 67.27 106.38 60.88 94.22 63.11 82.99
  C 65.12 72.85 73.60 65.01 83.92 62.64
  Q 89.71 61.31 90.83 60.30
  Q 93.88 57.58 92.57 52.74
  Q 89.31 40.78 89.08 39.46
  C 87.30 29.45 80.26 32.17 73.39 34.03
  C 60.73 37.45 49.39 46.34 42.05 56.78
  C 28.70 75.77 27.87 100.78 40.02 120.50
  C 53.60 142.56 78.45 153.18 103.86 147.55
  Q 113.64 145.37 121.56 140.08
  A 0.47 0.46 53.8 0 0 121.66 139.40
  Z"
/>
<path fill="#005ef4" d="
  M 121.56 140.08
  Q 113.64 145.37 103.86 147.55
  C 78.45 153.18 53.60 142.56 40.02 120.50
  C 27.87 100.78 28.70 75.77 42.05 56.78
  C 49.39 46.34 60.73 37.45 73.39 34.03
  C 80.26 32.17 87.30 29.45 89.08 39.46
  Q 89.31 40.78 92.57 52.74
  Q 93.88 57.58 90.83 60.30
  Q 89.71 61.31 83.92 62.64
  C 73.60 65.01 65.12 72.85 63.11 82.99
  C 60.88 94.22 67.27 106.38 76.59 112.56
  Q 93.30 123.63 108.98 111.41
  A 0.33 0.33 0.0 0 1 109.51 111.62
  Q 111.96 127.38 121.66 139.40
  A 0.47 0.46 53.8 0 1 121.56 140.08
  Z"
/>
</svg>