<?xml version="1.0" encoding="UTF-8" standalone="no"?>
<!DOCTYPE svg PUBLIC "-//W3C//DTD SVG 1.1//EN" "http://www.w3.org/Graphics/SVG/1.1/DTD/svg11.dtd">
<svg xmlns="http://www.w3.org/2000/svg" version="1.1" viewBox="0.00 0.00 180.00 180.00" width="128" height="128">
<g stroke-width="2.00" fill="none" stroke-linecap="butt">
<path stroke="#9da1aa" vector-effect="non-scaling-stroke" d="
  M 73.56 52.27
  L 73.56 121.38
  A 0.23 0.22 -0.0 0 0 73.79 121.60
  Q 98.86 121.65 103.00 121.61
  C 117.87 121.49 131.66 117.72 135.78 101.75
  Q 138.49 91.27 137.14 77.79
  C 135.88 65.21 129.75 55.69 116.58 53.37
  Q 109.45 52.12 105.21 52.12
  Q 91.60 52.13 73.70 52.13
  A 0.14 0.14 0.0 0 0 73.56 52.27"
/>
<path stroke="#9da1aa" vector-effect="non-scaling-stroke" d="
  M 61.4370 73.0732
  A 8.62 8.62 0.0 0 0 52.8020 64.4683
  L 50.7820 64.4718
  A 8.62 8.62 0.0 0 0 42.1770 73.1068
  L 42.1830 76.5068
  A 8.62 8.62 0.0 0 0 50.8180 85.1117
  L 52.8380 85.1082
  A 8.62 8.62 0.0 0 0 61.4430 76.4732
  L 61.4370 73.0732"
/>
<path stroke="#9da1aa" vector-effect="non-scaling-stroke" d="
  M 61.26 110.03
  A 8.60 8.60 0.0 0 0 52.66 101.43
  L 50.76 101.43
  A 8.60 8.60 0.0 0 0 42.16 110.03
  L 42.16 113.49
  A 8.60 8.60 0.0 0 0 50.76 122.09
  L 52.66 122.09
  A 8.60 8.60 0.0 0 0 61.26 113.49
  L 61.26 110.03"
/>
<path stroke="#9da1aa" vector-effect="non-scaling-stroke" d="
  M 91.67 68.91
  L 91.43 104.51
  A 1.25 1.25 0.0 0 0 92.67 105.77
  L 106.47 105.87
  A 13.39 12.91 -89.6 0 0 119.47 92.57
  L 119.55 81.25
  A 13.39 12.91 -89.6 0 0 106.73 67.77
  L 92.93 67.67
  A 1.25 1.25 0.0 0 0 91.67 68.91"
/>
</g>
<path fill="#3d4457" d="
  M 180.00 0.00
  L 180.00 180.00
  L 0.00 180.00
  L 0.00 0.00
  L 180.00 0.00
  Z
  M 73.56 52.27
  L 73.56 121.38
  A 0.23 0.22 -0.0 0 0 73.79 121.60
  Q 98.86 121.65 103.00 121.61
  C 117.87 121.49 131.66 117.72 135.78 101.75
  Q 138.49 91.27 137.14 77.79
  C 135.88 65.21 129.75 55.69 116.58 53.37
  Q 109.45 52.12 105.21 52.12
  Q 91.60 52.13 73.70 52.13
  A 0.14 0.14 0.0 0 0 73.56 52.27
  Z
  M 61.4370 73.0732
  A 8.62 8.62 0.0 0 0 52.8020 64.4683
  L 50.7820 64.4718
  A 8.62 8.62 0.0 0 0 42.1770 73.1068
  L 42.1830 76.5068
  A 8.62 8.62 0.0 0 0 50.8180 85.1117
  L 52.8380 85.1082
  A 8.62 8.62 0.0 0 0 61.4430 76.4732
  L 61.4370 73.0732
  Z
  M 61.26 110.03
  A 8.60 8.60 0.0 0 0 52.66 101.43
  L 50.76 101.43
  A 8.60 8.60 0.0 0 0 42.16 110.03
  L 42.16 113.49
  A 8.60 8.60 0.0 0 0 50.76 122.09
  L 52.66 122.09
  A 8.60 8.60 0.0 0 0 61.26 113.49
  L 61.26 110.03
  Z"
/>
<path fill="#fdfdfd" d="
  M 73.56 52.27
  A 0.14 0.14 0.0 0 1 73.70 52.13
  Q 91.60 52.13 105.21 52.12
  Q 109.45 52.12 116.58 53.37
  C 129.75 55.69 135.88 65.21 137.14 77.79
  Q 138.49 91.27 135.78 101.75
  C 131.66 117.72 117.87 121.49 103.00 121.61
  Q 98.86 121.65 73.79 121.60
  A 0.23 0.22 0.0 0 1 73.56 121.38
  L 73.56 52.27
  Z
  M 91.67 68.91
  L 91.43 104.51
  A 1.25 1.25 0.0 0 0 92.67 105.77
  L 106.47 105.87
  A 13.39 12.91 -89.6 0 0 119.47 92.57
  L 119.55 81.25
  A 13.39 12.91 -89.6 0 0 106.73 67.77
  L 92.93 67.67
  A 1.25 1.25 0.0 0 0 91.67 68.91
  Z"
/>
<rect fill="#fdfdfd" x="-9.63" y="-10.32" transform="translate(51.81,74.79) rotate(-0.1)" width="19.26" height="20.64" rx="8.62"/>
<path fill="#3d4457" d="
  M 91.67 68.91
  A 1.25 1.25 0.0 0 1 92.93 67.67
  L 106.73 67.77
  A 13.39 12.91 -89.6 0 1 119.55 81.25
  L 119.47 92.57
  A 13.39 12.91 -89.6 0 1 106.47 105.87
  L 92.67 105.77
  A 1.25 1.25 0.0 0 1 91.43 104.51
  L 91.67 68.91
  Z"
/>
<rect fill="#fdfdfd" x="42.16" y="101.43" width="19.10" height="20.66" rx="8.60"/>
</svg>