<?xml version="1.0" encoding="UTF-8" standalone="no"?>
<!DOCTYPE svg PUBLIC "-//W3C//DTD SVG 1.1//EN" "http://www.w3.org/Graphics/SVG/1.1/DTD/svg11.dtd">
<svg xmlns="http://www.w3.org/2000/svg" version="1.1" viewBox="0.00 0.00 256.00 256.00" width="128" height="128">
<g stroke-width="2.00" fill="none" stroke-linecap="butt">
<path stroke="#aa90ee" vector-effect="non-scaling-stroke" d="
  M 78.64 78.62
  C 78.55 78.71 78.50 78.74 78.39 78.74
  Q 56.70 78.74 55.83 78.74
  C 53.06 78.73 50.90 79.42 49.82 81.84
  C 48.52 84.74 49.74 86.61 52.04 88.97
  Q 58.00 95.08 68.71 105.53
  Q 73.01 109.72 79.01 109.77
  Q 85.14 109.82 91.82 109.78
  A 1.30 1.30 0.0 0 1 92.74 110.16
  Q 108.17 125.58 115.43 132.87
  C 119.90 137.35 122.72 140.48 128.24 140.29
  Q 133.32 140.11 136.72 136.71
  Q 140.12 133.31 140.30 128.23
  C 140.49 122.71 137.36 119.89 132.88 115.42
  Q 125.59 108.16 110.17 92.73
  A 1.30 1.30 0.0 0 1 109.79 91.81
  Q 109.84 85.13 109.79 79.00
  Q 109.74 73.00 105.55 68.70
  Q 95.10 57.99 88.99 52.02
  C 86.63 49.72 84.76 48.50 81.86 49.80
  C 79.44 50.88 78.75 53.04 78.76 55.81
  Q 78.76 56.68 78.76 78.38
  C 78.76 78.48 78.73 78.53 78.64 78.62"
/>
<path stroke="#aa90ee" vector-effect="non-scaling-stroke" d="
  M 131.29 177.18
  C 129.87 177.28 128.23 178.51 128.12 180.12
  Q 128.03 181.47 128.05 191.87
  A 3.39 3.38 -22.7 0 1 127.07 194.25
  L 123.10 198.21
  A 1.15 1.13 -16.8 0 0 122.79 198.78
  Q 122.34 200.76 124.08 201.65
  A 1.75 1.73 -30.0 0 0 124.85 201.85
  Q 151.35 202.63 171.51 187.71
  C 215.51 155.15 210.85 89.54 163.20 63.07
  Q 145.70 53.35 123.64 54.27
  A 2.44 2.32 -58.6 0 0 122.63 54.54
  Q 120.12 55.82 120.78 58.69
  A 1.89 1.85 15.4 0 0 121.31 59.60
  C 124.73 62.83 127.72 66.62 127.92 71.53
  C 128.03 74.14 127.56 78.47 130.81 78.75
  Q 152.54 80.62 165.90 96.55
  C 191.80 127.44 171.09 174.43 131.29 177.18"
/>
<path stroke="#aa90ee" vector-effect="non-scaling-stroke" d="
  M 98.08 195.53
  C 99.42 196.13 100.63 195.86 101.67 194.93
  Q 103.22 193.53 109.05 187.57
  A 2.53 2.51 67.6 0 0 109.76 185.84
  Q 109.86 176.78 109.86 176.76
  Q 109.90 174.07 107.77 173.01
  Q 82.01 160.30 78.86 131.86
  C 78.65 129.99 77.93 128.23 76.08 128.14
  Q 70.48 127.86 69.59 127.65
  C 65.60 126.73 63.46 124.92 60.42 121.91
  Q 59.21 120.71 58.23 120.59
  C 53.67 120.03 54.10 125.16 54.14 128.00
  C 54.51 157.60 71.15 183.47 98.08 195.53"
/>
</g>
<path fill="#5420dd" d="
  M 195.86 0.00
  Q 198.28 0.37 200.73 0.71
  C 231.48 4.95 253.47 29.52 256.00 60.22
  L 256.00 195.65
  C 253.63 225.14 233.34 248.97 204.26 254.83
  Q 202.05 255.27 195.83 256.00
  L 60.31 256.00
  C 30.64 253.59 6.74 233.07 1.06 203.75
  Q 0.74 202.11 0.00 195.96
  L 0.00 60.14
  C 2.52 27.33 27.33 2.81 60.03 0.00
  L 195.86 0.00
  Z
  M 78.64 78.62
  C 78.55 78.71 78.50 78.74 78.39 78.74
  Q 56.70 78.74 55.83 78.74
  C 53.06 78.73 50.90 79.42 49.82 81.84
  C 48.52 84.74 49.74 86.61 52.04 88.97
  Q 58.00 95.08 68.71 105.53
  Q 73.01 109.72 79.01 109.77
  Q 85.14 109.82 91.82 109.78
  A 1.30 1.30 0.0 0 1 92.74 110.16
  Q 108.17 125.58 115.43 132.87
  C 119.90 137.35 122.72 140.48 128.24 140.29
  Q 133.32 140.11 136.72 136.71
  Q 140.12 133.31 140.30 128.23
  C 140.49 122.71 137.36 119.89 132.88 115.42
  Q 125.59 108.16 110.17 92.73
  A 1.30 1.30 0.0 0 1 109.79 91.81
  Q 109.84 85.13 109.79 79.00
  Q 109.74 73.00 105.55 68.70
  Q 95.10 57.99 88.99 52.02
  C 86.63 49.72 84.76 48.50 81.86 49.80
  C 79.44 50.88 78.75 53.04 78.76 55.81
  Q 78.76 56.68 78.76 78.38
  C 78.76 78.48 78.73 78.53 78.64 78.62
  Z
  M 131.29 177.18
  C 129.87 177.28 128.23 178.51 128.12 180.12
  Q 128.03 181.47 128.05 191.87
  A 3.39 3.38 -22.7 0 1 127.07 194.25
  L 123.10 198.21
  A 1.15 1.13 -16.8 0 0 122.79 198.78
  Q 122.34 200.76 124.08 201.65
  A 1.75 1.73 -30.0 0 0 124.85 201.85
  Q 151.35 202.63 171.51 187.71
  C 215.51 155.15 210.85 89.54 163.20 63.07
  Q 145.70 53.35 123.64 54.27
  A 2.44 2.32 -58.6 0 0 122.63 54.54
  Q 120.12 55.82 120.78 58.69
  A 1.89 1.85 15.4 0 0 121.31 59.60
  C 124.73 62.83 127.72 66.62 127.92 71.53
  C 128.03 74.14 127.56 78.47 130.81 78.75
  Q 152.54 80.62 165.90 96.55
  C 191.80 127.44 171.09 174.43 131.29 177.18
  Z
  M 98.08 195.53
  C 99.42 196.13 100.63 195.86 101.67 194.93
  Q 103.22 193.53 109.05 187.57
  A 2.53 2.51 67.6 0 0 109.76 185.84
  Q 109.86 176.78 109.86 176.76
  Q 109.90 174.07 107.77 173.01
  Q 82.01 160.30 78.86 131.86
  C 78.65 129.99 77.93 128.23 76.08 128.14
  Q 70.48 127.86 69.59 127.65
  C 65.60 126.73 63.46 124.92 60.42 121.91
  Q 59.21 120.71 58.23 120.59
  C 53.67 120.03 54.10 125.16 54.14 128.00
  C 54.51 157.60 71.15 183.47 98.08 195.53
  Z"
/>
<path fill="#ffffff" d="
  M 136.72 136.71
  Q 133.32 140.11 128.24 140.29
  C 122.72 140.48 119.90 137.35 115.43 132.87
  Q 108.17 125.58 92.74 110.16
  A 1.30 1.30 0.0 0 0 91.82 109.78
  Q 85.14 109.82 79.01 109.77
  Q 73.01 109.72 68.71 105.53
  Q 58.00 95.08 52.04 88.97
  C 49.74 86.61 48.52 84.74 49.82 81.84
  C 50.90 79.42 53.06 78.73 55.83 78.74
  Q 56.70 78.74 78.39 78.74
  C 78.50 78.74 78.55 78.71 78.64 78.62
  C 78.73 78.53 78.76 78.48 78.76 78.38
  Q 78.76 56.68 78.76 55.81
  C 78.75 53.04 79.44 50.88 81.86 49.80
  C 84.76 48.50 86.63 49.72 88.99 52.02
  Q 95.10 57.99 105.55 68.70
  Q 109.74 73.00 109.79 79.00
  Q 109.84 85.13 109.79 91.81
  A 1.30 1.30 0.0 0 0 110.17 92.73
  Q 125.59 108.16 132.88 115.42
  C 137.36 119.89 140.49 122.71 140.30 128.23
  Q 140.12 133.31 136.72 136.71
  Z"
/>
<path fill="#ffffff" d="
  M 128.12 180.12
  C 128.23 178.51 129.87 177.28 131.29 177.18
  C 171.09 174.43 191.80 127.44 165.90 96.55
  Q 152.54 80.62 130.81 78.75
  C 127.56 78.47 128.03 74.14 127.92 71.53
  C 127.72 66.62 124.73 62.83 121.31 59.60
  A 1.89 1.85 15.4 0 1 120.78 58.69
  Q 120.12 55.82 122.63 54.54
  A 2.44 2.32 -58.6 0 1 123.64 54.27
  Q 145.70 53.35 163.20 63.07
  C 210.85 89.54 215.51 155.15 171.51 187.71
  Q 151.35 202.63 124.85 201.85
  A 1.75 1.73 -30.0 0 1 124.08 201.65
  Q 122.34 200.76 122.79 198.78
  A 1.15 1.13 -16.8 0 1 123.10 198.21
  L 127.07 194.25
  A 3.39 3.38 -22.7 0 0 128.05 191.87
  Q 128.03 181.47 128.12 180.12
  Z"
/>
<path fill="#ffffff" d="
  M 101.67 194.93
  C 100.63 195.86 99.42 196.13 98.08 195.53
  C 71.15 183.47 54.51 157.60 54.14 128.00
  C 54.10 125.16 53.67 120.03 58.23 120.59
  Q 59.21 120.71 60.42 121.91
  C 63.46 124.92 65.60 126.73 69.59 127.65
  Q 70.48 127.86 76.08 128.14
  C 77.93 128.23 78.65 129.99 78.86 131.86
  Q 82.01 160.30 107.77 173.01
  Q 109.90 174.07 109.86 176.76
  Q 109.86 176.78 109.76 185.84
  A 2.53 2.51 67.6 0 1 109.05 187.57
  Q 103.22 193.53 101.67 194.93
  Z"
/>
</svg>