<?xml version="1.0" encoding="UTF-8" standalone="no"?>
<!DOCTYPE svg PUBLIC "-//W3C//DTD SVG 1.1//EN" "http://www.w3.org/Graphics/SVG/1.1/DTD/svg11.dtd">
<svg xmlns="http://www.w3.org/2000/svg" version="1.1" viewBox="0.00 0.00 180.00 180.00" width="128" height="128">
<g stroke-width="2.00" fill="none" stroke-linecap="butt">
<path stroke="#80c5e7" vector-effect="non-scaling-stroke" d="
  M 98.12 44.43
  C 98.12 40.96 89.64 42.19 87.75 42.68
  Q 83.15 43.88 81.92 48.69
  A 2.84 2.67 54.5 0 0 81.82 49.43
  Q 81.81 80.22 81.80 119.02
  C 81.80 123.53 84.80 127.07 89.41 127.30
  Q 95.73 127.62 97.91 121.22
  A 4.09 3.97 -36.4 0 0 98.13 119.91
  Q 98.17 92.40 98.12 44.43"
/>
<path stroke="#80c5e7" vector-effect="non-scaling-stroke" d="
  M 124.71 65.65
  C 121.35 65.40 116.11 64.86 113.17 67.24
  Q 110.08 69.74 110.11 74.49
  Q 110.21 88.94 110.10 116.63
  Q 110.08 121.85 111.58 124.02
  Q 114.04 127.57 118.80 127.28
  Q 124.53 126.94 126.31 120.93
  A 3.24 3.03 -38.6 0 0 126.44 120.04
  L 126.44 67.50
  A 1.86 1.85 2.0 0 0 124.71 65.65"
/>
<path stroke="#80c5e7" vector-effect="non-scaling-stroke" d="
  M 69.67 96.20
  A 1.92 1.91 79.8 0 0 68.01 95.04
  C 62.86 94.82 57.32 94.08 54.45 99.14
  Q 53.38 101.02 53.51 107.09
  Q 53.68 115.75 53.55 117.97
  C 53.34 121.62 54.69 124.94 57.55 126.45
  C 60.77 128.16 65.53 127.80 67.93 124.66
  Q 69.80 122.19 69.81 120.49
  Q 69.88 100.91 69.82 97.00
  Q 69.81 96.52 69.67 96.20"
/>
</g>
<path fill="#008ace" d="
  M 90.02 7.18
  C 96.73 7.18 100.53 9.84 107.88 14.08
  Q 117.88 19.84 127.36 25.32
  Q 136.85 30.80 146.83 36.57
  C 154.18 40.82 158.38 42.79 161.73 48.60
  C 165.09 54.41 164.69 59.04 164.69 67.52
  Q 164.70 79.06 164.69 90.01
  Q 164.69 100.97 164.68 112.50
  C 164.67 120.99 165.07 125.61 161.72 131.42
  C 158.36 137.23 154.16 139.20 146.81 143.44
  Q 136.82 149.22 127.33 154.69
  Q 117.85 160.17 107.85 165.92
  C 100.50 170.16 96.69 172.82 89.98 172.82
  C 83.28 172.82 79.47 170.16 72.12 165.92
  Q 62.13 160.15 52.64 154.67
  Q 43.16 149.20 33.17 143.42
  C 25.83 139.17 21.62 137.20 18.27 131.39
  C 14.92 125.58 15.31 120.96 15.31 112.47
  Q 15.31 100.94 15.31 89.98
  Q 15.31 79.03 15.32 67.49
  C 15.33 59.01 14.93 54.38 18.29 48.57
  C 21.64 42.76 25.85 40.80 33.19 36.55
  Q 43.18 30.78 52.67 25.30
  Q 62.16 19.83 72.15 14.07
  C 79.50 9.83 83.31 7.18 90.02 7.18
  Z
  M 98.12 44.43
  C 98.12 40.96 89.64 42.19 87.75 42.68
  Q 83.15 43.88 81.92 48.69
  A 2.84 2.67 54.5 0 0 81.82 49.43
  Q 81.81 80.22 81.80 119.02
  C 81.80 123.53 84.80 127.07 89.41 127.30
  Q 95.73 127.62 97.91 121.22
  A 4.09 3.97 -36.4 0 0 98.13 119.91
  Q 98.17 92.40 98.12 44.43
  Z
  M 124.71 65.65
  C 121.35 65.40 116.11 64.86 113.17 67.24
  Q 110.08 69.74 110.11 74.49
  Q 110.21 88.94 110.10 116.63
  Q 110.08 121.85 111.58 124.02
  Q 114.04 127.57 118.80 127.28
  Q 124.53 126.94 126.31 120.93
  A 3.24 3.03 -38.6 0 0 126.44 120.04
  L 126.44 67.50
  A 1.86 1.85 2.0 0 0 124.71 65.65
  Z
  M 69.67 96.20
  A 1.92 1.91 79.8 0 0 68.01 95.04
  C 62.86 94.82 57.32 94.08 54.45 99.14
  Q 53.38 101.02 53.51 107.09
  Q 53.68 115.75 53.55 117.97
  C 53.34 121.62 54.69 124.94 57.55 126.45
  C 60.77 128.16 65.53 127.80 67.93 124.66
  Q 69.80 122.19 69.81 120.49
  Q 69.88 100.91 69.82 97.00
  Q 69.81 96.52 69.67 96.20
  Z"
/>
<path fill="#ffffff" d="
  M 87.75 42.68
  C 89.64 42.19 98.12 40.96 98.12 44.43
  Q 98.17 92.40 98.13 119.91
  A 4.09 3.97 -36.4 0 1 97.91 121.22
  Q 95.73 127.62 89.41 127.30
  C 84.80 127.07 81.80 123.53 81.80 119.02
  Q 81.81 80.22 81.82 49.43
  A 2.84 2.67 54.5 0 1 81.92 48.69
  Q 83.15 43.88 87.75 42.68
  Z"
/>
<path fill="#ffffff" d="
  M 124.71 65.65
  A 1.86 1.85 2.0 0 1 126.44 67.50
  L 126.44 120.04
  A 3.24 3.03 -38.6 0 1 126.31 120.93
  Q 124.53 126.94 118.80 127.28
  Q 114.04 127.57 111.58 124.02
  Q 110.08 121.85 110.10 116.63
  Q 110.21 88.94 110.11 74.49
  Q 110.08 69.74 113.17 67.24
  C 116.11 64.86 121.35 65.40 124.71 65.65
  Z"
/>
<path fill="#ffffff" d="
  M 69.67 96.20
  Q 69.81 96.52 69.82 97.00
  Q 69.88 100.91 69.81 120.49
  Q 69.80 122.19 67.93 124.66
  C 65.53 127.80 60.77 128.16 57.55 126.45
  C 54.69 124.94 53.34 121.62 53.55 117.97
  Q 53.68 115.75 53.51 107.09
  Q 53.38 101.02 54.45 99.14
  C 57.32 94.08 62.86 94.82 68.01 95.04
  A 1.92 1.91 79.8 0 1 69.67 96.20
  Z"
/>
</svg>