<?xml version="1.0" encoding="UTF-8" standalone="no"?>
<!DOCTYPE svg PUBLIC "-//W3C//DTD SVG 1.1//EN" "http://www.w3.org/Graphics/SVG/1.1/DTD/svg11.dtd">
<svg xmlns="http://www.w3.org/2000/svg" version="1.1" viewBox="0.00 0.00 256.00 256.00" width="128" height="128">
<g stroke-width="2.00" fill="none" stroke-linecap="butt">
<path stroke="#141313" vector-effect="non-scaling-stroke" d="
  M 190.50 14.26
  L 189.85 14.14
  A 0.33 0.33 0.0 0 0 189.59 14.73
  L 190.10 15.13
  A 0.02 0.02 0.0 0 1 190.08 15.17
  L 184.54 12.67
  A 0.74 0.72 29.0 0 0 183.63 12.92
  L 179.27 19.32"
/>
<path stroke="#141313" vector-effect="non-scaling-stroke" d="
  M 229.74 95.72
  C 227.65 105.54 228.04 115.18 227.76 124.42
  Q 227.57 130.64 226.37 138.24
  Q 224.25 151.62 222.34 165.06"
/>
<path stroke="#141313" vector-effect="non-scaling-stroke" d="
  M 168.30 236.96
  Q 157.72 238.68 154.16 239.40
  C 143.19 241.61 135.80 239.10 126.60 233.06
  A 0.98 0.97 16.6 0 1 126.15 232.24
  Q 126.15 227.23 128.68 222.99"
/>
<path stroke="#141313" vector-effect="non-scaling-stroke" d="
  M 177.31 107.27
  L 167.96 106.22
  A 1.07 1.07 0.0 0 1 167.02 104.98
  L 168.64 95.03
  A 1.10 1.09 -3.4 0 1 169.43 94.15
  C 174.42 92.74 177.41 91.33 177.05 85.78
  Q 176.42 76.07 176.17 70.21
  C 175.86 62.79 177.86 54.95 175.93 47.91
  A 0.07 0.07 0.0 0 0 175.79 47.93
  Q 176.09 56.53 175.14 64.36
  C 174.45 70.11 171.90 77.12 169.97 83.22"
/>
<path stroke="#141313" vector-effect="non-scaling-stroke" d="
  M 167.27 237.48
  C 159.51 239.54 151.36 240.71 143.76 243.04
  Q 139.51 244.34 137.09 247.04
  A 1.67 1.59 -73.8 0 1 136.25 247.53
  Q 130.31 248.81 122.17 249.32
  C 121.82 249.34 121.43 249.09 121.02 248.89
  A 0.47 0.47 0.0 0 0 120.40 249.11
  Q 120.26 249.39 120.25 249.62
  A 0.50 0.49 89.5 0 0 120.78 250.15
  L 129.69 249.44
  A 0.22 0.21 -10.2 0 1 129.91 249.59
  L 129.91 249.60
  A 0.24 0.24 0.0 0 1 129.71 249.81
  L 121.51 251.46
  A 0.41 0.40 78.6 0 0 121.20 251.94
  L 121.26 252.26
  A 0.15 0.14 -13.1 0 0 121.44 252.37
  L 129.57 250.27"
/>
<path stroke="#141313" vector-effect="non-scaling-stroke" d="
  M 154.20 160.35
  L 151.02 168.20
  A 6.04 6.02 76.2 0 1 150.00 169.89
  C 147.16 173.22 146.77 176.54 144.56 180.16
  Q 142.54 183.47 142.15 188.31
  A 0.50 0.50 0.0 0 0 142.69 188.85
  C 145.26 188.63 147.25 188.09 149.27 186.35
  Q 153.20 182.97 154.62 181.35
  C 157.77 177.78 158.10 173.35 160.18 169.93
  A 7.10 7.06 -89.7 0 1 162.59 167.53
  L 165.99 165.51
  A 6.15 6.12 -85.6 0 0 167.56 164.16
  C 170.16 161.02 171.83 157.72 174.93 154.98"
/>
<path stroke="#141313" vector-effect="non-scaling-stroke" d="
  M 8.88 140.64
  Q 11.79 124.34 10.85 103.92
  Q 10.41 94.61 8.57 87.94
  A 1.70 1.69 -7.6 0 0 6.93 86.69
  L 6.12 86.69
  A 1.41 1.41 0.0 0 0 4.72 88.28
  Q 5.32 92.78 5.83 98.02
  Q 6.07 100.49 4.82 106.38
  Q 4.50 107.86 5.92 114.16
  A 4.08 3.88 -53.0 0 1 6.00 114.85
  L 6.45 142.28
  A 0.39 0.39 0.0 0 0 7.08 142.58
  L 8.35 141.54
  A 1.52 1.50 75.9 0 0 8.88 140.64"
/>
<path stroke="#141313" vector-effect="non-scaling-stroke" d="
  M 67.42 189.51
  Q 66.88 187.25 65.99 185.76
  A 0.94 0.93 -7.7 0 0 65.45 185.35
  L 59.12 183.46
  A 0.13 0.09 -72.5 0 0 58.99 183.56
  Q 58.99 183.57 59.01 183.66
  A 0.20 0.16 16.7 0 1 58.70 183.78
  L 58.38 183.56
  A 0.16 0.16 0.0 0 0 58.15 183.78
  Q 61.66 189.67 67.14 189.86
  A 0.28 0.28 0.0 0 0 67.42 189.51"
/>
<path stroke="#141313" vector-effect="non-scaling-stroke" d="
  M 114.91 197.96
  Q 111.32 196.91 107.73 196.34
  A 0.09 0.08 -83.3 0 1 107.66 196.24
  L 107.71 195.94
  A 0.13 0.13 0.0 0 1 107.86 195.83
  L 115.88 197.14
  A 0.17 0.17 0.0 0 0 116.04 196.87
  Q 115.87 196.65 115.09 196.16
  A 1.48 1.42 61.4 0 0 114.33 195.92
  Q 103.69 195.65 98.20 196.35
  Q 94.10 196.88 92.20 200.74
  L 92.20 200.75
  L 92.40 201.09
  A 0.13 0.12 -28.9 0 1 92.35 201.25
  Q 92.23 201.31 92.08 201.30
  A 0.05 0.03 38.9 0 0 92.11 201.38
  Q 95.56 202.09 96.13 202.18
  A 2.74 2.73 -49.0 0 0 97.37 202.09
  Q 100.77 201.03 102.86 201.04
  Q 109.89 201.07 114.52 198.96
  A 0.37 0.37 0.0 0 0 114.71 198.52
  L 114.64 198.27
  A 0.12 0.12 0.0 0 1 114.73 198.11
  Q 114.75 198.11 114.86 198.11
  A 0.09 0.07 -31.2 0 0 114.91 197.96"
/>
<path stroke="#141313" vector-effect="non-scaling-stroke" d="
  M 48.14 225.04
  L 59.77 233.77
  A 0.11 0.11 0.0 0 0 59.92 233.75
  L 59.93 233.73
  A 7.19 3.59 36.9 0 0 56.34 226.55
  L 56.03 226.32
  A 7.19 3.59 36.9 0 0 48.13 224.87
  L 48.12 224.89
  A 0.11 0.11 0.0 0 0 48.14 225.04"
/>
<path stroke="#141313" vector-effect="non-scaling-stroke" d="
  M 121.61 246.94
  L 121.77 248.64
  A 0.51 0.51 0.0 0 0 122.32 249.10
  L 129.27 248.45
  A 6.79 1.21 -5.3 0 0 135.92 246.62
  L 135.90 246.32
  A 6.79 1.21 -5.3 0 0 129.02 245.74
  L 122.07 246.39
  A 0.51 0.51 0.0 0 0 121.61 246.94"
/>
<path stroke="#141313" vector-effect="non-scaling-stroke" d="
  M 109.76 249.05
  Q 109.47 248.66 109.10 248.78
  Q 108.59 248.21 109.03 247.86
  A 0.30 0.29 -55.2 0 0 108.94 247.35
  L 103.51 245.47
  A 0.28 0.28 0.0 0 0 103.16 245.64
  L 102.45 247.71
  A 0.95 0.94 -68.0 0 0 102.94 248.88
  Q 104.42 249.57 104.95 249.52
  Q 105.27 249.50 109.48 249.57
  A 0.33 0.33 0.0 0 0 109.76 249.05"
/>
</g>
<path fill="#050605" d="
  M 190.50 14.26
  L 189.85 14.14
  A 0.33 0.33 0.0 0 0 189.59 14.73
  L 190.10 15.13
  A 0.02 0.02 0.0 0 1 190.08 15.17
  L 184.54 12.67
  A 0.74 0.72 29.0 0 0 183.63 12.92
  L 179.27 19.32
  Q 180.39 14.27 183.16 10.48
  A 0.99 0.98 27.6 0 1 184.28 10.13
  Q 187.98 11.44 190.50 14.26
  Z"
/>
<path fill="#222020" d="
  M 190.50 14.26
  Q 191.91 15.88 195.75 18.50
  Q 198.17 20.15 203.80 26.06
  C 210.88 33.51 217.48 39.63 224.27 46.73
  Q 228.09 50.72 233.44 54.90
  C 236.79 57.52 238.93 59.81 241.15 62.89
  Q 243.19 65.72 245.45 66.69
  A 2.45 2.35 58.7 0 0 246.09 66.86
  L 250.87 67.43
  A 2.10 2.09 75.7 0 1 252.34 68.31
  Q 254.24 71.07 253.42 74.84
  A 1.58 1.58 0.0 0 1 252.81 75.77
  Q 249.25 78.33 245.33 78.56
  A 2.85 2.72 25.4 0 0 244.00 79.00
  Q 239.61 81.87 235.26 84.52
  C 230.37 87.50 230.36 91.01 229.74 95.72
  C 227.65 105.54 228.04 115.18 227.76 124.42
  Q 227.57 130.64 226.37 138.24
  Q 224.25 151.62 222.34 165.06
  C 221.34 168.18 220.28 171.42 218.80 174.31
  Q 211.59 188.36 204.98 200.96
  C 202.98 204.77 196.79 210.16 194.05 214.08
  C 190.41 219.29 187.76 222.20 182.40 226.09
  C 177.98 229.31 174.91 231.96 170.66 235.66
  Q 169.89 236.33 168.30 236.96
  Q 157.72 238.68 154.16 239.40
  C 143.19 241.61 135.80 239.10 126.60 233.06
  A 0.98 0.97 16.6 0 1 126.15 232.24
  Q 126.15 227.23 128.68 222.99
  C 133.34 221.04 138.30 220.11 142.86 218.07
  Q 145.62 216.84 152.60 211.35
  Q 153.79 210.41 160.46 204.95
  C 163.51 202.45 166.02 199.50 168.28 196.77
  C 170.35 194.25 171.23 190.81 173.31 187.82
  A 1.99 1.82 -86.2 0 1 173.81 187.34
  Q 182.60 181.51 185.35 172.16
  C 186.37 168.73 187.21 162.99 188.78 158.99
  C 191.39 152.38 192.80 149.01 193.78 142.90
  Q 194.43 138.82 195.51 128.50
  Q 196.15 122.37 195.05 115.96
  C 193.73 108.27 183.74 106.45 177.31 107.27
  L 167.96 106.22
  A 1.07 1.07 0.0 0 1 167.02 104.98
  L 168.64 95.03
  A 1.10 1.09 -3.4 0 1 169.43 94.15
  C 174.42 92.74 177.41 91.33 177.05 85.78
  Q 176.42 76.07 176.17 70.21
  C 175.86 62.79 177.86 54.95 175.93 47.91
  A 0.07 0.07 0.0 0 0 175.79 47.93
  Q 176.09 56.53 175.14 64.36
  C 174.45 70.11 171.90 77.12 169.97 83.22
  C 170.71 76.88 171.37 70.50 172.56 64.27
  Q 174.67 53.23 175.62 42.01
  Q 176.12 35.98 177.50 26.51
  Q 178.04 22.74 179.27 19.32
  L 183.63 12.92
  A 0.74 0.72 29.0 0 1 184.54 12.67
  L 190.08 15.17
  A 0.02 0.02 0.0 0 0 190.10 15.13
  L 189.59 14.73
  A 0.33 0.33 0.0 0 1 189.85 14.14
  L 190.50 14.26
  Z"
/>
<path fill="#050605" d="
  M 29.46 44.91
  L 30.74 44.46
  A 1.19 1.19 0.0 0 1 32.26 45.93
  Q 30.86 50.53 29.28 54.08
  Q 28.09 56.73 25.88 56.96
  A 0.78 0.77 -82.4 0 0 25.24 57.46
  Q 24.39 59.71 23.37 61.64
  Q 22.95 62.43 22.15 62.38
  A 0.68 0.64 -83.6 0 1 21.56 61.60
  Q 21.73 60.48 22.58 56.65
  A 1.34 1.25 -29.0 0 1 22.68 56.34
  L 26.71 47.42
  A 4.69 4.68 2.6 0 1 29.46 44.91
  Z"
/>
<path fill="#050605" d="
  M 177.31 107.27
  C 174.46 108.42 170.40 109.90 167.33 109.20
  C 161.35 107.84 167.52 93.57 169.01 90.37
  A 2.24 2.03 -31.8 0 0 169.20 89.71
  L 169.97 83.22
  C 171.90 77.12 174.45 70.11 175.14 64.36
  Q 176.09 56.53 175.79 47.93
  A 0.07 0.07 0.0 0 1 175.93 47.91
  C 177.86 54.95 175.86 62.79 176.17 70.21
  Q 176.42 76.07 177.05 85.78
  C 177.41 91.33 174.42 92.74 169.43 94.15
  A 1.10 1.09 -3.4 0 0 168.64 95.03
  L 167.02 104.98
  A 1.07 1.07 0.0 0 0 167.96 106.22
  L 177.31 107.27
  Z"
/>
<path fill="#ed4b23" d="
  M 67.08 68.11
  Q 69.41 68.10 70.20 68.23
  Q 75.61 69.14 81.64 74.29
  A 4.39 4.27 77.8 0 0 82.39 74.79
  Q 86.17 76.70 88.79 79.47
  Q 94.52 85.52 99.12 92.62
  C 100.46 94.69 102.75 96.34 105.44 97.48
  Q 111.61 100.08 115.78 105.63
  Q 117.32 107.69 123.34 116.79
  Q 128.14 124.05 132.06 132.19
  C 133.35 134.86 133.91 136.70 132.93 139.63
  Q 130.24 147.69 122.39 150.79
  A 1.97 1.96 -51.7 0 1 121.40 150.91
  Q 117.93 150.46 115.45 149.00
  C 107.04 144.07 95.30 138.04 98.48 126.25
  A 3.81 3.80 83.1 0 1 100.31 123.91
  C 103.25 122.30 105.73 121.44 107.10 119.49
  A 0.38 0.37 18.2 0 0 106.80 118.90
  Q 105.54 118.86 100.78 118.56
  Q 99.02 118.45 97.03 117.16
  A 1.92 1.83 -88.7 0 1 96.40 116.47
  Q 95.95 115.63 93.10 107.41
  Q 91.70 103.37 88.38 100.30
  C 82.72 95.06 81.01 90.00 76.72 81.35
  C 75.11 78.09 71.03 74.95 67.26 71.76
  A 1.53 1.47 -77.1 0 1 66.75 70.91
  L 66.37 68.99
  A 0.73 0.73 0.0 0 1 67.08 68.11
  Z"
/>
<path fill="#050605" d="
  M 12.87 83.39
  L 12.59 94.16
  A 9.18 8.58 43.1 0 0 12.71 95.94
  C 13.50 100.58 14.14 102.95 14.14 106.72
  Q 14.13 113.37 14.05 119.47
  Q 14.00 122.87 14.81 127.95
  Q 15.82 134.17 15.10 140.39
  A 3.08 2.92 -31.4 0 1 14.86 141.28
  Q 14.13 142.91 14.09 144.40
  A 3.39 3.26 53.3 0 1 14.01 145.03
  Q 12.84 150.14 12.37 154.15
  Q 12.18 155.78 12.38 162.12
  Q 12.54 167.33 10.91 172.25
  C 10.49 173.52 10.49 174.41 9.23 175.22
  A 1.41 1.32 55.3 0 1 7.39 174.82
  Q 4.51 170.83 4.23 165.97
  A 4.88 4.86 34.9 0 0 4.00 164.70
  C 2.96 161.29 1.87 157.95 1.64 154.27
  C 0.61 138.22 0.90 122.27 1.45 101.42
  C 1.57 96.98 2.17 92.27 2.68 86.90
  Q 3.05 83.00 5.59 80.32
  A 2.50 2.47 79.3 0 0 6.08 79.59
  C 6.95 77.63 7.61 74.80 9.72 73.86
  A 1.57 1.57 0.0 0 1 11.90 74.98
  L 13.50 82.96
  A 0.34 0.33 80.8 0 1 13.21 83.37
  Q 12.98 83.39 12.89 83.38
  A 0.01 0.01 0.0 0 0 12.87 83.39
  Z
  M 8.88 140.64
  Q 11.79 124.34 10.85 103.92
  Q 10.41 94.61 8.57 87.94
  A 1.70 1.69 -7.6 0 0 6.93 86.69
  L 6.12 86.69
  A 1.41 1.41 0.0 0 0 4.72 88.28
  Q 5.32 92.78 5.83 98.02
  Q 6.07 100.49 4.82 106.38
  Q 4.50 107.86 5.92 114.16
  A 4.08 3.88 -53.0 0 1 6.00 114.85
  L 6.45 142.28
  A 0.39 0.39 0.0 0 0 7.08 142.58
  L 8.35 141.54
  A 1.52 1.50 75.9 0 0 8.88 140.64
  Z"
/>
<path fill="#222020" d="
  M 8.35 141.54
  L 7.08 142.58
  A 0.39 0.39 0.0 0 1 6.45 142.28
  L 6.00 114.85
  A 4.08 3.88 -53.0 0 0 5.92 114.16
  Q 4.50 107.86 4.82 106.38
  Q 6.07 100.49 5.83 98.02
  Q 5.32 92.78 4.72 88.28
  A 1.41 1.41 0.0 0 1 6.12 86.69
  L 6.93 86.69
  A 1.70 1.69 -7.6 0 1 8.57 87.94
  Q 10.41 94.61 10.85 103.92
  Q 11.79 124.34 8.88 140.64
  A 1.52 1.50 75.9 0 1 8.35 141.54
  Z"
/>
<path fill="#050605" d="
  M 229.74 95.72
  Q 228.38 104.99 228.89 114.33
  Q 229.31 122.00 229.05 125.67
  Q 227.64 145.65 222.34 165.06
  Q 224.25 151.62 226.37 138.24
  Q 227.57 130.64 227.76 124.42
  C 228.04 115.18 227.65 105.54 229.74 95.72
  Z"
/>
<path fill="#050605" d="
  M 154.20 160.35
  L 151.02 168.20
  A 6.04 6.02 76.2 0 1 150.00 169.89
  C 147.16 173.22 146.77 176.54 144.56 180.16
  Q 142.54 183.47 142.15 188.31
  A 0.50 0.50 0.0 0 0 142.69 188.85
  C 145.26 188.63 147.25 188.09 149.27 186.35
  Q 153.20 182.97 154.62 181.35
  C 157.77 177.78 158.10 173.35 160.18 169.93
  A 7.10 7.06 -89.7 0 1 162.59 167.53
  L 165.99 165.51
  A 6.15 6.12 -85.6 0 0 167.56 164.16
  C 170.16 161.02 171.83 157.72 174.93 154.98
  L 167.44 167.14
  A 1.81 1.81 0.0 0 1 166.49 167.90
  L 162.89 169.15
  A 3.15 3.15 0.0 0 0 160.93 171.11
  L 158.02 179.53
  A 0.62 0.60 75.2 0 1 157.89 179.76
  L 153.63 184.32
  A 0.09 0.03 -73.2 0 0 153.61 184.35
  Q 151.43 188.87 145.91 191.31
  A 2.97 2.81 11.6 0 0 145.20 191.75
  L 139.24 196.60
  A 2.00 1.98 -6.6 0 0 138.72 197.25
  Q 135.99 202.57 130.99 202.03
  Q 122.34 201.08 115.58 202.18
  C 107.72 203.46 100.12 203.87 92.44 202.50
  C 87.16 201.55 82.76 201.45 77.74 201.42
  A 6.80 6.77 60.7 0 1 74.25 200.43
  C 69.82 197.72 66.05 194.22 62.02 191.42
  Q 58.15 188.73 53.39 184.11
  A 3.32 3.16 -83.3 0 1 52.79 183.31
  C 51.13 180.20 49.15 175.31 46.67 171.32
  Q 44.61 168.01 44.40 167.10
  Q 43.26 162.01 38.86 159.49
  A 2.08 2.01 -0.9 0 1 38.19 158.86
  C 36.24 155.89 36.53 152.34 36.20 149.56
  Q 35.87 146.65 36.70 146.02
  Q 37.73 145.25 39.57 145.33
  A 1.48 1.47 72.2 0 1 40.67 145.90
  L 43.69 149.84
  A 2.55 2.03 20.1 0 1 43.97 150.30
  Q 45.25 153.07 47.89 159.86
  C 48.98 162.66 51.79 166.28 54.31 168.93
  C 56.52 171.26 57.06 174.60 59.57 176.70
  Q 63.84 180.26 69.69 184.55
  Q 71.45 185.84 73.23 186.50
  Q 77.77 188.18 82.21 189.90
  Q 84.75 190.87 85.89 191.65
  Q 88.85 193.67 88.91 193.69
  A 2.43 2.36 -33.9 0 0 89.85 193.86
  Q 91.54 193.86 97.24 194.23
  C 98.49 194.31 102.10 193.66 104.28 193.39
  Q 106.75 193.08 109.05 191.44
  A 1.02 0.74 9.2 0 1 109.25 191.34
  L 116.16 188.95
  A 2.54 2.25 13.4 0 0 116.83 188.59
  Q 120.32 186.00 125.74 185.40
  A 1.16 1.11 -64.7 0 0 126.29 185.19
  Q 126.98 184.72 129.70 184.30
  Q 132.09 183.94 135.14 183.11
  A 3.45 3.43 -76.8 0 0 136.84 182.05
  L 141.15 177.19
  A 1.83 1.50 84.3 0 0 141.39 176.83
  L 143.99 171.55
  A 0.62 0.49 89.3 0 1 144.15 171.34
  Q 147.32 168.73 149.86 164.10
  Q 151.22 161.63 154.20 160.35
  Z
  M 67.42 189.51
  Q 66.88 187.25 65.99 185.76
  A 0.94 0.93 -7.7 0 0 65.45 185.35
  L 59.12 183.46
  A 0.13 0.09 -72.5 0 0 58.99 183.56
  Q 58.99 183.57 59.01 183.66
  A 0.20 0.16 16.7 0 1 58.70 183.78
  L 58.38 183.56
  A 0.16 0.16 0.0 0 0 58.15 183.78
  Q 61.66 189.67 67.14 189.86
  A 0.28 0.28 0.0 0 0 67.42 189.51
  Z
  M 114.91 197.96
  Q 111.32 196.91 107.73 196.34
  A 0.09 0.08 -83.3 0 1 107.66 196.24
  L 107.71 195.94
  A 0.13 0.13 0.0 0 1 107.86 195.83
  L 115.88 197.14
  A 0.17 0.17 0.0 0 0 116.04 196.87
  Q 115.87 196.65 115.09 196.16
  A 1.48 1.42 61.4 0 0 114.33 195.92
  Q 103.69 195.65 98.20 196.35
  Q 94.10 196.88 92.20 200.74
  L 92.20 200.75
  L 92.40 201.09
  A 0.13 0.12 -28.9 0 1 92.35 201.25
  Q 92.23 201.31 92.08 201.30
  A 0.05 0.03 38.9 0 0 92.11 201.38
  Q 95.56 202.09 96.13 202.18
  A 2.74 2.73 -49.0 0 0 97.37 202.09
  Q 100.77 201.03 102.86 201.04
  Q 109.89 201.07 114.52 198.96
  A 0.37 0.37 0.0 0 0 114.71 198.52
  L 114.64 198.27
  A 0.12 0.12 0.0 0 1 114.73 198.11
  Q 114.75 198.11 114.86 198.11
  A 0.09 0.07 -31.2 0 0 114.91 197.96
  Z"
/>
<path fill="#222020" d="
  M 174.93 154.98
  C 171.83 157.72 170.16 161.02 167.56 164.16
  A 6.15 6.12 -85.6 0 1 165.99 165.51
  L 162.59 167.53
  A 7.10 7.06 -89.7 0 0 160.18 169.93
  C 158.10 173.35 157.77 177.78 154.62 181.35
  Q 153.20 182.97 149.27 186.35
  C 147.25 188.09 145.26 188.63 142.69 188.85
  A 0.50 0.50 0.0 0 1 142.15 188.31
  Q 142.54 183.47 144.56 180.16
  C 146.77 176.54 147.16 173.22 150.00 169.89
  A 6.04 6.02 76.2 0 0 151.02 168.20
  L 154.20 160.35
  Q 157.39 156.11 159.37 151.10
  A 3.24 3.12 -17.4 0 1 159.73 150.44
  Q 162.06 147.26 165.42 145.81
  A 4.42 4.29 -61.1 0 1 166.37 145.52
  C 171.04 144.70 179.21 149.45 174.93 154.98
  Z"
/>
<path fill="#050605" d="
  M 128.68 222.99
  Q 126.15 227.23 126.15 232.24
  A 0.98 0.97 16.6 0 0 126.60 233.06
  C 135.80 239.10 143.19 241.61 154.16 239.40
  Q 157.72 238.68 168.30 236.96
  Q 167.89 237.41 167.27 237.48
  C 159.51 239.54 151.36 240.71 143.76 243.04
  Q 139.51 244.34 137.09 247.04
  A 1.67 1.59 -73.8 0 1 136.25 247.53
  Q 130.31 248.81 122.17 249.32
  C 121.82 249.34 121.43 249.09 121.02 248.89
  A 0.47 0.47 0.0 0 0 120.40 249.11
  Q 120.26 249.39 120.25 249.62
  A 0.50 0.49 89.5 0 0 120.78 250.15
  L 129.69 249.44
  A 0.22 0.21 -10.2 0 1 129.91 249.59
  L 129.91 249.60
  A 0.24 0.24 0.0 0 1 129.71 249.81
  L 121.51 251.46
  A 0.41 0.40 78.6 0 0 121.20 251.94
  L 121.26 252.26
  A 0.15 0.14 -13.1 0 0 121.44 252.37
  L 129.57 250.27
  L 124.42 253.70
  A 2.34 2.28 23.0 0 1 123.52 254.05
  Q 114.06 255.60 105.08 254.10
  C 102.91 253.74 101.02 253.68 98.51 253.00
  Q 96.76 252.53 93.13 252.57
  Q 92.09 252.59 89.80 250.86
  A 1.55 0.45 21.4 0 0 89.65 250.76
  L 80.07 245.32
  A 3.69 3.09 -16.3 0 0 79.43 245.04
  C 75.77 243.90 69.73 242.45 65.46 239.74
  Q 54.84 233.01 53.42 231.62
  Q 46.07 224.39 39.57 219.22
  Q 38.32 218.23 35.97 215.06
  Q 34.50 213.07 29.07 203.99
  Q 28.14 202.43 26.52 201.48
  C 21.56 198.53 20.15 194.18 17.59 187.53
  A 4.95 4.67 32.7 0 1 17.29 186.32
  C 16.52 179.48 19.06 172.77 20.63 165.62
  Q 20.99 163.97 22.96 162.59
  A 1.01 1.00 -50.0 0 1 23.97 162.50
  C 26.94 163.91 28.01 167.04 29.22 170.26
  C 30.41 173.42 32.59 176.93 33.54 180.07
  A 2.92 2.76 40.1 0 1 33.65 181.04
  C 33.42 184.67 33.36 189.32 37.49 190.81
  Q 42.60 192.64 45.40 198.24
  A 5.76 5.63 11.4 0 0 46.25 199.49
  Q 52.51 206.60 59.64 211.11
  Q 61.52 212.30 71.33 217.64
  Q 73.03 218.56 82.50 221.23
  A 5.63 5.30 -22.3 0 1 83.57 221.64
  Q 90.43 225.09 99.75 225.86
  Q 115.25 227.14 128.68 222.99
  Z
  M 48.14 225.04
  L 59.77 233.77
  A 0.11 0.11 0.0 0 0 59.92 233.75
  L 59.93 233.73
  A 7.19 3.59 36.9 0 0 56.34 226.55
  L 56.03 226.32
  A 7.19 3.59 36.9 0 0 48.13 224.87
  L 48.12 224.89
  A 0.11 0.11 0.0 0 0 48.14 225.04
  Z
  M 121.61 246.94
  L 121.77 248.64
  A 0.51 0.51 0.0 0 0 122.32 249.10
  L 129.27 248.45
  A 6.79 1.21 -5.3 0 0 135.92 246.62
  L 135.90 246.32
  A 6.79 1.21 -5.3 0 0 129.02 245.74
  L 122.07 246.39
  A 0.51 0.51 0.0 0 0 121.61 246.94
  Z
  M 109.76 249.05
  Q 109.47 248.66 109.10 248.78
  Q 108.59 248.21 109.03 247.86
  A 0.30 0.29 -55.2 0 0 108.94 247.35
  L 103.51 245.47
  A 0.28 0.28 0.0 0 0 103.16 245.64
  L 102.45 247.71
  A 0.95 0.94 -68.0 0 0 102.94 248.88
  Q 104.42 249.57 104.95 249.52
  Q 105.27 249.50 109.48 249.57
  A 0.33 0.33 0.0 0 0 109.76 249.05
  Z"
/>
<path fill="#222020" d="
  M 67.14 189.86
  Q 61.66 189.67 58.15 183.78
  A 0.16 0.16 0.0 0 1 58.38 183.56
  L 58.70 183.78
  A 0.20 0.16 16.7 0 0 59.01 183.66
  Q 58.99 183.57 58.99 183.56
  A 0.13 0.09 -72.5 0 1 59.12 183.46
  L 65.45 185.35
  A 0.94 0.93 -7.7 0 1 65.99 185.76
  Q 66.88 187.25 67.42 189.51
  A 0.28 0.28 0.0 0 1 67.14 189.86
  Z"
/>
<path fill="#222020" d="
  M 114.86 198.11
  Q 114.75 198.11 114.73 198.11
  A 0.12 0.12 0.0 0 0 114.64 198.27
  L 114.71 198.52
  A 0.37 0.37 0.0 0 1 114.52 198.96
  Q 109.89 201.07 102.86 201.04
  Q 100.77 201.03 97.37 202.09
  A 2.74 2.73 -49.0 0 1 96.13 202.18
  Q 95.56 202.09 92.11 201.38
  A 0.05 0.03 38.9 0 1 92.08 201.30
  Q 92.23 201.31 92.35 201.25
  A 0.13 0.12 -28.9 0 0 92.40 201.09
  L 92.20 200.75
  L 92.20 200.74
  Q 94.10 196.88 98.20 196.35
  Q 103.69 195.65 114.33 195.92
  A 1.48 1.42 61.4 0 1 115.09 196.16
  Q 115.87 196.65 116.04 196.87
  A 0.17 0.17 0.0 0 1 115.88 197.14
  L 107.86 195.83
  A 0.13 0.13 0.0 0 0 107.71 195.94
  L 107.66 196.24
  A 0.09 0.08 -83.3 0 0 107.73 196.34
  Q 111.32 196.91 114.91 197.96
  A 0.09 0.07 -31.2 0 1 114.86 198.11
  Z"
/>
<path fill="#222020" d="
  M 48.14 225.04
  A 0.11 0.11 0.0 0 1 48.12 224.89
  L 48.13 224.87
  A 7.19 3.59 36.9 0 1 56.03 226.32
  L 56.34 226.55
  A 7.19 3.59 36.9 0 1 59.93 233.73
  L 59.92 233.75
  A 0.11 0.11 0.0 0 1 59.77 233.77
  L 48.14 225.04
  Z"
/>
<path fill="#222020" d="
  M 167.27 237.48
  Q 165.94 238.46 164.29 239.08
  Q 157.49 241.63 150.86 244.61
  Q 144.10 247.65 129.57 250.27
  L 121.44 252.37
  A 0.15 0.14 -13.1 0 1 121.26 252.26
  L 121.20 251.94
  A 0.41 0.40 78.6 0 1 121.51 251.46
  L 129.71 249.81
  A 0.24 0.24 0.0 0 0 129.91 249.60
  L 129.91 249.59
  A 0.22 0.21 -10.2 0 0 129.69 249.44
  L 120.78 250.15
  A 0.50 0.49 89.5 0 1 120.25 249.62
  Q 120.26 249.39 120.40 249.11
  A 0.47 0.47 0.0 0 1 121.02 248.89
  C 121.43 249.09 121.82 249.34 122.17 249.32
  Q 130.31 248.81 136.25 247.53
  A 1.67 1.59 -73.8 0 0 137.09 247.04
  Q 139.51 244.34 143.76 243.04
  C 151.36 240.71 159.51 239.54 167.27 237.48
  Z"
/>
<path fill="#222020" d="
  M 121.61 246.94
  A 0.51 0.51 0.0 0 1 122.07 246.39
  L 129.02 245.74
  A 6.79 1.21 -5.3 0 1 135.90 246.32
  L 135.92 246.62
  A 6.79 1.21 -5.3 0 1 129.27 248.45
  L 122.32 249.10
  A 0.51 0.51 0.0 0 1 121.77 248.64
  L 121.61 246.94
  Z"
/>
<path fill="#222020" d="
  M 109.48 249.57
  Q 105.27 249.50 104.95 249.52
  Q 104.42 249.57 102.94 248.88
  A 0.95 0.94 -68.0 0 1 102.45 247.71
  L 103.16 245.64
  A 0.28 0.28 0.0 0 1 103.51 245.47
  L 108.94 247.35
  A 0.30 0.29 -55.2 0 1 109.03 247.86
  Q 108.59 248.21 109.10 248.78
  Q 109.47 248.66 109.76 249.05
  A 0.33 0.33 0.0 0 1 109.48 249.57
  Z"
/>
</svg>