<?xml version="1.0" encoding="UTF-8" standalone="no"?>
<!DOCTYPE svg PUBLIC "-//W3C//DTD SVG 1.1//EN" "http://www.w3.org/Graphics/SVG/1.1/DTD/svg11.dtd">
<svg xmlns="http://www.w3.org/2000/svg" version="1.1" viewBox="0.00 0.00 192.00 192.00" width="128" height="128">
<g stroke-width="2.00" fill="none" stroke-linecap="butt">
<path stroke="#8098b8" vector-effect="non-scaling-stroke" d="
  M 32.71 21.75
  L 32.21 163.91
  A 0.83 0.83 0.0 0 0 33.04 164.74
  L 100.33 164.98
  A 73.96 69.49 0.2 0 0 174.53 95.75
  L 174.55 90.91
  A 73.96 69.49 0.2 0 0 100.83 21.16
  L 33.54 20.93
  A 0.83 0.83 0.0 0 0 32.71 21.75"
/>
<path stroke="#8098b8" vector-effect="non-scaling-stroke" d="
  M 53.94 38.32
  L 53.74 147.56
  A 0.33 0.33 0.0 0 0 54.07 147.89
  L 97.75 147.97
  A 55.27 52.53 0.1 0 0 153.12 95.54
  L 153.12 90.70
  A 55.27 52.53 0.1 0 0 97.95 38.07
  L 54.27 37.99
  A 0.33 0.33 0.0 0 0 53.94 38.32"
/>
</g>
<path fill="#003171" d="
  M 192.00 0.00
  L 192.00 192.00
  L 0.00 192.00
  L 0.00 0.00
  L 192.00 0.00
  Z
  M 32.71 21.75
  L 32.21 163.91
  A 0.83 0.83 0.0 0 0 33.04 164.74
  L 100.33 164.98
  A 73.96 69.49 0.2 0 0 174.53 95.75
  L 174.55 90.91
  A 73.96 69.49 0.2 0 0 100.83 21.16
  L 33.54 20.93
  A 0.83 0.83 0.0 0 0 32.71 21.75
  Z"
/>
<path fill="#ffffff" d="
  M 32.71 21.75
  A 0.83 0.83 0.0 0 1 33.54 20.93
  L 100.83 21.16
  A 73.96 69.49 0.2 0 1 174.55 90.91
  L 174.53 95.75
  A 73.96 69.49 0.2 0 1 100.33 164.98
  L 33.04 164.74
  A 0.83 0.83 0.0 0 1 32.21 163.91
  L 32.71 21.75
  Z
  M 53.94 38.32
  L 53.74 147.56
  A 0.33 0.33 0.0 0 0 54.07 147.89
  L 97.75 147.97
  A 55.27 52.53 0.1 0 0 153.12 95.54
  L 153.12 90.70
  A 55.27 52.53 0.1 0 0 97.95 38.07
  L 54.27 37.99
  A 0.33 0.33 0.0 0 0 53.94 38.32
  Z"
/>
<path fill="#003171" d="
  M 53.94 38.32
  A 0.33 0.33 0.0 0 1 54.27 37.99
  L 97.95 38.07
  A 55.27 52.53 0.1 0 1 153.12 90.70
  L 153.12 95.54
  A 55.27 52.53 0.1 0 1 97.75 147.97
  L 54.07 147.89
  A 0.33 0.33 0.0 0 1 53.74 147.56
  L 53.94 38.32
  Z"
/>
</svg>