<?xml version="1.0" encoding="UTF-8" standalone="no"?>
<!DOCTYPE svg PUBLIC "-//W3C//DTD SVG 1.1//EN" "http://www.w3.org/Graphics/SVG/1.1/DTD/svg11.dtd">
<svg xmlns="http://www.w3.org/2000/svg" version="1.1" viewBox="0.00 0.00 300.00 300.00" width="128" height="128">
<g stroke-width="2.00" fill="none" stroke-linecap="butt">
<path stroke="#808080" vector-effect="non-scaling-stroke" d="
  M 150.36 57.81
  A 0.43 0.43 0.0 0 0 149.93 57.38
  L 53.03 57.38
  A 0.43 0.43 0.0 0 0 52.60 57.81
  L 52.60 77.45
  A 0.43 0.43 0.0 0 0 53.03 77.88
  L 149.93 77.88
  A 0.43 0.43 0.0 0 0 150.36 77.45
  L 150.36 57.81"
/>
<path stroke="#808080" vector-effect="non-scaling-stroke" d="
  M 150.34 98.94
  A 0.44 0.44 0.0 0 1 150.78 98.50
  L 198.78 98.50
  A 0.44 0.44 0.0 0 0 199.22 98.06
  L 199.22 78.30
  A 0.44 0.44 0.0 0 0 198.78 77.86
  L 150.74 77.86
  A 0.44 0.44 0.0 0 0 150.30 78.30
  L 150.30 98.02
  A 0.44 0.44 0.0 0 1 149.86 98.46
  L 53.03 98.46
  A 0.44 0.44 0.0 0 0 52.59 98.90
  L 52.59 118.67
  A 0.44 0.44 0.0 0 0 53.03 119.11
  L 149.90 119.11
  A 0.44 0.44 0.0 0 0 150.34 118.67
  L 150.34 98.94"
/>
<path stroke="#808080" vector-effect="non-scaling-stroke" d="
  M 247.97 119.59
  A 0.46 0.46 0.0 0 0 247.51 119.13
  L 199.65 119.13
  A 0.46 0.46 0.0 0 0 199.19 119.59
  L 199.19 139.25
  A 0.46 0.46 0.0 0 0 199.65 139.71
  L 247.51 139.71
  A 0.46 0.46 0.0 0 0 247.97 139.25
  L 247.97 119.59"
/>
<path stroke="#808080" vector-effect="non-scaling-stroke" d="
  M 199.21 160.35
  L 199.21 180.48
  A 0.44 0.43 -90.0 0 0 199.64 180.92
  L 247.48 180.92
  A 0.49 0.48 -90.0 0 0 247.96 180.43
  L 247.96 160.75
  A 0.40 0.40 0.0 0 0 247.56 160.35
  L 199.21 160.35"
/>
<path stroke="#808080" vector-effect="non-scaling-stroke" d="
  M 199.21 160.35
  L 199.16 140.20
  A 0.52 0.51 -0.0 0 0 198.64 139.69
  L 53.16 139.69
  A 0.55 0.55 0.0 0 0 52.61 140.24
  L 52.61 159.74
  A 0.61 0.61 0.0 0 0 53.22 160.35
  L 199.21 160.35"
/>
<path stroke="#808080" vector-effect="non-scaling-stroke" d="
  M 150.32 181.47
  A 0.62 0.62 0.0 0 0 149.70 180.85
  L 53.20 180.85
  A 0.62 0.62 0.0 0 0 52.58 181.47
  L 52.58 200.91
  A 0.62 0.62 0.0 0 0 53.20 201.53
  L 149.70 201.53
  A 0.62 0.62 0.0 0 0 150.32 200.91
  L 150.32 181.47"
/>
<path stroke="#808080" vector-effect="non-scaling-stroke" d="
  M 199.24 202.03
  A 0.52 0.52 0.0 0 0 198.72 201.51
  L 150.82 201.51
  A 0.52 0.52 0.0 0 0 150.30 202.03
  L 150.30 221.65
  A 0.52 0.52 0.0 0 0 150.82 222.17
  L 198.72 222.17
  A 0.52 0.52 0.0 0 0 199.24 221.65
  L 199.24 202.03"
/>
<path stroke="#808080" vector-effect="non-scaling-stroke" d="
  M 150.32 222.55
  A 0.44 0.44 0.0 0 0 149.88 222.11
  L 53.02 222.11
  A 0.44 0.44 0.0 0 0 52.58 222.55
  L 52.58 242.19
  A 0.44 0.44 0.0 0 0 53.02 242.63
  L 149.88 242.63
  A 0.44 0.44 0.0 0 0 150.32 242.19
  L 150.32 222.55"
/>
</g>
<path fill="#000000" d="
  M 256.24 0.00
  C 279.04 4.41 295.73 20.93 300.00 43.71
  L 300.00 255.63
  C 295.17 280.33 276.13 297.94 251.07 300.00
  L 49.48 300.00
  C 22.61 297.50 2.22 277.53 0.00 250.57
  L 0.00 49.01
  C 1.95 23.97 19.63 4.84 44.30 0.00
  L 256.24 0.00
  Z
  M 150.36 57.81
  A 0.43 0.43 0.0 0 0 149.93 57.38
  L 53.03 57.38
  A 0.43 0.43 0.0 0 0 52.60 57.81
  L 52.60 77.45
  A 0.43 0.43 0.0 0 0 53.03 77.88
  L 149.93 77.88
  A 0.43 0.43 0.0 0 0 150.36 77.45
  L 150.36 57.81
  Z
  M 150.34 98.94
  A 0.44 0.44 0.0 0 1 150.78 98.50
  L 198.78 98.50
  A 0.44 0.44 0.0 0 0 199.22 98.06
  L 199.22 78.30
  A 0.44 0.44 0.0 0 0 198.78 77.86
  L 150.74 77.86
  A 0.44 0.44 0.0 0 0 150.30 78.30
  L 150.30 98.02
  A 0.44 0.44 0.0 0 1 149.86 98.46
  L 53.03 98.46
  A 0.44 0.44 0.0 0 0 52.59 98.90
  L 52.59 118.67
  A 0.44 0.44 0.0 0 0 53.03 119.11
  L 149.90 119.11
  A 0.44 0.44 0.0 0 0 150.34 118.67
  L 150.34 98.94
  Z
  M 247.97 119.59
  A 0.46 0.46 0.0 0 0 247.51 119.13
  L 199.65 119.13
  A 0.46 0.46 0.0 0 0 199.19 119.59
  L 199.19 139.25
  A 0.46 0.46 0.0 0 0 199.65 139.71
  L 247.51 139.71
  A 0.46 0.46 0.0 0 0 247.97 139.25
  L 247.97 119.59
  Z
  M 199.21 160.35
  L 199.21 180.48
  A 0.44 0.43 -90.0 0 0 199.64 180.92
  L 247.48 180.92
  A 0.49 0.48 -90.0 0 0 247.96 180.43
  L 247.96 160.75
  A 0.40 0.40 0.0 0 0 247.56 160.35
  L 199.21 160.35
  L 199.16 140.20
  A 0.52 0.51 -0.0 0 0 198.64 139.69
  L 53.16 139.69
  A 0.55 0.55 0.0 0 0 52.61 140.24
  L 52.61 159.74
  A 0.61 0.61 0.0 0 0 53.22 160.35
  L 199.21 160.35
  Z
  M 150.32 181.47
  A 0.62 0.62 0.0 0 0 149.70 180.85
  L 53.20 180.85
  A 0.62 0.62 0.0 0 0 52.58 181.47
  L 52.58 200.91
  A 0.62 0.62 0.0 0 0 53.20 201.53
  L 149.70 201.53
  A 0.62 0.62 0.0 0 0 150.32 200.91
  L 150.32 181.47
  Z
  M 199.24 202.03
  A 0.52 0.52 0.0 0 0 198.72 201.51
  L 150.82 201.51
  A 0.52 0.52 0.0 0 0 150.30 202.03
  L 150.30 221.65
  A 0.52 0.52 0.0 0 0 150.82 222.17
  L 198.72 222.17
  A 0.52 0.52 0.0 0 0 199.24 221.65
  L 199.24 202.03
  Z
  M 150.32 222.55
  A 0.44 0.44 0.0 0 0 149.88 222.11
  L 53.02 222.11
  A 0.44 0.44 0.0 0 0 52.58 222.55
  L 52.58 242.19
  A 0.44 0.44 0.0 0 0 53.02 242.63
  L 149.88 242.63
  A 0.44 0.44 0.0 0 0 150.32 242.19
  L 150.32 222.55
  Z"
/>
<rect fill="#ffffff" x="52.60" y="57.38" width="97.76" height="20.50" rx="0.43"/>
<path fill="#ffffff" d="
  M 150.34 98.94
  L 150.34 118.67
  A 0.44 0.44 0.0 0 1 149.90 119.11
  L 53.03 119.11
  A 0.44 0.44 0.0 0 1 52.59 118.67
  L 52.59 98.90
  A 0.44 0.44 0.0 0 1 53.03 98.46
  L 149.86 98.46
  A 0.44 0.44 0.0 0 0 150.30 98.02
  L 150.30 78.30
  A 0.44 0.44 0.0 0 1 150.74 77.86
  L 198.78 77.86
  A 0.44 0.44 0.0 0 1 199.22 78.30
  L 199.22 98.06
  A 0.44 0.44 0.0 0 1 198.78 98.50
  L 150.78 98.50
  A 0.44 0.44 0.0 0 0 150.34 98.94
  Z"
/>
<rect fill="#ffffff" x="199.19" y="119.13" width="48.78" height="20.58" rx="0.46"/>
<path fill="#ffffff" d="
  M 199.21 160.35
  L 53.22 160.35
  A 0.61 0.61 0.0 0 1 52.61 159.74
  L 52.61 140.24
  A 0.55 0.55 0.0 0 1 53.16 139.69
  L 198.64 139.69
  A 0.52 0.51 0.0 0 1 199.16 140.20
  L 199.21 160.35
  Z"
/>
<path fill="#ffffff" d="
  M 199.21 160.35
  L 247.56 160.35
  A 0.40 0.40 0.0 0 1 247.96 160.75
  L 247.96 180.43
  A 0.49 0.48 90.0 0 1 247.48 180.92
  L 199.64 180.92
  A 0.44 0.43 90.0 0 1 199.21 180.48
  L 199.21 160.35
  Z"
/>
<rect fill="#ffffff" x="52.58" y="180.85" width="97.74" height="20.68" rx="0.62"/>
<rect fill="#ffffff" x="150.30" y="201.51" width="48.94" height="20.66" rx="0.52"/>
<rect fill="#ffffff" x="52.58" y="222.11" width="97.74" height="20.52" rx="0.44"/>
</svg>