<?xml version="1.0" encoding="UTF-8" standalone="no"?>
<!DOCTYPE svg PUBLIC "-//W3C//DTD SVG 1.1//EN" "http://www.w3.org/Graphics/SVG/1.1/DTD/svg11.dtd">
<svg xmlns="http://www.w3.org/2000/svg" version="1.1" viewBox="0.00 0.00 128.00 128.00" width="128" height="128">
<path fill="#4d6bfe" d="
  M 0.00 65.10
  L 0.00 57.03
  Q 1.79 39.86 14.88 29.89
  Q 18.74 26.96 25.51 24.80
  Q 33.09 22.39 45.75 24.09
  A 4.12 4.10 -48.8 0 0 47.33 23.98
  C 53.21 22.33 61.20 18.10 67.61 20.55
  A 0.82 0.82 0.0 0 1 67.76 22.00
  C 65.06 23.78 62.52 25.66 63.65 29.13
  Q 64.22 30.85 68.14 33.81
  Q 74.74 38.79 76.53 40.91
  Q 82.96 48.55 91.51 53.67
  A 1.86 1.86 0.0 0 0 94.25 52.58
  L 95.24 49.05
  A 2.39 2.38 -66.0 0 0 94.22 46.38
  C 84.89 40.47 82.70 28.05 87.46 18.37
  A 1.08 1.07 6.0 0 1 88.17 17.80
  Q 90.28 17.28 90.61 19.24
  C 91.80 26.29 97.53 25.79 101.35 29.70
  Q 103.35 31.76 103.82 34.78
  A 0.37 0.37 0.0 0 0 104.45 34.98
  Q 107.64 31.53 112.55 30.88
  Q 115.28 30.53 117.52 30.43
  A 4.12 4.11 -59.4 0 0 119.26 29.98
  Q 122.17 28.49 124.19 25.93
  A 1.82 1.82 0.0 0 1 127.30 26.36
  Q 127.35 26.50 127.37 27.48
  C 127.57 39.67 119.92 48.51 107.88 49.81
  A 0.74 0.73 87.8 0 0 107.23 50.52
  Q 106.67 69.72 96.00 84.80
  C 94.37 87.11 91.42 89.99 89.22 92.85
  A 0.45 0.45 0.0 0 0 89.44 93.55
  Q 94.86 95.29 99.95 97.89
  A 2.17 2.06 21.4 0 1 101.08 100.31
  C 100.38 102.92 98.31 103.02 95.81 103.40
  Q 87.52 104.69 79.64 101.85
  A 0.87 0.86 34.1 0 0 78.78 102.01
  C 71.32 108.50 61.57 111.76 51.49 111.50
  C 47.27 111.40 44.60 111.83 40.90 110.94
  Q 17.62 105.35 6.10 85.65
  Q 0.95 76.85 0.00 65.10
  Z
  M 77.01 100.67
  A 0.24 0.24 0.0 0 0 77.11 100.24
  Q 72.52 97.10 69.11 93.39
  Q 62.64 86.36 55.80 75.71
  Q 46.67 61.52 30.68 54.61
  Q 29.84 54.25 27.33 53.39
  Q 18.72 50.41 10.31 51.62
  A 2.44 2.43 -5.6 0 0 8.23 54.15
  Q 9.10 71.34 19.17 84.55
  C 22.65 89.11 27.59 93.20 32.63 96.05
  Q 37.36 98.72 42.13 97.50
  A 2.31 2.30 -25.0 0 0 43.43 93.93
  Q 41.62 91.39 41.07 87.82
  A 1.66 1.65 0.2 0 1 42.97 85.94
  Q 45.52 86.34 47.94 87.83
  Q 55.36 92.38 62.13 98.01
  A 3.98 3.75 -10.7 0 0 62.99 98.56
  Q 69.29 101.69 77.01 100.67
  Z
  M 83.94 71.25
  A 1.74 1.74 0.0 0 0 84.63 69.06
  Q 81.34 61.58 75.40 56.87
  Q 71.42 53.72 66.94 55.76
  A 1.55 1.55 0.0 0 0 67.21 58.67
  C 69.69 59.28 72.44 59.37 73.19 62.14
  A 2.12 2.12 0.0 0 1 73.24 62.93
  C 72.89 66.03 72.63 68.62 75.34 70.69
  Q 79.54 73.90 83.94 71.25
  Z"
/>
</svg>