<?xml version="1.0" encoding="UTF-8" standalone="no"?>
<!DOCTYPE svg PUBLIC "-//W3C//DTD SVG 1.1//EN" "http://www.w3.org/Graphics/SVG/1.1/DTD/svg11.dtd">
<svg xmlns="http://www.w3.org/2000/svg" version="1.1" viewBox="0.00 0.00 256.00 256.00" width="128" height="128">
<g stroke-width="2.00" fill="none" stroke-linecap="butt">
<path stroke="#080809" vector-effect="non-scaling-stroke" d="
  M 102.12 0.00
  C 109.30 12.05 117.89 20.59 128.41 30.62
  Q 135.63 37.49 143.88 50.15"
/>
<path stroke="#808080" vector-effect="non-scaling-stroke" d="
  M 143.88 50.15
  Q 135.66 49.11 125.75 49.05
  Q 88.26 48.79 67.51 48.89
  Q 62.85 48.92 59.37 49.26
  A 1.35 1.34 87.2 0 0 58.16 50.60
  L 58.16 127.59
  A 0.95 0.95 0.0 0 0 58.97 128.53
  C 64.67 129.35 70.72 129.14 76.79 129.16
  Q 97.04 129.25 104.19 129.00
  A 0.72 0.72 0.0 0 0 104.89 128.28
  L 104.89 96.32
  A 0.35 0.35 0.0 0 1 105.23 95.97
  Q 113.75 95.64 127.75 95.70
  Q 134.51 95.72 138.99 96.78
  C 149.76 99.31 160.12 109.98 162.52 120.75
  C 167.49 143.16 151.87 161.93 129.22 162.38
  Q 115.07 162.67 109.76 162.63
  Q 105.49 162.61 104.04 163.80
  Q 100.84 166.45 97.32 170.07
  Q 85.13 182.58 63.05 204.74
  C 62.28 205.51 60.70 206.35 60.56 206.54
  A 0.48 0.48 0.0 0 0 60.74 207.26
  Q 65.53 209.47 66.22 209.39
  Q 71.08 208.81 76.07 209.37
  A 5.41 5.37 -45.2 0 0 77.25 209.36
  Q 79.50 209.09 86.25 209.20
  Q 103.00 209.46 129.47 209.17
  Q 149.56 208.96 166.81 199.97
  Q 183.25 191.42 194.34 176.71
  Q 205.24 162.26 209.01 143.77"
/>
<path stroke="#080809" vector-effect="non-scaling-stroke" d="
  M 209.01 143.77
  Q 213.11 143.54 215.59 144.25
  C 228.50 147.91 242.88 152.14 256.00 146.34"
/>
<path stroke="#888888" vector-effect="non-scaling-stroke" d="
  M 209.01 143.77
  C 214.54 111.96 201.47 80.47 174.72 62.53
  Q 160.66 53.11 143.88 50.15"
/>
</g>
<path fill="#000000" d="
  M 102.12 0.00
  C 109.30 12.05 117.89 20.59 128.41 30.62
  Q 135.63 37.49 143.88 50.15
  Q 135.66 49.11 125.75 49.05
  Q 88.26 48.79 67.51 48.89
  Q 62.85 48.92 59.37 49.26
  A 1.35 1.34 87.2 0 0 58.16 50.60
  L 58.16 127.59
  A 0.95 0.95 0.0 0 0 58.97 128.53
  C 64.67 129.35 70.72 129.14 76.79 129.16
  Q 97.04 129.25 104.19 129.00
  A 0.72 0.72 0.0 0 0 104.89 128.28
  L 104.89 96.32
  A 0.35 0.35 0.0 0 1 105.23 95.97
  Q 113.75 95.64 127.75 95.70
  Q 134.51 95.72 138.99 96.78
  C 149.76 99.31 160.12 109.98 162.52 120.75
  C 167.49 143.16 151.87 161.93 129.22 162.38
  Q 115.07 162.67 109.76 162.63
  Q 105.49 162.61 104.04 163.80
  Q 100.84 166.45 97.32 170.07
  Q 85.13 182.58 63.05 204.74
  C 62.28 205.51 60.70 206.35 60.56 206.54
  A 0.48 0.48 0.0 0 0 60.74 207.26
  Q 65.53 209.47 66.22 209.39
  Q 71.08 208.81 76.07 209.37
  A 5.41 5.37 -45.2 0 0 77.25 209.36
  Q 79.50 209.09 86.25 209.20
  Q 103.00 209.46 129.47 209.17
  Q 149.56 208.96 166.81 199.97
  Q 183.25 191.42 194.34 176.71
  Q 205.24 162.26 209.01 143.77
  Q 213.11 143.54 215.59 144.25
  C 228.50 147.91 242.88 152.14 256.00 146.34
  L 256.00 256.00
  L 0.00 256.00
  L 0.00 0.00
  L 102.12 0.00
  Z"
/>
<path fill="#101011" d="
  M 256.00 0.00
  L 256.00 146.34
  C 242.88 152.14 228.50 147.91 215.59 144.25
  Q 213.11 143.54 209.01 143.77
  C 214.54 111.96 201.47 80.47 174.72 62.53
  Q 160.66 53.11 143.88 50.15
  Q 135.63 37.49 128.41 30.62
  C 117.89 20.59 109.30 12.05 102.12 0.00
  L 256.00 0.00
  Z"
/>
<path fill="#ffffff" d="
  M 143.88 50.15
  Q 160.66 53.11 174.72 62.53
  C 201.47 80.47 214.54 111.96 209.01 143.77
  Q 205.24 162.26 194.34 176.71
  Q 183.25 191.42 166.81 199.97
  Q 149.56 208.96 129.47 209.17
  Q 103.00 209.46 86.25 209.20
  Q 79.50 209.09 77.25 209.36
  A 5.41 5.37 -45.2 0 1 76.07 209.37
  Q 71.08 208.81 66.22 209.39
  Q 65.53 209.47 60.74 207.26
  A 0.48 0.48 0.0 0 1 60.56 206.54
  C 60.70 206.35 62.28 205.51 63.05 204.74
  Q 85.13 182.58 97.32 170.07
  Q 100.84 166.45 104.04 163.80
  Q 105.49 162.61 109.76 162.63
  Q 115.07 162.67 129.22 162.38
  C 151.87 161.93 167.49 143.16 162.52 120.75
  C 160.12 109.98 149.76 99.31 138.99 96.78
  Q 134.51 95.72 127.75 95.70
  Q 113.75 95.64 105.23 95.97
  A 0.35 0.35 0.0 0 0 104.89 96.32
  L 104.89 128.28
  A 0.72 0.72 0.0 0 1 104.19 129.00
  Q 97.04 129.25 76.79 129.16
  C 70.72 129.14 64.67 129.35 58.97 128.53
  A 0.95 0.95 0.0 0 1 58.16 127.59
  L 58.16 50.60
  A 1.35 1.34 87.2 0 1 59.37 49.26
  Q 62.85 48.92 67.51 48.89
  Q 88.26 48.79 125.75 49.05
  Q 135.66 49.11 143.88 50.15
  Z"
/>
</svg>