<?xml version="1.0" encoding="UTF-8" standalone="no"?>
<!DOCTYPE svg PUBLIC "-//W3C//DTD SVG 1.1//EN" "http://www.w3.org/Graphics/SVG/1.1/DTD/svg11.dtd">
<svg xmlns="http://www.w3.org/2000/svg" version="1.1" viewBox="0.00 0.00 180.00 180.00" width="128" height="128">
<g stroke-width="2.00" fill="none" stroke-linecap="butt">
<path stroke="#397aa3" vector-effect="non-scaling-stroke" d="
  M 25.22 48.10
  Q 21.91 51.40 21.87 56.39
  Q 21.80 63.55 21.85 66.99
  A 0.62 0.61 -0.4 0 0 22.47 67.59
  L 32.66 67.60
  A 0.64 0.64 0.0 0 0 33.30 66.96
  Q 33.31 61.72 33.29 56.61
  Q 33.29 56.44 33.39 56.35
  Q 33.56 56.18 33.72 56.18
  Q 38.84 56.20 44.08 56.19
  A 0.64 0.64 0.0 0 0 44.72 55.55
  L 44.71 45.36
  A 0.62 0.61 -89.6 0 0 44.11 44.74
  Q 40.67 44.69 33.51 44.75
  Q 28.52 44.80 25.22 48.10"
/>
<path stroke="#397aa3" vector-effect="non-scaling-stroke" d="
  M 155.78 48.10
  Q 152.47 44.80 147.48 44.75
  Q 140.32 44.69 136.88 44.75
  A 0.62 0.61 89.5 0 0 136.28 45.37
  L 136.28 55.56
  A 0.64 0.64 0.0 0 0 136.92 56.20
  Q 142.16 56.20 147.27 56.18
  Q 147.44 56.18 147.61 56.35
  Q 147.70 56.45 147.70 56.61
  Q 147.69 61.73 147.70 66.97
  A 0.64 0.64 0.0 0 0 148.34 67.61
  L 158.53 67.59
  A 0.62 0.61 0.4 0 0 159.15 66.99
  Q 159.20 63.55 159.13 56.38
  Q 159.08 51.40 155.78 48.10"
/>
<path stroke="#397aa3" vector-effect="non-scaling-stroke" d="
  M 42.54 91.08
  L 49.58 98.12
  A 0.71 0.70 -44.7 0 0 50.57 98.12
  Q 58.69 90.00 74.07 74.57
  C 81.50 67.12 92.40 65.50 101.70 70.54
  C 106.12 72.94 109.56 77.19 114.51 82.14
  A 0.38 0.38 0.0 0 0 115.05 82.14
  L 122.43 74.77
  A 0.59 0.59 0.0 0 0 122.43 73.93
  Q 114.87 66.26 113.37 64.93
  C 99.38 52.62 79.08 53.38 65.74 66.72
  Q 44.16 88.28 42.54 89.92
  A 0.83 0.83 0.0 0 0 42.54 91.08"
/>
<path stroke="#808fa3" vector-effect="non-scaling-stroke" d="
  M 74.46 90.50
  Q 74.46 90.73 76.04 92.22
  Q 76.84 92.96 81.38 97.58
  C 86.27 102.55 92.19 103.48 98.16 99.12
  A 0.59 0.59 0.0 0 0 98.23 98.22
  Q 96.04 96.06 90.72 90.72
  Q 90.66 90.66 90.66 90.50
  Q 90.66 90.33 90.72 90.28
  Q 96.04 84.94 98.23 82.78
  A 0.59 0.59 0.0 0 0 98.16 81.88
  C 92.19 77.52 86.27 78.45 81.38 83.42
  Q 76.84 88.04 76.04 88.78
  Q 74.46 90.27 74.46 90.50"
/>
<path stroke="#397aa3" vector-effect="non-scaling-stroke" d="
  M 138.47 89.93
  L 131.43 82.89
  A 0.71 0.70 -44.7 0 0 130.44 82.89
  Q 122.32 91.00 106.94 106.43
  C 99.51 113.88 88.61 115.50 79.31 110.45
  C 74.89 108.05 71.45 103.80 66.51 98.85
  A 0.38 0.38 0.0 0 0 65.97 98.85
  L 58.59 106.22
  A 0.59 0.59 0.0 0 0 58.59 107.06
  Q 66.14 114.73 67.64 116.06
  C 81.63 128.37 101.93 127.62 115.27 114.28
  Q 136.85 92.72 138.47 91.09
  A 0.83 0.83 0.0 0 0 138.47 89.93"
/>
<path stroke="#397aa3" vector-effect="non-scaling-stroke" d="
  M 25.21 132.91
  Q 28.52 136.21 33.50 136.25
  Q 40.67 136.31 44.11 136.25
  A 0.62 0.61 89.5 0 0 44.71 135.63
  L 44.71 125.44
  A 0.64 0.64 0.0 0 0 44.07 124.80
  Q 38.83 124.80 33.71 124.82
  Q 33.55 124.82 33.38 124.65
  Q 33.28 124.56 33.28 124.39
  Q 33.30 119.28 33.29 114.04
  A 0.64 0.64 0.0 0 0 32.65 113.40
  L 22.46 113.41
  A 0.62 0.61 0.4 0 0 21.84 114.02
  Q 21.78 117.46 21.86 124.62
  Q 21.91 129.61 25.21 132.91"
/>
<path stroke="#397aa3" vector-effect="non-scaling-stroke" d="
  M 155.77 132.91
  Q 159.08 129.61 159.13 124.63
  Q 159.20 117.46 159.15 114.02
  A 0.62 0.61 -0.4 0 0 158.53 113.42
  L 148.34 113.40
  A 0.64 0.64 0.0 0 0 147.70 114.04
  Q 147.69 119.28 147.70 124.40
  Q 147.70 124.56 147.61 124.65
  Q 147.44 124.83 147.28 124.82
  Q 142.16 124.80 136.92 124.80
  A 0.64 0.64 0.0 0 0 136.28 125.44
  L 136.28 135.63
  A 0.62 0.61 -89.5 0 0 136.88 136.25
  Q 140.32 136.31 147.48 136.25
  Q 152.47 136.21 155.77 132.91"
/>
</g>
<path fill="#001e46" d="
  M 180.00 0.00
  L 180.00 180.00
  L 0.00 180.00
  L 0.00 0.00
  L 180.00 0.00
  Z
  M 25.22 48.10
  Q 21.91 51.40 21.87 56.39
  Q 21.80 63.55 21.85 66.99
  A 0.62 0.61 -0.4 0 0 22.47 67.59
  L 32.66 67.60
  A 0.64 0.64 0.0 0 0 33.30 66.96
  Q 33.31 61.72 33.29 56.61
  Q 33.29 56.44 33.39 56.35
  Q 33.56 56.18 33.72 56.18
  Q 38.84 56.20 44.08 56.19
  A 0.64 0.64 0.0 0 0 44.72 55.55
  L 44.71 45.36
  A 0.62 0.61 -89.6 0 0 44.11 44.74
  Q 40.67 44.69 33.51 44.75
  Q 28.52 44.80 25.22 48.10
  Z
  M 155.78 48.10
  Q 152.47 44.80 147.48 44.75
  Q 140.32 44.69 136.88 44.75
  A 0.62 0.61 89.5 0 0 136.28 45.37
  L 136.28 55.56
  A 0.64 0.64 0.0 0 0 136.92 56.20
  Q 142.16 56.20 147.27 56.18
  Q 147.44 56.18 147.61 56.35
  Q 147.70 56.45 147.70 56.61
  Q 147.69 61.73 147.70 66.97
  A 0.64 0.64 0.0 0 0 148.34 67.61
  L 158.53 67.59
  A 0.62 0.61 0.4 0 0 159.15 66.99
  Q 159.20 63.55 159.13 56.38
  Q 159.08 51.40 155.78 48.10
  Z
  M 42.54 91.08
  L 49.58 98.12
  A 0.71 0.70 -44.7 0 0 50.57 98.12
  Q 58.69 90.00 74.07 74.57
  C 81.50 67.12 92.40 65.50 101.70 70.54
  C 106.12 72.94 109.56 77.19 114.51 82.14
  A 0.38 0.38 0.0 0 0 115.05 82.14
  L 122.43 74.77
  A 0.59 0.59 0.0 0 0 122.43 73.93
  Q 114.87 66.26 113.37 64.93
  C 99.38 52.62 79.08 53.38 65.74 66.72
  Q 44.16 88.28 42.54 89.92
  A 0.83 0.83 0.0 0 0 42.54 91.08
  Z
  M 74.46 90.50
  Q 74.46 90.73 76.04 92.22
  Q 76.84 92.96 81.38 97.58
  C 86.27 102.55 92.19 103.48 98.16 99.12
  A 0.59 0.59 0.0 0 0 98.23 98.22
  Q 96.04 96.06 90.72 90.72
  Q 90.66 90.66 90.66 90.50
  Q 90.66 90.33 90.72 90.28
  Q 96.04 84.94 98.23 82.78
  A 0.59 0.59 0.0 0 0 98.16 81.88
  C 92.19 77.52 86.27 78.45 81.38 83.42
  Q 76.84 88.04 76.04 88.78
  Q 74.46 90.27 74.46 90.50
  Z
  M 138.47 89.93
  L 131.43 82.89
  A 0.71 0.70 -44.7 0 0 130.44 82.89
  Q 122.32 91.00 106.94 106.43
  C 99.51 113.88 88.61 115.50 79.31 110.45
  C 74.89 108.05 71.45 103.80 66.51 98.85
  A 0.38 0.38 0.0 0 0 65.97 98.85
  L 58.59 106.22
  A 0.59 0.59 0.0 0 0 58.59 107.06
  Q 66.14 114.73 67.64 116.06
  C 81.63 128.37 101.93 127.62 115.27 114.28
  Q 136.85 92.72 138.47 91.09
  A 0.83 0.83 0.0 0 0 138.47 89.93
  Z
  M 25.21 132.91
  Q 28.52 136.21 33.50 136.25
  Q 40.67 136.31 44.11 136.25
  A 0.62 0.61 89.5 0 0 44.71 135.63
  L 44.71 125.44
  A 0.64 0.64 0.0 0 0 44.07 124.80
  Q 38.83 124.80 33.71 124.82
  Q 33.55 124.82 33.38 124.65
  Q 33.28 124.56 33.28 124.39
  Q 33.30 119.28 33.29 114.04
  A 0.64 0.64 0.0 0 0 32.65 113.40
  L 22.46 113.41
  A 0.62 0.61 0.4 0 0 21.84 114.02
  Q 21.78 117.46 21.86 124.62
  Q 21.91 129.61 25.21 132.91
  Z
  M 155.77 132.91
  Q 159.08 129.61 159.13 124.63
  Q 159.20 117.46 159.15 114.02
  A 0.62 0.61 -0.4 0 0 158.53 113.42
  L 148.34 113.40
  A 0.64 0.64 0.0 0 0 147.70 114.04
  Q 147.69 119.28 147.70 124.40
  Q 147.70 124.56 147.61 124.65
  Q 147.44 124.83 147.28 124.82
  Q 142.16 124.80 136.92 124.80
  A 0.64 0.64 0.0 0 0 136.28 125.44
  L 136.28 135.63
  A 0.62 0.61 -89.5 0 0 136.88 136.25
  Q 140.32 136.31 147.48 136.25
  Q 152.47 136.21 155.77 132.91
  Z"
/>
<path fill="#71d6ff" d="
  M 25.22 48.10
  Q 28.52 44.80 33.51 44.75
  Q 40.67 44.69 44.11 44.74
  A 0.62 0.61 -89.6 0 1 44.71 45.36
  L 44.72 55.55
  A 0.64 0.64 0.0 0 1 44.08 56.19
  Q 38.84 56.20 33.72 56.18
  Q 33.56 56.18 33.39 56.35
  Q 33.29 56.44 33.29 56.61
  Q 33.31 61.72 33.30 66.96
  A 0.64 0.64 0.0 0 1 32.66 67.60
  L 22.47 67.59
  A 0.62 0.61 -0.4 0 1 21.85 66.99
  Q 21.80 63.55 21.87 56.39
  Q 21.91 51.40 25.22 48.10
  Z"
/>
<path fill="#71d6ff" d="
  M 155.78 48.10
  Q 159.08 51.40 159.13 56.38
  Q 159.20 63.55 159.15 66.99
  A 0.62 0.61 0.4 0 1 158.53 67.59
  L 148.34 67.61
  A 0.64 0.64 0.0 0 1 147.70 66.97
  Q 147.69 61.73 147.70 56.61
  Q 147.70 56.45 147.61 56.35
  Q 147.44 56.18 147.27 56.18
  Q 142.16 56.20 136.92 56.20
  A 0.64 0.64 0.0 0 1 136.28 55.56
  L 136.28 45.37
  A 0.62 0.61 89.5 0 1 136.88 44.75
  Q 140.32 44.69 147.48 44.75
  Q 152.47 44.80 155.78 48.10
  Z"
/>
<path fill="#71d6ff" d="
  M 42.54 89.92
  Q 44.16 88.28 65.74 66.72
  C 79.08 53.38 99.38 52.62 113.37 64.93
  Q 114.87 66.26 122.43 73.93
  A 0.59 0.59 0.0 0 1 122.43 74.77
  L 115.05 82.14
  A 0.38 0.38 0.0 0 1 114.51 82.14
  C 109.56 77.19 106.12 72.94 101.70 70.54
  C 92.40 65.50 81.50 67.12 74.07 74.57
  Q 58.69 90.00 50.57 98.12
  A 0.71 0.70 -44.7 0 1 49.58 98.12
  L 42.54 91.08
  A 0.83 0.83 0.0 0 1 42.54 89.92
  Z"
/>
<path fill="#ffffff" d="
  M 90.66 90.50
  Q 90.66 90.66 90.72 90.72
  Q 96.04 96.06 98.23 98.22
  A 0.59 0.59 0.0 0 1 98.16 99.12
  C 92.19 103.48 86.27 102.55 81.38 97.58
  Q 76.84 92.96 76.04 92.22
  Q 74.46 90.73 74.46 90.50
  Q 74.46 90.27 76.04 88.78
  Q 76.84 88.04 81.38 83.42
  C 86.27 78.45 92.19 77.52 98.16 81.88
  A 0.59 0.59 0.0 0 1 98.23 82.78
  Q 96.04 84.94 90.72 90.28
  Q 90.66 90.33 90.66 90.50
  Z"
/>
<path fill="#71d6ff" d="
  M 138.47 89.93
  A 0.83 0.83 0.0 0 1 138.47 91.09
  Q 136.85 92.72 115.27 114.28
  C 101.93 127.62 81.63 128.37 67.64 116.06
  Q 66.14 114.73 58.59 107.06
  A 0.59 0.59 0.0 0 1 58.59 106.22
  L 65.97 98.85
  A 0.38 0.38 0.0 0 1 66.51 98.85
  C 71.45 103.80 74.89 108.05 79.31 110.45
  C 88.61 115.50 99.51 113.88 106.94 106.43
  Q 122.32 91.00 130.44 82.89
  A 0.71 0.70 -44.7 0 1 131.43 82.89
  L 138.47 89.93
  Z"
/>
<path fill="#71d6ff" d="
  M 33.38 124.65
  Q 33.55 124.82 33.71 124.82
  Q 38.83 124.80 44.07 124.80
  A 0.64 0.64 0.0 0 1 44.71 125.44
  L 44.71 135.63
  A 0.62 0.61 89.5 0 1 44.11 136.25
  Q 40.67 136.31 33.50 136.25
  Q 28.52 136.21 25.21 132.91
  Q 21.91 129.61 21.86 124.62
  Q 21.78 117.46 21.84 114.02
  A 0.62 0.61 0.4 0 1 22.46 113.41
  L 32.65 113.40
  A 0.64 0.64 0.0 0 1 33.29 114.04
  Q 33.30 119.28 33.28 124.39
  Q 33.28 124.56 33.38 124.65
  Z"
/>
<path fill="#71d6ff" d="
  M 155.77 132.91
  Q 152.47 136.21 147.48 136.25
  Q 140.32 136.31 136.88 136.25
  A 0.62 0.61 -89.5 0 1 136.28 135.63
  L 136.28 125.44
  A 0.64 0.64 0.0 0 1 136.92 124.80
  Q 142.16 124.80 147.28 124.82
  Q 147.44 124.83 147.61 124.65
  Q 147.70 124.56 147.70 124.40
  Q 147.69 119.28 147.70 114.04
  A 0.64 0.64 0.0 0 1 148.34 113.40
  L 158.53 113.42
  A 0.62 0.61 -0.4 0 1 159.15 114.02
  Q 159.20 117.46 159.13 124.63
  Q 159.08 129.61 155.77 132.91
  Z"
/>
</svg>