<?xml version="1.0" encoding="UTF-8" standalone="no"?>
<!DOCTYPE svg PUBLIC "-//W3C//DTD SVG 1.1//EN" "http://www.w3.org/Graphics/SVG/1.1/DTD/svg11.dtd">
<svg xmlns="http://www.w3.org/2000/svg" version="1.1" viewBox="0.00 0.00 192.00 192.00" width="128" height="128">
<g stroke-width="2.00" fill="none" stroke-linecap="butt">
<path stroke="#999999" vector-effect="non-scaling-stroke" d="
  M 60.89 107.16
  C 55.36 118.40 47.76 127.91 39.53 138.39
  A 3.24 3.24 0.0 0 0 39.36 142.13
  Q 40.79 144.36 42.78 146.46
  C 74.70 180.13 129.49 176.15 156.32 137.68
  C 180.30 103.31 170.11 55.42 134.44 33.61
  Q 111.00 19.28 83.30 23.82
  C 63.56 27.06 39.42 40.85 34.81 62.09
  C 30.49 82.00 44.71 97.85 60.76 106.76
  A 0.30 0.30 0.0 0 1 60.89 107.16"
/>
<path stroke="#999999" vector-effect="non-scaling-stroke" d="
  M 102.26 41.37
  Q 79.21 38.97 60.99 52.96
  C 52.28 59.65 47.86 70.88 52.26 80.87
  Q 56.37 90.18 65.38 96.49
  A 0.25 0.25 0.0 0 0 65.76 96.38
  Q 71.18 83.44 76.59 72.85
  C 82.79 60.71 90.55 49.16 102.32 41.64
  A 0.15 0.14 -58.3 0 0 102.26 41.37"
/>
<path stroke="#999999" vector-effect="non-scaling-stroke" d="
  M 80.70 105.86
  C 100.67 115.29 121.28 119.85 143.61 122.76
  A 0.80 0.80 0.0 0 0 144.42 122.34
  C 159.69 93.39 147.79 59.61 118.52 45.71
  A 1.83 1.82 -46.5 0 0 116.86 45.76
  Q 106.67 51.40 100.13 61.39
  C 91.39 74.72 85.65 89.57 80.50 105.40
  A 0.38 0.38 0.0 0 0 80.70 105.86"
/>
<path stroke="#999999" vector-effect="non-scaling-stroke" d="
  M 137.89 130.98
  Q 106.22 126.18 77.68 114.93
  A 0.61 0.60 22.5 0 0 76.91 115.24
  Q 70.57 129.71 61.82 142.71
  A 0.37 0.36 35.3 0 0 61.91 143.21
  Q 76.07 153.42 93.13 153.86
  C 110.55 154.31 127.15 144.40 138.09 131.53
  A 0.34 0.33 -65.3 0 0 137.89 130.98"
/>
</g>
<path fill="#323232" d="
  M 100.34 0.00
  Q 137.80 2.37 163.49 27.76
  Q 189.13 53.11 192.00 90.45
  L 192.00 101.45
  C 188.29 150.84 150.94 188.28 101.54 192.00
  L 90.61 192.00
  Q 51.30 189.01 25.45 161.03
  Q 2.24 135.93 0.00 100.47
  L 0.00 91.61
  C 2.23 58.44 19.51 29.40 47.99 12.96
  Q 65.27 2.99 86.03 0.75
  Q 88.77 0.46 91.47 0.00
  L 100.34 0.00
  Z
  M 60.89 107.16
  C 55.36 118.40 47.76 127.91 39.53 138.39
  A 3.24 3.24 0.0 0 0 39.36 142.13
  Q 40.79 144.36 42.78 146.46
  C 74.70 180.13 129.49 176.15 156.32 137.68
  C 180.30 103.31 170.11 55.42 134.44 33.61
  Q 111.00 19.28 83.30 23.82
  C 63.56 27.06 39.42 40.85 34.81 62.09
  C 30.49 82.00 44.71 97.85 60.76 106.76
  A 0.30 0.30 0.0 0 1 60.89 107.16
  Z"
/>
<path fill="#ffffff" d="
  M 60.89 107.16
  A 0.30 0.30 0.0 0 0 60.76 106.76
  C 44.71 97.85 30.49 82.00 34.81 62.09
  C 39.42 40.85 63.56 27.06 83.30 23.82
  Q 111.00 19.28 134.44 33.61
  C 170.11 55.42 180.30 103.31 156.32 137.68
  C 129.49 176.15 74.70 180.13 42.78 146.46
  Q 40.79 144.36 39.36 142.13
  A 3.24 3.24 0.0 0 1 39.53 138.39
  C 47.76 127.91 55.36 118.40 60.89 107.16
  Z
  M 102.26 41.37
  Q 79.21 38.97 60.99 52.96
  C 52.28 59.65 47.86 70.88 52.26 80.87
  Q 56.37 90.18 65.38 96.49
  A 0.25 0.25 0.0 0 0 65.76 96.38
  Q 71.18 83.44 76.59 72.85
  C 82.79 60.71 90.55 49.16 102.32 41.64
  A 0.15 0.14 -58.3 0 0 102.26 41.37
  Z
  M 80.70 105.86
  C 100.67 115.29 121.28 119.85 143.61 122.76
  A 0.80 0.80 0.0 0 0 144.42 122.34
  C 159.69 93.39 147.79 59.61 118.52 45.71
  A 1.83 1.82 -46.5 0 0 116.86 45.76
  Q 106.67 51.40 100.13 61.39
  C 91.39 74.72 85.65 89.57 80.50 105.40
  A 0.38 0.38 0.0 0 0 80.70 105.86
  Z
  M 137.89 130.98
  Q 106.22 126.18 77.68 114.93
  A 0.61 0.60 22.5 0 0 76.91 115.24
  Q 70.57 129.71 61.82 142.71
  A 0.37 0.36 35.3 0 0 61.91 143.21
  Q 76.07 153.42 93.13 153.86
  C 110.55 154.31 127.15 144.40 138.09 131.53
  A 0.34 0.33 -65.3 0 0 137.89 130.98
  Z"
/>
<path fill="#323232" d="
  M 102.26 41.37
  A 0.15 0.14 -58.3 0 1 102.32 41.64
  C 90.55 49.16 82.79 60.71 76.59 72.85
  Q 71.18 83.44 65.76 96.38
  A 0.25 0.25 0.0 0 1 65.38 96.49
  Q 56.37 90.18 52.26 80.87
  C 47.86 70.88 52.28 59.65 60.99 52.96
  Q 79.21 38.97 102.26 41.37
  Z"
/>
<path fill="#323232" d="
  M 80.70 105.86
  A 0.38 0.38 0.0 0 1 80.50 105.40
  C 85.65 89.57 91.39 74.72 100.13 61.39
  Q 106.67 51.40 116.86 45.76
  A 1.83 1.82 -46.5 0 1 118.52 45.71
  C 147.79 59.61 159.69 93.39 144.42 122.34
  A 0.80 0.80 0.0 0 1 143.61 122.76
  C 121.28 119.85 100.67 115.29 80.70 105.86
  Z"
/>
<path fill="#323232" d="
  M 137.89 130.98
  A 0.34 0.33 -65.3 0 1 138.09 131.53
  C 127.15 144.40 110.55 154.31 93.13 153.86
  Q 76.07 153.42 61.91 143.21
  A 0.37 0.36 35.3 0 1 61.82 142.71
  Q 70.57 129.71 76.91 115.24
  A 0.61 0.60 22.5 0 1 77.68 114.93
  Q 106.22 126.18 137.89 130.98
  Z"
/>
</svg>