<?xml version="1.0" encoding="UTF-8" standalone="no"?>
<!DOCTYPE svg PUBLIC "-//W3C//DTD SVG 1.1//EN" "http://www.w3.org/Graphics/SVG/1.1/DTD/svg11.dtd">
<svg xmlns="http://www.w3.org/2000/svg" version="1.1" viewBox="0.00 0.00 256.00 256.00" width="128" height="128">
<g stroke-width="2.00" fill="none" stroke-linecap="butt">
<path stroke="#8a82a3" vector-effect="non-scaling-stroke" d="
  M 88.73 61.31
  C 85.32 63.96 84.20 65.85 81.63 69.90
  Q 79.53 73.21 78.97 75.04
  C 76.26 83.82 79.92 93.46 87.54 98.51
  Q 91.28 100.99 97.18 103.36
  C 103.55 105.91 106.67 104.71 112.72 102.34
  C 118.06 100.24 122.38 97.30 125.27 92.14"
/>
<path stroke="#301581" vector-effect="non-scaling-stroke" d="
  M 125.27 92.14
  Q 125.40 93.25 125.83 94.05
  A 1.00 0.99 50.4 0 1 125.73 95.14
  L 124.84 96.28
  A 4.80 4.77 71.4 0 0 123.96 98.07
  L 122.73 102.87
  A 1.29 1.29 0.0 0 1 121.19 103.81
  L 117.52 102.97
  A 0.13 0.12 -20.1 0 0 117.41 103.19
  Q 117.48 103.24 117.50 103.28
  A 0.25 0.13 -11.9 0 1 117.24 103.49
  Q 112.67 103.90 108.53 106.17"
/>
<path stroke="#2b6b74" vector-effect="non-scaling-stroke" d="
  M 108.53 106.17
  Q 103.23 107.64 99.00 106.46
  Q 95.31 105.42 91.07 104.38
  C 87.33 103.45 81.05 104.19 79.51 108.33
  Q 79.13 109.36 79.00 115.14
  Q 78.81 123.84 78.90 132.54"
/>
<path stroke="#301581" vector-effect="non-scaling-stroke" d="
  M 78.90 132.54
  L 78.83 152.78
  A 1.46 1.44 -11.8 0 1 77.95 154.11
  Q 77.94 154.11 77.70 154.02
  A 0.57 0.57 0.0 0 0 77.17 154.08
  L 72.79 156.95
  A 0.37 0.28 -79.1 0 0 72.70 157.03
  Q 64.56 165.55 64.01 166.01
  Q 63.06 166.83 44.09 184.41
  C 39.81 188.37 37.17 191.36 32.99 195.27
  A 0.98 0.73 -86.8 0 0 32.83 195.46
  L 31.79 196.94
  A 1.03 1.03 0.0 0 0 32.31 198.51
  Q 34.73 199.31 36.75 199.30
  Q 58.35 199.18 79.94 198.85"
/>
<path stroke="#2b6b74" vector-effect="non-scaling-stroke" d="
  M 79.94 198.85
  Q 97.71 199.84 115.50 198.92
  C 118.01 198.79 120.71 199.44 122.47 199.39
  A 5.06 4.80 -51.7 0 0 123.50 199.24
  L 126.44 198.47
  A 1.16 1.15 11.4 0 0 127.06 198.06
  Q 127.77 197.16 128.17 196.04"
/>
<path stroke="#301581" vector-effect="non-scaling-stroke" d="
  M 128.17 196.04
  Q 128.06 196.95 127.73 197.87
  Q 127.27 199.16 127.54 199.67
  Q 127.93 200.40 129.22 200.28"
/>
<path stroke="#8a82a3" vector-effect="non-scaling-stroke" d="
  M 129.22 200.28
  C 124.41 200.53 122.21 204.86 119.83 207.08
  Q 99.78 225.82 87.49 237.17
  C 84.75 239.70 83.05 241.10 82.28 243.92
  A 1.30 1.28 17.0 0 0 83.12 245.48
  Q 84.93 246.09 87.03 245.86
  C 91.63 245.36 96.77 245.69 100.33 245.60
  Q 107.45 245.41 109.68 245.44
  Q 134.77 245.83 160.58 245.47
  C 164.39 245.42 172.03 246.99 174.79 244.96
  A 1.62 1.61 -40.4 0 0 174.99 242.52
  C 172.75 240.25 170.87 238.07 168.48 235.85
  Q 150.08 218.76 138.46 207.91
  C 136.07 205.67 134.39 203.13 132.32 200.62"
/>
<path stroke="#301581" vector-effect="non-scaling-stroke" d="
  M 132.32 200.62
  Q 131.50 199.81 132.78 198.97
  A 1.42 1.40 -62.9 0 1 133.48 198.74
  L 143.19 198.43
  A 1.02 0.95 47.0 0 1 143.33 198.44
  Q 154.24 200.23 166.47 199.17
  C 168.53 198.99 171.77 199.70 173.51 199.36
  Q 178.84 198.31 181.52 198.55"
/>
<path stroke="#2b6b74" vector-effect="non-scaling-stroke" d="
  M 181.52 198.55
  Q 189.84 198.93 198.57 198.75
  Q 205.01 198.61 209.92 198.94
  C 214.22 199.23 221.70 199.91 224.45 198.05
  A 1.55 1.55 0.0 0 0 224.57 195.56
  C 220.06 191.87 216.12 187.37 211.82 183.48
  Q 201.12 173.82 190.93 163.68
  Q 188.06 160.82 182.12 156.32
  Q 181.51 155.87 180.31 157.08"
/>
<path stroke="#301581" vector-effect="non-scaling-stroke" d="
  M 180.31 157.08
  L 181.03 154.96
  A 1.12 1.11 -50.4 0 0 180.95 154.06
  Q 178.68 149.97 178.68 144.01
  Q 178.67 78.10 178.69 63.75
  Q 178.69 60.14 177.18 57.98"
/>
<path stroke="#2b6b74" vector-effect="non-scaling-stroke" d="
  M 177.18 57.98
  Q 175.41 54.15 173.83 52.67
  Q 153.83 33.98 140.95 21.85
  Q 138.76 19.78 138.37 19.33
  C 135.36 15.78 133.11 12.02 127.96 12.41
  C 124.33 12.70 119.97 18.95 117.53 21.29
  Q 109.59 28.89 101.68 36.43
  Q 89.42 48.15 87.08 50.61
  Q 83.13 54.77 87.41 58.91
  A 0.27 0.27 0.0 0 1 87.08 59.34
  Q 87.05 59.32 86.98 59.00
  A 0.07 0.06 39.5 0 0 86.85 59.01
  L 86.85 59.85
  A 0.37 0.37 0.0 0 0 87.28 60.22
  Q 87.93 60.12 87.86 61.05
  A 0.29 0.29 0.0 0 0 88.34 61.29
  Q 88.39 61.24 88.47 61.00
  A 0.10 0.10 0.0 0 1 88.66 61.02
  L 88.73 61.31"
/>
<path stroke="#467bae" vector-effect="non-scaling-stroke" d="
  M 177.18 57.98
  Q 159.56 58.22 142.35 58.17
  C 137.60 58.15 131.50 57.73 126.98 57.44
  Q 124.76 57.29 117.91 58.19
  A 6.89 6.80 46.8 0 1 115.56 58.10
  Q 113.34 57.63 110.80 57.19
  Q 108.26 56.74 107.07 57.83"
/>
<path stroke="#a0e8d0" vector-effect="non-scaling-stroke" d="
  M 107.07 57.83
  Q 97.74 57.48 88.73 61.31"
/>
<path stroke="#467bae" vector-effect="non-scaling-stroke" d="
  M 180.31 157.08
  Q 179.49 164.12 179.72 171.42
  Q 179.97 179.53 179.86 182.58
  Q 179.57 190.13 179.22 193.76
  Q 178.96 196.42 181.52 198.55"
/>
<path stroke="#a592dd" vector-effect="non-scaling-stroke" d="
  M 132.32 200.62
  Q 130.54 200.16 129.22 200.28"
/>
<path stroke="#467bae" vector-effect="non-scaling-stroke" d="
  M 128.17 196.04
  Q 129.34 193.29 129.45 190.25
  C 129.74 182.72 129.36 173.79 129.39 167.59
  Q 129.55 135.80 129.39 113.22
  C 129.37 109.47 128.85 107.25 125.62 105.55
  Q 124.33 104.87 124.28 104.84
  Q 123.21 104.26 121.42 104.33
  A 0.01 0.01 0.0 0 1 121.41 104.31
  Q 121.43 104.30 121.44 104.29
  A 0.19 0.18 -57.2 0 1 121.57 104.26
  Q 122.12 104.30 122.58 104.18
  A 0.02 0.02 0.0 0 0 122.58 104.14
  Q 118.36 104.00 115.14 104.13
  Q 115.20 104.13 115.25 104.12
  Q 115.97 103.96 116.05 104.04
  A 0.18 0.18 0.0 0 1 115.96 104.34
  L 109.81 105.72
  A 0.12 0.12 0.0 0 0 109.78 105.95
  Q 109.93 106.02 110.01 106.05
  A 0.03 0.02 -36.6 0 1 110.00 106.10
  L 108.53 106.17"
/>
<path stroke="#a592dd" vector-effect="non-scaling-stroke" d="
  M 125.27 92.14
  C 129.35 84.61 130.47 80.11 126.35 72.11
  C 123.64 66.85 122.84 64.45 118.65 61.40
  C 115.90 59.40 110.87 58.68 107.07 57.83"
/>
<path stroke="#467bae" vector-effect="non-scaling-stroke" d="
  M 79.94 198.85
  Q 78.58 195.42 78.63 192.75
  Q 78.95 177.96 79.10 163.16
  C 79.19 154.22 78.71 142.76 78.90 132.54"
/>
</g>
<path fill="#150547" d="
  M 256.00 0.00
  L 256.00 256.00
  L 0.00 256.00
  L 0.00 0.00
  L 256.00 0.00
  Z
  M 88.73 61.31
  C 85.32 63.96 84.20 65.85 81.63 69.90
  Q 79.53 73.21 78.97 75.04
  C 76.26 83.82 79.92 93.46 87.54 98.51
  Q 91.28 100.99 97.18 103.36
  C 103.55 105.91 106.67 104.71 112.72 102.34
  C 118.06 100.24 122.38 97.30 125.27 92.14
  Q 125.40 93.25 125.83 94.05
  A 1.00 0.99 50.4 0 1 125.73 95.14
  L 124.84 96.28
  A 4.80 4.77 71.4 0 0 123.96 98.07
  L 122.73 102.87
  A 1.29 1.29 0.0 0 1 121.19 103.81
  L 117.52 102.97
  A 0.13 0.12 -20.1 0 0 117.41 103.19
  Q 117.48 103.24 117.50 103.28
  A 0.25 0.13 -11.9 0 1 117.24 103.49
  Q 112.67 103.90 108.53 106.17
  Q 103.23 107.64 99.00 106.46
  Q 95.31 105.42 91.07 104.38
  C 87.33 103.45 81.05 104.19 79.51 108.33
  Q 79.13 109.36 79.00 115.14
  Q 78.81 123.84 78.90 132.54
  L 78.83 152.78
  A 1.46 1.44 -11.8 0 1 77.95 154.11
  Q 77.94 154.11 77.70 154.02
  A 0.57 0.57 0.0 0 0 77.17 154.08
  L 72.79 156.95
  A 0.37 0.28 -79.1 0 0 72.70 157.03
  Q 64.56 165.55 64.01 166.01
  Q 63.06 166.83 44.09 184.41
  C 39.81 188.37 37.17 191.36 32.99 195.27
  A 0.98 0.73 -86.8 0 0 32.83 195.46
  L 31.79 196.94
  A 1.03 1.03 0.0 0 0 32.31 198.51
  Q 34.73 199.31 36.75 199.30
  Q 58.35 199.18 79.94 198.85
  Q 97.71 199.84 115.50 198.92
  C 118.01 198.79 120.71 199.44 122.47 199.39
  A 5.06 4.80 -51.7 0 0 123.50 199.24
  L 126.44 198.47
  A 1.16 1.15 11.4 0 0 127.06 198.06
  Q 127.77 197.16 128.17 196.04
  Q 128.06 196.95 127.73 197.87
  Q 127.27 199.16 127.54 199.67
  Q 127.93 200.40 129.22 200.28
  C 124.41 200.53 122.21 204.86 119.83 207.08
  Q 99.78 225.82 87.49 237.17
  C 84.75 239.70 83.05 241.10 82.28 243.92
  A 1.30 1.28 17.0 0 0 83.12 245.48
  Q 84.93 246.09 87.03 245.86
  C 91.63 245.36 96.77 245.69 100.33 245.60
  Q 107.45 245.41 109.68 245.44
  Q 134.77 245.83 160.58 245.47
  C 164.39 245.42 172.03 246.99 174.79 244.96
  A 1.62 1.61 -40.4 0 0 174.99 242.52
  C 172.75 240.25 170.87 238.07 168.48 235.85
  Q 150.08 218.76 138.46 207.91
  C 136.07 205.67 134.39 203.13 132.32 200.62
  Q 131.50 199.81 132.78 198.97
  A 1.42 1.40 -62.9 0 1 133.48 198.74
  L 143.19 198.43
  A 1.02 0.95 47.0 0 1 143.33 198.44
  Q 154.24 200.23 166.47 199.17
  C 168.53 198.99 171.77 199.70 173.51 199.36
  Q 178.84 198.31 181.52 198.55
  Q 189.84 198.93 198.57 198.75
  Q 205.01 198.61 209.92 198.94
  C 214.22 199.23 221.70 199.91 224.45 198.05
  A 1.55 1.55 0.0 0 0 224.57 195.56
  C 220.06 191.87 216.12 187.37 211.82 183.48
  Q 201.12 173.82 190.93 163.68
  Q 188.06 160.82 182.12 156.32
  Q 181.51 155.87 180.31 157.08
  L 181.03 154.96
  A 1.12 1.11 -50.4 0 0 180.95 154.06
  Q 178.68 149.97 178.68 144.01
  Q 178.67 78.10 178.69 63.75
  Q 178.69 60.14 177.18 57.98
  Q 175.41 54.15 173.83 52.67
  Q 153.83 33.98 140.95 21.85
  Q 138.76 19.78 138.37 19.33
  C 135.36 15.78 133.11 12.02 127.96 12.41
  C 124.33 12.70 119.97 18.95 117.53 21.29
  Q 109.59 28.89 101.68 36.43
  Q 89.42 48.15 87.08 50.61
  Q 83.13 54.77 87.41 58.91
  A 0.27 0.27 0.0 0 1 87.08 59.34
  Q 87.05 59.32 86.98 59.00
  A 0.07 0.06 39.5 0 0 86.85 59.01
  L 86.85 59.85
  A 0.37 0.37 0.0 0 0 87.28 60.22
  Q 87.93 60.12 87.86 61.05
  A 0.29 0.29 0.0 0 0 88.34 61.29
  Q 88.39 61.24 88.47 61.00
  A 0.10 0.10 0.0 0 1 88.66 61.02
  L 88.73 61.31
  Z"
/>
<path fill="#40d0a0" d="
  M 177.18 57.98
  Q 159.56 58.22 142.35 58.17
  C 137.60 58.15 131.50 57.73 126.98 57.44
  Q 124.76 57.29 117.91 58.19
  A 6.89 6.80 46.8 0 1 115.56 58.10
  Q 113.34 57.63 110.80 57.19
  Q 108.26 56.74 107.07 57.83
  Q 97.74 57.48 88.73 61.31
  L 88.66 61.02
  A 0.10 0.10 0.0 0 0 88.47 61.00
  Q 88.39 61.24 88.34 61.29
  A 0.29 0.29 0.0 0 1 87.86 61.05
  Q 87.93 60.12 87.28 60.22
  A 0.37 0.37 0.0 0 1 86.85 59.85
  L 86.85 59.01
  A 0.07 0.06 39.5 0 1 86.98 59.00
  Q 87.05 59.32 87.08 59.34
  A 0.27 0.27 0.0 0 0 87.41 58.91
  Q 83.13 54.77 87.08 50.61
  Q 89.42 48.15 101.68 36.43
  Q 109.59 28.89 117.53 21.29
  C 119.97 18.95 124.33 12.70 127.96 12.41
  C 133.11 12.02 135.36 15.78 138.37 19.33
  Q 138.76 19.78 140.95 21.85
  Q 153.83 33.98 173.83 52.67
  Q 175.41 54.15 177.18 57.98
  Z"
/>
<path fill="#4b25bb" d="
  M 177.18 57.98
  Q 178.69 60.14 178.69 63.75
  Q 178.67 78.10 178.68 144.01
  Q 178.68 149.97 180.95 154.06
  A 1.12 1.11 -50.4 0 1 181.03 154.96
  L 180.31 157.08
  Q 179.49 164.12 179.72 171.42
  Q 179.97 179.53 179.86 182.58
  Q 179.57 190.13 179.22 193.76
  Q 178.96 196.42 181.52 198.55
  Q 178.84 198.31 173.51 199.36
  C 171.77 199.70 168.53 198.99 166.47 199.17
  Q 154.24 200.23 143.33 198.44
  A 1.02 0.95 47.0 0 0 143.19 198.43
  L 133.48 198.74
  A 1.42 1.40 -62.9 0 0 132.78 198.97
  Q 131.50 199.81 132.32 200.62
  Q 130.54 200.16 129.22 200.28
  Q 127.93 200.40 127.54 199.67
  Q 127.27 199.16 127.73 197.87
  Q 128.06 196.95 128.17 196.04
  Q 129.34 193.29 129.45 190.25
  C 129.74 182.72 129.36 173.79 129.39 167.59
  Q 129.55 135.80 129.39 113.22
  C 129.37 109.47 128.85 107.25 125.62 105.55
  Q 124.33 104.87 124.28 104.84
  Q 123.21 104.26 121.42 104.33
  A 0.01 0.01 0.0 0 1 121.41 104.31
  Q 121.43 104.30 121.44 104.29
  A 0.19 0.18 -57.2 0 1 121.57 104.26
  Q 122.12 104.30 122.58 104.18
  A 0.02 0.02 0.0 0 0 122.58 104.14
  Q 118.36 104.00 115.14 104.13
  Q 115.20 104.13 115.25 104.12
  Q 115.97 103.96 116.05 104.04
  A 0.18 0.18 0.0 0 1 115.96 104.34
  L 109.81 105.72
  A 0.12 0.12 0.0 0 0 109.78 105.95
  Q 109.93 106.02 110.01 106.05
  A 0.03 0.02 -36.6 0 1 110.00 106.10
  L 108.53 106.17
  Q 112.67 103.90 117.24 103.49
  A 0.25 0.13 -11.9 0 0 117.50 103.28
  Q 117.48 103.24 117.41 103.19
  A 0.13 0.12 -20.1 0 1 117.52 102.97
  L 121.19 103.81
  A 1.29 1.29 0.0 0 0 122.73 102.87
  L 123.96 98.07
  A 4.80 4.77 71.4 0 1 124.84 96.28
  L 125.73 95.14
  A 1.00 0.99 50.4 0 0 125.83 94.05
  Q 125.40 93.25 125.27 92.14
  C 129.35 84.61 130.47 80.11 126.35 72.11
  C 123.64 66.85 122.84 64.45 118.65 61.40
  C 115.90 59.40 110.87 58.68 107.07 57.83
  Q 108.26 56.74 110.80 57.19
  Q 113.34 57.63 115.56 58.10
  A 6.89 6.80 46.8 0 0 117.91 58.19
  Q 124.76 57.29 126.98 57.44
  C 131.50 57.73 137.60 58.15 142.35 58.17
  Q 159.56 58.22 177.18 57.98
  Z"
/>
<path fill="#ffffff" d="
  M 107.07 57.83
  C 110.87 58.68 115.90 59.40 118.65 61.40
  C 122.84 64.45 123.64 66.85 126.35 72.11
  C 130.47 80.11 129.35 84.61 125.27 92.14
  C 122.38 97.30 118.06 100.24 112.72 102.34
  C 106.67 104.71 103.55 105.91 97.18 103.36
  Q 91.28 100.99 87.54 98.51
  C 79.92 93.46 76.26 83.82 78.97 75.04
  Q 79.53 73.21 81.63 69.90
  C 84.20 65.85 85.32 63.96 88.73 61.31
  Q 97.74 57.48 107.07 57.83
  Z"
/>
<path fill="#40d0a0" d="
  M 128.17 196.04
  Q 127.77 197.16 127.06 198.06
  A 1.16 1.15 11.4 0 1 126.44 198.47
  L 123.50 199.24
  A 5.06 4.80 -51.7 0 1 122.47 199.39
  C 120.71 199.44 118.01 198.79 115.50 198.92
  Q 97.71 199.84 79.94 198.85
  Q 78.58 195.42 78.63 192.75
  Q 78.95 177.96 79.10 163.16
  C 79.19 154.22 78.71 142.76 78.90 132.54
  Q 78.81 123.84 79.00 115.14
  Q 79.13 109.36 79.51 108.33
  C 81.05 104.19 87.33 103.45 91.07 104.38
  Q 95.31 105.42 99.00 106.46
  Q 103.23 107.64 108.53 106.17
  L 110.00 106.10
  A 0.03 0.02 -36.6 0 0 110.01 106.05
  Q 109.93 106.02 109.78 105.95
  A 0.12 0.12 0.0 0 1 109.81 105.72
  L 115.96 104.34
  A 0.18 0.18 0.0 0 0 116.05 104.04
  Q 115.97 103.96 115.25 104.12
  Q 115.20 104.13 115.14 104.13
  Q 118.36 104.00 122.58 104.14
  A 0.02 0.02 0.0 0 1 122.58 104.18
  Q 122.12 104.30 121.57 104.26
  A 0.19 0.18 -57.2 0 0 121.44 104.29
  Q 121.43 104.30 121.41 104.31
  A 0.01 0.01 0.0 0 0 121.42 104.33
  Q 123.21 104.26 124.28 104.84
  Q 124.33 104.87 125.62 105.55
  C 128.85 107.25 129.37 109.47 129.39 113.22
  Q 129.55 135.80 129.39 167.59
  C 129.36 173.79 129.74 182.72 129.45 190.25
  Q 129.34 193.29 128.17 196.04
  Z"
/>
<path fill="#4b25bb" d="
  M 78.90 132.54
  C 78.71 142.76 79.19 154.22 79.10 163.16
  Q 78.95 177.96 78.63 192.75
  Q 78.58 195.42 79.94 198.85
  Q 58.35 199.18 36.75 199.30
  Q 34.73 199.31 32.31 198.51
  A 1.03 1.03 0.0 0 1 31.79 196.94
  L 32.83 195.46
  A 0.98 0.73 -86.8 0 1 32.99 195.27
  C 37.17 191.36 39.81 188.37 44.09 184.41
  Q 63.06 166.83 64.01 166.01
  Q 64.56 165.55 72.70 157.03
  A 0.37 0.28 -79.1 0 1 72.79 156.95
  L 77.17 154.08
  A 0.57 0.57 0.0 0 1 77.70 154.02
  Q 77.94 154.11 77.95 154.11
  A 1.46 1.44 -11.8 0 0 78.83 152.78
  L 78.90 132.54
  Z"
/>
<path fill="#40d0a0" d="
  M 181.52 198.55
  Q 178.96 196.42 179.22 193.76
  Q 179.57 190.13 179.86 182.58
  Q 179.97 179.53 179.72 171.42
  Q 179.49 164.12 180.31 157.08
  Q 181.51 155.87 182.12 156.32
  Q 188.06 160.82 190.93 163.68
  Q 201.12 173.82 211.82 183.48
  C 216.12 187.37 220.06 191.87 224.57 195.56
  A 1.55 1.55 0.0 0 1 224.45 198.05
  C 221.70 199.91 214.22 199.23 209.92 198.94
  Q 205.01 198.61 198.57 198.75
  Q 189.84 198.93 181.52 198.55
  Z"
/>
<path fill="#ffffff" d="
  M 132.32 200.62
  C 134.39 203.13 136.07 205.67 138.46 207.91
  Q 150.08 218.76 168.48 235.85
  C 170.87 238.07 172.75 240.25 174.99 242.52
  A 1.62 1.61 -40.4 0 1 174.79 244.96
  C 172.03 246.99 164.39 245.42 160.58 245.47
  Q 134.77 245.83 109.68 245.44
  Q 107.45 245.41 100.33 245.60
  C 96.77 245.69 91.63 245.36 87.03 245.86
  Q 84.93 246.09 83.12 245.48
  A 1.30 1.28 17.0 0 1 82.28 243.92
  C 83.05 241.10 84.75 239.70 87.49 237.17
  Q 99.78 225.82 119.83 207.08
  C 122.21 204.86 124.41 200.53 129.22 200.28
  Q 130.54 200.16 132.32 200.62
  Z"
/>
</svg>