<?xml version="1.0" encoding="UTF-8" standalone="no"?>
<!DOCTYPE svg PUBLIC "-//W3C//DTD SVG 1.1//EN" "http://www.w3.org/Graphics/SVG/1.1/DTD/svg11.dtd">
<svg xmlns="http://www.w3.org/2000/svg" version="1.1" viewBox="0.00 0.00 180.00 180.00" width="128" height="128">
<g stroke-width="2.00" fill="none" stroke-linecap="butt">
<path stroke="#e6e6e6" vector-effect="non-scaling-stroke" d="
  M 173.55 90.00
  A 83.55 83.55 0.0 0 0 90.00 6.45
  A 83.55 83.55 0.0 0 0 6.45 90.00
  A 83.55 83.55 0.0 0 0 90.00 173.55
  A 83.55 83.55 0.0 0 0 173.55 90.00"
/>
<path stroke="#838383" vector-effect="non-scaling-stroke" d="
  M 168.73 90.00
  A 78.73 78.73 0.0 0 0 90.00 11.27
  A 78.73 78.73 0.0 0 0 11.27 90.00
  A 78.73 78.73 0.0 0 0 90.00 168.73
  A 78.73 78.73 0.0 0 0 168.73 90.00"
/>
<path stroke="#8c3817" vector-effect="non-scaling-stroke" d="
  M 90.34 25.39
  Q 87.33 25.28 87.32 22.74
  Q 87.32 19.12 87.27 15.69
  A 0.56 0.56 0.0 0 0 86.69 15.14
  Q 73.12 15.75 60.53 21.15"
/>
<path stroke="#7d7d7d" vector-effect="non-scaling-stroke" d="
  M 60.53 21.15
  Q 28.02 36.08 18.08 70.58
  Q 16.46 76.19 15.68 86.04
  A 0.48 0.47 3.3 0 0 16.15 86.56
  L 18.29 86.60"
/>
<path stroke="#838383" vector-effect="non-scaling-stroke" d="
  M 18.29 86.60
  Q 21.15 86.62 24.00 86.68
  Q 25.65 86.72 26.22 89.53"
/>
<path stroke="#3c6922" vector-effect="non-scaling-stroke" d="
  M 26.22 89.53
  C 25.96 92.09 24.09 92.68 21.70 92.57
  Q 18.79 92.44 16.34 92.55
  A 0.69 0.68 -3.6 0 0 15.68 93.29
  Q 17.02 109.78 23.16 122.10
  Q 37.54 150.97 68.76 161.06
  Q 71.68 162.01 76.09 162.74
  C 77.77 163.01 83.06 164.33 86.77 164.09
  A 0.57 0.57 0.0 0 0 87.31 163.51
  Q 87.26 161.17 87.30 158.77
  C 87.34 156.58 87.09 154.64 89.58 153.85
  Q 91.63 153.19 93.10 155.64
  A 1.26 1.26 0.0 0 1 93.28 156.29
  L 93.28 163.60
  A 0.62 0.62 0.0 0 0 93.98 164.22
  Q 106.06 162.80 109.33 161.82
  Q 147.29 150.48 160.95 113.71
  C 162.22 110.28 162.87 106.37 163.86 102.14
  Q 164.54 99.22 164.68 93.14
  A 0.58 0.58 0.0 0 0 164.10 92.55
  L 157.28 92.52
  A 2.74 2.74 0.0 0 1 154.55 89.66
  L 154.55 89.39
  A 2.76 2.75 -0.4 0 1 157.32 86.59
  L 164.37 86.63
  A 0.49 0.49 0.0 0 0 164.86 86.13
  Q 164.72 82.04 164.16 78.77
  Q 158.73 47.05 133.48 28.87
  C 122.01 20.62 107.64 15.59 93.82 15.11
  A 0.54 0.53 1.0 0 0 93.26 15.64
  L 93.26 22.83
  A 2.02 2.01 59.9 0 1 93.00 23.82
  Q 92.05 25.50 90.34 25.39"
/>
<path stroke="#a6d38b" vector-effect="non-scaling-stroke" d="
  M 26.22 89.53
  L 75.43 89.50"
/>
<path stroke="#3c6922" vector-effect="non-scaling-stroke" d="
  M 75.43 89.50
  Q 76.74 100.73 87.76 103.38
  A 0.78 0.78 0.0 0 1 88.34 103.96
  L 98.67 147.77
  A 0.58 0.57 -13.2 0 0 99.36 148.19
  L 99.81 148.08
  A 0.61 0.61 0.0 0 0 100.28 147.43
  L 96.15 102.95
  A 0.92 0.91 -19.0 0 1 96.57 102.10
  L 99.51 100.24
  A 1.54 1.21 -78.3 0 0 99.70 100.08
  Q 108.20 91.68 102.84 81.37
  C 102.16 80.06 100.84 78.87 99.89 77.82
  A 1.13 1.13 0.0 0 1 99.63 76.78
  Q 103.41 61.86 107.38 47.18
  Q 107.57 46.50 107.43 46.17
  A 0.70 0.70 0.0 0 0 106.16 46.13
  Q 99.01 60.40 90.48 74.97"
/>
<path stroke="#af8820" vector-effect="non-scaling-stroke" d="
  M 90.48 74.97
  L 90.34 25.39"
/>
<path stroke="#8c3817" vector-effect="non-scaling-stroke" d="
  M 90.48 74.97
  Q 87.32 73.53 84.20 75.43"
/>
<path stroke="#f6a281" vector-effect="non-scaling-stroke" d="
  M 84.20 75.43
  L 61.80 22.84"
/>
<path stroke="#f09c7b" vector-effect="non-scaling-stroke" d="
  M 61.80 22.84
  Q 61.38 21.79 60.53 21.15"
/>
<path stroke="#838383" vector-effect="non-scaling-stroke" d="
  M 84.20 75.43
  Q 75.65 79.54 75.43 89.50"
/>
<path stroke="#e6e6e6" vector-effect="non-scaling-stroke" d="
  M 61.80 22.84
  Q 56.07 26.71 50.46 30.63
  Q 43.31 35.64 39.93 39.38
  Q 31.74 48.44 26.50 59.89
  Q 26.43 60.04 26.32 60.15
  Q 26.05 60.43 26.02 60.55
  A 0.18 0.16 -29.0 0 0 26.35 60.63
  Q 27.72 57.33 30.53 53.99
  Q 30.66 53.84 30.45 54.21
  Q 22.78 67.29 20.88 83.69
  Q 20.72 85.02 20.90 86.04
  A 0.46 0.46 0.0 0 1 20.45 86.57
  L 18.29 86.60"
/>
</g>
<path fill="#e0e0e0" d="
  M 94.41 0.00
  Q 118.30 1.44 137.29 13.40
  Q 169.76 33.83 178.35 72.23
  Q 178.97 75.00 180.00 85.46
  L 180.00 94.47
  Q 178.51 118.72 166.18 137.95
  Q 146.91 168.03 112.08 177.29
  C 106.51 178.77 100.45 179.39 94.54 180.00
  L 85.56 180.00
  Q 63.86 178.67 46.46 168.82
  Q 11.44 148.97 1.87 108.83
  Q 1.04 105.36 0.00 94.54
  L 0.00 85.63
  Q 2.56 47.70 29.99 22.98
  Q 53.21 2.05 85.57 0.00
  L 94.41 0.00
  Z
  M 173.55 90.00
  A 83.55 83.55 0.0 0 0 90.00 6.45
  A 83.55 83.55 0.0 0 0 6.45 90.00
  A 83.55 83.55 0.0 0 0 90.00 173.55
  A 83.55 83.55 0.0 0 0 173.55 90.00
  Z"
/>
<path fill="#ececec" d="
  M 173.55 90.00
  A 83.55 83.55 0.0 0 1 90.00 173.55
  A 83.55 83.55 0.0 0 1 6.45 90.00
  A 83.55 83.55 0.0 0 1 90.00 6.45
  A 83.55 83.55 0.0 0 1 173.55 90.00
  Z
  M 168.73 90.00
  A 78.73 78.73 0.0 0 0 90.00 11.27
  A 78.73 78.73 0.0 0 0 11.27 90.00
  A 78.73 78.73 0.0 0 0 90.00 168.73
  A 78.73 78.73 0.0 0 0 168.73 90.00
  Z"
/>
<path fill="#191919" d="
  M 168.73 90.00
  A 78.73 78.73 0.0 0 1 90.00 168.73
  A 78.73 78.73 0.0 0 1 11.27 90.00
  A 78.73 78.73 0.0 0 1 90.00 11.27
  A 78.73 78.73 0.0 0 1 168.73 90.00
  Z
  M 90.34 25.39
  Q 87.33 25.28 87.32 22.74
  Q 87.32 19.12 87.27 15.69
  A 0.56 0.56 0.0 0 0 86.69 15.14
  Q 73.12 15.75 60.53 21.15
  Q 28.02 36.08 18.08 70.58
  Q 16.46 76.19 15.68 86.04
  A 0.48 0.47 3.3 0 0 16.15 86.56
  L 18.29 86.60
  Q 21.15 86.62 24.00 86.68
  Q 25.65 86.72 26.22 89.53
  C 25.96 92.09 24.09 92.68 21.70 92.57
  Q 18.79 92.44 16.34 92.55
  A 0.69 0.68 -3.6 0 0 15.68 93.29
  Q 17.02 109.78 23.16 122.10
  Q 37.54 150.97 68.76 161.06
  Q 71.68 162.01 76.09 162.74
  C 77.77 163.01 83.06 164.33 86.77 164.09
  A 0.57 0.57 0.0 0 0 87.31 163.51
  Q 87.26 161.17 87.30 158.77
  C 87.34 156.58 87.09 154.64 89.58 153.85
  Q 91.63 153.19 93.10 155.64
  A 1.26 1.26 0.0 0 1 93.28 156.29
  L 93.28 163.60
  A 0.62 0.62 0.0 0 0 93.98 164.22
  Q 106.06 162.80 109.33 161.82
  Q 147.29 150.48 160.95 113.71
  C 162.22 110.28 162.87 106.37 163.86 102.14
  Q 164.54 99.22 164.68 93.14
  A 0.58 0.58 0.0 0 0 164.10 92.55
  L 157.28 92.52
  A 2.74 2.74 0.0 0 1 154.55 89.66
  L 154.55 89.39
  A 2.76 2.75 -0.4 0 1 157.32 86.59
  L 164.37 86.63
  A 0.49 0.49 0.0 0 0 164.86 86.13
  Q 164.72 82.04 164.16 78.77
  Q 158.73 47.05 133.48 28.87
  C 122.01 20.62 107.64 15.59 93.82 15.11
  A 0.54 0.53 1.0 0 0 93.26 15.64
  L 93.26 22.83
  A 2.02 2.01 59.9 0 1 93.00 23.82
  Q 92.05 25.50 90.34 25.39
  Z"
/>
<path fill="#5fb92a" d="
  M 26.22 89.53
  L 75.43 89.50
  Q 76.74 100.73 87.76 103.38
  A 0.78 0.78 0.0 0 1 88.34 103.96
  L 98.67 147.77
  A 0.58 0.57 -13.2 0 0 99.36 148.19
  L 99.81 148.08
  A 0.61 0.61 0.0 0 0 100.28 147.43
  L 96.15 102.95
  A 0.92 0.91 -19.0 0 1 96.57 102.10
  L 99.51 100.24
  A 1.54 1.21 -78.3 0 0 99.70 100.08
  Q 108.20 91.68 102.84 81.37
  C 102.16 80.06 100.84 78.87 99.89 77.82
  A 1.13 1.13 0.0 0 1 99.63 76.78
  Q 103.41 61.86 107.38 47.18
  Q 107.57 46.50 107.43 46.17
  A 0.70 0.70 0.0 0 0 106.16 46.13
  Q 99.01 60.40 90.48 74.97
  L 90.34 25.39
  Q 92.05 25.50 93.00 23.82
  A 2.02 2.01 59.9 0 0 93.26 22.83
  L 93.26 15.64
  A 0.54 0.53 1.0 0 1 93.82 15.11
  C 107.64 15.59 122.01 20.62 133.48 28.87
  Q 158.73 47.05 164.16 78.77
  Q 164.72 82.04 164.86 86.13
  A 0.49 0.49 0.0 0 1 164.37 86.63
  L 157.32 86.59
  A 2.76 2.75 -0.4 0 0 154.55 89.39
  L 154.55 89.66
  A 2.74 2.74 0.0 0 0 157.28 92.52
  L 164.10 92.55
  A 0.58 0.58 0.0 0 1 164.68 93.14
  Q 164.54 99.22 163.86 102.14
  C 162.87 106.37 162.22 110.28 160.95 113.71
  Q 147.29 150.48 109.33 161.82
  Q 106.06 162.80 93.98 164.22
  A 0.62 0.62 0.0 0 1 93.28 163.60
  L 93.28 156.29
  A 1.26 1.26 0.0 0 0 93.10 155.64
  Q 91.63 153.19 89.58 153.85
  C 87.09 154.64 87.34 156.58 87.30 158.77
  Q 87.26 161.17 87.31 163.51
  A 0.57 0.57 0.0 0 1 86.77 164.09
  C 83.06 164.33 77.77 163.01 76.09 162.74
  Q 71.68 162.01 68.76 161.06
  Q 37.54 150.97 23.16 122.10
  Q 17.02 109.78 15.68 93.29
  A 0.69 0.68 -3.6 0 1 16.34 92.55
  Q 18.79 92.44 21.70 92.57
  C 24.09 92.68 25.96 92.09 26.22 89.53
  Z"
/>
<path fill="#ff5715" d="
  M 90.34 25.39
  L 90.48 74.97
  Q 87.32 73.53 84.20 75.43
  L 61.80 22.84
  Q 61.38 21.79 60.53 21.15
  Q 73.12 15.75 86.69 15.14
  A 0.56 0.56 0.0 0 1 87.27 15.69
  Q 87.32 19.12 87.32 22.74
  Q 87.33 25.28 90.34 25.39
  Z"
/>
<path fill="#e0e0e0" d="
  M 60.53 21.15
  Q 61.38 21.79 61.80 22.84
  Q 56.07 26.71 50.46 30.63
  Q 43.31 35.64 39.93 39.38
  Q 31.74 48.44 26.50 59.89
  Q 26.43 60.04 26.32 60.15
  Q 26.05 60.43 26.02 60.55
  A 0.18 0.16 -29.0 0 0 26.35 60.63
  Q 27.72 57.33 30.53 53.99
  Q 30.66 53.84 30.45 54.21
  Q 22.78 67.29 20.88 83.69
  Q 20.72 85.02 20.90 86.04
  A 0.46 0.46 0.0 0 1 20.45 86.57
  L 18.29 86.60
  L 16.15 86.56
  A 0.48 0.47 3.3 0 1 15.68 86.04
  Q 16.46 76.19 18.08 70.58
  Q 28.02 36.08 60.53 21.15
  Z"
/>
<path fill="#ececec" d="
  M 61.80 22.84
  L 84.20 75.43
  Q 75.65 79.54 75.43 89.50
  L 26.22 89.53
  Q 25.65 86.72 24.00 86.68
  Q 21.15 86.62 18.29 86.60
  L 20.45 86.57
  A 0.46 0.46 0.0 0 0 20.90 86.04
  Q 20.72 85.02 20.88 83.69
  Q 22.78 67.29 30.45 54.21
  Q 30.66 53.84 30.53 53.99
  Q 27.72 57.33 26.35 60.63
  A 0.18 0.16 -29.0 0 1 26.02 60.55
  Q 26.05 60.43 26.32 60.15
  Q 26.43 60.04 26.50 59.89
  Q 31.74 48.44 39.93 39.38
  Q 43.31 35.64 50.46 30.63
  Q 56.07 26.71 61.80 22.84
  Z"
/>
<path fill="#191919" d="
  M 75.43 89.50
  Q 75.65 79.54 84.20 75.43
  Q 87.32 73.53 90.48 74.97
  Q 99.01 60.40 106.16 46.13
  A 0.70 0.70 0.0 0 1 107.43 46.17
  Q 107.57 46.50 107.38 47.18
  Q 103.41 61.86 99.63 76.78
  A 1.13 1.13 0.0 0 0 99.89 77.82
  C 100.84 78.87 102.16 80.06 102.84 81.37
  Q 108.20 91.68 99.70 100.08
  A 1.54 1.21 -78.3 0 1 99.51 100.24
  L 96.57 102.10
  A 0.92 0.91 -19.0 0 0 96.15 102.95
  L 100.28 147.43
  A 0.61 0.61 0.0 0 1 99.81 148.08
  L 99.36 148.19
  A 0.58 0.57 -13.2 0 1 98.67 147.77
  L 88.34 103.96
  A 0.78 0.78 0.0 0 0 87.76 103.38
  Q 76.74 100.73 75.43 89.50
  Z"
/>
</svg>