<?xml version="1.0" encoding="UTF-8" standalone="no"?>
<!DOCTYPE svg PUBLIC "-//W3C//DTD SVG 1.1//EN" "http://www.w3.org/Graphics/SVG/1.1/DTD/svg11.dtd">
<svg xmlns="http://www.w3.org/2000/svg" version="1.1" viewBox="0.00 0.00 192.00 192.00" width="128" height="128">
<g stroke-width="2.00" fill="none" stroke-linecap="butt">
<path stroke="#c82625" vector-effect="non-scaling-stroke" d="
  M 42.02 58.95
  Q 42.63 62.81 43.78 64.32
  Q 47.63 69.40 52.84 74.43
  C 57.41 78.83 65.25 78.32 71.66 78.19
  Q 79.88 78.02 95.77 77.33
  Q 98.16 77.23 117.94 77.93
  Q 125.75 78.21 130.02 83.68
  A 0.24 0.24 0.0 0 0 130.45 83.57
  L 130.76 81.64"
/>
<path stroke="#f39696" vector-effect="non-scaling-stroke" d="
  M 130.76 81.64
  Q 131.11 94.00 130.94 106.60
  C 130.82 114.68 125.90 116.64 118.22 116.62
  Q 108.18 116.61 76.88 116.62
  A 0.44 0.43 -90.0 0 1 76.45 116.18
  L 76.45 88.14
  A 0.58 0.57 -0.0 0 0 75.87 87.57
  L 57.01 87.57
  A 0.57 0.56 -87.2 0 0 56.45 88.08
  L 56.17 91.53"
/>
<path stroke="#c82625" vector-effect="non-scaling-stroke" d="
  M 56.17 91.53
  Q 52.96 112.45 55.19 133.62
  A 1.62 1.62 0.0 0 0 56.71 135.07
  C 78.33 136.34 100.64 135.80 121.99 135.86
  C 134.91 135.90 145.83 131.89 151.30 119.71
  C 152.22 117.68 152.95 114.38 152.94 112.37
  Q 152.87 98.10 153.24 84.30
  C 153.56 71.85 148.25 64.64 136.79 60.32
  A 0.09 0.09 0.0 0 0 136.71 60.47
  L 141.30 63.53"
/>
<path stroke="#f39696" vector-effect="non-scaling-stroke" d="
  M 141.30 63.53
  Q 134.17 58.93 124.00 58.92
  Q 83.33 58.87 42.02 58.95"
/>
<path stroke="#d48f8e" vector-effect="non-scaling-stroke" d="
  M 141.30 63.53
  Q 147.21 67.39 149.66 73.24
  Q 151.16 76.79 151.17 83.92
  Q 151.23 105.84 151.16 111.75
  Q 151.09 116.60 149.24 119.73
  Q 141.51 132.75 125.75 132.94
  Q 125.03 132.95 56.94 133.08
  A 0.75 0.74 -0.0 0 1 56.19 132.34
  L 56.17 91.53"
/>
<path stroke="#d48f8e" vector-effect="non-scaling-stroke" d="
  M 130.76 81.64
  Q 127.94 75.42 122.75 75.41
  Q 90.13 75.34 57.80 75.42
  A 2.72 2.72 0.0 0 1 55.74 74.50
  L 42.02 58.95"
/>
</g>
<path fill="#e62d2d" d="
  M 179.42 0.00
  Q 189.46 2.43 192.00 12.51
  L 192.00 179.42
  Q 189.59 189.41 179.48 192.00
  L 12.58 192.00
  Q 2.60 189.54 0.00 179.47
  L 0.00 12.59
  Q 2.47 2.55 12.53 0.00
  L 179.42 0.00
  Z
  M 42.02 58.95
  Q 42.63 62.81 43.78 64.32
  Q 47.63 69.40 52.84 74.43
  C 57.41 78.83 65.25 78.32 71.66 78.19
  Q 79.88 78.02 95.77 77.33
  Q 98.16 77.23 117.94 77.93
  Q 125.75 78.21 130.02 83.68
  A 0.24 0.24 0.0 0 0 130.45 83.57
  L 130.76 81.64
  Q 131.11 94.00 130.94 106.60
  C 130.82 114.68 125.90 116.64 118.22 116.62
  Q 108.18 116.61 76.88 116.62
  A 0.44 0.43 -90.0 0 1 76.45 116.18
  L 76.45 88.14
  A 0.58 0.57 -0.0 0 0 75.87 87.57
  L 57.01 87.57
  A 0.57 0.56 -87.2 0 0 56.45 88.08
  L 56.17 91.53
  Q 52.96 112.45 55.19 133.62
  A 1.62 1.62 0.0 0 0 56.71 135.07
  C 78.33 136.34 100.64 135.80 121.99 135.86
  C 134.91 135.90 145.83 131.89 151.30 119.71
  C 152.22 117.68 152.95 114.38 152.94 112.37
  Q 152.87 98.10 153.24 84.30
  C 153.56 71.85 148.25 64.64 136.79 60.32
  A 0.09 0.09 0.0 0 0 136.71 60.47
  L 141.30 63.53
  Q 134.17 58.93 124.00 58.92
  Q 83.33 58.87 42.02 58.95
  Z"
/>
<path fill="#ffffff" d="
  M 141.30 63.53
  Q 147.21 67.39 149.66 73.24
  Q 151.16 76.79 151.17 83.92
  Q 151.23 105.84 151.16 111.75
  Q 151.09 116.60 149.24 119.73
  Q 141.51 132.75 125.75 132.94
  Q 125.03 132.95 56.94 133.08
  A 0.75 0.74 -0.0 0 1 56.19 132.34
  L 56.17 91.53
  L 56.45 88.08
  A 0.57 0.56 -87.2 0 1 57.01 87.57
  L 75.87 87.57
  A 0.58 0.57 0.0 0 1 76.45 88.14
  L 76.45 116.18
  A 0.44 0.43 90.0 0 0 76.88 116.62
  Q 108.18 116.61 118.22 116.62
  C 125.90 116.64 130.82 114.68 130.94 106.60
  Q 131.11 94.00 130.76 81.64
  Q 127.94 75.42 122.75 75.41
  Q 90.13 75.34 57.80 75.42
  A 2.72 2.72 0.0 0 1 55.74 74.50
  L 42.02 58.95
  Q 83.33 58.87 124.00 58.92
  Q 134.17 58.93 141.30 63.53
  Z"
/>
<path fill="#a91e1d" d="
  M 42.02 58.95
  L 55.74 74.50
  A 2.72 2.72 0.0 0 0 57.80 75.42
  Q 90.13 75.34 122.75 75.41
  Q 127.94 75.42 130.76 81.64
  L 130.45 83.57
  A 0.24 0.24 0.0 0 1 130.02 83.68
  Q 125.75 78.21 117.94 77.93
  Q 98.16 77.23 95.77 77.33
  Q 79.88 78.02 71.66 78.19
  C 65.25 78.32 57.41 78.83 52.84 74.43
  Q 47.63 69.40 43.78 64.32
  Q 42.63 62.81 42.02 58.95
  Z"
/>
<path fill="#a91e1d" d="
  M 56.17 91.53
  L 56.19 132.34
  A 0.75 0.74 -0.0 0 0 56.94 133.08
  Q 125.03 132.95 125.75 132.94
  Q 141.51 132.75 149.24 119.73
  Q 151.09 116.60 151.16 111.75
  Q 151.23 105.84 151.17 83.92
  Q 151.16 76.79 149.66 73.24
  Q 147.21 67.39 141.30 63.53
  L 136.71 60.47
  A 0.09 0.09 0.0 0 1 136.79 60.32
  C 148.25 64.64 153.56 71.85 153.24 84.30
  Q 152.87 98.10 152.94 112.37
  C 152.95 114.38 152.22 117.68 151.30 119.71
  C 145.83 131.89 134.91 135.90 121.99 135.86
  C 100.64 135.80 78.33 136.34 56.71 135.07
  A 1.62 1.62 0.0 0 1 55.19 133.62
  Q 52.96 112.45 56.17 91.53
  Z"
/>
</svg>