<?xml version="1.0" encoding="UTF-8" standalone="no"?>
<!DOCTYPE svg PUBLIC "-//W3C//DTD SVG 1.1//EN" "http://www.w3.org/Graphics/SVG/1.1/DTD/svg11.dtd">
<svg xmlns="http://www.w3.org/2000/svg" version="1.1" viewBox="0.00 0.00 256.00 256.00" width="128" height="128">
<path fill="#4468c4" d="
  M 158.42 29.83
  Q 159.07 30.95 159.10 31.74
  Q 159.50 41.51 159.35 57.48
  Q 159.30 62.68 158.88 63.89
  A 4.45 4.45 0.0 0 1 158.27 65.04
  Q 156.88 66.95 154.44 68.37
  Q 135.68 79.27 132.60 80.97
  Q 130.66 82.04 129.64 82.42
  A 4.91 4.91 0.0 0 1 125.66 82.15
  Q 123.54 81.03 112.59 74.76
  C 107.50 71.84 102.08 71.70 96.99 74.64
  C 91.89 77.58 89.30 82.34 89.28 88.20
  Q 89.23 100.82 89.13 103.22
  A 4.91 4.91 0.0 0 1 87.37 106.80
  Q 86.54 107.49 84.64 108.63
  Q 81.62 110.45 62.80 121.23
  Q 60.35 122.63 58.00 122.88
  A 4.45 4.45 0.0 0 1 56.70 122.83
  Q 55.44 122.59 50.91 120.03
  Q 37.01 112.17 28.75 106.93
  Q 28.09 106.52 27.44 105.39
  Q 26.80 104.27 26.76 103.49
  Q 26.37 93.72 26.52 77.75
  Q 26.57 72.55 26.99 71.34
  A 4.45 4.45 0.0 0 1 27.60 70.19
  Q 28.99 68.28 31.43 66.86
  Q 50.19 55.96 53.27 54.26
  Q 55.21 53.19 56.23 52.81
  A 4.91 4.91 0.0 0 1 60.21 53.08
  Q 62.33 54.20 73.28 60.47
  C 78.37 63.39 83.78 63.53 88.88 60.59
  C 93.98 57.65 96.57 52.89 96.59 47.02
  Q 96.64 34.41 96.73 32.01
  A 4.91 4.91 0.0 0 1 98.49 28.43
  Q 99.33 27.74 101.23 26.59
  Q 104.24 24.78 123.07 13.99
  Q 125.52 12.59 127.87 12.35
  A 4.45 4.45 0.0 0 1 129.17 12.39
  Q 130.43 12.64 134.95 15.20
  Q 148.85 23.06 157.12 28.29
  Q 157.78 28.71 158.42 29.83
  Z"
/>
<path fill="#5dbf9d" d="
  M 159.25 128.22
  Q 159.25 131.20 160.86 134.61
  C 164.74 142.82 174.25 145.53 182.18 141.33
  Q 188.08 138.20 194.08 134.81
  C 198.28 132.44 201.37 134.25 206.24 137.02
  Q 212.36 140.50 223.13 146.88
  C 227.03 149.20 229.34 150.52 229.32 155.01
  Q 229.22 176.84 229.39 181.53
  Q 229.56 186.49 225.57 188.88
  Q 208.19 199.32 200.59 203.35
  Q 197.92 204.76 194.65 202.91
  Q 184.64 197.24 174.01 191.07
  C 171.99 189.90 167.74 187.28 166.86 184.98
  A 2.68 2.62 -55.0 0 1 166.69 183.94
  C 167.10 172.01 168.89 160.33 157.78 154.81
  Q 152.00 151.94 146.28 154.51
  Q 139.82 157.41 133.53 161.33
  Q 129.46 163.87 125.89 163.02
  Q 125.24 162.86 118.82 159.24
  Q 113.42 156.20 104.35 150.91
  C 99.56 148.12 96.91 146.72 96.92 141.25
  Q 96.93 134.64 96.93 128.25
  Q 96.92 121.85 96.91 115.24
  C 96.90 109.77 99.55 108.37 104.33 105.58
  Q 113.40 100.28 118.80 97.24
  Q 125.22 93.61 125.87 93.45
  Q 129.44 92.60 133.51 95.14
  Q 139.80 99.05 146.26 101.95
  Q 151.98 104.51 157.76 101.64
  C 168.87 96.11 167.07 84.43 166.65 72.50
  A 2.68 2.62 55.0 0 1 166.82 71.46
  C 167.70 69.16 171.95 66.54 173.97 65.37
  Q 184.59 59.19 194.60 53.51
  Q 197.87 51.66 200.54 53.07
  Q 208.14 57.09 225.53 67.52
  Q 229.52 69.91 229.35 74.87
  Q 229.19 79.56 229.30 101.39
  C 229.32 105.88 227.02 107.20 223.12 109.52
  Q 212.35 115.91 206.23 119.40
  C 201.37 122.17 198.28 123.98 194.08 121.61
  Q 188.07 118.23 182.17 115.10
  C 174.24 110.91 164.73 113.62 160.86 121.84
  Q 159.25 125.25 159.25 128.22
  Z"
/>
<path fill="#4293d9" d="
  M 58.06 204.33
  A 2.29 2.27 -37.0 0 1 56.36 204.10
  Q 40.62 195.15 30.77 189.29
  C 26.17 186.54 26.42 183.56 26.42 178.05
  Q 26.41 160.86 26.48 157.25
  C 26.56 153.40 26.44 150.80 29.89 148.64
  Q 34.78 145.57 54.38 134.37
  C 58.14 132.22 62.04 134.52 66.39 137.04
  C 76.64 143.00 83.15 146.37 87.60 150.15
  Q 89.36 151.64 89.32 154.00
  C 89.17 162.14 88.38 168.60 90.24 173.54
  C 93.17 181.35 102.03 186.54 110.26 182.75
  Q 115.32 180.43 122.36 175.90
  C 127.28 172.74 129.74 173.33 134.14 176.16
  Q 135.72 177.17 151.02 185.99
  C 155.06 188.32 159.40 190.40 159.32 195.62
  Q 159.12 208.59 159.25 221.50
  C 159.27 223.98 159.19 227.26 156.88 228.65
  Q 145.02 235.73 133.00 242.46
  C 127.88 245.33 124.56 243.53 119.92 240.85
  Q 109.36 234.76 98.70 228.47
  A 2.69 2.65 8.5 0 1 97.46 226.82
  C 96.00 220.91 96.76 214.08 96.55 208.53
  C 96.35 202.97 92.66 197.24 87.05 195.05
  Q 80.61 192.53 73.75 196.06
  Q 69.84 198.07 60.81 203.32
  Q 59.86 203.87 58.06 204.33
  Z"
/>
</svg>