<?xml version="1.0" encoding="UTF-8" standalone="no"?>
<!DOCTYPE svg PUBLIC "-//W3C//DTD SVG 1.1//EN" "http://www.w3.org/Graphics/SVG/1.1/DTD/svg11.dtd">
<svg xmlns="http://www.w3.org/2000/svg" version="1.1" viewBox="0.00 -0.50 192.00 192.00" width="128" height="128">
<g stroke-width="2.00" fill="none" stroke-linecap="butt">
<path stroke="#808080" vector-effect="non-scaling-stroke" d="
  M 22.85 57.79
  L 22.73 130.79
  A 0.56 0.56 0.0 0 0 23.29 131.35
  L 44.45 131.39
  A 20.87 20.86 -89.9 0 0 65.34 110.56
  L 65.40 78.18
  A 20.87 20.86 -89.9 0 0 44.57 57.27
  L 23.41 57.23
  A 0.56 0.56 0.0 0 0 22.85 57.79"
/>
<path stroke="#808080" vector-effect="non-scaling-stroke" d="
  M 73.34 94.32
  Q 73.34 115.50 73.38 120.12
  Q 73.42 125.40 74.60 127.15
  Q 76.80 130.39 80.98 131.28
  A 1.49 1.20 -32.8 0 0 81.27 131.31
  L 109.85 131.33
  A 0.60 0.59 -0.0 0 0 110.45 130.74
  L 110.45 118.46
  A 0.36 0.36 0.0 0 0 110.09 118.10
  L 87.02 118.10
  A 0.43 0.42 0.0 0 1 86.59 117.68
  L 86.59 101.46
  A 0.52 0.52 0.0 0 1 87.11 100.94
  L 100.50 100.94
  A 0.65 0.64 -88.5 0 0 101.14 100.33
  Q 101.20 99.16 101.20 94.32
  Q 101.20 89.47 101.14 88.30
  A 0.65 0.64 88.5 0 0 100.50 87.69
  L 87.11 87.69
  A 0.52 0.52 0.0 0 1 86.59 87.17
  L 86.59 70.95
  A 0.43 0.42 0.0 0 1 87.02 70.53
  L 110.09 70.53
  A 0.36 0.36 0.0 0 0 110.45 70.17
  L 110.45 57.89
  A 0.60 0.59 0.0 0 0 109.85 57.30
  L 81.27 57.32
  A 1.49 1.20 32.8 0 0 80.98 57.35
  Q 76.80 58.24 74.60 61.48
  Q 73.42 63.23 73.38 68.51
  Q 73.34 73.14 73.34 94.32"
/>
<path stroke="#808080" vector-effect="non-scaling-stroke" d="
  M 146.24 131.32
  C 153.14 131.32 156.40 124.26 158.06 117.82
  Q 161.47 104.56 174.03 57.72
  A 0.32 0.32 0.0 0 0 173.72 57.32
  L 159.81 57.32
  A 0.41 0.41 0.0 0 0 159.41 57.63
  Q 150.51 91.54 146.55 107.08
  Q 146.48 107.34 146.24 107.34
  Q 146.00 107.34 145.93 107.08
  Q 141.97 91.54 133.07 57.63
  A 0.41 0.41 0.0 0 0 132.67 57.32
  L 118.76 57.32
  A 0.32 0.32 0.0 0 0 118.45 57.72
  Q 131.01 104.56 134.42 117.82
  C 136.07 124.26 139.33 131.32 146.24 131.32"
/>
<path stroke="#808080" vector-effect="non-scaling-stroke" d="
  M 36.20 70.91
  L 36.20 117.69
  A 0.42 0.42 0.0 0 0 36.62 118.11
  L 43.78 118.11
  A 8.28 8.18 0.0 0 0 52.06 109.93
  L 52.06 78.67
  A 8.28 8.18 0.0 0 0 43.78 70.49
  L 36.62 70.49
  A 0.42 0.42 0.0 0 0 36.20 70.91"
/>
</g>
<path fill="#000000" d="
  M 179.42 0.00
  Q 189.17 2.36 192.00 12.15
  L 192.00 178.89
  Q 189.33 188.29 179.85 191.00
  L 12.83 191.00
  Q 4.37 188.98 1.59 181.96
  Q -0.01 177.94 0.00 170.32
  L 0.00 21.37
  C 0.37 18.84 0.12 15.98 0.41 13.88
  Q 1.95 2.90 12.87 0.00
  L 179.42 0.00
  Z
  M 22.85 57.79
  L 22.73 130.79
  A 0.56 0.56 0.0 0 0 23.29 131.35
  L 44.45 131.39
  A 20.87 20.86 -89.9 0 0 65.34 110.56
  L 65.40 78.18
  A 20.87 20.86 -89.9 0 0 44.57 57.27
  L 23.41 57.23
  A 0.56 0.56 0.0 0 0 22.85 57.79
  Z
  M 73.34 94.32
  Q 73.34 115.50 73.38 120.12
  Q 73.42 125.40 74.60 127.15
  Q 76.80 130.39 80.98 131.28
  A 1.49 1.20 -32.8 0 0 81.27 131.31
  L 109.85 131.33
  A 0.60 0.59 -0.0 0 0 110.45 130.74
  L 110.45 118.46
  A 0.36 0.36 0.0 0 0 110.09 118.10
  L 87.02 118.10
  A 0.43 0.42 0.0 0 1 86.59 117.68
  L 86.59 101.46
  A 0.52 0.52 0.0 0 1 87.11 100.94
  L 100.50 100.94
  A 0.65 0.64 -88.5 0 0 101.14 100.33
  Q 101.20 99.16 101.20 94.32
  Q 101.20 89.47 101.14 88.30
  A 0.65 0.64 88.5 0 0 100.50 87.69
  L 87.11 87.69
  A 0.52 0.52 0.0 0 1 86.59 87.17
  L 86.59 70.95
  A 0.43 0.42 0.0 0 1 87.02 70.53
  L 110.09 70.53
  A 0.36 0.36 0.0 0 0 110.45 70.17
  L 110.45 57.89
  A 0.60 0.59 0.0 0 0 109.85 57.30
  L 81.27 57.32
  A 1.49 1.20 32.8 0 0 80.98 57.35
  Q 76.80 58.24 74.60 61.48
  Q 73.42 63.23 73.38 68.51
  Q 73.34 73.14 73.34 94.32
  Z
  M 146.24 131.32
  C 153.14 131.32 156.40 124.26 158.06 117.82
  Q 161.47 104.56 174.03 57.72
  A 0.32 0.32 0.0 0 0 173.72 57.32
  L 159.81 57.32
  A 0.41 0.41 0.0 0 0 159.41 57.63
  Q 150.51 91.54 146.55 107.08
  Q 146.48 107.34 146.24 107.34
  Q 146.00 107.34 145.93 107.08
  Q 141.97 91.54 133.07 57.63
  A 0.41 0.41 0.0 0 0 132.67 57.32
  L 118.76 57.32
  A 0.32 0.32 0.0 0 0 118.45 57.72
  Q 131.01 104.56 134.42 117.82
  C 136.07 124.26 139.33 131.32 146.24 131.32
  Z"
/>
<path fill="#ffffff" d="
  M 22.85 57.79
  A 0.56 0.56 0.0 0 1 23.41 57.23
  L 44.57 57.27
  A 20.87 20.86 -89.9 0 1 65.40 78.18
  L 65.34 110.56
  A 20.87 20.86 -89.9 0 1 44.45 131.39
  L 23.29 131.35
  A 0.56 0.56 0.0 0 1 22.73 130.79
  L 22.85 57.79
  Z
  M 36.20 70.91
  L 36.20 117.69
  A 0.42 0.42 0.0 0 0 36.62 118.11
  L 43.78 118.11
  A 8.28 8.18 0.0 0 0 52.06 109.93
  L 52.06 78.67
  A 8.28 8.18 0.0 0 0 43.78 70.49
  L 36.62 70.49
  A 0.42 0.42 0.0 0 0 36.20 70.91
  Z"
/>
<path fill="#ffffff" d="
  M 101.20 94.32
  Q 101.20 99.16 101.14 100.33
  A 0.65 0.64 -88.5 0 1 100.50 100.94
  L 87.11 100.94
  A 0.52 0.52 0.0 0 0 86.59 101.46
  L 86.59 117.68
  A 0.43 0.42 -0.0 0 0 87.02 118.10
  L 110.09 118.10
  A 0.36 0.36 0.0 0 1 110.45 118.46
  L 110.45 130.74
  A 0.60 0.59 0.0 0 1 109.85 131.33
  L 81.27 131.31
  A 1.49 1.20 -32.8 0 1 80.98 131.28
  Q 76.80 130.39 74.60 127.15
  Q 73.42 125.40 73.38 120.12
  Q 73.34 115.50 73.34 94.32
  Q 73.34 73.14 73.38 68.51
  Q 73.42 63.23 74.60 61.48
  Q 76.80 58.24 80.98 57.35
  A 1.49 1.20 32.8 0 1 81.27 57.32
  L 109.85 57.30
  A 0.60 0.59 0.0 0 1 110.45 57.89
  L 110.45 70.17
  A 0.36 0.36 0.0 0 1 110.09 70.53
  L 87.02 70.53
  A 0.43 0.42 0.0 0 0 86.59 70.95
  L 86.59 87.17
  A 0.52 0.52 0.0 0 0 87.11 87.69
  L 100.50 87.69
  A 0.65 0.64 88.5 0 1 101.14 88.30
  Q 101.20 89.47 101.20 94.32
  Z"
/>
<path fill="#ffffff" d="
  M 146.24 107.34
  Q 146.48 107.34 146.55 107.08
  Q 150.51 91.54 159.41 57.63
  A 0.41 0.41 0.0 0 1 159.81 57.32
  L 173.72 57.32
  A 0.32 0.32 0.0 0 1 174.03 57.72
  Q 161.47 104.56 158.06 117.82
  C 156.40 124.26 153.14 131.32 146.24 131.32
  C 139.33 131.32 136.07 124.26 134.42 117.82
  Q 131.01 104.56 118.45 57.72
  A 0.32 0.32 0.0 0 1 118.76 57.32
  L 132.67 57.32
  A 0.41 0.41 0.0 0 1 133.07 57.63
  Q 141.97 91.54 145.93 107.08
  Q 146.00 107.34 146.24 107.34
  Z"
/>
<path fill="#000000" d="
  M 36.20 70.91
  A 0.42 0.42 0.0 0 1 36.62 70.49
  L 43.78 70.49
  A 8.28 8.18 0.0 0 1 52.06 78.67
  L 52.06 109.93
  A 8.28 8.18 -0.0 0 1 43.78 118.11
  L 36.62 118.11
  A 0.42 0.42 0.0 0 1 36.20 117.69
  L 36.20 70.91
  Z"
/>
</svg>