<?xml version="1.0" encoding="UTF-8" standalone="no"?>
<!DOCTYPE svg PUBLIC "-//W3C//DTD SVG 1.1//EN" "http://www.w3.org/Graphics/SVG/1.1/DTD/svg11.dtd">
<svg xmlns="http://www.w3.org/2000/svg" version="1.1" viewBox="0.00 0.00 192.00 192.00" width="128" height="128">
<g stroke-width="2.00" fill="none" stroke-linecap="butt">
<path stroke="#692097" vector-effect="non-scaling-stroke" d="
  M 29.77 0.00
  Q 11.83 22.01 0.00 48.13"
/>
<path stroke="#8123a0" vector-effect="non-scaling-stroke" d="
  M 57.49 0.00
  C 31.85 27.26 15.16 61.63 0.00 95.95"
/>
<path stroke="#9225a3" vector-effect="non-scaling-stroke" d="
  M 81.37 0.00
  C 62.63 20.47 46.90 40.27 33.11 64.05"
/>
<path stroke="#c28ecd" vector-effect="non-scaling-stroke" d="
  M 33.11 64.05
  L 25.78 67.57
  A 1.16 1.15 -48.0 0 0 25.89 69.70
  L 32.17 71.92"
/>
<path stroke="#9225a3" vector-effect="non-scaling-stroke" d="
  M 32.17 71.92
  Q 24.61 90.39 19.92 104.17
  C 11.69 128.33 7.33 153.40 3.71 179.18"
/>
<path stroke="#9e27a2" vector-effect="non-scaling-stroke" d="
  M 101.14 0.00
  Q 85.74 11.37 71.36 25.43"
/>
<path stroke="#c88fcc" vector-effect="non-scaling-stroke" d="
  M 71.36 25.43
  L 70.49 21.32
  A 1.32 1.31 -31.4 0 0 68.18 20.77
  Q 67.99 21.01 67.75 21.71
  C 61.53 39.74 49.76 54.87 33.11 64.05"
/>
<path stroke="#aa289f" vector-effect="non-scaling-stroke" d="
  M 118.77 0.00
  Q 117.76 0.48 116.37 0.46
  A 1.39 1.35 -63.1 0 0 115.49 0.76
  Q 94.43 17.23 75.33 36.15"
/>
<path stroke="#ce8fcc" vector-effect="non-scaling-stroke" d="
  M 75.33 36.15
  L 71.36 25.43"
/>
<path stroke="#ba2999" vector-effect="non-scaling-stroke" d="
  M 179.40 3.83
  Q 167.57 6.44 156.43 9.75
  C 130.24 17.53 108.52 31.61 89.02 51.68"
/>
<path stroke="#d490ca" vector-effect="non-scaling-stroke" d="
  M 89.02 51.68
  Q 80.18 45.34 75.33 36.15"
/>
<path stroke="#cd298f" vector-effect="non-scaling-stroke" d="
  M 192.00 27.39
  Q 179.45 28.59 169.37 30.66
  C 146.38 35.37 123.81 47.76 106.49 63.37
  C 92.18 76.26 80.10 92.62 70.02 109.42
  Q 58.98 127.84 53.29 149.36
  Q 47.70 170.53 43.30 192.00"
/>
<path stroke="#ba2999" vector-effect="non-scaling-stroke" d="
  M 32.45 192.00
  Q 39.46 147.42 57.35 106.08"
/>
<path stroke="#de91c5" vector-effect="non-scaling-stroke" d="
  M 57.35 106.08
  Q 58.07 106.44 58.80 106.06
  Q 59.38 105.75 59.69 104.89
  C 67.01 84.38 81.44 67.29 102.27 59.65
  A 1.19 1.19 0.0 0 0 102.14 57.38
  Q 95.22 55.75 89.02 51.68"
/>
<path stroke="#d490ca" vector-effect="non-scaling-stroke" d="
  M 57.35 106.08
  Q 56.24 102.27 55.24 98.71
  Q 52.79 90.06 47.02 83.16"
/>
<path stroke="#ce8fcc" vector-effect="non-scaling-stroke" d="
  M 47.02 83.16
  L 39.03 75.70"
/>
<path stroke="#c88fcc" vector-effect="non-scaling-stroke" d="
  M 39.03 75.70
  L 32.17 71.92"
/>
<path stroke="#db2886" vector-effect="non-scaling-stroke" d="
  M 192.00 38.40
  C 174.98 40.94 156.65 45.02 140.83 52.89
  C 119.60 63.47 101.74 81.50 88.72 101.29
  Q 78.21 117.25 73.21 126.73
  C 62.46 147.12 57.39 169.76 51.88 192.00"
/>
<path stroke="#e32b7b" vector-effect="non-scaling-stroke" d="
  M 192.00 50.70
  Q 175.95 53.31 160.63 58.06"
/>
<path stroke="#ec90bc" vector-effect="non-scaling-stroke" d="
  M 160.63 58.06
  L 144.54 58.09
  A 0.54 0.53 0.5 0 0 144.00 58.61
  L 143.86 64.09"
/>
<path stroke="#e32b7b" vector-effect="non-scaling-stroke" d="
  M 143.86 64.09
  Q 125.46 73.89 110.82 88.80"
/>
<path stroke="#ec90bc" vector-effect="non-scaling-stroke" d="
  M 110.82 88.80
  C 93.66 94.35 84.82 110.54 85.66 128.01"
/>
<path stroke="#e32b7b" vector-effect="non-scaling-stroke" d="
  M 85.66 128.01
  C 75.33 148.52 69.06 169.67 64.00 192.00"
/>
<path stroke="#e8346f" vector-effect="non-scaling-stroke" d="
  M 192.00 63.87
  L 160.76 67.46"
/>
<path stroke="#f092b6" vector-effect="non-scaling-stroke" d="
  M 160.76 67.46
  L 160.63 58.06"
/>
<path stroke="#f199b0" vector-effect="non-scaling-stroke" d="
  M 160.76 67.46
  L 160.79 83.22"
/>
<path stroke="#f59ca8" vector-effect="non-scaling-stroke" d="
  M 160.79 83.22
  L 160.77 104.30"
/>
<path stroke="#f7a1a2" vector-effect="non-scaling-stroke" d="
  M 160.77 104.30
  L 160.77 130.61"
/>
<path stroke="#faaa99" vector-effect="non-scaling-stroke" d="
  M 160.77 130.61
  L 160.79 153.22"
/>
<path stroke="#fbb094" vector-effect="non-scaling-stroke" d="
  M 160.79 153.22
  L 160.62 163.59
  A 0.51 0.51 0.0 0 1 160.12 164.10
  L 150.29 164.18"
/>
<path stroke="#faaa99" vector-effect="non-scaling-stroke" d="
  M 150.29 164.18
  L 144.44 164.08
  A 0.58 0.58 0.0 0 1 143.87 163.50
  L 143.87 155.30
  A 0.17 0.17 0.0 0 0 143.57 155.20
  Q 136.18 163.88 124.56 165.40"
/>
<path stroke="#f7a1a2" vector-effect="non-scaling-stroke" d="
  M 124.56 165.40
  L 117.52 165.47"
/>
<path stroke="#f59ca8" vector-effect="non-scaling-stroke" d="
  M 117.52 165.47
  Q 107.54 164.43 99.77 158.47"
/>
<path stroke="#f199b0" vector-effect="non-scaling-stroke" d="
  M 99.77 158.47
  Q 91.94 152.14 88.28 142.31"
/>
<path stroke="#f092b6" vector-effect="non-scaling-stroke" d="
  M 88.28 142.31
  Q 85.78 135.36 85.66 128.01"
/>
<path stroke="#f092b6" vector-effect="non-scaling-stroke" d="
  M 110.82 88.80
  C 122.29 85.51 135.73 87.90 143.41 97.65
  A 0.24 0.23 26.3 0 0 143.83 97.51
  L 143.86 64.09"
/>
<path stroke="#f59ca8" vector-effect="non-scaling-stroke" d="
  M 106.24 140.40
  Q 109.53 146.42 115.86 149.36"
/>
<path stroke="#f7a1a2" vector-effect="non-scaling-stroke" d="
  M 115.86 149.36
  C 130.10 154.64 143.03 145.46 143.88 130.76
  Q 144.28 123.84 143.23 117.22"
/>
<path stroke="#f59ca8" vector-effect="non-scaling-stroke" d="
  M 143.23 117.22
  Q 140.68 108.56 133.36 104.28"
/>
<path stroke="#f199b0" vector-effect="non-scaling-stroke" d="
  M 133.36 104.28
  Q 124.88 100.39 117.09 103.15
  C 101.91 108.52 99.98 128.04 106.24 140.40"
/>
<path stroke="#ee3d62" vector-effect="non-scaling-stroke" d="
  M 133.36 104.28
  Q 117.65 120.74 106.24 140.40"
/>
<path stroke="#f44554" vector-effect="non-scaling-stroke" d="
  M 143.23 117.22
  C 131.73 126.41 123.77 137.10 115.86 149.36"
/>
<path stroke="#ee3d62" vector-effect="non-scaling-stroke" d="
  M 192.00 75.56
  Q 175.83 77.19 160.79 83.22"
/>
<path stroke="#9e27a2" vector-effect="non-scaling-stroke" d="
  M 39.03 75.70
  Q 33.86 92.54 28.47 109.18
  C 19.94 135.50 14.99 160.37 10.02 186.38"
/>
<path stroke="#f44554" vector-effect="non-scaling-stroke" d="
  M 192.00 97.88
  Q 176.31 100.34 160.77 104.30"
/>
<path stroke="#aa289f" vector-effect="non-scaling-stroke" d="
  M 47.02 83.16
  Q 40.75 102.69 34.32 121.96
  C 27.18 143.36 22.60 167.19 18.73 190.90"
/>
<path stroke="#f95345" vector-effect="non-scaling-stroke" d="
  M 192.00 122.53
  Q 175.96 124.46 160.77 130.61"
/>
<path stroke="#fc6336" vector-effect="non-scaling-stroke" d="
  M 192.00 141.47
  Q 175.42 144.80 160.79 153.22"
/>
<path stroke="#e8346f" vector-effect="non-scaling-stroke" d="
  M 88.28 142.31
  Q 78.75 166.82 72.43 192.00"
/>
<path stroke="#fe6f2d" vector-effect="non-scaling-stroke" d="
  M 192.00 157.54
  Q 177.91 162.26 169.42 168.17
  C 160.11 174.65 152.91 182.96 146.21 192.00"
/>
<path stroke="#fc6336" vector-effect="non-scaling-stroke" d="
  M 133.97 192.00
  Q 141.30 177.79 150.29 164.18"
/>
<path stroke="#ee3d62" vector-effect="non-scaling-stroke" d="
  M 99.77 158.47
  Q 93.63 175.02 89.02 192.00"
/>
<path stroke="#f95345" vector-effect="non-scaling-stroke" d="
  M 115.34 192.00
  L 124.56 165.40"
/>
<path stroke="#f44554" vector-effect="non-scaling-stroke" d="
  M 117.52 165.47
  Q 110.82 178.48 106.00 192.00"
/>
</g>
<path fill="#5d1e91" d="
  M 29.77 0.00
  Q 11.83 22.01 0.00 48.13
  L 0.00 24.07
  Q 3.14 3.69 23.52 0.00
  L 29.77 0.00
  Z"
/>
<path fill="#75229d" d="
  M 57.49 0.00
  C 31.85 27.26 15.16 61.63 0.00 95.95
  L 0.00 48.13
  Q 11.83 22.01 29.77 0.00
  L 57.49 0.00
  Z"
/>
<path fill="#8c24a3" d="
  M 81.37 0.00
  C 62.63 20.47 46.90 40.27 33.11 64.05
  L 25.78 67.57
  A 1.16 1.15 -48.0 0 0 25.89 69.70
  L 32.17 71.92
  Q 24.61 90.39 19.92 104.17
  C 11.69 128.33 7.33 153.40 3.71 179.18
  Q 0.80 174.15 0.00 168.35
  L 0.00 95.95
  C 15.16 61.63 31.85 27.26 57.49 0.00
  L 81.37 0.00
  Z"
/>
<path fill="#9826a2" d="
  M 101.14 0.00
  Q 85.74 11.37 71.36 25.43
  L 70.49 21.32
  A 1.32 1.31 -31.4 0 0 68.18 20.77
  Q 67.99 21.01 67.75 21.71
  C 61.53 39.74 49.76 54.87 33.11 64.05
  C 46.90 40.27 62.63 20.47 81.37 0.00
  L 101.14 0.00
  Z"
/>
<path fill="#a427a1" d="
  M 118.77 0.00
  Q 117.76 0.48 116.37 0.46
  A 1.39 1.35 -63.1 0 0 115.49 0.76
  Q 94.43 17.23 75.33 36.15
  L 71.36 25.43
  Q 85.74 11.37 101.14 0.00
  L 118.77 0.00
  Z"
/>
<path fill="#b0289d" d="
  M 167.96 0.00
  Q 174.01 0.69 179.40 3.83
  Q 167.57 6.44 156.43 9.75
  C 130.24 17.53 108.52 31.61 89.02 51.68
  Q 80.18 45.34 75.33 36.15
  Q 94.43 17.23 115.49 0.76
  A 1.39 1.35 -63.1 0 1 116.37 0.46
  Q 117.76 0.48 118.77 0.00
  L 167.96 0.00
  Z"
/>
<path fill="#c32a94" d="
  M 192.00 23.52
  L 192.00 27.39
  Q 179.45 28.59 169.37 30.66
  C 146.38 35.37 123.81 47.76 106.49 63.37
  C 92.18 76.26 80.10 92.62 70.02 109.42
  Q 58.98 127.84 53.29 149.36
  Q 47.70 170.53 43.30 192.00
  L 32.45 192.00
  Q 39.46 147.42 57.35 106.08
  Q 58.07 106.44 58.80 106.06
  Q 59.38 105.75 59.69 104.89
  C 67.01 84.38 81.44 67.29 102.27 59.65
  A 1.19 1.19 0.0 0 0 102.14 57.38
  Q 95.22 55.75 89.02 51.68
  C 108.52 31.61 130.24 17.53 156.43 9.75
  Q 167.57 6.44 179.40 3.83
  Q 190.04 10.53 192.00 23.52
  Z"
/>
<path fill="#f8f7f6" d="
  M 71.36 25.43
  L 75.33 36.15
  Q 80.18 45.34 89.02 51.68
  Q 95.22 55.75 102.14 57.38
  A 1.19 1.19 0.0 0 1 102.27 59.65
  C 81.44 67.29 67.01 84.38 59.69 104.89
  Q 59.38 105.75 58.80 106.06
  Q 58.07 106.44 57.35 106.08
  Q 56.24 102.27 55.24 98.71
  Q 52.79 90.06 47.02 83.16
  L 39.03 75.70
  L 32.17 71.92
  L 25.89 69.70
  A 1.16 1.15 -48.0 0 1 25.78 67.57
  L 33.11 64.05
  C 49.76 54.87 61.53 39.74 67.75 21.71
  Q 67.99 21.01 68.18 20.77
  A 1.32 1.31 -31.4 0 1 70.49 21.32
  L 71.36 25.43
  Z"
/>
<path fill="#d6278a" d="
  M 192.00 27.39
  L 192.00 38.40
  C 174.98 40.94 156.65 45.02 140.83 52.89
  C 119.60 63.47 101.74 81.50 88.72 101.29
  Q 78.21 117.25 73.21 126.73
  C 62.46 147.12 57.39 169.76 51.88 192.00
  L 43.30 192.00
  Q 47.70 170.53 53.29 149.36
  Q 58.98 127.84 70.02 109.42
  C 80.10 92.62 92.18 76.26 106.49 63.37
  C 123.81 47.76 146.38 35.37 169.37 30.66
  Q 179.45 28.59 192.00 27.39
  Z"
/>
<path fill="#df2981" d="
  M 192.00 38.40
  L 192.00 50.70
  Q 175.95 53.31 160.63 58.06
  L 144.54 58.09
  A 0.54 0.53 0.5 0 0 144.00 58.61
  L 143.86 64.09
  Q 125.46 73.89 110.82 88.80
  C 93.66 94.35 84.82 110.54 85.66 128.01
  C 75.33 148.52 69.06 169.67 64.00 192.00
  L 51.88 192.00
  C 57.39 169.76 62.46 147.12 73.21 126.73
  Q 78.21 117.25 88.72 101.29
  C 101.74 81.50 119.60 63.47 140.83 52.89
  C 156.65 45.02 174.98 40.94 192.00 38.40
  Z"
/>
<path fill="#e72d75" d="
  M 192.00 50.70
  L 192.00 63.87
  L 160.76 67.46
  L 160.63 58.06
  Q 175.95 53.31 192.00 50.70
  Z"
/>
<path fill="#f8f7f6" d="
  M 160.63 58.06
  L 160.76 67.46
  L 160.79 83.22
  L 160.77 104.30
  L 160.77 130.61
  L 160.79 153.22
  L 160.62 163.59
  A 0.51 0.51 0.0 0 1 160.12 164.10
  L 150.29 164.18
  L 144.44 164.08
  A 0.58 0.58 0.0 0 1 143.87 163.50
  L 143.87 155.30
  A 0.17 0.17 0.0 0 0 143.57 155.20
  Q 136.18 163.88 124.56 165.40
  L 117.52 165.47
  Q 107.54 164.43 99.77 158.47
  Q 91.94 152.14 88.28 142.31
  Q 85.78 135.36 85.66 128.01
  C 84.82 110.54 93.66 94.35 110.82 88.80
  C 122.29 85.51 135.73 87.90 143.41 97.65
  A 0.24 0.23 26.3 0 0 143.83 97.51
  L 143.86 64.09
  L 144.00 58.61
  A 0.54 0.53 0.5 0 1 144.54 58.09
  L 160.63 58.06
  Z
  M 106.24 140.40
  Q 109.53 146.42 115.86 149.36
  C 130.10 154.64 143.03 145.46 143.88 130.76
  Q 144.28 123.84 143.23 117.22
  Q 140.68 108.56 133.36 104.28
  Q 124.88 100.39 117.09 103.15
  C 101.91 108.52 99.98 128.04 106.24 140.40
  Z"
/>
<path fill="#e72d75" d="
  M 143.86 64.09
  L 143.83 97.51
  A 0.24 0.23 26.3 0 1 143.41 97.65
  C 135.73 87.90 122.29 85.51 110.82 88.80
  Q 125.46 73.89 143.86 64.09
  Z"
/>
<path fill="#e93a69" d="
  M 192.00 63.87
  L 192.00 75.56
  Q 175.83 77.19 160.79 83.22
  L 160.76 67.46
  L 192.00 63.87
  Z"
/>
<path fill="#9826a2" d="
  M 39.03 75.70
  Q 33.86 92.54 28.47 109.18
  C 19.94 135.50 14.99 160.37 10.02 186.38
  Q 6.04 183.11 3.71 179.18
  C 7.33 153.40 11.69 128.33 19.92 104.17
  Q 24.61 90.39 32.17 71.92
  L 39.03 75.70
  Z"
/>
<path fill="#f2405a" d="
  M 192.00 75.56
  L 192.00 97.88
  Q 176.31 100.34 160.77 104.30
  L 160.79 83.22
  Q 175.83 77.19 192.00 75.56
  Z"
/>
<path fill="#a427a1" d="
  M 47.02 83.16
  Q 40.75 102.69 34.32 121.96
  C 27.18 143.36 22.60 167.19 18.73 190.90
  Q 13.88 189.41 10.02 186.38
  C 14.99 160.37 19.94 135.50 28.47 109.18
  Q 33.86 92.54 39.03 75.70
  L 47.02 83.16
  Z"
/>
<path fill="#b0289d" d="
  M 57.35 106.08
  Q 39.46 147.42 32.45 192.00
  L 23.86 192.00
  L 18.73 190.90
  C 22.60 167.19 27.18 143.36 34.32 121.96
  Q 40.75 102.69 47.02 83.16
  Q 52.79 90.06 55.24 98.71
  Q 56.24 102.27 57.35 106.08
  Z"
/>
<path fill="#f64a4e" d="
  M 192.00 97.88
  L 192.00 122.53
  Q 175.96 124.46 160.77 130.61
  L 160.77 104.30
  Q 176.31 100.34 192.00 97.88
  Z"
/>
<path fill="#e93a69" d="
  M 133.36 104.28
  Q 117.65 120.74 106.24 140.40
  C 99.98 128.04 101.91 108.52 117.09 103.15
  Q 124.88 100.39 133.36 104.28
  Z"
/>
<path fill="#f2405a" d="
  M 143.23 117.22
  C 131.73 126.41 123.77 137.10 115.86 149.36
  Q 109.53 146.42 106.24 140.40
  Q 117.65 120.74 133.36 104.28
  Q 140.68 108.56 143.23 117.22
  Z"
/>
<path fill="#f64a4e" d="
  M 143.23 117.22
  Q 144.28 123.84 143.88 130.76
  C 143.03 145.46 130.10 154.64 115.86 149.36
  C 123.77 137.10 131.73 126.41 143.23 117.22
  Z"
/>
<path fill="#fb5c3b" d="
  M 192.00 122.53
  L 192.00 141.47
  Q 175.42 144.80 160.79 153.22
  L 160.77 130.61
  Q 175.96 124.46 192.00 122.53
  Z"
/>
<path fill="#e72d75" d="
  M 85.66 128.01
  Q 85.78 135.36 88.28 142.31
  Q 78.75 166.82 72.43 192.00
  L 64.00 192.00
  C 69.06 169.67 75.33 148.52 85.66 128.01
  Z"
/>
<path fill="#fd6931" d="
  M 192.00 141.47
  L 192.00 157.54
  Q 177.91 162.26 169.42 168.17
  C 160.11 174.65 152.91 182.96 146.21 192.00
  L 133.97 192.00
  Q 141.30 177.79 150.29 164.18
  L 160.12 164.10
  A 0.51 0.51 0.0 0 0 160.62 163.59
  L 160.79 153.22
  Q 175.42 144.80 192.00 141.47
  Z"
/>
<path fill="#e93a69" d="
  M 88.28 142.31
  Q 91.94 152.14 99.77 158.47
  Q 93.63 175.02 89.02 192.00
  L 72.43 192.00
  Q 78.75 166.82 88.28 142.31
  Z"
/>
<path fill="#fb5c3b" d="
  M 150.29 164.18
  Q 141.30 177.79 133.97 192.00
  L 115.34 192.00
  L 124.56 165.40
  Q 136.18 163.88 143.57 155.20
  A 0.17 0.17 0.0 0 1 143.87 155.30
  L 143.87 163.50
  A 0.58 0.58 0.0 0 0 144.44 164.08
  L 150.29 164.18
  Z"
/>
<path fill="#fe7429" d="
  M 192.00 157.54
  L 192.00 167.99
  Q 188.82 188.32 168.51 192.00
  L 146.21 192.00
  C 152.91 182.96 160.11 174.65 169.42 168.17
  Q 177.91 162.26 192.00 157.54
  Z"
/>
<path fill="#f2405a" d="
  M 117.52 165.47
  Q 110.82 178.48 106.00 192.00
  L 89.02 192.00
  Q 93.63 175.02 99.77 158.47
  Q 107.54 164.43 117.52 165.47
  Z"
/>
<path fill="#f64a4e" d="
  M 124.56 165.40
  L 115.34 192.00
  L 106.00 192.00
  Q 110.82 178.48 117.52 165.47
  L 124.56 165.40
  Z"
/>
</svg>