<?xml version="1.0" encoding="UTF-8" standalone="no"?>
<!DOCTYPE svg PUBLIC "-//W3C//DTD SVG 1.1//EN" "http://www.w3.org/Graphics/SVG/1.1/DTD/svg11.dtd">
<svg xmlns="http://www.w3.org/2000/svg" version="1.1" viewBox="0.00 0.00 256.00 256.00" width="128" height="128">
<g stroke-width="2.00" fill="none" stroke-linecap="butt">
<path stroke="#9ea0a2" vector-effect="non-scaling-stroke" d="
  M 48.71 35.56
  Q 35.82 35.54 22.93 35.40
  Q 21.98 35.39 20.25 35.84"
/>
<path stroke="#b3d8ac" vector-effect="non-scaling-stroke" d="
  M 20.25 35.84
  Q 20.17 35.76 19.90 35.88
  A 0.92 0.91 86.6 0 0 19.38 36.47
  Q 18.22 40.44 18.58 44.00
  Q 19.61 54.01 19.35 63.64
  Q 19.18 69.87 19.31 74.36
  Q 19.46 79.71 19.76 85.06"
/>
<path stroke="#9ea0a2" vector-effect="non-scaling-stroke" d="
  M 19.76 85.06
  C 20.31 115.47 20.11 145.88 20.29 176.57
  Q 20.34 184.92 20.09 191.88
  Q 19.57 206.71 19.52 207.19
  Q 19.35 208.68 18.59 216.75
  C 18.13 221.57 21.09 222.86 25.27 222.34
  C 32.85 221.40 40.98 220.84 48.45 221.64
  C 52.16 222.04 54.78 221.71 58.56 222.24
  C 62.97 222.85 68.11 222.55 71.94 223.16
  C 74.66 223.60 77.31 222.88 80.27 223.27
  Q 80.65 223.32 81.52 223.29
  Q 91.08 222.93 98.51 222.61
  Q 117.06 221.81 138.01 223.11
  C 148.13 223.74 163.08 222.17 173.35 222.39
  Q 181.19 222.56 188.79 221.87
  Q 194.49 221.36 204.21 221.76
  Q 214.31 222.17 233.48 221.82
  C 236.73 221.76 238.21 221.21 238.18 217.75
  Q 237.69 160.10 237.68 157.27
  Q 237.47 90.83 237.88 60.19
  C 237.97 53.59 237.60 47.15 238.61 40.72
  Q 239.41 35.63 234.77 34.91
  C 233.70 34.75 230.96 34.82 230.07 34.99
  C 222.69 36.37 214.87 35.59 207.11 35.75
  C 192.85 36.05 179.34 35.25 165.58 35.30
  C 157.49 35.33 146.78 34.35 140.75 34.62
  C 123.39 35.41 106.74 36.16 89.71 35.00"
/>
<path stroke="#f4c3a3" vector-effect="non-scaling-stroke" d="
  M 89.71 35.00
  L 82.57 34.51
  A 0.46 0.29 -31.7 0 0 82.44 34.51
  L 48.71 35.56"
/>
<path stroke="#936445" vector-effect="non-scaling-stroke" d="
  M 89.71 35.00
  Q 81.67 35.65 73.63 36.25
  Q 66.02 36.81 58.85 36.50
  Q 51.74 36.19 44.04 36.46
  A 0.21 0.20 88.7 0 1 43.83 36.25
  A 0.24 0.24 0.0 0 1 44.07 36.01
  Q 53.50 36.33 64.42 36.25
  Q 64.44 36.25 64.59 36.29
  Q 64.84 36.35 64.91 36.21
  A 0.06 0.06 0.0 0 0 64.86 36.12
  L 47.91 36.12
  A 0.24 0.23 -53.9 0 1 47.84 35.66
  Q 48.12 35.56 48.71 35.56"
/>
<path stroke="#52784f" vector-effect="non-scaling-stroke" d="
  M 19.76 85.06
  Q 19.96 76.64 19.63 68.26
  Q 19.56 66.43 19.86 63.25
  Q 20.30 58.77 19.41 48.25
  Q 18.95 42.91 20.25 35.84"
/>
<path stroke="#337995" vector-effect="non-scaling-stroke" d="
  M 64.96 48.81
  Q 64.52 48.84 64.13 49.00"
/>
<path stroke="#27415d" vector-effect="non-scaling-stroke" d="
  M 64.13 49.00
  C 48.52 43.36 33.23 44.48 30.33 64.36
  Q 29.17 72.28 28.86 81.13
  C 27.81 111.35 27.96 136.91 27.53 190.92
  Q 27.49 196.04 28.67 200.69
  C 32.55 215.93 52.77 211.10 63.09 207.29
  A 1.21 1.17 46.0 0 1 63.97 207.32
  L 67.78 209.00"
/>
<path stroke="#337995" vector-effect="non-scaling-stroke" d="
  M 67.78 209.00
  Q 71.88 210.20 76.50 209.88
  Q 84.95 209.31 93.22 207.97"
/>
<path stroke="#52784f" vector-effect="non-scaling-stroke" d="
  M 93.22 207.97
  Q 110.97 209.92 129.54 208.26"
/>
<path stroke="#979640" vector-effect="non-scaling-stroke" d="
  M 129.54 208.26
  Q 142.63 209.66 157.51 207.75"
/>
<path stroke="#936445" vector-effect="non-scaling-stroke" d="
  M 157.51 207.75
  Q 158.91 207.69 164.13 208.63
  Q 171.17 209.89 185.53 208.84"
/>
<path stroke="#8d3738" vector-effect="non-scaling-stroke" d="
  M 185.53 208.84
  Q 190.10 209.02 194.47 210.11
  A 7.76 7.51 -36.5 0 0 196.12 210.33
  C 201.82 210.45 203.97 210.29 209.94 210.56
  Q 214.87 210.79 220.26 210.22
  Q 222.79 209.96 223.98 209.43
  A 1.26 1.25 87.9 0 0 224.66 208.69
  Q 225.67 205.72 225.85 204.27
  Q 226.97 195.57 226.53 185.49
  Q 226.31 180.52 226.59 176.84
  Q 226.88 173.12 226.89 171.65
  Q 227.04 155.78 227.00 141.38
  Q 226.92 113.03 227.04 106.93
  Q 227.18 100.28 226.92 94.57
  Q 226.79 91.92 226.93 74.97
  Q 226.94 73.71 227.48 71.32
  A 0.88 0.77 -41.1 0 0 227.51 71.10
  L 228.13 52.77
  A 1.56 1.56 0.0 0 0 228.00 52.10
  Q 227.42 50.70 227.37 49.20
  A 0.02 0.01 -38.0 0 0 227.34 49.20
  L 227.31 49.25
  A 1.45 1.42 -36.0 0 0 227.15 50.20
  Q 227.25 50.78 227.25 50.95
  Q 227.25 52.89 227.12 50.80
  C 227.02 49.21 226.73 48.01 226.68 47.69
  A 1.13 1.11 16.2 0 0 226.28 46.98
  Q 225.18 46.08 224.36 45.91
  A 0.07 0.07 0.0 0 1 224.38 45.78
  Q 224.64 45.80 224.71 45.77
  A 0.10 0.10 0.0 0 0 224.75 45.62
  Q 224.38 45.12 223.51 45.10
  Q 221.19 45.06 218.09 45.78
  A 0.15 0.15 0.0 0 0 218.12 46.07
  C 219.36 46.07 222.43 46.09 223.67 46.70
  A 0.10 0.10 0.0 0 1 223.61 46.89
  C 221.00 46.54 217.73 46.27 215.94 46.25
  Q 204.68 46.16 193.99 45.80
  Q 191.38 45.71 183.71 47.35"
/>
<path stroke="#936445" vector-effect="non-scaling-stroke" d="
  M 183.71 47.35
  Q 171.57 46.13 159.39 47.88
  A 0.01 0.00 58.3 0 0 159.39 47.89
  Q 160.77 47.89 162.11 48.08
  L 162.11 48.09
  A 0.01 0.01 0.0 0 1 162.10 48.10
  L 159.26 48.50"
/>
<path stroke="#979640" vector-effect="non-scaling-stroke" d="
  M 159.26 48.50
  L 151.69 47.96
  A 1.23 1.03 -28.3 0 1 151.35 47.89
  Q 150.30 47.52 149.17 47.58
  A 0.01 0.01 0.0 0 1 149.16 47.56
  Q 149.18 47.55 149.19 47.54
  A 0.24 0.17 -54.2 0 1 149.31 47.50
  Q 149.96 47.44 150.61 47.38
  C 149.42 47.35 148.22 47.37 147.04 47.42"
/>
<path stroke="#52784f" vector-effect="non-scaling-stroke" d="
  M 147.04 47.42
  C 148.29 46.96 149.32 46.89 150.61 46.88
  Q 144.80 47.25 140.54 47.28
  A 8.94 8.44 -49.5 0 0 138.69 47.48
  Q 134.87 48.32 131.43 47.85
  A 0.20 0.20 0.0 0 1 131.36 47.47
  Q 131.66 47.29 132.10 47.37
  A 0.01 0.00 28.2 0 0 132.09 47.36
  Q 132.08 47.35 132.06 47.34
  A 0.39 0.11 -2.7 0 0 131.93 47.31
  Q 129.71 47.10 126.82 47.83
  A 0.24 0.24 0.0 0 0 126.77 48.27
  Q 127.86 48.85 128.33 49.48
  A 1.29 1.29 0.0 0 1 128.57 50.44
  L 128.08 53.51"
/>
<path stroke="#979640" vector-effect="non-scaling-stroke" d="
  M 128.08 53.51
  Q 128.12 54.98 127.62 56.02"
/>
<path stroke="#52784f" vector-effect="non-scaling-stroke" d="
  M 127.62 56.02
  L 127.35 51.46
  A 0.98 0.94 -38.2 0 1 127.41 51.03
  Q 127.87 49.84 126.83 48.65
  A 1.06 1.03 72.3 0 0 126.19 48.31
  Q 125.25 48.19 124.95 47.67
  A 0.22 0.22 0.0 0 1 125.20 47.34
  Q 128.61 48.30 126.00 46.90
  A 2.38 2.15 -21.3 0 0 125.58 46.74
  L 124.69 46.49
  A 0.52 0.37 41.0 0 0 124.50 46.47
  L 97.66 47.53"
/>
<path stroke="#27415d" vector-effect="non-scaling-stroke" d="
  M 97.66 47.53
  L 71.91 45.84
  A 19.42 19.05 -34.0 0 1 67.61 45.05
  Q 60.70 42.95 56.41 42.89
  Q 46.08 42.75 38.63 41.96
  C 34.70 41.54 28.69 42.73 27.37 47.01
  C 25.33 53.61 26.10 59.91 27.01 67.42
  Q 27.89 74.69 26.34 81.44
  C 24.46 89.61 23.63 97.87 23.46 105.33
  Q 23.14 119.75 23.07 155.52
  C 23.06 164.68 24.37 173.89 23.82 181.89
  Q 23.65 184.36 24.03 186.76
  C 25.05 193.39 23.87 201.06 23.63 207.85
  Q 23.56 209.90 24.07 211.86
  A 0.04 0.04 0.0 0 0 24.15 211.85
  Q 25.76 196.35 26.13 190.35
  Q 26.62 182.60 25.75 163.72
  Q 25.23 152.47 25.51 137.63
  C 25.82 121.40 25.41 107.08 26.37 92.39
  Q 26.57 89.41 27.96 81.35
  C 29.41 72.99 28.29 62.24 28.49 57.54
  C 28.72 52.21 30.00 44.19 36.93 43.79
  Q 44.62 43.33 58.03 44.63
  C 60.47 44.87 64.20 45.92 64.96 48.81"
/>
<path stroke="#1d79ad" vector-effect="non-scaling-stroke" d="
  M 97.66 47.53
  L 88.46 47.56
  A 2.10 2.05 31.6 0 0 87.66 47.74
  Q 86.55 48.26 85.24 48.20
  Q 76.63 47.83 68.52 48.11
  A 3.26 2.65 32.5 0 0 68.09 48.16
  L 64.96 48.81"
/>
<path stroke="#acce4b" vector-effect="non-scaling-stroke" d="
  M 127.62 56.02
  Q 127.73 62.59 128.37 69.22
  Q 129.15 77.27 129.10 82.38
  Q 128.63 132.45 129.07 175.65
  C 129.15 184.09 128.22 189.90 126.71 197.94
  Q 125.92 202.13 127.44 206.64
  Q 127.67 207.33 129.54 208.26"
/>
<path stroke="#48b19f" vector-effect="non-scaling-stroke" d="
  M 93.22 207.97
  Q 96.81 207.90 97.10 204.75
  Q 97.44 201.10 96.91 185.75
  Q 96.51 174.46 96.66 163.17
  C 97.06 132.20 96.98 102.50 96.73 77.85
  Q 96.68 72.63 97.03 65.55
  Q 97.28 60.62 97.07 53.27
  A 2.21 2.18 30.6 0 0 96.83 52.36
  C 95.67 50.13 95.18 48.09 93.09 48.12
  A 0.10 0.10 0.0 0 1 93.06 47.92
  Q 96.34 47.00 97.02 48.59
  A 0.32 0.32 0.0 0 0 97.62 48.55
  Q 97.73 48.15 97.66 47.53"
/>
<path stroke="#1d79ad" vector-effect="non-scaling-stroke" d="
  M 64.13 49.00
  C 63.12 50.49 63.04 51.66 63.13 53.45
  Q 63.13 53.49 63.13 53.46
  C 63.22 52.70 63.32 51.95 63.41 51.20
  A 0.15 0.15 0.0 0 1 63.57 51.07
  L 63.58 51.07
  A 0.20 0.19 -88.5 0 1 63.76 51.27
  Q 63.94 59.00 63.98 61.29
  Q 64.25 77.61 63.97 100.91
  C 63.66 127.40 63.87 147.18 63.89 180.71
  C 63.89 188.35 63.37 198.13 63.83 204.89
  Q 64.02 207.65 67.78 209.00"
/>
<path stroke="#acce4b" vector-effect="non-scaling-stroke" d="
  M 147.04 47.42
  Q 143.96 47.54 140.89 47.86
  Q 140.26 47.92 140.12 47.84
  Q 139.72 47.57 139.34 47.67
  A 0.25 0.25 0.0 0 0 139.35 48.15
  Q 139.89 48.28 140.10 48.16
  A 0.05 0.05 0.0 0 0 140.07 48.06
  L 133.73 48.27
  A 0.83 0.82 12.7 0 0 133.04 48.70
  Q 132.86 49.07 132.85 49.07
  A 5.75 4.92 -86.3 0 1 132.13 49.81
  L 129.06 52.38
  A 1.46 1.41 72.1 0 0 128.55 53.42
  Q 128.54 53.79 128.53 53.81
  A 0.20 0.20 0.0 0 1 128.15 53.82
  Q 128.10 53.69 128.08 53.51"
/>
<path stroke="#edb941" vector-effect="non-scaling-stroke" d="
  M 157.51 207.75
  Q 162.89 204.56 161.44 194.48
  Q 160.63 188.85 160.51 187.84
  C 159.73 181.23 160.01 173.22 160.22 167.54
  Q 160.53 159.01 160.45 153.96
  C 160.25 139.87 160.67 118.90 160.23 101.16
  Q 160.00 91.84 160.14 77.01
  Q 160.21 69.38 161.43 61.05
  Q 161.66 59.45 162.14 58.40
  Q 165.18 51.80 159.26 48.50"
/>
<path stroke="#e35b39" vector-effect="non-scaling-stroke" d="
  M 185.53 208.84
  L 189.57 208.39
  A 2.49 2.48 -87.8 0 0 191.72 206.40
  Q 193.02 199.82 192.82 195.09
  C 192.51 188.02 193.10 181.27 193.08 174.31
  Q 192.90 101.43 192.82 96.28
  C 192.72 90.12 193.09 83.00 192.94 76.17
  Q 192.69 64.33 193.93 51.00
  A 2.53 2.53 0.0 0 0 191.70 48.25
  L 183.71 47.35"
/>
</g>
<path fill="#ffffff" d="
  M 256.00 0.00
  L 256.00 256.00
  L 0.00 256.00
  L 0.00 0.00
  L 256.00 0.00
  Z
  M 48.71 35.56
  Q 35.82 35.54 22.93 35.40
  Q 21.98 35.39 20.25 35.84
  Q 20.17 35.76 19.90 35.88
  A 0.92 0.91 86.6 0 0 19.38 36.47
  Q 18.22 40.44 18.58 44.00
  Q 19.61 54.01 19.35 63.64
  Q 19.18 69.87 19.31 74.36
  Q 19.46 79.71 19.76 85.06
  C 20.31 115.47 20.11 145.88 20.29 176.57
  Q 20.34 184.92 20.09 191.88
  Q 19.57 206.71 19.52 207.19
  Q 19.35 208.68 18.59 216.75
  C 18.13 221.57 21.09 222.86 25.27 222.34
  C 32.85 221.40 40.98 220.84 48.45 221.64
  C 52.16 222.04 54.78 221.71 58.56 222.24
  C 62.97 222.85 68.11 222.55 71.94 223.16
  C 74.66 223.60 77.31 222.88 80.27 223.27
  Q 80.65 223.32 81.52 223.29
  Q 91.08 222.93 98.51 222.61
  Q 117.06 221.81 138.01 223.11
  C 148.13 223.74 163.08 222.17 173.35 222.39
  Q 181.19 222.56 188.79 221.87
  Q 194.49 221.36 204.21 221.76
  Q 214.31 222.17 233.48 221.82
  C 236.73 221.76 238.21 221.21 238.18 217.75
  Q 237.69 160.10 237.68 157.27
  Q 237.47 90.83 237.88 60.19
  C 237.97 53.59 237.60 47.15 238.61 40.72
  Q 239.41 35.63 234.77 34.91
  C 233.70 34.75 230.96 34.82 230.07 34.99
  C 222.69 36.37 214.87 35.59 207.11 35.75
  C 192.85 36.05 179.34 35.25 165.58 35.30
  C 157.49 35.33 146.78 34.35 140.75 34.62
  C 123.39 35.41 106.74 36.16 89.71 35.00
  L 82.57 34.51
  A 0.46 0.29 -31.7 0 0 82.44 34.51
  L 48.71 35.56
  Z"
/>
<path fill="#e88746" d="
  M 89.71 35.00
  Q 81.67 35.65 73.63 36.25
  Q 66.02 36.81 58.85 36.50
  Q 51.74 36.19 44.04 36.46
  A 0.21 0.20 88.7 0 1 43.83 36.25
  A 0.24 0.24 0.0 0 1 44.07 36.01
  Q 53.50 36.33 64.42 36.25
  Q 64.44 36.25 64.59 36.29
  Q 64.84 36.35 64.91 36.21
  A 0.06 0.06 0.0 0 0 64.86 36.12
  L 47.91 36.12
  A 0.24 0.23 -53.9 0 1 47.84 35.66
  Q 48.12 35.56 48.71 35.56
  L 82.44 34.51
  A 0.46 0.29 -31.7 0 1 82.57 34.51
  L 89.71 35.00
  Z"
/>
<path fill="#3d4044" d="
  M 19.76 85.06
  Q 19.96 76.64 19.63 68.26
  Q 19.56 66.43 19.86 63.25
  Q 20.30 58.77 19.41 48.25
  Q 18.95 42.91 20.25 35.84
  Q 21.98 35.39 22.93 35.40
  Q 35.82 35.54 48.71 35.56
  Q 48.12 35.56 47.84 35.66
  A 0.24 0.23 -53.9 0 0 47.91 36.12
  L 64.86 36.12
  A 0.06 0.06 0.0 0 1 64.91 36.21
  Q 64.84 36.35 64.59 36.29
  Q 64.44 36.25 64.42 36.25
  Q 53.50 36.33 44.07 36.01
  A 0.24 0.24 0.0 0 0 43.83 36.25
  A 0.21 0.20 88.7 0 0 44.04 36.46
  Q 51.74 36.19 58.85 36.50
  Q 66.02 36.81 73.63 36.25
  Q 81.67 35.65 89.71 35.00
  C 106.74 36.16 123.39 35.41 140.75 34.62
  C 146.78 34.35 157.49 35.33 165.58 35.30
  C 179.34 35.25 192.85 36.05 207.11 35.75
  C 214.87 35.59 222.69 36.37 230.07 34.99
  C 230.96 34.82 233.70 34.75 234.77 34.91
  Q 239.41 35.63 238.61 40.72
  C 237.60 47.15 237.97 53.59 237.88 60.19
  Q 237.47 90.83 237.68 157.27
  Q 237.69 160.10 238.18 217.75
  C 238.21 221.21 236.73 221.76 233.48 221.82
  Q 214.31 222.17 204.21 221.76
  Q 194.49 221.36 188.79 221.87
  Q 181.19 222.56 173.35 222.39
  C 163.08 222.17 148.13 223.74 138.01 223.11
  Q 117.06 221.81 98.51 222.61
  Q 91.08 222.93 81.52 223.29
  Q 80.65 223.32 80.27 223.27
  C 77.31 222.88 74.66 223.60 71.94 223.16
  C 68.11 222.55 62.97 222.85 58.56 222.24
  C 54.78 221.71 52.16 222.04 48.45 221.64
  C 40.98 220.84 32.85 221.40 25.27 222.34
  C 21.09 222.86 18.13 221.57 18.59 216.75
  Q 19.35 208.68 19.52 207.19
  Q 19.57 206.71 20.09 191.88
  Q 20.34 184.92 20.29 176.57
  C 20.11 145.88 20.31 115.47 19.76 85.06
  Z
  M 64.96 48.81
  Q 64.52 48.84 64.13 49.00
  C 48.52 43.36 33.23 44.48 30.33 64.36
  Q 29.17 72.28 28.86 81.13
  C 27.81 111.35 27.96 136.91 27.53 190.92
  Q 27.49 196.04 28.67 200.69
  C 32.55 215.93 52.77 211.10 63.09 207.29
  A 1.21 1.17 46.0 0 1 63.97 207.32
  L 67.78 209.00
  Q 71.88 210.20 76.50 209.88
  Q 84.95 209.31 93.22 207.97
  Q 110.97 209.92 129.54 208.26
  Q 142.63 209.66 157.51 207.75
  Q 158.91 207.69 164.13 208.63
  Q 171.17 209.89 185.53 208.84
  Q 190.10 209.02 194.47 210.11
  A 7.76 7.51 -36.5 0 0 196.12 210.33
  C 201.82 210.45 203.97 210.29 209.94 210.56
  Q 214.87 210.79 220.26 210.22
  Q 222.79 209.96 223.98 209.43
  A 1.26 1.25 87.9 0 0 224.66 208.69
  Q 225.67 205.72 225.85 204.27
  Q 226.97 195.57 226.53 185.49
  Q 226.31 180.52 226.59 176.84
  Q 226.88 173.12 226.89 171.65
  Q 227.04 155.78 227.00 141.38
  Q 226.92 113.03 227.04 106.93
  Q 227.18 100.28 226.92 94.57
  Q 226.79 91.92 226.93 74.97
  Q 226.94 73.71 227.48 71.32
  A 0.88 0.77 -41.1 0 0 227.51 71.10
  L 228.13 52.77
  A 1.56 1.56 0.0 0 0 228.00 52.10
  Q 227.42 50.70 227.37 49.20
  A 0.02 0.01 -38.0 0 0 227.34 49.20
  L 227.31 49.25
  A 1.45 1.42 -36.0 0 0 227.15 50.20
  Q 227.25 50.78 227.25 50.95
  Q 227.25 52.89 227.12 50.80
  C 227.02 49.21 226.73 48.01 226.68 47.69
  A 1.13 1.11 16.2 0 0 226.28 46.98
  Q 225.18 46.08 224.36 45.91
  A 0.07 0.07 0.0 0 1 224.38 45.78
  Q 224.64 45.80 224.71 45.77
  A 0.10 0.10 0.0 0 0 224.75 45.62
  Q 224.38 45.12 223.51 45.10
  Q 221.19 45.06 218.09 45.78
  A 0.15 0.15 0.0 0 0 218.12 46.07
  C 219.36 46.07 222.43 46.09 223.67 46.70
  A 0.10 0.10 0.0 0 1 223.61 46.89
  C 221.00 46.54 217.73 46.27 215.94 46.25
  Q 204.68 46.16 193.99 45.80
  Q 191.38 45.71 183.71 47.35
  Q 171.57 46.13 159.39 47.88
  A 0.01 0.00 58.3 0 0 159.39 47.89
  Q 160.77 47.89 162.11 48.08
  L 162.11 48.09
  A 0.01 0.01 0.0 0 1 162.10 48.10
  L 159.26 48.50
  L 151.69 47.96
  A 1.23 1.03 -28.3 0 1 151.35 47.89
  Q 150.30 47.52 149.17 47.58
  A 0.01 0.01 0.0 0 1 149.16 47.56
  Q 149.18 47.55 149.19 47.54
  A 0.24 0.17 -54.2 0 1 149.31 47.50
  Q 149.96 47.44 150.61 47.38
  C 149.42 47.35 148.22 47.37 147.04 47.42
  C 148.29 46.96 149.32 46.89 150.61 46.88
  Q 144.80 47.25 140.54 47.28
  A 8.94 8.44 -49.5 0 0 138.69 47.48
  Q 134.87 48.32 131.43 47.85
  A 0.20 0.20 0.0 0 1 131.36 47.47
  Q 131.66 47.29 132.10 47.37
  A 0.01 0.00 28.2 0 0 132.09 47.36
  Q 132.08 47.35 132.06 47.34
  A 0.39 0.11 -2.7 0 0 131.93 47.31
  Q 129.71 47.10 126.82 47.83
  A 0.24 0.24 0.0 0 0 126.77 48.27
  Q 127.86 48.85 128.33 49.48
  A 1.29 1.29 0.0 0 1 128.57 50.44
  L 128.08 53.51
  Q 128.12 54.98 127.62 56.02
  L 127.35 51.46
  A 0.98 0.94 -38.2 0 1 127.41 51.03
  Q 127.87 49.84 126.83 48.65
  A 1.06 1.03 72.3 0 0 126.19 48.31
  Q 125.25 48.19 124.95 47.67
  A 0.22 0.22 0.0 0 1 125.20 47.34
  Q 128.61 48.30 126.00 46.90
  A 2.38 2.15 -21.3 0 0 125.58 46.74
  L 124.69 46.49
  A 0.52 0.37 41.0 0 0 124.50 46.47
  L 97.66 47.53
  L 71.91 45.84
  A 19.42 19.05 -34.0 0 1 67.61 45.05
  Q 60.70 42.95 56.41 42.89
  Q 46.08 42.75 38.63 41.96
  C 34.70 41.54 28.69 42.73 27.37 47.01
  C 25.33 53.61 26.10 59.91 27.01 67.42
  Q 27.89 74.69 26.34 81.44
  C 24.46 89.61 23.63 97.87 23.46 105.33
  Q 23.14 119.75 23.07 155.52
  C 23.06 164.68 24.37 173.89 23.82 181.89
  Q 23.65 184.36 24.03 186.76
  C 25.05 193.39 23.87 201.06 23.63 207.85
  Q 23.56 209.90 24.07 211.86
  A 0.04 0.04 0.0 0 0 24.15 211.85
  Q 25.76 196.35 26.13 190.35
  Q 26.62 182.60 25.75 163.72
  Q 25.23 152.47 25.51 137.63
  C 25.82 121.40 25.41 107.08 26.37 92.39
  Q 26.57 89.41 27.96 81.35
  C 29.41 72.99 28.29 62.24 28.49 57.54
  C 28.72 52.21 30.00 44.19 36.93 43.79
  Q 44.62 43.33 58.03 44.63
  C 60.47 44.87 64.20 45.92 64.96 48.81
  Z"
/>
<path fill="#67b059" d="
  M 20.25 35.84
  Q 18.95 42.91 19.41 48.25
  Q 20.30 58.77 19.86 63.25
  Q 19.56 66.43 19.63 68.26
  Q 19.96 76.64 19.76 85.06
  Q 19.46 79.71 19.31 74.36
  Q 19.18 69.87 19.35 63.64
  Q 19.61 54.01 18.58 44.00
  Q 18.22 40.44 19.38 36.47
  A 0.92 0.91 86.6 0 1 19.90 35.88
  Q 20.17 35.76 20.25 35.84
  Z"
/>
<path fill="#104175" d="
  M 97.66 47.53
  L 88.46 47.56
  A 2.10 2.05 31.6 0 0 87.66 47.74
  Q 86.55 48.26 85.24 48.20
  Q 76.63 47.83 68.52 48.11
  A 3.26 2.65 32.5 0 0 68.09 48.16
  L 64.96 48.81
  C 64.20 45.92 60.47 44.87 58.03 44.63
  Q 44.62 43.33 36.93 43.79
  C 30.00 44.19 28.72 52.21 28.49 57.54
  C 28.29 62.24 29.41 72.99 27.96 81.35
  Q 26.57 89.41 26.37 92.39
  C 25.41 107.08 25.82 121.40 25.51 137.63
  Q 25.23 152.47 25.75 163.72
  Q 26.62 182.60 26.13 190.35
  Q 25.76 196.35 24.15 211.85
  A 0.04 0.04 0.0 0 1 24.07 211.86
  Q 23.56 209.90 23.63 207.85
  C 23.87 201.06 25.05 193.39 24.03 186.76
  Q 23.65 184.36 23.82 181.89
  C 24.37 173.89 23.06 164.68 23.07 155.52
  Q 23.14 119.75 23.46 105.33
  C 23.63 97.87 24.46 89.61 26.34 81.44
  Q 27.89 74.69 27.01 67.42
  C 26.10 59.91 25.33 53.61 27.37 47.01
  C 28.69 42.73 34.70 41.54 38.63 41.96
  Q 46.08 42.75 56.41 42.89
  Q 60.70 42.95 67.61 45.05
  A 19.42 19.05 -34.0 0 0 71.91 45.84
  L 97.66 47.53
  Z"
/>
<path fill="#104175" d="
  M 64.13 49.00
  C 63.12 50.49 63.04 51.66 63.13 53.45
  Q 63.13 53.49 63.13 53.46
  C 63.22 52.70 63.32 51.95 63.41 51.20
  A 0.15 0.15 0.0 0 1 63.57 51.07
  L 63.58 51.07
  A 0.20 0.19 -88.5 0 1 63.76 51.27
  Q 63.94 59.00 63.98 61.29
  Q 64.25 77.61 63.97 100.91
  C 63.66 127.40 63.87 147.18 63.89 180.71
  C 63.89 188.35 63.37 198.13 63.83 204.89
  Q 64.02 207.65 67.78 209.00
  L 63.97 207.32
  A 1.21 1.17 46.0 0 0 63.09 207.29
  C 52.77 211.10 32.55 215.93 28.67 200.69
  Q 27.49 196.04 27.53 190.92
  C 27.96 136.91 27.81 111.35 28.86 81.13
  Q 29.17 72.28 30.33 64.36
  C 33.23 44.48 48.52 43.36 64.13 49.00
  Z"
/>
<path fill="#dd2e2c" d="
  M 185.53 208.84
  L 189.57 208.39
  A 2.49 2.48 -87.8 0 0 191.72 206.40
  Q 193.02 199.82 192.82 195.09
  C 192.51 188.02 193.10 181.27 193.08 174.31
  Q 192.90 101.43 192.82 96.28
  C 192.72 90.12 193.09 83.00 192.94 76.17
  Q 192.69 64.33 193.93 51.00
  A 2.53 2.53 0.0 0 0 191.70 48.25
  L 183.71 47.35
  Q 191.38 45.71 193.99 45.80
  Q 204.68 46.16 215.94 46.25
  C 217.73 46.27 221.00 46.54 223.61 46.89
  A 0.10 0.10 0.0 0 0 223.67 46.70
  C 222.43 46.09 219.36 46.07 218.12 46.07
  A 0.15 0.15 0.0 0 1 218.09 45.78
  Q 221.19 45.06 223.51 45.10
  Q 224.38 45.12 224.75 45.62
  A 0.10 0.10 0.0 0 1 224.71 45.77
  Q 224.64 45.80 224.38 45.78
  A 0.07 0.07 0.0 0 0 224.36 45.91
  Q 225.18 46.08 226.28 46.98
  A 1.13 1.11 16.2 0 1 226.68 47.69
  C 226.73 48.01 227.02 49.21 227.12 50.80
  Q 227.25 52.89 227.25 50.95
  Q 227.25 50.78 227.15 50.20
  A 1.45 1.42 -36.0 0 1 227.31 49.25
  L 227.34 49.20
  A 0.02 0.01 -38.0 0 1 227.37 49.20
  Q 227.42 50.70 228.00 52.10
  A 1.56 1.56 0.0 0 1 228.13 52.77
  L 227.51 71.10
  A 0.88 0.77 -41.1 0 1 227.48 71.32
  Q 226.94 73.71 226.93 74.97
  Q 226.79 91.92 226.92 94.57
  Q 227.18 100.28 227.04 106.93
  Q 226.92 113.03 227.00 141.38
  Q 227.04 155.78 226.89 171.65
  Q 226.88 173.12 226.59 176.84
  Q 226.31 180.52 226.53 185.49
  Q 226.97 195.57 225.85 204.27
  Q 225.67 205.72 224.66 208.69
  A 1.26 1.25 87.9 0 1 223.98 209.43
  Q 222.79 209.96 220.26 210.22
  Q 214.87 210.79 209.94 210.56
  C 203.97 210.29 201.82 210.45 196.12 210.33
  A 7.76 7.51 -36.5 0 1 194.47 210.11
  Q 190.10 209.02 185.53 208.84
  Z"
/>
<path fill="#67b059" d="
  M 127.62 56.02
  Q 127.73 62.59 128.37 69.22
  Q 129.15 77.27 129.10 82.38
  Q 128.63 132.45 129.07 175.65
  C 129.15 184.09 128.22 189.90 126.71 197.94
  Q 125.92 202.13 127.44 206.64
  Q 127.67 207.33 129.54 208.26
  Q 110.97 209.92 93.22 207.97
  Q 96.81 207.90 97.10 204.75
  Q 97.44 201.10 96.91 185.75
  Q 96.51 174.46 96.66 163.17
  C 97.06 132.20 96.98 102.50 96.73 77.85
  Q 96.68 72.63 97.03 65.55
  Q 97.28 60.62 97.07 53.27
  A 2.21 2.18 30.6 0 0 96.83 52.36
  C 95.67 50.13 95.18 48.09 93.09 48.12
  A 0.10 0.10 0.0 0 1 93.06 47.92
  Q 96.34 47.00 97.02 48.59
  A 0.32 0.32 0.0 0 0 97.62 48.55
  Q 97.73 48.15 97.66 47.53
  L 124.50 46.47
  A 0.52 0.37 41.0 0 1 124.69 46.49
  L 125.58 46.74
  A 2.38 2.15 -21.3 0 1 126.00 46.90
  Q 128.61 48.30 125.20 47.34
  A 0.22 0.22 0.0 0 0 124.95 47.67
  Q 125.25 48.19 126.19 48.31
  A 1.06 1.03 72.3 0 1 126.83 48.65
  Q 127.87 49.84 127.41 51.03
  A 0.98 0.94 -38.2 0 0 127.35 51.46
  L 127.62 56.02
  Z"
/>
<path fill="#67b059" d="
  M 147.04 47.42
  Q 143.96 47.54 140.89 47.86
  Q 140.26 47.92 140.12 47.84
  Q 139.72 47.57 139.34 47.67
  A 0.25 0.25 0.0 0 0 139.35 48.15
  Q 139.89 48.28 140.10 48.16
  A 0.05 0.05 0.0 0 0 140.07 48.06
  L 133.73 48.27
  A 0.83 0.82 12.7 0 0 133.04 48.70
  Q 132.86 49.07 132.85 49.07
  A 5.75 4.92 -86.3 0 1 132.13 49.81
  L 129.06 52.38
  A 1.46 1.41 72.1 0 0 128.55 53.42
  Q 128.54 53.79 128.53 53.81
  A 0.20 0.20 0.0 0 1 128.15 53.82
  Q 128.10 53.69 128.08 53.51
  L 128.57 50.44
  A 1.29 1.29 0.0 0 0 128.33 49.48
  Q 127.86 48.85 126.77 48.27
  A 0.24 0.24 0.0 0 1 126.82 47.83
  Q 129.71 47.10 131.93 47.31
  A 0.39 0.11 -2.7 0 1 132.06 47.34
  Q 132.08 47.35 132.09 47.36
  A 0.01 0.00 28.2 0 1 132.10 47.37
  Q 131.66 47.29 131.36 47.47
  A 0.20 0.20 0.0 0 0 131.43 47.85
  Q 134.87 48.32 138.69 47.48
  A 8.94 8.44 -49.5 0 1 140.54 47.28
  Q 144.80 47.25 150.61 46.88
  C 149.32 46.89 148.29 46.96 147.04 47.42
  Z"
/>
<path fill="#e88746" d="
  M 183.71 47.35
  L 191.70 48.25
  A 2.53 2.53 0.0 0 1 193.93 51.00
  Q 192.69 64.33 192.94 76.17
  C 193.09 83.00 192.72 90.12 192.82 96.28
  Q 192.90 101.43 193.08 174.31
  C 193.10 181.27 192.51 188.02 192.82 195.09
  Q 193.02 199.82 191.72 206.40
  A 2.49 2.48 -87.8 0 1 189.57 208.39
  L 185.53 208.84
  Q 171.17 209.89 164.13 208.63
  Q 158.91 207.69 157.51 207.75
  Q 162.89 204.56 161.44 194.48
  Q 160.63 188.85 160.51 187.84
  C 159.73 181.23 160.01 173.22 160.22 167.54
  Q 160.53 159.01 160.45 153.96
  C 160.25 139.87 160.67 118.90 160.23 101.16
  Q 160.00 91.84 160.14 77.01
  Q 160.21 69.38 161.43 61.05
  Q 161.66 59.45 162.14 58.40
  Q 165.18 51.80 159.26 48.50
  L 162.10 48.10
  A 0.01 0.01 0.0 0 0 162.11 48.09
  L 162.11 48.08
  Q 160.77 47.89 159.39 47.89
  A 0.01 0.00 58.3 0 1 159.39 47.88
  Q 171.57 46.13 183.71 47.35
  Z"
/>
<path fill="#f1eb3c" d="
  M 159.26 48.50
  Q 165.18 51.80 162.14 58.40
  Q 161.66 59.45 161.43 61.05
  Q 160.21 69.38 160.14 77.01
  Q 160.00 91.84 160.23 101.16
  C 160.67 118.90 160.25 139.87 160.45 153.96
  Q 160.53 159.01 160.22 167.54
  C 160.01 173.22 159.73 181.23 160.51 187.84
  Q 160.63 188.85 161.44 194.48
  Q 162.89 204.56 157.51 207.75
  Q 142.63 209.66 129.54 208.26
  Q 127.67 207.33 127.44 206.64
  Q 125.92 202.13 126.71 197.94
  C 128.22 189.90 129.15 184.09 129.07 175.65
  Q 128.63 132.45 129.10 82.38
  Q 129.15 77.27 128.37 69.22
  Q 127.73 62.59 127.62 56.02
  Q 128.12 54.98 128.08 53.51
  Q 128.10 53.69 128.15 53.82
  A 0.20 0.20 0.0 0 0 128.53 53.81
  Q 128.54 53.79 128.55 53.42
  A 1.46 1.41 72.1 0 1 129.06 52.38
  L 132.13 49.81
  A 5.75 4.92 -86.3 0 0 132.85 49.07
  Q 132.86 49.07 133.04 48.70
  A 0.83 0.82 12.7 0 1 133.73 48.27
  L 140.07 48.06
  A 0.05 0.05 0.0 0 1 140.10 48.16
  Q 139.89 48.28 139.35 48.15
  A 0.25 0.25 0.0 0 1 139.34 47.67
  Q 139.72 47.57 140.12 47.84
  Q 140.26 47.92 140.89 47.86
  Q 143.96 47.54 147.04 47.42
  C 148.22 47.37 149.42 47.35 150.61 47.38
  Q 149.96 47.44 149.31 47.50
  A 0.24 0.17 -54.2 0 0 149.19 47.54
  Q 149.18 47.55 149.16 47.56
  A 0.01 0.01 0.0 0 0 149.17 47.58
  Q 150.30 47.52 151.35 47.89
  A 1.23 1.03 -28.3 0 0 151.69 47.96
  L 159.26 48.50
  Z"
/>
<path fill="#29b1e5" d="
  M 97.66 47.53
  Q 97.73 48.15 97.62 48.55
  A 0.32 0.32 0.0 0 1 97.02 48.59
  Q 96.34 47.00 93.06 47.92
  A 0.10 0.10 0.0 0 0 93.09 48.12
  C 95.18 48.09 95.67 50.13 96.83 52.36
  A 2.21 2.18 30.6 0 1 97.07 53.27
  Q 97.28 60.62 97.03 65.55
  Q 96.68 72.63 96.73 77.85
  C 96.98 102.50 97.06 132.20 96.66 163.17
  Q 96.51 174.46 96.91 185.75
  Q 97.44 201.10 97.10 204.75
  Q 96.81 207.90 93.22 207.97
  Q 84.95 209.31 76.50 209.88
  Q 71.88 210.20 67.78 209.00
  Q 64.02 207.65 63.83 204.89
  C 63.37 198.13 63.89 188.35 63.89 180.71
  C 63.87 147.18 63.66 127.40 63.97 100.91
  Q 64.25 77.61 63.98 61.29
  Q 63.94 59.00 63.76 51.27
  A 0.20 0.19 -88.5 0 0 63.58 51.07
  L 63.57 51.07
  A 0.15 0.15 0.0 0 0 63.41 51.20
  C 63.32 51.95 63.22 52.70 63.13 53.46
  Q 63.13 53.49 63.13 53.45
  C 63.04 51.66 63.12 50.49 64.13 49.00
  Q 64.52 48.84 64.96 48.81
  L 68.09 48.16
  A 3.26 2.65 32.5 0 1 68.52 48.11
  Q 76.63 47.83 85.24 48.20
  Q 86.55 48.26 87.66 47.74
  A 2.10 2.05 31.6 0 1 88.46 47.56
  L 97.66 47.53
  Z"
/>
</svg>