<?xml version="1.0" encoding="UTF-8" standalone="no"?>
<!DOCTYPE svg PUBLIC "-//W3C//DTD SVG 1.1//EN" "http://www.w3.org/Graphics/SVG/1.1/DTD/svg11.dtd">
<svg xmlns="http://www.w3.org/2000/svg" version="1.1" viewBox="0.00 0.00 256.00 256.00" width="128" height="128">
<g stroke-width="2.00" fill="none" stroke-linecap="butt">
<path stroke="#80bae1" vector-effect="non-scaling-stroke" d="
  M 145.73 183.95
  C 145.91 186.50 147.23 189.36 149.85 189.89
  C 153.24 190.57 159.20 191.41 162.78 189.41
  A 1.88 1.87 -3.5 0 0 163.61 188.48
  Q 164.18 187.09 164.26 184.00
  Q 164.50 174.36 164.49 171.25
  Q 164.33 109.83 164.56 69.50
  Q 164.58 65.22 163.92 61.95
  A 3.67 3.67 0.0 0 0 161.29 59.12
  C 156.97 57.94 151.92 57.28 147.49 58.27
  A 1.62 1.60 -78.7 0 0 146.56 58.90
  C 144.98 61.14 144.61 64.98 144.61 67.06
  C 144.63 77.55 145.31 89.51 143.26 99.78
  Q 143.06 100.77 142.68 101.49
  A 1.29 1.28 -51.2 0 1 140.57 101.72
  C 135.16 95.39 127.98 93.41 119.98 92.54
  C 113.57 91.85 107.22 94.01 100.89 96.22
  Q 94.46 98.46 89.89 102.59
  Q 81.67 109.99 78.28 119.78
  Q 71.30 139.93 76.70 160.40
  C 80.43 174.56 87.95 184.37 101.12 189.90
  C 109.74 193.51 121.68 193.19 130.55 190.87
  A 7.60 7.59 15.7 0 0 133.93 188.98
  C 137.06 185.96 139.92 182.97 143.75 182.37
  A 1.72 1.72 0.0 0 1 145.73 183.95"
/>
<path stroke="#80bae1" vector-effect="non-scaling-stroke" d="
  M 135.86 116.58
  C 128.85 108.62 118.34 109.63 109.29 113.10
  C 105.53 114.54 102.83 119.91 100.80 122.16
  A 5.36 5.12 81.6 0 0 100.17 123.05
  Q 97.28 128.25 95.35 136.20
  Q 94.07 141.45 94.99 146.85
  C 97.15 159.57 101.99 169.53 114.97 174.12
  Q 121.02 176.26 127.53 173.44
  Q 139.86 168.08 144.15 156.53
  Q 147.43 147.72 146.59 140.19
  Q 145.14 127.11 135.86 116.58"
/>
</g>
<path fill="#0174c3" d="
  M 53.11 38.56
  Q 64.28 29.93 72.87 25.38
  Q 97.09 12.55 123.48 12.39
  C 137.51 12.31 150.37 12.44 163.55 16.46
  C 171.71 18.95 182.22 22.60 190.50 27.88
  Q 200.30 34.12 211.07 42.31
  C 212.82 43.65 215.16 46.18 217.64 48.87
  Q 219.85 51.27 225.05 57.95
  C 241.08 78.57 251.39 105.19 250.48 131.41
  C 250.01 144.68 249.74 154.96 245.92 166.69
  C 243.60 173.80 242.12 179.50 238.78 186.18
  C 229.39 204.98 215.98 221.19 198.47 232.70
  Q 185.37 241.32 171.28 246.74
  C 164.22 249.45 156.39 251.02 148.56 253.35
  Q 144.14 254.66 139.24 254.87
  Q 124.43 255.50 115.35 253.91
  C 111.19 253.18 107.86 252.91 103.96 251.74
  Q 91.99 248.17 90.95 247.80
  Q 67.88 239.63 49.28 224.07
  C 36.51 213.39 26.53 198.28 19.00 183.24
  Q 17.43 180.11 13.27 167.21
  Q 10.39 158.31 9.59 150.62
  Q 8.02 135.52 8.38 128.69
  Q 10.07 96.78 26.44 68.84
  C 33.03 57.59 42.19 46.99 53.11 38.56
  Z
  M 145.73 183.95
  C 145.91 186.50 147.23 189.36 149.85 189.89
  C 153.24 190.57 159.20 191.41 162.78 189.41
  A 1.88 1.87 -3.5 0 0 163.61 188.48
  Q 164.18 187.09 164.26 184.00
  Q 164.50 174.36 164.49 171.25
  Q 164.33 109.83 164.56 69.50
  Q 164.58 65.22 163.92 61.95
  A 3.67 3.67 0.0 0 0 161.29 59.12
  C 156.97 57.94 151.92 57.28 147.49 58.27
  A 1.62 1.60 -78.7 0 0 146.56 58.90
  C 144.98 61.14 144.61 64.98 144.61 67.06
  C 144.63 77.55 145.31 89.51 143.26 99.78
  Q 143.06 100.77 142.68 101.49
  A 1.29 1.28 -51.2 0 1 140.57 101.72
  C 135.16 95.39 127.98 93.41 119.98 92.54
  C 113.57 91.85 107.22 94.01 100.89 96.22
  Q 94.46 98.46 89.89 102.59
  Q 81.67 109.99 78.28 119.78
  Q 71.30 139.93 76.70 160.40
  C 80.43 174.56 87.95 184.37 101.12 189.90
  C 109.74 193.51 121.68 193.19 130.55 190.87
  A 7.60 7.59 15.7 0 0 133.93 188.98
  C 137.06 185.96 139.92 182.97 143.75 182.37
  A 1.72 1.72 0.0 0 1 145.73 183.95
  Z"
/>
<path fill="#ffffff" d="
  M 145.73 183.95
  A 1.72 1.72 0.0 0 0 143.75 182.37
  C 139.92 182.97 137.06 185.96 133.93 188.98
  A 7.60 7.59 15.7 0 1 130.55 190.87
  C 121.68 193.19 109.74 193.51 101.12 189.90
  C 87.95 184.37 80.43 174.56 76.70 160.40
  Q 71.30 139.93 78.28 119.78
  Q 81.67 109.99 89.89 102.59
  Q 94.46 98.46 100.89 96.22
  C 107.22 94.01 113.57 91.85 119.98 92.54
  C 127.98 93.41 135.16 95.39 140.57 101.72
  A 1.29 1.28 -51.2 0 0 142.68 101.49
  Q 143.06 100.77 143.26 99.78
  C 145.31 89.51 144.63 77.55 144.61 67.06
  C 144.61 64.98 144.98 61.14 146.56 58.90
  A 1.62 1.60 -78.7 0 1 147.49 58.27
  C 151.92 57.28 156.97 57.94 161.29 59.12
  A 3.67 3.67 0.0 0 1 163.92 61.95
  Q 164.58 65.22 164.56 69.50
  Q 164.33 109.83 164.49 171.25
  Q 164.50 174.36 164.26 184.00
  Q 164.18 187.09 163.61 188.48
  A 1.88 1.87 -3.5 0 1 162.78 189.41
  C 159.20 191.41 153.24 190.57 149.85 189.89
  C 147.23 189.36 145.91 186.50 145.73 183.95
  Z
  M 135.86 116.58
  C 128.85 108.62 118.34 109.63 109.29 113.10
  C 105.53 114.54 102.83 119.91 100.80 122.16
  A 5.36 5.12 81.6 0 0 100.17 123.05
  Q 97.28 128.25 95.35 136.20
  Q 94.07 141.45 94.99 146.85
  C 97.15 159.57 101.99 169.53 114.97 174.12
  Q 121.02 176.26 127.53 173.44
  Q 139.86 168.08 144.15 156.53
  Q 147.43 147.72 146.59 140.19
  Q 145.14 127.11 135.86 116.58
  Z"
/>
<path fill="#0174c3" d="
  M 109.29 113.10
  C 118.34 109.63 128.85 108.62 135.86 116.58
  Q 145.14 127.11 146.59 140.19
  Q 147.43 147.72 144.15 156.53
  Q 139.86 168.08 127.53 173.44
  Q 121.02 176.26 114.97 174.12
  C 101.99 169.53 97.15 159.57 94.99 146.85
  Q 94.07 141.45 95.35 136.20
  Q 97.28 128.25 100.17 123.05
  A 5.36 5.12 81.6 0 1 100.80 122.16
  C 102.83 119.91 105.53 114.54 109.29 113.10
  Z"
/>
</svg>