<?xml version="1.0" encoding="UTF-8" standalone="no"?>
<!DOCTYPE svg PUBLIC "-//W3C//DTD SVG 1.1//EN" "http://www.w3.org/Graphics/SVG/1.1/DTD/svg11.dtd">
<svg xmlns="http://www.w3.org/2000/svg" version="1.1" viewBox="0.00 0.00 512.00 512.00" width="128" height="128">
<path fill="#0080ff" d="
  M 274.45 0.00
  C 329.52 4.19 380.19 23.14 422.65 58.84
  C 466.40 95.64 495.57 146.79 506.19 203.54
  Q 512.96 239.74 510.21 274.25
  C 504.70 343.32 471.99 406.25 419.01 450.74
  Q 359.26 500.91 279.01 509.56
  Q 269.50 510.59 254.78 510.43
  A 0.54 0.54 0.0 0 1 254.24 509.89
  L 254.24 411.64
  A 0.39 0.39 0.0 0 0 253.85 411.25
  L 157.31 411.25
  A 0.57 0.57 0.0 0 0 156.74 411.82
  L 156.74 487.65
  A 0.35 0.35 0.0 0 1 156.39 488.00
  L 81.73 488.00
  A 0.48 0.48 0.0 0 1 81.25 487.52
  L 81.25 411.79
  A 0.54 0.54 0.0 0 0 80.71 411.25
  L 18.61 411.25
  A 0.61 0.61 0.0 0 1 18.00 410.64
  L 18.00 348.09
  A 0.34 0.34 0.0 0 1 18.34 347.75
  L 81.01 347.75
  A 0.49 0.49 0.0 0 1 81.50 348.24
  L 81.50 410.43
  A 0.57 0.57 0.0 0 0 82.07 411.00
  L 155.89 411.00
  A 0.60 0.60 0.0 0 0 156.49 410.40
  L 156.49 313.36
  A 0.36 0.36 0.0 0 1 156.85 313.00
  L 255.25 313.00
  A 0.75 0.75 0.0 0 1 256.00 313.75
  L 256.00 410.69
  A 0.26 0.26 0.0 0 0 256.26 410.95
  C 335.21 409.97 401.66 350.49 410.21 271.73
  C 413.72 239.44 406.54 204.71 390.82 176.49
  Q 361.98 124.71 305.17 106.38
  C 256.43 90.66 204.53 98.85 163.39 129.21
  C 123.46 158.67 100.07 204.19 99.45 253.94
  A 0.52 0.52 0.0 0 1 98.93 254.46
  L 0.00 254.49
  L 0.00 243.03
  Q 4.46 162.04 53.38 98.87
  Q 84.58 58.57 129.95 32.68
  Q 179.40 4.47 238.17 0.00
  L 274.45 0.00
  Z"
/>
</svg>