<?xml version="1.0" encoding="UTF-8" standalone="no"?>
<!DOCTYPE svg PUBLIC "-//W3C//DTD SVG 1.1//EN" "http://www.w3.org/Graphics/SVG/1.1/DTD/svg11.dtd">
<svg xmlns="http://www.w3.org/2000/svg" version="1.1" viewBox="0.00 0.00 256.00 256.00" width="128" height="128">
<g stroke-width="2.00" fill="none" stroke-linecap="butt">
<path stroke="#808080" vector-effect="non-scaling-stroke" d="
  M 149.00 85.99
  A 21.00 21.00 0.0 0 0 128.00 64.99
  A 21.00 21.00 0.0 0 0 107.00 85.99
  A 21.00 21.00 0.0 0 0 128.00 106.99
  A 21.00 21.00 0.0 0 0 149.00 85.99"
/>
<path stroke="#808080" vector-effect="non-scaling-stroke" d="
  M 102.14 89.21
  A 15.35 15.35 0.0 0 0 86.79 73.86
  A 15.35 15.35 0.0 0 0 71.44 89.21
  A 15.35 15.35 0.0 0 0 86.79 104.56
  A 15.35 15.35 0.0 0 0 102.14 89.21"
/>
<path stroke="#808080" vector-effect="non-scaling-stroke" d="
  M 184.55 89.21
  A 15.34 15.34 0.0 0 0 169.21 73.87
  A 15.34 15.34 0.0 0 0 153.87 89.21
  A 15.34 15.34 0.0 0 0 169.21 104.55
  A 15.34 15.34 0.0 0 0 184.55 89.21"
/>
<path stroke="#808080" vector-effect="non-scaling-stroke" d="
  M 68.60 101.74
  A 9.69 9.69 0.0 0 0 58.91 92.05
  A 9.69 9.69 0.0 0 0 49.22 101.74
  A 9.69 9.69 0.0 0 0 58.91 111.43
  A 9.69 9.69 0.0 0 0 68.60 101.74"
/>
<path stroke="#808080" vector-effect="non-scaling-stroke" d="
  M 206.79 101.74
  A 9.70 9.70 0.0 0 0 197.09 92.04
  A 9.70 9.70 0.0 0 0 187.39 101.74
  A 9.70 9.70 0.0 0 0 197.09 111.44
  A 9.70 9.70 0.0 0 0 206.79 101.74"
/>
<path stroke="#808080" vector-effect="non-scaling-stroke" d="
  M 143.35 128.00
  A 15.35 15.35 0.0 0 0 128.00 112.65
  A 15.35 15.35 0.0 0 0 112.65 128.00
  A 15.35 15.35 0.0 0 0 128.00 143.35
  A 15.35 15.35 0.0 0 0 143.35 128.00"
/>
<path stroke="#153880" vector-effect="non-scaling-stroke" d="
  M 174.88 128.00
  A 12.13 12.13 0.0 0 0 162.75 115.87
  A 12.13 12.13 0.0 0 0 150.62 128.00
  A 12.13 12.13 0.0 0 0 162.75 140.13
  A 12.13 12.13 0.0 0 0 174.88 128.00"
/>
<path stroke="#153880" vector-effect="non-scaling-stroke" d="
  M 105.36 128.81
  A 12.11 12.11 0.0 0 0 93.25 116.70
  A 12.11 12.11 0.0 0 0 81.14 128.81
  A 12.11 12.11 0.0 0 0 93.25 140.92
  A 12.11 12.11 0.0 0 0 105.36 128.81"
/>
<path stroke="#153880" vector-effect="non-scaling-stroke" d="
  M 73.45 130.42
  A 8.07 8.07 0.0 0 0 65.38 122.35
  A 8.07 8.07 0.0 0 0 57.31 130.42
  A 8.07 8.07 0.0 0 0 65.38 138.49
  A 8.07 8.07 0.0 0 0 73.45 130.42"
/>
<path stroke="#153880" vector-effect="non-scaling-stroke" d="
  M 198.70 130.43
  A 8.07 8.07 0.0 0 0 190.63 122.36
  A 8.07 8.07 0.0 0 0 182.56 130.43
  A 8.07 8.07 0.0 0 0 190.63 138.50
  A 8.07 8.07 0.0 0 0 198.70 130.43"
/>
<path stroke="#153880" vector-effect="non-scaling-stroke" d="
  M 82.73 155.48
  A 5.65 5.65 0.0 0 0 77.08 149.83
  A 5.65 5.65 0.0 0 0 71.43 155.48
  A 5.65 5.65 0.0 0 0 77.08 161.13
  A 5.65 5.65 0.0 0 0 82.73 155.48"
/>
<path stroke="#153880" vector-effect="non-scaling-stroke" d="
  M 184.56 155.49
  A 5.65 5.65 0.0 0 0 178.91 149.84
  A 5.65 5.65 0.0 0 0 173.26 155.49
  A 5.65 5.65 0.0 0 0 178.91 161.14
  A 5.65 5.65 0.0 0 0 184.56 155.49"
/>
<path stroke="#808080" vector-effect="non-scaling-stroke" d="
  M 140.11 163.55
  A 12.11 12.11 0.0 0 0 128.00 151.44
  A 12.11 12.11 0.0 0 0 115.89 163.55
  A 12.11 12.11 0.0 0 0 128.00 175.66
  A 12.11 12.11 0.0 0 0 140.11 163.55"
/>
<path stroke="#153880" vector-effect="non-scaling-stroke" d="
  M 109.41 160.31
  A 8.08 8.08 0.0 0 0 101.33 152.23
  A 8.08 8.08 0.0 0 0 93.25 160.31
  A 8.08 8.08 0.0 0 0 101.33 168.39
  A 8.08 8.08 0.0 0 0 109.41 160.31"
/>
<path stroke="#153880" vector-effect="non-scaling-stroke" d="
  M 162.76 160.32
  A 8.08 8.08 0.0 0 0 154.68 152.24
  A 8.08 8.08 0.0 0 0 146.60 160.32
  A 8.08 8.08 0.0 0 0 154.68 168.40
  A 8.08 8.08 0.0 0 0 162.76 160.32"
/>
<path stroke="#153880" vector-effect="non-scaling-stroke" d="
  M 96.48 174.84
  A 4.04 4.04 0.0 0 0 92.44 170.80
  A 4.04 4.04 0.0 0 0 88.40 174.84
  A 4.04 4.04 0.0 0 0 92.44 178.88
  A 4.04 4.04 0.0 0 0 96.48 174.84"
/>
<path stroke="#153880" vector-effect="non-scaling-stroke" d="
  M 167.59 174.87
  A 4.03 4.03 0.0 0 0 163.56 170.84
  A 4.03 4.03 0.0 0 0 159.53 174.87
  A 4.03 4.03 0.0 0 0 163.56 178.90
  A 4.03 4.03 0.0 0 0 167.59 174.87"
/>
<path stroke="#153880" vector-effect="non-scaling-stroke" d="
  M 115.06 185.37
  A 5.64 5.64 0.0 0 0 109.42 179.73
  A 5.64 5.64 0.0 0 0 103.78 185.37
  A 5.64 5.64 0.0 0 0 109.42 191.01
  A 5.64 5.64 0.0 0 0 115.06 185.37"
/>
<path stroke="#153880" vector-effect="non-scaling-stroke" d="
  M 152.24 185.38
  A 5.66 5.66 0.0 0 0 146.58 179.72
  A 5.66 5.66 0.0 0 0 140.92 185.38
  A 5.66 5.66 0.0 0 0 146.58 191.04
  A 5.66 5.66 0.0 0 0 152.24 185.38"
/>
<path stroke="#808080" vector-effect="non-scaling-stroke" d="
  M 136.09 192.65
  A 8.07 8.07 0.0 0 0 128.02 184.58
  A 8.07 8.07 0.0 0 0 119.95 192.65
  A 8.07 8.07 0.0 0 0 128.02 200.72
  A 8.07 8.07 0.0 0 0 136.09 192.65"
/>
</g>
<path fill="#000000" d="
  M 134.40 0.00
  Q 173.84 2.45 204.03 24.94
  C 231.87 45.69 251.49 77.87 255.11 113.14
  Q 255.54 117.31 256.00 121.47
  L 256.00 133.11
  C 253.91 176.41 230.97 215.36 194.29 237.55
  Q 167.12 253.99 134.47 256.00
  L 121.75 256.00
  Q 82.41 253.63 52.53 231.46
  Q 4.55 195.85 0.00 134.37
  L 0.00 121.63
  Q 1.15 104.87 5.12 91.88
  Q 17.99 49.71 52.26 24.77
  Q 80.43 4.27 115.23 0.78
  Q 118.43 0.46 121.59 0.00
  L 134.40 0.00
  Z
  M 149.00 85.99
  A 21.00 21.00 0.0 0 0 128.00 64.99
  A 21.00 21.00 0.0 0 0 107.00 85.99
  A 21.00 21.00 0.0 0 0 128.00 106.99
  A 21.00 21.00 0.0 0 0 149.00 85.99
  Z
  M 102.14 89.21
  A 15.35 15.35 0.0 0 0 86.79 73.86
  A 15.35 15.35 0.0 0 0 71.44 89.21
  A 15.35 15.35 0.0 0 0 86.79 104.56
  A 15.35 15.35 0.0 0 0 102.14 89.21
  Z
  M 184.55 89.21
  A 15.34 15.34 0.0 0 0 169.21 73.87
  A 15.34 15.34 0.0 0 0 153.87 89.21
  A 15.34 15.34 0.0 0 0 169.21 104.55
  A 15.34 15.34 0.0 0 0 184.55 89.21
  Z
  M 68.60 101.74
  A 9.69 9.69 0.0 0 0 58.91 92.05
  A 9.69 9.69 0.0 0 0 49.22 101.74
  A 9.69 9.69 0.0 0 0 58.91 111.43
  A 9.69 9.69 0.0 0 0 68.60 101.74
  Z
  M 206.79 101.74
  A 9.70 9.70 0.0 0 0 197.09 92.04
  A 9.70 9.70 0.0 0 0 187.39 101.74
  A 9.70 9.70 0.0 0 0 197.09 111.44
  A 9.70 9.70 0.0 0 0 206.79 101.74
  Z
  M 143.35 128.00
  A 15.35 15.35 0.0 0 0 128.00 112.65
  A 15.35 15.35 0.0 0 0 112.65 128.00
  A 15.35 15.35 0.0 0 0 128.00 143.35
  A 15.35 15.35 0.0 0 0 143.35 128.00
  Z
  M 174.88 128.00
  A 12.13 12.13 0.0 0 0 162.75 115.87
  A 12.13 12.13 0.0 0 0 150.62 128.00
  A 12.13 12.13 0.0 0 0 162.75 140.13
  A 12.13 12.13 0.0 0 0 174.88 128.00
  Z
  M 105.36 128.81
  A 12.11 12.11 0.0 0 0 93.25 116.70
  A 12.11 12.11 0.0 0 0 81.14 128.81
  A 12.11 12.11 0.0 0 0 93.25 140.92
  A 12.11 12.11 0.0 0 0 105.36 128.81
  Z
  M 73.45 130.42
  A 8.07 8.07 0.0 0 0 65.38 122.35
  A 8.07 8.07 0.0 0 0 57.31 130.42
  A 8.07 8.07 0.0 0 0 65.38 138.49
  A 8.07 8.07 0.0 0 0 73.45 130.42
  Z
  M 198.70 130.43
  A 8.07 8.07 0.0 0 0 190.63 122.36
  A 8.07 8.07 0.0 0 0 182.56 130.43
  A 8.07 8.07 0.0 0 0 190.63 138.50
  A 8.07 8.07 0.0 0 0 198.70 130.43
  Z
  M 82.73 155.48
  A 5.65 5.65 0.0 0 0 77.08 149.83
  A 5.65 5.65 0.0 0 0 71.43 155.48
  A 5.65 5.65 0.0 0 0 77.08 161.13
  A 5.65 5.65 0.0 0 0 82.73 155.48
  Z
  M 184.56 155.49
  A 5.65 5.65 0.0 0 0 178.91 149.84
  A 5.65 5.65 0.0 0 0 173.26 155.49
  A 5.65 5.65 0.0 0 0 178.91 161.14
  A 5.65 5.65 0.0 0 0 184.56 155.49
  Z
  M 140.11 163.55
  A 12.11 12.11 0.0 0 0 128.00 151.44
  A 12.11 12.11 0.0 0 0 115.89 163.55
  A 12.11 12.11 0.0 0 0 128.00 175.66
  A 12.11 12.11 0.0 0 0 140.11 163.55
  Z
  M 109.41 160.31
  A 8.08 8.08 0.0 0 0 101.33 152.23
  A 8.08 8.08 0.0 0 0 93.25 160.31
  A 8.08 8.08 0.0 0 0 101.33 168.39
  A 8.08 8.08 0.0 0 0 109.41 160.31
  Z
  M 162.76 160.32
  A 8.08 8.08 0.0 0 0 154.68 152.24
  A 8.08 8.08 0.0 0 0 146.60 160.32
  A 8.08 8.08 0.0 0 0 154.68 168.40
  A 8.08 8.08 0.0 0 0 162.76 160.32
  Z
  M 96.48 174.84
  A 4.04 4.04 0.0 0 0 92.44 170.80
  A 4.04 4.04 0.0 0 0 88.40 174.84
  A 4.04 4.04 0.0 0 0 92.44 178.88
  A 4.04 4.04 0.0 0 0 96.48 174.84
  Z
  M 167.59 174.87
  A 4.03 4.03 0.0 0 0 163.56 170.84
  A 4.03 4.03 0.0 0 0 159.53 174.87
  A 4.03 4.03 0.0 0 0 163.56 178.90
  A 4.03 4.03 0.0 0 0 167.59 174.87
  Z
  M 115.06 185.37
  A 5.64 5.64 0.0 0 0 109.42 179.73
  A 5.64 5.64 0.0 0 0 103.78 185.37
  A 5.64 5.64 0.0 0 0 109.42 191.01
  A 5.64 5.64 0.0 0 0 115.06 185.37
  Z
  M 152.24 185.38
  A 5.66 5.66 0.0 0 0 146.58 179.72
  A 5.66 5.66 0.0 0 0 140.92 185.38
  A 5.66 5.66 0.0 0 0 146.58 191.04
  A 5.66 5.66 0.0 0 0 152.24 185.38
  Z
  M 136.09 192.65
  A 8.07 8.07 0.0 0 0 128.02 184.58
  A 8.07 8.07 0.0 0 0 119.95 192.65
  A 8.07 8.07 0.0 0 0 128.02 200.72
  A 8.07 8.07 0.0 0 0 136.09 192.65
  Z"
/>
<circle fill="#ffffff" cx="128.00" cy="85.99" r="21.00"/>
<circle fill="#ffffff" cx="86.79" cy="89.21" r="15.35"/>
<circle fill="#ffffff" cx="169.21" cy="89.21" r="15.34"/>
<circle fill="#ffffff" cx="58.91" cy="101.74" r="9.69"/>
<circle fill="#ffffff" cx="197.09" cy="101.74" r="9.70"/>
<circle fill="#ffffff" cx="128.00" cy="128.00" r="15.35"/>
<circle fill="#2970ff" cx="162.75" cy="128.00" r="12.13"/>
<circle fill="#2970ff" cx="93.25" cy="128.81" r="12.11"/>
<circle fill="#2970ff" cx="65.38" cy="130.42" r="8.07"/>
<circle fill="#2970ff" cx="190.63" cy="130.43" r="8.07"/>
<circle fill="#2970ff" cx="77.08" cy="155.48" r="5.65"/>
<circle fill="#2970ff" cx="178.91" cy="155.49" r="5.65"/>
<circle fill="#ffffff" cx="128.00" cy="163.55" r="12.11"/>
<circle fill="#2970ff" cx="101.33" cy="160.31" r="8.08"/>
<circle fill="#2970ff" cx="154.68" cy="160.32" r="8.08"/>
<circle fill="#2970ff" cx="92.44" cy="174.84" r="4.04"/>
<circle fill="#2970ff" cx="163.56" cy="174.87" r="4.03"/>
<circle fill="#2970ff" cx="109.42" cy="185.37" r="5.64"/>
<circle fill="#2970ff" cx="146.58" cy="185.38" r="5.66"/>
<circle fill="#ffffff" cx="128.02" cy="192.65" r="8.07"/>
</svg>