<?xml version="1.0" encoding="UTF-8" standalone="no"?>
<!DOCTYPE svg PUBLIC "-//W3C//DTD SVG 1.1//EN" "http://www.w3.org/Graphics/SVG/1.1/DTD/svg11.dtd">
<svg xmlns="http://www.w3.org/2000/svg" version="1.1" viewBox="0.00 0.00 256.00 256.00" width="128" height="128">
<path fill="#254356" d="
  M 35.05 213.86
  C 29.03 207.79 23.43 199.81 18.86 192.01
  C 11.41 179.31 6.64 165.40 3.79 150.76
  C 1.52 139.12 1.58 125.81 2.51 114.50
  Q 3.16 106.74 7.28 91.99
  Q 12.85 72.07 25.31 55.05
  Q 56.70 12.15 108.55 3.41
  Q 117.57 1.89 124.12 2.12
  C 130.62 2.35 137.83 1.80 144.92 2.83
  Q 191.86 9.61 223.00 44.23
  Q 247.31 71.25 253.37 107.89
  C 254.99 117.73 254.33 126.34 254.27 139.49
  Q 254.25 145.37 252.38 154.41
  Q 246.13 184.61 227.03 208.13
  Q 223.68 212.25 219.95 215.86
  C 216.61 219.09 213.43 222.59 209.88 225.57
  Q 185.87 245.75 155.02 252.26
  Q 145.75 254.21 139.00 254.28
  C 132.25 254.34 118.38 254.90 109.06 253.51
  Q 78.53 248.97 53.54 230.64
  C 46.30 225.32 41.64 220.50 35.05 213.86
  Z
  M 238.07 128.49
  A 109.58 109.58 0.0 0 0 128.49 18.91
  A 109.58 109.58 0.0 0 0 18.91 128.49
  A 109.58 109.58 0.0 0 0 128.49 238.07
  A 109.58 109.58 0.0 0 0 238.07 128.49
  Z"
/>
<rect fill="#254356" x="-10.29" y="-9.33" transform="translate(130.95,70.01) rotate(0.7)" width="20.58" height="18.66" rx="1.43"/>
<path fill="#254356" d="
  M 97.10 99.36
  L 97.10 83.71
  A 1.48 1.48 0.0 0 1 98.58 82.23
  L 116.25 82.23
  A 1.48 1.48 0.0 0 1 117.73 83.71
  L 117.73 99.36
  A 1.48 1.48 0.0 0 1 116.25 100.84
  L 98.58 100.84
  A 1.48 1.48 0.0 0 1 97.10 99.36
  Z"
/>
<rect fill="#254356" x="-10.43" y="-9.25" transform="translate(83.78,91.47) rotate(0.1)" width="20.86" height="18.50" rx="1.62"/>
<rect fill="#254356" x="-10.30" y="-9.02" transform="translate(131.08,91.80) rotate(-0.3)" width="20.60" height="18.04" rx="1.47"/>
<path fill="#254356" d="
  M 181.33 123.69
  Q 181.57 120.94 181.14 119.55
  Q 180.49 117.47 178.69 110.31
  A 4.21 4.13 -47.5 0 1 178.63 108.55
  L 180.16 99.83
  A 1.37 0.92 -59.5 0 1 180.21 99.65
  C 181.82 95.27 183.71 90.61 186.51 87.46
  A 1.91 1.90 -51.2 0 1 189.03 87.18
  C 195.92 92.07 203.61 99.20 204.54 108.13
  A 1.31 1.31 0.0 0 0 206.03 109.29
  Q 212.92 108.32 219.43 108.88
  A 2.86 2.81 56.8 0 1 220.17 109.04
  L 228.56 111.95
  A 1.46 1.37 -8.1 0 1 229.24 112.43
  Q 231.13 114.88 229.73 118.21
  C 225.13 129.11 214.72 134.45 203.29 134.51
  Q 201.55 134.52 200.29 135.52
  A 1.98 1.96 -8.4 0 0 199.72 136.28
  Q 188.29 162.86 165.70 178.44
  Q 155.63 185.39 141.38 190.63
  Q 134.80 193.06 119.12 195.71
  C 110.40 197.19 101.08 196.53 90.51 196.48
  Q 85.72 196.46 75.09 193.35
  Q 56.17 187.83 45.55 171.50
  Q 38.90 161.30 36.75 150.54
  Q 35.60 144.75 35.05 139.01
  Q 34.42 132.45 35.84 126.73
  A 1.83 1.82 -81.8 0 1 37.68 125.34
  Q 46.03 125.69 54.83 125.42
  C 62.92 125.16 71.49 125.81 79.53 125.55
  C 86.95 125.31 90.20 125.43 97.00 125.63
  Q 100.49 125.74 103.99 125.54
  Q 109.39 125.23 117.64 125.53
  C 125.75 125.82 132.34 125.08 140.14 125.54
  Q 144.48 125.80 155.36 125.41
  Q 162.55 125.16 170.60 125.68
  Q 173.32 125.85 180.72 124.36
  A 0.76 0.75 -3.1 0 0 181.33 123.69
  Z"
/>
<rect fill="#254356" x="-10.36" y="-9.77" transform="translate(83.75,113.51) rotate(0.1)" width="20.72" height="19.54" rx="1.92"/>
<rect fill="#254356" x="-10.33" y="-9.73" transform="translate(131.01,113.52) rotate(-0.8)" width="20.66" height="19.46" rx="1.75"/>
<rect fill="#254356" x="-10.43" y="-9.65" transform="translate(60.07,113.47) rotate(0.2)" width="20.86" height="19.30" rx="1.77"/>
<rect fill="#254356" x="-10.31" y="-9.72" transform="translate(107.35,113.54) rotate(-0.3)" width="20.62" height="19.44" rx="1.79"/>
<rect fill="#254356" x="-10.35" y="-9.76" transform="translate(154.73,113.49) rotate(-0.3)" width="20.70" height="19.52" rx="1.72"/>
</svg>