<?xml version="1.0" encoding="UTF-8" standalone="no"?>
<!DOCTYPE svg PUBLIC "-//W3C//DTD SVG 1.1//EN" "http://www.w3.org/Graphics/SVG/1.1/DTD/svg11.dtd">
<svg xmlns="http://www.w3.org/2000/svg" version="1.1" viewBox="0.00 0.00 1024.00 1024.00" width="128" height="128">
<g stroke-width="2.00" fill="none" stroke-linecap="butt">
<path stroke="#82b6e5" vector-effect="non-scaling-stroke" d="
  M 478.72 422.83
  A 0.24 0.24 0.0 0 1 479.13 422.66
  L 656.14 601.18
  A 3.92 3.91 67.6 0 0 658.92 602.34
  L 691.86 602.34
  A 0.68 0.68 0.0 0 0 692.54 601.66
  Q 692.58 498.83 692.56 320.95
  C 692.56 314.33 693.20 308.16 688.65 303.36
  Q 680.54 294.82 670.10 284.54
  C 641.05 255.92 610.47 224.95 593.77 208.71
  Q 589.59 204.65 583.25 204.67
  Q 526.45 204.79 414.00 204.66
  C 394.02 204.64 377.05 218.46 372.17 237.32
  Q 370.62 243.28 370.75 261.36
  Q 370.97 292.51 370.93 299.24
  A 0.49 0.48 90.0 0 0 371.41 299.73
  L 394.71 299.73
  A 0.56 0.56 0.0 0 0 395.27 299.17
  Q 395.38 274.45 395.21 254.21
  Q 395.15 246.65 395.45 244.82
  C 396.54 238.10 401.53 232.50 407.82 230.10
  Q 410.14 229.21 418.31 229.20
  Q 523.92 229.05 557.26 229.32
  Q 564.70 229.38 571.19 229.12
  A 0.55 0.55 0.0 0 1 571.77 229.67
  Q 571.77 298.78 571.69 304.42
  Q 571.53 314.67 573.42 318.31
  Q 576.89 325.02 585.98 325.02
  Q 659.59 325.05 667.66 324.91
  A 0.48 0.48 0.0 0 1 668.15 325.39
  L 668.15 576.62
  A 0.31 0.30 -67.7 0 1 667.63 576.84
  L 483.48 391.11
  A 2.17 2.11 -12.8 0 0 482.63 390.59
  Q 481.29 390.17 479.25 390.18
  Q 466.10 390.18 451.68 390.35
  A 0.27 0.26 0.0 0 0 451.41 390.61
  L 451.41 555.69
  A 0.43 0.43 0.0 0 0 451.92 556.11
  Q 465.61 553.34 477.97 547.77
  A 1.28 1.27 -12.2 0 0 478.72 546.61
  L 478.72 422.83"
/>
<path stroke="#82b6e5" vector-effect="non-scaling-stroke" d="
  M 538.27 507.74
  Q 534.77 515.60 530.32 522.94
  C 520.89 538.48 507.05 551.11 491.31 560.24
  C 472.07 571.40 448.58 576.55 426.26 576.57
  Q 384.80 576.62 339.60 576.58
  A 0.39 0.39 0.0 0 1 339.21 576.19
  L 339.21 343.88
  A 0.51 0.51 0.0 0 1 339.72 343.37
  Q 416.28 343.45 419.56 343.41
  Q 438.82 343.13 445.96 344.25
  Q 460.04 346.46 471.66 350.15
  C 492.67 356.81 513.34 371.67 526.17 390.09
  Q 537.61 406.52 542.42 423.42
  C 542.87 425.00 544.32 427.59 545.35 428.60
  Q 557.42 440.46 577.76 461.26
  A 0.34 0.33 23.0 0 0 578.34 461.03
  C 578.34 424.82 566.95 389.16 541.87 362.62
  Q 531.42 351.57 520.69 344.30
  Q 487.79 322.02 446.71 318.34
  C 436.20 317.40 426.73 317.57 416.79 317.55
  Q 371.71 317.48 309.68 317.60
  A 0.56 0.56 0.0 0 0 309.12 318.16
  L 309.12 601.80
  A 0.51 0.51 0.0 0 0 309.63 602.31
  Q 318.55 602.28 415.97 602.40
  Q 438.47 602.42 449.95 600.88
  Q 468.46 598.40 483.08 593.25
  Q 501.67 586.70 514.20 578.71
  Q 543.57 559.97 560.38 530.12
  A 0.71 0.69 37.4 0 0 560.26 529.28
  L 538.81 507.64
  A 0.34 0.33 -55.3 0 0 538.27 507.74"
/>
<path stroke="#82b6e5" vector-effect="non-scaling-stroke" d="
  M 395.30 361.48
  A 0.38 0.38 0.0 0 0 394.92 361.10
  L 371.22 361.10
  A 0.38 0.38 0.0 0 0 370.84 361.48
  L 370.84 558.44
  A 0.38 0.38 0.0 0 0 371.22 558.82
  L 394.92 558.82
  A 0.38 0.38 0.0 0 0 395.30 558.44
  L 395.30 361.48"
/>
<path stroke="#82b6e5" vector-effect="non-scaling-stroke" d="
  M 641.7836 672.4022
  A 14.01 12.87 -178.7 0 0 655.4980 685.5867
  A 14.01 12.87 -178.7 0 0 669.7964 673.0378
  A 14.01 12.87 -178.7 0 0 656.0820 659.8533
  A 14.01 12.87 -178.7 0 0 641.7836 672.4022"
/>
<path stroke="#82b6e5" vector-effect="non-scaling-stroke" d="
  M 696.84 718.12
  L 696.84 786.80
  A 0.46 0.45 0.0 0 0 697.30 787.25
  L 718.14 787.25
  A 0.63 0.63 0.0 0 0 718.77 786.62
  L 718.77 717.72
  A 0.30 0.30 0.0 0 1 719.07 717.42
  L 742.45 717.42
  A 0.57 0.56 90.0 0 0 743.01 716.85
  L 743.01 700.45
  A 0.65 0.65 0.0 0 0 742.36 699.80
  L 718.90 699.80
  A 0.36 0.36 0.0 0 1 718.54 699.47
  C 717.92 691.29 718.90 681.84 729.25 680.81
  Q 736.42 680.09 742.24 683.77
  A 0.65 0.65 0.0 0 0 743.20 683.42
  L 748.14 668.31
  A 0.84 0.84 0.0 0 0 747.79 667.34
  Q 745.28 665.80 742.15 664.85
  C 732.29 661.85 719.63 661.64 710.80 667.07
  C 699.08 674.28 696.41 686.16 696.78 699.48
  A 0.33 0.32 -0.8 0 1 696.45 699.81
  L 682.44 699.81
  A 0.60 0.60 0.0 0 0 681.84 700.41
  L 681.84 716.64
  A 0.82 0.81 0.0 0 0 682.66 717.45
  L 696.17 717.45
  A 0.67 0.67 0.0 0 1 696.84 718.12"
/>
<path stroke="#82b6e5" vector-effect="non-scaling-stroke" d="
  M 188.75 671.12
  L 188.55 786.80
  A 0.29 0.29 0.0 0 0 188.84 787.09
  L 244.47 787.19
  A 58.82 55.98 0.1 0 0 303.39 731.31
  L 303.39 727.01
  A 58.82 55.98 0.1 0 0 244.67 670.93
  L 189.04 670.83
  A 0.29 0.29 0.0 0 0 188.75 671.12"
/>
<path stroke="#82b6e5" vector-effect="non-scaling-stroke" d="
  M 317.17 742.96
  C 316.98 770.30 337.96 788.59 364.72 788.78
  C 391.48 788.97 412.71 770.99 412.91 743.65
  C 413.11 716.31 392.13 698.02 365.37 697.83
  C 338.61 697.64 317.37 715.62 317.17 742.96"
/>
<path stroke="#82b6e5" vector-effect="non-scaling-stroke" d="
  M 495.91 758.04
  C 491.97 763.93 487.19 768.38 479.99 769.68
  C 461.73 772.98 447.92 760.95 447.80 743.00
  C 447.72 732.43 453.82 721.22 463.85 717.99
  Q 483.51 711.66 495.98 727.99
  A 0.80 0.80 0.0 0 0 497.01 728.19
  L 513.12 718.89
  A 0.73 0.73 0.0 0 0 513.39 717.89
  C 502.42 698.83 477.35 694.37 457.79 700.29
  C 437.62 706.39 425.31 723.24 425.66 744.29
  C 426.05 768.23 444.32 786.08 467.47 788.47
  C 486.46 790.43 503.83 784.54 513.63 767.57
  A 0.53 0.52 -60.4 0 0 513.43 766.84
  L 496.78 757.82
  A 0.68 0.67 -58.9 0 0 495.91 758.04"
/>
<path stroke="#82b6e5" vector-effect="non-scaling-stroke" d="
  M 551.63 709.53
  L 551.63 699.85
  A 0.69 0.69 0.0 0 0 550.94 699.16
  L 530.96 699.16
  A 0.24 0.24 0.0 0 0 530.72 699.40
  L 530.72 786.62
  A 0.57 0.57 0.0 0 0 531.29 787.19
  L 552.07 787.19
  A 0.48 0.48 0.0 0 0 552.55 786.71
  Q 552.59 774.24 552.52 744.75
  Q 552.50 736.90 553.53 733.49
  Q 557.87 719.18 572.25 717.08
  C 575.72 716.57 580.94 716.90 584.29 717.96
  C 593.50 720.89 597.36 729.48 597.41 738.53
  Q 597.54 760.93 597.47 786.56
  A 0.67 0.67 0.0 0 0 598.14 787.23
  L 618.86 787.23
  A 0.43 0.43 0.0 0 0 619.29 786.80
  Q 619.53 765.95 619.46 745.67
  Q 619.43 733.86 619.23 731.83
  C 618.18 721.24 614.59 711.35 605.81 705.01
  C 595.19 697.33 581.70 696.41 569.31 699.54
  Q 558.99 702.15 552.00 709.68
  A 0.22 0.21 66.7 0 1 551.63 709.53"
/>
<path stroke="#82b6e5" vector-effect="non-scaling-stroke" d="
  M 666.76 699.62
  A 0.44 0.44 0.0 0 0 666.32 699.18
  L 645.26 699.18
  A 0.44 0.44 0.0 0 0 644.82 699.62
  L 644.82 786.80
  A 0.44 0.44 0.0 0 0 645.26 787.24
  L 666.32 787.24
  A 0.44 0.44 0.0 0 0 666.76 786.80
  L 666.76 699.62"
/>
<path stroke="#82b6e5" vector-effect="non-scaling-stroke" d="
  M 843.85 699.21
  L 823.31 699.21
  A 0.80 0.78 -77.8 0 0 822.59 699.69
  L 796.12 761.14
  A 0.28 0.28 0.0 0 1 795.60 761.14
  L 768.89 699.74
  A 0.91 0.89 77.8 0 0 768.07 699.20
  L 746.33 699.20
  A 0.46 0.46 0.0 0 0 745.91 699.85
  L 784.14 785.00
  A 3.97 3.96 42.3 0 1 784.28 787.85
  C 781.53 796.14 776.37 802.20 766.81 801.20
  Q 759.69 800.46 753.66 795.47
  A 0.43 0.42 32.4 0 0 753.01 795.61
  L 745.63 810.33
  A 1.50 1.50 0.0 0 0 746.17 812.27
  Q 761.20 821.78 776.95 818.79
  C 784.72 817.31 791.36 813.32 796.04 806.83
  Q 800.00 801.36 801.78 797.29
  Q 826.62 740.69 844.23 699.79
  A 0.42 0.41 -78.3 0 0 843.85 699.21"
/>
<path stroke="#82b6e5" vector-effect="non-scaling-stroke" d="
  M 650.08 300.63
  A 0.31 0.31 0.0 0 0 650.30 300.10
  L 596.90 246.50
  A 0.31 0.31 0.0 0 0 596.37 246.72
  L 596.27 300.23
  A 0.31 0.31 0.0 0 0 596.58 300.54
  L 650.08 300.63"
/>
<path stroke="#82b6e5" vector-effect="non-scaling-stroke" d="
  M 211.27 690.54
  L 211.27 767.30
  A 0.63 0.63 0.0 0 0 211.90 767.93
  L 242.55 767.93
  A 37.74 37.04 -0.0 0 0 280.29 730.89
  L 280.29 726.95
  A 37.74 37.04 0.0 0 0 242.55 689.91
  L 211.90 689.91
  A 0.63 0.63 0.0 0 0 211.27 690.54"
/>
<path stroke="#82b6e5" vector-effect="non-scaling-stroke" d="
  M 363.8168 715.9439
  A 27.30 25.95 -92.4 0 0 339.0328 744.3067
  A 27.30 25.95 -92.4 0 0 366.1032 770.4961
  A 27.30 25.95 -92.4 0 0 390.8872 742.1333
  A 27.30 25.95 -92.4 0 0 363.8168 715.9439"
/>
</g>
<path fill="#ffffff" d="
  M 1024.00 0.00
  L 1024.00 1024.00
  L 0.00 1024.00
  L 0.00 0.00
  L 1024.00 0.00
  Z
  M 478.72 422.83
  A 0.24 0.24 0.0 0 1 479.13 422.66
  L 656.14 601.18
  A 3.92 3.91 67.6 0 0 658.92 602.34
  L 691.86 602.34
  A 0.68 0.68 0.0 0 0 692.54 601.66
  Q 692.58 498.83 692.56 320.95
  C 692.56 314.33 693.20 308.16 688.65 303.36
  Q 680.54 294.82 670.10 284.54
  C 641.05 255.92 610.47 224.95 593.77 208.71
  Q 589.59 204.65 583.25 204.67
  Q 526.45 204.79 414.00 204.66
  C 394.02 204.64 377.05 218.46 372.17 237.32
  Q 370.62 243.28 370.75 261.36
  Q 370.97 292.51 370.93 299.24
  A 0.49 0.48 90.0 0 0 371.41 299.73
  L 394.71 299.73
  A 0.56 0.56 0.0 0 0 395.27 299.17
  Q 395.38 274.45 395.21 254.21
  Q 395.15 246.65 395.45 244.82
  C 396.54 238.10 401.53 232.50 407.82 230.10
  Q 410.14 229.21 418.31 229.20
  Q 523.92 229.05 557.26 229.32
  Q 564.70 229.38 571.19 229.12
  A 0.55 0.55 0.0 0 1 571.77 229.67
  Q 571.77 298.78 571.69 304.42
  Q 571.53 314.67 573.42 318.31
  Q 576.89 325.02 585.98 325.02
  Q 659.59 325.05 667.66 324.91
  A 0.48 0.48 0.0 0 1 668.15 325.39
  L 668.15 576.62
  A 0.31 0.30 -67.7 0 1 667.63 576.84
  L 483.48 391.11
  A 2.17 2.11 -12.8 0 0 482.63 390.59
  Q 481.29 390.17 479.25 390.18
  Q 466.10 390.18 451.68 390.35
  A 0.27 0.26 0.0 0 0 451.41 390.61
  L 451.41 555.69
  A 0.43 0.43 0.0 0 0 451.92 556.11
  Q 465.61 553.34 477.97 547.77
  A 1.28 1.27 -12.2 0 0 478.72 546.61
  L 478.72 422.83
  Z
  M 538.27 507.74
  Q 534.77 515.60 530.32 522.94
  C 520.89 538.48 507.05 551.11 491.31 560.24
  C 472.07 571.40 448.58 576.55 426.26 576.57
  Q 384.80 576.62 339.60 576.58
  A 0.39 0.39 0.0 0 1 339.21 576.19
  L 339.21 343.88
  A 0.51 0.51 0.0 0 1 339.72 343.37
  Q 416.28 343.45 419.56 343.41
  Q 438.82 343.13 445.96 344.25
  Q 460.04 346.46 471.66 350.15
  C 492.67 356.81 513.34 371.67 526.17 390.09
  Q 537.61 406.52 542.42 423.42
  C 542.87 425.00 544.32 427.59 545.35 428.60
  Q 557.42 440.46 577.76 461.26
  A 0.34 0.33 23.0 0 0 578.34 461.03
  C 578.34 424.82 566.95 389.16 541.87 362.62
  Q 531.42 351.57 520.69 344.30
  Q 487.79 322.02 446.71 318.34
  C 436.20 317.40 426.73 317.57 416.79 317.55
  Q 371.71 317.48 309.68 317.60
  A 0.56 0.56 0.0 0 0 309.12 318.16
  L 309.12 601.80
  A 0.51 0.51 0.0 0 0 309.63 602.31
  Q 318.55 602.28 415.97 602.40
  Q 438.47 602.42 449.95 600.88
  Q 468.46 598.40 483.08 593.25
  Q 501.67 586.70 514.20 578.71
  Q 543.57 559.97 560.38 530.12
  A 0.71 0.69 37.4 0 0 560.26 529.28
  L 538.81 507.64
  A 0.34 0.33 -55.3 0 0 538.27 507.74
  Z
  M 395.30 361.48
  A 0.38 0.38 0.0 0 0 394.92 361.10
  L 371.22 361.10
  A 0.38 0.38 0.0 0 0 370.84 361.48
  L 370.84 558.44
  A 0.38 0.38 0.0 0 0 371.22 558.82
  L 394.92 558.82
  A 0.38 0.38 0.0 0 0 395.30 558.44
  L 395.30 361.48
  Z
  M 641.7836 672.4022
  A 14.01 12.87 -178.7 0 0 655.4980 685.5867
  A 14.01 12.87 -178.7 0 0 669.7964 673.0378
  A 14.01 12.87 -178.7 0 0 656.0820 659.8533
  A 14.01 12.87 -178.7 0 0 641.7836 672.4022
  Z
  M 696.84 718.12
  L 696.84 786.80
  A 0.46 0.45 0.0 0 0 697.30 787.25
  L 718.14 787.25
  A 0.63 0.63 0.0 0 0 718.77 786.62
  L 718.77 717.72
  A 0.30 0.30 0.0 0 1 719.07 717.42
  L 742.45 717.42
  A 0.57 0.56 90.0 0 0 743.01 716.85
  L 743.01 700.45
  A 0.65 0.65 0.0 0 0 742.36 699.80
  L 718.90 699.80
  A 0.36 0.36 0.0 0 1 718.54 699.47
  C 717.92 691.29 718.90 681.84 729.25 680.81
  Q 736.42 680.09 742.24 683.77
  A 0.65 0.65 0.0 0 0 743.20 683.42
  L 748.14 668.31
  A 0.84 0.84 0.0 0 0 747.79 667.34
  Q 745.28 665.80 742.15 664.85
  C 732.29 661.85 719.63 661.64 710.80 667.07
  C 699.08 674.28 696.41 686.16 696.78 699.48
  A 0.33 0.32 -0.8 0 1 696.45 699.81
  L 682.44 699.81
  A 0.60 0.60 0.0 0 0 681.84 700.41
  L 681.84 716.64
  A 0.82 0.81 0.0 0 0 682.66 717.45
  L 696.17 717.45
  A 0.67 0.67 0.0 0 1 696.84 718.12
  Z
  M 188.75 671.12
  L 188.55 786.80
  A 0.29 0.29 0.0 0 0 188.84 787.09
  L 244.47 787.19
  A 58.82 55.98 0.1 0 0 303.39 731.31
  L 303.39 727.01
  A 58.82 55.98 0.1 0 0 244.67 670.93
  L 189.04 670.83
  A 0.29 0.29 0.0 0 0 188.75 671.12
  Z
  M 317.17 742.96
  C 316.98 770.30 337.96 788.59 364.72 788.78
  C 391.48 788.97 412.71 770.99 412.91 743.65
  C 413.11 716.31 392.13 698.02 365.37 697.83
  C 338.61 697.64 317.37 715.62 317.17 742.96
  Z
  M 495.91 758.04
  C 491.97 763.93 487.19 768.38 479.99 769.68
  C 461.73 772.98 447.92 760.95 447.80 743.00
  C 447.72 732.43 453.82 721.22 463.85 717.99
  Q 483.51 711.66 495.98 727.99
  A 0.80 0.80 0.0 0 0 497.01 728.19
  L 513.12 718.89
  A 0.73 0.73 0.0 0 0 513.39 717.89
  C 502.42 698.83 477.35 694.37 457.79 700.29
  C 437.62 706.39 425.31 723.24 425.66 744.29
  C 426.05 768.23 444.32 786.08 467.47 788.47
  C 486.46 790.43 503.83 784.54 513.63 767.57
  A 0.53 0.52 -60.4 0 0 513.43 766.84
  L 496.78 757.82
  A 0.68 0.67 -58.9 0 0 495.91 758.04
  Z
  M 551.63 709.53
  L 551.63 699.85
  A 0.69 0.69 0.0 0 0 550.94 699.16
  L 530.96 699.16
  A 0.24 0.24 0.0 0 0 530.72 699.40
  L 530.72 786.62
  A 0.57 0.57 0.0 0 0 531.29 787.19
  L 552.07 787.19
  A 0.48 0.48 0.0 0 0 552.55 786.71
  Q 552.59 774.24 552.52 744.75
  Q 552.50 736.90 553.53 733.49
  Q 557.87 719.18 572.25 717.08
  C 575.72 716.57 580.94 716.90 584.29 717.96
  C 593.50 720.89 597.36 729.48 597.41 738.53
  Q 597.54 760.93 597.47 786.56
  A 0.67 0.67 0.0 0 0 598.14 787.23
  L 618.86 787.23
  A 0.43 0.43 0.0 0 0 619.29 786.80
  Q 619.53 765.95 619.46 745.67
  Q 619.43 733.86 619.23 731.83
  C 618.18 721.24 614.59 711.35 605.81 705.01
  C 595.19 697.33 581.70 696.41 569.31 699.54
  Q 558.99 702.15 552.00 709.68
  A 0.22 0.21 66.7 0 1 551.63 709.53
  Z
  M 666.76 699.62
  A 0.44 0.44 0.0 0 0 666.32 699.18
  L 645.26 699.18
  A 0.44 0.44 0.0 0 0 644.82 699.62
  L 644.82 786.80
  A 0.44 0.44 0.0 0 0 645.26 787.24
  L 666.32 787.24
  A 0.44 0.44 0.0 0 0 666.76 786.80
  L 666.76 699.62
  Z
  M 843.85 699.21
  L 823.31 699.21
  A 0.80 0.78 -77.8 0 0 822.59 699.69
  L 796.12 761.14
  A 0.28 0.28 0.0 0 1 795.60 761.14
  L 768.89 699.74
  A 0.91 0.89 77.8 0 0 768.07 699.20
  L 746.33 699.20
  A 0.46 0.46 0.0 0 0 745.91 699.85
  L 784.14 785.00
  A 3.97 3.96 42.3 0 1 784.28 787.85
  C 781.53 796.14 776.37 802.20 766.81 801.20
  Q 759.69 800.46 753.66 795.47
  A 0.43 0.42 32.4 0 0 753.01 795.61
  L 745.63 810.33
  A 1.50 1.50 0.0 0 0 746.17 812.27
  Q 761.20 821.78 776.95 818.79
  C 784.72 817.31 791.36 813.32 796.04 806.83
  Q 800.00 801.36 801.78 797.29
  Q 826.62 740.69 844.23 699.79
  A 0.42 0.41 -78.3 0 0 843.85 699.21
  Z"
/>
<path fill="#056cca" d="
  M 478.72 422.83
  L 478.72 546.61
  A 1.28 1.27 -12.2 0 1 477.97 547.77
  Q 465.61 553.34 451.92 556.11
  A 0.43 0.43 0.0 0 1 451.41 555.69
  L 451.41 390.61
  A 0.27 0.26 -0.0 0 1 451.68 390.35
  Q 466.10 390.18 479.25 390.18
  Q 481.29 390.17 482.63 390.59
  A 2.17 2.11 -12.8 0 1 483.48 391.11
  L 667.63 576.84
  A 0.31 0.30 -67.7 0 0 668.15 576.62
  L 668.15 325.39
  A 0.48 0.48 0.0 0 0 667.66 324.91
  Q 659.59 325.05 585.98 325.02
  Q 576.89 325.02 573.42 318.31
  Q 571.53 314.67 571.69 304.42
  Q 571.77 298.78 571.77 229.67
  A 0.55 0.55 0.0 0 0 571.19 229.12
  Q 564.70 229.38 557.26 229.32
  Q 523.92 229.05 418.31 229.20
  Q 410.14 229.21 407.82 230.10
  C 401.53 232.50 396.54 238.10 395.45 244.82
  Q 395.15 246.65 395.21 254.21
  Q 395.38 274.45 395.27 299.17
  A 0.56 0.56 0.0 0 1 394.71 299.73
  L 371.41 299.73
  A 0.49 0.48 90.0 0 1 370.93 299.24
  Q 370.97 292.51 370.75 261.36
  Q 370.62 243.28 372.17 237.32
  C 377.05 218.46 394.02 204.64 414.00 204.66
  Q 526.45 204.79 583.25 204.67
  Q 589.59 204.65 593.77 208.71
  C 610.47 224.95 641.05 255.92 670.10 284.54
  Q 680.54 294.82 688.65 303.36
  C 693.20 308.16 692.56 314.33 692.56 320.95
  Q 692.58 498.83 692.54 601.66
  A 0.68 0.68 0.0 0 1 691.86 602.34
  L 658.92 602.34
  A 3.92 3.91 67.6 0 1 656.14 601.18
  L 479.13 422.66
  A 0.24 0.24 0.0 0 0 478.72 422.83
  Z
  M 650.08 300.63
  A 0.31 0.31 0.0 0 0 650.30 300.10
  L 596.90 246.50
  A 0.31 0.31 0.0 0 0 596.37 246.72
  L 596.27 300.23
  A 0.31 0.31 0.0 0 0 596.58 300.54
  L 650.08 300.63
  Z"
/>
<path fill="#ffffff" d="
  M 650.08 300.63
  L 596.58 300.54
  A 0.31 0.31 0.0 0 1 596.27 300.23
  L 596.37 246.72
  A 0.31 0.31 0.0 0 1 596.90 246.50
  L 650.30 300.10
  A 0.31 0.31 0.0 0 1 650.08 300.63
  Z"
/>
<path fill="#056cca" d="
  M 538.27 507.74
  A 0.34 0.33 -55.3 0 1 538.81 507.64
  L 560.26 529.28
  A 0.71 0.69 37.4 0 1 560.38 530.12
  Q 543.57 559.97 514.20 578.71
  Q 501.67 586.70 483.08 593.25
  Q 468.46 598.40 449.95 600.88
  Q 438.47 602.42 415.97 602.40
  Q 318.55 602.28 309.63 602.31
  A 0.51 0.51 0.0 0 1 309.12 601.80
  L 309.12 318.16
  A 0.56 0.56 0.0 0 1 309.68 317.60
  Q 371.71 317.48 416.79 317.55
  C 426.73 317.57 436.20 317.40 446.71 318.34
  Q 487.79 322.02 520.69 344.30
  Q 531.42 351.57 541.87 362.62
  C 566.95 389.16 578.34 424.82 578.34 461.03
  A 0.34 0.33 23.0 0 1 577.76 461.26
  Q 557.42 440.46 545.35 428.60
  C 544.32 427.59 542.87 425.00 542.42 423.42
  Q 537.61 406.52 526.17 390.09
  C 513.34 371.67 492.67 356.81 471.66 350.15
  Q 460.04 346.46 445.96 344.25
  Q 438.82 343.13 419.56 343.41
  Q 416.28 343.45 339.72 343.37
  A 0.51 0.51 0.0 0 0 339.21 343.88
  L 339.21 576.19
  A 0.39 0.39 0.0 0 0 339.60 576.58
  Q 384.80 576.62 426.26 576.57
  C 448.58 576.55 472.07 571.40 491.31 560.24
  C 507.05 551.11 520.89 538.48 530.32 522.94
  Q 534.77 515.60 538.27 507.74
  Z"
/>
<rect fill="#056cca" x="370.84" y="361.10" width="24.46" height="197.72" rx="0.38"/>
<ellipse fill="#056cca" cx="0.00" cy="0.00" transform="translate(655.79,672.72) rotate(-178.7)" rx="14.01" ry="12.87"/>
<path fill="#056cca" d="
  M 696.17 717.45
  L 682.66 717.45
  A 0.82 0.81 0.0 0 1 681.84 716.64
  L 681.84 700.41
  A 0.60 0.60 0.0 0 1 682.44 699.81
  L 696.45 699.81
  A 0.33 0.32 -0.8 0 0 696.78 699.48
  C 696.41 686.16 699.08 674.28 710.80 667.07
  C 719.63 661.64 732.29 661.85 742.15 664.85
  Q 745.28 665.80 747.79 667.34
  A 0.84 0.84 0.0 0 1 748.14 668.31
  L 743.20 683.42
  A 0.65 0.65 0.0 0 1 742.24 683.77
  Q 736.42 680.09 729.25 680.81
  C 718.90 681.84 717.92 691.29 718.54 699.47
  A 0.36 0.36 0.0 0 0 718.90 699.80
  L 742.36 699.80
  A 0.65 0.65 0.0 0 1 743.01 700.45
  L 743.01 716.85
  A 0.57 0.56 90.0 0 1 742.45 717.42
  L 719.07 717.42
  A 0.30 0.30 0.0 0 0 718.77 717.72
  L 718.77 786.62
  A 0.63 0.63 0.0 0 1 718.14 787.25
  L 697.30 787.25
  A 0.46 0.45 -0.0 0 1 696.84 786.80
  L 696.84 718.12
  A 0.67 0.67 0.0 0 0 696.17 717.45
  Z"
/>
<path fill="#056cca" d="
  M 188.75 671.12
  A 0.29 0.29 0.0 0 1 189.04 670.83
  L 244.67 670.93
  A 58.82 55.98 0.1 0 1 303.39 727.01
  L 303.39 731.31
  A 58.82 55.98 0.1 0 1 244.47 787.19
  L 188.84 787.09
  A 0.29 0.29 0.0 0 1 188.55 786.80
  L 188.75 671.12
  Z
  M 211.27 690.54
  L 211.27 767.30
  A 0.63 0.63 0.0 0 0 211.90 767.93
  L 242.55 767.93
  A 37.74 37.04 -0.0 0 0 280.29 730.89
  L 280.29 726.95
  A 37.74 37.04 0.0 0 0 242.55 689.91
  L 211.90 689.91
  A 0.63 0.63 0.0 0 0 211.27 690.54
  Z"
/>
<path fill="#ffffff" d="
  M 211.27 690.54
  A 0.63 0.63 0.0 0 1 211.90 689.91
  L 242.55 689.91
  A 37.74 37.04 -0.0 0 1 280.29 726.95
  L 280.29 730.89
  A 37.74 37.04 0.0 0 1 242.55 767.93
  L 211.90 767.93
  A 0.63 0.63 0.0 0 1 211.27 767.30
  L 211.27 690.54
  Z"
/>
<path fill="#056cca" d="
  M 365.37 697.83
  C 392.13 698.02 413.11 716.31 412.91 743.65
  C 412.71 770.99 391.48 788.97 364.72 788.78
  C 337.96 788.59 316.98 770.30 317.17 742.96
  C 317.37 715.62 338.61 697.64 365.37 697.83
  Z
  M 363.8168 715.9439
  A 27.30 25.95 -92.4 0 0 339.0328 744.3067
  A 27.30 25.95 -92.4 0 0 366.1032 770.4961
  A 27.30 25.95 -92.4 0 0 390.8872 742.1333
  A 27.30 25.95 -92.4 0 0 363.8168 715.9439
  Z"
/>
<path fill="#056cca" d="
  M 496.78 757.82
  L 513.43 766.84
  A 0.53 0.52 -60.4 0 1 513.63 767.57
  C 503.83 784.54 486.46 790.43 467.47 788.47
  C 444.32 786.08 426.05 768.23 425.66 744.29
  C 425.31 723.24 437.62 706.39 457.79 700.29
  C 477.35 694.37 502.42 698.83 513.39 717.89
  A 0.73 0.73 0.0 0 1 513.12 718.89
  L 497.01 728.19
  A 0.80 0.80 0.0 0 1 495.98 727.99
  Q 483.51 711.66 463.85 717.99
  C 453.82 721.22 447.72 732.43 447.80 743.00
  C 447.92 760.95 461.73 772.98 479.99 769.68
  C 487.19 768.38 491.97 763.93 495.91 758.04
  A 0.68 0.67 -58.9 0 1 496.78 757.82
  Z"
/>
<path fill="#056cca" d="
  M 551.63 709.53
  A 0.22 0.21 66.7 0 0 552.00 709.68
  Q 558.99 702.15 569.31 699.54
  C 581.70 696.41 595.19 697.33 605.81 705.01
  C 614.59 711.35 618.18 721.24 619.23 731.83
  Q 619.43 733.86 619.46 745.67
  Q 619.53 765.95 619.29 786.80
  A 0.43 0.43 0.0 0 1 618.86 787.23
  L 598.14 787.23
  A 0.67 0.67 0.0 0 1 597.47 786.56
  Q 597.54 760.93 597.41 738.53
  C 597.36 729.48 593.50 720.89 584.29 717.96
  C 580.94 716.90 575.72 716.57 572.25 717.08
  Q 557.87 719.18 553.53 733.49
  Q 552.50 736.90 552.52 744.75
  Q 552.59 774.24 552.55 786.71
  A 0.48 0.48 0.0 0 1 552.07 787.19
  L 531.29 787.19
  A 0.57 0.57 0.0 0 1 530.72 786.62
  L 530.72 699.40
  A 0.24 0.24 0.0 0 1 530.96 699.16
  L 550.94 699.16
  A 0.69 0.69 0.0 0 1 551.63 699.85
  L 551.63 709.53
  Z"
/>
<rect fill="#056cca" x="644.82" y="699.18" width="21.94" height="88.06" rx="0.44"/>
<path fill="#056cca" d="
  M 843.85 699.21
  A 0.42 0.41 -78.3 0 1 844.23 699.79
  Q 826.62 740.69 801.78 797.29
  Q 800.00 801.36 796.04 806.83
  C 791.36 813.32 784.72 817.31 776.95 818.79
  Q 761.20 821.78 746.17 812.27
  A 1.50 1.50 0.0 0 1 745.63 810.33
  L 753.01 795.61
  A 0.43 0.42 32.4 0 1 753.66 795.47
  Q 759.69 800.46 766.81 801.20
  C 776.37 802.20 781.53 796.14 784.28 787.85
  A 3.97 3.96 42.3 0 0 784.14 785.00
  L 745.91 699.85
  A 0.46 0.46 0.0 0 1 746.33 699.20
  L 768.07 699.20
  A 0.91 0.89 77.8 0 1 768.89 699.74
  L 795.60 761.14
  A 0.28 0.28 0.0 0 0 796.12 761.14
  L 822.59 699.69
  A 0.80 0.78 -77.8 0 1 823.31 699.21
  L 843.85 699.21
  Z"
/>
<ellipse fill="#ffffff" cx="0.00" cy="0.00" transform="translate(364.96,743.22) rotate(-92.4)" rx="27.30" ry="25.95"/>
</svg>