<?xml version="1.0" encoding="UTF-8" standalone="no"?>
<!DOCTYPE svg PUBLIC "-//W3C//DTD SVG 1.1//EN" "http://www.w3.org/Graphics/SVG/1.1/DTD/svg11.dtd">
<svg xmlns="http://www.w3.org/2000/svg" version="1.1" viewBox="0.00 0.00 300.00 300.00" width="128" height="128">
<path stroke="#84b6fe" stroke-width="2.00" fill="none" stroke-linecap="butt" vector-effect="non-scaling-stroke" d="
  M 159.50 85.98
  Q 177.03 104.60 206.20 135.80
  Q 207.54 137.25 207.55 139.25
  Q 207.61 179.59 207.55 227.79
  A 0.83 0.83 0.0 0 1 206.72 228.62
  L 93.06 228.62
  A 1.23 1.23 0.0 0 1 91.83 227.39
  L 91.83 73.74
  A 0.62 0.62 0.0 0 1 92.45 73.12
  L 115.27 73.12
  A 0.68 0.68 0.0 0 0 115.95 72.44
  L 115.95 49.82
  A 0.51 0.51 0.0 0 0 115.44 49.31
  L 68.56 49.31
  A 0.63 0.63 0.0 0 0 67.93 49.94
  L 67.93 251.63
  A 0.77 0.77 0.0 0 0 68.70 252.40
  L 230.59 252.40
  A 0.85 0.84 -0.3 0 0 231.44 251.55
  Q 231.32 170.16 231.47 130.51
  Q 231.48 127.88 230.70 127.05
  Q 199.92 94.16 179.89 72.72
  A 0.46 0.46 0.0 0 1 180.21 71.95
  Q 181.93 71.91 217.84 71.91
  Q 222.55 71.92 224.59 71.09
  C 234.37 67.11 234.34 53.30 225.17 49.11
  Q 222.71 47.99 214.64 48.05
  Q 194.35 48.18 148.04 48.08
  C 139.83 48.07 134.87 54.37 134.85 61.91
  Q 134.77 92.72 134.82 126.70
  C 134.83 132.86 135.28 137.04 140.18 140.28
  C 146.33 144.35 154.78 142.10 157.76 135.27
  Q 158.79 132.92 158.67 126.66
  Q 158.66 126.21 158.65 90.48
  Q 158.65 89.20 158.85 86.22
  A 0.38 0.38 0.0 0 1 159.50 85.98"
/>
<path fill="#086dfd" d="
  M 300.00 0.00
  L 300.00 300.00
  L 0.00 300.00
  L 0.00 0.00
  L 300.00 0.00
  Z
  M 159.50 85.98
  Q 177.03 104.60 206.20 135.80
  Q 207.54 137.25 207.55 139.25
  Q 207.61 179.59 207.55 227.79
  A 0.83 0.83 0.0 0 1 206.72 228.62
  L 93.06 228.62
  A 1.23 1.23 0.0 0 1 91.83 227.39
  L 91.83 73.74
  A 0.62 0.62 0.0 0 1 92.45 73.12
  L 115.27 73.12
  A 0.68 0.68 0.0 0 0 115.95 72.44
  L 115.95 49.82
  A 0.51 0.51 0.0 0 0 115.44 49.31
  L 68.56 49.31
  A 0.63 0.63 0.0 0 0 67.93 49.94
  L 67.93 251.63
  A 0.77 0.77 0.0 0 0 68.70 252.40
  L 230.59 252.40
  A 0.85 0.84 -0.3 0 0 231.44 251.55
  Q 231.32 170.16 231.47 130.51
  Q 231.48 127.88 230.70 127.05
  Q 199.92 94.16 179.89 72.72
  A 0.46 0.46 0.0 0 1 180.21 71.95
  Q 181.93 71.91 217.84 71.91
  Q 222.55 71.92 224.59 71.09
  C 234.37 67.11 234.34 53.30 225.17 49.11
  Q 222.71 47.99 214.64 48.05
  Q 194.35 48.18 148.04 48.08
  C 139.83 48.07 134.87 54.37 134.85 61.91
  Q 134.77 92.72 134.82 126.70
  C 134.83 132.86 135.28 137.04 140.18 140.28
  C 146.33 144.35 154.78 142.10 157.76 135.27
  Q 158.79 132.92 158.67 126.66
  Q 158.66 126.21 158.65 90.48
  Q 158.65 89.20 158.85 86.22
  A 0.38 0.38 0.0 0 1 159.50 85.98
  Z"
/>
<path fill="#ffffff" d="
  M 159.50 85.98
  A 0.38 0.38 0.0 0 0 158.85 86.22
  Q 158.65 89.20 158.65 90.48
  Q 158.66 126.21 158.67 126.66
  Q 158.79 132.92 157.76 135.27
  C 154.78 142.10 146.33 144.35 140.18 140.28
  C 135.28 137.04 134.83 132.86 134.82 126.70
  Q 134.77 92.72 134.85 61.91
  C 134.87 54.37 139.83 48.07 148.04 48.08
  Q 194.35 48.18 214.64 48.05
  Q 222.71 47.99 225.17 49.11
  C 234.34 53.30 234.37 67.11 224.59 71.09
  Q 222.55 71.92 217.84 71.91
  Q 181.93 71.91 180.21 71.95
  A 0.46 0.46 0.0 0 0 179.89 72.72
  Q 199.92 94.16 230.70 127.05
  Q 231.48 127.88 231.47 130.51
  Q 231.32 170.16 231.44 251.55
  A 0.85 0.84 -0.3 0 1 230.59 252.40
  L 68.70 252.40
  A 0.77 0.77 0.0 0 1 67.93 251.63
  L 67.93 49.94
  A 0.63 0.63 0.0 0 1 68.56 49.31
  L 115.44 49.31
  A 0.51 0.51 0.0 0 1 115.95 49.82
  L 115.95 72.44
  A 0.68 0.68 0.0 0 1 115.27 73.12
  L 92.45 73.12
  A 0.62 0.62 0.0 0 0 91.83 73.74
  L 91.83 227.39
  A 1.23 1.23 0.0 0 0 93.06 228.62
  L 206.72 228.62
  A 0.83 0.83 0.0 0 0 207.55 227.79
  Q 207.61 179.59 207.55 139.25
  Q 207.54 137.25 206.20 135.80
  Q 177.03 104.60 159.50 85.98
  Z"
/>
</svg>