<?xml version="1.0" encoding="UTF-8" standalone="no"?>
<!DOCTYPE svg PUBLIC "-//W3C//DTD SVG 1.1//EN" "http://www.w3.org/Graphics/SVG/1.1/DTD/svg11.dtd">
<svg xmlns="http://www.w3.org/2000/svg" version="1.1" viewBox="0.00 0.00 180.00 180.00" width="128" height="128">
<g stroke-width="2.00" fill="none" stroke-linecap="butt">
<path stroke="#0c9eaf" vector-effect="non-scaling-stroke" d="
  M 101.04 48.13
  L 109.11 48.39
  A 0.59 0.59 0.0 0 1 109.67 48.90
  Q 111.74 64.23 110.69 79.60"
/>
<path stroke="#0c9eaf" vector-effect="non-scaling-stroke" d="
  M 115.75 99.53
  Q 114.67 111.97 117.17 124.00"
/>
<path stroke="#0c9eaf" vector-effect="non-scaling-stroke" d="
  M 116.46 132.27
  L 113.45 157.48"
/>
<path stroke="#0fa9ab" vector-effect="non-scaling-stroke" d="
  M 78.18 157.49
  C 81.65 141.46 81.04 126.74 81.09 110.06
  Q 81.11 101.41 79.38 92.94"
/>
<path stroke="#0fa9ab" vector-effect="non-scaling-stroke" d="
  M 79.58 90.02
  C 80.91 75.30 81.64 62.36 76.52 48.84
  A 0.73 0.73 0.0 0 0 75.84 48.37
  L 54.53 48.12"
/>
</g>
<path fill="#0da3ad" d="
  M 101.04 48.13
  L 109.11 48.39
  A 0.59 0.59 0.0 0 1 109.67 48.90
  Q 111.74 64.23 110.69 79.60
  Q 105.76 80.31 102.92 84.17
  C 96.74 92.59 106.26 104.43 115.75 99.53
  Q 114.67 111.97 117.17 124.00
  L 108.65 123.92
  A 4.11 3.79 89.6 0 0 104.83 128.12
  L 104.83 128.20
  A 4.13 4.02 89.5 0 0 108.83 132.24
  L 116.46 132.27
  L 113.45 157.48
  L 78.18 157.49
  C 81.65 141.46 81.04 126.74 81.09 110.06
  Q 81.11 101.41 79.38 92.94
  L 79.58 90.02
  C 80.91 75.30 81.64 62.36 76.52 48.84
  A 0.73 0.73 0.0 0 0 75.84 48.37
  L 54.53 48.12
  L 81.94 48.13
  A 0.60 0.60 0.0 0 0 82.54 47.55
  Q 82.62 42.58 82.57 31.51
  C 82.51 20.68 96.53 19.79 97.40 30.87
  Q 97.46 31.62 97.39 47.48
  A 0.60 0.60 0.0 0 0 97.98 48.08
  L 101.04 48.13
  Z
  M 97.3911 132.2058
  A 3.86 3.86 0.0 0 0 93.5446 128.3323
  L 86.4846 128.3077
  A 3.86 3.86 0.0 0 0 82.6112 132.1542
  L 82.6089 132.7942
  A 3.86 3.86 0.0 0 0 86.4554 136.6677
  L 93.5154 136.6923
  A 3.86 3.86 0.0 0 0 97.3888 132.8458
  L 97.3911 132.2058
  Z"
/>
<path fill="#0a99b0" d="
  M 113.45 157.48
  L 116.46 132.27
  C 120.44 131.04 120.86 125.87 117.17 124.00
  Q 114.67 111.97 115.75 99.53
  Q 122.13 95.91 121.51 89.50
  Q 120.64 80.40 110.69 79.60
  Q 111.74 64.23 109.67 48.90
  A 0.59 0.59 0.0 0 0 109.11 48.39
  L 101.04 48.13
  Q 113.44 48.12 125.84 48.13
  Q 132.33 48.13 137.13 53.87
  Q 142.02 59.71 142.01 67.74
  Q 141.99 132.56 141.93 139.00
  C 141.85 147.87 135.14 157.51 125.76 157.51
  Q 119.61 157.50 113.45 157.48
  Z"
/>
<path fill="#11aea9" d="
  M 54.53 48.12
  L 75.84 48.37
  A 0.73 0.73 0.0 0 1 76.52 48.84
  C 81.64 62.36 80.91 75.30 79.58 90.02
  Q 79.34 84.84 75.05 81.72
  C 65.27 74.59 52.49 88.17 61.57 97.24
  C 67.88 103.55 76.24 100.58 79.38 92.94
  Q 81.11 101.41 81.09 110.06
  C 81.04 126.74 81.65 141.46 78.18 157.49
  Q 66.26 157.50 54.24 157.49
  C 45.81 157.49 39.81 149.88 38.31 142.18
  Q 38.02 140.69 38.03 130.80
  Q 38.07 81.42 38.01 70.15
  Q 37.98 64.12 38.88 61.05
  C 40.99 53.89 46.79 48.44 54.53 48.12
  Z
  M 75.1195 127.7571
  A 3.93 3.93 0.0 0 0 71.1826 123.8340
  L 64.2626 123.8460
  A 3.93 3.93 0.0 0 0 60.3395 127.7829
  L 60.3405 128.3629
  A 3.93 3.93 0.0 0 0 64.2774 132.2860
  L 71.1974 132.2740
  A 3.93 3.93 0.0 0 0 75.1205 128.3371
  L 75.1195 127.7571
  Z"
/>
<path fill="#14b7a6" d="
  M 30.60 131.80
  A 0.59 0.59 0.0 0 1 30.01 132.39
  L 27.67 132.39
  A 12.70 11.97 -90.0 0 1 15.70 119.69
  L 15.70 94.35
  A 12.70 11.97 -90.0 0 1 27.67 81.65
  L 30.01 81.65
  A 0.59 0.59 0.0 0 1 30.60 82.24
  L 30.60 131.80
  Z"
/>
<path fill="#0892b2" d="
  M 149.40 82.25
  A 0.59 0.59 0.0 0 1 149.99 81.66
  L 152.41 81.66
  A 12.82 11.89 90.0 0 1 164.30 94.48
  L 164.30 119.56
  A 12.82 11.89 -90.0 0 1 152.41 132.38
  L 149.99 132.38
  A 0.59 0.59 0.0 0 1 149.40 131.79
  L 149.40 82.25
  Z"
/>
</svg>