<?xml version="1.0" encoding="UTF-8" standalone="no"?>
<!DOCTYPE svg PUBLIC "-//W3C//DTD SVG 1.1//EN" "http://www.w3.org/Graphics/SVG/1.1/DTD/svg11.dtd">
<svg xmlns="http://www.w3.org/2000/svg" version="1.1" viewBox="0.00 0.00 776.00 776.00" width="128" height="128">
<g stroke-width="2.00" fill="none" stroke-linecap="butt">
<path stroke="#789bd0" vector-effect="non-scaling-stroke" d="
  M 534.04 84.13
  L 157.58 83.89
  A 0.73 0.72 -89.6 0 0 156.85 84.62
  L 156.85 152.22
  A 0.93 0.93 0.0 0 0 157.78 153.15
  L 195.89 153.15
  A 0.75 0.74 0.0 0 0 196.64 152.41
  L 196.64 123.78
  A 0.41 0.41 0.0 0 1 197.05 123.37
  L 512.33 123.37
  A 0.58 0.58 0.0 0 1 512.91 123.95
  L 512.47 187.04"
/>
<path stroke="#789bd0" vector-effect="non-scaling-stroke" d="
  M 618.72 166.26
  L 619.11 167.34
  A 2.52 2.45 36.1 0 1 619.25 168.16
  L 619.24 683.95"
/>
<path stroke="#789bd0" vector-effect="non-scaling-stroke" d="
  M 561.48 683.70
  L 561.28 644.06"
/>
<path stroke="#789bd0" vector-effect="non-scaling-stroke" d="
  M 699.28 80.94
  L 700.90 83.22
  A 1.18 1.16 -63.7 0 1 701.13 83.92
  L 701.13 599.58
  A 0.63 0.62 -0.0 0 1 700.50 600.20
  L 644.61 600.20
  A 1.08 1.08 0.0 0 1 643.53 599.11
  L 644.06 560.05"
/>
<path stroke="#789bd0" vector-effect="non-scaling-stroke" d="
  M 661.06 135.72
  L 661.54 103.94
  A 0.61 0.60 -89.5 0 0 660.94 103.32
  L 595.79 103.32
  A 1.01 1.01 0.0 0 1 594.78 102.32
  L 594.35 40.00"
/>
<path stroke="#789bd0" vector-effect="non-scaling-stroke" d="
  M 279.01 69.61
  Q 259.13 68.81 239.11 69.44"
/>
<path stroke="#789bd0" vector-effect="non-scaling-stroke" d="
  M 456.54 177.06
  L 454.55 175.96
  A 0.74 0.69 -28.6 0 0 454.20 175.87
  L 79.39 175.87
  A 0.75 0.75 0.0 0 0 78.64 176.60
  C 78.57 178.45 78.85 180.59 78.85 182.13
  Q 78.92 634.85 78.84 774.00
  Q 78.84 775.27 79.25 776.00"
/>
<path stroke="#789bd0" vector-effect="non-scaling-stroke" d="
  M 434.85 278.97
  L 434.84 216.24
  A 0.58 0.57 2.8 0 0 434.31 215.67
  Q 433.83 215.64 434.00 216.00"
/>
<path stroke="#789bd0" vector-effect="non-scaling-stroke" d="
  M 374.92 486.50
  Q 364.46 486.80 354.00 486.84
  Q 299.12 487.07 244.25 486.76
  Q 237.54 486.72 230.83 486.49"
/>
<path stroke="#789bd0" vector-effect="non-scaling-stroke" d="
  M 392.15 519.46
  Q 348.05 518.77 303.96 519.48"
/>
</g>
<path fill="#0c47a1" d="
  M 616.08 0.00
  L 699.28 80.94
  L 700.90 83.22
  A 1.18 1.16 -63.7 0 1 701.13 83.92
  L 701.13 599.58
  A 0.63 0.62 -0.0 0 1 700.50 600.20
  L 644.61 600.20
  A 1.08 1.08 0.0 0 1 643.53 599.11
  L 644.06 560.05
  L 660.60 560.03
  A 0.44 0.43 -0.0 0 0 661.04 559.60
  L 661.06 135.72
  L 661.54 103.94
  A 0.61 0.60 -89.5 0 0 660.94 103.32
  L 595.79 103.32
  A 1.01 1.01 0.0 0 1 594.78 102.32
  L 594.35 40.00
  L 279.30 40.00
  A 0.31 0.31 0.0 0 0 278.99 40.31
  L 279.01 69.61
  Q 259.13 68.81 239.11 69.44
  L 239.29 0.00
  L 616.08 0.00
  Z"
/>
<path fill="#e3eeff" d="
  M 661.06 135.72
  L 661.04 104.33
  A 0.35 0.34 -90.0 0 0 660.70 103.98
  L 594.31 103.98
  A 0.27 0.27 0.0 0 1 594.04 103.71
  L 594.35 40.00
  L 594.78 102.32
  A 1.01 1.01 0.0 0 0 595.79 103.32
  L 660.94 103.32
  A 0.61 0.60 -89.5 0 1 661.54 103.94
  L 661.06 135.72
  Z"
/>
<path fill="#e3eeff" d="
  M 279.01 69.61
  L 239.38 69.96
  A 0.27 0.26 -5.2 0 1 239.12 69.75
  Q 239.09 69.61 239.11 69.44
  Q 259.13 68.81 279.01 69.61
  Z"
/>
<path fill="#e3eeff" d="
  M 644.06 560.05
  L 643.53 599.11
  A 1.08 1.08 0.0 0 0 644.61 600.20
  L 700.50 600.20
  A 0.63 0.62 -0.0 0 0 701.13 599.58
  L 701.13 83.92
  A 1.18 1.16 -63.7 0 0 700.90 83.22
  L 699.28 80.94
  L 701.58 83.32
  A 1.41 1.40 23.0 0 1 701.98 84.30
  L 701.98 600.38
  A 0.60 0.59 90.0 0 1 701.39 600.98
  L 643.93 600.98
  A 0.95 0.94 90.0 0 1 642.99 600.03
  L 642.99 560.76
  A 0.66 0.66 0.0 0 1 643.58 560.10
  L 644.06 560.05
  Z"
/>
<path fill="#e3eeff" d="
  M 534.04 84.13
  L 157.58 83.89
  A 0.73 0.72 -89.6 0 0 156.85 84.62
  L 156.85 152.22
  A 0.93 0.93 0.0 0 0 157.78 153.15
  L 195.89 153.15
  A 0.75 0.74 0.0 0 0 196.64 152.41
  L 196.64 123.78
  A 0.41 0.41 0.0 0 1 197.05 123.37
  L 512.33 123.37
  A 0.58 0.58 0.0 0 1 512.91 123.95
  L 512.47 187.04
  L 512.02 124.31
  A 0.34 0.33 0.0 0 0 511.68 123.98
  L 197.31 123.98
  A 0.37 0.37 0.0 0 0 196.94 124.35
  L 196.94 153.39
  A 0.59 0.58 90.0 0 1 196.36 153.98
  L 156.61 153.98
  A 0.58 0.58 0.0 0 1 156.03 153.40
  L 156.03 83.30
  A 0.28 0.28 0.0 0 1 156.31 83.02
  L 532.32 83.02
  A 1.07 1.06 -24.3 0 1 533.02 83.28
  L 534.04 84.13
  Z"
/>
<path fill="#0c47a1" d="
  M 534.04 84.13
  L 618.72 166.26
  L 619.11 167.34
  A 2.52 2.45 36.1 0 1 619.25 168.16
  L 619.24 683.95
  L 561.48 683.70
  L 561.28 644.06
  L 578.19 644.04
  A 0.83 0.83 0.0 0 0 579.02 643.21
  L 579.02 187.60
  A 0.51 0.50 90.0 0 0 578.52 187.09
  L 512.47 187.04
  L 512.91 123.95
  A 0.58 0.58 0.0 0 0 512.33 123.37
  L 197.05 123.37
  A 0.41 0.41 0.0 0 0 196.64 123.78
  L 196.64 152.41
  A 0.75 0.74 0.0 0 1 195.89 153.15
  L 157.78 153.15
  A 0.93 0.93 0.0 0 1 156.85 152.22
  L 156.85 84.62
  A 0.73 0.72 -89.6 0 1 157.58 83.89
  L 534.04 84.13
  Z"
/>
<path fill="#e3eeff" d="
  M 619.24 683.95
  L 619.25 168.16
  A 2.52 2.45 36.1 0 0 619.11 167.34
  L 618.72 166.26
  Q 620.03 166.49 620.03 167.99
  Q 620.00 425.11 620.03 682.22
  Q 620.03 683.38 619.24 683.95
  Z"
/>
<path fill="#e3eeff" d="
  M 456.54 177.06
  L 454.55 175.96
  A 0.74 0.69 -28.6 0 0 454.20 175.87
  L 79.39 175.87
  A 0.75 0.75 0.0 0 0 78.64 176.60
  C 78.57 178.45 78.85 180.59 78.85 182.13
  Q 78.92 634.85 78.84 774.00
  Q 78.84 775.27 79.25 776.00
  L 78.03 776.00
  L 78.06 175.88
  A 0.88 0.88 0.0 0 1 78.94 175.00
  L 453.82 175.00
  A 1.29 1.28 66.1 0 1 454.69 175.34
  L 456.54 177.06
  Z"
/>
<path fill="#0c47a1" d="
  M 456.54 177.06
  L 540.65 258.35
  A 1.19 1.18 22.2 0 1 541.01 259.20
  L 541.00 776.00
  L 79.25 776.00
  Q 78.84 775.27 78.84 774.00
  Q 78.92 634.85 78.85 182.13
  C 78.85 180.59 78.57 178.45 78.64 176.60
  A 0.75 0.75 0.0 0 1 79.39 175.87
  L 454.20 175.87
  A 0.74 0.69 -28.6 0 1 454.55 175.96
  L 456.54 177.06
  Z
  M 434.00 216.00
  L 119.34 216.00
  A 0.34 0.34 0.0 0 0 119.00 216.34
  L 119.00 735.55
  A 0.45 0.45 0.0 0 0 119.45 736.00
  L 500.14 736.00
  A 0.86 0.86 0.0 0 0 501.00 735.14
  L 501.00 279.83
  A 0.88 0.88 0.0 0 0 500.12 278.95
  L 434.85 278.97
  L 434.84 216.24
  A 0.58 0.57 2.8 0 0 434.31 215.67
  Q 433.83 215.64 434.00 216.00
  Z"
/>
<path fill="#e3eeff" d="
  M 434.85 278.97
  Q 434.81 279.09 434.41 279.07
  A 0.41 0.41 0.0 0 1 434.02 278.66
  L 434.00 216.00
  Q 433.83 215.64 434.31 215.67
  A 0.58 0.57 2.8 0 1 434.84 216.24
  L 434.85 278.97
  Z"
/>
<path fill="#0c47a1" d="
  M 184.75 372.39
  C 180.66 372.35 177.36 371.01 174.68 367.71
  Q 169.24 361.01 171.04 351.97
  C 171.74 348.47 175.07 342.79 179.09 342.13
  C 181.99 341.66 184.80 341.07 187.47 341.01
  Q 219.97 340.31 228.50 340.33
  Q 340.51 340.64 439.45 340.80
  A 0.74 0.68 58.4 0 1 439.81 340.90
  Q 447.75 345.43 448.91 353.28
  Q 450.79 365.96 439.66 371.99
  A 1.96 1.90 -58.2 0 1 438.75 372.22
  C 368.22 372.46 270.45 373.11 184.75 372.39
  Z"
/>
<path fill="#0c47a1" d="
  M 438.91 448.19
  Q 320.21 448.29 188.91 448.08
  C 185.89 448.08 181.36 447.57 178.88 447.01
  A 2.46 2.41 68.8 0 1 177.93 446.58
  C 172.29 442.50 168.61 435.19 170.62 428.28
  C 171.62 424.84 175.10 418.65 179.07 418.10
  C 182.32 417.66 184.78 417.07 187.75 417.00
  Q 219.68 416.29 233.78 416.33
  Q 341.04 416.65 439.12 416.80
  A 0.48 0.46 57.4 0 1 439.33 416.85
  Q 450.92 422.88 448.88 436.01
  Q 447.71 443.48 439.82 447.95
  A 1.86 1.81 29.5 0 1 438.91 448.19
  Z"
/>
<path fill="#e3eeff" d="
  M 374.92 486.50
  Q 364.46 486.80 354.00 486.84
  Q 299.12 487.07 244.25 486.76
  Q 237.54 486.72 230.83 486.49
  L 374.92 486.50
  Z"
/>
<path fill="#0c47a1" d="
  M 230.83 486.49
  Q 237.54 486.72 244.25 486.76
  Q 299.12 487.07 354.00 486.84
  Q 364.46 486.80 374.92 486.50
  L 435.98 487.05
  A 3.77 3.62 51.9 0 1 436.83 487.17
  Q 446.11 489.76 448.53 497.54
  C 451.02 505.55 448.04 513.77 440.45 517.56
  Q 437.73 518.93 431.28 519.07
  Q 411.71 519.52 392.15 519.46
  Q 348.05 518.77 303.96 519.48
  L 182.39 519.25
  A 1.96 1.92 56.2 0 1 181.62 519.09
  Q 177.60 517.33 175.70 515.42
  Q 167.12 506.73 172.19 495.59
  Q 174.37 490.79 179.07 488.43
  Q 181.88 487.02 188.22 486.92
  Q 209.52 486.61 230.83 486.49
  Z"
/>
<path fill="#e3eeff" d="
  M 392.15 519.46
  L 303.96 519.48
  Q 348.05 518.77 392.15 519.46
  Z"
/>
<path fill="#0c47a1" d="
  M 441.18 564.05
  C 444.38 566.75 447.57 570.33 448.67 574.47
  Q 450.50 581.42 447.54 586.85
  Q 444.52 592.36 439.39 594.44
  A 4.50 4.40 -56.5 0 1 437.90 594.76
  Q 433.38 594.95 430.53 594.97
  Q 363.05 595.33 193.00 595.10
  Q 184.36 595.09 179.32 593.77
  Q 176.82 593.12 174.70 590.17
  Q 172.60 587.27 171.51 584.87
  Q 168.16 577.54 173.48 569.50
  C 176.78 564.52 179.63 563.99 185.82 563.82
  Q 208.08 563.24 231.75 563.28
  Q 277.07 563.35 440.53 563.81
  A 1.09 1.05 -23.7 0 1 441.18 564.05
  Z"
/>
<path fill="#0c47a1" d="
  M 177.08 635.17
  A 4.82 4.79 35.7 0 1 178.58 634.93
  Q 298.53 634.23 425.50 634.99
  Q 428.94 635.01 435.58 636.02
  A 2.53 2.48 66.6 0 1 436.66 636.46
  Q 443.96 641.69 444.87 651.19
  A 3.54 3.41 48.6 0 1 444.83 652.10
  C 443.76 657.80 440.60 664.00 434.78 665.77
  A 5.82 5.52 -56.0 0 1 433.97 665.95
  Q 433.17 666.08 424.02 666.29
  Q 401.94 666.78 357.25 666.71
  Q 288.57 666.60 182.46 666.03
  C 179.67 666.02 175.58 665.50 173.28 665.02
  A 2.11 2.05 -21.5 0 1 172.63 664.75
  Q 165.78 660.39 165.77 651.08
  Q 165.76 638.76 177.08 635.17
  Z"
/>
<path fill="#e3eeff" d="
  M 561.28 644.06
  L 561.48 683.70
  Q 561.26 683.94 561.06 683.74
  A 0.14 0.13 25.7 0 1 561.01 683.62
  L 561.28 644.06
  Z"
/>
</svg>