<?xml version="1.0" encoding="UTF-8" standalone="no"?>
<!DOCTYPE svg PUBLIC "-//W3C//DTD SVG 1.1//EN" "http://www.w3.org/Graphics/SVG/1.1/DTD/svg11.dtd">
<svg xmlns="http://www.w3.org/2000/svg" version="1.1" viewBox="0.00 0.00 180.00 180.00" width="128" height="128">
<g stroke-width="2.00" fill="none" stroke-linecap="butt">
<path stroke="#1aa5ff" vector-effect="non-scaling-stroke" d="
  M 111.16 0.42
  L 110.86 1.12
  A 2.23 2.23 0.0 0 0 110.67 2.02
  Q 110.66 20.77 110.74 39.50
  Q 110.78 48.59 118.46 52.86"
/>
<path stroke="#0589e9" vector-effect="non-scaling-stroke" d="
  M 118.46 52.86
  L 131.18 64.56"
/>
<path stroke="#0694f9" vector-effect="non-scaling-stroke" d="
  M 131.18 64.56
  L 151.29 82.66
  A 1.42 1.36 65.6 0 0 152.19 83.02
  C 157.09 83.17 160.08 77.54 164.63 78.46"
/>
<path stroke="#0694f9" vector-effect="non-scaling-stroke" d="
  M 119.91 179.82
  Q 125.42 176.70 131.53 175.93
  A 0.35 0.35 0.0 0 0 131.77 175.38
  C 125.07 165.85 115.73 156.84 108.60 148.90
  Q 107.01 147.14 104.12 145.29"
/>
<path stroke="#62c2ff" vector-effect="non-scaling-stroke" d="
  M 104.12 145.29
  Q 103.54 142.94 100.74 141.03"
/>
<path stroke="#50b4fc" vector-effect="non-scaling-stroke" d="
  M 100.74 141.03
  Q 73.94 141.07 47.00 141.27
  Q 41.75 141.31 41.42 146.26
  Q 41.23 149.17 44.60 151.67"
/>
<path stroke="#0694f9" vector-effect="non-scaling-stroke" d="
  M 44.60 151.67
  Q 58.60 167.75 65.29 174.93
  Q 67.94 177.78 67.82 179.83"
/>
<path stroke="#62c2ff" vector-effect="non-scaling-stroke" d="
  M 100.66 64.04
  Q 104.84 62.27 104.79 58.75
  Q 104.74 55.30 102.23 53.98
  Q 100.79 53.22 96.64 53.21
  Q 89.38 53.20 80.74 53.36"
/>
<path stroke="#50b4fc" vector-effect="non-scaling-stroke" d="
  M 80.74 53.36
  Q 65.34 53.12 48.16 53.23
  C 44.96 53.25 42.24 54.09 41.62 57.33
  Q 40.71 62.10 45.48 63.80
  A 2.68 2.65 -34.7 0 0 46.39 63.96
  L 100.66 64.04"
/>
<path stroke="#b2dbfc" vector-effect="non-scaling-stroke" d="
  M 80.74 53.36
  Q 89.01 57.93 95.02 62.75
  Q 96.40 63.86 100.66 64.04"
/>
<path stroke="#62c2ff" vector-effect="non-scaling-stroke" d="
  M 113.96 93.09
  Q 121.49 93.01 129.02 93.03
  Q 132.83 93.04 134.25 92.14
  C 137.56 90.04 137.18 84.70 133.82 82.94
  Q 132.63 82.31 128.48 82.32
  Q 119.14 82.34 109.24 82.32"
/>
<path stroke="#50b4fc" vector-effect="non-scaling-stroke" d="
  M 109.24 82.32
  Q 92.51 82.30 75.10 82.33
  Q 71.85 82.33 70.49 83.20
  C 67.36 85.22 67.50 90.20 70.48 92.15
  Q 71.85 93.04 75.82 93.03
  Q 94.89 92.97 113.96 93.09"
/>
<path stroke="#b2dbfc" vector-effect="non-scaling-stroke" d="
  M 109.24 82.32
  Q 110.61 86.95 111.92 91.54
  Q 112.33 92.96 113.96 93.09"
/>
<path stroke="#80bcaf" vector-effect="non-scaling-stroke" d="
  M 55.9694 87.3474
  A 4.78 4.78 0.0 0 0 51.1810 82.5757
  L 46.2810 82.5843
  A 4.78 4.78 0.0 0 0 41.5094 87.3726
  L 41.5106 88.0926
  A 4.78 4.78 0.0 0 0 46.2990 92.8643
  L 51.1990 92.8557
  A 4.78 4.78 0.0 0 0 55.9706 88.0674
  L 55.9694 87.3474"
/>
<path stroke="#62c2ff" vector-effect="non-scaling-stroke" d="
  M 109.17 122.54
  L 131.86 122.49
  A 2.43 2.37 35.5 0 0 132.58 122.38
  Q 136.24 121.19 136.44 117.99
  Q 136.82 111.99 130.75 111.95
  Q 123.10 111.90 115.48 111.85"
/>
<path stroke="#50b4fc" vector-effect="non-scaling-stroke" d="
  M 115.48 111.85
  Q 81.61 111.78 47.77 111.87
  C 44.98 111.88 42.91 112.53 41.88 115.03
  C 40.59 118.18 42.15 121.21 45.38 122.39
  Q 45.69 122.50 49.75 122.52
  Q 79.61 122.61 109.17 122.54"
/>
<path stroke="#b2dbfc" vector-effect="non-scaling-stroke" d="
  M 115.48 111.85
  Q 113.74 111.90 112.61 112.44
  A 1.30 1.28 85.4 0 0 111.93 113.25
  L 109.17 122.54"
/>
<path stroke="#0694f9" vector-effect="non-scaling-stroke" d="
  M 119.13 151.16
  L 133.69 167.02
  A 0.95 0.95 0.0 0 0 134.60 167.31
  L 151.78 163.44
  A 0.35 0.35 0.0 0 0 151.97 162.87
  L 136.56 145.31"
/>
<path stroke="#80bcaf" vector-effect="non-scaling-stroke" d="
  M 136.56 145.31
  Q 135.15 140.94 131.50 140.91
  Q 128.92 140.90 123.08 140.90
  C 119.44 140.91 116.71 142.14 116.26 145.74
  Q 115.89 148.71 119.13 151.16"
/>
<path stroke="#86b5a8" vector-effect="non-scaling-stroke" d="
  M 136.56 145.31
  Q 136.52 150.86 132.00 151.53
  Q 127.71 152.17 119.13 151.16"
/>
<path stroke="#209ef9" vector-effect="non-scaling-stroke" d="
  M 164.64 53.93
  L 140.45 54.08"
/>
<path stroke="#1f93e9" vector-effect="non-scaling-stroke" d="
  M 140.45 54.08
  Q 128.70 54.19 124.00 54.05
  Q 122.00 53.99 118.46 52.86"
/>
<path stroke="#0b82e2" vector-effect="non-scaling-stroke" d="
  M 140.45 54.08
  L 145.37 54.34
  A 0.19 0.19 0.0 0 1 145.47 54.68
  L 131.18 64.56"
/>
<path stroke="#b2dbfc" vector-effect="non-scaling-stroke" d="
  M 100.74 141.03
  Q 98.86 141.73 96.55 141.63
  A 1.65 1.64 29.8 0 0 95.61 141.88
  L 80.41 151.63"
/>
<path stroke="#56adf6" vector-effect="non-scaling-stroke" d="
  M 80.41 151.63
  L 44.60 151.67"
/>
<path stroke="#68baf9" vector-effect="non-scaling-stroke" d="
  M 104.12 145.29
  Q 104.63 150.08 100.38 151.51
  A 2.71 2.29 -49.7 0 1 99.72 151.62
  L 80.41 151.63"
/>
</g>
<path fill="#009bff" d="
  M 110.74 0.00
  L 111.16 0.42
  L 110.86 1.12
  A 2.23 2.23 0.0 0 0 110.67 2.02
  Q 110.66 20.77 110.74 39.50
  Q 110.78 48.59 118.46 52.86
  L 131.18 64.56
  L 151.29 82.66
  A 1.42 1.36 65.6 0 0 152.19 83.02
  C 157.09 83.17 160.08 77.54 164.63 78.46
  Q 164.61 119.46 164.64 160.44
  Q 164.65 169.95 163.25 172.32
  Q 160.96 176.22 156.91 178.51
  Q 154.64 179.79 148.33 179.83
  Q 134.17 179.91 119.91 179.82
  Q 125.42 176.70 131.53 175.93
  A 0.35 0.35 0.0 0 0 131.77 175.38
  C 125.07 165.85 115.73 156.84 108.60 148.90
  Q 107.01 147.14 104.12 145.29
  Q 103.54 142.94 100.74 141.03
  Q 73.94 141.07 47.00 141.27
  Q 41.75 141.31 41.42 146.26
  Q 41.23 149.17 44.60 151.67
  Q 58.60 167.75 65.29 174.93
  Q 67.94 177.78 67.82 179.83
  Q 50.62 179.87 33.92 179.86
  Q 25.32 179.86 22.86 178.52
  Q 18.29 176.03 16.09 171.17
  Q 15.04 168.83 15.11 161.23
  Q 15.20 151.62 15.12 18.05
  Q 15.12 10.81 16.62 7.66
  Q 19.42 1.81 26.76 0.00
  L 110.74 0.00
  Z
  M 100.66 64.04
  Q 104.84 62.27 104.79 58.75
  Q 104.74 55.30 102.23 53.98
  Q 100.79 53.22 96.64 53.21
  Q 89.38 53.20 80.74 53.36
  Q 65.34 53.12 48.16 53.23
  C 44.96 53.25 42.24 54.09 41.62 57.33
  Q 40.71 62.10 45.48 63.80
  A 2.68 2.65 -34.7 0 0 46.39 63.96
  L 100.66 64.04
  Z
  M 113.96 93.09
  Q 121.49 93.01 129.02 93.03
  Q 132.83 93.04 134.25 92.14
  C 137.56 90.04 137.18 84.70 133.82 82.94
  Q 132.63 82.31 128.48 82.32
  Q 119.14 82.34 109.24 82.32
  Q 92.51 82.30 75.10 82.33
  Q 71.85 82.33 70.49 83.20
  C 67.36 85.22 67.50 90.20 70.48 92.15
  Q 71.85 93.04 75.82 93.03
  Q 94.89 92.97 113.96 93.09
  Z
  M 55.9694 87.3474
  A 4.78 4.78 0.0 0 0 51.1810 82.5757
  L 46.2810 82.5843
  A 4.78 4.78 0.0 0 0 41.5094 87.3726
  L 41.5106 88.0926
  A 4.78 4.78 0.0 0 0 46.2990 92.8643
  L 51.1990 92.8557
  A 4.78 4.78 0.0 0 0 55.9706 88.0674
  L 55.9694 87.3474
  Z
  M 109.17 122.54
  L 131.86 122.49
  A 2.43 2.37 35.5 0 0 132.58 122.38
  Q 136.24 121.19 136.44 117.99
  Q 136.82 111.99 130.75 111.95
  Q 123.10 111.90 115.48 111.85
  Q 81.61 111.78 47.77 111.87
  C 44.98 111.88 42.91 112.53 41.88 115.03
  C 40.59 118.18 42.15 121.21 45.38 122.39
  Q 45.69 122.50 49.75 122.52
  Q 79.61 122.61 109.17 122.54
  Z
  M 119.13 151.16
  L 133.69 167.02
  A 0.95 0.95 0.0 0 0 134.60 167.31
  L 151.78 163.44
  A 0.35 0.35 0.0 0 0 151.97 162.87
  L 136.56 145.31
  Q 135.15 140.94 131.50 140.91
  Q 128.92 140.90 123.08 140.90
  C 119.44 140.91 116.71 142.14 116.26 145.74
  Q 115.89 148.71 119.13 151.16
  Z"
/>
<path fill="#33afff" d="
  M 164.64 53.93
  L 140.45 54.08
  Q 128.70 54.19 124.00 54.05
  Q 122.00 53.99 118.46 52.86
  Q 110.78 48.59 110.74 39.50
  Q 110.66 20.77 110.67 2.02
  A 2.23 2.23 0.0 0 1 110.86 1.12
  L 111.16 0.42
  L 164.64 53.93
  Z"
/>
<path fill="#0a77d2" d="
  M 140.45 54.08
  L 145.37 54.34
  A 0.19 0.19 0.0 0 1 145.47 54.68
  L 131.18 64.56
  L 118.46 52.86
  Q 122.00 53.99 124.00 54.05
  Q 128.70 54.19 140.45 54.08
  Z"
/>
<path fill="#9fcdf9" d="
  M 80.74 53.36
  Q 89.01 57.93 95.02 62.75
  Q 96.40 63.86 100.66 64.04
  L 46.39 63.96
  A 2.68 2.65 -34.7 0 1 45.48 63.80
  Q 40.71 62.10 41.62 57.33
  C 42.24 54.09 44.96 53.25 48.16 53.23
  Q 65.34 53.12 80.74 53.36
  Z"
/>
<path fill="#c4e8ff" d="
  M 100.66 64.04
  Q 96.40 63.86 95.02 62.75
  Q 89.01 57.93 80.74 53.36
  Q 89.38 53.20 96.64 53.21
  Q 100.79 53.22 102.23 53.98
  Q 104.74 55.30 104.79 58.75
  Q 104.84 62.27 100.66 64.04
  Z"
/>
<path fill="#0c8cf2" d="
  M 164.64 53.93
  L 164.63 78.46
  C 160.08 77.54 157.09 83.17 152.19 83.02
  A 1.42 1.36 65.6 0 1 151.29 82.66
  L 131.18 64.56
  L 145.47 54.68
  A 0.19 0.19 0.0 0 0 145.37 54.34
  L 140.45 54.08
  L 164.64 53.93
  Z"
/>
<path fill="#9fcdf9" d="
  M 109.24 82.32
  Q 110.61 86.95 111.92 91.54
  Q 112.33 92.96 113.96 93.09
  Q 94.89 92.97 75.82 93.03
  Q 71.85 93.04 70.48 92.15
  C 67.50 90.20 67.36 85.22 70.49 83.20
  Q 71.85 82.33 75.10 82.33
  Q 92.51 82.30 109.24 82.32
  Z"
/>
<path fill="#c4e8ff" d="
  M 113.96 93.09
  Q 112.33 92.96 111.92 91.54
  Q 110.61 86.95 109.24 82.32
  Q 119.14 82.34 128.48 82.32
  Q 132.63 82.31 133.82 82.94
  C 137.18 84.70 137.56 90.04 134.25 92.14
  Q 132.83 93.04 129.02 93.03
  Q 121.49 93.01 113.96 93.09
  Z"
/>
<rect fill="#ffdd5e" x="-7.23" y="-5.14" transform="translate(48.74,87.72) rotate(-0.1)" width="14.46" height="10.28" rx="4.78"/>
<path fill="#9fcdf9" d="
  M 115.48 111.85
  Q 113.74 111.90 112.61 112.44
  A 1.30 1.28 85.4 0 0 111.93 113.25
  L 109.17 122.54
  Q 79.61 122.61 49.75 122.52
  Q 45.69 122.50 45.38 122.39
  C 42.15 121.21 40.59 118.18 41.88 115.03
  C 42.91 112.53 44.98 111.88 47.77 111.87
  Q 81.61 111.78 115.48 111.85
  Z"
/>
<path fill="#c4e8ff" d="
  M 109.17 122.54
  L 111.93 113.25
  A 1.30 1.28 85.4 0 1 112.61 112.44
  Q 113.74 111.90 115.48 111.85
  Q 123.10 111.90 130.75 111.95
  Q 136.82 111.99 136.44 117.99
  Q 136.24 121.19 132.58 122.38
  A 2.43 2.37 35.5 0 1 131.86 122.49
  L 109.17 122.54
  Z"
/>
<path fill="#9fcdf9" d="
  M 100.74 141.03
  Q 98.86 141.73 96.55 141.63
  A 1.65 1.64 29.8 0 0 95.61 141.88
  L 80.41 151.63
  L 44.60 151.67
  Q 41.23 149.17 41.42 146.26
  Q 41.75 141.31 47.00 141.27
  Q 73.94 141.07 100.74 141.03
  Z"
/>
<path fill="#ffdd5e" d="
  M 136.56 145.31
  Q 136.52 150.86 132.00 151.53
  Q 127.71 152.17 119.13 151.16
  Q 115.89 148.71 116.26 145.74
  C 116.71 142.14 119.44 140.91 123.08 140.90
  Q 128.92 140.90 131.50 140.91
  Q 135.15 140.94 136.56 145.31
  Z"
/>
<path fill="#c4e8ff" d="
  M 100.74 141.03
  Q 103.54 142.94 104.12 145.29
  Q 104.63 150.08 100.38 151.51
  A 2.71 2.29 -49.7 0 1 99.72 151.62
  L 80.41 151.63
  L 95.61 141.88
  A 1.65 1.64 29.8 0 1 96.55 141.63
  Q 98.86 141.73 100.74 141.03
  Z"
/>
<path fill="#0c8cf2" d="
  M 119.91 179.82
  L 67.82 179.83
  Q 67.94 177.78 65.29 174.93
  Q 58.60 167.75 44.60 151.67
  L 80.41 151.63
  L 99.72 151.62
  A 2.71 2.29 -49.7 0 0 100.38 151.51
  Q 104.63 150.08 104.12 145.29
  Q 107.01 147.14 108.60 148.90
  C 115.73 156.84 125.07 165.85 131.77 175.38
  A 0.35 0.35 0.0 0 1 131.53 175.93
  Q 125.42 176.70 119.91 179.82
  Z"
/>
<path fill="#0c8cf2" d="
  M 119.13 151.16
  Q 127.71 152.17 132.00 151.53
  Q 136.52 150.86 136.56 145.31
  L 151.97 162.87
  A 0.35 0.35 0.0 0 1 151.78 163.44
  L 134.60 167.31
  A 0.95 0.95 0.0 0 1 133.69 167.02
  L 119.13 151.16
  Z"
/>
</svg>