<?xml version="1.0" encoding="UTF-8" standalone="no"?>
<!DOCTYPE svg PUBLIC "-//W3C//DTD SVG 1.1//EN" "http://www.w3.org/Graphics/SVG/1.1/DTD/svg11.dtd">
<svg xmlns="http://www.w3.org/2000/svg" version="1.1" viewBox="0.00 0.00 180.00 180.00" width="128" height="128">
<g stroke-width="2.00" fill="none" stroke-linecap="butt">
<path stroke="#808080" vector-effect="non-scaling-stroke" d="
  M 69.99 41.68
  Q 69.80 41.76 69.73 41.76
  C 62.68 41.63 52.14 41.59 46.87 46.86
  C 41.60 52.13 41.63 62.67 41.76 69.72
  Q 41.76 69.78 41.68 69.98
  Q 41.60 70.18 41.55 70.22
  C 36.47 75.12 29.00 82.54 29.00 89.99
  C 29.00 97.45 36.47 104.87 41.55 109.77
  Q 41.60 109.81 41.68 110.01
  Q 41.76 110.20 41.76 110.27
  C 41.63 117.32 41.59 127.86 46.86 133.13
  C 52.13 138.40 62.66 138.37 69.72 138.24
  Q 69.78 138.24 69.98 138.32
  Q 70.17 138.40 70.22 138.45
  C 75.12 143.53 82.54 151.00 89.99 151.00
  C 97.45 151.00 104.87 143.53 109.77 138.45
  Q 109.81 138.40 110.01 138.32
  Q 110.20 138.24 110.27 138.24
  C 117.32 138.37 127.86 138.41 133.13 133.14
  C 138.40 127.87 138.37 117.34 138.24 110.29
  Q 138.24 110.22 138.32 110.02
  Q 138.40 109.83 138.45 109.78
  C 143.53 104.89 151.00 97.47 151.00 90.01
  C 151.00 82.55 143.53 75.13 138.45 70.23
  Q 138.40 70.19 138.32 69.99
  Q 138.24 69.80 138.24 69.73
  C 138.37 62.68 138.41 52.15 133.14 46.87
  C 127.87 41.60 117.34 41.63 110.28 41.76
  Q 110.22 41.76 110.02 41.68
  Q 109.83 41.60 109.78 41.55
  C 104.88 36.48 97.46 29.00 90.01 29.00
  C 82.55 29.00 75.13 36.47 70.23 41.55
  Q 70.19 41.60 69.99 41.68"
/>
<path stroke="#808080" vector-effect="non-scaling-stroke" d="
  M 72.51 47.75
  Q 70.96 48.39 69.76 48.35
  C 65.20 48.22 54.95 48.08 51.52 51.51
  C 48.09 54.94 48.23 65.19 48.36 69.75
  Q 48.39 70.95 47.75 72.49
  Q 47.11 74.04 46.24 74.87
  C 42.92 78.00 35.58 85.15 35.58 90.00
  C 35.57 94.84 42.92 101.99 46.24 105.13
  Q 47.11 105.95 47.75 107.50
  Q 48.39 109.04 48.36 110.24
  C 48.23 114.81 48.09 125.06 51.51 128.48
  C 54.94 131.91 65.19 131.77 69.75 131.64
  Q 70.95 131.61 72.50 132.25
  Q 74.04 132.89 74.87 133.76
  C 78.00 137.08 85.15 144.43 90.00 144.43
  C 94.85 144.43 102.00 137.08 105.13 133.77
  Q 105.95 132.89 107.50 132.25
  Q 109.05 131.61 110.25 131.65
  C 114.81 131.78 125.06 131.92 128.49 128.49
  C 131.91 125.06 131.78 114.81 131.65 110.25
  Q 131.61 109.05 132.26 107.50
  Q 132.90 105.96 133.77 105.13
  C 137.08 102.00 144.43 94.85 144.43 90.00
  C 144.43 85.16 137.09 78.01 133.77 74.87
  Q 132.90 74.05 132.26 72.50
  Q 131.62 70.95 131.65 69.75
  C 131.78 65.19 131.92 54.94 128.49 51.52
  C 125.07 48.09 114.82 48.23 110.26 48.36
  Q 109.06 48.39 107.51 47.75
  Q 105.96 47.11 105.14 46.23
  C 102.00 42.92 94.85 35.57 90.01 35.57
  C 85.16 35.57 78.01 42.92 74.88 46.23
  Q 74.05 47.10 72.51 47.75"
/>
<path stroke="#808080" vector-effect="non-scaling-stroke" d="
  M 77.24 59.02
  Q 76.87 59.17 76.79 59.17
  C 72.39 59.02 65.85 59.06 62.50 62.40
  C 59.16 65.74 59.11 72.29 59.26 76.69
  Q 59.26 76.76 59.11 77.14
  Q 58.95 77.51 58.90 77.56
  C 55.68 80.57 51.08 85.22 51.08 89.95
  C 51.08 94.68 55.67 99.34 58.89 102.34
  Q 58.95 102.40 59.10 102.77
  Q 59.25 103.14 59.25 103.22
  C 59.10 107.62 59.15 114.16 62.49 117.50
  C 65.83 120.85 72.37 120.90 76.77 120.75
  Q 76.85 120.74 77.22 120.90
  Q 77.59 121.05 77.64 121.11
  C 80.65 124.33 85.31 128.92 90.03 128.92
  C 94.76 128.93 99.42 124.33 102.43 121.12
  Q 102.48 121.06 102.85 120.91
  Q 103.22 120.75 103.30 120.75
  C 107.70 120.91 114.24 120.86 117.59 117.52
  C 120.93 114.18 120.98 107.64 120.83 103.24
  Q 120.83 103.16 120.98 102.79
  Q 121.14 102.42 121.19 102.36
  C 124.41 99.36 129.01 94.70 129.01 89.97
  C 129.01 85.25 124.42 80.59 121.20 77.58
  Q 121.14 77.53 120.99 77.16
  Q 120.84 76.78 120.84 76.71
  C 120.99 72.31 120.94 65.76 117.60 62.42
  C 114.26 59.08 107.72 59.03 103.32 59.18
  Q 103.24 59.18 102.87 59.03
  Q 102.50 58.87 102.45 58.81
  C 99.44 55.60 94.78 51.00 90.06 51.00
  C 85.33 51.00 80.67 55.59 77.66 58.81
  Q 77.61 58.86 77.24 59.02"
/>
<path stroke="#808080" vector-effect="non-scaling-stroke" d="
  M 79.82 65.30
  Q 78.98 65.65 78.45 65.67
  Q 73.84 65.83 69.26 66.19
  Q 67.86 66.30 67.11 67.04
  Q 66.37 67.79 66.26 69.19
  Q 65.90 73.77 65.74 78.38
  Q 65.73 78.91 65.38 79.75
  Q 65.03 80.60 64.67 80.98
  Q 61.52 84.36 58.54 87.85
  Q 57.62 88.92 57.62 89.97
  Q 57.62 91.02 58.54 92.09
  Q 61.52 95.58 64.67 98.96
  Q 65.03 99.34 65.38 100.18
  Q 65.73 101.03 65.75 101.56
  Q 65.91 106.17 66.27 110.74
  Q 66.38 112.15 67.12 112.89
  Q 67.86 113.63 69.27 113.74
  Q 73.85 114.10 78.46 114.26
  Q 78.99 114.28 79.83 114.63
  Q 80.67 114.98 81.06 115.34
  Q 84.43 118.49 87.93 121.47
  Q 89.00 122.38 90.05 122.38
  Q 91.10 122.38 92.17 121.47
  Q 95.66 118.48 99.03 115.34
  Q 99.42 114.98 100.26 114.63
  Q 101.11 114.28 101.63 114.26
  Q 106.24 114.10 110.82 113.74
  Q 112.23 113.63 112.97 112.88
  Q 113.71 112.14 113.82 110.74
  Q 114.18 106.16 114.34 101.55
  Q 114.36 101.02 114.71 100.18
  Q 115.06 99.33 115.42 98.95
  Q 118.56 95.57 121.55 92.08
  Q 122.46 91.01 122.46 89.96
  Q 122.46 88.91 121.54 87.84
  Q 118.56 84.35 115.41 80.97
  Q 115.05 80.59 114.70 79.74
  Q 114.35 78.90 114.34 78.37
  Q 114.18 73.76 113.81 69.19
  Q 113.70 67.78 112.96 67.04
  Q 112.22 66.30 110.81 66.18
  Q 106.24 65.82 101.62 65.67
  Q 101.10 65.65 100.25 65.30
  Q 99.41 64.95 99.02 64.59
  Q 95.65 61.44 92.16 58.46
  Q 91.08 57.55 90.04 57.55
  Q 88.99 57.55 87.91 58.46
  Q 84.42 61.44 81.05 64.59
  Q 80.67 64.95 79.82 65.30"
/>
</g>
<path fill="#ffffff" d="
  M 180.00 0.00
  L 180.00 180.00
  L 0.00 180.00
  L 0.00 0.00
  L 180.00 0.00
  Z
  M 69.99 41.68
  Q 69.80 41.76 69.73 41.76
  C 62.68 41.63 52.14 41.59 46.87 46.86
  C 41.60 52.13 41.63 62.67 41.76 69.72
  Q 41.76 69.78 41.68 69.98
  Q 41.60 70.18 41.55 70.22
  C 36.47 75.12 29.00 82.54 29.00 89.99
  C 29.00 97.45 36.47 104.87 41.55 109.77
  Q 41.60 109.81 41.68 110.01
  Q 41.76 110.20 41.76 110.27
  C 41.63 117.32 41.59 127.86 46.86 133.13
  C 52.13 138.40 62.66 138.37 69.72 138.24
  Q 69.78 138.24 69.98 138.32
  Q 70.17 138.40 70.22 138.45
  C 75.12 143.53 82.54 151.00 89.99 151.00
  C 97.45 151.00 104.87 143.53 109.77 138.45
  Q 109.81 138.40 110.01 138.32
  Q 110.20 138.24 110.27 138.24
  C 117.32 138.37 127.86 138.41 133.13 133.14
  C 138.40 127.87 138.37 117.34 138.24 110.29
  Q 138.24 110.22 138.32 110.02
  Q 138.40 109.83 138.45 109.78
  C 143.53 104.89 151.00 97.47 151.00 90.01
  C 151.00 82.55 143.53 75.13 138.45 70.23
  Q 138.40 70.19 138.32 69.99
  Q 138.24 69.80 138.24 69.73
  C 138.37 62.68 138.41 52.15 133.14 46.87
  C 127.87 41.60 117.34 41.63 110.28 41.76
  Q 110.22 41.76 110.02 41.68
  Q 109.83 41.60 109.78 41.55
  C 104.88 36.48 97.46 29.00 90.01 29.00
  C 82.55 29.00 75.13 36.47 70.23 41.55
  Q 70.19 41.60 69.99 41.68
  Z"
/>
<path fill="#000000" d="
  M 90.01 29.00
  C 97.46 29.00 104.88 36.48 109.78 41.55
  Q 109.83 41.60 110.02 41.68
  Q 110.22 41.76 110.28 41.76
  C 117.34 41.63 127.87 41.60 133.14 46.87
  C 138.41 52.15 138.37 62.68 138.24 69.73
  Q 138.24 69.80 138.32 69.99
  Q 138.40 70.19 138.45 70.23
  C 143.53 75.13 151.00 82.55 151.00 90.01
  C 151.00 97.47 143.53 104.89 138.45 109.78
  Q 138.40 109.83 138.32 110.02
  Q 138.24 110.22 138.24 110.29
  C 138.37 117.34 138.40 127.87 133.13 133.14
  C 127.86 138.41 117.32 138.37 110.27 138.24
  Q 110.20 138.24 110.01 138.32
  Q 109.81 138.40 109.77 138.45
  C 104.87 143.53 97.45 151.00 89.99 151.00
  C 82.54 151.00 75.12 143.53 70.22 138.45
  Q 70.17 138.40 69.98 138.32
  Q 69.78 138.24 69.72 138.24
  C 62.66 138.37 52.13 138.40 46.86 133.13
  C 41.59 127.86 41.63 117.32 41.76 110.27
  Q 41.76 110.20 41.68 110.01
  Q 41.60 109.81 41.55 109.77
  C 36.47 104.87 29.00 97.45 29.00 89.99
  C 29.00 82.54 36.47 75.12 41.55 70.22
  Q 41.60 70.18 41.68 69.98
  Q 41.76 69.78 41.76 69.72
  C 41.63 62.67 41.60 52.13 46.87 46.86
  C 52.14 41.59 62.68 41.63 69.73 41.76
  Q 69.80 41.76 69.99 41.68
  Q 70.19 41.60 70.23 41.55
  C 75.13 36.47 82.55 29.00 90.01 29.00
  Z
  M 72.51 47.75
  Q 70.96 48.39 69.76 48.35
  C 65.20 48.22 54.95 48.08 51.52 51.51
  C 48.09 54.94 48.23 65.19 48.36 69.75
  Q 48.39 70.95 47.75 72.49
  Q 47.11 74.04 46.24 74.87
  C 42.92 78.00 35.58 85.15 35.58 90.00
  C 35.57 94.84 42.92 101.99 46.24 105.13
  Q 47.11 105.95 47.75 107.50
  Q 48.39 109.04 48.36 110.24
  C 48.23 114.81 48.09 125.06 51.51 128.48
  C 54.94 131.91 65.19 131.77 69.75 131.64
  Q 70.95 131.61 72.50 132.25
  Q 74.04 132.89 74.87 133.76
  C 78.00 137.08 85.15 144.43 90.00 144.43
  C 94.85 144.43 102.00 137.08 105.13 133.77
  Q 105.95 132.89 107.50 132.25
  Q 109.05 131.61 110.25 131.65
  C 114.81 131.78 125.06 131.92 128.49 128.49
  C 131.91 125.06 131.78 114.81 131.65 110.25
  Q 131.61 109.05 132.26 107.50
  Q 132.90 105.96 133.77 105.13
  C 137.08 102.00 144.43 94.85 144.43 90.00
  C 144.43 85.16 137.09 78.01 133.77 74.87
  Q 132.90 74.05 132.26 72.50
  Q 131.62 70.95 131.65 69.75
  C 131.78 65.19 131.92 54.94 128.49 51.52
  C 125.07 48.09 114.82 48.23 110.26 48.36
  Q 109.06 48.39 107.51 47.75
  Q 105.96 47.11 105.14 46.23
  C 102.00 42.92 94.85 35.57 90.01 35.57
  C 85.16 35.57 78.01 42.92 74.88 46.23
  Q 74.05 47.10 72.51 47.75
  Z"
/>
<path fill="#ffffff" d="
  M 90.01 35.57
  C 94.85 35.57 102.00 42.92 105.14 46.23
  Q 105.96 47.11 107.51 47.75
  Q 109.06 48.39 110.26 48.36
  C 114.82 48.23 125.07 48.09 128.49 51.52
  C 131.92 54.94 131.78 65.19 131.65 69.75
  Q 131.62 70.95 132.26 72.50
  Q 132.90 74.05 133.77 74.87
  C 137.09 78.01 144.43 85.16 144.43 90.00
  C 144.43 94.85 137.08 102.00 133.77 105.13
  Q 132.90 105.96 132.26 107.50
  Q 131.61 109.05 131.65 110.25
  C 131.78 114.81 131.91 125.06 128.49 128.49
  C 125.06 131.92 114.81 131.78 110.25 131.65
  Q 109.05 131.61 107.50 132.25
  Q 105.95 132.89 105.13 133.77
  C 102.00 137.08 94.85 144.43 90.00 144.43
  C 85.15 144.43 78.00 137.08 74.87 133.76
  Q 74.04 132.89 72.50 132.25
  Q 70.95 131.61 69.75 131.64
  C 65.19 131.77 54.94 131.91 51.51 128.48
  C 48.09 125.06 48.23 114.81 48.36 110.24
  Q 48.39 109.04 47.75 107.50
  Q 47.11 105.95 46.24 105.13
  C 42.92 101.99 35.57 94.84 35.58 90.00
  C 35.58 85.15 42.92 78.00 46.24 74.87
  Q 47.11 74.04 47.75 72.49
  Q 48.39 70.95 48.36 69.75
  C 48.23 65.19 48.09 54.94 51.52 51.51
  C 54.95 48.08 65.20 48.22 69.76 48.35
  Q 70.96 48.39 72.51 47.75
  Q 74.05 47.10 74.88 46.23
  C 78.01 42.92 85.16 35.57 90.01 35.57
  Z
  M 77.24 59.02
  Q 76.87 59.17 76.79 59.17
  C 72.39 59.02 65.85 59.06 62.50 62.40
  C 59.16 65.74 59.11 72.29 59.26 76.69
  Q 59.26 76.76 59.11 77.14
  Q 58.95 77.51 58.90 77.56
  C 55.68 80.57 51.08 85.22 51.08 89.95
  C 51.08 94.68 55.67 99.34 58.89 102.34
  Q 58.95 102.40 59.10 102.77
  Q 59.25 103.14 59.25 103.22
  C 59.10 107.62 59.15 114.16 62.49 117.50
  C 65.83 120.85 72.37 120.90 76.77 120.75
  Q 76.85 120.74 77.22 120.90
  Q 77.59 121.05 77.64 121.11
  C 80.65 124.33 85.31 128.92 90.03 128.92
  C 94.76 128.93 99.42 124.33 102.43 121.12
  Q 102.48 121.06 102.85 120.91
  Q 103.22 120.75 103.30 120.75
  C 107.70 120.91 114.24 120.86 117.59 117.52
  C 120.93 114.18 120.98 107.64 120.83 103.24
  Q 120.83 103.16 120.98 102.79
  Q 121.14 102.42 121.19 102.36
  C 124.41 99.36 129.01 94.70 129.01 89.97
  C 129.01 85.25 124.42 80.59 121.20 77.58
  Q 121.14 77.53 120.99 77.16
  Q 120.84 76.78 120.84 76.71
  C 120.99 72.31 120.94 65.76 117.60 62.42
  C 114.26 59.08 107.72 59.03 103.32 59.18
  Q 103.24 59.18 102.87 59.03
  Q 102.50 58.87 102.45 58.81
  C 99.44 55.60 94.78 51.00 90.06 51.00
  C 85.33 51.00 80.67 55.59 77.66 58.81
  Q 77.61 58.86 77.24 59.02
  Z"
/>
<path fill="#000000" d="
  M 90.06 51.00
  C 94.78 51.00 99.44 55.60 102.45 58.81
  Q 102.50 58.87 102.87 59.03
  Q 103.24 59.18 103.32 59.18
  C 107.72 59.03 114.26 59.08 117.60 62.42
  C 120.94 65.76 120.99 72.31 120.84 76.71
  Q 120.84 76.78 120.99 77.16
  Q 121.14 77.53 121.20 77.58
  C 124.42 80.59 129.01 85.25 129.01 89.97
  C 129.01 94.70 124.41 99.36 121.19 102.36
  Q 121.14 102.42 120.98 102.79
  Q 120.83 103.16 120.83 103.24
  C 120.98 107.64 120.93 114.18 117.59 117.52
  C 114.24 120.86 107.70 120.91 103.30 120.75
  Q 103.22 120.75 102.85 120.91
  Q 102.48 121.06 102.43 121.12
  C 99.42 124.33 94.76 128.93 90.03 128.92
  C 85.31 128.92 80.65 124.33 77.64 121.11
  Q 77.59 121.05 77.22 120.90
  Q 76.85 120.74 76.77 120.75
  C 72.37 120.90 65.83 120.85 62.49 117.50
  C 59.15 114.16 59.10 107.62 59.25 103.22
  Q 59.25 103.14 59.10 102.77
  Q 58.95 102.40 58.89 102.34
  C 55.67 99.34 51.08 94.68 51.08 89.95
  C 51.08 85.22 55.68 80.57 58.90 77.56
  Q 58.95 77.51 59.11 77.14
  Q 59.26 76.76 59.26 76.69
  C 59.11 72.29 59.16 65.74 62.50 62.40
  C 65.85 59.06 72.39 59.02 76.79 59.17
  Q 76.87 59.17 77.24 59.02
  Q 77.61 58.86 77.66 58.81
  C 80.67 55.59 85.33 51.00 90.06 51.00
  Z
  M 79.82 65.30
  Q 78.98 65.65 78.45 65.67
  Q 73.84 65.83 69.26 66.19
  Q 67.86 66.30 67.11 67.04
  Q 66.37 67.79 66.26 69.19
  Q 65.90 73.77 65.74 78.38
  Q 65.73 78.91 65.38 79.75
  Q 65.03 80.60 64.67 80.98
  Q 61.52 84.36 58.54 87.85
  Q 57.62 88.92 57.62 89.97
  Q 57.62 91.02 58.54 92.09
  Q 61.52 95.58 64.67 98.96
  Q 65.03 99.34 65.38 100.18
  Q 65.73 101.03 65.75 101.56
  Q 65.91 106.17 66.27 110.74
  Q 66.38 112.15 67.12 112.89
  Q 67.86 113.63 69.27 113.74
  Q 73.85 114.10 78.46 114.26
  Q 78.99 114.28 79.83 114.63
  Q 80.67 114.98 81.06 115.34
  Q 84.43 118.49 87.93 121.47
  Q 89.00 122.38 90.05 122.38
  Q 91.10 122.38 92.17 121.47
  Q 95.66 118.48 99.03 115.34
  Q 99.42 114.98 100.26 114.63
  Q 101.11 114.28 101.63 114.26
  Q 106.24 114.10 110.82 113.74
  Q 112.23 113.63 112.97 112.88
  Q 113.71 112.14 113.82 110.74
  Q 114.18 106.16 114.34 101.55
  Q 114.36 101.02 114.71 100.18
  Q 115.06 99.33 115.42 98.95
  Q 118.56 95.57 121.55 92.08
  Q 122.46 91.01 122.46 89.96
  Q 122.46 88.91 121.54 87.84
  Q 118.56 84.35 115.41 80.97
  Q 115.05 80.59 114.70 79.74
  Q 114.35 78.90 114.34 78.37
  Q 114.18 73.76 113.81 69.19
  Q 113.70 67.78 112.96 67.04
  Q 112.22 66.30 110.81 66.18
  Q 106.24 65.82 101.62 65.67
  Q 101.10 65.65 100.25 65.30
  Q 99.41 64.95 99.02 64.59
  Q 95.65 61.44 92.16 58.46
  Q 91.08 57.55 90.04 57.55
  Q 88.99 57.55 87.91 58.46
  Q 84.42 61.44 81.05 64.59
  Q 80.67 64.95 79.82 65.30
  Z"
/>
<path fill="#ffffff" d="
  M 90.04 57.55
  Q 91.08 57.55 92.16 58.46
  Q 95.65 61.44 99.02 64.59
  Q 99.41 64.95 100.25 65.30
  Q 101.10 65.65 101.62 65.67
  Q 106.24 65.82 110.81 66.18
  Q 112.22 66.30 112.96 67.04
  Q 113.70 67.78 113.81 69.19
  Q 114.18 73.76 114.34 78.37
  Q 114.35 78.90 114.70 79.74
  Q 115.05 80.59 115.41 80.97
  Q 118.56 84.35 121.54 87.84
  Q 122.46 88.91 122.46 89.96
  Q 122.46 91.01 121.55 92.08
  Q 118.56 95.57 115.42 98.95
  Q 115.06 99.33 114.71 100.18
  Q 114.36 101.02 114.34 101.55
  Q 114.18 106.16 113.82 110.74
  Q 113.71 112.14 112.97 112.88
  Q 112.23 113.63 110.82 113.74
  Q 106.24 114.10 101.63 114.26
  Q 101.11 114.28 100.26 114.63
  Q 99.42 114.98 99.03 115.34
  Q 95.66 118.48 92.17 121.47
  Q 91.10 122.38 90.05 122.38
  Q 89.00 122.38 87.93 121.47
  Q 84.43 118.49 81.06 115.34
  Q 80.67 114.98 79.83 114.63
  Q 78.99 114.28 78.46 114.26
  Q 73.85 114.10 69.27 113.74
  Q 67.86 113.63 67.12 112.89
  Q 66.38 112.15 66.27 110.74
  Q 65.91 106.17 65.75 101.56
  Q 65.73 101.03 65.38 100.18
  Q 65.03 99.34 64.67 98.96
  Q 61.52 95.58 58.54 92.09
  Q 57.62 91.02 57.62 89.97
  Q 57.62 88.92 58.54 87.85
  Q 61.52 84.36 64.67 80.98
  Q 65.03 80.60 65.38 79.75
  Q 65.73 78.91 65.74 78.38
  Q 65.90 73.77 66.26 69.19
  Q 66.37 67.79 67.11 67.04
  Q 67.86 66.30 69.26 66.19
  Q 73.84 65.83 78.45 65.67
  Q 78.98 65.65 79.82 65.30
  Q 80.67 64.95 81.05 64.59
  Q 84.42 61.44 87.91 58.46
  Q 88.99 57.55 90.04 57.55
  Z"
/>
</svg>