<?xml version="1.0" encoding="UTF-8" standalone="no"?>
<!DOCTYPE svg PUBLIC "-//W3C//DTD SVG 1.1//EN" "http://www.w3.org/Graphics/SVG/1.1/DTD/svg11.dtd">
<svg xmlns="http://www.w3.org/2000/svg" version="1.1" viewBox="0.00 0.00 192.00 192.00" width="128" height="128">
<path fill="#ac3277" d="
  M 132.94 80.97
  A 0.56 0.55 65.5 0 1 132.20 80.69
  C 126.81 68.91 113.63 64.45 101.57 67.29
  C 97.69 68.21 94.27 71.11 94.40 75.37
  C 94.55 79.97 98.40 82.54 102.48 83.77
  Q 106.65 85.03 127.61 90.62
  C 138.70 93.58 150.03 101.43 153.24 113.02
  C 158.60 132.42 145.52 148.17 126.76 152.82
  C 101.13 159.17 72.01 150.78 61.61 124.52
  A 0.70 0.69 -23.6 0 1 61.96 123.64
  L 82.60 114.02
  A 0.88 0.87 -25.2 0 1 83.76 114.43
  C 90.30 128.09 103.60 134.85 118.68 130.96
  C 125.56 129.18 128.98 120.66 122.26 115.98
  Q 119.35 113.95 116.11 113.12
  Q 102.40 109.57 90.52 106.26
  Q 86.21 105.06 80.57 101.66
  C 59.43 88.89 61.55 60.09 82.64 48.72
  C 95.83 41.61 113.66 41.13 127.68 46.02
  Q 146.33 52.53 154.26 70.34
  A 0.64 0.63 65.7 0 1 153.95 71.17
  L 132.94 80.97
  Z"
/>
<circle fill="#ac3277" cx="38.33" cy="137.88" r="17.21"/>
</svg>