<?xml version="1.0" encoding="UTF-8" standalone="no"?>
<!DOCTYPE svg PUBLIC "-//W3C//DTD SVG 1.1//EN" "http://www.w3.org/Graphics/SVG/1.1/DTD/svg11.dtd">
<svg xmlns="http://www.w3.org/2000/svg" version="1.1" viewBox="0.00 0.00 180.00 180.00" width="128" height="128">
<path stroke="#7d7d7d" stroke-width="2.00" fill="none" stroke-linecap="butt" vector-effect="non-scaling-stroke" d="
  M 88.91 74.06
  Q 88.80 64.65 88.93 45.04
  C 88.95 43.09 88.89 42.15 87.06 41.10
  Q 78.71 36.30 61.85 26.52
  A 2.13 2.13 0.0 0 0 59.71 26.52
  L 34.10 41.31
  A 0.95 0.95 0.0 0 0 34.10 42.95
  L 59.82 57.80
  A 1.87 1.86 15.2 0 1 60.75 59.41
  L 60.75 89.87
  A 1.58 1.56 75.4 0 1 59.96 91.24
  L 34.35 106.03
  A 1.10 1.10 0.0 0 0 34.35 107.94
  L 59.54 122.49
  A 2.42 2.41 15.1 0 1 60.75 124.58
  L 60.75 153.92
  A 0.98 0.98 0.0 0 0 62.22 154.77
  L 87.68 140.07
  A 2.40 2.39 75.1 0 0 88.88 137.99
  L 88.88 108.29
  A 2.22 2.22 0.0 0 0 87.77 106.37
  L 61.69 91.32
  A 0.64 0.64 0.0 0 1 61.69 90.21
  L 87.91 75.08
  A 1.80 1.78 44.7 0 1 89.72 75.08
  L 116.10 90.30
  A 1.58 1.56 -75.2 0 1 116.88 91.66
  L 116.88 121.44
  A 1.03 1.02 -15.1 0 0 118.42 122.32
  L 143.71 107.72
  A 2.62 2.60 75.2 0 0 145.02 105.45
  L 145.02 76.24
  A 2.90 2.88 -75.2 0 0 143.57 73.73
  L 117.99 58.96
  A 2.08 2.06 44.8 0 0 115.90 58.96
  L 89.32 74.30
  A 0.28 0.27 74.7 0 1 88.91 74.06"
/>
<path fill="#000000" d="
  M 180.00 0.00
  L 180.00 180.00
  L 0.00 180.00
  L 0.00 0.00
  L 180.00 0.00
  Z
  M 88.91 74.06
  Q 88.80 64.65 88.93 45.04
  C 88.95 43.09 88.89 42.15 87.06 41.10
  Q 78.71 36.30 61.85 26.52
  A 2.13 2.13 0.0 0 0 59.71 26.52
  L 34.10 41.31
  A 0.95 0.95 0.0 0 0 34.10 42.95
  L 59.82 57.80
  A 1.87 1.86 15.2 0 1 60.75 59.41
  L 60.75 89.87
  A 1.58 1.56 75.4 0 1 59.96 91.24
  L 34.35 106.03
  A 1.10 1.10 0.0 0 0 34.35 107.94
  L 59.54 122.49
  A 2.42 2.41 15.1 0 1 60.75 124.58
  L 60.75 153.92
  A 0.98 0.98 0.0 0 0 62.22 154.77
  L 87.68 140.07
  A 2.40 2.39 75.1 0 0 88.88 137.99
  L 88.88 108.29
  A 2.22 2.22 0.0 0 0 87.77 106.37
  L 61.69 91.32
  A 0.64 0.64 0.0 0 1 61.69 90.21
  L 87.91 75.08
  A 1.80 1.78 44.7 0 1 89.72 75.08
  L 116.10 90.30
  A 1.58 1.56 -75.2 0 1 116.88 91.66
  L 116.88 121.44
  A 1.03 1.02 -15.1 0 0 118.42 122.32
  L 143.71 107.72
  A 2.62 2.60 75.2 0 0 145.02 105.45
  L 145.02 76.24
  A 2.90 2.88 -75.2 0 0 143.57 73.73
  L 117.99 58.96
  A 2.08 2.06 44.8 0 0 115.90 58.96
  L 89.32 74.30
  A 0.28 0.27 74.7 0 1 88.91 74.06
  Z"
/>
<path fill="#fafafa" d="
  M 88.91 74.06
  A 0.28 0.27 74.7 0 0 89.32 74.30
  L 115.90 58.96
  A 2.08 2.06 44.8 0 1 117.99 58.96
  L 143.57 73.73
  A 2.90 2.88 -75.2 0 1 145.02 76.24
  L 145.02 105.45
  A 2.62 2.60 75.2 0 1 143.71 107.72
  L 118.42 122.32
  A 1.03 1.02 -15.1 0 1 116.88 121.44
  L 116.88 91.66
  A 1.58 1.56 -75.2 0 0 116.10 90.30
  L 89.72 75.08
  A 1.80 1.78 44.7 0 0 87.91 75.08
  L 61.69 90.21
  A 0.64 0.64 0.0 0 0 61.69 91.32
  L 87.77 106.37
  A 2.22 2.22 0.0 0 1 88.88 108.29
  L 88.88 137.99
  A 2.40 2.39 75.1 0 1 87.68 140.07
  L 62.22 154.77
  A 0.98 0.98 0.0 0 1 60.75 153.92
  L 60.75 124.58
  A 2.42 2.41 15.1 0 0 59.54 122.49
  L 34.35 107.94
  A 1.10 1.10 0.0 0 1 34.35 106.03
  L 59.96 91.24
  A 1.58 1.56 75.4 0 0 60.75 89.87
  L 60.75 59.41
  A 1.87 1.86 15.2 0 0 59.82 57.80
  L 34.10 42.95
  A 0.95 0.95 0.0 0 1 34.10 41.31
  L 59.71 26.52
  A 2.13 2.13 0.0 0 1 61.85 26.52
  Q 78.71 36.30 87.06 41.10
  C 88.89 42.15 88.95 43.09 88.93 45.04
  Q 88.80 64.65 88.91 74.06
  Z"
/>
</svg>