<?xml version="1.0" encoding="UTF-8" standalone="no"?>
<!DOCTYPE svg PUBLIC "-//W3C//DTD SVG 1.1//EN" "http://www.w3.org/Graphics/SVG/1.1/DTD/svg11.dtd">
<svg xmlns="http://www.w3.org/2000/svg" version="1.1" viewBox="0.00 0.00 256.00 256.00" width="128" height="128">
<g stroke-width="2.00" fill="none" stroke-linecap="butt">
<path stroke="#7cc342" vector-effect="non-scaling-stroke" d="
  M 40.79 0.00
  Q 44.31 34.30 43.95 68.83
  C 43.52 110.90 42.68 143.36 39.29 183.13"
/>
<path stroke="#c2e2a0" vector-effect="non-scaling-stroke" d="
  M 39.29 183.13
  L 23.01 192.91
  A 1.52 1.52 0.0 0 0 22.89 195.43
  C 33.73 203.43 43.62 212.62 55.71 222.93
  C 56.74 223.81 57.97 224.38 59.19 224.40
  A 1.99 1.91 -88.3 0 0 61.12 222.50
  Q 61.44 216.00 64.72 211.33
  A 3.22 3.21 -72.5 0 1 67.35 209.96
  L 104.97 210.04"
/>
<path stroke="#7cc342" vector-effect="non-scaling-stroke" d="
  M 104.97 210.04
  L 100.93 210.44
  A 0.29 0.28 67.3 0 0 100.74 210.91
  Q 109.49 221.31 108.85 234.82
  Q 108.36 244.94 105.93 256.00"
/>
<path stroke="#5dbc46" vector-effect="non-scaling-stroke" d="
  M 137.85 0.00
  Q 140.43 25.39 141.19 51.04"
/>
<path stroke="#b9e0a1" vector-effect="non-scaling-stroke" d="
  M 141.19 51.04
  Q 132.75 50.74 124.31 51.29
  Q 118.66 51.66 117.11 57.15
  Q 107.95 89.51 102.22 112.00
  Q 101.38 115.28 97.59 128.43
  C 96.27 133.02 95.98 136.26 95.80 141.04
  C 95.71 143.68 97.76 143.43 99.70 143.45
  Q 123.71 143.73 130.50 143.25
  Q 143.22 142.36 157.05 135.19"
/>
<path stroke="#5dbc46" vector-effect="non-scaling-stroke" d="
  M 157.05 135.19
  Q 155.47 154.28 155.31 173.27"
/>
<path stroke="#b9e0a1" vector-effect="non-scaling-stroke" d="
  M 155.31 173.27
  Q 144.04 176.89 132.44 178.39
  Q 123.88 179.50 109.03 179.37
  Q 89.30 179.21 75.19 179.70
  A 2.01 2.01 0.0 0 1 73.13 177.98
  Q 72.72 175.11 73.79 172.75
  Q 75.58 168.81 76.22 165.18
  A 1.17 1.16 8.5 0 0 75.21 163.83
  Q 75.11 163.82 74.45 163.97
  Q 73.19 164.27 67.74 167.32
  Q 53.71 175.18 39.29 183.13"
/>
<path stroke="#5dbc46" vector-effect="non-scaling-stroke" d="
  M 256.00 43.75
  Q 255.52 54.37 255.67 65.00
  C 255.73 69.78 255.16 74.16 255.40 79.01
  Q 256.22 95.99 255.65 101.99
  Q 254.67 112.28 255.14 119.74
  Q 255.47 124.91 255.41 132.27
  Q 255.22 158.57 256.00 184.88"
/>
<path stroke="#5dbc46" vector-effect="non-scaling-stroke" d="
  M 160.40 256.00
  C 154.83 250.72 150.69 246.59 149.65 238.57
  Q 148.98 233.41 149.19 230.20
  Q 149.97 218.38 150.49 206.42"
/>
<path stroke="#a3dba4" vector-effect="non-scaling-stroke" d="
  M 150.49 206.42
  Q 177.03 200.08 197.29 182.26
  C 203.56 176.74 209.56 169.14 213.58 162.85
  Q 220.89 151.43 224.96 137.21
  Q 229.47 121.44 229.85 107.26
  C 230.26 91.67 230.43 79.50 225.14 66.06
  C 219.41 51.51 207.93 43.57 193.83 35.93
  Q 191.88 34.87 189.00 34.39
  A 0.53 0.52 11.1 0 0 188.40 34.79
  L 188.39 34.81
  A 0.53 0.53 0.0 0 0 188.74 35.43
  Q 193.53 37.01 195.74 39.03
  C 200.86 43.72 207.26 48.47 210.18 53.43
  C 219.87 69.87 218.23 89.67 213.94 108.47
  Q 213.49 110.46 210.14 120.46
  C 207.76 127.58 204.21 135.13 200.74 140.02
  Q 192.86 151.13 180.21 160.69
  Q 168.88 169.26 155.31 173.27"
/>
<path stroke="#a3dba4" vector-effect="non-scaling-stroke" d="
  M 157.05 135.19
  Q 166.64 129.68 174.29 119.28
  Q 185.54 103.97 187.45 86.13
  Q 188.37 77.47 184.88 67.87
  Q 183.89 65.13 180.98 62.29
  Q 169.66 51.24 153.95 51.08
  Q 147.59 51.01 141.19 51.04"
/>
<path stroke="#b9e0a1" vector-effect="non-scaling-stroke" d="
  M 150.49 206.42
  Q 138.56 209.11 128.75 209.66
  Q 120.07 210.15 104.97 210.04"
/>
</g>
<path fill="#84c541" d="
  M 40.79 0.00
  Q 44.31 34.30 43.95 68.83
  C 43.52 110.90 42.68 143.36 39.29 183.13
  L 23.01 192.91
  A 1.52 1.52 0.0 0 0 22.89 195.43
  C 33.73 203.43 43.62 212.62 55.71 222.93
  C 56.74 223.81 57.97 224.38 59.19 224.40
  A 1.99 1.91 -88.3 0 0 61.12 222.50
  Q 61.44 216.00 64.72 211.33
  A 3.22 3.21 -72.5 0 1 67.35 209.96
  L 104.97 210.04
  L 100.93 210.44
  A 0.29 0.28 67.3 0 0 100.74 210.91
  Q 109.49 221.31 108.85 234.82
  Q 108.36 244.94 105.93 256.00
  L 0.00 256.00
  L 0.00 0.00
  L 40.79 0.00
  Z"
/>
<path fill="#73c043" d="
  M 137.85 0.00
  Q 140.43 25.39 141.19 51.04
  Q 132.75 50.74 124.31 51.29
  Q 118.66 51.66 117.11 57.15
  Q 107.95 89.51 102.22 112.00
  Q 101.38 115.28 97.59 128.43
  C 96.27 133.02 95.98 136.26 95.80 141.04
  C 95.71 143.68 97.76 143.43 99.70 143.45
  Q 123.71 143.73 130.50 143.25
  Q 143.22 142.36 157.05 135.19
  Q 155.47 154.28 155.31 173.27
  Q 144.04 176.89 132.44 178.39
  Q 123.88 179.50 109.03 179.37
  Q 89.30 179.21 75.19 179.70
  A 2.01 2.01 0.0 0 1 73.13 177.98
  Q 72.72 175.11 73.79 172.75
  Q 75.58 168.81 76.22 165.18
  A 1.17 1.16 8.5 0 0 75.21 163.83
  Q 75.11 163.82 74.45 163.97
  Q 73.19 164.27 67.74 167.32
  Q 53.71 175.18 39.29 183.13
  C 42.68 143.36 43.52 110.90 43.95 68.83
  Q 44.31 34.30 40.79 0.00
  L 137.85 0.00
  Z"
/>
<path fill="#46b748" d="
  M 256.00 0.00
  L 256.00 43.75
  Q 255.52 54.37 255.67 65.00
  C 255.73 69.78 255.16 74.16 255.40 79.01
  Q 256.22 95.99 255.65 101.99
  Q 254.67 112.28 255.14 119.74
  Q 255.47 124.91 255.41 132.27
  Q 255.22 158.57 256.00 184.88
  L 256.00 256.00
  L 160.40 256.00
  C 154.83 250.72 150.69 246.59 149.65 238.57
  Q 148.98 233.41 149.19 230.20
  Q 149.97 218.38 150.49 206.42
  Q 177.03 200.08 197.29 182.26
  C 203.56 176.74 209.56 169.14 213.58 162.85
  Q 220.89 151.43 224.96 137.21
  Q 229.47 121.44 229.85 107.26
  C 230.26 91.67 230.43 79.50 225.14 66.06
  C 219.41 51.51 207.93 43.57 193.83 35.93
  Q 191.88 34.87 189.00 34.39
  A 0.53 0.52 11.1 0 0 188.40 34.79
  L 188.39 34.81
  A 0.53 0.53 0.0 0 0 188.74 35.43
  Q 193.53 37.01 195.74 39.03
  C 200.86 43.72 207.26 48.47 210.18 53.43
  C 219.87 69.87 218.23 89.67 213.94 108.47
  Q 213.49 110.46 210.14 120.46
  C 207.76 127.58 204.21 135.13 200.74 140.02
  Q 192.86 151.13 180.21 160.69
  Q 168.88 169.26 155.31 173.27
  Q 155.47 154.28 157.05 135.19
  Q 166.64 129.68 174.29 119.28
  Q 185.54 103.97 187.45 86.13
  Q 188.37 77.47 184.88 67.87
  Q 183.89 65.13 180.98 62.29
  Q 169.66 51.24 153.95 51.08
  Q 147.59 51.01 141.19 51.04
  Q 140.43 25.39 137.85 0.00
  L 256.00 0.00
  Z"
/>
<path fill="#ffffff" d="
  M 150.49 206.42
  Q 138.56 209.11 128.75 209.66
  Q 120.07 210.15 104.97 210.04
  L 67.35 209.96
  A 3.22 3.21 -72.5 0 0 64.72 211.33
  Q 61.44 216.00 61.12 222.50
  A 1.99 1.91 -88.3 0 1 59.19 224.40
  C 57.97 224.38 56.74 223.81 55.71 222.93
  C 43.62 212.62 33.73 203.43 22.89 195.43
  A 1.52 1.52 0.0 0 1 23.01 192.91
  L 39.29 183.13
  Q 53.71 175.18 67.74 167.32
  Q 73.19 164.27 74.45 163.97
  Q 75.11 163.82 75.21 163.83
  A 1.17 1.16 8.5 0 1 76.22 165.18
  Q 75.58 168.81 73.79 172.75
  Q 72.72 175.11 73.13 177.98
  A 2.01 2.01 0.0 0 0 75.19 179.70
  Q 89.30 179.21 109.03 179.37
  Q 123.88 179.50 132.44 178.39
  Q 144.04 176.89 155.31 173.27
  Q 168.88 169.26 180.21 160.69
  Q 192.86 151.13 200.74 140.02
  C 204.21 135.13 207.76 127.58 210.14 120.46
  Q 213.49 110.46 213.94 108.47
  C 218.23 89.67 219.87 69.87 210.18 53.43
  C 207.26 48.47 200.86 43.72 195.74 39.03
  Q 193.53 37.01 188.74 35.43
  A 0.53 0.53 0.0 0 1 188.39 34.81
  L 188.40 34.79
  A 0.53 0.52 11.1 0 1 189.00 34.39
  Q 191.88 34.87 193.83 35.93
  C 207.93 43.57 219.41 51.51 225.14 66.06
  C 230.43 79.50 230.26 91.67 229.85 107.26
  Q 229.47 121.44 224.96 137.21
  Q 220.89 151.43 213.58 162.85
  C 209.56 169.14 203.56 176.74 197.29 182.26
  Q 177.03 200.08 150.49 206.42
  Z"
/>
<path fill="#73c043" d="
  M 256.00 43.75
  L 256.00 184.88
  Q 255.22 158.57 255.41 132.27
  Q 255.47 124.91 255.14 119.74
  Q 254.67 112.28 255.65 101.99
  Q 256.22 95.99 255.40 79.01
  C 255.16 74.16 255.73 69.78 255.67 65.00
  Q 255.52 54.37 256.00 43.75
  Z"
/>
<path fill="#ffffff" d="
  M 141.19 51.04
  Q 147.59 51.01 153.95 51.08
  Q 169.66 51.24 180.98 62.29
  Q 183.89 65.13 184.88 67.87
  Q 188.37 77.47 187.45 86.13
  Q 185.54 103.97 174.29 119.28
  Q 166.64 129.68 157.05 135.19
  Q 143.22 142.36 130.50 143.25
  Q 123.71 143.73 99.70 143.45
  C 97.76 143.43 95.71 143.68 95.80 141.04
  C 95.98 136.26 96.27 133.02 97.59 128.43
  Q 101.38 115.28 102.22 112.00
  Q 107.95 89.51 117.11 57.15
  Q 118.66 51.66 124.31 51.29
  Q 132.75 50.74 141.19 51.04
  Z"
/>
<path fill="#73c043" d="
  M 150.49 206.42
  Q 149.97 218.38 149.19 230.20
  Q 148.98 233.41 149.65 238.57
  C 150.69 246.59 154.83 250.72 160.40 256.00
  L 105.93 256.00
  Q 108.36 244.94 108.85 234.82
  Q 109.49 221.31 100.74 210.91
  A 0.29 0.28 67.3 0 1 100.93 210.44
  L 104.97 210.04
  Q 120.07 210.15 128.75 209.66
  Q 138.56 209.11 150.49 206.42
  Z"
/>
</svg>