<?xml version="1.0" encoding="UTF-8" standalone="no"?>
<!DOCTYPE svg PUBLIC "-//W3C//DTD SVG 1.1//EN" "http://www.w3.org/Graphics/SVG/1.1/DTD/svg11.dtd">
<svg xmlns="http://www.w3.org/2000/svg" version="1.1" viewBox="0.00 0.00 180.00 180.00" width="128" height="128">
<g stroke-width="2.00" fill="none" stroke-linecap="butt">
<path stroke="#80a9e6" vector-effect="non-scaling-stroke" d="
  M 24.0300 62.7400
  A 65.85 21.95 -180.0 0 0 89.8800 84.6900
  A 65.85 21.95 -180.0 0 0 155.7300 62.7400
  A 65.85 21.95 -180.0 0 0 89.8800 40.7900
  A 65.85 21.95 -180.0 0 0 24.0300 62.7400"
/>
<path stroke="#a6c3ed" vector-effect="non-scaling-stroke" d="
  M 89.88 112.15
  C 108.35 112.15 128.20 110.06 144.83 102.30
  C 152.18 98.87 160.12 91.59 152.76 83.69
  Q 149.94 80.66 146.56 78.97
  A 0.71 0.71 0.0 0 0 145.97 78.96
  C 128.19 86.58 108.97 88.79 89.87 88.80
  C 70.78 88.80 51.56 86.59 33.77 78.97
  A 0.71 0.71 0.0 0 0 33.19 78.99
  Q 29.81 80.68 26.99 83.71
  C 19.63 91.61 27.57 98.89 34.92 102.31
  C 51.56 110.07 71.41 112.15 89.88 112.15"
/>
<path stroke="#ccddf5" vector-effect="non-scaling-stroke" d="
  M 89.89 139.60
  C 108.36 139.60 128.22 137.50 144.86 129.75
  C 152.21 126.32 160.15 119.04 152.79 111.14
  Q 149.97 108.11 146.59 106.41
  A 0.71 0.71 0.0 0 0 146.00 106.40
  C 128.21 114.02 108.99 116.24 89.89 116.24
  C 70.79 116.24 51.57 114.03 33.78 106.41
  A 0.71 0.71 0.0 0 0 33.19 106.42
  Q 29.81 108.11 26.99 111.14
  C 19.63 119.05 27.58 126.33 34.93 129.75
  C 51.56 137.51 71.42 139.60 89.89 139.60"
/>
</g>
<path fill="#ffffff" d="
  M 134.09 0.00
  C 139.97 0.39 144.98 0.51 151.41 1.90
  C 164.11 4.66 175.46 16.04 178.15 28.76
  C 179.50 35.17 179.63 40.11 180.00 45.95
  L 180.00 133.98
  Q 179.82 142.61 178.13 150.97
  C 175.69 163.08 165.92 173.36 154.59 177.27
  C 147.83 179.60 140.77 179.57 134.09 180.00
  L 46.06 180.00
  Q 37.41 179.84 29.02 178.14
  C 16.05 175.51 4.61 164.21 1.85 151.25
  C 0.51 144.89 0.37 139.99 0.00 134.20
  L 0.00 45.90
  C 0.45 37.09 0.72 27.74 5.24 19.87
  Q 15.44 2.10 36.99 0.58
  Q 41.47 0.26 45.94 0.00
  L 134.09 0.00
  Z
  M 24.0300 62.7400
  A 65.85 21.95 -180.0 0 0 89.8800 84.6900
  A 65.85 21.95 -180.0 0 0 155.7300 62.7400
  A 65.85 21.95 -180.0 0 0 89.8800 40.7900
  A 65.85 21.95 -180.0 0 0 24.0300 62.7400
  Z
  M 89.88 112.15
  C 108.35 112.15 128.20 110.06 144.83 102.30
  C 152.18 98.87 160.12 91.59 152.76 83.69
  Q 149.94 80.66 146.56 78.97
  A 0.71 0.71 0.0 0 0 145.97 78.96
  C 128.19 86.58 108.97 88.79 89.87 88.80
  C 70.78 88.80 51.56 86.59 33.77 78.97
  A 0.71 0.71 0.0 0 0 33.19 78.99
  Q 29.81 80.68 26.99 83.71
  C 19.63 91.61 27.57 98.89 34.92 102.31
  C 51.56 110.07 71.41 112.15 89.88 112.15
  Z
  M 89.89 139.60
  C 108.36 139.60 128.22 137.50 144.86 129.75
  C 152.21 126.32 160.15 119.04 152.79 111.14
  Q 149.97 108.11 146.59 106.41
  A 0.71 0.71 0.0 0 0 146.00 106.40
  C 128.21 114.02 108.99 116.24 89.89 116.24
  C 70.79 116.24 51.57 114.03 33.78 106.41
  A 0.71 0.71 0.0 0 0 33.19 106.42
  Q 29.81 108.11 26.99 111.14
  C 19.63 119.05 27.58 126.33 34.93 129.75
  C 51.56 137.51 71.42 139.60 89.89 139.60
  Z"
/>
<ellipse fill="#0052cc" cx="0.00" cy="0.00" transform="translate(89.88,62.74) rotate(-180.0)" rx="65.85" ry="21.95"/>
<path fill="#4d86db" d="
  M 89.87 88.80
  C 108.97 88.79 128.19 86.58 145.97 78.96
  A 0.71 0.71 0.0 0 1 146.56 78.97
  Q 149.94 80.66 152.76 83.69
  C 160.12 91.59 152.18 98.87 144.83 102.30
  C 128.20 110.06 108.35 112.15 89.88 112.15
  C 71.41 112.15 51.56 110.07 34.92 102.31
  C 27.57 98.89 19.63 91.61 26.99 83.71
  Q 29.81 80.68 33.19 78.99
  A 0.71 0.71 0.0 0 1 33.77 78.97
  C 51.56 86.59 70.78 88.80 89.87 88.80
  Z"
/>
<path fill="#99baeb" d="
  M 89.89 139.60
  C 71.42 139.60 51.56 137.51 34.93 129.75
  C 27.58 126.33 19.63 119.05 26.99 111.14
  Q 29.81 108.11 33.19 106.42
  A 0.71 0.71 0.0 0 1 33.78 106.41
  C 51.57 114.03 70.79 116.24 89.89 116.24
  C 108.99 116.24 128.21 114.02 146.00 106.40
  A 0.71 0.71 0.0 0 1 146.59 106.41
  Q 149.97 108.11 152.79 111.14
  C 160.15 119.04 152.21 126.32 144.86 129.75
  C 128.22 137.50 108.36 139.60 89.89 139.60
  Z"
/>
</svg>