<?xml version="1.0" encoding="UTF-8" standalone="no"?>
<!DOCTYPE svg PUBLIC "-//W3C//DTD SVG 1.1//EN" "http://www.w3.org/Graphics/SVG/1.1/DTD/svg11.dtd">
<svg xmlns="http://www.w3.org/2000/svg" version="1.1" viewBox="0.00 0.00 256.00 256.00" width="128" height="128">
<path fill="#0aba9f" d="
  M 134.16 0.00
  Q 148.21 0.85 161.64 4.55
  A 0.65 0.65 0.0 0 1 162.12 5.18
  L 162.12 141.40
  A 0.61 0.60 -0.0 0 0 162.73 142.00
  L 177.46 142.00
  A 0.54 0.54 0.0 0 0 178.00 141.46
  L 178.00 10.60
  A 0.34 0.34 0.0 0 1 178.48 10.29
  C 224.00 30.22 253.65 73.10 256.00 123.18
  L 256.00 132.62
  Q 254.25 171.71 232.71 201.71
  Q 197.09 251.34 134.26 256.00
  L 121.67 256.00
  Q 79.47 253.39 48.16 228.09
  Q 3.43 191.95 0.00 132.79
  L 0.00 121.84
  Q 3.86 65.35 45.69 29.92
  Q 77.82 2.71 121.74 0.00
  L 134.16 0.00
  Z
  M 74.28 150.24
  C 82.75 176.78 109.31 192.75 136.55 188.23
  C 152.77 185.54 167.74 175.42 175.76 160.79
  A 0.53 0.53 0.0 0 0 175.56 160.07
  L 163.24 153.23
  A 0.69 0.69 0.0 0 0 162.34 153.43
  C 161.15 155.05 159.76 157.55 157.97 159.57
  C 137.03 183.16 98.61 175.93 88.91 145.57
  C 79.22 115.21 106.35 87.05 137.08 94.14
  C 139.71 94.75 142.29 95.99 144.20 96.62
  A 0.69 0.69 0.0 0 0 145.05 96.26
  L 151.13 83.54
  A 0.53 0.53 0.0 0 0 150.88 82.84
  C 135.86 75.57 117.80 75.99 103.02 83.19
  C 78.20 95.29 65.81 123.71 74.28 150.24
  Z"
/>
</svg>