<?xml version="1.0" encoding="UTF-8" standalone="no"?>
<!DOCTYPE svg PUBLIC "-//W3C//DTD SVG 1.1//EN" "http://www.w3.org/Graphics/SVG/1.1/DTD/svg11.dtd">
<svg xmlns="http://www.w3.org/2000/svg" version="1.1" viewBox="0.00 0.00 256.00 256.00" width="128" height="128">
<g stroke-width="2.00" fill="none" stroke-linecap="butt">
<path stroke="#0f3d8c" vector-effect="non-scaling-stroke" d="
  M 127.67 79.00
  Q 127.54 79.60 127.75 79.75
  Q 162.98 103.69 198.37 127.99"
/>
<path stroke="#0f3d8c" vector-effect="non-scaling-stroke" d="
  M 127.32 176.79
  L 127.31 79.90
  A 0.43 0.43 0.0 0 0 126.64 79.55
  L 56.04 128.01"
/>
</g>
<path fill="#0061fe" d="
  M 127.67 79.00
  Q 127.54 79.60 127.75 79.75
  Q 162.98 103.69 198.37 127.99
  L 241.93 157.77
  A 1.14 1.13 17.3 0 1 242.43 158.71
  L 242.43 255.45
  A 0.29 0.29 0.0 0 1 241.98 255.69
  L 127.32 176.79
  L 127.31 79.90
  A 0.43 0.43 0.0 0 0 126.64 79.55
  L 56.04 128.01
  L 12.45 98.19
  A 1.01 1.01 0.0 0 1 12.00 97.35
  L 12.00 0.45
  A 0.24 0.23 17.6 0 1 12.37 0.26
  Q 38.45 18.23 126.38 78.62
  Q 127.06 79.08 127.67 79.00
  Z"
/>
<path fill="#1e1919" d="
  M 198.37 127.99
  Q 162.98 103.69 127.75 79.75
  Q 127.54 79.60 127.67 79.00
  L 242.21 0.24
  A 0.14 0.14 0.0 0 1 242.43 0.35
  L 242.43 97.10
  A 1.48 1.46 -17.4 0 1 241.79 98.31
  L 198.37 127.99
  Z"
/>
<path fill="#1e1919" d="
  M 127.32 176.79
  L 12.62 255.50
  A 0.41 0.41 0.0 0 1 11.97 255.16
  L 11.97 158.72
  A 1.07 1.07 0.0 0 1 12.43 157.84
  L 56.04 128.01
  L 126.64 79.55
  A 0.43 0.43 0.0 0 1 127.31 79.90
  L 127.32 176.79
  Z"
/>
</svg>