<?xml version="1.0" encoding="UTF-8" standalone="no"?>
<!DOCTYPE svg PUBLIC "-//W3C//DTD SVG 1.1//EN" "http://www.w3.org/Graphics/SVG/1.1/DTD/svg11.dtd">
<svg xmlns="http://www.w3.org/2000/svg" version="1.1" viewBox="0.00 0.00 180.00 180.00" width="128" height="128">
<path stroke="#808080" stroke-width="2.00" fill="none" stroke-linecap="butt" vector-effect="non-scaling-stroke" d="
  M 112.52 2.82
  L 112.53 50.33
  A 0.43 0.43 0.0 0 1 111.89 50.71
  C 97.32 42.43 79.03 43.27 65.06 52.56
  C 30.05 75.87 43.67 130.15 85.08 134.71
  Q 98.83 136.22 111.77 129.43
  A 0.50 0.50 0.0 0 1 112.50 129.87
  L 112.50 134.37
  A 0.64 0.64 0.0 0 0 113.14 135.01
  L 134.27 135.01
  A 0.61 0.61 0.0 0 0 134.88 134.40
  L 134.89 11.87"
/>
<path fill="#000000" d="
  M 95.50 0.00
  L 112.52 2.82
  L 112.53 50.33
  A 0.43 0.43 0.0 0 1 111.89 50.71
  C 97.32 42.43 79.03 43.27 65.06 52.56
  C 30.05 75.87 43.67 130.15 85.08 134.71
  Q 98.83 136.22 111.77 129.43
  A 0.50 0.50 0.0 0 1 112.50 129.87
  L 112.50 134.37
  A 0.64 0.64 0.0 0 0 113.14 135.01
  L 134.27 135.01
  A 0.61 0.61 0.0 0 0 134.88 134.40
  L 134.89 11.87
  Q 175.46 36.62 180.00 84.37
  L 180.00 95.47
  Q 177.73 125.31 159.48 147.24
  Q 135.00 176.67 95.57 180.00
  L 84.50 180.00
  C 38.54 176.29 3.63 141.60 0.00 95.59
  L 0.00 84.50
  C 3.55 38.49 38.45 3.73 84.40 0.00
  L 95.50 0.00
  Z"
/>
<path fill="#ffffff" d="
  M 134.89 11.87
  L 134.88 134.40
  A 0.61 0.61 0.0 0 1 134.27 135.01
  L 113.14 135.01
  A 0.64 0.64 0.0 0 1 112.50 134.37
  L 112.50 129.87
  A 0.50 0.50 0.0 0 0 111.77 129.43
  Q 98.83 136.22 85.08 134.71
  C 43.67 130.15 30.05 75.87 65.06 52.56
  C 79.03 43.27 97.32 42.43 111.89 50.71
  A 0.43 0.43 0.0 0 0 112.53 50.33
  L 112.52 2.82
  Q 124.32 5.99 134.89 11.87
  Z"
/>
</svg>