<?xml version="1.0" encoding="UTF-8" standalone="no"?>
<!DOCTYPE svg PUBLIC "-//W3C//DTD SVG 1.1//EN" "http://www.w3.org/Graphics/SVG/1.1/DTD/svg11.dtd">
<svg xmlns="http://www.w3.org/2000/svg" version="1.1" viewBox="0.00 -4.00 256.00 256.00" width="128" height="128">
<g stroke-width="2.00" fill="none" stroke-linecap="butt">
<path stroke="#c13148" vector-effect="non-scaling-stroke" d="
  M 175.22 175.24
  Q 174.41 174.97 174.37 173.92"
/>
<path stroke="#bf2f52" vector-effect="non-scaling-stroke" d="
  M 174.37 173.92
  Q 174.40 143.15 174.36 112.29
  Q 174.35 101.46 172.95 96.88
  C 168.94 83.76 157.12 74.20 143.10 72.98
  Q 141.85 72.87 127.37 72.83
  Q 104.08 72.76 80.80 72.84"
/>
<path stroke="#b0af96" vector-effect="non-scaling-stroke" d="
  M 80.80 72.84
  Q 80.51 72.48 80.55 72.72"
/>
<path stroke="#708096" vector-effect="non-scaling-stroke" d="
  M 80.80 72.84
  L 80.78 74.19"
/>
<path stroke="#72828b" vector-effect="non-scaling-stroke" d="
  M 80.78 74.19
  L 80.82 244.36"
/>
<path stroke="#708096" vector-effect="non-scaling-stroke" d="
  M 80.82 244.36
  L 80.74 247.61"
/>
<path stroke="#810248" vector-effect="non-scaling-stroke" d="
  M 174.37 173.92
  Q 142.93 173.18 115.75 173.95
  Q 113.33 174.02 110.28 174.99"
/>
<path stroke="#708096" vector-effect="non-scaling-stroke" d="
  M 110.28 174.99
  Q 109.42 175.09 109.45 175.47"
/>
<path stroke="#810248" vector-effect="non-scaling-stroke" d="
  M 109.45 175.47
  Q 108.33 175.16 108.08 175.89
  Q 107.68 177.06 107.68 178.36
  Q 107.77 191.60 107.51 208.25
  Q 107.37 217.50 107.74 241.83
  A 1.09 1.08 9.9 0 0 108.45 242.83
  L 108.71 242.93
  A 0.43 0.42 -77.7 0 0 109.28 242.56
  L 109.46 239.53"
/>
<path stroke="#708096" vector-effect="non-scaling-stroke" d="
  M 109.46 239.53
  L 109.55 247.62"
/>
<path stroke="#810248" vector-effect="non-scaling-stroke" d="
  M 80.82 244.36
  Q 82.14 241.82 82.24 238.49
  C 82.57 227.22 82.03 213.05 82.02 204.03
  Q 81.91 150.81 81.92 110.71
  Q 81.92 110.61 82.39 96.43
  Q 82.76 85.17 80.78 74.19"
/>
<path stroke="#72828b" vector-effect="non-scaling-stroke" d="
  M 174.55 175.47
  L 174.29 175.26
  A 0.20 0.18 -22.5 0 0 174.17 175.22
  L 110.28 174.99"
/>
<path stroke="#72828b" vector-effect="non-scaling-stroke" d="
  M 109.46 239.53
  L 109.45 175.47"
/>
</g>
<path fill="#ff5e52" d="
  M 175.22 175.24
  Q 174.41 174.97 174.37 173.92
  Q 174.40 143.15 174.36 112.29
  Q 174.35 101.46 172.95 96.88
  C 168.94 83.76 157.12 74.20 143.10 72.98
  Q 141.85 72.87 127.37 72.83
  Q 104.08 72.76 80.80 72.84
  Q 80.51 72.48 80.55 72.72
  Q 80.57 58.31 80.54 44.03
  Q 80.51 29.22 81.93 24.63
  Q 85.46 13.25 96.15 5.90
  C 103.00 1.20 110.44 0.29 119.97 0.40
  Q 124.32 0.44 220.25 0.42
  C 236.23 0.42 249.69 9.97 254.15 24.72
  Q 255.65 29.66 255.61 43.46
  Q 255.51 81.98 255.53 142.18
  C 255.54 156.74 244.59 169.79 231.13 173.87
  Q 226.60 175.24 215.71 175.26
  Q 195.45 175.31 175.22 175.24
  Z"
/>
<path fill="#61ffd9" d="
  M 80.55 72.72
  Q 80.51 72.48 80.80 72.84
  L 80.78 74.19
  L 80.82 244.36
  L 80.74 247.61
  Q 56.21 247.58 31.75 247.58
  Q 29.55 247.58 25.82 246.68
  C 12.30 243.37 3.08 233.16 0.00 219.58
  L 0.00 100.79
  C 2.88 87.84 11.59 77.74 24.11 74.17
  Q 29.36 72.67 43.51 72.72
  Q 62.05 72.79 80.55 72.72
  Z"
/>
<path fill="#7f0052" d="
  M 174.37 173.92
  Q 142.93 173.18 115.75 173.95
  Q 113.33 174.02 110.28 174.99
  Q 109.42 175.09 109.45 175.47
  Q 108.33 175.16 108.08 175.89
  Q 107.68 177.06 107.68 178.36
  Q 107.77 191.60 107.51 208.25
  Q 107.37 217.50 107.74 241.83
  A 1.09 1.08 9.9 0 0 108.45 242.83
  L 108.71 242.93
  A 0.43 0.42 -77.7 0 0 109.28 242.56
  L 109.46 239.53
  L 109.55 247.62
  L 80.74 247.61
  L 80.82 244.36
  Q 82.14 241.82 82.24 238.49
  C 82.57 227.22 82.03 213.05 82.02 204.03
  Q 81.91 150.81 81.92 110.71
  Q 81.92 110.61 82.39 96.43
  Q 82.76 85.17 80.78 74.19
  L 80.80 72.84
  Q 104.08 72.76 127.37 72.83
  Q 141.85 72.87 143.10 72.98
  C 157.12 74.20 168.94 83.76 172.95 96.88
  Q 174.35 101.46 174.36 112.29
  Q 174.40 143.15 174.37 173.92
  Z"
/>
<path fill="#83043d" d="
  M 80.82 244.36
  L 80.78 74.19
  Q 82.76 85.17 82.39 96.43
  Q 81.92 110.61 81.92 110.71
  Q 81.91 150.81 82.02 204.03
  C 82.03 213.05 82.57 227.22 82.24 238.49
  Q 82.14 241.82 80.82 244.36
  Z"
/>
<path fill="#83043d" d="
  M 174.37 173.92
  Q 174.41 174.97 175.22 175.24
  Q 175.05 175.13 174.55 175.47
  L 174.29 175.26
  A 0.20 0.18 -22.5 0 0 174.17 175.22
  L 110.28 174.99
  Q 113.33 174.02 115.75 173.95
  Q 142.93 173.18 174.37 173.92
  Z"
/>
<path fill="#61ffd9" d="
  M 110.28 174.99
  L 174.17 175.22
  A 0.20 0.18 -22.5 0 1 174.29 175.26
  L 174.55 175.47
  Q 174.54 194.72 174.56 214.00
  C 174.57 228.86 163.88 242.14 149.95 246.24
  Q 145.33 247.61 133.90 247.59
  Q 121.84 247.57 109.55 247.62
  L 109.46 239.53
  L 109.45 175.47
  Q 109.42 175.09 110.28 174.99
  Z"
/>
<path fill="#83043d" d="
  M 109.45 175.47
  L 109.46 239.53
  L 109.28 242.56
  A 0.43 0.42 -77.7 0 1 108.71 242.93
  L 108.45 242.83
  A 1.09 1.08 9.9 0 1 107.74 241.83
  Q 107.37 217.50 107.51 208.25
  Q 107.77 191.60 107.68 178.36
  Q 107.68 177.06 108.08 175.89
  Q 108.33 175.16 109.45 175.47
  Z"
/>
</svg>