<?xml version="1.0" encoding="UTF-8" standalone="no"?>
<!DOCTYPE svg PUBLIC "-//W3C//DTD SVG 1.1//EN" "http://www.w3.org/Graphics/SVG/1.1/DTD/svg11.dtd">
<svg xmlns="http://www.w3.org/2000/svg" version="1.1" viewBox="0.00 0.00 256.00 256.00" width="128" height="128">
<g stroke-width="2.00" fill="none" stroke-linecap="butt">
<path stroke="#806c56" vector-effect="non-scaling-stroke" d="
  M 154.73 174.06
  Q 155.15 173.99 155.50 173.79"
/>
<path stroke="#806648" vector-effect="non-scaling-stroke" d="
  M 155.50 173.79
  L 156.28 173.72"
/>
<path stroke="#805c35" vector-effect="non-scaling-stroke" d="
  M 156.28 173.72
  L 158.29 174.21"
/>
<path stroke="#804d13" vector-effect="non-scaling-stroke" d="
  M 158.29 174.21
  L 158.94 174.42"
/>
<path stroke="#803301" vector-effect="non-scaling-stroke" d="
  M 158.94 174.42
  L 192.89 183.48
  A 1.20 1.20 0.0 0 0 194.40 182.32
  L 194.40 181.79
  A 1.34 1.33 -60.3 0 0 194.22 181.12
  L 182.56 160.92
  A 1.53 1.53 0.0 0 1 183.88 158.63
  L 207.60 158.63
  A 1.30 1.30 0.0 0 0 208.52 156.41
  L 198.05 145.93"
/>
<path stroke="#804d13" vector-effect="non-scaling-stroke" d="
  M 198.05 145.93
  L 185.32 133.18"
/>
<path stroke="#805c35" vector-effect="non-scaling-stroke" d="
  M 185.32 133.18
  C 183.28 131.31 179.73 128.30 182.15 125.88
  Q 186.70 121.33 191.25 116.75"
/>
<path stroke="#806648" vector-effect="non-scaling-stroke" d="
  M 191.25 116.75
  Q 199.89 108.15 208.61 99.37
  A 1.12 1.11 -43.7 0 0 208.65 97.84
  Q 207.93 97.02 206.62 97.04
  Q 203.82 97.08 201.47 97.17"
/>
<path stroke="#806c56" vector-effect="non-scaling-stroke" d="
  M 201.47 97.17
  L 181.82 96.83"
/>
<path stroke="#807569" vector-effect="non-scaling-stroke" d="
  M 181.82 96.83
  L 194.37 74.54
  A 1.44 1.43 -82.8 0 0 192.75 72.44
  L 177.06 76.67"
/>
<path stroke="#807a74" vector-effect="non-scaling-stroke" d="
  M 177.06 76.67
  L 162.08 80.71"
/>
<path stroke="#808080" vector-effect="non-scaling-stroke" d="
  M 162.08 80.71
  C 159.63 81.18 154.39 83.68 153.40 80.06
  Q 148.74 62.93 143.76 44.20
  A 1.49 1.48 52.7 0 0 141.04 43.83
  L 128.98 64.71
  A 1.14 1.13 -44.9 0 1 127.01 64.71
  L 114.98 43.89
  A 1.06 1.04 86.8 0 0 114.50 43.45
  Q 112.70 42.65 112.25 44.27
  Q 110.42 50.94 103.01 78.73
  C 102.53 80.50 101.43 82.60 99.48 82.08
  Q 71.13 74.53 63.33 72.43
  A 1.47 1.47 0.0 0 0 61.68 74.58
  L 73.48 95.02
  A 1.42 1.41 -14.8 0 1 72.24 97.14
  Q 63.81 97.09 48.69 97.15
  A 1.56 1.49 1.2 0 0 47.15 98.57
  Q 47.13 99.06 47.43 99.37
  Q 51.18 103.24 72.32 124.29
  C 74.44 126.41 75.75 128.15 73.32 130.57
  Q 60.33 143.53 47.56 156.33
  A 1.34 1.33 -67.5 0 0 48.50 158.61
  L 72.22 158.63
  A 1.47 1.46 1.7 0 1 73.68 160.17
  Q 73.67 160.36 73.38 160.90
  Q 69.78 167.48 61.98 180.72
  Q 61.29 181.87 61.55 182.49
  A 1.57 1.55 -18.3 0 0 63.41 183.41
  Q 91.46 175.91 98.93 173.90
  Q 100.79 173.39 102.22 174.96
  A 1.74 1.73 -74.1 0 1 102.60 175.65
  L 112.27 211.70
  A 1.41 1.41 0.0 0 0 114.55 212.41
  Q 114.90 212.12 115.25 211.50
  Q 121.67 200.32 126.90 191.40
  A 1.31 1.30 -44.9 0 1 129.16 191.40
  L 141.12 212.12
  A 1.42 1.42 0.0 0 0 143.72 211.77
  Q 150.37 186.92 153.35 175.88
  Q 153.67 174.72 154.73 174.06"
/>
<path stroke="#fffaf4" vector-effect="non-scaling-stroke" d="
  M 162.08 80.71
  Q 152.87 93.79 145.24 107.60"
/>
<path stroke="#808080" vector-effect="non-scaling-stroke" d="
  M 145.24 107.60
  C 142.30 108.50 138.90 110.18 137.72 105.75
  Q 131.09 80.86 129.38 74.64
  C 129.00 73.25 126.96 73.30 126.58 74.71
  Q 118.66 104.27 118.28 105.69
  C 117.86 107.30 116.73 109.18 114.98 108.72
  Q 88.11 101.62 83.02 100.15
  Q 81.69 99.77 81.04 100.71
  A 1.43 1.42 40.1 0 0 81.20 102.54
  Q 95.35 116.70 103.78 125.10
  C 105.51 126.83 106.12 128.38 104.25 130.26
  Q 96.04 138.48 81.37 153.12
  Q 80.58 153.92 80.89 154.89
  A 1.35 1.33 73.2 0 0 82.52 155.78
  Q 114.27 147.28 114.68 147.17
  A 1.62 1.60 42.1 0 1 115.41 147.14
  Q 117.57 147.57 117.89 148.76
  Q 125.66 177.55 126.49 180.87
  Q 126.79 182.05 127.79 182.27
  A 1.51 1.34 -75.9 0 0 129.42 181.16
  Q 133.13 167.27 136.82 153.52"
/>
<path stroke="#fffaf4" vector-effect="non-scaling-stroke" d="
  M 136.82 153.52
  Q 142.35 160.32 148.06 166.96
  Q 150.17 169.42 152.88 171.52"
/>
<path stroke="#ffecd5" vector-effect="non-scaling-stroke" d="
  M 152.88 171.52
  L 154.73 174.06"
/>
<path stroke="#ffd29e" vector-effect="non-scaling-stroke" d="
  M 151.16 149.82
  L 155.50 173.79"
/>
<path stroke="#807a74" vector-effect="non-scaling-stroke" d="
  M 145.24 107.60
  L 154.97 105.00"
/>
<path stroke="#806c56" vector-effect="non-scaling-stroke" d="
  M 175.53 101.58
  Q 163.67 113.82 151.67 125.91
  Q 149.68 127.91 151.55 129.96
  Q 152.82 131.34 154.04 132.53"
/>
<path stroke="#806648" vector-effect="non-scaling-stroke" d="
  M 154.04 132.53
  L 160.99 139.49"
/>
<path stroke="#805c35" vector-effect="non-scaling-stroke" d="
  M 160.99 139.49
  L 169.04 147.54"
/>
<path stroke="#804d13" vector-effect="non-scaling-stroke" d="
  M 169.04 147.54
  Q 171.87 150.36 174.83 153.33
  C 175.80 154.31 174.89 156.04 173.50 155.75
  Q 172.25 155.49 170.96 155.12"
/>
<path stroke="#805c35" vector-effect="non-scaling-stroke" d="
  M 170.96 155.12
  L 157.21 151.42"
/>
<path stroke="#806648" vector-effect="non-scaling-stroke" d="
  M 157.21 151.42
  L 151.16 149.82"
/>
<path stroke="#806c56" vector-effect="non-scaling-stroke" d="
  M 151.16 149.82
  L 142.63 147.56"
/>
<path stroke="#807a74" vector-effect="non-scaling-stroke" d="
  M 142.63 147.56
  C 137.89 145.67 137.58 150.59 136.82 153.52"
/>
<path stroke="#ffe6ca" vector-effect="non-scaling-stroke" d="
  M 142.63 147.56
  L 152.88 171.52"
/>
<path stroke="#ffc27d" vector-effect="non-scaling-stroke" d="
  M 157.21 151.42
  L 156.28 173.72"
/>
<path stroke="#ff8013" vector-effect="non-scaling-stroke" d="
  M 198.05 145.93
  L 158.94 174.42"
/>
<path stroke="#ffa947" vector-effect="non-scaling-stroke" d="
  M 158.29 174.21
  Q 163.89 164.12 170.96 155.12"
/>
<path stroke="#ffc27d" vector-effect="non-scaling-stroke" d="
  M 191.25 116.75
  Q 177.60 125.33 168.93 131.68
  Q 165.01 134.55 160.99 139.49"
/>
<path stroke="#ffa947" vector-effect="non-scaling-stroke" d="
  M 185.32 133.18
  Q 175.78 138.91 169.04 147.54"
/>
<path stroke="#ffe1be" vector-effect="non-scaling-stroke" d="
  M 181.82 96.83
  Q 178.62 98.33 175.53 101.58"
/>
<path stroke="#807569" vector-effect="non-scaling-stroke" d="
  M 175.53 101.58
  Q 174.62 99.75 172.99 100.18
  Q 164.06 102.59 154.97 105.00"
/>
<path stroke="#ffefdd" vector-effect="non-scaling-stroke" d="
  M 154.97 105.00
  L 177.06 76.67"
/>
<path stroke="#ffd29e" vector-effect="non-scaling-stroke" d="
  M 201.47 97.17
  Q 176.37 113.44 154.04 132.53"
/>
</g>
<path fill="#000000" d="
  M 256.00 0.00
  L 256.00 256.00
  L 0.00 256.00
  L 0.00 0.00
  L 256.00 0.00
  Z
  M 154.73 174.06
  Q 155.15 173.99 155.50 173.79
  L 156.28 173.72
  L 158.29 174.21
  L 158.94 174.42
  L 192.89 183.48
  A 1.20 1.20 0.0 0 0 194.40 182.32
  L 194.40 181.79
  A 1.34 1.33 -60.3 0 0 194.22 181.12
  L 182.56 160.92
  A 1.53 1.53 0.0 0 1 183.88 158.63
  L 207.60 158.63
  A 1.30 1.30 0.0 0 0 208.52 156.41
  L 198.05 145.93
  L 185.32 133.18
  C 183.28 131.31 179.73 128.30 182.15 125.88
  Q 186.70 121.33 191.25 116.75
  Q 199.89 108.15 208.61 99.37
  A 1.12 1.11 -43.7 0 0 208.65 97.84
  Q 207.93 97.02 206.62 97.04
  Q 203.82 97.08 201.47 97.17
  L 181.82 96.83
  L 194.37 74.54
  A 1.44 1.43 -82.8 0 0 192.75 72.44
  L 177.06 76.67
  L 162.08 80.71
  C 159.63 81.18 154.39 83.68 153.40 80.06
  Q 148.74 62.93 143.76 44.20
  A 1.49 1.48 52.7 0 0 141.04 43.83
  L 128.98 64.71
  A 1.14 1.13 -44.9 0 1 127.01 64.71
  L 114.98 43.89
  A 1.06 1.04 86.8 0 0 114.50 43.45
  Q 112.70 42.65 112.25 44.27
  Q 110.42 50.94 103.01 78.73
  C 102.53 80.50 101.43 82.60 99.48 82.08
  Q 71.13 74.53 63.33 72.43
  A 1.47 1.47 0.0 0 0 61.68 74.58
  L 73.48 95.02
  A 1.42 1.41 -14.8 0 1 72.24 97.14
  Q 63.81 97.09 48.69 97.15
  A 1.56 1.49 1.2 0 0 47.15 98.57
  Q 47.13 99.06 47.43 99.37
  Q 51.18 103.24 72.32 124.29
  C 74.44 126.41 75.75 128.15 73.32 130.57
  Q 60.33 143.53 47.56 156.33
  A 1.34 1.33 -67.5 0 0 48.50 158.61
  L 72.22 158.63
  A 1.47 1.46 1.7 0 1 73.68 160.17
  Q 73.67 160.36 73.38 160.90
  Q 69.78 167.48 61.98 180.72
  Q 61.29 181.87 61.55 182.49
  A 1.57 1.55 -18.3 0 0 63.41 183.41
  Q 91.46 175.91 98.93 173.90
  Q 100.79 173.39 102.22 174.96
  A 1.74 1.73 -74.1 0 1 102.60 175.65
  L 112.27 211.70
  A 1.41 1.41 0.0 0 0 114.55 212.41
  Q 114.90 212.12 115.25 211.50
  Q 121.67 200.32 126.90 191.40
  A 1.31 1.30 -44.9 0 1 129.16 191.40
  L 141.12 212.12
  A 1.42 1.42 0.0 0 0 143.72 211.77
  Q 150.37 186.92 153.35 175.88
  Q 153.67 174.72 154.73 174.06
  Z"
/>
<path fill="#ffffff" d="
  M 162.08 80.71
  Q 152.87 93.79 145.24 107.60
  C 142.30 108.50 138.90 110.18 137.72 105.75
  Q 131.09 80.86 129.38 74.64
  C 129.00 73.25 126.96 73.30 126.58 74.71
  Q 118.66 104.27 118.28 105.69
  C 117.86 107.30 116.73 109.18 114.98 108.72
  Q 88.11 101.62 83.02 100.15
  Q 81.69 99.77 81.04 100.71
  A 1.43 1.42 40.1 0 0 81.20 102.54
  Q 95.35 116.70 103.78 125.10
  C 105.51 126.83 106.12 128.38 104.25 130.26
  Q 96.04 138.48 81.37 153.12
  Q 80.58 153.92 80.89 154.89
  A 1.35 1.33 73.2 0 0 82.52 155.78
  Q 114.27 147.28 114.68 147.17
  A 1.62 1.60 42.1 0 1 115.41 147.14
  Q 117.57 147.57 117.89 148.76
  Q 125.66 177.55 126.49 180.87
  Q 126.79 182.05 127.79 182.27
  A 1.51 1.34 -75.9 0 0 129.42 181.16
  Q 133.13 167.27 136.82 153.52
  Q 142.35 160.32 148.06 166.96
  Q 150.17 169.42 152.88 171.52
  L 154.73 174.06
  Q 153.67 174.72 153.35 175.88
  Q 150.37 186.92 143.72 211.77
  A 1.42 1.42 0.0 0 1 141.12 212.12
  L 129.16 191.40
  A 1.31 1.30 -44.9 0 0 126.90 191.40
  Q 121.67 200.32 115.25 211.50
  Q 114.90 212.12 114.55 212.41
  A 1.41 1.41 0.0 0 1 112.27 211.70
  L 102.60 175.65
  A 1.74 1.73 -74.1 0 0 102.22 174.96
  Q 100.79 173.39 98.93 173.90
  Q 91.46 175.91 63.41 183.41
  A 1.57 1.55 -18.3 0 1 61.55 182.49
  Q 61.29 181.87 61.98 180.72
  Q 69.78 167.48 73.38 160.90
  Q 73.67 160.36 73.68 160.17
  A 1.47 1.46 1.7 0 0 72.22 158.63
  L 48.50 158.61
  A 1.34 1.33 -67.5 0 1 47.56 156.33
  Q 60.33 143.53 73.32 130.57
  C 75.75 128.15 74.44 126.41 72.32 124.29
  Q 51.18 103.24 47.43 99.37
  Q 47.13 99.06 47.15 98.57
  A 1.56 1.49 1.2 0 1 48.69 97.15
  Q 63.81 97.09 72.24 97.14
  A 1.42 1.41 -14.8 0 0 73.48 95.02
  L 61.68 74.58
  A 1.47 1.47 0.0 0 1 63.33 72.43
  Q 71.13 74.53 99.48 82.08
  C 101.43 82.60 102.53 80.50 103.01 78.73
  Q 110.42 50.94 112.25 44.27
  Q 112.70 42.65 114.50 43.45
  A 1.06 1.04 86.8 0 1 114.98 43.89
  L 127.01 64.71
  A 1.14 1.13 -44.9 0 0 128.98 64.71
  L 141.04 43.83
  A 1.49 1.48 52.7 0 1 143.76 44.20
  Q 148.74 62.93 153.40 80.06
  C 154.39 83.68 159.63 81.18 162.08 80.71
  Z"
/>
<path fill="#ffead1" d="
  M 181.82 96.83
  Q 178.62 98.33 175.53 101.58
  Q 174.62 99.75 172.99 100.18
  Q 164.06 102.59 154.97 105.00
  L 177.06 76.67
  L 192.75 72.44
  A 1.44 1.43 -82.8 0 1 194.37 74.54
  L 181.82 96.83
  Z"
/>
<path fill="#000000" d="
  M 145.24 107.60
  L 154.97 105.00
  Q 164.06 102.59 172.99 100.18
  Q 174.62 99.75 175.53 101.58
  Q 163.67 113.82 151.67 125.91
  Q 149.68 127.91 151.55 129.96
  Q 152.82 131.34 154.04 132.53
  L 160.99 139.49
  L 169.04 147.54
  Q 171.87 150.36 174.83 153.33
  C 175.80 154.31 174.89 156.04 173.50 155.75
  Q 172.25 155.49 170.96 155.12
  L 157.21 151.42
  L 151.16 149.82
  L 142.63 147.56
  C 137.89 145.67 137.58 150.59 136.82 153.52
  Q 133.13 167.27 129.42 181.16
  A 1.51 1.34 -75.9 0 1 127.79 182.27
  Q 126.79 182.05 126.49 180.87
  Q 125.66 177.55 117.89 148.76
  Q 117.57 147.57 115.41 147.14
  A 1.62 1.60 42.1 0 0 114.68 147.17
  Q 114.27 147.28 82.52 155.78
  A 1.35 1.33 73.2 0 1 80.89 154.89
  Q 80.58 153.92 81.37 153.12
  Q 96.04 138.48 104.25 130.26
  C 106.12 128.38 105.51 126.83 103.78 125.10
  Q 95.35 116.70 81.20 102.54
  A 1.43 1.42 40.1 0 1 81.04 100.71
  Q 81.69 99.77 83.02 100.15
  Q 88.11 101.62 114.98 108.72
  C 116.73 109.18 117.86 107.30 118.28 105.69
  Q 118.66 104.27 126.58 74.71
  C 126.96 73.30 129.00 73.25 129.38 74.64
  Q 131.09 80.86 137.72 105.75
  C 138.90 110.18 142.30 108.50 145.24 107.60
  Z"
/>
<path fill="#fff4e8" d="
  M 177.06 76.67
  L 154.97 105.00
  L 145.24 107.60
  Q 152.87 93.79 162.08 80.71
  L 177.06 76.67
  Z"
/>
<path fill="#ffd8ab" d="
  M 181.82 96.83
  L 201.47 97.17
  Q 176.37 113.44 154.04 132.53
  Q 152.82 131.34 151.55 129.96
  Q 149.68 127.91 151.67 125.91
  Q 163.67 113.82 175.53 101.58
  Q 178.62 98.33 181.82 96.83
  Z"
/>
<path fill="#ffcb90" d="
  M 191.25 116.75
  Q 177.60 125.33 168.93 131.68
  Q 165.01 134.55 160.99 139.49
  L 154.04 132.53
  Q 176.37 113.44 201.47 97.17
  Q 203.82 97.08 206.62 97.04
  Q 207.93 97.02 208.65 97.84
  A 1.12 1.11 -43.7 0 1 208.61 99.37
  Q 199.89 108.15 191.25 116.75
  Z"
/>
<path fill="#ffb869" d="
  M 191.25 116.75
  Q 186.70 121.33 182.15 125.88
  C 179.73 128.30 183.28 131.31 185.32 133.18
  Q 175.78 138.91 169.04 147.54
  L 160.99 139.49
  Q 165.01 134.55 168.93 131.68
  Q 177.60 125.33 191.25 116.75
  Z"
/>
<path fill="#ff9925" d="
  M 185.32 133.18
  L 198.05 145.93
  L 158.94 174.42
  L 158.29 174.21
  Q 163.89 164.12 170.96 155.12
  Q 172.25 155.49 173.50 155.75
  C 174.89 156.04 175.80 154.31 174.83 153.33
  Q 171.87 150.36 169.04 147.54
  Q 175.78 138.91 185.32 133.18
  Z"
/>
<path fill="#ff6601" d="
  M 158.94 174.42
  L 198.05 145.93
  L 208.52 156.41
  A 1.30 1.30 0.0 0 1 207.60 158.63
  L 183.88 158.63
  A 1.53 1.53 0.0 0 0 182.56 160.92
  L 194.22 181.12
  A 1.34 1.33 -60.3 0 1 194.40 181.79
  L 194.40 182.32
  A 1.20 1.20 0.0 0 1 192.89 183.48
  L 158.94 174.42
  Z"
/>
<path fill="#fff4e8" d="
  M 142.63 147.56
  L 152.88 171.52
  Q 150.17 169.42 148.06 166.96
  Q 142.35 160.32 136.82 153.52
  C 137.58 150.59 137.89 145.67 142.63 147.56
  Z"
/>
<path fill="#ffd8ab" d="
  M 151.16 149.82
  L 155.50 173.79
  Q 155.15 173.99 154.73 174.06
  L 152.88 171.52
  L 142.63 147.56
  L 151.16 149.82
  Z"
/>
<path fill="#ffcb90" d="
  M 157.21 151.42
  L 156.28 173.72
  L 155.50 173.79
  L 151.16 149.82
  L 157.21 151.42
  Z"
/>
<path fill="#ffb869" d="
  M 170.96 155.12
  Q 163.89 164.12 158.29 174.21
  L 156.28 173.72
  L 157.21 151.42
  L 170.96 155.12
  Z"
/>
</svg>