<?xml version="1.0" encoding="UTF-8" standalone="no"?>
<!DOCTYPE svg PUBLIC "-//W3C//DTD SVG 1.1//EN" "http://www.w3.org/Graphics/SVG/1.1/DTD/svg11.dtd">
<svg xmlns="http://www.w3.org/2000/svg" version="1.1" viewBox="0.00 0.00 256.00 256.00" width="128" height="128">
<g stroke-width="2.00" fill="none" stroke-linecap="butt">
<path stroke="#808080" vector-effect="non-scaling-stroke" d="
  M 256.00 38.42
  C 255.37 36.18 255.75 33.72 253.24 32.53
  A 1.79 1.69 52.4 0 0 252.25 32.37
  Q 247.46 32.99 241.58 32.53
  C 234.10 31.96 228.25 32.04 219.50 32.04
  Q 122.51 32.10 30.25 31.91
  Q 23.72 31.89 12.44 32.54
  Q 10.38 32.65 8.55 32.54
  C 6.01 32.37 3.21 31.87 1.95 32.75
  C 0.37 33.85 0.30 37.31 0.00 39.12"
/>
<path stroke="#808080" vector-effect="non-scaling-stroke" d="
  M 256.00 201.46
  L 255.29 206.68
  A 1.70 1.69 -84.8 0 1 253.54 208.15
  C 245.42 207.83 237.24 209.03 229.12 209.04
  Q 140.42 209.19 26.25 209.14
  Q 25.03 209.14 11.48 208.56
  C 7.97 208.40 4.95 208.97 1.49 207.79
  A 0.82 0.81 3.8 0 1 0.94 207.17
  L 0.00 202.26"
/>
<path stroke="#808080" vector-effect="non-scaling-stroke" d="
  M 19.69 191.53
  Q 21.89 192.18 27.75 192.10
  Q 67.34 191.55 145.49 192.23
  Q 171.35 192.45 179.51 192.40
  Q 211.11 192.22 213.52 192.35
  Q 219.28 192.64 233.05 192.01
  Q 239.58 191.71 240.40 186.92
  C 241.04 183.22 242.04 177.88 236.51 177.43
  C 230.52 176.95 220.98 176.48 213.15 176.56
  Q 207.42 176.61 170.92 176.60
  C 163.26 176.59 157.14 175.73 149.34 175.46
  Q 145.52 175.33 143.80 172.20
  A 1.92 1.83 33.1 0 1 143.57 171.23
  C 143.71 167.46 143.55 162.09 147.53 162.11
  Q 155.90 162.16 164.33 160.69
  C 166.56 160.30 168.76 160.38 171.00 160.37
  Q 189.67 160.29 215.09 160.44
  C 222.32 160.48 229.61 159.51 236.67 159.61
  C 241.12 159.67 240.56 153.47 240.57 150.49
  Q 240.59 145.61 235.76 145.45
  Q 233.03 145.36 224.41 144.72
  Q 220.43 144.43 213.09 144.44
  Q 177.20 144.49 168.51 144.54
  Q 164.86 144.55 160.61 142.97
  A 7.20 7.19 58.0 0 0 158.71 142.53
  Q 156.28 142.31 150.33 142.66
  C 147.13 142.86 144.68 141.81 144.39 138.47
  Q 144.09 134.98 144.98 132.43
  A 3.15 3.15 0.0 0 1 148.11 130.33
  Q 155.07 130.70 161.66 129.34
  C 165.56 128.53 168.76 128.24 172.25 128.25
  Q 194.37 128.36 215.37 128.40
  C 222.54 128.42 229.47 127.49 236.61 127.59
  C 240.95 127.66 240.46 122.03 240.52 119.06
  C 240.59 115.64 239.56 113.60 235.99 113.49
  C 229.19 113.27 221.26 112.40 213.66 112.52
  Q 204.65 112.67 168.03 112.62
  Q 166.03 112.62 159.59 110.68
  A 7.40 7.36 -37.0 0 0 157.34 110.37
  Q 150.69 110.51 150.00 110.51
  C 143.74 110.55 144.57 104.49 145.61 100.18
  A 1.67 1.66 75.8 0 1 146.10 99.35
  Q 147.29 98.22 149.00 98.30
  Q 154.22 98.54 156.99 98.59
  Q 159.37 98.63 165.17 96.70
  A 5.06 5.05 -57.6 0 1 166.11 96.49
  Q 170.47 95.93 171.50 95.92
  Q 192.38 95.77 213.16 96.10
  Q 219.77 96.21 224.87 95.97
  Q 236.31 95.43 236.54 95.41
  Q 240.44 95.06 240.49 91.71
  Q 240.69 75.82 241.05 53.69
  A 3.69 3.69 0.0 0 0 238.48 50.12
  Q 235.85 49.28 232.00 49.04
  C 222.66 48.46 209.19 49.10 200.33 49.10
  Q 79.40 49.08 48.88 49.12
  Q 35.78 49.14 24.66 48.87
  C 21.31 48.79 16.11 50.22 16.42 54.52
  C 16.62 57.21 16.87 59.61 16.47 62.47
  Q 15.82 66.99 15.88 70.75
  Q 15.94 74.41 15.55 77.10
  C 14.83 82.09 15.18 84.99 15.07 90.64
  Q 15.03 92.70 15.50 97.84
  Q 16.46 108.62 16.42 117.50
  Q 16.27 148.51 16.47 158.20
  C 16.59 164.00 15.78 170.82 16.36 176.41
  C 16.58 178.56 16.12 181.45 16.11 183.25
  C 16.11 187.41 15.39 190.26 19.69 191.53"
/>
</g>
<path fill="#ffffff" d="
  M 256.00 0.00
  L 256.00 38.42
  C 255.37 36.18 255.75 33.72 253.24 32.53
  A 1.79 1.69 52.4 0 0 252.25 32.37
  Q 247.46 32.99 241.58 32.53
  C 234.10 31.96 228.25 32.04 219.50 32.04
  Q 122.51 32.10 30.25 31.91
  Q 23.72 31.89 12.44 32.54
  Q 10.38 32.65 8.55 32.54
  C 6.01 32.37 3.21 31.87 1.95 32.75
  C 0.37 33.85 0.30 37.31 0.00 39.12
  L 0.00 0.00
  L 256.00 0.00
  Z"
/>
<path fill="#000000" d="
  M 256.00 38.42
  L 256.00 201.46
  L 255.29 206.68
  A 1.70 1.69 -84.8 0 1 253.54 208.15
  C 245.42 207.83 237.24 209.03 229.12 209.04
  Q 140.42 209.19 26.25 209.14
  Q 25.03 209.14 11.48 208.56
  C 7.97 208.40 4.95 208.97 1.49 207.79
  A 0.82 0.81 3.8 0 1 0.94 207.17
  L 0.00 202.26
  L 0.00 39.12
  C 0.30 37.31 0.37 33.85 1.95 32.75
  C 3.21 31.87 6.01 32.37 8.55 32.54
  Q 10.38 32.65 12.44 32.54
  Q 23.72 31.89 30.25 31.91
  Q 122.51 32.10 219.50 32.04
  C 228.25 32.04 234.10 31.96 241.58 32.53
  Q 247.46 32.99 252.25 32.37
  A 1.79 1.69 52.4 0 1 253.24 32.53
  C 255.75 33.72 255.37 36.18 256.00 38.42
  Z
  M 19.69 191.53
  Q 21.89 192.18 27.75 192.10
  Q 67.34 191.55 145.49 192.23
  Q 171.35 192.45 179.51 192.40
  Q 211.11 192.22 213.52 192.35
  Q 219.28 192.64 233.05 192.01
  Q 239.58 191.71 240.40 186.92
  C 241.04 183.22 242.04 177.88 236.51 177.43
  C 230.52 176.95 220.98 176.48 213.15 176.56
  Q 207.42 176.61 170.92 176.60
  C 163.26 176.59 157.14 175.73 149.34 175.46
  Q 145.52 175.33 143.80 172.20
  A 1.92 1.83 33.1 0 1 143.57 171.23
  C 143.71 167.46 143.55 162.09 147.53 162.11
  Q 155.90 162.16 164.33 160.69
  C 166.56 160.30 168.76 160.38 171.00 160.37
  Q 189.67 160.29 215.09 160.44
  C 222.32 160.48 229.61 159.51 236.67 159.61
  C 241.12 159.67 240.56 153.47 240.57 150.49
  Q 240.59 145.61 235.76 145.45
  Q 233.03 145.36 224.41 144.72
  Q 220.43 144.43 213.09 144.44
  Q 177.20 144.49 168.51 144.54
  Q 164.86 144.55 160.61 142.97
  A 7.20 7.19 58.0 0 0 158.71 142.53
  Q 156.28 142.31 150.33 142.66
  C 147.13 142.86 144.68 141.81 144.39 138.47
  Q 144.09 134.98 144.98 132.43
  A 3.15 3.15 0.0 0 1 148.11 130.33
  Q 155.07 130.70 161.66 129.34
  C 165.56 128.53 168.76 128.24 172.25 128.25
  Q 194.37 128.36 215.37 128.40
  C 222.54 128.42 229.47 127.49 236.61 127.59
  C 240.95 127.66 240.46 122.03 240.52 119.06
  C 240.59 115.64 239.56 113.60 235.99 113.49
  C 229.19 113.27 221.26 112.40 213.66 112.52
  Q 204.65 112.67 168.03 112.62
  Q 166.03 112.62 159.59 110.68
  A 7.40 7.36 -37.0 0 0 157.34 110.37
  Q 150.69 110.51 150.00 110.51
  C 143.74 110.55 144.57 104.49 145.61 100.18
  A 1.67 1.66 75.8 0 1 146.10 99.35
  Q 147.29 98.22 149.00 98.30
  Q 154.22 98.54 156.99 98.59
  Q 159.37 98.63 165.17 96.70
  A 5.06 5.05 -57.6 0 1 166.11 96.49
  Q 170.47 95.93 171.50 95.92
  Q 192.38 95.77 213.16 96.10
  Q 219.77 96.21 224.87 95.97
  Q 236.31 95.43 236.54 95.41
  Q 240.44 95.06 240.49 91.71
  Q 240.69 75.82 241.05 53.69
  A 3.69 3.69 0.0 0 0 238.48 50.12
  Q 235.85 49.28 232.00 49.04
  C 222.66 48.46 209.19 49.10 200.33 49.10
  Q 79.40 49.08 48.88 49.12
  Q 35.78 49.14 24.66 48.87
  C 21.31 48.79 16.11 50.22 16.42 54.52
  C 16.62 57.21 16.87 59.61 16.47 62.47
  Q 15.82 66.99 15.88 70.75
  Q 15.94 74.41 15.55 77.10
  C 14.83 82.09 15.18 84.99 15.07 90.64
  Q 15.03 92.70 15.50 97.84
  Q 16.46 108.62 16.42 117.50
  Q 16.27 148.51 16.47 158.20
  C 16.59 164.00 15.78 170.82 16.36 176.41
  C 16.58 178.56 16.12 181.45 16.11 183.25
  C 16.11 187.41 15.39 190.26 19.69 191.53
  Z"
/>
<path fill="#ffffff" d="
  M 19.69 191.53
  C 15.39 190.26 16.11 187.41 16.11 183.25
  C 16.12 181.45 16.58 178.56 16.36 176.41
  C 15.78 170.82 16.59 164.00 16.47 158.20
  Q 16.27 148.51 16.42 117.50
  Q 16.46 108.62 15.50 97.84
  Q 15.03 92.70 15.07 90.64
  C 15.18 84.99 14.83 82.09 15.55 77.10
  Q 15.94 74.41 15.88 70.75
  Q 15.82 66.99 16.47 62.47
  C 16.87 59.61 16.62 57.21 16.42 54.52
  C 16.11 50.22 21.31 48.79 24.66 48.87
  Q 35.78 49.14 48.88 49.12
  Q 79.40 49.08 200.33 49.10
  C 209.19 49.10 222.66 48.46 232.00 49.04
  Q 235.85 49.28 238.48 50.12
  A 3.69 3.69 0.0 0 1 241.05 53.69
  Q 240.69 75.82 240.49 91.71
  Q 240.44 95.06 236.54 95.41
  Q 236.31 95.43 224.87 95.97
  Q 219.77 96.21 213.16 96.10
  Q 192.38 95.77 171.50 95.92
  Q 170.47 95.93 166.11 96.49
  A 5.06 5.05 -57.6 0 0 165.17 96.70
  Q 159.37 98.63 156.99 98.59
  Q 154.22 98.54 149.00 98.30
  Q 147.29 98.22 146.10 99.35
  A 1.67 1.66 75.8 0 0 145.61 100.18
  C 144.57 104.49 143.74 110.55 150.00 110.51
  Q 150.69 110.51 157.34 110.37
  A 7.40 7.36 -37.0 0 1 159.59 110.68
  Q 166.03 112.62 168.03 112.62
  Q 204.65 112.67 213.66 112.52
  C 221.26 112.40 229.19 113.27 235.99 113.49
  C 239.56 113.60 240.59 115.64 240.52 119.06
  C 240.46 122.03 240.95 127.66 236.61 127.59
  C 229.47 127.49 222.54 128.42 215.37 128.40
  Q 194.37 128.36 172.25 128.25
  C 168.76 128.24 165.56 128.53 161.66 129.34
  Q 155.07 130.70 148.11 130.33
  A 3.15 3.15 0.0 0 0 144.98 132.43
  Q 144.09 134.98 144.39 138.47
  C 144.68 141.81 147.13 142.86 150.33 142.66
  Q 156.28 142.31 158.71 142.53
  A 7.20 7.19 58.0 0 1 160.61 142.97
  Q 164.86 144.55 168.51 144.54
  Q 177.20 144.49 213.09 144.44
  Q 220.43 144.43 224.41 144.72
  Q 233.03 145.36 235.76 145.45
  Q 240.59 145.61 240.57 150.49
  C 240.56 153.47 241.12 159.67 236.67 159.61
  C 229.61 159.51 222.32 160.48 215.09 160.44
  Q 189.67 160.29 171.00 160.37
  C 168.76 160.38 166.56 160.30 164.33 160.69
  Q 155.90 162.16 147.53 162.11
  C 143.55 162.09 143.71 167.46 143.57 171.23
  A 1.92 1.83 33.1 0 0 143.80 172.20
  Q 145.52 175.33 149.34 175.46
  C 157.14 175.73 163.26 176.59 170.92 176.60
  Q 207.42 176.61 213.15 176.56
  C 220.98 176.48 230.52 176.95 236.51 177.43
  C 242.04 177.88 241.04 183.22 240.40 186.92
  Q 239.58 191.71 233.05 192.01
  Q 219.28 192.64 213.52 192.35
  Q 211.11 192.22 179.51 192.40
  Q 171.35 192.45 145.49 192.23
  Q 67.34 191.55 27.75 192.10
  Q 21.89 192.18 19.69 191.53
  Z"
/>
<path fill="#ffffff" d="
  M 256.00 201.46
  L 256.00 256.00
  L 0.00 256.00
  L 0.00 202.26
  L 0.94 207.17
  A 0.82 0.81 3.8 0 0 1.49 207.79
  C 4.95 208.97 7.97 208.40 11.48 208.56
  Q 25.03 209.14 26.25 209.14
  Q 140.42 209.19 229.12 209.04
  C 237.24 209.03 245.42 207.83 253.54 208.15
  A 1.70 1.69 -84.8 0 0 255.29 206.68
  L 256.00 201.46
  Z"
/>
</svg>