<?xml version="1.0" encoding="UTF-8" standalone="no"?>
<!DOCTYPE svg PUBLIC "-//W3C//DTD SVG 1.1//EN" "http://www.w3.org/Graphics/SVG/1.1/DTD/svg11.dtd">
<svg xmlns="http://www.w3.org/2000/svg" version="1.1" viewBox="0.00 0.00 180.00 180.00" width="128" height="128">
<g stroke-width="2.00" fill="none" stroke-linecap="butt">
<path stroke="#808080" vector-effect="non-scaling-stroke" d="
  M 82.45 52.63
  A 0.43 0.43 0.0 0 0 82.02 52.20
  L 67.38 52.20
  A 0.43 0.43 0.0 0 0 66.95 52.63
  L 66.95 127.39
  A 0.43 0.43 0.0 0 0 67.38 127.82
  L 82.02 127.82
  A 0.43 0.43 0.0 0 0 82.45 127.39
  L 82.45 52.63"
/>
<path stroke="#808080" vector-effect="non-scaling-stroke" d="
  M 113.05 52.59
  A 0.40 0.40 0.0 0 0 112.65 52.19
  L 97.97 52.19
  A 0.40 0.40 0.0 0 0 97.57 52.59
  L 97.57 127.41
  A 0.40 0.40 0.0 0 0 97.97 127.81
  L 112.65 127.81
  A 0.40 0.40 0.0 0 0 113.05 127.41
  L 113.05 52.59"
/>
</g>
<path fill="#ffffff" d="
  M 180.00 0.00
  L 180.00 180.00
  L 0.00 180.00
  L 0.00 0.00
  L 180.00 0.00
  Z
  M 82.45 52.63
  A 0.43 0.43 0.0 0 0 82.02 52.20
  L 67.38 52.20
  A 0.43 0.43 0.0 0 0 66.95 52.63
  L 66.95 127.39
  A 0.43 0.43 0.0 0 0 67.38 127.82
  L 82.02 127.82
  A 0.43 0.43 0.0 0 0 82.45 127.39
  L 82.45 52.63
  Z
  M 113.05 52.59
  A 0.40 0.40 0.0 0 0 112.65 52.19
  L 97.97 52.19
  A 0.40 0.40 0.0 0 0 97.57 52.59
  L 97.57 127.41
  A 0.40 0.40 0.0 0 0 97.97 127.81
  L 112.65 127.81
  A 0.40 0.40 0.0 0 0 113.05 127.41
  L 113.05 52.59
  Z"
/>
<rect fill="#000000" x="66.95" y="52.20" width="15.50" height="75.62" rx="0.43"/>
<rect fill="#000000" x="97.57" y="52.19" width="15.48" height="75.62" rx="0.40"/>
</svg>