<?xml version="1.0" encoding="UTF-8" standalone="no"?>
<!DOCTYPE svg PUBLIC "-//W3C//DTD SVG 1.1//EN" "http://www.w3.org/Graphics/SVG/1.1/DTD/svg11.dtd">
<svg xmlns="http://www.w3.org/2000/svg" version="1.1" viewBox="0.00 0.00 256.00 256.00" width="128" height="128">
<g stroke-width="2.00" fill="none" stroke-linecap="butt">
<path stroke="#d59eb2" vector-effect="non-scaling-stroke" d="
  M 184.85 64.80
  A 2.01 2.01 0.0 0 0 182.84 62.79
  L 72.34 62.79
  A 2.01 2.01 0.0 0 0 70.33 64.80
  L 70.33 93.44
  A 2.01 2.01 0.0 0 0 72.34 95.45
  L 182.84 95.45
  A 2.01 2.01 0.0 0 0 184.85 93.44
  L 184.85 64.80"
/>
<path stroke="#8fa3c1" vector-effect="non-scaling-stroke" d="
  M 127.50 116.78
  A 1.59 1.59 0.0 0 0 125.91 115.19
  L 71.89 115.19
  A 1.59 1.59 0.0 0 0 70.30 116.78
  L 70.30 146.62
  A 1.59 1.59 0.0 0 0 71.89 148.21
  L 125.91 148.21
  A 1.59 1.59 0.0 0 0 127.50 146.62
  L 127.50 116.78"
/>
<path stroke="#8bc2bf" vector-effect="non-scaling-stroke" d="
  M 184.84 169.29
  A 1.52 1.52 0.0 0 0 183.32 167.77
  L 71.82 167.77
  A 1.52 1.52 0.0 0 0 70.30 169.29
  L 70.30 198.85
  A 1.52 1.52 0.0 0 0 71.82 200.37
  L 183.32 200.37
  A 1.52 1.52 0.0 0 0 184.84 198.85
  L 184.84 169.29"
/>
</g>
<path fill="#ffffff" d="
  M 251.87 128.49
  A 123.36 123.36 0.0 0 1 128.51 251.85
  A 123.36 123.36 0.0 0 1 5.15 128.49
  A 123.36 123.36 0.0 0 1 128.51 5.13
  A 123.36 123.36 0.0 0 1 251.87 128.49
  Z
  M 184.85 64.80
  A 2.01 2.01 0.0 0 0 182.84 62.79
  L 72.34 62.79
  A 2.01 2.01 0.0 0 0 70.33 64.80
  L 70.33 93.44
  A 2.01 2.01 0.0 0 0 72.34 95.45
  L 182.84 95.45
  A 2.01 2.01 0.0 0 0 184.85 93.44
  L 184.85 64.80
  Z
  M 127.50 116.78
  A 1.59 1.59 0.0 0 0 125.91 115.19
  L 71.89 115.19
  A 1.59 1.59 0.0 0 0 70.30 116.78
  L 70.30 146.62
  A 1.59 1.59 0.0 0 0 71.89 148.21
  L 125.91 148.21
  A 1.59 1.59 0.0 0 0 127.50 146.62
  L 127.50 116.78
  Z
  M 184.84 169.29
  A 1.52 1.52 0.0 0 0 183.32 167.77
  L 71.82 167.77
  A 1.52 1.52 0.0 0 0 70.30 169.29
  L 70.30 198.85
  A 1.52 1.52 0.0 0 0 71.82 200.37
  L 183.32 200.37
  A 1.52 1.52 0.0 0 0 184.84 198.85
  L 184.84 169.29
  Z"
/>
<rect fill="#aa3c64" x="70.33" y="62.79" width="114.52" height="32.66" rx="2.01"/>
<rect fill="#1e4682" x="70.30" y="115.19" width="57.20" height="33.02" rx="1.59"/>
<rect fill="#17847e" x="70.30" y="167.77" width="114.54" height="32.60" rx="1.52"/>
</svg>