<?xml version="1.0" encoding="UTF-8" standalone="no"?>
<!DOCTYPE svg PUBLIC "-//W3C//DTD SVG 1.1//EN" "http://www.w3.org/Graphics/SVG/1.1/DTD/svg11.dtd">
<svg xmlns="http://www.w3.org/2000/svg" version="1.1" viewBox="0.00 0.00 256.00 256.00" width="128" height="128">
<path fill="#16bac4" d="
  M 250.63 3.49
  Q 249.50 7.80 246.98 11.47
  Q 239.76 21.98 217.62 55.49
  C 173.33 122.52 127.64 190.85 94.72 240.23
  Q 92.45 243.64 90.70 245.96
  C 82.20 257.17 65.48 258.36 57.32 245.93
  Q 53.50 240.11 49.89 232.15
  Q 31.67 191.96 9.43 143.42
  Q 6.28 136.56 6.37 129.32
  A 2.76 2.44 84.6 0 1 8.28 126.71
  C 12.19 125.81 18.21 130.90 21.05 133.72
  C 25.90 138.55 31.17 142.80 36.44 148.15
  Q 48.05 159.95 51.91 163.58
  Q 55.74 167.18 60.94 170.01
  C 75.01 177.67 89.69 175.79 102.20 166.65
  Q 105.32 164.36 111.60 157.14
  Q 148.23 115.03 154.58 107.82
  Q 184.63 73.70 238.03 12.78
  Q 238.94 11.74 246.17 4.18
  Q 247.54 2.75 249.46 2.29
  A 0.98 0.98 0.0 0 1 250.63 3.49
  Z"
/>
</svg>