<?xml version="1.0" encoding="UTF-8" standalone="no"?>
<!DOCTYPE svg PUBLIC "-//W3C//DTD SVG 1.1//EN" "http://www.w3.org/Graphics/SVG/1.1/DTD/svg11.dtd">
<svg xmlns="http://www.w3.org/2000/svg" version="1.1" viewBox="0.00 0.00 180.00 180.00" width="128" height="128">
<path fill="#6e54d7" d="
  M 89.64 0.00
  Q 123.31 3.08 140.38 30.63
  C 157.19 57.75 150.43 93.74 125.49 113.57
  A 1.81 1.81 0.0 0 0 125.28 116.21
  Q 132.83 124.52 141.87 118.98
  A 6.17 5.77 -80.6 0 0 142.77 118.29
  Q 145.87 115.33 146.24 115.12
  C 152.12 111.86 158.51 115.97 157.94 122.73
  C 157.73 125.15 155.94 127.03 154.09 128.84
  C 143.91 138.75 128.00 139.20 117.26 129.94
  A 0.51 0.51 0.0 0 0 116.44 130.16
  Q 116.30 130.55 116.41 131.12
  Q 119.94 148.78 115.52 165.01
  Q 114.04 170.46 112.87 171.89
  C 108.62 177.05 100.88 175.38 99.23 169.09
  Q 98.71 167.12 100.24 162.09
  Q 104.68 147.48 100.73 132.09
  A 0.71 0.70 58.3 0 0 99.52 131.79
  Q 99.33 132.02 99.34 132.54
  Q 99.62 158.30 83.46 177.99
  Q 82.45 179.22 79.59 180.00
  L 77.04 180.00
  Q 69.90 177.92 70.68 170.85
  A 4.34 4.21 64.8 0 1 71.27 169.13
  Q 72.25 167.51 74.77 163.79
  Q 84.29 149.79 83.88 132.51
  Q 83.86 131.63 83.61 131.14
  A 0.60 0.59 39.2 0 0 82.50 131.25
  C 78.88 144.95 71.59 157.02 61.06 166.47
  Q 58.25 168.99 55.67 169.13
  C 50.03 169.43 45.85 164.22 47.93 158.64
  Q 48.59 156.87 51.80 153.96
  Q 61.12 145.49 66.41 131.61
  Q 66.85 130.46 66.50 129.96
  A 0.65 0.64 -46.8 0 0 65.42 130.00
  Q 56.79 143.96 40.66 144.28
  Q 35.49 144.39 33.26 142.69
  C 27.88 138.61 29.59 131.15 35.88 129.00
  A 3.65 3.62 35.7 0 1 37.01 128.82
  Q 42.00 128.86 42.94 128.67
  Q 50.68 127.08 53.14 119.60
  A 1.18 1.17 25.3 0 0 52.65 118.25
  Q 35.74 107.51 27.88 90.50
  C 18.47 70.14 20.43 45.95 33.16 27.68
  Q 50.41 2.92 81.75 0.00
  L 89.64 0.00
  Z
  M 127.04 57.87
  A 7.98 7.98 0.0 0 0 119.06 49.89
  A 7.98 7.98 0.0 0 0 111.08 57.87
  A 7.98 7.98 0.0 0 0 119.06 65.85
  A 7.98 7.98 0.0 0 0 127.04 57.87
  Z
  M 70.51 65.88
  A 7.97 7.97 0.0 0 0 62.54 57.91
  A 7.97 7.97 0.0 0 0 54.57 65.88
  A 7.97 7.97 0.0 0 0 62.54 73.85
  A 7.97 7.97 0.0 0 0 70.51 65.88
  Z"
/>
</svg>