<?xml version="1.0" encoding="UTF-8" standalone="no"?>
<!DOCTYPE svg PUBLIC "-//W3C//DTD SVG 1.1//EN" "http://www.w3.org/Graphics/SVG/1.1/DTD/svg11.dtd">
<svg xmlns="http://www.w3.org/2000/svg" version="1.1" viewBox="0.00 0.00 180.00 180.00" width="128" height="128">
<g stroke-width="2.00" fill="none" stroke-linecap="butt">
<path stroke="#885243" vector-effect="non-scaling-stroke" d="
  M 34.36 58.63
  C 22.78 79.47 23.12 104.25 35.61 124.56"
/>
<path stroke="#886a46" vector-effect="non-scaling-stroke" d="
  M 35.61 124.56
  C 47.32 142.85 67.72 155.31 89.88 154.94
  A 0.54 0.53 89.5 0 0 90.40 154.40
  L 90.40 141.32
  A 0.61 0.60 -89.0 0 0 89.82 140.71
  Q 62.00 139.41 47.16 115.85"
/>
<path stroke="#885243" vector-effect="non-scaling-stroke" d="
  M 47.16 115.85
  Q 33.69 91.48 46.66 66.08"
/>
<path stroke="#883454" vector-effect="non-scaling-stroke" d="
  M 46.66 66.08
  Q 61.27 41.71 90.36 40.32"
/>
<path stroke="#483595" vector-effect="non-scaling-stroke" d="
  M 90.36 40.32
  Q 118.74 41.52 133.55 65.23"
/>
<path stroke="#362375" vector-effect="non-scaling-stroke" d="
  M 133.55 65.23
  Q 145.19 85.74 137.25 108.25
  Q 137.05 108.81 136.03 108.59"
/>
<path stroke="#38706b" vector-effect="non-scaling-stroke" d="
  M 136.03 108.59
  L 128.57 104.19
  A 2.50 2.40 83.0 0 1 128.03 103.75
  C 125.37 100.90 126.15 96.29 126.21 91.87
  C 126.56 68.95 107.88 52.50 85.34 55.13
  Q 82.81 55.43 81.25 56.06
  Q 79.85 56.62 77.74 56.92
  A 3.73 3.59 -63.2 0 0 76.42 57.38
  L 69.78 61.23
  A 1.55 0.45 -21.4 0 0 69.63 61.33
  Q 63.74 65.57 59.61 72.20"
/>
<path stroke="#285e67" vector-effect="non-scaling-stroke" d="
  M 59.61 72.20
  Q 50.01 89.25 58.17 106.34
  Q 62.42 115.23 71.53 120.97
  C 83.23 128.34 97.84 128.02 109.59 120.77
  A 0.49 0.49 0.0 0 0 109.72 120.05
  L 101.51 109.52
  A 0.60 0.60 0.0 0 0 100.77 109.35
  Q 90.48 114.43 81.47 109.96
  Q 73.83 106.18 70.96 99.80
  Q 66.30 89.44 72.08 79.44"
/>
<path stroke="#38706b" vector-effect="non-scaling-stroke" d="
  M 72.08 79.44
  Q 76.68 72.42 83.38 70.25
  Q 96.03 66.16 106.02 76.03
  Q 109.27 79.24 110.90 84.46
  Q 112.13 88.42 111.90 94.18
  Q 111.81 96.59 111.86 101.32
  C 111.91 106.01 112.90 108.76 115.39 112.22
  Q 116.92 114.34 122.35 117.39
  Q 131.82 122.71 141.65 128.50
  A 0.65 0.64 33.3 0 0 142.49 128.33
  Q 146.68 122.77 149.50 116.42"
/>
<path stroke="#362375" vector-effect="non-scaling-stroke" d="
  M 149.50 116.42
  Q 162.15 85.08 145.15 56.45"
/>
<path stroke="#483595" vector-effect="non-scaling-stroke" d="
  M 145.15 56.45
  Q 127.53 29.62 95.97 26.45
  Q 93.23 26.18 90.31 26.15"
/>
<path stroke="#883454" vector-effect="non-scaling-stroke" d="
  M 90.31 26.15
  Q 75.18 26.08 62.06 32.60
  Q 44.47 41.35 34.36 58.63"
/>
<path stroke="#bf60be" vector-effect="non-scaling-stroke" d="
  M 90.31 26.15
  L 90.36 40.32"
/>
<path stroke="#ff7e6c" vector-effect="non-scaling-stroke" d="
  M 46.66 66.08
  Q 41.68 61.53 34.36 58.63"
/>
<path stroke="#ffb45e" vector-effect="non-scaling-stroke" d="
  M 47.16 115.85
  Q 41.81 118.58 36.47 121.71
  Q 35.25 122.44 35.61 124.56"
/>
<path stroke="#6c4fdf" vector-effect="non-scaling-stroke" d="
  M 145.15 56.45
  L 145.46 57.86
  A 0.70 0.69 69.2 0 1 145.13 58.60
  L 133.55 65.23"
/>
<path stroke="#5d8ab4" vector-effect="non-scaling-stroke" d="
  M 136.03 108.59
  L 149.50 116.42"
/>
<path stroke="#4fc5a7" vector-effect="non-scaling-stroke" d="
  M 72.08 79.44
  Q 65.41 76.62 59.61 72.20"
/>
</g>
<path fill="#11082b" d="
  M 180.00 0.00
  L 180.00 180.00
  L 0.00 180.00
  L 0.00 0.00
  L 180.00 0.00
  Z
  M 34.36 58.63
  C 22.78 79.47 23.12 104.25 35.61 124.56
  C 47.32 142.85 67.72 155.31 89.88 154.94
  A 0.54 0.53 89.5 0 0 90.40 154.40
  L 90.40 141.32
  A 0.61 0.60 -89.0 0 0 89.82 140.71
  Q 62.00 139.41 47.16 115.85
  Q 33.69 91.48 46.66 66.08
  Q 61.27 41.71 90.36 40.32
  Q 118.74 41.52 133.55 65.23
  Q 145.19 85.74 137.25 108.25
  Q 137.05 108.81 136.03 108.59
  L 128.57 104.19
  A 2.50 2.40 83.0 0 1 128.03 103.75
  C 125.37 100.90 126.15 96.29 126.21 91.87
  C 126.56 68.95 107.88 52.50 85.34 55.13
  Q 82.81 55.43 81.25 56.06
  Q 79.85 56.62 77.74 56.92
  A 3.73 3.59 -63.2 0 0 76.42 57.38
  L 69.78 61.23
  A 1.55 0.45 -21.4 0 0 69.63 61.33
  Q 63.74 65.57 59.61 72.20
  Q 50.01 89.25 58.17 106.34
  Q 62.42 115.23 71.53 120.97
  C 83.23 128.34 97.84 128.02 109.59 120.77
  A 0.49 0.49 0.0 0 0 109.72 120.05
  L 101.51 109.52
  A 0.60 0.60 0.0 0 0 100.77 109.35
  Q 90.48 114.43 81.47 109.96
  Q 73.83 106.18 70.96 99.80
  Q 66.30 89.44 72.08 79.44
  Q 76.68 72.42 83.38 70.25
  Q 96.03 66.16 106.02 76.03
  Q 109.27 79.24 110.90 84.46
  Q 112.13 88.42 111.90 94.18
  Q 111.81 96.59 111.86 101.32
  C 111.91 106.01 112.90 108.76 115.39 112.22
  Q 116.92 114.34 122.35 117.39
  Q 131.82 122.71 141.65 128.50
  A 0.65 0.64 33.3 0 0 142.49 128.33
  Q 146.68 122.77 149.50 116.42
  Q 162.15 85.08 145.15 56.45
  Q 127.53 29.62 95.97 26.45
  Q 93.23 26.18 90.31 26.15
  Q 75.18 26.08 62.06 32.60
  Q 44.47 41.35 34.36 58.63
  Z"
/>
<path fill="#ff5f7d" d="
  M 90.31 26.15
  L 90.36 40.32
  Q 61.27 41.71 46.66 66.08
  Q 41.68 61.53 34.36 58.63
  Q 44.47 41.35 62.06 32.60
  Q 75.18 26.08 90.31 26.15
  Z"
/>
<path fill="#7e61ff" d="
  M 145.15 56.45
  L 145.46 57.86
  A 0.70 0.69 69.2 0 1 145.13 58.60
  L 133.55 65.23
  Q 118.74 41.52 90.36 40.32
  L 90.31 26.15
  Q 93.23 26.18 95.97 26.45
  Q 127.53 29.62 145.15 56.45
  Z"
/>
<path fill="#5fd7aa" d="
  M 136.03 108.59
  L 149.50 116.42
  Q 146.68 122.77 142.49 128.33
  A 0.65 0.64 33.3 0 1 141.65 128.50
  Q 131.82 122.71 122.35 117.39
  Q 116.92 114.34 115.39 112.22
  C 112.90 108.76 111.91 106.01 111.86 101.32
  Q 111.81 96.59 111.90 94.18
  Q 112.13 88.42 110.90 84.46
  Q 109.27 79.24 106.02 76.03
  Q 96.03 66.16 83.38 70.25
  Q 76.68 72.42 72.08 79.44
  Q 65.41 76.62 59.61 72.20
  Q 63.74 65.57 69.63 61.33
  A 1.55 0.45 -21.4 0 1 69.78 61.23
  L 76.42 57.38
  A 3.73 3.59 -63.2 0 1 77.74 56.92
  Q 79.85 56.62 81.25 56.06
  Q 82.81 55.43 85.34 55.13
  C 107.88 52.50 126.56 68.95 126.21 91.87
  C 126.15 96.29 125.37 100.90 128.03 103.75
  A 2.50 2.40 83.0 0 0 128.57 104.19
  L 136.03 108.59
  Z"
/>
<path fill="#5a3dbe" d="
  M 149.50 116.42
  L 136.03 108.59
  Q 137.05 108.81 137.25 108.25
  Q 145.19 85.74 133.55 65.23
  L 145.13 58.60
  A 0.70 0.69 69.2 0 0 145.46 57.86
  L 145.15 56.45
  Q 162.15 85.08 149.50 116.42
  Z"
/>
<path fill="#ff9c5b" d="
  M 46.66 66.08
  Q 33.69 91.48 47.16 115.85
  Q 41.81 118.58 36.47 121.71
  Q 35.25 122.44 35.61 124.56
  C 23.12 104.25 22.78 79.47 34.36 58.63
  Q 41.68 61.53 46.66 66.08
  Z"
/>
<path fill="#3fb3a3" d="
  M 72.08 79.44
  Q 66.30 89.44 70.96 99.80
  Q 73.83 106.18 81.47 109.96
  Q 90.48 114.43 100.77 109.35
  A 0.60 0.60 0.0 0 1 101.51 109.52
  L 109.72 120.05
  A 0.49 0.49 0.0 0 1 109.59 120.77
  C 97.84 128.02 83.23 128.34 71.53 120.97
  Q 62.42 115.23 58.17 106.34
  Q 50.01 89.25 59.61 72.20
  Q 65.41 76.62 72.08 79.44
  Z"
/>
<path fill="#ffcb60" d="
  M 47.16 115.85
  Q 62.00 139.41 89.82 140.71
  A 0.61 0.60 -89.0 0 1 90.40 141.32
  L 90.40 154.40
  A 0.54 0.53 89.5 0 1 89.88 154.94
  C 67.72 155.31 47.32 142.85 35.61 124.56
  Q 35.25 122.44 36.47 121.71
  Q 41.81 118.58 47.16 115.85
  Z"
/>
</svg>