<?xml version="1.0" encoding="UTF-8" standalone="no"?>
<!DOCTYPE svg PUBLIC "-//W3C//DTD SVG 1.1//EN" "http://www.w3.org/Graphics/SVG/1.1/DTD/svg11.dtd">
<svg xmlns="http://www.w3.org/2000/svg" version="1.1" viewBox="0.00 0.00 192.00 192.00" width="128" height="128">
<g stroke-width="2.00" fill="none" stroke-linecap="butt">
<path stroke="#ffeba6" vector-effect="non-scaling-stroke" d="
  M 48.39 64.31
  C 42.45 65.04 37.21 63.17 33.97 69.16
  Q 33.03 70.88 33.04 76.25
  Q 33.05 88.05 33.04 142.75
  Q 33.04 147.31 35.87 149.86
  Q 38.63 152.34 43.09 152.00"
/>
<path stroke="#997b49" vector-effect="non-scaling-stroke" d="
  M 43.09 152.00
  Q 96.53 152.14 149.65 152.08
  C 153.79 152.07 155.63 151.61 158.14 148.88
  C 160.45 146.37 159.67 140.67 159.71 136.79
  C 159.75 133.20 157.99 130.93 155.38 129.17
  C 153.27 127.73 147.41 128.28 144.34 128.27"
/>
<path stroke="#ffeba6" vector-effect="non-scaling-stroke" d="
  M 144.34 128.27
  L 144.34 112.17"
/>
<path stroke="#997b49" vector-effect="non-scaling-stroke" d="
  M 144.34 112.17
  Q 149.66 112.14 154.99 112.19
  Q 159.81 112.23 159.76 107.50
  Q 159.59 91.05 159.85 74.42
  Q 159.96 67.11 153.91 64.82
  A 3.68 3.58 54.9 0 0 152.59 64.57
  L 142.79 64.50
  A 3.32 3.14 51.3 0 1 141.92 64.38
  C 135.45 62.59 135.71 57.05 135.90 51.38
  Q 136.05 47.19 135.21 45.63
  C 132.83 41.20 129.80 40.54 124.63 40.68
  Q 123.98 40.70 57.88 40.69
  C 53.83 40.69 51.79 41.57 49.57 44.44
  Q 48.39 45.98 48.41 51.30
  Q 48.43 57.80 48.39 64.31"
/>
<path stroke="#998fa2" vector-effect="non-scaling-stroke" d="
  M 144.34 112.17
  Q 113.20 112.14 82.07 112.21
  C 77.20 112.23 74.86 113.08 72.73 117.18
  A 2.36 2.35 61.2 0 0 72.48 118.05
  Q 71.47 128.32 81.50 128.30
  Q 112.90 128.27 144.34 128.27"
/>
<path stroke="#998fa2" vector-effect="non-scaling-stroke" d="
  M 43.09 152.00
  Q 48.35 149.13 48.38 144.63
  Q 48.48 123.34 48.39 64.31"
/>
<path stroke="#998fa2" vector-effect="non-scaling-stroke" d="
  M 135.82 72.52
  A 7.98 7.98 0.0 0 0 127.84 64.54
  L 80.22 64.54
  A 7.98 7.98 0.0 0 0 72.24 72.52
  L 72.24 80.38
  A 7.98 7.98 0.0 0 0 80.22 88.36
  L 127.84 88.36
  A 7.98 7.98 0.0 0 0 135.82 80.38
  L 135.82 72.52"
/>
</g>
<path fill="#ffd64d" d="
  M 100.75 0.00
  C 150.66 3.16 188.55 41.40 192.00 91.17
  L 192.00 100.77
  Q 189.20 141.62 159.31 168.08
  Q 134.73 189.84 100.80 192.00
  L 91.29 192.00
  Q 58.47 189.95 34.41 169.59
  Q 3.00 143.02 0.00 100.86
  L 0.00 91.15
  C 3.44 41.44 41.28 3.23 91.11 0.00
  L 100.75 0.00
  Z
  M 48.39 64.31
  C 42.45 65.04 37.21 63.17 33.97 69.16
  Q 33.03 70.88 33.04 76.25
  Q 33.05 88.05 33.04 142.75
  Q 33.04 147.31 35.87 149.86
  Q 38.63 152.34 43.09 152.00
  Q 96.53 152.14 149.65 152.08
  C 153.79 152.07 155.63 151.61 158.14 148.88
  C 160.45 146.37 159.67 140.67 159.71 136.79
  C 159.75 133.20 157.99 130.93 155.38 129.17
  C 153.27 127.73 147.41 128.28 144.34 128.27
  L 144.34 112.17
  Q 149.66 112.14 154.99 112.19
  Q 159.81 112.23 159.76 107.50
  Q 159.59 91.05 159.85 74.42
  Q 159.96 67.11 153.91 64.82
  A 3.68 3.58 54.9 0 0 152.59 64.57
  L 142.79 64.50
  A 3.32 3.14 51.3 0 1 141.92 64.38
  C 135.45 62.59 135.71 57.05 135.90 51.38
  Q 136.05 47.19 135.21 45.63
  C 132.83 41.20 129.80 40.54 124.63 40.68
  Q 123.98 40.70 57.88 40.69
  C 53.83 40.69 51.79 41.57 49.57 44.44
  Q 48.39 45.98 48.41 51.30
  Q 48.43 57.80 48.39 64.31
  Z"
/>
<path fill="#331f45" d="
  M 144.34 112.17
  Q 113.20 112.14 82.07 112.21
  C 77.20 112.23 74.86 113.08 72.73 117.18
  A 2.36 2.35 61.2 0 0 72.48 118.05
  Q 71.47 128.32 81.50 128.30
  Q 112.90 128.27 144.34 128.27
  C 147.41 128.28 153.27 127.73 155.38 129.17
  C 157.99 130.93 159.75 133.20 159.71 136.79
  C 159.67 140.67 160.45 146.37 158.14 148.88
  C 155.63 151.61 153.79 152.07 149.65 152.08
  Q 96.53 152.14 43.09 152.00
  Q 48.35 149.13 48.38 144.63
  Q 48.48 123.34 48.39 64.31
  Q 48.43 57.80 48.41 51.30
  Q 48.39 45.98 49.57 44.44
  C 51.79 41.57 53.83 40.69 57.88 40.69
  Q 123.98 40.70 124.63 40.68
  C 129.80 40.54 132.83 41.20 135.21 45.63
  Q 136.05 47.19 135.90 51.38
  C 135.71 57.05 135.45 62.59 141.92 64.38
  A 3.32 3.14 51.3 0 0 142.79 64.50
  L 152.59 64.57
  A 3.68 3.58 54.9 0 1 153.91 64.82
  Q 159.96 67.11 159.85 74.42
  Q 159.59 91.05 159.76 107.50
  Q 159.81 112.23 154.99 112.19
  Q 149.66 112.14 144.34 112.17
  Z
  M 135.82 72.52
  A 7.98 7.98 0.0 0 0 127.84 64.54
  L 80.22 64.54
  A 7.98 7.98 0.0 0 0 72.24 72.52
  L 72.24 80.38
  A 7.98 7.98 0.0 0 0 80.22 88.36
  L 127.84 88.36
  A 7.98 7.98 0.0 0 0 135.82 80.38
  L 135.82 72.52
  Z"
/>
<path fill="#ffffff" d="
  M 48.39 64.31
  Q 48.48 123.34 48.38 144.63
  Q 48.35 149.13 43.09 152.00
  Q 38.63 152.34 35.87 149.86
  Q 33.04 147.31 33.04 142.75
  Q 33.05 88.05 33.04 76.25
  Q 33.03 70.88 33.97 69.16
  C 37.21 63.17 42.45 65.04 48.39 64.31
  Z"
/>
<rect fill="#ffffff" x="72.24" y="64.54" width="63.58" height="23.82" rx="7.98"/>
<path fill="#ffffff" d="
  M 144.34 112.17
  L 144.34 128.27
  Q 112.90 128.27 81.50 128.30
  Q 71.47 128.32 72.48 118.05
  A 2.36 2.35 61.2 0 1 72.73 117.18
  C 74.86 113.08 77.20 112.23 82.07 112.21
  Q 113.20 112.14 144.34 112.17
  Z"
/>
</svg>