<?xml version="1.0" encoding="UTF-8" standalone="no"?>
<!DOCTYPE svg PUBLIC "-//W3C//DTD SVG 1.1//EN" "http://www.w3.org/Graphics/SVG/1.1/DTD/svg11.dtd">
<svg xmlns="http://www.w3.org/2000/svg" version="1.1" viewBox="0.00 0.00 256.00 256.00" width="128" height="128">
<path fill="#00cc74" d="
  M 133.38 0.00
  Q 140.36 0.42 147.23 1.29
  C 202.09 8.25 252.14 47.78 256.00 105.99
  L 256.00 115.07
  L 21.53 115.08
  A 0.56 0.56 0.0 0 0 20.98 115.73
  Q 24.33 137.41 42.19 150.36
  C 63.42 165.74 92.11 166.39 114.56 153.62
  Q 128.28 145.82 136.28 130.76
  A 0.79 0.78 13.6 0 1 136.98 130.34
  L 253.58 130.34
  A 0.30 0.30 0.0 0 1 253.87 130.70
  C 245.68 165.51 216.55 191.45 186.86 208.87
  C 157.44 226.13 136.52 235.92 96.59 255.73
  A 0.18 0.17 85.5 0 1 96.35 255.52
  Q 97.81 250.57 98.90 247.15
  C 102.43 236.08 98.11 224.36 88.79 217.61
  Q 85.86 215.49 80.43 213.51
  C 55.95 204.58 35.97 191.08 20.13 170.38
  Q 2.15 146.88 0.00 115.58
  L 0.00 106.51
  C 2.10 71.00 21.97 40.81 51.62 21.93
  Q 83.48 1.64 122.49 0.00
  L 133.38 0.00
  Z
  M 80.83 99.87
  Q 137.57 99.86 139.10 99.84
  A 0.33 0.33 0.0 0 0 139.42 99.42
  C 132.63 73.56 106.42 58.81 80.82 58.81
  C 55.23 58.81 29.02 73.58 22.24 99.44
  A 0.33 0.33 0.0 0 0 22.55 99.85
  Q 24.09 99.88 80.83 99.87
  Z"
/>
</svg>