<?xml version="1.0" encoding="UTF-8" standalone="no"?>
<!DOCTYPE svg PUBLIC "-//W3C//DTD SVG 1.1//EN" "http://www.w3.org/Graphics/SVG/1.1/DTD/svg11.dtd">
<svg xmlns="http://www.w3.org/2000/svg" version="1.1" viewBox="0.00 0.00 128.00 128.00" width="128" height="128">
<g stroke-width="2.00" fill="none" stroke-linecap="butt">
<path stroke="#b9e6ee" vector-effect="non-scaling-stroke" d="
  M 119.25 16.12
  A 6.42 6.42 0.0 0 0 112.83 9.70
  L 69.31 9.70
  A 6.42 6.42 0.0 0 0 62.89 16.12
  L 62.89 59.66
  A 6.42 6.42 0.0 0 0 69.31 66.08
  L 112.83 66.08
  A 6.42 6.42 0.0 0 0 119.25 59.66
  L 119.25 16.12"
/>
<path stroke="#a6e2ed" vector-effect="non-scaling-stroke" d="
  M 57.46 19.85
  A 0.33 0.33 0.0 0 0 56.89 19.61
  L 27.02 49.48
  A 0.33 0.33 0.0 0 0 27.26 50.05
  L 57.09 50.01
  A 0.33 0.33 0.0 0 0 57.42 49.68
  L 57.46 19.85"
/>
<path stroke="#a6e2ed" vector-effect="non-scaling-stroke" d="
  M 49.92 79.14
  Q 69.64 98.84 72.80 102.10
  A 0.48 0.48 0.0 0 0 73.62 101.77
  L 73.62 72.13
  A 0.63 0.62 -2.3 0 0 72.95 71.51
  C 68.56 71.88 64.00 71.56 60.74 68.31
  C 57.48 65.05 57.16 60.49 57.52 56.11
  A 0.63 0.62 -87.8 0 0 56.91 55.43
  L 27.27 55.46
  A 0.48 0.48 0.0 0 0 26.93 56.28
  Q 30.20 59.44 49.92 79.14"
/>
<path stroke="#a6e2ed" vector-effect="non-scaling-stroke" d="
  M 78.90 101.57
  A 0.43 0.43 0.0 0 0 79.63 101.88
  L 109.32 72.29
  A 0.43 0.43 0.0 0 0 109.02 71.56
  L 79.29 71.42
  A 0.43 0.43 0.0 0 0 78.86 71.85
  L 78.90 101.57"
/>
<path stroke="#a6e2ed" vector-effect="non-scaling-stroke" d="
  M 34.35 79.60
  A 0.58 0.58 0.0 0 0 34.47 80.23
  L 48.72 94.48
  A 0.58 0.58 0.0 0 0 49.35 94.60
  L 54.24 92.61
  A 0.58 0.58 0.0 0 0 54.43 91.66
  L 37.29 74.52
  A 0.58 0.58 0.0 0 0 36.34 74.71
  L 34.35 79.60"
/>
<path stroke="#fac5a9" vector-effect="non-scaling-stroke" d="
  M 9.68 119.28
  Q 9.84 119.44 10.02 119.45
  C 25.06 119.83 38.81 115.33 40.49 98.20
  A 0.66 0.65 78.2 0 0 39.52 97.56
  L 21.94 107.48
  A 0.12 0.09 -55.4 0 1 21.88 107.50
  Q 21.71 107.50 21.60 107.39
  Q 21.49 107.27 21.49 107.11
  A 0.12 0.09 -34.5 0 1 21.51 107.04
  L 31.46 89.49
  A 0.66 0.65 11.9 0 0 30.83 88.52
  C 13.69 90.16 9.16 103.90 9.51 118.94
  Q 9.51 119.12 9.68 119.28"
/>
</g>
<path fill="#ffffff" d="
  M 128.00 0.00
  L 128.00 128.00
  L 0.00 128.00
  L 0.00 0.00
  L 128.00 0.00
  Z
  M 119.25 16.12
  A 6.42 6.42 0.0 0 0 112.83 9.70
  L 69.31 9.70
  A 6.42 6.42 0.0 0 0 62.89 16.12
  L 62.89 59.66
  A 6.42 6.42 0.0 0 0 69.31 66.08
  L 112.83 66.08
  A 6.42 6.42 0.0 0 0 119.25 59.66
  L 119.25 16.12
  Z
  M 57.46 19.85
  A 0.33 0.33 0.0 0 0 56.89 19.61
  L 27.02 49.48
  A 0.33 0.33 0.0 0 0 27.26 50.05
  L 57.09 50.01
  A 0.33 0.33 0.0 0 0 57.42 49.68
  L 57.46 19.85
  Z
  M 49.92 79.14
  Q 69.64 98.84 72.80 102.10
  A 0.48 0.48 0.0 0 0 73.62 101.77
  L 73.62 72.13
  A 0.63 0.62 -2.3 0 0 72.95 71.51
  C 68.56 71.88 64.00 71.56 60.74 68.31
  C 57.48 65.05 57.16 60.49 57.52 56.11
  A 0.63 0.62 -87.8 0 0 56.91 55.43
  L 27.27 55.46
  A 0.48 0.48 0.0 0 0 26.93 56.28
  Q 30.20 59.44 49.92 79.14
  Z
  M 78.90 101.57
  A 0.43 0.43 0.0 0 0 79.63 101.88
  L 109.32 72.29
  A 0.43 0.43 0.0 0 0 109.02 71.56
  L 79.29 71.42
  A 0.43 0.43 0.0 0 0 78.86 71.85
  L 78.90 101.57
  Z
  M 34.35 79.60
  A 0.58 0.58 0.0 0 0 34.47 80.23
  L 48.72 94.48
  A 0.58 0.58 0.0 0 0 49.35 94.60
  L 54.24 92.61
  A 0.58 0.58 0.0 0 0 54.43 91.66
  L 37.29 74.52
  A 0.58 0.58 0.0 0 0 36.34 74.71
  L 34.35 79.60
  Z
  M 9.68 119.28
  Q 9.84 119.44 10.02 119.45
  C 25.06 119.83 38.81 115.33 40.49 98.20
  A 0.66 0.65 78.2 0 0 39.52 97.56
  L 21.94 107.48
  A 0.12 0.09 -55.4 0 1 21.88 107.50
  Q 21.71 107.50 21.60 107.39
  Q 21.49 107.27 21.49 107.11
  A 0.12 0.09 -34.5 0 1 21.51 107.04
  L 31.46 89.49
  A 0.66 0.65 11.9 0 0 30.83 88.52
  C 13.69 90.16 9.16 103.90 9.51 118.94
  Q 9.51 119.12 9.68 119.28
  Z"
/>
<rect fill="#73cddc" x="62.89" y="9.70" width="56.36" height="56.38" rx="6.42"/>
<path fill="#4dc4da" d="
  M 57.46 19.85
  L 57.42 49.68
  A 0.33 0.33 0.0 0 1 57.09 50.01
  L 27.26 50.05
  A 0.33 0.33 0.0 0 1 27.02 49.48
  L 56.89 19.61
  A 0.33 0.33 0.0 0 1 57.46 19.85
  Z"
/>
<path fill="#4dc4da" d="
  M 60.74 68.31
  C 64.00 71.56 68.56 71.88 72.95 71.51
  A 0.63 0.62 -2.3 0 1 73.62 72.13
  L 73.62 101.77
  A 0.48 0.48 0.0 0 1 72.80 102.10
  Q 69.64 98.84 49.92 79.14
  Q 30.20 59.44 26.93 56.28
  A 0.48 0.48 0.0 0 1 27.27 55.46
  L 56.91 55.43
  A 0.63 0.62 -87.8 0 1 57.52 56.11
  C 57.16 60.49 57.48 65.05 60.74 68.31
  Z"
/>
<path fill="#4dc4da" d="
  M 78.90 101.57
  L 78.86 71.85
  A 0.43 0.43 0.0 0 1 79.29 71.42
  L 109.02 71.56
  A 0.43 0.43 0.0 0 1 109.32 72.29
  L 79.63 101.88
  A 0.43 0.43 0.0 0 1 78.90 101.57
  Z"
/>
<path fill="#4dc4da" d="
  M 34.35 79.60
  L 36.34 74.71
  A 0.58 0.58 0.0 0 1 37.29 74.52
  L 54.43 91.66
  A 0.58 0.58 0.0 0 1 54.24 92.61
  L 49.35 94.60
  A 0.58 0.58 0.0 0 1 48.72 94.48
  L 34.47 80.23
  A 0.58 0.58 0.0 0 1 34.35 79.60
  Z"
/>
<path fill="#f48a53" d="
  M 21.60 107.39
  Q 21.71 107.50 21.88 107.50
  A 0.12 0.09 -55.4 0 0 21.94 107.48
  L 39.52 97.56
  A 0.66 0.65 78.2 0 1 40.49 98.20
  C 38.81 115.33 25.06 119.83 10.02 119.45
  Q 9.84 119.44 9.68 119.28
  Q 9.51 119.12 9.51 118.94
  C 9.16 103.90 13.69 90.16 30.83 88.52
  A 0.66 0.65 11.9 0 1 31.46 89.49
  L 21.51 107.04
  A 0.12 0.09 -34.5 0 0 21.49 107.11
  Q 21.49 107.27 21.60 107.39
  Z"
/>
</svg>