<?xml version="1.0" encoding="UTF-8" standalone="no"?>
<!DOCTYPE svg PUBLIC "-//W3C//DTD SVG 1.1//EN" "http://www.w3.org/Graphics/SVG/1.1/DTD/svg11.dtd">
<svg xmlns="http://www.w3.org/2000/svg" version="1.1" viewBox="0.00 0.00 256.00 256.00" width="128" height="128">
<g stroke-width="2.00" fill="none" stroke-linecap="butt">
<path stroke="#808080" vector-effect="non-scaling-stroke" d="
  M 110.86 164.02
  A 0.58 0.58 0.0 0 0 110.80 163.20
  L 97.63 151.88
  A 0.85 0.84 -50.1 0 0 96.42 151.99
  C 84.97 166.16 81.99 185.80 90.56 201.74
  C 96.56 212.90 107.47 220.63 120.22 222.61
  C 148.76 227.05 171.57 205.79 169.08 177.14
  C 167.59 159.94 155.50 146.77 142.46 136.40
  A 0.37 0.37 0.0 0 1 142.46 135.82
  C 160.04 121.91 176.86 104.33 177.21 80.67
  C 177.53 59.49 166.63 40.47 146.49 32.82
  C 115.14 20.90 81.24 41.26 78.88 75.38
  Q 77.53 94.99 88.92 110.92
  Q 95.42 120.01 101.55 125.43
  Q 126.02 147.09 135.01 154.65
  C 142.73 161.15 150.00 169.28 150.72 179.99
  C 151.52 191.78 144.08 202.00 132.53 204.00
  Q 123.16 205.61 116.17 201.89
  C 101.84 194.27 101.20 175.56 110.86 164.02"
/>
<path stroke="#808080" vector-effect="non-scaling-stroke" d="
  M 127.91 121.59
  Q 128.06 121.59 128.24 121.45
  Q 135.64 115.41 142.47 108.72
  C 152.98 98.42 159.60 86.73 156.12 71.69
  C 152.95 58.00 142.09 49.80 128.17 49.75
  C 114.25 49.70 103.33 57.82 100.06 71.49
  C 96.48 86.50 103.01 98.24 113.44 108.61
  Q 120.23 115.35 127.59 121.44
  Q 127.76 121.59 127.91 121.59"
/>
</g>
<path fill="#ffffff" d="
  M 134.04 0.00
  Q 178.43 2.66 210.74 30.27
  Q 252.24 65.72 256.00 122.02
  L 256.00 133.14
  Q 252.98 186.30 215.50 221.50
  Q 182.10 252.85 134.48 256.00
  L 121.76 256.00
  Q 77.49 253.26 45.26 225.73
  Q 3.88 190.39 0.00 134.27
  L 0.00 121.96
  Q 3.81 65.40 45.69 29.92
  Q 77.87 2.67 121.85 0.00
  L 134.04 0.00
  Z
  M 110.86 164.02
  A 0.58 0.58 0.0 0 0 110.80 163.20
  L 97.63 151.88
  A 0.85 0.84 -50.1 0 0 96.42 151.99
  C 84.97 166.16 81.99 185.80 90.56 201.74
  C 96.56 212.90 107.47 220.63 120.22 222.61
  C 148.76 227.05 171.57 205.79 169.08 177.14
  C 167.59 159.94 155.50 146.77 142.46 136.40
  A 0.37 0.37 0.0 0 1 142.46 135.82
  C 160.04 121.91 176.86 104.33 177.21 80.67
  C 177.53 59.49 166.63 40.47 146.49 32.82
  C 115.14 20.90 81.24 41.26 78.88 75.38
  Q 77.53 94.99 88.92 110.92
  Q 95.42 120.01 101.55 125.43
  Q 126.02 147.09 135.01 154.65
  C 142.73 161.15 150.00 169.28 150.72 179.99
  C 151.52 191.78 144.08 202.00 132.53 204.00
  Q 123.16 205.61 116.17 201.89
  C 101.84 194.27 101.20 175.56 110.86 164.02
  Z"
/>
<path fill="#000000" d="
  M 110.86 164.02
  C 101.20 175.56 101.84 194.27 116.17 201.89
  Q 123.16 205.61 132.53 204.00
  C 144.08 202.00 151.52 191.78 150.72 179.99
  C 150.00 169.28 142.73 161.15 135.01 154.65
  Q 126.02 147.09 101.55 125.43
  Q 95.42 120.01 88.92 110.92
  Q 77.53 94.99 78.88 75.38
  C 81.24 41.26 115.14 20.90 146.49 32.82
  C 166.63 40.47 177.53 59.49 177.21 80.67
  C 176.86 104.33 160.04 121.91 142.46 135.82
  A 0.37 0.37 0.0 0 0 142.46 136.40
  C 155.50 146.77 167.59 159.94 169.08 177.14
  C 171.57 205.79 148.76 227.05 120.22 222.61
  C 107.47 220.63 96.56 212.90 90.56 201.74
  C 81.99 185.80 84.97 166.16 96.42 151.99
  A 0.85 0.84 -50.1 0 1 97.63 151.88
  L 110.80 163.20
  A 0.58 0.58 0.0 0 1 110.86 164.02
  Z
  M 127.91 121.59
  Q 128.06 121.59 128.24 121.45
  Q 135.64 115.41 142.47 108.72
  C 152.98 98.42 159.60 86.73 156.12 71.69
  C 152.95 58.00 142.09 49.80 128.17 49.75
  C 114.25 49.70 103.33 57.82 100.06 71.49
  C 96.48 86.50 103.01 98.24 113.44 108.61
  Q 120.23 115.35 127.59 121.44
  Q 127.76 121.59 127.91 121.59
  Z"
/>
<path fill="#ffffff" d="
  M 128.17 49.75
  C 142.09 49.80 152.95 58.00 156.12 71.69
  C 159.60 86.73 152.98 98.42 142.47 108.72
  Q 135.64 115.41 128.24 121.45
  Q 128.06 121.59 127.91 121.59
  Q 127.76 121.59 127.59 121.44
  Q 120.23 115.35 113.44 108.61
  C 103.01 98.24 96.48 86.50 100.06 71.49
  C 103.33 57.82 114.25 49.70 128.17 49.75
  Z"
/>
</svg>