<?xml version="1.0" encoding="UTF-8" standalone="no"?>
<!DOCTYPE svg PUBLIC "-//W3C//DTD SVG 1.1//EN" "http://www.w3.org/Graphics/SVG/1.1/DTD/svg11.dtd">
<svg xmlns="http://www.w3.org/2000/svg" version="1.1" viewBox="0.00 0.00 256.00 256.00" width="128" height="128">
<g stroke-width="2.00" fill="none" stroke-linecap="butt">
<path stroke="#f5ad9e" vector-effect="non-scaling-stroke" d="
  M 117.41 101.79
  Q 116.71 103.98 116.55 106.52
  Q 116.03 114.91 116.03 124.25
  Q 116.05 183.25 116.03 190.00
  Q 115.98 204.03 116.88 212.43
  A 3.73 3.72 -80.2 0 0 118.96 215.39
  L 121.50 216.62
  A 2.83 2.82 -80.3 0 1 123.08 218.86
  L 124.66 233.79
  A 2.00 2.00 0.0 0 0 126.13 235.52
  Q 128.03 236.05 129.91 235.78
  A 2.44 2.44 0.0 0 0 131.97 233.73
  L 134.24 218.64
  A 2.30 2.29 -10.7 0 1 135.36 217.01
  L 138.92 214.95
  A 2.12 2.11 79.4 0 0 139.96 213.42
  Q 141.02 206.10 141.01 198.50
  Q 140.99 179.74 141.01 113.25
  Q 141.01 108.48 140.31 102.16
  A 1.81 1.81 0.0 0 0 138.77 100.56
  L 134.38 99.90
  A 1.34 1.31 -89.2 0 1 133.27 98.74
  Q 132.95 95.86 132.73 88.31
  Q 132.29 73.25 132.42 41.79
  Q 132.44 35.36 131.70 23.51
  A 2.60 2.59 -4.7 0 0 128.84 21.09
  L 126.84 21.30
  A 2.66 2.66 0.0 0 0 124.47 23.85
  C 124.18 32.50 124.08 45.17 124.18 69.75
  Q 124.23 84.09 122.99 97.40
  A 1.56 1.56 0.0 0 1 122.21 98.60
  L 118.03 101.02
  A 1.36 1.33 84.3 0 0 117.41 101.79"
/>
<path stroke="#f5ad9e" vector-effect="non-scaling-stroke" d="
  M 177.89 37.53
  Q 175.90 37.04 174.06 37.54
  A 1.88 1.88 0.0 0 0 172.69 39.08
  L 171.11 49.55
  A 1.25 1.24 -11.0 0 1 170.51 50.43
  L 165.29 53.44
  A 1.25 1.23 77.6 0 0 164.69 54.39
  Q 164.03 61.49 164.01 69.25
  Q 163.94 106.45 164.07 125.94
  A 2.58 2.58 0.0 0 0 166.26 128.48
  L 169.84 129.02
  A 2.13 2.13 0.0 0 1 171.66 131.08
  L 172.22 155.91
  A 1.96 1.96 0.0 0 0 174.47 157.80
  L 176.84 157.45
  A 2.22 2.21 87.3 0 0 178.73 155.36
  L 179.84 130.74
  A 0.66 0.66 0.0 0 1 180.16 130.21
  L 185.67 127.03
  A 1.32 1.32 0.0 0 0 186.33 125.92
  Q 187.41 89.90 186.46 55.20
  A 2.45 2.45 0.0 0 0 184.76 52.94
  L 181.23 51.82
  A 1.34 1.34 0.0 0 1 180.31 50.75
  L 178.45 38.14
  A 0.75 0.73 3.0 0 0 177.89 37.53"
/>
<path stroke="#f5ad9e" vector-effect="non-scaling-stroke" d="
  M 81.98 52.89
  Q 80.72 52.89 80.22 53.09
  A 2.14 2.14 0.0 0 0 78.95 54.44
  L 75.81 64.34
  A 2.23 2.16 -16.2 0 1 75.36 65.13
  L 72.65 68.24
  A 2.71 2.63 76.1 0 0 72.15 69.10
  Q 70.25 74.34 70.14 80.00
  Q 69.87 94.02 70.33 106.38
  A 1.43 1.42 8.2 0 0 71.32 107.69
  L 76.80 109.43
  A 1.54 1.54 0.0 0 1 77.88 110.90
  L 77.88 227.31
  A 0.71 0.70 -86.7 0 0 78.50 228.01
  Q 80.12 228.20 81.96 228.20
  Q 83.80 228.20 85.42 228.01
  A 0.71 0.70 86.7 0 0 86.04 227.31
  L 86.06 110.90
  A 1.54 1.54 0.0 0 1 87.14 109.43
  L 92.62 107.69
  A 1.43 1.42 -8.2 0 0 93.61 106.38
  Q 94.08 94.02 93.81 80.00
  Q 93.70 74.34 91.80 69.10
  A 2.71 2.63 -76.1 0 0 91.30 68.24
  L 88.59 65.13
  A 2.23 2.16 16.2 0 1 88.14 64.34
  L 85.00 54.44
  A 2.14 2.14 0.0 0 0 83.73 53.09
  Q 83.23 52.89 81.98 52.89"
/>
</g>
<path fill="#f05f40" d="
  M 129.70 0.00
  C 135.23 0.45 140.97 0.01 146.31 1.17
  Q 156.71 3.44 165.82 5.88
  C 170.64 7.18 175.90 9.81 179.97 11.34
  Q 184.55 13.07 190.18 16.27
  C 197.88 20.66 203.98 24.50 209.90 29.82
  Q 214.98 34.38 216.38 35.49
  C 220.22 38.52 222.13 41.40 226.02 45.60
  Q 229.25 49.09 232.44 53.75
  Q 242.07 67.83 247.18 80.05
  Q 254.11 96.65 256.00 116.63
  L 256.00 140.50
  Q 254.76 151.09 252.32 161.51
  Q 250.80 167.99 248.30 173.56
  C 246.38 177.86 245.09 182.62 242.99 186.39
  C 238.11 195.19 233.64 202.66 227.52 209.49
  Q 222.97 214.56 221.57 216.45
  C 218.75 220.25 215.59 222.18 211.50 225.91
  Q 207.97 229.12 203.31 232.34
  Q 188.15 242.82 174.67 248.12
  Q 158.94 254.32 139.63 256.00
  L 118.52 256.00
  C 115.91 255.82 113.30 255.77 110.75 255.33
  Q 99.82 253.40 91.47 251.29
  C 87.01 250.17 80.77 247.01 75.51 245.21
  Q 72.62 244.22 68.31 241.73
  C 60.13 237.03 53.58 232.98 47.27 227.31
  Q 42.29 222.85 40.59 221.62
  A 21.53 21.34 -0.3 0 1 35.97 217.08
  C 33.55 213.84 28.47 208.82 24.98 203.85
  Q 16.73 192.08 10.71 179.03
  Q 8.76 174.80 5.21 162.86
  Q 1.05 148.89 0.00 139.10
  L 0.00 121.85
  C 0.23 111.73 2.08 105.73 5.22 93.68
  Q 6.81 87.58 8.64 83.44
  C 10.80 78.59 11.86 74.45 14.26 70.16
  C 19.27 61.17 23.84 53.79 30.02 46.87
  C 33.86 42.56 36.07 39.30 40.09 35.82
  Q 49.66 27.51 50.87 26.63
  Q 62.53 18.17 75.02 12.12
  Q 82.60 8.45 92.59 5.55
  C 99.59 3.51 107.91 1.20 116.42 0.00
  L 129.70 0.00
  Z
  M 117.41 101.79
  Q 116.71 103.98 116.55 106.52
  Q 116.03 114.91 116.03 124.25
  Q 116.05 183.25 116.03 190.00
  Q 115.98 204.03 116.88 212.43
  A 3.73 3.72 -80.2 0 0 118.96 215.39
  L 121.50 216.62
  A 2.83 2.82 -80.3 0 1 123.08 218.86
  L 124.66 233.79
  A 2.00 2.00 0.0 0 0 126.13 235.52
  Q 128.03 236.05 129.91 235.78
  A 2.44 2.44 0.0 0 0 131.97 233.73
  L 134.24 218.64
  A 2.30 2.29 -10.7 0 1 135.36 217.01
  L 138.92 214.95
  A 2.12 2.11 79.4 0 0 139.96 213.42
  Q 141.02 206.10 141.01 198.50
  Q 140.99 179.74 141.01 113.25
  Q 141.01 108.48 140.31 102.16
  A 1.81 1.81 0.0 0 0 138.77 100.56
  L 134.38 99.90
  A 1.34 1.31 -89.2 0 1 133.27 98.74
  Q 132.95 95.86 132.73 88.31
  Q 132.29 73.25 132.42 41.79
  Q 132.44 35.36 131.70 23.51
  A 2.60 2.59 -4.7 0 0 128.84 21.09
  L 126.84 21.30
  A 2.66 2.66 0.0 0 0 124.47 23.85
  C 124.18 32.50 124.08 45.17 124.18 69.75
  Q 124.23 84.09 122.99 97.40
  A 1.56 1.56 0.0 0 1 122.21 98.60
  L 118.03 101.02
  A 1.36 1.33 84.3 0 0 117.41 101.79
  Z
  M 177.89 37.53
  Q 175.90 37.04 174.06 37.54
  A 1.88 1.88 0.0 0 0 172.69 39.08
  L 171.11 49.55
  A 1.25 1.24 -11.0 0 1 170.51 50.43
  L 165.29 53.44
  A 1.25 1.23 77.6 0 0 164.69 54.39
  Q 164.03 61.49 164.01 69.25
  Q 163.94 106.45 164.07 125.94
  A 2.58 2.58 0.0 0 0 166.26 128.48
  L 169.84 129.02
  A 2.13 2.13 0.0 0 1 171.66 131.08
  L 172.22 155.91
  A 1.96 1.96 0.0 0 0 174.47 157.80
  L 176.84 157.45
  A 2.22 2.21 87.3 0 0 178.73 155.36
  L 179.84 130.74
  A 0.66 0.66 0.0 0 1 180.16 130.21
  L 185.67 127.03
  A 1.32 1.32 0.0 0 0 186.33 125.92
  Q 187.41 89.90 186.46 55.20
  A 2.45 2.45 0.0 0 0 184.76 52.94
  L 181.23 51.82
  A 1.34 1.34 0.0 0 1 180.31 50.75
  L 178.45 38.14
  A 0.75 0.73 3.0 0 0 177.89 37.53
  Z
  M 81.98 52.89
  Q 80.72 52.89 80.22 53.09
  A 2.14 2.14 0.0 0 0 78.95 54.44
  L 75.81 64.34
  A 2.23 2.16 -16.2 0 1 75.36 65.13
  L 72.65 68.24
  A 2.71 2.63 76.1 0 0 72.15 69.10
  Q 70.25 74.34 70.14 80.00
  Q 69.87 94.02 70.33 106.38
  A 1.43 1.42 8.2 0 0 71.32 107.69
  L 76.80 109.43
  A 1.54 1.54 0.0 0 1 77.88 110.90
  L 77.88 227.31
  A 0.71 0.70 -86.7 0 0 78.50 228.01
  Q 80.12 228.20 81.96 228.20
  Q 83.80 228.20 85.42 228.01
  A 0.71 0.70 86.7 0 0 86.04 227.31
  L 86.06 110.90
  A 1.54 1.54 0.0 0 1 87.14 109.43
  L 92.62 107.69
  A 1.43 1.42 -8.2 0 0 93.61 106.38
  Q 94.08 94.02 93.81 80.00
  Q 93.70 74.34 91.80 69.10
  A 2.71 2.63 -76.1 0 0 91.30 68.24
  L 88.59 65.13
  A 2.23 2.16 16.2 0 1 88.14 64.34
  L 85.00 54.44
  A 2.14 2.14 0.0 0 0 83.73 53.09
  Q 83.23 52.89 81.98 52.89
  Z"
/>
<path fill="#f9fbfc" d="
  M 118.03 101.02
  L 122.21 98.60
  A 1.56 1.56 0.0 0 0 122.99 97.40
  Q 124.23 84.09 124.18 69.75
  C 124.08 45.17 124.18 32.50 124.47 23.85
  A 2.66 2.66 0.0 0 1 126.84 21.30
  L 128.84 21.09
  A 2.60 2.59 -4.7 0 1 131.70 23.51
  Q 132.44 35.36 132.42 41.79
  Q 132.29 73.25 132.73 88.31
  Q 132.95 95.86 133.27 98.74
  A 1.34 1.31 -89.2 0 0 134.38 99.90
  L 138.77 100.56
  A 1.81 1.81 0.0 0 1 140.31 102.16
  Q 141.01 108.48 141.01 113.25
  Q 140.99 179.74 141.01 198.50
  Q 141.02 206.10 139.96 213.42
  A 2.12 2.11 79.4 0 1 138.92 214.95
  L 135.36 217.01
  A 2.30 2.29 -10.7 0 0 134.24 218.64
  L 131.97 233.73
  A 2.44 2.44 0.0 0 1 129.91 235.78
  Q 128.03 236.05 126.13 235.52
  A 2.00 2.00 0.0 0 1 124.66 233.79
  L 123.08 218.86
  A 2.83 2.82 -80.3 0 0 121.50 216.62
  L 118.96 215.39
  A 3.73 3.72 -80.2 0 1 116.88 212.43
  Q 115.98 204.03 116.03 190.00
  Q 116.05 183.25 116.03 124.25
  Q 116.03 114.91 116.55 106.52
  Q 116.71 103.98 117.41 101.79
  A 1.36 1.33 84.3 0 1 118.03 101.02
  Z"
/>
<path fill="#f9fbfc" d="
  M 177.89 37.53
  A 0.75 0.73 3.0 0 1 178.45 38.14
  L 180.31 50.75
  A 1.34 1.34 0.0 0 0 181.23 51.82
  L 184.76 52.94
  A 2.45 2.45 0.0 0 1 186.46 55.20
  Q 187.41 89.90 186.33 125.92
  A 1.32 1.32 0.0 0 1 185.67 127.03
  L 180.16 130.21
  A 0.66 0.66 0.0 0 0 179.84 130.74
  L 178.73 155.36
  A 2.22 2.21 87.3 0 1 176.84 157.45
  L 174.47 157.80
  A 1.96 1.96 0.0 0 1 172.22 155.91
  L 171.66 131.08
  A 2.13 2.13 0.0 0 0 169.84 129.02
  L 166.26 128.48
  A 2.58 2.58 0.0 0 1 164.07 125.94
  Q 163.94 106.45 164.01 69.25
  Q 164.03 61.49 164.69 54.39
  A 1.25 1.23 77.6 0 1 165.29 53.44
  L 170.51 50.43
  A 1.25 1.24 -11.0 0 0 171.11 49.55
  L 172.69 39.08
  A 1.88 1.88 0.0 0 1 174.06 37.54
  Q 175.90 37.04 177.89 37.53
  Z"
/>
<path fill="#f9fbfc" d="
  M 81.96 228.20
  Q 80.12 228.20 78.50 228.01
  A 0.71 0.70 -86.7 0 1 77.88 227.31
  L 77.88 110.90
  A 1.54 1.54 0.0 0 0 76.80 109.43
  L 71.32 107.69
  A 1.43 1.42 8.2 0 1 70.33 106.38
  Q 69.87 94.02 70.14 80.00
  Q 70.25 74.34 72.15 69.10
  A 2.71 2.63 76.1 0 1 72.65 68.24
  L 75.36 65.13
  A 2.23 2.16 -16.2 0 0 75.81 64.34
  L 78.95 54.44
  A 2.14 2.14 0.0 0 1 80.22 53.09
  Q 80.72 52.89 81.98 52.89
  Q 83.23 52.89 83.73 53.09
  A 2.14 2.14 0.0 0 1 85.00 54.44
  L 88.14 64.34
  A 2.23 2.16 16.2 0 0 88.59 65.13
  L 91.30 68.24
  A 2.71 2.63 -76.1 0 1 91.80 69.10
  Q 93.70 74.34 93.81 80.00
  Q 94.08 94.02 93.61 106.38
  A 1.43 1.42 -8.2 0 1 92.62 107.69
  L 87.14 109.43
  A 1.54 1.54 0.0 0 0 86.06 110.90
  L 86.04 227.31
  A 0.71 0.70 86.7 0 1 85.42 228.01
  Q 83.80 228.20 81.96 228.20
  Z"
/>
</svg>