<?xml version="1.0" encoding="UTF-8" standalone="no"?>
<!DOCTYPE svg PUBLIC "-//W3C//DTD SVG 1.1//EN" "http://www.w3.org/Graphics/SVG/1.1/DTD/svg11.dtd">
<svg xmlns="http://www.w3.org/2000/svg" version="1.1" viewBox="0.00 0.00 180.00 180.00" width="128" height="128">
<g stroke-width="2.00" fill="none" stroke-linecap="butt">
<path stroke="#88c0fe" vector-effect="non-scaling-stroke" d="
  M 92.31 26.15
  A 0.07 0.07 0.0 0 0 92.24 26.09
  Q 79.58 25.59 68.60 31.30
  C 54.30 38.74 52.77 53.88 66.69 62.74
  Q 74.58 67.76 84.17 71.60
  Q 100.78 78.23 109.08 81.98
  C 119.79 86.80 129.28 92.18 126.02 106.03
  Q 125.29 109.13 123.92 112.27
  A 0.35 0.35 0.0 0 0 124.38 112.73
  C 133.16 109.13 141.43 103.02 144.89 94.33
  C 150.55 80.11 139.83 70.96 127.90 65.57
  Q 117.39 60.82 96.96 52.30
  Q 91.07 49.84 87.04 47.04
  C 80.60 42.55 79.34 33.64 86.37 28.86
  Q 89.11 27.00 92.19 26.67
  A 0.22 0.20 82.3 0 0 92.37 26.42
  L 92.31 26.15"
/>
<path stroke="#88c0fe" vector-effect="non-scaling-stroke" d="
  M 88.70 154.80
  A 0.07 0.07 0.0 0 0 88.77 154.86
  Q 101.42 155.35 112.39 149.64
  C 126.68 142.19 128.20 127.06 114.28 118.21
  Q 106.39 113.20 96.81 109.37
  Q 80.20 102.75 71.91 99.01
  C 61.20 94.20 51.71 88.83 54.96 74.98
  Q 55.69 71.89 57.06 68.75
  A 0.35 0.35 0.0 0 0 56.60 68.29
  C 47.83 71.89 39.56 78.00 36.11 86.69
  C 30.46 100.90 41.18 110.04 53.11 115.42
  Q 63.61 120.16 84.04 128.67
  Q 89.92 131.12 93.95 133.92
  C 100.39 138.40 101.66 147.30 94.63 152.09
  Q 91.90 153.95 88.82 154.28
  A 0.22 0.20 82.3 0 0 88.64 154.53
  L 88.70 154.80"
/>
</g>
<path fill="#ffffff" d="
  M 180.00 0.00
  L 180.00 180.00
  L 0.00 180.00
  L 0.00 0.00
  L 180.00 0.00
  Z
  M 92.31 26.15
  A 0.07 0.07 0.0 0 0 92.24 26.09
  Q 79.58 25.59 68.60 31.30
  C 54.30 38.74 52.77 53.88 66.69 62.74
  Q 74.58 67.76 84.17 71.60
  Q 100.78 78.23 109.08 81.98
  C 119.79 86.80 129.28 92.18 126.02 106.03
  Q 125.29 109.13 123.92 112.27
  A 0.35 0.35 0.0 0 0 124.38 112.73
  C 133.16 109.13 141.43 103.02 144.89 94.33
  C 150.55 80.11 139.83 70.96 127.90 65.57
  Q 117.39 60.82 96.96 52.30
  Q 91.07 49.84 87.04 47.04
  C 80.60 42.55 79.34 33.64 86.37 28.86
  Q 89.11 27.00 92.19 26.67
  A 0.22 0.20 82.3 0 0 92.37 26.42
  L 92.31 26.15
  Z
  M 88.70 154.80
  A 0.07 0.07 0.0 0 0 88.77 154.86
  Q 101.42 155.35 112.39 149.64
  C 126.68 142.19 128.20 127.06 114.28 118.21
  Q 106.39 113.20 96.81 109.37
  Q 80.20 102.75 71.91 99.01
  C 61.20 94.20 51.71 88.83 54.96 74.98
  Q 55.69 71.89 57.06 68.75
  A 0.35 0.35 0.0 0 0 56.60 68.29
  C 47.83 71.89 39.56 78.00 36.11 86.69
  C 30.46 100.90 41.18 110.04 53.11 115.42
  Q 63.61 120.16 84.04 128.67
  Q 89.92 131.12 93.95 133.92
  C 100.39 138.40 101.66 147.30 94.63 152.09
  Q 91.90 153.95 88.82 154.28
  A 0.22 0.20 82.3 0 0 88.64 154.53
  L 88.70 154.80
  Z"
/>
<path fill="#1081fc" d="
  M 92.19 26.67
  Q 89.11 27.00 86.37 28.86
  C 79.34 33.64 80.60 42.55 87.04 47.04
  Q 91.07 49.84 96.96 52.30
  Q 117.39 60.82 127.90 65.57
  C 139.83 70.96 150.55 80.11 144.89 94.33
  C 141.43 103.02 133.16 109.13 124.38 112.73
  A 0.35 0.35 0.0 0 1 123.92 112.27
  Q 125.29 109.13 126.02 106.03
  C 129.28 92.18 119.79 86.80 109.08 81.98
  Q 100.78 78.23 84.17 71.60
  Q 74.58 67.76 66.69 62.74
  C 52.77 53.88 54.30 38.74 68.60 31.30
  Q 79.58 25.59 92.24 26.09
  A 0.07 0.07 0.0 0 1 92.31 26.15
  L 92.37 26.42
  A 0.22 0.20 82.3 0 1 92.19 26.67
  Z"
/>
<path fill="#1081fc" d="
  M 88.70 154.80
  L 88.64 154.53
  A 0.22 0.20 82.3 0 1 88.82 154.28
  Q 91.90 153.95 94.63 152.09
  C 101.66 147.30 100.39 138.40 93.95 133.92
  Q 89.92 131.12 84.04 128.67
  Q 63.61 120.16 53.11 115.42
  C 41.18 110.04 30.46 100.90 36.11 86.69
  C 39.56 78.00 47.83 71.89 56.60 68.29
  A 0.35 0.35 0.0 0 1 57.06 68.75
  Q 55.69 71.89 54.96 74.98
  C 51.71 88.83 61.20 94.20 71.91 99.01
  Q 80.20 102.75 96.81 109.37
  Q 106.39 113.20 114.28 118.21
  C 128.20 127.06 126.68 142.19 112.39 149.64
  Q 101.42 155.35 88.77 154.86
  A 0.07 0.07 0.0 0 1 88.70 154.80
  Z"
/>
</svg>