<?xml version="1.0" encoding="UTF-8" standalone="no"?>
<!DOCTYPE svg PUBLIC "-//W3C//DTD SVG 1.1//EN" "http://www.w3.org/Graphics/SVG/1.1/DTD/svg11.dtd">
<svg xmlns="http://www.w3.org/2000/svg" version="1.1" viewBox="0.00 0.00 256.00 256.00" width="128" height="128">
<path stroke="#b59980" stroke-width="2.00" fill="none" stroke-linecap="butt" vector-effect="non-scaling-stroke" d="
  M 201.88 71.04
  L 201.88 40.94
  A 0.72 0.72 0.0 0 0 201.16 40.22
  Q 168.16 40.12 124.00 40.24
  C 104.41 40.29 84.20 46.60 70.33 59.86
  C 49.30 79.98 42.12 112.09 44.85 140.49
  C 47.40 167.12 58.49 194.21 82.89 207.09
  Q 100.69 216.48 120.99 216.49
  Q 183.02 216.54 201.98 216.39
  A 0.89 0.89 0.0 0 0 202.87 215.50
  L 202.87 187.02
  A 0.74 0.74 0.0 0 0 202.13 186.28
  Q 180.83 186.22 128.79 186.19
  Q 119.61 186.19 113.52 182.59
  Q 105.06 177.59 98.44 168.14
  Q 91.43 158.14 91.37 144.49
  A 0.71 0.71 0.0 0 1 92.08 143.78
  L 202.34 143.78
  A 0.56 0.56 0.0 0 0 202.90 143.22
  L 202.90 113.00
  A 0.81 0.81 0.0 0 0 202.09 112.19
  L 91.77 112.19
  A 0.33 0.33 0.0 0 1 91.44 111.87
  C 90.97 97.73 96.94 88.13 107.11 79.37
  C 114.46 73.04 122.76 71.76 132.00 71.77
  Q 144.12 71.77 201.13 71.78
  A 0.75 0.74 0.0 0 0 201.88 71.04"
/>
<path fill="#6a3201" d="
  M 256.00 0.00
  L 256.00 256.00
  L 0.00 256.00
  L 0.00 0.00
  L 256.00 0.00
  Z
  M 201.88 71.04
  L 201.88 40.94
  A 0.72 0.72 0.0 0 0 201.16 40.22
  Q 168.16 40.12 124.00 40.24
  C 104.41 40.29 84.20 46.60 70.33 59.86
  C 49.30 79.98 42.12 112.09 44.85 140.49
  C 47.40 167.12 58.49 194.21 82.89 207.09
  Q 100.69 216.48 120.99 216.49
  Q 183.02 216.54 201.98 216.39
  A 0.89 0.89 0.0 0 0 202.87 215.50
  L 202.87 187.02
  A 0.74 0.74 0.0 0 0 202.13 186.28
  Q 180.83 186.22 128.79 186.19
  Q 119.61 186.19 113.52 182.59
  Q 105.06 177.59 98.44 168.14
  Q 91.43 158.14 91.37 144.49
  A 0.71 0.71 0.0 0 1 92.08 143.78
  L 202.34 143.78
  A 0.56 0.56 0.0 0 0 202.90 143.22
  L 202.90 113.00
  A 0.81 0.81 0.0 0 0 202.09 112.19
  L 91.77 112.19
  A 0.33 0.33 0.0 0 1 91.44 111.87
  C 90.97 97.73 96.94 88.13 107.11 79.37
  C 114.46 73.04 122.76 71.76 132.00 71.77
  Q 144.12 71.77 201.13 71.78
  A 0.75 0.74 0.0 0 0 201.88 71.04
  Z"
/>
<path fill="#ffffff" d="
  M 201.13 71.78
  Q 144.12 71.77 132.00 71.77
  C 122.76 71.76 114.46 73.04 107.11 79.37
  C 96.94 88.13 90.97 97.73 91.44 111.87
  A 0.33 0.33 0.0 0 0 91.77 112.19
  L 202.09 112.19
  A 0.81 0.81 0.0 0 1 202.90 113.00
  L 202.90 143.22
  A 0.56 0.56 0.0 0 1 202.34 143.78
  L 92.08 143.78
  A 0.71 0.71 0.0 0 0 91.37 144.49
  Q 91.43 158.14 98.44 168.14
  Q 105.06 177.59 113.52 182.59
  Q 119.61 186.19 128.79 186.19
  Q 180.83 186.22 202.13 186.28
  A 0.74 0.74 0.0 0 1 202.87 187.02
  L 202.87 215.50
  A 0.89 0.89 0.0 0 1 201.98 216.39
  Q 183.02 216.54 120.99 216.49
  Q 100.69 216.48 82.89 207.09
  C 58.49 194.21 47.40 167.12 44.85 140.49
  C 42.12 112.09 49.30 79.98 70.33 59.86
  C 84.20 46.60 104.41 40.29 124.00 40.24
  Q 168.16 40.12 201.16 40.22
  A 0.72 0.72 0.0 0 1 201.88 40.94
  L 201.88 71.04
  A 0.75 0.74 -0.0 0 1 201.13 71.78
  Z"
/>
</svg>