<?xml version="1.0" encoding="UTF-8" standalone="no"?>
<!DOCTYPE svg PUBLIC "-//W3C//DTD SVG 1.1//EN" "http://www.w3.org/Graphics/SVG/1.1/DTD/svg11.dtd">
<svg xmlns="http://www.w3.org/2000/svg" version="1.1" viewBox="0.00 0.00 256.00 256.00" width="128" height="128">
<path fill="#2a4b87" d="
  M 194.16 180.30
  C 193.98 178.22 195.01 171.18 198.76 171.59
  C 208.31 172.63 214.08 170.72 222.04 166.57
  C 241.04 156.68 246.09 132.40 233.95 115.00
  Q 228.51 107.21 217.99 102.54
  C 211.04 99.46 200.13 102.13 198.32 92.70
  Q 197.28 87.28 196.11 81.39
  C 195.08 76.21 192.43 71.99 189.25 66.78
  C 183.04 56.62 174.48 52.22 164.13 47.64
  Q 159.47 45.58 155.27 45.19
  Q 130.91 42.93 113.25 59.04
  Q 109.80 62.18 106.73 66.82
  Q 102.89 72.62 101.68 75.67
  Q 98.19 84.42 97.94 84.90
  Q 95.60 89.60 90.63 87.67
  Q 86.35 86.02 82.37 84.16
  C 77.15 81.72 73.26 83.64 68.14 86.67
  C 62.62 89.93 61.33 96.45 59.96 102.52
  C 59.21 105.84 57.82 106.84 54.75 107.75
  C 50.09 109.13 43.51 109.58 39.18 111.42
  C 24.50 117.64 16.21 132.82 20.27 148.39
  C 22.93 158.57 30.23 166.49 39.78 170.74
  C 47.57 174.21 58.37 173.32 67.92 172.53
  A 2.59 2.58 83.6 0 1 70.69 174.75
  L 71.55 180.95
  A 1.41 1.41 0.0 0 1 70.59 182.49
  Q 68.62 183.13 67.25 183.06
  Q 62.03 182.77 49.41 182.15
  Q 41.72 181.77 37.81 180.37
  Q 19.64 173.86 12.70 156.09
  C 7.28 142.17 9.58 126.32 19.06 114.46
  Q 25.21 106.77 35.42 102.44
  C 41.71 99.77 48.59 99.56 52.52 92.43
  Q 57.45 83.44 57.61 83.20
  A 11.16 10.29 -87.3 0 1 58.53 81.97
  Q 62.05 77.93 69.59 75.08
  Q 77.11 72.25 85.34 74.75
  C 90.56 76.33 91.99 72.76 94.78 68.37
  C 96.70 65.34 98.62 61.23 101.21 57.93
  Q 108.33 48.89 118.76 42.76
  Q 124.52 39.38 128.93 38.20
  Q 138.30 35.71 142.77 35.65
  C 154.10 35.47 164.12 36.05 174.05 41.18
  Q 192.34 50.64 201.85 68.89
  Q 203.95 72.92 205.70 80.51
  C 206.86 85.54 208.50 87.77 211.95 90.42
  Q 212.95 91.18 216.61 92.16
  Q 238.56 98.00 247.54 119.47
  C 249.50 124.14 250.69 128.02 250.81 132.99
  Q 251.15 146.86 243.58 159.39
  C 236.88 170.47 225.25 178.08 212.59 180.18
  Q 204.31 181.55 195.32 181.39
  A 1.19 1.19 0.0 0 1 194.16 180.30
  Z"
/>
<path fill="#fc5e13" d="
  M 188.50 160.86
  A 54.40 54.40 0.0 0 1 134.10 215.26
  A 54.40 54.40 0.0 0 1 79.70 160.86
  A 54.40 54.40 0.0 0 1 134.10 106.46
  A 54.40 54.40 0.0 0 1 188.50 160.86
  Z
  M 168.51 133.26
  C 164.86 130.69 163.23 127.28 160.17 124.97
  Q 151.98 118.76 143.46 116.85
  C 138.22 115.67 132.56 116.40 127.73 116.92
  C 119.70 117.79 112.46 121.16 105.89 125.93
  C 102.98 128.04 100.18 132.09 98.03 134.63
  Q 95.87 137.18 94.89 139.21
  C 85.37 158.66 88.59 179.25 104.44 194.01
  C 107.76 197.10 111.55 198.92 115.73 201.58
  Q 117.93 202.97 121.61 203.85
  C 131.41 206.21 143.53 206.32 152.30 201.30
  Q 161.24 196.19 162.13 195.59
  A 10.24 9.78 3.3 0 0 163.67 194.28
  L 170.16 187.53
  A 1.23 1.10 86.8 0 0 170.32 187.33
  Q 176.83 176.82 178.42 166.72
  C 180.08 156.16 177.26 145.72 171.25 136.14
  A 10.04 9.96 -88.8 0 0 168.51 133.26
  Z"
/>
<path fill="#fc5e13" d="
  M 127.50 165.57
  Q 124.91 162.44 123.28 159.22
  C 121.95 156.59 119.84 154.86 117.94 152.38
  C 115.82 149.65 111.16 146.79 112.29 142.41
  C 112.81 140.41 115.18 140.76 116.32 142.01
  Q 119.94 145.98 120.47 146.51
  A 5.35 5.26 -4.9 0 0 121.23 147.14
  Q 126.34 150.66 129.30 154.91
  A 1.08 1.08 0.0 0 0 130.33 155.36
  L 135.14 154.69
  A 1.18 1.15 -69.8 0 0 135.77 154.39
  L 155.82 136.07
  A 2.83 2.82 49.1 0 1 159.91 136.37
  L 159.93 136.39
  A 3.72 3.72 0.0 0 1 159.52 141.36
  C 155.96 144.69 150.17 150.03 146.51 155.43
  Q 144.40 158.54 140.74 163.36
  A 0.49 0.48 -29.3 0 0 140.65 163.67
  Q 140.68 164.03 140.50 164.25
  Q 138.99 166.15 136.71 168.47
  C 135.29 169.92 134.26 168.98 132.73 169.27
  A 1.93 1.92 62.8 0 1 130.99 168.71
  Q 128.84 166.48 128.06 166.03
  A 2.10 2.07 84.0 0 1 127.50 165.57
  Z"
/>
</svg>