<?xml version="1.0" encoding="UTF-8" standalone="no"?>
<!DOCTYPE svg PUBLIC "-//W3C//DTD SVG 1.1//EN" "http://www.w3.org/Graphics/SVG/1.1/DTD/svg11.dtd">
<svg xmlns="http://www.w3.org/2000/svg" version="1.1" viewBox="0.00 0.00 192.00 192.00" width="128" height="128">
<g stroke-width="2.00" fill="none" stroke-linecap="butt">
<path stroke="#a82068" vector-effect="non-scaling-stroke" d="
  M 103.51 0.27
  C 77.74 27.12 51.17 53.25 24.82 79.53
  Q 14.07 90.25 0.00 101.27"
/>
<path stroke="#9e236c" vector-effect="non-scaling-stroke" d="
  M 127.06 5.17
  C 94.06 37.31 61.68 70.07 29.08 102.60
  Q 17.24 114.41 3.73 122.61"
/>
<path stroke="#922670" vector-effect="non-scaling-stroke" d="
  M 146.99 14.69
  Q 132.66 28.97 118.30 42.99
  Q 108.97 52.10 98.02 59.05"
/>
<path stroke="#cc91b6" vector-effect="non-scaling-stroke" d="
  M 98.02 59.05
  L 97.86 51.82
  A 0.79 0.79 0.0 0 0 97.07 51.05
  L 94.96 51.05
  A 0.80 0.79 90.0 0 0 94.17 51.85
  C 94.18 55.67 94.48 101.71 81.35 92.15
  Q 71.33 84.85 61.10 75.55
  A 0.92 0.91 41.7 0 0 59.80 75.62
  L 59.78 75.65
  A 0.99 0.98 -46.3 0 0 59.81 77.00
  C 65.58 82.83 72.70 90.55 76.76 98.28
  C 79.57 103.63 72.25 105.96 68.53 106.84
  C 54.88 110.07 40.01 110.59 25.98 110.43
  A 0.63 0.63 0.0 0 0 25.34 111.06
  L 25.34 111.48
  A 0.67 0.66 0.0 0 0 26.01 112.14
  L 45.58 112.19"
/>
<path stroke="#922670" vector-effect="non-scaling-stroke" d="
  M 45.58 112.19
  C 36.64 124.73 26.23 135.53 14.74 147.23"
/>
<path stroke="#872874" vector-effect="non-scaling-stroke" d="
  M 164.56 28.81
  Q 140.07 55.38 113.75 79.99
  Q 110.26 83.26 102.70 89.48"
/>
<path stroke="#c693b8" vector-effect="non-scaling-stroke" d="
  M 102.70 89.48
  Q 100.92 85.87 100.14 81.84
  Q 97.96 70.56 98.02 59.05"
/>
<path stroke="#7d2a78" vector-effect="non-scaling-stroke" d="
  M 177.23 44.86
  Q 144.82 72.10 117.85 104.76"
/>
<path stroke="#c094ba" vector-effect="non-scaling-stroke" d="
  M 117.85 104.76
  Q 113.28 102.51 115.05 98.62
  Q 116.44 95.57 119.66 91.40
  Q 125.61 83.68 132.22 76.97
  A 0.97 0.96 47.0 0 0 132.26 75.66
  L 132.21 75.60
  A 0.89 0.89 0.0 0 0 130.95 75.53
  Q 123.53 82.24 114.55 89.31
  Q 111.30 91.87 108.30 93.38
  A 1.67 1.65 -50.7 0 1 107.16 93.50
  Q 104.07 92.75 102.70 89.48"
/>
<path stroke="#722b7b" vector-effect="non-scaling-stroke" d="
  M 182.49 54.36
  L 128.08 107.87"
/>
<path stroke="#bc94bc" vector-effect="non-scaling-stroke" d="
  M 128.08 107.87
  Q 122.51 106.91 117.85 104.76"
/>
<path stroke="#b695be" vector-effect="non-scaling-stroke" d="
  M 128.08 107.87
  Q 143.45 110.32 159.21 110.36"
/>
<path stroke="#b196bf" vector-effect="non-scaling-stroke" d="
  M 159.21 110.36
  L 165.95 110.41
  A 0.80 0.79 1.7 0 1 166.74 111.24
  L 166.74 111.29
  A 0.89 0.87 1.0 0 1 165.86 112.12
  L 160.05 112.18"
/>
<path stroke="#b695be" vector-effect="non-scaling-stroke" d="
  M 160.05 112.18
  L 125.19 112.32"
/>
<path stroke="#bc94bc" vector-effect="non-scaling-stroke" d="
  M 125.19 112.32
  Q 118.82 111.77 113.24 108.60"
/>
<path stroke="#c094ba" vector-effect="non-scaling-stroke" d="
  M 113.24 108.60
  Q 108.65 105.91 109.89 100.72
  Q 110.26 99.19 110.38 98.31
  A 0.30 0.29 81.7 0 0 109.97 98.00
  C 107.78 99.01 106.27 100.04 103.73 98.91"
/>
<path stroke="#c693b8" vector-effect="non-scaling-stroke" d="
  M 103.73 98.91
  C 99.12 96.57 97.52 89.94 96.28 85.59
  A 0.25 0.25 0.0 0 0 95.81 85.57
  Q 95.03 87.57 94.78 88.80
  C 93.75 93.97 88.99 102.73 82.22 97.94
  A 0.42 0.42 0.0 0 0 81.56 98.25
  C 81.52 98.87 82.02 100.30 82.25 101.43
  Q 83.29 106.50 77.35 109.31
  Q 70.96 112.34 67.25 112.32
  Q 56.36 112.25 45.58 112.19"
/>
<path stroke="#682d7f" vector-effect="non-scaling-stroke" d="
  M 190.81 81.07
  C 178.15 89.04 168.76 99.10 159.21 110.36"
/>
<path stroke="#5b2e83" vector-effect="non-scaling-stroke" d="
  M 192.00 101.75
  Q 181.19 115.94 168.74 128.53
  Q 137.30 160.35 105.27 191.71"
/>
<path stroke="#682d7f" vector-effect="non-scaling-stroke" d="
  M 77.94 190.34
  Q 87.93 182.25 97.00 173.24
  Q 117.20 153.20 137.26 133.01
  Q 148.08 122.13 160.05 112.18"
/>
<path stroke="#872874" vector-effect="non-scaling-stroke" d="
  M 103.73 98.91
  Q 93.14 107.68 85.57 115.10
  Q 65.15 135.12 32.50 168.07"
/>
<path stroke="#7d2a78" vector-effect="non-scaling-stroke" d="
  M 113.24 108.60
  Q 99.51 115.83 86.94 128.70
  Q 77.27 138.60 40.77 174.63"
/>
<path stroke="#722b7b" vector-effect="non-scaling-stroke" d="
  M 125.19 112.32
  Q 116.32 125.91 104.90 137.60
  Q 81.81 161.23 57.66 184.10"
/>
</g>
<path fill="#ac1e66" d="
  M 100.65 0.00
  L 103.51 0.27
  C 77.74 27.12 51.17 53.25 24.82 79.53
  Q 14.07 90.25 0.00 101.27
  L 0.00 90.79
  Q 2.05 61.08 18.95 38.71
  Q 45.77 3.20 91.64 0.00
  L 100.65 0.00
  Z"
/>
<path fill="#a3216a" d="
  M 127.06 5.17
  C 94.06 37.31 61.68 70.07 29.08 102.60
  Q 17.24 114.41 3.73 122.61
  Q 0.88 112.39 0.00 101.84
  L 0.00 101.27
  Q 14.07 90.25 24.82 79.53
  C 51.17 53.25 77.74 27.12 103.51 0.27
  Q 115.51 1.29 127.06 5.17
  Z"
/>
<path fill="#98246e" d="
  M 127.06 5.17
  Q 137.61 8.73 146.99 14.69
  Q 132.66 28.97 118.30 42.99
  Q 108.97 52.10 98.02 59.05
  L 97.86 51.82
  A 0.79 0.79 0.0 0 0 97.07 51.05
  L 94.96 51.05
  A 0.80 0.79 90.0 0 0 94.17 51.85
  C 94.18 55.67 94.48 101.71 81.35 92.15
  Q 71.33 84.85 61.10 75.55
  A 0.92 0.91 41.7 0 0 59.80 75.62
  L 59.78 75.65
  A 0.99 0.98 -46.3 0 0 59.81 77.00
  C 65.58 82.83 72.70 90.55 76.76 98.28
  C 79.57 103.63 72.25 105.96 68.53 106.84
  C 54.88 110.07 40.01 110.59 25.98 110.43
  A 0.63 0.63 0.0 0 0 25.34 111.06
  L 25.34 111.48
  A 0.67 0.66 0.0 0 0 26.01 112.14
  L 45.58 112.19
  C 36.64 124.73 26.23 135.53 14.74 147.23
  Q 7.45 135.71 3.73 122.61
  Q 17.24 114.41 29.08 102.60
  C 61.68 70.07 94.06 37.31 127.06 5.17
  Z"
/>
<path fill="#8c2772" d="
  M 164.56 28.81
  Q 140.07 55.38 113.75 79.99
  Q 110.26 83.26 102.70 89.48
  Q 100.92 85.87 100.14 81.84
  Q 97.96 70.56 98.02 59.05
  Q 108.97 52.10 118.30 42.99
  Q 132.66 28.97 146.99 14.69
  Q 156.56 20.64 164.56 28.81
  Z"
/>
<path fill="#812976" d="
  M 177.23 44.86
  Q 144.82 72.10 117.85 104.76
  Q 113.28 102.51 115.05 98.62
  Q 116.44 95.57 119.66 91.40
  Q 125.61 83.68 132.22 76.97
  A 0.97 0.96 47.0 0 0 132.26 75.66
  L 132.21 75.60
  A 0.89 0.89 0.0 0 0 130.95 75.53
  Q 123.53 82.24 114.55 89.31
  Q 111.30 91.87 108.30 93.38
  A 1.67 1.65 -50.7 0 1 107.16 93.50
  Q 104.07 92.75 102.70 89.48
  Q 110.26 83.26 113.75 79.99
  Q 140.07 55.38 164.56 28.81
  Q 171.80 36.16 177.23 44.86
  Z"
/>
<path fill="#782a79" d="
  M 177.23 44.86
  L 182.49 54.36
  L 128.08 107.87
  Q 122.51 106.91 117.85 104.76
  Q 144.82 72.10 177.23 44.86
  Z"
/>
<path fill="#fffefe" d="
  M 98.02 59.05
  Q 97.96 70.56 100.14 81.84
  Q 100.92 85.87 102.70 89.48
  Q 104.07 92.75 107.16 93.50
  A 1.67 1.65 -50.7 0 0 108.30 93.38
  Q 111.30 91.87 114.55 89.31
  Q 123.53 82.24 130.95 75.53
  A 0.89 0.89 0.0 0 1 132.21 75.60
  L 132.26 75.66
  A 0.97 0.96 47.0 0 1 132.22 76.97
  Q 125.61 83.68 119.66 91.40
  Q 116.44 95.57 115.05 98.62
  Q 113.28 102.51 117.85 104.76
  Q 122.51 106.91 128.08 107.87
  Q 143.45 110.32 159.21 110.36
  L 165.95 110.41
  A 0.80 0.79 1.7 0 1 166.74 111.24
  L 166.74 111.29
  A 0.89 0.87 1.0 0 1 165.86 112.12
  L 160.05 112.18
  L 125.19 112.32
  Q 118.82 111.77 113.24 108.60
  Q 108.65 105.91 109.89 100.72
  Q 110.26 99.19 110.38 98.31
  A 0.30 0.29 81.7 0 0 109.97 98.00
  C 107.78 99.01 106.27 100.04 103.73 98.91
  C 99.12 96.57 97.52 89.94 96.28 85.59
  A 0.25 0.25 0.0 0 0 95.81 85.57
  Q 95.03 87.57 94.78 88.80
  C 93.75 93.97 88.99 102.73 82.22 97.94
  A 0.42 0.42 0.0 0 0 81.56 98.25
  C 81.52 98.87 82.02 100.30 82.25 101.43
  Q 83.29 106.50 77.35 109.31
  Q 70.96 112.34 67.25 112.32
  Q 56.36 112.25 45.58 112.19
  L 26.01 112.14
  A 0.67 0.66 0.0 0 1 25.34 111.48
  L 25.34 111.06
  A 0.63 0.63 0.0 0 1 25.98 110.43
  C 40.01 110.59 54.88 110.07 68.53 106.84
  C 72.25 105.96 79.57 103.63 76.76 98.28
  C 72.70 90.55 65.58 82.83 59.81 77.00
  A 0.99 0.98 -46.3 0 1 59.78 75.65
  L 59.80 75.62
  A 0.92 0.91 41.7 0 1 61.10 75.55
  Q 71.33 84.85 81.35 92.15
  C 94.48 101.71 94.18 55.67 94.17 51.85
  A 0.80 0.79 -90.0 0 1 94.96 51.05
  L 97.07 51.05
  A 0.79 0.79 0.0 0 1 97.86 51.82
  L 98.02 59.05
  Z"
/>
<path fill="#6c2c7d" d="
  M 182.49 54.36
  Q 188.80 67.28 190.81 81.07
  C 178.15 89.04 168.76 99.10 159.21 110.36
  Q 143.45 110.32 128.08 107.87
  L 182.49 54.36
  Z"
/>
<path fill="#632d80" d="
  M 190.81 81.07
  L 192.00 89.51
  L 192.00 101.75
  Q 181.19 115.94 168.74 128.53
  Q 137.30 160.35 105.27 191.71
  Q 103.97 191.65 102.84 192.00
  L 89.29 192.00
  L 77.94 190.34
  Q 87.93 182.25 97.00 173.24
  Q 117.20 153.20 137.26 133.01
  Q 148.08 122.13 160.05 112.18
  L 165.86 112.12
  A 0.89 0.87 1.0 0 0 166.74 111.29
  L 166.74 111.24
  A 0.80 0.79 1.7 0 0 165.95 110.41
  L 159.21 110.36
  C 168.76 99.10 178.15 89.04 190.81 81.07
  Z"
/>
<path fill="#8c2772" d="
  M 103.73 98.91
  Q 93.14 107.68 85.57 115.10
  Q 65.15 135.12 32.50 168.07
  Q 22.14 158.97 14.74 147.23
  C 26.23 135.53 36.64 124.73 45.58 112.19
  Q 56.36 112.25 67.25 112.32
  Q 70.96 112.34 77.35 109.31
  Q 83.29 106.50 82.25 101.43
  C 82.02 100.30 81.52 98.87 81.56 98.25
  A 0.42 0.42 0.0 0 1 82.22 97.94
  C 88.99 102.73 93.75 93.97 94.78 88.80
  Q 95.03 87.57 95.81 85.57
  A 0.25 0.25 0.0 0 1 96.28 85.59
  C 97.52 89.94 99.12 96.57 103.73 98.91
  Z"
/>
<path fill="#812976" d="
  M 113.24 108.60
  Q 99.51 115.83 86.94 128.70
  Q 77.27 138.60 40.77 174.63
  L 32.50 168.07
  Q 65.15 135.12 85.57 115.10
  Q 93.14 107.68 103.73 98.91
  C 106.27 100.04 107.78 99.01 109.97 98.00
  A 0.30 0.29 81.7 0 1 110.38 98.31
  Q 110.26 99.19 109.89 100.72
  Q 108.65 105.91 113.24 108.60
  Z"
/>
<path fill="#522f85" d="
  M 192.00 101.75
  Q 191.98 101.95 192.00 102.16
  C 188.18 149.42 152.94 186.71 105.27 191.71
  Q 137.30 160.35 168.74 128.53
  Q 181.19 115.94 192.00 101.75
  Z"
/>
<path fill="#782a79" d="
  M 113.24 108.60
  Q 118.82 111.77 125.19 112.32
  Q 116.32 125.91 104.90 137.60
  Q 81.81 161.23 57.66 184.10
  Q 48.73 180.25 40.77 174.63
  Q 77.27 138.60 86.94 128.70
  Q 99.51 115.83 113.24 108.60
  Z"
/>
<path fill="#6c2c7d" d="
  M 160.05 112.18
  Q 148.08 122.13 137.26 133.01
  Q 117.20 153.20 97.00 173.24
  Q 87.93 182.25 77.94 190.34
  Q 67.47 188.46 57.66 184.10
  Q 81.81 161.23 104.90 137.60
  Q 116.32 125.91 125.19 112.32
  L 160.05 112.18
  Z"
/>
</svg>