<?xml version="1.0" encoding="UTF-8" standalone="no"?>
<!DOCTYPE svg PUBLIC "-//W3C//DTD SVG 1.1//EN" "http://www.w3.org/Graphics/SVG/1.1/DTD/svg11.dtd">
<svg xmlns="http://www.w3.org/2000/svg" version="1.1" viewBox="0.00 0.00 256.00 256.00" width="128" height="128">
<g stroke-width="2.00" fill="none" stroke-linecap="butt">
<path stroke="#19a9d0" vector-effect="non-scaling-stroke" d="
  M 67.16 58.04
  Q 68.00 60.76 71.37 62.46"
/>
<path stroke="#19a9d0" vector-effect="non-scaling-stroke" d="
  M 107.64 103.25
  Q 107.84 104.61 108.91 104.74"
/>
<path stroke="#19a9d0" vector-effect="non-scaling-stroke" d="
  M 156.90 158.41
  Q 157.55 160.25 159.24 162.02
  Q 170.81 174.15 171.79 175.17
  C 175.63 179.20 178.91 183.41 182.29 187.72
  Q 182.34 187.79 185.44 191.08
  Q 187.94 193.74 187.43 196.59"
/>
</g>
<path fill="#16c0de" d="
  M 67.16 58.04
  Q 68.00 60.76 71.37 62.46
  Q 73.79 65.26 76.31 67.95
  Q 79.33 71.19 81.19 73.56
  Q 88.78 83.26 97.52 91.95
  C 100.99 95.41 104.27 99.46 107.64 103.25
  Q 107.84 104.61 108.91 104.74
  C 116.33 114.43 125.54 122.79 132.79 131.61
  Q 138.42 138.47 141.47 141.65
  C 147.60 148.04 150.56 150.97 153.76 154.85
  Q 155.27 156.68 156.90 158.41
  Q 157.55 160.25 159.24 162.02
  Q 170.81 174.15 171.79 175.17
  C 175.63 179.20 178.91 183.41 182.29 187.72
  Q 182.34 187.79 185.44 191.08
  Q 187.94 193.74 187.43 196.59
  L 2.08 196.33
  A 0.88 0.87 14.4 0 0 1.31 196.78
  Q 1.21 196.95 1.18 197.01
  A 0.29 0.29 0.0 0 1 0.64 196.93
  L 0.00 194.36
  L 0.00 164.25
  Q 2.36 163.48 5.33 163.01
  C 19.74 160.78 30.16 152.05 34.98 138.30
  Q 38.22 129.09 36.05 119.93
  C 32.54 105.12 22.20 94.69 7.20 91.67
  Q 3.50 90.93 0.00 90.23
  L 0.00 58.04
  L 67.16 58.04
  Z"
/>
<path fill="#1b92c1" d="
  M 187.43 196.59
  Q 187.94 193.74 185.44 191.08
  Q 182.34 187.79 182.29 187.72
  C 178.91 183.41 175.63 179.20 171.79 175.17
  Q 170.81 174.15 159.24 162.02
  Q 157.55 160.25 156.90 158.41
  Q 154.90 155.35 153.11 153.39
  C 145.96 145.54 139.63 139.37 132.78 131.03
  Q 124.95 121.51 114.03 110.66
  A 7.04 6.54 7.4 0 1 113.34 109.83
  Q 111.43 107.05 108.91 104.74
  Q 107.84 104.61 107.64 103.25
  Q 104.06 98.01 101.38 95.36
  Q 88.97 83.07 78.20 69.31
  Q 76.25 66.81 71.37 62.46
  Q 68.00 60.76 67.16 58.04
  L 253.32 58.04
  A 1.01 1.00 -90.0 0 1 254.32 59.05
  L 254.32 91.42
  A 0.85 0.84 88.6 0 1 253.52 92.27
  Q 239.19 92.97 229.49 102.39
  C 215.12 116.34 214.26 138.57 228.24 153.31
  Q 238.13 163.73 253.61 164.87
  A 0.77 0.77 0.0 0 1 254.33 165.64
  L 254.33 196.23
  A 0.99 0.98 -0.6 0 1 253.36 197.21
  Q 231.49 197.55 208.25 197.39
  Q 195.08 197.30 187.43 196.59
  Z"
/>
</svg>