<?xml version="1.0" encoding="UTF-8" standalone="no"?>
<!DOCTYPE svg PUBLIC "-//W3C//DTD SVG 1.1//EN" "http://www.w3.org/Graphics/SVG/1.1/DTD/svg11.dtd">
<svg xmlns="http://www.w3.org/2000/svg" version="1.1" viewBox="0.00 0.00 256.00 256.00" width="128" height="128">
<path stroke="#80849e" stroke-width="2.00" fill="none" stroke-linecap="butt" vector-effect="non-scaling-stroke" d="
  M 69.17 197.85
  A 0.48 0.48 0.0 0 0 69.51 197.71
  L 95.96 170.07
  A 0.86 0.85 -55.3 0 1 96.95 169.89
  Q 98.02 170.39 99.67 171.29
  C 110.93 177.41 125.24 173.82 135.57 167.34
  A 0.65 0.65 0.0 0 0 135.68 166.33
  L 127.32 157.96
  A 0.48 0.48 0.0 0 1 127.67 157.14
  L 141.46 157.49
  A 0.35 0.34 68.1 0 0 141.71 156.90
  L 132.72 147.90
  A 0.30 0.30 0.0 0 1 132.94 147.38
  L 156.11 147.97
  A 1.07 1.05 17.6 0 0 157.00 147.52
  Q 163.01 139.02 168.20 129.21
  C 179.36 108.09 187.59 84.51 196.19 59.59
  A 0.27 0.27 0.0 0 0 195.83 59.25
  Q 168.83 70.48 161.01 74.03
  C 143.53 81.96 125.66 91.03 110.35 103.01
  A 1.74 1.73 68.7 0 0 109.70 104.50
  L 111.52 127.08
  A 0.30 0.30 0.0 0 1 111.03 127.33
  L 101.48 119.11
  A 0.30 0.29 18.3 0 0 100.99 119.35
  L 102.07 132.86
  A 0.49 0.49 0.0 0 1 101.27 133.27
  L 92.30 125.55
  A 0.61 0.60 34.3 0 0 91.37 125.72
  C 84.72 138.48 82.88 152.02 91.17 164.45
  A 0.69 0.69 0.0 0 1 91.10 165.31
  L 60.22 197.58
  A 0.03 0.02 20.8 0 0 60.24 197.62
  L 69.17 197.85"
/>
<path fill="#00083d" d="
  M 256.00 0.00
  L 256.00 256.00
  L 0.00 256.00
  L 0.00 0.00
  L 256.00 0.00
  Z
  M 69.17 197.85
  A 0.48 0.48 0.0 0 0 69.51 197.71
  L 95.96 170.07
  A 0.86 0.85 -55.3 0 1 96.95 169.89
  Q 98.02 170.39 99.67 171.29
  C 110.93 177.41 125.24 173.82 135.57 167.34
  A 0.65 0.65 0.0 0 0 135.68 166.33
  L 127.32 157.96
  A 0.48 0.48 0.0 0 1 127.67 157.14
  L 141.46 157.49
  A 0.35 0.34 68.1 0 0 141.71 156.90
  L 132.72 147.90
  A 0.30 0.30 0.0 0 1 132.94 147.38
  L 156.11 147.97
  A 1.07 1.05 17.6 0 0 157.00 147.52
  Q 163.01 139.02 168.20 129.21
  C 179.36 108.09 187.59 84.51 196.19 59.59
  A 0.27 0.27 0.0 0 0 195.83 59.25
  Q 168.83 70.48 161.01 74.03
  C 143.53 81.96 125.66 91.03 110.35 103.01
  A 1.74 1.73 68.7 0 0 109.70 104.50
  L 111.52 127.08
  A 0.30 0.30 0.0 0 1 111.03 127.33
  L 101.48 119.11
  A 0.30 0.29 18.3 0 0 100.99 119.35
  L 102.07 132.86
  A 0.49 0.49 0.0 0 1 101.27 133.27
  L 92.30 125.55
  A 0.61 0.60 34.3 0 0 91.37 125.72
  C 84.72 138.48 82.88 152.02 91.17 164.45
  A 0.69 0.69 0.0 0 1 91.10 165.31
  L 60.22 197.58
  A 0.03 0.02 20.8 0 0 60.24 197.62
  L 69.17 197.85
  Z"
/>
<path fill="#ffffff" d="
  M 69.17 197.85
  L 60.24 197.62
  A 0.03 0.02 20.8 0 1 60.22 197.58
  L 91.10 165.31
  A 0.69 0.69 0.0 0 0 91.17 164.45
  C 82.88 152.02 84.72 138.48 91.37 125.72
  A 0.61 0.60 34.3 0 1 92.30 125.55
  L 101.27 133.27
  A 0.49 0.49 0.0 0 0 102.07 132.86
  L 100.99 119.35
  A 0.30 0.29 18.3 0 1 101.48 119.11
  L 111.03 127.33
  A 0.30 0.30 0.0 0 0 111.52 127.08
  L 109.70 104.50
  A 1.74 1.73 68.7 0 1 110.35 103.01
  C 125.66 91.03 143.53 81.96 161.01 74.03
  Q 168.83 70.48 195.83 59.25
  A 0.27 0.27 0.0 0 1 196.19 59.59
  C 187.59 84.51 179.36 108.09 168.20 129.21
  Q 163.01 139.02 157.00 147.52
  A 1.07 1.05 17.6 0 1 156.11 147.97
  L 132.94 147.38
  A 0.30 0.30 0.0 0 0 132.72 147.90
  L 141.71 156.90
  A 0.35 0.34 68.1 0 1 141.46 157.49
  L 127.67 157.14
  A 0.48 0.48 0.0 0 0 127.32 157.96
  L 135.68 166.33
  A 0.65 0.65 0.0 0 1 135.57 167.34
  C 125.24 173.82 110.93 177.41 99.67 171.29
  Q 98.02 170.39 96.95 169.89
  A 0.86 0.85 -55.3 0 0 95.96 170.07
  L 69.51 197.71
  A 0.48 0.48 0.0 0 1 69.17 197.85
  Z"
/>
</svg>