<?xml version="1.0" encoding="UTF-8" standalone="no"?>
<!DOCTYPE svg PUBLIC "-//W3C//DTD SVG 1.1//EN" "http://www.w3.org/Graphics/SVG/1.1/DTD/svg11.dtd">
<svg xmlns="http://www.w3.org/2000/svg" version="1.1" viewBox="0.00 0.00 256.00 256.00" width="128" height="128">
<g stroke-width="2.00" fill="none" stroke-linecap="butt">
<path stroke="#808080" vector-effect="non-scaling-stroke" d="
  M 13.58 208.96
  A 10.29 10.29 0.0 0 0 22.49 224.40
  L 234.53 224.40
  A 10.29 10.29 0.0 0 0 243.44 208.96
  L 137.42 25.23
  A 10.29 10.29 0.0 0 0 119.60 25.23
  L 13.58 208.96"
/>
<path stroke="#808080" vector-effect="non-scaling-stroke" d="
  M 215.53 203.59
  A 0.58 0.57 69.4 0 0 215.88 202.81
  C 214.07 198.73 211.66 195.54 209.69 192.20
  Q 198.68 173.59 191.20 160.24
  Q 182.39 144.49 172.87 128.15
  Q 166.61 117.42 133.97 61.00
  C 132.65 58.71 131.83 56.28 130.95 54.46
  A 2.08 2.07 -15.7 0 0 128.88 53.30
  C 120.11 54.14 126.15 63.51 128.92 68.32
  Q 157.54 117.95 180.47 157.79
  Q 186.78 168.76 187.28 169.70
  C 193.30 180.84 198.36 189.25 204.05 199.21
  Q 204.99 200.86 207.13 203.15
  A 2.37 2.36 -15.8 0 0 208.40 203.86
  Q 212.27 204.63 215.53 203.59"
/>
<path stroke="#808080" vector-effect="non-scaling-stroke" d="
  M 181.78 203.48
  A 0.35 0.35 0.0 0 0 182.08 202.96
  L 112.75 81.70
  A 0.35 0.35 0.0 0 0 112.45 81.52
  L 111.37 81.52
  A 0.35 0.35 0.0 0 0 111.07 81.70
  L 41.06 202.96
  A 0.35 0.35 0.0 0 0 41.37 203.48
  L 181.78 203.48"
/>
<path stroke="#f4f1f0" vector-effect="non-scaling-stroke" d="
  M 52.82 195.60
  A 1.50 1.50 0.0 0 0 54.40 196.94
  C 78.39 195.48 110.91 196.90 146.46 196.45
  Q 154.06 196.36 168.45 196.25
  A 1.47 1.47 0.0 0 0 169.78 194.17
  Q 168.63 191.64 167.18 188.18
  Q 166.22 185.90 164.05 182.44
  Q 153.71 165.99 142.73 146.42
  C 140.66 142.74 137.72 139.22 136.18 135.54
  C 135.20 133.19 133.29 131.17 132.10 128.64
  C 129.71 123.54 125.57 117.70 123.63 114.12
  C 121.98 111.09 119.40 108.31 118.69 105.42
  Q 118.55 104.84 115.68 100.91
  A 5.72 5.67 -71.3 0 1 114.80 99.11
  L 114.60 98.41
  A 2.61 2.61 0.0 0 0 110.26 97.27
  C 107.48 100.02 104.97 104.92 103.42 108.20
  C 102.37 110.40 100.43 111.94 99.54 114.23
  Q 98.69 116.42 97.07 118.99
  Q 93.00 125.43 88.20 133.11
  C 86.86 135.26 86.03 137.49 85.16 139.20
  A 7.07 6.84 -12.1 0 1 84.26 140.54
  Q 82.14 142.96 80.93 146.00
  A 6.68 6.23 74.6 0 1 80.28 147.24
  Q 75.73 154.11 73.17 159.41
  C 72.05 161.72 70.19 163.71 69.41 165.82
  Q 68.30 168.83 66.81 170.66
  C 65.15 172.71 64.23 175.20 62.39 178.14
  Q 60.87 180.57 59.48 182.76
  C 57.35 186.12 56.12 189.12 53.87 192.37
  Q 52.67 194.11 52.82 195.60"
/>
</g>
<path fill="#ffffff" d="
  M 8.50 206.29
  L 114.76 22.10
  A 15.89 15.89 0.0 0 1 142.28 22.10
  L 248.54 206.29
  A 15.89 15.89 0.0 0 1 234.77 230.12
  L 22.27 230.12
  A 15.89 15.89 0.0 0 1 8.50 206.29
  Z
  M 13.58 208.96
  A 10.29 10.29 0.0 0 0 22.49 224.40
  L 234.53 224.40
  A 10.29 10.29 0.0 0 0 243.44 208.96
  L 137.42 25.23
  A 10.29 10.29 0.0 0 0 119.60 25.23
  L 13.58 208.96
  Z"
/>
<path fill="#000000" d="
  M 13.58 208.96
  L 119.60 25.23
  A 10.29 10.29 0.0 0 1 137.42 25.23
  L 243.44 208.96
  A 10.29 10.29 0.0 0 1 234.53 224.40
  L 22.49 224.40
  A 10.29 10.29 0.0 0 1 13.58 208.96
  Z
  M 215.53 203.59
  A 0.58 0.57 69.4 0 0 215.88 202.81
  C 214.07 198.73 211.66 195.54 209.69 192.20
  Q 198.68 173.59 191.20 160.24
  Q 182.39 144.49 172.87 128.15
  Q 166.61 117.42 133.97 61.00
  C 132.65 58.71 131.83 56.28 130.95 54.46
  A 2.08 2.07 -15.7 0 0 128.88 53.30
  C 120.11 54.14 126.15 63.51 128.92 68.32
  Q 157.54 117.95 180.47 157.79
  Q 186.78 168.76 187.28 169.70
  C 193.30 180.84 198.36 189.25 204.05 199.21
  Q 204.99 200.86 207.13 203.15
  A 2.37 2.36 -15.8 0 0 208.40 203.86
  Q 212.27 204.63 215.53 203.59
  Z
  M 181.78 203.48
  A 0.35 0.35 0.0 0 0 182.08 202.96
  L 112.75 81.70
  A 0.35 0.35 0.0 0 0 112.45 81.52
  L 111.37 81.52
  A 0.35 0.35 0.0 0 0 111.07 81.70
  L 41.06 202.96
  A 0.35 0.35 0.0 0 0 41.37 203.48
  L 181.78 203.48
  Z"
/>
<path fill="#ffffff" d="
  M 215.53 203.59
  Q 212.27 204.63 208.40 203.86
  A 2.37 2.36 -15.8 0 1 207.13 203.15
  Q 204.99 200.86 204.05 199.21
  C 198.36 189.25 193.30 180.84 187.28 169.70
  Q 186.78 168.76 180.47 157.79
  Q 157.54 117.95 128.92 68.32
  C 126.15 63.51 120.11 54.14 128.88 53.30
  A 2.08 2.07 -15.7 0 1 130.95 54.46
  C 131.83 56.28 132.65 58.71 133.97 61.00
  Q 166.61 117.42 172.87 128.15
  Q 182.39 144.49 191.20 160.24
  Q 198.68 173.59 209.69 192.20
  C 211.66 195.54 214.07 198.73 215.88 202.81
  A 0.58 0.57 69.4 0 1 215.53 203.59
  Z"
/>
<path fill="#ffffff" d="
  M 181.78 203.48
  L 41.37 203.48
  A 0.35 0.35 0.0 0 1 41.06 202.96
  L 111.07 81.70
  A 0.35 0.35 0.0 0 1 111.37 81.52
  L 112.45 81.52
  A 0.35 0.35 0.0 0 1 112.75 81.70
  L 182.08 202.96
  A 0.35 0.35 0.0 0 1 181.78 203.48
  Z
  M 52.82 195.60
  A 1.50 1.50 0.0 0 0 54.40 196.94
  C 78.39 195.48 110.91 196.90 146.46 196.45
  Q 154.06 196.36 168.45 196.25
  A 1.47 1.47 0.0 0 0 169.78 194.17
  Q 168.63 191.64 167.18 188.18
  Q 166.22 185.90 164.05 182.44
  Q 153.71 165.99 142.73 146.42
  C 140.66 142.74 137.72 139.22 136.18 135.54
  C 135.20 133.19 133.29 131.17 132.10 128.64
  C 129.71 123.54 125.57 117.70 123.63 114.12
  C 121.98 111.09 119.40 108.31 118.69 105.42
  Q 118.55 104.84 115.68 100.91
  A 5.72 5.67 -71.3 0 1 114.80 99.11
  L 114.60 98.41
  A 2.61 2.61 0.0 0 0 110.26 97.27
  C 107.48 100.02 104.97 104.92 103.42 108.20
  C 102.37 110.40 100.43 111.94 99.54 114.23
  Q 98.69 116.42 97.07 118.99
  Q 93.00 125.43 88.20 133.11
  C 86.86 135.26 86.03 137.49 85.16 139.20
  A 7.07 6.84 -12.1 0 1 84.26 140.54
  Q 82.14 142.96 80.93 146.00
  A 6.68 6.23 74.6 0 1 80.28 147.24
  Q 75.73 154.11 73.17 159.41
  C 72.05 161.72 70.19 163.71 69.41 165.82
  Q 68.30 168.83 66.81 170.66
  C 65.15 172.71 64.23 175.20 62.39 178.14
  Q 60.87 180.57 59.48 182.76
  C 57.35 186.12 56.12 189.12 53.87 192.37
  Q 52.67 194.11 52.82 195.60
  Z"
/>
<path fill="#e9e3e0" d="
  M 52.82 195.60
  Q 52.67 194.11 53.87 192.37
  C 56.12 189.12 57.35 186.12 59.48 182.76
  Q 60.87 180.57 62.39 178.14
  C 64.23 175.20 65.15 172.71 66.81 170.66
  Q 68.30 168.83 69.41 165.82
  C 70.19 163.71 72.05 161.72 73.17 159.41
  Q 75.73 154.11 80.28 147.24
  A 6.68 6.23 74.6 0 0 80.93 146.00
  Q 82.14 142.96 84.26 140.54
  A 7.07 6.84 -12.1 0 0 85.16 139.20
  C 86.03 137.49 86.86 135.26 88.20 133.11
  Q 93.00 125.43 97.07 118.99
  Q 98.69 116.42 99.54 114.23
  C 100.43 111.94 102.37 110.40 103.42 108.20
  C 104.97 104.92 107.48 100.02 110.26 97.27
  A 2.61 2.61 0.0 0 1 114.60 98.41
  L 114.80 99.11
  A 5.72 5.67 -71.3 0 0 115.68 100.91
  Q 118.55 104.84 118.69 105.42
  C 119.40 108.31 121.98 111.09 123.63 114.12
  C 125.57 117.70 129.71 123.54 132.10 128.64
  C 133.29 131.17 135.20 133.19 136.18 135.54
  C 137.72 139.22 140.66 142.74 142.73 146.42
  Q 153.71 165.99 164.05 182.44
  Q 166.22 185.90 167.18 188.18
  Q 168.63 191.64 169.78 194.17
  A 1.47 1.47 0.0 0 1 168.45 196.25
  Q 154.06 196.36 146.46 196.45
  C 110.91 196.90 78.39 195.48 54.40 196.94
  A 1.50 1.50 0.0 0 1 52.82 195.60
  Z"
/>
</svg>