<?xml version="1.0" encoding="UTF-8" standalone="no"?>
<!DOCTYPE svg PUBLIC "-//W3C//DTD SVG 1.1//EN" "http://www.w3.org/Graphics/SVG/1.1/DTD/svg11.dtd">
<svg xmlns="http://www.w3.org/2000/svg" version="1.1" viewBox="0.00 0.00 128.00 128.00" width="128" height="128">
<path fill="#0e9af7" d="
  M 17.68 14.00
  Q 23.29 14.10 28.11 17.66
  Q 35.37 23.00 35.59 32.30
  Q 35.72 37.74 35.83 60.86
  Q 35.87 70.67 36.12 72.14
  C 37.70 81.44 43.61 89.50 52.73 92.46
  Q 63.52 95.96 74.13 92.82
  C 84.37 89.78 90.82 79.44 90.93 68.99
  Q 91.07 55.71 91.00 41.77
  A 3.08 3.02 -33.6 0 1 91.26 40.54
  Q 94.66 32.94 102.19 33.84
  Q 107.34 34.45 110.03 39.06
  Q 111.47 41.53 111.16 48.66
  C 110.79 57.40 112.09 70.58 109.91 79.83
  C 105.65 97.99 92.98 110.11 73.99 113.22
  Q 60.40 115.45 47.13 111.60
  C 27.57 105.93 17.04 86.84 17.02 67.01
  Q 16.97 33.87 17.00 14.66
  A 0.67 0.66 0.4 0 1 17.68 14.00
  Z"
/>
<path fill="#062d46" d="
  M 63.48 70.14
  Q 74.14 70.08 83.24 67.43
  A 0.65 0.65 0.0 0 1 84.07 68.08
  Q 83.51 82.29 71.08 86.74
  Q 67.70 87.95 63.58 87.97
  Q 59.46 88.00 56.06 86.82
  Q 43.58 82.51 42.86 68.31
  A 0.65 0.65 0.0 0 1 43.69 67.65
  Q 52.82 70.20 63.48 70.14
  Z"
/>
</svg>