<?xml version="1.0" encoding="UTF-8" standalone="no"?>
<!DOCTYPE svg PUBLIC "-//W3C//DTD SVG 1.1//EN" "http://www.w3.org/Graphics/SVG/1.1/DTD/svg11.dtd">
<svg xmlns="http://www.w3.org/2000/svg" version="1.1" viewBox="0.00 0.00 256.00 256.00" width="128" height="128">
<g stroke-width="2.00" fill="none" stroke-linecap="butt">
<path stroke="#f66590" vector-effect="non-scaling-stroke" d="
  M 67.26 67.26
  C 55.01 79.51 39.70 86.53 22.34 88.35
  A 3.64 3.49 -55.7 0 0 21.59 88.51
  C 15.38 90.46 16.00 94.97 16.00 101.51
  Q 16.00 105.91 16.00 128.01
  Q 16.00 150.11 16.00 154.51
  C 16.00 161.05 15.38 165.56 21.59 167.51
  A 3.64 3.49 55.7 0 0 22.35 167.66
  C 39.70 169.49 55.02 176.50 67.27 188.75
  C 79.52 201.01 86.54 216.32 88.36 233.67
  A 3.64 3.49 34.3 0 0 88.52 234.43
  C 90.47 240.64 94.98 240.02 101.52 240.02
  Q 105.92 240.02 128.02 240.02
  Q 150.12 240.02 154.52 240.02
  C 161.06 240.02 165.57 240.63 167.52 234.42
  A 3.64 3.49 -34.3 0 0 167.67 233.67
  C 169.50 216.32 176.51 201.00 188.76 188.75
  C 201.02 176.50 216.33 169.48 233.68 167.66
  A 3.64 3.49 -55.7 0 0 234.44 167.50
  C 240.65 165.55 240.03 161.04 240.03 154.50
  Q 240.03 150.10 240.03 128.00
  Q 240.03 105.90 240.03 101.50
  C 240.03 94.96 240.65 90.45 234.43 88.50
  A 3.64 3.49 55.7 0 0 233.68 88.34
  C 216.33 86.52 201.01 79.51 188.76 67.25
  C 176.51 55.00 169.49 39.69 167.67 22.33
  A 3.64 3.49 34.3 0 0 167.51 21.58
  C 165.56 15.37 161.05 15.99 154.51 15.99
  Q 150.11 15.99 128.01 15.99
  Q 105.91 15.99 101.51 15.99
  C 94.97 15.99 90.46 15.37 88.51 21.58
  A 3.64 3.49 -34.3 0 0 88.35 22.34
  C 86.53 39.69 79.52 55.01 67.26 67.26"
/>
<path stroke="#f66590" vector-effect="non-scaling-stroke" d="
  M 195.85 127.81
  A 67.46 67.46 0.0 0 0 128.39 60.35
  A 67.46 67.46 0.0 0 0 60.93 127.81
  A 67.46 67.46 0.0 0 0 128.39 195.27
  A 67.46 67.46 0.0 0 0 195.85 127.81"
/>
</g>
<path fill="#ffc4d8" d="
  M 234.45 0.00
  Q 252.75 3.18 256.00 21.50
  L 256.00 234.47
  Q 252.81 252.74 234.51 256.00
  L 21.56 256.00
  C 9.66 254.25 1.83 246.09 0.00 234.49
  L 0.00 21.53
  Q 3.21 3.25 21.50 0.00
  L 234.45 0.00
  Z
  M 67.26 67.26
  C 55.01 79.51 39.70 86.53 22.34 88.35
  A 3.64 3.49 -55.7 0 0 21.59 88.51
  C 15.38 90.46 16.00 94.97 16.00 101.51
  Q 16.00 105.91 16.00 128.01
  Q 16.00 150.11 16.00 154.51
  C 16.00 161.05 15.38 165.56 21.59 167.51
  A 3.64 3.49 55.7 0 0 22.35 167.66
  C 39.70 169.49 55.02 176.50 67.27 188.75
  C 79.52 201.01 86.54 216.32 88.36 233.67
  A 3.64 3.49 34.3 0 0 88.52 234.43
  C 90.47 240.64 94.98 240.02 101.52 240.02
  Q 105.92 240.02 128.02 240.02
  Q 150.12 240.02 154.52 240.02
  C 161.06 240.02 165.57 240.63 167.52 234.42
  A 3.64 3.49 -34.3 0 0 167.67 233.67
  C 169.50 216.32 176.51 201.00 188.76 188.75
  C 201.02 176.50 216.33 169.48 233.68 167.66
  A 3.64 3.49 -55.7 0 0 234.44 167.50
  C 240.65 165.55 240.03 161.04 240.03 154.50
  Q 240.03 150.10 240.03 128.00
  Q 240.03 105.90 240.03 101.50
  C 240.03 94.96 240.65 90.45 234.43 88.50
  A 3.64 3.49 55.7 0 0 233.68 88.34
  C 216.33 86.52 201.01 79.51 188.76 67.25
  C 176.51 55.00 169.49 39.69 167.67 22.33
  A 3.64 3.49 34.3 0 0 167.51 21.58
  C 165.56 15.37 161.05 15.99 154.51 15.99
  Q 150.11 15.99 128.01 15.99
  Q 105.91 15.99 101.51 15.99
  C 94.97 15.99 90.46 15.37 88.51 21.58
  A 3.64 3.49 -34.3 0 0 88.35 22.34
  C 86.53 39.69 79.52 55.01 67.26 67.26
  Z"
/>
<path fill="#ec0648" d="
  M 128.01 15.99
  Q 150.11 15.99 154.51 15.99
  C 161.05 15.99 165.56 15.37 167.51 21.58
  A 3.64 3.49 34.3 0 1 167.67 22.33
  C 169.49 39.69 176.51 55.00 188.76 67.25
  C 201.01 79.51 216.33 86.52 233.68 88.34
  A 3.64 3.49 55.7 0 1 234.43 88.50
  C 240.65 90.45 240.03 94.96 240.03 101.50
  Q 240.03 105.90 240.03 128.00
  Q 240.03 150.10 240.03 154.50
  C 240.03 161.04 240.65 165.55 234.44 167.50
  A 3.64 3.49 -55.7 0 1 233.68 167.66
  C 216.33 169.48 201.02 176.50 188.76 188.75
  C 176.51 201.00 169.50 216.32 167.67 233.67
  A 3.64 3.49 -34.3 0 1 167.52 234.42
  C 165.57 240.63 161.06 240.02 154.52 240.02
  Q 150.12 240.02 128.02 240.02
  Q 105.92 240.02 101.52 240.02
  C 94.98 240.02 90.47 240.64 88.52 234.43
  A 3.64 3.49 34.3 0 1 88.36 233.67
  C 86.54 216.32 79.52 201.01 67.27 188.75
  C 55.02 176.50 39.70 169.49 22.35 167.66
  A 3.64 3.49 55.7 0 1 21.59 167.51
  C 15.38 165.56 16.00 161.05 16.00 154.51
  Q 16.00 150.11 16.00 128.01
  Q 16.00 105.91 16.00 101.51
  C 16.00 94.97 15.38 90.46 21.59 88.51
  A 3.64 3.49 -55.7 0 1 22.34 88.35
  C 39.70 86.53 55.01 79.51 67.26 67.26
  C 79.52 55.01 86.53 39.69 88.35 22.34
  A 3.64 3.49 -34.3 0 1 88.51 21.58
  C 90.46 15.37 94.97 15.99 101.51 15.99
  Q 105.91 15.99 128.01 15.99
  Z
  M 195.85 127.81
  A 67.46 67.46 0.0 0 0 128.39 60.35
  A 67.46 67.46 0.0 0 0 60.93 127.81
  A 67.46 67.46 0.0 0 0 128.39 195.27
  A 67.46 67.46 0.0 0 0 195.85 127.81
  Z"
/>
<circle fill="#ffc4d8" cx="128.39" cy="127.81" r="67.46"/>
</svg>