<?xml version="1.0" encoding="UTF-8" standalone="no"?>
<!DOCTYPE svg PUBLIC "-//W3C//DTD SVG 1.1//EN" "http://www.w3.org/Graphics/SVG/1.1/DTD/svg11.dtd">
<svg xmlns="http://www.w3.org/2000/svg" version="1.1" viewBox="0.00 0.00 180.00 180.00" width="128" height="128">
<path fill="#b641ff" d="
  M 96.31 129.48
  L 96.45 55.14
  A 0.34 0.34 0.0 0 1 96.79 54.80
  L 171.13 54.93
  A 0.34 0.34 0.0 0 1 171.37 55.51
  L 96.89 129.72
  A 0.34 0.34 0.0 0 1 96.31 129.48
  Z"
/>
<path fill="#f72f96" d="
  M 83.01 55.60
  L 83.01 129.82
  A 0.30 0.30 0.0 0 1 82.71 130.12
  L 8.49 130.12
  A 0.30 0.30 0.0 0 1 8.28 129.61
  L 82.50 55.39
  A 0.30 0.30 0.0 0 1 83.01 55.60
  Z"
/>
</svg>