<?xml version="1.0" encoding="UTF-8" standalone="no"?>
<!DOCTYPE svg PUBLIC "-//W3C//DTD SVG 1.1//EN" "http://www.w3.org/Graphics/SVG/1.1/DTD/svg11.dtd">
<svg xmlns="http://www.w3.org/2000/svg" version="1.1" viewBox="0.00 0.00 256.00 256.00" width="128" height="128">
<g stroke-width="2.00" fill="none" stroke-linecap="butt">
<path stroke="#f87d84" vector-effect="non-scaling-stroke" d="
  M 155.57 93.25
  C 154.50 73.62 155.86 55.64 157.27 34.91"
/>
<path stroke="#f16f82" vector-effect="non-scaling-stroke" d="
  M 112.12 118.17
  Q 114.02 105.07 114.29 85.93
  Q 114.48 72.89 118.06 56.21"
/>
<path stroke="#f87d84" vector-effect="non-scaling-stroke" d="
  M 163.05 175.68
  Q 162.20 165.89 162.42 156.00
  Q 162.86 136.35 164.76 116.79"
/>
<path stroke="#f16f82" vector-effect="non-scaling-stroke" d="
  M 92.03 236.13
  Q 89.70 223.33 90.01 207.89
  C 90.45 185.99 90.55 172.47 91.96 158.31"
/>
</g>
<path fill="#fb8384" d="
  M 155.57 93.25
  C 154.50 73.62 155.86 55.64 157.27 34.91
  Q 169.12 28.14 179.91 19.69
  C 183.65 16.75 186.47 13.55 188.90 9.66
  Q 189.52 8.67 190.60 8.53
  A 2.16 2.16 0.0 0 1 192.84 9.78
  C 196.79 18.45 199.73 28.57 199.17 38.33
  Q 198.11 56.72 187.14 71.25
  Q 184.70 74.49 177.82 79.83
  Q 170.46 85.56 155.57 93.25
  Z"
/>
<path fill="#f57783" d="
  M 157.27 34.91
  C 155.86 55.64 154.50 73.62 155.57 93.25
  L 112.12 118.17
  Q 114.02 105.07 114.29 85.93
  Q 114.48 72.89 118.06 56.21
  L 157.27 34.91
  Z"
/>
<path fill="#ed6681" d="
  M 118.06 56.21
  Q 114.48 72.89 114.29 85.93
  Q 114.02 105.07 112.12 118.17
  Q 102.64 123.71 93.20 128.89
  Q 81.64 135.23 73.12 143.14
  Q 66.14 149.61 63.58 158.58
  A 2.06 1.96 21.6 0 1 60.70 159.74
  Q 59.34 159.04 59.07 157.40
  Q 56.48 141.48 56.53 125.76
  C 56.59 105.42 63.56 88.75 80.30 76.79
  C 91.93 68.49 105.29 62.57 118.06 56.21
  Z"
/>
<path fill="#fb8384" d="
  M 163.05 175.68
  Q 162.20 165.89 162.42 156.00
  Q 162.86 136.35 164.76 116.79
  Q 171.72 112.23 178.09 106.83
  C 180.24 105.00 181.83 104.61 183.47 107.11
  C 189.04 115.62 190.57 128.72 190.30 138.52
  Q 189.83 155.61 177.30 166.32
  Q 170.78 171.89 163.05 175.68
  Z"
/>
<path fill="#f57783" d="
  M 164.76 116.79
  Q 162.86 136.35 162.42 156.00
  Q 162.20 165.89 163.05 175.68
  C 152.39 181.27 142.02 185.70 130.89 191.87
  Q 120.53 197.62 113.45 206.16
  C 106.38 214.71 106.63 227.43 111.52 237.23
  Q 113.01 240.20 114.97 243.46
  A 2.37 2.37 0.0 0 1 114.27 246.65
  Q 113.54 247.14 112.61 246.87
  Q 101.06 243.57 92.03 236.13
  Q 89.70 223.33 90.01 207.89
  C 90.45 185.99 90.55 172.47 91.96 158.31
  Q 101.13 151.84 107.49 148.49
  C 126.78 138.31 145.80 129.01 164.76 116.79
  Z"
/>
<path fill="#ed6681" d="
  M 91.96 158.31
  C 90.55 172.47 90.45 185.99 90.01 207.89
  Q 89.70 223.33 92.03 236.13
  Q 81.02 227.16 75.04 212.48
  Q 70.08 200.31 71.23 189.75
  C 72.74 175.93 81.10 166.12 91.96 158.31
  Z"
/>
</svg>