<?xml version="1.0" encoding="UTF-8" standalone="no"?>
<!DOCTYPE svg PUBLIC "-//W3C//DTD SVG 1.1//EN" "http://www.w3.org/Graphics/SVG/1.1/DTD/svg11.dtd">
<svg xmlns="http://www.w3.org/2000/svg" version="1.1" viewBox="0.00 0.00 256.00 256.00" width="128" height="128">
<path stroke="#9ea98f" stroke-width="2.00" fill="none" stroke-linecap="butt" vector-effect="non-scaling-stroke" d="
  M 64.29 216.00
  L 134.16 216.00
  A 0.38 0.38 0.0 0 0 134.32 215.28
  Q 125.77 211.04 122.54 203.04
  Q 120.94 199.08 120.96 186.56
  Q 121.07 141.38 120.98 129.20
  A 0.67 0.66 88.7 0 1 121.62 128.52
  C 139.04 127.85 152.51 136.23 162.03 149.95
  A 0.47 0.46 27.8 0 0 162.88 149.69
  L 162.88 100.61
  A 0.43 0.43 0.0 0 0 162.07 100.40
  Q 151.13 119.82 128.43 121.03
  C 126.41 121.14 123.82 121.38 121.53 121.20
  A 0.55 0.55 0.0 0 1 121.02 120.65
  Q 120.94 93.12 121.08 70.80
  C 121.13 62.95 124.59 55.63 133.46 54.99
  C 139.95 54.52 148.05 56.34 152.96 59.14
  Q 166.42 66.81 178.43 81.34
  Q 187.77 92.63 190.82 97.07
  A 0.52 0.50 -21.5 0 0 191.32 97.28
  L 191.64 97.22
  A 0.39 0.38 80.5 0 0 191.96 96.77
  L 182.30 40.44
  A 0.58 0.58 0.0 0 0 181.29 40.16
  Q 176.60 45.53 169.71 47.43
  Q 163.61 49.10 160.25 49.11
  Q 130.38 49.14 64.35 49.12
  A 0.33 0.33 0.0 0 0 64.23 49.76
  C 73.36 53.54 77.46 62.51 77.48 72.26
  Q 77.50 78.61 77.50 193.51
  Q 77.50 208.69 64.13 215.30
  A 0.37 0.37 0.0 0 0 64.29 216.00"
/>
<path fill="#3d521e" d="
  M 20.01 8.00
  L 235.99 8.00
  A 12.01 12.01 0.0 0 1 248.00 20.01
  L 248.00 235.99
  A 12.01 12.01 0.0 0 1 235.99 248.00
  L 20.01 248.00
  A 12.01 12.01 0.0 0 1 8.00 235.99
  L 8.00 20.01
  A 12.01 12.01 0.0 0 1 20.01 8.00
  Z
  M 64.29 216.00
  L 134.16 216.00
  A 0.38 0.38 0.0 0 0 134.32 215.28
  Q 125.77 211.04 122.54 203.04
  Q 120.94 199.08 120.96 186.56
  Q 121.07 141.38 120.98 129.20
  A 0.67 0.66 88.7 0 1 121.62 128.52
  C 139.04 127.85 152.51 136.23 162.03 149.95
  A 0.47 0.46 27.8 0 0 162.88 149.69
  L 162.88 100.61
  A 0.43 0.43 0.0 0 0 162.07 100.40
  Q 151.13 119.82 128.43 121.03
  C 126.41 121.14 123.82 121.38 121.53 121.20
  A 0.55 0.55 0.0 0 1 121.02 120.65
  Q 120.94 93.12 121.08 70.80
  C 121.13 62.95 124.59 55.63 133.46 54.99
  C 139.95 54.52 148.05 56.34 152.96 59.14
  Q 166.42 66.81 178.43 81.34
  Q 187.77 92.63 190.82 97.07
  A 0.52 0.50 -21.5 0 0 191.32 97.28
  L 191.64 97.22
  A 0.39 0.38 80.5 0 0 191.96 96.77
  L 182.30 40.44
  A 0.58 0.58 0.0 0 0 181.29 40.16
  Q 176.60 45.53 169.71 47.43
  Q 163.61 49.10 160.25 49.11
  Q 130.38 49.14 64.35 49.12
  A 0.33 0.33 0.0 0 0 64.23 49.76
  C 73.36 53.54 77.46 62.51 77.48 72.26
  Q 77.50 78.61 77.50 193.51
  Q 77.50 208.69 64.13 215.30
  A 0.37 0.37 0.0 0 0 64.29 216.00
  Z"
/>
<path fill="#ffffff" d="
  M 64.29 216.00
  A 0.37 0.37 0.0 0 1 64.13 215.30
  Q 77.50 208.69 77.50 193.51
  Q 77.50 78.61 77.48 72.26
  C 77.46 62.51 73.36 53.54 64.23 49.76
  A 0.33 0.33 0.0 0 1 64.35 49.12
  Q 130.38 49.14 160.25 49.11
  Q 163.61 49.10 169.71 47.43
  Q 176.60 45.53 181.29 40.16
  A 0.58 0.58 0.0 0 1 182.30 40.44
  L 191.96 96.77
  A 0.39 0.38 80.5 0 1 191.64 97.22
  L 191.32 97.28
  A 0.52 0.50 -21.5 0 1 190.82 97.07
  Q 187.77 92.63 178.43 81.34
  Q 166.42 66.81 152.96 59.14
  C 148.05 56.34 139.95 54.52 133.46 54.99
  C 124.59 55.63 121.13 62.95 121.08 70.80
  Q 120.94 93.12 121.02 120.65
  A 0.55 0.55 0.0 0 0 121.53 121.20
  C 123.82 121.38 126.41 121.14 128.43 121.03
  Q 151.13 119.82 162.07 100.40
  A 0.43 0.43 0.0 0 1 162.88 100.61
  L 162.88 149.69
  A 0.47 0.46 27.8 0 1 162.03 149.95
  C 152.51 136.23 139.04 127.85 121.62 128.52
  A 0.67 0.66 88.7 0 0 120.98 129.20
  Q 121.07 141.38 120.96 186.56
  Q 120.94 199.08 122.54 203.04
  Q 125.77 211.04 134.32 215.28
  A 0.38 0.38 0.0 0 1 134.16 216.00
  L 64.29 216.00
  Z"
/>
</svg>