<?xml version="1.0" encoding="UTF-8" standalone="no"?>
<!DOCTYPE svg PUBLIC "-//W3C//DTD SVG 1.1//EN" "http://www.w3.org/Graphics/SVG/1.1/DTD/svg11.dtd">
<svg xmlns="http://www.w3.org/2000/svg" version="1.1" viewBox="0.00 0.00 256.00 256.00" width="128" height="128">
<g stroke-width="2.00" fill="none" stroke-linecap="butt">
<path stroke="#287d8e" vector-effect="non-scaling-stroke" d="
  M 128.25 28.97
  L 100.27 64.75"
/>
<path stroke="#356974" vector-effect="non-scaling-stroke" d="
  M 100.27 64.75
  L 82.26 64.57"
/>
<path stroke="#162529" vector-effect="non-scaling-stroke" d="
  M 82.26 64.57
  L 52.59 26.58"
/>
<path stroke="#287d8e" vector-effect="non-scaling-stroke" d="
  M 204.41 27.36
  L 174.96 64.63"
/>
<path stroke="#329cb1" vector-effect="non-scaling-stroke" d="
  M 174.96 64.63
  L 130.12 121.70"
/>
<path stroke="#2ba7c1" vector-effect="non-scaling-stroke" d="
  M 130.12 121.70
  Q 76.03 191.14 57.78 214.03
  Q 54.96 217.58 55.15 220.75"
/>
<path stroke="#298ea4" vector-effect="non-scaling-stroke" d="
  M 37.65 144.40
  Q 38.24 144.31 38.59 143.84
  Q 45.27 135.08 53.49 124.78"
/>
<path stroke="#329cb1" vector-effect="non-scaling-stroke" d="
  M 53.49 124.78
  L 100.27 64.75"
/>
<path stroke="#1f444c" vector-effect="non-scaling-stroke" d="
  M 82.26 64.57
  L 54.52 64.66"
/>
<path stroke="#356974" vector-effect="non-scaling-stroke" d="
  M 201.19 64.65
  L 174.96 64.63"
/>
<path stroke="#367b8a" vector-effect="non-scaling-stroke" d="
  M 53.49 124.78
  Q 30.56 122.92 7.44 124.65"
/>
<path stroke="#3794a7" vector-effect="non-scaling-stroke" d="
  M 237.97 69.98
  Q 218.51 79.86 199.15 89.18
  Q 182.20 97.33 165.23 105.83
  Q 146.55 115.19 131.22 122.32
  Q 130.61 122.60 130.12 121.70"
/>
<path stroke="#2e7584" vector-effect="non-scaling-stroke" d="
  M 219.38 145.05
  L 195.27 156.60"
/>
<path stroke="#2f869a" vector-effect="non-scaling-stroke" d="
  M 195.27 156.60
  L 129.89 188.97"
/>
<path stroke="#2e7584" vector-effect="non-scaling-stroke" d="
  M 129.89 188.97
  L 88.11 208.99"
/>
<path stroke="#2c5c67" vector-effect="non-scaling-stroke" d="
  M 238.02 176.84
  Q 234.91 176.11 232.08 174.65
  Q 213.70 165.20 195.27 156.60"
/>
<path stroke="#17373f" vector-effect="non-scaling-stroke" d="
  M 169.06 209.37
  L 145.30 197.39"
/>
<path stroke="#2c5c67" vector-effect="non-scaling-stroke" d="
  M 145.30 197.39
  Q 137.18 194.77 129.89 188.97"
/>
<path stroke="#162529" vector-effect="non-scaling-stroke" d="
  M 145.30 197.39
  L 155.29 244.82"
/>
</g>
<path fill="#2b4a51" d="
  M 91.37 0.00
  Q 107.83 2.79 118.06 15.70
  Q 123.10 22.04 128.25 28.97
  L 100.27 64.75
  L 82.26 64.57
  L 52.59 26.58
  C 57.89 11.90 69.03 3.11 83.96 0.00
  L 91.37 0.00
  Z"
/>
<path fill="#25afcb" d="
  M 171.89 0.00
  Q 182.47 1.78 190.19 7.32
  Q 201.00 15.07 204.41 27.36
  L 174.96 64.63
  L 130.12 121.70
  Q 76.03 191.14 57.78 214.03
  Q 54.96 217.58 55.15 220.75
  C 24.83 219.69 8.36 186.23 25.19 161.19
  Q 28.69 155.99 36.57 146.56
  Q 36.98 146.07 37.65 144.40
  Q 38.24 144.31 38.59 143.84
  Q 45.27 135.08 53.49 124.78
  L 100.27 64.75
  L 128.25 28.97
  Q 134.02 22.11 139.40 15.39
  Q 149.54 2.70 165.94 0.00
  L 171.89 0.00
  Z"
/>
<path fill="#000000" d="
  M 82.26 64.57
  L 54.52 64.66
  Q 55.88 64.59 55.67 63.75
  Q 52.56 50.85 51.59 45.49
  Q 49.79 35.44 52.59 26.58
  L 82.26 64.57
  Z"
/>
<path fill="#2b4a51" d="
  M 204.41 27.36
  Q 207.23 37.28 206.02 43.00
  Q 203.78 53.60 201.19 64.65
  L 174.96 64.63
  L 204.41 27.36
  Z"
/>
<path fill="#3e8897" d="
  M 82.26 64.57
  L 100.27 64.75
  L 53.49 124.78
  Q 30.56 122.92 7.44 124.65
  Q 1.97 116.48 0.00 105.88
  L 0.00 99.24
  C 3.15 82.60 13.52 68.91 30.55 65.46
  C 37.37 64.09 46.67 64.75 54.52 64.66
  L 82.26 64.57
  Z"
/>
<path fill="#3e8897" d="
  M 201.19 64.65
  Q 211.18 64.73 220.50 64.71
  Q 228.62 64.68 237.97 69.98
  Q 218.51 79.86 199.15 89.18
  Q 182.20 97.33 165.23 105.83
  Q 146.55 115.19 131.22 122.32
  Q 130.61 122.60 130.12 121.70
  L 174.96 64.63
  L 201.19 64.65
  Z"
/>
<path fill="#309fb6" d="
  M 237.97 69.98
  Q 253.33 79.04 256.00 97.88
  L 256.00 107.22
  Q 254.17 122.92 242.57 132.33
  Q 239.48 134.84 232.40 138.46
  Q 227.11 141.16 221.79 143.87
  Q 220.90 144.32 219.38 145.05
  L 195.27 156.60
  L 129.89 188.97
  L 88.11 208.99
  Q 78.92 213.62 69.42 218.18
  Q 63.95 220.81 55.15 220.75
  Q 54.96 217.58 57.78 214.03
  Q 76.03 191.14 130.12 121.70
  Q 130.61 122.60 131.22 122.32
  Q 146.55 115.19 165.23 105.83
  Q 182.20 97.33 199.15 89.18
  Q 218.51 79.86 237.97 69.98
  Z"
/>
<path fill="#2d6d7d" d="
  M 53.49 124.78
  Q 45.27 135.08 38.59 143.84
  Q 38.24 144.31 37.65 144.40
  Q 28.74 140.78 19.25 135.50
  Q 12.29 131.63 7.44 124.65
  Q 30.56 122.92 53.49 124.78
  Z"
/>
<path fill="#2b4a51" d="
  M 219.38 145.05
  Q 225.61 153.06 231.57 160.68
  Q 236.55 167.05 238.02 176.84
  Q 234.91 176.11 232.08 174.65
  Q 213.70 165.20 195.27 156.60
  L 219.38 145.05
  Z"
/>
<path fill="#2d6d7d" d="
  M 195.27 156.60
  Q 213.70 165.20 232.08 174.65
  Q 234.91 176.11 238.02 176.84
  Q 240.01 188.04 234.97 198.98
  C 226.59 217.14 205.52 226.04 186.90 217.81
  C 180.87 215.15 175.29 212.36 169.06 209.37
  L 145.30 197.39
  Q 137.18 194.77 129.89 188.97
  L 195.27 156.60
  Z"
/>
<path fill="#2b4a51" d="
  M 129.89 188.97
  Q 137.18 194.77 145.30 197.39
  L 155.29 244.82
  Q 146.15 254.60 132.77 256.00
  L 124.30 256.00
  Q 118.37 255.27 116.48 254.54
  Q 102.77 249.26 95.89 237.08
  Q 93.50 232.84 91.71 225.04
  Q 89.86 217.01 88.11 208.99
  L 129.89 188.97
  Z"
/>
<path fill="#000000" d="
  M 145.30 197.39
  L 169.06 209.37
  Q 166.55 218.93 164.67 228.17
  Q 162.90 236.87 155.29 244.82
  L 145.30 197.39
  Z"
/>
</svg>