<?xml version="1.0" encoding="UTF-8" standalone="no"?>
<!DOCTYPE svg PUBLIC "-//W3C//DTD SVG 1.1//EN" "http://www.w3.org/Graphics/SVG/1.1/DTD/svg11.dtd">
<svg xmlns="http://www.w3.org/2000/svg" version="1.1" viewBox="0.00 0.00 512.00 512.00" width="128" height="128">
<g stroke-width="2.00" fill="none" stroke-linecap="butt">
<path stroke="#808080" vector-effect="non-scaling-stroke" d="
  M 408.87 103.44
  Q 394.91 103.46 226.93 103.41
  Q 198.30 103.40 191.64 104.44
  Q 172.11 107.51 154.81 117.55
  Q 125.85 134.36 112.25 165.19
  Q 103.52 185.00 103.48 204.52
  Q 103.41 246.04 103.45 406.50
  Q 103.45 407.76 103.59 408.93
  A 0.62 0.61 -3.7 0 0 104.20 409.46
  L 146.28 409.46
  A 0.61 0.61 0.0 0 0 146.89 408.88
  C 148.45 379.72 168.62 356.70 197.48 351.74
  Q 201.98 350.96 222.08 350.98
  Q 285.04 351.02 286.80 351.04
  A 0.92 0.92 0.0 0 0 287.73 350.12
  L 287.73 249.24
  A 0.37 0.36 0.0 0 1 288.10 248.88
  L 408.99 248.88
  A 0.58 0.57 0.0 0 0 409.57 248.31
  L 409.57 104.14
  A 0.70 0.70 0.0 0 0 408.87 103.44"
/>
<path stroke="#808080" vector-effect="non-scaling-stroke" d="
  M 366.09 204.72
  L 366.09 147.69
  A 0.84 0.84 0.0 0 0 365.25 146.85
  Q 284.83 146.89 218.09 146.81
  Q 200.95 146.80 193.55 148.49
  C 168.86 154.16 151.12 174.01 147.46 199.21
  C 146.41 206.47 146.91 213.72 146.87 223.40
  A 0.61 0.61 0.0 0 0 147.82 223.91
  Q 166.98 210.79 189.22 206.82
  Q 198.09 205.24 218.86 205.30
  Q 258.24 205.41 365.48 205.33
  A 0.61 0.61 0.0 0 0 366.09 204.72"
/>
<path stroke="#808080" vector-effect="non-scaling-stroke" d="
  M 243.61 248.82
  Q 227.49 248.91 208.27 248.85
  C 177.49 248.75 151.81 270.10 147.51 300.80
  C 146.44 308.45 146.91 315.17 146.89 325.70
  A 0.44 0.43 72.8 0 0 147.57 326.06
  Q 174.21 307.63 207.02 307.48
  Q 226.07 307.39 243.71 307.48
  A 0.63 0.63 0.0 0 0 244.34 306.85
  L 244.34 249.55
  A 0.73 0.73 0.0 0 0 243.61 248.82"
/>
</g>
<path fill="#000000" d="
  M 458.89 0.00
  C 483.90 3.21 503.65 17.92 510.58 42.78
  C 511.42 45.78 511.62 49.04 512.00 52.24
  L 512.00 460.58
  C 511.68 463.92 511.44 467.22 510.56 470.38
  C 504.22 493.14 484.68 510.43 460.77 512.00
  L 52.51 512.00
  C 30.52 510.72 11.91 495.81 4.06 475.63
  Q 1.15 468.13 0.00 459.14
  L 0.00 53.05
  Q 0.59 49.71 1.32 46.46
  C 7.36 19.65 27.53 3.67 53.88 0.00
  L 458.89 0.00
  Z
  M 408.87 103.44
  Q 394.91 103.46 226.93 103.41
  Q 198.30 103.40 191.64 104.44
  Q 172.11 107.51 154.81 117.55
  Q 125.85 134.36 112.25 165.19
  Q 103.52 185.00 103.48 204.52
  Q 103.41 246.04 103.45 406.50
  Q 103.45 407.76 103.59 408.93
  A 0.62 0.61 -3.7 0 0 104.20 409.46
  L 146.28 409.46
  A 0.61 0.61 0.0 0 0 146.89 408.88
  C 148.45 379.72 168.62 356.70 197.48 351.74
  Q 201.98 350.96 222.08 350.98
  Q 285.04 351.02 286.80 351.04
  A 0.92 0.92 0.0 0 0 287.73 350.12
  L 287.73 249.24
  A 0.37 0.36 0.0 0 1 288.10 248.88
  L 408.99 248.88
  A 0.58 0.57 0.0 0 0 409.57 248.31
  L 409.57 104.14
  A 0.70 0.70 0.0 0 0 408.87 103.44
  Z"
/>
<path fill="#ffffff" d="
  M 409.57 104.14
  L 409.57 248.31
  A 0.58 0.57 0.0 0 1 408.99 248.88
  L 288.10 248.88
  A 0.37 0.36 0.0 0 0 287.73 249.24
  L 287.73 350.12
  A 0.92 0.92 0.0 0 1 286.80 351.04
  Q 285.04 351.02 222.08 350.98
  Q 201.98 350.96 197.48 351.74
  C 168.62 356.70 148.45 379.72 146.89 408.88
  A 0.61 0.61 0.0 0 1 146.28 409.46
  L 104.20 409.46
  A 0.62 0.61 -3.7 0 1 103.59 408.93
  Q 103.45 407.76 103.45 406.50
  Q 103.41 246.04 103.48 204.52
  Q 103.52 185.00 112.25 165.19
  Q 125.85 134.36 154.81 117.55
  Q 172.11 107.51 191.64 104.44
  Q 198.30 103.40 226.93 103.41
  Q 394.91 103.46 408.87 103.44
  A 0.70 0.70 0.0 0 1 409.57 104.14
  Z
  M 366.09 204.72
  L 366.09 147.69
  A 0.84 0.84 0.0 0 0 365.25 146.85
  Q 284.83 146.89 218.09 146.81
  Q 200.95 146.80 193.55 148.49
  C 168.86 154.16 151.12 174.01 147.46 199.21
  C 146.41 206.47 146.91 213.72 146.87 223.40
  A 0.61 0.61 0.0 0 0 147.82 223.91
  Q 166.98 210.79 189.22 206.82
  Q 198.09 205.24 218.86 205.30
  Q 258.24 205.41 365.48 205.33
  A 0.61 0.61 0.0 0 0 366.09 204.72
  Z
  M 243.61 248.82
  Q 227.49 248.91 208.27 248.85
  C 177.49 248.75 151.81 270.10 147.51 300.80
  C 146.44 308.45 146.91 315.17 146.89 325.70
  A 0.44 0.43 72.8 0 0 147.57 326.06
  Q 174.21 307.63 207.02 307.48
  Q 226.07 307.39 243.71 307.48
  A 0.63 0.63 0.0 0 0 244.34 306.85
  L 244.34 249.55
  A 0.73 0.73 0.0 0 0 243.61 248.82
  Z"
/>
<path fill="#000000" d="
  M 366.09 204.72
  A 0.61 0.61 0.0 0 1 365.48 205.33
  Q 258.24 205.41 218.86 205.30
  Q 198.09 205.24 189.22 206.82
  Q 166.98 210.79 147.82 223.91
  A 0.61 0.61 0.0 0 1 146.87 223.40
  C 146.91 213.72 146.41 206.47 147.46 199.21
  C 151.12 174.01 168.86 154.16 193.55 148.49
  Q 200.95 146.80 218.09 146.81
  Q 284.83 146.89 365.25 146.85
  A 0.84 0.84 0.0 0 1 366.09 147.69
  L 366.09 204.72
  Z"
/>
<path fill="#000000" d="
  M 243.61 248.82
  A 0.73 0.73 0.0 0 1 244.34 249.55
  L 244.34 306.85
  A 0.63 0.63 0.0 0 1 243.71 307.48
  Q 226.07 307.39 207.02 307.48
  Q 174.21 307.63 147.57 326.06
  A 0.44 0.43 72.8 0 1 146.89 325.70
  C 146.91 315.17 146.44 308.45 147.51 300.80
  C 151.81 270.10 177.49 248.75 208.27 248.85
  Q 227.49 248.91 243.61 248.82
  Z"
/>
</svg>