<?xml version="1.0" encoding="UTF-8" standalone="no"?>
<!DOCTYPE svg PUBLIC "-//W3C//DTD SVG 1.1//EN" "http://www.w3.org/Graphics/SVG/1.1/DTD/svg11.dtd">
<svg xmlns="http://www.w3.org/2000/svg" version="1.1" viewBox="0.00 0.00 256.00 256.00" width="128" height="128">
<g stroke-width="2.00" fill="none" stroke-linecap="butt">
<path stroke="#ffcf54" vector-effect="non-scaling-stroke" d="
  M 94.04 0.22
  Q 95.44 0.29 96.52 0.89
  A 0.36 0.35 44.3 0 1 96.53 1.50
  Q 91.62 4.51 88.21 9.22
  A 4.59 4.27 -4.3 0 1 87.49 10.00
  Q 71.54 23.28 66.92 27.43
  Q 48.42 44.10 31.60 65.57
  Q 26.10 72.59 21.61 79.95
  Q 16.49 88.35 11.95 94.61
  Q 11.26 95.56 10.82 96.70
  C 9.99 98.87 9.66 99.97 8.35 102.07
  C 5.90 106.04 4.44 111.86 3.21 115.29
  Q 2.25 117.97 0.00 119.15"
/>
<path stroke="#ffdc80" vector-effect="non-scaling-stroke" d="
  M 256.00 136.51
  L 255.65 77.78
  A 1.04 1.00 -62.3 0 0 255.51 77.30
  L 251.00 69.89
  A 1.04 0.99 -1.5 0 0 250.59 69.52
  Q 249.08 68.73 247.13 68.44
  Q 237.46 66.99 228.11 65.93
  Q 216.01 64.57 202.25 67.85
  Q 193.99 69.82 185.98 71.82"
/>
<path stroke="#957e46" vector-effect="non-scaling-stroke" d="
  M 185.98 71.82
  Q 186.93 63.85 182.63 57.57
  Q 176.99 49.32 165.97 49.33
  Q 119.57 49.35 89.76 49.24
  Q 83.81 49.21 80.99 49.96
  C 68.78 53.18 63.35 66.48 68.43 77.78
  C 71.75 85.18 78.77 89.03 86.75 89.01
  Q 124.23 88.89 161.71 89.09"
/>
<path stroke="#ffdc80" vector-effect="non-scaling-stroke" d="
  M 161.71 89.09
  L 155.06 89.24
  A 1.03 1.01 -72.1 0 0 154.26 89.66
  C 150.08 95.32 149.02 100.78 152.75 106.95"
/>
<path stroke="#957e46" vector-effect="non-scaling-stroke" d="
  M 152.75 106.95
  Q 121.62 106.97 90.56 106.95
  Q 83.64 106.95 81.01 107.71
  C 71.69 110.40 65.69 119.66 66.62 129.11
  C 67.65 139.63 75.82 147.02 86.47 147.50"
/>
<path stroke="#ffdc80" vector-effect="non-scaling-stroke" d="
  M 86.47 147.50
  L 93.74 147.56
  A 0.82 0.81 -86.8 0 1 94.54 148.47
  Q 93.56 156.80 94.07 165.66"
/>
<path stroke="#957e46" vector-effect="non-scaling-stroke" d="
  M 94.07 165.66
  C 84.93 165.30 75.52 169.14 71.80 178.02
  C 67.29 188.78 70.00 201.73 80.39 207.88"
/>
<path stroke="#ffdc80" vector-effect="non-scaling-stroke" d="
  M 80.39 207.88
  Q 80.40 214.77 81.38 220.09
  Q 83.01 228.95 86.73 246.30
  Q 87.52 250.02 91.06 256.00"
/>
<path stroke="#958257" vector-effect="non-scaling-stroke" d="
  M 185.98 71.82
  C 184.23 81.98 177.18 88.78 166.76 89.00
  Q 164.22 89.05 161.71 89.09"
/>
<path stroke="#ffe39a" vector-effect="non-scaling-stroke" d="
  M 256.00 202.01
  L 255.62 159.27
  A 0.93 0.93 0.0 0 0 255.11 158.44
  L 248.53 155.11
  A 0.98 0.97 46.8 0 0 247.72 155.08
  Q 234.76 160.23 231.14 161.86
  C 212.14 170.38 195.07 186.79 183.24 205.46
  Q 174.74 218.87 171.96 229.98
  Q 169.33 240.51 169.34 256.00"
/>
<path stroke="#958257" vector-effect="non-scaling-stroke" d="
  M 80.39 207.88
  C 92.84 215.05 105.62 210.11 112.58 198.09
  C 120.48 184.45 109.22 166.46 94.07 165.66"
/>
<path stroke="#958257" vector-effect="non-scaling-stroke" d="
  M 86.47 147.50
  Q 122.58 147.40 158.62 147.44
  Q 167.75 147.45 168.88 147.27
  C 183.35 144.92 190.40 129.19 183.14 116.68
  C 179.87 111.04 173.45 107.21 167.02 106.94
  Q 163.49 106.80 152.75 106.95"
/>
</g>
<path fill="#ffc738" d="
  M 94.04 0.22
  Q 95.44 0.29 96.52 0.89
  A 0.36 0.35 44.3 0 1 96.53 1.50
  Q 91.62 4.51 88.21 9.22
  A 4.59 4.27 -4.3 0 1 87.49 10.00
  Q 71.54 23.28 66.92 27.43
  Q 48.42 44.10 31.60 65.57
  Q 26.10 72.59 21.61 79.95
  Q 16.49 88.35 11.95 94.61
  Q 11.26 95.56 10.82 96.70
  C 9.99 98.87 9.66 99.97 8.35 102.07
  C 5.90 106.04 4.44 111.86 3.21 115.29
  Q 2.25 117.97 0.00 119.15
  L 0.00 26.38
  Q 0.42 21.07 1.39 18.64
  Q 6.72 5.37 20.47 1.19
  Q 23.77 0.18 32.50 0.18
  Q 63.27 0.20 94.04 0.22
  Z"
/>
<path fill="#ffd76f" d="
  M 256.00 34.98
  L 256.00 136.51
  L 255.65 77.78
  A 1.04 1.00 -62.3 0 0 255.51 77.30
  L 251.00 69.89
  A 1.04 0.99 -1.5 0 0 250.59 69.52
  Q 249.08 68.73 247.13 68.44
  Q 237.46 66.99 228.11 65.93
  Q 216.01 64.57 202.25 67.85
  Q 193.99 69.82 185.98 71.82
  Q 186.93 63.85 182.63 57.57
  Q 176.99 49.32 165.97 49.33
  Q 119.57 49.35 89.76 49.24
  Q 83.81 49.21 80.99 49.96
  C 68.78 53.18 63.35 66.48 68.43 77.78
  C 71.75 85.18 78.77 89.03 86.75 89.01
  Q 124.23 88.89 161.71 89.09
  L 155.06 89.24
  A 1.03 1.01 -72.1 0 0 154.26 89.66
  C 150.08 95.32 149.02 100.78 152.75 106.95
  Q 121.62 106.97 90.56 106.95
  Q 83.64 106.95 81.01 107.71
  C 71.69 110.40 65.69 119.66 66.62 129.11
  C 67.65 139.63 75.82 147.02 86.47 147.50
  L 93.74 147.56
  A 0.82 0.81 -86.8 0 1 94.54 148.47
  Q 93.56 156.80 94.07 165.66
  C 84.93 165.30 75.52 169.14 71.80 178.02
  C 67.29 188.78 70.00 201.73 80.39 207.88
  Q 80.40 214.77 81.38 220.09
  Q 83.01 228.95 86.73 246.30
  Q 87.52 250.02 91.06 256.00
  L 25.63 256.00
  Q 15.10 256.37 7.87 249.13
  Q 0.44 241.68 0.00 231.26
  L 0.00 119.15
  Q 2.25 117.97 3.21 115.29
  C 4.44 111.86 5.90 106.04 8.35 102.07
  C 9.66 99.97 9.99 98.87 10.82 96.70
  Q 11.26 95.56 11.95 94.61
  Q 16.49 88.35 21.61 79.95
  Q 26.10 72.59 31.60 65.57
  Q 48.42 44.10 66.92 27.43
  Q 71.54 23.28 87.49 10.00
  A 4.59 4.27 -4.3 0 0 88.21 9.22
  Q 91.62 4.51 96.53 1.50
  A 0.36 0.35 44.3 0 0 96.52 0.89
  Q 95.44 0.29 94.04 0.22
  Q 155.27 0.18 216.50 0.19
  Q 223.36 0.20 230.25 0.32
  Q 235.74 0.42 241.05 3.06
  Q 244.98 5.01 249.04 9.25
  Q 255.44 15.93 255.62 23.74
  Q 255.75 29.37 256.00 34.98
  Z"
/>
<path fill="#2a241d" d="
  M 185.98 71.82
  C 184.23 81.98 177.18 88.78 166.76 89.00
  Q 164.22 89.05 161.71 89.09
  Q 124.23 88.89 86.75 89.01
  C 78.77 89.03 71.75 85.18 68.43 77.78
  C 63.35 66.48 68.78 53.18 80.99 49.96
  Q 83.81 49.21 89.76 49.24
  Q 119.57 49.35 165.97 49.33
  Q 176.99 49.32 182.63 57.57
  Q 186.93 63.85 185.98 71.82
  Z"
/>
<path fill="#ffe090" d="
  M 256.00 136.51
  L 256.00 202.01
  L 255.62 159.27
  A 0.93 0.93 0.0 0 0 255.11 158.44
  L 248.53 155.11
  A 0.98 0.97 46.8 0 0 247.72 155.08
  Q 234.76 160.23 231.14 161.86
  C 212.14 170.38 195.07 186.79 183.24 205.46
  Q 174.74 218.87 171.96 229.98
  Q 169.33 240.51 169.34 256.00
  L 91.06 256.00
  Q 87.52 250.02 86.73 246.30
  Q 83.01 228.95 81.38 220.09
  Q 80.40 214.77 80.39 207.88
  C 92.84 215.05 105.62 210.11 112.58 198.09
  C 120.48 184.45 109.22 166.46 94.07 165.66
  Q 93.56 156.80 94.54 148.47
  A 0.82 0.81 -86.8 0 0 93.74 147.56
  L 86.47 147.50
  Q 122.58 147.40 158.62 147.44
  Q 167.75 147.45 168.88 147.27
  C 183.35 144.92 190.40 129.19 183.14 116.68
  C 179.87 111.04 173.45 107.21 167.02 106.94
  Q 163.49 106.80 152.75 106.95
  C 149.02 100.78 150.08 95.32 154.26 89.66
  A 1.03 1.01 -72.1 0 1 155.06 89.24
  L 161.71 89.09
  Q 164.22 89.05 166.76 89.00
  C 177.18 88.78 184.23 81.98 185.98 71.82
  Q 193.99 69.82 202.25 67.85
  Q 216.01 64.57 228.11 65.93
  Q 237.46 66.99 247.13 68.44
  Q 249.08 68.73 250.59 69.52
  A 1.04 0.99 -1.5 0 1 251.00 69.89
  L 255.51 77.30
  A 1.04 1.00 -62.3 0 1 255.65 77.78
  L 256.00 136.51
  Z"
/>
<path fill="#2a241d" d="
  M 152.75 106.95
  Q 163.49 106.80 167.02 106.94
  C 173.45 107.21 179.87 111.04 183.14 116.68
  C 190.40 129.19 183.35 144.92 168.88 147.27
  Q 167.75 147.45 158.62 147.44
  Q 122.58 147.40 86.47 147.50
  C 75.82 147.02 67.65 139.63 66.62 129.11
  C 65.69 119.66 71.69 110.40 81.01 107.71
  Q 83.64 106.95 90.56 106.95
  Q 121.62 106.97 152.75 106.95
  Z"
/>
<path fill="#ffe6a4" d="
  M 256.00 202.01
  L 256.00 223.48
  C 255.69 229.00 255.75 236.12 254.00 240.72
  C 251.04 248.51 243.59 255.11 234.75 255.51
  Q 231.12 255.67 227.51 256.00
  L 169.34 256.00
  Q 169.33 240.51 171.96 229.98
  Q 174.74 218.87 183.24 205.46
  C 195.07 186.79 212.14 170.38 231.14 161.86
  Q 234.76 160.23 247.72 155.08
  A 0.98 0.97 46.8 0 1 248.53 155.11
  L 255.11 158.44
  A 0.93 0.93 0.0 0 1 255.62 159.27
  L 256.00 202.01
  Z"
/>
<path fill="#2a241d" d="
  M 94.07 165.66
  C 109.22 166.46 120.48 184.45 112.58 198.09
  C 105.62 210.11 92.84 215.05 80.39 207.88
  C 70.00 201.73 67.29 188.78 71.80 178.02
  C 75.52 169.14 84.93 165.30 94.07 165.66
  Z"
/>
</svg>