<?xml version="1.0" encoding="UTF-8" standalone="no"?>
<!DOCTYPE svg PUBLIC "-//W3C//DTD SVG 1.1//EN" "http://www.w3.org/Graphics/SVG/1.1/DTD/svg11.dtd">
<svg xmlns="http://www.w3.org/2000/svg" version="1.1" viewBox="0.00 0.00 180.00 180.00" width="128" height="128">
<g stroke-width="2.00" fill="none" stroke-linecap="butt">
<path stroke="#ff906e" vector-effect="non-scaling-stroke" d="
  M 173.84 52.71
  L 173.30 38.91"
/>
<path stroke="#fe9d80" vector-effect="non-scaling-stroke" d="
  M 173.30 38.91
  Q 173.48 33.76 172.49 29.06
  Q 171.61 24.90 169.14 21.65
  Q 165.04 16.27 159.52 11.45
  A 8.69 8.62 79.9 0 0 158.17 10.50
  C 155.22 8.83 153.30 7.29 150.61 6.22
  Q 141.37 2.54 131.20 2.92"
/>
<path stroke="#fd8a67" vector-effect="non-scaling-stroke" d="
  M 131.20 2.92
  L 92.46 2.97"
/>
<path stroke="#fe9d80" vector-effect="non-scaling-stroke" d="
  M 92.46 2.97
  Q 86.03 2.51 82.98 2.47
  Q 58.99 2.09 44.34 1.74
  Q 40.11 1.64 32.08 3.72
  C 26.37 5.19 20.81 9.52 16.86 13.31
  Q 2.62 26.93 2.95 46.18
  Q 3.15 58.33 2.92 72.74
  C 2.63 90.64 2.97 102.80 3.32 125.79
  Q 3.50 137.97 7.06 148.45
  C 10.39 158.27 17.25 164.78 25.53 170.75
  C 32.48 175.77 41.00 176.00 49.00 175.79
  Q 75.29 175.10 102.99 175.24
  C 113.74 175.29 121.37 174.83 133.91 174.27
  C 142.08 173.90 148.58 173.76 153.59 170.86
  C 165.63 163.91 174.57 153.84 175.93 139.48
  C 177.10 127.09 176.31 115.72 176.08 102.65
  C 175.99 97.19 175.10 91.39 174.45 85.76
  Q 173.95 81.49 173.96 73.06
  Q 173.96 62.88 173.84 52.71"
/>
<path stroke="#fc7147" vector-effect="non-scaling-stroke" d="
  M 92.46 2.97
  L 83.71 2.91"
/>
<path stroke="#fe774e" vector-effect="non-scaling-stroke" d="
  M 83.71 2.91
  Q 72.47 3.43 61.24 4.20
  C 52.94 4.77 47.91 5.81 38.10 7.18
  Q 28.82 8.47 20.32 15.89
  Q 8.61 26.11 7.29 41.91
  Q 6.62 49.90 6.81 62.62
  Q 7.29 94.12 7.48 99.88
  C 7.80 109.61 6.97 117.90 6.52 128.20
  C 5.96 141.00 11.97 153.64 21.61 161.95
  Q 28.20 167.63 33.81 168.75
  Q 40.76 170.14 54.33 170.31
  Q 89.01 170.76 123.95 170.96
  Q 132.24 171.00 139.42 169.99
  C 150.68 168.40 158.10 162.48 165.08 153.53
  C 170.14 147.04 170.50 139.80 171.72 131.63
  Q 172.32 127.59 172.24 123.35
  C 172.03 111.23 172.33 102.96 173.16 91.79
  Q 173.60 85.73 173.62 76.26
  Q 173.63 64.48 173.84 52.71"
/>
<path stroke="#feb49d" vector-effect="non-scaling-stroke" d="
  M 27.79 99.63
  Q 31.17 103.63 35.54 102.08
  C 40.66 100.27 40.18 95.04 41.21 90.70"
/>
<path stroke="#fd6334" vector-effect="non-scaling-stroke" d="
  M 41.21 90.70
  C 40.96 94.39 41.40 101.37 46.89 98.13"
/>
<path stroke="#f7ac95" vector-effect="non-scaling-stroke" d="
  M 46.89 98.13
  L 47.09 102.49"
/>
<path stroke="#feb49d" vector-effect="non-scaling-stroke" d="
  M 47.09 102.49
  Q 47.07 118.62 47.08 134.64
  C 47.08 137.91 47.48 139.81 50.00 141.54
  Q 52.43 143.21 55.65 142.24
  Q 60.35 140.82 60.36 135.25
  Q 60.38 107.01 60.54 98.91"
/>
<path stroke="#fd6334" vector-effect="non-scaling-stroke" d="
  M 60.54 98.91
  Q 61.78 102.09 63.97 104.04
  A 0.46 0.46 0.0 0 0 64.65 103.97
  C 66.51 101.30 67.30 97.85 68.47 93.47"
/>
<path stroke="#f7ac95" vector-effect="non-scaling-stroke" d="
  M 68.47 93.47
  Q 66.60 99.71 67.25 106.09"
/>
<path stroke="#feb49d" vector-effect="non-scaling-stroke" d="
  M 67.25 106.09
  Q 67.16 119.93 67.25 133.89
  Q 67.27 137.62 67.99 138.95
  C 70.50 143.67 76.44 143.96 79.72 139.78
  Q 80.90 138.29 80.87 133.47
  Q 80.75 112.26 80.79 102.89
  C 80.81 97.76 83.38 93.32 88.91 92.66
  Q 96.01 91.80 98.93 98.92
  A 3.22 3.14 -59.2 0 1 99.16 99.88
  C 99.64 105.53 99.41 111.15 99.44 116.88
  C 99.46 120.63 100.95 123.82 104.55 124.42
  Q 111.39 125.56 112.85 118.76"
/>
<path stroke="#f7ac95" vector-effect="non-scaling-stroke" d="
  M 112.85 118.76
  L 112.88 104.01"
/>
<path stroke="#fd6334" vector-effect="non-scaling-stroke" d="
  M 112.88 104.01
  Q 116.94 103.18 117.66 107.58
  C 118.74 114.19 118.11 121.99 118.62 126.17
  Q 118.75 127.27 118.67 126.14
  Q 118.53 124.34 119.05 119.96
  C 119.55 115.80 119.41 111.30 119.65 106.95"
/>
<path stroke="#feb49d" vector-effect="non-scaling-stroke" d="
  M 119.65 106.95
  Q 119.96 120.38 119.83 133.81
  Q 119.79 137.88 120.62 139.57
  Q 121.98 142.34 125.24 142.81
  Q 131.89 143.76 133.29 136.72"
/>
<path stroke="#f7ac95" vector-effect="non-scaling-stroke" d="
  M 133.29 136.72
  L 133.41 99.47"
/>
<path stroke="#fd6334" vector-effect="non-scaling-stroke" d="
  M 133.41 99.47
  C 134.42 100.76 135.88 102.08 137.57 101.03
  C 139.69 99.72 139.79 96.77 139.78 94.28"
/>
<path stroke="#feb49d" vector-effect="non-scaling-stroke" d="
  M 139.78 94.28
  C 140.69 101.93 140.57 111.28 140.55 115.63
  Q 140.54 119.79 141.29 121.13
  C 143.70 125.43 149.88 125.58 152.64 122.09
  Q 153.97 120.40 153.96 114.80
  Q 153.94 109.87 153.79 104.98"
/>
<path stroke="#f7ac95" vector-effect="non-scaling-stroke" d="
  M 153.79 104.98
  Q 154.31 95.92 152.22 87.18"
/>
<path stroke="#fe774e" vector-effect="non-scaling-stroke" d="
  M 125.19 4.28
  Q 127.31 4.07 131.09 4.49
  Q 144.42 5.99 155.45 11.82
  Q 171.19 20.14 173.30 38.91"
/>
<path stroke="#fc7147" vector-effect="non-scaling-stroke" d="
  M 131.20 2.92
  Q 108.31 2.80 100.04 2.89
  Q 99.53 2.89 99.52 3.23
  A 0.19 0.19 0.0 0 0 99.71 3.44
  L 125.19 4.28"
/>
<path stroke="#fd6334" vector-effect="non-scaling-stroke" d="
  M 125.19 4.28
  C 131.34 5.97 138.70 7.61 143.81 9.98
  C 159.25 17.15 174.42 31.68 171.88 50.50
  C 170.72 59.05 170.94 67.51 170.38 75.66
  C 170.13 79.37 166.10 93.95 159.78 94.05
  C 156.22 94.10 153.62 90.16 152.22 87.18"
/>
<path stroke="#f6a68e" vector-effect="non-scaling-stroke" d="
  M 152.22 87.18
  C 148.50 73.50 141.38 60.71 129.97 52.28
  Q 118.92 44.13 106.43 40.76
  Q 94.20 37.47 82.39 38.95
  Q 70.12 40.49 59.43 46.42
  Q 35.97 59.42 28.47 85.48
  Q 27.36 89.31 27.07 93.28"
/>
<path stroke="#fdae96" vector-effect="non-scaling-stroke" d="
  M 27.07 93.28
  Q 26.25 96.97 27.79 99.63"
/>
<path stroke="#fd6334" vector-effect="non-scaling-stroke" d="
  M 27.79 99.63
  C 21.00 98.10 16.94 93.88 15.14 87.37
  C 13.51 81.47 13.14 75.20 12.99 68.81
  Q 12.63 53.72 13.22 37.83
  A 3.31 3.28 54.3 0 1 13.36 36.95
  Q 18.00 21.41 32.61 14.11
  C 37.37 11.73 45.85 10.46 51.82 8.09
  Q 55.51 6.63 58.99 5.81
  C 66.02 4.16 75.31 4.32 83.71 2.91"
/>
<path stroke="#f7f7f7" vector-effect="non-scaling-stroke" d="
  M 153.79 104.98
  C 152.45 96.00 149.53 89.09 145.45 80.52
  Q 135.40 59.41 113.65 50.54
  Q 103.50 46.41 95.72 45.94
  C 88.02 45.48 80.42 45.44 73.17 48.01
  C 58.31 53.28 45.38 62.09 37.34 75.83
  C 34.41 80.82 31.42 88.16 27.07 93.28"
/>
<path stroke="#f6a68e" vector-effect="non-scaling-stroke" d="
  M 112.88 104.01
  C 113.79 91.72 106.93 81.86 95.18 78.97
  Q 87.56 77.10 80.02 80.74
  Q 72.18 84.52 68.47 93.47"
/>
<path stroke="#f6a68e" vector-effect="non-scaling-stroke" d="
  M 133.41 99.47
  Q 132.11 81.15 118.34 69.16
  Q 109.01 61.02 96.76 59.05
  Q 85.09 57.17 74.72 61.44
  Q 50.14 71.57 46.89 98.13"
/>
<path stroke="#fdae96" vector-effect="non-scaling-stroke" d="
  M 139.78 94.28
  C 136.83 77.91 127.21 65.19 112.42 57.19
  A 3.46 3.45 65.1 0 0 111.58 56.88
  C 108.82 56.26 106.83 54.79 103.76 54.03
  Q 89.84 50.58 77.26 53.81
  Q 76.01 54.13 67.46 57.29
  A 4.45 3.93 -68.5 0 0 66.58 57.74
  Q 58.80 62.93 57.04 64.54
  Q 45.14 75.38 41.21 90.70"
/>
<path stroke="#f7f7f7" vector-effect="non-scaling-stroke" d="
  M 112.85 118.76
  L 112.63 113.23
  A 2.53 2.19 40.9 0 0 112.56 112.75
  C 111.71 109.74 111.89 106.10 111.04 103.47
  C 106.96 90.72 96.76 82.43 82.87 87.59
  C 74.24 90.79 70.80 97.73 67.25 106.09"
/>
<path stroke="#fdae96" vector-effect="non-scaling-stroke" d="
  M 119.65 106.95
  L 119.55 96.83
  A 11.20 8.75 40.4 0 0 118.80 93.16
  Q 118.66 92.79 117.20 89.30
  Q 116.25 87.02 115.26 85.60
  C 105.27 71.22 88.14 67.43 73.41 76.89
  Q 62.16 84.12 60.54 98.91"
/>
<path stroke="#f7f7f7" vector-effect="non-scaling-stroke" d="
  M 133.29 136.72
  C 132.43 128.79 131.28 120.49 131.23 112.78
  Q 131.18 105.19 130.75 102.20
  Q 128.41 86.09 116.90 76.09
  C 105.37 66.06 88.92 63.36 74.86 69.08
  C 67.39 72.12 59.68 78.43 55.67 84.91
  Q 52.10 90.67 47.09 102.49"
/>
</g>
<path fill="#ffb6a0" d="
  M 180.00 0.00
  L 180.00 180.00
  L 0.00 180.00
  L 0.00 0.00
  L 180.00 0.00
  Z
  M 173.84 52.71
  L 173.30 38.91
  Q 173.48 33.76 172.49 29.06
  Q 171.61 24.90 169.14 21.65
  Q 165.04 16.27 159.52 11.45
  A 8.69 8.62 79.9 0 0 158.17 10.50
  C 155.22 8.83 153.30 7.29 150.61 6.22
  Q 141.37 2.54 131.20 2.92
  L 92.46 2.97
  Q 86.03 2.51 82.98 2.47
  Q 58.99 2.09 44.34 1.74
  Q 40.11 1.64 32.08 3.72
  C 26.37 5.19 20.81 9.52 16.86 13.31
  Q 2.62 26.93 2.95 46.18
  Q 3.15 58.33 2.92 72.74
  C 2.63 90.64 2.97 102.80 3.32 125.79
  Q 3.50 137.97 7.06 148.45
  C 10.39 158.27 17.25 164.78 25.53 170.75
  C 32.48 175.77 41.00 176.00 49.00 175.79
  Q 75.29 175.10 102.99 175.24
  C 113.74 175.29 121.37 174.83 133.91 174.27
  C 142.08 173.90 148.58 173.76 153.59 170.86
  C 165.63 163.91 174.57 153.84 175.93 139.48
  C 177.10 127.09 176.31 115.72 176.08 102.65
  C 175.99 97.19 175.10 91.39 174.45 85.76
  Q 173.95 81.49 173.96 73.06
  Q 173.96 62.88 173.84 52.71
  Z"
/>
<path fill="#fd8460" d="
  M 92.46 2.97
  L 83.71 2.91
  Q 72.47 3.43 61.24 4.20
  C 52.94 4.77 47.91 5.81 38.10 7.18
  Q 28.82 8.47 20.32 15.89
  Q 8.61 26.11 7.29 41.91
  Q 6.62 49.90 6.81 62.62
  Q 7.29 94.12 7.48 99.88
  C 7.80 109.61 6.97 117.90 6.52 128.20
  C 5.96 141.00 11.97 153.64 21.61 161.95
  Q 28.20 167.63 33.81 168.75
  Q 40.76 170.14 54.33 170.31
  Q 89.01 170.76 123.95 170.96
  Q 132.24 171.00 139.42 169.99
  C 150.68 168.40 158.10 162.48 165.08 153.53
  C 170.14 147.04 170.50 139.80 171.72 131.63
  Q 172.32 127.59 172.24 123.35
  C 172.03 111.23 172.33 102.96 173.16 91.79
  Q 173.60 85.73 173.62 76.26
  Q 173.63 64.48 173.84 52.71
  Q 173.96 62.88 173.96 73.06
  Q 173.95 81.49 174.45 85.76
  C 175.10 91.39 175.99 97.19 176.08 102.65
  C 176.31 115.72 177.10 127.09 175.93 139.48
  C 174.57 153.84 165.63 163.91 153.59 170.86
  C 148.58 173.76 142.08 173.90 133.91 174.27
  C 121.37 174.83 113.74 175.29 102.99 175.24
  Q 75.29 175.10 49.00 175.79
  C 41.00 176.00 32.48 175.77 25.53 170.75
  C 17.25 164.78 10.39 158.27 7.06 148.45
  Q 3.50 137.97 3.32 125.79
  C 2.97 102.80 2.63 90.64 2.92 72.74
  Q 3.15 58.33 2.95 46.18
  Q 2.62 26.93 16.86 13.31
  C 20.81 9.52 26.37 5.19 32.08 3.72
  Q 40.11 1.64 44.34 1.74
  Q 58.99 2.09 82.98 2.47
  Q 86.03 2.51 92.46 2.97
  Z"
/>
<path fill="#fb5d2d" d="
  M 131.20 2.92
  Q 108.31 2.80 100.04 2.89
  Q 99.53 2.89 99.52 3.23
  A 0.19 0.19 0.0 0 0 99.71 3.44
  L 125.19 4.28
  C 131.34 5.97 138.70 7.61 143.81 9.98
  C 159.25 17.15 174.42 31.68 171.88 50.50
  C 170.72 59.05 170.94 67.51 170.38 75.66
  C 170.13 79.37 166.10 93.95 159.78 94.05
  C 156.22 94.10 153.62 90.16 152.22 87.18
  C 148.50 73.50 141.38 60.71 129.97 52.28
  Q 118.92 44.13 106.43 40.76
  Q 94.20 37.47 82.39 38.95
  Q 70.12 40.49 59.43 46.42
  Q 35.97 59.42 28.47 85.48
  Q 27.36 89.31 27.07 93.28
  Q 26.25 96.97 27.79 99.63
  C 21.00 98.10 16.94 93.88 15.14 87.37
  C 13.51 81.47 13.14 75.20 12.99 68.81
  Q 12.63 53.72 13.22 37.83
  A 3.31 3.28 54.3 0 1 13.36 36.95
  Q 18.00 21.41 32.61 14.11
  C 37.37 11.73 45.85 10.46 51.82 8.09
  Q 55.51 6.63 58.99 5.81
  C 66.02 4.16 75.31 4.32 83.71 2.91
  L 92.46 2.97
  L 131.20 2.92
  Z"
/>
<path fill="#fe693b" d="
  M 83.71 2.91
  C 75.31 4.32 66.02 4.16 58.99 5.81
  Q 55.51 6.63 51.82 8.09
  C 45.85 10.46 37.37 11.73 32.61 14.11
  Q 18.00 21.41 13.36 36.95
  A 3.31 3.28 54.3 0 0 13.22 37.83
  Q 12.63 53.72 12.99 68.81
  C 13.14 75.20 13.51 81.47 15.14 87.37
  C 16.94 93.88 21.00 98.10 27.79 99.63
  Q 31.17 103.63 35.54 102.08
  C 40.66 100.27 40.18 95.04 41.21 90.70
  C 40.96 94.39 41.40 101.37 46.89 98.13
  L 47.09 102.49
  Q 47.07 118.62 47.08 134.64
  C 47.08 137.91 47.48 139.81 50.00 141.54
  Q 52.43 143.21 55.65 142.24
  Q 60.35 140.82 60.36 135.25
  Q 60.38 107.01 60.54 98.91
  Q 61.78 102.09 63.97 104.04
  A 0.46 0.46 0.0 0 0 64.65 103.97
  C 66.51 101.30 67.30 97.85 68.47 93.47
  Q 66.60 99.71 67.25 106.09
  Q 67.16 119.93 67.25 133.89
  Q 67.27 137.62 67.99 138.95
  C 70.50 143.67 76.44 143.96 79.72 139.78
  Q 80.90 138.29 80.87 133.47
  Q 80.75 112.26 80.79 102.89
  C 80.81 97.76 83.38 93.32 88.91 92.66
  Q 96.01 91.80 98.93 98.92
  A 3.22 3.14 -59.2 0 1 99.16 99.88
  C 99.64 105.53 99.41 111.15 99.44 116.88
  C 99.46 120.63 100.95 123.82 104.55 124.42
  Q 111.39 125.56 112.85 118.76
  L 112.88 104.01
  Q 116.94 103.18 117.66 107.58
  C 118.74 114.19 118.11 121.99 118.62 126.17
  Q 118.75 127.27 118.67 126.14
  Q 118.53 124.34 119.05 119.96
  C 119.55 115.80 119.41 111.30 119.65 106.95
  Q 119.96 120.38 119.83 133.81
  Q 119.79 137.88 120.62 139.57
  Q 121.98 142.34 125.24 142.81
  Q 131.89 143.76 133.29 136.72
  L 133.41 99.47
  C 134.42 100.76 135.88 102.08 137.57 101.03
  C 139.69 99.72 139.79 96.77 139.78 94.28
  C 140.69 101.93 140.57 111.28 140.55 115.63
  Q 140.54 119.79 141.29 121.13
  C 143.70 125.43 149.88 125.58 152.64 122.09
  Q 153.97 120.40 153.96 114.80
  Q 153.94 109.87 153.79 104.98
  Q 154.31 95.92 152.22 87.18
  C 153.62 90.16 156.22 94.10 159.78 94.05
  C 166.10 93.95 170.13 79.37 170.38 75.66
  C 170.94 67.51 170.72 59.05 171.88 50.50
  C 174.42 31.68 159.25 17.15 143.81 9.98
  C 138.70 7.61 131.34 5.97 125.19 4.28
  Q 127.31 4.07 131.09 4.49
  Q 144.42 5.99 155.45 11.82
  Q 171.19 20.14 173.30 38.91
  L 173.84 52.71
  Q 173.63 64.48 173.62 76.26
  Q 173.60 85.73 173.16 91.79
  C 172.33 102.96 172.03 111.23 172.24 123.35
  Q 172.32 127.59 171.72 131.63
  C 170.50 139.80 170.14 147.04 165.08 153.53
  C 158.10 162.48 150.68 168.40 139.42 169.99
  Q 132.24 171.00 123.95 170.96
  Q 89.01 170.76 54.33 170.31
  Q 40.76 170.14 33.81 168.75
  Q 28.20 167.63 21.61 161.95
  C 11.97 153.64 5.96 141.00 6.52 128.20
  C 6.97 117.90 7.80 109.61 7.48 99.88
  Q 7.29 94.12 6.81 62.62
  Q 6.62 49.90 7.29 41.91
  Q 8.61 26.11 20.32 15.89
  Q 28.82 8.47 38.10 7.18
  C 47.91 5.81 52.94 4.77 61.24 4.20
  Q 72.47 3.43 83.71 2.91
  Z"
/>
<path fill="#fd8460" d="
  M 131.20 2.92
  Q 141.37 2.54 150.61 6.22
  C 153.30 7.29 155.22 8.83 158.17 10.50
  A 8.69 8.62 79.9 0 1 159.52 11.45
  Q 165.04 16.27 169.14 21.65
  Q 171.61 24.90 172.49 29.06
  Q 173.48 33.76 173.30 38.91
  Q 171.19 20.14 155.45 11.82
  Q 144.42 5.99 131.09 4.49
  Q 127.31 4.07 125.19 4.28
  L 99.71 3.44
  A 0.19 0.19 0.0 0 1 99.52 3.23
  Q 99.53 2.89 100.04 2.89
  Q 108.31 2.80 131.20 2.92
  Z"
/>
<path fill="#f0efef" d="
  M 152.22 87.18
  Q 154.31 95.92 153.79 104.98
  C 152.45 96.00 149.53 89.09 145.45 80.52
  Q 135.40 59.41 113.65 50.54
  Q 103.50 46.41 95.72 45.94
  C 88.02 45.48 80.42 45.44 73.17 48.01
  C 58.31 53.28 45.38 62.09 37.34 75.83
  C 34.41 80.82 31.42 88.16 27.07 93.28
  Q 27.36 89.31 28.47 85.48
  Q 35.97 59.42 59.43 46.42
  Q 70.12 40.49 82.39 38.95
  Q 94.20 37.47 106.43 40.76
  Q 118.92 44.13 129.97 52.28
  C 141.38 60.71 148.50 73.50 152.22 87.18
  Z"
/>
<path fill="#fefefe" d="
  M 153.79 104.98
  Q 153.94 109.87 153.96 114.80
  Q 153.97 120.40 152.64 122.09
  C 149.88 125.58 143.70 125.43 141.29 121.13
  Q 140.54 119.79 140.55 115.63
  C 140.57 111.28 140.69 101.93 139.78 94.28
  C 136.83 77.91 127.21 65.19 112.42 57.19
  A 3.46 3.45 65.1 0 0 111.58 56.88
  C 108.82 56.26 106.83 54.79 103.76 54.03
  Q 89.84 50.58 77.26 53.81
  Q 76.01 54.13 67.46 57.29
  A 4.45 3.93 -68.5 0 0 66.58 57.74
  Q 58.80 62.93 57.04 64.54
  Q 45.14 75.38 41.21 90.70
  C 40.18 95.04 40.66 100.27 35.54 102.08
  Q 31.17 103.63 27.79 99.63
  Q 26.25 96.97 27.07 93.28
  C 31.42 88.16 34.41 80.82 37.34 75.83
  C 45.38 62.09 58.31 53.28 73.17 48.01
  C 80.42 45.44 88.02 45.48 95.72 45.94
  Q 103.50 46.41 113.65 50.54
  Q 135.40 59.41 145.45 80.52
  C 149.53 89.09 152.45 96.00 153.79 104.98
  Z"
/>
<path fill="#fb5d2d" d="
  M 139.78 94.28
  C 139.79 96.77 139.69 99.72 137.57 101.03
  C 135.88 102.08 134.42 100.76 133.41 99.47
  Q 132.11 81.15 118.34 69.16
  Q 109.01 61.02 96.76 59.05
  Q 85.09 57.17 74.72 61.44
  Q 50.14 71.57 46.89 98.13
  C 41.40 101.37 40.96 94.39 41.21 90.70
  Q 45.14 75.38 57.04 64.54
  Q 58.80 62.93 66.58 57.74
  A 4.45 3.93 -68.5 0 1 67.46 57.29
  Q 76.01 54.13 77.26 53.81
  Q 89.84 50.58 103.76 54.03
  C 106.83 54.79 108.82 56.26 111.58 56.88
  A 3.46 3.45 65.1 0 1 112.42 57.19
  C 127.21 65.19 136.83 77.91 139.78 94.28
  Z"
/>
<path fill="#f0efef" d="
  M 133.41 99.47
  L 133.29 136.72
  C 132.43 128.79 131.28 120.49 131.23 112.78
  Q 131.18 105.19 130.75 102.20
  Q 128.41 86.09 116.90 76.09
  C 105.37 66.06 88.92 63.36 74.86 69.08
  C 67.39 72.12 59.68 78.43 55.67 84.91
  Q 52.10 90.67 47.09 102.49
  L 46.89 98.13
  Q 50.14 71.57 74.72 61.44
  Q 85.09 57.17 96.76 59.05
  Q 109.01 61.02 118.34 69.16
  Q 132.11 81.15 133.41 99.47
  Z"
/>
<path fill="#fefefe" d="
  M 133.29 136.72
  Q 131.89 143.76 125.24 142.81
  Q 121.98 142.34 120.62 139.57
  Q 119.79 137.88 119.83 133.81
  Q 119.96 120.38 119.65 106.95
  L 119.55 96.83
  A 11.20 8.75 40.4 0 0 118.80 93.16
  Q 118.66 92.79 117.20 89.30
  Q 116.25 87.02 115.26 85.60
  C 105.27 71.22 88.14 67.43 73.41 76.89
  Q 62.16 84.12 60.54 98.91
  Q 60.38 107.01 60.36 135.25
  Q 60.35 140.82 55.65 142.24
  Q 52.43 143.21 50.00 141.54
  C 47.48 139.81 47.08 137.91 47.08 134.64
  Q 47.07 118.62 47.09 102.49
  Q 52.10 90.67 55.67 84.91
  C 59.68 78.43 67.39 72.12 74.86 69.08
  C 88.92 63.36 105.37 66.06 116.90 76.09
  Q 128.41 86.09 130.75 102.20
  Q 131.18 105.19 131.23 112.78
  C 131.28 120.49 132.43 128.79 133.29 136.72
  Z"
/>
<path fill="#fb5d2d" d="
  M 119.65 106.95
  C 119.41 111.30 119.55 115.80 119.05 119.96
  Q 118.53 124.34 118.67 126.14
  Q 118.75 127.27 118.62 126.17
  C 118.11 121.99 118.74 114.19 117.66 107.58
  Q 116.94 103.18 112.88 104.01
  C 113.79 91.72 106.93 81.86 95.18 78.97
  Q 87.56 77.10 80.02 80.74
  Q 72.18 84.52 68.47 93.47
  C 67.30 97.85 66.51 101.30 64.65 103.97
  A 0.46 0.46 0.0 0 1 63.97 104.04
  Q 61.78 102.09 60.54 98.91
  Q 62.16 84.12 73.41 76.89
  C 88.14 67.43 105.27 71.22 115.26 85.60
  Q 116.25 87.02 117.20 89.30
  Q 118.66 92.79 118.80 93.16
  A 11.20 8.75 40.4 0 1 119.55 96.83
  L 119.65 106.95
  Z"
/>
<path fill="#f0efef" d="
  M 112.88 104.01
  L 112.85 118.76
  L 112.63 113.23
  A 2.53 2.19 40.9 0 0 112.56 112.75
  C 111.71 109.74 111.89 106.10 111.04 103.47
  C 106.96 90.72 96.76 82.43 82.87 87.59
  C 74.24 90.79 70.80 97.73 67.25 106.09
  Q 66.60 99.71 68.47 93.47
  Q 72.18 84.52 80.02 80.74
  Q 87.56 77.10 95.18 78.97
  C 106.93 81.86 113.79 91.72 112.88 104.01
  Z"
/>
<path fill="#fefefe" d="
  M 112.85 118.76
  Q 111.39 125.56 104.55 124.42
  C 100.95 123.82 99.46 120.63 99.44 116.88
  C 99.41 111.15 99.64 105.53 99.16 99.88
  A 3.22 3.14 -59.2 0 0 98.93 98.92
  Q 96.01 91.80 88.91 92.66
  C 83.38 93.32 80.81 97.76 80.79 102.89
  Q 80.75 112.26 80.87 133.47
  Q 80.90 138.29 79.72 139.78
  C 76.44 143.96 70.50 143.67 67.99 138.95
  Q 67.27 137.62 67.25 133.89
  Q 67.16 119.93 67.25 106.09
  C 70.80 97.73 74.24 90.79 82.87 87.59
  C 96.76 82.43 106.96 90.72 111.04 103.47
  C 111.89 106.10 111.71 109.74 112.56 112.75
  A 2.53 2.19 40.9 0 1 112.63 113.23
  L 112.85 118.76
  Z"
/>
</svg>