<?xml version="1.0" encoding="UTF-8" standalone="no"?>
<!DOCTYPE svg PUBLIC "-//W3C//DTD SVG 1.1//EN" "http://www.w3.org/Graphics/SVG/1.1/DTD/svg11.dtd">
<svg xmlns="http://www.w3.org/2000/svg" version="1.1" viewBox="0.00 0.00 256.00 256.00" width="128" height="128">
<path fill="#000000" d="
  M 251.18 128.00
  A 123.18 123.18 0.0 0 1 128.00 251.18
  A 123.18 123.18 0.0 0 1 4.82 128.00
  A 123.18 123.18 0.0 0 1 128.00 4.82
  A 123.18 123.18 0.0 0 1 251.18 128.00
  Z
  M 109.97 145.38
  Q 105.59 149.90 102.67 152.66
  Q 97.53 157.53 96.20 160.51
  Q 92.57 168.65 97.93 176.75
  A 1.63 1.19 87.5 0 0 98.13 177.00
  Q 133.37 212.20 135.51 214.43
  Q 139.61 218.68 142.32 219.84
  C 158.93 226.94 172.35 206.55 159.64 193.55
  Q 152.84 186.60 133.61 167.51
  A 0.54 0.54 0.0 0 1 133.61 166.75
  Q 156.97 143.40 157.08 143.29
  Q 161.89 138.67 163.12 136.04
  C 167.10 127.57 163.49 118.12 155.23 114.35
  Q 151.79 112.78 145.46 112.95
  Q 141.80 113.06 111.62 112.98
  A 0.31 0.30 22.3 0 1 111.40 112.46
  Q 130.75 93.08 158.35 65.54
  Q 162.61 61.29 163.65 58.69
  C 167.46 49.21 161.67 38.65 151.61 36.88
  C 144.26 35.60 139.71 39.01 134.26 44.55
  Q 128.67 50.23 65.14 113.69
  Q 59.40 119.42 58.18 121.94
  C 52.89 132.94 61.10 144.91 73.01 144.96
  Q 85.11 145.02 109.81 145.00
  A 0.22 0.22 0.0 0 1 109.97 145.38
  Z"
/>
</svg>