<?xml version="1.0" encoding="UTF-8" standalone="no"?>
<!DOCTYPE svg PUBLIC "-//W3C//DTD SVG 1.1//EN" "http://www.w3.org/Graphics/SVG/1.1/DTD/svg11.dtd">
<svg xmlns="http://www.w3.org/2000/svg" version="1.1" viewBox="0.00 0.00 256.00 256.00" width="128" height="128">
<path fill="#0053ce" d="
  M 113.35 101.58
  L 117.51 79.39
  A 2.49 2.49 0.0 0 1 119.96 77.36
  L 142.85 77.36
  A 2.49 2.49 0.0 0 1 145.29 79.38
  L 149.60 101.57
  A 2.49 2.49 0.0 0 1 147.15 104.53
  L 115.80 104.53
  A 2.49 2.49 0.0 0 1 113.35 101.58
  Z"
/>
<path fill="#0053ce" d="
  M 121.49 115.68
  L 125.78 137.83
  A 3.31 3.31 0.0 0 1 122.53 141.77
  L 92.07 141.77
  A 3.31 3.31 0.0 0 1 88.85 137.70
  L 94.08 115.55
  A 3.31 3.31 0.0 0 1 97.30 113.00
  L 118.24 113.00
  A 3.31 3.31 0.0 0 1 121.49 115.68
  Z"
/>
<path fill="#0053ce" d="
  M 136.68 137.60
  L 141.88 115.53
  A 3.33 3.33 0.0 0 1 145.13 112.96
  L 165.48 112.96
  A 3.33 3.33 0.0 0 1 168.72 115.51
  L 174.01 137.58
  A 3.33 3.33 0.0 0 1 170.77 141.69
  L 139.92 141.69
  A 3.33 3.33 0.0 0 1 136.68 137.60
  Z"
/>
<path fill="#0053ce" d="
  M 101.54 151.57
  L 105.74 173.25
  A 3.22 3.22 0.0 0 1 102.58 177.08
  L 72.30 177.08
  A 3.22 3.22 0.0 0 1 69.17 173.12
  L 74.50 150.54
  A 3.22 3.22 0.0 0 1 77.77 148.07
  L 98.52 148.97
  A 3.22 3.22 0.0 0 1 101.54 151.57
  Z"
/>
<path fill="#0053ce" d="
  M 191.42 177.40
  Q 176.18 176.42 159.26 177.43
  A 1.64 1.64 0.0 0 1 157.53 175.66
  Q 157.87 171.24 158.19 167.28
  C 158.57 162.60 160.19 157.72 161.65 151.47
  A 3.33 3.33 0.0 0 1 164.72 148.90
  L 184.74 147.88
  A 2.57 2.55 71.4 0 1 186.98 149.00
  C 188.67 151.51 189.79 154.31 190.32 157.43
  Q 191.29 163.04 193.01 170.50
  Q 193.60 173.08 193.09 176.08
  A 1.59 1.59 0.0 0 1 191.42 177.40
  Z"
/>
<path fill="#0053ce" d="
  M 113.80 177.25
  A 1.21 1.19 -83.8 0 1 112.83 176.03
  C 112.89 174.42 113.25 171.36 113.71 169.57
  Q 116.15 159.84 117.51 152.30
  C 117.96 149.83 118.88 149.35 121.13 148.88
  Q 123.98 148.29 126.76 148.27
  Q 137.82 148.19 141.05 148.43
  C 143.82 148.63 144.67 150.05 145.30 152.80
  Q 146.92 159.94 148.71 168.51
  Q 149.56 172.63 149.61 175.10
  A 2.32 2.31 -88.8 0 1 147.17 177.45
  Q 130.64 176.51 114.94 177.45
  A 1.40 0.95 -29.2 0 1 114.71 177.43
  L 113.80 177.25
  Z"
/>
</svg>