<?xml version="1.0" encoding="UTF-8" standalone="no"?>
<!DOCTYPE svg PUBLIC "-//W3C//DTD SVG 1.1//EN" "http://www.w3.org/Graphics/SVG/1.1/DTD/svg11.dtd">
<svg xmlns="http://www.w3.org/2000/svg" version="1.1" viewBox="0.00 0.00 450.00 450.00" width="128" height="128">
<g stroke-width="2.00" fill="none" stroke-linecap="butt">
<path stroke="#8ea7ec" vector-effect="non-scaling-stroke" d="
  M 334.45 101.15
  Q 334.19 104.44 335.88 109.17
  C 338.13 115.47 344.09 112.94 347.55 109.82
  Q 359.54 99.03 368.05 84.06
  Q 372.11 76.93 372.87 69.37
  C 374.00 58.26 366.98 49.91 356.39 47.40
  C 347.09 45.19 337.79 45.82 328.87 47.62
  Q 307.34 51.96 285.92 61.19
  Q 223.43 88.10 170.27 131.55
  C 153.88 144.95 138.07 160.14 125.92 177.15
  C 116.28 190.67 108.75 205.51 111.45 221.08
  Q 113.20 231.14 120.29 238.29
  C 129.96 248.03 142.56 254.80 155.78 259.45
  C 178.89 267.59 199.57 272.41 226.45 278.77
  C 230.63 279.77 250.57 284.40 249.67 290.34
  C 248.55 297.70 228.87 308.34 221.97 311.97
  Q 202.39 322.26 179.66 329.15
  Q 140.28 341.07 98.20 344.84
  Q 94.82 345.14 92.53 346.41
  C 87.54 349.15 87.32 357.24 88.94 361.66
  Q 90.98 367.22 96.43 369.16
  Q 99.51 370.25 107.21 369.26
  Q 163.70 361.98 215.82 339.82
  Q 229.20 334.14 239.94 327.69
  C 250.99 321.06 260.73 314.11 268.48 304.24
  C 278.04 292.04 276.89 276.82 262.26 269.21
  C 243.60 259.49 224.13 254.11 202.41 249.06
  Q 190.54 246.30 169.16 239.60
  Q 160.21 236.79 153.28 233.26
  C 142.45 227.74 133.65 220.97 136.53 207.49
  Q 137.86 201.26 140.23 197.21
  C 150.51 179.60 164.77 164.59 180.28 151.32
  Q 228.88 109.76 287.85 83.13
  Q 308.25 73.92 328.34 69.82
  C 335.14 68.44 342.56 66.66 348.33 69.96
  C 356.73 74.79 338.72 96.16 334.87 100.19
  A 1.57 1.53 69.4 0 0 334.45 101.15"
/>
<path stroke="#808080" vector-effect="non-scaling-stroke" d="
  M 372.01 410.08
  A 5.08 5.08 0.0 0 0 366.93 405.00
  L 82.07 405.00
  A 5.08 5.08 0.0 0 0 76.99 410.08
  L 76.99 420.92
  A 5.08 5.08 0.0 0 0 82.07 426.00
  L 366.93 426.00
  A 5.08 5.08 0.0 0 0 372.01 420.92
  L 372.01 410.08"
/>
</g>
<path fill="#ffffff" d="
  M 450.00 0.00
  L 450.00 450.00
  L 0.00 450.00
  L 0.00 0.00
  L 450.00 0.00
  Z
  M 334.45 101.15
  Q 334.19 104.44 335.88 109.17
  C 338.13 115.47 344.09 112.94 347.55 109.82
  Q 359.54 99.03 368.05 84.06
  Q 372.11 76.93 372.87 69.37
  C 374.00 58.26 366.98 49.91 356.39 47.40
  C 347.09 45.19 337.79 45.82 328.87 47.62
  Q 307.34 51.96 285.92 61.19
  Q 223.43 88.10 170.27 131.55
  C 153.88 144.95 138.07 160.14 125.92 177.15
  C 116.28 190.67 108.75 205.51 111.45 221.08
  Q 113.20 231.14 120.29 238.29
  C 129.96 248.03 142.56 254.80 155.78 259.45
  C 178.89 267.59 199.57 272.41 226.45 278.77
  C 230.63 279.77 250.57 284.40 249.67 290.34
  C 248.55 297.70 228.87 308.34 221.97 311.97
  Q 202.39 322.26 179.66 329.15
  Q 140.28 341.07 98.20 344.84
  Q 94.82 345.14 92.53 346.41
  C 87.54 349.15 87.32 357.24 88.94 361.66
  Q 90.98 367.22 96.43 369.16
  Q 99.51 370.25 107.21 369.26
  Q 163.70 361.98 215.82 339.82
  Q 229.20 334.14 239.94 327.69
  C 250.99 321.06 260.73 314.11 268.48 304.24
  C 278.04 292.04 276.89 276.82 262.26 269.21
  C 243.60 259.49 224.13 254.11 202.41 249.06
  Q 190.54 246.30 169.16 239.60
  Q 160.21 236.79 153.28 233.26
  C 142.45 227.74 133.65 220.97 136.53 207.49
  Q 137.86 201.26 140.23 197.21
  C 150.51 179.60 164.77 164.59 180.28 151.32
  Q 228.88 109.76 287.85 83.13
  Q 308.25 73.92 328.34 69.82
  C 335.14 68.44 342.56 66.66 348.33 69.96
  C 356.73 74.79 338.72 96.16 334.87 100.19
  A 1.57 1.53 69.4 0 0 334.45 101.15
  Z
  M 372.01 410.08
  A 5.08 5.08 0.0 0 0 366.93 405.00
  L 82.07 405.00
  A 5.08 5.08 0.0 0 0 76.99 410.08
  L 76.99 420.92
  A 5.08 5.08 0.0 0 0 82.07 426.00
  L 366.93 426.00
  A 5.08 5.08 0.0 0 0 372.01 420.92
  L 372.01 410.08
  Z"
/>
<path fill="#1d4ed8" d="
  M 334.87 100.19
  C 338.72 96.16 356.73 74.79 348.33 69.96
  C 342.56 66.66 335.14 68.44 328.34 69.82
  Q 308.25 73.92 287.85 83.13
  Q 228.88 109.76 180.28 151.32
  C 164.77 164.59 150.51 179.60 140.23 197.21
  Q 137.86 201.26 136.53 207.49
  C 133.65 220.97 142.45 227.74 153.28 233.26
  Q 160.21 236.79 169.16 239.60
  Q 190.54 246.30 202.41 249.06
  C 224.13 254.11 243.60 259.49 262.26 269.21
  C 276.89 276.82 278.04 292.04 268.48 304.24
  C 260.73 314.11 250.99 321.06 239.94 327.69
  Q 229.20 334.14 215.82 339.82
  Q 163.70 361.98 107.21 369.26
  Q 99.51 370.25 96.43 369.16
  Q 90.98 367.22 88.94 361.66
  C 87.32 357.24 87.54 349.15 92.53 346.41
  Q 94.82 345.14 98.20 344.84
  Q 140.28 341.07 179.66 329.15
  Q 202.39 322.26 221.97 311.97
  C 228.87 308.34 248.55 297.70 249.67 290.34
  C 250.57 284.40 230.63 279.77 226.45 278.77
  C 199.57 272.41 178.89 267.59 155.78 259.45
  C 142.56 254.80 129.96 248.03 120.29 238.29
  Q 113.20 231.14 111.45 221.08
  C 108.75 205.51 116.28 190.67 125.92 177.15
  C 138.07 160.14 153.88 144.95 170.27 131.55
  Q 223.43 88.10 285.92 61.19
  Q 307.34 51.96 328.87 47.62
  C 337.79 45.82 347.09 45.19 356.39 47.40
  C 366.98 49.91 374.00 58.26 372.87 69.37
  Q 372.11 76.93 368.05 84.06
  Q 359.54 99.03 347.55 109.82
  C 344.09 112.94 338.13 115.47 335.88 109.17
  Q 334.19 104.44 334.45 101.15
  A 1.57 1.53 69.4 0 1 334.87 100.19
  Z"
/>
<rect fill="#000000" x="76.99" y="405.00" width="295.02" height="21.00" rx="5.08"/>
</svg>