<?xml version="1.0" encoding="UTF-8" standalone="no"?>
<!DOCTYPE svg PUBLIC "-//W3C//DTD SVG 1.1//EN" "http://www.w3.org/Graphics/SVG/1.1/DTD/svg11.dtd">
<svg xmlns="http://www.w3.org/2000/svg" version="1.1" viewBox="0.00 0.00 180.00 180.00" width="128" height="128">
<g stroke-width="2.00" fill="none" stroke-linecap="butt">
<path stroke="#694ba5" vector-effect="non-scaling-stroke" d="
  M 89.99 158.61
  C 98.32 158.61 104.62 152.91 105.33 144.50
  C 105.79 139.03 101.73 132.76 96.97 129.00
  A 0.62 0.61 42.1 0 1 96.92 128.07
  Q 112.81 112.76 125.22 94.24
  C 131.56 84.78 136.94 73.00 136.06 61.32
  C 134.18 36.28 114.63 21.37 90.01 21.37
  C 65.40 21.36 45.84 36.26 43.94 61.31
  C 43.06 72.98 48.44 84.77 54.78 94.23
  Q 67.18 112.75 83.07 128.07
  A 0.62 0.61 -42.1 0 1 83.02 129.00
  C 78.25 132.76 74.19 139.02 74.66 144.50
  C 75.36 152.91 81.66 158.60 89.99 158.61"
/>
<path stroke="#928bad" vector-effect="non-scaling-stroke" d="
  M 88.61 118.15
  L 88.61 30.69
  A 0.31 0.30 -4.8 0 0 88.25 30.39
  C 70.25 33.31 68.23 61.11 70.79 74.19
  C 73.53 88.21 80.66 104.51 88.22 118.25
  A 0.21 0.21 0.0 0 0 88.61 118.15"
/>
<path stroke="#928bad" vector-effect="non-scaling-stroke" d="
  M 95.63 117.79
  Q 109.03 104.02 119.30 88.31
  C 124.86 79.81 129.38 69.42 127.59 58.72
  Q 124.28 38.97 105.35 32.12
  Q 103.24 31.36 101.09 30.96
  A 0.16 0.16 0.0 0 0 100.94 31.23
  Q 105.03 35.30 105.42 35.86
  C 114.00 48.37 114.63 66.87 110.51 81.00
  Q 105.04 99.74 95.28 117.54
  A 0.22 0.21 -8.9 0 0 95.63 117.79"
/>
<path stroke="#928bad" vector-effect="non-scaling-stroke" d="
  M 89.99 148.67
  Q 91.63 148.68 92.73 148.10
  C 98.68 144.99 93.77 138.93 90.24 136.27
  Q 90.15 136.20 90.00 136.20
  Q 89.85 136.20 89.76 136.26
  C 86.23 138.93 81.31 144.98 87.26 148.10
  Q 88.35 148.67 89.99 148.67"
/>
</g>
<path fill="#ad80ef" d="
  M 180.00 0.00
  L 180.00 180.00
  L 0.00 180.00
  L 0.00 0.00
  L 180.00 0.00
  Z
  M 89.99 158.61
  C 98.32 158.61 104.62 152.91 105.33 144.50
  C 105.79 139.03 101.73 132.76 96.97 129.00
  A 0.62 0.61 42.1 0 1 96.92 128.07
  Q 112.81 112.76 125.22 94.24
  C 131.56 84.78 136.94 73.00 136.06 61.32
  C 134.18 36.28 114.63 21.37 90.01 21.37
  C 65.40 21.36 45.84 36.26 43.94 61.31
  C 43.06 72.98 48.44 84.77 54.78 94.23
  Q 67.18 112.75 83.07 128.07
  A 0.62 0.61 -42.1 0 1 83.02 129.00
  C 78.25 132.76 74.19 139.02 74.66 144.50
  C 75.36 152.91 81.66 158.60 89.99 158.61
  Z"
/>
<path fill="#24165b" d="
  M 90.01 21.37
  C 114.63 21.37 134.18 36.28 136.06 61.32
  C 136.94 73.00 131.56 84.78 125.22 94.24
  Q 112.81 112.76 96.92 128.07
  A 0.62 0.61 42.1 0 0 96.97 129.00
  C 101.73 132.76 105.79 139.03 105.33 144.50
  C 104.62 152.91 98.32 158.61 89.99 158.61
  C 81.66 158.60 75.36 152.91 74.66 144.50
  C 74.19 139.02 78.25 132.76 83.02 129.00
  A 0.62 0.61 -42.1 0 0 83.07 128.07
  Q 67.18 112.75 54.78 94.23
  C 48.44 84.77 43.06 72.98 43.94 61.31
  C 45.84 36.26 65.40 21.36 90.01 21.37
  Z
  M 88.61 118.15
  L 88.61 30.69
  A 0.31 0.30 -4.8 0 0 88.25 30.39
  C 70.25 33.31 68.23 61.11 70.79 74.19
  C 73.53 88.21 80.66 104.51 88.22 118.25
  A 0.21 0.21 0.0 0 0 88.61 118.15
  Z
  M 95.63 117.79
  Q 109.03 104.02 119.30 88.31
  C 124.86 79.81 129.38 69.42 127.59 58.72
  Q 124.28 38.97 105.35 32.12
  Q 103.24 31.36 101.09 30.96
  A 0.16 0.16 0.0 0 0 100.94 31.23
  Q 105.03 35.30 105.42 35.86
  C 114.00 48.37 114.63 66.87 110.51 81.00
  Q 105.04 99.74 95.28 117.54
  A 0.22 0.21 -8.9 0 0 95.63 117.79
  Z
  M 89.99 148.67
  Q 91.63 148.68 92.73 148.10
  C 98.68 144.99 93.77 138.93 90.24 136.27
  Q 90.15 136.20 90.00 136.20
  Q 89.85 136.20 89.76 136.26
  C 86.23 138.93 81.31 144.98 87.26 148.10
  Q 88.35 148.67 89.99 148.67
  Z"
/>
<path fill="#ffffff" d="
  M 88.22 118.25
  C 80.66 104.51 73.53 88.21 70.79 74.19
  C 68.23 61.11 70.25 33.31 88.25 30.39
  A 0.31 0.30 -4.8 0 1 88.61 30.69
  L 88.61 118.15
  A 0.21 0.21 0.0 0 1 88.22 118.25
  Z"
/>
<path fill="#ffffff" d="
  M 95.63 117.79
  A 0.22 0.21 -8.9 0 1 95.28 117.54
  Q 105.04 99.74 110.51 81.00
  C 114.63 66.87 114.00 48.37 105.42 35.86
  Q 105.03 35.30 100.94 31.23
  A 0.16 0.16 0.0 0 1 101.09 30.96
  Q 103.24 31.36 105.35 32.12
  Q 124.28 38.97 127.59 58.72
  C 129.38 69.42 124.86 79.81 119.30 88.31
  Q 109.03 104.02 95.63 117.79
  Z"
/>
<path fill="#ffffff" d="
  M 90.00 136.20
  Q 90.15 136.20 90.24 136.27
  C 93.77 138.93 98.68 144.99 92.73 148.10
  Q 91.63 148.68 89.99 148.67
  Q 88.35 148.67 87.26 148.10
  C 81.31 144.98 86.23 138.93 89.76 136.26
  Q 89.85 136.20 90.00 136.20
  Z"
/>
</svg>