<?xml version="1.0" encoding="UTF-8" standalone="no"?>
<!DOCTYPE svg PUBLIC "-//W3C//DTD SVG 1.1//EN" "http://www.w3.org/Graphics/SVG/1.1/DTD/svg11.dtd">
<svg xmlns="http://www.w3.org/2000/svg" version="1.1" viewBox="0.00 0.00 256.00 256.00" width="128" height="128">
<g stroke-width="2.00" fill="none" stroke-linecap="butt">
<path stroke="#808080" vector-effect="non-scaling-stroke" d="
  M 128.1349 45.0301
  A 83.00 82.82 -89.9 0 0 45.1701 127.8855
  A 83.00 82.82 -89.9 0 0 127.8451 211.0299
  A 83.00 82.82 -89.9 0 0 210.8099 128.1745
  A 83.00 82.82 -89.9 0 0 128.1349 45.0301"
/>
<path stroke="#808080" vector-effect="non-scaling-stroke" d="
  M 128.1192 54.0001
  A 74.04 73.84 -89.9 0 0 54.1501 127.9111
  A 74.04 73.84 -89.9 0 0 127.8608 202.0799
  A 74.04 73.84 -89.9 0 0 201.8299 128.1689
  A 74.04 73.84 -89.9 0 0 128.1192 54.0001"
/>
<path stroke="#808080" vector-effect="non-scaling-stroke" d="
  M 128.32 179.26
  Q 136.38 179.25 143.41 177.17
  C 164.22 170.99 177.38 153.76 178.87 131.98
  C 179.00 130.05 178.35 128.28 176.25 128.27
  Q 171.25 128.24 128.31 128.25
  Q 85.36 128.26 80.36 128.29
  C 78.26 128.30 77.61 130.07 77.74 132.00
  C 79.24 153.78 92.41 171.01 113.22 177.17
  Q 120.26 179.26 128.32 179.26"
/>
</g>
<path fill="#ffffff" d="
  M 131.38 0.00
  Q 169.57 1.51 199.60 21.90
  Q 236.71 47.09 250.62 91.38
  Q 255.41 106.66 256.00 125.90
  L 256.00 130.46
  Q 255.19 154.74 246.82 175.52
  Q 231.92 212.49 197.78 234.91
  Q 171.24 252.35 139.47 255.10
  Q 134.98 255.49 130.47 256.00
  L 125.88 256.00
  Q 112.24 255.26 102.61 253.35
  Q 91.85 251.23 78.94 245.95
  Q 54.52 235.97 36.33 216.94
  Q 1.89 180.91 0.00 130.77
  L 0.00 125.06
  C 0.40 121.05 0.45 116.69 0.91 113.08
  Q 6.61 68.57 37.13 37.89
  Q 72.56 2.28 124.68 0.00
  L 131.38 0.00
  Z
  M 128.1349 45.0301
  A 83.00 82.82 -89.9 0 0 45.1701 127.8855
  A 83.00 82.82 -89.9 0 0 127.8451 211.0299
  A 83.00 82.82 -89.9 0 0 210.8099 128.1745
  A 83.00 82.82 -89.9 0 0 128.1349 45.0301
  Z"
/>
<path fill="#000000" d="
  M 128.1349 45.0301
  A 83.00 82.82 -89.9 0 1 210.8099 128.1745
  A 83.00 82.82 -89.9 0 1 127.8451 211.0299
  A 83.00 82.82 -89.9 0 1 45.1701 127.8855
  A 83.00 82.82 -89.9 0 1 128.1349 45.0301
  Z
  M 128.1192 54.0001
  A 74.04 73.84 -89.9 0 0 54.1501 127.9111
  A 74.04 73.84 -89.9 0 0 127.8608 202.0799
  A 74.04 73.84 -89.9 0 0 201.8299 128.1689
  A 74.04 73.84 -89.9 0 0 128.1192 54.0001
  Z"
/>
<path fill="#ffffff" d="
  M 128.1192 54.0001
  A 74.04 73.84 -89.9 0 1 201.8299 128.1689
  A 74.04 73.84 -89.9 0 1 127.8608 202.0799
  A 74.04 73.84 -89.9 0 1 54.1501 127.9111
  A 74.04 73.84 -89.9 0 1 128.1192 54.0001
  Z
  M 128.32 179.26
  Q 136.38 179.25 143.41 177.17
  C 164.22 170.99 177.38 153.76 178.87 131.98
  C 179.00 130.05 178.35 128.28 176.25 128.27
  Q 171.25 128.24 128.31 128.25
  Q 85.36 128.26 80.36 128.29
  C 78.26 128.30 77.61 130.07 77.74 132.00
  C 79.24 153.78 92.41 171.01 113.22 177.17
  Q 120.26 179.26 128.32 179.26
  Z"
/>
<path fill="#000000" d="
  M 128.31 128.25
  Q 171.25 128.24 176.25 128.27
  C 178.35 128.28 179.00 130.05 178.87 131.98
  C 177.38 153.76 164.22 170.99 143.41 177.17
  Q 136.38 179.25 128.32 179.26
  Q 120.26 179.26 113.22 177.17
  C 92.41 171.01 79.24 153.78 77.74 132.00
  C 77.61 130.07 78.26 128.30 80.36 128.29
  Q 85.36 128.26 128.31 128.25
  Z"
/>
</svg>