<?xml version="1.0" encoding="UTF-8" standalone="no"?>
<!DOCTYPE svg PUBLIC "-//W3C//DTD SVG 1.1//EN" "http://www.w3.org/Graphics/SVG/1.1/DTD/svg11.dtd">
<svg xmlns="http://www.w3.org/2000/svg" version="1.1" viewBox="0.00 0.00 256.00 256.00" width="128" height="128">
<path fill="#f3b942" d="
  M 128.50 24.14
  Q 128.80 24.14 128.97 24.22
  Q 176.68 45.87 209.73 61.02
  C 218.90 65.23 227.45 73.81 230.55 83.64
  Q 235.00 97.79 226.04 111.06
  A 0.83 0.83 0.0 0 1 225.01 111.35
  Q 179.05 90.36 129.00 67.72
  Q 128.83 67.65 128.50 67.65
  Q 128.17 67.65 128.00 67.72
  Q 77.95 90.36 31.99 111.35
  A 0.83 0.83 0.0 0 1 30.96 111.06
  Q 22.00 97.79 26.45 83.64
  C 29.55 73.81 38.10 65.23 47.27 61.02
  Q 80.33 45.87 128.04 24.22
  Q 128.21 24.14 128.50 24.14
  Z"
/>
<path fill="#4eaddd" d="
  M 128.51 127.67
  Q 128.18 127.67 128.01 127.74
  Q 77.96 150.38 32.00 171.36
  A 0.83 0.83 0.0 0 1 30.97 171.07
  Q 22.02 157.80 26.47 143.65
  C 29.57 133.82 38.12 125.24 47.29 121.03
  Q 80.34 105.89 128.05 84.24
  Q 128.22 84.16 128.51 84.16
  Q 128.81 84.16 128.98 84.24
  Q 176.69 105.89 209.74 121.04
  C 218.91 125.25 227.46 133.83 230.55 143.66
  Q 235.00 157.81 226.04 171.08
  A 0.83 0.83 0.0 0 1 225.01 171.37
  Q 179.06 150.38 129.01 127.74
  Q 128.84 127.67 128.51 127.67
  Z"
/>
<path fill="#eb484b" d="
  M 128.49 187.68
  Q 128.16 187.68 127.99 187.76
  Q 77.95 210.40 32.00 231.39
  A 0.83 0.83 0.0 0 1 30.97 231.10
  Q 22.01 217.83 26.46 203.69
  C 29.55 193.86 38.10 185.28 47.27 181.07
  Q 80.32 165.91 128.02 144.26
  Q 128.19 144.18 128.48 144.18
  Q 128.78 144.18 128.95 144.26
  Q 176.66 165.90 209.71 181.04
  C 218.88 185.25 227.43 193.83 230.53 203.65
  Q 234.98 217.80 226.03 231.07
  A 0.83 0.83 0.0 0 1 225.00 231.36
  Q 179.04 210.38 128.99 187.76
  Q 128.82 187.68 128.49 187.68
  Z"
/>
</svg>