<?xml version="1.0" encoding="UTF-8" standalone="no"?>
<!DOCTYPE svg PUBLIC "-//W3C//DTD SVG 1.1//EN" "http://www.w3.org/Graphics/SVG/1.1/DTD/svg11.dtd">
<svg xmlns="http://www.w3.org/2000/svg" version="1.1" viewBox="0.00 0.00 180.00 180.00" width="128" height="128">
<g stroke-width="2.00" fill="none" stroke-linecap="butt">
<path stroke="#f5d0b6" vector-effect="non-scaling-stroke" d="
  M 33.54 0.00
  C 14.88 2.07 1.48 15.20 0.00 34.01"
/>
<path stroke="#f5d0b6" vector-effect="non-scaling-stroke" d="
  M 146.18 0.00
  C 164.78 1.48 178.37 15.27 180.00 33.90"
/>
<path stroke="#f5d0b6" vector-effect="non-scaling-stroke" d="
  M 180.00 145.95
  Q 179.08 158.18 171.73 166.99
  Q 162.25 178.36 146.71 180.00"
/>
<path stroke="#f5d0b6" vector-effect="non-scaling-stroke" d="
  M 33.89 180.00
  C 15.33 178.35 1.58 164.84 0.00 146.31"
/>
<path stroke="#f5d0b6" vector-effect="non-scaling-stroke" d="
  M 116.53 84.68
  A 0.95 0.95 0.0 0 0 115.58 83.73
  L 88.42 83.73
  A 1.39 1.38 -90.0 0 1 87.04 82.34
  L 87.04 63.02
  A 1.34 1.34 0.0 0 1 88.37 61.68
  Q 101.00 61.63 107.93 61.70
  C 120.19 61.82 128.35 59.43 136.79 51.43
  Q 138.20 50.09 138.39 49.72
  Q 138.86 48.82 137.64 47.61
  Q 133.01 43.05 128.57 38.65
  A 1.29 1.29 0.0 0 0 126.78 38.62
  Q 120.82 44.23 112.33 44.33
  Q 90.43 44.61 71.40 44.43
  A 1.59 1.59 0.0 0 0 69.79 46.02
  L 69.79 82.28
  A 1.39 1.38 90.0 0 1 68.41 83.67
  L 52.38 83.67
  A 1.51 1.51 0.0 0 0 50.87 85.18
  L 50.87 99.41
  A 1.45 1.45 0.0 0 0 52.32 100.86
  L 68.22 100.86
  A 1.58 1.58 0.0 0 1 69.80 102.44
  L 69.80 133.73
  A 1.33 1.33 0.0 0 0 71.13 135.06
  L 85.78 135.06
  A 1.27 1.27 0.0 0 0 87.05 133.79
  L 87.05 102.41
  A 1.55 1.55 0.0 0 1 88.60 100.86
  L 115.39 100.86
  A 1.14 1.14 0.0 0 0 116.53 99.72
  L 116.53 84.68"
/>
<path stroke="#f5d0b6" vector-effect="non-scaling-stroke" d="
  M 154.53 144.77
  A 9.75 9.75 0.0 0 0 144.78 135.02
  A 9.75 9.75 0.0 0 0 135.03 144.77
  A 9.75 9.75 0.0 0 0 144.78 154.52
  A 9.75 9.75 0.0 0 0 154.53 144.77"
/>
</g>
<path fill="#ffffff" d="
  M 33.54 0.00
  C 14.88 2.07 1.48 15.20 0.00 34.01
  L 0.00 0.00
  L 33.54 0.00
  Z"
/>
<path fill="#eba06d" d="
  M 146.18 0.00
  C 164.78 1.48 178.37 15.27 180.00 33.90
  L 180.00 145.95
  Q 179.08 158.18 171.73 166.99
  Q 162.25 178.36 146.71 180.00
  L 33.89 180.00
  C 15.33 178.35 1.58 164.84 0.00 146.31
  L 0.00 34.01
  C 1.48 15.20 14.88 2.07 33.54 0.00
  L 146.18 0.00
  Z
  M 116.53 84.68
  A 0.95 0.95 0.0 0 0 115.58 83.73
  L 88.42 83.73
  A 1.39 1.38 -90.0 0 1 87.04 82.34
  L 87.04 63.02
  A 1.34 1.34 0.0 0 1 88.37 61.68
  Q 101.00 61.63 107.93 61.70
  C 120.19 61.82 128.35 59.43 136.79 51.43
  Q 138.20 50.09 138.39 49.72
  Q 138.86 48.82 137.64 47.61
  Q 133.01 43.05 128.57 38.65
  A 1.29 1.29 0.0 0 0 126.78 38.62
  Q 120.82 44.23 112.33 44.33
  Q 90.43 44.61 71.40 44.43
  A 1.59 1.59 0.0 0 0 69.79 46.02
  L 69.79 82.28
  A 1.39 1.38 90.0 0 1 68.41 83.67
  L 52.38 83.67
  A 1.51 1.51 0.0 0 0 50.87 85.18
  L 50.87 99.41
  A 1.45 1.45 0.0 0 0 52.32 100.86
  L 68.22 100.86
  A 1.58 1.58 0.0 0 1 69.80 102.44
  L 69.80 133.73
  A 1.33 1.33 0.0 0 0 71.13 135.06
  L 85.78 135.06
  A 1.27 1.27 0.0 0 0 87.05 133.79
  L 87.05 102.41
  A 1.55 1.55 0.0 0 1 88.60 100.86
  L 115.39 100.86
  A 1.14 1.14 0.0 0 0 116.53 99.72
  L 116.53 84.68
  Z
  M 154.53 144.77
  A 9.75 9.75 0.0 0 0 144.78 135.02
  A 9.75 9.75 0.0 0 0 135.03 144.77
  A 9.75 9.75 0.0 0 0 144.78 154.52
  A 9.75 9.75 0.0 0 0 154.53 144.77
  Z"
/>
<path fill="#ffffff" d="
  M 180.00 0.00
  L 180.00 33.90
  C 178.37 15.27 164.78 1.48 146.18 0.00
  L 180.00 0.00
  Z"
/>
<path fill="#ffffff" d="
  M 116.53 84.68
  L 116.53 99.72
  A 1.14 1.14 0.0 0 1 115.39 100.86
  L 88.60 100.86
  A 1.55 1.55 0.0 0 0 87.05 102.41
  L 87.05 133.79
  A 1.27 1.27 0.0 0 1 85.78 135.06
  L 71.13 135.06
  A 1.33 1.33 0.0 0 1 69.80 133.73
  L 69.80 102.44
  A 1.58 1.58 0.0 0 0 68.22 100.86
  L 52.32 100.86
  A 1.45 1.45 0.0 0 1 50.87 99.41
  L 50.87 85.18
  A 1.51 1.51 0.0 0 1 52.38 83.67
  L 68.41 83.67
  A 1.39 1.38 90.0 0 0 69.79 82.28
  L 69.79 46.02
  A 1.59 1.59 0.0 0 1 71.40 44.43
  Q 90.43 44.61 112.33 44.33
  Q 120.82 44.23 126.78 38.62
  A 1.29 1.29 0.0 0 1 128.57 38.65
  Q 133.01 43.05 137.64 47.61
  Q 138.86 48.82 138.39 49.72
  Q 138.20 50.09 136.79 51.43
  C 128.35 59.43 120.19 61.82 107.93 61.70
  Q 101.00 61.63 88.37 61.68
  A 1.34 1.34 0.0 0 0 87.04 63.02
  L 87.04 82.34
  A 1.39 1.38 -90.0 0 0 88.42 83.73
  L 115.58 83.73
  A 0.95 0.95 0.0 0 1 116.53 84.68
  Z"
/>
<circle fill="#ffffff" cx="144.78" cy="144.77" r="9.75"/>
<path fill="#ffffff" d="
  M 180.00 145.95
  L 180.00 180.00
  L 146.71 180.00
  Q 162.25 178.36 171.73 166.99
  Q 179.08 158.18 180.00 145.95
  Z"
/>
<path fill="#ffffff" d="
  M 33.89 180.00
  L 0.00 180.00
  L 0.00 146.31
  C 1.58 164.84 15.33 178.35 33.89 180.00
  Z"
/>
</svg>