<?xml version="1.0" encoding="UTF-8" standalone="no"?>
<!DOCTYPE svg PUBLIC "-//W3C//DTD SVG 1.1//EN" "http://www.w3.org/Graphics/SVG/1.1/DTD/svg11.dtd">
<svg xmlns="http://www.w3.org/2000/svg" version="1.1" viewBox="0.00 0.00 256.00 256.00" width="128" height="128">
<g stroke-width="2.00" fill="none" stroke-linecap="butt">
<path stroke="#006b1d" vector-effect="non-scaling-stroke" d="
  M 165.83 91.17
  A 37.33 37.33 0.0 0 0 128.50 53.84
  A 37.33 37.33 0.0 0 0 91.17 91.17
  A 37.33 37.33 0.0 0 0 128.50 128.50
  A 37.33 37.33 0.0 0 0 165.83 91.17"
/>
<path stroke="#808080" vector-effect="non-scaling-stroke" d="
  M 117.86 176.50
  A 37.36 37.36 0.0 0 0 80.50 139.14
  A 37.36 37.36 0.0 0 0 43.14 176.50
  A 37.36 37.36 0.0 0 0 80.50 213.86
  A 37.36 37.36 0.0 0 0 117.86 176.50"
/>
<path stroke="#808080" vector-effect="non-scaling-stroke" d="
  M 213.86 176.50
  A 37.36 37.36 0.0 0 0 176.50 139.14
  A 37.36 37.36 0.0 0 0 139.14 176.50
  A 37.36 37.36 0.0 0 0 176.50 213.86
  A 37.36 37.36 0.0 0 0 213.86 176.50"
/>
</g>
<path fill="#000000" d="
  M 189.74 0.00
  Q 194.23 0.21 198.75 0.19
  Q 200.43 0.19 206.32 1.88
  C 217.61 5.10 227.03 9.51 236.01 17.46
  C 240.49 21.42 244.55 26.97 247.59 31.94
  Q 252.81 40.48 254.72 50.99
  Q 255.40 54.74 256.00 58.49
  L 256.00 198.71
  Q 255.42 202.30 254.80 205.91
  C 252.12 221.53 241.91 236.39 228.75 245.25
  Q 218.16 252.37 208.36 254.40
  Q 206.23 254.84 198.61 256.00
  L 58.31 256.00
  Q 54.93 255.37 51.53 254.80
  Q 40.84 253.01 32.23 247.77
  Q 24.50 243.07 20.17 238.83
  Q 7.54 226.45 2.61 209.05
  Q 0.62 202.01 0.00 198.84
  L 0.00 58.30
  Q 0.56 55.59 2.41 48.83
  Q 5.99 35.80 13.72 25.57
  C 24.81 10.92 41.85 2.31 60.13 0.00
  L 189.74 0.00
  Z
  M 165.83 91.17
  A 37.33 37.33 0.0 0 0 128.50 53.84
  A 37.33 37.33 0.0 0 0 91.17 91.17
  A 37.33 37.33 0.0 0 0 128.50 128.50
  A 37.33 37.33 0.0 0 0 165.83 91.17
  Z
  M 117.86 176.50
  A 37.36 37.36 0.0 0 0 80.50 139.14
  A 37.36 37.36 0.0 0 0 43.14 176.50
  A 37.36 37.36 0.0 0 0 80.50 213.86
  A 37.36 37.36 0.0 0 0 117.86 176.50
  Z
  M 213.86 176.50
  A 37.36 37.36 0.0 0 0 176.50 139.14
  A 37.36 37.36 0.0 0 0 139.14 176.50
  A 37.36 37.36 0.0 0 0 176.50 213.86
  A 37.36 37.36 0.0 0 0 213.86 176.50
  Z"
/>
<circle fill="#00d639" cx="128.50" cy="91.17" r="37.33"/>
<circle fill="#ffffff" cx="80.50" cy="176.50" r="37.36"/>
<circle fill="#ffffff" cx="176.50" cy="176.50" r="37.36"/>
</svg>