<?xml version="1.0" encoding="UTF-8" standalone="no"?>
<!DOCTYPE svg PUBLIC "-//W3C//DTD SVG 1.1//EN" "http://www.w3.org/Graphics/SVG/1.1/DTD/svg11.dtd">
<svg xmlns="http://www.w3.org/2000/svg" version="1.1" viewBox="0.00 0.00 180.00 180.00" width="128" height="128">
<g stroke-width="2.00" fill="none" stroke-linecap="butt">
<path stroke="#141c2f" vector-effect="non-scaling-stroke" d="
  M 118.17 162.40
  C 137.60 155.60 151.87 141.34 160.10 122.77
  C 181.12 75.33 153.64 21.37 101.92 13.65
  C 80.67 10.48 58.30 15.16 41.64 28.68
  C 20.46 45.87 10.67 72.18 13.43 99.12
  C 18.73 151.00 70.68 179.03 118.17 162.40"
/>
<path stroke="#0c7275" vector-effect="non-scaling-stroke" d="
  M 56.13 30.05
  Q 44.24 37.72 41.48 52.01
  Q 40.76 55.73 41.24 63.70
  A 0.56 0.56 0.0 0 0 41.79 64.23
  L 45.96 64.29"
/>
<path stroke="#1f293c" vector-effect="non-scaling-stroke" d="
  M 45.96 64.29
  L 44.51 70.27"
/>
<path stroke="#0c7f80" vector-effect="non-scaling-stroke" d="
  M 44.51 70.27
  L 41.68 70.40
  A 0.54 0.54 0.0 0 0 41.16 70.94
  L 41.17 109.53"
/>
<path stroke="#1f293c" vector-effect="non-scaling-stroke" d="
  M 41.17 109.53
  Q 45.74 111.28 45.77 115.52"
/>
<path stroke="#0c7275" vector-effect="non-scaling-stroke" d="
  M 45.77 115.52
  L 41.70 115.66
  A 0.55 0.54 -1.1 0 0 41.17 116.20
  Q 41.12 128.48 41.23 135.24
  C 41.56 156.80 70.23 162.27 79.09 142.24"
/>
<path stroke="#1f293c" vector-effect="non-scaling-stroke" d="
  M 79.09 142.24
  C 89.08 142.13 99.28 141.32 108.86 137.84
  C 128.33 130.75 141.03 112.26 141.63 91.69
  C 141.98 79.77 138.81 68.55 134.14 57.56"
/>
<path stroke="#0c7f80" vector-effect="non-scaling-stroke" d="
  M 134.14 57.56
  C 143.29 47.03 139.00 31.25 126.08 26.19
  Q 122.76 24.89 115.21 25.00
  Q 106.20 25.14 72.50 24.98
  Q 64.48 24.94 56.13 30.05"
/>
<path stroke="#148889" vector-effect="non-scaling-stroke" d="
  M 134.14 57.56
  Q 128.52 63.86 120.98 64.17
  Q 113.10 64.49 85.02 64.27"
/>
<path stroke="#01d1c2" vector-effect="non-scaling-stroke" d="
  M 85.02 64.27
  Q 73.24 44.97 56.13 30.05"
/>
<path stroke="#147b7e" vector-effect="non-scaling-stroke" d="
  M 85.02 64.27
  L 45.96 64.29"
/>
<path stroke="#147b7e" vector-effect="non-scaling-stroke" d="
  M 79.09 142.24
  Q 80.86 134.54 80.10 125.94"
/>
<path stroke="#147174" vector-effect="non-scaling-stroke" d="
  M 80.10 125.94
  L 80.14 116.16
  A 0.53 0.53 0.0 0 0 79.62 115.63
  L 70.09 115.57"
/>
<path stroke="#147b7e" vector-effect="non-scaling-stroke" d="
  M 70.09 115.57
  L 45.77 115.52"
/>
<path stroke="#148889" vector-effect="non-scaling-stroke" d="
  M 41.17 109.53
  L 75.02 109.55"
/>
<path stroke="#147174" vector-effect="non-scaling-stroke" d="
  M 75.02 109.55
  L 79.69 109.49"
/>
<path stroke="#147b7e" vector-effect="non-scaling-stroke" d="
  M 79.69 109.49
  L 92.69 109.52"
/>
<path stroke="#148889" vector-effect="non-scaling-stroke" d="
  M 92.69 109.52
  Q 105.37 109.57 118.00 109.71
  Q 128.30 109.82 134.66 102.15
  C 143.26 91.77 138.53 76.08 126.02 71.42
  Q 123.12 70.34 116.52 70.32
  Q 104.25 70.28 91.94 70.28"
/>
<path stroke="#147b7e" vector-effect="non-scaling-stroke" d="
  M 91.94 70.28
  L 79.17 70.30"
/>
<path stroke="#147174" vector-effect="non-scaling-stroke" d="
  M 79.17 70.30
  L 73.01 70.29"
/>
<path stroke="#148889" vector-effect="non-scaling-stroke" d="
  M 73.01 70.29
  L 44.51 70.27"
/>
<path stroke="#01d1c2" vector-effect="non-scaling-stroke" d="
  M 91.94 70.28
  Q 94.00 76.65 95.02 81.98
  C 96.85 91.50 95.30 100.22 92.69 109.52"
/>
<path stroke="#01c7b8" vector-effect="non-scaling-stroke" d="
  M 73.01 70.29
  Q 75.74 75.00 77.93 79.52
  C 79.53 82.83 80.97 88.24 80.97 91.26
  Q 80.96 100.17 75.02 109.55"
/>
<path stroke="#01baad" vector-effect="non-scaling-stroke" d="
  M 79.17 70.30
  C 88.88 84.55 89.64 95.04 79.69 109.49"
/>
<path stroke="#01baad" vector-effect="non-scaling-stroke" d="
  M 70.09 115.57
  L 63.28 125.12
  A 0.41 0.40 -60.2 0 0 63.44 125.72
  Q 71.77 129.54 80.10 125.94"
/>
</g>
<path fill="#10182b" d="
  M 180.00 0.00
  L 180.00 180.00
  L 0.00 180.00
  L 0.00 0.00
  L 180.00 0.00
  Z
  M 118.17 162.40
  C 137.60 155.60 151.87 141.34 160.10 122.77
  C 181.12 75.33 153.64 21.37 101.92 13.65
  C 80.67 10.48 58.30 15.16 41.64 28.68
  C 20.46 45.87 10.67 72.18 13.43 99.12
  C 18.73 151.00 70.68 179.03 118.17 162.40
  Z"
/>
<path fill="#172033" d="
  M 118.17 162.40
  C 70.68 179.03 18.73 151.00 13.43 99.12
  C 10.67 72.18 20.46 45.87 41.64 28.68
  C 58.30 15.16 80.67 10.48 101.92 13.65
  C 153.64 21.37 181.12 75.33 160.10 122.77
  C 151.87 141.34 137.60 155.60 118.17 162.40
  Z
  M 56.13 30.05
  Q 44.24 37.72 41.48 52.01
  Q 40.76 55.73 41.24 63.70
  A 0.56 0.56 0.0 0 0 41.79 64.23
  L 45.96 64.29
  L 44.51 70.27
  L 41.68 70.40
  A 0.54 0.54 0.0 0 0 41.16 70.94
  L 41.17 109.53
  Q 45.74 111.28 45.77 115.52
  L 41.70 115.66
  A 0.55 0.54 -1.1 0 0 41.17 116.20
  Q 41.12 128.48 41.23 135.24
  C 41.56 156.80 70.23 162.27 79.09 142.24
  C 89.08 142.13 99.28 141.32 108.86 137.84
  C 128.33 130.75 141.03 112.26 141.63 91.69
  C 141.98 79.77 138.81 68.55 134.14 57.56
  C 143.29 47.03 139.00 31.25 126.08 26.19
  Q 122.76 24.89 115.21 25.00
  Q 106.20 25.14 72.50 24.98
  Q 64.48 24.94 56.13 30.05
  Z"
/>
<path fill="#01decc" d="
  M 134.14 57.56
  Q 128.52 63.86 120.98 64.17
  Q 113.10 64.49 85.02 64.27
  Q 73.24 44.97 56.13 30.05
  Q 64.48 24.94 72.50 24.98
  Q 106.20 25.14 115.21 25.00
  Q 122.76 24.89 126.08 26.19
  C 139.00 31.25 143.29 47.03 134.14 57.56
  Z"
/>
<path fill="#01c3b7" d="
  M 56.13 30.05
  Q 73.24 44.97 85.02 64.27
  L 45.96 64.29
  L 41.79 64.23
  A 0.56 0.56 0.0 0 1 41.24 63.70
  Q 40.76 55.73 41.48 52.01
  Q 44.24 37.72 56.13 30.05
  Z"
/>
<path fill="#263245" d="
  M 134.14 57.56
  C 138.81 68.55 141.98 79.77 141.63 91.69
  C 141.03 112.26 128.33 130.75 108.86 137.84
  C 99.28 141.32 89.08 142.13 79.09 142.24
  Q 80.86 134.54 80.10 125.94
  L 80.14 116.16
  A 0.53 0.53 0.0 0 0 79.62 115.63
  L 70.09 115.57
  L 45.77 115.52
  Q 45.74 111.28 41.17 109.53
  L 75.02 109.55
  L 79.69 109.49
  L 92.69 109.52
  Q 105.37 109.57 118.00 109.71
  Q 128.30 109.82 134.66 102.15
  C 143.26 91.77 138.53 76.08 126.02 71.42
  Q 123.12 70.34 116.52 70.32
  Q 104.25 70.28 91.94 70.28
  L 79.17 70.30
  L 73.01 70.29
  L 44.51 70.27
  L 45.96 64.29
  L 85.02 64.27
  Q 113.10 64.49 120.98 64.17
  Q 128.52 63.86 134.14 57.56
  Z"
/>
<path fill="#01decc" d="
  M 44.51 70.27
  L 73.01 70.29
  Q 75.74 75.00 77.93 79.52
  C 79.53 82.83 80.97 88.24 80.97 91.26
  Q 80.96 100.17 75.02 109.55
  L 41.17 109.53
  L 41.16 70.94
  A 0.54 0.54 0.0 0 1 41.68 70.40
  L 44.51 70.27
  Z"
/>
<path fill="#01b0a3" d="
  M 79.17 70.30
  C 88.88 84.55 89.64 95.04 79.69 109.49
  L 75.02 109.55
  Q 80.96 100.17 80.97 91.26
  C 80.97 88.24 79.53 82.83 77.93 79.52
  Q 75.74 75.00 73.01 70.29
  L 79.17 70.30
  Z"
/>
<path fill="#01c3b7" d="
  M 91.94 70.28
  Q 94.00 76.65 95.02 81.98
  C 96.85 91.50 95.30 100.22 92.69 109.52
  L 79.69 109.49
  C 89.64 95.04 88.88 84.55 79.17 70.30
  L 91.94 70.28
  Z"
/>
<path fill="#01decc" d="
  M 92.69 109.52
  C 95.30 100.22 96.85 91.50 95.02 81.98
  Q 94.00 76.65 91.94 70.28
  Q 104.25 70.28 116.52 70.32
  Q 123.12 70.34 126.02 71.42
  C 138.53 76.08 143.26 91.77 134.66 102.15
  Q 128.30 109.82 118.00 109.71
  Q 105.37 109.57 92.69 109.52
  Z"
/>
<path fill="#01c3b7" d="
  M 45.77 115.52
  L 70.09 115.57
  L 63.28 125.12
  A 0.41 0.40 -60.2 0 0 63.44 125.72
  Q 71.77 129.54 80.10 125.94
  Q 80.86 134.54 79.09 142.24
  C 70.23 162.27 41.56 156.80 41.23 135.24
  Q 41.12 128.48 41.17 116.20
  A 0.55 0.54 -1.1 0 1 41.70 115.66
  L 45.77 115.52
  Z"
/>
<path fill="#01b0a3" d="
  M 80.10 125.94
  Q 71.77 129.54 63.44 125.72
  A 0.41 0.40 -60.2 0 1 63.28 125.12
  L 70.09 115.57
  L 79.62 115.63
  A 0.53 0.53 0.0 0 1 80.14 116.16
  L 80.10 125.94
  Z"
/>
</svg>