<?xml version="1.0" encoding="UTF-8" standalone="no"?>
<!DOCTYPE svg PUBLIC "-//W3C//DTD SVG 1.1//EN" "http://www.w3.org/Graphics/SVG/1.1/DTD/svg11.dtd">
<svg xmlns="http://www.w3.org/2000/svg" version="1.1" viewBox="0.00 0.00 128.00 128.00" width="128" height="128">
<path stroke="#d06a33" stroke-opacity="0.941" stroke-width="2.00" fill="none" stroke-linecap="butt" vector-effect="non-scaling-stroke" d="
  M 116.24 108.86
  L 11.72 108.87"
/>
<path fill="#f0833d" d="
  M 116.24 108.86
  L 11.72 108.87
  Q 2.18 106.52 0.00 96.99
  L 0.00 29.84
  Q 1.43 22.85 7.43 19.49
  A 0.47 0.46 19.3 0 1 7.56 19.43
  L 10.63 18.32
  A 0.16 0.16 0.0 0 0 10.63 18.01
  Q 10.40 17.94 10.39 17.93
  A 0.46 0.46 0.0 0 1 10.70 17.14
  Q 65.01 17.12 116.75 17.13
  Q 117.18 17.13 117.87 17.63
  A 0.21 0.21 0.0 0 1 117.75 18.01
  L 117.16 18.01
  A 0.22 0.22 0.0 0 0 117.06 18.43
  Q 117.43 18.62 119.00 18.96
  A 2.42 2.40 63.8 0 1 119.52 19.14
  Q 124.30 21.36 126.49 25.71
  Q 127.88 28.46 127.84 34.99
  Q 127.67 58.89 127.84 91.77
  Q 127.87 97.94 126.38 101.04
  Q 123.56 106.88 116.24 108.86
  Z
  M 121.92 32.20
  A 8.42 8.42 0.0 0 0 113.50 23.78
  L 14.24 23.78
  A 8.42 8.42 0.0 0 0 5.82 32.20
  L 5.82 94.66
  A 8.42 8.42 0.0 0 0 14.24 103.08
  L 113.50 103.08
  A 8.42 8.42 0.0 0 0 121.92 94.66
  L 121.92 32.20
  Z"
/>
<path fill="#612e7f" d="
  M 20.86 89.59
  L 20.86 61.06
  A 0.56 0.56 0.0 0 0 20.30 60.50
  L 17.16 60.50
  A 0.60 0.59 -0.0 0 1 16.56 59.91
  L 16.56 50.70
  A 0.55 0.55 0.0 0 1 17.11 50.15
  L 20.01 50.15
  A 0.91 0.91 0.0 0 0 20.92 49.23
  Q 20.79 39.42 28.51 35.76
  C 31.81 34.20 35.16 34.18 39.04 34.14
  A 0.60 0.59 -0.0 0 1 39.64 34.73
  L 39.64 43.90
  A 0.69 0.69 0.0 0 1 38.97 44.59
  Q 32.70 44.77 33.45 49.63
  A 0.61 0.61 0.0 0 0 34.05 50.15
  L 39.27 50.15
  A 0.55 0.55 0.0 0 1 39.82 50.70
  L 39.82 59.90
  A 0.59 0.58 0.0 0 1 39.23 60.48
  L 33.96 60.48
  A 0.57 0.56 90.0 0 0 33.40 61.05
  L 33.40 89.56
  A 0.63 0.63 0.0 0 1 32.77 90.19
  L 21.46 90.19
  A 0.60 0.60 0.0 0 1 20.86 89.59
  Z"
/>
<path fill="#612e7f" d="
  M 74.94 84.83
  A 0.27 0.27 0.0 0 0 74.45 84.66
  Q 71.69 88.21 68.08 89.29
  C 58.07 92.30 49.12 86.92 46.17 77.04
  C 42.36 64.29 48.53 48.17 64.07 49.16
  C 67.20 49.36 70.05 50.28 72.36 52.38
  Q 74.17 54.03 74.38 54.22
  A 0.32 0.32 0.0 0 0 74.91 53.98
  L 74.91 37.29
  A 0.61 0.61 0.0 0 1 75.52 36.68
  L 86.68 36.68
  A 0.61 0.61 0.0 0 1 87.29 37.29
  L 87.29 89.19
  A 0.40 0.40 0.0 0 1 86.89 89.59
  L 75.57 89.59
  A 0.63 0.63 0.0 0 1 74.94 88.96
  L 74.94 84.83
  Z
  M 66.1534 59.8010
  A 9.78 8.67 -90.8 0 0 57.6208 69.7011
  A 9.78 8.67 -90.8 0 0 66.4266 79.3590
  A 9.78 8.67 -90.8 0 0 74.9592 69.4589
  A 9.78 8.67 -90.8 0 0 66.1534 59.8010
  Z"
/>
<circle fill="#f0833d" cx="105.32" cy="81.82" r="8.30"/>
<path fill="#ac4d28" fill-opacity="0.878" d="
  M 116.24 108.86
  Q 116.28 109.07 116.30 109.13
  A 0.31 0.30 -5.5 0 1 116.00 109.49
  Q 64.08 109.39 12.40 109.47
  Q 11.77 109.47 11.72 108.87
  L 116.24 108.86
  Z"
/>
</svg>