<?xml version="1.0" encoding="UTF-8" standalone="no"?>
<!DOCTYPE svg PUBLIC "-//W3C//DTD SVG 1.1//EN" "http://www.w3.org/Graphics/SVG/1.1/DTD/svg11.dtd">
<svg xmlns="http://www.w3.org/2000/svg" version="1.1" viewBox="0.00 0.00 192.00 192.00" width="128" height="128">
<g stroke-width="2.00" fill="none" stroke-linecap="butt">
<path stroke="#808080" vector-effect="non-scaling-stroke" d="
  M 37.55 20.87
  A 0.38 0.38 0.0 0 0 37.17 21.25
  L 37.17 86.68
  A 0.38 0.38 0.0 0 0 37.55 87.06
  L 44.44 87.06
  A 0.38 0.38 0.0 0 0 44.82 86.68
  L 44.82 57.21
  A 0.38 0.38 0.0 0 1 45.20 56.83
  L 78.17 56.83
  A 0.38 0.38 0.0 0 0 78.55 56.45
  L 78.55 49.58
  A 0.38 0.38 0.0 0 0 78.17 49.20
  L 45.20 49.20
  A 0.38 0.38 0.0 0 1 44.82 48.82
  L 44.82 28.72
  A 0.38 0.38 0.0 0 1 45.20 28.34
  L 82.42 28.34
  A 0.38 0.38 0.0 0 0 82.80 27.96
  L 82.80 21.25
  A 0.38 0.38 0.0 0 0 82.42 20.87
  L 37.55 20.87"
/>
<path stroke="#808080" vector-effect="non-scaling-stroke" d="
  M 42.74 150.14
  L 36.01 151.61
  A 0.29 0.28 -11.5 0 0 35.79 151.94
  Q 38.53 168.23 54.04 171.50
  C 67.98 174.45 87.36 168.99 85.37 150.78
  C 84.57 143.47 78.45 138.41 72.08 135.91
  Q 67.05 133.93 56.19 130.09
  C 52.07 128.63 46.64 125.66 45.68 121.05
  C 44.86 117.09 47.48 113.37 51.02 112.00
  Q 57.45 109.49 64.92 110.89
  Q 74.12 112.62 76.43 122.26
  A 0.26 0.25 -13.2 0 0 76.73 122.44
  L 83.68 120.92
  A 0.25 0.25 0.0 0 0 83.87 120.62
  Q 80.46 105.54 65.78 103.31
  C 56.81 101.94 44.46 103.49 39.84 112.03
  Q 36.82 117.61 38.26 124.25
  C 40.76 135.81 57.03 138.60 66.18 142.06
  C 71.09 143.92 76.83 146.82 77.56 152.40
  C 78.24 157.55 73.80 161.84 69.28 163.29
  Q 62.04 165.60 54.51 163.60
  Q 45.59 161.22 43.20 150.44
  A 0.39 0.39 0.0 0 0 42.74 150.14"
/>
<path stroke="#808080" vector-effect="non-scaling-stroke" d="
  M 158.33 170.31
  A 0.28 0.28 0.0 0 0 158.33 169.91
  L 151.25 162.83
  A 0.77 0.76 41.3 0 1 151.18 161.84
  Q 161.38 148.17 158.97 131.88
  C 156.41 114.60 144.21 102.63 126.50 102.89
  C 83.32 103.55 84.01 173.55 128.28 172.25
  Q 136.93 172.00 144.45 167.51
  A 0.64 0.63 52.0 0 1 145.22 167.61
  L 152.91 175.29
  A 0.30 0.30 0.0 0 0 153.35 175.29
  L 158.33 170.31"
/>
<path stroke="#808080" vector-effect="non-scaling-stroke" d="
  M 138.41 161.13
  L 131.81 154.53
  A 0.41 0.41 0.0 0 1 131.81 153.95
  L 136.45 149.31
  A 0.66 0.66 0.0 0 1 137.39 149.31
  L 144.29 156.21
  A 0.80 0.80 0.0 0 0 145.52 156.09
  Q 154.20 143.10 149.78 127.89
  C 145.96 114.77 134.16 108.24 120.88 111.28
  C 105.16 114.88 100.30 133.75 104.20 146.87
  C 108.44 161.08 121.26 167.78 135.48 163.27
  Q 137.20 162.72 138.35 161.90
  A 0.50 0.50 0.0 0 0 138.41 161.13"
/>
</g>
<path fill="#000000" d="
  M 192.00 0.00
  L 192.00 192.00
  L 0.00 192.00
  L 0.00 0.00
  L 192.00 0.00
  Z
  M 37.55 20.87
  A 0.38 0.38 0.0 0 0 37.17 21.25
  L 37.17 86.68
  A 0.38 0.38 0.0 0 0 37.55 87.06
  L 44.44 87.06
  A 0.38 0.38 0.0 0 0 44.82 86.68
  L 44.82 57.21
  A 0.38 0.38 0.0 0 1 45.20 56.83
  L 78.17 56.83
  A 0.38 0.38 0.0 0 0 78.55 56.45
  L 78.55 49.58
  A 0.38 0.38 0.0 0 0 78.17 49.20
  L 45.20 49.20
  A 0.38 0.38 0.0 0 1 44.82 48.82
  L 44.82 28.72
  A 0.38 0.38 0.0 0 1 45.20 28.34
  L 82.42 28.34
  A 0.38 0.38 0.0 0 0 82.80 27.96
  L 82.80 21.25
  A 0.38 0.38 0.0 0 0 82.42 20.87
  L 37.55 20.87
  Z
  M 42.74 150.14
  L 36.01 151.61
  A 0.29 0.28 -11.5 0 0 35.79 151.94
  Q 38.53 168.23 54.04 171.50
  C 67.98 174.45 87.36 168.99 85.37 150.78
  C 84.57 143.47 78.45 138.41 72.08 135.91
  Q 67.05 133.93 56.19 130.09
  C 52.07 128.63 46.64 125.66 45.68 121.05
  C 44.86 117.09 47.48 113.37 51.02 112.00
  Q 57.45 109.49 64.92 110.89
  Q 74.12 112.62 76.43 122.26
  A 0.26 0.25 -13.2 0 0 76.73 122.44
  L 83.68 120.92
  A 0.25 0.25 0.0 0 0 83.87 120.62
  Q 80.46 105.54 65.78 103.31
  C 56.81 101.94 44.46 103.49 39.84 112.03
  Q 36.82 117.61 38.26 124.25
  C 40.76 135.81 57.03 138.60 66.18 142.06
  C 71.09 143.92 76.83 146.82 77.56 152.40
  C 78.24 157.55 73.80 161.84 69.28 163.29
  Q 62.04 165.60 54.51 163.60
  Q 45.59 161.22 43.20 150.44
  A 0.39 0.39 0.0 0 0 42.74 150.14
  Z
  M 158.33 170.31
  A 0.28 0.28 0.0 0 0 158.33 169.91
  L 151.25 162.83
  A 0.77 0.76 41.3 0 1 151.18 161.84
  Q 161.38 148.17 158.97 131.88
  C 156.41 114.60 144.21 102.63 126.50 102.89
  C 83.32 103.55 84.01 173.55 128.28 172.25
  Q 136.93 172.00 144.45 167.51
  A 0.64 0.63 52.0 0 1 145.22 167.61
  L 152.91 175.29
  A 0.30 0.30 0.0 0 0 153.35 175.29
  L 158.33 170.31
  Z"
/>
<path fill="#ffffff" d="
  M 37.55 20.87
  L 82.42 20.87
  A 0.38 0.38 0.0 0 1 82.80 21.25
  L 82.80 27.96
  A 0.38 0.38 0.0 0 1 82.42 28.34
  L 45.20 28.34
  A 0.38 0.38 0.0 0 0 44.82 28.72
  L 44.82 48.82
  A 0.38 0.38 0.0 0 0 45.20 49.20
  L 78.17 49.20
  A 0.38 0.38 0.0 0 1 78.55 49.58
  L 78.55 56.45
  A 0.38 0.38 0.0 0 1 78.17 56.83
  L 45.20 56.83
  A 0.38 0.38 0.0 0 0 44.82 57.21
  L 44.82 86.68
  A 0.38 0.38 0.0 0 1 44.44 87.06
  L 37.55 87.06
  A 0.38 0.38 0.0 0 1 37.17 86.68
  L 37.17 21.25
  A 0.38 0.38 0.0 0 1 37.55 20.87
  Z"
/>
<path fill="#ffffff" d="
  M 42.74 150.14
  A 0.39 0.39 0.0 0 1 43.20 150.44
  Q 45.59 161.22 54.51 163.60
  Q 62.04 165.60 69.28 163.29
  C 73.80 161.84 78.24 157.55 77.56 152.40
  C 76.83 146.82 71.09 143.92 66.18 142.06
  C 57.03 138.60 40.76 135.81 38.26 124.25
  Q 36.82 117.61 39.84 112.03
  C 44.46 103.49 56.81 101.94 65.78 103.31
  Q 80.46 105.54 83.87 120.62
  A 0.25 0.25 0.0 0 1 83.68 120.92
  L 76.73 122.44
  A 0.26 0.25 -13.2 0 1 76.43 122.26
  Q 74.12 112.62 64.92 110.89
  Q 57.45 109.49 51.02 112.00
  C 47.48 113.37 44.86 117.09 45.68 121.05
  C 46.64 125.66 52.07 128.63 56.19 130.09
  Q 67.05 133.93 72.08 135.91
  C 78.45 138.41 84.57 143.47 85.37 150.78
  C 87.36 168.99 67.98 174.45 54.04 171.50
  Q 38.53 168.23 35.79 151.94
  A 0.29 0.28 -11.5 0 1 36.01 151.61
  L 42.74 150.14
  Z"
/>
<path fill="#ffffff" d="
  M 152.91 175.29
  L 145.22 167.61
  A 0.64 0.63 52.0 0 0 144.45 167.51
  Q 136.93 172.00 128.28 172.25
  C 84.01 173.55 83.32 103.55 126.50 102.89
  C 144.21 102.63 156.41 114.60 158.97 131.88
  Q 161.38 148.17 151.18 161.84
  A 0.77 0.76 41.3 0 0 151.25 162.83
  L 158.33 169.91
  A 0.28 0.28 0.0 0 1 158.33 170.31
  L 153.35 175.29
  A 0.30 0.30 0.0 0 1 152.91 175.29
  Z
  M 138.41 161.13
  L 131.81 154.53
  A 0.41 0.41 0.0 0 1 131.81 153.95
  L 136.45 149.31
  A 0.66 0.66 0.0 0 1 137.39 149.31
  L 144.29 156.21
  A 0.80 0.80 0.0 0 0 145.52 156.09
  Q 154.20 143.10 149.78 127.89
  C 145.96 114.77 134.16 108.24 120.88 111.28
  C 105.16 114.88 100.30 133.75 104.20 146.87
  C 108.44 161.08 121.26 167.78 135.48 163.27
  Q 137.20 162.72 138.35 161.90
  A 0.50 0.50 0.0 0 0 138.41 161.13
  Z"
/>
<path fill="#000000" d="
  M 138.35 161.90
  Q 137.20 162.72 135.48 163.27
  C 121.26 167.78 108.44 161.08 104.20 146.87
  C 100.30 133.75 105.16 114.88 120.88 111.28
  C 134.16 108.24 145.96 114.77 149.78 127.89
  Q 154.20 143.10 145.52 156.09
  A 0.80 0.80 0.0 0 1 144.29 156.21
  L 137.39 149.31
  A 0.66 0.66 0.0 0 0 136.45 149.31
  L 131.81 153.95
  A 0.41 0.41 0.0 0 0 131.81 154.53
  L 138.41 161.13
  A 0.50 0.50 0.0 0 1 138.35 161.90
  Z"
/>
</svg>