<?xml version="1.0" encoding="UTF-8" standalone="no"?>
<!DOCTYPE svg PUBLIC "-//W3C//DTD SVG 1.1//EN" "http://www.w3.org/Graphics/SVG/1.1/DTD/svg11.dtd">
<svg xmlns="http://www.w3.org/2000/svg" version="1.1" viewBox="0.00 0.00 256.00 256.00" width="128" height="128">
<g stroke-width="2.00" fill="none" stroke-linecap="butt">
<path stroke="#623ef5" stroke-opacity="0.749" vector-effect="non-scaling-stroke" d="
  M 108.68 23.12
  L 101.93 23.15
  A 0.96 0.95 -27.9 0 1 101.40 22.99
  Q 101.26 22.89 101.08 22.76"
/>
<path stroke="#623ef5" stroke-opacity="0.816" vector-effect="non-scaling-stroke" d="
  M 139.59 23.49
  Q 139.60 25.06 140.32 26.10
  A 1.74 1.71 -61.9 0 1 140.63 27.15
  Q 140.60 27.80 140.86 28.53
  A 0.95 0.95 0.0 0 0 141.63 29.16
  C 143.79 29.45 144.90 30.89 147.36 30.63"
/>
<path stroke="#623ef4" stroke-opacity="0.565" vector-effect="non-scaling-stroke" d="
  M 147.36 30.63
  L 154.79 30.91"
/>
<path stroke="#623ef5" stroke-opacity="0.816" vector-effect="non-scaling-stroke" d="
  M 155.25 31.12
  Q 154.92 33.99 155.51 36.84
  A 0.79 0.79 0.0 0 0 156.22 37.47
  L 160.99 37.84
  A 0.94 0.90 26.9 0 0 161.61 37.65
  L 162.82 36.72"
/>
<path stroke="#623ef4" stroke-opacity="0.565" vector-effect="non-scaling-stroke" d="
  M 162.82 36.72
  L 163.60 37.95
  A 1.04 1.03 -13.4 0 0 164.37 38.42
  L 170.46 39.01"
/>
<path stroke="#623ef5" stroke-opacity="0.816" vector-effect="non-scaling-stroke" d="
  M 170.46 39.01
  L 170.63 40.23"
/>
<path stroke="#623ef4" stroke-opacity="0.925" vector-effect="non-scaling-stroke" d="
  M 170.63 40.23
  L 170.71 44.87
  A 0.56 0.56 0.0 0 0 171.23 45.42
  L 181.83 46.07"
/>
<path stroke="#623ef5" stroke-opacity="0.816" vector-effect="non-scaling-stroke" d="
  M 185.31 47.20
  L 186.77 52.88
  A 0.70 0.69 -5.8 0 0 187.40 53.39
  L 198.54 54.12"
/>
<path stroke="#623ef4" stroke-opacity="0.627" vector-effect="non-scaling-stroke" d="
  M 198.54 54.12
  L 200.77 54.36"
/>
<path stroke="#623ef4" stroke-opacity="0.925" vector-effect="non-scaling-stroke" d="
  M 200.77 54.36
  Q 204.61 60.64 212.26 61.58"
/>
<path stroke="#623ef4" stroke-opacity="0.627" vector-effect="non-scaling-stroke" d="
  M 212.26 61.58
  Q 214.35 62.19 216.73 61.97"
/>
<path stroke="#623ef4" stroke-opacity="0.925" vector-effect="non-scaling-stroke" d="
  M 216.73 61.97
  C 218.87 68.13 224.96 69.00 230.53 69.37"
/>
<path stroke="#623ef4" stroke-opacity="0.627" vector-effect="non-scaling-stroke" d="
  M 230.53 69.37
  Q 232.07 69.89 233.77 69.73"
/>
<path stroke="#623ef4" stroke-opacity="0.565" vector-effect="non-scaling-stroke" d="
  M 248.02 104.53
  L 247.39 107.28
  A 1.19 1.18 87.4 0 1 246.61 108.14
  L 242.87 109.43
  A 1.26 1.25 -86.5 0 0 242.12 110.10
  Q 240.44 113.70 238.25 115.75"
/>
<path stroke="#623ef4" stroke-opacity="0.565" vector-effect="non-scaling-stroke" d="
  M 233.97 116.53
  L 228.31 117.54
  A 0.12 0.12 0.0 0 0 228.26 117.75
  Q 228.37 117.83 228.51 117.85
  A 0.02 0.01 46.6 0 1 228.51 117.88
  Q 228.49 117.88 228.21 117.88
  A 0.60 0.59 -86.1 0 0 227.62 118.40
  Q 227.40 120.13 226.59 119.85
  Q 225.57 119.49 224.49 120.87
  A 0.04 0.04 0.0 0 0 224.51 120.94
  Q 224.67 120.99 224.84 120.96
  A 0.05 0.05 0.0 0 1 224.87 121.05
  Q 224.43 121.27 224.30 121.58
  A 0.43 0.42 27.6 0 1 223.67 121.77
  Q 223.56 121.70 223.38 121.62
  A 0.35 0.34 11.5 0 0 222.90 121.93
  L 222.90 122.34
  A 0.40 0.40 0.0 0 1 222.68 122.70
  Q 220.73 123.68 219.02 123.68
  C 216.70 123.69 214.30 124.18 211.98 124.48"
/>
<path stroke="#623ef4" stroke-opacity="0.969" vector-effect="non-scaling-stroke" d="
  M 211.98 124.48
  L 195.31 125.32
  A 0.90 0.90 0.0 0 0 194.48 125.99
  L 193.00 131.86"
/>
<path stroke="#623ef4" stroke-opacity="0.565" vector-effect="non-scaling-stroke" d="
  M 193.00 131.86
  L 184.53 131.79"
/>
<path stroke="#623ef4" stroke-opacity="0.969" vector-effect="non-scaling-stroke" d="
  M 184.53 131.79
  L 185.84 125.51
  A 1.15 1.15 0.0 0 0 184.87 124.13
  L 178.38 123.25"
/>
<path stroke="#623ef5" stroke-opacity="0.690" vector-effect="non-scaling-stroke" d="
  M 178.38 123.25
  L 178.45 116.74"
/>
<path stroke="#623ef4" stroke-opacity="0.969" vector-effect="non-scaling-stroke" d="
  M 178.45 116.74
  Q 185.54 115.72 186.71 108.58"
/>
<path stroke="#623ef5" stroke-opacity="0.749" vector-effect="non-scaling-stroke" d="
  M 186.71 108.58
  L 194.24 108.42"
/>
<path stroke="#623ef4" stroke-opacity="0.925" vector-effect="non-scaling-stroke" d="
  M 194.24 108.42
  Q 199.38 105.99 202.00 101.00"
/>
<path stroke="#623ef4" stroke-opacity="0.627" vector-effect="non-scaling-stroke" d="
  M 202.00 101.00
  L 208.97 100.71"
/>
<path stroke="#623ef5" stroke-opacity="0.749" vector-effect="non-scaling-stroke" d="
  M 208.97 100.71
  L 209.65 100.70"
/>
<path stroke="#623ef5" stroke-opacity="0.816" vector-effect="non-scaling-stroke" d="
  M 209.65 100.70
  L 214.16 100.35
  A 0.90 0.89 88.0 0 0 214.99 99.45
  L 214.99 98.77
  A 0.72 0.72 0.0 0 1 215.72 98.05
  Q 215.99 98.05 216.13 98.00
  A 1.30 1.30 0.0 0 0 217.00 96.61
  L 216.03 88.23
  A 1.83 1.83 0.0 0 0 214.16 86.62
  L 210.71 86.72"
/>
<path stroke="#623ef5" stroke-opacity="0.749" vector-effect="non-scaling-stroke" d="
  M 210.71 86.72
  L 209.73 86.71"
/>
<path stroke="#623ef4" stroke-opacity="0.565" vector-effect="non-scaling-stroke" d="
  M 209.73 86.71
  Q 205.84 84.95 201.37 85.25"
/>
<path stroke="#623ef5" stroke-opacity="0.816" vector-effect="non-scaling-stroke" d="
  M 201.37 85.25
  Q 201.84 82.64 200.71 80.10
  A 0.64 0.64 0.0 0 1 200.79 79.47
  Q 201.17 78.95 200.51 78.43
  A 1.05 1.02 -29.2 0 0 199.76 78.23
  Q 197.26 78.55 194.98 77.87
  A 0.57 0.55 -59.9 0 0 194.41 78.03
  L 194.21 78.25"
/>
<path stroke="#623ef4" stroke-opacity="0.565" vector-effect="non-scaling-stroke" d="
  M 194.21 78.25
  Q 194.12 77.87 193.66 77.80
  Q 190.05 77.25 186.53 77.74"
/>
<path stroke="#623ef5" stroke-opacity="0.816" vector-effect="non-scaling-stroke" d="
  M 185.82 77.41
  Q 186.60 74.05 185.89 70.82
  A 0.86 0.85 -6.0 0 0 185.07 70.16
  L 178.75 70.02"
/>
<path stroke="#623ef4" stroke-opacity="0.565" vector-effect="non-scaling-stroke" d="
  M 178.75 70.02
  L 170.48 69.86"
/>
<path stroke="#623ef5" stroke-opacity="0.816" vector-effect="non-scaling-stroke" d="
  M 170.48 69.86
  L 170.45 62.82
  A 0.56 0.56 0.0 0 0 169.89 62.26
  L 163.29 62.17"
/>
<path stroke="#623ef4" stroke-opacity="0.627" vector-effect="non-scaling-stroke" d="
  M 163.29 62.17
  L 155.31 62.04"
/>
<path stroke="#623ef4" stroke-opacity="0.925" vector-effect="non-scaling-stroke" d="
  M 154.79 61.90
  Q 155.49 58.87 154.70 55.15
  A 0.79 0.78 -5.2 0 0 153.96 54.54
  L 148.00 54.39"
/>
<path stroke="#623ef4" stroke-opacity="0.627" vector-effect="non-scaling-stroke" d="
  M 148.00 54.39
  L 139.78 54.20"
/>
<path stroke="#623ef4" stroke-opacity="0.925" vector-effect="non-scaling-stroke" d="
  M 139.78 54.20
  L 139.63 47.76
  A 1.15 1.15 0.0 0 0 138.47 46.64
  L 132.18 46.71"
/>
<path stroke="#623ef5" stroke-opacity="0.690" vector-effect="non-scaling-stroke" d="
  M 132.18 46.71
  L 124.91 46.57"
/>
<path stroke="#623ef4" stroke-opacity="0.627" vector-effect="non-scaling-stroke" d="
  M 124.91 46.57
  L 123.79 46.42"
/>
<path stroke="#623ef4" stroke-opacity="0.969" vector-effect="non-scaling-stroke" d="
  M 123.79 46.42
  L 123.90 39.91
  A 1.11 1.11 0.0 0 0 122.79 38.78
  L 117.59 38.78
  A 1.14 1.14 0.0 0 0 116.45 39.91
  L 116.40 46.44"
/>
<path stroke="#623ef4" stroke-opacity="0.627" vector-effect="non-scaling-stroke" d="
  M 116.40 46.44
  L 116.39 147.21"
/>
<path stroke="#623ef4" stroke-opacity="0.565" vector-effect="non-scaling-stroke" d="
  M 116.39 147.21
  L 115.97 155.07"
/>
<path stroke="#623ef4" stroke-opacity="0.627" vector-effect="non-scaling-stroke" d="
  M 115.97 155.07
  L 108.20 155.20"
/>
<path stroke="#623ef5" stroke-opacity="0.749" vector-effect="non-scaling-stroke" d="
  M 108.20 155.20
  L 102.01 155.11"
/>
<path stroke="#623ef4" stroke-opacity="0.969" vector-effect="non-scaling-stroke" d="
  M 102.01 155.11
  L 100.51 147.97
  A 0.62 0.60 -5.8 0 0 99.91 147.49
  L 93.14 147.57"
/>
<path stroke="#623ef4" stroke-opacity="0.565" vector-effect="non-scaling-stroke" d="
  M 93.14 147.57
  L 93.13 38.74"
/>
<path stroke="#623ef5" stroke-opacity="0.749" vector-effect="non-scaling-stroke" d="
  M 93.20 30.88
  L 100.19 30.91
  A 0.55 0.55 0.0 0 0 100.74 30.36
  L 100.74 23.32"
/>
<path stroke="#623ef4" stroke-opacity="0.925" vector-effect="non-scaling-stroke" d="
  M 128.09 22.51
  Q 123.75 21.97 119.85 23.10
  A 2.83 2.81 37.1 0 1 118.97 23.22
  L 108.68 23.12"
/>
<path stroke="#5a39e1" stroke-opacity="0.545" vector-effect="non-scaling-stroke" d="
  M 139.59 23.49
  L 133.23 22.77"
/>
<path stroke="#623ef5" stroke-opacity="0.816" vector-effect="non-scaling-stroke" d="
  M 133.23 22.77
  L 128.09 22.51"
/>
<path stroke="#010101" stroke-opacity="0.627" vector-effect="non-scaling-stroke" d="
  M 155.24 100.99
  L 139.81 100.98
  A 0.22 0.21 24.3 0 0 139.67 101.03
  Q 139.50 101.18 139.50 101.48"
/>
<path stroke="#000000" stroke-opacity="0.722" vector-effect="non-scaling-stroke" d="
  M 139.50 101.48
  L 139.30 109.02"
/>
<path stroke="#000000" stroke-opacity="0.722" vector-effect="non-scaling-stroke" d="
  M 155.24 100.99
  L 155.33 109.46"
/>
<path stroke="#000000" stroke-opacity="0.875" vector-effect="non-scaling-stroke" d="
  M 155.33 109.46
  Q 154.79 122.48 156.00 135.37"
/>
<path stroke="#000000" stroke-opacity="0.945" vector-effect="non-scaling-stroke" d="
  M 156.00 135.37
  Q 156.49 146.17 157.35 149.59
  C 160.36 161.53 159.49 172.25 159.84 183.80
  Q 160.00 189.13 162.50 192.52"
/>
<path stroke="#000000" stroke-opacity="0.945" vector-effect="non-scaling-stroke" d="
  M 162.34 210.58
  Q 157.62 218.29 156.07 227.80"
/>
<path stroke="#010101" stroke-opacity="0.627" vector-effect="non-scaling-stroke" d="
  M 156.07 227.80
  L 154.78 232.81"
/>
<path stroke="#000000" stroke-opacity="0.722" vector-effect="non-scaling-stroke" d="
  M 154.78 232.81
  L 149.10 233.98
  A 0.97 0.95 -83.8 0 0 148.41 234.55
  Q 147.38 237.06 147.59 240.11"
/>
<path stroke="#000000" stroke-opacity="0.545" vector-effect="non-scaling-stroke" d="
  M 147.59 240.11
  L 132.23 240.51"
/>
<path stroke="#000000" stroke-opacity="0.816" vector-effect="non-scaling-stroke" d="
  M 107.90 232.01
  Q 104.72 227.79 99.48 225.25"
/>
<path stroke="#000000" stroke-opacity="0.545" vector-effect="non-scaling-stroke" d="
  M 99.48 225.25
  L 93.28 224.97"
/>
<path stroke="#000000" stroke-opacity="0.816" vector-effect="non-scaling-stroke" d="
  M 93.28 224.97
  L 92.36 218.73
  A 0.63 0.62 87.7 0 0 91.78 218.19
  L 85.23 217.83"
/>
<path stroke="#000000" stroke-opacity="0.545" vector-effect="non-scaling-stroke" d="
  M 85.23 217.83
  L 77.34 217.11"
/>
<path stroke="#000000" stroke-opacity="0.816" vector-effect="non-scaling-stroke" d="
  M 77.34 217.11
  Q 77.72 213.85 76.51 210.71
  A 0.96 0.96 0.0 0 0 75.27 210.15
  Q 72.28 211.29 69.54 210.28"
/>
<path stroke="#000000" stroke-opacity="0.816" vector-effect="non-scaling-stroke" d="
  M 61.33 209.26
  Q 61.81 206.20 61.02 203.36
  A 0.74 0.73 -5.7 0 0 60.37 202.83
  Q 57.68 202.65 55.21 203.31"
/>
<path stroke="#000000" stroke-opacity="0.816" vector-effect="non-scaling-stroke" d="
  M 45.70 201.80
  Q 46.98 199.03 46.00 196.85
  Q 45.40 195.52 43.61 195.09
  Q 42.05 194.72 40.48 194.62"
/>
<path stroke="#010101" stroke-opacity="0.627" vector-effect="non-scaling-stroke" d="
  M 40.48 194.62
  L 31.48 194.15"
/>
<path stroke="#000000" stroke-opacity="0.945" vector-effect="non-scaling-stroke" d="
  M 29.94 193.69
  C 29.78 189.95 26.81 188.73 23.35 188.57"
/>
<path stroke="#000000" stroke-opacity="0.545" vector-effect="non-scaling-stroke" d="
  M 23.35 188.57
  L 23.49 187.40
  A 1.04 1.03 3.7 0 0 22.47 186.24
  L 16.45 186.20"
/>
<path stroke="#010101" stroke-opacity="0.627" vector-effect="non-scaling-stroke" d="
  M 7.19 177.31
  Q 7.39 173.48 5.92 170.40
  A 1.12 1.11 -47.4 0 0 3.87 170.50
  Q 3.51 171.43 2.43 170.80
  A 0.93 0.93 0.0 0 0 1.24 171.02
  Q 1.00 171.32 1.23 171.67
  A 0.49 0.48 52.7 0 1 1.15 172.28
  L 0.48 172.94"
/>
<path stroke="#000000" stroke-opacity="0.722" vector-effect="non-scaling-stroke" d="
  M 70.13 124.28
  L 69.94 130.95
  A 0.66 0.65 -83.7 0 0 70.46 131.61
  Q 73.19 132.15 77.00 131.49"
/>
<path stroke="#000000" stroke-opacity="0.945" vector-effect="non-scaling-stroke" d="
  M 77.46 139.73
  Q 74.46 139.41 72.10 141.94
  A 2.40 2.40 0.0 0 0 71.85 144.90
  Q 72.90 146.49 75.52 147.25"
/>
<path stroke="#000000" stroke-opacity="0.545" vector-effect="non-scaling-stroke" d="
  M 75.52 147.25
  L 69.65 147.48"
/>
<path stroke="#000000" stroke-opacity="0.722" vector-effect="non-scaling-stroke" d="
  M 69.65 147.48
  L 67.98 147.86
  A 0.90 0.89 1.0 0 0 67.31 148.50
  Q 66.90 150.05 65.64 151.24
  A 0.21 0.20 -44.0 0 1 65.35 151.24
  L 65.34 151.23
  A 0.31 0.29 -43.2 0 1 65.36 150.91
  L 66.91 148.60
  A 0.22 0.22 0.0 0 0 66.73 148.26
  L 66.32 148.26
  A 0.33 0.32 10.7 0 0 66.02 148.46
  Q 65.76 149.17 64.95 150.06
  A 0.14 0.14 0.0 0 1 64.71 149.96
  L 64.71 148.85
  A 0.23 0.23 0.0 0 0 64.35 148.66
  L 63.87 149.00
  A 1.21 1.17 -14.9 0 0 63.44 149.71
  Q 62.77 153.27 59.71 155.13"
/>
<path stroke="#000000" stroke-opacity="0.545" vector-effect="non-scaling-stroke" d="
  M 59.71 155.13
  Q 55.46 154.77 51.31 156.03"
/>
<path stroke="#000000" stroke-opacity="0.816" vector-effect="non-scaling-stroke" d="
  M 47.74 171.20
  L 48.14 174.52
  A 2.00 1.99 -86.3 0 0 49.61 176.20
  L 56.06 177.88"
/>
<path stroke="#000000" stroke-opacity="0.875" vector-effect="non-scaling-stroke" d="
  M 57.48 178.03
  Q 60.13 179.21 64.33 182.08
  Q 66.60 183.63 70.07 183.42"
/>
<path stroke="#010101" stroke-opacity="0.627" vector-effect="non-scaling-stroke" d="
  M 70.07 183.42
  L 69.82 184.24
  A 0.63 0.63 0.0 0 0 70.14 184.98
  Q 73.07 186.50 76.69 186.02"
/>
<path stroke="#000000" stroke-opacity="0.875" vector-effect="non-scaling-stroke" d="
  M 76.69 186.02
  L 79.19 190.95
  A 1.17 1.17 0.0 0 0 79.87 191.53
  L 84.47 192.99"
/>
<path stroke="#010101" stroke-opacity="0.627" vector-effect="non-scaling-stroke" d="
  M 84.47 192.99
  Q 88.38 194.38 92.75 193.97"
/>
<path stroke="#000000" stroke-opacity="0.945" vector-effect="non-scaling-stroke" d="
  M 92.75 193.97
  Q 95.52 198.52 101.49 199.63"
/>
<path stroke="#000000" stroke-opacity="0.722" vector-effect="non-scaling-stroke" d="
  M 101.49 199.63
  Q 101.41 200.13 101.49 200.58
  A 0.67 0.66 -2.1 0 0 102.10 201.14
  L 107.96 201.58"
/>
<path stroke="#000000" stroke-opacity="0.875" vector-effect="non-scaling-stroke" d="
  M 132.85 196.90
  Q 133.14 188.63 134.82 180.74
  C 135.82 176.05 136.01 172.26 136.50 167.46
  C 136.92 163.36 138.85 157.36 139.02 153.50
  Q 139.62 140.08 139.40 113.51
  Q 139.38 111.47 139.30 109.02"
/>
</g>
<path fill="#623ef7" fill-opacity="0.498" d="
  M 108.56 15.51
  L 108.68 23.12
  L 101.93 23.15
  A 0.96 0.95 -27.9 0 1 101.40 22.99
  Q 101.26 22.89 101.08 22.76
  L 100.97 16.01
  A 0.52 0.52 0.0 0 1 101.49 15.49
  L 108.56 15.51
  Z"
/>
<path fill="#633ff5" fill-opacity="0.851" d="
  M 124.18 15.61
  L 124.38 20.62
  A 0.77 0.77 0.0 0 0 124.88 21.31
  L 128.09 22.51
  Q 123.75 21.97 119.85 23.10
  A 2.83 2.81 37.1 0 1 118.97 23.22
  L 108.68 23.12
  L 108.56 15.51
  L 124.18 15.61
  Z"
/>
<path fill="#613ef6" fill-opacity="0.627" d="
  M 127.51 15.90
  Q 130.57 16.00 131.81 18.34
  A 0.61 0.60 80.3 0 0 132.23 18.64
  Q 132.72 18.72 133.03 19.24
  A 0.07 0.07 0.0 0 1 132.92 19.33
  Q 132.78 19.22 132.72 19.18
  A 0.24 0.22 10.7 0 0 132.36 19.41
  L 133.23 22.77
  L 128.09 22.51
  L 124.88 21.31
  A 0.77 0.77 0.0 0 1 124.38 20.62
  L 124.18 15.61
  L 127.51 15.90
  Z"
/>
<path fill="#000000" fill-opacity="0.086" d="
  M 140.24 23.41
  Q 139.88 23.53 139.59 23.49
  L 133.23 22.77
  L 132.36 19.41
  A 0.24 0.22 10.7 0 1 132.72 19.18
  Q 132.78 19.22 132.92 19.33
  A 0.07 0.07 0.0 0 0 133.03 19.24
  Q 132.72 18.72 132.23 18.64
  A 0.61 0.60 80.3 0 1 131.81 18.34
  Q 130.57 16.00 127.51 15.90
  Q 130.26 16.14 132.93 16.82
  Q 133.16 16.87 135.49 17.13
  C 138.23 17.43 139.80 20.86 140.24 23.41
  Z"
/>
<path fill="#623ef4" d="
  M 128.09 22.51
  L 133.23 22.77
  L 139.59 23.49
  Q 139.60 25.06 140.32 26.10
  A 1.74 1.71 -61.9 0 1 140.63 27.15
  Q 140.60 27.80 140.86 28.53
  A 0.95 0.95 0.0 0 0 141.63 29.16
  C 143.79 29.45 144.90 30.89 147.36 30.63
  L 154.79 30.91
  L 155.25 31.12
  Q 154.92 33.99 155.51 36.84
  A 0.79 0.79 0.0 0 0 156.22 37.47
  L 160.99 37.84
  A 0.94 0.90 26.9 0 0 161.61 37.65
  L 162.82 36.72
  L 163.60 37.95
  A 1.04 1.03 -13.4 0 0 164.37 38.42
  L 170.46 39.01
  L 170.63 40.23
  L 170.71 44.87
  A 0.56 0.56 0.0 0 0 171.23 45.42
  L 181.83 46.07
  L 185.31 47.20
  L 186.77 52.88
  A 0.70 0.69 -5.8 0 0 187.40 53.39
  L 198.54 54.12
  L 200.77 54.36
  Q 204.61 60.64 212.26 61.58
  Q 214.35 62.19 216.73 61.97
  C 218.87 68.13 224.96 69.00 230.53 69.37
  Q 232.07 69.89 233.77 69.73
  L 239.06 70.00
  A 1.12 1.11 87.9 0 1 240.12 70.99
  L 240.66 75.59
  A 1.80 1.80 0.0 0 0 242.09 77.15
  L 246.24 78.00
  A 2.34 2.34 0.0 0 1 248.11 80.41
  Q 247.78 86.86 249.02 92.23
  A 0.74 0.67 -51.7 0 1 249.04 92.52
  L 248.02 104.53
  L 247.39 107.28
  A 1.19 1.18 87.4 0 1 246.61 108.14
  L 242.87 109.43
  A 1.26 1.25 -86.5 0 0 242.12 110.10
  Q 240.44 113.70 238.25 115.75
  Q 235.81 115.84 233.97 116.53
  L 228.31 117.54
  A 0.12 0.12 0.0 0 0 228.26 117.75
  Q 228.37 117.83 228.51 117.85
  A 0.02 0.01 46.6 0 1 228.51 117.88
  Q 228.49 117.88 228.21 117.88
  A 0.60 0.59 -86.1 0 0 227.62 118.40
  Q 227.40 120.13 226.59 119.85
  Q 225.57 119.49 224.49 120.87
  A 0.04 0.04 0.0 0 0 224.51 120.94
  Q 224.67 120.99 224.84 120.96
  A 0.05 0.05 0.0 0 1 224.87 121.05
  Q 224.43 121.27 224.30 121.58
  A 0.43 0.42 27.6 0 1 223.67 121.77
  Q 223.56 121.70 223.38 121.62
  A 0.35 0.34 11.5 0 0 222.90 121.93
  L 222.90 122.34
  A 0.40 0.40 0.0 0 1 222.68 122.70
  Q 220.73 123.68 219.02 123.68
  C 216.70 123.69 214.30 124.18 211.98 124.48
  L 195.31 125.32
  A 0.90 0.90 0.0 0 0 194.48 125.99
  L 193.00 131.86
  L 184.53 131.79
  L 185.84 125.51
  A 1.15 1.15 0.0 0 0 184.87 124.13
  L 178.38 123.25
  L 178.45 116.74
  Q 185.54 115.72 186.71 108.58
  L 194.24 108.42
  Q 199.38 105.99 202.00 101.00
  L 208.97 100.71
  L 209.65 100.70
  L 214.16 100.35
  A 0.90 0.89 88.0 0 0 214.99 99.45
  L 214.99 98.77
  A 0.72 0.72 0.0 0 1 215.72 98.05
  Q 215.99 98.05 216.13 98.00
  A 1.30 1.30 0.0 0 0 217.00 96.61
  L 216.03 88.23
  A 1.83 1.83 0.0 0 0 214.16 86.62
  L 210.71 86.72
  L 209.73 86.71
  Q 205.84 84.95 201.37 85.25
  Q 201.84 82.64 200.71 80.10
  A 0.64 0.64 0.0 0 1 200.79 79.47
  Q 201.17 78.95 200.51 78.43
  A 1.05 1.02 -29.2 0 0 199.76 78.23
  Q 197.26 78.55 194.98 77.87
  A 0.57 0.55 -59.9 0 0 194.41 78.03
  L 194.21 78.25
  Q 194.12 77.87 193.66 77.80
  Q 190.05 77.25 186.53 77.74
  L 185.82 77.41
  Q 186.60 74.05 185.89 70.82
  A 0.86 0.85 -6.0 0 0 185.07 70.16
  L 178.75 70.02
  L 170.48 69.86
  L 170.45 62.82
  A 0.56 0.56 0.0 0 0 169.89 62.26
  L 163.29 62.17
  L 155.31 62.04
  L 154.79 61.90
  Q 155.49 58.87 154.70 55.15
  A 0.79 0.78 -5.2 0 0 153.96 54.54
  L 148.00 54.39
  L 139.78 54.20
  L 139.63 47.76
  A 1.15 1.15 0.0 0 0 138.47 46.64
  L 132.18 46.71
  L 124.91 46.57
  L 123.79 46.42
  L 123.90 39.91
  A 1.11 1.11 0.0 0 0 122.79 38.78
  L 117.59 38.78
  A 1.14 1.14 0.0 0 0 116.45 39.91
  L 116.40 46.44
  L 116.39 147.21
  L 115.97 155.07
  L 108.20 155.20
  L 102.01 155.11
  L 100.51 147.97
  A 0.62 0.60 -5.8 0 0 99.91 147.49
  L 93.14 147.57
  L 93.13 38.74
  L 93.20 30.88
  L 100.19 30.91
  A 0.55 0.55 0.0 0 0 100.74 30.36
  L 100.74 23.32
  Q 101.00 23.09 101.08 22.76
  Q 101.26 22.89 101.40 22.99
  A 0.96 0.95 -27.9 0 0 101.93 23.15
  L 108.68 23.12
  L 118.97 23.22
  A 2.83 2.81 37.1 0 0 119.85 23.10
  Q 123.75 21.97 128.09 22.51
  Z"
/>
<path fill="#623ef7" fill-opacity="0.498" d="
  M 100.74 23.32
  L 100.74 30.36
  A 0.55 0.55 0.0 0 1 100.19 30.91
  L 93.20 30.88
  L 93.19 23.82
  A 0.52 0.52 0.0 0 1 93.71 23.30
  L 100.74 23.32
  Z"
/>
<path fill="#613ef6" fill-opacity="0.627" d="
  M 146.03 23.51
  Q 148.40 26.97 147.36 30.63
  C 144.90 30.89 143.79 29.45 141.63 29.16
  A 0.95 0.95 0.0 0 1 140.86 28.53
  Q 140.60 27.80 140.63 27.15
  A 1.74 1.71 -61.9 0 0 140.32 26.10
  Q 139.60 25.06 139.59 23.49
  Q 139.88 23.53 140.24 23.41
  L 146.03 23.51
  Z"
/>
<path fill="#5f40f6" fill-opacity="0.125" d="
  M 154.79 30.91
  L 147.36 30.63
  Q 148.40 26.97 146.03 23.51
  L 154.17 23.62
  A 0.72 0.72 0.0 0 1 154.88 24.35
  L 154.79 30.91
  Z"
/>
<path fill="#613ef6" fill-opacity="0.627" d="
  M 161.53 31.38
  Q 163.24 33.61 162.82 36.72
  L 161.61 37.65
  A 0.94 0.90 26.9 0 1 160.99 37.84
  L 156.22 37.47
  A 0.79 0.79 0.0 0 1 155.51 36.84
  Q 154.92 33.99 155.25 31.12
  L 161.53 31.38
  Z"
/>
<path fill="#5f40f6" fill-opacity="0.125" d="
  M 171.71 38.74
  L 170.46 39.01
  L 164.37 38.42
  A 1.04 1.03 -13.4 0 1 163.60 37.95
  L 162.82 36.72
  Q 163.24 33.61 161.53 31.38
  L 169.49 31.94
  A 0.69 0.68 -4.7 0 1 170.10 32.45
  L 171.71 38.74
  Z"
/>
<path fill="#5f40f6" fill-opacity="0.125" d="
  M 93.13 38.74
  L 93.14 147.57
  L 93.10 154.46
  A 0.52 0.52 0.0 0 0 93.59 154.99
  L 101.32 155.37
  L 100.86 162.65
  L 94.28 162.84
  A 1.23 1.22 89.1 0 1 93.02 161.61
  L 93.02 155.81
  A 0.85 0.85 0.0 0 0 92.17 154.96
  L 87.03 154.96
  A 1.68 1.68 0.0 0 1 85.35 153.28
  L 85.35 39.67
  A 0.97 0.97 0.0 0 1 86.33 38.70
  L 93.13 38.74
  Z"
/>
<path fill="#623ef5" fill-opacity="0.937" d="
  M 123.79 46.42
  L 116.40 46.44
  L 116.45 39.91
  A 1.14 1.14 0.0 0 1 117.59 38.78
  L 122.79 38.78
  A 1.11 1.11 0.0 0 1 123.90 39.91
  L 123.79 46.42
  Z"
/>
<path fill="#613ef6" fill-opacity="0.627" d="
  M 171.71 38.74
  Q 175.55 39.21 178.58 42.53
  Q 178.52 43.04 178.68 43.61
  A 0.37 0.37 0.0 0 1 178.33 44.08
  Q 173.49 44.12 170.63 40.23
  L 170.46 39.01
  L 171.71 38.74
  Z"
/>
<path fill="#633ff5" fill-opacity="0.851" d="
  M 178.58 42.53
  Q 179.37 43.34 179.37 44.18
  Q 179.38 45.56 181.83 46.07
  L 171.23 45.42
  A 0.56 0.56 0.0 0 1 170.71 44.87
  L 170.63 40.23
  Q 173.49 44.12 178.33 44.08
  A 0.37 0.37 0.0 0 0 178.68 43.61
  Q 178.52 43.04 178.58 42.53
  Z"
/>
<path fill="#6440f3" fill-opacity="0.251" d="
  M 123.79 46.42
  L 124.91 46.57
  L 124.18 54.41
  L 124.13 147.26
  L 116.39 147.21
  L 116.40 46.44
  L 123.79 46.42
  Z"
/>
<path fill="#613ff6" fill-opacity="0.376" d="
  M 132.18 46.71
  L 131.85 54.26
  L 124.18 54.41
  L 124.91 46.57
  L 132.18 46.71
  Z"
/>
<path fill="#633ff5" fill-opacity="0.851" d="
  M 139.78 54.20
  L 139.03 54.24
  L 131.85 54.26
  L 132.18 46.71
  L 138.47 46.64
  A 1.15 1.15 0.0 0 1 139.63 47.76
  L 139.78 54.20
  Z"
/>
<path fill="#613ef6" fill-opacity="0.627" d="
  M 192.12 48.30
  Q 191.92 48.91 192.72 49.30
  Q 194.78 50.33 195.59 51.40
  A 0.11 0.11 0.0 0 0 195.79 51.35
  Q 195.79 51.34 195.80 51.13
  A 0.14 0.14 0.0 0 1 196.06 51.06
  Q 196.40 51.55 196.60 51.66
  A 0.47 0.47 0.0 0 1 196.74 52.36
  Q 196.19 53.09 197.31 53.64
  Q 197.92 53.94 198.54 54.12
  L 187.40 53.39
  A 0.70 0.69 -5.8 0 1 186.77 52.88
  L 185.31 47.20
  C 187.46 47.02 189.39 47.22 191.53 47.37
  A 0.02 0.01 -42.6 0 1 191.52 47.39
  Q 191.37 47.52 190.91 47.55
  A 0.08 0.08 0.0 0 0 190.91 47.71
  Q 191.86 47.77 192.12 48.30
  Z"
/>
<path fill="#6440f3" fill-opacity="0.251" d="
  M 201.37 54.19
  Q 201.60 53.80 200.77 54.36
  L 198.54 54.12
  Q 197.92 53.94 197.31 53.64
  Q 196.19 53.09 196.74 52.36
  A 0.47 0.47 0.0 0 0 196.60 51.66
  Q 196.40 51.55 196.06 51.06
  A 0.14 0.14 0.0 0 0 195.80 51.13
  Q 195.79 51.34 195.79 51.35
  A 0.11 0.11 0.0 0 1 195.59 51.40
  Q 194.78 50.33 192.72 49.30
  Q 191.92 48.91 192.12 48.30
  L 199.00 47.91
  A 2.27 2.26 -1.3 0 1 201.39 50.19
  L 201.37 54.19
  Z"
/>
<path fill="#633ff5" fill-opacity="0.851" d="
  M 208.08 54.74
  Q 208.77 56.65 210.02 57.96
  A 2.18 2.16 14.7 0 1 210.51 58.79
  Q 211.05 60.55 212.26 61.58
  Q 204.61 60.64 200.77 54.36
  Q 201.60 53.80 201.37 54.19
  L 208.08 54.74
  Z"
/>
<path fill="#6440f3" fill-opacity="0.251" d="
  M 139.78 54.20
  L 148.00 54.39
  Q 147.02 57.29 147.32 60.69
  A 0.97 0.96 -31.0 0 1 147.15 61.35
  Q 147.07 61.47 146.96 61.61
  Q 143.61 62.37 140.11 61.76
  A 0.64 0.63 -86.1 0 1 139.59 61.16
  Q 139.49 58.15 139.69 55.27
  Q 139.72 54.86 139.03 54.24
  L 139.78 54.20
  Z"
/>
<path fill="#633ff5" fill-opacity="0.851" d="
  M 154.79 61.90
  L 146.96 61.61
  Q 147.07 61.47 147.15 61.35
  A 0.97 0.96 -31.0 0 0 147.32 60.69
  Q 147.02 57.29 148.00 54.39
  L 153.96 54.54
  A 0.79 0.78 -5.2 0 1 154.70 55.15
  Q 155.49 58.87 154.79 61.90
  Z"
/>
<path fill="#6440f3" fill-opacity="0.251" d="
  M 217.28 61.97
  L 216.73 61.97
  Q 214.35 62.19 212.26 61.58
  Q 211.05 60.55 210.51 58.79
  A 2.18 2.16 14.7 0 0 210.02 57.96
  Q 208.77 56.65 208.08 54.74
  Q 212.64 55.14 216.70 57.63
  A 0.95 0.93 -75.8 0 1 217.15 58.40
  L 217.28 61.97
  Z"
/>
<path fill="#6440f3" fill-opacity="0.251" d="
  M 163.29 62.17
  L 162.75 69.75
  L 155.88 69.67
  A 0.57 0.56 -90.0 0 1 155.32 69.10
  L 155.31 62.04
  L 163.29 62.17
  Z"
/>
<path fill="#613ef6" fill-opacity="0.627" d="
  M 170.48 69.86
  Q 170.62 69.68 169.95 69.84
  L 162.75 69.75
  L 163.29 62.17
  L 169.89 62.26
  A 0.56 0.56 0.0 0 1 170.45 62.82
  L 170.48 69.86
  Z"
/>
<path fill="#633ff5" fill-opacity="0.851" d="
  M 217.28 61.97
  L 224.34 62.34
  Q 224.68 64.24 225.30 65.16
  Q 225.50 65.46 228.19 68.36
  A 0.03 0.03 0.0 0 1 228.18 68.41
  Q 228.03 68.48 227.98 68.60
  A 0.18 0.17 4.6 0 0 228.18 68.83
  Q 229.54 68.60 230.53 69.37
  C 224.96 69.00 218.87 68.13 216.73 61.97
  L 217.28 61.97
  Z"
/>
<path fill="#6440f3" fill-opacity="0.251" d="
  M 233.77 69.73
  Q 232.07 69.89 230.53 69.37
  Q 229.54 68.60 228.18 68.83
  A 0.18 0.17 4.6 0 1 227.98 68.60
  Q 228.03 68.48 228.18 68.41
  A 0.03 0.03 0.0 0 0 228.19 68.36
  Q 225.50 65.46 225.30 65.16
  Q 224.68 64.24 224.34 62.34
  Q 227.65 62.36 230.61 63.99
  C 232.78 65.19 232.48 67.73 233.77 69.73
  Z"
/>
<path fill="#5f40f6" fill-opacity="0.125" d="
  M 170.48 69.86
  L 178.75 70.02
  L 178.18 77.28
  L 171.26 77.54
  A 0.56 0.55 -3.2 0 1 170.68 77.03
  Q 170.42 73.79 170.78 70.49
  Q 170.82 70.05 169.95 69.84
  Q 170.62 69.68 170.48 69.86
  Z"
/>
<path fill="#613ef6" fill-opacity="0.627" d="
  M 185.82 77.41
  Q 181.57 78.01 178.18 77.28
  L 178.75 70.02
  L 185.07 70.16
  A 0.86 0.85 -6.0 0 1 185.89 70.82
  Q 186.60 74.05 185.82 77.41
  Z"
/>
<path fill="#5f40f6" fill-opacity="0.125" d="
  M 194.21 78.25
  L 193.98 84.49
  L 193.29 85.05
  A 1.50 1.47 -64.0 0 1 192.36 85.38
  L 187.02 85.38
  A 0.61 0.60 -4.4 0 1 186.42 84.87
  Q 185.82 81.33 186.53 77.74
  Q 190.05 77.25 193.66 77.80
  Q 194.12 77.87 194.21 78.25
  Z"
/>
<path fill="#613ef6" fill-opacity="0.627" d="
  M 201.37 85.25
  L 198.92 85.37
  Q 196.77 85.35 194.54 85.26
  Q 194.16 85.25 194.03 85.05
  Q 193.87 84.82 193.98 84.49
  L 194.21 78.25
  L 194.41 78.03
  A 0.57 0.55 -59.9 0 1 194.98 77.87
  Q 197.26 78.55 199.76 78.23
  A 1.05 1.02 -29.2 0 1 200.51 78.43
  Q 201.17 78.95 200.79 79.47
  A 0.64 0.64 0.0 0 0 200.71 80.10
  Q 201.84 82.64 201.37 85.25
  Z"
/>
<path fill="#5f40f6" fill-opacity="0.125" d="
  M 201.37 85.25
  Q 205.84 84.95 209.73 86.71
  Q 208.91 87.43 209.81 89.30
  Q 205.00 93.17 201.78 98.24
  L 201.86 86.98
  A 0.88 0.86 15.9 0 0 201.42 86.21
  Q 200.37 85.59 198.92 85.37
  L 201.37 85.25
  Z"
/>
<path fill="#000000" fill-opacity="0.086" d="
  M 251.18 97.79
  C 255.87 96.12 253.34 90.37 251.70 87.32
  Q 251.74 85.80 254.55 86.29
  A 0.75 0.75 0.0 0 1 255.17 87.03
  L 255.17 98.77
  A 1.07 1.06 10.0 0 1 253.74 99.77
  Q 252.28 99.24 251.18 97.79
  Z"
/>
<path fill="#613ef6" fill-opacity="0.627" d="
  M 209.65 100.70
  Q 213.46 97.80 214.65 93.74
  Q 214.93 92.78 214.02 92.12
  Q 211.82 90.52 210.49 87.92
  L 210.41 87.82
  Q 210.36 87.77 210.36 87.74
  A 0.07 0.06 21.8 0 1 210.48 87.70
  L 213.62 90.95
  A 0.39 0.39 0.0 0 0 214.23 90.88
  Q 214.50 90.43 215.34 90.38
  A 0.11 0.11 0.0 0 0 215.39 90.17
  Q 212.73 88.82 210.71 86.72
  L 214.16 86.62
  A 1.83 1.83 0.0 0 1 216.03 88.23
  L 217.00 96.61
  A 1.30 1.30 0.0 0 1 216.13 98.00
  Q 215.99 98.05 215.72 98.05
  A 0.72 0.72 0.0 0 0 214.99 98.77
  L 214.99 99.45
  A 0.90 0.89 88.0 0 1 214.16 100.35
  L 209.65 100.70
  Z"
/>
<path fill="#623ef7" fill-opacity="0.498" d="
  M 210.71 86.72
  Q 212.73 88.82 215.39 90.17
  A 0.11 0.11 0.0 0 1 215.34 90.38
  Q 214.50 90.43 214.23 90.88
  A 0.39 0.39 0.0 0 1 213.62 90.95
  L 210.48 87.70
  A 0.07 0.06 21.8 0 0 210.36 87.74
  Q 210.36 87.77 210.41 87.82
  L 210.49 87.92
  Q 211.82 90.52 214.02 92.12
  Q 214.93 92.78 214.65 93.74
  Q 213.46 97.80 209.65 100.70
  L 208.97 100.71
  Q 210.50 95.03 209.81 89.30
  Q 208.91 87.43 209.73 86.71
  L 210.71 86.72
  Z"
/>
<path fill="#5f40f6" fill-opacity="0.125" d="
  M 251.18 97.79
  Q 252.52 92.55 251.70 87.32
  C 253.34 90.37 255.87 96.12 251.18 97.79
  Z"
/>
<path fill="#6440f3" fill-opacity="0.251" d="
  M 209.81 89.30
  Q 210.50 95.03 208.97 100.71
  L 202.00 101.00
  L 200.82 100.91
  Q 201.72 100.11 201.78 98.24
  Q 205.00 93.17 209.81 89.30
  Z"
/>
<path fill="#030404" fill-opacity="0.251" d="
  M 155.24 100.99
  L 139.81 100.98
  A 0.22 0.21 24.3 0 0 139.67 101.03
  Q 139.50 101.18 139.50 101.48
  Q 138.80 101.54 138.46 100.99
  Q 139.36 100.98 139.73 100.21
  A 0.20 0.17 -40.3 0 0 139.74 100.15
  L 139.53 93.75
  A 0.58 0.58 0.0 0 1 140.11 93.15
  L 154.21 93.15
  A 0.96 0.96 0.0 0 1 155.17 94.10
  L 155.24 100.99
  Z"
/>
<path fill="#000000" fill-opacity="0.439" d="
  M 138.46 100.99
  Q 138.80 101.54 139.50 101.48
  L 139.30 109.02
  Q 134.81 109.19 131.91 108.19
  L 131.92 101.51
  A 0.54 0.54 0.0 0 1 132.46 100.97
  L 138.46 100.99
  Z"
/>
<path fill="#000000" d="
  M 155.24 100.99
  L 155.33 109.46
  Q 154.79 122.48 156.00 135.37
  Q 156.49 146.17 157.35 149.59
  C 160.36 161.53 159.49 172.25 159.84 183.80
  Q 160.00 189.13 162.50 192.52
  L 162.34 210.58
  Q 157.62 218.29 156.07 227.80
  L 154.78 232.81
  L 149.10 233.98
  A 0.97 0.95 -83.8 0 0 148.41 234.55
  Q 147.38 237.06 147.59 240.11
  L 132.23 240.51
  C 129.74 240.26 121.08 240.88 120.66 237.52
  A 0.22 0.22 0.0 0 1 120.97 237.30
  Q 121.21 237.43 121.12 237.88
  L 121.12 237.87
  Q 121.24 237.45 121.42 236.23
  A 0.71 0.68 20.9 0 0 121.09 235.52
  Q 119.62 234.64 118.71 234.62
  Q 117.57 234.59 116.35 234.11
  Q 112.21 232.49 107.90 232.01
  Q 104.72 227.79 99.48 225.25
  L 93.28 224.97
  L 92.36 218.73
  A 0.63 0.62 87.7 0 0 91.78 218.19
  L 85.23 217.83
  L 77.34 217.11
  Q 77.72 213.85 76.51 210.71
  A 0.96 0.96 0.0 0 0 75.27 210.15
  Q 72.28 211.29 69.54 210.28
  L 61.33 209.26
  Q 61.81 206.20 61.02 203.36
  A 0.74 0.73 -5.7 0 0 60.37 202.83
  Q 57.68 202.65 55.21 203.31
  Q 51.55 201.19 45.70 201.80
  Q 46.98 199.03 46.00 196.85
  Q 45.40 195.52 43.61 195.09
  Q 42.05 194.72 40.48 194.62
  L 31.48 194.15
  Q 30.80 193.81 29.94 193.69
  C 29.78 189.95 26.81 188.73 23.35 188.57
  L 23.49 187.40
  A 1.04 1.03 3.7 0 0 22.47 186.24
  L 16.45 186.20
  Q 12.76 185.25 9.18 185.71
  A 1.12 1.12 0.0 0 1 7.99 184.22
  Q 9.47 180.10 7.19 177.31
  Q 7.39 173.48 5.92 170.40
  A 1.12 1.11 -47.4 0 0 3.87 170.50
  Q 3.51 171.43 2.43 170.80
  A 0.93 0.93 0.0 0 0 1.24 171.02
  Q 1.00 171.32 1.23 171.67
  A 0.49 0.48 52.7 0 1 1.15 172.28
  L 0.48 172.94
  L 0.72 156.78
  A 1.14 1.13 -83.0 0 1 2.11 155.69
  C 4.11 156.15 6.01 156.60 6.66 153.93
  Q 7.25 151.46 7.61 147.96
  A 1.00 1.00 0.0 0 1 8.34 147.10
  Q 8.38 147.09 13.45 145.59
  A 1.53 1.38 -13.8 0 0 14.55 143.97
  Q 14.31 142.71 15.86 141.32
  A 1.52 1.49 22.0 0 1 16.78 140.94
  Q 20.98 140.67 26.12 138.53
  C 27.39 138.00 28.95 137.65 29.85 136.51
  Q 31.88 133.93 33.84 133.31
  Q 37.41 132.17 42.73 131.74
  Q 44.29 131.62 46.01 130.42
  A 2.87 2.68 -67.5 0 1 46.89 130.02
  C 48.94 129.48 51.23 129.31 51.92 127.85
  Q 52.32 126.99 53.55 127.11
  C 55.22 127.28 55.42 125.92 56.56 125.13
  A 2.59 2.54 22.9 0 1 57.62 124.71
  Q 63.94 123.72 70.13 124.28
  L 69.94 130.95
  A 0.66 0.65 -83.7 0 0 70.46 131.61
  Q 73.19 132.15 77.00 131.49
  Q 78.23 135.08 77.46 139.73
  Q 74.46 139.41 72.10 141.94
  A 2.40 2.40 0.0 0 0 71.85 144.90
  Q 72.90 146.49 75.52 147.25
  L 69.65 147.48
  L 67.98 147.86
  A 0.90 0.89 1.0 0 0 67.31 148.50
  Q 66.90 150.05 65.64 151.24
  A 0.21 0.20 -44.0 0 1 65.35 151.24
  L 65.34 151.23
  A 0.31 0.29 -43.2 0 1 65.36 150.91
  L 66.91 148.60
  A 0.22 0.22 0.0 0 0 66.73 148.26
  L 66.32 148.26
  A 0.33 0.32 10.7 0 0 66.02 148.46
  Q 65.76 149.17 64.95 150.06
  A 0.14 0.14 0.0 0 1 64.71 149.96
  L 64.71 148.85
  A 0.23 0.23 0.0 0 0 64.35 148.66
  L 63.87 149.00
  A 1.21 1.17 -14.9 0 0 63.44 149.71
  Q 62.77 153.27 59.71 155.13
  Q 55.46 154.77 51.31 156.03
  Q 48.05 156.81 45.53 158.70
  A 0.70 0.69 63.5 0 0 45.28 159.46
  C 45.79 161.09 44.70 161.91 43.14 162.03
  C 39.79 162.30 38.46 162.84 36.87 165.97
  A 0.51 0.51 0.0 0 1 36.15 166.17
  Q 34.45 165.13 33.33 165.98
  A 0.84 0.83 -72.9 0 0 34.10 167.44
  L 35.90 166.82
  A 0.86 0.85 -25.6 0 1 36.90 167.17
  Q 38.63 169.88 40.49 170.06
  Q 45.92 170.56 47.74 171.20
  L 48.14 174.52
  A 2.00 1.99 -86.3 0 0 49.61 176.20
  L 56.06 177.88
  L 57.48 178.03
  Q 60.13 179.21 64.33 182.08
  Q 66.60 183.63 70.07 183.42
  L 69.82 184.24
  A 0.63 0.63 0.0 0 0 70.14 184.98
  Q 73.07 186.50 76.69 186.02
  L 79.19 190.95
  A 1.17 1.17 0.0 0 0 79.87 191.53
  L 84.47 192.99
  Q 88.38 194.38 92.75 193.97
  Q 95.52 198.52 101.49 199.63
  Q 101.41 200.13 101.49 200.58
  A 0.67 0.66 -2.1 0 0 102.10 201.14
  L 107.96 201.58
  Q 110.74 201.99 114.07 201.91
  C 116.40 201.86 119.02 203.36 117.82 205.96
  A 1.40 1.26 10.7 0 0 119.19 207.75
  C 121.67 207.72 123.49 209.59 125.81 209.83
  Q 130.24 210.27 133.52 210.10
  A 0.70 0.70 0.0 0 0 134.19 209.40
  L 134.19 209.12
  A 0.60 0.59 3.3 0 0 133.66 208.53
  Q 132.85 208.44 132.86 207.10
  Q 132.90 201.86 132.85 196.90
  Q 133.14 188.63 134.82 180.74
  C 135.82 176.05 136.01 172.26 136.50 167.46
  C 136.92 163.36 138.85 157.36 139.02 153.50
  Q 139.62 140.08 139.40 113.51
  Q 139.38 111.47 139.30 109.02
  L 139.50 101.48
  Q 139.50 101.18 139.67 101.03
  A 0.22 0.21 24.3 0 1 139.81 100.98
  L 155.24 100.99
  Z"
/>
<path fill="#000000" fill-opacity="0.439" d="
  M 162.83 108.95
  L 155.33 109.46
  L 155.24 100.99
  L 162.32 100.86
  A 0.54 0.54 0.0 0 1 162.87 101.40
  L 162.83 108.95
  Z"
/>
<path fill="#000000" fill-opacity="0.086" d="
  M 186.28 100.93
  Q 185.73 104.78 186.48 108.59
  L 178.32 108.70
  L 178.50 101.94
  A 1.01 1.00 -89.1 0 1 179.50 100.96
  L 186.28 100.93
  Z"
/>
<path fill="#623ef7" fill-opacity="0.498" d="
  M 196.30 100.88
  L 194.93 101.19
  A 0.75 0.74 -16.1 0 0 194.39 102.16
  L 194.51 102.51
  A 1.29 1.27 53.0 0 1 194.36 103.63
  Q 193.05 105.59 194.24 108.42
  L 186.71 108.58
  Q 186.52 108.33 186.48 108.59
  Q 185.73 104.78 186.28 100.93
  L 196.30 100.88
  Z"
/>
<path fill="#633ff5" fill-opacity="0.851" d="
  M 200.82 100.91
  L 202.00 101.00
  Q 199.38 105.99 194.24 108.42
  Q 193.05 105.59 194.36 103.63
  A 1.29 1.27 53.0 0 0 194.51 102.51
  L 194.39 102.16
  A 0.75 0.74 -16.1 0 1 194.93 101.19
  L 196.30 100.88
  L 200.82 100.91
  Z"
/>
<path fill="#5f40f6" fill-opacity="0.125" d="
  M 238.25 115.75
  Q 240.44 113.70 242.12 110.10
  A 1.26 1.25 -86.5 0 1 242.87 109.43
  L 246.61 108.14
  A 1.19 1.18 87.4 0 0 247.39 107.28
  L 248.02 104.53
  Q 247.85 110.16 245.59 115.14
  A 0.78 0.77 -78.5 0 1 244.90 115.60
  L 238.25 115.75
  Z"
/>
<path fill="#000000" fill-opacity="0.749" d="
  M 139.30 109.02
  Q 139.38 111.47 139.40 113.51
  Q 139.62 140.08 139.02 153.50
  C 138.85 157.36 136.92 163.36 136.50 167.46
  C 136.01 172.26 135.82 176.05 134.82 180.74
  Q 133.14 188.63 132.85 196.90
  Q 131.87 192.64 131.87 188.25
  Q 131.86 148.03 131.91 108.19
  Q 134.81 109.19 139.30 109.02
  Z"
/>
<path fill="#5f40f6" fill-opacity="0.125" d="
  M 178.32 108.70
  L 178.27 116.71
  L 170.73 116.46
  L 170.71 109.28
  A 0.55 0.55 0.0 0 1 171.25 108.73
  L 178.32 108.70
  Z"
/>
<path fill="#623ef5" fill-opacity="0.937" d="
  M 186.48 108.59
  Q 186.52 108.33 186.71 108.58
  Q 185.54 115.72 178.45 116.74
  Q 178.36 116.72 178.27 116.71
  L 178.32 108.70
  L 186.48 108.59
  Z"
/>
<path fill="#000000" fill-opacity="0.749" d="
  M 162.83 108.95
  L 162.75 145.45
  L 161.36 155.67
  A 0.24 0.23 -48.3 0 1 160.90 155.70
  L 156.00 135.37
  Q 154.79 122.48 155.33 109.46
  L 162.83 108.95
  Z"
/>
<path fill="#613ff6" fill-opacity="0.376" d="
  M 178.27 116.71
  Q 178.36 116.72 178.45 116.74
  L 178.38 123.25
  Q 178.26 123.62 178.35 123.99
  L 170.71 124.24
  L 170.73 116.46
  L 178.27 116.71
  Z"
/>
<path fill="#5f40f6" fill-opacity="0.125" d="
  M 233.97 116.53
  C 230.77 118.93 227.64 122.25 223.51 123.10
  Q 219.38 123.96 215.32 124.83
  Q 210.62 125.84 209.12 130.65
  A 0.85 0.85 0.0 0 1 208.48 131.23
  Q 206.65 131.60 204.29 131.29
  L 208.84 128.56
  A 1.86 1.85 -8.5 0 0 209.67 127.45
  Q 210.07 125.97 210.91 124.82
  Q 211.54 124.76 211.98 124.48
  C 214.30 124.18 216.70 123.69 219.02 123.68
  Q 220.73 123.68 222.68 122.70
  A 0.40 0.40 0.0 0 0 222.90 122.34
  L 222.90 121.93
  A 0.35 0.34 11.5 0 1 223.38 121.62
  Q 223.56 121.70 223.67 121.77
  A 0.43 0.42 27.6 0 0 224.30 121.58
  Q 224.43 121.27 224.87 121.05
  A 0.05 0.05 0.0 0 0 224.84 120.96
  Q 224.67 120.99 224.51 120.94
  A 0.04 0.04 0.0 0 1 224.49 120.87
  Q 225.57 119.49 226.59 119.85
  Q 227.40 120.13 227.62 118.40
  A 0.60 0.59 -86.1 0 1 228.21 117.88
  Q 228.49 117.88 228.51 117.88
  A 0.02 0.01 46.6 0 0 228.51 117.85
  Q 228.37 117.83 228.26 117.75
  A 0.12 0.12 0.0 0 1 228.31 117.54
  L 233.97 116.53
  Z"
/>
<path fill="#623ef5" fill-opacity="0.937" d="
  M 184.53 131.79
  L 178.26 131.67
  L 178.35 123.99
  Q 178.26 123.62 178.38 123.25
  L 184.87 124.13
  A 1.15 1.15 0.0 0 1 185.84 125.51
  L 184.53 131.79
  Z"
/>
<path fill="#000000" fill-opacity="0.439" d="
  M 77.00 131.49
  Q 73.19 132.15 70.46 131.61
  A 0.66 0.65 -83.7 0 1 69.94 130.95
  L 70.13 124.28
  L 77.03 124.19
  A 0.60 0.58 -3.2 0 1 77.62 124.70
  Q 78.10 128.87 77.00 131.49
  Z"
/>
<path fill="#5f40f6" fill-opacity="0.125" d="
  M 178.35 123.99
  L 178.26 131.67
  L 171.25 131.83
  A 0.59 0.59 0.0 0 1 170.65 131.24
  L 170.71 124.24
  L 178.35 123.99
  Z"
/>
<path fill="#623ef5" fill-opacity="0.937" d="
  M 211.98 124.48
  Q 211.54 124.76 210.91 124.82
  Q 206.91 124.63 203.71 125.52
  A 2.84 2.83 77.4 0 0 201.67 128.74
  Q 201.99 130.59 200.36 131.51
  L 193.78 131.88
  Q 193.44 132.02 193.00 131.86
  L 194.48 125.99
  A 0.90 0.90 0.0 0 1 195.31 125.32
  L 211.98 124.48
  Z"
/>
<path fill="#623ef7" fill-opacity="0.498" d="
  M 210.91 124.82
  Q 210.07 125.97 209.67 127.45
  A 1.86 1.85 -8.5 0 1 208.84 128.56
  L 204.29 131.29
  Q 202.89 131.75 200.36 131.51
  Q 201.99 130.59 201.67 128.74
  A 2.84 2.83 77.4 0 1 203.71 125.52
  Q 206.91 124.63 210.91 124.82
  Z"
/>
<path fill="#5f40f6" fill-opacity="0.125" d="
  M 184.53 131.79
  L 193.00 131.86
  Q 193.44 132.02 193.78 131.88
  L 193.76 139.06
  A 0.59 0.59 0.0 0 1 193.17 139.65
  L 179.18 139.65
  A 0.60 0.59 -1.0 0 1 178.58 139.08
  L 178.26 131.67
  L 184.53 131.79
  Z"
/>
<path fill="#000000" fill-opacity="0.890" d="
  M 156.00 135.37
  L 160.90 155.70
  A 0.24 0.23 -48.3 0 0 161.36 155.67
  L 162.75 145.45
  L 162.50 192.52
  Q 160.00 189.13 159.84 183.80
  C 159.49 172.25 160.36 161.53 157.35 149.59
  Q 156.49 146.17 156.00 135.37
  Z"
/>
<path fill="#000000" fill-opacity="0.890" d="
  M 77.46 139.73
  L 77.40 147.28
  Q 76.50 147.44 75.52 147.25
  Q 72.90 146.49 71.85 144.90
  A 2.40 2.40 0.0 0 1 72.10 141.94
  Q 74.46 139.41 77.46 139.73
  Z"
/>
<path fill="#000000" fill-opacity="0.086" d="
  M 75.52 147.25
  Q 76.50 147.44 77.40 147.28
  C 77.08 152.56 73.76 153.82 69.14 155.27
  A 3.69 3.60 -54.4 0 1 68.18 155.44
  L 51.31 156.03
  Q 55.46 154.77 59.71 155.13
  Q 62.85 155.24 65.99 155.07
  Q 67.96 154.97 68.90 154.45
  A 1.18 1.17 -8.2 0 0 69.45 153.72
  Q 70.17 150.70 69.65 147.48
  L 75.52 147.25
  Z"
/>
<path fill="#623ef5" fill-opacity="0.937" d="
  M 102.01 155.11
  Q 101.78 155.28 101.32 155.37
  L 93.59 154.99
  A 0.52 0.52 0.0 0 1 93.10 154.46
  L 93.14 147.57
  L 99.91 147.49
  A 0.62 0.60 -5.8 0 1 100.51 147.97
  L 102.01 155.11
  Z"
/>
<path fill="#5f40f6" fill-opacity="0.125" d="
  M 116.39 147.21
  L 124.13 147.26
  L 124.10 154.19
  A 1.01 1.00 4.0 0 1 122.95 155.18
  Q 116.44 154.23 116.37 156.98
  L 115.97 155.07
  L 116.39 147.21
  Z"
/>
<path fill="#000000" fill-opacity="0.439" d="
  M 69.65 147.48
  Q 70.17 150.70 69.45 153.72
  A 1.18 1.17 -8.2 0 1 68.90 154.45
  Q 67.96 154.97 65.99 155.07
  Q 62.85 155.24 59.71 155.13
  Q 62.77 153.27 63.44 149.71
  A 1.21 1.17 -14.9 0 1 63.87 149.00
  L 64.35 148.66
  A 0.23 0.23 0.0 0 1 64.71 148.85
  L 64.71 149.96
  A 0.14 0.14 0.0 0 0 64.95 150.06
  Q 65.76 149.17 66.02 148.46
  A 0.33 0.32 10.7 0 1 66.32 148.26
  L 66.73 148.26
  A 0.22 0.22 0.0 0 1 66.91 148.60
  L 65.36 150.91
  A 0.31 0.29 -43.2 0 0 65.34 151.23
  L 65.35 151.24
  A 0.21 0.20 -44.0 0 0 65.64 151.24
  Q 66.90 150.05 67.31 148.50
  A 0.90 0.89 1.0 0 1 67.98 147.86
  L 69.65 147.48
  Z"
/>
<path fill="#623ef7" fill-opacity="0.498" d="
  M 108.20 155.20
  L 108.79 162.70
  L 100.86 162.65
  L 101.32 155.37
  Q 101.78 155.28 102.01 155.11
  L 108.20 155.20
  Z"
/>
<path fill="#6440f3" fill-opacity="0.251" d="
  M 115.97 155.07
  L 116.37 156.98
  L 116.38 162.20
  A 0.59 0.58 -89.5 0 1 115.79 162.79
  L 108.79 162.70
  L 108.20 155.20
  L 115.97 155.07
  Z"
/>
<path fill="#030404" fill-opacity="0.251" d="
  M 7.19 177.31
  Q 5.19 177.31 2.39 178.48
  A 1.65 1.65 0.0 0 1 0.14 177.27
  Q -0.20 175.50 0.48 172.94
  L 1.15 172.28
  A 0.49 0.48 52.7 0 0 1.23 171.67
  Q 1.00 171.32 1.24 171.02
  A 0.93 0.93 0.0 0 1 2.43 170.80
  Q 3.51 171.43 3.87 170.50
  A 1.12 1.11 -47.4 0 1 5.92 170.40
  Q 7.39 173.48 7.19 177.31
  Z"
/>
<path fill="#000000" fill-opacity="0.631" d="
  M 56.06 177.88
  L 49.61 176.20
  A 2.00 1.99 -86.3 0 1 48.14 174.52
  L 47.74 171.20
  L 51.88 171.11
  A 1.79 1.79 0.0 0 1 53.71 172.81
  Q 53.92 177.12 56.06 177.88
  Z"
/>
<path fill="#000000" fill-opacity="0.749" d="
  M 69.70 178.81
  Q 70.16 180.12 69.82 181.22
  A 1.61 1.61 0.0 0 0 69.78 182.01
  L 70.07 183.42
  Q 66.60 183.63 64.33 182.08
  Q 60.13 179.21 57.48 178.03
  Q 59.69 177.72 61.88 178.28
  A 0.32 0.24 -26.6 0 0 61.99 178.30
  L 69.70 178.81
  Z"
/>
<path fill="#030404" fill-opacity="0.251" d="
  M 77.76 186.02
  L 76.69 186.02
  Q 73.07 186.50 70.14 184.98
  A 0.63 0.63 0.0 0 1 69.82 184.24
  L 70.07 183.42
  L 69.78 182.01
  A 1.61 1.61 0.0 0 1 69.82 181.22
  Q 70.16 180.12 69.70 178.81
  L 76.95 179.00
  A 0.54 0.54 0.0 0 1 77.48 179.52
  L 77.76 186.02
  Z"
/>
<path fill="#000000" fill-opacity="0.749" d="
  M 77.76 186.02
  L 85.50 186.19
  Q 84.97 188.18 85.58 190.25
  Q 86.16 192.20 84.47 192.99
  L 79.87 191.53
  A 1.17 1.17 0.0 0 1 79.19 190.95
  L 76.69 186.02
  L 77.76 186.02
  Z"
/>
<path fill="#000000" fill-opacity="0.086" d="
  M 23.35 188.57
  Q 23.73 191.59 22.73 193.15
  L 16.39 193.23
  A 0.45 0.45 0.0 0 1 15.94 192.75
  L 16.45 186.20
  L 22.47 186.24
  A 1.04 1.03 3.7 0 1 23.49 187.40
  L 23.35 188.57
  Z"
/>
<path fill="#030404" fill-opacity="0.251" d="
  M 92.75 193.97
  Q 88.38 194.38 84.47 192.99
  Q 86.16 192.20 85.58 190.25
  Q 84.97 188.18 85.50 186.19
  L 92.47 186.28
  A 0.69 0.68 -89.6 0 1 93.14 186.97
  L 93.14 192.02
  A 0.76 0.75 65.7 0 1 92.96 192.51
  Q 92.43 193.15 92.75 193.97
  Z"
/>
<path fill="#000000" fill-opacity="0.890" d="
  M 29.94 193.69
  Q 25.48 194.46 22.73 193.15
  Q 23.73 191.59 23.35 188.57
  C 26.81 188.73 29.78 189.95 29.94 193.69
  Z"
/>
<path fill="#030404" fill-opacity="0.251" d="
  M 40.48 194.62
  Q 38.82 195.64 38.90 197.00
  Q 39.03 199.18 39.26 201.39
  L 32.13 201.59
  A 0.69 0.68 -0.4 0 1 31.42 200.90
  L 31.48 194.15
  L 40.48 194.62
  Z"
/>
<path fill="#000000" fill-opacity="0.890" d="
  M 101.20 194.22
  Q 100.53 196.98 101.49 199.63
  Q 95.52 198.52 92.75 193.97
  L 101.20 194.22
  Z"
/>
<path fill="#000000" fill-opacity="0.439" d="
  M 107.96 201.58
  L 102.10 201.14
  A 0.67 0.66 -2.1 0 1 101.49 200.58
  Q 101.41 200.13 101.49 199.63
  Q 100.53 196.98 101.20 194.22
  L 108.17 194.26
  A 0.52 0.52 0.0 0 1 108.69 194.83
  L 107.96 201.58
  Z"
/>
<path fill="#000000" fill-opacity="0.631" d="
  M 45.70 201.80
  L 39.26 201.39
  Q 39.03 199.18 38.90 197.00
  Q 38.82 195.64 40.48 194.62
  Q 42.05 194.72 43.61 195.09
  Q 45.40 195.52 46.00 196.85
  Q 46.98 199.03 45.70 201.80
  Z"
/>
<path fill="#000000" fill-opacity="0.631" d="
  M 61.33 209.26
  Q 58.87 209.56 56.65 208.99
  Q 54.42 208.40 54.03 206.72
  Q 53.63 205.03 55.21 203.31
  Q 57.68 202.65 60.37 202.83
  A 0.74 0.73 -5.7 0 1 61.02 203.36
  Q 61.81 206.20 61.33 209.26
  Z"
/>
<path fill="#000000" fill-opacity="0.631" d="
  M 77.34 217.11
  Q 76.67 217.03 76.07 217.16
  L 70.96 217.01
  A 0.66 0.65 -2.6 0 1 70.33 216.44
  L 69.54 210.28
  Q 72.28 211.29 75.27 210.15
  A 0.96 0.96 0.0 0 1 76.51 210.71
  Q 77.72 213.85 77.34 217.11
  Z"
/>
<path fill="#000000" fill-opacity="0.890" d="
  M 162.34 210.58
  L 162.35 221.66
  Q 160.72 226.92 156.07 227.80
  Q 157.62 218.29 162.34 210.58
  Z"
/>
<path fill="#000000" fill-opacity="0.086" d="
  M 77.34 217.11
  L 85.23 217.83
  L 85.11 220.09
  A 2.37 2.32 36.0 0 0 85.27 221.04
  Q 85.81 222.44 85.59 224.05
  A 0.76 0.76 0.0 0 0 86.32 224.91
  L 91.47 225.05
  Q 86.69 225.63 81.96 224.28
  C 78.83 223.38 77.11 220.22 76.07 217.16
  Q 76.67 217.03 77.34 217.11
  Z"
/>
<path fill="#000000" fill-opacity="0.631" d="
  M 93.28 224.97
  Q 92.83 224.80 92.30 224.90
  L 91.47 225.05
  L 86.32 224.91
  A 0.76 0.76 0.0 0 1 85.59 224.05
  Q 85.81 222.44 85.27 221.04
  A 2.37 2.32 36.0 0 1 85.11 220.09
  L 85.23 217.83
  L 91.78 218.19
  A 0.63 0.62 87.7 0 1 92.36 218.73
  L 93.28 224.97
  Z"
/>
<path fill="#030404" fill-opacity="0.251" d="
  M 162.35 221.66
  L 162.38 231.35
  A 0.82 0.81 79.5 0 1 161.86 232.11
  Q 159.92 232.84 157.56 232.60
  Q 155.61 231.88 154.90 233.08
  A 0.71 0.64 63.7 0 0 154.80 233.44
  L 154.79 235.48
  Q 153.98 233.55 154.78 232.81
  L 156.07 227.80
  Q 160.72 226.92 162.35 221.66
  Z"
/>
<path fill="#000000" fill-opacity="0.086" d="
  M 93.28 224.97
  L 99.48 225.25
  Q 101.19 229.15 104.21 231.96
  C 101.05 230.34 98.42 228.32 94.82 230.59
  A 0.80 0.80 0.0 0 1 93.62 230.11
  L 92.30 224.90
  Q 92.83 224.80 93.28 224.97
  Z"
/>
<path fill="#000000" fill-opacity="0.631" d="
  M 107.90 232.01
  L 104.21 231.96
  Q 101.19 229.15 99.48 225.25
  Q 104.72 227.79 107.90 232.01
  Z"
/>
<path fill="#000000" fill-opacity="0.086" d="
  M 157.56 232.60
  Q 155.51 235.79 155.28 239.47
  A 0.84 0.82 82.5 0 1 154.74 240.19
  Q 153.75 240.54 152.49 240.47
  A 1.87 1.83 -57.3 0 0 151.49 240.70
  Q 148.44 242.37 146.15 245.41
  C 143.89 248.42 136.84 248.41 132.80 248.32
  A 0.95 0.95 0.0 0 1 131.87 247.32
  L 132.23 240.51
  L 147.59 240.11
  L 154.28 240.23
  A 0.62 0.62 0.0 0 0 154.91 239.59
  L 154.79 235.48
  L 154.80 233.44
  A 0.71 0.64 63.7 0 1 154.90 233.08
  Q 155.61 231.88 157.56 232.60
  Z"
/>
<path fill="#000000" fill-opacity="0.439" d="
  M 154.78 232.81
  Q 153.98 233.55 154.79 235.48
  L 154.91 239.59
  A 0.62 0.62 0.0 0 1 154.28 240.23
  L 147.59 240.11
  Q 147.38 237.06 148.41 234.55
  A 0.97 0.95 -83.8 0 1 149.10 233.98
  L 154.78 232.81
  Z"
/>
</svg>