<?xml version="1.0" encoding="UTF-8" standalone="no"?>
<!DOCTYPE svg PUBLIC "-//W3C//DTD SVG 1.1//EN" "http://www.w3.org/Graphics/SVG/1.1/DTD/svg11.dtd">
<svg xmlns="http://www.w3.org/2000/svg" version="1.1" viewBox="0.00 0.00 300.00 300.00" width="128" height="128">
<path fill="#0297a7" d="
  M 224.47 47.74
  L 267.79 48.14
  A 2.53 2.53 0.0 0 1 269.30 52.68
  L 234.75 78.83
  A 2.53 2.53 0.0 0 0 233.86 81.61
  L 246.88 122.93
  A 2.53 2.53 0.0 0 1 243.02 125.77
  L 207.47 100.99
  A 2.53 2.53 0.0 0 0 204.56 101.00
  L 169.28 126.15
  A 2.53 2.53 0.0 0 1 165.39 123.36
  L 177.97 81.90
  A 2.53 2.53 0.0 0 0 177.05 79.13
  L 142.23 53.35
  A 2.53 2.53 0.0 0 1 143.69 48.79
  L 187.01 47.94
  A 2.53 2.53 0.0 0 0 189.36 46.21
  L 203.12 5.13
  A 2.53 2.53 0.0 0 1 207.91 5.11
  L 222.10 46.04
  A 2.53 2.53 0.0 0 0 224.47 47.74
  Z"
/>
<path fill="#f33868" d="
  M 110.52 260.72
  A 0.25 0.25 0.0 0 0 110.95 260.89
  Q 126.91 243.81 136.12 233.87
  C 140.39 229.26 142.57 226.70 148.79 226.69
  Q 193.53 226.69 227.77 226.71
  A 0.68 0.67 -0.4 0 0 228.45 226.03
  Q 228.38 188.55 228.45 141.75
  Q 228.45 140.19 229.16 139.32
  A 2.50 2.23 35.5 0 1 232.31 138.98
  Q 234.47 140.38 246.29 148.96
  A 3.31 3.30 18.1 0 1 247.65 151.63
  Q 247.75 198.20 247.60 228.88
  C 247.56 237.98 238.68 245.95 229.49 246.00
  Q 195.76 246.20 152.92 246.03
  A 3.50 3.50 0.0 0 0 150.32 247.16
  Q 140.34 258.03 109.48 290.93
  C 102.66 298.19 91.24 293.74 91.23 283.74
  Q 91.21 252.39 91.17 249.57
  C 91.13 246.76 89.26 246.29 86.69 246.31
  Q 73.88 246.37 68.52 246.27
  C 57.04 246.05 48.88 237.40 48.89 226.00
  Q 48.94 150.80 48.88 70.70
  Q 48.87 63.06 50.13 59.95
  Q 53.32 52.08 61.43 48.70
  Q 64.94 47.23 72.24 47.39
  Q 76.03 47.47 102.73 47.42
  A 4.87 4.87 0.0 0 1 105.61 48.34
  Q 123.96 61.44 125.73 62.75
  Q 127.56 64.11 127.24 65.29
  A 2.13 2.01 6.9 0 1 125.22 66.78
  Q 76.74 66.83 68.73 66.78
  A 0.48 0.48 0.0 0 0 68.24 67.26
  L 68.24 226.42
  A 0.51 0.51 0.0 0 0 68.75 226.93
  Q 94.68 226.89 95.51 226.86
  Q 102.80 226.55 105.74 228.39
  Q 110.59 231.41 110.57 238.01
  Q 110.55 253.85 110.52 260.72
  Z"
/>
</svg>