<?xml version="1.0" encoding="UTF-8" standalone="no"?>
<!DOCTYPE svg PUBLIC "-//W3C//DTD SVG 1.1//EN" "http://www.w3.org/Graphics/SVG/1.1/DTD/svg11.dtd">
<svg xmlns="http://www.w3.org/2000/svg" version="1.1" viewBox="0.00 0.00 256.00 256.00" width="128" height="128">
<path fill="#695fa8" d="
  M 199.19 30.01
  C 199.58 26.08 197.17 24.28 196.34 20.90
  Q 195.08 15.71 196.21 12.22
  Q 196.90 10.09 200.16 6.40
  C 205.57 0.27 212.78 -1.77 218.58 5.93
  C 221.23 9.45 222.63 11.67 224.09 15.81
  Q 233.34 42.20 238.21 56.77
  C 241.12 65.48 242.47 75.42 231.60 79.08
  Q 226.81 80.69 221.31 81.36
  Q 203.98 83.47 189.70 85.47
  C 185.93 86.00 182.25 86.03 178.28 86.44
  C 174.08 86.86 169.70 85.50 166.81 82.62
  A 4.83 4.65 -83.7 0 1 166.07 81.66
  Q 164.96 79.79 163.04 73.68
  C 161.76 69.64 164.63 66.37 167.17 62.72
  C 170.05 58.57 174.63 59.02 179.07 58.34
  A 1.22 1.22 0.0 0 0 180.06 56.81
  C 179.31 54.07 174.15 52.50 171.87 50.96
  Q 167.37 47.91 163.55 46.69
  C 153.71 43.58 143.48 40.63 133.52 40.17
  Q 110.24 39.10 89.55 48.74
  C 60.59 62.23 41.20 88.56 36.60 120.50
  C 32.24 150.75 44.02 181.64 66.92 201.98
  Q 88.12 220.82 117.04 224.69
  Q 128.57 226.24 138.96 224.86
  C 148.29 223.63 158.57 221.08 167.09 217.04
  Q 200.59 201.16 215.12 166.11
  C 217.35 160.71 219.16 154.40 218.81 148.44
  A 1.35 1.35 0.0 0 0 217.00 147.26
  C 213.32 148.62 210.49 147.63 206.77 147.78
  Q 190.87 148.43 171.79 148.22
  Q 165.26 148.14 153.09 150.79
  C 150.26 151.40 149.03 151.31 146.66 150.11
  A 2.00 1.65 30.0 0 0 144.29 150.51
  Q 143.28 151.97 143.13 154.02
  Q 141.58 175.36 142.08 191.27
  Q 142.27 197.31 139.43 203.72
  C 138.11 206.70 137.50 207.67 134.35 208.79
  Q 125.30 212.02 116.57 206.83
  A 4.73 4.73 0.0 0 1 114.46 204.13
  C 113.18 199.84 112.62 196.10 112.56 191.60
  Q 112.45 183.44 112.49 174.05
  C 112.52 168.17 111.56 160.93 111.02 155.99
  C 110.73 153.34 109.66 148.70 106.74 147.96
  C 104.92 147.51 102.66 148.14 101.05 148.12
  Q 63.67 147.56 60.81 147.45
  C 55.55 147.26 49.32 145.54 47.17 140.36
  C 44.08 132.90 44.75 122.16 53.70 119.42
  Q 58.10 118.07 62.50 118.05
  Q 85.11 117.98 108.00 117.23
  C 111.86 117.11 111.89 114.67 112.28 111.15
  C 113.76 98.14 113.13 85.64 113.42 72.76
  C 113.70 60.36 121.52 53.51 134.13 56.61
  C 139.53 57.94 143.05 67.12 143.17 71.76
  Q 143.57 87.55 142.71 116.19
  Q 142.62 119.03 146.04 119.17
  C 156.84 119.61 165.80 120.15 176.33 120.12
  Q 217.05 120.01 228.90 120.12
  C 235.13 120.18 241.19 120.69 245.25 124.52
  Q 249.92 128.90 249.94 136.01
  Q 249.97 149.92 246.28 163.81
  Q 239.90 187.76 225.04 206.97
  Q 202.76 235.77 166.74 248.54
  Q 164.04 249.50 144.73 254.45
  Q 142.93 254.90 139.79 255.02
  C 128.35 255.45 118.44 255.85 108.19 253.53
  C 90.17 249.45 72.07 242.40 57.12 231.38
  Q 21.90 205.41 10.61 163.13
  C 7.42 151.18 6.76 138.51 7.28 125.75
  C 10.11 57.21 71.50 5.43 139.19 11.44
  Q 165.14 13.74 188.29 26.85
  C 191.56 28.70 194.60 32.19 198.59 30.77
  A 0.91 0.91 0.0 0 0 199.19 30.01
  Z"
/>
</svg>