<?xml version="1.0" encoding="UTF-8" standalone="no"?>
<!DOCTYPE svg PUBLIC "-//W3C//DTD SVG 1.1//EN" "http://www.w3.org/Graphics/SVG/1.1/DTD/svg11.dtd">
<svg xmlns="http://www.w3.org/2000/svg" version="1.1" viewBox="0.00 0.00 180.00 180.00" width="128" height="128">
<path stroke="#f39594" stroke-width="2.00" fill="none" stroke-linecap="butt" vector-effect="non-scaling-stroke" d="
  M 74.27 149.75
  L 90.28 165.76
  A 0.42 0.42 0.0 0 0 90.88 165.76
  Q 106.82 149.96 130.36 126.26
  Q 138.51 118.07 141.76 112.54
  C 159.75 81.98 148.53 41.57 115.97 26.32
  C 85.61 12.09 48.89 25.15 35.03 55.74
  C 26.57 74.41 28.08 95.42 38.57 112.93
  Q 41.96 118.59 51.89 128.47
  Q 66.00 142.50 67.58 144.13
  A 0.62 0.61 -44.7 0 0 68.45 144.13
  L 107.96 104.62
  A 0.39 0.39 0.0 0 0 107.96 104.06
  L 91.77 87.87
  A 0.62 0.61 -44.7 0 0 90.90 87.87
  L 68.26 110.50
  A 0.43 0.43 0.0 0 1 67.66 110.52
  Q 63.06 106.45 59.55 101.32
  C 50.77 88.43 51.54 71.29 60.48 59.26
  C 74.37 40.55 102.06 39.14 117.56 56.82
  C 127.78 68.47 129.36 85.60 122.06 98.93
  Q 119.51 103.58 110.29 112.63
  Q 92.21 130.38 74.27 148.76
  A 0.71 0.70 -45.3 0 0 74.27 149.75"
/>
<path fill="#ffffff" d="
  M 180.00 0.00
  L 180.00 180.00
  L 0.00 180.00
  L 0.00 0.00
  L 180.00 0.00
  Z
  M 74.27 149.75
  L 90.28 165.76
  A 0.42 0.42 0.0 0 0 90.88 165.76
  Q 106.82 149.96 130.36 126.26
  Q 138.51 118.07 141.76 112.54
  C 159.75 81.98 148.53 41.57 115.97 26.32
  C 85.61 12.09 48.89 25.15 35.03 55.74
  C 26.57 74.41 28.08 95.42 38.57 112.93
  Q 41.96 118.59 51.89 128.47
  Q 66.00 142.50 67.58 144.13
  A 0.62 0.61 -44.7 0 0 68.45 144.13
  L 107.96 104.62
  A 0.39 0.39 0.0 0 0 107.96 104.06
  L 91.77 87.87
  A 0.62 0.61 -44.7 0 0 90.90 87.87
  L 68.26 110.50
  A 0.43 0.43 0.0 0 1 67.66 110.52
  Q 63.06 106.45 59.55 101.32
  C 50.77 88.43 51.54 71.29 60.48 59.26
  C 74.37 40.55 102.06 39.14 117.56 56.82
  C 127.78 68.47 129.36 85.60 122.06 98.93
  Q 119.51 103.58 110.29 112.63
  Q 92.21 130.38 74.27 148.76
  A 0.71 0.70 -45.3 0 0 74.27 149.75
  Z"
/>
<path fill="#e62b28" d="
  M 74.27 148.76
  Q 92.21 130.38 110.29 112.63
  Q 119.51 103.58 122.06 98.93
  C 129.36 85.60 127.78 68.47 117.56 56.82
  C 102.06 39.14 74.37 40.55 60.48 59.26
  C 51.54 71.29 50.77 88.43 59.55 101.32
  Q 63.06 106.45 67.66 110.52
  A 0.43 0.43 0.0 0 0 68.26 110.50
  L 90.90 87.87
  A 0.62 0.61 -44.7 0 1 91.77 87.87
  L 107.96 104.06
  A 0.39 0.39 0.0 0 1 107.96 104.62
  L 68.45 144.13
  A 0.62 0.61 -44.7 0 1 67.58 144.13
  Q 66.00 142.50 51.89 128.47
  Q 41.96 118.59 38.57 112.93
  C 28.08 95.42 26.57 74.41 35.03 55.74
  C 48.89 25.15 85.61 12.09 115.97 26.32
  C 148.53 41.57 159.75 81.98 141.76 112.54
  Q 138.51 118.07 130.36 126.26
  Q 106.82 149.96 90.88 165.76
  A 0.42 0.42 0.0 0 1 90.28 165.76
  L 74.27 149.75
  A 0.71 0.70 -45.3 0 1 74.27 148.76
  Z"
/>
</svg>