<?xml version="1.0" encoding="UTF-8" standalone="no"?>
<!DOCTYPE svg PUBLIC "-//W3C//DTD SVG 1.1//EN" "http://www.w3.org/Graphics/SVG/1.1/DTD/svg11.dtd">
<svg xmlns="http://www.w3.org/2000/svg" version="1.1" viewBox="0.00 0.00 256.00 256.00" width="128" height="128">
<g stroke-width="2.00" fill="none" stroke-linecap="butt">
<path stroke="#808080" vector-effect="non-scaling-stroke" d="
  M 177.89 16.82
  C 174.79 16.04 172.46 14.62 169.31 13.59
  Q 137.77 3.20 105.77 9.45
  C 70.65 16.29 40.21 39.19 22.95 70.25
  Q 7.09 98.81 7.90 132.31
  C 9.81 210.98 85.33 266.94 161.24 246.84
  C 165.56 245.69 170.57 243.48 174.12 243.11
  A 0.64 0.63 72.8 0 0 174.61 242.17
  Q 174.39 241.77 173.88 241.40
  C 168.48 237.41 162.68 233.23 157.24 228.63
  C 151.68 223.93 145.51 219.33 140.06 214.14
  A 0.63 0.62 -43.1 0 0 139.23 214.12
  C 131.52 220.66 122.83 225.67 112.50 225.79
  Q 105.52 225.88 103.80 225.60
  C 95.38 224.24 86.66 218.30 85.65 209.22
  Q 84.17 196.01 95.49 188.55
  C 101.91 184.31 106.54 184.80 115.10 184.80
  Q 122.10 184.81 129.22 187.14
  A 1.24 1.24 0.0 0 0 130.78 186.38
  Q 135.52 173.03 137.84 158.70
  A 0.19 0.18 -9.3 0 0 137.57 158.51
  Q 124.52 165.36 110.08 162.72
  C 92.13 159.43 79.90 145.78 75.76 128.50
  Q 73.26 118.06 73.54 109.26
  Q 73.92 97.55 76.79 85.58
  C 83.68 56.87 105.26 29.62 135.27 24.07
  Q 140.45 23.11 153.93 23.82
  A 6.13 6.09 57.1 0 1 155.90 24.25
  L 157.88 25.04
  A 1.41 1.39 -46.6 0 0 158.99 25.00
  C 165.40 22.01 170.90 18.88 177.87 17.42
  A 0.31 0.31 0.0 0 0 177.89 16.82"
/>
<path stroke="#808080" vector-effect="non-scaling-stroke" d="
  M 142.39 40.43
  A 0.84 0.84 0.0 0 0 141.61 39.04
  C 130.01 41.47 122.04 51.99 117.30 62.61
  C 109.96 79.07 108.07 96.45 109.69 114.26
  Q 110.26 120.42 112.21 127.07
  C 113.90 132.81 119.09 139.98 125.44 141.56
  C 136.47 144.31 146.06 137.53 152.86 128.83
  Q 154.22 127.10 157.67 121.94
  A 0.94 0.94 0.0 0 1 158.72 121.57
  Q 163.95 123.21 171.02 124.47
  Q 171.78 124.61 175.99 126.64
  A 0.62 0.61 24.9 0 1 176.29 127.45
  Q 175.06 130.13 173.20 139.74
  Q 172.01 145.90 168.01 160.04
  Q 162.35 180.11 152.42 197.58
  A 0.75 0.73 31.9 0 0 152.66 198.57
  C 154.81 200.00 157.12 200.79 159.84 202.43
  Q 168.54 207.66 176.63 212.55
  C 185.71 218.04 194.04 221.61 202.83 224.11
  A 4.67 4.66 -56.0 0 0 206.98 223.30
  Q 212.41 219.07 217.57 213.58
  Q 242.43 187.21 249.53 152.28
  C 251.58 142.21 251.48 134.65 251.46 123.90
  Q 251.45 113.97 248.86 102.74
  Q 241.09 68.97 216.93 43.89
  C 212.61 39.40 206.78 34.96 202.37 32.65
  C 193.86 28.19 185.43 29.55 175.88 31.83
  Q 173.67 32.35 172.69 33.52
  A 0.73 0.72 44.0 0 0 172.71 34.47
  Q 181.13 43.80 181.36 59.00
  Q 181.60 75.32 176.35 87.84
  C 171.63 99.11 162.32 110.68 149.79 112.66
  Q 133.40 115.25 126.86 100.46
  Q 124.79 95.79 124.28 91.01
  C 122.34 72.78 128.15 57.19 139.94 42.35
  C 140.62 41.48 141.86 41.01 142.39 40.43"
/>
<path stroke="#808080" vector-effect="non-scaling-stroke" d="
  M 158.16 42.44
  A 0.30 0.30 0.0 0 0 157.73 42.43
  Q 140.61 58.26 138.11 81.49
  Q 137.43 87.85 141.07 96.36
  A 2.67 2.61 -83.8 0 0 141.91 97.43
  C 146.19 100.62 152.25 98.43 155.36 94.84
  Q 160.66 88.73 162.90 79.88
  Q 165.77 68.60 164.88 57.78
  Q 164.15 48.74 158.16 42.44"
/>
<path stroke="#808080" vector-effect="non-scaling-stroke" d="
  M 122.04 202.24
  A 0.56 0.56 0.0 0 0 121.77 201.36
  L 110.08 197.69
  A 1.09 1.00 47.7 0 0 109.76 197.66
  C 105.28 197.94 98.53 200.30 101.27 206.13
  A 2.34 2.32 3.9 0 0 102.15 207.13
  Q 104.50 208.58 106.52 208.81
  Q 116.12 209.87 122.04 202.24"
/>
</g>
<path fill="#ffffff" d="
  M 256.00 5.84
  L 256.00 256.00
  L 0.00 256.00
  L 0.00 6.62
  Q -0.20 5.48 1.63 5.65
  Q 3.65 5.84 3.89 5.83
  Q 52.07 5.73 100.91 5.71
  C 112.91 5.70 125.34 3.79 136.99 4.87
  Q 144.56 5.56 148.28 5.58
  Q 202.15 5.75 256.00 5.84
  Z
  M 177.89 16.82
  C 174.79 16.04 172.46 14.62 169.31 13.59
  Q 137.77 3.20 105.77 9.45
  C 70.65 16.29 40.21 39.19 22.95 70.25
  Q 7.09 98.81 7.90 132.31
  C 9.81 210.98 85.33 266.94 161.24 246.84
  C 165.56 245.69 170.57 243.48 174.12 243.11
  A 0.64 0.63 72.8 0 0 174.61 242.17
  Q 174.39 241.77 173.88 241.40
  C 168.48 237.41 162.68 233.23 157.24 228.63
  C 151.68 223.93 145.51 219.33 140.06 214.14
  A 0.63 0.62 -43.1 0 0 139.23 214.12
  C 131.52 220.66 122.83 225.67 112.50 225.79
  Q 105.52 225.88 103.80 225.60
  C 95.38 224.24 86.66 218.30 85.65 209.22
  Q 84.17 196.01 95.49 188.55
  C 101.91 184.31 106.54 184.80 115.10 184.80
  Q 122.10 184.81 129.22 187.14
  A 1.24 1.24 0.0 0 0 130.78 186.38
  Q 135.52 173.03 137.84 158.70
  A 0.19 0.18 -9.3 0 0 137.57 158.51
  Q 124.52 165.36 110.08 162.72
  C 92.13 159.43 79.90 145.78 75.76 128.50
  Q 73.26 118.06 73.54 109.26
  Q 73.92 97.55 76.79 85.58
  C 83.68 56.87 105.26 29.62 135.27 24.07
  Q 140.45 23.11 153.93 23.82
  A 6.13 6.09 57.1 0 1 155.90 24.25
  L 157.88 25.04
  A 1.41 1.39 -46.6 0 0 158.99 25.00
  C 165.40 22.01 170.90 18.88 177.87 17.42
  A 0.31 0.31 0.0 0 0 177.89 16.82
  Z
  M 142.39 40.43
  A 0.84 0.84 0.0 0 0 141.61 39.04
  C 130.01 41.47 122.04 51.99 117.30 62.61
  C 109.96 79.07 108.07 96.45 109.69 114.26
  Q 110.26 120.42 112.21 127.07
  C 113.90 132.81 119.09 139.98 125.44 141.56
  C 136.47 144.31 146.06 137.53 152.86 128.83
  Q 154.22 127.10 157.67 121.94
  A 0.94 0.94 0.0 0 1 158.72 121.57
  Q 163.95 123.21 171.02 124.47
  Q 171.78 124.61 175.99 126.64
  A 0.62 0.61 24.9 0 1 176.29 127.45
  Q 175.06 130.13 173.20 139.74
  Q 172.01 145.90 168.01 160.04
  Q 162.35 180.11 152.42 197.58
  A 0.75 0.73 31.9 0 0 152.66 198.57
  C 154.81 200.00 157.12 200.79 159.84 202.43
  Q 168.54 207.66 176.63 212.55
  C 185.71 218.04 194.04 221.61 202.83 224.11
  A 4.67 4.66 -56.0 0 0 206.98 223.30
  Q 212.41 219.07 217.57 213.58
  Q 242.43 187.21 249.53 152.28
  C 251.58 142.21 251.48 134.65 251.46 123.90
  Q 251.45 113.97 248.86 102.74
  Q 241.09 68.97 216.93 43.89
  C 212.61 39.40 206.78 34.96 202.37 32.65
  C 193.86 28.19 185.43 29.55 175.88 31.83
  Q 173.67 32.35 172.69 33.52
  A 0.73 0.72 44.0 0 0 172.71 34.47
  Q 181.13 43.80 181.36 59.00
  Q 181.60 75.32 176.35 87.84
  C 171.63 99.11 162.32 110.68 149.79 112.66
  Q 133.40 115.25 126.86 100.46
  Q 124.79 95.79 124.28 91.01
  C 122.34 72.78 128.15 57.19 139.94 42.35
  C 140.62 41.48 141.86 41.01 142.39 40.43
  Z
  M 158.16 42.44
  A 0.30 0.30 0.0 0 0 157.73 42.43
  Q 140.61 58.26 138.11 81.49
  Q 137.43 87.85 141.07 96.36
  A 2.67 2.61 -83.8 0 0 141.91 97.43
  C 146.19 100.62 152.25 98.43 155.36 94.84
  Q 160.66 88.73 162.90 79.88
  Q 165.77 68.60 164.88 57.78
  Q 164.15 48.74 158.16 42.44
  Z
  M 122.04 202.24
  A 0.56 0.56 0.0 0 0 121.77 201.36
  L 110.08 197.69
  A 1.09 1.00 47.7 0 0 109.76 197.66
  C 105.28 197.94 98.53 200.30 101.27 206.13
  A 2.34 2.32 3.9 0 0 102.15 207.13
  Q 104.50 208.58 106.52 208.81
  Q 116.12 209.87 122.04 202.24
  Z"
/>
<path fill="#000000" d="
  M 177.89 16.82
  A 0.31 0.31 0.0 0 1 177.87 17.42
  C 170.90 18.88 165.40 22.01 158.99 25.00
  A 1.41 1.39 -46.6 0 1 157.88 25.04
  L 155.90 24.25
  A 6.13 6.09 57.1 0 0 153.93 23.82
  Q 140.45 23.11 135.27 24.07
  C 105.26 29.62 83.68 56.87 76.79 85.58
  Q 73.92 97.55 73.54 109.26
  Q 73.26 118.06 75.76 128.50
  C 79.90 145.78 92.13 159.43 110.08 162.72
  Q 124.52 165.36 137.57 158.51
  A 0.19 0.18 -9.3 0 1 137.84 158.70
  Q 135.52 173.03 130.78 186.38
  A 1.24 1.24 0.0 0 1 129.22 187.14
  Q 122.10 184.81 115.10 184.80
  C 106.54 184.80 101.91 184.31 95.49 188.55
  Q 84.17 196.01 85.65 209.22
  C 86.66 218.30 95.38 224.24 103.80 225.60
  Q 105.52 225.88 112.50 225.79
  C 122.83 225.67 131.52 220.66 139.23 214.12
  A 0.63 0.62 -43.1 0 1 140.06 214.14
  C 145.51 219.33 151.68 223.93 157.24 228.63
  C 162.68 233.23 168.48 237.41 173.88 241.40
  Q 174.39 241.77 174.61 242.17
  A 0.64 0.63 72.8 0 1 174.12 243.11
  C 170.57 243.48 165.56 245.69 161.24 246.84
  C 85.33 266.94 9.81 210.98 7.90 132.31
  Q 7.09 98.81 22.95 70.25
  C 40.21 39.19 70.65 16.29 105.77 9.45
  Q 137.77 3.20 169.31 13.59
  C 172.46 14.62 174.79 16.04 177.89 16.82
  Z"
/>
<path fill="#000000" d="
  M 142.39 40.43
  C 141.86 41.01 140.62 41.48 139.94 42.35
  C 128.15 57.19 122.34 72.78 124.28 91.01
  Q 124.79 95.79 126.86 100.46
  Q 133.40 115.25 149.79 112.66
  C 162.32 110.68 171.63 99.11 176.35 87.84
  Q 181.60 75.32 181.36 59.00
  Q 181.13 43.80 172.71 34.47
  A 0.73 0.72 44.0 0 1 172.69 33.52
  Q 173.67 32.35 175.88 31.83
  C 185.43 29.55 193.86 28.19 202.37 32.65
  C 206.78 34.96 212.61 39.40 216.93 43.89
  Q 241.09 68.97 248.86 102.74
  Q 251.45 113.97 251.46 123.90
  C 251.48 134.65 251.58 142.21 249.53 152.28
  Q 242.43 187.21 217.57 213.58
  Q 212.41 219.07 206.98 223.30
  A 4.67 4.66 -56.0 0 1 202.83 224.11
  C 194.04 221.61 185.71 218.04 176.63 212.55
  Q 168.54 207.66 159.84 202.43
  C 157.12 200.79 154.81 200.00 152.66 198.57
  A 0.75 0.73 31.9 0 1 152.42 197.58
  Q 162.35 180.11 168.01 160.04
  Q 172.01 145.90 173.20 139.74
  Q 175.06 130.13 176.29 127.45
  A 0.62 0.61 24.9 0 0 175.99 126.64
  Q 171.78 124.61 171.02 124.47
  Q 163.95 123.21 158.72 121.57
  A 0.94 0.94 0.0 0 0 157.67 121.94
  Q 154.22 127.10 152.86 128.83
  C 146.06 137.53 136.47 144.31 125.44 141.56
  C 119.09 139.98 113.90 132.81 112.21 127.07
  Q 110.26 120.42 109.69 114.26
  C 108.07 96.45 109.96 79.07 117.30 62.61
  C 122.04 51.99 130.01 41.47 141.61 39.04
  A 0.84 0.84 0.0 0 1 142.39 40.43
  Z"
/>
<path fill="#000000" d="
  M 158.16 42.44
  Q 164.15 48.74 164.88 57.78
  Q 165.77 68.60 162.90 79.88
  Q 160.66 88.73 155.36 94.84
  C 152.25 98.43 146.19 100.62 141.91 97.43
  A 2.67 2.61 -83.8 0 1 141.07 96.36
  Q 137.43 87.85 138.11 81.49
  Q 140.61 58.26 157.73 42.43
  A 0.30 0.30 0.0 0 1 158.16 42.44
  Z"
/>
<path fill="#000000" d="
  M 122.04 202.24
  Q 116.12 209.87 106.52 208.81
  Q 104.50 208.58 102.15 207.13
  A 2.34 2.32 3.9 0 1 101.27 206.13
  C 98.53 200.30 105.28 197.94 109.76 197.66
  A 1.09 1.00 47.7 0 1 110.08 197.69
  L 121.77 201.36
  A 0.56 0.56 0.0 0 1 122.04 202.24
  Z"
/>
</svg>