<?xml version="1.0" encoding="UTF-8" standalone="no"?>
<!DOCTYPE svg PUBLIC "-//W3C//DTD SVG 1.1//EN" "http://www.w3.org/Graphics/SVG/1.1/DTD/svg11.dtd">
<svg xmlns="http://www.w3.org/2000/svg" version="1.1" viewBox="0.00 0.00 128.00 128.00" width="128" height="128">
<g stroke-width="2.00" fill="none" stroke-linecap="butt">
<path stroke="#808080" vector-effect="non-scaling-stroke" d="
  M 115.97 48.59
  Q 118.31 48.33 120.19 46.14
  A 2.14 2.12 -19.1 0 0 120.66 45.18
  Q 121.34 42.01 118.15 40.60
  C 113.70 38.63 109.79 38.56 105.88 37.84
  A 1.01 1.00 -4.0 0 1 105.12 37.19
  Q 101.13 26.07 91.33 20.46
  Q 83.30 15.86 71.04 15.83
  C 54.99 15.79 39.63 20.93 29.83 33.57
  Q 27.12 37.06 24.81 43.23
  A 0.57 0.56 24.0 0 1 24.01 43.53
  Q 23.82 43.43 23.74 43.03
  Q 23.64 42.56 22.91 42.23
  Q 20.72 41.27 11.79 36.69
  A 4.25 3.77 61.4 0 0 10.82 36.34
  C 6.33 35.39 5.00 37.93 5.40 42.28
  Q 6.00 48.79 6.50 51.25
  A 2.02 1.95 -71.5 0 0 6.93 52.15
  C 8.63 54.15 14.89 55.70 16.11 56.10
  A 1.15 1.12 -86.3 0 1 16.87 56.99
  L 17.47 60.47
  A 0.84 0.83 -22.8 0 1 17.12 61.31
  Q 15.91 62.12 15.60 62.60
  Q 8.42 73.65 14.55 85.49
  Q 17.89 91.92 24.52 94.13
  Q 26.22 94.69 30.78 94.23
  A 0.95 0.94 -22.1 0 1 31.61 94.58
  Q 40.96 106.83 56.73 110.46
  Q 79.99 115.80 100.66 105.44
  Q 114.18 98.66 118.24 84.75
  Q 122.29 70.87 117.92 54.68
  A 1.00 0.66 33.7 0 0 117.87 54.56
  L 115.52 49.39
  A 0.57 0.56 74.7 0 1 115.97 48.59"
/>
<path stroke="#808080" vector-effect="non-scaling-stroke" d="
  M 109.04 48.00
  Q 110.72 50.28 110.99 51.54
  Q 111.94 56.01 112.69 58.80
  Q 113.45 61.60 113.63 70.82
  C 113.78 78.39 113.03 85.80 105.32 89.13
  Q 88.19 96.54 69.00 95.22
  Q 57.01 94.39 53.86 83.39
  Q 51.62 75.62 51.31 63.50
  C 51.27 61.88 51.61 60.47 52.23 58.70
  A 0.58 0.58 0.0 0 0 51.71 57.93
  Q 50.10 57.85 48.69 57.16
  A 0.76 0.76 0.0 0 1 48.40 56.05
  L 48.42 56.02
  A 1.06 1.05 -62.4 0 1 49.66 55.62
  Q 52.61 56.75 56.01 56.57
  Q 60.99 56.29 64.63 55.38
  Q 72.97 53.27 87.36 49.34
  Q 93.36 47.70 116.78 45.18
  Q 117.92 45.06 118.55 44.39
  A 0.88 0.88 0.0 0 0 118.42 43.07
  Q 116.60 41.75 113.82 41.14
  Q 104.16 39.03 94.20 39.07
  C 92.54 39.08 90.97 39.45 89.69 39.19
  A 0.95 0.93 -2.0 0 1 88.99 38.55
  C 86.59 30.66 83.79 24.31 77.37 19.03
  A 1.14 1.13 -22.6 0 0 76.75 18.78
  L 71.15 18.38
  Q 71.10 18.38 71.05 18.38
  L 62.71 19.23
  A 0.48 0.47 46.9 0 0 62.68 20.17
  Q 63.31 20.29 64.97 21.30
  Q 70.29 24.56 73.53 29.95
  Q 76.15 34.32 78.01 40.39
  A 0.59 0.58 74.4 0 1 77.60 41.13
  Q 68.94 43.43 62.57 46.82
  A 0.34 0.33 -22.8 0 1 62.09 46.63
  Q 60.10 40.39 56.78 34.74
  Q 55.43 32.44 51.04 28.22
  A 2.61 2.50 -11.1 0 0 50.18 27.67
  C 48.00 26.82 45.32 24.17 42.32 26.05
  Q 28.52 34.73 25.76 50.29
  Q 25.11 53.91 25.69 57.12
  A 0.72 0.72 0.0 0 0 26.35 57.71
  C 42.45 59.02 47.19 83.91 34.50 92.50
  A 0.54 0.53 56.9 0 0 34.35 93.24
  Q 36.32 96.36 37.57 97.46
  Q 47.46 106.15 60.43 108.43
  Q 82.12 112.25 100.70 102.17
  Q 114.00 94.95 116.53 80.05
  Q 118.27 69.83 116.48 60.49
  Q 115.21 53.93 111.24 47.64
  A 0.44 0.42 69.5 0 0 110.83 47.44
  L 109.22 47.60
  A 0.26 0.25 -21.3 0 0 109.04 48.00"
/>
<path stroke="#808080" vector-effect="non-scaling-stroke" d="
  M 9.38 38.69
  A 0.05 0.03 -80.8 0 0 9.40 38.73
  L 16.16 42.21
  A 3.16 2.94 76.8 0 1 16.74 42.60
  Q 17.88 43.61 19.53 44.01
  A 1.18 1.18 0.0 0 1 20.42 45.03
  L 23.02 70.45
  A 1.01 1.01 0.0 0 0 23.23 70.97
  L 25.77 74.40
  A 2.77 2.55 -76.4 0 1 26.07 74.94
  Q 27.76 79.36 24.92 82.60
  A 0.44 0.44 0.0 0 0 25.44 83.28
  Q 30.38 80.82 28.15 74.44
  A 1.40 1.34 -74.7 0 0 27.96 74.09
  L 25.46 70.80
  A 1.94 1.93 -66.6 0 1 25.06 69.78
  Q 24.31 61.61 22.73 46.01
  Q 22.51 43.80 20.39 43.10
  Q 17.94 42.30 9.87 37.98
  A 0.30 0.29 17.4 0 0 9.44 38.20
  L 9.38 38.69"
/>
<path stroke="#808080" vector-effect="non-scaling-stroke" d="
  M 106.17 64.28
  A 6.35 6.35 0.0 0 0 99.82 57.93
  A 6.35 6.35 0.0 0 0 93.47 64.28
  A 6.35 6.35 0.0 0 0 99.82 70.63
  A 6.35 6.35 0.0 0 0 106.17 64.28"
/>
<path stroke="#808080" vector-effect="non-scaling-stroke" d="
  M 17.76 64.73
  Q 16.64 65.83 15.78 68.25
  Q 13.43 74.83 15.91 81.87
  Q 18.78 90.02 27.13 91.80
  A 2.74 2.71 45.3 0 0 28.19 91.81
  Q 36.91 90.19 38.54 81.16
  Q 40.60 69.81 32.09 62.65
  C 30.50 61.31 28.88 60.76 26.89 60.46
  A 0.61 0.60 1.1 0 0 26.20 61.12
  L 27.07 69.61
  A 1.23 1.23 0.0 0 0 27.45 70.37
  Q 31.42 74.08 30.42 80.01
  Q 29.60 84.83 24.72 84.95
  A 3.05 2.93 -35.6 0 1 23.75 84.81
  C 18.36 83.09 17.18 76.70 19.02 72.04
  A 0.69 0.62 57.7 0 0 19.07 71.74
  L 18.37 64.95
  A 0.36 0.36 0.0 0 0 17.76 64.73"
/>
<path stroke="#808080" vector-effect="non-scaling-stroke" d="
  M 78.07 69.38
  A 6.68 6.68 0.0 0 0 71.39 62.70
  A 6.68 6.68 0.0 0 0 64.71 69.38
  A 6.68 6.68 0.0 0 0 71.39 76.06
  A 6.68 6.68 0.0 0 0 78.07 69.38"
/>
</g>
<path fill="#ffffff" d="
  M 0.00 41.49
  L 0.00 38.63
  L 1.51 34.93
  A 1.94 1.91 78.3 0 1 1.91 34.31
  Q 7.19 28.75 14.02 32.21
  Q 21.42 35.96 21.58 36.05
  A 0.52 0.52 0.0 0 0 22.27 35.86
  Q 26.35 29.16 27.53 27.99
  Q 36.24 19.25 45.05 15.57
  C 58.92 9.78 79.41 8.23 92.61 15.46
  Q 103.23 21.28 108.42 32.30
  A 1.88 1.87 -10.7 0 0 110.00 33.37
  Q 115.23 33.68 119.85 35.90
  Q 125.98 38.83 125.60 45.44
  A 3.15 3.12 -32.2 0 1 125.36 46.48
  Q 124.16 49.30 121.82 51.10
  A 0.87 0.86 61.4 0 0 121.54 52.07
  L 123.85 58.78
  A 1.98 1.97 30.8 0 1 123.95 59.17
  Q 125.08 65.75 124.80 73.78
  Q 123.83 101.15 98.70 111.97
  Q 84.28 118.18 67.04 117.24
  Q 50.16 116.33 36.68 107.09
  Q 32.37 104.13 28.33 98.78
  A 1.82 1.77 -8.0 0 0 27.54 98.20
  C 26.13 97.66 24.67 97.94 23.14 97.47
  Q 16.60 95.45 12.81 89.92
  Q 5.56 79.33 9.26 66.58
  A 3.69 3.22 -27.1 0 1 9.54 65.88
  L 12.06 60.95
  A 0.58 0.57 -66.5 0 0 11.75 60.14
  C 7.55 58.62 3.76 57.99 1.80 53.53
  Q 1.09 51.90 0.71 47.57
  Q 0.44 44.53 0.00 41.49
  Z
  M 115.97 48.59
  Q 118.31 48.33 120.19 46.14
  A 2.14 2.12 -19.1 0 0 120.66 45.18
  Q 121.34 42.01 118.15 40.60
  C 113.70 38.63 109.79 38.56 105.88 37.84
  A 1.01 1.00 -4.0 0 1 105.12 37.19
  Q 101.13 26.07 91.33 20.46
  Q 83.30 15.86 71.04 15.83
  C 54.99 15.79 39.63 20.93 29.83 33.57
  Q 27.12 37.06 24.81 43.23
  A 0.57 0.56 24.0 0 1 24.01 43.53
  Q 23.82 43.43 23.74 43.03
  Q 23.64 42.56 22.91 42.23
  Q 20.72 41.27 11.79 36.69
  A 4.25 3.77 61.4 0 0 10.82 36.34
  C 6.33 35.39 5.00 37.93 5.40 42.28
  Q 6.00 48.79 6.50 51.25
  A 2.02 1.95 -71.5 0 0 6.93 52.15
  C 8.63 54.15 14.89 55.70 16.11 56.10
  A 1.15 1.12 -86.3 0 1 16.87 56.99
  L 17.47 60.47
  A 0.84 0.83 -22.8 0 1 17.12 61.31
  Q 15.91 62.12 15.60 62.60
  Q 8.42 73.65 14.55 85.49
  Q 17.89 91.92 24.52 94.13
  Q 26.22 94.69 30.78 94.23
  A 0.95 0.94 -22.1 0 1 31.61 94.58
  Q 40.96 106.83 56.73 110.46
  Q 79.99 115.80 100.66 105.44
  Q 114.18 98.66 118.24 84.75
  Q 122.29 70.87 117.92 54.68
  A 1.00 0.66 33.7 0 0 117.87 54.56
  L 115.52 49.39
  A 0.57 0.56 74.7 0 1 115.97 48.59
  Z"
/>
<path fill="#000000" d="
  M 115.52 49.39
  L 117.87 54.56
  A 1.00 0.66 33.7 0 1 117.92 54.68
  Q 122.29 70.87 118.24 84.75
  Q 114.18 98.66 100.66 105.44
  Q 79.99 115.80 56.73 110.46
  Q 40.96 106.83 31.61 94.58
  A 0.95 0.94 -22.1 0 0 30.78 94.23
  Q 26.22 94.69 24.52 94.13
  Q 17.89 91.92 14.55 85.49
  Q 8.42 73.65 15.60 62.60
  Q 15.91 62.12 17.12 61.31
  A 0.84 0.83 -22.8 0 0 17.47 60.47
  L 16.87 56.99
  A 1.15 1.12 -86.3 0 0 16.11 56.10
  C 14.89 55.70 8.63 54.15 6.93 52.15
  A 2.02 1.95 -71.5 0 1 6.50 51.25
  Q 6.00 48.79 5.40 42.28
  C 5.00 37.93 6.33 35.39 10.82 36.34
  A 4.25 3.77 61.4 0 1 11.79 36.69
  Q 20.72 41.27 22.91 42.23
  Q 23.64 42.56 23.74 43.03
  Q 23.82 43.43 24.01 43.53
  A 0.57 0.56 24.0 0 0 24.81 43.23
  Q 27.12 37.06 29.83 33.57
  C 39.63 20.93 54.99 15.79 71.04 15.83
  Q 83.30 15.86 91.33 20.46
  Q 101.13 26.07 105.12 37.19
  A 1.01 1.00 -4.0 0 0 105.88 37.84
  C 109.79 38.56 113.70 38.63 118.15 40.60
  Q 121.34 42.01 120.66 45.18
  A 2.14 2.12 -19.1 0 1 120.19 46.14
  Q 118.31 48.33 115.97 48.59
  A 0.57 0.56 74.7 0 0 115.52 49.39
  Z
  M 109.04 48.00
  Q 110.72 50.28 110.99 51.54
  Q 111.94 56.01 112.69 58.80
  Q 113.45 61.60 113.63 70.82
  C 113.78 78.39 113.03 85.80 105.32 89.13
  Q 88.19 96.54 69.00 95.22
  Q 57.01 94.39 53.86 83.39
  Q 51.62 75.62 51.31 63.50
  C 51.27 61.88 51.61 60.47 52.23 58.70
  A 0.58 0.58 0.0 0 0 51.71 57.93
  Q 50.10 57.85 48.69 57.16
  A 0.76 0.76 0.0 0 1 48.40 56.05
  L 48.42 56.02
  A 1.06 1.05 -62.4 0 1 49.66 55.62
  Q 52.61 56.75 56.01 56.57
  Q 60.99 56.29 64.63 55.38
  Q 72.97 53.27 87.36 49.34
  Q 93.36 47.70 116.78 45.18
  Q 117.92 45.06 118.55 44.39
  A 0.88 0.88 0.0 0 0 118.42 43.07
  Q 116.60 41.75 113.82 41.14
  Q 104.16 39.03 94.20 39.07
  C 92.54 39.08 90.97 39.45 89.69 39.19
  A 0.95 0.93 -2.0 0 1 88.99 38.55
  C 86.59 30.66 83.79 24.31 77.37 19.03
  A 1.14 1.13 -22.6 0 0 76.75 18.78
  L 71.15 18.38
  Q 71.10 18.38 71.05 18.38
  L 62.71 19.23
  A 0.48 0.47 46.9 0 0 62.68 20.17
  Q 63.31 20.29 64.97 21.30
  Q 70.29 24.56 73.53 29.95
  Q 76.15 34.32 78.01 40.39
  A 0.59 0.58 74.4 0 1 77.60 41.13
  Q 68.94 43.43 62.57 46.82
  A 0.34 0.33 -22.8 0 1 62.09 46.63
  Q 60.10 40.39 56.78 34.74
  Q 55.43 32.44 51.04 28.22
  A 2.61 2.50 -11.1 0 0 50.18 27.67
  C 48.00 26.82 45.32 24.17 42.32 26.05
  Q 28.52 34.73 25.76 50.29
  Q 25.11 53.91 25.69 57.12
  A 0.72 0.72 0.0 0 0 26.35 57.71
  C 42.45 59.02 47.19 83.91 34.50 92.50
  A 0.54 0.53 56.9 0 0 34.35 93.24
  Q 36.32 96.36 37.57 97.46
  Q 47.46 106.15 60.43 108.43
  Q 82.12 112.25 100.70 102.17
  Q 114.00 94.95 116.53 80.05
  Q 118.27 69.83 116.48 60.49
  Q 115.21 53.93 111.24 47.64
  A 0.44 0.42 69.5 0 0 110.83 47.44
  L 109.22 47.60
  A 0.26 0.25 -21.3 0 0 109.04 48.00
  Z
  M 9.38 38.69
  A 0.05 0.03 -80.8 0 0 9.40 38.73
  L 16.16 42.21
  A 3.16 2.94 76.8 0 1 16.74 42.60
  Q 17.88 43.61 19.53 44.01
  A 1.18 1.18 0.0 0 1 20.42 45.03
  L 23.02 70.45
  A 1.01 1.01 0.0 0 0 23.23 70.97
  L 25.77 74.40
  A 2.77 2.55 -76.4 0 1 26.07 74.94
  Q 27.76 79.36 24.92 82.60
  A 0.44 0.44 0.0 0 0 25.44 83.28
  Q 30.38 80.82 28.15 74.44
  A 1.40 1.34 -74.7 0 0 27.96 74.09
  L 25.46 70.80
  A 1.94 1.93 -66.6 0 1 25.06 69.78
  Q 24.31 61.61 22.73 46.01
  Q 22.51 43.80 20.39 43.10
  Q 17.94 42.30 9.87 37.98
  A 0.30 0.29 17.4 0 0 9.44 38.20
  L 9.38 38.69
  Z
  M 106.17 64.28
  A 6.35 6.35 0.0 0 0 99.82 57.93
  A 6.35 6.35 0.0 0 0 93.47 64.28
  A 6.35 6.35 0.0 0 0 99.82 70.63
  A 6.35 6.35 0.0 0 0 106.17 64.28
  Z
  M 17.76 64.73
  Q 16.64 65.83 15.78 68.25
  Q 13.43 74.83 15.91 81.87
  Q 18.78 90.02 27.13 91.80
  A 2.74 2.71 45.3 0 0 28.19 91.81
  Q 36.91 90.19 38.54 81.16
  Q 40.60 69.81 32.09 62.65
  C 30.50 61.31 28.88 60.76 26.89 60.46
  A 0.61 0.60 1.1 0 0 26.20 61.12
  L 27.07 69.61
  A 1.23 1.23 0.0 0 0 27.45 70.37
  Q 31.42 74.08 30.42 80.01
  Q 29.60 84.83 24.72 84.95
  A 3.05 2.93 -35.6 0 1 23.75 84.81
  C 18.36 83.09 17.18 76.70 19.02 72.04
  A 0.69 0.62 57.7 0 0 19.07 71.74
  L 18.37 64.95
  A 0.36 0.36 0.0 0 0 17.76 64.73
  Z
  M 78.07 69.38
  A 6.68 6.68 0.0 0 0 71.39 62.70
  A 6.68 6.68 0.0 0 0 64.71 69.38
  A 6.68 6.68 0.0 0 0 71.39 76.06
  A 6.68 6.68 0.0 0 0 78.07 69.38
  Z"
/>
<path fill="#ffffff" d="
  M 109.04 48.00
  A 0.26 0.25 -21.3 0 1 109.22 47.60
  L 110.83 47.44
  A 0.44 0.42 69.5 0 1 111.24 47.64
  Q 115.21 53.93 116.48 60.49
  Q 118.27 69.83 116.53 80.05
  Q 114.00 94.95 100.70 102.17
  Q 82.12 112.25 60.43 108.43
  Q 47.46 106.15 37.57 97.46
  Q 36.32 96.36 34.35 93.24
  A 0.54 0.53 56.9 0 1 34.50 92.50
  C 47.19 83.91 42.45 59.02 26.35 57.71
  A 0.72 0.72 0.0 0 1 25.69 57.12
  Q 25.11 53.91 25.76 50.29
  Q 28.52 34.73 42.32 26.05
  C 45.32 24.17 48.00 26.82 50.18 27.67
  A 2.61 2.50 -11.1 0 1 51.04 28.22
  Q 55.43 32.44 56.78 34.74
  Q 60.10 40.39 62.09 46.63
  A 0.34 0.33 -22.8 0 0 62.57 46.82
  Q 68.94 43.43 77.60 41.13
  A 0.59 0.58 74.4 0 0 78.01 40.39
  Q 76.15 34.32 73.53 29.95
  Q 70.29 24.56 64.97 21.30
  Q 63.31 20.29 62.68 20.17
  A 0.48 0.47 46.9 0 1 62.71 19.23
  L 71.05 18.38
  Q 71.10 18.38 71.15 18.38
  L 76.75 18.78
  A 1.14 1.13 -22.6 0 1 77.37 19.03
  C 83.79 24.31 86.59 30.66 88.99 38.55
  A 0.95 0.93 -2.0 0 0 89.69 39.19
  C 90.97 39.45 92.54 39.08 94.20 39.07
  Q 104.16 39.03 113.82 41.14
  Q 116.60 41.75 118.42 43.07
  A 0.88 0.88 0.0 0 1 118.55 44.39
  Q 117.92 45.06 116.78 45.18
  Q 93.36 47.70 87.36 49.34
  Q 72.97 53.27 64.63 55.38
  Q 60.99 56.29 56.01 56.57
  Q 52.61 56.75 49.66 55.62
  A 1.06 1.05 -62.4 0 0 48.42 56.02
  L 48.40 56.05
  A 0.76 0.76 0.0 0 0 48.69 57.16
  Q 50.10 57.85 51.71 57.93
  A 0.58 0.58 0.0 0 1 52.23 58.70
  C 51.61 60.47 51.27 61.88 51.31 63.50
  Q 51.62 75.62 53.86 83.39
  Q 57.01 94.39 69.00 95.22
  Q 88.19 96.54 105.32 89.13
  C 113.03 85.80 113.78 78.39 113.63 70.82
  Q 113.45 61.60 112.69 58.80
  Q 111.94 56.01 110.99 51.54
  Q 110.72 50.28 109.04 48.00
  Z"
/>
<path fill="#ffffff" d="
  M 9.87 37.98
  Q 17.94 42.30 20.39 43.10
  Q 22.51 43.80 22.73 46.01
  Q 24.31 61.61 25.06 69.78
  A 1.94 1.93 -66.6 0 0 25.46 70.80
  L 27.96 74.09
  A 1.40 1.34 -74.7 0 1 28.15 74.44
  Q 30.38 80.82 25.44 83.28
  A 0.44 0.44 0.0 0 1 24.92 82.60
  Q 27.76 79.36 26.07 74.94
  A 2.77 2.55 -76.4 0 0 25.77 74.40
  L 23.23 70.97
  A 1.01 1.01 0.0 0 1 23.02 70.45
  L 20.42 45.03
  A 1.18 1.18 0.0 0 0 19.53 44.01
  Q 17.88 43.61 16.74 42.60
  A 3.16 2.94 76.8 0 0 16.16 42.21
  L 9.40 38.73
  A 0.05 0.03 -80.8 0 1 9.38 38.69
  L 9.44 38.20
  A 0.30 0.29 17.4 0 1 9.87 37.98
  Z"
/>
<circle fill="#ffffff" cx="99.82" cy="64.28" r="6.35"/>
<path fill="#ffffff" d="
  M 17.76 64.73
  A 0.36 0.36 0.0 0 1 18.37 64.95
  L 19.07 71.74
  A 0.69 0.62 57.7 0 1 19.02 72.04
  C 17.18 76.70 18.36 83.09 23.75 84.81
  A 3.05 2.93 -35.6 0 0 24.72 84.95
  Q 29.60 84.83 30.42 80.01
  Q 31.42 74.08 27.45 70.37
  A 1.23 1.23 0.0 0 1 27.07 69.61
  L 26.20 61.12
  A 0.61 0.60 1.1 0 1 26.89 60.46
  C 28.88 60.76 30.50 61.31 32.09 62.65
  Q 40.60 69.81 38.54 81.16
  Q 36.91 90.19 28.19 91.81
  A 2.74 2.71 45.3 0 1 27.13 91.80
  Q 18.78 90.02 15.91 81.87
  Q 13.43 74.83 15.78 68.25
  Q 16.64 65.83 17.76 64.73
  Z"
/>
<circle fill="#ffffff" cx="71.39" cy="69.38" r="6.68"/>
</svg>