<?xml version="1.0" encoding="UTF-8" standalone="no"?>
<!DOCTYPE svg PUBLIC "-//W3C//DTD SVG 1.1//EN" "http://www.w3.org/Graphics/SVG/1.1/DTD/svg11.dtd">
<svg xmlns="http://www.w3.org/2000/svg" version="1.1" viewBox="0.00 0.00 128.00 128.00" width="128" height="128">
<g stroke-width="2.00" fill="none" stroke-linecap="butt">
<path stroke="#b0cc93" vector-effect="non-scaling-stroke" d="
  M 75.31 33.37
  L 75.40 53.18
  A 1.90 1.90 0.0 0 0 76.47 54.89
  L 77.44 55.36
  A 0.76 0.76 0.0 0 0 78.54 54.68
  L 78.59 33.29"
/>
<path stroke="#b0cc93" vector-effect="non-scaling-stroke" d="
  M 76.63 58.02
  L 75.39 61.00
  A 3.19 3.19 0.0 0 0 76.81 65.04
  C 79.32 66.40 84.30 68.19 83.38 72.46
  Q 82.80 75.15 79.67 81.31
  A 1.20 1.19 47.5 0 0 79.63 82.29
  L 80.12 83.51
  A 1.91 1.91 0.0 0 1 80.23 84.54
  C 79.29 89.77 71.85 87.18 74.21 82.59
  Q 74.73 81.56 76.79 80.80
  A 1.21 1.20 2.5 0 0 77.45 80.20
  L 80.65 73.65
  A 3.55 3.54 26.1 0 0 79.02 68.91
  L 76.17 67.52
  A 3.62 3.62 0.0 0 0 71.32 69.18
  L 68.08 75.80
  A 1.29 1.28 -43.6 0 0 68.05 76.87
  C 69.42 80.21 67.39 83.49 63.76 81.85
  A 2.12 2.10 -5.3 0 1 62.87 81.12
  C 61.10 78.59 62.43 76.69 64.95 75.66
  A 1.62 1.58 1.7 0 0 65.80 74.88
  L 69.56 67.19
  A 1.43 1.42 -42.3 0 0 69.62 66.07
  Q 68.18 62.16 72.10 61.09
  A 1.17 1.16 5.0 0 0 72.85 60.47
  L 74.88 56.33
  A 0.72 0.72 0.0 0 0 74.56 55.38
  C 69.69 52.87 66.58 52.02 63.82 57.78
  Q 59.69 66.41 55.47 74.97
  C 53.77 78.43 53.48 81.70 57.26 83.53
  Q 63.27 86.43 75.55 92.50
  C 79.33 94.37 82.54 94.59 84.52 90.48
  Q 89.83 79.46 91.65 75.80
  C 94.45 70.16 97.11 66.14 90.40 63.05
  Q 79.99 58.27 79.06 57.46
  A 1.54 1.54 0.0 0 0 76.63 58.02"
/>
</g>
<path fill="#609926" d="
  M 75.31 33.37
  L 75.40 53.18
  A 1.90 1.90 0.0 0 0 76.47 54.89
  L 77.44 55.36
  A 0.76 0.76 0.0 0 0 78.54 54.68
  L 78.59 33.29
  L 119.13 31.85
  A 2.48 2.42 55.1 0 1 120.19 32.05
  C 123.80 33.62 123.76 41.94 123.47 45.14
  Q 121.36 68.59 110.80 89.05
  C 107.99 94.51 103.21 101.26 97.33 103.72
  Q 94.91 104.73 90.51 104.67
  Q 84.80 104.59 58.86 104.61
  Q 56.39 104.61 52.91 101.79
  Q 43.49 94.17 39.18 83.85
  Q 38.57 82.40 37.80 82.41
  C 29.40 82.58 19.64 79.85 13.49 74.05
  Q 5.88 66.86 5.34 55.03
  C 5.01 47.82 6.62 41.58 11.88 36.84
  Q 15.98 33.13 21.38 31.76
  Q 24.35 31.00 32.17 31.56
  Q 53.58 33.10 75.31 33.37
  Z
  M 35.27 71.65
  Q 29.70 57.35 28.09 41.59
  A 0.63 0.63 0.0 0 0 27.40 41.02
  C 19.99 41.75 14.45 44.62 14.92 53.26
  C 15.59 65.70 23.73 70.50 34.92 72.09
  A 0.33 0.33 0.0 0 0 35.27 71.65
  Z
  M 76.63 58.02
  L 75.39 61.00
  A 3.19 3.19 0.0 0 0 76.81 65.04
  C 79.32 66.40 84.30 68.19 83.38 72.46
  Q 82.80 75.15 79.67 81.31
  A 1.20 1.19 47.5 0 0 79.63 82.29
  L 80.12 83.51
  A 1.91 1.91 0.0 0 1 80.23 84.54
  C 79.29 89.77 71.85 87.18 74.21 82.59
  Q 74.73 81.56 76.79 80.80
  A 1.21 1.20 2.5 0 0 77.45 80.20
  L 80.65 73.65
  A 3.55 3.54 26.1 0 0 79.02 68.91
  L 76.17 67.52
  A 3.62 3.62 0.0 0 0 71.32 69.18
  L 68.08 75.80
  A 1.29 1.28 -43.6 0 0 68.05 76.87
  C 69.42 80.21 67.39 83.49 63.76 81.85
  A 2.12 2.10 -5.3 0 1 62.87 81.12
  C 61.10 78.59 62.43 76.69 64.95 75.66
  A 1.62 1.58 1.7 0 0 65.80 74.88
  L 69.56 67.19
  A 1.43 1.42 -42.3 0 0 69.62 66.07
  Q 68.18 62.16 72.10 61.09
  A 1.17 1.16 5.0 0 0 72.85 60.47
  L 74.88 56.33
  A 0.72 0.72 0.0 0 0 74.56 55.38
  C 69.69 52.87 66.58 52.02 63.82 57.78
  Q 59.69 66.41 55.47 74.97
  C 53.77 78.43 53.48 81.70 57.26 83.53
  Q 63.27 86.43 75.55 92.50
  C 79.33 94.37 82.54 94.59 84.52 90.48
  Q 89.83 79.46 91.65 75.80
  C 94.45 70.16 97.11 66.14 90.40 63.05
  Q 79.99 58.27 79.06 57.46
  A 1.54 1.54 0.0 0 0 76.63 58.02
  Z"
/>
<path fill="#ffffff" d="
  M 78.59 33.29
  L 78.54 54.68
  A 0.76 0.76 0.0 0 1 77.44 55.36
  L 76.47 54.89
  A 1.90 1.90 0.0 0 1 75.40 53.18
  L 75.31 33.37
  Q 76.55 32.62 78.59 33.29
  Z"
/>
<path fill="#ffffff" d="
  M 79.06 57.46
  Q 79.99 58.27 90.40 63.05
  C 97.11 66.14 94.45 70.16 91.65 75.80
  Q 89.83 79.46 84.52 90.48
  C 82.54 94.59 79.33 94.37 75.55 92.50
  Q 63.27 86.43 57.26 83.53
  C 53.48 81.70 53.77 78.43 55.47 74.97
  Q 59.69 66.41 63.82 57.78
  C 66.58 52.02 69.69 52.87 74.56 55.38
  A 0.72 0.72 0.0 0 1 74.88 56.33
  L 72.85 60.47
  A 1.17 1.16 5.0 0 1 72.10 61.09
  Q 68.18 62.16 69.62 66.07
  A 1.43 1.42 -42.3 0 1 69.56 67.19
  L 65.80 74.88
  A 1.62 1.58 1.7 0 1 64.95 75.66
  C 62.43 76.69 61.10 78.59 62.87 81.12
  A 2.12 2.10 -5.3 0 0 63.76 81.85
  C 67.39 83.49 69.42 80.21 68.05 76.87
  A 1.29 1.28 -43.6 0 1 68.08 75.80
  L 71.32 69.18
  A 3.62 3.62 0.0 0 1 76.17 67.52
  L 79.02 68.91
  A 3.55 3.54 26.1 0 1 80.65 73.65
  L 77.45 80.20
  A 1.21 1.20 2.5 0 1 76.79 80.80
  Q 74.73 81.56 74.21 82.59
  C 71.85 87.18 79.29 89.77 80.23 84.54
  A 1.91 1.91 0.0 0 0 80.12 83.51
  L 79.63 82.29
  A 1.20 1.19 47.5 0 1 79.67 81.31
  Q 82.80 75.15 83.38 72.46
  C 84.30 68.19 79.32 66.40 76.81 65.04
  A 3.19 3.19 0.0 0 1 75.39 61.00
  L 76.63 58.02
  A 1.54 1.54 0.0 0 1 79.06 57.46
  Z"
/>
</svg>