<?xml version="1.0" encoding="UTF-8" standalone="no"?>
<!DOCTYPE svg PUBLIC "-//W3C//DTD SVG 1.1//EN" "http://www.w3.org/Graphics/SVG/1.1/DTD/svg11.dtd">
<svg xmlns="http://www.w3.org/2000/svg" version="1.1" viewBox="0.00 0.00 180.00 180.00" width="128" height="128">
<g stroke-width="2.00" fill="none" stroke-linecap="butt">
<path stroke="#808080" vector-effect="non-scaling-stroke" d="
  M 96.85 58.09
  L 96.87 23.20
  A 0.70 0.69 0.0 0 0 96.18 22.51
  L 84.44 22.50
  A 0.66 0.65 0.0 0 0 83.78 23.15
  L 83.76 58.73
  A 0.29 0.29 0.0 0 1 83.26 58.92
  Q 75.52 50.18 64.67 37.74
  C 61.55 34.16 58.45 33.04 53.60 33.09
  Q 49.15 33.13 41.74 33.12
  A 0.22 0.22 0.0 0 0 41.58 33.48
  Q 58.84 53.58 60.83 55.95
  Q 65.76 61.80 68.98 64.05
  C 77.36 69.90 86.67 70.80 96.57 69.68
  Q 108.47 68.31 117.01 58.38
  Q 137.84 34.18 138.27 33.67
  A 0.32 0.32 0.0 0 0 138.03 33.14
  Q 132.17 33.07 125.22 33.16
  C 121.65 33.20 118.17 34.54 116.18 36.75
  Q 116.01 36.94 97.31 58.26
  A 0.26 0.26 0.0 0 1 96.85 58.09"
/>
<path stroke="#808080" vector-effect="non-scaling-stroke" d="
  M 58.09 83.14
  L 23.19 83.12
  A 0.70 0.69 -90.0 0 0 22.50 83.82
  L 22.49 95.56
  A 0.66 0.65 -90.0 0 0 23.14 96.22
  L 58.74 96.24
  A 0.29 0.29 0.0 0 1 58.93 96.74
  Q 50.18 104.48 37.74 115.33
  C 34.16 118.46 33.04 121.56 33.09 126.41
  Q 33.14 130.86 33.12 138.27
  A 0.22 0.22 0.0 0 0 33.48 138.43
  Q 53.58 121.16 55.95 119.17
  Q 61.81 114.24 64.06 111.02
  C 69.91 102.64 70.81 93.33 69.68 83.43
  Q 68.32 71.52 58.38 62.98
  Q 34.17 42.14 33.66 41.71
  A 0.32 0.32 0.0 0 0 33.13 41.95
  Q 33.07 47.81 33.16 54.76
  C 33.19 58.34 34.53 61.82 36.75 63.81
  Q 36.94 63.98 58.26 82.68
  A 0.26 0.26 0.0 0 1 58.09 83.14"
/>
<path stroke="#808080" vector-effect="non-scaling-stroke" d="
  M 121.91 96.86
  L 156.81 96.88
  A 0.70 0.69 -90.0 0 0 157.50 96.18
  L 157.50 84.44
  A 0.66 0.65 -90.0 0 0 156.85 83.78
  L 121.26 83.76
  A 0.29 0.29 0.0 0 1 121.07 83.26
  Q 129.82 75.53 142.25 64.67
  C 145.83 61.54 146.95 58.45 146.91 53.60
  Q 146.86 49.15 146.87 41.74
  A 0.22 0.22 0.0 0 0 146.51 41.58
  Q 126.41 58.85 124.04 60.84
  Q 118.19 65.76 115.94 68.98
  C 110.09 77.37 109.19 86.68 110.32 96.58
  Q 111.68 108.48 121.62 117.02
  Q 145.83 137.85 146.34 138.28
  A 0.32 0.32 0.0 0 0 146.87 138.04
  Q 146.93 132.18 146.84 125.23
  C 146.81 121.66 145.47 118.18 143.25 116.19
  Q 143.06 116.02 121.74 97.32
  A 0.26 0.26 0.0 0 1 121.91 96.86"
/>
<path stroke="#808080" vector-effect="non-scaling-stroke" d="
  M 83.09 121.92
  L 83.09 156.82
  A 0.70 0.69 0.0 0 0 83.79 157.51
  L 95.53 157.51
  A 0.66 0.65 -0.0 0 0 96.19 156.86
  L 96.19 121.27
  A 0.29 0.29 0.0 0 1 96.69 121.08
  Q 104.43 129.82 115.29 142.25
  C 118.42 145.83 121.52 146.95 126.37 146.90
  Q 130.82 146.85 138.23 146.86
  A 0.22 0.22 0.0 0 0 138.39 146.50
  Q 121.11 126.41 119.12 124.04
  Q 114.19 118.19 110.97 115.94
  C 102.58 110.09 93.27 109.20 83.37 110.33
  Q 71.47 111.70 62.93 121.64
  Q 42.11 145.86 41.68 146.37
  A 0.32 0.32 0.0 0 0 41.92 146.90
  Q 47.78 146.96 54.73 146.87
  C 58.30 146.83 61.78 145.49 63.77 143.27
  Q 63.94 143.08 82.63 121.75
  A 0.26 0.26 0.0 0 1 83.09 121.92"
/>
</g>
<path fill="#000000" d="
  M 138.40 0.00
  C 161.04 2.35 177.61 18.91 180.00 41.49
  L 180.00 138.40
  C 177.63 161.04 161.08 177.61 138.50 180.00
  L 41.60 180.00
  C 18.97 177.64 2.37 161.08 0.00 138.50
  L 0.00 41.59
  C 2.19 19.04 18.98 2.40 41.47 0.00
  L 138.40 0.00
  Z
  M 96.85 58.09
  L 96.87 23.20
  A 0.70 0.69 0.0 0 0 96.18 22.51
  L 84.44 22.50
  A 0.66 0.65 0.0 0 0 83.78 23.15
  L 83.76 58.73
  A 0.29 0.29 0.0 0 1 83.26 58.92
  Q 75.52 50.18 64.67 37.74
  C 61.55 34.16 58.45 33.04 53.60 33.09
  Q 49.15 33.13 41.74 33.12
  A 0.22 0.22 0.0 0 0 41.58 33.48
  Q 58.84 53.58 60.83 55.95
  Q 65.76 61.80 68.98 64.05
  C 77.36 69.90 86.67 70.80 96.57 69.68
  Q 108.47 68.31 117.01 58.38
  Q 137.84 34.18 138.27 33.67
  A 0.32 0.32 0.0 0 0 138.03 33.14
  Q 132.17 33.07 125.22 33.16
  C 121.65 33.20 118.17 34.54 116.18 36.75
  Q 116.01 36.94 97.31 58.26
  A 0.26 0.26 0.0 0 1 96.85 58.09
  Z
  M 58.09 83.14
  L 23.19 83.12
  A 0.70 0.69 -90.0 0 0 22.50 83.82
  L 22.49 95.56
  A 0.66 0.65 -90.0 0 0 23.14 96.22
  L 58.74 96.24
  A 0.29 0.29 0.0 0 1 58.93 96.74
  Q 50.18 104.48 37.74 115.33
  C 34.16 118.46 33.04 121.56 33.09 126.41
  Q 33.14 130.86 33.12 138.27
  A 0.22 0.22 0.0 0 0 33.48 138.43
  Q 53.58 121.16 55.95 119.17
  Q 61.81 114.24 64.06 111.02
  C 69.91 102.64 70.81 93.33 69.68 83.43
  Q 68.32 71.52 58.38 62.98
  Q 34.17 42.14 33.66 41.71
  A 0.32 0.32 0.0 0 0 33.13 41.95
  Q 33.07 47.81 33.16 54.76
  C 33.19 58.34 34.53 61.82 36.75 63.81
  Q 36.94 63.98 58.26 82.68
  A 0.26 0.26 0.0 0 1 58.09 83.14
  Z
  M 121.91 96.86
  L 156.81 96.88
  A 0.70 0.69 -90.0 0 0 157.50 96.18
  L 157.50 84.44
  A 0.66 0.65 -90.0 0 0 156.85 83.78
  L 121.26 83.76
  A 0.29 0.29 0.0 0 1 121.07 83.26
  Q 129.82 75.53 142.25 64.67
  C 145.83 61.54 146.95 58.45 146.91 53.60
  Q 146.86 49.15 146.87 41.74
  A 0.22 0.22 0.0 0 0 146.51 41.58
  Q 126.41 58.85 124.04 60.84
  Q 118.19 65.76 115.94 68.98
  C 110.09 77.37 109.19 86.68 110.32 96.58
  Q 111.68 108.48 121.62 117.02
  Q 145.83 137.85 146.34 138.28
  A 0.32 0.32 0.0 0 0 146.87 138.04
  Q 146.93 132.18 146.84 125.23
  C 146.81 121.66 145.47 118.18 143.25 116.19
  Q 143.06 116.02 121.74 97.32
  A 0.26 0.26 0.0 0 1 121.91 96.86
  Z
  M 83.09 121.92
  L 83.09 156.82
  A 0.70 0.69 0.0 0 0 83.79 157.51
  L 95.53 157.51
  A 0.66 0.65 -0.0 0 0 96.19 156.86
  L 96.19 121.27
  A 0.29 0.29 0.0 0 1 96.69 121.08
  Q 104.43 129.82 115.29 142.25
  C 118.42 145.83 121.52 146.95 126.37 146.90
  Q 130.82 146.85 138.23 146.86
  A 0.22 0.22 0.0 0 0 138.39 146.50
  Q 121.11 126.41 119.12 124.04
  Q 114.19 118.19 110.97 115.94
  C 102.58 110.09 93.27 109.20 83.37 110.33
  Q 71.47 111.70 62.93 121.64
  Q 42.11 145.86 41.68 146.37
  A 0.32 0.32 0.0 0 0 41.92 146.90
  Q 47.78 146.96 54.73 146.87
  C 58.30 146.83 61.78 145.49 63.77 143.27
  Q 63.94 143.08 82.63 121.75
  A 0.26 0.26 0.0 0 1 83.09 121.92
  Z"
/>
<path fill="#ffffff" d="
  M 96.85 58.09
  A 0.26 0.26 0.0 0 0 97.31 58.26
  Q 116.01 36.94 116.18 36.75
  C 118.17 34.54 121.65 33.20 125.22 33.16
  Q 132.17 33.07 138.03 33.14
  A 0.32 0.32 0.0 0 1 138.27 33.67
  Q 137.84 34.18 117.01 58.38
  Q 108.47 68.31 96.57 69.68
  C 86.67 70.80 77.36 69.90 68.98 64.05
  Q 65.76 61.80 60.83 55.95
  Q 58.84 53.58 41.58 33.48
  A 0.22 0.22 0.0 0 1 41.74 33.12
  Q 49.15 33.13 53.60 33.09
  C 58.45 33.04 61.55 34.16 64.67 37.74
  Q 75.52 50.18 83.26 58.92
  A 0.29 0.29 0.0 0 0 83.76 58.73
  L 83.78 23.15
  A 0.66 0.65 0.0 0 1 84.44 22.50
  L 96.18 22.51
  A 0.70 0.69 0.0 0 1 96.87 23.20
  L 96.85 58.09
  Z"
/>
<path fill="#ffffff" d="
  M 58.09 83.14
  A 0.26 0.26 0.0 0 0 58.26 82.68
  Q 36.94 63.98 36.75 63.81
  C 34.53 61.82 33.19 58.34 33.16 54.76
  Q 33.07 47.81 33.13 41.95
  A 0.32 0.32 0.0 0 1 33.66 41.71
  Q 34.17 42.14 58.38 62.98
  Q 68.32 71.52 69.68 83.43
  C 70.81 93.33 69.91 102.64 64.06 111.02
  Q 61.81 114.24 55.95 119.17
  Q 53.58 121.16 33.48 138.43
  A 0.22 0.22 0.0 0 1 33.12 138.27
  Q 33.14 130.86 33.09 126.41
  C 33.04 121.56 34.16 118.46 37.74 115.33
  Q 50.18 104.48 58.93 96.74
  A 0.29 0.29 0.0 0 0 58.74 96.24
  L 23.14 96.22
  A 0.66 0.65 -90.0 0 1 22.49 95.56
  L 22.50 83.82
  A 0.70 0.69 -90.0 0 1 23.19 83.12
  L 58.09 83.14
  Z"
/>
<path fill="#ffffff" d="
  M 121.91 96.86
  A 0.26 0.26 0.0 0 0 121.74 97.32
  Q 143.06 116.02 143.25 116.19
  C 145.47 118.18 146.81 121.66 146.84 125.23
  Q 146.93 132.18 146.87 138.04
  A 0.32 0.32 0.0 0 1 146.34 138.28
  Q 145.83 137.85 121.62 117.02
  Q 111.68 108.48 110.32 96.58
  C 109.19 86.68 110.09 77.37 115.94 68.98
  Q 118.19 65.76 124.04 60.84
  Q 126.41 58.85 146.51 41.58
  A 0.22 0.22 0.0 0 1 146.87 41.74
  Q 146.86 49.15 146.91 53.60
  C 146.95 58.45 145.83 61.54 142.25 64.67
  Q 129.82 75.53 121.07 83.26
  A 0.29 0.29 0.0 0 0 121.26 83.76
  L 156.85 83.78
  A 0.66 0.65 -90.0 0 1 157.50 84.44
  L 157.50 96.18
  A 0.70 0.69 -90.0 0 1 156.81 96.88
  L 121.91 96.86
  Z"
/>
<path fill="#ffffff" d="
  M 83.09 121.92
  A 0.26 0.26 0.0 0 0 82.63 121.75
  Q 63.94 143.08 63.77 143.27
  C 61.78 145.49 58.30 146.83 54.73 146.87
  Q 47.78 146.96 41.92 146.90
  A 0.32 0.32 0.0 0 1 41.68 146.37
  Q 42.11 145.86 62.93 121.64
  Q 71.47 111.70 83.37 110.33
  C 93.27 109.20 102.58 110.09 110.97 115.94
  Q 114.19 118.19 119.12 124.04
  Q 121.11 126.41 138.39 146.50
  A 0.22 0.22 0.0 0 1 138.23 146.86
  Q 130.82 146.85 126.37 146.90
  C 121.52 146.95 118.42 145.83 115.29 142.25
  Q 104.43 129.82 96.69 121.08
  A 0.29 0.29 0.0 0 0 96.19 121.27
  L 96.19 156.86
  A 0.66 0.65 -0.0 0 1 95.53 157.51
  L 83.79 157.51
  A 0.70 0.69 -0.0 0 1 83.09 156.82
  L 83.09 121.92
  Z"
/>
</svg>