<?xml version="1.0" encoding="UTF-8" standalone="no"?>
<!DOCTYPE svg PUBLIC "-//W3C//DTD SVG 1.1//EN" "http://www.w3.org/Graphics/SVG/1.1/DTD/svg11.dtd">
<svg xmlns="http://www.w3.org/2000/svg" version="1.1" viewBox="0.00 0.00 256.00 256.00" width="128" height="128">
<g stroke-width="2.00" fill="none" stroke-linecap="butt">
<path stroke="#796680" vector-effect="non-scaling-stroke" d="
  M 66.01 189.90
  C 96.88 220.82 146.79 224.32 181.40 197.42
  Q 212.05 173.59 215.63 133.26
  Q 215.89 130.37 213.99 128.98
  Q 212.59 127.95 209.36 127.99
  Q 200.79 128.09 200.18 128.09
  A 2.02 2.00 -55.2 0 0 199.37 128.24
  Q 196.59 129.40 196.31 132.51
  Q 194.01 158.34 176.74 175.88
  C 150.09 202.95 106.53 203.07 79.71 176.22
  C 52.90 149.37 53.07 105.81 80.18 79.19
  Q 97.74 61.94 123.57 59.68
  Q 126.68 59.40 127.84 56.62
  A 2.02 2.00 -34.7 0 0 128.00 55.81
  Q 128.00 55.20 128.11 46.63
  Q 128.15 43.40 127.12 42.00
  Q 125.74 40.10 122.85 40.36
  Q 82.51 43.88 58.64 74.51
  C 31.70 109.07 35.14 158.99 66.01 189.90"
/>
<path stroke="#796680" vector-effect="non-scaling-stroke" d="
  M 117.11 115.94
  A 17.53 17.53 0.0 0 0 99.58 98.41
  A 17.53 17.53 0.0 0 0 82.05 115.94
  A 17.53 17.53 0.0 0 0 99.58 133.47
  A 17.53 17.53 0.0 0 0 117.11 115.94"
/>
<path stroke="#796680" vector-effect="non-scaling-stroke" d="
  M 185.00 111.68
  A 4.56 4.56 0.0 0 0 180.44 107.12
  L 152.32 107.12
  A 4.56 4.56 0.0 0 0 147.76 111.68
  L 147.76 120.20
  A 4.56 4.56 0.0 0 0 152.32 124.76
  L 180.44 124.76
  A 4.56 4.56 0.0 0 0 185.00 120.20
  L 185.00 111.68"
/>
</g>
<path fill="#f1ccff" d="
  M 192.46 0.00
  Q 216.93 1.78 233.85 17.39
  Q 251.05 33.27 254.97 56.44
  Q 255.54 59.79 256.00 63.15
  L 256.00 192.46
  Q 254.30 216.09 239.19 233.20
  Q 223.57 250.90 199.56 254.97
  Q 196.22 255.54 192.85 256.00
  L 63.51 256.00
  C 28.89 253.47 2.90 227.35 0.00 192.82
  L 0.00 63.59
  Q 1.51 41.85 14.40 25.67
  Q 32.60 2.86 62.78 0.00
  L 192.46 0.00
  Z
  M 66.01 189.90
  C 96.88 220.82 146.79 224.32 181.40 197.42
  Q 212.05 173.59 215.63 133.26
  Q 215.89 130.37 213.99 128.98
  Q 212.59 127.95 209.36 127.99
  Q 200.79 128.09 200.18 128.09
  A 2.02 2.00 -55.2 0 0 199.37 128.24
  Q 196.59 129.40 196.31 132.51
  Q 194.01 158.34 176.74 175.88
  C 150.09 202.95 106.53 203.07 79.71 176.22
  C 52.90 149.37 53.07 105.81 80.18 79.19
  Q 97.74 61.94 123.57 59.68
  Q 126.68 59.40 127.84 56.62
  A 2.02 2.00 -34.7 0 0 128.00 55.81
  Q 128.00 55.20 128.11 46.63
  Q 128.15 43.40 127.12 42.00
  Q 125.74 40.10 122.85 40.36
  Q 82.51 43.88 58.64 74.51
  C 31.70 109.07 35.14 158.99 66.01 189.90
  Z
  M 117.11 115.94
  A 17.53 17.53 0.0 0 0 99.58 98.41
  A 17.53 17.53 0.0 0 0 82.05 115.94
  A 17.53 17.53 0.0 0 0 99.58 133.47
  A 17.53 17.53 0.0 0 0 117.11 115.94
  Z
  M 185.00 111.68
  A 4.56 4.56 0.0 0 0 180.44 107.12
  L 152.32 107.12
  A 4.56 4.56 0.0 0 0 147.76 111.68
  L 147.76 120.20
  A 4.56 4.56 0.0 0 0 152.32 124.76
  L 180.44 124.76
  A 4.56 4.56 0.0 0 0 185.00 120.20
  L 185.00 111.68
  Z"
/>
<path fill="#000000" d="
  M 79.71 176.22
  C 106.53 203.07 150.09 202.95 176.74 175.88
  Q 194.01 158.34 196.31 132.51
  Q 196.59 129.40 199.37 128.24
  A 2.02 2.00 -55.2 0 1 200.18 128.09
  Q 200.79 128.09 209.36 127.99
  Q 212.59 127.95 213.99 128.98
  Q 215.89 130.37 215.63 133.26
  Q 212.05 173.59 181.40 197.42
  C 146.79 224.32 96.88 220.82 66.01 189.90
  C 35.14 158.99 31.70 109.07 58.64 74.51
  Q 82.51 43.88 122.85 40.36
  Q 125.74 40.10 127.12 42.00
  Q 128.15 43.40 128.11 46.63
  Q 128.00 55.20 128.00 55.81
  A 2.02 2.00 -34.7 0 1 127.84 56.62
  Q 126.68 59.40 123.57 59.68
  Q 97.74 61.94 80.18 79.19
  C 53.07 105.81 52.90 149.37 79.71 176.22
  Z"
/>
<circle fill="#000000" cx="99.58" cy="115.94" r="17.53"/>
<rect fill="#000000" x="147.76" y="107.12" width="37.24" height="17.64" rx="4.56"/>
</svg>