<?xml version="1.0" encoding="UTF-8" standalone="no"?>
<!DOCTYPE svg PUBLIC "-//W3C//DTD SVG 1.1//EN" "http://www.w3.org/Graphics/SVG/1.1/DTD/svg11.dtd">
<svg xmlns="http://www.w3.org/2000/svg" version="1.1" viewBox="0.00 0.00 180.00 180.00" width="128" height="128">
<g stroke-width="2.00" fill="none" stroke-linecap="butt">
<path stroke="#8bead3" vector-effect="non-scaling-stroke" d="
  M 135.98 53.82
  C 124.20 39.03 105.66 30.90 86.65 32.16
  Q 63.79 33.67 46.96 51.37
  A 0.34 0.34 0.0 0 0 47.16 51.94
  Q 62.98 54.02 77.99 59.19
  A 0.88 0.85 30.7 0 0 78.88 58.98
  C 84.61 53.10 92.76 53.54 97.74 60.08
  A 0.78 0.78 0.0 0 0 98.59 60.35
  Q 112.74 56.00 128.75 54.87
  Q 131.83 54.66 135.75 54.34
  A 0.32 0.32 0.0 0 0 135.98 53.82"
/>
<path stroke="#8bead3" vector-effect="non-scaling-stroke" d="
  M 34.43 107.43
  A 0.31 0.31 0.0 0 0 34.99 107.51
  Q 49.91 82.57 76.16 69.36
  A 0.83 0.83 0.0 0 0 76.59 68.41
  Q 76.11 66.53 76.43 64.72
  A 0.85 0.84 14.8 0 0 75.87 63.77
  Q 59.89 58.31 43.26 56.58
  A 0.67 0.66 19.5 0 0 42.64 56.87
  Q 27.01 80.00 34.43 107.43"
/>
<path stroke="#8bead3" vector-effect="non-scaling-stroke" d="
  M 99.48 66.03
  Q 99.54 69.48 97.07 72.92
  A 0.88 0.88 0.0 0 0 97.07 73.96
  Q 104.83 84.73 111.00 96.62
  A 1.22 1.18 -5.5 0 0 111.76 97.23
  L 115.95 98.37
  A 1.37 1.36 -58.6 0 0 117.24 98.05
  Q 132.70 83.91 142.56 64.87
  A 1.12 1.12 0.0 0 0 142.53 63.81
  L 140.36 60.04
  A 1.33 1.31 -15.0 0 0 139.22 59.39
  Q 118.74 59.58 100.11 65.16
  A 0.88 0.88 0.0 0 0 99.48 66.03"
/>
<path stroke="#8bead3" vector-effect="non-scaling-stroke" d="
  M 122.55 139.32
  C 144.99 124.55 154.72 96.33 145.54 70.96
  A 0.32 0.31 -40.5 0 0 144.97 70.92
  Q 136.84 85.54 124.71 97.46
  Q 122.39 99.74 119.93 102.15
  A 2.12 2.11 -23.9 0 0 119.30 103.77
  Q 119.46 106.67 117.59 108.89
  A 1.72 1.69 -33.2 0 0 117.25 110.46
  Q 117.73 112.10 118.74 115.25
  Q 122.60 127.23 122.18 139.11
  A 0.24 0.24 0.0 0 0 122.55 139.32"
/>
<path stroke="#8bead3" vector-effect="non-scaling-stroke" d="
  M 38.94 111.51
  Q 49.20 115.32 60.10 116.42
  A 0.92 0.91 -69.1 0 0 60.93 116.04
  C 64.06 111.62 70.40 111.38 73.12 116.32
  A 0.61 0.61 0.0 0 0 73.70 116.63
  Q 90.24 115.31 104.49 107.15
  A 0.99 0.99 0.0 0 0 104.96 106.09
  Q 104.25 102.75 106.38 99.91
  A 1.09 1.09 0.0 0 0 106.47 98.75
  Q 100.63 87.43 92.98 76.74
  A 0.79 0.79 0.0 0 0 92.10 76.44
  Q 84.87 78.69 79.73 73.85
  A 0.99 0.99 0.0 0 0 78.60 73.69
  Q 52.35 87.17 38.76 111.00
  A 0.36 0.36 0.0 0 0 38.94 111.51"
/>
<path stroke="#8bead3" vector-effect="non-scaling-stroke" d="
  M 38.80 116.66
  A 0.28 0.28 0.0 0 0 38.46 117.05
  C 53.56 145.48 86.90 156.72 116.17 142.94
  A 1.51 1.50 -11.0 0 0 117.02 141.69
  Q 118.10 126.92 112.37 112.17
  A 1.40 1.39 86.5 0 0 111.43 111.33
  L 108.86 110.63
  A 1.53 1.49 -52.7 0 0 107.70 110.80
  Q 92.23 120.07 74.09 121.49
  A 1.11 1.10 -75.0 0 0 73.26 121.97
  C 70.45 126.12 66.37 127.26 62.24 124.06
  C 61.52 123.50 61.03 122.43 60.50 121.76
  A 1.26 1.24 -16.6 0 0 59.60 121.28
  Q 48.81 120.31 38.80 116.66"
/>
</g>
<path fill="#ffffff" d="
  M 180.00 0.00
  L 180.00 180.00
  L 0.00 180.00
  L 0.00 0.00
  L 180.00 0.00
  Z
  M 135.98 53.82
  C 124.20 39.03 105.66 30.90 86.65 32.16
  Q 63.79 33.67 46.96 51.37
  A 0.34 0.34 0.0 0 0 47.16 51.94
  Q 62.98 54.02 77.99 59.19
  A 0.88 0.85 30.7 0 0 78.88 58.98
  C 84.61 53.10 92.76 53.54 97.74 60.08
  A 0.78 0.78 0.0 0 0 98.59 60.35
  Q 112.74 56.00 128.75 54.87
  Q 131.83 54.66 135.75 54.34
  A 0.32 0.32 0.0 0 0 135.98 53.82
  Z
  M 34.43 107.43
  A 0.31 0.31 0.0 0 0 34.99 107.51
  Q 49.91 82.57 76.16 69.36
  A 0.83 0.83 0.0 0 0 76.59 68.41
  Q 76.11 66.53 76.43 64.72
  A 0.85 0.84 14.8 0 0 75.87 63.77
  Q 59.89 58.31 43.26 56.58
  A 0.67 0.66 19.5 0 0 42.64 56.87
  Q 27.01 80.00 34.43 107.43
  Z
  M 99.48 66.03
  Q 99.54 69.48 97.07 72.92
  A 0.88 0.88 0.0 0 0 97.07 73.96
  Q 104.83 84.73 111.00 96.62
  A 1.22 1.18 -5.5 0 0 111.76 97.23
  L 115.95 98.37
  A 1.37 1.36 -58.6 0 0 117.24 98.05
  Q 132.70 83.91 142.56 64.87
  A 1.12 1.12 0.0 0 0 142.53 63.81
  L 140.36 60.04
  A 1.33 1.31 -15.0 0 0 139.22 59.39
  Q 118.74 59.58 100.11 65.16
  A 0.88 0.88 0.0 0 0 99.48 66.03
  Z
  M 122.55 139.32
  C 144.99 124.55 154.72 96.33 145.54 70.96
  A 0.32 0.31 -40.5 0 0 144.97 70.92
  Q 136.84 85.54 124.71 97.46
  Q 122.39 99.74 119.93 102.15
  A 2.12 2.11 -23.9 0 0 119.30 103.77
  Q 119.46 106.67 117.59 108.89
  A 1.72 1.69 -33.2 0 0 117.25 110.46
  Q 117.73 112.10 118.74 115.25
  Q 122.60 127.23 122.18 139.11
  A 0.24 0.24 0.0 0 0 122.55 139.32
  Z
  M 38.94 111.51
  Q 49.20 115.32 60.10 116.42
  A 0.92 0.91 -69.1 0 0 60.93 116.04
  C 64.06 111.62 70.40 111.38 73.12 116.32
  A 0.61 0.61 0.0 0 0 73.70 116.63
  Q 90.24 115.31 104.49 107.15
  A 0.99 0.99 0.0 0 0 104.96 106.09
  Q 104.25 102.75 106.38 99.91
  A 1.09 1.09 0.0 0 0 106.47 98.75
  Q 100.63 87.43 92.98 76.74
  A 0.79 0.79 0.0 0 0 92.10 76.44
  Q 84.87 78.69 79.73 73.85
  A 0.99 0.99 0.0 0 0 78.60 73.69
  Q 52.35 87.17 38.76 111.00
  A 0.36 0.36 0.0 0 0 38.94 111.51
  Z
  M 38.80 116.66
  A 0.28 0.28 0.0 0 0 38.46 117.05
  C 53.56 145.48 86.90 156.72 116.17 142.94
  A 1.51 1.50 -11.0 0 0 117.02 141.69
  Q 118.10 126.92 112.37 112.17
  A 1.40 1.39 86.5 0 0 111.43 111.33
  L 108.86 110.63
  A 1.53 1.49 -52.7 0 0 107.70 110.80
  Q 92.23 120.07 74.09 121.49
  A 1.11 1.10 -75.0 0 0 73.26 121.97
  C 70.45 126.12 66.37 127.26 62.24 124.06
  C 61.52 123.50 61.03 122.43 60.50 121.76
  A 1.26 1.24 -16.6 0 0 59.60 121.28
  Q 48.81 120.31 38.80 116.66
  Z"
/>
<path fill="#17d4a7" d="
  M 135.75 54.34
  Q 131.83 54.66 128.75 54.87
  Q 112.74 56.00 98.59 60.35
  A 0.78 0.78 0.0 0 1 97.74 60.08
  C 92.76 53.54 84.61 53.10 78.88 58.98
  A 0.88 0.85 30.7 0 1 77.99 59.19
  Q 62.98 54.02 47.16 51.94
  A 0.34 0.34 0.0 0 1 46.96 51.37
  Q 63.79 33.67 86.65 32.16
  C 105.66 30.90 124.20 39.03 135.98 53.82
  A 0.32 0.32 0.0 0 1 135.75 54.34
  Z"
/>
<path fill="#17d4a7" d="
  M 34.43 107.43
  Q 27.01 80.00 42.64 56.87
  A 0.67 0.66 19.5 0 1 43.26 56.58
  Q 59.89 58.31 75.87 63.77
  A 0.85 0.84 14.8 0 1 76.43 64.72
  Q 76.11 66.53 76.59 68.41
  A 0.83 0.83 0.0 0 1 76.16 69.36
  Q 49.91 82.57 34.99 107.51
  A 0.31 0.31 0.0 0 1 34.43 107.43
  Z"
/>
<path fill="#17d4a7" d="
  M 100.11 65.16
  Q 118.74 59.58 139.22 59.39
  A 1.33 1.31 -15.0 0 1 140.36 60.04
  L 142.53 63.81
  A 1.12 1.12 0.0 0 1 142.56 64.87
  Q 132.70 83.91 117.24 98.05
  A 1.37 1.36 -58.6 0 1 115.95 98.37
  L 111.76 97.23
  A 1.22 1.18 -5.5 0 1 111.00 96.62
  Q 104.83 84.73 97.07 73.96
  A 0.88 0.88 0.0 0 1 97.07 72.92
  Q 99.54 69.48 99.48 66.03
  A 0.88 0.88 0.0 0 1 100.11 65.16
  Z"
/>
<path fill="#17d4a7" d="
  M 122.55 139.32
  A 0.24 0.24 0.0 0 1 122.18 139.11
  Q 122.60 127.23 118.74 115.25
  Q 117.73 112.10 117.25 110.46
  A 1.72 1.69 -33.2 0 1 117.59 108.89
  Q 119.46 106.67 119.30 103.77
  A 2.12 2.11 -23.9 0 1 119.93 102.15
  Q 122.39 99.74 124.71 97.46
  Q 136.84 85.54 144.97 70.92
  A 0.32 0.31 -40.5 0 1 145.54 70.96
  C 154.72 96.33 144.99 124.55 122.55 139.32
  Z"
/>
<path fill="#17d4a7" d="
  M 38.94 111.51
  A 0.36 0.36 0.0 0 1 38.76 111.00
  Q 52.35 87.17 78.60 73.69
  A 0.99 0.99 0.0 0 1 79.73 73.85
  Q 84.87 78.69 92.10 76.44
  A 0.79 0.79 0.0 0 1 92.98 76.74
  Q 100.63 87.43 106.47 98.75
  A 1.09 1.09 0.0 0 1 106.38 99.91
  Q 104.25 102.75 104.96 106.09
  A 0.99 0.99 0.0 0 1 104.49 107.15
  Q 90.24 115.31 73.70 116.63
  A 0.61 0.61 0.0 0 1 73.12 116.32
  C 70.40 111.38 64.06 111.62 60.93 116.04
  A 0.92 0.91 -69.1 0 1 60.10 116.42
  Q 49.20 115.32 38.94 111.51
  Z"
/>
<path fill="#17d4a7" d="
  M 38.80 116.66
  Q 48.81 120.31 59.60 121.28
  A 1.26 1.24 -16.6 0 1 60.50 121.76
  C 61.03 122.43 61.52 123.50 62.24 124.06
  C 66.37 127.26 70.45 126.12 73.26 121.97
  A 1.11 1.10 -75.0 0 1 74.09 121.49
  Q 92.23 120.07 107.70 110.80
  A 1.53 1.49 -52.7 0 1 108.86 110.63
  L 111.43 111.33
  A 1.40 1.39 86.5 0 1 112.37 112.17
  Q 118.10 126.92 117.02 141.69
  A 1.51 1.50 -11.0 0 1 116.17 142.94
  C 86.90 156.72 53.56 145.48 38.46 117.05
  A 0.28 0.28 0.0 0 1 38.80 116.66
  Z"
/>
</svg>