<?xml version="1.0" encoding="UTF-8" standalone="no"?>
<!DOCTYPE svg PUBLIC "-//W3C//DTD SVG 1.1//EN" "http://www.w3.org/Graphics/SVG/1.1/DTD/svg11.dtd">
<svg xmlns="http://www.w3.org/2000/svg" version="1.1" viewBox="0.00 0.00 256.00 256.00" width="128" height="128">
<g stroke-width="2.00" fill="none" stroke-linecap="butt">
<path stroke="#9399a3" vector-effect="non-scaling-stroke" d="
  M 121.39 0.00
  Q 85.84 1.97 57.27 20.54
  Q 15.74 47.54 2.63 96.54
  C 0.30 105.25 0.49 111.82 0.00 119.87"
/>
<path stroke="#9399a3" vector-effect="non-scaling-stroke" d="
  M 133.61 0.00
  Q 172.45 2.20 203.16 24.33
  C 232.12 45.21 252.91 79.36 255.44 115.75
  C 256.44 130.16 255.88 145.51 252.26 159.11
  C 231.96 235.45 148.85 276.08 75.97 244.52
  C 38.50 228.30 11.37 195.79 1.93 156.05
  C 0.25 148.95 0.43 142.95 0.00 136.25"
/>
<path stroke="#9399a3" vector-effect="non-scaling-stroke" d="
  M 115.95 181.38
  A 0.34 0.34 0.0 0 0 116.27 181.15
  L 152.56 73.39
  A 0.34 0.34 0.0 0 0 152.24 72.94
  L 137.70 72.94
  A 0.34 0.34 0.0 0 0 137.38 73.17
  L 101.09 180.93
  A 0.34 0.34 0.0 0 0 101.41 181.38
  L 115.95 181.38"
/>
<path stroke="#9399a3" vector-effect="non-scaling-stroke" d="
  M 168.60 73.09
  A 0.33 0.33 0.0 0 0 168.28 73.31
  L 132.03 180.96
  A 0.33 0.33 0.0 0 0 132.34 181.40
  L 146.86 181.40
  A 0.33 0.33 0.0 0 0 147.18 181.18
  L 183.42 73.53
  A 0.33 0.33 0.0 0 0 183.11 73.09
  L 168.60 73.09"
/>
<path stroke="#9399a3" vector-effect="non-scaling-stroke" d="
  M 107.44 73.01
  A 0.31 0.31 0.0 0 0 107.15 73.22
  L 70.88 180.92
  A 0.31 0.31 0.0 0 0 71.17 181.33
  L 85.75 181.33
  A 0.31 0.31 0.0 0 0 86.04 181.12
  L 122.31 73.42
  A 0.31 0.31 0.0 0 0 122.02 73.01
  L 107.44 73.01"
/>
</g>
<path fill="#ffffff" d="
  M 121.39 0.00
  Q 85.84 1.97 57.27 20.54
  Q 15.74 47.54 2.63 96.54
  C 0.30 105.25 0.49 111.82 0.00 119.87
  L 0.00 0.00
  L 121.39 0.00
  Z"
/>
<path fill="#263346" d="
  M 133.61 0.00
  Q 172.45 2.20 203.16 24.33
  C 232.12 45.21 252.91 79.36 255.44 115.75
  C 256.44 130.16 255.88 145.51 252.26 159.11
  C 231.96 235.45 148.85 276.08 75.97 244.52
  C 38.50 228.30 11.37 195.79 1.93 156.05
  C 0.25 148.95 0.43 142.95 0.00 136.25
  L 0.00 119.87
  C 0.49 111.82 0.30 105.25 2.63 96.54
  Q 15.74 47.54 57.27 20.54
  Q 85.84 1.97 121.39 0.00
  L 133.61 0.00
  Z
  M 115.95 181.38
  A 0.34 0.34 0.0 0 0 116.27 181.15
  L 152.56 73.39
  A 0.34 0.34 0.0 0 0 152.24 72.94
  L 137.70 72.94
  A 0.34 0.34 0.0 0 0 137.38 73.17
  L 101.09 180.93
  A 0.34 0.34 0.0 0 0 101.41 181.38
  L 115.95 181.38
  Z
  M 168.60 73.09
  A 0.33 0.33 0.0 0 0 168.28 73.31
  L 132.03 180.96
  A 0.33 0.33 0.0 0 0 132.34 181.40
  L 146.86 181.40
  A 0.33 0.33 0.0 0 0 147.18 181.18
  L 183.42 73.53
  A 0.33 0.33 0.0 0 0 183.11 73.09
  L 168.60 73.09
  Z
  M 107.44 73.01
  A 0.31 0.31 0.0 0 0 107.15 73.22
  L 70.88 180.92
  A 0.31 0.31 0.0 0 0 71.17 181.33
  L 85.75 181.33
  A 0.31 0.31 0.0 0 0 86.04 181.12
  L 122.31 73.42
  A 0.31 0.31 0.0 0 0 122.02 73.01
  L 107.44 73.01
  Z"
/>
<path fill="#ffffff" d="
  M 256.00 0.00
  L 256.00 256.00
  L 0.00 256.00
  L 0.00 136.25
  C 0.43 142.95 0.25 148.95 1.93 156.05
  C 11.37 195.79 38.50 228.30 75.97 244.52
  C 148.85 276.08 231.96 235.45 252.26 159.11
  C 255.88 145.51 256.44 130.16 255.44 115.75
  C 252.91 79.36 232.12 45.21 203.16 24.33
  Q 172.45 2.20 133.61 0.00
  L 256.00 0.00
  Z"
/>
<path fill="#ffffff" d="
  M 115.95 181.38
  L 101.41 181.38
  A 0.34 0.34 0.0 0 1 101.09 180.93
  L 137.38 73.17
  A 0.34 0.34 0.0 0 1 137.70 72.94
  L 152.24 72.94
  A 0.34 0.34 0.0 0 1 152.56 73.39
  L 116.27 181.15
  A 0.34 0.34 0.0 0 1 115.95 181.38
  Z"
/>
<path fill="#ffffff" d="
  M 168.60 73.09
  L 183.11 73.09
  A 0.33 0.33 0.0 0 1 183.42 73.53
  L 147.18 181.18
  A 0.33 0.33 0.0 0 1 146.86 181.40
  L 132.34 181.40
  A 0.33 0.33 0.0 0 1 132.03 180.96
  L 168.28 73.31
  A 0.33 0.33 0.0 0 1 168.60 73.09
  Z"
/>
<path fill="#ffffff" d="
  M 107.44 73.01
  L 122.02 73.01
  A 0.31 0.31 0.0 0 1 122.31 73.42
  L 86.04 181.12
  A 0.31 0.31 0.0 0 1 85.75 181.33
  L 71.17 181.33
  A 0.31 0.31 0.0 0 1 70.88 180.92
  L 107.15 73.22
  A 0.31 0.31 0.0 0 1 107.44 73.01
  Z"
/>
</svg>