<?xml version="1.0" encoding="UTF-8" standalone="no"?>
<!DOCTYPE svg PUBLIC "-//W3C//DTD SVG 1.1//EN" "http://www.w3.org/Graphics/SVG/1.1/DTD/svg11.dtd">
<svg xmlns="http://www.w3.org/2000/svg" version="1.1" viewBox="0.00 0.00 256.00 256.00" width="128" height="128">
<g stroke-width="2.00" fill="none" stroke-linecap="butt">
<path stroke="#808080" vector-effect="non-scaling-stroke" d="
  M 234.99 128.10
  A 109.79 109.79 0.0 0 0 125.20 18.31
  A 109.79 109.79 0.0 0 0 15.41 128.10
  A 109.79 109.79 0.0 0 0 125.20 237.89
  A 109.79 109.79 0.0 0 0 234.99 128.10"
/>
<path stroke="#808080" vector-effect="non-scaling-stroke" d="
  M 206.09 72.18
  C 181.36 37.13 137.97 21.25 97.00 33.82
  Q 67.04 43.01 48.10 67.12
  Q 24.22 97.52 27.37 137.02
  Q 28.88 155.83 37.54 172.65
  A 1.24 1.23 76.7 0 0 38.62 173.32
  Q 62.18 173.37 69.47 173.36
  Q 73.61 173.35 75.38 174.34
  C 79.40 176.58 81.15 181.20 80.46 185.75
  Q 79.11 194.54 70.20 194.69
  Q 58.45 194.88 53.82 194.69
  A 0.43 0.42 69.3 0 0 53.50 195.41
  C 89.09 233.54 149.25 237.37 188.94 202.94
  C 220.16 175.86 231.46 134.12 217.90 95.23
  A 1.17 1.17 0.0 0 0 216.79 94.44
  Q 215.04 94.42 73.52 94.44
  Q 68.35 94.44 65.98 93.24
  C 60.45 90.46 58.71 82.14 62.34 77.55
  Q 66.03 72.88 71.01 72.88
  Q 181.15 72.85 201.75 72.89
  Q 205.30 72.90 205.81 72.83
  A 0.42 0.41 -21.8 0 0 206.09 72.18"
/>
<path stroke="#808080" vector-effect="non-scaling-stroke" d="
  M 123.6589 126.9969
  A 10.17 10.17 0.0 0 0 113.4712 116.8446
  L 95.8312 116.8754
  A 10.17 10.17 0.0 0 0 85.6790 127.0631
  L 85.6811 128.2431
  A 10.17 10.17 0.0 0 0 95.8688 138.3954
  L 113.5088 138.3646
  A 10.17 10.17 0.0 0 0 123.6610 128.1769
  L 123.6589 126.9969"
/>
<path stroke="#808080" vector-effect="non-scaling-stroke" d="
  M 172.94 127.05
  A 10.15 10.15 0.0 0 0 162.79 116.90
  L 144.95 116.90
  A 10.15 10.15 0.0 0 0 134.80 127.05
  L 134.80 128.19
  A 10.15 10.15 0.0 0 0 144.95 138.34
  L 162.79 138.34
  A 10.15 10.15 0.0 0 0 172.94 128.19
  L 172.94 127.05"
/>
<path stroke="#808080" vector-effect="non-scaling-stroke" d="
  M 74.76 127.66
  A 10.51 10.51 0.0 0 0 64.25 117.15
  A 10.51 10.51 0.0 0 0 53.74 127.66
  A 10.51 10.51 0.0 0 0 64.25 138.17
  A 10.51 10.51 0.0 0 0 74.76 127.66"
/>
<path stroke="#808080" vector-effect="non-scaling-stroke" d="
  M 204.71 127.66
  A 10.51 10.51 0.0 0 0 194.20 117.15
  A 10.51 10.51 0.0 0 0 183.69 127.66
  A 10.51 10.51 0.0 0 0 194.20 138.17
  A 10.51 10.51 0.0 0 0 204.71 127.66"
/>
<path stroke="#808080" vector-effect="non-scaling-stroke" d="
  M 129.20 183.46
  A 10.07 10.07 0.0 0 0 119.13 173.39
  L 101.09 173.39
  A 10.07 10.07 0.0 0 0 91.02 183.46
  L 91.02 184.60
  A 10.07 10.07 0.0 0 0 101.09 194.67
  L 119.13 194.67
  A 10.07 10.07 0.0 0 0 129.20 184.60
  L 129.20 183.46"
/>
<path stroke="#808080" vector-effect="non-scaling-stroke" d="
  M 161.03 183.99
  A 10.50 10.50 0.0 0 0 150.53 173.49
  A 10.50 10.50 0.0 0 0 140.03 183.99
  A 10.50 10.50 0.0 0 0 150.53 194.49
  A 10.50 10.50 0.0 0 0 161.03 183.99"
/>
</g>
<path fill="#ffffff" d="
  M 256.00 0.00
  L 256.00 256.00
  L 0.00 256.00
  L 0.00 0.00
  L 256.00 0.00
  Z
  M 234.99 128.10
  A 109.79 109.79 0.0 0 0 125.20 18.31
  A 109.79 109.79 0.0 0 0 15.41 128.10
  A 109.79 109.79 0.0 0 0 125.20 237.89
  A 109.79 109.79 0.0 0 0 234.99 128.10
  Z"
/>
<path fill="#000000" d="
  M 234.99 128.10
  A 109.79 109.79 0.0 0 1 125.20 237.89
  A 109.79 109.79 0.0 0 1 15.41 128.10
  A 109.79 109.79 0.0 0 1 125.20 18.31
  A 109.79 109.79 0.0 0 1 234.99 128.10
  Z
  M 206.09 72.18
  C 181.36 37.13 137.97 21.25 97.00 33.82
  Q 67.04 43.01 48.10 67.12
  Q 24.22 97.52 27.37 137.02
  Q 28.88 155.83 37.54 172.65
  A 1.24 1.23 76.7 0 0 38.62 173.32
  Q 62.18 173.37 69.47 173.36
  Q 73.61 173.35 75.38 174.34
  C 79.40 176.58 81.15 181.20 80.46 185.75
  Q 79.11 194.54 70.20 194.69
  Q 58.45 194.88 53.82 194.69
  A 0.43 0.42 69.3 0 0 53.50 195.41
  C 89.09 233.54 149.25 237.37 188.94 202.94
  C 220.16 175.86 231.46 134.12 217.90 95.23
  A 1.17 1.17 0.0 0 0 216.79 94.44
  Q 215.04 94.42 73.52 94.44
  Q 68.35 94.44 65.98 93.24
  C 60.45 90.46 58.71 82.14 62.34 77.55
  Q 66.03 72.88 71.01 72.88
  Q 181.15 72.85 201.75 72.89
  Q 205.30 72.90 205.81 72.83
  A 0.42 0.41 -21.8 0 0 206.09 72.18
  Z"
/>
<path fill="#ffffff" d="
  M 205.81 72.83
  Q 205.30 72.90 201.75 72.89
  Q 181.15 72.85 71.01 72.88
  Q 66.03 72.88 62.34 77.55
  C 58.71 82.14 60.45 90.46 65.98 93.24
  Q 68.35 94.44 73.52 94.44
  Q 215.04 94.42 216.79 94.44
  A 1.17 1.17 0.0 0 1 217.90 95.23
  C 231.46 134.12 220.16 175.86 188.94 202.94
  C 149.25 237.37 89.09 233.54 53.50 195.41
  A 0.43 0.42 69.3 0 1 53.82 194.69
  Q 58.45 194.88 70.20 194.69
  Q 79.11 194.54 80.46 185.75
  C 81.15 181.20 79.40 176.58 75.38 174.34
  Q 73.61 173.35 69.47 173.36
  Q 62.18 173.37 38.62 173.32
  A 1.24 1.23 76.7 0 1 37.54 172.65
  Q 28.88 155.83 27.37 137.02
  Q 24.22 97.52 48.10 67.12
  Q 67.04 43.01 97.00 33.82
  C 137.97 21.25 181.36 37.13 206.09 72.18
  A 0.42 0.41 -21.8 0 1 205.81 72.83
  Z
  M 123.6589 126.9969
  A 10.17 10.17 0.0 0 0 113.4712 116.8446
  L 95.8312 116.8754
  A 10.17 10.17 0.0 0 0 85.6790 127.0631
  L 85.6811 128.2431
  A 10.17 10.17 0.0 0 0 95.8688 138.3954
  L 113.5088 138.3646
  A 10.17 10.17 0.0 0 0 123.6610 128.1769
  L 123.6589 126.9969
  Z
  M 172.94 127.05
  A 10.15 10.15 0.0 0 0 162.79 116.90
  L 144.95 116.90
  A 10.15 10.15 0.0 0 0 134.80 127.05
  L 134.80 128.19
  A 10.15 10.15 0.0 0 0 144.95 138.34
  L 162.79 138.34
  A 10.15 10.15 0.0 0 0 172.94 128.19
  L 172.94 127.05
  Z
  M 74.76 127.66
  A 10.51 10.51 0.0 0 0 64.25 117.15
  A 10.51 10.51 0.0 0 0 53.74 127.66
  A 10.51 10.51 0.0 0 0 64.25 138.17
  A 10.51 10.51 0.0 0 0 74.76 127.66
  Z
  M 204.71 127.66
  A 10.51 10.51 0.0 0 0 194.20 117.15
  A 10.51 10.51 0.0 0 0 183.69 127.66
  A 10.51 10.51 0.0 0 0 194.20 138.17
  A 10.51 10.51 0.0 0 0 204.71 127.66
  Z
  M 129.20 183.46
  A 10.07 10.07 0.0 0 0 119.13 173.39
  L 101.09 173.39
  A 10.07 10.07 0.0 0 0 91.02 183.46
  L 91.02 184.60
  A 10.07 10.07 0.0 0 0 101.09 194.67
  L 119.13 194.67
  A 10.07 10.07 0.0 0 0 129.20 184.60
  L 129.20 183.46
  Z
  M 161.03 183.99
  A 10.50 10.50 0.0 0 0 150.53 173.49
  A 10.50 10.50 0.0 0 0 140.03 183.99
  A 10.50 10.50 0.0 0 0 150.53 194.49
  A 10.50 10.50 0.0 0 0 161.03 183.99
  Z"
/>
<rect fill="#000000" x="-18.99" y="-10.76" transform="translate(104.67,127.62) rotate(-0.1)" width="37.98" height="21.52" rx="10.17"/>
<rect fill="#000000" x="134.80" y="116.90" width="38.14" height="21.44" rx="10.15"/>
<circle fill="#000000" cx="64.25" cy="127.66" r="10.51"/>
<circle fill="#000000" cx="194.20" cy="127.66" r="10.51"/>
<rect fill="#000000" x="91.02" y="173.39" width="38.18" height="21.28" rx="10.07"/>
<circle fill="#000000" cx="150.53" cy="183.99" r="10.50"/>
</svg>