<?xml version="1.0" encoding="UTF-8" standalone="no"?>
<!DOCTYPE svg PUBLIC "-//W3C//DTD SVG 1.1//EN" "http://www.w3.org/Graphics/SVG/1.1/DTD/svg11.dtd">
<svg xmlns="http://www.w3.org/2000/svg" version="1.1" viewBox="0.00 0.00 192.00 192.00" width="128" height="128">
<path fill="#57adad" d="
  M 121.87 56.97
  Q 121.79 57.05 121.66 57.05
  Q 107.43 57.18 93.24 57.07
  Q 83.67 57.01 76.94 50.31
  Q 70.22 43.61 70.10 34.05
  Q 69.93 19.85 69.99 5.63
  Q 69.99 5.50 70.08 5.41
  Q 70.23 5.26 70.36 5.26
  Q 84.59 5.13 98.79 5.23
  Q 108.35 5.30 115.08 12.00
  Q 121.81 18.69 121.92 28.25
  Q 122.09 42.45 122.03 56.68
  Q 122.03 56.81 121.87 56.97
  Z"
/>
<path fill="#57adad" d="
  M 192.00 5.25
  L 192.00 36.42
  Q 190.35 46.88 182.27 52.76
  C 177.23 56.44 172.16 57.17 165.28 57.13
  Q 145.52 57.01 140.70 57.08
  A 0.63 0.63 0.0 0 1 140.06 56.44
  Q 140.14 49.84 140.05 32.17
  Q 140.01 23.95 141.62 20.06
  Q 144.32 13.54 149.96 9.45
  Q 155.50 5.44 162.75 5.36
  Q 177.38 5.20 192.00 5.25
  Z"
/>
<path fill="#d2d2d2" d="
  M 192.00 70.01
  L 192.00 101.38
  Q 189.12 116.23 176.14 120.66
  Q 171.91 122.10 165.31 122.03
  Q 153.09 121.88 140.51 122.02
  A 0.42 0.41 90.0 0 1 140.10 121.60
  Q 140.13 98.34 140.08 96.24
  Q 139.93 89.56 141.29 85.91
  Q 145.34 75.08 155.87 71.25
  Q 159.22 70.03 166.25 70.02
  Q 179.13 69.99 192.00 70.01
  Z"
/>
<path fill="#edb056" d="
  M 0.00 101.47
  L 0.00 70.07
  Q 12.19 69.98 24.39 70.03
  Q 33.11 70.07 36.66 71.42
  C 45.70 74.88 51.83 83.41 51.88 93.26
  Q 51.98 111.73 51.90 121.56
  A 0.47 0.47 0.0 0 1 51.43 122.02
  Q 39.03 121.88 26.99 122.05
  Q 20.21 122.15 15.88 120.68
  Q 2.96 116.29 0.00 101.47
  Z"
/>
<path fill="#d2d2d2" d="
  M 121.80 121.88
  Q 121.72 121.96 121.59 121.96
  Q 107.36 122.06 93.16 121.92
  Q 83.59 121.82 76.88 115.11
  Q 70.17 108.39 70.08 98.83
  Q 69.95 84.63 70.05 70.40
  Q 70.05 70.27 70.13 70.18
  Q 70.28 70.03 70.42 70.03
  Q 84.65 69.94 98.85 70.08
  Q 108.41 70.17 115.12 76.88
  Q 121.84 83.60 121.92 93.16
  Q 122.06 107.36 121.96 121.59
  Q 121.96 121.73 121.80 121.88
  Z"
/>
<path fill="#edb056" d="
  M 0.00 166.25
  L 0.00 134.91
  Q 12.65 134.89 25.31 134.88
  Q 32.68 134.87 36.06 136.08
  Q 46.58 139.86 50.69 150.68
  Q 52.07 154.29 51.93 160.94
  Q 51.91 161.66 51.92 186.30
  A 0.54 0.54 0.0 0 1 51.38 186.84
  Q 39.05 186.71 27.12 186.88
  Q 20.24 186.98 15.98 185.55
  Q 2.96 181.18 0.00 166.25
  Z"
/>
<path fill="#d2d2d2" d="
  M 115.08 141.71
  Q 121.80 148.41 121.90 157.97
  Q 122.06 172.17 121.99 186.39
  Q 121.99 186.52 121.83 186.68
  Q 121.75 186.76 121.62 186.76
  Q 107.39 186.88 93.20 186.76
  Q 83.64 186.69 76.92 179.99
  Q 70.19 173.29 70.09 163.73
  Q 69.93 149.53 70.00 135.30
  Q 70.00 135.17 70.08 135.09
  Q 70.24 134.93 70.37 134.93
  Q 84.60 134.82 98.79 134.93
  Q 108.35 135.01 115.08 141.71
  Z"
/>
<path fill="#d2d2d2" d="
  M 192.00 134.91
  L 192.00 166.18
  C 190.13 178.14 180.73 186.74 168.50 186.80
  Q 159.94 186.84 140.71 186.81
  A 0.61 0.61 0.0 0 1 140.10 186.17
  Q 140.17 184.19 140.07 161.45
  Q 140.04 154.19 141.30 150.74
  Q 145.19 140.16 155.72 136.17
  Q 158.99 134.94 165.96 134.90
  Q 178.99 134.85 192.00 134.91
  Z"
/>
</svg>