<?xml version="1.0" encoding="UTF-8" standalone="no"?>
<!DOCTYPE svg PUBLIC "-//W3C//DTD SVG 1.1//EN" "http://www.w3.org/Graphics/SVG/1.1/DTD/svg11.dtd">
<svg xmlns="http://www.w3.org/2000/svg" version="1.1" viewBox="0.00 0.00 256.00 256.00" width="128" height="128">
<path stroke="#f49a79" stroke-width="2.00" fill="none" stroke-linecap="butt" vector-effect="non-scaling-stroke" d="
  M 106.57 200.26
  C 109.65 199.24 110.78 196.15 112.46 194.46
  Q 144.14 162.49 164.24 141.99
  C 166.52 139.66 169.79 136.89 171.59 135.36
  C 174.87 132.55 176.42 129.56 177.44 125.79
  A 1.54 1.54 0.0 0 0 176.69 124.04
  Q 176.26 123.81 175.52 123.68
  C 170.24 122.74 166.03 122.11 160.72 120.68
  Q 150.63 117.97 138.09 114.71
  Q 133.61 113.55 134.15 109.37
  C 134.80 104.37 138.10 99.08 139.11 95.83
  Q 142.54 84.72 145.26 78.07
  C 147.48 72.62 148.77 66.02 151.78 60.53
  Q 152.38 59.44 151.89 57.50
  A 0.80 0.80 0.0 0 0 151.20 56.89
  Q 149.28 56.67 148.38 57.94
  C 145.81 61.54 142.25 64.56 138.64 68.44
  Q 121.30 87.05 120.06 88.31
  Q 116.94 91.49 85.15 124.01
  C 82.69 126.52 80.69 129.18 79.26 131.70
  A 1.32 1.32 0.0 0 0 79.84 133.54
  Q 81.86 134.51 83.57 134.88
  Q 101.40 138.72 120.27 143.44
  C 124.27 144.44 124.61 147.60 123.12 150.88
  C 119.06 159.84 115.24 172.08 111.95 179.72
  Q 110.50 183.07 105.75 196.95
  Q 104.89 199.46 105.61 200.07
  A 1.02 1.01 55.9 0 0 106.57 200.26"
/>
<path fill="#f43e01" d="
  M 184.74 0.00
  C 191.20 0.48 198.49 -0.21 204.33 2.41
  Q 210.53 5.20 215.92 7.46
  A 6.38 6.17 73.7 0 1 217.34 8.27
  Q 221.37 11.31 225.90 13.15
  Q 227.25 13.70 228.59 14.76
  C 238.10 22.34 245.39 31.80 250.17 42.88
  C 253.34 50.25 255.43 56.80 256.00 64.98
  L 256.00 190.73
  C 255.67 199.42 253.69 204.63 250.25 213.37
  Q 247.78 219.62 245.78 222.94
  Q 237.85 236.13 226.70 243.42
  Q 216.20 250.28 202.63 253.99
  C 197.29 255.45 191.45 255.61 185.75 256.00
  L 66.51 256.00
  L 55.90 254.98
  A 3.94 3.89 -31.3 0 1 54.80 254.72
  Q 48.85 252.47 42.98 250.37
  C 39.40 249.08 34.83 245.81 32.07 244.40
  Q 28.46 242.54 24.56 238.88
  Q 17.41 232.19 14.55 227.75
  Q 7.78 217.25 2.34 203.69
  C -0.31 197.09 0.29 188.48 0.00 181.26
  L 0.00 71.78
  Q 0.18 66.89 1.40 62.28
  A 5.15 4.96 55.2 0 0 1.56 61.28
  C 1.93 55.07 3.97 51.17 6.07 45.17
  C 8.02 39.57 10.30 36.45 12.77 31.66
  Q 13.90 29.49 16.23 26.71
  Q 20.95 21.08 27.61 15.79
  Q 30.99 13.11 34.14 11.55
  C 37.25 10.02 39.67 8.02 43.24 6.59
  Q 50.78 3.56 56.98 1.18
  Q 58.93 0.44 66.24 0.00
  L 184.74 0.00
  Z
  M 106.57 200.26
  C 109.65 199.24 110.78 196.15 112.46 194.46
  Q 144.14 162.49 164.24 141.99
  C 166.52 139.66 169.79 136.89 171.59 135.36
  C 174.87 132.55 176.42 129.56 177.44 125.79
  A 1.54 1.54 0.0 0 0 176.69 124.04
  Q 176.26 123.81 175.52 123.68
  C 170.24 122.74 166.03 122.11 160.72 120.68
  Q 150.63 117.97 138.09 114.71
  Q 133.61 113.55 134.15 109.37
  C 134.80 104.37 138.10 99.08 139.11 95.83
  Q 142.54 84.72 145.26 78.07
  C 147.48 72.62 148.77 66.02 151.78 60.53
  Q 152.38 59.44 151.89 57.50
  A 0.80 0.80 0.0 0 0 151.20 56.89
  Q 149.28 56.67 148.38 57.94
  C 145.81 61.54 142.25 64.56 138.64 68.44
  Q 121.30 87.05 120.06 88.31
  Q 116.94 91.49 85.15 124.01
  C 82.69 126.52 80.69 129.18 79.26 131.70
  A 1.32 1.32 0.0 0 0 79.84 133.54
  Q 81.86 134.51 83.57 134.88
  Q 101.40 138.72 120.27 143.44
  C 124.27 144.44 124.61 147.60 123.12 150.88
  C 119.06 159.84 115.24 172.08 111.95 179.72
  Q 110.50 183.07 105.75 196.95
  Q 104.89 199.46 105.61 200.07
  A 1.02 1.01 55.9 0 0 106.57 200.26
  Z"
/>
<path fill="#f4f5f0" d="
  M 105.61 200.07
  Q 104.89 199.46 105.75 196.95
  Q 110.50 183.07 111.95 179.72
  C 115.24 172.08 119.06 159.84 123.12 150.88
  C 124.61 147.60 124.27 144.44 120.27 143.44
  Q 101.40 138.72 83.57 134.88
  Q 81.86 134.51 79.84 133.54
  A 1.32 1.32 0.0 0 1 79.26 131.70
  C 80.69 129.18 82.69 126.52 85.15 124.01
  Q 116.94 91.49 120.06 88.31
  Q 121.30 87.05 138.64 68.44
  C 142.25 64.56 145.81 61.54 148.38 57.94
  Q 149.28 56.67 151.20 56.89
  A 0.80 0.80 0.0 0 1 151.89 57.50
  Q 152.38 59.44 151.78 60.53
  C 148.77 66.02 147.48 72.62 145.26 78.07
  Q 142.54 84.72 139.11 95.83
  C 138.10 99.08 134.80 104.37 134.15 109.37
  Q 133.61 113.55 138.09 114.71
  Q 150.63 117.97 160.72 120.68
  C 166.03 122.11 170.24 122.74 175.52 123.68
  Q 176.26 123.81 176.69 124.04
  A 1.54 1.54 0.0 0 1 177.44 125.79
  C 176.42 129.56 174.87 132.55 171.59 135.36
  C 169.79 136.89 166.52 139.66 164.24 141.99
  Q 144.14 162.49 112.46 194.46
  C 110.78 196.15 109.65 199.24 106.57 200.26
  A 1.02 1.01 55.9 0 1 105.61 200.07
  Z"
/>
</svg>