<?xml version="1.0" encoding="UTF-8" standalone="no"?>
<!DOCTYPE svg PUBLIC "-//W3C//DTD SVG 1.1//EN" "http://www.w3.org/Graphics/SVG/1.1/DTD/svg11.dtd">
<svg xmlns="http://www.w3.org/2000/svg" version="1.1" viewBox="0.00 0.00 256.00 256.00" width="128" height="128">
<g stroke-width="2.00" fill="none" stroke-linecap="butt">
<path stroke="#6296cd" stroke-opacity="0.973" vector-effect="non-scaling-stroke" d="
  M 99.89 26.14
  L 119.50 40.27"
/>
<path stroke="#6296cd" stroke-opacity="0.973" vector-effect="non-scaling-stroke" d="
  M 119.50 40.27
  Q 122.17 42.92 125.11 45.40
  C 129.84 49.38 130.07 57.85 129.77 64.19
  Q 129.41 71.80 121.69 73.52"
/>
<path stroke="#6296cd" stroke-opacity="0.973" vector-effect="non-scaling-stroke" d="
  M 45.34 54.25
  C 40.29 57.15 37.35 61.20 33.89 65.37
  Q 32.56 66.97 32.12 69.02
  Q 30.79 75.19 30.46 81.42"
/>
<path stroke="#6298d0" stroke-opacity="0.910" vector-effect="non-scaling-stroke" d="
  M 108.19 168.68
  L 111.61 169.14
  A 0.54 0.53 -5.8 0 1 112.02 169.47
  L 112.13 169.76"
/>
<path stroke="#6296cd" stroke-opacity="0.973" vector-effect="non-scaling-stroke" d="
  M 112.13 169.76
  L 108.03 168.88
  A 0.42 0.42 0.0 0 0 107.53 169.29
  L 107.53 173.87
  A 0.53 0.52 87.7 0 1 107.05 174.40
  L 98.80 175.16"
/>
<path stroke="#a1c0e1" vector-effect="non-scaling-stroke" d="
  M 98.80 175.16
  Q 92.13 176.32 88.75 176.14
  Q 76.88 175.49 67.34 176.34
  Q 61.64 176.85 58.14 176.50
  Q 56.64 176.35 48.32 176.24
  A 5.05 4.71 -47.0 0 0 47.44 176.30
  L 41.95 177.20
  A 0.04 0.03 38.7 0 0 41.96 177.27
  L 42.28 177.27
  A 0.06 0.05 41.3 0 1 42.29 177.38
  Q 38.49 177.70 35.31 176.26
  A 2.80 2.77 59.3 0 0 34.39 176.02
  Q 31.98 175.82 28.58 175.87
  Q 27.15 175.88 19.87 173.94
  A 2.02 2.01 -39.4 0 0 19.24 173.88
  L 11.85 174.32
  Q 11.82 174.32 11.80 174.32
  L 3.63 174.09"
/>
<path stroke="#6296cd" stroke-opacity="0.973" vector-effect="non-scaling-stroke" d="
  M 4.05 70.27
  Q 3.93 70.08 4.09 69.92
  A 0.21 0.21 0.0 0 1 4.45 70.10
  L 4.40 70.52
  A 0.19 0.19 0.0 0 0 4.73 70.66
  Q 4.91 70.45 5.35 69.84
  Q 6.05 68.91 6.06 67.73
  Q 6.06 67.24 6.16 67.87
  C 6.24 68.32 5.32 69.99 4.39 71.94
  A 0.23 0.23 0.0 0 0 4.57 72.27
  L 4.95 72.32
  A 0.22 0.22 0.0 0 0 5.20 72.13
  L 5.28 71.53
  A 0.97 0.95 83.9 0 1 5.89 70.76
  C 12.09 68.30 11.35 61.52 11.12 55.90"
/>
<path stroke="#6296cd" stroke-opacity="0.973" vector-effect="non-scaling-stroke" d="
  M 5.66 89.74
  L 3.90 89.76
  A 0.21 0.21 0.0 0 0 3.69 89.98
  L 3.78 95.32
  A 8.69 1.01 89.1 0 0 4.92 103.99
  L 5.08 103.99
  A 8.69 1.01 89.1 0 0 5.96 95.28
  L 5.87 89.94
  A 0.21 0.21 0.0 0 0 5.66 89.74"
/>
<path stroke="#5e95cc" stroke-opacity="0.757" vector-effect="non-scaling-stroke" d="
  M 244.56 24.24
  Q 245.65 24.62 246.69 24.41
  A 0.40 0.40 0.0 0 1 247.17 24.72
  L 247.17 24.74
  A 0.32 0.31 76.2 0 1 246.95 25.11
  Q 242.34 26.58 237.75 26.37
  A 0.08 0.04 -18.4 0 0 237.67 26.46
  Q 237.73 26.48 237.74 26.52
  A 0.36 0.17 -0.8 0 0 238.02 26.65
  L 239.97 26.78"
/>
<path stroke="#6298d0" stroke-opacity="0.910" vector-effect="non-scaling-stroke" d="
  M 231.73 48.01
  C 224.56 48.19 218.15 47.90 212.82 49.72"
/>
<path stroke="#6296cd" stroke-opacity="0.973" vector-effect="non-scaling-stroke" d="
  M 212.82 49.72
  L 218.98 47.82
  A 0.22 0.22 0.0 0 0 219.13 47.61
  L 219.13 47.32
  A 0.30 0.29 -2.7 0 0 218.80 47.03
  C 214.30 47.52 212.26 49.11 207.62 52.03
  Q 202.08 55.52 195.20 55.72
  Q 191.70 55.82 187.77 52.99
  C 183.44 49.87 180.17 50.07 175.49 49.73
  C 170.41 49.35 166.56 46.42 161.82 45.67
  Q 159.20 45.25 159.87 46.55"
/>
<path stroke="#6298d0" stroke-opacity="0.910" vector-effect="non-scaling-stroke" d="
  M 159.87 46.55
  Q 148.64 47.33 137.28 45.96"
/>
<path stroke="#6296cd" stroke-opacity="0.973" vector-effect="non-scaling-stroke" d="
  M 136.55 45.66
  C 134.58 41.48 133.32 37.37 136.30 34.17
  Q 136.40 34.07 137.24 33.46
  Q 139.30 31.99 140.77 31.33
  A 6.03 5.96 30.2 0 1 142.83 30.80
  C 145.43 30.61 148.54 30.77 151.64 30.28
  Q 161.68 28.67 166.31 29.20
  Q 178.19 30.55 182.62 30.16
  Q 197.41 28.84 214.53 29.26
  A 2.66 2.58 57.6 0 1 215.62 29.52
  L 216.48 29.94
  A 1.25 1.23 -30.2 0 0 216.99 30.07
  Q 229.35 30.74 240.84 28.70"
/>
<path stroke="#6298d0" stroke-opacity="0.910" vector-effect="non-scaling-stroke" d="
  M 240.84 28.70
  L 250.17 26.66
  A 0.18 0.18 0.0 0 0 250.12 26.31
  L 239.97 26.78"
/>
<path stroke="#a2c1df" stroke-opacity="0.973" vector-effect="non-scaling-stroke" d="
  M 213.08 171.01
  Q 212.76 171.07 212.81 171.42
  Q 212.88 171.86 213.30 172.22"
/>
<path stroke="#6296cd" stroke-opacity="0.973" vector-effect="non-scaling-stroke" d="
  M 213.30 172.22
  C 211.53 172.23 209.19 172.32 207.61 171.77
  C 202.02 169.81 197.99 170.52 191.94 172.06
  C 187.49 173.20 184.15 172.69 180.37 170.40"
/>
<path stroke="#6296cd" stroke-opacity="0.973" vector-effect="non-scaling-stroke" d="
  M 180.37 170.40
  L 175.33 174.76"
/>
<path stroke="#6296cd" stroke-opacity="0.973" vector-effect="non-scaling-stroke" d="
  M 137.87 129.72
  Q 136.81 119.51 135.59 109.31
  Q 134.48 100.02 125.05 98.40
  Q 112.67 96.28 103.52 96.39
  C 94.53 96.49 87.65 96.39 80.84 99.28
  Q 75.32 101.62 76.60 108.03"
/>
<path stroke="#6296cd" stroke-opacity="0.973" vector-effect="non-scaling-stroke" d="
  M 137.43 151.45
  L 137.86 161.90
  A 2.14 2.12 -12.9 0 1 136.55 163.96
  Q 131.87 165.93 126.66 166.18
  A 0.11 0.09 5.7 0 0 126.60 166.22
  L 126.03 167.35
  A 0.09 0.09 0.0 0 0 126.11 167.48
  Q 132.51 167.35 137.46 163.87
  A 0.11 0.10 -29.6 0 1 137.62 163.91
  Q 137.65 163.99 137.50 164.13
  Q 136.47 165.04 133.35 167.80
  A 0.54 0.54 0.0 0 0 133.30 168.55
  Q 133.37 168.64 133.98 168.58
  A 0.70 0.69 -28.8 0 1 134.48 168.72
  Q 135.42 169.44 136.45 169.59
  A 0.33 0.33 0.0 0 0 136.76 169.06
  Q 134.94 166.71 137.19 165.76"
/>
<path stroke="#5e95cc" stroke-opacity="0.757" vector-effect="non-scaling-stroke" d="
  M 151.40 172.55
  Q 156.81 173.68 162.56 173.36"
/>
<path stroke="#6298d0" stroke-opacity="0.910" vector-effect="non-scaling-stroke" d="
  M 162.56 173.36
  L 151.32 173.14
  A 0.24 0.22 4.3 0 0 151.09 173.32
  L 151.09 173.33
  A 0.27 0.26 -82.2 0 0 151.31 173.63
  Q 157.57 174.60 160.76 174.88
  Q 162.14 174.99 164.60 174.53
  Q 166.51 174.17 168.42 174.36
  Q 171.83 174.69 175.33 174.76"
/>
<path stroke="#6296cf" vector-effect="non-scaling-stroke" d="
  M 180.37 170.40
  L 178.02 173.22
  A 0.36 0.35 -65.9 0 0 178.24 173.80
  Q 186.67 175.07 199.55 175.29
  Q 207.29 175.43 212.57 173.28"
/>
<path stroke="#a1c0e1" vector-effect="non-scaling-stroke" d="
  M 212.57 173.28
  Q 214.39 173.80 216.30 173.07
  A 0.31 0.31 0.0 0 1 216.69 173.23
  L 216.71 173.26
  A 0.34 0.33 -24.7 0 1 216.54 173.70
  C 211.60 175.94 206.33 175.91 200.46 175.75
  Q 197.47 175.67 190.88 175.78
  Q 182.12 175.92 181.29 175.71
  Q 179.05 175.16 170.32 175.17
  C 168.66 175.17 166.86 174.53 165.17 174.83
  Q 162.70 175.28 156.15 175.34
  A 4.85 4.73 53.6 0 1 154.51 175.07
  Q 151.18 173.91 144.90 174.08
  A 0.06 0.06 0.0 0 0 144.88 174.20
  Q 145.58 174.46 146.35 174.34
  A 0.01 0.01 0.0 0 1 146.37 174.34
  Q 146.37 174.35 146.37 174.36
  A 0.01 0.01 0.0 0 1 146.36 174.38
  L 136.37 176.08
  A 3.90 3.49 -48.2 0 1 135.83 176.14
  C 129.52 176.26 124.94 176.98 120.63 175.11
  A 0.08 0.07 -30.4 0 1 120.67 174.97
  Q 123.15 175.12 125.77 174.31
  A 0.24 0.24 0.0 0 0 125.92 173.99
  L 125.78 173.64
  A 0.21 0.20 67.4 0 0 125.52 173.53
  C 119.32 175.65 113.46 174.95 107.28 175.04"
/>
<path stroke="#6296cd" stroke-opacity="0.973" vector-effect="non-scaling-stroke" d="
  M 107.28 175.04
  Q 109.86 174.71 111.96 173.69
  A 0.30 0.29 31.3 0 0 111.82 173.13
  L 111.05 173.15"
/>
<path stroke="#6298d0" stroke-opacity="0.910" vector-effect="non-scaling-stroke" d="
  M 111.05 173.15
  C 117.02 173.28 121.81 174.38 126.25 169.25
  A 0.68 0.68 0.0 0 0 125.75 168.13
  L 121.15 168.07"
/>
<path stroke="#6298d0" stroke-opacity="0.910" vector-effect="non-scaling-stroke" d="
  M 114.80 168.01
  Q 112.65 168.20 110.98 167.21"
/>
<path stroke="#6296cd" stroke-opacity="0.973" vector-effect="non-scaling-stroke" d="
  M 110.58 165.67
  Q 112.71 166.65 108.80 163.58
  C 105.48 160.97 96.93 158.48 92.66 153.95
  A 0.94 0.93 57.4 0 1 92.99 152.44
  L 99.61 149.72
  A 1.41 1.12 6.5 0 0 99.93 149.52
  C 102.23 147.59 108.72 142.34 108.27 138.61"
/>
<path stroke="#6298d0" stroke-opacity="0.910" vector-effect="non-scaling-stroke" d="
  M 108.27 138.61
  L 107.52 139.75
  A 0.13 0.13 0.0 0 1 107.28 139.68
  Q 107.28 139.52 107.34 139.38
  Q 108.83 136.25 108.94 132.89"
/>
<path stroke="#6298d0" stroke-opacity="0.910" vector-effect="non-scaling-stroke" d="
  M 107.76 126.99
  C 107.45 123.38 104.93 121.51 103.75 118.63"
/>
<path stroke="#6296cd" stroke-opacity="0.973" vector-effect="non-scaling-stroke" d="
  M 103.75 118.63
  Q 109.94 126.30 109.17 136.23
  A 0.17 0.17 0.0 0 0 109.32 136.41
  A 0.17 0.16 9.1 0 0 109.51 136.28
  Q 110.64 130.01 108.53 123.96
  C 105.20 114.46 96.91 113.11 88.09 112.03
  A 0.34 0.34 0.0 0 0 87.78 112.58
  Q 88.06 112.93 88.78 113.30"
/>
<path stroke="#a2c1df" stroke-opacity="0.973" vector-effect="non-scaling-stroke" d="
  M 107.28 175.04
  L 98.80 175.16"
/>
<path stroke="#a1c0e1" vector-effect="non-scaling-stroke" d="
  M 213.30 172.22
  Q 213.41 172.72 212.57 173.28"
/>
<path stroke="#c6d0da" stroke-opacity="0.600" vector-effect="non-scaling-stroke" d="
  M 51.86 237.04
  L 25.50 237.19"
/>
</g>
<path fill="#404f5a" fill-opacity="0.196" d="
  M 230.49 24.50
  L 229.98 24.35
  Q 227.20 21.98 226.42 18.05
  A 0.36 0.36 0.0 0 1 226.98 17.69
  L 232.16 21.44
  A 0.04 0.03 -52.0 0 0 232.20 21.43
  L 232.37 21.19
  A 0.13 0.12 39.9 0 0 232.35 21.02
  L 227.71 17.12
  A 0.71 0.71 0.0 0 0 226.67 17.25
  L 225.72 18.55
  A 0.51 0.50 46.7 0 1 224.89 18.52
  Q 224.46 17.85 223.75 17.92
  A 0.67 0.66 87.7 0 0 223.14 18.59
  Q 223.17 21.17 222.26 23.78
  Q 221.84 24.17 221.09 23.89
  A 1.23 1.17 46.5 0 0 220.35 23.85
  Q 218.93 24.23 217.94 25.03
  A 0.49 0.49 0.0 0 1 217.14 24.73
  Q 217.02 23.92 217.20 23.52
  A 1.07 1.07 0.0 0 0 216.28 22.02
  Q 209.39 21.65 201.62 22.61
  Q 201.62 22.62 201.61 22.62
  Q 207.97 22.05 213.92 22.27
  A 0.07 0.05 6.0 0 1 213.99 22.33
  Q 213.97 22.36 214.01 22.38
  A 0.11 0.04 -8.9 0 1 213.88 22.45
  Q 206.46 22.81 199.06 23.48
  Q 192.45 24.08 181.82 22.97
  Q 177.71 22.53 164.46 23.97
  C 165.55 23.58 166.20 23.80 167.38 23.64
  C 162.22 23.57 156.66 24.00 150.95 24.33
  C 148.85 24.45 146.38 24.22 144.47 24.13
  A 0.44 0.44 0.0 0 1 144.10 23.50
  Q 147.77 15.67 155.90 15.16
  Q 185.66 13.33 214.54 13.85
  Q 219.73 13.94 227.52 15.51
  C 230.56 16.12 233.66 18.33 236.87 18.34
  A 1.63 1.61 70.5 0 1 238.14 18.96
  C 239.25 20.35 239.87 23.36 241.58 23.74
  A 0.38 0.38 0.0 0 1 241.55 24.49
  Q 236.16 25.21 230.49 24.50
  Z"
/>
<path fill="#6296cf" d="
  M 99.89 26.14
  L 119.50 40.27
  Q 122.17 42.92 125.11 45.40
  C 129.84 49.38 130.07 57.85 129.77 64.19
  Q 129.41 71.80 121.69 73.52
  Q 113.39 68.34 109.84 64.15
  Q 102.31 55.24 91.75 48.81
  C 85.14 44.78 80.61 43.66 72.83 44.70
  Q 65.46 45.68 58.76 46.51
  C 53.30 47.19 49.40 50.93 45.34 54.25
  C 40.29 57.15 37.35 61.20 33.89 65.37
  Q 32.56 66.97 32.12 69.02
  Q 30.79 75.19 30.46 81.42
  C 27.97 98.88 25.76 118.63 36.20 134.29
  C 40.81 141.22 43.13 145.51 50.07 148.53
  Q 53.90 150.20 57.15 154.00
  A 5.60 5.58 75.1 0 0 60.33 155.85
  Q 68.54 157.48 77.44 157.37
  A 6.44 6.38 38.9 0 0 78.51 157.26
  Q 83.47 156.34 85.01 156.64
  Q 87.51 157.13 91.29 160.34
  A 1.15 0.96 -5.0 0 0 91.49 160.48
  L 104.13 167.22
  A 0.62 0.22 44.1 0 0 104.26 167.28
  L 108.19 168.68
  L 111.61 169.14
  A 0.54 0.53 -5.8 0 1 112.02 169.47
  L 112.13 169.76
  L 108.03 168.88
  A 0.42 0.42 0.0 0 0 107.53 169.29
  L 107.53 173.87
  A 0.53 0.52 87.7 0 1 107.05 174.40
  L 98.80 175.16
  Q 92.13 176.32 88.75 176.14
  Q 76.88 175.49 67.34 176.34
  Q 61.64 176.85 58.14 176.50
  Q 56.64 176.35 48.32 176.24
  A 5.05 4.71 -47.0 0 0 47.44 176.30
  L 41.95 177.20
  A 0.04 0.03 38.7 0 0 41.96 177.27
  L 42.28 177.27
  A 0.06 0.05 41.3 0 1 42.29 177.38
  Q 38.49 177.70 35.31 176.26
  A 2.80 2.77 59.3 0 0 34.39 176.02
  Q 31.98 175.82 28.58 175.87
  Q 27.15 175.88 19.87 173.94
  A 2.02 2.01 -39.4 0 0 19.24 173.88
  L 11.85 174.32
  Q 11.82 174.32 11.80 174.32
  L 3.63 174.09
  Q 4.08 172.75 5.48 173.10
  Q 9.54 174.12 12.68 173.78
  Q 12.82 173.76 19.85 172.71
  Q 26.38 171.73 31.24 169.99
  A 7.66 7.61 -69.7 0 0 32.47 169.42
  C 38.88 165.67 42.14 163.86 46.56 162.77
  A 3.84 3.73 -53.0 0 1 47.33 162.65
  Q 51.27 162.45 54.27 160.70
  A 0.96 0.96 0.0 0 0 54.10 158.96
  L 53.52 158.75
  A 1.71 1.34 52.0 0 0 53.28 158.69
  Q 50.14 158.18 44.06 160.25
  Q 40.72 161.39 31.27 162.15
  Q 25.31 162.63 21.80 158.17
  Q 18.88 154.47 15.97 148.55
  Q 14.51 145.59 9.60 140.90
  A 6.42 6.39 4.3 0 1 8.89 140.08
  Q 6.06 136.12 5.26 135.22
  Q 2.45 132.08 1.82 130.30
  C 0.21 125.73 0.37 120.95 0.00 116.36
  L 0.00 96.77
  Q 0.24 91.52 0.19 86.25
  Q 0.11 77.91 3.49 70.35
  A 0.03 0.03 0.0 0 1 3.55 70.36
  Q 3.49 70.60 3.51 70.68
  A 0.05 0.04 49.0 0 0 3.60 70.69
  Q 3.89 69.78 4.05 70.27
  Q 3.93 70.08 4.09 69.92
  A 0.21 0.21 0.0 0 1 4.45 70.10
  L 4.40 70.52
  A 0.19 0.19 0.0 0 0 4.73 70.66
  Q 4.91 70.45 5.35 69.84
  Q 6.05 68.91 6.06 67.73
  Q 6.06 67.24 6.16 67.87
  C 6.24 68.32 5.32 69.99 4.39 71.94
  A 0.23 0.23 0.0 0 0 4.57 72.27
  L 4.95 72.32
  A 0.22 0.22 0.0 0 0 5.20 72.13
  L 5.28 71.53
  A 0.97 0.95 83.9 0 1 5.89 70.76
  C 12.09 68.30 11.35 61.52 11.12 55.90
  L 24.00 40.97
  A 1.39 1.03 -79.9 0 1 24.17 40.81
  C 30.47 35.58 35.40 30.45 42.47 27.50
  Q 54.20 22.61 65.31 20.38
  C 68.02 19.84 72.18 19.82 75.56 20.24
  Q 83.84 21.28 92.12 23.17
  Q 96.27 24.12 99.89 26.14
  Z
  M 5.66 89.74
  L 3.90 89.76
  A 0.21 0.21 0.0 0 0 3.69 89.98
  L 3.78 95.32
  A 8.69 1.01 89.1 0 0 4.92 103.99
  L 5.08 103.99
  A 8.69 1.01 89.1 0 0 5.96 95.28
  L 5.87 89.94
  A 0.21 0.21 0.0 0 0 5.66 89.74
  Z"
/>
<path fill="#5794c7" fill-opacity="0.514" d="
  M 222.26 23.78
  Q 225.75 25.28 229.98 24.35
  L 230.49 24.50
  Q 237.81 25.81 244.56 24.24
  Q 245.65 24.62 246.69 24.41
  A 0.40 0.40 0.0 0 1 247.17 24.72
  L 247.17 24.74
  A 0.32 0.31 76.2 0 1 246.95 25.11
  Q 242.34 26.58 237.75 26.37
  A 0.08 0.04 -18.4 0 0 237.67 26.46
  Q 237.73 26.48 237.74 26.52
  A 0.36 0.17 -0.8 0 0 238.02 26.65
  L 239.97 26.78
  L 236.59 26.77
  L 228.71 25.38
  A 2.06 1.57 41.3 0 0 228.28 25.35
  L 216.30 26.12
  L 167.67 25.41
  A 0.87 0.78 -48.2 0 0 167.49 25.43
  Q 164.86 25.96 162.67 25.06
  A 1.69 1.65 55.2 0 0 162.05 24.94
  Q 159.63 24.93 148.13 25.13
  Q 148.13 25.14 148.12 25.14
  Q 148.44 25.12 148.54 25.20
  A 0.08 0.08 0.0 0 1 148.50 25.34
  L 140.81 26.29
  A 0.05 0.04 68.8 0 0 140.78 26.36
  Q 140.85 26.46 140.99 26.53
  A 0.01 0.01 0.0 0 1 140.99 26.55
  L 135.58 27.47
  A 2.76 2.74 23.0 0 0 134.53 27.89
  Q 133.49 28.58 132.82 28.53
  A 0.30 0.30 0.0 0 0 132.62 29.07
  Q 132.63 29.08 132.98 29.11
  Q 133.08 29.12 132.98 29.15
  Q 132.72 29.22 132.44 29.49
  Q 129.07 29.84 130.10 34.16
  Q 128.15 32.14 129.49 30.57
  Q 129.91 30.08 133.56 27.49
  A 0.04 0.03 13.5 0 0 133.52 27.43
  Q 133.27 27.54 133.23 27.45
  A 0.13 0.09 -22.0 0 1 133.32 27.31
  Q 140.36 24.76 148.18 24.66
  Q 151.40 24.62 156.30 24.23
  Q 160.36 23.92 164.46 23.97
  Q 177.71 22.53 181.82 22.97
  Q 192.45 24.08 199.06 23.48
  Q 206.46 22.81 213.88 22.45
  A 0.11 0.04 -8.9 0 0 214.01 22.38
  Q 213.97 22.36 213.99 22.33
  A 0.07 0.05 6.0 0 0 213.92 22.27
  Q 207.97 22.05 201.61 22.62
  Q 201.62 22.62 201.62 22.61
  Q 209.39 21.65 216.28 22.02
  A 1.07 1.07 0.0 0 1 217.20 23.52
  Q 217.02 23.92 217.14 24.73
  A 0.49 0.49 0.0 0 0 217.94 25.03
  Q 218.93 24.23 220.35 23.85
  A 1.23 1.17 46.5 0 1 221.09 23.89
  Q 221.84 24.17 222.26 23.78
  Z"
/>
<path fill="#6296cf" d="
  M 231.73 48.01
  C 224.56 48.19 218.15 47.90 212.82 49.72
  L 218.98 47.82
  A 0.22 0.22 0.0 0 0 219.13 47.61
  L 219.13 47.32
  A 0.30 0.29 -2.7 0 0 218.80 47.03
  C 214.30 47.52 212.26 49.11 207.62 52.03
  Q 202.08 55.52 195.20 55.72
  Q 191.70 55.82 187.77 52.99
  C 183.44 49.87 180.17 50.07 175.49 49.73
  C 170.41 49.35 166.56 46.42 161.82 45.67
  Q 159.20 45.25 159.87 46.55
  Q 148.64 47.33 137.28 45.96
  L 136.55 45.66
  C 134.58 41.48 133.32 37.37 136.30 34.17
  Q 136.40 34.07 137.24 33.46
  Q 139.30 31.99 140.77 31.33
  A 6.03 5.96 30.2 0 1 142.83 30.80
  C 145.43 30.61 148.54 30.77 151.64 30.28
  Q 161.68 28.67 166.31 29.20
  Q 178.19 30.55 182.62 30.16
  Q 197.41 28.84 214.53 29.26
  A 2.66 2.58 57.6 0 1 215.62 29.52
  L 216.48 29.94
  A 1.25 1.23 -30.2 0 0 216.99 30.07
  Q 229.35 30.74 240.84 28.70
  L 250.17 26.66
  A 0.18 0.18 0.0 0 0 250.12 26.31
  L 239.97 26.78
  L 238.02 26.65
  A 0.36 0.17 -0.8 0 1 237.74 26.52
  Q 237.73 26.48 237.67 26.46
  A 0.08 0.04 -18.4 0 1 237.75 26.37
  Q 242.34 26.58 246.95 25.11
  A 0.32 0.31 76.2 0 0 247.17 24.74
  L 247.17 24.72
  A 0.40 0.40 0.0 0 0 246.69 24.41
  Q 245.65 24.62 244.56 24.24
  L 247.26 23.19
  A 1.36 1.05 -52.5 0 1 247.52 23.12
  Q 248.73 23.01 250.39 23.78
  A 0.28 0.28 0.0 0 1 250.40 24.28
  Q 250.15 24.40 249.93 24.33
  A 0.09 0.09 0.0 0 0 249.84 24.48
  Q 250.59 25.22 251.64 25.33
  A 1.59 1.59 0.0 0 1 252.55 25.73
  C 256.15 28.94 255.21 41.02 254.62 45.36
  A 1.75 1.75 0.0 0 1 253.20 46.85
  C 248.76 47.68 245.43 48.18 240.56 47.99
  Q 236.12 47.81 231.73 48.01
  Z"
/>
<path fill="#619bd2" fill-opacity="0.816" d="
  M 216.30 26.12
  C 211.30 29.18 204.96 28.35 199.37 28.16
  C 192.13 27.92 186.34 29.05 180.16 29.30
  Q 175.26 29.50 164.89 27.87
  Q 161.82 27.39 154.09 28.54
  A 15.43 15.15 -47.7 0 1 151.28 28.70
  C 148.18 28.60 144.10 28.10 140.35 28.67
  Q 136.65 29.23 133.62 30.43
  A 0.08 0.08 0.0 0 1 133.54 30.30
  L 133.75 30.09
  A 0.19 0.18 29.3 0 0 133.66 29.78
  L 132.44 29.49
  Q 132.72 29.22 132.98 29.15
  Q 133.08 29.12 132.98 29.11
  Q 132.63 29.08 132.62 29.07
  A 0.30 0.30 0.0 0 1 132.82 28.53
  Q 133.49 28.58 134.53 27.89
  A 2.76 2.74 23.0 0 1 135.58 27.47
  L 140.99 26.55
  A 0.01 0.01 0.0 0 0 140.99 26.53
  Q 140.85 26.46 140.78 26.36
  A 0.05 0.04 68.8 0 1 140.81 26.29
  L 148.50 25.34
  A 0.08 0.08 0.0 0 0 148.54 25.20
  Q 148.44 25.12 148.12 25.14
  Q 148.13 25.14 148.13 25.13
  Q 159.63 24.93 162.05 24.94
  A 1.69 1.65 55.2 0 1 162.67 25.06
  Q 164.86 25.96 167.49 25.43
  A 0.87 0.78 -48.2 0 1 167.67 25.41
  L 216.30 26.12
  Z"
/>
<path fill="#6196ca" fill-opacity="0.945" d="
  M 236.59 26.77
  L 230.28 26.14
  A 0.16 0.15 -1.4 0 0 230.11 26.31
  Q 230.13 26.53 230.36 26.81
  A 0.16 0.16 0.0 0 0 230.47 26.88
  L 240.84 28.70
  Q 229.35 30.74 216.99 30.07
  A 1.25 1.23 -30.2 0 1 216.48 29.94
  L 215.62 29.52
  A 2.66 2.58 57.6 0 0 214.53 29.26
  Q 197.41 28.84 182.62 30.16
  Q 178.19 30.55 166.31 29.20
  Q 161.68 28.67 151.64 30.28
  C 148.54 30.77 145.43 30.61 142.83 30.80
  A 6.03 5.96 30.2 0 0 140.77 31.33
  Q 139.30 31.99 137.24 33.46
  Q 136.40 34.07 136.30 34.17
  C 133.32 37.37 134.58 41.48 136.55 45.66
  Q 135.11 44.66 134.50 43.51
  Q 132.51 39.76 130.10 34.16
  Q 129.07 29.84 132.44 29.49
  L 133.66 29.78
  A 0.19 0.18 29.3 0 1 133.75 30.09
  L 133.54 30.30
  A 0.08 0.08 0.0 0 0 133.62 30.43
  Q 136.65 29.23 140.35 28.67
  C 144.10 28.10 148.18 28.60 151.28 28.70
  A 15.43 15.15 -47.7 0 0 154.09 28.54
  Q 161.82 27.39 164.89 27.87
  Q 175.26 29.50 180.16 29.30
  C 186.34 29.05 192.13 27.92 199.37 28.16
  C 204.96 28.35 211.30 29.18 216.30 26.12
  L 228.28 25.35
  A 2.06 1.57 41.3 0 1 228.71 25.38
  L 236.59 26.77
  Z"
/>
<path fill="#619bd2" fill-opacity="0.816" d="
  M 240.84 28.70
  L 230.47 26.88
  A 0.16 0.16 0.0 0 1 230.36 26.81
  Q 230.13 26.53 230.11 26.31
  A 0.16 0.15 -1.4 0 1 230.28 26.14
  L 236.59 26.77
  L 239.97 26.78
  L 250.12 26.31
  A 0.18 0.18 0.0 0 1 250.17 26.66
  L 240.84 28.70
  Z"
/>
<path fill="#6196ca" fill-opacity="0.945" d="
  M 119.50 40.27
  L 99.89 26.14
  C 108.25 28.87 112.61 33.50 119.50 40.27
  Z"
/>
<path fill="#6196ca" fill-opacity="0.945" d="
  M 121.69 73.52
  Q 129.41 71.80 129.77 64.19
  C 130.07 57.85 129.84 49.38 125.11 45.40
  Q 122.17 42.92 119.50 40.27
  Q 122.65 42.45 125.80 44.73
  Q 128.96 47.03 130.01 51.15
  Q 132.51 60.86 131.06 70.51
  Q 130.79 72.36 129.39 73.26
  Q 126.55 75.09 121.69 73.52
  Z"
/>
<path fill="#6196ca" fill-opacity="0.945" d="
  M 212.82 49.72
  Q 208.36 54.59 207.57 56.72
  C 206.12 60.63 206.71 65.53 207.33 69.54
  L 207.34 73.55
  L 207.62 90.89
  A 1.19 1.12 52.8 0 1 207.58 91.26
  C 207.09 93.14 207.62 94.86 207.60 96.84
  C 207.37 119.50 207.50 130.06 206.96 142.75
  Q 206.63 150.86 207.92 158.77
  A 0.22 0.22 0.0 0 0 208.22 158.94
  Q 208.47 158.83 208.36 158.63
  Q 208.88 163.03 209.15 167.46
  A 1.47 1.47 0.0 0 0 209.75 168.56
  L 213.08 171.01
  Q 212.76 171.07 212.81 171.42
  Q 212.88 171.86 213.30 172.22
  C 211.53 172.23 209.19 172.32 207.61 171.77
  C 202.02 169.81 197.99 170.52 191.94 172.06
  C 187.49 173.20 184.15 172.69 180.37 170.40
  L 175.33 174.76
  L 178.91 167.22
  Q 179.17 166.72 179.87 166.21
  Q 181.61 162.19 181.54 159.78
  Q 181.19 148.19 182.28 138.62
  Q 182.45 137.21 183.67 136.14
  A 0.38 0.37 69.9 0 1 184.29 136.43
  Q 184.28 137.22 184.29 137.23
  A 0.82 0.82 0.0 0 0 185.70 136.79
  Q 186.26 133.10 187.02 127.34
  C 188.18 118.42 186.21 109.30 188.12 100.43
  C 189.20 95.38 187.96 90.40 186.51 85.90
  C 185.14 81.69 186.20 79.04 187.30 73.95
  C 188.94 66.32 185.50 59.01 180.22 53.28
  A 0.28 0.27 -43.6 0 0 179.82 53.28
  L 179.56 53.54
  A 0.38 0.38 0.0 0 0 179.52 54.03
  C 182.54 58.26 186.77 64.55 186.32 70.26
  C 186.08 73.27 183.16 78.80 184.08 82.92
  Q 184.96 86.84 186.60 90.46
  A 0.97 0.97 0.0 0 1 185.23 91.70
  L 182.88 90.35
  A 1.00 1.00 0.0 0 1 182.39 89.49
  L 182.36 79.69
  A 9.71 9.67 -34.2 0 1 183.05 76.10
  C 183.88 73.72 185.88 70.55 184.74 67.28
  C 182.81 61.75 180.25 55.29 174.40 52.14
  L 167.80 49.92
  Q 164.28 47.67 159.87 46.55
  Q 159.20 45.25 161.82 45.67
  C 166.56 46.42 170.41 49.35 175.49 49.73
  C 180.17 50.07 183.44 49.87 187.77 52.99
  Q 191.70 55.82 195.20 55.72
  Q 202.08 55.52 207.62 52.03
  C 212.26 49.11 214.30 47.52 218.80 47.03
  A 0.30 0.29 -2.7 0 1 219.13 47.32
  L 219.13 47.61
  A 0.22 0.22 0.0 0 1 218.98 47.82
  L 212.82 49.72
  Z"
/>
<path fill="#619bd2" fill-opacity="0.816" d="
  M 159.87 46.55
  Q 164.28 47.67 167.80 49.92
  L 164.29 49.38
  A 0.24 0.24 0.0 0 0 164.12 49.82
  L 164.87 50.34
  Q 161.70 48.80 157.87 48.44
  Q 155.99 48.27 154.11 48.08
  Q 152.57 47.92 150.36 47.99
  Q 143.72 48.19 137.28 45.96
  Q 148.64 47.33 159.87 46.55
  Z"
/>
<path fill="#619bd2" fill-opacity="0.816" d="
  M 231.73 48.01
  L 228.22 49.07
  Q 223.03 49.08 217.88 49.21
  Q 213.76 49.32 210.29 53.55
  Q 210.28 53.56 210.04 53.72
  Q 209.82 53.87 209.79 54.08
  A 0.18 0.18 0.0 0 0 210.11 54.22
  Q 210.60 53.68 210.64 53.70
  A 0.26 0.25 -59.5 0 1 210.74 54.09
  L 207.54 58.36
  A 0.96 0.95 63.1 0 0 207.36 58.92
  L 207.33 69.54
  C 206.71 65.53 206.12 60.63 207.57 56.72
  Q 208.36 54.59 212.82 49.72
  C 218.15 47.90 224.56 48.19 231.73 48.01
  Z"
/>
<path fill="#5794c7" fill-opacity="0.514" d="
  M 228.22 49.07
  Q 225.97 49.72 220.63 50.20
  Q 217.94 50.44 214.02 52.60
  A 4.51 4.36 5.9 0 0 212.86 53.51
  C 210.46 56.18 207.25 59.10 208.78 62.11
  Q 209.55 63.61 209.06 65.20
  Q 207.87 69.09 207.34 73.55
  L 207.33 69.54
  L 207.36 58.92
  A 0.96 0.95 63.1 0 1 207.54 58.36
  L 210.74 54.09
  A 0.26 0.25 -59.5 0 0 210.64 53.70
  Q 210.60 53.68 210.11 54.22
  A 0.18 0.18 0.0 0 1 209.79 54.08
  Q 209.82 53.87 210.04 53.72
  Q 210.28 53.56 210.29 53.55
  Q 213.76 49.32 217.88 49.21
  Q 223.03 49.08 228.22 49.07
  Z"
/>
<path fill="#5794c7" fill-opacity="0.514" d="
  M 167.80 49.92
  L 174.40 52.14
  L 179.30 57.56
  A 0.23 0.22 -70.3 0 1 179.34 57.65
  L 179.41 58.05
  A 0.14 0.14 0.0 0 1 179.14 58.13
  L 178.30 56.08
  A 0.34 0.34 0.0 0 0 177.65 56.28
  L 178.92 63.29
  L 177.76 60.21
  A 0.33 0.33 0.0 0 0 177.13 60.36
  L 177.42 63.03
  A 0.14 0.07 -12.0 0 1 177.31 63.12
  Q 177.29 63.13 177.25 63.13
  A 0.13 0.12 -0.0 0 1 177.12 63.01
  L 177.14 58.14
  A 1.50 1.49 -62.1 0 0 176.87 57.25
  Q 176.30 56.46 175.17 55.65
  Q 171.18 52.28 164.87 50.34
  L 164.12 49.82
  A 0.24 0.24 0.0 0 1 164.29 49.38
  L 167.80 49.92
  Z"
/>
<path fill="#619bd2" fill-opacity="0.816" d="
  M 179.87 166.21
  Q 180.99 156.93 180.13 147.15
  Q 180.01 142.94 180.24 140.12
  Q 180.67 134.75 180.04 131.21
  C 179.69 129.22 180.30 127.58 180.31 125.39
  Q 180.36 113.10 179.96 103.70
  C 179.91 102.33 180.50 100.69 179.80 99.88
  A 1.83 1.83 0.0 0 1 179.35 98.60
  L 180.29 79.84
  Q 180.29 79.83 180.29 79.81
  Q 179.89 77.83 180.32 76.21
  A 1.12 1.12 0.0 0 0 180.26 75.47
  Q 180.01 74.92 179.97 74.50
  Q 179.63 71.54 178.92 63.29
  L 177.65 56.28
  A 0.34 0.34 0.0 0 1 178.30 56.08
  L 179.14 58.13
  A 0.14 0.14 0.0 0 0 179.41 58.05
  L 179.34 57.65
  A 0.23 0.22 -70.3 0 0 179.30 57.56
  L 174.40 52.14
  C 180.25 55.29 182.81 61.75 184.74 67.28
  C 185.88 70.55 183.88 73.72 183.05 76.10
  A 9.71 9.67 -34.2 0 0 182.36 79.69
  L 182.39 89.49
  A 1.00 1.00 0.0 0 0 182.88 90.35
  L 185.23 91.70
  A 0.97 0.97 0.0 0 0 186.60 90.46
  Q 184.96 86.84 184.08 82.92
  C 183.16 78.80 186.08 73.27 186.32 70.26
  C 186.77 64.55 182.54 58.26 179.52 54.03
  A 0.38 0.38 0.0 0 1 179.56 53.54
  L 179.82 53.28
  A 0.28 0.27 -43.6 0 1 180.22 53.28
  C 185.50 59.01 188.94 66.32 187.30 73.95
  C 186.20 79.04 185.14 81.69 186.51 85.90
  C 187.96 90.40 189.20 95.38 188.12 100.43
  C 186.21 109.30 188.18 118.42 187.02 127.34
  Q 186.26 133.10 185.70 136.79
  A 0.82 0.82 0.0 0 1 184.29 137.23
  Q 184.28 137.22 184.29 136.43
  A 0.38 0.37 69.9 0 0 183.67 136.14
  Q 182.45 137.21 182.28 138.62
  Q 181.19 148.19 181.54 159.78
  Q 181.61 162.19 179.87 166.21
  Z"
/>
<path fill="#6196ca" fill-opacity="0.945" d="
  M 45.34 54.25
  Q 41.41 58.24 40.24 59.74
  Q 32.64 69.47 30.46 81.42
  Q 30.79 75.19 32.12 69.02
  Q 32.56 66.97 33.89 65.37
  C 37.35 61.20 40.29 57.15 45.34 54.25
  Z"
/>
<path fill="#404f5a" fill-opacity="0.196" d="
  M 178.92 63.29
  Q 179.63 71.54 179.97 74.50
  Q 180.01 74.92 180.26 75.47
  A 1.12 1.12 0.0 0 1 180.32 76.21
  Q 179.89 77.83 180.29 79.81
  Q 180.29 79.83 180.29 79.84
  L 179.35 98.60
  A 1.83 1.83 0.0 0 0 179.80 99.88
  C 180.50 100.69 179.91 102.33 179.96 103.70
  Q 180.36 113.10 180.31 125.39
  C 180.30 127.58 179.69 129.22 180.04 131.21
  Q 180.67 134.75 180.24 140.12
  Q 180.01 142.94 180.13 147.15
  Q 180.19 155.04 179.98 162.76
  Q 179.93 164.50 177.28 166.58
  Q 180.04 150.18 178.01 133.70
  Q 176.27 119.64 176.28 119.25
  Q 176.33 112.12 176.51 102.32
  Q 176.54 100.45 177.97 95.48
  C 180.13 87.95 179.04 81.15 177.19 73.24
  C 175.92 67.76 175.76 61.58 175.17 55.65
  Q 176.30 56.46 176.87 57.25
  A 1.50 1.49 -62.1 0 1 177.14 58.14
  L 177.12 63.01
  A 0.13 0.12 -0.0 0 0 177.25 63.13
  Q 177.29 63.13 177.31 63.12
  A 0.14 0.07 -12.0 0 0 177.42 63.03
  L 177.13 60.36
  A 0.33 0.33 0.0 0 1 177.76 60.21
  L 178.92 63.29
  Z"
/>
<path fill="#6196ca" fill-opacity="0.945" d="
  M 11.12 55.90
  C 11.35 61.52 12.09 68.30 5.89 70.76
  A 0.97 0.95 83.9 0 0 5.28 71.53
  L 5.20 72.13
  A 0.22 0.22 0.0 0 1 4.95 72.32
  L 4.57 72.27
  A 0.23 0.23 0.0 0 1 4.39 71.94
  C 5.32 69.99 6.24 68.32 6.16 67.87
  Q 6.06 67.24 6.06 67.73
  Q 6.05 68.91 5.35 69.84
  Q 4.91 70.45 4.73 70.66
  A 0.19 0.19 0.0 0 1 4.40 70.52
  L 4.45 70.10
  A 0.21 0.21 0.0 0 0 4.09 69.92
  Q 3.93 70.08 4.05 70.27
  Q 6.72 61.94 11.12 55.90
  Z"
/>
<path fill="#6196ca" fill-opacity="0.945" d="
  M 5.66 89.74
  A 0.21 0.21 0.0 0 1 5.87 89.94
  L 5.96 95.28
  A 8.69 1.01 89.1 0 1 5.08 103.99
  L 4.92 103.99
  A 8.69 1.01 89.1 0 1 3.78 95.32
  L 3.69 89.98
  A 0.21 0.21 0.0 0 1 3.90 89.76
  L 5.66 89.74
  Z"
/>
<path fill="#6196ca" fill-opacity="0.945" d="
  M 137.87 129.72
  Q 136.81 119.51 135.59 109.31
  Q 134.48 100.02 125.05 98.40
  Q 112.67 96.28 103.52 96.39
  C 94.53 96.49 87.65 96.39 80.84 99.28
  Q 75.32 101.62 76.60 108.03
  Q 73.62 106.19 73.90 103.84
  C 74.31 100.30 82.00 97.04 84.58 96.61
  Q 93.27 95.14 106.51 95.73
  Q 116.20 96.16 132.31 97.16
  A 1.40 1.39 67.5 0 1 133.15 97.51
  Q 136.48 100.47 136.82 106.27
  Q 137.49 117.95 137.87 129.72
  Z"
/>
<path fill="#6296cf" d="
  M 137.87 129.72
  L 137.43 151.45
  L 137.86 161.90
  A 2.14 2.12 -12.9 0 1 136.55 163.96
  Q 131.87 165.93 126.66 166.18
  A 0.11 0.09 5.7 0 0 126.60 166.22
  L 126.03 167.35
  A 0.09 0.09 0.0 0 0 126.11 167.48
  Q 132.51 167.35 137.46 163.87
  A 0.11 0.10 -29.6 0 1 137.62 163.91
  Q 137.65 163.99 137.50 164.13
  Q 136.47 165.04 133.35 167.80
  A 0.54 0.54 0.0 0 0 133.30 168.55
  Q 133.37 168.64 133.98 168.58
  A 0.70 0.69 -28.8 0 1 134.48 168.72
  Q 135.42 169.44 136.45 169.59
  A 0.33 0.33 0.0 0 0 136.76 169.06
  Q 134.94 166.71 137.19 165.76
  Q 135.38 167.53 137.02 168.70
  Q 142.83 172.84 151.40 172.55
  Q 156.81 173.68 162.56 173.36
  L 151.32 173.14
  A 0.24 0.22 4.3 0 0 151.09 173.32
  L 151.09 173.33
  A 0.27 0.26 -82.2 0 0 151.31 173.63
  Q 157.57 174.60 160.76 174.88
  Q 162.14 174.99 164.60 174.53
  Q 166.51 174.17 168.42 174.36
  Q 171.83 174.69 175.33 174.76
  L 180.37 170.40
  L 178.02 173.22
  A 0.36 0.35 -65.9 0 0 178.24 173.80
  Q 186.67 175.07 199.55 175.29
  Q 207.29 175.43 212.57 173.28
  Q 214.39 173.80 216.30 173.07
  A 0.31 0.31 0.0 0 1 216.69 173.23
  L 216.71 173.26
  A 0.34 0.33 -24.7 0 1 216.54 173.70
  C 211.60 175.94 206.33 175.91 200.46 175.75
  Q 197.47 175.67 190.88 175.78
  Q 182.12 175.92 181.29 175.71
  Q 179.05 175.16 170.32 175.17
  C 168.66 175.17 166.86 174.53 165.17 174.83
  Q 162.70 175.28 156.15 175.34
  A 4.85 4.73 53.6 0 1 154.51 175.07
  Q 151.18 173.91 144.90 174.08
  A 0.06 0.06 0.0 0 0 144.88 174.20
  Q 145.58 174.46 146.35 174.34
  A 0.01 0.01 0.0 0 1 146.37 174.34
  Q 146.37 174.35 146.37 174.36
  A 0.01 0.01 0.0 0 1 146.36 174.38
  L 136.37 176.08
  A 3.90 3.49 -48.2 0 1 135.83 176.14
  C 129.52 176.26 124.94 176.98 120.63 175.11
  A 0.08 0.07 -30.4 0 1 120.67 174.97
  Q 123.15 175.12 125.77 174.31
  A 0.24 0.24 0.0 0 0 125.92 173.99
  L 125.78 173.64
  A 0.21 0.20 67.4 0 0 125.52 173.53
  C 119.32 175.65 113.46 174.95 107.28 175.04
  Q 109.86 174.71 111.96 173.69
  A 0.30 0.29 31.3 0 0 111.82 173.13
  L 111.05 173.15
  C 117.02 173.28 121.81 174.38 126.25 169.25
  A 0.68 0.68 0.0 0 0 125.75 168.13
  L 121.15 168.07
  L 114.80 168.01
  Q 112.65 168.20 110.98 167.21
  Q 110.46 166.76 110.58 165.67
  Q 112.71 166.65 108.80 163.58
  C 105.48 160.97 96.93 158.48 92.66 153.95
  A 0.94 0.93 57.4 0 1 92.99 152.44
  L 99.61 149.72
  A 1.41 1.12 6.5 0 0 99.93 149.52
  C 102.23 147.59 108.72 142.34 108.27 138.61
  L 107.52 139.75
  A 0.13 0.13 0.0 0 1 107.28 139.68
  Q 107.28 139.52 107.34 139.38
  Q 108.83 136.25 108.94 132.89
  Q 109.37 129.83 107.76 126.99
  C 107.45 123.38 104.93 121.51 103.75 118.63
  Q 109.94 126.30 109.17 136.23
  A 0.17 0.17 0.0 0 0 109.32 136.41
  A 0.17 0.16 9.1 0 0 109.51 136.28
  Q 110.64 130.01 108.53 123.96
  C 105.20 114.46 96.91 113.11 88.09 112.03
  A 0.34 0.34 0.0 0 0 87.78 112.58
  Q 88.06 112.93 88.78 113.30
  Q 82.09 111.25 76.60 108.03
  Q 75.32 101.62 80.84 99.28
  C 87.65 96.39 94.53 96.49 103.52 96.39
  Q 112.67 96.28 125.05 98.40
  Q 134.48 100.02 135.59 109.31
  Q 136.81 119.51 137.87 129.72
  Z"
/>
<path fill="#6196ca" fill-opacity="0.945" d="
  M 103.75 118.63
  L 101.40 115.55
  A 0.93 0.93 0.0 0 0 100.60 115.18
  Q 95.00 115.56 89.77 114.12
  L 88.78 113.30
  Q 88.06 112.93 87.78 112.58
  A 0.34 0.34 0.0 0 1 88.09 112.03
  C 96.91 113.11 105.20 114.46 108.53 123.96
  Q 110.64 130.01 109.51 136.28
  A 0.17 0.16 9.1 0 1 109.32 136.41
  A 0.17 0.17 0.0 0 1 109.17 136.23
  Q 109.94 126.30 103.75 118.63
  Z"
/>
<path fill="#619bd2" fill-opacity="0.816" d="
  M 103.75 118.63
  C 104.93 121.51 107.45 123.38 107.76 126.99
  Q 106.86 125.93 106.30 124.70
  C 105.05 121.91 103.41 120.44 101.02 118.23
  A 2.32 2.29 -19.4 0 0 99.77 117.64
  L 92.57 116.68
  A 0.63 0.62 -18.8 0 1 92.24 116.52
  L 89.77 114.12
  Q 95.00 115.56 100.60 115.18
  A 0.93 0.93 0.0 0 1 101.40 115.55
  L 103.75 118.63
  Z"
/>
<path fill="#619bd2" fill-opacity="0.816" d="
  M 108.94 132.89
  Q 108.83 136.25 107.34 139.38
  Q 107.28 139.52 107.28 139.68
  A 0.13 0.13 0.0 0 0 107.52 139.75
  L 108.27 138.61
  Q 107.34 142.19 104.68 144.43
  Q 101.56 147.06 99.03 148.65
  A 0.29 0.29 0.0 0 0 99.06 149.16
  Q 99.11 149.18 99.40 149.14
  A 0.10 0.09 -67.5 0 1 99.47 149.31
  Q 99.34 149.41 99.14 149.38
  C 96.40 148.95 92.83 150.80 90.90 152.65
  A 1.02 1.01 65.1 0 0 90.59 153.51
  Q 90.76 154.88 92.10 156.22
  Q 91.22 155.73 90.39 155.65
  A 0.99 0.99 0.0 0 1 89.54 154.97
  Q 89.21 153.91 89.59 152.30
  A 1.39 1.36 -10.7 0 1 90.19 151.44
  Q 94.25 148.80 98.11 147.97
  A 3.23 3.19 17.6 0 0 99.60 147.21
  L 105.02 142.40
  A 2.54 2.51 79.9 0 0 105.70 141.41
  L 108.94 132.89
  Z"
/>
<path fill="#6196ca" fill-opacity="0.945" d="
  M 110.58 165.67
  C 104.58 160.92 98.49 159.09 92.10 156.22
  Q 90.76 154.88 90.59 153.51
  A 1.02 1.01 65.1 0 1 90.90 152.65
  C 92.83 150.80 96.40 148.95 99.14 149.38
  Q 99.34 149.41 99.47 149.31
  A 0.10 0.09 -67.5 0 0 99.40 149.14
  Q 99.11 149.18 99.06 149.16
  A 0.29 0.29 0.0 0 1 99.03 148.65
  Q 101.56 147.06 104.68 144.43
  Q 107.34 142.19 108.27 138.61
  C 108.72 142.34 102.23 147.59 99.93 149.52
  A 1.41 1.12 6.5 0 1 99.61 149.72
  L 92.99 152.44
  A 0.94 0.93 57.4 0 0 92.66 153.95
  C 96.93 158.48 105.48 160.97 108.80 163.58
  Q 112.71 166.65 110.58 165.67
  Z"
/>
<path fill="#5794c7" fill-opacity="0.514" d="
  M 179.87 166.21
  Q 179.17 166.72 178.91 167.22
  Q 176.76 168.39 175.33 170.27
  A 2.76 2.74 -87.5 0 1 174.67 170.88
  Q 171.51 172.89 169.91 172.96
  Q 166.21 173.12 162.56 173.36
  Q 156.81 173.68 151.40 172.55
  L 167.61 172.59
  A 0.45 0.43 18.1 0 0 167.96 172.42
  L 168.14 172.18
  A 0.07 0.05 -5.2 0 1 168.18 172.15
  Q 173.51 171.02 177.28 166.58
  Q 179.93 164.50 179.98 162.76
  Q 180.19 155.04 180.13 147.15
  Q 180.99 156.93 179.87 166.21
  Z"
/>
<path fill="#6196ca" fill-opacity="0.945" d="
  M 137.43 151.45
  Q 137.26 156.38 139.29 159.16
  Q 140.84 161.28 139.99 163.25
  Q 139.58 164.21 137.19 165.76
  Q 134.94 166.71 136.76 169.06
  A 0.33 0.33 0.0 0 1 136.45 169.59
  Q 135.42 169.44 134.48 168.72
  A 0.70 0.69 -28.8 0 0 133.98 168.58
  Q 133.37 168.64 133.30 168.55
  A 0.54 0.54 0.0 0 1 133.35 167.80
  Q 136.47 165.04 137.50 164.13
  Q 137.65 163.99 137.62 163.91
  A 0.11 0.10 -29.6 0 0 137.46 163.87
  Q 132.51 167.35 126.11 167.48
  A 0.09 0.09 0.0 0 1 126.03 167.35
  L 126.60 166.22
  A 0.11 0.09 5.7 0 1 126.66 166.18
  Q 131.87 165.93 136.55 163.96
  A 2.14 2.12 -12.9 0 0 137.86 161.90
  L 137.43 151.45
  Z"
/>
<path fill="#619bd2" fill-opacity="0.816" d="
  M 114.80 168.01
  Q 114.42 168.78 113.95 169.08
  A 0.76 0.76 0.0 0 0 114.27 170.47
  Q 117.32 170.82 119.81 170.65
  Q 121.25 170.55 121.89 169.87
  Q 122.65 169.08 121.15 168.07
  L 125.75 168.13
  A 0.68 0.68 0.0 0 1 126.25 169.25
  C 121.81 174.38 117.02 173.28 111.05 173.15
  Q 110.74 173.37 110.41 173.37
  Q 110.28 173.37 110.24 173.30
  Q 110.16 173.18 110.19 172.95
  A 0.09 0.09 0.0 0 1 110.27 172.86
  L 113.29 172.62
  A 0.27 0.26 78.4 0 0 113.52 172.26
  L 113.52 172.25
  A 0.27 0.26 -14.3 0 0 113.21 172.07
  Q 112.25 172.30 110.94 172.07
  A 0.18 0.18 0.0 0 1 110.90 171.72
  L 112.17 171.20
  A 0.59 0.59 0.0 0 0 112.46 170.38
  L 112.13 169.76
  L 112.02 169.47
  A 0.54 0.53 -5.8 0 0 111.61 169.14
  L 108.19 168.68
  Q 109.98 168.58 110.98 167.21
  Q 112.65 168.20 114.80 168.01
  Z"
/>
<path fill="#619bd2" fill-opacity="0.816" d="
  M 178.91 167.22
  L 175.33 174.76
  Q 171.83 174.69 168.42 174.36
  Q 166.51 174.17 164.60 174.53
  Q 162.14 174.99 160.76 174.88
  Q 157.57 174.60 151.31 173.63
  A 0.27 0.26 -82.2 0 1 151.09 173.33
  L 151.09 173.32
  A 0.24 0.22 4.3 0 1 151.32 173.14
  L 162.56 173.36
  Q 166.21 173.12 169.91 172.96
  Q 171.51 172.89 174.67 170.88
  A 2.76 2.74 -87.5 0 0 175.33 170.27
  Q 176.76 168.39 178.91 167.22
  Z"
/>
<path fill="#6196ca" fill-opacity="0.945" d="
  M 112.13 169.76
  L 112.46 170.38
  A 0.59 0.59 0.0 0 1 112.17 171.20
  L 110.90 171.72
  A 0.18 0.18 0.0 0 0 110.94 172.07
  Q 112.25 172.30 113.21 172.07
  A 0.27 0.26 -14.3 0 1 113.52 172.25
  L 113.52 172.26
  A 0.27 0.26 78.4 0 1 113.29 172.62
  L 110.27 172.86
  A 0.09 0.09 0.0 0 0 110.19 172.95
  Q 110.16 173.18 110.24 173.30
  Q 110.28 173.37 110.41 173.37
  Q 110.74 173.37 111.05 173.15
  L 111.82 173.13
  A 0.30 0.29 31.3 0 1 111.96 173.69
  Q 109.86 174.71 107.28 175.04
  L 98.80 175.16
  L 107.05 174.40
  A 0.53 0.52 87.7 0 0 107.53 173.87
  L 107.53 169.29
  A 0.42 0.42 0.0 0 1 108.03 168.88
  L 112.13 169.76
  Z"
/>
<path fill="#6296cf" d="
  M 213.30 172.22
  Q 213.41 172.72 212.57 173.28
  Q 207.29 175.43 199.55 175.29
  Q 186.67 175.07 178.24 173.80
  A 0.36 0.35 -65.9 0 1 178.02 173.22
  L 180.37 170.40
  C 184.15 172.69 187.49 173.20 191.94 172.06
  C 197.99 170.52 202.02 169.81 207.61 171.77
  C 209.19 172.32 211.53 172.23 213.30 172.22
  Z"
/>
<path fill="#e0e9f3" d="
  M 213.08 171.01
  Q 217.00 172.11 221.15 172.30
  Q 226.55 172.56 228.81 172.94
  Q 237.76 174.44 246.74 173.86
  Q 248.35 173.75 253.10 174.92
  A 1.32 1.31 80.0 0 1 253.91 175.49
  C 255.85 178.50 255.66 182.54 256.00 185.94
  L 256.00 222.96
  C 255.68 226.48 255.70 230.48 254.01 233.77
  A 1.11 1.10 7.6 0 1 253.26 234.34
  Q 251.58 234.69 249.31 236.08
  C 246.54 237.78 244.09 238.19 241.57 237.75
  Q 235.81 236.75 231.17 236.82
  Q 228.36 236.87 228.32 236.87
  Q 170.84 236.64 113.37 236.77
  Q 113.13 236.77 85.14 236.69
  Q 68.40 236.64 51.86 237.04
  L 25.50 237.19
  Q 17.77 238.45 10.09 236.31
  A 3.09 3.00 67.6 0 1 9.35 235.99
  Q 8.00 235.14 5.86 234.86
  A 0.87 0.87 0.0 0 0 5.05 235.19
  Q 4.61 235.73 3.58 235.30
  A 0.40 0.40 0.0 0 0 3.06 235.50
  Q 2.69 236.29 1.77 235.82
  Q 0.63 235.24 0.56 234.12
  Q 0.25 229.51 0.00 224.26
  L 0.00 189.04
  Q 0.27 181.34 3.63 174.09
  L 11.80 174.32
  Q 11.82 174.32 11.85 174.32
  L 19.24 173.88
  A 2.02 2.01 -39.4 0 1 19.87 173.94
  Q 27.15 175.88 28.58 175.87
  Q 31.98 175.82 34.39 176.02
  A 2.80 2.77 59.3 0 1 35.31 176.26
  Q 38.49 177.70 42.29 177.38
  A 0.06 0.05 41.3 0 0 42.28 177.27
  L 41.96 177.27
  A 0.04 0.03 38.7 0 1 41.95 177.20
  L 47.44 176.30
  A 5.05 4.71 -47.0 0 1 48.32 176.24
  Q 56.64 176.35 58.14 176.50
  Q 61.64 176.85 67.34 176.34
  Q 76.88 175.49 88.75 176.14
  Q 92.13 176.32 98.80 175.16
  L 107.28 175.04
  C 113.46 174.95 119.32 175.65 125.52 173.53
  A 0.21 0.20 67.4 0 1 125.78 173.64
  L 125.92 173.99
  A 0.24 0.24 0.0 0 1 125.77 174.31
  Q 123.15 175.12 120.67 174.97
  A 0.08 0.07 -30.4 0 0 120.63 175.11
  C 124.94 176.98 129.52 176.26 135.83 176.14
  A 3.90 3.49 -48.2 0 0 136.37 176.08
  L 146.36 174.38
  A 0.01 0.01 0.0 0 0 146.37 174.36
  Q 146.37 174.35 146.37 174.34
  A 0.01 0.01 0.0 0 0 146.35 174.34
  Q 145.58 174.46 144.88 174.20
  A 0.06 0.06 0.0 0 1 144.90 174.08
  Q 151.18 173.91 154.51 175.07
  A 4.85 4.73 53.6 0 0 156.15 175.34
  Q 162.70 175.28 165.17 174.83
  C 166.86 174.53 168.66 175.17 170.32 175.17
  Q 179.05 175.16 181.29 175.71
  Q 182.12 175.92 190.88 175.78
  Q 197.47 175.67 200.46 175.75
  C 206.33 175.91 211.60 175.94 216.54 173.70
  A 0.34 0.33 -24.7 0 0 216.71 173.26
  L 216.69 173.23
  A 0.31 0.31 0.0 0 0 216.30 173.07
  Q 214.39 173.80 212.57 173.28
  Q 213.41 172.72 213.30 172.22
  Q 212.88 171.86 212.81 171.42
  Q 212.76 171.07 213.08 171.01
  Z"
/>
<path fill="#404f5a" fill-opacity="0.196" d="
  M 51.86 237.04
  Q 45.47 239.30 40.25 238.41
  Q 36.01 237.69 34.52 237.85
  A 2.67 2.49 46.9 0 1 33.62 237.79
  C 31.35 237.26 30.93 236.99 28.34 237.27
  Q 26.93 237.41 25.50 237.19
  L 51.86 237.04
  Z"
/>
</svg>