<?xml version="1.0" encoding="UTF-8" standalone="no"?>
<!DOCTYPE svg PUBLIC "-//W3C//DTD SVG 1.1//EN" "http://www.w3.org/Graphics/SVG/1.1/DTD/svg11.dtd">
<svg xmlns="http://www.w3.org/2000/svg" version="1.1" viewBox="0.00 0.00 256.00 256.00" width="128" height="128">
<g stroke-width="2.00" fill="none" stroke-linecap="butt">
<path stroke="#804874" vector-effect="non-scaling-stroke" d="
  M 239.63 122.49
  A 117.12 117.12 0.0 0 0 122.51 5.37
  A 117.12 117.12 0.0 0 0 5.39 122.49
  A 117.12 117.12 0.0 0 0 122.51 239.61
  A 117.12 117.12 0.0 0 0 239.63 122.49"
/>
<path stroke="#804874" vector-effect="non-scaling-stroke" d="
  M 157.06 144.31
  A 0.18 0.18 0.0 0 1 157.39 144.40
  L 157.39 177.51
  A 1.13 1.13 0.0 0 0 158.52 178.64
  L 184.65 178.64
  A 0.72 0.72 0.0 0 0 185.37 177.92
  L 185.37 117.73
  A 0.59 0.59 0.0 0 0 184.78 117.14
  L 122.77 117.14
  A 1.01 1.01 0.0 0 0 121.76 118.15
  L 121.76 128.60
  A 0.65 0.65 0.0 0 0 122.41 129.25
  L 150.98 129.25
  A 0.78 0.78 0.0 0 1 151.74 130.22
  C 148.98 141.44 144.03 151.24 133.32 156.40
  C 126.31 159.77 117.21 159.06 109.44 156.57
  Q 107.62 155.99 99.86 150.45
  A 5.88 5.87 87.0 0 1 98.93 149.61
  C 84.20 133.07 83.49 106.77 97.16 89.67
  C 101.06 84.78 106.76 80.81 112.77 79.33
  C 123.54 76.67 136.43 78.53 143.83 87.35
  Q 149.02 93.54 149.55 100.79
  A 0.87 0.86 -2.1 0 0 150.42 101.59
  L 180.58 101.59
  A 1.08 1.08 0.0 0 0 181.65 100.36
  Q 178.47 77.62 159.25 65.03
  C 143.51 54.72 121.12 53.35 103.75 57.53
  Q 92.36 60.27 83.50 66.32
  Q 74.47 72.50 68.15 82.15
  C 58.80 96.45 56.19 115.92 58.92 132.79
  C 60.98 145.49 67.45 160.52 77.37 168.83
  C 89.80 179.24 105.11 183.34 121.27 180.72
  Q 143.03 177.18 152.52 156.99
  Q 154.80 152.14 156.03 148.22
  C 156.45 146.85 156.40 145.43 157.06 144.31"
/>
</g>
<path fill="#000000" d="
  M 129.64 0.00
  Q 152.06 2.51 169.38 9.64
  C 191.72 18.84 211.65 35.71 225.64 57.28
  C 230.05 64.08 236.32 71.26 239.81 77.95
  Q 246.81 91.40 247.94 94.31
  Q 254.73 111.75 255.41 132.50
  Q 256.85 175.90 230.95 208.93
  C 228.56 211.97 226.31 214.07 224.41 216.58
  Q 222.65 218.92 219.20 222.02
  Q 204.58 235.15 190.19 242.15
  C 175.41 249.34 157.44 253.87 140.27 253.74
  Q 127.71 253.65 120.48 252.60
  Q 110.61 251.16 95.95 245.89
  C 91.42 244.26 87.73 242.00 82.58 239.56
  Q 80.81 238.72 75.38 235.37
  Q 72.57 233.63 67.99 231.50
  C 57.44 226.60 46.50 218.83 37.55 209.83
  Q 29.47 201.71 28.06 199.94
  Q 11.85 179.65 4.93 155.31
  Q 1.78 144.23 0.00 131.66
  L 0.00 113.75
  Q 0.73 107.36 3.07 97.03
  Q 7.35 78.16 16.09 62.85
  Q 37.19 25.89 76.09 9.62
  Q 88.09 4.60 104.66 1.37
  C 108.34 0.65 111.77 0.39 115.40 0.00
  L 129.64 0.00
  Z
  M 239.63 122.49
  A 117.12 117.12 0.0 0 0 122.51 5.37
  A 117.12 117.12 0.0 0 0 5.39 122.49
  A 117.12 117.12 0.0 0 0 122.51 239.61
  A 117.12 117.12 0.0 0 0 239.63 122.49
  Z"
/>
<path fill="#ff90e8" d="
  M 239.63 122.49
  A 117.12 117.12 0.0 0 1 122.51 239.61
  A 117.12 117.12 0.0 0 1 5.39 122.49
  A 117.12 117.12 0.0 0 1 122.51 5.37
  A 117.12 117.12 0.0 0 1 239.63 122.49
  Z
  M 157.06 144.31
  A 0.18 0.18 0.0 0 1 157.39 144.40
  L 157.39 177.51
  A 1.13 1.13 0.0 0 0 158.52 178.64
  L 184.65 178.64
  A 0.72 0.72 0.0 0 0 185.37 177.92
  L 185.37 117.73
  A 0.59 0.59 0.0 0 0 184.78 117.14
  L 122.77 117.14
  A 1.01 1.01 0.0 0 0 121.76 118.15
  L 121.76 128.60
  A 0.65 0.65 0.0 0 0 122.41 129.25
  L 150.98 129.25
  A 0.78 0.78 0.0 0 1 151.74 130.22
  C 148.98 141.44 144.03 151.24 133.32 156.40
  C 126.31 159.77 117.21 159.06 109.44 156.57
  Q 107.62 155.99 99.86 150.45
  A 5.88 5.87 87.0 0 1 98.93 149.61
  C 84.20 133.07 83.49 106.77 97.16 89.67
  C 101.06 84.78 106.76 80.81 112.77 79.33
  C 123.54 76.67 136.43 78.53 143.83 87.35
  Q 149.02 93.54 149.55 100.79
  A 0.87 0.86 -2.1 0 0 150.42 101.59
  L 180.58 101.59
  A 1.08 1.08 0.0 0 0 181.65 100.36
  Q 178.47 77.62 159.25 65.03
  C 143.51 54.72 121.12 53.35 103.75 57.53
  Q 92.36 60.27 83.50 66.32
  Q 74.47 72.50 68.15 82.15
  C 58.80 96.45 56.19 115.92 58.92 132.79
  C 60.98 145.49 67.45 160.52 77.37 168.83
  C 89.80 179.24 105.11 183.34 121.27 180.72
  Q 143.03 177.18 152.52 156.99
  Q 154.80 152.14 156.03 148.22
  C 156.45 146.85 156.40 145.43 157.06 144.31
  Z"
/>
<path fill="#000000" d="
  M 157.06 144.31
  C 156.40 145.43 156.45 146.85 156.03 148.22
  Q 154.80 152.14 152.52 156.99
  Q 143.03 177.18 121.27 180.72
  C 105.11 183.34 89.80 179.24 77.37 168.83
  C 67.45 160.52 60.98 145.49 58.92 132.79
  C 56.19 115.92 58.80 96.45 68.15 82.15
  Q 74.47 72.50 83.50 66.32
  Q 92.36 60.27 103.75 57.53
  C 121.12 53.35 143.51 54.72 159.25 65.03
  Q 178.47 77.62 181.65 100.36
  A 1.08 1.08 0.0 0 1 180.58 101.59
  L 150.42 101.59
  A 0.87 0.86 -2.1 0 1 149.55 100.79
  Q 149.02 93.54 143.83 87.35
  C 136.43 78.53 123.54 76.67 112.77 79.33
  C 106.76 80.81 101.06 84.78 97.16 89.67
  C 83.49 106.77 84.20 133.07 98.93 149.61
  A 5.88 5.87 87.0 0 0 99.86 150.45
  Q 107.62 155.99 109.44 156.57
  C 117.21 159.06 126.31 159.77 133.32 156.40
  C 144.03 151.24 148.98 141.44 151.74 130.22
  A 0.78 0.78 0.0 0 0 150.98 129.25
  L 122.41 129.25
  A 0.65 0.65 0.0 0 1 121.76 128.60
  L 121.76 118.15
  A 1.01 1.01 0.0 0 1 122.77 117.14
  L 184.78 117.14
  A 0.59 0.59 0.0 0 1 185.37 117.73
  L 185.37 177.92
  A 0.72 0.72 0.0 0 1 184.65 178.64
  L 158.52 178.64
  A 1.13 1.13 0.0 0 1 157.39 177.51
  L 157.39 144.40
  A 0.18 0.18 0.0 0 0 157.06 144.31
  Z"
/>
</svg>