<?xml version="1.0" encoding="UTF-8" standalone="no"?>
<!DOCTYPE svg PUBLIC "-//W3C//DTD SVG 1.1//EN" "http://www.w3.org/Graphics/SVG/1.1/DTD/svg11.dtd">
<svg xmlns="http://www.w3.org/2000/svg" version="1.1" viewBox="0.00 0.00 192.00 192.00" width="128" height="128">
<g stroke-width="2.00" fill="none" stroke-linecap="butt">
<path stroke="#8874ba" vector-effect="non-scaling-stroke" d="
  M 55.67 98.00
  L 47.57 98.00
  A 0.58 0.57 0.0 0 1 46.99 97.43
  L 46.99 89.57
  A 0.57 0.56 90.0 0 0 46.43 89.00
  L 38.56 89.00
  A 0.57 0.57 0.0 0 1 37.99 88.43
  L 37.99 80.17
  A 0.42 0.42 0.0 0 0 37.57 79.75
  L 28.99 79.75
  A 0.50 0.49 -90.0 0 0 28.50 80.25
  L 28.50 106.90
  A 0.59 0.59 0.0 0 0 29.09 107.49
  L 37.16 107.49
  A 0.59 0.58 -90.0 0 1 37.74 108.08
  L 37.74 116.11
  A 0.61 0.61 0.0 0 0 38.33 116.72
  Q 40.72 116.80 51.36 116.73
  Q 54.87 116.71 56.01 117.49
  C 59.18 119.67 59.03 124.37 57.43 127.45
  Q 55.69 130.84 52.39 133.88
  C 45.02 140.70 36.96 147.78 38.08 157.75
  C 39.47 170.13 50.57 174.03 61.32 175.39
  Q 69.95 176.49 78.50 176.49
  Q 123.43 176.52 129.91 176.47
  A 1.30 1.30 0.0 0 0 131.18 175.38
  Q 131.41 173.98 131.01 172.36
  C 130.03 168.41 128.80 165.54 123.76 166.24
  Q 115.17 167.44 114.76 167.46
  C 109.51 167.64 107.56 163.84 109.92 159.38
  Q 114.80 150.13 125.68 146.67
  C 135.68 143.48 143.88 154.18 145.50 162.77
  C 146.73 169.32 139.66 166.75 137.62 169.94
  Q 136.15 172.24 136.81 175.30
  A 1.52 1.51 -6.6 0 0 138.33 176.50
  Q 139.68 176.47 171.25 176.50
  Q 172.88 176.51 173.63 176.00
  A 2.56 2.15 65.5 0 0 174.39 173.27
  C 173.69 171.06 171.11 165.62 168.00 166.29
  C 163.15 167.33 160.06 168.45 156.73 167.38
  A 3.38 3.38 0.0 0 1 154.49 164.97
  Q 153.57 161.11 153.51 156.50
  Q 153.36 144.58 153.44 136.01
  A 2.25 2.25 0.0 0 1 154.53 134.10
  Q 157.11 132.54 158.91 129.40
  C 162.92 122.37 164.87 113.55 161.82 106.26
  C 160.52 103.16 158.84 99.52 159.08 96.58
  A 1.38 1.38 0.0 0 1 161.14 95.50
  L 162.79 96.46
  A 1.23 1.23 0.0 0 0 164.61 95.59
  C 165.27 91.53 163.87 86.41 162.51 82.02
  C 160.56 75.70 156.82 70.97 151.36 67.35
  Q 147.09 64.52 146.30 63.81
  C 141.16 59.23 146.28 54.67 151.27 54.57
  Q 152.60 54.54 155.38 54.74
  A 1.96 1.95 -81.1 0 0 157.42 53.25
  Q 159.31 45.43 155.57 39.08
  C 151.96 32.95 146.42 35.20 140.51 36.72
  Q 136.85 37.66 131.92 35.39
  A 4.18 4.16 59.2 0 0 130.43 35.01
  C 124.15 34.60 118.26 38.05 113.17 41.02
  C 107.30 44.46 101.94 45.39 95.56 44.76
  A 1.36 1.36 0.0 0 0 94.12 46.50
  C 95.64 51.68 104.13 55.52 109.02 56.60
  Q 110.57 56.94 111.31 58.46
  A 1.34 1.33 -51.5 0 1 111.41 59.38
  Q 109.96 65.20 110.75 71.47
  Q 111.01 73.55 109.36 74.11
  C 106.09 75.21 100.41 66.68 97.91 63.65
  C 88.84 52.66 75.77 51.45 63.76 44.44
  C 51.04 37.01 41.19 27.26 31.29 16.61
  A 1.42 1.42 0.0 0 0 29.16 16.67
  Q 28.70 17.23 28.65 17.98
  C 27.92 29.46 31.64 42.41 37.46 51.99
  Q 48.15 69.61 68.26 70.41
  Q 74.56 70.66 76.45 70.68
  A 1.01 1.01 0.0 0 1 76.99 72.54
  Q 75.58 73.47 72.92 73.92
  Q 64.84 75.28 56.09 73.45
  A 1.57 1.56 3.9 0 0 54.20 75.09
  Q 54.33 76.93 55.22 78.90
  C 58.62 86.43 63.69 92.68 70.50 97.00
  Q 83.66 105.37 101.44 106.34
  A 2.09 2.07 1.2 0 1 103.41 108.38
  L 103.41 108.45
  A 1.94 1.93 89.7 0 1 101.46 110.43
  Q 87.85 110.29 81.32 120.41
  Q 76.54 127.84 75.81 136.55
  Q 75.03 145.96 76.41 160.05
  Q 76.62 162.18 76.29 162.95
  C 75.20 165.50 71.19 166.98 68.73 167.51
  C 61.86 168.97 52.18 168.64 47.07 163.69
  C 40.83 157.65 44.77 149.26 49.83 144.06
  Q 54.48 139.28 58.60 134.88
  C 65.55 127.45 66.21 116.90 56.72 111.13
  A 0.97 0.96 -74.7 0 1 56.25 110.30
  L 56.25 98.58
  A 0.58 0.58 0.0 0 0 55.67 98.00"
/>
<path stroke="#8874ba" vector-effect="non-scaling-stroke" d="
  M 28.7049 69.8764
  A 0.42 0.42 0.0 0 0 28.2863 69.4549
  L 19.7464 69.4251
  A 0.42 0.42 0.0 0 0 19.3249 69.8437
  L 19.2951 78.3836
  A 0.42 0.42 0.0 0 0 19.7137 78.8051
  L 28.2536 78.8349
  A 0.42 0.42 0.0 0 0 28.6751 78.4163
  L 28.7049 69.8764"
/>
</g>
<path fill="#ccc0ff" d="
  M 29.99 58.89
  Q 19.61 42.19 18.57 22.76
  Q 18.29 17.62 19.69 13.69
  C 22.05 7.03 28.70 4.63 35.10 7.30
  Q 37.28 8.20 40.48 11.84
  Q 42.64 14.30 49.46 21.06
  Q 64.60 36.08 83.96 42.37
  A 0.62 0.62 0.0 0 0 84.74 42.01
  Q 86.92 36.57 92.84 35.12
  A 4.75 4.64 38.1 0 1 94.02 34.99
  C 98.56 35.06 101.54 35.07 104.93 34.08
  A 4.53 4.40 19.3 0 0 106.14 33.52
  Q 108.32 32.07 115.98 28.28
  Q 127.63 22.53 137.23 26.70
  A 2.91 2.91 0.0 0 0 139.16 26.84
  Q 143.03 25.76 145.07 25.37
  C 154.77 23.50 162.90 29.01 166.20 38.06
  C 168.93 45.56 169.38 57.61 162.15 62.91
  A 0.30 0.30 0.0 0 0 162.13 63.39
  C 170.19 69.90 173.84 82.21 174.75 92.28
  Q 175.30 98.31 171.66 102.83
  A 1.00 0.99 -36.1 0 0 171.50 103.79
  C 175.73 115.44 171.97 130.64 163.65 139.54
  A 1.81 1.77 -24.5 0 0 163.17 140.78
  L 163.48 156.59
  A 0.30 0.30 0.0 0 0 163.90 156.86
  Q 164.06 156.79 167.11 156.45
  Q 173.80 155.71 178.54 160.90
  Q 181.94 164.63 183.71 169.76
  C 186.00 176.38 183.14 183.14 176.65 185.62
  Q 174.36 186.49 167.68 186.50
  Q 88.35 186.55 75.07 186.42
  Q 70.46 186.38 63.08 185.75
  Q 56.14 185.16 47.90 182.41
  Q 39.59 179.64 34.83 174.23
  C 27.91 166.36 25.86 154.80 30.31 145.11
  C 33.67 137.79 38.91 133.13 45.23 126.92
  A 0.25 0.24 -67.3 0 0 45.06 126.50
  L 28.33 126.50
  A 0.58 0.58 0.0 0 1 27.75 125.92
  L 27.75 117.99
  A 0.49 0.48 -90.0 0 0 27.27 117.50
  L 19.06 117.50
  A 0.56 0.55 -0.0 0 1 18.50 116.95
  L 18.50 89.34
  A 0.59 0.58 -90.0 0 0 17.92 88.75
  L 10.07 88.75
  A 0.57 0.57 0.0 0 1 9.50 88.18
  L 9.50 60.09
  A 0.59 0.59 0.0 0 1 10.09 59.50
  L 29.65 59.50
  A 0.40 0.40 0.0 0 0 29.99 58.89
  Z
  M 55.67 98.00
  L 47.57 98.00
  A 0.58 0.57 0.0 0 1 46.99 97.43
  L 46.99 89.57
  A 0.57 0.56 90.0 0 0 46.43 89.00
  L 38.56 89.00
  A 0.57 0.57 0.0 0 1 37.99 88.43
  L 37.99 80.17
  A 0.42 0.42 0.0 0 0 37.57 79.75
  L 28.99 79.75
  A 0.50 0.49 -90.0 0 0 28.50 80.25
  L 28.50 106.90
  A 0.59 0.59 0.0 0 0 29.09 107.49
  L 37.16 107.49
  A 0.59 0.58 -90.0 0 1 37.74 108.08
  L 37.74 116.11
  A 0.61 0.61 0.0 0 0 38.33 116.72
  Q 40.72 116.80 51.36 116.73
  Q 54.87 116.71 56.01 117.49
  C 59.18 119.67 59.03 124.37 57.43 127.45
  Q 55.69 130.84 52.39 133.88
  C 45.02 140.70 36.96 147.78 38.08 157.75
  C 39.47 170.13 50.57 174.03 61.32 175.39
  Q 69.95 176.49 78.50 176.49
  Q 123.43 176.52 129.91 176.47
  A 1.30 1.30 0.0 0 0 131.18 175.38
  Q 131.41 173.98 131.01 172.36
  C 130.03 168.41 128.80 165.54 123.76 166.24
  Q 115.17 167.44 114.76 167.46
  C 109.51 167.64 107.56 163.84 109.92 159.38
  Q 114.80 150.13 125.68 146.67
  C 135.68 143.48 143.88 154.18 145.50 162.77
  C 146.73 169.32 139.66 166.75 137.62 169.94
  Q 136.15 172.24 136.81 175.30
  A 1.52 1.51 -6.6 0 0 138.33 176.50
  Q 139.68 176.47 171.25 176.50
  Q 172.88 176.51 173.63 176.00
  A 2.56 2.15 65.5 0 0 174.39 173.27
  C 173.69 171.06 171.11 165.62 168.00 166.29
  C 163.15 167.33 160.06 168.45 156.73 167.38
  A 3.38 3.38 0.0 0 1 154.49 164.97
  Q 153.57 161.11 153.51 156.50
  Q 153.36 144.58 153.44 136.01
  A 2.25 2.25 0.0 0 1 154.53 134.10
  Q 157.11 132.54 158.91 129.40
  C 162.92 122.37 164.87 113.55 161.82 106.26
  C 160.52 103.16 158.84 99.52 159.08 96.58
  A 1.38 1.38 0.0 0 1 161.14 95.50
  L 162.79 96.46
  A 1.23 1.23 0.0 0 0 164.61 95.59
  C 165.27 91.53 163.87 86.41 162.51 82.02
  C 160.56 75.70 156.82 70.97 151.36 67.35
  Q 147.09 64.52 146.30 63.81
  C 141.16 59.23 146.28 54.67 151.27 54.57
  Q 152.60 54.54 155.38 54.74
  A 1.96 1.95 -81.1 0 0 157.42 53.25
  Q 159.31 45.43 155.57 39.08
  C 151.96 32.95 146.42 35.20 140.51 36.72
  Q 136.85 37.66 131.92 35.39
  A 4.18 4.16 59.2 0 0 130.43 35.01
  C 124.15 34.60 118.26 38.05 113.17 41.02
  C 107.30 44.46 101.94 45.39 95.56 44.76
  A 1.36 1.36 0.0 0 0 94.12 46.50
  C 95.64 51.68 104.13 55.52 109.02 56.60
  Q 110.57 56.94 111.31 58.46
  A 1.34 1.33 -51.5 0 1 111.41 59.38
  Q 109.96 65.20 110.75 71.47
  Q 111.01 73.55 109.36 74.11
  C 106.09 75.21 100.41 66.68 97.91 63.65
  C 88.84 52.66 75.77 51.45 63.76 44.44
  C 51.04 37.01 41.19 27.26 31.29 16.61
  A 1.42 1.42 0.0 0 0 29.16 16.67
  Q 28.70 17.23 28.65 17.98
  C 27.92 29.46 31.64 42.41 37.46 51.99
  Q 48.15 69.61 68.26 70.41
  Q 74.56 70.66 76.45 70.68
  A 1.01 1.01 0.0 0 1 76.99 72.54
  Q 75.58 73.47 72.92 73.92
  Q 64.84 75.28 56.09 73.45
  A 1.57 1.56 3.9 0 0 54.20 75.09
  Q 54.33 76.93 55.22 78.90
  C 58.62 86.43 63.69 92.68 70.50 97.00
  Q 83.66 105.37 101.44 106.34
  A 2.09 2.07 1.2 0 1 103.41 108.38
  L 103.41 108.45
  A 1.94 1.93 89.7 0 1 101.46 110.43
  Q 87.85 110.29 81.32 120.41
  Q 76.54 127.84 75.81 136.55
  Q 75.03 145.96 76.41 160.05
  Q 76.62 162.18 76.29 162.95
  C 75.20 165.50 71.19 166.98 68.73 167.51
  C 61.86 168.97 52.18 168.64 47.07 163.69
  C 40.83 157.65 44.77 149.26 49.83 144.06
  Q 54.48 139.28 58.60 134.88
  C 65.55 127.45 66.21 116.90 56.72 111.13
  A 0.97 0.96 -74.7 0 1 56.25 110.30
  L 56.25 98.58
  A 0.58 0.58 0.0 0 0 55.67 98.00
  Z
  M 28.7049 69.8764
  A 0.42 0.42 0.0 0 0 28.2863 69.4549
  L 19.7464 69.4251
  A 0.42 0.42 0.0 0 0 19.3249 69.8437
  L 19.2951 78.3836
  A 0.42 0.42 0.0 0 0 19.7137 78.8051
  L 28.2536 78.8349
  A 0.42 0.42 0.0 0 0 28.6751 78.4163
  L 28.7049 69.8764
  Z"
/>
<path fill="#432874" d="
  M 56.25 98.58
  L 56.25 110.30
  A 0.97 0.96 -74.7 0 0 56.72 111.13
  C 66.21 116.90 65.55 127.45 58.60 134.88
  Q 54.48 139.28 49.83 144.06
  C 44.77 149.26 40.83 157.65 47.07 163.69
  C 52.18 168.64 61.86 168.97 68.73 167.51
  C 71.19 166.98 75.20 165.50 76.29 162.95
  Q 76.62 162.18 76.41 160.05
  Q 75.03 145.96 75.81 136.55
  Q 76.54 127.84 81.32 120.41
  Q 87.85 110.29 101.46 110.43
  A 1.94 1.93 89.7 0 0 103.41 108.45
  L 103.41 108.38
  A 2.09 2.07 1.2 0 0 101.44 106.34
  Q 83.66 105.37 70.50 97.00
  C 63.69 92.68 58.62 86.43 55.22 78.90
  Q 54.33 76.93 54.20 75.09
  A 1.57 1.56 3.9 0 1 56.09 73.45
  Q 64.84 75.28 72.92 73.92
  Q 75.58 73.47 76.99 72.54
  A 1.01 1.01 0.0 0 0 76.45 70.68
  Q 74.56 70.66 68.26 70.41
  Q 48.15 69.61 37.46 51.99
  C 31.64 42.41 27.92 29.46 28.65 17.98
  Q 28.70 17.23 29.16 16.67
  A 1.42 1.42 0.0 0 1 31.29 16.61
  C 41.19 27.26 51.04 37.01 63.76 44.44
  C 75.77 51.45 88.84 52.66 97.91 63.65
  C 100.41 66.68 106.09 75.21 109.36 74.11
  Q 111.01 73.55 110.75 71.47
  Q 109.96 65.20 111.41 59.38
  A 1.34 1.33 -51.5 0 0 111.31 58.46
  Q 110.57 56.94 109.02 56.60
  C 104.13 55.52 95.64 51.68 94.12 46.50
  A 1.36 1.36 0.0 0 1 95.56 44.76
  C 101.94 45.39 107.30 44.46 113.17 41.02
  C 118.26 38.05 124.15 34.60 130.43 35.01
  A 4.18 4.16 59.2 0 1 131.92 35.39
  Q 136.85 37.66 140.51 36.72
  C 146.42 35.20 151.96 32.95 155.57 39.08
  Q 159.31 45.43 157.42 53.25
  A 1.96 1.95 -81.1 0 1 155.38 54.74
  Q 152.60 54.54 151.27 54.57
  C 146.28 54.67 141.16 59.23 146.30 63.81
  Q 147.09 64.52 151.36 67.35
  C 156.82 70.97 160.56 75.70 162.51 82.02
  C 163.87 86.41 165.27 91.53 164.61 95.59
  A 1.23 1.23 0.0 0 1 162.79 96.46
  L 161.14 95.50
  A 1.38 1.38 0.0 0 0 159.08 96.58
  C 158.84 99.52 160.52 103.16 161.82 106.26
  C 164.87 113.55 162.92 122.37 158.91 129.40
  Q 157.11 132.54 154.53 134.10
  A 2.25 2.25 0.0 0 0 153.44 136.01
  Q 153.36 144.58 153.51 156.50
  Q 153.57 161.11 154.49 164.97
  A 3.38 3.38 0.0 0 0 156.73 167.38
  C 160.06 168.45 163.15 167.33 168.00 166.29
  C 171.11 165.62 173.69 171.06 174.39 173.27
  A 2.56 2.15 65.5 0 1 173.63 176.00
  Q 172.88 176.51 171.25 176.50
  Q 139.68 176.47 138.33 176.50
  A 1.52 1.51 -6.6 0 1 136.81 175.30
  Q 136.15 172.24 137.62 169.94
  C 139.66 166.75 146.73 169.32 145.50 162.77
  C 143.88 154.18 135.68 143.48 125.68 146.67
  Q 114.80 150.13 109.92 159.38
  C 107.56 163.84 109.51 167.64 114.76 167.46
  Q 115.17 167.44 123.76 166.24
  C 128.80 165.54 130.03 168.41 131.01 172.36
  Q 131.41 173.98 131.18 175.38
  A 1.30 1.30 0.0 0 1 129.91 176.47
  Q 123.43 176.52 78.50 176.49
  Q 69.95 176.49 61.32 175.39
  C 50.57 174.03 39.47 170.13 38.08 157.75
  C 36.96 147.78 45.02 140.70 52.39 133.88
  Q 55.69 130.84 57.43 127.45
  C 59.03 124.37 59.18 119.67 56.01 117.49
  Q 54.87 116.71 51.36 116.73
  Q 40.72 116.80 38.33 116.72
  A 0.61 0.61 0.0 0 1 37.74 116.11
  L 37.74 108.08
  A 0.59 0.58 90.0 0 0 37.16 107.49
  L 29.09 107.49
  A 0.59 0.59 0.0 0 1 28.50 106.90
  L 28.50 80.25
  A 0.50 0.49 -90.0 0 1 28.99 79.75
  L 37.57 79.75
  A 0.42 0.42 0.0 0 1 37.99 80.17
  L 37.99 88.43
  A 0.57 0.57 0.0 0 0 38.56 89.00
  L 46.43 89.00
  A 0.57 0.56 90.0 0 1 46.99 89.57
  L 46.99 97.43
  A 0.58 0.57 0.0 0 0 47.57 98.00
  L 55.67 98.00
  A 0.58 0.58 0.0 0 1 56.25 98.58
  Z"
/>
<rect fill="#432874" x="-4.69" y="-4.69" transform="translate(24.00,74.13) rotate(0.2)" width="9.38" height="9.38" rx="0.42"/>
</svg>