<?xml version="1.0" encoding="UTF-8" standalone="no"?>
<!DOCTYPE svg PUBLIC "-//W3C//DTD SVG 1.1//EN" "http://www.w3.org/Graphics/SVG/1.1/DTD/svg11.dtd">
<svg xmlns="http://www.w3.org/2000/svg" version="1.1" viewBox="0.00 0.00 180.00 180.00" width="128" height="128">
<g stroke-width="2.00" fill="none" stroke-linecap="butt">
<path stroke="#94b1ff" vector-effect="non-scaling-stroke" d="
  M 114.0056 27.9366
  A 33.81 33.81 0.0 0 0 66.1912 27.8532
  L 27.9266 65.9844
  A 33.81 33.81 0.0 0 0 27.8432 113.7988
  L 65.9744 152.0634
  A 33.81 33.81 0.0 0 0 113.7888 152.1468
  L 152.0534 114.0156
  A 33.81 33.81 0.0 0 0 152.1368 66.2012
  L 114.0056 27.9366"
/>
<path stroke="#94b1ff" vector-effect="non-scaling-stroke" d="
  M 113.62 90.00
  A 23.77 23.77 0.0 0 0 89.85 66.23
  A 23.77 23.77 0.0 0 0 66.08 90.00
  A 23.77 23.77 0.0 0 0 89.85 113.77
  A 23.77 23.77 0.0 0 0 113.62 90.00"
/>
</g>
<path fill="#ffffff" d="
  M 180.00 0.00
  L 180.00 180.00
  L 0.00 180.00
  L 0.00 0.00
  L 180.00 0.00
  Z
  M 114.0056 27.9366
  A 33.81 33.81 0.0 0 0 66.1912 27.8532
  L 27.9266 65.9844
  A 33.81 33.81 0.0 0 0 27.8432 113.7988
  L 65.9744 152.0634
  A 33.81 33.81 0.0 0 0 113.7888 152.1468
  L 152.0534 114.0156
  A 33.81 33.81 0.0 0 0 152.1368 66.2012
  L 114.0056 27.9366
  Z"
/>
<path fill="#2962ff" d="
  M 152.1368 66.2012
  A 33.81 33.81 0.0 0 1 152.0534 114.0156
  L 113.7888 152.1468
  A 33.81 33.81 0.0 0 1 65.9744 152.0634
  L 27.8432 113.7988
  A 33.81 33.81 0.0 0 1 27.9266 65.9844
  L 66.1912 27.8532
  A 33.81 33.81 0.0 0 1 114.0056 27.9366
  L 152.1368 66.2012
  Z
  M 113.62 90.00
  A 23.77 23.77 0.0 0 0 89.85 66.23
  A 23.77 23.77 0.0 0 0 66.08 90.00
  A 23.77 23.77 0.0 0 0 89.85 113.77
  A 23.77 23.77 0.0 0 0 113.62 90.00
  Z"
/>
<circle fill="#ffffff" cx="89.85" cy="90.00" r="23.77"/>
</svg>