<?xml version="1.0" encoding="UTF-8" standalone="no"?>
<!DOCTYPE svg PUBLIC "-//W3C//DTD SVG 1.1//EN" "http://www.w3.org/Graphics/SVG/1.1/DTD/svg11.dtd">
<svg xmlns="http://www.w3.org/2000/svg" version="1.1" viewBox="0.00 0.00 1024.00 1024.00" width="128" height="128">
<g stroke-width="2.00" fill="none" stroke-linecap="butt">
<path stroke="#c080ff" vector-effect="non-scaling-stroke" d="
  M 189.11 590.94
  Q 186.27 597.49 184.44 604.20
  Q 173.68 643.69 172.37 684.99
  C 172.10 693.30 172.42 719.52 181.91 723.34
  C 188.46 725.97 196.81 725.11 204.03 724.08
  Q 215.11 722.50 226.78 719.30
  Q 275.31 705.98 319.71 684.97
  C 328.70 680.72 333.04 674.37 336.28 665.31
  A 0.59 0.58 -71.7 0 1 336.99 664.95
  Q 397.55 683.26 460.11 691.88
  A 2.57 2.56 70.7 0 1 461.56 692.58
  Q 480.47 710.80 488.35 718.90
  Q 498.04 728.84 504.01 732.58
  C 513.66 738.63 524.13 741.95 535.40 742.18
  C 583.84 743.17 632.24 733.96 679.48 719.73
  Q 690.38 716.45 694.45 714.69
  Q 707.40 709.11 716.83 698.36
  Q 721.55 692.99 727.45 681.32
  Q 731.03 674.25 741.54 654.06
  A 2.94 2.93 1.3 0 1 742.90 652.76
  Q 776.23 637.36 805.63 616.42
  C 850.44 584.51 890.64 538.20 895.48 481.02
  C 898.62 444.03 886.62 406.17 864.08 376.65
  C 838.32 342.92 801.14 319.24 761.52 304.69
  C 698.38 281.50 629.74 276.52 563.08 286.25
  C 536.57 290.12 509.44 297.73 485.30 306.80
  C 418.03 332.10 354.53 367.98 295.50 410.54
  A 0.41 0.41 0.0 0 1 294.93 410.45
  C 289.86 403.36 283.10 399.61 273.98 398.34
  C 246.63 394.53 218.63 393.34 191.00 393.76
  C 175.41 393.99 160.15 394.90 145.06 398.31
  Q 137.71 399.96 132.62 403.41
  C 127.61 406.80 127.50 414.43 128.28 420.01
  Q 130.28 434.22 136.49 450.26
  Q 147.90 479.68 164.03 506.49
  Q 172.10 519.92 179.31 528.38
  A 0.88 0.87 38.2 0 1 179.43 529.33
  C 175.42 537.68 172.58 546.58 172.50 555.71
  C 172.37 569.28 180.28 580.08 188.98 590.09
  A 0.82 0.80 -54.2 0 1 189.11 590.94"
/>
<path stroke="#c080ff" vector-effect="non-scaling-stroke" d="
  M 267.76 510.54
  Q 386.85 458.90 513.48 429.98
  Q 558.82 419.62 605.25 412.74
  C 653.29 405.62 701.88 402.11 750.19 406.36
  Q 796.37 410.42 840.64 425.74
  A 0.41 0.41 0.0 0 0 841.13 425.15
  Q 838.18 419.96 834.22 414.75
  C 814.24 388.49 784.89 369.05 754.59 356.87
  C 685.62 329.14 607.64 329.81 536.10 349.88
  C 488.83 363.14 444.56 383.12 402.43 407.68
  Q 341.12 443.41 287.59 490.82
  Q 276.96 500.25 267.50 510.17
  A 0.23 0.23 0.0 0 0 267.76 510.54"
/>
<path stroke="#c080ff" vector-effect="non-scaling-stroke" d="
  M 266.94 572.70
  Q 270.77 575.04 273.90 576.58
  Q 304.91 591.81 338.72 603.76
  C 401.94 626.11 469.07 640.05 536.00 641.42
  C 604.95 642.83 674.24 628.52 735.75 597.70
  C 773.29 578.88 809.10 553.10 833.14 518.41
  Q 844.74 501.67 850.23 482.26
  A 0.31 0.30 81.3 0 0 849.77 481.92
  Q 830.40 494.65 808.16 505.13
  C 756.30 529.57 700.01 545.30 642.73 555.96
  Q 595.82 564.70 546.74 569.53
  Q 407.14 583.27 267.01 572.47
  A 0.12 0.12 0.0 0 0 266.94 572.70"
/>
</g>
<path fill="#8000ff" d="
  M 876.12 0.00
  C 920.62 2.20 962.05 22.23 990.04 57.23
  Q 1017.87 92.02 1022.92 136.77
  Q 1023.50 141.82 1024.00 146.88
  L 1024.00 875.63
  Q 1022.18 915.48 1002.80 948.27
  C 978.08 990.10 935.14 1018.13 886.48 1023.01
  Q 881.85 1023.47 877.23 1024.00
  L 146.88 1024.00
  Q 141.82 1023.50 136.76 1022.92
  Q 91.84 1017.83 57.26 990.00
  C 24.73 963.82 4.69 926.08 0.78 884.38
  Q 0.39 880.22 0.00 876.06
  L 0.00 148.28
  C 2.06 99.92 25.57 56.32 64.91 28.15
  Q 100.57 2.62 146.79 0.00
  L 876.12 0.00
  Z
  M 189.11 590.94
  Q 186.27 597.49 184.44 604.20
  Q 173.68 643.69 172.37 684.99
  C 172.10 693.30 172.42 719.52 181.91 723.34
  C 188.46 725.97 196.81 725.11 204.03 724.08
  Q 215.11 722.50 226.78 719.30
  Q 275.31 705.98 319.71 684.97
  C 328.70 680.72 333.04 674.37 336.28 665.31
  A 0.59 0.58 -71.7 0 1 336.99 664.95
  Q 397.55 683.26 460.11 691.88
  A 2.57 2.56 70.7 0 1 461.56 692.58
  Q 480.47 710.80 488.35 718.90
  Q 498.04 728.84 504.01 732.58
  C 513.66 738.63 524.13 741.95 535.40 742.18
  C 583.84 743.17 632.24 733.96 679.48 719.73
  Q 690.38 716.45 694.45 714.69
  Q 707.40 709.11 716.83 698.36
  Q 721.55 692.99 727.45 681.32
  Q 731.03 674.25 741.54 654.06
  A 2.94 2.93 1.3 0 1 742.90 652.76
  Q 776.23 637.36 805.63 616.42
  C 850.44 584.51 890.64 538.20 895.48 481.02
  C 898.62 444.03 886.62 406.17 864.08 376.65
  C 838.32 342.92 801.14 319.24 761.52 304.69
  C 698.38 281.50 629.74 276.52 563.08 286.25
  C 536.57 290.12 509.44 297.73 485.30 306.80
  C 418.03 332.10 354.53 367.98 295.50 410.54
  A 0.41 0.41 0.0 0 1 294.93 410.45
  C 289.86 403.36 283.10 399.61 273.98 398.34
  C 246.63 394.53 218.63 393.34 191.00 393.76
  C 175.41 393.99 160.15 394.90 145.06 398.31
  Q 137.71 399.96 132.62 403.41
  C 127.61 406.80 127.50 414.43 128.28 420.01
  Q 130.28 434.22 136.49 450.26
  Q 147.90 479.68 164.03 506.49
  Q 172.10 519.92 179.31 528.38
  A 0.88 0.87 38.2 0 1 179.43 529.33
  C 175.42 537.68 172.58 546.58 172.50 555.71
  C 172.37 569.28 180.28 580.08 188.98 590.09
  A 0.82 0.80 -54.2 0 1 189.11 590.94
  Z"
/>
<path fill="#ffffff" d="
  M 188.98 590.09
  C 180.28 580.08 172.37 569.28 172.50 555.71
  C 172.58 546.58 175.42 537.68 179.43 529.33
  A 0.88 0.87 38.2 0 0 179.31 528.38
  Q 172.10 519.92 164.03 506.49
  Q 147.90 479.68 136.49 450.26
  Q 130.28 434.22 128.28 420.01
  C 127.50 414.43 127.61 406.80 132.62 403.41
  Q 137.71 399.96 145.06 398.31
  C 160.15 394.90 175.41 393.99 191.00 393.76
  C 218.63 393.34 246.63 394.53 273.98 398.34
  C 283.10 399.61 289.86 403.36 294.93 410.45
  A 0.41 0.41 0.0 0 0 295.50 410.54
  C 354.53 367.98 418.03 332.10 485.30 306.80
  C 509.44 297.73 536.57 290.12 563.08 286.25
  C 629.74 276.52 698.38 281.50 761.52 304.69
  C 801.14 319.24 838.32 342.92 864.08 376.65
  C 886.62 406.17 898.62 444.03 895.48 481.02
  C 890.64 538.20 850.44 584.51 805.63 616.42
  Q 776.23 637.36 742.90 652.76
  A 2.94 2.93 1.3 0 0 741.54 654.06
  Q 731.03 674.25 727.45 681.32
  Q 721.55 692.99 716.83 698.36
  Q 707.40 709.11 694.45 714.69
  Q 690.38 716.45 679.48 719.73
  C 632.24 733.96 583.84 743.17 535.40 742.18
  C 524.13 741.95 513.66 738.63 504.01 732.58
  Q 498.04 728.84 488.35 718.90
  Q 480.47 710.80 461.56 692.58
  A 2.57 2.56 70.7 0 0 460.11 691.88
  Q 397.55 683.26 336.99 664.95
  A 0.59 0.58 -71.7 0 0 336.28 665.31
  C 333.04 674.37 328.70 680.72 319.71 684.97
  Q 275.31 705.98 226.78 719.30
  Q 215.11 722.50 204.03 724.08
  C 196.81 725.11 188.46 725.97 181.91 723.34
  C 172.42 719.52 172.10 693.30 172.37 684.99
  Q 173.68 643.69 184.44 604.20
  Q 186.27 597.49 189.11 590.94
  A 0.82 0.80 -54.2 0 0 188.98 590.09
  Z
  M 267.76 510.54
  Q 386.85 458.90 513.48 429.98
  Q 558.82 419.62 605.25 412.74
  C 653.29 405.62 701.88 402.11 750.19 406.36
  Q 796.37 410.42 840.64 425.74
  A 0.41 0.41 0.0 0 0 841.13 425.15
  Q 838.18 419.96 834.22 414.75
  C 814.24 388.49 784.89 369.05 754.59 356.87
  C 685.62 329.14 607.64 329.81 536.10 349.88
  C 488.83 363.14 444.56 383.12 402.43 407.68
  Q 341.12 443.41 287.59 490.82
  Q 276.96 500.25 267.50 510.17
  A 0.23 0.23 0.0 0 0 267.76 510.54
  Z
  M 266.94 572.70
  Q 270.77 575.04 273.90 576.58
  Q 304.91 591.81 338.72 603.76
  C 401.94 626.11 469.07 640.05 536.00 641.42
  C 604.95 642.83 674.24 628.52 735.75 597.70
  C 773.29 578.88 809.10 553.10 833.14 518.41
  Q 844.74 501.67 850.23 482.26
  A 0.31 0.30 81.3 0 0 849.77 481.92
  Q 830.40 494.65 808.16 505.13
  C 756.30 529.57 700.01 545.30 642.73 555.96
  Q 595.82 564.70 546.74 569.53
  Q 407.14 583.27 267.01 572.47
  A 0.12 0.12 0.0 0 0 266.94 572.70
  Z"
/>
<path fill="#8000ff" d="
  M 267.50 510.17
  Q 276.96 500.25 287.59 490.82
  Q 341.12 443.41 402.43 407.68
  C 444.56 383.12 488.83 363.14 536.10 349.88
  C 607.64 329.81 685.62 329.14 754.59 356.87
  C 784.89 369.05 814.24 388.49 834.22 414.75
  Q 838.18 419.96 841.13 425.15
  A 0.41 0.41 0.0 0 1 840.64 425.74
  Q 796.37 410.42 750.19 406.36
  C 701.88 402.11 653.29 405.62 605.25 412.74
  Q 558.82 419.62 513.48 429.98
  Q 386.85 458.90 267.76 510.54
  A 0.23 0.23 0.0 0 1 267.50 510.17
  Z"
/>
<path fill="#8000ff" d="
  M 266.94 572.70
  A 0.12 0.12 0.0 0 1 267.01 572.47
  Q 407.14 583.27 546.74 569.53
  Q 595.82 564.70 642.73 555.96
  C 700.01 545.30 756.30 529.57 808.16 505.13
  Q 830.40 494.65 849.77 481.92
  A 0.31 0.30 81.3 0 1 850.23 482.26
  Q 844.74 501.67 833.14 518.41
  C 809.10 553.10 773.29 578.88 735.75 597.70
  C 674.24 628.52 604.95 642.83 536.00 641.42
  C 469.07 640.05 401.94 626.11 338.72 603.76
  Q 304.91 591.81 273.90 576.58
  Q 270.77 575.04 266.94 572.70
  Z"
/>
</svg>