<?xml version="1.0" encoding="UTF-8" standalone="no"?>
<!DOCTYPE svg PUBLIC "-//W3C//DTD SVG 1.1//EN" "http://www.w3.org/Graphics/SVG/1.1/DTD/svg11.dtd">
<svg xmlns="http://www.w3.org/2000/svg" version="1.1" viewBox="0.00 -2.00 361.00 361.00" width="128" height="128">
<g stroke-width="2.00" fill="none" stroke-linecap="butt">
<path stroke="#80b4fd" vector-effect="non-scaling-stroke" d="
  M 253.01 286.68
  A 0.24 0.24 0.0 0 0 253.42 286.85
  Q 332.70 207.57 333.11 207.17
  Q 341.94 198.67 343.76 195.50
  C 349.49 185.51 348.56 173.03 340.36 164.84
  Q 319.16 143.71 201.96 26.45
  Q 196.60 21.09 193.26 19.57
  Q 185.23 15.93 176.40 17.95
  C 172.61 18.81 167.73 21.40 165.29 23.81
  Q 157.49 31.49 148.90 40.20
  A 4.15 4.14 67.3 0 0 147.71 43.11
  L 147.71 161.19
  A 0.39 0.39 0.0 0 0 148.10 161.58
  L 216.72 161.58
  A 0.58 0.57 -90.0 0 0 217.29 161.00
  L 217.29 117.38
  A 0.38 0.38 0.0 0 1 217.67 117.00
  L 252.26 117.00
  A 0.75 0.75 0.0 0 1 253.01 117.75
  L 253.01 286.68"
/>
<path stroke="#80b4fd" vector-effect="non-scaling-stroke" d="
  M 111.54 77.92
  A 0.17 0.17 0.0 0 0 111.25 77.80
  Q 50.44 138.71 30.18 158.77
  Q 21.72 167.14 19.77 171.41
  C 15.29 181.21 17.21 192.53 25.02 200.32
  Q 49.18 224.43 159.97 335.27
  Q 166.54 341.84 168.24 342.99
  Q 173.01 346.19 178.73 346.92
  Q 192.03 348.62 201.44 338.93
  Q 209.95 330.18 216.70 323.61
  A 1.98 1.97 67.8 0 0 217.29 322.20
  L 217.29 202.53
  A 0.52 0.52 0.0 0 0 216.77 202.01
  L 148.12 202.01
  A 0.41 0.41 0.0 0 0 147.71 202.42
  L 147.71 246.50
  A 0.51 0.50 -90.0 0 1 147.21 247.01
  L 112.09 247.01
  A 0.55 0.55 0.0 0 1 111.54 246.46
  L 111.54 77.92"
/>
</g>
<path fill="#ffffff" d="
  M 160.39 344.17
  L 20.62 204.40
  A 31.28 31.28 0.0 0 1 20.62 160.16
  L 160.28 20.50
  A 31.28 31.28 0.0 0 1 204.52 20.50
  L 344.29 160.27
  A 31.28 31.28 0.0 0 1 344.29 204.51
  L 204.63 344.17
  A 31.28 31.28 0.0 0 1 160.39 344.17
  Z
  M 253.01 286.68
  A 0.24 0.24 0.0 0 0 253.42 286.85
  Q 332.70 207.57 333.11 207.17
  Q 341.94 198.67 343.76 195.50
  C 349.49 185.51 348.56 173.03 340.36 164.84
  Q 319.16 143.71 201.96 26.45
  Q 196.60 21.09 193.26 19.57
  Q 185.23 15.93 176.40 17.95
  C 172.61 18.81 167.73 21.40 165.29 23.81
  Q 157.49 31.49 148.90 40.20
  A 4.15 4.14 67.3 0 0 147.71 43.11
  L 147.71 161.19
  A 0.39 0.39 0.0 0 0 148.10 161.58
  L 216.72 161.58
  A 0.58 0.57 -90.0 0 0 217.29 161.00
  L 217.29 117.38
  A 0.38 0.38 0.0 0 1 217.67 117.00
  L 252.26 117.00
  A 0.75 0.75 0.0 0 1 253.01 117.75
  L 253.01 286.68
  Z
  M 111.54 77.92
  A 0.17 0.17 0.0 0 0 111.25 77.80
  Q 50.44 138.71 30.18 158.77
  Q 21.72 167.14 19.77 171.41
  C 15.29 181.21 17.21 192.53 25.02 200.32
  Q 49.18 224.43 159.97 335.27
  Q 166.54 341.84 168.24 342.99
  Q 173.01 346.19 178.73 346.92
  Q 192.03 348.62 201.44 338.93
  Q 209.95 330.18 216.70 323.61
  A 1.98 1.97 67.8 0 0 217.29 322.20
  L 217.29 202.53
  A 0.52 0.52 0.0 0 0 216.77 202.01
  L 148.12 202.01
  A 0.41 0.41 0.0 0 0 147.71 202.42
  L 147.71 246.50
  A 0.51 0.50 -90.0 0 1 147.21 247.01
  L 112.09 247.01
  A 0.55 0.55 0.0 0 1 111.54 246.46
  L 111.54 77.92
  Z"
/>
<path fill="#0168fa" d="
  M 253.01 286.68
  L 253.01 117.75
  A 0.75 0.75 0.0 0 0 252.26 117.00
  L 217.67 117.00
  A 0.38 0.38 0.0 0 0 217.29 117.38
  L 217.29 161.00
  A 0.58 0.57 90.0 0 1 216.72 161.58
  L 148.10 161.58
  A 0.39 0.39 0.0 0 1 147.71 161.19
  L 147.71 43.11
  A 4.15 4.14 67.3 0 1 148.90 40.20
  Q 157.49 31.49 165.29 23.81
  C 167.73 21.40 172.61 18.81 176.40 17.95
  Q 185.23 15.93 193.26 19.57
  Q 196.60 21.09 201.96 26.45
  Q 319.16 143.71 340.36 164.84
  C 348.56 173.03 349.49 185.51 343.76 195.50
  Q 341.94 198.67 333.11 207.17
  Q 332.70 207.57 253.42 286.85
  A 0.24 0.24 0.0 0 1 253.01 286.68
  Z"
/>
<path fill="#0168fa" d="
  M 111.54 77.92
  L 111.54 246.46
  A 0.55 0.55 0.0 0 0 112.09 247.01
  L 147.21 247.01
  A 0.51 0.50 -90.0 0 0 147.71 246.50
  L 147.71 202.42
  A 0.41 0.41 0.0 0 1 148.12 202.01
  L 216.77 202.01
  A 0.52 0.52 0.0 0 1 217.29 202.53
  L 217.29 322.20
  A 1.98 1.97 67.8 0 1 216.70 323.61
  Q 209.95 330.18 201.44 338.93
  Q 192.03 348.62 178.73 346.92
  Q 173.01 346.19 168.24 342.99
  Q 166.54 341.84 159.97 335.27
  Q 49.18 224.43 25.02 200.32
  C 17.21 192.53 15.29 181.21 19.77 171.41
  Q 21.72 167.14 30.18 158.77
  Q 50.44 138.71 111.25 77.80
  A 0.17 0.17 0.0 0 1 111.54 77.92
  Z"
/>
</svg>