<?xml version="1.0" encoding="UTF-8" standalone="no"?>
<!DOCTYPE svg PUBLIC "-//W3C//DTD SVG 1.1//EN" "http://www.w3.org/Graphics/SVG/1.1/DTD/svg11.dtd">
<svg xmlns="http://www.w3.org/2000/svg" version="1.1" viewBox="0.00 0.00 128.00 128.00" width="128" height="128">
<path fill="#2fc774" d="
  M 128.00 8.03
  L 128.00 28.73
  L 64.21 84.11
  A 0.37 0.37 0.0 0 1 63.73 84.11
  L 34.54 58.82
  A 0.51 0.51 0.0 0 1 34.54 58.05
  L 49.51 45.06
  A 0.43 0.43 0.0 0 1 50.09 45.06
  L 63.73 56.87
  A 0.42 0.41 44.4 0 0 64.28 56.87
  L 96.19 29.16
  A 0.16 0.16 0.0 0 0 96.08 28.88
  Q 66.49 28.71 46.30 29.06
  C 41.87 29.13 36.32 29.65 32.14 29.81
  C 27.25 29.99 22.85 31.89 22.04 36.51
  Q 21.27 40.84 21.03 49.51
  Q 20.59 65.81 21.11 80.49
  Q 21.41 88.92 22.11 91.69
  Q 23.18 95.93 28.31 97.74
  A 3.11 2.86 -30.8 0 0 29.08 97.90
  Q 63.94 100.37 98.96 97.90
  A 3.14 2.88 30.4 0 0 99.84 97.71
  Q 105.26 95.66 105.98 91.23
  Q 107.13 84.14 107.10 68.43
  A 1.36 1.33 69.9 0 1 107.56 67.41
  L 128.00 49.66
  L 128.00 76.21
  Q 127.64 81.64 127.31 87.08
  Q 126.86 94.64 125.85 97.81
  C 122.91 107.07 115.74 114.52 106.23 117.47
  Q 102.88 118.51 100.50 118.68
  Q 69.89 120.94 36.32 119.32
  Q 24.03 118.72 19.00 116.52
  C 10.87 112.95 3.88 105.54 1.81 96.49
  Q 1.07 93.29 1.02 92.50
  Q 0.51 84.41 0.00 76.30
  L 0.00 51.87
  Q 0.59 43.81 1.00 35.75
  Q 1.12 33.29 2.70 28.71
  C 5.96 19.27 14.16 12.37 23.60 9.97
  Q 26.93 9.13 40.50 8.53
  Q 49.51 8.13 57.50 8.10
  Q 92.75 7.95 128.00 8.03
  Z"
/>
</svg>