<?xml version="1.0" encoding="UTF-8" standalone="no"?>
<!DOCTYPE svg PUBLIC "-//W3C//DTD SVG 1.1//EN" "http://www.w3.org/Graphics/SVG/1.1/DTD/svg11.dtd">
<svg xmlns="http://www.w3.org/2000/svg" version="1.1" viewBox="0.00 0.00 192.00 192.00" width="128" height="128">
<g stroke-width="2.00" fill="none" stroke-linecap="butt">
<path stroke="#849399" vector-effect="non-scaling-stroke" d="
  M 85.34 76.33
  A 0.20 0.20 0.0 0 1 85.00 76.50
  L 56.81 48.31
  A 0.45 0.45 0.0 0 0 56.18 48.31
  L 41.27 63.23
  A 0.47 0.47 0.0 0 0 41.27 63.90
  L 97.91 120.54
  A 1.55 1.53 -22.3 0 0 99.00 120.99
  L 128.41 120.99
  A 0.32 0.31 67.2 0 0 128.63 120.45
  Q 118.26 110.25 108.09 99.90
  C 101.52 93.21 93.66 82.80 106.05 76.22
  A 2.44 2.36 -58.1 0 1 107.17 75.94
  C 113.65 75.87 119.86 82.18 125.10 87.31
  Q 133.53 95.56 144.43 106.60
  A 0.41 0.41 0.0 0 0 145.01 106.60
  L 159.64 91.97
  A 0.49 0.49 0.0 0 0 159.64 91.27
  Q 136.98 68.53 129.68 61.32
  Q 124.37 56.07 120.62 54.25
  Q 106.53 47.44 94.31 57.37
  C 89.40 61.37 84.31 69.36 85.34 76.33"
/>
<path stroke="#a4ede8" vector-effect="non-scaling-stroke" d="
  M 97.30 121.55
  A 0.32 0.32 0.0 0 0 97.07 121.00
  L 32.77 121.00
  A 0.32 0.32 0.0 0 0 32.54 121.55
  L 64.69 153.71
  A 0.32 0.32 0.0 0 0 65.15 153.71
  L 97.30 121.55"
/>
</g>
<path fill="#ffffff" d="
  M 192.00 0.00
  L 192.00 192.00
  L 0.00 192.00
  L 0.00 0.00
  L 192.00 0.00
  Z
  M 85.34 76.33
  A 0.20 0.20 0.0 0 1 85.00 76.50
  L 56.81 48.31
  A 0.45 0.45 0.0 0 0 56.18 48.31
  L 41.27 63.23
  A 0.47 0.47 0.0 0 0 41.27 63.90
  L 97.91 120.54
  A 1.55 1.53 -22.3 0 0 99.00 120.99
  L 128.41 120.99
  A 0.32 0.31 67.2 0 0 128.63 120.45
  Q 118.26 110.25 108.09 99.90
  C 101.52 93.21 93.66 82.80 106.05 76.22
  A 2.44 2.36 -58.1 0 1 107.17 75.94
  C 113.65 75.87 119.86 82.18 125.10 87.31
  Q 133.53 95.56 144.43 106.60
  A 0.41 0.41 0.0 0 0 145.01 106.60
  L 159.64 91.97
  A 0.49 0.49 0.0 0 0 159.64 91.27
  Q 136.98 68.53 129.68 61.32
  Q 124.37 56.07 120.62 54.25
  Q 106.53 47.44 94.31 57.37
  C 89.40 61.37 84.31 69.36 85.34 76.33
  Z
  M 97.30 121.55
  A 0.32 0.32 0.0 0 0 97.07 121.00
  L 32.77 121.00
  A 0.32 0.32 0.0 0 0 32.54 121.55
  L 64.69 153.71
  A 0.32 0.32 0.0 0 0 65.15 153.71
  L 97.30 121.55
  Z"
/>
<path fill="#092732" d="
  M 85.34 76.33
  C 84.31 69.36 89.40 61.37 94.31 57.37
  Q 106.53 47.44 120.62 54.25
  Q 124.37 56.07 129.68 61.32
  Q 136.98 68.53 159.64 91.27
  A 0.49 0.49 0.0 0 1 159.64 91.97
  L 145.01 106.60
  A 0.41 0.41 0.0 0 1 144.43 106.60
  Q 133.53 95.56 125.10 87.31
  C 119.86 82.18 113.65 75.87 107.17 75.94
  A 2.44 2.36 -58.1 0 0 106.05 76.22
  C 93.66 82.80 101.52 93.21 108.09 99.90
  Q 118.26 110.25 128.63 120.45
  A 0.32 0.31 67.2 0 1 128.41 120.99
  L 99.00 120.99
  A 1.55 1.53 -22.3 0 1 97.91 120.54
  L 41.27 63.90
  A 0.47 0.47 0.0 0 1 41.27 63.23
  L 56.18 48.31
  A 0.45 0.45 0.0 0 1 56.81 48.31
  L 85.00 76.50
  A 0.20 0.20 0.0 0 0 85.34 76.33
  Z"
/>
<path fill="#48dad0" d="
  M 97.30 121.55
  L 65.15 153.71
  A 0.32 0.32 0.0 0 1 64.69 153.71
  L 32.54 121.55
  A 0.32 0.32 0.0 0 1 32.77 121.00
  L 97.07 121.00
  A 0.32 0.32 0.0 0 1 97.30 121.55
  Z"
/>
</svg>