<?xml version="1.0" encoding="UTF-8" standalone="no"?>
<!DOCTYPE svg PUBLIC "-//W3C//DTD SVG 1.1//EN" "http://www.w3.org/Graphics/SVG/1.1/DTD/svg11.dtd">
<svg xmlns="http://www.w3.org/2000/svg" version="1.1" viewBox="0.00 0.00 256.00 256.00" width="128" height="128">
<g stroke-width="2.00" fill="none" stroke-linecap="butt">
<path stroke="#ff99b2" vector-effect="non-scaling-stroke" d="
  M 74.68 150.15
  Q 86.55 162.85 104.26 162.97
  Q 119.85 163.07 131.78 162.94
  C 139.63 162.86 144.07 166.53 144.03 174.54
  C 144.00 179.97 143.64 184.96 144.74 189.05
  C 151.31 213.38 183.54 214.23 192.63 191.48
  Q 194.08 187.86 194.06 174.38
  Q 193.96 81.50 194.04 77.44
  Q 194.19 69.17 192.81 65.27
  C 183.16 38.14 144.32 44.86 144.01 73.21
  Q 143.88 85.60 144.05 103.03
  A 4.89 4.89 0.0 0 0 148.97 107.95
  L 149.00 107.95
  A 4.99 4.99 0.0 0 0 153.96 102.93
  Q 154.05 88.81 153.98 76.89
  C 153.95 69.83 154.71 65.05 159.86 61.15
  C 167.00 55.73 176.60 57.54 181.62 64.87
  C 184.04 68.40 184.02 72.47 184.02 77.25
  Q 184.00 126.25 184.01 130.73
  A 0.34 0.33 23.8 0 1 183.43 130.95
  Q 171.41 118.09 153.50 118.02
  C 146.80 118.00 137.23 117.77 126.45 118.08
  Q 113.78 118.45 113.90 105.17
  Q 114.01 93.40 114.09 80.38
  Q 114.16 69.09 112.64 64.74
  C 104.91 42.64 73.51 42.57 65.44 64.41
  Q 63.93 68.50 63.95 80.82
  Q 64.08 167.17 63.96 174.64
  Q 63.77 186.31 65.03 190.26
  C 71.96 211.97 101.65 214.38 111.56 193.72
  C 113.87 188.88 114.01 184.69 114.03 179.46
  Q 114.05 176.40 112.97 175.02
  C 110.74 172.13 106.67 172.52 104.78 175.28
  C 103.37 177.35 104.21 182.38 103.85 184.86
  C 102.21 195.99 89.95 201.84 80.43 195.28
  Q 73.98 190.83 73.99 182.02
  Q 74.02 152.28 74.03 150.40
  A 0.38 0.37 23.9 0 1 74.68 150.15"
/>
<path stroke="#ff99b2" vector-effect="non-scaling-stroke" d="
  M 154.02 183.45
  C 154.46 199.42 176.53 203.54 182.86 188.85
  Q 184.11 185.96 184.06 177.45
  Q 184.02 167.97 183.96 158.50
  C 183.86 140.21 170.25 127.80 152.00 127.95
  Q 132.41 128.11 124.00 127.96
  C 115.35 127.80 107.80 122.35 105.04 114.36
  Q 103.87 110.95 103.97 103.02
  Q 103.99 101.65 104.03 74.03
  Q 104.04 65.94 98.24 61.26
  C 90.73 55.20 79.32 58.02 75.46 66.60
  Q 73.93 69.99 73.96 76.75
  Q 74.07 112.91 73.98 120.75
  Q 73.80 138.12 86.07 147.05
  C 91.14 150.74 97.05 152.91 103.26 152.96
  Q 116.97 153.05 129.71 152.94
  Q 137.70 152.88 141.11 154.25
  Q 149.73 157.73 153.03 166.79
  C 154.68 171.34 153.91 179.29 154.02 183.45"
/>
</g>
<path fill="#fe3265" d="
  M 190.42 0.00
  C 198.41 0.70 205.96 0.70 214.20 2.30
  C 223.63 4.14 231.37 8.03 238.14 14.11
  C 247.85 22.83 253.04 34.10 254.62 46.99
  Q 255.53 54.39 256.00 64.66
  L 256.00 191.22
  Q 255.62 194.84 255.50 198.50
  C 254.91 215.55 251.28 229.76 237.85 242.10
  C 224.30 254.55 208.61 254.74 190.87 256.00
  L 64.87 256.00
  Q 54.11 255.45 48.49 254.78
  Q 40.20 253.79 34.52 251.78
  Q 16.66 245.44 6.92 227.81
  C 0.80 216.75 0.74 202.64 0.00 190.31
  L 0.00 65.37
  Q 0.51 51.36 1.81 43.99
  Q 5.61 22.31 22.82 10.17
  C 35.29 1.38 50.05 0.75 64.67 0.00
  L 190.42 0.00
  Z
  M 74.68 150.15
  Q 86.55 162.85 104.26 162.97
  Q 119.85 163.07 131.78 162.94
  C 139.63 162.86 144.07 166.53 144.03 174.54
  C 144.00 179.97 143.64 184.96 144.74 189.05
  C 151.31 213.38 183.54 214.23 192.63 191.48
  Q 194.08 187.86 194.06 174.38
  Q 193.96 81.50 194.04 77.44
  Q 194.19 69.17 192.81 65.27
  C 183.16 38.14 144.32 44.86 144.01 73.21
  Q 143.88 85.60 144.05 103.03
  A 4.89 4.89 0.0 0 0 148.97 107.95
  L 149.00 107.95
  A 4.99 4.99 0.0 0 0 153.96 102.93
  Q 154.05 88.81 153.98 76.89
  C 153.95 69.83 154.71 65.05 159.86 61.15
  C 167.00 55.73 176.60 57.54 181.62 64.87
  C 184.04 68.40 184.02 72.47 184.02 77.25
  Q 184.00 126.25 184.01 130.73
  A 0.34 0.33 23.8 0 1 183.43 130.95
  Q 171.41 118.09 153.50 118.02
  C 146.80 118.00 137.23 117.77 126.45 118.08
  Q 113.78 118.45 113.90 105.17
  Q 114.01 93.40 114.09 80.38
  Q 114.16 69.09 112.64 64.74
  C 104.91 42.64 73.51 42.57 65.44 64.41
  Q 63.93 68.50 63.95 80.82
  Q 64.08 167.17 63.96 174.64
  Q 63.77 186.31 65.03 190.26
  C 71.96 211.97 101.65 214.38 111.56 193.72
  C 113.87 188.88 114.01 184.69 114.03 179.46
  Q 114.05 176.40 112.97 175.02
  C 110.74 172.13 106.67 172.52 104.78 175.28
  C 103.37 177.35 104.21 182.38 103.85 184.86
  C 102.21 195.99 89.95 201.84 80.43 195.28
  Q 73.98 190.83 73.99 182.02
  Q 74.02 152.28 74.03 150.40
  A 0.38 0.37 23.9 0 1 74.68 150.15
  Z"
/>
<path fill="#ffffff" d="
  M 74.68 150.15
  A 0.38 0.37 23.9 0 0 74.03 150.40
  Q 74.02 152.28 73.99 182.02
  Q 73.98 190.83 80.43 195.28
  C 89.95 201.84 102.21 195.99 103.85 184.86
  C 104.21 182.38 103.37 177.35 104.78 175.28
  C 106.67 172.52 110.74 172.13 112.97 175.02
  Q 114.05 176.40 114.03 179.46
  C 114.01 184.69 113.87 188.88 111.56 193.72
  C 101.65 214.38 71.96 211.97 65.03 190.26
  Q 63.77 186.31 63.96 174.64
  Q 64.08 167.17 63.95 80.82
  Q 63.93 68.50 65.44 64.41
  C 73.51 42.57 104.91 42.64 112.64 64.74
  Q 114.16 69.09 114.09 80.38
  Q 114.01 93.40 113.90 105.17
  Q 113.78 118.45 126.45 118.08
  C 137.23 117.77 146.80 118.00 153.50 118.02
  Q 171.41 118.09 183.43 130.95
  A 0.34 0.33 23.8 0 0 184.01 130.73
  Q 184.00 126.25 184.02 77.25
  C 184.02 72.47 184.04 68.40 181.62 64.87
  C 176.60 57.54 167.00 55.73 159.86 61.15
  C 154.71 65.05 153.95 69.83 153.98 76.89
  Q 154.05 88.81 153.96 102.93
  A 4.99 4.99 0.0 0 1 149.00 107.95
  L 148.97 107.95
  A 4.89 4.89 0.0 0 1 144.05 103.03
  Q 143.88 85.60 144.01 73.21
  C 144.32 44.86 183.16 38.14 192.81 65.27
  Q 194.19 69.17 194.04 77.44
  Q 193.96 81.50 194.06 174.38
  Q 194.08 187.86 192.63 191.48
  C 183.54 214.23 151.31 213.38 144.74 189.05
  C 143.64 184.96 144.00 179.97 144.03 174.54
  C 144.07 166.53 139.63 162.86 131.78 162.94
  Q 119.85 163.07 104.26 162.97
  Q 86.55 162.85 74.68 150.15
  Z
  M 154.02 183.45
  C 154.46 199.42 176.53 203.54 182.86 188.85
  Q 184.11 185.96 184.06 177.45
  Q 184.02 167.97 183.96 158.50
  C 183.86 140.21 170.25 127.80 152.00 127.95
  Q 132.41 128.11 124.00 127.96
  C 115.35 127.80 107.80 122.35 105.04 114.36
  Q 103.87 110.95 103.97 103.02
  Q 103.99 101.65 104.03 74.03
  Q 104.04 65.94 98.24 61.26
  C 90.73 55.20 79.32 58.02 75.46 66.60
  Q 73.93 69.99 73.96 76.75
  Q 74.07 112.91 73.98 120.75
  Q 73.80 138.12 86.07 147.05
  C 91.14 150.74 97.05 152.91 103.26 152.96
  Q 116.97 153.05 129.71 152.94
  Q 137.70 152.88 141.11 154.25
  Q 149.73 157.73 153.03 166.79
  C 154.68 171.34 153.91 179.29 154.02 183.45
  Z"
/>
<path fill="#fe3265" d="
  M 182.86 188.85
  C 176.53 203.54 154.46 199.42 154.02 183.45
  C 153.91 179.29 154.68 171.34 153.03 166.79
  Q 149.73 157.73 141.11 154.25
  Q 137.70 152.88 129.71 152.94
  Q 116.97 153.05 103.26 152.96
  C 97.05 152.91 91.14 150.74 86.07 147.05
  Q 73.80 138.12 73.98 120.75
  Q 74.07 112.91 73.96 76.75
  Q 73.93 69.99 75.46 66.60
  C 79.32 58.02 90.73 55.20 98.24 61.26
  Q 104.04 65.94 104.03 74.03
  Q 103.99 101.65 103.97 103.02
  Q 103.87 110.95 105.04 114.36
  C 107.80 122.35 115.35 127.80 124.00 127.96
  Q 132.41 128.11 152.00 127.95
  C 170.25 127.80 183.86 140.21 183.96 158.50
  Q 184.02 167.97 184.06 177.45
  Q 184.11 185.96 182.86 188.85
  Z"
/>
</svg>