<?xml version="1.0" encoding="UTF-8" standalone="no"?>
<!DOCTYPE svg PUBLIC "-//W3C//DTD SVG 1.1//EN" "http://www.w3.org/Graphics/SVG/1.1/DTD/svg11.dtd">
<svg xmlns="http://www.w3.org/2000/svg" version="1.1" viewBox="0.00 0.00 200.00 200.00" width="128" height="128">
<path stroke="#808080" stroke-width="2.00" fill="none" stroke-linecap="butt" vector-effect="non-scaling-stroke" d="
  M 99.77 109.45
  Q 137.65 109.46 138.39 109.47
  A 0.36 0.36 0.0 0 1 138.74 109.83
  L 138.74 174.29
  A 0.38 0.37 -90.0 0 0 139.11 174.67
  L 164.33 174.67
  A 0.32 0.32 0.0 0 0 164.65 174.35
  L 164.65 25.61
  A 0.28 0.27 -90.0 0 0 164.38 25.33
  L 139.38 25.33
  A 0.64 0.64 0.0 0 0 138.74 25.97
  L 138.74 84.56
  A 0.49 0.49 0.0 0 1 138.26 85.05
  Q 133.06 85.08 99.77 85.07
  Q 66.49 85.07 61.29 85.04
  A 0.49 0.49 0.0 0 1 60.81 84.55
  L 60.82 25.96
  A 0.64 0.64 0.0 0 0 60.18 25.32
  L 35.18 25.32
  A 0.28 0.27 -90.0 0 0 34.91 25.60
  L 34.89 174.34
  A 0.32 0.32 0.0 0 0 35.21 174.66
  L 60.43 174.66
  A 0.38 0.37 -90.0 0 0 60.80 174.28
  L 60.81 109.82
  A 0.36 0.36 0.0 0 1 61.16 109.47
  Q 61.89 109.45 99.77 109.45"
/>
<path fill="#000000" d="
  M 200.00 0.00
  L 200.00 200.00
  L 0.00 200.00
  L 0.00 0.00
  L 200.00 0.00
  Z
  M 99.77 109.45
  Q 137.65 109.46 138.39 109.47
  A 0.36 0.36 0.0 0 1 138.74 109.83
  L 138.74 174.29
  A 0.38 0.37 -90.0 0 0 139.11 174.67
  L 164.33 174.67
  A 0.32 0.32 0.0 0 0 164.65 174.35
  L 164.65 25.61
  A 0.28 0.27 -90.0 0 0 164.38 25.33
  L 139.38 25.33
  A 0.64 0.64 0.0 0 0 138.74 25.97
  L 138.74 84.56
  A 0.49 0.49 0.0 0 1 138.26 85.05
  Q 133.06 85.08 99.77 85.07
  Q 66.49 85.07 61.29 85.04
  A 0.49 0.49 0.0 0 1 60.81 84.55
  L 60.82 25.96
  A 0.64 0.64 0.0 0 0 60.18 25.32
  L 35.18 25.32
  A 0.28 0.27 -90.0 0 0 34.91 25.60
  L 34.89 174.34
  A 0.32 0.32 0.0 0 0 35.21 174.66
  L 60.43 174.66
  A 0.38 0.37 -90.0 0 0 60.80 174.28
  L 60.81 109.82
  A 0.36 0.36 0.0 0 1 61.16 109.47
  Q 61.89 109.45 99.77 109.45
  Z"
/>
<path fill="#ffffff" d="
  M 99.77 85.07
  Q 133.06 85.08 138.26 85.05
  A 0.49 0.49 0.0 0 0 138.74 84.56
  L 138.74 25.97
  A 0.64 0.64 0.0 0 1 139.38 25.33
  L 164.38 25.33
  A 0.28 0.27 90.0 0 1 164.65 25.61
  L 164.65 174.35
  A 0.32 0.32 0.0 0 1 164.33 174.67
  L 139.11 174.67
  A 0.38 0.37 90.0 0 1 138.74 174.29
  L 138.74 109.83
  A 0.36 0.36 0.0 0 0 138.39 109.47
  Q 137.65 109.46 99.77 109.45
  Q 61.89 109.45 61.16 109.47
  A 0.36 0.36 0.0 0 0 60.81 109.82
  L 60.80 174.28
  A 0.38 0.37 -90.0 0 1 60.43 174.66
  L 35.21 174.66
  A 0.32 0.32 0.0 0 1 34.89 174.34
  L 34.91 25.60
  A 0.28 0.27 -90.0 0 1 35.18 25.32
  L 60.18 25.32
  A 0.64 0.64 0.0 0 1 60.82 25.96
  L 60.81 84.55
  A 0.49 0.49 0.0 0 0 61.29 85.04
  Q 66.49 85.07 99.77 85.07
  Z"
/>
</svg>