<?xml version="1.0" encoding="UTF-8" standalone="no"?>
<!DOCTYPE svg PUBLIC "-//W3C//DTD SVG 1.1//EN" "http://www.w3.org/Graphics/SVG/1.1/DTD/svg11.dtd">
<svg xmlns="http://www.w3.org/2000/svg" version="1.1" viewBox="0.00 0.00 256.00 256.00" width="128" height="128">
<path fill="#6d45ce" d="
  M 216.59 119.22
  Q 212.21 121.01 206.49 120.89
  C 188.32 120.50 163.18 121.14 145.01 121.20
  Q 89.94 121.38 34.21 120.30
  Q 28.96 120.19 27.82 119.84
  Q 26.09 119.31 21.63 118.89
  A 2.42 2.42 0.0 0 1 19.44 116.58
  C 18.37 90.52 18.87 60.62 18.84 8.75
  Q 18.84 8.58 18.62 2.54
  A 1.46 1.46 0.0 0 1 20.25 1.04
  C 23.27 1.40 25.62 3.31 29.00 5.68
  Q 30.61 6.82 33.75 8.49
  Q 65.94 25.59 71.69 28.58
  Q 75.20 30.41 77.95 32.40
  A 3.17 3.15 17.8 0 1 79.26 34.94
  Q 79.41 62.55 79.34 84.27
  Q 79.33 86.73 81.49 86.74
  Q 109.51 86.90 156.39 86.87
  C 160.32 86.87 164.60 89.38 168.49 91.55
  Q 187.65 102.25 216.67 117.64
  A 0.87 0.87 0.0 0 1 216.59 119.22
  Z"
/>
<path fill="#6d45ce" d="
  M 237.89 110.63
  A 1.05 1.04 -75.1 0 1 236.74 111.30
  Q 234.41 110.94 232.14 109.59
  Q 206.57 94.41 178.40 78.36
  A 4.12 4.07 -81.6 0 1 176.42 75.66
  Q 175.81 72.87 175.82 68.75
  Q 175.92 35.63 175.88 9.50
  Q 175.87 6.84 175.57 3.13
  A 2.10 2.09 86.6 0 1 177.58 0.86
  Q 179.37 0.80 181.10 1.96
  C 184.02 3.90 186.55 5.87 189.77 7.49
  Q 216.33 20.82 231.34 28.43
  C 234.96 30.27 238.19 31.57 238.17 35.51
  Q 238.05 51.48 238.24 108.53
  Q 238.24 109.66 237.89 110.63
  Z"
/>
<path fill="#6d45ce" d="
  M 237.60 255.17
  Q 236.17 255.56 235.05 255.12
  C 230.83 253.46 226.95 250.52 222.67 248.24
  Q 202.93 237.75 180.79 225.97
  Q 178.29 224.64 176.75 223.65
  A 1.90 1.88 17.1 0 1 175.89 222.05
  Q 175.96 194.93 175.50 172.97
  Q 175.44 170.01 172.77 169.99
  Q 148.83 169.84 99.26 169.79
  Q 94.77 169.79 89.10 166.65
  Q 62.00 151.67 52.45 146.67
  Q 50.81 145.82 45.61 142.79
  C 43.25 141.42 37.87 139.53 36.35 137.34
  A 0.61 0.61 0.0 0 1 36.78 136.39
  C 41.12 135.87 45.87 135.56 50.14 135.57
  Q 146.82 135.82 179.50 136.28
  Q 197.64 136.53 204.53 136.42
  C 216.11 136.23 225.25 136.72 235.29 138.82
  A 1.64 1.62 -87.3 0 1 236.57 140.24
  C 237.38 147.46 238.18 154.76 238.17 162.28
  Q 238.10 212.56 238.19 254.41
  A 0.80 0.78 -7.7 0 1 237.60 255.17
  Z"
/>
<path fill="#6d45ce" d="
  M 19.52 146.80
  Q 22.08 146.67 24.70 148.26
  Q 42.62 159.14 72.25 176.01
  C 75.48 177.85 79.32 179.39 79.32 185.03
  Q 79.30 249.32 79.33 252.51
  A 1.24 1.24 0.0 0 1 77.86 253.75
  Q 76.26 253.45 74.98 252.76
  Q 52.73 240.83 21.26 224.77
  C 19.52 223.88 18.78 222.82 18.80 220.74
  Q 19.02 184.50 18.78 147.59
  A 0.78 0.78 0.0 0 1 19.52 146.80
  Z"
/>
</svg>