<?xml version="1.0" encoding="UTF-8" standalone="no"?>
<!DOCTYPE svg PUBLIC "-//W3C//DTD SVG 1.1//EN" "http://www.w3.org/Graphics/SVG/1.1/DTD/svg11.dtd">
<svg xmlns="http://www.w3.org/2000/svg" version="1.1" viewBox="-45.00 0.00 370.00 370.00" width="128" height="128">
<path fill="#000000" d="
  M 171.77 218.82
  A 0.26 0.25 -12.1 0 0 171.41 218.59
  L 110.69 245.55
  A 0.58 0.56 78.0 0 0 110.36 246.07
  Q 110.33 303.80 110.43 339.62
  C 110.44 343.14 106.08 345.54 102.53 347.27
  Q 89.27 353.72 75.64 360.17
  Q 75.14 360.41 65.01 365.78
  Q 57.22 369.92 49.81 365.19
  Q 29.17 352.01 6.31 338.69
  C 3.16 336.85 2.58 332.71 2.58 328.70
  Q 2.58 82.71 2.56 82.50
  Q 2.40 81.13 2.47 74.51
  C 2.51 70.77 4.16 69.19 7.56 67.37
  Q 27.71 56.64 50.57 47.09
  C 54.29 45.53 59.55 47.53 62.69 49.57
  Q 85.02 64.03 107.24 76.24
  Q 110.28 77.92 110.30 82.27
  Q 110.42 119.49 110.33 164.32
  A 0.37 0.36 78.8 0 0 110.83 164.66
  Q 140.09 152.52 171.54 137.55
  A 0.48 0.47 -12.8 0 0 171.82 137.12
  C 171.92 103.42 172.13 70.63 171.62 38.51
  C 171.52 32.26 170.65 29.40 176.47 26.49
  Q 214.84 7.31 220.84 4.32
  Q 222.69 3.39 224.91 2.89
  A 2.41 2.40 51.5 0 1 226.47 3.07
  Q 232.78 6.12 235.91 8.17
  Q 254.15 20.12 264.03 26.38
  Q 268.15 28.99 270.45 30.28
  C 274.02 32.27 276.96 33.89 278.94 36.73
  A 1.88 1.86 27.3 0 1 279.28 37.77
  Q 279.31 39.63 279.28 55.00
  Q 279.10 158.94 279.29 296.50
  Q 279.30 300.17 278.86 301.60
  A 1.55 1.51 83.1 0 1 278.21 302.45
  Q 275.20 304.31 271.18 306.40
  Q 255.47 314.58 229.89 325.93
  Q 228.55 326.52 225.24 326.01
  C 221.98 325.51 218.21 323.33 215.21 321.27
  Q 197.39 309.05 176.05 297.23
  C 171.21 294.55 171.78 287.90 171.79 282.25
  Q 171.86 232.58 171.77 218.82
  Z
  M 215.52 50.74
  Q 217.43 51.87 224.91 56.43
  A 1.90 1.90 0.0 0 0 226.65 56.55
  Q 245.78 48.23 263.34 38.45
  A 0.30 0.29 -43.3 0 0 263.36 37.95
  Q 247.84 27.74 235.07 20.15
  Q 233.16 19.02 225.68 14.45
  A 1.90 1.90 0.0 0 0 223.94 14.33
  Q 204.81 22.65 187.25 32.43
  A 0.30 0.29 -43.3 0 0 187.23 32.94
  Q 202.75 43.14 215.52 50.74
  Z
  M 182.04 42.76
  L 182.04 139.38
  A 1.60 1.58 -67.0 0 0 182.48 140.48
  Q 200.42 159.52 216.71 177.04
  Q 218.09 178.53 219.95 179.80
  A 0.24 0.23 17.6 0 0 220.32 179.61
  L 220.32 67.03
  A 2.03 2.01 -72.6 0 0 219.47 65.38
  Q 201.76 52.84 182.60 42.44
  A 0.38 0.37 14.5 0 0 182.04 42.76
  Z
  M 230.59 313.93
  Q 231.02 313.95 231.32 313.83
  Q 249.09 306.66 269.05 296.11
  A 0.45 0.45 0.0 0 0 269.28 295.72
  Q 269.28 77.67 269.28 57.09
  C 269.28 53.65 269.67 50.89 269.64 47.72
  A 0.68 0.67 -13.2 0 0 268.66 47.12
  L 230.60 65.80
  A 0.42 0.40 77.5 0 0 230.38 66.17
  L 230.38 313.71
  A 0.22 0.22 0.0 0 0 230.59 313.93
  Z
  M 47.82 91.53
  Q 55.50 96.28 58.16 97.27
  A 2.57 2.55 42.3 0 0 60.16 97.18
  L 93.70 81.21
  A 0.47 0.47 0.0 0 0 93.74 80.39
  Q 77.02 70.40 64.71 62.78
  Q 57.02 58.03 54.37 57.04
  A 2.57 2.55 42.3 0 0 52.36 57.13
  L 18.82 73.10
  A 0.47 0.47 0.0 0 0 18.78 73.92
  Q 35.51 83.91 47.82 91.53
  Z
  M 12.27 217.93
  Q 12.26 313.98 12.24 329.61
  A 1.24 1.24 0.0 0 0 12.80 330.65
  Q 31.61 342.98 51.22 353.88
  A 0.35 0.35 0.0 0 0 51.74 353.58
  Q 51.73 349.38 51.74 217.75
  Q 51.74 121.70 51.76 106.07
  A 1.24 1.24 0.0 0 0 51.20 105.03
  Q 32.39 92.70 12.78 81.80
  A 0.35 0.35 0.0 0 0 12.27 82.11
  Q 12.27 86.30 12.27 217.93
  Z
  M 100.02 89.80
  C 87.25 94.58 73.64 101.85 62.58 106.82
  A 0.61 0.60 -12.1 0 0 62.22 107.37
  L 61.42 355.44
  A 0.22 0.21 -13.1 0 0 61.73 355.63
  L 99.68 337.57
  A 0.92 0.92 0.0 0 0 100.20 336.74
  Q 100.15 260.15 100.20 243.75
  Q 100.21 239.88 103.05 238.02
  Q 105.61 236.34 116.24 231.76
  C 147.29 218.40 178.41 204.47 213.56 188.72
  A 0.37 0.36 55.4 0 0 213.66 188.13
  Q 194.46 168.94 175.38 147.46
  A 0.62 0.61 -32.7 0 0 174.66 147.31
  Q 119.10 172.03 110.04 176.02
  C 105.43 178.04 100.40 177.52 100.07 171.42
  C 99.56 162.02 100.26 151.82 100.21 142.21
  Q 100.05 111.76 100.40 90.07
  A 0.28 0.28 0.0 0 0 100.02 89.80
  Z
  M 182.06 288.38
  A 0.59 0.59 0.0 0 0 182.34 288.88
  L 219.43 311.36
  A 0.59 0.59 0.0 0 0 220.33 310.85
  L 220.33 196.85
  A 0.59 0.59 0.0 0 0 219.49 196.32
  L 182.40 213.97
  A 0.59 0.59 0.0 0 0 182.06 214.50
  L 182.06 288.38
  Z"
/>
</svg>