<?xml version="1.0" encoding="UTF-8" standalone="no"?>
<!DOCTYPE svg PUBLIC "-//W3C//DTD SVG 1.1//EN" "http://www.w3.org/Graphics/SVG/1.1/DTD/svg11.dtd">
<svg xmlns="http://www.w3.org/2000/svg" version="1.1" viewBox="0.00 0.00 1080.00 1080.00" width="128" height="128">
<path stroke="#a592d5" stroke-width="2.00" fill="none" stroke-linecap="butt" vector-effect="non-scaling-stroke" d="
  M 539.79 639.33
  C 572.20 639.33 595.67 619.90 612.95 594.43
  C 632.80 565.16 645.63 532.13 665.30 502.80
  C 677.54 484.55 693.72 469.59 717.22 471.46
  C 734.36 472.83 747.60 484.30 757.49 497.62
  Q 767.96 511.72 776.43 527.55
  Q 794.65 561.60 798.93 569.28
  C 817.67 602.92 843.12 635.84 885.75 636.22
  A 0.61 0.61 0.0 0 0 886.36 635.61
  L 886.36 605.82
  A 0.35 0.35 0.0 0 0 886.01 605.47
  C 857.21 605.45 839.49 578.12 826.68 555.78
  C 815.04 535.49 798.96 500.67 780.58 477.16
  C 772.72 467.10 763.97 458.55 753.56 452.00
  C 732.35 438.68 704.10 436.62 681.39 447.38
  C 662.05 456.54 647.58 473.04 636.11 491.12
  C 619.07 517.99 606.92 547.57 589.26 574.50
  C 577.76 592.04 562.45 608.60 539.79 608.60
  C 517.12 608.60 501.82 592.05 490.31 574.50
  C 472.65 547.57 460.50 517.99 443.46 491.12
  C 431.99 473.04 417.52 456.55 398.18 447.39
  C 375.47 436.63 347.22 438.69 326.01 452.01
  C 315.60 458.56 306.85 467.11 298.99 477.17
  C 280.61 500.68 264.53 535.50 252.89 555.79
  C 240.08 578.13 222.36 605.46 193.56 605.48
  A 0.35 0.35 0.0 0 0 193.21 605.83
  L 193.21 635.62
  A 0.61 0.61 0.0 0 0 193.82 636.23
  C 236.45 635.85 261.90 602.93 280.64 569.29
  Q 284.92 561.61 303.14 527.56
  Q 311.61 511.73 322.08 497.63
  C 331.97 484.31 345.21 472.84 362.35 471.47
  C 385.85 469.60 402.03 484.56 414.27 502.81
  C 433.94 532.13 446.77 565.16 466.63 594.43
  C 483.91 619.90 507.37 639.33 539.79 639.33"
/>
<path fill="#4a25aa" d="
  M 1080.00 0.00
  L 1080.00 1080.00
  L 0.00 1080.00
  L 0.00 0.00
  L 1080.00 0.00
  Z
  M 539.79 639.33
  C 572.20 639.33 595.67 619.90 612.95 594.43
  C 632.80 565.16 645.63 532.13 665.30 502.80
  C 677.54 484.55 693.72 469.59 717.22 471.46
  C 734.36 472.83 747.60 484.30 757.49 497.62
  Q 767.96 511.72 776.43 527.55
  Q 794.65 561.60 798.93 569.28
  C 817.67 602.92 843.12 635.84 885.75 636.22
  A 0.61 0.61 0.0 0 0 886.36 635.61
  L 886.36 605.82
  A 0.35 0.35 0.0 0 0 886.01 605.47
  C 857.21 605.45 839.49 578.12 826.68 555.78
  C 815.04 535.49 798.96 500.67 780.58 477.16
  C 772.72 467.10 763.97 458.55 753.56 452.00
  C 732.35 438.68 704.10 436.62 681.39 447.38
  C 662.05 456.54 647.58 473.04 636.11 491.12
  C 619.07 517.99 606.92 547.57 589.26 574.50
  C 577.76 592.04 562.45 608.60 539.79 608.60
  C 517.12 608.60 501.82 592.05 490.31 574.50
  C 472.65 547.57 460.50 517.99 443.46 491.12
  C 431.99 473.04 417.52 456.55 398.18 447.39
  C 375.47 436.63 347.22 438.69 326.01 452.01
  C 315.60 458.56 306.85 467.11 298.99 477.17
  C 280.61 500.68 264.53 535.50 252.89 555.79
  C 240.08 578.13 222.36 605.46 193.56 605.48
  A 0.35 0.35 0.0 0 0 193.21 605.83
  L 193.21 635.62
  A 0.61 0.61 0.0 0 0 193.82 636.23
  C 236.45 635.85 261.90 602.93 280.64 569.29
  Q 284.92 561.61 303.14 527.56
  Q 311.61 511.73 322.08 497.63
  C 331.97 484.31 345.21 472.84 362.35 471.47
  C 385.85 469.60 402.03 484.56 414.27 502.81
  C 433.94 532.13 446.77 565.16 466.63 594.43
  C 483.91 619.90 507.37 639.33 539.79 639.33
  Z"
/>
<path fill="#ffffff" d="
  M 539.79 608.60
  C 562.45 608.60 577.76 592.04 589.26 574.50
  C 606.92 547.57 619.07 517.99 636.11 491.12
  C 647.58 473.04 662.05 456.54 681.39 447.38
  C 704.10 436.62 732.35 438.68 753.56 452.00
  C 763.97 458.55 772.72 467.10 780.58 477.16
  C 798.96 500.67 815.04 535.49 826.68 555.78
  C 839.49 578.12 857.21 605.45 886.01 605.47
  A 0.35 0.35 0.0 0 1 886.36 605.82
  L 886.36 635.61
  A 0.61 0.61 0.0 0 1 885.75 636.22
  C 843.12 635.84 817.67 602.92 798.93 569.28
  Q 794.65 561.60 776.43 527.55
  Q 767.96 511.72 757.49 497.62
  C 747.60 484.30 734.36 472.83 717.22 471.46
  C 693.72 469.59 677.54 484.55 665.30 502.80
  C 645.63 532.13 632.80 565.16 612.95 594.43
  C 595.67 619.90 572.20 639.33 539.79 639.33
  C 507.37 639.33 483.91 619.90 466.63 594.43
  C 446.77 565.16 433.94 532.13 414.27 502.81
  C 402.03 484.56 385.85 469.60 362.35 471.47
  C 345.21 472.84 331.97 484.31 322.08 497.63
  Q 311.61 511.73 303.14 527.56
  Q 284.92 561.61 280.64 569.29
  C 261.90 602.93 236.45 635.85 193.82 636.23
  A 0.61 0.61 0.0 0 1 193.21 635.62
  L 193.21 605.83
  A 0.35 0.35 0.0 0 1 193.56 605.48
  C 222.36 605.46 240.08 578.13 252.89 555.79
  C 264.53 535.50 280.61 500.68 298.99 477.17
  C 306.85 467.11 315.60 458.56 326.01 452.01
  C 347.22 438.69 375.47 436.63 398.18 447.39
  C 417.52 456.55 431.99 473.04 443.46 491.12
  C 460.50 517.99 472.65 547.57 490.31 574.50
  C 501.82 592.05 517.12 608.60 539.79 608.60
  Z"
/>
</svg>