<?xml version="1.0" encoding="UTF-8" standalone="no"?>
<!DOCTYPE svg PUBLIC "-//W3C//DTD SVG 1.1//EN" "http://www.w3.org/Graphics/SVG/1.1/DTD/svg11.dtd">
<svg xmlns="http://www.w3.org/2000/svg" version="1.1" viewBox="0.00 0.00 256.00 256.00" width="128" height="128">
<g stroke-width="2.00" fill="none" stroke-linecap="butt">
<path stroke="#ffab91" vector-effect="non-scaling-stroke" d="
  M 109.66 37.03
  C 108.87 35.63 106.53 36.10 105.59 37.34
  C 105.13 37.94 103.52 38.57 102.83 39.33
  Q 98.00 44.72 95.76 52.34
  A 7.29 6.81 -23.6 0 1 95.13 53.80
  Q 91.82 59.54 86.66 64.73
  Q 83.42 68.01 77.44 71.17
  C 65.84 77.29 53.63 83.58 44.23 92.73
  Q 29.93 106.65 28.13 126.30
  A 0.33 0.32 5.3 0 0 28.43 126.65
  Q 28.81 126.68 29.14 126.42
  Q 37.46 119.96 46.96 116.46
  C 58.20 112.31 60.44 120.45 58.39 129.17
  Q 55.80 140.22 50.45 151.63
  C 47.36 158.23 45.67 163.97 47.32 170.21
  C 50.76 183.24 63.09 192.97 74.35 199.42
  Q 97.00 212.40 122.66 218.82
  A 0.69 0.69 0.0 0 0 123.52 218.21
  C 124.99 201.24 133.12 185.10 147.04 175.21
  C 163.06 163.84 181.17 159.84 201.13 154.11
  Q 208.89 151.88 211.96 149.70
  Q 221.02 143.27 225.81 133.16
  Q 228.40 127.72 227.57 124.08
  C 224.14 109.07 202.93 115.85 192.56 111.20
  C 176.42 103.97 163.75 89.83 157.29 73.47
  Q 149.09 52.70 147.93 50.06
  C 146.38 46.51 143.59 41.07 140.26 39.85
  C 132.09 36.85 127.57 57.89 123.73 60.28
  A 1.86 1.85 -24.0 0 1 120.97 59.22
  Q 118.48 50.63 116.68 45.85
  Q 114.55 40.19 109.93 37.31
  A 0.77 0.71 88.6 0 1 109.66 37.03"
/>
<path stroke="#ffab91" vector-effect="non-scaling-stroke" d="
  M 149.88 111.38
  C 145.66 105.82 140.40 99.35 134.17 95.67
  C 127.58 91.77 121.39 94.70 117.82 100.94
  C 113.60 108.31 122.59 111.95 128.00 113.00
  Q 139.33 115.21 149.19 113.21
  A 1.16 1.15 65.8 0 0 149.88 111.38"
/>
</g>
<path fill="#ffffff" d="
  M 256.00 0.00
  L 256.00 256.00
  L 0.00 256.00
  L 0.00 0.00
  L 256.00 0.00
  Z
  M 109.66 37.03
  C 108.87 35.63 106.53 36.10 105.59 37.34
  C 105.13 37.94 103.52 38.57 102.83 39.33
  Q 98.00 44.72 95.76 52.34
  A 7.29 6.81 -23.6 0 1 95.13 53.80
  Q 91.82 59.54 86.66 64.73
  Q 83.42 68.01 77.44 71.17
  C 65.84 77.29 53.63 83.58 44.23 92.73
  Q 29.93 106.65 28.13 126.30
  A 0.33 0.32 5.3 0 0 28.43 126.65
  Q 28.81 126.68 29.14 126.42
  Q 37.46 119.96 46.96 116.46
  C 58.20 112.31 60.44 120.45 58.39 129.17
  Q 55.80 140.22 50.45 151.63
  C 47.36 158.23 45.67 163.97 47.32 170.21
  C 50.76 183.24 63.09 192.97 74.35 199.42
  Q 97.00 212.40 122.66 218.82
  A 0.69 0.69 0.0 0 0 123.52 218.21
  C 124.99 201.24 133.12 185.10 147.04 175.21
  C 163.06 163.84 181.17 159.84 201.13 154.11
  Q 208.89 151.88 211.96 149.70
  Q 221.02 143.27 225.81 133.16
  Q 228.40 127.72 227.57 124.08
  C 224.14 109.07 202.93 115.85 192.56 111.20
  C 176.42 103.97 163.75 89.83 157.29 73.47
  Q 149.09 52.70 147.93 50.06
  C 146.38 46.51 143.59 41.07 140.26 39.85
  C 132.09 36.85 127.57 57.89 123.73 60.28
  A 1.86 1.85 -24.0 0 1 120.97 59.22
  Q 118.48 50.63 116.68 45.85
  Q 114.55 40.19 109.93 37.31
  A 0.77 0.71 88.6 0 1 109.66 37.03
  Z"
/>
<path fill="#ff5722" d="
  M 109.93 37.31
  Q 114.55 40.19 116.68 45.85
  Q 118.48 50.63 120.97 59.22
  A 1.86 1.85 -24.0 0 0 123.73 60.28
  C 127.57 57.89 132.09 36.85 140.26 39.85
  C 143.59 41.07 146.38 46.51 147.93 50.06
  Q 149.09 52.70 157.29 73.47
  C 163.75 89.83 176.42 103.97 192.56 111.20
  C 202.93 115.85 224.14 109.07 227.57 124.08
  Q 228.40 127.72 225.81 133.16
  Q 221.02 143.27 211.96 149.70
  Q 208.89 151.88 201.13 154.11
  C 181.17 159.84 163.06 163.84 147.04 175.21
  C 133.12 185.10 124.99 201.24 123.52 218.21
  A 0.69 0.69 0.0 0 1 122.66 218.82
  Q 97.00 212.40 74.35 199.42
  C 63.09 192.97 50.76 183.24 47.32 170.21
  C 45.67 163.97 47.36 158.23 50.45 151.63
  Q 55.80 140.22 58.39 129.17
  C 60.44 120.45 58.20 112.31 46.96 116.46
  Q 37.46 119.96 29.14 126.42
  Q 28.81 126.68 28.43 126.65
  A 0.33 0.32 5.3 0 1 28.13 126.30
  Q 29.93 106.65 44.23 92.73
  C 53.63 83.58 65.84 77.29 77.44 71.17
  Q 83.42 68.01 86.66 64.73
  Q 91.82 59.54 95.13 53.80
  A 7.29 6.81 -23.6 0 0 95.76 52.34
  Q 98.00 44.72 102.83 39.33
  C 103.52 38.57 105.13 37.94 105.59 37.34
  C 106.53 36.10 108.87 35.63 109.66 37.03
  A 0.77 0.71 88.6 0 0 109.93 37.31
  Z
  M 149.88 111.38
  C 145.66 105.82 140.40 99.35 134.17 95.67
  C 127.58 91.77 121.39 94.70 117.82 100.94
  C 113.60 108.31 122.59 111.95 128.00 113.00
  Q 139.33 115.21 149.19 113.21
  A 1.16 1.15 65.8 0 0 149.88 111.38
  Z"
/>
<path fill="#ffffff" d="
  M 149.88 111.38
  A 1.16 1.15 65.8 0 1 149.19 113.21
  Q 139.33 115.21 128.00 113.00
  C 122.59 111.95 113.60 108.31 117.82 100.94
  C 121.39 94.70 127.58 91.77 134.17 95.67
  C 140.40 99.35 145.66 105.82 149.88 111.38
  Z"
/>
</svg>