<?xml version="1.0" encoding="UTF-8" standalone="no"?>
<!DOCTYPE svg PUBLIC "-//W3C//DTD SVG 1.1//EN" "http://www.w3.org/Graphics/SVG/1.1/DTD/svg11.dtd">
<svg xmlns="http://www.w3.org/2000/svg" version="1.1" viewBox="0.00 0.00 256.00 256.00" width="128" height="128">
<g stroke-width="2.00" fill="none" stroke-linecap="butt">
<path stroke="#8a8b87" vector-effect="non-scaling-stroke" d="
  M 157.23 25.81
  C 151.37 34.03 143.82 40.91 136.75 48.92
  Q 132.45 53.79 123.35 63.60
  Q 112.42 75.38 101.90 86.66
  C 88.19 101.36 76.45 114.74 65.21 125.96
  A 0.73 0.73 0.0 0 0 65.44 127.15
  Q 67.29 127.94 69.45 128.14
  C 80.90 129.18 92.16 128.73 113.89 128.39
  C 122.68 128.26 128.90 124.29 132.25 116.66
  Q 133.74 113.27 134.03 111.98
  Q 138.37 92.65 144.83 73.80
  Q 148.65 62.63 151.59 51.52
  Q 157.58 28.92 158.22 26.25
  A 0.55 0.55 0.0 0 0 157.23 25.81"
/>
<path stroke="#8a8b87" vector-effect="non-scaling-stroke" d="
  M 192.27 129.90
  Q 191.13 129.13 189.25 128.92
  C 181.97 128.09 172.70 128.43 154.53 128.37
  Q 139.75 128.32 136.06 129.59
  Q 126.20 132.98 123.26 144.98
  C 120.92 154.53 118.82 163.61 115.49 173.56
  Q 105.91 202.16 99.60 229.36
  A 0.62 0.62 0.0 0 0 100.53 230.03
  Q 101.79 229.25 102.74 227.99
  Q 108.23 220.73 112.31 216.89
  C 118.19 211.34 122.55 205.34 128.29 199.45
  Q 130.74 196.94 133.18 194.20
  Q 140.57 185.89 148.09 177.85
  Q 154.68 170.81 155.11 170.36
  Q 159.06 166.26 168.75 155.50
  Q 180.30 142.66 192.36 130.86
  A 0.63 0.62 -50.6 0 0 192.27 129.90"
/>
</g>
<path fill="#1d1d1d" d="
  M 256.00 0.00
  L 256.00 256.00
  L 0.00 256.00
  L 0.00 0.00
  L 256.00 0.00
  Z
  M 157.23 25.81
  C 151.37 34.03 143.82 40.91 136.75 48.92
  Q 132.45 53.79 123.35 63.60
  Q 112.42 75.38 101.90 86.66
  C 88.19 101.36 76.45 114.74 65.21 125.96
  A 0.73 0.73 0.0 0 0 65.44 127.15
  Q 67.29 127.94 69.45 128.14
  C 80.90 129.18 92.16 128.73 113.89 128.39
  C 122.68 128.26 128.90 124.29 132.25 116.66
  Q 133.74 113.27 134.03 111.98
  Q 138.37 92.65 144.83 73.80
  Q 148.65 62.63 151.59 51.52
  Q 157.58 28.92 158.22 26.25
  A 0.55 0.55 0.0 0 0 157.23 25.81
  Z
  M 192.27 129.90
  Q 191.13 129.13 189.25 128.92
  C 181.97 128.09 172.70 128.43 154.53 128.37
  Q 139.75 128.32 136.06 129.59
  Q 126.20 132.98 123.26 144.98
  C 120.92 154.53 118.82 163.61 115.49 173.56
  Q 105.91 202.16 99.60 229.36
  A 0.62 0.62 0.0 0 0 100.53 230.03
  Q 101.79 229.25 102.74 227.99
  Q 108.23 220.73 112.31 216.89
  C 118.19 211.34 122.55 205.34 128.29 199.45
  Q 130.74 196.94 133.18 194.20
  Q 140.57 185.89 148.09 177.85
  Q 154.68 170.81 155.11 170.36
  Q 159.06 166.26 168.75 155.50
  Q 180.30 142.66 192.36 130.86
  A 0.63 0.62 -50.6 0 0 192.27 129.90
  Z"
/>
<path fill="#f7f8f1" d="
  M 157.23 25.81
  A 0.55 0.55 0.0 0 1 158.22 26.25
  Q 157.58 28.92 151.59 51.52
  Q 148.65 62.63 144.83 73.80
  Q 138.37 92.65 134.03 111.98
  Q 133.74 113.27 132.25 116.66
  C 128.90 124.29 122.68 128.26 113.89 128.39
  C 92.16 128.73 80.90 129.18 69.45 128.14
  Q 67.29 127.94 65.44 127.15
  A 0.73 0.73 0.0 0 1 65.21 125.96
  C 76.45 114.74 88.19 101.36 101.90 86.66
  Q 112.42 75.38 123.35 63.60
  Q 132.45 53.79 136.75 48.92
  C 143.82 40.91 151.37 34.03 157.23 25.81
  Z"
/>
<path fill="#f7f8f1" d="
  M 192.27 129.90
  A 0.63 0.62 -50.6 0 1 192.36 130.86
  Q 180.30 142.66 168.75 155.50
  Q 159.06 166.26 155.11 170.36
  Q 154.68 170.81 148.09 177.85
  Q 140.57 185.89 133.18 194.20
  Q 130.74 196.94 128.29 199.45
  C 122.55 205.34 118.19 211.34 112.31 216.89
  Q 108.23 220.73 102.74 227.99
  Q 101.79 229.25 100.53 230.03
  A 0.62 0.62 0.0 0 1 99.60 229.36
  Q 105.91 202.16 115.49 173.56
  C 118.82 163.61 120.92 154.53 123.26 144.98
  Q 126.20 132.98 136.06 129.59
  Q 139.75 128.32 154.53 128.37
  C 172.70 128.43 181.97 128.09 189.25 128.92
  Q 191.13 129.13 192.27 129.90
  Z"
/>
</svg>