<?xml version="1.0" encoding="UTF-8" standalone="no"?>
<!DOCTYPE svg PUBLIC "-//W3C//DTD SVG 1.1//EN" "http://www.w3.org/Graphics/SVG/1.1/DTD/svg11.dtd">
<svg xmlns="http://www.w3.org/2000/svg" version="1.1" viewBox="0.00 0.00 128.00 128.00" width="128" height="128">
<path fill="#000000" d="
  M 72.12 70.37
  Q 63.80 88.18 55.37 106.37
  Q 51.81 114.05 44.10 113.95
  Q 31.87 113.78 15.28 113.87
  A 0.72 0.72 0.0 0 1 14.62 112.85
  Q 28.99 81.73 41.03 55.96
  Q 49.36 38.15 57.79 19.96
  Q 61.35 12.28 69.06 12.38
  Q 81.29 12.55 97.88 12.46
  A 0.72 0.72 0.0 0 1 98.54 13.49
  Q 84.17 44.61 72.12 70.37
  Z"
/>
<path fill="#000000" d="
  M 71.39 82.63
  C 73.69 78.01 75.56 73.57 77.74 69.53
  Q 80.69 64.05 86.81 64.00
  Q 104.10 63.88 111.55 64.08
  A 0.48 0.48 0.0 0 1 111.96 64.80
  Q 110.94 66.64 109.80 69.24
  Q 103.98 82.55 97.67 95.17
  C 95.37 99.79 93.49 104.23 91.32 108.27
  Q 88.37 113.75 82.25 113.80
  Q 64.96 113.92 57.51 113.72
  A 0.48 0.48 0.0 0 1 57.10 113.00
  Q 58.12 111.16 59.25 108.56
  Q 65.08 95.25 71.39 82.63
  Z"
/>
</svg>