<?xml version="1.0" encoding="UTF-8" standalone="no"?>
<!DOCTYPE svg PUBLIC "-//W3C//DTD SVG 1.1//EN" "http://www.w3.org/Graphics/SVG/1.1/DTD/svg11.dtd">
<svg xmlns="http://www.w3.org/2000/svg" version="1.1" viewBox="0.00 0.00 256.00 256.00" width="128" height="128">
<g stroke-width="2.00" fill="none" stroke-linecap="butt">
<path stroke="#026f60" vector-effect="non-scaling-stroke" d="
  M 199.97 125.37
  L 186.48 125.37
  A 2.14 2.14 0.0 0 0 184.34 127.50
  C 184.16 148.77 174.27 167.83 156.72 179.59
  C 133.74 194.99 102.95 193.01 82.15 175.10
  C 50.59 147.92 54.07 97.82 89.32 75.70
  C 110.66 62.30 136.51 63.17 157.80 77.17
  Q 158.49 77.63 165.55 83.45
  A 1.84 1.84 0.0 0 0 166.72 83.87
  L 178.86 83.87
  A 2.14 2.13 -90.0 0 0 180.99 81.73
  L 180.98 75.38
  A 2.77 2.72 -58.5 0 0 180.70 74.17
  Q 180.29 73.30 178.73 71.77
  Q 162.61 56.00 141.38 50.80
  C 100.66 40.81 59.60 64.15 46.87 103.47
  C 36.50 135.48 47.35 170.85 74.30 191.27
  C 94.13 206.29 120.05 211.36 144.03 204.49
  C 178.02 194.75 202.61 163.44 201.93 127.30
  A 1.97 1.96 89.4 0 0 199.97 125.37"
/>
<path stroke="#026f60" vector-effect="non-scaling-stroke" d="
  M 174.44 92.66
  C 172.56 92.73 170.99 94.03 170.99 95.92
  Q 171.00 99.39 171.01 109.20
  Q 171.01 111.46 168.92 112.31
  A 2.21 2.10 32.5 0 1 168.10 112.47
  Q 156.39 112.50 155.90 112.49
  C 153.33 112.43 151.43 113.10 151.16 115.77
  Q 151.10 116.42 151.14 129.37
  A 2.31 2.01 -41.1 0 1 151.06 129.95
  Q 150.42 132.32 148.43 132.33
  Q 134.61 132.41 134.36 132.38
  A 1.42 1.41 33.0 0 0 133.50 132.56
  Q 131.31 133.82 131.29 135.70
  Q 131.20 145.45 131.29 149.13
  A 2.23 2.13 -35.1 0 1 131.11 150.04
  Q 130.24 152.04 128.42 152.19
  Q 127.61 152.25 116.81 152.25
  A 2.52 2.52 0.0 0 1 116.18 152.17
  Q 113.68 151.48 113.67 149.36
  Q 113.64 142.07 113.56 135.70
  Q 113.52 132.59 110.69 132.47
  Q 105.74 132.27 96.73 132.37
  A 2.17 2.16 57.9 0 1 95.78 132.15
  Q 93.81 131.21 93.80 129.43
  Q 93.69 118.09 93.73 117.02
  C 93.82 114.85 93.13 112.61 90.93 112.55
  Q 84.47 112.38 74.88 112.54
  Q 73.07 112.57 72.01 114.54
  A 2.16 2.05 -32.3 0 0 71.76 115.53
  L 71.76 131.51
  A 2.63 2.57 36.2 0 0 71.90 132.35
  Q 72.72 134.68 75.34 134.63
  Q 75.64 134.62 86.95 134.62
  C 89.18 134.62 91.48 135.09 91.53 137.68
  Q 91.72 147.35 91.61 150.00
  C 91.52 152.23 92.24 154.44 94.53 154.47
  Q 102.09 154.56 106.87 154.46
  C 109.19 154.42 111.43 155.14 111.47 157.76
  Q 111.58 165.36 111.48 170.50
  C 111.43 172.97 112.54 174.36 115.00 174.36
  Q 122.29 174.36 129.34 174.38
  C 131.34 174.39 133.39 173.64 133.42 171.40
  Q 133.53 164.03 133.50 157.32
  Q 133.50 156.09 135.53 154.76
  A 1.53 1.48 26.7 0 1 136.33 154.51
  Q 139.67 154.45 149.57 154.54
  Q 153.44 154.57 153.42 150.40
  Q 153.34 138.15 153.37 137.57
  A 1.97 1.80 -32.4 0 1 153.58 136.80
  Q 154.69 134.66 156.42 134.64
  Q 160.87 134.60 169.13 134.64
  C 171.03 134.64 173.12 134.02 173.15 131.89
  Q 173.27 125.34 173.23 117.84
  A 1.70 1.64 -33.3 0 1 173.39 117.13
  Q 174.51 114.79 176.06 114.78
  Q 186.14 114.73 189.04 114.78
  C 191.24 114.82 193.11 113.79 193.11 111.52
  Q 193.13 98.59 193.13 97.88
  A 1.68 1.66 -31.8 0 1 193.33 97.05
  Q 194.42 94.94 196.22 94.91
  Q 203.04 94.80 208.48 94.90
  C 211.55 94.96 213.07 93.85 213.04 90.78
  Q 212.95 82.06 213.02 77.31
  C 213.06 74.40 212.06 72.77 209.00 72.76
  Q 197.53 72.75 193.78 72.80
  A 2.09 2.09 0.0 0 0 192.89 73.02
  Q 190.92 74.01 190.90 76.43
  Q 190.84 88.45 190.87 89.84
  A 1.59 1.58 -31.4 0 1 190.66 90.70
  Q 189.53 92.65 187.89 92.64
  Q 176.63 92.58 174.44 92.66"
/>
</g>
<path fill="#011c21" d="
  M 211.41 0.00
  Q 229.25 1.65 241.08 13.17
  Q 252.60 24.37 255.22 40.29
  Q 255.56 42.40 256.00 44.45
  L 256.00 211.42
  C 253.71 235.66 235.72 253.60 211.52 256.00
  L 44.58 256.00
  C 20.34 253.76 2.42 235.71 0.00 211.52
  L 0.00 44.58
  C 2.55 20.11 20.17 2.42 44.48 0.00
  L 211.41 0.00
  Z
  M 199.97 125.37
  L 186.48 125.37
  A 2.14 2.14 0.0 0 0 184.34 127.50
  C 184.16 148.77 174.27 167.83 156.72 179.59
  C 133.74 194.99 102.95 193.01 82.15 175.10
  C 50.59 147.92 54.07 97.82 89.32 75.70
  C 110.66 62.30 136.51 63.17 157.80 77.17
  Q 158.49 77.63 165.55 83.45
  A 1.84 1.84 0.0 0 0 166.72 83.87
  L 178.86 83.87
  A 2.14 2.13 -90.0 0 0 180.99 81.73
  L 180.98 75.38
  A 2.77 2.72 -58.5 0 0 180.70 74.17
  Q 180.29 73.30 178.73 71.77
  Q 162.61 56.00 141.38 50.80
  C 100.66 40.81 59.60 64.15 46.87 103.47
  C 36.50 135.48 47.35 170.85 74.30 191.27
  C 94.13 206.29 120.05 211.36 144.03 204.49
  C 178.02 194.75 202.61 163.44 201.93 127.30
  A 1.97 1.96 89.4 0 0 199.97 125.37
  Z
  M 174.44 92.66
  C 172.56 92.73 170.99 94.03 170.99 95.92
  Q 171.00 99.39 171.01 109.20
  Q 171.01 111.46 168.92 112.31
  A 2.21 2.10 32.5 0 1 168.10 112.47
  Q 156.39 112.50 155.90 112.49
  C 153.33 112.43 151.43 113.10 151.16 115.77
  Q 151.10 116.42 151.14 129.37
  A 2.31 2.01 -41.1 0 1 151.06 129.95
  Q 150.42 132.32 148.43 132.33
  Q 134.61 132.41 134.36 132.38
  A 1.42 1.41 33.0 0 0 133.50 132.56
  Q 131.31 133.82 131.29 135.70
  Q 131.20 145.45 131.29 149.13
  A 2.23 2.13 -35.1 0 1 131.11 150.04
  Q 130.24 152.04 128.42 152.19
  Q 127.61 152.25 116.81 152.25
  A 2.52 2.52 0.0 0 1 116.18 152.17
  Q 113.68 151.48 113.67 149.36
  Q 113.64 142.07 113.56 135.70
  Q 113.52 132.59 110.69 132.47
  Q 105.74 132.27 96.73 132.37
  A 2.17 2.16 57.9 0 1 95.78 132.15
  Q 93.81 131.21 93.80 129.43
  Q 93.69 118.09 93.73 117.02
  C 93.82 114.85 93.13 112.61 90.93 112.55
  Q 84.47 112.38 74.88 112.54
  Q 73.07 112.57 72.01 114.54
  A 2.16 2.05 -32.3 0 0 71.76 115.53
  L 71.76 131.51
  A 2.63 2.57 36.2 0 0 71.90 132.35
  Q 72.72 134.68 75.34 134.63
  Q 75.64 134.62 86.95 134.62
  C 89.18 134.62 91.48 135.09 91.53 137.68
  Q 91.72 147.35 91.61 150.00
  C 91.52 152.23 92.24 154.44 94.53 154.47
  Q 102.09 154.56 106.87 154.46
  C 109.19 154.42 111.43 155.14 111.47 157.76
  Q 111.58 165.36 111.48 170.50
  C 111.43 172.97 112.54 174.36 115.00 174.36
  Q 122.29 174.36 129.34 174.38
  C 131.34 174.39 133.39 173.64 133.42 171.40
  Q 133.53 164.03 133.50 157.32
  Q 133.50 156.09 135.53 154.76
  A 1.53 1.48 26.7 0 1 136.33 154.51
  Q 139.67 154.45 149.57 154.54
  Q 153.44 154.57 153.42 150.40
  Q 153.34 138.15 153.37 137.57
  A 1.97 1.80 -32.4 0 1 153.58 136.80
  Q 154.69 134.66 156.42 134.64
  Q 160.87 134.60 169.13 134.64
  C 171.03 134.64 173.12 134.02 173.15 131.89
  Q 173.27 125.34 173.23 117.84
  A 1.70 1.64 -33.3 0 1 173.39 117.13
  Q 174.51 114.79 176.06 114.78
  Q 186.14 114.73 189.04 114.78
  C 191.24 114.82 193.11 113.79 193.11 111.52
  Q 193.13 98.59 193.13 97.88
  A 1.68 1.66 -31.8 0 1 193.33 97.05
  Q 194.42 94.94 196.22 94.91
  Q 203.04 94.80 208.48 94.90
  C 211.55 94.96 213.07 93.85 213.04 90.78
  Q 212.95 82.06 213.02 77.31
  C 213.06 74.40 212.06 72.77 209.00 72.76
  Q 197.53 72.75 193.78 72.80
  A 2.09 2.09 0.0 0 0 192.89 73.02
  Q 190.92 74.01 190.90 76.43
  Q 190.84 88.45 190.87 89.84
  A 1.59 1.58 -31.4 0 1 190.66 90.70
  Q 189.53 92.65 187.89 92.64
  Q 176.63 92.58 174.44 92.66
  Z"
/>
<path fill="#02c29f" d="
  M 199.97 125.37
  A 1.97 1.96 89.4 0 1 201.93 127.30
  C 202.61 163.44 178.02 194.75 144.03 204.49
  C 120.05 211.36 94.13 206.29 74.30 191.27
  C 47.35 170.85 36.50 135.48 46.87 103.47
  C 59.60 64.15 100.66 40.81 141.38 50.80
  Q 162.61 56.00 178.73 71.77
  Q 180.29 73.30 180.70 74.17
  A 2.77 2.72 -58.5 0 1 180.98 75.38
  L 180.99 81.73
  A 2.14 2.13 90.0 0 1 178.86 83.87
  L 166.72 83.87
  A 1.84 1.84 0.0 0 1 165.55 83.45
  Q 158.49 77.63 157.80 77.17
  C 136.51 63.17 110.66 62.30 89.32 75.70
  C 54.07 97.82 50.59 147.92 82.15 175.10
  C 102.95 193.01 133.74 194.99 156.72 179.59
  C 174.27 167.83 184.16 148.77 184.34 127.50
  A 2.14 2.14 0.0 0 1 186.48 125.37
  L 199.97 125.37
  Z"
/>
<path fill="#02c29f" d="
  M 170.99 95.92
  C 170.99 94.03 172.56 92.73 174.44 92.66
  Q 176.63 92.58 187.89 92.64
  Q 189.53 92.65 190.66 90.70
  A 1.59 1.58 -31.4 0 0 190.87 89.84
  Q 190.84 88.45 190.90 76.43
  Q 190.92 74.01 192.89 73.02
  A 2.09 2.09 0.0 0 1 193.78 72.80
  Q 197.53 72.75 209.00 72.76
  C 212.06 72.77 213.06 74.40 213.02 77.31
  Q 212.95 82.06 213.04 90.78
  C 213.07 93.85 211.55 94.96 208.48 94.90
  Q 203.04 94.80 196.22 94.91
  Q 194.42 94.94 193.33 97.05
  A 1.68 1.66 -31.8 0 0 193.13 97.88
  Q 193.13 98.59 193.11 111.52
  C 193.11 113.79 191.24 114.82 189.04 114.78
  Q 186.14 114.73 176.06 114.78
  Q 174.51 114.79 173.39 117.13
  A 1.70 1.64 -33.3 0 0 173.23 117.84
  Q 173.27 125.34 173.15 131.89
  C 173.12 134.02 171.03 134.64 169.13 134.64
  Q 160.87 134.60 156.42 134.64
  Q 154.69 134.66 153.58 136.80
  A 1.97 1.80 -32.4 0 0 153.37 137.57
  Q 153.34 138.15 153.42 150.40
  Q 153.44 154.57 149.57 154.54
  Q 139.67 154.45 136.33 154.51
  A 1.53 1.48 26.7 0 0 135.53 154.76
  Q 133.50 156.09 133.50 157.32
  Q 133.53 164.03 133.42 171.40
  C 133.39 173.64 131.34 174.39 129.34 174.38
  Q 122.29 174.36 115.00 174.36
  C 112.54 174.36 111.43 172.97 111.48 170.50
  Q 111.58 165.36 111.47 157.76
  C 111.43 155.14 109.19 154.42 106.87 154.46
  Q 102.09 154.56 94.53 154.47
  C 92.24 154.44 91.52 152.23 91.61 150.00
  Q 91.72 147.35 91.53 137.68
  C 91.48 135.09 89.18 134.62 86.95 134.62
  Q 75.64 134.62 75.34 134.63
  Q 72.72 134.68 71.90 132.35
  A 2.63 2.57 36.2 0 1 71.76 131.51
  L 71.76 115.53
  A 2.16 2.05 -32.3 0 1 72.01 114.54
  Q 73.07 112.57 74.88 112.54
  Q 84.47 112.38 90.93 112.55
  C 93.13 112.61 93.82 114.85 93.73 117.02
  Q 93.69 118.09 93.80 129.43
  Q 93.81 131.21 95.78 132.15
  A 2.17 2.16 57.9 0 0 96.73 132.37
  Q 105.74 132.27 110.69 132.47
  Q 113.52 132.59 113.56 135.70
  Q 113.64 142.07 113.67 149.36
  Q 113.68 151.48 116.18 152.17
  A 2.52 2.52 0.0 0 0 116.81 152.25
  Q 127.61 152.25 128.42 152.19
  Q 130.24 152.04 131.11 150.04
  A 2.23 2.13 -35.1 0 0 131.29 149.13
  Q 131.20 145.45 131.29 135.70
  Q 131.31 133.82 133.50 132.56
  A 1.42 1.41 33.0 0 1 134.36 132.38
  Q 134.61 132.41 148.43 132.33
  Q 150.42 132.32 151.06 129.95
  A 2.31 2.01 -41.1 0 0 151.14 129.37
  Q 151.10 116.42 151.16 115.77
  C 151.43 113.10 153.33 112.43 155.90 112.49
  Q 156.39 112.50 168.10 112.47
  A 2.21 2.10 32.5 0 0 168.92 112.31
  Q 171.01 111.46 171.01 109.20
  Q 171.00 99.39 170.99 95.92
  Z"
/>
</svg>