<?xml version="1.0" encoding="UTF-8" standalone="no"?>
<!DOCTYPE svg PUBLIC "-//W3C//DTD SVG 1.1//EN" "http://www.w3.org/Graphics/SVG/1.1/DTD/svg11.dtd">
<svg xmlns="http://www.w3.org/2000/svg" version="1.1" viewBox="0.00 0.00 192.00 192.00" width="128" height="128">
<g stroke-width="2.00" fill="none" stroke-linecap="butt">
<path stroke="#809ce7" vector-effect="non-scaling-stroke" d="
  M 77.01 116.44
  Q 76.95 127.19 68.26 130.87
  C 61.05 133.92 51.12 131.89 47.32 124.31
  A 0.94 0.94 0.0 0 0 46.48 123.79
  L 31.26 123.79
  A 0.50 0.49 -7.6 0 0 30.78 124.41
  Q 35.18 140.97 51.96 145.01
  C 72.71 150.01 92.79 140.01 93.05 116.50
  Q 93.14 108.65 93.10 61.99
  A 0.70 0.70 0.0 0 0 92.40 61.29
  L 82.92 61.29
  A 0.87 0.86 11.1 0 0 82.12 61.82
  L 80.14 66.68
  A 0.55 0.55 0.0 0 1 79.28 66.90
  C 60.94 51.88 33.37 61.41 29.53 85.00
  C 25.34 110.77 50.23 128.21 73.49 117.66
  C 74.38 117.26 75.41 116.32 76.30 115.96
  A 0.52 0.52 0.0 0 1 77.01 116.44"
/>
<path stroke="#809ce7" vector-effect="non-scaling-stroke" d="
  M 103.7302 91.8040
  A 33.22 32.49 -179.8 0 0 136.8366 124.4098
  A 33.22 32.49 -179.8 0 0 170.1698 92.0360
  A 33.22 32.49 -179.8 0 0 137.0634 59.4302
  A 33.22 32.49 -179.8 0 0 103.7302 91.8040"
/>
<path stroke="#809ce7" vector-effect="non-scaling-stroke" d="
  M 60.7900 74.4617
  A 15.89 15.72 -92.2 0 0 45.6916 90.9435
  A 15.89 15.72 -92.2 0 0 62.0100 106.2183
  A 15.89 15.72 -92.2 0 0 77.1084 89.7365
  A 15.89 15.72 -92.2 0 0 60.7900 74.4617"
/>
<path stroke="#809ce7" vector-effect="non-scaling-stroke" d="
  M 137.4517 74.9774
  A 16.91 16.45 -88.3 0 0 120.5072 91.3920
  A 16.91 16.45 -88.3 0 0 136.4483 108.7826
  A 16.91 16.45 -88.3 0 0 153.3928 92.3680
  A 16.91 16.45 -88.3 0 0 137.4517 74.9774"
/>
</g>
<path fill="#0038cf" d="
  M 101.46 0.00
  Q 144.37 3.46 170.66 35.60
  Q 189.65 58.81 192.00 90.48
  L 192.00 101.39
  Q 187.85 150.05 148.60 176.34
  Q 128.16 190.03 101.56 192.00
  L 90.67 192.00
  C 41.16 188.29 3.62 150.90 0.00 101.35
  L 0.00 90.57
  Q 0.41 87.42 0.82 84.26
  Q 3.53 63.22 14.09 45.95
  Q 24.84 28.39 42.08 16.60
  Q 63.31 2.08 90.62 0.00
  L 101.46 0.00
  Z
  M 77.01 116.44
  Q 76.95 127.19 68.26 130.87
  C 61.05 133.92 51.12 131.89 47.32 124.31
  A 0.94 0.94 0.0 0 0 46.48 123.79
  L 31.26 123.79
  A 0.50 0.49 -7.6 0 0 30.78 124.41
  Q 35.18 140.97 51.96 145.01
  C 72.71 150.01 92.79 140.01 93.05 116.50
  Q 93.14 108.65 93.10 61.99
  A 0.70 0.70 0.0 0 0 92.40 61.29
  L 82.92 61.29
  A 0.87 0.86 11.1 0 0 82.12 61.82
  L 80.14 66.68
  A 0.55 0.55 0.0 0 1 79.28 66.90
  C 60.94 51.88 33.37 61.41 29.53 85.00
  C 25.34 110.77 50.23 128.21 73.49 117.66
  C 74.38 117.26 75.41 116.32 76.30 115.96
  A 0.52 0.52 0.0 0 1 77.01 116.44
  Z
  M 103.7302 91.8040
  A 33.22 32.49 -179.8 0 0 136.8366 124.4098
  A 33.22 32.49 -179.8 0 0 170.1698 92.0360
  A 33.22 32.49 -179.8 0 0 137.0634 59.4302
  A 33.22 32.49 -179.8 0 0 103.7302 91.8040
  Z"
/>
<path fill="#ffffff" d="
  M 76.30 115.96
  C 75.41 116.32 74.38 117.26 73.49 117.66
  C 50.23 128.21 25.34 110.77 29.53 85.00
  C 33.37 61.41 60.94 51.88 79.28 66.90
  A 0.55 0.55 0.0 0 0 80.14 66.68
  L 82.12 61.82
  A 0.87 0.86 11.1 0 1 82.92 61.29
  L 92.40 61.29
  A 0.70 0.70 0.0 0 1 93.10 61.99
  Q 93.14 108.65 93.05 116.50
  C 92.79 140.01 72.71 150.01 51.96 145.01
  Q 35.18 140.97 30.78 124.41
  A 0.50 0.49 -7.6 0 1 31.26 123.79
  L 46.48 123.79
  A 0.94 0.94 0.0 0 1 47.32 124.31
  C 51.12 131.89 61.05 133.92 68.26 130.87
  Q 76.95 127.19 77.01 116.44
  A 0.52 0.52 0.0 0 0 76.30 115.96
  Z
  M 60.7900 74.4617
  A 15.89 15.72 -92.2 0 0 45.6916 90.9435
  A 15.89 15.72 -92.2 0 0 62.0100 106.2183
  A 15.89 15.72 -92.2 0 0 77.1084 89.7365
  A 15.89 15.72 -92.2 0 0 60.7900 74.4617
  Z"
/>
<path fill="#ffffff" d="
  M 103.7302 91.8040
  A 33.22 32.49 -179.8 0 1 137.0634 59.4302
  A 33.22 32.49 -179.8 0 1 170.1698 92.0360
  A 33.22 32.49 -179.8 0 1 136.8366 124.4098
  A 33.22 32.49 -179.8 0 1 103.7302 91.8040
  Z
  M 137.4517 74.9774
  A 16.91 16.45 -88.3 0 0 120.5072 91.3920
  A 16.91 16.45 -88.3 0 0 136.4483 108.7826
  A 16.91 16.45 -88.3 0 0 153.3928 92.3680
  A 16.91 16.45 -88.3 0 0 137.4517 74.9774
  Z"
/>
<ellipse fill="#0038cf" cx="0.00" cy="0.00" transform="translate(61.40,90.34) rotate(-92.2)" rx="15.89" ry="15.72"/>
<ellipse fill="#0038cf" cx="0.00" cy="0.00" transform="translate(136.95,91.88) rotate(-88.3)" rx="16.91" ry="16.45"/>
</svg>