<?xml version="1.0" encoding="UTF-8" standalone="no"?>
<!DOCTYPE svg PUBLIC "-//W3C//DTD SVG 1.1//EN" "http://www.w3.org/Graphics/SVG/1.1/DTD/svg11.dtd">
<svg xmlns="http://www.w3.org/2000/svg" version="1.1" viewBox="0.00 0.00 512.00 512.00" width="128" height="128">
<g stroke-width="2.00" fill="none" stroke-linecap="butt">
<path stroke="#82a8ea" vector-effect="non-scaling-stroke" d="
  M 239.74 84.83
  Q 232.51 87.83 226.96 93.58
  Q 213.22 107.82 216.78 128.76
  C 220.87 152.85 247.17 164.55 269.03 155.49
  C 290.89 146.42 301.19 119.54 287.04 99.62
  Q 274.74 82.31 254.96 81.97
  Q 246.97 81.83 239.74 84.83"
/>
<path stroke="#82a8ea" vector-effect="non-scaling-stroke" d="
  M 335.61 341.30
  L 317.73 341.30
  A 0.91 0.89 -79.6 0 0 316.89 341.89
  C 309.86 360.71 296.69 376.87 280.85 389.06
  C 272.65 395.37 261.91 401.70 251.94 401.76
  C 236.87 401.86 237.55 384.10 239.60 374.17
  C 252.85 309.97 265.50 249.85 277.51 185.62
  A 0.34 0.33 5.6 0 0 277.18 185.22
  L 211.47 185.22
  A 0.71 0.71 0.0 0 0 210.78 185.78
  Q 206.12 207.75 178.65 341.18
  C 172.39 371.59 174.08 416.29 210.04 427.38
  C 238.10 436.03 270.61 421.37 291.89 403.67
  Q 322.24 378.43 335.98 341.82
  A 0.39 0.39 0.0 0 0 335.61 341.30"
/>
</g>
<path fill="#0450d5" d="
  M 512.00 0.00
  L 512.00 512.00
  L 0.00 512.00
  L 0.00 0.00
  L 512.00 0.00
  Z
  M 239.74 84.83
  Q 232.51 87.83 226.96 93.58
  Q 213.22 107.82 216.78 128.76
  C 220.87 152.85 247.17 164.55 269.03 155.49
  C 290.89 146.42 301.19 119.54 287.04 99.62
  Q 274.74 82.31 254.96 81.97
  Q 246.97 81.83 239.74 84.83
  Z
  M 335.61 341.30
  L 317.73 341.30
  A 0.91 0.89 -79.6 0 0 316.89 341.89
  C 309.86 360.71 296.69 376.87 280.85 389.06
  C 272.65 395.37 261.91 401.70 251.94 401.76
  C 236.87 401.86 237.55 384.10 239.60 374.17
  C 252.85 309.97 265.50 249.85 277.51 185.62
  A 0.34 0.33 5.6 0 0 277.18 185.22
  L 211.47 185.22
  A 0.71 0.71 0.0 0 0 210.78 185.78
  Q 206.12 207.75 178.65 341.18
  C 172.39 371.59 174.08 416.29 210.04 427.38
  C 238.10 436.03 270.61 421.37 291.89 403.67
  Q 322.24 378.43 335.98 341.82
  A 0.39 0.39 0.0 0 0 335.61 341.30
  Z"
/>
<path fill="#ffffff" d="
  M 269.03 155.49
  C 247.17 164.55 220.87 152.85 216.78 128.76
  Q 213.22 107.82 226.96 93.58
  Q 232.51 87.83 239.74 84.83
  Q 246.97 81.83 254.96 81.97
  Q 274.74 82.31 287.04 99.62
  C 301.19 119.54 290.89 146.42 269.03 155.49
  Z"
/>
<path fill="#ffffff" d="
  M 335.98 341.82
  Q 322.24 378.43 291.89 403.67
  C 270.61 421.37 238.10 436.03 210.04 427.38
  C 174.08 416.29 172.39 371.59 178.65 341.18
  Q 206.12 207.75 210.78 185.78
  A 0.71 0.71 0.0 0 1 211.47 185.22
  L 277.18 185.22
  A 0.34 0.33 5.6 0 1 277.51 185.62
  C 265.50 249.85 252.85 309.97 239.60 374.17
  C 237.55 384.10 236.87 401.86 251.94 401.76
  C 261.91 401.70 272.65 395.37 280.85 389.06
  C 296.69 376.87 309.86 360.71 316.89 341.89
  A 0.91 0.89 -79.6 0 1 317.73 341.30
  L 335.61 341.30
  A 0.39 0.39 0.0 0 1 335.98 341.82
  Z"
/>
</svg>