<?xml version="1.0" encoding="UTF-8" standalone="no"?>
<!DOCTYPE svg PUBLIC "-//W3C//DTD SVG 1.1//EN" "http://www.w3.org/Graphics/SVG/1.1/DTD/svg11.dtd">
<svg xmlns="http://www.w3.org/2000/svg" version="1.1" viewBox="0.00 0.00 256.00 256.00" width="128" height="128">
<path fill="#000000" d="
  M 137.71 155.00
  L 155.02 155.00
  A 0.46 0.46 0.0 0 0 155.48 154.54
  L 155.48 100.58
  A 0.46 0.46 0.0 0 0 155.02 100.12
  L 137.71 100.12
  A 0.46 0.46 0.0 0 1 137.25 99.66
  L 137.25 45.83
  A 0.46 0.46 0.0 0 1 137.71 45.37
  L 173.41 45.37
  A 0.46 0.46 0.0 0 1 173.87 45.83
  L 173.87 99.67
  A 0.46 0.46 0.0 0 0 174.33 100.13
  L 191.67 100.13
  A 0.46 0.46 0.0 0 0 192.13 99.67
  L 192.13 45.84
  A 0.46 0.46 0.0 0 1 192.59 45.38
  L 246.54 45.38
  A 0.46 0.46 0.0 0 1 247.00 45.84
  L 247.00 209.41
  A 0.46 0.46 0.0 0 1 246.54 209.87
  L 119.46 209.87
  A 0.46 0.46 0.0 0 1 119.00 209.41
  L 119.00 155.46
  A 0.46 0.46 0.0 0 0 118.54 155.00
  L 101.21 155.00
  A 0.46 0.46 0.0 0 0 100.75 155.46
  L 100.75 209.41
  A 0.46 0.46 0.0 0 1 100.29 209.87
  L 64.59 209.87
  A 0.46 0.46 0.0 0 1 64.13 209.41
  L 64.13 155.46
  A 0.46 0.46 0.0 0 0 63.67 155.00
  L 46.34 155.00
  A 0.46 0.46 0.0 0 1 45.88 154.54
  L 45.88 100.58
  A 0.46 0.46 0.0 0 1 46.34 100.12
  L 63.66 100.12
  A 0.46 0.46 0.0 0 1 64.12 100.58
  L 64.12 154.55
  A 0.46 0.46 0.0 0 0 64.58 155.01
  L 100.29 155.01
  A 0.46 0.46 0.0 0 0 100.75 154.55
  L 100.75 100.59
  A 0.46 0.46 0.0 0 0 100.29 100.13
  L 82.98 100.13
  A 0.46 0.46 0.0 0 1 82.52 99.67
  L 82.52 45.84
  A 0.46 0.46 0.0 0 1 82.98 45.38
  L 100.29 45.38
  A 0.46 0.46 0.0 0 1 100.75 45.84
  L 100.75 99.66
  A 0.46 0.46 0.0 0 0 101.21 100.12
  L 136.79 100.12
  A 0.46 0.46 0.0 0 1 137.25 100.58
  L 137.25 154.54
  A 0.46 0.46 0.0 0 0 137.71 155.00
  Z"
/>
<rect fill="#000000" x="9.37" y="155.00" width="18.26" height="54.88" rx="0.38"/>
</svg>