<?xml version="1.0" encoding="UTF-8" standalone="no"?>
<!DOCTYPE svg PUBLIC "-//W3C//DTD SVG 1.1//EN" "http://www.w3.org/Graphics/SVG/1.1/DTD/svg11.dtd">
<svg xmlns="http://www.w3.org/2000/svg" version="1.1" viewBox="0.00 0.00 256.00 256.00" width="128" height="128">
<g stroke-width="2.00" fill="none" stroke-linecap="butt">
<path stroke="#a320d5" vector-effect="non-scaling-stroke" d="
  M 80.00 114.98
  Q 76.55 97.43 76.08 84.30
  C 75.38 64.86 75.16 47.19 72.69 26.19"
/>
<path stroke="#9a24e7" vector-effect="non-scaling-stroke" d="
  M 124.13 160.10
  C 122.94 135.50 123.07 110.87 122.55 86.19"
/>
<path stroke="#b916aa" vector-effect="non-scaling-stroke" d="
  M 69.01 151.99
  C 69.60 176.23 69.34 200.11 65.22 224.05"
/>
<path stroke="#a320d5" vector-effect="non-scaling-stroke" d="
  M 113.68 165.92
  C 116.05 190.22 117.14 214.81 114.24 239.10"
/>
</g>
<path fill="#9725ec" d="
  M 80.00 114.98
  Q 76.55 97.43 76.08 84.30
  C 75.38 64.86 75.16 47.19 72.69 26.19
  Q 84.70 14.82 92.05 9.04
  Q 94.12 7.41 96.52 8.25
  Q 97.92 8.74 100.11 11.15
  Q 106.04 17.66 134.05 48.20
  Q 138.00 52.50 140.76 58.24
  A 1.34 1.33 -30.3 0 1 140.32 59.91
  C 138.95 60.88 137.61 61.55 136.13 62.95
  Q 108.23 89.19 80.00 114.98
  Z"
/>
<path fill="#8e2aff" d="
  M 204.58 38.93
  A 0.58 0.57 -40.4 0 1 204.49 39.95
  Q 200.93 41.48 193.20 42.93
  C 180.91 45.23 169.56 48.54 155.94 51.69
  Q 153.73 52.20 151.87 52.12
  A 3.03 2.95 -29.3 0 1 150.63 51.79
  Q 147.92 50.42 145.22 47.56
  Q 127.11 28.36 118.10 18.38
  Q 114.25 14.12 112.26 10.97
  A 1.11 1.10 -22.8 0 1 112.94 9.31
  Q 113.29 9.23 114.41 9.58
  C 129.35 14.38 143.90 20.04 159.18 23.93
  Q 179.46 29.09 202.72 38.02
  Q 203.82 38.45 204.58 38.93
  Z"
/>
<path fill="#af1abd" d="
  M 72.69 26.19
  C 75.16 47.19 75.38 64.86 76.08 84.30
  Q 76.55 97.43 80.00 114.98
  C 70.59 123.81 63.96 129.70 59.07 135.32
  Q 57.01 137.70 54.53 135.79
  Q 51.99 133.83 48.86 130.55
  Q 24.78 105.25 12.16 90.95
  Q 10.43 88.99 9.96 88.16
  A 2.73 2.72 -41.4 0 1 10.15 85.18
  Q 11.97 82.74 15.59 79.34
  Q 44.01 52.68 72.69 26.19
  Z"
/>
<path fill="#8e2aff" d="
  M 153.34 63.64
  A 2.16 2.15 -23.1 0 1 154.25 61.38
  C 157.34 59.31 160.35 58.24 164.17 57.50
  Q 189.90 52.49 212.43 46.06
  Q 217.56 44.60 220.49 47.25
  Q 222.29 48.88 223.89 54.85
  Q 229.59 76.13 233.81 98.93
  Q 235.68 109.02 238.46 119.26
  Q 241.56 130.68 245.53 147.23
  Q 246.81 152.57 247.17 157.30
  A 1.88 1.82 57.5 0 1 246.98 158.24
  C 245.42 161.30 233.12 163.91 229.04 164.77
  Q 186.69 173.69 186.50 173.72
  C 179.01 174.84 178.44 170.67 176.75 164.16
  Q 172.14 146.42 168.29 126.48
  Q 165.95 114.40 162.90 102.68
  Q 157.30 81.12 153.34 63.64
  Z"
/>
<path fill="#8e2aff" d="
  M 124.13 160.10
  C 122.94 135.50 123.07 110.87 122.55 86.19
  Q 132.25 76.55 143.17 67.94
  Q 144.07 67.23 144.35 67.14
  A 1.55 1.55 0.0 0 1 146.22 67.92
  Q 147.75 70.98 148.80 76.03
  C 153.36 97.93 155.34 108.75 157.91 117.65
  Q 159.42 122.84 159.92 125.38
  C 161.29 132.26 163.66 139.50 165.06 146.40
  Q 167.87 160.20 170.17 171.29
  A 1.00 0.99 85.5 0 1 169.15 172.49
  Q 165.47 172.33 162.24 171.50
  Q 142.91 166.57 124.13 160.10
  Z"
/>
<path fill="#a61ecf" d="
  M 122.55 86.19
  C 123.07 110.87 122.94 135.50 124.13 160.10
  Q 110.75 155.48 97.11 151.75
  C 85.03 148.45 75.30 145.69 65.72 141.37
  A 0.59 0.58 -57.5 0 1 65.52 140.45
  Q 73.48 131.30 81.34 124.09
  Q 101.87 105.25 122.55 86.19
  Z"
/>
<path fill="#c31196" d="
  M 49.09 144.60
  C 49.68 147.17 48.05 151.74 47.25 154.35
  Q 38.91 181.43 37.31 187.93
  Q 35.98 193.33 33.23 198.94
  A 0.55 0.55 0.0 0 1 32.39 199.12
  C 30.99 197.99 30.22 192.64 29.13 187.98
  C 26.24 175.68 24.27 163.17 21.47 150.92
  C 18.66 138.66 15.00 126.54 12.25 114.21
  C 11.21 109.54 9.58 104.38 10.35 102.76
  A 0.55 0.55 0.0 0 1 11.18 102.55
  Q 16.10 106.41 19.64 110.70
  Q 23.91 115.85 43.20 136.62
  C 45.05 138.62 48.50 142.02 49.09 144.60
  Z"
/>
<path fill="#c31196" d="
  M 69.01 151.99
  C 69.60 176.23 69.34 200.11 65.22 224.05
  Q 54.38 220.40 43.35 216.84
  C 40.13 215.80 38.16 214.44 38.94 210.81
  Q 41.13 200.68 44.66 190.17
  Q 52.56 166.58 55.47 157.48
  C 56.40 154.57 57.89 152.01 59.19 149.77
  A 1.08 1.08 0.0 0 1 60.45 149.28
  L 69.01 151.99
  Z"
/>
<path fill="#af1abd" d="
  M 113.68 165.92
  C 116.05 190.22 117.14 214.81 114.24 239.10
  Q 99.55 234.15 84.37 230.37
  Q 78.10 228.81 65.22 224.05
  C 69.34 200.11 69.60 176.23 69.01 151.99
  C 84.65 156.02 98.90 161.04 113.68 165.92
  Z"
/>
<path fill="#9725ec" d="
  M 113.68 165.92
  C 124.09 168.77 134.91 171.62 144.74 174.92
  Q 162.31 180.81 167.95 182.58
  C 170.86 183.50 169.39 191.21 168.81 193.28
  C 163.91 210.66 157.94 227.53 152.44 244.68
  Q 151.43 247.84 148.51 248.96
  A 2.38 2.37 -49.6 0 1 147.18 249.07
  C 135.96 246.77 125.01 243.11 114.24 239.10
  C 117.14 214.81 116.05 190.22 113.68 165.92
  Z"
/>
<path fill="#8e2aff" d="
  M 163.87 237.71
  Q 163.88 237.68 163.84 237.46
  A 0.94 0.88 -43.0 0 1 163.87 237.02
  Q 166.95 228.19 169.49 218.32
  C 171.92 208.88 175.35 198.99 177.89 191.63
  C 179.48 187.01 181.23 184.50 186.57 183.26
  Q 212.32 177.28 230.37 172.56
  Q 231.94 172.15 234.19 171.93
  A 1.35 1.35 0.0 0 1 235.41 174.06
  Q 233.24 177.03 227.03 182.36
  Q 222.24 186.46 218.42 190.12
  Q 210.36 197.84 202.18 205.44
  Q 186.92 219.64 171.58 233.54
  Q 170.34 234.66 169.74 235.29
  Q 168.02 237.12 165.35 238.65
  A 1.00 0.99 77.2 0 1 163.87 237.71
  Z"
/>
</svg>