<?xml version="1.0" encoding="UTF-8" standalone="no"?>
<!DOCTYPE svg PUBLIC "-//W3C//DTD SVG 1.1//EN" "http://www.w3.org/Graphics/SVG/1.1/DTD/svg11.dtd">
<svg xmlns="http://www.w3.org/2000/svg" version="1.1" viewBox="0.00 0.00 128.00 128.00" width="128" height="128">
<path fill="#3598d4" d="
  M 77.13 0.00
  C 99.09 1.76 115.20 17.25 118.87 38.91
  Q 122.79 62.10 109.61 80.96
  C 105.62 86.67 100.27 91.28 95.13 96.62
  A 0.38 0.38 0.0 0 1 94.59 96.62
  L 71.93 73.96
  A 0.46 0.45 46.3 0 1 71.94 73.30
  C 79.91 65.93 87.85 58.60 86.93 47.18
  C 85.89 34.28 75.06 25.22 62.28 25.94
  A 0.28 0.28 0.0 0 1 62.12 25.41
  Q 72.63 19.64 82.80 23.51
  C 89.92 26.23 95.26 33.32 96.87 40.44
  Q 101.19 59.49 87.36 73.30
  A 0.45 0.45 0.0 0 0 87.36 73.93
  L 94.35 80.92
  A 0.76 0.76 0.0 0 0 95.44 80.91
  Q 107.23 68.78 108.64 52.96
  Q 109.89 39.05 103.68 27.88
  C 94.36 11.13 71.07 5.34 54.67 17.27
  C 40.89 27.31 36.06 46.07 44.74 61.25
  Q 46.19 63.78 57.84 75.30
  Q 69.04 86.36 86.74 104.28
  A 0.61 0.61 0.0 0 1 86.74 105.14
  L 64.22 127.66
  A 0.41 0.41 0.0 0 1 63.64 127.66
  Q 31.37 95.07 30.14 93.87
  Q 20.18 84.18 16.87 78.75
  C 8.64 65.23 5.63 49.03 10.57 33.80
  Q 16.19 16.46 32.38 7.84
  A 0.09 0.09 0.0 0 1 32.49 7.98
  C 15.70 25.65 13.30 51.17 25.65 72.04
  Q 28.77 77.31 36.36 84.70
  Q 41.83 90.02 63.59 112.00
  A 0.63 0.62 44.7 0 0 64.48 112.00
  L 71.37 105.04
  A 0.53 0.53 0.0 0 0 71.25 104.20
  Q 71.15 104.14 48.07 80.89
  Q 38.13 70.88 36.55 68.56
  C 24.33 50.59 28.71 26.60 43.37 12.37
  Q 54.32 1.75 70.78 0.00
  L 77.13 0.00
  Z"
/>
</svg>