<?xml version="1.0" encoding="UTF-8" standalone="no"?>
<!DOCTYPE svg PUBLIC "-//W3C//DTD SVG 1.1//EN" "http://www.w3.org/Graphics/SVG/1.1/DTD/svg11.dtd">
<svg xmlns="http://www.w3.org/2000/svg" version="1.1" viewBox="0.00 0.00 192.00 192.00" width="128" height="128">
<path stroke="#80caf2" stroke-width="2.00" fill="none" stroke-linecap="butt" vector-effect="non-scaling-stroke" d="
  M 110.56 137.94
  Q 116.53 132.96 128.82 122.07
  Q 138.31 113.67 142.63 103.27
  C 150.43 84.45 147.10 63.31 133.51 48.29
  C 123.96 37.74 110.11 31.60 95.69 31.71
  C 67.92 31.94 46.00 53.97 45.23 81.55
  C 44.87 94.26 49.33 106.97 57.43 116.37
  Q 84.48 147.78 91.72 156.30
  C 94.10 159.09 97.02 161.62 100.52 159.50
  C 107.29 155.40 104.14 150.87 99.90 146.11
  Q 99.46 145.61 70.99 112.50
  Q 64.25 104.66 62.23 100.53
  C 54.84 85.41 57.24 68.42 68.66 56.24
  C 80.88 43.22 100.98 41.13 115.43 49.94
  C 137.44 63.36 140.69 94.77 121.07 111.81
  Q 113.30 118.57 112.01 119.77
  A 0.67 0.67 0.0 0 1 111.06 119.72
  Q 103.14 110.50 90.06 95.30
  Q 85.67 90.21 84.96 88.81
  C 80.41 79.74 87.39 69.23 97.56 70.48
  C 104.97 71.39 109.31 77.85 108.25 85.28
  Q 107.91 87.66 105.37 91.63
  C 103.54 94.49 105.51 99.28 108.68 100.64
  Q 112.80 102.40 116.28 97.96
  C 125.31 86.41 121.56 68.95 109.49 61.40
  C 102.22 56.85 92.90 56.17 85.49 59.73
  C 70.06 67.15 65.83 86.79 77.11 99.89
  Q 96.12 121.98 109.70 137.87
  A 0.62 0.61 -40.0 0 0 110.56 137.94"
/>
<path fill="#0095e5" d="
  M 170.46 0.00
  Q 188.77 3.20 192.00 21.51
  L 192.00 170.44
  Q 188.82 188.76 170.48 192.00
  L 21.58 192.00
  Q 3.18 188.80 0.00 170.41
  L 0.00 21.54
  Q 3.21 3.23 21.52 0.00
  L 170.46 0.00
  Z
  M 110.56 137.94
  Q 116.53 132.96 128.82 122.07
  Q 138.31 113.67 142.63 103.27
  C 150.43 84.45 147.10 63.31 133.51 48.29
  C 123.96 37.74 110.11 31.60 95.69 31.71
  C 67.92 31.94 46.00 53.97 45.23 81.55
  C 44.87 94.26 49.33 106.97 57.43 116.37
  Q 84.48 147.78 91.72 156.30
  C 94.10 159.09 97.02 161.62 100.52 159.50
  C 107.29 155.40 104.14 150.87 99.90 146.11
  Q 99.46 145.61 70.99 112.50
  Q 64.25 104.66 62.23 100.53
  C 54.84 85.41 57.24 68.42 68.66 56.24
  C 80.88 43.22 100.98 41.13 115.43 49.94
  C 137.44 63.36 140.69 94.77 121.07 111.81
  Q 113.30 118.57 112.01 119.77
  A 0.67 0.67 0.0 0 1 111.06 119.72
  Q 103.14 110.50 90.06 95.30
  Q 85.67 90.21 84.96 88.81
  C 80.41 79.74 87.39 69.23 97.56 70.48
  C 104.97 71.39 109.31 77.85 108.25 85.28
  Q 107.91 87.66 105.37 91.63
  C 103.54 94.49 105.51 99.28 108.68 100.64
  Q 112.80 102.40 116.28 97.96
  C 125.31 86.41 121.56 68.95 109.49 61.40
  C 102.22 56.85 92.90 56.17 85.49 59.73
  C 70.06 67.15 65.83 86.79 77.11 99.89
  Q 96.12 121.98 109.70 137.87
  A 0.62 0.61 -40.0 0 0 110.56 137.94
  Z"
/>
<path fill="#ffffff" d="
  M 110.56 137.94
  A 0.62 0.61 -40.0 0 1 109.70 137.87
  Q 96.12 121.98 77.11 99.89
  C 65.83 86.79 70.06 67.15 85.49 59.73
  C 92.90 56.17 102.22 56.85 109.49 61.40
  C 121.56 68.95 125.31 86.41 116.28 97.96
  Q 112.80 102.40 108.68 100.64
  C 105.51 99.28 103.54 94.49 105.37 91.63
  Q 107.91 87.66 108.25 85.28
  C 109.31 77.85 104.97 71.39 97.56 70.48
  C 87.39 69.23 80.41 79.74 84.96 88.81
  Q 85.67 90.21 90.06 95.30
  Q 103.14 110.50 111.06 119.72
  A 0.67 0.67 0.0 0 0 112.01 119.77
  Q 113.30 118.57 121.07 111.81
  C 140.69 94.77 137.44 63.36 115.43 49.94
  C 100.98 41.13 80.88 43.22 68.66 56.24
  C 57.24 68.42 54.84 85.41 62.23 100.53
  Q 64.25 104.66 70.99 112.50
  Q 99.46 145.61 99.90 146.11
  C 104.14 150.87 107.29 155.40 100.52 159.50
  C 97.02 161.62 94.10 159.09 91.72 156.30
  Q 84.48 147.78 57.43 116.37
  C 49.33 106.97 44.87 94.26 45.23 81.55
  C 46.00 53.97 67.92 31.94 95.69 31.71
  C 110.11 31.60 123.96 37.74 133.51 48.29
  C 147.10 63.31 150.43 84.45 142.63 103.27
  Q 138.31 113.67 128.82 122.07
  Q 116.53 132.96 110.56 137.94
  Z"
/>
</svg>