<?xml version="1.0" encoding="UTF-8" standalone="no"?>
<!DOCTYPE svg PUBLIC "-//W3C//DTD SVG 1.1//EN" "http://www.w3.org/Graphics/SVG/1.1/DTD/svg11.dtd">
<svg xmlns="http://www.w3.org/2000/svg" version="1.1" viewBox="0.00 0.00 256.00 256.00" width="128" height="128">
<path fill="#160f29" d="
  M 252.10 41.46
  Q 252.70 43.25 251.66 46.19
  A 1.30 1.29 -85.5 0 1 250.69 47.02
  Q 250.08 47.13 239.63 53.85
  Q 234.63 57.06 223.64 62.11
  Q 215.54 65.83 206.74 68.34
  Q 184.25 74.75 166.99 76.48
  Q 128.73 80.30 90.75 76.43
  Q 86.02 75.95 72.20 73.57
  Q 62.24 71.85 53.91 69.39
  C 40.91 65.54 29.42 61.18 19.80 55.27
  Q 15.65 52.72 7.16 47.46
  Q 5.86 46.65 4.49 45.08
  A 2.54 2.37 50.5 0 1 4.71 41.50
  C 5.57 40.84 6.60 40.49 7.86 40.38
  C 14.29 39.81 21.37 40.25 29.05 40.25
  Q 128.53 40.17 228.01 40.25
  C 236.16 40.26 243.42 39.87 250.77 40.42
  A 1.55 1.53 82.7 0 1 252.10 41.46
  Z"
/>
<path fill="#160f29" d="
  M 128.39 92.62
  Q 164.64 92.63 203.25 92.20
  Q 207.28 92.15 209.49 92.46
  A 1.16 1.15 -1.0 0 1 210.46 93.39
  Q 210.59 94.03 209.96 95.24
  C 208.80 97.45 205.08 100.97 202.30 102.81
  C 180.06 117.52 154.67 121.24 128.39 121.23
  C 102.11 121.22 76.72 117.49 54.49 102.78
  C 51.70 100.93 47.99 97.41 46.83 95.20
  Q 46.20 93.99 46.33 93.35
  A 1.16 1.15 1.1 0 1 47.30 92.42
  Q 49.51 92.11 53.53 92.16
  Q 92.15 92.61 128.39 92.62
  Z"
/>
<path fill="#160f29" d="
  M 46.17 163.83
  C 46.34 162.43 47.09 161.68 47.96 160.68
  Q 53.54 154.24 58.17 151.68
  Q 83.24 137.77 112.51 136.24
  C 132.29 135.22 151.97 135.57 171.11 140.41
  C 179.42 142.52 187.17 145.91 193.96 149.23
  Q 202.16 153.24 208.81 160.43
  Q 210.34 162.09 210.67 164.28
  A 0.93 0.92 89.3 0 1 209.64 165.34
  Q 200.41 164.18 189.11 164.52
  Q 177.61 164.87 172.05 164.73
  Q 149.89 164.16 69.95 164.72
  C 61.51 164.78 54.39 165.32 46.82 164.63
  A 0.72 0.71 -84.2 0 1 46.17 163.83
  Z"
/>
<path fill="#160f29" d="
  M 252.00 216.12
  Q 248.28 216.85 242.83 216.85
  Q 99.64 216.73 16.11 216.87
  C 12.17 216.88 8.56 216.24 4.73 216.44
  A 1.26 1.25 5.3 0 1 3.44 214.89
  C 4.89 208.96 9.33 208.76 14.17 205.30
  Q 18.97 201.86 25.39 198.65
  Q 44.31 189.18 65.03 184.84
  C 96.08 178.34 127.51 177.55 159.25 179.98
  C 187.00 182.11 215.92 188.71 239.65 203.23
  Q 246.81 207.62 249.46 208.95
  Q 252.94 210.68 252.58 215.48
  A 0.71 0.70 -3.2 0 1 252.00 216.12
  Z"
/>
</svg>