<?xml version="1.0" encoding="UTF-8" standalone="no"?>
<!DOCTYPE svg PUBLIC "-//W3C//DTD SVG 1.1//EN" "http://www.w3.org/Graphics/SVG/1.1/DTD/svg11.dtd">
<svg xmlns="http://www.w3.org/2000/svg" version="1.1" viewBox="0.00 0.00 512.00 512.00" width="128" height="128">
<path stroke="#872b27" stroke-width="2.00" fill="none" stroke-linecap="butt" vector-effect="non-scaling-stroke" d="
  M 233.33 301.29
  C 246.12 308.67 248.87 324.24 240.54 336.15
  C 238.39 339.23 235.10 341.16 230.94 343.94
  C 223.12 349.14 223.85 361.27 231.69 365.82
  Q 272.81 389.71 274.74 390.79
  C 286.31 397.26 298.97 394.90 305.82 383.33
  Q 312.84 371.48 329.27 342.84
  C 332.35 337.48 334.02 333.67 332.07 328.24
  C 329.73 321.70 324.23 319.66 317.48 319.55
  C 303.58 319.31 293.16 306.60 294.59 293.78
  C 296.87 273.25 321.50 264.37 335.89 280.15
  C 338.01 282.47 340.04 287.12 342.71 289.04
  C 348.44 293.17 355.10 292.94 360.19 288.20
  Q 361.71 286.78 365.90 279.48
  Q 383.86 248.19 384.68 246.84
  Q 389.96 238.13 390.61 233.17
  C 392.03 222.26 385.97 215.08 377.12 209.91
  Q 356.11 197.63 338.42 187.68
  Q 335.26 185.90 334.43 184.54
  C 332.41 181.21 334.35 178.52 337.41 176.60
  C 347.13 170.49 352.83 161.69 353.31 150.40
  C 353.82 138.59 347.41 127.17 337.21 121.28
  C 327.01 115.40 313.92 115.57 303.94 121.91
  C 294.41 127.98 289.65 137.32 289.22 148.79
  C 289.09 152.40 287.73 155.43 283.84 155.34
  Q 282.24 155.30 279.12 153.46
  Q 261.66 143.12 240.51 131.07
  C 231.61 126.00 222.36 124.34 213.62 131.03
  Q 209.65 134.08 204.75 143.01
  Q 203.99 144.39 185.89 175.60
  Q 181.66 182.88 181.20 184.91
  C 179.64 191.68 182.77 197.57 189.21 200.46
  C 192.21 201.81 197.25 201.24 200.32 201.92
  C 221.19 206.48 225.82 232.25 209.19 244.50
  C 198.80 252.15 182.58 249.49 175.42 237.57
  C 171.95 231.78 167.43 228.04 160.60 229.29
  C 154.92 230.31 152.46 233.67 149.36 239.02
  Q 132.78 267.57 126.03 279.58
  C 119.44 291.30 123.73 303.44 135.13 310.22
  Q 137.03 311.35 178.28 335.00
  C 186.15 339.51 197.01 334.07 197.60 324.70
  C 197.93 319.71 197.95 315.90 199.54 312.49
  C 205.69 299.32 220.55 293.91 233.33 301.29"
/>
<path fill="#18181a" d="
  M 512.00 0.00
  L 512.00 512.00
  L 0.00 512.00
  L 0.00 0.00
  L 512.00 0.00
  Z
  M 233.33 301.29
  C 246.12 308.67 248.87 324.24 240.54 336.15
  C 238.39 339.23 235.10 341.16 230.94 343.94
  C 223.12 349.14 223.85 361.27 231.69 365.82
  Q 272.81 389.71 274.74 390.79
  C 286.31 397.26 298.97 394.90 305.82 383.33
  Q 312.84 371.48 329.27 342.84
  C 332.35 337.48 334.02 333.67 332.07 328.24
  C 329.73 321.70 324.23 319.66 317.48 319.55
  C 303.58 319.31 293.16 306.60 294.59 293.78
  C 296.87 273.25 321.50 264.37 335.89 280.15
  C 338.01 282.47 340.04 287.12 342.71 289.04
  C 348.44 293.17 355.10 292.94 360.19 288.20
  Q 361.71 286.78 365.90 279.48
  Q 383.86 248.19 384.68 246.84
  Q 389.96 238.13 390.61 233.17
  C 392.03 222.26 385.97 215.08 377.12 209.91
  Q 356.11 197.63 338.42 187.68
  Q 335.26 185.90 334.43 184.54
  C 332.41 181.21 334.35 178.52 337.41 176.60
  C 347.13 170.49 352.83 161.69 353.31 150.40
  C 353.82 138.59 347.41 127.17 337.21 121.28
  C 327.01 115.40 313.92 115.57 303.94 121.91
  C 294.41 127.98 289.65 137.32 289.22 148.79
  C 289.09 152.40 287.73 155.43 283.84 155.34
  Q 282.24 155.30 279.12 153.46
  Q 261.66 143.12 240.51 131.07
  C 231.61 126.00 222.36 124.34 213.62 131.03
  Q 209.65 134.08 204.75 143.01
  Q 203.99 144.39 185.89 175.60
  Q 181.66 182.88 181.20 184.91
  C 179.64 191.68 182.77 197.57 189.21 200.46
  C 192.21 201.81 197.25 201.24 200.32 201.92
  C 221.19 206.48 225.82 232.25 209.19 244.50
  C 198.80 252.15 182.58 249.49 175.42 237.57
  C 171.95 231.78 167.43 228.04 160.60 229.29
  C 154.92 230.31 152.46 233.67 149.36 239.02
  Q 132.78 267.57 126.03 279.58
  C 119.44 291.30 123.73 303.44 135.13 310.22
  Q 137.03 311.35 178.28 335.00
  C 186.15 339.51 197.01 334.07 197.60 324.70
  C 197.93 319.71 197.95 315.90 199.54 312.49
  C 205.69 299.32 220.55 293.91 233.33 301.29
  Z"
/>
<path fill="#f53e34" d="
  M 337.21 121.28
  C 347.41 127.17 353.82 138.59 353.31 150.40
  C 352.83 161.69 347.13 170.49 337.41 176.60
  C 334.35 178.52 332.41 181.21 334.43 184.54
  Q 335.26 185.90 338.42 187.68
  Q 356.11 197.63 377.12 209.91
  C 385.97 215.08 392.03 222.26 390.61 233.17
  Q 389.96 238.13 384.68 246.84
  Q 383.86 248.19 365.90 279.48
  Q 361.71 286.78 360.19 288.20
  C 355.10 292.94 348.44 293.17 342.71 289.04
  C 340.04 287.12 338.01 282.47 335.89 280.15
  C 321.50 264.37 296.87 273.25 294.59 293.78
  C 293.16 306.60 303.58 319.31 317.48 319.55
  C 324.23 319.66 329.73 321.70 332.07 328.24
  C 334.02 333.67 332.35 337.48 329.27 342.84
  Q 312.84 371.48 305.82 383.33
  C 298.97 394.90 286.31 397.26 274.74 390.79
  Q 272.81 389.71 231.69 365.82
  C 223.85 361.27 223.12 349.14 230.94 343.94
  C 235.10 341.16 238.39 339.23 240.54 336.15
  C 248.87 324.24 246.12 308.67 233.33 301.29
  C 220.55 293.91 205.69 299.32 199.54 312.49
  C 197.95 315.90 197.93 319.71 197.60 324.70
  C 197.01 334.07 186.15 339.51 178.28 335.00
  Q 137.03 311.35 135.13 310.22
  C 123.73 303.44 119.44 291.30 126.03 279.58
  Q 132.78 267.57 149.36 239.02
  C 152.46 233.67 154.92 230.31 160.60 229.29
  C 167.43 228.04 171.95 231.78 175.42 237.57
  C 182.58 249.49 198.80 252.15 209.19 244.50
  C 225.82 232.25 221.19 206.48 200.32 201.92
  C 197.25 201.24 192.21 201.81 189.21 200.46
  C 182.77 197.57 179.64 191.68 181.20 184.91
  Q 181.66 182.88 185.89 175.60
  Q 203.99 144.39 204.75 143.01
  Q 209.65 134.08 213.62 131.03
  C 222.36 124.34 231.61 126.00 240.51 131.07
  Q 261.66 143.12 279.12 153.46
  Q 282.24 155.30 283.84 155.34
  C 287.73 155.43 289.09 152.40 289.22 148.79
  C 289.65 137.32 294.41 127.98 303.94 121.91
  C 313.92 115.57 327.01 115.40 337.21 121.28
  Z"
/>
</svg>