<?xml version="1.0" encoding="UTF-8" standalone="no"?>
<!DOCTYPE svg PUBLIC "-//W3C//DTD SVG 1.1//EN" "http://www.w3.org/Graphics/SVG/1.1/DTD/svg11.dtd">
<svg xmlns="http://www.w3.org/2000/svg" version="1.1" viewBox="0.00 0.00 256.00 256.00" width="128" height="128">
<g stroke-width="2.00" fill="none" stroke-linecap="butt">
<path stroke="#9cb4e3" vector-effect="non-scaling-stroke" d="
  M 26.92 78.27
  Q 26.74 78.45 26.74 78.76
  Q 26.74 112.06 26.77 176.14
  A 0.41 0.41 0.0 0 0 27.19 176.55
  C 53.28 176.28 77.95 166.16 96.43 147.66
  C 114.92 129.16 125.02 104.48 125.26 78.39
  A 0.41 0.41 0.0 0 0 124.85 77.97
  Q 60.76 78.00 27.46 78.03
  Q 27.16 78.03 26.92 78.27"
/>
<path stroke="#9cb4e3" vector-effect="non-scaling-stroke" d="
  M 135.76 176.30
  Q 135.94 176.49 136.24 176.49
  Q 169.53 176.50 233.59 176.49
  A 0.41 0.41 0.0 0 0 234.00 176.07
  C 233.74 149.99 223.64 125.33 205.15 106.84
  C 186.67 88.36 162.00 78.25 135.92 78.00
  A 0.41 0.41 0.0 0 0 135.50 78.41
  Q 135.50 142.47 135.51 175.76
  Q 135.51 176.06 135.76 176.30"
/>
</g>
<path fill="#3968c6" d="
  M 256.00 0.00
  L 256.00 256.00
  L 0.00 256.00
  L 0.00 0.00
  L 256.00 0.00
  Z
  M 26.92 78.27
  Q 26.74 78.45 26.74 78.76
  Q 26.74 112.06 26.77 176.14
  A 0.41 0.41 0.0 0 0 27.19 176.55
  C 53.28 176.28 77.95 166.16 96.43 147.66
  C 114.92 129.16 125.02 104.48 125.26 78.39
  A 0.41 0.41 0.0 0 0 124.85 77.97
  Q 60.76 78.00 27.46 78.03
  Q 27.16 78.03 26.92 78.27
  Z
  M 135.76 176.30
  Q 135.94 176.49 136.24 176.49
  Q 169.53 176.50 233.59 176.49
  A 0.41 0.41 0.0 0 0 234.00 176.07
  C 233.74 149.99 223.64 125.33 205.15 106.84
  C 186.67 88.36 162.00 78.25 135.92 78.00
  A 0.41 0.41 0.0 0 0 135.50 78.41
  Q 135.50 142.47 135.51 175.76
  Q 135.51 176.06 135.76 176.30
  Z"
/>
<path fill="#ffffff" d="
  M 26.92 78.27
  Q 27.16 78.03 27.46 78.03
  Q 60.76 78.00 124.85 77.97
  A 0.41 0.41 0.0 0 1 125.26 78.39
  C 125.02 104.48 114.92 129.16 96.43 147.66
  C 77.95 166.16 53.28 176.28 27.19 176.55
  A 0.41 0.41 0.0 0 1 26.77 176.14
  Q 26.74 112.06 26.74 78.76
  Q 26.74 78.45 26.92 78.27
  Z"
/>
<path fill="#ffffff" d="
  M 205.15 106.84
  C 223.64 125.33 233.74 149.99 234.00 176.07
  A 0.41 0.41 0.0 0 1 233.59 176.49
  Q 169.53 176.50 136.24 176.49
  Q 135.94 176.49 135.76 176.30
  Q 135.51 176.06 135.51 175.76
  Q 135.50 142.47 135.50 78.41
  A 0.41 0.41 0.0 0 1 135.92 78.00
  C 162.00 78.25 186.67 88.36 205.15 106.84
  Z"
/>
</svg>