<?xml version="1.0" encoding="UTF-8" standalone="no"?>
<!DOCTYPE svg PUBLIC "-//W3C//DTD SVG 1.1//EN" "http://www.w3.org/Graphics/SVG/1.1/DTD/svg11.dtd">
<svg xmlns="http://www.w3.org/2000/svg" version="1.1" viewBox="0.00 0.00 192.00 192.00" width="128" height="128">
<path fill="#002b49" d="
  M 0.00 117.52
  L 0.00 111.86
  Q 2.23 98.05 13.47 91.85
  C 20.16 88.16 27.27 87.60 34.39 90.35
  A 0.39 0.39 0.0 0 0 34.87 90.17
  Q 42.72 75.33 59.68 75.36
  A 0.68 0.67 -82.8 0 0 60.33 74.85
  Q 64.64 58.05 79.33 51.12
  C 94.72 43.86 113.32 49.56 122.19 63.91
  A 0.58 0.57 66.9 0 0 122.80 64.16
  Q 138.47 60.66 149.27 70.55
  C 154.43 75.28 157.74 82.26 157.94 89.23
  A 0.31 0.31 0.0 0 0 158.31 89.53
  Q 171.19 87.05 180.36 93.97
  C 198.11 107.35 191.86 135.67 170.10 140.14
  Q 166.83 140.81 158.33 140.64
  A 0.68 0.67 83.2 0 1 157.69 140.13
  Q 156.69 136.11 155.99 134.97
  C 151.31 127.38 144.16 123.95 135.77 121.32
  A 0.25 0.24 -59.9 0 1 135.67 120.92
  C 142.48 113.86 144.07 103.19 139.41 94.61
  C 128.90 75.27 99.91 80.51 97.19 102.75
  Q 96.00 112.46 103.22 120.76
  A 0.42 0.42 0.0 0 1 103.00 121.44
  Q 95.06 123.36 87.91 129.08
  A 0.67 0.65 35.8 0 1 87.24 129.18
  L 78.75 125.70
  A 0.48 0.48 0.0 0 1 78.60 124.92
  C 86.03 117.51 85.08 105.10 77.97 98.07
  C 66.60 86.83 47.94 93.66 45.48 108.94
  Q 44.08 117.61 50.49 125.19
  A 0.44 0.44 0.0 0 1 50.27 125.89
  C 42.74 127.88 35.07 132.28 32.36 140.03
  A 0.69 0.66 8.5 0 1 31.73 140.48
  Q 22.70 140.69 20.67 140.15
  Q 3.22 135.43 0.00 117.52
  Z"
/>
</svg>