<?xml version="1.0" encoding="UTF-8" standalone="no"?>
<!DOCTYPE svg PUBLIC "-//W3C//DTD SVG 1.1//EN" "http://www.w3.org/Graphics/SVG/1.1/DTD/svg11.dtd">
<svg xmlns="http://www.w3.org/2000/svg" version="1.1" viewBox="0.00 0.00 256.00 256.00" width="128" height="128">
<path fill="#008bbe" d="
  M 67.43 238.98
  A 2.22 2.22 0.0 0 1 65.60 236.95
  Q 64.68 223.46 64.70 209.50
  Q 64.79 151.76 64.70 42.25
  Q 64.69 30.60 66.12 20.16
  A 2.46 2.46 0.0 0 1 68.08 18.08
  Q 79.75 15.73 91.27 17.51
  Q 95.34 18.14 95.36 21.44
  C 95.40 30.11 96.20 35.76 96.17 44.15
  Q 96.08 75.20 96.15 118.90
  C 96.15 123.41 96.77 127.99 96.62 132.15
  Q 96.42 138.07 97.23 142.95
  A 1.11 1.10 85.4 0 0 98.32 143.88
  Q 99.37 143.89 100.44 142.93
  Q 109.58 134.75 117.04 126.72
  C 126.45 116.60 134.61 108.86 146.69 96.73
  Q 152.79 90.60 162.53 90.85
  Q 177.06 91.21 185.79 91.36
  A 2.87 2.83 51.8 0 1 186.50 91.45
  C 193.61 93.16 188.37 101.04 185.27 104.03
  Q 181.31 107.85 176.75 112.25
  Q 159.48 128.93 142.53 145.53
  Q 137.20 150.74 135.32 152.31
  C 133.46 153.85 131.16 157.11 133.35 159.29
  C 137.72 163.64 141.07 168.50 145.41 173.89
  Q 147.46 176.44 187.35 225.90
  Q 190.42 229.70 193.25 235.26
  C 195.43 239.53 187.93 239.79 185.25 239.89
  Q 177.80 240.17 163.27 240.00
  C 155.94 239.92 152.61 237.18 147.87 231.12
  Q 130.95 209.48 113.87 187.38
  C 111.96 184.90 106.29 178.34 103.06 182.53
  C 100.76 185.52 99.28 187.67 98.52 191.62
  C 97.80 195.39 96.81 198.84 96.66 202.39
  Q 95.90 220.95 94.64 237.41
  A 2.24 2.23 88.2 0 1 92.73 239.45
  Q 80.19 241.22 67.43 238.98
  Z"
/>
</svg>