<?xml version="1.0" encoding="UTF-8" standalone="no"?>
<!DOCTYPE svg PUBLIC "-//W3C//DTD SVG 1.1//EN" "http://www.w3.org/Graphics/SVG/1.1/DTD/svg11.dtd">
<svg xmlns="http://www.w3.org/2000/svg" version="1.1" viewBox="0.00 0.00 256.00 256.00" width="128" height="128">
<g stroke-width="2.00" fill="none" stroke-linecap="butt">
<path stroke="#a396f0" vector-effect="non-scaling-stroke" d="
  M 45.08 127.99
  Q 45.08 140.38 45.12 152.76
  Q 45.15 163.13 46.65 167.62
  Q 50.01 177.66 59.61 183.26
  Q 79.90 195.08 113.86 214.12
  Q 120.14 217.64 127.93 217.64
  Q 135.72 217.64 142.00 214.12
  Q 175.97 195.10 196.27 183.28
  Q 205.87 177.69 209.23 167.65
  Q 210.73 163.16 210.77 152.79
  Q 210.81 140.41 210.81 128.02
  Q 210.81 115.63 210.78 103.26
  Q 210.75 92.88 209.25 88.39
  Q 205.89 78.35 196.29 72.75
  Q 176.00 60.93 142.03 41.90
  Q 135.75 38.38 127.96 38.37
  Q 120.17 38.37 113.89 41.89
  Q 79.92 60.92 59.63 72.73
  Q 50.03 78.33 46.66 88.37
  Q 45.16 92.86 45.13 103.23
  Q 45.09 115.60 45.08 127.99"
/>
<path stroke="#a396f0" vector-effect="non-scaling-stroke" d="
  M 96.22 96.07
  L 151.47 64.24
  A 0.21 0.21 0.0 0 0 151.46 63.87
  Q 150.02 63.13 138.33 56.30
  C 131.32 52.21 125.61 50.71 118.71 54.60
  Q 112.76 57.98 95.97 67.50
  A 0.46 0.45 -16.0 0 0 95.74 67.90
  L 95.70 95.77
  A 0.34 0.34 0.0 0 0 96.22 96.07"
/>
<path stroke="#a396f0" vector-effect="non-scaling-stroke" d="
  M 140.43 85.25
  L 196.38 117.56
  A 0.22 0.21 -76.5 0 0 196.70 117.36
  Q 196.62 115.73 196.68 102.01
  C 196.71 93.79 195.13 88.02 188.21 83.94
  Q 182.23 80.43 165.36 70.53
  A 0.47 0.45 44.0 0 0 164.89 70.53
  L 140.43 84.65
  A 0.35 0.35 0.0 0 0 140.43 85.25"
/>
<path stroke="#a396f0" vector-effect="non-scaling-stroke" d="
  M 83.05 74.57
  Q 74.45 79.20 66.11 84.02
  Q 57.44 89.03 57.36 98.06
  Q 57.27 107.88 57.25 124.67
  A 1.06 1.05 -75.8 0 0 57.80 125.60
  L 82.99 139.79
  A 0.28 0.28 0.0 0 0 83.41 139.54
  L 83.41 74.79
  A 0.25 0.25 0.0 0 0 83.05 74.57"
/>
<path stroke="#a396f0" vector-effect="non-scaling-stroke" d="
  M 160.24 110.67
  A 0.32 0.32 0.0 0 0 160.08 110.39
  L 127.83 92.23
  A 0.32 0.32 0.0 0 0 127.51 92.23
  L 102.40 106.73
  A 0.32 0.32 0.0 0 0 102.40 107.29
  L 159.76 139.59
  A 0.32 0.32 0.0 0 0 160.24 139.31
  L 160.24 110.67"
/>
<path stroke="#a396f0" vector-effect="non-scaling-stroke" d="
  M 95.63 145.31
  A 0.33 0.33 0.0 0 0 95.80 145.59
  L 128.06 163.77
  A 0.33 0.33 0.0 0 0 128.38 163.77
  L 153.48 149.27
  A 0.33 0.33 0.0 0 0 153.48 148.70
  L 96.12 116.41
  A 0.33 0.33 0.0 0 0 95.63 116.69
  L 95.63 145.31"
/>
<path stroke="#a396f0" vector-effect="non-scaling-stroke" d="
  M 172.85 181.43
  Q 181.44 176.81 189.78 171.99
  Q 198.45 166.99 198.53 157.96
  Q 198.62 148.15 198.65 131.37
  A 1.06 1.05 -75.8 0 0 198.10 130.44
  L 172.93 116.25
  A 0.28 0.28 0.0 0 0 172.51 116.50
  L 172.49 181.21
  A 0.25 0.25 0.0 0 0 172.85 181.43"
/>
<path stroke="#a396f0" vector-effect="non-scaling-stroke" d="
  M 115.45 170.76
  L 59.53 138.47
  A 0.22 0.21 -76.5 0 0 59.21 138.67
  Q 59.29 140.30 59.23 154.01
  C 59.20 162.23 60.78 168.00 67.69 172.07
  Q 73.67 175.58 90.53 185.47
  A 0.47 0.45 44.0 0 0 91.00 185.47
  L 115.45 171.36
  A 0.35 0.35 0.0 0 0 115.45 170.76"
/>
<path stroke="#a396f0" vector-effect="non-scaling-stroke" d="
  M 159.68 159.92
  L 104.42 191.78
  A 0.21 0.21 0.0 0 0 104.44 192.15
  Q 105.87 192.89 117.56 199.72
  C 124.58 203.81 130.29 205.31 137.19 201.41
  Q 143.15 198.03 159.94 188.50
  A 0.46 0.45 -16.0 0 0 160.17 188.10
  L 160.19 160.21
  A 0.34 0.34 0.0 0 0 159.68 159.92"
/>
</g>
<path fill="#462de0" d="
  M 256.00 0.00
  L 256.00 256.00
  L 0.00 256.00
  L 0.00 0.00
  L 256.00 0.00
  Z
  M 45.08 127.99
  Q 45.08 140.38 45.12 152.76
  Q 45.15 163.13 46.65 167.62
  Q 50.01 177.66 59.61 183.26
  Q 79.90 195.08 113.86 214.12
  Q 120.14 217.64 127.93 217.64
  Q 135.72 217.64 142.00 214.12
  Q 175.97 195.10 196.27 183.28
  Q 205.87 177.69 209.23 167.65
  Q 210.73 163.16 210.77 152.79
  Q 210.81 140.41 210.81 128.02
  Q 210.81 115.63 210.78 103.26
  Q 210.75 92.88 209.25 88.39
  Q 205.89 78.35 196.29 72.75
  Q 176.00 60.93 142.03 41.90
  Q 135.75 38.38 127.96 38.37
  Q 120.17 38.37 113.89 41.89
  Q 79.92 60.92 59.63 72.73
  Q 50.03 78.33 46.66 88.37
  Q 45.16 92.86 45.13 103.23
  Q 45.09 115.60 45.08 127.99
  Z"
/>
<path fill="#ffffff" d="
  M 127.96 38.37
  Q 135.75 38.38 142.03 41.90
  Q 176.00 60.93 196.29 72.75
  Q 205.89 78.35 209.25 88.39
  Q 210.75 92.88 210.78 103.26
  Q 210.81 115.63 210.81 128.02
  Q 210.81 140.41 210.77 152.79
  Q 210.73 163.16 209.23 167.65
  Q 205.87 177.69 196.27 183.28
  Q 175.97 195.10 142.00 214.12
  Q 135.72 217.64 127.93 217.64
  Q 120.14 217.64 113.86 214.12
  Q 79.90 195.08 59.61 183.26
  Q 50.01 177.66 46.65 167.62
  Q 45.15 163.13 45.12 152.76
  Q 45.08 140.38 45.08 127.99
  Q 45.09 115.60 45.13 103.23
  Q 45.16 92.86 46.66 88.37
  Q 50.03 78.33 59.63 72.73
  Q 79.92 60.92 113.89 41.89
  Q 120.17 38.37 127.96 38.37
  Z
  M 96.22 96.07
  L 151.47 64.24
  A 0.21 0.21 0.0 0 0 151.46 63.87
  Q 150.02 63.13 138.33 56.30
  C 131.32 52.21 125.61 50.71 118.71 54.60
  Q 112.76 57.98 95.97 67.50
  A 0.46 0.45 -16.0 0 0 95.74 67.90
  L 95.70 95.77
  A 0.34 0.34 0.0 0 0 96.22 96.07
  Z
  M 140.43 85.25
  L 196.38 117.56
  A 0.22 0.21 -76.5 0 0 196.70 117.36
  Q 196.62 115.73 196.68 102.01
  C 196.71 93.79 195.13 88.02 188.21 83.94
  Q 182.23 80.43 165.36 70.53
  A 0.47 0.45 44.0 0 0 164.89 70.53
  L 140.43 84.65
  A 0.35 0.35 0.0 0 0 140.43 85.25
  Z
  M 83.05 74.57
  Q 74.45 79.20 66.11 84.02
  Q 57.44 89.03 57.36 98.06
  Q 57.27 107.88 57.25 124.67
  A 1.06 1.05 -75.8 0 0 57.80 125.60
  L 82.99 139.79
  A 0.28 0.28 0.0 0 0 83.41 139.54
  L 83.41 74.79
  A 0.25 0.25 0.0 0 0 83.05 74.57
  Z
  M 160.24 110.67
  A 0.32 0.32 0.0 0 0 160.08 110.39
  L 127.83 92.23
  A 0.32 0.32 0.0 0 0 127.51 92.23
  L 102.40 106.73
  A 0.32 0.32 0.0 0 0 102.40 107.29
  L 159.76 139.59
  A 0.32 0.32 0.0 0 0 160.24 139.31
  L 160.24 110.67
  Z
  M 95.63 145.31
  A 0.33 0.33 0.0 0 0 95.80 145.59
  L 128.06 163.77
  A 0.33 0.33 0.0 0 0 128.38 163.77
  L 153.48 149.27
  A 0.33 0.33 0.0 0 0 153.48 148.70
  L 96.12 116.41
  A 0.33 0.33 0.0 0 0 95.63 116.69
  L 95.63 145.31
  Z
  M 172.85 181.43
  Q 181.44 176.81 189.78 171.99
  Q 198.45 166.99 198.53 157.96
  Q 198.62 148.15 198.65 131.37
  A 1.06 1.05 -75.8 0 0 198.10 130.44
  L 172.93 116.25
  A 0.28 0.28 0.0 0 0 172.51 116.50
  L 172.49 181.21
  A 0.25 0.25 0.0 0 0 172.85 181.43
  Z
  M 115.45 170.76
  L 59.53 138.47
  A 0.22 0.21 -76.5 0 0 59.21 138.67
  Q 59.29 140.30 59.23 154.01
  C 59.20 162.23 60.78 168.00 67.69 172.07
  Q 73.67 175.58 90.53 185.47
  A 0.47 0.45 44.0 0 0 91.00 185.47
  L 115.45 171.36
  A 0.35 0.35 0.0 0 0 115.45 170.76
  Z
  M 159.68 159.92
  L 104.42 191.78
  A 0.21 0.21 0.0 0 0 104.44 192.15
  Q 105.87 192.89 117.56 199.72
  C 124.58 203.81 130.29 205.31 137.19 201.41
  Q 143.15 198.03 159.94 188.50
  A 0.46 0.45 -16.0 0 0 160.17 188.10
  L 160.19 160.21
  A 0.34 0.34 0.0 0 0 159.68 159.92
  Z"
/>
<path fill="#462de0" d="
  M 96.22 96.07
  A 0.34 0.34 0.0 0 1 95.70 95.77
  L 95.74 67.90
  A 0.46 0.45 -16.0 0 1 95.97 67.50
  Q 112.76 57.98 118.71 54.60
  C 125.61 50.71 131.32 52.21 138.33 56.30
  Q 150.02 63.13 151.46 63.87
  A 0.21 0.21 0.0 0 1 151.47 64.24
  L 96.22 96.07
  Z"
/>
<path fill="#462de0" d="
  M 140.43 85.25
  A 0.35 0.35 0.0 0 1 140.43 84.65
  L 164.89 70.53
  A 0.47 0.45 44.0 0 1 165.36 70.53
  Q 182.23 80.43 188.21 83.94
  C 195.13 88.02 196.71 93.79 196.68 102.01
  Q 196.62 115.73 196.70 117.36
  A 0.22 0.21 -76.5 0 1 196.38 117.56
  L 140.43 85.25
  Z"
/>
<path fill="#462de0" d="
  M 83.05 74.57
  A 0.25 0.25 0.0 0 1 83.41 74.79
  L 83.41 139.54
  A 0.28 0.28 0.0 0 1 82.99 139.79
  L 57.80 125.60
  A 1.06 1.05 -75.8 0 1 57.25 124.67
  Q 57.27 107.88 57.36 98.06
  Q 57.44 89.03 66.11 84.02
  Q 74.45 79.20 83.05 74.57
  Z"
/>
<path fill="#462de0" d="
  M 160.24 110.67
  L 160.24 139.31
  A 0.32 0.32 0.0 0 1 159.76 139.59
  L 102.40 107.29
  A 0.32 0.32 0.0 0 1 102.40 106.73
  L 127.51 92.23
  A 0.32 0.32 0.0 0 1 127.83 92.23
  L 160.08 110.39
  A 0.32 0.32 0.0 0 1 160.24 110.67
  Z"
/>
<path fill="#462de0" d="
  M 95.63 145.31
  L 95.63 116.69
  A 0.33 0.33 0.0 0 1 96.12 116.41
  L 153.48 148.70
  A 0.33 0.33 0.0 0 1 153.48 149.27
  L 128.38 163.77
  A 0.33 0.33 0.0 0 1 128.06 163.77
  L 95.80 145.59
  A 0.33 0.33 0.0 0 1 95.63 145.31
  Z"
/>
<path fill="#462de0" d="
  M 172.85 181.43
  A 0.25 0.25 0.0 0 1 172.49 181.21
  L 172.51 116.50
  A 0.28 0.28 0.0 0 1 172.93 116.25
  L 198.10 130.44
  A 1.06 1.05 -75.8 0 1 198.65 131.37
  Q 198.62 148.15 198.53 157.96
  Q 198.45 166.99 189.78 171.99
  Q 181.44 176.81 172.85 181.43
  Z"
/>
<path fill="#462de0" d="
  M 115.45 170.76
  A 0.35 0.35 0.0 0 1 115.45 171.36
  L 91.00 185.47
  A 0.47 0.45 44.0 0 1 90.53 185.47
  Q 73.67 175.58 67.69 172.07
  C 60.78 168.00 59.20 162.23 59.23 154.01
  Q 59.29 140.30 59.21 138.67
  A 0.22 0.21 -76.5 0 1 59.53 138.47
  L 115.45 170.76
  Z"
/>
<path fill="#462de0" d="
  M 159.68 159.92
  A 0.34 0.34 0.0 0 1 160.19 160.21
  L 160.17 188.10
  A 0.46 0.45 -16.0 0 1 159.94 188.50
  Q 143.15 198.03 137.19 201.41
  C 130.29 205.31 124.58 203.81 117.56 199.72
  Q 105.87 192.89 104.44 192.15
  A 0.21 0.21 0.0 0 1 104.42 191.78
  L 159.68 159.92
  Z"
/>
</svg>