<?xml version="1.0" encoding="UTF-8" standalone="no"?>
<!DOCTYPE svg PUBLIC "-//W3C//DTD SVG 1.1//EN" "http://www.w3.org/Graphics/SVG/1.1/DTD/svg11.dtd">
<svg xmlns="http://www.w3.org/2000/svg" version="1.1" viewBox="0.00 0.00 169.00 169.00" width="128" height="128">
<g stroke-width="2.00" fill="none" stroke-linecap="butt">
<path stroke="#747e18" stroke-opacity="0.875" vector-effect="non-scaling-stroke" d="
  M 83.17 149.83
  Q 87.38 147.12 88.74 144.22
  Q 118.43 80.55 148.28 16.17"
/>
<path stroke="#6c7516" stroke-opacity="0.937" vector-effect="non-scaling-stroke" d="
  M 148.28 16.17
  L 120.34 16.10
  A 0.68 0.68 0.0 0 0 119.71 16.49
  L 55.76 151.63
  A 0.51 0.51 0.0 0 0 56.20 152.35
  Q 65.12 152.76 74.25 152.95
  Q 78.45 153.04 83.17 149.83"
/>
<path stroke="#6c7516" stroke-opacity="0.937" vector-effect="non-scaling-stroke" d="
  M 23.99 108.97
  Q 24.08 109.05 24.10 109.05
  Q 40.60 109.19 58.34 109.24
  A 0.40 0.40 0.0 0 0 58.74 108.84
  Q 58.84 89.51 58.83 89.25
  Q 58.49 82.01 54.80 78.31
  Q 51.12 74.61 43.88 74.23
  Q 43.62 74.22 24.29 74.22
  A 0.40 0.40 0.0 0 0 23.89 74.62
  Q 23.85 92.36 23.91 108.86
  Q 23.91 108.88 23.99 108.97"
/>
</g>
<path fill="#cadb2a" d="
  M 68.13 0.00
  Q 111.19 0.19 154.25 0.28
  Q 166.55 0.31 169.00 12.75
  L 169.00 80.69
  Q 168.80 116.97 168.69 153.25
  Q 168.65 166.46 156.26 169.00
  L 100.86 169.00
  Q 57.81 168.80 14.75 168.72
  Q 2.45 168.69 0.00 156.25
  L 0.00 86.31
  Q 0.31 30.42 0.31 15.50
  Q 0.30 2.54 12.74 0.00
  L 68.13 0.00
  Z
  M 83.17 149.83
  Q 87.38 147.12 88.74 144.22
  Q 118.43 80.55 148.28 16.17
  L 120.34 16.10
  A 0.68 0.68 0.0 0 0 119.71 16.49
  L 55.76 151.63
  A 0.51 0.51 0.0 0 0 56.20 152.35
  Q 65.12 152.76 74.25 152.95
  Q 78.45 153.04 83.17 149.83
  Z
  M 23.99 108.97
  Q 24.08 109.05 24.10 109.05
  Q 40.60 109.19 58.34 109.24
  A 0.40 0.40 0.0 0 0 58.74 108.84
  Q 58.84 89.51 58.83 89.25
  Q 58.49 82.01 54.80 78.31
  Q 51.12 74.61 43.88 74.23
  Q 43.62 74.22 24.29 74.22
  A 0.40 0.40 0.0 0 0 23.89 74.62
  Q 23.85 92.36 23.91 108.86
  Q 23.91 108.88 23.99 108.97
  Z"
/>
<path fill="#000000" fill-opacity="0.871" d="
  M 148.28 16.17
  Q 145.84 19.83 142.11 27.84
  Q 116.28 83.29 90.49 138.76
  Q 87.69 144.79 83.17 149.83
  Q 78.45 153.04 74.25 152.95
  Q 65.12 152.76 56.20 152.35
  A 0.51 0.51 0.0 0 1 55.76 151.63
  L 119.71 16.49
  A 0.68 0.68 0.0 0 1 120.34 16.10
  L 148.28 16.17
  Z"
/>
<path fill="#010200" fill-opacity="0.749" d="
  M 83.17 149.83
  Q 87.69 144.79 90.49 138.76
  Q 116.28 83.29 142.11 27.84
  Q 145.84 19.83 148.28 16.17
  Q 118.43 80.55 88.74 144.22
  Q 87.38 147.12 83.17 149.83
  Z"
/>
<path fill="#000000" fill-opacity="0.871" d="
  M 54.80 78.31
  Q 58.49 82.01 58.83 89.25
  Q 58.84 89.51 58.74 108.84
  A 0.40 0.40 0.0 0 1 58.34 109.24
  Q 40.60 109.19 24.10 109.05
  Q 24.08 109.05 23.99 108.97
  Q 23.91 108.88 23.91 108.86
  Q 23.85 92.36 23.89 74.62
  A 0.40 0.40 0.0 0 1 24.29 74.22
  Q 43.62 74.22 43.88 74.23
  Q 51.12 74.61 54.80 78.31
  Z"
/>
</svg>