<?xml version="1.0" encoding="UTF-8" standalone="no"?>
<!DOCTYPE svg PUBLIC "-//W3C//DTD SVG 1.1//EN" "http://www.w3.org/Graphics/SVG/1.1/DTD/svg11.dtd">
<svg xmlns="http://www.w3.org/2000/svg" version="1.1" viewBox="0.00 0.00 128.00 128.00" width="128" height="128">
<g stroke-width="2.00" fill="none" stroke-linecap="butt">
<path stroke="#0a7fde" vector-effect="non-scaling-stroke" d="
  M 97.79 59.19
  L 90.19 58.73"
/>
<path stroke="#0788e3" vector-effect="non-scaling-stroke" d="
  M 62.29 40.51
  Q 55.13 41.73 49.06 38.76"
/>
<path stroke="#0788e3" vector-effect="non-scaling-stroke" d="
  M 48.61 39.50
  Q 44.64 41.56 40.41 41.01"
/>
<path stroke="#0d71d6" vector-effect="non-scaling-stroke" d="
  M 38.34 58.09
  Q 34.76 57.96 31.89 56.23"
/>
<path stroke="#0d71d6" vector-effect="non-scaling-stroke" d="
  M 73.76 68.19
  L 66.37 68.44"
/>
<path stroke="#0d71d6" vector-effect="non-scaling-stroke" d="
  M 47.20 68.47
  L 39.38 68.45"
/>
<path stroke="#1357c7" vector-effect="non-scaling-stroke" d="
  M 108.83 78.97
  L 101.72 79.36"
/>
<path stroke="#154ec2" vector-effect="non-scaling-stroke" d="
  M 87.79 94.20
  L 80.16 94.02"
/>
<path stroke="#115ecb" vector-effect="non-scaling-stroke" d="
  M 41.06 78.98
  L 33.20 79.63"
/>
<path stroke="#1357c7" vector-effect="non-scaling-stroke" d="
  M 22.18 85.89
  L 15.20 86.07"
/>
</g>
<path fill="#0496eb" d="
  M 97.79 59.19
  L 90.19 58.73
  L 73.67 29.25
  A 1.10 1.08 -14.2 0 0 72.71 28.69
  L 66.98 28.69
  A 0.57 0.56 -5.4 0 0 66.42 29.36
  Q 67.87 36.52 62.29 40.51
  Q 55.13 41.73 49.06 38.76
  Q 48.72 39.13 48.61 39.50
  Q 44.64 41.56 40.41 41.01
  Q 44.49 33.49 48.73 25.98
  C 50.46 22.92 54.03 22.01 57.96 22.16
  Q 63.27 22.37 74.08 22.38
  Q 77.38 22.39 79.17 25.59
  Q 88.55 42.31 97.79 59.19
  Z
  M 60.28 32.00
  A 3.65 3.65 0.0 0 0 56.63 28.35
  A 3.65 3.65 0.0 0 0 52.98 32.00
  A 3.65 3.65 0.0 0 0 56.63 35.65
  A 3.65 3.65 0.0 0 0 60.28 32.00
  Z"
/>
<path fill="#0a7adb" d="
  M 62.29 40.51
  Q 60.95 41.46 59.80 41.75
  A 0.57 0.56 68.9 0 0 59.44 42.58
  L 73.76 68.19
  L 66.37 68.44
  L 57.19 51.96
  A 0.48 0.47 44.8 0 0 56.36 51.96
  L 47.20 68.47
  L 39.38 68.45
  L 54.06 42.44
  A 0.43 0.43 0.0 0 0 53.84 41.82
  Q 51.06 40.75 49.06 38.76
  Q 55.13 41.73 62.29 40.51
  Z"
/>
<path fill="#0a7adb" d="
  M 48.61 39.50
  L 38.34 58.09
  Q 34.76 57.96 31.89 56.23
  L 40.41 41.01
  Q 44.64 41.56 48.61 39.50
  Z"
/>
<rect fill="#0a7adb" x="-3.32" y="-14.21" transform="translate(76.12,52.94) rotate(-29.5)" width="6.64" height="28.42" rx="3.25"/>
<path fill="#0f67d0" d="
  M 31.89 56.23
  Q 34.76 57.96 38.34 58.09
  Q 31.00 71.44 23.50 84.60
  Q 23.05 85.38 23.02 85.41
  Q 22.75 85.64 22.18 85.89
  L 15.20 86.07
  L 31.89 56.23
  Z"
/>
<path fill="#0f67d0" d="
  M 97.79 59.19
  L 108.83 78.97
  L 101.72 79.36
  L 90.19 58.73
  L 97.79 59.19
  Z"
/>
<path fill="#0f67d0" d="
  M 73.76 68.19
  C 75.89 71.14 75.48 74.80 71.25 74.82
  Q 57.67 74.90 44.09 74.84
  A 0.88 0.87 -74.1 0 0 43.32 75.27
  L 41.06 78.98
  L 33.20 79.63
  L 39.38 68.45
  L 47.20 68.47
  L 66.37 68.44
  L 73.76 68.19
  Z"
/>
<rect fill="#1355c6" x="-3.30" y="-10.89" transform="translate(91.59,80.41) rotate(-29.1)" width="6.60" height="21.78" rx="3.21"/>
<path fill="#1355c6" d="
  M 41.06 78.98
  L 38.76 82.98
  A 0.56 0.56 0.0 0 0 39.24 83.82
  L 44.97 83.82
  A 1.47 1.46 10.4 0 0 46.34 82.88
  Q 47.16 80.77 50.73 80.78
  Q 63.12 80.80 78.36 80.81
  A 3.37 3.37 0.0 0 1 81.31 82.55
  L 87.79 94.20
  L 80.16 94.02
  L 76.84 88.10
  A 1.51 1.51 0.0 0 0 75.52 87.32
  L 52.33 87.32
  A 0.75 0.74 -79.9 0 0 51.63 87.81
  Q 50.58 90.49 47.36 90.44
  Q 45.33 90.41 32.91 90.40
  Q 29.33 90.39 29.43 86.83
  A 1.70 1.66 -30.2 0 1 29.65 86.04
  L 33.20 79.63
  L 41.06 78.98
  Z"
/>
<path fill="#1647be" d="
  M 80.16 94.02
  L 87.79 94.20
  L 88.66 95.73
  A 0.92 0.91 -14.4 0 0 89.46 96.20
  L 98.43 96.20
  A 0.73 0.72 0.8 0 0 99.16 95.50
  Q 99.33 89.24 104.93 86.50
  A 0.57 0.56 -27.2 0 0 105.18 85.73
  L 101.72 79.36
  L 108.83 78.97
  L 112.57 85.61
  A 2.32 2.28 -87.4 0 0 113.19 86.30
  Q 114.47 87.23 115.45 88.05
  C 119.85 91.74 120.30 99.24 115.91 103.19
  C 111.94 106.78 106.07 106.72 102.12 103.18
  A 2.02 2.02 0.0 0 0 100.73 102.65
  Q 93.58 102.79 86.53 102.57
  Q 84.56 102.51 83.51 100.45
  Q 81.87 97.25 80.16 94.02
  Z
  M 112.74 95.69
  A 3.66 3.66 0.0 0 0 109.08 92.03
  A 3.66 3.66 0.0 0 0 105.42 95.69
  A 3.66 3.66 0.0 0 0 109.08 99.35
  A 3.66 3.66 0.0 0 0 112.74 95.69
  Z"
/>
<path fill="#1647be" d="
  M 22.18 85.89
  Q 28.64 89.30 28.90 95.59
  A 0.64 0.64 0.0 0 0 29.54 96.21
  L 41.15 96.21
  A 3.09 3.09 0.0 0 1 44.24 99.30
  L 44.24 99.68
  A 2.99 2.99 0.0 0 1 41.25 102.67
  L 27.30 102.68
  A 2.87 2.82 31.0 0 0 26.09 102.97
  C 25.43 103.30 24.33 104.49 23.48 104.83
  C 10.11 110.28 2.86 91.97 15.20 86.07
  L 22.18 85.89
  Z
  M 22.59 95.72
  A 3.65 3.65 0.0 0 0 18.94 92.07
  A 3.65 3.65 0.0 0 0 15.29 95.72
  A 3.65 3.65 0.0 0 0 18.94 99.37
  A 3.65 3.65 0.0 0 0 22.59 95.72
  Z"
/>
</svg>