<?xml version="1.0" encoding="UTF-8" standalone="no"?>
<!DOCTYPE svg PUBLIC "-//W3C//DTD SVG 1.1//EN" "http://www.w3.org/Graphics/SVG/1.1/DTD/svg11.dtd">
<svg xmlns="http://www.w3.org/2000/svg" version="1.1" viewBox="0.00 0.00 180.00 180.00" width="128" height="128">
<path stroke="#31688f" stroke-width="2.00" fill="none" stroke-linecap="butt" vector-effect="non-scaling-stroke" d="
  M 74.28 75.32
  Q 74.17 61.66 74.27 32.48
  C 74.27 30.12 74.73 28.20 72.00 28.20
  Q 59.50 28.18 30.08 28.19
  A 1.87 1.87 0.0 0 0 28.21 30.06
  Q 28.10 95.78 28.21 149.76
  Q 28.21 151.98 30.74 151.85
  Q 32.22 151.77 72.53 151.82
  A 1.70 1.70 0.0 0 0 74.23 150.12
  L 74.23 102.80
  A 1.23 1.23 0.0 0 1 75.58 101.58
  Q 78.89 101.91 82.54 102.66
  C 89.20 104.03 95.23 108.77 98.29 114.48
  Q 101.30 120.10 102.31 124.71
  Q 105.07 137.31 104.93 150.41
  A 1.39 1.39 0.0 0 0 106.32 151.81
  L 149.98 151.81
  A 1.83 1.82 88.9 0 0 151.80 149.91
  Q 151.45 141.23 150.16 131.02
  Q 148.51 118.09 142.19 105.82
  Q 130.59 83.32 105.56 78.42
  Q 104.67 78.25 104.55 77.37
  A 1.08 1.08 0.0 0 1 105.61 76.13
  Q 110.87 76.11 143.73 76.12
  A 1.40 1.40 0.0 0 0 145.13 74.72
  L 145.13 29.97
  A 1.76 1.75 88.9 0 0 143.31 28.21
  C 133.09 28.55 122.12 29.11 112.31 32.59
  Q 93.65 39.21 84.08 56.81
  Q 79.42 65.38 76.87 74.29
  Q 76.45 75.75 75.34 76.09
  A 0.82 0.82 0.0 0 1 74.28 75.32"
/>
<path fill="#44b1ff" d="
  M 180.00 0.00
  L 180.00 180.00
  L 0.00 180.00
  L 0.00 0.00
  L 180.00 0.00
  Z
  M 74.28 75.32
  Q 74.17 61.66 74.27 32.48
  C 74.27 30.12 74.73 28.20 72.00 28.20
  Q 59.50 28.18 30.08 28.19
  A 1.87 1.87 0.0 0 0 28.21 30.06
  Q 28.10 95.78 28.21 149.76
  Q 28.21 151.98 30.74 151.85
  Q 32.22 151.77 72.53 151.82
  A 1.70 1.70 0.0 0 0 74.23 150.12
  L 74.23 102.80
  A 1.23 1.23 0.0 0 1 75.58 101.58
  Q 78.89 101.91 82.54 102.66
  C 89.20 104.03 95.23 108.77 98.29 114.48
  Q 101.30 120.10 102.31 124.71
  Q 105.07 137.31 104.93 150.41
  A 1.39 1.39 0.0 0 0 106.32 151.81
  L 149.98 151.81
  A 1.83 1.82 88.9 0 0 151.80 149.91
  Q 151.45 141.23 150.16 131.02
  Q 148.51 118.09 142.19 105.82
  Q 130.59 83.32 105.56 78.42
  Q 104.67 78.25 104.55 77.37
  A 1.08 1.08 0.0 0 1 105.61 76.13
  Q 110.87 76.11 143.73 76.12
  A 1.40 1.40 0.0 0 0 145.13 74.72
  L 145.13 29.97
  A 1.76 1.75 88.9 0 0 143.31 28.21
  C 133.09 28.55 122.12 29.11 112.31 32.59
  Q 93.65 39.21 84.08 56.81
  Q 79.42 65.38 76.87 74.29
  Q 76.45 75.75 75.34 76.09
  A 0.82 0.82 0.0 0 1 74.28 75.32
  Z"
/>
<path fill="#1e1e1e" d="
  M 74.28 75.32
  A 0.82 0.82 0.0 0 0 75.34 76.09
  Q 76.45 75.75 76.87 74.29
  Q 79.42 65.38 84.08 56.81
  Q 93.65 39.21 112.31 32.59
  C 122.12 29.11 133.09 28.55 143.31 28.21
  A 1.76 1.75 88.9 0 1 145.13 29.97
  L 145.13 74.72
  A 1.40 1.40 0.0 0 1 143.73 76.12
  Q 110.87 76.11 105.61 76.13
  A 1.08 1.08 0.0 0 0 104.55 77.37
  Q 104.67 78.25 105.56 78.42
  Q 130.59 83.32 142.19 105.82
  Q 148.51 118.09 150.16 131.02
  Q 151.45 141.23 151.80 149.91
  A 1.83 1.82 88.9 0 1 149.98 151.81
  L 106.32 151.81
  A 1.39 1.39 0.0 0 1 104.93 150.41
  Q 105.07 137.31 102.31 124.71
  Q 101.30 120.10 98.29 114.48
  C 95.23 108.77 89.20 104.03 82.54 102.66
  Q 78.89 101.91 75.58 101.58
  A 1.23 1.23 0.0 0 0 74.23 102.80
  L 74.23 150.12
  A 1.70 1.70 0.0 0 1 72.53 151.82
  Q 32.22 151.77 30.74 151.85
  Q 28.21 151.98 28.21 149.76
  Q 28.10 95.78 28.21 30.06
  A 1.87 1.87 0.0 0 1 30.08 28.19
  Q 59.50 28.18 72.00 28.20
  C 74.73 28.20 74.27 30.12 74.27 32.48
  Q 74.17 61.66 74.28 75.32
  Z"
/>
</svg>