<?xml version="1.0" encoding="UTF-8" standalone="no"?>
<!DOCTYPE svg PUBLIC "-//W3C//DTD SVG 1.1//EN" "http://www.w3.org/Graphics/SVG/1.1/DTD/svg11.dtd">
<svg xmlns="http://www.w3.org/2000/svg" version="1.1" viewBox="0.00 0.00 512.00 512.00" width="128" height="128">
<g stroke-width="2.00" fill="none" stroke-linecap="butt">
<path stroke="#f68e92" vector-effect="non-scaling-stroke" d="
  M 429.09 83.91
  C 427.05 79.74 423.29 76.93 418.73 76.80
  Q 417.08 76.76 310.23 76.77
  Q 305.40 76.77 303.84 77.38
  C 299.01 79.27 296.45 85.01 297.75 89.79
  Q 298.33 91.92 302.78 96.50
  Q 402.23 198.89 409.99 206.87
  Q 411.05 207.95 413.17 210.26
  C 419.38 217.01 430.16 212.24 430.15 203.50
  Q 430.13 176.95 430.16 92.25
  Q 430.16 86.10 429.09 83.91"
/>
<path stroke="#808080" vector-effect="non-scaling-stroke" d="
  M 144.58 260.61
  Q 144.51 260.31 144.50 258.75
  Q 144.39 244.46 144.49 157.97
  Q 144.50 151.26 142.94 148.86
  Q 140.38 144.89 134.27 144.91
  Q 96.59 145.02 93.68 144.90
  Q 87.70 144.67 85.12 146.41
  Q 81.36 148.95 81.36 154.00
  Q 81.37 367.18 81.35 424.40
  Q 81.34 429.50 82.32 431.21
  Q 84.08 434.30 87.74 435.34
  A 3.81 3.60 51.0 0 0 88.71 435.47
  Q 108.21 435.47 135.07 435.48
  C 139.11 435.48 141.29 434.63 143.44 431.70
  Q 144.76 429.91 144.74 424.78
  Q 144.60 372.42 144.78 346.26
  Q 144.84 336.76 149.45 329.90
  Q 158.98 315.72 163.37 309.41
  Q 165.33 306.61 166.57 306.12
  C 168.82 305.23 170.97 307.12 171.77 309.25
  Q 189.66 356.81 216.28 426.04
  Q 219.46 434.31 228.26 434.52
  Q 231.12 434.59 278.30 434.55
  A 2.19 2.15 -57.8 0 0 279.27 434.32
  C 283.13 432.37 282.91 429.41 281.23 425.48
  Q 236.39 320.51 212.34 264.26
  Q 209.24 257.00 209.12 253.61
  Q 208.92 248.09 212.33 243.09
  Q 264.66 166.26 274.26 152.25
  C 278.34 146.30 272.90 144.81 268.25 144.90
  Q 260.28 145.05 225.76 144.92
  Q 215.20 144.88 210.11 153.60
  Q 161.59 236.79 148.87 258.61
  Q 148.11 259.92 146.95 261.21
  A 1.38 1.38 0.0 0 1 144.58 260.61"
/>
</g>
<path fill="#ffffff" d="
  M 456.89 0.00
  C 479.73 1.15 498.03 16.59 503.61 38.49
  Q 505.39 45.45 505.22 61.67
  Q 505.09 73.53 505.21 448.79
  Q 505.21 466.74 503.66 473.10
  Q 500.55 485.86 491.92 495.43
  Q 478.55 510.27 457.47 512.00
  L 55.35 512.00
  C 32.31 510.63 13.98 495.41 8.36 473.28
  Q 6.53 466.08 6.80 449.10
  Q 6.87 444.62 6.83 50.77
  C 6.83 24.05 27.25 1.90 54.50 0.00
  L 456.89 0.00
  Z
  M 429.09 83.91
  C 427.05 79.74 423.29 76.93 418.73 76.80
  Q 417.08 76.76 310.23 76.77
  Q 305.40 76.77 303.84 77.38
  C 299.01 79.27 296.45 85.01 297.75 89.79
  Q 298.33 91.92 302.78 96.50
  Q 402.23 198.89 409.99 206.87
  Q 411.05 207.95 413.17 210.26
  C 419.38 217.01 430.16 212.24 430.15 203.50
  Q 430.13 176.95 430.16 92.25
  Q 430.16 86.10 429.09 83.91
  Z
  M 144.58 260.61
  Q 144.51 260.31 144.50 258.75
  Q 144.39 244.46 144.49 157.97
  Q 144.50 151.26 142.94 148.86
  Q 140.38 144.89 134.27 144.91
  Q 96.59 145.02 93.68 144.90
  Q 87.70 144.67 85.12 146.41
  Q 81.36 148.95 81.36 154.00
  Q 81.37 367.18 81.35 424.40
  Q 81.34 429.50 82.32 431.21
  Q 84.08 434.30 87.74 435.34
  A 3.81 3.60 51.0 0 0 88.71 435.47
  Q 108.21 435.47 135.07 435.48
  C 139.11 435.48 141.29 434.63 143.44 431.70
  Q 144.76 429.91 144.74 424.78
  Q 144.60 372.42 144.78 346.26
  Q 144.84 336.76 149.45 329.90
  Q 158.98 315.72 163.37 309.41
  Q 165.33 306.61 166.57 306.12
  C 168.82 305.23 170.97 307.12 171.77 309.25
  Q 189.66 356.81 216.28 426.04
  Q 219.46 434.31 228.26 434.52
  Q 231.12 434.59 278.30 434.55
  A 2.19 2.15 -57.8 0 0 279.27 434.32
  C 283.13 432.37 282.91 429.41 281.23 425.48
  Q 236.39 320.51 212.34 264.26
  Q 209.24 257.00 209.12 253.61
  Q 208.92 248.09 212.33 243.09
  Q 264.66 166.26 274.26 152.25
  C 278.34 146.30 272.90 144.81 268.25 144.90
  Q 260.28 145.05 225.76 144.92
  Q 215.20 144.88 210.11 153.60
  Q 161.59 236.79 148.87 258.61
  Q 148.11 259.92 146.95 261.21
  A 1.38 1.38 0.0 0 1 144.58 260.61
  Z"
/>
<path fill="#ed1c24" d="
  M 418.73 76.80
  C 423.29 76.93 427.05 79.74 429.09 83.91
  Q 430.16 86.10 430.16 92.25
  Q 430.13 176.95 430.15 203.50
  C 430.16 212.24 419.38 217.01 413.17 210.26
  Q 411.05 207.95 409.99 206.87
  Q 402.23 198.89 302.78 96.50
  Q 298.33 91.92 297.75 89.79
  C 296.45 85.01 299.01 79.27 303.84 77.38
  Q 305.40 76.77 310.23 76.77
  Q 417.08 76.76 418.73 76.80
  Z"
/>
<path fill="#000000" d="
  M 144.58 260.61
  A 1.38 1.38 0.0 0 0 146.95 261.21
  Q 148.11 259.92 148.87 258.61
  Q 161.59 236.79 210.11 153.60
  Q 215.20 144.88 225.76 144.92
  Q 260.28 145.05 268.25 144.90
  C 272.90 144.81 278.34 146.30 274.26 152.25
  Q 264.66 166.26 212.33 243.09
  Q 208.92 248.09 209.12 253.61
  Q 209.24 257.00 212.34 264.26
  Q 236.39 320.51 281.23 425.48
  C 282.91 429.41 283.13 432.37 279.27 434.32
  A 2.19 2.15 -57.8 0 1 278.30 434.55
  Q 231.12 434.59 228.26 434.52
  Q 219.46 434.31 216.28 426.04
  Q 189.66 356.81 171.77 309.25
  C 170.97 307.12 168.82 305.23 166.57 306.12
  Q 165.33 306.61 163.37 309.41
  Q 158.98 315.72 149.45 329.90
  Q 144.84 336.76 144.78 346.26
  Q 144.60 372.42 144.74 424.78
  Q 144.76 429.91 143.44 431.70
  C 141.29 434.63 139.11 435.48 135.07 435.48
  Q 108.21 435.47 88.71 435.47
  A 3.81 3.60 51.0 0 1 87.74 435.34
  Q 84.08 434.30 82.32 431.21
  Q 81.34 429.50 81.35 424.40
  Q 81.37 367.18 81.36 154.00
  Q 81.36 148.95 85.12 146.41
  Q 87.70 144.67 93.68 144.90
  Q 96.59 145.02 134.27 144.91
  Q 140.38 144.89 142.94 148.86
  Q 144.50 151.26 144.49 157.97
  Q 144.39 244.46 144.50 258.75
  Q 144.51 260.31 144.58 260.61
  Z"
/>
</svg>