<?xml version="1.0" encoding="UTF-8" standalone="no"?>
<!DOCTYPE svg PUBLIC "-//W3C//DTD SVG 1.1//EN" "http://www.w3.org/Graphics/SVG/1.1/DTD/svg11.dtd">
<svg xmlns="http://www.w3.org/2000/svg" version="1.1" viewBox="0.00 0.00 192.00 192.00" width="128" height="128">
<path fill="#a23490" d="
  M 130.67 94.04
  A 0.24 0.23 -46.5 0 0 130.68 94.47
  Q 146.40 101.01 159.22 106.52
  C 162.38 107.87 166.30 109.36 168.71 111.53
  C 177.61 119.52 176.28 132.03 170.25 141.53
  Q 166.65 147.21 163.94 149.70
  Q 159.38 153.90 154.67 157.46
  A 0.67 0.66 47.9 0 1 153.82 157.41
  Q 137.34 142.05 117.76 127.99
  Q 117.50 127.80 115.51 126.06
  A 0.52 0.51 16.8 0 0 114.66 126.51
  Q 116.62 139.95 118.81 157.01
  Q 119.96 166.03 118.75 169.44
  C 116.28 176.43 111.89 180.46 104.58 182.60
  Q 92.21 186.22 80.07 180.94
  Q 76.73 179.49 73.09 178.18
  A 1.07 1.06 -73.7 0 1 72.42 176.95
  Q 77.66 152.75 80.02 128.07
  A 0.52 0.52 0.0 0 0 79.17 127.62
  Q 66.33 138.17 52.61 148.60
  C 47.53 152.46 43.10 154.06 37.12 152.68
  C 21.12 149.00 16.20 131.06 13.66 117.00
  A 0.70 0.70 0.0 0 1 14.13 116.22
  Q 37.70 108.63 60.31 98.37
  A 0.30 0.30 0.0 0 0 60.30 97.81
  Q 32.53 86.45 30.99 85.77
  C 24.42 82.89 18.15 78.21 16.84 70.45
  C 16.19 66.61 16.20 63.34 17.37 59.42
  Q 20.00 50.62 26.29 43.61
  C 29.44 40.11 33.18 37.92 36.80 35.02
  A 0.80 0.79 46.7 0 1 37.84 35.06
  Q 56.20 51.99 75.94 66.36
  A 0.61 0.61 0.0 0 0 76.88 65.70
  Q 76.51 64.39 76.46 64.05
  Q 76.31 63.12 72.45 34.31
  Q 71.52 27.43 72.50 23.54
  Q 75.37 12.13 87.73 9.27
  C 92.87 8.08 97.98 7.25 103.41 8.53
  Q 111.88 10.53 118.87 14.13
  A 0.67 0.66 -69.6 0 1 119.21 14.89
  Q 113.42 38.90 111.45 64.22
  A 0.34 0.33 -16.6 0 0 111.99 64.51
  Q 124.88 54.47 137.04 44.79
  Q 139.73 42.65 142.72 41.00
  C 149.69 37.17 158.02 38.58 163.93 43.51
  C 172.74 50.88 176.64 63.51 178.27 75.01
  A 0.71 0.69 -13.0 0 1 177.78 75.78
  Q 154.55 82.79 130.67 94.04
  Z"
/>
</svg>