<?xml version="1.0" encoding="UTF-8" standalone="no"?>
<!DOCTYPE svg PUBLIC "-//W3C//DTD SVG 1.1//EN" "http://www.w3.org/Graphics/SVG/1.1/DTD/svg11.dtd">
<svg xmlns="http://www.w3.org/2000/svg" version="1.1" viewBox="0.00 0.00 180.00 180.00" width="128" height="128">
<g stroke-width="2.00" fill="none" stroke-linecap="butt">
<path stroke="#d72368" vector-effect="non-scaling-stroke" d="
  M 95.28 0.00
  Q 88.13 3.18 81.00 6.21
  C 72.56 9.79 66.45 12.95 57.97 17.96
  Q 46.33 24.83 38.26 28.09
  Q 14.30 37.76 0.00 44.91"
/>
<path stroke="#964144" vector-effect="non-scaling-stroke" d="
  M 142.16 0.00
  Q 135.86 4.82 129.50 10.09
  Q 121.26 16.91 116.73 20.03
  Q 101.59 30.45 84.77 38.00"
/>
<path stroke="#a74341" vector-effect="non-scaling-stroke" d="
  M 84.77 38.00
  L 67.65 44.60"
/>
<path stroke="#f191b7" vector-effect="non-scaling-stroke" d="
  M 67.65 44.60
  L 67.61 40.16
  A 0.56 0.55 89.5 0 0 67.06 39.61
  L 51.39 39.61
  A 0.46 0.46 0.0 0 0 50.93 40.07
  L 50.90 49.30"
/>
<path stroke="#7b3253" vector-effect="non-scaling-stroke" d="
  M 50.90 49.30
  L 44.50 50.72
  A 1.55 0.78 -36.7 0 1 44.27 50.76
  L 34.09 51.65"
/>
<path stroke="#cc1872" vector-effect="non-scaling-stroke" d="
  M 34.09 51.65
  L 29.43 51.30
  A 1.11 1.09 -17.4 0 1 28.69 50.92
  Q 27.87 49.96 26.38 49.81
  Q 13.27 48.55 0.00 48.96"
/>
<path stroke="#5a5e17" vector-effect="non-scaling-stroke" d="
  M 180.00 24.12
  Q 179.62 24.76 179.60 25.64
  A 0.62 0.61 -6.5 0 1 179.12 26.24
  Q 157.76 31.40 139.01 39.50"
/>
<path stroke="#a4b08c" vector-effect="non-scaling-stroke" d="
  M 139.01 39.50
  L 128.79 39.57"
/>
<path stroke="#5a6216" vector-effect="non-scaling-stroke" d="
  M 128.79 39.57
  Q 110.70 38.86 92.56 39.01
  Q 89.46 39.04 84.77 38.00"
/>
<path stroke="#805c13" vector-effect="non-scaling-stroke" d="
  M 180.00 48.80
  Q 154.50 55.36 128.21 53.94"
/>
<path stroke="#b6ae8a" vector-effect="non-scaling-stroke" d="
  M 128.21 53.94
  L 139.01 39.50"
/>
<path stroke="#b5b289" vector-effect="non-scaling-stroke" d="
  M 128.79 39.57
  L 120.22 39.68
  A 1.23 1.23 0.0 0 0 119.23 40.18
  L 96.52 70.17"
/>
<path stroke="#3f5325" vector-effect="non-scaling-stroke" d="
  M 96.52 70.17
  Q 86.66 64.97 81.64 63.11
  Q 74.74 60.56 67.62 57.98"
/>
<path stroke="#b5b289" vector-effect="non-scaling-stroke" d="
  M 67.62 57.98
  L 67.65 44.60"
/>
<path stroke="#89a09b" vector-effect="non-scaling-stroke" d="
  M 67.62 57.98
  L 67.64 90.07"
/>
<path stroke="#9394a4" vector-effect="non-scaling-stroke" d="
  M 67.64 90.07
  L 67.65 138.67
  A 0.56 0.56 0.0 0 1 67.09 139.23
  L 51.52 139.23
  A 0.58 0.58 0.0 0 1 50.94 138.65
  L 50.91 125.71"
/>
<path stroke="#8d98a2" vector-effect="non-scaling-stroke" d="
  M 50.91 125.71
  L 50.91 104.91"
/>
<path stroke="#89a09b" vector-effect="non-scaling-stroke" d="
  M 50.91 104.91
  L 50.90 49.30"
/>
<path stroke="#caae88" vector-effect="non-scaling-stroke" d="
  M 128.21 53.94
  L 110.04 77.75"
/>
<path stroke="#8d98a2" vector-effect="non-scaling-stroke" d="
  M 110.04 77.75
  L 101.44 88.96
  A 0.79 0.79 0.0 0 0 101.44 89.92
  L 126.19 122.26"
/>
<path stroke="#a28ea7" vector-effect="non-scaling-stroke" d="
  M 126.19 122.26
  L 138.85 138.68
  A 0.34 0.34 0.0 0 1 138.58 139.23
  L 119.35 138.95"
/>
<path stroke="#9394a4" vector-effect="non-scaling-stroke" d="
  M 119.35 138.95
  Q 100.81 114.30 82.36 89.96
  Q 81.82 89.25 82.62 88.53"
/>
<path stroke="#89a09b" vector-effect="non-scaling-stroke" d="
  M 82.62 88.53
  L 96.52 70.17"
/>
<path stroke="#642857" vector-effect="non-scaling-stroke" d="
  M 34.09 51.65
  Q 27.98 52.87 24.50 53.08
  Q 14.52 53.67 0.00 53.38"
/>
<path stroke="#a85a0e" vector-effect="non-scaling-stroke" d="
  M 180.00 71.04
  C 158.42 74.45 136.62 77.03 115.19 81.31"
/>
<path stroke="#57462a" vector-effect="non-scaling-stroke" d="
  M 115.19 81.31
  L 110.04 77.75"
/>
<path stroke="#17393e" vector-effect="non-scaling-stroke" d="
  M 50.91 104.91
  C 34.57 113.24 18.09 118.15 0.00 121.96"
/>
<path stroke="#1d3540" vector-effect="non-scaling-stroke" d="
  M 82.62 88.53
  L 67.64 90.07"
/>
<path stroke="#d55408" vector-effect="non-scaling-stroke" d="
  M 180.00 94.51
  Q 158.94 95.90 137.96 99.53"
/>
<path stroke="#6b4428" vector-effect="non-scaling-stroke" d="
  M 137.96 99.53
  Q 127.32 89.73 115.19 81.31"
/>
<path stroke="#844024" vector-effect="non-scaling-stroke" d="
  M 137.96 99.53
  L 151.29 113.23"
/>
<path stroke="#2f2749" vector-effect="non-scaling-stroke" d="
  M 151.29 113.23
  Q 139.29 119.28 126.19 122.26"
/>
<path stroke="#36234b" vector-effect="non-scaling-stroke" d="
  M 119.35 138.95
  Q 59.31 152.95 0.00 169.43"
/>
<path stroke="#212d46" vector-effect="non-scaling-stroke" d="
  M 0.00 142.61
  Q 25.35 137.99 50.26 131.38
  A 0.68 0.68 0.0 0 0 50.76 130.75
  L 50.91 125.71"
/>
<path stroke="#d68b63" vector-effect="non-scaling-stroke" d="
  M 180.00 130.79
  L 173.11 144.03"
/>
<path stroke="#993629" vector-effect="non-scaling-stroke" d="
  M 173.11 144.03
  C 166.61 133.09 159.98 123.22 151.29 113.23"
/>
<path stroke="#817289" vector-effect="non-scaling-stroke" d="
  M 173.11 144.03
  Q 173.39 143.91 173.45 144.66"
/>
<path stroke="#234232" vector-effect="non-scaling-stroke" d="
  M 173.45 144.66
  Q 171.50 145.84 171.04 147.56"
/>
<path stroke="#501952" vector-effect="non-scaling-stroke" d="
  M 171.04 147.56
  Q 154.20 147.35 136.83 152.04
  Q 104.45 160.77 57.29 172.33
  Q 51.39 173.77 42.90 176.16
  Q 35.73 178.18 28.52 180.00"
/>
<path stroke="#60976c" vector-effect="non-scaling-stroke" d="
  M 180.00 158.51
  Q 177.56 151.39 173.45 144.66"
/>
<path stroke="#2e3e35" vector-effect="non-scaling-stroke" d="
  M 171.04 147.56
  Q 160.90 164.53 146.66 180.00"
/>
</g>
<path fill="#ca2362" d="
  M 95.28 0.00
  Q 88.13 3.18 81.00 6.21
  C 72.56 9.79 66.45 12.95 57.97 17.96
  Q 46.33 24.83 38.26 28.09
  Q 14.30 37.76 0.00 44.91
  L 0.00 0.00
  L 95.28 0.00
  Z"
/>
<path fill="#e3226e" d="
  M 142.16 0.00
  Q 135.86 4.82 129.50 10.09
  Q 121.26 16.91 116.73 20.03
  Q 101.59 30.45 84.77 38.00
  L 67.65 44.60
  L 67.61 40.16
  A 0.56 0.55 89.5 0 0 67.06 39.61
  L 51.39 39.61
  A 0.46 0.46 0.0 0 0 50.93 40.07
  L 50.90 49.30
  L 44.50 50.72
  A 1.55 0.78 -36.7 0 1 44.27 50.76
  L 34.09 51.65
  L 29.43 51.30
  A 1.11 1.09 -17.4 0 1 28.69 50.92
  Q 27.87 49.96 26.38 49.81
  Q 13.27 48.55 0.00 48.96
  L 0.00 44.91
  Q 14.30 37.76 38.26 28.09
  Q 46.33 24.83 57.97 17.96
  C 66.45 12.95 72.56 9.79 81.00 6.21
  Q 88.13 3.18 95.28 0.00
  L 142.16 0.00
  Z"
/>
<path fill="#486019" d="
  M 180.00 0.00
  L 180.00 24.12
  Q 179.62 24.76 179.60 25.64
  A 0.62 0.61 -6.5 0 1 179.12 26.24
  Q 157.76 31.40 139.01 39.50
  L 128.79 39.57
  Q 110.70 38.86 92.56 39.01
  Q 89.46 39.04 84.77 38.00
  Q 101.59 30.45 116.73 20.03
  Q 121.26 16.91 129.50 10.09
  Q 135.86 4.82 142.16 0.00
  L 180.00 0.00
  Z"
/>
<path fill="#6c5c15" d="
  M 180.00 24.12
  L 180.00 48.80
  Q 154.50 55.36 128.21 53.94
  L 139.01 39.50
  Q 157.76 31.40 179.12 26.24
  A 0.62 0.61 -6.5 0 0 179.60 25.64
  Q 179.62 24.76 180.00 24.12
  Z"
/>
<path fill="#6b6413" d="
  M 84.77 38.00
  Q 89.46 39.04 92.56 39.01
  Q 110.70 38.86 128.79 39.57
  L 120.22 39.68
  A 1.23 1.23 0.0 0 0 119.23 40.18
  L 96.52 70.17
  Q 86.66 64.97 81.64 63.11
  Q 74.74 60.56 67.62 57.98
  L 67.65 44.60
  L 84.77 38.00
  Z"
/>
<path fill="#ffffff" d="
  M 67.65 44.60
  L 67.62 57.98
  L 67.64 90.07
  L 67.65 138.67
  A 0.56 0.56 0.0 0 1 67.09 139.23
  L 51.52 139.23
  A 0.58 0.58 0.0 0 1 50.94 138.65
  L 50.91 125.71
  L 50.91 104.91
  L 50.90 49.30
  L 50.93 40.07
  A 0.46 0.46 0.0 0 1 51.39 39.61
  L 67.06 39.61
  A 0.56 0.55 89.5 0 1 67.61 40.16
  L 67.65 44.60
  Z"
/>
<path fill="#ffffff" d="
  M 139.01 39.50
  L 128.21 53.94
  L 110.04 77.75
  L 101.44 88.96
  A 0.79 0.79 0.0 0 0 101.44 89.92
  L 126.19 122.26
  L 138.85 138.68
  A 0.34 0.34 0.0 0 1 138.58 139.23
  L 119.35 138.95
  Q 100.81 114.30 82.36 89.96
  Q 81.82 89.25 82.62 88.53
  L 96.52 70.17
  L 119.23 40.18
  A 1.23 1.23 0.0 0 1 120.22 39.68
  L 128.79 39.57
  L 139.01 39.50
  Z"
/>
<path fill="#b40e76" d="
  M 34.09 51.65
  Q 27.98 52.87 24.50 53.08
  Q 14.52 53.67 0.00 53.38
  L 0.00 48.96
  Q 13.27 48.55 26.38 49.81
  Q 27.87 49.96 28.69 50.92
  A 1.11 1.09 -17.4 0 0 29.43 51.30
  L 34.09 51.65
  Z"
/>
<path fill="#945c10" d="
  M 180.00 48.80
  L 180.00 71.04
  C 158.42 74.45 136.62 77.03 115.19 81.31
  L 110.04 77.75
  L 128.21 53.94
  Q 154.50 55.36 180.00 48.80
  Z"
/>
<path fill="#134137" d="
  M 50.90 49.30
  L 50.91 104.91
  C 34.57 113.24 18.09 118.15 0.00 121.96
  L 0.00 53.38
  Q 14.52 53.67 24.50 53.08
  Q 27.98 52.87 34.09 51.65
  L 44.27 50.76
  A 1.55 0.78 -36.7 0 0 44.50 50.72
  L 50.90 49.30
  Z"
/>
<path fill="#134137" d="
  M 96.52 70.17
  L 82.62 88.53
  L 67.64 90.07
  L 67.62 57.98
  Q 74.74 60.56 81.64 63.11
  Q 86.66 64.97 96.52 70.17
  Z"
/>
<path fill="#bc580c" d="
  M 180.00 71.04
  L 180.00 94.51
  Q 158.94 95.90 137.96 99.53
  Q 127.32 89.73 115.19 81.31
  C 136.62 77.03 158.42 74.45 180.00 71.04
  Z"
/>
<path fill="#1a3044" d="
  M 110.04 77.75
  L 115.19 81.31
  Q 127.32 89.73 137.96 99.53
  L 151.29 113.23
  Q 139.29 119.28 126.19 122.26
  L 101.44 89.92
  A 0.79 0.79 0.0 0 1 101.44 88.96
  L 110.04 77.75
  Z"
/>
<path fill="#272948" d="
  M 82.62 88.53
  Q 81.82 89.25 82.36 89.96
  Q 100.81 114.30 119.35 138.95
  Q 59.31 152.95 0.00 169.43
  L 0.00 142.61
  Q 25.35 137.99 50.26 131.38
  A 0.68 0.68 0.0 0 0 50.76 130.75
  L 50.91 125.71
  L 50.94 138.65
  A 0.58 0.58 0.0 0 0 51.52 139.23
  L 67.09 139.23
  A 0.56 0.56 0.0 0 0 67.65 138.67
  L 67.64 90.07
  L 82.62 88.53
  Z"
/>
<path fill="#ed4f03" d="
  M 180.00 94.51
  L 180.00 130.79
  L 173.11 144.03
  C 166.61 133.09 159.98 123.22 151.29 113.23
  L 137.96 99.53
  Q 158.94 95.90 180.00 94.51
  Z"
/>
<path fill="#1a3044" d="
  M 50.91 104.91
  L 50.91 125.71
  L 50.76 130.75
  A 0.68 0.68 0.0 0 1 50.26 131.38
  Q 25.35 137.99 0.00 142.61
  L 0.00 121.96
  C 18.09 118.15 34.57 113.24 50.91 104.91
  Z"
/>
<path fill="#441d4e" d="
  M 173.11 144.03
  Q 173.39 143.91 173.45 144.66
  Q 171.50 145.84 171.04 147.56
  Q 154.20 147.35 136.83 152.04
  Q 104.45 160.77 57.29 172.33
  Q 51.39 173.77 42.90 176.16
  Q 35.73 178.18 28.52 180.00
  L 0.00 180.00
  L 0.00 169.43
  Q 59.31 152.95 119.35 138.95
  L 138.58 139.23
  A 0.34 0.34 0.0 0 0 138.85 138.68
  L 126.19 122.26
  Q 139.29 119.28 151.29 113.23
  C 159.98 123.22 166.61 133.09 173.11 144.03
  Z"
/>
<path fill="#bec6c3" d="
  M 180.00 130.79
  L 180.00 158.51
  Q 177.56 151.39 173.45 144.66
  Q 173.39 143.91 173.11 144.03
  L 180.00 130.79
  Z"
/>
<path fill="#5b1555" d="
  M 171.04 147.56
  Q 160.90 164.53 146.66 180.00
  L 28.52 180.00
  Q 35.73 178.18 42.90 176.16
  Q 51.39 173.77 57.29 172.33
  Q 104.45 160.77 136.83 152.04
  Q 154.20 147.35 171.04 147.56
  Z"
/>
<path fill="#016715" d="
  M 173.45 144.66
  Q 177.56 151.39 180.00 158.51
  L 180.00 180.00
  L 146.66 180.00
  Q 160.90 164.53 171.04 147.56
  Q 171.50 145.84 173.45 144.66
  Z"
/>
</svg>