<?xml version="1.0" encoding="UTF-8" standalone="no"?>
<!DOCTYPE svg PUBLIC "-//W3C//DTD SVG 1.1//EN" "http://www.w3.org/Graphics/SVG/1.1/DTD/svg11.dtd">
<svg xmlns="http://www.w3.org/2000/svg" version="1.1" viewBox="0.00 0.00 256.00 256.00" width="128" height="128">
<g stroke-width="2.00" fill="none" stroke-linecap="butt">
<path stroke="#9ee4bc" vector-effect="non-scaling-stroke" d="
  M 119.96 68.47
  A 52.48 52.48 0.0 0 0 67.48 15.99
  A 52.48 52.48 0.0 0 0 15.00 68.47
  A 52.48 52.48 0.0 0 0 67.48 120.95
  A 52.48 52.48 0.0 0 0 119.96 68.47"
/>
<path stroke="#94beff" vector-effect="non-scaling-stroke" d="
  M 187.44 98.09
  C 189.13 98.09 189.69 99.29 189.74 100.88
  Q 189.79 102.31 189.66 109.16
  C 189.53 116.25 192.04 120.90 199.76 120.90
  Q 227.18 120.93 229.96 120.88
  Q 239.86 120.70 239.87 110.86
  Q 239.93 62.12 239.88 25.27
  Q 239.87 19.90 235.57 17.24
  Q 233.35 15.87 226.20 15.98
  Q 224.52 16.00 187.44 16.00
  Q 150.36 16.01 148.68 15.98
  Q 141.53 15.87 139.31 17.24
  Q 135.01 19.90 135.00 25.27
  Q 134.95 62.12 135.01 110.86
  Q 135.03 120.70 144.93 120.88
  Q 147.71 120.93 175.13 120.90
  C 182.85 120.90 185.36 116.25 185.22 109.16
  Q 185.09 102.31 185.15 100.88
  C 185.20 99.29 185.75 98.09 187.44 98.09"
/>
<path stroke="#ffdada" vector-effect="non-scaling-stroke" d="
  M 97.16 188.36
  C 97.16 186.67 98.35 186.12 99.94 186.06
  Q 101.38 186.01 108.23 186.14
  C 115.33 186.28 119.98 183.76 119.99 176.04
  Q 120.02 148.60 119.97 145.82
  Q 119.79 135.91 109.94 135.90
  Q 61.17 135.83 24.29 135.87
  Q 18.91 135.88 16.25 140.18
  Q 14.88 142.41 14.99 149.56
  Q 15.01 151.24 15.01 188.35
  Q 15.00 225.46 14.98 227.14
  Q 14.87 234.29 16.24 236.51
  Q 18.90 240.82 24.27 240.83
  Q 61.15 240.88 109.93 240.83
  Q 119.78 240.82 119.96 230.92
  Q 120.01 228.13 119.98 200.69
  C 119.98 192.97 115.33 190.45 108.23 190.58
  Q 101.38 190.71 99.94 190.66
  C 98.35 190.61 97.16 190.05 97.16 188.36"
/>
<path stroke="#ffb2ad" vector-effect="non-scaling-stroke" d="
  M 137.55 138.49
  Q 134.97 141.07 134.96 145.75
  Q 134.89 167.65 134.97 176.73
  Q 135.03 182.61 139.77 185.12
  C 143.28 186.97 151.95 185.96 155.57 186.10
  A 2.19 2.18 2.4 0 1 157.67 188.37
  L 157.67 188.50
  A 2.18 2.18 0.0 0 1 155.49 190.65
  L 142.87 190.65
  A 1.60 1.44 -47.9 0 0 142.57 190.68
  Q 138.33 191.61 136.11 195.06
  Q 134.94 196.88 134.94 202.68
  Q 134.94 229.65 134.93 230.25
  Q 134.87 239.32 142.64 240.76
  A 3.87 3.59 -37.7 0 0 143.31 240.82
  Q 147.67 240.84 229.51 240.85
  Q 234.70 240.85 237.29 238.26
  Q 239.88 235.67 239.88 230.48
  Q 239.90 148.64 239.88 144.28
  A 3.87 3.59 -52.3 0 0 239.82 143.61
  Q 238.38 135.84 229.31 135.90
  Q 228.71 135.91 201.74 135.90
  Q 195.94 135.90 194.12 137.07
  Q 190.67 139.28 189.74 143.52
  A 1.60 1.44 -42.1 0 0 189.71 143.82
  L 189.71 156.44
  A 2.18 2.18 0.0 0 1 187.55 158.62
  L 187.42 158.62
  A 2.19 2.18 87.7 0 1 185.16 156.52
  C 185.02 152.90 186.03 144.23 184.18 140.72
  Q 181.67 135.98 175.79 135.92
  Q 166.71 135.84 144.81 135.90
  Q 140.13 135.91 137.55 138.49"
/>
</g>
<path fill="#ffffff" d="
  M 242.00 0.00
  Q 253.52 2.30 256.00 13.94
  L 256.00 241.99
  Q 253.66 253.53 242.05 256.00
  L 14.00 256.00
  Q 2.43 253.66 0.00 242.06
  L 0.00 14.00
  Q 2.30 2.44 13.94 0.00
  L 242.00 0.00
  Z
  M 119.96 68.47
  A 52.48 52.48 0.0 0 0 67.48 15.99
  A 52.48 52.48 0.0 0 0 15.00 68.47
  A 52.48 52.48 0.0 0 0 67.48 120.95
  A 52.48 52.48 0.0 0 0 119.96 68.47
  Z
  M 187.44 98.09
  C 189.13 98.09 189.69 99.29 189.74 100.88
  Q 189.79 102.31 189.66 109.16
  C 189.53 116.25 192.04 120.90 199.76 120.90
  Q 227.18 120.93 229.96 120.88
  Q 239.86 120.70 239.87 110.86
  Q 239.93 62.12 239.88 25.27
  Q 239.87 19.90 235.57 17.24
  Q 233.35 15.87 226.20 15.98
  Q 224.52 16.00 187.44 16.00
  Q 150.36 16.01 148.68 15.98
  Q 141.53 15.87 139.31 17.24
  Q 135.01 19.90 135.00 25.27
  Q 134.95 62.12 135.01 110.86
  Q 135.03 120.70 144.93 120.88
  Q 147.71 120.93 175.13 120.90
  C 182.85 120.90 185.36 116.25 185.22 109.16
  Q 185.09 102.31 185.15 100.88
  C 185.20 99.29 185.75 98.09 187.44 98.09
  Z
  M 97.16 188.36
  C 97.16 186.67 98.35 186.12 99.94 186.06
  Q 101.38 186.01 108.23 186.14
  C 115.33 186.28 119.98 183.76 119.99 176.04
  Q 120.02 148.60 119.97 145.82
  Q 119.79 135.91 109.94 135.90
  Q 61.17 135.83 24.29 135.87
  Q 18.91 135.88 16.25 140.18
  Q 14.88 142.41 14.99 149.56
  Q 15.01 151.24 15.01 188.35
  Q 15.00 225.46 14.98 227.14
  Q 14.87 234.29 16.24 236.51
  Q 18.90 240.82 24.27 240.83
  Q 61.15 240.88 109.93 240.83
  Q 119.78 240.82 119.96 230.92
  Q 120.01 228.13 119.98 200.69
  C 119.98 192.97 115.33 190.45 108.23 190.58
  Q 101.38 190.71 99.94 190.66
  C 98.35 190.61 97.16 190.05 97.16 188.36
  Z
  M 137.55 138.49
  Q 134.97 141.07 134.96 145.75
  Q 134.89 167.65 134.97 176.73
  Q 135.03 182.61 139.77 185.12
  C 143.28 186.97 151.95 185.96 155.57 186.10
  A 2.19 2.18 2.4 0 1 157.67 188.37
  L 157.67 188.50
  A 2.18 2.18 0.0 0 1 155.49 190.65
  L 142.87 190.65
  A 1.60 1.44 -47.9 0 0 142.57 190.68
  Q 138.33 191.61 136.11 195.06
  Q 134.94 196.88 134.94 202.68
  Q 134.94 229.65 134.93 230.25
  Q 134.87 239.32 142.64 240.76
  A 3.87 3.59 -37.7 0 0 143.31 240.82
  Q 147.67 240.84 229.51 240.85
  Q 234.70 240.85 237.29 238.26
  Q 239.88 235.67 239.88 230.48
  Q 239.90 148.64 239.88 144.28
  A 3.87 3.59 -52.3 0 0 239.82 143.61
  Q 238.38 135.84 229.31 135.90
  Q 228.71 135.91 201.74 135.90
  Q 195.94 135.90 194.12 137.07
  Q 190.67 139.28 189.74 143.52
  A 1.60 1.44 -42.1 0 0 189.71 143.82
  L 189.71 156.44
  A 2.18 2.18 0.0 0 1 187.55 158.62
  L 187.42 158.62
  A 2.19 2.18 87.7 0 1 185.16 156.52
  C 185.02 152.90 186.03 144.23 184.18 140.72
  Q 181.67 135.98 175.79 135.92
  Q 166.71 135.84 144.81 135.90
  Q 140.13 135.91 137.55 138.49
  Z"
/>
<circle fill="#3cc878" cx="67.48" cy="68.47" r="52.48"/>
<path fill="#287dff" d="
  M 187.44 16.00
  Q 224.52 16.00 226.20 15.98
  Q 233.35 15.87 235.57 17.24
  Q 239.87 19.90 239.88 25.27
  Q 239.93 62.12 239.87 110.86
  Q 239.86 120.70 229.96 120.88
  Q 227.18 120.93 199.76 120.90
  C 192.04 120.90 189.53 116.25 189.66 109.16
  Q 189.79 102.31 189.74 100.88
  C 189.69 99.29 189.13 98.09 187.44 98.09
  C 185.75 98.09 185.20 99.29 185.15 100.88
  Q 185.09 102.31 185.22 109.16
  C 185.36 116.25 182.85 120.90 175.13 120.90
  Q 147.71 120.93 144.93 120.88
  Q 135.03 120.70 135.01 110.86
  Q 134.95 62.12 135.00 25.27
  Q 135.01 19.90 139.31 17.24
  Q 141.53 15.87 148.68 15.98
  Q 150.36 16.01 187.44 16.00
  Z"
/>
<path fill="#ffb4b4" d="
  M 97.16 188.36
  C 97.16 190.05 98.35 190.61 99.94 190.66
  Q 101.38 190.71 108.23 190.58
  C 115.33 190.45 119.98 192.97 119.98 200.69
  Q 120.01 228.13 119.96 230.92
  Q 119.78 240.82 109.93 240.83
  Q 61.15 240.88 24.27 240.83
  Q 18.90 240.82 16.24 236.51
  Q 14.87 234.29 14.98 227.14
  Q 15.00 225.46 15.01 188.35
  Q 15.01 151.24 14.99 149.56
  Q 14.88 142.41 16.25 140.18
  Q 18.91 135.88 24.29 135.87
  Q 61.17 135.83 109.94 135.90
  Q 119.79 135.91 119.97 145.82
  Q 120.02 148.60 119.99 176.04
  C 119.98 183.76 115.33 186.28 108.23 186.14
  Q 101.38 186.01 99.94 186.06
  C 98.35 186.12 97.16 186.67 97.16 188.36
  Z"
/>
<path fill="#ff645a" d="
  M 237.29 238.26
  Q 234.70 240.85 229.51 240.85
  Q 147.67 240.84 143.31 240.82
  A 3.87 3.59 -37.7 0 1 142.64 240.76
  Q 134.87 239.32 134.93 230.25
  Q 134.94 229.65 134.94 202.68
  Q 134.94 196.88 136.11 195.06
  Q 138.33 191.61 142.57 190.68
  A 1.60 1.44 -47.9 0 1 142.87 190.65
  L 155.49 190.65
  A 2.18 2.18 0.0 0 0 157.67 188.50
  L 157.67 188.37
  A 2.19 2.18 2.4 0 0 155.57 186.10
  C 151.95 185.96 143.28 186.97 139.77 185.12
  Q 135.03 182.61 134.97 176.73
  Q 134.89 167.65 134.96 145.75
  Q 134.97 141.07 137.55 138.49
  Q 140.13 135.91 144.81 135.90
  Q 166.71 135.84 175.79 135.92
  Q 181.67 135.98 184.18 140.72
  C 186.03 144.23 185.02 152.90 185.16 156.52
  A 2.19 2.18 87.7 0 0 187.42 158.62
  L 187.55 158.62
  A 2.18 2.18 0.0 0 0 189.71 156.44
  L 189.71 143.82
  A 1.60 1.44 -42.1 0 1 189.74 143.52
  Q 190.67 139.28 194.12 137.07
  Q 195.94 135.90 201.74 135.90
  Q 228.71 135.91 229.31 135.90
  Q 238.38 135.84 239.82 143.61
  A 3.87 3.59 -52.3 0 1 239.88 144.28
  Q 239.90 148.64 239.88 230.48
  Q 239.88 235.67 237.29 238.26
  Z"
/>
</svg>