<?xml version="1.0" encoding="UTF-8" standalone="no"?>
<!DOCTYPE svg PUBLIC "-//W3C//DTD SVG 1.1//EN" "http://www.w3.org/Graphics/SVG/1.1/DTD/svg11.dtd">
<svg xmlns="http://www.w3.org/2000/svg" version="1.1" viewBox="0.00 0.00 256.00 256.00" width="128" height="128">
<g stroke-width="2.00" fill="none" stroke-linecap="butt">
<path stroke="#99a0b0" vector-effect="non-scaling-stroke" d="
  M 212.76 215.79
  Q 211.96 212.88 209.44 207.41
  C 207.55 203.27 204.20 192.51 205.58 186.53
  Q 206.08 184.36 209.19 179.40
  C 241.47 127.72 219.39 60.89 163.02 38.52
  C 138.94 28.96 110.33 29.97 86.80 41.32
  C 61.38 53.57 42.68 75.92 35.32 103.11
  C 23.40 147.14 44.42 193.40 84.69 213.57
  C 111.64 227.07 142.38 227.19 169.80 214.55
  Q 174.31 212.47 178.51 213.61
  Q 189.07 216.47 190.99 216.78
  Q 201.14 218.44 211.82 217.19
  A 1.11 1.11 0.0 0 0 212.76 215.79"
/>
<path stroke="#f5a0bc" vector-effect="non-scaling-stroke" d="
  M 175.28 111.77
  A 46.66 46.66 0.0 0 0 128.62 65.11
  A 46.66 46.66 0.0 0 0 81.96 111.77
  A 46.66 46.66 0.0 0 0 128.62 158.43
  A 46.66 46.66 0.0 0 0 175.28 111.77"
/>
<path stroke="#99a0b0" vector-effect="non-scaling-stroke" d="
  M 127.92 193.69
  Q 136.25 193.84 144.03 189.30
  C 148.36 186.78 150.99 182.86 148.07 177.97
  C 146.31 175.02 142.05 173.83 138.92 175.60
  C 135.18 177.71 132.91 179.49 128.18 179.41
  C 123.46 179.32 121.25 177.45 117.60 175.21
  C 114.53 173.32 110.23 174.36 108.36 177.24
  C 105.26 182.02 107.75 186.03 111.98 188.72
  Q 119.59 193.54 127.92 193.69"
/>
<path stroke="#f5a0bc" vector-effect="non-scaling-stroke" d="
  M 160.98 111.73
  A 32.54 32.54 0.0 0 0 128.44 79.19
  A 32.54 32.54 0.0 0 0 95.90 111.73
  A 32.54 32.54 0.0 0 0 128.44 144.27
  A 32.54 32.54 0.0 0 0 160.98 111.73"
/>
<path stroke="#99a0b0" vector-effect="non-scaling-stroke" d="
  M 146.57 111.93
  A 18.45 18.45 0.0 0 0 128.12 93.48
  A 18.45 18.45 0.0 0 0 109.67 111.93
  A 18.45 18.45 0.0 0 0 128.12 130.38
  A 18.45 18.45 0.0 0 0 146.57 111.93"
/>
</g>
<path fill="#334060" d="
  M 256.00 0.00
  L 256.00 256.00
  L 0.00 256.00
  L 0.00 0.00
  L 256.00 0.00
  Z
  M 212.76 215.79
  Q 211.96 212.88 209.44 207.41
  C 207.55 203.27 204.20 192.51 205.58 186.53
  Q 206.08 184.36 209.19 179.40
  C 241.47 127.72 219.39 60.89 163.02 38.52
  C 138.94 28.96 110.33 29.97 86.80 41.32
  C 61.38 53.57 42.68 75.92 35.32 103.11
  C 23.40 147.14 44.42 193.40 84.69 213.57
  C 111.64 227.07 142.38 227.19 169.80 214.55
  Q 174.31 212.47 178.51 213.61
  Q 189.07 216.47 190.99 216.78
  Q 201.14 218.44 211.82 217.19
  A 1.11 1.11 0.0 0 0 212.76 215.79
  Z"
/>
<path fill="#ffffff" d="
  M 212.76 215.79
  A 1.11 1.11 0.0 0 1 211.82 217.19
  Q 201.14 218.44 190.99 216.78
  Q 189.07 216.47 178.51 213.61
  Q 174.31 212.47 169.80 214.55
  C 142.38 227.19 111.64 227.07 84.69 213.57
  C 44.42 193.40 23.40 147.14 35.32 103.11
  C 42.68 75.92 61.38 53.57 86.80 41.32
  C 110.33 29.97 138.94 28.96 163.02 38.52
  C 219.39 60.89 241.47 127.72 209.19 179.40
  Q 206.08 184.36 205.58 186.53
  C 204.20 192.51 207.55 203.27 209.44 207.41
  Q 211.96 212.88 212.76 215.79
  Z
  M 175.28 111.77
  A 46.66 46.66 0.0 0 0 128.62 65.11
  A 46.66 46.66 0.0 0 0 81.96 111.77
  A 46.66 46.66 0.0 0 0 128.62 158.43
  A 46.66 46.66 0.0 0 0 175.28 111.77
  Z
  M 127.92 193.69
  Q 136.25 193.84 144.03 189.30
  C 148.36 186.78 150.99 182.86 148.07 177.97
  C 146.31 175.02 142.05 173.83 138.92 175.60
  C 135.18 177.71 132.91 179.49 128.18 179.41
  C 123.46 179.32 121.25 177.45 117.60 175.21
  C 114.53 173.32 110.23 174.36 108.36 177.24
  C 105.26 182.02 107.75 186.03 111.98 188.72
  Q 119.59 193.54 127.92 193.69
  Z"
/>
<path fill="#eb4179" d="
  M 175.28 111.77
  A 46.66 46.66 0.0 0 1 128.62 158.43
  A 46.66 46.66 0.0 0 1 81.96 111.77
  A 46.66 46.66 0.0 0 1 128.62 65.11
  A 46.66 46.66 0.0 0 1 175.28 111.77
  Z
  M 160.98 111.73
  A 32.54 32.54 0.0 0 0 128.44 79.19
  A 32.54 32.54 0.0 0 0 95.90 111.73
  A 32.54 32.54 0.0 0 0 128.44 144.27
  A 32.54 32.54 0.0 0 0 160.98 111.73
  Z"
/>
<path fill="#ffffff" d="
  M 160.98 111.73
  A 32.54 32.54 0.0 0 1 128.44 144.27
  A 32.54 32.54 0.0 0 1 95.90 111.73
  A 32.54 32.54 0.0 0 1 128.44 79.19
  A 32.54 32.54 0.0 0 1 160.98 111.73
  Z
  M 146.57 111.93
  A 18.45 18.45 0.0 0 0 128.12 93.48
  A 18.45 18.45 0.0 0 0 109.67 111.93
  A 18.45 18.45 0.0 0 0 128.12 130.38
  A 18.45 18.45 0.0 0 0 146.57 111.93
  Z"
/>
<circle fill="#334060" cx="128.12" cy="111.93" r="18.45"/>
<path fill="#334060" d="
  M 128.18 179.41
  C 132.91 179.49 135.18 177.71 138.92 175.60
  C 142.05 173.83 146.31 175.02 148.07 177.97
  C 150.99 182.86 148.36 186.78 144.03 189.30
  Q 136.25 193.84 127.92 193.69
  Q 119.59 193.54 111.98 188.72
  C 107.75 186.03 105.26 182.02 108.36 177.24
  C 110.23 174.36 114.53 173.32 117.60 175.21
  C 121.25 177.45 123.46 179.32 128.18 179.41
  Z"
/>
</svg>