<?xml version="1.0" encoding="UTF-8" standalone="no"?>
<!DOCTYPE svg PUBLIC "-//W3C//DTD SVG 1.1//EN" "http://www.w3.org/Graphics/SVG/1.1/DTD/svg11.dtd">
<svg xmlns="http://www.w3.org/2000/svg" version="1.1" viewBox="0.00 0.00 180.00 180.00" width="128" height="128">
<g stroke-width="2.00" fill="none" stroke-linecap="butt">
<path stroke="#808080" vector-effect="non-scaling-stroke" d="
  M 48.03 48.02
  Q 42.91 53.14 42.69 60.40
  C 42.38 70.41 50.34 79.35 60.32 79.44
  Q 64.86 79.47 68.26 79.52
  A 0.66 0.66 0.0 0 1 68.92 80.16
  Q 68.93 80.63 68.93 90.00
  Q 68.93 99.38 68.91 99.85
  A 0.66 0.66 0.0 0 1 68.26 100.48
  Q 64.86 100.53 60.32 100.56
  C 50.34 100.65 42.38 109.59 42.69 119.61
  Q 42.91 126.86 48.02 131.98
  Q 53.14 137.09 60.40 137.32
  C 70.41 137.63 79.35 129.67 79.44 119.69
  Q 79.47 115.15 79.52 111.75
  A 0.66 0.66 0.0 0 1 80.16 111.09
  Q 80.63 111.07 90.00 111.08
  Q 99.38 111.08 99.85 111.09
  A 0.66 0.66 0.0 0 1 100.48 111.75
  Q 100.53 115.15 100.56 119.69
  C 100.65 129.67 109.59 137.63 119.61 137.32
  Q 126.86 137.10 131.98 131.98
  Q 137.09 126.87 137.32 119.61
  C 137.63 109.60 129.67 100.66 119.69 100.57
  Q 115.15 100.54 111.75 100.49
  A 0.66 0.66 0.0 0 1 111.09 99.85
  Q 111.07 99.38 111.07 90.00
  Q 111.08 80.63 111.09 80.16
  A 0.66 0.66 0.0 0 1 111.75 79.52
  Q 115.15 79.47 119.69 79.44
  C 129.67 79.35 137.63 70.41 137.32 60.40
  Q 137.10 53.14 131.98 48.03
  Q 126.87 42.91 119.61 42.69
  C 109.60 42.38 100.66 50.34 100.57 60.32
  Q 100.54 64.86 100.49 68.26
  A 0.66 0.66 0.0 0 1 99.85 68.92
  Q 99.38 68.93 90.00 68.93
  Q 80.63 68.93 80.16 68.92
  A 0.66 0.66 0.0 0 1 79.52 68.26
  Q 79.47 64.86 79.44 60.32
  C 79.35 50.34 70.41 42.38 60.40 42.69
  Q 53.14 42.91 48.03 48.02"
/>
<path stroke="#808080" vector-effect="non-scaling-stroke" d="
  M 55.47 55.48
  C 50.40 60.56 53.95 68.48 61.06 68.87
  Q 65.88 69.13 68.76 68.89
  A 0.13 0.08 14.8 0 0 68.84 68.87
  Q 68.85 68.85 68.87 68.84
  Q 68.87 68.84 68.88 68.82
  A 0.13 0.08 75.1 0 0 68.90 68.75
  Q 69.14 65.87 68.87 61.05
  C 68.47 53.94 60.54 50.40 55.47 55.48"
/>
<path stroke="#808080" vector-effect="non-scaling-stroke" d="
  M 124.53 55.48
  C 119.45 50.40 111.53 53.95 111.14 61.05
  Q 110.87 65.87 111.11 68.75
  A 0.13 0.08 -75.1 0 0 111.13 68.83
  Q 111.15 68.84 111.16 68.86
  Q 111.16 68.86 111.18 68.87
  A 0.13 0.08 -14.9 0 0 111.25 68.89
  Q 114.13 69.13 118.95 68.86
  C 126.06 68.47 129.60 60.55 124.53 55.48"
/>
<path stroke="#808080" vector-effect="non-scaling-stroke" d="
  M 100.55 79.86
  A 0.40 0.40 0.0 0 0 100.15 79.46
  L 79.87 79.46
  A 0.40 0.40 0.0 0 0 79.47 79.86
  L 79.47 100.14
  A 0.40 0.40 0.0 0 0 79.87 100.54
  L 100.15 100.54
  A 0.40 0.40 0.0 0 0 100.55 100.14
  L 100.55 79.86"
/>
<path stroke="#808080" vector-effect="non-scaling-stroke" d="
  M 55.48 124.53
  C 60.56 129.60 68.48 126.05 68.86 118.95
  Q 69.13 114.13 68.89 111.25
  A 0.13 0.08 -75.2 0 0 68.87 111.17
  Q 68.86 111.15 68.86 111.16
  Q 68.84 111.14 68.83 111.13
  A 0.13 0.08 -14.9 0 0 68.75 111.11
  Q 65.87 110.87 61.05 111.14
  C 53.94 111.54 50.40 119.46 55.48 124.53"
/>
<path stroke="#808080" vector-effect="non-scaling-stroke" d="
  M 124.52 124.53
  C 129.60 119.47 126.06 111.54 118.96 111.14
  Q 114.14 110.87 111.26 111.10
  A 0.13 0.08 14.9 0 0 111.18 111.13
  Q 111.17 111.14 111.15 111.16
  Q 111.15 111.15 111.14 111.17
  A 0.13 0.08 75.2 0 0 111.12 111.25
  Q 110.88 114.13 111.14 118.94
  C 111.52 126.05 119.44 129.60 124.52 124.53"
/>
</g>
<path fill="#000000" d="
  M 180.00 0.00
  L 180.00 180.00
  L 0.00 180.00
  L 0.00 0.00
  L 180.00 0.00
  Z
  M 48.03 48.02
  Q 42.91 53.14 42.69 60.40
  C 42.38 70.41 50.34 79.35 60.32 79.44
  Q 64.86 79.47 68.26 79.52
  A 0.66 0.66 0.0 0 1 68.92 80.16
  Q 68.93 80.63 68.93 90.00
  Q 68.93 99.38 68.91 99.85
  A 0.66 0.66 0.0 0 1 68.26 100.48
  Q 64.86 100.53 60.32 100.56
  C 50.34 100.65 42.38 109.59 42.69 119.61
  Q 42.91 126.86 48.02 131.98
  Q 53.14 137.09 60.40 137.32
  C 70.41 137.63 79.35 129.67 79.44 119.69
  Q 79.47 115.15 79.52 111.75
  A 0.66 0.66 0.0 0 1 80.16 111.09
  Q 80.63 111.07 90.00 111.08
  Q 99.38 111.08 99.85 111.09
  A 0.66 0.66 0.0 0 1 100.48 111.75
  Q 100.53 115.15 100.56 119.69
  C 100.65 129.67 109.59 137.63 119.61 137.32
  Q 126.86 137.10 131.98 131.98
  Q 137.09 126.87 137.32 119.61
  C 137.63 109.60 129.67 100.66 119.69 100.57
  Q 115.15 100.54 111.75 100.49
  A 0.66 0.66 0.0 0 1 111.09 99.85
  Q 111.07 99.38 111.07 90.00
  Q 111.08 80.63 111.09 80.16
  A 0.66 0.66 0.0 0 1 111.75 79.52
  Q 115.15 79.47 119.69 79.44
  C 129.67 79.35 137.63 70.41 137.32 60.40
  Q 137.10 53.14 131.98 48.03
  Q 126.87 42.91 119.61 42.69
  C 109.60 42.38 100.66 50.34 100.57 60.32
  Q 100.54 64.86 100.49 68.26
  A 0.66 0.66 0.0 0 1 99.85 68.92
  Q 99.38 68.93 90.00 68.93
  Q 80.63 68.93 80.16 68.92
  A 0.66 0.66 0.0 0 1 79.52 68.26
  Q 79.47 64.86 79.44 60.32
  C 79.35 50.34 70.41 42.38 60.40 42.69
  Q 53.14 42.91 48.03 48.02
  Z"
/>
<path fill="#ffffff" d="
  M 90.00 68.93
  Q 99.38 68.93 99.85 68.92
  A 0.66 0.66 0.0 0 0 100.49 68.26
  Q 100.54 64.86 100.57 60.32
  C 100.66 50.34 109.60 42.38 119.61 42.69
  Q 126.87 42.91 131.98 48.03
  Q 137.10 53.14 137.32 60.40
  C 137.63 70.41 129.67 79.35 119.69 79.44
  Q 115.15 79.47 111.75 79.52
  A 0.66 0.66 0.0 0 0 111.09 80.16
  Q 111.08 80.63 111.07 90.00
  Q 111.07 99.38 111.09 99.85
  A 0.66 0.66 0.0 0 0 111.75 100.49
  Q 115.15 100.54 119.69 100.57
  C 129.67 100.66 137.63 109.60 137.32 119.61
  Q 137.09 126.87 131.98 131.98
  Q 126.86 137.10 119.61 137.32
  C 109.59 137.63 100.65 129.67 100.56 119.69
  Q 100.53 115.15 100.48 111.75
  A 0.66 0.66 0.0 0 0 99.85 111.09
  Q 99.38 111.08 90.00 111.08
  Q 80.63 111.07 80.16 111.09
  A 0.66 0.66 0.0 0 0 79.52 111.75
  Q 79.47 115.15 79.44 119.69
  C 79.35 129.67 70.41 137.63 60.40 137.32
  Q 53.14 137.09 48.02 131.98
  Q 42.91 126.86 42.69 119.61
  C 42.38 109.59 50.34 100.65 60.32 100.56
  Q 64.86 100.53 68.26 100.48
  A 0.66 0.66 0.0 0 0 68.91 99.85
  Q 68.93 99.38 68.93 90.00
  Q 68.93 80.63 68.92 80.16
  A 0.66 0.66 0.0 0 0 68.26 79.52
  Q 64.86 79.47 60.32 79.44
  C 50.34 79.35 42.38 70.41 42.69 60.40
  Q 42.91 53.14 48.03 48.02
  Q 53.14 42.91 60.40 42.69
  C 70.41 42.38 79.35 50.34 79.44 60.32
  Q 79.47 64.86 79.52 68.26
  A 0.66 0.66 0.0 0 0 80.16 68.92
  Q 80.63 68.93 90.00 68.93
  Z
  M 55.47 55.48
  C 50.40 60.56 53.95 68.48 61.06 68.87
  Q 65.88 69.13 68.76 68.89
  A 0.13 0.08 14.8 0 0 68.84 68.87
  Q 68.85 68.85 68.87 68.84
  Q 68.87 68.84 68.88 68.82
  A 0.13 0.08 75.1 0 0 68.90 68.75
  Q 69.14 65.87 68.87 61.05
  C 68.47 53.94 60.54 50.40 55.47 55.48
  Z
  M 124.53 55.48
  C 119.45 50.40 111.53 53.95 111.14 61.05
  Q 110.87 65.87 111.11 68.75
  A 0.13 0.08 -75.1 0 0 111.13 68.83
  Q 111.15 68.84 111.16 68.86
  Q 111.16 68.86 111.18 68.87
  A 0.13 0.08 -14.9 0 0 111.25 68.89
  Q 114.13 69.13 118.95 68.86
  C 126.06 68.47 129.60 60.55 124.53 55.48
  Z
  M 100.55 79.86
  A 0.40 0.40 0.0 0 0 100.15 79.46
  L 79.87 79.46
  A 0.40 0.40 0.0 0 0 79.47 79.86
  L 79.47 100.14
  A 0.40 0.40 0.0 0 0 79.87 100.54
  L 100.15 100.54
  A 0.40 0.40 0.0 0 0 100.55 100.14
  L 100.55 79.86
  Z
  M 55.48 124.53
  C 60.56 129.60 68.48 126.05 68.86 118.95
  Q 69.13 114.13 68.89 111.25
  A 0.13 0.08 -75.2 0 0 68.87 111.17
  Q 68.86 111.15 68.86 111.16
  Q 68.84 111.14 68.83 111.13
  A 0.13 0.08 -14.9 0 0 68.75 111.11
  Q 65.87 110.87 61.05 111.14
  C 53.94 111.54 50.40 119.46 55.48 124.53
  Z
  M 124.52 124.53
  C 129.60 119.47 126.06 111.54 118.96 111.14
  Q 114.14 110.87 111.26 111.10
  A 0.13 0.08 14.9 0 0 111.18 111.13
  Q 111.17 111.14 111.15 111.16
  Q 111.15 111.15 111.14 111.17
  A 0.13 0.08 75.2 0 0 111.12 111.25
  Q 110.88 114.13 111.14 118.94
  C 111.52 126.05 119.44 129.60 124.52 124.53
  Z"
/>
<path fill="#000000" d="
  M 68.87 68.84
  Q 68.85 68.85 68.84 68.87
  A 0.13 0.08 14.8 0 1 68.76 68.89
  Q 65.88 69.13 61.06 68.87
  C 53.95 68.48 50.40 60.56 55.47 55.48
  C 60.54 50.40 68.47 53.94 68.87 61.05
  Q 69.14 65.87 68.90 68.75
  A 0.13 0.08 75.1 0 1 68.88 68.82
  Q 68.87 68.84 68.87 68.84
  Z"
/>
<path fill="#000000" d="
  M 124.53 55.48
  C 129.60 60.55 126.06 68.47 118.95 68.86
  Q 114.13 69.13 111.25 68.89
  A 0.13 0.08 -14.9 0 1 111.18 68.87
  Q 111.16 68.86 111.16 68.86
  Q 111.15 68.84 111.13 68.83
  A 0.13 0.08 -75.1 0 1 111.11 68.75
  Q 110.87 65.87 111.14 61.05
  C 111.53 53.95 119.45 50.40 124.53 55.48
  Z"
/>
<rect fill="#000000" x="79.47" y="79.46" width="21.08" height="21.08" rx="0.40"/>
<path fill="#000000" d="
  M 55.48 124.53
  C 50.40 119.46 53.94 111.54 61.05 111.14
  Q 65.87 110.87 68.75 111.11
  A 0.13 0.08 -14.9 0 1 68.83 111.13
  Q 68.84 111.14 68.86 111.16
  Q 68.86 111.15 68.87 111.17
  A 0.13 0.08 -75.2 0 1 68.89 111.25
  Q 69.13 114.13 68.86 118.95
  C 68.48 126.05 60.56 129.60 55.48 124.53
  Z"
/>
<path fill="#000000" d="
  M 124.52 124.53
  C 119.44 129.60 111.52 126.05 111.14 118.94
  Q 110.88 114.13 111.12 111.25
  A 0.13 0.08 75.2 0 1 111.14 111.17
  Q 111.15 111.15 111.15 111.16
  Q 111.17 111.14 111.18 111.13
  A 0.13 0.08 14.9 0 1 111.26 111.10
  Q 114.14 110.87 118.96 111.14
  C 126.06 111.54 129.60 119.47 124.52 124.53
  Z"
/>
</svg>