<?xml version="1.0" encoding="UTF-8" standalone="no"?>
<!DOCTYPE svg PUBLIC "-//W3C//DTD SVG 1.1//EN" "http://www.w3.org/Graphics/SVG/1.1/DTD/svg11.dtd">
<svg xmlns="http://www.w3.org/2000/svg" version="1.1" viewBox="0.00 0.00 180.00 180.00" width="128" height="128">
<g stroke-width="2.00" fill="none" stroke-linecap="butt">
<path stroke="#f2918c" vector-effect="non-scaling-stroke" d="
  M 150.4556 101.6501
  A 15.86 15.86 0.0 0 0 150.4164 79.2207
  L 101.6401 30.6144
  A 15.86 15.86 0.0 0 0 79.2107 30.6536
  L 30.6044 79.4299
  A 15.86 15.86 0.0 0 0 30.6436 101.8593
  L 79.4199 150.4656
  A 15.86 15.86 0.0 0 0 101.8493 150.4264
  L 150.4556 101.6501"
/>
<path stroke="#f2918c" vector-effect="non-scaling-stroke" d="
  M 98.54 101.34
  Q 104.20 88.01 94.96 78.40
  C 85.19 68.24 68.56 71.92 63.06 84.37
  Q 59.25 92.99 64.09 102.18
  A 0.18 0.18 0.0 0 1 63.83 102.41
  Q 51.25 93.46 50.25 78.40
  A 1.67 1.66 88.2 0 0 48.59 76.84
  L 47.26 76.84
  A 1.46 1.46 0.0 0 0 45.80 78.34
  C 46.99 115.57 91.31 134.84 119.50 110.70
  Q 134.28 98.05 135.31 77.89
  A 1.15 1.14 1.4 0 0 134.16 76.69
  L 112.45 76.69
  A 0.74 0.74 0.0 0 0 111.71 77.38
  Q 110.73 92.74 98.95 101.67
  A 0.27 0.27 0.0 0 1 98.54 101.34"
/>
<path stroke="#f2918c" vector-effect="non-scaling-stroke" d="
  M 96.56 92.02
  A 15.36 15.36 0.0 0 0 81.20 76.66
  A 15.36 15.36 0.0 0 0 65.84 92.02
  A 15.36 15.36 0.0 0 0 81.20 107.38
  A 15.36 15.36 0.0 0 0 96.56 92.02"
/>
</g>
<path fill="#e42219" d="
  M 180.00 0.00
  L 180.00 180.00
  L 0.00 180.00
  L 0.00 0.00
  L 180.00 0.00
  Z
  M 150.4556 101.6501
  A 15.86 15.86 0.0 0 0 150.4164 79.2207
  L 101.6401 30.6144
  A 15.86 15.86 0.0 0 0 79.2107 30.6536
  L 30.6044 79.4299
  A 15.86 15.86 0.0 0 0 30.6436 101.8593
  L 79.4199 150.4656
  A 15.86 15.86 0.0 0 0 101.8493 150.4264
  L 150.4556 101.6501
  Z"
/>
<path fill="#ffffff" d="
  M 101.8493 150.4264
  A 15.86 15.86 0.0 0 1 79.4199 150.4656
  L 30.6436 101.8593
  A 15.86 15.86 0.0 0 1 30.6044 79.4299
  L 79.2107 30.6536
  A 15.86 15.86 0.0 0 1 101.6401 30.6144
  L 150.4164 79.2207
  A 15.86 15.86 0.0 0 1 150.4556 101.6501
  L 101.8493 150.4264
  Z
  M 98.54 101.34
  Q 104.20 88.01 94.96 78.40
  C 85.19 68.24 68.56 71.92 63.06 84.37
  Q 59.25 92.99 64.09 102.18
  A 0.18 0.18 0.0 0 1 63.83 102.41
  Q 51.25 93.46 50.25 78.40
  A 1.67 1.66 88.2 0 0 48.59 76.84
  L 47.26 76.84
  A 1.46 1.46 0.0 0 0 45.80 78.34
  C 46.99 115.57 91.31 134.84 119.50 110.70
  Q 134.28 98.05 135.31 77.89
  A 1.15 1.14 1.4 0 0 134.16 76.69
  L 112.45 76.69
  A 0.74 0.74 0.0 0 0 111.71 77.38
  Q 110.73 92.74 98.95 101.67
  A 0.27 0.27 0.0 0 1 98.54 101.34
  Z"
/>
<path fill="#e42219" d="
  M 98.95 101.67
  Q 110.73 92.74 111.71 77.38
  A 0.74 0.74 0.0 0 1 112.45 76.69
  L 134.16 76.69
  A 1.15 1.14 1.4 0 1 135.31 77.89
  Q 134.28 98.05 119.50 110.70
  C 91.31 134.84 46.99 115.57 45.80 78.34
  A 1.46 1.46 0.0 0 1 47.26 76.84
  L 48.59 76.84
  A 1.67 1.66 88.2 0 1 50.25 78.40
  Q 51.25 93.46 63.83 102.41
  A 0.18 0.18 0.0 0 0 64.09 102.18
  Q 59.25 92.99 63.06 84.37
  C 68.56 71.92 85.19 68.24 94.96 78.40
  Q 104.20 88.01 98.54 101.34
  A 0.27 0.27 0.0 0 0 98.95 101.67
  Z
  M 96.56 92.02
  A 15.36 15.36 0.0 0 0 81.20 76.66
  A 15.36 15.36 0.0 0 0 65.84 92.02
  A 15.36 15.36 0.0 0 0 81.20 107.38
  A 15.36 15.36 0.0 0 0 96.56 92.02
  Z"
/>
<circle fill="#ffffff" cx="81.20" cy="92.02" r="15.36"/>
</svg>