<?xml version="1.0" encoding="UTF-8" standalone="no"?>
<!DOCTYPE svg PUBLIC "-//W3C//DTD SVG 1.1//EN" "http://www.w3.org/Graphics/SVG/1.1/DTD/svg11.dtd">
<svg xmlns="http://www.w3.org/2000/svg" version="1.1" viewBox="0.00 0.00 256.00 256.00" width="128" height="128">
<g stroke-width="2.00" fill="none" stroke-linecap="butt">
<path stroke="#80eac2" vector-effect="non-scaling-stroke" d="
  M 113.75 256.00
  L 117.44 255.76
  A 0.17 0.17 0.0 0 0 117.60 255.59
  A 0.19 0.18 -86.6 0 0 117.44 255.40
  L 99.01 253.08"
/>
<path stroke="#80eac2" vector-effect="non-scaling-stroke" d="
  M 191.01 191.16
  L 207.68 173.85
  A 1.08 1.07 44.1 0 0 207.65 172.33
  L 189.42 154.76
  A 1.70 1.70 0.0 0 1 189.18 152.60
  C 202.15 132.99 200.82 106.96 187.14 88.17
  C 169.31 63.68 133.68 57.55 109.18 75.94
  Q 90.99 89.60 86.94 110.61
  C 82.42 134.08 92.39 158.03 112.96 170.34
  Q 135.29 183.70 160.88 175.30
  C 163.56 174.42 166.45 172.49 168.45 171.80
  A 1.91 1.91 0.0 0 1 170.40 172.24
  L 190.06 191.18
  A 0.68 0.67 -45.9 0 0 191.01 191.16"
/>
<path stroke="#80eac2" vector-effect="non-scaling-stroke" d="
  M 76.03 84.58
  A 10.89 10.89 0.0 0 0 65.14 73.69
  A 10.89 10.89 0.0 0 0 54.25 84.58
  A 10.89 10.89 0.0 0 0 65.14 95.47
  A 10.89 10.89 0.0 0 0 76.03 84.58"
/>
<path stroke="#80eac2" vector-effect="non-scaling-stroke" d="
  M 73.88 108.96
  A 1.22 1.22 0.0 0 0 72.66 107.74
  L 57.42 107.74
  A 1.22 1.22 0.0 0 0 56.20 108.96
  L 56.20 174.80
  A 1.22 1.22 0.0 0 0 57.42 176.02
  L 72.66 176.02
  A 1.22 1.22 0.0 0 0 73.88 174.80
  L 73.88 108.96"
/>
<path stroke="#80eac2" vector-effect="non-scaling-stroke" d="
  M 169.40 171.20
  A 0.40 0.39 -38.9 0 0 169.88 171.25
  Q 180.49 164.58 187.82 154.80
  A 1.36 1.35 40.6 0 0 187.68 153.02
  L 177.40 143.12
  A 0.94 0.94 0.0 0 1 177.23 141.99
  Q 184.83 128.04 181.67 113.31
  C 177.63 94.46 160.41 80.91 141.29 81.54
  C 128.57 81.96 117.75 87.78 110.03 97.98
  C 101.13 109.76 99.48 126.77 106.62 140.18
  Q 116.57 158.88 137.52 161.94
  Q 144.90 163.01 151.82 161.05
  Q 156.00 159.86 156.93 159.74
  A 1.06 1.05 62.5 0 1 157.80 160.02
  L 169.40 171.20"
/>
</g>
<path fill="#00d585" d="
  M 134.74 0.00
  C 157.34 1.74 180.80 8.58 199.05 21.42
  Q 210.46 29.44 220.82 39.67
  C 229.32 48.06 235.19 57.29 241.15 68.83
  Q 253.98 93.64 256.00 119.99
  L 256.00 136.96
  Q 254.36 154.20 248.75 170.35
  C 243.53 185.38 236.09 197.19 226.34 209.87
  Q 218.21 220.46 202.28 232.02
  C 182.93 246.05 160.77 253.80 136.97 256.00
  L 113.75 256.00
  L 117.44 255.76
  A 0.17 0.17 0.0 0 0 117.60 255.59
  A 0.19 0.18 -86.6 0 0 117.44 255.40
  L 99.01 253.08
  Q 95.97 251.83 92.76 250.98
  Q 88.44 249.84 86.48 249.07
  Q 76.16 245.01 71.03 242.47
  C 58.10 236.07 44.84 227.07 35.18 216.20
  C 27.73 207.82 21.77 200.60 16.66 190.76
  Q 10.77 179.41 9.99 177.48
  Q 2.00 157.69 0.00 136.34
  L 0.00 119.62
  C 1.55 104.72 4.97 89.19 11.21 75.93
  C 19.90 57.44 31.83 40.66 48.05 28.05
  C 52.56 24.55 60.83 18.71 66.69 15.47
  Q 78.96 8.68 92.95 4.99
  Q 107.48 1.16 110.87 0.88
  Q 115.25 0.51 119.64 0.00
  L 134.74 0.00
  Z
  M 191.01 191.16
  L 207.68 173.85
  A 1.08 1.07 44.1 0 0 207.65 172.33
  L 189.42 154.76
  A 1.70 1.70 0.0 0 1 189.18 152.60
  C 202.15 132.99 200.82 106.96 187.14 88.17
  C 169.31 63.68 133.68 57.55 109.18 75.94
  Q 90.99 89.60 86.94 110.61
  C 82.42 134.08 92.39 158.03 112.96 170.34
  Q 135.29 183.70 160.88 175.30
  C 163.56 174.42 166.45 172.49 168.45 171.80
  A 1.91 1.91 0.0 0 1 170.40 172.24
  L 190.06 191.18
  A 0.68 0.67 -45.9 0 0 191.01 191.16
  Z
  M 76.03 84.58
  A 10.89 10.89 0.0 0 0 65.14 73.69
  A 10.89 10.89 0.0 0 0 54.25 84.58
  A 10.89 10.89 0.0 0 0 65.14 95.47
  A 10.89 10.89 0.0 0 0 76.03 84.58
  Z
  M 73.88 108.96
  A 1.22 1.22 0.0 0 0 72.66 107.74
  L 57.42 107.74
  A 1.22 1.22 0.0 0 0 56.20 108.96
  L 56.20 174.80
  A 1.22 1.22 0.0 0 0 57.42 176.02
  L 72.66 176.02
  A 1.22 1.22 0.0 0 0 73.88 174.80
  L 73.88 108.96
  Z"
/>
<path fill="#ffffff" d="
  M 191.01 191.16
  A 0.68 0.67 -45.9 0 1 190.06 191.18
  L 170.40 172.24
  A 1.91 1.91 0.0 0 0 168.45 171.80
  C 166.45 172.49 163.56 174.42 160.88 175.30
  Q 135.29 183.70 112.96 170.34
  C 92.39 158.03 82.42 134.08 86.94 110.61
  Q 90.99 89.60 109.18 75.94
  C 133.68 57.55 169.31 63.68 187.14 88.17
  C 200.82 106.96 202.15 132.99 189.18 152.60
  A 1.70 1.70 0.0 0 0 189.42 154.76
  L 207.65 172.33
  A 1.08 1.07 44.1 0 1 207.68 173.85
  L 191.01 191.16
  Z
  M 169.40 171.20
  A 0.40 0.39 -38.9 0 0 169.88 171.25
  Q 180.49 164.58 187.82 154.80
  A 1.36 1.35 40.6 0 0 187.68 153.02
  L 177.40 143.12
  A 0.94 0.94 0.0 0 1 177.23 141.99
  Q 184.83 128.04 181.67 113.31
  C 177.63 94.46 160.41 80.91 141.29 81.54
  C 128.57 81.96 117.75 87.78 110.03 97.98
  C 101.13 109.76 99.48 126.77 106.62 140.18
  Q 116.57 158.88 137.52 161.94
  Q 144.90 163.01 151.82 161.05
  Q 156.00 159.86 156.93 159.74
  A 1.06 1.05 62.5 0 1 157.80 160.02
  L 169.40 171.20
  Z"
/>
<circle fill="#ffffff" cx="65.14" cy="84.58" r="10.89"/>
<path fill="#00d585" d="
  M 169.40 171.20
  L 157.80 160.02
  A 1.06 1.05 62.5 0 0 156.93 159.74
  Q 156.00 159.86 151.82 161.05
  Q 144.90 163.01 137.52 161.94
  Q 116.57 158.88 106.62 140.18
  C 99.48 126.77 101.13 109.76 110.03 97.98
  C 117.75 87.78 128.57 81.96 141.29 81.54
  C 160.41 80.91 177.63 94.46 181.67 113.31
  Q 184.83 128.04 177.23 141.99
  A 0.94 0.94 0.0 0 0 177.40 143.12
  L 187.68 153.02
  A 1.36 1.35 40.6 0 1 187.82 154.80
  Q 180.49 164.58 169.88 171.25
  A 0.40 0.39 -38.9 0 1 169.40 171.20
  Z"
/>
<rect fill="#ffffff" x="56.20" y="107.74" width="17.68" height="68.28" rx="1.22"/>
<path fill="#ffffff" d="
  M 113.75 256.00
  L 100.87 256.00
  L 99.20 255.88
  A 0.75 0.74 -4.8 0 1 98.53 255.32
  Q 98.29 254.37 99.01 253.08
  L 117.44 255.40
  A 0.19 0.18 -86.6 0 1 117.60 255.59
  A 0.17 0.17 0.0 0 1 117.44 255.76
  L 113.75 256.00
  Z"
/>
</svg>