<?xml version="1.0" encoding="UTF-8" standalone="no"?>
<!DOCTYPE svg PUBLIC "-//W3C//DTD SVG 1.1//EN" "http://www.w3.org/Graphics/SVG/1.1/DTD/svg11.dtd">
<svg xmlns="http://www.w3.org/2000/svg" version="1.1" viewBox="0.00 0.00 256.00 256.00" width="128" height="128">
<g stroke-width="2.00" fill="none" stroke-linecap="butt">
<path stroke="#96d1e2" vector-effect="non-scaling-stroke" d="
  M 235.09 198.82
  L 234.54 193.99
  A 2.32 1.84 -65.0 0 0 234.44 193.57
  Q 231.43 185.41 233.13 176.31
  C 234.53 168.78 236.34 157.23 238.83 146.16
  Q 239.71 142.24 238.97 140.04
  C 236.84 133.76 231.77 127.37 224.97 125.77
  C 213.22 123.00 203.33 125.60 193.43 132.84
  C 182.78 140.63 175.92 150.50 170.67 162.66
  C 168.92 166.71 167.71 172.07 165.46 176.48
  C 161.52 184.22 154.51 187.30 146.67 191.33
  C 140.10 194.70 133.53 195.43 126.18 194.74
  C 123.02 194.44 120.86 193.01 120.39 189.82
  Q 120.00 187.23 122.61 186.12
  Q 139.42 179.02 150.24 164.57
  C 154.83 158.44 158.30 149.68 154.82 142.48
  C 152.35 137.36 150.40 133.56 146.52 130.19
  Q 139.41 124.03 129.15 124.04
  C 120.69 124.05 111.96 130.02 106.76 136.73
  Q 103.54 140.88 99.52 148.81
  Q 93.93 159.82 93.63 172.73
  C 93.47 179.39 91.14 182.11 86.01 185.52
  C 79.86 189.60 75.22 193.42 68.26 190.82
  Q 66.40 190.12 65.80 188.06
  Q 63.49 180.22 66.06 172.56
  Q 69.90 161.14 75.64 151.11
  C 79.39 144.56 81.55 139.72 85.28 133.99
  C 88.08 129.69 89.53 125.58 92.14 121.23
  C 95.59 115.47 97.49 109.08 100.68 102.92
  Q 102.35 99.68 104.33 94.29
  Q 109.59 79.94 112.65 64.68
  C 114.95 53.24 115.33 40.92 103.28 34.71
  C 96.99 31.47 88.09 36.55 83.38 40.92
  Q 74.12 49.49 67.68 61.17
  Q 60.84 73.57 55.95 85.20
  Q 52.62 93.11 46.22 115.23
  Q 44.90 119.76 44.02 126.75
  C 42.08 141.97 40.00 155.80 41.23 170.40
  C 42.26 182.74 43.93 192.69 49.04 202.77
  Q 52.95 210.49 61.89 214.67
  A 5.09 5.01 -32.5 0 0 64.13 215.15
  Q 76.87 214.91 85.88 209.31
  Q 93.49 204.58 98.52 202.10
  A 2.48 2.48 0.0 0 1 101.67 202.92
  C 106.08 209.36 115.56 213.79 122.63 214.77
  C 136.57 216.70 151.73 211.09 163.39 203.20
  A 2.10 2.09 51.9 0 1 166.13 203.54
  Q 171.33 209.34 177.81 212.65
  C 182.00 214.79 185.82 215.14 190.53 214.59
  C 196.94 213.85 201.92 212.30 207.00 208.68
  C 210.24 206.37 212.86 203.90 215.79 203.76
  Q 217.14 203.69 219.43 205.02
  Q 223.41 207.34 228.21 209.01"
/>
<path stroke="#96d1e2" vector-effect="non-scaling-stroke" d="
  M 94.56 60.13
  A 1.88 1.88 0.0 0 0 92.55 59.25
  Q 88.16 60.17 85.30 62.07
  C 81.88 64.34 80.97 68.07 79.70 72.38
  C 78.08 77.86 74.79 82.40 73.43 88.06
  Q 71.26 97.09 67.67 106.50
  Q 67.17 107.80 66.62 110.16
  C 65.80 113.65 65.18 116.14 64.80 119.56
  Q 64.05 126.39 63.01 132.71
  A 1.62 1.62 0.0 0 0 64.70 134.59
  Q 66.67 134.47 67.86 132.60
  Q 71.89 126.29 75.91 120.16
  Q 78.72 115.85 79.52 112.76
  C 80.92 107.29 83.71 101.18 85.70 97.09
  Q 87.37 93.67 89.18 86.61
  Q 90.77 80.41 94.27 71.02
  C 95.25 68.40 96.15 62.78 94.56 60.13"
/>
<path stroke="#96d1e2" vector-effect="non-scaling-stroke" d="
  M 116.70 169.86
  C 121.29 169.76 126.04 168.70 129.93 165.43
  Q 133.62 162.33 134.93 160.72
  C 138.10 156.86 140.56 149.75 137.74 145.26
  C 135.15 141.13 128.34 143.94 124.67 145.58
  A 4.79 4.78 89.4 0 0 122.24 148.07
  Q 119.62 154.33 116.27 160.94
  Q 114.44 164.54 114.94 168.35
  A 1.74 1.73 -4.2 0 0 116.70 169.86"
/>
<path stroke="#96d1e2" vector-effect="non-scaling-stroke" d="
  M 216.41 144.35
  A 1.20 1.20 0.0 0 0 215.19 143.36
  Q 209.98 143.49 205.86 146.18
  C 203.70 147.60 201.66 150.78 199.81 152.83
  C 191.57 161.98 187.65 176.36 187.88 187.71
  Q 187.99 192.86 193.28 196.24
  C 195.01 197.34 196.86 197.07 198.43 195.68
  Q 201.58 192.90 203.70 190.41
  C 208.46 184.80 211.15 175.80 211.96 168.38
  Q 212.83 160.45 215.60 151.93
  Q 216.98 147.69 216.41 144.35"
/>
</g>
<path fill="#2da2c5" d="
  M 136.73 0.00
  Q 148.37 0.09 155.34 2.06
  C 159.04 3.11 165.56 5.84 170.96 7.84
  Q 182.50 12.11 188.79 15.74
  C 194.40 18.97 200.26 22.40 205.40 26.42
  Q 209.32 29.49 212.49 32.03
  Q 218.72 37.04 225.03 44.51
  Q 246.69 70.16 254.39 102.83
  C 255.81 108.88 255.55 115.76 256.00 121.99
  L 256.00 143.49
  C 255.42 156.09 250.76 166.76 246.75 178.02
  Q 243.58 186.90 235.09 198.82
  L 234.54 193.99
  A 2.32 1.84 -65.0 0 0 234.44 193.57
  Q 231.43 185.41 233.13 176.31
  C 234.53 168.78 236.34 157.23 238.83 146.16
  Q 239.71 142.24 238.97 140.04
  C 236.84 133.76 231.77 127.37 224.97 125.77
  C 213.22 123.00 203.33 125.60 193.43 132.84
  C 182.78 140.63 175.92 150.50 170.67 162.66
  C 168.92 166.71 167.71 172.07 165.46 176.48
  C 161.52 184.22 154.51 187.30 146.67 191.33
  C 140.10 194.70 133.53 195.43 126.18 194.74
  C 123.02 194.44 120.86 193.01 120.39 189.82
  Q 120.00 187.23 122.61 186.12
  Q 139.42 179.02 150.24 164.57
  C 154.83 158.44 158.30 149.68 154.82 142.48
  C 152.35 137.36 150.40 133.56 146.52 130.19
  Q 139.41 124.03 129.15 124.04
  C 120.69 124.05 111.96 130.02 106.76 136.73
  Q 103.54 140.88 99.52 148.81
  Q 93.93 159.82 93.63 172.73
  C 93.47 179.39 91.14 182.11 86.01 185.52
  C 79.86 189.60 75.22 193.42 68.26 190.82
  Q 66.40 190.12 65.80 188.06
  Q 63.49 180.22 66.06 172.56
  Q 69.90 161.14 75.64 151.11
  C 79.39 144.56 81.55 139.72 85.28 133.99
  C 88.08 129.69 89.53 125.58 92.14 121.23
  C 95.59 115.47 97.49 109.08 100.68 102.92
  Q 102.35 99.68 104.33 94.29
  Q 109.59 79.94 112.65 64.68
  C 114.95 53.24 115.33 40.92 103.28 34.71
  C 96.99 31.47 88.09 36.55 83.38 40.92
  Q 74.12 49.49 67.68 61.17
  Q 60.84 73.57 55.95 85.20
  Q 52.62 93.11 46.22 115.23
  Q 44.90 119.76 44.02 126.75
  C 42.08 141.97 40.00 155.80 41.23 170.40
  C 42.26 182.74 43.93 192.69 49.04 202.77
  Q 52.95 210.49 61.89 214.67
  A 5.09 5.01 -32.5 0 0 64.13 215.15
  Q 76.87 214.91 85.88 209.31
  Q 93.49 204.58 98.52 202.10
  A 2.48 2.48 0.0 0 1 101.67 202.92
  C 106.08 209.36 115.56 213.79 122.63 214.77
  C 136.57 216.70 151.73 211.09 163.39 203.20
  A 2.10 2.09 51.9 0 1 166.13 203.54
  Q 171.33 209.34 177.81 212.65
  C 182.00 214.79 185.82 215.14 190.53 214.59
  C 196.94 213.85 201.92 212.30 207.00 208.68
  C 210.24 206.37 212.86 203.90 215.79 203.76
  Q 217.14 203.69 219.43 205.02
  Q 223.41 207.34 228.21 209.01
  Q 205.10 236.70 171.08 249.35
  Q 167.15 250.82 157.20 253.57
  Q 151.89 255.04 146.51 255.38
  Q 140.07 255.79 133.61 256.00
  L 123.87 256.00
  Q 116.29 255.96 108.77 255.35
  Q 102.40 254.83 96.51 252.98
  Q 82.47 248.58 70.77 242.67
  Q 57.54 235.98 44.89 225.36
  C 30.28 213.09 18.15 196.20 10.77 178.32
  Q 3.76 161.32 1.08 150.63
  Q 0.52 148.39 0.00 140.28
  L 0.00 125.77
  Q 0.17 116.62 1.55 107.67
  Q 2.48 101.69 4.44 96.32
  C 6.25 91.40 7.50 86.57 9.52 81.50
  Q 23.52 46.22 54.13 24.40
  Q 67.40 14.94 81.42 9.45
  Q 88.07 6.84 98.39 3.68
  Q 109.95 0.14 117.97 0.00
  L 136.73 0.00
  Z"
/>
<path fill="#ffffff" d="
  M 235.09 198.82
  L 228.21 209.01
  Q 223.41 207.34 219.43 205.02
  Q 217.14 203.69 215.79 203.76
  C 212.86 203.90 210.24 206.37 207.00 208.68
  C 201.92 212.30 196.94 213.85 190.53 214.59
  C 185.82 215.14 182.00 214.79 177.81 212.65
  Q 171.33 209.34 166.13 203.54
  A 2.10 2.09 51.9 0 0 163.39 203.20
  C 151.73 211.09 136.57 216.70 122.63 214.77
  C 115.56 213.79 106.08 209.36 101.67 202.92
  A 2.48 2.48 0.0 0 0 98.52 202.10
  Q 93.49 204.58 85.88 209.31
  Q 76.87 214.91 64.13 215.15
  A 5.09 5.01 -32.5 0 1 61.89 214.67
  Q 52.95 210.49 49.04 202.77
  C 43.93 192.69 42.26 182.74 41.23 170.40
  C 40.00 155.80 42.08 141.97 44.02 126.75
  Q 44.90 119.76 46.22 115.23
  Q 52.62 93.11 55.95 85.20
  Q 60.84 73.57 67.68 61.17
  Q 74.12 49.49 83.38 40.92
  C 88.09 36.55 96.99 31.47 103.28 34.71
  C 115.33 40.92 114.95 53.24 112.65 64.68
  Q 109.59 79.94 104.33 94.29
  Q 102.35 99.68 100.68 102.92
  C 97.49 109.08 95.59 115.47 92.14 121.23
  C 89.53 125.58 88.08 129.69 85.28 133.99
  C 81.55 139.72 79.39 144.56 75.64 151.11
  Q 69.90 161.14 66.06 172.56
  Q 63.49 180.22 65.80 188.06
  Q 66.40 190.12 68.26 190.82
  C 75.22 193.42 79.86 189.60 86.01 185.52
  C 91.14 182.11 93.47 179.39 93.63 172.73
  Q 93.93 159.82 99.52 148.81
  Q 103.54 140.88 106.76 136.73
  C 111.96 130.02 120.69 124.05 129.15 124.04
  Q 139.41 124.03 146.52 130.19
  C 150.40 133.56 152.35 137.36 154.82 142.48
  C 158.30 149.68 154.83 158.44 150.24 164.57
  Q 139.42 179.02 122.61 186.12
  Q 120.00 187.23 120.39 189.82
  C 120.86 193.01 123.02 194.44 126.18 194.74
  C 133.53 195.43 140.10 194.70 146.67 191.33
  C 154.51 187.30 161.52 184.22 165.46 176.48
  C 167.71 172.07 168.92 166.71 170.67 162.66
  C 175.92 150.50 182.78 140.63 193.43 132.84
  C 203.33 125.60 213.22 123.00 224.97 125.77
  C 231.77 127.37 236.84 133.76 238.97 140.04
  Q 239.71 142.24 238.83 146.16
  C 236.34 157.23 234.53 168.78 233.13 176.31
  Q 231.43 185.41 234.44 193.57
  A 2.32 1.84 -65.0 0 1 234.54 193.99
  L 235.09 198.82
  Z
  M 94.56 60.13
  A 1.88 1.88 0.0 0 0 92.55 59.25
  Q 88.16 60.17 85.30 62.07
  C 81.88 64.34 80.97 68.07 79.70 72.38
  C 78.08 77.86 74.79 82.40 73.43 88.06
  Q 71.26 97.09 67.67 106.50
  Q 67.17 107.80 66.62 110.16
  C 65.80 113.65 65.18 116.14 64.80 119.56
  Q 64.05 126.39 63.01 132.71
  A 1.62 1.62 0.0 0 0 64.70 134.59
  Q 66.67 134.47 67.86 132.60
  Q 71.89 126.29 75.91 120.16
  Q 78.72 115.85 79.52 112.76
  C 80.92 107.29 83.71 101.18 85.70 97.09
  Q 87.37 93.67 89.18 86.61
  Q 90.77 80.41 94.27 71.02
  C 95.25 68.40 96.15 62.78 94.56 60.13
  Z
  M 116.70 169.86
  C 121.29 169.76 126.04 168.70 129.93 165.43
  Q 133.62 162.33 134.93 160.72
  C 138.10 156.86 140.56 149.75 137.74 145.26
  C 135.15 141.13 128.34 143.94 124.67 145.58
  A 4.79 4.78 89.4 0 0 122.24 148.07
  Q 119.62 154.33 116.27 160.94
  Q 114.44 164.54 114.94 168.35
  A 1.74 1.73 -4.2 0 0 116.70 169.86
  Z
  M 216.41 144.35
  A 1.20 1.20 0.0 0 0 215.19 143.36
  Q 209.98 143.49 205.86 146.18
  C 203.70 147.60 201.66 150.78 199.81 152.83
  C 191.57 161.98 187.65 176.36 187.88 187.71
  Q 187.99 192.86 193.28 196.24
  C 195.01 197.34 196.86 197.07 198.43 195.68
  Q 201.58 192.90 203.70 190.41
  C 208.46 184.80 211.15 175.80 211.96 168.38
  Q 212.83 160.45 215.60 151.93
  Q 216.98 147.69 216.41 144.35
  Z"
/>
<path fill="#2da2c5" d="
  M 94.56 60.13
  C 96.15 62.78 95.25 68.40 94.27 71.02
  Q 90.77 80.41 89.18 86.61
  Q 87.37 93.67 85.70 97.09
  C 83.71 101.18 80.92 107.29 79.52 112.76
  Q 78.72 115.85 75.91 120.16
  Q 71.89 126.29 67.86 132.60
  Q 66.67 134.47 64.70 134.59
  A 1.62 1.62 0.0 0 1 63.01 132.71
  Q 64.05 126.39 64.80 119.56
  C 65.18 116.14 65.80 113.65 66.62 110.16
  Q 67.17 107.80 67.67 106.50
  Q 71.26 97.09 73.43 88.06
  C 74.79 82.40 78.08 77.86 79.70 72.38
  C 80.97 68.07 81.88 64.34 85.30 62.07
  Q 88.16 60.17 92.55 59.25
  A 1.88 1.88 0.0 0 1 94.56 60.13
  Z"
/>
<path fill="#2da2c5" d="
  M 116.70 169.86
  A 1.74 1.73 -4.2 0 1 114.94 168.35
  Q 114.44 164.54 116.27 160.94
  Q 119.62 154.33 122.24 148.07
  A 4.79 4.78 89.4 0 1 124.67 145.58
  C 128.34 143.94 135.15 141.13 137.74 145.26
  C 140.56 149.75 138.10 156.86 134.93 160.72
  Q 133.62 162.33 129.93 165.43
  C 126.04 168.70 121.29 169.76 116.70 169.86
  Z"
/>
<path fill="#2da2c5" d="
  M 216.41 144.35
  Q 216.98 147.69 215.60 151.93
  Q 212.83 160.45 211.96 168.38
  C 211.15 175.80 208.46 184.80 203.70 190.41
  Q 201.58 192.90 198.43 195.68
  C 196.86 197.07 195.01 197.34 193.28 196.24
  Q 187.99 192.86 187.88 187.71
  C 187.65 176.36 191.57 161.98 199.81 152.83
  C 201.66 150.78 203.70 147.60 205.86 146.18
  Q 209.98 143.49 215.19 143.36
  A 1.20 1.20 0.0 0 1 216.41 144.35
  Z"
/>
</svg>