<?xml version="1.0" encoding="UTF-8" standalone="no"?>
<!DOCTYPE svg PUBLIC "-//W3C//DTD SVG 1.1//EN" "http://www.w3.org/Graphics/SVG/1.1/DTD/svg11.dtd">
<svg xmlns="http://www.w3.org/2000/svg" version="1.1" viewBox="0.00 0.00 128.00 128.00" width="128" height="128">
<path fill="#503df2" d="
  M 52.12 0.00
  L 117.71 0.67
  A 1.62 1.61 7.0 0 1 119.27 2.65
  Q 119.11 3.33 118.18 4.19
  Q 94.28 26.23 85.99 33.77
  A 1.37 1.36 -65.7 0 1 85.08 34.12
  L 41.98 34.13
  A 1.65 1.65 0.0 0 0 40.35 35.51
  L 33.74 76.15
  A 1.89 1.89 0.0 0 1 31.86 77.74
  L 0.00 77.47
  L 0.00 75.31
  Q 3.93 54.44 7.64 33.57
  Q 9.19 24.89 11.32 20.44
  C 16.35 9.91 24.70 1.61 36.76 0.00
  L 52.12 0.00
  Z"
/>
<path fill="#4ade80" d="
  M 81.27 64.32
  Q 81.27 66.71 78.53 68.28
  Q 74.89 70.37 58.33 80.75
  C 55.40 82.58 52.69 83.73 51.19 80.16
  A 1.91 1.68 34.9 0 1 51.04 79.55
  Q 51.00 78.93 51.00 64.31
  Q 51.01 49.70 51.05 49.08
  A 1.91 1.68 -34.9 0 1 51.20 48.47
  C 52.70 44.90 55.41 46.05 58.34 47.88
  Q 74.89 58.27 78.53 60.36
  Q 81.27 61.93 81.27 64.32
  Z"
/>
<path fill="#503df2" d="
  M 128.00 47.72
  L 128.00 49.69
  Q 124.15 70.42 120.56 91.15
  Q 118.60 102.47 116.49 106.83
  C 112.20 115.75 105.11 123.70 95.38 126.71
  Q 92.13 127.71 84.04 127.60
  Q 66.31 127.35 9.09 127.03
  A 1.70 1.69 -85.2 0 1 7.43 125.06
  Q 7.56 124.32 8.34 123.58
  Q 20.23 112.36 41.16 92.77
  A 1.38 1.38 0.0 0 1 42.11 92.39
  L 85.50 92.39
  A 1.65 1.64 4.5 0 0 87.13 91.01
  L 93.99 48.90
  A 1.80 1.79 -85.0 0 1 95.78 47.39
  L 128.00 47.72
  Z"
/>
</svg>