<?xml version="1.0" encoding="UTF-8" standalone="no"?>
<!DOCTYPE svg PUBLIC "-//W3C//DTD SVG 1.1//EN" "http://www.w3.org/Graphics/SVG/1.1/DTD/svg11.dtd">
<svg xmlns="http://www.w3.org/2000/svg" version="1.1" viewBox="0.00 0.00 256.00 256.00" width="128" height="128">
<g stroke-width="2.00" fill="none" stroke-linecap="butt">
<path stroke="#6c31f7" vector-effect="non-scaling-stroke" d="
  M 171.58 70.80
  Q 169.40 69.95 167.37 69.07
  C 162.93 67.15 158.74 66.84 153.92 67.68
  A 1.78 1.61 21.2 0 0 153.35 67.90
  L 149.56 70.28
  A 1.62 1.52 -1.2 0 0 149.10 70.73
  L 144.14 78.17"
/>
<path stroke="#5832ec" vector-effect="non-scaling-stroke" d="
  M 172.29 71.58
  Q 172.04 74.29 172.50 77.01
  Q 173.20 81.12 173.06 82.41
  Q 172.59 87.02 169.49 90.49
  Q 165.88 94.53 158.46 96.12"
/>
<path stroke="#ff4200" vector-effect="non-scaling-stroke" d="
  M 100.17 81.00
  Q 100.24 79.43 100.49 77.81
  C 101.82 69.18 97.11 62.94 88.71 60.99
  Q 87.42 60.69 81.97 60.11
  Q 81.52 60.07 81.56 59.61"
/>
<path stroke="#ff5200" vector-effect="non-scaling-stroke" d="
  M 80.23 59.97
  Q 80.42 60.68 80.13 60.94
  C 73.09 67.40 68.92 76.35 76.18 84.60
  Q 77.02 85.55 80.46 88.50"
/>
<path stroke="#ff9212" vector-effect="non-scaling-stroke" d="
  M 67.69 129.59
  Q 64.93 128.93 62.40 128.33
  Q 58.98 127.52 57.07 127.75
  Q 51.62 128.41 47.81 132.36
  A 1.80 1.29 -17.2 0 0 47.62 132.61
  L 41.96 141.58"
/>
<path stroke="#ffa70c" vector-effect="non-scaling-stroke" d="
  M 68.69 152.97
  Q 56.15 160.01 48.06 151.47
  Q 47.02 150.38 45.19 147.42
  Q 43.87 145.29 42.36 143.30"
/>
<path stroke="#2973fd" vector-effect="non-scaling-stroke" d="
  M 188.84 160.99
  Q 189.77 156.06 189.79 151.25
  Q 189.80 147.99 188.01 144.98
  Q 183.46 137.35 172.78 137.33"
/>
<path stroke="#265df4" vector-effect="non-scaling-stroke" d="
  M 188.59 161.95
  L 180.45 165.00
  A 0.94 0.56 14.2 0 1 180.25 165.06
  Q 173.94 166.22 170.82 165.04
  Q 166.44 163.38 165.52 161.98
  Q 163.48 158.86 161.00 155.66"
/>
<path stroke="#07952c" vector-effect="non-scaling-stroke" d="
  M 126.32 182.05
  Q 127.57 187.28 127.19 191.48
  Q 126.82 195.50 123.51 199.03
  C 119.25 203.57 114.62 203.53 109.40 205.15"
/>
<path stroke="#108f25" vector-effect="non-scaling-stroke" d="
  M 108.53 204.73
  C 106.32 202.18 103.34 200.03 101.80 197.47
  Q 95.22 186.55 105.97 176.67"
/>
</g>
<path fill="#8b5dfc" d="
  M 171.58 70.80
  Q 169.40 69.95 167.37 69.07
  C 162.93 67.15 158.74 66.84 153.92 67.68
  A 1.78 1.61 21.2 0 0 153.35 67.90
  L 149.56 70.28
  A 1.62 1.52 -1.2 0 0 149.10 70.73
  L 144.14 78.17
  Q 140.15 51.31 136.15 24.78
  Q 135.47 20.26 135.56 18.76
  C 136.08 10.38 141.77 4.52 150.03 4.74
  C 156.78 4.91 162.47 9.82 163.47 16.49
  Q 167.56 43.50 171.58 70.80
  Z"
/>
<path fill="#ff6400" d="
  M 100.17 81.00
  Q 100.24 79.43 100.49 77.81
  C 101.82 69.18 97.11 62.94 88.71 60.99
  Q 87.42 60.69 81.97 60.11
  Q 81.52 60.07 81.56 59.61
  Q 82.26 59.08 82.85 58.37
  Q 87.18 53.19 94.56 45.52
  C 100.55 39.30 104.71 31.69 114.60 33.99
  Q 120.59 35.39 123.87 41.01
  C 127.97 48.06 124.82 54.55 119.56 59.98
  Q 117.75 61.85 115.36 64.60
  Q 108.07 73.00 100.17 81.00
  Z"
/>
<path fill="#ff8400" d="
  M 80.23 59.97
  Q 80.42 60.68 80.13 60.94
  C 73.09 67.40 68.92 76.35 76.18 84.60
  Q 77.02 85.55 80.46 88.50
  Q 52.66 83.87 24.98 79.15
  Q 14.47 77.36 12.18 75.64
  Q 7.08 71.83 6.36 64.25
  A 5.45 5.23 48.8 0 1 6.43 62.69
  Q 8.32 52.91 17.19 50.56
  Q 20.47 49.70 26.83 50.78
  Q 50.32 54.75 73.62 58.61
  C 75.45 58.91 77.98 59.67 80.23 59.97
  Z"
/>
<path fill="#ff2000" d="
  M 81.56 59.61
  Q 81.52 60.07 81.97 60.11
  Q 87.42 60.69 88.71 60.99
  C 97.11 62.94 101.82 69.18 100.49 77.81
  Q 100.24 79.43 100.17 81.00
  Q 93.10 91.96 80.46 88.50
  Q 77.02 85.55 76.18 84.60
  C 68.92 76.35 73.09 67.40 80.13 60.94
  Q 80.42 60.68 80.23 59.97
  Q 80.80 59.95 81.56 59.61
  Z"
/>
<path fill="#4d04f1" d="
  M 171.58 70.80
  Q 171.64 71.25 172.29 71.58
  Q 172.04 74.29 172.50 77.01
  Q 173.20 81.12 173.06 82.41
  Q 172.59 87.02 169.49 90.49
  Q 165.88 94.53 158.46 96.12
  Q 155.22 95.42 151.18 93.05
  Q 145.90 89.94 144.99 83.90
  Q 144.52 80.84 144.14 78.17
  L 149.10 70.73
  A 1.62 1.52 -1.2 0 1 149.56 70.28
  L 153.35 67.90
  A 1.78 1.61 21.2 0 1 153.92 67.68
  C 158.74 66.84 162.93 67.15 167.37 69.07
  Q 169.40 69.95 171.58 70.80
  Z"
/>
<path fill="#6360e6" d="
  M 158.46 96.12
  Q 165.88 94.53 169.49 90.49
  Q 172.59 87.02 173.06 82.41
  Q 173.20 81.12 172.50 77.01
  Q 172.04 74.29 172.29 71.58
  Q 172.59 71.61 172.77 71.61
  A 1.44 1.40 57.2 0 1 173.29 71.73
  Q 181.68 75.42 192.34 79.42
  C 198.30 81.66 203.13 84.87 204.61 91.46
  Q 205.35 94.72 204.32 97.97
  Q 201.46 106.99 191.53 108.10
  A 6.59 6.46 -45.6 0 1 190.51 108.12
  Q 187.66 107.91 180.40 105.07
  Q 170.02 101.00 158.46 96.12
  Z"
/>
<path fill="#ff9f23" d="
  M 67.69 129.59
  Q 64.93 128.93 62.40 128.33
  Q 58.98 127.52 57.07 127.75
  Q 51.62 128.41 47.81 132.36
  A 1.80 1.29 -17.2 0 0 47.62 132.61
  L 41.96 141.58
  Q 40.40 138.88 39.26 136.91
  Q 34.49 128.69 27.75 116.02
  Q 25.13 111.10 26.92 105.50
  C 29.93 96.06 41.25 92.69 49.00 98.69
  Q 50.96 100.20 54.60 106.50
  Q 61.13 117.76 67.69 129.59
  Z"
/>
<path fill="#359dff" d="
  M 188.84 160.99
  Q 189.77 156.06 189.79 151.25
  Q 189.80 147.99 188.01 144.98
  Q 183.46 137.35 172.78 137.33
  Q 199.36 123.65 225.34 111.15
  Q 232.46 107.73 234.83 107.64
  C 243.65 107.33 251.41 115.76 249.29 124.75
  Q 247.68 131.65 240.97 134.98
  Q 215.05 147.88 188.84 160.99
  Z"
/>
<path fill="#ff8400" d="
  M 67.69 129.59
  Q 69.21 132.00 70.94 135.08
  Q 73.93 140.38 71.98 146.19
  Q 71.47 147.70 68.69 152.97
  Q 56.15 160.01 48.06 151.47
  Q 47.02 150.38 45.19 147.42
  Q 43.87 145.29 42.36 143.30
  Q 42.41 142.49 41.96 141.58
  L 47.62 132.61
  A 1.80 1.29 -17.2 0 1 47.81 132.36
  Q 51.62 128.41 57.07 127.75
  Q 58.98 127.52 62.40 128.33
  Q 64.93 128.93 67.69 129.59
  Z"
/>
<path fill="#1c48fa" d="
  M 172.78 137.33
  Q 183.46 137.35 188.01 144.98
  Q 189.80 147.99 189.79 151.25
  Q 189.77 156.06 188.84 160.99
  Q 188.76 161.69 188.59 161.95
  L 180.45 165.00
  A 0.94 0.56 14.2 0 1 180.25 165.06
  Q 173.94 166.22 170.82 165.04
  Q 166.44 163.38 165.52 161.98
  Q 163.48 158.86 161.00 155.66
  Q 161.09 153.85 161.20 151.90
  C 161.46 147.32 163.37 143.32 167.02 140.53
  Q 169.90 138.33 172.78 137.33
  Z"
/>
<path fill="#ffca17" d="
  M 42.36 143.30
  Q 43.87 145.29 45.19 147.42
  Q 47.02 150.38 48.06 151.47
  Q 56.15 160.01 68.69 152.97
  Q 67.27 156.50 66.01 158.77
  Q 60.48 168.76 56.09 177.50
  C 50.48 188.66 45.71 197.22 39.76 208.76
  Q 37.56 213.02 31.24 214.94
  C 25.31 216.75 19.60 214.20 16.07 209.34
  Q 11.04 202.43 16.06 193.28
  C 21.51 183.34 25.28 175.22 31.85 163.03
  Q 36.32 154.75 41.22 144.55
  A 2.53 2.48 -7.6 0 1 41.90 143.68
  L 42.36 143.30
  Z"
/>
<path fill="#2f72ed" d="
  M 188.59 161.95
  Q 186.39 183.64 185.46 189.74
  Q 183.72 201.25 172.18 202.62
  C 163.32 203.67 156.81 195.56 157.59 187.00
  Q 159.00 171.46 161.00 155.66
  Q 163.48 158.86 165.52 161.98
  Q 166.44 163.38 170.82 165.04
  Q 173.94 166.22 180.25 165.06
  A 0.94 0.56 14.2 0 0 180.45 165.00
  L 188.59 161.95
  Z"
/>
<path fill="#007c00" d="
  M 126.32 182.05
  Q 127.57 187.28 127.19 191.48
  Q 126.82 195.50 123.51 199.03
  C 119.25 203.57 114.62 203.53 109.40 205.15
  Q 108.59 204.99 108.53 204.73
  C 106.32 202.18 103.34 200.03 101.80 197.47
  Q 95.22 186.55 105.97 176.67
  Q 110.58 174.91 115.68 175.28
  Q 118.16 175.46 120.71 177.25
  Q 124.04 179.58 126.32 182.05
  Z"
/>
<path fill="#20a149" d="
  M 105.97 176.67
  Q 95.22 186.55 101.80 197.47
  C 103.34 200.03 106.32 202.18 108.53 204.73
  Q 89.38 209.14 79.97 210.66
  Q 71.51 212.02 66.24 205.57
  C 62.87 201.46 62.08 196.49 64.13 191.42
  Q 66.78 184.84 75.57 182.87
  Q 90.29 179.57 105.97 176.67
  Z"
/>
<path fill="#0ead58" d="
  M 109.40 205.15
  C 114.62 203.53 119.25 203.57 123.51 199.03
  Q 126.82 195.50 127.19 191.48
  Q 127.57 187.28 126.32 182.05
  Q 134.08 189.99 141.47 197.53
  Q 143.69 199.79 145.91 202.10
  Q 163.83 220.66 168.09 224.86
  Q 173.05 229.74 173.88 232.58
  C 175.66 238.68 174.00 243.85 169.29 248.07
  Q 167.26 249.88 164.65 250.66
  Q 156.47 253.10 149.76 246.25
  Q 127.32 223.37 110.01 205.99
  Q 109.64 205.62 109.40 205.15
  Z"
/>
</svg>