<?xml version="1.0" encoding="UTF-8" standalone="no"?>
<!DOCTYPE svg PUBLIC "-//W3C//DTD SVG 1.1//EN" "http://www.w3.org/Graphics/SVG/1.1/DTD/svg11.dtd">
<svg xmlns="http://www.w3.org/2000/svg" version="1.1" viewBox="0.00 0.00 180.00 180.00" width="128" height="128">
<path stroke="#acb2fd" stroke-width="2.00" fill="none" stroke-linecap="butt" vector-effect="non-scaling-stroke" d="
  M 69.99 71.15
  Q 67.96 73.18 65.25 74.52
  Q 54.01 80.06 42.66 85.42
  Q 38.63 87.33 38.63 91.12
  Q 38.63 94.91 42.67 96.81
  Q 54.03 102.16 65.27 107.69
  Q 67.99 109.02 70.02 111.05
  Q 72.05 113.08 73.39 115.79
  Q 78.93 127.03 84.29 138.38
  Q 86.20 142.41 89.99 142.41
  Q 93.78 142.40 95.68 138.37
  Q 101.03 127.01 106.55 115.77
  Q 107.89 113.05 109.92 111.02
  Q 111.94 108.99 114.66 107.65
  Q 125.90 102.11 137.24 96.75
  Q 141.28 94.84 141.27 91.05
  Q 141.27 87.26 137.24 85.36
  Q 125.88 80.01 114.64 74.48
  Q 111.92 73.15 109.89 71.12
  Q 107.86 69.09 106.52 66.38
  Q 100.98 55.14 95.62 43.79
  Q 93.71 39.76 89.92 39.76
  Q 86.13 39.77 84.23 43.80
  Q 78.88 55.16 73.35 66.40
  Q 72.02 69.12 69.99 71.15"
/>
<path fill="#5864fb" d="
  M 178.21 144.01
  A 35.29 35.29 0.0 0 1 142.92 179.30
  L 37.02 179.30
  A 35.29 35.29 0.0 0 1 1.73 144.01
  L 1.73 38.11
  A 35.29 35.29 0.0 0 1 37.02 2.82
  L 142.92 2.82
  A 35.29 35.29 0.0 0 1 178.21 38.11
  L 178.21 144.01
  Z
  M 69.99 71.15
  Q 67.96 73.18 65.25 74.52
  Q 54.01 80.06 42.66 85.42
  Q 38.63 87.33 38.63 91.12
  Q 38.63 94.91 42.67 96.81
  Q 54.03 102.16 65.27 107.69
  Q 67.99 109.02 70.02 111.05
  Q 72.05 113.08 73.39 115.79
  Q 78.93 127.03 84.29 138.38
  Q 86.20 142.41 89.99 142.41
  Q 93.78 142.40 95.68 138.37
  Q 101.03 127.01 106.55 115.77
  Q 107.89 113.05 109.92 111.02
  Q 111.94 108.99 114.66 107.65
  Q 125.90 102.11 137.24 96.75
  Q 141.28 94.84 141.27 91.05
  Q 141.27 87.26 137.24 85.36
  Q 125.88 80.01 114.64 74.48
  Q 111.92 73.15 109.89 71.12
  Q 107.86 69.09 106.52 66.38
  Q 100.98 55.14 95.62 43.79
  Q 93.71 39.76 89.92 39.76
  Q 86.13 39.77 84.23 43.80
  Q 78.88 55.16 73.35 66.40
  Q 72.02 69.12 69.99 71.15
  Z"
/>
<path fill="#ffffff" d="
  M 89.92 39.76
  Q 93.71 39.76 95.62 43.79
  Q 100.98 55.14 106.52 66.38
  Q 107.86 69.09 109.89 71.12
  Q 111.92 73.15 114.64 74.48
  Q 125.88 80.01 137.24 85.36
  Q 141.27 87.26 141.27 91.05
  Q 141.28 94.84 137.24 96.75
  Q 125.90 102.11 114.66 107.65
  Q 111.94 108.99 109.92 111.02
  Q 107.89 113.05 106.55 115.77
  Q 101.03 127.01 95.68 138.37
  Q 93.78 142.40 89.99 142.41
  Q 86.20 142.41 84.29 138.38
  Q 78.93 127.03 73.39 115.79
  Q 72.05 113.08 70.02 111.05
  Q 67.99 109.02 65.27 107.69
  Q 54.03 102.16 42.67 96.81
  Q 38.63 94.91 38.63 91.12
  Q 38.63 87.33 42.66 85.42
  Q 54.01 80.06 65.25 74.52
  Q 67.96 73.18 69.99 71.15
  Q 72.02 69.12 73.35 66.40
  Q 78.88 55.16 84.23 43.80
  Q 86.13 39.77 89.92 39.76
  Z"
/>
</svg>