<?xml version="1.0" encoding="UTF-8" standalone="no"?>
<!DOCTYPE svg PUBLIC "-//W3C//DTD SVG 1.1//EN" "http://www.w3.org/Graphics/SVG/1.1/DTD/svg11.dtd">
<svg xmlns="http://www.w3.org/2000/svg" version="1.1" viewBox="0.00 0.00 180.00 180.00" width="128" height="128">
<g stroke-width="2.00" fill="none" stroke-linecap="butt">
<path stroke="#ffa2aa" vector-effect="non-scaling-stroke" d="
  M 70.44 89.93
  Q 70.44 90.03 70.42 90.14
  Q 70.41 90.19 70.31 90.30
  Q 56.05 107.85 30.33 139.61
  A 0.31 0.31 0.0 0 0 30.57 140.11
  L 68.08 140.11
  A 1.33 1.33 0.0 0 0 69.11 139.62
  Q 103.62 97.04 109.19 90.18
  Q 109.26 90.10 109.26 89.92
  Q 109.26 89.75 109.19 89.66
  Q 103.62 82.81 69.10 40.23
  A 1.33 1.33 0.0 0 0 68.07 39.74
  L 30.56 39.75
  A 0.31 0.31 0.0 0 0 30.32 40.25
  Q 56.05 72.00 70.31 89.55
  Q 70.41 89.66 70.42 89.72
  Q 70.44 89.82 70.44 89.93"
/>
<path stroke="#ffa2aa" vector-effect="non-scaling-stroke" d="
  M 114.58 82.99
  A 0.30 0.30 0.0 0 0 115.04 82.99
  L 149.72 40.21
  A 0.30 0.30 0.0 0 0 149.49 39.72
  L 111.61 39.72
  A 0.30 0.30 0.0 0 0 111.38 39.83
  L 95.63 59.26
  A 0.30 0.30 0.0 0 0 95.63 59.64
  L 114.58 82.99"
/>
<path stroke="#ffa2aa" vector-effect="non-scaling-stroke" d="
  M 95.66 120.20
  A 0.34 0.34 0.0 0 0 95.66 120.62
  L 111.35 139.96
  A 0.34 0.34 0.0 0 0 111.61 140.09
  L 149.35 140.09
  A 0.34 0.34 0.0 0 0 149.61 139.54
  L 115.05 96.93
  A 0.34 0.34 0.0 0 0 114.53 96.93
  L 95.66 120.20"
/>
</g>
<path fill="#ffffff" d="
  M 180.00 0.00
  L 180.00 180.00
  L 0.00 180.00
  L 0.00 0.00
  L 180.00 0.00
  Z
  M 70.44 89.93
  Q 70.44 90.03 70.42 90.14
  Q 70.41 90.19 70.31 90.30
  Q 56.05 107.85 30.33 139.61
  A 0.31 0.31 0.0 0 0 30.57 140.11
  L 68.08 140.11
  A 1.33 1.33 0.0 0 0 69.11 139.62
  Q 103.62 97.04 109.19 90.18
  Q 109.26 90.10 109.26 89.92
  Q 109.26 89.75 109.19 89.66
  Q 103.62 82.81 69.10 40.23
  A 1.33 1.33 0.0 0 0 68.07 39.74
  L 30.56 39.75
  A 0.31 0.31 0.0 0 0 30.32 40.25
  Q 56.05 72.00 70.31 89.55
  Q 70.41 89.66 70.42 89.72
  Q 70.44 89.82 70.44 89.93
  Z
  M 114.58 82.99
  A 0.30 0.30 0.0 0 0 115.04 82.99
  L 149.72 40.21
  A 0.30 0.30 0.0 0 0 149.49 39.72
  L 111.61 39.72
  A 0.30 0.30 0.0 0 0 111.38 39.83
  L 95.63 59.26
  A 0.30 0.30 0.0 0 0 95.63 59.64
  L 114.58 82.99
  Z
  M 95.66 120.20
  A 0.34 0.34 0.0 0 0 95.66 120.62
  L 111.35 139.96
  A 0.34 0.34 0.0 0 0 111.61 140.09
  L 149.35 140.09
  A 0.34 0.34 0.0 0 0 149.61 139.54
  L 115.05 96.93
  A 0.34 0.34 0.0 0 0 114.53 96.93
  L 95.66 120.20
  Z"
/>
<path fill="#ff4554" d="
  M 109.26 89.92
  Q 109.26 90.10 109.19 90.18
  Q 103.62 97.04 69.11 139.62
  A 1.33 1.33 0.0 0 1 68.08 140.11
  L 30.57 140.11
  A 0.31 0.31 0.0 0 1 30.33 139.61
  Q 56.05 107.85 70.31 90.30
  Q 70.41 90.19 70.42 90.14
  Q 70.44 90.03 70.44 89.93
  Q 70.44 89.82 70.42 89.72
  Q 70.41 89.66 70.31 89.55
  Q 56.05 72.00 30.32 40.25
  A 0.31 0.31 0.0 0 1 30.56 39.75
  L 68.07 39.74
  A 1.33 1.33 0.0 0 1 69.10 40.23
  Q 103.62 82.81 109.19 89.66
  Q 109.26 89.75 109.26 89.92
  Z"
/>
<path fill="#ff4554" d="
  M 114.58 82.99
  L 95.63 59.64
  A 0.30 0.30 0.0 0 1 95.63 59.26
  L 111.38 39.83
  A 0.30 0.30 0.0 0 1 111.61 39.72
  L 149.49 39.72
  A 0.30 0.30 0.0 0 1 149.72 40.21
  L 115.04 82.99
  A 0.30 0.30 0.0 0 1 114.58 82.99
  Z"
/>
<path fill="#ff4554" d="
  M 95.66 120.20
  L 114.53 96.93
  A 0.34 0.34 0.0 0 1 115.05 96.93
  L 149.61 139.54
  A 0.34 0.34 0.0 0 1 149.35 140.09
  L 111.61 140.09
  A 0.34 0.34 0.0 0 1 111.35 139.96
  L 95.66 120.62
  A 0.34 0.34 0.0 0 1 95.66 120.20
  Z"
/>
</svg>