<?xml version="1.0" encoding="UTF-8" standalone="no"?>
<!DOCTYPE svg PUBLIC "-//W3C//DTD SVG 1.1//EN" "http://www.w3.org/Graphics/SVG/1.1/DTD/svg11.dtd">
<svg xmlns="http://www.w3.org/2000/svg" version="1.1" viewBox="0.00 0.00 256.00 256.00" width="128" height="128">
<g stroke-width="2.00" fill="none" stroke-linecap="butt">
<path stroke="#0035ff" stroke-opacity="0.835" vector-effect="non-scaling-stroke" d="
  M 224.12 6.97
  L 220.44 8.40
  A 0.06 0.06 0.0 0 0 220.47 8.52
  L 225.90 7.40
  A 0.05 0.05 0.0 0 1 225.96 7.44
  L 226.02 7.75
  A 0.22 0.21 74.9 0 1 225.88 8.00
  C 223.50 8.78 219.86 9.87 217.37 9.87
  C 219.51 9.43 221.64 8.99 223.77 8.59
  A 0.21 0.21 0.0 0 0 223.94 8.35
  A 0.25 0.25 0.0 0 0 223.66 8.14
  Q 212.45 9.76 206.40 10.09
  Q 205.46 10.14 92.25 10.13
  Q 83.41 10.13 76.66 9.84
  Q 74.97 9.77 67.03 8.61
  Q 57.38 7.19 47.67 9.47"
/>
<path stroke="#3262ff" vector-effect="non-scaling-stroke" d="
  M 249.05 183.30
  Q 249.17 183.87 249.12 184.50
  Q 249.09 184.97 249.16 184.54
  Q 250.24 177.81 250.19 171.00
  Q 250.07 156.85 250.15 65.15
  Q 250.15 58.11 248.80 47.79"
/>
<path stroke="#809eff" vector-effect="non-scaling-stroke" d="
  M 248.80 47.79
  Q 248.69 39.49 247.46 31.26
  Q 246.64 25.77 244.34 22.61
  C 241.47 18.68 235.70 17.19 231.00 16.71
  C 221.78 15.76 210.75 16.28 201.31 16.28
  Q 138.57 16.21 97.09 16.32
  C 87.72 16.34 77.50 15.51 67.75 16.32
  Q 61.59 16.83 58.93 17.60
  C 44.56 21.74 46.43 36.28 46.51 48.10
  Q 46.67 73.16 46.51 189.51
  Q 46.50 197.17 47.27 203.27
  C 49.03 217.21 67.44 216.52 77.50 216.54
  Q 85.48 216.56 222.75 216.53
  C 235.47 216.53 245.75 215.04 247.98 200.23
  Q 249.14 192.49 249.05 183.30"
/>
<path stroke="#b2c3ff" vector-effect="non-scaling-stroke" d="
  M 248.80 47.79
  Q 248.72 51.48 248.60 55.16
  C 248.51 58.13 247.78 61.89 247.79 65.50
  Q 247.84 89.39 247.83 175.00
  Q 247.83 179.27 249.05 183.30"
/>
<path stroke="#809eff" vector-effect="non-scaling-stroke" d="
  M 119.85 63.58
  Q 118.60 65.24 118.52 67.76
  C 118.22 76.42 118.71 83.78 118.69 92.75
  C 118.59 130.04 117.86 148.58 118.92 164.02
  A 2.52 2.51 -83.1 0 0 120.66 166.24
  Q 122.13 166.71 124.00 166.66
  Q 128.70 166.51 147.50 166.54
  Q 176.64 166.60 181.50 166.50
  Q 185.81 166.41 186.34 162.32
  Q 187.06 156.87 187.03 152.75
  C 187.00 148.57 187.32 145.78 182.79 145.18
  Q 178.85 144.66 177.50 144.65
  Q 169.69 144.60 147.31 144.62
  A 2.62 2.61 82.5 0 1 144.79 142.68
  Q 144.31 140.88 144.36 138.25
  C 144.71 118.55 144.31 102.58 144.79 82.56
  C 144.93 76.72 144.20 72.05 143.67 65.39
  Q 143.44 62.45 140.72 62.37
  Q 131.39 62.12 121.68 62.61
  A 2.46 2.46 0.0 0 0 119.85 63.58"
/>
</g>
<path fill="#00258e" fill-opacity="0.192" d="
  M 214.59 0.00
  Q 221.43 1.70 226.82 5.58
  Q 224.67 6.26 222.62 5.73
  A 0.07 0.07 0.0 0 1 222.64 5.59
  Q 222.81 5.60 222.98 5.66
  Q 223.71 5.91 224.40 5.76
  A 0.16 0.16 0.0 0 0 224.39 5.45
  Q 222.05 5.13 219.71 5.81
  L 71.85 5.82
  A 1.12 1.12 0.0 0 1 71.36 3.69
  Q 72.03 3.37 73.29 3.32
  A 0.23 0.23 0.0 0 0 73.51 3.09
  L 73.51 3.08
  A 0.24 0.24 0.0 0 0 73.27 2.84
  L 64.37 3.10
  A 0.32 0.31 -53.5 0 1 64.28 2.48
  L 73.01 0.00
  L 214.59 0.00
  Z"
/>
<path fill="#0029ff" fill-opacity="0.667" d="
  M 219.71 5.81
  Q 222.05 5.13 224.39 5.45
  A 0.16 0.16 0.0 0 1 224.40 5.76
  Q 223.71 5.91 222.98 5.66
  Q 222.81 5.60 222.64 5.59
  A 0.07 0.07 0.0 0 0 222.62 5.73
  Q 224.67 6.26 226.82 5.58
  Q 228.04 5.58 228.91 5.94
  A 0.19 0.19 0.0 0 1 228.87 6.30
  L 224.12 6.97
  L 220.44 8.40
  A 0.06 0.06 0.0 0 0 220.47 8.52
  L 225.90 7.40
  A 0.05 0.05 0.0 0 1 225.96 7.44
  L 226.02 7.75
  A 0.22 0.21 74.9 0 1 225.88 8.00
  C 223.50 8.78 219.86 9.87 217.37 9.87
  C 219.51 9.43 221.64 8.99 223.77 8.59
  A 0.21 0.21 0.0 0 0 223.94 8.35
  A 0.25 0.25 0.0 0 0 223.66 8.14
  Q 212.45 9.76 206.40 10.09
  Q 205.46 10.14 92.25 10.13
  Q 83.41 10.13 76.66 9.84
  Q 74.97 9.77 67.03 8.61
  Q 57.38 7.19 47.67 9.47
  Q 50.64 7.30 55.28 6.95
  C 58.25 6.73 61.49 5.30 64.61 5.37
  C 67.96 5.45 72.21 6.16 76.37 6.16
  Q 115.66 6.17 212.92 5.96
  Q 216.32 5.95 219.71 5.81
  Z"
/>
<path fill="#003dff" d="
  M 256.00 21.64
  L 256.00 216.72
  C 255.48 220.69 252.45 224.19 249.63 226.64
  Q 234.04 240.20 216.50 251.71
  C 214.88 252.77 212.92 253.31 211.32 254.55
  A 3.39 3.38 19.3 0 1 210.05 255.16
  L 206.56 256.00
  L 0.00 256.00
  L 0.00 72.52
  C 1.64 65.14 4.72 58.60 9.83 52.89
  C 12.42 50.00 14.08 46.98 17.03 43.64
  Q 25.35 34.23 32.16 25.15
  Q 36.80 18.96 43.10 12.85
  Q 45.21 10.81 47.67 9.47
  Q 57.38 7.19 67.03 8.61
  Q 74.97 9.77 76.66 9.84
  Q 83.41 10.13 92.25 10.13
  Q 205.46 10.14 206.40 10.09
  Q 212.45 9.76 223.66 8.14
  A 0.25 0.25 0.0 0 1 223.94 8.35
  A 0.21 0.21 0.0 0 1 223.77 8.59
  C 221.64 8.99 219.51 9.43 217.37 9.87
  C 219.86 9.87 223.50 8.78 225.88 8.00
  A 0.22 0.21 74.9 0 0 226.02 7.75
  L 225.96 7.44
  A 0.05 0.05 0.0 0 0 225.90 7.40
  L 220.47 8.52
  A 0.06 0.06 0.0 0 1 220.44 8.40
  L 224.12 6.97
  Q 230.55 7.26 237.00 7.09
  C 238.56 7.04 241.54 7.81 243.24 8.61
  Q 249.74 11.69 250.92 12.34
  C 253.95 14.01 255.25 18.44 256.00 21.64
  Z
  M 249.05 183.30
  Q 249.17 183.87 249.12 184.50
  Q 249.09 184.97 249.16 184.54
  Q 250.24 177.81 250.19 171.00
  Q 250.07 156.85 250.15 65.15
  Q 250.15 58.11 248.80 47.79
  Q 248.69 39.49 247.46 31.26
  Q 246.64 25.77 244.34 22.61
  C 241.47 18.68 235.70 17.19 231.00 16.71
  C 221.78 15.76 210.75 16.28 201.31 16.28
  Q 138.57 16.21 97.09 16.32
  C 87.72 16.34 77.50 15.51 67.75 16.32
  Q 61.59 16.83 58.93 17.60
  C 44.56 21.74 46.43 36.28 46.51 48.10
  Q 46.67 73.16 46.51 189.51
  Q 46.50 197.17 47.27 203.27
  C 49.03 217.21 67.44 216.52 77.50 216.54
  Q 85.48 216.56 222.75 216.53
  C 235.47 216.53 245.75 215.04 247.98 200.23
  Q 249.14 192.49 249.05 183.30
  Z"
/>
<path fill="#ffffff" d="
  M 248.80 47.79
  Q 248.72 51.48 248.60 55.16
  C 248.51 58.13 247.78 61.89 247.79 65.50
  Q 247.84 89.39 247.83 175.00
  Q 247.83 179.27 249.05 183.30
  Q 249.14 192.49 247.98 200.23
  C 245.75 215.04 235.47 216.53 222.75 216.53
  Q 85.48 216.56 77.50 216.54
  C 67.44 216.52 49.03 217.21 47.27 203.27
  Q 46.50 197.17 46.51 189.51
  Q 46.67 73.16 46.51 48.10
  C 46.43 36.28 44.56 21.74 58.93 17.60
  Q 61.59 16.83 67.75 16.32
  C 77.50 15.51 87.72 16.34 97.09 16.32
  Q 138.57 16.21 201.31 16.28
  C 210.75 16.28 221.78 15.76 231.00 16.71
  C 235.70 17.19 241.47 18.68 244.34 22.61
  Q 246.64 25.77 247.46 31.26
  Q 248.69 39.49 248.80 47.79
  Z
  M 119.85 63.58
  Q 118.60 65.24 118.52 67.76
  C 118.22 76.42 118.71 83.78 118.69 92.75
  C 118.59 130.04 117.86 148.58 118.92 164.02
  A 2.52 2.51 -83.1 0 0 120.66 166.24
  Q 122.13 166.71 124.00 166.66
  Q 128.70 166.51 147.50 166.54
  Q 176.64 166.60 181.50 166.50
  Q 185.81 166.41 186.34 162.32
  Q 187.06 156.87 187.03 152.75
  C 187.00 148.57 187.32 145.78 182.79 145.18
  Q 178.85 144.66 177.50 144.65
  Q 169.69 144.60 147.31 144.62
  A 2.62 2.61 82.5 0 1 144.79 142.68
  Q 144.31 140.88 144.36 138.25
  C 144.71 118.55 144.31 102.58 144.79 82.56
  C 144.93 76.72 144.20 72.05 143.67 65.39
  Q 143.44 62.45 140.72 62.37
  Q 131.39 62.12 121.68 62.61
  A 2.46 2.46 0.0 0 0 119.85 63.58
  Z"
/>
<path fill="#6486fe" d="
  M 249.05 183.30
  Q 247.83 179.27 247.83 175.00
  Q 247.84 89.39 247.79 65.50
  C 247.78 61.89 248.51 58.13 248.60 55.16
  Q 248.72 51.48 248.80 47.79
  Q 250.15 58.11 250.15 65.15
  Q 250.07 156.85 250.19 171.00
  Q 250.24 177.81 249.16 184.54
  Q 249.09 184.97 249.12 184.50
  Q 249.17 183.87 249.05 183.30
  Z"
/>
<path fill="#003dff" d="
  M 119.85 63.58
  A 2.46 2.46 0.0 0 1 121.68 62.61
  Q 131.39 62.12 140.72 62.37
  Q 143.44 62.45 143.67 65.39
  C 144.20 72.05 144.93 76.72 144.79 82.56
  C 144.31 102.58 144.71 118.55 144.36 138.25
  Q 144.31 140.88 144.79 142.68
  A 2.62 2.61 82.5 0 0 147.31 144.62
  Q 169.69 144.60 177.50 144.65
  Q 178.85 144.66 182.79 145.18
  C 187.32 145.78 187.00 148.57 187.03 152.75
  Q 187.06 156.87 186.34 162.32
  Q 185.81 166.41 181.50 166.50
  Q 176.64 166.60 147.50 166.54
  Q 128.70 166.51 124.00 166.66
  Q 122.13 166.71 120.66 166.24
  A 2.52 2.51 -83.1 0 1 118.92 164.02
  C 117.86 148.58 118.59 130.04 118.69 92.75
  C 118.71 83.78 118.22 76.42 118.52 67.76
  Q 118.60 65.24 119.85 63.58
  Z"
/>
</svg>