<?xml version="1.0" encoding="UTF-8" standalone="no"?>
<!DOCTYPE svg PUBLIC "-//W3C//DTD SVG 1.1//EN" "http://www.w3.org/Graphics/SVG/1.1/DTD/svg11.dtd">
<svg xmlns="http://www.w3.org/2000/svg" version="1.1" viewBox="0.00 0.00 192.00 192.00" width="128" height="128">
<g stroke-width="2.00" fill="none" stroke-linecap="butt">
<path stroke="#ff7300" vector-effect="non-scaling-stroke" d="
  M 92.88 92.54
  L 92.51 92.77
  A 0.21 0.16 -53.3 0 1 92.41 92.80
  L 0.48 93.08"
/>
<path stroke="#807180" vector-effect="non-scaling-stroke" d="
  M 92.94 92.96
  L 92.94 185.84"
/>
</g>
<path fill="#ffa200" d="
  M 92.89 0.00
  L 92.88 92.54
  L 92.51 92.77
  A 0.21 0.16 -53.3 0 1 92.41 92.80
  L 0.48 93.08
  Q 0.21 93.03 0.00 92.79
  L 0.00 0.00
  L 92.89 0.00
  Z"
/>
<path fill="#ff4400" d="
  M 92.88 92.54
  Q 93.00 92.79 92.94 92.96
  L 92.94 185.84
  L 0.63 93.51
  A 0.49 0.46 -76.5 0 1 0.54 93.35
  Q 0.51 93.21 0.48 93.08
  L 92.41 92.80
  A 0.21 0.16 -53.3 0 0 92.51 92.77
  L 92.88 92.54
  Z"
/>
<path fill="#009eff" d="
  M 92.94 185.84
  L 92.94 92.96
  L 185.34 93.01
  A 0.55 0.54 -90.0 0 1 185.88 93.56
  L 185.88 185.24
  A 0.57 0.57 0.0 0 1 185.31 185.81
  L 92.94 185.84
  Z"
/>
</svg>