<?xml version="1.0" encoding="UTF-8" standalone="no"?>
<!DOCTYPE svg PUBLIC "-//W3C//DTD SVG 1.1//EN" "http://www.w3.org/Graphics/SVG/1.1/DTD/svg11.dtd">
<svg xmlns="http://www.w3.org/2000/svg" version="1.1" viewBox="0.00 0.00 256.00 256.00" width="128" height="128">
<path fill="#ef305e" d="
  M 221.49 256.00
  L 203.57 256.00
  Q 199.37 255.09 196.10 251.90
  C 181.13 237.29 166.19 221.71 150.75 206.75
  A 2.17 2.14 72.0 0 0 149.67 206.19
  Q 147.17 205.72 144.75 207.02
  Q 122.74 218.88 97.05 217.65
  Q 94.64 217.54 84.93 215.98
  Q 78.10 214.88 73.12 212.99
  C 56.11 206.53 41.68 196.78 31.04 182.21
  Q 12.82 157.26 13.39 126.28
  C 13.60 114.94 16.46 102.60 21.61 91.59
  Q 37.29 58.02 73.62 44.64
  Q 79.33 42.54 84.27 42.01
  Q 103.30 39.97 121.77 42.24
  Q 127.06 42.89 133.24 45.44
  C 142.62 49.30 148.70 52.00 155.27 58.07
  Q 158.88 61.40 162.01 57.77
  C 180.34 36.57 198.64 17.82 221.09 4.34
  C 225.34 1.79 227.89 4.73 228.66 8.83
  A 1.68 1.66 -32.7 0 1 228.38 10.08
  Q 226.14 13.31 223.88 15.63
  C 217.39 22.33 205.50 33.96 198.10 42.82
  Q 187.71 55.23 178.03 69.05
  Q 175.07 73.28 175.01 73.46
  Q 174.10 76.29 175.71 78.54
  C 191.05 100.03 194.57 125.46 188.57 151.43
  C 186.89 158.73 182.31 168.37 180.15 172.89
  Q 179.11 175.05 179.65 177.03
  A 1.64 1.63 -78.5 0 0 180.20 177.87
  C 182.36 179.58 183.75 180.52 185.22 182.06
  Q 200.52 198.07 216.18 212.88
  Q 219.10 215.64 221.51 218.44
  Q 223.45 220.68 226.55 224.20
  Q 231.19 229.48 231.46 237.01
  Q 232.02 252.36 221.49 256.00
  Z
  M 159.59 105.07
  A 1.58 1.58 0.0 0 0 157.14 104.96
  Q 154.92 107.42 153.24 111.22
  Q 146.28 126.91 141.14 141.49
  C 138.24 149.73 136.66 159.48 130.62 166.07
  C 124.92 172.30 115.76 173.22 109.17 167.54
  Q 105.01 163.95 102.51 159.23
  Q 93.08 141.48 90.97 137.76
  Q 82.93 123.60 72.47 108.02
  Q 68.31 101.81 62.74 95.94
  A 2.50 2.50 0.0 0 1 62.53 92.75
  C 64.85 89.56 71.15 84.90 75.01 88.73
  Q 75.93 89.65 90.27 103.48
  C 99.22 112.13 106.25 120.09 112.02 130.06
  A 1.76 1.75 59.9 0 0 114.41 130.70
  C 117.70 128.83 119.55 121.16 121.76 117.22
  Q 129.55 103.41 137.05 92.25
  C 138.62 89.90 143.24 81.99 140.11 79.85
  C 130.92 73.57 120.21 68.67 108.90 67.71
  Q 84.54 65.66 65.36 79.89
  Q 62.87 81.73 60.13 84.53
  C 57.34 87.38 52.98 91.24 50.28 95.79
  Q 48.81 98.26 45.91 104.35
  C 41.42 113.77 40.50 124.53 41.27 135.03
  Q 42.09 146.17 46.93 155.84
  C 55.70 173.34 72.55 186.90 92.16 189.59
  Q 102.55 191.01 113.51 189.41
  Q 123.70 187.93 133.50 182.20
  Q 149.37 172.92 157.67 156.44
  C 164.86 142.17 165.81 126.65 162.01 111.41
  C 161.38 108.88 160.76 106.64 159.59 105.07
  Z"
/>
</svg>