<?xml version="1.0" encoding="UTF-8" standalone="no"?>
<!DOCTYPE svg PUBLIC "-//W3C//DTD SVG 1.1//EN" "http://www.w3.org/Graphics/SVG/1.1/DTD/svg11.dtd">
<svg xmlns="http://www.w3.org/2000/svg" version="1.1" viewBox="0.00 0.00 256.00 256.00" width="128" height="128">
<g stroke-width="2.00" fill="none" stroke-linecap="butt">
<path stroke="#1b3579" vector-effect="non-scaling-stroke" d="
  M 195.93 81.07
  A 14.05 14.05 0.0 0 0 181.88 67.02
  A 14.05 14.05 0.0 0 0 167.83 81.07
  A 14.05 14.05 0.0 0 0 181.88 95.12
  A 14.05 14.05 0.0 0 0 195.93 81.07"
/>
<path stroke="#808080" vector-effect="non-scaling-stroke" d="
  M 92.14 186.84
  A 0.49 0.49 0.0 0 0 92.63 186.35
  L 92.63 70.60
  A 0.49 0.49 0.0 0 0 92.03 70.12
  L 75.35 73.86
  A 0.49 0.49 0.0 0 0 74.97 74.34
  L 74.97 186.35
  A 0.49 0.49 0.0 0 0 75.46 186.84
  L 92.14 186.84"
/>
<path stroke="#808080" vector-effect="non-scaling-stroke" d="
  M 103.78 174.89
  Q 105.03 176.08 108.86 178.40
  Q 124.41 187.80 141.99 186.94
  C 158.73 186.12 172.18 175.17 170.31 157.31
  C 169.61 150.67 166.52 145.55 161.02 142.27
  C 152.25 137.04 144.25 135.06 132.51 131.73
  C 128.40 130.57 125.49 129.19 125.31 124.79
  C 125.03 118.16 130.37 116.02 135.76 115.58
  Q 149.52 114.44 161.08 121.72
  A 0.68 0.68 0.0 0 0 162.06 121.45
  L 167.81 109.92
  A 1.05 1.05 0.0 0 0 167.43 108.56
  Q 150.86 98.01 131.59 101.30
  C 121.40 103.04 111.73 109.35 109.06 119.76
  C 104.93 135.81 117.29 144.93 131.11 148.89
  C 137.18 150.63 153.11 154.73 152.87 162.21
  C 152.71 167.41 148.17 170.72 143.39 171.37
  C 132.53 172.83 121.21 167.93 112.33 161.06
  A 0.93 0.93 0.0 0 0 110.96 161.33
  L 103.65 173.98
  A 0.75 0.74 -53.5 0 0 103.78 174.89"
/>
<path stroke="#1b3579" vector-effect="non-scaling-stroke" d="
  M 178.37 75.26
  A 0.77 0.77 0.0 0 0 177.24 75.94
  L 177.29 86.38
  A 0.77 0.77 0.0 0 0 178.43 87.05
  L 187.99 81.78
  A 0.77 0.77 0.0 0 0 187.98 80.43
  L 178.37 75.26"
/>
</g>
<path fill="#000000" d="
  M 256.00 0.00
  L 256.00 256.00
  L 0.00 256.00
  L 0.00 0.00
  L 256.00 0.00
  Z
  M 195.93 81.07
  A 14.05 14.05 0.0 0 0 181.88 67.02
  A 14.05 14.05 0.0 0 0 167.83 81.07
  A 14.05 14.05 0.0 0 0 181.88 95.12
  A 14.05 14.05 0.0 0 0 195.93 81.07
  Z
  M 92.14 186.84
  A 0.49 0.49 0.0 0 0 92.63 186.35
  L 92.63 70.60
  A 0.49 0.49 0.0 0 0 92.03 70.12
  L 75.35 73.86
  A 0.49 0.49 0.0 0 0 74.97 74.34
  L 74.97 186.35
  A 0.49 0.49 0.0 0 0 75.46 186.84
  L 92.14 186.84
  Z
  M 103.78 174.89
  Q 105.03 176.08 108.86 178.40
  Q 124.41 187.80 141.99 186.94
  C 158.73 186.12 172.18 175.17 170.31 157.31
  C 169.61 150.67 166.52 145.55 161.02 142.27
  C 152.25 137.04 144.25 135.06 132.51 131.73
  C 128.40 130.57 125.49 129.19 125.31 124.79
  C 125.03 118.16 130.37 116.02 135.76 115.58
  Q 149.52 114.44 161.08 121.72
  A 0.68 0.68 0.0 0 0 162.06 121.45
  L 167.81 109.92
  A 1.05 1.05 0.0 0 0 167.43 108.56
  Q 150.86 98.01 131.59 101.30
  C 121.40 103.04 111.73 109.35 109.06 119.76
  C 104.93 135.81 117.29 144.93 131.11 148.89
  C 137.18 150.63 153.11 154.73 152.87 162.21
  C 152.71 167.41 148.17 170.72 143.39 171.37
  C 132.53 172.83 121.21 167.93 112.33 161.06
  A 0.93 0.93 0.0 0 0 110.96 161.33
  L 103.65 173.98
  A 0.75 0.74 -53.5 0 0 103.78 174.89
  Z"
/>
<path fill="#3569f2" d="
  M 195.93 81.07
  A 14.05 14.05 0.0 0 1 181.88 95.12
  A 14.05 14.05 0.0 0 1 167.83 81.07
  A 14.05 14.05 0.0 0 1 181.88 67.02
  A 14.05 14.05 0.0 0 1 195.93 81.07
  Z
  M 178.37 75.26
  A 0.77 0.77 0.0 0 0 177.24 75.94
  L 177.29 86.38
  A 0.77 0.77 0.0 0 0 178.43 87.05
  L 187.99 81.78
  A 0.77 0.77 0.0 0 0 187.98 80.43
  L 178.37 75.26
  Z"
/>
<path fill="#ffffff" d="
  M 92.14 186.84
  L 75.46 186.84
  A 0.49 0.49 0.0 0 1 74.97 186.35
  L 74.97 74.34
  A 0.49 0.49 0.0 0 1 75.35 73.86
  L 92.03 70.12
  A 0.49 0.49 0.0 0 1 92.63 70.60
  L 92.63 186.35
  A 0.49 0.49 0.0 0 1 92.14 186.84
  Z"
/>
<path fill="#000000" d="
  M 178.37 75.26
  L 187.98 80.43
  A 0.77 0.77 0.0 0 1 187.99 81.78
  L 178.43 87.05
  A 0.77 0.77 0.0 0 1 177.29 86.38
  L 177.24 75.94
  A 0.77 0.77 0.0 0 1 178.37 75.26
  Z"
/>
<path fill="#ffffff" d="
  M 103.65 173.98
  L 110.96 161.33
  A 0.93 0.93 0.0 0 1 112.33 161.06
  C 121.21 167.93 132.53 172.83 143.39 171.37
  C 148.17 170.72 152.71 167.41 152.87 162.21
  C 153.11 154.73 137.18 150.63 131.11 148.89
  C 117.29 144.93 104.93 135.81 109.06 119.76
  C 111.73 109.35 121.40 103.04 131.59 101.30
  Q 150.86 98.01 167.43 108.56
  A 1.05 1.05 0.0 0 1 167.81 109.92
  L 162.06 121.45
  A 0.68 0.68 0.0 0 1 161.08 121.72
  Q 149.52 114.44 135.76 115.58
  C 130.37 116.02 125.03 118.16 125.31 124.79
  C 125.49 129.19 128.40 130.57 132.51 131.73
  C 144.25 135.06 152.25 137.04 161.02 142.27
  C 166.52 145.55 169.61 150.67 170.31 157.31
  C 172.18 175.17 158.73 186.12 141.99 186.94
  Q 124.41 187.80 108.86 178.40
  Q 105.03 176.08 103.78 174.89
  A 0.75 0.74 -53.5 0 1 103.65 173.98
  Z"
/>
</svg>