<?xml version="1.0" encoding="UTF-8" standalone="no"?>
<!DOCTYPE svg PUBLIC "-//W3C//DTD SVG 1.1//EN" "http://www.w3.org/Graphics/SVG/1.1/DTD/svg11.dtd">
<svg xmlns="http://www.w3.org/2000/svg" version="1.1" viewBox="0.00 0.00 128.00 128.00" width="128" height="128">
<path stroke="#eed09a" stroke-width="2.00" fill="none" stroke-linecap="butt" vector-effect="non-scaling-stroke" d="
  M 48.13 25.21
  A 0.44 0.44 0.0 0 0 47.69 24.77
  L 34.58 24.77
  A 0.44 0.44 0.0 0 0 34.14 25.21
  L 34.14 103.02
  A 0.44 0.44 0.0 0 0 34.58 103.46
  L 97.70 103.46
  A 0.44 0.44 0.0 0 0 98.14 103.02
  L 98.14 90.61
  A 0.44 0.44 0.0 0 0 97.70 90.17
  L 48.57 90.17
  A 0.44 0.44 0.0 0 1 48.13 89.73
  L 48.13 25.21"
/>
<path fill="#dca034" d="
  M 66.50 0.00
  Q 99.42 2.23 117.34 28.66
  Q 127.01 42.90 128.00 61.44
  L 128.00 66.48
  C 125.89 100.31 100.51 126.14 66.57 128.00
  L 61.50 128.00
  Q 28.58 125.77 10.66 99.34
  Q 0.99 85.09 0.00 66.55
  L 0.00 61.54
  C 1.81 27.59 27.61 2.13 61.45 0.00
  L 66.50 0.00
  Z
  M 48.13 25.21
  A 0.44 0.44 0.0 0 0 47.69 24.77
  L 34.58 24.77
  A 0.44 0.44 0.0 0 0 34.14 25.21
  L 34.14 103.02
  A 0.44 0.44 0.0 0 0 34.58 103.46
  L 97.70 103.46
  A 0.44 0.44 0.0 0 0 98.14 103.02
  L 98.14 90.61
  A 0.44 0.44 0.0 0 0 97.70 90.17
  L 48.57 90.17
  A 0.44 0.44 0.0 0 1 48.13 89.73
  L 48.13 25.21
  Z"
/>
<path fill="#ffffff" d="
  M 48.13 25.21
  L 48.13 89.73
  A 0.44 0.44 0.0 0 0 48.57 90.17
  L 97.70 90.17
  A 0.44 0.44 0.0 0 1 98.14 90.61
  L 98.14 103.02
  A 0.44 0.44 0.0 0 1 97.70 103.46
  L 34.58 103.46
  A 0.44 0.44 0.0 0 1 34.14 103.02
  L 34.14 25.21
  A 0.44 0.44 0.0 0 1 34.58 24.77
  L 47.69 24.77
  A 0.44 0.44 0.0 0 1 48.13 25.21
  Z"
/>
</svg>