<?xml version="1.0" encoding="UTF-8" standalone="no"?>
<!DOCTYPE svg PUBLIC "-//W3C//DTD SVG 1.1//EN" "http://www.w3.org/Graphics/SVG/1.1/DTD/svg11.dtd">
<svg xmlns="http://www.w3.org/2000/svg" version="1.1" viewBox="0.00 0.00 192.00 192.00" width="128" height="128">
<path fill="#202c45" d="
  M 98.34 0.00
  Q 125.15 14.16 152.37 29.53
  C 154.63 30.80 156.43 32.46 154.22 34.61
  A 1.55 1.45 6.5 0 1 153.80 34.92
  L 135.42 45.11
  A 1.61 1.60 -44.7 0 1 133.85 45.11
  Q 130.37 43.15 101.55 27.20
  C 96.93 24.65 92.40 25.99 87.72 28.62
  Q 74.58 36.00 57.98 45.20
  A 1.40 1.37 -44.8 0 1 56.65 45.21
  L 38.14 34.97
  A 1.67 1.66 -2.2 0 1 37.54 34.42
  Q 35.75 31.78 38.14 30.38
  Q 57.04 19.34 93.58 0.00
  L 98.34 0.00
  Z"
/>
<path fill="#22d172" d="
  M 33.92 75.65
  L 33.92 129.91
  A 1.10 1.09 -15.5 0 1 33.38 130.85
  Q 25.39 135.58 16.75 140.66
  C 14.07 142.23 10.60 141.94 9.69 138.54
  A 2.05 2.03 -52.8 0 1 9.62 138.01
  Q 9.63 133.45 9.59 57.66
  Q 9.58 51.58 11.00 49.12
  C 14.59 42.90 22.48 41.60 28.60 44.93
  Q 35.66 48.77 95.55 82.23
  A 0.84 0.84 0.0 0 0 96.37 82.23
  Q 156.74 48.61 159.20 47.13
  C 166.26 42.91 172.08 40.77 178.57 46.17
  C 181.87 48.92 182.47 52.71 182.41 57.48
  Q 182.37 60.14 182.39 137.91
  C 182.39 140.79 180.06 142.17 177.39 140.80
  Q 168.02 136.00 158.58 130.78
  A 0.99 0.99 0.0 0 1 158.06 129.91
  L 158.06 75.57
  A 0.33 0.33 0.0 0 0 157.57 75.28
  Q 103.54 105.34 102.78 105.78
  C 97.08 109.03 92.72 107.90 87.01 104.58
  Q 84.43 103.08 34.48 75.32
  A 0.38 0.38 0.0 0 0 33.92 75.65
  Z"
/>
<path fill="#202c45" d="
  M 98.47 192.00
  L 94.29 192.00
  L 91.35 191.16
  A 1.92 1.92 0.0 0 1 90.93 190.99
  Q 75.45 182.40 27.53 155.73
  C 25.42 154.55 23.80 153.22 25.55 151.05
  A 1.73 1.61 2.0 0 1 26.01 150.65
  Q 28.64 149.05 42.29 141.06
  Q 45.33 139.27 48.15 140.84
  Q 80.54 158.79 87.83 162.91
  C 92.76 165.71 97.06 166.73 101.88 164.13
  Q 106.37 161.70 143.19 141.17
  C 145.66 139.79 148.23 140.17 150.95 141.79
  Q 151.27 141.97 166.98 150.41
  A 1.36 1.31 3.8 0 1 167.59 151.08
  Q 168.54 153.41 166.87 154.37
  Q 144.36 167.37 98.47 192.00
  Z"
/>
</svg>