<?xml version="1.0" encoding="UTF-8" standalone="no"?>
<!DOCTYPE svg PUBLIC "-//W3C//DTD SVG 1.1//EN" "http://www.w3.org/Graphics/SVG/1.1/DTD/svg11.dtd">
<svg xmlns="http://www.w3.org/2000/svg" version="1.1" viewBox="0.00 0.00 180.00 180.00" width="128" height="128">
<path fill="#142d6f" d="
  M 124.47 0.00
  C 154.48 2.77 176.94 25.46 180.00 55.38
  L 180.00 124.84
  C 176.76 154.60 154.61 177.08 124.76 180.00
  L 55.35 180.00
  C 25.55 177.07 3.05 154.59 0.00 124.81
  L 0.00 55.29
  C 2.95 25.39 25.42 3.20 55.25 0.00
  L 124.47 0.00
  Z
  M 90.03 102.90
  Q 90.34 102.90 90.49 102.77
  C 93.98 99.89 97.56 96.35 101.26 93.85
  Q 110.26 87.79 121.89 85.05
  A 1.51 1.51 0.0 0 0 123.04 83.74
  L 127.39 44.04
  A 0.69 0.69 0.0 0 0 126.43 43.33
  Q 113.54 48.92 92.26 58.04
  Q 90.62 58.75 90.01 58.75
  Q 89.41 58.75 87.76 58.04
  Q 66.47 48.95 53.58 43.37
  A 0.69 0.69 0.0 0 0 52.62 44.08
  L 57.01 83.78
  A 1.51 1.51 0.0 0 0 58.16 85.08
  Q 69.79 87.81 78.80 93.86
  C 82.50 96.36 86.09 99.89 89.58 102.77
  Q 89.73 102.90 90.03 102.90
  Z
  M 81.42 113.88
  A 18.65 18.65 0.0 0 0 62.77 95.23
  A 18.65 18.65 0.0 0 0 44.12 113.88
  A 18.65 18.65 0.0 0 0 62.77 132.53
  A 18.65 18.65 0.0 0 0 81.42 113.88
  Z
  M 135.87 113.90
  A 18.65 18.65 0.0 0 0 117.22 95.25
  A 18.65 18.65 0.0 0 0 98.57 113.90
  A 18.65 18.65 0.0 0 0 117.22 132.55
  A 18.65 18.65 0.0 0 0 135.87 113.90
  Z"
/>
<path fill="#142d6f" d="
  M 89.99 67.17
  Q 90.39 67.17 90.40 67.17
  Q 105.16 61.08 118.05 55.32
  A 0.19 0.19 0.0 0 1 118.32 55.52
  L 115.86 77.93
  A 1.16 1.16 0.0 0 1 115.04 78.92
  Q 101.71 82.82 90.86 92.12
  Q 90.53 92.40 89.98 92.40
  Q 89.43 92.40 89.10 92.12
  Q 78.26 82.81 64.93 78.90
  A 1.16 1.16 0.0 0 1 64.11 77.91
  L 61.67 55.49
  A 0.19 0.19 0.0 0 1 61.94 55.29
  Q 74.83 61.07 89.58 67.17
  Q 89.59 67.17 89.99 67.17
  Z"
/>
<circle fill="#142d6f" cx="62.78" cy="113.90" r="10.92"/>
<circle fill="#142d6f" cx="117.22" cy="113.88" r="10.91"/>
</svg>