<?xml version="1.0" encoding="UTF-8" standalone="no"?>
<!DOCTYPE svg PUBLIC "-//W3C//DTD SVG 1.1//EN" "http://www.w3.org/Graphics/SVG/1.1/DTD/svg11.dtd">
<svg xmlns="http://www.w3.org/2000/svg" version="1.1" viewBox="0.00 0.00 512.00 512.00" width="128" height="128">
<g stroke-width="2.00" fill="none" stroke-linecap="butt">
<path stroke="#9a9996" vector-effect="non-scaling-stroke" d="
  M 189.30 105.93
  Q 191.53 114.99 193.05 122.30
  Q 194.13 127.46 195.38 129.36
  C 202.41 140.02 218.29 137.55 221.54 125.20
  Q 222.33 122.20 220.94 115.34
  Q 219.83 109.87 217.18 99.08
  Q 214.53 88.29 212.98 82.94
  Q 211.03 76.21 208.94 73.92
  C 200.34 64.48 185.12 69.65 183.83 82.35
  Q 183.60 84.62 185.04 89.69
  Q 187.07 96.87 189.30 105.93"
/>
<path stroke="#9a9996" vector-effect="non-scaling-stroke" d="
  M 247.62 103.20
  Q 244.78 110.74 242.01 121.79
  Q 239.86 130.38 244.56 136.05
  C 250.76 143.52 261.69 142.80 267.39 135.17
  Q 269.12 132.86 270.09 128.15
  C 271.06 123.42 272.79 117.74 274.47 113.28
  C 276.14 108.82 278.58 103.40 280.96 99.20
  Q 283.33 95.02 283.55 92.14
  C 284.28 82.64 276.53 74.91 266.94 76.45
  Q 259.67 77.63 255.64 85.51
  Q 250.45 95.65 247.62 103.20"
/>
<path stroke="#9a9996" vector-effect="non-scaling-stroke" d="
  M 139.06 139.54
  C 142.98 142.39 147.42 146.30 150.65 149.87
  Q 153.61 153.13 156.01 154.21
  C 164.12 157.86 173.08 154.27 175.96 145.98
  Q 178.80 137.80 172.25 130.80
  Q 164.12 122.11 155.96 116.20
  Q 147.79 110.29 136.99 105.28
  Q 128.30 101.24 121.42 106.50
  C 114.44 111.82 113.83 121.45 119.83 128.02
  Q 121.60 129.96 125.63 131.75
  C 130.03 133.71 135.13 136.70 139.06 139.54"
/>
<path stroke="#9a9996" vector-effect="non-scaling-stroke" d="
  M 362.62 288.18
  L 351.88 284.72
  A 0.78 0.77 10.0 0 1 351.34 283.96
  Q 351.73 267.54 345.15 253.23
  C 341.87 246.08 335.13 237.29 332.08 232.15
  C 330.09 228.80 331.28 223.40 332.23 219.48
  C 334.24 211.16 336.82 203.64 337.28 196.72
  Q 338.13 184.01 332.52 173.61
  C 325.52 160.64 313.34 153.89 298.48 153.81
  Q 281.17 153.71 267.21 163.35
  Q 261.27 167.45 255.38 175.26
  Q 247.76 185.39 241.84 194.93
  A 0.44 0.44 0.0 0 1 241.28 195.09
  Q 222.42 186.04 204.56 178.71
  Q 186.49 171.30 168.50 168.36
  C 148.52 165.11 127.53 169.78 115.35 186.49
  C 105.16 200.49 104.01 217.99 113.34 232.73
  C 119.53 242.50 129.46 249.76 139.44 254.55
  Q 150.10 259.67 162.39 263.52
  A 0.44 0.44 0.0 0 1 162.65 264.16
  C 152.43 281.97 151.55 301.40 165.35 317.53
  A 1.46 1.42 23.4 0 1 165.70 318.38
  Q 165.71 318.56 165.68 323.50
  C 165.58 342.72 176.65 357.69 193.15 366.86
  C 205.16 373.54 218.50 377.50 232.09 380.63
  C 254.53 385.79 277.44 392.50 300.55 397.51
  A 1.44 1.43 -3.2 0 1 301.61 398.45
  Q 306.83 413.75 315.85 426.40
  C 324.32 438.25 336.52 444.16 350.03 435.11
  Q 354.39 432.18 357.20 428.67
  Q 366.11 417.54 371.99 402.71
  Q 388.75 360.39 392.76 314.73
  Q 393.36 308.01 393.23 299.73
  Q 393.10 290.79 387.73 284.22
  C 379.85 274.57 368.67 278.24 363.35 287.88
  A 0.62 0.62 0.0 0 1 362.62 288.18"
/>
<path stroke="#9a9996" vector-effect="non-scaling-stroke" d="
  M 197.89 304.63
  C 195.55 312.10 193.62 321.10 194.96 328.09
  C 196.74 337.33 207.69 343.13 215.87 346.15
  C 229.42 351.15 242.08 353.72 257.68 357.33
  C 264.32 358.86 271.43 361.62 278.29 363.19
  Q 285.37 364.82 295.96 367.48
  Q 308.59 370.65 323.18 367.30
  C 330.96 365.51 337.04 361.03 340.82 354.33
  C 347.50 342.48 349.94 331.12 354.16 316.12
  A 0.70 0.69 17.0 0 0 353.70 315.27
  C 344.47 312.34 336.64 310.12 329.00 305.52
  Q 322.25 301.47 322.31 293.76
  C 322.39 282.19 322.97 276.24 320.08 267.45
  Q 318.90 263.86 314.02 256.62
  Q 308.85 248.96 307.04 245.96
  C 297.84 230.77 303.63 213.87 307.62 198.21
  Q 308.72 193.92 308.43 191.42
  C 308.02 187.82 306.26 183.71 302.49 182.80
  C 287.76 179.27 277.89 192.05 271.70 203.17
  Q 263.33 218.21 252.30 231.18
  A 0.74 0.73 32.8 0 1 251.43 231.36
  Q 228.25 220.32 211.21 212.54
  C 195.98 205.58 153.02 185.48 139.18 203.27
  C 128.40 217.12 146.45 226.79 156.48 230.99
  Q 168.83 236.17 182.53 239.71
  A 1.23 1.23 0.0 0 0 183.41 239.61
  C 204.87 228.64 231.55 229.52 253.55 238.25
  C 266.02 243.19 275.56 250.51 282.55 261.22
  Q 297.25 283.76 294.64 310.99
  Q 293.61 321.72 288.78 329.78
  C 275.05 352.65 246.93 348.35 226.10 337.44
  A 4.63 4.61 81.0 0 1 224.95 336.60
  Q 216.86 328.70 221.26 319.07
  C 223.58 313.99 228.79 310.92 234.36 310.97
  Q 237.14 310.99 241.00 312.71
  C 247.01 315.40 255.59 318.78 261.92 316.96
  A 3.51 3.50 -84.0 0 0 264.06 315.22
  Q 265.53 312.39 265.99 309.00
  C 267.76 296.01 263.75 281.68 254.41 272.11
  Q 251.34 268.96 247.77 267.24
  C 234.08 260.63 216.91 258.04 202.57 263.02
  Q 198.13 264.57 194.32 268.04
  C 187.15 274.59 182.63 281.52 183.84 291.49
  Q 184.99 300.96 195.10 303.29
  Q 196.30 303.56 197.46 303.86
  A 0.61 0.61 0.0 0 1 197.89 304.63"
/>
</g>
<path fill="#ffffff" d="
  M 435.40 0.00
  Q 464.44 1.97 485.12 20.63
  Q 509.11 42.26 512.00 75.77
  L 512.00 435.44
  Q 510.01 464.38 491.50 485.00
  Q 469.86 509.10 436.22 512.00
  L 76.49 512.00
  C 38.98 509.38 8.97 483.34 1.43 446.50
  Q 0.96 444.20 0.00 436.05
  L 0.00 76.59
  Q 1.56 52.73 14.54 34.52
  Q 36.58 3.59 75.76 0.00
  L 435.40 0.00
  Z
  M 189.30 105.93
  Q 191.53 114.99 193.05 122.30
  Q 194.13 127.46 195.38 129.36
  C 202.41 140.02 218.29 137.55 221.54 125.20
  Q 222.33 122.20 220.94 115.34
  Q 219.83 109.87 217.18 99.08
  Q 214.53 88.29 212.98 82.94
  Q 211.03 76.21 208.94 73.92
  C 200.34 64.48 185.12 69.65 183.83 82.35
  Q 183.60 84.62 185.04 89.69
  Q 187.07 96.87 189.30 105.93
  Z
  M 247.62 103.20
  Q 244.78 110.74 242.01 121.79
  Q 239.86 130.38 244.56 136.05
  C 250.76 143.52 261.69 142.80 267.39 135.17
  Q 269.12 132.86 270.09 128.15
  C 271.06 123.42 272.79 117.74 274.47 113.28
  C 276.14 108.82 278.58 103.40 280.96 99.20
  Q 283.33 95.02 283.55 92.14
  C 284.28 82.64 276.53 74.91 266.94 76.45
  Q 259.67 77.63 255.64 85.51
  Q 250.45 95.65 247.62 103.20
  Z
  M 139.06 139.54
  C 142.98 142.39 147.42 146.30 150.65 149.87
  Q 153.61 153.13 156.01 154.21
  C 164.12 157.86 173.08 154.27 175.96 145.98
  Q 178.80 137.80 172.25 130.80
  Q 164.12 122.11 155.96 116.20
  Q 147.79 110.29 136.99 105.28
  Q 128.30 101.24 121.42 106.50
  C 114.44 111.82 113.83 121.45 119.83 128.02
  Q 121.60 129.96 125.63 131.75
  C 130.03 133.71 135.13 136.70 139.06 139.54
  Z
  M 362.62 288.18
  L 351.88 284.72
  A 0.78 0.77 10.0 0 1 351.34 283.96
  Q 351.73 267.54 345.15 253.23
  C 341.87 246.08 335.13 237.29 332.08 232.15
  C 330.09 228.80 331.28 223.40 332.23 219.48
  C 334.24 211.16 336.82 203.64 337.28 196.72
  Q 338.13 184.01 332.52 173.61
  C 325.52 160.64 313.34 153.89 298.48 153.81
  Q 281.17 153.71 267.21 163.35
  Q 261.27 167.45 255.38 175.26
  Q 247.76 185.39 241.84 194.93
  A 0.44 0.44 0.0 0 1 241.28 195.09
  Q 222.42 186.04 204.56 178.71
  Q 186.49 171.30 168.50 168.36
  C 148.52 165.11 127.53 169.78 115.35 186.49
  C 105.16 200.49 104.01 217.99 113.34 232.73
  C 119.53 242.50 129.46 249.76 139.44 254.55
  Q 150.10 259.67 162.39 263.52
  A 0.44 0.44 0.0 0 1 162.65 264.16
  C 152.43 281.97 151.55 301.40 165.35 317.53
  A 1.46 1.42 23.4 0 1 165.70 318.38
  Q 165.71 318.56 165.68 323.50
  C 165.58 342.72 176.65 357.69 193.15 366.86
  C 205.16 373.54 218.50 377.50 232.09 380.63
  C 254.53 385.79 277.44 392.50 300.55 397.51
  A 1.44 1.43 -3.2 0 1 301.61 398.45
  Q 306.83 413.75 315.85 426.40
  C 324.32 438.25 336.52 444.16 350.03 435.11
  Q 354.39 432.18 357.20 428.67
  Q 366.11 417.54 371.99 402.71
  Q 388.75 360.39 392.76 314.73
  Q 393.36 308.01 393.23 299.73
  Q 393.10 290.79 387.73 284.22
  C 379.85 274.57 368.67 278.24 363.35 287.88
  A 0.62 0.62 0.0 0 1 362.62 288.18
  Z"
/>
<path fill="#34322d" d="
  M 217.18 99.08
  Q 219.83 109.87 220.94 115.34
  Q 222.33 122.20 221.54 125.20
  C 218.29 137.55 202.41 140.02 195.38 129.36
  Q 194.13 127.46 193.05 122.30
  Q 191.53 114.99 189.30 105.93
  Q 187.07 96.87 185.04 89.69
  Q 183.60 84.62 183.83 82.35
  C 185.12 69.65 200.34 64.48 208.94 73.92
  Q 211.03 76.21 212.98 82.94
  Q 214.53 88.29 217.18 99.08
  Z"
/>
<path fill="#34322d" d="
  M 274.47 113.28
  C 272.79 117.74 271.06 123.42 270.09 128.15
  Q 269.12 132.86 267.39 135.17
  C 261.69 142.80 250.76 143.52 244.56 136.05
  Q 239.86 130.38 242.01 121.79
  Q 244.78 110.74 247.62 103.20
  Q 250.45 95.65 255.64 85.51
  Q 259.67 77.63 266.94 76.45
  C 276.53 74.91 284.28 82.64 283.55 92.14
  Q 283.33 95.02 280.96 99.20
  C 278.58 103.40 276.14 108.82 274.47 113.28
  Z"
/>
<path fill="#34322d" d="
  M 155.96 116.20
  Q 164.12 122.11 172.25 130.80
  Q 178.80 137.80 175.96 145.98
  C 173.08 154.27 164.12 157.86 156.01 154.21
  Q 153.61 153.13 150.65 149.87
  C 147.42 146.30 142.98 142.39 139.06 139.54
  C 135.13 136.70 130.03 133.71 125.63 131.75
  Q 121.60 129.96 119.83 128.02
  C 113.83 121.45 114.44 111.82 121.42 106.50
  Q 128.30 101.24 136.99 105.28
  Q 147.79 110.29 155.96 116.20
  Z"
/>
<path fill="#34322d" d="
  M 363.35 287.88
  C 368.67 278.24 379.85 274.57 387.73 284.22
  Q 393.10 290.79 393.23 299.73
  Q 393.36 308.01 392.76 314.73
  Q 388.75 360.39 371.99 402.71
  Q 366.11 417.54 357.20 428.67
  Q 354.39 432.18 350.03 435.11
  C 336.52 444.16 324.32 438.25 315.85 426.40
  Q 306.83 413.75 301.61 398.45
  A 1.44 1.43 -3.2 0 0 300.55 397.51
  C 277.44 392.50 254.53 385.79 232.09 380.63
  C 218.50 377.50 205.16 373.54 193.15 366.86
  C 176.65 357.69 165.58 342.72 165.68 323.50
  Q 165.71 318.56 165.70 318.38
  A 1.46 1.42 23.4 0 0 165.35 317.53
  C 151.55 301.40 152.43 281.97 162.65 264.16
  A 0.44 0.44 0.0 0 0 162.39 263.52
  Q 150.10 259.67 139.44 254.55
  C 129.46 249.76 119.53 242.50 113.34 232.73
  C 104.01 217.99 105.16 200.49 115.35 186.49
  C 127.53 169.78 148.52 165.11 168.50 168.36
  Q 186.49 171.30 204.56 178.71
  Q 222.42 186.04 241.28 195.09
  A 0.44 0.44 0.0 0 0 241.84 194.93
  Q 247.76 185.39 255.38 175.26
  Q 261.27 167.45 267.21 163.35
  Q 281.17 153.71 298.48 153.81
  C 313.34 153.89 325.52 160.64 332.52 173.61
  Q 338.13 184.01 337.28 196.72
  C 336.82 203.64 334.24 211.16 332.23 219.48
  C 331.28 223.40 330.09 228.80 332.08 232.15
  C 335.13 237.29 341.87 246.08 345.15 253.23
  Q 351.73 267.54 351.34 283.96
  A 0.78 0.77 10.0 0 0 351.88 284.72
  L 362.62 288.18
  A 0.62 0.62 0.0 0 0 363.35 287.88
  Z
  M 197.89 304.63
  C 195.55 312.10 193.62 321.10 194.96 328.09
  C 196.74 337.33 207.69 343.13 215.87 346.15
  C 229.42 351.15 242.08 353.72 257.68 357.33
  C 264.32 358.86 271.43 361.62 278.29 363.19
  Q 285.37 364.82 295.96 367.48
  Q 308.59 370.65 323.18 367.30
  C 330.96 365.51 337.04 361.03 340.82 354.33
  C 347.50 342.48 349.94 331.12 354.16 316.12
  A 0.70 0.69 17.0 0 0 353.70 315.27
  C 344.47 312.34 336.64 310.12 329.00 305.52
  Q 322.25 301.47 322.31 293.76
  C 322.39 282.19 322.97 276.24 320.08 267.45
  Q 318.90 263.86 314.02 256.62
  Q 308.85 248.96 307.04 245.96
  C 297.84 230.77 303.63 213.87 307.62 198.21
  Q 308.72 193.92 308.43 191.42
  C 308.02 187.82 306.26 183.71 302.49 182.80
  C 287.76 179.27 277.89 192.05 271.70 203.17
  Q 263.33 218.21 252.30 231.18
  A 0.74 0.73 32.8 0 1 251.43 231.36
  Q 228.25 220.32 211.21 212.54
  C 195.98 205.58 153.02 185.48 139.18 203.27
  C 128.40 217.12 146.45 226.79 156.48 230.99
  Q 168.83 236.17 182.53 239.71
  A 1.23 1.23 0.0 0 0 183.41 239.61
  C 204.87 228.64 231.55 229.52 253.55 238.25
  C 266.02 243.19 275.56 250.51 282.55 261.22
  Q 297.25 283.76 294.64 310.99
  Q 293.61 321.72 288.78 329.78
  C 275.05 352.65 246.93 348.35 226.10 337.44
  A 4.63 4.61 81.0 0 1 224.95 336.60
  Q 216.86 328.70 221.26 319.07
  C 223.58 313.99 228.79 310.92 234.36 310.97
  Q 237.14 310.99 241.00 312.71
  C 247.01 315.40 255.59 318.78 261.92 316.96
  A 3.51 3.50 -84.0 0 0 264.06 315.22
  Q 265.53 312.39 265.99 309.00
  C 267.76 296.01 263.75 281.68 254.41 272.11
  Q 251.34 268.96 247.77 267.24
  C 234.08 260.63 216.91 258.04 202.57 263.02
  Q 198.13 264.57 194.32 268.04
  C 187.15 274.59 182.63 281.52 183.84 291.49
  Q 184.99 300.96 195.10 303.29
  Q 196.30 303.56 197.46 303.86
  A 0.61 0.61 0.0 0 1 197.89 304.63
  Z"
/>
<path fill="#ffffff" d="
  M 197.46 303.86
  Q 196.30 303.56 195.10 303.29
  Q 184.99 300.96 183.84 291.49
  C 182.63 281.52 187.15 274.59 194.32 268.04
  Q 198.13 264.57 202.57 263.02
  C 216.91 258.04 234.08 260.63 247.77 267.24
  Q 251.34 268.96 254.41 272.11
  C 263.75 281.68 267.76 296.01 265.99 309.00
  Q 265.53 312.39 264.06 315.22
  A 3.51 3.50 -84.0 0 1 261.92 316.96
  C 255.59 318.78 247.01 315.40 241.00 312.71
  Q 237.14 310.99 234.36 310.97
  C 228.79 310.92 223.58 313.99 221.26 319.07
  Q 216.86 328.70 224.95 336.60
  A 4.63 4.61 81.0 0 0 226.10 337.44
  C 246.93 348.35 275.05 352.65 288.78 329.78
  Q 293.61 321.72 294.64 310.99
  Q 297.25 283.76 282.55 261.22
  C 275.56 250.51 266.02 243.19 253.55 238.25
  C 231.55 229.52 204.87 228.64 183.41 239.61
  A 1.23 1.23 0.0 0 1 182.53 239.71
  Q 168.83 236.17 156.48 230.99
  C 146.45 226.79 128.40 217.12 139.18 203.27
  C 153.02 185.48 195.98 205.58 211.21 212.54
  Q 228.25 220.32 251.43 231.36
  A 0.74 0.73 32.8 0 0 252.30 231.18
  Q 263.33 218.21 271.70 203.17
  C 277.89 192.05 287.76 179.27 302.49 182.80
  C 306.26 183.71 308.02 187.82 308.43 191.42
  Q 308.72 193.92 307.62 198.21
  C 303.63 213.87 297.84 230.77 307.04 245.96
  Q 308.85 248.96 314.02 256.62
  Q 318.90 263.86 320.08 267.45
  C 322.97 276.24 322.39 282.19 322.31 293.76
  Q 322.25 301.47 329.00 305.52
  C 336.64 310.12 344.47 312.34 353.70 315.27
  A 0.70 0.69 17.0 0 1 354.16 316.12
  C 349.94 331.12 347.50 342.48 340.82 354.33
  C 337.04 361.03 330.96 365.51 323.18 367.30
  Q 308.59 370.65 295.96 367.48
  Q 285.37 364.82 278.29 363.19
  C 271.43 361.62 264.32 358.86 257.68 357.33
  C 242.08 353.72 229.42 351.15 215.87 346.15
  C 207.69 343.13 196.74 337.33 194.96 328.09
  C 193.62 321.10 195.55 312.10 197.89 304.63
  A 0.61 0.61 0.0 0 0 197.46 303.86
  Z"
/>
</svg>