<?xml version="1.0" encoding="UTF-8" standalone="no"?>
<!DOCTYPE svg PUBLIC "-//W3C//DTD SVG 1.1//EN" "http://www.w3.org/Graphics/SVG/1.1/DTD/svg11.dtd">
<svg xmlns="http://www.w3.org/2000/svg" version="1.1" viewBox="0.00 0.00 500.00 500.00" width="128" height="128">
<g stroke-width="2.00" fill="none" stroke-linecap="butt">
<path stroke="#02253d" stroke-opacity="0.569" vector-effect="non-scaling-stroke" d="
  M 500.00 0.71
  L 1.06 0.74
  A 0.15 0.14 -76.9 0 0 0.93 0.83
  Q 0.91 0.87 0.89 0.92"
/>
<path stroke="#02293f" stroke-opacity="0.875" vector-effect="non-scaling-stroke" d="
  M 0.88 500.00
  L 0.89 0.92"
/>
<path stroke="#81949f" vector-effect="non-scaling-stroke" d="
  M 407.64 413.81
  C 407.65 412.37 408.06 410.54 408.05 409.38
  Q 407.91 365.33 408.03 90.25
  Q 408.03 87.01 404.76 87.01
  Q 362.21 87.01 284.39 87.00
  A 2.84 2.82 10.0 0 0 281.73 88.85
  Q 281.06 90.66 281.17 93.36
  Q 281.78 108.04 281.37 136.49
  Q 281.24 145.69 281.29 147.00
  Q 281.42 150.52 285.04 150.68
  C 291.17 150.95 297.58 150.52 303.32 150.50
  Q 333.83 150.39 339.47 150.72
  Q 341.36 150.83 342.67 150.85
  A 1.61 1.60 0.5 0 1 344.25 152.45
  Q 344.25 279.39 344.26 382.73
  C 344.26 385.28 345.27 386.69 347.69 387.78
  Q 385.18 404.76 406.88 414.30
  A 0.54 0.54 0.0 0 0 407.64 413.81"
/>
<path stroke="#81949f" vector-effect="non-scaling-stroke" d="
  M 311.56 413.71
  A 1.82 1.81 -84.2 0 0 313.74 411.93
  Q 313.75 282.51 313.74 184.01
  Q 313.74 181.25 311.23 181.25
  Q 217.37 181.25 190.90 181.25
  C 188.96 181.25 187.01 181.90 187.01 184.03
  Q 186.99 237.37 186.99 241.00
  Q 186.99 244.76 190.75 244.76
  Q 207.65 244.75 248.06 244.76
  A 1.94 1.94 0.0 0 1 250.00 246.70
  Q 250.01 378.90 249.99 381.09
  C 249.97 383.85 250.65 386.45 252.99 387.51
  Q 289.93 404.21 309.71 413.06
  Q 310.82 413.55 311.56 413.71"
/>
<path stroke="#81949f" vector-effect="non-scaling-stroke" d="
  M 219.24 412.76
  Q 219.49 412.06 219.49 411.25
  Q 219.53 404.56 219.51 279.50
  Q 219.51 275.24 215.51 275.24
  Q 117.05 275.28 96.00 275.23
  Q 92.75 275.22 92.75 278.49
  Q 92.77 317.72 92.75 365.54
  C 92.75 368.62 93.41 370.64 96.31 371.66
  Q 169.53 397.31 216.98 413.83
  A 1.78 1.78 0.0 0 0 219.24 412.76"
/>
</g>
<path fill="#051034" fill-opacity="0.137" d="
  M 500.00 0.00
  L 500.00 0.71
  L 1.06 0.74
  A 0.15 0.14 -76.9 0 0 0.93 0.83
  Q 0.91 0.87 0.89 0.92
  L 0.00 0.94
  L 0.00 0.00
  L 500.00 0.00
  Z"
/>
<path fill="#02283e" d="
  M 500.00 0.71
  L 500.00 500.00
  L 0.88 500.00
  L 0.89 0.92
  Q 0.91 0.87 0.93 0.83
  A 0.15 0.14 -76.9 0 1 1.06 0.74
  L 500.00 0.71
  Z
  M 407.64 413.81
  C 407.65 412.37 408.06 410.54 408.05 409.38
  Q 407.91 365.33 408.03 90.25
  Q 408.03 87.01 404.76 87.01
  Q 362.21 87.01 284.39 87.00
  A 2.84 2.82 10.0 0 0 281.73 88.85
  Q 281.06 90.66 281.17 93.36
  Q 281.78 108.04 281.37 136.49
  Q 281.24 145.69 281.29 147.00
  Q 281.42 150.52 285.04 150.68
  C 291.17 150.95 297.58 150.52 303.32 150.50
  Q 333.83 150.39 339.47 150.72
  Q 341.36 150.83 342.67 150.85
  A 1.61 1.60 0.5 0 1 344.25 152.45
  Q 344.25 279.39 344.26 382.73
  C 344.26 385.28 345.27 386.69 347.69 387.78
  Q 385.18 404.76 406.88 414.30
  A 0.54 0.54 0.0 0 0 407.64 413.81
  Z
  M 311.56 413.71
  A 1.82 1.81 -84.2 0 0 313.74 411.93
  Q 313.75 282.51 313.74 184.01
  Q 313.74 181.25 311.23 181.25
  Q 217.37 181.25 190.90 181.25
  C 188.96 181.25 187.01 181.90 187.01 184.03
  Q 186.99 237.37 186.99 241.00
  Q 186.99 244.76 190.75 244.76
  Q 207.65 244.75 248.06 244.76
  A 1.94 1.94 0.0 0 1 250.00 246.70
  Q 250.01 378.90 249.99 381.09
  C 249.97 383.85 250.65 386.45 252.99 387.51
  Q 289.93 404.21 309.71 413.06
  Q 310.82 413.55 311.56 413.71
  Z
  M 219.24 412.76
  Q 219.49 412.06 219.49 411.25
  Q 219.53 404.56 219.51 279.50
  Q 219.51 275.24 215.51 275.24
  Q 117.05 275.28 96.00 275.23
  Q 92.75 275.22 92.75 278.49
  Q 92.77 317.72 92.75 365.54
  C 92.75 368.62 93.41 370.64 96.31 371.66
  Q 169.53 397.31 216.98 413.83
  A 1.78 1.78 0.0 0 0 219.24 412.76
  Z"
/>
<path fill="#032a41" fill-opacity="0.749" d="
  M 0.89 0.92
  L 0.88 500.00
  L 0.00 500.00
  L 0.00 0.94
  L 0.89 0.92
  Z"
/>
<path fill="#ffffff" d="
  M 407.64 413.81
  A 0.54 0.54 0.0 0 1 406.88 414.30
  Q 385.18 404.76 347.69 387.78
  C 345.27 386.69 344.26 385.28 344.26 382.73
  Q 344.25 279.39 344.25 152.45
  A 1.61 1.60 0.5 0 0 342.67 150.85
  Q 341.36 150.83 339.47 150.72
  Q 333.83 150.39 303.32 150.50
  C 297.58 150.52 291.17 150.95 285.04 150.68
  Q 281.42 150.52 281.29 147.00
  Q 281.24 145.69 281.37 136.49
  Q 281.78 108.04 281.17 93.36
  Q 281.06 90.66 281.73 88.85
  A 2.84 2.82 10.0 0 1 284.39 87.00
  Q 362.21 87.01 404.76 87.01
  Q 408.03 87.01 408.03 90.25
  Q 407.91 365.33 408.05 409.38
  C 408.06 410.54 407.65 412.37 407.64 413.81
  Z"
/>
<path fill="#ffffff" d="
  M 311.56 413.71
  Q 310.82 413.55 309.71 413.06
  Q 289.93 404.21 252.99 387.51
  C 250.65 386.45 249.97 383.85 249.99 381.09
  Q 250.01 378.90 250.00 246.70
  A 1.94 1.94 0.0 0 0 248.06 244.76
  Q 207.65 244.75 190.75 244.76
  Q 186.99 244.76 186.99 241.00
  Q 186.99 237.37 187.01 184.03
  C 187.01 181.90 188.96 181.25 190.90 181.25
  Q 217.37 181.25 311.23 181.25
  Q 313.74 181.25 313.74 184.01
  Q 313.75 282.51 313.74 411.93
  A 1.82 1.81 -84.2 0 1 311.56 413.71
  Z"
/>
<path fill="#ffffff" d="
  M 219.24 412.76
  A 1.78 1.78 0.0 0 1 216.98 413.83
  Q 169.53 397.31 96.31 371.66
  C 93.41 370.64 92.75 368.62 92.75 365.54
  Q 92.77 317.72 92.75 278.49
  Q 92.75 275.22 96.00 275.23
  Q 117.05 275.28 215.51 275.24
  Q 219.51 275.24 219.51 279.50
  Q 219.53 404.56 219.49 411.25
  Q 219.49 412.06 219.24 412.76
  Z"
/>
</svg>