<?xml version="1.0" encoding="UTF-8" standalone="no"?>
<!DOCTYPE svg PUBLIC "-//W3C//DTD SVG 1.1//EN" "http://www.w3.org/Graphics/SVG/1.1/DTD/svg11.dtd">
<svg xmlns="http://www.w3.org/2000/svg" version="1.1" viewBox="0.00 0.00 512.00 512.00" width="128" height="128">
<path fill="#ff3158" d="
  M 314.43 67.65
  Q 314.93 70.38 313.44 72.44
  Q 283.47 113.92 253.16 155.92
  Q 250.57 159.51 248.52 160.65
  Q 245.40 162.39 242.00 161.45
  Q 107.17 124.15 71.31 114.17
  Q 69.54 113.68 69.23 111.98
  Q 68.94 110.36 70.42 109.28
  Q 100.51 87.37 213.72 5.18
  Q 216.57 3.11 220.10 3.64
  Q 222.42 3.99 226.11 6.45
  Q 269.22 35.16 311.82 63.50
  Q 313.94 64.91 314.43 67.65
  Z"
/>
<path fill="#000000" d="
  M 350.12 33.46
  Q 351.65 32.65 353.13 33.73
  Q 383.26 55.67 496.34 138.26
  Q 499.19 140.34 499.76 143.87
  Q 500.14 146.19 498.94 150.45
  Q 484.83 200.34 470.91 249.63
  Q 470.22 252.08 467.77 253.40
  Q 465.32 254.71 462.90 253.92
  Q 414.17 238.12 364.85 222.15
  Q 360.64 220.78 358.92 219.18
  Q 356.30 216.74 356.15 213.21
  Q 350.26 73.31 348.75 36.08
  Q 348.68 34.24 350.12 33.46
  Z"
/>
<path fill="#ff3158" d="
  M 0.00 232.15
  L 0.00 229.57
  Q 1.18 225.43 3.41 223.66
  Q 53.07 184.26 85.77 158.26
  Q 89.22 155.53 92.49 157.09
  Q 94.35 157.98 97.33 162.10
  Q 125.81 201.41 156.93 244.20
  Q 159.43 247.63 158.75 251.45
  Q 158.37 253.57 155.42 258.04
  Q 74.24 381.02 60.40 402.18
  Q 59.12 404.14 57.76 404.24
  A 2.80 2.79 -11.0 0 1 54.88 402.31
  Q 27.47 317.12 0.00 232.15
  Z"
/>
<path fill="#000000" d="
  M 512.00 277.98
  L 512.00 279.73
  Q 484.59 364.21 457.20 448.69
  Q 455.26 454.67 447.99 454.95
  Q 348.20 458.75 346.40 458.87
  C 341.17 459.22 336.89 457.85 336.89 452.25
  Q 336.95 394.43 337.03 349.41
  C 337.04 343.35 338.76 340.23 344.14 338.21
  Q 421.05 309.25 508.36 276.34
  Q 510.77 275.43 512.00 277.98
  Z"
/>
<path fill="#000000" d="
  M 330.28 506.28
  Q 329.57 507.76 327.73 507.76
  Q 290.50 507.72 150.62 507.39
  Q 147.09 507.38 144.55 504.87
  Q 142.88 503.22 141.35 499.07
  Q 123.45 450.46 105.74 402.46
  Q 104.86 400.07 106.08 397.57
  Q 107.29 395.07 109.71 394.28
  Q 158.36 378.44 207.60 362.38
  Q 211.81 361.00 214.14 361.29
  Q 217.68 361.72 219.88 364.49
  Q 306.81 474.09 329.90 503.29
  Q 331.04 504.73 330.28 506.28
  Z"
/>
</svg>