<?xml version="1.0" encoding="UTF-8" standalone="no"?>
<!DOCTYPE svg PUBLIC "-//W3C//DTD SVG 1.1//EN" "http://www.w3.org/Graphics/SVG/1.1/DTD/svg11.dtd">
<svg xmlns="http://www.w3.org/2000/svg" version="1.1" viewBox="0.00 0.00 128.00 128.00" width="128" height="128">
<path fill="#000000" d="
  M 59.27 59.41
  Q 59.14 59.54 59.05 59.54
  Q 42.99 59.60 22.38 59.55
  A 1.64 1.61 67.2 0 1 21.23 59.07
  L 0.33 38.12
  A 0.53 0.52 45.4 0 1 0.33 37.37
  L 5.63 32.09
  A 0.47 0.47 0.0 0 1 6.31 32.09
  L 24.89 50.70
  A 1.23 1.23 0.0 0 0 25.76 51.06
  L 40.99 51.08
  A 1.69 1.69 0.0 0 0 42.18 48.20
  L 16.18 22.15
  A 0.39 0.39 0.0 0 1 16.18 21.61
  Q 17.27 20.46 18.84 18.88
  Q 20.42 17.30 21.57 16.22
  A 0.39 0.39 0.0 0 1 22.11 16.22
  L 48.18 42.20
  A 1.69 1.69 0.0 0 0 51.05 41.00
  L 51.03 25.78
  A 1.23 1.23 0.0 0 0 50.67 24.91
  L 32.04 6.34
  A 0.47 0.47 0.0 0 1 32.04 5.66
  L 37.32 0.36
  A 0.53 0.52 44.5 0 1 38.07 0.36
  L 59.03 21.25
  A 1.64 1.61 22.8 0 1 59.51 22.40
  Q 59.57 43.00 59.53 59.06
  Q 59.53 59.15 59.27 59.41
  Z"
/>
<path fill="#000000" d="
  M 109.17 18.90
  Q 110.75 20.48 111.83 21.63
  A 0.39 0.39 0.0 0 1 111.83 22.18
  L 85.80 48.21
  A 1.69 1.69 0.0 0 0 86.99 51.09
  L 102.22 51.09
  A 1.23 1.23 0.0 0 0 103.09 50.73
  L 121.70 32.13
  A 0.47 0.47 0.0 0 1 122.38 32.13
  L 127.67 37.42
  A 0.53 0.52 -45.4 0 1 127.67 38.17
  L 106.74 59.10
  A 1.64 1.61 -67.1 0 1 105.59 59.58
  Q 84.98 59.61 68.91 59.54
  Q 68.82 59.54 68.69 59.40
  Q 68.43 59.14 68.43 59.06
  Q 68.40 42.99 68.49 22.38
  A 1.64 1.61 -22.7 0 1 68.97 21.23
  L 89.96 0.36
  A 0.53 0.52 -44.5 0 1 90.71 0.36
  L 95.98 5.66
  A 0.47 0.47 0.0 0 1 95.98 6.34
  L 77.33 24.90
  A 1.23 1.23 0.0 0 0 76.97 25.77
  L 76.93 41.00
  A 1.69 1.69 0.0 0 0 79.80 42.20
  L 105.90 16.24
  A 0.39 0.39 0.0 0 1 106.45 16.23
  Q 107.60 17.32 109.17 18.90
  Z"
/>
<path fill="#000000" d="
  M 68.69 68.61
  Q 68.82 68.48 68.91 68.48
  Q 84.97 68.40 105.57 68.42
  A 1.64 1.61 67.1 0 1 106.72 68.90
  L 127.65 89.81
  A 0.53 0.52 45.3 0 1 127.65 90.56
  L 122.37 95.85
  A 0.47 0.47 0.0 0 1 121.69 95.85
  L 103.08 77.27
  A 1.23 1.23 0.0 0 0 102.21 76.91
  L 86.98 76.91
  A 1.69 1.69 0.0 0 0 85.80 79.79
  L 111.83 105.80
  A 0.39 0.39 0.0 0 1 111.83 106.34
  Q 110.75 107.49 109.17 109.07
  Q 107.60 110.65 106.45 111.74
  A 0.39 0.39 0.0 0 1 105.91 111.74
  L 79.81 85.80
  A 1.69 1.69 0.0 0 0 76.93 87.00
  L 76.98 102.23
  A 1.23 1.23 0.0 0 0 77.34 103.09
  L 95.99 121.64
  A 0.47 0.47 0.0 0 1 95.99 122.32
  L 90.72 127.62
  A 0.53 0.52 44.4 0 1 89.97 127.62
  L 68.99 106.77
  A 1.64 1.61 22.7 0 1 68.50 105.62
  Q 68.41 85.02 68.43 68.96
  Q 68.43 68.87 68.69 68.61
  Z"
/>
<path fill="#000000" d="
  M 59.34 68.65
  Q 59.60 68.91 59.60 69.00
  Q 59.61 85.06 59.50 105.66
  A 1.64 1.61 -22.7 0 1 59.02 106.81
  L 38.01 127.65
  A 0.53 0.52 -44.4 0 1 37.26 127.65
  L 32.00 122.34
  A 0.47 0.47 0.0 0 1 32.00 121.66
  L 50.66 103.13
  A 1.23 1.23 0.0 0 0 51.03 102.26
  L 51.09 87.04
  A 1.69 1.69 0.0 0 0 48.21 85.84
  L 22.09 111.76
  A 0.39 0.39 0.0 0 1 21.54 111.76
  Q 20.40 110.67 18.83 109.09
  Q 17.25 107.51 16.17 106.36
  A 0.39 0.39 0.0 0 1 16.17 105.81
  L 42.22 79.82
  A 1.69 1.69 0.0 0 0 41.04 76.94
  L 25.81 76.92
  A 1.23 1.23 0.0 0 0 24.94 77.28
  L 6.32 95.85
  A 0.47 0.47 0.0 0 1 5.64 95.85
  L 0.36 90.56
  A 0.53 0.52 -45.3 0 1 0.36 89.81
  L 21.31 68.91
  A 1.64 1.61 -67.1 0 1 22.46 68.43
  Q 43.06 68.42 59.12 68.51
  Q 59.21 68.52 59.34 68.65
  Z"
/>
</svg>