<?xml version="1.0" encoding="UTF-8" standalone="no"?>
<!DOCTYPE svg PUBLIC "-//W3C//DTD SVG 1.1//EN" "http://www.w3.org/Graphics/SVG/1.1/DTD/svg11.dtd">
<svg xmlns="http://www.w3.org/2000/svg" version="1.1" viewBox="0.00 0.00 192.00 192.00" width="128" height="128">
<g stroke-width="2.00" fill="none" stroke-linecap="butt">
<path stroke="#9eadff" vector-effect="non-scaling-stroke" d="
  M 59.72 82.01
  Q 60.40 82.38 60.78 81.53
  A 0.85 0.85 0.0 0 1 61.47 81.03
  L 62.73 80.89
  A 1.92 1.91 19.9 0 0 63.85 80.37
  L 66.92 77.46
  A 0.25 0.25 0.0 0 1 67.27 77.47
  L 67.45 77.67
  A 0.39 0.38 -39.1 0 1 67.39 78.23
  Q 62.15 82.24 58.52 86.67
  A 3.26 3.15 3.1 0 1 57.69 87.39
  Q 56.41 88.20 52.04 92.33
  A 1.28 1.27 34.4 0 1 50.67 92.58
  L 50.55 92.52
  A 0.53 0.53 0.0 0 1 50.41 91.69
  L 56.99 84.64
  A 0.07 0.06 -48.6 0 0 56.99 84.55
  L 56.77 84.38
  A 0.32 0.31 42.8 0 0 56.35 84.39
  L 46.89 93.35
  A 0.44 0.39 -20.9 0 0 46.77 93.58
  Q 46.56 95.32 46.34 102.48
  Q 46.26 104.95 44.95 106.98
  A 0.77 0.76 -53.3 0 0 45.09 107.97
  Q 45.58 108.39 45.73 108.71
  A 1.92 1.86 -54.6 0 1 45.88 109.70
  Q 44.98 118.03 46.18 126.49
  Q 46.33 127.55 45.46 131.16
  A 0.86 0.86 0.0 0 0 45.68 131.96
  Q 46.84 133.12 47.92 132.49
  A 3.66 3.46 23.5 0 1 49.11 132.06
  Q 54.97 131.04 63.93 132.00
  A 0.54 0.54 0.0 0 0 64.53 131.45
  Q 64.40 121.88 64.56 97.25
  C 64.60 90.34 64.16 86.00 68.45 81.17
  C 71.31 77.95 74.66 77.66 78.82 77.81
  Q 85.35 78.04 86.54 84.64
  A 0.71 0.70 -80.7 0 0 86.88 85.12
  Q 87.26 85.34 87.35 85.36
  A 0.62 0.23 -38.6 0 1 86.92 86.07
  Q 86.59 86.27 86.36 86.70
  A 0.35 0.35 0.0 0 0 86.75 87.20
  Q 87.12 87.11 87.44 87.42
  A 0.90 0.88 -68.4 0 1 87.71 88.06
  Q 87.71 91.30 88.08 93.36
  A 8.65 8.36 -49.7 0 1 88.20 95.20
  Q 88.04 98.54 87.06 117.50
  C 86.80 122.71 87.09 126.28 87.81 131.49
  A 1.07 1.05 -5.0 0 0 88.91 132.40
  L 101.04 131.84
  Q 101.09 131.84 101.14 131.84
  L 105.14 132.26
  A 0.89 0.89 0.0 0 0 106.11 131.28
  L 104.63 117.74
  A 1.43 1.21 -48.4 0 1 104.64 117.31
  Q 104.97 115.59 104.55 110.02
  C 104.20 105.41 104.31 97.13 105.72 91.26
  C 106.65 87.38 107.77 82.15 110.44 79.95
  C 113.11 77.76 117.75 75.54 121.76 77.20
  A 0.93 0.90 -85.5 0 1 122.31 77.87
  Q 122.51 78.83 123.97 79.62
  Q 125.15 80.25 123.62 82.01
  A 0.30 0.30 0.0 0 0 123.88 82.50
  L 125.12 82.36
  A 0.74 0.74 0.0 0 1 125.90 82.88
  L 126.89 86.09
  A 1.02 1.01 56.4 0 1 126.71 87.01
  L 126.25 87.59
  A 0.41 0.41 0.0 0 0 126.45 88.24
  Q 126.70 88.32 126.78 88.36
  A 1.30 1.29 -83.6 0 1 127.47 89.23
  Q 127.87 90.84 127.97 93.02
  Q 128.96 113.45 128.75 127.51
  Q 128.73 128.41 128.00 128.88
  A 0.71 0.70 -54.6 0 0 128.20 130.16
  Q 129.33 130.42 130.01 130.38
  Q 137.50 129.88 145.20 129.62
  A 1.93 1.87 -29.1 0 1 146.28 129.91
  Q 147.55 130.73 148.15 129.44
  Q 148.81 128.07 148.08 125.57
  C 147.68 124.18 148.89 123.25 147.98 122.04
  A 0.71 0.67 -66.2 0 1 147.84 121.65
  L 147.51 114.54
  A 0.31 0.31 0.0 0 0 147.02 114.31
  L 137.46 121.51
  A 0.27 0.26 -46.0 0 1 137.16 121.52
  L 137.15 121.51
  A 0.22 0.22 0.0 0 1 137.17 121.19
  L 145.86 113.87
  A 0.77 0.77 0.0 0 0 145.37 112.51
  Q 144.75 112.51 144.01 113.46
  A 0.11 0.10 40.2 0 1 143.85 113.47
  A 0.28 0.27 -33.4 0 1 143.91 113.20
  L 147.28 109.89
  A 1.16 1.15 68.0 0 0 147.63 109.06
  Q 147.76 93.43 146.38 80.78
  Q 145.97 76.97 144.21 71.98
  A 2.41 2.25 -77.6 0 0 143.73 71.17
  Q 142.16 69.42 140.64 67.08
  Q 139.53 65.37 134.08 61.18
  A 2.86 2.79 -20.0 0 0 132.91 60.65
  Q 126.05 59.30 119.23 60.38
  C 117.93 60.59 116.37 61.74 115.01 61.31
  A 0.55 0.55 0.0 0 0 114.51 61.39
  L 103.16 69.37
  A 0.44 0.44 0.0 0 1 102.49 69.16
  L 101.68 66.94
  A 1.77 1.69 -77.3 0 0 101.32 66.34
  C 95.63 60.09 88.82 58.39 80.41 59.16
  Q 78.02 59.38 73.95 61.49
  Q 71.60 62.70 67.66 64.36
  Q 65.48 65.27 64.71 68.03
  A 0.68 0.66 -81.9 0 1 64.07 68.52
  L 63.72 68.52
  A 0.43 0.42 88.6 0 1 63.30 68.11
  L 63.00 61.69
  A 0.63 0.62 83.9 0 0 62.27 61.10
  Q 60.67 61.36 60.01 60.50
  A 0.73 0.72 45.3 0 0 58.87 60.49
  L 58.50 60.94
  A 0.85 0.84 41.3 0 1 57.25 61.02
  Q 56.35 60.14 55.79 60.98
  A 0.86 0.86 0.0 0 1 55.11 61.37
  Q 54.42 61.39 54.11 61.08
  A 0.66 0.65 45.3 0 0 53.21 61.07
  L 52.93 61.34
  A 0.48 0.45 20.5 0 1 52.64 61.46
  L 45.73 61.78
  A 1.44 1.43 -5.4 0 0 44.37 63.42
  Q 44.81 66.50 43.89 67.79
  A 0.66 0.66 0.0 0 0 43.98 68.65
  Q 44.94 69.57 44.50 71.63
  C 44.36 72.26 43.93 72.56 43.84 72.94
  A 0.57 0.57 0.0 0 0 44.45 73.64
  Q 44.64 73.63 44.87 73.65
  A 0.39 0.39 0.0 0 1 45.14 74.28
  L 44.58 74.98
  A 0.97 0.94 61.2 0 0 44.38 75.72
  Q 44.76 78.30 45.63 79.10
  A 0.98 0.94 21.8 0 1 45.95 79.81
  L 45.99 88.34
  A 0.07 0.07 0.0 0 0 46.06 88.41
  L 46.31 88.40
  A 0.31 0.30 83.9 0 0 46.59 88.05
  C 46.16 85.33 48.65 84.73 49.98 83.04
  Q 51.57 81.01 54.70 77.85
  A 2.80 2.74 -12.1 0 0 55.31 76.93
  Q 56.52 74.03 59.53 72.19
  A 0.21 0.20 -83.4 0 1 59.78 72.51
  Q 57.17 75.21 55.68 77.85
  A 3.06 3.01 -7.7 0 1 55.10 78.60
  Q 51.32 82.24 48.43 87.44
  Q 47.79 88.61 46.82 88.69
  A 0.47 0.47 0.0 0 0 46.41 89.26
  Q 46.61 90.05 45.77 91.91
  A 0.42 0.42 0.0 0 0 46.45 92.37
  Q 52.65 85.86 55.40 82.59
  C 57.34 80.28 60.38 78.58 61.75 76.78
  Q 62.28 76.07 63.40 75.93
  A 0.35 0.35 0.0 0 1 63.74 76.48
  L 62.45 78.36
  A 0.65 0.63 -82.0 0 1 62.13 78.61
  Q 60.47 79.23 59.11 81.49
  A 0.44 0.41 59.7 0 1 58.33 81.26
  Q 58.33 81.19 58.47 81.06
  A 0.14 0.14 0.0 0 0 58.39 80.82
  Q 58.17 80.80 58.10 81.09
  Q 57.29 81.73 56.41 82.34
  A 0.14 0.14 0.0 0 0 56.38 82.54
  Q 56.46 82.65 56.69 82.67
  A 0.20 0.18 9.2 0 0 56.89 82.54
  Q 57.00 82.17 57.47 81.79
  A 0.48 0.47 -23.3 0 1 58.24 82.09
  Q 58.26 82.28 58.51 82.56
  A 0.23 0.23 0.0 0 0 58.91 82.46
  Q 58.92 82.38 58.93 82.36
  A 0.55 0.55 0.0 0 1 59.72 82.01"
/>
<path stroke="#9eadff" vector-effect="non-scaling-stroke" d="
  M 85.48 60.61
  A 1.74 1.73 -69.7 0 0 84.16 61.22
  L 81.19 64.72
  A 0.91 0.91 0.0 0 1 81.03 64.88
  Q 76.08 68.74 74.20 72.62
  A 3.79 3.74 86.8 0 1 72.86 74.14
  Q 71.63 74.94 70.70 76.24
  A 0.44 0.43 29.1 0 0 70.89 76.90
  L 71.15 76.97
  A 0.54 0.52 -60.3 0 0 71.67 76.82
  L 75.48 72.72
  A 0.72 0.70 -31.9 0 0 75.64 72.06
  Q 75.59 71.87 75.58 71.81
  A 1.12 1.10 65.6 0 1 75.94 70.83
  L 86.58 61.26
  A 0.37 0.37 0.0 0 0 86.33 60.61
  L 85.48 60.61"
/>
<path stroke="#9eadff" vector-effect="non-scaling-stroke" d="
  M 111.26 77.81
  Q 113.47 76.25 114.66 74.16
  A 3.52 3.35 -7.3 0 1 115.37 73.29
  Q 118.94 70.09 120.15 68.88
  Q 120.37 68.66 120.44 67.95
  A 0.69 0.65 -20.8 0 1 120.65 67.52
  L 126.36 62.11
  A 0.45 0.45 0.0 0 0 125.85 61.38
  C 124.58 62.01 123.56 63.74 122.29 64.80
  Q 116.29 69.78 111.98 73.99
  A 1.68 1.67 -20.5 0 0 111.48 75.08
  Q 111.42 75.93 110.61 77.18
  A 0.46 0.46 0.0 0 0 111.26 77.81"
/>
<path stroke="#9eadff" vector-effect="non-scaling-stroke" d="
  M 94.90 87.48
  L 106.22 77.18
  A 1.35 1.25 -68.8 0 1 106.88 76.86
  Q 107.16 76.81 107.20 76.80
  A 2.92 2.85 -72.9 0 0 108.50 76.09
  L 123.02 62.23
  A 0.03 0.02 58.3 0 0 123.02 62.20
  L 122.82 61.72
  A 0.20 0.20 0.0 0 0 122.49 61.65
  L 107.27 76.06
  A 1.24 1.19 18.6 0 1 106.57 76.39
  Q 105.09 76.56 104.08 78.07
  C 103.36 79.16 102.69 79.16 101.75 79.71
  A 6.74 6.65 5.6 0 0 100.17 80.99
  L 94.67 87.18
  A 0.03 0.02 -58.3 0 0 94.67 87.21
  L 94.86 87.48
  A 0.03 0.02 -35.8 0 0 94.90 87.48"
/>
<path stroke="#9eadff" vector-effect="non-scaling-stroke" d="
  M 118.15 73.67
  Q 118.19 73.40 118.97 72.72
  Q 122.83 69.35 130.51 63.29
  A 0.65 0.65 0.0 0 0 130.43 62.21
  L 130.07 62.00
  A 1.36 1.35 39.1 0 0 128.49 62.16
  Q 120.67 69.00 118.51 71.28
  C 117.30 72.56 115.58 73.31 114.25 74.86
  A 0.49 0.48 -85.4 0 0 114.87 75.59
  Q 117.40 74.03 117.57 74.07
  A 0.48 0.48 0.0 0 0 118.15 73.67"
/>
<path stroke="#9eadff" vector-effect="non-scaling-stroke" d="
  M 46.36 79.71
  A 0.53 0.52 73.1 0 0 47.08 80.10
  Q 47.91 79.74 47.66 78.87
  A 1.40 1.37 -31.0 0 1 48.01 77.52
  L 55.17 70.26
  A 2.61 2.05 -66.0 0 1 55.44 70.04
  Q 58.68 67.77 61.66 63.89
  A 1.19 1.14 -72.4 0 0 60.72 61.98
  C 59.64 62.06 58.88 63.06 58.23 63.61
  C 55.38 65.98 48.85 71.93 48.67 75.09
  A 1.08 1.07 76.8 0 1 48.13 75.97
  Q 45.91 77.24 46.36 79.71"
/>
<path stroke="#9eadff" vector-effect="non-scaling-stroke" d="
  M 106.03 74.90
  A 0.13 0.12 46.6 0 0 106.21 74.91
  L 119.81 62.87
  A 0.40 0.40 0.0 0 0 119.43 62.19
  L 117.88 62.67
  A 0.58 0.58 0.0 0 0 117.62 62.82
  L 108.84 71.19
  A 11.71 10.53 -89.7 0 0 107.74 72.40
  Q 107.63 72.59 105.84 74.53
  A 0.14 0.14 0.0 0 0 105.84 74.71
  L 106.03 74.90"
/>
<path stroke="#9eadff" vector-effect="non-scaling-stroke" d="
  M 92.32 73.39
  A 0.08 0.08 0.0 0 0 92.43 73.50
  L 99.42 68.59
  A 1.33 1.33 0.0 0 0 99.74 66.73
  L 99.06 65.77
  A 1.09 1.08 -40.4 0 0 97.39 65.64
  C 94.72 68.38 91.32 70.44 88.46 73.23
  C 86.93 74.72 84.92 74.77 84.16 76.89
  A 0.13 0.13 0.0 0 0 84.38 77.01
  Q 85.28 75.96 88.89 73.89
  Q 90.39 73.03 97.73 66.37
  A 0.33 0.33 0.0 0 1 98.22 66.42
  L 98.39 66.67
  A 0.98 0.98 0.0 0 1 98.20 68.01
  Q 94.33 71.10 92.32 73.39"
/>
<path stroke="#9eadff" vector-effect="non-scaling-stroke" d="
  M 54.02 75.52
  A 0.08 0.08 0.0 0 1 53.92 75.40
  L 61.01 68.35
  A 0.49 0.47 20.9 0 1 61.36 68.20
  Q 62.27 68.17 62.41 67.33
  A 0.69 0.68 -17.3 0 0 61.26 66.73
  L 50.10 77.30
  A 0.36 0.35 19.8 0 0 50.39 77.91
  L 50.82 77.87
  A 0.36 0.36 0.0 0 1 51.17 78.42
  Q 49.75 80.82 46.63 82.54
  A 0.28 0.28 0.0 0 0 46.53 82.94
  L 46.85 83.39
  A 0.26 0.26 0.0 0 0 47.22 83.45
  L 49.66 81.70
  A 0.80 0.60 -79.6 0 0 49.79 81.58
  L 54.90 75.90
  A 0.41 0.41 0.0 0 0 54.36 75.29
  L 54.02 75.52"
/>
<path stroke="#9eadff" vector-effect="non-scaling-stroke" d="
  M 131.94 72.77
  Q 132.09 72.36 132.89 71.50
  A 0.11 0.11 0.0 0 0 132.89 71.36
  L 132.68 71.15
  A 0.25 0.25 0.0 0 0 132.32 71.14
  L 125.37 77.72
  A 0.67 0.67 0.0 0 0 125.34 78.66
  L 125.53 78.86
  A 0.77 0.76 49.1 0 0 126.55 78.94
  Q 132.28 74.53 137.98 69.23
  Q 138.31 68.91 139.07 68.79
  A 0.51 0.50 -73.4 0 1 139.52 69.63
  Q 135.83 73.71 132.40 75.66
  A 1.12 1.04 -80.7 0 0 132.18 75.83
  L 127.58 80.00
  A 2.00 1.99 60.3 0 0 127.02 82.06
  L 127.60 83.96
  A 0.70 0.70 0.0 0 0 128.82 84.19
  L 133.23 78.55
  A 0.03 0.03 0.0 0 0 133.22 78.50
  L 133.01 78.40
  A 0.24 0.24 0.0 0 0 132.67 78.45
  Q 130.76 81.04 128.82 82.33
  A 0.63 0.63 0.0 0 1 127.94 81.46
  C 129.65 78.85 131.96 77.78 134.23 75.63
  Q 137.37 72.66 140.23 69.99
  A 0.52 0.51 -44.6 0 0 140.24 69.25
  Q 139.59 68.60 139.09 67.61
  A 0.57 0.57 0.0 0 0 138.19 67.45
  L 132.31 73.02
  A 0.23 0.23 0.0 0 1 131.94 72.77"
/>
<path stroke="#9eadff" vector-effect="non-scaling-stroke" d="
  M 134.61 90.88
  Q 132.95 92.30 131.64 93.87
  A 0.91 0.91 0.0 0 1 130.03 93.33
  Q 129.91 91.09 132.19 89.12
  A 0.75 0.73 -60.3 0 1 132.78 88.95
  Q 133.55 89.08 134.40 88.16
  Q 136.34 86.09 142.29 80.03
  A 1.73 1.73 0.0 0 1 143.33 79.52
  L 143.72 79.48
  A 0.80 0.78 4.2 0 0 144.40 78.91
  Q 144.57 78.33 144.25 77.78
  A 0.36 0.36 0.0 0 0 143.69 77.69
  L 136.42 84.58
  A 0.45 0.44 -42.7 0 1 135.79 84.56
  L 135.58 84.34
  A 0.37 0.37 0.0 0 0 135.06 84.33
  L 130.93 88.24
  A 0.43 0.42 -54.3 0 1 130.46 88.32
  L 130.18 88.19
  A 0.61 0.60 -53.5 0 1 130.04 87.24
  Q 131.97 85.23 131.98 85.20
  A 0.30 0.30 0.0 0 0 131.55 84.83
  Q 130.37 85.46 129.16 86.81
  A 0.92 0.90 -27.8 0 0 128.94 87.50
  L 129.86 95.87
  A 0.37 0.37 0.0 0 0 130.51 96.08
  L 133.00 93.28
  A 1.50 1.45 -17.5 0 0 133.32 92.69
  Q 133.64 91.51 134.61 90.88"
/>
<path stroke="#9eadff" vector-effect="non-scaling-stroke" d="
  M 135.59 93.33
  Q 135.44 93.41 135.13 93.38
  A 0.21 0.17 21.5 0 0 134.97 93.43
  L 129.62 98.82
  A 0.08 0.07 -45.0 0 0 129.61 98.93
  L 129.91 99.25
  A 0.18 0.17 46.2 0 0 130.15 99.26
  L 135.91 94.16
  A 1.29 1.27 69.1 0 0 136.33 93.21
  Q 136.31 91.96 137.52 91.00
  Q 141.26 88.04 143.40 85.25
  A 0.94 0.93 -55.4 0 1 144.61 85.02
  L 144.64 85.04
  A 0.72 0.71 36.4 0 1 144.81 86.13
  Q 142.74 88.48 140.30 90.51
  Q 138.93 91.64 135.84 96.55
  Q 134.46 98.75 130.41 100.49
  A 0.59 0.58 78.7 0 0 130.06 101.03
  L 130.06 102.36
  A 0.11 0.11 0.0 0 0 130.24 102.45
  Q 135.28 98.78 136.44 96.92
  Q 140.42 90.55 145.31 87.06
  A 1.49 1.48 71.1 0 0 145.94 85.77
  L 145.87 84.15
  A 0.66 0.66 0.0 0 0 144.79 83.68
  L 135.40 91.62
  A 0.60 0.49 84.1 0 0 135.25 91.85
  Q 135.00 92.50 135.35 92.53
  A 0.46 0.41 31.5 0 1 135.59 93.33"
/>
<path stroke="#9eadff" vector-effect="non-scaling-stroke" d="
  M 62.38 85.15
  L 61.89 85.34
  A 1.93 1.91 9.4 0 0 61.07 85.92
  Q 59.12 88.31 56.54 89.21
  A 1.22 1.10 10.0 0 0 56.11 89.48
  L 46.81 98.56
  A 0.45 0.45 0.0 0 0 46.80 99.19
  L 47.03 99.43
  A 0.66 0.66 0.0 0 0 47.97 99.45
  L 51.26 96.25
  A 2.53 2.48 10.0 0 1 52.02 95.73
  Q 52.24 95.70 53.01 95.26
  Q 53.89 94.75 55.38 93.10
  Q 59.29 88.77 62.71 85.69
  A 0.32 0.32 0.0 0 0 62.38 85.15"
/>
<path stroke="#9eadff" vector-effect="non-scaling-stroke" d="
  M 92.35 104.24
  C 96.21 101.82 103.76 96.50 103.95 92.59
  A 0.10 0.09 -20.8 0 0 103.79 92.52
  L 91.95 103.73
  A 0.33 0.32 7.1 0 0 92.35 104.24"
/>
<path stroke="#9eadff" vector-effect="non-scaling-stroke" d="
  M 62.52 94.00
  L 60.79 96.15
  A 0.98 0.93 1.4 0 1 60.58 96.34
  Q 57.49 98.24 53.97 101.94
  Q 52.68 103.30 50.86 103.76
  A 1.76 1.66 16.2 0 0 50.14 104.13
  Q 47.54 106.41 46.56 108.27
  A 0.26 0.25 -56.8 0 0 46.62 108.59
  L 46.84 108.77
  A 0.52 0.51 -57.1 0 0 47.62 108.60
  Q 48.19 107.51 49.24 106.55
  A 1.01 0.99 -64.9 0 1 49.97 106.28
  Q 51.08 106.32 53.27 104.27
  Q 60.12 97.84 62.65 95.17
  Q 62.93 94.88 62.92 94.15
  A 0.23 0.22 64.9 0 0 62.52 94.00"
/>
<path stroke="#9eadff" vector-effect="non-scaling-stroke" d="
  M 51.98 116.66
  Q 54.54 113.81 54.90 112.74
  A 3.56 3.47 73.9 0 1 55.51 111.60
  L 63.19 102.06
  A 0.95 0.90 70.1 0 0 63.37 101.65
  L 63.64 100.09
  A 0.35 0.35 0.0 0 0 63.30 99.68
  L 62.92 99.68
  A 0.31 0.31 0.0 0 0 62.61 100.03
  C 62.92 102.47 61.70 102.59 60.54 103.96
  Q 53.50 112.28 46.36 118.36
  A 0.37 0.37 0.0 0 0 46.54 119.01
  Q 46.81 119.05 47.21 118.63
  Q 48.06 117.73 48.18 117.46
  A 1.11 1.10 85.2 0 1 48.58 116.98
  L 52.86 114.13
  A 0.09 0.09 0.0 0 1 52.98 114.26
  Q 50.16 118.12 48.50 119.29
  A 2.25 2.22 -6.4 0 0 47.72 120.25
  L 46.50 123.04
  A 0.06 0.06 0.0 0 0 46.54 123.12
  L 46.75 123.22
  A 0.28 0.27 24.2 0 0 47.11 123.09
  Q 48.27 120.75 50.40 119.06
  A 0.82 0.81 -53.0 0 1 51.20 118.94
  Q 51.30 118.98 51.35 118.99
  A 1.26 1.24 24.3 0 0 52.32 118.63
  L 60.44 110.44
  A 0.64 0.63 50.5 0 0 60.51 109.63
  L 60.25 109.27
  A 0.39 0.38 -39.8 0 0 59.66 109.22
  Q 56.06 112.80 53.61 115.84
  Q 52.82 116.82 52.27 117.07
  A 0.26 0.25 -80.7 0 1 51.98 116.66"
/>
<path stroke="#9eadff" vector-effect="non-scaling-stroke" d="
  M 130.87 113.20
  A 0.68 0.67 -8.9 0 0 131.49 112.35
  Q 131.28 111.63 131.36 110.95
  A 1.66 1.65 72.5 0 1 131.90 109.90
  Q 136.46 105.83 140.74 100.42
  A 0.31 0.30 88.6 0 0 140.30 100.00
  L 130.36 108.81
  A 1.08 1.08 0.0 0 0 130.00 109.66
  L 130.15 112.85
  A 0.38 0.37 -2.2 0 0 130.55 113.21
  L 130.87 113.20"
/>
<path stroke="#9eadff" vector-effect="non-scaling-stroke" d="
  M 137.05 113.22
  Q 137.17 113.39 137.30 113.38
  A 0.66 0.59 21.7 0 0 137.52 113.30
  C 140.20 111.50 141.93 109.34 144.75 107.36
  Q 146.04 106.45 147.35 104.64
  A 0.03 0.02 58.3 0 0 147.35 104.61
  L 147.01 104.13
  A 0.11 0.11 0.0 0 0 146.84 104.11
  L 137.93 112.54
  A 0.65 0.65 0.0 0 1 137.32 112.70
  Q 136.31 112.45 135.14 113.63
  Q 133.39 115.40 131.78 117.28
  A 0.71 0.71 0.0 0 1 130.81 117.38
  L 130.79 117.37
  A 0.60 0.60 0.0 0 1 130.73 116.51
  L 137.99 108.38
  A 0.19 0.18 -50.2 0 0 137.97 108.11
  L 137.75 107.93
  A 0.03 0.02 31.7 0 0 137.72 107.93
  L 130.38 115.23
  A 1.39 1.38 -26.0 0 0 129.99 116.35
  L 130.23 118.58
  A 0.39 0.39 0.0 0 0 130.89 118.81
  L 136.82 113.19
  A 0.15 0.15 0.0 0 1 137.05 113.22"
/>
</g>
<path fill="#3e5bfe" d="
  M 192.00 0.00
  L 192.00 192.00
  L 0.00 192.00
  L 0.00 0.00
  L 192.00 0.00
  Z
  M 59.72 82.01
  Q 60.40 82.38 60.78 81.53
  A 0.85 0.85 0.0 0 1 61.47 81.03
  L 62.73 80.89
  A 1.92 1.91 19.9 0 0 63.85 80.37
  L 66.92 77.46
  A 0.25 0.25 0.0 0 1 67.27 77.47
  L 67.45 77.67
  A 0.39 0.38 -39.1 0 1 67.39 78.23
  Q 62.15 82.24 58.52 86.67
  A 3.26 3.15 3.1 0 1 57.69 87.39
  Q 56.41 88.20 52.04 92.33
  A 1.28 1.27 34.4 0 1 50.67 92.58
  L 50.55 92.52
  A 0.53 0.53 0.0 0 1 50.41 91.69
  L 56.99 84.64
  A 0.07 0.06 -48.6 0 0 56.99 84.55
  L 56.77 84.38
  A 0.32 0.31 42.8 0 0 56.35 84.39
  L 46.89 93.35
  A 0.44 0.39 -20.9 0 0 46.77 93.58
  Q 46.56 95.32 46.34 102.48
  Q 46.26 104.95 44.95 106.98
  A 0.77 0.76 -53.3 0 0 45.09 107.97
  Q 45.58 108.39 45.73 108.71
  A 1.92 1.86 -54.6 0 1 45.88 109.70
  Q 44.98 118.03 46.18 126.49
  Q 46.33 127.55 45.46 131.16
  A 0.86 0.86 0.0 0 0 45.68 131.96
  Q 46.84 133.12 47.92 132.49
  A 3.66 3.46 23.5 0 1 49.11 132.06
  Q 54.97 131.04 63.93 132.00
  A 0.54 0.54 0.0 0 0 64.53 131.45
  Q 64.40 121.88 64.56 97.25
  C 64.60 90.34 64.16 86.00 68.45 81.17
  C 71.31 77.95 74.66 77.66 78.82 77.81
  Q 85.35 78.04 86.54 84.64
  A 0.71 0.70 -80.7 0 0 86.88 85.12
  Q 87.26 85.34 87.35 85.36
  A 0.62 0.23 -38.6 0 1 86.92 86.07
  Q 86.59 86.27 86.36 86.70
  A 0.35 0.35 0.0 0 0 86.75 87.20
  Q 87.12 87.11 87.44 87.42
  A 0.90 0.88 -68.4 0 1 87.71 88.06
  Q 87.71 91.30 88.08 93.36
  A 8.65 8.36 -49.7 0 1 88.20 95.20
  Q 88.04 98.54 87.06 117.50
  C 86.80 122.71 87.09 126.28 87.81 131.49
  A 1.07 1.05 -5.0 0 0 88.91 132.40
  L 101.04 131.84
  Q 101.09 131.84 101.14 131.84
  L 105.14 132.26
  A 0.89 0.89 0.0 0 0 106.11 131.28
  L 104.63 117.74
  A 1.43 1.21 -48.4 0 1 104.64 117.31
  Q 104.97 115.59 104.55 110.02
  C 104.20 105.41 104.31 97.13 105.72 91.26
  C 106.65 87.38 107.77 82.15 110.44 79.95
  C 113.11 77.76 117.75 75.54 121.76 77.20
  A 0.93 0.90 -85.5 0 1 122.31 77.87
  Q 122.51 78.83 123.97 79.62
  Q 125.15 80.25 123.62 82.01
  A 0.30 0.30 0.0 0 0 123.88 82.50
  L 125.12 82.36
  A 0.74 0.74 0.0 0 1 125.90 82.88
  L 126.89 86.09
  A 1.02 1.01 56.4 0 1 126.71 87.01
  L 126.25 87.59
  A 0.41 0.41 0.0 0 0 126.45 88.24
  Q 126.70 88.32 126.78 88.36
  A 1.30 1.29 -83.6 0 1 127.47 89.23
  Q 127.87 90.84 127.97 93.02
  Q 128.96 113.45 128.75 127.51
  Q 128.73 128.41 128.00 128.88
  A 0.71 0.70 -54.6 0 0 128.20 130.16
  Q 129.33 130.42 130.01 130.38
  Q 137.50 129.88 145.20 129.62
  A 1.93 1.87 -29.1 0 1 146.28 129.91
  Q 147.55 130.73 148.15 129.44
  Q 148.81 128.07 148.08 125.57
  C 147.68 124.18 148.89 123.25 147.98 122.04
  A 0.71 0.67 -66.2 0 1 147.84 121.65
  L 147.51 114.54
  A 0.31 0.31 0.0 0 0 147.02 114.31
  L 137.46 121.51
  A 0.27 0.26 -46.0 0 1 137.16 121.52
  L 137.15 121.51
  A 0.22 0.22 0.0 0 1 137.17 121.19
  L 145.86 113.87
  A 0.77 0.77 0.0 0 0 145.37 112.51
  Q 144.75 112.51 144.01 113.46
  A 0.11 0.10 40.2 0 1 143.85 113.47
  A 0.28 0.27 -33.4 0 1 143.91 113.20
  L 147.28 109.89
  A 1.16 1.15 68.0 0 0 147.63 109.06
  Q 147.76 93.43 146.38 80.78
  Q 145.97 76.97 144.21 71.98
  A 2.41 2.25 -77.6 0 0 143.73 71.17
  Q 142.16 69.42 140.64 67.08
  Q 139.53 65.37 134.08 61.18
  A 2.86 2.79 -20.0 0 0 132.91 60.65
  Q 126.05 59.30 119.23 60.38
  C 117.93 60.59 116.37 61.74 115.01 61.31
  A 0.55 0.55 0.0 0 0 114.51 61.39
  L 103.16 69.37
  A 0.44 0.44 0.0 0 1 102.49 69.16
  L 101.68 66.94
  A 1.77 1.69 -77.3 0 0 101.32 66.34
  C 95.63 60.09 88.82 58.39 80.41 59.16
  Q 78.02 59.38 73.95 61.49
  Q 71.60 62.70 67.66 64.36
  Q 65.48 65.27 64.71 68.03
  A 0.68 0.66 -81.9 0 1 64.07 68.52
  L 63.72 68.52
  A 0.43 0.42 88.6 0 1 63.30 68.11
  L 63.00 61.69
  A 0.63 0.62 83.9 0 0 62.27 61.10
  Q 60.67 61.36 60.01 60.50
  A 0.73 0.72 45.3 0 0 58.87 60.49
  L 58.50 60.94
  A 0.85 0.84 41.3 0 1 57.25 61.02
  Q 56.35 60.14 55.79 60.98
  A 0.86 0.86 0.0 0 1 55.11 61.37
  Q 54.42 61.39 54.11 61.08
  A 0.66 0.65 45.3 0 0 53.21 61.07
  L 52.93 61.34
  A 0.48 0.45 20.5 0 1 52.64 61.46
  L 45.73 61.78
  A 1.44 1.43 -5.4 0 0 44.37 63.42
  Q 44.81 66.50 43.89 67.79
  A 0.66 0.66 0.0 0 0 43.98 68.65
  Q 44.94 69.57 44.50 71.63
  C 44.36 72.26 43.93 72.56 43.84 72.94
  A 0.57 0.57 0.0 0 0 44.45 73.64
  Q 44.64 73.63 44.87 73.65
  A 0.39 0.39 0.0 0 1 45.14 74.28
  L 44.58 74.98
  A 0.97 0.94 61.2 0 0 44.38 75.72
  Q 44.76 78.30 45.63 79.10
  A 0.98 0.94 21.8 0 1 45.95 79.81
  L 45.99 88.34
  A 0.07 0.07 0.0 0 0 46.06 88.41
  L 46.31 88.40
  A 0.31 0.30 83.9 0 0 46.59 88.05
  C 46.16 85.33 48.65 84.73 49.98 83.04
  Q 51.57 81.01 54.70 77.85
  A 2.80 2.74 -12.1 0 0 55.31 76.93
  Q 56.52 74.03 59.53 72.19
  A 0.21 0.20 -83.4 0 1 59.78 72.51
  Q 57.17 75.21 55.68 77.85
  A 3.06 3.01 -7.7 0 1 55.10 78.60
  Q 51.32 82.24 48.43 87.44
  Q 47.79 88.61 46.82 88.69
  A 0.47 0.47 0.0 0 0 46.41 89.26
  Q 46.61 90.05 45.77 91.91
  A 0.42 0.42 0.0 0 0 46.45 92.37
  Q 52.65 85.86 55.40 82.59
  C 57.34 80.28 60.38 78.58 61.75 76.78
  Q 62.28 76.07 63.40 75.93
  A 0.35 0.35 0.0 0 1 63.74 76.48
  L 62.45 78.36
  A 0.65 0.63 -82.0 0 1 62.13 78.61
  Q 60.47 79.23 59.11 81.49
  A 0.44 0.41 59.7 0 1 58.33 81.26
  Q 58.33 81.19 58.47 81.06
  A 0.14 0.14 0.0 0 0 58.39 80.82
  Q 58.17 80.80 58.10 81.09
  Q 57.29 81.73 56.41 82.34
  A 0.14 0.14 0.0 0 0 56.38 82.54
  Q 56.46 82.65 56.69 82.67
  A 0.20 0.18 9.2 0 0 56.89 82.54
  Q 57.00 82.17 57.47 81.79
  A 0.48 0.47 -23.3 0 1 58.24 82.09
  Q 58.26 82.28 58.51 82.56
  A 0.23 0.23 0.0 0 0 58.91 82.46
  Q 58.92 82.38 58.93 82.36
  A 0.55 0.55 0.0 0 1 59.72 82.01
  Z"
/>
<path fill="#fefeff" d="
  M 58.93 82.36
  Q 58.92 82.38 58.91 82.46
  A 0.23 0.23 0.0 0 1 58.51 82.56
  Q 58.26 82.28 58.24 82.09
  A 0.48 0.47 -23.3 0 0 57.47 81.79
  Q 57.00 82.17 56.89 82.54
  A 0.20 0.18 9.2 0 1 56.69 82.67
  Q 56.46 82.65 56.38 82.54
  A 0.14 0.14 0.0 0 1 56.41 82.34
  Q 57.29 81.73 58.10 81.09
  Q 58.17 80.80 58.39 80.82
  A 0.14 0.14 0.0 0 1 58.47 81.06
  Q 58.33 81.19 58.33 81.26
  A 0.44 0.41 59.7 0 0 59.11 81.49
  Q 60.47 79.23 62.13 78.61
  A 0.65 0.63 -82.0 0 0 62.45 78.36
  L 63.74 76.48
  A 0.35 0.35 0.0 0 0 63.40 75.93
  Q 62.28 76.07 61.75 76.78
  C 60.38 78.58 57.34 80.28 55.40 82.59
  Q 52.65 85.86 46.45 92.37
  A 0.42 0.42 0.0 0 1 45.77 91.91
  Q 46.61 90.05 46.41 89.26
  A 0.47 0.47 0.0 0 1 46.82 88.69
  Q 47.79 88.61 48.43 87.44
  Q 51.32 82.24 55.10 78.60
  A 3.06 3.01 -7.7 0 0 55.68 77.85
  Q 57.17 75.21 59.78 72.51
  A 0.21 0.20 -83.4 0 0 59.53 72.19
  Q 56.52 74.03 55.31 76.93
  A 2.80 2.74 -12.1 0 1 54.70 77.85
  Q 51.57 81.01 49.98 83.04
  C 48.65 84.73 46.16 85.33 46.59 88.05
  A 0.31 0.30 83.9 0 1 46.31 88.40
  L 46.06 88.41
  A 0.07 0.07 0.0 0 1 45.99 88.34
  L 45.95 79.81
  A 0.98 0.94 21.8 0 0 45.63 79.10
  Q 44.76 78.30 44.38 75.72
  A 0.97 0.94 61.2 0 1 44.58 74.98
  L 45.14 74.28
  A 0.39 0.39 0.0 0 0 44.87 73.65
  Q 44.64 73.63 44.45 73.64
  A 0.57 0.57 0.0 0 1 43.84 72.94
  C 43.93 72.56 44.36 72.26 44.50 71.63
  Q 44.94 69.57 43.98 68.65
  A 0.66 0.66 0.0 0 1 43.89 67.79
  Q 44.81 66.50 44.37 63.42
  A 1.44 1.43 -5.4 0 1 45.73 61.78
  L 52.64 61.46
  A 0.48 0.45 20.5 0 0 52.93 61.34
  L 53.21 61.07
  A 0.66 0.65 45.3 0 1 54.11 61.08
  Q 54.42 61.39 55.11 61.37
  A 0.86 0.86 0.0 0 0 55.79 60.98
  Q 56.35 60.14 57.25 61.02
  A 0.85 0.84 41.3 0 0 58.50 60.94
  L 58.87 60.49
  A 0.73 0.72 45.3 0 1 60.01 60.50
  Q 60.67 61.36 62.27 61.10
  A 0.63 0.62 83.9 0 1 63.00 61.69
  L 63.30 68.11
  A 0.43 0.42 88.6 0 0 63.72 68.52
  L 64.07 68.52
  A 0.68 0.66 -81.9 0 0 64.71 68.03
  Q 65.48 65.27 67.66 64.36
  Q 71.60 62.70 73.95 61.49
  Q 78.02 59.38 80.41 59.16
  C 88.82 58.39 95.63 60.09 101.32 66.34
  A 1.77 1.69 -77.3 0 1 101.68 66.94
  L 102.49 69.16
  A 0.44 0.44 0.0 0 0 103.16 69.37
  L 114.51 61.39
  A 0.55 0.55 0.0 0 1 115.01 61.31
  C 116.37 61.74 117.93 60.59 119.23 60.38
  Q 126.05 59.30 132.91 60.65
  A 2.86 2.79 -20.0 0 1 134.08 61.18
  Q 139.53 65.37 140.64 67.08
  Q 142.16 69.42 143.73 71.17
  A 2.41 2.25 -77.6 0 1 144.21 71.98
  Q 145.97 76.97 146.38 80.78
  Q 147.76 93.43 147.63 109.06
  A 1.16 1.15 68.0 0 1 147.28 109.89
  L 143.91 113.20
  A 0.28 0.27 -33.4 0 0 143.85 113.47
  A 0.11 0.10 40.2 0 0 144.01 113.46
  Q 144.75 112.51 145.37 112.51
  A 0.77 0.77 0.0 0 1 145.86 113.87
  L 137.17 121.19
  A 0.22 0.22 0.0 0 0 137.15 121.51
  L 137.16 121.52
  A 0.27 0.26 -46.0 0 0 137.46 121.51
  L 147.02 114.31
  A 0.31 0.31 0.0 0 1 147.51 114.54
  L 147.84 121.65
  A 0.71 0.67 -66.2 0 0 147.98 122.04
  C 148.89 123.25 147.68 124.18 148.08 125.57
  Q 148.81 128.07 148.15 129.44
  Q 147.55 130.73 146.28 129.91
  A 1.93 1.87 -29.1 0 0 145.20 129.62
  Q 137.50 129.88 130.01 130.38
  Q 129.33 130.42 128.20 130.16
  A 0.71 0.70 -54.6 0 1 128.00 128.88
  Q 128.73 128.41 128.75 127.51
  Q 128.96 113.45 127.97 93.02
  Q 127.87 90.84 127.47 89.23
  A 1.30 1.29 -83.6 0 0 126.78 88.36
  Q 126.70 88.32 126.45 88.24
  A 0.41 0.41 0.0 0 1 126.25 87.59
  L 126.71 87.01
  A 1.02 1.01 56.4 0 0 126.89 86.09
  L 125.90 82.88
  A 0.74 0.74 0.0 0 0 125.12 82.36
  L 123.88 82.50
  A 0.30 0.30 0.0 0 1 123.62 82.01
  Q 125.15 80.25 123.97 79.62
  Q 122.51 78.83 122.31 77.87
  A 0.93 0.90 -85.5 0 0 121.76 77.20
  C 117.75 75.54 113.11 77.76 110.44 79.95
  C 107.77 82.15 106.65 87.38 105.72 91.26
  C 104.31 97.13 104.20 105.41 104.55 110.02
  Q 104.97 115.59 104.64 117.31
  A 1.43 1.21 -48.4 0 0 104.63 117.74
  L 106.11 131.28
  A 0.89 0.89 0.0 0 1 105.14 132.26
  L 101.14 131.84
  Q 101.09 131.84 101.04 131.84
  L 88.91 132.40
  A 1.07 1.05 -5.0 0 1 87.81 131.49
  C 87.09 126.28 86.80 122.71 87.06 117.50
  Q 88.04 98.54 88.20 95.20
  A 8.65 8.36 -49.7 0 0 88.08 93.36
  Q 87.71 91.30 87.71 88.06
  A 0.90 0.88 -68.4 0 0 87.44 87.42
  Q 87.12 87.11 86.75 87.20
  A 0.35 0.35 0.0 0 1 86.36 86.70
  Q 86.59 86.27 86.92 86.07
  A 0.62 0.23 -38.6 0 0 87.35 85.36
  Q 87.26 85.34 86.88 85.12
  A 0.71 0.70 -80.7 0 1 86.54 84.64
  Q 85.35 78.04 78.82 77.81
  C 74.66 77.66 71.31 77.95 68.45 81.17
  C 64.16 86.00 64.60 90.34 64.56 97.25
  Q 64.40 121.88 64.53 131.45
  A 0.54 0.54 0.0 0 1 63.93 132.00
  Q 54.97 131.04 49.11 132.06
  A 3.66 3.46 23.5 0 0 47.92 132.49
  Q 46.84 133.12 45.68 131.96
  A 0.86 0.86 0.0 0 1 45.46 131.16
  Q 46.33 127.55 46.18 126.49
  Q 44.98 118.03 45.88 109.70
  A 1.92 1.86 -54.6 0 0 45.73 108.71
  Q 45.58 108.39 45.09 107.97
  A 0.77 0.76 -53.3 0 1 44.95 106.98
  Q 46.26 104.95 46.34 102.48
  Q 46.56 95.32 46.77 93.58
  A 0.44 0.39 -20.9 0 1 46.89 93.35
  L 56.35 84.39
  A 0.32 0.31 42.8 0 1 56.77 84.38
  L 56.99 84.55
  A 0.07 0.06 -48.6 0 1 56.99 84.64
  L 50.41 91.69
  A 0.53 0.53 0.0 0 0 50.55 92.52
  L 50.67 92.58
  A 1.28 1.27 34.4 0 0 52.04 92.33
  Q 56.41 88.20 57.69 87.39
  A 3.26 3.15 3.1 0 0 58.52 86.67
  Q 62.15 82.24 67.39 78.23
  A 0.39 0.38 -39.1 0 0 67.45 77.67
  L 67.27 77.47
  A 0.25 0.25 0.0 0 0 66.92 77.46
  L 63.85 80.37
  A 1.92 1.91 19.9 0 1 62.73 80.89
  L 61.47 81.03
  A 0.85 0.85 0.0 0 0 60.78 81.53
  Q 60.40 82.38 59.72 82.01
  A 0.55 0.55 0.0 0 0 58.93 82.36
  Z
  M 85.48 60.61
  A 1.74 1.73 -69.7 0 0 84.16 61.22
  L 81.19 64.72
  A 0.91 0.91 0.0 0 1 81.03 64.88
  Q 76.08 68.74 74.20 72.62
  A 3.79 3.74 86.8 0 1 72.86 74.14
  Q 71.63 74.94 70.70 76.24
  A 0.44 0.43 29.1 0 0 70.89 76.90
  L 71.15 76.97
  A 0.54 0.52 -60.3 0 0 71.67 76.82
  L 75.48 72.72
  A 0.72 0.70 -31.9 0 0 75.64 72.06
  Q 75.59 71.87 75.58 71.81
  A 1.12 1.10 65.6 0 1 75.94 70.83
  L 86.58 61.26
  A 0.37 0.37 0.0 0 0 86.33 60.61
  L 85.48 60.61
  Z
  M 111.26 77.81
  Q 113.47 76.25 114.66 74.16
  A 3.52 3.35 -7.3 0 1 115.37 73.29
  Q 118.94 70.09 120.15 68.88
  Q 120.37 68.66 120.44 67.95
  A 0.69 0.65 -20.8 0 1 120.65 67.52
  L 126.36 62.11
  A 0.45 0.45 0.0 0 0 125.85 61.38
  C 124.58 62.01 123.56 63.74 122.29 64.80
  Q 116.29 69.78 111.98 73.99
  A 1.68 1.67 -20.5 0 0 111.48 75.08
  Q 111.42 75.93 110.61 77.18
  A 0.46 0.46 0.0 0 0 111.26 77.81
  Z
  M 94.90 87.48
  L 106.22 77.18
  A 1.35 1.25 -68.8 0 1 106.88 76.86
  Q 107.16 76.81 107.20 76.80
  A 2.92 2.85 -72.9 0 0 108.50 76.09
  L 123.02 62.23
  A 0.03 0.02 58.3 0 0 123.02 62.20
  L 122.82 61.72
  A 0.20 0.20 0.0 0 0 122.49 61.65
  L 107.27 76.06
  A 1.24 1.19 18.6 0 1 106.57 76.39
  Q 105.09 76.56 104.08 78.07
  C 103.36 79.16 102.69 79.16 101.75 79.71
  A 6.74 6.65 5.6 0 0 100.17 80.99
  L 94.67 87.18
  A 0.03 0.02 -58.3 0 0 94.67 87.21
  L 94.86 87.48
  A 0.03 0.02 -35.8 0 0 94.90 87.48
  Z
  M 118.15 73.67
  Q 118.19 73.40 118.97 72.72
  Q 122.83 69.35 130.51 63.29
  A 0.65 0.65 0.0 0 0 130.43 62.21
  L 130.07 62.00
  A 1.36 1.35 39.1 0 0 128.49 62.16
  Q 120.67 69.00 118.51 71.28
  C 117.30 72.56 115.58 73.31 114.25 74.86
  A 0.49 0.48 -85.4 0 0 114.87 75.59
  Q 117.40 74.03 117.57 74.07
  A 0.48 0.48 0.0 0 0 118.15 73.67
  Z
  M 46.36 79.71
  A 0.53 0.52 73.1 0 0 47.08 80.10
  Q 47.91 79.74 47.66 78.87
  A 1.40 1.37 -31.0 0 1 48.01 77.52
  L 55.17 70.26
  A 2.61 2.05 -66.0 0 1 55.44 70.04
  Q 58.68 67.77 61.66 63.89
  A 1.19 1.14 -72.4 0 0 60.72 61.98
  C 59.64 62.06 58.88 63.06 58.23 63.61
  C 55.38 65.98 48.85 71.93 48.67 75.09
  A 1.08 1.07 76.8 0 1 48.13 75.97
  Q 45.91 77.24 46.36 79.71
  Z
  M 106.03 74.90
  A 0.13 0.12 46.6 0 0 106.21 74.91
  L 119.81 62.87
  A 0.40 0.40 0.0 0 0 119.43 62.19
  L 117.88 62.67
  A 0.58 0.58 0.0 0 0 117.62 62.82
  L 108.84 71.19
  A 11.71 10.53 -89.7 0 0 107.74 72.40
  Q 107.63 72.59 105.84 74.53
  A 0.14 0.14 0.0 0 0 105.84 74.71
  L 106.03 74.90
  Z
  M 92.32 73.39
  A 0.08 0.08 0.0 0 0 92.43 73.50
  L 99.42 68.59
  A 1.33 1.33 0.0 0 0 99.74 66.73
  L 99.06 65.77
  A 1.09 1.08 -40.4 0 0 97.39 65.64
  C 94.72 68.38 91.32 70.44 88.46 73.23
  C 86.93 74.72 84.92 74.77 84.16 76.89
  A 0.13 0.13 0.0 0 0 84.38 77.01
  Q 85.28 75.96 88.89 73.89
  Q 90.39 73.03 97.73 66.37
  A 0.33 0.33 0.0 0 1 98.22 66.42
  L 98.39 66.67
  A 0.98 0.98 0.0 0 1 98.20 68.01
  Q 94.33 71.10 92.32 73.39
  Z
  M 54.02 75.52
  A 0.08 0.08 0.0 0 1 53.92 75.40
  L 61.01 68.35
  A 0.49 0.47 20.9 0 1 61.36 68.20
  Q 62.27 68.17 62.41 67.33
  A 0.69 0.68 -17.3 0 0 61.26 66.73
  L 50.10 77.30
  A 0.36 0.35 19.8 0 0 50.39 77.91
  L 50.82 77.87
  A 0.36 0.36 0.0 0 1 51.17 78.42
  Q 49.75 80.82 46.63 82.54
  A 0.28 0.28 0.0 0 0 46.53 82.94
  L 46.85 83.39
  A 0.26 0.26 0.0 0 0 47.22 83.45
  L 49.66 81.70
  A 0.80 0.60 -79.6 0 0 49.79 81.58
  L 54.90 75.90
  A 0.41 0.41 0.0 0 0 54.36 75.29
  L 54.02 75.52
  Z
  M 131.94 72.77
  Q 132.09 72.36 132.89 71.50
  A 0.11 0.11 0.0 0 0 132.89 71.36
  L 132.68 71.15
  A 0.25 0.25 0.0 0 0 132.32 71.14
  L 125.37 77.72
  A 0.67 0.67 0.0 0 0 125.34 78.66
  L 125.53 78.86
  A 0.77 0.76 49.1 0 0 126.55 78.94
  Q 132.28 74.53 137.98 69.23
  Q 138.31 68.91 139.07 68.79
  A 0.51 0.50 -73.4 0 1 139.52 69.63
  Q 135.83 73.71 132.40 75.66
  A 1.12 1.04 -80.7 0 0 132.18 75.83
  L 127.58 80.00
  A 2.00 1.99 60.3 0 0 127.02 82.06
  L 127.60 83.96
  A 0.70 0.70 0.0 0 0 128.82 84.19
  L 133.23 78.55
  A 0.03 0.03 0.0 0 0 133.22 78.50
  L 133.01 78.40
  A 0.24 0.24 0.0 0 0 132.67 78.45
  Q 130.76 81.04 128.82 82.33
  A 0.63 0.63 0.0 0 1 127.94 81.46
  C 129.65 78.85 131.96 77.78 134.23 75.63
  Q 137.37 72.66 140.23 69.99
  A 0.52 0.51 -44.6 0 0 140.24 69.25
  Q 139.59 68.60 139.09 67.61
  A 0.57 0.57 0.0 0 0 138.19 67.45
  L 132.31 73.02
  A 0.23 0.23 0.0 0 1 131.94 72.77
  Z
  M 134.61 90.88
  Q 132.95 92.30 131.64 93.87
  A 0.91 0.91 0.0 0 1 130.03 93.33
  Q 129.91 91.09 132.19 89.12
  A 0.75 0.73 -60.3 0 1 132.78 88.95
  Q 133.55 89.08 134.40 88.16
  Q 136.34 86.09 142.29 80.03
  A 1.73 1.73 0.0 0 1 143.33 79.52
  L 143.72 79.48
  A 0.80 0.78 4.2 0 0 144.40 78.91
  Q 144.57 78.33 144.25 77.78
  A 0.36 0.36 0.0 0 0 143.69 77.69
  L 136.42 84.58
  A 0.45 0.44 -42.7 0 1 135.79 84.56
  L 135.58 84.34
  A 0.37 0.37 0.0 0 0 135.06 84.33
  L 130.93 88.24
  A 0.43 0.42 -54.3 0 1 130.46 88.32
  L 130.18 88.19
  A 0.61 0.60 -53.5 0 1 130.04 87.24
  Q 131.97 85.23 131.98 85.20
  A 0.30 0.30 0.0 0 0 131.55 84.83
  Q 130.37 85.46 129.16 86.81
  A 0.92 0.90 -27.8 0 0 128.94 87.50
  L 129.86 95.87
  A 0.37 0.37 0.0 0 0 130.51 96.08
  L 133.00 93.28
  A 1.50 1.45 -17.5 0 0 133.32 92.69
  Q 133.64 91.51 134.61 90.88
  Z
  M 135.59 93.33
  Q 135.44 93.41 135.13 93.38
  A 0.21 0.17 21.5 0 0 134.97 93.43
  L 129.62 98.82
  A 0.08 0.07 -45.0 0 0 129.61 98.93
  L 129.91 99.25
  A 0.18 0.17 46.2 0 0 130.15 99.26
  L 135.91 94.16
  A 1.29 1.27 69.1 0 0 136.33 93.21
  Q 136.31 91.96 137.52 91.00
  Q 141.26 88.04 143.40 85.25
  A 0.94 0.93 -55.4 0 1 144.61 85.02
  L 144.64 85.04
  A 0.72 0.71 36.4 0 1 144.81 86.13
  Q 142.74 88.48 140.30 90.51
  Q 138.93 91.64 135.84 96.55
  Q 134.46 98.75 130.41 100.49
  A 0.59 0.58 78.7 0 0 130.06 101.03
  L 130.06 102.36
  A 0.11 0.11 0.0 0 0 130.24 102.45
  Q 135.28 98.78 136.44 96.92
  Q 140.42 90.55 145.31 87.06
  A 1.49 1.48 71.1 0 0 145.94 85.77
  L 145.87 84.15
  A 0.66 0.66 0.0 0 0 144.79 83.68
  L 135.40 91.62
  A 0.60 0.49 84.1 0 0 135.25 91.85
  Q 135.00 92.50 135.35 92.53
  A 0.46 0.41 31.5 0 1 135.59 93.33
  Z
  M 62.38 85.15
  L 61.89 85.34
  A 1.93 1.91 9.4 0 0 61.07 85.92
  Q 59.12 88.31 56.54 89.21
  A 1.22 1.10 10.0 0 0 56.11 89.48
  L 46.81 98.56
  A 0.45 0.45 0.0 0 0 46.80 99.19
  L 47.03 99.43
  A 0.66 0.66 0.0 0 0 47.97 99.45
  L 51.26 96.25
  A 2.53 2.48 10.0 0 1 52.02 95.73
  Q 52.24 95.70 53.01 95.26
  Q 53.89 94.75 55.38 93.10
  Q 59.29 88.77 62.71 85.69
  A 0.32 0.32 0.0 0 0 62.38 85.15
  Z
  M 92.35 104.24
  C 96.21 101.82 103.76 96.50 103.95 92.59
  A 0.10 0.09 -20.8 0 0 103.79 92.52
  L 91.95 103.73
  A 0.33 0.32 7.1 0 0 92.35 104.24
  Z
  M 62.52 94.00
  L 60.79 96.15
  A 0.98 0.93 1.4 0 1 60.58 96.34
  Q 57.49 98.24 53.97 101.94
  Q 52.68 103.30 50.86 103.76
  A 1.76 1.66 16.2 0 0 50.14 104.13
  Q 47.54 106.41 46.56 108.27
  A 0.26 0.25 -56.8 0 0 46.62 108.59
  L 46.84 108.77
  A 0.52 0.51 -57.1 0 0 47.62 108.60
  Q 48.19 107.51 49.24 106.55
  A 1.01 0.99 -64.9 0 1 49.97 106.28
  Q 51.08 106.32 53.27 104.27
  Q 60.12 97.84 62.65 95.17
  Q 62.93 94.88 62.92 94.15
  A 0.23 0.22 64.9 0 0 62.52 94.00
  Z
  M 51.98 116.66
  Q 54.54 113.81 54.90 112.74
  A 3.56 3.47 73.9 0 1 55.51 111.60
  L 63.19 102.06
  A 0.95 0.90 70.1 0 0 63.37 101.65
  L 63.64 100.09
  A 0.35 0.35 0.0 0 0 63.30 99.68
  L 62.92 99.68
  A 0.31 0.31 0.0 0 0 62.61 100.03
  C 62.92 102.47 61.70 102.59 60.54 103.96
  Q 53.50 112.28 46.36 118.36
  A 0.37 0.37 0.0 0 0 46.54 119.01
  Q 46.81 119.05 47.21 118.63
  Q 48.06 117.73 48.18 117.46
  A 1.11 1.10 85.2 0 1 48.58 116.98
  L 52.86 114.13
  A 0.09 0.09 0.0 0 1 52.98 114.26
  Q 50.16 118.12 48.50 119.29
  A 2.25 2.22 -6.4 0 0 47.72 120.25
  L 46.50 123.04
  A 0.06 0.06 0.0 0 0 46.54 123.12
  L 46.75 123.22
  A 0.28 0.27 24.2 0 0 47.11 123.09
  Q 48.27 120.75 50.40 119.06
  A 0.82 0.81 -53.0 0 1 51.20 118.94
  Q 51.30 118.98 51.35 118.99
  A 1.26 1.24 24.3 0 0 52.32 118.63
  L 60.44 110.44
  A 0.64 0.63 50.5 0 0 60.51 109.63
  L 60.25 109.27
  A 0.39 0.38 -39.8 0 0 59.66 109.22
  Q 56.06 112.80 53.61 115.84
  Q 52.82 116.82 52.27 117.07
  A 0.26 0.25 -80.7 0 1 51.98 116.66
  Z
  M 130.87 113.20
  A 0.68 0.67 -8.9 0 0 131.49 112.35
  Q 131.28 111.63 131.36 110.95
  A 1.66 1.65 72.5 0 1 131.90 109.90
  Q 136.46 105.83 140.74 100.42
  A 0.31 0.30 88.6 0 0 140.30 100.00
  L 130.36 108.81
  A 1.08 1.08 0.0 0 0 130.00 109.66
  L 130.15 112.85
  A 0.38 0.37 -2.2 0 0 130.55 113.21
  L 130.87 113.20
  Z
  M 137.05 113.22
  Q 137.17 113.39 137.30 113.38
  A 0.66 0.59 21.7 0 0 137.52 113.30
  C 140.20 111.50 141.93 109.34 144.75 107.36
  Q 146.04 106.45 147.35 104.64
  A 0.03 0.02 58.3 0 0 147.35 104.61
  L 147.01 104.13
  A 0.11 0.11 0.0 0 0 146.84 104.11
  L 137.93 112.54
  A 0.65 0.65 0.0 0 1 137.32 112.70
  Q 136.31 112.45 135.14 113.63
  Q 133.39 115.40 131.78 117.28
  A 0.71 0.71 0.0 0 1 130.81 117.38
  L 130.79 117.37
  A 0.60 0.60 0.0 0 1 130.73 116.51
  L 137.99 108.38
  A 0.19 0.18 -50.2 0 0 137.97 108.11
  L 137.75 107.93
  A 0.03 0.02 31.7 0 0 137.72 107.93
  L 130.38 115.23
  A 1.39 1.38 -26.0 0 0 129.99 116.35
  L 130.23 118.58
  A 0.39 0.39 0.0 0 0 130.89 118.81
  L 136.82 113.19
  A 0.15 0.15 0.0 0 1 137.05 113.22
  Z"
/>
<path fill="#3e5bfe" d="
  M 85.48 60.61
  L 86.33 60.61
  A 0.37 0.37 0.0 0 1 86.58 61.26
  L 75.94 70.83
  A 1.12 1.10 65.6 0 0 75.58 71.81
  Q 75.59 71.87 75.64 72.06
  A 0.72 0.70 -31.9 0 1 75.48 72.72
  L 71.67 76.82
  A 0.54 0.52 -60.3 0 1 71.15 76.97
  L 70.89 76.90
  A 0.44 0.43 29.1 0 1 70.70 76.24
  Q 71.63 74.94 72.86 74.14
  A 3.79 3.74 86.8 0 0 74.20 72.62
  Q 76.08 68.74 81.03 64.88
  A 0.91 0.91 0.0 0 0 81.19 64.72
  L 84.16 61.22
  A 1.74 1.73 -69.7 0 1 85.48 60.61
  Z"
/>
<path fill="#3e5bfe" d="
  M 111.26 77.81
  A 0.46 0.46 0.0 0 1 110.61 77.18
  Q 111.42 75.93 111.48 75.08
  A 1.68 1.67 -20.5 0 1 111.98 73.99
  Q 116.29 69.78 122.29 64.80
  C 123.56 63.74 124.58 62.01 125.85 61.38
  A 0.45 0.45 0.0 0 1 126.36 62.11
  L 120.65 67.52
  A 0.69 0.65 -20.8 0 0 120.44 67.95
  Q 120.37 68.66 120.15 68.88
  Q 118.94 70.09 115.37 73.29
  A 3.52 3.35 -7.3 0 0 114.66 74.16
  Q 113.47 76.25 111.26 77.81
  Z"
/>
<path fill="#3e5bfe" d="
  M 94.90 87.48
  A 0.03 0.02 -35.8 0 1 94.86 87.48
  L 94.67 87.21
  A 0.03 0.02 -58.3 0 1 94.67 87.18
  L 100.17 80.99
  A 6.74 6.65 5.6 0 1 101.75 79.71
  C 102.69 79.16 103.36 79.16 104.08 78.07
  Q 105.09 76.56 106.57 76.39
  A 1.24 1.19 18.6 0 0 107.27 76.06
  L 122.49 61.65
  A 0.20 0.20 0.0 0 1 122.82 61.72
  L 123.02 62.20
  A 0.03 0.02 58.3 0 1 123.02 62.23
  L 108.50 76.09
  A 2.92 2.85 -72.9 0 1 107.20 76.80
  Q 107.16 76.81 106.88 76.86
  A 1.35 1.25 -68.8 0 0 106.22 77.18
  L 94.90 87.48
  Z"
/>
<path fill="#3e5bfe" d="
  M 117.57 74.07
  Q 117.40 74.03 114.87 75.59
  A 0.49 0.48 -85.4 0 1 114.25 74.86
  C 115.58 73.31 117.30 72.56 118.51 71.28
  Q 120.67 69.00 128.49 62.16
  A 1.36 1.35 39.1 0 1 130.07 62.00
  L 130.43 62.21
  A 0.65 0.65 0.0 0 1 130.51 63.29
  Q 122.83 69.35 118.97 72.72
  Q 118.19 73.40 118.15 73.67
  A 0.48 0.48 0.0 0 1 117.57 74.07
  Z"
/>
<path fill="#3e5bfe" d="
  M 46.36 79.71
  Q 45.91 77.24 48.13 75.97
  A 1.08 1.07 76.8 0 0 48.67 75.09
  C 48.85 71.93 55.38 65.98 58.23 63.61
  C 58.88 63.06 59.64 62.06 60.72 61.98
  A 1.19 1.14 -72.4 0 1 61.66 63.89
  Q 58.68 67.77 55.44 70.04
  A 2.61 2.05 -66.0 0 0 55.17 70.26
  L 48.01 77.52
  A 1.40 1.37 -31.0 0 0 47.66 78.87
  Q 47.91 79.74 47.08 80.10
  A 0.53 0.52 73.1 0 1 46.36 79.71
  Z"
/>
<path fill="#3e5bfe" d="
  M 105.84 74.53
  Q 107.63 72.59 107.74 72.40
  A 11.71 10.53 -89.7 0 1 108.84 71.19
  L 117.62 62.82
  A 0.58 0.58 0.0 0 1 117.88 62.67
  L 119.43 62.19
  A 0.40 0.40 0.0 0 1 119.81 62.87
  L 106.21 74.91
  A 0.13 0.12 46.6 0 1 106.03 74.90
  L 105.84 74.71
  A 0.14 0.14 0.0 0 1 105.84 74.53
  Z"
/>
<path fill="#3e5bfe" d="
  M 92.32 73.39
  Q 94.33 71.10 98.20 68.01
  A 0.98 0.98 0.0 0 0 98.39 66.67
  L 98.22 66.42
  A 0.33 0.33 0.0 0 0 97.73 66.37
  Q 90.39 73.03 88.89 73.89
  Q 85.28 75.96 84.38 77.01
  A 0.13 0.13 0.0 0 1 84.16 76.89
  C 84.92 74.77 86.93 74.72 88.46 73.23
  C 91.32 70.44 94.72 68.38 97.39 65.64
  A 1.09 1.08 -40.4 0 1 99.06 65.77
  L 99.74 66.73
  A 1.33 1.33 0.0 0 1 99.42 68.59
  L 92.43 73.50
  A 0.08 0.08 0.0 0 1 92.32 73.39
  Z"
/>
<path fill="#3e5bfe" d="
  M 54.02 75.52
  L 54.36 75.29
  A 0.41 0.41 0.0 0 1 54.90 75.90
  L 49.79 81.58
  A 0.80 0.60 -79.6 0 1 49.66 81.70
  L 47.22 83.45
  A 0.26 0.26 0.0 0 1 46.85 83.39
  L 46.53 82.94
  A 0.28 0.28 0.0 0 1 46.63 82.54
  Q 49.75 80.82 51.17 78.42
  A 0.36 0.36 0.0 0 0 50.82 77.87
  L 50.39 77.91
  A 0.36 0.35 19.8 0 1 50.10 77.30
  L 61.26 66.73
  A 0.69 0.68 -17.3 0 1 62.41 67.33
  Q 62.27 68.17 61.36 68.20
  A 0.49 0.47 20.9 0 0 61.01 68.35
  L 53.92 75.40
  A 0.08 0.08 0.0 0 0 54.02 75.52
  Z"
/>
<path fill="#3e5bfe" d="
  M 132.31 73.02
  L 138.19 67.45
  A 0.57 0.57 0.0 0 1 139.09 67.61
  Q 139.59 68.60 140.24 69.25
  A 0.52 0.51 -44.6 0 1 140.23 69.99
  Q 137.37 72.66 134.23 75.63
  C 131.96 77.78 129.65 78.85 127.94 81.46
  A 0.63 0.63 0.0 0 0 128.82 82.33
  Q 130.76 81.04 132.67 78.45
  A 0.24 0.24 0.0 0 1 133.01 78.40
  L 133.22 78.50
  A 0.03 0.03 0.0 0 1 133.23 78.55
  L 128.82 84.19
  A 0.70 0.70 0.0 0 1 127.60 83.96
  L 127.02 82.06
  A 2.00 1.99 60.3 0 1 127.58 80.00
  L 132.18 75.83
  A 1.12 1.04 -80.7 0 1 132.40 75.66
  Q 135.83 73.71 139.52 69.63
  A 0.51 0.50 -73.4 0 0 139.07 68.79
  Q 138.31 68.91 137.98 69.23
  Q 132.28 74.53 126.55 78.94
  A 0.77 0.76 49.1 0 1 125.53 78.86
  L 125.34 78.66
  A 0.67 0.67 0.0 0 1 125.37 77.72
  L 132.32 71.14
  A 0.25 0.25 0.0 0 1 132.68 71.15
  L 132.89 71.36
  A 0.11 0.11 0.0 0 1 132.89 71.50
  Q 132.09 72.36 131.94 72.77
  A 0.23 0.23 0.0 0 0 132.31 73.02
  Z"
/>
<path fill="#3e5bfe" d="
  M 134.61 90.88
  Q 133.64 91.51 133.32 92.69
  A 1.50 1.45 -17.5 0 1 133.00 93.28
  L 130.51 96.08
  A 0.37 0.37 0.0 0 1 129.86 95.87
  L 128.94 87.50
  A 0.92 0.90 -27.8 0 1 129.16 86.81
  Q 130.37 85.46 131.55 84.83
  A 0.30 0.30 0.0 0 1 131.98 85.20
  Q 131.97 85.23 130.04 87.24
  A 0.61 0.60 -53.5 0 0 130.18 88.19
  L 130.46 88.32
  A 0.43 0.42 -54.3 0 0 130.93 88.24
  L 135.06 84.33
  A 0.37 0.37 0.0 0 1 135.58 84.34
  L 135.79 84.56
  A 0.45 0.44 -42.7 0 0 136.42 84.58
  L 143.69 77.69
  A 0.36 0.36 0.0 0 1 144.25 77.78
  Q 144.57 78.33 144.40 78.91
  A 0.80 0.78 4.2 0 1 143.72 79.48
  L 143.33 79.52
  A 1.73 1.73 0.0 0 0 142.29 80.03
  Q 136.34 86.09 134.40 88.16
  Q 133.55 89.08 132.78 88.95
  A 0.75 0.73 -60.3 0 0 132.19 89.12
  Q 129.91 91.09 130.03 93.33
  A 0.91 0.91 0.0 0 0 131.64 93.87
  Q 132.95 92.30 134.61 90.88
  Z"
/>
<path fill="#3e5bfe" d="
  M 135.35 92.53
  Q 135.00 92.50 135.25 91.85
  A 0.60 0.49 84.1 0 1 135.40 91.62
  L 144.79 83.68
  A 0.66 0.66 0.0 0 1 145.87 84.15
  L 145.94 85.77
  A 1.49 1.48 71.1 0 1 145.31 87.06
  Q 140.42 90.55 136.44 96.92
  Q 135.28 98.78 130.24 102.45
  A 0.11 0.11 0.0 0 1 130.06 102.36
  L 130.06 101.03
  A 0.59 0.58 78.7 0 1 130.41 100.49
  Q 134.46 98.75 135.84 96.55
  Q 138.93 91.64 140.30 90.51
  Q 142.74 88.48 144.81 86.13
  A 0.72 0.71 36.4 0 0 144.64 85.04
  L 144.61 85.02
  A 0.94 0.93 -55.4 0 0 143.40 85.25
  Q 141.26 88.04 137.52 91.00
  Q 136.31 91.96 136.33 93.21
  A 1.29 1.27 69.1 0 1 135.91 94.16
  L 130.15 99.26
  A 0.18 0.17 46.2 0 1 129.91 99.25
  L 129.61 98.93
  A 0.08 0.07 -45.0 0 1 129.62 98.82
  L 134.97 93.43
  A 0.21 0.17 21.5 0 1 135.13 93.38
  Q 135.44 93.41 135.59 93.33
  A 0.46 0.41 31.5 0 0 135.35 92.53
  Z"
/>
<path fill="#3e5bfe" d="
  M 62.38 85.15
  A 0.32 0.32 0.0 0 1 62.71 85.69
  Q 59.29 88.77 55.38 93.10
  Q 53.89 94.75 53.01 95.26
  Q 52.24 95.70 52.02 95.73
  A 2.53 2.48 10.0 0 0 51.26 96.25
  L 47.97 99.45
  A 0.66 0.66 0.0 0 1 47.03 99.43
  L 46.80 99.19
  A 0.45 0.45 0.0 0 1 46.81 98.56
  L 56.11 89.48
  A 1.22 1.10 10.0 0 1 56.54 89.21
  Q 59.12 88.31 61.07 85.92
  A 1.93 1.91 9.4 0 1 61.89 85.34
  L 62.38 85.15
  Z"
/>
<path fill="#3e5bfe" d="
  M 91.95 103.73
  L 103.79 92.52
  A 0.10 0.09 -20.8 0 1 103.95 92.59
  C 103.76 96.50 96.21 101.82 92.35 104.24
  A 0.33 0.32 7.1 0 1 91.95 103.73
  Z"
/>
<path fill="#3e5bfe" d="
  M 62.92 94.15
  Q 62.93 94.88 62.65 95.17
  Q 60.12 97.84 53.27 104.27
  Q 51.08 106.32 49.97 106.28
  A 1.01 0.99 -64.9 0 0 49.24 106.55
  Q 48.19 107.51 47.62 108.60
  A 0.52 0.51 -57.1 0 1 46.84 108.77
  L 46.62 108.59
  A 0.26 0.25 -56.8 0 1 46.56 108.27
  Q 47.54 106.41 50.14 104.13
  A 1.76 1.66 16.2 0 1 50.86 103.76
  Q 52.68 103.30 53.97 101.94
  Q 57.49 98.24 60.58 96.34
  A 0.98 0.93 1.4 0 0 60.79 96.15
  L 62.52 94.00
  A 0.23 0.22 64.9 0 1 62.92 94.15
  Z"
/>
<path fill="#3e5bfe" d="
  M 52.27 117.07
  Q 52.82 116.82 53.61 115.84
  Q 56.06 112.80 59.66 109.22
  A 0.39 0.38 -39.8 0 1 60.25 109.27
  L 60.51 109.63
  A 0.64 0.63 50.5 0 1 60.44 110.44
  L 52.32 118.63
  A 1.26 1.24 24.3 0 1 51.35 118.99
  Q 51.30 118.98 51.20 118.94
  A 0.82 0.81 -53.0 0 0 50.40 119.06
  Q 48.27 120.75 47.11 123.09
  A 0.28 0.27 24.2 0 1 46.75 123.22
  L 46.54 123.12
  A 0.06 0.06 0.0 0 1 46.50 123.04
  L 47.72 120.25
  A 2.25 2.22 -6.4 0 1 48.50 119.29
  Q 50.16 118.12 52.98 114.26
  A 0.09 0.09 0.0 0 0 52.86 114.13
  L 48.58 116.98
  A 1.11 1.10 85.2 0 0 48.18 117.46
  Q 48.06 117.73 47.21 118.63
  Q 46.81 119.05 46.54 119.01
  A 0.37 0.37 0.0 0 1 46.36 118.36
  Q 53.50 112.28 60.54 103.96
  C 61.70 102.59 62.92 102.47 62.61 100.03
  A 0.31 0.31 0.0 0 1 62.92 99.68
  L 63.30 99.68
  A 0.35 0.35 0.0 0 1 63.64 100.09
  L 63.37 101.65
  A 0.95 0.90 70.1 0 1 63.19 102.06
  L 55.51 111.60
  A 3.56 3.47 73.9 0 0 54.90 112.74
  Q 54.54 113.81 51.98 116.66
  A 0.26 0.25 -80.7 0 0 52.27 117.07
  Z"
/>
<path fill="#3e5bfe" d="
  M 130.15 112.85
  L 130.00 109.66
  A 1.08 1.08 0.0 0 1 130.36 108.81
  L 140.30 100.00
  A 0.31 0.30 88.6 0 1 140.74 100.42
  Q 136.46 105.83 131.90 109.90
  A 1.66 1.65 72.5 0 0 131.36 110.95
  Q 131.28 111.63 131.49 112.35
  A 0.68 0.67 -8.9 0 1 130.87 113.20
  L 130.55 113.21
  A 0.38 0.37 -2.2 0 1 130.15 112.85
  Z"
/>
<path fill="#3e5bfe" d="
  M 136.82 113.19
  L 130.89 118.81
  A 0.39 0.39 0.0 0 1 130.23 118.58
  L 129.99 116.35
  A 1.39 1.38 -26.0 0 1 130.38 115.23
  L 137.72 107.93
  A 0.03 0.02 31.7 0 1 137.75 107.93
  L 137.97 108.11
  A 0.19 0.18 -50.2 0 1 137.99 108.38
  L 130.73 116.51
  A 0.60 0.60 0.0 0 0 130.79 117.37
  L 130.81 117.38
  A 0.71 0.71 0.0 0 0 131.78 117.28
  Q 133.39 115.40 135.14 113.63
  Q 136.31 112.45 137.32 112.70
  A 0.65 0.65 0.0 0 0 137.93 112.54
  L 146.84 104.11
  A 0.11 0.11 0.0 0 1 147.01 104.13
  L 147.35 104.61
  A 0.03 0.02 58.3 0 1 147.35 104.64
  Q 146.04 106.45 144.75 107.36
  C 141.93 109.34 140.20 111.50 137.52 113.30
  A 0.66 0.59 21.7 0 1 137.30 113.38
  Q 137.17 113.39 137.05 113.22
  A 0.15 0.15 0.0 0 0 136.82 113.19
  Z"
/>
</svg>