<?xml version="1.0" encoding="UTF-8" standalone="no"?>
<!DOCTYPE svg PUBLIC "-//W3C//DTD SVG 1.1//EN" "http://www.w3.org/Graphics/SVG/1.1/DTD/svg11.dtd">
<svg xmlns="http://www.w3.org/2000/svg" version="1.1" viewBox="0.00 0.00 256.00 256.00" width="128" height="128">
<g stroke-width="2.00" fill="none" stroke-linecap="butt">
<path stroke="#94b1ff" vector-effect="non-scaling-stroke" d="
  M 157.70 188.01
  Q 163.74 191.97 172.66 195.38
  C 184.56 199.92 199.31 198.99 209.42 191.43
  C 221.59 182.33 227.36 168.87 225.18 153.32
  Q 224.59 149.14 220.48 139.58
  C 216.91 131.26 214.55 123.81 210.07 115.47
  C 205.75 107.44 202.15 97.98 199.06 89.91
  Q 196.47 83.19 191.34 74.44
  C 187.88 68.53 184.36 65.88 178.63 62.05
  Q 173.97 58.93 170.40 57.76
  Q 155.43 52.87 141.71 59.71
  C 138.23 61.44 133.28 65.02 127.96 66.20
  C 123.45 67.20 120.80 63.44 117.60 61.01
  Q 115.86 59.70 112.62 58.69
  Q 101.43 55.22 89.77 57.25
  Q 85.56 57.99 83.17 59.17
  C 74.18 63.61 67.90 69.76 63.56 79.48
  C 60.41 86.54 55.63 95.16 52.26 103.80
  Q 46.82 117.72 38.51 134.51
  C 35.47 140.66 33.46 147.24 31.92 152.93
  C 30.45 158.34 31.16 162.82 31.94 168.38
  C 32.88 175.12 36.89 181.72 41.58 186.41
  Q 54.35 199.19 72.31 198.13
  C 77.40 197.83 83.19 197.11 86.84 195.10
  Q 91.49 192.54 98.93 187.88
  A 1.45 1.44 -38.7 0 1 100.71 188.07
  C 103.80 191.11 108.08 193.27 111.61 195.06
  C 119.47 199.03 129.54 200.49 138.40 198.05
  C 145.84 195.99 152.07 194.40 156.62 188.20
  A 0.79 0.79 0.0 0 1 157.70 188.01"
/>
<path stroke="#9c9c9c" vector-effect="non-scaling-stroke" d="
  M 69.01 118.51
  C 67.20 123.63 65.67 128.88 63.16 133.60
  Q 57.65 143.95 53.68 155.24
  Q 50.76 163.55 51.50 166.63
  Q 52.91 172.51 58.20 176.15
  C 60.72 177.88 66.06 180.69 69.31 179.80
  C 73.56 178.63 78.74 176.37 81.19 172.18
  Q 90.43 156.37 96.77 137.64"
/>
<path stroke="#80bde7" vector-effect="non-scaling-stroke" d="
  M 96.77 137.64
  Q 99.44 136.03 107.11 137.24"
/>
<path stroke="#d7efff" vector-effect="non-scaling-stroke" d="
  M 107.11 137.24
  Q 105.24 139.67 104.09 143.10
  A 2.01 2.00 -40.8 0 0 104.01 144.14
  C 104.82 148.53 105.78 155.20 107.95 159.29
  Q 111.61 166.20 114.37 170.33
  C 116.11 172.95 118.43 174.98 121.03 177.00
  Q 125.04 180.13 130.23 179.34
  Q 141.25 177.67 145.12 167.51
  Q 150.05 154.54 154.82 141.84
  Q 155.69 139.53 159.29 139.70"
/>
<path stroke="#94d4ff" vector-effect="non-scaling-stroke" d="
  M 159.29 139.70
  C 161.44 143.81 164.48 147.80 166.08 151.77
  Q 170.21 162.09 172.10 165.44
  C 176.50 173.25 180.04 179.92 188.80 178.99
  C 192.29 178.62 198.75 176.37 200.80 173.08
  C 204.82 166.64 207.24 162.57 203.50 154.84
  Q 198.34 144.17 191.60 129.17
  Q 190.32 126.32 186.31 122.05"
/>
<path stroke="#d7efff" vector-effect="non-scaling-stroke" d="
  M 186.31 122.05
  Q 184.19 113.26 182.18 108.85
  Q 178.26 100.26 175.90 93.88
  C 174.15 89.12 171.58 85.45 168.59 82.27
  C 164.50 77.91 156.19 78.87 150.67 80.49
  Q 147.18 81.50 146.32 82.99
  A 0.17 0.02 -52.0 0 0 146.29 83.04
  L 138.32 98.94
  A 5.96 5.61 -24.8 0 0 137.93 99.91
  L 133.56 113.88
  A 1.68 1.52 60.6 0 0 133.49 114.19
  L 133.10 117.65
  A 3.92 3.91 -30.9 0 1 132.86 118.60
  Q 131.57 121.74 128.69 123.29"
/>
<path stroke="#80bde7" vector-effect="non-scaling-stroke" d="
  M 128.69 123.29
  Q 123.55 111.61 119.19 101.55
  Q 118.71 100.45 112.13 88.41
  Q 109.32 83.27 106.72 81.55
  Q 100.07 77.16 92.13 79.59
  Q 84.51 81.93 81.77 88.78
  Q 75.77 103.79 69.01 118.51"
/>
<path stroke="#58ace7" vector-effect="non-scaling-stroke" d="
  M 128.69 123.29
  Q 124.86 130.40 115.74 135.28
  Q 114.01 136.20 107.11 137.24"
/>
<path stroke="#1d5983" vector-effect="non-scaling-stroke" d="
  M 96.77 137.64
  Q 96.69 136.19 97.04 133.24
  Q 97.30 131.03 95.71 129.80
  Q 91.40 126.46 84.61 122.90
  C 80.96 120.99 75.88 121.24 72.09 121.42
  A 0.40 0.33 19.4 0 0 71.90 121.49
  L 71.52 121.79
  A 0.19 0.19 0.0 0 1 71.26 121.77
  Q 71.06 121.57 71.45 121.28
  A 0.12 0.12 0.0 0 0 71.36 121.07
  Q 70.40 121.24 69.06 120.26
  A 0.33 0.33 0.0 0 1 69.26 119.66
  L 69.79 119.66
  A 0.39 0.39 0.0 0 0 70.02 118.96
  Q 69.67 118.70 69.01 118.51"
/>
<path stroke="#6cc3ff" vector-effect="non-scaling-stroke" d="
  M 186.31 122.05
  Q 183.13 121.68 179.25 122.15
  C 172.70 122.93 166.64 126.44 161.26 129.82
  A 4.06 4.06 0.0 0 0 159.36 133.22
  L 159.29 139.70"
/>
</g>
<path fill="#2962ff" d="
  M 223.99 0.00
  Q 227.82 0.26 228.99 0.25
  Q 234.53 0.21 238.47 2.98
  Q 244.60 7.30 249.57 12.95
  Q 255.25 19.41 256.00 29.41
  L 256.00 225.89
  Q 255.16 243.86 239.13 252.38
  Q 232.87 255.71 226.53 256.00
  L 30.10 256.00
  C 26.96 255.67 23.68 255.51 20.87 254.48
  Q 14.36 252.10 9.52 246.55
  Q 4.29 240.54 1.34 233.90
  Q 0.63 232.30 0.00 226.36
  L 0.00 32.81
  Q 1.38 17.11 12.89 7.64
  Q 19.56 2.17 28.42 0.00
  L 223.99 0.00
  Z
  M 157.70 188.01
  Q 163.74 191.97 172.66 195.38
  C 184.56 199.92 199.31 198.99 209.42 191.43
  C 221.59 182.33 227.36 168.87 225.18 153.32
  Q 224.59 149.14 220.48 139.58
  C 216.91 131.26 214.55 123.81 210.07 115.47
  C 205.75 107.44 202.15 97.98 199.06 89.91
  Q 196.47 83.19 191.34 74.44
  C 187.88 68.53 184.36 65.88 178.63 62.05
  Q 173.97 58.93 170.40 57.76
  Q 155.43 52.87 141.71 59.71
  C 138.23 61.44 133.28 65.02 127.96 66.20
  C 123.45 67.20 120.80 63.44 117.60 61.01
  Q 115.86 59.70 112.62 58.69
  Q 101.43 55.22 89.77 57.25
  Q 85.56 57.99 83.17 59.17
  C 74.18 63.61 67.90 69.76 63.56 79.48
  C 60.41 86.54 55.63 95.16 52.26 103.80
  Q 46.82 117.72 38.51 134.51
  C 35.47 140.66 33.46 147.24 31.92 152.93
  C 30.45 158.34 31.16 162.82 31.94 168.38
  C 32.88 175.12 36.89 181.72 41.58 186.41
  Q 54.35 199.19 72.31 198.13
  C 77.40 197.83 83.19 197.11 86.84 195.10
  Q 91.49 192.54 98.93 187.88
  A 1.45 1.44 -38.7 0 1 100.71 188.07
  C 103.80 191.11 108.08 193.27 111.61 195.06
  C 119.47 199.03 129.54 200.49 138.40 198.05
  C 145.84 195.99 152.07 194.40 156.62 188.20
  A 0.79 0.79 0.0 0 1 157.70 188.01
  Z"
/>
<path fill="#ffffff" d="
  M 157.70 188.01
  A 0.79 0.79 0.0 0 0 156.62 188.20
  C 152.07 194.40 145.84 195.99 138.40 198.05
  C 129.54 200.49 119.47 199.03 111.61 195.06
  C 108.08 193.27 103.80 191.11 100.71 188.07
  A 1.45 1.44 -38.7 0 0 98.93 187.88
  Q 91.49 192.54 86.84 195.10
  C 83.19 197.11 77.40 197.83 72.31 198.13
  Q 54.35 199.19 41.58 186.41
  C 36.89 181.72 32.88 175.12 31.94 168.38
  C 31.16 162.82 30.45 158.34 31.92 152.93
  C 33.46 147.24 35.47 140.66 38.51 134.51
  Q 46.82 117.72 52.26 103.80
  C 55.63 95.16 60.41 86.54 63.56 79.48
  C 67.90 69.76 74.18 63.61 83.17 59.17
  Q 85.56 57.99 89.77 57.25
  Q 101.43 55.22 112.62 58.69
  Q 115.86 59.70 117.60 61.01
  C 120.80 63.44 123.45 67.20 127.96 66.20
  C 133.28 65.02 138.23 61.44 141.71 59.71
  Q 155.43 52.87 170.40 57.76
  Q 173.97 58.93 178.63 62.05
  C 184.36 65.88 187.88 68.53 191.34 74.44
  Q 196.47 83.19 199.06 89.91
  C 202.15 97.98 205.75 107.44 210.07 115.47
  C 214.55 123.81 216.91 131.26 220.48 139.58
  Q 224.59 149.14 225.18 153.32
  C 227.36 168.87 221.59 182.33 209.42 191.43
  C 199.31 198.99 184.56 199.92 172.66 195.38
  Q 163.74 191.97 157.70 188.01
  Z
  M 69.01 118.51
  C 67.20 123.63 65.67 128.88 63.16 133.60
  Q 57.65 143.95 53.68 155.24
  Q 50.76 163.55 51.50 166.63
  Q 52.91 172.51 58.20 176.15
  C 60.72 177.88 66.06 180.69 69.31 179.80
  C 73.56 178.63 78.74 176.37 81.19 172.18
  Q 90.43 156.37 96.77 137.64
  Q 99.44 136.03 107.11 137.24
  Q 105.24 139.67 104.09 143.10
  A 2.01 2.00 -40.8 0 0 104.01 144.14
  C 104.82 148.53 105.78 155.20 107.95 159.29
  Q 111.61 166.20 114.37 170.33
  C 116.11 172.95 118.43 174.98 121.03 177.00
  Q 125.04 180.13 130.23 179.34
  Q 141.25 177.67 145.12 167.51
  Q 150.05 154.54 154.82 141.84
  Q 155.69 139.53 159.29 139.70
  C 161.44 143.81 164.48 147.80 166.08 151.77
  Q 170.21 162.09 172.10 165.44
  C 176.50 173.25 180.04 179.92 188.80 178.99
  C 192.29 178.62 198.75 176.37 200.80 173.08
  C 204.82 166.64 207.24 162.57 203.50 154.84
  Q 198.34 144.17 191.60 129.17
  Q 190.32 126.32 186.31 122.05
  Q 184.19 113.26 182.18 108.85
  Q 178.26 100.26 175.90 93.88
  C 174.15 89.12 171.58 85.45 168.59 82.27
  C 164.50 77.91 156.19 78.87 150.67 80.49
  Q 147.18 81.50 146.32 82.99
  A 0.17 0.02 -52.0 0 0 146.29 83.04
  L 138.32 98.94
  A 5.96 5.61 -24.8 0 0 137.93 99.91
  L 133.56 113.88
  A 1.68 1.52 60.6 0 0 133.49 114.19
  L 133.10 117.65
  A 3.92 3.91 -30.9 0 1 132.86 118.60
  Q 131.57 121.74 128.69 123.29
  Q 123.55 111.61 119.19 101.55
  Q 118.71 100.45 112.13 88.41
  Q 109.32 83.27 106.72 81.55
  Q 100.07 77.16 92.13 79.59
  Q 84.51 81.93 81.77 88.78
  Q 75.77 103.79 69.01 118.51
  Z"
/>
<path fill="#017ace" d="
  M 128.69 123.29
  Q 124.86 130.40 115.74 135.28
  Q 114.01 136.20 107.11 137.24
  Q 99.44 136.03 96.77 137.64
  Q 96.69 136.19 97.04 133.24
  Q 97.30 131.03 95.71 129.80
  Q 91.40 126.46 84.61 122.90
  C 80.96 120.99 75.88 121.24 72.09 121.42
  A 0.40 0.33 19.4 0 0 71.90 121.49
  L 71.52 121.79
  A 0.19 0.19 0.0 0 1 71.26 121.77
  Q 71.06 121.57 71.45 121.28
  A 0.12 0.12 0.0 0 0 71.36 121.07
  Q 70.40 121.24 69.06 120.26
  A 0.33 0.33 0.0 0 1 69.26 119.66
  L 69.79 119.66
  A 0.39 0.39 0.0 0 0 70.02 118.96
  Q 69.67 118.70 69.01 118.51
  Q 75.77 103.79 81.77 88.78
  Q 84.51 81.93 92.13 79.59
  Q 100.07 77.16 106.72 81.55
  Q 109.32 83.27 112.13 88.41
  Q 118.71 100.45 119.19 101.55
  Q 123.55 111.61 128.69 123.29
  Z"
/>
<path fill="#aedeff" d="
  M 186.31 122.05
  Q 183.13 121.68 179.25 122.15
  C 172.70 122.93 166.64 126.44 161.26 129.82
  A 4.06 4.06 0.0 0 0 159.36 133.22
  L 159.29 139.70
  Q 155.69 139.53 154.82 141.84
  Q 150.05 154.54 145.12 167.51
  Q 141.25 177.67 130.23 179.34
  Q 125.04 180.13 121.03 177.00
  C 118.43 174.98 116.11 172.95 114.37 170.33
  Q 111.61 166.20 107.95 159.29
  C 105.78 155.20 104.82 148.53 104.01 144.14
  A 2.01 2.00 -40.8 0 1 104.09 143.10
  Q 105.24 139.67 107.11 137.24
  Q 114.01 136.20 115.74 135.28
  Q 124.86 130.40 128.69 123.29
  Q 131.57 121.74 132.86 118.60
  A 3.92 3.91 -30.9 0 0 133.10 117.65
  L 133.49 114.19
  A 1.68 1.52 60.6 0 1 133.56 113.88
  L 137.93 99.91
  A 5.96 5.61 -24.8 0 1 138.32 98.94
  L 146.29 83.04
  A 0.17 0.02 -52.0 0 1 146.32 82.99
  Q 147.18 81.50 150.67 80.49
  C 156.19 78.87 164.50 77.91 168.59 82.27
  C 171.58 85.45 174.15 89.12 175.90 93.88
  Q 178.26 100.26 182.18 108.85
  Q 184.19 113.26 186.31 122.05
  Z"
/>
<path fill="#383838" d="
  M 96.77 137.64
  Q 90.43 156.37 81.19 172.18
  C 78.74 176.37 73.56 178.63 69.31 179.80
  C 66.06 180.69 60.72 177.88 58.20 176.15
  Q 52.91 172.51 51.50 166.63
  Q 50.76 163.55 53.68 155.24
  Q 57.65 143.95 63.16 133.60
  C 65.67 128.88 67.20 123.63 69.01 118.51
  Q 69.67 118.70 70.02 118.96
  A 0.39 0.39 0.0 0 1 69.79 119.66
  L 69.26 119.66
  A 0.33 0.33 0.0 0 0 69.06 120.26
  Q 70.40 121.24 71.36 121.07
  A 0.12 0.12 0.0 0 1 71.45 121.28
  Q 71.06 121.57 71.26 121.77
  A 0.19 0.19 0.0 0 0 71.52 121.79
  L 71.90 121.49
  A 0.40 0.33 19.4 0 1 72.09 121.42
  C 75.88 121.24 80.96 120.99 84.61 122.90
  Q 91.40 126.46 95.71 129.80
  Q 97.30 131.03 97.04 133.24
  Q 96.69 136.19 96.77 137.64
  Z"
/>
<path fill="#29a8ff" d="
  M 186.31 122.05
  Q 190.32 126.32 191.60 129.17
  Q 198.34 144.17 203.50 154.84
  C 207.24 162.57 204.82 166.64 200.80 173.08
  C 198.75 176.37 192.29 178.62 188.80 178.99
  C 180.04 179.92 176.50 173.25 172.10 165.44
  Q 170.21 162.09 166.08 151.77
  C 164.48 147.80 161.44 143.81 159.29 139.70
  L 159.36 133.22
  A 4.06 4.06 0.0 0 1 161.26 129.82
  C 166.64 126.44 172.70 122.93 179.25 122.15
  Q 183.13 121.68 186.31 122.05
  Z"
/>
</svg>