<?xml version="1.0" encoding="UTF-8" standalone="no"?>
<!DOCTYPE svg PUBLIC "-//W3C//DTD SVG 1.1//EN" "http://www.w3.org/Graphics/SVG/1.1/DTD/svg11.dtd">
<svg xmlns="http://www.w3.org/2000/svg" version="1.1" viewBox="0.00 0.00 180.00 180.00" width="128" height="128">
<g stroke-width="2.00" fill="none" stroke-linecap="butt">
<path stroke="#8edaba" vector-effect="non-scaling-stroke" d="
  M 168.02 90.50
  A 77.52 77.52 0.0 0 0 90.50 12.98
  A 77.52 77.52 0.0 0 0 12.98 90.50
  A 77.52 77.52 0.0 0 0 90.50 168.02
  A 77.52 77.52 0.0 0 0 168.02 90.50"
/>
<path stroke="#8edaba" vector-effect="non-scaling-stroke" d="
  M 97.24 83.70
  Q 102.92 95.03 108.09 105.40
  C 109.98 109.19 115.76 109.30 117.15 105.13
  Q 133.91 54.90 135.51 50.02
  Q 136.66 46.50 134.75 44.68
  C 110.73 21.78 72.40 20.37 47.80 43.25
  Q 22.56 66.73 27.77 102.55
  Q 28.18 105.40 29.37 107.45
  A 2.63 2.51 5.0 0 0 30.02 108.19
  Q 32.85 110.41 35.82 108.82
  C 37.41 107.97 38.62 105.62 38.24 104.00
  C 26.23 52.95 83.29 16.63 124.75 48.75
  A 1.04 1.03 28.2 0 1 125.10 49.89
  L 111.99 89.89
  A 0.30 0.30 0.0 0 1 111.55 90.05
  Q 111.30 89.89 111.07 89.45
  Q 101.68 70.67 101.27 69.79
  Q 100.01 67.03 98.70 66.13
  C 96.56 64.66 92.48 65.52 91.59 68.15
  Q 82.68 94.56 78.90 106.28
  A 0.40 0.40 0.0 0 1 78.16 106.34
  L 67.15 84.34
  A 3.44 3.43 4.5 0 0 66.03 83.03
  Q 62.13 80.24 58.88 84.06
  A 2.65 2.59 74.8 0 0 58.39 84.94
  L 43.59 130.08
  A 4.41 4.40 34.8 0 0 44.34 134.22
  Q 45.85 136.12 48.42 138.36
  C 72.57 159.35 108.66 159.70 132.68 138.22
  C 150.72 122.08 158.15 98.19 152.14 74.38
  A 4.48 4.48 0.0 0 0 146.59 71.16
  L 146.19 71.27
  A 4.88 4.87 75.7 0 0 142.75 77.07
  Q 148.38 101.47 134.73 121.24
  C 116.22 148.06 78.65 152.11 54.40 130.53
  A 0.99 0.99 0.0 0 1 54.11 129.48
  L 63.61 100.52
  A 0.36 0.36 0.0 0 1 64.27 100.48
  Q 71.81 115.58 74.72 121.39
  Q 75.62 123.17 76.58 123.87
  C 79.46 125.97 83.11 124.45 84.21 121.21
  Q 87.68 110.95 96.69 83.74
  A 0.30 0.30 0.0 0 1 97.24 83.70"
/>
</g>
<path fill="#ffffff" d="
  M 180.00 0.00
  L 180.00 180.00
  L 0.00 180.00
  L 0.00 0.00
  L 180.00 0.00
  Z
  M 168.02 90.50
  A 77.52 77.52 0.0 0 0 90.50 12.98
  A 77.52 77.52 0.0 0 0 12.98 90.50
  A 77.52 77.52 0.0 0 0 90.50 168.02
  A 77.52 77.52 0.0 0 0 168.02 90.50
  Z"
/>
<path fill="#1db575" d="
  M 168.02 90.50
  A 77.52 77.52 0.0 0 1 90.50 168.02
  A 77.52 77.52 0.0 0 1 12.98 90.50
  A 77.52 77.52 0.0 0 1 90.50 12.98
  A 77.52 77.52 0.0 0 1 168.02 90.50
  Z
  M 97.24 83.70
  Q 102.92 95.03 108.09 105.40
  C 109.98 109.19 115.76 109.30 117.15 105.13
  Q 133.91 54.90 135.51 50.02
  Q 136.66 46.50 134.75 44.68
  C 110.73 21.78 72.40 20.37 47.80 43.25
  Q 22.56 66.73 27.77 102.55
  Q 28.18 105.40 29.37 107.45
  A 2.63 2.51 5.0 0 0 30.02 108.19
  Q 32.85 110.41 35.82 108.82
  C 37.41 107.97 38.62 105.62 38.24 104.00
  C 26.23 52.95 83.29 16.63 124.75 48.75
  A 1.04 1.03 28.2 0 1 125.10 49.89
  L 111.99 89.89
  A 0.30 0.30 0.0 0 1 111.55 90.05
  Q 111.30 89.89 111.07 89.45
  Q 101.68 70.67 101.27 69.79
  Q 100.01 67.03 98.70 66.13
  C 96.56 64.66 92.48 65.52 91.59 68.15
  Q 82.68 94.56 78.90 106.28
  A 0.40 0.40 0.0 0 1 78.16 106.34
  L 67.15 84.34
  A 3.44 3.43 4.5 0 0 66.03 83.03
  Q 62.13 80.24 58.88 84.06
  A 2.65 2.59 74.8 0 0 58.39 84.94
  L 43.59 130.08
  A 4.41 4.40 34.8 0 0 44.34 134.22
  Q 45.85 136.12 48.42 138.36
  C 72.57 159.35 108.66 159.70 132.68 138.22
  C 150.72 122.08 158.15 98.19 152.14 74.38
  A 4.48 4.48 0.0 0 0 146.59 71.16
  L 146.19 71.27
  A 4.88 4.87 75.7 0 0 142.75 77.07
  Q 148.38 101.47 134.73 121.24
  C 116.22 148.06 78.65 152.11 54.40 130.53
  A 0.99 0.99 0.0 0 1 54.11 129.48
  L 63.61 100.52
  A 0.36 0.36 0.0 0 1 64.27 100.48
  Q 71.81 115.58 74.72 121.39
  Q 75.62 123.17 76.58 123.87
  C 79.46 125.97 83.11 124.45 84.21 121.21
  Q 87.68 110.95 96.69 83.74
  A 0.30 0.30 0.0 0 1 97.24 83.70
  Z"
/>
<path fill="#ffffff" d="
  M 97.24 83.70
  A 0.30 0.30 0.0 0 0 96.69 83.74
  Q 87.68 110.95 84.21 121.21
  C 83.11 124.45 79.46 125.97 76.58 123.87
  Q 75.62 123.17 74.72 121.39
  Q 71.81 115.58 64.27 100.48
  A 0.36 0.36 0.0 0 0 63.61 100.52
  L 54.11 129.48
  A 0.99 0.99 0.0 0 0 54.40 130.53
  C 78.65 152.11 116.22 148.06 134.73 121.24
  Q 148.38 101.47 142.75 77.07
  A 4.88 4.87 75.7 0 1 146.19 71.27
  L 146.59 71.16
  A 4.48 4.48 0.0 0 1 152.14 74.38
  C 158.15 98.19 150.72 122.08 132.68 138.22
  C 108.66 159.70 72.57 159.35 48.42 138.36
  Q 45.85 136.12 44.34 134.22
  A 4.41 4.40 34.8 0 1 43.59 130.08
  L 58.39 84.94
  A 2.65 2.59 74.8 0 1 58.88 84.06
  Q 62.13 80.24 66.03 83.03
  A 3.44 3.43 4.5 0 1 67.15 84.34
  L 78.16 106.34
  A 0.40 0.40 0.0 0 0 78.90 106.28
  Q 82.68 94.56 91.59 68.15
  C 92.48 65.52 96.56 64.66 98.70 66.13
  Q 100.01 67.03 101.27 69.79
  Q 101.68 70.67 111.07 89.45
  Q 111.30 89.89 111.55 90.05
  A 0.30 0.30 0.0 0 0 111.99 89.89
  L 125.10 49.89
  A 1.04 1.03 28.2 0 0 124.75 48.75
  C 83.29 16.63 26.23 52.95 38.24 104.00
  C 38.62 105.62 37.41 107.97 35.82 108.82
  Q 32.85 110.41 30.02 108.19
  A 2.63 2.51 5.0 0 1 29.37 107.45
  Q 28.18 105.40 27.77 102.55
  Q 22.56 66.73 47.80 43.25
  C 72.40 20.37 110.73 21.78 134.75 44.68
  Q 136.66 46.50 135.51 50.02
  Q 133.91 54.90 117.15 105.13
  C 115.76 109.30 109.98 109.19 108.09 105.40
  Q 102.92 95.03 97.24 83.70
  Z"
/>
</svg>