<?xml version="1.0" encoding="UTF-8" standalone="no"?>
<!DOCTYPE svg PUBLIC "-//W3C//DTD SVG 1.1//EN" "http://www.w3.org/Graphics/SVG/1.1/DTD/svg11.dtd">
<svg xmlns="http://www.w3.org/2000/svg" version="1.1" viewBox="0.00 0.00 256.00 256.00" width="128" height="128">
<g stroke-width="2.00" fill="none" stroke-linecap="butt">
<path stroke="#fadc88" vector-effect="non-scaling-stroke" d="
  M 184.58 74.66
  Q 184.55 74.70 184.54 74.71
  A 0.30 0.29 -74.8 0 1 184.43 74.77
  L 161.02 83.61
  A 0.65 0.63 80.6 0 0 160.60 84.21
  Q 160.60 85.18 160.59 89.73
  Q 160.58 94.29 160.59 95.26
  A 0.65 0.63 -80.5 0 0 161.00 95.86
  L 184.39 104.76
  A 0.30 0.29 75.0 0 1 184.50 104.83
  Q 184.51 104.84 184.54 104.87
  Q 184.57 104.90 184.58 104.92
  A 0.30 0.29 15.2 0 1 184.65 105.02
  L 193.49 128.43
  A 0.65 0.63 -9.4 0 0 194.08 128.85
  Q 195.05 128.86 199.61 128.86
  Q 204.17 128.87 205.14 128.86
  A 0.65 0.63 9.5 0 0 205.74 128.45
  L 214.64 105.06
  A 0.30 0.29 -15.0 0 1 214.70 104.96
  Q 214.71 104.95 214.75 104.91
  Q 214.78 104.88 214.79 104.87
  A 0.30 0.29 -74.8 0 1 214.90 104.81
  L 238.31 95.97
  A 0.65 0.63 80.6 0 0 238.73 95.37
  Q 238.73 94.40 238.74 89.84
  Q 238.75 85.28 238.74 84.31
  A 0.65 0.63 -80.5 0 0 238.33 83.72
  L 214.94 74.81
  A 0.30 0.29 75.0 0 1 214.83 74.75
  Q 214.82 74.74 214.79 74.70
  Q 214.76 74.67 214.75 74.66
  A 0.30 0.29 15.2 0 1 214.68 74.55
  L 205.84 51.14
  A 0.65 0.63 -9.4 0 0 205.24 50.73
  Q 204.28 50.72 199.72 50.71
  Q 195.16 50.71 194.19 50.71
  A 0.65 0.63 9.5 0 0 193.59 51.13
  L 184.69 74.51
  A 0.30 0.29 -15.0 0 1 184.62 74.62
  Q 184.61 74.63 184.58 74.66"
/>
<path stroke="#858486" vector-effect="non-scaling-stroke" d="
  M 97.07 133.50
  C 96.13 132.01 95.42 130.01 94.49 128.62
  Q 88.85 120.27 80.05 117.67
  Q 71.24 115.06 61.22 116.52
  Q 47.35 118.53 40.34 130.33
  Q 38.46 133.49 38.43 133.53
  A 0.43 0.43 0.0 0 1 37.63 133.30
  L 37.63 118.29
  A 0.54 0.54 0.0 0 0 37.09 117.75
  L 17.09 117.75
  A 0.46 0.46 0.0 0 0 16.63 118.21
  L 16.63 205.21
  A 0.42 0.41 90.0 0 0 17.04 205.63
  L 38.96 205.63
  A 0.43 0.42 -90.0 0 0 39.38 205.20
  Q 39.36 164.35 39.39 154.25
  C 39.41 147.11 40.97 139.85 48.30 137.08
  C 54.29 134.81 65.84 134.31 71.97 138.66
  C 75.49 141.15 77.02 147.64 77.08 151.76
  Q 77.15 156.73 77.12 205.31
  A 0.32 0.32 0.0 0 0 77.44 205.63
  L 99.17 205.63
  A 0.63 0.63 0.0 0 0 99.80 205.00
  Q 99.58 177.53 99.88 152.24
  Q 100.07 136.70 115.68 135.59
  C 121.37 135.18 129.00 135.43 132.97 139.06
  C 137.05 142.79 137.77 149.56 137.76 155.00
  Q 137.73 173.70 137.77 205.26
  A 0.37 0.37 0.0 0 0 138.14 205.63
  L 159.89 205.63
  A 0.59 0.59 0.0 0 0 160.48 205.04
  Q 160.56 155.49 160.43 148.50
  C 160.19 136.25 154.88 124.00 143.77 119.07
  Q 133.90 114.68 120.85 116.56
  Q 105.80 118.73 97.67 133.49
  A 0.35 0.35 0.0 0 1 97.07 133.50"
/>
</g>
<path fill="#ffffff" d="
  M 256.00 0.00
  L 256.00 256.00
  L 0.00 256.00
  L 0.00 0.00
  L 256.00 0.00
  Z
  M 184.58 74.66
  Q 184.55 74.70 184.54 74.71
  A 0.30 0.29 -74.8 0 1 184.43 74.77
  L 161.02 83.61
  A 0.65 0.63 80.6 0 0 160.60 84.21
  Q 160.60 85.18 160.59 89.73
  Q 160.58 94.29 160.59 95.26
  A 0.65 0.63 -80.5 0 0 161.00 95.86
  L 184.39 104.76
  A 0.30 0.29 75.0 0 1 184.50 104.83
  Q 184.51 104.84 184.54 104.87
  Q 184.57 104.90 184.58 104.92
  A 0.30 0.29 15.2 0 1 184.65 105.02
  L 193.49 128.43
  A 0.65 0.63 -9.4 0 0 194.08 128.85
  Q 195.05 128.86 199.61 128.86
  Q 204.17 128.87 205.14 128.86
  A 0.65 0.63 9.5 0 0 205.74 128.45
  L 214.64 105.06
  A 0.30 0.29 -15.0 0 1 214.70 104.96
  Q 214.71 104.95 214.75 104.91
  Q 214.78 104.88 214.79 104.87
  A 0.30 0.29 -74.8 0 1 214.90 104.81
  L 238.31 95.97
  A 0.65 0.63 80.6 0 0 238.73 95.37
  Q 238.73 94.40 238.74 89.84
  Q 238.75 85.28 238.74 84.31
  A 0.65 0.63 -80.5 0 0 238.33 83.72
  L 214.94 74.81
  A 0.30 0.29 75.0 0 1 214.83 74.75
  Q 214.82 74.74 214.79 74.70
  Q 214.76 74.67 214.75 74.66
  A 0.30 0.29 15.2 0 1 214.68 74.55
  L 205.84 51.14
  A 0.65 0.63 -9.4 0 0 205.24 50.73
  Q 204.28 50.72 199.72 50.71
  Q 195.16 50.71 194.19 50.71
  A 0.65 0.63 9.5 0 0 193.59 51.13
  L 184.69 74.51
  A 0.30 0.29 -15.0 0 1 184.62 74.62
  Q 184.61 74.63 184.58 74.66
  Z
  M 97.07 133.50
  C 96.13 132.01 95.42 130.01 94.49 128.62
  Q 88.85 120.27 80.05 117.67
  Q 71.24 115.06 61.22 116.52
  Q 47.35 118.53 40.34 130.33
  Q 38.46 133.49 38.43 133.53
  A 0.43 0.43 0.0 0 1 37.63 133.30
  L 37.63 118.29
  A 0.54 0.54 0.0 0 0 37.09 117.75
  L 17.09 117.75
  A 0.46 0.46 0.0 0 0 16.63 118.21
  L 16.63 205.21
  A 0.42 0.41 90.0 0 0 17.04 205.63
  L 38.96 205.63
  A 0.43 0.42 -90.0 0 0 39.38 205.20
  Q 39.36 164.35 39.39 154.25
  C 39.41 147.11 40.97 139.85 48.30 137.08
  C 54.29 134.81 65.84 134.31 71.97 138.66
  C 75.49 141.15 77.02 147.64 77.08 151.76
  Q 77.15 156.73 77.12 205.31
  A 0.32 0.32 0.0 0 0 77.44 205.63
  L 99.17 205.63
  A 0.63 0.63 0.0 0 0 99.80 205.00
  Q 99.58 177.53 99.88 152.24
  Q 100.07 136.70 115.68 135.59
  C 121.37 135.18 129.00 135.43 132.97 139.06
  C 137.05 142.79 137.77 149.56 137.76 155.00
  Q 137.73 173.70 137.77 205.26
  A 0.37 0.37 0.0 0 0 138.14 205.63
  L 159.89 205.63
  A 0.59 0.59 0.0 0 0 160.48 205.04
  Q 160.56 155.49 160.43 148.50
  C 160.19 136.25 154.88 124.00 143.77 119.07
  Q 133.90 114.68 120.85 116.56
  Q 105.80 118.73 97.67 133.49
  A 0.35 0.35 0.0 0 1 97.07 133.50
  Z"
/>
<path fill="#f4b811" d="
  M 199.72 50.71
  Q 204.28 50.72 205.24 50.73
  A 0.65 0.63 -9.4 0 1 205.84 51.14
  L 214.68 74.55
  A 0.30 0.29 15.2 0 0 214.75 74.66
  Q 214.76 74.67 214.79 74.70
  Q 214.82 74.74 214.83 74.75
  A 0.30 0.29 75.0 0 0 214.94 74.81
  L 238.33 83.72
  A 0.65 0.63 -80.5 0 1 238.74 84.31
  Q 238.75 85.28 238.74 89.84
  Q 238.73 94.40 238.73 95.37
  A 0.65 0.63 80.6 0 1 238.31 95.97
  L 214.90 104.81
  A 0.30 0.29 -74.8 0 0 214.79 104.87
  Q 214.78 104.88 214.75 104.91
  Q 214.71 104.95 214.70 104.96
  A 0.30 0.29 -15.0 0 0 214.64 105.06
  L 205.74 128.45
  A 0.65 0.63 9.5 0 1 205.14 128.86
  Q 204.17 128.87 199.61 128.86
  Q 195.05 128.86 194.08 128.85
  A 0.65 0.63 -9.4 0 1 193.49 128.43
  L 184.65 105.02
  A 0.30 0.29 15.2 0 0 184.58 104.92
  Q 184.57 104.90 184.54 104.87
  Q 184.51 104.84 184.50 104.83
  A 0.30 0.29 75.0 0 0 184.39 104.76
  L 161.00 95.86
  A 0.65 0.63 -80.5 0 1 160.59 95.26
  Q 160.58 94.29 160.59 89.73
  Q 160.60 85.18 160.60 84.21
  A 0.65 0.63 80.6 0 1 161.02 83.61
  L 184.43 74.77
  A 0.30 0.29 -74.8 0 0 184.54 74.71
  Q 184.55 74.70 184.58 74.66
  Q 184.61 74.63 184.62 74.62
  A 0.30 0.29 -15.0 0 0 184.69 74.51
  L 193.59 51.13
  A 0.65 0.63 9.5 0 1 194.19 50.71
  Q 195.16 50.71 199.72 50.71
  Z"
/>
<path fill="#0a090c" d="
  M 97.07 133.50
  A 0.35 0.35 0.0 0 0 97.67 133.49
  Q 105.80 118.73 120.85 116.56
  Q 133.90 114.68 143.77 119.07
  C 154.88 124.00 160.19 136.25 160.43 148.50
  Q 160.56 155.49 160.48 205.04
  A 0.59 0.59 0.0 0 1 159.89 205.63
  L 138.14 205.63
  A 0.37 0.37 0.0 0 1 137.77 205.26
  Q 137.73 173.70 137.76 155.00
  C 137.77 149.56 137.05 142.79 132.97 139.06
  C 129.00 135.43 121.37 135.18 115.68 135.59
  Q 100.07 136.70 99.88 152.24
  Q 99.58 177.53 99.80 205.00
  A 0.63 0.63 0.0 0 1 99.17 205.63
  L 77.44 205.63
  A 0.32 0.32 0.0 0 1 77.12 205.31
  Q 77.15 156.73 77.08 151.76
  C 77.02 147.64 75.49 141.15 71.97 138.66
  C 65.84 134.31 54.29 134.81 48.30 137.08
  C 40.97 139.85 39.41 147.11 39.39 154.25
  Q 39.36 164.35 39.38 205.20
  A 0.43 0.42 90.0 0 1 38.96 205.63
  L 17.04 205.63
  A 0.42 0.41 90.0 0 1 16.63 205.21
  L 16.63 118.21
  A 0.46 0.46 0.0 0 1 17.09 117.75
  L 37.09 117.75
  A 0.54 0.54 0.0 0 1 37.63 118.29
  L 37.63 133.30
  A 0.43 0.43 0.0 0 0 38.43 133.53
  Q 38.46 133.49 40.34 130.33
  Q 47.35 118.53 61.22 116.52
  Q 71.24 115.06 80.05 117.67
  Q 88.85 120.27 94.49 128.62
  C 95.42 130.01 96.13 132.01 97.07 133.50
  Z"
/>
</svg>