<?xml version="1.0" encoding="UTF-8" standalone="no"?>
<!DOCTYPE svg PUBLIC "-//W3C//DTD SVG 1.1//EN" "http://www.w3.org/Graphics/SVG/1.1/DTD/svg11.dtd">
<svg xmlns="http://www.w3.org/2000/svg" version="1.1" viewBox="0.00 0.00 256.00 256.00" width="128" height="128">
<g stroke-width="2.00" fill="none" stroke-linecap="butt">
<path stroke="#f4f5f6" vector-effect="non-scaling-stroke" d="
  M 160.04 30.04
  C 161.49 30.80 162.32 32.28 163.68 32.78
  Q 166.29 33.74 168.64 33.82
  Q 177.64 34.13 183.66 34.79
  Q 200.33 36.61 210.95 48.80
  Q 219.27 58.35 220.52 68.51
  Q 221.83 79.19 221.91 86.54
  Q 222.11 105.27 221.95 163.50
  Q 221.92 175.54 220.77 185.08
  Q 219.97 191.80 217.86 196.38
  C 211.78 209.59 199.41 219.55 184.43 220.93
  Q 174.09 221.89 164.50 221.94
  Q 127.30 222.13 94.00 222.04
  Q 80.89 222.01 70.25 220.78
  C 55.59 219.09 43.00 208.48 37.42 195.12
  C 36.59 193.12 36.18 190.27 35.55 188.15
  A 0.57 0.56 -18.3 0 0 34.81 187.78
  Q 33.23 188.37 31.89 189.85"
/>
<path stroke="#9a9b9d" vector-effect="non-scaling-stroke" d="
  M 127.78 153.01
  Q 132.58 153.01 135.02 150.27
  Q 173.90 106.85 174.93 105.68
  C 176.70 103.69 182.28 104.10 183.54 104.25
  A 1.82 1.82 0.0 0 0 185.59 102.47
  L 185.65 98.62
  A 2.24 2.24 0.0 0 0 183.43 96.35
  C 178.29 96.31 173.88 96.05 170.64 98.91
  Q 168.91 100.44 166.58 103.07
  Q 135.11 138.45 131.85 142.11
  C 130.41 143.73 129.45 145.10 127.78 145.10
  C 126.12 145.10 125.15 143.73 123.71 142.11
  Q 120.45 138.45 88.98 103.08
  Q 86.65 100.45 84.92 98.92
  C 81.68 96.06 77.27 96.32 72.13 96.36
  A 2.24 2.24 0.0 0 0 69.91 98.63
  L 69.97 102.48
  A 1.82 1.82 0.0 0 0 72.02 104.26
  C 73.28 104.11 78.86 103.70 80.63 105.69
  Q 81.66 106.86 120.54 150.28
  Q 122.99 153.01 127.78 153.01"
/>
<path stroke="#9a9b9d" vector-effect="non-scaling-stroke" d="
  M 95.12 134.10
  L 80.78 150.25
  A 4.13 4.10 -68.9 0 1 77.72 151.62
  L 71.95 151.62
  A 1.98 1.98 0.0 0 0 69.97 153.60
  L 69.97 157.55
  A 2.08 2.08 0.0 0 0 72.00 159.63
  Q 77.37 159.75 79.04 159.51
  C 84.33 158.74 86.65 155.61 90.44 151.32
  Q 94.22 147.05 100.52 139.94
  A 0.64 0.63 44.0 0 0 100.50 139.07
  L 95.51 134.09
  A 0.26 0.26 0.0 0 0 95.12 134.10"
/>
<path stroke="#9a9b9d" vector-effect="non-scaling-stroke" d="
  M 160.91 134.12
  A 0.26 0.26 0.0 0 0 160.52 134.11
  L 155.53 139.09
  A 0.64 0.63 -44.0 0 0 155.51 139.96
  Q 161.80 147.06 165.58 151.33
  C 169.36 155.61 171.68 158.74 176.97 159.51
  Q 178.64 159.75 184.00 159.63
  A 2.08 2.08 0.0 0 0 186.03 157.55
  L 186.03 153.61
  A 1.98 1.98 0.0 0 0 184.05 151.63
  L 178.29 151.63
  A 4.13 4.09 68.9 0 1 175.23 150.26
  L 160.91 134.12"
/>
</g>
<path fill="#ffffff" d="
  M 160.04 30.04
  C 161.49 30.80 162.32 32.28 163.68 32.78
  Q 166.29 33.74 168.64 33.82
  Q 177.64 34.13 183.66 34.79
  Q 200.33 36.61 210.95 48.80
  Q 219.27 58.35 220.52 68.51
  Q 221.83 79.19 221.91 86.54
  Q 222.11 105.27 221.95 163.50
  Q 221.92 175.54 220.77 185.08
  Q 219.97 191.80 217.86 196.38
  C 211.78 209.59 199.41 219.55 184.43 220.93
  Q 174.09 221.89 164.50 221.94
  Q 127.30 222.13 94.00 222.04
  Q 80.89 222.01 70.25 220.78
  C 55.59 219.09 43.00 208.48 37.42 195.12
  C 36.59 193.12 36.18 190.27 35.55 188.15
  A 0.57 0.56 -18.3 0 0 34.81 187.78
  Q 33.23 188.37 31.89 189.85
  Q 30.21 180.12 30.14 170.32
  Q 29.94 140.09 30.01 94.00
  Q 30.03 81.38 30.98 71.73
  Q 32.83 53.09 47.46 40.96
  C 58.71 31.63 70.93 30.37 85.31 30.24
  Q 122.67 29.90 160.04 30.04
  Z
  M 127.78 153.01
  Q 132.58 153.01 135.02 150.27
  Q 173.90 106.85 174.93 105.68
  C 176.70 103.69 182.28 104.10 183.54 104.25
  A 1.82 1.82 0.0 0 0 185.59 102.47
  L 185.65 98.62
  A 2.24 2.24 0.0 0 0 183.43 96.35
  C 178.29 96.31 173.88 96.05 170.64 98.91
  Q 168.91 100.44 166.58 103.07
  Q 135.11 138.45 131.85 142.11
  C 130.41 143.73 129.45 145.10 127.78 145.10
  C 126.12 145.10 125.15 143.73 123.71 142.11
  Q 120.45 138.45 88.98 103.08
  Q 86.65 100.45 84.92 98.92
  C 81.68 96.06 77.27 96.32 72.13 96.36
  A 2.24 2.24 0.0 0 0 69.91 98.63
  L 69.97 102.48
  A 1.82 1.82 0.0 0 0 72.02 104.26
  C 73.28 104.11 78.86 103.70 80.63 105.69
  Q 81.66 106.86 120.54 150.28
  Q 122.99 153.01 127.78 153.01
  Z
  M 95.12 134.10
  L 80.78 150.25
  A 4.13 4.10 -68.9 0 1 77.72 151.62
  L 71.95 151.62
  A 1.98 1.98 0.0 0 0 69.97 153.60
  L 69.97 157.55
  A 2.08 2.08 0.0 0 0 72.00 159.63
  Q 77.37 159.75 79.04 159.51
  C 84.33 158.74 86.65 155.61 90.44 151.32
  Q 94.22 147.05 100.52 139.94
  A 0.64 0.63 44.0 0 0 100.50 139.07
  L 95.51 134.09
  A 0.26 0.26 0.0 0 0 95.12 134.10
  Z
  M 160.91 134.12
  A 0.26 0.26 0.0 0 0 160.52 134.11
  L 155.53 139.09
  A 0.64 0.63 -44.0 0 0 155.51 139.96
  Q 161.80 147.06 165.58 151.33
  C 169.36 155.61 171.68 158.74 176.97 159.51
  Q 178.64 159.75 184.00 159.63
  A 2.08 2.08 0.0 0 0 186.03 157.55
  L 186.03 153.61
  A 1.98 1.98 0.0 0 0 184.05 151.63
  L 178.29 151.63
  A 4.13 4.09 68.9 0 1 175.23 150.26
  L 160.91 134.12
  Z"
/>
<path fill="#e9ebed" d="
  M 31.89 189.85
  Q 33.23 188.37 34.81 187.78
  A 0.57 0.56 -18.3 0 1 35.55 188.15
  C 36.18 190.27 36.59 193.12 37.42 195.12
  C 43.00 208.48 55.59 219.09 70.25 220.78
  Q 80.89 222.01 94.00 222.04
  Q 127.30 222.13 164.50 221.94
  Q 174.09 221.89 184.43 220.93
  C 199.41 219.55 211.78 209.59 217.86 196.38
  Q 219.97 191.80 220.77 185.08
  Q 221.92 175.54 221.95 163.50
  Q 222.11 105.27 221.91 86.54
  Q 221.83 79.19 220.52 68.51
  Q 219.27 58.35 210.95 48.80
  Q 200.33 36.61 183.66 34.79
  Q 177.64 34.13 168.64 33.82
  Q 166.29 33.74 163.68 32.78
  C 162.32 32.28 161.49 30.80 160.04 30.04
  Q 175.88 29.83 185.37 31.07
  Q 204.44 33.57 216.26 49.00
  C 224.47 59.70 225.67 71.86 225.84 85.00
  Q 226.15 107.78 225.94 165.00
  C 225.91 173.91 225.78 186.14 223.08 194.09
  C 217.87 209.38 204.57 221.67 188.40 224.40
  Q 181.16 225.63 170.98 225.84
  Q 159.27 226.09 95.00 225.98
  C 81.13 225.95 65.08 226.42 53.10 219.07
  Q 39.96 211.00 33.73 196.51
  Q 32.81 194.38 31.89 189.85
  Z"
/>
<path fill="#34363a" d="
  M 127.78 145.10
  C 129.45 145.10 130.41 143.73 131.85 142.11
  Q 135.11 138.45 166.58 103.07
  Q 168.91 100.44 170.64 98.91
  C 173.88 96.05 178.29 96.31 183.43 96.35
  A 2.24 2.24 0.0 0 1 185.65 98.62
  L 185.59 102.47
  A 1.82 1.82 0.0 0 1 183.54 104.25
  C 182.28 104.10 176.70 103.69 174.93 105.68
  Q 173.90 106.85 135.02 150.27
  Q 132.58 153.01 127.78 153.01
  Q 122.99 153.01 120.54 150.28
  Q 81.66 106.86 80.63 105.69
  C 78.86 103.70 73.28 104.11 72.02 104.26
  A 1.82 1.82 0.0 0 1 69.97 102.48
  L 69.91 98.63
  A 2.24 2.24 0.0 0 1 72.13 96.36
  C 77.27 96.32 81.68 96.06 84.92 98.92
  Q 86.65 100.45 88.98 103.08
  Q 120.45 138.45 123.71 142.11
  C 125.15 143.73 126.12 145.10 127.78 145.10
  Z"
/>
<path fill="#34363a" d="
  M 95.12 134.10
  A 0.26 0.26 0.0 0 1 95.51 134.09
  L 100.50 139.07
  A 0.64 0.63 44.0 0 1 100.52 139.94
  Q 94.22 147.05 90.44 151.32
  C 86.65 155.61 84.33 158.74 79.04 159.51
  Q 77.37 159.75 72.00 159.63
  A 2.08 2.08 0.0 0 1 69.97 157.55
  L 69.97 153.60
  A 1.98 1.98 0.0 0 1 71.95 151.62
  L 77.72 151.62
  A 4.13 4.10 -68.9 0 0 80.78 150.25
  L 95.12 134.10
  Z"
/>
<path fill="#34363a" d="
  M 160.91 134.12
  L 175.23 150.26
  A 4.13 4.09 68.9 0 0 178.29 151.63
  L 184.05 151.63
  A 1.98 1.98 0.0 0 1 186.03 153.61
  L 186.03 157.55
  A 2.08 2.08 0.0 0 1 184.00 159.63
  Q 178.64 159.75 176.97 159.51
  C 171.68 158.74 169.36 155.61 165.58 151.33
  Q 161.80 147.06 155.51 139.96
  A 0.64 0.63 -44.0 0 1 155.53 139.09
  L 160.52 134.11
  A 0.26 0.26 0.0 0 1 160.91 134.12
  Z"
/>
</svg>