<?xml version="1.0" encoding="UTF-8" standalone="no"?>
<!DOCTYPE svg PUBLIC "-//W3C//DTD SVG 1.1//EN" "http://www.w3.org/Graphics/SVG/1.1/DTD/svg11.dtd">
<svg xmlns="http://www.w3.org/2000/svg" version="1.1" viewBox="0.00 0.00 256.00 256.00" width="128" height="128">
<g stroke-width="2.00" fill="none" stroke-linecap="butt">
<path stroke="#8c8da7" vector-effect="non-scaling-stroke" d="
  M 34.93 204.33
  Q 36.67 205.93 38.26 206.07
  C 43.90 206.53 51.08 205.72 55.95 205.86
  C 63.29 206.08 70.84 207.81 73.93 202.15
  C 76.54 197.36 78.82 191.66 81.99 185.83
  C 84.98 180.36 86.96 175.08 90.04 169.68
  C 93.06 164.38 95.40 158.15 98.35 153.04
  Q 99.34 151.33 102.99 143.99
  Q 103.03 143.90 105.88 138.81
  Q 108.60 133.95 109.29 128.29"
/>
<path stroke="#e29eef" vector-effect="non-scaling-stroke" d="
  M 109.29 128.29
  Q 110.71 127.78 110.60 130.25
  Q 110.44 133.60 110.82 135.88
  Q 111.71 141.25 111.08 146.60
  Q 110.79 149.11 110.58 153.66
  Q 109.83 170.00 110.70 185.43
  C 110.93 189.63 110.47 194.90 110.93 199.71"
/>
<path stroke="#8c8da7" vector-effect="non-scaling-stroke" d="
  M 110.93 199.71
  L 111.13 203.30
  A 2.63 2.63 0.0 0 0 112.73 205.58
  C 114.40 206.28 116.33 206.40 118.09 206.27
  Q 128.41 205.51 137.50 206.14
  C 140.31 206.34 147.64 205.95 149.19 202.97
  C 151.62 198.33 153.60 194.90 155.53 190.91
  Q 164.29 172.81 172.15 158.00
  C 173.99 154.53 175.41 150.54 177.42 146.96
  Q 179.03 144.09 180.80 140.35
  Q 182.44 136.89 184.06 133.68"
/>
<path stroke="#e29eef" vector-effect="non-scaling-stroke" d="
  M 184.06 133.68
  L 185.79 132.10
  A 0.51 0.51 0.0 0 1 186.62 132.33
  Q 187.99 136.94 187.63 140.95
  A 0.07 0.07 0.0 0 1 187.50 140.95
  L 187.47 140.41
  A 0.05 0.05 0.0 0 0 187.37 140.41
  Q 186.78 150.46 186.40 155.24
  C 185.75 163.48 186.86 177.99 186.41 190.42
  Q 186.25 194.84 186.70 200.76
  C 187.00 204.81 189.51 205.78 193.29 205.65
  C 196.46 205.53 198.12 205.52 200.98 205.93
  Q 210.96 207.37 221.28 204.05
  A 3.39 3.39 0.0 0 0 223.59 201.34
  C 224.29 196.88 224.93 191.76 224.91 186.53
  Q 224.70 135.05 224.68 91.25
  Q 224.67 79.47 225.08 68.80
  A 9.32 8.73 -50.2 0 0 224.98 67.10
  Q 224.22 62.26 224.69 57.49
  A 2.34 2.18 -53.0 0 0 224.60 56.62
  Q 223.72 53.91 221.74 53.76
  Q 208.67 52.75 193.51 53.55
  Q 188.11 53.83 185.87 56.45"
/>
<path stroke="#8c8da7" vector-effect="non-scaling-stroke" d="
  M 185.87 56.45
  Q 182.57 61.09 178.62 69.37
  C 177.19 72.38 174.67 76.45 172.98 80.00
  Q 167.01 92.51 161.17 105.03
  Q 159.71 108.14 155.11 116.46
  Q 151.94 122.18 149.31 128.03"
/>
<path stroke="#e29eef" vector-effect="non-scaling-stroke" d="
  M 149.31 128.03
  L 148.15 128.17
  A 1.62 1.62 0.0 0 1 146.36 126.29
  Q 147.73 118.17 147.93 110.50
  Q 148.53 88.38 148.36 70.02
  C 148.33 65.89 147.80 62.08 148.00 58.69
  C 148.15 56.23 147.20 53.84 144.75 53.69
  Q 133.18 52.99 114.07 53.52
  Q 111.43 53.59 109.29 56.92"
/>
<path stroke="#8c8da7" vector-effect="non-scaling-stroke" d="
  M 109.29 56.92
  Q 107.29 61.22 104.77 65.24
  Q 101.57 70.33 100.13 73.45
  Q 91.12 92.92 81.38 112.04
  Q 81.05 112.67 77.46 120.17
  Q 75.10 125.11 72.09 129.72"
/>
<path stroke="#e29eef" vector-effect="non-scaling-stroke" d="
  M 72.09 129.72
  L 70.58 125.70
  A 0.32 0.32 0.0 0 0 69.98 125.72
  L 68.32 131.08
  A 0.10 0.10 0.0 0 1 68.16 131.13
  L 68.12 131.10
  A 0.29 0.28 20.5 0 1 67.94 130.73
  Q 70.02 125.52 70.11 123.08
  Q 70.18 120.74 71.03 115.56
  Q 72.21 108.27 72.17 91.80
  Q 72.15 82.96 72.15 72.79
  Q 72.15 66.35 72.11 65.75
  Q 71.82 61.24 71.93 58.76
  C 72.03 56.51 71.21 53.95 68.98 53.77
  Q 60.46 53.07 38.68 53.80
  C 35.85 53.90 34.21 54.61 33.95 57.45
  C 33.52 62.03 33.76 67.29 33.72 71.07
  Q 33.57 85.36 33.62 140.61
  Q 33.62 151.29 33.78 157.38
  C 34.07 168.29 33.61 178.38 34.10 189.27
  Q 34.43 196.75 34.93 204.33"
/>
<path stroke="#6f2c97" vector-effect="non-scaling-stroke" d="
  M 72.09 129.72
  Q 70.23 134.71 67.62 139.29
  Q 63.85 145.91 60.76 152.87
  C 58.22 158.59 55.02 163.89 52.53 169.56
  Q 51.27 172.45 49.59 174.98
  C 48.53 176.58 47.99 178.40 46.96 179.73
  Q 46.48 180.35 45.29 183.43
  Q 43.82 187.25 40.44 191.43
  Q 39.61 192.46 37.83 196.56
  A 2.95 2.83 -13.6 0 1 37.35 197.31
  Q 35.16 199.69 34.93 204.33"
/>
<path stroke="#6f2c97" vector-effect="non-scaling-stroke" d="
  M 149.31 128.03
  Q 144.27 138.68 138.73 149.08
  C 134.93 156.19 132.27 162.59 128.71 168.55
  Q 127.41 170.73 124.53 177.52
  Q 120.34 187.40 112.46 195.44
  Q 111.44 196.48 111.40 196.64
  Q 111.05 198.14 110.93 199.71"
/>
<path stroke="#6f2c97" vector-effect="non-scaling-stroke" d="
  M 109.29 128.29
  Q 109.90 124.01 109.88 122.50
  C 109.58 103.61 109.65 90.03 110.67 71.74
  Q 110.91 67.57 110.54 64.81
  Q 110.06 61.15 110.91 57.91
  A 0.79 0.78 -82.9 0 0 110.15 56.92
  L 109.29 56.92"
/>
<path stroke="#6f2c97" vector-effect="non-scaling-stroke" d="
  M 184.06 133.68
  Q 185.63 127.91 185.61 125.74
  Q 185.46 107.17 185.24 95.00
  Q 185.15 89.96 186.19 79.99
  Q 186.50 77.07 186.32 74.02
  Q 186.15 71.15 186.45 67.88
  A 3.15 2.55 -39.0 0 1 186.59 67.22
  Q 187.16 65.55 186.80 64.65
  Q 185.95 62.53 186.56 60.67
  Q 187.54 57.69 185.87 56.45"
/>
</g>
<path fill="#ffffff" d="
  M 229.63 0.00
  C 234.61 0.44 239.75 -0.41 243.90 3.18
  C 246.17 5.15 249.36 6.16 251.55 8.81
  Q 255.41 13.48 256.00 19.71
  L 256.00 234.68
  Q 255.57 240.02 253.69 245.93
  C 252.58 249.42 250.73 251.80 247.12 252.83
  Q 245.40 253.32 242.93 254.60
  A 5.20 5.10 -62.7 0 1 241.35 255.12
  L 236.00 256.00
  L 24.78 256.00
  Q 15.85 255.10 7.49 251.63
  A 2.72 2.53 76.5 0 1 6.68 251.09
  Q 4.74 249.21 3.94 247.59
  Q 0.13 239.87 0.00 230.35
  L 0.00 27.12
  C 0.65 23.55 2.73 15.14 5.44 11.95
  Q 9.01 7.74 13.26 4.24
  A 1.00 0.94 -73.4 0 1 13.57 4.06
  L 23.97 0.00
  L 229.63 0.00
  Z
  M 34.93 204.33
  Q 36.67 205.93 38.26 206.07
  C 43.90 206.53 51.08 205.72 55.95 205.86
  C 63.29 206.08 70.84 207.81 73.93 202.15
  C 76.54 197.36 78.82 191.66 81.99 185.83
  C 84.98 180.36 86.96 175.08 90.04 169.68
  C 93.06 164.38 95.40 158.15 98.35 153.04
  Q 99.34 151.33 102.99 143.99
  Q 103.03 143.90 105.88 138.81
  Q 108.60 133.95 109.29 128.29
  Q 110.71 127.78 110.60 130.25
  Q 110.44 133.60 110.82 135.88
  Q 111.71 141.25 111.08 146.60
  Q 110.79 149.11 110.58 153.66
  Q 109.83 170.00 110.70 185.43
  C 110.93 189.63 110.47 194.90 110.93 199.71
  L 111.13 203.30
  A 2.63 2.63 0.0 0 0 112.73 205.58
  C 114.40 206.28 116.33 206.40 118.09 206.27
  Q 128.41 205.51 137.50 206.14
  C 140.31 206.34 147.64 205.95 149.19 202.97
  C 151.62 198.33 153.60 194.90 155.53 190.91
  Q 164.29 172.81 172.15 158.00
  C 173.99 154.53 175.41 150.54 177.42 146.96
  Q 179.03 144.09 180.80 140.35
  Q 182.44 136.89 184.06 133.68
  L 185.79 132.10
  A 0.51 0.51 0.0 0 1 186.62 132.33
  Q 187.99 136.94 187.63 140.95
  A 0.07 0.07 0.0 0 1 187.50 140.95
  L 187.47 140.41
  A 0.05 0.05 0.0 0 0 187.37 140.41
  Q 186.78 150.46 186.40 155.24
  C 185.75 163.48 186.86 177.99 186.41 190.42
  Q 186.25 194.84 186.70 200.76
  C 187.00 204.81 189.51 205.78 193.29 205.65
  C 196.46 205.53 198.12 205.52 200.98 205.93
  Q 210.96 207.37 221.28 204.05
  A 3.39 3.39 0.0 0 0 223.59 201.34
  C 224.29 196.88 224.93 191.76 224.91 186.53
  Q 224.70 135.05 224.68 91.25
  Q 224.67 79.47 225.08 68.80
  A 9.32 8.73 -50.2 0 0 224.98 67.10
  Q 224.22 62.26 224.69 57.49
  A 2.34 2.18 -53.0 0 0 224.60 56.62
  Q 223.72 53.91 221.74 53.76
  Q 208.67 52.75 193.51 53.55
  Q 188.11 53.83 185.87 56.45
  Q 182.57 61.09 178.62 69.37
  C 177.19 72.38 174.67 76.45 172.98 80.00
  Q 167.01 92.51 161.17 105.03
  Q 159.71 108.14 155.11 116.46
  Q 151.94 122.18 149.31 128.03
  L 148.15 128.17
  A 1.62 1.62 0.0 0 1 146.36 126.29
  Q 147.73 118.17 147.93 110.50
  Q 148.53 88.38 148.36 70.02
  C 148.33 65.89 147.80 62.08 148.00 58.69
  C 148.15 56.23 147.20 53.84 144.75 53.69
  Q 133.18 52.99 114.07 53.52
  Q 111.43 53.59 109.29 56.92
  Q 107.29 61.22 104.77 65.24
  Q 101.57 70.33 100.13 73.45
  Q 91.12 92.92 81.38 112.04
  Q 81.05 112.67 77.46 120.17
  Q 75.10 125.11 72.09 129.72
  L 70.58 125.70
  A 0.32 0.32 0.0 0 0 69.98 125.72
  L 68.32 131.08
  A 0.10 0.10 0.0 0 1 68.16 131.13
  L 68.12 131.10
  A 0.29 0.28 20.5 0 1 67.94 130.73
  Q 70.02 125.52 70.11 123.08
  Q 70.18 120.74 71.03 115.56
  Q 72.21 108.27 72.17 91.80
  Q 72.15 82.96 72.15 72.79
  Q 72.15 66.35 72.11 65.75
  Q 71.82 61.24 71.93 58.76
  C 72.03 56.51 71.21 53.95 68.98 53.77
  Q 60.46 53.07 38.68 53.80
  C 35.85 53.90 34.21 54.61 33.95 57.45
  C 33.52 62.03 33.76 67.29 33.72 71.07
  Q 33.57 85.36 33.62 140.61
  Q 33.62 151.29 33.78 157.38
  C 34.07 168.29 33.61 178.38 34.10 189.27
  Q 34.43 196.75 34.93 204.33
  Z"
/>
<path fill="#c53ddf" d="
  M 72.09 129.72
  Q 70.23 134.71 67.62 139.29
  Q 63.85 145.91 60.76 152.87
  C 58.22 158.59 55.02 163.89 52.53 169.56
  Q 51.27 172.45 49.59 174.98
  C 48.53 176.58 47.99 178.40 46.96 179.73
  Q 46.48 180.35 45.29 183.43
  Q 43.82 187.25 40.44 191.43
  Q 39.61 192.46 37.83 196.56
  A 2.95 2.83 -13.6 0 1 37.35 197.31
  Q 35.16 199.69 34.93 204.33
  Q 34.43 196.75 34.10 189.27
  C 33.61 178.38 34.07 168.29 33.78 157.38
  Q 33.62 151.29 33.62 140.61
  Q 33.57 85.36 33.72 71.07
  C 33.76 67.29 33.52 62.03 33.95 57.45
  C 34.21 54.61 35.85 53.90 38.68 53.80
  Q 60.46 53.07 68.98 53.77
  C 71.21 53.95 72.03 56.51 71.93 58.76
  Q 71.82 61.24 72.11 65.75
  Q 72.15 66.35 72.15 72.79
  Q 72.15 82.96 72.17 91.80
  Q 72.21 108.27 71.03 115.56
  Q 70.18 120.74 70.11 123.08
  Q 70.02 125.52 67.94 130.73
  A 0.29 0.28 20.5 0 0 68.12 131.10
  L 68.16 131.13
  A 0.10 0.10 0.0 0 0 68.32 131.08
  L 69.98 125.72
  A 0.32 0.32 0.0 0 1 70.58 125.70
  L 72.09 129.72
  Z"
/>
<path fill="#c53ddf" d="
  M 149.31 128.03
  Q 144.27 138.68 138.73 149.08
  C 134.93 156.19 132.27 162.59 128.71 168.55
  Q 127.41 170.73 124.53 177.52
  Q 120.34 187.40 112.46 195.44
  Q 111.44 196.48 111.40 196.64
  Q 111.05 198.14 110.93 199.71
  C 110.47 194.90 110.93 189.63 110.70 185.43
  Q 109.83 170.00 110.58 153.66
  Q 110.79 149.11 111.08 146.60
  Q 111.71 141.25 110.82 135.88
  Q 110.44 133.60 110.60 130.25
  Q 110.71 127.78 109.29 128.29
  Q 109.90 124.01 109.88 122.50
  C 109.58 103.61 109.65 90.03 110.67 71.74
  Q 110.91 67.57 110.54 64.81
  Q 110.06 61.15 110.91 57.91
  A 0.79 0.78 -82.9 0 0 110.15 56.92
  L 109.29 56.92
  Q 111.43 53.59 114.07 53.52
  Q 133.18 52.99 144.75 53.69
  C 147.20 53.84 148.15 56.23 148.00 58.69
  C 147.80 62.08 148.33 65.89 148.36 70.02
  Q 148.53 88.38 147.93 110.50
  Q 147.73 118.17 146.36 126.29
  A 1.62 1.62 0.0 0 0 148.15 128.17
  L 149.31 128.03
  Z"
/>
<path fill="#c53ddf" d="
  M 184.06 133.68
  Q 185.63 127.91 185.61 125.74
  Q 185.46 107.17 185.24 95.00
  Q 185.15 89.96 186.19 79.99
  Q 186.50 77.07 186.32 74.02
  Q 186.15 71.15 186.45 67.88
  A 3.15 2.55 -39.0 0 1 186.59 67.22
  Q 187.16 65.55 186.80 64.65
  Q 185.95 62.53 186.56 60.67
  Q 187.54 57.69 185.87 56.45
  Q 188.11 53.83 193.51 53.55
  Q 208.67 52.75 221.74 53.76
  Q 223.72 53.91 224.60 56.62
  A 2.34 2.18 -53.0 0 1 224.69 57.49
  Q 224.22 62.26 224.98 67.10
  A 9.32 8.73 -50.2 0 1 225.08 68.80
  Q 224.67 79.47 224.68 91.25
  Q 224.70 135.05 224.91 186.53
  C 224.93 191.76 224.29 196.88 223.59 201.34
  A 3.39 3.39 0.0 0 1 221.28 204.05
  Q 210.96 207.37 200.98 205.93
  C 198.12 205.52 196.46 205.53 193.29 205.65
  C 189.51 205.78 187.00 204.81 186.70 200.76
  Q 186.25 194.84 186.41 190.42
  C 186.86 177.99 185.75 163.48 186.40 155.24
  Q 186.78 150.46 187.37 140.41
  A 0.05 0.05 0.0 0 1 187.47 140.41
  L 187.50 140.95
  A 0.07 0.07 0.0 0 0 187.63 140.95
  Q 187.99 136.94 186.62 132.33
  A 0.51 0.51 0.0 0 0 185.79 132.10
  L 184.06 133.68
  Z"
/>
<path fill="#191b4f" d="
  M 184.06 133.68
  Q 182.44 136.89 180.80 140.35
  Q 179.03 144.09 177.42 146.96
  C 175.41 150.54 173.99 154.53 172.15 158.00
  Q 164.29 172.81 155.53 190.91
  C 153.60 194.90 151.62 198.33 149.19 202.97
  C 147.64 205.95 140.31 206.34 137.50 206.14
  Q 128.41 205.51 118.09 206.27
  C 116.33 206.40 114.40 206.28 112.73 205.58
  A 2.63 2.63 0.0 0 1 111.13 203.30
  L 110.93 199.71
  Q 111.05 198.14 111.40 196.64
  Q 111.44 196.48 112.46 195.44
  Q 120.34 187.40 124.53 177.52
  Q 127.41 170.73 128.71 168.55
  C 132.27 162.59 134.93 156.19 138.73 149.08
  Q 144.27 138.68 149.31 128.03
  Q 151.94 122.18 155.11 116.46
  Q 159.71 108.14 161.17 105.03
  Q 167.01 92.51 172.98 80.00
  C 174.67 76.45 177.19 72.38 178.62 69.37
  Q 182.57 61.09 185.87 56.45
  Q 187.54 57.69 186.56 60.67
  Q 185.95 62.53 186.80 64.65
  Q 187.16 65.55 186.59 67.22
  A 3.15 2.55 -39.0 0 0 186.45 67.88
  Q 186.15 71.15 186.32 74.02
  Q 186.50 77.07 186.19 79.99
  Q 185.15 89.96 185.24 95.00
  Q 185.46 107.17 185.61 125.74
  Q 185.63 127.91 184.06 133.68
  Z"
/>
<path fill="#191b4f" d="
  M 109.29 56.92
  L 110.15 56.92
  A 0.79 0.78 -82.9 0 1 110.91 57.91
  Q 110.06 61.15 110.54 64.81
  Q 110.91 67.57 110.67 71.74
  C 109.65 90.03 109.58 103.61 109.88 122.50
  Q 109.90 124.01 109.29 128.29
  Q 108.60 133.95 105.88 138.81
  Q 103.03 143.90 102.99 143.99
  Q 99.34 151.33 98.35 153.04
  C 95.40 158.15 93.06 164.38 90.04 169.68
  C 86.96 175.08 84.98 180.36 81.99 185.83
  C 78.82 191.66 76.54 197.36 73.93 202.15
  C 70.84 207.81 63.29 206.08 55.95 205.86
  C 51.08 205.72 43.90 206.53 38.26 206.07
  Q 36.67 205.93 34.93 204.33
  Q 35.16 199.69 37.35 197.31
  A 2.95 2.83 -13.6 0 0 37.83 196.56
  Q 39.61 192.46 40.44 191.43
  Q 43.82 187.25 45.29 183.43
  Q 46.48 180.35 46.96 179.73
  C 47.99 178.40 48.53 176.58 49.59 174.98
  Q 51.27 172.45 52.53 169.56
  C 55.02 163.89 58.22 158.59 60.76 152.87
  Q 63.85 145.91 67.62 139.29
  Q 70.23 134.71 72.09 129.72
  Q 75.10 125.11 77.46 120.17
  Q 81.05 112.67 81.38 112.04
  Q 91.12 92.92 100.13 73.45
  Q 101.57 70.33 104.77 65.24
  Q 107.29 61.22 109.29 56.92
  Z"
/>
</svg>