<?xml version="1.0" encoding="UTF-8" standalone="no"?>
<!DOCTYPE svg PUBLIC "-//W3C//DTD SVG 1.1//EN" "http://www.w3.org/Graphics/SVG/1.1/DTD/svg11.dtd">
<svg xmlns="http://www.w3.org/2000/svg" version="1.1" viewBox="0.00 0.00 190.00 190.00" width="128" height="128">
<g stroke-width="2.00" fill="none" stroke-linecap="butt">
<path stroke="#808080" vector-effect="non-scaling-stroke" d="
  M 155.48 79.96
  A 60.48 60.48 0.0 0 0 95.00 19.48
  A 60.48 60.48 0.0 0 0 34.52 79.96
  A 60.48 60.48 0.0 0 0 95.00 140.44
  A 60.48 60.48 0.0 0 0 155.48 79.96"
/>
<path stroke="#808080" vector-effect="non-scaling-stroke" d="
  M 73.00 161.25
  C 73.20 169.14 81.13 173.89 87.30 168.13
  A 0.56 0.55 -44.3 0 0 87.32 167.33
  L 85.35 165.36
  A 0.44 0.44 0.0 0 0 84.71 165.38
  C 81.63 168.84 77.58 165.52 77.50 161.75
  Q 77.50 161.45 77.49 161.14
  Q 77.48 160.83 77.47 160.52
  C 77.36 156.75 81.24 153.23 84.49 156.53
  A 0.44 0.44 0.0 0 0 85.13 156.52
  L 87.00 154.45
  A 0.56 0.55 41.4 0 0 86.94 153.66
  C 80.49 148.22 72.80 153.36 73.00 161.25"
/>
<path stroke="#808080" vector-effect="non-scaling-stroke" d="
  M 96.3531 151.3200
  A 9.67 8.51 -90.1 0 0 87.8600 161.0049
  A 9.67 8.51 -90.1 0 0 96.3869 170.6600
  A 9.67 8.51 -90.1 0 0 104.8800 160.9751
  A 9.67 8.51 -90.1 0 0 96.3531 151.3200"
/>
<path stroke="#808080" vector-effect="non-scaling-stroke" d="
  M 116.37 168.51
  Q 117.18 168.51 117.24 168.49
  A 1.04 1.03 -89.2 0 0 117.84 167.90
  L 121.09 159.44
  A 0.09 0.09 0.0 0 1 121.27 159.48
  Q 120.82 164.01 121.04 169.92
  A 0.35 0.35 0.0 0 0 121.39 170.25
  L 124.67 170.25
  A 0.33 0.33 0.0 0 0 125.00 169.92
  L 125.00 152.33
  A 0.58 0.58 0.0 0 0 124.42 151.75
  L 120.95 151.75
  A 0.93 0.92 -79.3 0 0 120.09 152.34
  Q 118.10 157.45 116.67 162.04
  Q 116.55 162.41 116.38 162.41
  Q 116.20 162.41 116.09 162.04
  Q 114.66 157.45 112.68 152.33
  A 0.93 0.92 79.4 0 0 111.83 151.74
  L 108.36 151.73
  A 0.58 0.58 0.0 0 0 107.77 152.31
  L 107.74 169.90
  A 0.33 0.33 0.0 0 0 108.07 170.23
  L 111.35 170.24
  A 0.35 0.35 0.0 0 0 111.70 169.91
  Q 111.93 164.00 111.49 159.47
  A 0.09 0.09 0.0 0 1 111.67 159.43
  L 114.91 167.90
  A 1.04 1.03 89.3 0 0 115.50 168.49
  Q 115.56 168.51 116.37 168.51"
/>
<path stroke="#808080" vector-effect="non-scaling-stroke" d="
  M 70.33 167.80
  A 2.68 2.68 0.0 0 0 67.65 165.12
  A 2.68 2.68 0.0 0 0 64.97 167.80
  A 2.68 2.68 0.0 0 0 67.65 170.48
  A 2.68 2.68 0.0 0 0 70.33 167.80"
/>
<path stroke="#808080" vector-effect="non-scaling-stroke" d="
  M 138.16 79.99
  A 43.22 43.22 0.0 0 0 94.94 36.77
  A 43.22 43.22 0.0 0 0 51.72 79.99
  A 43.22 43.22 0.0 0 0 94.94 123.21
  A 43.22 43.22 0.0 0 0 138.16 79.99"
/>
<path stroke="#808080" vector-effect="non-scaling-stroke" d="
  M 88.23 69.44
  Q 92.92 78.40 85.48 84.47
  Q 82.37 87.00 77.35 86.59"
/>
<path stroke="#9cdaf5" vector-effect="non-scaling-stroke" d="
  M 77.35 86.59
  Q 69.84 85.10 67.92 77.55
  A 0.26 0.26 0.0 0 0 67.41 77.54
  C 61.31 99.23 80.18 119.86 102.46 114.42
  C 119.87 110.18 129.37 91.47 122.56 74.88
  Q 120.25 69.24 116.38 65.49
  C 104.52 54.00 88.01 53.94 75.68 64.38
  A 0.25 0.25 0.0 0 0 75.89 64.81
  Q 83.46 63.28 88.23 69.44"
/>
<path stroke="#1c5b76" vector-effect="non-scaling-stroke" d="
  M 77.35 86.59
  Q 78.75 98.42 88.38 102.51
  C 94.39 105.06 101.42 104.38 106.50 100.25
  C 123.28 86.59 107.78 61.82 88.23 69.44"
/>
<path stroke="#808080" vector-effect="non-scaling-stroke" d="
  M 96.3700 155.2300
  A 5.76 3.95 -90.0 0 0 92.4200 160.9900
  A 5.76 3.95 -90.0 0 0 96.3700 166.7500
  A 5.76 3.95 -90.0 0 0 100.3200 160.9900
  A 5.76 3.95 -90.0 0 0 96.3700 155.2300"
/>
</g>
<path fill="#ffffff" d="
  M 190.00 0.00
  L 190.00 190.00
  L 0.00 190.00
  L 0.00 0.00
  L 190.00 0.00
  Z
  M 155.48 79.96
  A 60.48 60.48 0.0 0 0 95.00 19.48
  A 60.48 60.48 0.0 0 0 34.52 79.96
  A 60.48 60.48 0.0 0 0 95.00 140.44
  A 60.48 60.48 0.0 0 0 155.48 79.96
  Z
  M 73.00 161.25
  C 73.20 169.14 81.13 173.89 87.30 168.13
  A 0.56 0.55 -44.3 0 0 87.32 167.33
  L 85.35 165.36
  A 0.44 0.44 0.0 0 0 84.71 165.38
  C 81.63 168.84 77.58 165.52 77.50 161.75
  Q 77.50 161.45 77.49 161.14
  Q 77.48 160.83 77.47 160.52
  C 77.36 156.75 81.24 153.23 84.49 156.53
  A 0.44 0.44 0.0 0 0 85.13 156.52
  L 87.00 154.45
  A 0.56 0.55 41.4 0 0 86.94 153.66
  C 80.49 148.22 72.80 153.36 73.00 161.25
  Z
  M 96.3531 151.3200
  A 9.67 8.51 -90.1 0 0 87.8600 161.0049
  A 9.67 8.51 -90.1 0 0 96.3869 170.6600
  A 9.67 8.51 -90.1 0 0 104.8800 160.9751
  A 9.67 8.51 -90.1 0 0 96.3531 151.3200
  Z
  M 116.37 168.51
  Q 117.18 168.51 117.24 168.49
  A 1.04 1.03 -89.2 0 0 117.84 167.90
  L 121.09 159.44
  A 0.09 0.09 0.0 0 1 121.27 159.48
  Q 120.82 164.01 121.04 169.92
  A 0.35 0.35 0.0 0 0 121.39 170.25
  L 124.67 170.25
  A 0.33 0.33 0.0 0 0 125.00 169.92
  L 125.00 152.33
  A 0.58 0.58 0.0 0 0 124.42 151.75
  L 120.95 151.75
  A 0.93 0.92 -79.3 0 0 120.09 152.34
  Q 118.10 157.45 116.67 162.04
  Q 116.55 162.41 116.38 162.41
  Q 116.20 162.41 116.09 162.04
  Q 114.66 157.45 112.68 152.33
  A 0.93 0.92 79.4 0 0 111.83 151.74
  L 108.36 151.73
  A 0.58 0.58 0.0 0 0 107.77 152.31
  L 107.74 169.90
  A 0.33 0.33 0.0 0 0 108.07 170.23
  L 111.35 170.24
  A 0.35 0.35 0.0 0 0 111.70 169.91
  Q 111.93 164.00 111.49 159.47
  A 0.09 0.09 0.0 0 1 111.67 159.43
  L 114.91 167.90
  A 1.04 1.03 89.3 0 0 115.50 168.49
  Q 115.56 168.51 116.37 168.51
  Z
  M 70.33 167.80
  A 2.68 2.68 0.0 0 0 67.65 165.12
  A 2.68 2.68 0.0 0 0 64.97 167.80
  A 2.68 2.68 0.0 0 0 67.65 170.48
  A 2.68 2.68 0.0 0 0 70.33 167.80
  Z"
/>
<path fill="#000000" d="
  M 155.48 79.96
  A 60.48 60.48 0.0 0 1 95.00 140.44
  A 60.48 60.48 0.0 0 1 34.52 79.96
  A 60.48 60.48 0.0 0 1 95.00 19.48
  A 60.48 60.48 0.0 0 1 155.48 79.96
  Z
  M 138.16 79.99
  A 43.22 43.22 0.0 0 0 94.94 36.77
  A 43.22 43.22 0.0 0 0 51.72 79.99
  A 43.22 43.22 0.0 0 0 94.94 123.21
  A 43.22 43.22 0.0 0 0 138.16 79.99
  Z"
/>
<path fill="#ffffff" d="
  M 138.16 79.99
  A 43.22 43.22 0.0 0 1 94.94 123.21
  A 43.22 43.22 0.0 0 1 51.72 79.99
  A 43.22 43.22 0.0 0 1 94.94 36.77
  A 43.22 43.22 0.0 0 1 138.16 79.99
  Z
  M 88.23 69.44
  Q 92.92 78.40 85.48 84.47
  Q 82.37 87.00 77.35 86.59
  Q 69.84 85.10 67.92 77.55
  A 0.26 0.26 0.0 0 0 67.41 77.54
  C 61.31 99.23 80.18 119.86 102.46 114.42
  C 119.87 110.18 129.37 91.47 122.56 74.88
  Q 120.25 69.24 116.38 65.49
  C 104.52 54.00 88.01 53.94 75.68 64.38
  A 0.25 0.25 0.0 0 0 75.89 64.81
  Q 83.46 63.28 88.23 69.44
  Z"
/>
<path fill="#38b5eb" d="
  M 77.35 86.59
  Q 78.75 98.42 88.38 102.51
  C 94.39 105.06 101.42 104.38 106.50 100.25
  C 123.28 86.59 107.78 61.82 88.23 69.44
  Q 83.46 63.28 75.89 64.81
  A 0.25 0.25 0.0 0 1 75.68 64.38
  C 88.01 53.94 104.52 54.00 116.38 65.49
  Q 120.25 69.24 122.56 74.88
  C 129.37 91.47 119.87 110.18 102.46 114.42
  C 80.18 119.86 61.31 99.23 67.41 77.54
  A 0.26 0.26 0.0 0 1 67.92 77.55
  Q 69.84 85.10 77.35 86.59
  Z"
/>
<path fill="#000000" d="
  M 77.35 86.59
  Q 82.37 87.00 85.48 84.47
  Q 92.92 78.40 88.23 69.44
  C 107.78 61.82 123.28 86.59 106.50 100.25
  C 101.42 104.38 94.39 105.06 88.38 102.51
  Q 78.75 98.42 77.35 86.59
  Z"
/>
<path fill="#000000" d="
  M 77.49 161.14
  Q 77.50 161.45 77.50 161.75
  C 77.58 165.52 81.63 168.84 84.71 165.38
  A 0.44 0.44 0.0 0 1 85.35 165.36
  L 87.32 167.33
  A 0.56 0.55 -44.3 0 1 87.30 168.13
  C 81.13 173.89 73.20 169.14 73.00 161.25
  C 72.80 153.36 80.49 148.22 86.94 153.66
  A 0.56 0.55 41.4 0 1 87.00 154.45
  L 85.13 156.52
  A 0.44 0.44 0.0 0 1 84.49 156.53
  C 81.24 153.23 77.36 156.75 77.47 160.52
  Q 77.48 160.83 77.49 161.14
  Z"
/>
<path fill="#000000" d="
  M 96.3531 151.3200
  A 9.67 8.51 -90.1 0 1 104.8800 160.9751
  A 9.67 8.51 -90.1 0 1 96.3869 170.6600
  A 9.67 8.51 -90.1 0 1 87.8600 161.0049
  A 9.67 8.51 -90.1 0 1 96.3531 151.3200
  Z
  M 96.3700 155.2300
  A 5.76 3.95 -90.0 0 0 92.4200 160.9900
  A 5.76 3.95 -90.0 0 0 96.3700 166.7500
  A 5.76 3.95 -90.0 0 0 100.3200 160.9900
  A 5.76 3.95 -90.0 0 0 96.3700 155.2300
  Z"
/>
<path fill="#000000" d="
  M 116.38 162.41
  Q 116.55 162.41 116.67 162.04
  Q 118.10 157.45 120.09 152.34
  A 0.93 0.92 -79.3 0 1 120.95 151.75
  L 124.42 151.75
  A 0.58 0.58 0.0 0 1 125.00 152.33
  L 125.00 169.92
  A 0.33 0.33 0.0 0 1 124.67 170.25
  L 121.39 170.25
  A 0.35 0.35 0.0 0 1 121.04 169.92
  Q 120.82 164.01 121.27 159.48
  A 0.09 0.09 0.0 0 0 121.09 159.44
  L 117.84 167.90
  A 1.04 1.03 -89.2 0 1 117.24 168.49
  Q 117.18 168.51 116.37 168.51
  Q 115.56 168.51 115.50 168.49
  A 1.04 1.03 89.3 0 1 114.91 167.90
  L 111.67 159.43
  A 0.09 0.09 0.0 0 0 111.49 159.47
  Q 111.93 164.00 111.70 169.91
  A 0.35 0.35 0.0 0 1 111.35 170.24
  L 108.07 170.23
  A 0.33 0.33 0.0 0 1 107.74 169.90
  L 107.77 152.31
  A 0.58 0.58 0.0 0 1 108.36 151.73
  L 111.83 151.74
  A 0.93 0.92 79.4 0 1 112.68 152.33
  Q 114.66 157.45 116.09 162.04
  Q 116.20 162.41 116.38 162.41
  Z"
/>
<ellipse fill="#ffffff" cx="0.00" cy="0.00" transform="translate(96.37,160.99) rotate(-90.0)" rx="5.76" ry="3.95"/>
<circle fill="#000000" cx="67.65" cy="167.80" r="2.68"/>
</svg>