<?xml version="1.0" encoding="UTF-8" standalone="no"?>
<!DOCTYPE svg PUBLIC "-//W3C//DTD SVG 1.1//EN" "http://www.w3.org/Graphics/SVG/1.1/DTD/svg11.dtd">
<svg xmlns="http://www.w3.org/2000/svg" version="1.1" viewBox="0.00 0.00 512.00 512.00" width="128" height="128">
<g stroke-width="2.00" fill="none" stroke-linecap="butt">
<path stroke="#848884" vector-effect="non-scaling-stroke" d="
  M 512.00 231.74
  C 446.70 328.49 332.68 380.91 216.44 365.39
  C 127.34 353.49 50.28 304.94 0.00 230.33"
/>
<path stroke="#2e353c" vector-effect="non-scaling-stroke" d="
  M 512.00 283.87
  L 511.61 287.80
  A 1.20 1.17 70.8 0 1 511.27 288.53
  Q 492.22 307.98 470.99 325.43
  C 440.66 350.37 406.04 370.10 368.49 383.12
  Q 340.57 392.80 315.49 397.30
  Q 238.94 411.04 160.99 389.21
  C 127.95 379.95 97.22 364.65 68.87 346.20
  Q 49.27 333.44 36.57 321.31
  C 24.46 309.75 14.15 299.24 0.00 287.98"
/>
<path stroke="#252b31" vector-effect="non-scaling-stroke" d="
  M 55.55 424.99
  Q 55.75 427.73 57.08 424.05
  A 0.37 0.36 43.9 0 1 57.76 424.04
  L 76.10 468.96
  A 0.55 0.54 44.9 0 0 77.11 468.96
  L 95.49 424.08
  A 0.56 0.55 -39.9 0 1 96.55 424.17
  L 105.63 467.50
  A 0.93 0.93 0.0 0 0 106.54 468.23
  L 108.71 468.23
  A 0.47 0.47 0.0 0 0 109.17 467.64
  L 108.29 464.21"
/>
<path stroke="#464f5a" vector-effect="non-scaling-stroke" d="
  M 108.29 464.21
  Q 109.15 464.32 108.84 462.78
  Q 101.23 425.41 97.49 407.92
  A 0.36 0.36 0.0 0 0 96.80 407.86
  L 76.99 456.24
  A 0.42 0.41 -44.8 0 1 76.22 456.24
  L 56.44 407.82
  A 0.36 0.36 0.0 0 0 55.76 407.88
  L 44.12 463.18
  A 0.85 0.85 0.0 0 0 44.95 464.21
  L 46.39 464.21
  A 1.18 1.16 5.7 0 0 47.54 463.28
  L 55.55 424.99"
/>
<path stroke="#363c45" vector-effect="non-scaling-stroke" d="
  M 108.29 464.21
  Q 105.90 464.53 105.62 463.13
  Q 101.09 440.47 96.38 419.04
  A 0.27 0.26 50.0 0 0 95.87 418.99
  Q 93.90 423.92 77.12 464.86
  Q 76.77 465.72 76.22 465.18
  A 0.28 0.10 70.7 0 1 76.18 465.13
  L 57.35 419.02
  A 0.27 0.27 0.0 0 0 56.83 419.06
  L 55.55 424.99"
/>
<path stroke="#252b31" vector-effect="non-scaling-stroke" d="
  M 110.21 442.31
  Q 109.98 442.30 109.84 442.35
  Q 109.39 442.52 109.48 443.03
  Q 112.00 457.16 122.56 464.03
  C 133.58 471.20 145.71 470.23 156.41 463.02
  A 1.03 1.03 0.0 0 1 157.50 462.98
  C 159.14 463.90 160.91 465.25 162.30 465.88
  Q 177.89 472.90 191.67 463.94
  Q 202.76 456.74 203.59 444.21"
/>
<path stroke="#464f5a" vector-effect="non-scaling-stroke" d="
  M 203.59 444.21
  Q 207.28 424.59 192.52 413.72
  C 183.52 407.09 170.60 405.71 160.49 412.25
  Q 157.93 413.90 157.42 414.17
  A 0.99 0.98 -43.0 0 1 156.48 414.14
  C 154.87 413.19 152.23 411.24 150.07 410.40
  Q 134.28 404.23 121.32 413.85
  Q 107.38 424.19 110.21 442.31"
/>
<path stroke="#363c45" vector-effect="non-scaling-stroke" d="
  M 203.59 444.21
  Q 198.91 456.70 188.27 462.00
  C 178.14 467.05 167.00 465.98 158.01 459.27
  A 1.61 1.60 -44.3 0 0 156.13 459.25
  Q 140.91 469.98 124.45 461.40
  Q 113.42 455.64 110.21 442.31"
/>
<path stroke="#252b31" vector-effect="non-scaling-stroke" d="
  M 281.06 443.84
  Q 283.14 459.28 296.47 465.70
  C 307.04 470.78 318.11 469.80 327.36 462.74
  A 2.02 2.02 0.0 0 0 327.95 462.02
  Q 328.85 460.13 328.01 458.23"
/>
<path stroke="#747a75" vector-effect="non-scaling-stroke" d="
  M 328.01 458.23
  Q 328.68 456.17 328.21 453.80
  A 0.28 0.28 0.0 0 0 327.74 453.66
  C 320.63 460.75 310.11 463.64 300.60 459.61
  Q 285.86 453.37 284.23 438.28"
/>
<path stroke="#252b31" vector-effect="non-scaling-stroke" d="
  M 284.23 438.28
  Q 285.01 432.55 287.72 428.19
  C 295.43 415.74 310.35 411.71 322.80 419.52
  Q 324.71 420.72 327.79 423.49
  A 0.28 0.28 0.0 0 0 328.26 423.32
  Q 328.50 421.53 328.01 419.69"
/>
<path stroke="#747a75" vector-effect="non-scaling-stroke" d="
  M 328.01 419.69
  Q 329.42 415.34 325.68 413.07
  Q 309.95 403.51 294.52 412.60
  Q 286.20 417.50 282.71 425.73
  Q 279.34 433.68 281.06 443.84"
/>
<path stroke="#646860" vector-effect="non-scaling-stroke" d="
  M 328.01 419.69
  C 321.36 412.68 311.11 409.68 301.83 412.95
  C 291.01 416.77 283.35 426.37 284.23 438.28"
/>
<path stroke="#646860" vector-effect="non-scaling-stroke" d="
  M 328.01 458.23
  Q 314.29 469.02 298.87 462.90
  Q 286.36 457.94 281.06 443.84"
/>
<path stroke="#252b31" vector-effect="non-scaling-stroke" d="
  M 212.18 420.87
  L 258.22 469.08
  A 0.51 0.50 21.9 0 0 259.09 468.71
  L 258.96 465.72"
/>
<path stroke="#464f5a" vector-effect="non-scaling-stroke" d="
  M 258.96 465.72
  L 259.16 409.63
  A 0.82 0.81 -0.0 0 0 258.34 408.82
  L 256.05 408.82
  A 0.34 0.34 0.0 0 0 255.71 409.16
  L 255.71 456.27
  A 0.32 0.32 0.0 0 1 255.16 456.49
  L 209.26 408.69
  A 0.29 0.29 0.0 0 0 208.76 408.89
  L 208.76 463.11
  A 1.07 1.07 0.0 0 0 209.83 464.18
  L 211.22 464.18
  A 0.88 0.88 0.0 0 0 212.10 463.31
  L 212.18 420.87"
/>
<path stroke="#363c45" vector-effect="non-scaling-stroke" d="
  M 258.96 465.72
  L 212.84 417.43
  A 0.48 0.48 0.0 0 0 212.02 417.78
  L 212.18 420.87"
/>
<path stroke="#252b31" vector-effect="non-scaling-stroke" d="
  M 337.27 464.24
  Q 336.83 466.08 337.34 467.69
  A 0.79 0.78 80.6 0 0 338.08 468.23
  L 354.23 468.23
  A 0.71 0.71 0.0 0 0 354.91 467.72
  Q 355.43 465.94 354.61 464.29"
/>
<path stroke="#747a75" vector-effect="non-scaling-stroke" d="
  M 354.61 464.29
  Q 355.49 463.02 354.95 461.29
  A 0.71 0.70 -8.2 0 0 354.27 460.79
  L 341.19 460.79
  A 0.39 0.39 0.0 0 1 340.80 460.40
  L 340.80 409.33
  A 0.54 0.53 -90.0 0 0 340.27 408.79
  L 337.75 408.79
  A 0.57 0.56 90.0 0 0 337.19 409.36
  L 337.27 464.24"
/>
<path stroke="#646860" vector-effect="non-scaling-stroke" d="
  M 354.61 464.29
  L 337.27 464.24"
/>
<path stroke="#252b31" vector-effect="non-scaling-stroke" d="
  M 361.58 464.25
  Q 360.96 466.27 361.68 467.76
  A 0.83 0.82 76.6 0 0 362.42 468.22
  L 387.37 468.22
  A 0.82 0.80 12.8 0 0 388.10 467.77
  Q 388.82 466.26 387.96 464.34"
/>
<path stroke="#747a75" vector-effect="non-scaling-stroke" d="
  M 387.96 464.34
  Q 388.48 463.02 388.18 461.35
  A 0.64 0.64 0.0 0 0 387.55 460.82
  L 365.48 460.82
  A 0.40 0.40 0.0 0 1 365.08 460.42
  L 365.08 439.46"
/>
<path stroke="#252b31" vector-effect="non-scaling-stroke" d="
  M 365.08 439.46
  L 386.90 439.49
  A 0.62 0.62 0.0 0 0 387.51 438.99
  Q 387.90 437.18 387.36 435.71"
/>
<path stroke="#747a75" vector-effect="non-scaling-stroke" d="
  M 387.36 435.71
  Q 387.98 434.09 387.48 432.65
  A 0.70 0.69 80.7 0 0 386.82 432.17
  L 365.74 432.17
  A 0.61 0.60 0.0 0 1 365.13 431.57
  L 365.12 416.23"
/>
<path stroke="#252b31" vector-effect="non-scaling-stroke" d="
  M 365.12 416.23
  L 387.48 416.21
  A 0.68 0.66 -81.9 0 0 388.12 415.72
  Q 388.68 413.76 387.90 412.32"
/>
<path stroke="#747a75" vector-effect="non-scaling-stroke" d="
  M 387.90 412.32
  Q 388.57 411.03 388.15 409.34
  A 0.68 0.68 0.0 0 0 387.49 408.83
  L 361.83 408.83
  A 0.36 0.36 0.0 0 0 361.47 409.20
  L 361.58 464.25"
/>
<path stroke="#646860" vector-effect="non-scaling-stroke" d="
  M 387.90 412.32
  L 365.82 412.35
  A 0.66 0.66 0.0 0 0 365.18 412.84
  Q 364.78 414.32 365.12 416.23"
/>
<path stroke="#646860" vector-effect="non-scaling-stroke" d="
  M 387.36 435.71
  L 365.78 435.78
  A 0.65 0.64 6.1 0 0 365.15 436.28
  Q 364.85 437.57 365.08 439.46"
/>
<path stroke="#646860" vector-effect="non-scaling-stroke" d="
  M 387.96 464.34
  L 361.58 464.25"
/>
<path stroke="#252b31" vector-effect="non-scaling-stroke" d="
  M 401.21 441.67
  Q 402.87 441.95 404.60 444.40
  Q 413.04 456.35 420.01 466.50
  Q 421.63 468.86 424.29 468.18
  A 0.47 0.47 0.0 0 0 424.62 467.60
  L 423.70 464.29"
/>
<path stroke="#747a75" vector-effect="non-scaling-stroke" d="
  M 423.70 464.29
  Q 424.34 464.36 424.63 464.24
  A 0.60 0.59 62.0 0 0 424.90 463.34
  L 410.12 442.24"
/>
<path stroke="#252b31" vector-effect="non-scaling-stroke" d="
  M 410.12 442.24
  Q 423.23 439.13 422.63 428.31"
/>
<path stroke="#747a75" vector-effect="non-scaling-stroke" d="
  M 422.63 428.31
  Q 423.90 421.57 421.75 416.77
  C 417.61 407.51 406.23 408.62 397.99 408.87
  A 0.31 0.31 0.0 0 0 397.69 409.18
  L 397.69 463.32
  A 0.82 0.82 0.0 0 0 398.51 464.14
  L 400.34 464.14
  A 0.85 0.85 0.0 0 0 401.19 463.29
  L 401.21 441.67"
/>
<path stroke="#646860" vector-effect="non-scaling-stroke" d="
  M 422.63 428.31
  Q 418.55 438.10 407.85 438.03
  A 0.38 0.38 0.0 0 0 407.54 438.63
  L 410.12 442.24"
/>
<path stroke="#646860" vector-effect="non-scaling-stroke" d="
  M 423.70 464.29
  Q 421.46 464.56 419.81 462.20
  Q 411.61 450.37 403.20 438.33
  A 1.07 1.07 0.0 0 0 401.26 438.92
  L 401.21 441.67"
/>
<path stroke="#252b31" vector-effect="non-scaling-stroke" d="
  M 436.03 443.78
  Q 437.00 443.51 436.93 442.83
  A 0.62 0.60 19.3 0 1 437.97 442.35
  Q 438.68 443.01 462.93 466.82
  Q 465.13 468.99 467.80 468.06
  A 0.64 0.64 0.0 0 0 467.91 466.91
  Q 466.25 465.92 466.18 464.31"
/>
<path stroke="#747a75" vector-effect="non-scaling-stroke" d="
  M 466.18 464.31
  L 468.20 464.22
  A 0.39 0.39 0.0 0 0 468.46 463.55
  L 442.03 437.48"
/>
<path stroke="#252b31" vector-effect="non-scaling-stroke" d="
  M 442.03 437.48
  L 466.20 413.87
  A 0.64 0.64 0.0 0 0 465.97 412.82
  L 464.07 412.12"
/>
<path stroke="#747a75" vector-effect="non-scaling-stroke" d="
  M 464.07 412.12
  L 466.75 409.48
  A 0.39 0.39 0.0 0 0 466.48 408.82
  L 463.28 408.82
  A 1.59 1.57 -66.6 0 0 462.19 409.26
  L 436.40 434.02
  A 0.23 0.23 0.0 0 1 436.01 433.85
  L 436.01 409.12
  A 0.29 0.28 -0.0 0 0 435.72 408.84
  L 432.64 408.84
  A 0.20 0.20 0.0 0 0 432.44 409.04
  L 432.44 463.39
  A 0.78 0.78 0.0 0 0 433.22 464.17
  L 435.24 464.17
  A 0.76 0.76 0.0 0 0 436.00 463.41
  L 436.03 443.78"
/>
<path stroke="#646860" vector-effect="non-scaling-stroke" d="
  M 464.07 412.12
  L 440.20 435.23
  A 0.33 0.33 0.0 0 0 440.20 435.71
  L 442.03 437.48"
/>
<path stroke="#646860" vector-effect="non-scaling-stroke" d="
  M 466.18 464.31
  Q 464.56 464.47 463.16 463.09
  Q 450.45 450.63 438.12 438.48
  A 1.16 1.16 0.0 0 0 436.15 439.27
  L 436.03 443.78"
/>
<path stroke="#464f5a" vector-effect="non-scaling-stroke" d="
  M 113.31 433.18
  Q 112.74 436.71 113.53 440.49
  Q 115.13 448.18 120.50 453.51
  Q 133.05 465.98 149.71 458.98
  Q 150.89 458.48 152.38 457.39"
/>
<path stroke="#363c45" vector-effect="non-scaling-stroke" d="
  M 152.38 457.39
  Q 154.04 456.75 153.98 455.91
  A 0.47 0.43 -72.2 0 0 153.87 455.67
  Q 148.95 449.99 146.76 442.38"
/>
<path stroke="#464f5a" vector-effect="non-scaling-stroke" d="
  M 146.76 442.38
  Q 146.85 441.01 146.41 436.75
  C 145.76 430.54 148.65 424.89 152.14 419.26"
/>
<path stroke="#363c45" vector-effect="non-scaling-stroke" d="
  M 152.14 419.26
  Q 153.45 418.37 153.88 417.25
  A 0.68 0.67 -63.3 0 0 153.63 416.46
  Q 145.89 411.18 138.01 411.68
  Q 117.87 412.95 113.31 433.18"
/>
<path stroke="#252b31" vector-effect="non-scaling-stroke" d="
  M 152.14 419.26
  C 135.95 410.74 120.00 417.57 114.01 434.01
  A 0.21 0.21 0.0 0 1 113.62 434.01
  L 113.31 433.18"
/>
<path stroke="#252b31" vector-effect="non-scaling-stroke" d="
  M 146.76 442.38
  Q 146.49 450.78 152.38 457.39"
/>
<path stroke="#464f5a" vector-effect="non-scaling-stroke" d="
  M 161.65 419.36
  Q 170.42 430.26 166.25 444.99"
/>
<path stroke="#363c45" vector-effect="non-scaling-stroke" d="
  M 166.25 444.99
  Q 164.35 450.93 160.18 455.89
  Q 159.61 456.57 161.48 457.48"
/>
<path stroke="#464f5a" vector-effect="non-scaling-stroke" d="
  M 161.48 457.48
  Q 172.14 463.77 182.76 460.31
  C 193.46 456.81 200.07 448.01 200.96 436.75
  Q 201.11 434.75 200.59 433.19"
/>
<path stroke="#363c45" vector-effect="non-scaling-stroke" d="
  M 200.59 433.19
  C 196.93 413.95 176.79 406.07 160.47 416.30
  A 0.93 0.93 0.0 0 0 160.25 417.68
  L 161.65 419.36"
/>
<path stroke="#252b31" vector-effect="non-scaling-stroke" d="
  M 200.59 433.19
  Q 200.33 433.35 200.44 433.83
  A 0.03 0.03 0.0 0 1 200.41 433.87
  L 200.09 433.87
  A 0.31 0.30 -9.3 0 1 199.80 433.67
  Q 196.27 423.84 188.70 419.29
  Q 175.77 411.52 161.65 419.36"
/>
<path stroke="#252b31" vector-effect="non-scaling-stroke" d="
  M 161.48 457.48
  Q 165.83 452.96 167.08 446.39
  Q 167.22 445.62 167.12 445.14
  Q 166.94 444.24 166.25 444.99"
/>
<path stroke="#464f5a" vector-effect="non-scaling-stroke" d="
  M 150.05 435.14
  Q 149.44 445.21 156.54 453.08
  A 0.68 0.68 0.0 0 0 157.55 453.07
  Q 164.02 445.73 164.07 435.86"
/>
<path stroke="#363c45" vector-effect="non-scaling-stroke" d="
  M 164.07 435.86
  Q 163.65 426.33 157.28 419.71
  A 0.44 0.43 -44.6 0 0 156.65 419.71
  Q 150.59 425.98 150.05 435.14"
/>
<path stroke="#252b31" vector-effect="non-scaling-stroke" d="
  M 164.07 435.86
  Q 163.25 434.41 162.71 432.87
  C 161.47 429.31 159.92 426.48 157.30 423.75
  A 0.48 0.48 0.0 0 0 156.59 423.77
  Q 152.70 428.39 150.05 435.14"
/>
<path stroke="#747a75" vector-effect="non-scaling-stroke" d="
  M 401.25 416.49
  L 401.21 434.24
  A 0.39 0.38 0.7 0 0 401.60 434.63
  C 405.37 434.62 409.63 435.00 413.08 433.46
  Q 419.00 430.81 419.35 424.06"
/>
<path stroke="#646860" vector-effect="non-scaling-stroke" d="
  M 419.35 424.06
  C 419.64 412.98 410.80 411.81 401.88 412.37
  A 0.57 0.56 -1.7 0 0 401.35 412.92
  L 401.25 416.49"
/>
<path stroke="#252b31" vector-effect="non-scaling-stroke" d="
  M 419.35 424.06
  Q 416.83 418.29 412.28 416.94
  Q 407.47 415.51 401.25 416.49"
/>
</g>
<path fill="#e1e3d6" d="
  M 512.00 0.00
  L 512.00 231.74
  C 446.70 328.49 332.68 380.91 216.44 365.39
  C 127.34 353.49 50.28 304.94 0.00 230.33
  L 0.00 0.00
  L 512.00 0.00
  Z"
/>
<path fill="#262c32" d="
  M 512.00 231.74
  L 512.00 283.87
  L 511.61 287.80
  A 1.20 1.17 70.8 0 1 511.27 288.53
  Q 492.22 307.98 470.99 325.43
  C 440.66 350.37 406.04 370.10 368.49 383.12
  Q 340.57 392.80 315.49 397.30
  Q 238.94 411.04 160.99 389.21
  C 127.95 379.95 97.22 364.65 68.87 346.20
  Q 49.27 333.44 36.57 321.31
  C 24.46 309.75 14.15 299.24 0.00 287.98
  L 0.00 230.33
  C 50.28 304.94 127.34 353.49 216.44 365.39
  C 332.68 380.91 446.70 328.49 512.00 231.74
  Z"
/>
<path fill="#353d46" d="
  M 512.00 283.87
  L 512.00 512.00
  L 0.00 512.00
  L 0.00 287.98
  C 14.15 299.24 24.46 309.75 36.57 321.31
  Q 49.27 333.44 68.87 346.20
  C 97.22 364.65 127.95 379.95 160.99 389.21
  Q 238.94 411.04 315.49 397.30
  Q 340.57 392.80 368.49 383.12
  C 406.04 370.10 440.66 350.37 470.99 325.43
  Q 492.22 307.98 511.27 288.53
  A 1.20 1.17 70.8 0 0 511.61 287.80
  L 512.00 283.87
  Z
  M 55.55 424.99
  Q 55.75 427.73 57.08 424.05
  A 0.37 0.36 43.9 0 1 57.76 424.04
  L 76.10 468.96
  A 0.55 0.54 44.9 0 0 77.11 468.96
  L 95.49 424.08
  A 0.56 0.55 -39.9 0 1 96.55 424.17
  L 105.63 467.50
  A 0.93 0.93 0.0 0 0 106.54 468.23
  L 108.71 468.23
  A 0.47 0.47 0.0 0 0 109.17 467.64
  L 108.29 464.21
  Q 109.15 464.32 108.84 462.78
  Q 101.23 425.41 97.49 407.92
  A 0.36 0.36 0.0 0 0 96.80 407.86
  L 76.99 456.24
  A 0.42 0.41 -44.8 0 1 76.22 456.24
  L 56.44 407.82
  A 0.36 0.36 0.0 0 0 55.76 407.88
  L 44.12 463.18
  A 0.85 0.85 0.0 0 0 44.95 464.21
  L 46.39 464.21
  A 1.18 1.16 5.7 0 0 47.54 463.28
  L 55.55 424.99
  Z
  M 110.21 442.31
  Q 109.98 442.30 109.84 442.35
  Q 109.39 442.52 109.48 443.03
  Q 112.00 457.16 122.56 464.03
  C 133.58 471.20 145.71 470.23 156.41 463.02
  A 1.03 1.03 0.0 0 1 157.50 462.98
  C 159.14 463.90 160.91 465.25 162.30 465.88
  Q 177.89 472.90 191.67 463.94
  Q 202.76 456.74 203.59 444.21
  Q 207.28 424.59 192.52 413.72
  C 183.52 407.09 170.60 405.71 160.49 412.25
  Q 157.93 413.90 157.42 414.17
  A 0.99 0.98 -43.0 0 1 156.48 414.14
  C 154.87 413.19 152.23 411.24 150.07 410.40
  Q 134.28 404.23 121.32 413.85
  Q 107.38 424.19 110.21 442.31
  Z
  M 281.06 443.84
  Q 283.14 459.28 296.47 465.70
  C 307.04 470.78 318.11 469.80 327.36 462.74
  A 2.02 2.02 0.0 0 0 327.95 462.02
  Q 328.85 460.13 328.01 458.23
  Q 328.68 456.17 328.21 453.80
  A 0.28 0.28 0.0 0 0 327.74 453.66
  C 320.63 460.75 310.11 463.64 300.60 459.61
  Q 285.86 453.37 284.23 438.28
  Q 285.01 432.55 287.72 428.19
  C 295.43 415.74 310.35 411.71 322.80 419.52
  Q 324.71 420.72 327.79 423.49
  A 0.28 0.28 0.0 0 0 328.26 423.32
  Q 328.50 421.53 328.01 419.69
  Q 329.42 415.34 325.68 413.07
  Q 309.95 403.51 294.52 412.60
  Q 286.20 417.50 282.71 425.73
  Q 279.34 433.68 281.06 443.84
  Z
  M 212.18 420.87
  L 258.22 469.08
  A 0.51 0.50 21.9 0 0 259.09 468.71
  L 258.96 465.72
  L 259.16 409.63
  A 0.82 0.81 -0.0 0 0 258.34 408.82
  L 256.05 408.82
  A 0.34 0.34 0.0 0 0 255.71 409.16
  L 255.71 456.27
  A 0.32 0.32 0.0 0 1 255.16 456.49
  L 209.26 408.69
  A 0.29 0.29 0.0 0 0 208.76 408.89
  L 208.76 463.11
  A 1.07 1.07 0.0 0 0 209.83 464.18
  L 211.22 464.18
  A 0.88 0.88 0.0 0 0 212.10 463.31
  L 212.18 420.87
  Z
  M 337.27 464.24
  Q 336.83 466.08 337.34 467.69
  A 0.79 0.78 80.6 0 0 338.08 468.23
  L 354.23 468.23
  A 0.71 0.71 0.0 0 0 354.91 467.72
  Q 355.43 465.94 354.61 464.29
  Q 355.49 463.02 354.95 461.29
  A 0.71 0.70 -8.2 0 0 354.27 460.79
  L 341.19 460.79
  A 0.39 0.39 0.0 0 1 340.80 460.40
  L 340.80 409.33
  A 0.54 0.53 -90.0 0 0 340.27 408.79
  L 337.75 408.79
  A 0.57 0.56 90.0 0 0 337.19 409.36
  L 337.27 464.24
  Z
  M 361.58 464.25
  Q 360.96 466.27 361.68 467.76
  A 0.83 0.82 76.6 0 0 362.42 468.22
  L 387.37 468.22
  A 0.82 0.80 12.8 0 0 388.10 467.77
  Q 388.82 466.26 387.96 464.34
  Q 388.48 463.02 388.18 461.35
  A 0.64 0.64 0.0 0 0 387.55 460.82
  L 365.48 460.82
  A 0.40 0.40 0.0 0 1 365.08 460.42
  L 365.08 439.46
  L 386.90 439.49
  A 0.62 0.62 0.0 0 0 387.51 438.99
  Q 387.90 437.18 387.36 435.71
  Q 387.98 434.09 387.48 432.65
  A 0.70 0.69 80.7 0 0 386.82 432.17
  L 365.74 432.17
  A 0.61 0.60 0.0 0 1 365.13 431.57
  L 365.12 416.23
  L 387.48 416.21
  A 0.68 0.66 -81.9 0 0 388.12 415.72
  Q 388.68 413.76 387.90 412.32
  Q 388.57 411.03 388.15 409.34
  A 0.68 0.68 0.0 0 0 387.49 408.83
  L 361.83 408.83
  A 0.36 0.36 0.0 0 0 361.47 409.20
  L 361.58 464.25
  Z
  M 401.21 441.67
  Q 402.87 441.95 404.60 444.40
  Q 413.04 456.35 420.01 466.50
  Q 421.63 468.86 424.29 468.18
  A 0.47 0.47 0.0 0 0 424.62 467.60
  L 423.70 464.29
  Q 424.34 464.36 424.63 464.24
  A 0.60 0.59 62.0 0 0 424.90 463.34
  L 410.12 442.24
  Q 423.23 439.13 422.63 428.31
  Q 423.90 421.57 421.75 416.77
  C 417.61 407.51 406.23 408.62 397.99 408.87
  A 0.31 0.31 0.0 0 0 397.69 409.18
  L 397.69 463.32
  A 0.82 0.82 0.0 0 0 398.51 464.14
  L 400.34 464.14
  A 0.85 0.85 0.0 0 0 401.19 463.29
  L 401.21 441.67
  Z
  M 436.03 443.78
  Q 437.00 443.51 436.93 442.83
  A 0.62 0.60 19.3 0 1 437.97 442.35
  Q 438.68 443.01 462.93 466.82
  Q 465.13 468.99 467.80 468.06
  A 0.64 0.64 0.0 0 0 467.91 466.91
  Q 466.25 465.92 466.18 464.31
  L 468.20 464.22
  A 0.39 0.39 0.0 0 0 468.46 463.55
  L 442.03 437.48
  L 466.20 413.87
  A 0.64 0.64 0.0 0 0 465.97 412.82
  L 464.07 412.12
  L 466.75 409.48
  A 0.39 0.39 0.0 0 0 466.48 408.82
  L 463.28 408.82
  A 1.59 1.57 -66.6 0 0 462.19 409.26
  L 436.40 434.02
  A 0.23 0.23 0.0 0 1 436.01 433.85
  L 436.01 409.12
  A 0.29 0.28 -0.0 0 0 435.72 408.84
  L 432.64 408.84
  A 0.20 0.20 0.0 0 0 432.44 409.04
  L 432.44 463.39
  A 0.78 0.78 0.0 0 0 433.22 464.17
  L 435.24 464.17
  A 0.76 0.76 0.0 0 0 436.00 463.41
  L 436.03 443.78
  Z"
/>
<path fill="#56606d" d="
  M 108.29 464.21
  Q 105.90 464.53 105.62 463.13
  Q 101.09 440.47 96.38 419.04
  A 0.27 0.26 50.0 0 0 95.87 418.99
  Q 93.90 423.92 77.12 464.86
  Q 76.77 465.72 76.22 465.18
  A 0.28 0.10 70.7 0 1 76.18 465.13
  L 57.35 419.02
  A 0.27 0.27 0.0 0 0 56.83 419.06
  L 55.55 424.99
  L 47.54 463.28
  A 1.18 1.16 5.7 0 1 46.39 464.21
  L 44.95 464.21
  A 0.85 0.85 0.0 0 1 44.12 463.18
  L 55.76 407.88
  A 0.36 0.36 0.0 0 1 56.44 407.82
  L 76.22 456.24
  A 0.42 0.41 -44.8 0 0 76.99 456.24
  L 96.80 407.86
  A 0.36 0.36 0.0 0 1 97.49 407.92
  Q 101.23 425.41 108.84 462.78
  Q 109.15 464.32 108.29 464.21
  Z"
/>
<path fill="#56606d" d="
  M 203.59 444.21
  Q 198.91 456.70 188.27 462.00
  C 178.14 467.05 167.00 465.98 158.01 459.27
  A 1.61 1.60 -44.3 0 0 156.13 459.25
  Q 140.91 469.98 124.45 461.40
  Q 113.42 455.64 110.21 442.31
  Q 107.38 424.19 121.32 413.85
  Q 134.28 404.23 150.07 410.40
  C 152.23 411.24 154.87 413.19 156.48 414.14
  A 0.99 0.98 -43.0 0 0 157.42 414.17
  Q 157.93 413.90 160.49 412.25
  C 170.60 405.71 183.52 407.09 192.52 413.72
  Q 207.28 424.59 203.59 444.21
  Z
  M 113.31 433.18
  Q 112.74 436.71 113.53 440.49
  Q 115.13 448.18 120.50 453.51
  Q 133.05 465.98 149.71 458.98
  Q 150.89 458.48 152.38 457.39
  Q 154.04 456.75 153.98 455.91
  A 0.47 0.43 -72.2 0 0 153.87 455.67
  Q 148.95 449.99 146.76 442.38
  Q 146.85 441.01 146.41 436.75
  C 145.76 430.54 148.65 424.89 152.14 419.26
  Q 153.45 418.37 153.88 417.25
  A 0.68 0.67 -63.3 0 0 153.63 416.46
  Q 145.89 411.18 138.01 411.68
  Q 117.87 412.95 113.31 433.18
  Z
  M 161.65 419.36
  Q 170.42 430.26 166.25 444.99
  Q 164.35 450.93 160.18 455.89
  Q 159.61 456.57 161.48 457.48
  Q 172.14 463.77 182.76 460.31
  C 193.46 456.81 200.07 448.01 200.96 436.75
  Q 201.11 434.75 200.59 433.19
  C 196.93 413.95 176.79 406.07 160.47 416.30
  A 0.93 0.93 0.0 0 0 160.25 417.68
  L 161.65 419.36
  Z
  M 150.05 435.14
  Q 149.44 445.21 156.54 453.08
  A 0.68 0.68 0.0 0 0 157.55 453.07
  Q 164.02 445.73 164.07 435.86
  Q 163.65 426.33 157.28 419.71
  A 0.44 0.43 -44.6 0 0 156.65 419.71
  Q 150.59 425.98 150.05 435.14
  Z"
/>
<path fill="#b3b7a4" d="
  M 328.01 419.69
  C 321.36 412.68 311.11 409.68 301.83 412.95
  C 291.01 416.77 283.35 426.37 284.23 438.28
  Q 285.86 453.37 300.60 459.61
  C 310.11 463.64 320.63 460.75 327.74 453.66
  A 0.28 0.28 0.0 0 1 328.21 453.80
  Q 328.68 456.17 328.01 458.23
  Q 314.29 469.02 298.87 462.90
  Q 286.36 457.94 281.06 443.84
  Q 279.34 433.68 282.71 425.73
  Q 286.20 417.50 294.52 412.60
  Q 309.95 403.51 325.68 413.07
  Q 329.42 415.34 328.01 419.69
  Z"
/>
<path fill="#56606d" d="
  M 258.96 465.72
  L 212.84 417.43
  A 0.48 0.48 0.0 0 0 212.02 417.78
  L 212.18 420.87
  L 212.10 463.31
  A 0.88 0.88 0.0 0 1 211.22 464.18
  L 209.83 464.18
  A 1.07 1.07 0.0 0 1 208.76 463.11
  L 208.76 408.89
  A 0.29 0.29 0.0 0 1 209.26 408.69
  L 255.16 456.49
  A 0.32 0.32 0.0 0 0 255.71 456.27
  L 255.71 409.16
  A 0.34 0.34 0.0 0 1 256.05 408.82
  L 258.34 408.82
  A 0.82 0.81 -0.0 0 1 259.16 409.63
  L 258.96 465.72
  Z"
/>
<path fill="#b3b7a4" d="
  M 354.61 464.29
  L 337.27 464.24
  L 337.19 409.36
  A 0.57 0.56 90.0 0 1 337.75 408.79
  L 340.27 408.79
  A 0.54 0.53 90.0 0 1 340.80 409.33
  L 340.80 460.40
  A 0.39 0.39 0.0 0 0 341.19 460.79
  L 354.27 460.79
  A 0.71 0.70 -8.2 0 1 354.95 461.29
  Q 355.49 463.02 354.61 464.29
  Z"
/>
<path fill="#b3b7a4" d="
  M 387.90 412.32
  L 365.82 412.35
  A 0.66 0.66 0.0 0 0 365.18 412.84
  Q 364.78 414.32 365.12 416.23
  L 365.13 431.57
  A 0.61 0.60 0.0 0 0 365.74 432.17
  L 386.82 432.17
  A 0.70 0.69 80.7 0 1 387.48 432.65
  Q 387.98 434.09 387.36 435.71
  L 365.78 435.78
  A 0.65 0.64 6.1 0 0 365.15 436.28
  Q 364.85 437.57 365.08 439.46
  L 365.08 460.42
  A 0.40 0.40 0.0 0 0 365.48 460.82
  L 387.55 460.82
  A 0.64 0.64 0.0 0 1 388.18 461.35
  Q 388.48 463.02 387.96 464.34
  L 361.58 464.25
  L 361.47 409.20
  A 0.36 0.36 0.0 0 1 361.83 408.83
  L 387.49 408.83
  A 0.68 0.68 0.0 0 1 388.15 409.34
  Q 388.57 411.03 387.90 412.32
  Z"
/>
<path fill="#b3b7a4" d="
  M 422.63 428.31
  Q 418.55 438.10 407.85 438.03
  A 0.38 0.38 0.0 0 0 407.54 438.63
  L 410.12 442.24
  L 424.90 463.34
  A 0.60 0.59 62.0 0 1 424.63 464.24
  Q 424.34 464.36 423.70 464.29
  Q 421.46 464.56 419.81 462.20
  Q 411.61 450.37 403.20 438.33
  A 1.07 1.07 0.0 0 0 401.26 438.92
  L 401.21 441.67
  L 401.19 463.29
  A 0.85 0.85 0.0 0 1 400.34 464.14
  L 398.51 464.14
  A 0.82 0.82 0.0 0 1 397.69 463.32
  L 397.69 409.18
  A 0.31 0.31 0.0 0 1 397.99 408.87
  C 406.23 408.62 417.61 407.51 421.75 416.77
  Q 423.90 421.57 422.63 428.31
  Z
  M 401.25 416.49
  L 401.21 434.24
  A 0.39 0.38 0.7 0 0 401.60 434.63
  C 405.37 434.62 409.63 435.00 413.08 433.46
  Q 419.00 430.81 419.35 424.06
  C 419.64 412.98 410.80 411.81 401.88 412.37
  A 0.57 0.56 -1.7 0 0 401.35 412.92
  L 401.25 416.49
  Z"
/>
<path fill="#b3b7a4" d="
  M 464.07 412.12
  L 440.20 435.23
  A 0.33 0.33 0.0 0 0 440.20 435.71
  L 442.03 437.48
  L 468.46 463.55
  A 0.39 0.39 0.0 0 1 468.20 464.22
  L 466.18 464.31
  Q 464.56 464.47 463.16 463.09
  Q 450.45 450.63 438.12 438.48
  A 1.16 1.16 0.0 0 0 436.15 439.27
  L 436.03 443.78
  L 436.00 463.41
  A 0.76 0.76 0.0 0 1 435.24 464.17
  L 433.22 464.17
  A 0.78 0.78 0.0 0 1 432.44 463.39
  L 432.44 409.04
  A 0.20 0.20 0.0 0 1 432.64 408.84
  L 435.72 408.84
  A 0.29 0.28 -0.0 0 1 436.01 409.12
  L 436.01 433.85
  A 0.23 0.23 0.0 0 0 436.40 434.02
  L 462.19 409.26
  A 1.59 1.57 -66.6 0 1 463.28 408.82
  L 466.48 408.82
  A 0.39 0.39 0.0 0 1 466.75 409.48
  L 464.07 412.12
  Z"
/>
<path fill="#15181c" d="
  M 328.01 419.69
  Q 328.50 421.53 328.26 423.32
  A 0.28 0.28 0.0 0 1 327.79 423.49
  Q 324.71 420.72 322.80 419.52
  C 310.35 411.71 295.43 415.74 287.72 428.19
  Q 285.01 432.55 284.23 438.28
  C 283.35 426.37 291.01 416.77 301.83 412.95
  C 311.11 409.68 321.36 412.68 328.01 419.69
  Z"
/>
<path fill="#15181c" d="
  M 152.14 419.26
  C 135.95 410.74 120.00 417.57 114.01 434.01
  A 0.21 0.21 0.0 0 1 113.62 434.01
  L 113.31 433.18
  Q 117.87 412.95 138.01 411.68
  Q 145.89 411.18 153.63 416.46
  A 0.68 0.67 -63.3 0 1 153.88 417.25
  Q 153.45 418.37 152.14 419.26
  Z"
/>
<path fill="#15181c" d="
  M 200.59 433.19
  Q 200.33 433.35 200.44 433.83
  A 0.03 0.03 0.0 0 1 200.41 433.87
  L 200.09 433.87
  A 0.31 0.30 -9.3 0 1 199.80 433.67
  Q 196.27 423.84 188.70 419.29
  Q 175.77 411.52 161.65 419.36
  L 160.25 417.68
  A 0.93 0.93 0.0 0 1 160.47 416.30
  C 176.79 406.07 196.93 413.95 200.59 433.19
  Z"
/>
<path fill="#15181c" d="
  M 387.90 412.32
  Q 388.68 413.76 388.12 415.72
  A 0.68 0.66 -81.9 0 1 387.48 416.21
  L 365.12 416.23
  Q 364.78 414.32 365.18 412.84
  A 0.66 0.66 0.0 0 1 365.82 412.35
  L 387.90 412.32
  Z"
/>
<path fill="#15181c" d="
  M 419.35 424.06
  Q 416.83 418.29 412.28 416.94
  Q 407.47 415.51 401.25 416.49
  L 401.35 412.92
  A 0.57 0.56 -1.7 0 1 401.88 412.37
  C 410.80 411.81 419.64 412.98 419.35 424.06
  Z"
/>
<path fill="#15181c" d="
  M 464.07 412.12
  L 465.97 412.82
  A 0.64 0.64 0.0 0 1 466.20 413.87
  L 442.03 437.48
  L 440.20 435.71
  A 0.33 0.33 0.0 0 1 440.20 435.23
  L 464.07 412.12
  Z"
/>
<path fill="#353d46" d="
  M 152.14 419.26
  C 148.65 424.89 145.76 430.54 146.41 436.75
  Q 146.85 441.01 146.76 442.38
  Q 146.49 450.78 152.38 457.39
  Q 150.89 458.48 149.71 458.98
  Q 133.05 465.98 120.50 453.51
  Q 115.13 448.18 113.53 440.49
  Q 112.74 436.71 113.31 433.18
  L 113.62 434.01
  A 0.21 0.21 0.0 0 0 114.01 434.01
  C 120.00 417.57 135.95 410.74 152.14 419.26
  Z"
/>
<path fill="#353d46" d="
  M 200.59 433.19
  Q 201.11 434.75 200.96 436.75
  C 200.07 448.01 193.46 456.81 182.76 460.31
  Q 172.14 463.77 161.48 457.48
  Q 165.83 452.96 167.08 446.39
  Q 167.22 445.62 167.12 445.14
  Q 166.94 444.24 166.25 444.99
  Q 170.42 430.26 161.65 419.36
  Q 175.77 411.52 188.70 419.29
  Q 196.27 423.84 199.80 433.67
  A 0.31 0.30 -9.3 0 0 200.09 433.87
  L 200.41 433.87
  A 0.03 0.03 0.0 0 0 200.44 433.83
  Q 200.33 433.35 200.59 433.19
  Z"
/>
<path fill="#353d46" d="
  M 419.35 424.06
  Q 419.00 430.81 413.08 433.46
  C 409.63 435.00 405.37 434.62 401.60 434.63
  A 0.39 0.38 0.7 0 1 401.21 434.24
  L 401.25 416.49
  Q 407.47 415.51 412.28 416.94
  Q 416.83 418.29 419.35 424.06
  Z"
/>
<path fill="#15181c" d="
  M 258.96 465.72
  L 259.09 468.71
  A 0.51 0.50 21.9 0 1 258.22 469.08
  L 212.18 420.87
  L 212.02 417.78
  A 0.48 0.48 0.0 0 1 212.84 417.43
  L 258.96 465.72
  Z"
/>
<path fill="#15181c" d="
  M 108.29 464.21
  L 109.17 467.64
  A 0.47 0.47 0.0 0 1 108.71 468.23
  L 106.54 468.23
  A 0.93 0.93 0.0 0 1 105.63 467.50
  L 96.55 424.17
  A 0.56 0.55 -39.9 0 0 95.49 424.08
  L 77.11 468.96
  A 0.55 0.54 44.9 0 1 76.10 468.96
  L 57.76 424.04
  A 0.37 0.36 43.9 0 0 57.08 424.05
  Q 55.75 427.73 55.55 424.99
  L 56.83 419.06
  A 0.27 0.27 0.0 0 1 57.35 419.02
  L 76.18 465.13
  A 0.28 0.10 70.7 0 0 76.22 465.18
  Q 76.77 465.72 77.12 464.86
  Q 93.90 423.92 95.87 418.99
  A 0.27 0.26 50.0 0 1 96.38 419.04
  Q 101.09 440.47 105.62 463.13
  Q 105.90 464.53 108.29 464.21
  Z"
/>
<path fill="#15181c" d="
  M 164.07 435.86
  Q 163.25 434.41 162.71 432.87
  C 161.47 429.31 159.92 426.48 157.30 423.75
  A 0.48 0.48 0.0 0 0 156.59 423.77
  Q 152.70 428.39 150.05 435.14
  Q 150.59 425.98 156.65 419.71
  A 0.44 0.43 -44.6 0 1 157.28 419.71
  Q 163.65 426.33 164.07 435.86
  Z"
/>
<path fill="#353d46" d="
  M 164.07 435.86
  Q 164.02 445.73 157.55 453.07
  A 0.68 0.68 0.0 0 1 156.54 453.08
  Q 149.44 445.21 150.05 435.14
  Q 152.70 428.39 156.59 423.77
  A 0.48 0.48 0.0 0 1 157.30 423.75
  C 159.92 426.48 161.47 429.31 162.71 432.87
  Q 163.25 434.41 164.07 435.86
  Z"
/>
<path fill="#15181c" d="
  M 422.63 428.31
  Q 423.23 439.13 410.12 442.24
  L 407.54 438.63
  A 0.38 0.38 0.0 0 1 407.85 438.03
  Q 418.55 438.10 422.63 428.31
  Z"
/>
<path fill="#15181c" d="
  M 387.36 435.71
  Q 387.90 437.18 387.51 438.99
  A 0.62 0.62 0.0 0 1 386.90 439.49
  L 365.08 439.46
  Q 364.85 437.57 365.15 436.28
  A 0.65 0.64 6.1 0 1 365.78 435.78
  L 387.36 435.71
  Z"
/>
<path fill="#15181c" d="
  M 423.70 464.29
  L 424.62 467.60
  A 0.47 0.47 0.0 0 1 424.29 468.18
  Q 421.63 468.86 420.01 466.50
  Q 413.04 456.35 404.60 444.40
  Q 402.87 441.95 401.21 441.67
  L 401.26 438.92
  A 1.07 1.07 0.0 0 1 403.20 438.33
  Q 411.61 450.37 419.81 462.20
  Q 421.46 464.56 423.70 464.29
  Z"
/>
<path fill="#15181c" d="
  M 466.18 464.31
  Q 466.25 465.92 467.91 466.91
  A 0.64 0.64 0.0 0 1 467.80 468.06
  Q 465.13 468.99 462.93 466.82
  Q 438.68 443.01 437.97 442.35
  A 0.62 0.60 19.3 0 0 436.93 442.83
  Q 437.00 443.51 436.03 443.78
  L 436.15 439.27
  A 1.16 1.16 0.0 0 1 438.12 438.48
  Q 450.45 450.63 463.16 463.09
  Q 464.56 464.47 466.18 464.31
  Z"
/>
<path fill="#15181c" d="
  M 110.21 442.31
  Q 113.42 455.64 124.45 461.40
  Q 140.91 469.98 156.13 459.25
  A 1.61 1.60 -44.3 0 1 158.01 459.27
  C 167.00 465.98 178.14 467.05 188.27 462.00
  Q 198.91 456.70 203.59 444.21
  Q 202.76 456.74 191.67 463.94
  Q 177.89 472.90 162.30 465.88
  C 160.91 465.25 159.14 463.90 157.50 462.98
  A 1.03 1.03 0.0 0 0 156.41 463.02
  C 145.71 470.23 133.58 471.20 122.56 464.03
  Q 112.00 457.16 109.48 443.03
  Q 109.39 442.52 109.84 442.35
  Q 109.98 442.30 110.21 442.31
  Z"
/>
<path fill="#15181c" d="
  M 146.76 442.38
  Q 148.95 449.99 153.87 455.67
  A 0.47 0.43 -72.2 0 1 153.98 455.91
  Q 154.04 456.75 152.38 457.39
  Q 146.49 450.78 146.76 442.38
  Z"
/>
<path fill="#15181c" d="
  M 281.06 443.84
  Q 286.36 457.94 298.87 462.90
  Q 314.29 469.02 328.01 458.23
  Q 328.85 460.13 327.95 462.02
  A 2.02 2.02 0.0 0 1 327.36 462.74
  C 318.11 469.80 307.04 470.78 296.47 465.70
  Q 283.14 459.28 281.06 443.84
  Z"
/>
<path fill="#15181c" d="
  M 161.48 457.48
  Q 159.61 456.57 160.18 455.89
  Q 164.35 450.93 166.25 444.99
  Q 166.94 444.24 167.12 445.14
  Q 167.22 445.62 167.08 446.39
  Q 165.83 452.96 161.48 457.48
  Z"
/>
<path fill="#15181c" d="
  M 337.27 464.24
  L 354.61 464.29
  Q 355.43 465.94 354.91 467.72
  A 0.71 0.71 0.0 0 1 354.23 468.23
  L 338.08 468.23
  A 0.79 0.78 80.6 0 1 337.34 467.69
  Q 336.83 466.08 337.27 464.24
  Z"
/>
<path fill="#15181c" d="
  M 361.58 464.25
  L 387.96 464.34
  Q 388.82 466.26 388.10 467.77
  A 0.82 0.80 12.8 0 1 387.37 468.22
  L 362.42 468.22
  A 0.83 0.82 76.6 0 1 361.68 467.76
  Q 360.96 466.27 361.58 464.25
  Z"
/>
</svg>