<?xml version="1.0" encoding="UTF-8" standalone="no"?>
<!DOCTYPE svg PUBLIC "-//W3C//DTD SVG 1.1//EN" "http://www.w3.org/Graphics/SVG/1.1/DTD/svg11.dtd">
<svg xmlns="http://www.w3.org/2000/svg" version="1.1" viewBox="0.00 0.00 192.00 192.00" width="128" height="128">
<g stroke-width="2.00" fill="none" stroke-linecap="butt">
<path stroke="#989fab" vector-effect="non-scaling-stroke" d="
  M 155.67 101.51
  Q 156.14 99.39 156.00 96.25
  C 155.84 92.84 155.46 88.34 155.57 83.92
  Q 155.74 77.62 155.64 75.31
  C 155.18 65.15 155.36 54.05 155.39 45.68
  Q 155.43 35.62 153.66 31.57
  C 149.34 21.71 140.69 20.10 130.75 19.36
  Q 118.83 18.46 91.37 18.58
  Q 85.01 18.60 82.79 18.79
  C 74.52 19.47 66.14 18.95 58.18 19.42
  C 52.59 19.74 47.06 23.98 43.27 28.17
  C 39.91 31.89 39.36 36.51 39.41 41.25
  C 39.50 49.21 39.13 57.36 39.27 65.24
  Q 39.59 82.34 39.15 99.08
  A 2.27 2.27 0.0 0 0 41.34 101.41
  Q 42.38 101.45 42.66 101.19
  Q 43.88 100.11 49.11 98.06
  A 15.95 15.64 -71.0 0 0 51.53 96.85
  C 57.24 93.35 62.52 92.53 71.13 90.20
  C 78.21 88.29 85.27 87.22 91.77 87.26
  Q 98.77 87.31 113.98 88.18
  C 117.99 88.41 123.18 90.70 126.73 91.52
  C 133.12 92.98 138.63 93.94 143.83 97.80
  A 2.32 2.25 -15.0 0 0 144.28 98.05
  L 154.41 102.17
  A 0.93 0.93 0.0 0 0 155.67 101.51"
/>
<path stroke="#8c5156" vector-effect="non-scaling-stroke" d="
  M 103.15 93.75
  C 95.86 92.56 88.57 94.79 82.76 94.91
  Q 78.59 95.00 73.33 96.10
  Q 65.24 97.80 56.58 101.33
  Q 53.47 102.60 50.69 104.15
  C 47.75 105.78 44.19 107.23 40.92 109.93
  Q 39.57 111.05 39.08 115.04
  Q 38.25 121.88 43.01 127.80
  Q 45.59 131.01 46.41 132.09
  A 4.64 4.46 87.8 0 0 47.47 133.11
  C 51.18 135.62 55.25 136.12 59.82 136.36
  Q 71.37 136.96 80.25 136.19
  Q 83.03 135.95 103.92 136.24
  Q 107.34 136.29 116.09 136.22
  Q 121.41 136.18 130.48 136.75
  Q 144.84 137.64 153.36 125.89
  Q 156.64 121.37 156.36 116.61
  C 156.07 111.62 153.73 108.77 149.34 106.69
  Q 140.17 102.35 130.32 98.93
  Q 126.17 97.49 122.54 97.14
  C 120.00 96.90 117.49 95.92 115.56 95.64
  Q 107.87 94.52 103.15 93.75"
/>
<path stroke="#989fab" vector-effect="non-scaling-stroke" d="
  M 127.92 152.68
  Q 128.34 149.76 126.99 146.48
  C 125.60 143.09 118.93 143.41 115.79 143.69
  A 1.68 1.64 -73.1 0 0 114.62 144.33
  C 112.76 146.74 113.90 148.94 116.79 150.34
  Q 118.22 151.04 121.60 153.50
  C 123.37 154.79 126.35 155.98 127.60 153.64
  A 3.09 2.98 64.5 0 0 127.92 152.68"
/>
<path stroke="#989fab" vector-effect="non-scaling-stroke" d="
  M 81.07 146.12
  C 83.98 149.43 88.41 151.83 91.59 154.21
  A 3.32 3.30 -21.8 0 0 93.07 154.84
  C 96.69 155.45 100.51 154.43 102.12 150.76
  Q 103.35 147.95 102.65 145.66
  A 2.89 2.88 79.5 0 0 99.69 143.62
  L 81.62 144.80
  A 0.80 0.79 -22.6 0 0 81.07 146.12"
/>
<path stroke="#989fab" vector-effect="non-scaling-stroke" d="
  M 67.10 150.37
  Q 67.20 153.69 69.15 157.14
  A 1.35 0.84 46.0 0 1 69.22 157.30
  L 72.57 168.25
  A 1.94 1.94 0.0 0 0 75.49 169.30
  C 77.53 167.95 80.15 162.59 82.07 159.04
  Q 83.58 156.26 80.43 155.00
  Q 73.92 152.39 68.62 149.44
  A 1.03 1.02 -76.3 0 0 67.10 150.37"
/>
<path stroke="#989fab" vector-effect="non-scaling-stroke" d="
  M 99.35 164.13
  L 95.97 162.29
  A 0.98 0.64 -11.6 0 0 95.77 162.21
  Q 89.72 160.83 85.81 166.14
  Q 83.15 169.76 81.93 173.36
  A 2.78 2.46 -70.1 0 0 83.26 176.73
  Q 83.90 176.99 85.34 176.61
  Q 90.37 175.28 96.58 172.83
  Q 103.97 169.92 106.67 169.18
  Q 112.19 167.67 117.03 166.50
  Q 121.16 165.50 120.08 161.64
  Q 118.63 156.45 112.25 155.29
  C 107.93 154.51 103.38 159.93 101.84 163.30
  A 1.79 1.79 0.0 0 1 99.35 164.13"
/>
<path stroke="#8a9fad" vector-effect="non-scaling-stroke" d="
  M 103.96 61.39
  L 102.77 68.63
  A 1.96 1.96 0.0 0 0 104.39 70.88
  L 105.93 71.13
  A 4.92 4.78 -80.7 0 0 111.44 67.05
  L 111.67 65.65
  A 4.92 4.78 -80.7 0 0 107.75 60.02
  L 106.21 59.77
  A 1.96 1.96 0.0 0 0 103.96 61.39"
/>
<path stroke="#8a9fad" vector-effect="non-scaling-stroke" d="
  M 92.5261 62.8543
  A 2.07 2.07 0.0 0 0 90.5371 60.7064
  L 86.7599 60.5613
  A 2.07 2.07 0.0 0 0 84.6119 62.5503
  L 84.3739 68.7457
  A 2.07 2.07 0.0 0 0 86.3629 70.8936
  L 90.1401 71.0387
  A 2.07 2.07 0.0 0 0 92.2881 69.0497
  L 92.5261 62.8543"
/>
<path stroke="#7e5058" vector-effect="non-scaling-stroke" d="
  M 67.21 111.73
  C 64.14 112.64 62.79 115.99 64.22 118.63
  Q 67.11 123.98 72.34 127.99
  A 2.49 2.44 69.8 0 0 73.27 128.43
  Q 76.34 129.18 78.56 126.66
  A 2.30 2.26 -16.5 0 0 79.01 125.85
  C 80.62 120.67 79.03 117.94 75.71 113.86
  Q 72.65 110.11 67.21 111.73"
/>
<path stroke="#7e5058" vector-effect="non-scaling-stroke" d="
  M 131.6786 112.2265
  A 9.76 6.66 -50.8 0 0 120.3489 115.5807
  A 9.76 6.66 -50.8 0 0 119.3414 127.3535
  A 9.76 6.66 -50.8 0 0 130.6711 123.9993
  A 9.76 6.66 -50.8 0 0 131.6786 112.2265"
/>
</g>
<path fill="#303f57" d="
  M 129.67 2.69
  C 130.61 3.80 131.37 6.01 132.65 7.62
  Q 135.94 11.75 141.20 13.66
  Q 147.90 16.10 153.24 19.38
  Q 170.63 30.08 187.40 39.66
  Q 190.56 41.46 191.09 42.45
  C 192.24 44.60 192.24 48.39 189.27 49.42
  Q 181.06 52.26 173.94 53.80
  A 7.46 7.14 -49.4 0 1 172.33 53.96
  C 168.91 53.91 165.06 52.32 161.58 53.27
  A 2.73 2.72 84.7 0 0 159.58 55.69
  Q 159.43 57.56 160.16 60.82
  C 161.14 65.15 161.87 68.80 161.87 73.77
  Q 161.88 89.32 161.80 100.41
  Q 161.76 105.13 162.05 107.10
  C 162.86 112.53 163.52 118.14 161.43 122.84
  Q 159.15 127.95 157.32 131.17
  Q 154.49 136.13 148.29 140.09
  C 144.41 142.57 139.05 143.08 135.21 144.94
  Q 132.15 146.43 133.94 149.61
  C 137.29 155.58 139.79 159.63 136.07 165.34
  Q 135.03 166.94 130.28 169.28
  C 127.12 170.83 122.71 171.57 118.50 172.86
  Q 111.24 175.08 105.01 177.14
  C 92.83 181.15 85.37 183.49 77.13 189.10
  C 74.16 191.12 72.20 188.41 71.20 185.84
  C 69.80 182.24 68.67 180.14 67.51 176.59
  Q 63.78 165.25 60.21 153.92
  Q 58.87 149.67 58.11 147.67
  Q 57.05 144.88 53.36 143.15
  C 50.45 141.79 45.70 140.30 42.47 137.50
  Q 32.27 128.67 32.46 116.00
  Q 33.11 73.03 32.53 55.20
  Q 32.48 53.69 30.40 52.93
  A 0.53 0.45 -33.7 0 0 30.14 52.90
  L 20.08 53.95
  A 1.67 1.62 -40.1 0 1 19.51 53.91
  Q 9.57 51.61 4.36 49.12
  Q 3.25 48.59 1.96 47.58
  A 2.93 2.93 0.0 0 1 1.35 43.60
  Q 2.90 41.38 5.60 39.84
  Q 32.78 24.43 36.42 21.91
  C 39.95 19.47 44.01 16.60 48.65 15.14
  Q 52.31 13.99 56.05 12.56
  C 59.14 11.39 61.87 7.40 63.45 4.65
  C 64.48 2.86 66.10 2.06 67.97 1.52
  A 2.37 2.36 68.4 0 1 70.74 2.73
  C 73.26 7.71 76.33 11.69 82.03 13.03
  A 3.96 3.80 -36.7 0 0 82.99 13.15
  Q 98.68 13.09 112.24 12.83
  C 117.25 12.74 119.19 9.71 122.29 5.34
  C 124.19 2.65 125.71 1.29 128.80 2.14
  A 1.74 1.74 0.0 0 1 129.67 2.69
  Z
  M 155.67 101.51
  Q 156.14 99.39 156.00 96.25
  C 155.84 92.84 155.46 88.34 155.57 83.92
  Q 155.74 77.62 155.64 75.31
  C 155.18 65.15 155.36 54.05 155.39 45.68
  Q 155.43 35.62 153.66 31.57
  C 149.34 21.71 140.69 20.10 130.75 19.36
  Q 118.83 18.46 91.37 18.58
  Q 85.01 18.60 82.79 18.79
  C 74.52 19.47 66.14 18.95 58.18 19.42
  C 52.59 19.74 47.06 23.98 43.27 28.17
  C 39.91 31.89 39.36 36.51 39.41 41.25
  C 39.50 49.21 39.13 57.36 39.27 65.24
  Q 39.59 82.34 39.15 99.08
  A 2.27 2.27 0.0 0 0 41.34 101.41
  Q 42.38 101.45 42.66 101.19
  Q 43.88 100.11 49.11 98.06
  A 15.95 15.64 -71.0 0 0 51.53 96.85
  C 57.24 93.35 62.52 92.53 71.13 90.20
  C 78.21 88.29 85.27 87.22 91.77 87.26
  Q 98.77 87.31 113.98 88.18
  C 117.99 88.41 123.18 90.70 126.73 91.52
  C 133.12 92.98 138.63 93.94 143.83 97.80
  A 2.32 2.25 -15.0 0 0 144.28 98.05
  L 154.41 102.17
  A 0.93 0.93 0.0 0 0 155.67 101.51
  Z
  M 103.15 93.75
  C 95.86 92.56 88.57 94.79 82.76 94.91
  Q 78.59 95.00 73.33 96.10
  Q 65.24 97.80 56.58 101.33
  Q 53.47 102.60 50.69 104.15
  C 47.75 105.78 44.19 107.23 40.92 109.93
  Q 39.57 111.05 39.08 115.04
  Q 38.25 121.88 43.01 127.80
  Q 45.59 131.01 46.41 132.09
  A 4.64 4.46 87.8 0 0 47.47 133.11
  C 51.18 135.62 55.25 136.12 59.82 136.36
  Q 71.37 136.96 80.25 136.19
  Q 83.03 135.95 103.92 136.24
  Q 107.34 136.29 116.09 136.22
  Q 121.41 136.18 130.48 136.75
  Q 144.84 137.64 153.36 125.89
  Q 156.64 121.37 156.36 116.61
  C 156.07 111.62 153.73 108.77 149.34 106.69
  Q 140.17 102.35 130.32 98.93
  Q 126.17 97.49 122.54 97.14
  C 120.00 96.90 117.49 95.92 115.56 95.64
  Q 107.87 94.52 103.15 93.75
  Z
  M 127.92 152.68
  Q 128.34 149.76 126.99 146.48
  C 125.60 143.09 118.93 143.41 115.79 143.69
  A 1.68 1.64 -73.1 0 0 114.62 144.33
  C 112.76 146.74 113.90 148.94 116.79 150.34
  Q 118.22 151.04 121.60 153.50
  C 123.37 154.79 126.35 155.98 127.60 153.64
  A 3.09 2.98 64.5 0 0 127.92 152.68
  Z
  M 81.07 146.12
  C 83.98 149.43 88.41 151.83 91.59 154.21
  A 3.32 3.30 -21.8 0 0 93.07 154.84
  C 96.69 155.45 100.51 154.43 102.12 150.76
  Q 103.35 147.95 102.65 145.66
  A 2.89 2.88 79.5 0 0 99.69 143.62
  L 81.62 144.80
  A 0.80 0.79 -22.6 0 0 81.07 146.12
  Z
  M 67.10 150.37
  Q 67.20 153.69 69.15 157.14
  A 1.35 0.84 46.0 0 1 69.22 157.30
  L 72.57 168.25
  A 1.94 1.94 0.0 0 0 75.49 169.30
  C 77.53 167.95 80.15 162.59 82.07 159.04
  Q 83.58 156.26 80.43 155.00
  Q 73.92 152.39 68.62 149.44
  A 1.03 1.02 -76.3 0 0 67.10 150.37
  Z
  M 99.35 164.13
  L 95.97 162.29
  A 0.98 0.64 -11.6 0 0 95.77 162.21
  Q 89.72 160.83 85.81 166.14
  Q 83.15 169.76 81.93 173.36
  A 2.78 2.46 -70.1 0 0 83.26 176.73
  Q 83.90 176.99 85.34 176.61
  Q 90.37 175.28 96.58 172.83
  Q 103.97 169.92 106.67 169.18
  Q 112.19 167.67 117.03 166.50
  Q 121.16 165.50 120.08 161.64
  Q 118.63 156.45 112.25 155.29
  C 107.93 154.51 103.38 159.93 101.84 163.30
  A 1.79 1.79 0.0 0 1 99.35 164.13
  Z"
/>
<path fill="#ffffff" d="
  M 155.67 101.51
  A 0.93 0.93 0.0 0 1 154.41 102.17
  L 144.28 98.05
  A 2.32 2.25 -15.0 0 1 143.83 97.80
  C 138.63 93.94 133.12 92.98 126.73 91.52
  C 123.18 90.70 117.99 88.41 113.98 88.18
  Q 98.77 87.31 91.77 87.26
  C 85.27 87.22 78.21 88.29 71.13 90.20
  C 62.52 92.53 57.24 93.35 51.53 96.85
  A 15.95 15.64 -71.0 0 1 49.11 98.06
  Q 43.88 100.11 42.66 101.19
  Q 42.38 101.45 41.34 101.41
  A 2.27 2.27 0.0 0 1 39.15 99.08
  Q 39.59 82.34 39.27 65.24
  C 39.13 57.36 39.50 49.21 39.41 41.25
  C 39.36 36.51 39.91 31.89 43.27 28.17
  C 47.06 23.98 52.59 19.74 58.18 19.42
  C 66.14 18.95 74.52 19.47 82.79 18.79
  Q 85.01 18.60 91.37 18.58
  Q 118.83 18.46 130.75 19.36
  C 140.69 20.10 149.34 21.71 153.66 31.57
  Q 155.43 35.62 155.39 45.68
  C 155.36 54.05 155.18 65.15 155.64 75.31
  Q 155.74 77.62 155.57 83.92
  C 155.46 88.34 155.84 92.84 156.00 96.25
  Q 156.14 99.39 155.67 101.51
  Z
  M 103.96 61.39
  L 102.77 68.63
  A 1.96 1.96 0.0 0 0 104.39 70.88
  L 105.93 71.13
  A 4.92 4.78 -80.7 0 0 111.44 67.05
  L 111.67 65.65
  A 4.92 4.78 -80.7 0 0 107.75 60.02
  L 106.21 59.77
  A 1.96 1.96 0.0 0 0 103.96 61.39
  Z
  M 92.5261 62.8543
  A 2.07 2.07 0.0 0 0 90.5371 60.7064
  L 86.7599 60.5613
  A 2.07 2.07 0.0 0 0 84.6119 62.5503
  L 84.3739 68.7457
  A 2.07 2.07 0.0 0 0 86.3629 70.8936
  L 90.1401 71.0387
  A 2.07 2.07 0.0 0 0 92.2881 69.0497
  L 92.5261 62.8543
  Z"
/>
<path fill="#143e5b" d="
  M 103.96 61.39
  A 1.96 1.96 0.0 0 1 106.21 59.77
  L 107.75 60.02
  A 4.92 4.78 -80.7 0 1 111.67 65.65
  L 111.44 67.05
  A 4.92 4.78 -80.7 0 1 105.93 71.13
  L 104.39 70.88
  A 1.96 1.96 0.0 0 1 102.77 68.63
  L 103.96 61.39
  Z"
/>
<rect fill="#143e5b" x="-3.96" y="-5.17" transform="translate(88.45,65.80) rotate(2.2)" width="7.92" height="10.34" rx="2.07"/>
<path fill="#e76255" d="
  M 82.76 94.91
  C 88.57 94.79 95.86 92.56 103.15 93.75
  Q 107.87 94.52 115.56 95.64
  C 117.49 95.92 120.00 96.90 122.54 97.14
  Q 126.17 97.49 130.32 98.93
  Q 140.17 102.35 149.34 106.69
  C 153.73 108.77 156.07 111.62 156.36 116.61
  Q 156.64 121.37 153.36 125.89
  Q 144.84 137.64 130.48 136.75
  Q 121.41 136.18 116.09 136.22
  Q 107.34 136.29 103.92 136.24
  Q 83.03 135.95 80.25 136.19
  Q 71.37 136.96 59.82 136.36
  C 55.25 136.12 51.18 135.62 47.47 133.11
  A 4.64 4.46 87.8 0 1 46.41 132.09
  Q 45.59 131.01 43.01 127.80
  Q 38.25 121.88 39.08 115.04
  Q 39.57 111.05 40.92 109.93
  C 44.19 107.23 47.75 105.78 50.69 104.15
  Q 53.47 102.60 56.58 101.33
  Q 65.24 97.80 73.33 96.10
  Q 78.59 95.00 82.76 94.91
  Z
  M 67.21 111.73
  C 64.14 112.64 62.79 115.99 64.22 118.63
  Q 67.11 123.98 72.34 127.99
  A 2.49 2.44 69.8 0 0 73.27 128.43
  Q 76.34 129.18 78.56 126.66
  A 2.30 2.26 -16.5 0 0 79.01 125.85
  C 80.62 120.67 79.03 117.94 75.71 113.86
  Q 72.65 110.11 67.21 111.73
  Z
  M 131.6786 112.2265
  A 9.76 6.66 -50.8 0 0 120.3489 115.5807
  A 9.76 6.66 -50.8 0 0 119.3414 127.3535
  A 9.76 6.66 -50.8 0 0 130.6711 123.9993
  A 9.76 6.66 -50.8 0 0 131.6786 112.2265
  Z"
/>
<path fill="#143e5b" d="
  M 64.22 118.63
  C 62.79 115.99 64.14 112.64 67.21 111.73
  Q 72.65 110.11 75.71 113.86
  C 79.03 117.94 80.62 120.67 79.01 125.85
  A 2.30 2.26 -16.5 0 1 78.56 126.66
  Q 76.34 129.18 73.27 128.43
  A 2.49 2.44 69.8 0 1 72.34 127.99
  Q 67.11 123.98 64.22 118.63
  Z"
/>
<ellipse fill="#143e5b" cx="0.00" cy="0.00" transform="translate(125.51,119.79) rotate(-50.8)" rx="9.76" ry="6.66"/>
<path fill="#ffffff" d="
  M 127.60 153.64
  C 126.35 155.98 123.37 154.79 121.60 153.50
  Q 118.22 151.04 116.79 150.34
  C 113.90 148.94 112.76 146.74 114.62 144.33
  A 1.68 1.64 -73.1 0 1 115.79 143.69
  C 118.93 143.41 125.60 143.09 126.99 146.48
  Q 128.34 149.76 127.92 152.68
  A 3.09 2.98 64.5 0 1 127.60 153.64
  Z"
/>
<path fill="#ffffff" d="
  M 81.07 146.12
  A 0.80 0.79 -22.6 0 1 81.62 144.80
  L 99.69 143.62
  A 2.89 2.88 79.5 0 1 102.65 145.66
  Q 103.35 147.95 102.12 150.76
  C 100.51 154.43 96.69 155.45 93.07 154.84
  A 3.32 3.30 -21.8 0 1 91.59 154.21
  C 88.41 151.83 83.98 149.43 81.07 146.12
  Z"
/>
<path fill="#ffffff" d="
  M 67.10 150.37
  A 1.03 1.02 -76.3 0 1 68.62 149.44
  Q 73.92 152.39 80.43 155.00
  Q 83.58 156.26 82.07 159.04
  C 80.15 162.59 77.53 167.95 75.49 169.30
  A 1.94 1.94 0.0 0 1 72.57 168.25
  L 69.22 157.30
  A 1.35 0.84 46.0 0 0 69.15 157.14
  Q 67.20 153.69 67.10 150.37
  Z"
/>
<path fill="#ffffff" d="
  M 99.35 164.13
  A 1.79 1.79 0.0 0 0 101.84 163.30
  C 103.38 159.93 107.93 154.51 112.25 155.29
  Q 118.63 156.45 120.08 161.64
  Q 121.16 165.50 117.03 166.50
  Q 112.19 167.67 106.67 169.18
  Q 103.97 169.92 96.58 172.83
  Q 90.37 175.28 85.34 176.61
  Q 83.90 176.99 83.26 176.73
  A 2.78 2.46 -70.1 0 1 81.93 173.36
  Q 83.15 169.76 85.81 166.14
  Q 89.72 160.83 95.77 162.21
  A 0.98 0.64 -11.6 0 1 95.97 162.29
  L 99.35 164.13
  Z"
/>
</svg>