<?xml version="1.0" encoding="UTF-8" standalone="no"?>
<!DOCTYPE svg PUBLIC "-//W3C//DTD SVG 1.1//EN" "http://www.w3.org/Graphics/SVG/1.1/DTD/svg11.dtd">
<svg xmlns="http://www.w3.org/2000/svg" version="1.1" viewBox="0.00 0.00 256.00 256.00" width="128" height="128">
<path fill="#000000" d="
  M 195.08 101.13
  Q 194.80 101.16 194.04 101.53
  C 192.37 102.35 190.02 102.22 188.41 101.70
  A 3.08 3.07 12.4 0 1 186.30 98.40
  L 186.36 97.89
  A 1.73 1.72 16.7 0 1 188.84 96.56
  Q 190.88 97.57 194.30 98.69
  C 196.25 99.33 197.84 97.44 198.69 95.65
  Q 200.90 90.97 204.03 86.39
  C 207.89 80.75 210.21 75.93 213.02 71.30
  Q 214.39 69.04 216.00 67.90
  A 1.70 1.64 26.6 0 1 217.02 67.58
  Q 219.04 67.59 219.07 69.90
  C 219.11 72.71 218.05 75.43 217.74 78.40
  C 217.08 84.92 216.29 92.75 219.40 98.50
  A 2.32 2.32 0.0 0 1 219.33 100.84
  Q 217.79 103.32 217.53 105.74
  C 216.94 111.37 217.54 117.13 217.50 122.77
  Q 217.26 156.08 217.52 171.99
  Q 217.58 175.77 219.23 178.62
  A 5.17 5.00 -81.9 0 0 219.86 179.49
  Q 220.45 180.15 225.48 182.49
  C 228.14 183.73 230.71 184.46 232.98 182.42
  C 234.73 180.85 237.76 179.39 240.07 179.57
  A 1.34 1.33 16.6 0 1 241.14 181.54
  C 238.54 186.28 233.38 192.24 227.26 192.53
  Q 218.03 192.96 212.51 192.24
  C 207.35 191.56 203.23 190.99 201.48 185.81
  Q 198.43 176.76 198.43 167.50
  Q 198.43 121.20 198.68 110.50
  C 198.75 107.10 198.74 103.71 196.01 101.40
  A 1.22 1.19 60.6 0 0 195.08 101.13
  Z"
/>
<path fill="#000000" d="
  M 75.07 188.40
  Q 78.19 185.17 83.10 183.93
  C 88.30 182.62 87.14 178.01 86.78 172.99
  Q 86.58 170.27 86.65 167.02
  Q 87.06 148.29 86.87 139.00
  C 86.71 130.85 86.50 123.91 84.29 117.08
  C 82.37 111.17 79.19 108.58 73.48 106.82
  Q 68.42 105.28 66.43 105.80
  A 3.41 3.32 -66.8 0 0 65.54 106.17
  Q 62.09 108.21 58.99 111.21
  Q 58.37 111.81 57.73 111.73
  Q 57.00 111.62 57.11 110.92
  Q 57.74 106.64 58.79 103.48
  Q 60.72 97.68 66.54 96.35
  C 75.55 94.29 90.53 93.10 96.67 102.54
  Q 100.22 107.98 102.47 112.61
  C 105.93 119.70 106.23 130.25 106.27 138.02
  Q 106.39 163.01 105.68 179.05
  C 105.33 186.83 116.10 182.61 117.79 189.60
  A 0.88 0.88 0.0 0 1 117.23 190.64
  Q 113.37 192.05 108.00 192.23
  Q 102.16 192.44 83.76 192.30
  Q 78.99 192.26 75.31 190.10
  A 1.09 1.09 0.0 0 1 75.07 188.40
  Z"
/>
<path fill="#000000" d="
  M 110.51 107.53
  Q 112.69 105.96 115.24 102.73
  Q 118.41 98.72 119.93 97.92
  C 127.44 93.96 137.96 94.23 145.48 96.74
  Q 153.92 99.55 157.49 107.74
  Q 161.68 117.36 161.82 127.91
  Q 162.10 149.01 161.83 170.48
  Q 161.76 176.02 161.52 179.24
  Q 161.31 182.14 164.63 183.64
  C 168.90 185.57 172.24 186.47 173.68 189.48
  A 1.07 1.07 0.0 0 1 173.01 190.97
  Q 168.87 192.20 163.99 192.24
  Q 141.67 192.43 140.51 192.40
  C 138.00 192.35 133.98 191.95 131.93 189.81
  A 0.83 0.83 0.0 0 1 131.83 188.81
  Q 134.03 185.21 140.22 183.17
  C 144.45 181.78 142.35 174.24 142.39 170.77
  Q 142.61 149.72 142.52 141.50
  C 142.43 133.38 142.43 126.71 140.84 119.81
  C 138.72 110.66 133.83 105.19 123.35 106.11
  A 5.03 4.99 -61.5 0 0 121.39 106.70
  Q 111.93 111.79 110.74 112.57
  Q 109.33 113.49 107.84 112.70
  A 2.29 2.27 -57.2 0 1 107.12 109.31
  Q 107.71 108.53 109.68 107.95
  A 2.81 2.80 -71.7 0 0 110.51 107.53
  Z"
/>
<path fill="#000000" d="
  M 19.62 189.44
  A 0.65 0.64 42.9 0 1 19.58 188.44
  Q 22.17 186.23 26.82 184.52
  C 30.07 183.33 31.42 182.02 31.43 178.52
  Q 31.47 147.89 31.35 118.52
  C 31.33 113.99 31.23 107.35 26.80 104.83
  Q 22.37 102.32 18.34 99.05
  A 1.33 1.33 0.0 0 1 18.72 96.77
  Q 20.76 96.02 23.58 96.07
  Q 35.84 96.30 44.88 95.89
  A 2.85 2.85 0.0 0 1 47.73 97.88
  C 49.90 104.86 51.87 111.15 50.24 118.58
  C 49.48 122.07 48.89 124.50 48.88 127.84
  Q 48.75 159.34 49.08 180.36
  A 3.19 3.18 12.0 0 0 50.93 183.20
  C 54.52 184.85 59.52 186.44 60.51 189.19
  A 1.54 1.54 0.0 0 1 59.59 191.17
  Q 56.36 192.34 51.88 192.34
  Q 33.82 192.31 29.44 192.09
  C 25.34 191.89 22.65 191.67 19.62 189.44
  Z"
/>
<ellipse fill="#000000" cx="0.00" cy="0.00" transform="translate(230.97,98.57) rotate(-2.7)" rx="9.12" ry="2.43"/>
</svg>