<?xml version="1.0" encoding="UTF-8" standalone="no"?>
<!DOCTYPE svg PUBLIC "-//W3C//DTD SVG 1.1//EN" "http://www.w3.org/Graphics/SVG/1.1/DTD/svg11.dtd">
<svg xmlns="http://www.w3.org/2000/svg" version="1.1" viewBox="0.00 0.00 256.00 256.00" width="128" height="128">
<g stroke-width="2.00" fill="none" stroke-linecap="butt">
<path stroke="#808080" vector-effect="non-scaling-stroke" d="
  M 248.07 172.84
  Q 244.95 172.66 242.50 172.68
  Q 224.80 172.85 201.46 172.52
  Q 196.63 172.45 194.75 171.58
  C 190.10 169.44 186.55 162.60 186.52 158.22
  Q 186.17 95.98 186.13 92.25
  C 186.06 84.20 187.06 63.18 174.44 62.90
  C 163.76 62.66 158.08 74.24 155.87 83.37
  Q 153.65 92.55 136.14 163.64
  Q 134.72 169.41 131.47 174.08
  A 1.83 1.82 44.0 0 1 128.51 174.13
  Q 126.52 171.49 126.53 167.82
  Q 126.54 154.73 126.01 83.76
  C 125.95 74.78 123.54 60.54 110.81 63.29
  C 99.64 65.70 96.12 82.22 93.83 91.50
  Q 88.28 113.99 84.51 131.77
  A 0.22 0.22 0.0 0 1 84.08 131.74
  C 83.51 118.95 83.45 106.99 83.13 98.26
  C 82.61 84.29 75.67 70.87 62.34 66.13
  Q 57.94 64.57 45.43 64.38
  Q 33.13 64.20 20.86 64.06"
/>
<path stroke="#808080" vector-effect="non-scaling-stroke" d="
  M 242.94 185.13
  Q 222.12 185.19 202.16 184.80
  Q 195.50 184.68 192.46 183.78
  C 181.24 180.47 176.10 168.63 175.97 157.46
  Q 175.34 103.77 175.17 77.47
  A 2.36 2.11 -83.9 0 0 173.57 75.24
  C 169.83 74.31 166.35 84.59 165.71 87.23
  Q 161.68 103.93 145.79 167.28
  C 143.82 175.11 138.26 187.71 128.46 186.49
  C 120.67 185.51 117.10 177.72 116.28 170.76
  Q 115.94 167.85 115.87 159.72
  Q 115.53 119.58 115.30 85.25
  Q 115.26 80.41 114.58 76.21
  A 1.42 1.42 0.0 0 0 112.79 75.08
  C 109.37 76.07 106.95 83.45 106.03 87.30
  Q 98.79 117.39 82.64 183.14
  C 81.17 189.12 73.76 188.31 73.31 182.20
  Q 72.95 177.44 72.90 166.26
  Q 72.64 115.25 72.57 100.52
  C 72.51 87.83 65.83 76.93 52.25 76.66
  Q 33.26 76.28 13.81 76.61"
/>
</g>
<path fill="#000000" d="
  M 248.07 172.84
  Q 244.95 172.66 242.50 172.68
  Q 224.80 172.85 201.46 172.52
  Q 196.63 172.45 194.75 171.58
  C 190.10 169.44 186.55 162.60 186.52 158.22
  Q 186.17 95.98 186.13 92.25
  C 186.06 84.20 187.06 63.18 174.44 62.90
  C 163.76 62.66 158.08 74.24 155.87 83.37
  Q 153.65 92.55 136.14 163.64
  Q 134.72 169.41 131.47 174.08
  A 1.83 1.82 44.0 0 1 128.51 174.13
  Q 126.52 171.49 126.53 167.82
  Q 126.54 154.73 126.01 83.76
  C 125.95 74.78 123.54 60.54 110.81 63.29
  C 99.64 65.70 96.12 82.22 93.83 91.50
  Q 88.28 113.99 84.51 131.77
  A 0.22 0.22 0.0 0 1 84.08 131.74
  C 83.51 118.95 83.45 106.99 83.13 98.26
  C 82.61 84.29 75.67 70.87 62.34 66.13
  Q 57.94 64.57 45.43 64.38
  Q 33.13 64.20 20.86 64.06
  Q 21.01 62.96 21.27 62.52
  C 38.41 34.48 66.17 14.50 97.77 6.26
  C 117.69 1.07 140.68 1.05 161.03 6.46
  C 204.72 18.09 238.06 50.62 251.05 94.03
  Q 255.04 107.35 255.60 122.73
  Q 256.15 138.02 254.07 151.80
  Q 252.45 162.52 248.07 172.84
  Z"
/>
<path fill="#ffffff" d="
  M 248.07 172.84
  Q 244.47 178.65 242.94 185.13
  Q 222.12 185.19 202.16 184.80
  Q 195.50 184.68 192.46 183.78
  C 181.24 180.47 176.10 168.63 175.97 157.46
  Q 175.34 103.77 175.17 77.47
  A 2.36 2.11 -83.9 0 0 173.57 75.24
  C 169.83 74.31 166.35 84.59 165.71 87.23
  Q 161.68 103.93 145.79 167.28
  C 143.82 175.11 138.26 187.71 128.46 186.49
  C 120.67 185.51 117.10 177.72 116.28 170.76
  Q 115.94 167.85 115.87 159.72
  Q 115.53 119.58 115.30 85.25
  Q 115.26 80.41 114.58 76.21
  A 1.42 1.42 0.0 0 0 112.79 75.08
  C 109.37 76.07 106.95 83.45 106.03 87.30
  Q 98.79 117.39 82.64 183.14
  C 81.17 189.12 73.76 188.31 73.31 182.20
  Q 72.95 177.44 72.90 166.26
  Q 72.64 115.25 72.57 100.52
  C 72.51 87.83 65.83 76.93 52.25 76.66
  Q 33.26 76.28 13.81 76.61
  L 20.86 64.06
  Q 33.13 64.20 45.43 64.38
  Q 57.94 64.57 62.34 66.13
  C 75.67 70.87 82.61 84.29 83.13 98.26
  C 83.45 106.99 83.51 118.95 84.08 131.74
  A 0.22 0.22 0.0 0 0 84.51 131.77
  Q 88.28 113.99 93.83 91.50
  C 96.12 82.22 99.64 65.70 110.81 63.29
  C 123.54 60.54 125.95 74.78 126.01 83.76
  Q 126.54 154.73 126.53 167.82
  Q 126.52 171.49 128.51 174.13
  A 1.83 1.82 44.0 0 0 131.47 174.08
  Q 134.72 169.41 136.14 163.64
  Q 153.65 92.55 155.87 83.37
  C 158.08 74.24 163.76 62.66 174.44 62.90
  C 187.06 63.18 186.06 84.20 186.13 92.25
  Q 186.17 95.98 186.52 158.22
  C 186.55 162.60 190.10 169.44 194.75 171.58
  Q 196.63 172.45 201.46 172.52
  Q 224.80 172.85 242.50 172.68
  Q 244.95 172.66 248.07 172.84
  Z"
/>
<path fill="#000000" d="
  M 242.94 185.13
  Q 233.46 205.40 217.35 220.83
  Q 184.73 252.07 139.65 256.00
  L 118.76 256.00
  C 72.87 252.31 33.22 224.30 13.77 182.71
  C 3.46 160.66 0.61 137.36 3.15 112.69
  Q 4.94 95.26 13.81 76.61
  Q 33.26 76.28 52.25 76.66
  C 65.83 76.93 72.51 87.83 72.57 100.52
  Q 72.64 115.25 72.90 166.26
  Q 72.95 177.44 73.31 182.20
  C 73.76 188.31 81.17 189.12 82.64 183.14
  Q 98.79 117.39 106.03 87.30
  C 106.95 83.45 109.37 76.07 112.79 75.08
  A 1.42 1.42 0.0 0 1 114.58 76.21
  Q 115.26 80.41 115.30 85.25
  Q 115.53 119.58 115.87 159.72
  Q 115.94 167.85 116.28 170.76
  C 117.10 177.72 120.67 185.51 128.46 186.49
  C 138.26 187.71 143.82 175.11 145.79 167.28
  Q 161.68 103.93 165.71 87.23
  C 166.35 84.59 169.83 74.31 173.57 75.24
  A 2.36 2.11 -83.9 0 1 175.17 77.47
  Q 175.34 103.77 175.97 157.46
  C 176.10 168.63 181.24 180.47 192.46 183.78
  Q 195.50 184.68 202.16 184.80
  Q 222.12 185.19 242.94 185.13
  Z"
/>
</svg>