<?xml version="1.0" encoding="UTF-8" standalone="no"?>
<!DOCTYPE svg PUBLIC "-//W3C//DTD SVG 1.1//EN" "http://www.w3.org/Graphics/SVG/1.1/DTD/svg11.dtd">
<svg xmlns="http://www.w3.org/2000/svg" version="1.1" viewBox="0.00 0.00 180.00 180.00" width="128" height="128">
<g stroke-width="2.00" fill="none" stroke-linecap="butt">
<path stroke="#808080" vector-effect="non-scaling-stroke" d="
  M 95.91 70.49
  Q 95.35 69.33 95.36 68.00
  Q 95.37 64.53 94.63 61.12
  A 0.66 0.65 -6.0 0 0 93.99 60.61
  L 85.93 60.61
  A 0.90 0.87 12.7 0 0 85.13 61.10
  L 64.55 102.46
  A 0.49 0.49 0.0 0 1 63.67 102.45
  L 43.24 61.15
  A 1.03 1.02 -13.0 0 0 42.32 60.58
  L 34.16 60.58
  A 0.63 0.62 4.3 0 0 33.54 61.11
  L 25.27 117.91
  A 0.44 0.44 0.0 0 0 25.71 118.42
  L 35.56 118.42
  A 0.41 0.40 -85.9 0 0 35.96 118.07
  L 41.25 81.80
  A 0.45 0.45 0.0 0 1 42.10 81.66
  L 59.94 117.73
  A 1.20 1.19 76.8 0 0 61.01 118.40
  L 67.27 118.40
  A 1.05 1.03 -76.5 0 0 68.20 117.82
  L 85.90 82.24
  A 0.54 0.54 0.0 0 1 86.92 82.40
  Q 86.98 82.83 88.70 95.26
  Q 88.71 95.33 89.68 101.72
  Q 90.58 107.56 90.40 112.10
  A 1.82 1.81 -57.2 0 0 90.59 112.99
  Q 91.20 114.19 91.20 116.50
  A 0.95 0.95 0.0 0 0 92.90 117.09
  L 100.50 107.24
  A 2.50 2.48 59.6 0 0 100.99 105.32
  L 97.35 82.55
  A 0.68 0.46 -52.7 0 1 97.36 82.36
  Q 97.59 81.31 96.57 77.97
  Q 96.15 76.56 96.11 71.38
  A 2.09 2.04 -58.4 0 0 95.91 70.49"
/>
<path stroke="#808080" vector-effect="non-scaling-stroke" d="
  M 139.55 63.78
  A 24.80 14.38 -54.7 0 1 137.55 66.66
  L 127.59 79.87
  A 1.24 1.23 44.6 0 1 125.63 79.88
  L 111.31 61.40
  A 1.91 1.90 -18.7 0 0 109.80 60.66
  L 98.26 60.66
  A 0.46 0.46 0.0 0 0 97.90 61.41
  L 119.17 88.86
  A 1.22 1.21 -45.2 0 1 119.17 90.35
  Q 115.89 94.59 113.77 97.15
  C 113.20 97.85 112.29 98.26 112.22 99.21
  A 0.20 0.04 -79.1 0 0 112.20 99.26
  L 98.54 116.94
  A 0.87 0.86 18.8 0 0 99.23 118.33
  L 110.66 118.33
  A 0.67 0.67 0.0 0 0 111.18 118.08
  L 125.99 98.90
  A 0.71 0.71 0.0 0 1 127.11 98.90
  L 141.73 117.77
  A 1.98 1.96 -19.0 0 0 143.28 118.52
  L 155.06 118.52
  A 0.42 0.42 0.0 0 0 155.39 117.85
  L 133.66 89.81
  A 0.45 0.45 0.0 0 1 133.66 89.25
  L 155.32 61.20
  A 0.37 0.37 0.0 0 0 155.03 60.60
  L 142.66 60.60
  A 1.31 1.30 19.1 0 0 141.64 61.09
  Q 139.75 63.48 139.55 63.78"
/>
</g>
<path fill="#000000" d="
  M 180.00 0.00
  L 180.00 180.00
  L 0.00 180.00
  L 0.00 0.00
  L 180.00 0.00
  Z
  M 95.91 70.49
  Q 95.35 69.33 95.36 68.00
  Q 95.37 64.53 94.63 61.12
  A 0.66 0.65 -6.0 0 0 93.99 60.61
  L 85.93 60.61
  A 0.90 0.87 12.7 0 0 85.13 61.10
  L 64.55 102.46
  A 0.49 0.49 0.0 0 1 63.67 102.45
  L 43.24 61.15
  A 1.03 1.02 -13.0 0 0 42.32 60.58
  L 34.16 60.58
  A 0.63 0.62 4.3 0 0 33.54 61.11
  L 25.27 117.91
  A 0.44 0.44 0.0 0 0 25.71 118.42
  L 35.56 118.42
  A 0.41 0.40 -85.9 0 0 35.96 118.07
  L 41.25 81.80
  A 0.45 0.45 0.0 0 1 42.10 81.66
  L 59.94 117.73
  A 1.20 1.19 76.8 0 0 61.01 118.40
  L 67.27 118.40
  A 1.05 1.03 -76.5 0 0 68.20 117.82
  L 85.90 82.24
  A 0.54 0.54 0.0 0 1 86.92 82.40
  Q 86.98 82.83 88.70 95.26
  Q 88.71 95.33 89.68 101.72
  Q 90.58 107.56 90.40 112.10
  A 1.82 1.81 -57.2 0 0 90.59 112.99
  Q 91.20 114.19 91.20 116.50
  A 0.95 0.95 0.0 0 0 92.90 117.09
  L 100.50 107.24
  A 2.50 2.48 59.6 0 0 100.99 105.32
  L 97.35 82.55
  A 0.68 0.46 -52.7 0 1 97.36 82.36
  Q 97.59 81.31 96.57 77.97
  Q 96.15 76.56 96.11 71.38
  A 2.09 2.04 -58.4 0 0 95.91 70.49
  Z
  M 139.55 63.78
  A 24.80 14.38 -54.7 0 1 137.55 66.66
  L 127.59 79.87
  A 1.24 1.23 44.6 0 1 125.63 79.88
  L 111.31 61.40
  A 1.91 1.90 -18.7 0 0 109.80 60.66
  L 98.26 60.66
  A 0.46 0.46 0.0 0 0 97.90 61.41
  L 119.17 88.86
  A 1.22 1.21 -45.2 0 1 119.17 90.35
  Q 115.89 94.59 113.77 97.15
  C 113.20 97.85 112.29 98.26 112.22 99.21
  A 0.20 0.04 -79.1 0 0 112.20 99.26
  L 98.54 116.94
  A 0.87 0.86 18.8 0 0 99.23 118.33
  L 110.66 118.33
  A 0.67 0.67 0.0 0 0 111.18 118.08
  L 125.99 98.90
  A 0.71 0.71 0.0 0 1 127.11 98.90
  L 141.73 117.77
  A 1.98 1.96 -19.0 0 0 143.28 118.52
  L 155.06 118.52
  A 0.42 0.42 0.0 0 0 155.39 117.85
  L 133.66 89.81
  A 0.45 0.45 0.0 0 1 133.66 89.25
  L 155.32 61.20
  A 0.37 0.37 0.0 0 0 155.03 60.60
  L 142.66 60.60
  A 1.31 1.30 19.1 0 0 141.64 61.09
  Q 139.75 63.48 139.55 63.78
  Z"
/>
<path fill="#ffffff" d="
  M 96.11 71.38
  Q 96.15 76.56 96.57 77.97
  Q 97.59 81.31 97.36 82.36
  A 0.68 0.46 -52.7 0 0 97.35 82.55
  L 100.99 105.32
  A 2.50 2.48 59.6 0 1 100.50 107.24
  L 92.90 117.09
  A 0.95 0.95 0.0 0 1 91.20 116.50
  Q 91.20 114.19 90.59 112.99
  A 1.82 1.81 -57.2 0 1 90.40 112.10
  Q 90.58 107.56 89.68 101.72
  Q 88.71 95.33 88.70 95.26
  Q 86.98 82.83 86.92 82.40
  A 0.54 0.54 0.0 0 0 85.90 82.24
  L 68.20 117.82
  A 1.05 1.03 -76.5 0 1 67.27 118.40
  L 61.01 118.40
  A 1.20 1.19 76.8 0 1 59.94 117.73
  L 42.10 81.66
  A 0.45 0.45 0.0 0 0 41.25 81.80
  L 35.96 118.07
  A 0.41 0.40 -85.9 0 1 35.56 118.42
  L 25.71 118.42
  A 0.44 0.44 0.0 0 1 25.27 117.91
  L 33.54 61.11
  A 0.63 0.62 4.3 0 1 34.16 60.58
  L 42.32 60.58
  A 1.03 1.02 -13.0 0 1 43.24 61.15
  L 63.67 102.45
  A 0.49 0.49 0.0 0 0 64.55 102.46
  L 85.13 61.10
  A 0.90 0.87 12.7 0 1 85.93 60.61
  L 93.99 60.61
  A 0.66 0.65 -6.0 0 1 94.63 61.12
  Q 95.37 64.53 95.36 68.00
  Q 95.35 69.33 95.91 70.49
  A 2.09 2.04 -58.4 0 1 96.11 71.38
  Z"
/>
<path fill="#ffffff" d="
  M 139.55 63.78
  Q 139.75 63.48 141.64 61.09
  A 1.31 1.30 19.1 0 1 142.66 60.60
  L 155.03 60.60
  A 0.37 0.37 0.0 0 1 155.32 61.20
  L 133.66 89.25
  A 0.45 0.45 0.0 0 0 133.66 89.81
  L 155.39 117.85
  A 0.42 0.42 0.0 0 1 155.06 118.52
  L 143.28 118.52
  A 1.98 1.96 -19.0 0 1 141.73 117.77
  L 127.11 98.90
  A 0.71 0.71 0.0 0 0 125.99 98.90
  L 111.18 118.08
  A 0.67 0.67 0.0 0 1 110.66 118.33
  L 99.23 118.33
  A 0.87 0.86 18.8 0 1 98.54 116.94
  L 112.20 99.26
  A 0.20 0.04 -79.1 0 1 112.22 99.21
  C 112.29 98.26 113.20 97.85 113.77 97.15
  Q 115.89 94.59 119.17 90.35
  A 1.22 1.21 -45.2 0 0 119.17 88.86
  L 97.90 61.41
  A 0.46 0.46 0.0 0 1 98.26 60.66
  L 109.80 60.66
  A 1.91 1.90 -18.7 0 1 111.31 61.40
  L 125.63 79.88
  A 1.24 1.23 44.6 0 0 127.59 79.87
  L 137.55 66.66
  A 24.80 14.38 -54.7 0 0 139.55 63.78
  Z"
/>
</svg>