<?xml version="1.0" encoding="UTF-8" standalone="no"?>
<!DOCTYPE svg PUBLIC "-//W3C//DTD SVG 1.1//EN" "http://www.w3.org/Graphics/SVG/1.1/DTD/svg11.dtd">
<svg xmlns="http://www.w3.org/2000/svg" version="1.1" viewBox="0.00 0.00 256.00 256.00" width="128" height="128">
<g stroke-width="2.00" fill="none" stroke-linecap="butt">
<path stroke="#918f90" vector-effect="non-scaling-stroke" d="
  M 25.48 160.93
  L 55.60 149.36
  A 0.45 0.45 0.0 0 0 55.46 148.49
  L 34.25 147.48
  A 0.54 0.54 0.0 0 1 33.97 146.49
  Q 51.05 134.95 66.99 127.54
  A 0.31 0.31 0.0 0 0 66.89 126.95
  L 48.10 124.91
  A 0.47 0.46 32.6 0 1 47.91 124.05
  Q 63.58 114.70 80.56 109.34
  A 2.22 2.21 83.4 0 0 82.10 107.39
  Q 82.72 98.78 83.52 93.02
  Q 85.55 78.35 92.91 64.94
  Q 94.50 62.04 96.52 59.63
  A 1.25 1.24 43.4 0 1 98.38 59.58
  Q 109.47 71.24 116.80 85.75
  A 0.51 0.51 0.0 0 0 117.75 85.61
  Q 119.47 76.28 124.47 66.57
  A 0.93 0.93 0.0 0 1 125.86 66.26
  Q 128.63 68.38 130.82 71.17
  Q 139.11 81.72 142.76 94.88
  A 2.27 2.26 84.8 0 0 144.74 96.53
  C 150.78 97.07 157.45 96.14 161.93 100.60
  Q 162.29 100.96 167.02 106.66
  A 3.10 3.09 70.1 0 0 169.40 107.78
  Q 200.07 107.68 212.77 107.79
  Q 214.71 107.81 214.76 110.15
  C 215.07 126.12 207.49 143.26 191.20 148.27
  Q 189.56 148.78 180.31 149.24
  C 161.11 150.21 143.46 160.13 133.13 176.36
  C 121.68 194.32 120.47 215.79 127.85 235.65
  A 0.86 0.85 -10.4 0 0 128.65 236.20
  C 167.43 235.84 202.23 215.55 221.68 182.21
  C 243.64 144.56 240.46 96.85 213.89 62.15
  C 177.28 14.37 108.91 5.81 61.40 42.66
  C 26.82 69.49 12.60 113.83 23.37 156.09
  Q 24.10 158.96 24.77 160.62
  A 0.56 0.55 -21.1 0 0 25.48 160.93"
/>
<path stroke="#918f90" vector-effect="non-scaling-stroke" d="
  M 134.94 106.29
  C 136.20 114.84 146.71 117.74 154.15 117.08
  Q 155.84 116.94 157.17 116.09
  A 0.95 0.95 0.0 0 0 157.62 115.25
  Q 157.50 111.50 154.35 108.91
  A 2.60 2.56 75.1 0 0 153.57 108.45
  Q 145.25 105.23 135.25 105.91
  A 0.33 0.33 0.0 0 0 134.94 106.29"
/>
</g>
<path fill="#ffffff" d="
  M 256.00 0.00
  L 256.00 256.00
  L 0.00 256.00
  L 0.00 0.00
  L 256.00 0.00
  Z
  M 25.48 160.93
  L 55.60 149.36
  A 0.45 0.45 0.0 0 0 55.46 148.49
  L 34.25 147.48
  A 0.54 0.54 0.0 0 1 33.97 146.49
  Q 51.05 134.95 66.99 127.54
  A 0.31 0.31 0.0 0 0 66.89 126.95
  L 48.10 124.91
  A 0.47 0.46 32.6 0 1 47.91 124.05
  Q 63.58 114.70 80.56 109.34
  A 2.22 2.21 83.4 0 0 82.10 107.39
  Q 82.72 98.78 83.52 93.02
  Q 85.55 78.35 92.91 64.94
  Q 94.50 62.04 96.52 59.63
  A 1.25 1.24 43.4 0 1 98.38 59.58
  Q 109.47 71.24 116.80 85.75
  A 0.51 0.51 0.0 0 0 117.75 85.61
  Q 119.47 76.28 124.47 66.57
  A 0.93 0.93 0.0 0 1 125.86 66.26
  Q 128.63 68.38 130.82 71.17
  Q 139.11 81.72 142.76 94.88
  A 2.27 2.26 84.8 0 0 144.74 96.53
  C 150.78 97.07 157.45 96.14 161.93 100.60
  Q 162.29 100.96 167.02 106.66
  A 3.10 3.09 70.1 0 0 169.40 107.78
  Q 200.07 107.68 212.77 107.79
  Q 214.71 107.81 214.76 110.15
  C 215.07 126.12 207.49 143.26 191.20 148.27
  Q 189.56 148.78 180.31 149.24
  C 161.11 150.21 143.46 160.13 133.13 176.36
  C 121.68 194.32 120.47 215.79 127.85 235.65
  A 0.86 0.85 -10.4 0 0 128.65 236.20
  C 167.43 235.84 202.23 215.55 221.68 182.21
  C 243.64 144.56 240.46 96.85 213.89 62.15
  C 177.28 14.37 108.91 5.81 61.40 42.66
  C 26.82 69.49 12.60 113.83 23.37 156.09
  Q 24.10 158.96 24.77 160.62
  A 0.56 0.55 -21.1 0 0 25.48 160.93
  Z
  M 134.94 106.29
  C 136.20 114.84 146.71 117.74 154.15 117.08
  Q 155.84 116.94 157.17 116.09
  A 0.95 0.95 0.0 0 0 157.62 115.25
  Q 157.50 111.50 154.35 108.91
  A 2.60 2.56 75.1 0 0 153.57 108.45
  Q 145.25 105.23 135.25 105.91
  A 0.33 0.33 0.0 0 0 134.94 106.29
  Z"
/>
<path fill="#231f20" d="
  M 24.77 160.62
  Q 24.10 158.96 23.37 156.09
  C 12.60 113.83 26.82 69.49 61.40 42.66
  C 108.91 5.81 177.28 14.37 213.89 62.15
  C 240.46 96.85 243.64 144.56 221.68 182.21
  C 202.23 215.55 167.43 235.84 128.65 236.20
  A 0.86 0.85 -10.4 0 1 127.85 235.65
  C 120.47 215.79 121.68 194.32 133.13 176.36
  C 143.46 160.13 161.11 150.21 180.31 149.24
  Q 189.56 148.78 191.20 148.27
  C 207.49 143.26 215.07 126.12 214.76 110.15
  Q 214.71 107.81 212.77 107.79
  Q 200.07 107.68 169.40 107.78
  A 3.10 3.09 70.1 0 1 167.02 106.66
  Q 162.29 100.96 161.93 100.60
  C 157.45 96.14 150.78 97.07 144.74 96.53
  A 2.27 2.26 84.8 0 1 142.76 94.88
  Q 139.11 81.72 130.82 71.17
  Q 128.63 68.38 125.86 66.26
  A 0.93 0.93 0.0 0 0 124.47 66.57
  Q 119.47 76.28 117.75 85.61
  A 0.51 0.51 0.0 0 1 116.80 85.75
  Q 109.47 71.24 98.38 59.58
  A 1.25 1.24 43.4 0 0 96.52 59.63
  Q 94.50 62.04 92.91 64.94
  Q 85.55 78.35 83.52 93.02
  Q 82.72 98.78 82.10 107.39
  A 2.22 2.21 83.4 0 1 80.56 109.34
  Q 63.58 114.70 47.91 124.05
  A 0.47 0.46 32.6 0 0 48.10 124.91
  L 66.89 126.95
  A 0.31 0.31 0.0 0 1 66.99 127.54
  Q 51.05 134.95 33.97 146.49
  A 0.54 0.54 0.0 0 0 34.25 147.48
  L 55.46 148.49
  A 0.45 0.45 0.0 0 1 55.60 149.36
  L 25.48 160.93
  A 0.56 0.55 -21.1 0 1 24.77 160.62
  Z"
/>
<path fill="#231f20" d="
  M 134.94 106.29
  A 0.33 0.33 0.0 0 1 135.25 105.91
  Q 145.25 105.23 153.57 108.45
  A 2.60 2.56 75.1 0 1 154.35 108.91
  Q 157.50 111.50 157.62 115.25
  A 0.95 0.95 0.0 0 1 157.17 116.09
  Q 155.84 116.94 154.15 117.08
  C 146.71 117.74 136.20 114.84 134.94 106.29
  Z"
/>
</svg>