<?xml version="1.0" encoding="UTF-8" standalone="no"?>
<!DOCTYPE svg PUBLIC "-//W3C//DTD SVG 1.1//EN" "http://www.w3.org/Graphics/SVG/1.1/DTD/svg11.dtd">
<svg xmlns="http://www.w3.org/2000/svg" version="1.1" viewBox="0.00 0.00 256.00 256.00" width="128" height="128">
<g stroke-width="2.00" fill="none" stroke-linecap="butt">
<path stroke="#853d58" vector-effect="non-scaling-stroke" d="
  M 209.18 73.07
  C 191.34 83.98 172.90 91.99 153.35 100.05
  Q 149.96 101.45 146.45 102.35
  A 2.01 1.95 -39.2 0 1 145.18 102.24
  Q 144.16 101.79 143.02 101.81
  Q 141.68 101.83 143.01 101.93
  A 0.38 0.38 0.0 0 1 143.34 102.45
  L 143.20 102.82
  A 1.09 1.06 86.3 0 1 142.72 103.38
  L 137.18 106.58
  A 1.16 0.75 -57.0 0 1 137.00 106.66
  Q 127.92 109.02 118.56 112.80
  Q 116.79 113.52 114.83 113.93
  Q 112.95 114.33 110.98 114.73"
/>
<path stroke="#859ec8" vector-effect="non-scaling-stroke" d="
  M 110.98 114.73
  C 109.48 110.21 107.52 108.67 103.19 108.62
  Q 97.66 108.56 92.26 108.84
  A 1.30 1.29 -2.7 0 0 91.03 110.18
  C 91.23 115.13 91.84 120.01 87.86 123.56"
/>
<path stroke="#853d58" vector-effect="non-scaling-stroke" d="
  M 87.86 123.56
  Q 86.09 123.53 84.28 122.78
  A 1.70 1.66 47.2 0 0 83.13 122.72
  Q 80.69 123.47 79.16 125.26
  C 76.92 127.87 74.21 128.11 70.98 128.49
  Q 68.01 128.84 68.36 127.15"
/>
<path stroke="#859ec8" vector-effect="non-scaling-stroke" d="
  M 68.36 127.15
  L 68.60 112.60
  A 1.24 1.17 -36.2 0 1 68.68 112.17
  L 69.71 109.50
  A 0.62 0.62 0.0 0 0 69.05 108.67
  Q 65.59 109.15 61.83 108.25
  A 0.80 0.79 0.5 0 0 60.87 109.19
  Q 62.97 118.61 62.93 127.76
  A 1.11 1.10 20.9 0 1 61.09 128.58
  C 56.32 124.35 54.67 119.82 50.29 111.99
  Q 48.25 108.34 44.82 108.19
  Q 39.87 107.96 34.32 108.50
  A 0.92 0.91 80.4 0 0 33.52 109.63
  Q 34.76 114.60 34.68 119.25
  Q 34.43 131.91 33.68 144.20"
/>
<path stroke="#7c3e62" vector-effect="non-scaling-stroke" d="
  M 33.68 144.20
  Q 25.41 145.55 19.17 150.16
  A 1.34 1.28 -61.8 0 1 18.35 150.43
  L 15.08 150.40"
/>
<path stroke="#ff9e8f" vector-effect="non-scaling-stroke" d="
  M 68.36 127.15
  L 68.26 135.36"
/>
<path stroke="#f69f99" vector-effect="non-scaling-stroke" d="
  M 41.47 137.98
  Q 40.67 142.52 43.64 144.82"
/>
<path stroke="#f69f99" vector-effect="non-scaling-stroke" d="
  M 33.72 147.73
  Q 31.83 147.06 33.68 144.20"
/>
<path stroke="#853d58" vector-effect="non-scaling-stroke" d="
  M 216.51 87.63
  Q 208.12 93.76 200.52 100.04
  Q 199.38 100.99 194.72 102.42
  A 1.22 1.21 87.6 0 0 193.89 103.33
  L 193.63 104.57
  A 4.55 4.46 72.3 0 1 192.60 106.61
  L 191.38 107.97"
/>
<path stroke="#ff9e8f" vector-effect="non-scaling-stroke" d="
  M 191.38 107.97
  L 188.45 108.93
  A 4.01 3.68 17.2 0 0 187.52 109.37
  C 184.05 111.63 180.81 112.29 179.26 116.98"
/>
<path stroke="#853d58" vector-effect="non-scaling-stroke" d="
  M 179.26 116.98
  Q 176.26 117.00 174.40 118.15
  Q 173.00 119.01 169.21 122.35
  A 5.59 5.27 8.0 0 1 168.25 123.03
  Q 165.80 124.38 163.95 126.19"
/>
<path stroke="#ff9e8f" vector-effect="non-scaling-stroke" d="
  M 163.95 126.19
  Q 160.60 127.56 155.72 130.96
  Q 151.50 133.91 149.65 136.37"
/>
<path stroke="#853d58" vector-effect="non-scaling-stroke" d="
  M 149.65 136.37
  L 142.45 139.87
  A 1.71 1.63 3.2 0 0 141.83 140.40
  Q 141.10 141.43 141.01 142.84
  A 0.50 0.50 0.0 0 0 141.49 143.37
  L 146.93 143.59"
/>
<path stroke="#ff9e8f" vector-effect="non-scaling-stroke" d="
  M 146.93 143.59
  Q 141.34 143.38 135.83 144.75
  A 1.43 1.26 -62.6 0 0 135.52 144.87
  L 129.15 148.35
  A 0.65 0.65 0.0 0 0 128.97 149.35
  Q 129.06 149.43 129.54 149.55"
/>
<path stroke="#853d58" vector-effect="non-scaling-stroke" d="
  M 129.54 149.55
  Q 126.21 150.07 123.55 152.02
  Q 120.71 154.09 120.01 154.36
  Q 117.91 155.14 115.76 155.20
  A 1.87 1.87 0.0 0 1 114.11 152.35
  L 114.69 151.42
  A 1.26 1.18 -86.7 0 1 115.13 151.00
  L 119.32 148.66"
/>
<path stroke="#ff9e8f" vector-effect="non-scaling-stroke" d="
  M 119.32 148.66
  Q 121.54 148.10 121.75 144.92"
/>
<path stroke="#853d58" vector-effect="non-scaling-stroke" d="
  M 121.75 144.92
  Q 123.48 145.77 126.29 144.94
  A 2.34 2.31 15.3 0 0 127.16 144.45
  C 128.91 142.90 130.49 139.75 132.94 139.21
  C 136.06 138.52 139.52 137.91 139.57 133.72"
/>
<path stroke="#ff9e8f" vector-effect="non-scaling-stroke" d="
  M 139.57 133.72
  Q 141.76 134.50 143.57 133.57
  Q 148.63 130.97 156.64 125.54
  A 0.66 0.60 -8.5 0 0 156.87 125.26
  Q 157.16 124.50 156.21 124.15"
/>
<path stroke="#853d58" vector-effect="non-scaling-stroke" d="
  M 156.21 124.15
  Q 160.16 123.62 161.04 122.82
  C 164.23 119.93 167.53 118.56 170.30 115.99
  Q 171.17 115.18 176.45 112.20
  C 178.66 110.95 182.13 107.93 185.22 106.14
  Q 186.95 105.15 188.33 103.08
  A 1.11 1.10 14.4 0 1 189.13 102.61
  Q 190.74 102.45 190.97 101.31
  Q 191.86 97.00 196.16 95.44
  Q 197.04 95.12 198.21 93.43
  A 0.30 0.30 0.0 0 0 197.85 92.98
  Q 193.44 94.83 189.31 98.37
  A 5.29 4.98 -76.1 0 1 188.16 99.11
  L 161.08 111.47"
/>
<path stroke="#ff9e8f" vector-effect="non-scaling-stroke" d="
  M 161.08 111.47
  Q 157.12 109.42 151.99 108.65
  A 3.76 3.63 62.0 0 1 150.79 108.26
  L 147.56 106.54
  A 1.22 1.22 0.0 0 0 146.42 106.54
  L 140.94 109.44
  A 1.63 1.51 -61.2 0 1 140.46 109.60
  Q 130.89 111.36 129.29 121.40"
/>
<path stroke="#853d58" vector-effect="non-scaling-stroke" d="
  M 129.29 121.40
  Q 127.73 122.15 125.94 122.46
  Q 124.08 122.77 122.63 123.41
  Q 118.46 125.25 114.54 124.85"
/>
<path stroke="#ff9e8f" vector-effect="non-scaling-stroke" d="
  M 114.54 124.85
  L 110.98 114.73"
/>
<path stroke="#859ec8" vector-effect="non-scaling-stroke" d="
  M 114.54 124.85
  L 121.75 144.92"
/>
<path stroke="#ff9e8f" vector-effect="non-scaling-stroke" d="
  M 86.11 132.41
  L 87.86 123.56"
/>
<path stroke="#7c3e62" vector-effect="non-scaling-stroke" d="
  M 48.79 207.59
  Q 72.02 186.38 98.35 169.33
  Q 99.93 168.31 103.34 165.12
  A 1.27 1.25 18.8 0 1 104.00 164.80
  L 108.25 164.09"
/>
<path stroke="#859ec8" vector-effect="non-scaling-stroke" d="
  M 108.25 164.09
  Q 109.74 165.52 112.58 169.16
  Q 114.81 172.01 120.14 174.76
  A 1.76 1.76 0.0 0 0 122.69 172.94
  L 122.45 171.30
  A 5.64 5.61 -75.3 0 0 120.36 167.70
  L 112.51 161.54"
/>
<path stroke="#7c3e62" vector-effect="non-scaling-stroke" d="
  M 112.51 161.54
  Q 114.40 159.04 114.83 156.16
  A 0.56 0.55 -1.5 0 0 114.17 155.54
  L 113.11 155.75
  A 0.92 0.81 41.4 0 1 112.74 155.75
  Q 110.48 155.29 106.73 155.86
  A 1.79 1.76 20.9 0 0 105.86 156.24
  C 104.34 157.47 102.73 159.36 100.58 160.98
  Q 92.75 166.88 84.64 172.45
  Q 82.87 173.66 75.74 178.74
  Q 71.48 181.76 59.27 193.06
  Q 57.43 194.77 54.67 196.82
  Q 51.57 199.14 50.20 200.72
  Q 47.35 204.03 44.94 204.45"
/>
<path stroke="#7c3e62" vector-effect="non-scaling-stroke" d="
  M 16.45 154.25
  L 25.33 150.48
  A 8.89 8.69 27.2 0 1 26.92 149.99
  Q 30.50 149.26 33.72 147.73"
/>
<path stroke="#859ec8" vector-effect="non-scaling-stroke" d="
  M 33.72 147.73
  Q 39.78 148.02 43.64 144.82"
/>
<path stroke="#7c3e62" vector-effect="non-scaling-stroke" d="
  M 43.64 144.82
  L 48.18 143.36
  A 1.16 1.16 0.0 0 0 48.87 141.74
  Q 46.38 136.72 41.47 137.98"
/>
<path stroke="#859ec8" vector-effect="non-scaling-stroke" d="
  M 41.47 137.98
  Q 39.90 137.93 39.06 136.23
  A 1.90 1.90 0.0 0 1 38.86 135.34
  Q 38.95 131.10 37.55 126.69
  A 0.98 0.98 0.0 0 1 38.89 125.50
  Q 44.36 128.00 46.92 133.85
  Q 49.39 139.49 52.12 143.61
  C 55.61 148.86 61.28 148.02 66.52 148.01
  A 1.99 1.99 0.0 0 0 68.50 145.98
  L 68.26 135.36"
/>
<path stroke="#853d58" vector-effect="non-scaling-stroke" d="
  M 68.26 135.36
  Q 68.25 136.47 70.07 136.47
  Q 70.92 136.47 72.43 136.08
  Q 79.46 134.26 86.11 132.41"
/>
<path stroke="#859ec8" vector-effect="non-scaling-stroke" d="
  M 86.11 132.41
  L 85.37 136.77
  A 2.22 1.82 66.0 0 1 85.29 137.06
  L 81.24 147.59
  A 0.78 0.78 0.0 0 0 81.95 148.65
  C 85.07 148.70 87.32 147.11 90.95 144.97
  A 0.16 0.08 -63.4 0 0 90.99 144.94
  L 96.31 139.04
  A 2.74 2.70 -78.2 0 1 97.47 138.27
  C 105.40 135.62 103.03 147.90 110.51 148.02
  Q 115.61 148.10 119.32 148.66"
/>
<path stroke="#859ec8" vector-effect="non-scaling-stroke" d="
  M 129.54 149.55
  C 135.07 148.36 139.69 148.96 145.74 149.28
  C 154.66 149.77 161.17 144.50 165.90 137.53
  A 1.90 1.89 -39.7 0 0 166.07 135.72
  Q 164.28 131.60 163.95 126.19"
/>
<path stroke="#859ec8" vector-effect="non-scaling-stroke" d="
  M 179.26 116.98
  L 174.20 136.70
  A 4.74 4.61 69.8 0 1 173.55 138.16
  C 172.29 140.02 170.70 141.50 170.14 143.73
  Q 169.24 147.29 171.33 150.39
  A 2.13 2.13 0.0 0 0 174.41 150.87
  Q 177.41 148.52 178.19 143.85
  C 178.97 139.17 182.80 138.86 186.41 138.36
  C 192.39 137.53 192.56 142.27 193.19 146.51
  A 2.01 2.01 0.0 0 0 195.18 148.23
  L 209.83 148.23
  A 1.21 1.21 0.0 0 0 211.04 146.92
  C 210.87 145.01 209.37 142.13 207.33 137.16
  C 204.16 129.45 201.76 121.23 198.68 113.61
  Q 197.56 110.85 194.91 108.04
  A 1.62 1.61 -27.3 0 0 193.43 107.57
  L 191.38 107.97"
/>
<path stroke="#859ec8" vector-effect="non-scaling-stroke" d="
  M 156.21 124.15
  Q 149.18 123.69 144.62 121.07
  Q 143.51 120.44 143.64 118.86
  C 143.72 117.77 143.83 115.16 144.21 114.18
  A 0.93 0.92 8.2 0 1 144.99 113.60
  C 150.01 113.20 154.03 115.79 157.16 119.30
  A 0.95 0.94 -57.2 0 0 158.77 118.95
  L 161.08 111.47"
/>
<path stroke="#859ec8" vector-effect="non-scaling-stroke" d="
  M 139.57 133.72
  Q 135.20 130.83 131.81 126.94
  Q 129.49 124.27 129.29 121.40"
/>
<path stroke="#859ec8" vector-effect="non-scaling-stroke" d="
  M 146.93 143.59
  Q 148.79 143.62 149.63 142.78
  Q 150.33 142.08 150.05 140.06
  Q 149.83 138.41 149.65 136.37"
/>
<path stroke="#f69f99" vector-effect="non-scaling-stroke" d="
  M 112.51 161.54
  C 110.33 160.03 107.85 161.35 108.25 164.09"
/>
<path stroke="#859ec8" vector-effect="non-scaling-stroke" d="
  M 79.69 120.04
  A 2.27 2.26 55.8 0 0 80.16 117.53
  L 72.00 99.08
  A 4.25 4.19 -63.0 0 1 71.73 98.23
  Q 70.20 91.03 69.09 84.75
  Q 67.79 77.34 68.61 74.02
  Q 71.14 63.90 80.35 61.58
  C 86.98 59.92 94.71 63.70 101.92 66.64
  A 5.50 5.40 -15.2 0 1 102.99 67.24
  C 107.17 70.28 110.80 72.28 115.08 75.67
  Q 130.03 87.48 141.20 100.89
  A 2.19 2.18 62.7 0 0 143.43 101.61
  L 143.53 101.58
  A 0.89 0.89 0.0 0 0 143.98 100.15
  C 132.49 86.63 119.68 74.91 104.48 65.78
  Q 100.37 63.30 96.20 61.90
  Q 89.52 59.64 87.39 59.20
  Q 79.71 57.62 74.16 61.09
  C 67.95 64.97 66.31 71.43 66.56 79.04
  Q 66.87 88.78 68.71 97.01
  Q 69.05 98.53 71.38 103.20
  A 6.81 6.66 -67.0 0 1 71.86 104.43
  Q 73.19 109.02 73.81 109.77
  Q 76.70 113.29 77.88 120.09
  A 0.79 0.79 0.0 0 0 79.22 120.51
  L 79.69 120.04"
/>
<path stroke="#859ec8" vector-effect="non-scaling-stroke" d="
  M 98.3750 145.6557
  A 5.53 2.39 -122.3 0 0 99.3098 151.6071
  A 5.53 2.39 -122.3 0 0 104.2850 155.0043
  A 5.53 2.39 -122.3 0 0 103.3502 149.0529
  A 5.53 2.39 -122.3 0 0 98.3750 145.6557"
/>
<path stroke="#5769aa" vector-effect="non-scaling-stroke" d="
  M 173.91 180.85
  Q 172.70 183.49 171.21 184.21
  C 167.56 185.97 163.45 189.11 159.52 188.81
  Q 155.66 188.52 147.96 186.01
  A 0.27 0.26 19.9 0 0 147.63 186.16
  L 147.63 186.17
  A 0.30 0.30 0.0 0 0 147.80 186.56
  C 155.14 189.46 169.58 192.59 174.80 183.74"
/>
<path stroke="#859ec8" vector-effect="non-scaling-stroke" d="
  M 174.80 183.74
  Q 176.19 181.37 176.07 178.54
  A 1.15 0.98 58.9 0 1 176.13 178.18
  L 176.80 176.44
  A 1.84 1.68 59.1 0 0 176.92 175.85
  C 177.05 171.25 177.33 159.92 174.63 157.23
  A 0.64 0.64 0.0 0 0 173.54 157.76
  Q 174.78 167.07 175.13 172.35
  Q 175.26 174.37 174.83 176.63
  Q 174.42 178.82 173.91 180.85"
/>
<path stroke="#d1cae1" vector-effect="non-scaling-stroke" d="
  M 174.80 183.74
  Q 173.84 182.66 173.91 180.85"
/>
<path stroke="#859ec8" vector-effect="non-scaling-stroke" d="
  M 184.26 134.58
  L 188.35 133.57
  A 1.92 1.92 0.0 0 0 189.76 131.25
  L 189.49 130.13
  A 7.87 3.95 76.2 0 0 183.77 123.43
  L 183.62 123.47
  A 7.87 3.95 76.2 0 0 181.66 132.05
  L 181.93 133.17
  A 1.92 1.92 0.0 0 0 184.26 134.58"
/>
<path stroke="#859ec8" vector-effect="non-scaling-stroke" d="
  M 91.91 131.57
  Q 95.14 135.36 99.26 133.25
  Q 101.49 132.11 100.21 128.44"
/>
<path stroke="#f69f99" vector-effect="non-scaling-stroke" d="
  M 100.21 128.44
  Q 100.38 126.55 99.54 124.65
  A 1.13 1.13 0.0 0 0 98.65 123.99
  C 96.33 123.70 91.09 123.07 91.38 126.95
  Q 91.55 129.13 91.91 131.57"
/>
<path stroke="#7c3e62" vector-effect="non-scaling-stroke" d="
  M 100.21 128.44
  L 92.67 129.50
  A 0.69 0.69 0.0 0 0 92.07 130.12
  L 91.91 131.57"
/>
</g>
<path fill="#0b3d91" d="
  M 209.18 73.07
  C 191.34 83.98 172.90 91.99 153.35 100.05
  Q 149.96 101.45 146.45 102.35
  A 2.01 1.95 -39.2 0 1 145.18 102.24
  Q 144.16 101.79 143.02 101.81
  Q 141.68 101.83 143.01 101.93
  A 0.38 0.38 0.0 0 1 143.34 102.45
  L 143.20 102.82
  A 1.09 1.06 86.3 0 1 142.72 103.38
  L 137.18 106.58
  A 1.16 0.75 -57.0 0 1 137.00 106.66
  Q 127.92 109.02 118.56 112.80
  Q 116.79 113.52 114.83 113.93
  Q 112.95 114.33 110.98 114.73
  C 109.48 110.21 107.52 108.67 103.19 108.62
  Q 97.66 108.56 92.26 108.84
  A 1.30 1.29 -2.7 0 0 91.03 110.18
  C 91.23 115.13 91.84 120.01 87.86 123.56
  Q 86.09 123.53 84.28 122.78
  A 1.70 1.66 47.2 0 0 83.13 122.72
  Q 80.69 123.47 79.16 125.26
  C 76.92 127.87 74.21 128.11 70.98 128.49
  Q 68.01 128.84 68.36 127.15
  L 68.60 112.60
  A 1.24 1.17 -36.2 0 1 68.68 112.17
  L 69.71 109.50
  A 0.62 0.62 0.0 0 0 69.05 108.67
  Q 65.59 109.15 61.83 108.25
  A 0.80 0.79 0.5 0 0 60.87 109.19
  Q 62.97 118.61 62.93 127.76
  A 1.11 1.10 20.9 0 1 61.09 128.58
  C 56.32 124.35 54.67 119.82 50.29 111.99
  Q 48.25 108.34 44.82 108.19
  Q 39.87 107.96 34.32 108.50
  A 0.92 0.91 80.4 0 0 33.52 109.63
  Q 34.76 114.60 34.68 119.25
  Q 34.43 131.91 33.68 144.20
  Q 25.41 145.55 19.17 150.16
  A 1.34 1.28 -61.8 0 1 18.35 150.43
  L 15.08 150.40
  Q 15.54 147.87 15.06 145.02
  Q 14.22 140.10 14.21 139.99
  Q 9.92 92.04 41.09 57.26
  C 60.37 35.75 88.90 23.13 118.41 23.13
  Q 155.74 23.14 184.90 46.32
  Q 197.88 56.65 209.18 73.07
  Z
  M 79.69 120.04
  A 2.27 2.26 55.8 0 0 80.16 117.53
  L 72.00 99.08
  A 4.25 4.19 -63.0 0 1 71.73 98.23
  Q 70.20 91.03 69.09 84.75
  Q 67.79 77.34 68.61 74.02
  Q 71.14 63.90 80.35 61.58
  C 86.98 59.92 94.71 63.70 101.92 66.64
  A 5.50 5.40 -15.2 0 1 102.99 67.24
  C 107.17 70.28 110.80 72.28 115.08 75.67
  Q 130.03 87.48 141.20 100.89
  A 2.19 2.18 62.7 0 0 143.43 101.61
  L 143.53 101.58
  A 0.89 0.89 0.0 0 0 143.98 100.15
  C 132.49 86.63 119.68 74.91 104.48 65.78
  Q 100.37 63.30 96.20 61.90
  Q 89.52 59.64 87.39 59.20
  Q 79.71 57.62 74.16 61.09
  C 67.95 64.97 66.31 71.43 66.56 79.04
  Q 66.87 88.78 68.71 97.01
  Q 69.05 98.53 71.38 103.20
  A 6.81 6.66 -67.0 0 1 71.86 104.43
  Q 73.19 109.02 73.81 109.77
  Q 76.70 113.29 77.88 120.09
  A 0.79 0.79 0.0 0 0 79.22 120.51
  L 79.69 120.04
  Z"
/>
<path fill="#fe3d1e" d="
  M 216.51 87.63
  Q 208.12 93.76 200.52 100.04
  Q 199.38 100.99 194.72 102.42
  A 1.22 1.21 87.6 0 0 193.89 103.33
  L 193.63 104.57
  A 4.55 4.46 72.3 0 1 192.60 106.61
  L 191.38 107.97
  L 188.45 108.93
  A 4.01 3.68 17.2 0 0 187.52 109.37
  C 184.05 111.63 180.81 112.29 179.26 116.98
  Q 176.26 117.00 174.40 118.15
  Q 173.00 119.01 169.21 122.35
  A 5.59 5.27 8.0 0 1 168.25 123.03
  Q 165.80 124.38 163.95 126.19
  Q 160.60 127.56 155.72 130.96
  Q 151.50 133.91 149.65 136.37
  L 142.45 139.87
  A 1.71 1.63 3.2 0 0 141.83 140.40
  Q 141.10 141.43 141.01 142.84
  A 0.50 0.50 0.0 0 0 141.49 143.37
  L 146.93 143.59
  Q 141.34 143.38 135.83 144.75
  A 1.43 1.26 -62.6 0 0 135.52 144.87
  L 129.15 148.35
  A 0.65 0.65 0.0 0 0 128.97 149.35
  Q 129.06 149.43 129.54 149.55
  Q 126.21 150.07 123.55 152.02
  Q 120.71 154.09 120.01 154.36
  Q 117.91 155.14 115.76 155.20
  A 1.87 1.87 0.0 0 1 114.11 152.35
  L 114.69 151.42
  A 1.26 1.18 -86.7 0 1 115.13 151.00
  L 119.32 148.66
  Q 121.54 148.10 121.75 144.92
  Q 123.48 145.77 126.29 144.94
  A 2.34 2.31 15.3 0 0 127.16 144.45
  C 128.91 142.90 130.49 139.75 132.94 139.21
  C 136.06 138.52 139.52 137.91 139.57 133.72
  Q 141.76 134.50 143.57 133.57
  Q 148.63 130.97 156.64 125.54
  A 0.66 0.60 -8.5 0 0 156.87 125.26
  Q 157.16 124.50 156.21 124.15
  Q 160.16 123.62 161.04 122.82
  C 164.23 119.93 167.53 118.56 170.30 115.99
  Q 171.17 115.18 176.45 112.20
  C 178.66 110.95 182.13 107.93 185.22 106.14
  Q 186.95 105.15 188.33 103.08
  A 1.11 1.10 14.4 0 1 189.13 102.61
  Q 190.74 102.45 190.97 101.31
  Q 191.86 97.00 196.16 95.44
  Q 197.04 95.12 198.21 93.43
  A 0.30 0.30 0.0 0 0 197.85 92.98
  Q 193.44 94.83 189.31 98.37
  A 5.29 4.98 -76.1 0 1 188.16 99.11
  L 161.08 111.47
  Q 157.12 109.42 151.99 108.65
  A 3.76 3.63 62.0 0 1 150.79 108.26
  L 147.56 106.54
  A 1.22 1.22 0.0 0 0 146.42 106.54
  L 140.94 109.44
  A 1.63 1.51 -61.2 0 1 140.46 109.60
  Q 130.89 111.36 129.29 121.40
  Q 127.73 122.15 125.94 122.46
  Q 124.08 122.77 122.63 123.41
  Q 118.46 125.25 114.54 124.85
  L 110.98 114.73
  Q 112.95 114.33 114.83 113.93
  Q 116.79 113.52 118.56 112.80
  Q 127.92 109.02 137.00 106.66
  A 1.16 0.75 -57.0 0 0 137.18 106.58
  L 142.72 103.38
  A 1.09 1.06 86.3 0 0 143.20 102.82
  L 143.34 102.45
  A 0.38 0.38 0.0 0 0 143.01 101.93
  Q 141.68 101.83 143.02 101.81
  Q 144.16 101.79 145.18 102.24
  A 2.01 1.95 -39.2 0 0 146.45 102.35
  Q 149.96 101.45 153.35 100.05
  C 172.90 91.99 191.34 83.98 209.18 73.07
  Q 210.94 72.36 212.86 71.10
  C 226.77 62.01 240.06 52.08 250.37 40.61
  Q 251.72 39.11 253.64 35.98
  A 0.70 0.70 0.0 0 1 254.94 36.31
  Q 255.09 39.33 253.81 41.59
  C 251.47 45.73 249.59 49.26 247.34 52.50
  Q 234.97 70.36 218.61 85.07
  A 4.16 4.14 84.4 0 0 217.76 86.11
  Q 217.11 87.24 216.51 87.63
  Z"
/>
<path fill="#ffffff" d="
  M 79.69 120.04
  L 79.22 120.51
  A 0.79 0.79 0.0 0 1 77.88 120.09
  Q 76.70 113.29 73.81 109.77
  Q 73.19 109.02 71.86 104.43
  A 6.81 6.66 -67.0 0 0 71.38 103.20
  Q 69.05 98.53 68.71 97.01
  Q 66.87 88.78 66.56 79.04
  C 66.31 71.43 67.95 64.97 74.16 61.09
  Q 79.71 57.62 87.39 59.20
  Q 89.52 59.64 96.20 61.90
  Q 100.37 63.30 104.48 65.78
  C 119.68 74.91 132.49 86.63 143.98 100.15
  A 0.89 0.89 0.0 0 1 143.53 101.58
  L 143.43 101.61
  A 2.19 2.18 62.7 0 1 141.20 100.89
  Q 130.03 87.48 115.08 75.67
  C 110.80 72.28 107.17 70.28 102.99 67.24
  A 5.50 5.40 -15.2 0 0 101.92 66.64
  C 94.71 63.70 86.98 59.92 80.35 61.58
  Q 71.14 63.90 68.61 74.02
  Q 67.79 77.34 69.09 84.75
  Q 70.20 91.03 71.73 98.23
  A 4.25 4.19 -63.0 0 0 72.00 99.08
  L 80.16 117.53
  A 2.27 2.26 55.8 0 1 79.69 120.04
  Z"
/>
<path fill="#0b3d91" d="
  M 216.51 87.63
  Q 226.36 111.10 224.89 134.05
  Q 222.64 169.17 200.59 195.60
  C 180.95 219.16 152.95 233.31 122.24 234.09
  Q 88.16 234.95 60.21 215.73
  Q 55.13 212.24 48.79 207.59
  Q 72.02 186.38 98.35 169.33
  Q 99.93 168.31 103.34 165.12
  A 1.27 1.25 18.8 0 1 104.00 164.80
  L 108.25 164.09
  Q 109.74 165.52 112.58 169.16
  Q 114.81 172.01 120.14 174.76
  A 1.76 1.76 0.0 0 0 122.69 172.94
  L 122.45 171.30
  A 5.64 5.61 -75.3 0 0 120.36 167.70
  L 112.51 161.54
  Q 114.40 159.04 114.83 156.16
  A 0.56 0.55 -1.5 0 0 114.17 155.54
  L 113.11 155.75
  A 0.92 0.81 41.4 0 1 112.74 155.75
  Q 110.48 155.29 106.73 155.86
  A 1.79 1.76 20.9 0 0 105.86 156.24
  C 104.34 157.47 102.73 159.36 100.58 160.98
  Q 92.75 166.88 84.64 172.45
  Q 82.87 173.66 75.74 178.74
  Q 71.48 181.76 59.27 193.06
  Q 57.43 194.77 54.67 196.82
  Q 51.57 199.14 50.20 200.72
  Q 47.35 204.03 44.94 204.45
  C 43.78 202.94 42.76 201.35 41.55 200.00
  Q 23.70 180.11 16.45 154.25
  L 25.33 150.48
  A 8.89 8.69 27.2 0 1 26.92 149.99
  Q 30.50 149.26 33.72 147.73
  Q 39.78 148.02 43.64 144.82
  L 48.18 143.36
  A 1.16 1.16 0.0 0 0 48.87 141.74
  Q 46.38 136.72 41.47 137.98
  Q 39.90 137.93 39.06 136.23
  A 1.90 1.90 0.0 0 1 38.86 135.34
  Q 38.95 131.10 37.55 126.69
  A 0.98 0.98 0.0 0 1 38.89 125.50
  Q 44.36 128.00 46.92 133.85
  Q 49.39 139.49 52.12 143.61
  C 55.61 148.86 61.28 148.02 66.52 148.01
  A 1.99 1.99 0.0 0 0 68.50 145.98
  L 68.26 135.36
  Q 68.25 136.47 70.07 136.47
  Q 70.92 136.47 72.43 136.08
  Q 79.46 134.26 86.11 132.41
  L 85.37 136.77
  A 2.22 1.82 66.0 0 1 85.29 137.06
  L 81.24 147.59
  A 0.78 0.78 0.0 0 0 81.95 148.65
  C 85.07 148.70 87.32 147.11 90.95 144.97
  A 0.16 0.08 -63.4 0 0 90.99 144.94
  L 96.31 139.04
  A 2.74 2.70 -78.2 0 1 97.47 138.27
  C 105.40 135.62 103.03 147.90 110.51 148.02
  Q 115.61 148.10 119.32 148.66
  L 115.13 151.00
  A 1.26 1.18 -86.7 0 0 114.69 151.42
  L 114.11 152.35
  A 1.87 1.87 0.0 0 0 115.76 155.20
  Q 117.91 155.14 120.01 154.36
  Q 120.71 154.09 123.55 152.02
  Q 126.21 150.07 129.54 149.55
  C 135.07 148.36 139.69 148.96 145.74 149.28
  C 154.66 149.77 161.17 144.50 165.90 137.53
  A 1.90 1.89 -39.7 0 0 166.07 135.72
  Q 164.28 131.60 163.95 126.19
  Q 165.80 124.38 168.25 123.03
  A 5.59 5.27 8.0 0 0 169.21 122.35
  Q 173.00 119.01 174.40 118.15
  Q 176.26 117.00 179.26 116.98
  L 174.20 136.70
  A 4.74 4.61 69.8 0 1 173.55 138.16
  C 172.29 140.02 170.70 141.50 170.14 143.73
  Q 169.24 147.29 171.33 150.39
  A 2.13 2.13 0.0 0 0 174.41 150.87
  Q 177.41 148.52 178.19 143.85
  C 178.97 139.17 182.80 138.86 186.41 138.36
  C 192.39 137.53 192.56 142.27 193.19 146.51
  A 2.01 2.01 0.0 0 0 195.18 148.23
  L 209.83 148.23
  A 1.21 1.21 0.0 0 0 211.04 146.92
  C 210.87 145.01 209.37 142.13 207.33 137.16
  C 204.16 129.45 201.76 121.23 198.68 113.61
  Q 197.56 110.85 194.91 108.04
  A 1.62 1.61 -27.3 0 0 193.43 107.57
  L 191.38 107.97
  L 192.60 106.61
  A 4.55 4.46 72.3 0 0 193.63 104.57
  L 193.89 103.33
  A 1.22 1.21 87.6 0 1 194.72 102.42
  Q 199.38 100.99 200.52 100.04
  Q 208.12 93.76 216.51 87.63
  Z
  M 98.3750 145.6557
  A 5.53 2.39 -122.3 0 0 99.3098 151.6071
  A 5.53 2.39 -122.3 0 0 104.2850 155.0043
  A 5.53 2.39 -122.3 0 0 103.3502 149.0529
  A 5.53 2.39 -122.3 0 0 98.3750 145.6557
  Z
  M 173.91 180.85
  Q 172.70 183.49 171.21 184.21
  C 167.56 185.97 163.45 189.11 159.52 188.81
  Q 155.66 188.52 147.96 186.01
  A 0.27 0.26 19.9 0 0 147.63 186.16
  L 147.63 186.17
  A 0.30 0.30 0.0 0 0 147.80 186.56
  C 155.14 189.46 169.58 192.59 174.80 183.74
  Q 176.19 181.37 176.07 178.54
  A 1.15 0.98 58.9 0 1 176.13 178.18
  L 176.80 176.44
  A 1.84 1.68 59.1 0 0 176.92 175.85
  C 177.05 171.25 177.33 159.92 174.63 157.23
  A 0.64 0.64 0.0 0 0 173.54 157.76
  Q 174.78 167.07 175.13 172.35
  Q 175.26 174.37 174.83 176.63
  Q 174.42 178.82 173.91 180.85
  Z"
/>
<path fill="#0b3d91" d="
  M 156.21 124.15
  Q 149.18 123.69 144.62 121.07
  Q 143.51 120.44 143.64 118.86
  C 143.72 117.77 143.83 115.16 144.21 114.18
  A 0.93 0.92 8.2 0 1 144.99 113.60
  C 150.01 113.20 154.03 115.79 157.16 119.30
  A 0.95 0.94 -57.2 0 0 158.77 118.95
  L 161.08 111.47
  L 188.16 99.11
  A 5.29 4.98 -76.1 0 0 189.31 98.37
  Q 193.44 94.83 197.85 92.98
  A 0.30 0.30 0.0 0 1 198.21 93.43
  Q 197.04 95.12 196.16 95.44
  Q 191.86 97.00 190.97 101.31
  Q 190.74 102.45 189.13 102.61
  A 1.11 1.10 14.4 0 0 188.33 103.08
  Q 186.95 105.15 185.22 106.14
  C 182.13 107.93 178.66 110.95 176.45 112.20
  Q 171.17 115.18 170.30 115.99
  C 167.53 118.56 164.23 119.93 161.04 122.82
  Q 160.16 123.62 156.21 124.15
  Z"
/>
<path fill="#ffffff" d="
  M 161.08 111.47
  L 158.77 118.95
  A 0.95 0.94 -57.2 0 1 157.16 119.30
  C 154.03 115.79 150.01 113.20 144.99 113.60
  A 0.93 0.92 8.2 0 0 144.21 114.18
  C 143.83 115.16 143.72 117.77 143.64 118.86
  Q 143.51 120.44 144.62 121.07
  Q 149.18 123.69 156.21 124.15
  Q 157.16 124.50 156.87 125.26
  A 0.66 0.60 -8.5 0 1 156.64 125.54
  Q 148.63 130.97 143.57 133.57
  Q 141.76 134.50 139.57 133.72
  Q 135.20 130.83 131.81 126.94
  Q 129.49 124.27 129.29 121.40
  Q 130.89 111.36 140.46 109.60
  A 1.63 1.51 -61.2 0 0 140.94 109.44
  L 146.42 106.54
  A 1.22 1.22 0.0 0 1 147.56 106.54
  L 150.79 108.26
  A 3.76 3.63 62.0 0 0 151.99 108.65
  Q 157.12 109.42 161.08 111.47
  Z"
/>
<path fill="#ffffff" d="
  M 179.26 116.98
  C 180.81 112.29 184.05 111.63 187.52 109.37
  A 4.01 3.68 17.2 0 1 188.45 108.93
  L 191.38 107.97
  L 193.43 107.57
  A 1.62 1.61 -27.3 0 1 194.91 108.04
  Q 197.56 110.85 198.68 113.61
  C 201.76 121.23 204.16 129.45 207.33 137.16
  C 209.37 142.13 210.87 145.01 211.04 146.92
  A 1.21 1.21 0.0 0 1 209.83 148.23
  L 195.18 148.23
  A 2.01 2.01 0.0 0 1 193.19 146.51
  C 192.56 142.27 192.39 137.53 186.41 138.36
  C 182.80 138.86 178.97 139.17 178.19 143.85
  Q 177.41 148.52 174.41 150.87
  A 2.13 2.13 0.0 0 1 171.33 150.39
  Q 169.24 147.29 170.14 143.73
  C 170.70 141.50 172.29 140.02 173.55 138.16
  A 4.74 4.61 69.8 0 0 174.20 136.70
  L 179.26 116.98
  Z
  M 184.26 134.58
  L 188.35 133.57
  A 1.92 1.92 0.0 0 0 189.76 131.25
  L 189.49 130.13
  A 7.87 3.95 76.2 0 0 183.77 123.43
  L 183.62 123.47
  A 7.87 3.95 76.2 0 0 181.66 132.05
  L 181.93 133.17
  A 1.92 1.92 0.0 0 0 184.26 134.58
  Z"
/>
<path fill="#ffffff" d="
  M 68.36 127.15
  L 68.26 135.36
  L 68.50 145.98
  A 1.99 1.99 0.0 0 1 66.52 148.01
  C 61.28 148.02 55.61 148.86 52.12 143.61
  Q 49.39 139.49 46.92 133.85
  Q 44.36 128.00 38.89 125.50
  A 0.98 0.98 0.0 0 0 37.55 126.69
  Q 38.95 131.10 38.86 135.34
  A 1.90 1.90 0.0 0 0 39.06 136.23
  Q 39.90 137.93 41.47 137.98
  Q 40.67 142.52 43.64 144.82
  Q 39.78 148.02 33.72 147.73
  Q 31.83 147.06 33.68 144.20
  Q 34.43 131.91 34.68 119.25
  Q 34.76 114.60 33.52 109.63
  A 0.92 0.91 80.4 0 1 34.32 108.50
  Q 39.87 107.96 44.82 108.19
  Q 48.25 108.34 50.29 111.99
  C 54.67 119.82 56.32 124.35 61.09 128.58
  A 1.11 1.10 20.9 0 0 62.93 127.76
  Q 62.97 118.61 60.87 109.19
  A 0.80 0.79 0.5 0 1 61.83 108.25
  Q 65.59 109.15 69.05 108.67
  A 0.62 0.62 0.0 0 1 69.71 109.50
  L 68.68 112.17
  A 1.24 1.17 -36.2 0 0 68.60 112.60
  L 68.36 127.15
  Z"
/>
<path fill="#ffffff" d="
  M 110.98 114.73
  L 114.54 124.85
  L 121.75 144.92
  Q 121.54 148.10 119.32 148.66
  Q 115.61 148.10 110.51 148.02
  C 103.03 147.90 105.40 135.62 97.47 138.27
  A 2.74 2.70 -78.2 0 0 96.31 139.04
  L 90.99 144.94
  A 0.16 0.08 -63.4 0 1 90.95 144.97
  C 87.32 147.11 85.07 148.70 81.95 148.65
  A 0.78 0.78 0.0 0 1 81.24 147.59
  L 85.29 137.06
  A 2.22 1.82 66.0 0 0 85.37 136.77
  L 86.11 132.41
  L 87.86 123.56
  C 91.84 120.01 91.23 115.13 91.03 110.18
  A 1.30 1.29 -2.7 0 1 92.26 108.84
  Q 97.66 108.56 103.19 108.62
  C 107.52 108.67 109.48 110.21 110.98 114.73
  Z
  M 91.91 131.57
  Q 95.14 135.36 99.26 133.25
  Q 101.49 132.11 100.21 128.44
  Q 100.38 126.55 99.54 124.65
  A 1.13 1.13 0.0 0 0 98.65 123.99
  C 96.33 123.70 91.09 123.07 91.38 126.95
  Q 91.55 129.13 91.91 131.57
  Z"
/>
<path fill="#0b3d91" d="
  M 129.29 121.40
  Q 129.49 124.27 131.81 126.94
  Q 135.20 130.83 139.57 133.72
  C 139.52 137.91 136.06 138.52 132.94 139.21
  C 130.49 139.75 128.91 142.90 127.16 144.45
  A 2.34 2.31 15.3 0 1 126.29 144.94
  Q 123.48 145.77 121.75 144.92
  L 114.54 124.85
  Q 118.46 125.25 122.63 123.41
  Q 124.08 122.77 125.94 122.46
  Q 127.73 122.15 129.29 121.40
  Z"
/>
<path fill="#fe3d1e" d="
  M 87.86 123.56
  L 86.11 132.41
  Q 79.46 134.26 72.43 136.08
  Q 70.92 136.47 70.07 136.47
  Q 68.25 136.47 68.26 135.36
  L 68.36 127.15
  Q 68.01 128.84 70.98 128.49
  C 74.21 128.11 76.92 127.87 79.16 125.26
  Q 80.69 123.47 83.13 122.72
  A 1.70 1.66 47.2 0 1 84.28 122.78
  Q 86.09 123.53 87.86 123.56
  Z"
/>
<path fill="#0b3d91" d="
  M 184.26 134.58
  A 1.92 1.92 0.0 0 1 181.93 133.17
  L 181.66 132.05
  A 7.87 3.95 76.2 0 1 183.62 123.47
  L 183.77 123.43
  A 7.87 3.95 76.2 0 1 189.49 130.13
  L 189.76 131.25
  A 1.92 1.92 0.0 0 1 188.35 133.57
  L 184.26 134.58
  Z"
/>
<path fill="#ed3e33" d="
  M 100.21 128.44
  L 92.67 129.50
  A 0.69 0.69 0.0 0 0 92.07 130.12
  L 91.91 131.57
  Q 91.55 129.13 91.38 126.95
  C 91.09 123.07 96.33 123.70 98.65 123.99
  A 1.13 1.13 0.0 0 1 99.54 124.65
  Q 100.38 126.55 100.21 128.44
  Z"
/>
<path fill="#ffffff" d="
  M 163.95 126.19
  Q 164.28 131.60 166.07 135.72
  A 1.90 1.89 -39.7 0 1 165.90 137.53
  C 161.17 144.50 154.66 149.77 145.74 149.28
  C 139.69 148.96 135.07 148.36 129.54 149.55
  Q 129.06 149.43 128.97 149.35
  A 0.65 0.65 0.0 0 1 129.15 148.35
  L 135.52 144.87
  A 1.43 1.26 -62.6 0 1 135.83 144.75
  Q 141.34 143.38 146.93 143.59
  Q 148.79 143.62 149.63 142.78
  Q 150.33 142.08 150.05 140.06
  Q 149.83 138.41 149.65 136.37
  Q 151.50 133.91 155.72 130.96
  Q 160.60 127.56 163.95 126.19
  Z"
/>
<path fill="#0b3d91" d="
  M 100.21 128.44
  Q 101.49 132.11 99.26 133.25
  Q 95.14 135.36 91.91 131.57
  L 92.07 130.12
  A 0.69 0.69 0.0 0 1 92.67 129.50
  L 100.21 128.44
  Z"
/>
<path fill="#0b3d91" d="
  M 149.65 136.37
  Q 149.83 138.41 150.05 140.06
  Q 150.33 142.08 149.63 142.78
  Q 148.79 143.62 146.93 143.59
  L 141.49 143.37
  A 0.50 0.50 0.0 0 1 141.01 142.84
  Q 141.10 141.43 141.83 140.40
  A 1.71 1.63 3.2 0 1 142.45 139.87
  L 149.65 136.37
  Z"
/>
<path fill="#ed3e33" d="
  M 43.64 144.82
  Q 40.67 142.52 41.47 137.98
  Q 46.38 136.72 48.87 141.74
  A 1.16 1.16 0.0 0 1 48.18 143.36
  L 43.64 144.82
  Z"
/>
<path fill="#ed3e33" d="
  M 33.68 144.20
  Q 31.83 147.06 33.72 147.73
  Q 30.50 149.26 26.92 149.99
  A 8.89 8.69 27.2 0 0 25.33 150.48
  L 16.45 154.25
  Q 14.62 153.99 14.08 152.92
  Q 13.47 151.73 15.08 150.40
  L 18.35 150.43
  A 1.34 1.28 -61.8 0 0 19.17 150.16
  Q 25.41 145.55 33.68 144.20
  Z"
/>
<ellipse fill="#ffffff" cx="0.00" cy="0.00" transform="translate(101.33,150.33) rotate(-122.3)" rx="5.53" ry="2.39"/>
<path fill="#ed3e33" d="
  M 10.71 154.25
  A 0.18 0.18 0.0 0 1 10.95 154.33
  L 10.97 154.38
  A 3.35 3.03 -27.0 0 1 9.36 158.60
  L 5.66 160.49
  A 3.35 3.03 -27.0 0 1 1.30 159.31
  L 1.27 159.26
  A 0.18 0.18 0.0 0 1 1.35 159.02
  L 10.71 154.25
  Z"
/>
<path fill="#ed3e33" d="
  M 112.51 161.54
  C 110.33 160.03 107.85 161.35 108.25 164.09
  L 104.00 164.80
  A 1.27 1.25 18.8 0 0 103.34 165.12
  Q 99.93 168.31 98.35 169.33
  Q 72.02 186.38 48.79 207.59
  Q 46.25 208.16 44.94 204.45
  Q 47.35 204.03 50.20 200.72
  Q 51.57 199.14 54.67 196.82
  Q 57.43 194.77 59.27 193.06
  Q 71.48 181.76 75.74 178.74
  Q 82.87 173.66 84.64 172.45
  Q 92.75 166.88 100.58 160.98
  C 102.73 159.36 104.34 157.47 105.86 156.24
  A 1.79 1.76 20.9 0 1 106.73 155.86
  Q 110.48 155.29 112.74 155.75
  A 0.92 0.81 41.4 0 0 113.11 155.75
  L 114.17 155.54
  A 0.56 0.55 -1.5 0 1 114.83 156.16
  Q 114.40 159.04 112.51 161.54
  Z"
/>
<path fill="#ffffff" d="
  M 174.80 183.74
  Q 173.84 182.66 173.91 180.85
  Q 174.42 178.82 174.83 176.63
  Q 175.26 174.37 175.13 172.35
  Q 174.78 167.07 173.54 157.76
  A 0.64 0.64 0.0 0 1 174.63 157.23
  C 177.33 159.92 177.05 171.25 176.92 175.85
  A 1.84 1.68 59.1 0 1 176.80 176.44
  L 176.13 178.18
  A 1.15 0.98 58.9 0 0 176.07 178.54
  Q 176.19 181.37 174.80 183.74
  Z"
/>
<path fill="#ffffff" d="
  M 112.51 161.54
  L 120.36 167.70
  A 5.64 5.61 -75.3 0 1 122.45 171.30
  L 122.69 172.94
  A 1.76 1.76 0.0 0 1 120.14 174.76
  Q 114.81 172.01 112.58 169.16
  Q 109.74 165.52 108.25 164.09
  C 107.85 161.35 110.33 160.03 112.51 161.54
  Z"
/>
<path fill="#a294c3" d="
  M 173.91 180.85
  Q 173.84 182.66 174.80 183.74
  C 169.58 192.59 155.14 189.46 147.80 186.56
  A 0.30 0.30 0.0 0 1 147.63 186.17
  L 147.63 186.16
  A 0.27 0.26 19.9 0 1 147.96 186.01
  Q 155.66 188.52 159.52 188.81
  C 163.45 189.11 167.56 185.97 171.21 184.21
  Q 172.70 183.49 173.91 180.85
  Z"
/>
<path fill="#ed3e33" d="
  M 29.99 220.93
  Q 30.34 220.12 30.64 219.88
  Q 32.85 218.07 37.28 213.03
  Q 40.04 209.91 42.39 209.33
  A 1.03 1.02 -83.7 0 1 43.55 210.78
  C 41.92 214.08 39.34 215.38 36.49 217.43
  A 3.44 3.44 0.0 0 0 35.70 218.22
  Q 33.95 220.67 30.90 221.87
  A 0.71 0.71 0.0 0 1 29.99 220.93
  Z"
/>
</svg>