<?xml version="1.0" encoding="UTF-8" standalone="no"?>
<!DOCTYPE svg PUBLIC "-//W3C//DTD SVG 1.1//EN" "http://www.w3.org/Graphics/SVG/1.1/DTD/svg11.dtd">
<svg xmlns="http://www.w3.org/2000/svg" version="1.1" viewBox="0.00 0.00 192.00 192.00" width="128" height="128">
<path fill="#101820" d="
  M 92.83 99.77
  C 91.13 99.44 89.44 98.45 87.69 98.16
  Q 79.30 96.78 71.50 99.71
  A 0.37 0.36 80.2 0 1 71.01 99.36
  Q 71.09 88.18 71.00 73.16
  C 70.88 51.40 76.51 30.21 94.80 17.94
  Q 105.99 10.44 121.83 8.89
  Q 139.51 7.17 156.41 14.28
  Q 165.38 18.06 172.87 27.16
  C 183.40 39.94 186.26 55.81 186.25 72.43
  Q 186.24 118.05 186.23 135.00
  A 0.36 0.35 -0.0 0 1 185.87 135.35
  L 164.13 135.35
  A 0.47 0.47 0.0 0 1 163.66 134.88
  Q 163.78 101.01 163.63 67.36
  Q 163.60 60.51 160.88 52.60
  Q 156.10 38.66 143.35 33.29
  Q 133.51 29.14 120.71 31.40
  C 102.14 34.68 93.72 51.06 93.67 68.78
  Q 93.57 98.75 93.54 99.21
  A 0.60 0.60 0.0 0 1 92.83 99.77
  Z"
/>
<path fill="#00547f" d="
  M 101.33 128.03
  Q 101.33 133.05 98.57 138.21
  C 94.27 146.24 85.37 149.86 76.63 147.37
  Q 70.20 145.54 67.01 145.41
  C 56.10 144.94 47.96 151.14 45.01 161.00
  C 42.00 171.05 40.12 179.77 28.67 182.72
  Q 23.87 183.96 19.31 182.57
  C 6.88 178.80 2.22 165.08 7.37 153.98
  C 10.65 146.93 16.95 143.23 24.42 142.85
  A 3.75 3.63 -38.8 0 1 25.50 142.95
  Q 33.07 144.69 37.49 145.39
  Q 48.46 147.14 55.69 139.68
  Q 60.65 134.56 60.65 128.02
  Q 60.65 121.48 55.69 116.36
  Q 48.47 108.90 37.50 110.65
  Q 33.08 111.35 25.51 113.08
  A 3.75 3.63 38.8 0 1 24.43 113.18
  C 16.96 112.80 10.66 109.10 7.38 102.05
  C 2.23 90.94 6.90 77.23 19.33 73.46
  Q 23.89 72.07 28.69 73.31
  C 40.14 76.27 42.02 84.99 45.02 95.04
  C 47.97 104.90 56.11 111.10 67.02 110.64
  Q 70.21 110.51 76.64 108.68
  C 85.38 106.19 94.28 109.82 98.57 117.85
  Q 101.34 123.01 101.33 128.03
  Z"
/>
</svg>