<?xml version="1.0" encoding="UTF-8" standalone="no"?>
<!DOCTYPE svg PUBLIC "-//W3C//DTD SVG 1.1//EN" "http://www.w3.org/Graphics/SVG/1.1/DTD/svg11.dtd">
<svg xmlns="http://www.w3.org/2000/svg" version="1.1" viewBox="0.00 0.00 180.00 180.00" width="128" height="128">
<g stroke-width="2.00" fill="none" stroke-linecap="butt">
<path stroke="#8bb3ff" vector-effect="non-scaling-stroke" d="
  M 77.2657 43.0500
  A 14.74 14.44 -89.9 0 0 62.8000 57.7648
  A 14.74 14.44 -89.9 0 0 77.2143 72.5300
  A 14.74 14.44 -89.9 0 0 91.6800 57.8152
  A 14.74 14.44 -89.9 0 0 77.2657 43.0500"
/>
<path stroke="#8bb3ff" vector-effect="non-scaling-stroke" d="
  M 50.86 93.18
  C 50.86 96.02 52.83 96.82 55.41 97.20
  Q 93.05 102.71 110.86 135.16
  A 2.85 2.82 3.9 0 0 111.70 136.11
  Q 114.46 138.09 116.77 135.72
  A 2.61 2.53 -12.3 0 0 117.30 134.92
  C 122.84 121.62 125.13 107.11 125.13 93.17
  C 125.13 79.23 122.83 64.72 117.29 51.42
  A 2.61 2.53 12.3 0 0 116.76 50.63
  Q 114.45 48.26 111.69 50.24
  A 2.85 2.82 -3.9 0 0 110.85 51.19
  Q 93.05 83.64 55.41 89.16
  C 52.82 89.54 50.86 90.34 50.86 93.18"
/>
</g>
<path fill="#1766ff" d="
  M 180.00 0.00
  L 180.00 180.00
  L 0.00 180.00
  L 0.00 0.00
  L 180.00 0.00
  Z
  M 77.2657 43.0500
  A 14.74 14.44 -89.9 0 0 62.8000 57.7648
  A 14.74 14.44 -89.9 0 0 77.2143 72.5300
  A 14.74 14.44 -89.9 0 0 91.6800 57.8152
  A 14.74 14.44 -89.9 0 0 77.2657 43.0500
  Z
  M 50.86 93.18
  C 50.86 96.02 52.83 96.82 55.41 97.20
  Q 93.05 102.71 110.86 135.16
  A 2.85 2.82 3.9 0 0 111.70 136.11
  Q 114.46 138.09 116.77 135.72
  A 2.61 2.53 -12.3 0 0 117.30 134.92
  C 122.84 121.62 125.13 107.11 125.13 93.17
  C 125.13 79.23 122.83 64.72 117.29 51.42
  A 2.61 2.53 12.3 0 0 116.76 50.63
  Q 114.45 48.26 111.69 50.24
  A 2.85 2.82 -3.9 0 0 110.85 51.19
  Q 93.05 83.64 55.41 89.16
  C 52.82 89.54 50.86 90.34 50.86 93.18
  Z"
/>
<ellipse fill="#ffffff" cx="0.00" cy="0.00" transform="translate(77.24,57.79) rotate(-89.9)" rx="14.74" ry="14.44"/>
<path fill="#ffffff" d="
  M 125.13 93.17
  C 125.13 107.11 122.84 121.62 117.30 134.92
  A 2.61 2.53 -12.3 0 1 116.77 135.72
  Q 114.46 138.09 111.70 136.11
  A 2.85 2.82 3.9 0 1 110.86 135.16
  Q 93.05 102.71 55.41 97.20
  C 52.83 96.82 50.86 96.02 50.86 93.18
  C 50.86 90.34 52.82 89.54 55.41 89.16
  Q 93.05 83.64 110.85 51.19
  A 2.85 2.82 -3.9 0 1 111.69 50.24
  Q 114.45 48.26 116.76 50.63
  A 2.61 2.53 12.3 0 1 117.29 51.42
  C 122.83 64.72 125.13 79.23 125.13 93.17
  Z"
/>
</svg>