<?xml version="1.0" encoding="UTF-8" standalone="no"?>
<!DOCTYPE svg PUBLIC "-//W3C//DTD SVG 1.1//EN" "http://www.w3.org/Graphics/SVG/1.1/DTD/svg11.dtd">
<svg xmlns="http://www.w3.org/2000/svg" version="1.1" viewBox="0.00 0.00 128.00 128.00" width="128" height="128">
<g stroke-width="2.00" fill="none" stroke-linecap="butt">
<path stroke="#0656f2" vector-effect="non-scaling-stroke" d="
  M 40.36 0.00
  L 12.73 31.99"
/>
<path stroke="#0668ed" vector-effect="non-scaling-stroke" d="
  M 60.78 0.00
  Q 56.47 5.68 51.73 10.94
  Q 38.57 25.54 25.26 39.90"
/>
<path stroke="#067ae9" vector-effect="non-scaling-stroke" d="
  M 75.35 0.00
  C 62.03 15.34 48.72 30.02 36.26 46.71"
/>
<path stroke="#068de4" vector-effect="non-scaling-stroke" d="
  M 102.67 0.00
  L 52.56 56.80"
/>
<path stroke="#069be0" vector-effect="non-scaling-stroke" d="
  M 113.56 0.00
  Q 105.34 10.10 101.83 14.07
  Q 80.99 37.64 60.26 61.51"
/>
<path stroke="#06a5de" vector-effect="non-scaling-stroke" d="
  M 124.64 3.44
  C 106.26 23.42 94.45 35.83 80.53 53.54"
/>
<path stroke="#06afd8" vector-effect="non-scaling-stroke" d="
  M 128.00 14.08
  C 117.69 24.69 108.93 34.22 101.22 46.26"
/>
<path stroke="#06b8cf" vector-effect="non-scaling-stroke" d="
  M 128.00 28.83
  Q 94.11 65.96 60.32 102.96
  Q 49.13 115.22 38.43 128.00"
/>
<path stroke="#06afd8" vector-effect="non-scaling-stroke" d="
  M 19.29 128.00
  C 37.01 109.17 51.28 94.31 65.52 76.54"
/>
<path stroke="#06c1c6" vector-effect="non-scaling-stroke" d="
  M 128.00 43.58
  L 51.28 128.00"
/>
<path stroke="#0675ea" vector-effect="non-scaling-stroke" d="
  M 23.47 52.53
  Q 18.51 56.28 14.30 61.28"
/>
<path stroke="#05cabc" vector-effect="non-scaling-stroke" d="
  M 128.00 61.03
  C 106.05 82.81 86.41 106.66 64.04 128.00"
/>
<path stroke="#0695e2" vector-effect="non-scaling-stroke" d="
  M 47.31 67.30
  Q 24.82 94.83 0.54 120.52"
/>
<path stroke="#067de8" vector-effect="non-scaling-stroke" d="
  M 0.00 89.71
  L 13.57 74.47"
/>
<path stroke="#05d4b2" vector-effect="non-scaling-stroke" d="
  M 128.00 81.50
  Q 105.27 103.95 84.35 128.00"
/>
<path stroke="#06a5de" vector-effect="non-scaling-stroke" d="
  M 55.61 72.42
  Q 32.36 100.28 7.98 127.16"
/>
<path stroke="#04dda8" vector-effect="non-scaling-stroke" d="
  M 128.00 93.03
  L 98.32 128.00"
/>
</g>
<path fill="#064cf4" d="
  M 40.36 0.00
  L 12.73 31.99
  Q 4.56 28.18 0.00 22.89
  L 0.00 9.07
  Q 2.10 1.61 10.59 0.00
  L 40.36 0.00
  Z"
/>
<path fill="#0660ef" d="
  M 60.78 0.00
  Q 56.47 5.68 51.73 10.94
  Q 38.57 25.54 25.26 39.90
  L 12.73 31.99
  L 40.36 0.00
  L 60.78 0.00
  Z"
/>
<path fill="#0670eb" d="
  M 75.35 0.00
  C 62.03 15.34 48.72 30.02 36.26 46.71
  L 25.26 39.90
  Q 38.57 25.54 51.73 10.94
  Q 56.47 5.68 60.78 0.00
  L 75.35 0.00
  Z"
/>
<path fill="#0684e6" d="
  M 102.67 0.00
  L 52.56 56.80
  L 36.26 46.71
  C 48.72 30.02 62.03 15.34 75.35 0.00
  L 102.67 0.00
  Z"
/>
<path fill="#0696e1" d="
  M 113.56 0.00
  Q 105.34 10.10 101.83 14.07
  Q 80.99 37.64 60.26 61.51
  L 52.56 56.80
  L 102.67 0.00
  L 113.56 0.00
  Z"
/>
<path fill="#06a0df" d="
  M 117.14 0.00
  Q 121.51 0.74 124.64 3.44
  C 106.26 23.42 94.45 35.83 80.53 53.54
  Q 69.92 60.34 66.50 62.25
  Q 63.38 63.99 60.26 61.51
  Q 80.99 37.64 101.83 14.07
  Q 105.34 10.10 113.56 0.00
  L 117.14 0.00
  Z"
/>
<path fill="#06aadc" d="
  M 128.00 9.05
  L 128.00 14.08
  C 117.69 24.69 108.93 34.22 101.22 46.26
  Q 97.36 42.92 93.15 45.62
  Q 86.89 49.64 80.53 53.54
  C 94.45 35.83 106.26 23.42 124.64 3.44
  Q 126.98 5.57 128.00 9.05
  Z"
/>
<path fill="#06b4d3" d="
  M 128.00 14.08
  L 128.00 28.83
  Q 94.11 65.96 60.32 102.96
  Q 49.13 115.22 38.43 128.00
  L 19.29 128.00
  C 37.01 109.17 51.28 94.31 65.52 76.54
  Q 81.89 66.57 98.02 56.31
  Q 101.66 54.00 102.39 52.10
  Q 103.44 49.34 101.22 46.26
  C 108.93 34.22 117.69 24.69 128.00 14.08
  Z"
/>
<path fill="#06bcca" d="
  M 128.00 28.83
  L 128.00 43.58
  L 51.28 128.00
  L 38.43 128.00
  Q 49.13 115.22 60.32 102.96
  Q 94.11 65.96 128.00 28.83
  Z"
/>
<path fill="#0660ef" d="
  M 23.47 52.53
  Q 18.51 56.28 14.30 61.28
  Q 9.51 58.54 4.91 55.83
  Q 1.08 53.57 0.00 51.07
  L 0.00 47.34
  Q 1.74 42.80 5.19 42.65
  Q 7.30 42.56 11.97 45.41
  Q 17.77 48.95 23.47 52.53
  Z"
/>
<path fill="#05c5c1" d="
  M 128.00 43.58
  L 128.00 61.03
  C 106.05 82.81 86.41 106.66 64.04 128.00
  L 51.28 128.00
  L 128.00 43.58
  Z"
/>
<path fill="#068ae4" d="
  M 47.31 67.30
  Q 24.82 94.83 0.54 120.52
  Q 0.43 119.71 0.00 119.01
  L 0.00 89.71
  L 13.57 74.47
  Q 19.74 77.22 22.22 71.70
  C 24.71 66.14 17.96 63.48 14.30 61.28
  Q 18.51 56.28 23.47 52.53
  L 47.31 67.30
  Z"
/>
<path fill="#05cfb7" d="
  M 128.00 61.03
  L 128.00 81.50
  Q 105.27 103.95 84.35 128.00
  L 64.04 128.00
  C 86.41 106.66 106.05 82.81 128.00 61.03
  Z"
/>
<path fill="#06a0df" d="
  M 55.61 72.42
  Q 32.36 100.28 7.98 127.16
  Q 2.77 125.62 0.54 120.52
  Q 24.82 94.83 47.31 67.30
  L 55.61 72.42
  Z"
/>
<path fill="#0670eb" d="
  M 13.57 74.47
  L 0.00 89.71
  L 0.00 75.55
  Q 1.88 70.08 6.72 70.90
  C 9.00 71.29 11.51 73.10 13.57 74.47
  Z"
/>
<path fill="#06aadc" d="
  M 65.52 76.54
  C 51.28 94.31 37.01 109.17 19.29 128.00
  L 10.87 128.00
  L 7.98 127.16
  Q 32.36 100.28 55.61 72.42
  C 59.22 74.71 61.83 76.83 65.52 76.54
  Z"
/>
<path fill="#04d8ad" d="
  M 128.00 81.50
  L 128.00 93.03
  L 98.32 128.00
  L 84.35 128.00
  Q 105.27 103.95 128.00 81.50
  Z"
/>
<path fill="#04e2a3" d="
  M 128.00 93.03
  L 128.00 118.92
  Q 125.89 126.39 117.42 128.00
  L 98.32 128.00
  L 128.00 93.03
  Z"
/>
</svg>