<?xml version="1.0" encoding="UTF-8" standalone="no"?>
<!DOCTYPE svg PUBLIC "-//W3C//DTD SVG 1.1//EN" "http://www.w3.org/Graphics/SVG/1.1/DTD/svg11.dtd">
<svg xmlns="http://www.w3.org/2000/svg" version="1.1" viewBox="0.00 0.00 180.00 180.00" width="128" height="128">
<path stroke="#808080" stroke-width="2.00" fill="none" stroke-linecap="butt" vector-effect="non-scaling-stroke" d="
  M 115.72 112.38
  L 66.16 32.53
  A 0.54 0.51 -15.0 0 0 65.71 32.29
  L 35.25 32.29
  A 0.63 0.62 -0.0 0 0 34.62 32.91
  L 34.62 46.66
  A 0.77 0.77 0.0 0 0 35.39 47.43
  L 44.05 47.43
  A 0.58 0.58 0.0 0 1 44.63 48.01
  Q 44.62 101.36 44.63 127.20
  C 44.63 130.85 44.21 133.57 40.23 133.95
  Q 35.38 134.41 34.35 134.49
  A 0.65 0.65 0.0 0 0 33.75 135.14
  L 33.75 148.08
  A 0.60 0.60 0.0 0 0 34.35 148.68
  L 76.10 148.68
  A 0.56 0.56 0.0 0 0 76.66 148.12
  L 76.66 134.24
  A 0.69 0.69 0.0 0 0 75.97 133.55
  L 66.08 133.55
  A 0.79 0.79 0.0 0 1 65.29 132.76
  L 65.29 67.54
  A 0.27 0.27 0.0 0 1 65.79 67.40
  L 116.03 148.33
  A 0.75 0.74 73.8 0 0 116.66 148.68
  L 136.36 148.68
  A 0.35 0.35 0.0 0 0 136.71 148.33
  Q 136.72 82.55 136.70 56.31
  C 136.70 46.85 138.02 47.25 146.61 46.54
  A 0.70 0.69 87.8 0 0 147.25 45.84
  L 147.25 32.63
  A 0.34 0.34 0.0 0 0 146.91 32.29
  L 105.10 32.29
  A 0.60 0.60 0.0 0 0 104.50 32.89
  L 104.50 46.64
  A 0.78 0.78 0.0 0 0 105.28 47.42
  L 115.30 47.42
  A 0.78 0.77 -90.0 0 1 116.07 48.20
  L 116.07 112.28
  A 0.19 0.19 0.0 0 1 115.72 112.38"
/>
<path fill="#ffffff" d="
  M 180.00 0.00
  L 180.00 180.00
  L 0.00 180.00
  L 0.00 0.00
  L 180.00 0.00
  Z
  M 115.72 112.38
  L 66.16 32.53
  A 0.54 0.51 -15.0 0 0 65.71 32.29
  L 35.25 32.29
  A 0.63 0.62 -0.0 0 0 34.62 32.91
  L 34.62 46.66
  A 0.77 0.77 0.0 0 0 35.39 47.43
  L 44.05 47.43
  A 0.58 0.58 0.0 0 1 44.63 48.01
  Q 44.62 101.36 44.63 127.20
  C 44.63 130.85 44.21 133.57 40.23 133.95
  Q 35.38 134.41 34.35 134.49
  A 0.65 0.65 0.0 0 0 33.75 135.14
  L 33.75 148.08
  A 0.60 0.60 0.0 0 0 34.35 148.68
  L 76.10 148.68
  A 0.56 0.56 0.0 0 0 76.66 148.12
  L 76.66 134.24
  A 0.69 0.69 0.0 0 0 75.97 133.55
  L 66.08 133.55
  A 0.79 0.79 0.0 0 1 65.29 132.76
  L 65.29 67.54
  A 0.27 0.27 0.0 0 1 65.79 67.40
  L 116.03 148.33
  A 0.75 0.74 73.8 0 0 116.66 148.68
  L 136.36 148.68
  A 0.35 0.35 0.0 0 0 136.71 148.33
  Q 136.72 82.55 136.70 56.31
  C 136.70 46.85 138.02 47.25 146.61 46.54
  A 0.70 0.69 87.8 0 0 147.25 45.84
  L 147.25 32.63
  A 0.34 0.34 0.0 0 0 146.91 32.29
  L 105.10 32.29
  A 0.60 0.60 0.0 0 0 104.50 32.89
  L 104.50 46.64
  A 0.78 0.78 0.0 0 0 105.28 47.42
  L 115.30 47.42
  A 0.78 0.77 -90.0 0 1 116.07 48.20
  L 116.07 112.28
  A 0.19 0.19 0.0 0 1 115.72 112.38
  Z"
/>
<path fill="#000000" d="
  M 115.72 112.38
  A 0.19 0.19 0.0 0 0 116.07 112.28
  L 116.07 48.20
  A 0.78 0.77 90.0 0 0 115.30 47.42
  L 105.28 47.42
  A 0.78 0.78 0.0 0 1 104.50 46.64
  L 104.50 32.89
  A 0.60 0.60 0.0 0 1 105.10 32.29
  L 146.91 32.29
  A 0.34 0.34 0.0 0 1 147.25 32.63
  L 147.25 45.84
  A 0.70 0.69 87.8 0 1 146.61 46.54
  C 138.02 47.25 136.70 46.85 136.70 56.31
  Q 136.72 82.55 136.71 148.33
  A 0.35 0.35 0.0 0 1 136.36 148.68
  L 116.66 148.68
  A 0.75 0.74 73.8 0 1 116.03 148.33
  L 65.79 67.40
  A 0.27 0.27 0.0 0 0 65.29 67.54
  L 65.29 132.76
  A 0.79 0.79 0.0 0 0 66.08 133.55
  L 75.97 133.55
  A 0.69 0.69 0.0 0 1 76.66 134.24
  L 76.66 148.12
  A 0.56 0.56 0.0 0 1 76.10 148.68
  L 34.35 148.68
  A 0.60 0.60 0.0 0 1 33.75 148.08
  L 33.75 135.14
  A 0.65 0.65 0.0 0 1 34.35 134.49
  Q 35.38 134.41 40.23 133.95
  C 44.21 133.57 44.63 130.85 44.63 127.20
  Q 44.62 101.36 44.63 48.01
  A 0.58 0.58 0.0 0 0 44.05 47.43
  L 35.39 47.43
  A 0.77 0.77 0.0 0 1 34.62 46.66
  L 34.62 32.91
  A 0.63 0.62 0.0 0 1 35.25 32.29
  L 65.71 32.29
  A 0.54 0.51 -15.0 0 1 66.16 32.53
  L 115.72 112.38
  Z"
/>
</svg>