<?xml version="1.0" encoding="UTF-8" standalone="no"?>
<!DOCTYPE svg PUBLIC "-//W3C//DTD SVG 1.1//EN" "http://www.w3.org/Graphics/SVG/1.1/DTD/svg11.dtd">
<svg xmlns="http://www.w3.org/2000/svg" version="1.1" viewBox="0.00 0.00 180.00 180.00" width="128" height="128">
<g stroke-width="2.00" fill="none" stroke-linecap="butt">
<path stroke="#8f8f8f" vector-effect="non-scaling-stroke" d="
  M 144.83 87.06
  L 144.83 61.55
  A 0.37 0.36 0.0 0 0 144.46 61.19
  L 135.48 61.19
  A 0.37 0.36 0.0 0 0 135.11 61.55
  L 135.11 105.04
  A 0.26 0.26 0.0 0 0 135.37 105.30
  L 144.60 105.30
  A 0.23 0.23 0.0 0 0 144.83 105.07
  L 144.83 94.95
  A 0.09 0.09 0.0 0 1 144.99 94.89
  L 155.02 104.91
  A 1.31 1.29 -21.8 0 0 155.95 105.30
  L 167.43 105.30
  A 0.68 0.68 0.0 0 0 167.91 104.13
  L 154.61 90.83
  A 0.33 0.33 0.0 0 1 154.62 90.36
  L 167.37 78.62
  A 0.34 0.34 0.0 0 0 167.14 78.03
  L 154.88 78.03
  A 1.26 1.25 -67.3 0 0 153.99 78.40
  L 145.18 87.21
  A 0.21 0.20 67.8 0 1 144.83 87.06"
/>
<path stroke="#8f8f8f" vector-effect="non-scaling-stroke" d="
  M 132.6794 91.4464
  A 16.46 14.80 -0.5 0 0 116.0908 76.7906
  A 16.46 14.80 -0.5 0 0 99.7606 91.7336
  A 16.46 14.80 -0.5 0 0 116.3492 106.3894
  A 16.46 14.80 -0.5 0 0 132.6794 91.4464"
/>
<path stroke="#8f8f8f" vector-effect="non-scaling-stroke" d="
  M 65.24 103.09
  L 65.24 109.21
  A 0.47 0.47 0.0 0 1 64.77 109.68
  L 56.87 109.68
  A 1.07 1.07 0.0 0 0 56.06 110.05
  Q 50.26 116.68 49.66 117.42
  A 0.87 0.85 -50.3 0 0 49.76 118.62
  Q 49.96 118.78 50.29 118.79
  Q 57.32 118.86 74.28 118.82
  A 0.66 0.65 -0.4 0 0 74.93 118.17
  L 74.93 78.46
  A 0.44 0.43 90.0 0 0 74.50 78.02
  L 65.70 78.02
  A 0.49 0.49 0.0 0 0 65.21 78.51
  L 65.21 79.65
  A 0.33 0.32 -71.3 0 1 64.69 79.91
  Q 58.61 75.21 51.77 78.36
  C 41.65 83.03 40.00 100.00 51.43 104.68
  Q 58.80 107.69 64.78 102.87
  A 0.28 0.28 0.0 0 1 65.24 103.09"
/>
<path stroke="#8f8f8f" vector-effect="non-scaling-stroke" d="
  M 21.81 82.39
  L 21.81 78.88
  A 0.82 0.82 0.0 0 0 20.99 78.06
  L 13.07 78.06
  A 0.98 0.97 0.0 0 0 12.09 79.03
  L 12.09 104.96
  A 0.46 0.45 90.0 0 0 12.54 105.42
  L 21.35 105.42
  A 0.47 0.46 90.0 0 0 21.81 104.95
  L 21.81 87.36
  A 0.43 0.42 -0.0 0 1 22.24 86.94
  L 30.78 86.94
  A 0.42 0.42 0.0 0 1 31.20 87.36
  L 31.20 105.03
  A 0.38 0.38 0.0 0 0 31.58 105.41
  L 40.52 105.41
  A 0.39 0.39 0.0 0 0 40.91 105.02
  Q 40.88 97.96 40.94 88.46
  C 40.98 83.49 39.37 79.84 34.79 78.37
  Q 32.88 77.75 26.38 78.08
  A 1.11 1.08 -70.1 0 0 25.61 78.45
  L 22.04 82.48
  A 0.13 0.13 0.0 0 1 21.81 82.39"
/>
<path stroke="#8f8f8f" vector-effect="non-scaling-stroke" d="
  M 88.59 81.92
  L 88.59 78.77
  A 0.75 0.75 0.0 0 0 87.84 78.02
  L 79.54 78.02
  A 0.87 0.87 0.0 0 0 78.67 78.89
  L 78.67 104.90
  A 0.40 0.40 0.0 0 0 79.07 105.30
  L 88.22 105.30
  A 0.38 0.37 90.0 0 0 88.59 104.92
  L 88.59 87.57
  A 0.53 0.52 -0.0 0 1 89.12 87.05
  L 94.39 87.05
  A 2.36 2.34 20.4 0 0 96.16 86.25
  L 102.71 78.87
  A 0.51 0.51 0.0 0 0 102.32 78.02
  L 93.47 78.02
  A 2.58 2.58 0.0 0 0 91.54 78.89
  L 88.79 81.99
  A 0.11 0.11 0.0 0 1 88.59 81.92"
/>
<path stroke="#8f8f8f" vector-effect="non-scaling-stroke" d="
  M 122.21 91.53
  A 6.01 6.01 0.0 0 0 116.20 85.52
  A 6.01 6.01 0.0 0 0 110.19 91.53
  A 6.01 6.01 0.0 0 0 116.20 97.54
  A 6.01 6.01 0.0 0 0 122.21 91.53"
/>
<path stroke="#8f8f8f" vector-effect="non-scaling-stroke" d="
  M 65.71 91.51
  A 5.99 5.99 0.0 0 0 59.72 85.52
  A 5.99 5.99 0.0 0 0 53.73 91.51
  A 5.99 5.99 0.0 0 0 59.72 97.50
  A 5.99 5.99 0.0 0 0 65.71 91.51"
/>
</g>
<path fill="#1e1e1e" d="
  M 180.00 0.00
  L 180.00 180.00
  L 0.00 180.00
  L 0.00 0.00
  L 180.00 0.00
  Z
  M 144.83 87.06
  L 144.83 61.55
  A 0.37 0.36 0.0 0 0 144.46 61.19
  L 135.48 61.19
  A 0.37 0.36 0.0 0 0 135.11 61.55
  L 135.11 105.04
  A 0.26 0.26 0.0 0 0 135.37 105.30
  L 144.60 105.30
  A 0.23 0.23 0.0 0 0 144.83 105.07
  L 144.83 94.95
  A 0.09 0.09 0.0 0 1 144.99 94.89
  L 155.02 104.91
  A 1.31 1.29 -21.8 0 0 155.95 105.30
  L 167.43 105.30
  A 0.68 0.68 0.0 0 0 167.91 104.13
  L 154.61 90.83
  A 0.33 0.33 0.0 0 1 154.62 90.36
  L 167.37 78.62
  A 0.34 0.34 0.0 0 0 167.14 78.03
  L 154.88 78.03
  A 1.26 1.25 -67.3 0 0 153.99 78.40
  L 145.18 87.21
  A 0.21 0.20 67.8 0 1 144.83 87.06
  Z
  M 132.6794 91.4464
  A 16.46 14.80 -0.5 0 0 116.0908 76.7906
  A 16.46 14.80 -0.5 0 0 99.7606 91.7336
  A 16.46 14.80 -0.5 0 0 116.3492 106.3894
  A 16.46 14.80 -0.5 0 0 132.6794 91.4464
  Z
  M 65.24 103.09
  L 65.24 109.21
  A 0.47 0.47 0.0 0 1 64.77 109.68
  L 56.87 109.68
  A 1.07 1.07 0.0 0 0 56.06 110.05
  Q 50.26 116.68 49.66 117.42
  A 0.87 0.85 -50.3 0 0 49.76 118.62
  Q 49.96 118.78 50.29 118.79
  Q 57.32 118.86 74.28 118.82
  A 0.66 0.65 -0.4 0 0 74.93 118.17
  L 74.93 78.46
  A 0.44 0.43 90.0 0 0 74.50 78.02
  L 65.70 78.02
  A 0.49 0.49 0.0 0 0 65.21 78.51
  L 65.21 79.65
  A 0.33 0.32 -71.3 0 1 64.69 79.91
  Q 58.61 75.21 51.77 78.36
  C 41.65 83.03 40.00 100.00 51.43 104.68
  Q 58.80 107.69 64.78 102.87
  A 0.28 0.28 0.0 0 1 65.24 103.09
  Z
  M 21.81 82.39
  L 21.81 78.88
  A 0.82 0.82 0.0 0 0 20.99 78.06
  L 13.07 78.06
  A 0.98 0.97 0.0 0 0 12.09 79.03
  L 12.09 104.96
  A 0.46 0.45 90.0 0 0 12.54 105.42
  L 21.35 105.42
  A 0.47 0.46 90.0 0 0 21.81 104.95
  L 21.81 87.36
  A 0.43 0.42 -0.0 0 1 22.24 86.94
  L 30.78 86.94
  A 0.42 0.42 0.0 0 1 31.20 87.36
  L 31.20 105.03
  A 0.38 0.38 0.0 0 0 31.58 105.41
  L 40.52 105.41
  A 0.39 0.39 0.0 0 0 40.91 105.02
  Q 40.88 97.96 40.94 88.46
  C 40.98 83.49 39.37 79.84 34.79 78.37
  Q 32.88 77.75 26.38 78.08
  A 1.11 1.08 -70.1 0 0 25.61 78.45
  L 22.04 82.48
  A 0.13 0.13 0.0 0 1 21.81 82.39
  Z
  M 88.59 81.92
  L 88.59 78.77
  A 0.75 0.75 0.0 0 0 87.84 78.02
  L 79.54 78.02
  A 0.87 0.87 0.0 0 0 78.67 78.89
  L 78.67 104.90
  A 0.40 0.40 0.0 0 0 79.07 105.30
  L 88.22 105.30
  A 0.38 0.37 90.0 0 0 88.59 104.92
  L 88.59 87.57
  A 0.53 0.52 -0.0 0 1 89.12 87.05
  L 94.39 87.05
  A 2.36 2.34 20.4 0 0 96.16 86.25
  L 102.71 78.87
  A 0.51 0.51 0.0 0 0 102.32 78.02
  L 93.47 78.02
  A 2.58 2.58 0.0 0 0 91.54 78.89
  L 88.79 81.99
  A 0.11 0.11 0.0 0 1 88.59 81.92
  Z"
/>
<path fill="#ffffff" d="
  M 145.18 87.21
  L 153.99 78.40
  A 1.26 1.25 -67.3 0 1 154.88 78.03
  L 167.14 78.03
  A 0.34 0.34 0.0 0 1 167.37 78.62
  L 154.62 90.36
  A 0.33 0.33 0.0 0 0 154.61 90.83
  L 167.91 104.13
  A 0.68 0.68 0.0 0 1 167.43 105.30
  L 155.95 105.30
  A 1.31 1.29 -21.8 0 1 155.02 104.91
  L 144.99 94.89
  A 0.09 0.09 0.0 0 0 144.83 94.95
  L 144.83 105.07
  A 0.23 0.23 0.0 0 1 144.60 105.30
  L 135.37 105.30
  A 0.26 0.26 0.0 0 1 135.11 105.04
  L 135.11 61.55
  A 0.37 0.36 0.0 0 1 135.48 61.19
  L 144.46 61.19
  A 0.37 0.36 0.0 0 1 144.83 61.55
  L 144.83 87.06
  A 0.21 0.20 67.8 0 0 145.18 87.21
  Z"
/>
<path fill="#ffffff" d="
  M 132.6794 91.4464
  A 16.46 14.80 -0.5 0 1 116.3492 106.3894
  A 16.46 14.80 -0.5 0 1 99.7606 91.7336
  A 16.46 14.80 -0.5 0 1 116.0908 76.7906
  A 16.46 14.80 -0.5 0 1 132.6794 91.4464
  Z
  M 122.21 91.53
  A 6.01 6.01 0.0 0 0 116.20 85.52
  A 6.01 6.01 0.0 0 0 110.19 91.53
  A 6.01 6.01 0.0 0 0 116.20 97.54
  A 6.01 6.01 0.0 0 0 122.21 91.53
  Z"
/>
<path fill="#ffffff" d="
  M 64.78 102.87
  Q 58.80 107.69 51.43 104.68
  C 40.00 100.00 41.65 83.03 51.77 78.36
  Q 58.61 75.21 64.69 79.91
  A 0.33 0.32 -71.3 0 0 65.21 79.65
  L 65.21 78.51
  A 0.49 0.49 0.0 0 1 65.70 78.02
  L 74.50 78.02
  A 0.44 0.43 90.0 0 1 74.93 78.46
  L 74.93 118.17
  A 0.66 0.65 -0.4 0 1 74.28 118.82
  Q 57.32 118.86 50.29 118.79
  Q 49.96 118.78 49.76 118.62
  A 0.87 0.85 -50.3 0 1 49.66 117.42
  Q 50.26 116.68 56.06 110.05
  A 1.07 1.07 0.0 0 1 56.87 109.68
  L 64.77 109.68
  A 0.47 0.47 0.0 0 0 65.24 109.21
  L 65.24 103.09
  A 0.28 0.28 0.0 0 0 64.78 102.87
  Z
  M 65.71 91.51
  A 5.99 5.99 0.0 0 0 59.72 85.52
  A 5.99 5.99 0.0 0 0 53.73 91.51
  A 5.99 5.99 0.0 0 0 59.72 97.50
  A 5.99 5.99 0.0 0 0 65.71 91.51
  Z"
/>
<path fill="#ffffff" d="
  M 22.04 82.48
  L 25.61 78.45
  A 1.11 1.08 -70.1 0 1 26.38 78.08
  Q 32.88 77.75 34.79 78.37
  C 39.37 79.84 40.98 83.49 40.94 88.46
  Q 40.88 97.96 40.91 105.02
  A 0.39 0.39 0.0 0 1 40.52 105.41
  L 31.58 105.41
  A 0.38 0.38 0.0 0 1 31.20 105.03
  L 31.20 87.36
  A 0.42 0.42 0.0 0 0 30.78 86.94
  L 22.24 86.94
  A 0.43 0.42 0.0 0 0 21.81 87.36
  L 21.81 104.95
  A 0.47 0.46 90.0 0 1 21.35 105.42
  L 12.54 105.42
  A 0.46 0.45 -90.0 0 1 12.09 104.96
  L 12.09 79.03
  A 0.98 0.97 -0.0 0 1 13.07 78.06
  L 20.99 78.06
  A 0.82 0.82 0.0 0 1 21.81 78.88
  L 21.81 82.39
  A 0.13 0.13 0.0 0 0 22.04 82.48
  Z"
/>
<path fill="#ffffff" d="
  M 88.79 81.99
  L 91.54 78.89
  A 2.58 2.58 0.0 0 1 93.47 78.02
  L 102.32 78.02
  A 0.51 0.51 0.0 0 1 102.71 78.87
  L 96.16 86.25
  A 2.36 2.34 20.4 0 1 94.39 87.05
  L 89.12 87.05
  A 0.53 0.52 0.0 0 0 88.59 87.57
  L 88.59 104.92
  A 0.38 0.37 -90.0 0 1 88.22 105.30
  L 79.07 105.30
  A 0.40 0.40 0.0 0 1 78.67 104.90
  L 78.67 78.89
  A 0.87 0.87 0.0 0 1 79.54 78.02
  L 87.84 78.02
  A 0.75 0.75 0.0 0 1 88.59 78.77
  L 88.59 81.92
  A 0.11 0.11 0.0 0 0 88.79 81.99
  Z"
/>
<circle fill="#1e1e1e" cx="59.72" cy="91.51" r="5.99"/>
<circle fill="#1e1e1e" cx="116.20" cy="91.53" r="6.01"/>
</svg>