<?xml version="1.0" encoding="UTF-8" standalone="no"?>
<!DOCTYPE svg PUBLIC "-//W3C//DTD SVG 1.1//EN" "http://www.w3.org/Graphics/SVG/1.1/DTD/svg11.dtd">
<svg xmlns="http://www.w3.org/2000/svg" version="1.1" viewBox="0.00 0.00 256.00 256.00" width="128" height="128">
<g stroke-width="2.00" fill="none" stroke-linecap="butt">
<path stroke="#9bc5fd" vector-effect="non-scaling-stroke" d="
  M 64.24 133.05
  Q 64.19 135.34 64.58 137.67
  Q 69.51 167.17 94.42 183.28"
/>
<path stroke="#96bcfd" vector-effect="non-scaling-stroke" d="
  M 94.42 183.28
  Q 103.92 189.12 114.49 191.47
  Q 122.27 193.21 136.13 193.07
  Q 153.97 192.88 185.00 193.01
  Q 188.91 193.03 191.60 189.52
  Q 193.21 187.42 193.03 182.07
  Q 193.02 181.59 193.00 129.75
  Q 193.00 110.64 183.61 94.90"
/>
<path stroke="#9bc5fd" vector-effect="non-scaling-stroke" d="
  M 183.61 94.90
  Q 166.50 68.20 134.68 64.14"
/>
<path stroke="#9fcbfd" vector-effect="non-scaling-stroke" d="
  M 134.68 64.14
  Q 103.67 63.91 73.01 64.09
  Q 64.02 64.14 64.01 72.76
  Q 63.99 102.62 64.10 132.50
  Q 64.10 133.05 64.24 133.05"
/>
<path stroke="#3a91fb" vector-effect="non-scaling-stroke" d="
  M 134.68 64.14
  Q 124.85 71.56 117.28 80.49"
/>
<path stroke="#9fcbfd" vector-effect="non-scaling-stroke" d="
  M 117.28 80.49
  Q 87.73 88.85 80.28 118.52"
/>
<path stroke="#3a91fb" vector-effect="non-scaling-stroke" d="
  M 80.28 118.52
  Q 72.03 123.98 64.71 130.75
  A 1.22 1.22 0.0 0 0 64.33 131.56
  L 64.24 133.05"
/>
<path stroke="#3182fb" vector-effect="non-scaling-stroke" d="
  M 183.61 94.90
  Q 176.65 98.52 171.25 104.09"
/>
<path stroke="#9bc5fd" vector-effect="non-scaling-stroke" d="
  M 171.25 104.09
  Q 168.49 99.84 167.44 98.55
  Q 148.16 74.96 117.28 80.49"
/>
<path stroke="#96bcfd" vector-effect="non-scaling-stroke" d="
  M 171.25 104.09
  Q 179.99 120.51 176.83 137.27
  C 170.75 169.53 136.42 186.74 106.85 172.66"
/>
<path stroke="#9bc5fd" vector-effect="non-scaling-stroke" d="
  M 106.85 172.66
  C 86.47 162.09 76.10 141.05 80.28 118.52"
/>
<path stroke="#3182fb" vector-effect="non-scaling-stroke" d="
  M 94.42 183.28
  Q 100.28 177.31 106.85 172.66"
/>
<path stroke="#96bcfd" vector-effect="non-scaling-stroke" d="
  M 108.73 155.87
  A 33.75 33.75 0.0 0 0 140.18 160.17
  A 33.77 33.75 -5.9 0 0 161.90 133.44
  A 33.77 33.74 -67.0 0 0 149.09 101.74"
/>
<path stroke="#9bc5fd" vector-effect="non-scaling-stroke" d="
  M 149.09 101.74
  A 33.79 33.78 53.5 0 0 116.62 96.89
  A 33.76 33.76 0.0 0 0 94.90 125.18
  A 33.77 33.76 20.7 0 0 108.73 155.87"
/>
<path stroke="#3182fb" vector-effect="non-scaling-stroke" d="
  M 149.09 101.74
  Q 139.57 106.43 133.08 114.17"
/>
<path stroke="#9bc5fd" vector-effect="non-scaling-stroke" d="
  M 133.08 114.17
  C 111.16 109.33 105.90 140.03 126.86 143.44"
/>
<path stroke="#3182fb" vector-effect="non-scaling-stroke" d="
  M 126.86 143.44
  Q 116.86 148.31 108.73 155.87"
/>
<path stroke="#96bcfd" vector-effect="non-scaling-stroke" d="
  M 126.86 143.44
  C 144.90 144.67 149.95 120.57 133.08 114.17"
/>
</g>
<path fill="#ffffff" d="
  M 256.00 0.00
  L 256.00 256.00
  L 0.00 256.00
  L 0.00 0.00
  L 256.00 0.00
  Z
  M 64.24 133.05
  Q 64.19 135.34 64.58 137.67
  Q 69.51 167.17 94.42 183.28
  Q 103.92 189.12 114.49 191.47
  Q 122.27 193.21 136.13 193.07
  Q 153.97 192.88 185.00 193.01
  Q 188.91 193.03 191.60 189.52
  Q 193.21 187.42 193.03 182.07
  Q 193.02 181.59 193.00 129.75
  Q 193.00 110.64 183.61 94.90
  Q 166.50 68.20 134.68 64.14
  Q 103.67 63.91 73.01 64.09
  Q 64.02 64.14 64.01 72.76
  Q 63.99 102.62 64.10 132.50
  Q 64.10 133.05 64.24 133.05
  Z"
/>
<path fill="#3e97fb" d="
  M 134.68 64.14
  Q 124.85 71.56 117.28 80.49
  Q 87.73 88.85 80.28 118.52
  Q 72.03 123.98 64.71 130.75
  A 1.22 1.22 0.0 0 0 64.33 131.56
  L 64.24 133.05
  Q 64.10 133.05 64.10 132.50
  Q 63.99 102.62 64.01 72.76
  Q 64.02 64.14 73.01 64.09
  Q 103.67 63.91 134.68 64.14
  Z"
/>
<path fill="#368bfb" d="
  M 183.61 94.90
  Q 176.65 98.52 171.25 104.09
  Q 168.49 99.84 167.44 98.55
  Q 148.16 74.96 117.28 80.49
  Q 124.85 71.56 134.68 64.14
  Q 166.50 68.20 183.61 94.90
  Z"
/>
<path fill="#ffffff" d="
  M 171.25 104.09
  Q 179.99 120.51 176.83 137.27
  C 170.75 169.53 136.42 186.74 106.85 172.66
  C 86.47 162.09 76.10 141.05 80.28 118.52
  Q 87.73 88.85 117.28 80.49
  Q 148.16 74.96 167.44 98.55
  Q 168.49 99.84 171.25 104.09
  Z
  M 108.73 155.87
  A 33.75 33.75 0.0 0 0 140.18 160.17
  A 33.77 33.75 -5.9 0 0 161.90 133.44
  A 33.77 33.74 -67.0 0 0 149.09 101.74
  A 33.79 33.78 53.5 0 0 116.62 96.89
  A 33.76 33.76 0.0 0 0 94.90 125.18
  A 33.77 33.76 20.7 0 0 108.73 155.87
  Z"
/>
<path fill="#2c79fb" d="
  M 183.61 94.90
  Q 193.00 110.64 193.00 129.75
  Q 193.02 181.59 193.03 182.07
  Q 193.21 187.42 191.60 189.52
  Q 188.91 193.03 185.00 193.01
  Q 153.97 192.88 136.13 193.07
  Q 122.27 193.21 114.49 191.47
  Q 103.92 189.12 94.42 183.28
  Q 100.28 177.31 106.85 172.66
  C 136.42 186.74 170.75 169.53 176.83 137.27
  Q 179.99 120.51 171.25 104.09
  Q 176.65 98.52 183.61 94.90
  Z"
/>
<path fill="#368bfb" d="
  M 149.09 101.74
  Q 139.57 106.43 133.08 114.17
  C 111.16 109.33 105.90 140.03 126.86 143.44
  Q 116.86 148.31 108.73 155.87
  A 33.77 33.76 20.7 0 1 94.90 125.18
  A 33.76 33.76 0.0 0 1 116.62 96.89
  A 33.79 33.78 53.5 0 1 149.09 101.74
  Z"
/>
<path fill="#2c79fb" d="
  M 149.09 101.74
  A 33.77 33.74 -67.0 0 1 161.90 133.44
  A 33.77 33.75 -5.9 0 1 140.18 160.17
  A 33.75 33.75 0.0 0 1 108.73 155.87
  Q 116.86 148.31 126.86 143.44
  C 144.90 144.67 149.95 120.57 133.08 114.17
  Q 139.57 106.43 149.09 101.74
  Z"
/>
<path fill="#ffffff" d="
  M 133.08 114.17
  C 149.95 120.57 144.90 144.67 126.86 143.44
  C 105.90 140.03 111.16 109.33 133.08 114.17
  Z"
/>
<path fill="#368bfb" d="
  M 80.28 118.52
  C 76.10 141.05 86.47 162.09 106.85 172.66
  Q 100.28 177.31 94.42 183.28
  Q 69.51 167.17 64.58 137.67
  Q 64.19 135.34 64.24 133.05
  L 64.33 131.56
  A 1.22 1.22 0.0 0 1 64.71 130.75
  Q 72.03 123.98 80.28 118.52
  Z"
/>
</svg>