<?xml version="1.0" encoding="UTF-8" standalone="no"?>
<!DOCTYPE svg PUBLIC "-//W3C//DTD SVG 1.1//EN" "http://www.w3.org/Graphics/SVG/1.1/DTD/svg11.dtd">
<svg xmlns="http://www.w3.org/2000/svg" version="1.1" viewBox="0.00 0.00 128.00 128.00" width="128" height="128">
<g stroke-width="2.00" fill="none" stroke-linecap="butt">
<path stroke="#00c1b0" stroke-opacity="0.843" vector-effect="non-scaling-stroke" d="
  M 75.36 83.65
  L 70.93 75.37
  Q 70.92 75.36 70.91 75.35
  Q 70.32 74.92 70.49 76.28
  A 0.83 0.81 -64.7 0 0 70.61 76.63
  L 73.62 81.86
  A 0.18 0.18 0.0 0 1 73.56 82.11
  L 73.19 82.33
  A 0.26 0.26 0.0 0 1 72.83 82.23
  Q 70.98 78.93 70.30 75.38"
/>
<path stroke="#00b5db" vector-effect="non-scaling-stroke" d="
  M 40.35 38.28
  L 34.15 31.91"
/>
<path stroke="#1fa2ff" vector-effect="non-scaling-stroke" d="
  M 27.38 60.76
  L 20.79 54.99"
/>
<path stroke="#5293ff" vector-effect="non-scaling-stroke" d="
  M 19.34 74.74
  Q 17.30 70.43 13.73 67.21"
/>
<path stroke="#3da3dc" stroke-opacity="0.843" vector-effect="non-scaling-stroke" d="
  M 36.28 90.00
  Q 40.88 92.51 41.27 98.63"
/>
<path stroke="#03aef6" stroke-opacity="0.733" vector-effect="non-scaling-stroke" d="
  M 54.89 44.58
  Q 57.40 48.78 57.74 53.15"
/>
<path stroke="#00adef" stroke-opacity="0.600" vector-effect="non-scaling-stroke" d="
  M 57.19 74.58
  L 64.19 86.60"
/>
<path stroke="#00b0ed" vector-effect="non-scaling-stroke" d="
  M 84.48 95.93
  L 89.84 103.79"
/>
<path stroke="#00bcbf" vector-effect="non-scaling-stroke" d="
  M 99.79 86.58
  L 93.82 79.74"
/>
<path stroke="#00c890" vector-effect="non-scaling-stroke" d="
  M 112.83 64.00
  L 107.83 55.48"
/>
<path stroke="#00c98e" stroke-opacity="0.843" vector-effect="non-scaling-stroke" d="
  M 91.78 38.49
  Q 88.59 34.09 87.55 28.74"
/>
</g>
<path fill="#00bfb6" d="
  M 75.36 83.65
  L 70.93 75.37
  Q 70.92 75.36 70.91 75.35
  Q 70.32 74.92 70.49 76.28
  A 0.83 0.81 -64.7 0 0 70.61 76.63
  L 73.62 81.86
  A 0.18 0.18 0.0 0 1 73.56 82.11
  L 73.19 82.33
  A 0.26 0.26 0.0 0 1 72.83 82.23
  Q 70.98 78.93 70.30 75.38
  L 76.64 64.65
  A 0.95 0.94 45.8 0 0 76.65 63.70
  L 57.91 31.25
  A 1.05 1.04 -14.7 0 0 57.00 30.72
  L 45.59 30.72
  A 1.57 1.56 14.8 0 0 44.23 31.51
  L 40.35 38.28
  L 34.15 31.91
  L 38.91 23.88
  A 3.54 3.54 0.0 0 1 41.94 22.14
  Q 50.30 22.12 59.26 22.13
  Q 62.71 22.13 64.17 24.82
  Q 65.06 26.46 85.90 62.60
  Q 86.82 64.19 85.54 66.54
  Q 80.78 75.25 75.36 83.65
  Z"
/>
<path fill="#00cc7c" d="
  M 112.83 64.00
  L 107.83 55.48
  L 115.37 42.41
  A 1.04 1.02 45.5 0 0 115.37 41.36
  L 109.51 31.20
  A 0.94 0.93 75.0 0 0 108.70 30.73
  L 97.08 30.73
  A 1.39 1.38 15.0 0 0 95.88 31.42
  L 91.78 38.49
  Q 88.59 34.09 87.55 28.74
  L 90.38 24.02
  A 3.82 3.81 -74.7 0 1 93.61 22.17
  Q 102.33 22.10 111.20 22.11
  Q 114.19 22.12 115.46 24.29
  Q 122.40 36.26 123.98 39.04
  C 125.17 41.13 125.35 42.27 124.05 44.54
  Q 118.50 54.29 112.83 64.00
  Z"
/>
<path fill="#00c5a8" fill-opacity="0.682" d="
  M 91.78 38.49
  L 89.31 42.81
  Q 85.43 39.42 84.44 34.17
  L 87.55 28.74
  Q 88.59 34.09 91.78 38.49
  Z"
/>
<path fill="#00aaff" d="
  M 34.15 31.91
  L 40.35 38.28
  L 27.38 60.76
  L 20.79 54.99
  L 34.15 31.91
  Z"
/>
<path fill="#09b7e2" fill-opacity="0.467" d="
  M 84.44 34.17
  Q 85.43 39.42 89.31 42.81
  L 87.47 46.01
  Q 84.01 43.02 81.78 38.90
  L 84.44 34.17
  Z"
/>
<path fill="#00bf9e" fill-opacity="0.196" d="
  M 81.78 38.90
  Q 84.01 43.02 87.47 46.01
  L 84.79 50.86
  A 0.90 0.90 0.0 0 1 83.16 50.74
  L 79.96 42.14
  A 0.23 0.23 0.0 0 1 80.35 41.92
  Q 81.28 43.15 81.56 44.40
  A 0.29 0.28 71.7 0 0 81.94 44.60
  L 81.95 44.60
  A 0.27 0.27 0.0 0 0 82.05 44.25
  L 80.68 41.64
  A 1.02 1.02 0.0 0 1 80.71 40.62
  L 81.78 38.90
  Z"
/>
<path fill="#00aaff" d="
  M 54.89 44.58
  Q 57.40 48.78 57.74 53.15
  L 51.43 63.94
  A 0.66 0.66 0.0 0 0 51.43 64.60
  L 57.19 74.58
  L 64.19 86.60
  L 70.24 97.15
  A 1.28 1.26 74.8 0 0 71.34 97.79
  L 82.81 97.79
  A 0.93 0.93 0.0 0 0 83.61 97.33
  L 84.48 95.93
  L 89.84 103.79
  Q 88.68 106.28 86.50 106.30
  Q 76.95 106.38 67.82 106.36
  A 3.91 3.89 74.9 0 1 64.45 104.41
  Q 44.27 69.40 42.64 66.62
  Q 41.31 64.35 42.58 62.07
  Q 45.99 55.96 51.70 46.22
  Q 52.62 44.66 54.89 44.58
  Z"
/>
<path fill="#09b7e2" fill-opacity="0.467" d="
  M 57.74 53.15
  Q 57.40 48.78 54.89 44.58
  L 60.98 44.62
  A 1.62 1.57 -25.1 0 1 61.97 44.96
  L 63.73 46.35
  A 0.45 0.43 -71.9 0 1 63.90 46.70
  Q 63.90 46.90 63.91 46.97
  A 0.54 0.53 -71.0 0 0 64.11 47.39
  Q 66.10 48.97 66.69 51.39
  A 1.38 1.38 0.0 0 1 65.36 53.10
  L 57.74 53.15
  Z"
/>
<path fill="#3d99ff" d="
  M 27.38 60.76
  L 19.34 74.74
  Q 17.30 70.43 13.73 67.21
  L 20.79 54.99
  L 27.38 60.76
  Z"
/>
<path fill="#00c3a3" d="
  M 107.83 55.48
  L 112.83 64.00
  L 99.79 86.58
  L 93.82 79.74
  L 107.83 55.48
  Z"
/>
<path fill="#668cff" d="
  M 13.73 67.21
  Q 17.30 70.43 19.34 74.74
  L 12.84 85.94
  A 1.26 1.24 45.4 0 0 12.84 87.19
  L 18.65 97.25
  A 1.01 1.00 75.0 0 0 19.52 97.76
  L 31.12 97.76
  A 1.22 1.22 0.0 0 0 32.18 97.14
  L 36.28 90.00
  Q 40.88 92.51 41.27 98.63
  Q 39.54 101.49 37.66 104.65
  Q 36.68 106.32 33.74 106.34
  Q 25.32 106.38 16.74 106.35
  Q 13.99 106.34 12.87 104.43
  Q 8.49 96.97 4.11 89.40
  Q 2.39 86.42 3.96 83.78
  Q 8.89 75.50 13.73 67.21
  Z"
/>
<path fill="#00bf9e" fill-opacity="0.196" d="
  M 67.97 75.33
  L 66.47 75.94
  A 0.58 0.58 0.0 0 0 66.14 76.67
  Q 67.73 81.34 72.01 84.05
  L 64.47 84.05
  A 0.57 0.56 -86.6 0 0 63.91 84.55
  Q 63.81 85.48 64.19 86.60
  L 57.19 74.58
  Q 58.63 75.55 61.27 75.08
  Q 62.66 74.83 67.97 75.33
  Z"
/>
<path fill="#00c5a8" fill-opacity="0.682" d="
  M 70.30 75.38
  Q 70.98 78.93 72.83 82.23
  A 0.26 0.26 0.0 0 0 73.19 82.33
  L 73.56 82.11
  A 0.18 0.18 0.0 0 0 73.62 81.86
  L 70.61 76.63
  A 0.83 0.81 -64.7 0 1 70.49 76.28
  Q 70.32 74.92 70.91 75.35
  Q 70.92 75.36 70.93 75.37
  L 75.36 83.65
  L 72.01 84.05
  Q 67.73 81.34 66.14 76.67
  A 0.58 0.58 0.0 0 1 66.47 75.94
  L 67.97 75.33
  L 70.30 75.38
  Z"
/>
<path fill="#00bf9e" fill-opacity="0.196" d="
  M 45.17 91.72
  Q 44.23 86.35 41.08 82.05
  L 42.20 79.93
  A 0.67 0.67 0.0 0 1 43.36 79.90
  Q 44.20 81.28 45.28 83.29
  A 0.09 0.05 -73.4 0 0 45.38 83.19
  Q 45.38 83.16 45.38 83.10
  A 0.56 0.35 46.1 0 0 45.34 82.91
  L 44.09 79.87
  A 0.85 0.84 -12.9 0 0 43.27 79.36
  Q 43.23 79.36 43.11 79.38
  A 0.34 0.33 -80.7 0 1 42.77 78.90
  Q 43.25 77.93 43.83 77.47
  A 0.71 0.70 -36.9 0 1 44.85 77.61
  L 47.19 80.98
  A 0.08 0.08 0.0 0 1 47.07 81.08
  L 45.73 79.50
  A 0.14 0.13 -42.4 0 0 45.53 79.50
  Q 45.37 79.69 45.32 79.76
  A 0.09 0.08 58.3 0 0 45.31 79.83
  L 48.17 86.08
  A 0.84 0.83 47.6 0 1 48.14 86.84
  L 46.33 89.97
  A 0.08 0.08 0.0 0 1 46.18 89.94
  Q 45.38 86.14 43.42 82.94
  A 0.03 0.03 0.0 0 0 43.37 82.95
  Q 43.36 82.97 43.35 82.99
  A 0.05 0.05 0.0 0 0 43.35 83.05
  Q 45.65 87.12 45.17 91.72
  Z"
/>
<path fill="#00b5da" d="
  M 99.79 86.58
  L 89.84 103.79
  L 84.48 95.93
  L 93.82 79.74
  L 99.79 86.58
  Z"
/>
<path fill="#09b7e2" fill-opacity="0.467" d="
  M 45.17 91.72
  Q 44.81 92.81 44.04 93.71
  Q 43.10 89.82 41.37 86.15
  Q 41.37 86.18 41.38 86.21
  Q 42.70 90.67 43.46 93.73
  A 0.22 0.22 0.0 0 1 43.30 94.00
  L 43.29 94.00
  A 0.21 0.21 0.0 0 1 43.03 93.84
  Q 42.03 89.29 37.98 86.96
  L 41.08 82.05
  Q 44.23 86.35 45.17 91.72
  Z"
/>
<path fill="#00c5a8" fill-opacity="0.682" d="
  M 44.04 93.71
  L 41.27 98.63
  Q 40.88 92.51 36.28 90.00
  L 37.98 86.96
  Q 42.03 89.29 43.03 93.84
  A 0.21 0.21 0.0 0 0 43.29 94.00
  L 43.30 94.00
  A 0.22 0.22 0.0 0 0 43.46 93.73
  Q 42.70 90.67 41.38 86.21
  Q 41.37 86.18 41.37 86.15
  Q 43.10 89.82 44.04 93.71
  Z"
/>
</svg>