<?xml version="1.0" encoding="UTF-8" standalone="no"?>
<!DOCTYPE svg PUBLIC "-//W3C//DTD SVG 1.1//EN" "http://www.w3.org/Graphics/SVG/1.1/DTD/svg11.dtd">
<svg xmlns="http://www.w3.org/2000/svg" version="1.1" viewBox="0.00 0.00 128.00 128.00" width="128" height="128">
<path stroke="#e58080" stroke-width="2.00" fill="none" stroke-linecap="butt" vector-effect="non-scaling-stroke" d="
  M 106.19 22.39
  A 0.57 0.57 0.0 0 0 105.62 21.82
  L 22.36 21.82
  A 0.57 0.57 0.0 0 0 21.79 22.39
  L 21.79 105.65
  A 0.57 0.57 0.0 0 0 22.36 106.22
  L 63.43 106.22
  A 0.57 0.57 0.0 0 0 64.00 105.65
  L 64.00 43.48
  A 0.57 0.57 0.0 0 1 64.57 42.91
  L 84.32 42.91
  A 0.57 0.57 0.0 0 1 84.89 43.48
  L 84.89 105.65
  A 0.57 0.57 0.0 0 0 85.46 106.22
  L 105.62 106.22
  A 0.57 0.57 0.0 0 0 106.19 105.65
  L 106.19 22.39"
/>
<path fill="#cb0000" d="
  M 128.00 0.00
  L 128.00 128.00
  L 0.00 128.00
  L 0.00 0.00
  L 128.00 0.00
  Z
  M 106.19 22.39
  A 0.57 0.57 0.0 0 0 105.62 21.82
  L 22.36 21.82
  A 0.57 0.57 0.0 0 0 21.79 22.39
  L 21.79 105.65
  A 0.57 0.57 0.0 0 0 22.36 106.22
  L 63.43 106.22
  A 0.57 0.57 0.0 0 0 64.00 105.65
  L 64.00 43.48
  A 0.57 0.57 0.0 0 1 64.57 42.91
  L 84.32 42.91
  A 0.57 0.57 0.0 0 1 84.89 43.48
  L 84.89 105.65
  A 0.57 0.57 0.0 0 0 85.46 106.22
  L 105.62 106.22
  A 0.57 0.57 0.0 0 0 106.19 105.65
  L 106.19 22.39
  Z"
/>
<path fill="#ffffff" d="
  M 106.19 22.39
  L 106.19 105.65
  A 0.57 0.57 0.0 0 1 105.62 106.22
  L 85.46 106.22
  A 0.57 0.57 0.0 0 1 84.89 105.65
  L 84.89 43.48
  A 0.57 0.57 0.0 0 0 84.32 42.91
  L 64.57 42.91
  A 0.57 0.57 0.0 0 0 64.00 43.48
  L 64.00 105.65
  A 0.57 0.57 0.0 0 1 63.43 106.22
  L 22.36 106.22
  A 0.57 0.57 0.0 0 1 21.79 105.65
  L 21.79 22.39
  A 0.57 0.57 0.0 0 1 22.36 21.82
  L 105.62 21.82
  A 0.57 0.57 0.0 0 1 106.19 22.39
  Z"
/>
</svg>