<?xml version="1.0" encoding="UTF-8" standalone="no"?>
<!DOCTYPE svg PUBLIC "-//W3C//DTD SVG 1.1//EN" "http://www.w3.org/Graphics/SVG/1.1/DTD/svg11.dtd">
<svg xmlns="http://www.w3.org/2000/svg" version="1.1" viewBox="0.00 0.00 256.00 256.00" width="128" height="128">
<path fill="#3ed9b2" d="
  M 256.00 56.72
  L 256.00 256.00
  L 238.38 256.00
  L 234.42 255.12
  A 0.81 0.81 0.0 0 1 233.79 254.24
  L 234.13 250.95
  Q 234.13 250.94 234.13 250.93
  Q 233.78 141.74 234.15 70.00
  Q 234.20 59.61 231.73 50.38
  Q 229.20 40.97 221.05 36.27
  Q 211.44 30.71 200.75 30.27
  Q 197.65 30.14 184.93 30.62
  C 182.08 30.72 179.82 30.23 177.26 30.35
  Q 174.22 30.49 173.98 33.76
  C 173.58 39.21 174.03 47.48 173.85 52.07
  C 173.54 60.10 173.90 69.64 173.56 80.11
  Q 173.35 87.01 173.83 91.72
  A 1.54 1.53 83.5 0 1 172.50 93.40
  Q 170.68 93.63 168.67 92.83
  C 165.98 91.76 162.04 90.18 159.11 88.64
  Q 152.03 84.92 147.72 83.09
  C 142.12 80.71 137.55 77.79 131.94 75.34
  Q 127.27 73.31 121.78 70.30
  C 117.34 67.86 112.61 66.26 108.14 63.74
  Q 102.32 60.45 96.43 58.28
  A 15.44 15.31 -18.7 0 1 93.65 56.92
  Q 87.46 53.09 79.58 50.11
  A 3.38 2.98 -13.1 0 1 78.93 49.76
  L 73.98 46.25
  A 0.88 0.65 -8.3 0 0 73.85 46.18
  L 68.11 44.32
  A 1.75 1.74 11.7 0 0 65.84 45.81
  Q 64.89 55.44 65.66 63.50
  Q 66.06 67.59 71.05 69.47
  Q 76.23 71.42 78.27 72.62
  Q 82.53 75.11 85.29 76.23
  Q 86.93 76.90 97.85 82.35
  Q 126.61 96.71 162.20 114.53
  Q 167.17 117.02 169.29 117.89
  Q 174.10 119.84 176.55 121.90
  C 179.01 123.96 182.77 124.72 185.91 126.43
  A 2.41 2.31 62.2 0 0 186.69 126.69
  Q 189.32 127.06 190.88 124.81
  C 191.74 123.57 191.31 121.47 191.57 120.01
  C 192.05 117.27 192.32 116.07 192.33 113.65
  Q 192.47 79.51 192.35 65.97
  C 192.30 60.26 192.93 55.47 193.44 50.67
  A 2.35 2.33 -4.1 0 1 195.20 48.65
  C 198.02 47.94 201.36 47.51 204.49 48.73
  Q 208.93 50.45 209.91 51.07
  C 213.97 53.66 215.09 63.08 215.15 67.77
  C 215.51 96.84 215.17 126.29 215.32 156.75
  Q 215.34 159.26 215.07 160.63
  A 1.66 1.65 12.2 0 1 213.06 161.92
  Q 210.42 161.29 207.96 160.05
  Q 191.40 151.64 182.74 147.61
  Q 175.75 144.35 172.81 142.70
  C 168.23 140.11 163.75 138.66 159.50 136.26
  Q 155.46 133.98 150.70 131.82
  C 143.73 128.65 140.02 126.29 133.51 123.38
  Q 132.21 122.80 125.18 119.31
  Q 98.19 105.89 84.51 99.28
  Q 77.96 96.11 75.37 94.71
  C 70.47 92.06 65.74 90.52 61.04 87.84
  Q 56.41 85.21 47.89 81.14
  C 45.12 79.82 42.72 77.90 42.36 74.12
  Q 41.84 68.84 41.85 68.50
  Q 42.46 38.94 41.63 12.54
  A 2.03 2.02 86.2 0 1 43.45 10.46
  C 46.27 10.18 50.90 12.96 53.05 13.87
  C 59.21 16.50 64.83 19.85 71.15 22.57
  C 74.94 24.20 79.99 27.45 83.20 28.82
  Q 91.15 32.20 96.29 35.06
  Q 99.34 36.76 102.20 37.94
  C 108.52 40.55 114.08 43.98 120.62 46.82
  C 125.42 48.90 128.94 51.37 133.69 53.28
  C 138.34 55.15 142.25 57.56 146.82 59.68
  C 149.77 61.06 150.75 58.76 150.82 56.21
  C 150.94 51.81 151.50 46.78 151.14 42.59
  C 150.20 31.60 150.85 22.17 151.21 10.55
  A 1.43 1.42 89.3 0 1 152.55 9.17
  C 158.38 8.83 163.88 8.27 169.84 8.27
  C 183.67 8.27 198.13 7.82 211.49 9.31
  C 219.99 10.25 228.50 14.84 235.66 20.08
  C 242.04 24.75 248.34 32.70 251.72 39.28
  Q 255.63 46.88 255.63 50.98
  Q 255.63 53.89 256.00 56.72
  Z"
/>
<path fill="#3ed9b2" d="
  M 99.52 256.00
  L 46.77 256.00
  Q 39.92 255.97 32.98 252.27
  C 23.09 246.98 15.72 241.39 9.48 232.37
  Q 4.57 225.28 1.24 217.74
  Q 0.45 215.95 0.00 210.77
  L 0.00 16.02
  Q 0.21 13.63 0.47 11.28
  Q 0.75 8.77 3.50 8.65
  Q 11.04 8.33 20.62 9.65
  C 22.73 9.94 23.34 10.62 23.40 12.91
  Q 23.44 14.39 23.41 16.75
  Q 23.13 37.18 23.23 196.50
  Q 23.23 204.63 23.87 208.01
  C 25.45 216.37 27.68 223.18 34.79 228.56
  C 37.93 230.93 44.68 232.70 47.63 233.60
  C 55.51 236.00 66.64 234.22 73.75 234.15
  C 77.00 234.11 82.79 237.22 82.98 231.24
  C 83.16 225.36 82.56 218.64 82.74 212.91
  Q 83.15 199.69 83.00 181.50
  Q 82.97 177.72 82.56 173.82
  A 1.96 1.95 79.8 0 1 84.01 171.73
  Q 86.02 171.21 87.77 171.97
  C 91.11 173.43 94.78 174.65 97.82 176.35
  C 104.29 179.98 111.60 182.67 118.06 186.24
  Q 122.20 188.53 124.95 189.69
  C 131.15 192.29 136.95 195.78 142.78 198.32
  Q 147.87 200.55 152.41 203.08
  C 156.87 205.58 161.14 206.83 165.30 209.28
  Q 170.18 212.15 176.87 214.71
  A 13.43 13.35 -17.2 0 1 179.62 216.15
  Q 183.14 218.56 186.97 220.76
  C 188.71 221.77 190.41 221.25 190.79 219.22
  C 191.45 215.64 192.61 210.69 192.34 206.73
  C 192.09 203.03 191.46 197.78 187.55 196.45
  Q 184.07 195.27 179.67 192.95
  C 172.36 189.09 167.85 187.40 161.17 183.73
  C 155.72 180.73 150.45 178.61 145.19 175.75
  C 138.92 172.32 123.60 165.25 110.99 158.55
  C 106.17 155.99 102.16 154.64 97.68 152.08
  Q 91.70 148.67 85.12 145.80
  A 9.44 8.85 71.6 0 1 83.70 145.03
  C 78.19 141.36 74.36 139.12 68.16 138.48
  A 2.36 2.35 13.6 0 0 65.73 139.96
  Q 64.78 142.39 64.96 144.26
  C 65.92 154.05 64.72 163.32 64.77 172.93
  Q 64.85 191.21 65.08 197.18
  C 65.31 203.02 64.28 209.41 63.85 214.41
  A 2.51 2.49 -8.7 0 1 62.30 216.51
  Q 58.59 218.02 55.55 217.22
  C 50.25 215.82 45.31 214.33 43.78 208.52
  Q 42.06 201.94 41.93 194.75
  Q 41.54 171.86 42.03 146.01
  C 42.24 135.55 42.00 123.58 41.63 114.00
  Q 41.46 109.68 41.68 104.32
  A 1.23 1.22 1.0 0 1 42.91 103.14
  Q 44.68 103.15 46.36 103.92
  Q 55.36 108.03 64.01 112.44
  Q 70.72 115.86 72.75 116.74
  C 79.39 119.59 84.90 123.01 91.49 126.04
  Q 97.85 128.97 101.41 130.76
  Q 112.65 136.42 207.35 182.89
  C 210.19 184.28 215.01 186.60 215.05 190.28
  Q 215.30 214.08 215.01 243.27
  C 214.98 246.45 215.99 250.04 215.03 253.14
  A 2.08 2.08 0.0 0 1 212.43 254.51
  C 203.93 251.94 195.37 246.74 186.76 242.87
  Q 182.29 240.87 180.49 239.84
  C 174.70 236.53 169.19 234.53 163.80 231.55
  Q 158.82 228.80 154.68 227.09
  C 149.35 224.89 144.02 221.33 138.33 219.16
  Q 134.80 217.81 131.16 215.56
  C 127.90 213.54 124.28 212.19 120.59 210.74
  C 116.27 209.04 113.54 205.71 108.48 205.77
  A 2.33 2.33 0.0 0 0 106.18 208.18
  Q 106.80 226.50 105.73 250.50
  Q 105.62 253.00 105.37 254.30
  A 1.41 1.41 0.0 0 1 104.15 255.43
  L 99.52 256.00
  Z"
/>
</svg>