<?xml version="1.0" encoding="UTF-8" standalone="no"?>
<!DOCTYPE svg PUBLIC "-//W3C//DTD SVG 1.1//EN" "http://www.w3.org/Graphics/SVG/1.1/DTD/svg11.dtd">
<svg xmlns="http://www.w3.org/2000/svg" version="1.1" viewBox="0.00 0.00 256.00 256.00" width="128" height="128">
<path fill="#053664" d="
  M 236.38 0.00
  Q 242.30 0.23 248.22 0.36
  Q 250.95 0.42 252.79 1.31
  A 3.68 3.66 -80.9 0 1 254.82 4.13
  L 256.00 12.90
  L 256.00 179.80
  Q 254.19 186.37 248.50 191.99
  Q 212.54 227.50 198.11 242.36
  Q 196.54 243.99 192.89 248.14
  C 190.71 250.61 187.98 253.08 184.89 252.82
  A 1.99 1.99 0.0 0 1 183.07 250.76
  C 183.16 248.34 183.60 244.98 183.60 241.76
  Q 183.72 109.78 183.77 101.75
  Q 183.79 97.48 183.01 92.26
  C 182.30 87.47 182.38 84.70 181.92 81.05
  C 181.52 77.95 180.00 76.82 176.89 76.52
  Q 161.89 75.08 158.00 75.08
  Q 103.20 75.09 36.19 75.08
  C 29.04 75.08 18.52 74.54 12.00 75.26
  Q 9.31 75.56 6.30 76.04
  A 2.30 2.23 -11.8 0 1 3.72 74.41
  Q 3.50 73.54 4.33 72.06
  Q 5.55 69.89 8.72 66.72
  Q 36.48 38.98 55.68 19.68
  Q 68.21 7.08 70.06 4.66
  A 3.69 3.64 0.4 0 1 70.75 3.99
  L 74.94 0.96
  A 1.95 1.92 19.0 0 1 75.53 0.68
  L 78.00 0.00
  L 236.38 0.00
  Z"
/>
<rect fill="#053664" x="-47.12" y="-47.97" transform="translate(92.28,172.16) rotate(-0.1)" width="94.24" height="95.94" rx="11.59"/>
</svg>