<?xml version="1.0" encoding="UTF-8" standalone="no"?>
<!DOCTYPE svg PUBLIC "-//W3C//DTD SVG 1.1//EN" "http://www.w3.org/Graphics/SVG/1.1/DTD/svg11.dtd">
<svg xmlns="http://www.w3.org/2000/svg" version="1.1" viewBox="0.00 0.00 256.00 256.00" width="128" height="128">
<path fill="#714b67" d="
  M 245.39 128.52
  A 116.86 116.86 0.0 0 1 128.53 245.38
  A 116.86 116.86 0.0 0 1 11.67 128.52
  A 116.86 116.86 0.0 0 1 128.53 11.66
  A 116.86 116.86 0.0 0 1 245.39 128.52
  Z
  M 197.27 128.56
  A 67.97 67.97 0.0 0 0 129.30 60.59
  A 67.97 67.97 0.0 0 0 61.33 128.56
  A 67.97 67.97 0.0 0 0 129.30 196.53
  A 67.97 67.97 0.0 0 0 197.27 128.56
  Z"
/>
</svg>