<?xml version="1.0" encoding="UTF-8" standalone="no"?>
<!DOCTYPE svg PUBLIC "-//W3C//DTD SVG 1.1//EN" "http://www.w3.org/Graphics/SVG/1.1/DTD/svg11.dtd">
<svg xmlns="http://www.w3.org/2000/svg" version="1.1" viewBox="0.00 0.00 192.00 192.00" width="128" height="128">
<path fill="#000000" d="
  M 154.72 0.00
  C 161.06 0.43 168.38 -0.20 172.74 2.24
  Q 180.25 6.44 187.07 14.95
  Q 191.55 20.53 192.00 27.89
  L 192.00 164.74
  Q 191.65 170.66 188.09 175.59
  Q 183.62 181.79 178.23 186.20
  Q 172.05 191.28 164.27 192.00
  L 119.11 192.00
  L 116.17 191.10
  A 0.95 0.95 0.0 0 1 115.50 190.18
  Q 115.98 172.38 115.52 152.48
  Q 115.35 144.98 112.06 129.49
  Q 110.71 123.12 108.81 119.34
  Q 105.75 113.23 103.56 109.90
  Q 96.64 99.38 82.59 93.49
  C 80.21 92.49 77.34 92.29 75.38 91.63
  C 71.44 90.31 68.40 90.70 67.97 95.29
  C 67.65 98.76 67.08 109.42 70.42 111.86
  Q 76.71 116.47 76.93 116.68
  Q 84.58 123.96 86.48 130.60
  C 89.85 142.32 91.04 154.51 90.83 167.64
  Q 90.63 179.63 90.71 190.37
  A 0.80 0.79 81.6 0 1 90.15 191.13
  L 87.26 192.00
  L 26.54 192.00
  Q 19.85 191.19 14.45 186.79
  Q 9.02 182.36 4.76 176.78
  Q 0.82 171.61 0.00 165.30
  L 0.00 29.51
  Q 0.43 25.20 0.83 24.06
  Q 6.24 8.48 21.89 1.06
  A 2.51 2.35 26.9 0 1 22.61 0.85
  L 29.38 0.00
  L 154.72 0.00
  Z
  M 115.21 51.15
  A 18.32 18.32 0.0 0 0 96.89 32.83
  A 18.32 18.32 0.0 0 0 78.57 51.15
  A 18.32 18.32 0.0 0 0 96.89 69.47
  A 18.32 18.32 0.0 0 0 115.21 51.15
  Z"
/>
</svg>