<?xml version="1.0" encoding="UTF-8" standalone="no"?>
<!DOCTYPE svg PUBLIC "-//W3C//DTD SVG 1.1//EN" "http://www.w3.org/Graphics/SVG/1.1/DTD/svg11.dtd">
<svg xmlns="http://www.w3.org/2000/svg" version="1.1" viewBox="0.00 0.00 144.00 144.00" width="128" height="128">
<path fill="#3a96be" d="
  M 69.93 84.34
  C 68.12 85.72 65.40 87.83 63.99 88.57
  Q 41.69 100.29 18.44 91.56
  C 2.98 85.75 -0.69 68.41 1.18 53.90
  Q 2.01 47.51 2.72 44.00
  Q 5.93 28.33 15.78 17.78
  C 26.13 6.69 44.97 1.10 60.10 3.95
  Q 67.72 5.39 73.19 7.84
  C 87.78 14.39 89.69 30.09 88.86 44.30
  A 2.96 2.93 -32.6 0 1 88.66 45.19
  Q 87.79 47.46 88.00 50.56
  A 0.42 0.42 0.0 0 0 88.53 50.93
  Q 89.54 50.63 89.74 50.62
  Q 92.22 50.54 106.53 50.65
  C 111.61 50.70 119.02 51.66 124.07 53.43
  Q 143.21 60.16 143.41 82.63
  Q 143.55 97.12 138.56 109.74
  Q 130.56 129.99 110.51 137.47
  Q 106.20 139.09 98.77 140.24
  Q 94.81 140.86 86.73 140.82
  Q 68.67 140.74 61.73 140.85
  A 0.79 0.79 0.0 0 1 61.06 139.62
  C 62.21 137.90 61.90 136.48 62.20 134.51
  Q 66.10 108.11 70.32 84.57
  A 0.24 0.24 0.0 0 0 69.93 84.34
  Z
  M 67.55 44.07
  C 70.12 26.65 55.29 18.23 40.11 23.67
  C 26.15 28.68 23.64 41.91 21.68 55.23
  C 20.48 63.44 22.38 72.29 31.09 75.45
  C 35.08 76.89 40.08 77.61 44.63 76.33
  Q 50.05 74.82 51.76 74.00
  C 63.33 68.46 65.62 57.08 67.55 44.07
  Z
  M 92.02 69.74
  L 83.95 119.85
  A 0.91 0.91 0.0 0 0 84.79 120.91
  C 98.86 121.83 111.68 120.05 118.28 105.85
  Q 123.03 95.64 122.67 84.87
  C 122.12 68.61 105.16 68.22 92.70 69.12
  A 0.74 0.73 2.4 0 0 92.02 69.74
  Z"
/>
</svg>