<?xml version="1.0" encoding="UTF-8" standalone="no"?>
<!DOCTYPE svg PUBLIC "-//W3C//DTD SVG 1.1//EN" "http://www.w3.org/Graphics/SVG/1.1/DTD/svg11.dtd">
<svg xmlns="http://www.w3.org/2000/svg" version="1.1" viewBox="0.00 0.00 180.00 180.00" width="128" height="128">
<g stroke-width="2.00" fill="none" stroke-linecap="butt">
<path stroke="#828d96" vector-effect="non-scaling-stroke" d="
  M 82.41 90.26
  L 76.73 90.26
  A 1.23 1.23 0.0 0 1 75.50 89.03
  L 75.50 76.51
  A 0.76 0.75 -0.0 0 1 76.26 75.76
  L 96.27 75.76
  A 0.98 0.98 0.0 0 1 97.25 76.74
  L 97.25 169.95
  A 0.58 0.58 0.0 0 0 97.88 170.53
  C 120.07 168.81 140.88 156.83 154.17 139.45
  C 179.25 106.67 175.91 60.79 146.18 32.05
  C 133.22 19.53 115.56 11.00 97.43 9.80
  C 86.86 9.11 76.52 9.67 66.39 12.91
  C 40.80 21.10 20.94 40.40 12.85 65.80
  C 1.54 101.33 16.04 139.48 47.50 159.02
  Q 62.79 168.51 81.32 170.54
  A 1.30 1.29 -87.0 0 0 82.75 169.25
  L 82.75 90.60
  A 0.34 0.34 0.0 0 0 82.41 90.26"
/>
<path stroke="#828d96" vector-effect="non-scaling-stroke" d="
  M 90.00 38.17
  C 118.41 38.17 141.86 61.15 142.06 89.71
  C 142.20 109.28 131.25 128.06 113.31 136.63
  A 2.74 2.73 77.3 0 0 111.75 139.10
  L 111.75 151.84
  A 0.81 0.81 0.0 0 0 112.85 152.59
  Q 130.08 145.94 141.16 132.53
  C 155.80 114.80 160.35 90.79 153.02 69.00
  C 144.04 42.31 118.71 23.74 90.00 23.74
  C 61.29 23.74 35.96 42.31 26.98 68.99
  C 19.65 90.78 24.20 114.79 38.84 132.52
  Q 49.91 145.94 67.14 152.59
  A 0.81 0.81 0.0 0 0 68.24 151.84
  L 68.24 139.10
  A 2.74 2.73 -77.3 0 0 66.68 136.63
  C 48.75 128.06 37.80 109.27 37.94 89.70
  C 38.15 61.14 61.59 38.17 90.00 38.17"
/>
</g>
<path fill="#ffffff" d="
  M 180.00 0.00
  L 180.00 180.00
  L 0.00 180.00
  L 0.00 0.00
  L 180.00 0.00
  Z
  M 82.41 90.26
  L 76.73 90.26
  A 1.23 1.23 0.0 0 1 75.50 89.03
  L 75.50 76.51
  A 0.76 0.75 -0.0 0 1 76.26 75.76
  L 96.27 75.76
  A 0.98 0.98 0.0 0 1 97.25 76.74
  L 97.25 169.95
  A 0.58 0.58 0.0 0 0 97.88 170.53
  C 120.07 168.81 140.88 156.83 154.17 139.45
  C 179.25 106.67 175.91 60.79 146.18 32.05
  C 133.22 19.53 115.56 11.00 97.43 9.80
  C 86.86 9.11 76.52 9.67 66.39 12.91
  C 40.80 21.10 20.94 40.40 12.85 65.80
  C 1.54 101.33 16.04 139.48 47.50 159.02
  Q 62.79 168.51 81.32 170.54
  A 1.30 1.29 -87.0 0 0 82.75 169.25
  L 82.75 90.60
  A 0.34 0.34 0.0 0 0 82.41 90.26
  Z"
/>
<path fill="#051b2c" d="
  M 82.41 90.26
  A 0.34 0.34 0.0 0 1 82.75 90.60
  L 82.75 169.25
  A 1.30 1.29 -87.0 0 1 81.32 170.54
  Q 62.79 168.51 47.50 159.02
  C 16.04 139.48 1.54 101.33 12.85 65.80
  C 20.94 40.40 40.80 21.10 66.39 12.91
  C 76.52 9.67 86.86 9.11 97.43 9.80
  C 115.56 11.00 133.22 19.53 146.18 32.05
  C 175.91 60.79 179.25 106.67 154.17 139.45
  C 140.88 156.83 120.07 168.81 97.88 170.53
  A 0.58 0.58 0.0 0 1 97.25 169.95
  L 97.25 76.74
  A 0.98 0.98 0.0 0 0 96.27 75.76
  L 76.26 75.76
  A 0.76 0.75 -0.0 0 0 75.50 76.51
  L 75.50 89.03
  A 1.23 1.23 0.0 0 0 76.73 90.26
  L 82.41 90.26
  Z
  M 90.00 38.17
  C 118.41 38.17 141.86 61.15 142.06 89.71
  C 142.20 109.28 131.25 128.06 113.31 136.63
  A 2.74 2.73 77.3 0 0 111.75 139.10
  L 111.75 151.84
  A 0.81 0.81 0.0 0 0 112.85 152.59
  Q 130.08 145.94 141.16 132.53
  C 155.80 114.80 160.35 90.79 153.02 69.00
  C 144.04 42.31 118.71 23.74 90.00 23.74
  C 61.29 23.74 35.96 42.31 26.98 68.99
  C 19.65 90.78 24.20 114.79 38.84 132.52
  Q 49.91 145.94 67.14 152.59
  A 0.81 0.81 0.0 0 0 68.24 151.84
  L 68.24 139.10
  A 2.74 2.73 -77.3 0 0 66.68 136.63
  C 48.75 128.06 37.80 109.27 37.94 89.70
  C 38.15 61.14 61.59 38.17 90.00 38.17
  Z"
/>
<path fill="#ffffff" d="
  M 90.00 23.74
  C 118.71 23.74 144.04 42.31 153.02 69.00
  C 160.35 90.79 155.80 114.80 141.16 132.53
  Q 130.08 145.94 112.85 152.59
  A 0.81 0.81 0.0 0 1 111.75 151.84
  L 111.75 139.10
  A 2.74 2.73 77.3 0 1 113.31 136.63
  C 131.25 128.06 142.20 109.28 142.06 89.71
  C 141.86 61.15 118.41 38.17 90.00 38.17
  C 61.59 38.17 38.15 61.14 37.94 89.70
  C 37.80 109.27 48.75 128.06 66.68 136.63
  A 2.74 2.73 -77.3 0 1 68.24 139.10
  L 68.24 151.84
  A 0.81 0.81 0.0 0 1 67.14 152.59
  Q 49.91 145.94 38.84 132.52
  C 24.20 114.79 19.65 90.78 26.98 68.99
  C 35.96 42.31 61.29 23.74 90.00 23.74
  Z"
/>
</svg>