<?xml version="1.0" encoding="UTF-8" standalone="no"?>
<!DOCTYPE svg PUBLIC "-//W3C//DTD SVG 1.1//EN" "http://www.w3.org/Graphics/SVG/1.1/DTD/svg11.dtd">
<svg xmlns="http://www.w3.org/2000/svg" version="1.1" viewBox="0.00 0.00 512.00 512.00" width="128" height="128">
<path fill="#198c65" d="
  M 284.21 48.94
  C 290.99 65.01 294.91 82.85 297.80 101.99
  Q 303.32 138.59 304.37 178.10
  A 0.48 0.47 -1.1 0 1 303.89 178.59
  L 284.31 178.59
  A 0.57 0.57 0.0 0 1 283.74 178.03
  Q 282.85 136.29 275.81 96.96
  Q 272.03 75.82 265.50 58.26
  C 263.70 53.42 260.39 45.54 256.57 43.04
  A 0.78 0.77 -48.4 0 0 255.63 43.10
  Q 252.03 46.22 249.98 50.50
  Q 245.55 59.77 243.53 66.57
  Q 235.62 93.24 232.27 122.01
  Q 227.62 161.98 227.63 201.00
  Q 227.71 480.97 227.62 489.70
  A 0.41 0.41 0.0 0 1 227.21 490.11
  L 207.40 490.11
  A 0.58 0.58 0.0 0 1 206.82 489.55
  Q 206.70 485.66 206.70 483.00
  Q 206.68 337.12 206.70 201.75
  Q 206.71 155.63 212.59 111.36
  Q 215.99 85.73 222.85 62.88
  Q 225.10 55.41 228.03 49.04
  A 0.34 0.33 -87.1 0 0 227.62 48.58
  C 220.76 51.05 215.09 54.85 208.98 59.22
  C 194.98 69.25 184.78 82.20 175.97 96.86
  Q 171.18 104.84 166.96 115.16
  Q 161.19 129.27 156.69 145.96
  Q 154.76 153.10 153.66 160.50
  Q 151.81 172.92 151.69 175.25
  C 151.31 183.06 150.56 190.25 150.56 197.03
  Q 150.56 313.11 150.57 490.11
  A 0.66 0.66 0.0 0 1 149.91 490.77
  L 130.37 490.77
  A 0.75 0.75 0.0 0 1 129.62 490.02
  Q 129.60 325.21 129.63 194.25
  Q 129.63 191.11 131.19 173.02
  Q 132.18 161.48 134.42 151.98
  Q 138.92 132.87 141.90 123.91
  Q 147.27 107.75 156.77 90.22
  Q 167.88 69.71 184.75 52.67
  A 0.26 0.26 0.0 0 0 184.49 52.24
  C 128.69 68.90 71.73 112.63 71.78 176.75
  Q 71.80 199.30 71.80 488.52
  A 0.58 0.58 0.0 0 1 71.22 489.10
  L 50.65 489.10
  A 0.49 0.48 0.0 0 1 50.16 488.62
  Q 50.23 219.82 50.12 191.09
  Q 50.04 167.74 51.55 158.48
  C 60.95 100.91 109.20 59.64 161.20 39.42
  C 209.89 20.48 264.12 16.98 314.71 28.50
  C 386.08 44.75 460.31 97.49 462.10 177.99
  A 0.77 0.77 0.0 0 1 461.33 178.78
  L 441.96 178.78
  A 0.50 0.50 0.0 0 1 441.46 178.28
  C 441.48 114.45 385.93 71.27 330.59 53.81
  A 0.19 0.19 0.0 0 0 330.40 54.13
  C 362.98 86.88 379.18 133.14 383.08 178.39
  A 0.33 0.32 -3.1 0 1 382.75 178.75
  L 362.01 178.75
  A 0.86 0.85 87.4 0 1 361.16 177.97
  Q 358.45 148.99 348.11 122.15
  C 336.42 91.82 315.37 61.82 284.64 48.51
  A 0.33 0.33 0.0 0 0 284.21 48.94
  Z"
/>
<rect fill="#198c65" x="-10.40" y="-38.74" transform="translate(295.91,451.36) rotate(0.1)" width="20.80" height="77.48" rx="0.67"/>
<rect fill="#198c65" x="-10.39" y="-38.74" transform="translate(373.87,451.37) rotate(-0.1)" width="20.78" height="77.48" rx="0.46"/>
<rect fill="#198c65" x="441.43" y="412.64" width="20.94" height="77.78" rx="0.64"/>
</svg>