<?xml version="1.0" encoding="UTF-8" standalone="no"?>
<!DOCTYPE svg PUBLIC "-//W3C//DTD SVG 1.1//EN" "http://www.w3.org/Graphics/SVG/1.1/DTD/svg11.dtd">
<svg xmlns="http://www.w3.org/2000/svg" version="1.1" viewBox="0.00 0.00 256.00 256.00" width="128" height="128">
<path fill="#eb6e4b" d="
  M 68.78 206.43
  Q 78.61 207.00 85.19 206.92
  A 3.81 3.69 34.0 0 0 86.37 206.71
  Q 89.88 205.50 93.59 205.35
  A 2.78 2.78 0.0 0 0 96.23 202.16
  L 95.46 197.09
  A 1.93 1.92 78.2 0 0 93.06 195.51
  Q 92.88 195.56 83.68 196.03
  Q 78.54 196.30 74.57 195.74
  Q 66.51 194.60 58.77 194.52
  C 51.73 194.45 45.76 193.38 37.50 193.12
  Q 32.38 192.97 30.17 188.77
  C 27.64 183.98 30.38 179.75 34.93 178.19
  Q 41.74 175.85 45.08 173.59
  Q 48.81 171.06 47.07 166.75
  Q 46.17 164.52 45.15 163.63
  A 1.99 1.95 69.8 0 0 44.16 163.16
  Q 38.26 162.21 37.49 162.20
  C 33.67 162.17 29.80 162.47 25.50 161.93
  Q 14.26 160.52 5.26 160.07
  Q 3.46 159.98 1.20 158.27
  A 1.49 1.47 13.1 0 1 0.64 157.38
  C -1.02 148.47 3.77 145.66 11.65 144.94
  A 2.60 2.60 0.0 0 0 14.00 142.14
  C 12.74 126.74 12.63 109.54 16.91 94.85
  Q 28.03 56.63 62.50 35.73
  Q 67.82 32.50 74.50 29.01
  Q 78.28 27.03 82.75 27.02
  Q 116.12 26.96 145.24 27.04
  Q 147.18 27.04 150.78 28.80
  C 160.05 33.32 169.26 38.45 176.94 44.88
  C 200.45 64.57 213.52 93.93 212.82 124.76
  Q 212.65 132.31 212.14 139.75
  Q 211.99 141.96 212.47 143.68
  A 1.77 1.76 -8.0 0 0 214.20 144.98
  Q 221.34 144.89 232.85 145.03
  Q 239.20 145.11 240.85 146.45
  Q 244.19 149.17 243.89 153.94
  A 2.77 2.72 -26.1 0 1 243.40 155.33
  Q 239.67 160.55 233.99 160.58
  Q 197.83 160.74 184.48 160.87
  Q 172.71 160.98 171.51 160.89
  C 164.46 160.32 158.21 161.51 150.50 161.87
  Q 145.93 162.09 144.80 166.25
  C 144.05 169.02 143.76 172.08 146.57 173.68
  Q 151.88 176.72 158.12 178.41
  Q 162.57 179.62 162.73 184.84
  Q 162.92 191.17 156.55 192.56
  Q 151.93 193.56 142.46 195.20
  C 137.38 196.08 137.23 201.41 137.86 205.58
  A 1.80 1.78 19.9 0 0 138.30 206.51
  C 140.68 209.20 147.18 209.19 151.01 209.19
  Q 188.89 209.20 197.50 209.54
  C 203.64 209.79 207.38 211.30 207.47 218.15
  Q 207.55 224.84 200.26 225.45
  C 193.47 226.02 187.46 226.71 181.65 226.76
  Q 156.43 226.99 135.75 226.57
  Q 120.69 226.27 78.10 226.93
  Q 72.02 227.02 65.44 226.65
  Q 56.63 226.14 52.77 225.46
  Q 46.89 224.41 45.89 218.37
  C 45.25 214.54 48.44 211.71 51.67 210.33
  A 1.49 1.42 -60.4 0 1 52.00 210.23
  L 65.19 208.09
  A 1.36 1.32 -64.2 0 0 65.66 207.92
  Q 68.04 206.39 68.78 206.43
  Z"
/>
<rect fill="#eb6e4b" x="-16.94" y="-8.11" transform="translate(191.65,185.79) rotate(0.6)" width="33.88" height="16.22" rx="7.72"/>
<path fill="#eb6e4b" d="
  M 256.00 183.45
  L 256.00 187.96
  C 255.34 192.43 251.88 193.61 247.73 193.74
  Q 235.67 194.12 230.03 193.63
  Q 228.26 193.48 225.18 192.06
  A 2.42 2.40 88.8 0 1 224.04 190.96
  Q 222.05 187.05 223.46 181.96
  C 224.94 176.57 237.08 177.79 240.96 177.74
  Q 244.71 177.70 250.67 178.45
  Q 255.17 179.02 256.00 183.45
  Z"
/>
</svg>