<?xml version="1.0" encoding="UTF-8" standalone="no"?>
<!DOCTYPE svg PUBLIC "-//W3C//DTD SVG 1.1//EN" "http://www.w3.org/Graphics/SVG/1.1/DTD/svg11.dtd">
<svg xmlns="http://www.w3.org/2000/svg" version="1.1" viewBox="0.00 0.00 192.00 192.00" width="128" height="128">
<g stroke-width="2.00" fill="none" stroke-linecap="butt">
<path stroke="#335b80" vector-effect="non-scaling-stroke" d="
  M 64.95 55.04
  Q 65.11 54.20 63.46 52.54
  Q 48.21 37.18 42.45 31.60
  Q 42.22 31.38 41.68 31.37"
/>
<path stroke="#335b80" vector-effect="non-scaling-stroke" d="
  M 32.63 42.67
  Q 32.67 43.75 34.21 45.30
  Q 46.84 58.07 55.34 65.82"
/>
<path stroke="#335b80" vector-effect="non-scaling-stroke" d="
  M 161.16 150.08
  L 137.39 127.11"
/>
<path stroke="#335b80" vector-effect="non-scaling-stroke" d="
  M 127.26 137.33
  Q 127.39 138.11 127.63 138.37
  Q 137.78 149.09 148.44 159.32
  Q 149.59 160.43 149.22 162.01"
/>
</g>
<path fill="#003262" d="
  M 64.95 55.04
  Q 65.11 54.20 63.46 52.54
  Q 48.21 37.18 42.45 31.60
  Q 42.22 31.38 41.68 31.37
  Q 41.71 31.15 41.76 30.93
  A 1.74 1.66 -18.0 0 1 42.23 30.06
  L 49.56 22.73
  A 0.81 0.81 0.0 0 1 50.71 22.73
  L 69.11 41.13
  A 1.09 1.07 -34.8 0 0 70.33 41.34
  Q 79.59 37.03 88.48 36.32
  Q 99.02 35.47 108.30 36.98
  C 112.85 37.72 117.91 39.97 121.82 41.29
  A 0.91 0.91 0.0 0 0 122.75 41.08
  L 141.14 22.69
  A 0.73 0.72 44.7 0 1 142.17 22.69
  L 149.60 30.12
  A 1.57 1.56 45.0 0 1 149.61 32.33
  Q 147.05 34.93 128.95 52.96
  Q 126.27 55.63 123.43 55.67
  Q 121.48 55.70 117.57 53.75
  Q 95.09 42.52 72.28 54.74
  Q 69.39 56.28 64.95 55.04
  Z"
/>
<path fill="#65849e" d="
  M 64.95 55.04
  Q 51.50 42.01 42.00 32.24
  Q 41.69 31.92 41.68 31.37
  Q 42.22 31.38 42.45 31.60
  Q 48.21 37.18 63.46 52.54
  Q 65.11 54.20 64.95 55.04
  Z"
/>
<path fill="#003262" d="
  M 32.63 42.67
  Q 32.67 43.75 34.21 45.30
  Q 46.84 58.07 55.34 65.82
  Q 55.90 69.56 55.41 70.65
  Q 53.93 73.90 52.51 77.18
  Q 44.14 96.39 52.50 114.80
  Q 53.10 116.12 54.36 118.94
  C 56.24 123.16 56.20 125.74 52.73 129.21
  Q 44.75 137.18 32.34 149.60
  A 1.57 1.56 -44.9 0 1 30.13 149.60
  L 22.63 142.10
  A 0.64 0.64 0.0 0 1 22.63 141.20
  L 41.08 122.75
  A 0.79 0.78 57.7 0 0 41.26 121.93
  Q 38.86 115.32 38.69 114.85
  C 35.47 106.36 35.58 96.87 36.25 87.97
  C 36.78 81.01 39.60 74.45 41.28 69.93
  A 0.87 0.85 33.1 0 0 41.08 69.04
  L 22.78 50.74
  A 0.88 0.88 0.0 0 1 22.78 49.48
  Q 27.47 44.85 29.79 42.53
  Q 31.57 40.76 32.63 42.67
  Z"
/>
<path fill="#003262" d="
  M 161.16 150.08
  L 137.39 127.11
  Q 135.02 123.88 136.79 120.32
  Q 149.51 94.70 136.71 71.29
  Q 135.35 68.81 136.80 65.23
  A 2.55 2.33 81.1 0 1 137.33 64.43
  L 159.68 42.08
  A 1.33 1.33 0.0 0 1 161.56 42.08
  L 169.25 49.77
  A 0.55 0.55 0.0 0 1 169.25 50.55
  L 150.43 69.37
  A 0.75 0.74 54.4 0 0 150.29 70.24
  Q 153.72 77.05 154.93 83.47
  Q 158.76 103.84 150.33 121.89
  A 0.48 0.47 -56.2 0 0 150.43 122.43
  L 169.31 141.32
  A 0.45 0.44 -45.4 0 1 169.31 141.95
  L 161.16 150.08
  Z"
/>
<path fill="#65849e" d="
  M 32.63 42.67
  Q 44.85 53.85 55.34 65.82
  Q 46.84 58.07 34.21 45.30
  Q 32.67 43.75 32.63 42.67
  Z"
/>
<path fill="#003262" d="
  M 129.12 95.93
  A 33.24 33.24 0.0 0 1 95.88 129.17
  A 33.24 33.24 0.0 0 1 62.64 95.93
  A 33.24 33.24 0.0 0 1 95.88 62.69
  A 33.24 33.24 0.0 0 1 129.12 95.93
  Z
  M 116.37 95.91
  A 20.50 20.50 0.0 0 0 95.87 75.41
  A 20.50 20.50 0.0 0 0 75.37 95.91
  A 20.50 20.50 0.0 0 0 95.87 116.41
  A 20.50 20.50 0.0 0 0 116.37 95.91
  Z"
/>
<path fill="#65849e" d="
  M 161.16 150.08
  Q 160.29 150.50 159.23 149.52
  Q 149.82 140.72 137.39 127.11
  L 161.16 150.08
  Z"
/>
<path fill="#003262" d="
  M 127.26 137.33
  Q 127.39 138.11 127.63 138.37
  Q 137.78 149.09 148.44 159.32
  Q 149.59 160.43 149.22 162.01
  L 141.92 169.41
  A 0.34 0.33 -45.6 0 1 141.44 169.42
  L 122.48 150.45
  A 0.72 0.71 54.8 0 0 121.69 150.31
  Q 116.02 152.99 111.00 154.42
  C 106.69 155.65 99.51 155.91 95.76 156.02
  Q 82.96 156.42 70.16 150.38
  A 0.78 0.78 0.0 0 0 69.27 150.53
  L 50.53 169.27
  A 0.52 0.51 -44.6 0 1 49.80 169.27
  L 42.13 161.61
  A 1.41 1.41 0.0 0 1 42.13 159.62
  Q 59.74 142.04 63.06 138.67
  C 68.34 133.32 73.74 138.39 79.27 140.41
  Q 99.12 147.68 119.80 137.03
  Q 123.50 135.13 127.26 137.33
  Z"
/>
<path fill="#65849e" d="
  M 149.22 162.01
  Q 149.59 160.43 148.44 159.32
  Q 137.78 149.09 127.63 138.37
  Q 127.39 138.11 127.26 137.33
  C 127.75 137.89 128.44 138.19 128.87 138.63
  Q 139.32 149.05 149.76 159.49
  Q 151.01 160.74 149.22 162.01
  Z"
/>
</svg>