<?xml version="1.0" encoding="UTF-8" standalone="no"?>
<!DOCTYPE svg PUBLIC "-//W3C//DTD SVG 1.1//EN" "http://www.w3.org/Graphics/SVG/1.1/DTD/svg11.dtd">
<svg xmlns="http://www.w3.org/2000/svg" version="1.1" viewBox="0.00 0.00 256.00 256.00" width="128" height="128">
<g stroke-width="2.00" fill="none" stroke-linecap="butt">
<path stroke="#808080" vector-effect="non-scaling-stroke" d="
  M 52.16 186.17
  C 53.74 188.01 56.11 189.61 58.63 190.43
  C 64.94 192.49 73.01 194.73 77.74 198.82
  C 85.21 205.27 93.66 209.35 102.65 212.87
  Q 103.94 213.38 108.73 217.01
  C 113.18 220.38 119.16 223.03 124.58 226.55
  Q 126.91 228.06 130.97 230.46
  C 133.41 231.90 134.39 233.03 136.53 235.30
  A 3.04 3.04 0.0 0 0 140.91 235.34
  C 142.78 233.43 143.40 228.41 143.56 225.50
  Q 144.21 213.10 144.16 203.50
  Q 144.11 194.37 144.07 63.08
  C 144.06 50.55 145.17 38.62 142.80 26.51
  A 3.37 3.08 -66.9 0 0 142.51 25.68
  Q 140.71 22.23 136.92 23.38
  A 2.48 2.42 16.4 0 0 136.09 23.82
  Q 134.28 25.27 131.35 26.85
  Q 125.13 30.19 119.50 33.62
  C 117.42 34.89 114.81 35.88 112.57 37.07
  A 4.69 4.42 8.1 0 0 111.69 37.69
  Q 107.37 41.52 104.68 42.92
  Q 101.26 44.69 85.51 52.03
  A 6.68 6.39 -74.6 0 0 84.32 52.74
  Q 82.86 53.84 79.48 57.22
  C 74.02 62.67 65.70 63.92 59.25 66.24
  C 54.30 68.02 51.53 69.56 50.34 74.37
  Q 47.85 84.48 47.83 94.79
  Q 47.78 122.61 47.79 150.25
  Q 47.79 158.40 48.22 167.93
  C 48.47 173.36 49.57 179.59 50.94 183.96
  A 6.24 6.19 16.3 0 0 52.16 186.17"
/>
<path stroke="#808080" vector-effect="non-scaling-stroke" d="
  M 170.92 221.92
  Q 176.56 212.23 176.80 201.24
  C 177.14 186.02 176.48 169.18 176.57 150.92
  C 176.69 124.06 176.08 91.43 176.95 61.24
  Q 177.24 50.96 173.76 41.60
  Q 172.69 38.71 170.65 36.69
  A 2.30 1.88 49.7 0 0 168.05 36.21
  Q 167.69 36.45 167.31 37.31
  C 165.33 41.80 162.87 45.78 161.92 50.28
  Q 160.17 58.53 160.18 63.52
  Q 160.24 163.78 160.12 184.73
  Q 160.04 198.35 161.55 205.65
  A 7.48 7.12 -64.2 0 0 162.03 207.15
  Q 164.54 212.96 165.42 216.52
  Q 165.92 218.57 166.38 220.41
  Q 167.23 223.77 170.14 222.59
  A 1.56 1.54 3.9 0 0 170.92 221.92"
/>
<path stroke="#808080" vector-effect="non-scaling-stroke" d="
  M 203.35 60.18
  Q 201.30 58.81 199.49 60.11
  C 192.68 64.96 192.11 74.17 192.14 81.77
  Q 192.32 124.34 192.13 180.00
  Q 192.12 184.71 193.98 190.17
  A 1.63 1.47 20.2 0 0 194.17 190.53
  L 199.09 197.15
  A 2.62 2.61 -29.6 0 0 202.20 198.00
  Q 207.16 195.92 208.24 190.22
  Q 209.62 182.91 209.45 173.75
  Q 209.07 153.96 209.40 92.74
  C 209.45 83.22 209.00 75.63 207.07 65.98
  Q 206.30 62.14 203.35 60.18"
/>
<path stroke="#808080" vector-effect="non-scaling-stroke" d="
  M 72.41 79.57
  C 67.64 79.43 65.73 80.43 65.48 85.50
  Q 64.17 113.01 64.77 146.50
  Q 65.01 159.99 65.10 168.25
  C 65.18 175.75 68.10 178.12 75.59 176.81
  C 80.88 175.89 80.89 170.51 80.52 166.17
  C 80.04 160.61 80.98 154.58 80.97 148.72
  Q 80.93 121.73 80.97 109.48
  Q 80.98 103.17 80.74 98.03
  Q 80.27 87.83 80.16 86.65
  C 79.73 82.21 76.82 79.70 72.41 79.57"
/>
</g>
<path fill="#000000" d="
  M 130.48 11.19
  A 3.41 3.37 86.5 0 0 131.81 9.67
  L 134.30 4.11
  A 1.80 1.78 83.4 0 1 134.88 3.37
  C 138.76 0.47 148.21 2.19 152.60 3.56
  A 1.56 1.55 6.7 0 1 153.68 4.92
  C 154.01 9.23 153.88 11.11 156.94 14.15
  Q 160.60 17.78 164.36 20.59
  C 165.96 21.78 167.59 23.63 168.69 24.76
  A 2.28 2.27 60.2 0 0 170.93 25.37
  Q 179.44 22.97 186.31 28.78
  Q 191.77 33.39 195.59 38.93
  Q 197.18 41.24 198.07 44.61
  Q 198.67 46.92 201.16 47.13
  A 1.67 1.61 33.1 0 0 201.99 46.97
  C 210.51 42.89 220.11 45.67 223.03 55.21
  Q 224.32 59.41 224.52 70.76
  Q 224.64 77.76 224.55 187.26
  C 224.55 195.96 225.38 207.45 215.29 211.24
  C 212.04 212.46 208.80 211.86 205.01 210.90
  C 202.64 210.30 200.97 211.23 199.36 213.43
  Q 196.11 217.89 190.55 224.27
  C 186.69 228.70 181.76 231.36 175.99 232.12
  Q 172.34 232.60 170.18 233.17
  C 164.82 234.57 159.01 241.06 155.60 245.50
  A 1.19 0.68 -29.9 0 0 155.53 245.62
  L 153.33 250.45
  A 1.52 1.51 5.0 0 1 152.33 251.28
  Q 145.98 252.92 141.74 252.55
  Q 137.18 252.15 134.56 251.91
  Q 133.30 251.79 130.88 250.28
  A 1.55 1.53 9.4 0 1 130.21 249.36
  Q 129.30 245.74 126.95 244.57
  Q 122.81 242.52 109.20 236.57
  Q 107.67 235.90 103.64 232.99
  C 98.14 229.02 90.66 225.26 85.89 223.01
  Q 81.21 220.80 74.72 216.76
  Q 69.82 213.71 61.57 210.09
  Q 47.61 203.96 41.95 200.07
  Q 40.88 199.33 36.42 194.47
  A 3.65 3.49 -80.6 0 1 35.84 193.62
  Q 32.28 186.41 32.31 177.98
  Q 32.46 131.78 32.27 77.82
  Q 32.22 66.75 40.78 59.01
  Q 51.12 49.67 61.80 47.25
  C 63.97 46.75 67.32 45.31 69.17 44.35
  A 4.00 3.86 -77.0 0 0 69.97 43.83
  C 78.08 37.15 86.45 33.46 96.78 28.80
  Q 98.57 27.99 101.42 25.42
  C 105.09 22.11 110.00 20.26 114.80 18.09
  C 120.16 15.67 125.38 14.29 130.48 11.19
  Z
  M 52.16 186.17
  C 53.74 188.01 56.11 189.61 58.63 190.43
  C 64.94 192.49 73.01 194.73 77.74 198.82
  C 85.21 205.27 93.66 209.35 102.65 212.87
  Q 103.94 213.38 108.73 217.01
  C 113.18 220.38 119.16 223.03 124.58 226.55
  Q 126.91 228.06 130.97 230.46
  C 133.41 231.90 134.39 233.03 136.53 235.30
  A 3.04 3.04 0.0 0 0 140.91 235.34
  C 142.78 233.43 143.40 228.41 143.56 225.50
  Q 144.21 213.10 144.16 203.50
  Q 144.11 194.37 144.07 63.08
  C 144.06 50.55 145.17 38.62 142.80 26.51
  A 3.37 3.08 -66.9 0 0 142.51 25.68
  Q 140.71 22.23 136.92 23.38
  A 2.48 2.42 16.4 0 0 136.09 23.82
  Q 134.28 25.27 131.35 26.85
  Q 125.13 30.19 119.50 33.62
  C 117.42 34.89 114.81 35.88 112.57 37.07
  A 4.69 4.42 8.1 0 0 111.69 37.69
  Q 107.37 41.52 104.68 42.92
  Q 101.26 44.69 85.51 52.03
  A 6.68 6.39 -74.6 0 0 84.32 52.74
  Q 82.86 53.84 79.48 57.22
  C 74.02 62.67 65.70 63.92 59.25 66.24
  C 54.30 68.02 51.53 69.56 50.34 74.37
  Q 47.85 84.48 47.83 94.79
  Q 47.78 122.61 47.79 150.25
  Q 47.79 158.40 48.22 167.93
  C 48.47 173.36 49.57 179.59 50.94 183.96
  A 6.24 6.19 16.3 0 0 52.16 186.17
  Z
  M 170.92 221.92
  Q 176.56 212.23 176.80 201.24
  C 177.14 186.02 176.48 169.18 176.57 150.92
  C 176.69 124.06 176.08 91.43 176.95 61.24
  Q 177.24 50.96 173.76 41.60
  Q 172.69 38.71 170.65 36.69
  A 2.30 1.88 49.7 0 0 168.05 36.21
  Q 167.69 36.45 167.31 37.31
  C 165.33 41.80 162.87 45.78 161.92 50.28
  Q 160.17 58.53 160.18 63.52
  Q 160.24 163.78 160.12 184.73
  Q 160.04 198.35 161.55 205.65
  A 7.48 7.12 -64.2 0 0 162.03 207.15
  Q 164.54 212.96 165.42 216.52
  Q 165.92 218.57 166.38 220.41
  Q 167.23 223.77 170.14 222.59
  A 1.56 1.54 3.9 0 0 170.92 221.92
  Z
  M 203.35 60.18
  Q 201.30 58.81 199.49 60.11
  C 192.68 64.96 192.11 74.17 192.14 81.77
  Q 192.32 124.34 192.13 180.00
  Q 192.12 184.71 193.98 190.17
  A 1.63 1.47 20.2 0 0 194.17 190.53
  L 199.09 197.15
  A 2.62 2.61 -29.6 0 0 202.20 198.00
  Q 207.16 195.92 208.24 190.22
  Q 209.62 182.91 209.45 173.75
  Q 209.07 153.96 209.40 92.74
  C 209.45 83.22 209.00 75.63 207.07 65.98
  Q 206.30 62.14 203.35 60.18
  Z"
/>
<path fill="#ffffff" d="
  M 52.16 186.17
  A 6.24 6.19 16.3 0 1 50.94 183.96
  C 49.57 179.59 48.47 173.36 48.22 167.93
  Q 47.79 158.40 47.79 150.25
  Q 47.78 122.61 47.83 94.79
  Q 47.85 84.48 50.34 74.37
  C 51.53 69.56 54.30 68.02 59.25 66.24
  C 65.70 63.92 74.02 62.67 79.48 57.22
  Q 82.86 53.84 84.32 52.74
  A 6.68 6.39 -74.6 0 1 85.51 52.03
  Q 101.26 44.69 104.68 42.92
  Q 107.37 41.52 111.69 37.69
  A 4.69 4.42 8.1 0 1 112.57 37.07
  C 114.81 35.88 117.42 34.89 119.50 33.62
  Q 125.13 30.19 131.35 26.85
  Q 134.28 25.27 136.09 23.82
  A 2.48 2.42 16.4 0 1 136.92 23.38
  Q 140.71 22.23 142.51 25.68
  A 3.37 3.08 -66.9 0 1 142.80 26.51
  C 145.17 38.62 144.06 50.55 144.07 63.08
  Q 144.11 194.37 144.16 203.50
  Q 144.21 213.10 143.56 225.50
  C 143.40 228.41 142.78 233.43 140.91 235.34
  A 3.04 3.04 0.0 0 1 136.53 235.30
  C 134.39 233.03 133.41 231.90 130.97 230.46
  Q 126.91 228.06 124.58 226.55
  C 119.16 223.03 113.18 220.38 108.73 217.01
  Q 103.94 213.38 102.65 212.87
  C 93.66 209.35 85.21 205.27 77.74 198.82
  C 73.01 194.73 64.94 192.49 58.63 190.43
  C 56.11 189.61 53.74 188.01 52.16 186.17
  Z
  M 72.41 79.57
  C 67.64 79.43 65.73 80.43 65.48 85.50
  Q 64.17 113.01 64.77 146.50
  Q 65.01 159.99 65.10 168.25
  C 65.18 175.75 68.10 178.12 75.59 176.81
  C 80.88 175.89 80.89 170.51 80.52 166.17
  C 80.04 160.61 80.98 154.58 80.97 148.72
  Q 80.93 121.73 80.97 109.48
  Q 80.98 103.17 80.74 98.03
  Q 80.27 87.83 80.16 86.65
  C 79.73 82.21 76.82 79.70 72.41 79.57
  Z"
/>
<path fill="#ffffff" d="
  M 170.14 222.59
  Q 167.23 223.77 166.38 220.41
  Q 165.92 218.57 165.42 216.52
  Q 164.54 212.96 162.03 207.15
  A 7.48 7.12 -64.2 0 1 161.55 205.65
  Q 160.04 198.35 160.12 184.73
  Q 160.24 163.78 160.18 63.52
  Q 160.17 58.53 161.92 50.28
  C 162.87 45.78 165.33 41.80 167.31 37.31
  Q 167.69 36.45 168.05 36.21
  A 2.30 1.88 49.7 0 1 170.65 36.69
  Q 172.69 38.71 173.76 41.60
  Q 177.24 50.96 176.95 61.24
  C 176.08 91.43 176.69 124.06 176.57 150.92
  C 176.48 169.18 177.14 186.02 176.80 201.24
  Q 176.56 212.23 170.92 221.92
  A 1.56 1.54 3.9 0 1 170.14 222.59
  Z"
/>
<path fill="#ffffff" d="
  M 203.35 60.18
  Q 206.30 62.14 207.07 65.98
  C 209.00 75.63 209.45 83.22 209.40 92.74
  Q 209.07 153.96 209.45 173.75
  Q 209.62 182.91 208.24 190.22
  Q 207.16 195.92 202.20 198.00
  A 2.62 2.61 -29.6 0 1 199.09 197.15
  L 194.17 190.53
  A 1.63 1.47 20.2 0 1 193.98 190.17
  Q 192.12 184.71 192.13 180.00
  Q 192.32 124.34 192.14 81.77
  C 192.11 74.17 192.68 64.96 199.49 60.11
  Q 201.30 58.81 203.35 60.18
  Z"
/>
<path fill="#000000" d="
  M 65.48 85.50
  C 65.73 80.43 67.64 79.43 72.41 79.57
  C 76.82 79.70 79.73 82.21 80.16 86.65
  Q 80.27 87.83 80.74 98.03
  Q 80.98 103.17 80.97 109.48
  Q 80.93 121.73 80.97 148.72
  C 80.98 154.58 80.04 160.61 80.52 166.17
  C 80.89 170.51 80.88 175.89 75.59 176.81
  C 68.10 178.12 65.18 175.75 65.10 168.25
  Q 65.01 159.99 64.77 146.50
  Q 64.17 113.01 65.48 85.50
  Z"
/>
</svg>