<?xml version="1.0" encoding="UTF-8" standalone="no"?>
<!DOCTYPE svg PUBLIC "-//W3C//DTD SVG 1.1//EN" "http://www.w3.org/Graphics/SVG/1.1/DTD/svg11.dtd">
<svg xmlns="http://www.w3.org/2000/svg" version="1.1" viewBox="0.00 0.00 180.00 180.00" width="128" height="128">
<path fill="#000000" d="
  M 154.10 25.21
  L 91.11 25.23
  A 0.45 0.44 -67.4 0 1 90.80 24.47
  L 114.63 0.62
  A 0.97 0.95 29.1 0 1 115.54 0.37
  Q 117.56 0.86 121.42 2.58
  Q 139.96 10.83 154.31 24.69
  A 0.30 0.30 0.0 0 1 154.10 25.21
  Z"
/>
<path fill="#000000" d="
  M 24.94 26.17
  L 24.94 88.57
  A 0.57 0.57 0.0 0 0 25.91 88.98
  L 89.00 25.89
  A 0.42 0.41 -67.4 0 0 88.71 25.18
  L 25.53 25.18
  A 0.25 0.25 0.0 0 1 25.36 24.75
  Q 41.71 8.79 64.15 0.59
  A 1.58 1.57 57.5 0 1 65.80 0.96
  L 154.83 89.99
  A 0.08 0.08 0.0 0 1 154.83 90.11
  Q 102.07 142.47 91.03 153.47
  Q 90.48 154.02 90.07 154.07
  Q 89.62 154.13 89.66 154.71
  A 0.45 0.42 -25.0 0 1 89.53 155.04
  L 65.61 178.96
  A 1.49 1.49 0.0 0 1 64.05 179.31
  Q 49.25 173.90 36.45 164.55
  Q 21.74 153.79 11.91 138.60
  Q 4.75 127.53 0.39 115.38
  A 1.45 1.44 -32.5 0 1 0.73 113.87
  L 24.54 90.06
  A 0.35 0.35 0.0 0 0 24.54 89.57
  L 0.68 65.72
  A 1.45 1.45 0.0 0 1 0.34 64.23
  Q 7.60 43.42 24.11 25.84
  A 0.48 0.48 0.0 0 1 24.94 26.17
  Z
  M 87.36 129.67
  C 115.76 131.18 136.73 100.87 125.19 74.68
  C 119.35 61.40 106.17 52.08 91.53 51.30
  C 76.89 50.52 62.79 58.40 55.57 70.98
  C 41.33 95.80 58.96 128.16 87.36 129.67
  Z
  M 88.51 154.72
  A 0.57 0.57 0.0 0 0 88.92 153.75
  L 25.85 90.91
  A 0.57 0.57 0.0 0 0 24.88 91.31
  L 25.00 154.26
  A 0.57 0.57 0.0 0 0 25.57 154.82
  L 88.51 154.72
  Z"
/>
<path fill="#000000" d="
  M 155.03 26.09
  A 0.30 0.30 0.0 0 1 155.55 25.88
  Q 169.32 40.21 177.50 58.69
  Q 179.21 62.54 179.69 64.56
  A 0.97 0.95 61.0 0 1 179.44 65.46
  L 155.63 89.15
  A 0.44 0.44 0.0 0 1 154.87 88.84
  L 155.03 26.09
  Z"
/>
<path fill="#000000" d="
  M 155.12 153.60
  L 154.75 90.74
  A 0.44 0.44 0.0 0 1 155.50 90.43
  L 179.43 114.08
  A 0.97 0.95 -61.2 0 1 179.69 114.98
  Q 179.21 117.00 177.52 120.86
  Q 169.39 139.40 155.64 153.80
  A 0.30 0.30 0.0 0 1 155.12 153.60
  Z"
/>
<path fill="#000000" d="
  M 154.09 154.75
  A 0.30 0.30 0.0 0 1 154.30 155.27
  Q 139.95 169.13 121.42 177.39
  Q 117.56 179.11 115.54 179.60
  A 0.97 0.95 -29.1 0 1 114.63 179.35
  L 90.79 155.51
  A 0.45 0.44 67.4 0 1 91.10 154.75
  L 154.09 154.75
  Z"
/>
</svg>