<?xml version="1.0" encoding="UTF-8" standalone="no"?>
<!DOCTYPE svg PUBLIC "-//W3C//DTD SVG 1.1//EN" "http://www.w3.org/Graphics/SVG/1.1/DTD/svg11.dtd">
<svg xmlns="http://www.w3.org/2000/svg" version="1.1" viewBox="0.00 -0.50 271.00 271.00" width="128" height="128">
<path fill="#1d1c1a" d="
  M 141.19 0.00
  Q 179.38 1.98 211.35 23.06
  A 0.22 0.22 0.0 0 1 211.23 23.46
  L 158.41 23.46
  A 0.64 0.63 67.6 0 1 157.95 23.26
  L 154.79 20.11
  A 0.73 0.72 -22.2 0 0 154.28 19.90
  L 116.66 19.90
  A 0.27 0.27 0.0 0 1 116.45 19.45
  L 119.70 15.68
  A 0.30 0.29 20.3 0 0 119.47 15.19
  L 73.71 15.19
  A 0.15 0.15 0.0 0 1 73.64 14.91
  Q 100.94 1.13 131.49 0.00
  L 141.19 0.00
  Z"
/>
<path fill="#1d1c1a" d="
  M 30.07 50.44
  A 0.09 0.09 0.0 0 1 30.00 50.29
  L 35.75 43.62
  A 0.60 0.58 -69.1 0 1 36.20 43.41
  L 99.04 43.41
  A 1.21 1.20 -74.8 0 0 100.08 42.81
  L 102.17 39.19
  A 0.98 0.97 15.0 0 1 103.01 38.71
  L 167.94 38.71
  A 0.50 0.50 0.0 0 0 168.29 37.86
  L 166.33 35.90
  A 0.42 0.42 0.0 0 1 166.63 35.18
  L 226.31 35.18
  A 1.02 1.00 -23.2 0 1 227.00 35.45
  Q 238.15 45.65 246.95 58.25
  A 0.27 0.27 0.0 0 1 246.73 58.67
  L 180.02 58.67
  A 1.08 1.08 0.0 0 1 179.04 58.05
  L 177.96 55.79
  A 1.13 1.13 0.0 0 0 176.94 55.15
  L 93.97 55.15
  A 0.46 0.46 0.0 0 1 93.57 54.46
  L 95.54 51.04
  A 0.40 0.40 0.0 0 0 95.19 50.44
  L 30.07 50.44
  Z"
/>
<path fill="#1d1c1a" d="
  M 9.63 85.67
  A 0.19 0.19 0.0 0 1 9.46 85.41
  L 12.23 78.87
  A 0.44 0.43 11.1 0 1 12.63 78.61
  L 83.27 78.61
  A 0.50 0.49 -78.0 0 0 83.72 78.31
  L 85.40 74.36
  A 0.70 0.69 -78.5 0 1 86.04 73.93
  L 185.10 73.93
  A 0.39 0.38 -11.1 0 0 185.46 73.40
  L 184.51 71.09
  A 0.49 0.49 0.0 0 1 184.96 70.42
  L 254.06 70.42
  A 0.77 0.76 75.4 0 1 254.73 70.82
  Q 260.57 81.59 264.45 93.44
  A 0.33 0.33 0.0 0 1 264.13 93.87
  Q 224.15 94.05 193.24 93.73
  Q 191.63 93.72 191.38 93.34
  Q 190.90 92.59 190.80 91.36
  A 1.04 1.03 87.9 0 0 189.77 90.40
  L 80.93 90.40
  A 0.63 0.62 -78.4 0 1 80.36 89.53
  L 81.67 86.44
  A 0.55 0.55 0.0 0 0 81.16 85.67
  L 9.63 85.67
  Z"
/>
<path fill="#1d1c1a" d="
  M 75.46 121.41
  A 0.43 0.42 -86.4 0 0 75.04 120.93
  L 0.94 120.93
  A 0.21 0.20 -86.3 0 1 0.74 120.69
  L 1.61 114.12
  A 0.30 0.29 -85.4 0 1 1.90 113.87
  L 75.68 113.87
  A 0.42 0.41 4.0 0 0 76.09 113.52
  L 76.57 109.92
  A 0.85 0.85 0.0 0 1 77.41 109.17
  L 193.71 109.17
  A 0.35 0.34 0.0 0 0 194.06 108.83
  L 194.06 106.14
  A 0.47 0.47 0.0 0 1 194.53 105.67
  L 267.36 105.67
  A 0.41 0.41 0.0 0 1 267.76 105.99
  Q 270.24 116.80 270.69 128.47
  A 0.66 0.66 0.0 0 1 270.03 129.15
  L 196.72 129.15
  A 0.75 0.75 0.0 0 1 195.97 128.40
  L 195.97 126.28
  A 0.67 0.66 -90.0 0 0 195.31 125.61
  L 75.42 125.61
  A 0.46 0.45 -86.1 0 1 74.97 125.09
  L 75.46 121.41
  Z"
/>
<path fill="#1d1c1a" d="
  M 75.48 148.60
  L 74.99 144.92
  A 0.46 0.45 86.1 0 1 75.44 144.40
  L 195.41 144.42
  A 0.67 0.66 -90.0 0 0 196.07 143.75
  L 196.07 141.63
  A 0.75 0.75 0.0 0 1 196.83 140.88
  L 270.19 140.89
  A 0.66 0.66 0.0 0 1 270.85 141.57
  Q 270.39 153.25 267.91 164.06
  A 0.41 0.41 0.0 0 1 267.51 164.38
  L 194.63 164.37
  A 0.47 0.47 0.0 0 1 194.16 163.90
  L 194.16 161.21
  A 0.35 0.34 0.0 0 0 193.81 160.87
  L 77.43 160.85
  A 0.85 0.85 0.0 0 1 76.59 160.10
  L 76.11 156.50
  A 0.42 0.41 -4.0 0 0 75.70 156.15
  L 1.87 156.13
  A 0.30 0.29 85.4 0 1 1.58 155.88
  L 0.71 149.31
  A 0.21 0.20 86.3 0 1 0.91 149.07
  L 75.06 149.08
  A 0.43 0.42 86.4 0 0 75.48 148.60
  Z"
/>
<path fill="#1d1c1a" d="
  M 9.61 184.34
  L 81.15 184.34
  A 0.55 0.55 0.0 0 0 81.66 183.57
  L 80.35 180.48
  A 0.63 0.62 78.4 0 1 80.92 179.61
  L 189.77 179.62
  A 1.04 1.03 -87.9 0 0 190.80 178.66
  Q 190.90 177.43 191.38 176.68
  Q 191.63 176.30 193.25 176.29
  Q 224.16 175.98 264.14 176.16
  A 0.33 0.33 0.0 0 1 264.46 176.59
  Q 260.58 188.44 254.74 199.21
  A 0.77 0.76 -75.4 0 1 254.07 199.61
  L 184.96 199.61
  A 0.49 0.49 0.0 0 1 184.51 198.94
  L 185.46 196.63
  A 0.39 0.38 11.1 0 0 185.10 196.10
  L 86.03 196.09
  A 0.70 0.69 78.5 0 1 85.39 195.66
  L 83.71 191.71
  A 0.50 0.49 78.0 0 0 83.26 191.41
  L 12.61 191.40
  A 0.44 0.43 -11.1 0 1 12.21 191.14
  L 9.44 184.60
  A 0.19 0.19 0.0 0 1 9.61 184.34
  Z"
/>
<path fill="#1d1c1a" d="
  M 30.07 219.59
  L 95.19 219.59
  A 0.40 0.40 0.0 0 0 95.54 218.99
  L 93.57 215.57
  A 0.46 0.46 0.0 0 1 93.97 214.88
  L 176.94 214.88
  A 1.13 1.13 0.0 0 0 177.96 214.24
  L 179.04 211.98
  A 1.08 1.08 0.0 0 1 180.02 211.36
  L 246.74 211.36
  A 0.27 0.27 0.0 0 1 246.96 211.78
  Q 238.16 224.38 227.01 234.58
  A 1.02 1.00 23.2 0 1 226.32 234.85
  L 166.63 234.85
  A 0.42 0.42 0.0 0 1 166.33 234.13
  L 168.29 232.17
  A 0.50 0.50 0.0 0 0 167.94 231.32
  L 103.01 231.32
  A 0.98 0.97 -15.0 0 1 102.17 230.84
  L 100.08 227.22
  A 1.21 1.20 74.8 0 0 99.04 226.62
  L 36.20 226.62
  A 0.60 0.58 69.1 0 1 35.75 226.41
  L 30.00 219.74
  A 0.09 0.09 0.0 0 1 30.07 219.59
  Z"
/>
<path fill="#1d1c1a" d="
  M 141.07 270.00
  L 131.56 270.00
  Q 101.10 268.90 73.62 255.08
  A 0.14 0.14 0.0 0 1 73.68 254.81
  L 119.48 254.81
  A 0.39 0.39 0.0 0 0 119.76 254.14
  L 116.36 250.73
  A 0.37 0.37 0.0 0 1 116.62 250.10
  L 154.27 250.10
  A 1.21 1.19 -69.1 0 0 155.17 249.69
  L 157.54 246.94
  A 1.12 1.10 19.7 0 1 158.39 246.55
  L 211.17 246.55
  A 0.23 0.23 0.0 0 1 211.30 246.97
  Q 179.33 268.06 141.07 270.00
  Z"
/>
</svg>