<?xml version="1.0" encoding="UTF-8" standalone="no"?>
<!DOCTYPE svg PUBLIC "-//W3C//DTD SVG 1.1//EN" "http://www.w3.org/Graphics/SVG/1.1/DTD/svg11.dtd">
<svg xmlns="http://www.w3.org/2000/svg" version="1.1" viewBox="0.00 0.00 192.00 192.00" width="128" height="128">
<path fill="#ff521d" d="
  M 30.84 141.06
  A 0.28 0.28 0.0 0 1 30.32 140.93
  Q 30.33 109.03 30.27 73.01
  Q 30.26 62.93 31.66 58.34
  C 35.06 47.20 43.22 38.44 53.36 32.34
  Q 58.54 29.23 68.35 25.81
  Q 74.13 23.79 127.85 3.98
  Q 138.32 0.12 142.25 0.06
  C 149.45 -0.07 157.74 3.20 160.69 10.43
  Q 161.42 12.23 161.31 17.66
  Q 161.28 19.46 161.34 59.27
  Q 161.35 70.37 154.53 78.28
  Q 147.68 86.23 137.70 89.94
  Q 128.77 93.26 59.14 118.65
  C 48.26 122.62 36.43 130.81 30.84 141.06
  Z"
/>
<path fill="#ff521d" d="
  M 118.63 125.16
  Q 118.59 139.58 118.67 179.88
  Q 118.68 185.31 117.39 187.35
  C 114.70 191.59 109.72 192.71 104.97 190.82
  Q 99.60 188.68 66.62 175.66
  Q 63.87 174.58 60.27 171.47
  C 52.39 164.68 51.87 153.24 59.55 146.02
  Q 63.43 142.38 68.45 140.72
  Q 82.43 136.12 118.05 124.74
  A 0.44 0.44 0.0 0 1 118.63 125.16
  Z"
/>
</svg>