<?xml version="1.0" encoding="UTF-8" standalone="no"?>
<!DOCTYPE svg PUBLIC "-//W3C//DTD SVG 1.1//EN" "http://www.w3.org/Graphics/SVG/1.1/DTD/svg11.dtd">
<svg xmlns="http://www.w3.org/2000/svg" version="1.1" viewBox="-0.00 -0.00 196.00 196.00" width="128" height="128">
<g stroke-width="2.00" fill="none" stroke-linecap="butt">
<path stroke="#4790db" vector-effect="non-scaling-stroke" d="
  M 57.10 0.00
  L 55.28 50.93"
/>
<path stroke="#a0c9ec" vector-effect="non-scaling-stroke" d="
  M 55.28 50.93
  C 40.29 60.08 34.37 78.99 43.49 94.37
  Q 45.53 97.81 51.24 103.52
  Q 55.55 107.83 59.73 112.02"
/>
<path stroke="#4790db" vector-effect="non-scaling-stroke" d="
  M 59.73 112.02
  Q 56.76 154.19 59.87 196.00"
/>
<path stroke="#3c94d8" vector-effect="non-scaling-stroke" d="
  M 27.77 186.51
  Q 28.14 141.07 28.10 65.50
  Q 28.09 28.14 27.30 0.19"
/>
<path stroke="#528ddd" vector-effect="non-scaling-stroke" d="
  M 84.24 0.00
  L 83.90 49.57"
/>
<path stroke="#a6c7ee" vector-effect="non-scaling-stroke" d="
  M 83.90 49.57
  Q 69.19 43.47 55.28 50.93"
/>
<path stroke="#5d8adf" vector-effect="non-scaling-stroke" d="
  M 111.88 0.00
  L 112.02 49.08"
/>
<path stroke="#85a7e7" vector-effect="non-scaling-stroke" d="
  M 112.02 49.08
  C 106.42 52.01 103.01 55.78 97.92 60.87"
/>
<path stroke="#abc5ef" vector-effect="non-scaling-stroke" d="
  M 97.92 60.87
  C 93.67 56.07 89.54 52.25 83.90 49.57"
/>
<path stroke="#6986e2" vector-effect="non-scaling-stroke" d="
  M 155.03 0.00
  Q 155.46 30.80 153.59 61.52"
/>
<path stroke="#8aa6e8" vector-effect="non-scaling-stroke" d="
  M 153.59 61.52
  C 144.80 46.92 127.47 41.87 112.02 49.08"
/>
<path stroke="#7483e4" vector-effect="non-scaling-stroke" d="
  M 174.66 0.00
  C 172.50 23.84 172.53 42.39 172.66 69.24
  Q 172.88 115.42 172.75 161.60
  Q 172.70 177.96 176.30 194.16"
/>
<path stroke="#6986e2" vector-effect="non-scaling-stroke" d="
  M 140.08 196.00
  C 140.29 166.13 140.61 138.68 138.18 110.19"
/>
<path stroke="#b7c2f1" vector-effect="non-scaling-stroke" d="
  M 138.18 110.19
  L 142.60 105.62"
/>
<path stroke="#91a4ea" vector-effect="non-scaling-stroke" d="
  M 142.60 105.62
  Q 149.62 99.35 152.25 95.25
  Q 162.71 78.90 153.59 61.52"
/>
<path stroke="#d9e1f8" vector-effect="non-scaling-stroke" d="
  M 142.60 105.62
  L 97.92 60.87"
/>
<path stroke="#b1c4f0" vector-effect="non-scaling-stroke" d="
  M 138.18 110.19
  L 108.44 139.83"
/>
<path stroke="#abc5ef" vector-effect="non-scaling-stroke" d="
  M 108.44 139.83
  L 98.25 149.87
  A 0.52 0.51 45.4 0 1 97.53 149.86
  L 89.87 142.21"
/>
<path stroke="#a6c7ee" vector-effect="non-scaling-stroke" d="
  M 89.87 142.21
  L 59.73 112.02"
/>
<path stroke="#a6c7ee" vector-effect="non-scaling-stroke" d="
  M 75.6071 64.5504
  A 3.83 3.83 0.0 0 0 71.7704 60.7271
  L 56.9904 60.7529
  A 3.83 3.83 0.0 0 0 53.1671 64.5896
  L 53.1929 79.3696
  A 3.83 3.83 0.0 0 0 57.0296 83.1929
  L 71.8096 83.1671
  A 3.83 3.83 0.0 0 0 75.6329 79.3304
  L 75.6071 64.5504"
/>
<path stroke="#5d8adf" vector-effect="non-scaling-stroke" d="
  M 112.17 196.00
  C 109.24 177.25 109.20 162.11 108.44 139.83"
/>
<path stroke="#528ddd" vector-effect="non-scaling-stroke" d="
  M 89.87 142.21
  Q 87.82 169.25 91.96 196.00"
/>
</g>
<path fill="#4192d9" d="
  M 57.10 0.00
  L 55.28 50.93
  C 40.29 60.08 34.37 78.99 43.49 94.37
  Q 45.53 97.81 51.24 103.52
  Q 55.55 107.83 59.73 112.02
  Q 56.76 154.19 59.87 196.00
  L 56.60 196.00
  Q 40.75 194.69 27.77 186.51
  Q 28.14 141.07 28.10 65.50
  Q 28.09 28.14 27.30 0.19
  Q 27.61 0.22 27.64 0.00
  L 57.10 0.00
  Z"
/>
<path fill="#4d8edc" d="
  M 84.24 0.00
  L 83.90 49.57
  Q 69.19 43.47 55.28 50.93
  L 57.10 0.00
  L 84.24 0.00
  Z"
/>
<path fill="#578bde" d="
  M 111.88 0.00
  L 112.02 49.08
  C 106.42 52.01 103.01 55.78 97.92 60.87
  C 93.67 56.07 89.54 52.25 83.90 49.57
  L 84.24 0.00
  L 111.88 0.00
  Z"
/>
<path fill="#6288e0" d="
  M 155.03 0.00
  Q 155.46 30.80 153.59 61.52
  C 144.80 46.92 127.47 41.87 112.02 49.08
  L 111.88 0.00
  L 155.03 0.00
  Z"
/>
<path fill="#6f84e3" d="
  M 174.66 0.00
  C 172.50 23.84 172.53 42.39 172.66 69.24
  Q 172.88 115.42 172.75 161.60
  Q 172.70 177.96 176.30 194.16
  L 168.34 196.00
  L 140.08 196.00
  C 140.29 166.13 140.61 138.68 138.18 110.19
  L 142.60 105.62
  Q 149.62 99.35 152.25 95.25
  Q 162.71 78.90 153.59 61.52
  Q 155.46 30.80 155.03 0.00
  L 174.66 0.00
  Z"
/>
<path fill="#7981e5" d="
  M 196.00 0.00
  L 196.00 168.29
  Q 193.52 186.98 176.30 194.16
  Q 172.70 177.96 172.75 161.60
  Q 172.88 115.42 172.66 69.24
  C 172.53 42.39 172.50 23.84 174.66 0.00
  L 196.00 0.00
  Z"
/>
<path fill="#3795d7" d="
  M 27.30 0.19
  Q 28.09 28.14 28.10 65.50
  Q 28.14 141.07 27.77 186.51
  Q 2.80 169.70 0.00 139.52
  L 0.00 27.67
  Q 1.82 12.61 14.14 4.64
  Q 19.98 0.87 27.30 0.19
  Z"
/>
<path fill="#b2c3f0" d="
  M 153.59 61.52
  Q 162.71 78.90 152.25 95.25
  Q 149.62 99.35 142.60 105.62
  L 97.92 60.87
  C 103.01 55.78 106.42 52.01 112.02 49.08
  C 127.47 41.87 144.80 46.92 153.59 61.52
  Z"
/>
<path fill="#ffffff" d="
  M 83.90 49.57
  C 89.54 52.25 93.67 56.07 97.92 60.87
  L 142.60 105.62
  L 138.18 110.19
  L 108.44 139.83
  L 98.25 149.87
  A 0.52 0.51 45.4 0 1 97.53 149.86
  L 89.87 142.21
  L 59.73 112.02
  Q 55.55 107.83 51.24 103.52
  Q 45.53 97.81 43.49 94.37
  C 34.37 78.99 40.29 60.08 55.28 50.93
  Q 69.19 43.47 83.90 49.57
  Z
  M 75.6071 64.5504
  A 3.83 3.83 0.0 0 0 71.7704 60.7271
  L 56.9904 60.7529
  A 3.83 3.83 0.0 0 0 53.1671 64.5896
  L 53.1929 79.3696
  A 3.83 3.83 0.0 0 0 57.0296 83.1929
  L 71.8096 83.1671
  A 3.83 3.83 0.0 0 0 75.6329 79.3304
  L 75.6071 64.5504
  Z"
/>
<rect fill="#4d8edc" x="-11.22" y="-11.22" transform="translate(64.40,71.96) rotate(-0.1)" width="22.44" height="22.44" rx="3.83"/>
<path fill="#6288e0" d="
  M 140.08 196.00
  L 112.17 196.00
  C 109.24 177.25 109.20 162.11 108.44 139.83
  L 138.18 110.19
  C 140.61 138.68 140.29 166.13 140.08 196.00
  Z"
/>
<path fill="#4d8edc" d="
  M 59.73 112.02
  L 89.87 142.21
  Q 87.82 169.25 91.96 196.00
  L 59.87 196.00
  Q 56.76 154.19 59.73 112.02
  Z"
/>
<path fill="#578bde" d="
  M 108.44 139.83
  C 109.20 162.11 109.24 177.25 112.17 196.00
  L 91.96 196.00
  Q 87.82 169.25 89.87 142.21
  L 97.53 149.86
  A 0.52 0.51 45.4 0 0 98.25 149.87
  L 108.44 139.83
  Z"
/>
</svg>