<?xml version="1.0" encoding="UTF-8" standalone="no"?>
<!DOCTYPE svg PUBLIC "-//W3C//DTD SVG 1.1//EN" "http://www.w3.org/Graphics/SVG/1.1/DTD/svg11.dtd">
<svg xmlns="http://www.w3.org/2000/svg" version="1.1" viewBox="0.00 0.00 180.00 180.00" width="128" height="128">
<g stroke-width="2.00" fill="none" stroke-linecap="butt">
<path stroke="#33618f" vector-effect="non-scaling-stroke" d="
  M 71.53 0.00
  Q 60.27 6.77 51.62 16.29
  Q 48.54 19.68 36.12 36.87
  C 24.47 52.98 13.63 69.35 0.00 84.45"
/>
<path stroke="#376b94" vector-effect="non-scaling-stroke" d="
  M 131.40 0.00
  Q 115.56 12.66 101.54 27.14"
/>
<path stroke="#9ab2c8" vector-effect="non-scaling-stroke" d="
  M 101.54 27.14
  Q 79.92 21.29 64.14 35.53
  C 61.18 38.20 59.04 41.54 56.93 44.65
  A 0.56 0.56 0.0 0 1 56.21 44.83
  C 46.03 39.53 34.86 41.90 28.11 50.38
  Q 15.22 66.57 20.75 88.06
  C 22.96 96.64 28.88 105.31 37.29 108.86
  A 0.60 0.59 -72.5 0 1 37.64 109.54
  L 36.92 112.96"
/>
<path stroke="#376b94" vector-effect="non-scaling-stroke" d="
  M 36.92 112.96
  Q 31.05 120.95 28.08 125.99
  C 19.83 140.01 14.01 149.65 4.72 161.32"
/>
<path stroke="#3c759b" vector-effect="non-scaling-stroke" d="
  M 162.74 5.60
  L 116.95 36.68"
/>
<path stroke="#9cb8cb" vector-effect="non-scaling-stroke" d="
  M 116.95 36.68
  Q 110.23 30.09 101.54 27.14"
/>
<path stroke="#417ea3" vector-effect="non-scaling-stroke" d="
  M 176.37 20.85
  Q 158.25 30.60 142.02 42.97"
/>
<path stroke="#9fbdcf" vector-effect="non-scaling-stroke" d="
  M 142.02 42.97
  Q 132.40 39.61 123.51 44.51
  A 0.57 0.57 0.0 0 1 122.79 44.36
  L 116.95 36.68"
/>
<path stroke="#478bab" vector-effect="non-scaling-stroke" d="
  M 180.00 41.19
  L 155.17 54.89"
/>
<path stroke="#a1c1d3" vector-effect="non-scaling-stroke" d="
  M 155.17 54.89
  Q 150.51 46.73 142.02 42.97"
/>
<path stroke="#a5c9d7" vector-effect="non-scaling-stroke" d="
  M 155.17 54.89
  Q 162.04 66.61 160.55 80.56"
/>
<path stroke="#a7cfdb" vector-effect="non-scaling-stroke" d="
  M 160.55 80.56
  C 159.55 91.79 153.57 103.77 142.81 108.53
  A 0.55 0.55 0.0 0 0 142.50 109.18
  C 145.39 119.45 141.55 130.26 134.06 137.82
  Q 128.21 143.74 121.52 147.31"
/>
<path stroke="#a5c9d7" vector-effect="non-scaling-stroke" d="
  M 121.52 147.31
  Q 106.21 154.78 90.01 154.64"
/>
<path stroke="#a1c1d3" vector-effect="non-scaling-stroke" d="
  M 90.01 154.64
  Q 76.89 154.70 64.72 150.06"
/>
<path stroke="#9fbdcf" vector-effect="non-scaling-stroke" d="
  M 64.72 150.06
  Q 54.84 146.29 47.35 139.27"
/>
<path stroke="#9cb8cb" vector-effect="non-scaling-stroke" d="
  M 47.35 139.27
  C 39.97 132.32 35.88 123.08 36.92 112.96"
/>
<path stroke="#9ab2c8" vector-effect="non-scaling-stroke" d="
  M 81.99 45.72
  C 77.66 42.69 71.88 42.27 67.56 45.40
  C 61.59 49.74 60.16 60.42 60.61 67.05"
/>
<path stroke="#9cb8cb" vector-effect="non-scaling-stroke" d="
  M 60.61 67.05
  Q 60.55 78.16 60.57 89.32
  C 60.57 91.95 59.77 93.82 58.02 95.29
  C 51.07 101.08 44.61 107.28 45.11 117.23
  Q 45.44 123.75 49.64 129.20"
/>
<path stroke="#9fbdcf" vector-effect="non-scaling-stroke" d="
  M 49.64 129.20
  Q 55.86 136.98 65.37 140.86"
/>
<path stroke="#a1c1d3" vector-effect="non-scaling-stroke" d="
  M 65.37 140.86
  Q 75.00 145.06 86.07 145.57"
/>
<path stroke="#a3c5d5" vector-effect="non-scaling-stroke" d="
  M 86.07 145.57
  Q 95.15 146.18 104.30 144.14"
/>
<path stroke="#a5c9d7" vector-effect="non-scaling-stroke" d="
  M 104.30 144.14
  C 115.79 141.72 129.63 134.50 133.90 123.14
  C 136.86 115.28 134.08 107.17 128.58 101.33"
/>
<path stroke="#a3c5d5" vector-effect="non-scaling-stroke" d="
  M 128.58 101.33
  Q 125.58 98.18 122.30 95.69
  C 118.46 92.78 119.41 89.20 119.38 85.21"
/>
<path stroke="#a1c1d3" vector-effect="non-scaling-stroke" d="
  M 119.38 85.21
  L 119.21 59.94"
/>
<path stroke="#9fbdcf" vector-effect="non-scaling-stroke" d="
  M 119.21 59.94
  Q 118.12 52.11 113.88 46.07"
/>
<path stroke="#9cb8cb" vector-effect="non-scaling-stroke" d="
  M 113.88 46.07
  Q 110.95 43.21 107.07 42.95
  Q 99.66 42.45 95.16 47.89
  C 93.83 49.51 93.52 51.96 91.53 52.96
  Q 89.22 54.11 86.97 52.63
  Q 86.43 52.28 84.76 49.13
  Q 83.74 47.20 81.99 45.72"
/>
<path stroke="#3c759b" vector-effect="non-scaling-stroke" d="
  M 113.88 46.07
  Q 95.07 62.48 79.78 81.63"
/>
<path stroke="#9cb8cb" vector-effect="non-scaling-stroke" d="
  M 79.78 81.63
  Q 75.57 79.65 72.89 83.12
  Q 71.35 85.11 72.15 87.31"
/>
<path stroke="#3c759b" vector-effect="non-scaling-stroke" d="
  M 72.15 87.31
  Q 62.35 108.81 49.64 129.20"
/>
<path stroke="#376b94" vector-effect="non-scaling-stroke" d="
  M 60.61 67.05
  L 60.72 68.10
  A 0.33 0.33 0.0 0 0 61.25 68.33
  C 69.73 62.05 75.89 54.86 81.99 45.72"
/>
<path stroke="#417ea3" vector-effect="non-scaling-stroke" d="
  M 119.21 59.94
  Q 108.63 70.35 99.18 81.63
  A 1.14 1.11 61.5 0 0 98.93 82.51
  L 99.12 83.77"
/>
<path stroke="#9fbdcf" vector-effect="non-scaling-stroke" d="
  M 99.12 83.77
  Q 99.11 83.91 99.11 84.05"
/>
<path stroke="#417ea3" vector-effect="non-scaling-stroke" d="
  M 99.11 84.05
  Q 77.88 109.95 65.37 140.86"
/>
<path stroke="#9fbdcf" vector-effect="non-scaling-stroke" d="
  M 72.15 87.31
  Q 73.37 87.09 74.58 86.64
  C 77.07 85.71 79.03 86.16 81.24 87.29
  A 0.71 0.71 0.0 0 0 82.27 86.65
  Q 82.22 83.21 79.78 81.63"
/>
<path stroke="#4587a9" vector-effect="non-scaling-stroke" d="
  M 119.38 85.21
  L 119.13 87.04
  A 1.27 1.20 70.0 0 1 118.87 87.64
  Q 97.44 113.76 86.07 145.57"
/>
<path stroke="#a1c1d3" vector-effect="non-scaling-stroke" d="
  M 99.11 84.05
  Q 98.33 85.37 98.72 86.82
  A 0.65 0.64 -17.1 0 0 99.56 87.26
  L 102.36 86.27
  A 3.85 3.85 0.0 0 1 103.70 86.05
  Q 105.40 86.06 107.67 87.20
  A 1.06 1.06 0.0 0 0 109.14 85.90
  L 108.34 83.64
  A 3.64 3.63 0.8 0 0 106.22 81.47
  Q 101.62 79.69 99.12 83.77"
/>
<path stroke="#498fad" vector-effect="non-scaling-stroke" d="
  M 128.58 101.33
  C 122.85 108.03 116.00 114.95 111.33 121.36
  Q 104.76 130.36 99.62 139.91
  A 0.56 0.56 0.0 0 0 99.83 140.65
  L 99.86 140.67
  A 0.52 0.51 -61.1 0 0 100.58 140.46
  C 105.91 129.85 113.22 118.84 122.03 110.49
  A 0.08 0.08 0.0 0 1 122.16 110.59
  Q 112.53 126.97 104.30 144.14"
/>
<path stroke="#9ab2c8" vector-effect="non-scaling-stroke" d="
  M 41.17 100.55
  Q 45.29 93.99 51.54 89.50
  A 1.23 1.22 -18.4 0 0 52.05 88.49
  Q 51.92 72.68 51.93 63.43
  Q 51.93 58.28 53.12 53.96
  A 0.92 0.91 24.9 0 0 52.75 52.95
  C 45.58 48.06 37.94 50.67 33.22 57.33
  C 24.45 69.71 25.36 92.82 40.43 100.75
  A 0.57 0.57 0.0 0 0 41.17 100.55"
/>
<path stroke="#a3c5d5" vector-effect="non-scaling-stroke" d="
  M 138.73 100.48
  A 0.57 0.57 0.0 0 0 139.48 100.67
  C 154.55 92.51 155.18 69.24 146.20 56.89
  C 141.37 50.24 133.65 47.71 126.50 52.72
  A 0.92 0.92 0.0 0 0 126.14 53.74
  Q 127.39 58.07 127.45 63.25
  Q 127.57 72.56 127.63 88.47
  A 1.24 1.23 17.7 0 0 128.16 89.48
  Q 134.50 93.93 138.73 100.48"
/>
<path stroke="#4d99b3" vector-effect="non-scaling-stroke" d="
  M 180.00 73.39
  L 160.55 80.56"
/>
<path stroke="#52a2b9" vector-effect="non-scaling-stroke" d="
  M 180.00 100.17
  Q 160.72 106.88 145.05 119.88
  A 0.35 0.35 0.0 0 0 145.01 120.38
  L 145.02 120.39
  A 0.38 0.38 0.0 0 0 145.56 120.43
  Q 152.77 114.14 162.35 108.98
  A 0.11 0.10 -85.0 0 1 162.48 109.14
  Q 154.23 120.81 148.28 130.95
  C 139.69 145.58 136.41 163.02 134.14 180.00"
/>
<path stroke="#4d99b3" vector-effect="non-scaling-stroke" d="
  M 109.83 180.00
  C 109.61 178.43 110.49 176.96 110.75 175.74
  Q 110.99 174.63 111.32 173.55
  Q 115.33 160.39 121.52 147.31"
/>
<path stroke="#3c759b" vector-effect="non-scaling-stroke" d="
  M 47.35 139.27
  Q 39.25 159.08 35.11 180.00"
/>
<path stroke="#417ea3" vector-effect="non-scaling-stroke" d="
  M 64.72 150.06
  L 56.25 180.00"
/>
<path stroke="#478bab" vector-effect="non-scaling-stroke" d="
  M 86.11 180.00
  L 90.01 154.64"
/>
</g>
<path fill="#315c8c" d="
  M 71.53 0.00
  Q 60.27 6.77 51.62 16.29
  Q 48.54 19.68 36.12 36.87
  C 24.47 52.98 13.63 69.35 0.00 84.45
  L 0.00 34.26
  C 1.77 15.46 15.37 2.05 34.17 0.00
  L 71.53 0.00
  Z"
/>
<path fill="#356591" d="
  M 131.40 0.00
  Q 115.56 12.66 101.54 27.14
  Q 79.92 21.29 64.14 35.53
  C 61.18 38.20 59.04 41.54 56.93 44.65
  A 0.56 0.56 0.0 0 1 56.21 44.83
  C 46.03 39.53 34.86 41.90 28.11 50.38
  Q 15.22 66.57 20.75 88.06
  C 22.96 96.64 28.88 105.31 37.29 108.86
  A 0.60 0.59 -72.5 0 1 37.64 109.54
  L 36.92 112.96
  Q 31.05 120.95 28.08 125.99
  C 19.83 140.01 14.01 149.65 4.72 161.32
  Q 0.83 154.13 0.00 145.84
  L 0.00 84.45
  C 13.63 69.35 24.47 52.98 36.12 36.87
  Q 48.54 19.68 51.62 16.29
  Q 60.27 6.77 71.53 0.00
  L 131.40 0.00
  Z"
/>
<path fill="#397097" d="
  M 145.77 0.00
  Q 155.08 0.87 162.74 5.60
  L 116.95 36.68
  Q 110.23 30.09 101.54 27.14
  Q 115.56 12.66 131.40 0.00
  L 145.77 0.00
  Z"
/>
<path fill="#3e7a9f" d="
  M 162.74 5.60
  Q 171.73 11.33 176.37 20.85
  Q 158.25 30.60 142.02 42.97
  Q 132.40 39.61 123.51 44.51
  A 0.57 0.57 0.0 0 1 122.79 44.36
  L 116.95 36.68
  L 162.74 5.60
  Z"
/>
<path fill="#4382a6" d="
  M 176.37 20.85
  Q 179.30 27.06 180.00 34.17
  L 180.00 41.19
  L 155.17 54.89
  Q 150.51 46.73 142.02 42.97
  Q 158.25 30.60 176.37 20.85
  Z"
/>
<path fill="#ffffff" d="
  M 101.54 27.14
  Q 110.23 30.09 116.95 36.68
  L 122.79 44.36
  A 0.57 0.57 0.0 0 0 123.51 44.51
  Q 132.40 39.61 142.02 42.97
  Q 150.51 46.73 155.17 54.89
  Q 162.04 66.61 160.55 80.56
  C 159.55 91.79 153.57 103.77 142.81 108.53
  A 0.55 0.55 0.0 0 0 142.50 109.18
  C 145.39 119.45 141.55 130.26 134.06 137.82
  Q 128.21 143.74 121.52 147.31
  Q 106.21 154.78 90.01 154.64
  Q 76.89 154.70 64.72 150.06
  Q 54.84 146.29 47.35 139.27
  C 39.97 132.32 35.88 123.08 36.92 112.96
  L 37.64 109.54
  A 0.60 0.59 -72.5 0 0 37.29 108.86
  C 28.88 105.31 22.96 96.64 20.75 88.06
  Q 15.22 66.57 28.11 50.38
  C 34.86 41.90 46.03 39.53 56.21 44.83
  A 0.56 0.56 0.0 0 0 56.93 44.65
  C 59.04 41.54 61.18 38.20 64.14 35.53
  Q 79.92 21.29 101.54 27.14
  Z
  M 81.99 45.72
  C 77.66 42.69 71.88 42.27 67.56 45.40
  C 61.59 49.74 60.16 60.42 60.61 67.05
  Q 60.55 78.16 60.57 89.32
  C 60.57 91.95 59.77 93.82 58.02 95.29
  C 51.07 101.08 44.61 107.28 45.11 117.23
  Q 45.44 123.75 49.64 129.20
  Q 55.86 136.98 65.37 140.86
  Q 75.00 145.06 86.07 145.57
  Q 95.15 146.18 104.30 144.14
  C 115.79 141.72 129.63 134.50 133.90 123.14
  C 136.86 115.28 134.08 107.17 128.58 101.33
  Q 125.58 98.18 122.30 95.69
  C 118.46 92.78 119.41 89.20 119.38 85.21
  L 119.21 59.94
  Q 118.12 52.11 113.88 46.07
  Q 110.95 43.21 107.07 42.95
  Q 99.66 42.45 95.16 47.89
  C 93.83 49.51 93.52 51.96 91.53 52.96
  Q 89.22 54.11 86.97 52.63
  Q 86.43 52.28 84.76 49.13
  Q 83.74 47.20 81.99 45.72
  Z
  M 41.17 100.55
  Q 45.29 93.99 51.54 89.50
  A 1.23 1.22 -18.4 0 0 52.05 88.49
  Q 51.92 72.68 51.93 63.43
  Q 51.93 58.28 53.12 53.96
  A 0.92 0.91 24.9 0 0 52.75 52.95
  C 45.58 48.06 37.94 50.67 33.22 57.33
  C 24.45 69.71 25.36 92.82 40.43 100.75
  A 0.57 0.57 0.0 0 0 41.17 100.55
  Z
  M 138.73 100.48
  A 0.57 0.57 0.0 0 0 139.48 100.67
  C 154.55 92.51 155.18 69.24 146.20 56.89
  C 141.37 50.24 133.65 47.71 126.50 52.72
  A 0.92 0.92 0.0 0 0 126.14 53.74
  Q 127.39 58.07 127.45 63.25
  Q 127.57 72.56 127.63 88.47
  A 1.24 1.23 17.7 0 0 128.16 89.48
  Q 134.50 93.93 138.73 100.48
  Z"
/>
<path fill="#4a93af" d="
  M 180.00 41.19
  L 180.00 73.39
  L 160.55 80.56
  Q 162.04 66.61 155.17 54.89
  L 180.00 41.19
  Z"
/>
<path fill="#397097" d="
  M 113.88 46.07
  Q 95.07 62.48 79.78 81.63
  Q 75.57 79.65 72.89 83.12
  Q 71.35 85.11 72.15 87.31
  Q 62.35 108.81 49.64 129.20
  Q 45.44 123.75 45.11 117.23
  C 44.61 107.28 51.07 101.08 58.02 95.29
  C 59.77 93.82 60.57 91.95 60.57 89.32
  Q 60.55 78.16 60.61 67.05
  L 60.72 68.10
  A 0.33 0.33 0.0 0 0 61.25 68.33
  C 69.73 62.05 75.89 54.86 81.99 45.72
  Q 83.74 47.20 84.76 49.13
  Q 86.43 52.28 86.97 52.63
  Q 89.22 54.11 91.53 52.96
  C 93.52 51.96 93.83 49.51 95.16 47.89
  Q 99.66 42.45 107.07 42.95
  Q 110.95 43.21 113.88 46.07
  Z"
/>
<path fill="#356591" d="
  M 81.99 45.72
  C 75.89 54.86 69.73 62.05 61.25 68.33
  A 0.33 0.33 0.0 0 1 60.72 68.10
  L 60.61 67.05
  C 60.16 60.42 61.59 49.74 67.56 45.40
  C 71.88 42.27 77.66 42.69 81.99 45.72
  Z"
/>
<path fill="#3e7a9f" d="
  M 113.88 46.07
  Q 118.12 52.11 119.21 59.94
  Q 108.63 70.35 99.18 81.63
  A 1.14 1.11 61.5 0 0 98.93 82.51
  L 99.12 83.77
  Q 99.11 83.91 99.11 84.05
  Q 77.88 109.95 65.37 140.86
  Q 55.86 136.98 49.64 129.20
  Q 62.35 108.81 72.15 87.31
  Q 73.37 87.09 74.58 86.64
  C 77.07 85.71 79.03 86.16 81.24 87.29
  A 0.71 0.71 0.0 0 0 82.27 86.65
  Q 82.22 83.21 79.78 81.63
  Q 95.07 62.48 113.88 46.07
  Z"
/>
<path fill="#356591" d="
  M 41.17 100.55
  A 0.57 0.57 0.0 0 1 40.43 100.75
  C 25.36 92.82 24.45 69.71 33.22 57.33
  C 37.94 50.67 45.58 48.06 52.75 52.95
  A 0.92 0.91 24.9 0 1 53.12 53.96
  Q 51.93 58.28 51.93 63.43
  Q 51.92 72.68 52.05 88.49
  A 1.23 1.22 -18.4 0 1 51.54 89.50
  Q 45.29 93.99 41.17 100.55
  Z"
/>
<path fill="#478bab" d="
  M 138.73 100.48
  Q 134.50 93.93 128.16 89.48
  A 1.24 1.23 17.7 0 1 127.63 88.47
  Q 127.57 72.56 127.45 63.25
  Q 127.39 58.07 126.14 53.74
  A 0.92 0.92 0.0 0 1 126.50 52.72
  C 133.65 47.71 141.37 50.24 146.20 56.89
  C 155.18 69.24 154.55 92.51 139.48 100.67
  A 0.57 0.57 0.0 0 1 138.73 100.48
  Z"
/>
<path fill="#4382a6" d="
  M 119.21 59.94
  L 119.38 85.21
  L 119.13 87.04
  A 1.27 1.20 70.0 0 1 118.87 87.64
  Q 97.44 113.76 86.07 145.57
  Q 75.00 145.06 65.37 140.86
  Q 77.88 109.95 99.11 84.05
  Q 98.33 85.37 98.72 86.82
  A 0.65 0.64 -17.1 0 0 99.56 87.26
  L 102.36 86.27
  A 3.85 3.85 0.0 0 1 103.70 86.05
  Q 105.40 86.06 107.67 87.20
  A 1.06 1.06 0.0 0 0 109.14 85.90
  L 108.34 83.64
  A 3.64 3.63 0.8 0 0 106.22 81.47
  Q 101.62 79.69 99.12 83.77
  L 98.93 82.51
  A 1.14 1.11 61.5 0 1 99.18 81.63
  Q 108.63 70.35 119.21 59.94
  Z"
/>
<path fill="#4f9eb6" d="
  M 180.00 73.39
  L 180.00 100.17
  Q 160.72 106.88 145.05 119.88
  A 0.35 0.35 0.0 0 0 145.01 120.38
  L 145.02 120.39
  A 0.38 0.38 0.0 0 0 145.56 120.43
  Q 152.77 114.14 162.35 108.98
  A 0.11 0.10 -85.0 0 1 162.48 109.14
  Q 154.23 120.81 148.28 130.95
  C 139.69 145.58 136.41 163.02 134.14 180.00
  L 109.83 180.00
  C 109.61 178.43 110.49 176.96 110.75 175.74
  Q 110.99 174.63 111.32 173.55
  Q 115.33 160.39 121.52 147.31
  Q 128.21 143.74 134.06 137.82
  C 141.55 130.26 145.39 119.45 142.50 109.18
  A 0.55 0.55 0.0 0 1 142.81 108.53
  C 153.57 103.77 159.55 91.79 160.55 80.56
  L 180.00 73.39
  Z"
/>
<path fill="#ffffff" d="
  M 79.78 81.63
  Q 82.22 83.21 82.27 86.65
  A 0.71 0.71 0.0 0 1 81.24 87.29
  C 79.03 86.16 77.07 85.71 74.58 86.64
  Q 73.37 87.09 72.15 87.31
  Q 71.35 85.11 72.89 83.12
  Q 75.57 79.65 79.78 81.63
  Z"
/>
<path fill="#ffffff" d="
  M 99.11 84.05
  Q 99.11 83.91 99.12 83.77
  Q 101.62 79.69 106.22 81.47
  A 3.64 3.63 0.8 0 1 108.34 83.64
  L 109.14 85.90
  A 1.06 1.06 0.0 0 1 107.67 87.20
  Q 105.40 86.06 103.70 86.05
  A 3.85 3.85 0.0 0 0 102.36 86.27
  L 99.56 87.26
  A 0.65 0.64 -17.1 0 1 98.72 86.82
  Q 98.33 85.37 99.11 84.05
  Z"
/>
<path fill="#478bab" d="
  M 119.38 85.21
  C 119.41 89.20 118.46 92.78 122.30 95.69
  Q 125.58 98.18 128.58 101.33
  C 122.85 108.03 116.00 114.95 111.33 121.36
  Q 104.76 130.36 99.62 139.91
  A 0.56 0.56 0.0 0 0 99.83 140.65
  L 99.86 140.67
  A 0.52 0.51 -61.1 0 0 100.58 140.46
  C 105.91 129.85 113.22 118.84 122.03 110.49
  A 0.08 0.08 0.0 0 1 122.16 110.59
  Q 112.53 126.97 104.30 144.14
  Q 95.15 146.18 86.07 145.57
  Q 97.44 113.76 118.87 87.64
  A 1.27 1.20 70.0 0 0 119.13 87.04
  L 119.38 85.21
  Z"
/>
<path fill="#54a6bb" d="
  M 180.00 100.17
  L 180.00 145.77
  C 178.11 164.47 164.48 178.28 145.82 180.00
  L 134.14 180.00
  C 136.41 163.02 139.69 145.58 148.28 130.95
  Q 154.23 120.81 162.48 109.14
  A 0.11 0.10 -85.0 0 0 162.35 108.98
  Q 152.77 114.14 145.56 120.43
  A 0.38 0.38 0.0 0 1 145.02 120.39
  L 145.01 120.38
  A 0.35 0.35 0.0 0 1 145.05 119.88
  Q 160.72 106.88 180.00 100.17
  Z"
/>
<path fill="#4a93af" d="
  M 104.30 144.14
  Q 112.53 126.97 122.16 110.59
  A 0.08 0.08 0.0 0 0 122.03 110.49
  C 113.22 118.84 105.91 129.85 100.58 140.46
  A 0.52 0.51 -61.1 0 1 99.86 140.67
  L 99.83 140.65
  A 0.56 0.56 0.0 0 1 99.62 139.91
  Q 104.76 130.36 111.33 121.36
  C 116.00 114.95 122.85 108.03 128.58 101.33
  C 134.08 107.17 136.86 115.28 133.90 123.14
  C 129.63 134.50 115.79 141.72 104.30 144.14
  Z"
/>
<path fill="#397097" d="
  M 36.92 112.96
  C 35.88 123.08 39.97 132.32 47.35 139.27
  Q 39.25 159.08 35.11 180.00
  L 34.22 180.00
  Q 14.67 177.92 4.72 161.32
  C 14.01 149.65 19.83 140.01 28.08 125.99
  Q 31.05 120.95 36.92 112.96
  Z"
/>
<path fill="#3e7a9f" d="
  M 64.72 150.06
  L 56.25 180.00
  L 35.11 180.00
  Q 39.25 159.08 47.35 139.27
  Q 54.84 146.29 64.72 150.06
  Z"
/>
<path fill="#4a93af" d="
  M 121.52 147.31
  Q 115.33 160.39 111.32 173.55
  Q 110.99 174.63 110.75 175.74
  C 110.49 176.96 109.61 178.43 109.83 180.00
  L 86.11 180.00
  L 90.01 154.64
  Q 106.21 154.78 121.52 147.31
  Z"
/>
<path fill="#4382a6" d="
  M 90.01 154.64
  L 86.11 180.00
  L 56.25 180.00
  L 64.72 150.06
  Q 76.89 154.70 90.01 154.64
  Z"
/>
</svg>