<?xml version="1.0" encoding="UTF-8" standalone="no"?>
<!DOCTYPE svg PUBLIC "-//W3C//DTD SVG 1.1//EN" "http://www.w3.org/Graphics/SVG/1.1/DTD/svg11.dtd">
<svg xmlns="http://www.w3.org/2000/svg" version="1.1" viewBox="0.00 0.00 256.00 256.00" width="128" height="128">
<g stroke-width="2.00" fill="none" stroke-linecap="butt">
<path stroke="#808080" vector-effect="non-scaling-stroke" d="
  M 128.59 254.57
  Q 130.96 254.56 132.02 254.06
  Q 165.37 238.17 202.56 220.76
  C 207.43 218.48 216.79 213.73 224.20 210.53
  A 1.19 1.18 78.3 0 0 224.91 209.44
  L 224.91 72.83
  A 1.85 1.84 -77.4 0 0 223.86 71.16
  Q 214.26 66.60 203.82 61.71
  Q 202.20 60.95 201.05 59.44
  A 1.51 1.50 27.4 0 1 200.74 58.47
  Q 200.98 51.89 200.79 40.02
  Q 200.76 38.17 199.44 36.33
  Q 181.87 11.89 177.28 4.96
  Q 175.94 2.93 175.78 2.68
  A 0.88 0.88 0.0 0 0 174.31 2.63
  L 148.58 38.84
  A 0.38 0.38 0.0 0 1 147.98 38.87
  C 143.59 33.79 138.43 26.24 129.14 13.12
  Q 128.95 12.86 128.49 12.86
  Q 128.04 12.86 127.85 13.12
  C 118.57 26.25 113.41 33.80 109.03 38.89
  A 0.38 0.38 0.0 0 1 108.43 38.86
  L 82.67 2.67
  A 0.88 0.88 0.0 0 0 81.20 2.72
  Q 81.04 2.97 79.70 5.00
  Q 75.12 11.93 57.57 36.39
  Q 56.25 38.23 56.22 40.08
  Q 56.04 51.95 56.28 58.53
  A 1.51 1.50 -27.5 0 1 55.97 59.50
  Q 54.83 61.01 53.21 61.77
  Q 42.77 66.67 33.17 71.24
  A 1.85 1.84 77.3 0 0 32.13 72.91
  L 32.23 209.52
  A 1.19 1.18 -78.3 0 0 32.94 210.61
  C 40.36 213.80 49.72 218.54 54.59 220.82
  Q 91.80 238.20 125.15 254.06
  Q 126.22 254.57 128.59 254.57"
/>
<path stroke="#808080" vector-effect="non-scaling-stroke" d="
  M 66.48 36.55
  A 1.02 1.02 0.0 0 0 67.32 38.16
  L 96.88 38.16
  A 1.02 1.02 0.0 0 0 97.72 36.56
  L 88.05 22.47
  A 1.02 1.02 0.0 0 0 87.21 22.03
  L 77.33 22.03
  A 1.02 1.02 0.0 0 0 76.50 22.46
  L 66.48 36.55"
/>
<path stroke="#808080" vector-effect="non-scaling-stroke" d="
  M 180.74 22.51
  A 1.02 1.02 0.0 0 0 179.90 22.07
  L 170.03 22.07
  A 1.02 1.02 0.0 0 0 169.20 22.50
  L 159.21 36.55
  A 1.02 1.02 0.0 0 0 160.05 38.16
  L 189.56 38.16
  A 1.02 1.02 0.0 0 0 190.40 36.56
  L 180.74 22.51"
/>
<path stroke="#808080" vector-effect="non-scaling-stroke" d="
  M 112.70 46.93
  A 1.12 1.12 0.0 0 0 113.61 48.70
  L 143.01 48.70
  A 1.12 1.12 0.0 0 0 143.94 46.95
  L 134.40 33.07
  A 1.12 1.12 0.0 0 0 133.48 32.58
  L 123.47 32.58
  A 1.12 1.12 0.0 0 0 122.56 33.05
  L 112.70 46.93"
/>
<path stroke="#808080" vector-effect="non-scaling-stroke" d="
  M 64.66 43.81
  A 1.43 1.43 0.0 0 0 63.23 45.24
  L 63.23 85.76
  A 1.43 1.43 0.0 0 0 64.05 87.06
  L 76.60 92.99
  A 1.43 1.43 0.0 0 0 78.64 91.70
  L 78.64 45.24
  A 1.43 1.43 0.0 0 0 77.21 43.81
  L 64.66 43.81"
/>
<path stroke="#808080" vector-effect="non-scaling-stroke" d="
  M 87.17 43.80
  A 1.34 1.34 0.0 0 0 85.83 45.14
  L 85.83 96.55
  A 1.34 1.34 0.0 0 0 86.60 97.76
  L 98.87 103.56
  A 1.34 1.34 0.0 0 0 100.78 102.35
  L 100.78 45.14
  A 1.34 1.34 0.0 0 0 99.44 43.80
  L 87.17 43.80"
/>
<path stroke="#808080" vector-effect="non-scaling-stroke" d="
  M 157.33 43.83
  A 1.03 1.03 0.0 0 0 156.30 44.86
  L 156.30 102.86
  A 1.03 1.03 0.0 0 0 157.77 103.79
  L 170.96 97.56
  A 1.03 1.03 0.0 0 0 171.55 96.63
  L 171.55 44.86
  A 1.03 1.03 0.0 0 0 170.52 43.83
  L 157.33 43.83"
/>
<path stroke="#808080" vector-effect="non-scaling-stroke" d="
  M 179.73 43.80
  A 1.37 1.37 0.0 0 0 178.36 45.17
  L 178.36 91.81
  A 1.37 1.37 0.0 0 0 180.32 93.04
  L 193.07 87.01
  A 1.37 1.37 0.0 0 0 193.85 85.77
  L 193.85 45.17
  A 1.37 1.37 0.0 0 0 192.48 43.80
  L 179.73 43.80"
/>
<path stroke="#808080" vector-effect="non-scaling-stroke" d="
  M 110.21 54.31
  A 0.79 0.79 0.0 0 0 109.42 55.10
  L 109.42 107.98
  A 0.79 0.79 0.0 0 0 109.87 108.69
  L 123.75 115.26
  A 0.79 0.79 0.0 0 0 124.88 114.54
  L 124.88 55.10
  A 0.79 0.79 0.0 0 0 124.09 54.31
  L 110.21 54.31"
/>
<path stroke="#808080" vector-effect="non-scaling-stroke" d="
  M 133.02 54.29
  A 0.96 0.96 0.0 0 0 132.06 55.25
  L 132.06 114.41
  A 0.96 0.96 0.0 0 0 133.43 115.28
  L 146.50 109.10
  A 0.96 0.96 0.0 0 0 147.05 108.23
  L 147.05 55.25
  A 0.96 0.96 0.0 0 0 146.09 54.29
  L 133.02 54.29"
/>
<path stroke="#808080" vector-effect="non-scaling-stroke" d="
  M 55.52 70.70
  C 49.79 72.32 46.04 73.04 42.68 76.15
  A 0.57 0.57 0.0 0 0 42.83 77.09
  L 53.70 82.23
  A 1.78 1.78 0.0 0 0 56.24 80.62
  L 56.24 71.24
  A 0.56 0.56 0.0 0 0 55.52 70.70"
/>
<path stroke="#808080" vector-effect="non-scaling-stroke" d="
  M 202.99 70.51
  A 1.63 1.63 0.0 0 0 200.76 72.06
  L 200.91 80.63
  A 1.63 1.63 0.0 0 0 203.19 82.10
  L 213.49 77.63
  A 1.63 1.63 0.0 0 0 213.43 74.62
  L 202.99 70.51"
/>
<path stroke="#808080" vector-effect="non-scaling-stroke" d="
  M 41.83 203.37
  A 0.93 0.93 0.0 0 0 42.36 204.21
  L 122.54 242.10
  A 0.93 0.93 0.0 0 0 123.87 241.26
  L 123.87 126.52
  A 0.93 0.93 0.0 0 0 123.34 125.68
  L 43.16 87.79
  A 0.93 0.93 0.0 0 0 41.83 88.63
  L 41.83 203.37"
/>
<path stroke="#808080" vector-effect="non-scaling-stroke" d="
  M 133.12 241.13
  A 1.11 1.11 0.0 0 0 134.70 242.13
  L 214.50 204.40
  A 1.11 1.11 0.0 0 0 215.14 203.40
  L 215.14 89.01
  A 1.11 1.11 0.0 0 0 213.56 88.01
  L 133.76 125.74
  A 1.11 1.11 0.0 0 0 133.12 126.74
  L 133.12 241.13"
/>
</g>
<path fill="#ffffff" d="
  M 256.00 0.00
  L 256.00 256.00
  L 0.00 256.00
  L 0.00 0.00
  L 256.00 0.00
  Z
  M 128.59 254.57
  Q 130.96 254.56 132.02 254.06
  Q 165.37 238.17 202.56 220.76
  C 207.43 218.48 216.79 213.73 224.20 210.53
  A 1.19 1.18 78.3 0 0 224.91 209.44
  L 224.91 72.83
  A 1.85 1.84 -77.4 0 0 223.86 71.16
  Q 214.26 66.60 203.82 61.71
  Q 202.20 60.95 201.05 59.44
  A 1.51 1.50 27.4 0 1 200.74 58.47
  Q 200.98 51.89 200.79 40.02
  Q 200.76 38.17 199.44 36.33
  Q 181.87 11.89 177.28 4.96
  Q 175.94 2.93 175.78 2.68
  A 0.88 0.88 0.0 0 0 174.31 2.63
  L 148.58 38.84
  A 0.38 0.38 0.0 0 1 147.98 38.87
  C 143.59 33.79 138.43 26.24 129.14 13.12
  Q 128.95 12.86 128.49 12.86
  Q 128.04 12.86 127.85 13.12
  C 118.57 26.25 113.41 33.80 109.03 38.89
  A 0.38 0.38 0.0 0 1 108.43 38.86
  L 82.67 2.67
  A 0.88 0.88 0.0 0 0 81.20 2.72
  Q 81.04 2.97 79.70 5.00
  Q 75.12 11.93 57.57 36.39
  Q 56.25 38.23 56.22 40.08
  Q 56.04 51.95 56.28 58.53
  A 1.51 1.50 -27.5 0 1 55.97 59.50
  Q 54.83 61.01 53.21 61.77
  Q 42.77 66.67 33.17 71.24
  A 1.85 1.84 77.3 0 0 32.13 72.91
  L 32.23 209.52
  A 1.19 1.18 -78.3 0 0 32.94 210.61
  C 40.36 213.80 49.72 218.54 54.59 220.82
  Q 91.80 238.20 125.15 254.06
  Q 126.22 254.57 128.59 254.57
  Z"
/>
<path fill="#000000" d="
  M 128.49 12.86
  Q 128.95 12.86 129.14 13.12
  C 138.43 26.24 143.59 33.79 147.98 38.87
  A 0.38 0.38 0.0 0 0 148.58 38.84
  L 174.31 2.63
  A 0.88 0.88 0.0 0 1 175.78 2.68
  Q 175.94 2.93 177.28 4.96
  Q 181.87 11.89 199.44 36.33
  Q 200.76 38.17 200.79 40.02
  Q 200.98 51.89 200.74 58.47
  A 1.51 1.50 27.4 0 0 201.05 59.44
  Q 202.20 60.95 203.82 61.71
  Q 214.26 66.60 223.86 71.16
  A 1.85 1.84 -77.4 0 1 224.91 72.83
  L 224.91 209.44
  A 1.19 1.18 78.3 0 1 224.20 210.53
  C 216.79 213.73 207.43 218.48 202.56 220.76
  Q 165.37 238.17 132.02 254.06
  Q 130.96 254.56 128.59 254.57
  Q 126.22 254.57 125.15 254.06
  Q 91.80 238.20 54.59 220.82
  C 49.72 218.54 40.36 213.80 32.94 210.61
  A 1.19 1.18 -78.3 0 1 32.23 209.52
  L 32.13 72.91
  A 1.85 1.84 77.3 0 1 33.17 71.24
  Q 42.77 66.67 53.21 61.77
  Q 54.83 61.01 55.97 59.50
  A 1.51 1.50 -27.5 0 0 56.28 58.53
  Q 56.04 51.95 56.22 40.08
  Q 56.25 38.23 57.57 36.39
  Q 75.12 11.93 79.70 5.00
  Q 81.04 2.97 81.20 2.72
  A 0.88 0.88 0.0 0 1 82.67 2.67
  L 108.43 38.86
  A 0.38 0.38 0.0 0 0 109.03 38.89
  C 113.41 33.80 118.57 26.25 127.85 13.12
  Q 128.04 12.86 128.49 12.86
  Z
  M 66.48 36.55
  A 1.02 1.02 0.0 0 0 67.32 38.16
  L 96.88 38.16
  A 1.02 1.02 0.0 0 0 97.72 36.56
  L 88.05 22.47
  A 1.02 1.02 0.0 0 0 87.21 22.03
  L 77.33 22.03
  A 1.02 1.02 0.0 0 0 76.50 22.46
  L 66.48 36.55
  Z
  M 180.74 22.51
  A 1.02 1.02 0.0 0 0 179.90 22.07
  L 170.03 22.07
  A 1.02 1.02 0.0 0 0 169.20 22.50
  L 159.21 36.55
  A 1.02 1.02 0.0 0 0 160.05 38.16
  L 189.56 38.16
  A 1.02 1.02 0.0 0 0 190.40 36.56
  L 180.74 22.51
  Z
  M 112.70 46.93
  A 1.12 1.12 0.0 0 0 113.61 48.70
  L 143.01 48.70
  A 1.12 1.12 0.0 0 0 143.94 46.95
  L 134.40 33.07
  A 1.12 1.12 0.0 0 0 133.48 32.58
  L 123.47 32.58
  A 1.12 1.12 0.0 0 0 122.56 33.05
  L 112.70 46.93
  Z
  M 64.66 43.81
  A 1.43 1.43 0.0 0 0 63.23 45.24
  L 63.23 85.76
  A 1.43 1.43 0.0 0 0 64.05 87.06
  L 76.60 92.99
  A 1.43 1.43 0.0 0 0 78.64 91.70
  L 78.64 45.24
  A 1.43 1.43 0.0 0 0 77.21 43.81
  L 64.66 43.81
  Z
  M 87.17 43.80
  A 1.34 1.34 0.0 0 0 85.83 45.14
  L 85.83 96.55
  A 1.34 1.34 0.0 0 0 86.60 97.76
  L 98.87 103.56
  A 1.34 1.34 0.0 0 0 100.78 102.35
  L 100.78 45.14
  A 1.34 1.34 0.0 0 0 99.44 43.80
  L 87.17 43.80
  Z
  M 157.33 43.83
  A 1.03 1.03 0.0 0 0 156.30 44.86
  L 156.30 102.86
  A 1.03 1.03 0.0 0 0 157.77 103.79
  L 170.96 97.56
  A 1.03 1.03 0.0 0 0 171.55 96.63
  L 171.55 44.86
  A 1.03 1.03 0.0 0 0 170.52 43.83
  L 157.33 43.83
  Z
  M 179.73 43.80
  A 1.37 1.37 0.0 0 0 178.36 45.17
  L 178.36 91.81
  A 1.37 1.37 0.0 0 0 180.32 93.04
  L 193.07 87.01
  A 1.37 1.37 0.0 0 0 193.85 85.77
  L 193.85 45.17
  A 1.37 1.37 0.0 0 0 192.48 43.80
  L 179.73 43.80
  Z
  M 110.21 54.31
  A 0.79 0.79 0.0 0 0 109.42 55.10
  L 109.42 107.98
  A 0.79 0.79 0.0 0 0 109.87 108.69
  L 123.75 115.26
  A 0.79 0.79 0.0 0 0 124.88 114.54
  L 124.88 55.10
  A 0.79 0.79 0.0 0 0 124.09 54.31
  L 110.21 54.31
  Z
  M 133.02 54.29
  A 0.96 0.96 0.0 0 0 132.06 55.25
  L 132.06 114.41
  A 0.96 0.96 0.0 0 0 133.43 115.28
  L 146.50 109.10
  A 0.96 0.96 0.0 0 0 147.05 108.23
  L 147.05 55.25
  A 0.96 0.96 0.0 0 0 146.09 54.29
  L 133.02 54.29
  Z
  M 55.52 70.70
  C 49.79 72.32 46.04 73.04 42.68 76.15
  A 0.57 0.57 0.0 0 0 42.83 77.09
  L 53.70 82.23
  A 1.78 1.78 0.0 0 0 56.24 80.62
  L 56.24 71.24
  A 0.56 0.56 0.0 0 0 55.52 70.70
  Z
  M 202.99 70.51
  A 1.63 1.63 0.0 0 0 200.76 72.06
  L 200.91 80.63
  A 1.63 1.63 0.0 0 0 203.19 82.10
  L 213.49 77.63
  A 1.63 1.63 0.0 0 0 213.43 74.62
  L 202.99 70.51
  Z
  M 41.83 203.37
  A 0.93 0.93 0.0 0 0 42.36 204.21
  L 122.54 242.10
  A 0.93 0.93 0.0 0 0 123.87 241.26
  L 123.87 126.52
  A 0.93 0.93 0.0 0 0 123.34 125.68
  L 43.16 87.79
  A 0.93 0.93 0.0 0 0 41.83 88.63
  L 41.83 203.37
  Z
  M 133.12 241.13
  A 1.11 1.11 0.0 0 0 134.70 242.13
  L 214.50 204.40
  A 1.11 1.11 0.0 0 0 215.14 203.40
  L 215.14 89.01
  A 1.11 1.11 0.0 0 0 213.56 88.01
  L 133.76 125.74
  A 1.11 1.11 0.0 0 0 133.12 126.74
  L 133.12 241.13
  Z"
/>
<path fill="#ffffff" d="
  M 66.48 36.55
  L 76.50 22.46
  A 1.02 1.02 0.0 0 1 77.33 22.03
  L 87.21 22.03
  A 1.02 1.02 0.0 0 1 88.05 22.47
  L 97.72 36.56
  A 1.02 1.02 0.0 0 1 96.88 38.16
  L 67.32 38.16
  A 1.02 1.02 0.0 0 1 66.48 36.55
  Z"
/>
<path fill="#ffffff" d="
  M 180.74 22.51
  L 190.40 36.56
  A 1.02 1.02 0.0 0 1 189.56 38.16
  L 160.05 38.16
  A 1.02 1.02 0.0 0 1 159.21 36.55
  L 169.20 22.50
  A 1.02 1.02 0.0 0 1 170.03 22.07
  L 179.90 22.07
  A 1.02 1.02 0.0 0 1 180.74 22.51
  Z"
/>
<path fill="#ffffff" d="
  M 112.70 46.93
  L 122.56 33.05
  A 1.12 1.12 0.0 0 1 123.47 32.58
  L 133.48 32.58
  A 1.12 1.12 0.0 0 1 134.40 33.07
  L 143.94 46.95
  A 1.12 1.12 0.0 0 1 143.01 48.70
  L 113.61 48.70
  A 1.12 1.12 0.0 0 1 112.70 46.93
  Z"
/>
<path fill="#ffffff" d="
  M 64.66 43.81
  L 77.21 43.81
  A 1.43 1.43 0.0 0 1 78.64 45.24
  L 78.64 91.70
  A 1.43 1.43 0.0 0 1 76.60 92.99
  L 64.05 87.06
  A 1.43 1.43 0.0 0 1 63.23 85.76
  L 63.23 45.24
  A 1.43 1.43 0.0 0 1 64.66 43.81
  Z"
/>
<path fill="#ffffff" d="
  M 87.17 43.80
  L 99.44 43.80
  A 1.34 1.34 0.0 0 1 100.78 45.14
  L 100.78 102.35
  A 1.34 1.34 0.0 0 1 98.87 103.56
  L 86.60 97.76
  A 1.34 1.34 0.0 0 1 85.83 96.55
  L 85.83 45.14
  A 1.34 1.34 0.0 0 1 87.17 43.80
  Z"
/>
<path fill="#ffffff" d="
  M 157.33 43.83
  L 170.52 43.83
  A 1.03 1.03 0.0 0 1 171.55 44.86
  L 171.55 96.63
  A 1.03 1.03 0.0 0 1 170.96 97.56
  L 157.77 103.79
  A 1.03 1.03 0.0 0 1 156.30 102.86
  L 156.30 44.86
  A 1.03 1.03 0.0 0 1 157.33 43.83
  Z"
/>
<path fill="#ffffff" d="
  M 179.73 43.80
  L 192.48 43.80
  A 1.37 1.37 0.0 0 1 193.85 45.17
  L 193.85 85.77
  A 1.37 1.37 0.0 0 1 193.07 87.01
  L 180.32 93.04
  A 1.37 1.37 0.0 0 1 178.36 91.81
  L 178.36 45.17
  A 1.37 1.37 0.0 0 1 179.73 43.80
  Z"
/>
<path fill="#ffffff" d="
  M 110.21 54.31
  L 124.09 54.31
  A 0.79 0.79 0.0 0 1 124.88 55.10
  L 124.88 114.54
  A 0.79 0.79 0.0 0 1 123.75 115.26
  L 109.87 108.69
  A 0.79 0.79 0.0 0 1 109.42 107.98
  L 109.42 55.10
  A 0.79 0.79 0.0 0 1 110.21 54.31
  Z"
/>
<path fill="#ffffff" d="
  M 133.02 54.29
  L 146.09 54.29
  A 0.96 0.96 0.0 0 1 147.05 55.25
  L 147.05 108.23
  A 0.96 0.96 0.0 0 1 146.50 109.10
  L 133.43 115.28
  A 0.96 0.96 0.0 0 1 132.06 114.41
  L 132.06 55.25
  A 0.96 0.96 0.0 0 1 133.02 54.29
  Z"
/>
<path fill="#ffffff" d="
  M 56.24 71.24
  L 56.24 80.62
  A 1.78 1.78 0.0 0 1 53.70 82.23
  L 42.83 77.09
  A 0.57 0.57 0.0 0 1 42.68 76.15
  C 46.04 73.04 49.79 72.32 55.52 70.70
  A 0.56 0.56 0.0 0 1 56.24 71.24
  Z"
/>
<path fill="#ffffff" d="
  M 202.99 70.51
  L 213.43 74.62
  A 1.63 1.63 0.0 0 1 213.49 77.63
  L 203.19 82.10
  A 1.63 1.63 0.0 0 1 200.91 80.63
  L 200.76 72.06
  A 1.63 1.63 0.0 0 1 202.99 70.51
  Z"
/>
<path fill="#ffffff" d="
  M 41.83 203.37
  L 41.83 88.63
  A 0.93 0.93 0.0 0 1 43.16 87.79
  L 123.34 125.68
  A 0.93 0.93 0.0 0 1 123.87 126.52
  L 123.87 241.26
  A 0.93 0.93 0.0 0 1 122.54 242.10
  L 42.36 204.21
  A 0.93 0.93 0.0 0 1 41.83 203.37
  Z"
/>
<path fill="#ffffff" d="
  M 133.12 241.13
  L 133.12 126.74
  A 1.11 1.11 0.0 0 1 133.76 125.74
  L 213.56 88.01
  A 1.11 1.11 0.0 0 1 215.14 89.01
  L 215.14 203.40
  A 1.11 1.11 0.0 0 1 214.50 204.40
  L 134.70 242.13
  A 1.11 1.11 0.0 0 1 133.12 241.13
  Z"
/>
</svg>