<?xml version="1.0" encoding="UTF-8" standalone="no"?>
<!DOCTYPE svg PUBLIC "-//W3C//DTD SVG 1.1//EN" "http://www.w3.org/Graphics/SVG/1.1/DTD/svg11.dtd">
<svg xmlns="http://www.w3.org/2000/svg" version="1.1" viewBox="0.00 0.00 128.00 128.00" width="128" height="128">
<path fill="#0051ff" d="
  M 60.14 0.00
  C 86.25 1.39 108.09 19.19 114.33 44.49
  A 0.34 0.34 0.0 0 1 114.00 44.92
  L 88.84 44.92
  A 0.78 0.75 -13.3 0 1 88.16 44.52
  Q 81.17 31.38 69.04 27.25
  C 50.88 21.06 32.99 30.50 26.68 48.23
  C 24.10 55.49 24.43 64.82 27.37 71.57
  Q 35.89 91.15 57.65 92.63
  A 0.58 0.58 0.0 0 1 58.19 93.21
  L 58.19 117.36
  A 0.53 0.52 -88.5 0 1 57.64 117.89
  Q 31.80 116.89 15.29 98.71
  Q 1.20 83.19 0.00 61.31
  L 0.00 56.86
  Q 0.71 41.95 7.31 30.31
  Q 23.01 2.62 55.61 0.00
  L 60.14 0.00
  Z"
/>
<path fill="#05d8ff" d="
  M 128.00 110.44
  L 128.00 111.13
  Q 126.71 115.52 125.82 117.27
  Q 121.37 126.04 111.40 128.00
  L 108.93 128.00
  L 90.33 108.35
  A 0.63 0.61 -38.8 0 0 89.53 108.27
  Q 79.30 115.34 65.46 117.40
  A 0.62 0.62 0.0 0 1 64.75 116.79
  L 64.75 92.47
  A 0.66 0.66 0.0 0 1 65.24 91.83
  C 83.60 87.11 93.64 70.72 90.51 51.94
  A 0.38 0.37 -5.1 0 1 90.88 51.50
  L 115.06 51.50
  A 0.72 0.71 86.9 0 1 115.77 52.14
  Q 117.74 71.93 108.01 88.97
  A 0.74 0.73 -52.5 0 0 108.12 89.84
  L 128.00 110.44
  Z"
/>
</svg>