<?xml version="1.0" encoding="UTF-8" standalone="no"?>
<!DOCTYPE svg PUBLIC "-//W3C//DTD SVG 1.1//EN" "http://www.w3.org/Graphics/SVG/1.1/DTD/svg11.dtd">
<svg xmlns="http://www.w3.org/2000/svg" version="1.1" viewBox="0.00 0.00 128.00 128.00" width="128" height="128">
<g stroke-width="2.00" fill="none" stroke-linecap="butt">
<path stroke="#181818" stroke-opacity="0.533" vector-effect="non-scaling-stroke" d="
  M 118.46 23.60
  Q 119.34 26.94 119.34 28.74
  Q 119.34 61.93 119.32 95.51
  Q 119.32 102.13 118.09 105.32
  Q 113.86 116.34 101.45 119.14
  A 6.13 5.86 -50.1 0 1 100.12 119.29
  L 57.98 119.37"
/>
<path stroke="#8c8c8c" vector-effect="non-scaling-stroke" d="
  M 57.98 119.37
  L 57.95 84.72
  A 0.92 0.91 0.3 0 1 58.88 83.81
  Q 69.70 83.93 74.25 83.72
  C 87.19 83.12 97.46 73.16 99.88 60.95
  C 103.29 43.80 90.17 28.28 73.46 27.66
  C 61.43 27.21 51.10 33.94 46.23 45.03
  Q 44.23 49.58 44.17 55.93
  Q 44.09 64.75 44.19 69.00
  A 1.06 1.05 -0.8 0 1 43.13 70.08
  L 8.62 70.02"
/>
<path stroke="#181818" stroke-opacity="0.533" vector-effect="non-scaling-stroke" d="
  M 8.62 70.02
  Q 8.74 48.97 8.67 27.75
  Q 8.65 23.73 12.40 17.83"
/>
<path stroke="#f0f0f0" stroke-opacity="0.533" vector-effect="non-scaling-stroke" d="
  M 8.62 70.02
  L 8.72 83.86"
/>
<path stroke="#181818" stroke-opacity="0.533" vector-effect="non-scaling-stroke" d="
  M 8.72 83.86
  Q 8.70 88.99 8.70 94.13
  Q 8.69 101.51 9.57 104.30
  C 12.07 112.32 19.78 118.87 28.25 119.29
  Q 32.20 119.49 44.13 119.31"
/>
<path stroke="#f0f0f0" stroke-opacity="0.533" vector-effect="non-scaling-stroke" d="
  M 44.13 119.31
  L 57.98 119.37"
/>
<path stroke="#8c8c8c" vector-effect="non-scaling-stroke" d="
  M 44.13 119.31
  L 44.16 84.44
  A 0.56 0.56 0.0 0 0 43.60 83.88
  L 8.72 83.86"
/>
<path stroke="#8c8c8c" vector-effect="non-scaling-stroke" d="
  M 58.18 69.73
  Q 58.33 69.88 58.38 69.88
  Q 64.43 70.22 72.25 70.00
  C 84.70 69.65 91.57 54.85 82.44 45.65
  C 73.31 36.45 58.46 43.20 58.01 55.66
  Q 57.74 63.47 58.03 69.53
  Q 58.03 69.57 58.18 69.73"
/>
</g>
<path fill="#191919" d="
  M 118.46 23.60
  Q 119.34 26.94 119.34 28.74
  Q 119.34 61.93 119.32 95.51
  Q 119.32 102.13 118.09 105.32
  Q 113.86 116.34 101.45 119.14
  A 6.13 5.86 -50.1 0 1 100.12 119.29
  L 57.98 119.37
  L 57.95 84.72
  A 0.92 0.91 0.3 0 1 58.88 83.81
  Q 69.70 83.93 74.25 83.72
  C 87.19 83.12 97.46 73.16 99.88 60.95
  C 103.29 43.80 90.17 28.28 73.46 27.66
  C 61.43 27.21 51.10 33.94 46.23 45.03
  Q 44.23 49.58 44.17 55.93
  Q 44.09 64.75 44.19 69.00
  A 1.06 1.05 -0.8 0 1 43.13 70.08
  L 8.62 70.02
  Q 8.74 48.97 8.67 27.75
  Q 8.65 23.73 12.40 17.83
  Q 16.39 12.35 22.36 10.04
  Q 26.23 8.53 33.32 8.58
  Q 62.60 8.77 91.89 8.59
  Q 101.55 8.53 105.93 10.19
  Q 114.76 13.53 118.46 23.60
  Z"
/>
<path fill="#040505" fill-opacity="0.063" d="
  M 12.40 17.83
  Q 8.65 23.73 8.67 27.75
  Q 8.74 48.97 8.62 70.02
  L 8.72 83.86
  Q 8.70 88.99 8.70 94.13
  Q 8.69 101.51 9.57 104.30
  C 12.07 112.32 19.78 118.87 28.25 119.29
  Q 32.20 119.49 44.13 119.31
  L 57.98 119.37
  L 100.12 119.29
  A 6.13 5.86 -50.1 0 0 101.45 119.14
  Q 113.86 116.34 118.09 105.32
  Q 119.32 102.13 119.32 95.51
  Q 119.34 61.93 119.34 28.74
  Q 119.34 26.94 118.46 23.60
  C 122.76 28.18 122.86 33.84 122.86 40.31
  Q 122.87 57.06 122.97 96.67
  Q 122.98 103.93 119.83 111.99
  Q 119.51 112.81 116.78 116.02
  Q 110.29 123.65 102.21 124.98
  Q 100.16 125.32 90.23 125.47
  Q 85.80 125.54 78.25 125.55
  A 7.59 5.68 -22.4 0 1 77.25 125.49
  Q 76.47 125.40 67.48 123.29
  C 58.97 121.30 50.28 121.13 42.06 122.10
  Q 40.73 122.26 35.65 123.83
  Q 27.07 126.49 19.49 122.59
  Q 6.61 115.97 5.38 100.65
  Q 4.86 94.30 4.69 56.44
  C 4.65 47.78 5.22 41.30 5.37 32.54
  C 5.46 27.09 7.18 20.76 12.40 17.83
  Z"
/>
<path fill="#ffffff" d="
  M 57.98 119.37
  L 44.13 119.31
  L 44.16 84.44
  A 0.56 0.56 0.0 0 0 43.60 83.88
  L 8.72 83.86
  L 8.62 70.02
  L 43.13 70.08
  A 1.06 1.05 -0.8 0 0 44.19 69.00
  Q 44.09 64.75 44.17 55.93
  Q 44.23 49.58 46.23 45.03
  C 51.10 33.94 61.43 27.21 73.46 27.66
  C 90.17 28.28 103.29 43.80 99.88 60.95
  C 97.46 73.16 87.19 83.12 74.25 83.72
  Q 69.70 83.93 58.88 83.81
  A 0.92 0.91 0.3 0 0 57.95 84.72
  L 57.98 119.37
  Z
  M 58.18 69.73
  Q 58.33 69.88 58.38 69.88
  Q 64.43 70.22 72.25 70.00
  C 84.70 69.65 91.57 54.85 82.44 45.65
  C 73.31 36.45 58.46 43.20 58.01 55.66
  Q 57.74 63.47 58.03 69.53
  Q 58.03 69.57 58.18 69.73
  Z"
/>
<path fill="#191919" d="
  M 82.44 45.65
  C 91.57 54.85 84.70 69.65 72.25 70.00
  Q 64.43 70.22 58.38 69.88
  Q 58.33 69.88 58.18 69.73
  Q 58.03 69.57 58.03 69.53
  Q 57.74 63.47 58.01 55.66
  C 58.46 43.20 73.31 36.45 82.44 45.65
  Z"
/>
<path fill="#191919" d="
  M 44.13 119.31
  Q 32.20 119.49 28.25 119.29
  C 19.78 118.87 12.07 112.32 9.57 104.30
  Q 8.69 101.51 8.70 94.13
  Q 8.70 88.99 8.72 83.86
  L 43.60 83.88
  A 0.56 0.56 0.0 0 1 44.16 84.44
  L 44.13 119.31
  Z"
/>
</svg>