<?xml version="1.0" encoding="UTF-8" standalone="no"?>
<!DOCTYPE svg PUBLIC "-//W3C//DTD SVG 1.1//EN" "http://www.w3.org/Graphics/SVG/1.1/DTD/svg11.dtd">
<svg xmlns="http://www.w3.org/2000/svg" version="1.1" viewBox="0.00 0.00 256.00 256.00" width="128" height="128">
<g stroke-width="2.00" fill="none" stroke-linecap="butt">
<path stroke="#aeb9fd" vector-effect="non-scaling-stroke" d="
  M 52.13 89.47
  Q 44.11 103.70 41.90 119.73
  C 34.19 175.54 83.52 223.69 139.10 214.60
  C 187.28 206.71 219.24 160.76 208.80 113.16
  C 197.99 63.86 146.40 34.49 98.28 51.21
  A 0.28 0.28 0.0 0 0 98.16 51.67
  Q 104.82 58.76 106.18 68.64
  A 0.57 0.57 0.0 0 0 106.89 69.11
  Q 126.59 63.62 145.10 69.47
  C 180.81 80.75 199.70 119.04 187.40 153.94
  C 176.96 183.59 146.46 202.04 115.24 196.94
  C 82.97 191.66 59.67 164.43 59.56 131.72
  Q 59.52 116.43 67.46 100.96
  A 0.59 0.58 23.8 0 0 67.14 100.15
  Q 58.05 96.80 52.60 89.44
  A 0.28 0.28 0.0 0 0 52.13 89.47"
/>
<path stroke="#aeb9fd" vector-effect="non-scaling-stroke" d="
  M 100.66 72.13
  A 24.10 24.10 0.0 0 0 76.56 48.03
  A 24.10 24.10 0.0 0 0 52.46 72.13
  A 24.10 24.10 0.0 0 0 76.56 96.23
  A 24.10 24.10 0.0 0 0 100.66 72.13"
/>
<path stroke="#aeb9fd" vector-effect="non-scaling-stroke" d="
  M 170.0844 127.0225
  A 45.10 44.95 -5.2 0 0 121.0961 86.3450
  A 45.10 44.95 -5.2 0 0 80.2556 135.1975
  A 45.10 44.95 -5.2 0 0 129.2439 175.8750
  A 45.10 44.95 -5.2 0 0 170.0844 127.0225"
/>
</g>
<path fill="#5d73fb" d="
  M 225.78 254.68
  L 30.22 254.68
  A 28.90 28.90 0.0 0 1 1.32 225.78
  L 1.32 30.22
  A 28.90 28.90 0.0 0 1 30.22 1.32
  L 225.78 1.32
  A 28.90 28.90 0.0 0 1 254.68 30.22
  L 254.68 225.78
  A 28.90 28.90 0.0 0 1 225.78 254.68
  Z
  M 52.13 89.47
  Q 44.11 103.70 41.90 119.73
  C 34.19 175.54 83.52 223.69 139.10 214.60
  C 187.28 206.71 219.24 160.76 208.80 113.16
  C 197.99 63.86 146.40 34.49 98.28 51.21
  A 0.28 0.28 0.0 0 0 98.16 51.67
  Q 104.82 58.76 106.18 68.64
  A 0.57 0.57 0.0 0 0 106.89 69.11
  Q 126.59 63.62 145.10 69.47
  C 180.81 80.75 199.70 119.04 187.40 153.94
  C 176.96 183.59 146.46 202.04 115.24 196.94
  C 82.97 191.66 59.67 164.43 59.56 131.72
  Q 59.52 116.43 67.46 100.96
  A 0.59 0.58 23.8 0 0 67.14 100.15
  Q 58.05 96.80 52.60 89.44
  A 0.28 0.28 0.0 0 0 52.13 89.47
  Z
  M 100.66 72.13
  A 24.10 24.10 0.0 0 0 76.56 48.03
  A 24.10 24.10 0.0 0 0 52.46 72.13
  A 24.10 24.10 0.0 0 0 76.56 96.23
  A 24.10 24.10 0.0 0 0 100.66 72.13
  Z
  M 170.0844 127.0225
  A 45.10 44.95 -5.2 0 0 121.0961 86.3450
  A 45.10 44.95 -5.2 0 0 80.2556 135.1975
  A 45.10 44.95 -5.2 0 0 129.2439 175.8750
  A 45.10 44.95 -5.2 0 0 170.0844 127.0225
  Z"
/>
<path fill="#ffffff" d="
  M 52.13 89.47
  A 0.28 0.28 0.0 0 1 52.60 89.44
  Q 58.05 96.80 67.14 100.15
  A 0.59 0.58 23.8 0 1 67.46 100.96
  Q 59.52 116.43 59.56 131.72
  C 59.67 164.43 82.97 191.66 115.24 196.94
  C 146.46 202.04 176.96 183.59 187.40 153.94
  C 199.70 119.04 180.81 80.75 145.10 69.47
  Q 126.59 63.62 106.89 69.11
  A 0.57 0.57 0.0 0 1 106.18 68.64
  Q 104.82 58.76 98.16 51.67
  A 0.28 0.28 0.0 0 1 98.28 51.21
  C 146.40 34.49 197.99 63.86 208.80 113.16
  C 219.24 160.76 187.28 206.71 139.10 214.60
  C 83.52 223.69 34.19 175.54 41.90 119.73
  Q 44.11 103.70 52.13 89.47
  Z"
/>
<circle fill="#ffffff" cx="76.56" cy="72.13" r="24.10"/>
<ellipse fill="#ffffff" cx="0.00" cy="0.00" transform="translate(125.17,131.11) rotate(-5.2)" rx="45.10" ry="44.95"/>
</svg>