<?xml version="1.0" encoding="UTF-8" standalone="no"?>
<!DOCTYPE svg PUBLIC "-//W3C//DTD SVG 1.1//EN" "http://www.w3.org/Graphics/SVG/1.1/DTD/svg11.dtd">
<svg xmlns="http://www.w3.org/2000/svg" version="1.1" viewBox="0.00 -8.00 632.00 632.00" width="128" height="128">
<g stroke-width="2.00" fill="none" stroke-linecap="butt">
<path stroke="#131d7a" vector-effect="non-scaling-stroke" d="
  M 483.33 316.79
  Q 434.01 338.97 382.29 323.05"
/>
<path stroke="#131d7a" vector-effect="non-scaling-stroke" d="
  M 294.50 237.61
  Q 293.45 234.19 292.43 230.67
  Q 278.62 182.55 298.04 136.51"
/>
<path stroke="#131d7a" vector-effect="non-scaling-stroke" d="
  M 248.55 496.03
  C 187.14 478.02 140.57 430.28 123.05 368.83"
/>
</g>
<path fill="#253af3" d="
  M 483.33 316.79
  Q 434.01 338.97 382.29 323.05
  Q 373.30 319.85 370.75 318.72
  Q 321.64 297.14 298.91 248.55
  Q 297.67 245.91 294.50 237.61
  Q 293.45 234.19 292.43 230.67
  Q 278.62 182.55 298.04 136.51
  C 317.47 92.35 357.61 61.53 405.28 54.74
  C 493.48 42.17 571.15 115.48 562.39 204.71
  C 557.60 253.60 528.05 295.58 483.33 316.79
  Z"
/>
<path fill="#000000" d="
  M 298.04 136.51
  Q 278.62 182.55 292.43 230.67
  Q 293.45 234.19 294.50 237.61
  C 257.85 240.41 228.07 265.81 219.74 301.21
  C 209.40 345.19 236.40 388.21 279.40 399.57
  Q 298.07 404.51 316.52 400.55
  C 353.84 392.53 380.37 361.47 382.29 323.05
  Q 434.01 338.97 483.33 316.79
  C 484.08 380.18 453.18 439.06 400.12 473.61
  C 355.44 502.70 300.15 510.82 248.55 496.03
  C 187.14 478.02 140.57 430.28 123.05 368.83
  Q 108.71 314.01 125.67 262.62
  Q 134.47 235.97 150.35 213.55
  C 184.01 166.04 239.54 136.71 298.04 136.51
  Z"
/>
<path fill="#253af3" d="
  M 248.55 496.03
  C 231.07 526.86 198.48 544.64 163.28 543.14
  C 129.29 541.69 99.03 521.69 83.99 490.80
  C 62.15 445.98 80.00 392.73 123.05 368.83
  C 140.57 430.28 187.14 478.02 248.55 496.03
  Z"
/>
</svg>