<?xml version="1.0" encoding="UTF-8" standalone="no"?>
<!DOCTYPE svg PUBLIC "-//W3C//DTD SVG 1.1//EN" "http://www.w3.org/Graphics/SVG/1.1/DTD/svg11.dtd">
<svg xmlns="http://www.w3.org/2000/svg" version="1.1" viewBox="0.00 0.00 256.00 256.00" width="128" height="128">
<g stroke-width="2.00" fill="none" stroke-linecap="butt">
<path stroke="#808080" vector-effect="non-scaling-stroke" d="
  M 136.43 62.53
  L 134.20 78.52
  A 0.74 0.74 0.0 0 0 134.50 79.22
  C 136.85 80.93 141.03 80.73 143.97 80.68
  A 1.17 1.16 3.5 0 0 145.10 79.68
  L 147.22 64.46
  A 1.11 1.11 0.0 0 1 148.63 63.55
  Q 149.58 63.84 150.02 64.33
  Q 152.31 66.93 156.87 72.17
  A 3.22 3.22 0.0 0 0 160.48 73.06
  Q 164.37 71.53 166.04 67.36
  A 1.09 1.09 0.0 0 0 165.90 66.28
  Q 158.73 57.03 150.75 47.50
  Q 149.12 45.55 147.42 44.25
  A 3.70 3.68 -34.3 0 0 144.09 43.63
  C 142.30 44.17 139.83 44.97 137.92 46.19
  Q 129.63 51.47 120.69 56.25
  A 3.50 3.48 78.0 0 0 118.85 59.10
  C 118.53 64.04 120.90 68.91 126.94 65.56
  Q 132.66 62.37 134.97 61.40
  A 1.06 1.06 0.0 0 1 136.43 62.53"
/>
<path stroke="#808080" vector-effect="non-scaling-stroke" d="
  M 100.71 78.65
  L 113.29 78.09
  A 1.78 1.77 87.4 0 0 114.98 76.23
  L 114.71 70.19
  A 2.87 2.86 10.0 0 0 112.94 67.67
  Q 111.31 67.01 108.74 67.16
  Q 102.16 67.54 88.26 68.23
  Q 83.21 68.48 82.08 71.06
  Q 81.69 71.95 80.56 77.88
  Q 78.63 88.07 76.97 99.99
  A 0.88 0.86 11.3 0 0 77.63 100.96
  C 80.50 101.65 86.90 103.04 87.92 98.94
  Q 88.93 94.88 89.19 89.78
  A 2.00 1.92 -84.8 0 1 91.37 87.89
  Q 92.26 88.01 92.62 88.44
  Q 93.60 89.60 101.22 98.51
  A 2.25 2.24 60.0 0 0 103.67 99.17
  Q 105.54 98.53 107.95 96.45
  C 110.88 93.94 109.81 91.36 107.42 88.87
  C 104.51 85.84 100.84 82.79 99.81 80.02
  A 1.02 1.01 -11.8 0 1 100.71 78.65"
/>
<path stroke="#808080" vector-effect="non-scaling-stroke" d="
  M 182.70 105.60
  C 182.66 108.63 181.54 112.43 180.60 115.97
  A 2.62 2.62 0.0 0 0 181.96 118.98
  C 184.08 120.05 187.45 119.43 189.90 119.21
  A 1.05 1.02 -75.6 0 0 190.69 118.73
  Q 191.88 116.78 192.32 114.05
  Q 194.11 102.76 195.35 96.57
  Q 195.90 93.81 195.50 90.77
  A 4.19 4.18 -78.9 0 0 193.42 87.67
  Q 190.09 85.77 185.32 83.92
  Q 172.80 79.07 171.61 78.47
  C 165.71 75.49 163.93 80.14 163.56 84.80
  A 2.66 2.65 14.5 0 0 165.12 87.43
  Q 171.83 90.43 174.11 91.38
  Q 175.23 91.85 175.61 93.00
  A 1.81 1.77 -20.6 0 1 174.59 95.19
  Q 169.53 97.36 165.63 99.45
  C 160.56 102.16 162.72 107.73 166.45 110.34
  A 1.86 1.85 -42.5 0 0 168.45 110.42
  L 179.77 103.89
  A 1.96 1.95 -14.7 0 1 182.70 105.60"
/>
<path stroke="#808080" vector-effect="non-scaling-stroke" d="
  M 125.91 112.48
  A 0.91 0.91 0.0 0 1 127.26 113.41
  C 126.09 120.78 124.96 124.67 125.33 129.88
  A 1.92 1.92 0.0 0 0 126.72 131.60
  Q 131.36 132.93 134.99 131.91
  A 1.59 1.59 0.0 0 0 136.14 130.59
  L 138.16 116.14
  A 1.35 1.34 29.2 0 1 140.53 115.47
  Q 145.35 121.24 147.38 123.36
  C 149.71 125.78 153.68 123.64 155.44 121.75
  C 157.76 119.27 156.52 117.09 154.70 114.80
  Q 145.65 103.39 137.94 95.05
  A 2.61 2.61 0.0 0 0 134.71 94.56
  L 110.31 108.65
  A 2.23 2.22 67.9 0 0 109.27 111.13
  Q 110.37 115.38 112.93 118.33
  A 1.78 1.76 54.3 0 0 115.14 118.70
  L 125.91 112.48"
/>
<path stroke="#808080" vector-effect="non-scaling-stroke" d="
  M 69.87 134.89
  Q 70.01 134.81 70.17 134.83
  Q 73.51 135.39 84.10 137.25
  A 2.63 2.62 -70.9 0 0 86.87 135.90
  C 88.22 133.37 89.72 127.53 86.08 126.42
  Q 84.08 125.81 74.69 124.59
  Q 73.15 124.38 72.51 123.83
  A 2.09 2.00 -44.8 0 1 72.59 120.76
  Q 74.99 118.65 77.36 116.86
  C 80.65 114.39 81.90 109.09 77.44 106.82
  Q 75.05 105.61 73.09 106.40
  A 2.49 2.34 11.7 0 0 72.44 106.80
  Q 59.44 118.38 53.93 123.18
  Q 52.54 124.39 52.19 125.92
  A 1.86 1.85 -49.8 0 0 52.28 127.03
  Q 55.06 134.00 55.94 135.43
  Q 61.19 144.02 64.85 151.69
  A 2.23 2.21 71.4 0 0 67.30 152.92
  C 70.55 152.25 76.84 150.64 74.17 145.86
  Q 69.62 137.70 69.24 136.81
  A 1.51 1.51 0.0 0 1 69.87 134.89"
/>
<path stroke="#808080" vector-effect="non-scaling-stroke" d="
  M 187.17 144.64
  C 184.80 144.26 176.74 141.68 171.92 142.13
  A 1.97 1.96 -88.7 0 0 170.15 143.83
  L 169.25 150.29
  A 2.01 2.01 0.0 0 0 170.99 152.56
  Q 178.01 153.42 183.72 154.31
  C 185.42 154.58 185.92 156.47 184.72 157.54
  C 179.81 161.91 169.73 169.36 182.97 173.61
  A 1.09 1.07 34.8 0 0 183.97 173.44
  C 184.92 172.71 185.64 171.62 186.53 170.79
  Q 194.58 163.30 202.84 156.35
  Q 204.78 154.72 205.30 153.17
  A 2.06 2.01 40.9 0 0 205.17 151.59
  L 192.51 127.45
  A 2.16 2.16 0.0 0 0 190.15 126.34
  Q 186.28 127.15 183.83 128.97
  A 2.52 2.51 59.7 0 0 183.04 132.01
  L 188.13 143.45
  A 0.86 0.86 0.0 0 1 187.17 144.64"
/>
<path stroke="#808080" vector-effect="non-scaling-stroke" d="
  M 131.30 162.71
  C 133.01 163.56 135.99 168.09 138.05 170.67
  Q 139.20 172.10 140.93 172.81
  A 1.38 1.37 46.7 0 0 141.88 172.84
  Q 146.08 171.40 147.94 167.83
  A 1.87 1.85 -35.2 0 0 148.14 166.71
  Q 147.89 164.77 146.46 163.03
  Q 134.92 148.97 133.17 146.96
  C 130.88 144.33 127.90 141.37 124.28 143.53
  Q 121.81 145.01 107.22 153.62
  C 105.06 154.90 102.49 155.81 100.96 157.33
  A 1.66 1.65 55.6 0 0 100.62 159.17
  L 103.35 165.31
  A 1.50 1.49 -15.5 0 0 104.89 166.18
  Q 110.58 165.49 115.91 161.39
  Q 117.67 160.03 118.94 161.37
  A 0.62 0.61 28.8 0 1 119.10 161.91
  L 116.27 177.10
  A 2.13 2.12 -80.7 0 0 118.06 179.60
  L 124.34 180.47
  A 2.75 2.74 9.2 0 0 127.42 178.26
  L 130.22 163.25
  A 0.75 0.75 0.0 0 1 131.30 162.71"
/>
<path stroke="#808080" vector-effect="non-scaling-stroke" d="
  M 83.86 182.83
  L 94.13 175.78
  A 3.22 3.20 -24.8 0 0 95.42 172.30
  C 94.37 168.34 91.40 163.62 86.82 167.71
  Q 85.51 168.88 78.13 174.22
  A 1.41 1.41 0.0 0 1 75.90 173.18
  Q 75.52 168.08 76.79 161.99
  A 2.39 2.39 0.0 0 0 74.73 159.13
  Q 73.46 158.98 70.70 159.26
  C 67.94 159.53 65.83 159.45 65.59 162.56
  Q 65.22 167.43 65.10 172.82
  C 64.98 177.64 63.80 182.58 64.12 187.33
  Q 64.27 189.69 66.39 190.61
  Q 70.85 192.54 74.24 193.42
  C 80.65 195.08 86.68 197.39 91.23 198.51
  Q 93.99 199.20 94.78 196.86
  Q 95.85 193.65 96.05 190.95
  A 2.46 2.45 11.7 0 0 94.40 188.45
  L 84.14 184.94
  A 1.19 1.19 0.0 0 1 83.86 182.83"
/>
<path stroke="#808080" vector-effect="non-scaling-stroke" d="
  M 154.48 198.66
  Q 149.70 197.31 143.67 197.43
  A 1.84 1.84 0.0 0 0 141.88 199.01
  L 140.98 205.49
  A 1.58 1.58 0.0 0 0 142.06 207.21
  Q 143.97 207.84 145.75 208.01
  Q 160.22 209.37 165.99 209.76
  C 171.40 210.12 173.02 208.27 174.33 203.13
  Q 174.65 201.86 178.81 188.78
  Q 180.17 184.53 179.96 180.13
  A 2.23 2.23 0.0 0 0 178.43 178.11
  C 169.16 175.08 169.40 181.50 168.18 188.17
  A 2.15 2.14 -85.0 0 1 166.09 189.93
  Q 164.43 189.94 163.32 188.17
  Q 160.83 184.22 158.68 180.44
  A 3.50 3.50 0.0 0 0 155.79 178.66
  Q 151.36 178.45 148.38 181.91
  A 2.23 2.22 47.2 0 0 148.28 184.70
  C 151.52 189.05 156.63 194.74 155.79 197.91
  A 1.06 1.06 0.0 0 1 154.48 198.66"
/>
<path stroke="#808080" vector-effect="non-scaling-stroke" d="
  M 117.9049 194.5398
  A 10.10 9.84 -85.6 0 0 107.3190 203.8551
  A 10.10 9.84 -85.6 0 0 116.3551 214.6802
  A 10.10 9.84 -85.6 0 0 126.9410 205.3649
  A 10.10 9.84 -85.6 0 0 117.9049 194.5398"
/>
</g>
<path fill="#000000" d="
  M 220.73 0.00
  Q 225.48 0.35 230.25 0.40
  C 236.02 0.47 241.15 3.76 245.14 7.61
  C 250.69 12.95 254.94 16.13 256.00 23.14
  L 256.00 235.48
  Q 255.36 240.11 252.60 243.91
  A 1.61 1.40 -59.9 0 1 252.45 244.08
  L 244.07 252.44
  A 1.73 1.38 -25.8 0 1 243.88 252.59
  Q 240.10 255.27 235.49 256.00
  L 23.35 256.00
  Q 17.89 255.17 14.25 251.99
  Q 9.29 247.67 3.65 240.36
  Q 0.84 236.71 0.00 230.10
  L 0.00 28.18
  Q 1.80 21.30 7.30 13.80
  C 9.68 10.55 11.23 8.86 14.61 6.83
  Q 18.56 4.45 22.42 1.21
  A 1.69 1.66 -68.9 0 1 23.24 0.84
  L 28.39 0.00
  L 220.73 0.00
  Z
  M 136.43 62.53
  L 134.20 78.52
  A 0.74 0.74 0.0 0 0 134.50 79.22
  C 136.85 80.93 141.03 80.73 143.97 80.68
  A 1.17 1.16 3.5 0 0 145.10 79.68
  L 147.22 64.46
  A 1.11 1.11 0.0 0 1 148.63 63.55
  Q 149.58 63.84 150.02 64.33
  Q 152.31 66.93 156.87 72.17
  A 3.22 3.22 0.0 0 0 160.48 73.06
  Q 164.37 71.53 166.04 67.36
  A 1.09 1.09 0.0 0 0 165.90 66.28
  Q 158.73 57.03 150.75 47.50
  Q 149.12 45.55 147.42 44.25
  A 3.70 3.68 -34.3 0 0 144.09 43.63
  C 142.30 44.17 139.83 44.97 137.92 46.19
  Q 129.63 51.47 120.69 56.25
  A 3.50 3.48 78.0 0 0 118.85 59.10
  C 118.53 64.04 120.90 68.91 126.94 65.56
  Q 132.66 62.37 134.97 61.40
  A 1.06 1.06 0.0 0 1 136.43 62.53
  Z
  M 100.71 78.65
  L 113.29 78.09
  A 1.78 1.77 87.4 0 0 114.98 76.23
  L 114.71 70.19
  A 2.87 2.86 10.0 0 0 112.94 67.67
  Q 111.31 67.01 108.74 67.16
  Q 102.16 67.54 88.26 68.23
  Q 83.21 68.48 82.08 71.06
  Q 81.69 71.95 80.56 77.88
  Q 78.63 88.07 76.97 99.99
  A 0.88 0.86 11.3 0 0 77.63 100.96
  C 80.50 101.65 86.90 103.04 87.92 98.94
  Q 88.93 94.88 89.19 89.78
  A 2.00 1.92 -84.8 0 1 91.37 87.89
  Q 92.26 88.01 92.62 88.44
  Q 93.60 89.60 101.22 98.51
  A 2.25 2.24 60.0 0 0 103.67 99.17
  Q 105.54 98.53 107.95 96.45
  C 110.88 93.94 109.81 91.36 107.42 88.87
  C 104.51 85.84 100.84 82.79 99.81 80.02
  A 1.02 1.01 -11.8 0 1 100.71 78.65
  Z
  M 182.70 105.60
  C 182.66 108.63 181.54 112.43 180.60 115.97
  A 2.62 2.62 0.0 0 0 181.96 118.98
  C 184.08 120.05 187.45 119.43 189.90 119.21
  A 1.05 1.02 -75.6 0 0 190.69 118.73
  Q 191.88 116.78 192.32 114.05
  Q 194.11 102.76 195.35 96.57
  Q 195.90 93.81 195.50 90.77
  A 4.19 4.18 -78.9 0 0 193.42 87.67
  Q 190.09 85.77 185.32 83.92
  Q 172.80 79.07 171.61 78.47
  C 165.71 75.49 163.93 80.14 163.56 84.80
  A 2.66 2.65 14.5 0 0 165.12 87.43
  Q 171.83 90.43 174.11 91.38
  Q 175.23 91.85 175.61 93.00
  A 1.81 1.77 -20.6 0 1 174.59 95.19
  Q 169.53 97.36 165.63 99.45
  C 160.56 102.16 162.72 107.73 166.45 110.34
  A 1.86 1.85 -42.5 0 0 168.45 110.42
  L 179.77 103.89
  A 1.96 1.95 -14.7 0 1 182.70 105.60
  Z
  M 125.91 112.48
  A 0.91 0.91 0.0 0 1 127.26 113.41
  C 126.09 120.78 124.96 124.67 125.33 129.88
  A 1.92 1.92 0.0 0 0 126.72 131.60
  Q 131.36 132.93 134.99 131.91
  A 1.59 1.59 0.0 0 0 136.14 130.59
  L 138.16 116.14
  A 1.35 1.34 29.2 0 1 140.53 115.47
  Q 145.35 121.24 147.38 123.36
  C 149.71 125.78 153.68 123.64 155.44 121.75
  C 157.76 119.27 156.52 117.09 154.70 114.80
  Q 145.65 103.39 137.94 95.05
  A 2.61 2.61 0.0 0 0 134.71 94.56
  L 110.31 108.65
  A 2.23 2.22 67.9 0 0 109.27 111.13
  Q 110.37 115.38 112.93 118.33
  A 1.78 1.76 54.3 0 0 115.14 118.70
  L 125.91 112.48
  Z
  M 69.87 134.89
  Q 70.01 134.81 70.17 134.83
  Q 73.51 135.39 84.10 137.25
  A 2.63 2.62 -70.9 0 0 86.87 135.90
  C 88.22 133.37 89.72 127.53 86.08 126.42
  Q 84.08 125.81 74.69 124.59
  Q 73.15 124.38 72.51 123.83
  A 2.09 2.00 -44.8 0 1 72.59 120.76
  Q 74.99 118.65 77.36 116.86
  C 80.65 114.39 81.90 109.09 77.44 106.82
  Q 75.05 105.61 73.09 106.40
  A 2.49 2.34 11.7 0 0 72.44 106.80
  Q 59.44 118.38 53.93 123.18
  Q 52.54 124.39 52.19 125.92
  A 1.86 1.85 -49.8 0 0 52.28 127.03
  Q 55.06 134.00 55.94 135.43
  Q 61.19 144.02 64.85 151.69
  A 2.23 2.21 71.4 0 0 67.30 152.92
  C 70.55 152.25 76.84 150.64 74.17 145.86
  Q 69.62 137.70 69.24 136.81
  A 1.51 1.51 0.0 0 1 69.87 134.89
  Z
  M 187.17 144.64
  C 184.80 144.26 176.74 141.68 171.92 142.13
  A 1.97 1.96 -88.7 0 0 170.15 143.83
  L 169.25 150.29
  A 2.01 2.01 0.0 0 0 170.99 152.56
  Q 178.01 153.42 183.72 154.31
  C 185.42 154.58 185.92 156.47 184.72 157.54
  C 179.81 161.91 169.73 169.36 182.97 173.61
  A 1.09 1.07 34.8 0 0 183.97 173.44
  C 184.92 172.71 185.64 171.62 186.53 170.79
  Q 194.58 163.30 202.84 156.35
  Q 204.78 154.72 205.30 153.17
  A 2.06 2.01 40.9 0 0 205.17 151.59
  L 192.51 127.45
  A 2.16 2.16 0.0 0 0 190.15 126.34
  Q 186.28 127.15 183.83 128.97
  A 2.52 2.51 59.7 0 0 183.04 132.01
  L 188.13 143.45
  A 0.86 0.86 0.0 0 1 187.17 144.64
  Z
  M 131.30 162.71
  C 133.01 163.56 135.99 168.09 138.05 170.67
  Q 139.20 172.10 140.93 172.81
  A 1.38 1.37 46.7 0 0 141.88 172.84
  Q 146.08 171.40 147.94 167.83
  A 1.87 1.85 -35.2 0 0 148.14 166.71
  Q 147.89 164.77 146.46 163.03
  Q 134.92 148.97 133.17 146.96
  C 130.88 144.33 127.90 141.37 124.28 143.53
  Q 121.81 145.01 107.22 153.62
  C 105.06 154.90 102.49 155.81 100.96 157.33
  A 1.66 1.65 55.6 0 0 100.62 159.17
  L 103.35 165.31
  A 1.50 1.49 -15.5 0 0 104.89 166.18
  Q 110.58 165.49 115.91 161.39
  Q 117.67 160.03 118.94 161.37
  A 0.62 0.61 28.8 0 1 119.10 161.91
  L 116.27 177.10
  A 2.13 2.12 -80.7 0 0 118.06 179.60
  L 124.34 180.47
  A 2.75 2.74 9.2 0 0 127.42 178.26
  L 130.22 163.25
  A 0.75 0.75 0.0 0 1 131.30 162.71
  Z
  M 83.86 182.83
  L 94.13 175.78
  A 3.22 3.20 -24.8 0 0 95.42 172.30
  C 94.37 168.34 91.40 163.62 86.82 167.71
  Q 85.51 168.88 78.13 174.22
  A 1.41 1.41 0.0 0 1 75.90 173.18
  Q 75.52 168.08 76.79 161.99
  A 2.39 2.39 0.0 0 0 74.73 159.13
  Q 73.46 158.98 70.70 159.26
  C 67.94 159.53 65.83 159.45 65.59 162.56
  Q 65.22 167.43 65.10 172.82
  C 64.98 177.64 63.80 182.58 64.12 187.33
  Q 64.27 189.69 66.39 190.61
  Q 70.85 192.54 74.24 193.42
  C 80.65 195.08 86.68 197.39 91.23 198.51
  Q 93.99 199.20 94.78 196.86
  Q 95.85 193.65 96.05 190.95
  A 2.46 2.45 11.7 0 0 94.40 188.45
  L 84.14 184.94
  A 1.19 1.19 0.0 0 1 83.86 182.83
  Z
  M 154.48 198.66
  Q 149.70 197.31 143.67 197.43
  A 1.84 1.84 0.0 0 0 141.88 199.01
  L 140.98 205.49
  A 1.58 1.58 0.0 0 0 142.06 207.21
  Q 143.97 207.84 145.75 208.01
  Q 160.22 209.37 165.99 209.76
  C 171.40 210.12 173.02 208.27 174.33 203.13
  Q 174.65 201.86 178.81 188.78
  Q 180.17 184.53 179.96 180.13
  A 2.23 2.23 0.0 0 0 178.43 178.11
  C 169.16 175.08 169.40 181.50 168.18 188.17
  A 2.15 2.14 -85.0 0 1 166.09 189.93
  Q 164.43 189.94 163.32 188.17
  Q 160.83 184.22 158.68 180.44
  A 3.50 3.50 0.0 0 0 155.79 178.66
  Q 151.36 178.45 148.38 181.91
  A 2.23 2.22 47.2 0 0 148.28 184.70
  C 151.52 189.05 156.63 194.74 155.79 197.91
  A 1.06 1.06 0.0 0 1 154.48 198.66
  Z
  M 117.9049 194.5398
  A 10.10 9.84 -85.6 0 0 107.3190 203.8551
  A 10.10 9.84 -85.6 0 0 116.3551 214.6802
  A 10.10 9.84 -85.6 0 0 126.9410 205.3649
  A 10.10 9.84 -85.6 0 0 117.9049 194.5398
  Z"
/>
<path fill="#ffffff" d="
  M 136.43 62.53
  A 1.06 1.06 0.0 0 0 134.97 61.40
  Q 132.66 62.37 126.94 65.56
  C 120.90 68.91 118.53 64.04 118.85 59.10
  A 3.50 3.48 78.0 0 1 120.69 56.25
  Q 129.63 51.47 137.92 46.19
  C 139.83 44.97 142.30 44.17 144.09 43.63
  A 3.70 3.68 -34.3 0 1 147.42 44.25
  Q 149.12 45.55 150.75 47.50
  Q 158.73 57.03 165.90 66.28
  A 1.09 1.09 0.0 0 1 166.04 67.36
  Q 164.37 71.53 160.48 73.06
  A 3.22 3.22 0.0 0 1 156.87 72.17
  Q 152.31 66.93 150.02 64.33
  Q 149.58 63.84 148.63 63.55
  A 1.11 1.11 0.0 0 0 147.22 64.46
  L 145.10 79.68
  A 1.17 1.16 3.5 0 1 143.97 80.68
  C 141.03 80.73 136.85 80.93 134.50 79.22
  A 0.74 0.74 0.0 0 1 134.20 78.52
  L 136.43 62.53
  Z"
/>
<path fill="#ffffff" d="
  M 100.71 78.65
  A 1.02 1.01 -11.8 0 0 99.81 80.02
  C 100.84 82.79 104.51 85.84 107.42 88.87
  C 109.81 91.36 110.88 93.94 107.95 96.45
  Q 105.54 98.53 103.67 99.17
  A 2.25 2.24 60.0 0 1 101.22 98.51
  Q 93.60 89.60 92.62 88.44
  Q 92.26 88.01 91.37 87.89
  A 2.00 1.92 -84.8 0 0 89.19 89.78
  Q 88.93 94.88 87.92 98.94
  C 86.90 103.04 80.50 101.65 77.63 100.96
  A 0.88 0.86 11.3 0 1 76.97 99.99
  Q 78.63 88.07 80.56 77.88
  Q 81.69 71.95 82.08 71.06
  Q 83.21 68.48 88.26 68.23
  Q 102.16 67.54 108.74 67.16
  Q 111.31 67.01 112.94 67.67
  A 2.87 2.86 10.0 0 1 114.71 70.19
  L 114.98 76.23
  A 1.78 1.77 87.4 0 1 113.29 78.09
  L 100.71 78.65
  Z"
/>
<path fill="#ffffff" d="
  M 182.70 105.60
  A 1.96 1.95 -14.7 0 0 179.77 103.89
  L 168.45 110.42
  A 1.86 1.85 -42.5 0 1 166.45 110.34
  C 162.72 107.73 160.56 102.16 165.63 99.45
  Q 169.53 97.36 174.59 95.19
  A 1.81 1.77 -20.6 0 0 175.61 93.00
  Q 175.23 91.85 174.11 91.38
  Q 171.83 90.43 165.12 87.43
  A 2.66 2.65 14.5 0 1 163.56 84.80
  C 163.93 80.14 165.71 75.49 171.61 78.47
  Q 172.80 79.07 185.32 83.92
  Q 190.09 85.77 193.42 87.67
  A 4.19 4.18 -78.9 0 1 195.50 90.77
  Q 195.90 93.81 195.35 96.57
  Q 194.11 102.76 192.32 114.05
  Q 191.88 116.78 190.69 118.73
  A 1.05 1.02 -75.6 0 1 189.90 119.21
  C 187.45 119.43 184.08 120.05 181.96 118.98
  A 2.62 2.62 0.0 0 1 180.60 115.97
  C 181.54 112.43 182.66 108.63 182.70 105.60
  Z"
/>
<path fill="#ffffff" d="
  M 125.91 112.48
  L 115.14 118.70
  A 1.78 1.76 54.3 0 1 112.93 118.33
  Q 110.37 115.38 109.27 111.13
  A 2.23 2.22 67.9 0 1 110.31 108.65
  L 134.71 94.56
  A 2.61 2.61 0.0 0 1 137.94 95.05
  Q 145.65 103.39 154.70 114.80
  C 156.52 117.09 157.76 119.27 155.44 121.75
  C 153.68 123.64 149.71 125.78 147.38 123.36
  Q 145.35 121.24 140.53 115.47
  A 1.35 1.34 29.2 0 0 138.16 116.14
  L 136.14 130.59
  A 1.59 1.59 0.0 0 1 134.99 131.91
  Q 131.36 132.93 126.72 131.60
  A 1.92 1.92 0.0 0 1 125.33 129.88
  C 124.96 124.67 126.09 120.78 127.26 113.41
  A 0.91 0.91 0.0 0 0 125.91 112.48
  Z"
/>
<path fill="#ffffff" d="
  M 69.87 134.89
  A 1.51 1.51 0.0 0 0 69.24 136.81
  Q 69.62 137.70 74.17 145.86
  C 76.84 150.64 70.55 152.25 67.30 152.92
  A 2.23 2.21 71.4 0 1 64.85 151.69
  Q 61.19 144.02 55.94 135.43
  Q 55.06 134.00 52.28 127.03
  A 1.86 1.85 -49.8 0 1 52.19 125.92
  Q 52.54 124.39 53.93 123.18
  Q 59.44 118.38 72.44 106.80
  A 2.49 2.34 11.7 0 1 73.09 106.40
  Q 75.05 105.61 77.44 106.82
  C 81.90 109.09 80.65 114.39 77.36 116.86
  Q 74.99 118.65 72.59 120.76
  A 2.09 2.00 -44.8 0 0 72.51 123.83
  Q 73.15 124.38 74.69 124.59
  Q 84.08 125.81 86.08 126.42
  C 89.72 127.53 88.22 133.37 86.87 135.90
  A 2.63 2.62 -70.9 0 1 84.10 137.25
  Q 73.51 135.39 70.17 134.83
  Q 70.01 134.81 69.87 134.89
  Z"
/>
<path fill="#ffffff" d="
  M 187.17 144.64
  A 0.86 0.86 0.0 0 0 188.13 143.45
  L 183.04 132.01
  A 2.52 2.51 59.7 0 1 183.83 128.97
  Q 186.28 127.15 190.15 126.34
  A 2.16 2.16 0.0 0 1 192.51 127.45
  L 205.17 151.59
  A 2.06 2.01 40.9 0 1 205.30 153.17
  Q 204.78 154.72 202.84 156.35
  Q 194.58 163.30 186.53 170.79
  C 185.64 171.62 184.92 172.71 183.97 173.44
  A 1.09 1.07 34.8 0 1 182.97 173.61
  C 169.73 169.36 179.81 161.91 184.72 157.54
  C 185.92 156.47 185.42 154.58 183.72 154.31
  Q 178.01 153.42 170.99 152.56
  A 2.01 2.01 0.0 0 1 169.25 150.29
  L 170.15 143.83
  A 1.97 1.96 -88.7 0 1 171.92 142.13
  C 176.74 141.68 184.80 144.26 187.17 144.64
  Z"
/>
<path fill="#ffffff" d="
  M 131.30 162.71
  A 0.75 0.75 0.0 0 0 130.22 163.25
  L 127.42 178.26
  A 2.75 2.74 9.2 0 1 124.34 180.47
  L 118.06 179.60
  A 2.13 2.12 -80.7 0 1 116.27 177.10
  L 119.10 161.91
  A 0.62 0.61 28.8 0 0 118.94 161.37
  Q 117.67 160.03 115.91 161.39
  Q 110.58 165.49 104.89 166.18
  A 1.50 1.49 -15.5 0 1 103.35 165.31
  L 100.62 159.17
  A 1.66 1.65 55.6 0 1 100.96 157.33
  C 102.49 155.81 105.06 154.90 107.22 153.62
  Q 121.81 145.01 124.28 143.53
  C 127.90 141.37 130.88 144.33 133.17 146.96
  Q 134.92 148.97 146.46 163.03
  Q 147.89 164.77 148.14 166.71
  A 1.87 1.85 -35.2 0 1 147.94 167.83
  Q 146.08 171.40 141.88 172.84
  A 1.38 1.37 46.7 0 1 140.93 172.81
  Q 139.20 172.10 138.05 170.67
  C 135.99 168.09 133.01 163.56 131.30 162.71
  Z"
/>
<path fill="#ffffff" d="
  M 83.86 182.83
  A 1.19 1.19 0.0 0 0 84.14 184.94
  L 94.40 188.45
  A 2.46 2.45 11.7 0 1 96.05 190.95
  Q 95.85 193.65 94.78 196.86
  Q 93.99 199.20 91.23 198.51
  C 86.68 197.39 80.65 195.08 74.24 193.42
  Q 70.85 192.54 66.39 190.61
  Q 64.27 189.69 64.12 187.33
  C 63.80 182.58 64.98 177.64 65.10 172.82
  Q 65.22 167.43 65.59 162.56
  C 65.83 159.45 67.94 159.53 70.70 159.26
  Q 73.46 158.98 74.73 159.13
  A 2.39 2.39 0.0 0 1 76.79 161.99
  Q 75.52 168.08 75.90 173.18
  A 1.41 1.41 0.0 0 0 78.13 174.22
  Q 85.51 168.88 86.82 167.71
  C 91.40 163.62 94.37 168.34 95.42 172.30
  A 3.22 3.20 -24.8 0 1 94.13 175.78
  L 83.86 182.83
  Z"
/>
<path fill="#ffffff" d="
  M 154.48 198.66
  A 1.06 1.06 0.0 0 0 155.79 197.91
  C 156.63 194.74 151.52 189.05 148.28 184.70
  A 2.23 2.22 47.2 0 1 148.38 181.91
  Q 151.36 178.45 155.79 178.66
  A 3.50 3.50 0.0 0 1 158.68 180.44
  Q 160.83 184.22 163.32 188.17
  Q 164.43 189.94 166.09 189.93
  A 2.15 2.14 -85.0 0 0 168.18 188.17
  C 169.40 181.50 169.16 175.08 178.43 178.11
  A 2.23 2.23 0.0 0 1 179.96 180.13
  Q 180.17 184.53 178.81 188.78
  Q 174.65 201.86 174.33 203.13
  C 173.02 208.27 171.40 210.12 165.99 209.76
  Q 160.22 209.37 145.75 208.01
  Q 143.97 207.84 142.06 207.21
  A 1.58 1.58 0.0 0 1 140.98 205.49
  L 141.88 199.01
  A 1.84 1.84 0.0 0 1 143.67 197.43
  Q 149.70 197.31 154.48 198.66
  Z"
/>
<ellipse fill="#ffffff" cx="0.00" cy="0.00" transform="translate(117.13,204.61) rotate(-85.6)" rx="10.10" ry="9.84"/>
</svg>