<?xml version="1.0" encoding="UTF-8" standalone="no"?>
<!DOCTYPE svg PUBLIC "-//W3C//DTD SVG 1.1//EN" "http://www.w3.org/Graphics/SVG/1.1/DTD/svg11.dtd">
<svg xmlns="http://www.w3.org/2000/svg" version="1.1" viewBox="0.00 0.00 192.00 192.00" width="128" height="128">
<path fill="#ff6200" d="
  M 1.40 73.87
  A 0.18 0.18 0.0 0 1 1.32 73.55
  C 36.46 48.51 78.29 34.79 121.45 34.58
  A 0.30 0.30 0.0 0 1 121.65 35.10
  L 107.91 47.64
  A 0.32 0.32 0.0 0 0 108.14 48.20
  Q 133.04 46.97 155.57 41.10
  C 166.25 38.31 178.01 33.59 185.95 24.92
  A 0.24 0.24 0.0 0 1 186.36 25.15
  Q 183.84 33.13 180.49 39.96
  C 172.49 56.27 157.12 68.44 140.36 76.63
  Q 124.30 84.48 104.41 91.49
  C 92.21 95.79 77.85 98.91 65.65 102.37
  A 1.06 1.05 57.4 0 1 64.68 102.15
  Q 37.47 78.23 1.40 73.87
  Z"
/>
<path fill="#ff6200" d="
  M 189.37 93.23
  A 0.14 0.14 0.0 0 1 189.39 93.51
  Q 175.22 96.58 161.71 102.22
  C 137.38 112.37 114.87 124.03 91.96 136.79
  A 0.69 0.69 0.0 0 1 91.01 136.50
  Q 83.33 121.26 71.67 108.97
  A 0.37 0.37 0.0 0 1 71.82 108.36
  C 109.48 96.32 150.01 91.73 189.37 93.23
  Z"
/>
<path fill="#ff6200" d="
  M 157.56 119.88
  L 102.98 176.02
  A 0.35 0.34 64.1 0 1 102.39 175.81
  Q 100.90 160.73 95.49 146.81
  A 0.68 0.68 0.0 0 1 95.85 145.94
  L 157.34 119.56
  A 0.20 0.20 0.0 0 1 157.56 119.88
  Z"
/>
</svg>