<?xml version="1.0" encoding="UTF-8" standalone="no"?>
<!DOCTYPE svg PUBLIC "-//W3C//DTD SVG 1.1//EN" "http://www.w3.org/Graphics/SVG/1.1/DTD/svg11.dtd">
<svg xmlns="http://www.w3.org/2000/svg" version="1.1" viewBox="0.00 0.00 300.00 300.00" width="128" height="128">
<path fill="#0076bd" d="
  M 167.45 27.04
  Q 168.84 26.64 171.76 24.92
  Q 172.84 24.28 176.05 22.93
  Q 199.78 12.92 225.26 17.51
  C 246.30 21.31 265.82 33.54 276.70 51.88
  C 291.01 76.00 287.15 105.50 267.98 125.65
  A 0.15 0.15 0.0 0 1 267.73 125.48
  Q 279.01 100.34 271.12 76.06
  C 263.91 53.86 245.63 36.65 223.71 28.82
  Q 196.17 18.98 167.65 27.56
  A 0.29 0.29 0.0 0 1 167.29 27.37
  L 167.28 27.35
  A 0.25 0.24 -17.0 0 1 167.45 27.04
  Z"
/>
<path fill="#0076bd" d="
  M 107.88 55.18
  C 151.88 29.73 212.96 37.71 245.01 79.22
  C 269.98 111.56 267.07 154.83 239.16 184.36
  A 0.23 0.23 0.0 0 1 238.79 184.11
  C 256.03 148.19 247.33 107.56 218.76 80.45
  Q 195.00 57.89 161.61 52.12
  Q 134.85 47.50 108.07 55.61
  A 0.24 0.24 0.0 0 1 107.88 55.18
  Z"
/>
<path fill="#0076bd" d="
  M 23.95 193.91
  Q 19.10 176.33 20.33 161.21
  Q 23.17 126.18 47.78 101.26
  C 64.54 84.30 87.32 73.80 111.24 73.20
  C 163.95 71.88 210.55 101.30 221.04 155.00
  C 231.61 209.04 203.71 260.62 150.84 277.93
  Q 131.21 284.36 107.99 283.86
  C 68.85 283.02 33.27 262.63 14.73 228.07
  A 0.18 0.18 0.0 0 1 15.01 227.86
  Q 25.89 238.31 37.78 246.47
  C 61.69 262.90 88.49 269.95 117.25 269.14
  C 159.80 267.95 196.61 237.20 203.59 194.84
  C 208.81 163.21 196.30 131.68 171.24 111.82
  C 145.56 91.47 110.78 86.14 80.27 98.84
  C 45.15 113.46 26.31 149.47 24.61 186.01
  Q 24.34 191.84 24.17 193.89
  A 0.11 0.11 0.0 0 1 23.95 193.91
  Z"
/>
<path fill="#0076bd" d="
  M 178.84 207.95
  A 0.29 0.29 0.0 0 1 179.20 208.39
  Q 172.85 215.11 164.94 219.68
  C 144.37 231.60 116.56 233.62 94.29 225.40
  C 72.64 217.41 53.10 199.23 47.87 176.16
  Q 46.51 170.14 46.87 164.39
  A 0.13 0.13 0.0 0 1 47.13 164.38
  Q 49.70 180.24 61.60 191.71
  C 77.40 206.96 101.13 216.54 122.99 219.47
  C 142.09 222.03 162.41 218.53 178.84 207.95
  Z"
/>
</svg>