<?xml version="1.0" encoding="UTF-8" standalone="no"?>
<!DOCTYPE svg PUBLIC "-//W3C//DTD SVG 1.1//EN" "http://www.w3.org/Graphics/SVG/1.1/DTD/svg11.dtd">
<svg xmlns="http://www.w3.org/2000/svg" version="1.1" viewBox="0.00 0.00 256.00 256.00" width="128" height="128">
<g stroke-width="2.00" fill="none" stroke-linecap="butt">
<path stroke="#808080" vector-effect="non-scaling-stroke" d="
  M 128.88 0.00
  Q 87.50 2.03 61.64 32.40
  Q 42.68 54.66 40.26 85.54
  C 39.31 97.54 42.05 109.80 46.02 120.75
  Q 51.41 135.58 55.32 143.66
  Q 79.32 193.25 113.42 237.56
  Q 118.81 244.56 125.30 251.45
  Q 127.85 254.15 130.96 256.00"
/>
<path stroke="#808080" vector-effect="non-scaling-stroke" d="
  M 133.76 0.00
  Q 176.16 2.02 202.18 33.56
  Q 220.68 55.98 222.70 87.12
  C 223.40 97.97 220.68 110.20 217.10 120.05
  Q 208.72 143.13 196.62 165.13
  Q 174.98 204.48 149.30 237.77
  Q 145.04 243.30 139.01 250.01
  Q 135.85 253.52 131.98 256.00"
/>
<path stroke="#808080" vector-effect="non-scaling-stroke" d="
  M 131.43 164.55
  C 140.84 164.55 148.87 156.53 148.53 147.20
  Q 148.22 138.79 147.20 124.87
  A 0.74 0.73 -15.3 0 1 147.61 124.17
  C 169.18 113.41 174.79 85.04 158.63 67.03
  C 151.84 59.45 142.01 54.89 131.43 54.89
  C 120.84 54.89 111.02 59.45 104.23 67.03
  C 88.07 85.04 93.68 113.41 115.25 124.17
  A 0.74 0.73 15.3 0 1 115.66 124.87
  Q 114.64 138.79 114.33 147.21
  C 113.99 156.54 122.02 164.55 131.43 164.55"
/>
</g>
<path fill="#ffffff" d="
  M 128.88 0.00
  Q 87.50 2.03 61.64 32.40
  Q 42.68 54.66 40.26 85.54
  C 39.31 97.54 42.05 109.80 46.02 120.75
  Q 51.41 135.58 55.32 143.66
  Q 79.32 193.25 113.42 237.56
  Q 118.81 244.56 125.30 251.45
  Q 127.85 254.15 130.96 256.00
  L 0.00 256.00
  L 0.00 0.00
  L 128.88 0.00
  Z"
/>
<path fill="#000000" d="
  M 133.76 0.00
  Q 176.16 2.02 202.18 33.56
  Q 220.68 55.98 222.70 87.12
  C 223.40 97.97 220.68 110.20 217.10 120.05
  Q 208.72 143.13 196.62 165.13
  Q 174.98 204.48 149.30 237.77
  Q 145.04 243.30 139.01 250.01
  Q 135.85 253.52 131.98 256.00
  L 130.96 256.00
  Q 127.85 254.15 125.30 251.45
  Q 118.81 244.56 113.42 237.56
  Q 79.32 193.25 55.32 143.66
  Q 51.41 135.58 46.02 120.75
  C 42.05 109.80 39.31 97.54 40.26 85.54
  Q 42.68 54.66 61.64 32.40
  Q 87.50 2.03 128.88 0.00
  L 133.76 0.00
  Z
  M 131.43 164.55
  C 140.84 164.55 148.87 156.53 148.53 147.20
  Q 148.22 138.79 147.20 124.87
  A 0.74 0.73 -15.3 0 1 147.61 124.17
  C 169.18 113.41 174.79 85.04 158.63 67.03
  C 151.84 59.45 142.01 54.89 131.43 54.89
  C 120.84 54.89 111.02 59.45 104.23 67.03
  C 88.07 85.04 93.68 113.41 115.25 124.17
  A 0.74 0.73 15.3 0 1 115.66 124.87
  Q 114.64 138.79 114.33 147.21
  C 113.99 156.54 122.02 164.55 131.43 164.55
  Z"
/>
<path fill="#ffffff" d="
  M 256.00 0.00
  L 256.00 256.00
  L 131.98 256.00
  Q 135.85 253.52 139.01 250.01
  Q 145.04 243.30 149.30 237.77
  Q 174.98 204.48 196.62 165.13
  Q 208.72 143.13 217.10 120.05
  C 220.68 110.20 223.40 97.97 222.70 87.12
  Q 220.68 55.98 202.18 33.56
  Q 176.16 2.02 133.76 0.00
  L 256.00 0.00
  Z"
/>
<path fill="#ffffff" d="
  M 131.43 54.89
  C 142.01 54.89 151.84 59.45 158.63 67.03
  C 174.79 85.04 169.18 113.41 147.61 124.17
  A 0.74 0.73 -15.3 0 0 147.20 124.87
  Q 148.22 138.79 148.53 147.20
  C 148.87 156.53 140.84 164.55 131.43 164.55
  C 122.02 164.55 113.99 156.54 114.33 147.21
  Q 114.64 138.79 115.66 124.87
  A 0.74 0.73 15.3 0 0 115.25 124.17
  C 93.68 113.41 88.07 85.04 104.23 67.03
  C 111.02 59.45 120.84 54.89 131.43 54.89
  Z"
/>
</svg>