<?xml version="1.0" encoding="UTF-8" standalone="no"?>
<!DOCTYPE svg PUBLIC "-//W3C//DTD SVG 1.1//EN" "http://www.w3.org/Graphics/SVG/1.1/DTD/svg11.dtd">
<svg xmlns="http://www.w3.org/2000/svg" version="1.1" viewBox="0.00 0.00 128.00 128.00" width="128" height="128">
<g stroke-width="2.00" fill="none" stroke-linecap="butt">
<path stroke="#9d72a1" vector-effect="non-scaling-stroke" d="
  M 79.05 44.75
  L 79.04 51.07"
/>
<path stroke="#b387b7" vector-effect="non-scaling-stroke" d="
  M 79.04 51.07
  L 79.04 65.79"
/>
<path stroke="#a97dad" vector-effect="non-scaling-stroke" d="
  M 79.04 65.79
  L 55.71 66.02
  A 0.57 0.57 0.0 0 0 55.15 66.59
  L 55.15 86.93
  A 0.53 0.53 0.0 0 0 55.68 87.46
  L 78.01 87.46
  A 2.26 2.23 -65.6 0 0 79.50 86.89
  L 102.60 66.10"
/>
<path stroke="#b387b7" vector-effect="non-scaling-stroke" d="
  M 102.60 66.10
  L 102.84 52.04"
/>
<path stroke="#9d72a1" vector-effect="non-scaling-stroke" d="
  M 102.84 52.04
  L 102.86 23.68
  A 0.61 0.61 0.0 0 0 102.25 23.06
  L 85.92 23.05"
/>
<path stroke="#a97dad" vector-effect="non-scaling-stroke" d="
  M 85.92 23.05
  Q 72.61 23.05 59.20 23.01
  C 57.32 23.00 55.48 22.89 54.07 24.07
  Q 53.21 24.78 32.02 43.84
  A 2.09 2.08 69.1 0 0 31.33 45.39
  L 31.33 65.38
  A 0.54 0.54 0.0 0 0 31.87 65.92
  L 54.56 65.92
  A 0.59 0.58 -0.5 0 0 55.15 65.33
  Q 55.11 54.25 55.23 52.79
  Q 55.56 48.65 58.63 46.11
  Q 60.37 44.67 64.81 44.54
  Q 71.96 44.33 79.05 44.75"
/>
<path stroke="#d7d7d7" vector-effect="non-scaling-stroke" d="
  M 85.92 23.05
  Q 86.86 33.67 84.24 43.92
  A 0.70 0.70 0.0 0 1 83.60 44.46
  L 79.05 44.75"
/>
<path stroke="#e1e1e1" vector-effect="non-scaling-stroke" d="
  M 102.84 52.04
  Q 100.33 51.38 98.76 51.33
  Q 94.73 51.21 79.04 51.07"
/>
<path stroke="#ececed" vector-effect="non-scaling-stroke" d="
  M 102.60 66.10
  L 79.04 65.79"
/>
<path stroke="#a97dad" vector-effect="non-scaling-stroke" d="
  M 24.75 88.50
  Q 24.73 104.14 24.75 104.35
  A 0.59 0.59 0.0 0 0 25.32 104.87
  Q 26.17 104.90 37.28 103.86
  Q 47.52 102.91 48.56 92.77
  Q 48.61 92.30 48.61 88.95
  Q 48.63 73.31 48.61 73.10
  A 0.59 0.59 0.0 0 0 48.04 72.58
  Q 47.19 72.55 36.08 73.59
  Q 25.84 74.54 24.80 84.67
  Q 24.75 85.15 24.75 88.50"
/>
</g>
<path fill="#6f1877" d="
  M 128.00 0.00
  L 128.00 128.00
  L 0.00 128.00
  L 0.00 0.00
  L 128.00 0.00
  Z
  M 79.05 44.75
  L 79.04 51.07
  L 79.04 65.79
  L 55.71 66.02
  A 0.57 0.57 0.0 0 0 55.15 66.59
  L 55.15 86.93
  A 0.53 0.53 0.0 0 0 55.68 87.46
  L 78.01 87.46
  A 2.26 2.23 -65.6 0 0 79.50 86.89
  L 102.60 66.10
  L 102.84 52.04
  L 102.86 23.68
  A 0.61 0.61 0.0 0 0 102.25 23.06
  L 85.92 23.05
  Q 72.61 23.05 59.20 23.01
  C 57.32 23.00 55.48 22.89 54.07 24.07
  Q 53.21 24.78 32.02 43.84
  A 2.09 2.08 69.1 0 0 31.33 45.39
  L 31.33 65.38
  A 0.54 0.54 0.0 0 0 31.87 65.92
  L 54.56 65.92
  A 0.59 0.58 -0.5 0 0 55.15 65.33
  Q 55.11 54.25 55.23 52.79
  Q 55.56 48.65 58.63 46.11
  Q 60.37 44.67 64.81 44.54
  Q 71.96 44.33 79.05 44.75
  Z
  M 24.75 88.50
  Q 24.73 104.14 24.75 104.35
  A 0.59 0.59 0.0 0 0 25.32 104.87
  Q 26.17 104.90 37.28 103.86
  Q 47.52 102.91 48.56 92.77
  Q 48.61 92.30 48.61 88.95
  Q 48.63 73.31 48.61 73.10
  A 0.59 0.59 0.0 0 0 48.04 72.58
  Q 47.19 72.55 36.08 73.59
  Q 25.84 74.54 24.80 84.67
  Q 24.75 85.15 24.75 88.50
  Z"
/>
<path fill="#e2e2e3" d="
  M 85.92 23.05
  Q 86.86 33.67 84.24 43.92
  A 0.70 0.70 0.0 0 1 83.60 44.46
  L 79.05 44.75
  Q 71.96 44.33 64.81 44.54
  Q 60.37 44.67 58.63 46.11
  Q 55.56 48.65 55.23 52.79
  Q 55.11 54.25 55.15 65.33
  A 0.59 0.58 -0.5 0 1 54.56 65.92
  L 31.87 65.92
  A 0.54 0.54 0.0 0 1 31.33 65.38
  L 31.33 45.39
  A 2.09 2.08 69.1 0 1 32.02 43.84
  Q 53.21 24.78 54.07 24.07
  C 55.48 22.89 57.32 23.00 59.20 23.01
  Q 72.61 23.05 85.92 23.05
  Z"
/>
<path fill="#cbcbcb" d="
  M 102.84 52.04
  Q 100.33 51.38 98.76 51.33
  Q 94.73 51.21 79.04 51.07
  L 79.05 44.75
  L 83.60 44.46
  A 0.70 0.70 0.0 0 0 84.24 43.92
  Q 86.86 33.67 85.92 23.05
  L 102.25 23.06
  A 0.61 0.61 0.0 0 1 102.86 23.68
  L 102.84 52.04
  Z"
/>
<path fill="#f6f6f6" d="
  M 102.84 52.04
  L 102.60 66.10
  L 79.04 65.79
  L 79.04 51.07
  Q 94.73 51.21 98.76 51.33
  Q 100.33 51.38 102.84 52.04
  Z"
/>
<path fill="#e2e2e3" d="
  M 79.04 65.79
  L 102.60 66.10
  L 79.50 86.89
  A 2.26 2.23 -65.6 0 1 78.01 87.46
  L 55.68 87.46
  A 0.53 0.53 0.0 0 1 55.15 86.93
  L 55.15 66.59
  A 0.57 0.57 0.0 0 1 55.71 66.02
  L 79.04 65.79
  Z"
/>
<path fill="#e2e2e3" d="
  M 24.75 88.50
  Q 24.75 85.15 24.80 84.67
  Q 25.84 74.54 36.08 73.59
  Q 47.19 72.55 48.04 72.58
  A 0.59 0.59 0.0 0 1 48.61 73.10
  Q 48.63 73.31 48.61 88.95
  Q 48.61 92.30 48.56 92.77
  Q 47.52 102.91 37.28 103.86
  Q 26.17 104.90 25.32 104.87
  A 0.59 0.59 0.0 0 1 24.75 104.35
  Q 24.73 104.14 24.75 88.50
  Z"
/>
</svg>