<?xml version="1.0" encoding="UTF-8" standalone="no"?>
<!DOCTYPE svg PUBLIC "-//W3C//DTD SVG 1.1//EN" "http://www.w3.org/Graphics/SVG/1.1/DTD/svg11.dtd">
<svg xmlns="http://www.w3.org/2000/svg" version="1.1" viewBox="0.00 0.00 256.00 256.00" width="128" height="128">
<g stroke-width="2.00" fill="none" stroke-linecap="butt">
<path stroke="#808080" vector-effect="non-scaling-stroke" d="
  M 54.85 33.12
  C 50.81 38.00 51.31 47.23 52.29 53.87
  Q 53.35 61.01 53.39 68.02
  Q 53.44 77.74 53.36 124.38
  Q 53.36 125.82 53.36 126.00
  Q 53.35 179.39 53.25 182.63
  C 53.08 187.58 53.29 192.79 53.16 199.04
  C 53.03 205.39 51.50 212.10 52.09 218.60
  Q 52.50 223.19 56.78 225.48
  A 2.99 2.81 -24.4 0 0 57.75 225.81
  Q 69.52 227.76 75.84 227.34
  Q 86.16 226.67 88.68 226.50
  A 3.68 3.67 11.7 0 0 91.70 224.52
  C 93.67 220.73 93.78 213.38 93.50 209.25
  Q 92.51 194.65 92.57 184.80
  C 92.64 175.12 93.72 166.56 95.02 157.76
  C 95.48 154.68 98.82 152.66 102.20 152.52
  C 105.06 152.40 109.19 151.78 112.58 151.81
  Q 134.82 151.98 144.73 151.83
  Q 161.79 151.57 176.69 143.09
  Q 182.44 139.83 188.04 133.42
  C 193.20 127.52 198.89 120.47 200.63 112.61
  C 201.40 109.09 202.66 105.31 203.27 101.48
  Q 207.24 76.42 194.93 55.70
  Q 190.68 48.56 185.31 43.93
  Q 179.49 38.91 172.71 35.29
  C 165.27 31.32 154.49 30.16 146.05 30.09
  Q 115.87 29.85 81.11 29.79
  C 72.97 29.77 65.92 30.89 57.81 31.57
  A 4.33 4.29 -72.4 0 0 54.85 33.12"
/>
<path stroke="#808080" vector-effect="non-scaling-stroke" d="
  M 96.96 117.78
  Q 100.59 120.43 108.02 120.23
  Q 115.89 120.02 122.25 120.03
  Q 139.17 120.07 154.54 112.30
  Q 157.97 110.57 159.60 106.57
  Q 163.86 96.12 162.56 86.11
  Q 162.10 82.53 161.05 80.44
  C 157.92 74.22 156.35 69.04 149.03 66.69
  Q 143.80 65.01 142.57 64.73
  Q 136.27 63.27 121.00 63.01
  Q 105.65 62.75 104.01 62.93
  C 99.48 63.42 93.79 64.32 93.35 69.02
  Q 91.50 88.81 93.12 107.99
  Q 93.49 112.46 96.25 117.00
  A 2.78 2.74 -87.7 0 0 96.96 117.78"
/>
</g>
<path fill="#ffffff" d="
  M 256.00 0.00
  L 256.00 256.00
  L 0.00 256.00
  L 0.00 0.00
  L 256.00 0.00
  Z
  M 54.85 33.12
  C 50.81 38.00 51.31 47.23 52.29 53.87
  Q 53.35 61.01 53.39 68.02
  Q 53.44 77.74 53.36 124.38
  Q 53.36 125.82 53.36 126.00
  Q 53.35 179.39 53.25 182.63
  C 53.08 187.58 53.29 192.79 53.16 199.04
  C 53.03 205.39 51.50 212.10 52.09 218.60
  Q 52.50 223.19 56.78 225.48
  A 2.99 2.81 -24.4 0 0 57.75 225.81
  Q 69.52 227.76 75.84 227.34
  Q 86.16 226.67 88.68 226.50
  A 3.68 3.67 11.7 0 0 91.70 224.52
  C 93.67 220.73 93.78 213.38 93.50 209.25
  Q 92.51 194.65 92.57 184.80
  C 92.64 175.12 93.72 166.56 95.02 157.76
  C 95.48 154.68 98.82 152.66 102.20 152.52
  C 105.06 152.40 109.19 151.78 112.58 151.81
  Q 134.82 151.98 144.73 151.83
  Q 161.79 151.57 176.69 143.09
  Q 182.44 139.83 188.04 133.42
  C 193.20 127.52 198.89 120.47 200.63 112.61
  C 201.40 109.09 202.66 105.31 203.27 101.48
  Q 207.24 76.42 194.93 55.70
  Q 190.68 48.56 185.31 43.93
  Q 179.49 38.91 172.71 35.29
  C 165.27 31.32 154.49 30.16 146.05 30.09
  Q 115.87 29.85 81.11 29.79
  C 72.97 29.77 65.92 30.89 57.81 31.57
  A 4.33 4.29 -72.4 0 0 54.85 33.12
  Z"
/>
<path fill="#000000" d="
  M 54.85 33.12
  A 4.33 4.29 -72.4 0 1 57.81 31.57
  C 65.92 30.89 72.97 29.77 81.11 29.79
  Q 115.87 29.85 146.05 30.09
  C 154.49 30.16 165.27 31.32 172.71 35.29
  Q 179.49 38.91 185.31 43.93
  Q 190.68 48.56 194.93 55.70
  Q 207.24 76.42 203.27 101.48
  C 202.66 105.31 201.40 109.09 200.63 112.61
  C 198.89 120.47 193.20 127.52 188.04 133.42
  Q 182.44 139.83 176.69 143.09
  Q 161.79 151.57 144.73 151.83
  Q 134.82 151.98 112.58 151.81
  C 109.19 151.78 105.06 152.40 102.20 152.52
  C 98.82 152.66 95.48 154.68 95.02 157.76
  C 93.72 166.56 92.64 175.12 92.57 184.80
  Q 92.51 194.65 93.50 209.25
  C 93.78 213.38 93.67 220.73 91.70 224.52
  A 3.68 3.67 11.7 0 1 88.68 226.50
  Q 86.16 226.67 75.84 227.34
  Q 69.52 227.76 57.75 225.81
  A 2.99 2.81 -24.4 0 1 56.78 225.48
  Q 52.50 223.19 52.09 218.60
  C 51.50 212.10 53.03 205.39 53.16 199.04
  C 53.29 192.79 53.08 187.58 53.25 182.63
  Q 53.35 179.39 53.36 126.00
  Q 53.36 125.82 53.36 124.38
  Q 53.44 77.74 53.39 68.02
  Q 53.35 61.01 52.29 53.87
  C 51.31 47.23 50.81 38.00 54.85 33.12
  Z
  M 96.96 117.78
  Q 100.59 120.43 108.02 120.23
  Q 115.89 120.02 122.25 120.03
  Q 139.17 120.07 154.54 112.30
  Q 157.97 110.57 159.60 106.57
  Q 163.86 96.12 162.56 86.11
  Q 162.10 82.53 161.05 80.44
  C 157.92 74.22 156.35 69.04 149.03 66.69
  Q 143.80 65.01 142.57 64.73
  Q 136.27 63.27 121.00 63.01
  Q 105.65 62.75 104.01 62.93
  C 99.48 63.42 93.79 64.32 93.35 69.02
  Q 91.50 88.81 93.12 107.99
  Q 93.49 112.46 96.25 117.00
  A 2.78 2.74 -87.7 0 0 96.96 117.78
  Z"
/>
<path fill="#ffffff" d="
  M 96.25 117.00
  Q 93.49 112.46 93.12 107.99
  Q 91.50 88.81 93.35 69.02
  C 93.79 64.32 99.48 63.42 104.01 62.93
  Q 105.65 62.75 121.00 63.01
  Q 136.27 63.27 142.57 64.73
  Q 143.80 65.01 149.03 66.69
  C 156.35 69.04 157.92 74.22 161.05 80.44
  Q 162.10 82.53 162.56 86.11
  Q 163.86 96.12 159.60 106.57
  Q 157.97 110.57 154.54 112.30
  Q 139.17 120.07 122.25 120.03
  Q 115.89 120.02 108.02 120.23
  Q 100.59 120.43 96.96 117.78
  A 2.78 2.74 -87.7 0 1 96.25 117.00
  Z"
/>
</svg>