<?xml version="1.0" encoding="UTF-8" standalone="no"?>
<!DOCTYPE svg PUBLIC "-//W3C//DTD SVG 1.1//EN" "http://www.w3.org/Graphics/SVG/1.1/DTD/svg11.dtd">
<svg xmlns="http://www.w3.org/2000/svg" version="1.1" viewBox="0.00 0.00 180.00 180.00" width="128" height="128">
<g stroke-width="2.00" fill="none" stroke-linecap="butt">
<path stroke="#bbbbf5" vector-effect="non-scaling-stroke" d="
  M 38.57 49.23
  L 38.59 56.82"
/>
<path stroke="#b7b6f4" vector-effect="non-scaling-stroke" d="
  M 38.59 56.82
  L 38.58 67.05"
/>
<path stroke="#b3b0f2" vector-effect="non-scaling-stroke" d="
  M 38.58 67.05
  L 38.58 73.55"
/>
<path stroke="#ada7ef" vector-effect="non-scaling-stroke" d="
  M 38.58 73.55
  L 38.59 86.77"
/>
<path stroke="#a89fed" vector-effect="non-scaling-stroke" d="
  M 38.59 86.77
  L 38.59 97.11
  A 0.29 0.29 0.0 0 0 39.12 97.28
  Q 41.97 93.29 44.16 90.06
  C 47.81 84.70 50.78 81.89 56.77 81.93
  C 59.63 81.95 62.84 83.72 66.73 85.35
  C 68.85 86.24 70.09 85.93 71.39 84.14
  Q 75.83 77.98 85.73 64.00
  C 90.45 57.33 96.74 56.94 104.10 60.45
  Q 105.63 61.18 113.39 64.36
  Q 115.64 65.28 117.07 63.29
  Q 125.19 51.88 132.39 41.84
  A 0.68 0.68 0.0 0 0 132.37 41.02
  L 129.04 36.90"
/>
<path stroke="#ada7ef" vector-effect="non-scaling-stroke" d="
  M 129.04 36.90
  Q 123.76 30.99 116.88 27.48"
/>
<path stroke="#b3b0f2" vector-effect="non-scaling-stroke" d="
  M 116.88 27.48
  L 111.28 24.91"
/>
<path stroke="#b7b6f4" vector-effect="non-scaling-stroke" d="
  M 111.28 24.91
  Q 105.54 22.71 99.48 22.16"
/>
<path stroke="#bbbbf5" vector-effect="non-scaling-stroke" d="
  M 99.48 22.16
  L 84.26 22.06"
/>
<path stroke="#c1c4f8" vector-effect="non-scaling-stroke" d="
  M 84.26 22.06
  L 45.05 22.07
  A 3.32 3.25 -53.1 0 0 44.07 22.22
  Q 40.00 23.56 38.73 27.91
  A 2.54 2.41 54.7 0 0 38.63 28.61
  L 38.57 49.23"
/>
<path stroke="#7c7fee" vector-effect="non-scaling-stroke" d="
  M 84.26 22.06
  Q 61.81 36.48 38.57 49.23"
/>
<path stroke="#7371ea" vector-effect="non-scaling-stroke" d="
  M 99.48 22.16
  L 38.59 56.82"
/>
<path stroke="#6b67e7" vector-effect="non-scaling-stroke" d="
  M 111.28 24.91
  L 38.58 67.05"
/>
<path stroke="#6158e2" vector-effect="non-scaling-stroke" d="
  M 116.88 27.48
  L 38.58 73.55"
/>
<path stroke="#5547dd" vector-effect="non-scaling-stroke" d="
  M 129.04 36.90
  Q 97.78 53.56 67.22 71.31
  Q 58.06 76.63 38.59 86.77"
/>
<path stroke="#c1c4f8" vector-effect="non-scaling-stroke" d="
  M 115.46 68.77
  Q 114.15 69.60 112.05 68.72
  Q 106.94 66.56 101.81 64.44
  C 97.24 62.54 93.12 61.64 90.05 65.88
  Q 79.92 79.87 76.26 85.15
  C 73.49 89.15 70.67 91.53 65.89 89.87
  C 60.64 88.05 54.81 83.48 49.68 90.17
  Q 48.77 91.36 38.98 105.12
  A 2.16 2.11 -27.7 0 0 38.58 106.36
  L 38.58 116.55"
/>
<path stroke="#bbbbf5" vector-effect="non-scaling-stroke" d="
  M 38.58 116.55
  L 38.58 123.05"
/>
<path stroke="#b7b6f4" vector-effect="non-scaling-stroke" d="
  M 38.58 123.05
  L 38.58 129.54"
/>
<path stroke="#b3b0f2" vector-effect="non-scaling-stroke" d="
  M 38.58 129.54
  L 38.58 141.04"
/>
<path stroke="#ada7ef" vector-effect="non-scaling-stroke" d="
  M 38.58 141.04
  L 38.60 145.59"
/>
<path stroke="#a89fed" vector-effect="non-scaling-stroke" d="
  M 38.60 145.59
  C 38.52 148.24 38.24 151.38 39.32 153.70
  Q 41.30 157.99 46.51 157.99
  Q 59.22 157.98 60.69 158.01
  C 67.96 158.15 73.34 156.61 78.21 151.97
  Q 82.12 148.23 83.93 143.00
  Q 84.91 140.18 84.95 132.53
  Q 84.97 127.24 84.91 121.98"
/>
<path stroke="#ada7ef" vector-effect="non-scaling-stroke" d="
  M 84.91 121.98
  L 84.98 115.07
  A 0.53 0.53 0.0 0 1 85.52 114.54
  Q 95.60 114.70 98.77 114.34
  C 117.09 112.22 132.63 100.94 138.86 83.46"
/>
<path stroke="#b3b0f2" vector-effect="non-scaling-stroke" d="
  M 138.86 83.46
  Q 140.98 77.33 141.37 70.79"
/>
<path stroke="#b7b6f4" vector-effect="non-scaling-stroke" d="
  M 141.37 70.79
  L 141.22 63.99"
/>
<path stroke="#bbbbf5" vector-effect="non-scaling-stroke" d="
  M 141.22 63.99
  Q 140.34 54.43 135.71 46.01
  A 0.40 0.40 0.0 0 0 135.04 45.97
  Q 127.88 55.90 120.72 65.97
  Q 118.64 68.89 115.46 68.77"
/>
<path stroke="#7371ea" vector-effect="non-scaling-stroke" d="
  M 141.22 63.99
  L 38.58 123.05"
/>
<path stroke="#7c7fee" vector-effect="non-scaling-stroke" d="
  M 38.58 116.55
  L 38.81 114.28
  A 0.98 0.97 77.7 0 1 39.28 113.54
  L 115.46 68.77"
/>
<path stroke="#6b67e7" vector-effect="non-scaling-stroke" d="
  M 141.37 70.79
  Q 130.38 76.20 114.14 85.39
  Q 82.99 103.02 52.12 121.17
  Q 45.26 125.20 38.58 129.54"
/>
<path stroke="#6158e2" vector-effect="non-scaling-stroke" d="
  M 138.86 83.46
  Q 126.79 89.61 120.32 93.33
  Q 89.03 111.33 57.64 129.15
  Q 52.36 132.15 38.58 141.04"
/>
<path stroke="#5547dd" vector-effect="non-scaling-stroke" d="
  M 84.91 121.98
  L 84.60 120.61
  A 0.37 0.37 0.0 0 0 84.06 120.37
  L 38.60 145.59"
/>
</g>
<path fill="#ffffff" d="
  M 180.00 0.00
  L 180.00 180.00
  L 0.00 180.00
  L 0.00 0.00
  L 180.00 0.00
  Z
  M 38.57 49.23
  L 38.59 56.82
  L 38.58 67.05
  L 38.58 73.55
  L 38.59 86.77
  L 38.59 97.11
  A 0.29 0.29 0.0 0 0 39.12 97.28
  Q 41.97 93.29 44.16 90.06
  C 47.81 84.70 50.78 81.89 56.77 81.93
  C 59.63 81.95 62.84 83.72 66.73 85.35
  C 68.85 86.24 70.09 85.93 71.39 84.14
  Q 75.83 77.98 85.73 64.00
  C 90.45 57.33 96.74 56.94 104.10 60.45
  Q 105.63 61.18 113.39 64.36
  Q 115.64 65.28 117.07 63.29
  Q 125.19 51.88 132.39 41.84
  A 0.68 0.68 0.0 0 0 132.37 41.02
  L 129.04 36.90
  Q 123.76 30.99 116.88 27.48
  L 111.28 24.91
  Q 105.54 22.71 99.48 22.16
  L 84.26 22.06
  L 45.05 22.07
  A 3.32 3.25 -53.1 0 0 44.07 22.22
  Q 40.00 23.56 38.73 27.91
  A 2.54 2.41 54.7 0 0 38.63 28.61
  L 38.57 49.23
  Z
  M 115.46 68.77
  Q 114.15 69.60 112.05 68.72
  Q 106.94 66.56 101.81 64.44
  C 97.24 62.54 93.12 61.64 90.05 65.88
  Q 79.92 79.87 76.26 85.15
  C 73.49 89.15 70.67 91.53 65.89 89.87
  C 60.64 88.05 54.81 83.48 49.68 90.17
  Q 48.77 91.36 38.98 105.12
  A 2.16 2.11 -27.7 0 0 38.58 106.36
  L 38.58 116.55
  L 38.58 123.05
  L 38.58 129.54
  L 38.58 141.04
  L 38.60 145.59
  C 38.52 148.24 38.24 151.38 39.32 153.70
  Q 41.30 157.99 46.51 157.99
  Q 59.22 157.98 60.69 158.01
  C 67.96 158.15 73.34 156.61 78.21 151.97
  Q 82.12 148.23 83.93 143.00
  Q 84.91 140.18 84.95 132.53
  Q 84.97 127.24 84.91 121.98
  L 84.98 115.07
  A 0.53 0.53 0.0 0 1 85.52 114.54
  Q 95.60 114.70 98.77 114.34
  C 117.09 112.22 132.63 100.94 138.86 83.46
  Q 140.98 77.33 141.37 70.79
  L 141.22 63.99
  Q 140.34 54.43 135.71 46.01
  A 0.40 0.40 0.0 0 0 135.04 45.97
  Q 127.88 55.90 120.72 65.97
  Q 118.64 68.89 115.46 68.77
  Z"
/>
<path fill="#8288f1" d="
  M 84.26 22.06
  Q 61.81 36.48 38.57 49.23
  L 38.63 28.61
  A 2.54 2.41 54.7 0 1 38.73 27.91
  Q 40.00 23.56 44.07 22.22
  A 3.32 3.25 -53.1 0 1 45.05 22.07
  L 84.26 22.06
  Z"
/>
<path fill="#7676eb" d="
  M 99.48 22.16
  L 38.59 56.82
  L 38.57 49.23
  Q 61.81 36.48 84.26 22.06
  L 99.48 22.16
  Z"
/>
<path fill="#6f6ce8" d="
  M 111.28 24.91
  L 38.58 67.05
  L 38.59 56.82
  L 99.48 22.16
  Q 105.54 22.71 111.28 24.91
  Z"
/>
<path fill="#6761e5" d="
  M 111.28 24.91
  L 116.88 27.48
  L 38.58 73.55
  L 38.58 67.05
  L 111.28 24.91
  Z"
/>
<path fill="#5a4edf" d="
  M 116.88 27.48
  Q 123.76 30.99 129.04 36.90
  Q 97.78 53.56 67.22 71.31
  Q 58.06 76.63 38.59 86.77
  L 38.58 73.55
  L 116.88 27.48
  Z"
/>
<path fill="#503fda" d="
  M 129.04 36.90
  L 132.37 41.02
  A 0.68 0.68 0.0 0 1 132.39 41.84
  Q 125.19 51.88 117.07 63.29
  Q 115.64 65.28 113.39 64.36
  Q 105.63 61.18 104.10 60.45
  C 96.74 56.94 90.45 57.33 85.73 64.00
  Q 75.83 77.98 71.39 84.14
  C 70.09 85.93 68.85 86.24 66.73 85.35
  C 62.84 83.72 59.63 81.95 56.77 81.93
  C 50.78 81.89 47.81 84.70 44.16 90.06
  Q 41.97 93.29 39.12 97.28
  A 0.29 0.29 0.0 0 1 38.59 97.11
  L 38.59 86.77
  Q 58.06 76.63 67.22 71.31
  Q 97.78 53.56 129.04 36.90
  Z"
/>
<path fill="#7676eb" d="
  M 141.22 63.99
  L 38.58 123.05
  L 38.58 116.55
  L 38.81 114.28
  A 0.98 0.97 77.7 0 1 39.28 113.54
  L 115.46 68.77
  Q 118.64 68.89 120.72 65.97
  Q 127.88 55.90 135.04 45.97
  A 0.40 0.40 0.0 0 1 135.71 46.01
  Q 140.34 54.43 141.22 63.99
  Z"
/>
<path fill="#8288f1" d="
  M 115.46 68.77
  L 39.28 113.54
  A 0.98 0.97 77.7 0 0 38.81 114.28
  L 38.58 116.55
  L 38.58 106.36
  A 2.16 2.11 -27.7 0 1 38.98 105.12
  Q 48.77 91.36 49.68 90.17
  C 54.81 83.48 60.64 88.05 65.89 89.87
  C 70.67 91.53 73.49 89.15 76.26 85.15
  Q 79.92 79.87 90.05 65.88
  C 93.12 61.64 97.24 62.54 101.81 64.44
  Q 106.94 66.56 112.05 68.72
  Q 114.15 69.60 115.46 68.77
  Z"
/>
<path fill="#6f6ce8" d="
  M 141.22 63.99
  L 141.37 70.79
  Q 130.38 76.20 114.14 85.39
  Q 82.99 103.02 52.12 121.17
  Q 45.26 125.20 38.58 129.54
  L 38.58 123.05
  L 141.22 63.99
  Z"
/>
<path fill="#6761e5" d="
  M 141.37 70.79
  Q 140.98 77.33 138.86 83.46
  Q 126.79 89.61 120.32 93.33
  Q 89.03 111.33 57.64 129.15
  Q 52.36 132.15 38.58 141.04
  L 38.58 129.54
  Q 45.26 125.20 52.12 121.17
  Q 82.99 103.02 114.14 85.39
  Q 130.38 76.20 141.37 70.79
  Z"
/>
<path fill="#5a4edf" d="
  M 138.86 83.46
  C 132.63 100.94 117.09 112.22 98.77 114.34
  Q 95.60 114.70 85.52 114.54
  A 0.53 0.53 0.0 0 0 84.98 115.07
  L 84.91 121.98
  L 84.60 120.61
  A 0.37 0.37 0.0 0 0 84.06 120.37
  L 38.60 145.59
  L 38.58 141.04
  Q 52.36 132.15 57.64 129.15
  Q 89.03 111.33 120.32 93.33
  Q 126.79 89.61 138.86 83.46
  Z"
/>
<path fill="#503fda" d="
  M 84.91 121.98
  Q 84.97 127.24 84.95 132.53
  Q 84.91 140.18 83.93 143.00
  Q 82.12 148.23 78.21 151.97
  C 73.34 156.61 67.96 158.15 60.69 158.01
  Q 59.22 157.98 46.51 157.99
  Q 41.30 157.99 39.32 153.70
  C 38.24 151.38 38.52 148.24 38.60 145.59
  L 84.06 120.37
  A 0.37 0.37 0.0 0 1 84.60 120.61
  L 84.91 121.98
  Z"
/>
</svg>