<?xml version="1.0" encoding="UTF-8" standalone="no"?>
<!DOCTYPE svg PUBLIC "-//W3C//DTD SVG 1.1//EN" "http://www.w3.org/Graphics/SVG/1.1/DTD/svg11.dtd">
<svg xmlns="http://www.w3.org/2000/svg" version="1.1" viewBox="0.00 0.00 192.00 192.00" width="128" height="128">
<path fill="#4574eb" d="
  M 96.16 0.30
  Q 118.16 0.31 118.68 0.31
  Q 128.15 0.39 132.16 1.77
  C 143.77 5.78 152.57 16.75 152.56 29.50
  Q 152.56 39.06 152.51 44.83
  A 0.43 0.43 0.0 0 1 152.08 45.26
  L 136.64 45.26
  A 0.58 0.58 0.0 0 1 136.06 44.69
  Q 136.01 35.52 136.07 32.80
  C 136.24 25.48 134.86 20.93 128.70 17.94
  Q 126.73 16.98 120.68 16.92
  Q 116.48 16.87 96.16 16.87
  Q 75.83 16.87 71.64 16.91
  Q 65.59 16.97 63.62 17.93
  C 57.46 20.92 56.08 25.47 56.24 32.79
  Q 56.30 35.51 56.25 44.68
  A 0.58 0.58 0.0 0 1 55.67 45.25
  L 40.23 45.25
  A 0.43 0.43 0.0 0 1 39.80 44.82
  Q 39.75 39.05 39.75 29.49
  C 39.75 16.74 48.55 5.77 60.16 1.76
  Q 64.17 0.38 73.64 0.30
  Q 74.16 0.30 96.16 0.30
  Z"
/>
<path fill="#4574eb" d="
  M 71.24 128.73
  L 71.24 62.89
  A 0.29 0.29 0.0 0 1 71.53 62.60
  Q 92.08 62.50 102.46 62.60
  C 114.18 62.73 122.35 69.53 125.09 80.71
  C 126.76 87.51 125.28 95.09 121.47 100.81
  C 117.10 107.39 108.57 110.79 100.74 110.87
  Q 96.37 110.92 90.40 110.82
  A 0.59 0.59 0.0 0 0 89.80 111.41
  L 89.80 128.83
  A 0.61 0.60 -0.0 0 1 89.19 129.43
  L 71.95 129.43
  A 0.71 0.70 -0.0 0 1 71.24 128.73
  Z
  M 89.77 77.84
  L 89.83 95.24
  A 0.32 0.32 0.0 0 0 90.15 95.56
  L 97.47 95.53
  A 8.87 8.86 89.8 0 0 106.30 86.63
  L 106.30 86.33
  A 8.87 8.86 89.8 0 0 97.41 77.49
  L 90.09 77.52
  A 0.32 0.32 0.0 0 0 89.77 77.84
  Z"
/>
<path fill="#4574eb" d="
  M 96.21 175.14
  Q 116.53 175.15 120.72 175.10
  Q 126.78 175.05 128.75 174.09
  C 134.91 171.10 136.29 166.55 136.12 159.23
  Q 136.06 156.51 136.12 147.34
  A 0.58 0.58 0.0 0 1 136.70 146.77
  L 152.14 146.78
  A 0.43 0.43 0.0 0 1 152.57 147.21
  Q 152.61 152.98 152.61 162.54
  C 152.62 175.28 143.81 186.25 132.20 190.26
  Q 128.19 191.64 118.72 191.71
  Q 118.20 191.72 96.20 191.71
  Q 74.21 191.71 73.69 191.70
  Q 64.21 191.62 60.20 190.24
  C 48.60 186.23 39.80 175.26 39.81 162.51
  Q 39.81 152.95 39.86 147.18
  A 0.43 0.43 0.0 0 1 40.29 146.75
  L 55.73 146.75
  A 0.58 0.58 0.0 0 1 56.31 147.32
  Q 56.36 156.49 56.30 159.21
  C 56.13 166.53 57.51 171.08 63.67 174.07
  Q 65.64 175.03 71.69 175.09
  Q 75.88 175.14 96.21 175.14
  Z"
/>
</svg>