<?xml version="1.0" encoding="UTF-8" standalone="no"?>
<!DOCTYPE svg PUBLIC "-//W3C//DTD SVG 1.1//EN" "http://www.w3.org/Graphics/SVG/1.1/DTD/svg11.dtd">
<svg xmlns="http://www.w3.org/2000/svg" version="1.1" viewBox="0.00 0.00 180.00 180.00" width="128" height="128">
<g stroke-width="2.00" fill="none" stroke-linecap="butt">
<path stroke="#8ba9f8" vector-effect="non-scaling-stroke" d="
  M 134.56 31.01
  A 0.49 0.49 0.0 0 0 133.94 30.54
  L 37.74 57.60
  A 0.49 0.49 0.0 0 0 37.38 58.07
  L 37.38 122.60
  A 0.49 0.49 0.0 0 0 37.74 123.07
  L 133.94 150.15
  A 0.49 0.49 0.0 0 0 134.56 149.68
  L 134.56 31.01"
/>
<path stroke="#8ba9f8" vector-effect="non-scaling-stroke" d="
  M 124.69 82.45
  A 0.36 0.36 0.0 0 0 125.15 82.10
  L 125.15 43.04
  A 0.36 0.36 0.0 0 0 124.69 42.69
  L 55.32 62.22
  A 0.36 0.36 0.0 0 0 55.32 62.92
  L 124.69 82.45"
/>
<path stroke="#8ba9f8" vector-effect="non-scaling-stroke" d="
  M 47.22 70.18
  A 0.34 0.34 0.0 0 0 46.79 70.51
  L 46.79 110.15
  A 0.34 0.34 0.0 0 0 47.22 110.48
  L 117.60 90.66
  A 0.34 0.34 0.0 0 0 117.60 90.00
  L 47.22 70.18"
/>
<path stroke="#8ba9f8" vector-effect="non-scaling-stroke" d="
  M 124.73 138.00
  A 0.33 0.33 0.0 0 0 125.15 137.68
  L 125.15 98.54
  A 0.33 0.33 0.0 0 0 124.73 98.22
  L 55.24 117.79
  A 0.33 0.33 0.0 0 0 55.24 118.43
  L 124.73 138.00"
/>
</g>
<path fill="#1652f0" d="
  M 180.00 0.00
  L 180.00 180.00
  L 0.00 180.00
  L 0.00 0.00
  L 180.00 0.00
  Z
  M 134.56 31.01
  A 0.49 0.49 0.0 0 0 133.94 30.54
  L 37.74 57.60
  A 0.49 0.49 0.0 0 0 37.38 58.07
  L 37.38 122.60
  A 0.49 0.49 0.0 0 0 37.74 123.07
  L 133.94 150.15
  A 0.49 0.49 0.0 0 0 134.56 149.68
  L 134.56 31.01
  Z"
/>
<path fill="#ffffff" d="
  M 134.56 31.01
  L 134.56 149.68
  A 0.49 0.49 0.0 0 1 133.94 150.15
  L 37.74 123.07
  A 0.49 0.49 0.0 0 1 37.38 122.60
  L 37.38 58.07
  A 0.49 0.49 0.0 0 1 37.74 57.60
  L 133.94 30.54
  A 0.49 0.49 0.0 0 1 134.56 31.01
  Z
  M 124.69 82.45
  A 0.36 0.36 0.0 0 0 125.15 82.10
  L 125.15 43.04
  A 0.36 0.36 0.0 0 0 124.69 42.69
  L 55.32 62.22
  A 0.36 0.36 0.0 0 0 55.32 62.92
  L 124.69 82.45
  Z
  M 47.22 70.18
  A 0.34 0.34 0.0 0 0 46.79 70.51
  L 46.79 110.15
  A 0.34 0.34 0.0 0 0 47.22 110.48
  L 117.60 90.66
  A 0.34 0.34 0.0 0 0 117.60 90.00
  L 47.22 70.18
  Z
  M 124.73 138.00
  A 0.33 0.33 0.0 0 0 125.15 137.68
  L 125.15 98.54
  A 0.33 0.33 0.0 0 0 124.73 98.22
  L 55.24 117.79
  A 0.33 0.33 0.0 0 0 55.24 118.43
  L 124.73 138.00
  Z"
/>
<path fill="#1652f0" d="
  M 124.69 82.45
  L 55.32 62.92
  A 0.36 0.36 0.0 0 1 55.32 62.22
  L 124.69 42.69
  A 0.36 0.36 0.0 0 1 125.15 43.04
  L 125.15 82.10
  A 0.36 0.36 0.0 0 1 124.69 82.45
  Z"
/>
<path fill="#1652f0" d="
  M 47.22 70.18
  L 117.60 90.00
  A 0.34 0.34 0.0 0 1 117.60 90.66
  L 47.22 110.48
  A 0.34 0.34 0.0 0 1 46.79 110.15
  L 46.79 70.51
  A 0.34 0.34 0.0 0 1 47.22 70.18
  Z"
/>
<path fill="#1652f0" d="
  M 124.73 138.00
  L 55.24 118.43
  A 0.33 0.33 0.0 0 1 55.24 117.79
  L 124.73 98.22
  A 0.33 0.33 0.0 0 1 125.15 98.54
  L 125.15 137.68
  A 0.33 0.33 0.0 0 1 124.73 138.00
  Z"
/>
</svg>