<?xml version="1.0" encoding="UTF-8" standalone="no"?>
<!DOCTYPE svg PUBLIC "-//W3C//DTD SVG 1.1//EN" "http://www.w3.org/Graphics/SVG/1.1/DTD/svg11.dtd">
<svg xmlns="http://www.w3.org/2000/svg" version="1.1" viewBox="0.00 0.00 368.00 368.00" width="128" height="128">
<g stroke-width="2.00" fill="none" stroke-linecap="butt">
<path stroke="#000000" stroke-opacity="0.655" vector-effect="non-scaling-stroke" d="
  M 358.83 173.28
  Q 359.19 186.09 358.75 193.75
  C 356.09 240.15 334.97 284.22 300.60 314.48
  Q 248.99 359.92 178.68 359.11
  Q 175.10 359.07 173.98 358.74
  Q 173.89 358.72 169.46 358.67
  A 26.30 20.96 5.8 0 1 165.75 358.42
  Q 162.06 357.96 149.46 355.50
  C 99.80 345.83 57.09 314.30 31.36 270.18"
/>
<path stroke="#808080" vector-effect="non-scaling-stroke" d="
  M 81.99 41.86
  C 77.31 74.66 77.37 109.66 86.79 141.68
  Q 96.87 176.00 122.87 200.36
  Q 134.76 211.51 150.71 221.63"
/>
<path stroke="#6b6b6b" vector-effect="non-scaling-stroke" d="
  M 150.71 221.63
  L 163.27 228.95"
/>
<path stroke="#808080" vector-effect="non-scaling-stroke" d="
  M 163.27 228.95
  Q 183.26 239.82 205.48 245.72
  A 0.33 0.33 0.0 0 1 205.57 246.32
  Q 181.30 261.26 172.63 287.93
  C 165.50 309.86 167.84 336.13 174.19 358.20
  A 0.34 0.34 0.0 0 0 174.81 358.28
  C 177.58 353.70 180.19 349.95 183.87 345.95
  Q 197.77 330.84 213.78 317.97"
/>
<path stroke="#6b6b6b" vector-effect="non-scaling-stroke" d="
  M 213.78 317.97
  Q 213.92 318.03 214.04 318.16
  A 0.52 0.50 -70.6 0 1 214.20 318.51
  Q 215.28 335.78 220.03 352.45
  A 0.24 0.24 0.0 0 0 220.47 352.50
  C 223.17 347.68 226.11 343.46 230.01 339.22
  Q 241.90 326.28 255.46 314.70"
/>
<path stroke="#5f5f6d" vector-effect="non-scaling-stroke" d="
  M 255.46 314.70
  L 259.12 311.71"
/>
<path stroke="#56556f" vector-effect="non-scaling-stroke" d="
  M 259.12 311.71
  L 266.87 305.49"
/>
<path stroke="#464572" vector-effect="non-scaling-stroke" d="
  M 266.87 305.49
  L 273.57 300.54"
/>
<path stroke="#3d3c72" vector-effect="non-scaling-stroke" d="
  M 273.57 300.54
  C 282.22 294.67 291.10 287.90 297.43 279.47"
/>
<path stroke="#293476" vector-effect="non-scaling-stroke" d="
  M 297.43 279.47
  Q 303.73 271.14 307.35 261.27"
/>
<path stroke="#18214e" vector-effect="non-scaling-stroke" d="
  M 307.35 261.27
  L 310.64 248.98"
/>
<path stroke="#293476" vector-effect="non-scaling-stroke" d="
  M 310.64 248.98
  L 310.63 229.92"
/>
<path stroke="#346671" vector-effect="non-scaling-stroke" d="
  M 310.63 229.92
  Q 311.38 228.38 310.92 226.27
  Q 308.87 216.96 303.32 207.67"
/>
<path stroke="#376565" vector-effect="non-scaling-stroke" d="
  M 303.32 207.67
  Q 297.67 197.71 290.03 188.97"
/>
<path stroke="#3a6558" vector-effect="non-scaling-stroke" d="
  M 290.03 188.97
  L 282.57 180.49"
/>
<path stroke="#3d654c" vector-effect="non-scaling-stroke" d="
  M 282.57 180.49
  L 270.47 167.70"
/>
<path stroke="#41653f" vector-effect="non-scaling-stroke" d="
  M 270.47 167.70
  L 244.55 140.00"
/>
<path stroke="#46642a" vector-effect="non-scaling-stroke" d="
  M 244.55 140.00
  L 209.76 102.79"
/>
<path stroke="#496420" vector-effect="non-scaling-stroke" d="
  M 209.76 102.79
  Q 172.86 63.74 157.94 49.81
  C 148.11 40.63 137.28 32.15 129.06 21.39
  A 0.24 0.24 0.0 0 0 128.63 21.50
  Q 124.67 45.44 124.08 69.82"
/>
<path stroke="#808080" vector-effect="non-scaling-stroke" d="
  M 124.08 69.82
  L 89.44 36.75"
/>
<path stroke="#9c9ae1" vector-effect="non-scaling-stroke" d="
  M 266.87 305.49
  C 252.95 293.04 237.76 281.80 222.90 270.43"
/>
<path stroke="#4155c4" vector-effect="non-scaling-stroke" d="
  M 310.64 248.98
  L 299.47 248.46"
/>
<path stroke="#6acbd5" vector-effect="non-scaling-stroke" d="
  M 303.32 207.67
  L 273.25 230.75"
/>
<path stroke="#4aa7e1" vector-effect="non-scaling-stroke" d="
  M 273.25 230.75
  Q 262.80 233.25 253.44 238.21
  A 0.43 0.42 33.2 0 0 253.61 239.01
  Q 254.77 239.11 255.45 239.99"
/>
<path stroke="#6099db" vector-effect="non-scaling-stroke" d="
  M 255.45 239.99
  L 253.62 239.62
  A 0.78 0.74 -17.5 0 1 253.27 239.45
  Q 252.61 238.88 251.62 239.11"
/>
<path stroke="#b6e5e4" vector-effect="non-scaling-stroke" d="
  M 251.62 239.11
  L 228.49 231.34"
/>
<path stroke="#a9b4f6" vector-effect="non-scaling-stroke" d="
  M 251.62 239.11
  L 249.38 240.62"
/>
<path stroke="#bcbcf2" vector-effect="non-scaling-stroke" d="
  M 249.38 240.62
  Q 235.99 249.18 227.15 262.78"
/>
<path stroke="#c6c5f1" vector-effect="non-scaling-stroke" d="
  M 227.15 262.78
  L 222.90 270.43"
/>
<path stroke="#d5d5ef" vector-effect="non-scaling-stroke" d="
  M 222.90 270.43
  L 218.91 279.92"
/>
<path stroke="#dedeed" vector-effect="non-scaling-stroke" d="
  M 218.91 279.92
  L 217.72 284.17"
/>
<path stroke="#ebebeb" vector-effect="non-scaling-stroke" d="
  M 217.72 284.17
  Q 212.93 300.17 214.31 316.75
  Q 214.35 317.12 213.78 317.97"
/>
<path stroke="#b4b4dc" vector-effect="non-scaling-stroke" d="
  M 259.12 311.71
  Q 239.92 294.69 218.91 279.92"
/>
<path stroke="#c6e4aa" vector-effect="non-scaling-stroke" d="
  M 138.65 152.03
  Q 145.32 166.77 155.27 179.44"
/>
<path stroke="#ebebeb" vector-effect="non-scaling-stroke" d="
  M 155.27 179.44
  L 150.71 221.63"
/>
<path stroke="#71cabd" vector-effect="non-scaling-stroke" d="
  M 290.03 188.97
  C 270.30 204.21 250.08 218.85 228.49 231.34"
/>
<path stroke="#bae5d8" vector-effect="non-scaling-stroke" d="
  M 228.49 231.34
  L 215.59 225.57"
/>
<path stroke="#cacad8" vector-effect="non-scaling-stroke" d="
  M 255.46 314.70
  L 217.72 284.17"
/>
<path stroke="#87c969" vector-effect="non-scaling-stroke" d="
  M 244.55 140.00
  Q 222.43 156.33 189.71 179.41
  Q 177.77 187.84 163.63 188.78"
/>
<path stroke="#b1cf95" vector-effect="non-scaling-stroke" d="
  M 163.63 188.78
  L 155.27 179.44"
/>
<path stroke="#8fc84a" vector-effect="non-scaling-stroke" d="
  M 209.76 102.79
  C 186.09 119.32 162.77 136.28 138.65 152.03"
/>
<path stroke="#c9e49f" vector-effect="non-scaling-stroke" d="
  M 138.65 152.03
  C 127.23 126.35 123.35 97.73 124.08 69.82"
/>
<path stroke="#77caa4" vector-effect="non-scaling-stroke" d="
  M 282.57 180.49
  Q 262.71 195.88 242.13 210.09
  Q 229.58 218.75 215.59 225.57"
/>
<path stroke="#bde4cb" vector-effect="non-scaling-stroke" d="
  M 215.59 225.57
  Q 203.73 219.87 192.47 212.32"
/>
<path stroke="#5d9ae7" vector-effect="non-scaling-stroke" d="
  M 310.63 229.92
  L 300.96 228.55"
/>
<path stroke="#47a7ed" vector-effect="non-scaling-stroke" d="
  M 300.96 228.55
  Q 287.01 227.47 273.25 230.75"
/>
<path stroke="#7ec98b" vector-effect="non-scaling-stroke" d="
  M 270.47 167.70
  C 250.78 179.52 233.23 192.30 217.84 202.42
  Q 206.50 209.88 192.47 212.32"
/>
<path stroke="#c0e4bf" vector-effect="non-scaling-stroke" d="
  M 192.47 212.32
  Q 180.03 204.07 168.70 193.76"
/>
<path stroke="#acd0aa" vector-effect="non-scaling-stroke" d="
  M 168.70 193.76
  L 163.63 188.78"
/>
<path stroke="#ebebeb" vector-effect="non-scaling-stroke" d="
  M 168.70 193.76
  Q 164.86 211.17 163.27 228.95"
/>
<path stroke="#8381e4" vector-effect="non-scaling-stroke" d="
  M 273.57 300.54
  C 258.57 287.13 240.93 274.09 227.15 262.78"
/>
<path stroke="#4155c4" vector-effect="non-scaling-stroke" d="
  M 289.07 247.43
  Q 291.63 248.72 293.81 251.23
  A 2.25 2.23 80.3 0 0 294.65 251.83
  C 296.65 252.66 297.29 254.06 299.32 255.20
  Q 300.90 256.08 302.79 258.29
  A 1.18 1.13 -1.3 0 0 303.02 258.50
  L 307.35 261.27"
/>
<path stroke="#6670e8" vector-effect="non-scaling-stroke" d="
  M 297.43 279.47
  L 249.38 240.62"
/>
<path stroke="#3c76f2" vector-effect="non-scaling-stroke" d="
  M 300.96 228.55
  L 299.47 248.46"
/>
<path stroke="#2b63ca" vector-effect="non-scaling-stroke" d="
  M 299.47 248.46
  L 289.07 247.43"
/>
<path stroke="#3c76f2" vector-effect="non-scaling-stroke" d="
  M 289.07 247.43
  Q 271.94 245.20 255.45 239.99"
/>
</g>
<path fill="#000000" d="
  M 358.83 173.28
  Q 359.19 186.09 358.75 193.75
  C 356.09 240.15 334.97 284.22 300.60 314.48
  Q 248.99 359.92 178.68 359.11
  Q 175.10 359.07 173.98 358.74
  Q 173.89 358.72 169.46 358.67
  A 26.30 20.96 5.8 0 1 165.75 358.42
  Q 162.06 357.96 149.46 355.50
  C 99.80 345.83 57.09 314.30 31.36 270.18
  Q 13.05 237.82 9.44 200.98
  Q 8.81 194.66 8.87 187.51
  C 8.92 181.26 8.71 175.76 9.28 169.50
  C 13.94 117.86 39.88 72.16 81.99 41.86
  C 77.31 74.66 77.37 109.66 86.79 141.68
  Q 96.87 176.00 122.87 200.36
  Q 134.76 211.51 150.71 221.63
  L 163.27 228.95
  Q 183.26 239.82 205.48 245.72
  A 0.33 0.33 0.0 0 1 205.57 246.32
  Q 181.30 261.26 172.63 287.93
  C 165.50 309.86 167.84 336.13 174.19 358.20
  A 0.34 0.34 0.0 0 0 174.81 358.28
  C 177.58 353.70 180.19 349.95 183.87 345.95
  Q 197.77 330.84 213.78 317.97
  Q 213.92 318.03 214.04 318.16
  A 0.52 0.50 -70.6 0 1 214.20 318.51
  Q 215.28 335.78 220.03 352.45
  A 0.24 0.24 0.0 0 0 220.47 352.50
  C 223.17 347.68 226.11 343.46 230.01 339.22
  Q 241.90 326.28 255.46 314.70
  L 259.12 311.71
  L 266.87 305.49
  L 273.57 300.54
  C 282.22 294.67 291.10 287.90 297.43 279.47
  Q 303.73 271.14 307.35 261.27
  L 310.64 248.98
  L 310.63 229.92
  Q 311.38 228.38 310.92 226.27
  Q 308.87 216.96 303.32 207.67
  Q 297.67 197.71 290.03 188.97
  L 282.57 180.49
  L 270.47 167.70
  L 244.55 140.00
  L 209.76 102.79
  Q 172.86 63.74 157.94 49.81
  C 148.11 40.63 137.28 32.15 129.06 21.39
  A 0.24 0.24 0.0 0 0 128.63 21.50
  Q 124.67 45.44 124.08 69.82
  L 89.44 36.75
  Q 140.86 4.10 201.26 9.75
  Q 238.40 13.22 271.57 32.47
  C 322.59 62.07 355.07 114.33 358.83 173.28
  Z"
/>
<path fill="#92c83f" d="
  M 209.76 102.79
  C 186.09 119.32 162.77 136.28 138.65 152.03
  C 127.23 126.35 123.35 97.73 124.08 69.82
  Q 124.67 45.44 128.63 21.50
  A 0.24 0.24 0.0 0 1 129.06 21.39
  C 137.28 32.15 148.11 40.63 157.94 49.81
  Q 172.86 63.74 209.76 102.79
  Z"
/>
<path fill="#ffffff" d="
  M 89.44 36.75
  L 124.08 69.82
  C 123.35 97.73 127.23 126.35 138.65 152.03
  Q 145.32 166.77 155.27 179.44
  L 150.71 221.63
  Q 134.76 211.51 122.87 200.36
  Q 96.87 176.00 86.79 141.68
  C 77.37 109.66 77.31 74.66 81.99 41.86
  L 83.65 30.50
  A 0.26 0.26 0.0 0 1 84.11 30.37
  L 89.44 36.75
  Z"
/>
<path fill="#8cc854" d="
  M 209.76 102.79
  L 244.55 140.00
  Q 222.43 156.33 189.71 179.41
  Q 177.77 187.84 163.63 188.78
  L 155.27 179.44
  Q 145.32 166.77 138.65 152.03
  C 162.77 136.28 186.09 119.32 209.76 102.79
  Z"
/>
<path fill="#81c97e" d="
  M 244.55 140.00
  L 270.47 167.70
  C 250.78 179.52 233.23 192.30 217.84 202.42
  Q 206.50 209.88 192.47 212.32
  Q 180.03 204.07 168.70 193.76
  L 163.63 188.78
  Q 177.77 187.84 189.71 179.41
  Q 222.43 156.33 244.55 140.00
  Z"
/>
<path fill="#7ac997" d="
  M 270.47 167.70
  L 282.57 180.49
  Q 262.71 195.88 242.13 210.09
  Q 229.58 218.75 215.59 225.57
  Q 203.73 219.87 192.47 212.32
  Q 206.50 209.88 217.84 202.42
  C 233.23 192.30 250.78 179.52 270.47 167.70
  Z"
/>
<path fill="#000000" fill-opacity="0.310" d="
  M 31.36 270.18
  C 57.09 314.30 99.80 345.83 149.46 355.50
  Q 162.06 357.96 165.75 358.42
  A 26.30 20.96 5.8 0 0 169.46 358.67
  Q 173.89 358.72 173.98 358.74
  Q 175.10 359.07 178.68 359.11
  Q 248.99 359.92 300.60 314.48
  C 334.97 284.22 356.09 240.15 358.75 193.75
  Q 359.19 186.09 358.83 173.28
  Q 359.79 178.73 359.85 181.17
  Q 360.70 214.94 349.91 245.27
  Q 336.38 283.28 307.82 311.83
  Q 293.03 326.62 275.14 337.33
  C 250.45 352.10 221.47 361.57 192.61 362.64
  Q 189.28 362.76 182.13 361.38
  Q 170.90 359.21 157.13 359.54
  Q 152.38 359.65 141.80 357.10
  C 122.96 352.57 106.17 344.52 89.39 334.14
  C 74.27 324.79 61.62 313.25 49.60 299.44
  Q 37.58 285.63 31.36 270.18
  Z"
/>
<path fill="#d6d6d6" d="
  M 163.63 188.78
  L 168.70 193.76
  Q 164.86 211.17 163.27 228.95
  L 150.71 221.63
  L 155.27 179.44
  L 163.63 188.78
  Z"
/>
<path fill="#74cab0" d="
  M 290.03 188.97
  C 270.30 204.21 250.08 218.85 228.49 231.34
  L 215.59 225.57
  Q 229.58 218.75 242.13 210.09
  Q 262.71 195.88 282.57 180.49
  L 290.03 188.97
  Z"
/>
<path fill="#6dcac9" d="
  M 303.32 207.67
  L 273.25 230.75
  Q 262.80 233.25 253.44 238.21
  A 0.43 0.42 33.2 0 0 253.61 239.01
  Q 254.77 239.11 255.45 239.99
  L 253.62 239.62
  A 0.78 0.74 -17.5 0 1 253.27 239.45
  Q 252.61 238.88 251.62 239.11
  L 228.49 231.34
  C 250.08 218.85 270.30 204.21 290.03 188.97
  Q 297.67 197.71 303.32 207.67
  Z"
/>
<path fill="#ffffff" d="
  M 168.70 193.76
  Q 180.03 204.07 192.47 212.32
  Q 203.73 219.87 215.59 225.57
  L 228.49 231.34
  L 251.62 239.11
  L 249.38 240.62
  Q 235.99 249.18 227.15 262.78
  L 222.90 270.43
  L 218.91 279.92
  L 217.72 284.17
  Q 212.93 300.17 214.31 316.75
  Q 214.35 317.12 213.78 317.97
  Q 197.77 330.84 183.87 345.95
  C 180.19 349.95 177.58 353.70 174.81 358.28
  A 0.34 0.34 0.0 0 1 174.19 358.20
  C 167.84 336.13 165.50 309.86 172.63 287.93
  Q 181.30 261.26 205.57 246.32
  A 0.33 0.33 0.0 0 0 205.48 245.72
  Q 183.26 239.82 163.27 228.95
  Q 164.86 211.17 168.70 193.76
  Z"
/>
<path fill="#67cbe1" d="
  M 310.63 229.92
  L 300.96 228.55
  Q 287.01 227.47 273.25 230.75
  L 303.32 207.67
  Q 308.87 216.96 310.92 226.27
  Q 311.38 228.38 310.63 229.92
  Z"
/>
<path fill="#2683f8" d="
  M 300.96 228.55
  L 299.47 248.46
  L 289.07 247.43
  Q 271.94 245.20 255.45 239.99
  Q 254.77 239.11 253.61 239.01
  A 0.43 0.42 33.2 0 1 253.44 238.21
  Q 262.80 233.25 273.25 230.75
  Q 287.01 227.47 300.96 228.55
  Z"
/>
<path fill="#5268ec" d="
  M 310.63 229.92
  L 310.64 248.98
  L 299.47 248.46
  L 300.96 228.55
  L 310.63 229.92
  Z"
/>
<path fill="#5268ec" d="
  M 255.45 239.99
  Q 271.94 245.20 289.07 247.43
  Q 291.63 248.72 293.81 251.23
  A 2.25 2.23 80.3 0 0 294.65 251.83
  C 296.65 252.66 297.29 254.06 299.32 255.20
  Q 300.90 256.08 302.79 258.29
  A 1.18 1.13 -1.3 0 0 303.02 258.50
  L 307.35 261.27
  Q 303.73 271.14 297.43 279.47
  L 249.38 240.62
  L 251.62 239.11
  Q 252.61 238.88 253.27 239.45
  A 0.78 0.74 -17.5 0 0 253.62 239.62
  L 255.45 239.99
  Z"
/>
<path fill="#7978e4" d="
  M 249.38 240.62
  L 297.43 279.47
  C 291.10 287.90 282.22 294.67 273.57 300.54
  C 258.57 287.13 240.93 274.09 227.15 262.78
  Q 235.99 249.18 249.38 240.62
  Z"
/>
<path fill="#2f429b" d="
  M 299.47 248.46
  L 310.64 248.98
  L 307.35 261.27
  L 303.02 258.50
  A 1.18 1.13 -1.3 0 1 302.79 258.29
  Q 300.90 256.08 299.32 255.20
  C 297.29 254.06 296.65 252.66 294.65 251.83
  A 2.25 2.23 80.3 0 1 293.81 251.23
  Q 291.63 248.72 289.07 247.43
  L 299.47 248.46
  Z"
/>
<path fill="#8c8ae3" d="
  M 227.15 262.78
  C 240.93 274.09 258.57 287.13 273.57 300.54
  L 266.87 305.49
  C 252.95 293.04 237.76 281.80 222.90 270.43
  L 227.15 262.78
  Z"
/>
<path fill="#abaade" d="
  M 222.90 270.43
  C 237.76 281.80 252.95 293.04 266.87 305.49
  L 259.12 311.71
  Q 239.92 294.69 218.91 279.92
  L 222.90 270.43
  Z"
/>
<path fill="#bdbdda" d="
  M 218.91 279.92
  Q 239.92 294.69 259.12 311.71
  L 255.46 314.70
  L 217.72 284.17
  L 218.91 279.92
  Z"
/>
<path fill="#d6d6d6" d="
  M 255.46 314.70
  Q 241.90 326.28 230.01 339.22
  C 226.11 343.46 223.17 347.68 220.47 352.50
  A 0.24 0.24 0.0 0 1 220.03 352.45
  Q 215.28 335.78 214.20 318.51
  A 0.52 0.50 -70.6 0 0 214.04 318.16
  Q 213.92 318.03 213.78 317.97
  Q 214.35 317.12 214.31 316.75
  Q 212.93 300.17 217.72 284.17
  L 255.46 314.70
  Z"
/>
</svg>