<?xml version="1.0" encoding="UTF-8" standalone="no"?>
<!DOCTYPE svg PUBLIC "-//W3C//DTD SVG 1.1//EN" "http://www.w3.org/Graphics/SVG/1.1/DTD/svg11.dtd">
<svg xmlns="http://www.w3.org/2000/svg" version="1.1" viewBox="0.00 0.00 256.00 256.00" width="128" height="128">
<g stroke-width="2.00" fill="none" stroke-linecap="butt">
<path stroke="#33186d" vector-effect="non-scaling-stroke" d="
  M 234.70 211.72
  Q 230.64 211.52 226.71 211.99
  Q 219.00 212.91 218.77 212.92
  C 201.06 214.10 190.22 215.29 173.77 215.67
  Q 157.23 216.05 143.95 217.92
  Q 142.01 218.19 119.28 219.22
  Q 114.93 219.41 92.06 220.99
  Q 88.68 221.22 86.94 221.13
  C 82.84 220.93 77.78 221.17 74.21 220.23
  Q 63.75 217.44 58.23 207.46
  A 8.89 8.76 26.1 0 1 57.25 204.66
  Q 53.53 182.32 52.54 158.90
  Q 52.06 147.41 47.52 107.03
  C 46.55 98.43 46.77 90.54 45.71 82.20
  Q 45.20 78.15 44.03 67.87
  Q 43.93 66.98 43.45 57.05
  Q 43.14 50.57 41.44 44.37"
/>
<path stroke="#828283" vector-effect="non-scaling-stroke" d="
  M 54.28 26.02
  Q 50.44 32.22 50.94 40.06
  C 51.81 53.78 53.62 71.03 54.94 90.45
  C 56.42 112.13 58.03 129.76 59.17 148.10
  Q 59.69 156.35 60.47 162.90
  Q 61.86 174.45 63.29 190.24
  Q 64.08 198.92 65.10 201.66
  Q 69.27 212.88 81.28 214.22
  Q 83.56 214.48 88.00 214.26
  Q 93.90 213.96 115.00 212.75
  C 123.47 212.26 132.00 210.96 140.01 210.45
  Q 171.00 208.46 225.19 204.09
  C 236.11 203.22 247.29 198.97 246.64 185.74
  Q 245.37 159.95 242.63 134.07
  Q 239.35 103.02 237.79 87.31
  Q 235.99 69.19 235.40 59.41
  Q 234.67 47.23 233.33 31.50
  C 232.59 22.80 232.03 15.31 223.33 10.75
  C 219.56 8.78 214.89 8.44 210.99 8.29
  Q 206.75 8.12 194.01 9.07
  C 175.18 10.48 156.18 11.60 138.02 13.14
  Q 107.91 15.70 75.75 18.28
  C 68.61 18.85 60.85 19.90 55.28 24.83
  A 5.22 5.20 -5.1 0 0 54.28 26.02"
/>
<path stroke="#89888c" vector-effect="non-scaling-stroke" d="
  M 135.59 57.72
  A 0.90 0.90 0.0 0 1 134.17 57.06
  L 133.45 48.76
  A 1.57 1.57 0.0 0 0 131.75 47.34
  L 107.85 49.42
  A 1.71 1.71 0.0 0 0 106.31 51.45
  Q 106.67 53.25 106.77 54.38
  Q 116.16 154.70 116.33 156.00
  Q 117.26 163.31 117.50 174.81
  A 1.42 1.42 0.0 0 0 118.97 176.20
  Q 121.53 176.10 122.85 175.65
  C 128.74 173.66 134.88 171.23 140.64 170.58
  A 1.97 1.97 0.0 0 0 142.37 168.95
  Q 142.70 166.97 142.51 164.75
  Q 141.00 146.63 139.36 133.22
  A 1.24 1.24 0.0 0 1 141.26 132.02
  Q 143.19 133.25 145.60 133.88
  C 156.22 136.61 167.10 134.94 175.20 127.53
  C 184.93 118.61 186.00 108.56 186.11 95.20
  Q 186.20 84.42 183.75 74.76
  C 182.08 68.18 176.59 59.32 170.41 55.78
  C 159.45 49.50 145.75 50.50 135.59 57.72"
/>
<path stroke="#89888c" vector-effect="non-scaling-stroke" d="
  M 141.19 120.35
  C 144.62 121.20 150.93 121.48 153.76 118.71
  C 161.73 110.89 161.93 96.30 160.70 85.77
  C 159.87 78.68 155.94 64.43 147.04 63.72
  C 142.73 63.38 136.29 65.68 135.78 70.79
  Q 135.22 76.29 135.68 81.50
  Q 137.05 96.78 137.99 113.75
  C 138.12 116.11 138.72 119.73 141.19 120.35"
/>
</g>
<path fill="#050406" d="
  M 234.70 211.72
  Q 230.64 211.52 226.71 211.99
  Q 219.00 212.91 218.77 212.92
  C 201.06 214.10 190.22 215.29 173.77 215.67
  Q 157.23 216.05 143.95 217.92
  Q 142.01 218.19 119.28 219.22
  Q 114.93 219.41 92.06 220.99
  Q 88.68 221.22 86.94 221.13
  C 82.84 220.93 77.78 221.17 74.21 220.23
  Q 63.75 217.44 58.23 207.46
  A 8.89 8.76 26.1 0 1 57.25 204.66
  Q 53.53 182.32 52.54 158.90
  Q 52.06 147.41 47.52 107.03
  C 46.55 98.43 46.77 90.54 45.71 82.20
  Q 45.20 78.15 44.03 67.87
  Q 43.93 66.98 43.45 57.05
  Q 43.14 50.57 41.44 44.37
  L 42.22 41.45
  A 2.18 2.11 -44.1 0 0 42.25 40.47
  Q 40.69 33.02 43.53 26.37
  A 7.20 7.15 76.4 0 1 44.61 24.59
  Q 48.04 20.47 48.98 19.47
  Q 56.50 11.58 67.96 10.67
  C 79.98 9.70 90.26 9.30 101.64 8.56
  Q 152.80 5.24 154.49 5.12
  Q 174.41 3.70 187.32 1.80
  Q 195.73 0.56 199.61 0.50
  Q 202.57 0.45 212.01 0.42
  Q 218.45 0.41 220.85 1.15
  Q 222.41 1.63 228.17 4.72
  C 239.35 10.71 241.03 21.13 242.28 32.50
  Q 245.33 60.48 246.49 79.53
  C 247.96 103.87 250.34 125.16 251.81 151.37
  C 252.42 162.25 253.73 172.69 254.45 182.74
  Q 255.88 202.63 238.01 209.73
  A 6.49 5.56 -67.9 0 0 237.06 210.22
  L 234.70 211.72
  Z
  M 54.28 26.02
  Q 50.44 32.22 50.94 40.06
  C 51.81 53.78 53.62 71.03 54.94 90.45
  C 56.42 112.13 58.03 129.76 59.17 148.10
  Q 59.69 156.35 60.47 162.90
  Q 61.86 174.45 63.29 190.24
  Q 64.08 198.92 65.10 201.66
  Q 69.27 212.88 81.28 214.22
  Q 83.56 214.48 88.00 214.26
  Q 93.90 213.96 115.00 212.75
  C 123.47 212.26 132.00 210.96 140.01 210.45
  Q 171.00 208.46 225.19 204.09
  C 236.11 203.22 247.29 198.97 246.64 185.74
  Q 245.37 159.95 242.63 134.07
  Q 239.35 103.02 237.79 87.31
  Q 235.99 69.19 235.40 59.41
  Q 234.67 47.23 233.33 31.50
  C 232.59 22.80 232.03 15.31 223.33 10.75
  C 219.56 8.78 214.89 8.44 210.99 8.29
  Q 206.75 8.12 194.01 9.07
  C 175.18 10.48 156.18 11.60 138.02 13.14
  Q 107.91 15.70 75.75 18.28
  C 68.61 18.85 60.85 19.90 55.28 24.83
  A 5.22 5.20 -5.1 0 0 54.28 26.02
  Z"
/>
<path fill="#ffffff" d="
  M 55.28 24.83
  C 60.85 19.90 68.61 18.85 75.75 18.28
  Q 107.91 15.70 138.02 13.14
  C 156.18 11.60 175.18 10.48 194.01 9.07
  Q 206.75 8.12 210.99 8.29
  C 214.89 8.44 219.56 8.78 223.33 10.75
  C 232.03 15.31 232.59 22.80 233.33 31.50
  Q 234.67 47.23 235.40 59.41
  Q 235.99 69.19 237.79 87.31
  Q 239.35 103.02 242.63 134.07
  Q 245.37 159.95 246.64 185.74
  C 247.29 198.97 236.11 203.22 225.19 204.09
  Q 171.00 208.46 140.01 210.45
  C 132.00 210.96 123.47 212.26 115.00 212.75
  Q 93.90 213.96 88.00 214.26
  Q 83.56 214.48 81.28 214.22
  Q 69.27 212.88 65.10 201.66
  Q 64.08 198.92 63.29 190.24
  Q 61.86 174.45 60.47 162.90
  Q 59.69 156.35 59.17 148.10
  C 58.03 129.76 56.42 112.13 54.94 90.45
  C 53.62 71.03 51.81 53.78 50.94 40.06
  Q 50.44 32.22 54.28 26.02
  A 5.22 5.20 -5.1 0 1 55.28 24.83
  Z
  M 135.59 57.72
  A 0.90 0.90 0.0 0 1 134.17 57.06
  L 133.45 48.76
  A 1.57 1.57 0.0 0 0 131.75 47.34
  L 107.85 49.42
  A 1.71 1.71 0.0 0 0 106.31 51.45
  Q 106.67 53.25 106.77 54.38
  Q 116.16 154.70 116.33 156.00
  Q 117.26 163.31 117.50 174.81
  A 1.42 1.42 0.0 0 0 118.97 176.20
  Q 121.53 176.10 122.85 175.65
  C 128.74 173.66 134.88 171.23 140.64 170.58
  A 1.97 1.97 0.0 0 0 142.37 168.95
  Q 142.70 166.97 142.51 164.75
  Q 141.00 146.63 139.36 133.22
  A 1.24 1.24 0.0 0 1 141.26 132.02
  Q 143.19 133.25 145.60 133.88
  C 156.22 136.61 167.10 134.94 175.20 127.53
  C 184.93 118.61 186.00 108.56 186.11 95.20
  Q 186.20 84.42 183.75 74.76
  C 182.08 68.18 176.59 59.32 170.41 55.78
  C 159.45 49.50 145.75 50.50 135.59 57.72
  Z"
/>
<path fill="#612bd3" d="
  M 41.44 44.37
  Q 43.14 50.57 43.45 57.05
  Q 43.93 66.98 44.03 67.87
  Q 45.20 78.15 45.71 82.20
  C 46.77 90.54 46.55 98.43 47.52 107.03
  Q 52.06 147.41 52.54 158.90
  Q 53.53 182.32 57.25 204.66
  A 8.89 8.76 26.1 0 0 58.23 207.46
  Q 63.75 217.44 74.21 220.23
  C 77.78 221.17 82.84 220.93 86.94 221.13
  Q 88.68 221.22 92.06 220.99
  Q 114.93 219.41 119.28 219.22
  Q 142.01 218.19 143.95 217.92
  Q 157.23 216.05 173.77 215.67
  C 190.22 215.29 201.06 214.10 218.77 212.92
  Q 219.00 212.91 226.71 211.99
  Q 230.64 211.52 234.70 211.72
  Q 227.80 221.31 217.26 224.80
  Q 208.83 227.60 202.54 228.81
  C 185.42 232.12 170.59 234.43 154.94 238.07
  Q 142.58 240.94 139.66 241.66
  C 125.16 245.19 110.76 247.75 96.51 250.30
  Q 86.48 252.09 79.76 253.87
  Q 74.98 255.13 72.21 255.28
  C 67.82 255.52 63.24 255.92 59.36 254.39
  C 50.85 251.06 43.41 246.10 41.14 236.60
  Q 37.04 219.38 31.02 198.34
  Q 27.56 186.27 25.59 176.98
  Q 21.09 155.87 14.40 133.29
  C 11.60 123.82 9.59 114.47 7.62 105.09
  Q 6.57 100.03 3.81 91.08
  Q 1.67 84.11 0.00 77.04
  L 0.00 69.27
  Q 0.43 66.75 1.14 65.36
  Q 7.44 53.20 21.37 49.41
  Q 34.97 45.71 41.44 44.37
  Z"
/>
<path fill="#131019" d="
  M 135.59 57.72
  C 145.75 50.50 159.45 49.50 170.41 55.78
  C 176.59 59.32 182.08 68.18 183.75 74.76
  Q 186.20 84.42 186.11 95.20
  C 186.00 108.56 184.93 118.61 175.20 127.53
  C 167.10 134.94 156.22 136.61 145.60 133.88
  Q 143.19 133.25 141.26 132.02
  A 1.24 1.24 0.0 0 0 139.36 133.22
  Q 141.00 146.63 142.51 164.75
  Q 142.70 166.97 142.37 168.95
  A 1.97 1.97 0.0 0 1 140.64 170.58
  C 134.88 171.23 128.74 173.66 122.85 175.65
  Q 121.53 176.10 118.97 176.20
  A 1.42 1.42 0.0 0 1 117.50 174.81
  Q 117.26 163.31 116.33 156.00
  Q 116.16 154.70 106.77 54.38
  Q 106.67 53.25 106.31 51.45
  A 1.71 1.71 0.0 0 1 107.85 49.42
  L 131.75 47.34
  A 1.57 1.57 0.0 0 1 133.45 48.76
  L 134.17 57.06
  A 0.90 0.90 0.0 0 0 135.59 57.72
  Z
  M 141.19 120.35
  C 144.62 121.20 150.93 121.48 153.76 118.71
  C 161.73 110.89 161.93 96.30 160.70 85.77
  C 159.87 78.68 155.94 64.43 147.04 63.72
  C 142.73 63.38 136.29 65.68 135.78 70.79
  Q 135.22 76.29 135.68 81.50
  Q 137.05 96.78 137.99 113.75
  C 138.12 116.11 138.72 119.73 141.19 120.35
  Z"
/>
<path fill="#ffffff" d="
  M 141.19 120.35
  C 138.72 119.73 138.12 116.11 137.99 113.75
  Q 137.05 96.78 135.68 81.50
  Q 135.22 76.29 135.78 70.79
  C 136.29 65.68 142.73 63.38 147.04 63.72
  C 155.94 64.43 159.87 78.68 160.70 85.77
  C 161.93 96.30 161.73 110.89 153.76 118.71
  C 150.93 121.48 144.62 121.20 141.19 120.35
  Z"
/>
</svg>