<?xml version="1.0" encoding="UTF-8" standalone="no"?>
<!DOCTYPE svg PUBLIC "-//W3C//DTD SVG 1.1//EN" "http://www.w3.org/Graphics/SVG/1.1/DTD/svg11.dtd">
<svg xmlns="http://www.w3.org/2000/svg" version="1.1" viewBox="0.00 0.00 300.00 300.00" width="128" height="128">
<path fill="#2da01d" d="
  M 295.31 150.11
  Q 295.31 157.36 291.06 162.08
  Q 254.44 202.74 210.76 250.98
  Q 206.00 256.23 200.95 254.21
  Q 198.26 253.14 192.71 246.97
  Q 151.60 201.32 112.40 158.09
  Q 109.20 154.56 109.20 150.14
  Q 109.20 145.73 112.40 142.19
  Q 151.58 98.95 192.67 53.28
  Q 198.22 47.11 200.91 46.04
  Q 205.96 44.02 210.72 49.27
  Q 254.42 97.49 291.05 138.13
  Q 295.30 142.85 295.31 150.11
  Z"
/>
<path fill="#2da01d" d="
  M 111.87 58.98
  L 71.17 104.06
  A 0.62 0.61 -45.9 0 1 70.28 104.08
  Q 70.24 104.03 64.89 98.21
  Q 60.88 93.85 60.16 91.89
  C 57.98 85.90 60.36 82.16 64.80 77.30
  Q 70.50 71.08 87.88 51.77
  Q 91.43 47.82 92.93 47.10
  C 98.48 44.43 102.10 47.18 106.17 51.83
  Q 108.76 54.78 111.86 58.14
  A 0.63 0.62 44.7 0 1 111.87 58.98
  Z"
/>
<path fill="#2da01d" d="
  M 123.18 104.69
  Q 118.84 100.01 114.95 95.55
  Q 110.76 90.75 111.95 85.24
  Q 112.58 82.36 117.81 76.58
  Q 139.04 53.17 139.81 52.28
  Q 143.64 47.86 145.44 47.03
  C 151.38 44.29 154.88 47.64 159.18 52.55
  Q 160.90 54.53 164.85 58.85
  A 0.43 0.42 45.6 0 1 164.85 59.42
  L 123.99 104.68
  A 0.55 0.55 0.0 0 1 123.18 104.69
  Z"
/>
<path fill="#2da01d" d="
  M 37.83 149.83
  C 37.80 157.45 40.81 162.65 46.08 168.25
  Q 47.28 169.52 55.22 178.38
  A 0.66 0.66 0.0 0 1 55.22 179.26
  Q 50.22 184.99 47.14 188.14
  C 41.27 194.14 35.92 191.19 31.08 185.57
  Q 28.91 183.04 6.20 157.79
  Q 2.89 154.11 2.90 149.71
  Q 2.92 145.31 6.25 141.65
  Q 29.15 116.56 31.34 114.05
  C 36.22 108.46 41.59 105.55 47.41 111.59
  Q 50.47 114.77 55.43 120.53
  A 0.66 0.66 0.0 0 1 55.42 121.41
  Q 47.42 130.21 46.22 131.48
  C 40.90 137.04 37.86 142.21 37.83 149.83
  Z"
/>
<path fill="#2da01d" d="
  M 91.16 149.84
  Q 91.12 158.67 96.96 165.36
  Q 103.10 172.39 108.02 177.70
  A 0.81 0.80 -46.4 0 1 108.04 178.77
  Q 103.87 183.57 99.84 187.83
  Q 95.23 192.70 90.12 191.06
  Q 87.20 190.12 82.10 184.07
  Q 80.53 182.20 58.17 157.34
  Q 55.28 154.13 55.30 149.71
  Q 55.31 145.30 58.23 142.10
  Q 80.76 117.41 82.34 115.55
  Q 87.49 109.53 90.41 108.62
  Q 95.54 107.01 100.11 111.92
  Q 104.11 116.20 108.25 121.03
  A 0.81 0.80 46.8 0 1 108.22 122.10
  Q 103.26 127.38 97.07 134.36
  Q 91.19 141.01 91.16 149.84
  Z"
/>
<path fill="#2da01d" d="
  M 123.10 195.40
  A 0.55 0.55 0.0 0 1 123.91 195.41
  L 164.68 240.50
  A 0.43 0.42 -45.6 0 1 164.68 241.07
  Q 160.75 245.38 159.03 247.36
  C 154.75 252.26 151.26 255.60 145.34 252.87
  Q 143.54 252.04 139.72 247.64
  Q 138.95 246.75 117.77 223.43
  Q 112.55 217.67 111.92 214.80
  Q 110.73 209.30 114.91 204.52
  Q 118.78 200.07 123.10 195.40
  Z"
/>
<path fill="#2da01d" d="
  M 111.71 240.94
  A 0.62 0.62 0.0 0 1 111.70 241.78
  Q 108.61 245.13 106.03 248.07
  C 101.98 252.71 98.37 255.46 92.83 252.80
  Q 91.34 252.08 87.80 248.15
  Q 70.45 228.91 64.76 222.72
  C 60.33 217.88 57.96 214.15 60.13 208.18
  Q 60.84 206.22 64.84 201.87
  Q 70.16 196.07 70.20 196.02
  A 0.61 0.61 0.0 0 1 71.09 196.04
  L 111.71 240.94
  Z"
/>
</svg>