<?xml version="1.0" encoding="UTF-8" standalone="no"?>
<!DOCTYPE svg PUBLIC "-//W3C//DTD SVG 1.1//EN" "http://www.w3.org/Graphics/SVG/1.1/DTD/svg11.dtd">
<svg xmlns="http://www.w3.org/2000/svg" version="1.1" viewBox="0.00 0.00 128.00 128.00" width="128" height="128">
<g stroke-width="2.00" fill="none" stroke-linecap="butt">
<path stroke="#1a4867" vector-effect="non-scaling-stroke" d="
  M 35.22 121.03
  Q 38.90 116.38 39.00 112.01
  Q 39.12 106.69 39.00 99.72
  A 0.38 0.38 0.0 0 1 39.59 99.40
  Q 51.06 107.17 64.48 107.04
  C 92.22 106.76 112.17 81.01 105.84 54.08
  C 99.05 25.16 65.82 12.12 40.92 27.87
  C 28.72 35.58 21.03 49.58 21.02 63.75
  Q 21.01 87.34 20.95 111.40"
/>
<path stroke="#99c7e7" vector-effect="non-scaling-stroke" d="
  M 89.92 63.83
  A 25.91 25.91 0.0 0 0 64.01 37.92
  A 25.91 25.91 0.0 0 0 38.10 63.83
  A 25.91 25.91 0.0 0 0 64.01 89.74
  A 25.91 25.91 0.0 0 0 89.92 63.83"
/>
</g>
<path fill="#000000" d="
  M 65.38 0.00
  Q 94.28 1.25 112.49 22.25
  Q 127.11 39.11 128.00 62.56
  L 128.00 124.55
  Q 116.80 125.04 111.55 115.19
  Q 110.12 112.52 109.94 109.48
  A 0.41 0.40 66.1 0 0 109.26 109.21
  Q 91.17 126.93 65.51 128.00
  L 62.64 128.00
  Q 48.19 127.62 35.22 121.03
  Q 38.90 116.38 39.00 112.01
  Q 39.12 106.69 39.00 99.72
  A 0.38 0.38 0.0 0 1 39.59 99.40
  Q 51.06 107.17 64.48 107.04
  C 92.22 106.76 112.17 81.01 105.84 54.08
  C 99.05 25.16 65.82 12.12 40.92 27.87
  C 28.72 35.58 21.03 49.58 21.02 63.75
  Q 21.01 87.34 20.95 111.40
  Q 0.75 92.24 0.00 64.46
  L 0.00 62.60
  C 1.42 27.94 27.77 1.43 62.46 0.00
  L 65.38 0.00
  Z"
/>
<path fill="#338fce" d="
  M 35.22 121.03
  Q 29.55 126.34 21.58 125.55
  A 0.56 0.55 2.9 0 1 21.08 125.00
  L 20.95 111.40
  Q 21.01 87.34 21.02 63.75
  C 21.03 49.58 28.72 35.58 40.92 27.87
  C 65.82 12.12 99.05 25.16 105.84 54.08
  C 112.17 81.01 92.22 106.76 64.48 107.04
  Q 51.06 107.17 39.59 99.40
  A 0.38 0.38 0.0 0 0 39.00 99.72
  Q 39.12 106.69 39.00 112.01
  Q 38.90 116.38 35.22 121.03
  Z
  M 89.92 63.83
  A 25.91 25.91 0.0 0 0 64.01 37.92
  A 25.91 25.91 0.0 0 0 38.10 63.83
  A 25.91 25.91 0.0 0 0 64.01 89.74
  A 25.91 25.91 0.0 0 0 89.92 63.83
  Z"
/>
<circle fill="#ffffff" cx="64.01" cy="63.83" r="25.91"/>
</svg>