<?xml version="1.0" encoding="UTF-8" standalone="no"?>
<!DOCTYPE svg PUBLIC "-//W3C//DTD SVG 1.1//EN" "http://www.w3.org/Graphics/SVG/1.1/DTD/svg11.dtd">
<svg xmlns="http://www.w3.org/2000/svg" version="1.1" viewBox="0.00 0.00 256.00 256.00" width="128" height="128">
<g stroke-width="2.00" fill="none" stroke-linecap="butt">
<path stroke="#00aaff" vector-effect="non-scaling-stroke" d="
  M 238.21 63.68
  Q 234.26 68.48 232.60 69.10
  C 226.28 71.50 222.05 76.04 216.11 78.72
  Q 215.02 79.21 208.87 82.74
  C 203.39 85.88 197.37 88.53 191.86 91.76
  A 2.68 2.54 6.8 0 0 191.35 92.14
  L 187.44 95.98
  A 0.80 0.78 33.3 0 1 186.60 96.14
  L 186.37 96.04
  A 0.50 0.50 0.0 0 0 185.69 96.63
  Q 186.05 97.94 185.58 98.78"
/>
<path stroke="#0080ea" vector-effect="non-scaling-stroke" d="
  M 71.66 95.96
  Q 69.01 96.09 67.76 95.24
  Q 52.50 84.77 41.93 79.34
  Q 33.51 75.01 26.56 72.20
  Q 20.11 69.60 20.30 62.59"
/>
<path stroke="#009eea" vector-effect="non-scaling-stroke" d="
  M 129.71 194.68
  Q 128.29 203.85 127.99 215.50
  Q 127.80 222.46 128.15 227.51
  Q 128.57 233.38 128.47 237.50
  C 128.31 244.16 128.68 247.72 127.64 252.14
  Q 127.14 254.28 130.23 255.56"
/>
<path stroke="#ffef77" vector-effect="non-scaling-stroke" d="
  M 166.64 109.88
  C 165.92 107.48 163.43 107.90 161.68 108.86
  C 159.24 110.20 156.44 111.54 154.35 113.03
  Q 150.26 115.96 145.84 118.35
  Q 142.42 120.20 130.79 128.11
  Q 130.16 128.54 129.54 129.04"
/>
<path stroke="#f8df51" vector-effect="non-scaling-stroke" d="
  M 129.54 129.04
  Q 129.10 129.07 128.81 129.51
  A 0.54 0.54 0.0 0 1 128.10 129.68
  Q 125.29 128.06 122.74 126.24
  C 114.51 120.37 107.68 118.41 96.73 114.00
  Q 92.13 112.15 90.26 108.26"
/>
<path stroke="#f8e274" vector-effect="non-scaling-stroke" d="
  M 129.54 129.04
  Q 128.24 130.63 128.27 131.76
  C 128.48 138.23 129.17 145.23 128.44 152.01
  C 127.95 156.63 128.11 160.62 127.96 165.13
  Q 127.81 169.53 125.03 171.37"
/>
</g>
<path fill="#008cff" d="
  M 238.21 63.68
  Q 234.26 68.48 232.60 69.10
  C 226.28 71.50 222.05 76.04 216.11 78.72
  Q 215.02 79.21 208.87 82.74
  C 203.39 85.88 197.37 88.53 191.86 91.76
  A 2.68 2.54 6.8 0 0 191.35 92.14
  L 187.44 95.98
  A 0.80 0.78 33.3 0 1 186.60 96.14
  L 186.37 96.04
  A 0.50 0.50 0.0 0 0 185.69 96.63
  Q 186.05 97.94 185.58 98.78
  Q 184.82 95.05 182.17 93.31
  C 176.12 89.36 172.67 86.49 167.31 84.04
  C 162.08 81.66 157.12 77.86 150.99 74.80
  Q 147.87 73.24 143.66 70.32
  A 9.15 9.12 72.6 0 0 141.74 69.31
  Q 135.81 67.06 135.76 67.04
  C 132.55 65.70 129.69 62.29 125.72 64.78
  Q 122.89 66.57 122.69 66.74
  A 3.89 3.78 -72.4 0 1 121.12 67.58
  Q 115.91 68.93 111.28 71.99
  C 105.98 75.48 100.08 77.97 94.10 81.85
  C 89.78 84.65 86.29 85.47 81.89 88.54
  C 78.51 90.90 74.16 92.62 71.66 95.96
  Q 69.01 96.09 67.76 95.24
  Q 52.50 84.77 41.93 79.34
  Q 33.51 75.01 26.56 72.20
  Q 20.11 69.60 20.30 62.59
  Q 24.84 59.73 29.36 57.18
  Q 46.66 47.42 80.99 27.70
  Q 109.99 11.04 116.08 7.70
  Q 119.14 6.03 121.16 4.40
  C 124.77 1.47 128.17 -1.41 132.26 1.49
  Q 144.91 10.45 152.30 14.01
  Q 156.59 16.08 159.34 18.08
  C 163.34 20.99 167.75 22.51 172.20 25.53
  C 176.80 28.65 182.81 31.23 186.63 33.82
  C 190.45 36.40 194.46 37.98 197.97 40.22
  C 205.13 44.80 210.17 46.87 217.32 51.28
  Q 221.30 53.74 227.17 56.31
  Q 230.50 57.78 238.21 63.68
  Z"
/>
<path fill="#0074d4" d="
  M 20.30 62.59
  Q 20.11 69.60 26.56 72.20
  Q 33.51 75.01 41.93 79.34
  Q 52.50 84.77 67.76 95.24
  Q 69.01 96.09 71.66 95.96
  Q 69.69 101.66 69.86 104.47
  Q 70.37 112.94 70.25 119.41
  C 70.06 129.67 70.74 138.02 70.60 148.75
  Q 70.54 153.13 70.87 157.53
  C 71.15 161.28 73.99 164.06 77.64 165.72
  Q 81.17 167.31 85.00 170.69
  A 6.15 6.07 -12.7 0 0 86.70 171.75
  L 92.08 174.02
  A 7.44 7.26 72.3 0 1 93.21 174.62
  Q 96.92 177.10 101.10 179.92
  Q 101.77 180.37 107.35 182.61
  Q 108.31 183.00 113.90 187.09
  Q 115.77 188.46 121.33 190.01
  A 2.81 2.42 -18.3 0 1 121.84 190.22
  L 129.71 194.68
  Q 128.29 203.85 127.99 215.50
  Q 127.80 222.46 128.15 227.51
  Q 128.57 233.38 128.47 237.50
  C 128.31 244.16 128.68 247.72 127.64 252.14
  Q 127.14 254.28 130.23 255.56
  Q 125.59 255.50 124.49 254.77
  Q 114.53 248.20 105.15 243.47
  C 100.76 241.25 97.20 238.31 92.82 236.07
  Q 86.89 233.04 83.65 230.81
  C 79.71 228.09 75.71 226.62 71.32 223.81
  C 66.21 220.55 61.01 218.11 55.57 214.69
  C 51.59 212.19 47.70 210.88 44.06 208.46
  Q 39.94 205.70 35.52 203.65
  C 30.52 201.31 26.85 198.55 21.65 195.35
  C 17.21 192.60 16.71 187.17 16.70 182.25
  Q 16.68 174.42 16.75 75.25
  Q 16.76 67.16 20.30 62.59
  Z"
/>
<path fill="#00c8ff" d="
  M 130.23 255.56
  Q 127.14 254.28 127.64 252.14
  C 128.68 247.72 128.31 244.16 128.47 237.50
  Q 128.57 233.38 128.15 227.51
  Q 127.80 222.46 127.99 215.50
  Q 128.29 203.85 129.71 194.68
  L 133.12 191.76
  A 8.62 8.54 -75.1 0 1 135.73 190.23
  Q 141.83 187.96 146.17 185.20
  C 151.74 181.64 156.19 179.84 161.26 176.31
  C 164.71 173.92 168.10 172.63 172.20 170.55
  A 5.48 5.33 -79.5 0 0 173.54 169.60
  Q 176.78 166.47 181.28 164.10
  C 185.01 162.13 185.21 160.35 184.70 156.26
  A 2.45 2.35 -41.0 0 1 184.79 155.27
  Q 185.97 151.58 185.93 150.50
  Q 185.66 141.57 185.83 139.93
  Q 187.21 125.78 186.14 110.76
  Q 186.14 110.69 185.33 105.54
  Q 184.81 102.18 185.58 98.78
  Q 186.05 97.94 185.69 96.63
  A 0.50 0.50 0.0 0 1 186.37 96.04
  L 186.60 96.14
  A 0.80 0.78 33.3 0 0 187.44 95.98
  L 191.35 92.14
  A 2.68 2.54 6.8 0 1 191.86 91.76
  C 197.37 88.53 203.39 85.88 208.87 82.74
  Q 215.02 79.21 216.11 78.72
  C 222.05 76.04 226.28 71.50 232.60 69.10
  Q 234.26 68.48 238.21 63.68
  Q 240.07 66.72 240.18 70.51
  Q 240.50 81.65 240.46 87.50
  Q 240.16 130.93 240.49 175.24
  Q 240.56 184.32 237.91 191.57
  Q 237.28 193.29 234.55 195.53
  C 228.73 200.32 221.06 204.06 213.72 208.05
  Q 186.57 222.84 159.31 239.10
  Q 154.04 242.24 144.75 247.30
  Q 137.27 251.37 130.23 255.56
  Z"
/>
<path fill="#ffeb54" d="
  M 166.64 109.88
  C 165.92 107.48 163.43 107.90 161.68 108.86
  C 159.24 110.20 156.44 111.54 154.35 113.03
  Q 150.26 115.96 145.84 118.35
  Q 142.42 120.20 130.79 128.11
  Q 130.16 128.54 129.54 129.04
  Q 129.10 129.07 128.81 129.51
  A 0.54 0.54 0.0 0 1 128.10 129.68
  Q 125.29 128.06 122.74 126.24
  C 114.51 120.37 107.68 118.41 96.73 114.00
  Q 92.13 112.15 90.26 108.26
  Q 91.47 104.91 93.97 102.50
  A 4.26 4.07 -79.2 0 1 95.02 101.75
  Q 99.90 99.30 103.80 96.19
  C 107.68 93.10 111.52 92.31 115.85 89.60
  Q 125.99 83.27 138.14 87.60
  A 4.08 3.87 -16.2 0 1 139.07 88.08
  L 141.79 89.99
  A 2.33 1.73 -8.5 0 0 142.09 90.15
  L 151.54 94.12
  A 1.13 0.88 -7.0 0 1 151.79 94.27
  Q 156.57 98.18 162.05 101.70
  Q 165.67 104.03 166.64 109.88
  Z"
/>
<path fill="#f0d24e" d="
  M 129.54 129.04
  Q 128.24 130.63 128.27 131.76
  C 128.48 138.23 129.17 145.23 128.44 152.01
  C 127.95 156.63 128.11 160.62 127.96 165.13
  Q 127.81 169.53 125.03 171.37
  C 119.95 170.69 118.30 169.28 114.85 166.83
  A 7.28 7.10 74.3 0 0 113.69 166.16
  L 105.50 162.43
  A 1.69 1.56 73.9 0 1 105.27 162.29
  Q 101.64 159.36 94.77 154.77
  Q 92.13 153.01 91.14 149.66
  Q 90.16 146.35 87.74 135.31
  Q 86.46 129.45 87.31 123.32
  Q 88.37 115.70 90.26 108.26
  Q 92.13 112.15 96.73 114.00
  C 107.68 118.41 114.51 120.37 122.74 126.24
  Q 125.29 128.06 128.10 129.68
  A 0.54 0.54 0.0 0 0 128.81 129.51
  Q 129.10 129.07 129.54 129.04
  Z"
/>
<path fill="#fff299" d="
  M 166.64 109.88
  Q 171.68 121.22 170.69 133.38
  Q 170.43 136.58 168.08 145.82
  Q 166.37 152.54 159.94 156.92
  Q 152.19 162.20 137.11 169.60
  Q 131.18 172.52 125.03 171.37
  Q 127.81 169.53 127.96 165.13
  C 128.11 160.62 127.95 156.63 128.44 152.01
  C 129.17 145.23 128.48 138.23 128.27 131.76
  Q 128.24 130.63 129.54 129.04
  Q 130.16 128.54 130.79 128.11
  Q 142.42 120.20 145.84 118.35
  Q 150.26 115.96 154.35 113.03
  C 156.44 111.54 159.24 110.20 161.68 108.86
  C 163.43 107.90 165.92 107.48 166.64 109.88
  Z"
/>
</svg>