<?xml version="1.0" encoding="UTF-8" standalone="no"?>
<!DOCTYPE svg PUBLIC "-//W3C//DTD SVG 1.1//EN" "http://www.w3.org/Graphics/SVG/1.1/DTD/svg11.dtd">
<svg xmlns="http://www.w3.org/2000/svg" version="1.1" viewBox="0.00 0.00 180.00 180.00" width="128" height="128">
<g stroke-width="2.00" fill="none" stroke-linecap="butt">
<path stroke="#808080" vector-effect="non-scaling-stroke" d="
  M 64.38 65.88
  Q 53.77 76.36 53.21 76.91
  A 1.71 1.70 -22.2 0 0 52.69 78.13
  L 52.69 107.21
  A 0.46 0.46 0.0 0 1 51.90 107.54
  C 48.83 104.48 38.68 93.37 34.41 95.48
  Q 32.35 96.50 31.95 98.40
  Q 31.20 102.07 31.20 112.00
  Q 31.22 150.61 31.43 161.50
  C 31.48 164.49 31.79 167.65 35.74 167.88
  Q 42.84 168.29 46.75 168.30
  Q 94.77 168.39 99.97 168.10
  Q 103.25 167.92 104.48 166.99
  Q 107.92 164.39 105.46 160.86
  Q 103.29 157.75 102.12 156.60
  Q 89.00 143.63 87.93 142.57
  A 0.68 0.67 -46.2 0 1 87.91 141.63
  Q 88.84 140.63 113.80 115.98
  Q 124.41 105.50 124.97 104.96
  A 1.71 1.70 -22.2 0 0 125.49 103.73
  L 125.49 74.65
  A 0.46 0.46 0.0 0 1 126.28 74.32
  C 129.35 77.38 139.50 88.49 143.77 86.38
  Q 145.83 85.36 146.23 83.46
  Q 146.98 79.79 146.98 69.86
  Q 146.96 31.25 146.75 20.36
  C 146.70 17.37 146.39 14.21 142.44 13.98
  Q 135.34 13.57 131.43 13.56
  Q 83.41 13.47 78.21 13.76
  Q 74.93 13.94 73.70 14.87
  Q 70.26 17.47 72.72 21.00
  Q 74.89 24.11 76.06 25.26
  Q 89.18 38.23 90.25 39.29
  A 0.68 0.67 -46.2 0 1 90.27 40.24
  Q 89.34 41.23 64.38 65.88"
/>
<path stroke="#808080" vector-effect="non-scaling-stroke" d="
  M 64.15 107.71
  Q 98.17 74.30 116.47 57.23
  Q 119.99 53.95 123.48 56.98
  Q 129.98 62.62 135.89 68.62
  A 0.22 0.22 0.0 0 0 136.27 68.47
  L 136.27 24.62
  A 0.62 0.62 0.0 0 0 135.65 24.00
  L 90.92 24.00
  A 0.27 0.27 0.0 0 0 90.73 24.46
  C 96.33 29.90 100.08 32.91 103.08 37.79
  A 3.71 3.70 -45.5 0 1 103.11 41.59
  Q 101.76 43.90 99.17 46.43
  Q 94.94 50.58 63.91 81.03
  A 1.09 1.09 0.0 0 0 63.58 81.81
  L 63.58 107.47
  A 0.34 0.34 0.0 0 0 64.15 107.71"
/>
<path stroke="#808080" vector-effect="non-scaling-stroke" d="
  M 87.32 157.14
  Q 86.39 156.18 77.52 147.36
  C 75.06 144.91 73.31 141.64 75.85 138.84
  C 81.91 132.15 93.42 121.21 114.28 100.62
  A 1.17 1.16 68.3 0 0 114.62 99.82
  Q 114.77 89.80 114.65 79.29
  Q 114.63 76.96 114.23 75.04
  A 0.56 0.56 0.0 0 0 113.29 74.75
  L 60.63 125.81
  A 1.98 1.97 -64.1 0 1 59.06 126.36
  Q 56.12 126.06 53.63 123.84
  Q 50.61 121.15 43.09 114.07
  A 0.58 0.58 0.0 0 0 42.12 114.49
  L 42.12 157.13
  A 0.62 0.62 0.0 0 0 42.74 157.75
  L 87.06 157.75
  A 0.36 0.36 0.0 0 0 87.32 157.14"
/>
</g>
<path fill="#ffffff" d="
  M 180.00 0.00
  L 180.00 180.00
  L 0.00 180.00
  L 0.00 0.00
  L 180.00 0.00
  Z
  M 64.38 65.88
  Q 53.77 76.36 53.21 76.91
  A 1.71 1.70 -22.2 0 0 52.69 78.13
  L 52.69 107.21
  A 0.46 0.46 0.0 0 1 51.90 107.54
  C 48.83 104.48 38.68 93.37 34.41 95.48
  Q 32.35 96.50 31.95 98.40
  Q 31.20 102.07 31.20 112.00
  Q 31.22 150.61 31.43 161.50
  C 31.48 164.49 31.79 167.65 35.74 167.88
  Q 42.84 168.29 46.75 168.30
  Q 94.77 168.39 99.97 168.10
  Q 103.25 167.92 104.48 166.99
  Q 107.92 164.39 105.46 160.86
  Q 103.29 157.75 102.12 156.60
  Q 89.00 143.63 87.93 142.57
  A 0.68 0.67 -46.2 0 1 87.91 141.63
  Q 88.84 140.63 113.80 115.98
  Q 124.41 105.50 124.97 104.96
  A 1.71 1.70 -22.2 0 0 125.49 103.73
  L 125.49 74.65
  A 0.46 0.46 0.0 0 1 126.28 74.32
  C 129.35 77.38 139.50 88.49 143.77 86.38
  Q 145.83 85.36 146.23 83.46
  Q 146.98 79.79 146.98 69.86
  Q 146.96 31.25 146.75 20.36
  C 146.70 17.37 146.39 14.21 142.44 13.98
  Q 135.34 13.57 131.43 13.56
  Q 83.41 13.47 78.21 13.76
  Q 74.93 13.94 73.70 14.87
  Q 70.26 17.47 72.72 21.00
  Q 74.89 24.11 76.06 25.26
  Q 89.18 38.23 90.25 39.29
  A 0.68 0.67 -46.2 0 1 90.27 40.24
  Q 89.34 41.23 64.38 65.88
  Z"
/>
<path fill="#000000" d="
  M 64.38 65.88
  Q 89.34 41.23 90.27 40.24
  A 0.68 0.67 -46.2 0 0 90.25 39.29
  Q 89.18 38.23 76.06 25.26
  Q 74.89 24.11 72.72 21.00
  Q 70.26 17.47 73.70 14.87
  Q 74.93 13.94 78.21 13.76
  Q 83.41 13.47 131.43 13.56
  Q 135.34 13.57 142.44 13.98
  C 146.39 14.21 146.70 17.37 146.75 20.36
  Q 146.96 31.25 146.98 69.86
  Q 146.98 79.79 146.23 83.46
  Q 145.83 85.36 143.77 86.38
  C 139.50 88.49 129.35 77.38 126.28 74.32
  A 0.46 0.46 0.0 0 0 125.49 74.65
  L 125.49 103.73
  A 1.71 1.70 -22.2 0 1 124.97 104.96
  Q 124.41 105.50 113.80 115.98
  Q 88.84 140.63 87.91 141.63
  A 0.68 0.67 -46.2 0 0 87.93 142.57
  Q 89.00 143.63 102.12 156.60
  Q 103.29 157.75 105.46 160.86
  Q 107.92 164.39 104.48 166.99
  Q 103.25 167.92 99.97 168.10
  Q 94.77 168.39 46.75 168.30
  Q 42.84 168.29 35.74 167.88
  C 31.79 167.65 31.48 164.49 31.43 161.50
  Q 31.22 150.61 31.20 112.00
  Q 31.20 102.07 31.95 98.40
  Q 32.35 96.50 34.41 95.48
  C 38.68 93.37 48.83 104.48 51.90 107.54
  A 0.46 0.46 0.0 0 0 52.69 107.21
  L 52.69 78.13
  A 1.71 1.70 -22.2 0 1 53.21 76.91
  Q 53.77 76.36 64.38 65.88
  Z
  M 64.15 107.71
  Q 98.17 74.30 116.47 57.23
  Q 119.99 53.95 123.48 56.98
  Q 129.98 62.62 135.89 68.62
  A 0.22 0.22 0.0 0 0 136.27 68.47
  L 136.27 24.62
  A 0.62 0.62 0.0 0 0 135.65 24.00
  L 90.92 24.00
  A 0.27 0.27 0.0 0 0 90.73 24.46
  C 96.33 29.90 100.08 32.91 103.08 37.79
  A 3.71 3.70 -45.5 0 1 103.11 41.59
  Q 101.76 43.90 99.17 46.43
  Q 94.94 50.58 63.91 81.03
  A 1.09 1.09 0.0 0 0 63.58 81.81
  L 63.58 107.47
  A 0.34 0.34 0.0 0 0 64.15 107.71
  Z
  M 87.32 157.14
  Q 86.39 156.18 77.52 147.36
  C 75.06 144.91 73.31 141.64 75.85 138.84
  C 81.91 132.15 93.42 121.21 114.28 100.62
  A 1.17 1.16 68.3 0 0 114.62 99.82
  Q 114.77 89.80 114.65 79.29
  Q 114.63 76.96 114.23 75.04
  A 0.56 0.56 0.0 0 0 113.29 74.75
  L 60.63 125.81
  A 1.98 1.97 -64.1 0 1 59.06 126.36
  Q 56.12 126.06 53.63 123.84
  Q 50.61 121.15 43.09 114.07
  A 0.58 0.58 0.0 0 0 42.12 114.49
  L 42.12 157.13
  A 0.62 0.62 0.0 0 0 42.74 157.75
  L 87.06 157.75
  A 0.36 0.36 0.0 0 0 87.32 157.14
  Z"
/>
<path fill="#ffffff" d="
  M 64.15 107.71
  A 0.34 0.34 0.0 0 1 63.58 107.47
  L 63.58 81.81
  A 1.09 1.09 0.0 0 1 63.91 81.03
  Q 94.94 50.58 99.17 46.43
  Q 101.76 43.90 103.11 41.59
  A 3.71 3.70 -45.5 0 0 103.08 37.79
  C 100.08 32.91 96.33 29.90 90.73 24.46
  A 0.27 0.27 0.0 0 1 90.92 24.00
  L 135.65 24.00
  A 0.62 0.62 0.0 0 1 136.27 24.62
  L 136.27 68.47
  A 0.22 0.22 0.0 0 1 135.89 68.62
  Q 129.98 62.62 123.48 56.98
  Q 119.99 53.95 116.47 57.23
  Q 98.17 74.30 64.15 107.71
  Z"
/>
<path fill="#ffffff" d="
  M 87.06 157.75
  L 42.74 157.75
  A 0.62 0.62 0.0 0 1 42.12 157.13
  L 42.12 114.49
  A 0.58 0.58 0.0 0 1 43.09 114.07
  Q 50.61 121.15 53.63 123.84
  Q 56.12 126.06 59.06 126.36
  A 1.98 1.97 -64.1 0 0 60.63 125.81
  L 113.29 74.75
  A 0.56 0.56 0.0 0 1 114.23 75.04
  Q 114.63 76.96 114.65 79.29
  Q 114.77 89.80 114.62 99.82
  A 1.17 1.16 68.3 0 1 114.28 100.62
  C 93.42 121.21 81.91 132.15 75.85 138.84
  C 73.31 141.64 75.06 144.91 77.52 147.36
  Q 86.39 156.18 87.32 157.14
  A 0.36 0.36 0.0 0 1 87.06 157.75
  Z"
/>
</svg>