<?xml version="1.0" encoding="UTF-8" standalone="no"?>
<!DOCTYPE svg PUBLIC "-//W3C//DTD SVG 1.1//EN" "http://www.w3.org/Graphics/SVG/1.1/DTD/svg11.dtd">
<svg xmlns="http://www.w3.org/2000/svg" version="1.1" viewBox="0.00 0.00 256.00 256.00" width="128" height="128">
<g stroke-width="2.00" fill="none" stroke-linecap="butt">
<path stroke="#8490c1" vector-effect="non-scaling-stroke" d="
  M 24.56 71.43
  Q 24.38 72.07 24.38 72.81
  Q 24.38 80.46 24.38 156.80
  C 24.38 165.37 23.89 174.37 24.70 181.54
  C 25.01 184.28 25.92 184.90 28.72 185.02
  Q 41.90 185.59 54.68 184.58
  A 1.82 1.82 0.0 0 0 56.35 182.83
  Q 56.87 169.48 56.56 155.93
  Q 56.49 152.59 59.48 152.56
  Q 71.91 152.43 81.50 151.76
  Q 100.27 150.46 113.29 136.85
  Q 119.37 130.50 121.03 122.02
  Q 123.07 111.64 121.46 101.28
  C 119.53 88.87 110.24 78.77 99.01 74.20
  C 91.73 71.23 83.11 70.51 74.97 70.37
  Q 54.30 69.99 26.04 70.27
  A 1.56 1.56 0.0 0 0 24.56 71.43"
/>
<path stroke="#9fd4fa" vector-effect="non-scaling-stroke" d="
  M 137.69 184.01
  Q 138.20 184.30 138.38 184.31
  Q 140.42 184.52 149.58 185.33
  C 154.91 185.80 160.55 184.38 166.34 183.89
  A 1.79 1.79 0.0 0 0 167.97 182.25
  Q 168.99 169.98 168.89 157.26
  Q 168.85 152.80 173.23 152.65
  C 178.74 152.46 184.96 152.07 191.01 151.82
  Q 208.59 151.08 221.93 139.70
  Q 228.89 133.76 231.25 126.44
  Q 235.43 113.46 232.29 98.00
  C 230.33 88.35 221.07 79.50 212.79 75.29
  C 204.47 71.07 193.41 70.28 183.75 70.22
  Q 167.05 70.13 137.80 70.21
  A 1.29 1.29 0.0 0 0 136.71 70.81
  Q 136.05 71.85 136.04 73.75
  Q 135.87 167.25 135.96 176.50
  Q 135.99 179.45 136.37 182.07
  A 2.69 2.69 0.0 0 0 137.69 184.01"
/>
<path stroke="#8490c1" vector-effect="non-scaling-stroke" d="
  M 56.54 99.01
  L 56.58 124.75
  A 2.22 2.22 0.0 0 0 58.81 126.97
  L 72.97 126.94
  A 17.20 12.92 -0.1 0 0 90.14 113.99
  L 90.14 109.65
  A 17.20 12.92 -0.1 0 0 72.91 96.76
  L 58.75 96.79
  A 2.22 2.22 0.0 0 0 56.54 99.01"
/>
<path stroke="#9fd4fa" vector-effect="non-scaling-stroke" d="
  M 168.47 99.55
  L 168.59 124.17
  A 2.87 2.87 0.0 0 0 171.48 127.02
  L 184.65 126.95
  A 17.06 13.16 -0.3 0 0 201.64 113.70
  L 201.62 109.66
  A 17.06 13.16 -0.3 0 0 184.49 96.59
  L 171.32 96.66
  A 2.87 2.87 0.0 0 0 168.47 99.55"
/>
</g>
<path fill="#ffffff" d="
  M 227.13 0.00
  C 232.67 0.36 237.62 0.09 242.32 3.65
  C 249.78 9.31 255.23 14.90 256.00 24.88
  L 256.00 231.22
  C 255.55 234.21 255.37 237.50 254.28 240.17
  C 250.31 249.82 240.44 255.19 230.26 256.00
  L 26.00 256.00
  Q 15.98 255.34 9.71 249.54
  Q 4.99 245.17 3.88 243.36
  Q 0.54 237.90 0.00 231.50
  L 0.00 29.08
  Q 1.55 8.87 19.78 1.35
  C 21.82 0.51 23.81 0.30 26.00 0.00
  L 227.13 0.00
  Z
  M 24.56 71.43
  Q 24.38 72.07 24.38 72.81
  Q 24.38 80.46 24.38 156.80
  C 24.38 165.37 23.89 174.37 24.70 181.54
  C 25.01 184.28 25.92 184.90 28.72 185.02
  Q 41.90 185.59 54.68 184.58
  A 1.82 1.82 0.0 0 0 56.35 182.83
  Q 56.87 169.48 56.56 155.93
  Q 56.49 152.59 59.48 152.56
  Q 71.91 152.43 81.50 151.76
  Q 100.27 150.46 113.29 136.85
  Q 119.37 130.50 121.03 122.02
  Q 123.07 111.64 121.46 101.28
  C 119.53 88.87 110.24 78.77 99.01 74.20
  C 91.73 71.23 83.11 70.51 74.97 70.37
  Q 54.30 69.99 26.04 70.27
  A 1.56 1.56 0.0 0 0 24.56 71.43
  Z
  M 137.69 184.01
  Q 138.20 184.30 138.38 184.31
  Q 140.42 184.52 149.58 185.33
  C 154.91 185.80 160.55 184.38 166.34 183.89
  A 1.79 1.79 0.0 0 0 167.97 182.25
  Q 168.99 169.98 168.89 157.26
  Q 168.85 152.80 173.23 152.65
  C 178.74 152.46 184.96 152.07 191.01 151.82
  Q 208.59 151.08 221.93 139.70
  Q 228.89 133.76 231.25 126.44
  Q 235.43 113.46 232.29 98.00
  C 230.33 88.35 221.07 79.50 212.79 75.29
  C 204.47 71.07 193.41 70.28 183.75 70.22
  Q 167.05 70.13 137.80 70.21
  A 1.29 1.29 0.0 0 0 136.71 70.81
  Q 136.05 71.85 136.04 73.75
  Q 135.87 167.25 135.96 176.50
  Q 135.99 179.45 136.37 182.07
  A 2.69 2.69 0.0 0 0 137.69 184.01
  Z"
/>
<path fill="#092082" d="
  M 24.56 71.43
  A 1.56 1.56 0.0 0 1 26.04 70.27
  Q 54.30 69.99 74.97 70.37
  C 83.11 70.51 91.73 71.23 99.01 74.20
  C 110.24 78.77 119.53 88.87 121.46 101.28
  Q 123.07 111.64 121.03 122.02
  Q 119.37 130.50 113.29 136.85
  Q 100.27 150.46 81.50 151.76
  Q 71.91 152.43 59.48 152.56
  Q 56.49 152.59 56.56 155.93
  Q 56.87 169.48 56.35 182.83
  A 1.82 1.82 0.0 0 1 54.68 184.58
  Q 41.90 185.59 28.72 185.02
  C 25.92 184.90 25.01 184.28 24.70 181.54
  C 23.89 174.37 24.38 165.37 24.38 156.80
  Q 24.38 80.46 24.38 72.81
  Q 24.38 72.07 24.56 71.43
  Z
  M 56.54 99.01
  L 56.58 124.75
  A 2.22 2.22 0.0 0 0 58.81 126.97
  L 72.97 126.94
  A 17.20 12.92 -0.1 0 0 90.14 113.99
  L 90.14 109.65
  A 17.20 12.92 -0.1 0 0 72.91 96.76
  L 58.75 96.79
  A 2.22 2.22 0.0 0 0 56.54 99.01
  Z"
/>
<path fill="#3fa9f5" d="
  M 137.69 184.01
  A 2.69 2.69 0.0 0 1 136.37 182.07
  Q 135.99 179.45 135.96 176.50
  Q 135.87 167.25 136.04 73.75
  Q 136.05 71.85 136.71 70.81
  A 1.29 1.29 0.0 0 1 137.80 70.21
  Q 167.05 70.13 183.75 70.22
  C 193.41 70.28 204.47 71.07 212.79 75.29
  C 221.07 79.50 230.33 88.35 232.29 98.00
  Q 235.43 113.46 231.25 126.44
  Q 228.89 133.76 221.93 139.70
  Q 208.59 151.08 191.01 151.82
  C 184.96 152.07 178.74 152.46 173.23 152.65
  Q 168.85 152.80 168.89 157.26
  Q 168.99 169.98 167.97 182.25
  A 1.79 1.79 0.0 0 1 166.34 183.89
  C 160.55 184.38 154.91 185.80 149.58 185.33
  Q 140.42 184.52 138.38 184.31
  Q 138.20 184.30 137.69 184.01
  Z
  M 168.47 99.55
  L 168.59 124.17
  A 2.87 2.87 0.0 0 0 171.48 127.02
  L 184.65 126.95
  A 17.06 13.16 -0.3 0 0 201.64 113.70
  L 201.62 109.66
  A 17.06 13.16 -0.3 0 0 184.49 96.59
  L 171.32 96.66
  A 2.87 2.87 0.0 0 0 168.47 99.55
  Z"
/>
<path fill="#ffffff" d="
  M 168.47 99.55
  A 2.87 2.87 0.0 0 1 171.32 96.66
  L 184.49 96.59
  A 17.06 13.16 -0.3 0 1 201.62 109.66
  L 201.64 113.70
  A 17.06 13.16 -0.3 0 1 184.65 126.95
  L 171.48 127.02
  A 2.87 2.87 0.0 0 1 168.59 124.17
  L 168.47 99.55
  Z"
/>
<path fill="#ffffff" d="
  M 56.54 99.01
  A 2.22 2.22 0.0 0 1 58.75 96.79
  L 72.91 96.76
  A 17.20 12.92 -0.1 0 1 90.14 109.65
  L 90.14 113.99
  A 17.20 12.92 -0.1 0 1 72.97 126.94
  L 58.81 126.97
  A 2.22 2.22 0.0 0 1 56.58 124.75
  L 56.54 99.01
  Z"
/>
</svg>