<?xml version="1.0" encoding="UTF-8" standalone="no"?>
<!DOCTYPE svg PUBLIC "-//W3C//DTD SVG 1.1//EN" "http://www.w3.org/Graphics/SVG/1.1/DTD/svg11.dtd">
<svg xmlns="http://www.w3.org/2000/svg" version="1.1" viewBox="0.00 0.00 512.00 512.00" width="128" height="128">
<g stroke-width="2.00" fill="none" stroke-linecap="butt">
<path stroke="#2690ff" vector-effect="non-scaling-stroke" d="
  M 117.30 0.00
  Q 126.38 11.65 138.58 23.98
  C 162.97 48.62 187.24 73.49 212.39 97.36"
/>
<path stroke="#5185bf" vector-effect="non-scaling-stroke" d="
  M 212.39 97.36
  L 189.10 112.59"
/>
<path stroke="#1d84ff" vector-effect="non-scaling-stroke" d="
  M 189.10 112.59
  Q 177.73 102.27 167.00 91.54
  Q 122.63 47.15 78.76 2.31"
/>
<path stroke="#2e9aff" vector-effect="non-scaling-stroke" d="
  M 158.33 0.00
  Q 166.43 12.75 177.13 23.40
  Q 193.81 40.00 210.48 56.60
  C 229.18 75.22 252.87 99.64 274.39 120.86"
/>
<path stroke="#558abf" vector-effect="non-scaling-stroke" d="
  M 274.39 120.86
  L 261.35 150.78
  A 0.83 0.83 0.0 0 1 259.84 150.81
  Q 259.73 150.57 259.58 149.97
  A 0.54 0.54 0.0 0 0 259.49 149.75
  L 221.63 92.53
  A 1.13 1.13 0.0 0 0 220.06 92.21
  L 212.39 97.36"
/>
<path stroke="#37a5ff" vector-effect="non-scaling-stroke" d="
  M 191.81 0.00
  Q 200.70 10.61 207.00 17.01
  C 226.13 36.43 255.44 65.15 285.36 96.03"
/>
<path stroke="#598fbf" vector-effect="non-scaling-stroke" d="
  M 285.36 96.03
  L 274.39 120.86"
/>
<path stroke="#3fafff" vector-effect="non-scaling-stroke" d="
  M 227.16 0.00
  Q 239.47 13.57 244.31 18.42
  Q 277.13 51.32 309.85 84.31
  Q 317.60 92.14 322.09 100.08"
/>
<path stroke="#5d95bf" vector-effect="non-scaling-stroke" d="
  M 322.09 100.08
  L 290.35 86.20
  A 0.62 0.62 0.0 0 0 289.53 86.52
  L 285.36 96.03"
/>
<path stroke="#47b9ff" vector-effect="non-scaling-stroke" d="
  M 264.56 0.00
  Q 336.52 72.23 408.24 144.76
  C 427.58 164.32 452.57 188.11 469.89 205.66
  Q 478.25 214.14 501.66 239.13
  C 505.27 242.98 508.58 247.13 512.00 251.19"
/>
<path stroke="#3fafff" vector-effect="non-scaling-stroke" d="
  M 512.00 284.17
  Q 506.68 280.90 503.33 278.13
  Q 496.51 272.47 488.65 264.53
  Q 422.85 198.11 357.09 131.66
  Q 346.64 121.11 335.30 111.24"
/>
<path stroke="#a1daff" vector-effect="non-scaling-stroke" d="
  M 335.30 111.24
  Q 335.74 110.37 335.77 109.50"
/>
<path stroke="#619abf" vector-effect="non-scaling-stroke" d="
  M 335.77 109.50
  Q 337.00 108.29 336.86 107.11
  A 0.94 0.93 9.2 0 0 336.32 106.37
  L 322.09 100.08"
/>
<path stroke="#4fc4ff" vector-effect="non-scaling-stroke" d="
  M 300.31 0.00
  C 364.83 65.05 429.63 129.87 493.84 195.25
  Q 498.76 200.27 512.00 212.22"
/>
<path stroke="#58cfff" vector-effect="non-scaling-stroke" d="
  M 339.16 0.00
  Q 344.70 5.21 349.96 10.52
  C 399.47 60.59 449.21 110.44 498.77 160.45
  Q 503.47 165.19 512.00 175.72"
/>
<path stroke="#5fd8ff" vector-effect="non-scaling-stroke" d="
  M 378.82 0.00
  L 512.00 133.97"
/>
<path stroke="#4b7ebf" vector-effect="non-scaling-stroke" d="
  M 189.10 112.59
  L 177.98 120.00
  A 0.61 0.59 62.2 0 0 177.76 120.74
  Q 178.54 122.59 180.04 124.26"
/>
<path stroke="#8bbeff" vector-effect="non-scaling-stroke" d="
  M 180.04 124.26
  Q 198.19 151.67 216.51 179.47
  Q 217.53 181.02 216.62 180.78"
/>
<path stroke="#4b7ebf" vector-effect="non-scaling-stroke" d="
  M 216.62 180.78
  L 195.23 181.08"
/>
<path stroke="#1276ff" vector-effect="non-scaling-stroke" d="
  M 195.23 181.08
  Q 169.48 155.78 144.25 130.23
  Q 98.08 83.48 51.70 36.94
  Q 45.63 30.86 36.64 22.72"
/>
<path stroke="#4677bf" vector-effect="non-scaling-stroke" d="
  M 195.23 181.08
  L 146.08 181.64
  A 0.88 0.88 0.0 0 0 145.21 182.54
  L 145.63 203.46"
/>
<path stroke="#1067ff" vector-effect="non-scaling-stroke" d="
  M 145.63 203.46
  L 145.61 209.26
  A 0.22 0.22 0.0 0 1 145.25 209.42
  Q 127.39 193.43 113.22 179.10
  Q 43.33 108.42 30.96 95.97
  Q 18.87 83.81 4.19 71.46"
/>
<path stroke="#496fbf" vector-effect="non-scaling-stroke" d="
  M 145.63 203.46
  Q 146.18 217.99 146.22 232.54
  Q 146.22 233.62 146.71 233.76
  Q 147.21 233.90 148.12 233.50"
/>
<path stroke="#89afff" vector-effect="non-scaling-stroke" d="
  M 148.12 233.50
  L 224.86 232.25
  A 0.38 0.37 13.5 0 1 225.20 232.80
  L 222.91 237.19"
/>
<path stroke="#496fbf" vector-effect="non-scaling-stroke" d="
  M 222.91 237.19
  L 182.58 320.12"
/>
<path stroke="#1f5bff" vector-effect="non-scaling-stroke" d="
  M 182.58 320.12
  C 151.84 288.06 110.76 246.92 89.30 225.13
  Q 70.93 206.48 52.50 187.87
  Q 31.57 166.74 27.57 163.06
  Q 14.62 151.16 0.00 141.24"
/>
<path stroke="#bfbfbf" vector-effect="non-scaling-stroke" d="
  M 335.77 109.50
  L 292.06 90.35
  A 0.37 0.37 0.0 0 0 291.57 90.54
  L 262.91 155.53
  A 0.42 0.42 0.0 0 1 262.18 155.59
  L 223.13 96.57
  A 0.73 0.72 56.6 0 0 222.13 96.36
  L 180.04 124.26"
/>
<path stroke="#9dd5ff" vector-effect="non-scaling-stroke" d="
  M 335.30 111.24
  L 327.90 127.95"
/>
<path stroke="#99cfff" vector-effect="non-scaling-stroke" d="
  M 327.90 127.95
  L 305.39 178.97
  A 0.31 0.31 0.0 0 0 305.67 179.40
  L 309.07 179.38"
/>
<path stroke="#bfbfbf" vector-effect="non-scaling-stroke" d="
  M 309.07 179.38
  Q 307.88 181.18 307.51 183.08
  A 0.42 0.42 0.0 0 0 307.92 183.58
  L 384.95 182.97"
/>
<path stroke="#9dd5ff" vector-effect="non-scaling-stroke" d="
  M 384.95 182.97
  L 385.26 200.98"
/>
<path stroke="#99cfff" vector-effect="non-scaling-stroke" d="
  M 385.26 200.98
  L 385.48 229.73
  A 0.52 0.52 0.0 0 1 384.97 230.25
  L 379.40 230.41"
/>
<path stroke="#95caff" vector-effect="non-scaling-stroke" d="
  M 379.40 230.41
  L 342.48 230.66"
/>
<path stroke="#91c5ff" vector-effect="non-scaling-stroke" d="
  M 342.48 230.66
  L 313.99 230.98
  A 0.29 0.29 0.0 0 0 313.75 231.44
  L 315.98 234.71"
/>
<path stroke="#bfbfbf" vector-effect="non-scaling-stroke" d="
  M 315.98 234.71
  Q 315.09 235.21 315.83 236.33
  Q 333.65 263.08 351.32 289.91
  Q 351.76 290.58 352.45 290.50"
/>
<path stroke="#91c5ff" vector-effect="non-scaling-stroke" d="
  M 352.45 290.50
  Q 352.27 290.62 352.45 290.99
  A 0.57 0.57 0.0 0 1 352.26 291.72
  L 351.90 291.97"
/>
<path stroke="#8bbeff" vector-effect="non-scaling-stroke" d="
  M 351.90 291.97
  L 323.98 310.46"
/>
<path stroke="#86b7ff" vector-effect="non-scaling-stroke" d="
  M 323.98 310.46
  L 310.15 319.63
  A 0.53 0.52 56.5 0 1 309.43 319.48
  L 270.21 260.20
  A 0.39 0.38 -48.8 0 0 269.54 260.25
  L 245.15 309.77"
/>
<path stroke="#89afff" vector-effect="non-scaling-stroke" d="
  M 245.15 309.77
  L 223.90 352.94"
/>
<path stroke="#95abff" vector-effect="non-scaling-stroke" d="
  M 223.90 352.94
  L 196.32 408.95"
/>
<path stroke="#a3a6fe" vector-effect="non-scaling-stroke" d="
  M 196.32 408.95
  L 180.34 441.39
  A 0.39 0.39 0.0 0 1 179.82 441.57
  L 147.30 425.89"
/>
<path stroke="#b3a0fd" vector-effect="non-scaling-stroke" d="
  M 147.30 425.89
  L 137.71 420.96"
/>
<path stroke="#bfbfbf" vector-effect="non-scaling-stroke" d="
  M 137.71 420.96
  L 226.98 237.19
  A 0.42 0.42 0.0 0 0 226.70 236.60
  Q 224.77 236.12 222.91 237.19"
/>
<path stroke="#bfbfbf" vector-effect="non-scaling-stroke" d="
  M 148.12 233.50
  L 147.31 186.71
  A 0.60 0.60 0.0 0 1 147.90 186.10
  L 218.66 185.01
  A 0.39 0.38 72.9 0 0 218.97 184.41
  L 216.62 180.78"
/>
<path stroke="#37a5ff" vector-effect="non-scaling-stroke" d="
  M 512.00 325.50
  Q 502.98 315.08 493.37 305.46
  Q 448.78 260.86 404.53 215.92
  Q 395.14 206.38 385.26 200.98"
/>
<path stroke="#5d95bf" vector-effect="non-scaling-stroke" d="
  M 384.95 182.97
  L 384.89 179.20"
/>
<path stroke="#37a5ff" vector-effect="non-scaling-stroke" d="
  M 384.89 179.20
  L 385.02 178.87
  A 0.52 0.52 0.0 0 0 384.85 178.26
  C 370.52 167.54 360.46 157.78 347.12 144.33
  Q 340.83 137.98 327.90 127.95"
/>
<path stroke="#598fbf" vector-effect="non-scaling-stroke" d="
  M 384.89 179.20
  Q 384.55 178.72 383.25 178.73
  Q 346.12 179.01 309.07 179.38"
/>
<path stroke="#556bbf" vector-effect="non-scaling-stroke" d="
  M 182.58 320.12
  L 161.14 364.24"
/>
<path stroke="#3952fd" vector-effect="non-scaling-stroke" d="
  M 161.14 364.24
  Q 148.01 352.95 142.81 347.62
  Q 112.36 316.40 81.39 285.69
  C 65.71 270.14 52.53 256.52 38.23 241.81
  C 30.05 233.39 21.64 225.73 12.74 217.40
  C 8.63 213.55 4.25 208.86 0.00 204.58"
/>
<path stroke="#2e9aff" vector-effect="non-scaling-stroke" d="
  M 512.00 361.69
  C 507.39 356.72 502.84 351.65 498.08 346.88
  Q 451.74 300.52 405.69 253.87
  Q 393.35 241.37 379.40 230.41"
/>
<path stroke="#6366be" vector-effect="non-scaling-stroke" d="
  M 161.14 364.24
  L 135.99 416.02"
/>
<path stroke="#5747fb" vector-effect="non-scaling-stroke" d="
  M 135.99 416.02
  Q 121.05 402.87 107.23 388.81
  Q 67.03 347.87 26.44 307.32
  Q 15.77 296.66 0.00 282.99"
/>
<path stroke="#2690ff" vector-effect="non-scaling-stroke" d="
  M 512.00 398.21
  Q 502.27 389.77 493.24 380.70
  C 452.65 339.96 411.81 299.44 371.59 258.34
  Q 357.53 243.97 342.48 230.66"
/>
<path stroke="#1b5bbf" vector-effect="non-scaling-stroke" d="
  M 512.00 405.81
  Q 511.12 410.71 510.21 415.49
  Q 507.92 427.53 502.85 438.65"
/>
<path stroke="#1d84ff" vector-effect="non-scaling-stroke" d="
  M 502.85 438.65
  Q 488.97 427.07 476.40 414.36
  Q 423.26 360.61 369.66 307.33
  Q 363.78 301.49 351.90 291.97"
/>
<path stroke="#5185bf" vector-effect="non-scaling-stroke" d="
  M 352.45 290.50
  Q 352.14 289.34 350.65 287.10
  Q 333.29 260.93 315.98 234.71"
/>
<path stroke="#7360bd" vector-effect="non-scaling-stroke" d="
  M 137.71 420.96
  Q 136.13 420.87 134.81 419.84
  A 0.67 0.66 31.5 0 1 134.62 419.06
  L 135.99 416.02"
/>
<path stroke="#1276ff" vector-effect="non-scaling-stroke" d="
  M 323.98 310.46
  Q 342.45 329.39 361.02 348.12
  C 394.57 381.95 428.26 416.46 462.41 450.14
  Q 469.92 457.55 480.09 470.13"
/>
<path stroke="#104dbf" vector-effect="non-scaling-stroke" d="
  M 480.09 470.13
  Q 455.94 492.34 423.20 496.35"
/>
<path stroke="#1067ff" vector-effect="non-scaling-stroke" d="
  M 423.20 496.35
  Q 404.01 474.19 393.93 464.07
  Q 345.30 415.20 296.86 366.14
  Q 279.44 348.49 262.71 330.17
  Q 253.65 320.24 245.15 309.77"
/>
<path stroke="#5747fb" vector-effect="non-scaling-stroke" d="
  M 147.30 425.89
  C 171.22 449.72 194.75 474.09 219.50 497.01"
/>
<path stroke="#3e36bc" vector-effect="non-scaling-stroke" d="
  M 219.50 497.01
  L 170.78 497.02"
/>
<path stroke="#552ebb" vector-effect="non-scaling-stroke" d="
  M 170.78 497.02
  Q 140.18 497.03 109.75 497.18
  Q 95.98 497.25 89.05 496.39
  Q 57.59 492.46 34.74 472.63
  C 17.32 457.52 5.48 436.93 1.57 414.47
  Q 0.68 409.33 0.00 407.44"
/>
<path stroke="#1654bf" vector-effect="non-scaling-stroke" d="
  M 502.85 438.65
  Q 494.54 456.57 480.09 470.13"
/>
<path stroke="#1445bf" vector-effect="non-scaling-stroke" d="
  M 423.20 496.35
  Q 418.77 496.81 417.50 496.83
  Q 390.35 497.23 363.35 497.00"
/>
<path stroke="#1f5bff" vector-effect="non-scaling-stroke" d="
  M 363.35 497.00
  Q 351.40 480.19 333.55 462.08
  C 287.48 415.34 256.81 384.34 223.90 352.94"
/>
<path stroke="#2041be" vector-effect="non-scaling-stroke" d="
  M 363.35 497.00
  L 306.89 497.03"
/>
<path stroke="#2041be" vector-effect="non-scaling-stroke" d="
  M 306.89 497.03
  L 284.34 497.02"
/>
<path stroke="#3952fd" vector-effect="non-scaling-stroke" d="
  M 284.34 497.02
  Q 274.35 486.01 264.05 475.63
  Q 237.46 448.85 210.65 422.29
  Q 207.77 419.44 196.32 408.95"
/>
<path stroke="#142b7e" vector-effect="non-scaling-stroke" d="
  M 320.06 512.00
  L 306.89 497.03"
/>
<path stroke="#2c237d" vector-effect="non-scaling-stroke" d="
  M 170.78 497.02
  Q 181.79 503.87 192.09 512.00"
/>
<path stroke="#2d3cbd" vector-effect="non-scaling-stroke" d="
  M 284.34 497.02
  L 219.50 497.01"
/>
</g>
<path fill="#228bff" d="
  M 117.30 0.00
  Q 126.38 11.65 138.58 23.98
  C 162.97 48.62 187.24 73.49 212.39 97.36
  L 189.10 112.59
  Q 177.73 102.27 167.00 91.54
  Q 122.63 47.15 78.76 2.31
  L 95.12 0.00
  L 117.30 0.00
  Z"
/>
<path fill="#2a95ff" d="
  M 158.33 0.00
  Q 166.43 12.75 177.13 23.40
  Q 193.81 40.00 210.48 56.60
  C 229.18 75.22 252.87 99.64 274.39 120.86
  L 261.35 150.78
  A 0.83 0.83 0.0 0 1 259.84 150.81
  Q 259.73 150.57 259.58 149.97
  A 0.54 0.54 0.0 0 0 259.49 149.75
  L 221.63 92.53
  A 1.13 1.13 0.0 0 0 220.06 92.21
  L 212.39 97.36
  C 187.24 73.49 162.97 48.62 138.58 23.98
  Q 126.38 11.65 117.30 0.00
  L 158.33 0.00
  Z"
/>
<path fill="#329fff" d="
  M 191.81 0.00
  Q 200.70 10.61 207.00 17.01
  C 226.13 36.43 255.44 65.15 285.36 96.03
  L 274.39 120.86
  C 252.87 99.64 229.18 75.22 210.48 56.60
  Q 193.81 40.00 177.13 23.40
  Q 166.43 12.75 158.33 0.00
  L 191.81 0.00
  Z"
/>
<path fill="#3baaff" d="
  M 227.16 0.00
  Q 239.47 13.57 244.31 18.42
  Q 277.13 51.32 309.85 84.31
  Q 317.60 92.14 322.09 100.08
  L 290.35 86.20
  A 0.62 0.62 0.0 0 0 289.53 86.52
  L 285.36 96.03
  C 255.44 65.15 226.13 36.43 207.00 17.01
  Q 200.70 10.61 191.81 0.00
  L 227.16 0.00
  Z"
/>
<path fill="#43b4ff" d="
  M 264.56 0.00
  Q 336.52 72.23 408.24 144.76
  C 427.58 164.32 452.57 188.11 469.89 205.66
  Q 478.25 214.14 501.66 239.13
  C 505.27 242.98 508.58 247.13 512.00 251.19
  L 512.00 284.17
  Q 506.68 280.90 503.33 278.13
  Q 496.51 272.47 488.65 264.53
  Q 422.85 198.11 357.09 131.66
  Q 346.64 121.11 335.30 111.24
  Q 335.74 110.37 335.77 109.50
  Q 337.00 108.29 336.86 107.11
  A 0.94 0.93 9.2 0 0 336.32 106.37
  L 322.09 100.08
  Q 317.60 92.14 309.85 84.31
  Q 277.13 51.32 244.31 18.42
  Q 239.47 13.57 227.16 0.00
  L 264.56 0.00
  Z"
/>
<path fill="#4bbeff" d="
  M 300.31 0.00
  C 364.83 65.05 429.63 129.87 493.84 195.25
  Q 498.76 200.27 512.00 212.22
  L 512.00 251.19
  C 508.58 247.13 505.27 242.98 501.66 239.13
  Q 478.25 214.14 469.89 205.66
  C 452.57 188.11 427.58 164.32 408.24 144.76
  Q 336.52 72.23 264.56 0.00
  L 300.31 0.00
  Z"
/>
<path fill="#53c9ff" d="
  M 339.16 0.00
  Q 344.70 5.21 349.96 10.52
  C 399.47 60.59 449.21 110.44 498.77 160.45
  Q 503.47 165.19 512.00 175.72
  L 512.00 212.22
  Q 498.76 200.27 493.84 195.25
  C 429.63 129.87 364.83 65.05 300.31 0.00
  L 339.16 0.00
  Z"
/>
<path fill="#5cd4ff" d="
  M 378.82 0.00
  L 512.00 133.97
  L 512.00 175.72
  Q 503.47 165.19 498.77 160.45
  C 449.21 110.44 399.47 60.59 349.96 10.52
  Q 344.70 5.21 339.16 0.00
  L 378.82 0.00
  Z"
/>
<path fill="#62dcff" d="
  M 416.76 0.00
  Q 440.45 1.49 459.80 12.18
  C 490.59 29.19 509.52 59.63 512.00 95.16
  L 512.00 133.97
  L 378.82 0.00
  L 416.76 0.00
  Z"
/>
<path fill="#177dff" d="
  M 78.76 2.31
  Q 122.63 47.15 167.00 91.54
  Q 177.73 102.27 189.10 112.59
  L 177.98 120.00
  A 0.61 0.59 62.2 0 0 177.76 120.74
  Q 178.54 122.59 180.04 124.26
  Q 198.19 151.67 216.51 179.47
  Q 217.53 181.02 216.62 180.78
  L 195.23 181.08
  Q 169.48 155.78 144.25 130.23
  Q 98.08 83.48 51.70 36.94
  Q 45.63 30.86 36.64 22.72
  Q 55.22 7.58 78.76 2.31
  Z"
/>
<path fill="#0c6eff" d="
  M 36.64 22.72
  Q 45.63 30.86 51.70 36.94
  Q 98.08 83.48 144.25 130.23
  Q 169.48 155.78 195.23 181.08
  L 146.08 181.64
  A 0.88 0.88 0.0 0 0 145.21 182.54
  L 145.63 203.46
  L 145.61 209.26
  A 0.22 0.22 0.0 0 1 145.25 209.42
  Q 127.39 193.43 113.22 179.10
  Q 43.33 108.42 30.96 95.97
  Q 18.87 83.81 4.19 71.46
  Q 13.13 42.25 36.64 22.72
  Z"
/>
<path fill="#135fff" d="
  M 145.63 203.46
  Q 146.18 217.99 146.22 232.54
  Q 146.22 233.62 146.71 233.76
  Q 147.21 233.90 148.12 233.50
  L 224.86 232.25
  A 0.38 0.37 13.5 0 1 225.20 232.80
  L 222.91 237.19
  L 182.58 320.12
  C 151.84 288.06 110.76 246.92 89.30 225.13
  Q 70.93 206.48 52.50 187.87
  Q 31.57 166.74 27.57 163.06
  Q 14.62 151.16 0.00 141.24
  L 0.00 95.16
  Q 0.82 83.09 4.19 71.46
  Q 18.87 83.81 30.96 95.97
  Q 43.33 108.42 113.22 179.10
  Q 127.39 193.43 145.25 209.42
  A 0.22 0.22 0.0 0 0 145.61 209.26
  L 145.63 203.46
  Z"
/>
<path fill="#7f7f7f" d="
  M 322.09 100.08
  L 336.32 106.37
  A 0.94 0.93 9.2 0 1 336.86 107.11
  Q 337.00 108.29 335.77 109.50
  L 292.06 90.35
  A 0.37 0.37 0.0 0 0 291.57 90.54
  L 262.91 155.53
  A 0.42 0.42 0.0 0 1 262.18 155.59
  L 223.13 96.57
  A 0.73 0.72 56.6 0 0 222.13 96.36
  L 180.04 124.26
  Q 178.54 122.59 177.76 120.74
  A 0.61 0.59 62.2 0 1 177.98 120.00
  L 189.10 112.59
  L 212.39 97.36
  L 220.06 92.21
  A 1.13 1.13 0.0 0 1 221.63 92.53
  L 259.49 149.75
  A 0.54 0.54 0.0 0 1 259.58 149.97
  Q 259.73 150.57 259.84 150.81
  A 0.83 0.83 0.0 0 0 261.35 150.78
  L 274.39 120.86
  L 285.36 96.03
  L 289.53 86.52
  A 0.62 0.62 0.0 0 1 290.35 86.20
  L 322.09 100.08
  Z"
/>
<path fill="#ffffff" d="
  M 335.77 109.50
  Q 335.74 110.37 335.30 111.24
  L 327.90 127.95
  L 305.39 178.97
  A 0.31 0.31 0.0 0 0 305.67 179.40
  L 309.07 179.38
  Q 307.88 181.18 307.51 183.08
  A 0.42 0.42 0.0 0 0 307.92 183.58
  L 384.95 182.97
  L 385.26 200.98
  L 385.48 229.73
  A 0.52 0.52 0.0 0 1 384.97 230.25
  L 379.40 230.41
  L 342.48 230.66
  L 313.99 230.98
  A 0.29 0.29 0.0 0 0 313.75 231.44
  L 315.98 234.71
  Q 315.09 235.21 315.83 236.33
  Q 333.65 263.08 351.32 289.91
  Q 351.76 290.58 352.45 290.50
  Q 352.27 290.62 352.45 290.99
  A 0.57 0.57 0.0 0 1 352.26 291.72
  L 351.90 291.97
  L 323.98 310.46
  L 310.15 319.63
  A 0.53 0.52 56.5 0 1 309.43 319.48
  L 270.21 260.20
  A 0.39 0.38 -48.8 0 0 269.54 260.25
  L 245.15 309.77
  L 223.90 352.94
  L 196.32 408.95
  L 180.34 441.39
  A 0.39 0.39 0.0 0 1 179.82 441.57
  L 147.30 425.89
  L 137.71 420.96
  L 226.98 237.19
  A 0.42 0.42 0.0 0 0 226.70 236.60
  Q 224.77 236.12 222.91 237.19
  L 225.20 232.80
  A 0.38 0.37 13.5 0 0 224.86 232.25
  L 148.12 233.50
  L 147.31 186.71
  A 0.60 0.60 0.0 0 1 147.90 186.10
  L 218.66 185.01
  A 0.39 0.38 72.9 0 0 218.97 184.41
  L 216.62 180.78
  Q 217.53 181.02 216.51 179.47
  Q 198.19 151.67 180.04 124.26
  L 222.13 96.36
  A 0.73 0.72 56.6 0 1 223.13 96.57
  L 262.18 155.59
  A 0.42 0.42 0.0 0 0 262.91 155.53
  L 291.57 90.54
  A 0.37 0.37 0.0 0 1 292.06 90.35
  L 335.77 109.50
  Z"
/>
<path fill="#3baaff" d="
  M 512.00 284.17
  L 512.00 325.50
  Q 502.98 315.08 493.37 305.46
  Q 448.78 260.86 404.53 215.92
  Q 395.14 206.38 385.26 200.98
  L 384.95 182.97
  L 384.89 179.20
  L 385.02 178.87
  A 0.52 0.52 0.0 0 0 384.85 178.26
  C 370.52 167.54 360.46 157.78 347.12 144.33
  Q 340.83 137.98 327.90 127.95
  L 335.30 111.24
  Q 346.64 121.11 357.09 131.66
  Q 422.85 198.11 488.65 264.53
  Q 496.51 272.47 503.33 278.13
  Q 506.68 280.90 512.00 284.17
  Z"
/>
<path fill="#329fff" d="
  M 327.90 127.95
  Q 340.83 137.98 347.12 144.33
  C 360.46 157.78 370.52 167.54 384.85 178.26
  A 0.52 0.52 0.0 0 1 385.02 178.87
  L 384.89 179.20
  Q 384.55 178.72 383.25 178.73
  Q 346.12 179.01 309.07 179.38
  L 305.67 179.40
  A 0.31 0.31 0.0 0 1 305.39 178.97
  L 327.90 127.95
  Z"
/>
<path fill="#2b57fe" d="
  M 182.58 320.12
  L 161.14 364.24
  Q 148.01 352.95 142.81 347.62
  Q 112.36 316.40 81.39 285.69
  C 65.71 270.14 52.53 256.52 38.23 241.81
  C 30.05 233.39 21.64 225.73 12.74 217.40
  C 8.63 213.55 4.25 208.86 0.00 204.58
  L 0.00 141.24
  Q 14.62 151.16 27.57 163.06
  Q 31.57 166.74 52.50 187.87
  Q 70.93 206.48 89.30 225.13
  C 110.76 246.92 151.84 288.06 182.58 320.12
  Z"
/>
<path fill="#7f7f7f" d="
  M 384.89 179.20
  L 384.95 182.97
  L 307.92 183.58
  A 0.42 0.42 0.0 0 1 307.51 183.08
  Q 307.88 181.18 309.07 179.38
  Q 346.12 179.01 383.25 178.73
  Q 384.55 178.72 384.89 179.20
  Z"
/>
<path fill="#7f7f7f" d="
  M 216.62 180.78
  L 218.97 184.41
  A 0.39 0.38 72.9 0 1 218.66 185.01
  L 147.90 186.10
  A 0.60 0.60 0.0 0 0 147.31 186.71
  L 148.12 233.50
  Q 147.21 233.90 146.71 233.76
  Q 146.22 233.62 146.22 232.54
  Q 146.18 217.99 145.63 203.46
  L 145.21 182.54
  A 0.88 0.88 0.0 0 1 146.08 181.64
  L 195.23 181.08
  L 216.62 180.78
  Z"
/>
<path fill="#329fff" d="
  M 512.00 325.50
  L 512.00 361.69
  C 507.39 356.72 502.84 351.65 498.08 346.88
  Q 451.74 300.52 405.69 253.87
  Q 393.35 241.37 379.40 230.41
  L 384.97 230.25
  A 0.52 0.52 0.0 0 0 385.48 229.73
  L 385.26 200.98
  Q 395.14 206.38 404.53 215.92
  Q 448.78 260.86 493.37 305.46
  Q 502.98 315.08 512.00 325.50
  Z"
/>
<path fill="#464dfc" d="
  M 161.14 364.24
  L 135.99 416.02
  Q 121.05 402.87 107.23 388.81
  Q 67.03 347.87 26.44 307.32
  Q 15.77 296.66 0.00 282.99
  L 0.00 204.58
  C 4.25 208.86 8.63 213.55 12.74 217.40
  C 21.64 225.73 30.05 233.39 38.23 241.81
  C 52.53 256.52 65.71 270.14 81.39 285.69
  Q 112.36 316.40 142.81 347.62
  Q 148.01 352.95 161.14 364.24
  Z"
/>
<path fill="#2a95ff" d="
  M 379.40 230.41
  Q 393.35 241.37 405.69 253.87
  Q 451.74 300.52 498.08 346.88
  C 502.84 351.65 507.39 356.72 512.00 361.69
  L 512.00 398.21
  Q 502.27 389.77 493.24 380.70
  C 452.65 339.96 411.81 299.44 371.59 258.34
  Q 357.53 243.97 342.48 230.66
  L 379.40 230.41
  Z"
/>
<path fill="#228bff" d="
  M 342.48 230.66
  Q 357.53 243.97 371.59 258.34
  C 411.81 299.44 452.65 339.96 493.24 380.70
  Q 502.27 389.77 512.00 398.21
  L 512.00 405.81
  Q 511.12 410.71 510.21 415.49
  Q 507.92 427.53 502.85 438.65
  Q 488.97 427.07 476.40 414.36
  Q 423.26 360.61 369.66 307.33
  Q 363.78 301.49 351.90 291.97
  L 352.26 291.72
  A 0.57 0.57 0.0 0 0 352.45 290.99
  Q 352.27 290.62 352.45 290.50
  Q 352.14 289.34 350.65 287.10
  Q 333.29 260.93 315.98 234.71
  L 313.75 231.44
  A 0.29 0.29 0.0 0 1 313.99 230.98
  L 342.48 230.66
  Z"
/>
<path fill="#7f7f7f" d="
  M 352.45 290.50
  Q 351.76 290.58 351.32 289.91
  Q 333.65 263.08 315.83 236.33
  Q 315.09 235.21 315.98 234.71
  Q 333.29 260.93 350.65 287.10
  Q 352.14 289.34 352.45 290.50
  Z"
/>
<path fill="#7f7f7f" d="
  M 137.71 420.96
  Q 136.13 420.87 134.81 419.84
  A 0.67 0.66 31.5 0 1 134.62 419.06
  L 135.99 416.02
  L 161.14 364.24
  L 182.58 320.12
  L 222.91 237.19
  Q 224.77 236.12 226.70 236.60
  A 0.42 0.42 0.0 0 1 226.98 237.19
  L 137.71 420.96
  Z"
/>
<path fill="#0c6eff" d="
  M 323.98 310.46
  Q 342.45 329.39 361.02 348.12
  C 394.57 381.95 428.26 416.46 462.41 450.14
  Q 469.92 457.55 480.09 470.13
  Q 455.94 492.34 423.20 496.35
  Q 404.01 474.19 393.93 464.07
  Q 345.30 415.20 296.86 366.14
  Q 279.44 348.49 262.71 330.17
  Q 253.65 320.24 245.15 309.77
  L 269.54 260.25
  A 0.39 0.38 -48.8 0 1 270.21 260.20
  L 309.43 319.48
  A 0.53 0.52 56.5 0 0 310.15 319.63
  L 323.98 310.46
  Z"
/>
<path fill="#6741fa" d="
  M 135.99 416.02
  L 134.62 419.06
  A 0.67 0.66 31.5 0 0 134.81 419.84
  Q 136.13 420.87 137.71 420.96
  L 147.30 425.89
  C 171.22 449.72 194.75 474.09 219.50 497.01
  L 170.78 497.02
  Q 140.18 497.03 109.75 497.18
  Q 95.98 497.25 89.05 496.39
  Q 57.59 492.46 34.74 472.63
  C 17.32 457.52 5.48 436.93 1.57 414.47
  Q 0.68 409.33 0.00 407.44
  L 0.00 282.99
  Q 15.77 296.66 26.44 307.32
  Q 67.03 347.87 107.23 388.81
  Q 121.05 402.87 135.99 416.02
  Z"
/>
<path fill="#177dff" d="
  M 351.90 291.97
  Q 363.78 301.49 369.66 307.33
  Q 423.26 360.61 476.40 414.36
  Q 488.97 427.07 502.85 438.65
  Q 494.54 456.57 480.09 470.13
  Q 469.92 457.55 462.41 450.14
  C 428.26 416.46 394.57 381.95 361.02 348.12
  Q 342.45 329.39 323.98 310.46
  L 351.90 291.97
  Z"
/>
<path fill="#135fff" d="
  M 245.15 309.77
  Q 253.65 320.24 262.71 330.17
  Q 279.44 348.49 296.86 366.14
  Q 345.30 415.20 393.93 464.07
  Q 404.01 474.19 423.20 496.35
  Q 418.77 496.81 417.50 496.83
  Q 390.35 497.23 363.35 497.00
  Q 351.40 480.19 333.55 462.08
  C 287.48 415.34 256.81 384.34 223.90 352.94
  L 245.15 309.77
  Z"
/>
<path fill="#2b57fe" d="
  M 223.90 352.94
  C 256.81 384.34 287.48 415.34 333.55 462.08
  Q 351.40 480.19 363.35 497.00
  L 306.89 497.03
  L 284.34 497.02
  Q 274.35 486.01 264.05 475.63
  Q 237.46 448.85 210.65 422.29
  Q 207.77 419.44 196.32 408.95
  L 223.90 352.94
  Z"
/>
<path fill="#142b7e" d="
  M 512.00 405.81
  L 512.00 418.12
  Q 508.33 461.82 475.97 488.96
  Q 451.68 509.34 418.26 512.00
  L 320.06 512.00
  L 306.89 497.03
  L 363.35 497.00
  Q 390.35 497.23 417.50 496.83
  Q 418.77 496.81 423.20 496.35
  Q 455.94 492.34 480.09 470.13
  Q 494.54 456.57 502.85 438.65
  Q 507.92 427.53 510.21 415.49
  Q 511.12 410.71 512.00 405.81
  Z"
/>
<path fill="#431a7c" d="
  M 170.78 497.02
  Q 181.79 503.87 192.09 512.00
  L 93.88 512.00
  Q 60.49 509.41 36.17 489.08
  Q 3.75 461.98 0.00 418.28
  L 0.00 407.44
  Q 0.68 409.33 1.57 414.47
  C 5.48 436.93 17.32 457.52 34.74 472.63
  Q 57.59 492.46 89.05 496.39
  Q 95.98 497.25 109.75 497.18
  Q 140.18 497.03 170.78 497.02
  Z"
/>
<path fill="#464dfc" d="
  M 284.34 497.02
  L 219.50 497.01
  C 194.75 474.09 171.22 449.72 147.30 425.89
  L 179.82 441.57
  A 0.39 0.39 0.0 0 0 180.34 441.39
  L 196.32 408.95
  Q 207.77 419.44 210.65 422.29
  Q 237.46 448.85 264.05 475.63
  Q 274.35 486.01 284.34 497.02
  Z"
/>
<path fill="#142b7e" d="
  M 219.50 497.01
  L 284.34 497.02
  L 306.89 497.03
  L 320.06 512.00
  L 192.09 512.00
  Q 181.79 503.87 170.78 497.02
  L 219.50 497.01
  Z"
/>
</svg>