<?xml version="1.0" encoding="UTF-8" standalone="no"?>
<!DOCTYPE svg PUBLIC "-//W3C//DTD SVG 1.1//EN" "http://www.w3.org/Graphics/SVG/1.1/DTD/svg11.dtd">
<svg xmlns="http://www.w3.org/2000/svg" version="1.1" viewBox="0.00 0.00 180.00 180.00" width="128" height="128">
<path fill="#416af7" d="
  M 90.57 6.45
  C 133.54 6.45 169.39 39.22 173.46 81.79
  A 0.45 0.45 0.0 0 1 173.01 82.29
  L 134.78 82.30
  A 0.38 0.38 0.0 0 1 134.40 81.93
  C 134.04 72.62 132.98 61.19 121.00 60.34
  Q 105.93 59.28 90.57 59.28
  Q 75.22 59.28 60.15 60.34
  C 48.17 61.19 47.11 72.62 46.75 81.93
  A 0.38 0.38 0.0 0 1 46.37 82.30
  L 8.14 82.30
  A 0.45 0.45 0.0 0 1 7.69 81.80
  C 11.76 39.22 47.60 6.45 90.57 6.45
  Z"
/>
<path fill="#416af7" d="
  M 90.59 71.67
  Q 102.02 71.67 112.12 72.35
  C 116.54 72.64 118.56 73.72 120.67 77.33
  A 0.59 0.59 0.0 0 1 120.36 78.18
  Q 105.28 83.64 90.75 88.63
  Q 90.67 88.65 90.59 88.65
  Q 90.51 88.65 90.43 88.63
  Q 75.90 83.64 60.82 78.18
  A 0.59 0.59 0.0 0 1 60.51 77.33
  C 62.62 73.72 64.64 72.64 69.06 72.35
  Q 79.16 71.67 90.59 71.67
  Z"
/>
<path fill="#416af7" d="
  M 90.59 95.07
  Q 91.06 95.07 91.25 95.00
  Q 107.56 89.23 121.34 84.29
  A 0.51 0.51 0.0 0 1 122.02 84.73
  Q 122.63 92.60 121.37 100.04
  Q 120.81 103.38 117.54 105.85
  Q 115.84 107.13 110.72 107.35
  Q 98.94 107.85 90.59 107.85
  Q 82.25 107.86 70.47 107.37
  Q 65.34 107.16 63.64 105.88
  Q 60.37 103.41 59.81 100.07
  Q 58.54 92.64 59.14 84.76
  A 0.51 0.51 0.0 0 1 59.82 84.32
  Q 73.61 89.25 89.92 95.01
  Q 90.12 95.08 90.59 95.07
  Z"
/>
<path fill="#416af7" d="
  M 90.58 120.30
  Q 105.94 120.30 121.00 119.23
  C 132.99 118.38 134.04 106.95 134.40 97.64
  A 0.38 0.38 0.0 0 1 134.78 97.27
  L 173.01 97.27
  A 0.45 0.45 0.0 0 1 173.46 97.77
  C 169.40 140.34 133.56 173.12 90.59 173.12
  C 47.62 173.13 11.78 140.37 7.70 97.80
  A 0.45 0.45 0.0 0 1 8.15 97.30
  L 46.38 97.29
  A 0.38 0.38 0.0 0 1 46.76 97.66
  C 47.12 106.97 48.18 118.40 60.16 119.24
  Q 75.23 120.30 90.58 120.30
  Z"
/>
</svg>