<?xml version="1.0" encoding="UTF-8" standalone="no"?>
<!DOCTYPE svg PUBLIC "-//W3C//DTD SVG 1.1//EN" "http://www.w3.org/Graphics/SVG/1.1/DTD/svg11.dtd">
<svg xmlns="http://www.w3.org/2000/svg" version="1.1" viewBox="0.00 0.00 256.00 256.00" width="128" height="128">
<g stroke-width="2.00" fill="none" stroke-linecap="butt">
<path stroke="#349042" vector-effect="non-scaling-stroke" d="
  M 254.99 141.87
  Q 251.42 138.35 243.07 132.45
  Q 238.99 129.56 226.87 118.01
  C 222.98 114.32 220.32 112.14 216.72 109.29
  A 2.59 2.48 -85.5 0 1 216.01 108.42
  Q 212.87 102.24 206.18 98.47
  A 1.00 1.00 0.0 0 0 204.69 99.22
  L 204.42 101.50"
/>
<path stroke="#a3cba1" vector-effect="non-scaling-stroke" d="
  M 204.42 101.50
  Q 199.44 89.64 191.02 81.47
  C 183.69 74.34 171.05 67.69 160.00 67.37
  Q 143.72 66.90 126.77 67.39
  C 120.14 67.59 114.09 67.24 113.77 75.79
  C 113.67 78.37 113.22 81.63 113.25 84.75
  Q 113.38 99.48 113.09 114.22"
/>
<path stroke="#349042" vector-effect="non-scaling-stroke" d="
  M 113.09 114.22
  L 113.00 106.96
  A 0.61 0.60 -8.7 0 0 112.22 106.39
  C 108.70 107.47 103.92 106.70 102.08 103.02
  Q 101.09 101.04 99.96 98.15
  A 0.48 0.48 0.0 0 0 99.21 97.94
  L 98.72 98.32"
/>
<path stroke="#a3cba1" vector-effect="non-scaling-stroke" d="
  M 98.72 98.32
  Q 98.81 86.94 97.87 75.69
  C 97.52 71.53 96.54 68.28 92.11 67.90
  Q 84.05 67.21 75.48 67.10
  C 69.93 67.03 65.65 66.44 63.81 71.82
  Q 62.42 75.89 62.44 82.50
  Q 62.56 117.49 62.40 152.48"
/>
<path stroke="#409443" vector-effect="non-scaling-stroke" d="
  M 62.40 152.48
  L 62.19 143.52
  A 2.33 2.26 -59.7 0 0 61.97 142.63
  C 58.39 135.26 54.06 130.92 45.60 130.56
  Q 28.09 129.80 11.35 134.90
  C 6.63 136.34 3.82 135.28 3.17 129.90
  Q 2.06 120.71 2.16 113.51"
/>
<path stroke="#2e8c41" vector-effect="non-scaling-stroke" d="
  M 135.74 255.29
  C 130.46 251.97 125.74 251.31 121.35 246.88
  C 119.06 244.56 115.95 242.12 113.94 239.31
  C 107.54 230.39 97.98 222.33 90.58 213.86
  Q 84.93 207.40 79.14 201.15
  C 76.32 198.10 73.69 192.28 78.80 189.60"
/>
<path stroke="#91c4a0" vector-effect="non-scaling-stroke" d="
  M 204.42 101.50
  C 209.20 112.69 210.05 125.07 209.09 136.50
  Q 207.50 155.50 195.17 170.96
  C 187.15 181.01 172.84 189.42 159.23 189.75
  Q 145.21 190.09 127.76 189.62
  Q 122.12 189.46 118.54 188.72
  C 113.30 187.65 113.57 182.56 113.26 177.73
  Q 113.09 175.22 113.09 171.81
  Q 113.09 143.01 113.09 114.22"
/>
<path stroke="#91c4a0" vector-effect="non-scaling-stroke" d="
  M 98.72 98.32
  C 98.69 108.16 99.27 119.62 99.11 127.89
  Q 98.66 150.04 98.68 175.50
  Q 98.69 180.41 96.99 186.03
  Q 95.98 189.37 92.53 189.56
  Q 85.64 189.93 78.80 189.60"
/>
<path stroke="#9cc8a1" vector-effect="non-scaling-stroke" d="
  M 78.80 189.60
  Q 75.44 189.59 72.07 189.76
  C 67.67 189.98 65.11 189.54 63.86 185.35
  Q 62.55 180.94 62.45 175.25
  Q 62.23 163.87 62.40 152.48"
/>
</g>
<path fill="#469743" d="
  M 254.99 141.87
  Q 251.42 138.35 243.07 132.45
  Q 238.99 129.56 226.87 118.01
  C 222.98 114.32 220.32 112.14 216.72 109.29
  A 2.59 2.48 -85.5 0 1 216.01 108.42
  Q 212.87 102.24 206.18 98.47
  A 1.00 1.00 0.0 0 0 204.69 99.22
  L 204.42 101.50
  Q 199.44 89.64 191.02 81.47
  C 183.69 74.34 171.05 67.69 160.00 67.37
  Q 143.72 66.90 126.77 67.39
  C 120.14 67.59 114.09 67.24 113.77 75.79
  C 113.67 78.37 113.22 81.63 113.25 84.75
  Q 113.38 99.48 113.09 114.22
  L 113.00 106.96
  A 0.61 0.60 -8.7 0 0 112.22 106.39
  C 108.70 107.47 103.92 106.70 102.08 103.02
  Q 101.09 101.04 99.96 98.15
  A 0.48 0.48 0.0 0 0 99.21 97.94
  L 98.72 98.32
  Q 98.81 86.94 97.87 75.69
  C 97.52 71.53 96.54 68.28 92.11 67.90
  Q 84.05 67.21 75.48 67.10
  C 69.93 67.03 65.65 66.44 63.81 71.82
  Q 62.42 75.89 62.44 82.50
  Q 62.56 117.49 62.40 152.48
  L 62.19 143.52
  A 2.33 2.26 -59.7 0 0 61.97 142.63
  C 58.39 135.26 54.06 130.92 45.60 130.56
  Q 28.09 129.80 11.35 134.90
  C 6.63 136.34 3.82 135.28 3.17 129.90
  Q 2.06 120.71 2.16 113.51
  C 2.88 106.65 5.09 100.00 6.76 93.68
  C 13.40 68.57 28.02 46.95 48.02 30.52
  Q 57.58 22.67 67.07 17.31
  Q 70.35 15.45 79.49 11.43
  Q 85.59 8.74 92.45 6.87
  C 105.21 3.39 114.18 0.55 126.25 0.67
  Q 136.99 0.78 144.81 1.68
  C 151.55 2.46 156.49 4.55 162.88 6.36
  C 171.99 8.94 178.89 12.01 187.63 16.12
  Q 189.72 17.11 194.72 20.28
  Q 233.02 44.55 248.16 86.08
  C 254.58 103.65 255.98 123.06 254.99 141.87
  Z"
/>
<path fill="#ffffff" d="
  M 98.72 98.32
  C 98.69 108.16 99.27 119.62 99.11 127.89
  Q 98.66 150.04 98.68 175.50
  Q 98.69 180.41 96.99 186.03
  Q 95.98 189.37 92.53 189.56
  Q 85.64 189.93 78.80 189.60
  Q 75.44 189.59 72.07 189.76
  C 67.67 189.98 65.11 189.54 63.86 185.35
  Q 62.55 180.94 62.45 175.25
  Q 62.23 163.87 62.40 152.48
  Q 62.56 117.49 62.44 82.50
  Q 62.42 75.89 63.81 71.82
  C 65.65 66.44 69.93 67.03 75.48 67.10
  Q 84.05 67.21 92.11 67.90
  C 96.54 68.28 97.52 71.53 97.87 75.69
  Q 98.81 86.94 98.72 98.32
  Z"
/>
<path fill="#ffffff" d="
  M 204.42 101.50
  C 209.20 112.69 210.05 125.07 209.09 136.50
  Q 207.50 155.50 195.17 170.96
  C 187.15 181.01 172.84 189.42 159.23 189.75
  Q 145.21 190.09 127.76 189.62
  Q 122.12 189.46 118.54 188.72
  C 113.30 187.65 113.57 182.56 113.26 177.73
  Q 113.09 175.22 113.09 171.81
  Q 113.09 143.01 113.09 114.22
  Q 113.38 99.48 113.25 84.75
  C 113.22 81.63 113.67 78.37 113.77 75.79
  C 114.09 67.24 120.14 67.59 126.77 67.39
  Q 143.72 66.90 160.00 67.37
  C 171.05 67.69 183.69 74.34 191.02 81.47
  Q 199.44 89.64 204.42 101.50
  Z"
/>
<path fill="#228840" d="
  M 113.09 114.22
  Q 113.09 143.01 113.09 171.81
  Q 113.09 175.22 113.26 177.73
  C 113.57 182.56 113.30 187.65 118.54 188.72
  Q 122.12 189.46 127.76 189.62
  Q 145.21 190.09 159.23 189.75
  C 172.84 189.42 187.15 181.01 195.17 170.96
  Q 207.50 155.50 209.09 136.50
  C 210.05 125.07 209.20 112.69 204.42 101.50
  L 204.69 99.22
  A 1.00 1.00 0.0 0 1 206.18 98.47
  Q 212.87 102.24 216.01 108.42
  A 2.59 2.48 -85.5 0 0 216.72 109.29
  C 220.32 112.14 222.98 114.32 226.87 118.01
  Q 238.99 129.56 243.07 132.45
  Q 251.42 138.35 254.99 141.87
  C 254.98 149.51 252.14 156.77 250.20 163.89
  Q 247.96 172.15 246.26 175.95
  Q 241.93 185.61 241.00 187.53
  Q 238.81 192.08 231.84 202.10
  Q 229.77 205.08 223.10 212.82
  C 214.11 223.25 202.80 231.99 191.17 238.92
  C 186.50 241.70 181.62 243.68 175.66 246.41
  Q 173.07 247.60 169.17 248.75
  C 157.45 252.21 147.79 254.96 135.74 255.29
  C 130.46 251.97 125.74 251.31 121.35 246.88
  C 119.06 244.56 115.95 242.12 113.94 239.31
  C 107.54 230.39 97.98 222.33 90.58 213.86
  Q 84.93 207.40 79.14 201.15
  C 76.32 198.10 73.69 192.28 78.80 189.60
  Q 85.64 189.93 92.53 189.56
  Q 95.98 189.37 96.99 186.03
  Q 98.69 180.41 98.68 175.50
  Q 98.66 150.04 99.11 127.89
  C 99.27 119.62 98.69 108.16 98.72 98.32
  L 99.21 97.94
  A 0.48 0.48 0.0 0 1 99.96 98.15
  Q 101.09 101.04 102.08 103.02
  C 103.92 106.70 108.70 107.47 112.22 106.39
  A 0.61 0.60 -8.7 0 1 113.00 106.96
  L 113.09 114.22
  Z"
/>
<path fill="#399042" d="
  M 2.16 113.51
  Q 2.06 120.71 3.17 129.90
  C 3.82 135.28 6.63 136.34 11.35 134.90
  Q 28.09 129.80 45.60 130.56
  C 54.06 130.92 58.39 135.26 61.97 142.63
  A 2.33 2.26 -59.7 0 1 62.19 143.52
  L 62.40 152.48
  Q 62.23 163.87 62.45 175.25
  Q 62.55 180.94 63.86 185.35
  C 65.11 189.54 67.67 189.98 72.07 189.76
  Q 75.44 189.59 78.80 189.60
  C 73.69 192.28 76.32 198.10 79.14 201.15
  Q 84.93 207.40 90.58 213.86
  C 97.98 222.33 107.54 230.39 113.94 239.31
  C 115.95 242.12 119.06 244.56 121.35 246.88
  C 125.74 251.31 130.46 251.97 135.74 255.29
  Q 127.02 255.51 115.93 255.08
  Q 111.81 254.91 107.48 254.03
  Q 88.87 250.21 72.52 242.44
  Q 62.04 237.47 50.20 228.22
  Q 46.88 225.63 44.50 223.26
  C 42.12 220.88 39.19 219.11 37.13 216.35
  C 35.33 213.93 31.96 210.87 29.13 207.33
  Q 17.07 192.26 10.08 173.94
  Q 6.20 163.77 3.07 150.42
  C 0.24 138.34 0.76 125.68 2.16 113.51
  Z"
/>
</svg>