<?xml version="1.0" encoding="UTF-8" standalone="no"?>
<!DOCTYPE svg PUBLIC "-//W3C//DTD SVG 1.1//EN" "http://www.w3.org/Graphics/SVG/1.1/DTD/svg11.dtd">
<svg xmlns="http://www.w3.org/2000/svg" version="1.1" viewBox="0.00 0.00 256.00 256.00" width="128" height="128">
<path stroke="#8081ab" stroke-width="2.00" fill="none" stroke-linecap="butt" vector-effect="non-scaling-stroke" d="
  M 127.69 179.00
  A 0.33 0.33 0.0 0 1 127.95 179.00
  L 188.54 204.49
  A 0.33 0.33 0.0 0 0 188.97 204.06
  L 128.13 53.86
  A 0.33 0.33 0.0 0 0 127.51 53.86
  L 66.67 204.06
  A 0.33 0.33 0.0 0 0 67.10 204.49
  L 127.69 179.00"
/>
<path fill="#000257" d="
  M 256.00 0.00
  L 256.00 256.00
  L 0.00 256.00
  L 0.00 0.00
  L 256.00 0.00
  Z
  M 127.69 179.00
  A 0.33 0.33 0.0 0 1 127.95 179.00
  L 188.54 204.49
  A 0.33 0.33 0.0 0 0 188.97 204.06
  L 128.13 53.86
  A 0.33 0.33 0.0 0 0 127.51 53.86
  L 66.67 204.06
  A 0.33 0.33 0.0 0 0 67.10 204.49
  L 127.69 179.00
  Z"
/>
<path fill="#ffffff" d="
  M 127.69 179.00
  L 67.10 204.49
  A 0.33 0.33 0.0 0 1 66.67 204.06
  L 127.51 53.86
  A 0.33 0.33 0.0 0 1 128.13 53.86
  L 188.97 204.06
  A 0.33 0.33 0.0 0 1 188.54 204.49
  L 127.95 179.00
  A 0.33 0.33 0.0 0 0 127.69 179.00
  Z"
/>
</svg>