<?xml version="1.0" encoding="UTF-8" standalone="no"?>
<!DOCTYPE svg PUBLIC "-//W3C//DTD SVG 1.1//EN" "http://www.w3.org/Graphics/SVG/1.1/DTD/svg11.dtd">
<svg xmlns="http://www.w3.org/2000/svg" version="1.1" viewBox="0.00 0.00 256.00 256.00" width="128" height="128">
<g stroke-width="2.00" fill="none" stroke-linecap="butt">
<path stroke="#868788" vector-effect="non-scaling-stroke" d="
  M 117.28 92.34
  L 78.32 158.47"
/>
<path stroke="#515d60" vector-effect="non-scaling-stroke" d="
  M 78.32 158.47
  Q 61.62 156.00 54.08 168.50
  Q 50.58 174.30 50.90 180.41
  Q 51.24 187.04 54.95 192.19
  C 65.17 206.39 85.71 203.26 92.68 188.24
  C 93.43 186.64 93.82 184.55 94.40 182.75"
/>
<path stroke="#868788" vector-effect="non-scaling-stroke" d="
  M 94.40 182.75
  L 164.79 182.75"
/>
<path stroke="#317088" vector-effect="non-scaling-stroke" d="
  M 164.79 182.75
  C 167.87 199.21 186.40 207.13 199.92 196.61
  C 210.54 188.34 210.91 172.68 201.22 163.74
  Q 194.83 157.84 185.76 158.15
  Q 183.16 158.24 180.77 158.46"
/>
<path stroke="#868788" vector-effect="non-scaling-stroke" d="
  M 180.77 158.46
  L 141.80 92.32"
/>
<path stroke="#496826" vector-effect="non-scaling-stroke" d="
  M 141.80 92.32
  C 158.50 80.54 151.74 54.17 131.08 52.72
  C 108.86 51.16 99.33 79.49 117.28 92.34"
/>
<path stroke="#bddb99" vector-effect="non-scaling-stroke" d="
  M 141.80 92.32
  L 136.16 95.08"
/>
<path stroke="#496826" vector-effect="non-scaling-stroke" d="
  M 136.16 95.08
  Q 129.54 97.10 122.92 95.08"
/>
<path stroke="#bddb99" vector-effect="non-scaling-stroke" d="
  M 122.92 95.08
  L 117.28 92.34"
/>
<path stroke="#868788" vector-effect="non-scaling-stroke" d="
  M 122.92 95.08
  L 84.01 161.14"
/>
<path stroke="#c4d0d3" vector-effect="non-scaling-stroke" d="
  M 84.01 161.14
  L 78.32 158.47"
/>
<path stroke="#a5e3fb" vector-effect="non-scaling-stroke" d="
  M 180.77 158.46
  L 175.08 161.13"
/>
<path stroke="#868788" vector-effect="non-scaling-stroke" d="
  M 175.08 161.13
  L 136.16 95.08"
/>
<path stroke="#317088" vector-effect="non-scaling-stroke" d="
  M 175.08 161.13
  Q 166.55 166.52 164.80 176.49"
/>
<path stroke="#868788" vector-effect="non-scaling-stroke" d="
  M 164.80 176.49
  L 94.33 176.49"
/>
<path stroke="#515d60" vector-effect="non-scaling-stroke" d="
  M 94.33 176.49
  Q 92.48 166.48 84.01 161.14"
/>
<path stroke="#c4d0d3" vector-effect="non-scaling-stroke" d="
  M 94.33 176.49
  L 94.40 182.75"
/>
<path stroke="#a5e3fb" vector-effect="non-scaling-stroke" d="
  M 164.79 182.75
  L 164.80 176.49"
/>
<path stroke="#496826" vector-effect="non-scaling-stroke" d="
  M 144.47 74.36
  A 14.92 14.92 0.0 0 0 129.55 59.44
  A 14.92 14.92 0.0 0 0 114.63 74.36
  A 14.92 14.92 0.0 0 0 129.55 89.28
  A 14.92 14.92 0.0 0 0 144.47 74.36"
/>
<path stroke="#515d60" vector-effect="non-scaling-stroke" d="
  M 87.58 179.63
  A 14.92 14.92 0.0 0 0 72.66 164.71
  A 14.92 14.92 0.0 0 0 57.74 179.63
  A 14.92 14.92 0.0 0 0 72.66 194.55
  A 14.92 14.92 0.0 0 0 87.58 179.63"
/>
<path stroke="#317088" vector-effect="non-scaling-stroke" d="
  M 201.35 179.63
  A 14.92 14.92 0.0 0 0 186.43 164.71
  A 14.92 14.92 0.0 0 0 171.51 179.63
  A 14.92 14.92 0.0 0 0 186.43 194.55
  A 14.92 14.92 0.0 0 0 201.35 179.63"
/>
</g>
<path fill="#121315" d="
  M 256.00 0.00
  L 256.00 256.00
  L 0.00 256.00
  L 0.00 0.00
  L 256.00 0.00
  Z
  M 117.28 92.34
  L 78.32 158.47
  Q 61.62 156.00 54.08 168.50
  Q 50.58 174.30 50.90 180.41
  Q 51.24 187.04 54.95 192.19
  C 65.17 206.39 85.71 203.26 92.68 188.24
  C 93.43 186.64 93.82 184.55 94.40 182.75
  L 164.79 182.75
  C 167.87 199.21 186.40 207.13 199.92 196.61
  C 210.54 188.34 210.91 172.68 201.22 163.74
  Q 194.83 157.84 185.76 158.15
  Q 183.16 158.24 180.77 158.46
  L 141.80 92.32
  C 158.50 80.54 151.74 54.17 131.08 52.72
  C 108.86 51.16 99.33 79.49 117.28 92.34
  Z"
/>
<path fill="#80bc36" d="
  M 141.80 92.32
  L 136.16 95.08
  Q 129.54 97.10 122.92 95.08
  L 117.28 92.34
  C 99.33 79.49 108.86 51.16 131.08 52.72
  C 151.74 54.17 158.50 80.54 141.80 92.32
  Z
  M 144.47 74.36
  A 14.92 14.92 0.0 0 0 129.55 59.44
  A 14.92 14.92 0.0 0 0 114.63 74.36
  A 14.92 14.92 0.0 0 0 129.55 89.28
  A 14.92 14.92 0.0 0 0 144.47 74.36
  Z"
/>
<circle fill="#121315" cx="129.55" cy="74.36" r="14.92"/>
<path fill="#f9fafb" d="
  M 122.92 95.08
  L 84.01 161.14
  L 78.32 158.47
  L 117.28 92.34
  L 122.92 95.08
  Z"
/>
<path fill="#f9fafb" d="
  M 141.80 92.32
  L 180.77 158.46
  L 175.08 161.13
  L 136.16 95.08
  L 141.80 92.32
  Z"
/>
<path fill="#121315" d="
  M 136.16 95.08
  L 175.08 161.13
  Q 166.55 166.52 164.80 176.49
  L 94.33 176.49
  Q 92.48 166.48 84.01 161.14
  L 122.92 95.08
  Q 129.54 97.10 136.16 95.08
  Z"
/>
<path fill="#8fa6ab" d="
  M 78.32 158.47
  L 84.01 161.14
  Q 92.48 166.48 94.33 176.49
  L 94.40 182.75
  C 93.82 184.55 93.43 186.64 92.68 188.24
  C 85.71 203.26 65.17 206.39 54.95 192.19
  Q 51.24 187.04 50.90 180.41
  Q 50.58 174.30 54.08 168.50
  Q 61.62 156.00 78.32 158.47
  Z
  M 87.58 179.63
  A 14.92 14.92 0.0 0 0 72.66 164.71
  A 14.92 14.92 0.0 0 0 57.74 179.63
  A 14.92 14.92 0.0 0 0 72.66 194.55
  A 14.92 14.92 0.0 0 0 87.58 179.63
  Z"
/>
<path fill="#50ccfa" d="
  M 164.79 182.75
  L 164.80 176.49
  Q 166.55 166.52 175.08 161.13
  L 180.77 158.46
  Q 183.16 158.24 185.76 158.15
  Q 194.83 157.84 201.22 163.74
  C 210.91 172.68 210.54 188.34 199.92 196.61
  C 186.40 207.13 167.87 199.21 164.79 182.75
  Z
  M 201.35 179.63
  A 14.92 14.92 0.0 0 0 186.43 164.71
  A 14.92 14.92 0.0 0 0 171.51 179.63
  A 14.92 14.92 0.0 0 0 186.43 194.55
  A 14.92 14.92 0.0 0 0 201.35 179.63
  Z"
/>
<circle fill="#121315" cx="72.66" cy="179.63" r="14.92"/>
<circle fill="#121315" cx="186.43" cy="179.63" r="14.92"/>
<path fill="#f9fafb" d="
  M 164.80 176.49
  L 164.79 182.75
  L 94.40 182.75
  L 94.33 176.49
  L 164.80 176.49
  Z"
/>
</svg>