<?xml version="1.0" encoding="UTF-8" standalone="no"?>
<!DOCTYPE svg PUBLIC "-//W3C//DTD SVG 1.1//EN" "http://www.w3.org/Graphics/SVG/1.1/DTD/svg11.dtd">
<svg xmlns="http://www.w3.org/2000/svg" version="1.1" viewBox="0.00 0.00 163.00 163.00" width="128" height="128">
<path fill="#3395ff" d="
  M 109.19 163.00
  L 79.18 163.00
  L 108.75 53.30
  A 0.26 0.26 0.0 0 0 108.36 53.02
  L 65.13 80.79
  A 0.64 0.64 0.0 0 1 64.16 80.09
  Q 67.52 67.02 71.17 54.15
  C 71.68 52.34 75.03 50.50 76.65 49.46
  Q 110.50 27.67 151.94 0.83
  A 0.49 0.49 0.0 0 1 152.68 1.37
  L 109.19 163.00
  Z"
/>
<path fill="#072654" d="
  M 71.90 163.00
  L 12.04 163.00
  L 11.25 162.72
  A 0.82 0.82 0.0 0 1 10.73 161.74
  L 22.31 118.20
  A 4.55 4.51 81.2 0 1 24.24 115.54
  L 96.81 68.91
  A 0.18 0.18 0.0 0 1 97.09 69.11
  L 71.90 163.00
  Z"
/>
</svg>