<?xml version="1.0" encoding="UTF-8" standalone="no"?>
<!DOCTYPE svg PUBLIC "-//W3C//DTD SVG 1.1//EN" "http://www.w3.org/Graphics/SVG/1.1/DTD/svg11.dtd">
<svg xmlns="http://www.w3.org/2000/svg" version="1.1" viewBox="0.00 0.00 256.00 256.00" width="128" height="128">
<path stroke="#9ab5f8" stroke-width="2.00" fill="none" stroke-linecap="butt" vector-effect="non-scaling-stroke" d="
  M 222.01 128.00
  A 94.01 94.01 0.0 0 0 128.00 33.99
  A 94.01 94.01 0.0 0 0 33.99 128.00
  A 94.01 94.01 0.0 0 0 128.00 222.01
  A 94.01 94.01 0.0 0 0 222.01 128.00"
/>
<path fill="#ffffff" d="
  M 226.50 0.00
  C 242.43 1.67 254.33 13.49 256.00 29.43
  L 256.00 226.50
  C 254.35 242.43 242.52 254.35 226.58 256.00
  L 29.50 256.00
  C 13.56 254.35 1.67 242.51 0.00 226.57
  L 0.00 29.50
  C 1.60 13.53 13.49 1.79 29.42 0.00
  L 226.50 0.00
  Z
  M 222.01 128.00
  A 94.01 94.01 0.0 0 0 128.00 33.99
  A 94.01 94.01 0.0 0 0 33.99 128.00
  A 94.01 94.01 0.0 0 0 128.00 222.01
  A 94.01 94.01 0.0 0 0 222.01 128.00
  Z"
/>
<circle fill="#356af0" cx="128.00" cy="128.00" r="94.01"/>
</svg>