<?xml version="1.0" encoding="UTF-8" standalone="no"?>
<!DOCTYPE svg PUBLIC "-//W3C//DTD SVG 1.1//EN" "http://www.w3.org/Graphics/SVG/1.1/DTD/svg11.dtd">
<svg xmlns="http://www.w3.org/2000/svg" version="1.1" viewBox="0.00 0.00 256.00 256.00" width="128" height="128">
<g stroke-width="2.00" fill="none" stroke-linecap="butt">
<path stroke="#2a0757" vector-effect="non-scaling-stroke" d="
  M 105.30 2.35
  C 68.46 28.00 36.88 53.89 1.02 84.29"
/>
<path stroke="#48118b" vector-effect="non-scaling-stroke" d="
  M 254.02 28.00
  Q 240.38 29.35 229.84 31.99
  C 204.03 38.47 181.10 55.15 159.93 70.81"
/>
<path stroke="#a085be" vector-effect="non-scaling-stroke" d="
  M 159.93 70.81
  L 127.23 70.87
  A 0.60 0.60 0.0 0 1 126.63 70.27
  L 126.63 39.01"
/>
<path stroke="#380a6f" vector-effect="non-scaling-stroke" d="
  M 126.63 39.01
  Q 128.52 41.13 131.52 38.59
  Q 134.90 35.74 137.14 33.49
  C 143.62 27.00 150.58 20.74 155.63 16.42
  C 159.82 12.83 164.22 10.15 168.01 6.96
  Q 170.03 5.27 170.58 3.17
  A 0.74 0.74 0.0 0 1 171.11 2.64
  L 172.22 2.35"
/>
<path stroke="#9784b0" vector-effect="non-scaling-stroke" d="
  M 126.63 39.01
  L 126.65 35.85
  A 0.43 0.43 0.0 0 0 126.14 35.43
  Q 123.51 35.96 122.09 36.56
  Q 103.59 44.39 85.03 52.01
  Q 82.97 52.85 81.59 53.74
  A 2.81 2.80 -16.4 0 0 80.30 56.10
  L 80.30 70.14
  A 0.74 0.74 0.0 0 1 79.56 70.88
  L 57.34 70.88
  A 1.19 1.19 0.0 0 0 56.17 72.26
  C 57.50 80.09 58.45 86.09 63.56 92.93"
/>
<path stroke="#380a6f" vector-effect="non-scaling-stroke" d="
  M 63.56 92.93
  Q 52.41 103.14 43.83 112.75
  Q 21.65 137.58 1.04 166.38"
/>
<path stroke="#5418a2" vector-effect="non-scaling-stroke" d="
  M 253.99 68.98
  Q 245.56 68.41 238.98 68.80
  C 219.72 69.96 203.09 80.98 186.65 90.04"
/>
<path stroke="#a78bcc" vector-effect="non-scaling-stroke" d="
  M 186.65 90.04
  L 189.79 71.33
  A 0.42 0.41 5.2 0 0 189.38 70.85
  L 159.93 70.81"
/>
<path stroke="#ac8cd5" vector-effect="non-scaling-stroke" d="
  M 186.65 90.04
  L 183.51 107.54
  A 0.80 0.80 0.0 0 1 182.72 108.20
  L 127.54 108.20
  A 0.96 0.95 -89.7 0 0 126.59 109.15
  Q 126.53 137.14 126.64 168.75
  C 126.66 175.54 129.86 183.19 137.73 183.72
  C 148.59 184.45 151.66 175.97 151.67 167.00
  Q 151.71 140.88 151.64 129.85
  A 0.69 0.69 0.0 0 1 152.33 129.16
  L 197.02 129.16
  A 0.93 0.93 0.0 0 1 197.95 130.08
  L 197.99 147.35"
/>
<path stroke="#b490e3" vector-effect="non-scaling-stroke" d="
  M 197.99 147.35
  Q 197.96 163.82 197.82 169.25
  C 197.45 183.40 191.63 199.08 180.72 208.72"
/>
<path stroke="#ac8cd5" vector-effect="non-scaling-stroke" d="
  M 180.72 208.72
  Q 168.29 219.23 154.64 221.89
  C 137.37 225.25 118.38 223.95 102.75 214.98
  C 95.84 211.00 89.51 203.59 85.74 195.46"
/>
<path stroke="#a085be" vector-effect="non-scaling-stroke" d="
  M 85.74 195.46
  Q 80.39 181.92 80.37 167.22
  Q 80.30 117.17 80.39 109.25
  Q 80.41 107.60 79.83 106.10
  A 1.25 1.22 -88.4 0 0 79.20 105.42
  Q 69.90 100.96 63.56 92.93"
/>
<path stroke="#611db9" vector-effect="non-scaling-stroke" d="
  M 254.00 116.75
  Q 241.40 118.67 233.94 122.07
  Q 223.39 126.88 218.13 131.31
  Q 208.40 139.51 197.99 147.35"
/>
<path stroke="#4d1294" vector-effect="non-scaling-stroke" d="
  M 85.74 195.46
  C 83.38 219.77 81.82 234.62 82.55 254.98
  A 0.52 0.51 0.0 0 0 83.06 255.48
  L 96.05 255.74"
/>
<path stroke="#611db9" vector-effect="non-scaling-stroke" d="
  M 253.99 253.94
  L 230.02 253.91
  A 0.20 0.18 -88.6 0 0 229.83 254.11
  A 0.25 0.24 88.2 0 0 230.04 254.32
  L 232.59 254.62
  A 0.21 0.21 0.0 0 1 232.64 255.03
  L 230.77 255.77"
/>
<path stroke="#611db9" vector-effect="non-scaling-stroke" d="
  M 196.97 255.72
  L 181.59 255.15
  A 1.24 1.23 70.0 0 1 180.72 254.74
  Q 178.04 251.75 178.44 247.31
  C 179.74 233.04 180.85 221.74 180.72 208.72"
/>
</g>
<path fill="#24054e" d="
  M 105.30 2.35
  C 68.46 28.00 36.88 53.89 1.02 84.29
  L 1.03 3.63
  A 1.47 1.47 0.0 0 1 2.51 2.16
  L 105.30 2.35
  Z"
/>
<path fill="#400b7d" d="
  M 254.02 28.00
  Q 240.38 29.35 229.84 31.99
  C 204.03 38.47 181.10 55.15 159.93 70.81
  L 127.23 70.87
  A 0.60 0.60 0.0 0 1 126.63 70.27
  L 126.63 39.01
  Q 128.52 41.13 131.52 38.59
  Q 134.90 35.74 137.14 33.49
  C 143.62 27.00 150.58 20.74 155.63 16.42
  C 159.82 12.83 164.22 10.15 168.01 6.96
  Q 170.03 5.27 170.58 3.17
  A 0.74 0.74 0.0 0 1 171.11 2.64
  L 172.22 2.35
  L 252.71 2.14
  A 1.23 1.23 0.0 0 1 253.94 3.37
  L 254.02 28.00
  Z"
/>
<path fill="#2f0860" d="
  M 172.22 2.35
  L 171.11 2.64
  A 0.74 0.74 0.0 0 0 170.58 3.17
  Q 170.03 5.27 168.01 6.96
  C 164.22 10.15 159.82 12.83 155.63 16.42
  C 150.58 20.74 143.62 27.00 137.14 33.49
  Q 134.90 35.74 131.52 38.59
  Q 128.52 41.13 126.63 39.01
  L 126.65 35.85
  A 0.43 0.43 0.0 0 0 126.14 35.43
  Q 123.51 35.96 122.09 36.56
  Q 103.59 44.39 85.03 52.01
  Q 82.97 52.85 81.59 53.74
  A 2.81 2.80 -16.4 0 0 80.30 56.10
  L 80.30 70.14
  A 0.74 0.74 0.0 0 1 79.56 70.88
  L 57.34 70.88
  A 1.19 1.19 0.0 0 0 56.17 72.26
  C 57.50 80.09 58.45 86.09 63.56 92.93
  Q 52.41 103.14 43.83 112.75
  Q 21.65 137.58 1.04 166.38
  L 1.02 84.29
  C 36.88 53.89 68.46 28.00 105.30 2.35
  L 172.22 2.35
  Z"
/>
<path fill="#4f1699" d="
  M 254.02 28.00
  L 253.99 68.98
  Q 245.56 68.41 238.98 68.80
  C 219.72 69.96 203.09 80.98 186.65 90.04
  L 189.79 71.33
  A 0.42 0.41 5.2 0 0 189.38 70.85
  L 159.93 70.81
  C 181.10 55.15 204.03 38.47 229.84 31.99
  Q 240.38 29.35 254.02 28.00
  Z"
/>
<path fill="#ffffff" d="
  M 126.63 39.01
  L 126.63 70.27
  A 0.60 0.60 0.0 0 0 127.23 70.87
  L 159.93 70.81
  L 189.38 70.85
  A 0.42 0.41 5.2 0 1 189.79 71.33
  L 186.65 90.04
  L 183.51 107.54
  A 0.80 0.80 0.0 0 1 182.72 108.20
  L 127.54 108.20
  A 0.96 0.95 -89.7 0 0 126.59 109.15
  Q 126.53 137.14 126.64 168.75
  C 126.66 175.54 129.86 183.19 137.73 183.72
  C 148.59 184.45 151.66 175.97 151.67 167.00
  Q 151.71 140.88 151.64 129.85
  A 0.69 0.69 0.0 0 1 152.33 129.16
  L 197.02 129.16
  A 0.93 0.93 0.0 0 1 197.95 130.08
  L 197.99 147.35
  Q 197.96 163.82 197.82 169.25
  C 197.45 183.40 191.63 199.08 180.72 208.72
  Q 168.29 219.23 154.64 221.89
  C 137.37 225.25 118.38 223.95 102.75 214.98
  C 95.84 211.00 89.51 203.59 85.74 195.46
  Q 80.39 181.92 80.37 167.22
  Q 80.30 117.17 80.39 109.25
  Q 80.41 107.60 79.83 106.10
  A 1.25 1.22 -88.4 0 0 79.20 105.42
  Q 69.90 100.96 63.56 92.93
  C 58.45 86.09 57.50 80.09 56.17 72.26
  A 1.19 1.19 0.0 0 1 57.34 70.88
  L 79.56 70.88
  A 0.74 0.74 0.0 0 0 80.30 70.14
  L 80.30 56.10
  A 2.81 2.80 -16.4 0 1 81.59 53.74
  Q 82.97 52.85 85.03 52.01
  Q 103.59 44.39 122.09 36.56
  Q 123.51 35.96 126.14 35.43
  A 0.43 0.43 0.0 0 1 126.65 35.85
  L 126.63 39.01
  Z"
/>
<path fill="#5919ab" d="
  M 253.99 68.98
  L 254.00 116.75
  Q 241.40 118.67 233.94 122.07
  Q 223.39 126.88 218.13 131.31
  Q 208.40 139.51 197.99 147.35
  L 197.95 130.08
  A 0.93 0.93 0.0 0 0 197.02 129.16
  L 152.33 129.16
  A 0.69 0.69 0.0 0 0 151.64 129.85
  Q 151.71 140.88 151.67 167.00
  C 151.66 175.97 148.59 184.45 137.73 183.72
  C 129.86 183.19 126.66 175.54 126.64 168.75
  Q 126.53 137.14 126.59 109.15
  A 0.96 0.95 -89.7 0 1 127.54 108.20
  L 182.72 108.20
  A 0.80 0.80 0.0 0 0 183.51 107.54
  L 186.65 90.04
  C 203.09 80.98 219.72 69.96 238.98 68.80
  Q 245.56 68.41 253.99 68.98
  Z"
/>
<path fill="#400b7d" d="
  M 85.74 195.46
  C 83.38 219.77 81.82 234.62 82.55 254.98
  A 0.52 0.51 0.0 0 0 83.06 255.48
  L 96.05 255.74
  L 12.29 256.00
  L 1.07 256.00
  L 1.04 166.38
  Q 21.65 137.58 43.83 112.75
  Q 52.41 103.14 63.56 92.93
  Q 69.90 100.96 79.20 105.42
  A 1.25 1.22 -88.4 0 1 79.83 106.10
  Q 80.41 107.60 80.39 109.25
  Q 80.30 117.17 80.37 167.22
  Q 80.39 181.92 85.74 195.46
  Z"
/>
<path fill="#6820c6" d="
  M 254.00 116.75
  L 253.99 253.94
  L 230.02 253.91
  A 0.20 0.18 -88.6 0 0 229.83 254.11
  A 0.25 0.24 88.2 0 0 230.04 254.32
  L 232.59 254.62
  A 0.21 0.21 0.0 0 1 232.64 255.03
  L 230.77 255.77
  L 196.97 255.72
  L 181.59 255.15
  A 1.24 1.23 70.0 0 1 180.72 254.74
  Q 178.04 251.75 178.44 247.31
  C 179.74 233.04 180.85 221.74 180.72 208.72
  C 191.63 199.08 197.45 183.40 197.82 169.25
  Q 197.96 163.82 197.99 147.35
  Q 208.40 139.51 218.13 131.31
  Q 223.39 126.88 233.94 122.07
  Q 241.40 118.67 254.00 116.75
  Z"
/>
<path fill="#5919ab" d="
  M 85.74 195.46
  C 89.51 203.59 95.84 211.00 102.75 214.98
  C 118.38 223.95 137.37 225.25 154.64 221.89
  Q 168.29 219.23 180.72 208.72
  C 180.85 221.74 179.74 233.04 178.44 247.31
  Q 178.04 251.75 180.72 254.74
  A 1.24 1.23 70.0 0 0 181.59 255.15
  L 196.97 255.72
  L 96.05 255.74
  L 83.06 255.48
  A 0.52 0.51 0.0 0 1 82.55 254.98
  C 81.82 234.62 83.38 219.77 85.74 195.46
  Z"
/>
<path fill="#5919ab" d="
  M 253.99 253.94
  L 253.88 256.00
  Q 253.69 255.99 253.49 256.00
  L 230.77 255.77
  L 232.64 255.03
  A 0.21 0.21 0.0 0 0 232.59 254.62
  L 230.04 254.32
  A 0.25 0.24 88.2 0 1 229.83 254.11
  A 0.20 0.18 -88.6 0 1 230.02 253.91
  L 253.99 253.94
  Z"
/>
</svg>