<?xml version="1.0" encoding="UTF-8" standalone="no"?>
<!DOCTYPE svg PUBLIC "-//W3C//DTD SVG 1.1//EN" "http://www.w3.org/Graphics/SVG/1.1/DTD/svg11.dtd">
<svg xmlns="http://www.w3.org/2000/svg" version="1.1" viewBox="0.00 0.00 192.00 192.00" width="128" height="128">
<path stroke="#b7d1c3" stroke-width="2.00" fill="none" stroke-linecap="butt" vector-effect="non-scaling-stroke" d="
  M 145.19 148.40
  A 0.76 0.76 0.0 0 0 145.95 147.64
  L 145.95 44.23
  A 0.76 0.76 0.0 0 0 145.19 43.47
  L 46.37 43.47
  A 0.76 0.76 0.0 0 0 45.61 44.23
  L 45.61 62.80
  A 0.76 0.76 0.0 0 0 46.37 63.56
  L 126.55 63.56
  A 0.76 0.76 0.0 0 1 127.31 64.32
  L 127.31 147.64
  A 0.76 0.76 0.0 0 0 128.07 148.40
  L 145.19 148.40"
/>
<path fill="#6ea287" d="
  M 97.23 0.00
  Q 132.49 0.99 157.75 22.75
  C 203.12 61.85 202.96 131.84 156.32 170.09
  C 109.98 208.09 41.33 194.23 12.01 142.48
  Q 1.46 123.86 0.00 101.10
  L 0.00 90.62
  Q 3.22 47.86 35.29 21.54
  Q 60.25 1.06 93.90 0.00
  L 97.23 0.00
  Z
  M 145.19 148.40
  A 0.76 0.76 0.0 0 0 145.95 147.64
  L 145.95 44.23
  A 0.76 0.76 0.0 0 0 145.19 43.47
  L 46.37 43.47
  A 0.76 0.76 0.0 0 0 45.61 44.23
  L 45.61 62.80
  A 0.76 0.76 0.0 0 0 46.37 63.56
  L 126.55 63.56
  A 0.76 0.76 0.0 0 1 127.31 64.32
  L 127.31 147.64
  A 0.76 0.76 0.0 0 0 128.07 148.40
  L 145.19 148.40
  Z"
/>
<path fill="#ffffff" d="
  M 145.19 148.40
  L 128.07 148.40
  A 0.76 0.76 0.0 0 1 127.31 147.64
  L 127.31 64.32
  A 0.76 0.76 0.0 0 0 126.55 63.56
  L 46.37 63.56
  A 0.76 0.76 0.0 0 1 45.61 62.80
  L 45.61 44.23
  A 0.76 0.76 0.0 0 1 46.37 43.47
  L 145.19 43.47
  A 0.76 0.76 0.0 0 1 145.95 44.23
  L 145.95 147.64
  A 0.76 0.76 0.0 0 1 145.19 148.40
  Z"
/>
</svg>