<?xml version="1.0" encoding="UTF-8" standalone="no"?>
<!DOCTYPE svg PUBLIC "-//W3C//DTD SVG 1.1//EN" "http://www.w3.org/Graphics/SVG/1.1/DTD/svg11.dtd">
<svg xmlns="http://www.w3.org/2000/svg" version="1.1" viewBox="0.00 0.00 256.00 256.00" width="128" height="128">
<g stroke-width="2.00" fill="none" stroke-linecap="butt">
<path stroke="#883212" vector-effect="non-scaling-stroke" d="
  M 153.96 51.08
  Q 139.28 52.88 130.43 64.17
  Q 123.10 73.52 123.22 85.48"
/>
<path stroke="#ffa280" vector-effect="non-scaling-stroke" d="
  M 123.22 85.48
  Q 96.69 86.37 74.17 99.67
  A 0.88 0.86 -41.9 0 1 73.23 99.63
  C 64.22 93.31 53.48 91.95 43.22 96.47
  Q 29.64 102.44 25.91 118.36"
/>
<path stroke="#f89d7c" vector-effect="non-scaling-stroke" d="
  M 25.91 118.36
  Q 24.09 130.22 30.19 139.69"
/>
<path stroke="#e58e6f" vector-effect="non-scaling-stroke" d="
  M 30.19 139.69
  Q 34.86 147.06 42.46 150.57"
/>
<path stroke="#f89d7c" vector-effect="non-scaling-stroke" d="
  M 42.46 150.57
  Q 43.07 151.81 43.00 153.68"
/>
<path stroke="#f09877" vector-effect="non-scaling-stroke" d="
  M 43.00 153.68
  Q 43.91 162.93 47.78 170.89"
/>
<path stroke="#ee9172" vector-effect="non-scaling-stroke" d="
  M 47.78 170.89
  L 51.39 177.31"
/>
<path stroke="#e58e6f" vector-effect="non-scaling-stroke" d="
  M 51.39 177.31
  Q 60.58 191.03 75.00 199.32"
/>
<path stroke="#ee9172" vector-effect="non-scaling-stroke" d="
  M 75.00 199.32
  Q 82.88 204.15 91.57 207.06"
/>
<path stroke="#f09877" vector-effect="non-scaling-stroke" d="
  M 91.57 207.06
  C 114.51 215.38 140.33 215.28 163.37 207.52"
/>
<path stroke="#ee9172" vector-effect="non-scaling-stroke" d="
  M 163.37 207.52
  Q 170.34 205.37 176.82 201.71"
/>
<path stroke="#e58e6f" vector-effect="non-scaling-stroke" d="
  M 176.82 201.71
  Q 193.37 193.53 204.10 178.37"
/>
<path stroke="#ee9172" vector-effect="non-scaling-stroke" d="
  M 204.10 178.37
  L 208.92 169.66"
/>
<path stroke="#f09877" vector-effect="non-scaling-stroke" d="
  M 208.92 169.66
  Q 212.23 162.69 213.06 154.72"
/>
<path stroke="#f89d7c" vector-effect="non-scaling-stroke" d="
  M 213.06 154.72
  L 213.50 150.93"
/>
<path stroke="#e58e6f" vector-effect="non-scaling-stroke" d="
  M 213.50 150.93
  C 218.63 147.80 222.78 144.64 226.01 139.42"
/>
<path stroke="#f89d7c" vector-effect="non-scaling-stroke" d="
  M 226.01 139.42
  Q 231.45 130.67 230.29 119.83"
/>
<path stroke="#ffa280" vector-effect="non-scaling-stroke" d="
  M 230.29 119.83
  C 226.66 96.94 201.89 86.43 182.80 99.61
  A 0.72 0.71 -46.7 0 1 182.03 99.64
  Q 159.07 86.20 132.33 85.43"
/>
<path stroke="#883212" vector-effect="non-scaling-stroke" d="
  M 132.33 85.43
  C 132.39 72.52 141.69 62.11 154.39 60.25"
/>
<path stroke="#f09877" vector-effect="non-scaling-stroke" d="
  M 154.39 60.25
  Q 154.13 61.28 154.75 62.41"
/>
<path stroke="#e58e6f" vector-effect="non-scaling-stroke" d="
  M 154.75 62.41
  Q 157.11 68.75 161.76 72.07"
/>
<path stroke="#f09877" vector-effect="non-scaling-stroke" d="
  M 161.76 72.07
  Q 173.80 81.08 186.60 72.95"
/>
<path stroke="#e58e6f" vector-effect="non-scaling-stroke" d="
  M 186.60 72.95
  Q 192.29 69.61 194.80 62.30"
/>
<path stroke="#f09877" vector-effect="non-scaling-stroke" d="
  M 194.80 62.30
  L 195.82 57.87"
/>
<path stroke="#ffa280" vector-effect="non-scaling-stroke" d="
  M 195.82 57.87
  Q 196.91 47.06 189.67 40.31
  C 177.10 28.60 158.14 34.86 153.96 51.08"
/>
<path stroke="#eff5f6" vector-effect="non-scaling-stroke" d="
  M 195.82 57.87
  C 183.82 63.44 172.41 65.58 160.00 59.40"
/>
<path stroke="#818383" vector-effect="non-scaling-stroke" d="
  M 160.00 59.40
  Q 162.31 57.77 162.19 55.00"
/>
<path stroke="#878f92" vector-effect="non-scaling-stroke" d="
  M 162.19 55.00
  Q 161.09 49.78 153.96 51.08"
/>
<path stroke="#0a1316" vector-effect="non-scaling-stroke" d="
  M 162.19 55.00
  C 157.17 55.14 151.65 54.92 147.14 56.36
  Q 141.54 58.15 136.81 61.85
  Q 124.54 71.46 125.60 87.58"
/>
<path stroke="#878f92" vector-effect="non-scaling-stroke" d="
  M 125.60 87.58
  Q 123.49 87.00 123.22 85.48"
/>
<path stroke="#d6e0e6" vector-effect="non-scaling-stroke" d="
  M 194.80 62.30
  Q 181.53 70.01 167.14 66.89
  Q 163.81 66.17 154.75 62.41"
/>
<path stroke="#788589" vector-effect="non-scaling-stroke" d="
  M 154.39 60.25
  Q 155.79 60.24 156.48 59.77"
/>
<path stroke="#72787a" vector-effect="non-scaling-stroke" d="
  M 160.00 59.40
  Q 157.99 60.45 156.48 59.77"
/>
<path stroke="#0a1316" vector-effect="non-scaling-stroke" d="
  M 156.48 59.77
  Q 147.23 57.11 138.99 63.48
  C 130.71 69.88 128.59 77.84 128.46 87.94"
/>
<path stroke="#818383" vector-effect="non-scaling-stroke" d="
  M 128.46 87.94
  Q 126.82 88.16 125.60 87.58"
/>
<path stroke="#f7fafb" vector-effect="non-scaling-stroke" d="
  M 230.29 119.83
  Q 218.06 131.71 204.99 142.12
  Q 186.86 156.58 164.37 162.27
  Q 157.40 164.03 150.06 165.72"
/>
<path stroke="#e5ebef" vector-effect="non-scaling-stroke" d="
  M 150.06 165.72
  Q 149.84 165.77 149.28 165.68"
/>
<path stroke="#f7fafb" vector-effect="non-scaling-stroke" d="
  M 149.28 165.68
  Q 145.89 164.99 143.73 164.96
  Q 134.66 164.82 113.62 164.92
  Q 108.85 164.95 104.17 163.97
  Q 95.09 162.08 86.22 158.23"
/>
<path stroke="#ffa280" vector-effect="non-scaling-stroke" d="
  M 86.22 158.23
  Q 103.46 157.62 102.74 142.25"
/>
<path stroke="#ea988e" vector-effect="non-scaling-stroke" d="
  M 102.74 142.25
  Q 103.05 135.90 99.88 130.72"
/>
<path stroke="#c28f91" vector-effect="non-scaling-stroke" d="
  M 99.88 130.72
  C 91.70 117.57 76.47 123.89 73.18 136.64
  Q 70.86 145.57 75.22 152.74"
/>
<path stroke="#f7fafb" vector-effect="non-scaling-stroke" d="
  M 75.22 152.74
  C 57.60 141.50 41.28 131.03 25.91 118.36"
/>
<path stroke="#d6e0e6" vector-effect="non-scaling-stroke" d="
  M 186.60 72.95
  Q 173.99 74.78 161.76 72.07"
/>
<path stroke="#878f92" vector-effect="non-scaling-stroke" d="
  M 132.33 85.43
  Q 131.93 87.71 128.46 87.94"
/>
<path stroke="#ff854e" vector-effect="non-scaling-stroke" d="
  M 94.97 131.19
  C 90.29 131.21 89.81 137.52 93.76 138.40
  Q 96.28 138.95 97.68 135.84"
/>
<path stroke="#bb8a8d" vector-effect="non-scaling-stroke" d="
  M 75.22 152.74
  Q 77.37 155.29 80.40 156.65"
/>
<path stroke="#f89d7c" vector-effect="non-scaling-stroke" d="
  M 80.40 156.65
  L 86.22 158.23"
/>
<path stroke="#dee6eb" vector-effect="non-scaling-stroke" d="
  M 149.28 165.68
  Q 129.70 165.10 110.17 165.59
  C 106.38 165.68 102.10 166.35 98.05 166.56
  A 1.78 1.70 -59.5 0 0 97.31 166.77
  Q 96.05 167.49 96.80 168.83"
/>
<path stroke="#7a7e7f" vector-effect="non-scaling-stroke" d="
  M 96.80 168.83
  Q 96.12 169.33 96.38 170.00
  Q 101.23 182.90 114.40 188.92"
/>
<path stroke="#808a8e" vector-effect="non-scaling-stroke" d="
  M 114.40 188.92
  Q 128.26 194.72 142.09 188.80"
/>
<path stroke="#7a7e7f" vector-effect="non-scaling-stroke" d="
  M 142.09 188.80
  Q 155.37 182.58 160.05 169.22"
/>
<path stroke="#dee6eb" vector-effect="non-scaling-stroke" d="
  M 160.05 169.22
  Q 160.13 166.82 158.85 166.74
  Q 154.58 166.47 150.06 165.72"
/>
<path stroke="#dee6eb" vector-effect="non-scaling-stroke" d="
  M 226.01 139.42
  L 214.41 144.68
  A 1.14 1.12 87.7 0 0 213.79 145.36
  Q 212.86 148.16 213.50 150.93"
/>
<path stroke="#e8f0f2" vector-effect="non-scaling-stroke" d="
  M 213.06 154.72
  Q 191.64 166.99 168.18 174.18
  Q 163.25 175.69 158.29 177.17
  A 1.49 1.48 10.0 0 0 157.50 177.72
  Q 153.17 183.67 147.28 187.92"
/>
<path stroke="#e7e9ed" vector-effect="non-scaling-stroke" d="
  M 147.28 187.92
  Q 130.10 198.50 111.98 189.69"
/>
<path stroke="#e8f0f2" vector-effect="non-scaling-stroke" d="
  M 111.98 189.69
  Q 105.12 185.74 100.06 179.50
  A 1.58 1.57 -11.0 0 0 99.27 178.97
  C 78.38 172.86 60.70 166.17 43.00 153.68"
/>
<path stroke="#dee6eb" vector-effect="non-scaling-stroke" d="
  M 42.46 150.57
  Q 43.12 147.45 42.49 144.76
  A 0.91 0.91 0.0 0 0 41.92 144.11
  L 30.19 139.69"
/>
<path stroke="#eb3b0f" vector-effect="non-scaling-stroke" d="
  M 102.74 142.25
  L 97.68 135.84"
/>
<path stroke="#eb7b5d" vector-effect="non-scaling-stroke" d="
  M 97.68 135.84
  Q 98.12 132.15 94.97 131.19"
/>
<path stroke="#eb3b0f" vector-effect="non-scaling-stroke" d="
  M 94.97 131.19
  C 88.83 130.31 83.29 131.17 80.03 137.02
  Q 77.05 142.34 75.93 150.65"
/>
<path stroke="#ae2820" vector-effect="non-scaling-stroke" d="
  M 99.88 130.72
  Q 97.82 129.55 96.25 127.77
  A 2.52 2.37 -4.5 0 0 95.59 127.24
  Q 87.35 122.81 80.84 128.60
  Q 71.00 137.35 75.93 150.65"
/>
<path stroke="#c23211" vector-effect="non-scaling-stroke" d="
  M 75.93 150.65
  Q 76.70 152.47 77.36 153.14
  Q 78.88 154.69 80.40 156.65"
/>
<path stroke="#676e73" vector-effect="non-scaling-stroke" d="
  M 160.05 169.22
  Q 158.85 167.73 157.51 167.61
  Q 127.74 164.97 99.03 167.54
  Q 97.63 167.67 96.80 168.83"
/>
<path stroke="#dfe4e8" vector-effect="non-scaling-stroke" d="
  M 111.98 189.69
  C 88.85 186.84 68.91 180.89 47.78 170.89"
/>
<path stroke="#d4dae1" vector-effect="non-scaling-stroke" d="
  M 204.10 178.37
  Q 183.47 186.99 163.25 190.78
  Q 113.83 200.04 66.24 182.69
  Q 58.92 180.03 51.39 177.31"
/>
<path stroke="#dfe4e8" vector-effect="non-scaling-stroke" d="
  M 208.92 169.66
  Q 179.60 183.84 147.28 187.92"
/>
<path stroke="#0a1316" vector-effect="non-scaling-stroke" d="
  M 142.09 188.80
  Q 128.35 184.62 114.40 188.92"
/>
<path stroke="#d4dae1" vector-effect="non-scaling-stroke" d="
  M 176.82 201.71
  Q 156.96 204.35 144.95 205.23
  C 121.71 206.93 98.27 203.84 75.00 199.32"
/>
<path stroke="#dfe4e8" vector-effect="non-scaling-stroke" d="
  M 163.37 207.52
  Q 139.83 210.02 119.97 209.13
  Q 112.99 208.82 91.57 207.06"
/>
<path stroke="#ea988e" vector-effect="non-scaling-stroke" d="
  M 155.82 131.67
  Q 152.62 136.29 153.32 143.61"
/>
<path stroke="#ffa280" vector-effect="non-scaling-stroke" d="
  M 153.32 143.61
  Q 153.22 153.12 160.77 156.49
  Q 167.52 159.49 175.00 156.85"
/>
<path stroke="#c28f91" vector-effect="non-scaling-stroke" d="
  M 175.00 156.85
  C 191.37 150.65 182.80 119.85 164.83 123.81
  Q 158.55 125.19 155.82 131.67"
/>
<path stroke="#c23211" vector-effect="non-scaling-stroke" d="
  M 175.00 156.85
  L 178.61 153.44"
/>
<path stroke="#ae2820" vector-effect="non-scaling-stroke" d="
  M 178.61 153.44
  Q 182.44 147.97 181.75 141.47
  Q 181.48 138.96 181.03 136.08
  A 0.26 0.25 10.2 0 0 180.90 135.90
  Q 180.85 135.88 180.77 135.81
  A 1.61 1.58 9.8 0 1 180.36 135.24
  Q 177.27 128.16 170.95 126.04
  Q 162.48 123.20 155.82 131.67"
/>
<path stroke="#eb3b0f" vector-effect="non-scaling-stroke" d="
  M 178.61 153.44
  Q 178.36 145.03 175.42 137.70"
/>
<path stroke="#eb7b5d" vector-effect="non-scaling-stroke" d="
  M 175.42 137.70
  Q 177.79 134.79 175.54 132.15
  A 2.15 2.15 0.0 0 0 174.74 131.56
  Q 171.78 130.32 170.30 133.27"
/>
<path stroke="#eb3b0f" vector-effect="non-scaling-stroke" d="
  M 170.30 133.27
  Q 157.57 130.09 153.32 143.61"
/>
<path stroke="#ff854e" vector-effect="non-scaling-stroke" d="
  M 175.42 137.70
  C 171.98 139.63 168.96 136.54 170.30 133.27"
/>
<path stroke="#ff5301" vector-effect="non-scaling-stroke" d="
  M 97.27 148.98
  C 94.48 139.95 83.60 140.35 78.92 147.39
  A 1.15 1.10 -33.9 0 0 78.75 148.16
  L 79.23 151.36
  A 1.14 1.12 13.9 0 0 79.69 152.11
  C 84.45 155.47 90.81 156.29 95.61 152.45
  Q 97.80 150.70 97.27 148.98"
/>
<path stroke="#ff5301" vector-effect="non-scaling-stroke" d="
  M 158.93 150.18
  C 162.61 156.57 170.86 155.67 176.19 152.25
  A 1.83 1.82 -17.5 0 0 177.02 150.67
  C 176.82 145.02 173.15 142.36 167.77 142.34
  Q 161.84 142.32 158.87 148.14
  A 2.13 2.11 43.6 0 0 158.93 150.18"
/>
</g>
<path fill="#ff4500" d="
  M 132.64 0.00
  C 199.39 2.91 251.95 54.73 256.00 121.68
  L 256.00 134.15
  Q 253.29 178.55 225.61 210.86
  Q 189.80 252.66 133.12 256.00
  L 17.13 256.00
  Q 11.81 254.46 11.07 249.24
  Q 10.54 245.52 12.54 243.50
  Q 24.85 231.11 37.21 218.81
  A 0.37 0.36 45.6 0 0 37.21 218.30
  Q 2.54 182.76 0.00 132.76
  L 0.00 123.08
  C 3.05 56.24 55.11 3.98 121.75 0.00
  L 132.64 0.00
  Z
  M 153.96 51.08
  Q 139.28 52.88 130.43 64.17
  Q 123.10 73.52 123.22 85.48
  Q 96.69 86.37 74.17 99.67
  A 0.88 0.86 -41.9 0 1 73.23 99.63
  C 64.22 93.31 53.48 91.95 43.22 96.47
  Q 29.64 102.44 25.91 118.36
  Q 24.09 130.22 30.19 139.69
  Q 34.86 147.06 42.46 150.57
  Q 43.07 151.81 43.00 153.68
  Q 43.91 162.93 47.78 170.89
  L 51.39 177.31
  Q 60.58 191.03 75.00 199.32
  Q 82.88 204.15 91.57 207.06
  C 114.51 215.38 140.33 215.28 163.37 207.52
  Q 170.34 205.37 176.82 201.71
  Q 193.37 193.53 204.10 178.37
  L 208.92 169.66
  Q 212.23 162.69 213.06 154.72
  L 213.50 150.93
  C 218.63 147.80 222.78 144.64 226.01 139.42
  Q 231.45 130.67 230.29 119.83
  C 226.66 96.94 201.89 86.43 182.80 99.61
  A 0.72 0.71 -46.7 0 1 182.03 99.64
  Q 159.07 86.20 132.33 85.43
  C 132.39 72.52 141.69 62.11 154.39 60.25
  Q 154.13 61.28 154.75 62.41
  Q 157.11 68.75 161.76 72.07
  Q 173.80 81.08 186.60 72.95
  Q 192.29 69.61 194.80 62.30
  L 195.82 57.87
  Q 196.91 47.06 189.67 40.31
  C 177.10 28.60 158.14 34.86 153.96 51.08
  Z"
/>
<path fill="#feffff" d="
  M 195.82 57.87
  C 183.82 63.44 172.41 65.58 160.00 59.40
  Q 162.31 57.77 162.19 55.00
  Q 161.09 49.78 153.96 51.08
  C 158.14 34.86 177.10 28.60 189.67 40.31
  Q 196.91 47.06 195.82 57.87
  Z"
/>
<path fill="#101f24" d="
  M 162.19 55.00
  C 157.17 55.14 151.65 54.92 147.14 56.36
  Q 141.54 58.15 136.81 61.85
  Q 124.54 71.46 125.60 87.58
  Q 123.49 87.00 123.22 85.48
  Q 123.10 73.52 130.43 64.17
  Q 139.28 52.88 153.96 51.08
  Q 161.09 49.78 162.19 55.00
  Z"
/>
<path fill="#030607" d="
  M 162.19 55.00
  Q 162.31 57.77 160.00 59.40
  Q 157.99 60.45 156.48 59.77
  Q 147.23 57.11 138.99 63.48
  C 130.71 69.88 128.59 77.84 128.46 87.94
  Q 126.82 88.16 125.60 87.58
  Q 124.54 71.46 136.81 61.85
  Q 141.54 58.15 147.14 56.36
  C 151.65 54.92 157.17 55.14 162.19 55.00
  Z"
/>
<path fill="#e0eaed" d="
  M 195.82 57.87
  L 194.80 62.30
  Q 181.53 70.01 167.14 66.89
  Q 163.81 66.17 154.75 62.41
  Q 154.13 61.28 154.39 60.25
  Q 155.79 60.24 156.48 59.77
  Q 157.99 60.45 160.00 59.40
  C 172.41 65.58 183.82 63.44 195.82 57.87
  Z"
/>
<path fill="#101f24" d="
  M 156.48 59.77
  Q 155.79 60.24 154.39 60.25
  C 141.69 62.11 132.39 72.52 132.33 85.43
  Q 131.93 87.71 128.46 87.94
  C 128.59 77.84 130.71 69.88 138.99 63.48
  Q 147.23 57.11 156.48 59.77
  Z"
/>
<path fill="#cbd6de" d="
  M 194.80 62.30
  Q 192.29 69.61 186.60 72.95
  Q 173.99 74.78 161.76 72.07
  Q 157.11 68.75 154.75 62.41
  Q 163.81 66.17 167.14 66.89
  Q 181.53 70.01 194.80 62.30
  Z"
/>
<path fill="#e0eaed" d="
  M 186.60 72.95
  Q 173.80 81.08 161.76 72.07
  Q 173.99 74.78 186.60 72.95
  Z"
/>
<path fill="#feffff" d="
  M 123.22 85.48
  Q 123.49 87.00 125.60 87.58
  Q 126.82 88.16 128.46 87.94
  Q 131.93 87.71 132.33 85.43
  Q 159.07 86.20 182.03 99.64
  A 0.72 0.71 -46.7 0 0 182.80 99.61
  C 201.89 86.43 226.66 96.94 230.29 119.83
  Q 218.06 131.71 204.99 142.12
  Q 186.86 156.58 164.37 162.27
  Q 157.40 164.03 150.06 165.72
  Q 149.84 165.77 149.28 165.68
  Q 145.89 164.99 143.73 164.96
  Q 134.66 164.82 113.62 164.92
  Q 108.85 164.95 104.17 163.97
  Q 95.09 162.08 86.22 158.23
  Q 103.46 157.62 102.74 142.25
  Q 103.05 135.90 99.88 130.72
  C 91.70 117.57 76.47 123.89 73.18 136.64
  Q 70.86 145.57 75.22 152.74
  C 57.60 141.50 41.28 131.03 25.91 118.36
  Q 29.64 102.44 43.22 96.47
  C 53.48 91.95 64.22 93.31 73.23 99.63
  A 0.88 0.86 -41.9 0 0 74.17 99.67
  Q 96.69 86.37 123.22 85.48
  Z
  M 155.82 131.67
  Q 152.62 136.29 153.32 143.61
  Q 153.22 153.12 160.77 156.49
  Q 167.52 159.49 175.00 156.85
  C 191.37 150.65 182.80 119.85 164.83 123.81
  Q 158.55 125.19 155.82 131.67
  Z"
/>
<path fill="#f0f5f7" d="
  M 75.22 152.74
  Q 77.37 155.29 80.40 156.65
  L 86.22 158.23
  Q 95.09 162.08 104.17 163.97
  Q 108.85 164.95 113.62 164.92
  Q 134.66 164.82 143.73 164.96
  Q 145.89 164.99 149.28 165.68
  Q 129.70 165.10 110.17 165.59
  C 106.38 165.68 102.10 166.35 98.05 166.56
  A 1.78 1.70 -59.5 0 0 97.31 166.77
  Q 96.05 167.49 96.80 168.83
  Q 96.12 169.33 96.38 170.00
  Q 101.23 182.90 114.40 188.92
  Q 128.26 194.72 142.09 188.80
  Q 155.37 182.58 160.05 169.22
  Q 160.13 166.82 158.85 166.74
  Q 154.58 166.47 150.06 165.72
  Q 157.40 164.03 164.37 162.27
  Q 186.86 156.58 204.99 142.12
  Q 218.06 131.71 230.29 119.83
  Q 231.45 130.67 226.01 139.42
  L 214.41 144.68
  A 1.14 1.12 87.7 0 0 213.79 145.36
  Q 212.86 148.16 213.50 150.93
  L 213.06 154.72
  Q 191.64 166.99 168.18 174.18
  Q 163.25 175.69 158.29 177.17
  A 1.49 1.48 10.0 0 0 157.50 177.72
  Q 153.17 183.67 147.28 187.92
  Q 130.10 198.50 111.98 189.69
  Q 105.12 185.74 100.06 179.50
  A 1.58 1.57 -11.0 0 0 99.27 178.97
  C 78.38 172.86 60.70 166.17 43.00 153.68
  Q 43.07 151.81 42.46 150.57
  Q 43.12 147.45 42.49 144.76
  A 0.91 0.91 0.0 0 0 41.92 144.11
  L 30.19 139.69
  Q 24.09 130.22 25.91 118.36
  C 41.28 131.03 57.60 141.50 75.22 152.74
  Z"
/>
<path fill="#851f22" d="
  M 99.88 130.72
  Q 97.82 129.55 96.25 127.77
  A 2.52 2.37 -4.5 0 0 95.59 127.24
  Q 87.35 122.81 80.84 128.60
  Q 71.00 137.35 75.93 150.65
  Q 76.70 152.47 77.36 153.14
  Q 78.88 154.69 80.40 156.65
  Q 77.37 155.29 75.22 152.74
  Q 70.86 145.57 73.18 136.64
  C 76.47 123.89 91.70 117.57 99.88 130.72
  Z"
/>
<path fill="#851f22" d="
  M 175.00 156.85
  L 178.61 153.44
  Q 182.44 147.97 181.75 141.47
  Q 181.48 138.96 181.03 136.08
  A 0.26 0.25 10.2 0 0 180.90 135.90
  Q 180.85 135.88 180.77 135.81
  A 1.61 1.58 9.8 0 1 180.36 135.24
  Q 177.27 128.16 170.95 126.04
  Q 162.48 123.20 155.82 131.67
  Q 158.55 125.19 164.83 123.81
  C 182.80 119.85 191.37 150.65 175.00 156.85
  Z"
/>
<path fill="#d6311d" d="
  M 99.88 130.72
  Q 103.05 135.90 102.74 142.25
  L 97.68 135.84
  Q 98.12 132.15 94.97 131.19
  C 88.83 130.31 83.29 131.17 80.03 137.02
  Q 77.05 142.34 75.93 150.65
  Q 71.00 137.35 80.84 128.60
  Q 87.35 122.81 95.59 127.24
  A 2.52 2.37 -4.5 0 1 96.25 127.77
  Q 97.82 129.55 99.88 130.72
  Z"
/>
<path fill="#d6311d" d="
  M 178.61 153.44
  Q 178.36 145.03 175.42 137.70
  Q 177.79 134.79 175.54 132.15
  A 2.15 2.15 0.0 0 0 174.74 131.56
  Q 171.78 130.32 170.30 133.27
  Q 157.57 130.09 153.32 143.61
  Q 152.62 136.29 155.82 131.67
  Q 162.48 123.20 170.95 126.04
  Q 177.27 128.16 180.36 135.24
  A 1.61 1.58 9.8 0 0 180.77 135.81
  Q 180.85 135.88 180.90 135.90
  A 0.26 0.25 10.2 0 1 181.03 136.08
  Q 181.48 138.96 181.75 141.47
  Q 182.44 147.97 178.61 153.44
  Z"
/>
<path fill="#ff4500" d="
  M 94.97 131.19
  C 90.29 131.21 89.81 137.52 93.76 138.40
  Q 96.28 138.95 97.68 135.84
  L 102.74 142.25
  Q 103.46 157.62 86.22 158.23
  L 80.40 156.65
  Q 78.88 154.69 77.36 153.14
  Q 76.70 152.47 75.93 150.65
  Q 77.05 142.34 80.03 137.02
  C 83.29 131.17 88.83 130.31 94.97 131.19
  Z
  M 97.27 148.98
  C 94.48 139.95 83.60 140.35 78.92 147.39
  A 1.15 1.10 -33.9 0 0 78.75 148.16
  L 79.23 151.36
  A 1.14 1.12 13.9 0 0 79.69 152.11
  C 84.45 155.47 90.81 156.29 95.61 152.45
  Q 97.80 150.70 97.27 148.98
  Z"
/>
<path fill="#ffc49c" d="
  M 94.97 131.19
  Q 98.12 132.15 97.68 135.84
  Q 96.28 138.95 93.76 138.40
  C 89.81 137.52 90.29 131.21 94.97 131.19
  Z"
/>
<path fill="#ffc49c" d="
  M 175.42 137.70
  C 171.98 139.63 168.96 136.54 170.30 133.27
  Q 171.78 130.32 174.74 131.56
  A 2.15 2.15 0.0 0 1 175.54 132.15
  Q 177.79 134.79 175.42 137.70
  Z"
/>
<path fill="#ff4500" d="
  M 170.30 133.27
  C 168.96 136.54 171.98 139.63 175.42 137.70
  Q 178.36 145.03 178.61 153.44
  L 175.00 156.85
  Q 167.52 159.49 160.77 156.49
  Q 153.22 153.12 153.32 143.61
  Q 157.57 130.09 170.30 133.27
  Z
  M 158.93 150.18
  C 162.61 156.57 170.86 155.67 176.19 152.25
  A 1.83 1.82 -17.5 0 0 177.02 150.67
  C 176.82 145.02 173.15 142.36 167.77 142.34
  Q 161.84 142.32 158.87 148.14
  A 2.13 2.11 43.6 0 0 158.93 150.18
  Z"
/>
<path fill="#cbd6de" d="
  M 226.01 139.42
  C 222.78 144.64 218.63 147.80 213.50 150.93
  Q 212.86 148.16 213.79 145.36
  A 1.14 1.12 87.7 0 1 214.41 144.68
  L 226.01 139.42
  Z"
/>
<path fill="#cbd6de" d="
  M 42.46 150.57
  Q 34.86 147.06 30.19 139.69
  L 41.92 144.11
  A 0.91 0.91 0.0 0 1 42.49 144.76
  Q 43.12 147.45 42.46 150.57
  Z"
/>
<path fill="#ff6101" d="
  M 97.27 148.98
  Q 97.80 150.70 95.61 152.45
  C 90.81 156.29 84.45 155.47 79.69 152.11
  A 1.14 1.12 13.9 0 1 79.23 151.36
  L 78.75 148.16
  A 1.15 1.10 -33.9 0 1 78.92 147.39
  C 83.60 140.35 94.48 139.95 97.27 148.98
  Z"
/>
<path fill="#ff6101" d="
  M 158.93 150.18
  A 2.13 2.11 43.6 0 1 158.87 148.14
  Q 161.84 142.32 167.77 142.34
  C 173.15 142.36 176.82 145.02 177.02 150.67
  A 1.83 1.82 -17.5 0 1 176.19 152.25
  C 170.86 155.67 162.61 156.57 158.93 150.18
  Z"
/>
<path fill="#e0eaed" d="
  M 111.98 189.69
  C 88.85 186.84 68.91 180.89 47.78 170.89
  Q 43.91 162.93 43.00 153.68
  C 60.70 166.17 78.38 172.86 99.27 178.97
  A 1.58 1.57 -11.0 0 1 100.06 179.50
  Q 105.12 185.74 111.98 189.69
  Z"
/>
<path fill="#e0eaed" d="
  M 213.06 154.72
  Q 212.23 162.69 208.92 169.66
  Q 179.60 183.84 147.28 187.92
  Q 153.17 183.67 157.50 177.72
  A 1.49 1.48 10.0 0 1 158.29 177.17
  Q 163.25 175.69 168.18 174.18
  Q 191.64 166.99 213.06 154.72
  Z"
/>
<path fill="#cbd6de" d="
  M 149.28 165.68
  Q 149.84 165.77 150.06 165.72
  Q 154.58 166.47 158.85 166.74
  Q 160.13 166.82 160.05 169.22
  Q 158.85 167.73 157.51 167.61
  Q 127.74 164.97 99.03 167.54
  Q 97.63 167.67 96.80 168.83
  Q 96.05 167.49 97.31 166.77
  A 1.78 1.70 -59.5 0 1 98.05 166.56
  C 102.10 166.35 106.38 165.68 110.17 165.59
  Q 129.70 165.10 149.28 165.68
  Z"
/>
<path fill="#030607" d="
  M 160.05 169.22
  Q 155.37 182.58 142.09 188.80
  Q 128.35 184.62 114.40 188.92
  Q 101.23 182.90 96.38 170.00
  Q 96.12 169.33 96.80 168.83
  Q 97.63 167.67 99.03 167.54
  Q 127.74 164.97 157.51 167.61
  Q 158.85 167.73 160.05 169.22
  Z"
/>
<path fill="#dddde3" d="
  M 208.92 169.66
  L 204.10 178.37
  Q 183.47 186.99 163.25 190.78
  Q 113.83 200.04 66.24 182.69
  Q 58.92 180.03 51.39 177.31
  L 47.78 170.89
  C 68.91 180.89 88.85 186.84 111.98 189.69
  Q 130.10 198.50 147.28 187.92
  Q 179.60 183.84 208.92 169.66
  Z"
/>
<path fill="#cbd6de" d="
  M 204.10 178.37
  Q 193.37 193.53 176.82 201.71
  Q 156.96 204.35 144.95 205.23
  C 121.71 206.93 98.27 203.84 75.00 199.32
  Q 60.58 191.03 51.39 177.31
  Q 58.92 180.03 66.24 182.69
  Q 113.83 200.04 163.25 190.78
  Q 183.47 186.99 204.10 178.37
  Z"
/>
<path fill="#101f24" d="
  M 142.09 188.80
  Q 128.26 194.72 114.40 188.92
  Q 128.35 184.62 142.09 188.80
  Z"
/>
<path fill="#dddde3" d="
  M 176.82 201.71
  Q 170.34 205.37 163.37 207.52
  Q 139.83 210.02 119.97 209.13
  Q 112.99 208.82 91.57 207.06
  Q 82.88 204.15 75.00 199.32
  C 98.27 203.84 121.71 206.93 144.95 205.23
  Q 156.96 204.35 176.82 201.71
  Z"
/>
<path fill="#e0eaed" d="
  M 163.37 207.52
  C 140.33 215.28 114.51 215.38 91.57 207.06
  Q 112.99 208.82 119.97 209.13
  Q 139.83 210.02 163.37 207.52
  Z"
/>
</svg>