<?xml version="1.0" encoding="UTF-8" standalone="no"?>
<!DOCTYPE svg PUBLIC "-//W3C//DTD SVG 1.1//EN" "http://www.w3.org/Graphics/SVG/1.1/DTD/svg11.dtd">
<svg xmlns="http://www.w3.org/2000/svg" version="1.1" viewBox="0.00 0.00 300.00 300.00" width="128" height="128">
<path fill="#0087cb" d="
  M 262.51 85.63
  Q 261.41 84.44 255.12 79.39
  Q 252.93 77.63 251.14 77.24
  A 1.53 1.52 31.8 0 0 249.88 77.53
  L 242.56 83.28
  A 0.70 0.70 0.0 0 0 242.50 84.33
  Q 251.95 93.68 289.82 130.42
  Q 292.30 132.83 295.57 137.67
  C 299.67 143.75 299.39 154.53 295.93 161.68
  Q 294.55 164.56 288.60 170.48
  C 274.75 184.26 260.32 198.01 243.70 214.23
  A 0.61 0.60 -45.3 0 0 243.70 215.10
  L 251.52 222.62
  A 0.65 0.64 46.0 0 0 252.39 222.64
  L 263.58 212.79
  A 0.57 0.57 0.0 0 1 264.34 212.79
  L 278.73 225.82
  A 0.60 0.59 44.0 0 1 278.75 226.69
  L 232.77 271.02
  A 0.75 0.73 -45.6 0 1 231.77 271.04
  L 217.75 258.35
  A 0.64 0.63 -47.2 0 1 217.72 257.45
  L 227.91 246.85
  A 0.59 0.58 43.3 0 0 227.88 246.01
  L 219.39 238.32
  A 0.68 0.68 0.0 0 0 218.46 238.33
  Q 211.29 245.27 171.41 284.15
  C 164.42 290.98 156.27 294.66 146.73 293.59
  Q 137.25 292.53 130.03 285.51
  Q 112.55 268.51 84.23 240.81
  A 0.68 0.67 45.3 0 0 83.29 240.80
  L 74.99 248.81
  A 0.22 0.21 47.9 0 0 74.98 249.11
  L 84.85 260.34
  A 0.35 0.34 -43.8 0 1 84.83 260.82
  L 71.06 274.09
  A 0.71 0.71 0.0 0 1 70.08 274.09
  L 23.70 229.52
  A 0.50 0.50 0.0 0 1 23.72 228.79
  L 38.71 215.60
  A 0.56 0.56 0.0 0 1 39.46 215.61
  L 49.91 225.07
  A 0.79 0.78 -45.8 0 0 50.98 225.05
  L 59.12 217.20
  A 0.26 0.26 0.0 0 0 59.12 216.82
  Q 46.90 204.93 8.90 168.15
  C 6.21 165.55 3.96 162.44 2.79 158.77
  C 0.51 151.63 0.79 141.84 5.60 135.59
  Q 8.16 132.26 11.15 129.40
  Q 29.12 112.25 57.88 84.11
  A 0.64 0.63 44.1 0 0 57.86 83.18
  L 49.61 75.72
  A 0.54 0.54 0.0 0 0 48.88 75.71
  L 37.86 85.40
  A 0.95 0.95 0.0 0 1 36.58 85.37
  L 22.91 72.23
  A 0.52 0.51 44.6 0 1 22.90 71.49
  Q 35.80 58.70 52.07 42.83
  Q 61.10 34.03 68.90 27.21
  A 0.83 0.82 46.1 0 1 70.01 27.24
  L 83.71 40.41
  A 0.59 0.58 44.0 0 1 83.73 41.24
  L 73.61 51.77
  A 0.34 0.34 0.0 0 0 73.63 52.25
  L 82.30 60.10
  A 0.61 0.61 0.0 0 0 83.13 60.09
  Q 110.89 33.09 127.56 16.56
  C 131.51 12.64 136.88 8.44 142.35 7.06
  C 155.91 3.65 164.68 8.98 173.83 17.95
  Q 200.15 43.73 216.87 59.97
  A 0.60 0.59 47.7 0 0 217.66 60.01
  L 226.87 52.78
  A 0.38 0.38 0.0 0 0 226.91 52.21
  L 216.79 41.72
  A 1.03 1.02 -44.0 0 1 216.82 40.28
  L 230.18 27.40
  A 0.76 0.76 0.0 0 1 231.24 27.40
  L 277.66 72.01
  A 0.53 0.52 -43.9 0 1 277.64 72.78
  L 263.00 85.66
  A 0.36 0.35 -41.4 0 1 262.51 85.63
  Z
  M 89.3104 149.6985
  A 60.60 58.45 -179.8 0 0 149.7060 208.3596
  A 60.60 58.45 -179.8 0 0 210.5096 150.1215
  A 60.60 58.45 -179.8 0 0 150.1140 91.4604
  A 60.60 58.45 -179.8 0 0 89.3104 149.6985
  Z"
/>
</svg>