<?xml version="1.0" encoding="UTF-8" standalone="no"?>
<!DOCTYPE svg PUBLIC "-//W3C//DTD SVG 1.1//EN" "http://www.w3.org/Graphics/SVG/1.1/DTD/svg11.dtd">
<svg xmlns="http://www.w3.org/2000/svg" version="1.1" viewBox="0.00 0.00 180.00 180.00" width="128" height="128">
<g stroke-width="2.00" fill="none" stroke-linecap="butt">
<path stroke="#a28523" vector-effect="non-scaling-stroke" d="
  M 24.70 77.03
  A 2.67 2.67 0.0 0 0 24.70 81.81
  L 88.81 113.57
  A 2.67 2.67 0.0 0 0 91.19 113.57
  L 155.30 81.81
  A 2.67 2.67 0.0 0 0 155.30 77.03
  L 91.19 45.27
  A 2.67 2.67 0.0 0 0 88.81 45.27
  L 24.70 77.03"
/>
<path stroke="#a28523" vector-effect="non-scaling-stroke" d="
  M 90.00 134.92
  Q 90.77 134.92 91.73 134.44
  Q 128.71 116.08 155.24 102.98
  Q 157.70 101.76 156.22 98.89
  A 1.24 1.19 0.6 0 0 155.68 98.36
  L 145.11 93.12
  A 1.06 1.04 44.4 0 0 144.18 93.12
  Q 117.03 106.64 93.00 118.49
  Q 92.01 118.98 90.00 118.98
  Q 87.98 118.98 87.00 118.49
  Q 62.96 106.64 35.81 93.13
  A 1.06 1.04 -44.4 0 0 34.88 93.13
  L 24.31 98.37
  A 1.24 1.19 -0.6 0 0 23.77 98.90
  Q 22.29 101.77 24.75 102.99
  Q 51.28 116.09 88.27 134.44
  Q 89.23 134.92 90.00 134.92"
/>
</g>
<path fill="#ffc500" d="
  M 180.00 0.00
  L 180.00 180.00
  L 0.00 180.00
  L 0.00 0.00
  L 180.00 0.00
  Z
  M 24.70 77.03
  A 2.67 2.67 0.0 0 0 24.70 81.81
  L 88.81 113.57
  A 2.67 2.67 0.0 0 0 91.19 113.57
  L 155.30 81.81
  A 2.67 2.67 0.0 0 0 155.30 77.03
  L 91.19 45.27
  A 2.67 2.67 0.0 0 0 88.81 45.27
  L 24.70 77.03
  Z
  M 90.00 134.92
  Q 90.77 134.92 91.73 134.44
  Q 128.71 116.08 155.24 102.98
  Q 157.70 101.76 156.22 98.89
  A 1.24 1.19 0.6 0 0 155.68 98.36
  L 145.11 93.12
  A 1.06 1.04 44.4 0 0 144.18 93.12
  Q 117.03 106.64 93.00 118.49
  Q 92.01 118.98 90.00 118.98
  Q 87.98 118.98 87.00 118.49
  Q 62.96 106.64 35.81 93.13
  A 1.06 1.04 -44.4 0 0 34.88 93.13
  L 24.31 98.37
  A 1.24 1.19 -0.6 0 0 23.77 98.90
  Q 22.29 101.77 24.75 102.99
  Q 51.28 116.09 88.27 134.44
  Q 89.23 134.92 90.00 134.92
  Z"
/>
<path fill="#454545" d="
  M 24.70 77.03
  L 88.81 45.27
  A 2.67 2.67 0.0 0 1 91.19 45.27
  L 155.30 77.03
  A 2.67 2.67 0.0 0 1 155.30 81.81
  L 91.19 113.57
  A 2.67 2.67 0.0 0 1 88.81 113.57
  L 24.70 81.81
  A 2.67 2.67 0.0 0 1 24.70 77.03
  Z"
/>
<path fill="#454545" d="
  M 90.00 118.98
  Q 92.01 118.98 93.00 118.49
  Q 117.03 106.64 144.18 93.12
  A 1.06 1.04 44.4 0 1 145.11 93.12
  L 155.68 98.36
  A 1.24 1.19 0.6 0 1 156.22 98.89
  Q 157.70 101.76 155.24 102.98
  Q 128.71 116.08 91.73 134.44
  Q 90.77 134.92 90.00 134.92
  Q 89.23 134.92 88.27 134.44
  Q 51.28 116.09 24.75 102.99
  Q 22.29 101.77 23.77 98.90
  A 1.24 1.19 -0.6 0 1 24.31 98.37
  L 34.88 93.13
  A 1.06 1.04 -44.4 0 1 35.81 93.13
  Q 62.96 106.64 87.00 118.49
  Q 87.98 118.98 90.00 118.98
  Z"
/>
</svg>