<?xml version="1.0" encoding="UTF-8" standalone="no"?>
<!DOCTYPE svg PUBLIC "-//W3C//DTD SVG 1.1//EN" "http://www.w3.org/Graphics/SVG/1.1/DTD/svg11.dtd">
<svg xmlns="http://www.w3.org/2000/svg" version="1.1" viewBox="0.00 0.00 256.00 256.00" width="128" height="128">
<g stroke-width="2.00" fill="none" stroke-linecap="butt">
<path stroke="#ffaf8e" vector-effect="non-scaling-stroke" d="
  M 109.5853 107.1359
  A 0.35 0.35 0.0 0 0 109.5036 106.6477
  L 82.4750 87.3684
  A 0.35 0.35 0.0 0 0 81.9868 87.4501
  L 38.2947 148.7041
  A 0.35 0.35 0.0 0 0 38.3764 149.1923
  L 65.4050 168.4716
  A 0.35 0.35 0.0 0 0 65.8932 168.3899
  L 109.5853 107.1359"
/>
<path stroke="#ffaf8e" vector-effect="non-scaling-stroke" d="
  M 163.6511 107.0803
  A 0.26 0.26 0.0 0 0 163.5898 106.7178
  L 136.3808 87.3814
  A 0.26 0.26 0.0 0 0 136.0183 87.4427
  L 92.3289 148.9197
  A 0.26 0.26 0.0 0 0 92.3902 149.2822
  L 119.5992 168.6186
  A 0.26 0.26 0.0 0 0 119.9617 168.5573
  L 163.6511 107.0803"
/>
<path stroke="#ffaf8e" vector-effect="non-scaling-stroke" d="
  M 217.6574 107.2400
  A 0.36 0.36 0.0 0 0 217.5725 106.7380
  L 190.5265 87.5175
  A 0.36 0.36 0.0 0 0 190.0246 87.6024
  L 146.4626 148.9000
  A 0.36 0.36 0.0 0 0 146.5475 149.4020
  L 173.5935 168.6225
  A 0.36 0.36 0.0 0 0 174.0954 168.5376
  L 217.6574 107.2400"
/>
</g>
<path fill="#ff5e1d" d="
  M 256.00 0.00
  L 256.00 256.00
  L 0.00 256.00
  L 0.00 0.00
  L 256.00 0.00
  Z
  M 109.5853 107.1359
  A 0.35 0.35 0.0 0 0 109.5036 106.6477
  L 82.4750 87.3684
  A 0.35 0.35 0.0 0 0 81.9868 87.4501
  L 38.2947 148.7041
  A 0.35 0.35 0.0 0 0 38.3764 149.1923
  L 65.4050 168.4716
  A 0.35 0.35 0.0 0 0 65.8932 168.3899
  L 109.5853 107.1359
  Z
  M 163.6511 107.0803
  A 0.26 0.26 0.0 0 0 163.5898 106.7178
  L 136.3808 87.3814
  A 0.26 0.26 0.0 0 0 136.0183 87.4427
  L 92.3289 148.9197
  A 0.26 0.26 0.0 0 0 92.3902 149.2822
  L 119.5992 168.6186
  A 0.26 0.26 0.0 0 0 119.9617 168.5573
  L 163.6511 107.0803
  Z
  M 217.6574 107.2400
  A 0.36 0.36 0.0 0 0 217.5725 106.7380
  L 190.5265 87.5175
  A 0.36 0.36 0.0 0 0 190.0246 87.6024
  L 146.4626 148.9000
  A 0.36 0.36 0.0 0 0 146.5475 149.4020
  L 173.5935 168.6225
  A 0.36 0.36 0.0 0 0 174.0954 168.5376
  L 217.6574 107.2400
  Z"
/>
<rect fill="#ffffff" x="-16.95" y="-37.97" transform="translate(73.94,127.92) rotate(35.5)" width="33.90" height="75.94" rx="0.35"/>
<rect fill="#ffffff" x="-16.95" y="-37.97" transform="translate(127.99,128.00) rotate(35.4)" width="33.90" height="75.94" rx="0.26"/>
<rect fill="#ffffff" x="-16.95" y="-37.96" transform="translate(182.06,128.07) rotate(35.4)" width="33.90" height="75.92" rx="0.36"/>
</svg>