<?xml version="1.0" encoding="UTF-8" standalone="no"?>
<!DOCTYPE svg PUBLIC "-//W3C//DTD SVG 1.1//EN" "http://www.w3.org/Graphics/SVG/1.1/DTD/svg11.dtd">
<svg xmlns="http://www.w3.org/2000/svg" version="1.1" viewBox="0.00 0.00 192.00 192.00" width="128" height="128">
<g stroke-width="2.00" fill="none" stroke-linecap="butt">
<path stroke="#54a1cb" vector-effect="non-scaling-stroke" d="
  M 192.00 31.92
  L 0.00 31.94"
/>
<path stroke="#4d96c4" vector-effect="non-scaling-stroke" d="
  M 192.00 48.01
  L 170.18 49.04"
/>
<path stroke="#a8cee4" vector-effect="non-scaling-stroke" d="
  M 170.18 49.04
  Q 161.71 42.44 150.51 41.42
  Q 133.67 39.89 122.03 50.78"
/>
<path stroke="#4d96c4" vector-effect="non-scaling-stroke" d="
  M 122.03 50.78
  Q 104.22 48.68 86.21 50.04"
/>
<path stroke="#a8cee4" vector-effect="non-scaling-stroke" d="
  M 86.21 50.04
  Q 74.36 43.26 60.99 42.97
  Q 46.95 42.66 15.21 42.93
  A 0.51 0.50 -0.0 0 0 14.70 43.43
  L 14.65 59.08"
/>
<path stroke="#4d96c4" vector-effect="non-scaling-stroke" d="
  M 14.65 59.08
  L 14.54 56.87
  A 0.76 0.76 0.0 0 0 14.01 56.19
  Q 6.63 53.82 0.00 57.36"
/>
<path stroke="#a4c7df" vector-effect="non-scaling-stroke" d="
  M 170.18 49.04
  Q 173.48 51.84 175.48 55.52
  C 177.31 58.90 177.68 64.08 174.46 66.70
  C 171.15 69.39 166.20 67.43 165.33 63.33
  C 164.79 60.74 166.03 58.54 167.97 56.76
  A 0.73 0.72 -38.4 0 0 168.08 55.83
  Q 166.63 53.60 164.12 52.09
  Q 152.20 44.94 138.96 48.03
  C 127.30 50.75 119.63 60.56 122.63 72.73"
/>
<path stroke="#a0c1dc" vector-effect="non-scaling-stroke" d="
  M 122.63 72.73
  C 124.31 78.80 128.94 83.26 134.42 86.04"
/>
<path stroke="#9dbcd9" vector-effect="non-scaling-stroke" d="
  M 134.42 86.04
  Q 138.20 88.30 141.25 89.50
  Q 153.23 94.21 162.74 98.89"
/>
<path stroke="#99b6d5" vector-effect="non-scaling-stroke" d="
  M 162.74 98.89
  C 173.38 104.53 180.05 113.63 178.73 126.07"
/>
<path stroke="#93accf" vector-effect="non-scaling-stroke" d="
  M 178.73 126.07
  Q 177.61 137.20 168.98 144.48"
/>
<path stroke="#8fa5ca" vector-effect="non-scaling-stroke" d="
  M 168.98 144.48
  C 154.32 156.04 128.38 154.60 115.60 140.69"
/>
<path stroke="#96b1d2" vector-effect="non-scaling-stroke" d="
  M 115.60 140.69
  C 112.49 137.08 110.25 132.16 112.08 127.51
  C 114.81 120.62 124.51 123.48 122.95 130.87"
/>
<path stroke="#93accf" vector-effect="non-scaling-stroke" d="
  M 122.95 130.87
  Q 122.08 133.43 120.01 135.06
  A 0.80 0.80 0.0 0 0 119.90 136.20
  Q 124.94 142.18 132.58 144.44
  C 146.99 148.71 164.87 146.58 171.12 131.04"
/>
<path stroke="#96b1d2" vector-effect="non-scaling-stroke" d="
  M 171.12 131.04
  Q 173.90 122.14 170.04 114.48"
/>
<path stroke="#99b6d5" vector-effect="non-scaling-stroke" d="
  M 170.04 114.48
  C 166.58 108.82 161.38 105.43 155.39 102.57
  C 147.53 98.81 136.62 95.42 127.53 89.66"
/>
<path stroke="#9dbcd9" vector-effect="non-scaling-stroke" d="
  M 127.53 89.66
  L 121.27 84.24"
/>
<path stroke="#a0c1dc" vector-effect="non-scaling-stroke" d="
  M 121.27 84.24
  Q 117.49 79.91 116.07 74.39"
/>
<path stroke="#a4c7df" vector-effect="non-scaling-stroke" d="
  M 116.07 74.39
  Q 113.30 60.87 122.03 50.78"
/>
<path stroke="#a4c7df" vector-effect="non-scaling-stroke" d="
  M 86.21 50.04
  Q 99.00 58.74 99.38 74.47"
/>
<path stroke="#a0c1dc" vector-effect="non-scaling-stroke" d="
  M 99.38 74.47
  Q 99.54 81.06 97.14 87.16"
/>
<path stroke="#9dbcd9" vector-effect="non-scaling-stroke" d="
  M 97.14 87.16
  Q 95.08 92.02 91.60 95.93"
/>
<path stroke="#99b6d5" vector-effect="non-scaling-stroke" d="
  M 91.60 95.93
  Q 86.47 101.52 79.50 104.45
  A 0.59 0.57 63.8 0 0 79.23 105.27
  L 85.22 115.79"
/>
<path stroke="#96b1d2" vector-effect="non-scaling-stroke" d="
  M 85.22 115.79
  L 95.34 133.55
  A 1.06 1.04 -14.7 0 0 96.25 134.07
  L 107.59 134.07
  A 0.37 0.37 0.0 0 1 107.96 134.44
  L 108.05 150.51"
/>
<path stroke="#8fa5ca" vector-effect="non-scaling-stroke" d="
  M 108.05 150.51
  L 83.34 150.57
  A 0.74 0.72 -13.2 0 1 82.69 150.18
  L 79.14 143.45"
/>
<path stroke="#93accf" vector-effect="non-scaling-stroke" d="
  M 79.14 143.45
  L 69.58 125.48"
/>
<path stroke="#96b1d2" vector-effect="non-scaling-stroke" d="
  M 69.58 125.48
  L 61.56 110.29
  A 0.88 0.85 -13.5 0 0 60.79 109.83
  L 46.23 109.83
  A 0.58 0.58 0.0 0 0 45.65 110.41
  L 45.63 128.04"
/>
<path stroke="#93accf" vector-effect="non-scaling-stroke" d="
  M 45.63 128.04
  L 45.63 133.67
  A 0.42 0.42 0.0 0 0 46.05 134.09
  L 58.57 134.09
  A 0.57 0.56 89.5 0 1 59.13 134.65
  L 59.23 148.02"
/>
<path stroke="#8fa5ca" vector-effect="non-scaling-stroke" d="
  M 59.23 148.02
  L 59.12 149.86
  A 0.58 0.57 -88.4 0 1 58.55 150.41
  L 14.57 150.47"
/>
<path stroke="#93accf" vector-effect="non-scaling-stroke" d="
  M 14.57 150.47
  L 14.61 135.22"
/>
<path stroke="#96b1d2" vector-effect="non-scaling-stroke" d="
  M 14.61 135.22
  Q 14.59 134.82 14.70 134.54
  A 0.63 0.62 10.0 0 1 15.29 134.13
  L 26.33 134.13
  A 0.62 0.61 90.0 0 0 26.94 133.51
  L 26.95 113.73"
/>
<path stroke="#99b6d5" vector-effect="non-scaling-stroke" d="
  M 26.95 113.73
  L 26.95 98.21"
/>
<path stroke="#9dbcd9" vector-effect="non-scaling-stroke" d="
  M 26.95 98.21
  L 26.95 89.22"
/>
<path stroke="#a0c1dc" vector-effect="non-scaling-stroke" d="
  M 26.95 89.22
  L 26.98 75.22"
/>
<path stroke="#a4c7df" vector-effect="non-scaling-stroke" d="
  M 26.98 75.22
  L 27.00 59.90
  A 0.55 0.54 -89.5 0 0 26.47 59.35
  L 14.65 59.08"
/>
<path stroke="#a0c1dc" vector-effect="non-scaling-stroke" d="
  M 45.66 59.87
  L 45.54 93.37
  A 0.60 0.60 0.0 0 0 46.14 93.97
  L 58.97 94.02
  A 21.09 16.43 0.2 0 0 80.12 77.66
  L 80.12 75.82
  A 21.09 16.43 0.2 0 0 59.09 59.32
  L 46.26 59.27
  A 0.60 0.60 0.0 0 0 45.66 59.87"
/>
<path stroke="#4589bc" vector-effect="non-scaling-stroke" d="
  M 192.00 71.12
  Q 157.35 70.54 122.63 72.73"
/>
<path stroke="#4589bc" vector-effect="non-scaling-stroke" d="
  M 116.07 74.39
  L 99.38 74.47"
/>
<path stroke="#4589bc" vector-effect="non-scaling-stroke" d="
  M 26.98 75.22
  L 26.58 72.48
  A 0.64 0.62 87.1 0 0 26.00 71.94
  L 0.00 70.14"
/>
<path stroke="#3e7eb5" vector-effect="non-scaling-stroke" d="
  M 26.95 89.22
  L 26.67 87.36
  A 0.71 0.70 -89.5 0 0 26.11 86.78
  Q 13.16 84.40 0.00 83.90"
/>
<path stroke="#3e7eb5" vector-effect="non-scaling-stroke" d="
  M 192.00 85.31
  Q 163.25 84.51 134.42 86.04"
/>
<path stroke="#3e7eb5" vector-effect="non-scaling-stroke" d="
  M 121.27 84.24
  C 113.78 87.47 105.17 87.51 97.14 87.16"
/>
<path stroke="#3773ae" vector-effect="non-scaling-stroke" d="
  M 26.95 98.21
  L 0.00 96.37"
/>
<path stroke="#3773ae" vector-effect="non-scaling-stroke" d="
  M 127.53 89.66
  C 131.11 93.91 135.49 95.27 142.41 98.79
  A 0.16 0.16 0.0 0 1 142.36 99.09
  Q 123.33 101.73 107.10 100.22
  Q 99.87 99.54 91.60 95.93"
/>
<path stroke="#3773ae" vector-effect="non-scaling-stroke" d="
  M 192.00 98.03
  L 162.74 98.89"
/>
<path stroke="#2f67a7" vector-effect="non-scaling-stroke" d="
  M 170.04 114.48
  L 85.22 115.79"
/>
<path stroke="#2f67a7" vector-effect="non-scaling-stroke" d="
  M 26.95 113.73
  C 18.64 110.50 9.01 110.77 0.00 111.69"
/>
<path stroke="#2c62a4" vector-effect="non-scaling-stroke" d="
  M 192.00 125.44
  Q 185.38 124.45 178.73 126.07"
/>
<path stroke="#295da1" vector-effect="non-scaling-stroke" d="
  M 69.58 125.48
  Q 57.91 124.19 46.33 125.08
  A 0.57 0.57 0.0 0 0 45.81 125.61
  L 45.63 128.04"
/>
<path stroke="#295da1" vector-effect="non-scaling-stroke" d="
  M 14.61 135.22
  Q 14.73 134.42 14.48 133.93
  Q 14.24 133.48 13.39 133.36
  Q 6.78 132.43 0.00 133.47"
/>
<path stroke="#295da1" vector-effect="non-scaling-stroke" d="
  M 171.12 131.04
  Q 147.03 128.66 122.95 130.87"
/>
<path stroke="#25579d" vector-effect="non-scaling-stroke" d="
  M 115.60 140.69
  L 109.77 142.06
  A 0.78 0.78 0.0 0 0 109.18 142.70
  L 108.05 150.51"
/>
<path stroke="#22529a" vector-effect="non-scaling-stroke" d="
  M 79.14 143.45
  Q 72.60 143.77 66.07 144.22
  Q 61.27 144.55 59.23 148.02"
/>
<path stroke="#22529a" vector-effect="non-scaling-stroke" d="
  M 192.00 146.32
  Q 181.22 147.61 169.95 146.84
  A 1.25 1.24 -82.7 0 1 168.81 145.36
  L 168.98 144.48"
/>
<path stroke="#22529a" vector-effect="non-scaling-stroke" d="
  M 14.57 150.47
  Q 7.35 148.63 0.00 148.49"
/>
<path stroke="#1b4692" vector-effect="non-scaling-stroke" d="
  M 192.00 167.08
  L 0.00 167.14"
/>
</g>
<path fill="#57a5ce" d="
  M 192.00 0.00
  L 192.00 31.92
  L 0.00 31.94
  L 0.00 0.00
  L 192.00 0.00
  Z"
/>
<path fill="#519cc8" d="
  M 192.00 31.92
  L 192.00 48.01
  L 170.18 49.04
  Q 161.71 42.44 150.51 41.42
  Q 133.67 39.89 122.03 50.78
  Q 104.22 48.68 86.21 50.04
  Q 74.36 43.26 60.99 42.97
  Q 46.95 42.66 15.21 42.93
  A 0.51 0.50 -0.0 0 0 14.70 43.43
  L 14.65 59.08
  L 14.54 56.87
  A 0.76 0.76 0.0 0 0 14.01 56.19
  Q 6.63 53.82 0.00 57.36
  L 0.00 31.94
  L 192.00 31.92
  Z"
/>
<path fill="#ffffff" d="
  M 170.18 49.04
  Q 173.48 51.84 175.48 55.52
  C 177.31 58.90 177.68 64.08 174.46 66.70
  C 171.15 69.39 166.20 67.43 165.33 63.33
  C 164.79 60.74 166.03 58.54 167.97 56.76
  A 0.73 0.72 -38.4 0 0 168.08 55.83
  Q 166.63 53.60 164.12 52.09
  Q 152.20 44.94 138.96 48.03
  C 127.30 50.75 119.63 60.56 122.63 72.73
  C 124.31 78.80 128.94 83.26 134.42 86.04
  Q 138.20 88.30 141.25 89.50
  Q 153.23 94.21 162.74 98.89
  C 173.38 104.53 180.05 113.63 178.73 126.07
  Q 177.61 137.20 168.98 144.48
  C 154.32 156.04 128.38 154.60 115.60 140.69
  C 112.49 137.08 110.25 132.16 112.08 127.51
  C 114.81 120.62 124.51 123.48 122.95 130.87
  Q 122.08 133.43 120.01 135.06
  A 0.80 0.80 0.0 0 0 119.90 136.20
  Q 124.94 142.18 132.58 144.44
  C 146.99 148.71 164.87 146.58 171.12 131.04
  Q 173.90 122.14 170.04 114.48
  C 166.58 108.82 161.38 105.43 155.39 102.57
  C 147.53 98.81 136.62 95.42 127.53 89.66
  L 121.27 84.24
  Q 117.49 79.91 116.07 74.39
  Q 113.30 60.87 122.03 50.78
  Q 133.67 39.89 150.51 41.42
  Q 161.71 42.44 170.18 49.04
  Z"
/>
<path fill="#ffffff" d="
  M 86.21 50.04
  Q 99.00 58.74 99.38 74.47
  Q 99.54 81.06 97.14 87.16
  Q 95.08 92.02 91.60 95.93
  Q 86.47 101.52 79.50 104.45
  A 0.59 0.57 63.8 0 0 79.23 105.27
  L 85.22 115.79
  L 95.34 133.55
  A 1.06 1.04 -14.7 0 0 96.25 134.07
  L 107.59 134.07
  A 0.37 0.37 0.0 0 1 107.96 134.44
  L 108.05 150.51
  L 83.34 150.57
  A 0.74 0.72 -13.2 0 1 82.69 150.18
  L 79.14 143.45
  L 69.58 125.48
  L 61.56 110.29
  A 0.88 0.85 -13.5 0 0 60.79 109.83
  L 46.23 109.83
  A 0.58 0.58 0.0 0 0 45.65 110.41
  L 45.63 128.04
  L 45.63 133.67
  A 0.42 0.42 0.0 0 0 46.05 134.09
  L 58.57 134.09
  A 0.57 0.56 89.5 0 1 59.13 134.65
  L 59.23 148.02
  L 59.12 149.86
  A 0.58 0.57 -88.4 0 1 58.55 150.41
  L 14.57 150.47
  L 14.61 135.22
  Q 14.59 134.82 14.70 134.54
  A 0.63 0.62 10.0 0 1 15.29 134.13
  L 26.33 134.13
  A 0.62 0.61 90.0 0 0 26.94 133.51
  L 26.95 113.73
  L 26.95 98.21
  L 26.95 89.22
  L 26.98 75.22
  L 27.00 59.90
  A 0.55 0.54 -89.5 0 0 26.47 59.35
  L 14.65 59.08
  L 14.70 43.43
  A 0.51 0.50 -0.0 0 1 15.21 42.93
  Q 46.95 42.66 60.99 42.97
  Q 74.36 43.26 86.21 50.04
  Z
  M 45.66 59.87
  L 45.54 93.37
  A 0.60 0.60 0.0 0 0 46.14 93.97
  L 58.97 94.02
  A 21.09 16.43 0.2 0 0 80.12 77.66
  L 80.12 75.82
  A 21.09 16.43 0.2 0 0 59.09 59.32
  L 46.26 59.27
  A 0.60 0.60 0.0 0 0 45.66 59.87
  Z"
/>
<path fill="#488fbf" d="
  M 170.18 49.04
  L 192.00 48.01
  L 192.00 71.12
  Q 157.35 70.54 122.63 72.73
  C 119.63 60.56 127.30 50.75 138.96 48.03
  Q 152.20 44.94 164.12 52.09
  Q 166.63 53.60 168.08 55.83
  A 0.73 0.72 -38.4 0 1 167.97 56.76
  C 166.03 58.54 164.79 60.74 165.33 63.33
  C 166.20 67.43 171.15 69.39 174.46 66.70
  C 177.68 64.08 177.31 58.90 175.48 55.52
  Q 173.48 51.84 170.18 49.04
  Z"
/>
<path fill="#488fbf" d="
  M 122.03 50.78
  Q 113.30 60.87 116.07 74.39
  L 99.38 74.47
  Q 99.00 58.74 86.21 50.04
  Q 104.22 48.68 122.03 50.78
  Z"
/>
<path fill="#488fbf" d="
  M 14.65 59.08
  L 26.47 59.35
  A 0.55 0.54 -89.5 0 1 27.00 59.90
  L 26.98 75.22
  L 26.58 72.48
  A 0.64 0.62 87.1 0 0 26.00 71.94
  L 0.00 70.14
  L 0.00 57.36
  Q 6.63 53.82 14.01 56.19
  A 0.76 0.76 0.0 0 1 14.54 56.87
  L 14.65 59.08
  Z"
/>
<path fill="#4183b8" d="
  M 45.66 59.87
  A 0.60 0.60 0.0 0 1 46.26 59.27
  L 59.09 59.32
  A 21.09 16.43 0.2 0 1 80.12 75.82
  L 80.12 77.66
  A 21.09 16.43 0.2 0 1 58.97 94.02
  L 46.14 93.97
  A 0.60 0.60 0.0 0 1 45.54 93.37
  L 45.66 59.87
  Z"
/>
<path fill="#4183b8" d="
  M 26.98 75.22
  L 26.95 89.22
  L 26.67 87.36
  A 0.71 0.70 -89.5 0 0 26.11 86.78
  Q 13.16 84.40 0.00 83.90
  L 0.00 70.14
  L 26.00 71.94
  A 0.64 0.62 87.1 0 1 26.58 72.48
  L 26.98 75.22
  Z"
/>
<path fill="#4183b8" d="
  M 192.00 71.12
  L 192.00 85.31
  Q 163.25 84.51 134.42 86.04
  C 128.94 83.26 124.31 78.80 122.63 72.73
  Q 157.35 70.54 192.00 71.12
  Z"
/>
<path fill="#4183b8" d="
  M 116.07 74.39
  Q 117.49 79.91 121.27 84.24
  C 113.78 87.47 105.17 87.51 97.14 87.16
  Q 99.54 81.06 99.38 74.47
  L 116.07 74.39
  Z"
/>
<path fill="#3b79b2" d="
  M 26.95 89.22
  L 26.95 98.21
  L 0.00 96.37
  L 0.00 83.90
  Q 13.16 84.40 26.11 86.78
  A 0.71 0.70 -89.5 0 1 26.67 87.36
  L 26.95 89.22
  Z"
/>
<path fill="#3b79b2" d="
  M 127.53 89.66
  C 131.11 93.91 135.49 95.27 142.41 98.79
  A 0.16 0.16 0.0 0 1 142.36 99.09
  Q 123.33 101.73 107.10 100.22
  Q 99.87 99.54 91.60 95.93
  Q 95.08 92.02 97.14 87.16
  C 105.17 87.51 113.78 87.47 121.27 84.24
  L 127.53 89.66
  Z"
/>
<path fill="#3b79b2" d="
  M 192.00 85.31
  L 192.00 98.03
  L 162.74 98.89
  Q 153.23 94.21 141.25 89.50
  Q 138.20 88.30 134.42 86.04
  Q 163.25 84.51 192.00 85.31
  Z"
/>
<path fill="#326caa" d="
  M 127.53 89.66
  C 136.62 95.42 147.53 98.81 155.39 102.57
  C 161.38 105.43 166.58 108.82 170.04 114.48
  L 85.22 115.79
  L 79.23 105.27
  A 0.59 0.57 63.8 0 1 79.50 104.45
  Q 86.47 101.52 91.60 95.93
  Q 99.87 99.54 107.10 100.22
  Q 123.33 101.73 142.36 99.09
  A 0.16 0.16 0.0 0 0 142.41 98.79
  C 135.49 95.27 131.11 93.91 127.53 89.66
  Z"
/>
<path fill="#326caa" d="
  M 26.95 98.21
  L 26.95 113.73
  C 18.64 110.50 9.01 110.77 0.00 111.69
  L 0.00 96.37
  L 26.95 98.21
  Z"
/>
<path fill="#326caa" d="
  M 192.00 98.03
  L 192.00 125.44
  Q 185.38 124.45 178.73 126.07
  C 180.05 113.63 173.38 104.53 162.74 98.89
  L 192.00 98.03
  Z"
/>
<path fill="#2c62a4" d="
  M 69.58 125.48
  Q 57.91 124.19 46.33 125.08
  A 0.57 0.57 0.0 0 0 45.81 125.61
  L 45.63 128.04
  L 45.65 110.41
  A 0.58 0.58 0.0 0 1 46.23 109.83
  L 60.79 109.83
  A 0.88 0.85 -13.5 0 1 61.56 110.29
  L 69.58 125.48
  Z"
/>
<path fill="#2c62a4" d="
  M 26.95 113.73
  L 26.94 133.51
  A 0.62 0.61 90.0 0 1 26.33 134.13
  L 15.29 134.13
  A 0.63 0.62 10.0 0 0 14.70 134.54
  Q 14.59 134.82 14.61 135.22
  Q 14.73 134.42 14.48 133.93
  Q 14.24 133.48 13.39 133.36
  Q 6.78 132.43 0.00 133.47
  L 0.00 111.69
  C 9.01 110.77 18.64 110.50 26.95 113.73
  Z"
/>
<path fill="#2c62a4" d="
  M 170.04 114.48
  Q 173.90 122.14 171.12 131.04
  Q 147.03 128.66 122.95 130.87
  C 124.51 123.48 114.81 120.62 112.08 127.51
  C 110.25 132.16 112.49 137.08 115.60 140.69
  L 109.77 142.06
  A 0.78 0.78 0.0 0 0 109.18 142.70
  L 108.05 150.51
  L 107.96 134.44
  A 0.37 0.37 0.0 0 0 107.59 134.07
  L 96.25 134.07
  A 1.06 1.04 -14.7 0 1 95.34 133.55
  L 85.22 115.79
  L 170.04 114.48
  Z"
/>
<path fill="#26589e" d="
  M 69.58 125.48
  L 79.14 143.45
  Q 72.60 143.77 66.07 144.22
  Q 61.27 144.55 59.23 148.02
  L 59.13 134.65
  A 0.57 0.56 89.5 0 0 58.57 134.09
  L 46.05 134.09
  A 0.42 0.42 0.0 0 1 45.63 133.67
  L 45.63 128.04
  L 45.81 125.61
  A 0.57 0.57 0.0 0 1 46.33 125.08
  Q 57.91 124.19 69.58 125.48
  Z"
/>
<path fill="#26589e" d="
  M 192.00 125.44
  L 192.00 146.32
  Q 181.22 147.61 169.95 146.84
  A 1.25 1.24 -82.7 0 1 168.81 145.36
  L 168.98 144.48
  Q 177.61 137.20 178.73 126.07
  Q 185.38 124.45 192.00 125.44
  Z"
/>
<path fill="#26589e" d="
  M 171.12 131.04
  C 164.87 146.58 146.99 148.71 132.58 144.44
  Q 124.94 142.18 119.90 136.20
  A 0.80 0.80 0.0 0 1 120.01 135.06
  Q 122.08 133.43 122.95 130.87
  Q 147.03 128.66 171.12 131.04
  Z"
/>
<path fill="#26589e" d="
  M 14.61 135.22
  L 14.57 150.47
  Q 7.35 148.63 0.00 148.49
  L 0.00 133.47
  Q 6.78 132.43 13.39 133.36
  Q 14.24 133.48 14.48 133.93
  Q 14.73 134.42 14.61 135.22
  Z"
/>
<path fill="#1e4b95" d="
  M 115.60 140.69
  C 128.38 154.60 154.32 156.04 168.98 144.48
  L 168.81 145.36
  A 1.25 1.24 -82.7 0 0 169.95 146.84
  Q 181.22 147.61 192.00 146.32
  L 192.00 167.08
  L 0.00 167.14
  L 0.00 148.49
  Q 7.35 148.63 14.57 150.47
  L 58.55 150.41
  A 0.58 0.57 -88.4 0 0 59.12 149.86
  L 59.23 148.02
  Q 61.27 144.55 66.07 144.22
  Q 72.60 143.77 79.14 143.45
  L 82.69 150.18
  A 0.74 0.72 -13.2 0 0 83.34 150.57
  L 108.05 150.51
  L 109.18 142.70
  A 0.78 0.78 0.0 0 1 109.77 142.06
  L 115.60 140.69
  Z"
/>
<path fill="#17418f" d="
  M 192.00 167.08
  L 192.00 192.00
  L 0.00 192.00
  L 0.00 167.14
  L 192.00 167.08
  Z"
/>
</svg>