<?xml version="1.0" encoding="UTF-8" standalone="no"?>
<!DOCTYPE svg PUBLIC "-//W3C//DTD SVG 1.1//EN" "http://www.w3.org/Graphics/SVG/1.1/DTD/svg11.dtd">
<svg xmlns="http://www.w3.org/2000/svg" version="1.1" viewBox="0.00 0.00 128.00 128.00" width="128" height="128">
<path stroke="#7b8980" stroke-width="2.00" fill="none" stroke-linecap="butt" vector-effect="non-scaling-stroke" d="
  M 118.61 49.95
  Q 108.75 58.95 97.23 58.40
  C 80.75 57.61 68.81 44.27 69.59 27.50
  Q 70.05 17.66 78.16 9.37"
/>
<path fill="#005aff" d="
  M 118.61 49.95
  Q 108.75 58.95 97.23 58.40
  C 80.75 57.61 68.81 44.27 69.59 27.50
  Q 70.05 17.66 78.16 9.37
  Q 78.12 9.42 78.08 9.47
  A 0.01 0.01 0.0 0 0 78.10 9.49
  C 94.74 -6.64 122.09 2.11 126.33 24.84
  C 127.73 32.34 125.86 41.28 120.60 47.53
  Q 119.48 48.86 118.61 49.95
  Z"
/>
<path fill="#f6b801" d="
  M 78.16 9.37
  Q 70.05 17.66 69.59 27.50
  C 68.81 44.27 80.75 57.61 97.23 58.40
  Q 108.75 58.95 118.61 49.95
  Q 120.73 67.55 117.77 84.58
  Q 115.42 98.10 110.34 104.95
  Q 103.78 113.79 92.44 116.90
  Q 68.01 123.59 40.39 118.50
  Q 29.77 116.54 24.77 112.86
  Q 18.61 108.31 14.76 102.61
  Q 11.69 98.04 9.86 89.18
  Q 5.10 66.07 9.36 43.15
  C 10.46 37.18 11.68 32.12 14.63 27.21
  Q 22.13 14.71 37.79 11.38
  Q 57.94 7.11 78.16 9.37
  Z"
/>
</svg>