<?xml version="1.0" encoding="UTF-8" standalone="no"?>
<!DOCTYPE svg PUBLIC "-//W3C//DTD SVG 1.1//EN" "http://www.w3.org/Graphics/SVG/1.1/DTD/svg11.dtd">
<svg xmlns="http://www.w3.org/2000/svg" version="1.1" viewBox="0.00 0.00 128.00 128.00" width="128" height="128">
<g stroke-width="2.00" fill="none" stroke-linecap="butt">
<path stroke="#eb2241" vector-effect="non-scaling-stroke" d="
  M 58.18 0.00
  C 61.36 3.73 64.87 7.70 67.00 11.85
  C 69.28 16.28 71.28 20.07 74.33 24.08"
/>
<path stroke="#f18e90" vector-effect="non-scaling-stroke" d="
  M 74.33 24.08
  L 25.11 24.06
  A 1.13 1.12 -0.0 0 0 23.98 25.18
  L 23.96 103.46"
/>
<path stroke="#e1292c" vector-effect="non-scaling-stroke" d="
  M 23.96 103.46
  Q 22.87 100.19 22.83 97.39
  Q 22.57 77.44 22.37 57.50
  A 1.35 1.34 24.7 0 0 22.04 56.62
  Q 12.82 45.81 0.00 39.55"
/>
<path stroke="#f33444" vector-effect="non-scaling-stroke" d="
  M 82.74 0.00
  Q 88.02 4.14 87.99 11.19
  Q 87.97 17.47 87.83 24.08"
/>
<path stroke="#f993b1" vector-effect="non-scaling-stroke" d="
  M 87.83 24.08
  L 74.33 24.08"
/>
<path stroke="#f45b1d" vector-effect="non-scaling-stroke" d="
  M 124.05 0.00
  Q 117.00 15.24 103.81 24.18"
/>
<path stroke="#f9a093" vector-effect="non-scaling-stroke" d="
  M 103.81 24.18
  L 87.83 24.08"
/>
<path stroke="#f57427" vector-effect="non-scaling-stroke" d="
  M 128.00 94.63
  C 121.66 93.73 116.46 90.22 111.23 85.98
  Q 101.99 78.50 99.64 67.28"
/>
<path stroke="#fbba89" vector-effect="non-scaling-stroke" d="
  M 99.64 67.28
  L 103.12 67.20
  A 0.85 0.85 0.0 0 0 103.95 66.35
  L 103.95 59.11
  A 0.90 0.90 0.0 0 0 103.07 58.21
  L 94.51 58.08"
/>
<path stroke="#f45845" vector-effect="non-scaling-stroke" d="
  M 94.51 58.08
  Q 92.48 54.33 93.75 50.20"
/>
<path stroke="#fbba89" vector-effect="non-scaling-stroke" d="
  M 93.75 50.20
  L 103.37 50.07
  A 0.58 0.58 0.0 0 0 103.94 49.49
  L 103.94 41.77
  A 0.58 0.58 0.0 0 0 103.37 41.19
  L 92.71 41.03"
/>
<path stroke="#f54e3b" vector-effect="non-scaling-stroke" d="
  M 92.71 41.03
  L 92.71 32.94"
/>
<path stroke="#fbba89" vector-effect="non-scaling-stroke" d="
  M 92.71 32.94
  L 103.07 32.87
  A 0.75 0.75 0.0 0 0 103.81 32.12
  L 103.81 24.18"
/>
<path stroke="#f993b1" vector-effect="non-scaling-stroke" d="
  M 92.71 32.94
  L 74.54 32.98"
/>
<path stroke="#f18e90" vector-effect="non-scaling-stroke" d="
  M 74.54 32.98
  L 34.58 32.87
  A 0.50 0.49 -90.0 0 0 34.09 33.37
  L 34.10 64.03"
/>
<path stroke="#f09b9c" vector-effect="non-scaling-stroke" d="
  M 34.10 64.03
  L 34.01 103.14
  A 0.69 0.68 -88.8 0 1 33.30 103.83
  L 23.96 103.46"
/>
<path stroke="#eb2241" vector-effect="non-scaling-stroke" d="
  M 74.54 32.98
  Q 74.61 34.23 75.09 35.18
  A 0.35 0.35 0.0 0 1 75.07 35.53
  Q 75.01 35.63 74.86 35.74
  A 0.43 0.42 -29.2 0 0 74.71 36.26
  L 76.81 41.08"
/>
<path stroke="#f18e90" vector-effect="non-scaling-stroke" d="
  M 76.81 41.08
  L 43.69 41.14
  A 0.62 0.62 0.0 0 0 43.07 41.76
  L 43.04 101.00"
/>
<path stroke="#e1292c" vector-effect="non-scaling-stroke" d="
  M 43.04 101.00
  Q 40.17 89.12 34.51 78.44
  A 2.14 2.10 -59.8 0 1 34.27 77.50
  L 34.10 64.03"
/>
<path stroke="#f993b1" vector-effect="non-scaling-stroke" d="
  M 92.71 41.03
  L 76.81 41.08"
/>
<path stroke="#f09b9c" vector-effect="non-scaling-stroke" d="
  M 43.04 101.00
  L 43.35 103.28
  A 0.64 0.64 0.0 0 0 43.96 103.84
  L 48.86 103.98"
/>
<path stroke="#e73c44" vector-effect="non-scaling-stroke" d="
  M 48.86 103.98
  Q 44.81 106.68 43.19 108.71
  Q 36.52 117.09 29.21 124.96
  A 2.32 2.19 -80.3 0 1 28.57 125.44
  L 26.14 126.66
  A 0.40 0.40 0.0 0 0 26.26 127.41
  L 29.89 128.00"
/>
<path stroke="#e7464c" vector-effect="non-scaling-stroke" d="
  M 0.00 103.33
  Q 10.06 92.03 13.13 76.59
  Q 16.87 57.86 0.00 51.94"
/>
<path stroke="#f99dbb" vector-effect="non-scaling-stroke" d="
  M 93.75 50.20
  L 76.95 50.12"
/>
<path stroke="#f18e90" vector-effect="non-scaling-stroke" d="
  M 76.95 50.12
  L 53.39 50.02
  A 0.29 0.29 0.0 0 0 53.09 50.31
  L 53.07 79.28"
/>
<path stroke="#f6a0a7" vector-effect="non-scaling-stroke" d="
  M 53.07 79.28
  L 52.99 103.25
  A 0.56 0.56 0.0 0 1 52.46 103.80
  L 48.86 103.98"
/>
<path stroke="#ea2b4b" vector-effect="non-scaling-stroke" d="
  M 76.95 50.12
  L 76.80 58.16"
/>
<path stroke="#f18e90" vector-effect="non-scaling-stroke" d="
  M 76.80 58.16
  L 62.85 58.26
  A 0.59 0.59 0.0 0 0 62.27 58.85
  L 62.08 86.99"
/>
<path stroke="#e82f38" vector-effect="non-scaling-stroke" d="
  M 62.08 86.99
  L 61.86 88.67
  A 0.26 0.25 -71.4 0 1 61.48 88.86
  L 53.75 84.40
  A 0.82 0.82 0.0 0 1 53.35 83.75
  L 53.07 79.28"
/>
<path stroke="#f99dbb" vector-effect="non-scaling-stroke" d="
  M 94.51 58.08
  L 76.80 58.16"
/>
<path stroke="#fab99d" vector-effect="non-scaling-stroke" d="
  M 99.64 67.28
  L 94.65 67.15"
/>
<path stroke="#f7aab0" vector-effect="non-scaling-stroke" d="
  M 94.65 67.15
  L 92.74 67.30"
/>
<path stroke="#f99dbb" vector-effect="non-scaling-stroke" d="
  M 92.74 67.30
  L 78.49 67.22"
/>
<path stroke="#f6a0a7" vector-effect="non-scaling-stroke" d="
  M 78.49 67.22
  L 72.83 67.13
  A 0.51 0.50 0.6 0 0 72.31 67.63
  L 72.31 103.34
  A 0.68 0.68 0.0 0 1 71.63 104.02
  L 62.90 104.02
  A 0.71 0.71 0.0 0 1 62.19 103.31
  L 62.08 86.99"
/>
<path stroke="#f03e63" vector-effect="non-scaling-stroke" d="
  M 78.49 67.22
  Q 78.86 74.44 78.50 81.49
  Q 78.34 84.48 79.56 88.10
  Q 84.16 101.73 97.45 106.59
  Q 105.33 109.47 115.08 113.36
  C 119.44 115.10 124.46 116.77 128.00 112.60"
/>
<path stroke="#e73c44" vector-effect="non-scaling-stroke" d="
  M 128.00 116.36
  C 120.51 118.39 112.88 116.63 103.73 115.23
  C 99.62 114.60 96.14 115.28 92.72 118.17
  C 85.79 124.03 78.77 127.36 69.01 127.19"
/>
<path stroke="#ee4b58" vector-effect="non-scaling-stroke" d="
  M 69.01 127.19
  C 72.45 120.41 73.69 111.64 65.90 108.26
  C 60.93 106.10 54.29 108.49 50.40 111.71
  Q 42.49 118.26 35.31 128.00"
/>
<path stroke="#f0486b" vector-effect="non-scaling-stroke" d="
  M 92.74 67.30
  Q 95.20 76.18 100.95 83.35
  C 106.70 90.51 116.17 94.25 123.40 98.86
  C 125.16 99.98 126.64 101.68 128.00 103.29"
/>
<path stroke="#f1644e" vector-effect="non-scaling-stroke" d="
  M 128.00 98.48
  Q 120.28 96.14 112.95 91.11
  Q 109.68 88.87 107.23 86.23
  Q 105.11 83.95 98.58 74.72
  A 1.98 1.88 -77.2 0 1 98.39 74.40
  L 94.65 67.15"
/>
<path stroke="#e7464c" vector-effect="non-scaling-stroke" d="
  M 69.01 127.19
  L 60.36 128.00"
/>
</g>
<path fill="#e21c20" d="
  M 58.18 0.00
  C 61.36 3.73 64.87 7.70 67.00 11.85
  C 69.28 16.28 71.28 20.07 74.33 24.08
  L 25.11 24.06
  A 1.13 1.12 -0.0 0 0 23.98 25.18
  L 23.96 103.46
  Q 22.87 100.19 22.83 97.39
  Q 22.57 77.44 22.37 57.50
  A 1.35 1.34 24.7 0 0 22.04 56.62
  Q 12.82 45.81 0.00 39.55
  L 0.00 0.00
  L 58.18 0.00
  Z"
/>
<path fill="#f32762" d="
  M 82.74 0.00
  Q 88.02 4.14 87.99 11.19
  Q 87.97 17.47 87.83 24.08
  L 74.33 24.08
  C 71.28 20.07 69.28 16.28 67.00 11.85
  C 64.87 7.70 61.36 3.73 58.18 0.00
  L 82.74 0.00
  Z"
/>
<path fill="#f24126" d="
  M 124.05 0.00
  Q 117.00 15.24 103.81 24.18
  L 87.83 24.08
  Q 87.97 17.47 87.99 11.19
  Q 88.02 4.14 82.74 0.00
  L 124.05 0.00
  Z"
/>
<path fill="#f67513" d="
  M 128.00 0.00
  L 128.00 94.63
  C 121.66 93.73 116.46 90.22 111.23 85.98
  Q 101.99 78.50 99.64 67.28
  L 103.12 67.20
  A 0.85 0.85 0.0 0 0 103.95 66.35
  L 103.95 59.11
  A 0.90 0.90 0.0 0 0 103.07 58.21
  L 94.51 58.08
  Q 92.48 54.33 93.75 50.20
  L 103.37 50.07
  A 0.58 0.58 0.0 0 0 103.94 49.49
  L 103.94 41.77
  A 0.58 0.58 0.0 0 0 103.37 41.19
  L 92.71 41.03
  L 92.71 32.94
  L 103.07 32.87
  A 0.75 0.75 0.0 0 0 103.81 32.12
  L 103.81 24.18
  Q 117.00 15.24 124.05 0.00
  L 128.00 0.00
  Z"
/>
<path fill="#ffffff" d="
  M 74.33 24.08
  L 87.83 24.08
  L 103.81 24.18
  L 103.81 32.12
  A 0.75 0.75 0.0 0 1 103.07 32.87
  L 92.71 32.94
  L 74.54 32.98
  L 34.58 32.87
  A 0.50 0.49 -90.0 0 0 34.09 33.37
  L 34.10 64.03
  L 34.01 103.14
  A 0.69 0.68 -88.8 0 1 33.30 103.83
  L 23.96 103.46
  L 23.98 25.18
  A 1.13 1.12 0.0 0 1 25.11 24.06
  L 74.33 24.08
  Z"
/>
<path fill="#e21c20" d="
  M 74.54 32.98
  Q 74.61 34.23 75.09 35.18
  A 0.35 0.35 0.0 0 1 75.07 35.53
  Q 75.01 35.63 74.86 35.74
  A 0.43 0.42 -29.2 0 0 74.71 36.26
  L 76.81 41.08
  L 43.69 41.14
  A 0.62 0.62 0.0 0 0 43.07 41.76
  L 43.04 101.00
  Q 40.17 89.12 34.51 78.44
  A 2.14 2.10 -59.8 0 1 34.27 77.50
  L 34.10 64.03
  L 34.09 33.37
  A 0.50 0.49 -90.0 0 1 34.58 32.87
  L 74.54 32.98
  Z"
/>
<path fill="#f32762" d="
  M 92.71 32.94
  L 92.71 41.03
  L 76.81 41.08
  L 74.71 36.26
  A 0.43 0.42 -29.2 0 1 74.86 35.74
  Q 75.01 35.63 75.07 35.53
  A 0.35 0.35 0.0 0 0 75.09 35.18
  Q 74.61 34.23 74.54 32.98
  L 92.71 32.94
  Z"
/>
<path fill="#e03638" d="
  M 23.96 103.46
  L 33.30 103.83
  A 0.69 0.68 -88.8 0 0 34.01 103.14
  L 34.10 64.03
  L 34.27 77.50
  A 2.14 2.10 -59.8 0 0 34.51 78.44
  Q 40.17 89.12 43.04 101.00
  L 43.35 103.28
  A 0.64 0.64 0.0 0 0 43.96 103.84
  L 48.86 103.98
  Q 44.81 106.68 43.19 108.71
  Q 36.52 117.09 29.21 124.96
  A 2.32 2.19 -80.3 0 1 28.57 125.44
  L 26.14 126.66
  A 0.40 0.40 0.0 0 0 26.26 127.41
  L 29.89 128.00
  L 0.00 128.00
  L 0.00 103.33
  Q 10.06 92.03 13.13 76.59
  Q 16.87 57.86 0.00 51.94
  L 0.00 39.55
  Q 12.82 45.81 22.04 56.62
  A 1.35 1.34 24.7 0 1 22.37 57.50
  Q 22.57 77.44 22.83 97.39
  Q 22.87 100.19 23.96 103.46
  Z"
/>
<path fill="#ffffff" d="
  M 76.81 41.08
  L 92.71 41.03
  L 103.37 41.19
  A 0.58 0.58 0.0 0 1 103.94 41.77
  L 103.94 49.49
  A 0.58 0.58 0.0 0 1 103.37 50.07
  L 93.75 50.20
  L 76.95 50.12
  L 53.39 50.02
  A 0.29 0.29 0.0 0 0 53.09 50.31
  L 53.07 79.28
  L 52.99 103.25
  A 0.56 0.56 0.0 0 1 52.46 103.80
  L 48.86 103.98
  L 43.96 103.84
  A 0.64 0.64 0.0 0 1 43.35 103.28
  L 43.04 101.00
  L 43.07 41.76
  A 0.62 0.62 0.0 0 1 43.69 41.14
  L 76.81 41.08
  Z"
/>
<path fill="#e21c20" d="
  M 76.95 50.12
  L 76.80 58.16
  L 62.85 58.26
  A 0.59 0.59 0.0 0 0 62.27 58.85
  L 62.08 86.99
  L 61.86 88.67
  A 0.26 0.25 -71.4 0 1 61.48 88.86
  L 53.75 84.40
  A 0.82 0.82 0.0 0 1 53.35 83.75
  L 53.07 79.28
  L 53.09 50.31
  A 0.29 0.29 0.0 0 1 53.39 50.02
  L 76.95 50.12
  Z"
/>
<path fill="#f23a76" d="
  M 93.75 50.20
  Q 92.48 54.33 94.51 58.08
  L 76.80 58.16
  L 76.95 50.12
  L 93.75 50.20
  Z"
/>
<path fill="#ee5560" d="
  M 0.00 103.33
  L 0.00 51.94
  Q 16.87 57.86 13.13 76.59
  Q 10.06 92.03 0.00 103.33
  Z"
/>
<path fill="#ffffff" d="
  M 94.51 58.08
  L 103.07 58.21
  A 0.90 0.90 0.0 0 1 103.95 59.11
  L 103.95 66.35
  A 0.85 0.85 0.0 0 1 103.12 67.20
  L 99.64 67.28
  L 94.65 67.15
  L 92.74 67.30
  L 78.49 67.22
  L 72.83 67.13
  A 0.51 0.50 0.6 0 0 72.31 67.63
  L 72.31 103.34
  A 0.68 0.68 0.0 0 1 71.63 104.02
  L 62.90 104.02
  A 0.71 0.71 0.0 0 1 62.19 103.31
  L 62.08 86.99
  L 62.27 58.85
  A 0.59 0.59 0.0 0 1 62.85 58.26
  L 76.80 58.16
  L 94.51 58.08
  Z"
/>
<path fill="#ed414f" d="
  M 78.49 67.22
  Q 78.86 74.44 78.50 81.49
  Q 78.34 84.48 79.56 88.10
  Q 84.16 101.73 97.45 106.59
  Q 105.33 109.47 115.08 113.36
  C 119.44 115.10 124.46 116.77 128.00 112.60
  L 128.00 116.36
  C 120.51 118.39 112.88 116.63 103.73 115.23
  C 99.62 114.60 96.14 115.28 92.72 118.17
  C 85.79 124.03 78.77 127.36 69.01 127.19
  C 72.45 120.41 73.69 111.64 65.90 108.26
  C 60.93 106.10 54.29 108.49 50.40 111.71
  Q 42.49 118.26 35.31 128.00
  L 29.89 128.00
  L 26.26 127.41
  A 0.40 0.40 0.0 0 1 26.14 126.66
  L 28.57 125.44
  A 2.32 2.19 -80.3 0 0 29.21 124.96
  Q 36.52 117.09 43.19 108.71
  Q 44.81 106.68 48.86 103.98
  L 52.46 103.80
  A 0.56 0.56 0.0 0 0 52.99 103.25
  L 53.07 79.28
  L 53.35 83.75
  A 0.82 0.82 0.0 0 0 53.75 84.40
  L 61.48 88.86
  A 0.26 0.25 -71.4 0 0 61.86 88.67
  L 62.08 86.99
  L 62.19 103.31
  A 0.71 0.71 0.0 0 0 62.90 104.02
  L 71.63 104.02
  A 0.68 0.68 0.0 0 0 72.31 103.34
  L 72.31 67.63
  A 0.51 0.50 0.6 0 1 72.83 67.13
  L 78.49 67.22
  Z"
/>
<path fill="#f23a76" d="
  M 92.74 67.30
  Q 95.20 76.18 100.95 83.35
  C 106.70 90.51 116.17 94.25 123.40 98.86
  C 125.16 99.98 126.64 101.68 128.00 103.29
  L 128.00 112.60
  C 124.46 116.77 119.44 115.10 115.08 113.36
  Q 105.33 109.47 97.45 106.59
  Q 84.16 101.73 79.56 88.10
  Q 78.34 84.48 78.50 81.49
  Q 78.86 74.44 78.49 67.22
  L 92.74 67.30
  Z"
/>
<path fill="#f4733b" d="
  M 99.64 67.28
  Q 101.99 78.50 111.23 85.98
  C 116.46 90.22 121.66 93.73 128.00 94.63
  L 128.00 98.48
  Q 120.28 96.14 112.95 91.11
  Q 109.68 88.87 107.23 86.23
  Q 105.11 83.95 98.58 74.72
  A 1.98 1.88 -77.2 0 1 98.39 74.40
  L 94.65 67.15
  L 99.64 67.28
  Z"
/>
<path fill="#ee5560" d="
  M 94.65 67.15
  L 98.39 74.40
  A 1.98 1.88 -77.2 0 0 98.58 74.72
  Q 105.11 83.95 107.23 86.23
  Q 109.68 88.87 112.95 91.11
  Q 120.28 96.14 128.00 98.48
  L 128.00 103.29
  C 126.64 101.68 125.16 99.98 123.40 98.86
  C 116.17 94.25 106.70 90.51 100.95 83.35
  Q 95.20 76.18 92.74 67.30
  L 94.65 67.15
  Z"
/>
<path fill="#ee5560" d="
  M 69.01 127.19
  L 60.36 128.00
  L 35.31 128.00
  Q 42.49 118.26 50.40 111.71
  C 54.29 108.49 60.93 106.10 65.90 108.26
  C 73.69 111.64 72.45 120.41 69.01 127.19
  Z"
/>
<path fill="#e03638" d="
  M 128.00 116.36
  L 128.00 128.00
  L 60.36 128.00
  L 69.01 127.19
  C 78.77 127.36 85.79 124.03 92.72 118.17
  C 96.14 115.28 99.62 114.60 103.73 115.23
  C 112.88 116.63 120.51 118.39 128.00 116.36
  Z"
/>
</svg>