<?xml version="1.0" encoding="UTF-8" standalone="no"?>
<!DOCTYPE svg PUBLIC "-//W3C//DTD SVG 1.1//EN" "http://www.w3.org/Graphics/SVG/1.1/DTD/svg11.dtd">
<svg xmlns="http://www.w3.org/2000/svg" version="1.1" viewBox="0.00 0.00 180.00 180.00" width="128" height="128">
<g stroke-width="2.00" fill="none" stroke-linecap="butt">
<path stroke="#a2c5ff" vector-effect="non-scaling-stroke" d="
  M 123.9256 61.3197
  A 6.90 6.90 0.0 0 0 122.9734 51.6082
  L 122.7416 51.4178
  A 6.90 6.90 0.0 0 0 113.0301 52.3700
  L 88.0344 82.8003
  A 6.90 6.90 0.0 0 0 88.9866 92.5118
  L 89.2184 92.7022
  A 6.90 6.90 0.0 0 0 98.9299 91.7500
  L 123.9256 61.3197"
/>
<path stroke="#a2c5ff" vector-effect="non-scaling-stroke" d="
  M 92.69 111.82
  Q 88.92 107.19 70.16 84.26
  Q 67.83 81.41 66.57 80.66
  C 59.53 76.46 52.92 85.33 57.60 91.15
  Q 65.51 101.00 85.32 124.96
  Q 87.80 127.96 89.63 129.06
  C 94.93 132.25 98.07 128.30 101.79 123.75
  Q 146.39 69.27 151.49 63.02
  C 156.15 57.31 149.43 48.94 142.85 52.04
  Q 141.24 52.79 137.49 57.39
  Q 109.55 91.61 93.20 111.81
  A 0.33 0.32 -45.1 0 1 92.69 111.82"
/>
<path stroke="#a2c5ff" vector-effect="non-scaling-stroke" d="
  M 39.6408 82.0339
  A 6.88 6.88 0.0 0 0 29.9608 81.0507
  L 29.7438 81.2276
  A 6.88 6.88 0.0 0 0 28.7606 90.9076
  L 57.8592 126.5861
  A 6.88 6.88 0.0 0 0 67.5392 127.5693
  L 67.7562 127.3924
  A 6.88 6.88 0.0 0 0 68.7394 117.7124
  L 39.6408 82.0339"
/>
</g>
<path fill="#ffffff" d="
  M 180.00 0.00
  L 180.00 180.00
  L 0.00 180.00
  L 0.00 0.00
  L 180.00 0.00
  Z
  M 123.9256 61.3197
  A 6.90 6.90 0.0 0 0 122.9734 51.6082
  L 122.7416 51.4178
  A 6.90 6.90 0.0 0 0 113.0301 52.3700
  L 88.0344 82.8003
  A 6.90 6.90 0.0 0 0 88.9866 92.5118
  L 89.2184 92.7022
  A 6.90 6.90 0.0 0 0 98.9299 91.7500
  L 123.9256 61.3197
  Z
  M 92.69 111.82
  Q 88.92 107.19 70.16 84.26
  Q 67.83 81.41 66.57 80.66
  C 59.53 76.46 52.92 85.33 57.60 91.15
  Q 65.51 101.00 85.32 124.96
  Q 87.80 127.96 89.63 129.06
  C 94.93 132.25 98.07 128.30 101.79 123.75
  Q 146.39 69.27 151.49 63.02
  C 156.15 57.31 149.43 48.94 142.85 52.04
  Q 141.24 52.79 137.49 57.39
  Q 109.55 91.61 93.20 111.81
  A 0.33 0.32 -45.1 0 1 92.69 111.82
  Z
  M 39.6408 82.0339
  A 6.88 6.88 0.0 0 0 29.9608 81.0507
  L 29.7438 81.2276
  A 6.88 6.88 0.0 0 0 28.7606 90.9076
  L 57.8592 126.5861
  A 6.88 6.88 0.0 0 0 67.5392 127.5693
  L 67.7562 127.3924
  A 6.88 6.88 0.0 0 0 68.7394 117.7124
  L 39.6408 82.0339
  Z"
/>
<rect fill="#448aff" x="-7.05" y="-26.59" transform="translate(105.98,72.06) rotate(39.4)" width="14.10" height="53.18" rx="6.90"/>
<path fill="#448aff" d="
  M 92.69 111.82
  A 0.33 0.32 -45.1 0 0 93.20 111.81
  Q 109.55 91.61 137.49 57.39
  Q 141.24 52.79 142.85 52.04
  C 149.43 48.94 156.15 57.31 151.49 63.02
  Q 146.39 69.27 101.79 123.75
  C 98.07 128.30 94.93 132.25 89.63 129.06
  Q 87.80 127.96 85.32 124.96
  Q 65.51 101.00 57.60 91.15
  C 52.92 85.33 59.53 76.46 66.57 80.66
  Q 67.83 81.41 70.16 84.26
  Q 88.92 107.19 92.69 111.82
  Z"
/>
<rect fill="#448aff" x="-7.02" y="-29.90" transform="translate(48.75,104.31) rotate(-39.2)" width="14.04" height="59.80" rx="6.88"/>
</svg>