<?xml version="1.0" encoding="UTF-8" standalone="no"?>
<!DOCTYPE svg PUBLIC "-//W3C//DTD SVG 1.1//EN" "http://www.w3.org/Graphics/SVG/1.1/DTD/svg11.dtd">
<svg xmlns="http://www.w3.org/2000/svg" version="1.1" viewBox="0.00 0.00 256.00 256.00" width="128" height="128">
<path fill="#4e6994" d="
  M 209.30 120.04
  A 5.42 5.37 -22.1 0 0 207.97 123.15
  C 207.23 131.40 207.20 136.68 205.84 143.85
  C 199.63 176.75 175.70 204.05 144.22 214.52
  C 117.46 223.42 88.31 219.33 64.96 203.75
  Q 41.05 187.80 29.88 159.88
  Q 28.59 156.66 26.22 155.08
  Q 23.52 153.29 23.01 152.62
  A 2.80 2.77 22.2 0 1 22.50 151.42
  Q 21.42 145.16 22.34 138.46
  Q 23.44 130.52 23.46 129.09
  C 23.53 123.43 23.72 116.51 24.81 110.21
  Q 30.24 78.69 53.77 56.80
  Q 55.77 54.94 61.73 50.38
  C 92.20 27.12 134.82 26.77 166.20 48.08
  Q 171.15 51.44 177.65 56.99
  C 179.72 58.75 181.35 61.20 183.73 62.87
  A 2.90 2.90 0.0 0 0 186.92 62.97
  C 196.15 57.34 208.92 53.65 219.51 57.20
  C 227.64 59.93 233.70 66.69 234.87 74.86
  C 236.31 84.95 231.99 95.97 225.60 104.00
  C 221.12 109.62 213.81 114.95 209.30 120.04
  Z
  M 34.65 117.75
  A 1.35 1.17 -35.1 0 0 36.49 117.94
  Q 38.86 116.15 40.75 113.50
  Q 44.28 108.55 47.72 103.59
  C 51.60 98.00 57.17 92.71 62.62 88.88
  Q 70.43 83.39 71.61 81.85
  C 77.53 74.10 81.53 68.09 89.74 66.85
  Q 91.59 66.57 94.29 68.16
  A 1.83 1.74 3.8 0 1 94.99 68.92
  Q 97.78 74.86 97.05 81.75
  A 3.58 3.57 22.3 0 0 98.38 84.91
  C 106.63 91.47 110.31 101.04 111.30 111.78
  Q 112.33 122.86 111.35 128.02
  C 110.85 130.69 110.48 140.71 116.11 138.10
  Q 118.00 137.22 122.45 133.95
  Q 140.67 120.55 156.14 108.35
  C 157.57 107.22 159.82 106.10 161.15 104.55
  A 3.60 3.47 76.3 0 0 161.78 103.47
  C 162.94 100.23 163.09 95.87 163.87 92.94
  Q 166.81 81.79 175.19 72.46
  A 1.29 1.29 0.0 0 0 175.25 70.81
  C 169.82 63.65 162.11 58.14 153.68 53.41
  Q 128.39 39.21 99.30 44.90
  Q 85.30 47.64 74.06 54.63
  Q 40.55 75.48 34.33 116.24
  Q 34.20 117.07 34.65 117.75
  Z
  M 210.1553 77.8664
  A 18.69 13.24 -40.2 0 0 187.3341 79.8173
  A 18.69 13.24 -40.2 0 0 181.6047 101.9936
  A 18.69 13.24 -40.2 0 0 204.4259 100.0427
  A 18.69 13.24 -40.2 0 0 210.1553 77.8664
  Z
  M 86.1890 79.1077
  A 10.27 5.42 -61.0 0 0 76.4696 85.4623
  A 10.27 5.42 -61.0 0 0 76.2310 97.0723
  A 10.27 5.42 -61.0 0 0 85.9504 90.7177
  A 10.27 5.42 -61.0 0 0 86.1890 79.1077
  Z
  M 88.51 99.47
  Q 84.12 106.80 75.07 109.56
  A 3.71 3.70 -37.8 0 1 72.08 109.19
  Q 67.57 106.45 66.79 101.55
  C 66.45 99.47 65.88 97.58 63.48 98.71
  C 61.84 99.49 60.05 100.53 58.54 101.87
  C 52.79 106.95 46.86 113.59 44.07 120.87
  A 7.37 7.28 -33.0 0 0 43.59 123.06
  C 43.17 129.52 43.36 136.91 40.09 141.90
  C 37.38 146.04 37.25 148.18 38.89 152.60
  C 52.18 188.53 86.50 211.06 124.85 206.34
  C 165.83 201.29 195.33 166.37 195.83 125.59
  A 1.53 1.53 0.0 0 0 194.08 124.06
  Q 182.64 125.73 172.87 121.16
  A 1.77 1.74 -9.9 0 1 172.42 120.85
  L 170.65 119.15
  A 0.96 0.95 -42.0 0 0 169.41 119.09
  Q 164.35 122.97 159.12 126.62
  Q 145.35 136.22 123.46 151.81
  C 121.50 153.20 120.56 154.89 120.15 156.93
  C 118.22 166.56 115.81 175.14 109.17 182.14
  C 105.58 185.93 98.20 191.02 92.45 189.71
  C 82.74 187.52 80.10 180.30 78.88 171.06
  C 78.18 165.73 80.56 157.31 82.41 152.90
  C 84.68 147.51 88.80 141.76 94.41 138.07
  Q 98.28 135.51 98.80 130.29
  C 99.75 120.76 99.32 103.61 89.42 99.19
  A 0.72 0.70 27.3 0 0 88.51 99.47
  Z
  M 30.58 144.83
  C 32.67 144.33 34.00 140.86 35.35 139.17
  C 37.69 136.24 38.25 132.31 36.69 129.36
  A 1.34 1.31 83.2 0 0 35.88 128.71
  Q 33.28 127.98 32.23 129.75
  Q 29.22 134.82 27.84 135.77
  A 1.73 1.71 81.0 0 0 27.16 136.72
  Q 26.12 140.39 27.93 143.61
  A 2.49 2.36 68.2 0 0 30.58 144.83
  Z
  M 103.1091 148.7253
  A 13.43 8.60 -69.2 0 0 90.3005 158.2261
  A 13.43 8.60 -69.2 0 0 93.5709 173.8347
  A 13.43 8.60 -69.2 0 0 106.3795 164.3339
  A 13.43 8.60 -69.2 0 0 103.1091 148.7253
  Z"
/>
</svg>