<?xml version="1.0" encoding="UTF-8" standalone="no"?>
<!DOCTYPE svg PUBLIC "-//W3C//DTD SVG 1.1//EN" "http://www.w3.org/Graphics/SVG/1.1/DTD/svg11.dtd">
<svg xmlns="http://www.w3.org/2000/svg" version="1.1" viewBox="0.00 0.00 256.00 256.00" width="128" height="128">
<path fill="#00122e" d="
  M 95.96 0.00
  Q 103.39 0.91 108.61 5.14
  C 123.50 17.19 119.31 40.72 101.14 46.64
  C 79.58 53.67 61.48 29.61 73.80 10.81
  Q 79.74 1.74 91.39 0.00
  L 95.96 0.00
  Z"
/>
<path fill="#00122e" d="
  M 164.45 0.00
  C 176.32 1.88 184.26 9.36 186.01 21.24
  C 186.97 27.76 184.31 35.46 179.66 40.30
  C 169.43 50.93 152.59 50.38 143.29 38.46
  C 131.66 23.55 141.23 2.78 159.51 0.00
  L 164.45 0.00
  Z"
/>
<path fill="#00122e" d="
  M 0.00 96.52
  L 0.00 91.52
  Q 1.03 83.76 5.73 78.25
  C 17.10 64.91 37.95 68.01 45.51 83.46
  C 51.96 96.62 44.68 113.26 29.86 116.89
  C 15.52 120.40 2.28 111.13 0.00 96.52
  Z"
/>
<path fill="#00122e" d="
  M 256.00 91.39
  L 256.00 95.94
  Q 255.09 103.38 250.86 108.61
  C 238.82 123.50 215.43 119.32 209.38 101.24
  C 202.09 79.48 226.86 61.17 245.67 74.12
  Q 254.32 80.08 256.00 91.39
  Z"
/>
<path fill="#00122e" d="
  M 0.00 164.61
  L 0.00 160.04
  C 2.02 143.60 18.82 133.41 34.10 140.63
  C 54.03 150.05 51.77 179.32 30.26 185.29
  C 23.59 187.14 16.60 186.01 10.73 182.14
  Q 1.73 176.21 0.00 164.61
  Z"
/>
<path fill="#00122e" d="
  M 256.00 159.48
  L 256.00 164.48
  Q 254.02 177.28 243.91 182.98
  C 228.86 191.47 210.78 182.11 208.36 165.36
  Q 206.99 155.87 213.27 147.47
  C 221.15 136.94 236.67 135.44 246.86 143.40
  Q 254.42 149.31 256.00 159.48
  Z"
/>
<path fill="#00122e" d="
  M 96.49 256.00
  L 91.54 256.00
  Q 79.18 254.09 73.46 244.68
  C 61.75 225.38 79.97 202.68 101.36 209.37
  C 109.59 211.95 116.16 219.66 117.37 228.50
  C 119.25 242.30 110.16 253.83 96.49 256.00
  Z"
/>
<path fill="#00122e" d="
  M 164.59 256.00
  L 160.02 256.00
  Q 149.39 254.49 143.41 246.81
  C 133.12 233.59 139.09 214.85 154.57 209.41
  C 167.99 204.69 182.67 213.19 185.58 226.91
  C 188.62 241.21 178.87 254.14 164.59 256.00
  Z"
/>
</svg>