<?xml version="1.0" encoding="UTF-8" standalone="no"?>
<!DOCTYPE svg PUBLIC "-//W3C//DTD SVG 1.1//EN" "http://www.w3.org/Graphics/SVG/1.1/DTD/svg11.dtd">
<svg xmlns="http://www.w3.org/2000/svg" version="1.1" viewBox="0.00 0.00 256.00 256.00" width="128" height="128">
<path fill="#000000" d="
  M 132.62 0.00
  C 179.29 2.07 220.24 28.05 241.83 69.43
  Q 254.24 93.21 256.00 121.53
  L 256.00 134.14
  L 255.04 144.13
  A 0.81 0.80 -87.2 0 1 254.24 144.86
  Q 140.20 144.91 128.50 144.83
  Q 121.71 144.79 117.08 139.73
  C 110.20 132.23 111.70 120.70 120.20 115.27
  C 129.11 109.58 140.63 113.72 144.13 123.57
  C 144.64 125.01 144.63 126.28 144.96 127.54
  A 0.80 0.78 82.3 0 0 145.72 128.13
  L 174.47 128.13
  A 0.78 0.77 -1.7 0 0 175.25 127.31
  Q 174.25 111.22 165.16 99.95
  Q 155.54 88.03 140.92 83.98
  C 111.44 75.80 81.75 98.90 82.53 129.74
  C 83.06 150.96 97.39 168.65 117.58 173.79
  Q 123.00 175.17 132.60 175.16
  Q 185.57 175.10 246.65 175.13
  A 0.24 0.24 0.0 0 1 246.87 175.45
  Q 243.60 183.96 238.92 191.80
  A 0.94 0.93 15.0 0 1 238.11 192.26
  Q 208.91 192.20 135.97 192.30
  Q 121.82 192.32 115.24 190.85
  C 71.18 180.96 50.51 129.22 77.13 91.98
  C 99.98 60.01 145.66 56.24 173.42 83.60
  C 185.55 95.56 192.15 111.40 192.37 128.39
  A 0.38 0.38 0.0 0 0 192.75 128.76
  L 222.02 128.76
  A 0.68 0.67 89.2 0 0 222.69 128.06
  Q 221.47 90.51 197.03 64.53
  C 164.89 30.36 112.09 25.27 74.05 52.78
  Q 49.60 70.47 39.85 99.54
  C 25.64 141.89 44.33 189.32 83.32 210.64
  Q 104.70 222.34 127.26 222.42
  Q 151.40 222.51 213.78 222.49
  A 0.24 0.24 0.0 0 1 213.94 222.91
  Q 180.08 253.02 134.48 256.00
  L 123.51 256.00
  Q 89.65 254.50 62.62 238.14
  Q 13.62 208.49 1.91 150.76
  Q 1.23 147.42 0.00 134.35
  L 0.00 123.38
  C 1.91 80.14 24.67 41.10 61.26 18.75
  Q 88.67 2.01 121.66 0.00
  L 132.62 0.00
  Z"
/>
</svg>