<?xml version="1.0" encoding="UTF-8" standalone="no"?>
<!DOCTYPE svg PUBLIC "-//W3C//DTD SVG 1.1//EN" "http://www.w3.org/Graphics/SVG/1.1/DTD/svg11.dtd">
<svg xmlns="http://www.w3.org/2000/svg" version="1.1" viewBox="0.00 0.00 255.00 255.00" width="128" height="128">
<path stroke="#c692f6" stroke-width="2.00" fill="none" stroke-linecap="butt" vector-effect="non-scaling-stroke" d="
  M 134.66 98.60
  L 170.36 95.49
  A 0.65 0.65 0.0 0 0 170.96 94.84
  Q 171.03 89.03 171.03 80.96
  Q 171.02 71.88 169.50 66.67
  C 164.90 50.94 150.54 39.49 133.96 38.83
  C 109.61 37.85 87.66 54.71 83.83 78.96
  Q 83.11 83.53 83.48 92.03
  C 83.70 97.33 83.25 109.43 84.64 116.80
  C 87.31 131.03 96.34 142.17 110.90 144.35
  C 116.42 145.18 124.18 143.57 129.22 143.55
  C 133.18 143.53 134.23 146.12 134.22 149.98
  Q 134.17 163.13 133.80 169.00
  C 133.50 173.67 133.18 179.31 128.07 180.21
  C 123.78 180.96 120.64 178.04 120.65 173.75
  Q 120.67 165.27 120.64 154.20
  A 0.67 0.67 0.0 0 0 119.91 153.53
  L 83.74 156.68
  A 0.44 0.44 0.0 0 0 83.34 157.12
  Q 83.36 169.42 83.32 171.88
  Q 83.14 180.96 84.55 186.51
  C 88.78 203.24 104.05 215.15 121.52 215.51
  C 143.44 215.97 162.65 202.29 169.22 181.34
  Q 171.08 175.41 171.04 164.03
  C 170.99 149.56 171.83 138.88 166.57 126.95
  C 161.91 116.41 152.30 107.81 140.50 107.57
  Q 137.68 107.51 128.32 108.51
  C 123.88 108.99 120.45 108.39 120.50 103.29
  Q 120.67 85.63 120.65 82.04
  C 120.63 78.83 121.53 76.64 123.96 74.97
  C 127.18 72.75 131.32 73.56 133.25 76.98
  Q 134.02 78.36 133.98 81.48
  Q 133.81 92.12 133.98 97.99
  A 0.63 0.63 0.0 0 0 134.66 98.60"
/>
<path fill="#8c24ec" d="
  M 131.36 0.00
  C 205.33 3.08 261.54 66.98 253.51 141.02
  C 246.32 207.36 188.65 257.00 121.66 254.17
  C 85.64 252.66 51.72 235.60 28.89 207.85
  Q 2.29 175.50 0.00 132.34
  L 0.00 122.03
  C 3.48 54.82 55.97 3.01 122.68 0.00
  L 131.36 0.00
  Z
  M 134.66 98.60
  L 170.36 95.49
  A 0.65 0.65 0.0 0 0 170.96 94.84
  Q 171.03 89.03 171.03 80.96
  Q 171.02 71.88 169.50 66.67
  C 164.90 50.94 150.54 39.49 133.96 38.83
  C 109.61 37.85 87.66 54.71 83.83 78.96
  Q 83.11 83.53 83.48 92.03
  C 83.70 97.33 83.25 109.43 84.64 116.80
  C 87.31 131.03 96.34 142.17 110.90 144.35
  C 116.42 145.18 124.18 143.57 129.22 143.55
  C 133.18 143.53 134.23 146.12 134.22 149.98
  Q 134.17 163.13 133.80 169.00
  C 133.50 173.67 133.18 179.31 128.07 180.21
  C 123.78 180.96 120.64 178.04 120.65 173.75
  Q 120.67 165.27 120.64 154.20
  A 0.67 0.67 0.0 0 0 119.91 153.53
  L 83.74 156.68
  A 0.44 0.44 0.0 0 0 83.34 157.12
  Q 83.36 169.42 83.32 171.88
  Q 83.14 180.96 84.55 186.51
  C 88.78 203.24 104.05 215.15 121.52 215.51
  C 143.44 215.97 162.65 202.29 169.22 181.34
  Q 171.08 175.41 171.04 164.03
  C 170.99 149.56 171.83 138.88 166.57 126.95
  C 161.91 116.41 152.30 107.81 140.50 107.57
  Q 137.68 107.51 128.32 108.51
  C 123.88 108.99 120.45 108.39 120.50 103.29
  Q 120.67 85.63 120.65 82.04
  C 120.63 78.83 121.53 76.64 123.96 74.97
  C 127.18 72.75 131.32 73.56 133.25 76.98
  Q 134.02 78.36 133.98 81.48
  Q 133.81 92.12 133.98 97.99
  A 0.63 0.63 0.0 0 0 134.66 98.60
  Z"
/>
<path fill="#ffffff" d="
  M 133.98 97.99
  Q 133.81 92.12 133.98 81.48
  Q 134.02 78.36 133.25 76.98
  C 131.32 73.56 127.18 72.75 123.96 74.97
  C 121.53 76.64 120.63 78.83 120.65 82.04
  Q 120.67 85.63 120.50 103.29
  C 120.45 108.39 123.88 108.99 128.32 108.51
  Q 137.68 107.51 140.50 107.57
  C 152.30 107.81 161.91 116.41 166.57 126.95
  C 171.83 138.88 170.99 149.56 171.04 164.03
  Q 171.08 175.41 169.22 181.34
  C 162.65 202.29 143.44 215.97 121.52 215.51
  C 104.05 215.15 88.78 203.24 84.55 186.51
  Q 83.14 180.96 83.32 171.88
  Q 83.36 169.42 83.34 157.12
  A 0.44 0.44 0.0 0 1 83.74 156.68
  L 119.91 153.53
  A 0.67 0.67 0.0 0 1 120.64 154.20
  Q 120.67 165.27 120.65 173.75
  C 120.64 178.04 123.78 180.96 128.07 180.21
  C 133.18 179.31 133.50 173.67 133.80 169.00
  Q 134.17 163.13 134.22 149.98
  C 134.23 146.12 133.18 143.53 129.22 143.55
  C 124.18 143.57 116.42 145.18 110.90 144.35
  C 96.34 142.17 87.31 131.03 84.64 116.80
  C 83.25 109.43 83.70 97.33 83.48 92.03
  Q 83.11 83.53 83.83 78.96
  C 87.66 54.71 109.61 37.85 133.96 38.83
  C 150.54 39.49 164.90 50.94 169.50 66.67
  Q 171.02 71.88 171.03 80.96
  Q 171.03 89.03 170.96 94.84
  A 0.65 0.65 0.0 0 1 170.36 95.49
  L 134.66 98.60
  A 0.63 0.63 0.0 0 1 133.98 97.99
  Z"
/>
</svg>