<?xml version="1.0" encoding="UTF-8" standalone="no"?>
<!DOCTYPE svg PUBLIC "-//W3C//DTD SVG 1.1//EN" "http://www.w3.org/Graphics/SVG/1.1/DTD/svg11.dtd">
<svg xmlns="http://www.w3.org/2000/svg" version="1.1" viewBox="0.00 0.00 192.00 192.00" width="128" height="128">
<path fill="#c12f93" d="
  M 113.65 60.32
  Q 113.42 60.45 96.34 60.52
  Q 79.27 60.58 79.03 60.45
  Q 78.75 60.29 70.15 45.53
  Q 61.56 30.77 61.56 30.50
  Q 61.56 30.17 70.04 15.35
  Q 78.52 0.53 78.76 0.39
  Q 79.04 0.23 96.11 0.17
  Q 113.19 0.10 113.43 0.24
  Q 113.71 0.40 122.30 15.16
  Q 130.90 29.91 130.90 30.18
  Q 130.90 30.51 122.42 45.33
  Q 113.94 60.15 113.65 60.32
  Z"
/>
<path fill="#c12f93" d="
  M 56.97 93.28
  Q 56.73 93.42 39.67 93.48
  Q 22.60 93.55 22.37 93.42
  Q 22.08 93.25 13.50 78.51
  Q 4.91 63.76 4.90 63.49
  Q 4.90 63.16 13.38 48.35
  Q 21.86 33.54 22.09 33.40
  Q 22.37 33.24 39.44 33.17
  Q 56.50 33.11 56.74 33.24
  Q 57.02 33.40 65.61 48.15
  Q 74.20 62.90 74.20 63.17
  Q 74.20 63.50 65.73 78.31
  Q 57.25 93.12 56.97 93.28
  Z"
/>
<path fill="#c12f93" d="
  M 169.87 93.28
  Q 169.64 93.41 152.57 93.47
  Q 135.49 93.53 135.25 93.39
  Q 134.97 93.23 126.39 78.47
  Q 117.80 63.72 117.80 63.44
  Q 117.80 63.12 126.28 48.30
  Q 134.77 33.49 135.01 33.35
  Q 135.29 33.19 152.36 33.13
  Q 169.44 33.07 169.67 33.21
  Q 169.95 33.37 178.54 48.13
  Q 187.13 62.89 187.13 63.16
  Q 187.13 63.48 178.64 78.30
  Q 170.16 93.11 169.87 93.28
  Z"
/>
<path fill="#c12f93" d="
  M 113.63 126.06
  Q 113.40 126.19 96.32 126.26
  Q 79.25 126.32 79.01 126.18
  Q 78.73 126.02 70.14 111.26
  Q 61.55 96.51 61.55 96.24
  Q 61.55 95.91 70.03 81.09
  Q 78.51 66.27 78.75 66.14
  Q 79.03 65.97 96.10 65.91
  Q 113.18 65.85 113.42 65.99
  Q 113.70 66.15 122.29 80.90
  Q 130.88 95.66 130.88 95.93
  Q 130.88 96.26 122.40 111.07
  Q 113.91 125.89 113.63 126.06
  Z"
/>
<path fill="#c12f93" d="
  M 39.44 98.92
  Q 56.51 98.86 56.75 98.99
  Q 57.03 99.15 65.62 113.91
  Q 74.20 128.66 74.21 128.93
  Q 74.21 129.26 65.72 144.07
  Q 57.24 158.89 57.01 159.03
  Q 56.72 159.19 39.65 159.25
  Q 22.58 159.31 22.35 159.18
  Q 22.06 159.01 13.48 144.26
  Q 4.89 129.51 4.89 129.23
  Q 4.89 128.91 13.37 114.09
  Q 21.85 99.28 22.13 99.12
  Q 22.37 98.98 39.44 98.92
  Z"
/>
<path fill="#c12f93" d="
  M 169.88 159.03
  Q 169.65 159.17 152.57 159.23
  Q 135.50 159.30 135.27 159.16
  Q 134.98 159.00 126.39 144.25
  Q 117.80 129.49 117.80 129.22
  Q 117.80 128.90 126.28 114.08
  Q 134.76 99.26 134.99 99.12
  Q 135.28 98.96 152.35 98.90
  Q 169.42 98.83 169.66 98.97
  Q 169.94 99.13 178.53 113.88
  Q 187.12 128.64 187.12 128.91
  Q 187.13 129.23 178.64 144.05
  Q 170.16 158.87 169.88 159.03
  Z"
/>
<path fill="#c12f93" d="
  M 113.62 192.00
  L 78.83 192.00
  L 61.60 162.34
  A 0.93 0.92 44.7 0 1 61.59 161.42
  L 78.41 132.29
  A 1.22 1.21 15.0 0 1 79.46 131.69
  L 112.94 131.69
  A 1.17 1.15 -14.5 0 1 113.95 132.27
  L 130.69 161.25
  A 1.16 1.15 45.4 0 1 130.69 162.40
  L 113.62 192.00
  Z"
/>
</svg>