<?xml version="1.0" encoding="UTF-8" standalone="no"?>
<!DOCTYPE svg PUBLIC "-//W3C//DTD SVG 1.1//EN" "http://www.w3.org/Graphics/SVG/1.1/DTD/svg11.dtd">
<svg xmlns="http://www.w3.org/2000/svg" version="1.1" viewBox="0.00 0.00 256.00 256.00" width="128" height="128">
<g stroke-width="2.00" fill="none" stroke-linecap="butt">
<path stroke="#848484" vector-effect="non-scaling-stroke" d="
  M 173.75 189.30
  Q 172.97 186.05 171.08 183.15
  Q 162.86 170.51 146.99 145.24
  A 2.10 2.10 0.0 0 1 147.98 142.18
  Q 166.37 134.67 170.67 113.95
  C 173.95 98.11 166.33 81.71 153.42 72.71
  C 147.51 68.59 141.74 67.09 134.51 67.03
  Q 97.77 66.72 84.26 67.34
  Q 81.88 67.45 81.89 70.24
  Q 81.96 119.90 81.93 186.77
  Q 81.92 189.82 84.60 190.00
  Q 90.75 190.40 95.44 190.12
  A 1.89 1.89 0.0 0 0 97.21 188.23
  L 97.21 147.99
  A 2.13 2.13 0.0 0 1 99.36 145.86
  Q 110.53 145.93 124.50 145.69
  C 127.92 145.63 129.90 146.27 131.81 149.15
  C 140.79 162.73 148.72 175.71 154.79 185.70
  C 156.64 188.75 157.83 190.07 161.37 190.14
  Q 168.45 190.29 173.09 190.16
  A 0.70 0.70 0.0 0 0 173.75 189.30"
/>
<path stroke="#848484" vector-effect="non-scaling-stroke" d="
  M 97.36 82.90
  L 97.20 130.46
  A 2.10 2.10 0.0 0 0 99.29 132.57
  L 132.36 132.68
  A 24.94 23.37 -89.8 0 0 155.82 107.82
  L 155.82 105.94
  A 24.94 23.37 -89.8 0 0 132.54 80.92
  L 99.47 80.81
  A 2.10 2.10 0.0 0 0 97.36 82.90"
/>
</g>
<path fill="#080808" d="
  M 228.74 0.00
  C 232.97 0.41 237.52 -0.29 241.19 2.35
  C 245.15 5.21 248.62 7.53 251.47 11.65
  Q 254.61 16.17 256.00 21.36
  L 256.00 235.50
  Q 255.50 238.85 252.94 242.95
  Q 249.44 248.56 248.47 249.32
  A 7.30 6.33 -23.8 0 1 247.63 249.91
  L 240.13 254.69
  A 4.71 4.70 23.8 0 1 238.37 255.37
  L 234.62 256.00
  L 21.80 256.00
  Q 13.47 254.13 8.17 248.83
  Q 3.02 243.69 0.00 235.78
  L 0.00 22.47
  L 0.82 18.38
  A 1.29 1.27 -22.8 0 1 1.02 17.90
  L 7.01 9.72
  A 12.79 12.62 -89.7 0 1 9.72 7.00
  L 17.91 0.96
  A 0.95 0.86 18.7 0 1 18.30 0.79
  L 22.41 0.00
  L 228.74 0.00
  Z
  M 173.75 189.30
  Q 172.97 186.05 171.08 183.15
  Q 162.86 170.51 146.99 145.24
  A 2.10 2.10 0.0 0 1 147.98 142.18
  Q 166.37 134.67 170.67 113.95
  C 173.95 98.11 166.33 81.71 153.42 72.71
  C 147.51 68.59 141.74 67.09 134.51 67.03
  Q 97.77 66.72 84.26 67.34
  Q 81.88 67.45 81.89 70.24
  Q 81.96 119.90 81.93 186.77
  Q 81.92 189.82 84.60 190.00
  Q 90.75 190.40 95.44 190.12
  A 1.89 1.89 0.0 0 0 97.21 188.23
  L 97.21 147.99
  A 2.13 2.13 0.0 0 1 99.36 145.86
  Q 110.53 145.93 124.50 145.69
  C 127.92 145.63 129.90 146.27 131.81 149.15
  C 140.79 162.73 148.72 175.71 154.79 185.70
  C 156.64 188.75 157.83 190.07 161.37 190.14
  Q 168.45 190.29 173.09 190.16
  A 0.70 0.70 0.0 0 0 173.75 189.30
  Z"
/>
<path fill="#ffffff" d="
  M 173.75 189.30
  A 0.70 0.70 0.0 0 1 173.09 190.16
  Q 168.45 190.29 161.37 190.14
  C 157.83 190.07 156.64 188.75 154.79 185.70
  C 148.72 175.71 140.79 162.73 131.81 149.15
  C 129.90 146.27 127.92 145.63 124.50 145.69
  Q 110.53 145.93 99.36 145.86
  A 2.13 2.13 0.0 0 0 97.21 147.99
  L 97.21 188.23
  A 1.89 1.89 0.0 0 1 95.44 190.12
  Q 90.75 190.40 84.60 190.00
  Q 81.92 189.82 81.93 186.77
  Q 81.96 119.90 81.89 70.24
  Q 81.88 67.45 84.26 67.34
  Q 97.77 66.72 134.51 67.03
  C 141.74 67.09 147.51 68.59 153.42 72.71
  C 166.33 81.71 173.95 98.11 170.67 113.95
  Q 166.37 134.67 147.98 142.18
  A 2.10 2.10 0.0 0 0 146.99 145.24
  Q 162.86 170.51 171.08 183.15
  Q 172.97 186.05 173.75 189.30
  Z
  M 97.36 82.90
  L 97.20 130.46
  A 2.10 2.10 0.0 0 0 99.29 132.57
  L 132.36 132.68
  A 24.94 23.37 -89.8 0 0 155.82 107.82
  L 155.82 105.94
  A 24.94 23.37 -89.8 0 0 132.54 80.92
  L 99.47 80.81
  A 2.10 2.10 0.0 0 0 97.36 82.90
  Z"
/>
<path fill="#080808" d="
  M 97.36 82.90
  A 2.10 2.10 0.0 0 1 99.47 80.81
  L 132.54 80.92
  A 24.94 23.37 -89.8 0 1 155.82 105.94
  L 155.82 107.82
  A 24.94 23.37 -89.8 0 1 132.36 132.68
  L 99.29 132.57
  A 2.10 2.10 0.0 0 1 97.20 130.46
  L 97.36 82.90
  Z"
/>
</svg>