<?xml version="1.0" encoding="UTF-8" standalone="no"?>
<!DOCTYPE svg PUBLIC "-//W3C//DTD SVG 1.1//EN" "http://www.w3.org/Graphics/SVG/1.1/DTD/svg11.dtd">
<svg xmlns="http://www.w3.org/2000/svg" version="1.1" viewBox="0.00 0.00 1024.00 1024.00" width="128" height="128">
<g stroke-width="2.00" fill="none" stroke-linecap="butt">
<path stroke="#222128" vector-effect="non-scaling-stroke" d="
  M 233.21 0.00
  L 220.80 0.75"
/>
<path stroke="#1c1c22" vector-effect="non-scaling-stroke" d="
  M 220.80 0.75
  C 156.02 6.10 97.04 36.92 55.40 86.69"
/>
<path stroke="#19181e" vector-effect="non-scaling-stroke" d="
  M 55.40 86.69
  Q 3.16 150.45 0.00 233.33"
/>
<path stroke="#222128" vector-effect="non-scaling-stroke" d="
  M 791.49 0.00
  L 810.26 1.39"
/>
<path stroke="#2e2d35" vector-effect="non-scaling-stroke" d="
  M 810.26 1.39
  C 807.02 22.18 803.99 46.09 800.12 63.75
  Q 786.53 125.73 747.92 177.63
  Q 739.79 188.57 731.73 195.21
  Q 720.84 204.20 706.08 200.54
  C 696.75 198.23 688.07 194.05 679.10 189.93
  C 648.71 175.95 616.88 166.09 583.69 160.37
  Q 473.56 141.40 368.88 180.00
  Q 354.13 185.44 335.42 193.40
  C 322.27 198.99 308.99 202.99 296.46 193.51
  Q 290.67 189.13 286.05 183.52
  C 250.78 140.67 229.20 87.91 223.04 32.93
  Q 221.60 20.01 220.80 0.75"
/>
<path stroke="#19181e" vector-effect="non-scaling-stroke" d="
  M 1024.00 235.89
  C 1022.98 191.33 1010.20 148.01 986.00 110.54"
/>
<path stroke="#1c1c22" vector-effect="non-scaling-stroke" d="
  M 986.00 110.54
  Q 955.54 63.33 907.99 34.51
  Q 863.30 7.41 810.26 1.39"
/>
<path stroke="#25252c" vector-effect="non-scaling-stroke" d="
  M 986.00 110.54
  C 978.42 131.77 970.60 156.94 963.92 174.34
  Q 933.56 253.33 877.15 318.59
  Q 869.64 327.28 862.21 334.11
  C 849.63 345.68 840.17 342.11 830.11 329.99
  Q 824.74 323.51 811.47 306.78
  Q 792.10 282.37 767.90 259.10
  Q 750.92 242.77 725.73 224.27
  Q 708.20 211.39 689.50 203.24"
/>
<path stroke="#949497" vector-effect="non-scaling-stroke" d="
  M 689.50 203.24
  Q 588.97 146.30 474.00 158.02
  Q 423.03 163.21 374.29 183.66"
/>
<path stroke="#25252c" vector-effect="non-scaling-stroke" d="
  M 374.29 183.66
  Q 353.31 190.56 333.18 201.75
  Q 286.60 227.65 248.89 264.38
  C 234.66 278.24 220.48 293.98 208.36 307.22
  Q 203.03 313.04 196.62 318.01
  C 188.80 324.09 181.38 322.66 173.73 316.35
  Q 168.33 311.89 163.08 305.87
  Q 97.70 230.92 68.46 135.76
  Q 62.45 116.19 55.40 86.69"
/>
<path stroke="#909094" vector-effect="non-scaling-stroke" d="
  M 374.29 183.66
  C 298.14 215.66 235.88 272.95 197.06 345.81"
/>
<path stroke="#1d1c23" vector-effect="non-scaling-stroke" d="
  M 197.06 345.81
  Q 188.89 359.08 183.29 369.30
  C 175.17 384.13 169.32 399.37 163.48 416.45
  C 158.20 431.87 153.65 447.80 150.92 463.63
  Q 149.01 474.68 146.95 485.80
  C 145.22 495.09 141.68 514.95 126.92 508.62
  Q 114.00 503.09 101.03 492.63
  C 79.37 475.15 59.35 455.35 40.03 434.67
  C 28.30 422.11 13.41 404.18 0.00 389.00"
/>
<path stroke="#1d1c23" vector-effect="non-scaling-stroke" d="
  M 1024.00 508.33
  Q 1002.82 528.25 994.22 535.97
  Q 950.18 575.51 900.03 607.70
  Q 895.40 610.67 889.15 613.94
  C 881.03 618.19 875.43 617.02 874.51 606.90
  Q 873.95 600.76 874.22 594.97
  C 875.86 560.78 876.10 527.94 873.08 493.96
  Q 868.64 444.06 850.74 396.86
  Q 847.53 388.37 840.76 375.01"
/>
<path stroke="#909094" vector-effect="non-scaling-stroke" d="
  M 840.76 375.01
  Q 793.30 264.31 689.50 203.24"
/>
<path stroke="#8c8b8e" vector-effect="non-scaling-stroke" d="
  M 840.76 375.01
  Q 876.63 462.57 865.27 556.80"
/>
<path stroke="#88878a" vector-effect="non-scaling-stroke" d="
  M 865.27 556.80
  Q 850.55 666.76 778.65 747.90
  C 715.54 819.12 626.51 862.41 531.16 867.44
  C 436.64 872.43 343.58 839.83 273.49 776.28
  Q 197.67 707.54 169.13 608.24"
/>
<path stroke="#8c8b8e" vector-effect="non-scaling-stroke" d="
  M 169.13 608.24
  C 144.79 520.00 154.58 426.82 197.06 345.81"
/>
<path stroke="#8c8b8e" vector-effect="non-scaling-stroke" d="
  M 252.50 373.46
  C 212.24 449.10 207.05 538.02 237.48 617.52
  C 268.67 699.01 335.42 762.80 417.82 790.65
  C 499.42 818.23 589.14 808.47 663.09 764.37"
/>
<path stroke="#d7d7df" vector-effect="non-scaling-stroke" d="
  M 663.09 764.37
  L 666.98 761.79"
/>
<path stroke="#bdbdc6" vector-effect="non-scaling-stroke" d="
  M 666.98 761.79
  Q 669.57 760.36 672.01 758.76
  Q 716.11 730.04 747.62 687.89
  Q 787.14 635.03 800.25 570.10"
/>
<path stroke="#d7d7df" vector-effect="non-scaling-stroke" d="
  M 800.25 570.10
  Q 802.57 560.95 803.29 550.88"
/>
<path stroke="#bdbdc6" vector-effect="non-scaling-stroke" d="
  M 803.29 550.88
  L 803.76 544.25"
/>
<path stroke="#8c8b8e" vector-effect="non-scaling-stroke" d="
  M 803.76 544.25
  Q 808.54 511.25 803.53 478.09"
/>
<path stroke="#bdbdc6" vector-effect="non-scaling-stroke" d="
  M 803.53 478.09
  L 802.68 469.24"
/>
<path stroke="#d7d7df" vector-effect="non-scaling-stroke" d="
  M 802.68 469.24
  Q 802.43 461.65 800.34 454.88"
/>
<path stroke="#bdbdc6" vector-effect="non-scaling-stroke" d="
  M 800.34 454.88
  Q 791.25 407.26 766.99 365.48
  Q 729.53 300.96 667.19 262.28"
/>
<path stroke="#d7d7df" vector-effect="non-scaling-stroke" d="
  M 667.19 262.28
  L 663.54 259.82"
/>
<path stroke="#909094" vector-effect="non-scaling-stroke" d="
  M 663.54 259.82
  Q 591.16 217.09 509.13 217.99
  Q 472.19 218.39 437.43 227.43
  C 357.96 248.10 291.60 301.40 252.50 373.46"
/>
<path stroke="#686873" vector-effect="non-scaling-stroke" d="
  M 663.54 259.82
  Q 639.01 254.94 614.36 254.32"
/>
<path stroke="#25252c" vector-effect="non-scaling-stroke" d="
  M 614.36 254.32
  Q 609.34 249.38 602.78 246.76
  Q 568.60 233.11 531.96 230.47
  C 508.79 228.80 483.68 229.90 461.18 234.63
  Q 437.21 239.66 413.65 250.21
  C 374.03 267.97 337.20 295.30 311.01 330.00
  C 304.30 338.89 294.70 352.77 304.27 363.23
  Q 308.06 367.38 312.16 369.87
  Q 327.72 379.33 346.11 386.58
  C 358.27 391.38 370.11 393.40 380.23 383.35
  Q 384.39 379.22 386.76 376.06
  Q 397.38 361.93 401.72 356.60
  C 418.45 336.02 437.71 316.91 460.26 302.67"
/>
<path stroke="#909094" vector-effect="non-scaling-stroke" d="
  M 460.26 302.67
  Q 430.89 323.83 408.45 352.21
  Q 407.74 353.12 406.66 354.94"
/>
<path stroke="#686873" vector-effect="non-scaling-stroke" d="
  M 406.66 354.94
  Q 406.32 354.98 406.07 355.31
  C 348.88 429.61 337.03 528.84 374.26 615.13"
/>
<path stroke="#1d1c23" vector-effect="non-scaling-stroke" d="
  M 374.26 615.13
  Q 387.25 654.00 412.01 686.84
  Q 419.11 696.25 426.60 705.46
  C 432.87 713.18 429.13 714.82 420.91 714.52
  Q 414.18 714.28 406.27 713.09
  Q 356.63 705.67 308.09 691.88
  Q 295.84 688.40 291.01 685.43
  Q 283.97 681.10 277.60 672.85
  C 249.16 635.97 230.45 592.22 224.91 545.74
  C 219.98 504.43 224.00 465.17 235.49 425.03
  C 239.39 411.44 247.19 390.78 252.50 373.46"
/>
<path stroke="#6b6b77" vector-effect="non-scaling-stroke" d="
  M 614.36 254.32
  L 604.55 254.39"
/>
<path stroke="#949497" vector-effect="non-scaling-stroke" d="
  M 604.55 254.39
  Q 524.80 256.78 460.26 302.67"
/>
<path stroke="#9494a5" vector-effect="non-scaling-stroke" d="
  M 667.19 262.28
  Q 646.74 258.77 626.86 257.27
  A 0.18 0.18 0.0 0 0 626.77 257.62
  C 640.57 264.18 654.25 271.39 667.02 279.81
  Q 729.22 320.80 765.06 386.26
  Q 767.95 391.55 771.65 396.80
  Q 790.36 423.36 800.34 454.88"
/>
<path stroke="#9494a5" vector-effect="non-scaling-stroke" d="
  M 802.68 469.24
  Q 802.66 468.56 802.40 468.26
  A 0.29 0.29 0.0 0 0 802.04 468.19
  Q 802.02 468.20 802.00 468.38
  A 0.25 0.25 0.0 0 1 801.51 468.40
  Q 798.71 456.56 794.59 445.26"
/>
<path stroke="#71707d" vector-effect="non-scaling-stroke" d="
  M 794.59 445.26
  Q 786.55 423.20 773.50 403.66"
/>
<path stroke="#9494a5" vector-effect="non-scaling-stroke" d="
  M 773.50 403.66
  L 760.75 386.54"
/>
<path stroke="#d7d7df" vector-effect="non-scaling-stroke" d="
  M 760.75 386.54
  L 761.86 385.28
  A 0.63 0.62 45.8 0 0 761.87 384.47
  Q 757.06 378.58 751.55 372.99
  C 711.81 332.71 656.84 311.15 600.36 314.18
  C 508.96 319.09 434.19 384.43 416.08 473.56
  Q 415.44 476.74 417.92 475.69"
/>
<path stroke="#686873" vector-effect="non-scaling-stroke" d="
  M 417.92 475.69
  Q 404.93 550.79 443.85 615.02"
/>
<path stroke="#63636e" vector-effect="non-scaling-stroke" d="
  M 443.85 615.02
  C 491.55 691.03 582.84 725.48 668.94 698.93
  Q 704.94 687.83 734.92 663.15"
/>
<path stroke="#9494a5" vector-effect="non-scaling-stroke" d="
  M 734.92 663.15
  Q 777.64 627.51 795.79 575.27"
/>
<path stroke="#71707d" vector-effect="non-scaling-stroke" d="
  M 795.79 575.27
  L 801.32 556.02"
/>
<path stroke="#9494a5" vector-effect="non-scaling-stroke" d="
  M 801.32 556.02
  L 803.29 550.88"
/>
<path stroke="#9494a5" vector-effect="non-scaling-stroke" d="
  M 800.25 570.10
  Q 795.81 582.71 790.38 594.53
  Q 787.13 601.60 785.08 607.50
  Q 770.27 650.21 743.40 686.91
  Q 737.25 695.31 721.57 712.76
  Q 716.99 717.86 714.10 720.43
  C 707.21 726.59 701.84 732.42 694.40 738.43
  Q 679.76 750.24 669.84 757.89
  Q 667.88 759.40 666.98 761.79"
/>
<path stroke="#63636e" vector-effect="non-scaling-stroke" d="
  M 663.09 764.37
  Q 663.04 763.77 661.76 764.25
  Q 660.88 764.58 660.29 764.70
  C 597.42 777.11 530.74 765.47 476.47 732.05
  Q 407.74 689.72 374.26 615.13"
/>
<path stroke="#d7d7df" vector-effect="non-scaling-stroke" d="
  M 406.66 354.94
  Q 408.50 355.88 409.78 354.25
  C 457.26 294.09 528.59 258.18 604.99 256.76
  Q 606.15 256.74 606.34 255.42
  A 0.59 0.58 12.0 0 0 605.92 254.78
  L 604.55 254.39"
/>
<path stroke="#4e4e5a" vector-effect="non-scaling-stroke" d="
  M 733.33 359.66
  L 732.94 360.13"
/>
<path stroke="#686873" vector-effect="non-scaling-stroke" d="
  M 732.94 360.13
  Q 731.70 359.49 731.02 359.43
  Q 695.55 356.47 662.54 369.38"
/>
<path stroke="#25252c" vector-effect="non-scaling-stroke" d="
  M 662.54 369.38
  C 674.98 364.17 684.15 361.49 698.22 357.74
  C 715.11 353.24 699.81 344.44 693.72 341.06
  C 649.49 316.57 596.18 313.90 549.16 329.43
  C 501.70 345.12 462.26 381.19 441.81 426.74
  Q 440.01 430.74 438.42 437.08
  C 435.13 450.25 442.54 456.71 454.52 459.40
  Q 463.58 461.44 474.88 462.28
  Q 504.51 464.50 532.48 463.14
  C 548.79 462.34 563.65 458.95 574.20 445.71
  Q 579.21 439.44 585.22 430.50
  C 603.92 402.71 629.85 381.15 661.54 369.78"
/>
<path stroke="#686873" vector-effect="non-scaling-stroke" d="
  M 661.54 369.78
  Q 624.65 384.78 600.13 414.88
  Q 565.77 457.07 565.73 512.70"
/>
<path stroke="#4e4e5a" vector-effect="non-scaling-stroke" d="
  M 565.73 512.70
  Q 566.01 543.08 577.74 571.22"
/>
<path stroke="#1d1c23" vector-effect="non-scaling-stroke" d="
  M 577.74 571.22
  Q 596.53 618.55 639.72 646.86
  Q 657.16 658.29 675.56 663.86
  C 684.70 666.62 693.77 667.99 704.83 670.16
  Q 707.72 670.72 709.57 672.07
  A 1.69 1.68 -54.3 0 1 709.95 674.42
  Q 708.44 676.55 705.42 678.30
  C 653.71 708.38 589.58 711.49 534.60 688.77
  C 506.80 677.28 481.65 657.40 461.76 635.04
  Q 452.92 625.10 443.85 615.02"
/>
<path stroke="#575664" vector-effect="non-scaling-stroke" d="
  M 773.50 403.66
  Q 775.22 408.32 778.89 414.38
  Q 783.96 422.76 789.50 436.26
  Q 793.29 445.51 795.21 451.95
  A 0.36 0.36 0.0 0 0 795.67 452.18
  L 795.68 452.18
  A 0.29 0.25 76.3 0 0 795.84 451.87
  L 794.59 445.26"
/>
<path stroke="#494955" vector-effect="non-scaling-stroke" d="
  M 803.53 478.09
  Q 797.89 466.49 790.82 456.51"
/>
<path stroke="#9494a5" vector-effect="non-scaling-stroke" d="
  M 790.82 456.51
  Q 792.02 454.93 790.71 453.19
  Q 781.69 441.17 767.73 432.50
  C 735.02 412.18 693.44 413.82 662.72 436.75
  C 629.27 461.72 616.06 506.13 631.46 545.26
  C 655.99 607.58 735.65 624.80 783.66 577.92
  Q 791.54 570.23 796.75 561.33
  Q 798.02 559.14 796.23 558.48"
/>
<path stroke="#494955" vector-effect="non-scaling-stroke" d="
  M 796.23 558.48
  L 803.76 544.25"
/>
<path stroke="#575664" vector-effect="non-scaling-stroke" d="
  M 801.32 556.02
  Q 799.26 557.69 798.29 561.13
  C 796.90 566.04 795.04 570.87 795.79 575.27"
/>
<path stroke="#494955" vector-effect="non-scaling-stroke" d="
  M 734.92 663.15
  Q 698.04 667.21 665.30 654.73
  Q 604.67 631.64 577.74 571.22"
/>
<path stroke="#bdbdc6" vector-effect="non-scaling-stroke" d="
  M 760.75 386.54
  Q 748.39 371.73 733.33 359.66"
/>
<path stroke="#909094" vector-effect="non-scaling-stroke" d="
  M 733.33 359.66
  Q 730.41 357.19 727.35 354.91
  C 675.74 316.62 608.99 306.03 548.12 326.36
  C 480.57 348.93 431.48 406.29 417.92 475.69"
/>
<path stroke="#9494a5" vector-effect="non-scaling-stroke" d="
  M 732.94 360.13
  Q 734.02 360.47 734.52 361.10
  A 0.47 0.47 0.0 0 1 734.11 361.87
  C 686.46 357.51 639.79 374.14 607.54 409.77
  Q 573.58 447.28 568.46 497.54
  Q 567.88 503.26 567.85 511.51
  Q 567.85 513.18 566.77 513.42
  Q 566.28 513.54 565.73 512.70"
/>
<path stroke="#6b6b77" vector-effect="non-scaling-stroke" d="
  M 662.54 369.38
  L 661.54 369.78"
/>
<path stroke="#63636e" vector-effect="non-scaling-stroke" d="
  M 790.82 456.51
  Q 773.18 433.83 746.04 424.85"
/>
<path stroke="#686873" vector-effect="non-scaling-stroke" d="
  M 746.04 424.85
  Q 721.08 417.06 696.48 423.18
  C 642.19 436.69 612.67 495.62 634.81 547.44
  C 652.29 588.33 698.03 611.27 741.70 599.33"
/>
<path stroke="#63636e" vector-effect="non-scaling-stroke" d="
  M 741.70 599.33
  C 764.52 593.47 783.94 578.49 796.23 558.48"
/>
<path stroke="#1d1c23" vector-effect="non-scaling-stroke" d="
  M 746.04 424.85
  Q 755.38 429.91 764.86 434.62
  Q 767.86 436.11 774.46 441.53
  Q 778.93 445.20 782.31 450.19
  Q 794.87 468.77 797.73 493.09
  C 801.78 527.49 798.12 564.16 766.34 584.82
  Q 754.46 592.54 741.70 599.33"
/>
<path stroke="#141319" vector-effect="non-scaling-stroke" d="
  M 169.13 608.24
  Q 173.83 634.30 182.49 656.21
  Q 197.02 692.95 220.37 731.55
  C 234.77 755.35 251.94 773.30 275.34 799.06
  Q 281.21 805.51 284.37 808.42
  C 294.25 817.52 303.79 824.10 316.82 833.38
  C 324.42 838.80 332.44 845.90 339.89 850.15
  C 358.95 861.02 380.40 868.50 401.78 876.23
  Q 403.45 876.84 405.77 878.27
  A 0.53 0.53 0.0 0 1 405.54 879.25
  Q 402.07 879.60 395.38 878.78
  Q 353.83 873.71 308.35 862.97
  Q 163.50 828.77 37.64 749.13
  Q 21.37 738.84 0.00 724.32"
/>
<path stroke="#141319" vector-effect="non-scaling-stroke" d="
  M 1024.00 753.04
  Q 990.69 775.18 959.52 792.81
  C 848.86 855.41 723.61 894.84 596.62 906.18
  Q 581.22 907.55 567.55 907.69
  C 560.60 907.77 544.73 907.97 540.19 902.23
  C 533.92 894.33 563.02 887.59 566.85 886.59
  C 570.76 885.57 576.20 883.09 580.95 881.93
  C 595.46 878.39 605.98 876.10 617.09 872.73
  Q 633.42 867.78 650.09 860.71
  C 668.74 852.80 686.66 844.40 702.64 834.14
  C 718.06 824.24 733.39 811.34 747.81 798.23
  Q 759.60 787.52 767.48 778.33
  C 781.43 762.06 795.65 743.60 807.96 723.77
  Q 819.55 705.11 821.43 701.91
  C 843.67 664.01 857.28 619.68 863.44 576.49
  Q 864.09 571.91 865.27 556.80"
/>
</g>
<path fill="#100f14" d="
  M 233.21 0.00
  L 220.80 0.75
  C 156.02 6.10 97.04 36.92 55.40 86.69
  Q 3.16 150.45 0.00 233.33
  L 0.00 0.00
  L 233.21 0.00
  Z"
/>
<path fill="#33323b" d="
  M 791.49 0.00
  L 810.26 1.39
  C 807.02 22.18 803.99 46.09 800.12 63.75
  Q 786.53 125.73 747.92 177.63
  Q 739.79 188.57 731.73 195.21
  Q 720.84 204.20 706.08 200.54
  C 696.75 198.23 688.07 194.05 679.10 189.93
  C 648.71 175.95 616.88 166.09 583.69 160.37
  Q 473.56 141.40 368.88 180.00
  Q 354.13 185.44 335.42 193.40
  C 322.27 198.99 308.99 202.99 296.46 193.51
  Q 290.67 189.13 286.05 183.52
  C 250.78 140.67 229.20 87.91 223.04 32.93
  Q 221.60 20.01 220.80 0.75
  L 233.21 0.00
  L 791.49 0.00
  Z"
/>
<path fill="#100f14" d="
  M 1024.00 0.00
  L 1024.00 235.89
  C 1022.98 191.33 1010.20 148.01 986.00 110.54
  Q 955.54 63.33 907.99 34.51
  Q 863.30 7.41 810.26 1.39
  L 791.49 0.00
  L 1024.00 0.00
  Z"
/>
<path fill="#28282f" d="
  M 220.80 0.75
  Q 221.60 20.01 223.04 32.93
  C 229.20 87.91 250.78 140.67 286.05 183.52
  Q 290.67 189.13 296.46 193.51
  C 308.99 202.99 322.27 198.99 335.42 193.40
  Q 354.13 185.44 368.88 180.00
  Q 473.56 141.40 583.69 160.37
  C 616.88 166.09 648.71 175.95 679.10 189.93
  C 688.07 194.05 696.75 198.23 706.08 200.54
  Q 720.84 204.20 731.73 195.21
  Q 739.79 188.57 747.92 177.63
  Q 786.53 125.73 800.12 63.75
  C 803.99 46.09 807.02 22.18 810.26 1.39
  Q 863.30 7.41 907.99 34.51
  Q 955.54 63.33 986.00 110.54
  C 978.42 131.77 970.60 156.94 963.92 174.34
  Q 933.56 253.33 877.15 318.59
  Q 869.64 327.28 862.21 334.11
  C 849.63 345.68 840.17 342.11 830.11 329.99
  Q 824.74 323.51 811.47 306.78
  Q 792.10 282.37 767.90 259.10
  Q 750.92 242.77 725.73 224.27
  Q 708.20 211.39 689.50 203.24
  Q 588.97 146.30 474.00 158.02
  Q 423.03 163.21 374.29 183.66
  Q 353.31 190.56 333.18 201.75
  Q 286.60 227.65 248.89 264.38
  C 234.66 278.24 220.48 293.98 208.36 307.22
  Q 203.03 313.04 196.62 318.01
  C 188.80 324.09 181.38 322.66 173.73 316.35
  Q 168.33 311.89 163.08 305.87
  Q 97.70 230.92 68.46 135.76
  Q 62.45 116.19 55.40 86.69
  C 97.04 36.92 156.02 6.10 220.80 0.75
  Z"
/>
<path fill="#212128" d="
  M 55.40 86.69
  Q 62.45 116.19 68.46 135.76
  Q 97.70 230.92 163.08 305.87
  Q 168.33 311.89 173.73 316.35
  C 181.38 322.66 188.80 324.09 196.62 318.01
  Q 203.03 313.04 208.36 307.22
  C 220.48 293.98 234.66 278.24 248.89 264.38
  Q 286.60 227.65 333.18 201.75
  Q 353.31 190.56 374.29 183.66
  C 298.14 215.66 235.88 272.95 197.06 345.81
  Q 188.89 359.08 183.29 369.30
  C 175.17 384.13 169.32 399.37 163.48 416.45
  C 158.20 431.87 153.65 447.80 150.92 463.63
  Q 149.01 474.68 146.95 485.80
  C 145.22 495.09 141.68 514.95 126.92 508.62
  Q 114.00 503.09 101.03 492.63
  C 79.37 475.15 59.35 455.35 40.03 434.67
  C 28.30 422.11 13.41 404.18 0.00 389.00
  L 0.00 233.33
  Q 3.16 150.45 55.40 86.69
  Z"
/>
<path fill="#212128" d="
  M 986.00 110.54
  C 1010.20 148.01 1022.98 191.33 1024.00 235.89
  L 1024.00 508.33
  Q 1002.82 528.25 994.22 535.97
  Q 950.18 575.51 900.03 607.70
  Q 895.40 610.67 889.15 613.94
  C 881.03 618.19 875.43 617.02 874.51 606.90
  Q 873.95 600.76 874.22 594.97
  C 875.86 560.78 876.10 527.94 873.08 493.96
  Q 868.64 444.06 850.74 396.86
  Q 847.53 388.37 840.76 375.01
  Q 793.30 264.31 689.50 203.24
  Q 708.20 211.39 725.73 224.27
  Q 750.92 242.77 767.90 259.10
  Q 792.10 282.37 811.47 306.78
  Q 824.74 323.51 830.11 329.99
  C 840.17 342.11 849.63 345.68 862.21 334.11
  Q 869.64 327.28 877.15 318.59
  Q 933.56 253.33 963.92 174.34
  C 970.60 156.94 978.42 131.77 986.00 110.54
  Z"
/>
<path fill="#ffffff" d="
  M 689.50 203.24
  Q 793.30 264.31 840.76 375.01
  Q 876.63 462.57 865.27 556.80
  Q 850.55 666.76 778.65 747.90
  C 715.54 819.12 626.51 862.41 531.16 867.44
  C 436.64 872.43 343.58 839.83 273.49 776.28
  Q 197.67 707.54 169.13 608.24
  C 144.79 520.00 154.58 426.82 197.06 345.81
  C 235.88 272.95 298.14 215.66 374.29 183.66
  Q 423.03 163.21 474.00 158.02
  Q 588.97 146.30 689.50 203.24
  Z
  M 252.50 373.46
  C 212.24 449.10 207.05 538.02 237.48 617.52
  C 268.67 699.01 335.42 762.80 417.82 790.65
  C 499.42 818.23 589.14 808.47 663.09 764.37
  L 666.98 761.79
  Q 669.57 760.36 672.01 758.76
  Q 716.11 730.04 747.62 687.89
  Q 787.14 635.03 800.25 570.10
  Q 802.57 560.95 803.29 550.88
  L 803.76 544.25
  Q 808.54 511.25 803.53 478.09
  L 802.68 469.24
  Q 802.43 461.65 800.34 454.88
  Q 791.25 407.26 766.99 365.48
  Q 729.53 300.96 667.19 262.28
  L 663.54 259.82
  Q 591.16 217.09 509.13 217.99
  Q 472.19 218.39 437.43 227.43
  C 357.96 248.10 291.60 301.40 252.50 373.46
  Z"
/>
<path fill="#212128" d="
  M 663.54 259.82
  Q 639.01 254.94 614.36 254.32
  Q 609.34 249.38 602.78 246.76
  Q 568.60 233.11 531.96 230.47
  C 508.79 228.80 483.68 229.90 461.18 234.63
  Q 437.21 239.66 413.65 250.21
  C 374.03 267.97 337.20 295.30 311.01 330.00
  C 304.30 338.89 294.70 352.77 304.27 363.23
  Q 308.06 367.38 312.16 369.87
  Q 327.72 379.33 346.11 386.58
  C 358.27 391.38 370.11 393.40 380.23 383.35
  Q 384.39 379.22 386.76 376.06
  Q 397.38 361.93 401.72 356.60
  C 418.45 336.02 437.71 316.91 460.26 302.67
  Q 430.89 323.83 408.45 352.21
  Q 407.74 353.12 406.66 354.94
  Q 406.32 354.98 406.07 355.31
  C 348.88 429.61 337.03 528.84 374.26 615.13
  Q 387.25 654.00 412.01 686.84
  Q 419.11 696.25 426.60 705.46
  C 432.87 713.18 429.13 714.82 420.91 714.52
  Q 414.18 714.28 406.27 713.09
  Q 356.63 705.67 308.09 691.88
  Q 295.84 688.40 291.01 685.43
  Q 283.97 681.10 277.60 672.85
  C 249.16 635.97 230.45 592.22 224.91 545.74
  C 219.98 504.43 224.00 465.17 235.49 425.03
  C 239.39 411.44 247.19 390.78 252.50 373.46
  C 291.60 301.40 357.96 248.10 437.43 227.43
  Q 472.19 218.39 509.13 217.99
  Q 591.16 217.09 663.54 259.82
  Z"
/>
<path fill="#28282f" d="
  M 614.36 254.32
  L 604.55 254.39
  Q 524.80 256.78 460.26 302.67
  C 437.71 316.91 418.45 336.02 401.72 356.60
  Q 397.38 361.93 386.76 376.06
  Q 384.39 379.22 380.23 383.35
  C 370.11 393.40 358.27 391.38 346.11 386.58
  Q 327.72 379.33 312.16 369.87
  Q 308.06 367.38 304.27 363.23
  C 294.70 352.77 304.30 338.89 311.01 330.00
  C 337.20 295.30 374.03 267.97 413.65 250.21
  Q 437.21 239.66 461.18 234.63
  C 483.68 229.90 508.79 228.80 531.96 230.47
  Q 568.60 233.11 602.78 246.76
  Q 609.34 249.38 614.36 254.32
  Z"
/>
<path fill="#aeaebe" d="
  M 614.36 254.32
  Q 639.01 254.94 663.54 259.82
  L 667.19 262.28
  Q 646.74 258.77 626.86 257.27
  A 0.18 0.18 0.0 0 0 626.77 257.62
  C 640.57 264.18 654.25 271.39 667.02 279.81
  Q 729.22 320.80 765.06 386.26
  Q 767.95 391.55 771.65 396.80
  Q 790.36 423.36 800.34 454.88
  Q 802.43 461.65 802.68 469.24
  Q 802.66 468.56 802.40 468.26
  A 0.29 0.29 0.0 0 0 802.04 468.19
  Q 802.02 468.20 802.00 468.38
  A 0.25 0.25 0.0 0 1 801.51 468.40
  Q 798.71 456.56 794.59 445.26
  Q 786.55 423.20 773.50 403.66
  L 760.75 386.54
  L 761.86 385.28
  A 0.63 0.62 45.8 0 0 761.87 384.47
  Q 757.06 378.58 751.55 372.99
  C 711.81 332.71 656.84 311.15 600.36 314.18
  C 508.96 319.09 434.19 384.43 416.08 473.56
  Q 415.44 476.74 417.92 475.69
  Q 404.93 550.79 443.85 615.02
  C 491.55 691.03 582.84 725.48 668.94 698.93
  Q 704.94 687.83 734.92 663.15
  Q 777.64 627.51 795.79 575.27
  L 801.32 556.02
  L 803.29 550.88
  Q 802.57 560.95 800.25 570.10
  Q 795.81 582.71 790.38 594.53
  Q 787.13 601.60 785.08 607.50
  Q 770.27 650.21 743.40 686.91
  Q 737.25 695.31 721.57 712.76
  Q 716.99 717.86 714.10 720.43
  C 707.21 726.59 701.84 732.42 694.40 738.43
  Q 679.76 750.24 669.84 757.89
  Q 667.88 759.40 666.98 761.79
  L 663.09 764.37
  Q 663.04 763.77 661.76 764.25
  Q 660.88 764.58 660.29 764.70
  C 597.42 777.11 530.74 765.47 476.47 732.05
  Q 407.74 689.72 374.26 615.13
  C 337.03 528.84 348.88 429.61 406.07 355.31
  Q 406.32 354.98 406.66 354.94
  Q 408.50 355.88 409.78 354.25
  C 457.26 294.09 528.59 258.18 604.99 256.76
  Q 606.15 256.74 606.34 255.42
  A 0.59 0.58 12.0 0 0 605.92 254.78
  L 604.55 254.39
  L 614.36 254.32
  Z"
/>
<path fill="#ffffff" d="
  M 604.55 254.39
  L 605.92 254.78
  A 0.59 0.58 12.0 0 1 606.34 255.42
  Q 606.15 256.74 604.99 256.76
  C 528.59 258.18 457.26 294.09 409.78 354.25
  Q 408.50 355.88 406.66 354.94
  Q 407.74 353.12 408.45 352.21
  Q 430.89 323.83 460.26 302.67
  Q 524.80 256.78 604.55 254.39
  Z"
/>
<path fill="#7a7a8c" d="
  M 667.19 262.28
  Q 729.53 300.96 766.99 365.48
  Q 791.25 407.26 800.34 454.88
  Q 790.36 423.36 771.65 396.80
  Q 767.95 391.55 765.06 386.26
  Q 729.22 320.80 667.02 279.81
  C 654.25 271.39 640.57 264.18 626.77 257.62
  A 0.18 0.18 0.0 0 1 626.86 257.27
  Q 646.74 258.77 667.19 262.28
  Z"
/>
<path fill="#ffffff" d="
  M 760.75 386.54
  Q 748.39 371.73 733.33 359.66
  Q 730.41 357.19 727.35 354.91
  C 675.74 316.62 608.99 306.03 548.12 326.36
  C 480.57 348.93 431.48 406.29 417.92 475.69
  Q 415.44 476.74 416.08 473.56
  C 434.19 384.43 508.96 319.09 600.36 314.18
  C 656.84 311.15 711.81 332.71 751.55 372.99
  Q 757.06 378.58 761.87 384.47
  A 0.63 0.62 45.8 0 1 761.86 385.28
  L 760.75 386.54
  Z"
/>
<path fill="#212128" d="
  M 733.33 359.66
  L 732.94 360.13
  Q 731.70 359.49 731.02 359.43
  Q 695.55 356.47 662.54 369.38
  C 674.98 364.17 684.15 361.49 698.22 357.74
  C 715.11 353.24 699.81 344.44 693.72 341.06
  C 649.49 316.57 596.18 313.90 549.16 329.43
  C 501.70 345.12 462.26 381.19 441.81 426.74
  Q 440.01 430.74 438.42 437.08
  C 435.13 450.25 442.54 456.71 454.52 459.40
  Q 463.58 461.44 474.88 462.28
  Q 504.51 464.50 532.48 463.14
  C 548.79 462.34 563.65 458.95 574.20 445.71
  Q 579.21 439.44 585.22 430.50
  C 603.92 402.71 629.85 381.15 661.54 369.78
  Q 624.65 384.78 600.13 414.88
  Q 565.77 457.07 565.73 512.70
  Q 566.01 543.08 577.74 571.22
  Q 596.53 618.55 639.72 646.86
  Q 657.16 658.29 675.56 663.86
  C 684.70 666.62 693.77 667.99 704.83 670.16
  Q 707.72 670.72 709.57 672.07
  A 1.69 1.68 -54.3 0 1 709.95 674.42
  Q 708.44 676.55 705.42 678.30
  C 653.71 708.38 589.58 711.49 534.60 688.77
  C 506.80 677.28 481.65 657.40 461.76 635.04
  Q 452.92 625.10 443.85 615.02
  Q 404.93 550.79 417.92 475.69
  C 431.48 406.29 480.57 348.93 548.12 326.36
  C 608.99 306.03 675.74 316.62 727.35 354.91
  Q 730.41 357.19 733.33 359.66
  Z"
/>
<path fill="#28282f" d="
  M 662.54 369.38
  L 661.54 369.78
  C 629.85 381.15 603.92 402.71 585.22 430.50
  Q 579.21 439.44 574.20 445.71
  C 563.65 458.95 548.79 462.34 532.48 463.14
  Q 504.51 464.50 474.88 462.28
  Q 463.58 461.44 454.52 459.40
  C 442.54 456.71 435.13 450.25 438.42 437.08
  Q 440.01 430.74 441.81 426.74
  C 462.26 381.19 501.70 345.12 549.16 329.43
  C 596.18 313.90 649.49 316.57 693.72 341.06
  C 699.81 344.44 715.11 353.24 698.22 357.74
  C 684.15 361.49 674.98 364.17 662.54 369.38
  Z"
/>
<path fill="#18171d" d="
  M 197.06 345.81
  C 154.58 426.82 144.79 520.00 169.13 608.24
  Q 173.83 634.30 182.49 656.21
  Q 197.02 692.95 220.37 731.55
  C 234.77 755.35 251.94 773.30 275.34 799.06
  Q 281.21 805.51 284.37 808.42
  C 294.25 817.52 303.79 824.10 316.82 833.38
  C 324.42 838.80 332.44 845.90 339.89 850.15
  C 358.95 861.02 380.40 868.50 401.78 876.23
  Q 403.45 876.84 405.77 878.27
  A 0.53 0.53 0.0 0 1 405.54 879.25
  Q 402.07 879.60 395.38 878.78
  Q 353.83 873.71 308.35 862.97
  Q 163.50 828.77 37.64 749.13
  Q 21.37 738.84 0.00 724.32
  L 0.00 389.00
  C 13.41 404.18 28.30 422.11 40.03 434.67
  C 59.35 455.35 79.37 475.15 101.03 492.63
  Q 114.00 503.09 126.92 508.62
  C 141.68 514.95 145.22 495.09 146.95 485.80
  Q 149.01 474.68 150.92 463.63
  C 153.65 447.80 158.20 431.87 163.48 416.45
  C 169.32 399.37 175.17 384.13 183.29 369.30
  Q 188.89 359.08 197.06 345.81
  Z"
/>
<path fill="#aeaebe" d="
  M 732.94 360.13
  Q 734.02 360.47 734.52 361.10
  A 0.47 0.47 0.0 0 1 734.11 361.87
  C 686.46 357.51 639.79 374.14 607.54 409.77
  Q 573.58 447.28 568.46 497.54
  Q 567.88 503.26 567.85 511.51
  Q 567.85 513.18 566.77 513.42
  Q 566.28 513.54 565.73 512.70
  Q 565.77 457.07 600.13 414.88
  Q 624.65 384.78 661.54 369.78
  L 662.54 369.38
  Q 695.55 356.47 731.02 359.43
  Q 731.70 359.49 732.94 360.13
  Z"
/>
<path fill="#7a7a8c" d="
  M 760.75 386.54
  L 773.50 403.66
  Q 775.22 408.32 778.89 414.38
  Q 783.96 422.76 789.50 436.26
  Q 793.29 445.51 795.21 451.95
  A 0.36 0.36 0.0 0 0 795.67 452.18
  L 795.68 452.18
  A 0.29 0.25 76.3 0 0 795.84 451.87
  L 794.59 445.26
  Q 798.71 456.56 801.51 468.40
  A 0.25 0.25 0.0 0 0 802.00 468.38
  Q 802.02 468.20 802.04 468.19
  A 0.29 0.29 0.0 0 1 802.40 468.26
  Q 802.66 468.56 802.68 469.24
  L 803.53 478.09
  Q 797.89 466.49 790.82 456.51
  Q 792.02 454.93 790.71 453.19
  Q 781.69 441.17 767.73 432.50
  C 735.02 412.18 693.44 413.82 662.72 436.75
  C 629.27 461.72 616.06 506.13 631.46 545.26
  C 655.99 607.58 735.65 624.80 783.66 577.92
  Q 791.54 570.23 796.75 561.33
  Q 798.02 559.14 796.23 558.48
  L 803.76 544.25
  L 803.29 550.88
  L 801.32 556.02
  Q 799.26 557.69 798.29 561.13
  C 796.90 566.04 795.04 570.87 795.79 575.27
  Q 777.64 627.51 734.92 663.15
  Q 698.04 667.21 665.30 654.73
  Q 604.67 631.64 577.74 571.22
  Q 566.01 543.08 565.73 512.70
  Q 566.28 513.54 566.77 513.42
  Q 567.85 513.18 567.85 511.51
  Q 567.88 503.26 568.46 497.54
  Q 573.58 447.28 607.54 409.77
  C 639.79 374.14 686.46 357.51 734.11 361.87
  A 0.47 0.47 0.0 0 0 734.52 361.10
  Q 734.02 360.47 732.94 360.13
  L 733.33 359.66
  Q 748.39 371.73 760.75 386.54
  Z"
/>
<path fill="#18171d" d="
  M 1024.00 508.33
  L 1024.00 753.04
  Q 990.69 775.18 959.52 792.81
  C 848.86 855.41 723.61 894.84 596.62 906.18
  Q 581.22 907.55 567.55 907.69
  C 560.60 907.77 544.73 907.97 540.19 902.23
  C 533.92 894.33 563.02 887.59 566.85 886.59
  C 570.76 885.57 576.20 883.09 580.95 881.93
  C 595.46 878.39 605.98 876.10 617.09 872.73
  Q 633.42 867.78 650.09 860.71
  C 668.74 852.80 686.66 844.40 702.64 834.14
  C 718.06 824.24 733.39 811.34 747.81 798.23
  Q 759.60 787.52 767.48 778.33
  C 781.43 762.06 795.65 743.60 807.96 723.77
  Q 819.55 705.11 821.43 701.91
  C 843.67 664.01 857.28 619.68 863.44 576.49
  Q 864.09 571.91 865.27 556.80
  Q 876.63 462.57 840.76 375.01
  Q 847.53 388.37 850.74 396.86
  Q 868.64 444.06 873.08 493.96
  C 876.10 527.94 875.86 560.78 874.22 594.97
  Q 873.95 600.76 874.51 606.90
  C 875.43 617.02 881.03 618.19 889.15 613.94
  Q 895.40 610.67 900.03 607.70
  Q 950.18 575.51 994.22 535.97
  Q 1002.82 528.25 1024.00 508.33
  Z"
/>
<path fill="#18171d" d="
  M 374.26 615.13
  Q 407.74 689.72 476.47 732.05
  C 530.74 765.47 597.42 777.11 660.29 764.70
  Q 660.88 764.58 661.76 764.25
  Q 663.04 763.77 663.09 764.37
  C 589.14 808.47 499.42 818.23 417.82 790.65
  C 335.42 762.80 268.67 699.01 237.48 617.52
  C 207.05 538.02 212.24 449.10 252.50 373.46
  C 247.19 390.78 239.39 411.44 235.49 425.03
  C 224.00 465.17 219.98 504.43 224.91 545.74
  C 230.45 592.22 249.16 635.97 277.60 672.85
  Q 283.97 681.10 291.01 685.43
  Q 295.84 688.40 308.09 691.88
  Q 356.63 705.67 406.27 713.09
  Q 414.18 714.28 420.91 714.52
  C 429.13 714.82 432.87 713.18 426.60 705.46
  Q 419.11 696.25 412.01 686.84
  Q 387.25 654.00 374.26 615.13
  Z"
/>
<path fill="#33323b" d="
  M 773.50 403.66
  Q 786.55 423.20 794.59 445.26
  L 795.84 451.87
  A 0.29 0.25 76.3 0 1 795.68 452.18
  L 795.67 452.18
  A 0.36 0.36 0.0 0 1 795.21 451.95
  Q 793.29 445.51 789.50 436.26
  Q 783.96 422.76 778.89 414.38
  Q 775.22 408.32 773.50 403.66
  Z"
/>
<path fill="#aeaebe" d="
  M 790.82 456.51
  Q 773.18 433.83 746.04 424.85
  Q 721.08 417.06 696.48 423.18
  C 642.19 436.69 612.67 495.62 634.81 547.44
  C 652.29 588.33 698.03 611.27 741.70 599.33
  C 764.52 593.47 783.94 578.49 796.23 558.48
  Q 798.02 559.14 796.75 561.33
  Q 791.54 570.23 783.66 577.92
  C 735.65 624.80 655.99 607.58 631.46 545.26
  C 616.06 506.13 629.27 461.72 662.72 436.75
  C 693.44 413.82 735.02 412.18 767.73 432.50
  Q 781.69 441.17 790.71 453.19
  Q 792.02 454.93 790.82 456.51
  Z"
/>
<path fill="#212128" d="
  M 746.04 424.85
  Q 755.38 429.91 764.86 434.62
  Q 767.86 436.11 774.46 441.53
  Q 778.93 445.20 782.31 450.19
  Q 794.87 468.77 797.73 493.09
  C 801.78 527.49 798.12 564.16 766.34 584.82
  Q 754.46 592.54 741.70 599.33
  C 698.03 611.27 652.29 588.33 634.81 547.44
  C 612.67 495.62 642.19 436.69 696.48 423.18
  Q 721.08 417.06 746.04 424.85
  Z"
/>
<path fill="#18171d" d="
  M 746.04 424.85
  Q 773.18 433.83 790.82 456.51
  Q 797.89 466.49 803.53 478.09
  Q 808.54 511.25 803.76 544.25
  L 796.23 558.48
  C 783.94 578.49 764.52 593.47 741.70 599.33
  Q 754.46 592.54 766.34 584.82
  C 798.12 564.16 801.78 527.49 797.73 493.09
  Q 794.87 468.77 782.31 450.19
  Q 778.93 445.20 774.46 441.53
  Q 767.86 436.11 764.86 434.62
  Q 755.38 429.91 746.04 424.85
  Z"
/>
<path fill="#33323b" d="
  M 801.32 556.02
  L 795.79 575.27
  C 795.04 570.87 796.90 566.04 798.29 561.13
  Q 799.26 557.69 801.32 556.02
  Z"
/>
<path fill="#100f14" d="
  M 1024.00 753.04
  L 1024.00 1024.00
  L 0.00 1024.00
  L 0.00 724.32
  Q 21.37 738.84 37.64 749.13
  Q 163.50 828.77 308.35 862.97
  Q 353.83 873.71 395.38 878.78
  Q 402.07 879.60 405.54 879.25
  A 0.53 0.53 0.0 0 0 405.77 878.27
  Q 403.45 876.84 401.78 876.23
  C 380.40 868.50 358.95 861.02 339.89 850.15
  C 332.44 845.90 324.42 838.80 316.82 833.38
  C 303.79 824.10 294.25 817.52 284.37 808.42
  Q 281.21 805.51 275.34 799.06
  C 251.94 773.30 234.77 755.35 220.37 731.55
  Q 197.02 692.95 182.49 656.21
  Q 173.83 634.30 169.13 608.24
  Q 197.67 707.54 273.49 776.28
  C 343.58 839.83 436.64 872.43 531.16 867.44
  C 626.51 862.41 715.54 819.12 778.65 747.90
  Q 850.55 666.76 865.27 556.80
  Q 864.09 571.91 863.44 576.49
  C 857.28 619.68 843.67 664.01 821.43 701.91
  Q 819.55 705.11 807.96 723.77
  C 795.65 743.60 781.43 762.06 767.48 778.33
  Q 759.60 787.52 747.81 798.23
  C 733.39 811.34 718.06 824.24 702.64 834.14
  C 686.66 844.40 668.74 852.80 650.09 860.71
  Q 633.42 867.78 617.09 872.73
  C 605.98 876.10 595.46 878.39 580.95 881.93
  C 576.20 883.09 570.76 885.57 566.85 886.59
  C 563.02 887.59 533.92 894.33 540.19 902.23
  C 544.73 907.97 560.60 907.77 567.55 907.69
  Q 581.22 907.55 596.62 906.18
  C 723.61 894.84 848.86 855.41 959.52 792.81
  Q 990.69 775.18 1024.00 753.04
  Z"
/>
<path fill="#7a7a8c" d="
  M 800.25 570.10
  Q 787.14 635.03 747.62 687.89
  Q 716.11 730.04 672.01 758.76
  Q 669.57 760.36 666.98 761.79
  Q 667.88 759.40 669.84 757.89
  Q 679.76 750.24 694.40 738.43
  C 701.84 732.42 707.21 726.59 714.10 720.43
  Q 716.99 717.86 721.57 712.76
  Q 737.25 695.31 743.40 686.91
  Q 770.27 650.21 785.08 607.50
  Q 787.13 601.60 790.38 594.53
  Q 795.81 582.71 800.25 570.10
  Z"
/>
<path fill="#18171d" d="
  M 577.74 571.22
  Q 604.67 631.64 665.30 654.73
  Q 698.04 667.21 734.92 663.15
  Q 704.94 687.83 668.94 698.93
  C 582.84 725.48 491.55 691.03 443.85 615.02
  Q 452.92 625.10 461.76 635.04
  C 481.65 657.40 506.80 677.28 534.60 688.77
  C 589.58 711.49 653.71 708.38 705.42 678.30
  Q 708.44 676.55 709.95 674.42
  A 1.69 1.68 -54.3 0 0 709.57 672.07
  Q 707.72 670.72 704.83 670.16
  C 693.77 667.99 684.70 666.62 675.56 663.86
  Q 657.16 658.29 639.72 646.86
  Q 596.53 618.55 577.74 571.22
  Z"
/>
</svg>