<?xml version="1.0" encoding="UTF-8" standalone="no"?>
<!DOCTYPE svg PUBLIC "-//W3C//DTD SVG 1.1//EN" "http://www.w3.org/Graphics/SVG/1.1/DTD/svg11.dtd">
<svg xmlns="http://www.w3.org/2000/svg" version="1.1" viewBox="0.00 0.00 256.00 256.00" width="128" height="128">
<g stroke-width="2.00" fill="none" stroke-linecap="butt">
<path stroke="#b383e7" vector-effect="non-scaling-stroke" d="
  M 42.57 98.35
  C 46.06 105.00 53.77 101.94 57.88 98.11
  C 64.20 92.23 72.50 83.39 81.51 77.50
  C 100.04 65.40 125.35 60.98 146.15 70.17
  Q 154.47 73.84 158.75 79.12
  C 173.96 97.87 156.20 118.56 141.78 129.81
  C 123.25 144.26 92.96 163.85 106.54 192.73
  Q 114.79 210.28 133.87 215.90
  C 149.57 220.53 166.67 215.23 179.66 205.84
  C 193.89 195.55 204.67 180.53 212.50 164.35
  C 215.14 158.90 214.63 151.77 207.40 150.89
  C 203.70 150.44 199.97 153.76 198.12 156.62
  C 191.33 167.13 183.82 176.97 173.38 183.78
  C 164.70 189.45 155.52 193.09 145.52 190.12
  Q 141.35 188.88 139.56 187.22
  C 132.30 180.46 135.49 172.83 141.77 167.02
  C 151.16 158.34 162.01 151.36 171.71 143.30
  C 191.44 126.89 211.39 97.07 198.24 70.48
  C 189.26 52.33 168.14 42.87 149.17 39.81
  Q 125.96 36.05 103.85 42.22
  C 80.80 48.66 62.19 62.18 47.89 81.64
  C 44.95 85.65 40.32 94.06 42.57 98.35"
/>
<path stroke="#b383e7" vector-effect="non-scaling-stroke" d="
  M 77.38 207.91
  C 80.59 209.60 83.80 207.68 84.31 204.30
  Q 84.51 202.96 82.89 200.10
  Q 78.63 192.60 75.51 180.78
  C 67.36 149.91 96.83 131.16 117.65 115.41
  Q 122.31 111.89 123.88 109.13
  C 127.25 103.21 125.04 98.11 119.10 95.90
  C 111.61 93.11 101.80 94.83 94.27 97.85
  Q 71.28 107.08 56.99 127.04
  C 41.49 148.68 41.68 175.53 60.23 194.80
  Q 68.24 203.12 77.38 207.91"
/>
</g>
<path fill="#6706ce" d="
  M 132.43 0.00
  Q 175.79 1.92 208.09 28.16
  Q 252.71 64.39 256.00 123.42
  L 256.00 132.35
  Q 254.09 176.02 227.50 208.50
  Q 191.25 252.78 132.48 256.00
  L 123.57 256.00
  C 56.42 253.13 2.83 200.35 0.00 132.60
  L 0.00 123.52
  C 2.73 55.91 56.24 2.85 123.44 0.00
  L 132.43 0.00
  Z
  M 42.57 98.35
  C 46.06 105.00 53.77 101.94 57.88 98.11
  C 64.20 92.23 72.50 83.39 81.51 77.50
  C 100.04 65.40 125.35 60.98 146.15 70.17
  Q 154.47 73.84 158.75 79.12
  C 173.96 97.87 156.20 118.56 141.78 129.81
  C 123.25 144.26 92.96 163.85 106.54 192.73
  Q 114.79 210.28 133.87 215.90
  C 149.57 220.53 166.67 215.23 179.66 205.84
  C 193.89 195.55 204.67 180.53 212.50 164.35
  C 215.14 158.90 214.63 151.77 207.40 150.89
  C 203.70 150.44 199.97 153.76 198.12 156.62
  C 191.33 167.13 183.82 176.97 173.38 183.78
  C 164.70 189.45 155.52 193.09 145.52 190.12
  Q 141.35 188.88 139.56 187.22
  C 132.30 180.46 135.49 172.83 141.77 167.02
  C 151.16 158.34 162.01 151.36 171.71 143.30
  C 191.44 126.89 211.39 97.07 198.24 70.48
  C 189.26 52.33 168.14 42.87 149.17 39.81
  Q 125.96 36.05 103.85 42.22
  C 80.80 48.66 62.19 62.18 47.89 81.64
  C 44.95 85.65 40.32 94.06 42.57 98.35
  Z
  M 77.38 207.91
  C 80.59 209.60 83.80 207.68 84.31 204.30
  Q 84.51 202.96 82.89 200.10
  Q 78.63 192.60 75.51 180.78
  C 67.36 149.91 96.83 131.16 117.65 115.41
  Q 122.31 111.89 123.88 109.13
  C 127.25 103.21 125.04 98.11 119.10 95.90
  C 111.61 93.11 101.80 94.83 94.27 97.85
  Q 71.28 107.08 56.99 127.04
  C 41.49 148.68 41.68 175.53 60.23 194.80
  Q 68.24 203.12 77.38 207.91
  Z"
/>
<path fill="#ffffff" d="
  M 42.57 98.35
  C 40.32 94.06 44.95 85.65 47.89 81.64
  C 62.19 62.18 80.80 48.66 103.85 42.22
  Q 125.96 36.05 149.17 39.81
  C 168.14 42.87 189.26 52.33 198.24 70.48
  C 211.39 97.07 191.44 126.89 171.71 143.30
  C 162.01 151.36 151.16 158.34 141.77 167.02
  C 135.49 172.83 132.30 180.46 139.56 187.22
  Q 141.35 188.88 145.52 190.12
  C 155.52 193.09 164.70 189.45 173.38 183.78
  C 183.82 176.97 191.33 167.13 198.12 156.62
  C 199.97 153.76 203.70 150.44 207.40 150.89
  C 214.63 151.77 215.14 158.90 212.50 164.35
  C 204.67 180.53 193.89 195.55 179.66 205.84
  C 166.67 215.23 149.57 220.53 133.87 215.90
  Q 114.79 210.28 106.54 192.73
  C 92.96 163.85 123.25 144.26 141.78 129.81
  C 156.20 118.56 173.96 97.87 158.75 79.12
  Q 154.47 73.84 146.15 70.17
  C 125.35 60.98 100.04 65.40 81.51 77.50
  C 72.50 83.39 64.20 92.23 57.88 98.11
  C 53.77 101.94 46.06 105.00 42.57 98.35
  Z"
/>
<path fill="#ffffff" d="
  M 84.31 204.30
  C 83.80 207.68 80.59 209.60 77.38 207.91
  Q 68.24 203.12 60.23 194.80
  C 41.68 175.53 41.49 148.68 56.99 127.04
  Q 71.28 107.08 94.27 97.85
  C 101.80 94.83 111.61 93.11 119.10 95.90
  C 125.04 98.11 127.25 103.21 123.88 109.13
  Q 122.31 111.89 117.65 115.41
  C 96.83 131.16 67.36 149.91 75.51 180.78
  Q 78.63 192.60 82.89 200.10
  Q 84.51 202.96 84.31 204.30
  Z"
/>
</svg>