<?xml version="1.0" encoding="UTF-8" standalone="no"?>
<!DOCTYPE svg PUBLIC "-//W3C//DTD SVG 1.1//EN" "http://www.w3.org/Graphics/SVG/1.1/DTD/svg11.dtd">
<svg xmlns="http://www.w3.org/2000/svg" version="1.1" viewBox="0.00 0.00 256.00 256.00" width="128" height="128">
<path stroke="#92b1f5" stroke-width="2.00" fill="none" stroke-linecap="butt" vector-effect="non-scaling-stroke" d="
  M 149.46 90.83
  C 147.59 88.13 148.49 84.42 149.90 81.07
  Q 157.94 62.06 161.41 54.15
  Q 164.28 47.59 164.42 45.18
  Q 164.75 39.55 160.85 35.47
  A 3.00 2.92 -9.4 0 0 159.89 34.80
  Q 156.41 33.26 151.52 32.89
  Q 147.64 32.61 124.26 32.73
  C 117.27 32.77 109.04 33.03 105.70 39.98
  Q 98.23 55.53 89.11 75.82
  Q 86.72 81.14 85.72 85.51
  C 84.68 90.04 87.63 95.44 92.76 95.52
  Q 108.91 95.79 128.74 95.68
  Q 134.97 95.65 141.35 97.50
  A 3.23 3.20 -2.7 0 1 143.42 99.37
  C 146.24 106.36 149.90 112.91 152.54 119.84
  Q 155.69 128.13 160.24 137.60
  C 161.43 140.08 162.63 143.45 163.14 146.08
  Q 164.05 150.75 159.58 152.36
  Q 154.61 154.14 148.00 154.11
  Q 76.84 153.80 62.00 153.94
  C 56.44 154.00 51.67 163.51 49.67 168.65
  Q 43.09 185.51 37.22 201.45
  C 35.81 205.29 35.23 210.56 38.10 213.83
  C 41.07 217.20 50.92 216.94 55.75 216.94
  Q 91.44 216.92 130.78 216.89
  Q 137.61 216.88 140.97 215.66
  Q 142.68 215.04 143.62 213.35
  C 149.67 202.48 153.46 193.01 163.29 171.00
  Q 166.65 163.47 169.66 159.65
  C 172.52 156.02 179.81 156.15 184.25 156.22
  Q 208.13 156.59 213.25 156.31
  C 218.75 156.00 225.78 155.84 225.47 148.93
  Q 225.29 144.77 223.42 140.07
  Q 211.13 109.10 208.26 102.51
  Q 206.73 99.01 205.38 98.08
  Q 199.17 93.83 191.48 93.81
  Q 167.37 93.76 162.50 93.84
  Q 159.51 93.89 155.07 93.48
  Q 151.03 93.10 149.46 90.83"
/>
<path fill="#2563eb" d="
  M 198.39 0.00
  Q 206.32 0.31 209.23 1.53
  Q 220.76 6.37 230.45 13.25
  C 241.84 21.34 249.26 32.97 254.03 45.97
  C 255.87 50.97 255.62 56.59 256.00 61.75
  L 256.00 198.97
  Q 255.85 205.90 253.52 212.03
  C 249.56 222.49 243.75 232.45 235.45 239.75
  Q 224.79 249.14 211.16 253.73
  C 205.70 255.56 199.75 255.79 193.87 256.00
  L 58.28 256.00
  Q 48.48 255.95 37.73 250.51
  Q 19.65 241.37 10.26 225.81
  Q 3.82 215.14 1.39 208.07
  Q 0.46 205.37 0.00 198.76
  L 0.00 65.76
  C 0.33 61.62 0.33 56.93 1.04 53.24
  C 2.47 45.69 6.17 37.61 9.88 31.36
  C 18.50 16.85 31.20 8.54 47.04 2.31
  Q 52.92 -0.01 58.41 0.00
  L 198.39 0.00
  Z
  M 149.46 90.83
  C 147.59 88.13 148.49 84.42 149.90 81.07
  Q 157.94 62.06 161.41 54.15
  Q 164.28 47.59 164.42 45.18
  Q 164.75 39.55 160.85 35.47
  A 3.00 2.92 -9.4 0 0 159.89 34.80
  Q 156.41 33.26 151.52 32.89
  Q 147.64 32.61 124.26 32.73
  C 117.27 32.77 109.04 33.03 105.70 39.98
  Q 98.23 55.53 89.11 75.82
  Q 86.72 81.14 85.72 85.51
  C 84.68 90.04 87.63 95.44 92.76 95.52
  Q 108.91 95.79 128.74 95.68
  Q 134.97 95.65 141.35 97.50
  A 3.23 3.20 -2.7 0 1 143.42 99.37
  C 146.24 106.36 149.90 112.91 152.54 119.84
  Q 155.69 128.13 160.24 137.60
  C 161.43 140.08 162.63 143.45 163.14 146.08
  Q 164.05 150.75 159.58 152.36
  Q 154.61 154.14 148.00 154.11
  Q 76.84 153.80 62.00 153.94
  C 56.44 154.00 51.67 163.51 49.67 168.65
  Q 43.09 185.51 37.22 201.45
  C 35.81 205.29 35.23 210.56 38.10 213.83
  C 41.07 217.20 50.92 216.94 55.75 216.94
  Q 91.44 216.92 130.78 216.89
  Q 137.61 216.88 140.97 215.66
  Q 142.68 215.04 143.62 213.35
  C 149.67 202.48 153.46 193.01 163.29 171.00
  Q 166.65 163.47 169.66 159.65
  C 172.52 156.02 179.81 156.15 184.25 156.22
  Q 208.13 156.59 213.25 156.31
  C 218.75 156.00 225.78 155.84 225.47 148.93
  Q 225.29 144.77 223.42 140.07
  Q 211.13 109.10 208.26 102.51
  Q 206.73 99.01 205.38 98.08
  Q 199.17 93.83 191.48 93.81
  Q 167.37 93.76 162.50 93.84
  Q 159.51 93.89 155.07 93.48
  Q 151.03 93.10 149.46 90.83
  Z"
/>
<path fill="#ffffff" d="
  M 149.46 90.83
  Q 151.03 93.10 155.07 93.48
  Q 159.51 93.89 162.50 93.84
  Q 167.37 93.76 191.48 93.81
  Q 199.17 93.83 205.38 98.08
  Q 206.73 99.01 208.26 102.51
  Q 211.13 109.10 223.42 140.07
  Q 225.29 144.77 225.47 148.93
  C 225.78 155.84 218.75 156.00 213.25 156.31
  Q 208.13 156.59 184.25 156.22
  C 179.81 156.15 172.52 156.02 169.66 159.65
  Q 166.65 163.47 163.29 171.00
  C 153.46 193.01 149.67 202.48 143.62 213.35
  Q 142.68 215.04 140.97 215.66
  Q 137.61 216.88 130.78 216.89
  Q 91.44 216.92 55.75 216.94
  C 50.92 216.94 41.07 217.20 38.10 213.83
  C 35.23 210.56 35.81 205.29 37.22 201.45
  Q 43.09 185.51 49.67 168.65
  C 51.67 163.51 56.44 154.00 62.00 153.94
  Q 76.84 153.80 148.00 154.11
  Q 154.61 154.14 159.58 152.36
  Q 164.05 150.75 163.14 146.08
  C 162.63 143.45 161.43 140.08 160.24 137.60
  Q 155.69 128.13 152.54 119.84
  C 149.90 112.91 146.24 106.36 143.42 99.37
  A 3.23 3.20 -2.7 0 0 141.35 97.50
  Q 134.97 95.65 128.74 95.68
  Q 108.91 95.79 92.76 95.52
  C 87.63 95.44 84.68 90.04 85.72 85.51
  Q 86.72 81.14 89.11 75.82
  Q 98.23 55.53 105.70 39.98
  C 109.04 33.03 117.27 32.77 124.26 32.73
  Q 147.64 32.61 151.52 32.89
  Q 156.41 33.26 159.89 34.80
  A 3.00 2.92 -9.4 0 1 160.85 35.47
  Q 164.75 39.55 164.42 45.18
  Q 164.28 47.59 161.41 54.15
  Q 157.94 62.06 149.90 81.07
  C 148.49 84.42 147.59 88.13 149.46 90.83
  Z"
/>
</svg>