<?xml version="1.0" encoding="UTF-8" standalone="no"?>
<!DOCTYPE svg PUBLIC "-//W3C//DTD SVG 1.1//EN" "http://www.w3.org/Graphics/SVG/1.1/DTD/svg11.dtd">
<svg xmlns="http://www.w3.org/2000/svg" version="1.1" viewBox="0.00 0.00 180.00 180.00" width="128" height="128">
<g stroke-width="2.00" fill="none" stroke-linecap="butt">
<path stroke="#2b3349" vector-effect="non-scaling-stroke" d="
  M 180.00 81.01
  Q 164.79 80.17 152.45 89.34"
/>
<path stroke="#969aa6" vector-effect="non-scaling-stroke" d="
  M 152.45 89.34
  Q 152.32 60.89 152.39 32.75
  Q 152.40 28.05 147.75 28.64
  C 128.86 31.06 107.90 37.01 92.63 45.60
  Q 76.24 54.80 66.17 70.47
  A 3.49 3.42 -87.0 0 1 64.89 71.65
  Q 59.15 74.68 57.35 75.61
  C 35.05 87.17 20.82 109.83 20.85 135.25
  A 2.88 2.86 -81.2 0 0 22.83 137.97
  Q 24.51 138.51 26.55 138.39"
/>
<path stroke="#2b3349" vector-effect="non-scaling-stroke" d="
  M 26.55 138.39
  Q 13.97 151.71 0.00 163.42"
/>
<path stroke="#9598a2" vector-effect="non-scaling-stroke" d="
  M 152.45 89.34
  L 152.44 104.47
  A 3.91 3.89 -20.1 0 1 151.05 107.45
  L 115.66 137.27
  A 4.90 4.88 24.9 0 1 112.52 138.41
  L 26.55 138.39"
/>
<path stroke="#969aa6" vector-effect="non-scaling-stroke" d="
  M 77.13 67.06
  Q 93.54 61.37 110.40 59.19
  A 5.03 4.97 -68.5 0 0 112.96 58.06
  L 137.34 37.51
  A 0.26 0.26 0.0 0 0 137.12 37.05
  Q 119.12 40.57 102.47 47.98
  Q 86.26 55.20 76.86 66.69
  A 0.24 0.24 0.0 0 0 77.13 67.06"
/>
<path stroke="#9598a2" vector-effect="non-scaling-stroke" d="
  M 145.74 103.40
  A 0.34 0.34 0.0 0 0 145.86 103.14
  L 145.86 39.58
  A 0.34 0.34 0.0 0 0 145.30 39.32
  L 116.66 63.46
  A 0.34 0.34 0.0 0 0 116.54 63.72
  L 116.54 127.27
  A 0.34 0.34 0.0 0 0 117.10 127.53
  L 145.74 103.40"
/>
<path stroke="#9598a2" vector-effect="non-scaling-stroke" d="
  M 109.16 65.90
  Q 89.22 68.86 70.64 76.53
  A 2.25 2.24 1.4 0 0 69.48 77.63
  Q 64.12 88.74 63.39 100.80
  A 0.63 0.62 1.7 0 0 64.02 101.46
  L 109.30 101.46
  A 0.56 0.56 0.0 0 0 109.86 100.90
  L 109.86 66.50
  A 0.61 0.61 0.0 0 0 109.16 65.90"
/>
<path stroke="#969aa6" vector-effect="non-scaling-stroke" d="
  M 60.45 81.32
  C 44.78 89.47 32.83 103.81 28.81 121.33
  Q 27.92 125.19 27.98 126.79
  A 0.38 0.38 0.0 0 0 28.60 127.07
  L 56.00 103.98
  A 2.40 2.38 -19.7 0 0 56.85 102.20
  Q 57.01 91.79 60.88 81.71
  A 0.31 0.31 0.0 0 0 60.45 81.32"
/>
<path stroke="#9598a2" vector-effect="non-scaling-stroke" d="
  M 109.87 108.45
  A 0.31 0.31 0.0 0 0 109.56 108.14
  L 61.26 108.14
  A 0.31 0.31 0.0 0 0 61.06 108.21
  L 33.66 131.30
  A 0.31 0.31 0.0 0 0 33.86 131.85
  L 109.56 131.85
  A 0.31 0.31 0.0 0 0 109.87 131.54
  L 109.87 108.45"
/>
</g>
<path fill="#2c344d" d="
  M 180.00 0.00
  L 180.00 81.01
  Q 164.79 80.17 152.45 89.34
  Q 152.32 60.89 152.39 32.75
  Q 152.40 28.05 147.75 28.64
  C 128.86 31.06 107.90 37.01 92.63 45.60
  Q 76.24 54.80 66.17 70.47
  A 3.49 3.42 -87.0 0 1 64.89 71.65
  Q 59.15 74.68 57.35 75.61
  C 35.05 87.17 20.82 109.83 20.85 135.25
  A 2.88 2.86 -81.2 0 0 22.83 137.97
  Q 24.51 138.51 26.55 138.39
  Q 13.97 151.71 0.00 163.42
  L 0.00 0.00
  L 180.00 0.00
  Z"
/>
<path fill="#ffffff" d="
  M 152.45 89.34
  L 152.44 104.47
  A 3.91 3.89 -20.1 0 1 151.05 107.45
  L 115.66 137.27
  A 4.90 4.88 24.9 0 1 112.52 138.41
  L 26.55 138.39
  Q 24.51 138.51 22.83 137.97
  A 2.88 2.86 -81.2 0 1 20.85 135.25
  C 20.82 109.83 35.05 87.17 57.35 75.61
  Q 59.15 74.68 64.89 71.65
  A 3.49 3.42 -87.0 0 0 66.17 70.47
  Q 76.24 54.80 92.63 45.60
  C 107.90 37.01 128.86 31.06 147.75 28.64
  Q 152.40 28.05 152.39 32.75
  Q 152.32 60.89 152.45 89.34
  Z
  M 77.13 67.06
  Q 93.54 61.37 110.40 59.19
  A 5.03 4.97 -68.5 0 0 112.96 58.06
  L 137.34 37.51
  A 0.26 0.26 0.0 0 0 137.12 37.05
  Q 119.12 40.57 102.47 47.98
  Q 86.26 55.20 76.86 66.69
  A 0.24 0.24 0.0 0 0 77.13 67.06
  Z
  M 145.74 103.40
  A 0.34 0.34 0.0 0 0 145.86 103.14
  L 145.86 39.58
  A 0.34 0.34 0.0 0 0 145.30 39.32
  L 116.66 63.46
  A 0.34 0.34 0.0 0 0 116.54 63.72
  L 116.54 127.27
  A 0.34 0.34 0.0 0 0 117.10 127.53
  L 145.74 103.40
  Z
  M 109.16 65.90
  Q 89.22 68.86 70.64 76.53
  A 2.25 2.24 1.4 0 0 69.48 77.63
  Q 64.12 88.74 63.39 100.80
  A 0.63 0.62 1.7 0 0 64.02 101.46
  L 109.30 101.46
  A 0.56 0.56 0.0 0 0 109.86 100.90
  L 109.86 66.50
  A 0.61 0.61 0.0 0 0 109.16 65.90
  Z
  M 60.45 81.32
  C 44.78 89.47 32.83 103.81 28.81 121.33
  Q 27.92 125.19 27.98 126.79
  A 0.38 0.38 0.0 0 0 28.60 127.07
  L 56.00 103.98
  A 2.40 2.38 -19.7 0 0 56.85 102.20
  Q 57.01 91.79 60.88 81.71
  A 0.31 0.31 0.0 0 0 60.45 81.32
  Z
  M 109.87 108.45
  A 0.31 0.31 0.0 0 0 109.56 108.14
  L 61.26 108.14
  A 0.31 0.31 0.0 0 0 61.06 108.21
  L 33.66 131.30
  A 0.31 0.31 0.0 0 0 33.86 131.85
  L 109.56 131.85
  A 0.31 0.31 0.0 0 0 109.87 131.54
  L 109.87 108.45
  Z"
/>
<path fill="#2c344d" d="
  M 76.86 66.69
  Q 86.26 55.20 102.47 47.98
  Q 119.12 40.57 137.12 37.05
  A 0.26 0.26 0.0 0 1 137.34 37.51
  L 112.96 58.06
  A 5.03 4.97 -68.5 0 1 110.40 59.19
  Q 93.54 61.37 77.13 67.06
  A 0.24 0.24 0.0 0 1 76.86 66.69
  Z"
/>
<path fill="#2a3145" d="
  M 145.74 103.40
  L 117.10 127.53
  A 0.34 0.34 0.0 0 1 116.54 127.27
  L 116.54 63.72
  A 0.34 0.34 0.0 0 1 116.66 63.46
  L 145.30 39.32
  A 0.34 0.34 0.0 0 1 145.86 39.58
  L 145.86 103.14
  A 0.34 0.34 0.0 0 1 145.74 103.40
  Z"
/>
<path fill="#2a3145" d="
  M 109.86 66.50
  L 109.86 100.90
  A 0.56 0.56 0.0 0 1 109.30 101.46
  L 64.02 101.46
  A 0.63 0.62 1.7 0 1 63.39 100.80
  Q 64.12 88.74 69.48 77.63
  A 2.25 2.24 1.4 0 1 70.64 76.53
  Q 89.22 68.86 109.16 65.90
  A 0.61 0.61 0.0 0 1 109.86 66.50
  Z"
/>
<path fill="#2a3145" d="
  M 180.00 81.01
  L 180.00 180.00
  L 0.00 180.00
  L 0.00 163.42
  Q 13.97 151.71 26.55 138.39
  L 112.52 138.41
  A 4.90 4.88 24.9 0 0 115.66 137.27
  L 151.05 107.45
  A 3.91 3.89 -20.1 0 0 152.44 104.47
  L 152.45 89.34
  Q 164.79 80.17 180.00 81.01
  Z"
/>
<path fill="#2c344d" d="
  M 60.45 81.32
  A 0.31 0.31 0.0 0 1 60.88 81.71
  Q 57.01 91.79 56.85 102.20
  A 2.40 2.38 -19.7 0 1 56.00 103.98
  L 28.60 127.07
  A 0.38 0.38 0.0 0 1 27.98 126.79
  Q 27.92 125.19 28.81 121.33
  C 32.83 103.81 44.78 89.47 60.45 81.32
  Z"
/>
<path fill="#2a3145" d="
  M 109.87 108.45
  L 109.87 131.54
  A 0.31 0.31 0.0 0 1 109.56 131.85
  L 33.86 131.85
  A 0.31 0.31 0.0 0 1 33.66 131.30
  L 61.06 108.21
  A 0.31 0.31 0.0 0 1 61.26 108.14
  L 109.56 108.14
  A 0.31 0.31 0.0 0 1 109.87 108.45
  Z"
/>
</svg>