<?xml version="1.0" encoding="UTF-8" standalone="no"?>
<!DOCTYPE svg PUBLIC "-//W3C//DTD SVG 1.1//EN" "http://www.w3.org/Graphics/SVG/1.1/DTD/svg11.dtd">
<svg xmlns="http://www.w3.org/2000/svg" version="1.1" viewBox="0.00 0.00 180.00 180.00" width="128" height="128">
<g stroke-width="2.00" fill="none" stroke-linecap="butt">
<path stroke="#8e5852" vector-effect="non-scaling-stroke" d="
  M 44.94 33.47
  A 5.74 5.74 0.0 0 0 39.20 27.73
  A 5.74 5.74 0.0 0 0 33.46 33.47
  A 5.74 5.74 0.0 0 0 39.20 39.21
  A 5.74 5.74 0.0 0 0 44.94 33.47"
/>
<path stroke="#8e5852" vector-effect="non-scaling-stroke" d="
  M 145.84 33.49
  A 5.75 5.75 0.0 0 0 140.09 27.74
  A 5.75 5.75 0.0 0 0 134.34 33.49
  A 5.75 5.75 0.0 0 0 140.09 39.24
  A 5.75 5.75 0.0 0 0 145.84 33.49"
/>
<path stroke="#947e65" vector-effect="non-scaling-stroke" d="
  M 76.43 70.39
  Q 79.69 67.13 84.53 65.49
  A 0.47 0.47 0.0 0 0 84.71 64.72
  L 73.03 52.96
  A 0.78 0.78 0.0 0 1 73.03 51.86
  L 82.26 42.68
  A 0.43 0.43 0.0 0 0 81.95 41.95
  Q 65.56 41.95 49.84 41.98
  Q 48.62 41.99 48.31 42.30
  Q 48.01 42.60 48.01 43.82
  Q 47.98 59.54 47.99 75.93
  A 0.43 0.43 0.0 0 0 48.72 76.23
  L 57.89 67.00
  A 0.78 0.78 0.0 0 1 59.00 67.00
  L 70.76 78.68
  A 0.47 0.47 0.0 0 0 71.53 78.50
  Q 73.17 73.65 76.43 70.39"
/>
<path stroke="#947e65" vector-effect="non-scaling-stroke" d="
  M 103.67 70.40
  Q 106.93 73.65 108.57 78.49
  A 0.47 0.47 0.0 0 0 109.35 78.67
  L 121.08 66.99
  A 0.78 0.78 0.0 0 1 122.18 66.99
  L 131.36 76.20
  A 0.43 0.43 0.0 0 0 132.08 75.89
  Q 132.07 59.52 132.02 43.82
  Q 132.02 42.60 131.72 42.31
  Q 131.41 41.99 130.19 41.99
  Q 114.49 41.98 98.12 42.00
  A 0.43 0.43 0.0 0 0 97.81 42.73
  L 107.04 51.88
  A 0.78 0.78 0.0 0 1 107.05 52.99
  L 95.39 64.74
  A 0.47 0.47 0.0 0 0 95.57 65.52
  Q 100.41 67.15 103.67 70.40"
/>
<path stroke="#8e5852" vector-effect="non-scaling-stroke" d="
  M 103.97 83.75
  A 13.92 13.92 0.0 0 0 90.05 69.83
  A 13.92 13.92 0.0 0 0 76.13 83.75
  A 13.92 13.92 0.0 0 0 90.05 97.67
  A 13.92 13.92 0.0 0 0 103.97 83.75"
/>
<path stroke="#947e65" vector-effect="non-scaling-stroke" d="
  M 98.19 100.89
  Q 94.02 102.83 88.90 102.72
  A 0.47 0.47 0.0 0 0 88.47 103.38
  L 95.42 118.42
  A 0.78 0.78 0.0 0 1 95.04 119.46
  L 83.23 124.92
  A 0.43 0.43 0.0 0 0 83.27 125.71
  Q 98.66 131.32 113.44 136.67
  Q 114.58 137.09 114.99 136.90
  Q 115.37 136.72 115.79 135.58
  Q 121.19 120.82 126.80 105.43
  A 0.43 0.43 0.0 0 0 126.22 104.89
  L 114.44 110.42
  A 0.78 0.78 0.0 0 1 113.40 110.04
  L 106.35 95.05
  A 0.47 0.47 0.0 0 0 105.57 94.95
  Q 102.37 98.94 98.19 100.89"
/>
<path stroke="#8e5852" vector-effect="non-scaling-stroke" d="
  M 124.77 147.26
  A 5.75 5.75 0.0 0 0 119.02 141.51
  A 5.75 5.75 0.0 0 0 113.27 147.26
  A 5.75 5.75 0.0 0 0 119.02 153.01
  A 5.75 5.75 0.0 0 0 124.77 147.26"
/>
</g>
<path fill="#2a3b7e" d="
  M 180.00 0.00
  L 180.00 180.00
  L 0.00 180.00
  L 0.00 0.00
  L 180.00 0.00
  Z
  M 44.94 33.47
  A 5.74 5.74 0.0 0 0 39.20 27.73
  A 5.74 5.74 0.0 0 0 33.46 33.47
  A 5.74 5.74 0.0 0 0 39.20 39.21
  A 5.74 5.74 0.0 0 0 44.94 33.47
  Z
  M 145.84 33.49
  A 5.75 5.75 0.0 0 0 140.09 27.74
  A 5.75 5.75 0.0 0 0 134.34 33.49
  A 5.75 5.75 0.0 0 0 140.09 39.24
  A 5.75 5.75 0.0 0 0 145.84 33.49
  Z
  M 76.43 70.39
  Q 79.69 67.13 84.53 65.49
  A 0.47 0.47 0.0 0 0 84.71 64.72
  L 73.03 52.96
  A 0.78 0.78 0.0 0 1 73.03 51.86
  L 82.26 42.68
  A 0.43 0.43 0.0 0 0 81.95 41.95
  Q 65.56 41.95 49.84 41.98
  Q 48.62 41.99 48.31 42.30
  Q 48.01 42.60 48.01 43.82
  Q 47.98 59.54 47.99 75.93
  A 0.43 0.43 0.0 0 0 48.72 76.23
  L 57.89 67.00
  A 0.78 0.78 0.0 0 1 59.00 67.00
  L 70.76 78.68
  A 0.47 0.47 0.0 0 0 71.53 78.50
  Q 73.17 73.65 76.43 70.39
  Z
  M 103.67 70.40
  Q 106.93 73.65 108.57 78.49
  A 0.47 0.47 0.0 0 0 109.35 78.67
  L 121.08 66.99
  A 0.78 0.78 0.0 0 1 122.18 66.99
  L 131.36 76.20
  A 0.43 0.43 0.0 0 0 132.08 75.89
  Q 132.07 59.52 132.02 43.82
  Q 132.02 42.60 131.72 42.31
  Q 131.41 41.99 130.19 41.99
  Q 114.49 41.98 98.12 42.00
  A 0.43 0.43 0.0 0 0 97.81 42.73
  L 107.04 51.88
  A 0.78 0.78 0.0 0 1 107.05 52.99
  L 95.39 64.74
  A 0.47 0.47 0.0 0 0 95.57 65.52
  Q 100.41 67.15 103.67 70.40
  Z
  M 103.97 83.75
  A 13.92 13.92 0.0 0 0 90.05 69.83
  A 13.92 13.92 0.0 0 0 76.13 83.75
  A 13.92 13.92 0.0 0 0 90.05 97.67
  A 13.92 13.92 0.0 0 0 103.97 83.75
  Z
  M 98.19 100.89
  Q 94.02 102.83 88.90 102.72
  A 0.47 0.47 0.0 0 0 88.47 103.38
  L 95.42 118.42
  A 0.78 0.78 0.0 0 1 95.04 119.46
  L 83.23 124.92
  A 0.43 0.43 0.0 0 0 83.27 125.71
  Q 98.66 131.32 113.44 136.67
  Q 114.58 137.09 114.99 136.90
  Q 115.37 136.72 115.79 135.58
  Q 121.19 120.82 126.80 105.43
  A 0.43 0.43 0.0 0 0 126.22 104.89
  L 114.44 110.42
  A 0.78 0.78 0.0 0 1 113.40 110.04
  L 106.35 95.05
  A 0.47 0.47 0.0 0 0 105.57 94.95
  Q 102.37 98.94 98.19 100.89
  Z
  M 124.77 147.26
  A 5.75 5.75 0.0 0 0 119.02 141.51
  A 5.75 5.75 0.0 0 0 113.27 147.26
  A 5.75 5.75 0.0 0 0 119.02 153.01
  A 5.75 5.75 0.0 0 0 124.77 147.26
  Z"
/>
<circle fill="#f27525" cx="39.20" cy="33.47" r="5.74"/>
<circle fill="#f27525" cx="140.09" cy="33.49" r="5.75"/>
<path fill="#fec14c" d="
  M 76.43 70.39
  Q 73.17 73.65 71.53 78.50
  A 0.47 0.47 0.0 0 1 70.76 78.68
  L 59.00 67.00
  A 0.78 0.78 0.0 0 0 57.89 67.00
  L 48.72 76.23
  A 0.43 0.43 0.0 0 1 47.99 75.93
  Q 47.98 59.54 48.01 43.82
  Q 48.01 42.60 48.31 42.30
  Q 48.62 41.99 49.84 41.98
  Q 65.56 41.95 81.95 41.95
  A 0.43 0.43 0.0 0 1 82.26 42.68
  L 73.03 51.86
  A 0.78 0.78 0.0 0 0 73.03 52.96
  L 84.71 64.72
  A 0.47 0.47 0.0 0 1 84.53 65.49
  Q 79.69 67.13 76.43 70.39
  Z"
/>
<path fill="#fec14c" d="
  M 103.67 70.40
  Q 100.41 67.15 95.57 65.52
  A 0.47 0.47 0.0 0 1 95.39 64.74
  L 107.05 52.99
  A 0.78 0.78 0.0 0 0 107.04 51.88
  L 97.81 42.73
  A 0.43 0.43 0.0 0 1 98.12 42.00
  Q 114.49 41.98 130.19 41.99
  Q 131.41 41.99 131.72 42.31
  Q 132.02 42.60 132.02 43.82
  Q 132.07 59.52 132.08 75.89
  A 0.43 0.43 0.0 0 1 131.36 76.20
  L 122.18 66.99
  A 0.78 0.78 0.0 0 0 121.08 66.99
  L 109.35 78.67
  A 0.47 0.47 0.0 0 1 108.57 78.49
  Q 106.93 73.65 103.67 70.40
  Z"
/>
<circle fill="#f27525" cx="90.05" cy="83.75" r="13.92"/>
<path fill="#fec14c" d="
  M 114.99 136.90
  Q 114.58 137.09 113.44 136.67
  Q 98.66 131.32 83.27 125.71
  A 0.43 0.43 0.0 0 1 83.23 124.92
  L 95.04 119.46
  A 0.78 0.78 0.0 0 0 95.42 118.42
  L 88.47 103.38
  A 0.47 0.47 0.0 0 1 88.90 102.72
  Q 94.02 102.83 98.19 100.89
  Q 102.37 98.94 105.57 94.95
  A 0.47 0.47 0.0 0 1 106.35 95.05
  L 113.40 110.04
  A 0.78 0.78 0.0 0 0 114.44 110.42
  L 126.22 104.89
  A 0.43 0.43 0.0 0 1 126.80 105.43
  Q 121.19 120.82 115.79 135.58
  Q 115.37 136.72 114.99 136.90
  Z"
/>
<circle fill="#f27525" cx="119.02" cy="147.26" r="5.75"/>
</svg>