<?xml version="1.0" encoding="UTF-8" standalone="no"?>
<!DOCTYPE svg PUBLIC "-//W3C//DTD SVG 1.1//EN" "http://www.w3.org/Graphics/SVG/1.1/DTD/svg11.dtd">
<svg xmlns="http://www.w3.org/2000/svg" version="1.1" viewBox="0.00 0.00 256.00 256.00" width="128" height="128">
<path stroke="#88afea" stroke-width="2.00" fill="none" stroke-linecap="butt" vector-effect="non-scaling-stroke" d="
  M 96.86 160.26
  C 122.73 186.09 156.33 199.89 192.56 200.45
  Q 200.64 200.57 200.60 192.00
  Q 200.41 149.95 200.49 63.01
  Q 200.49 59.44 199.00 57.95
  Q 197.50 56.45 193.93 56.46
  Q 106.99 56.69 64.94 56.57
  Q 56.37 56.55 56.51 64.63
  C 57.13 100.86 70.99 134.44 96.86 160.26"
/>
<path fill="#105ed5" d="
  M 242.37 0.00
  C 249.62 0.74 254.87 7.45 256.00 14.13
  L 256.00 240.23
  Q 255.88 245.53 254.81 247.76
  Q 250.74 256.24 239.97 256.00
  L 15.00 256.00
  Q 2.59 254.94 0.00 242.59
  L 0.00 17.38
  C 0.59 8.47 6.07 1.10 15.24 0.00
  L 242.37 0.00
  Z
  M 96.86 160.26
  C 122.73 186.09 156.33 199.89 192.56 200.45
  Q 200.64 200.57 200.60 192.00
  Q 200.41 149.95 200.49 63.01
  Q 200.49 59.44 199.00 57.95
  Q 197.50 56.45 193.93 56.46
  Q 106.99 56.69 64.94 56.57
  Q 56.37 56.55 56.51 64.63
  C 57.13 100.86 70.99 134.44 96.86 160.26
  Z"
/>
<path fill="#ffffff" d="
  M 199.00 57.95
  Q 200.49 59.44 200.49 63.01
  Q 200.41 149.95 200.60 192.00
  Q 200.64 200.57 192.56 200.45
  C 156.33 199.89 122.73 186.09 96.86 160.26
  C 70.99 134.44 57.13 100.86 56.51 64.63
  Q 56.37 56.55 64.94 56.57
  Q 106.99 56.69 193.93 56.46
  Q 197.50 56.45 199.00 57.95
  Z"
/>
</svg>