<?xml version="1.0" encoding="UTF-8" standalone="no"?>
<!DOCTYPE svg PUBLIC "-//W3C//DTD SVG 1.1//EN" "http://www.w3.org/Graphics/SVG/1.1/DTD/svg11.dtd">
<svg xmlns="http://www.w3.org/2000/svg" version="1.1" viewBox="0.00 0.00 192.00 192.00" width="128" height="128">
<path fill="#0053ff" d="
  M 192.00 63.67
  L 192.00 70.64
  C 189.79 84.75 178.48 96.02 163.65 95.96
  C 159.69 95.94 153.14 95.31 149.71 98.00
  Q 142.35 103.75 139.95 114.25
  C 139.02 118.34 139.41 123.63 138.39 127.63
  C 134.33 143.43 121.35 153.72 104.76 153.69
  Q 65.50 153.62 38.34 153.70
  C 29.46 153.73 22.75 152.97 16.00 148.75
  Q 2.48 140.30 0.00 123.81
  L 0.00 116.31
  C 2.30 100.32 14.88 87.23 31.25 86.47
  Q 36.62 86.23 43.01 86.37
  C 50.90 86.54 54.99 79.23 56.99 71.99
  Q 57.34 70.71 57.65 65.66
  C 58.63 50.04 70.88 38.43 86.51 38.38
  Q 116.62 38.28 164.01 38.42
  C 178.34 38.46 189.79 49.69 192.00 63.67
  Z"
/>
</svg>