<?xml version="1.0" encoding="UTF-8" standalone="no"?>
<!DOCTYPE svg PUBLIC "-//W3C//DTD SVG 1.1//EN" "http://www.w3.org/Graphics/SVG/1.1/DTD/svg11.dtd">
<svg xmlns="http://www.w3.org/2000/svg" version="1.1" viewBox="0.00 0.00 256.00 256.00" width="128" height="128">
<g stroke-width="2.00" fill="none" stroke-linecap="butt">
<path stroke="#1655ea" vector-effect="non-scaling-stroke" d="
  M 256.00 97.66
  C 237.22 97.88 215.92 98.64 196.89 103.58
  A 0.52 0.51 -16.3 0 1 196.27 103.25
  L 195.68 101.53"
/>
<path stroke="#8daefa" vector-effect="non-scaling-stroke" d="
  M 195.68 101.53
  Q 193.87 96.99 190.30 94.96
  Q 183.09 90.86 172.87 89.68
  Q 170.34 89.39 169.19 89.88
  Q 167.37 90.64 166.38 92.24
  A 2.41 2.10 -56.6 0 0 166.80 95.33
  Q 166.88 95.39 166.89 96.48"
/>
<path stroke="#1655ea" vector-effect="non-scaling-stroke" d="
  M 166.89 96.48
  Q 165.87 95.14 165.64 93.62
  Q 165.64 93.61 165.66 93.58
  Q 165.67 93.55 165.63 93.54
  Q 165.68 93.91 165.62 94.29
  A 0.47 0.47 0.0 0 1 165.02 94.66
  C 161.38 93.54 158.24 97.23 155.67 99.38"
/>
<path stroke="#8daefa" vector-effect="non-scaling-stroke" d="
  M 155.67 99.38
  Q 157.82 97.35 157.62 94.77
  A 2.05 2.00 -63.6 0 0 157.34 93.90
  Q 154.58 89.20 149.11 89.91
  Q 142.20 90.80 139.61 91.88
  Q 133.46 94.46 130.49 94.73
  Q 125.24 95.21 121.73 93.89
  Q 117.19 92.18 109.05 90.22
  Q 104.34 89.09 101.20 91.72
  A 1.46 1.46 0.0 0 0 100.69 92.66
  Q 100.39 95.01 101.24 97.22"
/>
<path stroke="#1655ea" vector-effect="non-scaling-stroke" d="
  M 101.24 97.22
  Q 100.31 97.81 100.44 95.49
  Q 100.36 95.25 100.43 96.31
  A 0.21 0.21 0.0 0 1 100.19 96.53
  Q 99.89 96.48 99.91 96.26
  A 0.28 0.27 -89.9 0 0 99.62 95.96
  C 93.61 96.37 89.00 101.69 81.80 101.05"
/>
<path stroke="#8daefa" vector-effect="non-scaling-stroke" d="
  M 81.80 101.05
  Q 89.44 101.49 91.04 96.44
  C 92.52 91.76 89.37 89.39 85.00 89.68
  Q 77.47 90.18 70.57 92.82
  C 66.50 94.37 59.75 99.38 61.70 104.50
  A 1.50 1.46 -88.2 0 0 62.41 105.28
  Q 65.04 106.62 67.99 106.31"
/>
<path stroke="#1655ea" vector-effect="non-scaling-stroke" d="
  M 67.99 106.31
  Q 65.51 107.35 63.37 106.74
  Q 31.69 97.77 0.00 98.19"
/>
<path stroke="#88a7ef" vector-effect="non-scaling-stroke" d="
  M 195.68 101.53
  Q 196.32 104.25 194.85 105.37
  C 193.61 106.32 189.98 107.26 188.37 106.11
  Q 181.16 100.93 172.50 100.74
  Q 168.10 100.64 166.89 96.48"
/>
<path stroke="#88a7ef" vector-effect="non-scaling-stroke" d="
  M 81.80 101.05
  Q 78.67 101.17 76.62 101.87
  Q 72.69 103.21 67.99 106.31"
/>
<path stroke="#88a7ef" vector-effect="non-scaling-stroke" d="
  M 155.67 99.38
  L 142.00 102.02
  A 0.20 0.17 -49.7 0 0 141.94 102.03
  Q 136.84 103.66 133.99 104.91
  C 130.76 106.32 127.55 106.93 124.83 105.64
  Q 116.20 101.57 106.86 100.41
  Q 103.30 99.97 101.24 97.22"
/>
<path stroke="#0e4ad7" vector-effect="non-scaling-stroke" d="
  M 256.00 191.87
  Q 228.07 193.69 208.54 194.02
  C 183.52 194.45 152.28 193.89 125.24 194.05
  Q 73.35 194.35 24.23 193.50
  Q 14.36 193.33 0.00 193.77"
/>
<path stroke="#88a7ef" vector-effect="non-scaling-stroke" d="
  M 128.32 114.18
  Q 116.56 116.51 115.56 127.12
  Q 114.76 135.66 121.96 139.21
  C 126.77 141.58 131.36 141.06 135.88 138.65
  Q 138.16 137.42 138.75 136.18
  Q 144.06 124.98 135.72 117.05
  Q 134.00 115.41 132.39 114.82
  Q 129.84 113.88 128.32 114.18"
/>
<path stroke="#88a7ef" vector-effect="non-scaling-stroke" d="
  M 70.4703 119.4328
  A 11.16 11.16 0.0 0 0 54.7712 117.8104
  L 53.0019 119.2484
  A 11.16 11.16 0.0 0 0 51.3795 134.9474
  L 53.0697 137.0272
  A 11.16 11.16 0.0 0 0 68.7688 138.6496
  L 70.5381 137.2116
  A 11.16 11.16 0.0 0 0 72.1605 121.5126
  L 70.4703 119.4328"
/>
<path stroke="#88a7ef" vector-effect="non-scaling-stroke" d="
  M 195.49 115.15
  Q 185.39 115.93 182.63 126.44
  C 181.01 132.60 185.27 136.80 190.18 139.56
  Q 192.34 140.77 194.57 140.67
  C 197.85 140.52 201.28 140.75 203.81 137.86
  C 210.42 130.32 208.70 123.66 201.86 117.18
  Q 199.41 114.85 195.49 115.15"
/>
<path stroke="#88a7ef" vector-effect="non-scaling-stroke" d="
  M 107.79 155.73
  Q 105.31 156.26 102.92 157.08
  C 98.11 158.74 102.79 167.62 107.30 166.79
  Q 111.39 166.05 118.02 164.17
  A 4.11 3.67 -65.3 0 0 118.96 163.76
  Q 124.34 160.56 130.20 160.98
  Q 132.45 161.15 138.98 163.81
  Q 143.79 165.78 147.81 166.66
  Q 150.07 167.15 153.18 166.69"
/>
<path stroke="#1655ea" vector-effect="non-scaling-stroke" d="
  M 153.18 166.69
  L 156.42 166.22
  A 0.96 0.94 6.3 0 0 157.17 165.63
  L 159.86 158.73
  A 0.81 0.80 16.4 0 0 159.26 157.64
  L 139.55 153.75"
/>
<path stroke="#88a7ef" vector-effect="non-scaling-stroke" d="
  M 139.55 153.75
  Q 135.92 152.74 132.98 150.67"
/>
<path stroke="#1655ea" vector-effect="non-scaling-stroke" d="
  M 132.98 150.67
  Q 130.16 149.70 126.40 150.17
  A 0.01 0.01 0.0 0 1 126.39 150.16
  L 126.38 150.15
  A 0.02 0.01 76.7 0 1 126.39 150.12
  Q 129.58 150.17 130.92 149.61
  A 0.12 0.11 -56.0 0 0 130.88 149.39
  C 127.28 149.34 124.24 149.76 120.65 151.25
  C 116.67 152.90 111.93 153.80 107.79 155.73"
/>
<path stroke="#8daefa" vector-effect="non-scaling-stroke" d="
  M 132.98 150.67
  Q 126.06 149.98 120.87 151.90
  Q 113.05 154.79 107.79 155.73"
/>
<path stroke="#8daefa" vector-effect="non-scaling-stroke" d="
  M 139.55 153.75
  L 149.06 156.30
  A 6.96 6.63 53.5 0 0 150.09 156.48
  Q 153.88 156.78 156.27 157.48
  A 1.54 1.54 0.0 0 1 157.34 159.31
  C 156.63 162.37 156.92 165.68 153.18 166.69"
/>
<path stroke="#88a7ef" vector-effect="non-scaling-stroke" d="
  M 68.18 149.90
  Q 66.09 149.25 64.17 150.48
  C 60.94 152.54 60.52 155.99 63.24 158.72
  Q 66.01 161.49 70.05 162.94
  Q 75.59 164.94 80.13 166.12
  C 83.51 167.00 90.00 168.32 91.02 163.67
  C 91.69 160.58 91.82 157.90 88.18 157.05
  Q 81.84 155.56 77.13 154.64
  Q 72.41 153.72 69.05 150.41
  A 2.15 2.09 -13.9 0 0 68.18 149.90"
/>
<path stroke="#88a7ef" vector-effect="non-scaling-stroke" d="
  M 173.57 155.47
  C 167.90 156.24 166.06 157.80 167.34 163.70
  C 168.35 168.32 172.71 167.27 176.44 166.32
  Q 186.64 163.73 190.88 161.48
  Q 195.34 159.11 196.47 153.47
  A 1.65 1.63 33.3 0 0 196.20 152.20
  Q 194.12 149.30 190.84 149.68
  A 2.84 2.81 -61.7 0 0 189.89 149.97
  Q 186.29 151.82 182.39 153.64
  Q 180.52 154.51 173.57 155.47"
/>
</g>
<path fill="#1b5cf5" d="
  M 217.48 0.00
  Q 224.45 0.21 228.36 2.87
  Q 230.17 4.10 240.83 12.89
  C 243.34 14.95 244.91 17.04 247.35 19.60
  C 252.38 24.88 255.14 31.06 255.54 38.47
  Q 255.69 41.37 256.00 44.24
  L 256.00 97.66
  C 237.22 97.88 215.92 98.64 196.89 103.58
  A 0.52 0.51 -16.3 0 1 196.27 103.25
  L 195.68 101.53
  Q 193.87 96.99 190.30 94.96
  Q 183.09 90.86 172.87 89.68
  Q 170.34 89.39 169.19 89.88
  Q 167.37 90.64 166.38 92.24
  A 2.41 2.10 -56.6 0 0 166.80 95.33
  Q 166.88 95.39 166.89 96.48
  Q 165.87 95.14 165.64 93.62
  Q 165.64 93.61 165.66 93.58
  Q 165.67 93.55 165.63 93.54
  Q 165.68 93.91 165.62 94.29
  A 0.47 0.47 0.0 0 1 165.02 94.66
  C 161.38 93.54 158.24 97.23 155.67 99.38
  Q 157.82 97.35 157.62 94.77
  A 2.05 2.00 -63.6 0 0 157.34 93.90
  Q 154.58 89.20 149.11 89.91
  Q 142.20 90.80 139.61 91.88
  Q 133.46 94.46 130.49 94.73
  Q 125.24 95.21 121.73 93.89
  Q 117.19 92.18 109.05 90.22
  Q 104.34 89.09 101.20 91.72
  A 1.46 1.46 0.0 0 0 100.69 92.66
  Q 100.39 95.01 101.24 97.22
  Q 100.31 97.81 100.44 95.49
  Q 100.36 95.25 100.43 96.31
  A 0.21 0.21 0.0 0 1 100.19 96.53
  Q 99.89 96.48 99.91 96.26
  A 0.28 0.27 -89.9 0 0 99.62 95.96
  C 93.61 96.37 89.00 101.69 81.80 101.05
  Q 89.44 101.49 91.04 96.44
  C 92.52 91.76 89.37 89.39 85.00 89.68
  Q 77.47 90.18 70.57 92.82
  C 66.50 94.37 59.75 99.38 61.70 104.50
  A 1.50 1.46 -88.2 0 0 62.41 105.28
  Q 65.04 106.62 67.99 106.31
  Q 65.51 107.35 63.37 106.74
  Q 31.69 97.77 0.00 98.19
  L 0.00 45.62
  Q 0.24 32.46 8.08 22.33
  Q 16.16 11.89 27.09 4.60
  Q 32.78 0.80 39.39 0.00
  L 217.48 0.00
  Z"
/>
<path fill="#ffffff" d="
  M 195.68 101.53
  Q 196.32 104.25 194.85 105.37
  C 193.61 106.32 189.98 107.26 188.37 106.11
  Q 181.16 100.93 172.50 100.74
  Q 168.10 100.64 166.89 96.48
  Q 166.88 95.39 166.80 95.33
  A 2.41 2.10 -56.6 0 1 166.38 92.24
  Q 167.37 90.64 169.19 89.88
  Q 170.34 89.39 172.87 89.68
  Q 183.09 90.86 190.30 94.96
  Q 193.87 96.99 195.68 101.53
  Z"
/>
<path fill="#ffffff" d="
  M 81.80 101.05
  Q 78.67 101.17 76.62 101.87
  Q 72.69 103.21 67.99 106.31
  Q 65.04 106.62 62.41 105.28
  A 1.50 1.46 -88.2 0 1 61.70 104.50
  C 59.75 99.38 66.50 94.37 70.57 92.82
  Q 77.47 90.18 85.00 89.68
  C 89.37 89.39 92.52 91.76 91.04 96.44
  Q 89.44 101.49 81.80 101.05
  Z"
/>
<path fill="#ffffff" d="
  M 155.67 99.38
  L 142.00 102.02
  A 0.20 0.17 -49.7 0 0 141.94 102.03
  Q 136.84 103.66 133.99 104.91
  C 130.76 106.32 127.55 106.93 124.83 105.64
  Q 116.20 101.57 106.86 100.41
  Q 103.30 99.97 101.24 97.22
  Q 100.39 95.01 100.69 92.66
  A 1.46 1.46 0.0 0 1 101.20 91.72
  Q 104.34 89.09 109.05 90.22
  Q 117.19 92.18 121.73 93.89
  Q 125.24 95.21 130.49 94.73
  Q 133.46 94.46 139.61 91.88
  Q 142.20 90.80 149.11 89.91
  Q 154.58 89.20 157.34 93.90
  A 2.05 2.00 -63.6 0 1 157.62 94.77
  Q 157.82 97.35 155.67 99.38
  Z"
/>
<path fill="#114ede" d="
  M 166.89 96.48
  Q 168.10 100.64 172.50 100.74
  Q 181.16 100.93 188.37 106.11
  C 189.98 107.26 193.61 106.32 194.85 105.37
  Q 196.32 104.25 195.68 101.53
  L 196.27 103.25
  A 0.52 0.51 -16.3 0 0 196.89 103.58
  C 215.92 98.64 237.22 97.88 256.00 97.66
  L 256.00 191.87
  Q 228.07 193.69 208.54 194.02
  C 183.52 194.45 152.28 193.89 125.24 194.05
  Q 73.35 194.35 24.23 193.50
  Q 14.36 193.33 0.00 193.77
  L 0.00 98.19
  Q 31.69 97.77 63.37 106.74
  Q 65.51 107.35 67.99 106.31
  Q 72.69 103.21 76.62 101.87
  Q 78.67 101.17 81.80 101.05
  C 89.00 101.69 93.61 96.37 99.62 95.96
  A 0.28 0.27 -89.9 0 1 99.91 96.26
  Q 99.89 96.48 100.19 96.53
  A 0.21 0.21 0.0 0 0 100.43 96.31
  Q 100.36 95.25 100.44 95.49
  Q 100.31 97.81 101.24 97.22
  Q 103.30 99.97 106.86 100.41
  Q 116.20 101.57 124.83 105.64
  C 127.55 106.93 130.76 106.32 133.99 104.91
  Q 136.84 103.66 141.94 102.03
  A 0.20 0.17 -49.7 0 1 142.00 102.02
  L 155.67 99.38
  C 158.24 97.23 161.38 93.54 165.02 94.66
  A 0.47 0.47 0.0 0 0 165.62 94.29
  Q 165.68 93.91 165.63 93.54
  Q 165.67 93.55 165.66 93.58
  Q 165.64 93.61 165.64 93.62
  Q 165.87 95.14 166.89 96.48
  Z
  M 128.32 114.18
  Q 116.56 116.51 115.56 127.12
  Q 114.76 135.66 121.96 139.21
  C 126.77 141.58 131.36 141.06 135.88 138.65
  Q 138.16 137.42 138.75 136.18
  Q 144.06 124.98 135.72 117.05
  Q 134.00 115.41 132.39 114.82
  Q 129.84 113.88 128.32 114.18
  Z
  M 70.4703 119.4328
  A 11.16 11.16 0.0 0 0 54.7712 117.8104
  L 53.0019 119.2484
  A 11.16 11.16 0.0 0 0 51.3795 134.9474
  L 53.0697 137.0272
  A 11.16 11.16 0.0 0 0 68.7688 138.6496
  L 70.5381 137.2116
  A 11.16 11.16 0.0 0 0 72.1605 121.5126
  L 70.4703 119.4328
  Z
  M 195.49 115.15
  Q 185.39 115.93 182.63 126.44
  C 181.01 132.60 185.27 136.80 190.18 139.56
  Q 192.34 140.77 194.57 140.67
  C 197.85 140.52 201.28 140.75 203.81 137.86
  C 210.42 130.32 208.70 123.66 201.86 117.18
  Q 199.41 114.85 195.49 115.15
  Z
  M 107.79 155.73
  Q 105.31 156.26 102.92 157.08
  C 98.11 158.74 102.79 167.62 107.30 166.79
  Q 111.39 166.05 118.02 164.17
  A 4.11 3.67 -65.3 0 0 118.96 163.76
  Q 124.34 160.56 130.20 160.98
  Q 132.45 161.15 138.98 163.81
  Q 143.79 165.78 147.81 166.66
  Q 150.07 167.15 153.18 166.69
  L 156.42 166.22
  A 0.96 0.94 6.3 0 0 157.17 165.63
  L 159.86 158.73
  A 0.81 0.80 16.4 0 0 159.26 157.64
  L 139.55 153.75
  Q 135.92 152.74 132.98 150.67
  Q 130.16 149.70 126.40 150.17
  A 0.01 0.01 0.0 0 1 126.39 150.16
  L 126.38 150.15
  A 0.02 0.01 76.7 0 1 126.39 150.12
  Q 129.58 150.17 130.92 149.61
  A 0.12 0.11 -56.0 0 0 130.88 149.39
  C 127.28 149.34 124.24 149.76 120.65 151.25
  C 116.67 152.90 111.93 153.80 107.79 155.73
  Z
  M 68.18 149.90
  Q 66.09 149.25 64.17 150.48
  C 60.94 152.54 60.52 155.99 63.24 158.72
  Q 66.01 161.49 70.05 162.94
  Q 75.59 164.94 80.13 166.12
  C 83.51 167.00 90.00 168.32 91.02 163.67
  C 91.69 160.58 91.82 157.90 88.18 157.05
  Q 81.84 155.56 77.13 154.64
  Q 72.41 153.72 69.05 150.41
  A 2.15 2.09 -13.9 0 0 68.18 149.90
  Z
  M 173.57 155.47
  C 167.90 156.24 166.06 157.80 167.34 163.70
  C 168.35 168.32 172.71 167.27 176.44 166.32
  Q 186.64 163.73 190.88 161.48
  Q 195.34 159.11 196.47 153.47
  A 1.65 1.63 33.3 0 0 196.20 152.20
  Q 194.12 149.30 190.84 149.68
  A 2.84 2.81 -61.7 0 0 189.89 149.97
  Q 186.29 151.82 182.39 153.64
  Q 180.52 154.51 173.57 155.47
  Z"
/>
<path fill="#ffffff" d="
  M 128.32 114.18
  Q 129.84 113.88 132.39 114.82
  Q 134.00 115.41 135.72 117.05
  Q 144.06 124.98 138.75 136.18
  Q 138.16 137.42 135.88 138.65
  C 131.36 141.06 126.77 141.58 121.96 139.21
  Q 114.76 135.66 115.56 127.12
  Q 116.56 116.51 128.32 114.18
  Z"
/>
<rect fill="#ffffff" x="-12.30" y="-12.50" transform="translate(61.77,128.23) rotate(-39.1)" width="24.60" height="25.00" rx="11.16"/>
<path fill="#ffffff" d="
  M 195.49 115.15
  Q 199.41 114.85 201.86 117.18
  C 208.70 123.66 210.42 130.32 203.81 137.86
  C 201.28 140.75 197.85 140.52 194.57 140.67
  Q 192.34 140.77 190.18 139.56
  C 185.27 136.80 181.01 132.60 182.63 126.44
  Q 185.39 115.93 195.49 115.15
  Z"
/>
<path fill="#1b5cf5" d="
  M 132.98 150.67
  Q 126.06 149.98 120.87 151.90
  Q 113.05 154.79 107.79 155.73
  C 111.93 153.80 116.67 152.90 120.65 151.25
  C 124.24 149.76 127.28 149.34 130.88 149.39
  A 0.12 0.11 -56.0 0 1 130.92 149.61
  Q 129.58 150.17 126.39 150.12
  A 0.02 0.01 76.7 0 0 126.38 150.15
  L 126.39 150.16
  A 0.01 0.01 0.0 0 0 126.40 150.17
  Q 130.16 149.70 132.98 150.67
  Z"
/>
<path fill="#ffffff" d="
  M 68.18 149.90
  A 2.15 2.09 -13.9 0 1 69.05 150.41
  Q 72.41 153.72 77.13 154.64
  Q 81.84 155.56 88.18 157.05
  C 91.82 157.90 91.69 160.58 91.02 163.67
  C 90.00 168.32 83.51 167.00 80.13 166.12
  Q 75.59 164.94 70.05 162.94
  Q 66.01 161.49 63.24 158.72
  C 60.52 155.99 60.94 152.54 64.17 150.48
  Q 66.09 149.25 68.18 149.90
  Z"
/>
<path fill="#ffffff" d="
  M 167.34 163.70
  C 166.06 157.80 167.90 156.24 173.57 155.47
  Q 180.52 154.51 182.39 153.64
  Q 186.29 151.82 189.89 149.97
  A 2.84 2.81 -61.7 0 1 190.84 149.68
  Q 194.12 149.30 196.20 152.20
  A 1.65 1.63 33.3 0 1 196.47 153.47
  Q 195.34 159.11 190.88 161.48
  Q 186.64 163.73 176.44 166.32
  C 172.71 167.27 168.35 168.32 167.34 163.70
  Z"
/>
<path fill="#ffffff" d="
  M 132.98 150.67
  Q 135.92 152.74 139.55 153.75
  L 149.06 156.30
  A 6.96 6.63 53.5 0 0 150.09 156.48
  Q 153.88 156.78 156.27 157.48
  A 1.54 1.54 0.0 0 1 157.34 159.31
  C 156.63 162.37 156.92 165.68 153.18 166.69
  Q 150.07 167.15 147.81 166.66
  Q 143.79 165.78 138.98 163.81
  Q 132.45 161.15 130.20 160.98
  Q 124.34 160.56 118.96 163.76
  A 4.11 3.67 -65.3 0 1 118.02 164.17
  Q 111.39 166.05 107.30 166.79
  C 102.79 167.62 98.11 158.74 102.92 157.08
  Q 105.31 156.26 107.79 155.73
  Q 113.05 154.79 120.87 151.90
  Q 126.06 149.98 132.98 150.67
  Z"
/>
<path fill="#1b5cf5" d="
  M 153.18 166.69
  C 156.92 165.68 156.63 162.37 157.34 159.31
  A 1.54 1.54 0.0 0 0 156.27 157.48
  Q 153.88 156.78 150.09 156.48
  A 6.96 6.63 53.5 0 1 149.06 156.30
  L 139.55 153.75
  L 159.26 157.64
  A 0.81 0.80 16.4 0 1 159.86 158.73
  L 157.17 165.63
  A 0.96 0.94 6.3 0 1 156.42 166.22
  L 153.18 166.69
  Z"
/>
<path fill="#0b46d0" d="
  M 256.00 191.87
  L 256.00 216.12
  Q 255.55 219.83 255.13 223.54
  Q 254.69 227.33 250.37 233.16
  Q 242.85 243.30 234.33 249.79
  C 230.42 252.76 224.96 255.01 219.60 255.50
  Q 217.17 255.72 214.76 256.00
  L 39.77 256.00
  Q 30.17 255.73 22.90 249.85
  Q 13.34 242.12 6.17 232.14
  Q 1.90 226.18 1.01 223.45
  Q 0.57 222.09 0.00 216.61
  L 0.00 193.77
  Q 14.36 193.33 24.23 193.50
  Q 73.35 194.35 125.24 194.05
  C 152.28 193.89 183.52 194.45 208.54 194.02
  Q 228.07 193.69 256.00 191.87
  Z"
/>
</svg>