<?xml version="1.0" encoding="UTF-8" standalone="no"?>
<!DOCTYPE svg PUBLIC "-//W3C//DTD SVG 1.1//EN" "http://www.w3.org/Graphics/SVG/1.1/DTD/svg11.dtd">
<svg xmlns="http://www.w3.org/2000/svg" version="1.1" viewBox="0.00 0.00 192.00 192.00" width="128" height="128">
<g stroke-width="2.00" fill="none" stroke-linecap="butt">
<path stroke="#ffa4c0" vector-effect="non-scaling-stroke" d="
  M 158.0159 44.1245
  A 8.56 8.56 0.0 0 0 149.3815 35.6395
  L 148.9415 35.6434
  A 8.56 8.56 0.0 0 0 140.4566 44.2777
  L 140.9641 102.4355
  A 8.56 8.56 0.0 0 0 149.5985 110.9205
  L 150.0385 110.9166
  A 8.56 8.56 0.0 0 0 158.5234 102.2823
  L 158.0159 44.1245"
/>
<path stroke="#ffa4c0" vector-effect="non-scaling-stroke" d="
  M 88.37 54.18
  A 8.58 8.58 0.0 0 0 79.79 45.60
  L 79.41 45.60
  A 8.58 8.58 0.0 0 0 70.83 54.18
  L 70.83 124.26
  A 8.58 8.58 0.0 0 0 79.41 132.84
  L 79.79 132.84
  A 8.58 8.58 0.0 0 0 88.37 124.26
  L 88.37 54.18"
/>
<path stroke="#ffa4c0" vector-effect="non-scaling-stroke" d="
  M 123.94 81.70
  A 8.89 8.89 0.0 0 0 115.05 72.81
  L 114.61 72.81
  A 8.89 8.89 0.0 0 0 105.72 81.70
  L 105.72 144.22
  A 8.89 8.89 0.0 0 0 114.61 153.11
  L 115.05 153.11
  A 8.89 8.89 0.0 0 0 123.94 144.22
  L 123.94 81.70"
/>
<path stroke="#ffa4c0" vector-effect="non-scaling-stroke" d="
  M 54.4676 113.5310
  A 8.38 8.38 0.0 0 0 46.1463 105.0927
  L 45.5464 105.0885
  A 8.38 8.38 0.0 0 0 37.1081 113.4098
  L 36.8724 147.1690
  A 8.38 8.38 0.0 0 0 45.1937 155.6073
  L 45.7936 155.6115
  A 8.38 8.38 0.0 0 0 54.2319 147.2902
  L 54.4676 113.5310"
/>
</g>
<path fill="#ff4981" d="
  M 142.73 0.00
  C 169.42 2.61 189.37 22.51 192.00 49.19
  L 192.00 142.70
  C 189.29 169.50 169.43 189.48 142.62 192.00
  L 49.59 192.00
  C 22.77 189.61 2.74 169.63 0.00 142.79
  L 0.00 49.26
  C 2.78 22.25 22.40 2.86 49.16 0.00
  L 142.73 0.00
  Z
  M 158.0159 44.1245
  A 8.56 8.56 0.0 0 0 149.3815 35.6395
  L 148.9415 35.6434
  A 8.56 8.56 0.0 0 0 140.4566 44.2777
  L 140.9641 102.4355
  A 8.56 8.56 0.0 0 0 149.5985 110.9205
  L 150.0385 110.9166
  A 8.56 8.56 0.0 0 0 158.5234 102.2823
  L 158.0159 44.1245
  Z
  M 88.37 54.18
  A 8.58 8.58 0.0 0 0 79.79 45.60
  L 79.41 45.60
  A 8.58 8.58 0.0 0 0 70.83 54.18
  L 70.83 124.26
  A 8.58 8.58 0.0 0 0 79.41 132.84
  L 79.79 132.84
  A 8.58 8.58 0.0 0 0 88.37 124.26
  L 88.37 54.18
  Z
  M 123.94 81.70
  A 8.89 8.89 0.0 0 0 115.05 72.81
  L 114.61 72.81
  A 8.89 8.89 0.0 0 0 105.72 81.70
  L 105.72 144.22
  A 8.89 8.89 0.0 0 0 114.61 153.11
  L 115.05 153.11
  A 8.89 8.89 0.0 0 0 123.94 144.22
  L 123.94 81.70
  Z
  M 54.4676 113.5310
  A 8.38 8.38 0.0 0 0 46.1463 105.0927
  L 45.5464 105.0885
  A 8.38 8.38 0.0 0 0 37.1081 113.4098
  L 36.8724 147.1690
  A 8.38 8.38 0.0 0 0 45.1937 155.6073
  L 45.7936 155.6115
  A 8.38 8.38 0.0 0 0 54.2319 147.2902
  L 54.4676 113.5310
  Z"
/>
<rect fill="#ffffff" x="-8.78" y="-37.64" transform="translate(149.49,73.28) rotate(-0.5)" width="17.56" height="75.28" rx="8.56"/>
<rect fill="#ffffff" x="70.83" y="45.60" width="17.54" height="87.24" rx="8.58"/>
<rect fill="#ffffff" x="105.72" y="72.81" width="18.22" height="80.30" rx="8.89"/>
<rect fill="#ffffff" x="-8.68" y="-25.26" transform="translate(45.67,130.35) rotate(0.4)" width="17.36" height="50.52" rx="8.38"/>
</svg>