<?xml version="1.0" encoding="UTF-8" standalone="no"?>
<!DOCTYPE svg PUBLIC "-//W3C//DTD SVG 1.1//EN" "http://www.w3.org/Graphics/SVG/1.1/DTD/svg11.dtd">
<svg xmlns="http://www.w3.org/2000/svg" version="1.1" viewBox="0.00 0.00 512.00 512.00" width="128" height="128">
<g stroke-width="2.00" fill="none" stroke-linecap="butt">
<path stroke="#5c66c4" vector-effect="non-scaling-stroke" d="
  M 255.10 0.00
  L 255.30 37.44"
/>
<path stroke="#80cdef" vector-effect="non-scaling-stroke" d="
  M 255.30 37.44
  Q 201.74 37.64 154.00 62.54"
/>
<path stroke="#009b93" vector-effect="non-scaling-stroke" d="
  M 154.00 62.54
  Q 153.77 62.15 153.37 62.36
  C 87.98 97.32 44.83 161.43 37.45 235.70
  Q 36.71 243.14 36.42 255.99"
/>
<path stroke="#80a46f" vector-effect="non-scaling-stroke" d="
  M 36.42 255.99
  L 0.00 256.02"
/>
<path stroke="#75326e" vector-effect="non-scaling-stroke" d="
  M 511.33 0.00
  L 511.33 256.17"
/>
<path stroke="#5c6679" vector-effect="non-scaling-stroke" d="
  M 511.33 256.17
  L 474.70 256.07"
/>
<path stroke="#db98d4" vector-effect="non-scaling-stroke" d="
  M 474.70 256.07
  Q 474.76 230.28 468.68 206.33"
/>
<path stroke="#75326e" vector-effect="non-scaling-stroke" d="
  M 468.68 206.33
  Q 461.44 176.77 446.87 150.22"
/>
<path stroke="#db98d4" vector-effect="non-scaling-stroke" d="
  M 446.87 150.22
  L 485.98 111.23
  A 0.90 0.89 53.3 0 0 486.13 110.17
  Q 470.72 82.21 448.68 59.73
  A 0.51 0.50 45.4 0 0 447.96 59.72
  L 408.46 99.78"
/>
<path stroke="#75326e" vector-effect="non-scaling-stroke" d="
  M 408.46 99.78
  Q 392.16 83.90 373.23 71.58"
/>
<path stroke="#db98d4" vector-effect="non-scaling-stroke" d="
  M 373.23 71.58
  Q 319.57 37.59 255.30 37.44"
/>
<path stroke="#1a673e" vector-effect="non-scaling-stroke" d="
  M 510.83 512.00
  L 511.28 511.55
  A 0.25 0.24 -25.5 0 0 511.34 511.39
  L 511.33 256.17"
/>
<path stroke="#999999" vector-effect="non-scaling-stroke" d="
  M 373.23 71.58
  L 341.02 119.92
  A 0.25 0.25 0.0 0 1 340.67 119.99
  C 262.10 71.17 158.63 98.87 114.80 180.04
  C 79.39 245.64 93.85 328.10 150.10 377.16
  C 225.33 442.76 341.31 425.40 393.14 339.73
  C 414.87 303.82 421.34 261.96 412.49 220.97
  A 0.54 0.53 -13.8 0 1 412.88 220.33
  L 468.68 206.33"
/>
<path stroke="#80cda4" vector-effect="non-scaling-stroke" d="
  M 474.70 256.07
  Q 474.66 308.90 451.40 354.95
  C 434.60 388.23 409.37 417.18 378.49 437.97
  Q 323.00 475.31 255.43 475.53"
/>
<path stroke="#ffd680" vector-effect="non-scaling-stroke" d="
  M 255.43 475.53
  C 202.59 474.93 153.62 456.91 113.68 422.89"
/>
<path stroke="#999999" vector-effect="non-scaling-stroke" d="
  M 113.68 422.89
  C 66.75 382.31 39.24 325.16 37.14 263.14"
/>
<path stroke="#80cda4" vector-effect="non-scaling-stroke" d="
  M 37.14 263.14
  Q 37.25 249.47 37.45 245.74
  Q 39.82 200.12 59.06 160.81
  Q 90.38 96.85 154.00 62.54"
/>
<path stroke="#999999" vector-effect="non-scaling-stroke" d="
  M 446.87 150.22
  L 251.41 345.33
  A 0.48 0.48 0.0 0 1 250.68 345.28
  L 158.89 223.79
  A 0.81 0.80 44.7 0 1 158.88 222.83
  L 194.05 174.10
  A 0.37 0.37 0.0 0 1 194.65 174.10
  L 255.29 254.36
  A 0.36 0.35 -41.6 0 0 255.83 254.39
  L 408.46 99.78"
/>
<path stroke="#1a673e" vector-effect="non-scaling-stroke" d="
  M 37.14 263.14
  L 36.92 266.96"
/>
<path stroke="#80a424" vector-effect="non-scaling-stroke" d="
  M 36.92 266.96
  L 36.42 255.99"
/>
<path stroke="#80a424" vector-effect="non-scaling-stroke" d="
  M 255.67 512.00
  L 255.43 475.53"
/>
<path stroke="#99701a" vector-effect="non-scaling-stroke" d="
  M 36.92 266.96
  C 39.85 325.14 65.32 379.20 108.24 418.52
  Q 111.23 421.26 113.68 422.89"
/>
</g>
<path fill="#009bde" d="
  M 255.10 0.00
  L 255.30 37.44
  Q 201.74 37.64 154.00 62.54
  Q 153.77 62.15 153.37 62.36
  C 87.98 97.32 44.83 161.43 37.45 235.70
  Q 36.71 243.14 36.42 255.99
  L 0.00 256.02
  L 0.00 0.00
  L 255.10 0.00
  Z"
/>
<path fill="#b731a9" d="
  M 511.33 0.00
  L 511.33 256.17
  L 474.70 256.07
  Q 474.76 230.28 468.68 206.33
  Q 461.44 176.77 446.87 150.22
  L 485.98 111.23
  A 0.90 0.89 53.3 0 0 486.13 110.17
  Q 470.72 82.21 448.68 59.73
  A 0.51 0.50 45.4 0 0 447.96 59.72
  L 408.46 99.78
  Q 392.16 83.90 373.23 71.58
  Q 319.57 37.59 255.30 37.44
  L 255.10 0.00
  L 511.33 0.00
  Z"
/>
<path fill="#333333" d="
  M 512.00 0.00
  L 512.00 512.00
  L 510.83 512.00
  L 511.28 511.55
  A 0.25 0.24 -25.5 0 0 511.34 511.39
  L 511.33 256.17
  L 511.33 0.00
  L 512.00 0.00
  Z"
/>
<path fill="#ffffff" d="
  M 255.30 37.44
  Q 319.57 37.59 373.23 71.58
  L 341.02 119.92
  A 0.25 0.25 0.0 0 1 340.67 119.99
  C 262.10 71.17 158.63 98.87 114.80 180.04
  C 79.39 245.64 93.85 328.10 150.10 377.16
  C 225.33 442.76 341.31 425.40 393.14 339.73
  C 414.87 303.82 421.34 261.96 412.49 220.97
  A 0.54 0.53 -13.8 0 1 412.88 220.33
  L 468.68 206.33
  Q 474.76 230.28 474.70 256.07
  Q 474.66 308.90 451.40 354.95
  C 434.60 388.23 409.37 417.18 378.49 437.97
  Q 323.00 475.31 255.43 475.53
  C 202.59 474.93 153.62 456.91 113.68 422.89
  C 66.75 382.31 39.24 325.16 37.14 263.14
  Q 37.25 249.47 37.45 245.74
  Q 39.82 200.12 59.06 160.81
  Q 90.38 96.85 154.00 62.54
  Q 201.74 37.64 255.30 37.44
  Z"
/>
<path fill="#ffffff" d="
  M 446.87 150.22
  L 251.41 345.33
  A 0.48 0.48 0.0 0 1 250.68 345.28
  L 158.89 223.79
  A 0.81 0.80 44.7 0 1 158.88 222.83
  L 194.05 174.10
  A 0.37 0.37 0.0 0 1 194.65 174.10
  L 255.29 254.36
  A 0.36 0.35 -41.6 0 0 255.83 254.39
  L 408.46 99.78
  L 447.96 59.72
  A 0.51 0.50 45.4 0 1 448.68 59.73
  Q 470.72 82.21 486.13 110.17
  A 0.90 0.89 53.3 0 1 485.98 111.23
  L 446.87 150.22
  Z"
/>
<path fill="#009b48" d="
  M 154.00 62.54
  Q 90.38 96.85 59.06 160.81
  Q 39.82 200.12 37.45 245.74
  Q 37.25 249.47 37.14 263.14
  L 36.92 266.96
  L 36.42 255.99
  Q 36.71 243.14 37.45 235.70
  C 44.83 161.43 87.98 97.32 153.37 62.36
  Q 153.77 62.15 154.00 62.54
  Z"
/>
<path fill="#333333" d="
  M 408.46 99.78
  L 255.83 254.39
  A 0.36 0.35 -41.6 0 1 255.29 254.36
  L 194.65 174.10
  A 0.37 0.37 0.0 0 0 194.05 174.10
  L 158.88 222.83
  A 0.81 0.80 44.7 0 0 158.89 223.79
  L 250.68 345.28
  A 0.48 0.48 0.0 0 0 251.41 345.33
  L 446.87 150.22
  Q 461.44 176.77 468.68 206.33
  L 412.88 220.33
  A 0.54 0.53 -13.8 0 0 412.49 220.97
  C 421.34 261.96 414.87 303.82 393.14 339.73
  C 341.31 425.40 225.33 442.76 150.10 377.16
  C 93.85 328.10 79.39 245.64 114.80 180.04
  C 158.63 98.87 262.10 71.17 340.67 119.99
  A 0.25 0.25 0.0 0 0 341.02 119.92
  L 373.23 71.58
  Q 392.16 83.90 408.46 99.78
  Z"
/>
<path fill="#009b48" d="
  M 511.33 256.17
  L 511.34 511.39
  A 0.25 0.24 -25.5 0 1 511.28 511.55
  L 510.83 512.00
  L 255.67 512.00
  L 255.43 475.53
  Q 323.00 475.31 378.49 437.97
  C 409.37 417.18 434.60 388.23 451.40 354.95
  Q 474.66 308.90 474.70 256.07
  L 511.33 256.17
  Z"
/>
<path fill="#ffad00" d="
  M 36.42 255.99
  L 36.92 266.96
  C 39.85 325.14 65.32 379.20 108.24 418.52
  Q 111.23 421.26 113.68 422.89
  C 153.62 456.91 202.59 474.93 255.43 475.53
  L 255.67 512.00
  L 0.00 512.00
  L 0.00 256.02
  L 36.42 255.99
  Z"
/>
<path fill="#333333" d="
  M 37.14 263.14
  C 39.24 325.16 66.75 382.31 113.68 422.89
  Q 111.23 421.26 108.24 418.52
  C 65.32 379.20 39.85 325.14 36.92 266.96
  L 37.14 263.14
  Z"
/>
</svg>