<?xml version="1.0" encoding="UTF-8" standalone="no"?>
<!DOCTYPE svg PUBLIC "-//W3C//DTD SVG 1.1//EN" "http://www.w3.org/Graphics/SVG/1.1/DTD/svg11.dtd">
<svg xmlns="http://www.w3.org/2000/svg" version="1.1" viewBox="0.00 0.00 128.00 128.00" width="128" height="128">
<g stroke-width="2.00" fill="none" stroke-linecap="butt">
<path stroke="#94959b" vector-effect="non-scaling-stroke" d="
  M 44.17 62.44
  Q 45.91 64.42 46.27 66.04"
/>
<path stroke="#8a8b91" vector-effect="non-scaling-stroke" d="
  M 46.27 66.04
  Q 45.75 66.81 45.34 66.41
  C 39.92 61.25 37.01 55.70 28.16 56.35
  C 21.83 56.82 16.19 60.28 12.03 65.53
  C 4.59 74.95 2.84 86.49 4.08 98.18
  C 4.67 103.70 11.46 105.64 13.96 100.26
  Q 14.50 99.09 14.45 96.12
  C 14.31 87.40 15.13 79.67 21.08 73.10
  Q 24.87 68.91 31.86 69.22"
/>
<path stroke="#94959b" vector-effect="non-scaling-stroke" d="
  M 31.86 69.22
  L 34.82 70.71
  A 0.55 0.54 36.7 0 1 34.95 71.59
  C 24.84 81.28 23.67 96.43 30.60 108.20
  A 0.31 0.30 39.7 0 0 31.15 108.15
  C 32.20 105.26 34.71 101.75 37.74 100.91
  Q 38.47 100.71 38.89 100.39
  A 0.71 0.71 0.0 0 0 39.10 99.51
  Q 35.68 92.41 39.21 85.22
  C 39.97 83.68 42.77 80.01 44.81 80.31"
/>
<path stroke="#8a8b91" vector-effect="non-scaling-stroke" d="
  M 44.81 80.31
  C 46.59 89.26 52.77 97.22 62.14 98.34
  C 71.70 99.48 79.25 92.75 82.36 83.86
  Q 83.19 81.48 83.39 79.57"
/>
<path stroke="#94959b" vector-effect="non-scaling-stroke" d="
  M 83.39 79.57
  Q 93.94 87.16 88.88 99.53
  A 0.66 0.66 0.0 0 0 89.27 100.40
  Q 94.72 102.33 96.82 107.93
  A 0.44 0.44 0.0 0 0 97.63 107.97
  Q 107.90 87.49 93.09 71.31
  A 0.45 0.45 0.0 0 1 93.21 70.61
  C 101.29 66.52 108.10 72.42 111.29 79.84
  C 113.19 84.24 113.98 92.09 113.59 96.84
  C 112.96 104.71 122.97 105.85 123.90 98.15
  C 125.27 86.87 123.38 75.23 116.38 65.90
  C 110.20 57.66 99.10 52.83 89.81 59.02
  A 3.19 2.65 0.1 0 0 89.29 59.45
  L 82.61 66.52
  A 0.31 0.31 0.0 0 1 82.07 66.31
  L 82.07 65.44
  A 1.32 1.30 70.1 0 1 82.53 64.44
  Q 85.12 62.22 86.01 59.93"
/>
<path stroke="#8a8b91" vector-effect="non-scaling-stroke" d="
  M 86.01 59.93
  Q 97.31 43.88 90.43 24.71
  C 82.56 2.78 56.59 -3.20 42.16 16.54
  Q 34.85 26.53 35.52 40.50
  Q 36.13 53.26 44.17 62.44"
/>
<path stroke="#1e202c" vector-effect="non-scaling-stroke" d="
  M 86.01 59.93
  Q 96.10 41.68 89.06 24.05
  C 86.83 18.44 83.04 13.47 78.42 10.33
  Q 66.04 1.91 52.44 8.71
  C 48.40 10.74 43.59 15.42 41.56 19.06
  Q 34.45 31.76 37.09 45.80
  Q 37.81 49.63 40.03 54.32
  Q 41.93 58.33 44.17 62.44"
/>
<path stroke="#1e202c" vector-effect="non-scaling-stroke" d="
  M 83.39 79.57
  Q 81.04 84.35 78.76 89.01
  C 76.78 93.05 70.74 96.85 65.92 97.01
  Q 61.52 97.16 58.35 96.63
  A 2.62 2.54 64.4 0 1 57.43 96.29
  Q 48.18 90.91 45.85 80.53
  A 0.55 0.53 5.9 0 0 45.54 80.16
  Q 45.12 79.97 44.81 80.31"
/>
<path stroke="#1e202c" vector-effect="non-scaling-stroke" d="
  M 31.86 69.22
  Q 26.97 67.55 22.49 70.73
  C 18.99 73.21 15.42 78.83 14.54 83.05
  Q 13.32 88.87 13.05 98.77
  C 12.96 101.90 10.17 102.03 7.79 102.43
  A 0.54 0.54 0.0 0 1 7.22 102.13
  C 6.43 100.44 4.88 99.63 4.97 97.62
  C 5.22 92.02 4.59 86.50 5.61 81.54
  Q 8.03 69.73 17.28 61.81
  C 22.58 57.28 31.06 55.61 37.10 59.60
  A 1.63 1.49 81.3 0 1 37.36 59.81
  L 44.82 67.32
  A 0.65 0.65 0.0 0 0 45.89 67.09
  L 46.27 66.04"
/>
<path stroke="#8a8b91" vector-effect="non-scaling-stroke" d="
  M 36.72 54.42
  Q 36.70 54.25 35.51 51.26
  Q 33.55 46.32 33.47 39.58
  A 0.89 0.89 0.0 0 0 32.91 38.77
  C 25.35 35.71 16.51 37.91 10.39 42.65
  C 5.49 46.45 7.19 55.30 14.20 54.49
  Q 15.53 54.33 19.04 52.38
  Q 24.81 49.18 31.49 52.33
  Q 35.80 54.36 36.27 54.69
  A 0.29 0.28 13.9 0 0 36.72 54.42"
/>
<path stroke="#94959b" vector-effect="non-scaling-stroke" d="
  M 91.39 54.74
  A 0.29 0.28 -14.1 0 0 91.84 55.01
  Q 92.31 54.68 96.63 52.63
  Q 103.31 49.45 109.11 52.64
  Q 112.63 54.59 113.97 54.74
  C 120.99 55.53 122.67 46.66 117.75 42.86
  C 111.60 38.13 102.73 35.95 95.16 39.04
  A 0.89 0.89 0.0 0 0 94.61 39.86
  Q 94.55 46.61 92.60 51.57
  Q 91.41 54.57 91.39 54.74"
/>
<path stroke="#c2b2ff" vector-effect="non-scaling-stroke" d="
  M 31.96 113.23
  Q 31.96 116.28 33.17 118.83
  C 36.69 126.27 45.78 126.93 49.92 119.71
  Q 50.98 117.88 51.17 117.56
  A 0.72 0.70 15.7 0 1 51.81 117.21
  Q 52.76 117.25 64.04 117.24
  Q 75.32 117.24 76.27 117.20
  A 0.72 0.70 -15.7 0 1 76.91 117.55
  Q 77.10 117.87 78.16 119.70
  C 82.30 126.91 91.39 126.24 94.91 118.80
  Q 96.11 116.25 96.11 113.20
  Q 96.11 110.16 94.90 107.60
  C 91.38 100.16 82.29 99.50 78.15 106.72
  Q 77.09 108.55 76.90 108.87
  A 0.72 0.70 15.7 0 1 76.27 109.22
  Q 75.31 109.18 64.03 109.19
  Q 52.75 109.19 51.80 109.23
  A 0.72 0.70 -15.7 0 1 51.17 108.89
  Q 50.98 108.57 49.91 106.74
  C 45.77 99.52 36.68 100.19 33.17 107.63
  Q 31.96 110.19 31.96 113.23"
/>
<path stroke="#57479b" vector-effect="non-scaling-stroke" d="
  M 47.73 38.36
  Q 47.73 39.77 48.18 40.53
  A 2.21 2.13 0.8 0 0 48.97 41.31
  L 58.60 46.96
  A 1.67 1.67 0.0 0 0 61.07 45.89
  L 61.17 45.48
  A 3.32 3.31 22.3 0 0 59.63 41.82
  Q 57.02 40.29 54.31 38.77
  Q 54.28 38.75 54.20 38.56
  Q 54.16 38.46 54.16 38.35
  Q 54.16 38.25 54.20 38.14
  Q 54.28 37.96 54.31 37.94
  Q 57.02 36.41 59.62 34.88
  A 3.32 3.31 -22.4 0 0 61.16 31.21
  L 61.06 30.80
  A 1.67 1.67 0.0 0 0 58.58 29.74
  L 48.96 35.41
  A 2.21 2.13 -0.9 0 0 48.18 36.19
  Q 47.73 36.95 47.73 38.36"
/>
<path stroke="#57479b" vector-effect="non-scaling-stroke" d="
  M 80.22 38.32
  Q 80.22 36.91 79.77 36.15
  A 2.21 2.13 0.8 0 0 78.98 35.37
  L 69.34 29.72
  A 1.67 1.67 0.0 0 0 66.87 30.80
  L 66.77 31.21
  A 3.33 3.31 22.3 0 0 68.32 34.87
  Q 70.93 36.40 73.64 37.92
  Q 73.67 37.93 73.75 38.12
  Q 73.80 38.23 73.80 38.32
  Q 73.80 38.44 73.75 38.54
  Q 73.67 38.73 73.64 38.75
  Q 70.94 40.28 68.33 41.81
  A 3.33 3.31 -22.4 0 0 66.80 45.48
  L 66.90 45.89
  A 1.67 1.67 0.0 0 0 69.37 46.96
  L 78.99 41.28
  A 2.21 2.13 -1.0 0 0 79.78 40.50
  Q 80.23 39.73 80.22 38.32"
/>
<path stroke="#94959b" vector-effect="non-scaling-stroke" d="
  M 59.06 71.80
  L 55.37 70.81
  A 1.45 1.45 0.0 0 0 53.59 71.83
  L 53.22 73.23
  A 3.62 3.29 -75.0 0 0 55.46 77.58
  L 55.59 77.62
  A 3.62 3.29 -75.0 0 0 59.71 74.97
  L 60.08 73.57
  A 1.45 1.45 0.0 0 0 59.06 71.80"
/>
<path stroke="#94959b" vector-effect="non-scaling-stroke" d="
  M 73.03 70.93
  L 69.38 71.66
  A 1.48 1.48 0.0 0 0 68.22 73.40
  L 68.48 74.72
  A 3.77 3.23 78.7 0 0 72.39 77.79
  L 72.60 77.74
  A 3.77 3.23 78.7 0 0 75.03 73.41
  L 74.77 72.09
  A 1.48 1.48 0.0 0 0 73.03 70.93"
/>
<path stroke="#1e202c" vector-effect="non-scaling-stroke" d="
  M 34.55 51.54
  Q 32.40 45.76 32.52 40.52
  A 1.30 1.30 0.0 0 0 31.61 39.25
  Q 24.16 36.93 16.94 40.20
  Q 12.21 42.35 10.45 43.79
  A 3.44 3.34 81.3 0 0 9.44 45.21
  Q 8.13 48.74 9.46 51.60
  A 3.51 3.22 -15.8 0 0 13.04 53.41
  Q 16.19 52.97 18.93 51.23
  Q 20.43 50.28 24.90 49.65
  A 3.66 3.38 44.2 0 1 26.05 49.68
  Q 30.14 50.42 33.54 52.39
  A 0.70 0.70 0.0 0 0 34.55 51.54"
/>
</g>
<path fill="#ffffff" d="
  M 67.34 0.00
  C 84.16 2.83 94.43 16.81 96.50 33.15
  A 0.54 0.53 80.6 0 0 97.14 33.61
  Q 104.70 32.03 111.39 34.57
  C 118.57 37.29 125.14 41.05 124.31 49.71
  Q 123.61 57.11 116.80 59.21
  A 0.38 0.37 -30.0 0 0 116.63 59.82
  Q 126.81 71.18 128.00 86.52
  L 128.00 97.37
  C 127.47 101.75 125.81 105.99 121.47 107.53
  C 115.26 109.75 109.63 104.01 109.76 98.00
  C 109.94 89.98 109.86 81.92 103.82 75.97
  Q 102.49 74.65 101.08 74.31
  A 0.27 0.27 0.0 0 0 100.79 74.73
  Q 102.55 77.28 103.63 80.59
  Q 108.77 96.30 100.81 110.14
  Q 98.89 113.47 98.53 115.90
  C 97.62 121.97 94.01 126.36 88.07 128.00
  L 84.68 128.00
  Q 78.53 126.57 75.50 120.84
  A 0.89 0.86 75.6 0 0 74.73 120.37
  L 53.28 120.37
  A 0.88 0.88 0.0 0 0 52.55 120.76
  C 49.97 124.53 48.13 126.77 43.44 128.00
  L 40.01 128.00
  Q 32.82 125.96 30.27 119.16
  Q 30.25 119.12 29.45 115.76
  Q 28.71 112.66 26.91 109.48
  Q 19.31 96.05 24.63 79.92
  Q 25.50 77.28 27.32 74.60
  A 0.24 0.23 6.4 0 0 27.04 74.25
  C 22.77 75.89 20.25 80.64 19.16 84.79
  Q 18.37 87.82 18.23 97.70
  C 18.12 104.44 11.85 110.38 5.51 106.96
  Q 0.72 104.37 0.00 97.37
  L 0.00 86.65
  Q 1.28 71.04 11.57 59.58
  A 0.33 0.33 0.0 0 0 11.42 59.04
  C 2.72 56.48 1.22 44.49 7.94 39.29
  Q 18.48 31.13 30.64 33.39
  A 1.01 1.01 0.0 0 0 31.83 32.54
  C 34.21 16.28 44.64 2.25 61.51 0.00
  L 67.34 0.00
  Z
  M 44.17 62.44
  Q 45.91 64.42 46.27 66.04
  Q 45.75 66.81 45.34 66.41
  C 39.92 61.25 37.01 55.70 28.16 56.35
  C 21.83 56.82 16.19 60.28 12.03 65.53
  C 4.59 74.95 2.84 86.49 4.08 98.18
  C 4.67 103.70 11.46 105.64 13.96 100.26
  Q 14.50 99.09 14.45 96.12
  C 14.31 87.40 15.13 79.67 21.08 73.10
  Q 24.87 68.91 31.86 69.22
  L 34.82 70.71
  A 0.55 0.54 36.7 0 1 34.95 71.59
  C 24.84 81.28 23.67 96.43 30.60 108.20
  A 0.31 0.30 39.7 0 0 31.15 108.15
  C 32.20 105.26 34.71 101.75 37.74 100.91
  Q 38.47 100.71 38.89 100.39
  A 0.71 0.71 0.0 0 0 39.10 99.51
  Q 35.68 92.41 39.21 85.22
  C 39.97 83.68 42.77 80.01 44.81 80.31
  C 46.59 89.26 52.77 97.22 62.14 98.34
  C 71.70 99.48 79.25 92.75 82.36 83.86
  Q 83.19 81.48 83.39 79.57
  Q 93.94 87.16 88.88 99.53
  A 0.66 0.66 0.0 0 0 89.27 100.40
  Q 94.72 102.33 96.82 107.93
  A 0.44 0.44 0.0 0 0 97.63 107.97
  Q 107.90 87.49 93.09 71.31
  A 0.45 0.45 0.0 0 1 93.21 70.61
  C 101.29 66.52 108.10 72.42 111.29 79.84
  C 113.19 84.24 113.98 92.09 113.59 96.84
  C 112.96 104.71 122.97 105.85 123.90 98.15
  C 125.27 86.87 123.38 75.23 116.38 65.90
  C 110.20 57.66 99.10 52.83 89.81 59.02
  A 3.19 2.65 0.1 0 0 89.29 59.45
  L 82.61 66.52
  A 0.31 0.31 0.0 0 1 82.07 66.31
  L 82.07 65.44
  A 1.32 1.30 70.1 0 1 82.53 64.44
  Q 85.12 62.22 86.01 59.93
  Q 97.31 43.88 90.43 24.71
  C 82.56 2.78 56.59 -3.20 42.16 16.54
  Q 34.85 26.53 35.52 40.50
  Q 36.13 53.26 44.17 62.44
  Z
  M 36.72 54.42
  Q 36.70 54.25 35.51 51.26
  Q 33.55 46.32 33.47 39.58
  A 0.89 0.89 0.0 0 0 32.91 38.77
  C 25.35 35.71 16.51 37.91 10.39 42.65
  C 5.49 46.45 7.19 55.30 14.20 54.49
  Q 15.53 54.33 19.04 52.38
  Q 24.81 49.18 31.49 52.33
  Q 35.80 54.36 36.27 54.69
  A 0.29 0.28 13.9 0 0 36.72 54.42
  Z
  M 91.39 54.74
  A 0.29 0.28 -14.1 0 0 91.84 55.01
  Q 92.31 54.68 96.63 52.63
  Q 103.31 49.45 109.11 52.64
  Q 112.63 54.59 113.97 54.74
  C 120.99 55.53 122.67 46.66 117.75 42.86
  C 111.60 38.13 102.73 35.95 95.16 39.04
  A 0.89 0.89 0.0 0 0 94.61 39.86
  Q 94.55 46.61 92.60 51.57
  Q 91.41 54.57 91.39 54.74
  Z
  M 63.98 105.86
  Q 74.51 105.88 74.75 105.87
  A 1.28 1.26 11.9 0 0 75.78 105.21
  Q 78.54 100.06 84.42 98.65
  A 1.53 1.50 6.0 0 0 85.41 97.86
  Q 87.86 92.91 85.78 87.72
  A 0.34 0.34 0.0 0 0 85.15 87.72
  C 81.47 96.56 73.29 102.94 63.99 102.92
  C 54.70 102.89 46.54 96.46 42.91 87.60
  A 0.34 0.34 0.0 0 0 42.29 87.60
  Q 40.18 92.78 42.60 97.74
  A 1.53 1.50 -5.7 0 0 43.59 98.54
  Q 49.46 99.98 52.19 105.15
  A 1.28 1.26 -11.6 0 0 53.22 105.81
  Q 53.46 105.83 63.98 105.86
  Z
  M 31.96 113.23
  Q 31.96 116.28 33.17 118.83
  C 36.69 126.27 45.78 126.93 49.92 119.71
  Q 50.98 117.88 51.17 117.56
  A 0.72 0.70 15.7 0 1 51.81 117.21
  Q 52.76 117.25 64.04 117.24
  Q 75.32 117.24 76.27 117.20
  A 0.72 0.70 -15.7 0 1 76.91 117.55
  Q 77.10 117.87 78.16 119.70
  C 82.30 126.91 91.39 126.24 94.91 118.80
  Q 96.11 116.25 96.11 113.20
  Q 96.11 110.16 94.90 107.60
  C 91.38 100.16 82.29 99.50 78.15 106.72
  Q 77.09 108.55 76.90 108.87
  A 0.72 0.70 15.7 0 1 76.27 109.22
  Q 75.31 109.18 64.03 109.19
  Q 52.75 109.19 51.80 109.23
  A 0.72 0.70 -15.7 0 1 51.17 108.89
  Q 50.98 108.57 49.91 106.74
  C 45.77 99.52 36.68 100.19 33.17 107.63
  Q 31.96 110.19 31.96 113.23
  Z"
/>
<path fill="#141622" d="
  M 86.01 59.93
  Q 96.10 41.68 89.06 24.05
  C 86.83 18.44 83.04 13.47 78.42 10.33
  Q 66.04 1.91 52.44 8.71
  C 48.40 10.74 43.59 15.42 41.56 19.06
  Q 34.45 31.76 37.09 45.80
  Q 37.81 49.63 40.03 54.32
  Q 41.93 58.33 44.17 62.44
  Q 36.13 53.26 35.52 40.50
  Q 34.85 26.53 42.16 16.54
  C 56.59 -3.20 82.56 2.78 90.43 24.71
  Q 97.31 43.88 86.01 59.93
  Z"
/>
<path fill="#282a36" d="
  M 86.01 59.93
  Q 85.12 62.22 82.53 64.44
  A 1.32 1.30 70.1 0 0 82.07 65.44
  L 82.07 66.31
  A 0.31 0.31 0.0 0 0 82.61 66.52
  L 89.29 59.45
  A 3.19 2.65 0.1 0 1 89.81 59.02
  C 99.10 52.83 110.20 57.66 116.38 65.90
  C 123.38 75.23 125.27 86.87 123.90 98.15
  C 122.97 105.85 112.96 104.71 113.59 96.84
  C 113.98 92.09 113.19 84.24 111.29 79.84
  C 108.10 72.42 101.29 66.52 93.21 70.61
  A 0.45 0.45 0.0 0 0 93.09 71.31
  Q 107.90 87.49 97.63 107.97
  A 0.44 0.44 0.0 0 1 96.82 107.93
  Q 94.72 102.33 89.27 100.40
  A 0.66 0.66 0.0 0 1 88.88 99.53
  Q 93.94 87.16 83.39 79.57
  Q 81.04 84.35 78.76 89.01
  C 76.78 93.05 70.74 96.85 65.92 97.01
  Q 61.52 97.16 58.35 96.63
  A 2.62 2.54 64.4 0 1 57.43 96.29
  Q 48.18 90.91 45.85 80.53
  A 0.55 0.53 5.9 0 0 45.54 80.16
  Q 45.12 79.97 44.81 80.31
  C 42.77 80.01 39.97 83.68 39.21 85.22
  Q 35.68 92.41 39.10 99.51
  A 0.71 0.71 0.0 0 1 38.89 100.39
  Q 38.47 100.71 37.74 100.91
  C 34.71 101.75 32.20 105.26 31.15 108.15
  A 0.31 0.30 39.7 0 1 30.60 108.20
  C 23.67 96.43 24.84 81.28 34.95 71.59
  A 0.55 0.54 36.7 0 0 34.82 70.71
  L 31.86 69.22
  Q 26.97 67.55 22.49 70.73
  C 18.99 73.21 15.42 78.83 14.54 83.05
  Q 13.32 88.87 13.05 98.77
  C 12.96 101.90 10.17 102.03 7.79 102.43
  A 0.54 0.54 0.0 0 1 7.22 102.13
  C 6.43 100.44 4.88 99.63 4.97 97.62
  C 5.22 92.02 4.59 86.50 5.61 81.54
  Q 8.03 69.73 17.28 61.81
  C 22.58 57.28 31.06 55.61 37.10 59.60
  A 1.63 1.49 81.3 0 1 37.36 59.81
  L 44.82 67.32
  A 0.65 0.65 0.0 0 0 45.89 67.09
  L 46.27 66.04
  Q 45.91 64.42 44.17 62.44
  Q 41.93 58.33 40.03 54.32
  Q 37.81 49.63 37.09 45.80
  Q 34.45 31.76 41.56 19.06
  C 43.59 15.42 48.40 10.74 52.44 8.71
  Q 66.04 1.91 78.42 10.33
  C 83.04 13.47 86.83 18.44 89.06 24.05
  Q 96.10 41.68 86.01 59.93
  Z
  M 47.73 38.36
  Q 47.73 39.77 48.18 40.53
  A 2.21 2.13 0.8 0 0 48.97 41.31
  L 58.60 46.96
  A 1.67 1.67 0.0 0 0 61.07 45.89
  L 61.17 45.48
  A 3.32 3.31 22.3 0 0 59.63 41.82
  Q 57.02 40.29 54.31 38.77
  Q 54.28 38.75 54.20 38.56
  Q 54.16 38.46 54.16 38.35
  Q 54.16 38.25 54.20 38.14
  Q 54.28 37.96 54.31 37.94
  Q 57.02 36.41 59.62 34.88
  A 3.32 3.31 -22.4 0 0 61.16 31.21
  L 61.06 30.80
  A 1.67 1.67 0.0 0 0 58.58 29.74
  L 48.96 35.41
  A 2.21 2.13 -0.9 0 0 48.18 36.19
  Q 47.73 36.95 47.73 38.36
  Z
  M 80.22 38.32
  Q 80.22 36.91 79.77 36.15
  A 2.21 2.13 0.8 0 0 78.98 35.37
  L 69.34 29.72
  A 1.67 1.67 0.0 0 0 66.87 30.80
  L 66.77 31.21
  A 3.33 3.31 22.3 0 0 68.32 34.87
  Q 70.93 36.40 73.64 37.92
  Q 73.67 37.93 73.75 38.12
  Q 73.80 38.23 73.80 38.32
  Q 73.80 38.44 73.75 38.54
  Q 73.67 38.73 73.64 38.75
  Q 70.94 40.28 68.33 41.81
  A 3.33 3.31 -22.4 0 0 66.80 45.48
  L 66.90 45.89
  A 1.67 1.67 0.0 0 0 69.37 46.96
  L 78.99 41.28
  A 2.21 2.13 -1.0 0 0 79.78 40.50
  Q 80.23 39.73 80.22 38.32
  Z
  M 59.06 71.80
  L 55.37 70.81
  A 1.45 1.45 0.0 0 0 53.59 71.83
  L 53.22 73.23
  A 3.62 3.29 -75.0 0 0 55.46 77.58
  L 55.59 77.62
  A 3.62 3.29 -75.0 0 0 59.71 74.97
  L 60.08 73.57
  A 1.45 1.45 0.0 0 0 59.06 71.80
  Z
  M 73.03 70.93
  L 69.38 71.66
  A 1.48 1.48 0.0 0 0 68.22 73.40
  L 68.48 74.72
  A 3.77 3.23 78.7 0 0 72.39 77.79
  L 72.60 77.74
  A 3.77 3.23 78.7 0 0 75.03 73.41
  L 74.77 72.09
  A 1.48 1.48 0.0 0 0 73.03 70.93
  Z"
/>
<path fill="#8564ff" d="
  M 54.16 38.35
  Q 54.16 38.46 54.20 38.56
  Q 54.28 38.75 54.31 38.77
  Q 57.02 40.29 59.63 41.82
  A 3.32 3.31 22.3 0 1 61.17 45.48
  L 61.07 45.89
  A 1.67 1.67 0.0 0 1 58.60 46.96
  L 48.97 41.31
  A 2.21 2.13 0.8 0 1 48.18 40.53
  Q 47.73 39.77 47.73 38.36
  Q 47.73 36.95 48.18 36.19
  A 2.21 2.13 -0.9 0 1 48.96 35.41
  L 58.58 29.74
  A 1.67 1.67 0.0 0 1 61.06 30.80
  L 61.16 31.21
  A 3.32 3.31 -22.4 0 1 59.62 34.88
  Q 57.02 36.41 54.31 37.94
  Q 54.28 37.96 54.20 38.14
  Q 54.16 38.25 54.16 38.35
  Z"
/>
<path fill="#8564ff" d="
  M 80.22 38.32
  Q 80.23 39.73 79.78 40.50
  A 2.21 2.13 -1.0 0 1 78.99 41.28
  L 69.37 46.96
  A 1.67 1.67 0.0 0 1 66.90 45.89
  L 66.80 45.48
  A 3.33 3.31 -22.4 0 1 68.33 41.81
  Q 70.94 40.28 73.64 38.75
  Q 73.67 38.73 73.75 38.54
  Q 73.80 38.44 73.80 38.32
  Q 73.80 38.23 73.75 38.12
  Q 73.67 37.93 73.64 37.92
  Q 70.93 36.40 68.32 34.87
  A 3.33 3.31 22.3 0 1 66.77 31.21
  L 66.87 30.80
  A 1.67 1.67 0.0 0 1 69.34 29.72
  L 78.98 35.37
  A 2.21 2.13 0.8 0 1 79.77 36.15
  Q 80.22 36.91 80.22 38.32
  Z"
/>
<path fill="#141622" d="
  M 36.27 54.69
  Q 35.80 54.36 31.49 52.33
  Q 24.81 49.18 19.04 52.38
  Q 15.53 54.33 14.20 54.49
  C 7.19 55.30 5.49 46.45 10.39 42.65
  C 16.51 37.91 25.35 35.71 32.91 38.77
  A 0.89 0.89 0.0 0 1 33.47 39.58
  Q 33.55 46.32 35.51 51.26
  Q 36.70 54.25 36.72 54.42
  A 0.29 0.28 13.9 0 1 36.27 54.69
  Z
  M 34.55 51.54
  Q 32.40 45.76 32.52 40.52
  A 1.30 1.30 0.0 0 0 31.61 39.25
  Q 24.16 36.93 16.94 40.20
  Q 12.21 42.35 10.45 43.79
  A 3.44 3.34 81.3 0 0 9.44 45.21
  Q 8.13 48.74 9.46 51.60
  A 3.51 3.22 -15.8 0 0 13.04 53.41
  Q 16.19 52.97 18.93 51.23
  Q 20.43 50.28 24.90 49.65
  A 3.66 3.38 44.2 0 1 26.05 49.68
  Q 30.14 50.42 33.54 52.39
  A 0.70 0.70 0.0 0 0 34.55 51.54
  Z"
/>
<path fill="#282a36" d="
  M 91.39 54.74
  Q 91.41 54.57 92.60 51.57
  Q 94.55 46.61 94.61 39.86
  A 0.89 0.89 0.0 0 1 95.16 39.04
  C 102.73 35.95 111.60 38.13 117.75 42.86
  C 122.67 46.66 120.99 55.53 113.97 54.74
  Q 112.63 54.59 109.11 52.64
  Q 103.31 49.45 96.63 52.63
  Q 92.31 54.68 91.84 55.01
  A 0.29 0.28 -14.1 0 1 91.39 54.74
  Z"
/>
<path fill="#282a36" d="
  M 34.55 51.54
  A 0.70 0.70 0.0 0 1 33.54 52.39
  Q 30.14 50.42 26.05 49.68
  A 3.66 3.38 44.2 0 0 24.90 49.65
  Q 20.43 50.28 18.93 51.23
  Q 16.19 52.97 13.04 53.41
  A 3.51 3.22 -15.8 0 1 9.46 51.60
  Q 8.13 48.74 9.44 45.21
  A 3.44 3.34 81.3 0 1 10.45 43.79
  Q 12.21 42.35 16.94 40.20
  Q 24.16 36.93 31.61 39.25
  A 1.30 1.30 0.0 0 1 32.52 40.52
  Q 32.40 45.76 34.55 51.54
  Z"
/>
<path fill="#141622" d="
  M 46.27 66.04
  L 45.89 67.09
  A 0.65 0.65 0.0 0 1 44.82 67.32
  L 37.36 59.81
  A 1.63 1.49 81.3 0 0 37.10 59.60
  C 31.06 55.61 22.58 57.28 17.28 61.81
  Q 8.03 69.73 5.61 81.54
  C 4.59 86.50 5.22 92.02 4.97 97.62
  C 4.88 99.63 6.43 100.44 7.22 102.13
  A 0.54 0.54 0.0 0 0 7.79 102.43
  C 10.17 102.03 12.96 101.90 13.05 98.77
  Q 13.32 88.87 14.54 83.05
  C 15.42 78.83 18.99 73.21 22.49 70.73
  Q 26.97 67.55 31.86 69.22
  Q 24.87 68.91 21.08 73.10
  C 15.13 79.67 14.31 87.40 14.45 96.12
  Q 14.50 99.09 13.96 100.26
  C 11.46 105.64 4.67 103.70 4.08 98.18
  C 2.84 86.49 4.59 74.95 12.03 65.53
  C 16.19 60.28 21.83 56.82 28.16 56.35
  C 37.01 55.70 39.92 61.25 45.34 66.41
  Q 45.75 66.81 46.27 66.04
  Z"
/>
<path fill="#ffffff" d="
  M 59.06 71.80
  A 1.45 1.45 0.0 0 1 60.08 73.57
  L 59.71 74.97
  A 3.62 3.29 -75.0 0 1 55.59 77.62
  L 55.46 77.58
  A 3.62 3.29 -75.0 0 1 53.22 73.23
  L 53.59 71.83
  A 1.45 1.45 0.0 0 1 55.37 70.81
  L 59.06 71.80
  Z"
/>
<path fill="#ffffff" d="
  M 73.03 70.93
  A 1.48 1.48 0.0 0 1 74.77 72.09
  L 75.03 73.41
  A 3.77 3.23 78.7 0 1 72.60 77.74
  L 72.39 77.79
  A 3.77 3.23 78.7 0 1 68.48 74.72
  L 68.22 73.40
  A 1.48 1.48 0.0 0 1 69.38 71.66
  L 73.03 70.93
  Z"
/>
<path fill="#141622" d="
  M 83.39 79.57
  Q 83.19 81.48 82.36 83.86
  C 79.25 92.75 71.70 99.48 62.14 98.34
  C 52.77 97.22 46.59 89.26 44.81 80.31
  Q 45.12 79.97 45.54 80.16
  A 0.55 0.53 5.9 0 1 45.85 80.53
  Q 48.18 90.91 57.43 96.29
  A 2.62 2.54 64.4 0 0 58.35 96.63
  Q 61.52 97.16 65.92 97.01
  C 70.74 96.85 76.78 93.05 78.76 89.01
  Q 81.04 84.35 83.39 79.57
  Z"
/>
<path fill="#8564ff" d="
  M 64.03 109.19
  Q 75.31 109.18 76.27 109.22
  A 0.72 0.70 15.7 0 0 76.90 108.87
  Q 77.09 108.55 78.15 106.72
  C 82.29 99.50 91.38 100.16 94.90 107.60
  Q 96.11 110.16 96.11 113.20
  Q 96.11 116.25 94.91 118.80
  C 91.39 126.24 82.30 126.91 78.16 119.70
  Q 77.10 117.87 76.91 117.55
  A 0.72 0.70 -15.7 0 0 76.27 117.20
  Q 75.32 117.24 64.04 117.24
  Q 52.76 117.25 51.81 117.21
  A 0.72 0.70 15.7 0 0 51.17 117.56
  Q 50.98 117.88 49.92 119.71
  C 45.78 126.93 36.69 126.27 33.17 118.83
  Q 31.96 116.28 31.96 113.23
  Q 31.96 110.19 33.17 107.63
  C 36.68 100.19 45.77 99.52 49.91 106.74
  Q 50.98 108.57 51.17 108.89
  A 0.72 0.70 -15.7 0 0 51.80 109.23
  Q 52.75 109.19 64.03 109.19
  Z"
/>
</svg>