<?xml version="1.0" encoding="UTF-8" standalone="no"?>
<!DOCTYPE svg PUBLIC "-//W3C//DTD SVG 1.1//EN" "http://www.w3.org/Graphics/SVG/1.1/DTD/svg11.dtd">
<svg xmlns="http://www.w3.org/2000/svg" version="1.1" viewBox="0.00 0.00 400.00 400.00" width="128" height="128">
<path fill="#e47820" d="
  M 289.30 330.07
  A 0.68 0.68 0.0 0 1 288.04 330.08
  Q 275.77 300.20 248.18 283.75
  C 245.05 281.88 241.98 280.85 239.62 279.04
  A 0.92 0.91 31.2 0 0 238.23 279.38
  L 234.59 287.27
  A 1.67 1.66 -65.2 0 1 232.38 288.09
  L 229.04 286.55
  A 0.61 0.60 12.6 0 0 228.18 287.09
  L 228.18 293.63
  A 1.31 1.30 -90.0 0 1 226.88 294.94
  L 213.96 294.94
  A 0.42 0.41 4.0 0 0 213.55 295.29
  C 213.15 298.02 213.14 303.16 212.41 306.25
  Q 211.08 311.92 208.94 318.20
  Q 208.34 319.99 207.15 322.05
  C 205.34 325.18 203.72 328.36 200.90 330.58
  A 1.37 1.36 -38.7 0 1 199.01 330.38
  Q 190.37 319.82 188.56 306.44
  Q 187.87 301.32 187.11 295.53
  A 0.68 0.68 0.0 0 0 186.46 294.95
  Q 179.34 294.76 175.26 295.07
  Q 172.63 295.28 172.64 293.04
  Q 172.64 292.63 172.82 287.30
  A 0.89 0.89 0.0 0 0 171.55 286.46
  L 168.42 287.95
  A 1.80 1.80 0.0 0 1 166.02 287.09
  L 162.17 278.99
  A 0.39 0.38 64.4 0 0 161.65 278.80
  Q 127.52 294.96 112.69 329.42
  Q 112.50 329.88 111.91 330.22
  A 0.89 0.88 -22.7 0 1 110.61 329.69
  Q 108.48 321.74 106.23 314.25
  C 105.76 312.67 105.26 309.48 105.18 307.22
  Q 104.91 299.35 105.11 287.02
  Q 105.21 280.89 106.74 275.98
  C 108.35 270.81 109.40 266.02 111.22 261.65
  Q 116.74 248.42 122.56 240.80
  C 128.86 232.56 136.21 224.07 144.67 218.61
  A 0.77 0.77 0.0 0 0 145.01 217.79
  Q 143.35 210.51 142.39 199.45
  Q 140.12 173.20 142.22 142.00
  Q 142.40 139.21 145.45 118.89
  C 146.61 111.17 148.76 102.43 150.37 96.06
  Q 155.77 74.74 166.17 53.15
  Q 178.07 28.43 197.79 8.98
  C 198.46 8.32 199.32 6.50 199.72 6.33
  A 1.00 0.99 -32.9 0 1 200.86 6.57
  Q 204.09 10.16 208.53 14.95
  C 227.01 34.92 239.96 60.85 247.58 86.89
  Q 251.88 101.58 252.85 106.88
  C 254.64 116.70 256.48 124.56 257.31 133.44
  C 258.75 148.85 260.21 164.61 259.36 179.98
  Q 258.33 198.48 256.52 214.60
  Q 256.49 214.85 256.01 216.50
  Q 255.49 218.30 257.43 219.77
  Q 283.36 239.46 292.69 271.53
  C 294.13 276.48 294.94 279.81 294.95 284.56
  Q 294.95 293.29 295.01 302.87
  Q 295.07 312.05 293.81 316.78
  Q 292.25 322.66 289.30 330.07
  Z
  M 244.08 162.62
  A 43.78 43.78 0.0 0 0 200.30 118.84
  A 43.78 43.78 0.0 0 0 156.52 162.62
  A 43.78 43.78 0.0 0 0 200.30 206.40
  A 43.78 43.78 0.0 0 0 244.08 162.62
  Z"
/>
<path fill="#e47820" d="
  M 171.42 160.96
  L 181.54 153.03
  A 2.68 2.65 24.2 0 1 183.07 152.46
  Q 184.38 152.40 185.05 152.19
  A 0.55 0.55 0.0 0 0 184.88 151.11
  Q 183.09 151.11 181.41 150.12
  A 2.90 2.79 59.1 0 0 179.98 149.73
  L 175.91 149.73
  A 0.90 0.90 0.0 0 1 175.19 148.29
  Q 177.06 145.83 180.62 143.90
  A 1.88 1.88 0.0 0 0 180.68 140.63
  L 179.16 139.73
  A 2.38 2.33 -31.5 0 0 177.77 139.41
  Q 175.47 139.61 173.97 139.25
  A 2.24 2.22 -12.2 0 1 172.73 138.46
  L 171.98 137.50
  A 0.38 0.38 0.0 0 1 172.36 136.89
  C 174.36 137.32 180.60 137.98 182.43 140.31
  A 0.55 0.55 0.0 0 0 183.29 140.31
  L 185.68 137.30
  A 0.56 0.55 -55.8 0 0 185.53 136.47
  C 184.50 135.86 182.98 136.48 181.94 135.44
  C 180.01 133.49 176.46 134.65 174.86 132.03
  A 0.40 0.40 0.0 0 1 175.04 131.46
  L 175.29 131.33
  A 0.27 0.25 -25.5 0 1 175.63 131.44
  Q 176.03 132.17 176.49 132.34
  Q 178.89 133.19 184.24 134.52
  A 3.52 3.38 67.5 0 1 185.29 134.98
  Q 186.83 136.00 187.95 135.99
  A 1.01 1.00 36.7 0 1 188.24 137.96
  L 186.34 138.50
  A 1.12 1.12 0.0 0 0 186.60 140.70
  Q 188.72 140.79 190.81 141.96
  C 192.66 142.99 192.11 145.20 194.65 145.59
  C 199.13 146.28 206.70 151.95 206.75 157.23
  A 0.26 0.26 0.0 0 0 207.22 157.38
  C 208.53 155.56 209.54 153.23 211.45 152.00
  A 1.32 1.32 0.0 0 1 213.48 153.11
  L 213.48 159.62
  A 0.95 0.95 0.0 0 0 213.97 160.45
  Q 217.30 162.30 221.92 162.32
  Q 223.36 162.33 224.67 163.92
  A 1.68 1.61 21.6 0 1 225.03 164.71
  Q 225.53 167.51 226.54 171.71
  C 227.23 174.60 226.75 177.46 227.77 180.60
  A 2.55 2.33 -57.7 0 1 227.90 181.33
  L 228.19 189.16
  A 0.80 0.75 32.1 0 0 228.26 189.43
  L 229.99 193.08
  A 0.40 0.39 -83.5 0 1 229.39 193.56
  Q 228.52 192.86 226.88 190.33
  A 3.09 3.02 21.7 0 1 226.52 189.52
  Q 225.00 183.96 225.63 178.70
  A 2.80 2.78 -49.8 0 0 225.54 177.58
  L 222.74 167.88
  A 2.31 2.01 41.1 0 1 222.66 167.30
  L 222.66 164.92
  A 0.67 0.67 0.0 0 0 221.94 164.25
  Q 221.29 164.29 220.93 164.47
  A 0.70 0.70 0.0 0 0 220.60 165.38
  C 222.27 169.09 224.17 175.60 222.85 179.90
  A 2.78 2.35 -80.5 0 1 220.54 181.86
  C 217.34 181.92 214.17 178.35 212.18 175.90
  A 0.50 0.50 0.0 0 0 211.30 176.11
  Q 210.04 181.65 212.70 186.78
  A 0.32 0.32 0.0 0 1 212.21 187.18
  L 210.13 185.52
  A 0.73 0.71 -66.9 0 1 209.86 184.83
  C 210.21 182.74 209.47 178.89 209.79 175.75
  C 210.18 172.03 208.26 170.02 207.91 167.13
  A 1.19 1.19 0.0 0 0 205.72 166.65
  Q 205.08 167.68 204.38 167.83
  Q 204.00 167.90 203.24 167.09
  Q 202.07 165.82 201.29 165.27
  A 0.59 0.57 -54.9 0 0 200.47 165.42
  Q 197.29 170.18 196.31 175.98
  A 4.17 4.11 -29.3 0 1 196.04 176.91
  Q 194.68 180.10 194.18 183.90
  A 0.32 0.31 87.4 0 1 193.95 184.16
  L 193.24 184.37
  A 0.33 0.32 3.5 0 1 192.85 183.93
  Q 193.48 182.48 193.75 179.97
  C 193.97 177.98 195.49 176.70 195.09 174.47
  A 0.83 0.83 0.0 0 1 195.48 173.60
  Q 196.53 172.97 196.98 171.79
  A 0.76 0.76 0.0 0 0 196.27 170.76
  L 195.69 170.76
  A 1.00 0.98 15.9 0 0 194.85 171.22
  Q 194.14 172.36 194.05 172.41
  A 0.65 0.65 0.0 0 1 193.19 171.47
  Q 197.28 165.48 199.23 159.50
  A 1.68 1.68 0.0 0 0 198.96 157.96
  L 198.22 157.02
  A 0.54 0.53 34.3 0 0 197.29 157.19
  Q 196.58 159.50 195.18 161.17
  A 1.95 1.95 0.0 0 1 192.42 161.40
  Q 189.50 158.89 189.34 154.23
  A 1.21 1.20 63.2 0 0 187.19 153.52
  L 182.44 159.49
  A 0.09 0.08 -40.2 0 1 182.30 159.48
  L 181.82 158.58
  A 0.04 0.03 -38.0 0 1 181.83 158.54
  L 184.10 156.14
  A 0.67 0.67 0.0 0 0 183.43 155.04
  L 179.08 156.30
  A 1.37 1.33 -81.2 0 0 178.30 156.89
  Q 176.41 159.92 171.92 161.81
  A 0.50 0.50 0.0 0 1 171.42 160.96
  Z"
/>
<path fill="#e47820" d="
  M 179.17 350.43
  Q 178.34 350.43 177.95 347.42
  C 176.11 333.17 173.43 320.47 171.94 306.23
  C 171.49 301.98 174.66 297.80 179.07 297.79
  C 183.47 297.78 186.66 301.96 186.22 306.21
  C 184.77 320.45 182.13 333.17 180.32 347.41
  Q 179.94 350.43 179.17 350.43
  Z"
/>
<path fill="#e47820" d="
  M 221.90 304.70
  C 225.15 304.70 227.85 306.93 229.07 309.77
  Q 229.69 311.21 228.98 315.88
  Q 222.85 356.08 222.78 356.51
  Q 222.69 357.09 221.92 357.09
  Q 221.15 357.09 221.06 356.51
  Q 220.99 356.08 214.83 315.89
  Q 214.11 311.22 214.73 309.77
  C 215.95 306.94 218.65 304.70 221.90 304.70
  Z"
/>
<path fill="#e47820" d="
  M 200.09 339.41
  C 204.56 339.42 207.77 343.67 207.32 347.98
  C 205.78 362.43 203.05 375.32 201.16 389.77
  Q 200.76 392.83 199.93 392.83
  Q 199.14 392.83 198.76 389.77
  C 196.94 375.30 194.28 362.40 192.82 347.94
  C 192.38 343.63 195.62 339.40 200.09 339.41
  Z"
/>
</svg>