<?xml version="1.0" encoding="UTF-8" standalone="no"?>
<!DOCTYPE svg PUBLIC "-//W3C//DTD SVG 1.1//EN" "http://www.w3.org/Graphics/SVG/1.1/DTD/svg11.dtd">
<svg xmlns="http://www.w3.org/2000/svg" version="1.1" viewBox="0.00 0.00 256.00 256.00" width="128" height="128">
<g stroke-width="2.00" fill="none" stroke-linecap="butt">
<path stroke="#eedc69" stroke-opacity="0.612" vector-effect="non-scaling-stroke" d="
  M 103.98 33.05
  Q 100.48 34.45 96.79 36.34
  Q 92.70 38.44 89.82 39.50
  Q 86.08 40.89 82.78 42.59
  Q 76.18 46.01 65.87 51.35
  Q 63.96 52.33 53.67 56.92
  Q 47.58 59.63 41.72 63.01"
/>
<path stroke="#eedc69" stroke-opacity="0.612" vector-effect="non-scaling-stroke" d="
  M 38.92 70.58
  C 43.25 72.77 47.95 74.73 51.84 77.09
  C 58.75 81.27 65.36 85.46 72.74 88.85
  C 79.41 91.91 82.60 94.09 91.70 99.41
  C 98.43 103.34 106.24 106.92 113.53 110.69"
/>
<path stroke="#eedc69" stroke-opacity="0.612" vector-effect="non-scaling-stroke" d="
  M 119.76 109.05
  C 119.68 108.27 119.39 107.34 119.40 106.64
  Q 119.58 97.22 118.22 91.52
  Q 117.18 87.18 117.29 83.43
  Q 117.42 78.84 117.32 74.47
  A 1.41 1.35 56.8 0 1 117.43 73.88
  Q 117.70 73.24 117.67 72.48
  A 0.01 0.01 0.0 0 1 117.69 72.47
  Q 117.74 72.55 117.90 72.60
  A 0.06 0.06 0.0 0 0 117.98 72.54
  Q 117.38 68.59 117.66 66.52
  Q 117.90 64.73 117.76 63.05
  Q 117.53 60.23 117.69 59.54
  Q 118.52 55.80 117.88 52.64
  Q 117.88 52.70 117.89 53.49
  A 0.17 0.17 0.0 0 0 118.22 53.52
  C 118.57 51.51 118.63 49.65 118.63 47.64
  Q 118.63 47.70 118.64 48.48
  A 0.16 0.16 0.0 0 0 118.94 48.54
  Q 119.84 46.33 119.50 44.57
  A 2.15 2.02 -49.6 0 1 119.47 43.96
  Q 119.98 37.52 119.00 30.98"
/>
</g>
<path fill="#f0d848" d="
  M 130.65 0.00
  C 135.02 0.54 135.96 4.36 138.03 8.70
  C 139.17 11.10 139.08 14.52 139.12 17.57
  Q 139.39 34.59 139.09 55.83
  Q 139.04 59.77 142.16 61.60
  Q 154.15 68.63 162.21 72.21
  Q 169.35 75.39 178.40 80.42
  C 189.96 86.85 201.34 91.67 213.03 98.36
  Q 218.08 101.24 225.41 104.65
  Q 235.12 109.16 243.60 113.92
  Q 251.09 118.14 253.42 120.10
  Q 255.47 121.84 256.00 126.00
  L 256.00 188.12
  Q 255.53 193.74 251.48 196.47
  C 247.35 199.25 241.41 201.71 237.68 203.69
  C 230.31 207.60 223.75 211.44 216.16 215.03
  C 203.15 221.19 194.04 226.84 181.24 232.82
  Q 177.99 234.34 162.40 242.92
  Q 152.18 248.55 134.57 256.00
  L 128.83 256.00
  C 121.53 254.79 119.75 247.21 119.75 240.75
  Q 119.77 205.69 119.87 196.10
  A 2.36 2.35 16.4 0 0 118.77 194.09
  Q 109.46 188.27 100.82 184.41
  C 89.33 179.28 79.34 172.67 67.55 167.34
  C 57.52 162.80 47.80 156.45 37.29 151.70
  Q 32.02 149.32 26.80 146.45
  Q 4.77 134.34 4.72 134.32
  Q 0.93 132.23 0.00 127.01
  L 0.00 63.27
  Q 0.27 59.68 2.22 58.97
  Q 14.68 54.39 27.93 46.93
  C 34.88 43.02 43.91 39.84 50.70 36.33
  Q 57.30 32.92 63.41 29.68
  C 69.77 26.30 76.49 23.97 82.65 20.83
  C 92.12 15.99 100.49 11.22 110.16 7.43
  Q 111.62 6.86 117.46 3.56
  Q 121.13 1.50 124.93 0.00
  L 130.65 0.00
  Z
  M 103.98 33.05
  Q 100.48 34.45 96.79 36.34
  Q 92.70 38.44 89.82 39.50
  Q 86.08 40.89 82.78 42.59
  Q 76.18 46.01 65.87 51.35
  Q 63.96 52.33 53.67 56.92
  Q 47.58 59.63 41.72 63.01
  L 34.57 66.88
  A 0.91 0.91 0.0 0 0 34.61 68.50
  L 38.92 70.58
  C 43.25 72.77 47.95 74.73 51.84 77.09
  C 58.75 81.27 65.36 85.46 72.74 88.85
  C 79.41 91.91 82.60 94.09 91.70 99.41
  C 98.43 103.34 106.24 106.92 113.53 110.69
  Q 116.16 112.25 118.84 112.73
  A 1.24 1.23 -1.2 0 0 120.27 111.24
  L 119.76 109.05
  C 119.68 108.27 119.39 107.34 119.40 106.64
  Q 119.58 97.22 118.22 91.52
  Q 117.18 87.18 117.29 83.43
  Q 117.42 78.84 117.32 74.47
  A 1.41 1.35 56.8 0 1 117.43 73.88
  Q 117.70 73.24 117.67 72.48
  A 0.01 0.01 0.0 0 1 117.69 72.47
  Q 117.74 72.55 117.90 72.60
  A 0.06 0.06 0.0 0 0 117.98 72.54
  Q 117.38 68.59 117.66 66.52
  Q 117.90 64.73 117.76 63.05
  Q 117.53 60.23 117.69 59.54
  Q 118.52 55.80 117.88 52.64
  Q 117.88 52.70 117.89 53.49
  A 0.17 0.17 0.0 0 0 118.22 53.52
  C 118.57 51.51 118.63 49.65 118.63 47.64
  Q 118.63 47.70 118.64 48.48
  A 0.16 0.16 0.0 0 0 118.94 48.54
  Q 119.84 46.33 119.50 44.57
  A 2.15 2.02 -49.6 0 1 119.47 43.96
  Q 119.98 37.52 119.00 30.98
  L 119.61 27.16
  A 1.16 1.16 0.0 0 0 117.94 25.94
  L 103.98 33.05
  Z
  M 138.80 85.29
  Q 138.76 85.99 139.14 107.91
  C 139.50 128.89 138.80 153.29 139.10 170.30
  C 139.46 191.12 139.14 204.18 139.04 230.07
  A 1.60 1.59 -87.4 0 0 140.49 231.66
  Q 140.92 231.70 141.60 231.33
  Q 151.25 226.10 159.24 221.49
  Q 161.58 220.14 173.61 214.60
  Q 176.92 213.09 189.12 206.13
  Q 192.10 204.43 199.54 201.01
  C 211.62 195.46 222.04 188.35 234.28 183.45
  A 2.36 2.35 -9.4 0 0 235.76 181.39
  Q 236.79 162.11 236.05 136.83
  Q 235.93 132.84 233.61 131.48
  Q 222.82 125.12 212.16 120.22
  C 205.46 117.14 197.90 113.37 193.12 110.22
  Q 191.20 108.95 178.64 103.13
  Q 172.44 100.26 161.21 93.85
  C 154.46 89.99 147.10 86.67 140.14 84.37
  A 1.02 1.02 0.0 0 0 138.80 85.29
  Z
  M 119.25 138.75
  A 2.06 2.06 0.0 0 0 118.18 137.02
  L 23.89 85.23
  A 2.06 2.06 0.0 0 0 20.84 87.03
  L 20.84 119.44
  A 2.06 2.06 0.0 0 0 21.95 121.27
  L 117.30 170.51
  A 2.06 2.06 0.0 0 0 120.31 168.61
  L 119.25 138.75
  Z"
/>
<path fill="#e6effe" fill-opacity="0.220" d="
  M 119.00 30.98
  Q 119.98 37.52 119.47 43.96
  A 2.15 2.02 -49.6 0 0 119.50 44.57
  Q 119.84 46.33 118.94 48.54
  A 0.16 0.16 0.0 0 1 118.64 48.48
  Q 118.63 47.70 118.63 47.64
  C 118.63 49.65 118.57 51.51 118.22 53.52
  A 0.17 0.17 0.0 0 1 117.89 53.49
  Q 117.88 52.70 117.88 52.64
  Q 118.52 55.80 117.69 59.54
  Q 117.53 60.23 117.76 63.05
  Q 117.90 64.73 117.66 66.52
  Q 117.38 68.59 117.98 72.54
  A 0.06 0.06 0.0 0 1 117.90 72.60
  Q 117.74 72.55 117.69 72.47
  A 0.01 0.01 0.0 0 0 117.67 72.48
  Q 117.70 73.24 117.43 73.88
  A 1.41 1.35 56.8 0 0 117.32 74.47
  Q 117.42 78.84 117.29 83.43
  Q 117.18 87.18 118.22 91.52
  Q 119.58 97.22 119.40 106.64
  C 119.39 107.34 119.68 108.27 119.76 109.05
  L 119.46 108.51
  A 0.46 0.45 68.3 0 0 118.96 108.29
  L 113.67 109.49
  A 0.18 0.18 0.0 0 0 113.63 109.82
  L 114.32 110.18
  A 0.24 0.24 0.0 0 1 114.23 110.63
  L 113.53 110.69
  C 106.24 106.92 98.43 103.34 91.70 99.41
  C 82.60 94.09 79.41 91.91 72.74 88.85
  C 65.36 85.46 58.75 81.27 51.84 77.09
  C 47.95 74.73 43.25 72.77 38.92 70.58
  Q 39.54 69.44 41.18 69.76
  A 0.52 0.52 0.0 0 0 41.79 69.35
  Q 42.50 65.84 44.85 63.02
  A 0.32 0.32 0.0 0 0 44.63 62.49
  Q 43.37 62.38 41.72 63.01
  Q 47.58 59.63 53.67 56.92
  Q 63.96 52.33 65.87 51.35
  Q 76.18 46.01 82.78 42.59
  Q 86.08 40.89 89.82 39.50
  Q 92.70 38.44 96.79 36.34
  Q 100.48 34.45 103.98 33.05
  Q 111.72 33.71 119.00 30.98
  Z"
/>
</svg>