<?xml version="1.0" encoding="UTF-8" standalone="no"?>
<!DOCTYPE svg PUBLIC "-//W3C//DTD SVG 1.1//EN" "http://www.w3.org/Graphics/SVG/1.1/DTD/svg11.dtd">
<svg xmlns="http://www.w3.org/2000/svg" version="1.1" viewBox="0.00 0.00 128.00 128.00" width="128" height="128">
<g stroke-width="2.00" fill="none" stroke-linecap="butt">
<path stroke="#866b16" vector-effect="non-scaling-stroke" d="
  M 73.70 54.94
  A 0.62 0.62 0.0 0 1 73.08 54.30
  C 73.21 49.65 72.84 44.96 70.81 41.12
  C 59.67 19.93 27.11 26.94 26.94 51.53
  Q 26.79 72.99 26.95 76.99
  C 27.47 90.20 37.81 99.22 50.75 99.13
  Q 61.73 99.05 72.54 99.16
  Q 82.14 99.26 86.25 97.66
  C 97.42 93.29 104.17 80.81 99.29 69.20
  C 94.68 58.23 85.38 54.95 73.70 54.94"
/>
<path stroke="#868686" vector-effect="non-scaling-stroke" d="
  M 32.12 62.40
  A 0.31 0.31 0.0 0 0 32.66 62.61
  Q 39.18 55.66 49.09 55.18
  Q 59.69 54.67 66.91 55.02
  A 0.88 0.88 0.0 0 0 67.83 54.23
  Q 69.06 41.87 59.70 36.11
  C 50.09 30.20 37.43 34.17 33.26 44.33
  C 31.29 49.13 32.12 58.72 32.12 62.40"
/>
<path stroke="#866b16" vector-effect="non-scaling-stroke" d="
  M 67.06 60.02
  Q 52.95 59.78 48.09 60.17
  C 37.22 61.03 29.90 71.14 32.72 81.86
  C 34.49 88.62 40.57 93.46 47.49 94.40
  C 57.44 95.76 66.40 89.15 67.82 79.41
  Q 68.02 78.06 68.05 70.09
  Q 68.07 63.48 67.85 60.76
  A 0.82 0.81 -1.6 0 0 67.06 60.02"
/>
<path stroke="#868686" vector-effect="non-scaling-stroke" d="
  M 65.16 94.39
  Q 76.69 94.39 78.99 94.26
  C 87.71 93.75 95.33 87.47 95.96 78.54
  Q 96.48 71.09 91.79 65.97
  C 86.72 60.44 80.61 59.56 73.54 60.03
  A 0.53 0.52 -2.9 0 0 73.05 60.56
  Q 73.32 71.86 72.94 78.24
  C 72.50 85.51 69.52 89.17 64.98 93.97
  A 0.25 0.25 0.0 0 0 65.16 94.39"
/>
</g>
<path fill="#ffc91f" d="
  M 128.00 0.00
  L 128.00 128.00
  L 0.00 128.00
  L 0.00 0.00
  L 128.00 0.00
  Z
  M 73.70 54.94
  A 0.62 0.62 0.0 0 1 73.08 54.30
  C 73.21 49.65 72.84 44.96 70.81 41.12
  C 59.67 19.93 27.11 26.94 26.94 51.53
  Q 26.79 72.99 26.95 76.99
  C 27.47 90.20 37.81 99.22 50.75 99.13
  Q 61.73 99.05 72.54 99.16
  Q 82.14 99.26 86.25 97.66
  C 97.42 93.29 104.17 80.81 99.29 69.20
  C 94.68 58.23 85.38 54.95 73.70 54.94
  Z"
/>
<path fill="#0d0d0d" d="
  M 73.70 54.94
  C 85.38 54.95 94.68 58.23 99.29 69.20
  C 104.17 80.81 97.42 93.29 86.25 97.66
  Q 82.14 99.26 72.54 99.16
  Q 61.73 99.05 50.75 99.13
  C 37.81 99.22 27.47 90.20 26.95 76.99
  Q 26.79 72.99 26.94 51.53
  C 27.11 26.94 59.67 19.93 70.81 41.12
  C 72.84 44.96 73.21 49.65 73.08 54.30
  A 0.62 0.62 0.0 0 0 73.70 54.94
  Z
  M 32.12 62.40
  A 0.31 0.31 0.0 0 0 32.66 62.61
  Q 39.18 55.66 49.09 55.18
  Q 59.69 54.67 66.91 55.02
  A 0.88 0.88 0.0 0 0 67.83 54.23
  Q 69.06 41.87 59.70 36.11
  C 50.09 30.20 37.43 34.17 33.26 44.33
  C 31.29 49.13 32.12 58.72 32.12 62.40
  Z
  M 67.06 60.02
  Q 52.95 59.78 48.09 60.17
  C 37.22 61.03 29.90 71.14 32.72 81.86
  C 34.49 88.62 40.57 93.46 47.49 94.40
  C 57.44 95.76 66.40 89.15 67.82 79.41
  Q 68.02 78.06 68.05 70.09
  Q 68.07 63.48 67.85 60.76
  A 0.82 0.81 -1.6 0 0 67.06 60.02
  Z
  M 65.16 94.39
  Q 76.69 94.39 78.99 94.26
  C 87.71 93.75 95.33 87.47 95.96 78.54
  Q 96.48 71.09 91.79 65.97
  C 86.72 60.44 80.61 59.56 73.54 60.03
  A 0.53 0.52 -2.9 0 0 73.05 60.56
  Q 73.32 71.86 72.94 78.24
  C 72.50 85.51 69.52 89.17 64.98 93.97
  A 0.25 0.25 0.0 0 0 65.16 94.39
  Z"
/>
<path fill="#ffffff" d="
  M 32.12 62.40
  C 32.12 58.72 31.29 49.13 33.26 44.33
  C 37.43 34.17 50.09 30.20 59.70 36.11
  Q 69.06 41.87 67.83 54.23
  A 0.88 0.88 0.0 0 1 66.91 55.02
  Q 59.69 54.67 49.09 55.18
  Q 39.18 55.66 32.66 62.61
  A 0.31 0.31 0.0 0 1 32.12 62.40
  Z"
/>
<path fill="#ffc91f" d="
  M 67.85 60.76
  Q 68.07 63.48 68.05 70.09
  Q 68.02 78.06 67.82 79.41
  C 66.40 89.15 57.44 95.76 47.49 94.40
  C 40.57 93.46 34.49 88.62 32.72 81.86
  C 29.90 71.14 37.22 61.03 48.09 60.17
  Q 52.95 59.78 67.06 60.02
  A 0.82 0.81 -1.6 0 1 67.85 60.76
  Z"
/>
<path fill="#ffffff" d="
  M 64.98 93.97
  C 69.52 89.17 72.50 85.51 72.94 78.24
  Q 73.32 71.86 73.05 60.56
  A 0.53 0.52 -2.9 0 1 73.54 60.03
  C 80.61 59.56 86.72 60.44 91.79 65.97
  Q 96.48 71.09 95.96 78.54
  C 95.33 87.47 87.71 93.75 78.99 94.26
  Q 76.69 94.39 65.16 94.39
  A 0.25 0.25 0.0 0 1 64.98 93.97
  Z"
/>
</svg>