<?xml version="1.0" encoding="UTF-8" standalone="no"?>
<!DOCTYPE svg PUBLIC "-//W3C//DTD SVG 1.1//EN" "http://www.w3.org/Graphics/SVG/1.1/DTD/svg11.dtd">
<svg xmlns="http://www.w3.org/2000/svg" version="1.1" viewBox="0.00 0.00 128.00 128.00" width="128" height="128">
<path stroke="#91929a" stroke-width="2.00" fill="none" stroke-linecap="butt" vector-effect="non-scaling-stroke" d="
  M 75.44 92.24
  L 89.00 92.24
  A 0.54 0.54 0.0 0 0 89.54 91.70
  L 89.54 50.15
  A 0.36 0.36 0.0 0 1 89.90 49.79
  L 102.17 49.79
  A 0.57 0.57 0.0 0 0 102.74 49.22
  L 102.74 37.78
  A 0.45 0.44 -90.0 0 0 102.30 37.33
  Q 61.92 37.43 50.22 37.40
  C 40.93 37.39 31.82 42.08 30.51 51.56
  Q 28.91 63.08 39.42 68.11
  Q 44.82 70.70 50.83 72.60
  C 57.29 74.65 54.00 81.12 48.36 80.38
  Q 42.00 79.54 37.64 75.52
  Q 35.56 73.60 35.51 73.57
  A 0.55 0.54 -55.7 0 0 34.75 73.72
  L 27.84 83.84
  A 0.35 0.35 0.0 0 0 27.88 84.27
  C 35.83 92.70 48.65 95.72 59.14 90.55
  Q 69.23 85.57 68.93 74.52
  C 68.74 67.42 64.27 62.66 58.00 60.23
  Q 52.91 58.26 47.68 56.34
  Q 46.69 55.98 45.09 54.16
  A 1.20 1.18 -61.4 0 1 44.81 53.18
  Q 45.32 50.04 48.20 49.95
  Q 58.14 49.65 74.40 49.86
  A 0.43 0.43 0.0 0 1 74.82 50.29
  L 74.82 91.61
  A 0.63 0.62 90.0 0 0 75.44 92.24"
/>
<path fill="#222534" d="
  M 128.00 0.00
  L 128.00 128.00
  L 0.00 128.00
  L 0.00 0.00
  L 128.00 0.00
  Z
  M 75.44 92.24
  L 89.00 92.24
  A 0.54 0.54 0.0 0 0 89.54 91.70
  L 89.54 50.15
  A 0.36 0.36 0.0 0 1 89.90 49.79
  L 102.17 49.79
  A 0.57 0.57 0.0 0 0 102.74 49.22
  L 102.74 37.78
  A 0.45 0.44 -90.0 0 0 102.30 37.33
  Q 61.92 37.43 50.22 37.40
  C 40.93 37.39 31.82 42.08 30.51 51.56
  Q 28.91 63.08 39.42 68.11
  Q 44.82 70.70 50.83 72.60
  C 57.29 74.65 54.00 81.12 48.36 80.38
  Q 42.00 79.54 37.64 75.52
  Q 35.56 73.60 35.51 73.57
  A 0.55 0.54 -55.7 0 0 34.75 73.72
  L 27.84 83.84
  A 0.35 0.35 0.0 0 0 27.88 84.27
  C 35.83 92.70 48.65 95.72 59.14 90.55
  Q 69.23 85.57 68.93 74.52
  C 68.74 67.42 64.27 62.66 58.00 60.23
  Q 52.91 58.26 47.68 56.34
  Q 46.69 55.98 45.09 54.16
  A 1.20 1.18 -61.4 0 1 44.81 53.18
  Q 45.32 50.04 48.20 49.95
  Q 58.14 49.65 74.40 49.86
  A 0.43 0.43 0.0 0 1 74.82 50.29
  L 74.82 91.61
  A 0.63 0.62 90.0 0 0 75.44 92.24
  Z"
/>
<path fill="#ffffff" d="
  M 74.82 91.61
  L 74.82 50.29
  A 0.43 0.43 0.0 0 0 74.40 49.86
  Q 58.14 49.65 48.20 49.95
  Q 45.32 50.04 44.81 53.18
  A 1.20 1.18 -61.4 0 0 45.09 54.16
  Q 46.69 55.98 47.68 56.34
  Q 52.91 58.26 58.00 60.23
  C 64.27 62.66 68.74 67.42 68.93 74.52
  Q 69.23 85.57 59.14 90.55
  C 48.65 95.72 35.83 92.70 27.88 84.27
  A 0.35 0.35 0.0 0 1 27.84 83.84
  L 34.75 73.72
  A 0.55 0.54 -55.7 0 1 35.51 73.57
  Q 35.56 73.60 37.64 75.52
  Q 42.00 79.54 48.36 80.38
  C 54.00 81.12 57.29 74.65 50.83 72.60
  Q 44.82 70.70 39.42 68.11
  Q 28.91 63.08 30.51 51.56
  C 31.82 42.08 40.93 37.39 50.22 37.40
  Q 61.92 37.43 102.30 37.33
  A 0.45 0.44 90.0 0 1 102.74 37.78
  L 102.74 49.22
  A 0.57 0.57 0.0 0 1 102.17 49.79
  L 89.90 49.79
  A 0.36 0.36 0.0 0 0 89.54 50.15
  L 89.54 91.70
  A 0.54 0.54 0.0 0 1 89.00 92.24
  L 75.44 92.24
  A 0.63 0.62 -90.0 0 1 74.82 91.61
  Z"
/>
</svg>