<?xml version="1.0" encoding="UTF-8" standalone="no"?>
<!DOCTYPE svg PUBLIC "-//W3C//DTD SVG 1.1//EN" "http://www.w3.org/Graphics/SVG/1.1/DTD/svg11.dtd">
<svg xmlns="http://www.w3.org/2000/svg" version="1.1" viewBox="0.00 0.00 256.00 256.00" width="128" height="128">
<path fill="#4c50ff" d="
  M 68.65 191.94
  A 0.62 0.62 0.0 0 1 68.53 190.89
  L 157.83 121.33
  A 1.07 1.07 0.0 0 0 157.83 119.64
  L 68.20 49.94
  A 0.31 0.30 51.0 0 1 68.25 49.43
  Q 73.90 46.48 80.50 46.02
  Q 83.82 45.78 98.75 45.79
  Q 105.93 45.79 170.50 45.88
  C 172.76 45.88 178.14 45.81 181.15 46.56
  C 192.13 49.29 199.90 57.10 202.52 67.99
  Q 203.26 71.06 203.21 86.07
  Q 203.06 134.87 203.17 209.00
  Q 203.17 210.91 202.97 213.18
  A 0.59 0.59 0.0 0 1 202.39 213.73
  C 201.22 213.77 198.69 212.33 196.93 211.74
  Q 159.44 199.15 151.03 196.47
  C 147.16 195.23 144.31 195.55 137.84 195.28
  Q 130.85 194.99 128.64 195.03
  Q 102.21 195.55 82.01 194.94
  Q 74.80 194.72 68.65 191.94
  Z"
/>
<path fill="#4c50ff" d="
  M 127.99 120.49
  Q 127.99 120.87 127.78 121.03
  Q 103.39 139.99 60.01 173.78
  Q 58.13 175.24 56.14 176.24
  A 0.79 0.78 69.0 0 1 55.02 175.74
  Q 54.30 173.05 54.06 168.00
  Q 53.87 163.99 53.87 120.48
  Q 53.87 76.97 54.06 72.97
  Q 54.31 67.92 55.03 65.23
  A 0.79 0.78 -69.0 0 1 56.15 64.73
  Q 58.14 65.73 60.02 67.19
  Q 103.39 100.99 127.78 119.95
  Q 127.99 120.11 127.99 120.49
  Z"
/>
</svg>