<?xml version="1.0" encoding="UTF-8" standalone="no"?>
<!DOCTYPE svg PUBLIC "-//W3C//DTD SVG 1.1//EN" "http://www.w3.org/Graphics/SVG/1.1/DTD/svg11.dtd">
<svg xmlns="http://www.w3.org/2000/svg" version="1.1" viewBox="0.00 0.00 180.00 180.00" width="128" height="128">
<g stroke-width="2.00" fill="none" stroke-linecap="butt">
<path stroke="#ffb2a6" vector-effect="non-scaling-stroke" d="
  M 22.15 52.42
  A 0.30 0.30 0.0 0 0 22.45 52.72
  L 64.87 52.72
  A 0.30 0.30 0.0 0 0 65.08 52.20
  L 22.65 13.67
  A 0.30 0.30 0.0 0 0 22.15 13.89
  L 22.15 52.42"
/>
<path stroke="#ffb2a6" vector-effect="non-scaling-stroke" d="
  M 158.47 52.72
  A 0.32 0.32 0.0 0 0 158.79 52.40
  L 158.79 13.88
  A 0.32 0.32 0.0 0 0 158.25 13.65
  L 115.83 52.16
  A 0.32 0.32 0.0 0 0 116.05 52.72
  L 158.47 52.72"
/>
<path stroke="#ffb2a6" vector-effect="non-scaling-stroke" d="
  M 158.24 68.93
  A 0.31 0.31 0.0 0 0 158.03 68.39
  L 22.87 68.39
  A 0.31 0.31 0.0 0 0 22.66 68.93
  L 90.24 130.32
  A 0.31 0.31 0.0 0 0 90.66 130.32
  L 158.24 68.93"
/>
<path stroke="#e6eff6" vector-effect="non-scaling-stroke" d="
  M 90.47 168.00
  Q 154.21 167.99 158.41 167.91
  A 0.38 0.38 0.0 0 0 158.78 167.53
  L 158.78 90.71
  A 0.42 0.42 0.0 0 0 158.07 90.40
  Q 134.12 112.24 90.76 151.59
  Q 90.68 151.66 90.47 151.66
  Q 90.25 151.66 90.18 151.59
  Q 46.80 112.25 22.85 90.42
  A 0.42 0.42 0.0 0 0 22.14 90.73
  L 22.16 167.55
  A 0.38 0.38 0.0 0 0 22.53 167.93
  Q 26.72 168.01 90.47 168.00"
/>
</g>
<path fill="#ffffff" d="
  M 180.00 0.00
  L 180.00 180.00
  L 0.00 180.00
  L 0.00 0.00
  L 180.00 0.00
  Z
  M 22.15 52.42
  A 0.30 0.30 0.0 0 0 22.45 52.72
  L 64.87 52.72
  A 0.30 0.30 0.0 0 0 65.08 52.20
  L 22.65 13.67
  A 0.30 0.30 0.0 0 0 22.15 13.89
  L 22.15 52.42
  Z
  M 158.47 52.72
  A 0.32 0.32 0.0 0 0 158.79 52.40
  L 158.79 13.88
  A 0.32 0.32 0.0 0 0 158.25 13.65
  L 115.83 52.16
  A 0.32 0.32 0.0 0 0 116.05 52.72
  L 158.47 52.72
  Z
  M 158.24 68.93
  A 0.31 0.31 0.0 0 0 158.03 68.39
  L 22.87 68.39
  A 0.31 0.31 0.0 0 0 22.66 68.93
  L 90.24 130.32
  A 0.31 0.31 0.0 0 0 90.66 130.32
  L 158.24 68.93
  Z
  M 90.47 168.00
  Q 154.21 167.99 158.41 167.91
  A 0.38 0.38 0.0 0 0 158.78 167.53
  L 158.78 90.71
  A 0.42 0.42 0.0 0 0 158.07 90.40
  Q 134.12 112.24 90.76 151.59
  Q 90.68 151.66 90.47 151.66
  Q 90.25 151.66 90.18 151.59
  Q 46.80 112.25 22.85 90.42
  A 0.42 0.42 0.0 0 0 22.14 90.73
  L 22.16 167.55
  A 0.38 0.38 0.0 0 0 22.53 167.93
  Q 26.72 168.01 90.47 168.00
  Z"
/>
<path fill="#ff644d" d="
  M 22.15 52.42
  L 22.15 13.89
  A 0.30 0.30 0.0 0 1 22.65 13.67
  L 65.08 52.20
  A 0.30 0.30 0.0 0 1 64.87 52.72
  L 22.45 52.72
  A 0.30 0.30 0.0 0 1 22.15 52.42
  Z"
/>
<path fill="#ff644d" d="
  M 158.47 52.72
  L 116.05 52.72
  A 0.32 0.32 0.0 0 1 115.83 52.16
  L 158.25 13.65
  A 0.32 0.32 0.0 0 1 158.79 13.88
  L 158.79 52.40
  A 0.32 0.32 0.0 0 1 158.47 52.72
  Z"
/>
<path fill="#ff644d" d="
  M 158.24 68.93
  L 90.66 130.32
  A 0.31 0.31 0.0 0 1 90.24 130.32
  L 22.66 68.93
  A 0.31 0.31 0.0 0 1 22.87 68.39
  L 158.03 68.39
  A 0.31 0.31 0.0 0 1 158.24 68.93
  Z"
/>
<path fill="#ccdfed" d="
  M 90.47 151.66
  Q 90.68 151.66 90.76 151.59
  Q 134.12 112.24 158.07 90.40
  A 0.42 0.42 0.0 0 1 158.78 90.71
  L 158.78 167.53
  A 0.38 0.38 0.0 0 1 158.41 167.91
  Q 154.21 167.99 90.47 168.00
  Q 26.72 168.01 22.53 167.93
  A 0.38 0.38 0.0 0 1 22.16 167.55
  L 22.14 90.73
  A 0.42 0.42 0.0 0 1 22.85 90.42
  Q 46.80 112.25 90.18 151.59
  Q 90.25 151.66 90.47 151.66
  Z"
/>
</svg>