<?xml version="1.0" encoding="UTF-8" standalone="no"?>
<!DOCTYPE svg PUBLIC "-//W3C//DTD SVG 1.1//EN" "http://www.w3.org/Graphics/SVG/1.1/DTD/svg11.dtd">
<svg xmlns="http://www.w3.org/2000/svg" version="1.1" viewBox="0.00 0.00 180.00 180.00" width="128" height="128">
<g stroke-width="2.00" fill="none" stroke-linecap="butt">
<path stroke="#fbad88" vector-effect="non-scaling-stroke" d="
  M 85.63 106.02
  A 0.31 0.31 0.0 0 0 86.00 106.00
  L 140.79 61.34
  A 0.31 0.31 0.0 0 1 141.30 61.58
  L 141.30 69.94
  A 0.31 0.31 0.0 0 0 141.81 70.18
  L 148.89 64.41
  A 0.31 0.31 0.0 0 0 149.00 64.17
  L 149.00 47.44
  A 0.31 0.31 0.0 0 0 148.69 47.13
  L 133.83 47.13
  A 0.31 0.31 0.0 0 0 133.63 47.20
  L 124.74 54.45
  A 0.31 0.31 0.0 0 0 124.93 55.00
  L 135.29 55.00
  A 0.31 0.31 0.0 0 1 135.49 55.55
  L 85.97 94.46
  A 0.31 0.31 0.0 0 1 85.63 94.49
  L 50.77 75.20
  A 0.31 0.31 0.0 0 0 50.31 75.48
  L 50.31 82.65
  A 0.31 0.31 0.0 0 0 50.45 82.91
  L 85.63 106.02"
/>
<path stroke="#fbad88" vector-effect="non-scaling-stroke" d="
  M 141.32 132.87
  A 0.33 0.33 0.0 0 0 141.65 132.54
  L 141.65 90.55
  A 0.33 0.33 0.0 0 0 141.12 90.29
  L 134.18 95.73
  A 0.33 0.33 0.0 0 0 134.05 95.99
  L 134.05 124.94
  A 0.33 0.33 0.0 0 1 133.72 125.27
  L 39.54 125.27
  A 0.33 0.33 0.0 0 1 39.21 124.94
  L 39.21 62.42
  A 0.33 0.33 0.0 0 1 39.54 62.09
  L 96.94 62.09
  A 0.33 0.33 0.0 0 0 97.14 62.02
  L 106.04 55.03
  A 0.33 0.33 0.0 0 0 105.84 54.44
  L 31.95 54.44
  A 0.33 0.33 0.0 0 0 31.62 54.77
  L 31.62 132.54
  A 0.33 0.33 0.0 0 0 31.95 132.87
  L 141.32 132.87"
/>
</g>
<path fill="#f75b11" d="
  M 180.00 0.00
  L 180.00 180.00
  L 0.00 180.00
  L 0.00 0.00
  L 180.00 0.00
  Z
  M 85.63 106.02
  A 0.31 0.31 0.0 0 0 86.00 106.00
  L 140.79 61.34
  A 0.31 0.31 0.0 0 1 141.30 61.58
  L 141.30 69.94
  A 0.31 0.31 0.0 0 0 141.81 70.18
  L 148.89 64.41
  A 0.31 0.31 0.0 0 0 149.00 64.17
  L 149.00 47.44
  A 0.31 0.31 0.0 0 0 148.69 47.13
  L 133.83 47.13
  A 0.31 0.31 0.0 0 0 133.63 47.20
  L 124.74 54.45
  A 0.31 0.31 0.0 0 0 124.93 55.00
  L 135.29 55.00
  A 0.31 0.31 0.0 0 1 135.49 55.55
  L 85.97 94.46
  A 0.31 0.31 0.0 0 1 85.63 94.49
  L 50.77 75.20
  A 0.31 0.31 0.0 0 0 50.31 75.48
  L 50.31 82.65
  A 0.31 0.31 0.0 0 0 50.45 82.91
  L 85.63 106.02
  Z
  M 141.32 132.87
  A 0.33 0.33 0.0 0 0 141.65 132.54
  L 141.65 90.55
  A 0.33 0.33 0.0 0 0 141.12 90.29
  L 134.18 95.73
  A 0.33 0.33 0.0 0 0 134.05 95.99
  L 134.05 124.94
  A 0.33 0.33 0.0 0 1 133.72 125.27
  L 39.54 125.27
  A 0.33 0.33 0.0 0 1 39.21 124.94
  L 39.21 62.42
  A 0.33 0.33 0.0 0 1 39.54 62.09
  L 96.94 62.09
  A 0.33 0.33 0.0 0 0 97.14 62.02
  L 106.04 55.03
  A 0.33 0.33 0.0 0 0 105.84 54.44
  L 31.95 54.44
  A 0.33 0.33 0.0 0 0 31.62 54.77
  L 31.62 132.54
  A 0.33 0.33 0.0 0 0 31.95 132.87
  L 141.32 132.87
  Z"
/>
<path fill="#ffffff" d="
  M 85.63 106.02
  L 50.45 82.91
  A 0.31 0.31 0.0 0 1 50.31 82.65
  L 50.31 75.48
  A 0.31 0.31 0.0 0 1 50.77 75.20
  L 85.63 94.49
  A 0.31 0.31 0.0 0 0 85.97 94.46
  L 135.49 55.55
  A 0.31 0.31 0.0 0 0 135.29 55.00
  L 124.93 55.00
  A 0.31 0.31 0.0 0 1 124.74 54.45
  L 133.63 47.20
  A 0.31 0.31 0.0 0 1 133.83 47.13
  L 148.69 47.13
  A 0.31 0.31 0.0 0 1 149.00 47.44
  L 149.00 64.17
  A 0.31 0.31 0.0 0 1 148.89 64.41
  L 141.81 70.18
  A 0.31 0.31 0.0 0 1 141.30 69.94
  L 141.30 61.58
  A 0.31 0.31 0.0 0 0 140.79 61.34
  L 86.00 106.00
  A 0.31 0.31 0.0 0 1 85.63 106.02
  Z"
/>
<path fill="#ffffff" d="
  M 141.32 132.87
  L 31.95 132.87
  A 0.33 0.33 0.0 0 1 31.62 132.54
  L 31.62 54.77
  A 0.33 0.33 0.0 0 1 31.95 54.44
  L 105.84 54.44
  A 0.33 0.33 0.0 0 1 106.04 55.03
  L 97.14 62.02
  A 0.33 0.33 0.0 0 1 96.94 62.09
  L 39.54 62.09
  A 0.33 0.33 0.0 0 0 39.21 62.42
  L 39.21 124.94
  A 0.33 0.33 0.0 0 0 39.54 125.27
  L 133.72 125.27
  A 0.33 0.33 0.0 0 0 134.05 124.94
  L 134.05 95.99
  A 0.33 0.33 0.0 0 1 134.18 95.73
  L 141.12 90.29
  A 0.33 0.33 0.0 0 1 141.65 90.55
  L 141.65 132.54
  A 0.33 0.33 0.0 0 1 141.32 132.87
  Z"
/>
</svg>