<?xml version="1.0" encoding="UTF-8" standalone="no"?>
<!DOCTYPE svg PUBLIC "-//W3C//DTD SVG 1.1//EN" "http://www.w3.org/Graphics/SVG/1.1/DTD/svg11.dtd">
<svg xmlns="http://www.w3.org/2000/svg" version="1.1" viewBox="0.00 0.00 512.00 512.00" width="128" height="128">
<path stroke="#808080" stroke-width="2.00" fill="none" stroke-linecap="butt" vector-effect="non-scaling-stroke" d="
  M 163.24 251.92
  A 1.06 1.06 0.0 0 1 162.23 252.65
  Q 153.82 252.61 145.24 254.02
  Q 139.44 254.97 134.19 254.98
  Q 125.33 254.99 96.92 255.21
  A 1.88 1.87 -80.8 0 0 95.16 256.48
  Q 95.12 256.61 95.13 257.70
  C 95.34 272.01 97.78 285.74 101.28 299.45
  Q 102.40 303.85 105.08 310.45
  Q 111.02 325.10 119.44 339.89
  Q 123.55 347.11 127.65 351.90
  C 133.45 358.70 139.74 367.06 146.92 373.11
  C 151.58 377.03 160.11 384.09 167.28 388.81
  Q 170.90 391.19 174.63 393.58
  Q 179.56 396.75 190.10 401.84
  C 195.94 404.66 201.43 405.70 207.39 407.96
  C 218.61 412.20 230.51 413.34 242.37 414.51
  Q 250.42 415.31 256.25 415.15
  Q 283.54 414.39 305.40 407.10
  Q 319.76 402.31 340.00 390.93
  C 349.01 385.85 355.68 379.40 364.11 372.59
  Q 369.40 368.32 374.91 361.44
  Q 384.75 349.18 387.19 345.46
  C 394.81 333.88 401.27 323.39 404.71 312.73
  C 407.50 304.09 410.04 297.47 411.37 290.08
  Q 415.43 267.49 415.00 251.77
  Q 414.61 237.72 412.90 228.78
  C 410.61 216.80 409.02 208.66 404.93 198.83
  Q 398.54 183.48 390.26 169.17
  Q 386.79 163.16 381.34 156.73
  C 374.12 148.20 369.62 141.98 361.85 135.65
  Q 349.05 125.22 334.80 116.20
  Q 333.34 115.28 324.12 110.48
  Q 317.44 107.01 313.01 105.72
  C 306.60 103.86 300.25 101.30 293.26 99.73
  Q 273.51 95.30 256.99 95.25
  Q 189.58 95.04 108.50 95.12
  Q 100.51 95.13 96.44 95.26
  A 1.31 1.30 89.3 0 0 95.17 96.57
  Q 95.05 141.30 95.21 174.73
  Q 95.27 185.39 98.68 199.69
  Q 100.26 206.30 103.67 211.94
  C 108.96 220.67 114.88 228.33 122.34 234.70
  Q 125.72 237.59 129.33 241.03
  A 9.76 9.65 77.2 0 0 132.45 243.02
  C 139.80 245.89 146.99 249.98 154.98 250.38
  Q 160.29 250.64 162.78 251.11
  A 0.62 0.61 -75.6 0 1 163.24 251.90
  L 163.24 251.92"
/>
<path fill="#000000" d="
  M 443.72 0.00
  Q 452.48 0.38 461.25 0.87
  Q 466.10 1.13 470.72 3.51
  Q 483.00 9.84 489.58 14.69
  C 495.39 18.98 498.93 25.92 502.15 30.06
  C 506.69 35.90 509.35 43.01 511.27 49.29
  A 0.75 0.41 -73.8 0 1 511.31 49.47
  L 512.00 53.95
  L 512.00 454.74
  Q 511.33 460.97 510.76 462.47
  Q 507.43 471.28 497.55 486.57
  Q 493.16 493.36 487.82 496.85
  Q 483.05 499.97 478.62 503.35
  C 473.50 507.25 467.05 508.53 461.43 510.94
  A 3.04 2.99 29.6 0 1 460.53 511.18
  L 453.11 512.00
  L 56.01 512.00
  L 48.00 511.15
  A 3.03 2.78 58.1 0 1 47.07 510.89
  Q 35.80 505.51 24.48 498.21
  C 20.51 495.65 16.16 492.04 14.19 489.05
  Q 7.52 478.98 6.01 476.73
  Q 1.38 469.80 0.00 458.37
  L 0.00 58.02
  C 0.41 54.50 0.43 51.04 1.35 47.73
  Q 5.69 32.28 15.73 19.49
  Q 17.63 17.06 20.92 14.68
  Q 28.48 9.17 31.05 7.60
  Q 36.17 4.47 45.90 1.01
  A 3.91 3.91 0.0 0 1 46.93 0.79
  L 55.64 0.00
  L 443.72 0.00
  Z
  M 163.24 251.92
  A 1.06 1.06 0.0 0 1 162.23 252.65
  Q 153.82 252.61 145.24 254.02
  Q 139.44 254.97 134.19 254.98
  Q 125.33 254.99 96.92 255.21
  A 1.88 1.87 -80.8 0 0 95.16 256.48
  Q 95.12 256.61 95.13 257.70
  C 95.34 272.01 97.78 285.74 101.28 299.45
  Q 102.40 303.85 105.08 310.45
  Q 111.02 325.10 119.44 339.89
  Q 123.55 347.11 127.65 351.90
  C 133.45 358.70 139.74 367.06 146.92 373.11
  C 151.58 377.03 160.11 384.09 167.28 388.81
  Q 170.90 391.19 174.63 393.58
  Q 179.56 396.75 190.10 401.84
  C 195.94 404.66 201.43 405.70 207.39 407.96
  C 218.61 412.20 230.51 413.34 242.37 414.51
  Q 250.42 415.31 256.25 415.15
  Q 283.54 414.39 305.40 407.10
  Q 319.76 402.31 340.00 390.93
  C 349.01 385.85 355.68 379.40 364.11 372.59
  Q 369.40 368.32 374.91 361.44
  Q 384.75 349.18 387.19 345.46
  C 394.81 333.88 401.27 323.39 404.71 312.73
  C 407.50 304.09 410.04 297.47 411.37 290.08
  Q 415.43 267.49 415.00 251.77
  Q 414.61 237.72 412.90 228.78
  C 410.61 216.80 409.02 208.66 404.93 198.83
  Q 398.54 183.48 390.26 169.17
  Q 386.79 163.16 381.34 156.73
  C 374.12 148.20 369.62 141.98 361.85 135.65
  Q 349.05 125.22 334.80 116.20
  Q 333.34 115.28 324.12 110.48
  Q 317.44 107.01 313.01 105.72
  C 306.60 103.86 300.25 101.30 293.26 99.73
  Q 273.51 95.30 256.99 95.25
  Q 189.58 95.04 108.50 95.12
  Q 100.51 95.13 96.44 95.26
  A 1.31 1.30 89.3 0 0 95.17 96.57
  Q 95.05 141.30 95.21 174.73
  Q 95.27 185.39 98.68 199.69
  Q 100.26 206.30 103.67 211.94
  C 108.96 220.67 114.88 228.33 122.34 234.70
  Q 125.72 237.59 129.33 241.03
  A 9.76 9.65 77.2 0 0 132.45 243.02
  C 139.80 245.89 146.99 249.98 154.98 250.38
  Q 160.29 250.64 162.78 251.11
  A 0.62 0.61 -75.6 0 1 163.24 251.90
  L 163.24 251.92
  Z"
/>
<path fill="#ffffff" d="
  M 163.24 251.92
  L 163.24 251.90
  A 0.62 0.61 -75.6 0 0 162.78 251.11
  Q 160.29 250.64 154.98 250.38
  C 146.99 249.98 139.80 245.89 132.45 243.02
  A 9.76 9.65 77.2 0 1 129.33 241.03
  Q 125.72 237.59 122.34 234.70
  C 114.88 228.33 108.96 220.67 103.67 211.94
  Q 100.26 206.30 98.68 199.69
  Q 95.27 185.39 95.21 174.73
  Q 95.05 141.30 95.17 96.57
  A 1.31 1.30 89.3 0 1 96.44 95.26
  Q 100.51 95.13 108.50 95.12
  Q 189.58 95.04 256.99 95.25
  Q 273.51 95.30 293.26 99.73
  C 300.25 101.30 306.60 103.86 313.01 105.72
  Q 317.44 107.01 324.12 110.48
  Q 333.34 115.28 334.80 116.20
  Q 349.05 125.22 361.85 135.65
  C 369.62 141.98 374.12 148.20 381.34 156.73
  Q 386.79 163.16 390.26 169.17
  Q 398.54 183.48 404.93 198.83
  C 409.02 208.66 410.61 216.80 412.90 228.78
  Q 414.61 237.72 415.00 251.77
  Q 415.43 267.49 411.37 290.08
  C 410.04 297.47 407.50 304.09 404.71 312.73
  C 401.27 323.39 394.81 333.88 387.19 345.46
  Q 384.75 349.18 374.91 361.44
  Q 369.40 368.32 364.11 372.59
  C 355.68 379.40 349.01 385.85 340.00 390.93
  Q 319.76 402.31 305.40 407.10
  Q 283.54 414.39 256.25 415.15
  Q 250.42 415.31 242.37 414.51
  C 230.51 413.34 218.61 412.20 207.39 407.96
  C 201.43 405.70 195.94 404.66 190.10 401.84
  Q 179.56 396.75 174.63 393.58
  Q 170.90 391.19 167.28 388.81
  C 160.11 384.09 151.58 377.03 146.92 373.11
  C 139.74 367.06 133.45 358.70 127.65 351.90
  Q 123.55 347.11 119.44 339.89
  Q 111.02 325.10 105.08 310.45
  Q 102.40 303.85 101.28 299.45
  C 97.78 285.74 95.34 272.01 95.13 257.70
  Q 95.12 256.61 95.16 256.48
  A 1.88 1.87 -80.8 0 1 96.92 255.21
  Q 125.33 254.99 134.19 254.98
  Q 139.44 254.97 145.24 254.02
  Q 153.82 252.61 162.23 252.65
  A 1.06 1.06 0.0 0 0 163.24 251.92
  Z"
/>
</svg>