<?xml version="1.0" encoding="UTF-8" standalone="no"?>
<!DOCTYPE svg PUBLIC "-//W3C//DTD SVG 1.1//EN" "http://www.w3.org/Graphics/SVG/1.1/DTD/svg11.dtd">
<svg xmlns="http://www.w3.org/2000/svg" version="1.1" viewBox="0.00 0.00 256.00 256.00" width="128" height="128">
<path fill="#ff3c78" d="
  M 102.96 0.00
  Q 117.59 1.51 127.87 11.89
  Q 148.61 32.84 154.61 38.75
  C 156.45 40.57 158.31 42.92 159.94 44.53
  Q 209.34 93.31 212.77 96.70
  C 219.31 103.17 224.51 108.01 227.26 115.04
  Q 234.21 132.77 225.80 147.93
  Q 223.44 152.20 215.23 160.38
  Q 170.94 204.55 130.06 245.31
  Q 120.80 254.54 106.61 256.00
  L 100.61 256.00
  C 89.48 254.72 81.78 250.02 73.60 241.81
  Q 52.70 220.85 46.56 214.61
  C 42.76 210.75 39.04 204.34 37.55 198.79
  Q 33.57 183.97 40.86 170.44
  Q 43.39 165.76 49.61 159.80
  Q 53.92 155.67 79.33 130.14
  A 0.33 0.33 0.0 0 0 79.33 129.68
  Q 59.97 110.58 42.89 93.36
  C 30.98 81.36 28.78 63.25 36.88 48.46
  Q 39.28 44.08 45.91 37.58
  Q 48.05 35.49 72.48 11.72
  Q 82.84 1.64 96.54 0.00
  L 102.96 0.00
  Z
  M 99.72 109.81
  Q 133.89 75.53 135.38 74.24
  Q 138.12 71.88 138.68 69.56
  C 140.03 63.90 138.00 61.37 133.44 56.88
  Q 113.24 36.96 108.99 32.59
  C 105.30 28.78 102.45 27.09 97.51 27.99
  Q 94.97 28.44 89.82 33.67
  Q 85.35 38.20 62.33 60.58
  A 4.36 3.89 -10.1 0 0 61.64 61.46
  Q 59.29 65.48 60.25 69.64
  Q 60.75 71.81 65.58 76.63
  Q 86.89 97.88 98.87 109.81
  A 0.61 0.60 44.7 0 0 99.72 109.81
  Z
  M 161.85 85.63
  Q 159.46 89.71 155.83 93.33
  Q 153.26 95.89 119.44 129.52
  A 0.44 0.44 0.0 0 0 119.44 130.14
  L 162.24 172.94
  A 0.58 0.58 0.0 0 0 163.06 172.94
  L 200.37 135.64
  A 1.79 1.59 -10.7 0 0 200.64 135.29
  Q 203.05 131.30 201.99 126.97
  Q 201.50 124.95 196.62 120.08
  Q 167.11 90.64 162.13 85.60
  A 0.18 0.18 0.0 0 0 161.85 85.63
  Z
  M 142.51 192.57
  L 99.81 149.87
  A 0.57 0.57 0.0 0 0 99.01 149.87
  L 67.52 181.36
  A 10.62 10.34 -45.0 0 0 67.32 196.18
  L 96.20 225.06
  A 10.62 10.34 -45.0 0 0 111.02 224.86
  L 142.51 193.37
  A 0.57 0.57 0.0 0 0 142.51 192.57
  Z"
/>
</svg>