<?xml version="1.0" encoding="UTF-8" standalone="no"?>
<!DOCTYPE svg PUBLIC "-//W3C//DTD SVG 1.1//EN" "http://www.w3.org/Graphics/SVG/1.1/DTD/svg11.dtd">
<svg xmlns="http://www.w3.org/2000/svg" version="1.1" viewBox="0.00 0.00 256.00 256.00" width="128" height="128">
<g stroke-width="2.00" fill="none" stroke-linecap="butt">
<path stroke="#176b6a" vector-effect="non-scaling-stroke" d="
  M 29.17 37.12
  Q 10.03 48.52 18.12 72.14"
/>
<path stroke="#176b6a" vector-effect="non-scaling-stroke" d="
  M 29.87 111.24
  Q 21.08 115.89 17.25 125.20
  Q 16.01 128.22 16.01 132.26
  Q 16.01 137.98 16.22 140.65"
/>
<path stroke="#176b6a" vector-effect="non-scaling-stroke" d="
  M 240.39 116.07
  Q 241.78 124.83 240.50 129.96
  C 239.03 135.86 233.31 143.48 226.79 145.94"
/>
<path stroke="#176b6a" vector-effect="non-scaling-stroke" d="
  M 226.65 220.43
  Q 228.48 219.93 230.84 218.10
  C 237.12 213.24 240.67 207.15 241.19 199.08
  Q 241.65 191.78 239.01 185.05"
/>
</g>
<path fill="#0dc09d" d="
  M 256.00 0.00
  L 256.00 30.87
  L 255.34 33.27
  A 0.60 0.59 -78.6 0 1 254.70 33.70
  Q 252.73 33.45 251.75 33.45
  Q 150.01 33.61 44.25 33.47
  Q 38.58 33.46 29.17 37.12
  Q 10.03 48.52 18.12 72.14
  Q 13.71 73.30 11.35 70.16
  C 6.21 63.31 1.63 56.15 0.00 47.60
  L 0.00 36.22
  C 0.40 34.36 0.63 32.51 1.32 30.76
  C 6.29 18.04 12.96 9.86 25.55 3.60
  Q 31.61 0.59 36.05 0.00
  L 256.00 0.00
  Z"
/>
<path fill="#201637" d="
  M 18.12 72.14
  Q 10.03 48.52 29.17 37.12
  L 31.84 37.01
  A 1.58 1.57 86.4 0 1 33.47 38.45
  Q 33.85 42.93 34.03 44.21
  C 34.54 47.89 39.78 49.92 43.02 50.78
  Q 70.43 58.02 88.20 63.31
  C 91.45 64.27 92.58 65.04 95.60 66.69
  A 0.34 0.34 0.0 0 1 95.38 67.32
  C 90.30 66.58 85.66 67.03 80.87 66.92
  Q 51.94 66.24 39.50 66.63
  Q 29.59 66.93 18.12 72.14
  Z"
/>
<path fill="#0dc09d" d="
  M 256.00 75.53
  L 256.00 105.39
  L 255.23 107.84
  A 0.79 0.78 -78.6 0 1 254.41 108.39
  C 252.49 108.19 250.08 107.89 248.47 107.89
  Q 102.49 107.74 43.50 107.79
  Q 42.64 107.79 39.74 108.21
  A 1.98 1.59 -51.2 0 0 39.42 108.28
  L 29.87 111.24
  Q 21.08 115.89 17.25 125.20
  Q 16.01 128.22 16.01 132.26
  Q 16.01 137.98 16.22 140.65
  C 13.39 141.08 8.21 140.64 6.60 138.16
  Q 1.84 130.87 0.00 122.01
  L 0.00 110.57
  Q 1.01 104.83 4.71 97.71
  C 13.18 81.45 28.00 74.54 46.00 74.63
  Q 147.35 75.09 228.75 74.83
  Q 244.15 74.78 256.00 75.53
  Z"
/>
<path fill="#201637" d="
  M 29.87 111.24
  Q 30.39 111.79 31.55 111.69
  A 1.94 1.90 86.6 0 1 33.62 113.57
  Q 33.71 117.01 34.47 119.73
  C 35.21 122.38 40.41 124.32 42.95 125.04
  Q 47.34 126.29 73.99 133.39
  C 80.03 135.00 84.88 137.07 90.71 138.58
  A 4.75 4.48 65.1 0 1 91.71 138.98
  L 95.69 141.20
  A 0.33 0.33 0.0 0 1 95.52 141.82
  C 87.80 141.64 79.80 141.08 73.15 141.03
  Q 45.13 140.81 20.75 141.08
  Q 19.82 141.09 16.22 140.65
  Q 16.01 137.98 16.01 132.26
  Q 16.01 128.22 17.25 125.20
  Q 21.08 115.89 29.87 111.24
  Z"
/>
<path fill="#201637" d="
  M 240.39 116.07
  Q 241.78 124.83 240.50 129.96
  C 239.03 135.86 233.31 143.48 226.79 145.94
  Q 224.98 145.87 223.95 145.05
  A 1.29 1.25 17.7 0 1 223.47 144.15
  C 223.25 141.37 223.77 136.65 220.37 134.63
  C 218.62 133.60 215.99 132.37 213.70 131.80
  Q 203.09 129.13 181.38 123.08
  Q 171.80 120.41 165.60 118.05
  Q 163.84 117.38 162.83 116.62
  A 0.45 0.44 63.8 0 1 163.10 115.82
  L 240.39 116.07
  Z"
/>
<path fill="#0dc09d" d="
  M 256.00 133.87
  L 256.00 147.76
  Q 253.50 162.64 241.91 172.44
  C 232.67 180.26 221.79 182.31 210.00 182.27
  Q 100.92 181.95 1.09 182.11
  A 0.68 0.67 -8.0 0 1 0.44 181.63
  L 0.00 180.10
  L 0.00 153.12
  L 0.65 149.49
  A 0.99 0.99 0.0 0 1 1.65 148.68
  C 15.28 149.03 24.40 149.56 36.11 149.36
  Q 48.71 149.13 62.75 149.16
  Q 123.25 149.29 211.44 149.14
  C 214.14 149.14 216.45 148.90 219.23 148.02
  Q 222.91 146.85 226.79 145.94
  C 233.31 143.48 239.03 135.86 240.50 129.96
  Q 241.78 124.83 240.39 116.07
  L 247.79 116.78
  A 3.19 3.18 -12.5 0 1 250.21 118.32
  Q 254.57 125.61 256.00 133.87
  Z"
/>
<path fill="#0dc09d" d="
  M 256.00 208.39
  L 256.00 222.00
  Q 255.16 228.26 252.16 233.90
  Q 241.49 253.94 218.88 256.00
  L 0.00 256.00
  L 0.00 227.28
  L 0.81 224.06
  A 0.77 0.76 -82.6 0 1 1.55 223.48
  L 214.61 223.48
  A 7.95 7.91 -52.8 0 0 216.77 223.18
  L 226.65 220.43
  Q 228.48 219.93 230.84 218.10
  C 237.12 213.24 240.67 207.15 241.19 199.08
  Q 241.65 191.78 239.01 185.05
  Q 240.40 184.95 241.81 184.34
  A 1.81 1.80 59.6 0 1 243.97 184.91
  Q 246.98 188.89 249.49 192.47
  Q 254.58 199.70 256.00 208.39
  Z"
/>
<path fill="#201637" d="
  M 239.01 185.05
  Q 241.65 191.78 241.19 199.08
  C 240.67 207.15 237.12 213.24 230.84 218.10
  Q 228.48 219.93 226.65 220.43
  Q 223.79 220.22 223.18 218.41
  A 1.92 1.84 40.6 0 1 223.10 217.60
  Q 223.47 214.55 222.98 212.33
  C 222.26 209.10 216.47 206.88 213.82 206.17
  C 202.96 203.25 190.14 200.04 178.33 196.32
  Q 174.03 194.96 167.07 193.22
  Q 165.32 192.78 162.18 190.44
  A 0.33 0.33 0.0 0 1 162.32 189.85
  C 163.33 189.69 165.49 190.32 167.24 190.29
  Q 185.92 189.90 205.75 190.58
  Q 212.52 190.81 222.58 189.90
  Q 226.58 189.53 239.01 185.05
  Z"
/>
</svg>