<?xml version="1.0" encoding="UTF-8" standalone="no"?>
<!DOCTYPE svg PUBLIC "-//W3C//DTD SVG 1.1//EN" "http://www.w3.org/Graphics/SVG/1.1/DTD/svg11.dtd">
<svg xmlns="http://www.w3.org/2000/svg" version="1.1" viewBox="0.00 0.00 128.00 128.00" width="128" height="128">
<path fill="#000000" d="
  M 90.84 29.86
  A 1.66 1.65 56.4 0 0 92.36 30.17
  C 96.89 28.83 101.20 29.22 104.49 33.00
  Q 112.52 42.24 118.89 52.89
  Q 119.47 53.88 120.73 57.18
  C 124.87 68.08 113.89 75.53 105.80 79.40
  A 3.27 3.27 0.0 0 0 104.26 80.97
  Q 95.80 99.39 76.33 105.37
  Q 74.64 105.89 64.98 107.62
  A 4.96 4.94 -43.7 0 1 63.01 107.58
  C 59.08 106.71 53.39 106.18 48.96 104.52
  Q 31.94 98.14 23.91 81.17
  A 3.58 3.51 -88.9 0 0 22.39 79.56
  C 14.04 75.07 3.10 68.44 7.40 56.90
  C 10.20 49.40 16.76 41.15 21.97 34.79
  C 25.64 30.31 28.94 28.50 34.51 29.98
  A 2.54 2.54 0.0 0 0 36.70 29.55
  C 52.94 17.27 74.94 16.98 90.84 29.86
  Z
  M 105.50 71.02
  C 108.20 69.79 114.50 65.53 114.12 61.82
  Q 113.87 59.35 113.27 58.21
  Q 108.55 49.23 98.61 37.58
  A 1.89 1.84 73.3 0 0 97.46 36.94
  Q 94.34 36.45 92.04 39.54
  A 0.93 0.93 0.0 0 1 90.63 39.63
  C 77.53 26.31 60.43 24.03 44.10 33.36
  Q 40.11 35.64 38.07 38.72
  A 0.99 0.99 0.0 0 1 36.79 39.05
  C 34.45 37.87 31.42 35.45 29.21 37.94
  Q 21.18 47.01 15.83 56.31
  Q 13.88 59.70 13.84 61.52
  C 13.77 65.56 18.81 69.09 22.13 70.86
  A 0.85 0.85 0.0 0 0 23.37 70.22
  Q 24.53 61.79 27.59 54.70
  A 1.01 1.01 0.0 0 1 28.94 54.18
  L 33.78 56.35
  A 1.11 1.10 23.3 0 1 34.35 57.78
  Q 30.94 66.08 30.14 75.33
  A 3.62 3.35 42.7 0 0 30.23 76.47
  Q 30.76 78.63 31.98 80.80
  Q 39.35 93.95 53.78 98.28
  A 0.85 0.85 0.0 0 0 54.88 97.47
  L 54.88 95.94
  A 1.66 1.65 -77.9 0 0 53.91 94.43
  L 47.81 91.70
  A 1.48 1.47 -59.5 0 1 47.24 89.48
  L 47.88 88.62
  A 1.86 1.86 0.0 0 1 50.37 88.32
  Q 55.57 92.06 61.26 88.47
  A 1.50 1.50 0.0 0 0 61.96 87.20
  L 61.92 81.52
  A 1.66 1.64 25.6 0 0 61.54 80.47
  C 60.70 79.39 58.98 78.96 58.06 77.82
  C 56.88 76.34 55.56 74.39 57.12 72.63
  C 60.41 68.91 66.47 69.04 70.20 71.65
  A 3.33 3.10 27.4 0 1 71.50 75.28
  Q 70.56 78.08 66.95 79.97
  A 1.66 1.64 76.5 0 0 66.06 81.44
  L 66.06 87.33
  A 1.42 1.41 15.2 0 0 66.76 88.55
  Q 72.77 92.06 77.55 88.35
  A 1.88 1.88 0.0 0 1 80.19 88.67
  L 80.91 89.58
  A 1.34 1.34 0.0 0 1 80.41 91.63
  L 74.20 94.43
  A 1.92 1.92 0.0 0 0 73.07 96.18
  L 73.07 97.32
  A 1.04 1.04 0.0 0 0 74.44 98.31
  Q 90.08 93.08 96.93 79.21
  Q 98.02 76.99 97.84 74.97
  Q 97.02 65.65 93.70 57.74
  A 1.08 1.07 66.5 0 1 94.25 56.34
  L 99.02 54.19
  A 1.05 1.04 -23.9 0 1 100.41 54.72
  Q 103.64 62.08 104.75 70.61
  A 0.53 0.53 0.0 0 0 105.50 71.02
  Z
  M 64.03 103.82
  C 67.32 103.81 69.22 97.85 69.49 95.10
  A 1.19 1.19 0.0 0 0 68.92 93.96
  Q 66.82 92.72 64.21 91.90
  Q 64.08 91.86 63.98 91.86
  Q 63.89 91.86 63.75 91.91
  Q 61.15 92.74 59.06 94.00
  A 1.19 1.19 0.0 0 0 58.50 95.15
  C 58.80 97.89 60.75 103.83 64.03 103.82
  Z"
/>
<circle fill="#000000" cx="45.02" cy="58.41" r="5.33"/>
<circle fill="#000000" cx="78.51" cy="58.41" r="5.32"/>
</svg>