<?xml version="1.0" encoding="UTF-8" standalone="no"?>
<!DOCTYPE svg PUBLIC "-//W3C//DTD SVG 1.1//EN" "http://www.w3.org/Graphics/SVG/1.1/DTD/svg11.dtd">
<svg xmlns="http://www.w3.org/2000/svg" version="1.1" viewBox="0.00 0.00 180.00 180.00" width="128" height="128">
<g stroke-width="2.00" fill="none" stroke-linecap="butt">
<path stroke="#f89f97" vector-effect="non-scaling-stroke" d="
  M 97.50 76.99
  Q 99.90 75.25 109.52 68.11
  Q 115.96 63.33 117.89 60.66
  C 125.00 50.77 125.34 38.67 118.34 28.55
  A 0.42 0.41 -35.3 0 0 117.75 28.45
  C 105.33 37.64 93.43 46.73 81.73 55.20
  Q 79.33 56.94 69.72 64.08
  Q 63.28 68.87 61.35 71.54
  C 54.23 81.43 53.89 93.53 60.89 103.65
  A 0.42 0.41 -35.3 0 0 61.48 103.75
  C 73.90 94.55 85.81 85.47 97.50 76.99"
/>
<path stroke="#f89f97" vector-effect="non-scaling-stroke" d="
  M 82.51 103.00
  Q 80.11 104.74 70.49 111.88
  Q 64.05 116.67 62.12 119.34
  C 55.01 129.23 54.67 141.33 61.67 151.45
  A 0.42 0.41 -35.3 0 0 62.26 151.55
  C 74.68 142.35 86.58 133.26 98.28 124.79
  Q 100.68 123.05 110.29 115.91
  Q 116.73 111.12 118.66 108.45
  C 125.77 98.56 126.11 86.46 119.11 76.34
  A 0.42 0.41 -35.3 0 0 118.52 76.25
  C 106.11 85.44 94.20 94.53 82.51 103.00"
/>
</g>
<path fill="#f03e2f" d="
  M 94.91 0.00
  Q 114.14 1.26 129.81 9.15
  Q 163.39 26.06 175.83 62.47
  Q 179.01 71.77 180.00 84.97
  L 180.00 94.83
  Q 178.47 118.82 166.34 137.84
  Q 147.13 167.99 112.28 177.29
  C 106.77 178.76 100.77 179.40 94.94 180.00
  L 85.07 180.00
  Q 45.43 177.07 20.62 147.38
  Q 2.02 125.10 0.00 94.98
  L 0.00 85.09
  C 2.99 38.79 38.84 3.15 84.99 0.00
  L 94.91 0.00
  Z
  M 97.50 76.99
  Q 99.90 75.25 109.52 68.11
  Q 115.96 63.33 117.89 60.66
  C 125.00 50.77 125.34 38.67 118.34 28.55
  A 0.42 0.41 -35.3 0 0 117.75 28.45
  C 105.33 37.64 93.43 46.73 81.73 55.20
  Q 79.33 56.94 69.72 64.08
  Q 63.28 68.87 61.35 71.54
  C 54.23 81.43 53.89 93.53 60.89 103.65
  A 0.42 0.41 -35.3 0 0 61.48 103.75
  C 73.90 94.55 85.81 85.47 97.50 76.99
  Z
  M 82.51 103.00
  Q 80.11 104.74 70.49 111.88
  Q 64.05 116.67 62.12 119.34
  C 55.01 129.23 54.67 141.33 61.67 151.45
  A 0.42 0.41 -35.3 0 0 62.26 151.55
  C 74.68 142.35 86.58 133.26 98.28 124.79
  Q 100.68 123.05 110.29 115.91
  Q 116.73 111.12 118.66 108.45
  C 125.77 98.56 126.11 86.46 119.11 76.34
  A 0.42 0.41 -35.3 0 0 118.52 76.25
  C 106.11 85.44 94.20 94.53 82.51 103.00
  Z"
/>
<path fill="#ffffff" d="
  M 97.50 76.99
  C 85.81 85.47 73.90 94.55 61.48 103.75
  A 0.42 0.41 -35.3 0 1 60.89 103.65
  C 53.89 93.53 54.23 81.43 61.35 71.54
  Q 63.28 68.87 69.72 64.08
  Q 79.33 56.94 81.73 55.20
  C 93.43 46.73 105.33 37.64 117.75 28.45
  A 0.42 0.41 -35.3 0 1 118.34 28.55
  C 125.34 38.67 125.00 50.77 117.89 60.66
  Q 115.96 63.33 109.52 68.11
  Q 99.90 75.25 97.50 76.99
  Z"
/>
<path fill="#ffffff" d="
  M 82.51 103.00
  C 94.20 94.53 106.11 85.44 118.52 76.25
  A 0.42 0.41 -35.3 0 1 119.11 76.34
  C 126.11 86.46 125.77 98.56 118.66 108.45
  Q 116.73 111.12 110.29 115.91
  Q 100.68 123.05 98.28 124.79
  C 86.58 133.26 74.68 142.35 62.26 151.55
  A 0.42 0.41 -35.3 0 1 61.67 151.45
  C 54.67 141.33 55.01 129.23 62.12 119.34
  Q 64.05 116.67 70.49 111.88
  Q 80.11 104.74 82.51 103.00
  Z"
/>
</svg>