<?xml version="1.0" encoding="UTF-8" standalone="no"?>
<!DOCTYPE svg PUBLIC "-//W3C//DTD SVG 1.1//EN" "http://www.w3.org/Graphics/SVG/1.1/DTD/svg11.dtd">
<svg xmlns="http://www.w3.org/2000/svg" version="1.1" viewBox="0.00 0.00 192.00 192.00" width="128" height="128">
<g stroke-width="2.00" fill="none" stroke-linecap="butt">
<path stroke="#11914d" vector-effect="non-scaling-stroke" d="
  M 75.36 46.27
  C 69.46 48.72 61.65 47.65 57.06 42.82
  A 0.39 0.39 0.0 0 0 56.52 42.80
  Q 56.10 43.19 49.64 49.65
  Q 43.18 56.11 42.80 56.52
  A 0.39 0.39 0.0 0 0 42.81 57.07
  C 47.64 61.66 48.71 69.46 46.27 75.37
  C 43.82 81.27 37.55 86.03 30.89 85.86
  A 0.39 0.39 0.0 0 0 30.49 86.23
  Q 30.47 86.80 30.47 95.94
  Q 30.47 105.07 30.49 105.64
  A 0.39 0.39 0.0 0 0 30.89 106.01
  C 37.55 105.84 43.83 110.61 46.27 116.51
  C 48.72 122.41 47.65 130.22 42.82 134.80
  A 0.39 0.39 0.0 0 0 42.80 135.35
  Q 43.19 135.76 49.65 142.22
  Q 56.11 148.68 56.53 149.07
  A 0.39 0.39 0.0 0 0 57.07 149.05
  C 61.66 144.22 69.47 143.15 75.37 145.60
  C 81.27 148.04 86.04 154.32 85.86 160.97
  A 0.39 0.39 0.0 0 0 86.24 161.37
  Q 86.80 161.39 95.94 161.39
  Q 105.08 161.39 105.64 161.37
  A 0.39 0.39 0.0 0 0 106.02 160.97
  C 105.84 154.31 110.61 148.04 116.51 145.59
  C 122.41 143.15 130.22 144.21 134.80 149.04
  A 0.39 0.39 0.0 0 0 135.35 149.06
  Q 135.77 148.68 142.23 142.21
  Q 148.69 135.75 149.07 135.34
  A 0.39 0.39 0.0 0 0 149.05 134.79
  C 144.22 130.21 143.15 122.40 145.60 116.50
  C 148.04 110.60 154.32 105.83 160.98 106.00
  A 0.39 0.39 0.0 0 0 161.37 105.63
  Q 161.40 105.06 161.39 95.93
  Q 161.39 86.79 161.37 86.22
  A 0.39 0.39 0.0 0 0 160.97 85.85
  C 154.32 86.02 148.04 81.26 145.59 75.36
  C 143.15 69.46 144.22 61.65 149.05 57.06
  A 0.39 0.39 0.0 0 0 149.06 56.51
  Q 148.68 56.10 142.22 49.64
  Q 135.76 43.18 135.34 42.79
  A 0.39 0.39 0.0 0 0 134.79 42.81
  C 130.21 47.64 122.40 48.71 116.50 46.27
  C 110.60 43.82 105.83 37.55 106.00 30.89
  A 0.39 0.39 0.0 0 0 105.63 30.49
  Q 105.06 30.47 95.93 30.47
  Q 86.79 30.47 86.22 30.49
  A 0.39 0.39 0.0 0 0 85.85 30.89
  C 86.02 37.55 81.26 43.83 75.36 46.27"
/>
<path stroke="#11914d" vector-effect="non-scaling-stroke" d="
  M 79.42 67.39
  Q 63.30 76.71 63.13 77.01
  Q 62.96 77.30 62.97 95.93
  Q 62.98 114.55 63.15 114.85
  Q 63.32 115.14 79.46 124.44
  Q 95.59 133.75 95.93 133.75
  Q 96.27 133.75 112.40 124.42
  Q 128.52 115.10 128.69 114.81
  Q 128.86 114.51 128.85 95.89
  Q 128.84 77.26 128.67 76.97
  Q 128.50 76.67 112.36 67.37
  Q 96.23 58.07 95.89 58.07
  Q 95.55 58.07 79.42 67.39"
/>
</g>
<path fill="#22ee88" d="
  M 192.00 0.00
  L 192.00 192.00
  L 0.00 192.00
  L 0.00 0.00
  L 192.00 0.00
  Z
  M 75.36 46.27
  C 69.46 48.72 61.65 47.65 57.06 42.82
  A 0.39 0.39 0.0 0 0 56.52 42.80
  Q 56.10 43.19 49.64 49.65
  Q 43.18 56.11 42.80 56.52
  A 0.39 0.39 0.0 0 0 42.81 57.07
  C 47.64 61.66 48.71 69.46 46.27 75.37
  C 43.82 81.27 37.55 86.03 30.89 85.86
  A 0.39 0.39 0.0 0 0 30.49 86.23
  Q 30.47 86.80 30.47 95.94
  Q 30.47 105.07 30.49 105.64
  A 0.39 0.39 0.0 0 0 30.89 106.01
  C 37.55 105.84 43.83 110.61 46.27 116.51
  C 48.72 122.41 47.65 130.22 42.82 134.80
  A 0.39 0.39 0.0 0 0 42.80 135.35
  Q 43.19 135.76 49.65 142.22
  Q 56.11 148.68 56.53 149.07
  A 0.39 0.39 0.0 0 0 57.07 149.05
  C 61.66 144.22 69.47 143.15 75.37 145.60
  C 81.27 148.04 86.04 154.32 85.86 160.97
  A 0.39 0.39 0.0 0 0 86.24 161.37
  Q 86.80 161.39 95.94 161.39
  Q 105.08 161.39 105.64 161.37
  A 0.39 0.39 0.0 0 0 106.02 160.97
  C 105.84 154.31 110.61 148.04 116.51 145.59
  C 122.41 143.15 130.22 144.21 134.80 149.04
  A 0.39 0.39 0.0 0 0 135.35 149.06
  Q 135.77 148.68 142.23 142.21
  Q 148.69 135.75 149.07 135.34
  A 0.39 0.39 0.0 0 0 149.05 134.79
  C 144.22 130.21 143.15 122.40 145.60 116.50
  C 148.04 110.60 154.32 105.83 160.98 106.00
  A 0.39 0.39 0.0 0 0 161.37 105.63
  Q 161.40 105.06 161.39 95.93
  Q 161.39 86.79 161.37 86.22
  A 0.39 0.39 0.0 0 0 160.97 85.85
  C 154.32 86.02 148.04 81.26 145.59 75.36
  C 143.15 69.46 144.22 61.65 149.05 57.06
  A 0.39 0.39 0.0 0 0 149.06 56.51
  Q 148.68 56.10 142.22 49.64
  Q 135.76 43.18 135.34 42.79
  A 0.39 0.39 0.0 0 0 134.79 42.81
  C 130.21 47.64 122.40 48.71 116.50 46.27
  C 110.60 43.82 105.83 37.55 106.00 30.89
  A 0.39 0.39 0.0 0 0 105.63 30.49
  Q 105.06 30.47 95.93 30.47
  Q 86.79 30.47 86.22 30.49
  A 0.39 0.39 0.0 0 0 85.85 30.89
  C 86.02 37.55 81.26 43.83 75.36 46.27
  Z"
/>
<path fill="#003311" d="
  M 95.93 30.47
  Q 105.06 30.47 105.63 30.49
  A 0.39 0.39 0.0 0 1 106.00 30.89
  C 105.83 37.55 110.60 43.82 116.50 46.27
  C 122.40 48.71 130.21 47.64 134.79 42.81
  A 0.39 0.39 0.0 0 1 135.34 42.79
  Q 135.76 43.18 142.22 49.64
  Q 148.68 56.10 149.06 56.51
  A 0.39 0.39 0.0 0 1 149.05 57.06
  C 144.22 61.65 143.15 69.46 145.59 75.36
  C 148.04 81.26 154.32 86.02 160.97 85.85
  A 0.39 0.39 0.0 0 1 161.37 86.22
  Q 161.39 86.79 161.39 95.93
  Q 161.40 105.06 161.37 105.63
  A 0.39 0.39 0.0 0 1 160.98 106.00
  C 154.32 105.83 148.04 110.60 145.60 116.50
  C 143.15 122.40 144.22 130.21 149.05 134.79
  A 0.39 0.39 0.0 0 1 149.07 135.34
  Q 148.69 135.75 142.23 142.21
  Q 135.77 148.68 135.35 149.06
  A 0.39 0.39 0.0 0 1 134.80 149.04
  C 130.22 144.21 122.41 143.15 116.51 145.59
  C 110.61 148.04 105.84 154.31 106.02 160.97
  A 0.39 0.39 0.0 0 1 105.64 161.37
  Q 105.08 161.39 95.94 161.39
  Q 86.80 161.39 86.24 161.37
  A 0.39 0.39 0.0 0 1 85.86 160.97
  C 86.04 154.32 81.27 148.04 75.37 145.60
  C 69.47 143.15 61.66 144.22 57.07 149.05
  A 0.39 0.39 0.0 0 1 56.53 149.07
  Q 56.11 148.68 49.65 142.22
  Q 43.19 135.76 42.80 135.35
  A 0.39 0.39 0.0 0 1 42.82 134.80
  C 47.65 130.22 48.72 122.41 46.27 116.51
  C 43.83 110.61 37.55 105.84 30.89 106.01
  A 0.39 0.39 0.0 0 1 30.49 105.64
  Q 30.47 105.07 30.47 95.94
  Q 30.47 86.80 30.49 86.23
  A 0.39 0.39 0.0 0 1 30.89 85.86
  C 37.55 86.03 43.82 81.27 46.27 75.37
  C 48.71 69.46 47.64 61.66 42.81 57.07
  A 0.39 0.39 0.0 0 1 42.80 56.52
  Q 43.18 56.11 49.64 49.65
  Q 56.10 43.19 56.52 42.80
  A 0.39 0.39 0.0 0 1 57.06 42.82
  C 61.65 47.65 69.46 48.72 75.36 46.27
  C 81.26 43.83 86.02 37.55 85.85 30.89
  A 0.39 0.39 0.0 0 1 86.22 30.49
  Q 86.79 30.47 95.93 30.47
  Z
  M 79.42 67.39
  Q 63.30 76.71 63.13 77.01
  Q 62.96 77.30 62.97 95.93
  Q 62.98 114.55 63.15 114.85
  Q 63.32 115.14 79.46 124.44
  Q 95.59 133.75 95.93 133.75
  Q 96.27 133.75 112.40 124.42
  Q 128.52 115.10 128.69 114.81
  Q 128.86 114.51 128.85 95.89
  Q 128.84 77.26 128.67 76.97
  Q 128.50 76.67 112.36 67.37
  Q 96.23 58.07 95.89 58.07
  Q 95.55 58.07 79.42 67.39
  Z"
/>
<path fill="#22ee88" d="
  M 95.89 58.07
  Q 96.23 58.07 112.36 67.37
  Q 128.50 76.67 128.67 76.97
  Q 128.84 77.26 128.85 95.89
  Q 128.86 114.51 128.69 114.81
  Q 128.52 115.10 112.40 124.42
  Q 96.27 133.75 95.93 133.75
  Q 95.59 133.75 79.46 124.44
  Q 63.32 115.14 63.15 114.85
  Q 62.98 114.55 62.97 95.93
  Q 62.96 77.30 63.13 77.01
  Q 63.30 76.71 79.42 67.39
  Q 95.55 58.07 95.89 58.07
  Z"
/>
</svg>