<?xml version="1.0" encoding="UTF-8" standalone="no"?>
<!DOCTYPE svg PUBLIC "-//W3C//DTD SVG 1.1//EN" "http://www.w3.org/Graphics/SVG/1.1/DTD/svg11.dtd">
<svg xmlns="http://www.w3.org/2000/svg" version="1.1" viewBox="0.00 0.00 256.00 256.00" width="128" height="128">
<g stroke-width="2.00" fill="none" stroke-linecap="butt">
<path stroke="#a1c856" vector-effect="non-scaling-stroke" d="
  M 241.74 121.07
  L 211.26 104.75"
/>
<path stroke="#a1c856" vector-effect="non-scaling-stroke" d="
  M 128.99 45.80
  Q 122.17 42.87 119.46 41.39
  Q 102.57 32.16 85.51 22.92"
/>
<path stroke="#88c864" vector-effect="non-scaling-stroke" d="
  M 128.98 104.33
  Q 95.12 84.42 61.55 64.23
  Q 50.06 57.32 38.97 49.79"
/>
<path stroke="#70c872" vector-effect="non-scaling-stroke" d="
  M 128.99 134.35
  Q 103.40 120.81 82.05 107.48
  Q 39.60 80.99 16.63 67.01"
/>
<path stroke="#59c87f" vector-effect="non-scaling-stroke" d="
  M 128.99 180.31
  C 91.83 156.83 54.60 133.34 15.77 112.67"
/>
<path stroke="#88c864" vector-effect="non-scaling-stroke" d="
  M 241.72 153.22
  Q 226.07 144.81 211.26 134.97"
/>
<path stroke="#59c87f" vector-effect="non-scaling-stroke" d="
  M 172.79 198.21
  L 203.29 215.97"
/>
<path stroke="#41c88d" vector-effect="non-scaling-stroke" d="
  M 155.16 243.74
  L 15.76 161.20"
/>
<path stroke="#70c872" vector-effect="non-scaling-stroke" d="
  M 219.21 206.76
  L 191.85 187.20"
/>
</g>
<path fill="#afc84d" d="
  M 241.74 121.07
  L 211.26 104.75
  L 211.27 81.30
  A 0.79 0.78 15.8 0 0 210.89 80.63
  L 129.42 33.60
  A 0.28 0.27 -75.0 0 0 129.01 33.84
  L 128.99 45.80
  Q 122.17 42.87 119.46 41.39
  Q 102.57 32.16 85.51 22.92
  Q 102.10 13.27 118.87 3.68
  Q 124.02 0.74 127.05 0.29
  Q 131.59 -0.38 135.64 1.90
  Q 150.64 10.37 234.55 58.95
  Q 238.93 61.48 240.67 65.92
  Q 241.75 68.66 241.75 75.23
  Q 241.75 98.13 241.74 121.07
  Z"
/>
<path fill="#93c85e" d="
  M 128.99 45.80
  L 128.98 104.33
  Q 95.12 84.42 61.55 64.23
  Q 50.06 57.32 38.97 49.79
  L 85.51 22.92
  Q 102.57 32.16 119.46 41.39
  Q 122.17 42.87 128.99 45.80
  Z"
/>
<path fill="#7dc86a" d="
  M 38.97 49.79
  Q 50.06 57.32 61.55 64.23
  Q 95.12 84.42 128.98 104.33
  L 128.99 134.35
  Q 103.40 120.81 82.05 107.48
  Q 39.60 80.99 16.63 67.01
  Q 18.39 61.92 22.25 59.50
  Q 25.74 57.31 38.97 49.79
  Z"
/>
<path fill="#63c879" d="
  M 16.63 67.01
  Q 39.60 80.99 82.05 107.48
  Q 103.40 120.81 128.99 134.35
  L 128.99 180.31
  C 91.83 156.83 54.60 133.34 15.77 112.67
  Q 15.74 92.36 15.76 71.75
  Q 15.76 69.89 16.63 67.01
  Z"
/>
<path fill="#93c85e" d="
  M 241.74 121.07
  L 241.72 153.22
  Q 226.07 144.81 211.26 134.97
  L 211.26 104.75
  L 241.74 121.07
  Z"
/>
<path fill="#4ec885" d="
  M 128.99 180.31
  L 128.99 222.95
  A 0.33 0.32 -15.0 0 0 129.48 223.23
  L 172.79 198.21
  L 203.29 215.97
  L 155.16 243.74
  L 15.76 161.20
  L 15.77 112.67
  C 54.60 133.34 91.83 156.83 128.99 180.31
  Z"
/>
<path fill="#7dc86a" d="
  M 241.72 153.22
  Q 241.79 168.25 241.71 183.30
  Q 241.68 188.86 240.67 190.98
  C 239.02 194.42 237.25 196.28 233.61 198.44
  Q 226.42 202.72 219.21 206.76
  L 191.85 187.20
  L 210.86 176.22
  A 0.83 0.80 -15.7 0 0 211.27 175.52
  L 211.26 134.97
  Q 226.07 144.81 241.72 153.22
  Z"
/>
<path fill="#33c894" d="
  M 155.16 243.74
  L 133.59 256.00
  L 123.96 256.00
  Q 75.52 228.26 26.70 200.06
  C 21.62 197.13 18.33 194.87 16.53 189.62
  Q 15.77 187.39 15.76 180.79
  Q 15.75 171.00 15.76 161.20
  L 155.16 243.74
  Z"
/>
<path fill="#63c879" d="
  M 191.85 187.20
  L 219.21 206.76
  L 203.29 215.97
  L 172.79 198.21
  L 191.85 187.20
  Z"
/>
</svg>