<?xml version="1.0" encoding="UTF-8" standalone="no"?>
<!DOCTYPE svg PUBLIC "-//W3C//DTD SVG 1.1//EN" "http://www.w3.org/Graphics/SVG/1.1/DTD/svg11.dtd">
<svg xmlns="http://www.w3.org/2000/svg" version="1.1" viewBox="0.00 0.00 180.00 180.00" width="128" height="128">
<g stroke-width="2.00" fill="none" stroke-linecap="butt">
<path stroke="#55ccd9" vector-effect="non-scaling-stroke" d="
  M 109.34 23.30
  L 109.36 99.27"
/>
<path stroke="#827176" vector-effect="non-scaling-stroke" d="
  M 109.36 99.27
  Q 102.29 98.38 96.35 94.40
  Q 92.75 91.99 91.32 91.77
  C 87.59 91.19 84.76 94.29 84.05 97.89"
/>
<path stroke="#0e95a5" vector-effect="non-scaling-stroke" d="
  M 84.05 97.89
  Q 82.37 102.25 86.49 105.26
  Q 96.93 112.89 109.15 113.50"
/>
<path stroke="#55ccd9" vector-effect="non-scaling-stroke" d="
  M 109.15 113.50
  L 109.41 125.49"
/>
<path stroke="#81d7d4" vector-effect="non-scaling-stroke" d="
  M 109.41 125.49
  L 93.42 125.55"
/>
<path stroke="#6c7077" vector-effect="non-scaling-stroke" d="
  M 93.42 125.55
  L 67.59 125.57"
/>
<path stroke="#0e95a5" vector-effect="non-scaling-stroke" d="
  M 53.39 123.01
  Q 50.90 119.62 50.89 116.69
  Q 50.83 82.28 50.90 47.86
  Q 50.90 47.82 51.10 40.68
  C 51.25 35.73 50.22 32.21 52.51 27.00"
/>
<path stroke="#ee897e" vector-effect="non-scaling-stroke" d="
  M 114.55 125.63
  Q 114.51 129.18 114.18 132.50
  C 113.97 134.60 113.02 135.54 111.13 136.13
  Q 99.45 139.73 92.82 132.14"
/>
<path stroke="#d8887f" vector-effect="non-scaling-stroke" d="
  M 92.82 132.14
  Q 94.13 129.80 93.42 125.55"
/>
<path stroke="#d92220" vector-effect="non-scaling-stroke" d="
  M 92.82 132.14
  L 69.61 140.21
  A 0.82 0.82 0.0 0 0 69.27 141.54
  Q 73.24 145.88 78.97 148.28
  Q 102.79 158.26 127.75 151.02
  Q 134.29 149.12 140.10 142.88"
/>
<path stroke="#6c7077" vector-effect="non-scaling-stroke" d="
  M 140.10 142.88
  C 141.96 154.11 133.43 159.15 124.15 161.37
  Q 98.21 167.56 75.50 156.30
  C 67.85 152.51 63.10 145.17 66.19 136.76
  Q 66.59 135.65 65.37 133.82"
/>
<path stroke="#7b474f" vector-effect="non-scaling-stroke" d="
  M 134.28 102.81
  Q 117.69 115.94 99.24 109.81
  C 95.13 108.44 89.64 105.46 86.46 102.79
  Q 84.78 101.39 84.05 97.89"
/>
<path stroke="#c27e83" vector-effect="non-scaling-stroke" d="
  M 135.37 125.66
  L 114.55 125.63"
/>
<path stroke="#c0e3e1" vector-effect="non-scaling-stroke" d="
  M 114.55 125.63
  Q 112.33 125.15 109.41 125.49"
/>
<path stroke="#4da1b2" vector-effect="non-scaling-stroke" d="
  M 109.15 113.50
  Q 124.61 113.40 134.28 102.81"
/>
<path stroke="#c27e83" vector-effect="non-scaling-stroke" d="
  M 134.28 102.81
  Q 137.85 98.41 134.80 93.92
  A 2.80 2.71 -89.1 0 0 134.17 93.25
  Q 130.68 90.52 126.81 92.51
  A 2.45 2.34 -78.3 0 0 126.26 92.89
  Q 119.20 99.39 109.36 99.27"
/>
<path stroke="#0e95a5" vector-effect="non-scaling-stroke" d="
  M 32.86 98.51
  L 36.18 97.38
  A 4.36 4.07 -70.6 0 0 37.25 96.82
  Q 40.39 94.54 41.75 91.24
  Q 46.97 78.62 42.49 65.52
  C 40.94 60.98 37.99 57.11 32.84 57.32"
/>
<path stroke="#827176" vector-effect="non-scaling-stroke" d="
  M 140.96 138.64
  Q 139.94 141.01 140.10 142.88"
/>
<path stroke="#827176" vector-effect="non-scaling-stroke" d="
  M 26.48 95.76
  L 30.90 95.54"
/>
<path stroke="#6c7077" vector-effect="non-scaling-stroke" d="
  M 30.90 95.54
  Q 35.62 96.52 38.45 92.20
  C 43.64 84.27 42.89 72.08 39.36 63.92
  Q 37.06 58.58 30.93 59.99"
/>
<path stroke="#827176" vector-effect="non-scaling-stroke" d="
  M 30.93 59.99
  L 26.99 59.69"
/>
<path stroke="#d92220" vector-effect="non-scaling-stroke" d="
  M 30.93 59.99
  C 39.03 65.16 38.37 80.11 36.05 87.81
  Q 34.64 92.48 30.90 95.54"
/>
<path stroke="#c27e83" vector-effect="non-scaling-stroke" d="
  M 20.31 82.48
  Q 22.97 82.89 25.14 82.11"
/>
<path stroke="#d92220" vector-effect="non-scaling-stroke" d="
  M 25.14 82.11
  C 30.04 83.43 29.63 77.53 28.98 74.52
  Q 28.52 72.39 25.24 73.21"
/>
<path stroke="#c27e83" vector-effect="non-scaling-stroke" d="
  M 25.24 73.21
  Q 23.60 72.05 20.18 72.73"
/>
<path stroke="#ac7d84" vector-effect="non-scaling-stroke" d="
  M 25.24 73.21
  Q 26.95 77.75 25.14 82.11"
/>
<path stroke="#6c7077" vector-effect="non-scaling-stroke" d="
  M 81.78 51.16
  C 74.20 54.68 71.19 63.96 75.55 70.93
  Q 80.03 78.08 88.64 77.74"
/>
<path stroke="#827176" vector-effect="non-scaling-stroke" d="
  M 88.64 77.74
  C 95.86 76.53 102.37 74.42 104.47 66.74
  C 106.93 57.71 100.12 48.60 91.00 48.93
  Q 86.74 49.09 81.78 51.16"
/>
<path stroke="#d92220" vector-effect="non-scaling-stroke" d="
  M 88.64 77.74
  Q 86.80 76.69 84.86 75.59
  Q 82.47 74.22 81.35 73.11
  Q 75.03 66.88 78.05 57.83
  A 1.16 0.75 -33.0 0 1 78.13 57.65
  L 81.78 51.16"
/>
<path stroke="#c6e9f0" vector-effect="non-scaling-stroke" d="
  M 147.29 28.40
  C 153.77 28.97 158.02 31.47 158.51 38.42
  A 0.97 0.97 0.0 0 0 160.43 38.50
  Q 161.87 29.14 153.22 26.55
  A 2.32 1.97 49.5 0 0 152.72 26.47
  L 147.52 26.34
  A 0.71 0.70 2.5 0 0 146.79 27.00
  L 146.74 27.77
  A 0.60 0.60 0.0 0 0 147.29 28.40"
/>
<path stroke="#ac7d84" vector-effect="non-scaling-stroke" d="
  M 124.60 50.36
  Q 117.51 52.08 115.04 58.44
  C 113.06 63.53 113.89 69.10 117.58 73.16
  Q 123.22 79.34 131.32 77.15"
/>
<path stroke="#c27e83" vector-effect="non-scaling-stroke" d="
  M 131.32 77.15
  Q 138.70 76.41 142.32 71.81
  Q 146.46 66.53 145.25 60.56
  C 143.26 50.79 133.85 46.78 124.60 50.36"
/>
<path stroke="#d92220" vector-effect="non-scaling-stroke" d="
  M 131.32 77.15
  C 123.30 77.23 116.61 69.55 117.42 61.64
  Q 118.13 54.81 124.60 50.36"
/>
<path stroke="#d27f85" vector-effect="non-scaling-stroke" d="
  M 101.36 62.91
  A 10.32 10.32 0.0 0 0 91.04 52.59
  A 10.32 10.32 0.0 0 0 80.72 62.91
  A 10.32 10.32 0.0 0 0 91.04 73.23
  A 10.32 10.32 0.0 0 0 101.36 62.91"
/>
<path stroke="#d27f85" vector-effect="non-scaling-stroke" d="
  M 141.70 62.92
  A 10.32 10.32 0.0 0 0 131.38 52.60
  A 10.32 10.32 0.0 0 0 121.06 62.92
  A 10.32 10.32 0.0 0 0 131.38 73.24
  A 10.32 10.32 0.0 0 0 141.70 62.92"
/>
<path stroke="#d7eaf2" vector-effect="non-scaling-stroke" d="
  M 96.83 63.00
  A 5.16 5.16 0.0 0 0 91.67 57.84
  A 5.16 5.16 0.0 0 0 86.51 63.00
  A 5.16 5.16 0.0 0 0 91.67 68.16
  A 5.16 5.16 0.0 0 0 96.83 63.00"
/>
<path stroke="#d7eaf2" vector-effect="non-scaling-stroke" d="
  M 136.17 62.94
  A 5.07 5.07 0.0 0 0 131.10 57.87
  A 5.07 5.07 0.0 0 0 126.03 62.94
  A 5.07 5.07 0.0 0 0 131.10 68.01
  A 5.07 5.07 0.0 0 0 136.17 62.94"
/>
</g>
<path fill="#ef231f" d="
  M 103.61 16.36
  L 103.40 19.88
  A 0.48 0.48 0.0 0 1 102.93 20.33
  L 74.01 20.95
  A 0.48 0.48 0.0 0 1 73.52 20.44
  L 73.89 14.52
  A 0.48 0.48 0.0 0 1 74.40 14.07
  L 103.16 15.85
  A 0.48 0.48 0.0 0 1 103.61 16.36
  Z"
/>
<path fill="#ef231f" d="
  M 117.53 17.91
  L 117.68 15.48
  A 0.60 0.60 0.0 0 1 118.32 14.92
  L 141.04 16.32
  A 0.60 0.60 0.0 0 1 141.60 16.96
  L 141.34 21.28
  A 0.60 0.60 0.0 0 1 140.65 21.84
  L 118.05 18.54
  A 0.60 0.60 0.0 0 1 117.53 17.91
  Z"
/>
<path fill="#15bfcc" d="
  M 109.34 23.30
  L 109.36 99.27
  Q 102.29 98.38 96.35 94.40
  Q 92.75 91.99 91.32 91.77
  C 87.59 91.19 84.76 94.29 84.05 97.89
  Q 82.37 102.25 86.49 105.26
  Q 96.93 112.89 109.15 113.50
  L 109.41 125.49
  L 93.42 125.55
  L 67.59 125.57
  C 62.70 125.58 57.56 126.51 53.39 123.01
  Q 50.90 119.62 50.89 116.69
  Q 50.83 82.28 50.90 47.86
  Q 50.90 47.82 51.10 40.68
  C 51.25 35.73 50.22 32.21 52.51 27.00
  Q 55.51 23.34 59.01 23.32
  Q 84.11 23.20 109.34 23.30
  Z
  M 81.78 51.16
  C 74.20 54.68 71.19 63.96 75.55 70.93
  Q 80.03 78.08 88.64 77.74
  C 95.86 76.53 102.37 74.42 104.47 66.74
  C 106.93 57.71 100.12 48.60 91.00 48.93
  Q 86.74 49.09 81.78 51.16
  Z"
/>
<path fill="#94d8e6" d="
  M 135.37 125.66
  L 114.55 125.63
  Q 112.33 125.15 109.41 125.49
  L 109.15 113.50
  Q 124.61 113.40 134.28 102.81
  Q 137.85 98.41 134.80 93.92
  A 2.80 2.71 -89.1 0 0 134.17 93.25
  Q 130.68 90.52 126.81 92.51
  A 2.45 2.34 -78.3 0 0 126.26 92.89
  Q 119.20 99.39 109.36 99.27
  L 109.34 23.30
  Q 131.12 23.23 153.02 23.29
  Q 158.76 23.31 160.46 24.59
  C 163.61 26.94 164.56 29.22 164.56 33.59
  Q 164.49 108.31 164.59 114.24
  Q 164.67 119.16 163.19 121.52
  Q 160.63 125.58 154.76 125.54
  Q 145.25 125.48 135.37 125.66
  Z
  M 147.29 28.40
  C 153.77 28.97 158.02 31.47 158.51 38.42
  A 0.97 0.97 0.0 0 0 160.43 38.50
  Q 161.87 29.14 153.22 26.55
  A 2.32 1.97 49.5 0 0 152.72 26.47
  L 147.52 26.34
  A 0.71 0.70 2.5 0 0 146.79 27.00
  L 146.74 27.77
  A 0.60 0.60 0.0 0 0 147.29 28.40
  Z
  M 124.60 50.36
  Q 117.51 52.08 115.04 58.44
  C 113.06 63.53 113.89 69.10 117.58 73.16
  Q 123.22 79.34 131.32 77.15
  Q 138.70 76.41 142.32 71.81
  Q 146.46 66.53 145.25 60.56
  C 143.26 50.79 133.85 46.78 124.60 50.36
  Z"
/>
<path fill="#f8f9f9" d="
  M 147.29 28.40
  A 0.60 0.60 0.0 0 1 146.74 27.77
  L 146.79 27.00
  A 0.71 0.70 2.5 0 1 147.52 26.34
  L 152.72 26.47
  A 2.32 1.97 49.5 0 1 153.22 26.55
  Q 161.87 29.14 160.43 38.50
  A 0.97 0.97 0.0 0 1 158.51 38.42
  C 158.02 31.47 153.77 28.97 147.29 28.40
  Z"
/>
<path fill="#066a7e" d="
  M 52.51 27.00
  C 50.22 32.21 51.25 35.73 51.10 40.68
  Q 50.90 47.82 50.90 47.86
  Q 50.83 82.28 50.89 116.69
  Q 50.90 119.62 53.39 123.01
  L 33.36 115.31
  A 0.76 0.75 10.9 0 1 32.88 114.61
  L 32.86 98.51
  L 36.18 97.38
  A 4.36 4.07 -70.6 0 0 37.25 96.82
  Q 40.39 94.54 41.75 91.24
  Q 46.97 78.62 42.49 65.52
  C 40.94 60.98 37.99 57.11 32.84 57.32
  L 32.90 46.74
  A 1.23 1.20 -22.4 0 1 33.27 45.87
  L 52.51 27.00
  Z"
/>
<path fill="#ef231f" d="
  M 88.64 77.74
  Q 86.80 76.69 84.86 75.59
  Q 82.47 74.22 81.35 73.11
  Q 75.03 66.88 78.05 57.83
  A 1.16 0.75 -33.0 0 1 78.13 57.65
  L 81.78 51.16
  Q 86.74 49.09 91.00 48.93
  C 100.12 48.60 106.93 57.71 104.47 66.74
  C 102.37 74.42 95.86 76.53 88.64 77.74
  Z
  M 101.36 62.91
  A 10.32 10.32 0.0 0 0 91.04 52.59
  A 10.32 10.32 0.0 0 0 80.72 62.91
  A 10.32 10.32 0.0 0 0 91.04 73.23
  A 10.32 10.32 0.0 0 0 101.36 62.91
  Z"
/>
<path fill="#ef231f" d="
  M 131.32 77.15
  C 123.30 77.23 116.61 69.55 117.42 61.64
  Q 118.13 54.81 124.60 50.36
  C 133.85 46.78 143.26 50.79 145.25 60.56
  Q 146.46 66.53 142.32 71.81
  Q 138.70 76.41 131.32 77.15
  Z
  M 141.70 62.92
  A 10.32 10.32 0.0 0 0 131.38 52.60
  A 10.32 10.32 0.0 0 0 121.06 62.92
  A 10.32 10.32 0.0 0 0 131.38 73.24
  A 10.32 10.32 0.0 0 0 141.70 62.92
  Z"
/>
<path fill="#c32121" d="
  M 124.60 50.36
  Q 118.13 54.81 117.42 61.64
  C 116.61 69.55 123.30 77.23 131.32 77.15
  Q 123.22 79.34 117.58 73.16
  C 113.89 69.10 113.06 63.53 115.04 58.44
  Q 117.51 52.08 124.60 50.36
  Z"
/>
<path fill="#c32121" d="
  M 81.78 51.16
  L 78.13 57.65
  A 1.16 0.75 -33.0 0 0 78.05 57.83
  Q 75.03 66.88 81.35 73.11
  Q 82.47 74.22 84.86 75.59
  Q 86.80 76.69 88.64 77.74
  Q 80.03 78.08 75.55 70.93
  C 71.19 63.96 74.20 54.68 81.78 51.16
  Z"
/>
<path fill="#b5dbea" d="
  M 101.36 62.91
  A 10.32 10.32 0.0 0 1 91.04 73.23
  A 10.32 10.32 0.0 0 1 80.72 62.91
  A 10.32 10.32 0.0 0 1 91.04 52.59
  A 10.32 10.32 0.0 0 1 101.36 62.91
  Z
  M 96.83 63.00
  A 5.16 5.16 0.0 0 0 91.67 57.84
  A 5.16 5.16 0.0 0 0 86.51 63.00
  A 5.16 5.16 0.0 0 0 91.67 68.16
  A 5.16 5.16 0.0 0 0 96.83 63.00
  Z"
/>
<path fill="#b5dbea" d="
  M 141.70 62.92
  A 10.32 10.32 0.0 0 1 131.38 73.24
  A 10.32 10.32 0.0 0 1 121.06 62.92
  A 10.32 10.32 0.0 0 1 131.38 52.60
  A 10.32 10.32 0.0 0 1 141.70 62.92
  Z
  M 136.17 62.94
  A 5.07 5.07 0.0 0 0 131.10 57.87
  A 5.07 5.07 0.0 0 0 126.03 62.94
  A 5.07 5.07 0.0 0 0 131.10 68.01
  A 5.07 5.07 0.0 0 0 136.17 62.94
  Z"
/>
<path fill="#15bfcc" d="
  M 32.84 57.32
  C 37.99 57.11 40.94 60.98 42.49 65.52
  Q 46.97 78.62 41.75 91.24
  Q 40.39 94.54 37.25 96.82
  A 4.36 4.07 -70.6 0 1 36.18 97.38
  L 32.86 98.51
  Q 29.47 97.83 26.48 95.76
  L 30.90 95.54
  Q 35.62 96.52 38.45 92.20
  C 43.64 84.27 42.89 72.08 39.36 63.92
  Q 37.06 58.58 30.93 59.99
  L 26.99 59.69
  Q 29.82 57.52 32.84 57.32
  Z"
/>
<circle fill="#f8f9f9" cx="91.67" cy="63.00" r="5.16"/>
<circle fill="#f8f9f9" cx="131.10" cy="62.94" r="5.07"/>
<path fill="#ef231f" d="
  M 26.99 59.69
  L 30.93 59.99
  C 39.03 65.16 38.37 80.11 36.05 87.81
  Q 34.64 92.48 30.90 95.54
  L 26.48 95.76
  Q 20.45 92.21 20.31 82.48
  Q 22.97 82.89 25.14 82.11
  C 30.04 83.43 29.63 77.53 28.98 74.52
  Q 28.52 72.39 25.24 73.21
  Q 23.60 72.05 20.18 72.73
  Q 20.88 63.02 26.99 59.69
  Z"
/>
<path fill="#c32121" d="
  M 30.90 95.54
  Q 34.64 92.48 36.05 87.81
  C 38.37 80.11 39.03 65.16 30.93 59.99
  Q 37.06 58.58 39.36 63.92
  C 42.89 72.08 43.64 84.27 38.45 92.20
  Q 35.62 96.52 30.90 95.54
  Z"
/>
<path fill="#94d8e6" d="
  M 20.18 72.73
  Q 23.60 72.05 25.24 73.21
  Q 26.95 77.75 25.14 82.11
  Q 22.97 82.89 20.31 82.48
  L 17.50 82.57
  A 1.54 1.54 0.0 0 1 15.94 81.33
  Q 13.90 71.10 20.18 72.73
  Z"
/>
<path fill="#c32121" d="
  M 25.14 82.11
  Q 26.95 77.75 25.24 73.21
  Q 28.52 72.39 28.98 74.52
  C 29.63 77.53 30.04 83.43 25.14 82.11
  Z"
/>
<path fill="#ef231f" d="
  M 109.36 99.27
  Q 119.20 99.39 126.26 92.89
  A 2.45 2.34 -78.3 0 1 126.81 92.51
  Q 130.68 90.52 134.17 93.25
  A 2.80 2.71 -89.1 0 1 134.80 93.92
  Q 137.85 98.41 134.28 102.81
  Q 117.69 115.94 99.24 109.81
  C 95.13 108.44 89.64 105.46 86.46 102.79
  Q 84.78 101.39 84.05 97.89
  C 84.76 94.29 87.59 91.19 91.32 91.77
  Q 92.75 91.99 96.35 94.40
  Q 102.29 98.38 109.36 99.27
  Z"
/>
<path fill="#066a7e" d="
  M 134.28 102.81
  Q 124.61 113.40 109.15 113.50
  Q 96.93 112.89 86.49 105.26
  Q 82.37 102.25 84.05 97.89
  Q 84.78 101.39 86.46 102.79
  C 89.64 105.46 95.13 108.44 99.24 109.81
  Q 117.69 115.94 134.28 102.81
  Z"
/>
<path fill="#eceedc" d="
  M 114.55 125.63
  Q 114.51 129.18 114.18 132.50
  C 113.97 134.60 113.02 135.54 111.13 136.13
  Q 99.45 139.73 92.82 132.14
  Q 94.13 129.80 93.42 125.55
  L 109.41 125.49
  Q 112.33 125.15 114.55 125.63
  Z"
/>
<path fill="#c32121" d="
  M 93.42 125.55
  Q 94.13 129.80 92.82 132.14
  L 69.61 140.21
  A 0.82 0.82 0.0 0 0 69.27 141.54
  Q 73.24 145.88 78.97 148.28
  Q 102.79 158.26 127.75 151.02
  Q 134.29 149.12 140.10 142.88
  C 141.96 154.11 133.43 159.15 124.15 161.37
  Q 98.21 167.56 75.50 156.30
  C 67.85 152.51 63.10 145.17 66.19 136.76
  Q 66.59 135.65 65.37 133.82
  Q 65.38 129.40 67.59 125.57
  L 93.42 125.55
  Z"
/>
<path fill="#ef231f" d="
  M 135.37 125.66
  Q 141.71 130.86 140.96 138.64
  Q 139.94 141.01 140.10 142.88
  Q 134.29 149.12 127.75 151.02
  Q 102.79 158.26 78.97 148.28
  Q 73.24 145.88 69.27 141.54
  A 0.82 0.82 0.0 0 1 69.61 140.21
  L 92.82 132.14
  Q 99.45 139.73 111.13 136.13
  C 113.02 135.54 113.97 134.60 114.18 132.50
  Q 114.51 129.18 114.55 125.63
  L 135.37 125.66
  Z"
/>
<path fill="#15bfcc" d="
  M 65.37 133.82
  Q 66.59 135.65 66.19 136.76
  C 63.10 145.17 67.85 152.51 75.50 156.30
  Q 98.21 167.56 124.15 161.37
  C 133.43 159.15 141.96 154.11 140.10 142.88
  Q 139.94 141.01 140.96 138.64
  C 145.71 148.32 140.84 157.59 131.37 161.38
  C 112.73 168.83 90.25 167.02 72.86 157.54
  C 67.49 154.61 63.09 148.96 62.77 142.80
  Q 62.53 138.01 65.37 133.82
  Z"
/>
</svg>