<?xml version="1.0" encoding="UTF-8" standalone="no"?>
<!DOCTYPE svg PUBLIC "-//W3C//DTD SVG 1.1//EN" "http://www.w3.org/Graphics/SVG/1.1/DTD/svg11.dtd">
<svg xmlns="http://www.w3.org/2000/svg" version="1.1" viewBox="0.00 0.00 256.00 256.00" width="128" height="128">
<g stroke-width="2.00" fill="none" stroke-linecap="butt">
<path stroke="#a7d6c0" vector-effect="non-scaling-stroke" d="
  M 16.63 0.00
  Q 43.19 0.35 69.75 0.18
  Q 74.05 0.16 81.78 0.27
  C 86.29 0.34 90.27 1.19 94.35 2.35
  A 0.43 0.43 0.0 0 1 94.58 3.02
  Q 94.15 3.62 93.27 3.72
  Q 83.55 4.74 75.83 8.36
  Q 62.63 14.54 51.52 23.27
  Q 41.32 31.27 34.67 43.40
  Q 29.61 52.66 27.30 59.14
  C 25.17 65.16 25.07 70.85 24.83 79.01
  Q 24.31 97.19 30.36 111.96
  Q 32.33 116.76 34.39 119.42
  C 41.43 128.50 50.90 137.12 61.81 142.19
  Q 76.22 148.89 88.91 151.86
  Q 101.84 154.89 115.16 157.62
  C 127.87 160.23 138.86 162.61 151.18 166.85
  Q 157.61 169.06 161.56 173.91
  Q 164.57 177.61 164.88 181.01
  C 165.34 185.92 164.29 190.46 161.66 194.75
  C 159.74 197.89 158.92 199.61 156.23 201.22
  C 148.86 205.64 141.19 206.96 132.00 207.67
  Q 117.78 208.77 103.62 202.68
  C 92.20 197.77 87.41 189.27 84.46 177.60
  Q 83.61 174.26 80.49 174.21
  Q 58.61 173.91 35.72 173.36
  Q 27.87 173.17 21.15 172.42
  A 1.66 1.66 0.0 0 0 19.32 173.86
  C 18.48 180.45 19.79 186.18 21.49 192.60
  C 24.45 203.82 30.75 214.74 37.73 223.52
  Q 44.40 231.91 57.07 240.05
  Q 66.27 245.96 68.80 247.20
  Q 75.50 250.47 90.01 253.20
  Q 90.38 253.27 90.48 253.39
  A 0.35 0.34 64.7 0 1 90.29 253.94
  L 79.61 256.00"
/>
<path stroke="#9c9b9c" vector-effect="non-scaling-stroke" d="
  M 169.64 0.00
  L 156.53 1.75
  A 0.37 0.37 0.0 0 0 156.54 2.49
  C 170.51 4.09 182.40 10.55 194.26 18.74
  C 199.63 22.44 205.67 28.51 208.95 32.31
  Q 224.54 50.36 226.71 74.26
  Q 226.97 77.10 226.49 79.55
  A 1.08 1.07 5.8 0 1 225.42 80.42
  Q 199.94 80.25 170.52 80.37
  C 168.48 80.38 165.79 80.04 163.47 79.65
  A 3.11 3.10 -4.2 0 1 161.02 77.54
  C 159.43 72.66 158.76 68.13 155.00 63.75
  Q 151.12 59.24 149.03 57.58
  A 11.07 10.92 -12.3 0 0 146.96 56.27
  C 141.90 53.78 137.66 51.17 132.28 50.74
  Q 127.49 50.35 119.00 50.67
  C 112.41 50.91 107.78 53.33 101.58 56.31
  C 96.79 58.60 93.78 63.24 92.95 69.03
  C 92.29 73.64 91.83 78.04 94.15 81.42
  C 98.40 87.60 102.41 88.89 110.36 91.67
  Q 121.17 95.46 139.36 98.70
  Q 146.88 100.03 172.09 105.92
  C 177.22 107.12 181.83 109.42 186.74 110.73
  C 195.89 113.18 204.57 118.57 211.99 124.28
  C 221.33 131.48 227.05 142.84 230.15 153.91
  Q 232.03 160.63 232.10 169.77
  C 232.17 178.55 232.36 186.56 229.78 194.81
  C 227.33 202.66 225.07 210.35 220.18 216.44
  C 215.52 222.24 212.39 226.92 208.13 230.72
  C 200.72 237.32 194.02 242.48 185.95 246.13
  Q 182.73 247.58 179.37 249.62
  A 5.39 5.25 -68.4 0 1 178.30 250.10
  Q 170.74 252.51 162.13 253.22
  A 0.49 0.49 0.0 0 0 161.91 254.12
  Q 163.06 254.84 164.49 254.94
  Q 170.87 255.41 177.25 256.00"
/>
</g>
<path fill="#4fad81" d="
  M 16.63 0.00
  Q 43.19 0.35 69.75 0.18
  Q 74.05 0.16 81.78 0.27
  C 86.29 0.34 90.27 1.19 94.35 2.35
  A 0.43 0.43 0.0 0 1 94.58 3.02
  Q 94.15 3.62 93.27 3.72
  Q 83.55 4.74 75.83 8.36
  Q 62.63 14.54 51.52 23.27
  Q 41.32 31.27 34.67 43.40
  Q 29.61 52.66 27.30 59.14
  C 25.17 65.16 25.07 70.85 24.83 79.01
  Q 24.31 97.19 30.36 111.96
  Q 32.33 116.76 34.39 119.42
  C 41.43 128.50 50.90 137.12 61.81 142.19
  Q 76.22 148.89 88.91 151.86
  Q 101.84 154.89 115.16 157.62
  C 127.87 160.23 138.86 162.61 151.18 166.85
  Q 157.61 169.06 161.56 173.91
  Q 164.57 177.61 164.88 181.01
  C 165.34 185.92 164.29 190.46 161.66 194.75
  C 159.74 197.89 158.92 199.61 156.23 201.22
  C 148.86 205.64 141.19 206.96 132.00 207.67
  Q 117.78 208.77 103.62 202.68
  C 92.20 197.77 87.41 189.27 84.46 177.60
  Q 83.61 174.26 80.49 174.21
  Q 58.61 173.91 35.72 173.36
  Q 27.87 173.17 21.15 172.42
  A 1.66 1.66 0.0 0 0 19.32 173.86
  C 18.48 180.45 19.79 186.18 21.49 192.60
  C 24.45 203.82 30.75 214.74 37.73 223.52
  Q 44.40 231.91 57.07 240.05
  Q 66.27 245.96 68.80 247.20
  Q 75.50 250.47 90.01 253.20
  Q 90.38 253.27 90.48 253.39
  A 0.35 0.34 64.7 0 1 90.29 253.94
  L 79.61 256.00
  L 0.00 256.00
  L 0.00 0.00
  L 16.63 0.00
  Z"
/>
<path fill="#ffffff" d="
  M 169.64 0.00
  L 156.53 1.75
  A 0.37 0.37 0.0 0 0 156.54 2.49
  C 170.51 4.09 182.40 10.55 194.26 18.74
  C 199.63 22.44 205.67 28.51 208.95 32.31
  Q 224.54 50.36 226.71 74.26
  Q 226.97 77.10 226.49 79.55
  A 1.08 1.07 5.8 0 1 225.42 80.42
  Q 199.94 80.25 170.52 80.37
  C 168.48 80.38 165.79 80.04 163.47 79.65
  A 3.11 3.10 -4.2 0 1 161.02 77.54
  C 159.43 72.66 158.76 68.13 155.00 63.75
  Q 151.12 59.24 149.03 57.58
  A 11.07 10.92 -12.3 0 0 146.96 56.27
  C 141.90 53.78 137.66 51.17 132.28 50.74
  Q 127.49 50.35 119.00 50.67
  C 112.41 50.91 107.78 53.33 101.58 56.31
  C 96.79 58.60 93.78 63.24 92.95 69.03
  C 92.29 73.64 91.83 78.04 94.15 81.42
  C 98.40 87.60 102.41 88.89 110.36 91.67
  Q 121.17 95.46 139.36 98.70
  Q 146.88 100.03 172.09 105.92
  C 177.22 107.12 181.83 109.42 186.74 110.73
  C 195.89 113.18 204.57 118.57 211.99 124.28
  C 221.33 131.48 227.05 142.84 230.15 153.91
  Q 232.03 160.63 232.10 169.77
  C 232.17 178.55 232.36 186.56 229.78 194.81
  C 227.33 202.66 225.07 210.35 220.18 216.44
  C 215.52 222.24 212.39 226.92 208.13 230.72
  C 200.72 237.32 194.02 242.48 185.95 246.13
  Q 182.73 247.58 179.37 249.62
  A 5.39 5.25 -68.4 0 1 178.30 250.10
  Q 170.74 252.51 162.13 253.22
  A 0.49 0.49 0.0 0 0 161.91 254.12
  Q 163.06 254.84 164.49 254.94
  Q 170.87 255.41 177.25 256.00
  L 79.61 256.00
  L 90.29 253.94
  A 0.35 0.34 64.7 0 0 90.48 253.39
  Q 90.38 253.27 90.01 253.20
  Q 75.50 250.47 68.80 247.20
  Q 66.27 245.96 57.07 240.05
  Q 44.40 231.91 37.73 223.52
  C 30.75 214.74 24.45 203.82 21.49 192.60
  C 19.79 186.18 18.48 180.45 19.32 173.86
  A 1.66 1.66 0.0 0 1 21.15 172.42
  Q 27.87 173.17 35.72 173.36
  Q 58.61 173.91 80.49 174.21
  Q 83.61 174.26 84.46 177.60
  C 87.41 189.27 92.20 197.77 103.62 202.68
  Q 117.78 208.77 132.00 207.67
  C 141.19 206.96 148.86 205.64 156.23 201.22
  C 158.92 199.61 159.74 197.89 161.66 194.75
  C 164.29 190.46 165.34 185.92 164.88 181.01
  Q 164.57 177.61 161.56 173.91
  Q 157.61 169.06 151.18 166.85
  C 138.86 162.61 127.87 160.23 115.16 157.62
  Q 101.84 154.89 88.91 151.86
  Q 76.22 148.89 61.81 142.19
  C 50.90 137.12 41.43 128.50 34.39 119.42
  Q 32.33 116.76 30.36 111.96
  Q 24.31 97.19 24.83 79.01
  C 25.07 70.85 25.17 65.16 27.30 59.14
  Q 29.61 52.66 34.67 43.40
  Q 41.32 31.27 51.52 23.27
  Q 62.63 14.54 75.83 8.36
  Q 83.55 4.74 93.27 3.72
  Q 94.15 3.62 94.58 3.02
  A 0.43 0.43 0.0 0 0 94.35 2.35
  C 90.27 1.19 86.29 0.34 81.78 0.27
  Q 74.05 0.16 69.75 0.18
  Q 43.19 0.35 16.63 0.00
  L 169.64 0.00
  Z"
/>
<path fill="#383738" d="
  M 256.00 0.00
  L 256.00 256.00
  L 177.25 256.00
  Q 170.87 255.41 164.49 254.94
  Q 163.06 254.84 161.91 254.12
  A 0.49 0.49 0.0 0 1 162.13 253.22
  Q 170.74 252.51 178.30 250.10
  A 5.39 5.25 -68.4 0 0 179.37 249.62
  Q 182.73 247.58 185.95 246.13
  C 194.02 242.48 200.72 237.32 208.13 230.72
  C 212.39 226.92 215.52 222.24 220.18 216.44
  C 225.07 210.35 227.33 202.66 229.78 194.81
  C 232.36 186.56 232.17 178.55 232.10 169.77
  Q 232.03 160.63 230.15 153.91
  C 227.05 142.84 221.33 131.48 211.99 124.28
  C 204.57 118.57 195.89 113.18 186.74 110.73
  C 181.83 109.42 177.22 107.12 172.09 105.92
  Q 146.88 100.03 139.36 98.70
  Q 121.17 95.46 110.36 91.67
  C 102.41 88.89 98.40 87.60 94.15 81.42
  C 91.83 78.04 92.29 73.64 92.95 69.03
  C 93.78 63.24 96.79 58.60 101.58 56.31
  C 107.78 53.33 112.41 50.91 119.00 50.67
  Q 127.49 50.35 132.28 50.74
  C 137.66 51.17 141.90 53.78 146.96 56.27
  A 11.07 10.92 -12.3 0 1 149.03 57.58
  Q 151.12 59.24 155.00 63.75
  C 158.76 68.13 159.43 72.66 161.02 77.54
  A 3.11 3.10 -4.2 0 0 163.47 79.65
  C 165.79 80.04 168.48 80.38 170.52 80.37
  Q 199.94 80.25 225.42 80.42
  A 1.08 1.07 5.8 0 0 226.49 79.55
  Q 226.97 77.10 226.71 74.26
  Q 224.54 50.36 208.95 32.31
  C 205.67 28.51 199.63 22.44 194.26 18.74
  C 182.40 10.55 170.51 4.09 156.54 2.49
  A 0.37 0.37 0.0 0 1 156.53 1.75
  L 169.64 0.00
  L 256.00 0.00
  Z"
/>
</svg>