<?xml version="1.0" encoding="UTF-8" standalone="no"?>
<!DOCTYPE svg PUBLIC "-//W3C//DTD SVG 1.1//EN" "http://www.w3.org/Graphics/SVG/1.1/DTD/svg11.dtd">
<svg xmlns="http://www.w3.org/2000/svg" version="1.1" viewBox="0.00 0.00 180.00 180.00" width="128" height="128">
<path fill="#25d3d0" d="
  M 134.61 72.37
  A 0.38 0.38 0.0 0 0 134.48 72.88
  Q 155.82 111.96 162.83 124.63
  Q 165.24 128.99 165.05 131.17
  C 164.71 135.00 163.27 136.25 159.67 138.42
  Q 134.95 153.39 93.16 178.81
  Q 91.04 180.10 88.40 179.49
  Q 86.84 179.14 83.98 177.37
  Q 27.07 142.38 19.19 137.58
  Q 13.34 134.00 15.69 127.24
  C 16.40 125.21 18.87 123.82 20.91 122.58
  Q 33.22 115.07 45.46 107.66
  A 0.38 0.37 -30.2 0 0 45.60 107.16
  Q 24.24 68.06 17.34 55.59
  Q 14.82 51.04 15.00 48.89
  C 15.35 44.88 16.88 43.73 20.55 41.51
  Q 58.28 18.63 86.96 1.16
  Q 88.61 0.16 91.68 0.62
  Q 93.15 0.84 96.03 2.61
  Q 147.32 34.17 161.14 42.60
  Q 165.45 45.24 164.95 50.50
  C 164.68 53.24 163.15 55.03 160.83 56.44
  Q 139.77 69.21 134.61 72.37
  Z
  M 142.02 49.71
  A 0.33 0.33 0.0 0 0 142.02 49.15
  L 90.40 17.51
  A 0.33 0.33 0.0 0 0 90.06 17.50
  L 38.28 48.98
  A 0.33 0.33 0.0 0 0 38.28 49.54
  L 89.91 81.18
  A 0.33 0.33 0.0 0 0 90.25 81.19
  L 142.02 49.71
  Z
  M 44.12 72.03
  L 92.46 160.29
  A 0.58 0.58 0.0 0 0 93.27 160.51
  L 146.38 128.23
  A 0.56 0.56 0.0 0 0 146.58 127.48
  L 121.32 81.35
  A 0.71 0.71 0.0 0 0 120.33 81.09
  Q 103.88 91.12 93.75 97.25
  C 90.78 99.05 88.02 98.41 85.01 96.55
  Q 71.47 88.19 44.53 71.65
  A 0.29 0.29 0.0 0 0 44.12 72.03
  Z
  M 38.29 131.01
  L 68.34 149.43
  A 0.19 0.19 0.0 0 0 68.61 149.18
  L 53.64 121.84
  A 0.73 0.72 -29.8 0 0 52.63 121.57
  L 38.29 130.29
  A 0.42 0.42 0.0 0 0 38.29 131.01
  Z"
/>
</svg>