<?xml version="1.0" encoding="UTF-8" standalone="no"?>
<!DOCTYPE svg PUBLIC "-//W3C//DTD SVG 1.1//EN" "http://www.w3.org/Graphics/SVG/1.1/DTD/svg11.dtd">
<svg xmlns="http://www.w3.org/2000/svg" version="1.1" viewBox="0.00 0.00 256.00 256.00" width="128" height="128">
<path stroke="#a6dbe3" stroke-width="2.00" fill="none" stroke-linecap="butt" vector-effect="non-scaling-stroke" d="
  M 157.47 87.01
  C 155.11 88.94 149.91 94.63 155.74 96.54
  Q 158.34 97.39 161.75 96.74
  C 187.29 91.82 193.65 53.02 167.39 43.76
  C 159.60 41.01 151.01 41.05 142.95 42.66
  C 121.31 46.98 100.47 60.44 90.99 80.74
  C 85.38 92.73 84.97 107.38 92.36 118.47
  Q 98.46 127.62 108.24 135.29
  Q 117.07 142.21 128.58 150.68
  C 135.21 155.56 141.66 161.16 145.20 168.07
  Q 147.98 173.50 146.71 179.75
  C 144.19 192.06 132.73 199.71 121.15 202.38
  Q 110.83 204.76 101.27 202.06
  C 97.78 201.08 92.67 197.22 91.93 193.01
  C 91.03 187.82 93.56 182.07 96.33 177.37
  C 98.40 173.83 98.81 167.23 93.50 166.44
  C 82.92 164.87 76.53 174.74 74.42 183.41
  C 70.13 201.08 81.69 214.27 98.32 217.95
  C 121.86 223.16 148.81 212.57 160.84 191.25
  Q 167.65 179.19 164.78 166.61
  C 162.64 157.24 154.30 148.57 146.79 142.46
  C 138.48 135.71 125.77 127.17 116.19 118.14
  Q 111.25 113.48 107.75 107.11
  C 100.78 94.44 109.30 79.46 118.61 71.09
  C 129.12 61.64 143.92 54.55 158.16 56.39
  Q 164.08 57.15 167.31 62.53
  C 170.92 68.54 168.81 76.31 163.96 81.21
  Q 161.27 83.93 157.47 87.01"
/>
<path fill="#4db7c6" d="
  M 136.90 0.00
  Q 148.46 -0.15 157.64 3.15
  C 165.50 5.99 174.18 8.55 180.96 11.68
  C 214.50 27.15 238.54 53.94 250.44 89.10
  C 253.91 99.35 255.45 104.40 256.00 114.14
  L 256.00 145.23
  C 255.51 148.00 255.35 150.96 254.70 153.53
  Q 252.35 162.78 249.11 171.83
  C 237.08 205.41 211.34 232.74 178.35 246.57
  Q 166.68 251.46 153.03 254.89
  Q 149.81 255.70 140.36 256.00
  L 113.28 256.00
  C 104.69 255.48 99.54 253.86 90.65 250.94
  C 55.14 239.27 28.15 215.78 12.14 182.01
  C 9.07 175.51 6.51 167.15 3.67 159.53
  Q 1.08 152.61 0.00 142.73
  L 0.00 119.56
  C -0.16 108.90 2.24 102.34 6.16 90.71
  Q 9.51 80.79 12.10 75.28
  Q 33.72 29.22 81.46 9.43
  Q 86.79 7.22 102.55 2.21
  Q 105.12 1.39 107.94 0.93
  Q 110.69 0.48 113.44 0.00
  L 136.90 0.00
  Z
  M 157.47 87.01
  C 155.11 88.94 149.91 94.63 155.74 96.54
  Q 158.34 97.39 161.75 96.74
  C 187.29 91.82 193.65 53.02 167.39 43.76
  C 159.60 41.01 151.01 41.05 142.95 42.66
  C 121.31 46.98 100.47 60.44 90.99 80.74
  C 85.38 92.73 84.97 107.38 92.36 118.47
  Q 98.46 127.62 108.24 135.29
  Q 117.07 142.21 128.58 150.68
  C 135.21 155.56 141.66 161.16 145.20 168.07
  Q 147.98 173.50 146.71 179.75
  C 144.19 192.06 132.73 199.71 121.15 202.38
  Q 110.83 204.76 101.27 202.06
  C 97.78 201.08 92.67 197.22 91.93 193.01
  C 91.03 187.82 93.56 182.07 96.33 177.37
  C 98.40 173.83 98.81 167.23 93.50 166.44
  C 82.92 164.87 76.53 174.74 74.42 183.41
  C 70.13 201.08 81.69 214.27 98.32 217.95
  C 121.86 223.16 148.81 212.57 160.84 191.25
  Q 167.65 179.19 164.78 166.61
  C 162.64 157.24 154.30 148.57 146.79 142.46
  C 138.48 135.71 125.77 127.17 116.19 118.14
  Q 111.25 113.48 107.75 107.11
  C 100.78 94.44 109.30 79.46 118.61 71.09
  C 129.12 61.64 143.92 54.55 158.16 56.39
  Q 164.08 57.15 167.31 62.53
  C 170.92 68.54 168.81 76.31 163.96 81.21
  Q 161.27 83.93 157.47 87.01
  Z"
/>
<path fill="#ffffff" d="
  M 155.74 96.54
  C 149.91 94.63 155.11 88.94 157.47 87.01
  Q 161.27 83.93 163.96 81.21
  C 168.81 76.31 170.92 68.54 167.31 62.53
  Q 164.08 57.15 158.16 56.39
  C 143.92 54.55 129.12 61.64 118.61 71.09
  C 109.30 79.46 100.78 94.44 107.75 107.11
  Q 111.25 113.48 116.19 118.14
  C 125.77 127.17 138.48 135.71 146.79 142.46
  C 154.30 148.57 162.64 157.24 164.78 166.61
  Q 167.65 179.19 160.84 191.25
  C 148.81 212.57 121.86 223.16 98.32 217.95
  C 81.69 214.27 70.13 201.08 74.42 183.41
  C 76.53 174.74 82.92 164.87 93.50 166.44
  C 98.81 167.23 98.40 173.83 96.33 177.37
  C 93.56 182.07 91.03 187.82 91.93 193.01
  C 92.67 197.22 97.78 201.08 101.27 202.06
  Q 110.83 204.76 121.15 202.38
  C 132.73 199.71 144.19 192.06 146.71 179.75
  Q 147.98 173.50 145.20 168.07
  C 141.66 161.16 135.21 155.56 128.58 150.68
  Q 117.07 142.21 108.24 135.29
  Q 98.46 127.62 92.36 118.47
  C 84.97 107.38 85.38 92.73 90.99 80.74
  C 100.47 60.44 121.31 46.98 142.95 42.66
  C 151.01 41.05 159.60 41.01 167.39 43.76
  C 193.65 53.02 187.29 91.82 161.75 96.74
  Q 158.34 97.39 155.74 96.54
  Z"
/>
</svg>