<?xml version="1.0" encoding="UTF-8" standalone="no"?>
<!DOCTYPE svg PUBLIC "-//W3C//DTD SVG 1.1//EN" "http://www.w3.org/Graphics/SVG/1.1/DTD/svg11.dtd">
<svg xmlns="http://www.w3.org/2000/svg" version="1.1" viewBox="0.00 0.00 192.00 192.00" width="128" height="128">
<g stroke-width="2.00" fill="none" stroke-linecap="butt">
<path stroke="#80d1fd" vector-effect="non-scaling-stroke" d="
  M 6.20 95.06
  Q 11.40 103.21 18.81 107.19
  C 29.87 113.11 43.03 112.95 50.38 101.61
  A 0.46 0.46 0.0 0 1 51.17 101.65
  C 58.16 114.97 74.60 113.80 81.45 101.11
  A 0.28 0.27 -52.7 0 1 81.89 101.05
  Q 87.90 107.18 96.31 109.45
  C 112.47 113.81 126.29 108.97 140.99 100.15
  A 0.78 0.78 0.0 0 0 141.33 99.21
  L 137.96 89.98
  A 0.48 0.48 0.0 0 0 137.25 89.75
  C 129.79 94.72 120.15 99.63 111.52 100.23
  C 98.93 101.10 86.17 96.84 85.67 82.18
  A 0.69 0.69 0.0 0 0 84.98 81.51
  L 75.62 81.51
  A 0.69 0.68 -90.0 0 0 74.94 82.20
  C 74.97 87.25 72.93 102.84 64.37 100.07
  C 57.52 97.85 57.76 80.05 57.83 74.58
  A 0.62 0.62 0.0 0 0 57.21 73.95
  L 47.77 73.95
  A 0.72 0.72 0.0 0 0 47.05 74.69
  C 47.25 83.52 43.87 104.59 30.23 102.13"
/>
<path stroke="#80d1fd" vector-effect="non-scaling-stroke" d="
  M 177.23 86.02
  A 12.01 12.01 0.0 0 0 165.22 74.01
  A 12.01 12.01 0.0 0 0 153.21 86.02
  A 12.01 12.01 0.0 0 0 165.22 98.03
  A 12.01 12.01 0.0 0 0 177.23 86.02"
/>
</g>
<path fill="#00a3fa" d="
  M 6.20 95.06
  Q 11.40 103.21 18.81 107.19
  C 29.87 113.11 43.03 112.95 50.38 101.61
  A 0.46 0.46 0.0 0 1 51.17 101.65
  C 58.16 114.97 74.60 113.80 81.45 101.11
  A 0.28 0.27 -52.7 0 1 81.89 101.05
  Q 87.90 107.18 96.31 109.45
  C 112.47 113.81 126.29 108.97 140.99 100.15
  A 0.78 0.78 0.0 0 0 141.33 99.21
  L 137.96 89.98
  A 0.48 0.48 0.0 0 0 137.25 89.75
  C 129.79 94.72 120.15 99.63 111.52 100.23
  C 98.93 101.10 86.17 96.84 85.67 82.18
  A 0.69 0.69 0.0 0 0 84.98 81.51
  L 75.62 81.51
  A 0.69 0.68 -90.0 0 0 74.94 82.20
  C 74.97 87.25 72.93 102.84 64.37 100.07
  C 57.52 97.85 57.76 80.05 57.83 74.58
  A 0.62 0.62 0.0 0 0 57.21 73.95
  L 47.77 73.95
  A 0.72 0.72 0.0 0 0 47.05 74.69
  C 47.25 83.52 43.87 104.59 30.23 102.13
  Q 30.21 71.72 30.23 41.22
  Q 30.23 34.76 31.37 33.01
  C 33.73 29.41 36.35 28.50 41.09 28.51
  Q 151.03 28.52 151.48 28.50
  C 158.31 28.29 162.47 28.80 164.78 34.62
  Q 165.28 35.88 165.25 40.95
  Q 165.17 56.63 165.25 64.36
  A 0.68 0.68 0.0 0 0 165.90 65.03
  C 182.81 65.68 191.68 84.21 182.48 97.92
  Q 176.85 106.30 165.81 107.02
  A 0.64 0.64 0.0 0 0 165.21 107.66
  Q 165.24 149.43 165.23 153.74
  Q 165.21 161.63 157.68 163.42
  A 1.87 1.54 32.1 0 1 157.22 163.48
  Q 48.01 163.54 39.31 163.45
  Q 32.16 163.38 30.37 155.98
  A 2.85 2.84 -52.0 0 1 30.29 155.31
  L 30.29 119.77
  A 0.64 0.64 0.0 0 0 29.76 119.14
  Q 18.29 117.28 10.45 107.06
  Q 5.95 101.20 6.20 95.06
  Z
  M 177.23 86.02
  A 12.01 12.01 0.0 0 0 165.22 74.01
  A 12.01 12.01 0.0 0 0 153.21 86.02
  A 12.01 12.01 0.0 0 0 165.22 98.03
  A 12.01 12.01 0.0 0 0 177.23 86.02
  Z"
/>
<path fill="#ffffff" d="
  M 6.20 95.06
  L 11.42 94.96
  A 1.04 1.04 0.0 0 1 12.22 95.31
  C 16.52 100.27 23.89 102.19 30.23 102.13
  C 43.87 104.59 47.25 83.52 47.05 74.69
  A 0.72 0.72 0.0 0 1 47.77 73.95
  L 57.21 73.95
  A 0.62 0.62 0.0 0 1 57.83 74.58
  C 57.76 80.05 57.52 97.85 64.37 100.07
  C 72.93 102.84 74.97 87.25 74.94 82.20
  A 0.69 0.68 -90.0 0 1 75.62 81.51
  L 84.98 81.51
  A 0.69 0.69 0.0 0 1 85.67 82.18
  C 86.17 96.84 98.93 101.10 111.52 100.23
  C 120.15 99.63 129.79 94.72 137.25 89.75
  A 0.48 0.48 0.0 0 1 137.96 89.98
  L 141.33 99.21
  A 0.78 0.78 0.0 0 1 140.99 100.15
  C 126.29 108.97 112.47 113.81 96.31 109.45
  Q 87.90 107.18 81.89 101.05
  A 0.28 0.27 -52.7 0 0 81.45 101.11
  C 74.60 113.80 58.16 114.97 51.17 101.65
  A 0.46 0.46 0.0 0 0 50.38 101.61
  C 43.03 112.95 29.87 113.11 18.81 107.19
  Q 11.40 103.21 6.20 95.06
  Z"
/>
<circle fill="#ffffff" cx="165.22" cy="86.02" r="12.01"/>
</svg>