<?xml version="1.0" encoding="UTF-8" standalone="no"?>
<!DOCTYPE svg PUBLIC "-//W3C//DTD SVG 1.1//EN" "http://www.w3.org/Graphics/SVG/1.1/DTD/svg11.dtd">
<svg xmlns="http://www.w3.org/2000/svg" version="1.1" viewBox="0.00 0.00 180.00 180.00" width="128" height="128">
<g stroke-width="2.00" fill="none" stroke-linecap="butt">
<path stroke="#fab995" vector-effect="non-scaling-stroke" d="
  M 125.78 150.73
  Q 127.43 150.51 129.21 149.22
  Q 146.67 136.48 153.99 118.39
  C 167.24 85.66 154.37 46.88 122.55 30.20
  C 114.35 25.89 102.22 23.11 93.42 26.63
  C 76.09 33.56 73.19 54.79 85.47 67.82
  Q 90.66 73.33 93.80 75.75
  C 104.86 84.28 114.42 91.50 122.06 101.76
  Q 128.77 110.76 129.63 121.72
  Q 130.77 136.32 124.76 149.35
  A 0.98 0.98 0.0 0 0 125.78 150.73"
/>
<path stroke="#8492a0" vector-effect="non-scaling-stroke" d="
  M 58.73 31.07
  Q 58.03 31.13 57.13 31.63
  C 28.47 47.65 14.37 81.00 23.95 112.76
  Q 27.80 125.53 35.15 134.62
  C 46.33 148.45 65.66 157.85 83.88 154.25
  C 103.62 150.35 112.50 129.45 102.79 111.95
  Q 100.58 107.98 92.91 101.84
  Q 79.08 90.78 78.09 89.97
  C 61.58 76.53 50.41 59.12 57.65 37.41
  Q 58.57 34.62 59.55 32.18
  A 0.81 0.81 0.0 0 0 58.73 31.07"
/>
</g>
<path fill="#ffffff" d="
  M 180.00 0.00
  L 180.00 180.00
  L 0.00 180.00
  L 0.00 0.00
  L 180.00 0.00
  Z
  M 125.78 150.73
  Q 127.43 150.51 129.21 149.22
  Q 146.67 136.48 153.99 118.39
  C 167.24 85.66 154.37 46.88 122.55 30.20
  C 114.35 25.89 102.22 23.11 93.42 26.63
  C 76.09 33.56 73.19 54.79 85.47 67.82
  Q 90.66 73.33 93.80 75.75
  C 104.86 84.28 114.42 91.50 122.06 101.76
  Q 128.77 110.76 129.63 121.72
  Q 130.77 136.32 124.76 149.35
  A 0.98 0.98 0.0 0 0 125.78 150.73
  Z
  M 58.73 31.07
  Q 58.03 31.13 57.13 31.63
  C 28.47 47.65 14.37 81.00 23.95 112.76
  Q 27.80 125.53 35.15 134.62
  C 46.33 148.45 65.66 157.85 83.88 154.25
  C 103.62 150.35 112.50 129.45 102.79 111.95
  Q 100.58 107.98 92.91 101.84
  Q 79.08 90.78 78.09 89.97
  C 61.58 76.53 50.41 59.12 57.65 37.41
  Q 58.57 34.62 59.55 32.18
  A 0.81 0.81 0.0 0 0 58.73 31.07
  Z"
/>
<path fill="#f4732a" d="
  M 125.78 150.73
  A 0.98 0.98 0.0 0 1 124.76 149.35
  Q 130.77 136.32 129.63 121.72
  Q 128.77 110.76 122.06 101.76
  C 114.42 91.50 104.86 84.28 93.80 75.75
  Q 90.66 73.33 85.47 67.82
  C 73.19 54.79 76.09 33.56 93.42 26.63
  C 102.22 23.11 114.35 25.89 122.55 30.20
  C 154.37 46.88 167.24 85.66 153.99 118.39
  Q 146.67 136.48 129.21 149.22
  Q 127.43 150.51 125.78 150.73
  Z"
/>
<path fill="#092540" d="
  M 58.73 31.07
  A 0.81 0.81 0.0 0 1 59.55 32.18
  Q 58.57 34.62 57.65 37.41
  C 50.41 59.12 61.58 76.53 78.09 89.97
  Q 79.08 90.78 92.91 101.84
  Q 100.58 107.98 102.79 111.95
  C 112.50 129.45 103.62 150.35 83.88 154.25
  C 65.66 157.85 46.33 148.45 35.15 134.62
  Q 27.80 125.53 23.95 112.76
  C 14.37 81.00 28.47 47.65 57.13 31.63
  Q 58.03 31.13 58.73 31.07
  Z"
/>
</svg>