<?xml version="1.0" encoding="UTF-8" standalone="no"?>
<!DOCTYPE svg PUBLIC "-//W3C//DTD SVG 1.1//EN" "http://www.w3.org/Graphics/SVG/1.1/DTD/svg11.dtd">
<svg xmlns="http://www.w3.org/2000/svg" version="1.1" viewBox="0.00 0.00 256.00 256.00" width="128" height="128">
<g stroke-width="2.00" fill="none" stroke-linecap="butt">
<path stroke="#551fb5" vector-effect="non-scaling-stroke" d="
  M 176.18 13.31
  Q 180.98 19.39 181.98 21.80
  C 191.85 45.68 202.13 67.15 215.44 89.16
  A 0.41 0.41 0.0 0 0 216.14 89.16
  L 216.39 88.77"
/>
<path stroke="#551fb5" vector-effect="non-scaling-stroke" d="
  M 243.37 175.90
  Q 238.00 180.85 234.51 182.29
  Q 220.99 187.87 207.74 194.01
  Q 185.83 204.16 165.02 217.23"
/>
<path stroke="#551fb5" vector-effect="non-scaling-stroke" d="
  M 79.25 243.78
  Q 79.32 243.61 79.37 243.47
  A 0.73 0.73 0.0 0 0 79.23 242.75
  Q 75.01 238.13 73.56 234.66
  Q 64.67 213.38 57.55 198.73
  Q 49.74 182.64 39.56 166.96"
/>
<path stroke="#551fb5" vector-effect="non-scaling-stroke" d="
  M 12.76 80.15
  Q 18.21 75.37 21.37 74.09
  Q 41.34 65.98 58.69 57.44
  Q 73.60 50.11 89.39 40.02"
/>
<path stroke="#b294eb" vector-effect="non-scaling-stroke" d="
  M 100.29 187.31
  L 112.69 208.77
  A 0.66 0.65 60.1 0 0 113.59 209.02
  Q 173.43 174.60 179.69 171.11
  Q 188.73 166.08 192.40 162.21
  C 219.29 133.90 192.43 88.74 154.82 97.55
  Q 150.15 98.64 140.71 104.08
  Q 107.62 123.16 97.20 129.12
  C 92.44 131.84 88.37 133.19 83.88 130.45
  C 77.93 126.83 76.58 119.73 80.78 114.10
  Q 82.03 112.41 87.22 109.50
  Q 92.01 106.80 155.83 70.15
  A 0.35 0.35 0.0 0 0 155.95 69.67
  L 143.39 47.91
  A 0.38 0.37 59.7 0 0 142.88 47.77
  Q 78.48 84.76 78.03 85.00
  Q 66.54 91.20 62.84 95.21
  Q 56.21 102.39 53.79 111.06
  C 44.97 142.70 79.36 169.05 107.81 152.81
  Q 124.30 143.40 155.91 125.20
  Q 160.59 122.50 163.08 122.27
  C 173.82 121.27 181.09 133.53 175.22 142.50
  Q 173.68 144.85 167.63 148.22
  Q 161.97 151.38 100.44 186.75
  A 0.42 0.41 60.6 0 0 100.29 187.31"
/>
</g>
<path fill="#6528d7" d="
  M 176.18 13.31
  Q 180.98 19.39 181.98 21.80
  C 191.85 45.68 202.13 67.15 215.44 89.16
  A 0.41 0.41 0.0 0 0 216.14 89.16
  L 216.39 88.77
  L 217.07 91.44
  A 4.53 4.34 -69.2 0 0 217.60 92.69
  Q 230.09 112.53 243.51 129.71
  Q 248.45 136.03 250.14 140.30
  C 254.36 150.91 253.23 163.48 245.86 172.83
  Q 244.51 174.55 243.37 175.90
  Q 238.00 180.85 234.51 182.29
  Q 220.99 187.87 207.74 194.01
  Q 185.83 204.16 165.02 217.23
  Q 164.54 217.65 163.48 218.30
  Q 143.46 230.67 128.90 242.08
  Q 119.67 249.32 115.53 250.86
  C 103.26 255.43 89.99 253.02 80.48 244.07
  Q 80.16 243.76 79.25 243.78
  Q 79.32 243.61 79.37 243.47
  A 0.73 0.73 0.0 0 0 79.23 242.75
  Q 75.01 238.13 73.56 234.66
  Q 64.67 213.38 57.55 198.73
  Q 49.74 182.64 39.56 166.96
  Q 39.22 166.55 38.75 165.18
  A 4.44 4.19 20.8 0 0 38.29 164.23
  Q 25.60 144.08 12.23 126.85
  Q 6.99 120.09 5.38 115.87
  C 0.59 103.31 3.45 90.08 12.76 80.15
  Q 18.21 75.37 21.37 74.09
  Q 41.34 65.98 58.69 57.44
  Q 73.60 50.11 89.39 40.02
  Q 91.70 38.95 92.46 38.47
  Q 112.62 25.66 129.49 12.61
  Q 136.39 7.26 140.53 5.79
  Q 149.37 2.65 157.49 3.97
  Q 167.97 5.68 176.18 13.31
  Z
  M 100.29 187.31
  L 112.69 208.77
  A 0.66 0.65 60.1 0 0 113.59 209.02
  Q 173.43 174.60 179.69 171.11
  Q 188.73 166.08 192.40 162.21
  C 219.29 133.90 192.43 88.74 154.82 97.55
  Q 150.15 98.64 140.71 104.08
  Q 107.62 123.16 97.20 129.12
  C 92.44 131.84 88.37 133.19 83.88 130.45
  C 77.93 126.83 76.58 119.73 80.78 114.10
  Q 82.03 112.41 87.22 109.50
  Q 92.01 106.80 155.83 70.15
  A 0.35 0.35 0.0 0 0 155.95 69.67
  L 143.39 47.91
  A 0.38 0.37 59.7 0 0 142.88 47.77
  Q 78.48 84.76 78.03 85.00
  Q 66.54 91.20 62.84 95.21
  Q 56.21 102.39 53.79 111.06
  C 44.97 142.70 79.36 169.05 107.81 152.81
  Q 124.30 143.40 155.91 125.20
  Q 160.59 122.50 163.08 122.27
  C 173.82 121.27 181.09 133.53 175.22 142.50
  Q 173.68 144.85 167.63 148.22
  Q 161.97 151.38 100.44 186.75
  A 0.42 0.41 60.6 0 0 100.29 187.31
  Z"
/>
<path fill="#451692" d="
  M 216.39 88.77
  L 216.14 89.16
  A 0.41 0.41 0.0 0 1 215.44 89.16
  C 202.13 67.15 191.85 45.68 181.98 21.80
  Q 180.98 19.39 176.18 13.31
  Q 187.93 13.50 196.54 20.73
  Q 202.67 25.88 205.77 32.92
  Q 207.56 36.97 208.98 47.40
  Q 211.84 68.25 216.39 88.77
  Z"
/>
<path fill="#451692" d="
  M 89.39 40.02
  Q 73.60 50.11 58.69 57.44
  Q 41.34 65.98 21.37 74.09
  Q 18.21 75.37 12.76 80.15
  C 13.10 67.24 20.64 55.86 32.34 50.66
  Q 36.40 48.86 46.46 47.48
  Q 67.68 44.58 89.39 40.02
  Z"
/>
<path fill="#ffffff" d="
  M 100.29 187.31
  A 0.42 0.41 60.6 0 1 100.44 186.75
  Q 161.97 151.38 167.63 148.22
  Q 173.68 144.85 175.22 142.50
  C 181.09 133.53 173.82 121.27 163.08 122.27
  Q 160.59 122.50 155.91 125.20
  Q 124.30 143.40 107.81 152.81
  C 79.36 169.05 44.97 142.70 53.79 111.06
  Q 56.21 102.39 62.84 95.21
  Q 66.54 91.20 78.03 85.00
  Q 78.48 84.76 142.88 47.77
  A 0.38 0.37 59.7 0 1 143.39 47.91
  L 155.95 69.67
  A 0.35 0.35 0.0 0 1 155.83 70.15
  Q 92.01 106.80 87.22 109.50
  Q 82.03 112.41 80.78 114.10
  C 76.58 119.73 77.93 126.83 83.88 130.45
  C 88.37 133.19 92.44 131.84 97.20 129.12
  Q 107.62 123.16 140.71 104.08
  Q 150.15 98.64 154.82 97.55
  C 192.43 88.74 219.29 133.90 192.40 162.21
  Q 188.73 166.08 179.69 171.11
  Q 173.43 174.60 113.59 209.02
  A 0.66 0.65 60.1 0 1 112.69 208.77
  L 100.29 187.31
  Z"
/>
<path fill="#451692" d="
  M 79.25 243.78
  C 66.53 243.50 54.79 235.18 50.07 223.71
  Q 48.41 219.67 46.39 205.62
  Q 43.66 186.58 39.56 166.96
  Q 49.74 182.64 57.55 198.73
  Q 64.67 213.38 73.56 234.66
  Q 75.01 238.13 79.23 242.75
  A 0.73 0.73 0.0 0 1 79.37 243.47
  Q 79.32 243.61 79.25 243.78
  Z"
/>
<path fill="#451692" d="
  M 243.37 175.90
  Q 243.12 189.67 234.00 199.01
  Q 229.19 203.94 222.80 206.49
  Q 219.13 207.95 209.59 209.26
  Q 187.38 212.30 165.02 217.23
  Q 185.83 204.16 207.74 194.01
  Q 220.99 187.87 234.51 182.29
  Q 238.00 180.85 243.37 175.90
  Z"
/>
</svg>