<?xml version="1.0" encoding="UTF-8" standalone="no"?>
<!DOCTYPE svg PUBLIC "-//W3C//DTD SVG 1.1//EN" "http://www.w3.org/Graphics/SVG/1.1/DTD/svg11.dtd">
<svg xmlns="http://www.w3.org/2000/svg" version="1.1" viewBox="-147.00 0.00 598.00 598.00" width="128" height="128">
<path fill="#102342" d="
  M 168.84 270.54
  C 151.95 255.09 128.07 247.33 105.53 246.95
  C 96.47 246.79 80.80 249.30 78.37 259.86
  C 77.03 265.72 82.41 268.70 87.05 270.27
  Q 94.30 272.74 106.29 274.71
  C 144.49 280.99 195.82 289.07 203.09 337.50
  C 211.00 390.24 168.11 416.64 121.88 420.62
  Q 79.06 424.31 39.66 409.16
  C 26.75 404.19 14.17 397.02 3.77 387.81
  A 0.51 0.51 0.0 0 1 3.67 387.17
  L 31.87 338.32
  A 0.49 0.48 -53.1 0 1 32.62 338.21
  Q 34.69 340.20 38.60 342.88
  Q 63.65 360.06 94.48 365.80
  C 105.25 367.80 133.65 369.66 137.56 355.15
  C 140.59 343.89 126.22 340.99 118.09 339.18
  Q 117.73 339.10 83.35 332.87
  C 53.98 327.55 21.79 315.43 13.71 282.96
  C 8.21 260.84 12.81 238.51 28.32 221.32
  C 43.46 204.53 66.41 195.86 88.88 193.65
  Q 147.50 187.90 195.19 221.30
  A 0.62 0.62 0.0 0 1 195.38 222.11
  L 169.25 270.47
  A 0.26 0.26 0.0 0 1 168.84 270.54
  Z"
/>
<path fill="#f55953" d="
  M 304.00 375.75
  L 304.00 381.43
  Q 301.70 404.62 282.55 415.55
  C 267.74 424.01 249.38 422.13 236.01 411.59
  C 212.78 393.26 215.02 357.31 240.66 342.41
  C 256.27 333.33 275.13 335.09 288.96 346.52
  Q 301.83 357.16 304.00 375.75
  Z"
/>
</svg>