<?xml version="1.0" encoding="UTF-8" standalone="no"?>
<!DOCTYPE svg PUBLIC "-//W3C//DTD SVG 1.1//EN" "http://www.w3.org/Graphics/SVG/1.1/DTD/svg11.dtd">
<svg xmlns="http://www.w3.org/2000/svg" version="1.1" viewBox="0.00 0.00 180.00 180.00" width="128" height="128">
<g stroke-width="2.00" fill="none" stroke-linecap="butt">
<path stroke="#aba3cb" vector-effect="non-scaling-stroke" d="
  M 90.80 9.38
  Q 57.97 27.95 25.24 46.48
  Q 23.06 47.72 22.38 49.16
  Q 21.24 51.61 23.75 53.19
  Q 30.10 57.18 36.72 60.77"
/>
<path stroke="#99d8fb" vector-effect="non-scaling-stroke" d="
  M 36.72 60.77
  L 51.60 69.19
  A 0.68 0.67 -56.4 0 0 52.47 69.01
  Q 53.15 68.13 55.94 64.70
  C 65.48 53.01 81.31 45.95 96.43 48.07
  Q 117.74 51.05 130.19 69.60"
/>
<path stroke="#f4f5f6" vector-effect="non-scaling-stroke" d="
  M 130.19 69.60
  L 111.34 80.26"
/>
<path stroke="#c7e995" vector-effect="non-scaling-stroke" d="
  M 111.34 80.26
  C 101.96 65.44 80.86 65.20 71.41 79.95
  A 0.64 0.63 -58.9 0 0 71.63 80.85
  L 90.77 91.54"
/>
<path stroke="#f4f5f6" vector-effect="non-scaling-stroke" d="
  M 90.77 91.54
  L 90.23 176.49
  A 0.50 0.50 0.0 0 0 90.73 176.99
  C 93.12 177.02 94.90 176.74 97.28 175.47
  Q 119.41 163.63 160.64 141.86
  Q 165.54 139.28 167.39 135.51
  Q 168.79 132.67 168.76 127.19
  Q 168.68 113.35 168.72 51.39
  A 2.61 2.33 41.8 0 0 168.66 50.85
  Q 167.46 45.22 162.71 42.53
  Q 132.29 25.25 98.36 6.13
  Q 95.87 4.73 92.33 4.19
  A 1.23 1.23 0.0 0 0 90.96 5.71
  Q 91.48 7.71 90.80 9.38"
/>
<path stroke="#bcdf8b" vector-effect="non-scaling-stroke" d="
  M 90.77 91.54
  L 111.34 80.26"
/>
<path stroke="#8ecef1" vector-effect="non-scaling-stroke" d="
  M 130.19 69.60
  L 146.17 60.59"
/>
<path stroke="#beb5e0" vector-effect="non-scaling-stroke" d="
  M 146.17 60.59
  Q 151.40 57.73 156.42 54.96
  Q 158.89 53.60 159.55 51.35
  C 160.46 48.25 157.57 47.10 155.06 45.68
  Q 122.73 27.30 92.24 10.00
  Q 91.99 9.86 91.18 9.73"
/>
<path stroke="#a098c1" vector-effect="non-scaling-stroke" d="
  M 91.18 9.73
  L 90.80 9.38"
/>
<path stroke="#6398e5" vector-effect="non-scaling-stroke" d="
  M 146.17 60.59
  C 135.08 40.75 113.47 29.90 91.11 29.43"
/>
<path stroke="#7563b5" vector-effect="non-scaling-stroke" d="
  M 91.18 9.73
  L 91.11 29.43"
/>
<path stroke="#457cc6" vector-effect="non-scaling-stroke" d="
  M 91.11 29.43
  Q 62.34 30.15 43.31 51.84
  Q 39.74 55.91 36.72 60.77"
/>
</g>
<path fill="#ffffff" d="
  M 180.00 0.00
  L 180.00 180.00
  L 0.00 180.00
  L 0.00 0.00
  L 180.00 0.00
  Z
  M 90.80 9.38
  Q 57.97 27.95 25.24 46.48
  Q 23.06 47.72 22.38 49.16
  Q 21.24 51.61 23.75 53.19
  Q 30.10 57.18 36.72 60.77
  L 51.60 69.19
  A 0.68 0.67 -56.4 0 0 52.47 69.01
  Q 53.15 68.13 55.94 64.70
  C 65.48 53.01 81.31 45.95 96.43 48.07
  Q 117.74 51.05 130.19 69.60
  L 111.34 80.26
  C 101.96 65.44 80.86 65.20 71.41 79.95
  A 0.64 0.63 -58.9 0 0 71.63 80.85
  L 90.77 91.54
  L 90.23 176.49
  A 0.50 0.50 0.0 0 0 90.73 176.99
  C 93.12 177.02 94.90 176.74 97.28 175.47
  Q 119.41 163.63 160.64 141.86
  Q 165.54 139.28 167.39 135.51
  Q 168.79 132.67 168.76 127.19
  Q 168.68 113.35 168.72 51.39
  A 2.61 2.33 41.8 0 0 168.66 50.85
  Q 167.46 45.22 162.71 42.53
  Q 132.29 25.25 98.36 6.13
  Q 95.87 4.73 92.33 4.19
  A 1.23 1.23 0.0 0 0 90.96 5.71
  Q 91.48 7.71 90.80 9.38
  Z"
/>
<path fill="#e9eaec" d="
  M 90.77 91.54
  L 111.34 80.26
  L 130.19 69.60
  L 146.17 60.59
  Q 151.40 57.73 156.42 54.96
  Q 158.89 53.60 159.55 51.35
  C 160.46 48.25 157.57 47.10 155.06 45.68
  Q 122.73 27.30 92.24 10.00
  Q 91.99 9.86 91.18 9.73
  L 90.80 9.38
  Q 91.48 7.71 90.96 5.71
  A 1.23 1.23 0.0 0 1 92.33 4.19
  Q 95.87 4.73 98.36 6.13
  Q 132.29 25.25 162.71 42.53
  Q 167.46 45.22 168.66 50.85
  A 2.61 2.33 41.8 0 1 168.72 51.39
  Q 168.68 113.35 168.76 127.19
  Q 168.79 132.67 167.39 135.51
  Q 165.54 139.28 160.64 141.86
  Q 119.41 163.63 97.28 175.47
  C 94.90 176.74 93.12 177.02 90.73 176.99
  A 0.50 0.50 0.0 0 1 90.23 176.49
  L 90.77 91.54
  Z"
/>
<path fill="#574696" d="
  M 90.80 9.38
  L 91.18 9.73
  L 91.11 29.43
  Q 62.34 30.15 43.31 51.84
  Q 39.74 55.91 36.72 60.77
  Q 30.10 57.18 23.75 53.19
  Q 21.24 51.61 22.38 49.16
  Q 23.06 47.72 25.24 46.48
  Q 57.97 27.95 90.80 9.38
  Z"
/>
<path fill="#937fd4" d="
  M 146.17 60.59
  C 135.08 40.75 113.47 29.90 91.11 29.43
  L 91.18 9.73
  Q 91.99 9.86 92.24 10.00
  Q 122.73 27.30 155.06 45.68
  C 157.57 47.10 160.46 48.25 159.55 51.35
  Q 158.89 53.60 156.42 54.96
  Q 151.40 57.73 146.17 60.59
  Z"
/>
<path fill="#32b1f6" d="
  M 91.11 29.43
  C 113.47 29.90 135.08 40.75 146.17 60.59
  L 130.19 69.60
  Q 117.74 51.05 96.43 48.07
  C 81.31 45.95 65.48 53.01 55.94 64.70
  Q 53.15 68.13 52.47 69.01
  A 0.68 0.67 -56.4 0 1 51.60 69.19
  L 36.72 60.77
  Q 39.74 55.91 43.31 51.84
  Q 62.34 30.15 91.11 29.43
  Z"
/>
<path fill="#8ed32a" d="
  M 111.34 80.26
  L 90.77 91.54
  L 71.63 80.85
  A 0.64 0.63 -58.9 0 1 71.41 79.95
  C 80.86 65.20 101.96 65.44 111.34 80.26
  Z"
/>
</svg>