<?xml version="1.0" encoding="UTF-8" standalone="no"?>
<!DOCTYPE svg PUBLIC "-//W3C//DTD SVG 1.1//EN" "http://www.w3.org/Graphics/SVG/1.1/DTD/svg11.dtd">
<svg xmlns="http://www.w3.org/2000/svg" version="1.1" viewBox="0.00 0.00 180.00 180.00" width="128" height="128">
<g stroke-width="2.00" fill="none" stroke-linecap="butt">
<path stroke="#878b95" vector-effect="non-scaling-stroke" d="
  M 60.14 133.09
  Q 66.10 137.65 75.42 145.14
  A 0.28 0.28 0.0 0 0 75.88 144.92
  L 75.88 125.67
  A 0.44 0.44 0.0 0 1 76.32 125.23
  Q 104.05 125.17 110.57 125.26
  C 122.68 125.43 132.19 123.18 141.00 115.77
  C 166.19 94.58 156.94 54.88 125.56 45.95
  Q 120.54 44.53 110.34 44.59
  Q 104.88 44.62 66.66 44.61
  Q 43.94 44.60 31.73 61.97
  C 20.10 78.50 22.64 101.48 38.14 115.10
  Q 48.21 123.95 60.14 133.09"
/>
<path stroke="#878b95" vector-effect="non-scaling-stroke" d="
  M 74.67 100.59
  Q 104.73 105.68 131.18 91.63
  A 1.24 1.24 0.0 0 0 131.67 89.92
  L 120.08 69.84
  A 0.53 0.53 0.0 0 0 119.37 69.64
  Q 98.41 80.91 75.38 75.14
  Q 69.62 73.69 61.27 69.89
  A 0.65 0.64 27.4 0 0 60.46 70.14
  L 48.13 90.36
  A 0.53 0.53 0.0 0 0 48.32 91.09
  Q 57.35 96.18 67.33 98.86
  Q 69.58 99.46 74.53 100.15
  A 0.16 0.04 7.0 0 1 74.70 100.21
  Q 74.57 100.39 74.61 100.53
  A 0.08 0.08 0.0 0 0 74.67 100.59"
/>
</g>
<path fill="#ffffff" d="
  M 167.67 0.00
  Q 177.65 2.20 180.00 12.27
  L 180.00 167.66
  Q 177.76 177.65 167.71 180.00
  L 12.34 180.00
  Q 2.30 177.75 0.00 167.72
  L 0.00 12.33
  Q 2.21 2.31 12.27 0.00
  L 167.67 0.00
  Z
  M 60.14 133.09
  Q 66.10 137.65 75.42 145.14
  A 0.28 0.28 0.0 0 0 75.88 144.92
  L 75.88 125.67
  A 0.44 0.44 0.0 0 1 76.32 125.23
  Q 104.05 125.17 110.57 125.26
  C 122.68 125.43 132.19 123.18 141.00 115.77
  C 166.19 94.58 156.94 54.88 125.56 45.95
  Q 120.54 44.53 110.34 44.59
  Q 104.88 44.62 66.66 44.61
  Q 43.94 44.60 31.73 61.97
  C 20.10 78.50 22.64 101.48 38.14 115.10
  Q 48.21 123.95 60.14 133.09
  Z"
/>
<path fill="#0e172a" d="
  M 60.14 133.09
  Q 48.21 123.95 38.14 115.10
  C 22.64 101.48 20.10 78.50 31.73 61.97
  Q 43.94 44.60 66.66 44.61
  Q 104.88 44.62 110.34 44.59
  Q 120.54 44.53 125.56 45.95
  C 156.94 54.88 166.19 94.58 141.00 115.77
  C 132.19 123.18 122.68 125.43 110.57 125.26
  Q 104.05 125.17 76.32 125.23
  A 0.44 0.44 0.0 0 0 75.88 125.67
  L 75.88 144.92
  A 0.28 0.28 0.0 0 1 75.42 145.14
  Q 66.10 137.65 60.14 133.09
  Z
  M 74.67 100.59
  Q 104.73 105.68 131.18 91.63
  A 1.24 1.24 0.0 0 0 131.67 89.92
  L 120.08 69.84
  A 0.53 0.53 0.0 0 0 119.37 69.64
  Q 98.41 80.91 75.38 75.14
  Q 69.62 73.69 61.27 69.89
  A 0.65 0.64 27.4 0 0 60.46 70.14
  L 48.13 90.36
  A 0.53 0.53 0.0 0 0 48.32 91.09
  Q 57.35 96.18 67.33 98.86
  Q 69.58 99.46 74.53 100.15
  A 0.16 0.04 7.0 0 1 74.70 100.21
  Q 74.57 100.39 74.61 100.53
  A 0.08 0.08 0.0 0 0 74.67 100.59
  Z"
/>
<path fill="#ffffff" d="
  M 74.61 100.53
  Q 74.57 100.39 74.70 100.21
  A 0.16 0.04 7.0 0 0 74.53 100.15
  Q 69.58 99.46 67.33 98.86
  Q 57.35 96.18 48.32 91.09
  A 0.53 0.53 0.0 0 1 48.13 90.36
  L 60.46 70.14
  A 0.65 0.64 27.4 0 1 61.27 69.89
  Q 69.62 73.69 75.38 75.14
  Q 98.41 80.91 119.37 69.64
  A 0.53 0.53 0.0 0 1 120.08 69.84
  L 131.67 89.92
  A 1.24 1.24 0.0 0 1 131.18 91.63
  Q 104.73 105.68 74.67 100.59
  A 0.08 0.08 0.0 0 1 74.61 100.53
  Z"
/>
</svg>