<?xml version="1.0" encoding="UTF-8" standalone="no"?>
<!DOCTYPE svg PUBLIC "-//W3C//DTD SVG 1.1//EN" "http://www.w3.org/Graphics/SVG/1.1/DTD/svg11.dtd">
<svg xmlns="http://www.w3.org/2000/svg" version="1.1" viewBox="0.00 0.00 300.00 300.00" width="128" height="128">
<g stroke-width="2.00" fill="none" stroke-linecap="butt">
<path stroke="#f9ba9a" vector-effect="non-scaling-stroke" d="
  M 63.85 52.25
  Q 59.20 56.90 59.18 62.55
  Q 59.02 98.40 59.08 142.99
  Q 59.09 149.96 63.52 154.49
  Q 70.51 161.64 86.09 177.24
  Q 90.19 181.35 92.75 182.49
  C 101.32 186.34 111.12 182.32 114.72 174.01
  Q 116.09 170.83 116.05 163.62
  Q 116.00 156.16 115.94 143.30
  Q 115.90 133.60 117.65 128.36
  Q 120.41 120.13 126.05 114.49
  Q 131.68 108.86 139.92 106.11
  Q 145.16 104.36 154.86 104.41
  Q 167.72 104.48 175.18 104.53
  Q 182.39 104.58 185.57 103.21
  C 193.88 99.61 197.91 89.82 194.07 81.24
  Q 192.93 78.68 188.82 74.58
  Q 173.23 58.99 166.09 51.99
  Q 161.56 47.56 154.59 47.55
  Q 110.00 47.46 74.15 47.59
  Q 68.50 47.61 63.85 52.25"
/>
<path stroke="#f9ba9a" vector-effect="non-scaling-stroke" d="
  M 236.67 247.93
  Q 241.32 243.29 241.34 237.63
  Q 241.50 201.78 241.44 157.18
  Q 241.43 150.21 237.00 145.68
  Q 230.01 138.53 214.43 122.93
  Q 210.33 118.82 207.77 117.68
  C 199.20 113.82 189.40 117.84 185.79 126.16
  Q 184.42 129.34 184.46 136.55
  Q 184.51 144.01 184.57 156.87
  Q 184.61 166.57 182.86 171.81
  Q 180.10 180.05 174.46 185.68
  Q 168.83 191.31 160.59 194.07
  Q 155.35 195.82 145.64 195.77
  Q 132.78 195.70 125.32 195.64
  Q 118.11 195.60 114.93 196.97
  C 106.62 200.56 102.59 210.36 106.43 218.93
  Q 107.57 221.49 111.68 225.60
  Q 127.27 241.19 134.42 248.19
  Q 138.94 252.62 145.91 252.64
  Q 190.51 252.73 226.36 252.60
  Q 232.02 252.58 236.67 247.93"
/>
</g>
<path fill="#f37535" d="
  M 207.19 0.00
  C 225.17 0.60 245.06 0.25 261.35 9.40
  Q 280.64 20.23 290.95 39.29
  C 299.69 55.47 299.34 74.72 300.00 92.52
  L 300.00 207.40
  C 299.24 224.51 299.86 244.18 291.20 260.23
  Q 280.22 280.57 260.24 291.20
  C 244.03 299.83 225.53 299.13 207.50 300.00
  L 92.59 300.00
  C 75.34 299.38 56.25 299.72 40.30 291.47
  C 20.94 281.46 5.51 262.34 2.31 240.24
  C 0.69 228.97 0.40 218.57 0.00 207.57
  L 0.00 92.61
  Q 0.13 75.06 2.18 60.26
  C 5.16 38.62 19.96 19.71 38.65 9.38
  C 54.89 0.41 74.51 0.50 92.49 0.00
  L 207.19 0.00
  Z
  M 63.85 52.25
  Q 59.20 56.90 59.18 62.55
  Q 59.02 98.40 59.08 142.99
  Q 59.09 149.96 63.52 154.49
  Q 70.51 161.64 86.09 177.24
  Q 90.19 181.35 92.75 182.49
  C 101.32 186.34 111.12 182.32 114.72 174.01
  Q 116.09 170.83 116.05 163.62
  Q 116.00 156.16 115.94 143.30
  Q 115.90 133.60 117.65 128.36
  Q 120.41 120.13 126.05 114.49
  Q 131.68 108.86 139.92 106.11
  Q 145.16 104.36 154.86 104.41
  Q 167.72 104.48 175.18 104.53
  Q 182.39 104.58 185.57 103.21
  C 193.88 99.61 197.91 89.82 194.07 81.24
  Q 192.93 78.68 188.82 74.58
  Q 173.23 58.99 166.09 51.99
  Q 161.56 47.56 154.59 47.55
  Q 110.00 47.46 74.15 47.59
  Q 68.50 47.61 63.85 52.25
  Z
  M 236.67 247.93
  Q 241.32 243.29 241.34 237.63
  Q 241.50 201.78 241.44 157.18
  Q 241.43 150.21 237.00 145.68
  Q 230.01 138.53 214.43 122.93
  Q 210.33 118.82 207.77 117.68
  C 199.20 113.82 189.40 117.84 185.79 126.16
  Q 184.42 129.34 184.46 136.55
  Q 184.51 144.01 184.57 156.87
  Q 184.61 166.57 182.86 171.81
  Q 180.10 180.05 174.46 185.68
  Q 168.83 191.31 160.59 194.07
  Q 155.35 195.82 145.64 195.77
  Q 132.78 195.70 125.32 195.64
  Q 118.11 195.60 114.93 196.97
  C 106.62 200.56 102.59 210.36 106.43 218.93
  Q 107.57 221.49 111.68 225.60
  Q 127.27 241.19 134.42 248.19
  Q 138.94 252.62 145.91 252.64
  Q 190.51 252.73 226.36 252.60
  Q 232.02 252.58 236.67 247.93
  Z"
/>
<path fill="#ffffff" d="
  M 126.05 114.49
  Q 120.41 120.13 117.65 128.36
  Q 115.90 133.60 115.94 143.30
  Q 116.00 156.16 116.05 163.62
  Q 116.09 170.83 114.72 174.01
  C 111.12 182.32 101.32 186.34 92.75 182.49
  Q 90.19 181.35 86.09 177.24
  Q 70.51 161.64 63.52 154.49
  Q 59.09 149.96 59.08 142.99
  Q 59.02 98.40 59.18 62.55
  Q 59.20 56.90 63.85 52.25
  Q 68.50 47.61 74.15 47.59
  Q 110.00 47.46 154.59 47.55
  Q 161.56 47.56 166.09 51.99
  Q 173.23 58.99 188.82 74.58
  Q 192.93 78.68 194.07 81.24
  C 197.91 89.82 193.88 99.61 185.57 103.21
  Q 182.39 104.58 175.18 104.53
  Q 167.72 104.48 154.86 104.41
  Q 145.16 104.36 139.92 106.11
  Q 131.68 108.86 126.05 114.49
  Z"
/>
<path fill="#ffffff" d="
  M 236.67 247.93
  Q 232.02 252.58 226.36 252.60
  Q 190.51 252.73 145.91 252.64
  Q 138.94 252.62 134.42 248.19
  Q 127.27 241.19 111.68 225.60
  Q 107.57 221.49 106.43 218.93
  C 102.59 210.36 106.62 200.56 114.93 196.97
  Q 118.11 195.60 125.32 195.64
  Q 132.78 195.70 145.64 195.77
  Q 155.35 195.82 160.59 194.07
  Q 168.83 191.31 174.46 185.68
  Q 180.10 180.05 182.86 171.81
  Q 184.61 166.57 184.57 156.87
  Q 184.51 144.01 184.46 136.55
  Q 184.42 129.34 185.79 126.16
  C 189.40 117.84 199.20 113.82 207.77 117.68
  Q 210.33 118.82 214.43 122.93
  Q 230.01 138.53 237.00 145.68
  Q 241.43 150.21 241.44 157.18
  Q 241.50 201.78 241.34 237.63
  Q 241.32 243.29 236.67 247.93
  Z"
/>
</svg>