<?xml version="1.0" encoding="UTF-8" standalone="no"?>
<!DOCTYPE svg PUBLIC "-//W3C//DTD SVG 1.1//EN" "http://www.w3.org/Graphics/SVG/1.1/DTD/svg11.dtd">
<svg xmlns="http://www.w3.org/2000/svg" version="1.1" viewBox="0.00 0.00 180.00 180.00" width="128" height="128">
<g stroke-width="2.00" fill="none" stroke-linecap="butt">
<path stroke="#948f8a" vector-effect="non-scaling-stroke" d="
  M 91.75 53.71
  C 89.32 61.92 96.58 70.70 105.10 69.19
  A 0.51 0.51 0.0 0 0 105.48 68.50
  Q 103.34 62.92 104.91 57.60
  Q 106.48 52.27 111.31 48.75
  A 0.51 0.51 0.0 0 0 111.36 47.96
  C 105.03 42.07 94.17 45.50 91.75 53.71"
/>
<path stroke="#948f8a" vector-effect="non-scaling-stroke" d="
  M 119.22 50.00
  C 109.83 50.69 105.51 60.40 109.74 68.55
  A 0.48 0.47 55.0 0 0 110.48 68.68
  Q 114.62 64.92 120.29 64.50
  Q 125.95 64.09 130.59 67.20
  A 0.48 0.47 -63.3 0 0 131.31 66.96
  C 134.30 58.29 128.62 49.31 119.22 50.00"
/>
<path stroke="#948f8a" vector-effect="non-scaling-stroke" d="
  M 85.04 74.57
  A 11.54 11.54 0.0 0 0 73.50 63.03
  A 11.54 11.54 0.0 0 0 61.96 74.57
  A 11.54 11.54 0.0 0 0 73.50 86.11
  A 11.54 11.54 0.0 0 0 85.04 74.57"
/>
<path stroke="#948f8a" vector-effect="non-scaling-stroke" d="
  M 117.63 87.20
  Q 120.33 88.73 122.85 91.93
  A 0.88 0.87 -23.9 0 0 123.70 92.25
  C 134.79 90.23 137.45 75.51 127.46 69.85
  C 117.46 64.19 106.22 74.04 110.18 84.60
  A 0.88 0.87 83.0 0 0 110.89 85.16
  Q 114.93 85.67 117.63 87.20"
/>
<path stroke="#948f8a" vector-effect="non-scaling-stroke" d="
  M 58.71 101.08
  Q 63.73 100.78 68.78 103.87
  A 0.35 0.34 -62.5 0 0 69.27 103.71
  Q 73.49 93.72 64.94 87.60
  Q 62.20 85.63 57.80 85.90
  Q 53.40 86.16 50.91 88.44
  Q 43.16 95.54 48.54 104.95
  A 0.35 0.34 55.6 0 0 49.05 105.05
  Q 53.69 101.38 58.71 101.08"
/>
<path stroke="#948f8a" vector-effect="non-scaling-stroke" d="
  M 122.04 101.12
  A 12.11 12.11 0.0 0 0 109.93 89.01
  A 12.11 12.11 0.0 0 0 97.82 101.12
  A 12.11 12.11 0.0 0 0 109.93 113.23
  A 12.11 12.11 0.0 0 0 122.04 101.12"
/>
<path stroke="#948f8a" vector-effect="non-scaling-stroke" d="
  M 97.70 111.54
  Q 95.66 109.18 94.36 105.30
  A 0.88 0.87 -4.3 0 0 93.67 104.71
  C 82.49 102.90 75.01 115.92 82.56 124.64
  C 90.11 133.37 104.08 127.83 103.88 116.51
  A 0.88 0.87 -77.4 0 0 103.39 115.74
  Q 99.74 113.89 97.70 111.54"
/>
<path stroke="#948f8a" vector-effect="non-scaling-stroke" d="
  M 48.40 112.63
  C 45.46 120.08 50.69 128.96 59.04 129.17
  A 0.40 0.40 0.0 0 0 59.43 128.63
  Q 57.36 122.76 59.61 117.05
  Q 61.86 111.33 67.38 108.45
  A 0.40 0.40 0.0 0 0 67.46 107.79
  C 61.21 102.25 51.33 105.18 48.40 112.63"
/>
<path stroke="#948f8a" vector-effect="non-scaling-stroke" d="
  M 62.97 126.95
  C 66.15 135.83 76.68 137.38 83.39 131.13
  A 0.48 0.47 -50.6 0 0 83.32 130.37
  Q 78.59 127.39 76.67 122.04
  Q 74.75 116.69 76.51 111.38
  A 0.48 0.47 11.1 0 0 76.09 110.75
  C 66.93 110.19 59.79 118.08 62.97 126.95"
/>
</g>
<path fill="#2f2f30" d="
  M 95.01 0.00
  C 98.44 0.57 102.22 0.75 105.34 1.30
  Q 119.14 3.75 129.79 9.25
  Q 167.45 28.73 177.77 69.78
  C 178.93 74.42 179.33 79.85 180.00 84.91
  L 180.00 95.00
  Q 179.51 98.93 179.01 102.83
  Q 178.43 107.35 177.65 110.57
  Q 169.83 142.44 143.73 162.18
  Q 128.91 173.38 109.94 177.77
  C 105.18 178.88 100.10 179.37 95.09 180.00
  L 85.00 180.00
  Q 81.23 179.53 77.49 179.06
  C 62.24 177.12 47.41 170.79 35.56 161.65
  Q 9.66 141.66 2.16 109.74
  C 1.09 105.18 0.64 100.01 0.00 95.10
  L 0.00 84.99
  C 0.60 81.12 0.84 76.81 1.51 73.35
  Q 5.57 52.31 17.75 36.25
  Q 42.63 3.43 84.90 0.00
  L 95.01 0.00
  Z
  M 91.75 53.71
  C 89.32 61.92 96.58 70.70 105.10 69.19
  A 0.51 0.51 0.0 0 0 105.48 68.50
  Q 103.34 62.92 104.91 57.60
  Q 106.48 52.27 111.31 48.75
  A 0.51 0.51 0.0 0 0 111.36 47.96
  C 105.03 42.07 94.17 45.50 91.75 53.71
  Z
  M 119.22 50.00
  C 109.83 50.69 105.51 60.40 109.74 68.55
  A 0.48 0.47 55.0 0 0 110.48 68.68
  Q 114.62 64.92 120.29 64.50
  Q 125.95 64.09 130.59 67.20
  A 0.48 0.47 -63.3 0 0 131.31 66.96
  C 134.30 58.29 128.62 49.31 119.22 50.00
  Z
  M 85.04 74.57
  A 11.54 11.54 0.0 0 0 73.50 63.03
  A 11.54 11.54 0.0 0 0 61.96 74.57
  A 11.54 11.54 0.0 0 0 73.50 86.11
  A 11.54 11.54 0.0 0 0 85.04 74.57
  Z
  M 117.63 87.20
  Q 120.33 88.73 122.85 91.93
  A 0.88 0.87 -23.9 0 0 123.70 92.25
  C 134.79 90.23 137.45 75.51 127.46 69.85
  C 117.46 64.19 106.22 74.04 110.18 84.60
  A 0.88 0.87 83.0 0 0 110.89 85.16
  Q 114.93 85.67 117.63 87.20
  Z
  M 58.71 101.08
  Q 63.73 100.78 68.78 103.87
  A 0.35 0.34 -62.5 0 0 69.27 103.71
  Q 73.49 93.72 64.94 87.60
  Q 62.20 85.63 57.80 85.90
  Q 53.40 86.16 50.91 88.44
  Q 43.16 95.54 48.54 104.95
  A 0.35 0.34 55.6 0 0 49.05 105.05
  Q 53.69 101.38 58.71 101.08
  Z
  M 122.04 101.12
  A 12.11 12.11 0.0 0 0 109.93 89.01
  A 12.11 12.11 0.0 0 0 97.82 101.12
  A 12.11 12.11 0.0 0 0 109.93 113.23
  A 12.11 12.11 0.0 0 0 122.04 101.12
  Z
  M 97.70 111.54
  Q 95.66 109.18 94.36 105.30
  A 0.88 0.87 -4.3 0 0 93.67 104.71
  C 82.49 102.90 75.01 115.92 82.56 124.64
  C 90.11 133.37 104.08 127.83 103.88 116.51
  A 0.88 0.87 -77.4 0 0 103.39 115.74
  Q 99.74 113.89 97.70 111.54
  Z
  M 48.40 112.63
  C 45.46 120.08 50.69 128.96 59.04 129.17
  A 0.40 0.40 0.0 0 0 59.43 128.63
  Q 57.36 122.76 59.61 117.05
  Q 61.86 111.33 67.38 108.45
  A 0.40 0.40 0.0 0 0 67.46 107.79
  C 61.21 102.25 51.33 105.18 48.40 112.63
  Z
  M 62.97 126.95
  C 66.15 135.83 76.68 137.38 83.39 131.13
  A 0.48 0.47 -50.6 0 0 83.32 130.37
  Q 78.59 127.39 76.67 122.04
  Q 74.75 116.69 76.51 111.38
  A 0.48 0.47 11.1 0 0 76.09 110.75
  C 66.93 110.19 59.79 118.08 62.97 126.95
  Z"
/>
<path fill="#f9efe4" d="
  M 104.91 57.60
  Q 103.34 62.92 105.48 68.50
  A 0.51 0.51 0.0 0 1 105.10 69.19
  C 96.58 70.70 89.32 61.92 91.75 53.71
  C 94.17 45.50 105.03 42.07 111.36 47.96
  A 0.51 0.51 0.0 0 1 111.31 48.75
  Q 106.48 52.27 104.91 57.60
  Z"
/>
<path fill="#f9efe4" d="
  M 119.22 50.00
  C 128.62 49.31 134.30 58.29 131.31 66.96
  A 0.48 0.47 -63.3 0 1 130.59 67.20
  Q 125.95 64.09 120.29 64.50
  Q 114.62 64.92 110.48 68.68
  A 0.48 0.47 55.0 0 1 109.74 68.55
  C 105.51 60.40 109.83 50.69 119.22 50.00
  Z"
/>
<circle fill="#f9efe4" cx="73.50" cy="74.57" r="11.54"/>
<path fill="#f9efe4" d="
  M 127.46 69.85
  C 137.45 75.51 134.79 90.23 123.70 92.25
  A 0.88 0.87 -23.9 0 1 122.85 91.93
  Q 120.33 88.73 117.63 87.20
  Q 114.93 85.67 110.89 85.16
  A 0.88 0.87 83.0 0 1 110.18 84.60
  C 106.22 74.04 117.46 64.19 127.46 69.85
  Z"
/>
<path fill="#f9efe4" d="
  M 57.80 85.90
  Q 62.20 85.63 64.94 87.60
  Q 73.49 93.72 69.27 103.71
  A 0.35 0.34 -62.5 0 1 68.78 103.87
  Q 63.73 100.78 58.71 101.08
  Q 53.69 101.38 49.05 105.05
  A 0.35 0.34 55.6 0 1 48.54 104.95
  Q 43.16 95.54 50.91 88.44
  Q 53.40 86.16 57.80 85.90
  Z"
/>
<circle fill="#f9efe4" cx="109.93" cy="101.12" r="12.11"/>
<path fill="#f9efe4" d="
  M 97.70 111.54
  Q 99.74 113.89 103.39 115.74
  A 0.88 0.87 -77.4 0 1 103.88 116.51
  C 104.08 127.83 90.11 133.37 82.56 124.64
  C 75.01 115.92 82.49 102.90 93.67 104.71
  A 0.88 0.87 -4.3 0 1 94.36 105.30
  Q 95.66 109.18 97.70 111.54
  Z"
/>
<path fill="#f9efe4" d="
  M 59.61 117.05
  Q 57.36 122.76 59.43 128.63
  A 0.40 0.40 0.0 0 1 59.04 129.17
  C 50.69 128.96 45.46 120.08 48.40 112.63
  C 51.33 105.18 61.21 102.25 67.46 107.79
  A 0.40 0.40 0.0 0 1 67.38 108.45
  Q 61.86 111.33 59.61 117.05
  Z"
/>
<path fill="#f9efe4" d="
  M 76.67 122.04
  Q 78.59 127.39 83.32 130.37
  A 0.48 0.47 -50.6 0 1 83.39 131.13
  C 76.68 137.38 66.15 135.83 62.97 126.95
  C 59.79 118.08 66.93 110.19 76.09 110.75
  A 0.48 0.47 11.1 0 1 76.51 111.38
  Q 74.75 116.69 76.67 122.04
  Z"
/>
</svg>