<?xml version="1.0" encoding="UTF-8" standalone="no"?>
<!DOCTYPE svg PUBLIC "-//W3C//DTD SVG 1.1//EN" "http://www.w3.org/Graphics/SVG/1.1/DTD/svg11.dtd">
<svg xmlns="http://www.w3.org/2000/svg" version="1.1" viewBox="0.00 0.00 180.00 180.00" width="128" height="128">
<g stroke-width="2.00" fill="none" stroke-linecap="butt">
<path stroke="#848484" vector-effect="non-scaling-stroke" d="
  M 78.73 123.73
  L 78.68 101.81
  A 0.56 0.56 0.0 0 0 78.12 101.25
  L 56.85 101.25
  A 0.60 0.60 0.0 0 0 56.25 101.85
  L 56.25 123.10
  A 0.59 0.59 0.0 0 0 56.84 123.69
  L 78.73 123.73"
/>
<path stroke="#848484" vector-effect="non-scaling-stroke" d="
  M 78.73 123.73
  L 78.78 145.67
  A 0.50 0.50 0.0 0 0 79.26 146.17
  Q 91.61 146.60 96.23 145.95
  Q 121.07 142.45 134.89 123.80
  C 162.90 85.98 136.03 33.63 89.24 33.73
  Q 72.71 33.77 34.34 33.74
  A 0.59 0.59 0.0 0 0 33.75 34.33
  L 33.75 100.94
  A 0.31 0.31 0.0 0 0 34.06 101.25
  L 55.84 101.25
  A 0.42 0.41 90.0 0 0 56.25 100.83
  L 56.25 56.64
  A 0.41 0.40 -89.3 0 1 56.66 56.23
  Q 75.81 56.33 82.44 56.20
  Q 94.16 55.97 99.47 57.55
  C 119.89 63.63 129.93 87.10 119.80 105.72
  Q 111.73 120.54 95.05 123.35
  C 90.41 124.13 84.03 123.73 78.73 123.73"
/>
<path stroke="#848484" vector-effect="non-scaling-stroke" d="
  M 56.25 124.21
  A 0.46 0.46 0.0 0 0 55.79 123.75
  L 34.21 123.75
  A 0.46 0.46 0.0 0 0 33.75 124.21
  L 33.75 145.79
  A 0.46 0.46 0.0 0 0 34.21 146.25
  L 55.79 146.25
  A 0.46 0.46 0.0 0 0 56.25 145.79
  L 56.25 124.21"
/>
</g>
<path fill="#080808" d="
  M 159.83 0.00
  C 171.10 1.79 178.20 9.13 180.00 20.34
  L 180.00 159.83
  C 178.20 171.13 170.87 178.17 159.66 180.00
  L 20.18 180.00
  C 8.91 178.21 1.78 170.86 0.00 159.65
  L 0.00 20.15
  Q 3.11 2.86 20.33 0.00
  L 159.83 0.00
  Z
  M 78.73 123.73
  L 78.68 101.81
  A 0.56 0.56 0.0 0 0 78.12 101.25
  L 56.85 101.25
  A 0.60 0.60 0.0 0 0 56.25 101.85
  L 56.25 123.10
  A 0.59 0.59 0.0 0 0 56.84 123.69
  L 78.73 123.73
  L 78.78 145.67
  A 0.50 0.50 0.0 0 0 79.26 146.17
  Q 91.61 146.60 96.23 145.95
  Q 121.07 142.45 134.89 123.80
  C 162.90 85.98 136.03 33.63 89.24 33.73
  Q 72.71 33.77 34.34 33.74
  A 0.59 0.59 0.0 0 0 33.75 34.33
  L 33.75 100.94
  A 0.31 0.31 0.0 0 0 34.06 101.25
  L 55.84 101.25
  A 0.42 0.41 90.0 0 0 56.25 100.83
  L 56.25 56.64
  A 0.41 0.40 -89.3 0 1 56.66 56.23
  Q 75.81 56.33 82.44 56.20
  Q 94.16 55.97 99.47 57.55
  C 119.89 63.63 129.93 87.10 119.80 105.72
  Q 111.73 120.54 95.05 123.35
  C 90.41 124.13 84.03 123.73 78.73 123.73
  Z
  M 56.25 124.21
  A 0.46 0.46 0.0 0 0 55.79 123.75
  L 34.21 123.75
  A 0.46 0.46 0.0 0 0 33.75 124.21
  L 33.75 145.79
  A 0.46 0.46 0.0 0 0 34.21 146.25
  L 55.79 146.25
  A 0.46 0.46 0.0 0 0 56.25 145.79
  L 56.25 124.21
  Z"
/>
<path fill="#ffffff" d="
  M 78.73 123.73
  C 84.03 123.73 90.41 124.13 95.05 123.35
  Q 111.73 120.54 119.80 105.72
  C 129.93 87.10 119.89 63.63 99.47 57.55
  Q 94.16 55.97 82.44 56.20
  Q 75.81 56.33 56.66 56.23
  A 0.41 0.40 -89.3 0 0 56.25 56.64
  L 56.25 100.83
  A 0.42 0.41 -90.0 0 1 55.84 101.25
  L 34.06 101.25
  A 0.31 0.31 0.0 0 1 33.75 100.94
  L 33.75 34.33
  A 0.59 0.59 0.0 0 1 34.34 33.74
  Q 72.71 33.77 89.24 33.73
  C 136.03 33.63 162.90 85.98 134.89 123.80
  Q 121.07 142.45 96.23 145.95
  Q 91.61 146.60 79.26 146.17
  A 0.50 0.50 0.0 0 1 78.78 145.67
  L 78.73 123.73
  Z"
/>
<path fill="#ffffff" d="
  M 78.73 123.73
  L 56.84 123.69
  A 0.59 0.59 0.0 0 1 56.25 123.10
  L 56.25 101.85
  A 0.60 0.60 0.0 0 1 56.85 101.25
  L 78.12 101.25
  A 0.56 0.56 0.0 0 1 78.68 101.81
  L 78.73 123.73
  Z"
/>
<rect fill="#ffffff" x="33.75" y="123.75" width="22.50" height="22.50" rx="0.46"/>
</svg>