<?xml version="1.0" encoding="UTF-8" standalone="no"?>
<!DOCTYPE svg PUBLIC "-//W3C//DTD SVG 1.1//EN" "http://www.w3.org/Graphics/SVG/1.1/DTD/svg11.dtd">
<svg xmlns="http://www.w3.org/2000/svg" version="1.1" viewBox="0.00 0.00 256.00 256.00" width="128" height="128">
<g stroke-width="2.00" fill="none" stroke-linecap="butt">
<path stroke="#feda80" vector-effect="non-scaling-stroke" d="
  M 226.34 50.35
  A 20.71 20.71 0.0 0 0 205.63 29.64
  L 50.37 29.64
  A 20.71 20.71 0.0 0 0 29.66 50.35
  L 29.66 96.89
  A 20.71 20.71 0.0 0 0 50.37 117.60
  L 205.63 117.60
  A 20.71 20.71 0.0 0 0 226.34 96.89
  L 226.34 50.35"
/>
<path stroke="#fa9cbc" vector-effect="non-scaling-stroke" d="
  M 117.60 182.39
  A 44.00 44.00 0.0 0 0 73.60 138.39
  A 44.00 44.00 0.0 0 0 29.60 182.39
  A 44.00 44.00 0.0 0 0 73.60 226.39
  A 44.00 44.00 0.0 0 0 117.60 182.39"
/>
<path stroke="#9cb5fa" vector-effect="non-scaling-stroke" d="
  M 226.4005 159.1968
  A 20.69 20.69 0.0 0 0 205.7467 138.4707
  L 159.2068 138.3895
  A 20.69 20.69 0.0 0 0 138.4807 159.0433
  L 138.3995 205.5832
  A 20.69 20.69 0.0 0 0 159.0533 226.3093
  L 205.5932 226.3905
  A 20.69 20.69 0.0 0 0 226.3193 205.7367
  L 226.4005 159.1968"
/>
</g>
<path fill="#ffffff" d="
  M 256.00 0.00
  L 256.00 256.00
  L 0.00 256.00
  L 0.00 0.00
  L 256.00 0.00
  Z
  M 226.34 50.35
  A 20.71 20.71 0.0 0 0 205.63 29.64
  L 50.37 29.64
  A 20.71 20.71 0.0 0 0 29.66 50.35
  L 29.66 96.89
  A 20.71 20.71 0.0 0 0 50.37 117.60
  L 205.63 117.60
  A 20.71 20.71 0.0 0 0 226.34 96.89
  L 226.34 50.35
  Z
  M 117.60 182.39
  A 44.00 44.00 0.0 0 0 73.60 138.39
  A 44.00 44.00 0.0 0 0 29.60 182.39
  A 44.00 44.00 0.0 0 0 73.60 226.39
  A 44.00 44.00 0.0 0 0 117.60 182.39
  Z
  M 226.4005 159.1968
  A 20.69 20.69 0.0 0 0 205.7467 138.4707
  L 159.2068 138.3895
  A 20.69 20.69 0.0 0 0 138.4807 159.0433
  L 138.3995 205.5832
  A 20.69 20.69 0.0 0 0 159.0533 226.3093
  L 205.5932 226.3905
  A 20.69 20.69 0.0 0 0 226.3193 205.7367
  L 226.4005 159.1968
  Z"
/>
<rect fill="#fcb500" x="29.66" y="29.64" width="196.68" height="87.96" rx="20.71"/>
<circle fill="#f53878" cx="73.60" cy="182.39" r="44.00"/>
<rect fill="#386af5" x="-43.96" y="-43.96" transform="translate(182.40,182.39) rotate(0.1)" width="87.92" height="87.92" rx="20.69"/>
</svg>