<?xml version="1.0" encoding="UTF-8" standalone="no"?>
<!DOCTYPE svg PUBLIC "-//W3C//DTD SVG 1.1//EN" "http://www.w3.org/Graphics/SVG/1.1/DTD/svg11.dtd">
<svg xmlns="http://www.w3.org/2000/svg" version="1.1" viewBox="0.00 0.00 1024.00 1024.00" width="128" height="128">
<g stroke-width="2.00" fill="none" stroke-linecap="butt">
<path stroke="#808080" vector-effect="non-scaling-stroke" d="
  M 474.53 502.26
  Q 474.18 503.64 473.82 505.02
  Q 444.39 615.61 409.68 745.98
  Q 406.17 759.16 404.21 764.33
  C 394.30 790.48 376.30 813.29 349.45 823.03
  C 312.69 836.37 277.40 819.60 254.57 790.40
  A 0.48 0.47 54.9 0 0 253.96 790.29
  L 192.55 827.37
  A 0.54 0.54 0.0 0 0 192.40 828.16
  Q 217.47 861.09 254.44 879.53
  Q 303.85 904.17 357.00 891.98
  C 398.53 882.45 434.58 856.22 458.10 820.92
  Q 477.41 791.93 485.55 761.52
  Q 503.14 695.85 549.30 522.02
  Q 549.33 521.89 549.37 521.75
  Q 549.71 520.37 550.08 518.99
  Q 579.51 408.40 614.22 278.03
  Q 617.73 264.85 619.69 259.68
  C 629.60 233.53 647.60 210.72 674.45 200.98
  C 711.21 187.64 746.50 204.41 769.33 233.61
  A 0.48 0.47 54.9 0 0 769.94 233.72
  L 831.35 196.64
  A 0.54 0.54 0.0 0 0 831.50 195.85
  Q 806.43 162.92 769.46 144.48
  Q 720.05 119.84 666.90 132.03
  C 625.37 141.56 589.32 167.79 565.80 203.09
  Q 546.49 232.08 538.35 262.49
  Q 520.76 328.16 474.60 501.99
  Q 474.56 502.12 474.53 502.26"
/>
<path stroke="#808080" vector-effect="non-scaling-stroke" d="
  M 345.76 696.56
  A 0.37 0.37 0.0 0 0 346.11 696.28
  L 443.89 327.84
  A 0.37 0.37 0.0 0 0 443.53 327.38
  L 364.48 327.38
  A 0.37 0.37 0.0 0 0 364.13 327.66
  L 266.36 696.10
  A 0.37 0.37 0.0 0 0 266.72 696.56
  L 345.76 696.56"
/>
<path stroke="#808080" vector-effect="non-scaling-stroke" d="
  M 678.13 327.41
  A 0.36 0.36 0.0 0 0 677.78 327.68
  L 580.01 696.14
  A 0.36 0.36 0.0 0 0 580.36 696.59
  L 659.41 696.59
  A 0.36 0.36 0.0 0 0 659.76 696.32
  L 757.54 327.86
  A 0.36 0.36 0.0 0 0 757.19 327.41
  L 678.13 327.41"
/>
</g>
<path fill="#000000" d="
  M 837.19 0.00
  Q 839.24 0.30 841.35 0.17
  A 6.16 6.07 -41.6 0 1 842.70 0.24
  Q 845.30 0.66 847.68 0.55
  A 3.33 3.31 -40.0 0 1 848.53 0.62
  Q 849.79 0.89 853.72 1.20
  Q 855.76 1.36 858.58 1.95
  Q 859.78 2.19 861.13 2.09
  Q 861.15 2.09 861.17 2.09
  Q 872.75 4.10 883.58 6.97
  C 885.37 7.45 887.17 8.36 889.15 8.57
  A 1.81 1.79 -23.5 0 1 890.05 8.92
  Q 890.98 9.62 891.14 9.62
  Q 892.51 9.60 894.70 10.45
  Q 898.26 11.84 903.26 13.55
  A 4.75 4.72 67.0 0 1 903.92 13.82
  Q 907.06 15.40 907.80 15.65
  Q 910.19 16.47 912.05 17.38
  Q 922.76 22.65 925.05 23.98
  C 931.62 27.79 937.89 31.65 942.97 35.37
  C 946.71 38.11 948.14 39.36 951.34 41.53
  A 3.86 3.71 86.8 0 1 952.20 42.33
  Q 952.79 43.07 957.82 46.97
  Q 960.86 49.33 975.94 64.86
  C 977.48 66.45 979.89 70.03 982.20 72.29
  C 982.61 72.69 982.74 73.29 983.06 73.68
  Q 989.78 81.86 994.56 89.99
  C 995.64 91.84 996.86 93.39 997.95 95.59
  A 7.04 6.07 89.1 0 0 998.44 96.41
  Q 999.64 98.13 1000.08 98.97
  Q 1002.36 103.35 1007.65 114.02
  Q 1007.82 114.37 1007.90 115.03
  A 2.81 2.79 -62.4 0 0 1008.21 116.03
  Q 1010.23 119.88 1012.01 125.12
  Q 1013.09 128.29 1013.18 128.46
  Q 1014.20 130.41 1014.23 131.40
  Q 1014.28 132.65 1015.09 133.89
  A 2.33 2.28 -66.8 0 1 1015.42 134.74
  C 1015.84 137.34 1016.69 138.83 1017.17 141.02
  C 1017.71 143.49 1019.28 148.77 1020.12 153.69
  Q 1020.58 156.35 1020.78 157.05
  Q 1021.43 159.29 1021.39 159.76
  Q 1021.34 160.29 1021.56 161.21
  Q 1022.11 163.43 1022.00 165.78
  Q 1021.95 166.68 1022.34 168.00
  Q 1023.09 170.53 1023.18 173.50
  Q 1023.22 174.65 1023.24 175.75
  Q 1023.29 178.78 1023.76 181.26
  A 4.17 3.92 43.2 0 1 1023.82 182.24
  Q 1023.67 184.54 1024.00 186.75
  L 1024.00 837.21
  Q 1023.68 839.44 1023.82 841.75
  A 4.16 4.07 49.1 0 1 1023.76 842.74
  Q 1023.31 845.23 1023.45 847.51
  A 3.61 3.50 51.3 0 1 1023.35 848.57
  Q 1023.06 849.77 1022.78 853.74
  Q 1022.62 855.98 1022.10 858.38
  Q 1021.84 859.53 1021.88 861.25
  A 0.35 0.31 -41.4 0 1 1021.87 861.33
  Q 1019.92 872.70 1016.97 883.72
  C 1016.51 885.45 1015.62 887.22 1015.43 889.15
  A 2.42 2.32 65.9 0 1 1015.04 890.24
  Q 1014.46 891.09 1014.47 891.22
  Q 1014.54 892.04 1013.56 894.61
  Q 1012.24 898.09 1010.37 903.46
  A 4.29 3.70 -26.7 0 1 1010.15 903.99
  Q 1008.56 907.18 1008.33 907.83
  Q 1007.42 910.47 1006.66 912.01
  Q 1001.42 922.56 1000.04 925.06
  Q 999.26 926.49 998.34 928.03
  Q 996.20 931.63 995.43 932.67
  Q 994.95 933.32 994.50 934.22
  C 993.06 937.09 989.03 942.39 985.68 947.13
  A 4.61 4.21 -8.7 0 1 985.18 947.75
  Q 983.50 949.55 982.45 951.38
  A 1.25 0.41 -72.0 0 1 982.37 951.49
  L 977.40 957.46
  A 6.89 4.18 -37.3 0 1 976.76 958.16
  Q 976.14 958.68 973.34 961.84
  Q 970.34 965.21 959.62 975.43
  C 957.26 977.68 954.18 979.73 951.72 982.20
  Q 951.56 982.37 950.59 983.09
  Q 939.86 991.14 933.79 994.76
  C 930.07 996.98 926.05 999.60 921.84 1001.74
  Q 912.46 1006.51 909.94 1007.56
  Q 909.12 1007.91 908.33 1008.24
  Q 900.01 1011.75 899.02 1011.98
  Q 897.64 1012.30 896.04 1013.17
  A 1.99 1.91 28.6 0 1 895.20 1013.40
  Q 894.03 1013.46 892.57 1014.22
  Q 891.55 1014.76 889.58 1015.18
  Q 887.38 1015.65 886.27 1016.12
  Q 884.62 1016.83 883.00 1017.19
  C 879.81 1017.90 875.03 1019.26 870.68 1020.10
  Q 868.54 1020.51 867.00 1020.86
  Q 865.56 1021.19 864.24 1021.31
  Q 862.84 1021.44 862.42 1021.60
  Q 862.34 1021.63 861.06 1021.81
  Q 854.76 1022.69 849.41 1023.26
  C 847.08 1023.51 844.86 1023.36 842.60 1023.80
  A 0.53 0.48 -47.9 0 1 842.50 1023.81
  L 837.27 1024.00
  L 186.82 1024.00
  Q 184.78 1023.71 182.67 1023.83
  A 5.93 5.90 -41.5 0 1 181.30 1023.75
  Q 178.79 1023.33 176.40 1023.46
  A 3.23 3.23 0.0 0 1 175.49 1023.39
  Q 173.99 1023.06 170.25 1022.81
  Q 168.40 1022.69 165.62 1022.13
  Q 164.20 1021.85 162.71 1021.89
  A 5.62 5.36 -38.7 0 1 161.43 1021.78
  L 143.07 1017.82
  A 15.58 14.52 14.9 0 1 140.95 1017.22
  Q 136.99 1015.78 134.49 1015.34
  A 1.30 0.20 8.6 0 1 134.36 1015.30
  L 120.42 1010.35
  A 2.79 0.91 25.5 0 1 120.06 1010.20
  Q 116.87 1008.61 116.17 1008.36
  Q 113.59 1007.47 112.00 1006.68
  Q 101.97 1001.71 98.95 1000.07
  Q 97.74 999.41 95.92 998.35
  Q 93.05 996.68 91.34 995.52
  Q 90.55 994.98 89.60 994.42
  Q 83.54 990.81 73.29 982.86
  C 64.61 976.11 56.94 968.64 48.49 959.53
  C 46.26 957.12 44.17 954.00 41.97 951.94
  A 2.65 2.61 -82.1 0 1 41.42 951.20
  Q 40.94 950.28 40.49 949.74
  Q 34.88 943.03 29.36 933.96
  C 26.88 929.90 24.36 926.01 22.23 921.79
  Q 17.15 911.74 16.46 909.98
  Q 15.91 908.57 15.82 908.36
  Q 12.39 900.54 11.99 898.93
  Q 11.65 897.57 10.83 896.07
  A 2.06 2.04 -60.7 0 1 10.58 895.17
  Q 10.52 893.73 9.75 892.57
  Q 9.03 891.47 8.80 889.59
  Q 8.56 887.53 7.37 885.03
  A 2.85 2.65 -66.1 0 1 7.16 884.42
  Q 7.00 883.69 4.47 873.65
  C 4.02 871.86 3.74 869.19 3.05 866.99
  Q 2.41 864.94 2.46 864.26
  Q 2.50 863.75 2.55 863.56
  A 1.90 1.89 -48.1 0 0 2.49 862.42
  Q 1.98 861.05 1.95 858.24
  Q 1.94 857.39 1.57 856.01
  Q 0.95 853.72 1.00 851.25
  C 1.02 850.21 0.49 848.98 0.53 848.26
  Q 0.69 845.39 0.22 842.59
  A 5.38 5.07 43.3 0 1 0.15 841.43
  Q 0.28 839.32 0.00 837.27
  L 0.00 186.84
  Q 0.76 161.08 8.09 136.48
  Q 11.03 126.64 15.96 115.23
  Q 16.07 114.98 16.26 114.54
  Q 21.35 102.48 29.39 89.90
  Q 60.33 41.52 112.36 17.16
  C 114.18 16.31 116.70 15.57 118.78 14.45
  Q 119.27 14.18 121.36 13.37
  Q 152.84 1.09 186.74 0.00
  L 837.19 0.00
  Z
  M 474.53 502.26
  Q 474.18 503.64 473.82 505.02
  Q 444.39 615.61 409.68 745.98
  Q 406.17 759.16 404.21 764.33
  C 394.30 790.48 376.30 813.29 349.45 823.03
  C 312.69 836.37 277.40 819.60 254.57 790.40
  A 0.48 0.47 54.9 0 0 253.96 790.29
  L 192.55 827.37
  A 0.54 0.54 0.0 0 0 192.40 828.16
  Q 217.47 861.09 254.44 879.53
  Q 303.85 904.17 357.00 891.98
  C 398.53 882.45 434.58 856.22 458.10 820.92
  Q 477.41 791.93 485.55 761.52
  Q 503.14 695.85 549.30 522.02
  Q 549.33 521.89 549.37 521.75
  Q 549.71 520.37 550.08 518.99
  Q 579.51 408.40 614.22 278.03
  Q 617.73 264.85 619.69 259.68
  C 629.60 233.53 647.60 210.72 674.45 200.98
  C 711.21 187.64 746.50 204.41 769.33 233.61
  A 0.48 0.47 54.9 0 0 769.94 233.72
  L 831.35 196.64
  A 0.54 0.54 0.0 0 0 831.50 195.85
  Q 806.43 162.92 769.46 144.48
  Q 720.05 119.84 666.90 132.03
  C 625.37 141.56 589.32 167.79 565.80 203.09
  Q 546.49 232.08 538.35 262.49
  Q 520.76 328.16 474.60 501.99
  Q 474.56 502.12 474.53 502.26
  Z
  M 345.76 696.56
  A 0.37 0.37 0.0 0 0 346.11 696.28
  L 443.89 327.84
  A 0.37 0.37 0.0 0 0 443.53 327.38
  L 364.48 327.38
  A 0.37 0.37 0.0 0 0 364.13 327.66
  L 266.36 696.10
  A 0.37 0.37 0.0 0 0 266.72 696.56
  L 345.76 696.56
  Z
  M 678.13 327.41
  A 0.36 0.36 0.0 0 0 677.78 327.68
  L 580.01 696.14
  A 0.36 0.36 0.0 0 0 580.36 696.59
  L 659.41 696.59
  A 0.36 0.36 0.0 0 0 659.76 696.32
  L 757.54 327.86
  A 0.36 0.36 0.0 0 0 757.19 327.41
  L 678.13 327.41
  Z"
/>
<path fill="#ffffff" d="
  M 474.53 502.26
  Q 474.56 502.12 474.60 501.99
  Q 520.76 328.16 538.35 262.49
  Q 546.49 232.08 565.80 203.09
  C 589.32 167.79 625.37 141.56 666.90 132.03
  Q 720.05 119.84 769.46 144.48
  Q 806.43 162.92 831.50 195.85
  A 0.54 0.54 0.0 0 1 831.35 196.64
  L 769.94 233.72
  A 0.48 0.47 54.9 0 1 769.33 233.61
  C 746.50 204.41 711.21 187.64 674.45 200.98
  C 647.60 210.72 629.60 233.53 619.69 259.68
  Q 617.73 264.85 614.22 278.03
  Q 579.51 408.40 550.08 518.99
  Q 549.71 520.37 549.37 521.75
  Q 549.33 521.89 549.30 522.02
  Q 503.14 695.85 485.55 761.52
  Q 477.41 791.93 458.10 820.92
  C 434.58 856.22 398.53 882.45 357.00 891.98
  Q 303.85 904.17 254.44 879.53
  Q 217.47 861.09 192.40 828.16
  A 0.54 0.54 0.0 0 1 192.55 827.37
  L 253.96 790.29
  A 0.48 0.47 54.9 0 1 254.57 790.40
  C 277.40 819.60 312.69 836.37 349.45 823.03
  C 376.30 813.29 394.30 790.48 404.21 764.33
  Q 406.17 759.16 409.68 745.98
  Q 444.39 615.61 473.82 505.02
  Q 474.18 503.64 474.53 502.26
  Z"
/>
<path fill="#ffffff" d="
  M 345.76 696.56
  L 266.72 696.56
  A 0.37 0.37 0.0 0 1 266.36 696.10
  L 364.13 327.66
  A 0.37 0.37 0.0 0 1 364.48 327.38
  L 443.53 327.38
  A 0.37 0.37 0.0 0 1 443.89 327.84
  L 346.11 696.28
  A 0.37 0.37 0.0 0 1 345.76 696.56
  Z"
/>
<path fill="#ffffff" d="
  M 678.13 327.41
  L 757.19 327.41
  A 0.36 0.36 0.0 0 1 757.54 327.86
  L 659.76 696.32
  A 0.36 0.36 0.0 0 1 659.41 696.59
  L 580.36 696.59
  A 0.36 0.36 0.0 0 1 580.01 696.14
  L 677.78 327.68
  A 0.36 0.36 0.0 0 1 678.13 327.41
  Z"
/>
</svg>