<?xml version="1.0" encoding="UTF-8" standalone="no"?>
<!DOCTYPE svg PUBLIC "-//W3C//DTD SVG 1.1//EN" "http://www.w3.org/Graphics/SVG/1.1/DTD/svg11.dtd">
<svg xmlns="http://www.w3.org/2000/svg" version="1.1" viewBox="0.00 0.00 180.00 180.00" width="128" height="128">
<g stroke-width="2.00" fill="none" stroke-linecap="butt">
<path stroke="#7f9f9b" vector-effect="non-scaling-stroke" d="
  M 180.00 38.49
  L 143.92 59.28"
/>
<path stroke="#d6f2eb" vector-effect="non-scaling-stroke" d="
  M 143.92 59.28
  L 90.13 27.40
  A 0.37 0.37 0.0 0 0 89.77 27.40
  L 35.98 59.26"
/>
<path stroke="#64d3bb" vector-effect="non-scaling-stroke" d="
  M 35.98 59.26
  L 0.00 38.49"
/>
<path stroke="#a9acaf" vector-effect="non-scaling-stroke" d="
  M 143.92 59.28
  L 143.92 121.73"
/>
<path stroke="#9b9d9f" vector-effect="non-scaling-stroke" d="
  M 143.92 121.73
  L 143.95 142.96
  A 0.45 0.45 0.0 0 1 143.50 143.41
  L 36.38 143.41
  A 0.38 0.37 -0.0 0 1 36.00 143.04
  L 35.98 121.67"
/>
<path stroke="#8ee1cf" vector-effect="non-scaling-stroke" d="
  M 35.98 121.67
  L 35.98 59.26"
/>
<path stroke="#8ee1cf" vector-effect="non-scaling-stroke" d="
  M 43.44 63.16
  Q 42.99 63.13 42.74 63.26
  Q 42.50 63.38 42.50 63.85
  Q 42.52 78.75 42.49 89.72
  A 0.26 0.26 0.0 0 0 42.84 89.96
  Q 55.65 84.82 68.57 89.91
  Q 73.70 91.94 78.45 97.19"
/>
<path stroke="#9b9d9f" vector-effect="non-scaling-stroke" d="
  M 78.45 97.19
  L 66.06 104.29"
/>
<path stroke="#8ee1cf" vector-effect="non-scaling-stroke" d="
  M 66.06 104.29
  Q 60.27 99.18 53.32 100.11
  C 50.64 100.47 48.39 101.97 48.91 104.85
  C 49.48 107.99 53.62 109.40 56.19 109.96"
/>
<path stroke="#9b9d9f" vector-effect="non-scaling-stroke" d="
  M 56.19 109.96
  C 62.41 111.72 69.19 112.76 74.46 116.30
  Q 82.80 121.90 80.68 132.05
  Q 80.24 134.14 79.73 136.12
  A 0.43 0.43 0.0 0 0 80.15 136.66
  L 137.15 136.66
  A 0.26 0.26 0.0 0 0 137.41 136.40
  L 137.31 117.50"
/>
<path stroke="#a9acaf" vector-effect="non-scaling-stroke" d="
  M 137.31 117.50
  L 137.36 63.98
  A 0.67 0.66 4.6 0 0 136.80 63.33
  L 136.52 63.28"
/>
<path stroke="#d6f2eb" vector-effect="non-scaling-stroke" d="
  M 136.52 63.28
  Q 136.16 62.58 135.51 62.21
  Q 116.18 51.10 90.40 36.21
  A 0.90 0.90 0.0 0 0 89.50 36.21
  L 44.14 62.40
  A 0.94 0.87 2.3 0 0 43.87 62.63
  L 43.44 63.16"
/>
<path stroke="#7f9f9b" vector-effect="non-scaling-stroke" d="
  M 136.52 63.28
  L 90.17 90.27"
/>
<path stroke="#72908b" vector-effect="non-scaling-stroke" d="
  M 90.17 90.27
  Q 90.12 90.36 90.06 90.46"
/>
<path stroke="#64d3bb" vector-effect="non-scaling-stroke" d="
  M 90.06 90.46
  L 43.44 63.16"
/>
<path stroke="#454a4f" vector-effect="non-scaling-stroke" d="
  M 137.31 117.50
  L 90.17 90.27"
/>
<path stroke="#2a7f6f" vector-effect="non-scaling-stroke" d="
  M 56.19 109.96
  L 66.06 104.29"
/>
<path stroke="#2a7f6f" vector-effect="non-scaling-stroke" d="
  M 90.06 90.46
  L 78.45 97.19"
/>
<path stroke="#8ee1cf" vector-effect="non-scaling-stroke" d="
  M 42.47 119.63
  L 42.47 125.55
  A 2.25 2.25 0.0 0 0 42.92 126.90
  Q 50.30 136.86 61.96 134.27
  Q 65.96 133.39 65.88 129.58
  C 65.81 126.42 61.04 124.70 58.59 124.15
  Q 49.96 122.22 42.78 119.42
  A 0.23 0.23 0.0 0 0 42.47 119.63"
/>
<path stroke="#454a4f" vector-effect="non-scaling-stroke" d="
  M 180.00 142.44
  L 143.92 121.73"
/>
<path stroke="#2a7f6f" vector-effect="non-scaling-stroke" d="
  M 35.98 121.67
  L 0.00 142.41"
/>
</g>
<path fill="#ace4d6" d="
  M 180.00 0.00
  L 180.00 38.49
  L 143.92 59.28
  L 90.13 27.40
  A 0.37 0.37 0.0 0 0 89.77 27.40
  L 35.98 59.26
  L 0.00 38.49
  L 0.00 0.00
  L 180.00 0.00
  Z"
/>
<path fill="#ffffff" d="
  M 143.92 59.28
  L 143.92 121.73
  L 143.95 142.96
  A 0.45 0.45 0.0 0 1 143.50 143.41
  L 36.38 143.41
  A 0.38 0.37 -0.0 0 1 36.00 143.04
  L 35.98 121.67
  L 35.98 59.26
  L 89.77 27.40
  A 0.37 0.37 0.0 0 1 90.13 27.40
  L 143.92 59.28
  Z
  M 43.44 63.16
  Q 42.99 63.13 42.74 63.26
  Q 42.50 63.38 42.50 63.85
  Q 42.52 78.75 42.49 89.72
  A 0.26 0.26 0.0 0 0 42.84 89.96
  Q 55.65 84.82 68.57 89.91
  Q 73.70 91.94 78.45 97.19
  L 66.06 104.29
  Q 60.27 99.18 53.32 100.11
  C 50.64 100.47 48.39 101.97 48.91 104.85
  C 49.48 107.99 53.62 109.40 56.19 109.96
  C 62.41 111.72 69.19 112.76 74.46 116.30
  Q 82.80 121.90 80.68 132.05
  Q 80.24 134.14 79.73 136.12
  A 0.43 0.43 0.0 0 0 80.15 136.66
  L 137.15 136.66
  A 0.26 0.26 0.0 0 0 137.41 136.40
  L 137.31 117.50
  L 137.36 63.98
  A 0.67 0.66 4.6 0 0 136.80 63.33
  L 136.52 63.28
  Q 136.16 62.58 135.51 62.21
  Q 116.18 51.10 90.40 36.21
  A 0.90 0.90 0.0 0 0 89.50 36.21
  L 44.14 62.40
  A 0.94 0.87 2.3 0 0 43.87 62.63
  L 43.44 63.16
  Z
  M 42.47 119.63
  L 42.47 125.55
  A 2.25 2.25 0.0 0 0 42.92 126.90
  Q 50.30 136.86 61.96 134.27
  Q 65.96 133.39 65.88 129.58
  C 65.81 126.42 61.04 124.70 58.59 124.15
  Q 49.96 122.22 42.78 119.42
  A 0.23 0.23 0.0 0 0 42.47 119.63
  Z"
/>
<path fill="#ace4d6" d="
  M 136.52 63.28
  L 90.17 90.27
  Q 90.12 90.36 90.06 90.46
  L 43.44 63.16
  L 43.87 62.63
  A 0.94 0.87 2.3 0 1 44.14 62.40
  L 89.50 36.21
  A 0.90 0.90 0.0 0 1 90.40 36.21
  Q 116.18 51.10 135.51 62.21
  Q 136.16 62.58 136.52 63.28
  Z"
/>
<path fill="#52595f" d="
  M 180.00 38.49
  L 180.00 142.44
  L 143.92 121.73
  L 143.92 59.28
  L 180.00 38.49
  Z"
/>
<path fill="#1cc29f" d="
  M 35.98 59.26
  L 35.98 121.67
  L 0.00 142.41
  L 0.00 38.49
  L 35.98 59.26
  Z"
/>
<path fill="#1cc29f" d="
  M 43.44 63.16
  L 90.06 90.46
  L 78.45 97.19
  Q 73.70 91.94 68.57 89.91
  Q 55.65 84.82 42.84 89.96
  A 0.26 0.26 0.0 0 1 42.49 89.72
  Q 42.52 78.75 42.50 63.85
  Q 42.50 63.38 42.74 63.26
  Q 42.99 63.13 43.44 63.16
  Z"
/>
<path fill="#52595f" d="
  M 137.31 117.50
  L 90.17 90.27
  L 136.52 63.28
  L 136.80 63.33
  A 0.67 0.66 4.6 0 1 137.36 63.98
  L 137.31 117.50
  Z"
/>
<path fill="#373b3f" d="
  M 90.06 90.46
  Q 90.12 90.36 90.17 90.27
  L 137.31 117.50
  L 137.41 136.40
  A 0.26 0.26 0.0 0 1 137.15 136.66
  L 80.15 136.66
  A 0.43 0.43 0.0 0 1 79.73 136.12
  Q 80.24 134.14 80.68 132.05
  Q 82.80 121.90 74.46 116.30
  C 69.19 112.76 62.41 111.72 56.19 109.96
  L 66.06 104.29
  L 78.45 97.19
  L 90.06 90.46
  Z"
/>
<path fill="#1cc29f" d="
  M 66.06 104.29
  L 56.19 109.96
  C 53.62 109.40 49.48 107.99 48.91 104.85
  C 48.39 101.97 50.64 100.47 53.32 100.11
  Q 60.27 99.18 66.06 104.29
  Z"
/>
<path fill="#1cc29f" d="
  M 42.47 119.63
  A 0.23 0.23 0.0 0 1 42.78 119.42
  Q 49.96 122.22 58.59 124.15
  C 61.04 124.70 65.81 126.42 65.88 129.58
  Q 65.96 133.39 61.96 134.27
  Q 50.30 136.86 42.92 126.90
  A 2.25 2.25 0.0 0 1 42.47 125.55
  L 42.47 119.63
  Z"
/>
<path fill="#373b3f" d="
  M 35.98 121.67
  L 36.00 143.04
  A 0.38 0.37 0.0 0 0 36.38 143.41
  L 143.50 143.41
  A 0.45 0.45 0.0 0 0 143.95 142.96
  L 143.92 121.73
  L 180.00 142.44
  L 180.00 180.00
  L 0.00 180.00
  L 0.00 142.41
  L 35.98 121.67
  Z"
/>
</svg>