<?xml version="1.0" encoding="UTF-8" standalone="no"?>
<!DOCTYPE svg PUBLIC "-//W3C//DTD SVG 1.1//EN" "http://www.w3.org/Graphics/SVG/1.1/DTD/svg11.dtd">
<svg xmlns="http://www.w3.org/2000/svg" version="1.1" viewBox="0.00 0.00 128.00 128.00" width="128" height="128">
<g stroke-width="2.00" fill="none" stroke-linecap="butt">
<path stroke="#006d30" vector-effect="non-scaling-stroke" d="
  M 65.55 61.62
  A 7.53 7.53 0.0 0 0 58.02 54.09
  A 7.53 7.53 0.0 0 0 50.49 61.62
  A 7.53 7.53 0.0 0 0 58.02 69.15
  A 7.53 7.53 0.0 0 0 65.55 61.62"
/>
<path stroke="#006d30" vector-effect="non-scaling-stroke" d="
  M 88.56 61.61
  A 7.56 7.56 0.0 0 0 81.00 54.05
  A 7.56 7.56 0.0 0 0 73.44 61.61
  A 7.56 7.56 0.0 0 0 81.00 69.17
  A 7.56 7.56 0.0 0 0 88.56 61.61"
/>
<path stroke="#006d30" vector-effect="non-scaling-stroke" d="
  M 111.56 61.62
  A 7.55 7.55 0.0 0 0 104.01 54.07
  A 7.55 7.55 0.0 0 0 96.46 61.62
  A 7.55 7.55 0.0 0 0 104.01 69.17
  A 7.55 7.55 0.0 0 0 111.56 61.62"
/>
<path stroke="#006d30" vector-effect="non-scaling-stroke" d="
  M 33.86 82.73
  Q 39.90 76.90 40.65 68.43
  C 40.99 64.73 39.60 62.39 35.88 62.15
  Q 34.77 62.07 32.77 63.89
  C 31.23 65.29 31.51 68.61 30.81 70.81
  Q 29.19 75.86 24.81 77.98
  A 3.70 3.09 21.0 0 1 24.02 78.25
  C 20.53 78.96 16.53 79.43 16.44 83.44
  C 16.40 85.68 17.75 86.93 19.49 88.04
  C 24.27 91.10 27.97 91.76 34.56 92.77
  C 38.68 93.40 43.33 92.55 47.17 91.40
  Q 51.94 89.98 54.71 86.14
  A 2.54 2.48 69.6 0 0 55.10 85.26
  C 55.98 81.07 52.15 78.07 48.35 80.42
  Q 41.65 84.58 34.08 83.42
  A 0.41 0.40 27.5 0 1 33.86 82.73"
/>
</g>
<path fill="#00da60" d="
  M 128.00 0.00
  L 128.00 128.00
  L 0.00 128.00
  L 0.00 0.00
  L 128.00 0.00
  Z
  M 65.55 61.62
  A 7.53 7.53 0.0 0 0 58.02 54.09
  A 7.53 7.53 0.0 0 0 50.49 61.62
  A 7.53 7.53 0.0 0 0 58.02 69.15
  A 7.53 7.53 0.0 0 0 65.55 61.62
  Z
  M 88.56 61.61
  A 7.56 7.56 0.0 0 0 81.00 54.05
  A 7.56 7.56 0.0 0 0 73.44 61.61
  A 7.56 7.56 0.0 0 0 81.00 69.17
  A 7.56 7.56 0.0 0 0 88.56 61.61
  Z
  M 111.56 61.62
  A 7.55 7.55 0.0 0 0 104.01 54.07
  A 7.55 7.55 0.0 0 0 96.46 61.62
  A 7.55 7.55 0.0 0 0 104.01 69.17
  A 7.55 7.55 0.0 0 0 111.56 61.62
  Z
  M 33.86 82.73
  Q 39.90 76.90 40.65 68.43
  C 40.99 64.73 39.60 62.39 35.88 62.15
  Q 34.77 62.07 32.77 63.89
  C 31.23 65.29 31.51 68.61 30.81 70.81
  Q 29.19 75.86 24.81 77.98
  A 3.70 3.09 21.0 0 1 24.02 78.25
  C 20.53 78.96 16.53 79.43 16.44 83.44
  C 16.40 85.68 17.75 86.93 19.49 88.04
  C 24.27 91.10 27.97 91.76 34.56 92.77
  C 38.68 93.40 43.33 92.55 47.17 91.40
  Q 51.94 89.98 54.71 86.14
  A 2.54 2.48 69.6 0 0 55.10 85.26
  C 55.98 81.07 52.15 78.07 48.35 80.42
  Q 41.65 84.58 34.08 83.42
  A 0.41 0.40 27.5 0 1 33.86 82.73
  Z"
/>
<circle fill="#000000" cx="58.02" cy="61.62" r="7.53"/>
<circle fill="#000000" cx="81.00" cy="61.61" r="7.56"/>
<circle fill="#000000" cx="104.01" cy="61.62" r="7.55"/>
<path fill="#000000" d="
  M 34.08 83.42
  Q 41.65 84.58 48.35 80.42
  C 52.15 78.07 55.98 81.07 55.10 85.26
  A 2.54 2.48 69.6 0 1 54.71 86.14
  Q 51.94 89.98 47.17 91.40
  C 43.33 92.55 38.68 93.40 34.56 92.77
  C 27.97 91.76 24.27 91.10 19.49 88.04
  C 17.75 86.93 16.40 85.68 16.44 83.44
  C 16.53 79.43 20.53 78.96 24.02 78.25
  A 3.70 3.09 21.0 0 0 24.81 77.98
  Q 29.19 75.86 30.81 70.81
  C 31.51 68.61 31.23 65.29 32.77 63.89
  Q 34.77 62.07 35.88 62.15
  C 39.60 62.39 40.99 64.73 40.65 68.43
  Q 39.90 76.90 33.86 82.73
  A 0.41 0.40 27.5 0 0 34.08 83.42
  Z"
/>
</svg>