<?xml version="1.0" encoding="UTF-8" standalone="no"?>
<!DOCTYPE svg PUBLIC "-//W3C//DTD SVG 1.1//EN" "http://www.w3.org/Graphics/SVG/1.1/DTD/svg11.dtd">
<svg xmlns="http://www.w3.org/2000/svg" version="1.1" viewBox="0.00 0.00 256.00 256.00" width="128" height="128">
<g stroke-width="2.00" fill="none" stroke-linecap="butt">
<path stroke="#f5841d" vector-effect="non-scaling-stroke" d="
  M 152.90 5.15
  Q 138.09 21.69 126.13 33.70
  Q 116.21 43.66 103.10 52.38"
/>
<path stroke="#fbc78e" vector-effect="non-scaling-stroke" d="
  M 103.10 52.38
  Q 97.19 48.69 90.99 45.01
  C 85.83 41.94 79.44 41.44 74.59 45.35
  Q 69.30 49.62 69.31 58.50
  Q 69.34 119.57 69.28 180.48"
/>
<path stroke="#f3751f" vector-effect="non-scaling-stroke" d="
  M 69.28 180.48
  L 34.99 213.12"
/>
<path stroke="#f26b20" vector-effect="non-scaling-stroke" d="
  M 232.04 56.62
  C 217.02 72.86 201.98 87.84 182.56 98.39"
/>
<path stroke="#f9bc8f" vector-effect="non-scaling-stroke" d="
  M 182.56 98.39
  Q 172.98 92.05 162.51 86.75
  C 160.60 85.78 159.60 84.94 159.95 82.74
  C 161.68 72.01 164.29 62.18 160.37 53.21
  Q 158.81 49.66 155.12 51.07
  Q 152.63 52.01 151.04 53.55
  C 141.29 62.93 137.30 72.95 129.20 89.42
  Q 123.87 100.24 119.81 112.30
  Q 118.33 116.71 118.10 120.51
  Q 117.94 123.21 120.76 122.83
  Q 123.80 122.41 126.37 121.60
  Q 137.67 118.03 153.87 111.11
  C 158.87 108.97 165.22 109.18 166.80 115.43
  C 167.84 119.57 167.32 123.46 166.81 127.76
  Q 165.51 138.73 161.15 148.62"
/>
<path stroke="#f26b20" vector-effect="non-scaling-stroke" d="
  M 161.15 148.62
  Q 145.10 158.79 131.20 171.85"
/>
<path stroke="#f9bc8f" vector-effect="non-scaling-stroke" d="
  M 131.20 171.85
  C 132.82 168.11 136.73 158.82 135.54 155.16
  A 2.49 2.48 -16.3 0 0 132.55 153.53
  Q 125.93 155.28 119.23 158.26
  Q 107.98 163.26 98.30 166.78
  Q 93.32 168.59 89.33 165.99
  C 87.20 164.60 87.09 163.41 86.74 161.00
  C 85.95 155.71 86.75 150.38 87.84 144.18
  Q 90.50 129.09 97.26 117.00
  C 102.08 108.37 105.17 100.92 110.35 93.90
  Q 120.37 80.33 125.12 74.62
  Q 126.75 72.66 128.94 68.84
  A 1.72 1.72 0.0 0 0 128.29 66.49
  L 103.10 52.38"
/>
<path stroke="#f8ae90" vector-effect="non-scaling-stroke" d="
  M 131.20 171.85
  Q 128.57 177.37 121.02 195.02
  Q 115.85 207.09 105.42 219.95
  C 102.34 223.74 98.42 228.49 93.21 225.06
  A 1.99 1.98 -82.9 0 1 92.40 224.01
  C 90.51 218.42 90.94 212.80 91.33 206.01
  Q 91.36 205.61 91.20 205.14
  A 0.99 0.98 -16.4 0 0 90.03 204.51
  Q 85.15 205.73 83.21 206.07
  Q 81.54 206.37 77.62 204.86
  Q 69.61 201.79 69.38 193.24
  Q 69.20 186.96 69.28 180.48"
/>
<path stroke="#f8ae90" vector-effect="non-scaling-stroke" d="
  M 182.56 98.39
  C 190.51 102.91 198.38 106.79 206.02 111.83
  C 210.29 114.66 213.46 118.33 214.41 123.36
  Q 214.91 126.02 213.17 130.25
  C 211.77 133.66 208.29 135.36 204.07 138.05
  Q 194.35 144.23 181.90 151.18
  C 171.05 157.24 165.56 160.77 156.06 166.57
  Q 155.40 166.98 154.26 167.21
  A 0.76 0.76 0.0 0 1 153.41 166.16
  L 161.15 148.62"
/>
</g>
<path fill="#f68e1c" d="
  M 152.90 5.15
  Q 138.09 21.69 126.13 33.70
  Q 116.21 43.66 103.10 52.38
  Q 97.19 48.69 90.99 45.01
  C 85.83 41.94 79.44 41.44 74.59 45.35
  Q 69.30 49.62 69.31 58.50
  Q 69.34 119.57 69.28 180.48
  L 34.99 213.12
  Q 28.36 206.23 24.19 199.56
  Q 17.21 188.38 13.56 181.19
  C 8.73 171.66 7.25 162.79 4.17 149.37
  C 0.84 134.89 0.80 122.55 3.99 107.75
  C 5.76 99.56 7.54 91.04 10.29 83.08
  Q 11.53 79.47 12.13 78.29
  Q 20.45 61.82 27.63 52.13
  Q 34.41 42.98 46.19 32.46
  Q 52.43 26.89 61.78 21.20
  Q 71.51 15.29 78.64 11.92
  Q 82.31 10.19 89.98 8.26
  C 100.65 5.58 111.62 3.05 120.87 2.14
  Q 136.57 0.60 152.90 5.15
  Z"
/>
<path fill="#f3791e" d="
  M 152.90 5.15
  C 164.32 7.51 174.46 9.66 184.35 15.16
  Q 191.99 19.41 199.35 24.17
  Q 213.63 33.41 226.13 48.62
  Q 230.00 53.34 232.04 56.62
  C 217.02 72.86 201.98 87.84 182.56 98.39
  Q 172.98 92.05 162.51 86.75
  C 160.60 85.78 159.60 84.94 159.95 82.74
  C 161.68 72.01 164.29 62.18 160.37 53.21
  Q 158.81 49.66 155.12 51.07
  Q 152.63 52.01 151.04 53.55
  C 141.29 62.93 137.30 72.95 129.20 89.42
  Q 123.87 100.24 119.81 112.30
  Q 118.33 116.71 118.10 120.51
  Q 117.94 123.21 120.76 122.83
  Q 123.80 122.41 126.37 121.60
  Q 137.67 118.03 153.87 111.11
  C 158.87 108.97 165.22 109.18 166.80 115.43
  C 167.84 119.57 167.32 123.46 166.81 127.76
  Q 165.51 138.73 161.15 148.62
  Q 145.10 158.79 131.20 171.85
  C 132.82 168.11 136.73 158.82 135.54 155.16
  A 2.49 2.48 -16.3 0 0 132.55 153.53
  Q 125.93 155.28 119.23 158.26
  Q 107.98 163.26 98.30 166.78
  Q 93.32 168.59 89.33 165.99
  C 87.20 164.60 87.09 163.41 86.74 161.00
  C 85.95 155.71 86.75 150.38 87.84 144.18
  Q 90.50 129.09 97.26 117.00
  C 102.08 108.37 105.17 100.92 110.35 93.90
  Q 120.37 80.33 125.12 74.62
  Q 126.75 72.66 128.94 68.84
  A 1.72 1.72 0.0 0 0 128.29 66.49
  L 103.10 52.38
  Q 116.21 43.66 126.13 33.70
  Q 138.09 21.69 152.90 5.15
  Z"
/>
<path fill="#ffffff" d="
  M 103.10 52.38
  L 128.29 66.49
  A 1.72 1.72 0.0 0 1 128.94 68.84
  Q 126.75 72.66 125.12 74.62
  Q 120.37 80.33 110.35 93.90
  C 105.17 100.92 102.08 108.37 97.26 117.00
  Q 90.50 129.09 87.84 144.18
  C 86.75 150.38 85.95 155.71 86.74 161.00
  C 87.09 163.41 87.20 164.60 89.33 165.99
  Q 93.32 168.59 98.30 166.78
  Q 107.98 163.26 119.23 158.26
  Q 125.93 155.28 132.55 153.53
  A 2.49 2.48 -16.3 0 1 135.54 155.16
  C 136.73 158.82 132.82 168.11 131.20 171.85
  Q 128.57 177.37 121.02 195.02
  Q 115.85 207.09 105.42 219.95
  C 102.34 223.74 98.42 228.49 93.21 225.06
  A 1.99 1.98 -82.9 0 1 92.40 224.01
  C 90.51 218.42 90.94 212.80 91.33 206.01
  Q 91.36 205.61 91.20 205.14
  A 0.99 0.98 -16.4 0 0 90.03 204.51
  Q 85.15 205.73 83.21 206.07
  Q 81.54 206.37 77.62 204.86
  Q 69.61 201.79 69.38 193.24
  Q 69.20 186.96 69.28 180.48
  Q 69.34 119.57 69.31 58.50
  Q 69.30 49.62 74.59 45.35
  C 79.44 41.44 85.83 41.94 90.99 45.01
  Q 97.19 48.69 103.10 52.38
  Z"
/>
<path fill="#ffffff" d="
  M 182.56 98.39
  C 190.51 102.91 198.38 106.79 206.02 111.83
  C 210.29 114.66 213.46 118.33 214.41 123.36
  Q 214.91 126.02 213.17 130.25
  C 211.77 133.66 208.29 135.36 204.07 138.05
  Q 194.35 144.23 181.90 151.18
  C 171.05 157.24 165.56 160.77 156.06 166.57
  Q 155.40 166.98 154.26 167.21
  A 0.76 0.76 0.0 0 1 153.41 166.16
  L 161.15 148.62
  Q 165.51 138.73 166.81 127.76
  C 167.32 123.46 167.84 119.57 166.80 115.43
  C 165.22 109.18 158.87 108.97 153.87 111.11
  Q 137.67 118.03 126.37 121.60
  Q 123.80 122.41 120.76 122.83
  Q 117.94 123.21 118.10 120.51
  Q 118.33 116.71 119.81 112.30
  Q 123.87 100.24 129.20 89.42
  C 137.30 72.95 141.29 62.93 151.04 53.55
  Q 152.63 52.01 155.12 51.07
  Q 158.81 49.66 160.37 53.21
  C 164.29 62.18 161.68 72.01 159.95 82.74
  C 159.60 84.94 160.60 85.78 162.51 86.75
  Q 172.98 92.05 182.56 98.39
  Z"
/>
<path fill="#f05c21" d="
  M 34.99 213.12
  L 69.28 180.48
  Q 69.20 186.96 69.38 193.24
  Q 69.61 201.79 77.62 204.86
  Q 81.54 206.37 83.21 206.07
  Q 85.15 205.73 90.03 204.51
  A 0.99 0.98 -16.4 0 1 91.20 205.14
  Q 91.36 205.61 91.33 206.01
  C 90.94 212.80 90.51 218.42 92.40 224.01
  A 1.99 1.98 -82.9 0 0 93.21 225.06
  C 98.42 228.49 102.34 223.74 105.42 219.95
  Q 115.85 207.09 121.02 195.02
  Q 128.57 177.37 131.20 171.85
  Q 145.10 158.79 161.15 148.62
  L 153.41 166.16
  A 0.76 0.76 0.0 0 0 154.26 167.21
  Q 155.40 166.98 156.06 166.57
  C 165.56 160.77 171.05 157.24 181.90 151.18
  Q 194.35 144.23 204.07 138.05
  C 208.29 135.36 211.77 133.66 213.17 130.25
  Q 214.91 126.02 214.41 123.36
  C 213.46 118.33 210.29 114.66 206.02 111.83
  C 198.38 106.79 190.51 102.91 182.56 98.39
  C 201.98 87.84 217.02 72.86 232.04 56.62
  C 240.16 69.09 246.15 79.92 249.42 93.78
  C 251.91 104.33 254.06 116.10 254.11 126.53
  C 254.17 139.94 251.88 152.67 248.76 165.51
  Q 246.16 176.22 240.28 186.27
  C 235.38 194.66 231.60 201.73 225.68 208.55
  Q 216.29 219.36 208.30 225.82
  Q 195.40 236.25 178.41 244.37
  Q 173.57 246.69 165.88 248.60
  Q 149.85 252.57 135.27 254.05
  C 125.74 255.02 114.94 253.58 104.98 251.73
  C 92.91 249.47 82.71 247.14 72.22 241.32
  Q 58.21 233.55 51.48 228.54
  Q 44.46 223.30 34.99 213.12
  Z"
/>
</svg>