<?xml version="1.0" encoding="UTF-8" standalone="no"?>
<!DOCTYPE svg PUBLIC "-//W3C//DTD SVG 1.1//EN" "http://www.w3.org/Graphics/SVG/1.1/DTD/svg11.dtd">
<svg xmlns="http://www.w3.org/2000/svg" version="1.1" viewBox="0.00 0.00 180.00 180.00" width="128" height="128">
<g stroke-width="2.00" fill="none" stroke-linecap="butt">
<path stroke="#e6a2b3" vector-effect="non-scaling-stroke" d="
  M 125.82 81.87
  A 0.25 0.24 -15.0 0 0 125.60 82.24
  L 139.49 106.30
  A 0.26 0.26 0.0 0 0 139.94 106.30
  L 153.72 82.43
  A 0.37 0.37 0.0 0 0 153.40 81.87
  L 146.92 81.87
  A 0.63 0.62 86.3 0 1 146.30 81.32
  Q 143.14 57.35 125.09 43.65
  Q 112.04 33.74 95.26 32.86
  C 65.02 31.28 40.11 55.09 39.03 85.01
  Q 38.86 89.63 38.97 103.66
  A 0.61 0.61 0.0 0 0 39.58 104.26
  L 50.86 104.26
  A 0.63 0.62 90.0 0 0 51.48 103.63
  Q 51.50 93.59 51.48 90.11
  Q 51.45 81.66 52.70 76.67
  C 60.38 46.02 98.23 34.72 121.21 56.71
  Q 131.51 66.56 133.69 81.48
  A 0.35 0.33 86.2 0 1 133.36 81.87
  L 125.82 81.87"
/>
<path stroke="#8a92a1" vector-effect="non-scaling-stroke" d="
  M 113.36 146.58
  L 102.30 104.20
  A 0.77 0.77 0.0 0 1 102.63 103.36
  Q 110.52 98.24 112.01 89.98
  C 114.31 77.24 104.33 65.79 91.26 66.68
  C 78.47 67.56 69.77 80.41 74.09 92.70
  Q 76.91 100.71 84.97 104.46
  A 0.64 0.64 0.0 0 1 85.32 105.22
  L 73.76 146.80
  A 0.34 0.34 0.0 0 0 74.09 147.22
  L 112.86 147.22
  A 0.52 0.51 -7.3 0 0 113.36 146.58"
/>
</g>
<path fill="#ffffff" d="
  M 180.00 0.00
  L 180.00 180.00
  L 0.00 180.00
  L 0.00 0.00
  L 180.00 0.00
  Z
  M 125.82 81.87
  A 0.25 0.24 -15.0 0 0 125.60 82.24
  L 139.49 106.30
  A 0.26 0.26 0.0 0 0 139.94 106.30
  L 153.72 82.43
  A 0.37 0.37 0.0 0 0 153.40 81.87
  L 146.92 81.87
  A 0.63 0.62 86.3 0 1 146.30 81.32
  Q 143.14 57.35 125.09 43.65
  Q 112.04 33.74 95.26 32.86
  C 65.02 31.28 40.11 55.09 39.03 85.01
  Q 38.86 89.63 38.97 103.66
  A 0.61 0.61 0.0 0 0 39.58 104.26
  L 50.86 104.26
  A 0.63 0.62 90.0 0 0 51.48 103.63
  Q 51.50 93.59 51.48 90.11
  Q 51.45 81.66 52.70 76.67
  C 60.38 46.02 98.23 34.72 121.21 56.71
  Q 131.51 66.56 133.69 81.48
  A 0.35 0.33 86.2 0 1 133.36 81.87
  L 125.82 81.87
  Z
  M 113.36 146.58
  L 102.30 104.20
  A 0.77 0.77 0.0 0 1 102.63 103.36
  Q 110.52 98.24 112.01 89.98
  C 114.31 77.24 104.33 65.79 91.26 66.68
  C 78.47 67.56 69.77 80.41 74.09 92.70
  Q 76.91 100.71 84.97 104.46
  A 0.64 0.64 0.0 0 1 85.32 105.22
  L 73.76 146.80
  A 0.34 0.34 0.0 0 0 74.09 147.22
  L 112.86 147.22
  A 0.52 0.51 -7.3 0 0 113.36 146.58
  Z"
/>
<path fill="#cc4466" d="
  M 125.82 81.87
  L 133.36 81.87
  A 0.35 0.33 86.2 0 0 133.69 81.48
  Q 131.51 66.56 121.21 56.71
  C 98.23 34.72 60.38 46.02 52.70 76.67
  Q 51.45 81.66 51.48 90.11
  Q 51.50 93.59 51.48 103.63
  A 0.63 0.62 -90.0 0 1 50.86 104.26
  L 39.58 104.26
  A 0.61 0.61 0.0 0 1 38.97 103.66
  Q 38.86 89.63 39.03 85.01
  C 40.11 55.09 65.02 31.28 95.26 32.86
  Q 112.04 33.74 125.09 43.65
  Q 143.14 57.35 146.30 81.32
  A 0.63 0.62 86.3 0 0 146.92 81.87
  L 153.40 81.87
  A 0.37 0.37 0.0 0 1 153.72 82.43
  L 139.94 106.30
  A 0.26 0.26 0.0 0 1 139.49 106.30
  L 125.60 82.24
  A 0.25 0.24 -15.0 0 1 125.82 81.87
  Z"
/>
<path fill="#142442" d="
  M 112.86 147.22
  L 74.09 147.22
  A 0.34 0.34 0.0 0 1 73.76 146.80
  L 85.32 105.22
  A 0.64 0.64 0.0 0 0 84.97 104.46
  Q 76.91 100.71 74.09 92.70
  C 69.77 80.41 78.47 67.56 91.26 66.68
  C 104.33 65.79 114.31 77.24 112.01 89.98
  Q 110.52 98.24 102.63 103.36
  A 0.77 0.77 0.0 0 0 102.30 104.20
  L 113.36 146.58
  A 0.52 0.51 -7.3 0 1 112.86 147.22
  Z"
/>
</svg>