<?xml version="1.0" encoding="UTF-8" standalone="no"?>
<!DOCTYPE svg PUBLIC "-//W3C//DTD SVG 1.1//EN" "http://www.w3.org/Graphics/SVG/1.1/DTD/svg11.dtd">
<svg xmlns="http://www.w3.org/2000/svg" version="1.1" viewBox="0.00 0.00 256.00 256.00" width="128" height="128">
<g stroke-width="2.00" fill="none" stroke-linecap="butt">
<path stroke="#281faa" vector-effect="non-scaling-stroke" d="
  M 256.00 54.03
  Q 239.68 56.80 223.87 61.50"
/>
<path stroke="#8f99d9" vector-effect="non-scaling-stroke" d="
  M 223.87 61.50
  Q 224.28 59.98 224.05 58.42
  A 1.35 1.34 12.7 0 0 223.47 57.51
  Q 222.63 56.94 221.18 56.99
  A 0.96 0.94 70.9 0 1 220.37 56.59
  Q 218.38 53.75 218.57 49.92
  A 1.22 1.22 0.0 0 1 219.27 48.88
  Q 220.79 48.15 222.21 47.76
  A 2.26 2.03 -17.4 0 0 223.81 45.06
  Q 223.55 44.31 222.36 43.87
  Q 220.11 43.04 217.95 42.54
  A 1.55 1.55 0.0 0 1 216.86 40.47
  Q 218.56 36.12 219.34 33.63
  Q 219.50 33.12 220.30 32.55
  C 221.94 31.38 221.95 29.52 219.93 28.65
  C 218.17 27.89 213.64 27.02 214.88 24.03
  A 1.21 1.20 -7.8 0 1 215.24 23.56
  L 218.94 20.84
  A 2.57 2.56 -34.2 0 0 219.60 17.42
  Q 219.05 16.36 217.43 14.96
  A 1.84 1.81 -20.6 0 0 216.48 14.54
  C 211.23 13.85 209.61 16.16 206.66 19.61
  A 1.29 1.28 47.2 0 1 204.65 19.53
  L 201.24 14.84
  A 1.56 1.56 0.0 0 0 198.51 15.23
  L 196.90 19.74
  A 1.42 1.41 -80.0 0 1 195.57 20.68
  L 188.73 20.68
  A 1.64 1.63 84.1 0 1 187.13 19.37
  Q 186.55 16.48 184.56 16.36
  A 1.68 1.67 12.2 0 0 182.90 17.42
  C 182.01 19.66 182.22 24.47 178.05 22.44
  Q 173.30 20.11 168.50 19.13
  A 1.03 1.03 0.0 0 0 167.39 19.65
  L 164.99 24.19
  A 1.98 1.98 0.0 0 1 161.53 24.26
  L 158.54 19.09
  A 0.95 0.95 0.0 0 0 156.94 19.02
  Q 155.00 21.84 154.46 24.74
  A 1.46 1.46 0.0 0 1 152.47 25.82
  Q 149.78 24.71 146.78 25.45
  A 0.68 0.67 78.5 0 1 145.96 24.90
  Q 145.57 22.49 142.02 21.33
  A 1.40 1.39 14.3 0 0 140.21 22.40
  L 139.56 25.91
  A 1.39 1.36 -18.8 0 1 139.19 26.64
  Q 137.21 28.68 134.52 27.35
  A 1.50 1.49 2.7 0 1 133.78 26.54
  Q 133.35 25.44 132.66 23.12
  A 1.60 1.52 -19.7 0 0 130.53 22.18
  Q 129.26 22.70 128.56 26.15
  A 1.64 1.64 0.0 0 1 127.25 27.44
  L 120.73 28.61
  A 2.86 2.85 69.7 0 1 117.75 27.23
  L 115.95 24.11
  A 0.92 0.92 0.0 0 0 114.28 24.26
  L 112.13 30.30
  A 1.02 0.99 89.0 0 1 111.59 30.88
  Q 109.95 31.61 107.40 30.48
  A 0.68 0.67 -5.8 0 1 107.15 30.28
  L 105.35 27.80
  A 1.34 1.34 0.0 0 0 103.64 27.40
  Q 101.12 28.72 99.08 30.34
  C 97.06 31.93 90.90 34.61 89.94 30.76
  Q 89.45 28.78 88.52 27.61
  A 0.65 0.64 -54.5 0 0 87.41 27.80
  L 85.71 32.55
  A 1.90 1.89 -80.1 0 1 83.93 33.81
  L 77.35 33.81
  A 3.30 3.29 71.8 0 1 74.69 32.46
  L 73.38 30.65
  A 1.23 1.23 0.0 0 0 71.19 31.06
  L 70.00 35.52
  A 1.49 1.49 0.0 0 1 69.42 36.35
  C 68.18 37.22 65.45 37.45 64.40 35.88
  Q 63.58 34.65 63.27 34.05
  A 1.37 1.34 83.0 0 0 62.42 33.37
  Q 60.74 32.90 58.39 33.38
  Q 57.61 33.54 56.75 35.41
  Q 55.37 38.43 50.51 38.51
  A 1.90 1.89 -9.6 0 1 48.68 37.22
  Q 47.90 34.91 47.50 34.12
  A 2.16 2.01 62.5 0 0 44.67 33.11
  Q 44.42 33.24 44.14 33.90
  Q 43.51 35.40 42.74 38.95
  A 1.52 1.51 -74.0 0 1 40.75 40.06
  L 32.98 37.29
  A 1.61 1.61 0.0 0 1 32.54 37.04
  L 30.68 35.47
  A 1.15 1.15 0.0 0 0 28.85 35.99
  L 27.09 41.32
  A 0.91 0.71 82.7 0 1 26.92 41.61
  Q 25.20 43.49 23.04 41.82
  A 1.54 1.50 6.3 0 1 22.67 41.37
  L 20.91 37.77
  A 1.93 1.93 0.0 0 0 18.28 36.91
  Q 14.12 39.08 14.69 44.02
  C 15.06 47.30 17.82 49.17 20.64 50.99
  A 0.45 0.45 0.0 0 1 20.47 51.81
  L 19.21 52.04
  A 0.96 0.92 16.8 0 0 18.70 52.30
  L 14.75 56.25
  A 1.56 1.55 -52.5 0 0 15.07 58.69
  Q 16.87 59.75 19.16 59.77
  A 1.73 1.73 0.0 0 1 20.87 61.50
  L 20.87 68.62
  A 1.29 1.28 88.4 0 1 19.66 69.91
  Q 16.45 70.12 16.04 72.89
  A 0.88 0.88 0.0 0 0 16.67 73.87
  L 21.69 75.33
  A 0.98 0.96 -14.0 0 1 22.15 75.60
  Q 23.47 76.95 22.45 78.94
  Q 20.02 83.69 18.68 87.42
  A 1.67 1.66 27.3 0 0 19.30 89.34
  Q 20.73 90.33 21.91 90.35
  C 24.27 90.40 25.40 92.36 24.95 94.24
  A 1.20 1.18 -11.9 0 1 24.50 94.92
  L 19.21 98.77
  A 1.27 1.27 0.0 0 0 19.53 100.99
  L 24.87 102.89
  A 1.21 1.21 0.0 0 1 25.67 104.03
  L 25.67 109.99
  A 0.72 0.72 0.0 0 1 25.19 110.67
  Q 22.26 111.72 21.29 114.84
  A 1.60 1.59 13.9 0 0 22.53 116.88
  L 25.46 117.42
  A 2.66 2.65 0.5 0 1 27.59 119.58
  C 28.36 124.14 24.58 123.07 22.56 124.93
  A 1.64 1.64 0.0 0 0 23.11 127.68
  L 26.63 128.94
  A 1.49 1.49 0.0 0 1 27.60 130.09
  C 28.16 133.39 29.27 137.40 26.45 139.59"
/>
<path stroke="#281faa" vector-effect="non-scaling-stroke" d="
  M 26.45 139.59
  C 21.37 127.77 11.01 127.58 0.00 128.02"
/>
<path stroke="#9886d1" vector-effect="non-scaling-stroke" d="
  M 223.87 61.50
  Q 223.19 63.63 220.67 64.55
  A 1.22 1.20 87.0 0 0 219.89 65.43
  C 219.48 67.29 219.91 70.09 222.35 70.41
  Q 223.23 70.53 225.28 71.05
  A 1.51 1.50 -56.4 0 1 225.81 73.71
  C 222.37 76.33 222.89 80.02 222.91 83.46
  A 2.25 2.24 9.7 0 0 224.40 85.56
  L 228.73 87.10
  A 0.73 0.72 39.9 0 1 228.85 88.41
  L 224.75 90.78
  A 0.55 0.54 80.9 0 0 224.50 91.13
  C 223.58 95.78 225.44 98.21 228.98 101.23
  A 2.04 1.97 7.7 0 1 229.51 101.90
  Q 230.41 103.74 229.44 105.42
  A 1.97 1.96 -1.4 0 1 228.75 106.14
  C 226.58 107.50 225.10 107.78 225.83 110.91
  A 1.11 1.11 0.0 0 0 226.46 111.66
  L 233.19 114.58
  A 0.45 0.45 0.0 0 1 233.27 115.36
  L 229.41 118.18
  A 2.41 2.39 -23.2 0 0 228.45 120.55
  L 229.55 126.64
  A 2.48 2.47 5.4 0 0 231.09 128.50
  Q 231.87 128.80 233.77 129.44
  A 1.50 1.48 18.6 0 1 234.72 131.31
  Q 234.53 131.89 233.77 132.29
  C 231.23 133.61 227.57 134.52 229.63 138.52
  A 1.34 1.32 -4.4 0 0 230.40 139.17
  Q 232.35 139.80 233.29 140.00
  Q 235.17 140.39 235.40 141.02
  C 236.15 143.02 233.75 145.32 232.16 146.39
  A 1.06 1.05 -21.0 0 0 231.70 147.41
  Q 232.06 149.97 231.37 152.79
  A 1.26 1.25 -73.3 0 0 232.16 154.27
  L 237.46 156.16
  A 1.17 1.17 0.0 0 1 237.78 158.19
  C 236.39 159.26 233.27 160.84 232.72 162.19
  C 232.04 163.84 232.55 166.90 234.98 167.04
  Q 238.11 167.22 237.66 169.87
  C 237.01 173.62 233.86 176.69 234.34 180.48
  A 1.25 1.25 0.0 0 0 235.15 181.49
  L 239.50 183.04
  A 1.47 1.47 0.0 0 1 240.45 184.69
  Q 239.98 187.12 237.26 187.53
  A 1.71 1.70 -9.7 0 0 235.84 189.52
  L 236.91 195.49
  A 1.86 1.85 -85.3 0 0 238.11 196.91
  L 241.52 198.12
  A 1.48 1.47 32.4 0 1 242.07 200.55
  L 237.52 205.10
  A 1.23 1.22 -48.5 0 0 237.63 206.93
  Q 239.65 208.51 240.99 210.08
  C 243.99 213.58 243.18 218.00 238.87 219.92
  A 1.60 1.59 55.3 0 1 237.09 219.59
  Q 235.13 217.63 233.94 215.77
  C 233.22 214.64 232.35 214.01 231.07 214.55
  C 228.74 215.53 229.98 220.71 226.84 221.45
  Q 226.03 221.64 224.19 220.38
  Q 220.65 217.96 215.68 217.09
  A 1.14 1.14 0.0 0 0 214.38 217.96
  C 213.94 219.85 213.24 223.22 211.81 223.97
  A 1.74 1.49 66.2 0 1 209.64 222.93
  Q 208.64 220.34 208.50 219.87
  A 1.80 1.80 0.0 0 0 206.92 218.59
  Q 201.67 218.15 200.17 222.35
  A 1.68 1.66 0.3 0 1 199.12 223.38
  C 196.07 224.43 194.49 223.97 192.67 221.32
  Q 191.30 219.34 188.05 220.34
  A 1.87 1.86 86.0 0 0 186.75 221.84
  Q 186.44 223.90 185.12 225.93
  A 1.01 1.00 -49.6 0 1 183.54 226.06
  Q 181.00 223.27 176.85 223.36
  C 174.21 223.42 171.84 222.65 170.71 225.93
  Q 170.10 227.69 169.63 228.71
  A 0.66 0.66 0.0 0 1 168.46 228.77
  L 166.75 225.80
  A 2.29 2.27 -15.8 0 0 164.71 224.67
  C 160.16 224.80 157.89 226.67 153.95 229.22
  A 1.79 1.78 -61.8 0 1 152.96 229.52
  Q 151.13 229.51 150.25 228.19
  Q 148.00 224.79 145.09 226.69
  A 1.02 1.02 0.0 0 0 144.69 227.18
  L 142.50 232.73
  A 0.84 0.83 40.7 0 1 141.00 232.84
  L 139.38 230.03
  A 3.11 3.11 0.0 0 0 136.13 228.52
  L 129.92 229.65
  A 2.05 2.03 1.3 0 0 128.29 231.20
  Q 127.88 232.98 127.43 233.92
  A 1.64 1.58 -63.2 0 1 125.23 234.69
  Q 124.80 234.46 124.50 233.75
  Q 124.14 232.90 123.38 230.62
  A 1.89 1.86 -86.5 0 0 122.46 229.56
  Q 120.23 228.43 118.45 229.54
  A 1.40 1.35 -10.0 0 0 117.85 230.37
  Q 117.60 231.37 117.35 232.69
  C 116.28 238.58 111.86 233.39 109.50 232.83
  Q 105.68 231.94 104.83 231.50
  A 1.67 1.67 0.0 0 0 102.43 232.66
  Q 101.94 235.10 99.88 238.11
  A 0.66 0.66 0.0 0 1 98.81 238.13
  C 96.60 235.13 96.11 231.09 91.01 232.98
  A 1.38 1.38 0.0 0 0 90.10 234.20
  Q 90.01 235.83 89.36 237.09
  A 1.94 1.94 0.0 0 1 87.15 238.08
  Q 84.79 237.47 80.57 235.20
  C 75.26 232.34 75.26 235.35 74.09 239.32
  A 1.67 1.66 -71.6 0 1 71.92 240.41
  Q 69.70 239.59 69.12 236.85
  A 1.26 1.26 0.0 0 0 67.67 235.88
  L 61.03 237.08
  A 1.25 1.23 4.5 0 0 60.09 237.87
  L 58.92 241.15
  A 1.61 1.61 0.0 0 1 56.56 241.98
  Q 53.25 239.94 51.65 236.94
  A 0.80 0.80 0.0 0 0 50.23 236.98
  C 47.87 242.06 41.18 245.46 37.41 239.51
  A 2.40 2.40 0.0 0 1 38.03 236.29
  L 41.49 233.77
  A 2.18 2.17 -44.1 0 0 41.55 230.30
  Q 40.28 229.31 37.65 228.67
  Q 35.42 228.13 35.47 226.24
  A 1.43 1.39 67.4 0 1 35.84 225.31
  Q 37.40 223.63 39.55 217.79
  Q 40.33 215.69 39.49 214.86
  A 1.78 1.77 72.6 0 0 38.56 214.37
  Q 36.04 213.92 34.01 212.97
  A 1.83 1.61 22.8 0 1 32.99 210.86
  C 33.49 209.53 35.52 208.95 37.44 208.02
  A 2.01 2.00 74.3 0 0 38.56 206.01
  Q 38.28 203.19 37.18 200.96
  A 0.80 0.80 0.0 0 0 36.36 200.51
  Q 32.70 200.92 32.78 197.32
  C 32.85 194.40 33.56 193.79 36.01 192.43
  Q 38.07 191.29 37.02 188.20
  A 1.94 1.94 0.0 0 0 35.32 186.90
  Q 32.94 186.74 30.44 185.51
  A 1.02 1.01 35.7 0 1 30.17 183.88
  L 33.16 180.88
  A 1.40 1.39 68.0 0 0 33.58 179.88
  L 33.58 173.05
  A 1.94 1.93 1.7 0 0 31.76 171.12
  Q 29.63 170.99 28.39 170.00
  A 1.14 1.13 -40.9 0 1 28.53 168.13
  L 31.61 166.36
  A 0.64 0.64 0.0 0 0 31.85 166.09
  Q 33.48 162.62 31.36 159.05
  Q 30.91 158.29 27.82 155.73
  Q 25.36 153.68 27.68 151.40
  Q 29.11 149.98 30.87 149.47
  A 1.00 0.98 -88.1 0 0 31.54 148.83
  Q 32.28 146.61 30.50 145.31
  A 0.75 0.47 58.3 0 0 30.40 145.26
  L 24.48 143.05
  A 1.04 1.04 0.0 0 1 24.22 141.25
  L 26.45 139.59"
/>
<path stroke="#fedc8e" vector-effect="non-scaling-stroke" d="
  M 30.16 50.11
  A 0.98 0.98 0.0 0 0 29.19 50.90
  Q 28.41 54.86 29.31 59.09
  Q 29.87 61.74 30.12 63.93
  Q 31.15 73.21 32.84 83.88
  C 35.16 98.51 37.14 115.00 39.20 130.59
  C 40.79 142.54 41.36 154.53 42.88 166.21
  C 45.21 184.00 46.72 198.96 49.42 217.78
  Q 49.95 221.46 50.21 226.19
  A 2.13 2.12 -86.1 0 0 51.91 228.15
  C 56.28 229.02 61.67 226.81 66.53 226.43
  Q 72.30 225.98 82.20 224.42
  C 92.14 222.85 107.35 220.80 117.77 219.61
  C 126.60 218.60 136.66 218.14 144.38 216.97
  C 152.36 215.75 158.42 214.75 166.24 214.33
  Q 168.99 214.19 181.52 212.39
  Q 193.20 210.71 227.01 206.27
  A 1.63 1.63 0.0 0 0 228.42 204.80
  C 228.80 200.46 227.22 196.54 226.54 191.76
  C 225.35 183.48 224.90 177.52 223.60 169.11
  Q 220.74 150.68 218.75 130.49
  Q 217.54 118.19 216.97 114.04
  C 215.08 100.35 214.30 87.45 212.09 72.94
  Q 209.07 53.00 206.60 31.14
  A 2.16 2.16 0.0 0 0 204.89 29.26
  C 200.08 28.24 196.69 29.84 192.35 30.33
  Q 173.60 32.44 147.23 36.70
  Q 144.61 37.12 130.25 38.02
  Q 126.58 38.26 124.54 38.69
  C 119.57 39.76 114.52 39.76 110.21 40.37
  C 97.22 42.20 86.94 43.02 73.73 44.97
  Q 60.42 46.92 54.15 47.61
  Q 45.32 48.58 36.10 49.65
  Q 31.92 50.14 30.16 50.11"
/>
<path stroke="#fedc8e" vector-effect="non-scaling-stroke" d="
  M 154.38 88.34
  A 0.93 0.92 -65.7 0 0 154.80 89.47
  C 160.02 92.37 167.79 90.98 171.87 87.45
  Q 176.01 83.85 177.80 76.94
  Q 180.65 65.92 173.58 56.15
  C 169.60 50.65 160.53 47.66 154.10 46.91
  Q 137.38 44.97 122.82 51.83
  C 113.27 56.34 107.15 59.84 101.77 68.78
  Q 98.00 75.06 97.46 77.01
  Q 95.00 85.91 97.13 93.22
  C 100.52 104.81 109.83 113.74 119.33 121.42
  Q 126.30 127.06 132.89 134.79
  C 143.42 147.15 147.83 165.61 140.82 180.92
  C 139.70 183.38 137.81 186.10 135.75 187.67
  Q 122.85 197.48 108.83 187.99
  Q 103.79 184.58 102.76 177.76
  C 101.39 168.66 102.75 157.21 112.38 153.68
  Q 116.03 152.34 119.22 151.78
  C 122.42 151.21 124.89 149.51 122.58 146.20
  C 116.15 136.98 101.73 139.83 93.62 144.65
  Q 80.61 152.37 78.99 167.20
  C 78.54 171.32 79.54 177.08 80.66 180.32
  C 85.26 193.68 94.87 200.04 108.99 201.70
  C 119.32 202.92 131.70 202.30 140.96 200.34
  C 151.59 198.08 164.57 190.11 170.73 179.72
  Q 182.35 160.11 175.11 138.33
  Q 171.45 127.33 165.44 120.54
  Q 159.30 113.61 146.61 103.95
  C 136.64 96.37 127.19 86.41 127.59 72.76
  C 127.82 64.78 133.43 57.98 141.71 56.79
  C 148.14 55.87 157.59 56.51 159.94 63.34
  Q 161.98 69.23 160.46 76.03
  Q 159.96 78.27 157.48 81.82
  Q 156.05 83.87 154.38 88.34"
/>
</g>
<path fill="#1f32b2" d="
  M 256.00 0.00
  L 256.00 54.03
  Q 239.68 56.80 223.87 61.50
  Q 224.28 59.98 224.05 58.42
  A 1.35 1.34 12.7 0 0 223.47 57.51
  Q 222.63 56.94 221.18 56.99
  A 0.96 0.94 70.9 0 1 220.37 56.59
  Q 218.38 53.75 218.57 49.92
  A 1.22 1.22 0.0 0 1 219.27 48.88
  Q 220.79 48.15 222.21 47.76
  A 2.26 2.03 -17.4 0 0 223.81 45.06
  Q 223.55 44.31 222.36 43.87
  Q 220.11 43.04 217.95 42.54
  A 1.55 1.55 0.0 0 1 216.86 40.47
  Q 218.56 36.12 219.34 33.63
  Q 219.50 33.12 220.30 32.55
  C 221.94 31.38 221.95 29.52 219.93 28.65
  C 218.17 27.89 213.64 27.02 214.88 24.03
  A 1.21 1.20 -7.8 0 1 215.24 23.56
  L 218.94 20.84
  A 2.57 2.56 -34.2 0 0 219.60 17.42
  Q 219.05 16.36 217.43 14.96
  A 1.84 1.81 -20.6 0 0 216.48 14.54
  C 211.23 13.85 209.61 16.16 206.66 19.61
  A 1.29 1.28 47.2 0 1 204.65 19.53
  L 201.24 14.84
  A 1.56 1.56 0.0 0 0 198.51 15.23
  L 196.90 19.74
  A 1.42 1.41 -80.0 0 1 195.57 20.68
  L 188.73 20.68
  A 1.64 1.63 84.1 0 1 187.13 19.37
  Q 186.55 16.48 184.56 16.36
  A 1.68 1.67 12.2 0 0 182.90 17.42
  C 182.01 19.66 182.22 24.47 178.05 22.44
  Q 173.30 20.11 168.50 19.13
  A 1.03 1.03 0.0 0 0 167.39 19.65
  L 164.99 24.19
  A 1.98 1.98 0.0 0 1 161.53 24.26
  L 158.54 19.09
  A 0.95 0.95 0.0 0 0 156.94 19.02
  Q 155.00 21.84 154.46 24.74
  A 1.46 1.46 0.0 0 1 152.47 25.82
  Q 149.78 24.71 146.78 25.45
  A 0.68 0.67 78.5 0 1 145.96 24.90
  Q 145.57 22.49 142.02 21.33
  A 1.40 1.39 14.3 0 0 140.21 22.40
  L 139.56 25.91
  A 1.39 1.36 -18.8 0 1 139.19 26.64
  Q 137.21 28.68 134.52 27.35
  A 1.50 1.49 2.7 0 1 133.78 26.54
  Q 133.35 25.44 132.66 23.12
  A 1.60 1.52 -19.7 0 0 130.53 22.18
  Q 129.26 22.70 128.56 26.15
  A 1.64 1.64 0.0 0 1 127.25 27.44
  L 120.73 28.61
  A 2.86 2.85 69.7 0 1 117.75 27.23
  L 115.95 24.11
  A 0.92 0.92 0.0 0 0 114.28 24.26
  L 112.13 30.30
  A 1.02 0.99 89.0 0 1 111.59 30.88
  Q 109.95 31.61 107.40 30.48
  A 0.68 0.67 -5.8 0 1 107.15 30.28
  L 105.35 27.80
  A 1.34 1.34 0.0 0 0 103.64 27.40
  Q 101.12 28.72 99.08 30.34
  C 97.06 31.93 90.90 34.61 89.94 30.76
  Q 89.45 28.78 88.52 27.61
  A 0.65 0.64 -54.5 0 0 87.41 27.80
  L 85.71 32.55
  A 1.90 1.89 -80.1 0 1 83.93 33.81
  L 77.35 33.81
  A 3.30 3.29 71.8 0 1 74.69 32.46
  L 73.38 30.65
  A 1.23 1.23 0.0 0 0 71.19 31.06
  L 70.00 35.52
  A 1.49 1.49 0.0 0 1 69.42 36.35
  C 68.18 37.22 65.45 37.45 64.40 35.88
  Q 63.58 34.65 63.27 34.05
  A 1.37 1.34 83.0 0 0 62.42 33.37
  Q 60.74 32.90 58.39 33.38
  Q 57.61 33.54 56.75 35.41
  Q 55.37 38.43 50.51 38.51
  A 1.90 1.89 -9.6 0 1 48.68 37.22
  Q 47.90 34.91 47.50 34.12
  A 2.16 2.01 62.5 0 0 44.67 33.11
  Q 44.42 33.24 44.14 33.90
  Q 43.51 35.40 42.74 38.95
  A 1.52 1.51 -74.0 0 1 40.75 40.06
  L 32.98 37.29
  A 1.61 1.61 0.0 0 1 32.54 37.04
  L 30.68 35.47
  A 1.15 1.15 0.0 0 0 28.85 35.99
  L 27.09 41.32
  A 0.91 0.71 82.7 0 1 26.92 41.61
  Q 25.20 43.49 23.04 41.82
  A 1.54 1.50 6.3 0 1 22.67 41.37
  L 20.91 37.77
  A 1.93 1.93 0.0 0 0 18.28 36.91
  Q 14.12 39.08 14.69 44.02
  C 15.06 47.30 17.82 49.17 20.64 50.99
  A 0.45 0.45 0.0 0 1 20.47 51.81
  L 19.21 52.04
  A 0.96 0.92 16.8 0 0 18.70 52.30
  L 14.75 56.25
  A 1.56 1.55 -52.5 0 0 15.07 58.69
  Q 16.87 59.75 19.16 59.77
  A 1.73 1.73 0.0 0 1 20.87 61.50
  L 20.87 68.62
  A 1.29 1.28 88.4 0 1 19.66 69.91
  Q 16.45 70.12 16.04 72.89
  A 0.88 0.88 0.0 0 0 16.67 73.87
  L 21.69 75.33
  A 0.98 0.96 -14.0 0 1 22.15 75.60
  Q 23.47 76.95 22.45 78.94
  Q 20.02 83.69 18.68 87.42
  A 1.67 1.66 27.3 0 0 19.30 89.34
  Q 20.73 90.33 21.91 90.35
  C 24.27 90.40 25.40 92.36 24.95 94.24
  A 1.20 1.18 -11.9 0 1 24.50 94.92
  L 19.21 98.77
  A 1.27 1.27 0.0 0 0 19.53 100.99
  L 24.87 102.89
  A 1.21 1.21 0.0 0 1 25.67 104.03
  L 25.67 109.99
  A 0.72 0.72 0.0 0 1 25.19 110.67
  Q 22.26 111.72 21.29 114.84
  A 1.60 1.59 13.9 0 0 22.53 116.88
  L 25.46 117.42
  A 2.66 2.65 0.5 0 1 27.59 119.58
  C 28.36 124.14 24.58 123.07 22.56 124.93
  A 1.64 1.64 0.0 0 0 23.11 127.68
  L 26.63 128.94
  A 1.49 1.49 0.0 0 1 27.60 130.09
  C 28.16 133.39 29.27 137.40 26.45 139.59
  C 21.37 127.77 11.01 127.58 0.00 128.02
  L 0.00 0.00
  L 256.00 0.00
  Z"
/>
<path fill="#ffffff" d="
  M 223.87 61.50
  Q 223.19 63.63 220.67 64.55
  A 1.22 1.20 87.0 0 0 219.89 65.43
  C 219.48 67.29 219.91 70.09 222.35 70.41
  Q 223.23 70.53 225.28 71.05
  A 1.51 1.50 -56.4 0 1 225.81 73.71
  C 222.37 76.33 222.89 80.02 222.91 83.46
  A 2.25 2.24 9.7 0 0 224.40 85.56
  L 228.73 87.10
  A 0.73 0.72 39.9 0 1 228.85 88.41
  L 224.75 90.78
  A 0.55 0.54 80.9 0 0 224.50 91.13
  C 223.58 95.78 225.44 98.21 228.98 101.23
  A 2.04 1.97 7.7 0 1 229.51 101.90
  Q 230.41 103.74 229.44 105.42
  A 1.97 1.96 -1.4 0 1 228.75 106.14
  C 226.58 107.50 225.10 107.78 225.83 110.91
  A 1.11 1.11 0.0 0 0 226.46 111.66
  L 233.19 114.58
  A 0.45 0.45 0.0 0 1 233.27 115.36
  L 229.41 118.18
  A 2.41 2.39 -23.2 0 0 228.45 120.55
  L 229.55 126.64
  A 2.48 2.47 5.4 0 0 231.09 128.50
  Q 231.87 128.80 233.77 129.44
  A 1.50 1.48 18.6 0 1 234.72 131.31
  Q 234.53 131.89 233.77 132.29
  C 231.23 133.61 227.57 134.52 229.63 138.52
  A 1.34 1.32 -4.4 0 0 230.40 139.17
  Q 232.35 139.80 233.29 140.00
  Q 235.17 140.39 235.40 141.02
  C 236.15 143.02 233.75 145.32 232.16 146.39
  A 1.06 1.05 -21.0 0 0 231.70 147.41
  Q 232.06 149.97 231.37 152.79
  A 1.26 1.25 -73.3 0 0 232.16 154.27
  L 237.46 156.16
  A 1.17 1.17 0.0 0 1 237.78 158.19
  C 236.39 159.26 233.27 160.84 232.72 162.19
  C 232.04 163.84 232.55 166.90 234.98 167.04
  Q 238.11 167.22 237.66 169.87
  C 237.01 173.62 233.86 176.69 234.34 180.48
  A 1.25 1.25 0.0 0 0 235.15 181.49
  L 239.50 183.04
  A 1.47 1.47 0.0 0 1 240.45 184.69
  Q 239.98 187.12 237.26 187.53
  A 1.71 1.70 -9.7 0 0 235.84 189.52
  L 236.91 195.49
  A 1.86 1.85 -85.3 0 0 238.11 196.91
  L 241.52 198.12
  A 1.48 1.47 32.4 0 1 242.07 200.55
  L 237.52 205.10
  A 1.23 1.22 -48.5 0 0 237.63 206.93
  Q 239.65 208.51 240.99 210.08
  C 243.99 213.58 243.18 218.00 238.87 219.92
  A 1.60 1.59 55.3 0 1 237.09 219.59
  Q 235.13 217.63 233.94 215.77
  C 233.22 214.64 232.35 214.01 231.07 214.55
  C 228.74 215.53 229.98 220.71 226.84 221.45
  Q 226.03 221.64 224.19 220.38
  Q 220.65 217.96 215.68 217.09
  A 1.14 1.14 0.0 0 0 214.38 217.96
  C 213.94 219.85 213.24 223.22 211.81 223.97
  A 1.74 1.49 66.2 0 1 209.64 222.93
  Q 208.64 220.34 208.50 219.87
  A 1.80 1.80 0.0 0 0 206.92 218.59
  Q 201.67 218.15 200.17 222.35
  A 1.68 1.66 0.3 0 1 199.12 223.38
  C 196.07 224.43 194.49 223.97 192.67 221.32
  Q 191.30 219.34 188.05 220.34
  A 1.87 1.86 86.0 0 0 186.75 221.84
  Q 186.44 223.90 185.12 225.93
  A 1.01 1.00 -49.6 0 1 183.54 226.06
  Q 181.00 223.27 176.85 223.36
  C 174.21 223.42 171.84 222.65 170.71 225.93
  Q 170.10 227.69 169.63 228.71
  A 0.66 0.66 0.0 0 1 168.46 228.77
  L 166.75 225.80
  A 2.29 2.27 -15.8 0 0 164.71 224.67
  C 160.16 224.80 157.89 226.67 153.95 229.22
  A 1.79 1.78 -61.8 0 1 152.96 229.52
  Q 151.13 229.51 150.25 228.19
  Q 148.00 224.79 145.09 226.69
  A 1.02 1.02 0.0 0 0 144.69 227.18
  L 142.50 232.73
  A 0.84 0.83 40.7 0 1 141.00 232.84
  L 139.38 230.03
  A 3.11 3.11 0.0 0 0 136.13 228.52
  L 129.92 229.65
  A 2.05 2.03 1.3 0 0 128.29 231.20
  Q 127.88 232.98 127.43 233.92
  A 1.64 1.58 -63.2 0 1 125.23 234.69
  Q 124.80 234.46 124.50 233.75
  Q 124.14 232.90 123.38 230.62
  A 1.89 1.86 -86.5 0 0 122.46 229.56
  Q 120.23 228.43 118.45 229.54
  A 1.40 1.35 -10.0 0 0 117.85 230.37
  Q 117.60 231.37 117.35 232.69
  C 116.28 238.58 111.86 233.39 109.50 232.83
  Q 105.68 231.94 104.83 231.50
  A 1.67 1.67 0.0 0 0 102.43 232.66
  Q 101.94 235.10 99.88 238.11
  A 0.66 0.66 0.0 0 1 98.81 238.13
  C 96.60 235.13 96.11 231.09 91.01 232.98
  A 1.38 1.38 0.0 0 0 90.10 234.20
  Q 90.01 235.83 89.36 237.09
  A 1.94 1.94 0.0 0 1 87.15 238.08
  Q 84.79 237.47 80.57 235.20
  C 75.26 232.34 75.26 235.35 74.09 239.32
  A 1.67 1.66 -71.6 0 1 71.92 240.41
  Q 69.70 239.59 69.12 236.85
  A 1.26 1.26 0.0 0 0 67.67 235.88
  L 61.03 237.08
  A 1.25 1.23 4.5 0 0 60.09 237.87
  L 58.92 241.15
  A 1.61 1.61 0.0 0 1 56.56 241.98
  Q 53.25 239.94 51.65 236.94
  A 0.80 0.80 0.0 0 0 50.23 236.98
  C 47.87 242.06 41.18 245.46 37.41 239.51
  A 2.40 2.40 0.0 0 1 38.03 236.29
  L 41.49 233.77
  A 2.18 2.17 -44.1 0 0 41.55 230.30
  Q 40.28 229.31 37.65 228.67
  Q 35.42 228.13 35.47 226.24
  A 1.43 1.39 67.4 0 1 35.84 225.31
  Q 37.40 223.63 39.55 217.79
  Q 40.33 215.69 39.49 214.86
  A 1.78 1.77 72.6 0 0 38.56 214.37
  Q 36.04 213.92 34.01 212.97
  A 1.83 1.61 22.8 0 1 32.99 210.86
  C 33.49 209.53 35.52 208.95 37.44 208.02
  A 2.01 2.00 74.3 0 0 38.56 206.01
  Q 38.28 203.19 37.18 200.96
  A 0.80 0.80 0.0 0 0 36.36 200.51
  Q 32.70 200.92 32.78 197.32
  C 32.85 194.40 33.56 193.79 36.01 192.43
  Q 38.07 191.29 37.02 188.20
  A 1.94 1.94 0.0 0 0 35.32 186.90
  Q 32.94 186.74 30.44 185.51
  A 1.02 1.01 35.7 0 1 30.17 183.88
  L 33.16 180.88
  A 1.40 1.39 68.0 0 0 33.58 179.88
  L 33.58 173.05
  A 1.94 1.93 1.7 0 0 31.76 171.12
  Q 29.63 170.99 28.39 170.00
  A 1.14 1.13 -40.9 0 1 28.53 168.13
  L 31.61 166.36
  A 0.64 0.64 0.0 0 0 31.85 166.09
  Q 33.48 162.62 31.36 159.05
  Q 30.91 158.29 27.82 155.73
  Q 25.36 153.68 27.68 151.40
  Q 29.11 149.98 30.87 149.47
  A 1.00 0.98 -88.1 0 0 31.54 148.83
  Q 32.28 146.61 30.50 145.31
  A 0.75 0.47 58.3 0 0 30.40 145.26
  L 24.48 143.05
  A 1.04 1.04 0.0 0 1 24.22 141.25
  L 26.45 139.59
  C 29.27 137.40 28.16 133.39 27.60 130.09
  A 1.49 1.49 0.0 0 0 26.63 128.94
  L 23.11 127.68
  A 1.64 1.64 0.0 0 1 22.56 124.93
  C 24.58 123.07 28.36 124.14 27.59 119.58
  A 2.66 2.65 0.5 0 0 25.46 117.42
  L 22.53 116.88
  A 1.60 1.59 13.9 0 1 21.29 114.84
  Q 22.26 111.72 25.19 110.67
  A 0.72 0.72 0.0 0 0 25.67 109.99
  L 25.67 104.03
  A 1.21 1.21 0.0 0 0 24.87 102.89
  L 19.53 100.99
  A 1.27 1.27 0.0 0 1 19.21 98.77
  L 24.50 94.92
  A 1.20 1.18 -11.9 0 0 24.95 94.24
  C 25.40 92.36 24.27 90.40 21.91 90.35
  Q 20.73 90.33 19.30 89.34
  A 1.67 1.66 27.3 0 1 18.68 87.42
  Q 20.02 83.69 22.45 78.94
  Q 23.47 76.95 22.15 75.60
  A 0.98 0.96 -14.0 0 0 21.69 75.33
  L 16.67 73.87
  A 0.88 0.88 0.0 0 1 16.04 72.89
  Q 16.45 70.12 19.66 69.91
  A 1.29 1.28 88.4 0 0 20.87 68.62
  L 20.87 61.50
  A 1.73 1.73 0.0 0 0 19.16 59.77
  Q 16.87 59.75 15.07 58.69
  A 1.56 1.55 -52.5 0 1 14.75 56.25
  L 18.70 52.30
  A 0.96 0.92 16.8 0 1 19.21 52.04
  L 20.47 51.81
  A 0.45 0.45 0.0 0 0 20.64 50.99
  C 17.82 49.17 15.06 47.30 14.69 44.02
  Q 14.12 39.08 18.28 36.91
  A 1.93 1.93 0.0 0 1 20.91 37.77
  L 22.67 41.37
  A 1.54 1.50 6.3 0 0 23.04 41.82
  Q 25.20 43.49 26.92 41.61
  A 0.91 0.71 82.7 0 0 27.09 41.32
  L 28.85 35.99
  A 1.15 1.15 0.0 0 1 30.68 35.47
  L 32.54 37.04
  A 1.61 1.61 0.0 0 0 32.98 37.29
  L 40.75 40.06
  A 1.52 1.51 -74.0 0 0 42.74 38.95
  Q 43.51 35.40 44.14 33.90
  Q 44.42 33.24 44.67 33.11
  A 2.16 2.01 62.5 0 1 47.50 34.12
  Q 47.90 34.91 48.68 37.22
  A 1.90 1.89 -9.6 0 0 50.51 38.51
  Q 55.37 38.43 56.75 35.41
  Q 57.61 33.54 58.39 33.38
  Q 60.74 32.90 62.42 33.37
  A 1.37 1.34 83.0 0 1 63.27 34.05
  Q 63.58 34.65 64.40 35.88
  C 65.45 37.45 68.18 37.22 69.42 36.35
  A 1.49 1.49 0.0 0 0 70.00 35.52
  L 71.19 31.06
  A 1.23 1.23 0.0 0 1 73.38 30.65
  L 74.69 32.46
  A 3.30 3.29 71.8 0 0 77.35 33.81
  L 83.93 33.81
  A 1.90 1.89 -80.1 0 0 85.71 32.55
  L 87.41 27.80
  A 0.65 0.64 -54.5 0 1 88.52 27.61
  Q 89.45 28.78 89.94 30.76
  C 90.90 34.61 97.06 31.93 99.08 30.34
  Q 101.12 28.72 103.64 27.40
  A 1.34 1.34 0.0 0 1 105.35 27.80
  L 107.15 30.28
  A 0.68 0.67 -5.8 0 0 107.40 30.48
  Q 109.95 31.61 111.59 30.88
  A 1.02 0.99 89.0 0 0 112.13 30.30
  L 114.28 24.26
  A 0.92 0.92 0.0 0 1 115.95 24.11
  L 117.75 27.23
  A 2.86 2.85 69.7 0 0 120.73 28.61
  L 127.25 27.44
  A 1.64 1.64 0.0 0 0 128.56 26.15
  Q 129.26 22.70 130.53 22.18
  A 1.60 1.52 -19.7 0 1 132.66 23.12
  Q 133.35 25.44 133.78 26.54
  A 1.50 1.49 2.7 0 0 134.52 27.35
  Q 137.21 28.68 139.19 26.64
  A 1.39 1.36 -18.8 0 0 139.56 25.91
  L 140.21 22.40
  A 1.40 1.39 14.3 0 1 142.02 21.33
  Q 145.57 22.49 145.96 24.90
  A 0.68 0.67 78.5 0 0 146.78 25.45
  Q 149.78 24.71 152.47 25.82
  A 1.46 1.46 0.0 0 0 154.46 24.74
  Q 155.00 21.84 156.94 19.02
  A 0.95 0.95 0.0 0 1 158.54 19.09
  L 161.53 24.26
  A 1.98 1.98 0.0 0 0 164.99 24.19
  L 167.39 19.65
  A 1.03 1.03 0.0 0 1 168.50 19.13
  Q 173.30 20.11 178.05 22.44
  C 182.22 24.47 182.01 19.66 182.90 17.42
  A 1.68 1.67 12.2 0 1 184.56 16.36
  Q 186.55 16.48 187.13 19.37
  A 1.64 1.63 84.1 0 0 188.73 20.68
  L 195.57 20.68
  A 1.42 1.41 -80.0 0 0 196.90 19.74
  L 198.51 15.23
  A 1.56 1.56 0.0 0 1 201.24 14.84
  L 204.65 19.53
  A 1.29 1.28 47.2 0 0 206.66 19.61
  C 209.61 16.16 211.23 13.85 216.48 14.54
  A 1.84 1.81 -20.6 0 1 217.43 14.96
  Q 219.05 16.36 219.60 17.42
  A 2.57 2.56 -34.2 0 1 218.94 20.84
  L 215.24 23.56
  A 1.21 1.20 -7.8 0 0 214.88 24.03
  C 213.64 27.02 218.17 27.89 219.93 28.65
  C 221.95 29.52 221.94 31.38 220.30 32.55
  Q 219.50 33.12 219.34 33.63
  Q 218.56 36.12 216.86 40.47
  A 1.55 1.55 0.0 0 0 217.95 42.54
  Q 220.11 43.04 222.36 43.87
  Q 223.55 44.31 223.81 45.06
  A 2.26 2.03 -17.4 0 1 222.21 47.76
  Q 220.79 48.15 219.27 48.88
  A 1.22 1.22 0.0 0 0 218.57 49.92
  Q 218.38 53.75 220.37 56.59
  A 0.96 0.94 70.9 0 0 221.18 56.99
  Q 222.63 56.94 223.47 57.51
  A 1.35 1.34 12.7 0 1 224.05 58.42
  Q 224.28 59.98 223.87 61.50
  Z
  M 30.16 50.11
  A 0.98 0.98 0.0 0 0 29.19 50.90
  Q 28.41 54.86 29.31 59.09
  Q 29.87 61.74 30.12 63.93
  Q 31.15 73.21 32.84 83.88
  C 35.16 98.51 37.14 115.00 39.20 130.59
  C 40.79 142.54 41.36 154.53 42.88 166.21
  C 45.21 184.00 46.72 198.96 49.42 217.78
  Q 49.95 221.46 50.21 226.19
  A 2.13 2.12 -86.1 0 0 51.91 228.15
  C 56.28 229.02 61.67 226.81 66.53 226.43
  Q 72.30 225.98 82.20 224.42
  C 92.14 222.85 107.35 220.80 117.77 219.61
  C 126.60 218.60 136.66 218.14 144.38 216.97
  C 152.36 215.75 158.42 214.75 166.24 214.33
  Q 168.99 214.19 181.52 212.39
  Q 193.20 210.71 227.01 206.27
  A 1.63 1.63 0.0 0 0 228.42 204.80
  C 228.80 200.46 227.22 196.54 226.54 191.76
  C 225.35 183.48 224.90 177.52 223.60 169.11
  Q 220.74 150.68 218.75 130.49
  Q 217.54 118.19 216.97 114.04
  C 215.08 100.35 214.30 87.45 212.09 72.94
  Q 209.07 53.00 206.60 31.14
  A 2.16 2.16 0.0 0 0 204.89 29.26
  C 200.08 28.24 196.69 29.84 192.35 30.33
  Q 173.60 32.44 147.23 36.70
  Q 144.61 37.12 130.25 38.02
  Q 126.58 38.26 124.54 38.69
  C 119.57 39.76 114.52 39.76 110.21 40.37
  C 97.22 42.20 86.94 43.02 73.73 44.97
  Q 60.42 46.92 54.15 47.61
  Q 45.32 48.58 36.10 49.65
  Q 31.92 50.14 30.16 50.11
  Z"
/>
<path fill="#fcb91d" d="
  M 30.16 50.11
  Q 31.92 50.14 36.10 49.65
  Q 45.32 48.58 54.15 47.61
  Q 60.42 46.92 73.73 44.97
  C 86.94 43.02 97.22 42.20 110.21 40.37
  C 114.52 39.76 119.57 39.76 124.54 38.69
  Q 126.58 38.26 130.25 38.02
  Q 144.61 37.12 147.23 36.70
  Q 173.60 32.44 192.35 30.33
  C 196.69 29.84 200.08 28.24 204.89 29.26
  A 2.16 2.16 0.0 0 1 206.60 31.14
  Q 209.07 53.00 212.09 72.94
  C 214.30 87.45 215.08 100.35 216.97 114.04
  Q 217.54 118.19 218.75 130.49
  Q 220.74 150.68 223.60 169.11
  C 224.90 177.52 225.35 183.48 226.54 191.76
  C 227.22 196.54 228.80 200.46 228.42 204.80
  A 1.63 1.63 0.0 0 1 227.01 206.27
  Q 193.20 210.71 181.52 212.39
  Q 168.99 214.19 166.24 214.33
  C 158.42 214.75 152.36 215.75 144.38 216.97
  C 136.66 218.14 126.60 218.60 117.77 219.61
  C 107.35 220.80 92.14 222.85 82.20 224.42
  Q 72.30 225.98 66.53 226.43
  C 61.67 226.81 56.28 229.02 51.91 228.15
  A 2.13 2.12 -86.1 0 1 50.21 226.19
  Q 49.95 221.46 49.42 217.78
  C 46.72 198.96 45.21 184.00 42.88 166.21
  C 41.36 154.53 40.79 142.54 39.20 130.59
  C 37.14 115.00 35.16 98.51 32.84 83.88
  Q 31.15 73.21 30.12 63.93
  Q 29.87 61.74 29.31 59.09
  Q 28.41 54.86 29.19 50.90
  A 0.98 0.98 0.0 0 1 30.16 50.11
  Z
  M 154.38 88.34
  A 0.93 0.92 -65.7 0 0 154.80 89.47
  C 160.02 92.37 167.79 90.98 171.87 87.45
  Q 176.01 83.85 177.80 76.94
  Q 180.65 65.92 173.58 56.15
  C 169.60 50.65 160.53 47.66 154.10 46.91
  Q 137.38 44.97 122.82 51.83
  C 113.27 56.34 107.15 59.84 101.77 68.78
  Q 98.00 75.06 97.46 77.01
  Q 95.00 85.91 97.13 93.22
  C 100.52 104.81 109.83 113.74 119.33 121.42
  Q 126.30 127.06 132.89 134.79
  C 143.42 147.15 147.83 165.61 140.82 180.92
  C 139.70 183.38 137.81 186.10 135.75 187.67
  Q 122.85 197.48 108.83 187.99
  Q 103.79 184.58 102.76 177.76
  C 101.39 168.66 102.75 157.21 112.38 153.68
  Q 116.03 152.34 119.22 151.78
  C 122.42 151.21 124.89 149.51 122.58 146.20
  C 116.15 136.98 101.73 139.83 93.62 144.65
  Q 80.61 152.37 78.99 167.20
  C 78.54 171.32 79.54 177.08 80.66 180.32
  C 85.26 193.68 94.87 200.04 108.99 201.70
  C 119.32 202.92 131.70 202.30 140.96 200.34
  C 151.59 198.08 164.57 190.11 170.73 179.72
  Q 182.35 160.11 175.11 138.33
  Q 171.45 127.33 165.44 120.54
  Q 159.30 113.61 146.61 103.95
  C 136.64 96.37 127.19 86.41 127.59 72.76
  C 127.82 64.78 133.43 57.98 141.71 56.79
  C 148.14 55.87 157.59 56.51 159.94 63.34
  Q 161.98 69.23 160.46 76.03
  Q 159.96 78.27 157.48 81.82
  Q 156.05 83.87 154.38 88.34
  Z"
/>
<path fill="#ffffff" d="
  M 154.38 88.34
  Q 156.05 83.87 157.48 81.82
  Q 159.96 78.27 160.46 76.03
  Q 161.98 69.23 159.94 63.34
  C 157.59 56.51 148.14 55.87 141.71 56.79
  C 133.43 57.98 127.82 64.78 127.59 72.76
  C 127.19 86.41 136.64 96.37 146.61 103.95
  Q 159.30 113.61 165.44 120.54
  Q 171.45 127.33 175.11 138.33
  Q 182.35 160.11 170.73 179.72
  C 164.57 190.11 151.59 198.08 140.96 200.34
  C 131.70 202.30 119.32 202.92 108.99 201.70
  C 94.87 200.04 85.26 193.68 80.66 180.32
  C 79.54 177.08 78.54 171.32 78.99 167.20
  Q 80.61 152.37 93.62 144.65
  C 101.73 139.83 116.15 136.98 122.58 146.20
  C 124.89 149.51 122.42 151.21 119.22 151.78
  Q 116.03 152.34 112.38 153.68
  C 102.75 157.21 101.39 168.66 102.76 177.76
  Q 103.79 184.58 108.83 187.99
  Q 122.85 197.48 135.75 187.67
  C 137.81 186.10 139.70 183.38 140.82 180.92
  C 147.83 165.61 143.42 147.15 132.89 134.79
  Q 126.30 127.06 119.33 121.42
  C 109.83 113.74 100.52 104.81 97.13 93.22
  Q 95.00 85.91 97.46 77.01
  Q 98.00 75.06 101.77 68.78
  C 107.15 59.84 113.27 56.34 122.82 51.83
  Q 137.38 44.97 154.10 46.91
  C 160.53 47.66 169.60 50.65 173.58 56.15
  Q 180.65 65.92 177.80 76.94
  Q 176.01 83.85 171.87 87.45
  C 167.79 90.98 160.02 92.37 154.80 89.47
  A 0.93 0.92 -65.7 0 1 154.38 88.34
  Z"
/>
<path fill="#300ca2" d="
  M 256.00 54.03
  L 256.00 256.00
  L 0.00 256.00
  L 0.00 128.02
  C 11.01 127.58 21.37 127.77 26.45 139.59
  L 24.22 141.25
  A 1.04 1.04 0.0 0 0 24.48 143.05
  L 30.40 145.26
  A 0.75 0.47 58.3 0 1 30.50 145.31
  Q 32.28 146.61 31.54 148.83
  A 1.00 0.98 -88.1 0 1 30.87 149.47
  Q 29.11 149.98 27.68 151.40
  Q 25.36 153.68 27.82 155.73
  Q 30.91 158.29 31.36 159.05
  Q 33.48 162.62 31.85 166.09
  A 0.64 0.64 0.0 0 1 31.61 166.36
  L 28.53 168.13
  A 1.14 1.13 -40.9 0 0 28.39 170.00
  Q 29.63 170.99 31.76 171.12
  A 1.94 1.93 1.7 0 1 33.58 173.05
  L 33.58 179.88
  A 1.40 1.39 68.0 0 1 33.16 180.88
  L 30.17 183.88
  A 1.02 1.01 35.7 0 0 30.44 185.51
  Q 32.94 186.74 35.32 186.90
  A 1.94 1.94 0.0 0 1 37.02 188.20
  Q 38.07 191.29 36.01 192.43
  C 33.56 193.79 32.85 194.40 32.78 197.32
  Q 32.70 200.92 36.36 200.51
  A 0.80 0.80 0.0 0 1 37.18 200.96
  Q 38.28 203.19 38.56 206.01
  A 2.01 2.00 74.3 0 1 37.44 208.02
  C 35.52 208.95 33.49 209.53 32.99 210.86
  A 1.83 1.61 22.8 0 0 34.01 212.97
  Q 36.04 213.92 38.56 214.37
  A 1.78 1.77 72.6 0 1 39.49 214.86
  Q 40.33 215.69 39.55 217.79
  Q 37.40 223.63 35.84 225.31
  A 1.43 1.39 67.4 0 0 35.47 226.24
  Q 35.42 228.13 37.65 228.67
  Q 40.28 229.31 41.55 230.30
  A 2.18 2.17 -44.1 0 1 41.49 233.77
  L 38.03 236.29
  A 2.40 2.40 0.0 0 0 37.41 239.51
  C 41.18 245.46 47.87 242.06 50.23 236.98
  A 0.80 0.80 0.0 0 1 51.65 236.94
  Q 53.25 239.94 56.56 241.98
  A 1.61 1.61 0.0 0 0 58.92 241.15
  L 60.09 237.87
  A 1.25 1.23 4.5 0 1 61.03 237.08
  L 67.67 235.88
  A 1.26 1.26 0.0 0 1 69.12 236.85
  Q 69.70 239.59 71.92 240.41
  A 1.67 1.66 -71.6 0 0 74.09 239.32
  C 75.26 235.35 75.26 232.34 80.57 235.20
  Q 84.79 237.47 87.15 238.08
  A 1.94 1.94 0.0 0 0 89.36 237.09
  Q 90.01 235.83 90.10 234.20
  A 1.38 1.38 0.0 0 1 91.01 232.98
  C 96.11 231.09 96.60 235.13 98.81 238.13
  A 0.66 0.66 0.0 0 0 99.88 238.11
  Q 101.94 235.10 102.43 232.66
  A 1.67 1.67 0.0 0 1 104.83 231.50
  Q 105.68 231.94 109.50 232.83
  C 111.86 233.39 116.28 238.58 117.35 232.69
  Q 117.60 231.37 117.85 230.37
  A 1.40 1.35 -10.0 0 1 118.45 229.54
  Q 120.23 228.43 122.46 229.56
  A 1.89 1.86 -86.5 0 1 123.38 230.62
  Q 124.14 232.90 124.50 233.75
  Q 124.80 234.46 125.23 234.69
  A 1.64 1.58 -63.2 0 0 127.43 233.92
  Q 127.88 232.98 128.29 231.20
  A 2.05 2.03 1.3 0 1 129.92 229.65
  L 136.13 228.52
  A 3.11 3.11 0.0 0 1 139.38 230.03
  L 141.00 232.84
  A 0.84 0.83 40.7 0 0 142.50 232.73
  L 144.69 227.18
  A 1.02 1.02 0.0 0 1 145.09 226.69
  Q 148.00 224.79 150.25 228.19
  Q 151.13 229.51 152.96 229.52
  A 1.79 1.78 -61.8 0 0 153.95 229.22
  C 157.89 226.67 160.16 224.80 164.71 224.67
  A 2.29 2.27 -15.8 0 1 166.75 225.80
  L 168.46 228.77
  A 0.66 0.66 0.0 0 0 169.63 228.71
  Q 170.10 227.69 170.71 225.93
  C 171.84 222.65 174.21 223.42 176.85 223.36
  Q 181.00 223.27 183.54 226.06
  A 1.01 1.00 -49.6 0 0 185.12 225.93
  Q 186.44 223.90 186.75 221.84
  A 1.87 1.86 86.0 0 1 188.05 220.34
  Q 191.30 219.34 192.67 221.32
  C 194.49 223.97 196.07 224.43 199.12 223.38
  A 1.68 1.66 0.3 0 0 200.17 222.35
  Q 201.67 218.15 206.92 218.59
  A 1.80 1.80 0.0 0 1 208.50 219.87
  Q 208.64 220.34 209.64 222.93
  A 1.74 1.49 66.2 0 0 211.81 223.97
  C 213.24 223.22 213.94 219.85 214.38 217.96
  A 1.14 1.14 0.0 0 1 215.68 217.09
  Q 220.65 217.96 224.19 220.38
  Q 226.03 221.64 226.84 221.45
  C 229.98 220.71 228.74 215.53 231.07 214.55
  C 232.35 214.01 233.22 214.64 233.94 215.77
  Q 235.13 217.63 237.09 219.59
  A 1.60 1.59 55.3 0 0 238.87 219.92
  C 243.18 218.00 243.99 213.58 240.99 210.08
  Q 239.65 208.51 237.63 206.93
  A 1.23 1.22 -48.5 0 1 237.52 205.10
  L 242.07 200.55
  A 1.48 1.47 32.4 0 0 241.52 198.12
  L 238.11 196.91
  A 1.86 1.85 -85.3 0 1 236.91 195.49
  L 235.84 189.52
  A 1.71 1.70 -9.7 0 1 237.26 187.53
  Q 239.98 187.12 240.45 184.69
  A 1.47 1.47 0.0 0 0 239.50 183.04
  L 235.15 181.49
  A 1.25 1.25 0.0 0 1 234.34 180.48
  C 233.86 176.69 237.01 173.62 237.66 169.87
  Q 238.11 167.22 234.98 167.04
  C 232.55 166.90 232.04 163.84 232.72 162.19
  C 233.27 160.84 236.39 159.26 237.78 158.19
  A 1.17 1.17 0.0 0 0 237.46 156.16
  L 232.16 154.27
  A 1.26 1.25 -73.3 0 1 231.37 152.79
  Q 232.06 149.97 231.70 147.41
  A 1.06 1.05 -21.0 0 1 232.16 146.39
  C 233.75 145.32 236.15 143.02 235.40 141.02
  Q 235.17 140.39 233.29 140.00
  Q 232.35 139.80 230.40 139.17
  A 1.34 1.32 -4.4 0 1 229.63 138.52
  C 227.57 134.52 231.23 133.61 233.77 132.29
  Q 234.53 131.89 234.72 131.31
  A 1.50 1.48 18.6 0 0 233.77 129.44
  Q 231.87 128.80 231.09 128.50
  A 2.48 2.47 5.4 0 1 229.55 126.64
  L 228.45 120.55
  A 2.41 2.39 -23.2 0 1 229.41 118.18
  L 233.27 115.36
  A 0.45 0.45 0.0 0 0 233.19 114.58
  L 226.46 111.66
  A 1.11 1.11 0.0 0 1 225.83 110.91
  C 225.10 107.78 226.58 107.50 228.75 106.14
  A 1.97 1.96 -1.4 0 0 229.44 105.42
  Q 230.41 103.74 229.51 101.90
  A 2.04 1.97 7.7 0 0 228.98 101.23
  C 225.44 98.21 223.58 95.78 224.50 91.13
  A 0.55 0.54 80.9 0 1 224.75 90.78
  L 228.85 88.41
  A 0.73 0.72 39.9 0 0 228.73 87.10
  L 224.40 85.56
  A 2.25 2.24 9.7 0 1 222.91 83.46
  C 222.89 80.02 222.37 76.33 225.81 73.71
  A 1.51 1.50 -56.4 0 0 225.28 71.05
  Q 223.23 70.53 222.35 70.41
  C 219.91 70.09 219.48 67.29 219.89 65.43
  A 1.22 1.20 87.0 0 1 220.67 64.55
  Q 223.19 63.63 223.87 61.50
  Q 239.68 56.80 256.00 54.03
  Z"
/>
</svg>