<?xml version="1.0" encoding="UTF-8" standalone="no"?>
<!DOCTYPE svg PUBLIC "-//W3C//DTD SVG 1.1//EN" "http://www.w3.org/Graphics/SVG/1.1/DTD/svg11.dtd">
<svg xmlns="http://www.w3.org/2000/svg" version="1.1" viewBox="-0.50 0.00 168.00 168.00" width="128" height="128">
<g stroke-width="2.00" fill="none" stroke-linecap="butt">
<path stroke="#a0c4f7" vector-effect="non-scaling-stroke" d="
  M 91.99 93.64
  L 115.70 107.33
  A 1.01 1.00 -75.0 0 1 116.20 108.20
  L 116.20 111.52
  A 0.77 0.77 0.0 0 1 115.81 112.19
  L 92.87 125.44
  A 0.87 0.86 47.2 0 1 91.95 125.40
  Q 83.41 119.43 75.27 126.03
  A 0.76 0.74 39.6 0 1 74.43 126.10
  L 51.18 112.67
  A 0.90 0.90 0.0 0 1 50.73 111.77
  C 52.77 96.31 31.31 91.67 26.53 105.86
  C 24.69 111.34 26.95 117.49 31.92 120.47
  Q 38.94 124.67 46.42 119.49
  A 0.83 0.82 42.1 0 1 47.29 119.45
  L 71.00 133.14
  A 0.93 0.92 16.3 0 1 71.46 133.97
  C 70.89 152.59 98.19 151.71 96.33 133.07
  A 0.89 0.88 -18.2 0 1 96.77 132.21
  L 119.77 118.93
  A 0.90 0.89 -40.2 0 1 120.77 119.01
  C 129.33 125.85 141.36 119.38 141.06 108.79
  C 140.75 97.50 127.63 93.27 119.88 100.32
  A 0.51 0.51 0.0 0 1 119.28 100.38
  L 95.98 86.93
  A 1.17 1.15 19.0 0 1 95.41 85.78
  C 96.86 74.16 84.35 67.45 75.10 74.25
  A 0.83 0.81 -47.6 0 1 74.20 74.30
  L 51.25 61.05
  A 1.12 1.12 0.0 0 1 50.71 59.86
  Q 51.10 57.93 50.71 56.25
  A 0.90 0.89 68.6 0 1 51.13 55.27
  L 74.20 41.95
  A 0.87 0.86 47.2 0 1 75.12 41.99
  Q 83.07 47.66 91.06 42.00
  A 0.84 0.84 0.0 0 1 91.97 41.95
  L 115.08 55.30
  A 0.92 0.92 0.0 0 1 115.53 56.19
  C 114.84 62.55 118.09 69.12 124.67 70.24
  C 131.24 71.37 136.90 68.82 139.45 62.42
  C 141.42 57.46 139.61 51.25 135.16 48.10
  Q 127.81 42.90 119.54 48.30
  A 0.86 0.86 0.0 0 1 118.64 48.33
  L 95.64 35.05
  A 0.59 0.59 0.0 0 1 95.35 34.45
  C 96.97 23.74 85.55 15.68 76.23 21.80
  Q 69.87 25.99 70.70 34.32
  A 0.92 0.91 -18.4 0 1 70.25 35.20
  L 47.34 48.42
  A 0.86 0.85 46.4 0 1 46.43 48.39
  Q 38.03 42.83 30.74 48.25
  C 26.70 51.25 24.91 56.89 26.40 61.59
  C 29.19 70.43 38.75 73.22 46.41 67.80
  A 0.77 0.76 -47.5 0 1 47.23 67.76
  L 70.31 81.08
  A 0.89 0.88 -70.9 0 1 70.74 81.98
  C 70.02 86.77 71.89 91.44 75.94 94.22
  Q 83.07 99.09 91.07 93.67
  A 0.87 0.87 0.0 0 1 91.99 93.64"
/>
<path stroke="#a0c4f7" vector-effect="non-scaling-stroke" d="
  M 87.56 32.27
  A 4.51 4.51 0.0 0 0 83.05 27.76
  A 4.51 4.51 0.0 0 0 78.54 32.27
  A 4.51 4.51 0.0 0 0 83.05 36.78
  A 4.51 4.51 0.0 0 0 87.56 32.27"
/>
<path stroke="#a0c4f7" vector-effect="non-scaling-stroke" d="
  M 42.90 58.11
  A 4.51 4.51 0.0 0 0 38.39 53.60
  A 4.51 4.51 0.0 0 0 33.88 58.11
  A 4.51 4.51 0.0 0 0 38.39 62.62
  A 4.51 4.51 0.0 0 0 42.90 58.11"
/>
<path stroke="#a0c4f7" vector-effect="non-scaling-stroke" d="
  M 132.24 58.11
  A 4.52 4.52 0.0 0 0 127.72 53.59
  A 4.52 4.52 0.0 0 0 123.20 58.11
  A 4.52 4.52 0.0 0 0 127.72 62.63
  A 4.52 4.52 0.0 0 0 132.24 58.11"
/>
<path stroke="#a0c4f7" vector-effect="non-scaling-stroke" d="
  M 87.57 83.95
  A 4.52 4.52 0.0 0 0 83.05 79.43
  A 4.52 4.52 0.0 0 0 78.53 83.95
  A 4.52 4.52 0.0 0 0 83.05 88.47
  A 4.52 4.52 0.0 0 0 87.57 83.95"
/>
<path stroke="#a0c4f7" vector-effect="non-scaling-stroke" d="
  M 133.13 109.27
  A 4.51 4.51 0.0 0 0 128.62 104.76
  A 4.51 4.51 0.0 0 0 124.11 109.27
  A 4.51 4.51 0.0 0 0 128.62 113.78
  A 4.51 4.51 0.0 0 0 133.13 109.27"
/>
<path stroke="#a0c4f7" vector-effect="non-scaling-stroke" d="
  M 42.89 109.80
  A 4.51 4.51 0.0 0 0 38.38 105.29
  A 4.51 4.51 0.0 0 0 33.87 109.80
  A 4.51 4.51 0.0 0 0 38.38 114.31
  A 4.51 4.51 0.0 0 0 42.89 109.80"
/>
<path stroke="#a0c4f7" vector-effect="non-scaling-stroke" d="
  M 88.46 135.11
  A 4.51 4.51 0.0 0 0 83.95 130.60
  A 4.51 4.51 0.0 0 0 79.44 135.11
  A 4.51 4.51 0.0 0 0 83.95 139.62
  A 4.51 4.51 0.0 0 0 88.46 135.11"
/>
</g>
<path fill="#4188ef" d="
  M 167.00 0.00
  L 167.00 159.20
  Q 164.99 167.39 155.75 167.39
  Q 82.68 167.40 9.60 167.41
  Q 2.04 167.41 0.00 159.21
  L 0.00 0.00
  L 167.00 0.00
  Z
  M 91.99 93.64
  L 115.70 107.33
  A 1.01 1.00 -75.0 0 1 116.20 108.20
  L 116.20 111.52
  A 0.77 0.77 0.0 0 1 115.81 112.19
  L 92.87 125.44
  A 0.87 0.86 47.2 0 1 91.95 125.40
  Q 83.41 119.43 75.27 126.03
  A 0.76 0.74 39.6 0 1 74.43 126.10
  L 51.18 112.67
  A 0.90 0.90 0.0 0 1 50.73 111.77
  C 52.77 96.31 31.31 91.67 26.53 105.86
  C 24.69 111.34 26.95 117.49 31.92 120.47
  Q 38.94 124.67 46.42 119.49
  A 0.83 0.82 42.1 0 1 47.29 119.45
  L 71.00 133.14
  A 0.93 0.92 16.3 0 1 71.46 133.97
  C 70.89 152.59 98.19 151.71 96.33 133.07
  A 0.89 0.88 -18.2 0 1 96.77 132.21
  L 119.77 118.93
  A 0.90 0.89 -40.2 0 1 120.77 119.01
  C 129.33 125.85 141.36 119.38 141.06 108.79
  C 140.75 97.50 127.63 93.27 119.88 100.32
  A 0.51 0.51 0.0 0 1 119.28 100.38
  L 95.98 86.93
  A 1.17 1.15 19.0 0 1 95.41 85.78
  C 96.86 74.16 84.35 67.45 75.10 74.25
  A 0.83 0.81 -47.6 0 1 74.20 74.30
  L 51.25 61.05
  A 1.12 1.12 0.0 0 1 50.71 59.86
  Q 51.10 57.93 50.71 56.25
  A 0.90 0.89 68.6 0 1 51.13 55.27
  L 74.20 41.95
  A 0.87 0.86 47.2 0 1 75.12 41.99
  Q 83.07 47.66 91.06 42.00
  A 0.84 0.84 0.0 0 1 91.97 41.95
  L 115.08 55.30
  A 0.92 0.92 0.0 0 1 115.53 56.19
  C 114.84 62.55 118.09 69.12 124.67 70.24
  C 131.24 71.37 136.90 68.82 139.45 62.42
  C 141.42 57.46 139.61 51.25 135.16 48.10
  Q 127.81 42.90 119.54 48.30
  A 0.86 0.86 0.0 0 1 118.64 48.33
  L 95.64 35.05
  A 0.59 0.59 0.0 0 1 95.35 34.45
  C 96.97 23.74 85.55 15.68 76.23 21.80
  Q 69.87 25.99 70.70 34.32
  A 0.92 0.91 -18.4 0 1 70.25 35.20
  L 47.34 48.42
  A 0.86 0.85 46.4 0 1 46.43 48.39
  Q 38.03 42.83 30.74 48.25
  C 26.70 51.25 24.91 56.89 26.40 61.59
  C 29.19 70.43 38.75 73.22 46.41 67.80
  A 0.77 0.76 -47.5 0 1 47.23 67.76
  L 70.31 81.08
  A 0.89 0.88 -70.9 0 1 70.74 81.98
  C 70.02 86.77 71.89 91.44 75.94 94.22
  Q 83.07 99.09 91.07 93.67
  A 0.87 0.87 0.0 0 1 91.99 93.64
  Z"
/>
<path fill="#ffffff" d="
  M 91.07 93.67
  Q 83.07 99.09 75.94 94.22
  C 71.89 91.44 70.02 86.77 70.74 81.98
  A 0.89 0.88 -70.9 0 0 70.31 81.08
  L 47.23 67.76
  A 0.77 0.76 -47.5 0 0 46.41 67.80
  C 38.75 73.22 29.19 70.43 26.40 61.59
  C 24.91 56.89 26.70 51.25 30.74 48.25
  Q 38.03 42.83 46.43 48.39
  A 0.86 0.85 46.4 0 0 47.34 48.42
  L 70.25 35.20
  A 0.92 0.91 -18.4 0 0 70.70 34.32
  Q 69.87 25.99 76.23 21.80
  C 85.55 15.68 96.97 23.74 95.35 34.45
  A 0.59 0.59 0.0 0 0 95.64 35.05
  L 118.64 48.33
  A 0.86 0.86 0.0 0 0 119.54 48.30
  Q 127.81 42.90 135.16 48.10
  C 139.61 51.25 141.42 57.46 139.45 62.42
  C 136.90 68.82 131.24 71.37 124.67 70.24
  C 118.09 69.12 114.84 62.55 115.53 56.19
  A 0.92 0.92 0.0 0 0 115.08 55.30
  L 91.97 41.95
  A 0.84 0.84 0.0 0 0 91.06 42.00
  Q 83.07 47.66 75.12 41.99
  A 0.87 0.86 47.2 0 0 74.20 41.95
  L 51.13 55.27
  A 0.90 0.89 68.6 0 0 50.71 56.25
  Q 51.10 57.93 50.71 59.86
  A 1.12 1.12 0.0 0 0 51.25 61.05
  L 74.20 74.30
  A 0.83 0.81 -47.6 0 0 75.10 74.25
  C 84.35 67.45 96.86 74.16 95.41 85.78
  A 1.17 1.15 19.0 0 0 95.98 86.93
  L 119.28 100.38
  A 0.51 0.51 0.0 0 0 119.88 100.32
  C 127.63 93.27 140.75 97.50 141.06 108.79
  C 141.36 119.38 129.33 125.85 120.77 119.01
  A 0.90 0.89 -40.2 0 0 119.77 118.93
  L 96.77 132.21
  A 0.89 0.88 -18.2 0 0 96.33 133.07
  C 98.19 151.71 70.89 152.59 71.46 133.97
  A 0.93 0.92 16.3 0 0 71.00 133.14
  L 47.29 119.45
  A 0.83 0.82 42.1 0 0 46.42 119.49
  Q 38.94 124.67 31.92 120.47
  C 26.95 117.49 24.69 111.34 26.53 105.86
  C 31.31 91.67 52.77 96.31 50.73 111.77
  A 0.90 0.90 0.0 0 0 51.18 112.67
  L 74.43 126.10
  A 0.76 0.74 39.6 0 0 75.27 126.03
  Q 83.41 119.43 91.95 125.40
  A 0.87 0.86 47.2 0 0 92.87 125.44
  L 115.81 112.19
  A 0.77 0.77 0.0 0 0 116.20 111.52
  L 116.20 108.20
  A 1.01 1.00 -75.0 0 0 115.70 107.33
  L 91.99 93.64
  A 0.87 0.87 0.0 0 0 91.07 93.67
  Z
  M 87.56 32.27
  A 4.51 4.51 0.0 0 0 83.05 27.76
  A 4.51 4.51 0.0 0 0 78.54 32.27
  A 4.51 4.51 0.0 0 0 83.05 36.78
  A 4.51 4.51 0.0 0 0 87.56 32.27
  Z
  M 42.90 58.11
  A 4.51 4.51 0.0 0 0 38.39 53.60
  A 4.51 4.51 0.0 0 0 33.88 58.11
  A 4.51 4.51 0.0 0 0 38.39 62.62
  A 4.51 4.51 0.0 0 0 42.90 58.11
  Z
  M 132.24 58.11
  A 4.52 4.52 0.0 0 0 127.72 53.59
  A 4.52 4.52 0.0 0 0 123.20 58.11
  A 4.52 4.52 0.0 0 0 127.72 62.63
  A 4.52 4.52 0.0 0 0 132.24 58.11
  Z
  M 87.57 83.95
  A 4.52 4.52 0.0 0 0 83.05 79.43
  A 4.52 4.52 0.0 0 0 78.53 83.95
  A 4.52 4.52 0.0 0 0 83.05 88.47
  A 4.52 4.52 0.0 0 0 87.57 83.95
  Z
  M 133.13 109.27
  A 4.51 4.51 0.0 0 0 128.62 104.76
  A 4.51 4.51 0.0 0 0 124.11 109.27
  A 4.51 4.51 0.0 0 0 128.62 113.78
  A 4.51 4.51 0.0 0 0 133.13 109.27
  Z
  M 42.89 109.80
  A 4.51 4.51 0.0 0 0 38.38 105.29
  A 4.51 4.51 0.0 0 0 33.87 109.80
  A 4.51 4.51 0.0 0 0 38.38 114.31
  A 4.51 4.51 0.0 0 0 42.89 109.80
  Z
  M 88.46 135.11
  A 4.51 4.51 0.0 0 0 83.95 130.60
  A 4.51 4.51 0.0 0 0 79.44 135.11
  A 4.51 4.51 0.0 0 0 83.95 139.62
  A 4.51 4.51 0.0 0 0 88.46 135.11
  Z"
/>
<circle fill="#4188ef" cx="83.05" cy="32.27" r="4.51"/>
<circle fill="#4188ef" cx="38.39" cy="58.11" r="4.51"/>
<circle fill="#4188ef" cx="127.72" cy="58.11" r="4.52"/>
<circle fill="#4188ef" cx="83.05" cy="83.95" r="4.52"/>
<circle fill="#4188ef" cx="128.62" cy="109.27" r="4.51"/>
<circle fill="#4188ef" cx="38.38" cy="109.80" r="4.51"/>
<circle fill="#4188ef" cx="83.95" cy="135.11" r="4.51"/>
</svg>