<?xml version="1.0" encoding="UTF-8" standalone="no"?>
<!DOCTYPE svg PUBLIC "-//W3C//DTD SVG 1.1//EN" "http://www.w3.org/Graphics/SVG/1.1/DTD/svg11.dtd">
<svg xmlns="http://www.w3.org/2000/svg" version="1.1" viewBox="-0.00 -0.00 196.00 196.00" width="128" height="128">
<g stroke-width="2.00" fill="none" stroke-linecap="butt">
<path stroke="#7d24ff" vector-effect="non-scaling-stroke" d="
  M 171.05 151.02
  Q 156.39 131.43 137.71 115.83"
/>
<path stroke="#c491ff" vector-effect="non-scaling-stroke" d="
  M 137.71 115.83
  Q 151.29 102.86 150.46 83.73
  C 149.48 61.17 129.10 46.66 107.77 45.29
  Q 92.80 44.33 79.58 53.22"
/>
<path stroke="#7d24ff" vector-effect="non-scaling-stroke" d="
  M 79.58 53.22
  Q 64.63 36.88 47.69 22.18"
/>
<path stroke="#b892ff" vector-effect="non-scaling-stroke" d="
  M 79.58 53.22
  Q 64.47 65.82 59.30 84.94
  A 0.15 0.15 0.0 0 0 59.56 85.08
  C 69.89 73.97 87.34 71.81 100.14 79.12
  Q 102.99 80.74 104.52 82.56
  A 0.36 0.35 -20.3 0 1 104.25 83.14
  C 82.18 83.38 63.46 94.41 54.64 114.89
  C 49.51 126.80 46.07 143.20 48.64 156.41
  A 0.22 0.21 53.2 0 0 49.04 156.47
  C 49.56 155.48 49.61 153.91 50.11 152.70
  Q 53.10 145.44 59.93 139.36
  C 72.09 128.52 84.59 128.78 100.25 128.41
  C 113.53 128.09 127.21 124.41 137.71 115.83"
/>
</g>
<path fill="#8923ff" d="
  M 171.05 151.02
  Q 156.39 131.43 137.71 115.83
  Q 151.29 102.86 150.46 83.73
  C 149.48 61.17 129.10 46.66 107.77 45.29
  Q 92.80 44.33 79.58 53.22
  Q 64.63 36.88 47.69 22.18
  C 91.48 -15.25 157.92 0.85 184.72 50.05
  C 202.74 83.13 198.18 123.82 171.05 151.02
  Z"
/>
<path fill="#7125ff" d="
  M 47.69 22.18
  Q 64.63 36.88 79.58 53.22
  Q 64.47 65.82 59.30 84.94
  A 0.15 0.15 0.0 0 0 59.56 85.08
  C 69.89 73.97 87.34 71.81 100.14 79.12
  Q 102.99 80.74 104.52 82.56
  A 0.36 0.35 -20.3 0 1 104.25 83.14
  C 82.18 83.38 63.46 94.41 54.64 114.89
  C 49.51 126.80 46.07 143.20 48.64 156.41
  A 0.22 0.21 53.2 0 0 49.04 156.47
  C 49.56 155.48 49.61 153.91 50.11 152.70
  Q 53.10 145.44 59.93 139.36
  C 72.09 128.52 84.59 128.78 100.25 128.41
  C 113.53 128.09 127.21 124.41 137.71 115.83
  Q 156.39 131.43 171.05 151.02
  C 150.63 170.77 123.93 183.21 96.59 188.86
  Q 50.21 198.44 3.30 191.52
  A 0.57 0.55 0.1 0 1 2.82 191.05
  Q 0.65 175.80 0.00 160.27
  L 0.00 143.62
  Q 0.45 135.27 1.17 126.98
  C 4.53 88.45 18.33 48.83 47.69 22.18
  Z"
/>
<path fill="#ffffff" d="
  M 137.71 115.83
  C 127.21 124.41 113.53 128.09 100.25 128.41
  C 84.59 128.78 72.09 128.52 59.93 139.36
  Q 53.10 145.44 50.11 152.70
  C 49.61 153.91 49.56 155.48 49.04 156.47
  A 0.22 0.21 53.2 0 1 48.64 156.41
  C 46.07 143.20 49.51 126.80 54.64 114.89
  C 63.46 94.41 82.18 83.38 104.25 83.14
  A 0.36 0.35 -20.3 0 0 104.52 82.56
  Q 102.99 80.74 100.14 79.12
  C 87.34 71.81 69.89 73.97 59.56 85.08
  A 0.15 0.15 0.0 0 1 59.30 84.94
  Q 64.47 65.82 79.58 53.22
  Q 92.80 44.33 107.77 45.29
  C 129.10 46.66 149.48 61.17 150.46 83.73
  Q 151.29 102.86 137.71 115.83
  Z"
/>
</svg>