<?xml version="1.0" encoding="UTF-8" standalone="no"?>
<!DOCTYPE svg PUBLIC "-//W3C//DTD SVG 1.1//EN" "http://www.w3.org/Graphics/SVG/1.1/DTD/svg11.dtd">
<svg xmlns="http://www.w3.org/2000/svg" version="1.1" viewBox="0.00 0.00 192.00 192.00" width="128" height="128">
<path stroke="#878f98" stroke-width="2.00" fill="none" stroke-linecap="butt" vector-effect="non-scaling-stroke" d="
  M 82.72 96.03
  Q 82.72 96.09 82.71 96.14
  A 0.27 0.20 -13.7 0 1 82.58 96.30
  Q 74.71 100.85 65.80 106.10
  Q 63.63 107.38 61.78 108.30
  Q 59.39 109.50 57.87 110.65
  A 5.31 5.26 13.3 0 1 57.02 111.17
  Q 51.25 114.05 50.14 115.38
  Q 45.72 120.68 50.50 125.27
  A 2.81 2.73 -9.6 0 0 51.33 125.84
  Q 54.73 127.36 58.65 125.10
  Q 80.58 112.48 88.83 107.68
  A 0.38 0.37 75.3 0 1 89.39 108.01
  Q 89.40 132.46 89.39 142.98
  C 89.38 145.72 89.97 147.63 92.10 149.21
  C 95.30 151.60 99.83 150.47 101.77 147.04
  Q 102.66 145.47 102.60 141.35
  Q 102.52 135.61 102.59 107.93
  A 0.34 0.34 0.0 0 1 103.10 107.64
  Q 115.89 115.08 132.30 124.56
  Q 135.45 126.38 136.83 126.51
  Q 139.28 126.75 141.43 125.02
  C 145.10 122.07 144.61 116.68 140.59 114.26
  Q 127.96 106.68 116.68 100.56
  Q 111.26 97.62 109.33 96.19
  A 0.14 0.11 20.5 0 1 109.27 96.09
  Q 109.27 96.07 109.27 96.04
  Q 109.27 96.00 109.27 95.98
  A 0.14 0.11 -20.5 0 1 109.33 95.88
  Q 111.26 94.45 116.68 91.51
  Q 127.96 85.39 140.59 77.82
  C 144.61 75.40 145.10 70.01 141.43 67.06
  Q 139.28 65.33 136.83 65.56
  Q 135.45 65.69 132.30 67.51
  Q 115.89 76.99 103.10 84.43
  A 0.34 0.34 0.0 0 1 102.59 84.14
  Q 102.53 56.46 102.61 50.72
  Q 102.67 46.60 101.78 45.03
  C 99.84 41.60 95.31 40.47 92.11 42.86
  C 89.98 44.44 89.39 46.35 89.40 49.09
  Q 89.40 59.61 89.39 84.06
  A 0.38 0.37 -75.2 0 1 88.83 84.39
  Q 80.58 79.59 58.65 66.96
  Q 54.73 64.70 51.33 66.22
  A 2.81 2.73 9.6 0 0 50.50 66.79
  Q 45.72 71.38 50.14 76.68
  Q 51.25 78.01 57.02 80.89
  A 5.31 5.26 -13.3 0 1 57.87 81.41
  Q 59.39 82.56 61.78 83.77
  Q 63.63 84.69 65.80 85.97
  Q 74.71 91.22 82.58 95.77
  A 0.27 0.20 13.7 0 1 82.71 95.93
  Q 82.72 95.98 82.72 96.03"
/>
<path fill="#0f1f31" d="
  M 101.67 0.00
  Q 133.58 2.34 157.08 21.92
  Q 188.54 48.11 192.00 90.22
  L 192.00 101.69
  Q 188.91 140.68 161.36 166.36
  Q 136.77 189.29 101.80 192.00
  L 90.30 192.00
  C 41.03 188.26 3.97 151.00 0.00 101.81
  L 0.00 90.30
  Q 2.15 61.05 18.70 38.98
  Q 45.03 3.86 90.19 0.00
  L 101.67 0.00
  Z
  M 82.72 96.03
  Q 82.72 96.09 82.71 96.14
  A 0.27 0.20 -13.7 0 1 82.58 96.30
  Q 74.71 100.85 65.80 106.10
  Q 63.63 107.38 61.78 108.30
  Q 59.39 109.50 57.87 110.65
  A 5.31 5.26 13.3 0 1 57.02 111.17
  Q 51.25 114.05 50.14 115.38
  Q 45.72 120.68 50.50 125.27
  A 2.81 2.73 -9.6 0 0 51.33 125.84
  Q 54.73 127.36 58.65 125.10
  Q 80.58 112.48 88.83 107.68
  A 0.38 0.37 75.3 0 1 89.39 108.01
  Q 89.40 132.46 89.39 142.98
  C 89.38 145.72 89.97 147.63 92.10 149.21
  C 95.30 151.60 99.83 150.47 101.77 147.04
  Q 102.66 145.47 102.60 141.35
  Q 102.52 135.61 102.59 107.93
  A 0.34 0.34 0.0 0 1 103.10 107.64
  Q 115.89 115.08 132.30 124.56
  Q 135.45 126.38 136.83 126.51
  Q 139.28 126.75 141.43 125.02
  C 145.10 122.07 144.61 116.68 140.59 114.26
  Q 127.96 106.68 116.68 100.56
  Q 111.26 97.62 109.33 96.19
  A 0.14 0.11 20.5 0 1 109.27 96.09
  Q 109.27 96.07 109.27 96.04
  Q 109.27 96.00 109.27 95.98
  A 0.14 0.11 -20.5 0 1 109.33 95.88
  Q 111.26 94.45 116.68 91.51
  Q 127.96 85.39 140.59 77.82
  C 144.61 75.40 145.10 70.01 141.43 67.06
  Q 139.28 65.33 136.83 65.56
  Q 135.45 65.69 132.30 67.51
  Q 115.89 76.99 103.10 84.43
  A 0.34 0.34 0.0 0 1 102.59 84.14
  Q 102.53 56.46 102.61 50.72
  Q 102.67 46.60 101.78 45.03
  C 99.84 41.60 95.31 40.47 92.11 42.86
  C 89.98 44.44 89.39 46.35 89.40 49.09
  Q 89.40 59.61 89.39 84.06
  A 0.38 0.37 -75.2 0 1 88.83 84.39
  Q 80.58 79.59 58.65 66.96
  Q 54.73 64.70 51.33 66.22
  A 2.81 2.73 9.6 0 0 50.50 66.79
  Q 45.72 71.38 50.14 76.68
  Q 51.25 78.01 57.02 80.89
  A 5.31 5.26 -13.3 0 1 57.87 81.41
  Q 59.39 82.56 61.78 83.77
  Q 63.63 84.69 65.80 85.97
  Q 74.71 91.22 82.58 95.77
  A 0.27 0.20 13.7 0 1 82.71 95.93
  Q 82.72 95.98 82.72 96.03
  Z"
/>
<path fill="#ffffff" d="
  M 109.27 96.04
  Q 109.27 96.07 109.27 96.09
  A 0.14 0.11 20.5 0 0 109.33 96.19
  Q 111.26 97.62 116.68 100.56
  Q 127.96 106.68 140.59 114.26
  C 144.61 116.68 145.10 122.07 141.43 125.02
  Q 139.28 126.75 136.83 126.51
  Q 135.45 126.38 132.30 124.56
  Q 115.89 115.08 103.10 107.64
  A 0.34 0.34 0.0 0 0 102.59 107.93
  Q 102.52 135.61 102.60 141.35
  Q 102.66 145.47 101.77 147.04
  C 99.83 150.47 95.30 151.60 92.10 149.21
  C 89.97 147.63 89.38 145.72 89.39 142.98
  Q 89.40 132.46 89.39 108.01
  A 0.38 0.37 75.3 0 0 88.83 107.68
  Q 80.58 112.48 58.65 125.10
  Q 54.73 127.36 51.33 125.84
  A 2.81 2.73 -9.6 0 1 50.50 125.27
  Q 45.72 120.68 50.14 115.38
  Q 51.25 114.05 57.02 111.17
  A 5.31 5.26 13.3 0 0 57.87 110.65
  Q 59.39 109.50 61.78 108.30
  Q 63.63 107.38 65.80 106.10
  Q 74.71 100.85 82.58 96.30
  A 0.27 0.20 -13.7 0 0 82.71 96.14
  Q 82.72 96.09 82.72 96.03
  Q 82.72 95.98 82.71 95.93
  A 0.27 0.20 13.7 0 0 82.58 95.77
  Q 74.71 91.22 65.80 85.97
  Q 63.63 84.69 61.78 83.77
  Q 59.39 82.56 57.87 81.41
  A 5.31 5.26 -13.3 0 0 57.02 80.89
  Q 51.25 78.01 50.14 76.68
  Q 45.72 71.38 50.50 66.79
  A 2.81 2.73 9.6 0 1 51.33 66.22
  Q 54.73 64.70 58.65 66.96
  Q 80.58 79.59 88.83 84.39
  A 0.38 0.37 -75.2 0 0 89.39 84.06
  Q 89.40 59.61 89.40 49.09
  C 89.39 46.35 89.98 44.44 92.11 42.86
  C 95.31 40.47 99.84 41.60 101.78 45.03
  Q 102.67 46.60 102.61 50.72
  Q 102.53 56.46 102.59 84.14
  A 0.34 0.34 0.0 0 0 103.10 84.43
  Q 115.89 76.99 132.30 67.51
  Q 135.45 65.69 136.83 65.56
  Q 139.28 65.33 141.43 67.06
  C 145.10 70.01 144.61 75.40 140.59 77.82
  Q 127.96 85.39 116.68 91.51
  Q 111.26 94.45 109.33 95.88
  A 0.14 0.11 -20.5 0 0 109.27 95.98
  Q 109.27 96.00 109.27 96.04
  Z"
/>
</svg>