<?xml version="1.0" encoding="UTF-8" standalone="no"?>
<!DOCTYPE svg PUBLIC "-//W3C//DTD SVG 1.1//EN" "http://www.w3.org/Graphics/SVG/1.1/DTD/svg11.dtd">
<svg xmlns="http://www.w3.org/2000/svg" version="1.1" viewBox="0.00 0.00 512.00 512.00" width="128" height="128">
<g stroke-width="2.00" fill="none" stroke-linecap="butt">
<path stroke="#ee8bad" vector-effect="non-scaling-stroke" d="
  M 314.20 158.44
  Q 285.41 134.47 247.20 134.06
  C 164.38 133.18 104.94 213.52 129.55 292.42
  C 148.01 351.65 209.07 388.29 269.73 375.40
  Q 294.77 370.08 314.02 352.92
  A 0.29 0.29 0.0 0 1 314.51 353.14
  L 314.51 375.95
  A 0.29 0.29 0.0 0 0 314.80 376.24
  L 387.61 376.24
  A 0.41 0.41 0.0 0 0 388.02 375.83
  L 388.02 331.45
  A 0.58 0.58 0.0 0 0 387.44 330.87
  L 366.54 330.87
  A 0.42 0.41 -0.0 0 1 366.12 330.46
  L 366.12 181.63
  A 0.50 0.50 0.0 0 1 366.62 181.13
  L 387.47 181.13
  A 0.55 0.54 -90.0 0 0 388.01 180.58
  L 388.01 136.16
  A 0.40 0.40 0.0 0 0 387.61 135.76
  L 314.84 135.76
  A 0.33 0.32 -0.0 0 0 314.51 136.08
  L 314.51 158.29
  A 0.19 0.19 0.0 0 1 314.20 158.44"
/>
<path stroke="#ee8bad" vector-effect="non-scaling-stroke" d="
  M 242.8786 182.1549
  A 73.68 72.82 -92.0 0 0 172.6744 258.3314
  A 73.68 72.82 -92.0 0 0 248.0214 329.4251
  A 73.68 72.82 -92.0 0 0 318.2256 253.2486
  A 73.68 72.82 -92.0 0 0 242.8786 182.1549"
/>
</g>
<path fill="#e72164" d="
  M 512.00 0.00
  L 512.00 512.00
  L 0.00 512.00
  L 0.00 0.00
  L 512.00 0.00
  Z
  M 314.20 158.44
  Q 285.41 134.47 247.20 134.06
  C 164.38 133.18 104.94 213.52 129.55 292.42
  C 148.01 351.65 209.07 388.29 269.73 375.40
  Q 294.77 370.08 314.02 352.92
  A 0.29 0.29 0.0 0 1 314.51 353.14
  L 314.51 375.95
  A 0.29 0.29 0.0 0 0 314.80 376.24
  L 387.61 376.24
  A 0.41 0.41 0.0 0 0 388.02 375.83
  L 388.02 331.45
  A 0.58 0.58 0.0 0 0 387.44 330.87
  L 366.54 330.87
  A 0.42 0.41 -0.0 0 1 366.12 330.46
  L 366.12 181.63
  A 0.50 0.50 0.0 0 1 366.62 181.13
  L 387.47 181.13
  A 0.55 0.54 -90.0 0 0 388.01 180.58
  L 388.01 136.16
  A 0.40 0.40 0.0 0 0 387.61 135.76
  L 314.84 135.76
  A 0.33 0.32 -0.0 0 0 314.51 136.08
  L 314.51 158.29
  A 0.19 0.19 0.0 0 1 314.20 158.44
  Z"
/>
<path fill="#f5f5f5" d="
  M 314.20 158.44
  A 0.19 0.19 0.0 0 0 314.51 158.29
  L 314.51 136.08
  A 0.33 0.32 -0.0 0 1 314.84 135.76
  L 387.61 135.76
  A 0.40 0.40 0.0 0 1 388.01 136.16
  L 388.01 180.58
  A 0.55 0.54 90.0 0 1 387.47 181.13
  L 366.62 181.13
  A 0.50 0.50 0.0 0 0 366.12 181.63
  L 366.12 330.46
  A 0.42 0.41 -0.0 0 0 366.54 330.87
  L 387.44 330.87
  A 0.58 0.58 0.0 0 1 388.02 331.45
  L 388.02 375.83
  A 0.41 0.41 0.0 0 1 387.61 376.24
  L 314.80 376.24
  A 0.29 0.29 0.0 0 1 314.51 375.95
  L 314.51 353.14
  A 0.29 0.29 0.0 0 0 314.02 352.92
  Q 294.77 370.08 269.73 375.40
  C 209.07 388.29 148.01 351.65 129.55 292.42
  C 104.94 213.52 164.38 133.18 247.20 134.06
  Q 285.41 134.47 314.20 158.44
  Z
  M 242.8786 182.1549
  A 73.68 72.82 -92.0 0 0 172.6744 258.3314
  A 73.68 72.82 -92.0 0 0 248.0214 329.4251
  A 73.68 72.82 -92.0 0 0 318.2256 253.2486
  A 73.68 72.82 -92.0 0 0 242.8786 182.1549
  Z"
/>
<ellipse fill="#e72164" cx="0.00" cy="0.00" transform="translate(245.45,255.79) rotate(-92.0)" rx="73.68" ry="72.82"/>
</svg>