<?xml version="1.0" encoding="UTF-8" standalone="no"?>
<!DOCTYPE svg PUBLIC "-//W3C//DTD SVG 1.1//EN" "http://www.w3.org/Graphics/SVG/1.1/DTD/svg11.dtd">
<svg xmlns="http://www.w3.org/2000/svg" version="1.1" viewBox="0.00 0.00 512.00 512.00" width="128" height="128">
<g stroke-width="2.00" fill="none" stroke-linecap="butt">
<path stroke="#597c94" vector-effect="non-scaling-stroke" d="
  M 481.06 257.70
  A 225.30 225.30 0.0 0 0 255.76 32.40
  A 225.30 225.30 0.0 0 0 30.46 257.70
  A 225.30 225.30 0.0 0 0 255.76 483.00
  A 225.30 225.30 0.0 0 0 481.06 257.70"
/>
<path stroke="#91a0ab" vector-effect="non-scaling-stroke" d="
  M 243.60 151.53
  C 238.12 151.29 232.03 151.83 226.94 151.79
  Q 199.99 151.58 175.01 152.06
  C 152.15 152.50 129.48 160.19 114.94 178.26
  Q 110.04 184.35 105.95 193.25
  C 96.73 213.26 94.16 235.85 93.34 258.00
  C 92.00 294.33 101.16 338.01 137.03 356.39
  C 147.67 361.83 163.27 363.61 175.25 363.72
  Q 181.43 363.77 244.21 363.74
  A 0.31 0.30 -90.0 0 0 244.51 363.43
  L 244.51 327.15
  A 0.41 0.40 -90.0 0 0 244.11 326.74
  Q 227.15 326.68 180.86 327.04
  C 173.76 327.10 166.79 326.35 160.73 324.50
  C 149.18 320.98 141.72 306.80 139.39 295.85
  Q 137.02 284.69 137.33 272.09
  C 137.60 260.98 137.45 252.14 137.55 240.76
  C 137.79 213.94 148.94 188.97 179.51 188.83
  Q 217.02 188.66 243.90 188.79
  A 0.35 0.34 -89.2 0 0 244.25 188.44
  L 244.25 152.21
  A 0.68 0.68 0.0 0 0 243.60 151.53"
/>
<path stroke="#4c7895" vector-effect="non-scaling-stroke" d="
  M 267.00 152.51
  L 267.00 188.07
  A 0.42 0.42 0.0 0 0 267.42 188.49
  Q 315.72 188.60 328.09 188.44
  Q 336.64 188.32 341.44 189.26
  C 358.68 192.63 365.36 203.00 369.75 218.77
  Q 376.10 241.54 375.71 265.01
  C 375.43 282.22 374.35 300.80 363.79 314.99
  C 357.46 323.48 351.00 325.36 340.22 326.78
  Q 335.91 327.35 328.26 327.27
  Q 303.51 327.02 267.68 326.90
  A 0.69 0.69 0.0 0 0 266.99 327.59
  L 266.99 363.24
  A 0.75 0.74 -90.0 0 0 267.73 363.99
  Q 320.50 364.04 335.49 363.96
  Q 345.55 363.91 358.05 361.75
  C 376.85 358.50 392.03 346.90 402.08 331.05
  C 413.70 312.74 417.89 288.23 418.24 266.51
  Q 418.35 259.28 417.80 248.99
  C 416.64 227.30 412.51 203.96 401.53 185.69
  C 388.89 164.66 366.69 154.22 342.24 152.56
  Q 337.12 152.21 330.00 152.15
  Q 288.10 151.80 287.56 151.78
  Q 283.71 151.65 267.65 151.84
  A 0.67 0.66 89.6 0 0 267.00 152.51"
/>
<path stroke="#4c7895" vector-effect="non-scaling-stroke" d="
  M 255.7864 235.9791
  A 23.41 22.34 -91.6 0 0 234.1087 260.0038
  A 23.41 22.34 -91.6 0 0 257.0936 282.7809
  A 23.41 22.34 -91.6 0 0 278.7713 258.7562
  A 23.41 22.34 -91.6 0 0 255.7864 235.9791"
/>
<path stroke="#91a0ab" vector-effect="non-scaling-stroke" d="
  M 161.12 258.59
  Q 161.12 258.61 161.14 258.66
  A 0.18 0.05 73.2 0 0 161.22 258.79
  L 226.66 269.79
  A 0.39 0.39 0.0 0 0 227.10 269.31
  C 226.10 265.69 225.27 261.85 225.24 258.03
  C 225.21 254.22 225.97 250.36 226.91 246.73
  A 0.39 0.39 0.0 0 0 226.46 246.25
  L 161.22 258.39
  A 0.18 0.05 -74.2 0 0 161.14 258.52
  Q 161.12 258.57 161.12 258.59"
/>
</g>
<path fill="#8fb8d1" d="
  M 501.82 257.70
  A 246.06 246.06 0.0 0 1 255.76 503.76
  A 246.06 246.06 0.0 0 1 9.70 257.70
  A 246.06 246.06 0.0 0 1 255.76 11.64
  A 246.06 246.06 0.0 0 1 501.82 257.70
  Z
  M 481.06 257.70
  A 225.30 225.30 0.0 0 0 255.76 32.40
  A 225.30 225.30 0.0 0 0 30.46 257.70
  A 225.30 225.30 0.0 0 0 255.76 483.00
  A 225.30 225.30 0.0 0 0 481.06 257.70
  Z"
/>
<path fill="#224057" d="
  M 481.06 257.70
  A 225.30 225.30 0.0 0 1 255.76 483.00
  A 225.30 225.30 0.0 0 1 30.46 257.70
  A 225.30 225.30 0.0 0 1 255.76 32.40
  A 225.30 225.30 0.0 0 1 481.06 257.70
  Z
  M 243.60 151.53
  C 238.12 151.29 232.03 151.83 226.94 151.79
  Q 199.99 151.58 175.01 152.06
  C 152.15 152.50 129.48 160.19 114.94 178.26
  Q 110.04 184.35 105.95 193.25
  C 96.73 213.26 94.16 235.85 93.34 258.00
  C 92.00 294.33 101.16 338.01 137.03 356.39
  C 147.67 361.83 163.27 363.61 175.25 363.72
  Q 181.43 363.77 244.21 363.74
  A 0.31 0.30 -90.0 0 0 244.51 363.43
  L 244.51 327.15
  A 0.41 0.40 -90.0 0 0 244.11 326.74
  Q 227.15 326.68 180.86 327.04
  C 173.76 327.10 166.79 326.35 160.73 324.50
  C 149.18 320.98 141.72 306.80 139.39 295.85
  Q 137.02 284.69 137.33 272.09
  C 137.60 260.98 137.45 252.14 137.55 240.76
  C 137.79 213.94 148.94 188.97 179.51 188.83
  Q 217.02 188.66 243.90 188.79
  A 0.35 0.34 -89.2 0 0 244.25 188.44
  L 244.25 152.21
  A 0.68 0.68 0.0 0 0 243.60 151.53
  Z
  M 267.00 152.51
  L 267.00 188.07
  A 0.42 0.42 0.0 0 0 267.42 188.49
  Q 315.72 188.60 328.09 188.44
  Q 336.64 188.32 341.44 189.26
  C 358.68 192.63 365.36 203.00 369.75 218.77
  Q 376.10 241.54 375.71 265.01
  C 375.43 282.22 374.35 300.80 363.79 314.99
  C 357.46 323.48 351.00 325.36 340.22 326.78
  Q 335.91 327.35 328.26 327.27
  Q 303.51 327.02 267.68 326.90
  A 0.69 0.69 0.0 0 0 266.99 327.59
  L 266.99 363.24
  A 0.75 0.74 -90.0 0 0 267.73 363.99
  Q 320.50 364.04 335.49 363.96
  Q 345.55 363.91 358.05 361.75
  C 376.85 358.50 392.03 346.90 402.08 331.05
  C 413.70 312.74 417.89 288.23 418.24 266.51
  Q 418.35 259.28 417.80 248.99
  C 416.64 227.30 412.51 203.96 401.53 185.69
  C 388.89 164.66 366.69 154.22 342.24 152.56
  Q 337.12 152.21 330.00 152.15
  Q 288.10 151.80 287.56 151.78
  Q 283.71 151.65 267.65 151.84
  A 0.67 0.66 89.6 0 0 267.00 152.51
  Z
  M 255.7864 235.9791
  A 23.41 22.34 -91.6 0 0 234.1087 260.0038
  A 23.41 22.34 -91.6 0 0 257.0936 282.7809
  A 23.41 22.34 -91.6 0 0 278.7713 258.7562
  A 23.41 22.34 -91.6 0 0 255.7864 235.9791
  Z
  M 161.12 258.59
  Q 161.12 258.61 161.14 258.66
  A 0.18 0.05 73.2 0 0 161.22 258.79
  L 226.66 269.79
  A 0.39 0.39 0.0 0 0 227.10 269.31
  C 226.10 265.69 225.27 261.85 225.24 258.03
  C 225.21 254.22 225.97 250.36 226.91 246.73
  A 0.39 0.39 0.0 0 0 226.46 246.25
  L 161.22 258.39
  A 0.18 0.05 -74.2 0 0 161.14 258.52
  Q 161.12 258.57 161.12 258.59
  Z"
/>
<path fill="#ffffff" d="
  M 244.25 152.21
  L 244.25 188.44
  A 0.35 0.34 -89.2 0 1 243.90 188.79
  Q 217.02 188.66 179.51 188.83
  C 148.94 188.97 137.79 213.94 137.55 240.76
  C 137.45 252.14 137.60 260.98 137.33 272.09
  Q 137.02 284.69 139.39 295.85
  C 141.72 306.80 149.18 320.98 160.73 324.50
  C 166.79 326.35 173.76 327.10 180.86 327.04
  Q 227.15 326.68 244.11 326.74
  A 0.41 0.40 90.0 0 1 244.51 327.15
  L 244.51 363.43
  A 0.31 0.30 90.0 0 1 244.21 363.74
  Q 181.43 363.77 175.25 363.72
  C 163.27 363.61 147.67 361.83 137.03 356.39
  C 101.16 338.01 92.00 294.33 93.34 258.00
  C 94.16 235.85 96.73 213.26 105.95 193.25
  Q 110.04 184.35 114.94 178.26
  C 129.48 160.19 152.15 152.50 175.01 152.06
  Q 199.99 151.58 226.94 151.79
  C 232.03 151.83 238.12 151.29 243.60 151.53
  A 0.68 0.68 0.0 0 1 244.25 152.21
  Z"
/>
<path fill="#76afd3" d="
  M 267.65 151.84
  Q 283.71 151.65 287.56 151.78
  Q 288.10 151.80 330.00 152.15
  Q 337.12 152.21 342.24 152.56
  C 366.69 154.22 388.89 164.66 401.53 185.69
  C 412.51 203.96 416.64 227.30 417.80 248.99
  Q 418.35 259.28 418.24 266.51
  C 417.89 288.23 413.70 312.74 402.08 331.05
  C 392.03 346.90 376.85 358.50 358.05 361.75
  Q 345.55 363.91 335.49 363.96
  Q 320.50 364.04 267.73 363.99
  A 0.75 0.74 -90.0 0 1 266.99 363.24
  L 266.99 327.59
  A 0.69 0.69 0.0 0 1 267.68 326.90
  Q 303.51 327.02 328.26 327.27
  Q 335.91 327.35 340.22 326.78
  C 351.00 325.36 357.46 323.48 363.79 314.99
  C 374.35 300.80 375.43 282.22 375.71 265.01
  Q 376.10 241.54 369.75 218.77
  C 365.36 203.00 358.68 192.63 341.44 189.26
  Q 336.64 188.32 328.09 188.44
  Q 315.72 188.60 267.42 188.49
  A 0.42 0.42 0.0 0 1 267.00 188.07
  L 267.00 152.51
  A 0.67 0.66 89.6 0 1 267.65 151.84
  Z"
/>
<ellipse fill="#76afd3" cx="0.00" cy="0.00" transform="translate(256.44,259.38) rotate(-91.6)" rx="23.41" ry="22.34"/>
<path fill="#ffffff" d="
  M 225.24 258.03
  C 225.27 261.85 226.10 265.69 227.10 269.31
  A 0.39 0.39 0.0 0 1 226.66 269.79
  L 161.22 258.79
  A 0.18 0.05 73.2 0 1 161.14 258.66
  Q 161.12 258.61 161.12 258.59
  Q 161.12 258.57 161.14 258.52
  A 0.18 0.05 -74.2 0 1 161.22 258.39
  L 226.46 246.25
  A 0.39 0.39 0.0 0 1 226.91 246.73
  C 225.97 250.36 225.21 254.22 225.24 258.03
  Z"
/>
</svg>