<?xml version="1.0" encoding="UTF-8" standalone="no"?>
<!DOCTYPE svg PUBLIC "-//W3C//DTD SVG 1.1//EN" "http://www.w3.org/Graphics/SVG/1.1/DTD/svg11.dtd">
<svg xmlns="http://www.w3.org/2000/svg" version="1.1" viewBox="0.00 0.00 180.00 180.00" width="128" height="128">
<g stroke-width="2.00" fill="none" stroke-linecap="butt">
<path stroke="#92f9bc" vector-effect="non-scaling-stroke" d="
  M 98.66 50.00
  Q 103.69 50.03 142.26 50.02
  Q 149.90 50.03 152.84 48.60
  C 161.81 44.28 161.31 35.85 161.10 27.03
  C 160.94 20.50 157.62 15.34 151.72 13.06
  Q 149.24 12.10 141.39 12.14
  Q 118.45 12.22 117.67 12.21
  Q 110.00 11.99 107.26 13.13
  C 99.97 16.17 97.90 21.60 97.88 29.62
  Q 97.84 43.15 97.96 49.31
  A 0.71 0.70 -0.1 0 0 98.66 50.00"
/>
<path stroke="#bebeff" vector-effect="non-scaling-stroke" d="
  M 83.00 41.91
  A 14.51 14.51 0.0 0 0 68.49 27.40
  L 34.51 27.40
  A 14.51 14.51 0.0 0 0 20.00 41.91
  L 20.00 100.89
  A 14.51 14.51 0.0 0 0 34.51 115.40
  L 68.49 115.40
  A 14.51 14.51 0.0 0 0 83.00 100.89
  L 83.00 41.91"
/>
<path stroke="#bebeff" vector-effect="non-scaling-stroke" d="
  M 161.0522 79.1250
  A 14.58 14.58 0.0 0 0 146.4976 64.5196
  L 112.6577 64.4605
  A 14.58 14.58 0.0 0 0 98.0523 79.0151
  L 97.9478 138.8350
  A 14.58 14.58 0.0 0 0 112.5024 153.4404
  L 146.3423 153.4995
  A 14.58 14.58 0.0 0 0 160.9477 138.9449
  L 161.0522 79.1250"
/>
<path stroke="#8fa7ff" vector-effect="non-scaling-stroke" d="
  M 82.45 129.99
  Q 77.38 129.95 38.47 129.88
  Q 30.76 129.86 27.79 131.29
  C 18.74 135.63 19.22 144.14 19.42 153.04
  C 19.57 159.63 22.90 164.84 28.85 167.15
  Q 31.35 168.12 39.27 168.10
  Q 62.41 168.06 63.20 168.08
  Q 70.94 168.31 73.70 167.17
  C 81.06 164.12 83.16 158.64 83.20 150.55
  Q 83.27 136.90 83.16 130.69
  A 0.72 0.71 0.0 0 0 82.45 129.99"
/>
</g>
<path fill="#ffffff" d="
  M 180.00 0.00
  L 180.00 180.00
  L 0.00 180.00
  L 0.00 0.00
  L 180.00 0.00
  Z
  M 98.66 50.00
  Q 103.69 50.03 142.26 50.02
  Q 149.90 50.03 152.84 48.60
  C 161.81 44.28 161.31 35.85 161.10 27.03
  C 160.94 20.50 157.62 15.34 151.72 13.06
  Q 149.24 12.10 141.39 12.14
  Q 118.45 12.22 117.67 12.21
  Q 110.00 11.99 107.26 13.13
  C 99.97 16.17 97.90 21.60 97.88 29.62
  Q 97.84 43.15 97.96 49.31
  A 0.71 0.70 -0.1 0 0 98.66 50.00
  Z
  M 83.00 41.91
  A 14.51 14.51 0.0 0 0 68.49 27.40
  L 34.51 27.40
  A 14.51 14.51 0.0 0 0 20.00 41.91
  L 20.00 100.89
  A 14.51 14.51 0.0 0 0 34.51 115.40
  L 68.49 115.40
  A 14.51 14.51 0.0 0 0 83.00 100.89
  L 83.00 41.91
  Z
  M 161.0522 79.1250
  A 14.58 14.58 0.0 0 0 146.4976 64.5196
  L 112.6577 64.4605
  A 14.58 14.58 0.0 0 0 98.0523 79.0151
  L 97.9478 138.8350
  A 14.58 14.58 0.0 0 0 112.5024 153.4404
  L 146.3423 153.4995
  A 14.58 14.58 0.0 0 0 160.9477 138.9449
  L 161.0522 79.1250
  Z
  M 82.45 129.99
  Q 77.38 129.95 38.47 129.88
  Q 30.76 129.86 27.79 131.29
  C 18.74 135.63 19.22 144.14 19.42 153.04
  C 19.57 159.63 22.90 164.84 28.85 167.15
  Q 31.35 168.12 39.27 168.10
  Q 62.41 168.06 63.20 168.08
  Q 70.94 168.31 73.70 167.17
  C 81.06 164.12 83.16 158.64 83.20 150.55
  Q 83.27 136.90 83.16 130.69
  A 0.72 0.71 0.0 0 0 82.45 129.99
  Z"
/>
<path fill="#25f278" d="
  M 98.66 50.00
  A 0.71 0.70 -0.1 0 1 97.96 49.31
  Q 97.84 43.15 97.88 29.62
  C 97.90 21.60 99.97 16.17 107.26 13.13
  Q 110.00 11.99 117.67 12.21
  Q 118.45 12.22 141.39 12.14
  Q 149.24 12.10 151.72 13.06
  C 157.62 15.34 160.94 20.50 161.10 27.03
  C 161.31 35.85 161.81 44.28 152.84 48.60
  Q 149.90 50.03 142.26 50.02
  Q 103.69 50.03 98.66 50.00
  Z"
/>
<rect fill="#7d7dff" x="20.00" y="27.40" width="63.00" height="88.00" rx="14.51"/>
<rect fill="#7d7dff" x="-31.50" y="-44.49" transform="translate(129.50,108.98) rotate(0.1)" width="63.00" height="88.98" rx="14.58"/>
<path fill="#1f4fff" d="
  M 83.16 130.69
  Q 83.27 136.90 83.20 150.55
  C 83.16 158.64 81.06 164.12 73.70 167.17
  Q 70.94 168.31 63.20 168.08
  Q 62.41 168.06 39.27 168.10
  Q 31.35 168.12 28.85 167.15
  C 22.90 164.84 19.57 159.63 19.42 153.04
  C 19.22 144.14 18.74 135.63 27.79 131.29
  Q 30.76 129.86 38.47 129.88
  Q 77.38 129.95 82.45 129.99
  A 0.72 0.71 0.0 0 1 83.16 130.69
  Z"
/>
</svg>