<?xml version="1.0" encoding="UTF-8" standalone="no"?>
<!DOCTYPE svg PUBLIC "-//W3C//DTD SVG 1.1//EN" "http://www.w3.org/Graphics/SVG/1.1/DTD/svg11.dtd">
<svg xmlns="http://www.w3.org/2000/svg" version="1.1" viewBox="-0.00 -0.00 196.00 196.00" width="128" height="128">
<g stroke-width="2.00" fill="none" stroke-linecap="butt">
<path stroke="#54ccf8" vector-effect="non-scaling-stroke" d="
  M 164.97 85.94
  L 141.51 99.23"
/>
<path stroke="#56d3fb" vector-effect="non-scaling-stroke" d="
  M 141.51 99.23
  Q 122.16 110.06 102.60 121.02
  Q 97.48 123.88 92.28 120.73
  Q 86.79 117.42 65.11 105.33"
/>
<path stroke="#54ccf8" vector-effect="non-scaling-stroke" d="
  M 65.11 105.33
  L 30.89 85.88"
/>
<path stroke="#15a9e9" vector-effect="non-scaling-stroke" d="
  M 165.23 111.45
  Q 165.01 111.58 164.75 111.63
  A 1.50 0.20 -8.7 0 0 163.82 111.90
  L 136.36 127.50"
/>
<path stroke="#13afe9" vector-effect="non-scaling-stroke" d="
  M 136.36 127.50
  Q 119.69 136.83 102.84 146.32
  Q 97.84 149.14 92.90 146.34
  Q 77.56 137.63 62.30 129.06"
/>
<path stroke="#15a9e9" vector-effect="non-scaling-stroke" d="
  M 62.30 129.06
  L 30.89 111.23"
/>
<path stroke="#24bcf4" vector-effect="non-scaling-stroke" d="
  M 65.11 105.33
  Q 45.23 105.78 25.71 108.16"
/>
<path stroke="#24bcf4" vector-effect="non-scaling-stroke" d="
  M 180.53 102.06
  L 141.51 99.23"
/>
<path stroke="#0294db" vector-effect="non-scaling-stroke" d="
  M 62.30 129.06
  L 20.20 130.41"
/>
<path stroke="#0294db" vector-effect="non-scaling-stroke" d="
  M 178.65 128.84
  L 136.36 127.50"
/>
</g>
<path fill="#85e3ff" d="
  M 164.97 85.94
  L 141.51 99.23
  Q 122.16 110.06 102.60 121.02
  Q 97.48 123.88 92.28 120.73
  Q 86.79 117.42 65.11 105.33
  L 30.89 85.88
  Q 24.05 81.92 17.33 78.18
  Q 15.40 77.11 14.89 74.51
  Q 14.02 70.13 18.09 67.83
  Q 81.71 31.97 133.52 2.49
  C 138.03 -0.07 142.52 2.94 142.50 8.00
  Q 142.41 31.89 142.52 47.32
  A 0.97 0.96 15.0 0 0 143.01 48.16
  Q 159.88 57.68 178.36 68.12
  Q 181.18 69.71 181.42 72.58
  C 181.77 76.87 179.06 77.91 175.26 80.07
  Q 170.12 82.99 164.97 85.94
  Z"
/>
<path fill="#22b4f1" d="
  M 65.11 105.33
  Q 45.23 105.78 25.71 108.16
  L 16.64 103.00
  A 2.61 2.59 88.9 0 1 15.71 102.10
  Q 13.74 99.04 15.05 96.03
  Q 15.69 94.56 19.78 92.26
  Q 25.26 89.19 30.89 85.88
  L 65.11 105.33
  Z"
/>
<path fill="#22b4f1" d="
  M 164.97 85.94
  Q 170.87 89.15 176.65 92.53
  Q 180.28 94.65 181.04 96.35
  Q 182.14 98.81 180.53 102.06
  L 141.51 99.23
  L 164.97 85.94
  Z"
/>
<path fill="#26c3f6" d="
  M 141.51 99.23
  L 180.53 102.06
  L 165.54 110.93
  A 0.39 0.38 85.9 0 0 165.36 111.14
  L 165.23 111.45
  Q 165.01 111.58 164.75 111.63
  A 1.50 0.20 -8.7 0 0 163.82 111.90
  L 136.36 127.50
  Q 119.69 136.83 102.84 146.32
  Q 97.84 149.14 92.90 146.34
  Q 77.56 137.63 62.30 129.06
  L 30.89 111.23
  L 25.71 108.16
  Q 45.23 105.78 65.11 105.33
  Q 86.79 117.42 92.28 120.73
  Q 97.48 123.88 102.60 121.02
  Q 122.16 110.06 141.51 99.23
  Z"
/>
<path fill="#038edb" d="
  M 62.30 129.06
  L 20.20 130.41
  C 17.59 129.38 15.15 127.69 14.60 124.78
  Q 13.85 120.86 17.57 118.81
  Q 24.12 115.21 30.89 111.23
  L 62.30 129.06
  Z"
/>
<path fill="#038edb" d="
  M 178.65 128.84
  L 136.36 127.50
  L 163.82 111.90
  A 1.50 0.20 -8.7 0 1 164.75 111.63
  Q 165.01 111.58 165.23 111.45
  L 179.18 119.43
  A 2.96 2.94 87.2 0 1 180.10 120.27
  Q 183.57 125.12 178.65 128.84
  Z"
/>
<path fill="#009adb" d="
  M 178.65 128.84
  L 61.53 195.01
  A 3.14 3.01 -63.5 0 1 60.58 195.35
  Q 56.57 196.08 54.34 193.16
  Q 53.21 191.67 53.26 186.55
  Q 53.37 175.57 53.30 149.79
  A 0.96 0.95 14.5 0 0 52.82 148.98
  L 20.20 130.41
  L 62.30 129.06
  Q 77.56 137.63 92.90 146.34
  Q 97.84 149.14 102.84 146.32
  Q 119.69 136.83 136.36 127.50
  L 178.65 128.84
  Z"
/>
</svg>