<?xml version="1.0" encoding="UTF-8" standalone="no"?>
<!DOCTYPE svg PUBLIC "-//W3C//DTD SVG 1.1//EN" "http://www.w3.org/Graphics/SVG/1.1/DTD/svg11.dtd">
<svg xmlns="http://www.w3.org/2000/svg" version="1.1" viewBox="0.00 0.00 180.00 180.00" width="128" height="128">
<g stroke-width="2.00" fill="none" stroke-linecap="butt">
<path stroke="#989898" vector-effect="non-scaling-stroke" d="
  M 102.35 118.52
  Q 102.28 118.95 102.24 119.01
  C 95.83 128.66 86.66 133.68 75.78 137.09
  A 0.65 0.65 0.0 0 1 74.94 136.40
  C 75.64 129.49 66.60 126.38 61.47 124.30
  C 52.18 120.53 46.50 113.31 46.79 103.06
  C 46.92 98.56 48.81 93.23 51.37 89.61
  Q 60.33 76.91 74.59 76.03
  C 88.04 75.20 99.89 82.05 104.17 94.91
  A 1.16 1.15 83.4 0 0 105.16 95.70
  C 116.76 96.73 129.57 93.63 137.37 84.41
  C 143.37 77.30 144.10 68.20 137.49 61.21
  C 133.34 56.82 126.80 55.35 120.71 56.73
  Q 107.56 59.68 99.49 70.88
  A 0.97 0.96 -55.6 0 1 98.18 71.13
  C 93.99 68.40 94.42 63.96 95.40 59.36
  Q 97.11 51.37 102.72 46.21
  C 108.80 40.61 116.96 39.04 123.32 44.91
  Q 126.44 47.80 126.27 51.52
  A 1.24 1.24 0.0 0 0 127.51 52.82
  L 130.58 52.82
  A 0.82 0.81 87.1 0 0 131.39 51.92
  Q 130.13 39.72 119.71 37.03
  C 113.57 35.45 106.64 37.21 101.61 40.94
  C 92.12 47.98 89.79 58.23 90.89 69.96
  A 1.46 1.45 -81.2 0 0 91.77 71.17
  Q 96.62 73.25 101.14 76.89
  A 0.53 0.52 30.9 0 0 101.95 76.69
  Q 105.85 67.65 114.55 63.35
  C 121.71 59.81 132.50 59.96 136.29 67.75
  C 140.57 76.56 131.54 85.34 124.17 88.37
  Q 116.62 91.48 108.45 91.12
  A 0.91 0.91 0.0 0 1 107.68 90.60
  Q 102.09 78.89 91.11 74.23
  C 74.15 67.03 55.55 73.15 46.09 89.09
  C 39.35 100.44 40.85 114.97 51.09 123.60
  C 55.66 127.46 63.08 129.80 67.77 132.22
  Q 72.82 134.83 70.29 139.01
  C 69.68 140.01 68.47 140.68 67.98 141.51
  A 0.41 0.40 14.0 0 0 68.35 142.12
  C 90.40 141.12 113.00 125.70 110.23 101.32
  A 1.09 1.09 0.0 0 0 109.15 100.35
  L 106.56 100.35
  A 1.13 1.13 0.0 0 0 105.44 101.62
  Q 106.64 110.87 102.70 118.51
  A 0.11 0.08 21.1 0 1 102.58 118.54
  Q 102.49 118.51 102.48 118.39
  A 0.12 0.05 -66.2 0 0 102.35 118.52"
/>
<path stroke="#989898" vector-effect="non-scaling-stroke" d="
  M 81.16 104.04
  Q 76.05 113.46 66.65 120.58
  A 0.59 0.59 0.0 0 0 66.71 121.56
  L 70.55 123.77
  A 1.26 1.25 41.5 0 0 71.95 123.69
  Q 80.74 117.00 86.27 106.81
  Q 91.80 96.61 92.60 85.59
  A 1.26 1.25 15.4 0 0 91.90 84.37
  L 87.96 82.36
  A 0.59 0.59 0.0 0 0 87.11 82.85
  Q 86.27 94.61 81.16 104.04"
/>
<path stroke="#989898" vector-effect="non-scaling-stroke" d="
  M 67.22 94.05
  C 68.09 95.52 69.47 98.35 71.14 98.50
  A 1.14 1.14 0.0 0 0 72.37 97.29
  C 72.19 94.30 70.44 89.18 66.71 88.84
  Q 61.41 88.36 58.51 93.86
  A 1.21 1.19 44.5 0 0 58.53 95.02
  L 58.79 95.46
  A 0.84 0.84 0.0 0 0 60.17 95.57
  Q 62.92 92.16 66.07 93.14
  A 2.09 2.06 -6.3 0 1 67.22 94.05"
/>
<path stroke="#989898" vector-effect="non-scaling-stroke" d="
  M 97.41 91.03
  A 0.28 0.28 0.0 0 0 96.91 91.18
  C 96.52 95.11 96.00 99.41 94.41 103.41
  Q 88.77 117.60 77.05 126.90
  A 0.75 0.75 0.0 0 0 76.87 127.86
  L 78.89 131.36
  A 0.76 0.75 55.6 0 0 80.01 131.57
  C 89.23 124.24 97.38 114.53 100.23 103.37
  Q 101.91 96.78 97.41 91.03"
/>
</g>
<path fill="#ffffff" d="
  M 180.00 0.00
  L 180.00 180.00
  L 0.00 180.00
  L 0.00 0.00
  L 180.00 0.00
  Z
  M 102.35 118.52
  Q 102.28 118.95 102.24 119.01
  C 95.83 128.66 86.66 133.68 75.78 137.09
  A 0.65 0.65 0.0 0 1 74.94 136.40
  C 75.64 129.49 66.60 126.38 61.47 124.30
  C 52.18 120.53 46.50 113.31 46.79 103.06
  C 46.92 98.56 48.81 93.23 51.37 89.61
  Q 60.33 76.91 74.59 76.03
  C 88.04 75.20 99.89 82.05 104.17 94.91
  A 1.16 1.15 83.4 0 0 105.16 95.70
  C 116.76 96.73 129.57 93.63 137.37 84.41
  C 143.37 77.30 144.10 68.20 137.49 61.21
  C 133.34 56.82 126.80 55.35 120.71 56.73
  Q 107.56 59.68 99.49 70.88
  A 0.97 0.96 -55.6 0 1 98.18 71.13
  C 93.99 68.40 94.42 63.96 95.40 59.36
  Q 97.11 51.37 102.72 46.21
  C 108.80 40.61 116.96 39.04 123.32 44.91
  Q 126.44 47.80 126.27 51.52
  A 1.24 1.24 0.0 0 0 127.51 52.82
  L 130.58 52.82
  A 0.82 0.81 87.1 0 0 131.39 51.92
  Q 130.13 39.72 119.71 37.03
  C 113.57 35.45 106.64 37.21 101.61 40.94
  C 92.12 47.98 89.79 58.23 90.89 69.96
  A 1.46 1.45 -81.2 0 0 91.77 71.17
  Q 96.62 73.25 101.14 76.89
  A 0.53 0.52 30.9 0 0 101.95 76.69
  Q 105.85 67.65 114.55 63.35
  C 121.71 59.81 132.50 59.96 136.29 67.75
  C 140.57 76.56 131.54 85.34 124.17 88.37
  Q 116.62 91.48 108.45 91.12
  A 0.91 0.91 0.0 0 1 107.68 90.60
  Q 102.09 78.89 91.11 74.23
  C 74.15 67.03 55.55 73.15 46.09 89.09
  C 39.35 100.44 40.85 114.97 51.09 123.60
  C 55.66 127.46 63.08 129.80 67.77 132.22
  Q 72.82 134.83 70.29 139.01
  C 69.68 140.01 68.47 140.68 67.98 141.51
  A 0.41 0.40 14.0 0 0 68.35 142.12
  C 90.40 141.12 113.00 125.70 110.23 101.32
  A 1.09 1.09 0.0 0 0 109.15 100.35
  L 106.56 100.35
  A 1.13 1.13 0.0 0 0 105.44 101.62
  Q 106.64 110.87 102.70 118.51
  A 0.11 0.08 21.1 0 1 102.58 118.54
  Q 102.49 118.51 102.48 118.39
  A 0.12 0.05 -66.2 0 0 102.35 118.52
  Z
  M 81.16 104.04
  Q 76.05 113.46 66.65 120.58
  A 0.59 0.59 0.0 0 0 66.71 121.56
  L 70.55 123.77
  A 1.26 1.25 41.5 0 0 71.95 123.69
  Q 80.74 117.00 86.27 106.81
  Q 91.80 96.61 92.60 85.59
  A 1.26 1.25 15.4 0 0 91.90 84.37
  L 87.96 82.36
  A 0.59 0.59 0.0 0 0 87.11 82.85
  Q 86.27 94.61 81.16 104.04
  Z
  M 67.22 94.05
  C 68.09 95.52 69.47 98.35 71.14 98.50
  A 1.14 1.14 0.0 0 0 72.37 97.29
  C 72.19 94.30 70.44 89.18 66.71 88.84
  Q 61.41 88.36 58.51 93.86
  A 1.21 1.19 44.5 0 0 58.53 95.02
  L 58.79 95.46
  A 0.84 0.84 0.0 0 0 60.17 95.57
  Q 62.92 92.16 66.07 93.14
  A 2.09 2.06 -6.3 0 1 67.22 94.05
  Z
  M 97.41 91.03
  A 0.28 0.28 0.0 0 0 96.91 91.18
  C 96.52 95.11 96.00 99.41 94.41 103.41
  Q 88.77 117.60 77.05 126.90
  A 0.75 0.75 0.0 0 0 76.87 127.86
  L 78.89 131.36
  A 0.76 0.75 55.6 0 0 80.01 131.57
  C 89.23 124.24 97.38 114.53 100.23 103.37
  Q 101.91 96.78 97.41 91.03
  Z"
/>
<path fill="#303030" d="
  M 102.48 118.39
  Q 102.49 118.51 102.58 118.54
  A 0.11 0.08 21.1 0 0 102.70 118.51
  Q 106.64 110.87 105.44 101.62
  A 1.13 1.13 0.0 0 1 106.56 100.35
  L 109.15 100.35
  A 1.09 1.09 0.0 0 1 110.23 101.32
  C 113.00 125.70 90.40 141.12 68.35 142.12
  A 0.41 0.40 14.0 0 1 67.98 141.51
  C 68.47 140.68 69.68 140.01 70.29 139.01
  Q 72.82 134.83 67.77 132.22
  C 63.08 129.80 55.66 127.46 51.09 123.60
  C 40.85 114.97 39.35 100.44 46.09 89.09
  C 55.55 73.15 74.15 67.03 91.11 74.23
  Q 102.09 78.89 107.68 90.60
  A 0.91 0.91 0.0 0 0 108.45 91.12
  Q 116.62 91.48 124.17 88.37
  C 131.54 85.34 140.57 76.56 136.29 67.75
  C 132.50 59.96 121.71 59.81 114.55 63.35
  Q 105.85 67.65 101.95 76.69
  A 0.53 0.52 30.9 0 1 101.14 76.89
  Q 96.62 73.25 91.77 71.17
  A 1.46 1.45 -81.2 0 1 90.89 69.96
  C 89.79 58.23 92.12 47.98 101.61 40.94
  C 106.64 37.21 113.57 35.45 119.71 37.03
  Q 130.13 39.72 131.39 51.92
  A 0.82 0.81 87.1 0 1 130.58 52.82
  L 127.51 52.82
  A 1.24 1.24 0.0 0 1 126.27 51.52
  Q 126.44 47.80 123.32 44.91
  C 116.96 39.04 108.80 40.61 102.72 46.21
  Q 97.11 51.37 95.40 59.36
  C 94.42 63.96 93.99 68.40 98.18 71.13
  A 0.97 0.96 -55.6 0 0 99.49 70.88
  Q 107.56 59.68 120.71 56.73
  C 126.80 55.35 133.34 56.82 137.49 61.21
  C 144.10 68.20 143.37 77.30 137.37 84.41
  C 129.57 93.63 116.76 96.73 105.16 95.70
  A 1.16 1.15 83.4 0 1 104.17 94.91
  C 99.89 82.05 88.04 75.20 74.59 76.03
  Q 60.33 76.91 51.37 89.61
  C 48.81 93.23 46.92 98.56 46.79 103.06
  C 46.50 113.31 52.18 120.53 61.47 124.30
  C 66.60 126.38 75.64 129.49 74.94 136.40
  A 0.65 0.65 0.0 0 0 75.78 137.09
  C 86.66 133.68 95.83 128.66 102.24 119.01
  Q 102.28 118.95 102.35 118.52
  A 0.12 0.05 -66.2 0 1 102.48 118.39
  Z"
/>
<path fill="#303030" d="
  M 86.27 106.81
  Q 80.74 117.00 71.95 123.69
  A 1.26 1.25 41.5 0 1 70.55 123.77
  L 66.71 121.56
  A 0.59 0.59 0.0 0 1 66.65 120.58
  Q 76.05 113.46 81.16 104.04
  Q 86.27 94.61 87.11 82.85
  A 0.59 0.59 0.0 0 1 87.96 82.36
  L 91.90 84.37
  A 1.26 1.25 15.4 0 1 92.60 85.59
  Q 91.80 96.61 86.27 106.81
  Z"
/>
<path fill="#303030" d="
  M 66.07 93.14
  Q 62.92 92.16 60.17 95.57
  A 0.84 0.84 0.0 0 1 58.79 95.46
  L 58.53 95.02
  A 1.21 1.19 44.5 0 1 58.51 93.86
  Q 61.41 88.36 66.71 88.84
  C 70.44 89.18 72.19 94.30 72.37 97.29
  A 1.14 1.14 0.0 0 1 71.14 98.50
  C 69.47 98.35 68.09 95.52 67.22 94.05
  A 2.09 2.06 -6.3 0 0 66.07 93.14
  Z"
/>
<path fill="#303030" d="
  M 97.41 91.03
  Q 101.91 96.78 100.23 103.37
  C 97.38 114.53 89.23 124.24 80.01 131.57
  A 0.76 0.75 55.6 0 1 78.89 131.36
  L 76.87 127.86
  A 0.75 0.75 0.0 0 1 77.05 126.90
  Q 88.77 117.60 94.41 103.41
  C 96.00 99.41 96.52 95.11 96.91 91.18
  A 0.28 0.28 0.0 0 1 97.41 91.03
  Z"
/>
</svg>