<?xml version="1.0" encoding="UTF-8" standalone="no"?>
<!DOCTYPE svg PUBLIC "-//W3C//DTD SVG 1.1//EN" "http://www.w3.org/Graphics/SVG/1.1/DTD/svg11.dtd">
<svg xmlns="http://www.w3.org/2000/svg" version="1.1" viewBox="0.00 0.00 180.00 180.00" width="128" height="128">
<g stroke-width="2.00" fill="none" stroke-linecap="butt">
<path stroke="#808080" vector-effect="non-scaling-stroke" d="
  M 111.88 109.43
  L 111.88 69.60
  A 2.50 2.50 0.0 0 0 109.38 67.10
  L 107.02 67.10
  A 2.48 2.47 90.0 0 0 104.55 69.58
  L 104.55 98.80
  A 1.85 1.85 0.0 0 0 104.85 99.81
  L 111.32 109.60
  A 0.31 0.30 -61.7 0 0 111.88 109.43"
/>
<path stroke="#808080" vector-effect="non-scaling-stroke" d="
  M 75.76 82.59
  A 0.28 0.28 0.0 0 1 76.28 82.43
  Q 93.80 108.38 93.89 108.51
  C 102.08 120.71 107.22 127.18 117.78 141.49
  A 0.92 0.91 -34.7 0 0 119.02 141.71
  L 121.56 140.03
  A 0.74 0.73 -33.7 0 0 121.77 139.01
  L 76.14 69.93
  A 2.62 2.60 -16.5 0 0 73.96 68.76
  L 70.49 68.76
  A 2.02 2.02 0.0 0 0 68.47 70.78
  L 68.47 115.30
  A 2.53 2.53 0.0 0 0 71.00 117.83
  L 73.30 117.83
  A 2.46 2.46 0.0 0 0 75.76 115.37
  L 75.76 82.59"
/>
</g>
<path fill="#000000" d="
  M 180.00 0.00
  L 180.00 180.00
  L 0.00 180.00
  L 0.00 0.00
  L 180.00 0.00
  Z
  M 111.88 109.43
  L 111.88 69.60
  A 2.50 2.50 0.0 0 0 109.38 67.10
  L 107.02 67.10
  A 2.48 2.47 90.0 0 0 104.55 69.58
  L 104.55 98.80
  A 1.85 1.85 0.0 0 0 104.85 99.81
  L 111.32 109.60
  A 0.31 0.30 -61.7 0 0 111.88 109.43
  Z
  M 75.76 82.59
  A 0.28 0.28 0.0 0 1 76.28 82.43
  Q 93.80 108.38 93.89 108.51
  C 102.08 120.71 107.22 127.18 117.78 141.49
  A 0.92 0.91 -34.7 0 0 119.02 141.71
  L 121.56 140.03
  A 0.74 0.73 -33.7 0 0 121.77 139.01
  L 76.14 69.93
  A 2.62 2.60 -16.5 0 0 73.96 68.76
  L 70.49 68.76
  A 2.02 2.02 0.0 0 0 68.47 70.78
  L 68.47 115.30
  A 2.53 2.53 0.0 0 0 71.00 117.83
  L 73.30 117.83
  A 2.46 2.46 0.0 0 0 75.76 115.37
  L 75.76 82.59
  Z"
/>
<path fill="#ffffff" d="
  M 111.88 109.43
  A 0.31 0.30 -61.7 0 1 111.32 109.60
  L 104.85 99.81
  A 1.85 1.85 0.0 0 1 104.55 98.80
  L 104.55 69.58
  A 2.48 2.47 -90.0 0 1 107.02 67.10
  L 109.38 67.10
  A 2.50 2.50 0.0 0 1 111.88 69.60
  L 111.88 109.43
  Z"
/>
<path fill="#ffffff" d="
  M 75.76 82.59
  L 75.76 115.37
  A 2.46 2.46 0.0 0 1 73.30 117.83
  L 71.00 117.83
  A 2.53 2.53 0.0 0 1 68.47 115.30
  L 68.47 70.78
  A 2.02 2.02 0.0 0 1 70.49 68.76
  L 73.96 68.76
  A 2.62 2.60 -16.5 0 1 76.14 69.93
  L 121.77 139.01
  A 0.74 0.73 -33.7 0 1 121.56 140.03
  L 119.02 141.71
  A 0.92 0.91 -34.7 0 1 117.78 141.49
  C 107.22 127.18 102.08 120.71 93.89 108.51
  Q 93.80 108.38 76.28 82.43
  A 0.28 0.28 0.0 0 0 75.76 82.59
  Z"
/>
</svg>