<?xml version="1.0" encoding="UTF-8" standalone="no"?>
<!DOCTYPE svg PUBLIC "-//W3C//DTD SVG 1.1//EN" "http://www.w3.org/Graphics/SVG/1.1/DTD/svg11.dtd">
<svg xmlns="http://www.w3.org/2000/svg" version="1.1" viewBox="0.00 0.00 180.00 180.00" width="128" height="128">
<g stroke-width="2.00" fill="none" stroke-linecap="butt">
<path stroke="#96b8ff" vector-effect="non-scaling-stroke" d="
  M 161.60 47.40
  Q 146.12 22.52 120.42 12.54
  C 80.42 -2.99 35.37 13.89 15.80 52.35
  Q 2.26 78.96 9.20 110.20
  A 0.40 0.39 -21.8 0 0 9.79 110.45
  C 29.99 98.31 57.02 100.83 70.05 122.39
  C 71.87 125.40 73.15 128.98 75.44 131.33
  C 82.39 138.42 92.74 139.50 100.36 133.13
  C 110.96 124.27 108.89 107.59 96.23 102.20
  C 93.11 100.87 86.57 100.40 83.81 99.95
  C 61.54 96.31 47.67 75.26 52.14 53.14
  C 59.59 16.30 108.86 9.41 126.49 42.70
  Q 129.17 47.77 130.65 49.33
  C 138.65 57.76 153.59 56.98 161.49 48.53
  A 0.93 0.93 0.0 0 0 161.60 47.40"
/>
<path stroke="#96b8ff" vector-effect="non-scaling-stroke" d="
  M 18.51 132.56
  Q 33.99 157.42 59.68 167.38
  C 99.67 182.88 144.69 165.98 164.23 127.53
  Q 177.75 100.93 170.79 69.71
  A 0.40 0.39 -21.9 0 0 170.20 69.46
  C 150.02 81.60 123.00 79.10 109.97 57.56
  C 108.15 54.55 106.87 50.97 104.58 48.62
  C 97.63 41.54 87.28 40.47 79.67 46.84
  C 69.08 55.70 71.16 72.37 83.81 77.75
  C 86.93 79.08 93.47 79.54 96.23 79.99
  C 118.49 83.62 132.36 104.65 127.91 126.76
  C 120.48 163.59 71.24 170.50 53.60 137.24
  Q 50.92 132.17 49.44 130.61
  C 41.44 122.19 26.51 122.98 18.62 131.43
  A 0.93 0.93 0.0 0 0 18.51 132.56"
/>
</g>
<path fill="#ffffff" d="
  M 94.42 0.00
  C 141.27 3.07 176.87 38.63 180.00 85.48
  L 180.00 94.41
  C 176.95 141.30 141.35 176.76 94.52 180.00
  L 85.48 180.00
  C 38.68 176.90 3.32 141.39 0.00 94.65
  L 0.00 85.41
  C 3.26 38.69 38.60 3.14 85.38 0.00
  L 94.42 0.00
  Z
  M 161.60 47.40
  Q 146.12 22.52 120.42 12.54
  C 80.42 -2.99 35.37 13.89 15.80 52.35
  Q 2.26 78.96 9.20 110.20
  A 0.40 0.39 -21.8 0 0 9.79 110.45
  C 29.99 98.31 57.02 100.83 70.05 122.39
  C 71.87 125.40 73.15 128.98 75.44 131.33
  C 82.39 138.42 92.74 139.50 100.36 133.13
  C 110.96 124.27 108.89 107.59 96.23 102.20
  C 93.11 100.87 86.57 100.40 83.81 99.95
  C 61.54 96.31 47.67 75.26 52.14 53.14
  C 59.59 16.30 108.86 9.41 126.49 42.70
  Q 129.17 47.77 130.65 49.33
  C 138.65 57.76 153.59 56.98 161.49 48.53
  A 0.93 0.93 0.0 0 0 161.60 47.40
  Z
  M 18.51 132.56
  Q 33.99 157.42 59.68 167.38
  C 99.67 182.88 144.69 165.98 164.23 127.53
  Q 177.75 100.93 170.79 69.71
  A 0.40 0.39 -21.9 0 0 170.20 69.46
  C 150.02 81.60 123.00 79.10 109.97 57.56
  C 108.15 54.55 106.87 50.97 104.58 48.62
  C 97.63 41.54 87.28 40.47 79.67 46.84
  C 69.08 55.70 71.16 72.37 83.81 77.75
  C 86.93 79.08 93.47 79.54 96.23 79.99
  C 118.49 83.62 132.36 104.65 127.91 126.76
  C 120.48 163.59 71.24 170.50 53.60 137.24
  Q 50.92 132.17 49.44 130.61
  C 41.44 122.19 26.51 122.98 18.62 131.43
  A 0.93 0.93 0.0 0 0 18.51 132.56
  Z"
/>
<path fill="#2c70ff" d="
  M 161.49 48.53
  C 153.59 56.98 138.65 57.76 130.65 49.33
  Q 129.17 47.77 126.49 42.70
  C 108.86 9.41 59.59 16.30 52.14 53.14
  C 47.67 75.26 61.54 96.31 83.81 99.95
  C 86.57 100.40 93.11 100.87 96.23 102.20
  C 108.89 107.59 110.96 124.27 100.36 133.13
  C 92.74 139.50 82.39 138.42 75.44 131.33
  C 73.15 128.98 71.87 125.40 70.05 122.39
  C 57.02 100.83 29.99 98.31 9.79 110.45
  A 0.40 0.39 -21.8 0 1 9.20 110.20
  Q 2.26 78.96 15.80 52.35
  C 35.37 13.89 80.42 -2.99 120.42 12.54
  Q 146.12 22.52 161.60 47.40
  A 0.93 0.93 0.0 0 1 161.49 48.53
  Z"
/>
<path fill="#2c70ff" d="
  M 18.51 132.56
  A 0.93 0.93 0.0 0 1 18.62 131.43
  C 26.51 122.98 41.44 122.19 49.44 130.61
  Q 50.92 132.17 53.60 137.24
  C 71.24 170.50 120.48 163.59 127.91 126.76
  C 132.36 104.65 118.49 83.62 96.23 79.99
  C 93.47 79.54 86.93 79.08 83.81 77.75
  C 71.16 72.37 69.08 55.70 79.67 46.84
  C 87.28 40.47 97.63 41.54 104.58 48.62
  C 106.87 50.97 108.15 54.55 109.97 57.56
  C 123.00 79.10 150.02 81.60 170.20 69.46
  A 0.40 0.39 -21.9 0 1 170.79 69.71
  Q 177.75 100.93 164.23 127.53
  C 144.69 165.98 99.67 182.88 59.68 167.38
  Q 33.99 157.42 18.51 132.56
  Z"
/>
</svg>