<?xml version="1.0" encoding="UTF-8" standalone="no"?>
<!DOCTYPE svg PUBLIC "-//W3C//DTD SVG 1.1//EN" "http://www.w3.org/Graphics/SVG/1.1/DTD/svg11.dtd">
<svg xmlns="http://www.w3.org/2000/svg" version="1.1" viewBox="0.00 0.00 256.00 256.00" width="128" height="128">
<g stroke-width="2.00" fill="none" stroke-linecap="butt">
<path stroke="#4e8f3c" vector-effect="non-scaling-stroke" d="
  M 12.92 140.37
  C 13.55 144.98 13.91 148.00 14.90 151.85
  Q 17.01 160.03 19.29 167.99
  C 20.87 173.50 24.77 179.35 27.17 184.00
  Q 29.04 187.62 31.56 191.00
  C 34.45 194.88 36.55 198.91 39.75 202.54
  Q 42.42 205.56 45.41 209.59
  A 5.12 5.04 2.0 0 0 46.29 210.52
  Q 51.67 215.08 52.99 216.38
  C 57.27 220.61 61.29 222.24 66.77 225.95
  C 70.96 228.79 76.86 231.20 81.86 233.70
  C 88.57 237.06 95.85 239.08 102.87 241.50
  Q 107.95 243.26 113.67 243.90
  Q 121.93 244.82 124.74 244.89
  Q 135.01 245.12 146.33 243.28
  Q 151.67 242.42 160.68 239.19
  Q 173.27 234.69 174.72 233.97
  Q 180.17 231.25 184.44 229.16
  Q 197.25 222.86 208.19 212.65
  C 211.81 209.27 214.29 205.48 217.57 202.16
  A 11.52 11.22 82.1 0 0 219.47 199.58
  Q 220.80 197.09 223.00 194.29
  C 226.61 189.69 229.90 183.75 232.53 179.32
  C 237.20 171.50 238.82 164.07 241.60 153.87
  Q 244.02 144.97 244.44 139.62
  Q 245.77 122.72 242.59 108.11
  Q 241.69 103.95 238.41 92.52
  Q 236.01 84.18 232.41 77.62
  Q 222.57 59.69 209.95 46.34
  Q 206.99 43.22 200.79 38.21
  Q 192.08 31.19 182.67 26.81
  Q 170.72 21.24 167.10 19.90
  Q 164.83 19.05 154.61 15.95
  Q 147.08 13.66 141.91 13.03
  Q 125.08 10.97 110.77 13.59
  C 94.48 16.57 79.84 23.35 64.68 31.70
  C 59.97 34.30 56.96 37.34 52.38 40.71
  C 50.01 42.45 48.08 45.15 45.97 46.99
  Q 44.18 48.55 41.62 52.08
  Q 38.86 55.86 36.17 58.79
  A 16.35 16.15 -8.7 0 0 34.14 61.52
  C 31.40 66.13 28.18 70.12 25.83 74.69
  Q 20.34 85.37 19.22 89.49
  C 16.86 98.12 15.13 103.21 14.31 110.38
  C 13.20 120.07 11.53 130.22 12.92 140.37"
/>
<path stroke="#4e903a" vector-effect="non-scaling-stroke" d="
  M 92.30 62.32
  Q 90.10 62.02 87.02 62.52
  C 79.36 63.76 72.94 64.78 69.55 72.07
  Q 66.32 79.00 65.95 88.99
  C 65.68 96.32 65.33 117.01 59.12 119.65
  Q 54.50 121.61 52.91 122.20
  C 49.49 123.45 49.46 126.73 49.70 130.10
  C 50.03 134.59 54.02 135.96 58.18 138.49
  C 63.07 141.46 64.59 147.19 64.95 152.50
  Q 65.10 154.71 66.06 172.46
  Q 66.24 175.66 67.36 180.13
  A 4.82 4.76 22.0 0 0 67.98 181.57
  Q 76.98 195.64 93.53 191.03
  A 1.86 1.81 14.1 0 0 94.34 190.56
  Q 95.26 189.62 95.20 187.81
  C 94.83 176.54 81.51 182.43 81.23 171.99
  Q 81.00 163.34 80.67 158.52
  Q 79.74 145.11 74.87 133.72
  A 3.41 3.23 -61.8 0 1 74.63 132.84
  Q 74.01 128.53 74.36 126.94
  Q 75.48 121.89 76.18 117.75
  A 2.77 2.68 -28.8 0 1 76.41 117.00
  Q 80.04 109.41 80.28 100.51
  Q 80.63 87.77 80.86 85.63
  C 81.67 77.86 84.67 77.37 91.38 75.87
  A 2.58 2.54 19.9 0 0 92.36 75.42
  C 94.86 73.58 94.64 66.83 94.15 64.09
  A 2.17 2.15 -1.1 0 0 92.30 62.32"
/>
<path stroke="#4e903a" vector-effect="non-scaling-stroke" d="
  M 182.89 127.63
  Q 182.92 128.61 181.62 133.07
  Q 179.89 139.03 178.62 142.88
  Q 177.59 146.01 177.32 148.75
  C 176.48 157.27 176.52 165.92 175.36 173.40
  C 174.47 179.08 170.73 179.65 165.75 181.73
  A 4.83 4.81 85.7 0 0 162.95 184.99
  C 161.94 188.99 161.92 195.34 167.93 194.80
  C 175.18 194.14 184.57 192.62 187.60 184.84
  C 191.53 174.77 191.53 166.20 192.13 153.48
  Q 192.52 145.12 196.58 140.73
  C 199.10 138.01 201.16 137.04 204.82 134.62
  A 2.89 2.88 -6.4 0 0 205.92 133.25
  Q 207.37 129.53 206.85 125.12
  A 3.65 3.60 -78.6 0 0 205.09 122.43
  Q 202.39 120.86 199.60 119.93
  C 194.08 118.09 193.03 112.29 192.43 107.11
  Q 192.10 104.36 190.77 85.77
  C 190.16 77.12 186.67 66.83 176.67 65.23
  Q 169.93 64.15 164.84 65.29
  C 159.92 66.39 161.67 72.51 163.98 74.79
  A 2.82 2.82 0.0 0 0 164.61 75.28
  C 168.91 77.82 174.61 78.54 175.36 84.69
  Q 176.25 91.83 176.63 98.99
  C 176.91 104.26 177.94 111.63 179.46 115.92
  Q 181.88 122.77 182.72 126.37
  A 6.23 6.12 -53.2 0 1 182.89 127.63"
/>
<path stroke="#4e903a" vector-effect="non-scaling-stroke" d="
  M 99.57 124.03
  Q 99.78 124.01 99.75 123.84
  A 0.10 0.08 0.7 0 0 99.67 123.77
  L 93.12 123.31
  A 2.14 2.13 2.3 0 0 90.83 125.42
  Q 90.83 126.38 90.63 127.11
  L 90.62 127.11
  Q 90.73 126.37 90.64 126.15
  A 0.22 0.22 0.0 0 0 90.22 126.17
  Q 89.17 129.39 89.68 131.21
  Q 90.07 132.59 91.83 133.35
  Q 96.15 135.23 100.53 133.67
  A 1.92 1.88 6.8 0 0 101.48 132.94
  Q 103.49 129.96 102.79 126.38
  A 0.99 0.98 10.1 0 0 102.31 125.70
  L 99.55 124.10
  A 0.04 0.04 0.0 0 1 99.57 124.03"
/>
<path stroke="#4e903a" vector-effect="non-scaling-stroke" d="
  M 133.64 130.78
  Q 134.58 126.15 131.25 124.45
  A 2.33 2.31 -29.7 0 0 130.36 124.21
  Q 126.43 124.02 123.83 125.30
  A 1.53 1.51 88.5 0 0 123.11 126.07
  Q 122.30 128.05 122.71 130.51
  A 0.17 0.17 0.0 0 0 123.04 130.50
  L 123.29 127.29
  A 0.17 0.16 14.5 0 1 123.52 127.16
  L 123.53 127.16
  A 0.18 0.18 0.0 0 1 123.64 127.41
  Q 122.41 130.06 124.28 131.97
  A 0.33 0.33 0.0 0 1 124.21 132.48
  L 123.91 132.66
  A 0.54 0.54 0.0 0 1 123.17 132.46
  L 122.20 130.78
  A 1.00 0.98 32.3 0 1 122.08 130.27
  L 122.40 125.65
  A 0.02 0.02 0.0 0 0 122.36 125.65
  Q 121.38 129.86 122.42 131.96
  A 1.86 1.86 0.0 0 0 123.27 132.81
  Q 127.47 134.86 131.62 133.77
  C 134.72 132.96 135.18 129.14 135.11 126.30
  A 1.45 1.41 -66.7 0 0 134.78 125.44
  C 132.62 122.95 129.84 123.34 126.06 123.33
  A 0.10 0.10 0.0 0 0 126.04 123.53
  Q 126.08 123.53 126.51 123.49
  Q 130.95 123.02 134.09 124.92
  A 1.09 1.09 0.0 0 1 134.60 125.70
  Q 134.97 128.46 134.40 131.05
  A 0.10 0.10 0.0 0 1 134.26 131.11
  Q 134.10 131.03 133.94 131.03
  A 0.06 0.05 -62.8 0 1 133.91 130.93
  Q 134.15 130.77 134.13 130.53
  A 0.17 0.17 0.0 0 0 133.88 130.39
  Q 133.68 130.50 133.64 130.78
  Q 133.60 131.00 133.64 130.78"
/>
<path stroke="#4e903a" vector-effect="non-scaling-stroke" d="
  M 153.13 130.11
  Q 152.98 129.71 153.14 129.37
  A 0.17 0.16 -33.7 0 1 153.46 129.43
  Q 153.47 132.56 155.36 133.77
  A 2.19 2.12 -27.0 0 0 156.44 134.10
  C 157.95 134.16 161.97 134.62 163.76 133.36
  Q 165.07 132.44 165.64 132.80
  A 0.29 0.29 0.0 0 0 166.08 132.49
  Q 165.96 132.02 166.90 130.14
  Q 167.64 128.66 167.28 126.12
  A 0.73 0.72 89.0 0 0 166.64 125.50
  Q 166.35 125.48 165.64 124.51
  A 1.42 1.41 72.3 0 0 164.55 123.94
  L 157.46 123.76
  A 0.24 0.23 60.6 0 1 157.33 123.72
  Q 156.90 123.41 156.20 123.34
  A 0.88 0.85 -67.4 0 0 155.43 123.67
  Q 153.63 125.99 153.64 127.85
  A 0.29 0.28 22.6 0 1 153.15 128.05
  C 152.99 127.88 153.24 127.16 153.21 126.67
  Q 153.21 126.62 153.20 126.56
  A 0.03 0.03 0.0 0 0 153.14 126.56
  Q 153.11 128.33 153.13 130.11"
/>
<path stroke="#173549" vector-effect="non-scaling-stroke" d="
  M 95.67 129.01
  A 0.62 0.62 0.0 0 0 95.05 128.39
  A 0.62 0.62 0.0 0 0 94.43 129.01
  A 0.62 0.62 0.0 0 0 95.05 129.63
  A 0.62 0.62 0.0 0 0 95.67 129.01"
/>
</g>
<path fill="#16344b" d="
  M 135.74 0.00
  C 143.73 0.43 153.58 -0.03 160.69 3.59
  Q 167.07 6.83 171.92 8.09
  C 178.70 9.84 184.65 14.02 190.75 17.10
  Q 192.98 18.22 194.75 19.46
  C 198.10 21.81 201.44 23.64 204.26 26.19
  C 207.45 29.06 211.41 31.68 215.10 35.17
  Q 226.85 46.34 233.66 55.87
  Q 236.97 60.50 243.63 72.92
  Q 247.10 79.39 249.37 86.63
  C 251.55 93.62 253.85 100.14 254.53 106.74
  Q 256.90 129.68 254.99 149.25
  Q 254.69 152.30 253.99 154.75
  Q 252.34 160.54 248.11 173.99
  Q 246.71 178.45 244.84 181.78
  Q 241.71 187.40 240.85 189.26
  Q 238.90 193.49 234.24 200.07
  Q 218.26 222.64 194.47 237.71
  Q 194.15 237.92 181.80 244.74
  Q 176.74 247.53 171.50 249.14
  C 164.77 251.20 155.89 255.21 149.01 255.38
  Q 140.93 255.57 132.86 256.00
  L 122.02 256.00
  Q 114.22 255.87 106.50 255.16
  Q 99.06 254.49 91.71 252.36
  Q 81.29 249.33 77.41 247.55
  Q 54.62 237.12 38.20 219.30
  C 34.14 214.90 31.94 212.71 28.73 208.56
  Q 18.64 195.55 11.53 181.49
  C 9.24 176.98 8.24 171.79 6.41 166.86
  Q 2.35 155.91 1.35 151.03
  Q 0.28 145.83 0.00 134.36
  L 0.00 128.27
  Q 0.66 119.01 1.50 109.76
  C 1.66 107.97 2.11 105.58 2.65 103.90
  Q 5.92 93.68 7.83 87.36
  C 10.56 78.29 15.32 69.50 19.49 62.22
  Q 24.69 53.12 32.88 44.37
  Q 44.09 32.41 55.26 24.23
  Q 60.84 20.13 73.87 13.07
  Q 79.66 9.94 88.32 7.05
  Q 95.37 4.70 103.05 1.54
  Q 104.13 1.10 107.11 0.88
  Q 113.12 0.45 119.14 0.00
  L 135.74 0.00
  Z
  M 12.92 140.37
  C 13.55 144.98 13.91 148.00 14.90 151.85
  Q 17.01 160.03 19.29 167.99
  C 20.87 173.50 24.77 179.35 27.17 184.00
  Q 29.04 187.62 31.56 191.00
  C 34.45 194.88 36.55 198.91 39.75 202.54
  Q 42.42 205.56 45.41 209.59
  A 5.12 5.04 2.0 0 0 46.29 210.52
  Q 51.67 215.08 52.99 216.38
  C 57.27 220.61 61.29 222.24 66.77 225.95
  C 70.96 228.79 76.86 231.20 81.86 233.70
  C 88.57 237.06 95.85 239.08 102.87 241.50
  Q 107.95 243.26 113.67 243.90
  Q 121.93 244.82 124.74 244.89
  Q 135.01 245.12 146.33 243.28
  Q 151.67 242.42 160.68 239.19
  Q 173.27 234.69 174.72 233.97
  Q 180.17 231.25 184.44 229.16
  Q 197.25 222.86 208.19 212.65
  C 211.81 209.27 214.29 205.48 217.57 202.16
  A 11.52 11.22 82.1 0 0 219.47 199.58
  Q 220.80 197.09 223.00 194.29
  C 226.61 189.69 229.90 183.75 232.53 179.32
  C 237.20 171.50 238.82 164.07 241.60 153.87
  Q 244.02 144.97 244.44 139.62
  Q 245.77 122.72 242.59 108.11
  Q 241.69 103.95 238.41 92.52
  Q 236.01 84.18 232.41 77.62
  Q 222.57 59.69 209.95 46.34
  Q 206.99 43.22 200.79 38.21
  Q 192.08 31.19 182.67 26.81
  Q 170.72 21.24 167.10 19.90
  Q 164.83 19.05 154.61 15.95
  Q 147.08 13.66 141.91 13.03
  Q 125.08 10.97 110.77 13.59
  C 94.48 16.57 79.84 23.35 64.68 31.70
  C 59.97 34.30 56.96 37.34 52.38 40.71
  C 50.01 42.45 48.08 45.15 45.97 46.99
  Q 44.18 48.55 41.62 52.08
  Q 38.86 55.86 36.17 58.79
  A 16.35 16.15 -8.7 0 0 34.14 61.52
  C 31.40 66.13 28.18 70.12 25.83 74.69
  Q 20.34 85.37 19.22 89.49
  C 16.86 98.12 15.13 103.21 14.31 110.38
  C 13.20 120.07 11.53 130.22 12.92 140.37
  Z"
/>
<path fill="#85ea2d" d="
  M 12.92 140.37
  C 11.53 130.22 13.20 120.07 14.31 110.38
  C 15.13 103.21 16.86 98.12 19.22 89.49
  Q 20.34 85.37 25.83 74.69
  C 28.18 70.12 31.40 66.13 34.14 61.52
  A 16.35 16.15 -8.7 0 1 36.17 58.79
  Q 38.86 55.86 41.62 52.08
  Q 44.18 48.55 45.97 46.99
  C 48.08 45.15 50.01 42.45 52.38 40.71
  C 56.96 37.34 59.97 34.30 64.68 31.70
  C 79.84 23.35 94.48 16.57 110.77 13.59
  Q 125.08 10.97 141.91 13.03
  Q 147.08 13.66 154.61 15.95
  Q 164.83 19.05 167.10 19.90
  Q 170.72 21.24 182.67 26.81
  Q 192.08 31.19 200.79 38.21
  Q 206.99 43.22 209.95 46.34
  Q 222.57 59.69 232.41 77.62
  Q 236.01 84.18 238.41 92.52
  Q 241.69 103.95 242.59 108.11
  Q 245.77 122.72 244.44 139.62
  Q 244.02 144.97 241.60 153.87
  C 238.82 164.07 237.20 171.50 232.53 179.32
  C 229.90 183.75 226.61 189.69 223.00 194.29
  Q 220.80 197.09 219.47 199.58
  A 11.52 11.22 82.1 0 1 217.57 202.16
  C 214.29 205.48 211.81 209.27 208.19 212.65
  Q 197.25 222.86 184.44 229.16
  Q 180.17 231.25 174.72 233.97
  Q 173.27 234.69 160.68 239.19
  Q 151.67 242.42 146.33 243.28
  Q 135.01 245.12 124.74 244.89
  Q 121.93 244.82 113.67 243.90
  Q 107.95 243.26 102.87 241.50
  C 95.85 239.08 88.57 237.06 81.86 233.70
  C 76.86 231.20 70.96 228.79 66.77 225.95
  C 61.29 222.24 57.27 220.61 52.99 216.38
  Q 51.67 215.08 46.29 210.52
  A 5.12 5.04 2.0 0 1 45.41 209.59
  Q 42.42 205.56 39.75 202.54
  C 36.55 198.91 34.45 194.88 31.56 191.00
  Q 29.04 187.62 27.17 184.00
  C 24.77 179.35 20.87 173.50 19.29 167.99
  Q 17.01 160.03 14.90 151.85
  C 13.91 148.00 13.55 144.98 12.92 140.37
  Z
  M 92.30 62.32
  Q 90.10 62.02 87.02 62.52
  C 79.36 63.76 72.94 64.78 69.55 72.07
  Q 66.32 79.00 65.95 88.99
  C 65.68 96.32 65.33 117.01 59.12 119.65
  Q 54.50 121.61 52.91 122.20
  C 49.49 123.45 49.46 126.73 49.70 130.10
  C 50.03 134.59 54.02 135.96 58.18 138.49
  C 63.07 141.46 64.59 147.19 64.95 152.50
  Q 65.10 154.71 66.06 172.46
  Q 66.24 175.66 67.36 180.13
  A 4.82 4.76 22.0 0 0 67.98 181.57
  Q 76.98 195.64 93.53 191.03
  A 1.86 1.81 14.1 0 0 94.34 190.56
  Q 95.26 189.62 95.20 187.81
  C 94.83 176.54 81.51 182.43 81.23 171.99
  Q 81.00 163.34 80.67 158.52
  Q 79.74 145.11 74.87 133.72
  A 3.41 3.23 -61.8 0 1 74.63 132.84
  Q 74.01 128.53 74.36 126.94
  Q 75.48 121.89 76.18 117.75
  A 2.77 2.68 -28.8 0 1 76.41 117.00
  Q 80.04 109.41 80.28 100.51
  Q 80.63 87.77 80.86 85.63
  C 81.67 77.86 84.67 77.37 91.38 75.87
  A 2.58 2.54 19.9 0 0 92.36 75.42
  C 94.86 73.58 94.64 66.83 94.15 64.09
  A 2.17 2.15 -1.1 0 0 92.30 62.32
  Z
  M 182.89 127.63
  Q 182.92 128.61 181.62 133.07
  Q 179.89 139.03 178.62 142.88
  Q 177.59 146.01 177.32 148.75
  C 176.48 157.27 176.52 165.92 175.36 173.40
  C 174.47 179.08 170.73 179.65 165.75 181.73
  A 4.83 4.81 85.7 0 0 162.95 184.99
  C 161.94 188.99 161.92 195.34 167.93 194.80
  C 175.18 194.14 184.57 192.62 187.60 184.84
  C 191.53 174.77 191.53 166.20 192.13 153.48
  Q 192.52 145.12 196.58 140.73
  C 199.10 138.01 201.16 137.04 204.82 134.62
  A 2.89 2.88 -6.4 0 0 205.92 133.25
  Q 207.37 129.53 206.85 125.12
  A 3.65 3.60 -78.6 0 0 205.09 122.43
  Q 202.39 120.86 199.60 119.93
  C 194.08 118.09 193.03 112.29 192.43 107.11
  Q 192.10 104.36 190.77 85.77
  C 190.16 77.12 186.67 66.83 176.67 65.23
  Q 169.93 64.15 164.84 65.29
  C 159.92 66.39 161.67 72.51 163.98 74.79
  A 2.82 2.82 0.0 0 0 164.61 75.28
  C 168.91 77.82 174.61 78.54 175.36 84.69
  Q 176.25 91.83 176.63 98.99
  C 176.91 104.26 177.94 111.63 179.46 115.92
  Q 181.88 122.77 182.72 126.37
  A 6.23 6.12 -53.2 0 1 182.89 127.63
  Z
  M 99.57 124.03
  Q 99.78 124.01 99.75 123.84
  A 0.10 0.08 0.7 0 0 99.67 123.77
  L 93.12 123.31
  A 2.14 2.13 2.3 0 0 90.83 125.42
  Q 90.83 126.38 90.63 127.11
  L 90.62 127.11
  Q 90.73 126.37 90.64 126.15
  A 0.22 0.22 0.0 0 0 90.22 126.17
  Q 89.17 129.39 89.68 131.21
  Q 90.07 132.59 91.83 133.35
  Q 96.15 135.23 100.53 133.67
  A 1.92 1.88 6.8 0 0 101.48 132.94
  Q 103.49 129.96 102.79 126.38
  A 0.99 0.98 10.1 0 0 102.31 125.70
  L 99.55 124.10
  A 0.04 0.04 0.0 0 1 99.57 124.03
  Z
  M 133.64 130.78
  Q 134.58 126.15 131.25 124.45
  A 2.33 2.31 -29.7 0 0 130.36 124.21
  Q 126.43 124.02 123.83 125.30
  A 1.53 1.51 88.5 0 0 123.11 126.07
  Q 122.30 128.05 122.71 130.51
  A 0.17 0.17 0.0 0 0 123.04 130.50
  L 123.29 127.29
  A 0.17 0.16 14.5 0 1 123.52 127.16
  L 123.53 127.16
  A 0.18 0.18 0.0 0 1 123.64 127.41
  Q 122.41 130.06 124.28 131.97
  A 0.33 0.33 0.0 0 1 124.21 132.48
  L 123.91 132.66
  A 0.54 0.54 0.0 0 1 123.17 132.46
  L 122.20 130.78
  A 1.00 0.98 32.3 0 1 122.08 130.27
  L 122.40 125.65
  A 0.02 0.02 0.0 0 0 122.36 125.65
  Q 121.38 129.86 122.42 131.96
  A 1.86 1.86 0.0 0 0 123.27 132.81
  Q 127.47 134.86 131.62 133.77
  C 134.72 132.96 135.18 129.14 135.11 126.30
  A 1.45 1.41 -66.7 0 0 134.78 125.44
  C 132.62 122.95 129.84 123.34 126.06 123.33
  A 0.10 0.10 0.0 0 0 126.04 123.53
  Q 126.08 123.53 126.51 123.49
  Q 130.95 123.02 134.09 124.92
  A 1.09 1.09 0.0 0 1 134.60 125.70
  Q 134.97 128.46 134.40 131.05
  A 0.10 0.10 0.0 0 1 134.26 131.11
  Q 134.10 131.03 133.94 131.03
  A 0.06 0.05 -62.8 0 1 133.91 130.93
  Q 134.15 130.77 134.13 130.53
  A 0.17 0.17 0.0 0 0 133.88 130.39
  Q 133.68 130.50 133.64 130.78
  Q 133.60 131.00 133.64 130.78
  Z
  M 153.13 130.11
  Q 152.98 129.71 153.14 129.37
  A 0.17 0.16 -33.7 0 1 153.46 129.43
  Q 153.47 132.56 155.36 133.77
  A 2.19 2.12 -27.0 0 0 156.44 134.10
  C 157.95 134.16 161.97 134.62 163.76 133.36
  Q 165.07 132.44 165.64 132.80
  A 0.29 0.29 0.0 0 0 166.08 132.49
  Q 165.96 132.02 166.90 130.14
  Q 167.64 128.66 167.28 126.12
  A 0.73 0.72 89.0 0 0 166.64 125.50
  Q 166.35 125.48 165.64 124.51
  A 1.42 1.41 72.3 0 0 164.55 123.94
  L 157.46 123.76
  A 0.24 0.23 60.6 0 1 157.33 123.72
  Q 156.90 123.41 156.20 123.34
  A 0.88 0.85 -67.4 0 0 155.43 123.67
  Q 153.63 125.99 153.64 127.85
  A 0.29 0.28 22.6 0 1 153.15 128.05
  C 152.99 127.88 153.24 127.16 153.21 126.67
  Q 153.21 126.62 153.20 126.56
  A 0.03 0.03 0.0 0 0 153.14 126.56
  Q 153.11 128.33 153.13 130.11
  Z"
/>
<path fill="#173647" d="
  M 92.30 62.32
  A 2.17 2.15 -1.1 0 1 94.15 64.09
  C 94.64 66.83 94.86 73.58 92.36 75.42
  A 2.58 2.54 19.9 0 1 91.38 75.87
  C 84.67 77.37 81.67 77.86 80.86 85.63
  Q 80.63 87.77 80.28 100.51
  Q 80.04 109.41 76.41 117.00
  A 2.77 2.68 -28.8 0 0 76.18 117.75
  Q 75.48 121.89 74.36 126.94
  Q 74.01 128.53 74.63 132.84
  A 3.41 3.23 -61.8 0 0 74.87 133.72
  Q 79.74 145.11 80.67 158.52
  Q 81.00 163.34 81.23 171.99
  C 81.51 182.43 94.83 176.54 95.20 187.81
  Q 95.26 189.62 94.34 190.56
  A 1.86 1.81 14.1 0 1 93.53 191.03
  Q 76.98 195.64 67.98 181.57
  A 4.82 4.76 22.0 0 1 67.36 180.13
  Q 66.24 175.66 66.06 172.46
  Q 65.10 154.71 64.95 152.50
  C 64.59 147.19 63.07 141.46 58.18 138.49
  C 54.02 135.96 50.03 134.59 49.70 130.10
  C 49.46 126.73 49.49 123.45 52.91 122.20
  Q 54.50 121.61 59.12 119.65
  C 65.33 117.01 65.68 96.32 65.95 88.99
  Q 66.32 79.00 69.55 72.07
  C 72.94 64.78 79.36 63.76 87.02 62.52
  Q 90.10 62.02 92.30 62.32
  Z"
/>
<path fill="#173647" d="
  M 182.72 126.37
  Q 181.88 122.77 179.46 115.92
  C 177.94 111.63 176.91 104.26 176.63 98.99
  Q 176.25 91.83 175.36 84.69
  C 174.61 78.54 168.91 77.82 164.61 75.28
  A 2.82 2.82 0.0 0 1 163.98 74.79
  C 161.67 72.51 159.92 66.39 164.84 65.29
  Q 169.93 64.15 176.67 65.23
  C 186.67 66.83 190.16 77.12 190.77 85.77
  Q 192.10 104.36 192.43 107.11
  C 193.03 112.29 194.08 118.09 199.60 119.93
  Q 202.39 120.86 205.09 122.43
  A 3.65 3.60 -78.6 0 1 206.85 125.12
  Q 207.37 129.53 205.92 133.25
  A 2.89 2.88 -6.4 0 1 204.82 134.62
  C 201.16 137.04 199.10 138.01 196.58 140.73
  Q 192.52 145.12 192.13 153.48
  C 191.53 166.20 191.53 174.77 187.60 184.84
  C 184.57 192.62 175.18 194.14 167.93 194.80
  C 161.92 195.34 161.94 188.99 162.95 184.99
  A 4.83 4.81 85.7 0 1 165.75 181.73
  C 170.73 179.65 174.47 179.08 175.36 173.40
  C 176.52 165.92 176.48 157.27 177.32 148.75
  Q 177.59 146.01 178.62 142.88
  Q 179.89 139.03 181.62 133.07
  Q 182.92 128.61 182.89 127.63
  A 6.23 6.12 -53.2 0 0 182.72 126.37
  Z"
/>
<path fill="#173647" d="
  M 99.55 124.10
  L 102.31 125.70
  A 0.99 0.98 10.1 0 1 102.79 126.38
  Q 103.49 129.96 101.48 132.94
  A 1.92 1.88 6.8 0 1 100.53 133.67
  Q 96.15 135.23 91.83 133.35
  Q 90.07 132.59 89.68 131.21
  Q 89.17 129.39 90.22 126.17
  A 0.22 0.22 0.0 0 1 90.64 126.15
  Q 90.73 126.37 90.62 127.11
  L 90.63 127.11
  Q 90.83 126.38 90.83 125.42
  A 2.14 2.13 2.3 0 1 93.12 123.31
  L 99.67 123.77
  A 0.10 0.08 0.7 0 1 99.75 123.84
  Q 99.78 124.01 99.57 124.03
  A 0.04 0.04 0.0 0 0 99.55 124.10
  Z
  M 95.67 129.01
  A 0.62 0.62 0.0 0 0 95.05 128.39
  A 0.62 0.62 0.0 0 0 94.43 129.01
  A 0.62 0.62 0.0 0 0 95.05 129.63
  A 0.62 0.62 0.0 0 0 95.67 129.01
  Z"
/>
<path fill="#173647" d="
  M 133.64 130.78
  Q 133.68 130.50 133.88 130.39
  A 0.17 0.17 0.0 0 1 134.13 130.53
  Q 134.15 130.77 133.91 130.93
  A 0.06 0.05 -62.8 0 0 133.94 131.03
  Q 134.10 131.03 134.26 131.11
  A 0.10 0.10 0.0 0 0 134.40 131.05
  Q 134.97 128.46 134.60 125.70
  A 1.09 1.09 0.0 0 0 134.09 124.92
  Q 130.95 123.02 126.51 123.49
  Q 126.08 123.53 126.04 123.53
  A 0.10 0.10 0.0 0 1 126.06 123.33
  C 129.84 123.34 132.62 122.95 134.78 125.44
  A 1.45 1.41 -66.7 0 1 135.11 126.30
  C 135.18 129.14 134.72 132.96 131.62 133.77
  Q 127.47 134.86 123.27 132.81
  A 1.86 1.86 0.0 0 1 122.42 131.96
  Q 121.38 129.86 122.36 125.65
  A 0.02 0.02 0.0 0 1 122.40 125.65
  L 122.08 130.27
  A 1.00 0.98 32.3 0 0 122.20 130.78
  L 123.17 132.46
  A 0.54 0.54 0.0 0 0 123.91 132.66
  L 124.21 132.48
  A 0.33 0.33 0.0 0 0 124.28 131.97
  Q 122.41 130.06 123.64 127.41
  A 0.18 0.18 0.0 0 0 123.53 127.16
  L 123.52 127.16
  A 0.17 0.16 14.5 0 0 123.29 127.29
  L 123.04 130.50
  A 0.17 0.17 0.0 0 1 122.71 130.51
  Q 122.30 128.05 123.11 126.07
  A 1.53 1.51 88.5 0 1 123.83 125.30
  Q 126.43 124.02 130.36 124.21
  A 2.33 2.31 -29.7 0 1 131.25 124.45
  Q 134.58 126.15 133.64 130.78
  Q 133.60 131.00 133.64 130.78
  Z"
/>
<path fill="#173647" d="
  M 153.13 130.11
  Q 153.11 128.33 153.14 126.56
  A 0.03 0.03 0.0 0 1 153.20 126.56
  Q 153.21 126.62 153.21 126.67
  C 153.24 127.16 152.99 127.88 153.15 128.05
  A 0.29 0.28 22.6 0 0 153.64 127.85
  Q 153.63 125.99 155.43 123.67
  A 0.88 0.85 -67.4 0 1 156.20 123.34
  Q 156.90 123.41 157.33 123.72
  A 0.24 0.23 60.6 0 0 157.46 123.76
  L 164.55 123.94
  A 1.42 1.41 72.3 0 1 165.64 124.51
  Q 166.35 125.48 166.64 125.50
  A 0.73 0.72 89.0 0 1 167.28 126.12
  Q 167.64 128.66 166.90 130.14
  Q 165.96 132.02 166.08 132.49
  A 0.29 0.29 0.0 0 1 165.64 132.80
  Q 165.07 132.44 163.76 133.36
  C 161.97 134.62 157.95 134.16 156.44 134.10
  A 2.19 2.12 -27.0 0 1 155.36 133.77
  Q 153.47 132.56 153.46 129.43
  A 0.17 0.16 -33.7 0 0 153.14 129.37
  Q 152.98 129.71 153.13 130.11
  Z"
/>
<circle fill="#16344b" cx="95.05" cy="129.01" r="0.62"/>
</svg>