<?xml version="1.0" encoding="UTF-8" standalone="no"?>
<!DOCTYPE svg PUBLIC "-//W3C//DTD SVG 1.1//EN" "http://www.w3.org/Graphics/SVG/1.1/DTD/svg11.dtd">
<svg xmlns="http://www.w3.org/2000/svg" version="1.1" viewBox="0.00 0.00 180.00 180.00" width="128" height="128">
<g stroke-width="2.00" fill="none" stroke-linecap="butt">
<path stroke="#cdcef7" vector-effect="non-scaling-stroke" d="
  M 108.51 21.58
  Q 105.16 21.25 101.11 19.63
  Q 96.68 17.85 94.06 22.58"
/>
<path stroke="#77779d" vector-effect="non-scaling-stroke" d="
  M 94.06 22.58
  L 91.06 20.88
  A 2.49 2.49 0.0 0 0 88.60 20.88
  L 67.92 32.48
  A 1.07 1.05 -1.3 0 0 67.47 32.94
  Q 66.94 33.96 67.29 35.25"
/>
<path stroke="#c2c1f8" vector-effect="non-scaling-stroke" d="
  M 67.29 35.25
  L 59.29 39.32"
/>
<path stroke="#59559b" vector-effect="non-scaling-stroke" d="
  M 67.64 55.50
  L 67.61 77.80
  A 2.16 2.11 -33.1 0 1 67.41 78.70
  Q 66.48 80.78 64.85 81.64
  Q 57.30 85.66 52.01 89.03
  A 2.22 2.21 -46.7 0 1 49.73 89.10
  L 42.63 85.10"
/>
<path stroke="#59559b" vector-effect="non-scaling-stroke" d="
  M 67.61 43.04
  L 67.29 35.25"
/>
<path stroke="#65619a" vector-effect="non-scaling-stroke" d="
  M 120.72 37.97
  Q 116.80 41.09 112.29 42.55"
/>
<path stroke="#65619a" vector-effect="non-scaling-stroke" d="
  M 112.28 38.22
  L 112.50 33.84
  A 1.90 1.89 15.8 0 0 111.52 32.10
  L 94.06 22.58"
/>
<path stroke="#5c5d9c" vector-effect="non-scaling-stroke" d="
  M 55.14 49.70
  L 47.48 45.76
  A 3.30 3.28 -46.8 0 0 44.29 45.87
  Q 35.20 51.32 25.34 56.35
  Q 23.81 57.13 23.80 59.75
  Q 23.74 72.74 24.15 79.14"
/>
<path stroke="#9190e6" vector-effect="non-scaling-stroke" d="
  M 66.49 102.62
  Q 61.63 102.28 57.18 100.51
  C 53.49 99.05 50.87 98.99 47.39 98.99
  Q 45.53 98.99 41.90 97.87
  Q 40.14 97.32 38.78 96.05
  A 2.50 2.47 -10.7 0 0 38.05 95.56
  L 29.76 91.71"
/>
<path stroke="#6361c9" vector-effect="non-scaling-stroke" d="
  M 67.65 108.48
  Q 62.60 109.75 58.77 107.66"
/>
<path stroke="#8a81e4" vector-effect="non-scaling-stroke" d="
  M 158.96 49.68
  L 149.86 53.45"
/>
<path stroke="#6353ab" vector-effect="non-scaling-stroke" d="
  M 149.86 53.45
  L 135.34 45.33"
/>
<path stroke="#877be9" vector-effect="non-scaling-stroke" d="
  M 135.34 45.33
  L 132.98 44.72
  A 1.34 1.29 -46.1 0 0 132.22 44.75
  L 129.23 45.78
  A 1.22 1.20 52.7 0 1 128.14 45.62
  Q 124.90 43.33 121.03 42.71"
/>
<path stroke="#4e3ca1" vector-effect="non-scaling-stroke" d="
  M 135.34 45.33
  Q 132.77 44.80 129.12 47.36
  C 124.46 50.63 117.64 53.62 113.59 55.85
  Q 99.49 63.63 95.15 66.65
  A 10.57 10.48 -66.2 0 1 90.64 68.42
  L 90.06 68.50
  A 1.97 1.91 55.7 0 1 88.78 68.24
  L 73.08 58.85"
/>
<path stroke="#51429c" vector-effect="non-scaling-stroke" d="
  M 149.86 53.45
  L 154.96 56.05
  A 2.31 2.31 0.0 0 1 156.18 58.51
  Q 155.10 64.63 156.12 71.02
  Q 156.88 75.72 155.35 80.05"
/>
<path stroke="#4d3caf" vector-effect="non-scaling-stroke" d="
  M 137.94 86.16
  C 139.30 88.83 140.80 92.55 137.62 94.19
  A 1.50 1.47 -42.1 0 1 136.15 94.13
  L 126.51 88.03
  A 0.36 0.35 72.6 0 0 126.40 87.97
  Q 120.81 85.65 119.46 84.77
  Q 116.08 82.57 112.51 80.62"
/>
<path stroke="#6345b6" vector-effect="non-scaling-stroke" d="
  M 164.17 122.99
  L 154.93 126.00"
/>
<path stroke="#ab91ea" vector-effect="non-scaling-stroke" d="
  M 95.04 91.43
  Q 93.22 89.12 88.96 88.63"
/>
<path stroke="#ab91ea" vector-effect="non-scaling-stroke" d="
  M 94.51 93.36
  Q 94.56 93.89 94.81 94.33
  Q 95.15 94.94 95.02 95.25
  Q 94.79 95.79 93.93 96.06"
/>
<path stroke="#ab91ea" vector-effect="non-scaling-stroke" d="
  M 92.54 95.30
  Q 88.95 97.29 86.28 92.79"
/>
<path stroke="#ab91ea" vector-effect="non-scaling-stroke" d="
  M 87.49 89.67
  Q 85.99 90.10 85.96 91.81"
/>
<path stroke="#5e51b8" vector-effect="non-scaling-stroke" d="
  M 69.39 160.31
  C 76.13 161.67 80.75 163.14 86.62 160.17"
/>
<path stroke="#4542ad" vector-effect="non-scaling-stroke" d="
  M 23.98 116.15
  C 21.32 119.98 18.30 117.65 15.75 115.51"
/>
</g>
<path fill="#dfe3fa" d="
  M 108.51 21.58
  Q 105.16 21.25 101.11 19.63
  Q 96.68 17.85 94.06 22.58
  L 91.06 20.88
  A 2.49 2.49 0.0 0 0 88.60 20.88
  L 67.92 32.48
  A 1.07 1.05 -1.3 0 0 67.47 32.94
  Q 66.94 33.96 67.29 35.25
  L 59.29 39.32
  Q 59.31 34.63 59.40 29.98
  C 59.43 28.47 60.92 27.16 62.32 26.38
  Q 83.04 14.89 86.19 12.91
  Q 89.21 11.02 92.21 12.60
  Q 100.43 16.92 108.51 21.58
  Z"
/>
<path fill="#bbb8f4" d="
  M 108.51 21.58
  L 119.10 27.47
  A 3.00 2.98 -75.9 0 1 120.63 30.05
  L 120.72 37.97
  Q 116.80 41.09 112.29 42.55
  L 112.28 38.22
  L 112.50 33.84
  A 1.90 1.89 15.8 0 0 111.52 32.10
  L 94.06 22.58
  Q 96.68 17.85 101.11 19.63
  Q 105.16 21.25 108.51 21.58
  Z"
/>
<path fill="#0e0a40" fill-opacity="0.996" d="
  M 94.06 22.58
  L 111.52 32.10
  A 1.90 1.89 15.8 0 1 112.50 33.84
  L 112.28 38.22
  Q 112.38 36.54 111.74 35.23
  A 0.80 0.78 1.8 0 0 111.41 34.89
  L 90.39 23.12
  A 2.03 2.02 44.6 0 0 88.38 23.13
  L 68.34 34.70
  A 1.30 1.30 0.0 0 0 67.69 35.81
  L 67.61 43.04
  L 67.29 35.25
  Q 66.94 33.96 67.47 32.94
  A 1.07 1.05 -1.3 0 1 67.92 32.48
  L 88.60 20.88
  A 2.49 2.49 0.0 0 1 91.06 20.88
  L 94.06 22.58
  Z"
/>
<path fill="#9c91f3" d="
  M 90.29 27.72
  Q 90.71 27.72 91.02 28.27
  Q 95.97 37.01 100.11 44.12
  A 0.65 0.64 -15.1 0 1 99.55 45.09
  L 92.75 45.09
  A 0.80 0.80 0.0 0 0 91.95 45.87
  L 91.73 54.27
  A 1.19 1.17 73.0 0 1 91.26 55.18
  Q 91.05 55.33 89.94 55.31
  Q 88.82 55.30 88.62 55.14
  A 1.19 1.17 -71.3 0 1 88.17 54.22
  L 88.20 45.82
  A 0.80 0.80 0.0 0 0 87.42 45.01
  L 80.62 44.82
  A 0.65 0.64 16.8 0 1 80.09 43.83
  Q 84.43 36.84 89.63 28.25
  Q 89.96 27.71 90.29 27.72
  Z"
/>
<path fill="#a49ff5" d="
  M 67.29 35.25
  L 67.61 43.04
  L 67.64 55.50
  L 67.61 77.80
  A 2.16 2.11 -33.1 0 1 67.41 78.70
  Q 66.48 80.78 64.85 81.64
  Q 57.30 85.66 52.01 89.03
  A 2.22 2.21 -46.7 0 1 49.73 89.10
  L 42.63 85.10
  L 58.12 76.25
  A 2.28 2.26 75.4 0 0 59.27 74.27
  L 59.29 39.32
  L 67.29 35.25
  Z"
/>
<path fill="#a9aff7" d="
  M 55.14 49.70
  L 47.48 45.76
  A 3.30 3.28 -46.8 0 0 44.29 45.87
  Q 35.20 51.32 25.34 56.35
  Q 23.81 57.13 23.80 59.75
  Q 23.74 72.74 24.15 79.14
  L 66.49 102.62
  Q 61.63 102.28 57.18 100.51
  C 53.49 99.05 50.87 98.99 47.39 98.99
  Q 45.53 98.99 41.90 97.87
  Q 40.14 97.32 38.78 96.05
  A 2.50 2.47 -10.7 0 0 38.05 95.56
  L 29.76 91.71
  Q 24.20 88.97 18.76 85.71
  C 15.21 83.58 15.69 81.10 15.66 76.70
  Q 15.58 67.54 15.73 55.79
  Q 15.77 52.62 19.05 50.78
  Q 29.24 45.06 42.20 37.69
  C 47.34 34.76 49.81 37.51 54.51 39.73
  A 1.14 1.14 0.0 0 1 55.16 40.76
  L 55.14 49.70
  Z"
/>
<path fill="#9c91f3" d="
  M 158.96 49.68
  L 149.86 53.45
  L 135.34 45.33
  L 132.98 44.72
  A 1.34 1.29 -46.1 0 0 132.22 44.75
  L 129.23 45.78
  A 1.22 1.20 52.7 0 1 128.14 45.62
  Q 124.90 43.33 121.03 42.71
  Q 125.82 39.89 130.64 37.16
  Q 133.61 35.48 136.62 37.13
  Q 147.40 43.07 158.96 49.68
  Z"
/>
<path fill="#0e0a40" fill-opacity="0.996" d="
  M 120.72 37.97
  Q 121.59 39.19 121.23 40.43
  A 0.67 0.65 -5.4 0 1 120.87 40.85
  L 112.81 44.64
  A 0.18 0.18 0.0 0 1 112.65 44.64
  Q 111.78 44.22 112.29 42.55
  Q 116.80 41.09 120.72 37.97
  Z"
/>
<path fill="#7164df" d="
  M 121.03 42.71
  Q 124.90 43.33 128.14 45.62
  A 1.22 1.20 52.7 0 0 129.23 45.78
  L 132.22 44.75
  A 1.34 1.29 -46.1 0 1 132.98 44.72
  L 135.34 45.33
  Q 132.77 44.80 129.12 47.36
  C 124.46 50.63 117.64 53.62 113.59 55.85
  Q 99.49 63.63 95.15 66.65
  A 10.57 10.48 -66.2 0 1 90.64 68.42
  L 90.06 68.50
  A 1.97 1.91 55.7 0 1 88.78 68.24
  L 73.08 58.85
  L 73.20 52.72
  A 0.64 0.64 0.0 0 1 74.15 52.18
  L 88.18 60.28
  A 2.26 2.25 45.1 0 0 90.44 60.29
  L 121.03 42.71
  Z"
/>
<path fill="#2a1463" fill-opacity="0.996" d="
  M 135.34 45.33
  L 149.86 53.45
  L 154.96 56.05
  A 2.31 2.31 0.0 0 1 156.18 58.51
  Q 155.10 64.63 156.12 71.02
  Q 156.88 75.72 155.35 80.05
  L 155.10 60.22
  A 1.96 1.95 14.2 0 0 154.10 58.55
  L 133.18 46.93
  A 0.75 0.75 0.0 0 0 132.77 46.83
  Q 131.09 46.89 129.36 47.86
  Q 109.06 59.25 92.56 69.55
  C 90.74 70.69 89.22 70.73 87.32 69.62
  Q 78.08 64.21 74.13 62.05
  A 1.63 1.62 -83.9 0 1 73.37 61.10
  Q 73.01 59.92 73.08 58.85
  L 88.78 68.24
  A 1.97 1.91 55.7 0 0 90.06 68.50
  L 90.64 68.42
  A 10.57 10.48 -66.2 0 0 95.15 66.65
  Q 99.49 63.63 113.59 55.85
  C 117.64 53.62 124.46 50.63 129.12 47.36
  Q 132.77 44.80 135.34 45.33
  Z"
/>
<path fill="#0e0a40" fill-opacity="0.996" d="
  M 55.14 49.70
  Q 55.47 50.60 54.84 51.09
  A 0.61 0.60 -49.0 0 1 54.17 51.14
  L 47.69 47.39
  A 2.43 2.42 -44.8 0 0 45.28 47.39
  L 24.83 59.20
  A 0.73 0.71 -15.4 0 0 24.47 59.82
  L 24.15 79.14
  Q 23.74 72.74 23.80 59.75
  Q 23.81 57.13 25.34 56.35
  Q 35.20 51.32 44.29 45.87
  A 3.30 3.28 -46.8 0 1 47.48 45.76
  L 55.14 49.70
  Z"
/>
<path fill="#7870d4" d="
  M 155.35 80.05
  Q 156.88 75.72 156.12 71.02
  Q 155.10 64.63 156.18 58.51
  A 2.31 2.31 0.0 0 0 154.96 56.05
  L 149.86 53.45
  L 158.96 49.68
  Q 160.29 50.19 161.89 51.30
  C 163.93 52.73 164.07 54.17 164.08 56.52
  Q 164.11 75.41 163.87 82.30
  C 163.74 85.80 158.47 88.19 154.09 90.68
  A 2.22 2.21 -44.6 0 1 151.88 90.67
  L 145.97 87.26
  A 0.84 0.84 0.0 0 1 145.95 85.82
  L 155.35 80.05
  Z"
/>
<path fill="#0e0a40" fill-opacity="0.996" d="
  M 67.64 55.50
  Q 67.72 67.16 67.57 78.81
  C 67.54 81.27 66.62 82.55 64.42 83.77
  Q 58.05 87.29 52.21 90.36
  Q 50.56 91.23 48.66 90.12
  Q 44.84 87.89 43.14 86.62
  Q 42.49 86.12 42.63 85.10
  L 49.73 89.10
  A 2.22 2.21 -46.7 0 0 52.01 89.03
  Q 57.30 85.66 64.85 81.64
  Q 66.48 80.78 67.41 78.70
  A 2.16 2.11 -33.1 0 0 67.61 77.80
  L 67.64 55.50
  Z"
/>
<path fill="#5c45c2" d="
  M 137.94 86.16
  C 139.30 88.83 140.80 92.55 137.62 94.19
  A 1.50 1.47 -42.1 0 1 136.15 94.13
  L 126.51 88.03
  A 0.36 0.35 72.6 0 0 126.40 87.97
  Q 120.81 85.65 119.46 84.77
  Q 116.08 82.57 112.51 80.62
  L 112.47 62.88
  A 3.03 3.02 -15.2 0 1 113.99 60.24
  L 119.30 57.18
  A 1.07 1.06 75.0 0 1 120.90 58.11
  Q 120.88 68.49 120.75 74.47
  Q 120.70 76.58 122.88 77.69
  Q 130.63 81.66 137.94 86.16
  Z"
/>
<path fill="#7164df" d="
  M 29.65 59.93
  A 0.38 0.38 0.0 0 1 29.98 59.37
  L 49.09 59.44
  A 1.23 1.23 0.0 0 1 50.23 61.13
  Q 49.27 63.51 47.16 66.01
  A 0.90 0.89 -55.0 0 0 47.39 67.36
  L 54.06 71.24
  A 1.51 1.51 0.0 0 1 54.61 73.30
  L 54.01 74.33
  A 1.38 1.36 -59.6 0 1 52.14 74.83
  L 45.71 71.08
  A 1.08 1.07 30.2 0 0 44.25 71.46
  L 40.70 77.56
  A 0.56 0.56 0.0 0 1 39.73 77.55
  L 29.65 59.93
  Z"
/>
<path fill="#5c45c2" d="
  M 150.24 59.89
  L 139.98 77.66
  A 0.57 0.57 0.0 0 1 139.00 77.66
  L 135.44 71.49
  A 1.09 1.08 -30.0 0 0 133.96 71.10
  L 127.45 74.86
  A 1.39 1.38 59.8 0 1 125.56 74.35
  L 124.96 73.31
  A 1.52 1.52 0.0 0 1 125.52 71.23
  L 132.28 67.33
  A 0.90 0.90 0.0 0 0 132.52 65.97
  Q 130.39 63.43 129.43 61.02
  A 1.25 1.24 -10.8 0 1 130.59 59.32
  L 149.91 59.32
  A 0.38 0.38 0.0 0 1 150.24 59.89
  Z"
/>
<path fill="#763fda" d="
  M 95.04 91.43
  Q 93.22 89.12 88.96 88.63
  L 88.95 74.98
  A 1.26 1.26 0.0 0 1 90.21 73.72
  L 90.54 73.72
  A 1.03 1.03 0.0 0 1 91.57 74.73
  L 91.70 88.09
  A 1.13 1.13 0.0 0 0 93.40 89.05
  L 106.05 81.75
  A 1.13 1.13 0.0 0 1 107.60 82.17
  L 107.99 82.84
  A 1.28 1.28 0.0 0 1 107.49 84.61
  L 95.04 91.43
  Z"
/>
<path fill="#3d339c" d="
  M 137.94 86.16
  Q 150.12 92.69 161.99 99.52
  Q 163.97 100.65 164.03 102.98
  Q 164.28 112.98 164.17 122.99
  L 154.93 126.00
  L 155.28 107.38
  A 2.12 2.11 -74.7 0 0 154.22 105.51
  Q 139.91 97.18 125.05 89.42
  Q 118.15 85.82 114.29 83.22
  Q 113.04 82.38 112.51 80.62
  Q 116.08 82.57 119.46 84.77
  Q 120.81 85.65 126.40 87.97
  A 0.36 0.35 72.6 0 1 126.51 88.03
  L 136.15 94.13
  A 1.50 1.47 -42.1 0 0 137.62 94.19
  C 140.80 92.55 139.30 88.83 137.94 86.16
  Z"
/>
<path fill="#763fda" d="
  M 87.49 89.67
  Q 85.99 90.10 85.96 91.81
  L 72.45 84.66
  A 1.11 1.10 -61.3 0 1 72.01 83.13
  L 72.59 82.14
  A 1.08 1.08 0.0 0 1 74.08 81.75
  L 87.49 89.67
  Z"
/>
<path fill="#dfe3fa" d="
  M 95.04 91.43
  Q 94.30 91.83 93.98 92.18
  Q 93.67 92.51 93.90 92.89
  Q 94.09 93.20 94.51 93.36
  Q 94.56 93.89 94.81 94.33
  Q 95.15 94.94 95.02 95.25
  Q 94.79 95.79 93.93 96.06
  L 92.54 95.30
  Q 88.95 97.29 86.28 92.79
  Q 86.22 91.98 85.96 91.81
  Q 85.99 90.10 87.49 89.67
  Q 87.83 89.86 88.16 89.84
  Q 88.50 89.81 88.71 89.46
  Q 88.93 89.09 88.96 88.63
  Q 93.22 89.12 95.04 91.43
  Z"
/>
<path fill="#7870d4" d="
  M 66.49 102.62
  Q 67.81 105.28 67.65 108.48
  Q 62.60 109.75 58.77 107.66
  L 29.76 91.71
  L 38.05 95.56
  A 2.50 2.47 -10.7 0 1 38.78 96.05
  Q 40.14 97.32 41.90 97.87
  Q 45.53 98.99 47.39 98.99
  C 50.87 98.99 53.49 99.05 57.18 100.51
  Q 61.63 102.28 66.49 102.62
  Z"
/>
<path fill="#763fda" d="
  M 86.28 92.79
  Q 88.95 97.29 92.54 95.30
  Q 91.56 95.50 91.57 96.33
  Q 91.68 103.56 91.66 110.90
  A 1.34 1.33 -86.2 0 1 90.16 112.22
  L 89.90 112.18
  A 1.31 1.31 0.0 0 1 88.75 110.88
  L 88.75 96.70
  A 1.10 1.10 0.0 0 0 87.10 95.75
  L 73.96 103.34
  A 1.37 1.37 0.0 0 1 72.15 102.92
  L 71.93 102.60
  A 1.38 1.37 -31.2 0 1 72.41 100.66
  L 86.28 92.79
  Z"
/>
<path fill="#763fda" d="
  M 93.93 96.06
  Q 94.79 95.79 95.02 95.25
  Q 95.15 94.94 94.81 94.33
  Q 94.56 93.89 94.51 93.36
  L 107.72 100.66
  A 1.13 1.12 -60.7 0 1 108.15 102.21
  L 107.82 102.78
  A 1.17 1.16 29.8 0 1 106.22 103.21
  L 93.93 96.06
  Z"
/>
<path fill="#775dc9" d="
  M 69.39 160.31
  C 76.13 161.67 80.75 163.14 86.62 160.17
  Q 88.08 161.56 89.89 161.89
  A 1.07 1.06 34.7 0 0 90.62 161.76
  L 111.46 149.74
  A 1.35 1.34 74.8 0 0 112.12 148.58
  Q 112.00 125.57 112.15 105.73
  C 112.16 103.91 113.06 102.39 114.73 101.37
  Q 121.24 97.39 126.51 94.74
  A 3.16 3.16 0.0 0 1 129.51 94.82
  L 134.73 97.83
  A 0.92 0.92 0.0 0 1 134.73 99.42
  L 122.09 106.72
  A 2.69 2.68 75.9 0 0 120.74 108.98
  Q 120.73 109.64 120.74 112.50
  Q 120.87 137.53 120.43 151.99
  C 120.34 155.15 118.09 156.14 115.01 157.91
  Q 102.75 164.95 96.10 168.72
  A 1.93 1.88 -59.2 0 1 95.16 168.97
  L 85.65 168.97
  A 2.98 2.93 -29.7 0 1 84.18 168.58
  L 69.39 160.31
  Z"
/>
<path fill="#4d51bd" d="
  M 23.98 116.15
  C 21.32 119.98 18.30 117.65 15.75 115.51
  Q 15.38 106.96 15.81 102.57
  C 16.10 99.56 22.91 96.34 24.84 95.29
  A 3.70 3.69 45.7 0 1 28.44 95.34
  L 33.49 98.26
  A 1.17 1.17 0.0 0 1 33.49 100.29
  L 25.07 105.16
  A 1.81 1.79 76.0 0 0 24.17 106.67
  L 23.98 116.15
  Z"
/>
<path fill="#5c45c2" d="
  M 150.36 124.48
  Q 150.19 124.78 150.00 124.78
  Q 139.13 124.62 129.73 125.05
  A 0.63 0.63 0.0 0 1 129.15 124.11
  L 132.47 118.37
  A 0.94 0.93 30.2 0 0 132.13 117.10
  L 125.21 113.11
  A 0.92 0.92 0.0 0 1 124.87 111.87
  Q 125.34 111.02 125.60 110.56
  Q 125.86 110.10 126.33 109.26
  A 0.92 0.92 0.0 0 1 127.57 108.91
  L 134.58 112.75
  A 0.94 0.93 28.5 0 0 135.84 112.38
  L 139.02 106.56
  A 0.63 0.63 0.0 0 1 140.12 106.57
  Q 144.64 114.82 150.42 124.03
  Q 150.52 124.19 150.36 124.48
  Z"
/>
<path fill="#4d51bd" d="
  M 40.78 106.96
  L 44.13 112.77
  A 0.68 0.68 0.0 0 0 45.06 113.02
  L 52.42 108.77
  A 0.68 0.68 0.0 0 1 53.35 109.02
  L 54.85 111.61
  A 0.68 0.68 0.0 0 1 54.60 112.54
  L 46.84 117.02
  A 0.68 0.68 0.0 0 0 46.59 117.95
  L 49.93 123.74
  A 0.68 0.68 0.0 0 1 49.34 124.76
  L 30.51 124.76
  A 0.68 0.68 0.0 0 1 29.92 123.74
  L 39.60 106.96
  A 0.68 0.68 0.0 0 1 40.78 106.96
  Z"
/>
<path fill="#4d51bd" d="
  M 67.65 108.48
  L 67.58 120.77
  A 1.22 1.21 75.0 0 1 66.98 121.82
  L 60.30 125.67
  A 0.82 0.82 0.0 0 1 59.07 124.97
  L 58.77 107.66
  Q 62.60 109.75 67.65 108.48
  Z"
/>
<path fill="#3d339c" d="
  M 23.98 116.15
  L 23.94 124.61
  A 2.60 2.58 -75.0 0 0 25.24 126.88
  L 44.50 138.01
  A 2.82 2.82 0.0 0 0 47.30 138.01
  Q 68.78 125.63 88.31 116.00
  A 4.00 4.00 0.0 0 1 92.06 116.13
  L 106.17 124.28
  A 1.36 1.35 -75.2 0 1 106.85 125.46
  L 106.85 132.61
  A 0.65 0.65 0.0 0 1 105.88 133.17
  L 91.20 124.69
  A 2.49 2.48 -43.7 0 0 88.81 124.64
  Q 65.71 136.82 48.40 146.41
  C 46.70 147.35 44.64 146.94 42.87 145.97
  Q 35.58 141.97 18.52 132.25
  Q 16.13 130.89 15.93 128.00
  Q 15.51 121.80 15.75 115.51
  C 18.30 117.65 21.32 119.98 23.98 116.15
  Z"
/>
<path fill="#8857cf" d="
  M 164.17 122.99
  C 164.21 127.89 164.34 130.23 160.24 132.72
  Q 147.80 140.24 136.48 146.45
  A 5.30 5.27 45.5 0 1 131.28 146.39
  L 125.02 142.78
  A 1.71 1.70 -75.2 0 1 124.17 141.30
  L 124.17 134.32
  A 0.82 0.81 -75.1 0 1 125.39 133.61
  L 132.11 137.49
  A 2.92 2.90 -44.8 0 0 135.02 137.49
  L 154.93 126.00
  L 164.17 122.99
  Z"
/>
<path fill="#3d339c" d="
  M 90.05 129.84
  Q 91.15 129.83 91.36 129.99
  A 1.17 1.16 -72.4 0 1 91.81 130.89
  L 91.95 139.20
  A 0.79 0.79 0.0 0 0 92.73 139.98
  L 99.45 140.05
  A 0.64 0.64 0.0 0 1 100.00 141.01
  Q 95.83 148.00 90.85 156.59
  Q 90.53 157.13 90.12 157.13
  Q 89.79 157.13 89.47 156.59
  Q 84.42 148.04 80.20 141.09
  A 0.64 0.64 0.0 0 1 80.73 140.12
  L 87.46 140.00
  A 0.79 0.79 0.0 0 0 88.23 139.21
  L 88.30 130.90
  A 1.17 1.16 71.9 0 1 88.75 130.00
  Q 88.95 129.84 90.05 129.84
  Z"
/>
<path fill="#4545a7" d="
  M 86.62 160.17
  C 80.75 163.14 76.13 161.67 69.39 160.31
  Q 67.30 159.24 65.20 158.02
  C 62.84 156.66 59.98 155.84 59.49 152.66
  Q 59.10 150.09 59.22 147.25
  C 59.31 145.21 59.38 144.22 60.99 143.04
  Q 63.55 141.18 66.59 140.42
  A 0.43 0.43 0.0 0 1 67.12 140.84
  L 67.12 148.24
  A 1.71 1.68 -75.8 0 0 67.99 149.73
  L 86.62 160.17
  Z"
/>
</svg>