<?xml version="1.0" encoding="UTF-8" standalone="no"?>
<!DOCTYPE svg PUBLIC "-//W3C//DTD SVG 1.1//EN" "http://www.w3.org/Graphics/SVG/1.1/DTD/svg11.dtd">
<svg xmlns="http://www.w3.org/2000/svg" version="1.1" viewBox="0.00 0.00 128.00 128.00" width="128" height="128">
<g stroke-width="2.00" fill="none" stroke-linecap="butt">
<path stroke="#0096fd" stroke-opacity="0.698" vector-effect="non-scaling-stroke" d="
  M 51.72 20.05
  L 44.55 19.81"
/>
<path stroke="#0097fe" stroke-opacity="0.804" vector-effect="non-scaling-stroke" d="
  M 51.51 36.08
  L 40.25 36.14"
/>
<path stroke="#0097fe" stroke-opacity="0.804" vector-effect="non-scaling-stroke" d="
  M 75.68 43.94
  L 54.69 43.99"
/>
<path stroke="#0096fe" stroke-opacity="0.922" vector-effect="non-scaling-stroke" d="
  M 83.91 47.99
  L 84.22 51.00
  A 0.96 0.95 -3.0 0 0 85.17 51.85
  L 87.42 51.85
  A 0.75 0.75 0.0 0 1 88.17 52.60
  L 88.17 54.92
  A 0.78 0.77 5.4 0 0 88.80 55.68
  Q 90.20 55.95 91.78 55.59"
/>
<path stroke="#0096fd" stroke-opacity="0.698" vector-effect="non-scaling-stroke" d="
  M 92.17 56.68
  L 91.99 63.84"
/>
<path stroke="#0099fc" stroke-opacity="0.580" vector-effect="non-scaling-stroke" d="
  M 71.71 63.35
  Q 72.10 61.87 71.87 60.62
  A 0.71 0.71 0.0 0 0 71.17 60.04
  L 60.35 60.04
  A 0.64 0.63 -89.5 0 0 59.72 60.67
  Q 59.71 62.06 60.24 63.34"
/>
<path stroke="#0096fd" stroke-opacity="0.698" vector-effect="non-scaling-stroke" d="
  M 64.20 72.26
  Q 63.79 73.72 63.89 75.07
  A 0.87 0.86 88.5 0 0 64.73 75.87
  L 71.69 75.99"
/>
<path stroke="#0098fe" stroke-opacity="0.745" vector-effect="non-scaling-stroke" d="
  M 76.54 76.15
  Q 72.99 81.29 83.67 79.84"
/>
<path stroke="#0099fc" stroke-opacity="0.580" vector-effect="non-scaling-stroke" d="
  M 96.14 96.30
  L 96.02 108.07"
/>
<path stroke="#0096fe" stroke-opacity="0.851" vector-effect="non-scaling-stroke" d="
  M 79.99 124.10
  Q 66.11 124.82 52.30 124.10"
/>
<path stroke="#0096fd" stroke-opacity="0.698" vector-effect="non-scaling-stroke" d="
  M 35.84 111.26
  L 35.75 104.27"
/>
<path stroke="#0096fd" stroke-opacity="0.698" vector-effect="non-scaling-stroke" d="
  M 44.33 99.83
  L 51.93 99.70"
/>
<path stroke="#0098fe" stroke-opacity="0.745" vector-effect="non-scaling-stroke" d="
  M 71.42 95.98
  Q 71.93 94.50 71.73 93.21
  A 0.67 0.67 0.0 0 0 71.12 92.64
  L 64.25 92.06"
/>
<path stroke="#0096fe" stroke-opacity="0.851" vector-effect="non-scaling-stroke" d="
  M 59.75 91.91
  L 59.86 89.08
  A 0.81 0.80 10.4 0 0 59.30 88.28
  Q 58.21 87.93 56.94 88.28
  A 1.75 1.70 45.9 0 1 55.96 88.25
  Q 54.32 87.68 52.48 88.11"
/>
<path stroke="#0096fe" stroke-opacity="0.851" vector-effect="non-scaling-stroke" d="
  M 39.72 75.10
  L 39.96 56.26"
/>
<path stroke="#0098fe" stroke-opacity="0.745" vector-effect="non-scaling-stroke" d="
  M 79.78 3.80
  L 72.37 3.89"
/>
<path stroke="#0098fe" stroke-opacity="0.745" vector-effect="non-scaling-stroke" d="
  M 88.16 12.24
  L 87.96 23.64"
/>
<path stroke="#0096fe" stroke-opacity="0.851" vector-effect="non-scaling-stroke" d="
  M 83.59 27.99
  L 68.26 28.09"
/>
<path stroke="#0096fe" stroke-opacity="0.851" vector-effect="non-scaling-stroke" d="
  M 63.88 23.80
  L 64.00 8.24"
/>
</g>
<path fill="#019afc" fill-opacity="0.486" d="
  M 77.74 0.00
  L 79.53 0.35
  A 0.60 0.59 7.9 0 1 80.02 0.99
  L 79.78 3.80
  L 72.37 3.89
  Q 72.42 2.14 71.47 1.07
  A 0.45 0.44 -35.3 0 1 71.59 0.39
  Q 72.07 0.13 72.89 0.00
  L 77.74 0.00
  Z"
/>
<path fill="#0097ff" d="
  M 72.37 3.89
  L 79.78 3.80
  L 83.60 4.07
  A 0.62 0.62 0.0 0 1 84.18 4.69
  L 84.18 6.83
  A 1.05 1.05 0.0 0 0 85.23 7.88
  L 87.37 7.88
  A 0.64 0.64 0.0 0 1 88.01 8.50
  L 88.16 12.24
  L 87.96 23.64
  L 87.78 27.38
  A 0.57 0.56 0.5 0 1 87.23 27.91
  L 83.59 27.99
  L 68.26 28.09
  L 64.72 27.89
  A 0.60 0.60 0.0 0 1 64.16 27.34
  L 63.88 23.80
  L 64.00 8.24
  L 64.19 4.72
  A 0.52 0.52 0.0 0 1 64.69 4.22
  L 72.37 3.89
  Z"
/>
<path fill="#0095fd" fill-opacity="0.698" d="
  M 64.00 8.24
  L 63.88 23.80
  L 60.58 23.85
  A 0.58 0.58 0.0 0 1 59.99 23.27
  L 59.99 8.90
  A 0.71 0.71 0.0 0 1 60.57 8.20
  Q 62.15 7.90 64.00 8.24
  Z"
/>
<path fill="#019afc" fill-opacity="0.486" d="
  M 87.96 23.64
  L 88.16 12.24
  L 91.13 11.84
  A 0.46 0.45 -3.9 0 1 91.65 12.29
  L 91.65 23.45
  A 0.63 0.63 0.0 0 1 90.93 24.07
  L 87.96 23.64
  Z"
/>
<path fill="#0093f9" fill-opacity="0.392" d="
  M 51.72 20.05
  L 44.55 19.81
  Q 43.70 18.34 43.83 16.63
  A 0.65 0.64 1.9 0 1 44.48 16.03
  L 50.98 16.03
  A 0.81 0.80 80.3 0 1 51.74 16.57
  Q 52.28 18.08 51.72 20.05
  Z"
/>
<path fill="#0097ff" d="
  M 44.55 19.81
  L 51.72 20.05
  L 55.26 20.28
  A 0.73 0.73 0.0 0 1 55.94 21.01
  L 55.94 35.15
  A 0.62 0.61 88.0 0 1 55.37 35.77
  L 51.51 36.08
  L 40.25 36.14
  Q 38.59 35.61 36.60 35.95
  A 0.48 0.48 0.0 0 1 36.04 35.48
  L 36.04 24.52
  A 0.77 0.77 0.0 0 1 36.81 23.75
  L 39.39 23.75
  A 0.50 0.50 0.0 0 0 39.89 23.25
  L 39.89 20.80
  A 0.86 0.86 0.0 0 1 40.72 19.94
  L 44.55 19.81
  Z"
/>
<path fill="#0095fd" fill-opacity="0.698" d="
  M 83.59 27.99
  L 83.94 31.24
  A 0.61 0.60 87.0 0 1 83.34 31.91
  L 68.51 31.91
  A 0.54 0.54 0.0 0 1 67.97 31.32
  L 68.26 28.09
  L 83.59 27.99
  Z"
/>
<path fill="#0197fd" fill-opacity="0.604" d="
  M 51.51 36.08
  L 52.17 39.83
  A 0.19 0.18 84.8 0 1 51.99 40.05
  L 40.38 40.05
  A 0.51 0.50 -86.9 0 1 39.88 39.49
  L 40.25 36.14
  L 51.51 36.08
  Z"
/>
<path fill="#0197fd" fill-opacity="0.604" d="
  M 75.68 43.94
  L 54.69 43.99
  Q 56.34 42.72 55.62 40.73
  A 0.51 0.51 0.0 0 1 56.10 40.05
  L 75.41 40.05
  A 0.60 0.60 0.0 0 1 76.01 40.71
  L 75.68 43.94
  Z"
/>
<path fill="#0097ff" d="
  M 75.68 43.94
  L 83.29 44.19
  A 0.54 0.53 89.4 0 1 83.81 44.71
  L 83.91 47.99
  L 84.22 51.00
  A 0.96 0.95 -3.0 0 0 85.17 51.85
  L 87.42 51.85
  A 0.75 0.75 0.0 0 1 88.17 52.60
  L 88.17 54.92
  A 0.78 0.77 5.4 0 0 88.80 55.68
  Q 90.20 55.95 91.78 55.59
  Q 92.15 56.15 92.17 56.68
  L 91.99 63.84
  L 84.79 64.12
  A 0.80 0.79 6.7 0 0 84.07 64.68
  Q 83.73 65.77 84.34 67.16
  A 0.62 0.61 78.3 0 1 83.78 68.02
  L 76.42 68.02
  A 0.54 0.53 -89.0 0 1 75.89 67.46
  L 75.98 64.40
  A 0.38 0.38 0.0 0 0 75.54 64.01
  Q 75.52 64.01 72.59 64.08
  Q 72.22 64.09 71.96 63.90
  Q 71.65 63.69 71.71 63.35
  Q 72.10 61.87 71.87 60.62
  A 0.71 0.71 0.0 0 0 71.17 60.04
  L 60.35 60.04
  A 0.64 0.63 -89.5 0 0 59.72 60.67
  Q 59.71 62.06 60.24 63.34
  Q 58.57 64.15 56.98 63.81
  A 0.82 0.81 -84.0 0 0 56.00 64.61
  L 56.00 67.30
  A 0.82 0.82 0.0 0 0 56.82 68.12
  L 59.36 68.12
  A 0.49 0.49 0.0 0 1 59.85 68.61
  L 59.85 71.14
  A 0.89 0.89 0.0 0 0 60.69 72.03
  L 64.20 72.26
  Q 63.79 73.72 63.89 75.07
  A 0.87 0.86 88.5 0 0 64.73 75.87
  L 71.69 75.99
  L 76.54 76.15
  Q 72.99 81.29 83.67 79.84
  L 87.31 80.18
  A 0.60 0.59 -87.4 0 1 87.85 80.78
  L 87.85 83.42
  A 0.67 0.67 0.0 0 0 88.52 84.09
  L 91.41 84.09
  A 0.47 0.46 -90.0 0 1 91.87 84.56
  L 91.87 87.16
  A 1.00 1.00 0.0 0 0 92.87 88.16
  L 95.06 88.16
  A 0.57 0.57 0.0 0 1 95.63 88.70
  L 96.14 96.30
  L 96.02 108.07
  L 95.58 115.26
  A 0.62 0.61 1.5 0 1 94.96 115.84
  L 92.42 115.84
  A 0.51 0.50 -90.0 0 0 91.92 116.35
  L 91.92 119.36
  A 0.57 0.56 0.0 0 1 91.35 119.92
  L 88.53 119.92
  A 0.73 0.72 -90.0 0 0 87.81 120.65
  L 87.81 123.08
  A 0.74 0.73 -1.2 0 1 87.10 123.81
  L 79.99 124.10
  Q 66.11 124.82 52.30 124.10
  L 44.59 123.82
  A 0.50 0.50 0.0 0 1 44.11 123.32
  L 44.11 120.41
  A 0.47 0.47 0.0 0 0 43.64 119.94
  L 40.50 119.94
  A 0.45 0.44 90.0 0 1 40.06 119.49
  L 40.06 116.29
  A 0.39 0.39 0.0 0 0 39.67 115.90
  L 36.74 115.90
  A 0.65 0.65 0.0 0 1 36.09 115.29
  L 35.84 111.26
  L 35.75 104.27
  L 39.45 103.80
  A 0.60 0.60 0.0 0 0 39.98 103.20
  L 39.98 100.61
  A 0.55 0.55 0.0 0 1 40.50 100.06
  L 44.33 99.83
  L 51.93 99.70
  L 52.18 103.40
  A 0.64 0.64 0.0 0 0 52.82 104.00
  L 59.15 104.00
  A 0.87 0.87 0.0 0 1 59.98 105.13
  Q 59.54 106.58 59.65 107.25
  A 0.77 0.77 0.0 0 0 60.42 107.97
  L 75.21 107.95
  A 0.78 0.77 90.0 0 0 75.98 107.17
  L 75.98 96.65
  A 0.56 0.56 0.0 0 0 75.43 96.09
  L 71.42 95.98
  Q 71.93 94.50 71.73 93.21
  A 0.67 0.67 0.0 0 0 71.12 92.64
  L 64.25 92.06
  L 59.75 91.91
  L 59.86 89.08
  A 0.81 0.80 10.4 0 0 59.30 88.28
  Q 58.21 87.93 56.94 88.28
  A 1.75 1.70 45.9 0 1 55.96 88.25
  Q 54.32 87.68 52.48 88.11
  L 48.46 87.91
  A 0.60 0.60 0.0 0 1 47.88 87.31
  L 47.88 84.48
  A 0.49 0.49 0.0 0 0 47.39 83.99
  L 40.76 83.99
  A 0.61 0.61 0.0 0 1 40.15 83.41
  L 39.72 75.10
  L 39.96 56.26
  L 40.01 52.52
  A 0.64 0.64 0.0 0 1 40.65 51.88
  L 43.49 51.88
  A 0.42 0.41 0.0 0 0 43.91 51.47
  L 43.91 48.40
  A 0.49 0.49 0.0 0 1 44.40 47.91
  L 47.32 47.91
  A 0.65 0.64 90.0 0 0 47.96 47.26
  L 47.96 44.70
  A 0.52 0.51 -1.2 0 1 48.46 44.19
  L 54.69 43.99
  L 75.68 43.94
  Z"
/>
<path fill="#0095fd" fill-opacity="0.843" d="
  M 83.91 47.99
  L 87.39 48.05
  A 0.57 0.57 0.0 0 1 87.95 48.62
  L 87.95 51.42
  A 0.64 0.64 0.0 0 0 88.59 52.06
  L 91.32 52.06
  A 0.60 0.59 1.4 0 1 91.92 52.68
  L 91.78 55.59
  Q 90.20 55.95 88.80 55.68
  A 0.78 0.77 5.4 0 1 88.17 54.92
  L 88.17 52.60
  A 0.75 0.75 0.0 0 0 87.42 51.85
  L 85.17 51.85
  A 0.96 0.95 -3.0 0 1 84.22 51.00
  L 83.91 47.99
  Z"
/>
<path fill="#0095fd" fill-opacity="0.698" d="
  M 39.96 56.26
  L 39.72 75.10
  Q 39.41 75.84 38.99 75.85
  Q 37.85 75.88 36.58 76.05
  A 0.48 0.48 0.0 0 1 36.03 75.57
  L 36.03 56.62
  A 0.58 0.57 1.4 0 1 36.64 56.05
  L 39.96 56.26
  Z"
/>
<path fill="#0093f9" fill-opacity="0.392" d="
  M 91.99 63.84
  L 92.17 56.68
  Q 93.65 55.79 95.34 56.02
  A 0.71 0.70 -86.3 0 1 95.95 56.72
  L 95.95 59.79
  A 0.41 0.40 -10.5 0 1 95.68 60.17
  Q 95.58 60.20 95.39 60.24
  A 0.19 0.18 69.3 0 0 95.27 60.52
  Q 95.69 61.22 95.70 63.20
  A 0.48 0.48 0.0 0 1 95.24 63.68
  L 91.99 63.84
  Z"
/>
<path fill="#01a3e8" fill-opacity="0.161" d="
  M 71.71 63.35
  Q 69.16 64.57 65.74 63.51
  A 2.05 2.00 48.0 0 0 64.77 63.45
  Q 62.48 63.84 60.24 63.34
  Q 59.71 62.06 59.72 60.67
  A 0.64 0.63 -89.5 0 1 60.35 60.04
  L 71.17 60.04
  A 0.71 0.71 0.0 0 1 71.87 60.62
  Q 72.10 61.87 71.71 63.35
  Z"
/>
<path fill="#0093f9" fill-opacity="0.392" d="
  M 71.69 75.99
  L 64.73 75.87
  A 0.87 0.86 88.5 0 1 63.89 75.07
  Q 63.79 73.72 64.20 72.26
  Q 66.39 71.59 68.12 72.39
  A 1.67 1.63 53.1 0 0 68.97 72.52
  L 70.95 72.29
  A 0.61 0.61 0.0 0 1 71.62 72.88
  L 71.69 75.99
  Z"
/>
<path fill="#019afc" fill-opacity="0.486" d="
  M 83.67 79.84
  Q 72.99 81.29 76.54 76.15
  L 83.04 76.40
  A 0.55 0.55 0.0 0 1 83.57 76.94
  L 83.67 79.84
  Z"
/>
<path fill="#0095fd" fill-opacity="0.698" d="
  M 59.75 91.91
  L 55.84 91.93
  A 0.19 0.17 62.0 0 1 55.73 91.89
  Q 55.55 91.74 55.65 91.52
  A 0.06 0.06 0.0 0 0 55.56 91.44
  Q 54.25 92.17 52.44 91.85
  A 0.61 0.61 0.0 0 1 51.94 91.15
  L 52.48 88.11
  Q 54.32 87.68 55.96 88.25
  A 1.75 1.70 45.9 0 0 56.94 88.28
  Q 58.21 87.93 59.30 88.28
  A 0.81 0.80 10.4 0 1 59.86 89.08
  L 59.75 91.91
  Z"
/>
<path fill="#019afc" fill-opacity="0.486" d="
  M 71.42 95.98
  L 64.73 95.80
  A 0.92 0.91 -79.6 0 1 63.89 94.58
  Q 64.32 93.37 64.25 92.06
  L 71.12 92.64
  A 0.67 0.67 0.0 0 1 71.73 93.21
  Q 71.93 94.50 71.42 95.98
  Z"
/>
<path fill="#01a3e8" fill-opacity="0.161" d="
  M 96.02 108.07
  L 96.14 96.30
  L 98.62 95.61
  A 0.57 0.56 -7.8 0 1 99.34 96.15
  L 99.34 105.84
  A 1.25 1.24 78.7 0 1 98.58 106.99
  L 96.02 108.07
  Z"
/>
<path fill="#0093f9" fill-opacity="0.392" d="
  M 51.93 99.70
  L 44.33 99.83
  L 44.03 96.96
  A 0.85 0.84 -3.0 0 1 44.88 96.03
  L 51.21 96.03
  A 0.83 0.83 0.0 0 1 52.04 96.89
  L 51.93 99.70
  Z"
/>
<path fill="#0093f9" fill-opacity="0.392" d="
  M 35.75 104.27
  L 35.84 111.26
  Q 34.21 112.24 32.58 111.81
  A 0.68 0.68 0.0 0 1 32.07 111.15
  L 32.07 104.95
  A 0.76 0.76 0.0 0 1 32.58 104.23
  Q 33.84 103.77 35.75 104.27
  Z"
/>
<path fill="#0095fd" fill-opacity="0.698" d="
  M 79.99 124.10
  Q 79.51 125.20 79.77 126.65
  A 0.48 0.48 0.0 0 1 79.31 127.21
  Q 74.93 127.30 70.95 127.61
  C 65.01 128.06 58.74 127.25 52.81 127.52
  A 0.85 0.85 0.0 0 1 51.96 126.44
  Q 52.36 125.03 52.30 124.10
  Q 66.11 124.82 79.99 124.10
  Z"
/>
</svg>