<?xml version="1.0" encoding="UTF-8" standalone="no"?>
<!DOCTYPE svg PUBLIC "-//W3C//DTD SVG 1.1//EN" "http://www.w3.org/Graphics/SVG/1.1/DTD/svg11.dtd">
<svg xmlns="http://www.w3.org/2000/svg" version="1.1" viewBox="0.00 0.00 256.00 256.00" width="128" height="128">
<g stroke-width="2.00" fill="none" stroke-linecap="butt">
<path stroke="#ad86ea" vector-effect="non-scaling-stroke" d="
  M 92.32 102.77
  Q 91.18 92.97 98.57 89.38
  Q 101.61 87.90 109.63 88.03
  Q 129.71 88.34 160.91 88.11
  Q 172.38 88.02 174.95 87.15
  Q 181.62 84.89 184.48 77.27
  C 186.46 71.99 183.95 66.75 180.41 62.60
  C 177.45 59.13 173.75 58.66 169.25 58.63
  Q 167.72 58.63 114.70 58.55
  Q 99.85 58.52 96.36 59.18
  Q 87.92 60.78 79.90 66.89
  Q 78.71 67.79 74.05 72.55
  Q 70.63 76.04 69.05 78.92
  Q 65.77 84.89 64.75 89.73
  C 63.32 96.44 63.40 108.00 67.06 115.44
  C 70.72 122.88 75.90 129.21 82.74 133.49
  Q 83.34 133.86 87.06 136.34
  C 91.40 139.23 100.78 139.90 106.05 139.89
  Q 145.91 139.82 152.43 139.87
  C 156.93 139.90 159.42 142.78 162.58 146.07
  A 3.63 3.63 0.0 0 1 163.46 147.68
  Q 165.33 155.34 159.74 159.64
  Q 155.68 162.76 151.51 162.74
  Q 138.97 162.67 129.90 162.60
  C 123.70 162.55 119.31 164.74 116.11 169.70
  Q 113.70 173.45 113.54 174.54
  Q 112.72 180.21 116.69 186.06
  C 120.78 192.09 124.41 191.90 131.78 192.00
  Q 147.09 192.22 158.23 191.69
  C 163.66 191.43 171.72 187.26 175.23 184.52
  C 179.08 181.52 184.97 176.04 187.61 170.33
  Q 190.59 163.88 190.73 163.20
  C 194.06 146.42 190.73 132.75 178.41 120.90
  C 175.98 118.57 171.76 116.31 168.88 114.31
  A 6.40 6.15 -17.8 0 0 167.16 113.47
  Q 158.88 110.93 153.49 110.80
  Q 142.45 110.54 104.75 110.80
  Q 101.23 110.82 99.92 110.34
  A 4.57 4.48 76.5 0 1 98.31 109.33
  L 92.98 104.12
  A 2.26 2.24 19.2 0 1 92.32 102.77"
/>
<path stroke="#ad86ea" vector-effect="non-scaling-stroke" d="
  M 99.72 177.38
  A 14.42 14.42 0.0 0 0 85.30 162.96
  A 14.42 14.42 0.0 0 0 70.88 177.38
  A 14.42 14.42 0.0 0 0 85.30 191.80
  A 14.42 14.42 0.0 0 0 99.72 177.38"
/>
</g>
<path fill="#5b0dd5" d="
  M 130.99 0.00
  Q 136.87 0.30 142.75 0.53
  Q 147.70 0.72 149.51 1.23
  Q 160.03 4.20 162.26 4.74
  C 168.70 6.32 174.12 8.97 180.78 10.97
  A 12.53 12.37 68.8 0 1 183.66 12.26
  Q 187.64 14.72 191.25 16.44
  C 193.78 17.66 195.65 19.39 198.16 20.83
  Q 201.11 22.52 203.14 24.42
  Q 204.23 25.45 211.41 30.95
  C 217.71 35.79 223.16 41.38 227.40 47.34
  Q 231.24 52.73 231.92 53.52
  C 234.33 56.31 235.80 59.21 238.08 62.50
  A 5.82 4.80 -80.1 0 1 238.57 63.36
  C 242.25 71.49 246.54 78.47 249.15 86.96
  Q 250.52 91.44 252.89 99.59
  Q 255.58 108.88 256.00 118.63
  L 256.00 137.68
  Q 255.75 141.45 255.37 145.21
  C 254.63 152.44 251.18 161.94 250.14 166.44
  Q 249.78 168.01 248.66 170.48
  C 247.13 173.88 246.36 176.92 245.10 180.62
  C 244.00 183.85 241.60 186.83 240.13 190.16
  C 238.87 193.01 236.61 195.76 235.08 198.43
  Q 233.75 200.73 232.00 202.71
  C 227.74 207.51 223.17 214.62 218.35 219.15
  Q 212.49 224.67 209.82 226.57
  C 204.96 230.05 200.26 233.76 195.22 237.03
  Q 193.22 238.33 190.76 239.43
  C 182.97 242.89 176.56 247.39 167.38 249.66
  Q 164.65 250.33 155.14 253.19
  Q 145.56 256.07 134.11 256.00
  L 119.61 256.00
  Q 116.22 255.60 112.76 255.47
  C 109.93 255.37 107.66 255.14 104.85 254.36
  C 95.88 251.87 91.00 251.00 84.59 248.33
  Q 82.20 247.33 73.76 244.53
  A 4.99 4.81 69.2 0 1 72.66 244.01
  Q 68.67 241.45 65.34 239.89
  C 62.52 238.57 60.47 236.70 57.87 235.22
  Q 54.96 233.57 52.52 231.32
  C 48.69 227.78 41.23 222.96 36.76 218.26
  Q 30.85 212.03 28.37 208.39
  C 25.67 204.43 22.62 201.25 20.97 198.23
  C 19.47 195.48 17.90 193.83 16.61 190.81
  Q 15.31 187.77 12.19 182.07
  C 10.25 178.53 7.92 172.96 6.55 167.77
  Q 4.89 161.49 2.61 154.79
  Q 1.13 150.40 0.00 139.35
  L 0.00 120.03
  C 0.27 114.45 0.53 108.57 2.06 103.39
  Q 4.19 96.14 6.12 88.82
  Q 6.57 87.10 7.47 85.22
  C 9.58 80.77 10.38 75.86 12.52 72.00
  Q 20.34 57.90 22.63 55.11
  Q 27.91 48.69 30.21 45.64
  C 35.19 39.03 40.81 33.35 46.08 29.58
  C 52.68 24.85 58.19 20.14 65.06 16.74
  Q 66.00 16.27 74.00 12.19
  Q 81.16 8.54 83.81 7.79
  Q 92.93 5.22 102.08 2.59
  Q 105.72 1.54 109.57 0.97
  Q 113.34 0.42 117.17 0.00
  L 130.99 0.00
  Z
  M 92.32 102.77
  Q 91.18 92.97 98.57 89.38
  Q 101.61 87.90 109.63 88.03
  Q 129.71 88.34 160.91 88.11
  Q 172.38 88.02 174.95 87.15
  Q 181.62 84.89 184.48 77.27
  C 186.46 71.99 183.95 66.75 180.41 62.60
  C 177.45 59.13 173.75 58.66 169.25 58.63
  Q 167.72 58.63 114.70 58.55
  Q 99.85 58.52 96.36 59.18
  Q 87.92 60.78 79.90 66.89
  Q 78.71 67.79 74.05 72.55
  Q 70.63 76.04 69.05 78.92
  Q 65.77 84.89 64.75 89.73
  C 63.32 96.44 63.40 108.00 67.06 115.44
  C 70.72 122.88 75.90 129.21 82.74 133.49
  Q 83.34 133.86 87.06 136.34
  C 91.40 139.23 100.78 139.90 106.05 139.89
  Q 145.91 139.82 152.43 139.87
  C 156.93 139.90 159.42 142.78 162.58 146.07
  A 3.63 3.63 0.0 0 1 163.46 147.68
  Q 165.33 155.34 159.74 159.64
  Q 155.68 162.76 151.51 162.74
  Q 138.97 162.67 129.90 162.60
  C 123.70 162.55 119.31 164.74 116.11 169.70
  Q 113.70 173.45 113.54 174.54
  Q 112.72 180.21 116.69 186.06
  C 120.78 192.09 124.41 191.90 131.78 192.00
  Q 147.09 192.22 158.23 191.69
  C 163.66 191.43 171.72 187.26 175.23 184.52
  C 179.08 181.52 184.97 176.04 187.61 170.33
  Q 190.59 163.88 190.73 163.20
  C 194.06 146.42 190.73 132.75 178.41 120.90
  C 175.98 118.57 171.76 116.31 168.88 114.31
  A 6.40 6.15 -17.8 0 0 167.16 113.47
  Q 158.88 110.93 153.49 110.80
  Q 142.45 110.54 104.75 110.80
  Q 101.23 110.82 99.92 110.34
  A 4.57 4.48 76.5 0 1 98.31 109.33
  L 92.98 104.12
  A 2.26 2.24 19.2 0 1 92.32 102.77
  Z
  M 99.72 177.38
  A 14.42 14.42 0.0 0 0 85.30 162.96
  A 14.42 14.42 0.0 0 0 70.88 177.38
  A 14.42 14.42 0.0 0 0 85.30 191.80
  A 14.42 14.42 0.0 0 0 99.72 177.38
  Z"
/>
<path fill="#ffffff" d="
  M 92.98 104.12
  L 98.31 109.33
  A 4.57 4.48 76.5 0 0 99.92 110.34
  Q 101.23 110.82 104.75 110.80
  Q 142.45 110.54 153.49 110.80
  Q 158.88 110.93 167.16 113.47
  A 6.40 6.15 -17.8 0 1 168.88 114.31
  C 171.76 116.31 175.98 118.57 178.41 120.90
  C 190.73 132.75 194.06 146.42 190.73 163.20
  Q 190.59 163.88 187.61 170.33
  C 184.97 176.04 179.08 181.52 175.23 184.52
  C 171.72 187.26 163.66 191.43 158.23 191.69
  Q 147.09 192.22 131.78 192.00
  C 124.41 191.90 120.78 192.09 116.69 186.06
  Q 112.72 180.21 113.54 174.54
  Q 113.70 173.45 116.11 169.70
  C 119.31 164.74 123.70 162.55 129.90 162.60
  Q 138.97 162.67 151.51 162.74
  Q 155.68 162.76 159.74 159.64
  Q 165.33 155.34 163.46 147.68
  A 3.63 3.63 0.0 0 0 162.58 146.07
  C 159.42 142.78 156.93 139.90 152.43 139.87
  Q 145.91 139.82 106.05 139.89
  C 100.78 139.90 91.40 139.23 87.06 136.34
  Q 83.34 133.86 82.74 133.49
  C 75.90 129.21 70.72 122.88 67.06 115.44
  C 63.40 108.00 63.32 96.44 64.75 89.73
  Q 65.77 84.89 69.05 78.92
  Q 70.63 76.04 74.05 72.55
  Q 78.71 67.79 79.90 66.89
  Q 87.92 60.78 96.36 59.18
  Q 99.85 58.52 114.70 58.55
  Q 167.72 58.63 169.25 58.63
  C 173.75 58.66 177.45 59.13 180.41 62.60
  C 183.95 66.75 186.46 71.99 184.48 77.27
  Q 181.62 84.89 174.95 87.15
  Q 172.38 88.02 160.91 88.11
  Q 129.71 88.34 109.63 88.03
  Q 101.61 87.90 98.57 89.38
  Q 91.18 92.97 92.32 102.77
  A 2.26 2.24 19.2 0 0 92.98 104.12
  Z"
/>
<circle fill="#ffffff" cx="85.30" cy="177.38" r="14.42"/>
</svg>