<?xml version="1.0" encoding="UTF-8" standalone="no"?>
<!DOCTYPE svg PUBLIC "-//W3C//DTD SVG 1.1//EN" "http://www.w3.org/Graphics/SVG/1.1/DTD/svg11.dtd">
<svg xmlns="http://www.w3.org/2000/svg" version="1.1" viewBox="0.00 0.00 256.00 256.00" width="128" height="128">
<g stroke-width="2.00" fill="none" stroke-linecap="butt">
<path stroke="#808080" vector-effect="non-scaling-stroke" d="
  M 63.69 0.00
  Q 59.29 0.90 56.40 5.65
  C 52.61 11.86 51.01 16.96 49.52 22.99
  A 0.69 0.68 9.6 0 1 48.78 23.51
  L 5.30 19.02
  A 0.26 0.26 0.0 0 0 5.01 19.28
  L 5.01 26.37
  A 0.31 0.31 0.0 0 0 5.27 26.68
  L 46.94 33.67
  A 0.65 0.64 6.9 0 1 47.48 34.35
  Q 45.74 58.59 49.54 83.16
  Q 50.07 86.60 51.11 88.08
  C 52.81 90.47 55.92 93.32 59.11 91.77
  C 72.70 85.14 89.36 83.95 102.98 91.40
  C 119.04 100.18 129.68 117.49 136.49 134.28
  C 148.93 164.90 153.65 197.04 157.90 229.50
  Q 158.61 234.90 156.13 239.62
  Q 154.10 243.49 154.00 244.77
  Q 153.66 249.24 156.33 252.68
  C 158.75 255.81 161.41 255.28 164.78 256.00"
/>
<path stroke="#808080" vector-effect="non-scaling-stroke" d="
  M 94.03 92.45
  C 98.46 97.97 99.12 105.86 98.11 112.41
  Q 92.36 149.76 92.73 186.99
  C 92.82 196.75 93.80 204.59 94.26 212.98
  Q 94.62 219.49 91.76 224.53
  C 90.74 226.34 87.88 228.39 87.15 230.63
  Q 86.18 233.57 86.82 235.69
  C 88.62 241.72 89.28 247.67 97.00 248.03
  Q 111.46 248.70 125.00 246.51
  C 129.98 245.71 135.28 245.14 138.11 243.62
  Q 144.90 239.97 147.66 233.55
  Q 149.33 229.68 148.63 219.82
  Q 145.22 171.99 125.81 129.98
  Q 121.18 119.96 117.95 114.75
  Q 109.27 100.76 94.46 91.96
  A 0.33 0.33 0.0 0 0 94.03 92.45"
/>
<path stroke="#808080" vector-effect="non-scaling-stroke" d="
  M 65.40 0.00
  C 109.40 5.29 153.58 11.36 196.39 20.61
  C 212.69 24.13 230.02 28.54 245.48 35.26
  Q 251.25 37.77 251.24 43.29
  Q 251.22 64.83 251.30 66.96
  C 251.55 73.93 249.98 78.41 242.93 79.87
  Q 207.20 87.28 198.12 89.08
  C 190.26 90.64 185.77 97.22 187.73 105.25
  A 1.36 0.92 34.1 0 0 187.81 105.45
  Q 205.21 138.93 220.80 168.51
  Q 228.09 182.32 229.60 188.04
  C 236.45 213.94 224.12 240.60 199.63 251.41
  Q 192.28 254.66 182.59 256.00"
/>
<path stroke="#808080" vector-effect="non-scaling-stroke" d="
  M 78.85 20.18
  A 3.89 3.89 0.0 0 0 74.96 16.29
  A 3.89 3.89 0.0 0 0 71.07 20.18
  A 3.89 3.89 0.0 0 0 74.96 24.07
  A 3.89 3.89 0.0 0 0 78.85 20.18"
/>
<path stroke="#808080" vector-effect="non-scaling-stroke" d="
  M 238.97 56.14
  A 3.88 3.88 0.0 0 0 235.09 52.26
  A 3.88 3.88 0.0 0 0 231.21 56.14
  A 3.88 3.88 0.0 0 0 235.09 60.02
  A 3.88 3.88 0.0 0 0 238.97 56.14"
/>
<path stroke="#808080" vector-effect="non-scaling-stroke" d="
  M 78.84 67.78
  A 3.88 3.88 0.0 0 0 74.96 63.90
  A 3.88 3.88 0.0 0 0 71.08 67.78
  A 3.88 3.88 0.0 0 0 74.96 71.66
  A 3.88 3.88 0.0 0 0 78.84 67.78"
/>
<path stroke="#808080" vector-effect="non-scaling-stroke" d="
  M 208.55 235.45
  A 3.88 3.88 0.0 0 0 204.67 231.57
  A 3.88 3.88 0.0 0 0 200.79 235.45
  A 3.88 3.88 0.0 0 0 204.67 239.33
  A 3.88 3.88 0.0 0 0 208.55 235.45"
/>
<path stroke="#808080" vector-effect="non-scaling-stroke" d="
  M 118.65 175.92
  A 3.89 3.89 0.0 0 0 114.76 172.03
  A 3.89 3.89 0.0 0 0 110.87 175.92
  A 3.89 3.89 0.0 0 0 114.76 179.81
  A 3.89 3.89 0.0 0 0 118.65 175.92"
/>
</g>
<path fill="#ffffff" d="
  M 63.69 0.00
  Q 59.29 0.90 56.40 5.65
  C 52.61 11.86 51.01 16.96 49.52 22.99
  A 0.69 0.68 9.6 0 1 48.78 23.51
  L 5.30 19.02
  A 0.26 0.26 0.0 0 0 5.01 19.28
  L 5.01 26.37
  A 0.31 0.31 0.0 0 0 5.27 26.68
  L 46.94 33.67
  A 0.65 0.64 6.9 0 1 47.48 34.35
  Q 45.74 58.59 49.54 83.16
  Q 50.07 86.60 51.11 88.08
  C 52.81 90.47 55.92 93.32 59.11 91.77
  C 72.70 85.14 89.36 83.95 102.98 91.40
  C 119.04 100.18 129.68 117.49 136.49 134.28
  C 148.93 164.90 153.65 197.04 157.90 229.50
  Q 158.61 234.90 156.13 239.62
  Q 154.10 243.49 154.00 244.77
  Q 153.66 249.24 156.33 252.68
  C 158.75 255.81 161.41 255.28 164.78 256.00
  L 0.00 256.00
  L 0.00 0.00
  L 63.69 0.00
  Z
  M 94.03 92.45
  C 98.46 97.97 99.12 105.86 98.11 112.41
  Q 92.36 149.76 92.73 186.99
  C 92.82 196.75 93.80 204.59 94.26 212.98
  Q 94.62 219.49 91.76 224.53
  C 90.74 226.34 87.88 228.39 87.15 230.63
  Q 86.18 233.57 86.82 235.69
  C 88.62 241.72 89.28 247.67 97.00 248.03
  Q 111.46 248.70 125.00 246.51
  C 129.98 245.71 135.28 245.14 138.11 243.62
  Q 144.90 239.97 147.66 233.55
  Q 149.33 229.68 148.63 219.82
  Q 145.22 171.99 125.81 129.98
  Q 121.18 119.96 117.95 114.75
  Q 109.27 100.76 94.46 91.96
  A 0.33 0.33 0.0 0 0 94.03 92.45
  Z"
/>
<path fill="#000000" d="
  M 65.40 0.00
  C 109.40 5.29 153.58 11.36 196.39 20.61
  C 212.69 24.13 230.02 28.54 245.48 35.26
  Q 251.25 37.77 251.24 43.29
  Q 251.22 64.83 251.30 66.96
  C 251.55 73.93 249.98 78.41 242.93 79.87
  Q 207.20 87.28 198.12 89.08
  C 190.26 90.64 185.77 97.22 187.73 105.25
  A 1.36 0.92 34.1 0 0 187.81 105.45
  Q 205.21 138.93 220.80 168.51
  Q 228.09 182.32 229.60 188.04
  C 236.45 213.94 224.12 240.60 199.63 251.41
  Q 192.28 254.66 182.59 256.00
  L 164.78 256.00
  C 161.41 255.28 158.75 255.81 156.33 252.68
  Q 153.66 249.24 154.00 244.77
  Q 154.10 243.49 156.13 239.62
  Q 158.61 234.90 157.90 229.50
  C 153.65 197.04 148.93 164.90 136.49 134.28
  C 129.68 117.49 119.04 100.18 102.98 91.40
  C 89.36 83.95 72.70 85.14 59.11 91.77
  C 55.92 93.32 52.81 90.47 51.11 88.08
  Q 50.07 86.60 49.54 83.16
  Q 45.74 58.59 47.48 34.35
  A 0.65 0.64 6.9 0 0 46.94 33.67
  L 5.27 26.68
  A 0.31 0.31 0.0 0 1 5.01 26.37
  L 5.01 19.28
  A 0.26 0.26 0.0 0 1 5.30 19.02
  L 48.78 23.51
  A 0.69 0.68 9.6 0 0 49.52 22.99
  C 51.01 16.96 52.61 11.86 56.40 5.65
  Q 59.29 0.90 63.69 0.00
  L 65.40 0.00
  Z
  M 78.85 20.18
  A 3.89 3.89 0.0 0 0 74.96 16.29
  A 3.89 3.89 0.0 0 0 71.07 20.18
  A 3.89 3.89 0.0 0 0 74.96 24.07
  A 3.89 3.89 0.0 0 0 78.85 20.18
  Z
  M 238.97 56.14
  A 3.88 3.88 0.0 0 0 235.09 52.26
  A 3.88 3.88 0.0 0 0 231.21 56.14
  A 3.88 3.88 0.0 0 0 235.09 60.02
  A 3.88 3.88 0.0 0 0 238.97 56.14
  Z
  M 78.84 67.78
  A 3.88 3.88 0.0 0 0 74.96 63.90
  A 3.88 3.88 0.0 0 0 71.08 67.78
  A 3.88 3.88 0.0 0 0 74.96 71.66
  A 3.88 3.88 0.0 0 0 78.84 67.78
  Z
  M 208.55 235.45
  A 3.88 3.88 0.0 0 0 204.67 231.57
  A 3.88 3.88 0.0 0 0 200.79 235.45
  A 3.88 3.88 0.0 0 0 204.67 239.33
  A 3.88 3.88 0.0 0 0 208.55 235.45
  Z"
/>
<path fill="#ffffff" d="
  M 256.00 0.00
  L 256.00 256.00
  L 182.59 256.00
  Q 192.28 254.66 199.63 251.41
  C 224.12 240.60 236.45 213.94 229.60 188.04
  Q 228.09 182.32 220.80 168.51
  Q 205.21 138.93 187.81 105.45
  A 1.36 0.92 34.1 0 1 187.73 105.25
  C 185.77 97.22 190.26 90.64 198.12 89.08
  Q 207.20 87.28 242.93 79.87
  C 249.98 78.41 251.55 73.93 251.30 66.96
  Q 251.22 64.83 251.24 43.29
  Q 251.25 37.77 245.48 35.26
  C 230.02 28.54 212.69 24.13 196.39 20.61
  C 153.58 11.36 109.40 5.29 65.40 0.00
  L 256.00 0.00
  Z"
/>
<circle fill="#ffffff" cx="74.96" cy="20.18" r="3.89"/>
<circle fill="#ffffff" cx="235.09" cy="56.14" r="3.88"/>
<circle fill="#ffffff" cx="74.96" cy="67.78" r="3.88"/>
<path fill="#000000" d="
  M 94.46 91.96
  Q 109.27 100.76 117.95 114.75
  Q 121.18 119.96 125.81 129.98
  Q 145.22 171.99 148.63 219.82
  Q 149.33 229.68 147.66 233.55
  Q 144.90 239.97 138.11 243.62
  C 135.28 245.14 129.98 245.71 125.00 246.51
  Q 111.46 248.70 97.00 248.03
  C 89.28 247.67 88.62 241.72 86.82 235.69
  Q 86.18 233.57 87.15 230.63
  C 87.88 228.39 90.74 226.34 91.76 224.53
  Q 94.62 219.49 94.26 212.98
  C 93.80 204.59 92.82 196.75 92.73 186.99
  Q 92.36 149.76 98.11 112.41
  C 99.12 105.86 98.46 97.97 94.03 92.45
  A 0.33 0.33 0.0 0 1 94.46 91.96
  Z
  M 118.65 175.92
  A 3.89 3.89 0.0 0 0 114.76 172.03
  A 3.89 3.89 0.0 0 0 110.87 175.92
  A 3.89 3.89 0.0 0 0 114.76 179.81
  A 3.89 3.89 0.0 0 0 118.65 175.92
  Z"
/>
<circle fill="#ffffff" cx="114.76" cy="175.92" r="3.89"/>
<circle fill="#ffffff" cx="204.67" cy="235.45" r="3.88"/>
</svg>