<?xml version="1.0" encoding="UTF-8" standalone="no"?>
<!DOCTYPE svg PUBLIC "-//W3C//DTD SVG 1.1//EN" "http://www.w3.org/Graphics/SVG/1.1/DTD/svg11.dtd">
<svg xmlns="http://www.w3.org/2000/svg" version="1.1" viewBox="0.00 0.00 180.00 180.00" width="128" height="128">
<g stroke-width="2.00" fill="none" stroke-linecap="butt">
<path stroke="#fb9625" vector-effect="non-scaling-stroke" d="
  M 128.45 27.05
  L 128.40 43.07
  A 2.11 1.93 53.8 0 1 128.35 43.52
  L 127.41 48.03
  A 1.52 1.41 -42.7 0 0 127.38 48.41
  Q 127.57 52.17 126.28 56.24"
/>
<path stroke="#fb9625" vector-effect="non-scaling-stroke" d="
  M 118.38 83.52
  Q 115.51 90.39 113.06 94.81
  Q 104.35 110.50 91.02 124.49
  C 88.54 127.09 85.95 128.88 83.64 131.17
  Q 82.13 132.67 80.05 134.22
  Q 78.20 135.60 76.26 137.05"
/>
</g>
<path fill="#ffb229" d="
  M 128.45 27.05
  L 128.40 43.07
  A 2.11 1.93 53.8 0 1 128.35 43.52
  L 127.41 48.03
  A 1.52 1.41 -42.7 0 0 127.38 48.41
  Q 127.57 52.17 126.28 56.24
  L 109.24 56.33
  A 0.55 0.55 0.0 0 0 108.70 56.88
  L 108.70 82.86
  A 0.59 0.59 0.0 0 0 109.28 83.45
  L 118.38 83.52
  Q 115.51 90.39 113.06 94.81
  Q 104.35 110.50 91.02 124.49
  C 88.54 127.09 85.95 128.88 83.64 131.17
  Q 82.13 132.67 80.05 134.22
  Q 78.20 135.60 76.26 137.05
  L 76.23 106.29
  A 0.54 0.54 0.0 0 0 75.69 105.75
  L 32.37 105.75
  A 0.41 0.41 0.0 0 0 31.96 106.16
  L 31.96 152.66
  A 0.54 0.54 0.0 0 1 31.42 153.20
  L 0.00 153.25
  L 0.00 27.17
  L 31.34 27.03
  A 0.66 0.66 0.0 0 1 32.00 27.69
  L 32.00 74.89
  A 0.35 0.35 0.0 0 0 32.35 75.24
  L 75.70 75.24
  A 0.55 0.55 0.0 0 0 76.25 74.69
  L 76.25 27.62
  A 0.55 0.55 0.0 0 1 76.80 27.07
  L 128.45 27.05
  Z"
/>
<path fill="#f77a21" d="
  M 76.26 137.05
  Q 78.20 135.60 80.05 134.22
  Q 82.13 132.67 83.64 131.17
  C 85.95 128.88 88.54 127.09 91.02 124.49
  Q 104.35 110.50 113.06 94.81
  Q 115.51 90.39 118.38 83.52
  Q 123.09 83.36 128.00 83.52
  Q 132.88 83.67 134.85 82.84
  C 142.94 79.39 145.01 69.13 140.78 61.99
  Q 136.47 54.73 126.28 56.24
  Q 127.57 52.17 127.38 48.41
  A 1.52 1.41 -42.7 0 1 127.41 48.03
  L 128.35 43.52
  A 2.11 1.93 53.8 0 0 128.40 43.07
  L 128.45 27.05
  Q 139.63 26.85 148.31 29.67
  C 164.79 35.03 174.85 49.36 175.64 66.58
  C 176.41 83.38 168.52 99.01 153.07 106.32
  A 0.29 0.29 0.0 0 0 152.94 106.72
  L 179.65 152.98
  A 0.18 0.18 0.0 0 1 179.50 153.25
  L 143.97 153.25
  A 0.92 0.91 75.9 0 1 143.16 152.76
  L 121.46 111.73
  A 0.91 0.89 -13.5 0 0 120.66 111.25
  L 109.29 111.25
  A 0.59 0.59 0.0 0 0 108.70 111.84
  L 108.70 152.96
  A 0.29 0.29 0.0 0 1 108.41 153.25
  L 76.56 153.25
  A 0.31 0.31 0.0 0 1 76.25 152.94
  L 76.26 137.05
  Z"
/>
</svg>