<?xml version="1.0" encoding="UTF-8" standalone="no"?>
<!DOCTYPE svg PUBLIC "-//W3C//DTD SVG 1.1//EN" "http://www.w3.org/Graphics/SVG/1.1/DTD/svg11.dtd">
<svg xmlns="http://www.w3.org/2000/svg" version="1.1" viewBox="0.00 0.00 180.00 180.00" width="128" height="128">
<g stroke-width="2.00" fill="none" stroke-linecap="butt">
<path stroke="#80b8f8" vector-effect="non-scaling-stroke" d="
  M 142.43 148.01
  L 132.29 124.14
  A 4.07 4.04 -63.2 0 1 132.07 123.46
  Q 131.49 120.81 130.50 118.94
  A 0.83 0.82 -40.4 0 1 130.58 118.06
  C 131.24 117.18 131.70 114.62 132.44 112.94
  Q 138.25 99.67 140.12 95.18
  Q 140.47 94.32 140.80 92.88
  A 4.75 4.56 -27.2 0 1 141.12 91.95
  Q 144.23 85.24 145.25 81.29
  C 149.16 66.01 142.35 49.18 129.30 40.69
  C 116.46 32.33 101.21 32.12 87.97 40.09
  A 0.51 0.51 0.0 0 1 87.43 40.09
  Q 71.24 30.52 54.39 36.58
  Q 46.26 39.50 40.82 45.02
  Q 34.55 51.38 31.85 58.36
  Q 28.09 68.09 29.94 79.75
  C 31.28 88.20 37.82 98.61 40.17 106.06
  Q 40.90 108.37 41.23 109.11
  C 44.13 115.45 47.02 121.27 49.20 127.54
  C 52.42 136.78 58.22 143.96 67.30 147.25
  Q 71.74 148.86 83.85 148.65
  Q 91.81 148.51 141.99 148.68
  A 0.48 0.48 0.0 0 0 142.43 148.01"
/>
<path stroke="#80b8f8" vector-effect="non-scaling-stroke" d="
  M 120.52 105.24
  Q 120.44 104.86 120.58 104.54
  Q 123.66 97.22 128.22 86.98
  A 1.80 1.59 -33.2 0 0 128.35 86.51
  Q 128.56 85.00 129.31 83.49
  C 134.35 73.39 132.56 62.41 124.30 54.64
  Q 116.31 47.12 103.10 48.84
  Q 99.01 49.37 96.43 51.17
  Q 91.06 54.91 87.97 59.46
  A 5.00 4.89 73.4 0 0 87.50 60.35
  Q 85.14 66.20 80.12 77.22
  C 78.90 79.91 78.39 82.73 77.18 85.47
  Q 73.88 92.93 72.93 94.89
  Q 71.37 98.09 69.13 104.47
  Q 68.18 107.18 64.27 115.76
  C 60.10 124.90 66.86 134.52 76.76 134.54
  Q 106.19 134.59 121.08 134.55
  A 0.34 0.34 0.0 0 0 121.39 134.08
  L 115.05 119.16
  A 1.20 1.16 45.8 0 1 115.05 118.25
  L 120.49 105.56
  A 0.62 0.55 53.9 0 0 120.52 105.24"
/>
<path stroke="#80b8f8" vector-effect="non-scaling-stroke" d="
  M 56.53 96.73
  L 73.98 56.00
  A 2.33 1.94 66.3 0 0 74.10 55.58
  Q 74.43 53.63 75.90 51.64
  A 0.84 0.84 0.0 0 0 75.54 50.35
  Q 69.93 48.07 64.34 48.82
  C 61.52 49.19 58.02 50.86 55.55 51.47
  A 3.04 2.94 19.3 0 0 54.51 51.95
  C 47.01 57.39 42.72 65.10 43.29 74.51
  Q 43.53 78.36 46.90 85.54
  Q 51.43 95.20 51.77 96.61
  A 2.97 0.67 70.2 0 1 51.86 96.98
  Q 52.47 99.65 53.98 102.44
  A 0.38 0.38 0.0 0 0 54.67 102.40
  C 55.51 100.17 56.39 98.81 56.42 97.24
  A 1.54 1.38 60.3 0 1 56.53 96.73"
/>
</g>
<path fill="#0070f0" d="
  M 129.48 0.00
  Q 131.60 0.36 133.73 0.69
  C 157.11 4.25 175.30 21.55 179.16 45.01
  Q 179.60 47.71 180.00 50.45
  L 180.00 129.46
  Q 179.62 131.85 179.24 134.24
  C 175.57 157.50 158.05 175.43 134.74 179.20
  Q 132.16 179.61 129.56 180.00
  L 50.52 180.00
  Q 48.14 179.63 45.76 179.25
  C 22.49 175.57 4.57 158.04 0.80 134.74
  Q 0.38 132.17 0.00 129.57
  L 0.00 50.45
  C 2.45 22.82 22.73 2.69 50.45 0.00
  L 129.48 0.00
  Z
  M 142.43 148.01
  L 132.29 124.14
  A 4.07 4.04 -63.2 0 1 132.07 123.46
  Q 131.49 120.81 130.50 118.94
  A 0.83 0.82 -40.4 0 1 130.58 118.06
  C 131.24 117.18 131.70 114.62 132.44 112.94
  Q 138.25 99.67 140.12 95.18
  Q 140.47 94.32 140.80 92.88
  A 4.75 4.56 -27.2 0 1 141.12 91.95
  Q 144.23 85.24 145.25 81.29
  C 149.16 66.01 142.35 49.18 129.30 40.69
  C 116.46 32.33 101.21 32.12 87.97 40.09
  A 0.51 0.51 0.0 0 1 87.43 40.09
  Q 71.24 30.52 54.39 36.58
  Q 46.26 39.50 40.82 45.02
  Q 34.55 51.38 31.85 58.36
  Q 28.09 68.09 29.94 79.75
  C 31.28 88.20 37.82 98.61 40.17 106.06
  Q 40.90 108.37 41.23 109.11
  C 44.13 115.45 47.02 121.27 49.20 127.54
  C 52.42 136.78 58.22 143.96 67.30 147.25
  Q 71.74 148.86 83.85 148.65
  Q 91.81 148.51 141.99 148.68
  A 0.48 0.48 0.0 0 0 142.43 148.01
  Z"
/>
<path fill="#ffffff" d="
  M 142.43 148.01
  A 0.48 0.48 0.0 0 1 141.99 148.68
  Q 91.81 148.51 83.85 148.65
  Q 71.74 148.86 67.30 147.25
  C 58.22 143.96 52.42 136.78 49.20 127.54
  C 47.02 121.27 44.13 115.45 41.23 109.11
  Q 40.90 108.37 40.17 106.06
  C 37.82 98.61 31.28 88.20 29.94 79.75
  Q 28.09 68.09 31.85 58.36
  Q 34.55 51.38 40.82 45.02
  Q 46.26 39.50 54.39 36.58
  Q 71.24 30.52 87.43 40.09
  A 0.51 0.51 0.0 0 0 87.97 40.09
  C 101.21 32.12 116.46 32.33 129.30 40.69
  C 142.35 49.18 149.16 66.01 145.25 81.29
  Q 144.23 85.24 141.12 91.95
  A 4.75 4.56 -27.2 0 0 140.80 92.88
  Q 140.47 94.32 140.12 95.18
  Q 138.25 99.67 132.44 112.94
  C 131.70 114.62 131.24 117.18 130.58 118.06
  A 0.83 0.82 -40.4 0 0 130.50 118.94
  Q 131.49 120.81 132.07 123.46
  A 4.07 4.04 -63.2 0 0 132.29 124.14
  L 142.43 148.01
  Z
  M 120.52 105.24
  Q 120.44 104.86 120.58 104.54
  Q 123.66 97.22 128.22 86.98
  A 1.80 1.59 -33.2 0 0 128.35 86.51
  Q 128.56 85.00 129.31 83.49
  C 134.35 73.39 132.56 62.41 124.30 54.64
  Q 116.31 47.12 103.10 48.84
  Q 99.01 49.37 96.43 51.17
  Q 91.06 54.91 87.97 59.46
  A 5.00 4.89 73.4 0 0 87.50 60.35
  Q 85.14 66.20 80.12 77.22
  C 78.90 79.91 78.39 82.73 77.18 85.47
  Q 73.88 92.93 72.93 94.89
  Q 71.37 98.09 69.13 104.47
  Q 68.18 107.18 64.27 115.76
  C 60.10 124.90 66.86 134.52 76.76 134.54
  Q 106.19 134.59 121.08 134.55
  A 0.34 0.34 0.0 0 0 121.39 134.08
  L 115.05 119.16
  A 1.20 1.16 45.8 0 1 115.05 118.25
  L 120.49 105.56
  A 0.62 0.55 53.9 0 0 120.52 105.24
  Z
  M 56.53 96.73
  L 73.98 56.00
  A 2.33 1.94 66.3 0 0 74.10 55.58
  Q 74.43 53.63 75.90 51.64
  A 0.84 0.84 0.0 0 0 75.54 50.35
  Q 69.93 48.07 64.34 48.82
  C 61.52 49.19 58.02 50.86 55.55 51.47
  A 3.04 2.94 19.3 0 0 54.51 51.95
  C 47.01 57.39 42.72 65.10 43.29 74.51
  Q 43.53 78.36 46.90 85.54
  Q 51.43 95.20 51.77 96.61
  A 2.97 0.67 70.2 0 1 51.86 96.98
  Q 52.47 99.65 53.98 102.44
  A 0.38 0.38 0.0 0 0 54.67 102.40
  C 55.51 100.17 56.39 98.81 56.42 97.24
  A 1.54 1.38 60.3 0 1 56.53 96.73
  Z"
/>
<path fill="#0070f0" d="
  M 120.49 105.56
  L 115.05 118.25
  A 1.20 1.16 45.8 0 0 115.05 119.16
  L 121.39 134.08
  A 0.34 0.34 0.0 0 1 121.08 134.55
  Q 106.19 134.59 76.76 134.54
  C 66.86 134.52 60.10 124.90 64.27 115.76
  Q 68.18 107.18 69.13 104.47
  Q 71.37 98.09 72.93 94.89
  Q 73.88 92.93 77.18 85.47
  C 78.39 82.73 78.90 79.91 80.12 77.22
  Q 85.14 66.20 87.50 60.35
  A 5.00 4.89 73.4 0 1 87.97 59.46
  Q 91.06 54.91 96.43 51.17
  Q 99.01 49.37 103.10 48.84
  Q 116.31 47.12 124.30 54.64
  C 132.56 62.41 134.35 73.39 129.31 83.49
  Q 128.56 85.00 128.35 86.51
  A 1.80 1.59 -33.2 0 1 128.22 86.98
  Q 123.66 97.22 120.58 104.54
  Q 120.44 104.86 120.52 105.24
  A 0.62 0.55 53.9 0 1 120.49 105.56
  Z"
/>
<path fill="#0070f0" d="
  M 56.42 97.24
  C 56.39 98.81 55.51 100.17 54.67 102.40
  A 0.38 0.38 0.0 0 1 53.98 102.44
  Q 52.47 99.65 51.86 96.98
  A 2.97 0.67 70.2 0 0 51.77 96.61
  Q 51.43 95.20 46.90 85.54
  Q 43.53 78.36 43.29 74.51
  C 42.72 65.10 47.01 57.39 54.51 51.95
  A 3.04 2.94 19.3 0 1 55.55 51.47
  C 58.02 50.86 61.52 49.19 64.34 48.82
  Q 69.93 48.07 75.54 50.35
  A 0.84 0.84 0.0 0 1 75.90 51.64
  Q 74.43 53.63 74.10 55.58
  A 2.33 1.94 66.3 0 1 73.98 56.00
  L 56.53 96.73
  A 1.54 1.38 60.3 0 0 56.42 97.24
  Z"
/>
</svg>