<?xml version="1.0" encoding="UTF-8" standalone="no"?>
<!DOCTYPE svg PUBLIC "-//W3C//DTD SVG 1.1//EN" "http://www.w3.org/Graphics/SVG/1.1/DTD/svg11.dtd">
<svg xmlns="http://www.w3.org/2000/svg" version="1.1" viewBox="0.00 0.00 256.00 256.00" width="128" height="128">
<g stroke-width="2.00" fill="none" stroke-linecap="butt">
<path stroke="#808080" vector-effect="non-scaling-stroke" d="
  M 236.71 129.63
  A 109.50 109.50 0.0 0 0 127.21 20.13
  A 109.50 109.50 0.0 0 0 17.71 129.63
  A 109.50 109.50 0.0 0 0 127.21 239.13
  A 109.50 109.50 0.0 0 0 236.71 129.63"
/>
<path stroke="#808080" vector-effect="non-scaling-stroke" d="
  M 106.76 29.09
  Q 99.69 30.51 92.39 33.00
  A 1.33 1.33 0.0 0 0 91.58 34.76
  L 99.20 53.31
  A 1.29 1.29 0.0 0 0 100.77 54.05
  Q 107.35 52.02 111.18 51.25
  Q 115.02 50.49 121.87 49.84
  A 1.29 1.29 0.0 0 0 123.04 48.55
  L 122.96 28.51
  A 1.33 1.33 0.0 0 0 121.54 27.19
  Q 113.84 27.68 106.76 29.09"
/>
<path stroke="#808080" vector-effect="non-scaling-stroke" d="
  M 142.28 51.00
  Q 147.97 52.14 153.58 54.07
  A 0.79 0.79 0.0 0 0 154.56 53.62
  L 162.36 34.95
  A 1.42 1.42 0.0 0 0 161.53 33.06
  Q 154.01 30.38 146.68 28.92
  Q 139.36 27.46 131.38 27.05
  A 1.42 1.42 0.0 0 0 129.89 28.47
  L 129.93 48.71
  A 0.79 0.79 0.0 0 0 130.67 49.50
  Q 136.59 49.87 142.28 51.00"
/>
<path stroke="#808080" vector-effect="non-scaling-stroke" d="
  M 70.17 44.30
  Q 64.13 48.37 58.29 53.54
  A 1.35 1.34 -43.2 0 0 58.23 55.50
  L 72.55 69.82
  A 1.31 1.30 -42.4 0 0 74.31 69.89
  Q 79.65 65.44 82.92 63.24
  Q 86.20 61.03 92.33 57.76
  A 1.31 1.30 -25.5 0 0 92.92 56.10
  L 85.03 37.45
  A 1.35 1.34 -24.7 0 0 83.20 36.77
  Q 76.21 40.23 70.17 44.30"
/>
<path stroke="#808080" vector-effect="non-scaling-stroke" d="
  M 171.39 62.90
  Q 176.18 66.15 180.59 70.10
  A 0.79 0.78 43.4 0 0 181.66 70.07
  L 196.07 55.92
  A 1.42 1.42 0.0 0 0 196.03 53.86
  Q 190.16 48.49 183.99 44.31
  Q 177.82 40.13 170.65 36.66
  A 1.42 1.42 0.0 0 0 168.72 37.39
  L 160.92 56.01
  A 0.79 0.78 24.8 0 0 161.29 57.02
  Q 166.59 59.66 171.39 62.90"
/>
<path stroke="#808080" vector-effect="non-scaling-stroke" d="
  M 107.57 82.74
  Q 113.89 80.06 121.91 78.98
  A 1.48 1.47 86.1 0 0 123.19 77.51
  L 123.08 57.99
  A 1.07 1.07 0.0 0 0 121.93 56.93
  Q 109.88 57.83 98.96 62.47
  Q 88.05 67.10 79.03 75.14
  A 1.07 1.07 0.0 0 0 78.99 76.71
  L 92.96 90.34
  A 1.48 1.47 47.9 0 0 94.90 90.44
  Q 101.25 85.42 107.57 82.74"
/>
<path stroke="#808080" vector-effect="non-scaling-stroke" d="
  M 146.14 82.89
  Q 152.63 85.56 159.19 90.62
  A 1.51 1.51 0.0 0 0 161.18 90.49
  L 175.30 76.37
  A 1.10 1.10 0.0 0 0 175.24 74.77
  Q 165.92 66.65 154.69 62.04
  Q 143.47 57.44 131.13 56.66
  A 1.10 1.10 0.0 0 0 129.97 57.76
  L 130.09 77.73
  A 1.51 1.51 0.0 0 0 131.42 79.22
  Q 139.64 80.23 146.14 82.89"
/>
<path stroke="#808080" vector-effect="non-scaling-stroke" d="
  M 60.67 85.58
  Q 63.93 80.73 67.91 76.27
  A 0.79 0.79 0.0 0 0 67.88 75.18
  L 53.54 60.67
  A 1.43 1.43 0.0 0 0 51.46 60.71
  Q 46.05 66.67 41.84 72.91
  Q 37.64 79.16 34.16 86.41
  A 1.43 1.43 0.0 0 0 34.90 88.35
  L 53.74 96.18
  A 0.79 0.79 0.0 0 0 54.76 95.80
  Q 57.40 90.43 60.67 85.58"
/>
<path stroke="#808080" vector-effect="non-scaling-stroke" d="
  M 193.72 85.63
  Q 196.99 90.51 199.63 95.90
  A 0.80 0.80 0.0 0 0 200.65 96.28
  L 219.57 88.47
  A 1.44 1.44 0.0 0 0 220.32 86.52
  Q 216.84 79.24 212.64 72.96
  Q 208.43 66.69 203.01 60.70
  A 1.44 1.44 0.0 0 0 200.93 60.65
  L 186.51 75.18
  A 0.80 0.80 0.0 0 0 186.48 76.27
  Q 190.46 80.76 193.72 85.63"
/>
<path stroke="#808080" vector-effect="non-scaling-stroke" d="
  M 80.55 110.24
  Q 83.21 103.84 88.23 97.38
  A 1.49 1.49 0.0 0 0 88.11 95.42
  L 74.22 81.41
  A 1.09 1.08 -46.7 0 0 72.64 81.46
  Q 64.59 90.63 59.99 101.70
  Q 55.39 112.78 54.57 124.96
  A 1.09 1.08 -88.2 0 0 55.65 126.11
  L 75.38 126.07
  A 1.49 1.49 0.0 0 0 76.86 124.77
  Q 77.89 116.65 80.55 110.24"
/>
<path stroke="#808080" vector-effect="non-scaling-stroke" d="
  M 173.83 110.24
  Q 176.49 116.67 177.51 124.80
  A 1.49 1.49 0.0 0 0 178.99 126.11
  L 198.75 126.18
  A 1.09 1.09 0.0 0 0 199.84 125.02
  Q 199.04 112.82 194.45 101.72
  Q 189.85 90.62 181.80 81.41
  A 1.09 1.09 0.0 0 0 180.21 81.36
  L 166.27 95.37
  A 1.49 1.49 0.0 0 0 166.15 97.34
  Q 171.18 103.82 173.83 110.24"
/>
<path stroke="#808080" vector-effect="non-scaling-stroke" d="
  M 170.78 129.62
  A 43.56 43.56 0.0 0 0 127.22 86.06
  A 43.56 43.56 0.0 0 0 83.66 129.62
  A 43.56 43.56 0.0 0 0 127.22 173.18
  A 43.56 43.56 0.0 0 0 170.78 129.62"
/>
<path stroke="#808080" vector-effect="non-scaling-stroke" d="
  M 26.73 110.02
  Q 25.34 117.07 24.87 124.73
  A 1.33 1.32 -88.1 0 0 26.19 126.14
  L 46.14 126.17
  A 1.29 1.28 -87.3 0 0 47.42 125.00
  Q 48.05 118.18 48.80 114.36
  Q 49.55 110.54 51.55 103.99
  A 1.29 1.28 -70.4 0 0 50.81 102.43
  L 32.33 94.90
  A 1.33 1.32 -69.6 0 0 30.58 95.71
  Q 28.11 102.98 26.73 110.02"
/>
<path stroke="#808080" vector-effect="non-scaling-stroke" d="
  M 227.69 110.13
  Q 226.33 103.08 223.89 95.81
  A 1.32 1.32 0.0 0 0 222.14 94.99
  L 203.65 102.45
  A 1.29 1.28 70.6 0 0 202.91 104.02
  Q 204.88 110.57 205.62 114.39
  Q 206.36 118.20 206.96 125.02
  A 1.29 1.28 87.5 0 0 208.24 126.19
  L 228.17 126.23
  A 1.32 1.32 0.0 0 0 229.49 124.83
  Q 229.05 117.17 227.69 110.13"
/>
<path stroke="#808080" vector-effect="non-scaling-stroke" d="
  M 49.11 145.62
  Q 47.94 139.88 47.55 133.89
  A 0.80 0.80 0.0 0 0 46.75 133.15
  L 26.29 133.17
  A 1.44 1.44 0.0 0 0 24.86 134.69
  Q 25.31 142.74 26.81 150.14
  Q 28.30 157.54 31.04 165.14
  A 1.44 1.44 0.0 0 0 32.94 165.98
  L 51.80 158.03
  A 0.80 0.80 0.0 0 0 52.24 157.03
  Q 50.27 151.37 49.11 145.62"
/>
<path stroke="#808080" vector-effect="non-scaling-stroke" d="
  M 80.58 149.01
  Q 77.92 142.59 76.89 134.46
  A 1.49 1.49 0.0 0 0 75.41 133.15
  L 55.64 133.10
  A 1.09 1.09 0.0 0 0 54.56 134.26
  Q 55.38 146.46 59.98 157.56
  Q 64.59 168.65 72.65 177.85
  A 1.09 1.09 0.0 0 0 74.24 177.89
  L 88.16 163.86
  A 1.49 1.49 0.0 0 0 88.28 161.89
  Q 83.25 155.43 80.58 149.01"
/>
<path stroke="#808080" vector-effect="non-scaling-stroke" d="
  M 173.85 148.96
  Q 171.19 155.39 166.17 161.86
  A 1.49 1.49 0.0 0 0 166.29 163.83
  L 180.23 177.84
  A 1.09 1.09 0.0 0 0 181.82 177.79
  Q 189.87 168.59 194.46 157.49
  Q 199.05 146.39 199.86 134.18
  A 1.09 1.09 0.0 0 0 198.77 133.03
  L 179.00 133.10
  A 1.49 1.49 0.0 0 0 177.53 134.41
  Q 176.51 142.54 173.85 148.96"
/>
<path stroke="#808080" vector-effect="non-scaling-stroke" d="
  M 205.31 145.60
  Q 204.17 151.34 202.22 157.00
  A 0.80 0.79 -69.4 0 0 202.67 157.99
  L 221.50 165.86
  A 1.43 1.43 0.0 0 0 223.40 165.02
  Q 226.10 157.43 227.58 150.05
  Q 229.05 142.66 229.47 134.62
  A 1.43 1.43 0.0 0 0 228.04 133.11
  L 207.62 133.15
  A 0.80 0.79 -88.0 0 0 206.83 133.89
  Q 206.46 139.87 205.31 145.60"
/>
<path stroke="#808080" vector-effect="non-scaling-stroke" d="
  M 212.06 187.00
  Q 216.10 181.06 219.54 174.19
  A 1.33 1.32 -65.1 0 0 218.87 172.38
  L 200.51 164.54
  A 1.29 1.28 -64.3 0 0 198.88 165.11
  Q 195.63 171.15 193.45 174.37
  Q 191.26 177.59 186.85 182.84
  A 1.29 1.28 -47.4 0 0 186.92 184.57
  L 200.99 198.73
  A 1.33 1.32 -46.6 0 0 202.92 198.68
  Q 208.03 192.95 212.06 187.00"
/>
<path stroke="#808080" vector-effect="non-scaling-stroke" d="
  M 35.84 172.32
  A 2.23 2.23 0.0 0 0 34.84 175.63
  L 50.12 198.19
  A 2.23 2.23 0.0 0 0 53.54 198.52
  L 66.60 185.45
  A 2.23 2.23 0.0 0 0 66.87 182.63
  L 55.66 166.06
  A 2.23 2.23 0.0 0 0 52.96 165.25
  L 35.84 172.32"
/>
<path stroke="#808080" vector-effect="non-scaling-stroke" d="
  M 107.55 176.48
  Q 101.22 173.81 94.86 168.79
  A 1.48 1.47 -48.0 0 0 92.92 168.90
  L 78.96 182.55
  A 1.07 1.07 0.0 0 0 79.00 184.12
  Q 88.03 192.15 98.96 196.78
  Q 109.89 201.40 121.94 202.29
  A 1.07 1.07 0.0 0 0 123.09 201.23
  L 123.18 181.70
  A 1.48 1.47 -86.1 0 0 121.90 180.23
  Q 113.87 179.16 107.55 176.48"
/>
<path stroke="#808080" vector-effect="non-scaling-stroke" d="
  M 146.18 176.35
  Q 139.68 179.01 131.46 180.01
  A 1.51 1.51 0.0 0 0 130.13 181.50
  L 129.99 201.46
  A 1.10 1.10 0.0 0 0 131.15 202.57
  Q 143.48 201.80 154.71 197.20
  Q 165.94 192.60 175.27 184.50
  A 1.10 1.10 0.0 0 0 175.33 182.90
  L 161.22 168.77
  A 1.51 1.51 0.0 0 0 159.23 168.64
  Q 152.67 173.69 146.18 176.35"
/>
<path stroke="#808080" vector-effect="non-scaling-stroke" d="
  M 58.46 203.45
  A 2.26 2.26 0.0 0 0 58.79 206.92
  L 81.76 222.45
  A 2.26 2.26 0.0 0 0 85.11 221.45
  L 92.27 204.45
  A 2.26 2.26 0.0 0 0 91.45 201.70
  L 74.35 190.14
  A 2.26 2.26 0.0 0 0 71.48 190.42
  L 58.46 203.45"
/>
<path stroke="#808080" vector-effect="non-scaling-stroke" d="
  M 184.13 215.09
  Q 190.23 211.01 196.11 205.82
  A 1.35 1.35 0.0 0 0 196.18 203.85
  L 181.80 189.40
  A 1.32 1.31 -42.3 0 0 180.03 189.32
  Q 174.64 193.79 171.34 196.01
  Q 168.04 198.22 161.86 201.50
  A 1.32 1.31 -25.4 0 0 161.26 203.17
  L 169.16 221.96
  A 1.35 1.35 0.0 0 0 171.00 222.65
  Q 178.04 219.18 184.13 215.09"
/>
<path stroke="#808080" vector-effect="non-scaling-stroke" d="
  M 142.34 208.20
  Q 136.64 209.34 130.70 209.71
  A 0.79 0.79 0.0 0 0 129.96 210.50
  L 129.93 230.79
  A 1.43 1.43 0.0 0 0 131.42 232.21
  Q 139.42 231.79 146.76 230.33
  Q 154.10 228.86 161.64 226.18
  A 1.43 1.43 0.0 0 0 162.47 224.29
  L 154.65 205.57
  A 0.79 0.79 0.0 0 0 153.66 205.13
  Q 148.04 207.07 142.34 208.20"
/>
<path stroke="#808080" vector-effect="non-scaling-stroke" d="
  M 106.62 230.16
  Q 113.71 231.62 121.43 232.17
  A 1.34 1.33 2.4 0 0 122.87 230.86
  L 123.09 210.74
  A 1.30 1.29 3.2 0 0 121.92 209.44
  Q 115.05 208.74 111.20 207.95
  Q 107.36 207.15 100.78 205.08
  A 1.30 1.29 20.1 0 0 99.19 205.81
  L 91.42 224.37
  A 1.34 1.33 20.9 0 0 92.22 226.14
  Q 99.53 228.69 106.62 230.16"
/>
</g>
<path fill="#000000" d="
  M 256.00 0.00
  L 256.00 256.00
  L 0.00 256.00
  L 0.00 0.00
  L 256.00 0.00
  Z
  M 236.71 129.63
  A 109.50 109.50 0.0 0 0 127.21 20.13
  A 109.50 109.50 0.0 0 0 17.71 129.63
  A 109.50 109.50 0.0 0 0 127.21 239.13
  A 109.50 109.50 0.0 0 0 236.71 129.63
  Z"
/>
<path fill="#ffffff" d="
  M 236.71 129.63
  A 109.50 109.50 0.0 0 1 127.21 239.13
  A 109.50 109.50 0.0 0 1 17.71 129.63
  A 109.50 109.50 0.0 0 1 127.21 20.13
  A 109.50 109.50 0.0 0 1 236.71 129.63
  Z
  M 106.76 29.09
  Q 99.69 30.51 92.39 33.00
  A 1.33 1.33 0.0 0 0 91.58 34.76
  L 99.20 53.31
  A 1.29 1.29 0.0 0 0 100.77 54.05
  Q 107.35 52.02 111.18 51.25
  Q 115.02 50.49 121.87 49.84
  A 1.29 1.29 0.0 0 0 123.04 48.55
  L 122.96 28.51
  A 1.33 1.33 0.0 0 0 121.54 27.19
  Q 113.84 27.68 106.76 29.09
  Z
  M 142.28 51.00
  Q 147.97 52.14 153.58 54.07
  A 0.79 0.79 0.0 0 0 154.56 53.62
  L 162.36 34.95
  A 1.42 1.42 0.0 0 0 161.53 33.06
  Q 154.01 30.38 146.68 28.92
  Q 139.36 27.46 131.38 27.05
  A 1.42 1.42 0.0 0 0 129.89 28.47
  L 129.93 48.71
  A 0.79 0.79 0.0 0 0 130.67 49.50
  Q 136.59 49.87 142.28 51.00
  Z
  M 70.17 44.30
  Q 64.13 48.37 58.29 53.54
  A 1.35 1.34 -43.2 0 0 58.23 55.50
  L 72.55 69.82
  A 1.31 1.30 -42.4 0 0 74.31 69.89
  Q 79.65 65.44 82.92 63.24
  Q 86.20 61.03 92.33 57.76
  A 1.31 1.30 -25.5 0 0 92.92 56.10
  L 85.03 37.45
  A 1.35 1.34 -24.7 0 0 83.20 36.77
  Q 76.21 40.23 70.17 44.30
  Z
  M 171.39 62.90
  Q 176.18 66.15 180.59 70.10
  A 0.79 0.78 43.4 0 0 181.66 70.07
  L 196.07 55.92
  A 1.42 1.42 0.0 0 0 196.03 53.86
  Q 190.16 48.49 183.99 44.31
  Q 177.82 40.13 170.65 36.66
  A 1.42 1.42 0.0 0 0 168.72 37.39
  L 160.92 56.01
  A 0.79 0.78 24.8 0 0 161.29 57.02
  Q 166.59 59.66 171.39 62.90
  Z
  M 107.57 82.74
  Q 113.89 80.06 121.91 78.98
  A 1.48 1.47 86.1 0 0 123.19 77.51
  L 123.08 57.99
  A 1.07 1.07 0.0 0 0 121.93 56.93
  Q 109.88 57.83 98.96 62.47
  Q 88.05 67.10 79.03 75.14
  A 1.07 1.07 0.0 0 0 78.99 76.71
  L 92.96 90.34
  A 1.48 1.47 47.9 0 0 94.90 90.44
  Q 101.25 85.42 107.57 82.74
  Z
  M 146.14 82.89
  Q 152.63 85.56 159.19 90.62
  A 1.51 1.51 0.0 0 0 161.18 90.49
  L 175.30 76.37
  A 1.10 1.10 0.0 0 0 175.24 74.77
  Q 165.92 66.65 154.69 62.04
  Q 143.47 57.44 131.13 56.66
  A 1.10 1.10 0.0 0 0 129.97 57.76
  L 130.09 77.73
  A 1.51 1.51 0.0 0 0 131.42 79.22
  Q 139.64 80.23 146.14 82.89
  Z
  M 60.67 85.58
  Q 63.93 80.73 67.91 76.27
  A 0.79 0.79 0.0 0 0 67.88 75.18
  L 53.54 60.67
  A 1.43 1.43 0.0 0 0 51.46 60.71
  Q 46.05 66.67 41.84 72.91
  Q 37.64 79.16 34.16 86.41
  A 1.43 1.43 0.0 0 0 34.90 88.35
  L 53.74 96.18
  A 0.79 0.79 0.0 0 0 54.76 95.80
  Q 57.40 90.43 60.67 85.58
  Z
  M 193.72 85.63
  Q 196.99 90.51 199.63 95.90
  A 0.80 0.80 0.0 0 0 200.65 96.28
  L 219.57 88.47
  A 1.44 1.44 0.0 0 0 220.32 86.52
  Q 216.84 79.24 212.64 72.96
  Q 208.43 66.69 203.01 60.70
  A 1.44 1.44 0.0 0 0 200.93 60.65
  L 186.51 75.18
  A 0.80 0.80 0.0 0 0 186.48 76.27
  Q 190.46 80.76 193.72 85.63
  Z
  M 80.55 110.24
  Q 83.21 103.84 88.23 97.38
  A 1.49 1.49 0.0 0 0 88.11 95.42
  L 74.22 81.41
  A 1.09 1.08 -46.7 0 0 72.64 81.46
  Q 64.59 90.63 59.99 101.70
  Q 55.39 112.78 54.57 124.96
  A 1.09 1.08 -88.2 0 0 55.65 126.11
  L 75.38 126.07
  A 1.49 1.49 0.0 0 0 76.86 124.77
  Q 77.89 116.65 80.55 110.24
  Z
  M 173.83 110.24
  Q 176.49 116.67 177.51 124.80
  A 1.49 1.49 0.0 0 0 178.99 126.11
  L 198.75 126.18
  A 1.09 1.09 0.0 0 0 199.84 125.02
  Q 199.04 112.82 194.45 101.72
  Q 189.85 90.62 181.80 81.41
  A 1.09 1.09 0.0 0 0 180.21 81.36
  L 166.27 95.37
  A 1.49 1.49 0.0 0 0 166.15 97.34
  Q 171.18 103.82 173.83 110.24
  Z
  M 170.78 129.62
  A 43.56 43.56 0.0 0 0 127.22 86.06
  A 43.56 43.56 0.0 0 0 83.66 129.62
  A 43.56 43.56 0.0 0 0 127.22 173.18
  A 43.56 43.56 0.0 0 0 170.78 129.62
  Z
  M 26.73 110.02
  Q 25.34 117.07 24.87 124.73
  A 1.33 1.32 -88.1 0 0 26.19 126.14
  L 46.14 126.17
  A 1.29 1.28 -87.3 0 0 47.42 125.00
  Q 48.05 118.18 48.80 114.36
  Q 49.55 110.54 51.55 103.99
  A 1.29 1.28 -70.4 0 0 50.81 102.43
  L 32.33 94.90
  A 1.33 1.32 -69.6 0 0 30.58 95.71
  Q 28.11 102.98 26.73 110.02
  Z
  M 227.69 110.13
  Q 226.33 103.08 223.89 95.81
  A 1.32 1.32 0.0 0 0 222.14 94.99
  L 203.65 102.45
  A 1.29 1.28 70.6 0 0 202.91 104.02
  Q 204.88 110.57 205.62 114.39
  Q 206.36 118.20 206.96 125.02
  A 1.29 1.28 87.5 0 0 208.24 126.19
  L 228.17 126.23
  A 1.32 1.32 0.0 0 0 229.49 124.83
  Q 229.05 117.17 227.69 110.13
  Z
  M 49.11 145.62
  Q 47.94 139.88 47.55 133.89
  A 0.80 0.80 0.0 0 0 46.75 133.15
  L 26.29 133.17
  A 1.44 1.44 0.0 0 0 24.86 134.69
  Q 25.31 142.74 26.81 150.14
  Q 28.30 157.54 31.04 165.14
  A 1.44 1.44 0.0 0 0 32.94 165.98
  L 51.80 158.03
  A 0.80 0.80 0.0 0 0 52.24 157.03
  Q 50.27 151.37 49.11 145.62
  Z
  M 80.58 149.01
  Q 77.92 142.59 76.89 134.46
  A 1.49 1.49 0.0 0 0 75.41 133.15
  L 55.64 133.10
  A 1.09 1.09 0.0 0 0 54.56 134.26
  Q 55.38 146.46 59.98 157.56
  Q 64.59 168.65 72.65 177.85
  A 1.09 1.09 0.0 0 0 74.24 177.89
  L 88.16 163.86
  A 1.49 1.49 0.0 0 0 88.28 161.89
  Q 83.25 155.43 80.58 149.01
  Z
  M 173.85 148.96
  Q 171.19 155.39 166.17 161.86
  A 1.49 1.49 0.0 0 0 166.29 163.83
  L 180.23 177.84
  A 1.09 1.09 0.0 0 0 181.82 177.79
  Q 189.87 168.59 194.46 157.49
  Q 199.05 146.39 199.86 134.18
  A 1.09 1.09 0.0 0 0 198.77 133.03
  L 179.00 133.10
  A 1.49 1.49 0.0 0 0 177.53 134.41
  Q 176.51 142.54 173.85 148.96
  Z
  M 205.31 145.60
  Q 204.17 151.34 202.22 157.00
  A 0.80 0.79 -69.4 0 0 202.67 157.99
  L 221.50 165.86
  A 1.43 1.43 0.0 0 0 223.40 165.02
  Q 226.10 157.43 227.58 150.05
  Q 229.05 142.66 229.47 134.62
  A 1.43 1.43 0.0 0 0 228.04 133.11
  L 207.62 133.15
  A 0.80 0.79 -88.0 0 0 206.83 133.89
  Q 206.46 139.87 205.31 145.60
  Z
  M 212.06 187.00
  Q 216.10 181.06 219.54 174.19
  A 1.33 1.32 -65.1 0 0 218.87 172.38
  L 200.51 164.54
  A 1.29 1.28 -64.3 0 0 198.88 165.11
  Q 195.63 171.15 193.45 174.37
  Q 191.26 177.59 186.85 182.84
  A 1.29 1.28 -47.4 0 0 186.92 184.57
  L 200.99 198.73
  A 1.33 1.32 -46.6 0 0 202.92 198.68
  Q 208.03 192.95 212.06 187.00
  Z
  M 35.84 172.32
  A 2.23 2.23 0.0 0 0 34.84 175.63
  L 50.12 198.19
  A 2.23 2.23 0.0 0 0 53.54 198.52
  L 66.60 185.45
  A 2.23 2.23 0.0 0 0 66.87 182.63
  L 55.66 166.06
  A 2.23 2.23 0.0 0 0 52.96 165.25
  L 35.84 172.32
  Z
  M 107.55 176.48
  Q 101.22 173.81 94.86 168.79
  A 1.48 1.47 -48.0 0 0 92.92 168.90
  L 78.96 182.55
  A 1.07 1.07 0.0 0 0 79.00 184.12
  Q 88.03 192.15 98.96 196.78
  Q 109.89 201.40 121.94 202.29
  A 1.07 1.07 0.0 0 0 123.09 201.23
  L 123.18 181.70
  A 1.48 1.47 -86.1 0 0 121.90 180.23
  Q 113.87 179.16 107.55 176.48
  Z
  M 146.18 176.35
  Q 139.68 179.01 131.46 180.01
  A 1.51 1.51 0.0 0 0 130.13 181.50
  L 129.99 201.46
  A 1.10 1.10 0.0 0 0 131.15 202.57
  Q 143.48 201.80 154.71 197.20
  Q 165.94 192.60 175.27 184.50
  A 1.10 1.10 0.0 0 0 175.33 182.90
  L 161.22 168.77
  A 1.51 1.51 0.0 0 0 159.23 168.64
  Q 152.67 173.69 146.18 176.35
  Z
  M 58.46 203.45
  A 2.26 2.26 0.0 0 0 58.79 206.92
  L 81.76 222.45
  A 2.26 2.26 0.0 0 0 85.11 221.45
  L 92.27 204.45
  A 2.26 2.26 0.0 0 0 91.45 201.70
  L 74.35 190.14
  A 2.26 2.26 0.0 0 0 71.48 190.42
  L 58.46 203.45
  Z
  M 184.13 215.09
  Q 190.23 211.01 196.11 205.82
  A 1.35 1.35 0.0 0 0 196.18 203.85
  L 181.80 189.40
  A 1.32 1.31 -42.3 0 0 180.03 189.32
  Q 174.64 193.79 171.34 196.01
  Q 168.04 198.22 161.86 201.50
  A 1.32 1.31 -25.4 0 0 161.26 203.17
  L 169.16 221.96
  A 1.35 1.35 0.0 0 0 171.00 222.65
  Q 178.04 219.18 184.13 215.09
  Z
  M 142.34 208.20
  Q 136.64 209.34 130.70 209.71
  A 0.79 0.79 0.0 0 0 129.96 210.50
  L 129.93 230.79
  A 1.43 1.43 0.0 0 0 131.42 232.21
  Q 139.42 231.79 146.76 230.33
  Q 154.10 228.86 161.64 226.18
  A 1.43 1.43 0.0 0 0 162.47 224.29
  L 154.65 205.57
  A 0.79 0.79 0.0 0 0 153.66 205.13
  Q 148.04 207.07 142.34 208.20
  Z
  M 106.62 230.16
  Q 113.71 231.62 121.43 232.17
  A 1.34 1.33 2.4 0 0 122.87 230.86
  L 123.09 210.74
  A 1.30 1.29 3.2 0 0 121.92 209.44
  Q 115.05 208.74 111.20 207.95
  Q 107.36 207.15 100.78 205.08
  A 1.30 1.29 20.1 0 0 99.19 205.81
  L 91.42 224.37
  A 1.34 1.33 20.9 0 0 92.22 226.14
  Q 99.53 228.69 106.62 230.16
  Z"
/>
<path fill="#000000" d="
  M 106.76 29.09
  Q 113.84 27.68 121.54 27.19
  A 1.33 1.33 0.0 0 1 122.96 28.51
  L 123.04 48.55
  A 1.29 1.29 0.0 0 1 121.87 49.84
  Q 115.02 50.49 111.18 51.25
  Q 107.35 52.02 100.77 54.05
  A 1.29 1.29 0.0 0 1 99.20 53.31
  L 91.58 34.76
  A 1.33 1.33 0.0 0 1 92.39 33.00
  Q 99.69 30.51 106.76 29.09
  Z"
/>
<path fill="#000000" d="
  M 142.28 51.00
  Q 136.59 49.87 130.67 49.50
  A 0.79 0.79 0.0 0 1 129.93 48.71
  L 129.89 28.47
  A 1.42 1.42 0.0 0 1 131.38 27.05
  Q 139.36 27.46 146.68 28.92
  Q 154.01 30.38 161.53 33.06
  A 1.42 1.42 0.0 0 1 162.36 34.95
  L 154.56 53.62
  A 0.79 0.79 0.0 0 1 153.58 54.07
  Q 147.97 52.14 142.28 51.00
  Z"
/>
<path fill="#000000" d="
  M 82.92 63.24
  Q 79.65 65.44 74.31 69.89
  A 1.31 1.30 -42.4 0 1 72.55 69.82
  L 58.23 55.50
  A 1.35 1.34 -43.2 0 1 58.29 53.54
  Q 64.13 48.37 70.17 44.30
  Q 76.21 40.23 83.20 36.77
  A 1.35 1.34 -24.7 0 1 85.03 37.45
  L 92.92 56.10
  A 1.31 1.30 -25.5 0 1 92.33 57.76
  Q 86.20 61.03 82.92 63.24
  Z"
/>
<path fill="#000000" d="
  M 171.39 62.90
  Q 166.59 59.66 161.29 57.02
  A 0.79 0.78 24.8 0 1 160.92 56.01
  L 168.72 37.39
  A 1.42 1.42 0.0 0 1 170.65 36.66
  Q 177.82 40.13 183.99 44.31
  Q 190.16 48.49 196.03 53.86
  A 1.42 1.42 0.0 0 1 196.07 55.92
  L 181.66 70.07
  A 0.79 0.78 43.4 0 1 180.59 70.10
  Q 176.18 66.15 171.39 62.90
  Z"
/>
<path fill="#000000" d="
  M 107.57 82.74
  Q 101.25 85.42 94.90 90.44
  A 1.48 1.47 47.9 0 1 92.96 90.34
  L 78.99 76.71
  A 1.07 1.07 0.0 0 1 79.03 75.14
  Q 88.05 67.10 98.96 62.47
  Q 109.88 57.83 121.93 56.93
  A 1.07 1.07 0.0 0 1 123.08 57.99
  L 123.19 77.51
  A 1.48 1.47 86.1 0 1 121.91 78.98
  Q 113.89 80.06 107.57 82.74
  Z"
/>
<path fill="#000000" d="
  M 154.69 62.04
  Q 165.92 66.65 175.24 74.77
  A 1.10 1.10 0.0 0 1 175.30 76.37
  L 161.18 90.49
  A 1.51 1.51 0.0 0 1 159.19 90.62
  Q 152.63 85.56 146.14 82.89
  Q 139.64 80.23 131.42 79.22
  A 1.51 1.51 0.0 0 1 130.09 77.73
  L 129.97 57.76
  A 1.10 1.10 0.0 0 1 131.13 56.66
  Q 143.47 57.44 154.69 62.04
  Z"
/>
<path fill="#000000" d="
  M 60.67 85.58
  Q 57.40 90.43 54.76 95.80
  A 0.79 0.79 0.0 0 1 53.74 96.18
  L 34.90 88.35
  A 1.43 1.43 0.0 0 1 34.16 86.41
  Q 37.64 79.16 41.84 72.91
  Q 46.05 66.67 51.46 60.71
  A 1.43 1.43 0.0 0 1 53.54 60.67
  L 67.88 75.18
  A 0.79 0.79 0.0 0 1 67.91 76.27
  Q 63.93 80.73 60.67 85.58
  Z"
/>
<path fill="#000000" d="
  M 212.64 72.96
  Q 216.84 79.24 220.32 86.52
  A 1.44 1.44 0.0 0 1 219.57 88.47
  L 200.65 96.28
  A 0.80 0.80 0.0 0 1 199.63 95.90
  Q 196.99 90.51 193.72 85.63
  Q 190.46 80.76 186.48 76.27
  A 0.80 0.80 0.0 0 1 186.51 75.18
  L 200.93 60.65
  A 1.44 1.44 0.0 0 1 203.01 60.70
  Q 208.43 66.69 212.64 72.96
  Z"
/>
<path fill="#000000" d="
  M 80.55 110.24
  Q 77.89 116.65 76.86 124.77
  A 1.49 1.49 0.0 0 1 75.38 126.07
  L 55.65 126.11
  A 1.09 1.08 -88.2 0 1 54.57 124.96
  Q 55.39 112.78 59.99 101.70
  Q 64.59 90.63 72.64 81.46
  A 1.09 1.08 -46.7 0 1 74.22 81.41
  L 88.11 95.42
  A 1.49 1.49 0.0 0 1 88.23 97.38
  Q 83.21 103.84 80.55 110.24
  Z"
/>
<path fill="#000000" d="
  M 173.83 110.24
  Q 171.18 103.82 166.15 97.34
  A 1.49 1.49 0.0 0 1 166.27 95.37
  L 180.21 81.36
  A 1.09 1.09 0.0 0 1 181.80 81.41
  Q 189.85 90.62 194.45 101.72
  Q 199.04 112.82 199.84 125.02
  A 1.09 1.09 0.0 0 1 198.75 126.18
  L 178.99 126.11
  A 1.49 1.49 0.0 0 1 177.51 124.80
  Q 176.49 116.67 173.83 110.24
  Z"
/>
<circle fill="#000000" cx="127.22" cy="129.62" r="43.56"/>
<path fill="#000000" d="
  M 26.73 110.02
  Q 28.11 102.98 30.58 95.71
  A 1.33 1.32 -69.6 0 1 32.33 94.90
  L 50.81 102.43
  A 1.29 1.28 -70.4 0 1 51.55 103.99
  Q 49.55 110.54 48.80 114.36
  Q 48.05 118.18 47.42 125.00
  A 1.29 1.28 -87.3 0 1 46.14 126.17
  L 26.19 126.14
  A 1.33 1.32 -88.1 0 1 24.87 124.73
  Q 25.34 117.07 26.73 110.02
  Z"
/>
<path fill="#000000" d="
  M 227.69 110.13
  Q 229.05 117.17 229.49 124.83
  A 1.32 1.32 0.0 0 1 228.17 126.23
  L 208.24 126.19
  A 1.29 1.28 87.5 0 1 206.96 125.02
  Q 206.36 118.20 205.62 114.39
  Q 204.88 110.57 202.91 104.02
  A 1.29 1.28 70.6 0 1 203.65 102.45
  L 222.14 94.99
  A 1.32 1.32 0.0 0 1 223.89 95.81
  Q 226.33 103.08 227.69 110.13
  Z"
/>
<path fill="#000000" d="
  M 49.11 145.62
  Q 50.27 151.37 52.24 157.03
  A 0.80 0.80 0.0 0 1 51.80 158.03
  L 32.94 165.98
  A 1.44 1.44 0.0 0 1 31.04 165.14
  Q 28.30 157.54 26.81 150.14
  Q 25.31 142.74 24.86 134.69
  A 1.44 1.44 0.0 0 1 26.29 133.17
  L 46.75 133.15
  A 0.80 0.80 0.0 0 1 47.55 133.89
  Q 47.94 139.88 49.11 145.62
  Z"
/>
<path fill="#000000" d="
  M 80.58 149.01
  Q 83.25 155.43 88.28 161.89
  A 1.49 1.49 0.0 0 1 88.16 163.86
  L 74.24 177.89
  A 1.09 1.09 0.0 0 1 72.65 177.85
  Q 64.59 168.65 59.98 157.56
  Q 55.38 146.46 54.56 134.26
  A 1.09 1.09 0.0 0 1 55.64 133.10
  L 75.41 133.15
  A 1.49 1.49 0.0 0 1 76.89 134.46
  Q 77.92 142.59 80.58 149.01
  Z"
/>
<path fill="#000000" d="
  M 173.85 148.96
  Q 176.51 142.54 177.53 134.41
  A 1.49 1.49 0.0 0 1 179.00 133.10
  L 198.77 133.03
  A 1.09 1.09 0.0 0 1 199.86 134.18
  Q 199.05 146.39 194.46 157.49
  Q 189.87 168.59 181.82 177.79
  A 1.09 1.09 0.0 0 1 180.23 177.84
  L 166.29 163.83
  A 1.49 1.49 0.0 0 1 166.17 161.86
  Q 171.19 155.39 173.85 148.96
  Z"
/>
<path fill="#000000" d="
  M 205.31 145.60
  Q 206.46 139.87 206.83 133.89
  A 0.80 0.79 -88.0 0 1 207.62 133.15
  L 228.04 133.11
  A 1.43 1.43 0.0 0 1 229.47 134.62
  Q 229.05 142.66 227.58 150.05
  Q 226.10 157.43 223.40 165.02
  A 1.43 1.43 0.0 0 1 221.50 165.86
  L 202.67 157.99
  A 0.80 0.79 -69.4 0 1 202.22 157.00
  Q 204.17 151.34 205.31 145.60
  Z"
/>
<path fill="#000000" d="
  M 212.06 187.00
  Q 208.03 192.95 202.92 198.68
  A 1.33 1.32 -46.6 0 1 200.99 198.73
  L 186.92 184.57
  A 1.29 1.28 -47.4 0 1 186.85 182.84
  Q 191.26 177.59 193.45 174.37
  Q 195.63 171.15 198.88 165.11
  A 1.29 1.28 -64.3 0 1 200.51 164.54
  L 218.87 172.38
  A 1.33 1.32 -65.1 0 1 219.54 174.19
  Q 216.10 181.06 212.06 187.00
  Z"
/>
<path fill="#000000" d="
  M 35.84 172.32
  L 52.96 165.25
  A 2.23 2.23 0.0 0 1 55.66 166.06
  L 66.87 182.63
  A 2.23 2.23 0.0 0 1 66.60 185.45
  L 53.54 198.52
  A 2.23 2.23 0.0 0 1 50.12 198.19
  L 34.84 175.63
  A 2.23 2.23 0.0 0 1 35.84 172.32
  Z"
/>
<path fill="#000000" d="
  M 107.55 176.48
  Q 113.87 179.16 121.90 180.23
  A 1.48 1.47 -86.1 0 1 123.18 181.70
  L 123.09 201.23
  A 1.07 1.07 0.0 0 1 121.94 202.29
  Q 109.89 201.40 98.96 196.78
  Q 88.03 192.15 79.00 184.12
  A 1.07 1.07 0.0 0 1 78.96 182.55
  L 92.92 168.90
  A 1.48 1.47 -48.0 0 1 94.86 168.79
  Q 101.22 173.81 107.55 176.48
  Z"
/>
<path fill="#000000" d="
  M 146.18 176.35
  Q 152.67 173.69 159.23 168.64
  A 1.51 1.51 0.0 0 1 161.22 168.77
  L 175.33 182.90
  A 1.10 1.10 0.0 0 1 175.27 184.50
  Q 165.94 192.60 154.71 197.20
  Q 143.48 201.80 131.15 202.57
  A 1.10 1.10 0.0 0 1 129.99 201.46
  L 130.13 181.50
  A 1.51 1.51 0.0 0 1 131.46 180.01
  Q 139.68 179.01 146.18 176.35
  Z"
/>
<path fill="#000000" d="
  M 58.46 203.45
  L 71.48 190.42
  A 2.26 2.26 0.0 0 1 74.35 190.14
  L 91.45 201.70
  A 2.26 2.26 0.0 0 1 92.27 204.45
  L 85.11 221.45
  A 2.26 2.26 0.0 0 1 81.76 222.45
  L 58.79 206.92
  A 2.26 2.26 0.0 0 1 58.46 203.45
  Z"
/>
<path fill="#000000" d="
  M 184.13 215.09
  Q 178.04 219.18 171.00 222.65
  A 1.35 1.35 0.0 0 1 169.16 221.96
  L 161.26 203.17
  A 1.32 1.31 -25.4 0 1 161.86 201.50
  Q 168.04 198.22 171.34 196.01
  Q 174.64 193.79 180.03 189.32
  A 1.32 1.31 -42.3 0 1 181.80 189.40
  L 196.18 203.85
  A 1.35 1.35 0.0 0 1 196.11 205.82
  Q 190.23 211.01 184.13 215.09
  Z"
/>
<path fill="#000000" d="
  M 142.34 208.20
  Q 148.04 207.07 153.66 205.13
  A 0.79 0.79 0.0 0 1 154.65 205.57
  L 162.47 224.29
  A 1.43 1.43 0.0 0 1 161.64 226.18
  Q 154.10 228.86 146.76 230.33
  Q 139.42 231.79 131.42 232.21
  A 1.43 1.43 0.0 0 1 129.93 230.79
  L 129.96 210.50
  A 0.79 0.79 0.0 0 1 130.70 209.71
  Q 136.64 209.34 142.34 208.20
  Z"
/>
<path fill="#000000" d="
  M 106.62 230.16
  Q 99.53 228.69 92.22 226.14
  A 1.34 1.33 20.9 0 1 91.42 224.37
  L 99.19 205.81
  A 1.30 1.29 20.1 0 1 100.78 205.08
  Q 107.36 207.15 111.20 207.95
  Q 115.05 208.74 121.92 209.44
  A 1.30 1.29 3.2 0 1 123.09 210.74
  L 122.87 230.86
  A 1.34 1.33 2.4 0 1 121.43 232.17
  Q 113.71 231.62 106.62 230.16
  Z"
/>
</svg>