<?xml version="1.0" encoding="UTF-8" standalone="no"?>
<!DOCTYPE svg PUBLIC "-//W3C//DTD SVG 1.1//EN" "http://www.w3.org/Graphics/SVG/1.1/DTD/svg11.dtd">
<svg xmlns="http://www.w3.org/2000/svg" version="1.1" viewBox="0.00 0.00 129.00 129.00" width="128" height="128">
<path stroke="#1e7138" stroke-width="2.00" fill="none" stroke-linecap="butt" vector-effect="non-scaling-stroke" d="
  M 39.03 46.08
  Q 36.13 47.70 34.60 50.81
  A 3.89 3.69 64.0 0 0 34.26 51.89
  Q 33.98 53.56 34.00 58.00
  Q 34.07 73.74 34.00 93.77
  C 33.97 100.38 40.50 103.47 45.87 104.64
  C 56.11 106.85 86.73 109.24 93.16 97.91
  Q 94.06 96.32 94.07 91.97
  Q 94.08 68.23 94.04 56.16
  C 94.03 50.90 92.57 47.76 88.26 45.65
  A 1.60 1.59 -54.4 0 0 86.43 45.96
  L 85.86 46.52
  A 1.97 1.96 39.8 0 0 86.14 49.52
  C 88.23 50.96 89.39 51.90 89.43 54.93
  Q 89.71 75.03 89.43 93.76
  Q 89.40 95.45 88.88 96.13
  C 87.38 98.13 84.06 99.48 81.57 100.05
  Q 64.44 103.95 46.33 100.03
  C 44.29 99.59 38.64 97.36 38.62 94.75
  Q 38.53 78.81 38.57 54.50
  C 38.58 50.82 41.86 49.75 44.53 48.23
  A 1.94 1.94 0.0 0 0 44.95 45.17
  L 43.49 43.70
  A 1.40 1.37 22.5 0 1 43.07 42.71
  L 43.07 33.70
  A 3.09 3.09 0.0 0 1 44.79 30.93
  C 54.79 25.98 68.69 25.97 79.23 29.21
  Q 82.50 30.22 84.39 31.86
  A 1.81 1.78 20.6 0 1 85.02 33.22
  L 85.02 36.05
  A 1.08 1.06 22.0 0 0 85.36 36.83
  C 87.06 38.37 89.15 37.84 89.49 35.35
  Q 90.30 29.34 84.87 26.64
  C 73.69 21.08 56.62 21.18 45.21 25.67
  C 41.24 27.23 38.51 29.33 38.49 33.76
  C 38.47 39.54 38.14 42.88 39.29 45.29
  A 0.61 0.61 0.0 0 1 39.03 46.08"
/>
<path fill="#22c855" d="
  M 129.00 60.74
  L 129.00 68.50
  C 126.19 101.48 101.64 126.52 68.54 129.00
  L 60.84 129.00
  C 20.06 125.84 -7.68 87.96 2.55 48.37
  C 10.38 18.02 39.04 -2.01 70.36 0.68
  C 102.24 3.43 126.31 28.63 129.00 60.74
  Z
  M 39.03 46.08
  Q 36.13 47.70 34.60 50.81
  A 3.89 3.69 64.0 0 0 34.26 51.89
  Q 33.98 53.56 34.00 58.00
  Q 34.07 73.74 34.00 93.77
  C 33.97 100.38 40.50 103.47 45.87 104.64
  C 56.11 106.85 86.73 109.24 93.16 97.91
  Q 94.06 96.32 94.07 91.97
  Q 94.08 68.23 94.04 56.16
  C 94.03 50.90 92.57 47.76 88.26 45.65
  A 1.60 1.59 -54.4 0 0 86.43 45.96
  L 85.86 46.52
  A 1.97 1.96 39.8 0 0 86.14 49.52
  C 88.23 50.96 89.39 51.90 89.43 54.93
  Q 89.71 75.03 89.43 93.76
  Q 89.40 95.45 88.88 96.13
  C 87.38 98.13 84.06 99.48 81.57 100.05
  Q 64.44 103.95 46.33 100.03
  C 44.29 99.59 38.64 97.36 38.62 94.75
  Q 38.53 78.81 38.57 54.50
  C 38.58 50.82 41.86 49.75 44.53 48.23
  A 1.94 1.94 0.0 0 0 44.95 45.17
  L 43.49 43.70
  A 1.40 1.37 22.5 0 1 43.07 42.71
  L 43.07 33.70
  A 3.09 3.09 0.0 0 1 44.79 30.93
  C 54.79 25.98 68.69 25.97 79.23 29.21
  Q 82.50 30.22 84.39 31.86
  A 1.81 1.78 20.6 0 1 85.02 33.22
  L 85.02 36.05
  A 1.08 1.06 22.0 0 0 85.36 36.83
  C 87.06 38.37 89.15 37.84 89.49 35.35
  Q 90.30 29.34 84.87 26.64
  C 73.69 21.08 56.62 21.18 45.21 25.67
  C 41.24 27.23 38.51 29.33 38.49 33.76
  C 38.47 39.54 38.14 42.88 39.29 45.29
  A 0.61 0.61 0.0 0 1 39.03 46.08
  Z"
/>
<path fill="#1a1a1a" d="
  M 39.29 45.29
  C 38.14 42.88 38.47 39.54 38.49 33.76
  C 38.51 29.33 41.24 27.23 45.21 25.67
  C 56.62 21.18 73.69 21.08 84.87 26.64
  Q 90.30 29.34 89.49 35.35
  C 89.15 37.84 87.06 38.37 85.36 36.83
  A 1.08 1.06 22.0 0 1 85.02 36.05
  L 85.02 33.22
  A 1.81 1.78 20.6 0 0 84.39 31.86
  Q 82.50 30.22 79.23 29.21
  C 68.69 25.97 54.79 25.98 44.79 30.93
  A 3.09 3.09 0.0 0 0 43.07 33.70
  L 43.07 42.71
  A 1.40 1.37 22.5 0 0 43.49 43.70
  L 44.95 45.17
  A 1.94 1.94 0.0 0 1 44.53 48.23
  C 41.86 49.75 38.58 50.82 38.57 54.50
  Q 38.53 78.81 38.62 94.75
  C 38.64 97.36 44.29 99.59 46.33 100.03
  Q 64.44 103.95 81.57 100.05
  C 84.06 99.48 87.38 98.13 88.88 96.13
  Q 89.40 95.45 89.43 93.76
  Q 89.71 75.03 89.43 54.93
  C 89.39 51.90 88.23 50.96 86.14 49.52
  A 1.97 1.96 39.8 0 1 85.86 46.52
  L 86.43 45.96
  A 1.60 1.59 -54.4 0 1 88.26 45.65
  C 92.57 47.76 94.03 50.90 94.04 56.16
  Q 94.08 68.23 94.07 91.97
  Q 94.06 96.32 93.16 97.91
  C 86.73 109.24 56.11 106.85 45.87 104.64
  C 40.50 103.47 33.97 100.38 34.00 93.77
  Q 34.07 73.74 34.00 58.00
  Q 33.98 53.56 34.26 51.89
  A 3.89 3.69 64.0 0 1 34.60 50.81
  Q 36.13 47.70 39.03 46.08
  A 0.61 0.61 0.0 0 0 39.29 45.29
  Z"
/>
</svg>