<?xml version="1.0" encoding="UTF-8" standalone="no"?>
<!DOCTYPE svg PUBLIC "-//W3C//DTD SVG 1.1//EN" "http://www.w3.org/Graphics/SVG/1.1/DTD/svg11.dtd">
<svg xmlns="http://www.w3.org/2000/svg" version="1.1" viewBox="0.00 0.00 180.00 180.00" width="128" height="128">
<path stroke="#efa99c" stroke-width="2.00" fill="none" stroke-linecap="butt" vector-effect="non-scaling-stroke" d="
  M 59.92 112.68
  C 56.92 114.51 51.68 113.31 51.68 109.00
  Q 51.67 100.76 51.66 48.03
  Q 51.66 44.80 52.64 43.71
  C 54.49 41.65 58.33 41.19 60.40 43.15
  Q 63.34 45.91 82.21 65.57
  Q 84.72 68.19 86.37 68.63
  C 90.84 69.84 95.02 66.36 94.64 61.77
  Q 94.46 59.67 90.87 56.00
  Q 77.33 42.20 73.89 38.48
  Q 68.00 32.12 64.45 30.63
  C 52.39 25.57 38.62 33.39 38.63 47.01
  Q 38.69 94.64 38.58 105.13
  Q 38.51 112.34 39.92 115.70
  C 43.81 124.97 54.86 129.42 64.42 125.35
  Q 67.33 124.11 72.30 119.16
  C 88.39 103.14 103.63 87.41 120.75 69.99
  Q 123.03 67.67 124.37 67.29
  C 127.58 66.38 131.01 68.29 131.01 72.00
  Q 131.05 118.88 131.00 133.76
  C 130.98 139.15 124.95 140.40 121.45 136.91
  Q 103.60 119.14 98.28 113.97
  C 91.61 107.48 82.65 116.65 89.36 123.39
  Q 104.59 138.70 109.85 144.13
  Q 114.25 148.66 117.21 150.09
  C 128.71 155.63 144.02 147.67 144.03 134.48
  Q 144.06 83.94 144.06 72.26
  C 144.07 58.01 129.89 49.98 117.27 55.76
  Q 114.60 56.98 108.60 63.28
  Q 90.26 82.53 64.06 108.68
  Q 60.26 112.47 59.92 112.68"
/>
<path fill="#ffffff" d="
  M 180.00 0.00
  L 180.00 180.00
  L 0.00 180.00
  L 0.00 0.00
  L 180.00 0.00
  Z
  M 59.92 112.68
  C 56.92 114.51 51.68 113.31 51.68 109.00
  Q 51.67 100.76 51.66 48.03
  Q 51.66 44.80 52.64 43.71
  C 54.49 41.65 58.33 41.19 60.40 43.15
  Q 63.34 45.91 82.21 65.57
  Q 84.72 68.19 86.37 68.63
  C 90.84 69.84 95.02 66.36 94.64 61.77
  Q 94.46 59.67 90.87 56.00
  Q 77.33 42.20 73.89 38.48
  Q 68.00 32.12 64.45 30.63
  C 52.39 25.57 38.62 33.39 38.63 47.01
  Q 38.69 94.64 38.58 105.13
  Q 38.51 112.34 39.92 115.70
  C 43.81 124.97 54.86 129.42 64.42 125.35
  Q 67.33 124.11 72.30 119.16
  C 88.39 103.14 103.63 87.41 120.75 69.99
  Q 123.03 67.67 124.37 67.29
  C 127.58 66.38 131.01 68.29 131.01 72.00
  Q 131.05 118.88 131.00 133.76
  C 130.98 139.15 124.95 140.40 121.45 136.91
  Q 103.60 119.14 98.28 113.97
  C 91.61 107.48 82.65 116.65 89.36 123.39
  Q 104.59 138.70 109.85 144.13
  Q 114.25 148.66 117.21 150.09
  C 128.71 155.63 144.02 147.67 144.03 134.48
  Q 144.06 83.94 144.06 72.26
  C 144.07 58.01 129.89 49.98 117.27 55.76
  Q 114.60 56.98 108.60 63.28
  Q 90.26 82.53 64.06 108.68
  Q 60.26 112.47 59.92 112.68
  Z"
/>
<path fill="#df5239" d="
  M 51.68 109.00
  C 51.68 113.31 56.92 114.51 59.92 112.68
  Q 60.26 112.47 64.06 108.68
  Q 90.26 82.53 108.60 63.28
  Q 114.60 56.98 117.27 55.76
  C 129.89 49.98 144.07 58.01 144.06 72.26
  Q 144.06 83.94 144.03 134.48
  C 144.02 147.67 128.71 155.63 117.21 150.09
  Q 114.25 148.66 109.85 144.13
  Q 104.59 138.70 89.36 123.39
  C 82.65 116.65 91.61 107.48 98.28 113.97
  Q 103.60 119.14 121.45 136.91
  C 124.95 140.40 130.98 139.15 131.00 133.76
  Q 131.05 118.88 131.01 72.00
  C 131.01 68.29 127.58 66.38 124.37 67.29
  Q 123.03 67.67 120.75 69.99
  C 103.63 87.41 88.39 103.14 72.30 119.16
  Q 67.33 124.11 64.42 125.35
  C 54.86 129.42 43.81 124.97 39.92 115.70
  Q 38.51 112.34 38.58 105.13
  Q 38.69 94.64 38.63 47.01
  C 38.62 33.39 52.39 25.57 64.45 30.63
  Q 68.00 32.12 73.89 38.48
  Q 77.33 42.20 90.87 56.00
  Q 94.46 59.67 94.64 61.77
  C 95.02 66.36 90.84 69.84 86.37 68.63
  Q 84.72 68.19 82.21 65.57
  Q 63.34 45.91 60.40 43.15
  C 58.33 41.19 54.49 41.65 52.64 43.71
  Q 51.66 44.80 51.66 48.03
  Q 51.67 100.76 51.68 109.00
  Z"
/>
</svg>