<?xml version="1.0" encoding="UTF-8" standalone="no"?>
<!DOCTYPE svg PUBLIC "-//W3C//DTD SVG 1.1//EN" "http://www.w3.org/Graphics/SVG/1.1/DTD/svg11.dtd">
<svg xmlns="http://www.w3.org/2000/svg" version="1.1" viewBox="0.00 0.00 128.00 128.00" width="128" height="128">
<g stroke-width="2.00" fill="none" stroke-linecap="butt">
<path stroke="#8d9091" vector-effect="non-scaling-stroke" d="
  M 15.49 0.00
  Q 2.19 2.24 0.00 15.53"
/>
<path stroke="#8d9091" vector-effect="non-scaling-stroke" d="
  M 112.43 0.00
  Q 125.78 2.16 128.00 15.50"
/>
<path stroke="#8d9091" vector-effect="non-scaling-stroke" d="
  M 128.00 112.18
  Q 126.05 125.76 112.46 128.00"
/>
<path stroke="#8d9091" vector-effect="non-scaling-stroke" d="
  M 15.85 128.00
  Q 13.85 127.58 11.91 126.98
  Q 3.68 124.41 1.07 116.21
  Q 0.46 114.26 0.00 112.26"
/>
<path stroke="#0e1112" vector-effect="non-scaling-stroke" d="
  M 94.56 38.29
  C 94.55 36.37 94.98 33.11 93.89 31.35
  C 92.16 28.56 90.07 27.60 86.58 27.64
  Q 82.71 27.70 79.01 27.65
  C 75.78 27.61 73.94 28.60 72.32 31.30
  C 71.09 33.33 71.38 35.66 71.47 38.15
  A 1.04 1.03 -8.3 0 1 70.69 39.19
  C 65.44 40.52 65.27 44.64 65.19 49.71
  C 65.12 54.68 65.54 59.09 70.86 60.15
  A 0.73 0.72 -84.8 0 1 71.45 60.87
  L 71.41 72.82
  A 0.66 0.65 -4.7 0 1 70.86 73.46
  C 70.57 73.51 68.62 73.01 67.54 73.01
  Q 33.65 73.03 31.46 72.99
  C 27.54 72.91 25.01 73.94 23.24 77.14
  A 2.60 2.50 -30.3 0 0 22.91 78.31
  Q 22.80 80.68 22.78 85.24
  C 22.76 90.77 24.77 93.66 30.50 93.67
  Q 43.90 93.68 64.52 93.54
  C 69.52 93.51 72.72 93.90 74.68 89.44
  A 0.48 0.47 30.3 0 1 75.41 89.25
  C 81.54 93.99 88.29 94.44 95.73 93.98
  Q 101.41 93.63 102.99 88.78
  A 3.34 3.19 -38.5 0 0 103.15 87.60
  C 103.02 83.85 104.06 77.95 101.99 75.00
  Q 99.78 71.85 95.00 71.84
  A 0.41 0.41 0.0 0 1 94.59 71.43
  L 94.59 60.88
  A 0.54 0.53 88.9 0 1 95.10 60.34
  C 96.81 60.25 98.68 60.38 100.21 59.55
  C 103.37 57.84 104.10 55.59 104.11 51.98
  C 104.13 45.84 105.03 39.57 96.99 39.03
  Q 96.65 39.00 95.14 38.91
  A 0.62 0.62 0.0 0 1 94.56 38.29"
/>
<path stroke="#808080" vector-effect="non-scaling-stroke" d="
  M 77.34 55.22
  Q 77.24 68.75 77.35 77.96
  C 77.49 88.82 88.34 88.71 96.22 87.97
  A 1.32 1.31 87.4 0 0 97.41 86.66
  L 97.41 79.16
  A 1.24 1.24 0.0 0 0 96.12 77.92
  C 92.08 78.06 88.73 77.91 88.84 72.82
  Q 88.88 70.82 88.85 54.75
  A 0.35 0.35 0.0 0 1 89.20 54.40
  L 97.32 54.40
  A 0.90 0.90 0.0 0 0 98.22 53.50
  L 98.22 45.75
  A 0.92 0.92 0.0 0 0 97.30 44.83
  L 89.40 44.83
  A 0.55 0.54 0.0 0 1 88.85 44.29
  L 88.85 34.58
  A 1.12 1.11 -90.0 0 0 87.74 33.46
  L 78.21 33.47
  A 0.90 0.89 -0.0 0 0 77.31 34.36
  L 77.31 44.28
  A 0.55 0.54 90.0 0 1 76.77 44.83
  L 72.67 44.83
  A 1.56 1.55 0.0 0 0 71.11 46.38
  L 71.11 53.06
  A 1.36 1.35 0.0 0 0 72.47 54.41
  L 76.53 54.41
  A 0.81 0.80 0.3 0 1 77.34 55.22"
/>
<path stroke="#0a3c80" vector-effect="non-scaling-stroke" d="
  M 69.26 79.92
  A 0.95 0.95 0.0 0 0 68.31 78.97
  L 29.49 78.97
  A 0.95 0.95 0.0 0 0 28.54 79.92
  L 28.54 87.00
  A 0.95 0.95 0.0 0 0 29.49 87.95
  L 68.31 87.95
  A 0.95 0.95 0.0 0 0 69.26 87.00
  L 69.26 79.92"
/>
</g>
<path fill="#ffffff" d="
  M 15.49 0.00
  Q 2.19 2.24 0.00 15.53
  L 0.00 0.00
  L 15.49 0.00
  Z"
/>
<path fill="#1b2123" d="
  M 112.43 0.00
  Q 125.78 2.16 128.00 15.50
  L 128.00 112.18
  Q 126.05 125.76 112.46 128.00
  L 15.85 128.00
  Q 13.85 127.58 11.91 126.98
  Q 3.68 124.41 1.07 116.21
  Q 0.46 114.26 0.00 112.26
  L 0.00 15.53
  Q 2.19 2.24 15.49 0.00
  L 112.43 0.00
  Z
  M 94.56 38.29
  C 94.55 36.37 94.98 33.11 93.89 31.35
  C 92.16 28.56 90.07 27.60 86.58 27.64
  Q 82.71 27.70 79.01 27.65
  C 75.78 27.61 73.94 28.60 72.32 31.30
  C 71.09 33.33 71.38 35.66 71.47 38.15
  A 1.04 1.03 -8.3 0 1 70.69 39.19
  C 65.44 40.52 65.27 44.64 65.19 49.71
  C 65.12 54.68 65.54 59.09 70.86 60.15
  A 0.73 0.72 -84.8 0 1 71.45 60.87
  L 71.41 72.82
  A 0.66 0.65 -4.7 0 1 70.86 73.46
  C 70.57 73.51 68.62 73.01 67.54 73.01
  Q 33.65 73.03 31.46 72.99
  C 27.54 72.91 25.01 73.94 23.24 77.14
  A 2.60 2.50 -30.3 0 0 22.91 78.31
  Q 22.80 80.68 22.78 85.24
  C 22.76 90.77 24.77 93.66 30.50 93.67
  Q 43.90 93.68 64.52 93.54
  C 69.52 93.51 72.72 93.90 74.68 89.44
  A 0.48 0.47 30.3 0 1 75.41 89.25
  C 81.54 93.99 88.29 94.44 95.73 93.98
  Q 101.41 93.63 102.99 88.78
  A 3.34 3.19 -38.5 0 0 103.15 87.60
  C 103.02 83.85 104.06 77.95 101.99 75.00
  Q 99.78 71.85 95.00 71.84
  A 0.41 0.41 0.0 0 1 94.59 71.43
  L 94.59 60.88
  A 0.54 0.53 88.9 0 1 95.10 60.34
  C 96.81 60.25 98.68 60.38 100.21 59.55
  C 103.37 57.84 104.10 55.59 104.11 51.98
  C 104.13 45.84 105.03 39.57 96.99 39.03
  Q 96.65 39.00 95.14 38.91
  A 0.62 0.62 0.0 0 1 94.56 38.29
  Z"
/>
<path fill="#ffffff" d="
  M 128.00 0.00
  L 128.00 15.50
  Q 125.78 2.16 112.43 0.00
  L 128.00 0.00
  Z"
/>
<path fill="#000000" d="
  M 95.14 38.91
  Q 96.65 39.00 96.99 39.03
  C 105.03 39.57 104.13 45.84 104.11 51.98
  C 104.10 55.59 103.37 57.84 100.21 59.55
  C 98.68 60.38 96.81 60.25 95.10 60.34
  A 0.54 0.53 88.9 0 0 94.59 60.88
  L 94.59 71.43
  A 0.41 0.41 0.0 0 0 95.00 71.84
  Q 99.78 71.85 101.99 75.00
  C 104.06 77.95 103.02 83.85 103.15 87.60
  A 3.34 3.19 -38.5 0 1 102.99 88.78
  Q 101.41 93.63 95.73 93.98
  C 88.29 94.44 81.54 93.99 75.41 89.25
  A 0.48 0.47 30.3 0 0 74.68 89.44
  C 72.72 93.90 69.52 93.51 64.52 93.54
  Q 43.90 93.68 30.50 93.67
  C 24.77 93.66 22.76 90.77 22.78 85.24
  Q 22.80 80.68 22.91 78.31
  A 2.60 2.50 -30.3 0 1 23.24 77.14
  C 25.01 73.94 27.54 72.91 31.46 72.99
  Q 33.65 73.03 67.54 73.01
  C 68.62 73.01 70.57 73.51 70.86 73.46
  A 0.66 0.65 -4.7 0 0 71.41 72.82
  L 71.45 60.87
  A 0.73 0.72 -84.8 0 0 70.86 60.15
  C 65.54 59.09 65.12 54.68 65.19 49.71
  C 65.27 44.64 65.44 40.52 70.69 39.19
  A 1.04 1.03 -8.3 0 0 71.47 38.15
  C 71.38 35.66 71.09 33.33 72.32 31.30
  C 73.94 28.60 75.78 27.61 79.01 27.65
  Q 82.71 27.70 86.58 27.64
  C 90.07 27.60 92.16 28.56 93.89 31.35
  C 94.98 33.11 94.55 36.37 94.56 38.29
  A 0.62 0.62 0.0 0 0 95.14 38.91
  Z
  M 77.34 55.22
  Q 77.24 68.75 77.35 77.96
  C 77.49 88.82 88.34 88.71 96.22 87.97
  A 1.32 1.31 87.4 0 0 97.41 86.66
  L 97.41 79.16
  A 1.24 1.24 0.0 0 0 96.12 77.92
  C 92.08 78.06 88.73 77.91 88.84 72.82
  Q 88.88 70.82 88.85 54.75
  A 0.35 0.35 0.0 0 1 89.20 54.40
  L 97.32 54.40
  A 0.90 0.90 0.0 0 0 98.22 53.50
  L 98.22 45.75
  A 0.92 0.92 0.0 0 0 97.30 44.83
  L 89.40 44.83
  A 0.55 0.54 0.0 0 1 88.85 44.29
  L 88.85 34.58
  A 1.12 1.11 -90.0 0 0 87.74 33.46
  L 78.21 33.47
  A 0.90 0.89 -0.0 0 0 77.31 34.36
  L 77.31 44.28
  A 0.55 0.54 90.0 0 1 76.77 44.83
  L 72.67 44.83
  A 1.56 1.55 0.0 0 0 71.11 46.38
  L 71.11 53.06
  A 1.36 1.35 0.0 0 0 72.47 54.41
  L 76.53 54.41
  A 0.81 0.80 0.3 0 1 77.34 55.22
  Z
  M 69.26 79.92
  A 0.95 0.95 0.0 0 0 68.31 78.97
  L 29.49 78.97
  A 0.95 0.95 0.0 0 0 28.54 79.92
  L 28.54 87.00
  A 0.95 0.95 0.0 0 0 29.49 87.95
  L 68.31 87.95
  A 0.95 0.95 0.0 0 0 69.26 87.00
  L 69.26 79.92
  Z"
/>
<path fill="#ffffff" d="
  M 76.53 54.41
  L 72.47 54.41
  A 1.36 1.35 -0.0 0 1 71.11 53.06
  L 71.11 46.38
  A 1.56 1.55 -0.0 0 1 72.67 44.83
  L 76.77 44.83
  A 0.55 0.54 90.0 0 0 77.31 44.28
  L 77.31 34.36
  A 0.90 0.89 -0.0 0 1 78.21 33.47
  L 87.74 33.46
  A 1.12 1.11 90.0 0 1 88.85 34.58
  L 88.85 44.29
  A 0.55 0.54 0.0 0 0 89.40 44.83
  L 97.30 44.83
  A 0.92 0.92 0.0 0 1 98.22 45.75
  L 98.22 53.50
  A 0.90 0.90 0.0 0 1 97.32 54.40
  L 89.20 54.40
  A 0.35 0.35 0.0 0 0 88.85 54.75
  Q 88.88 70.82 88.84 72.82
  C 88.73 77.91 92.08 78.06 96.12 77.92
  A 1.24 1.24 0.0 0 1 97.41 79.16
  L 97.41 86.66
  A 1.32 1.31 87.4 0 1 96.22 87.97
  C 88.34 88.71 77.49 88.82 77.35 77.96
  Q 77.24 68.75 77.34 55.22
  A 0.81 0.80 0.3 0 0 76.53 54.41
  Z"
/>
<rect fill="#1477ff" x="28.54" y="78.97" width="40.72" height="8.98" rx="0.95"/>
<path fill="#ffffff" d="
  M 15.85 128.00
  L 0.00 128.00
  L 0.00 112.26
  Q 0.46 114.26 1.07 116.21
  Q 3.68 124.41 11.91 126.98
  Q 13.85 127.58 15.85 128.00
  Z"
/>
<path fill="#ffffff" d="
  M 128.00 112.18
  L 128.00 128.00
  L 112.46 128.00
  Q 126.05 125.76 128.00 112.18
  Z"
/>
</svg>