<?xml version="1.0" encoding="UTF-8" standalone="no"?>
<!DOCTYPE svg PUBLIC "-//W3C//DTD SVG 1.1//EN" "http://www.w3.org/Graphics/SVG/1.1/DTD/svg11.dtd">
<svg xmlns="http://www.w3.org/2000/svg" version="1.1" viewBox="0.00 0.00 128.00 128.00" width="128" height="128">
<g stroke-width="2.00" fill="none" stroke-linecap="butt">
<path stroke="#dc669d" vector-effect="non-scaling-stroke" d="
  M 66.72 0.00
  Q 57.28 10.78 48.15 20.75
  C 46.39 22.67 43.67 24.40 42.28 25.99
  Q 37.32 31.64 31.92 36.91"
/>
<path stroke="#f2b6c7" vector-effect="non-scaling-stroke" d="
  M 31.92 36.91
  Q 25.38 40.33 25.28 47.69"
/>
<path stroke="#dc669d" vector-effect="non-scaling-stroke" d="
  M 25.28 47.69
  C 21.21 49.13 18.77 53.36 16.49 55.78
  A 0.12 0.11 -47.0 0 1 16.35 55.79
  L 16.13 55.63
  A 0.19 0.18 -55.9 0 1 16.09 55.37
  L 20.13 49.70
  A 0.36 0.36 0.0 0 0 20.01 49.18
  L 19.53 48.90
  A 0.13 0.13 0.0 0 0 19.35 48.94
  L 13.35 59.35
  A 2.77 2.70 87.4 0 1 12.63 60.16
  Q 9.93 62.21 7.39 65.49
  A 1.54 1.21 -11.7 0 1 7.23 65.68
  L 0.00 72.52"
/>
<path stroke="#c958bd" vector-effect="non-scaling-stroke" d="
  M 85.04 0.00
  Q 82.71 4.19 79.77 6.62
  Q 73.80 11.56 70.04 16.56
  Q 67.57 19.84 57.47 27.75"
/>
<path stroke="#e9afd5" vector-effect="non-scaling-stroke" d="
  M 57.47 27.75
  Q 52.24 24.13 46.49 26.47
  C 43.39 27.73 40.45 30.85 40.01 34.47
  Q 39.94 35.13 39.80 35.71
  A 0.66 0.66 0.0 0 1 39.06 36.21
  Q 35.40 35.69 31.92 36.91"
/>
<path stroke="#bb4ed6" vector-effect="non-scaling-stroke" d="
  M 118.42 0.58
  Q 104.32 18.03 87.67 32.79"
/>
<path stroke="#dfa8e7" vector-effect="non-scaling-stroke" d="
  M 87.67 32.79
  Q 84.74 26.05 78.30 25.58
  Q 69.70 24.95 66.46 33.86
  A 4.14 3.97 -35.3 0 0 66.22 35.11
  L 65.95 48.15
  A 1.55 1.55 0.0 0 0 66.46 49.32
  L 73.94 55.98
  A 3.23 3.22 -69.3 0 1 75.02 58.39
  L 75.02 69.78
  A 2.71 2.70 68.4 0 1 74.17 71.75
  L 66.04 79.40"
/>
<path stroke="#a752da" vector-effect="non-scaling-stroke" d="
  M 66.04 79.40
  Q 65.32 81.14 64.00 81.12
  Q 62.54 81.10 61.80 78.94"
/>
<path stroke="#dfa8e7" vector-effect="non-scaling-stroke" d="
  M 61.80 78.94
  L 53.71 71.64
  A 2.15 2.13 21.2 0 1 53.00 70.05
  L 53.00 57.96
  A 2.22 2.21 69.6 0 1 53.76 56.29
  L 61.14 49.80
  A 1.99 1.96 70.7 0 0 61.81 48.38
  Q 61.98 42.73 61.85 36.01
  Q 61.75 31.18 57.47 27.75"
/>
<path stroke="#a350e1" vector-effect="non-scaling-stroke" d="
  M 127.81 9.04
  C 121.40 16.64 112.88 24.97 104.59 34.54
  Q 102.68 36.75 99.00 38.84"
/>
<path stroke="#dba6ee" vector-effect="non-scaling-stroke" d="
  M 99.00 38.84
  Q 94.68 35.17 88.98 36.25
  A 0.54 0.54 0.0 0 1 88.35 35.84
  L 87.67 32.79"
/>
<path stroke="#795ae9" vector-effect="non-scaling-stroke" d="
  M 128.00 45.61
  Q 123.63 49.20 122.96 50.58
  C 121.70 53.21 119.70 54.24 118.02 56.03
  C 115.68 58.53 114.55 60.53 110.78 60.96"
/>
<path stroke="#c7aaf2" vector-effect="non-scaling-stroke" d="
  M 110.78 60.96
  Q 108.51 54.58 101.73 52.83
  A 0.42 0.41 19.7 0 1 101.45 52.26
  Q 104.77 44.81 99.00 38.84"
/>
<path stroke="#c7aaf2" vector-effect="non-scaling-stroke" d="
  M 61.80 78.94
  Q 61.97 85.92 61.61 92.24
  Q 61.30 97.61 57.22 100.46
  C 52.00 104.10 44.78 102.61 41.28 97.15"
/>
<path stroke="#dfa8e7" vector-effect="non-scaling-stroke" d="
  M 41.28 97.15
  Q 40.16 95.25 39.79 92.31
  A 0.60 0.60 0.0 0 0 39.11 91.79
  Q 30.12 93.04 26.38 85.52
  Q 24.05 80.85 26.72 75.74
  A 0.42 0.42 0.0 0 0 26.44 75.13
  Q 21.21 73.97 18.30 69.41"
/>
<path stroke="#e9afd5" vector-effect="non-scaling-stroke" d="
  M 18.30 69.41
  C 14.49 62.04 19.02 54.36 26.69 52.91
  A 0.20 0.20 0.0 0 0 26.83 52.63
  Q 25.54 49.98 25.28 47.69"
/>
<path stroke="#e3aae1" vector-effect="non-scaling-stroke" d="
  M 57.34 43.94
  C 57.56 37.68 58.32 30.81 51.47 30.10
  Q 46.67 29.61 44.58 34.58
  C 43.12 38.07 45.34 40.91 47.90 43.15
  C 50.17 45.13 50.85 44.59 53.82 44.62
  Q 55.58 44.64 56.75 44.55
  A 0.63 0.63 0.0 0 0 57.34 43.94"
/>
<path stroke="#e9afd5" vector-effect="non-scaling-stroke" d="
  M 54.42 49.75
  A 0.38 0.38 0.0 0 0 54.18 49.08
  L 48.55 49.00
  A 2.65 2.65 0.0 0 1 47.08 48.51
  Q 46.26 47.96 41.56 42.87
  C 35.57 36.37 25.86 44.43 31.70 51.69
  A 3.52 3.50 -19.3 0 0 34.43 52.99
  L 49.43 52.99
  A 3.46 3.42 24.1 0 0 51.70 52.14
  L 54.42 49.75"
/>
<path stroke="#e3aae1" vector-effect="non-scaling-stroke" d="
  M 48.60 70.11
  L 48.60 57.89
  A 0.51 0.51 0.0 0 0 48.09 57.38
  L 28.21 57.38
  A 6.83 6.58 0.0 0 0 21.38 63.96
  L 21.38 64.04
  A 6.83 6.58 -0.0 0 0 28.21 70.62
  L 48.09 70.62
  A 0.51 0.51 0.0 0 0 48.60 70.11"
/>
<path stroke="#dfa8e7" vector-effect="non-scaling-stroke" d="
  M 54.40 78.25
  L 51.68 75.87
  A 3.46 3.42 -24.2 0 0 49.41 75.02
  L 34.42 75.03
  A 3.52 3.49 19.3 0 0 31.69 76.33
  C 25.86 83.59 35.57 91.64 41.56 85.14
  Q 46.25 80.05 47.07 79.50
  A 2.65 2.65 0.0 0 1 48.54 79.01
  L 54.16 78.92
  A 0.38 0.38 0.0 0 0 54.40 78.25"
/>
<path stroke="#dba6ee" vector-effect="non-scaling-stroke" d="
  M 57.32 84.06
  A 0.63 0.63 0.0 0 0 56.73 83.45
  Q 55.56 83.36 53.81 83.39
  C 50.84 83.43 50.16 82.89 47.90 84.87
  C 45.35 87.12 43.13 89.96 44.60 93.44
  Q 46.70 98.40 51.50 97.90
  C 58.34 97.17 57.56 90.31 57.32 84.06"
/>
<path stroke="#b1b0f6" vector-effect="non-scaling-stroke" d="
  M 110.78 60.96
  Q 112.41 72.23 101.68 75.08
  A 0.46 0.45 -19.8 0 0 101.38 75.70
  Q 104.86 83.44 98.87 89.19
  Q 95.17 92.74 89.03 91.71
  A 0.70 0.70 0.0 0 0 88.25 92.16
  Q 88.14 92.42 88.07 93.19
  C 87.70 97.16 84.32 100.60 81.01 101.78
  Q 75.96 103.59 71.10 100.65"
/>
<path stroke="#c7aaf2" vector-effect="non-scaling-stroke" d="
  M 71.10 100.65
  Q 66.16 97.10 66.12 90.99
  Q 66.08 85.69 66.04 79.40"
/>
<path stroke="#dfa8e7" vector-effect="non-scaling-stroke" d="
  M 70.70 43.93
  A 0.63 0.63 0.0 0 0 71.29 44.54
  Q 72.45 44.63 74.21 44.61
  C 77.17 44.57 77.85 45.11 80.11 43.13
  C 82.66 40.89 84.87 38.05 83.41 34.57
  Q 81.32 29.62 76.53 30.11
  C 69.69 30.84 70.47 37.69 70.70 43.93"
/>
<path stroke="#dba6ee" vector-effect="non-scaling-stroke" d="
  M 73.61 49.73
  L 76.33 52.12
  A 3.46 3.42 -24.1 0 0 78.60 52.97
  L 93.58 52.97
  A 3.52 3.49 19.4 0 0 96.31 51.68
  C 102.15 44.43 92.45 36.37 86.46 42.86
  Q 81.77 47.94 80.95 48.49
  A 2.64 2.64 0.0 0 1 79.48 48.98
  L 73.85 49.06
  A 0.38 0.38 0.0 0 0 73.61 49.73"
/>
<path stroke="#c7aaf2" vector-effect="non-scaling-stroke" d="
  M 79.42 57.88
  L 79.40 70.10
  A 0.48 0.48 0.0 0 0 79.88 70.58
  L 99.94 70.61
  A 6.60 6.50 0.1 0 0 106.55 64.12
  L 106.55 63.94
  A 6.60 6.50 0.1 0 0 99.96 57.43
  L 79.90 57.40
  A 0.48 0.48 0.0 0 0 79.42 57.88"
/>
<path stroke="#c7aaf2" vector-effect="non-scaling-stroke" d="
  M 73.63 78.28
  A 0.38 0.38 0.0 0 0 73.87 78.95
  L 79.49 79.03
  A 2.64 2.64 0.0 0 1 80.96 79.52
  Q 81.78 80.07 86.47 85.16
  C 92.44 91.65 102.15 83.61 96.32 76.36
  A 3.51 3.49 -19.3 0 0 93.59 75.06
  L 78.61 75.05
  A 3.46 3.42 24.2 0 0 76.35 75.89
  L 73.63 78.28"
/>
<path stroke="#c7aaf2" vector-effect="non-scaling-stroke" d="
  M 70.73 84.07
  C 70.49 90.32 69.72 97.17 76.55 97.90
  Q 81.34 98.40 83.44 93.44
  C 84.90 89.96 82.69 87.12 80.14 84.88
  C 77.88 82.90 77.20 83.44 74.24 83.40
  Q 72.48 83.38 71.32 83.47
  A 0.63 0.63 0.0 0 0 70.73 84.07"
/>
<path stroke="#5165f1" vector-effect="non-scaling-stroke" d="
  M 128.00 71.77
  C 115.75 85.28 101.81 99.11 80.18 120.66
  Q 76.96 123.86 75.22 128.00"
/>
<path stroke="#795ae9" vector-effect="non-scaling-stroke" d="
  M 48.73 128.00
  Q 50.58 124.17 51.74 122.99
  C 58.47 116.16 66.46 108.34 71.10 100.65"
/>
<path stroke="#c958bd" vector-effect="non-scaling-stroke" d="
  M 18.30 69.41
  L 0.00 86.50"
/>
<path stroke="#a752da" vector-effect="non-scaling-stroke" d="
  M 41.28 97.15
  Q 37.26 100.96 33.27 104.74
  C 25.65 111.98 18.95 120.29 11.78 128.00"
/>
<path stroke="#316df7" vector-effect="non-scaling-stroke" d="
  M 128.00 99.13
  C 125.00 100.50 122.49 102.21 121.68 105.53
  A 0.49 0.48 -81.2 0 1 121.19 105.90
  Q 121.03 105.89 121.02 105.89
  A 1.40 1.39 19.4 0 0 120.11 106.32
  Q 117.20 109.37 109.17 117.53
  Q 105.02 121.74 102.64 128.00"
/>
</g>
<path fill="#e46c8f" d="
  M 66.72 0.00
  Q 57.28 10.78 48.15 20.75
  C 46.39 22.67 43.67 24.40 42.28 25.99
  Q 37.32 31.64 31.92 36.91
  Q 25.38 40.33 25.28 47.69
  C 21.21 49.13 18.77 53.36 16.49 55.78
  A 0.12 0.11 -47.0 0 1 16.35 55.79
  L 16.13 55.63
  A 0.19 0.18 -55.9 0 1 16.09 55.37
  L 20.13 49.70
  A 0.36 0.36 0.0 0 0 20.01 49.18
  L 19.53 48.90
  A 0.13 0.13 0.0 0 0 19.35 48.94
  L 13.35 59.35
  A 2.77 2.70 87.4 0 1 12.63 60.16
  Q 9.93 62.21 7.39 65.49
  A 1.54 1.21 -11.7 0 1 7.23 65.68
  L 0.00 72.52
  L 0.00 14.56
  Q 1.83 -0.49 18.22 0.00
  L 66.72 0.00
  Z"
/>
<path fill="#d35fab" d="
  M 85.04 0.00
  Q 82.71 4.19 79.77 6.62
  Q 73.80 11.56 70.04 16.56
  Q 67.57 19.84 57.47 27.75
  Q 52.24 24.13 46.49 26.47
  C 43.39 27.73 40.45 30.85 40.01 34.47
  Q 39.94 35.13 39.80 35.71
  A 0.66 0.66 0.0 0 1 39.06 36.21
  Q 35.40 35.69 31.92 36.91
  Q 37.32 31.64 42.28 25.99
  C 43.67 24.40 46.39 22.67 48.15 20.75
  Q 57.28 10.78 66.72 0.00
  L 85.04 0.00
  Z"
/>
<path fill="#bf50cf" d="
  M 115.61 0.00
  Q 116.78 0.58 118.42 0.58
  Q 104.32 18.03 87.67 32.79
  Q 84.74 26.05 78.30 25.58
  Q 69.70 24.95 66.46 33.86
  A 4.14 3.97 -35.3 0 0 66.22 35.11
  L 65.95 48.15
  A 1.55 1.55 0.0 0 0 66.46 49.32
  L 73.94 55.98
  A 3.23 3.22 -69.3 0 1 75.02 58.39
  L 75.02 69.78
  A 2.71 2.70 68.4 0 1 74.17 71.75
  L 66.04 79.40
  Q 65.32 81.14 64.00 81.12
  Q 62.54 81.10 61.80 78.94
  L 53.71 71.64
  A 2.15 2.13 21.2 0 1 53.00 70.05
  L 53.00 57.96
  A 2.22 2.21 69.6 0 1 53.76 56.29
  L 61.14 49.80
  A 1.99 1.96 70.7 0 0 61.81 48.38
  Q 61.98 42.73 61.85 36.01
  Q 61.75 31.18 57.47 27.75
  Q 67.57 19.84 70.04 16.56
  Q 73.80 11.56 79.77 6.62
  Q 82.71 4.19 85.04 0.00
  L 115.61 0.00
  Z"
/>
<path fill="#b64cdc" d="
  M 118.42 0.58
  Q 124.85 2.92 127.81 9.04
  C 121.40 16.64 112.88 24.97 104.59 34.54
  Q 102.68 36.75 99.00 38.84
  Q 94.68 35.17 88.98 36.25
  A 0.54 0.54 0.0 0 1 88.35 35.84
  L 87.67 32.79
  Q 104.32 18.03 118.42 0.58
  Z"
/>
<path fill="#8f54e5" d="
  M 128.00 8.96
  L 128.00 45.61
  Q 123.63 49.20 122.96 50.58
  C 121.70 53.21 119.70 54.24 118.02 56.03
  C 115.68 58.53 114.55 60.53 110.78 60.96
  Q 108.51 54.58 101.73 52.83
  A 0.42 0.41 19.7 0 1 101.45 52.26
  Q 104.77 44.81 99.00 38.84
  Q 102.68 36.75 104.59 34.54
  C 112.88 24.97 121.40 16.64 127.81 9.04
  Q 127.90 9.00 128.00 8.96
  Z"
/>
<path fill="#ffffff" d="
  M 57.47 27.75
  Q 61.75 31.18 61.85 36.01
  Q 61.98 42.73 61.81 48.38
  A 1.99 1.96 70.7 0 1 61.14 49.80
  L 53.76 56.29
  A 2.22 2.21 69.6 0 0 53.00 57.96
  L 53.00 70.05
  A 2.15 2.13 21.2 0 0 53.71 71.64
  L 61.80 78.94
  Q 61.97 85.92 61.61 92.24
  Q 61.30 97.61 57.22 100.46
  C 52.00 104.10 44.78 102.61 41.28 97.15
  Q 40.16 95.25 39.79 92.31
  A 0.60 0.60 0.0 0 0 39.11 91.79
  Q 30.12 93.04 26.38 85.52
  Q 24.05 80.85 26.72 75.74
  A 0.42 0.42 0.0 0 0 26.44 75.13
  Q 21.21 73.97 18.30 69.41
  C 14.49 62.04 19.02 54.36 26.69 52.91
  A 0.20 0.20 0.0 0 0 26.83 52.63
  Q 25.54 49.98 25.28 47.69
  Q 25.38 40.33 31.92 36.91
  Q 35.40 35.69 39.06 36.21
  A 0.66 0.66 0.0 0 0 39.80 35.71
  Q 39.94 35.13 40.01 34.47
  C 40.45 30.85 43.39 27.73 46.49 26.47
  Q 52.24 24.13 57.47 27.75
  Z
  M 57.34 43.94
  C 57.56 37.68 58.32 30.81 51.47 30.10
  Q 46.67 29.61 44.58 34.58
  C 43.12 38.07 45.34 40.91 47.90 43.15
  C 50.17 45.13 50.85 44.59 53.82 44.62
  Q 55.58 44.64 56.75 44.55
  A 0.63 0.63 0.0 0 0 57.34 43.94
  Z
  M 54.42 49.75
  A 0.38 0.38 0.0 0 0 54.18 49.08
  L 48.55 49.00
  A 2.65 2.65 0.0 0 1 47.08 48.51
  Q 46.26 47.96 41.56 42.87
  C 35.57 36.37 25.86 44.43 31.70 51.69
  A 3.52 3.50 -19.3 0 0 34.43 52.99
  L 49.43 52.99
  A 3.46 3.42 24.1 0 0 51.70 52.14
  L 54.42 49.75
  Z
  M 48.60 70.11
  L 48.60 57.89
  A 0.51 0.51 0.0 0 0 48.09 57.38
  L 28.21 57.38
  A 6.83 6.58 0.0 0 0 21.38 63.96
  L 21.38 64.04
  A 6.83 6.58 -0.0 0 0 28.21 70.62
  L 48.09 70.62
  A 0.51 0.51 0.0 0 0 48.60 70.11
  Z
  M 54.40 78.25
  L 51.68 75.87
  A 3.46 3.42 -24.2 0 0 49.41 75.02
  L 34.42 75.03
  A 3.52 3.49 19.3 0 0 31.69 76.33
  C 25.86 83.59 35.57 91.64 41.56 85.14
  Q 46.25 80.05 47.07 79.50
  A 2.65 2.65 0.0 0 1 48.54 79.01
  L 54.16 78.92
  A 0.38 0.38 0.0 0 0 54.40 78.25
  Z
  M 57.32 84.06
  A 0.63 0.63 0.0 0 0 56.73 83.45
  Q 55.56 83.36 53.81 83.39
  C 50.84 83.43 50.16 82.89 47.90 84.87
  C 45.35 87.12 43.13 89.96 44.60 93.44
  Q 46.70 98.40 51.50 97.90
  C 58.34 97.17 57.56 90.31 57.32 84.06
  Z"
/>
<path fill="#ffffff" d="
  M 87.67 32.79
  L 88.35 35.84
  A 0.54 0.54 0.0 0 0 88.98 36.25
  Q 94.68 35.17 99.00 38.84
  Q 104.77 44.81 101.45 52.26
  A 0.42 0.41 19.7 0 0 101.73 52.83
  Q 108.51 54.58 110.78 60.96
  Q 112.41 72.23 101.68 75.08
  A 0.46 0.45 -19.8 0 0 101.38 75.70
  Q 104.86 83.44 98.87 89.19
  Q 95.17 92.74 89.03 91.71
  A 0.70 0.70 0.0 0 0 88.25 92.16
  Q 88.14 92.42 88.07 93.19
  C 87.70 97.16 84.32 100.60 81.01 101.78
  Q 75.96 103.59 71.10 100.65
  Q 66.16 97.10 66.12 90.99
  Q 66.08 85.69 66.04 79.40
  L 74.17 71.75
  A 2.71 2.70 68.4 0 0 75.02 69.78
  L 75.02 58.39
  A 3.23 3.22 -69.3 0 0 73.94 55.98
  L 66.46 49.32
  A 1.55 1.55 0.0 0 1 65.95 48.15
  L 66.22 35.11
  A 4.14 3.97 -35.3 0 1 66.46 33.86
  Q 69.70 24.95 78.30 25.58
  Q 84.74 26.05 87.67 32.79
  Z
  M 70.70 43.93
  A 0.63 0.63 0.0 0 0 71.29 44.54
  Q 72.45 44.63 74.21 44.61
  C 77.17 44.57 77.85 45.11 80.11 43.13
  C 82.66 40.89 84.87 38.05 83.41 34.57
  Q 81.32 29.62 76.53 30.11
  C 69.69 30.84 70.47 37.69 70.70 43.93
  Z
  M 73.61 49.73
  L 76.33 52.12
  A 3.46 3.42 -24.1 0 0 78.60 52.97
  L 93.58 52.97
  A 3.52 3.49 19.4 0 0 96.31 51.68
  C 102.15 44.43 92.45 36.37 86.46 42.86
  Q 81.77 47.94 80.95 48.49
  A 2.64 2.64 0.0 0 1 79.48 48.98
  L 73.85 49.06
  A 0.38 0.38 0.0 0 0 73.61 49.73
  Z
  M 79.42 57.88
  L 79.40 70.10
  A 0.48 0.48 0.0 0 0 79.88 70.58
  L 99.94 70.61
  A 6.60 6.50 0.1 0 0 106.55 64.12
  L 106.55 63.94
  A 6.60 6.50 0.1 0 0 99.96 57.43
  L 79.90 57.40
  A 0.48 0.48 0.0 0 0 79.42 57.88
  Z
  M 73.63 78.28
  A 0.38 0.38 0.0 0 0 73.87 78.95
  L 79.49 79.03
  A 2.64 2.64 0.0 0 1 80.96 79.52
  Q 81.78 80.07 86.47 85.16
  C 92.44 91.65 102.15 83.61 96.32 76.36
  A 3.51 3.49 -19.3 0 0 93.59 75.06
  L 78.61 75.05
  A 3.46 3.42 24.2 0 0 76.35 75.89
  L 73.63 78.28
  Z
  M 70.73 84.07
  C 70.49 90.32 69.72 97.17 76.55 97.90
  Q 81.34 98.40 83.44 93.44
  C 84.90 89.96 82.69 87.12 80.14 84.88
  C 77.88 82.90 77.20 83.44 74.24 83.40
  Q 72.48 83.38 71.32 83.47
  A 0.63 0.63 0.0 0 0 70.73 84.07
  Z"
/>
<path fill="#c655c3" d="
  M 56.75 44.55
  Q 55.58 44.64 53.82 44.62
  C 50.85 44.59 50.17 45.13 47.90 43.15
  C 45.34 40.91 43.12 38.07 44.58 34.58
  Q 46.67 29.61 51.47 30.10
  C 58.32 30.81 57.56 37.68 57.34 43.94
  A 0.63 0.63 0.0 0 1 56.75 44.55
  Z"
/>
<path fill="#bf50cf" d="
  M 70.70 43.93
  C 70.47 37.69 69.69 30.84 76.53 30.11
  Q 81.32 29.62 83.41 34.57
  C 84.87 38.05 82.66 40.89 80.11 43.13
  C 77.85 45.11 77.17 44.57 74.21 44.61
  Q 72.45 44.63 71.29 44.54
  A 0.63 0.63 0.0 0 1 70.70 43.93
  Z"
/>
<path fill="#d35fab" d="
  M 54.42 49.75
  L 51.70 52.14
  A 3.46 3.42 24.1 0 1 49.43 52.99
  L 34.43 52.99
  A 3.52 3.50 -19.3 0 1 31.70 51.69
  C 25.86 44.43 35.57 36.37 41.56 42.87
  Q 46.26 47.96 47.08 48.51
  A 2.65 2.65 0.0 0 0 48.55 49.00
  L 54.18 49.08
  A 0.38 0.38 0.0 0 1 54.42 49.75
  Z"
/>
<path fill="#b64cdc" d="
  M 73.61 49.73
  A 0.38 0.38 0.0 0 1 73.85 49.06
  L 79.48 48.98
  A 2.64 2.64 0.0 0 0 80.95 48.49
  Q 81.77 47.94 86.46 42.86
  C 92.45 36.37 102.15 44.43 96.31 51.68
  A 3.52 3.49 19.4 0 1 93.58 52.97
  L 78.60 52.97
  A 3.46 3.42 -24.1 0 1 76.33 52.12
  L 73.61 49.73
  Z"
/>
<path fill="#6260ed" d="
  M 128.00 45.61
  L 128.00 71.77
  C 115.75 85.28 101.81 99.11 80.18 120.66
  Q 76.96 123.86 75.22 128.00
  L 48.73 128.00
  Q 50.58 124.17 51.74 122.99
  C 58.47 116.16 66.46 108.34 71.10 100.65
  Q 75.96 103.59 81.01 101.78
  C 84.32 100.60 87.70 97.16 88.07 93.19
  Q 88.14 92.42 88.25 92.16
  A 0.70 0.70 0.0 0 1 89.03 91.71
  Q 95.17 92.74 98.87 89.19
  Q 104.86 83.44 101.38 75.70
  A 0.46 0.45 -19.8 0 1 101.68 75.08
  Q 112.41 72.23 110.78 60.96
  C 114.55 60.53 115.68 58.53 118.02 56.03
  C 119.70 54.24 121.70 53.21 122.96 50.58
  Q 123.63 49.20 128.00 45.61
  Z"
/>
<path fill="#d35fab" d="
  M 25.28 47.69
  Q 25.54 49.98 26.83 52.63
  A 0.20 0.20 0.0 0 1 26.69 52.91
  C 19.02 54.36 14.49 62.04 18.30 69.41
  L 0.00 86.50
  L 0.00 72.52
  L 7.23 65.68
  A 1.54 1.21 -11.7 0 0 7.39 65.49
  Q 9.93 62.21 12.63 60.16
  A 2.77 2.70 87.4 0 0 13.35 59.35
  L 19.35 48.94
  A 0.13 0.13 0.0 0 1 19.53 48.90
  L 20.01 49.18
  A 0.36 0.36 0.0 0 1 20.13 49.70
  L 16.09 55.37
  A 0.19 0.18 -55.9 0 0 16.13 55.63
  L 16.35 55.79
  A 0.12 0.11 -47.0 0 0 16.49 55.78
  C 18.77 53.36 21.21 49.13 25.28 47.69
  Z"
/>
<path fill="#c655c3" d="
  M 48.60 70.11
  A 0.51 0.51 0.0 0 1 48.09 70.62
  L 28.21 70.62
  A 6.83 6.58 -0.0 0 1 21.38 64.04
  L 21.38 63.96
  A 6.83 6.58 -0.0 0 1 28.21 57.38
  L 48.09 57.38
  A 0.51 0.51 0.0 0 1 48.60 57.89
  L 48.60 70.11
  Z"
/>
<path fill="#8f54e5" d="
  M 79.42 57.88
  A 0.48 0.48 0.0 0 1 79.90 57.40
  L 99.96 57.43
  A 6.60 6.50 0.1 0 1 106.55 63.94
  L 106.55 64.12
  A 6.60 6.50 0.1 0 1 99.94 70.61
  L 79.88 70.58
  A 0.48 0.48 0.0 0 1 79.40 70.10
  L 79.42 57.88
  Z"
/>
<path fill="#bf50cf" d="
  M 18.30 69.41
  Q 21.21 73.97 26.44 75.13
  A 0.42 0.42 0.0 0 1 26.72 75.74
  Q 24.05 80.85 26.38 85.52
  Q 30.12 93.04 39.11 91.79
  A 0.60 0.60 0.0 0 1 39.79 92.31
  Q 40.16 95.25 41.28 97.15
  Q 37.26 100.96 33.27 104.74
  C 25.65 111.98 18.95 120.29 11.78 128.00
  L 9.30 128.00
  Q 2.03 124.44 0.00 116.54
  L 0.00 86.50
  L 18.30 69.41
  Z"
/>
<path fill="#4069f4" d="
  M 128.00 71.77
  L 128.00 99.13
  C 125.00 100.50 122.49 102.21 121.68 105.53
  A 0.49 0.48 -81.2 0 1 121.19 105.90
  Q 121.03 105.89 121.02 105.89
  A 1.40 1.39 19.4 0 0 120.11 106.32
  Q 117.20 109.37 109.17 117.53
  Q 105.02 121.74 102.64 128.00
  L 75.22 128.00
  Q 76.96 123.86 80.18 120.66
  C 101.81 99.11 115.75 85.28 128.00 71.77
  Z"
/>
<path fill="#bf50cf" d="
  M 54.40 78.25
  A 0.38 0.38 0.0 0 1 54.16 78.92
  L 48.54 79.01
  A 2.65 2.65 0.0 0 0 47.07 79.50
  Q 46.25 80.05 41.56 85.14
  C 35.57 91.64 25.86 83.59 31.69 76.33
  A 3.52 3.49 19.3 0 1 34.42 75.03
  L 49.41 75.02
  A 3.46 3.42 -24.2 0 1 51.68 75.87
  L 54.40 78.25
  Z"
/>
<path fill="#8f54e5" d="
  M 73.63 78.28
  L 76.35 75.89
  A 3.46 3.42 24.2 0 1 78.61 75.05
  L 93.59 75.06
  A 3.51 3.49 -19.3 0 1 96.32 76.36
  C 102.15 83.61 92.44 91.65 86.47 85.16
  Q 81.78 80.07 80.96 79.52
  A 2.64 2.64 0.0 0 0 79.49 79.03
  L 73.87 78.95
  A 0.38 0.38 0.0 0 1 73.63 78.28
  Z"
/>
<path fill="#8f54e5" d="
  M 66.04 79.40
  Q 66.08 85.69 66.12 90.99
  Q 66.16 97.10 71.10 100.65
  C 66.46 108.34 58.47 116.16 51.74 122.99
  Q 50.58 124.17 48.73 128.00
  L 11.78 128.00
  C 18.95 120.29 25.65 111.98 33.27 104.74
  Q 37.26 100.96 41.28 97.15
  C 44.78 102.61 52.00 104.10 57.22 100.46
  Q 61.30 97.61 61.61 92.24
  Q 61.97 85.92 61.80 78.94
  Q 62.54 81.10 64.00 81.12
  Q 65.32 81.14 66.04 79.40
  Z"
/>
<path fill="#8f54e5" d="
  M 70.73 84.07
  A 0.63 0.63 0.0 0 1 71.32 83.47
  Q 72.48 83.38 74.24 83.40
  C 77.20 83.44 77.88 82.90 80.14 84.88
  C 82.69 87.12 84.90 89.96 83.44 93.44
  Q 81.34 98.40 76.55 97.90
  C 69.72 97.17 70.49 90.32 70.73 84.07
  Z"
/>
<path fill="#b64cdc" d="
  M 57.32 84.06
  C 57.56 90.31 58.34 97.17 51.50 97.90
  Q 46.70 98.40 44.60 93.44
  C 43.13 89.96 45.35 87.12 47.90 84.87
  C 50.16 82.89 50.84 83.43 53.81 83.39
  Q 55.56 83.36 56.73 83.45
  A 0.63 0.63 0.0 0 1 57.32 84.06
  Z"
/>
<path fill="#2171fa" d="
  M 128.00 99.13
  L 128.00 119.24
  Q 125.93 125.13 119.70 128.00
  L 102.64 128.00
  Q 105.02 121.74 109.17 117.53
  Q 117.20 109.37 120.11 106.32
  A 1.40 1.39 19.4 0 1 121.02 105.89
  Q 121.03 105.89 121.19 105.90
  A 0.49 0.48 -81.2 0 0 121.68 105.53
  C 122.49 102.21 125.00 100.50 128.00 99.13
  Z"
/>
</svg>