<?xml version="1.0" encoding="UTF-8" standalone="no"?>
<!DOCTYPE svg PUBLIC "-//W3C//DTD SVG 1.1//EN" "http://www.w3.org/Graphics/SVG/1.1/DTD/svg11.dtd">
<svg xmlns="http://www.w3.org/2000/svg" version="1.1" viewBox="0.00 0.00 512.00 512.00" width="128" height="128">
<g stroke-width="2.00" fill="none" stroke-linecap="butt">
<path stroke="#a0e5db" vector-effect="non-scaling-stroke" d="
  M 247.90 273.79
  Q 247.73 272.93 246.28 272.97"
/>
<path stroke="#3fc1af" vector-effect="non-scaling-stroke" d="
  M 246.28 272.97
  Q 255.24 270.61 264.21 272.29
  A 0.45 0.45 0.0 0 1 264.56 272.84
  Q 264.34 273.72 264.78 274.61
  C 267.69 280.46 272.49 286.94 277.62 293.05
  Q 302.89 323.23 327.31 358.66
  C 334.15 368.58 341.13 375.68 353.01 378.32
  Q 362.71 380.48 374.44 381.91
  Q 380.36 382.63 427.31 388.79
  Q 437.72 390.16 447.66 388.27
  A 2.88 2.87 72.9 0 0 449.76 384.30
  C 444.29 371.68 437.09 362.10 427.76 348.42
  C 420.59 337.91 411.25 328.57 404.97 318.01
  Q 403.19 315.01 399.89 310.75
  Q 393.58 302.59 388.20 295.22
  C 384.30 289.87 377.26 280.13 389.42 278.58
  Q 393.78 278.03 397.65 278.16
  C 417.71 278.88 436.66 279.65 455.69 276.08
  Q 465.79 274.19 479.79 267.77
  A 3.01 2.92 -81.6 0 0 480.85 266.96
  L 482.27 265.21
  A 1.44 1.43 -25.9 0 0 482.60 264.27
  Q 482.30 245.89 480.72 231.47
  Q 476.81 195.74 473.09 167.18
  Q 471.13 152.13 467.84 139.78
  A 4.50 4.48 2.3 0 0 465.00 136.71
  C 444.58 129.47 423.94 127.82 402.75 129.15
  Q 365.67 131.47 333.39 151.38
  C 325.64 156.16 318.30 162.00 311.43 166.67
  C 301.27 173.58 293.52 169.53 283.93 164.87
  C 267.28 156.77 249.66 155.61 232.39 162.35
  C 219.85 167.24 210.80 173.91 198.28 165.04
  Q 192.92 161.25 182.41 154.07
  Q 151.23 132.78 112.44 129.34
  C 89.54 127.31 66.16 128.86 45.09 137.63
  A 2.26 2.25 84.4 0 0 43.76 139.25
  Q 40.26 156.34 38.21 172.64
  Q 32.76 215.99 30.46 240.39
  Q 29.84 246.99 29.38 265.03
  A 1.07 1.06 26.1 0 0 29.63 265.74
  L 33.34 270.00
  A 0.88 0.86 -11.9 0 0 33.70 270.23
  C 61.57 279.85 88.91 278.87 117.96 277.21
  C 122.91 276.93 135.00 276.43 132.20 284.81
  Q 130.52 289.86 125.70 295.91
  Q 109.25 316.58 101.08 327.08
  Q 80.02 354.18 63.32 381.32
  A 0.99 0.96 56.0 0 0 63.19 382.04
  Q 64.05 386.58 66.86 389.72
  A 1.13 1.12 -22.0 0 0 67.77 390.10
  C 93.68 389.06 115.82 385.64 144.31 381.48
  Q 164.07 378.58 177.77 370.32
  A 2.10 2.09 2.2 0 0 178.42 369.72
  C 183.92 362.19 189.03 353.14 195.47 345.10
  Q 196.12 344.29 213.85 319.66
  C 218.44 313.29 223.23 308.75 228.29 301.93
  Q 233.18 295.33 244.62 282.13
  Q 247.38 278.95 247.90 273.79"
/>
<path stroke="#9edbd2" vector-effect="non-scaling-stroke" d="
  M 246.28 272.97
  Q 226.16 269.73 212.05 255.31
  A 1.36 1.35 55.5 0 0 210.51 255.02
  Q 180.91 268.76 148.34 276.22
  A 1.43 1.40 -76.8 0 0 147.55 276.72
  C 119.11 312.02 92.59 347.62 65.03 385.82
  Q 64.81 386.11 64.85 386.46
  A 0.31 0.31 0.0 0 0 65.20 386.74
  L 170.48 372.29
  A 1.69 1.67 12.8 0 0 171.66 371.56
  Q 192.91 340.18 216.39 310.13
  Q 232.74 289.20 247.90 273.79"
/>
<path stroke="#9edbd2" vector-effect="non-scaling-stroke" d="
  M 204.50 178.26
  Q 202.66 176.26 198.23 172.34
  C 175.67 152.41 148.27 138.53 118.44 134.67
  Q 110.53 133.65 99.99 133.71
  C 85.91 133.79 72.15 134.36 58.82 137.07
  Q 52.78 138.30 48.01 140.98
  A 1.21 1.20 78.7 0 0 47.41 141.89
  L 33.31 263.89
  A 1.80 1.80 0.0 0 0 34.24 265.68
  C 41.55 269.66 50.80 271.40 59.01 272.27
  Q 105.90 277.23 152.69 265.44
  Q 178.61 258.91 204.12 247.71
  A 1.11 1.11 0.0 0 0 204.59 246.06
  C 190.97 226.06 191.44 199.32 204.59 179.30
  A 0.85 0.84 -50.3 0 0 204.50 178.26"
/>
<path stroke="#9edbd2" vector-effect="non-scaling-stroke" d="
  M 306.49 179.97
  C 319.30 200.28 319.50 225.62 306.21 245.85
  A 0.87 0.87 0.0 0 0 306.58 247.12
  C 351.04 267.13 399.99 277.25 448.49 272.55
  C 458.39 271.59 470.05 269.43 478.21 263.49
  A 1.22 1.22 0.0 0 0 478.70 262.37
  L 464.57 142.18
  A 1.55 1.55 0.0 0 0 463.81 141.02
  C 457.69 137.40 449.91 136.19 442.71 135.35
  Q 423.42 133.11 402.53 133.94
  C 366.71 135.37 331.70 153.77 306.58 179.13
  A 0.69 0.68 51.6 0 0 306.49 179.97"
/>
<path stroke="#9edbd2" vector-effect="non-scaling-stroke" d="
  M 306.84 212.71
  A 51.50 51.50 0.0 0 0 255.34 161.21
  A 51.50 51.50 0.0 0 0 203.84 212.71
  A 51.50 51.50 0.0 0 0 255.34 264.21
  A 51.50 51.50 0.0 0 0 306.84 212.71"
/>
<path stroke="#9edbd2" vector-effect="non-scaling-stroke" d="
  M 449.00 386.39
  C 430.21 360.54 414.72 338.97 396.49 315.49
  C 381.57 296.27 376.46 289.36 366.33 277.15
  A 1.47 1.46 76.5 0 0 365.52 276.65
  Q 331.41 269.28 300.20 254.55
  A 0.87 0.86 37.0 0 0 299.25 254.68
  C 297.46 256.24 295.70 258.27 293.73 259.87
  Q 281.44 269.88 265.56 272.72
  A 0.47 0.47 0.0 0 0 265.32 273.53
  Q 274.55 282.22 284.24 294.03
  Q 313.79 330.06 341.66 371.26
  A 2.61 2.61 0.0 0 0 343.45 372.37
  L 448.76 386.78
  A 0.25 0.25 0.0 0 0 449.00 386.39"
/>
<path stroke="#9edbd2" vector-effect="non-scaling-stroke" d="
  M 255.89 237.68
  Q 260.92 237.68 264.45 238.12
  A 0.69 0.69 0.0 0 0 265.19 237.65
  Q 265.31 237.31 265.18 236.44
  A 0.56 0.56 0.0 0 0 264.51 235.98
  C 261.92 236.51 259.12 235.82 259.04 232.53
  Q 258.92 227.02 258.90 190.54
  A 0.40 0.40 0.0 0 1 259.30 190.14
  Q 264.40 190.14 268.25 190.23
  C 274.36 190.37 275.48 194.44 276.19 199.41
  A 1.08 1.08 0.0 0 0 277.26 200.34
  L 277.62 200.34
  A 0.80 0.80 0.0 0 0 278.42 199.54
  L 278.42 187.87
  A 0.67 0.67 0.0 0 0 277.72 187.20
  Q 264.99 187.58 255.83 187.59
  Q 246.67 187.61 233.93 187.25
  A 0.67 0.67 0.0 0 0 233.23 187.93
  L 233.26 199.60
  A 0.80 0.80 0.0 0 0 234.06 200.40
  L 234.42 200.40
  A 1.08 1.08 0.0 0 0 235.49 199.46
  C 236.19 194.49 237.30 190.42 243.41 190.26
  Q 247.26 190.16 252.36 190.15
  A 0.40 0.40 0.0 0 1 252.76 190.55
  Q 252.83 227.03 252.73 232.54
  C 252.66 235.83 249.86 236.53 247.27 236.00
  A 0.56 0.56 0.0 0 0 246.60 236.46
  Q 246.47 237.33 246.59 237.67
  A 0.69 0.69 0.0 0 0 247.33 238.14
  Q 250.86 237.69 255.89 237.68"
/>
</g>
<path fill="#41cab7" d="
  M 484.10 0.00
  Q 500.93 1.99 508.42 17.04
  Q 511.47 23.17 511.47 29.25
  Q 511.50 255.87 511.49 482.50
  Q 511.49 490.11 507.58 496.78
  Q 500.07 509.61 484.47 512.00
  L 28.02 512.00
  C 15.93 510.34 5.67 503.04 2.01 491.36
  Q 0.45 486.40 0.46 474.98
  Q 0.53 371.04 0.48 29.75
  C 0.47 13.83 12.32 2.16 27.49 0.00
  L 484.10 0.00
  Z
  M 247.90 273.79
  Q 247.73 272.93 246.28 272.97
  Q 255.24 270.61 264.21 272.29
  A 0.45 0.45 0.0 0 1 264.56 272.84
  Q 264.34 273.72 264.78 274.61
  C 267.69 280.46 272.49 286.94 277.62 293.05
  Q 302.89 323.23 327.31 358.66
  C 334.15 368.58 341.13 375.68 353.01 378.32
  Q 362.71 380.48 374.44 381.91
  Q 380.36 382.63 427.31 388.79
  Q 437.72 390.16 447.66 388.27
  A 2.88 2.87 72.9 0 0 449.76 384.30
  C 444.29 371.68 437.09 362.10 427.76 348.42
  C 420.59 337.91 411.25 328.57 404.97 318.01
  Q 403.19 315.01 399.89 310.75
  Q 393.58 302.59 388.20 295.22
  C 384.30 289.87 377.26 280.13 389.42 278.58
  Q 393.78 278.03 397.65 278.16
  C 417.71 278.88 436.66 279.65 455.69 276.08
  Q 465.79 274.19 479.79 267.77
  A 3.01 2.92 -81.6 0 0 480.85 266.96
  L 482.27 265.21
  A 1.44 1.43 -25.9 0 0 482.60 264.27
  Q 482.30 245.89 480.72 231.47
  Q 476.81 195.74 473.09 167.18
  Q 471.13 152.13 467.84 139.78
  A 4.50 4.48 2.3 0 0 465.00 136.71
  C 444.58 129.47 423.94 127.82 402.75 129.15
  Q 365.67 131.47 333.39 151.38
  C 325.64 156.16 318.30 162.00 311.43 166.67
  C 301.27 173.58 293.52 169.53 283.93 164.87
  C 267.28 156.77 249.66 155.61 232.39 162.35
  C 219.85 167.24 210.80 173.91 198.28 165.04
  Q 192.92 161.25 182.41 154.07
  Q 151.23 132.78 112.44 129.34
  C 89.54 127.31 66.16 128.86 45.09 137.63
  A 2.26 2.25 84.4 0 0 43.76 139.25
  Q 40.26 156.34 38.21 172.64
  Q 32.76 215.99 30.46 240.39
  Q 29.84 246.99 29.38 265.03
  A 1.07 1.06 26.1 0 0 29.63 265.74
  L 33.34 270.00
  A 0.88 0.86 -11.9 0 0 33.70 270.23
  C 61.57 279.85 88.91 278.87 117.96 277.21
  C 122.91 276.93 135.00 276.43 132.20 284.81
  Q 130.52 289.86 125.70 295.91
  Q 109.25 316.58 101.08 327.08
  Q 80.02 354.18 63.32 381.32
  A 0.99 0.96 56.0 0 0 63.19 382.04
  Q 64.05 386.58 66.86 389.72
  A 1.13 1.12 -22.0 0 0 67.77 390.10
  C 93.68 389.06 115.82 385.64 144.31 381.48
  Q 164.07 378.58 177.77 370.32
  A 2.10 2.09 2.2 0 0 178.42 369.72
  C 183.92 362.19 189.03 353.14 195.47 345.10
  Q 196.12 344.29 213.85 319.66
  C 218.44 313.29 223.23 308.75 228.29 301.93
  Q 233.18 295.33 244.62 282.13
  Q 247.38 278.95 247.90 273.79
  Z"
/>
<path fill="#3cb7a6" d="
  M 246.28 272.97
  Q 226.16 269.73 212.05 255.31
  A 1.36 1.35 55.5 0 0 210.51 255.02
  Q 180.91 268.76 148.34 276.22
  A 1.43 1.40 -76.8 0 0 147.55 276.72
  C 119.11 312.02 92.59 347.62 65.03 385.82
  Q 64.81 386.11 64.85 386.46
  A 0.31 0.31 0.0 0 0 65.20 386.74
  L 170.48 372.29
  A 1.69 1.67 12.8 0 0 171.66 371.56
  Q 192.91 340.18 216.39 310.13
  Q 232.74 289.20 247.90 273.79
  Q 247.38 278.95 244.62 282.13
  Q 233.18 295.33 228.29 301.93
  C 223.23 308.75 218.44 313.29 213.85 319.66
  Q 196.12 344.29 195.47 345.10
  C 189.03 353.14 183.92 362.19 178.42 369.72
  A 2.10 2.09 2.2 0 1 177.77 370.32
  Q 164.07 378.58 144.31 381.48
  C 115.82 385.64 93.68 389.06 67.77 390.10
  A 1.13 1.12 -22.0 0 1 66.86 389.72
  Q 64.05 386.58 63.19 382.04
  A 0.99 0.96 56.0 0 1 63.32 381.32
  Q 80.02 354.18 101.08 327.08
  Q 109.25 316.58 125.70 295.91
  Q 130.52 289.86 132.20 284.81
  C 135.00 276.43 122.91 276.93 117.96 277.21
  C 88.91 278.87 61.57 279.85 33.70 270.23
  A 0.88 0.86 -11.9 0 1 33.34 270.00
  L 29.63 265.74
  A 1.07 1.06 26.1 0 1 29.38 265.03
  Q 29.84 246.99 30.46 240.39
  Q 32.76 215.99 38.21 172.64
  Q 40.26 156.34 43.76 139.25
  A 2.26 2.25 84.4 0 1 45.09 137.63
  C 66.16 128.86 89.54 127.31 112.44 129.34
  Q 151.23 132.78 182.41 154.07
  Q 192.92 161.25 198.28 165.04
  C 210.80 173.91 219.85 167.24 232.39 162.35
  C 249.66 155.61 267.28 156.77 283.93 164.87
  C 293.52 169.53 301.27 173.58 311.43 166.67
  C 318.30 162.00 325.64 156.16 333.39 151.38
  Q 365.67 131.47 402.75 129.15
  C 423.94 127.82 444.58 129.47 465.00 136.71
  A 4.50 4.48 2.3 0 1 467.84 139.78
  Q 471.13 152.13 473.09 167.18
  Q 476.81 195.74 480.72 231.47
  Q 482.30 245.89 482.60 264.27
  A 1.44 1.43 -25.9 0 1 482.27 265.21
  L 480.85 266.96
  A 3.01 2.92 -81.6 0 1 479.79 267.77
  Q 465.79 274.19 455.69 276.08
  C 436.66 279.65 417.71 278.88 397.65 278.16
  Q 393.78 278.03 389.42 278.58
  C 377.26 280.13 384.30 289.87 388.20 295.22
  Q 393.58 302.59 399.89 310.75
  Q 403.19 315.01 404.97 318.01
  C 411.25 328.57 420.59 337.91 427.76 348.42
  C 437.09 362.10 444.29 371.68 449.76 384.30
  A 2.88 2.87 72.9 0 1 447.66 388.27
  Q 437.72 390.16 427.31 388.79
  Q 380.36 382.63 374.44 381.91
  Q 362.71 380.48 353.01 378.32
  C 341.13 375.68 334.15 368.58 327.31 358.66
  Q 302.89 323.23 277.62 293.05
  C 272.49 286.94 267.69 280.46 264.78 274.61
  Q 264.34 273.72 264.56 272.84
  A 0.45 0.45 0.0 0 0 264.21 272.29
  Q 255.24 270.61 246.28 272.97
  Z
  M 204.50 178.26
  Q 202.66 176.26 198.23 172.34
  C 175.67 152.41 148.27 138.53 118.44 134.67
  Q 110.53 133.65 99.99 133.71
  C 85.91 133.79 72.15 134.36 58.82 137.07
  Q 52.78 138.30 48.01 140.98
  A 1.21 1.20 78.7 0 0 47.41 141.89
  L 33.31 263.89
  A 1.80 1.80 0.0 0 0 34.24 265.68
  C 41.55 269.66 50.80 271.40 59.01 272.27
  Q 105.90 277.23 152.69 265.44
  Q 178.61 258.91 204.12 247.71
  A 1.11 1.11 0.0 0 0 204.59 246.06
  C 190.97 226.06 191.44 199.32 204.59 179.30
  A 0.85 0.84 -50.3 0 0 204.50 178.26
  Z
  M 306.49 179.97
  C 319.30 200.28 319.50 225.62 306.21 245.85
  A 0.87 0.87 0.0 0 0 306.58 247.12
  C 351.04 267.13 399.99 277.25 448.49 272.55
  C 458.39 271.59 470.05 269.43 478.21 263.49
  A 1.22 1.22 0.0 0 0 478.70 262.37
  L 464.57 142.18
  A 1.55 1.55 0.0 0 0 463.81 141.02
  C 457.69 137.40 449.91 136.19 442.71 135.35
  Q 423.42 133.11 402.53 133.94
  C 366.71 135.37 331.70 153.77 306.58 179.13
  A 0.69 0.68 51.6 0 0 306.49 179.97
  Z
  M 306.84 212.71
  A 51.50 51.50 0.0 0 0 255.34 161.21
  A 51.50 51.50 0.0 0 0 203.84 212.71
  A 51.50 51.50 0.0 0 0 255.34 264.21
  A 51.50 51.50 0.0 0 0 306.84 212.71
  Z
  M 449.00 386.39
  C 430.21 360.54 414.72 338.97 396.49 315.49
  C 381.57 296.27 376.46 289.36 366.33 277.15
  A 1.47 1.46 76.5 0 0 365.52 276.65
  Q 331.41 269.28 300.20 254.55
  A 0.87 0.86 37.0 0 0 299.25 254.68
  C 297.46 256.24 295.70 258.27 293.73 259.87
  Q 281.44 269.88 265.56 272.72
  A 0.47 0.47 0.0 0 0 265.32 273.53
  Q 274.55 282.22 284.24 294.03
  Q 313.79 330.06 341.66 371.26
  A 2.61 2.61 0.0 0 0 343.45 372.37
  L 448.76 386.78
  A 0.25 0.25 0.0 0 0 449.00 386.39
  Z"
/>
<path fill="#fffffe" d="
  M 204.59 179.30
  C 191.44 199.32 190.97 226.06 204.59 246.06
  A 1.11 1.11 0.0 0 1 204.12 247.71
  Q 178.61 258.91 152.69 265.44
  Q 105.90 277.23 59.01 272.27
  C 50.80 271.40 41.55 269.66 34.24 265.68
  A 1.80 1.80 0.0 0 1 33.31 263.89
  L 47.41 141.89
  A 1.21 1.20 78.7 0 1 48.01 140.98
  Q 52.78 138.30 58.82 137.07
  C 72.15 134.36 85.91 133.79 99.99 133.71
  Q 110.53 133.65 118.44 134.67
  C 148.27 138.53 175.67 152.41 198.23 172.34
  Q 202.66 176.26 204.50 178.26
  A 0.85 0.84 -50.3 0 1 204.59 179.30
  Z"
/>
<path fill="#fffffe" d="
  M 306.49 179.97
  A 0.69 0.68 51.6 0 1 306.58 179.13
  C 331.70 153.77 366.71 135.37 402.53 133.94
  Q 423.42 133.11 442.71 135.35
  C 449.91 136.19 457.69 137.40 463.81 141.02
  A 1.55 1.55 0.0 0 1 464.57 142.18
  L 478.70 262.37
  A 1.22 1.22 0.0 0 1 478.21 263.49
  C 470.05 269.43 458.39 271.59 448.49 272.55
  C 399.99 277.25 351.04 267.13 306.58 247.12
  A 0.87 0.87 0.0 0 1 306.21 245.85
  C 319.50 225.62 319.30 200.28 306.49 179.97
  Z"
/>
<path fill="#fffffe" d="
  M 306.84 212.71
  A 51.50 51.50 0.0 0 1 255.34 264.21
  A 51.50 51.50 0.0 0 1 203.84 212.71
  A 51.50 51.50 0.0 0 1 255.34 161.21
  A 51.50 51.50 0.0 0 1 306.84 212.71
  Z
  M 255.89 237.68
  Q 260.92 237.68 264.45 238.12
  A 0.69 0.69 0.0 0 0 265.19 237.65
  Q 265.31 237.31 265.18 236.44
  A 0.56 0.56 0.0 0 0 264.51 235.98
  C 261.92 236.51 259.12 235.82 259.04 232.53
  Q 258.92 227.02 258.90 190.54
  A 0.40 0.40 0.0 0 1 259.30 190.14
  Q 264.40 190.14 268.25 190.23
  C 274.36 190.37 275.48 194.44 276.19 199.41
  A 1.08 1.08 0.0 0 0 277.26 200.34
  L 277.62 200.34
  A 0.80 0.80 0.0 0 0 278.42 199.54
  L 278.42 187.87
  A 0.67 0.67 0.0 0 0 277.72 187.20
  Q 264.99 187.58 255.83 187.59
  Q 246.67 187.61 233.93 187.25
  A 0.67 0.67 0.0 0 0 233.23 187.93
  L 233.26 199.60
  A 0.80 0.80 0.0 0 0 234.06 200.40
  L 234.42 200.40
  A 1.08 1.08 0.0 0 0 235.49 199.46
  C 236.19 194.49 237.30 190.42 243.41 190.26
  Q 247.26 190.16 252.36 190.15
  A 0.40 0.40 0.0 0 1 252.76 190.55
  Q 252.83 227.03 252.73 232.54
  C 252.66 235.83 249.86 236.53 247.27 236.00
  A 0.56 0.56 0.0 0 0 246.60 236.46
  Q 246.47 237.33 246.59 237.67
  A 0.69 0.69 0.0 0 0 247.33 238.14
  Q 250.86 237.69 255.89 237.68
  Z"
/>
<path fill="#3cb7a6" d="
  M 255.83 187.59
  Q 264.99 187.58 277.72 187.20
  A 0.67 0.67 0.0 0 1 278.42 187.87
  L 278.42 199.54
  A 0.80 0.80 0.0 0 1 277.62 200.34
  L 277.26 200.34
  A 1.08 1.08 0.0 0 1 276.19 199.41
  C 275.48 194.44 274.36 190.37 268.25 190.23
  Q 264.40 190.14 259.30 190.14
  A 0.40 0.40 0.0 0 0 258.90 190.54
  Q 258.92 227.02 259.04 232.53
  C 259.12 235.82 261.92 236.51 264.51 235.98
  A 0.56 0.56 0.0 0 1 265.18 236.44
  Q 265.31 237.31 265.19 237.65
  A 0.69 0.69 0.0 0 1 264.45 238.12
  Q 260.92 237.68 255.89 237.68
  Q 250.86 237.69 247.33 238.14
  A 0.69 0.69 0.0 0 1 246.59 237.67
  Q 246.47 237.33 246.60 236.46
  A 0.56 0.56 0.0 0 1 247.27 236.00
  C 249.86 236.53 252.66 235.83 252.73 232.54
  Q 252.83 227.03 252.76 190.55
  A 0.40 0.40 0.0 0 0 252.36 190.15
  Q 247.26 190.16 243.41 190.26
  C 237.30 190.42 236.19 194.49 235.49 199.46
  A 1.08 1.08 0.0 0 1 234.42 200.40
  L 234.06 200.40
  A 0.80 0.80 0.0 0 1 233.26 199.60
  L 233.23 187.93
  A 0.67 0.67 0.0 0 1 233.93 187.25
  Q 246.67 187.61 255.83 187.59
  Z"
/>
<path fill="#fffffe" d="
  M 449.00 386.39
  A 0.25 0.25 0.0 0 1 448.76 386.78
  L 343.45 372.37
  A 2.61 2.61 0.0 0 1 341.66 371.26
  Q 313.79 330.06 284.24 294.03
  Q 274.55 282.22 265.32 273.53
  A 0.47 0.47 0.0 0 1 265.56 272.72
  Q 281.44 269.88 293.73 259.87
  C 295.70 258.27 297.46 256.24 299.25 254.68
  A 0.87 0.86 37.0 0 1 300.20 254.55
  Q 331.41 269.28 365.52 276.65
  A 1.47 1.46 76.5 0 1 366.33 277.15
  C 376.46 289.36 381.57 296.27 396.49 315.49
  C 414.72 338.97 430.21 360.54 449.00 386.39
  Z"
/>
<path fill="#fffffe" d="
  M 246.28 272.97
  Q 247.73 272.93 247.90 273.79
  Q 232.74 289.20 216.39 310.13
  Q 192.91 340.18 171.66 371.56
  A 1.69 1.67 12.8 0 1 170.48 372.29
  L 65.20 386.74
  A 0.31 0.31 0.0 0 1 64.85 386.46
  Q 64.81 386.11 65.03 385.82
  C 92.59 347.62 119.11 312.02 147.55 276.72
  A 1.43 1.40 -76.8 0 1 148.34 276.22
  Q 180.91 268.76 210.51 255.02
  A 1.36 1.35 55.5 0 1 212.05 255.31
  Q 226.16 269.73 246.28 272.97
  Z"
/>
</svg>