<?xml version="1.0" encoding="UTF-8" standalone="no"?>
<!DOCTYPE svg PUBLIC "-//W3C//DTD SVG 1.1//EN" "http://www.w3.org/Graphics/SVG/1.1/DTD/svg11.dtd">
<svg xmlns="http://www.w3.org/2000/svg" version="1.1" viewBox="0.00 0.00 153.00 153.00" width="128" height="128">
<g stroke-width="2.00" fill="none" stroke-linecap="butt">
<path stroke="#1e1e23" stroke-opacity="0.533" vector-effect="non-scaling-stroke" d="
  M 0.92 0.00
  L 0.98 151.53
  A 0.51 0.51 0.0 0 0 1.49 152.04
  L 153.00 152.05"
/>
<path stroke="#207540" vector-effect="non-scaling-stroke" d="
  M 118.74 88.45
  C 121.08 81.49 114.16 76.60 108.71 80.49
  C 106.32 82.19 105.78 86.40 104.59 88.81
  C 96.67 104.99 76.77 110.47 61.53 101.23
  C 51.04 94.87 45.07 81.80 47.98 70.00
  C 51.81 54.48 66.73 43.65 83.04 47.14
  Q 87.15 48.02 88.56 47.62
  C 92.95 46.39 94.82 41.85 92.54 37.91
  C 91.33 35.82 88.82 34.95 86.67 34.57
  Q 67.02 31.04 51.94 41.82
  C 28.22 58.76 28.65 93.30 51.72 110.34
  C 61.75 117.75 75.20 120.36 87.41 117.46
  C 102.69 113.82 113.74 103.32 118.74 88.45"
/>
<path stroke="#207540" vector-effect="non-scaling-stroke" d="
  M 80.15 71.43
  A 3.35 3.33 46.8 0 1 75.95 71.29
  L 71.88 67.76
  A 2.44 2.39 73.4 0 0 71.00 67.27
  C 64.70 65.26 60.07 70.06 62.79 76.16
  A 3.02 2.88 -81.5 0 0 63.45 77.10
  Q 71.98 85.07 74.40 86.89
  C 77.32 89.07 80.49 88.03 83.31 85.57
  Q 90.15 79.64 97.89 72.94
  C 100.18 70.96 101.02 69.54 100.77 66.64
  Q 100.54 63.91 97.95 62.20
  C 94.31 59.80 91.16 61.86 87.99 64.69
  Q 81.98 70.04 80.15 71.43"
/>
</g>
<path fill="#4c4c52" fill-opacity="0.063" d="
  M 0.92 0.00
  L 0.98 151.53
  A 0.51 0.51 0.0 0 0 1.49 152.04
  L 153.00 152.05
  L 153.00 153.00
  L 0.00 153.00
  L 0.00 0.00
  L 0.92 0.00
  Z"
/>
<path fill="#1b1b20" d="
  M 153.00 0.00
  L 153.00 152.05
  L 1.49 152.04
  A 0.51 0.51 0.0 0 1 0.98 151.53
  L 0.92 0.00
  L 153.00 0.00
  Z
  M 118.74 88.45
  C 121.08 81.49 114.16 76.60 108.71 80.49
  C 106.32 82.19 105.78 86.40 104.59 88.81
  C 96.67 104.99 76.77 110.47 61.53 101.23
  C 51.04 94.87 45.07 81.80 47.98 70.00
  C 51.81 54.48 66.73 43.65 83.04 47.14
  Q 87.15 48.02 88.56 47.62
  C 92.95 46.39 94.82 41.85 92.54 37.91
  C 91.33 35.82 88.82 34.95 86.67 34.57
  Q 67.02 31.04 51.94 41.82
  C 28.22 58.76 28.65 93.30 51.72 110.34
  C 61.75 117.75 75.20 120.36 87.41 117.46
  C 102.69 113.82 113.74 103.32 118.74 88.45
  Z
  M 80.15 71.43
  A 3.35 3.33 46.8 0 1 75.95 71.29
  L 71.88 67.76
  A 2.44 2.39 73.4 0 0 71.00 67.27
  C 64.70 65.26 60.07 70.06 62.79 76.16
  A 3.02 2.88 -81.5 0 0 63.45 77.10
  Q 71.98 85.07 74.40 86.89
  C 77.32 89.07 80.49 88.03 83.31 85.57
  Q 90.15 79.64 97.89 72.94
  C 100.18 70.96 101.02 69.54 100.77 66.64
  Q 100.54 63.91 97.95 62.20
  C 94.31 59.80 91.16 61.86 87.99 64.69
  Q 81.98 70.04 80.15 71.43
  Z"
/>
<path fill="#25cf60" d="
  M 108.71 80.49
  C 114.16 76.60 121.08 81.49 118.74 88.45
  C 113.74 103.32 102.69 113.82 87.41 117.46
  C 75.20 120.36 61.75 117.75 51.72 110.34
  C 28.65 93.30 28.22 58.76 51.94 41.82
  Q 67.02 31.04 86.67 34.57
  C 88.82 34.95 91.33 35.82 92.54 37.91
  C 94.82 41.85 92.95 46.39 88.56 47.62
  Q 87.15 48.02 83.04 47.14
  C 66.73 43.65 51.81 54.48 47.98 70.00
  C 45.07 81.80 51.04 94.87 61.53 101.23
  C 76.77 110.47 96.67 104.99 104.59 88.81
  C 105.78 86.40 106.32 82.19 108.71 80.49
  Z"
/>
<path fill="#25cf60" d="
  M 80.15 71.43
  Q 81.98 70.04 87.99 64.69
  C 91.16 61.86 94.31 59.80 97.95 62.20
  Q 100.54 63.91 100.77 66.64
  C 101.02 69.54 100.18 70.96 97.89 72.94
  Q 90.15 79.64 83.31 85.57
  C 80.49 88.03 77.32 89.07 74.40 86.89
  Q 71.98 85.07 63.45 77.10
  A 3.02 2.88 -81.5 0 1 62.79 76.16
  C 60.07 70.06 64.70 65.26 71.00 67.27
  A 2.44 2.39 73.4 0 1 71.88 67.76
  L 75.95 71.29
  A 3.35 3.33 46.8 0 0 80.15 71.43
  Z"
/>
</svg>