<?xml version="1.0" encoding="UTF-8" standalone="no"?>
<!DOCTYPE svg PUBLIC "-//W3C//DTD SVG 1.1//EN" "http://www.w3.org/Graphics/SVG/1.1/DTD/svg11.dtd">
<svg xmlns="http://www.w3.org/2000/svg" version="1.1" viewBox="0.00 0.00 180.00 180.00" width="128" height="128">
<g stroke-width="2.00" fill="none" stroke-linecap="butt">
<path stroke="#e5e8b4" vector-effect="non-scaling-stroke" d="
  M 139.23 51.84
  A 8.17 8.17 0.0 0 0 131.06 43.67
  L 98.40 43.67
  A 8.17 8.17 0.0 0 0 90.23 51.84
  L 90.23 52.44
  A 8.17 8.17 0.0 0 0 98.40 60.61
  L 131.06 60.61
  A 8.17 8.17 0.0 0 0 139.23 52.44
  L 139.23 51.84"
/>
<path stroke="#d5e9ef" vector-effect="non-scaling-stroke" d="
  M 110.73 77.08
  A 8.28 8.28 0.0 0 0 102.45 68.80
  L 49.13 68.80
  A 8.28 8.28 0.0 0 0 40.85 77.08
  L 40.85 77.50
  A 8.28 8.28 0.0 0 0 49.13 85.78
  L 102.45 85.78
  A 8.28 8.28 0.0 0 0 110.73 77.50
  L 110.73 77.08"
/>
<path stroke="#f6c8a6" vector-effect="non-scaling-stroke" d="
  M 139.2596 102.3057
  A 8.28 8.28 0.0 0 0 130.9651 94.0401
  L 73.8052 94.1399
  A 8.28 8.28 0.0 0 0 65.5397 102.4343
  L 65.5404 102.8543
  A 8.28 8.28 0.0 0 0 73.8349 111.1199
  L 130.9948 111.0201
  A 8.28 8.28 0.0 0 0 139.2603 102.7257
  L 139.2596 102.3057"
/>
<path stroke="#f4b8ce" vector-effect="non-scaling-stroke" d="
  M 82.43 127.51
  A 8.11 8.11 0.0 0 0 74.32 119.40
  L 49.00 119.40
  A 8.11 8.11 0.0 0 0 40.89 127.51
  L 40.89 128.21
  A 8.11 8.11 0.0 0 0 49.00 136.32
  L 74.32 136.32
  A 8.11 8.11 0.0 0 0 82.43 128.21
  L 82.43 127.51"
/>
</g>
<path fill="#faf9f5" d="
  M 90.12 12.81
  C 96.81 12.82 103.06 13.41 108.30 13.78
  C 122.99 14.83 139.99 18.91 150.61 29.55
  C 161.23 40.19 165.28 57.19 166.30 71.89
  C 166.67 77.13 167.25 83.38 167.24 90.07
  C 167.24 96.76 166.64 103.01 166.27 108.25
  C 165.23 122.94 161.15 139.94 150.51 150.56
  C 139.87 161.18 122.86 165.24 108.17 166.25
  C 102.93 166.62 96.68 167.20 89.99 167.20
  C 83.30 167.19 77.05 166.60 71.81 166.22
  C 57.12 165.18 40.12 161.10 29.50 150.46
  C 18.87 139.82 14.82 122.81 13.80 108.12
  C 13.44 102.88 12.86 96.63 12.86 89.94
  C 12.87 83.25 13.46 77.00 13.83 71.76
  C 14.88 57.07 18.96 40.07 29.60 29.45
  C 40.24 18.83 57.24 14.77 71.94 13.75
  C 77.18 13.39 83.43 12.81 90.12 12.81
  Z
  M 139.23 51.84
  A 8.17 8.17 0.0 0 0 131.06 43.67
  L 98.40 43.67
  A 8.17 8.17 0.0 0 0 90.23 51.84
  L 90.23 52.44
  A 8.17 8.17 0.0 0 0 98.40 60.61
  L 131.06 60.61
  A 8.17 8.17 0.0 0 0 139.23 52.44
  L 139.23 51.84
  Z
  M 110.73 77.08
  A 8.28 8.28 0.0 0 0 102.45 68.80
  L 49.13 68.80
  A 8.28 8.28 0.0 0 0 40.85 77.08
  L 40.85 77.50
  A 8.28 8.28 0.0 0 0 49.13 85.78
  L 102.45 85.78
  A 8.28 8.28 0.0 0 0 110.73 77.50
  L 110.73 77.08
  Z
  M 139.2596 102.3057
  A 8.28 8.28 0.0 0 0 130.9651 94.0401
  L 73.8052 94.1399
  A 8.28 8.28 0.0 0 0 65.5397 102.4343
  L 65.5404 102.8543
  A 8.28 8.28 0.0 0 0 73.8349 111.1199
  L 130.9948 111.0201
  A 8.28 8.28 0.0 0 0 139.2603 102.7257
  L 139.2596 102.3057
  Z
  M 82.43 127.51
  A 8.11 8.11 0.0 0 0 74.32 119.40
  L 49.00 119.40
  A 8.11 8.11 0.0 0 0 40.89 127.51
  L 40.89 128.21
  A 8.11 8.11 0.0 0 0 49.00 136.32
  L 74.32 136.32
  A 8.11 8.11 0.0 0 0 82.43 128.21
  L 82.43 127.51
  Z"
/>
<rect fill="#d0d672" x="90.23" y="43.67" width="49.00" height="16.94" rx="8.17"/>
<rect fill="#b0d8e8" x="40.85" y="68.80" width="69.88" height="16.98" rx="8.28"/>
<rect fill="#f29657" x="-36.86" y="-8.49" transform="translate(102.40,102.58) rotate(-0.1)" width="73.72" height="16.98" rx="8.28"/>
<rect fill="#ed77a7" x="40.89" y="119.40" width="41.54" height="16.92" rx="8.11"/>
</svg>