<?xml version="1.0" encoding="UTF-8" standalone="no"?>
<!DOCTYPE svg PUBLIC "-//W3C//DTD SVG 1.1//EN" "http://www.w3.org/Graphics/SVG/1.1/DTD/svg11.dtd">
<svg xmlns="http://www.w3.org/2000/svg" version="1.1" viewBox="0.00 0.00 144.00 144.00" width="128" height="128">
<g stroke-width="2.00" fill="none" stroke-linecap="butt">
<path stroke="#e4f1f6" vector-effect="non-scaling-stroke" d="
  M 144.00 37.53
  C 131.79 28.24 120.05 20.70 104.96 17.90"
/>
<path stroke="#ebf3f5" vector-effect="non-scaling-stroke" d="
  M 104.96 17.90
  L 99.64 14.32
  A 1.38 1.37 -37.9 0 0 98.40 14.17
  L 83.36 19.48
  A 1.75 1.72 40.4 0 1 82.50 19.54
  L 56.65 14.57
  A 1.18 1.17 33.4 0 0 55.75 14.75
  L 51.29 17.78
  A 0.49 0.49 0.0 0 0 51.46 18.66
  L 52.46 18.89"
/>
<path stroke="#d9e0e2" vector-effect="non-scaling-stroke" d="
  M 52.46 18.89
  L 47.75 25.16
  A 0.59 0.59 0.0 0 0 48.26 26.11
  Q 49.02 26.06 49.46 25.22
  Q 51.58 21.23 53.23 21.79"
/>
<path stroke="#e6edef" vector-effect="non-scaling-stroke" d="
  M 53.23 21.79
  Q 53.31 23.86 53.77 25.22
  Q 54.19 26.47 55.52 27.02
  Q 56.69 27.51 57.62 29.30
  A 0.51 0.50 65.1 0 1 57.37 29.99
  Q 56.24 30.47 56.13 31.21
  A 0.44 0.43 -73.2 0 1 55.52 31.54
  Q 53.16 30.46 51.88 29.01
  A 0.86 0.85 -28.5 0 0 51.02 28.76
  Q 46.21 30.08 44.28 31.84
  A 1.18 1.18 0.0 0 1 43.41 32.15
  Q 41.20 32.03 39.63 33.93
  A 0.17 0.17 0.0 0 1 39.39 33.95
  L 39.19 33.78
  A 0.11 0.11 0.0 0 1 39.17 33.62
  L 44.28 27.52
  A 0.42 0.42 0.0 0 0 43.71 26.91
  Q 41.94 28.20 40.38 26.38"
/>
<path stroke="#ebf3f5" vector-effect="non-scaling-stroke" d="
  M 40.38 26.38
  Q 41.67 25.78 41.86 24.91
  A 0.46 0.46 0.0 0 0 41.09 24.47
  Q 38.10 27.32 34.04 28.72
  A 0.96 0.92 -36.4 0 1 33.21 28.61
  Q 29.47 26.04 26.25 26.39
  Q 22.57 26.80 15.69 28.92
  C 10.61 30.48 10.82 34.87 11.10 39.54"
/>
<path stroke="#e4f1f6" vector-effect="non-scaling-stroke" d="
  M 11.10 39.54
  C 10.54 42.55 9.25 44.81 10.95 48.05
  A 1.03 1.03 0.0 0 1 10.99 48.95
  Q 6.33 59.90 0.00 70.04"
/>
<path stroke="#f2f5f6" vector-effect="non-scaling-stroke" d="
  M 104.96 17.90
  C 111.89 23.17 112.88 32.23 106.42 38.45
  Q 105.77 39.07 103.12 40.96
  A 0.80 0.79 -24.7 0 0 102.81 41.77
  C 103.86 46.54 104.63 49.22 103.98 53.32"
/>
<path stroke="#d4ceca" vector-effect="non-scaling-stroke" d="
  M 103.98 53.32
  L 100.48 39.31"
/>
<path stroke="#7d7c7b" vector-effect="non-scaling-stroke" d="
  M 100.48 39.31
  Q 105.40 38.91 107.77 35.16
  Q 107.90 34.96 107.77 34.85
  Q 107.65 34.75 107.63 34.50
  Q 107.61 34.14 107.78 33.94
  Q 109.99 31.43 109.63 27.27
  A 0.16 0.09 -74.5 0 0 109.61 27.19
  L 107.33 21.73
  A 4.46 4.45 0.2 0 0 104.94 19.33
  L 100.85 17.60
  A 1.13 1.13 0.0 0 1 100.22 16.94
  Q 99.39 14.64 96.79 15.81
  Q 93.21 17.42 90.59 19.24
  A 2.85 2.85 0.0 0 1 88.78 19.73
  Q 86.17 19.55 86.15 19.57
  A 0.31 0.31 0.0 0 0 86.23 20.14
  C 88.38 20.72 87.45 24.20 90.56 24.98
  C 92.80 25.54 94.58 28.72 95.41 30.79"
/>
<path stroke="#f4f2f0" vector-effect="non-scaling-stroke" d="
  M 95.41 30.79
  Q 93.45 31.39 92.18 28.31
  A 2.32 2.32 0.0 0 0 90.52 26.91
  Q 89.51 26.69 88.50 26.00
  A 0.51 0.51 0.0 0 0 87.73 26.25
  L 87.51 26.88
  A 0.53 0.52 29.5 0 1 86.68 27.11
  C 85.16 25.86 83.56 26.74 82.00 25.89
  Q 78.02 23.74 75.58 21.20
  A 1.02 0.97 -13.8 0 0 75.09 20.92
  Q 74.17 20.70 73.65 21.83
  A 0.75 0.74 17.2 0 0 74.21 22.88
  Q 76.10 23.19 77.55 24.74
  Q 77.73 24.93 77.51 25.20
  A 0.43 0.43 0.0 0 1 76.92 25.29
  Q 75.68 24.41 75.07 24.43
  A 0.47 0.47 0.0 0 0 74.76 25.24
  Q 77.45 27.77 78.16 30.38
  A 1.99 1.98 2.4 0 0 79.41 31.73
  L 89.59 35.30
  A 0.59 0.59 0.0 0 1 89.88 36.19
  L 89.67 36.49
  A 0.93 0.92 -60.3 0 1 88.59 36.79
  Q 82.34 34.28 75.33 33.98
  Q 73.82 33.92 72.89 35.01
  A 0.75 0.75 0.0 0 1 71.97 35.19
  Q 70.39 34.35 69.71 35.67
  A 0.37 0.37 0.0 0 1 69.09 35.73
  L 66.79 32.91
  A 0.84 0.83 35.8 0 1 66.65 32.10
  Q 66.80 31.68 66.81 31.65
  A 1.36 1.33 36.0 0 0 66.64 30.65
  Q 64.96 27.93 63.77 27.51
  A 0.27 0.27 0.0 0 1 63.78 26.99
  Q 64.75 26.71 65.64 27.21
  A 0.23 0.23 0.0 0 0 65.95 27.14
  L 65.96 27.13
  A 0.29 0.29 0.0 0 0 65.84 26.86
  L 63.59 25.28
  A 0.72 0.72 0.0 0 0 62.46 25.98
  Q 62.88 28.72 64.43 30.40
  A 0.36 0.35 41.7 0 1 64.46 30.86
  L 64.26 31.15
  A 0.50 0.49 -46.2 0 1 63.46 31.17
  Q 62.83 30.33 62.67 29.55
  A 0.45 0.45 0.0 0 0 61.94 29.29
  L 60.99 30.07
  A 0.34 0.34 0.0 0 1 60.64 30.12
  Q 60.30 29.99 60.25 29.49
  A 0.37 0.36 74.7 0 1 60.45 29.13
  L 61.13 28.79
  A 0.98 0.98 0.0 0 0 61.65 27.78
  Q 61.63 27.60 61.17 25.97
  Q 61.07 25.60 61.24 25.14
  Q 61.42 24.69 61.37 24.28
  Q 61.32 23.81 60.41 23.56
  Q 59.48 23.32 58.55 23.26"
/>
<path stroke="#e7e4e2" vector-effect="non-scaling-stroke" d="
  M 58.55 23.26
  Q 58.37 22.15 57.61 21.98
  A 0.45 0.45 0.0 0 0 57.08 22.29
  Q 57.07 22.34 57.06 22.49
  A 0.71 0.70 -49.8 0 1 55.67 22.61
  Q 55.37 21.32 54.62 20.53
  A 0.25 0.25 0.0 0 1 54.74 20.12
  Q 54.91 20.08 55.04 20.39
  A 0.66 0.64 -47.6 0 0 56.25 20.32
  Q 56.58 19.37 55.60 19.02
  Q 53.63 18.32 52.46 18.89"
/>
<path stroke="#575250" vector-effect="non-scaling-stroke" d="
  M 100.48 39.31
  L 98.16 36.72"
/>
<path stroke="#777675" vector-effect="non-scaling-stroke" d="
  M 98.16 36.72
  Q 97.15 32.70 95.41 30.79"
/>
<path stroke="#252525" vector-effect="non-scaling-stroke" d="
  M 102.34 27.88
  Q 102.67 27.79 102.85 27.58
  Q 103.23 27.17 103.81 27.49
  Q 104.31 27.76 104.37 28.62
  Q 104.41 29.18 103.80 29.71
  Q 103.04 30.35 102.84 30.71
  A 0.93 0.93 0.0 0 0 102.85 31.62
  L 104.65 34.64
  A 0.50 0.50 0.0 0 1 104.18 35.40
  Q 102.70 35.29 101.70 36.29
  A 0.79 0.79 0.0 0 0 102.23 37.64
  Q 102.80 37.66 103.59 37.39
  A 1.80 1.76 10.3 0 0 104.42 36.83
  L 106.28 34.61
  A 0.76 0.70 76.3 0 0 106.39 34.41
  L 108.48 29.24
  A 1.51 1.48 47.9 0 0 108.52 28.26
  L 106.61 22.24
  A 1.06 1.06 0.0 0 0 104.62 22.15
  L 103.51 24.77
  A 0.98 0.91 87.8 0 1 103.15 25.19
  Q 101.94 25.93 101.79 27.42
  A 0.43 0.43 0.0 0 0 102.34 27.88"
/>
<path stroke="#757a7c" vector-effect="non-scaling-stroke" d="
  M 144.00 76.46
  C 142.90 74.19 141.73 72.31 140.31 69.82
  Q 136.80 63.68 130.14 61.86
  Q 129.00 61.55 128.07 60.92
  Q 127.23 60.37 125.89 60.31
  A 0.76 0.75 -87.0 0 1 125.17 59.50
  L 125.39 56.25
  A 2.71 2.54 -55.0 0 0 125.23 55.14
  Q 124.28 52.69 121.78 50.58
  A 0.79 0.75 -78.0 0 1 121.53 50.17
  L 121.16 48.61
  A 0.11 0.10 63.6 0 0 120.99 48.55
  L 119.59 49.69
  A 0.52 0.52 0.0 0 1 118.85 49.61
  L 117.77 48.29
  A 0.67 0.67 0.0 0 0 116.98 48.11
  Q 115.12 48.95 114.80 50.78
  Q 114.31 53.54 114.16 54.23
  A 0.56 0.56 0.0 0 1 113.50 54.66
  L 112.19 54.41
  A 0.14 0.14 0.0 0 0 112.03 54.58
  L 112.94 58.43
  A 0.33 0.33 0.0 0 1 112.94 58.59
  L 111.57 65.72
  A 0.61 0.60 1.9 0 1 111.04 66.21
  Q 109.39 66.43 109.48 68.28
  A 0.87 0.85 -12.4 0 1 108.93 69.12
  Q 107.55 69.66 106.04 69.55"
/>
<path stroke="#c5c5c3" vector-effect="non-scaling-stroke" d="
  M 106.04 69.55
  Q 105.31 69.17 105.38 68.26"
/>
<path stroke="#cccccb" vector-effect="non-scaling-stroke" d="
  M 105.38 68.26
  Q 106.89 60.81 103.98 53.32"
/>
<path stroke="#e1dfdd" vector-effect="non-scaling-stroke" d="
  M 58.55 23.26
  L 57.77 23.23
  A 0.34 0.34 0.0 0 0 57.53 23.83
  Q 58.51 24.68 58.67 25.99
  A 0.42 0.42 0.0 0 1 57.99 26.37
  Q 56.90 25.52 55.73 25.45
  A 0.61 0.60 4.9 0 1 55.16 24.78
  Q 55.31 23.36 53.23 21.79"
/>
<path stroke="#cec8c5" vector-effect="non-scaling-stroke" d="
  M 98.16 36.72
  L 101.04 50.04"
/>
<path stroke="#e1dfdd" vector-effect="non-scaling-stroke" d="
  M 101.04 50.04
  Q 100.23 53.97 101.23 57.55
  A 0.71 0.71 0.0 0 1 100.35 58.42
  C 95.63 57.04 91.05 57.52 86.37 56.75
  C 83.12 56.21 80.74 55.34 77.47 56.36"
/>
<path stroke="#777675" vector-effect="non-scaling-stroke" d="
  M 77.47 56.36
  Q 75.48 55.21 73.61 56.11
  Q 70.74 57.49 68.56 57.66"
/>
<path stroke="#e1dfdd" vector-effect="non-scaling-stroke" d="
  M 68.56 57.66
  Q 67.08 57.85 66.22 57.35
  A 0.49 0.49 0.0 0 1 66.36 56.46
  L 68.38 55.98
  A 1.10 1.10 0.0 0 0 68.98 54.21
  Q 66.02 50.65 64.48 46.63
  A 0.80 0.79 75.2 0 0 63.63 46.13
  Q 63.32 46.17 62.99 46.56
  A 1.06 1.03 -72.4 0 1 62.28 46.94
  Q 59.99 47.18 58.14 49.03"
/>
<path stroke="#f4f2f0" vector-effect="non-scaling-stroke" d="
  M 58.14 49.03
  Q 55.19 42.83 48.98 40.43
  A 1.07 1.06 -49.2 0 0 48.07 40.50
  Q 39.50 45.52 41.22 55.21"
/>
<path stroke="#777675" vector-effect="non-scaling-stroke" d="
  M 41.22 55.21
  Q 41.06 60.73 36.96 63.70
  C 36.29 64.19 35.62 65.20 35.59 65.94
  A 0.79 0.78 -11.5 0 0 36.71 66.68
  Q 39.41 65.41 40.79 65.36
  A 1.75 1.69 -58.6 0 0 41.55 65.16
  L 46.50 62.57"
/>
<path stroke="#f4f2f0" vector-effect="non-scaling-stroke" d="
  M 46.50 62.57
  Q 49.56 61.59 52.10 59.72
  A 0.52 0.51 -29.6 0 1 52.88 59.93
  Q 55.05 65.02 59.52 67.75
  C 64.03 70.50 67.76 72.62 72.28 70.36
  Q 74.54 69.24 75.24 66.28"
/>
<path stroke="#e1dfdd" vector-effect="non-scaling-stroke" d="
  M 75.24 66.28
  Q 78.75 65.61 80.93 64.23
  A 1.17 1.17 0.0 0 1 82.41 66.03
  C 81.05 67.45 80.24 68.02 78.06 69.15
  Q 73.91 71.31 72.79 76.08"
/>
<path stroke="#978980" vector-effect="non-scaling-stroke" d="
  M 72.79 76.08
  L 71.59 76.65
  A 0.95 0.94 49.9 0 1 70.60 76.56
  Q 69.54 75.78 68.78 76.64
  A 1.15 1.12 -72.2 0 1 68.06 77.02
  L 63.14 77.65
  A 1.04 1.03 10.2 0 0 62.36 78.19
  Q 61.76 79.31 61.92 80.74"
/>
<path stroke="#777675" vector-effect="non-scaling-stroke" d="
  M 61.92 80.74
  Q 61.30 81.75 60.51 81.61
  Q 59.56 81.44 59.55 80.32
  Q 59.55 79.12 60.70 78.17
  A 0.33 0.33 0.0 0 0 60.61 77.60
  Q 60.16 77.43 58.99 77.92
  A 1.75 1.73 44.3 0 1 57.66 77.93
  L 54.29 76.60
  A 0.63 0.62 -39.2 0 0 53.96 76.57
  Q 52.48 76.87 49.52 76.53
  Q 48.33 76.39 47.61 76.65
  A 0.63 0.62 40.9 0 0 47.70 77.85
  Q 48.43 77.99 49.79 78.77
  Q 54.83 81.63 60.29 83.49
  Q 63.28 84.50 68.28 84.56"
/>
<path stroke="#cec8c5" vector-effect="non-scaling-stroke" d="
  M 68.28 84.56
  Q 71.62 87.34 76.10 86.91
  A 0.75 0.75 0.0 0 1 76.35 88.38
  L 75.04 88.72"
/>
<path stroke="#e1dfdd" vector-effect="non-scaling-stroke" d="
  M 75.04 88.72
  Q 64.27 89.20 53.49 88.50
  Q 51.76 88.39 51.32 89.17
  Q 50.86 89.99 51.07 91.58"
/>
<path stroke="#c7c1bd" vector-effect="non-scaling-stroke" d="
  M 51.07 91.58
  Q 49.17 92.32 47.19 92.00
  A 1.99 1.87 -46.8 0 0 46.39 92.05
  L 41.26 93.44"
/>
<path stroke="#777675" vector-effect="non-scaling-stroke" d="
  M 41.26 93.44
  Q 38.18 93.54 35.29 91.54"
/>
<path stroke="#f4f2f0" vector-effect="non-scaling-stroke" d="
  M 35.29 91.54
  C 35.11 85.70 30.90 82.48 29.95 77.27
  C 29.37 74.11 29.65 70.37 29.00 66.93
  Q 26.99 56.28 26.96 55.94
  A 4.24 3.99 48.5 0 1 26.99 54.99
  Q 27.84 49.81 28.59 43.06
  Q 29.42 35.60 35.89 31.69
  A 0.56 0.56 0.0 0 0 35.66 30.65
  L 34.51 30.52
  A 0.28 0.28 0.0 0 1 34.28 30.13
  L 34.44 29.76
  A 0.55 0.54 11.6 0 1 34.96 29.42
  Q 37.81 29.43 40.38 26.38"
/>
<path stroke="#777675" vector-effect="non-scaling-stroke" d="
  M 90.94 53.03
  Q 85.45 46.74 85.15 45.92
  A 1.11 1.09 -12.4 0 0 84.04 45.22
  Q 82.58 45.33 82.61 43.89
  A 1.22 1.21 -66.4 0 0 82.28 43.03
  L 79.30 39.93
  A 1.03 1.01 -20.5 0 0 78.58 39.61
  Q 76.64 39.57 75.17 40.33
  A 1.24 1.13 -83.7 0 0 74.75 40.70
  L 72.41 44.08
  A 0.77 0.73 67.7 0 0 72.26 44.47
  C 71.73 49.73 75.07 49.97 78.37 52.35
  A 1.68 1.68 0.0 0 0 80.88 51.66
  Q 82.19 48.65 79.92 47.44
  A 0.35 0.35 0.0 0 0 79.41 47.78
  Q 79.49 48.52 79.48 48.56
  A 0.70 0.65 44.0 0 1 78.16 48.53
  Q 78.00 47.93 78.58 47.50
  A 0.39 0.39 0.0 0 0 78.26 46.80
  Q 76.54 47.24 75.34 48.10
  A 0.36 0.36 0.0 0 1 74.79 47.68
  C 77.08 41.57 83.61 46.35 83.58 50.85
  A 1.87 1.87 0.0 0 1 82.89 52.30
  L 81.36 53.55
  A 0.38 0.38 0.0 0 0 81.57 54.23
  Q 83.84 54.42 85.54 55.66
  A 1.27 1.25 59.9 0 0 86.38 55.89
  L 89.84 55.57
  A 0.34 0.33 3.4 0 0 90.14 55.31
  Q 90.20 55.07 90.21 55.03
  A 0.69 0.68 13.4 0 1 90.90 54.61
  L 94.45 54.93
  A 0.13 0.12 -69.2 0 0 94.55 54.88
  Q 94.57 54.86 94.59 54.85
  A 0.07 0.05 34.0 0 0 94.55 54.74
  Q 91.68 53.87 90.94 53.03"
/>
<path stroke="#7d7c7b" vector-effect="non-scaling-stroke" d="
  M 35.29 91.54
  Q 33.82 91.24 31.94 90.09"
/>
<path stroke="#f2f5f6" vector-effect="non-scaling-stroke" d="
  M 31.94 90.09
  C 25.43 80.01 23.96 68.04 23.89 56.22"
/>
<path stroke="#7d7c7b" vector-effect="non-scaling-stroke" d="
  M 23.89 56.22
  Q 25.86 51.47 25.83 49.77
  Q 25.75 45.14 26.83 40.73
  Q 27.52 37.88 29.09 35.32
  Q 31.19 31.87 32.53 30.39
  A 0.68 0.67 -55.4 0 0 32.34 29.33
  Q 28.62 27.43 26.00 27.60
  A 3.29 2.91 30.1 0 0 25.25 27.75
  Q 20.33 29.45 19.43 29.46
  Q 15.74 29.48 12.62 32.11
  A 0.13 0.12 -20.8 0 0 12.57 32.21
  Q 12.14 36.35 12.79 38.80
  A 2.01 1.95 44.1 0 1 12.82 39.74
  L 12.11 43.09"
/>
<path stroke="#f2f5f6" vector-effect="non-scaling-stroke" d="
  M 12.11 43.09
  L 11.40 46.38
  A 0.51 0.51 0.0 0 1 10.86 46.77
  L 10.58 46.73
  A 0.24 0.23 -85.1 0 1 10.37 46.47
  L 11.10 39.54"
/>
<path stroke="#757a7c" vector-effect="non-scaling-stroke" d="
  M 23.89 56.22
  L 23.56 53.90
  A 0.85 0.85 0.0 0 0 22.74 53.17
  Q 18.76 53.04 18.76 51.61"
/>
<path stroke="#252525" vector-effect="non-scaling-stroke" d="
  M 18.76 51.61
  L 19.77 51.99
  A 0.68 0.68 0.0 0 0 20.60 51.66
  Q 21.20 50.48 21.29 49.37
  Q 21.35 48.75 22.08 48.86
  A 0.44 0.43 -67.2 0 1 22.36 49.55
  Q 21.08 51.28 23.05 52.23
  A 0.37 0.37 0.0 0 0 23.58 51.90
  L 23.58 49.43
  A 0.92 0.91 -73.3 0 0 23.18 48.67
  L 17.68 44.85
  A 0.47 0.47 0.0 0 1 17.56 44.20
  Q 18.26 43.18 19.14 43.26
  A 0.38 0.38 0.0 0 1 19.38 43.37
  L 20.24 44.25
  A 0.42 0.41 31.0 0 0 20.93 44.08
  Q 21.60 41.91 23.28 40.36
  A 0.42 0.42 0.0 0 0 23.11 39.65
  Q 21.19 39.11 18.77 39.44
  A 1.21 1.16 56.5 0 1 17.93 39.25
  Q 17.50 38.97 17.03 38.28
  A 0.87 0.86 -40.1 0 0 15.68 38.17
  Q 13.94 40.01 13.87 41.94
  A 0.43 0.38 62.9 0 1 13.82 42.14
  L 12.94 44.04
  A 1.18 1.17 -47.8 0 0 12.99 45.13
  Q 13.39 45.82 13.66 47.31
  A 1.02 1.00 -84.1 0 0 14.26 48.06
  L 17.76 49.54
  A 0.88 0.88 0.0 0 1 18.29 50.19
  L 18.53 51.41"
/>
<path stroke="#757a7c" vector-effect="non-scaling-stroke" d="
  M 18.53 51.41
  Q 11.03 49.15 12.11 43.09"
/>
<path stroke="#a79d97" vector-effect="non-scaling-stroke" d="
  M 105.38 68.26
  L 104.83 59.74
  A 0.23 0.22 -16.5 0 0 104.49 59.56
  L 102.81 60.53
  A 0.42 0.41 75.0 0 0 102.61 60.89
  C 102.70 65.36 100.49 67.68 97.38 70.40
  A 3.64 3.58 -5.3 0 0 96.73 71.17
  Q 92.61 77.72 89.74 85.09"
/>
<path stroke="#575250" vector-effect="non-scaling-stroke" d="
  M 89.74 85.09
  L 88.54 85.49"
/>
<path stroke="#686360" vector-effect="non-scaling-stroke" d="
  M 88.54 85.49
  Q 84.37 86.64 81.77 88.59"
/>
<path stroke="#575250" vector-effect="non-scaling-stroke" d="
  M 81.77 88.59
  L 71.56 91.51
  A 4.66 4.62 -51.0 0 1 69.91 91.69
  L 64.54 91.30"
/>
<path stroke="#a79d97" vector-effect="non-scaling-stroke" d="
  M 64.54 91.30
  Q 64.25 90.97 64.23 90.59"
/>
<path stroke="#c1bbb7" vector-effect="non-scaling-stroke" d="
  M 64.23 90.59
  L 75.04 88.72"
/>
<path stroke="#575250" vector-effect="non-scaling-stroke" d="
  M 68.28 84.56
  C 73.97 84.16 79.87 80.80 84.98 77.73
  Q 86.86 76.60 87.60 75.28
  A 1.17 1.16 -82.7 0 0 86.29 73.58
  L 80.81 75.04"
/>
<path stroke="#c1bbb7" vector-effect="non-scaling-stroke" d="
  M 80.81 75.04
  Q 80.84 73.46 81.68 71.89
  A 2.87 2.77 59.7 0 0 82.00 70.58
  L 82.00 68.64
  A 0.88 0.87 88.6 0 1 82.83 67.76
  Q 83.82 67.70 84.29 66.46
  A 1.31 1.30 -81.3 0 1 85.43 65.62
  L 91.16 65.31
  A 1.20 1.20 0.0 0 1 91.77 67.57
  Q 91.70 67.60 90.70 66.87
  A 0.25 0.24 -46.0 0 0 90.40 66.88
  L 90.20 67.04
  A 0.39 0.39 0.0 0 0 90.15 67.59
  Q 91.55 69.24 92.81 69.82
  A 2.57 2.19 -60.5 0 0 95.74 68.75
  Q 96.32 67.85 95.16 66.14
  A 0.43 0.42 -40.6 0 1 95.21 65.59
  L 95.22 65.58
  A 0.46 0.46 0.0 0 1 95.87 65.57
  L 98.31 67.99
  A 0.79 0.79 0.0 0 0 99.53 66.99
  Q 99.51 66.96 98.46 65.87
  Q 98.11 65.50 98.11 65.18
  A 0.28 0.28 0.0 0 1 98.60 64.99
  Q 99.48 66.05 100.38 65.70
  A 1.06 1.06 0.0 0 0 101.01 64.95
  Q 101.31 63.60 102.32 62.70
  A 0.89 0.89 0.0 0 0 102.50 61.57
  L 101.76 60.28
  A 0.52 0.51 -9.4 0 1 102.31 59.52
  L 102.74 59.60
  A 0.60 0.59 85.9 0 0 103.41 58.82
  Q 103.32 58.54 103.11 58.26
  A 0.72 0.71 52.3 0 1 103.23 57.27
  Q 103.30 57.21 103.47 57.08
  A 0.64 0.63 60.5 0 0 103.67 56.34
  L 101.04 50.04"
/>
<path stroke="#9a9ea0" vector-effect="non-scaling-stroke" d="
  M 18.76 51.61
  Q 18.58 51.40 18.53 51.41"
/>
<path stroke="#757a7c" vector-effect="non-scaling-stroke" d="
  M 31.94 90.09
  L 30.21 92.68"
/>
<path stroke="#868b8c" vector-effect="non-scaling-stroke" d="
  M 30.21 92.68
  Q 25.99 100.27 21.53 108.49
  Q 16.02 118.66 11.95 129.48
  Q 11.09 131.77 10.78 134.00"
/>
<path stroke="#757a7c" vector-effect="non-scaling-stroke" d="
  M 10.78 134.00
  L 7.22 144.00"
/>
<path stroke="#e7e4e2" vector-effect="non-scaling-stroke" d="
  M 58.14 49.03
  Q 59.18 52.11 57.20 54.74
  A 1.48 1.44 64.4 0 0 56.90 55.63
  L 56.88 58.65"
/>
<path stroke="#7d7c7b" vector-effect="non-scaling-stroke" d="
  M 56.88 58.65
  Q 55.40 59.24 55.19 60.74
  A 1.33 1.30 -57.3 0 0 55.38 61.66
  C 58.63 66.70 62.84 68.73 68.55 70.41
  A 1.62 1.60 36.5 0 0 69.86 70.22
  C 73.67 67.75 75.61 64.52 77.95 59.32"
/>
<path stroke="#d4ceca" vector-effect="non-scaling-stroke" d="
  M 77.95 59.32
  Q 78.74 59.46 79.02 60.58"
/>
<path stroke="#e7e4e2" vector-effect="non-scaling-stroke" d="
  M 79.02 60.58
  L 75.24 66.28"
/>
<path stroke="#7d7c7b" vector-effect="non-scaling-stroke" d="
  M 46.50 62.57
  Q 47.41 61.59 50.37 59.36
  Q 52.64 57.66 55.87 52.80
  A 2.03 1.92 64.6 0 0 56.19 51.82
  C 56.31 49.35 55.12 44.97 52.34 43.92
  Q 50.86 43.36 50.21 42.88
  A 1.16 1.15 56.7 0 0 49.26 42.68
  Q 44.64 43.71 43.34 48.46
  Q 42.39 51.93 41.22 55.21"
/>
<path stroke="#7d7c7b" vector-effect="non-scaling-stroke" d="
  M 54.20 52.09
  Q 53.35 49.50 51.84 49.29
  C 46.36 48.52 43.68 58.52 49.93 58.60
  A 0.69 0.69 0.0 0 0 50.16 57.26
  C 45.39 55.67 49.49 48.75 53.54 52.52
  A 0.41 0.41 0.0 0 0 54.20 52.09"
/>
<path stroke="#6a6968" vector-effect="non-scaling-stroke" d="
  M 68.56 57.66
  Q 66.69 58.14 67.06 59.89
  A 1.34 1.34 0.0 0 1 65.50 61.49
  Q 60.31 60.53 56.88 58.65"
/>
<path stroke="#252525" vector-effect="non-scaling-stroke" d="
  M 144.00 97.11
  L 143.29 99.90
  A 0.85 0.85 0.0 0 1 141.77 100.17
  Q 140.41 98.16 137.91 98.39
  A 1.04 1.01 -21.7 0 1 137.02 98.02
  Q 136.46 97.32 135.45 97.12
  A 0.51 0.51 0.0 0 0 134.85 97.64
  Q 134.89 98.70 134.16 98.70
  A 0.95 0.86 -28.0 0 1 133.72 98.59
  Q 130.05 96.57 129.27 96.59
  Q 126.13 96.70 123.03 96.57"
/>
<path stroke="#111111" vector-effect="non-scaling-stroke" d="
  M 123.03 96.57
  Q 123.64 95.01 124.76 94.03
  A 0.84 0.83 -54.3 0 1 125.65 93.88
  L 128.03 94.88
  A 0.68 0.68 0.0 0 0 128.90 94.58
  Q 129.58 93.33 131.51 92.16
  A 1.51 1.48 84.7 0 0 132.13 91.40
  Q 132.14 91.38 132.22 91.14
  A 0.63 0.62 -69.4 0 1 133.04 90.76
  Q 135.36 91.70 138.27 91.64
  A 1.36 1.32 -65.4 0 0 139.12 91.31
  C 141.96 88.90 142.46 84.38 141.90 80.99
  Q 141.70 79.81 142.29 78.56
  C 142.94 77.20 142.04 75.92 141.39 74.45
  Q 138.65 68.22 134.78 65.20
  Q 133.08 63.88 128.18 62.48
  C 126.76 62.07 125.75 60.77 124.30 61.34
  A 0.65 0.65 0.0 0 0 124.35 62.57
  Q 126.53 63.23 127.87 64.31
  A 0.30 0.30 0.0 0 1 127.65 64.84
  L 126.83 64.74
  A 0.39 0.39 0.0 0 0 126.41 65.21
  C 126.94 67.73 128.49 68.72 129.50 70.85
  Q 130.69 73.35 133.88 75.88
  A 1.71 1.71 0.0 0 1 134.32 78.05
  L 131.41 83.36
  A 2.11 2.10 -5.5 0 1 130.92 83.95
  L 129.43 85.16
  A 1.89 1.85 -17.0 0 0 128.75 86.41
  L 128.47 88.91
  A 1.00 1.00 0.0 0 1 127.81 89.74
  C 125.37 90.59 124.35 89.50 123.81 92.86
  A 0.64 0.62 2.2 0 1 123.23 93.38
  L 122.97 93.37
  A 0.30 0.29 -2.2 0 1 122.68 93.11
  L 122.44 91.17
  A 1.39 1.36 -71.7 0 0 122.05 90.37
  Q 120.34 88.63 118.41 87.79
  A 1.26 1.22 -0.5 0 0 116.75 89.43
  Q 117.41 90.78 116.48 91.86"
/>
<path stroke="#7d7c7b" vector-effect="non-scaling-stroke" d="
  M 116.48 91.86
  L 114.07 91.05
  A 1.19 1.19 0.0 0 0 113.02 91.19
  Q 112.04 91.85 110.78 91.12
  A 1.36 1.34 43.9 0 0 109.40 91.14
  Q 107.51 92.29 106.27 90.92
  A 0.49 0.48 -35.2 0 0 105.66 90.82
  L 104.47 91.51
  A 0.32 0.28 32.8 0 1 104.27 91.54
  L 99.30 90.59
  A 0.59 0.59 0.0 0 0 98.60 91.06
  L 98.51 91.51
  A 0.85 0.84 -1.7 0 1 97.88 92.17
  L 91.06 93.78
  A 0.22 0.22 0.0 0 1 90.89 93.38
  Q 91.45 93.01 92.85 92.37
  A 0.53 0.53 0.0 0 0 92.83 91.39
  Q 92.56 91.28 91.92 91.45
  A 0.84 0.83 1.3 0 0 91.35 91.99
  Q 90.96 93.08 90.30 93.44
  A 0.24 0.24 0.0 0 0 90.21 93.79
  C 90.47 94.18 90.41 94.06 90.11 94.38
  Q 88.82 95.74 87.79 94.82
  A 0.77 0.76 -37.5 0 0 86.93 94.71
  L 81.41 97.47
  A 2.19 1.99 -61.9 0 1 81.02 97.61
  C 78.46 98.21 76.30 98.35 75.18 99.59
  Q 74.17 100.71 74.78 101.76
  A 0.47 0.47 0.0 0 1 74.32 102.47
  L 73.39 102.36
  A 1.76 1.72 -57.6 0 0 72.29 102.62
  Q 69.02 104.71 67.03 107.53
  A 0.55 0.54 -48.7 0 1 66.19 107.59
  Q 65.34 106.66 64.45 106.39
  A 0.35 0.35 0.0 0 0 64.00 106.65
  L 63.87 107.33
  A 0.05 0.03 -80.8 0 0 63.89 107.37
  Q 64.91 108.00 65.20 108.66
  A 0.48 0.47 -27.9 0 1 65.01 109.25
  C 61.96 111.14 59.30 114.93 56.36 117.19
  C 52.70 119.99 50.39 122.85 46.51 125.30
  Q 43.78 127.02 42.99 128.74
  A 1.16 1.15 7.0 0 1 42.15 129.39
  Q 40.53 129.67 39.00 132.21
  Q 36.00 137.19 36.46 139.35
  A 0.19 0.18 10.0 0 1 36.18 139.54
  L 34.18 138.39
  A 0.51 0.51 0.0 0 0 33.43 138.95
  L 33.56 139.49
  A 1.30 1.29 -4.8 0 0 34.74 140.48
  Q 35.83 140.55 36.77 140.97
  A 0.84 0.82 48.7 0 0 37.30 141.01
  L 44.96 139.20
  A 1.86 1.80 22.8 0 0 45.45 139.01
  L 49.06 136.93
  A 0.39 0.39 0.0 0 1 49.64 137.29
  Q 49.58 138.15 48.63 139.24
  A 0.24 0.23 2.0 0 0 48.95 139.58
  Q 49.24 139.36 50.32 138.19
  A 0.40 0.40 0.0 0 1 50.85 138.13
  L 51.08 138.29
  A 0.53 0.53 0.0 0 1 51.24 139.00
  L 50.04 141.08
  A 1.26 1.25 15.7 0 0 51.10 142.96
  Q 54.46 143.03 56.00 141.90
  A 1.69 1.66 25.8 0 1 56.97 141.57
  Q 59.64 141.51 59.59 142.38
  A 0.30 0.30 0.0 0 0 59.86 142.69
  L 63.24 143.07
  A 0.16 0.16 0.0 0 1 63.36 143.31
  L 63.17 143.64
  A 0.22 0.21 17.7 0 1 62.95 143.75
  Q 60.04 143.24 57.25 144.00"
/>
<path stroke="#111111" vector-effect="non-scaling-stroke" d="
  M 11.92 144.00
  Q 19.14 139.52 14.98 133.79
  A 0.28 0.28 0.0 0 0 14.49 133.85
  Q 13.45 136.33 12.86 136.86
  Q 9.74 139.62 8.98 144.00"
/>
<path stroke="#111111" vector-effect="non-scaling-stroke" d="
  M 10.78 134.00
  Q 15.86 131.55 18.50 126.44
  A 1.64 1.63 -36.0 0 0 18.66 125.45
  Q 18.47 124.24 17.55 122.68
  A 1.42 1.42 0.0 0 1 17.87 120.85
  L 22.73 116.89
  A 0.55 0.52 -67.3 0 1 23.00 116.77
  L 28.99 115.77
  A 1.51 1.50 -28.2 0 1 30.23 116.14
  Q 31.45 117.27 31.12 119.58
  A 0.62 0.61 79.0 0 1 30.82 120.03
  L 27.48 121.96
  A 0.64 0.63 65.8 0 0 27.19 122.73
  L 28.65 127.04"
/>
<path stroke="#252525" vector-effect="non-scaling-stroke" d="
  M 28.65 127.04
  L 28.63 129.41"
/>
<path stroke="#111111" vector-effect="non-scaling-stroke" d="
  M 28.63 129.41
  C 26.43 130.50 21.91 133.10 19.53 132.75
  A 0.63 0.63 0.0 0 0 18.84 133.58
  Q 19.49 135.41 20.87 136.78
  A 0.98 0.96 25.8 0 1 21.15 137.57
  L 20.84 140.37
  A 0.68 0.68 0.0 0 0 21.45 141.13
  L 32.37 142.35
  A 0.68 0.68 0.0 0 0 32.83 141.11
  L 31.29 140.04
  A 1.41 1.41 0.0 0 1 31.39 137.66
  L 34.45 135.89
  A 0.73 0.72 83.4 0 0 34.81 135.43
  Q 36.08 130.67 35.86 126.40
  A 0.98 0.96 70.5 0 1 36.25 125.56
  Q 37.57 124.60 38.46 123.12
  A 0.65 0.65 0.0 0 1 39.33 122.89
  Q 40.08 123.30 40.42 124.12
  A 0.79 0.79 0.0 0 0 41.94 123.90
  L 42.41 119.67
  A 0.37 0.37 0.0 0 1 43.10 119.53
  L 44.34 121.67
  A 0.83 0.82 -44.9 0 0 45.77 121.67
  L 46.34 120.69
  A 1.70 1.69 -47.0 0 0 46.28 118.91
  Q 45.52 117.78 45.37 116.72
  A 0.86 0.85 71.8 0 1 45.79 115.87
  L 48.07 114.55
  A 0.63 0.63 0.0 0 0 48.37 113.87
  L 47.66 110.89
  A 0.79 0.79 0.0 0 1 49.11 110.31
  L 49.87 111.63
  A 0.74 0.73 -21.4 0 0 50.67 111.97
  L 56.79 110.52
  A 0.88 0.88 0.0 0 0 57.47 109.70
  Q 57.74 104.34 55.01 99.37
  A 0.52 0.52 0.0 0 0 54.10 99.36
  L 50.12 106.25
  A 1.04 1.03 32.3 0 1 48.63 106.58
  L 43.62 103.09
  A 2.44 2.42 -69.7 0 1 42.59 100.82
  L 43.10 96.25
  A 0.46 0.46 0.0 0 0 42.21 96.02
  L 38.68 104.38
  A 0.47 0.46 17.2 0 0 39.02 105.02
  L 40.85 105.38
  A 0.87 0.87 0.0 0 1 41.24 106.91
  L 36.64 110.66
  A 0.76 0.76 0.0 0 1 35.87 110.78
  L 34.21 110.08
  A 0.46 0.45 -75.2 0 0 33.58 110.45
  L 33.37 112.31
  A 0.95 0.94 -71.9 0 1 31.96 113.03
  L 28.46 111.01
  A 0.77 0.76 -49.3 0 0 27.60 111.08
  L 26.21 112.21
  A 0.34 0.34 0.0 0 1 25.66 111.90
  Q 26.59 105.22 31.03 98.89
  A 0.88 0.82 8.6 0 1 31.54 98.54
  L 35.59 97.58
  A 1.13 1.12 -21.1 0 0 36.32 95.94
  Q 34.63 92.87 30.21 92.68"
/>
<path stroke="#504b48" vector-effect="non-scaling-stroke" d="
  M 41.26 93.44
  Q 44.88 94.63 48.16 92.84
  A 1.11 1.08 36.0 0 1 48.93 92.73
  Q 50.65 93.11 52.04 92.88
  A 1.84 1.77 19.5 0 0 52.92 92.48
  Q 54.88 90.87 56.55 91.82
  A 3.39 3.06 41.4 0 0 59.97 91.78
  Q 61.56 90.70 64.54 91.30"
/>
<path stroke="#111111" vector-effect="non-scaling-stroke" d="
  M 81.77 88.59
  L 77.30 93.85
  A 1.13 1.06 11.9 0 0 78.49 95.56
  Q 78.69 95.51 79.36 94.53
  A 0.89 0.89 0.0 0 1 80.21 94.15
  Q 85.20 94.78 89.66 92.47
  A 1.64 1.61 -3.4 0 0 90.41 91.64
  C 91.06 90.03 88.93 87.67 87.38 87.21
  A 0.46 0.45 -62.6 0 1 87.16 86.50
  Q 87.59 85.95 88.54 85.49"
/>
<path stroke="#504b48" vector-effect="non-scaling-stroke" d="
  M 89.74 85.09
  Q 92.25 83.29 94.92 82.48
  A 3.46 3.44 20.4 0 0 95.82 82.07
  C 98.32 80.45 100.73 79.42 103.36 76.30
  A 4.42 4.36 75.2 0 0 104.10 75.01
  L 106.04 69.55"
/>
<path stroke="#252525" vector-effect="non-scaling-stroke" d="
  M 117.05 85.34
  Q 115.45 83.05 115.88 81.05
  A 1.35 1.25 -48.1 0 0 115.87 80.52
  L 114.59 75.11
  A 0.36 0.36 0.0 0 1 114.59 74.99
  L 115.17 70.45
  A 0.43 0.43 0.0 0 0 114.52 70.03
  C 112.47 71.24 111.88 74.08 112.19 76.42
  A 0.47 0.47 0.0 0 1 111.67 76.94
  Q 110.71 76.83 110.04 76.51
  A 0.62 0.62 0.0 0 0 109.18 77.25
  C 109.59 78.59 109.80 79.04 109.67 80.32
  Q 109.46 82.29 110.46 84.27
  A 1.79 1.75 -62.8 0 1 110.63 84.82
  L 111.13 88.49
  A 1.58 1.57 7.6 0 0 112.08 89.73
  L 112.65 89.97
  A 0.41 0.41 0.0 0 0 113.19 89.46
  L 111.94 85.90
  A 0.88 0.87 -20.0 0 1 112.47 84.78
  L 112.81 84.67
  A 0.96 0.96 0.0 0 0 113.45 83.71
  Q 113.42 83.07 113.19 82.62
  A 0.28 0.28 0.0 0 1 113.34 82.23
  L 113.70 82.11
  A 0.28 0.28 0.0 0 1 114.06 82.27
  Q 114.98 84.51 116.62 85.75
  A 0.30 0.30 0.0 0 0 117.05 85.34"
/>
<path stroke="#6a6968" vector-effect="non-scaling-stroke" d="
  M 80.81 75.04
  Q 80.04 75.97 78.45 75.46
  A 1.09 1.09 0.0 0 0 77.09 76.86
  L 77.70 78.60
  A 1.03 1.03 0.0 0 1 77.33 79.78
  Q 74.61 81.69 71.59 82.56
  Q 69.15 83.26 65.85 82.28
  A 0.74 0.74 0.0 0 1 65.32 81.60
  L 65.29 80.97"
/>
<path stroke="#8a7b73" vector-effect="non-scaling-stroke" d="
  M 65.29 80.97
  Q 65.45 80.50 65.91 80.23
  A 1.06 1.03 33.4 0 1 66.58 80.10
  Q 68.71 80.38 70.11 79.85
  Q 72.60 78.90 74.75 77.84
  A 1.11 1.11 0.0 0 0 75.30 77.22
  L 75.56 76.49
  A 0.45 0.45 0.0 0 0 75.10 75.90
  L 72.79 76.08"
/>
<path stroke="#c1bbb7" vector-effect="non-scaling-stroke" d="
  M 79.02 60.58
  Q 80.09 60.92 80.15 61.92
  A 0.52 0.51 -8.4 0 0 80.79 62.39
  L 83.77 61.69
  A 0.54 0.53 6.1 0 0 84.12 61.41
  Q 84.99 59.73 83.63 58.89
  A 1.03 0.84 64.8 0 0 83.38 58.77
  L 78.02 57.00"
/>
<path stroke="#6a6968" vector-effect="non-scaling-stroke" d="
  M 78.02 57.00
  L 77.47 56.36"
/>
<path stroke="#575250" vector-effect="non-scaling-stroke" d="
  M 78.02 57.00
  L 77.95 59.32"
/>
<path stroke="#363635" vector-effect="non-scaling-stroke" d="
  M 123.03 96.57
  Q 122.33 96.23 121.54 96.56"
/>
<path stroke="#8e8d8b" vector-effect="non-scaling-stroke" d="
  M 121.54 96.56
  L 116.48 91.86"
/>
<path stroke="#20130b" vector-effect="non-scaling-stroke" d="
  M 61.92 80.74
  L 62.73 81.93
  A 0.77 0.76 63.2 0 0 63.61 82.22
  Q 64.29 81.99 65.29 80.97"
/>
<path stroke="#bab4af" vector-effect="non-scaling-stroke" d="
  M 64.23 90.59
  L 54.80 89.78
  A 1.36 1.31 31.4 0 0 54.04 89.95
  L 51.07 91.58"
/>
<path stroke="#a2a09f" vector-effect="non-scaling-stroke" d="
  M 121.54 96.56
  Q 126.58 100.37 131.85 103.90
  C 133.75 105.16 136.73 106.26 138.14 107.86
  Q 140.05 110.02 141.03 110.19
  C 142.51 110.44 143.15 111.39 143.38 112.89
  C 143.53 111.44 143.97 110.07 144.00 108.49"
/>
<path stroke="#7d7c7b" vector-effect="non-scaling-stroke" d="
  M 144.00 132.26
  Q 141.44 132.74 139.30 134.23
  A 1.07 1.04 34.6 0 1 138.42 134.38
  L 136.23 133.76"
/>
<path stroke="#d4ceca" vector-effect="non-scaling-stroke" d="
  M 136.23 133.76
  C 134.96 132.74 133.68 134.10 132.10 132.08
  A 0.63 0.56 -3.2 0 0 131.90 131.92
  L 124.35 128.26
  A 1.17 1.13 -3.8 0 1 123.91 127.89
  Q 122.94 126.41 120.61 124.99
  A 4.11 4.02 85.7 0 1 119.55 124.06
  Q 118.05 122.16 117.36 121.56
  Q 116.94 121.20 116.73 121.15
  Q 116.46 121.08 116.12 121.16
  A 0.52 0.51 -40.0 0 0 116.03 122.14
  Q 118.29 123.07 117.96 125.17"
/>
<path stroke="#f4f2f0" vector-effect="non-scaling-stroke" d="
  M 117.96 125.17
  Q 116.90 125.24 116.87 124.41
  A 0.59 0.58 17.7 0 0 116.63 123.96
  Q 115.42 123.04 113.58 122.67
  A 0.66 0.66 0.0 0 0 112.81 123.17
  Q 112.79 123.26 112.86 123.56
  A 0.45 0.45 0.0 0 1 112.48 124.10
  Q 111.85 124.21 111.46 125.35"
/>
<path stroke="#d4ceca" vector-effect="non-scaling-stroke" d="
  M 111.46 125.35
  Q 111.88 123.83 110.74 122.96
  A 1.17 1.11 -75.1 0 0 108.95 124.06
  Q 109.01 124.60 108.97 124.76
  A 0.74 0.74 0.0 0 1 107.63 124.98
  Q 106.14 122.63 104.79 121.95
  A 0.42 0.42 0.0 0 0 104.27 122.59
  L 107.97 127.12
  A 0.53 0.52 36.8 0 1 108.05 127.64
  L 107.13 129.80
  A 0.92 0.91 10.8 0 1 106.30 130.36
  Q 105.42 130.38 104.79 129.47
  A 0.32 0.31 -54.4 0 0 104.23 129.57
  Q 103.87 130.82 104.01 131.26
  A 0.51 0.51 0.0 0 0 104.87 131.44
  Q 105.29 131.00 105.61 131.11
  A 1.00 0.98 -9.7 0 1 106.03 131.40
  L 109.94 136.14
  A 0.73 0.70 17.4 0 1 110.06 136.36
  Q 111.05 139.48 112.28 140.32
  A 0.32 0.32 0.0 0 1 112.18 140.90
  L 111.80 140.99
  A 0.86 0.84 88.1 0 0 111.16 141.69
  Q 110.92 143.35 112.18 143.85"
/>
<path stroke="#f4f2f0" vector-effect="non-scaling-stroke" d="
  M 112.18 143.85
  Q 112.27 143.93 112.36 144.00"
/>
<path stroke="#d4ceca" vector-effect="non-scaling-stroke" d="
  M 108.43 144.00
  Q 107.84 141.09 106.19 139.05
  A 0.57 0.57 0.0 0 1 106.74 138.13
  L 108.22 138.41
  A 0.49 0.49 0.0 0 0 108.80 137.88
  Q 108.72 137.16 108.18 136.64
  A 0.67 0.66 54.1 0 0 107.47 136.52
  Q 105.42 137.40 103.93 136.07
  Q 101.34 133.78 100.21 129.72
  A 0.41 0.41 0.0 0 1 100.96 129.39
  Q 101.60 130.40 102.33 130.73
  A 0.32 0.32 0.0 0 0 102.74 130.28
  L 100.12 125.74
  A 0.51 0.51 0.0 0 0 99.19 126.11
  L 99.42 127.10
  A 1.92 1.88 -44.4 0 1 99.40 128.04
  Q 98.68 130.60 99.48 131.83
  Q 100.79 133.83 101.92 136.55
  A 1.56 1.54 -5.0 0 0 103.04 137.48
  Q 103.78 137.63 104.32 138.01
  A 1.45 1.42 -82.0 0 1 104.88 138.77
  L 106.60 144.00"
/>
<path stroke="#e7e4e2" vector-effect="non-scaling-stroke" d="
  M 112.27 107.38
  Q 111.77 105.81 110.23 105.00
  Q 109.30 104.51 105.16 102.45
  A 0.37 0.37 0.0 0 0 104.63 102.84
  C 104.74 103.63 106.36 104.84 106.86 106.16
  C 107.52 107.90 108.99 109.57 110.10 111.64
  Q 111.08 113.48 114.15 114.68
  A 0.11 0.11 0.0 0 0 114.28 114.51
  L 107.30 105.96
  A 0.62 0.61 -2.1 0 1 108.13 105.07
  L 111.88 107.67
  A 0.26 0.26 0.0 0 0 112.27 107.38"
/>
<path stroke="#d4ceca" vector-effect="non-scaling-stroke" d="
  M 134.45 124.02
  L 134.68 124.00
  A 0.34 0.33 -42.2 0 0 134.71 123.50
  L 131.81 120.52
  A 0.64 0.60 76.5 0 0 131.55 120.35
  Q 130.57 120.01 130.04 120.43
  Q 129.09 121.18 128.34 120.69
  Q 127.24 119.97 126.57 118.43
  A 0.17 0.17 0.0 0 0 126.30 118.36
  L 125.99 118.61
  A 0.30 0.29 -30.8 0 0 125.90 118.95
  Q 126.99 121.68 129.10 123.41
  A 2.38 2.33 70.2 0 0 130.09 123.89
  Q 133.11 124.56 134.27 127.36
  A 0.35 0.35 0.0 0 0 134.88 127.43
  Q 135.41 126.67 134.97 125.96
  Q 134.10 124.58 134.09 124.44
  A 0.38 0.38 0.0 0 1 134.45 124.02"
/>
<path stroke="#f4f2f0" vector-effect="non-scaling-stroke" d="
  M 67.91 143.18
  A 0.51 0.50 -56.9 0 0 68.89 142.97
  Q 68.56 139.70 67.37 130.81
  Q 67.15 129.10 68.36 124.98
  A 0.51 0.50 20.1 0 0 68.07 124.37
  L 67.76 124.24
  A 0.71 0.71 0.0 0 0 66.83 124.61
  L 63.46 132.59
  A 0.49 0.49 0.0 0 0 63.72 133.23
  L 64.07 133.37
  A 0.28 0.27 -66.7 0 0 64.43 133.22
  L 65.33 131.10
  A 0.53 0.53 0.0 0 1 66.34 131.31
  Q 66.25 137.97 67.91 143.18"
/>
<path stroke="#d4ceca" vector-effect="non-scaling-stroke" d="
  M 98.98 141.91
  Q 98.97 140.63 98.37 139.84
  Q 97.80 139.08 96.95 136.67
  A 1.11 1.11 0.0 0 1 97.02 135.76
  Q 97.82 134.26 96.14 133.13
  A 0.62 0.62 0.0 0 0 95.28 133.99
  Q 95.80 134.76 95.94 135.48
  A 0.72 0.72 0.0 0 1 95.05 136.31
  Q 94.86 136.26 94.65 136.22
  A 0.47 0.47 0.0 0 0 94.21 136.98
  L 96.45 139.73
  A 2.69 2.67 28.6 0 1 97.04 141.71
  L 96.99 142.11
  A 0.71 0.71 0.0 0 1 95.74 142.48
  L 90.21 135.70
  A 0.33 0.33 0.0 0 0 89.64 135.99
  C 90.50 139.11 93.85 139.42 94.23 142.52
  A 1.53 1.52 88.4 0 0 95.63 143.85
  Q 98.98 144.10 98.98 141.91"
/>
<path stroke="#363635" vector-effect="non-scaling-stroke" d="
  M 28.63 129.41
  L 30.22 132.57
  A 1.22 1.22 0.0 0 0 31.92 133.08
  L 34.70 131.47
  A 1.11 1.10 -35.4 0 0 34.99 129.79
  Q 32.22 126.61 28.65 127.04"
/>
<path stroke="#575250" vector-effect="non-scaling-stroke" d="
  M 136.23 133.76
  Q 135.03 133.96 134.93 134.90"
/>
<path stroke="#cec8c5" vector-effect="non-scaling-stroke" d="
  M 134.93 134.90
  Q 134.44 135.19 133.87 135.12
  A 1.06 1.06 0.0 0 1 133.13 134.67
  C 131.89 132.84 130.17 133.48 128.74 132.34
  Q 127.04 130.97 124.51 130.07
  A 1.08 1.06 87.0 0 1 123.90 129.51
  Q 122.76 126.97 120.11 126.65
  A 1.77 1.74 68.6 0 1 119.22 126.25
  L 117.96 125.17"
/>
<path stroke="#cec8c5" vector-effect="non-scaling-stroke" d="
  M 111.46 125.35
  L 115.43 129.70
  A 0.28 0.28 0.0 0 1 115.48 130.01
  Q 115.25 130.53 114.51 129.95
  Q 112.17 128.07 111.66 127.42
  A 1.27 1.26 60.5 0 0 110.24 127.02
  Q 109.21 127.38 108.74 126.39
  A 0.19 0.19 0.0 0 0 108.44 126.32
  L 108.19 126.52
  A 0.28 0.27 -46.6 0 0 108.20 126.96
  Q 109.62 127.94 108.73 128.86
  A 1.60 1.59 -21.9 0 0 108.29 129.88
  Q 108.18 132.21 109.90 133.87
  A 1.97 1.93 -70.4 0 1 110.49 135.15
  L 110.53 135.96
  A 1.27 1.21 -67.0 0 0 110.80 136.68
  L 113.74 140.28
  A 0.28 0.28 0.0 0 1 113.70 140.68
  L 113.12 141.15
  A 0.44 0.44 0.0 0 0 113.02 141.71
  L 113.70 142.88
  A 0.65 0.64 -23.5 0 1 113.33 143.81
  Q 112.90 143.95 112.18 143.85"
/>
<path stroke="#777675" vector-effect="non-scaling-stroke" d="
  M 134.93 134.90
  Q 135.59 135.19 135.82 135.65
  Q 136.08 136.17 135.69 136.57
  Q 133.77 138.57 132.13 138.70
  A 1.10 1.08 12.1 0 0 131.28 139.24
  C 130.51 140.60 129.15 142.86 127.54 143.13"
/>
<path stroke="#e1dfdd" vector-effect="non-scaling-stroke" d="
  M 127.54 143.13
  L 127.29 142.84
  A 0.84 0.83 35.7 0 1 127.15 142.00
  Q 127.60 140.87 126.61 139.62
  A 0.45 0.45 0.0 0 1 127.15 138.94
  Q 129.33 139.99 130.74 137.99
  Q 130.99 137.62 131.51 137.28
  L 132.54 136.60
  A 0.34 0.33 -87.6 0 0 132.14 136.16
  Q 130.48 136.64 129.83 134.53
  A 1.07 1.07 0.0 0 0 127.74 134.69
  Q 127.74 134.73 127.82 135.10
  A 1.13 1.13 0.0 0 1 127.71 135.88
  Q 126.66 137.82 124.78 137.15
  A 0.75 0.75 0.0 0 0 123.87 138.22
  Q 124.96 140.19 124.07 141.64
  A 0.90 0.89 -51.4 0 0 124.19 142.74
  Q 125.33 143.90 127.29 143.62"
/>
<path stroke="#777675" vector-effect="non-scaling-stroke" d="
  M 127.29 143.62
  L 128.25 144.00"
/>
<path stroke="#6a6968" vector-effect="non-scaling-stroke" d="
  M 127.29 143.62
  Q 127.30 143.37 127.54 143.13"
/>
</g>
<path fill="#ddeef4" d="
  M 144.00 0.00
  L 144.00 37.53
  C 131.79 28.24 120.05 20.70 104.96 17.90
  L 99.64 14.32
  A 1.38 1.37 -37.9 0 0 98.40 14.17
  L 83.36 19.48
  A 1.75 1.72 40.4 0 1 82.50 19.54
  L 56.65 14.57
  A 1.18 1.17 33.4 0 0 55.75 14.75
  L 51.29 17.78
  A 0.49 0.49 0.0 0 0 51.46 18.66
  L 52.46 18.89
  L 47.75 25.16
  A 0.59 0.59 0.0 0 0 48.26 26.11
  Q 49.02 26.06 49.46 25.22
  Q 51.58 21.23 53.23 21.79
  Q 53.31 23.86 53.77 25.22
  Q 54.19 26.47 55.52 27.02
  Q 56.69 27.51 57.62 29.30
  A 0.51 0.50 65.1 0 1 57.37 29.99
  Q 56.24 30.47 56.13 31.21
  A 0.44 0.43 -73.2 0 1 55.52 31.54
  Q 53.16 30.46 51.88 29.01
  A 0.86 0.85 -28.5 0 0 51.02 28.76
  Q 46.21 30.08 44.28 31.84
  A 1.18 1.18 0.0 0 1 43.41 32.15
  Q 41.20 32.03 39.63 33.93
  A 0.17 0.17 0.0 0 1 39.39 33.95
  L 39.19 33.78
  A 0.11 0.11 0.0 0 1 39.17 33.62
  L 44.28 27.52
  A 0.42 0.42 0.0 0 0 43.71 26.91
  Q 41.94 28.20 40.38 26.38
  Q 41.67 25.78 41.86 24.91
  A 0.46 0.46 0.0 0 0 41.09 24.47
  Q 38.10 27.32 34.04 28.72
  A 0.96 0.92 -36.4 0 1 33.21 28.61
  Q 29.47 26.04 26.25 26.39
  Q 22.57 26.80 15.69 28.92
  C 10.61 30.48 10.82 34.87 11.10 39.54
  C 10.54 42.55 9.25 44.81 10.95 48.05
  A 1.03 1.03 0.0 0 1 10.99 48.95
  Q 6.33 59.90 0.00 70.04
  L 0.00 0.00
  L 144.00 0.00
  Z"
/>
<path fill="#f9f7f5" d="
  M 104.96 17.90
  C 111.89 23.17 112.88 32.23 106.42 38.45
  Q 105.77 39.07 103.12 40.96
  A 0.80 0.79 -24.7 0 0 102.81 41.77
  C 103.86 46.54 104.63 49.22 103.98 53.32
  L 100.48 39.31
  Q 105.40 38.91 107.77 35.16
  Q 107.90 34.96 107.77 34.85
  Q 107.65 34.75 107.63 34.50
  Q 107.61 34.14 107.78 33.94
  Q 109.99 31.43 109.63 27.27
  A 0.16 0.09 -74.5 0 0 109.61 27.19
  L 107.33 21.73
  A 4.46 4.45 0.2 0 0 104.94 19.33
  L 100.85 17.60
  A 1.13 1.13 0.0 0 1 100.22 16.94
  Q 99.39 14.64 96.79 15.81
  Q 93.21 17.42 90.59 19.24
  A 2.85 2.85 0.0 0 1 88.78 19.73
  Q 86.17 19.55 86.15 19.57
  A 0.31 0.31 0.0 0 0 86.23 20.14
  C 88.38 20.72 87.45 24.20 90.56 24.98
  C 92.80 25.54 94.58 28.72 95.41 30.79
  Q 93.45 31.39 92.18 28.31
  A 2.32 2.32 0.0 0 0 90.52 26.91
  Q 89.51 26.69 88.50 26.00
  A 0.51 0.51 0.0 0 0 87.73 26.25
  L 87.51 26.88
  A 0.53 0.52 29.5 0 1 86.68 27.11
  C 85.16 25.86 83.56 26.74 82.00 25.89
  Q 78.02 23.74 75.58 21.20
  A 1.02 0.97 -13.8 0 0 75.09 20.92
  Q 74.17 20.70 73.65 21.83
  A 0.75 0.74 17.2 0 0 74.21 22.88
  Q 76.10 23.19 77.55 24.74
  Q 77.73 24.93 77.51 25.20
  A 0.43 0.43 0.0 0 1 76.92 25.29
  Q 75.68 24.41 75.07 24.43
  A 0.47 0.47 0.0 0 0 74.76 25.24
  Q 77.45 27.77 78.16 30.38
  A 1.99 1.98 2.4 0 0 79.41 31.73
  L 89.59 35.30
  A 0.59 0.59 0.0 0 1 89.88 36.19
  L 89.67 36.49
  A 0.93 0.92 -60.3 0 1 88.59 36.79
  Q 82.34 34.28 75.33 33.98
  Q 73.82 33.92 72.89 35.01
  A 0.75 0.75 0.0 0 1 71.97 35.19
  Q 70.39 34.35 69.71 35.67
  A 0.37 0.37 0.0 0 1 69.09 35.73
  L 66.79 32.91
  A 0.84 0.83 35.8 0 1 66.65 32.10
  Q 66.80 31.68 66.81 31.65
  A 1.36 1.33 36.0 0 0 66.64 30.65
  Q 64.96 27.93 63.77 27.51
  A 0.27 0.27 0.0 0 1 63.78 26.99
  Q 64.75 26.71 65.64 27.21
  A 0.23 0.23 0.0 0 0 65.95 27.14
  L 65.96 27.13
  A 0.29 0.29 0.0 0 0 65.84 26.86
  L 63.59 25.28
  A 0.72 0.72 0.0 0 0 62.46 25.98
  Q 62.88 28.72 64.43 30.40
  A 0.36 0.35 41.7 0 1 64.46 30.86
  L 64.26 31.15
  A 0.50 0.49 -46.2 0 1 63.46 31.17
  Q 62.83 30.33 62.67 29.55
  A 0.45 0.45 0.0 0 0 61.94 29.29
  L 60.99 30.07
  A 0.34 0.34 0.0 0 1 60.64 30.12
  Q 60.30 29.99 60.25 29.49
  A 0.37 0.36 74.7 0 1 60.45 29.13
  L 61.13 28.79
  A 0.98 0.98 0.0 0 0 61.65 27.78
  Q 61.63 27.60 61.17 25.97
  Q 61.07 25.60 61.24 25.14
  Q 61.42 24.69 61.37 24.28
  Q 61.32 23.81 60.41 23.56
  Q 59.48 23.32 58.55 23.26
  Q 58.37 22.15 57.61 21.98
  A 0.45 0.45 0.0 0 0 57.08 22.29
  Q 57.07 22.34 57.06 22.49
  A 0.71 0.70 -49.8 0 1 55.67 22.61
  Q 55.37 21.32 54.62 20.53
  A 0.25 0.25 0.0 0 1 54.74 20.12
  Q 54.91 20.08 55.04 20.39
  A 0.66 0.64 -47.6 0 0 56.25 20.32
  Q 56.58 19.37 55.60 19.02
  Q 53.63 18.32 52.46 18.89
  L 51.46 18.66
  A 0.49 0.49 0.0 0 1 51.29 17.78
  L 55.75 14.75
  A 1.18 1.17 33.4 0 1 56.65 14.57
  L 82.50 19.54
  A 1.75 1.72 40.4 0 0 83.36 19.48
  L 98.40 14.17
  A 1.38 1.37 -37.9 0 1 99.64 14.32
  L 104.96 17.90
  Z"
/>
<path fill="#000000" d="
  M 100.48 39.31
  L 98.16 36.72
  Q 97.15 32.70 95.41 30.79
  C 94.58 28.72 92.80 25.54 90.56 24.98
  C 87.45 24.20 88.38 20.72 86.23 20.14
  A 0.31 0.31 0.0 0 1 86.15 19.57
  Q 86.17 19.55 88.78 19.73
  A 2.85 2.85 0.0 0 0 90.59 19.24
  Q 93.21 17.42 96.79 15.81
  Q 99.39 14.64 100.22 16.94
  A 1.13 1.13 0.0 0 0 100.85 17.60
  L 104.94 19.33
  A 4.46 4.45 0.2 0 1 107.33 21.73
  L 109.61 27.19
  A 0.16 0.09 -74.5 0 1 109.63 27.27
  Q 109.99 31.43 107.78 33.94
  Q 107.61 34.14 107.63 34.50
  Q 107.65 34.75 107.77 34.85
  Q 107.90 34.96 107.77 35.16
  Q 105.40 38.91 100.48 39.31
  Z
  M 102.34 27.88
  Q 102.67 27.79 102.85 27.58
  Q 103.23 27.17 103.81 27.49
  Q 104.31 27.76 104.37 28.62
  Q 104.41 29.18 103.80 29.71
  Q 103.04 30.35 102.84 30.71
  A 0.93 0.93 0.0 0 0 102.85 31.62
  L 104.65 34.64
  A 0.50 0.50 0.0 0 1 104.18 35.40
  Q 102.70 35.29 101.70 36.29
  A 0.79 0.79 0.0 0 0 102.23 37.64
  Q 102.80 37.66 103.59 37.39
  A 1.80 1.76 10.3 0 0 104.42 36.83
  L 106.28 34.61
  A 0.76 0.70 76.3 0 0 106.39 34.41
  L 108.48 29.24
  A 1.51 1.48 47.9 0 0 108.52 28.26
  L 106.61 22.24
  A 1.06 1.06 0.0 0 0 104.62 22.15
  L 103.51 24.77
  A 0.98 0.91 87.8 0 1 103.15 25.19
  Q 101.94 25.93 101.79 27.42
  A 0.43 0.43 0.0 0 0 102.34 27.88
  Z"
/>
<path fill="#eaf3f7" d="
  M 144.00 37.53
  L 144.00 76.46
  C 142.90 74.19 141.73 72.31 140.31 69.82
  Q 136.80 63.68 130.14 61.86
  Q 129.00 61.55 128.07 60.92
  Q 127.23 60.37 125.89 60.31
  A 0.76 0.75 -87.0 0 1 125.17 59.50
  L 125.39 56.25
  A 2.71 2.54 -55.0 0 0 125.23 55.14
  Q 124.28 52.69 121.78 50.58
  A 0.79 0.75 -78.0 0 1 121.53 50.17
  L 121.16 48.61
  A 0.11 0.10 63.6 0 0 120.99 48.55
  L 119.59 49.69
  A 0.52 0.52 0.0 0 1 118.85 49.61
  L 117.77 48.29
  A 0.67 0.67 0.0 0 0 116.98 48.11
  Q 115.12 48.95 114.80 50.78
  Q 114.31 53.54 114.16 54.23
  A 0.56 0.56 0.0 0 1 113.50 54.66
  L 112.19 54.41
  A 0.14 0.14 0.0 0 0 112.03 54.58
  L 112.94 58.43
  A 0.33 0.33 0.0 0 1 112.94 58.59
  L 111.57 65.72
  A 0.61 0.60 1.9 0 1 111.04 66.21
  Q 109.39 66.43 109.48 68.28
  A 0.87 0.85 -12.4 0 1 108.93 69.12
  Q 107.55 69.66 106.04 69.55
  Q 105.31 69.17 105.38 68.26
  Q 106.89 60.81 103.98 53.32
  C 104.63 49.22 103.86 46.54 102.81 41.77
  A 0.80 0.79 -24.7 0 1 103.12 40.96
  Q 105.77 39.07 106.42 38.45
  C 112.88 32.23 111.89 23.17 104.96 17.90
  C 120.05 20.70 131.79 28.24 144.00 37.53
  Z"
/>
<path fill="#d4d1cf" d="
  M 58.55 23.26
  L 57.77 23.23
  A 0.34 0.34 0.0 0 0 57.53 23.83
  Q 58.51 24.68 58.67 25.99
  A 0.42 0.42 0.0 0 1 57.99 26.37
  Q 56.90 25.52 55.73 25.45
  A 0.61 0.60 4.9 0 1 55.16 24.78
  Q 55.31 23.36 53.23 21.79
  Q 51.58 21.23 49.46 25.22
  Q 49.02 26.06 48.26 26.11
  A 0.59 0.59 0.0 0 1 47.75 25.16
  L 52.46 18.89
  Q 53.63 18.32 55.60 19.02
  Q 56.58 19.37 56.25 20.32
  A 0.66 0.64 -47.6 0 1 55.04 20.39
  Q 54.91 20.08 54.74 20.12
  A 0.25 0.25 0.0 0 0 54.62 20.53
  Q 55.37 21.32 55.67 22.61
  A 0.71 0.70 -49.8 0 0 57.06 22.49
  Q 57.07 22.34 57.08 22.29
  A 0.45 0.45 0.0 0 1 57.61 21.98
  Q 58.37 22.15 58.55 23.26
  Z"
/>
<path fill="#eeecea" d="
  M 95.41 30.79
  Q 97.15 32.70 98.16 36.72
  L 101.04 50.04
  Q 100.23 53.97 101.23 57.55
  A 0.71 0.71 0.0 0 1 100.35 58.42
  C 95.63 57.04 91.05 57.52 86.37 56.75
  C 83.12 56.21 80.74 55.34 77.47 56.36
  Q 75.48 55.21 73.61 56.11
  Q 70.74 57.49 68.56 57.66
  Q 67.08 57.85 66.22 57.35
  A 0.49 0.49 0.0 0 1 66.36 56.46
  L 68.38 55.98
  A 1.10 1.10 0.0 0 0 68.98 54.21
  Q 66.02 50.65 64.48 46.63
  A 0.80 0.79 75.2 0 0 63.63 46.13
  Q 63.32 46.17 62.99 46.56
  A 1.06 1.03 -72.4 0 1 62.28 46.94
  Q 59.99 47.18 58.14 49.03
  Q 55.19 42.83 48.98 40.43
  A 1.07 1.06 -49.2 0 0 48.07 40.50
  Q 39.50 45.52 41.22 55.21
  Q 41.06 60.73 36.96 63.70
  C 36.29 64.19 35.62 65.20 35.59 65.94
  A 0.79 0.78 -11.5 0 0 36.71 66.68
  Q 39.41 65.41 40.79 65.36
  A 1.75 1.69 -58.6 0 0 41.55 65.16
  L 46.50 62.57
  Q 49.56 61.59 52.10 59.72
  A 0.52 0.51 -29.6 0 1 52.88 59.93
  Q 55.05 65.02 59.52 67.75
  C 64.03 70.50 67.76 72.62 72.28 70.36
  Q 74.54 69.24 75.24 66.28
  Q 78.75 65.61 80.93 64.23
  A 1.17 1.17 0.0 0 1 82.41 66.03
  C 81.05 67.45 80.24 68.02 78.06 69.15
  Q 73.91 71.31 72.79 76.08
  L 71.59 76.65
  A 0.95 0.94 49.9 0 1 70.60 76.56
  Q 69.54 75.78 68.78 76.64
  A 1.15 1.12 -72.2 0 1 68.06 77.02
  L 63.14 77.65
  A 1.04 1.03 10.2 0 0 62.36 78.19
  Q 61.76 79.31 61.92 80.74
  Q 61.30 81.75 60.51 81.61
  Q 59.56 81.44 59.55 80.32
  Q 59.55 79.12 60.70 78.17
  A 0.33 0.33 0.0 0 0 60.61 77.60
  Q 60.16 77.43 58.99 77.92
  A 1.75 1.73 44.3 0 1 57.66 77.93
  L 54.29 76.60
  A 0.63 0.62 -39.2 0 0 53.96 76.57
  Q 52.48 76.87 49.52 76.53
  Q 48.33 76.39 47.61 76.65
  A 0.63 0.62 40.9 0 0 47.70 77.85
  Q 48.43 77.99 49.79 78.77
  Q 54.83 81.63 60.29 83.49
  Q 63.28 84.50 68.28 84.56
  Q 71.62 87.34 76.10 86.91
  A 0.75 0.75 0.0 0 1 76.35 88.38
  L 75.04 88.72
  Q 64.27 89.20 53.49 88.50
  Q 51.76 88.39 51.32 89.17
  Q 50.86 89.99 51.07 91.58
  Q 49.17 92.32 47.19 92.00
  A 1.99 1.87 -46.8 0 0 46.39 92.05
  L 41.26 93.44
  Q 38.18 93.54 35.29 91.54
  C 35.11 85.70 30.90 82.48 29.95 77.27
  C 29.37 74.11 29.65 70.37 29.00 66.93
  Q 26.99 56.28 26.96 55.94
  A 4.24 3.99 48.5 0 1 26.99 54.99
  Q 27.84 49.81 28.59 43.06
  Q 29.42 35.60 35.89 31.69
  A 0.56 0.56 0.0 0 0 35.66 30.65
  L 34.51 30.52
  A 0.28 0.28 0.0 0 1 34.28 30.13
  L 34.44 29.76
  A 0.55 0.54 11.6 0 1 34.96 29.42
  Q 37.81 29.43 40.38 26.38
  Q 41.94 28.20 43.71 26.91
  A 0.42 0.42 0.0 0 1 44.28 27.52
  L 39.17 33.62
  A 0.11 0.11 0.0 0 0 39.19 33.78
  L 39.39 33.95
  A 0.17 0.17 0.0 0 0 39.63 33.93
  Q 41.20 32.03 43.41 32.15
  A 1.18 1.18 0.0 0 0 44.28 31.84
  Q 46.21 30.08 51.02 28.76
  A 0.86 0.85 -28.5 0 1 51.88 29.01
  Q 53.16 30.46 55.52 31.54
  A 0.44 0.43 -73.2 0 0 56.13 31.21
  Q 56.24 30.47 57.37 29.99
  A 0.51 0.50 65.1 0 0 57.62 29.30
  Q 56.69 27.51 55.52 27.02
  Q 54.19 26.47 53.77 25.22
  Q 53.31 23.86 53.23 21.79
  Q 55.31 23.36 55.16 24.78
  A 0.61 0.60 4.9 0 0 55.73 25.45
  Q 56.90 25.52 57.99 26.37
  A 0.42 0.42 0.0 0 0 58.67 25.99
  Q 58.51 24.68 57.53 23.83
  A 0.34 0.34 0.0 0 1 57.77 23.23
  L 58.55 23.26
  Q 59.48 23.32 60.41 23.56
  Q 61.32 23.81 61.37 24.28
  Q 61.42 24.69 61.24 25.14
  Q 61.07 25.60 61.17 25.97
  Q 61.63 27.60 61.65 27.78
  A 0.98 0.98 0.0 0 1 61.13 28.79
  L 60.45 29.13
  A 0.37 0.36 74.7 0 0 60.25 29.49
  Q 60.30 29.99 60.64 30.12
  A 0.34 0.34 0.0 0 0 60.99 30.07
  L 61.94 29.29
  A 0.45 0.45 0.0 0 1 62.67 29.55
  Q 62.83 30.33 63.46 31.17
  A 0.50 0.49 -46.2 0 0 64.26 31.15
  L 64.46 30.86
  A 0.36 0.35 41.7 0 0 64.43 30.40
  Q 62.88 28.72 62.46 25.98
  A 0.72 0.72 0.0 0 1 63.59 25.28
  L 65.84 26.86
  A 0.29 0.29 0.0 0 1 65.96 27.13
  L 65.95 27.14
  A 0.23 0.23 0.0 0 1 65.64 27.21
  Q 64.75 26.71 63.78 26.99
  A 0.27 0.27 0.0 0 0 63.77 27.51
  Q 64.96 27.93 66.64 30.65
  A 1.36 1.33 36.0 0 1 66.81 31.65
  Q 66.80 31.68 66.65 32.10
  A 0.84 0.83 35.8 0 0 66.79 32.91
  L 69.09 35.73
  A 0.37 0.37 0.0 0 0 69.71 35.67
  Q 70.39 34.35 71.97 35.19
  A 0.75 0.75 0.0 0 0 72.89 35.01
  Q 73.82 33.92 75.33 33.98
  Q 82.34 34.28 88.59 36.79
  A 0.93 0.92 -60.3 0 0 89.67 36.49
  L 89.88 36.19
  A 0.59 0.59 0.0 0 0 89.59 35.30
  L 79.41 31.73
  A 1.99 1.98 2.4 0 1 78.16 30.38
  Q 77.45 27.77 74.76 25.24
  A 0.47 0.47 0.0 0 1 75.07 24.43
  Q 75.68 24.41 76.92 25.29
  A 0.43 0.43 0.0 0 0 77.51 25.20
  Q 77.73 24.93 77.55 24.74
  Q 76.10 23.19 74.21 22.88
  A 0.75 0.74 17.2 0 1 73.65 21.83
  Q 74.17 20.70 75.09 20.92
  A 1.02 0.97 -13.8 0 1 75.58 21.20
  Q 78.02 23.74 82.00 25.89
  C 83.56 26.74 85.16 25.86 86.68 27.11
  A 0.53 0.52 29.5 0 0 87.51 26.88
  L 87.73 26.25
  A 0.51 0.51 0.0 0 1 88.50 26.00
  Q 89.51 26.69 90.52 26.91
  A 2.32 2.32 0.0 0 1 92.18 28.31
  Q 93.45 31.39 95.41 30.79
  Z
  M 90.94 53.03
  Q 85.45 46.74 85.15 45.92
  A 1.11 1.09 -12.4 0 0 84.04 45.22
  Q 82.58 45.33 82.61 43.89
  A 1.22 1.21 -66.4 0 0 82.28 43.03
  L 79.30 39.93
  A 1.03 1.01 -20.5 0 0 78.58 39.61
  Q 76.64 39.57 75.17 40.33
  A 1.24 1.13 -83.7 0 0 74.75 40.70
  L 72.41 44.08
  A 0.77 0.73 67.7 0 0 72.26 44.47
  C 71.73 49.73 75.07 49.97 78.37 52.35
  A 1.68 1.68 0.0 0 0 80.88 51.66
  Q 82.19 48.65 79.92 47.44
  A 0.35 0.35 0.0 0 0 79.41 47.78
  Q 79.49 48.52 79.48 48.56
  A 0.70 0.65 44.0 0 1 78.16 48.53
  Q 78.00 47.93 78.58 47.50
  A 0.39 0.39 0.0 0 0 78.26 46.80
  Q 76.54 47.24 75.34 48.10
  A 0.36 0.36 0.0 0 1 74.79 47.68
  C 77.08 41.57 83.61 46.35 83.58 50.85
  A 1.87 1.87 0.0 0 1 82.89 52.30
  L 81.36 53.55
  A 0.38 0.38 0.0 0 0 81.57 54.23
  Q 83.84 54.42 85.54 55.66
  A 1.27 1.25 59.9 0 0 86.38 55.89
  L 89.84 55.57
  A 0.34 0.33 3.4 0 0 90.14 55.31
  Q 90.20 55.07 90.21 55.03
  A 0.69 0.68 13.4 0 1 90.90 54.61
  L 94.45 54.93
  A 0.13 0.12 -69.2 0 0 94.55 54.88
  Q 94.57 54.86 94.59 54.85
  A 0.07 0.05 34.0 0 0 94.55 54.74
  Q 91.68 53.87 90.94 53.03
  Z"
/>
<path fill="#4a4949" d="
  M 101.79 27.42
  Q 101.94 25.93 103.15 25.19
  A 0.98 0.91 87.8 0 0 103.51 24.77
  L 104.62 22.15
  A 1.06 1.06 0.0 0 1 106.61 22.24
  L 108.52 28.26
  A 1.51 1.48 47.9 0 1 108.48 29.24
  L 106.39 34.41
  A 0.76 0.70 76.3 0 1 106.28 34.61
  L 104.42 36.83
  A 1.80 1.76 10.3 0 1 103.59 37.39
  Q 102.80 37.66 102.23 37.64
  A 0.79 0.79 0.0 0 1 101.70 36.29
  Q 102.70 35.29 104.18 35.40
  A 0.50 0.50 0.0 0 0 104.65 34.64
  L 102.85 31.62
  A 0.93 0.93 0.0 0 1 102.84 30.71
  Q 103.04 30.35 103.80 29.71
  Q 104.41 29.18 104.37 28.62
  Q 104.31 27.76 103.81 27.49
  Q 103.23 27.17 102.85 27.58
  Q 102.67 27.79 102.34 27.88
  A 0.43 0.43 0.0 0 1 101.79 27.42
  Z"
/>
<path fill="#f9f7f5" d="
  M 40.38 26.38
  Q 37.81 29.43 34.96 29.42
  A 0.55 0.54 11.6 0 0 34.44 29.76
  L 34.28 30.13
  A 0.28 0.28 0.0 0 0 34.51 30.52
  L 35.66 30.65
  A 0.56 0.56 0.0 0 1 35.89 31.69
  Q 29.42 35.60 28.59 43.06
  Q 27.84 49.81 26.99 54.99
  A 4.24 3.99 48.5 0 0 26.96 55.94
  Q 26.99 56.28 29.00 66.93
  C 29.65 70.37 29.37 74.11 29.95 77.27
  C 30.90 82.48 35.11 85.70 35.29 91.54
  Q 33.82 91.24 31.94 90.09
  C 25.43 80.01 23.96 68.04 23.89 56.22
  Q 25.86 51.47 25.83 49.77
  Q 25.75 45.14 26.83 40.73
  Q 27.52 37.88 29.09 35.32
  Q 31.19 31.87 32.53 30.39
  A 0.68 0.67 -55.4 0 0 32.34 29.33
  Q 28.62 27.43 26.00 27.60
  A 3.29 2.91 30.1 0 0 25.25 27.75
  Q 20.33 29.45 19.43 29.46
  Q 15.74 29.48 12.62 32.11
  A 0.13 0.12 -20.8 0 0 12.57 32.21
  Q 12.14 36.35 12.79 38.80
  A 2.01 1.95 44.1 0 1 12.82 39.74
  L 12.11 43.09
  L 11.40 46.38
  A 0.51 0.51 0.0 0 1 10.86 46.77
  L 10.58 46.73
  A 0.24 0.23 -85.1 0 1 10.37 46.47
  L 11.10 39.54
  C 10.82 34.87 10.61 30.48 15.69 28.92
  Q 22.57 26.80 26.25 26.39
  Q 29.47 26.04 33.21 28.61
  A 0.96 0.92 -36.4 0 0 34.04 28.72
  Q 38.10 27.32 41.09 24.47
  A 0.46 0.46 0.0 0 1 41.86 24.91
  Q 41.67 25.78 40.38 26.38
  Z"
/>
<path fill="#000000" d="
  M 23.89 56.22
  L 23.56 53.90
  A 0.85 0.85 0.0 0 0 22.74 53.17
  Q 18.76 53.04 18.76 51.61
  L 19.77 51.99
  A 0.68 0.68 0.0 0 0 20.60 51.66
  Q 21.20 50.48 21.29 49.37
  Q 21.35 48.75 22.08 48.86
  A 0.44 0.43 -67.2 0 1 22.36 49.55
  Q 21.08 51.28 23.05 52.23
  A 0.37 0.37 0.0 0 0 23.58 51.90
  L 23.58 49.43
  A 0.92 0.91 -73.3 0 0 23.18 48.67
  L 17.68 44.85
  A 0.47 0.47 0.0 0 1 17.56 44.20
  Q 18.26 43.18 19.14 43.26
  A 0.38 0.38 0.0 0 1 19.38 43.37
  L 20.24 44.25
  A 0.42 0.41 31.0 0 0 20.93 44.08
  Q 21.60 41.91 23.28 40.36
  A 0.42 0.42 0.0 0 0 23.11 39.65
  Q 21.19 39.11 18.77 39.44
  A 1.21 1.16 56.5 0 1 17.93 39.25
  Q 17.50 38.97 17.03 38.28
  A 0.87 0.86 -40.1 0 0 15.68 38.17
  Q 13.94 40.01 13.87 41.94
  A 0.43 0.38 62.9 0 1 13.82 42.14
  L 12.94 44.04
  A 1.18 1.17 -47.8 0 0 12.99 45.13
  Q 13.39 45.82 13.66 47.31
  A 1.02 1.00 -84.1 0 0 14.26 48.06
  L 17.76 49.54
  A 0.88 0.88 0.0 0 1 18.29 50.19
  L 18.53 51.41
  Q 11.03 49.15 12.11 43.09
  L 12.82 39.74
  A 2.01 1.95 44.1 0 0 12.79 38.80
  Q 12.14 36.35 12.57 32.21
  A 0.13 0.12 -20.8 0 1 12.62 32.11
  Q 15.74 29.48 19.43 29.46
  Q 20.33 29.45 25.25 27.75
  A 3.29 2.91 30.1 0 1 26.00 27.60
  Q 28.62 27.43 32.34 29.33
  A 0.68 0.67 -55.4 0 1 32.53 30.39
  Q 31.19 31.87 29.09 35.32
  Q 27.52 37.88 26.83 40.73
  Q 25.75 45.14 25.83 49.77
  Q 25.86 51.47 23.89 56.22
  Z"
/>
<path fill="#aea49f" d="
  M 100.48 39.31
  L 103.98 53.32
  Q 106.89 60.81 105.38 68.26
  L 104.83 59.74
  A 0.23 0.22 -16.5 0 0 104.49 59.56
  L 102.81 60.53
  A 0.42 0.41 75.0 0 0 102.61 60.89
  C 102.70 65.36 100.49 67.68 97.38 70.40
  A 3.64 3.58 -5.3 0 0 96.73 71.17
  Q 92.61 77.72 89.74 85.09
  L 88.54 85.49
  Q 84.37 86.64 81.77 88.59
  L 71.56 91.51
  A 4.66 4.62 -51.0 0 1 69.91 91.69
  L 64.54 91.30
  Q 64.25 90.97 64.23 90.59
  L 75.04 88.72
  L 76.35 88.38
  A 0.75 0.75 0.0 0 0 76.10 86.91
  Q 71.62 87.34 68.28 84.56
  C 73.97 84.16 79.87 80.80 84.98 77.73
  Q 86.86 76.60 87.60 75.28
  A 1.17 1.16 -82.7 0 0 86.29 73.58
  L 80.81 75.04
  Q 80.84 73.46 81.68 71.89
  A 2.87 2.77 59.7 0 0 82.00 70.58
  L 82.00 68.64
  A 0.88 0.87 88.6 0 1 82.83 67.76
  Q 83.82 67.70 84.29 66.46
  A 1.31 1.30 -81.3 0 1 85.43 65.62
  L 91.16 65.31
  A 1.20 1.20 0.0 0 1 91.77 67.57
  Q 91.70 67.60 90.70 66.87
  A 0.25 0.24 -46.0 0 0 90.40 66.88
  L 90.20 67.04
  A 0.39 0.39 0.0 0 0 90.15 67.59
  Q 91.55 69.24 92.81 69.82
  A 2.57 2.19 -60.5 0 0 95.74 68.75
  Q 96.32 67.85 95.16 66.14
  A 0.43 0.42 -40.6 0 1 95.21 65.59
  L 95.22 65.58
  A 0.46 0.46 0.0 0 1 95.87 65.57
  L 98.31 67.99
  A 0.79 0.79 0.0 0 0 99.53 66.99
  Q 99.51 66.96 98.46 65.87
  Q 98.11 65.50 98.11 65.18
  A 0.28 0.28 0.0 0 1 98.60 64.99
  Q 99.48 66.05 100.38 65.70
  A 1.06 1.06 0.0 0 0 101.01 64.95
  Q 101.31 63.60 102.32 62.70
  A 0.89 0.89 0.0 0 0 102.50 61.57
  L 101.76 60.28
  A 0.52 0.51 -9.4 0 1 102.31 59.52
  L 102.74 59.60
  A 0.60 0.59 85.9 0 0 103.41 58.82
  Q 103.32 58.54 103.11 58.26
  A 0.72 0.71 52.3 0 1 103.23 57.27
  Q 103.30 57.21 103.47 57.08
  A 0.64 0.63 60.5 0 0 103.67 56.34
  L 101.04 50.04
  L 98.16 36.72
  L 100.48 39.31
  Z"
/>
<path fill="#4a4949" d="
  M 18.76 51.61
  Q 18.58 51.40 18.53 51.41
  L 18.29 50.19
  A 0.88 0.88 0.0 0 0 17.76 49.54
  L 14.26 48.06
  A 1.02 1.00 -84.1 0 1 13.66 47.31
  Q 13.39 45.82 12.99 45.13
  A 1.18 1.17 -47.8 0 1 12.94 44.04
  L 13.82 42.14
  A 0.43 0.38 62.9 0 0 13.87 41.94
  Q 13.94 40.01 15.68 38.17
  A 0.87 0.86 -40.1 0 1 17.03 38.28
  Q 17.50 38.97 17.93 39.25
  A 1.21 1.16 56.5 0 0 18.77 39.44
  Q 21.19 39.11 23.11 39.65
  A 0.42 0.42 0.0 0 1 23.28 40.36
  Q 21.60 41.91 20.93 44.08
  A 0.42 0.41 31.0 0 1 20.24 44.25
  L 19.38 43.37
  A 0.38 0.38 0.0 0 0 19.14 43.26
  Q 18.26 43.18 17.56 44.20
  A 0.47 0.47 0.0 0 0 17.68 44.85
  L 23.18 48.67
  A 0.92 0.91 -73.3 0 1 23.58 49.43
  L 23.58 51.90
  A 0.37 0.37 0.0 0 1 23.05 52.23
  Q 21.08 51.28 22.36 49.55
  A 0.44 0.43 -67.2 0 0 22.08 48.86
  Q 21.35 48.75 21.29 49.37
  Q 21.20 50.48 20.60 51.66
  A 0.68 0.68 0.0 0 1 19.77 51.99
  L 18.76 51.61
  Z"
/>
<path fill="#eaf3f7" d="
  M 12.11 43.09
  Q 11.03 49.15 18.53 51.41
  Q 18.58 51.40 18.76 51.61
  Q 18.76 53.04 22.74 53.17
  A 0.85 0.85 0.0 0 1 23.56 53.90
  L 23.89 56.22
  C 23.96 68.04 25.43 80.01 31.94 90.09
  L 30.21 92.68
  Q 25.99 100.27 21.53 108.49
  Q 16.02 118.66 11.95 129.48
  Q 11.09 131.77 10.78 134.00
  L 7.22 144.00
  L 0.00 144.00
  L 0.00 70.04
  Q 6.33 59.90 10.99 48.95
  A 1.03 1.03 0.0 0 0 10.95 48.05
  C 9.25 44.81 10.54 42.55 11.10 39.54
  L 10.37 46.47
  A 0.24 0.23 -85.1 0 0 10.58 46.73
  L 10.86 46.77
  A 0.51 0.51 0.0 0 0 11.40 46.38
  L 12.11 43.09
  Z"
/>
<path fill="#000000" d="
  M 90.94 53.03
  Q 91.68 53.87 94.55 54.74
  A 0.07 0.05 34.0 0 1 94.59 54.85
  Q 94.57 54.86 94.55 54.88
  A 0.13 0.12 -69.2 0 1 94.45 54.93
  L 90.90 54.61
  A 0.69 0.68 13.4 0 0 90.21 55.03
  Q 90.20 55.07 90.14 55.31
  A 0.34 0.33 3.4 0 1 89.84 55.57
  L 86.38 55.89
  A 1.27 1.25 59.9 0 1 85.54 55.66
  Q 83.84 54.42 81.57 54.23
  A 0.38 0.38 0.0 0 1 81.36 53.55
  L 82.89 52.30
  A 1.87 1.87 0.0 0 0 83.58 50.85
  C 83.61 46.35 77.08 41.57 74.79 47.68
  A 0.36 0.36 0.0 0 0 75.34 48.10
  Q 76.54 47.24 78.26 46.80
  A 0.39 0.39 0.0 0 1 78.58 47.50
  Q 78.00 47.93 78.16 48.53
  A 0.70 0.65 44.0 0 0 79.48 48.56
  Q 79.49 48.52 79.41 47.78
  A 0.35 0.35 0.0 0 1 79.92 47.44
  Q 82.19 48.65 80.88 51.66
  A 1.68 1.68 0.0 0 1 78.37 52.35
  C 75.07 49.97 71.73 49.73 72.26 44.47
  A 0.77 0.73 67.7 0 1 72.41 44.08
  L 74.75 40.70
  A 1.24 1.13 -83.7 0 1 75.17 40.33
  Q 76.64 39.57 78.58 39.61
  A 1.03 1.01 -20.5 0 1 79.30 39.93
  L 82.28 43.03
  A 1.22 1.21 -66.4 0 1 82.61 43.89
  Q 82.58 45.33 84.04 45.22
  A 1.11 1.09 -12.4 0 1 85.15 45.92
  Q 85.45 46.74 90.94 53.03
  Z"
/>
<path fill="#f9f7f5" d="
  M 58.14 49.03
  Q 59.18 52.11 57.20 54.74
  A 1.48 1.44 64.4 0 0 56.90 55.63
  L 56.88 58.65
  Q 55.40 59.24 55.19 60.74
  A 1.33 1.30 -57.3 0 0 55.38 61.66
  C 58.63 66.70 62.84 68.73 68.55 70.41
  A 1.62 1.60 36.5 0 0 69.86 70.22
  C 73.67 67.75 75.61 64.52 77.95 59.32
  Q 78.74 59.46 79.02 60.58
  L 75.24 66.28
  Q 74.54 69.24 72.28 70.36
  C 67.76 72.62 64.03 70.50 59.52 67.75
  Q 55.05 65.02 52.88 59.93
  A 0.52 0.51 -29.6 0 0 52.10 59.72
  Q 49.56 61.59 46.50 62.57
  Q 47.41 61.59 50.37 59.36
  Q 52.64 57.66 55.87 52.80
  A 2.03 1.92 64.6 0 0 56.19 51.82
  C 56.31 49.35 55.12 44.97 52.34 43.92
  Q 50.86 43.36 50.21 42.88
  A 1.16 1.15 56.7 0 0 49.26 42.68
  Q 44.64 43.71 43.34 48.46
  Q 42.39 51.93 41.22 55.21
  Q 39.50 45.52 48.07 40.50
  A 1.07 1.06 -49.2 0 1 48.98 40.43
  Q 55.19 42.83 58.14 49.03
  Z"
/>
<path fill="#000000" d="
  M 46.50 62.57
  L 41.55 65.16
  A 1.75 1.69 -58.6 0 1 40.79 65.36
  Q 39.41 65.41 36.71 66.68
  A 0.79 0.78 -11.5 0 1 35.59 65.94
  C 35.62 65.20 36.29 64.19 36.96 63.70
  Q 41.06 60.73 41.22 55.21
  Q 42.39 51.93 43.34 48.46
  Q 44.64 43.71 49.26 42.68
  A 1.16 1.15 56.7 0 1 50.21 42.88
  Q 50.86 43.36 52.34 43.92
  C 55.12 44.97 56.31 49.35 56.19 51.82
  A 2.03 1.92 64.6 0 1 55.87 52.80
  Q 52.64 57.66 50.37 59.36
  Q 47.41 61.59 46.50 62.57
  Z
  M 54.20 52.09
  Q 53.35 49.50 51.84 49.29
  C 46.36 48.52 43.68 58.52 49.93 58.60
  A 0.69 0.69 0.0 0 0 50.16 57.26
  C 45.39 55.67 49.49 48.75 53.54 52.52
  A 0.41 0.41 0.0 0 0 54.20 52.09
  Z"
/>
<path fill="#d4d1cf" d="
  M 68.56 57.66
  Q 66.69 58.14 67.06 59.89
  A 1.34 1.34 0.0 0 1 65.50 61.49
  Q 60.31 60.53 56.88 58.65
  L 56.90 55.63
  A 1.48 1.44 64.4 0 1 57.20 54.74
  Q 59.18 52.11 58.14 49.03
  Q 59.99 47.18 62.28 46.94
  A 1.06 1.03 -72.4 0 0 62.99 46.56
  Q 63.32 46.17 63.63 46.13
  A 0.80 0.79 75.2 0 1 64.48 46.63
  Q 66.02 50.65 68.98 54.21
  A 1.10 1.10 0.0 0 1 68.38 55.98
  L 66.36 56.46
  A 0.49 0.49 0.0 0 0 66.22 57.35
  Q 67.08 57.85 68.56 57.66
  Z"
/>
<path fill="#000000" d="
  M 144.00 76.46
  L 144.00 97.11
  L 143.29 99.90
  A 0.85 0.85 0.0 0 1 141.77 100.17
  Q 140.41 98.16 137.91 98.39
  A 1.04 1.01 -21.7 0 1 137.02 98.02
  Q 136.46 97.32 135.45 97.12
  A 0.51 0.51 0.0 0 0 134.85 97.64
  Q 134.89 98.70 134.16 98.70
  A 0.95 0.86 -28.0 0 1 133.72 98.59
  Q 130.05 96.57 129.27 96.59
  Q 126.13 96.70 123.03 96.57
  Q 123.64 95.01 124.76 94.03
  A 0.84 0.83 -54.3 0 1 125.65 93.88
  L 128.03 94.88
  A 0.68 0.68 0.0 0 0 128.90 94.58
  Q 129.58 93.33 131.51 92.16
  A 1.51 1.48 84.7 0 0 132.13 91.40
  Q 132.14 91.38 132.22 91.14
  A 0.63 0.62 -69.4 0 1 133.04 90.76
  Q 135.36 91.70 138.27 91.64
  A 1.36 1.32 -65.4 0 0 139.12 91.31
  C 141.96 88.90 142.46 84.38 141.90 80.99
  Q 141.70 79.81 142.29 78.56
  C 142.94 77.20 142.04 75.92 141.39 74.45
  Q 138.65 68.22 134.78 65.20
  Q 133.08 63.88 128.18 62.48
  C 126.76 62.07 125.75 60.77 124.30 61.34
  A 0.65 0.65 0.0 0 0 124.35 62.57
  Q 126.53 63.23 127.87 64.31
  A 0.30 0.30 0.0 0 1 127.65 64.84
  L 126.83 64.74
  A 0.39 0.39 0.0 0 0 126.41 65.21
  C 126.94 67.73 128.49 68.72 129.50 70.85
  Q 130.69 73.35 133.88 75.88
  A 1.71 1.71 0.0 0 1 134.32 78.05
  L 131.41 83.36
  A 2.11 2.10 -5.5 0 1 130.92 83.95
  L 129.43 85.16
  A 1.89 1.85 -17.0 0 0 128.75 86.41
  L 128.47 88.91
  A 1.00 1.00 0.0 0 1 127.81 89.74
  C 125.37 90.59 124.35 89.50 123.81 92.86
  A 0.64 0.62 2.2 0 1 123.23 93.38
  L 122.97 93.37
  A 0.30 0.29 -2.2 0 1 122.68 93.11
  L 122.44 91.17
  A 1.39 1.36 -71.7 0 0 122.05 90.37
  Q 120.34 88.63 118.41 87.79
  A 1.26 1.22 -0.5 0 0 116.75 89.43
  Q 117.41 90.78 116.48 91.86
  L 114.07 91.05
  A 1.19 1.19 0.0 0 0 113.02 91.19
  Q 112.04 91.85 110.78 91.12
  A 1.36 1.34 43.9 0 0 109.40 91.14
  Q 107.51 92.29 106.27 90.92
  A 0.49 0.48 -35.2 0 0 105.66 90.82
  L 104.47 91.51
  A 0.32 0.28 32.8 0 1 104.27 91.54
  L 99.30 90.59
  A 0.59 0.59 0.0 0 0 98.60 91.06
  L 98.51 91.51
  A 0.85 0.84 -1.7 0 1 97.88 92.17
  L 91.06 93.78
  A 0.22 0.22 0.0 0 1 90.89 93.38
  Q 91.45 93.01 92.85 92.37
  A 0.53 0.53 0.0 0 0 92.83 91.39
  Q 92.56 91.28 91.92 91.45
  A 0.84 0.83 1.3 0 0 91.35 91.99
  Q 90.96 93.08 90.30 93.44
  A 0.24 0.24 0.0 0 0 90.21 93.79
  C 90.47 94.18 90.41 94.06 90.11 94.38
  Q 88.82 95.74 87.79 94.82
  A 0.77 0.76 -37.5 0 0 86.93 94.71
  L 81.41 97.47
  A 2.19 1.99 -61.9 0 1 81.02 97.61
  C 78.46 98.21 76.30 98.35 75.18 99.59
  Q 74.17 100.71 74.78 101.76
  A 0.47 0.47 0.0 0 1 74.32 102.47
  L 73.39 102.36
  A 1.76 1.72 -57.6 0 0 72.29 102.62
  Q 69.02 104.71 67.03 107.53
  A 0.55 0.54 -48.7 0 1 66.19 107.59
  Q 65.34 106.66 64.45 106.39
  A 0.35 0.35 0.0 0 0 64.00 106.65
  L 63.87 107.33
  A 0.05 0.03 -80.8 0 0 63.89 107.37
  Q 64.91 108.00 65.20 108.66
  A 0.48 0.47 -27.9 0 1 65.01 109.25
  C 61.96 111.14 59.30 114.93 56.36 117.19
  C 52.70 119.99 50.39 122.85 46.51 125.30
  Q 43.78 127.02 42.99 128.74
  A 1.16 1.15 7.0 0 1 42.15 129.39
  Q 40.53 129.67 39.00 132.21
  Q 36.00 137.19 36.46 139.35
  A 0.19 0.18 10.0 0 1 36.18 139.54
  L 34.18 138.39
  A 0.51 0.51 0.0 0 0 33.43 138.95
  L 33.56 139.49
  A 1.30 1.29 -4.8 0 0 34.74 140.48
  Q 35.83 140.55 36.77 140.97
  A 0.84 0.82 48.7 0 0 37.30 141.01
  L 44.96 139.20
  A 1.86 1.80 22.8 0 0 45.45 139.01
  L 49.06 136.93
  A 0.39 0.39 0.0 0 1 49.64 137.29
  Q 49.58 138.15 48.63 139.24
  A 0.24 0.23 2.0 0 0 48.95 139.58
  Q 49.24 139.36 50.32 138.19
  A 0.40 0.40 0.0 0 1 50.85 138.13
  L 51.08 138.29
  A 0.53 0.53 0.0 0 1 51.24 139.00
  L 50.04 141.08
  A 1.26 1.25 15.7 0 0 51.10 142.96
  Q 54.46 143.03 56.00 141.90
  A 1.69 1.66 25.8 0 1 56.97 141.57
  Q 59.64 141.51 59.59 142.38
  A 0.30 0.30 0.0 0 0 59.86 142.69
  L 63.24 143.07
  A 0.16 0.16 0.0 0 1 63.36 143.31
  L 63.17 143.64
  A 0.22 0.21 17.7 0 1 62.95 143.75
  Q 60.04 143.24 57.25 144.00
  L 11.92 144.00
  Q 19.14 139.52 14.98 133.79
  A 0.28 0.28 0.0 0 0 14.49 133.85
  Q 13.45 136.33 12.86 136.86
  Q 9.74 139.62 8.98 144.00
  L 7.22 144.00
  L 10.78 134.00
  Q 15.86 131.55 18.50 126.44
  A 1.64 1.63 -36.0 0 0 18.66 125.45
  Q 18.47 124.24 17.55 122.68
  A 1.42 1.42 0.0 0 1 17.87 120.85
  L 22.73 116.89
  A 0.55 0.52 -67.3 0 1 23.00 116.77
  L 28.99 115.77
  A 1.51 1.50 -28.2 0 1 30.23 116.14
  Q 31.45 117.27 31.12 119.58
  A 0.62 0.61 79.0 0 1 30.82 120.03
  L 27.48 121.96
  A 0.64 0.63 65.8 0 0 27.19 122.73
  L 28.65 127.04
  L 28.63 129.41
  C 26.43 130.50 21.91 133.10 19.53 132.75
  A 0.63 0.63 0.0 0 0 18.84 133.58
  Q 19.49 135.41 20.87 136.78
  A 0.98 0.96 25.8 0 1 21.15 137.57
  L 20.84 140.37
  A 0.68 0.68 0.0 0 0 21.45 141.13
  L 32.37 142.35
  A 0.68 0.68 0.0 0 0 32.83 141.11
  L 31.29 140.04
  A 1.41 1.41 0.0 0 1 31.39 137.66
  L 34.45 135.89
  A 0.73 0.72 83.4 0 0 34.81 135.43
  Q 36.08 130.67 35.86 126.40
  A 0.98 0.96 70.5 0 1 36.25 125.56
  Q 37.57 124.60 38.46 123.12
  A 0.65 0.65 0.0 0 1 39.33 122.89
  Q 40.08 123.30 40.42 124.12
  A 0.79 0.79 0.0 0 0 41.94 123.90
  L 42.41 119.67
  A 0.37 0.37 0.0 0 1 43.10 119.53
  L 44.34 121.67
  A 0.83 0.82 -44.9 0 0 45.77 121.67
  L 46.34 120.69
  A 1.70 1.69 -47.0 0 0 46.28 118.91
  Q 45.52 117.78 45.37 116.72
  A 0.86 0.85 71.8 0 1 45.79 115.87
  L 48.07 114.55
  A 0.63 0.63 0.0 0 0 48.37 113.87
  L 47.66 110.89
  A 0.79 0.79 0.0 0 1 49.11 110.31
  L 49.87 111.63
  A 0.74 0.73 -21.4 0 0 50.67 111.97
  L 56.79 110.52
  A 0.88 0.88 0.0 0 0 57.47 109.70
  Q 57.74 104.34 55.01 99.37
  A 0.52 0.52 0.0 0 0 54.10 99.36
  L 50.12 106.25
  A 1.04 1.03 32.3 0 1 48.63 106.58
  L 43.62 103.09
  A 2.44 2.42 -69.7 0 1 42.59 100.82
  L 43.10 96.25
  A 0.46 0.46 0.0 0 0 42.21 96.02
  L 38.68 104.38
  A 0.47 0.46 17.2 0 0 39.02 105.02
  L 40.85 105.38
  A 0.87 0.87 0.0 0 1 41.24 106.91
  L 36.64 110.66
  A 0.76 0.76 0.0 0 1 35.87 110.78
  L 34.21 110.08
  A 0.46 0.45 -75.2 0 0 33.58 110.45
  L 33.37 112.31
  A 0.95 0.94 -71.9 0 1 31.96 113.03
  L 28.46 111.01
  A 0.77 0.76 -49.3 0 0 27.60 111.08
  L 26.21 112.21
  A 0.34 0.34 0.0 0 1 25.66 111.90
  Q 26.59 105.22 31.03 98.89
  A 0.88 0.82 8.6 0 1 31.54 98.54
  L 35.59 97.58
  A 1.13 1.12 -21.1 0 0 36.32 95.94
  Q 34.63 92.87 30.21 92.68
  L 31.94 90.09
  Q 33.82 91.24 35.29 91.54
  Q 38.18 93.54 41.26 93.44
  Q 44.88 94.63 48.16 92.84
  A 1.11 1.08 36.0 0 1 48.93 92.73
  Q 50.65 93.11 52.04 92.88
  A 1.84 1.77 19.5 0 0 52.92 92.48
  Q 54.88 90.87 56.55 91.82
  A 3.39 3.06 41.4 0 0 59.97 91.78
  Q 61.56 90.70 64.54 91.30
  L 69.91 91.69
  A 4.66 4.62 -51.0 0 0 71.56 91.51
  L 81.77 88.59
  L 77.30 93.85
  A 1.13 1.06 11.9 0 0 78.49 95.56
  Q 78.69 95.51 79.36 94.53
  A 0.89 0.89 0.0 0 1 80.21 94.15
  Q 85.20 94.78 89.66 92.47
  A 1.64 1.61 -3.4 0 0 90.41 91.64
  C 91.06 90.03 88.93 87.67 87.38 87.21
  A 0.46 0.45 -62.6 0 1 87.16 86.50
  Q 87.59 85.95 88.54 85.49
  L 89.74 85.09
  Q 92.25 83.29 94.92 82.48
  A 3.46 3.44 20.4 0 0 95.82 82.07
  C 98.32 80.45 100.73 79.42 103.36 76.30
  A 4.42 4.36 75.2 0 0 104.10 75.01
  L 106.04 69.55
  Q 107.55 69.66 108.93 69.12
  A 0.87 0.85 -12.4 0 0 109.48 68.28
  Q 109.39 66.43 111.04 66.21
  A 0.61 0.60 1.9 0 0 111.57 65.72
  L 112.94 58.59
  A 0.33 0.33 0.0 0 0 112.94 58.43
  L 112.03 54.58
  A 0.14 0.14 0.0 0 1 112.19 54.41
  L 113.50 54.66
  A 0.56 0.56 0.0 0 0 114.16 54.23
  Q 114.31 53.54 114.80 50.78
  Q 115.12 48.95 116.98 48.11
  A 0.67 0.67 0.0 0 1 117.77 48.29
  L 118.85 49.61
  A 0.52 0.52 0.0 0 0 119.59 49.69
  L 120.99 48.55
  A 0.11 0.10 63.6 0 1 121.16 48.61
  L 121.53 50.17
  A 0.79 0.75 -78.0 0 0 121.78 50.58
  Q 124.28 52.69 125.23 55.14
  A 2.71 2.54 -55.0 0 1 125.39 56.25
  L 125.17 59.50
  A 0.76 0.75 -87.0 0 0 125.89 60.31
  Q 127.23 60.37 128.07 60.92
  Q 129.00 61.55 130.14 61.86
  Q 136.80 63.68 140.31 69.82
  C 141.73 72.31 142.90 74.19 144.00 76.46
  Z
  M 117.05 85.34
  Q 115.45 83.05 115.88 81.05
  A 1.35 1.25 -48.1 0 0 115.87 80.52
  L 114.59 75.11
  A 0.36 0.36 0.0 0 1 114.59 74.99
  L 115.17 70.45
  A 0.43 0.43 0.0 0 0 114.52 70.03
  C 112.47 71.24 111.88 74.08 112.19 76.42
  A 0.47 0.47 0.0 0 1 111.67 76.94
  Q 110.71 76.83 110.04 76.51
  A 0.62 0.62 0.0 0 0 109.18 77.25
  C 109.59 78.59 109.80 79.04 109.67 80.32
  Q 109.46 82.29 110.46 84.27
  A 1.79 1.75 -62.8 0 1 110.63 84.82
  L 111.13 88.49
  A 1.58 1.57 7.6 0 0 112.08 89.73
  L 112.65 89.97
  A 0.41 0.41 0.0 0 0 113.19 89.46
  L 111.94 85.90
  A 0.88 0.87 -20.0 0 1 112.47 84.78
  L 112.81 84.67
  A 0.96 0.96 0.0 0 0 113.45 83.71
  Q 113.42 83.07 113.19 82.62
  A 0.28 0.28 0.0 0 1 113.34 82.23
  L 113.70 82.11
  A 0.28 0.28 0.0 0 1 114.06 82.27
  Q 114.98 84.51 116.62 85.75
  A 0.30 0.30 0.0 0 0 117.05 85.34
  Z"
/>
<path fill="#f9f7f5" d="
  M 54.20 52.09
  A 0.41 0.41 0.0 0 1 53.54 52.52
  C 49.49 48.75 45.39 55.67 50.16 57.26
  A 0.69 0.69 0.0 0 1 49.93 58.60
  C 43.68 58.52 46.36 48.52 51.84 49.29
  Q 53.35 49.50 54.20 52.09
  Z"
/>
<path fill="#d4d1cf" d="
  M 80.81 75.04
  Q 80.04 75.97 78.45 75.46
  A 1.09 1.09 0.0 0 0 77.09 76.86
  L 77.70 78.60
  A 1.03 1.03 0.0 0 1 77.33 79.78
  Q 74.61 81.69 71.59 82.56
  Q 69.15 83.26 65.85 82.28
  A 0.74 0.74 0.0 0 1 65.32 81.60
  L 65.29 80.97
  Q 65.45 80.50 65.91 80.23
  A 1.06 1.03 33.4 0 1 66.58 80.10
  Q 68.71 80.38 70.11 79.85
  Q 72.60 78.90 74.75 77.84
  A 1.11 1.11 0.0 0 0 75.30 77.22
  L 75.56 76.49
  A 0.45 0.45 0.0 0 0 75.10 75.90
  L 72.79 76.08
  Q 73.91 71.31 78.06 69.15
  C 80.24 68.02 81.05 67.45 82.41 66.03
  A 1.17 1.17 0.0 0 0 80.93 64.23
  Q 78.75 65.61 75.24 66.28
  L 79.02 60.58
  Q 80.09 60.92 80.15 61.92
  A 0.52 0.51 -8.4 0 0 80.79 62.39
  L 83.77 61.69
  A 0.54 0.53 6.1 0 0 84.12 61.41
  Q 84.99 59.73 83.63 58.89
  A 1.03 0.84 64.8 0 0 83.38 58.77
  L 78.02 57.00
  L 77.47 56.36
  C 80.74 55.34 83.12 56.21 86.37 56.75
  C 91.05 57.52 95.63 57.04 100.35 58.42
  A 0.71 0.71 0.0 0 0 101.23 57.55
  Q 100.23 53.97 101.04 50.04
  L 103.67 56.34
  A 0.64 0.63 60.5 0 1 103.47 57.08
  Q 103.30 57.21 103.23 57.27
  A 0.72 0.71 52.3 0 0 103.11 58.26
  Q 103.32 58.54 103.41 58.82
  A 0.60 0.59 85.9 0 1 102.74 59.60
  L 102.31 59.52
  A 0.52 0.51 -9.4 0 0 101.76 60.28
  L 102.50 61.57
  A 0.89 0.89 0.0 0 1 102.32 62.70
  Q 101.31 63.60 101.01 64.95
  A 1.06 1.06 0.0 0 1 100.38 65.70
  Q 99.48 66.05 98.60 64.99
  A 0.28 0.28 0.0 0 0 98.11 65.18
  Q 98.11 65.50 98.46 65.87
  Q 99.51 66.96 99.53 66.99
  A 0.79 0.79 0.0 0 1 98.31 67.99
  L 95.87 65.57
  A 0.46 0.46 0.0 0 0 95.22 65.58
  L 95.21 65.59
  A 0.43 0.42 -40.6 0 0 95.16 66.14
  Q 96.32 67.85 95.74 68.75
  A 2.57 2.19 -60.5 0 1 92.81 69.82
  Q 91.55 69.24 90.15 67.59
  A 0.39 0.39 0.0 0 1 90.20 67.04
  L 90.40 66.88
  A 0.25 0.24 -46.0 0 1 90.70 66.87
  Q 91.70 67.60 91.77 67.57
  A 1.20 1.20 0.0 0 0 91.16 65.31
  L 85.43 65.62
  A 1.31 1.30 -81.3 0 0 84.29 66.46
  Q 83.82 67.70 82.83 67.76
  A 0.88 0.87 88.6 0 0 82.00 68.64
  L 82.00 70.58
  A 2.87 2.77 59.7 0 1 81.68 71.89
  Q 80.84 73.46 80.81 75.04
  Z"
/>
<path fill="#000000" d="
  M 77.47 56.36
  L 78.02 57.00
  L 77.95 59.32
  C 75.61 64.52 73.67 67.75 69.86 70.22
  A 1.62 1.60 36.5 0 1 68.55 70.41
  C 62.84 68.73 58.63 66.70 55.38 61.66
  A 1.33 1.30 -57.3 0 1 55.19 60.74
  Q 55.40 59.24 56.88 58.65
  Q 60.31 60.53 65.50 61.49
  A 1.34 1.34 0.0 0 0 67.06 59.89
  Q 66.69 58.14 68.56 57.66
  Q 70.74 57.49 73.61 56.11
  Q 75.48 55.21 77.47 56.36
  Z"
/>
<path fill="#aea49f" d="
  M 79.02 60.58
  Q 78.74 59.46 77.95 59.32
  L 78.02 57.00
  L 83.38 58.77
  A 1.03 0.84 64.8 0 1 83.63 58.89
  Q 84.99 59.73 84.12 61.41
  A 0.54 0.53 6.1 0 1 83.77 61.69
  L 80.79 62.39
  A 0.52 0.51 -8.4 0 1 80.15 61.92
  Q 80.09 60.92 79.02 60.58
  Z"
/>
<path fill="#a0968f" d="
  M 105.38 68.26
  Q 105.31 69.17 106.04 69.55
  L 104.10 75.01
  A 4.42 4.36 75.2 0 1 103.36 76.30
  C 100.73 79.42 98.32 80.45 95.82 82.07
  A 3.46 3.44 20.4 0 1 94.92 82.48
  Q 92.25 83.29 89.74 85.09
  Q 92.61 77.72 96.73 71.17
  A 3.64 3.58 -5.3 0 1 97.38 70.40
  C 100.49 67.68 102.70 65.36 102.61 60.89
  A 0.42 0.41 75.0 0 1 102.81 60.53
  L 104.49 59.56
  A 0.23 0.22 -16.5 0 1 104.83 59.74
  L 105.38 68.26
  Z"
/>
<path fill="#222221" d="
  M 123.03 96.57
  Q 122.33 96.23 121.54 96.56
  L 116.48 91.86
  Q 117.41 90.78 116.75 89.43
  A 1.26 1.22 -0.5 0 1 118.41 87.79
  Q 120.34 88.63 122.05 90.37
  A 1.39 1.36 -71.7 0 1 122.44 91.17
  L 122.68 93.11
  A 0.30 0.29 -2.2 0 0 122.97 93.37
  L 123.23 93.38
  A 0.64 0.62 2.2 0 0 123.81 92.86
  C 124.35 89.50 125.37 90.59 127.81 89.74
  A 1.00 1.00 0.0 0 0 128.47 88.91
  L 128.75 86.41
  A 1.89 1.85 -17.0 0 1 129.43 85.16
  L 130.92 83.95
  A 2.11 2.10 -5.5 0 0 131.41 83.36
  L 134.32 78.05
  A 1.71 1.71 0.0 0 0 133.88 75.88
  Q 130.69 73.35 129.50 70.85
  C 128.49 68.72 126.94 67.73 126.41 65.21
  A 0.39 0.39 0.0 0 1 126.83 64.74
  L 127.65 64.84
  A 0.30 0.30 0.0 0 0 127.87 64.31
  Q 126.53 63.23 124.35 62.57
  A 0.65 0.65 0.0 0 1 124.30 61.34
  C 125.75 60.77 126.76 62.07 128.18 62.48
  Q 133.08 63.88 134.78 65.20
  Q 138.65 68.22 141.39 74.45
  C 142.04 75.92 142.94 77.20 142.29 78.56
  Q 141.70 79.81 141.90 80.99
  C 142.46 84.38 141.96 88.90 139.12 91.31
  A 1.36 1.32 -65.4 0 1 138.27 91.64
  Q 135.36 91.70 133.04 90.76
  A 0.63 0.62 -69.4 0 0 132.22 91.14
  Q 132.14 91.38 132.13 91.40
  A 1.51 1.48 84.7 0 1 131.51 92.16
  Q 129.58 93.33 128.90 94.58
  A 0.68 0.68 0.0 0 1 128.03 94.88
  L 125.65 93.88
  A 0.84 0.83 -54.3 0 0 124.76 94.03
  Q 123.64 95.01 123.03 96.57
  Z"
/>
<path fill="#4a4949" d="
  M 117.05 85.34
  A 0.30 0.30 0.0 0 1 116.62 85.75
  Q 114.98 84.51 114.06 82.27
  A 0.28 0.28 0.0 0 0 113.70 82.11
  L 113.34 82.23
  A 0.28 0.28 0.0 0 0 113.19 82.62
  Q 113.42 83.07 113.45 83.71
  A 0.96 0.96 0.0 0 1 112.81 84.67
  L 112.47 84.78
  A 0.88 0.87 -20.0 0 0 111.94 85.90
  L 113.19 89.46
  A 0.41 0.41 0.0 0 1 112.65 89.97
  L 112.08 89.73
  A 1.58 1.57 7.6 0 1 111.13 88.49
  L 110.63 84.82
  A 1.79 1.75 -62.8 0 0 110.46 84.27
  Q 109.46 82.29 109.67 80.32
  C 109.80 79.04 109.59 78.59 109.18 77.25
  A 0.62 0.62 0.0 0 1 110.04 76.51
  Q 110.71 76.83 111.67 76.94
  A 0.47 0.47 0.0 0 0 112.19 76.42
  C 111.88 74.08 112.47 71.24 114.52 70.03
  A 0.43 0.43 0.0 0 1 115.17 70.45
  L 114.59 74.99
  A 0.36 0.36 0.0 0 0 114.59 75.11
  L 115.87 80.52
  A 1.35 1.25 -48.1 0 1 115.88 81.05
  Q 115.45 83.05 117.05 85.34
  Z"
/>
<path fill="#000000" d="
  M 68.28 84.56
  Q 63.28 84.50 60.29 83.49
  Q 54.83 81.63 49.79 78.77
  Q 48.43 77.99 47.70 77.85
  A 0.63 0.62 40.9 0 1 47.61 76.65
  Q 48.33 76.39 49.52 76.53
  Q 52.48 76.87 53.96 76.57
  A 0.63 0.62 -39.2 0 1 54.29 76.60
  L 57.66 77.93
  A 1.75 1.73 44.3 0 0 58.99 77.92
  Q 60.16 77.43 60.61 77.60
  A 0.33 0.33 0.0 0 1 60.70 78.17
  Q 59.55 79.12 59.55 80.32
  Q 59.56 81.44 60.51 81.61
  Q 61.30 81.75 61.92 80.74
  L 62.73 81.93
  A 0.77 0.76 63.2 0 0 63.61 82.22
  Q 64.29 81.99 65.29 80.97
  L 65.32 81.60
  A 0.74 0.74 0.0 0 0 65.85 82.28
  Q 69.15 83.26 71.59 82.56
  Q 74.61 81.69 77.33 79.78
  A 1.03 1.03 0.0 0 0 77.70 78.60
  L 77.09 76.86
  A 1.09 1.09 0.0 0 1 78.45 75.46
  Q 80.04 75.97 80.81 75.04
  L 86.29 73.58
  A 1.17 1.16 -82.7 0 1 87.60 75.28
  Q 86.86 76.60 84.98 77.73
  C 79.87 80.80 73.97 84.16 68.28 84.56
  Z"
/>
<path fill="#402516" d="
  M 65.29 80.97
  Q 64.29 81.99 63.61 82.22
  A 0.77 0.76 63.2 0 1 62.73 81.93
  L 61.92 80.74
  Q 61.76 79.31 62.36 78.19
  A 1.04 1.03 10.2 0 1 63.14 77.65
  L 68.06 77.02
  A 1.15 1.12 -72.2 0 0 68.78 76.64
  Q 69.54 75.78 70.60 76.56
  A 0.95 0.94 49.9 0 0 71.59 76.65
  L 72.79 76.08
  L 75.10 75.90
  A 0.45 0.45 0.0 0 1 75.56 76.49
  L 75.30 77.22
  A 1.11 1.11 0.0 0 1 74.75 77.84
  Q 72.60 78.90 70.11 79.85
  Q 68.71 80.38 66.58 80.10
  A 1.06 1.03 33.4 0 0 65.91 80.23
  Q 65.45 80.50 65.29 80.97
  Z"
/>
<path fill="#222221" d="
  M 88.54 85.49
  Q 87.59 85.95 87.16 86.50
  A 0.46 0.45 -62.6 0 0 87.38 87.21
  C 88.93 87.67 91.06 90.03 90.41 91.64
  A 1.64 1.61 -3.4 0 1 89.66 92.47
  Q 85.20 94.78 80.21 94.15
  A 0.89 0.89 0.0 0 0 79.36 94.53
  Q 78.69 95.51 78.49 95.56
  A 1.13 1.06 11.9 0 1 77.30 93.85
  L 81.77 88.59
  Q 84.37 86.64 88.54 85.49
  Z"
/>
<path fill="#d4d1cf" d="
  M 75.04 88.72
  L 64.23 90.59
  L 54.80 89.78
  A 1.36 1.31 31.4 0 0 54.04 89.95
  L 51.07 91.58
  Q 50.86 89.99 51.32 89.17
  Q 51.76 88.39 53.49 88.50
  Q 64.27 89.20 75.04 88.72
  Z"
/>
<path fill="#a0968f" d="
  M 64.23 90.59
  Q 64.25 90.97 64.54 91.30
  Q 61.56 90.70 59.97 91.78
  A 3.39 3.06 41.4 0 1 56.55 91.82
  Q 54.88 90.87 52.92 92.48
  A 1.84 1.77 19.5 0 1 52.04 92.88
  Q 50.65 93.11 48.93 92.73
  A 1.11 1.08 36.0 0 0 48.16 92.84
  Q 44.88 94.63 41.26 93.44
  L 46.39 92.05
  A 1.99 1.87 -46.8 0 1 47.19 92.00
  Q 49.17 92.32 51.07 91.58
  L 54.04 89.95
  A 1.36 1.31 31.4 0 1 54.80 89.78
  L 64.23 90.59
  Z"
/>
<path fill="#f9f7f5" d="
  M 116.48 91.86
  L 121.54 96.56
  Q 126.58 100.37 131.85 103.90
  C 133.75 105.16 136.73 106.26 138.14 107.86
  Q 140.05 110.02 141.03 110.19
  C 142.51 110.44 143.15 111.39 143.38 112.89
  C 143.53 111.44 143.97 110.07 144.00 108.49
  L 144.00 132.26
  Q 141.44 132.74 139.30 134.23
  A 1.07 1.04 34.6 0 1 138.42 134.38
  L 136.23 133.76
  C 134.96 132.74 133.68 134.10 132.10 132.08
  A 0.63 0.56 -3.2 0 0 131.90 131.92
  L 124.35 128.26
  A 1.17 1.13 -3.8 0 1 123.91 127.89
  Q 122.94 126.41 120.61 124.99
  A 4.11 4.02 85.7 0 1 119.55 124.06
  Q 118.05 122.16 117.36 121.56
  Q 116.94 121.20 116.73 121.15
  Q 116.46 121.08 116.12 121.16
  A 0.52 0.51 -40.0 0 0 116.03 122.14
  Q 118.29 123.07 117.96 125.17
  Q 116.90 125.24 116.87 124.41
  A 0.59 0.58 17.7 0 0 116.63 123.96
  Q 115.42 123.04 113.58 122.67
  A 0.66 0.66 0.0 0 0 112.81 123.17
  Q 112.79 123.26 112.86 123.56
  A 0.45 0.45 0.0 0 1 112.48 124.10
  Q 111.85 124.21 111.46 125.35
  Q 111.88 123.83 110.74 122.96
  A 1.17 1.11 -75.1 0 0 108.95 124.06
  Q 109.01 124.60 108.97 124.76
  A 0.74 0.74 0.0 0 1 107.63 124.98
  Q 106.14 122.63 104.79 121.95
  A 0.42 0.42 0.0 0 0 104.27 122.59
  L 107.97 127.12
  A 0.53 0.52 36.8 0 1 108.05 127.64
  L 107.13 129.80
  A 0.92 0.91 10.8 0 1 106.30 130.36
  Q 105.42 130.38 104.79 129.47
  A 0.32 0.31 -54.4 0 0 104.23 129.57
  Q 103.87 130.82 104.01 131.26
  A 0.51 0.51 0.0 0 0 104.87 131.44
  Q 105.29 131.00 105.61 131.11
  A 1.00 0.98 -9.7 0 1 106.03 131.40
  L 109.94 136.14
  A 0.73 0.70 17.4 0 1 110.06 136.36
  Q 111.05 139.48 112.28 140.32
  A 0.32 0.32 0.0 0 1 112.18 140.90
  L 111.80 140.99
  A 0.86 0.84 88.1 0 0 111.16 141.69
  Q 110.92 143.35 112.18 143.85
  Q 112.27 143.93 112.36 144.00
  L 108.43 144.00
  Q 107.84 141.09 106.19 139.05
  A 0.57 0.57 0.0 0 1 106.74 138.13
  L 108.22 138.41
  A 0.49 0.49 0.0 0 0 108.80 137.88
  Q 108.72 137.16 108.18 136.64
  A 0.67 0.66 54.1 0 0 107.47 136.52
  Q 105.42 137.40 103.93 136.07
  Q 101.34 133.78 100.21 129.72
  A 0.41 0.41 0.0 0 1 100.96 129.39
  Q 101.60 130.40 102.33 130.73
  A 0.32 0.32 0.0 0 0 102.74 130.28
  L 100.12 125.74
  A 0.51 0.51 0.0 0 0 99.19 126.11
  L 99.42 127.10
  A 1.92 1.88 -44.4 0 1 99.40 128.04
  Q 98.68 130.60 99.48 131.83
  Q 100.79 133.83 101.92 136.55
  A 1.56 1.54 -5.0 0 0 103.04 137.48
  Q 103.78 137.63 104.32 138.01
  A 1.45 1.42 -82.0 0 1 104.88 138.77
  L 106.60 144.00
  L 57.25 144.00
  Q 60.04 143.24 62.95 143.75
  A 0.22 0.21 17.7 0 0 63.17 143.64
  L 63.36 143.31
  A 0.16 0.16 0.0 0 0 63.24 143.07
  L 59.86 142.69
  A 0.30 0.30 0.0 0 1 59.59 142.38
  Q 59.64 141.51 56.97 141.57
  A 1.69 1.66 25.8 0 0 56.00 141.90
  Q 54.46 143.03 51.10 142.96
  A 1.26 1.25 15.7 0 1 50.04 141.08
  L 51.24 139.00
  A 0.53 0.53 0.0 0 0 51.08 138.29
  L 50.85 138.13
  A 0.40 0.40 0.0 0 0 50.32 138.19
  Q 49.24 139.36 48.95 139.58
  A 0.24 0.23 2.0 0 1 48.63 139.24
  Q 49.58 138.15 49.64 137.29
  A 0.39 0.39 0.0 0 0 49.06 136.93
  L 45.45 139.01
  A 1.86 1.80 22.8 0 1 44.96 139.20
  L 37.30 141.01
  A 0.84 0.82 48.7 0 1 36.77 140.97
  Q 35.83 140.55 34.74 140.48
  A 1.30 1.29 -4.8 0 1 33.56 139.49
  L 33.43 138.95
  A 0.51 0.51 0.0 0 1 34.18 138.39
  L 36.18 139.54
  A 0.19 0.18 10.0 0 0 36.46 139.35
  Q 36.00 137.19 39.00 132.21
  Q 40.53 129.67 42.15 129.39
  A 1.16 1.15 7.0 0 0 42.99 128.74
  Q 43.78 127.02 46.51 125.30
  C 50.39 122.85 52.70 119.99 56.36 117.19
  C 59.30 114.93 61.96 111.14 65.01 109.25
  A 0.48 0.47 -27.9 0 0 65.20 108.66
  Q 64.91 108.00 63.89 107.37
  A 0.05 0.03 -80.8 0 1 63.87 107.33
  L 64.00 106.65
  A 0.35 0.35 0.0 0 1 64.45 106.39
  Q 65.34 106.66 66.19 107.59
  A 0.55 0.54 -48.7 0 0 67.03 107.53
  Q 69.02 104.71 72.29 102.62
  A 1.76 1.72 -57.6 0 1 73.39 102.36
  L 74.32 102.47
  A 0.47 0.47 0.0 0 0 74.78 101.76
  Q 74.17 100.71 75.18 99.59
  C 76.30 98.35 78.46 98.21 81.02 97.61
  A 2.19 1.99 -61.9 0 0 81.41 97.47
  L 86.93 94.71
  A 0.77 0.76 -37.5 0 1 87.79 94.82
  Q 88.82 95.74 90.11 94.38
  C 90.41 94.06 90.47 94.18 90.21 93.79
  A 0.24 0.24 0.0 0 1 90.30 93.44
  Q 90.96 93.08 91.35 91.99
  A 0.84 0.83 1.3 0 1 91.92 91.45
  Q 92.56 91.28 92.83 91.39
  A 0.53 0.53 0.0 0 1 92.85 92.37
  Q 91.45 93.01 90.89 93.38
  A 0.22 0.22 0.0 0 0 91.06 93.78
  L 97.88 92.17
  A 0.85 0.84 -1.7 0 0 98.51 91.51
  L 98.60 91.06
  A 0.59 0.59 0.0 0 1 99.30 90.59
  L 104.27 91.54
  A 0.32 0.28 32.8 0 0 104.47 91.51
  L 105.66 90.82
  A 0.49 0.48 -35.2 0 1 106.27 90.92
  Q 107.51 92.29 109.40 91.14
  A 1.36 1.34 43.9 0 1 110.78 91.12
  Q 112.04 91.85 113.02 91.19
  A 1.19 1.19 0.0 0 1 114.07 91.05
  L 116.48 91.86
  Z
  M 112.27 107.38
  Q 111.77 105.81 110.23 105.00
  Q 109.30 104.51 105.16 102.45
  A 0.37 0.37 0.0 0 0 104.63 102.84
  C 104.74 103.63 106.36 104.84 106.86 106.16
  C 107.52 107.90 108.99 109.57 110.10 111.64
  Q 111.08 113.48 114.15 114.68
  A 0.11 0.11 0.0 0 0 114.28 114.51
  L 107.30 105.96
  A 0.62 0.61 -2.1 0 1 108.13 105.07
  L 111.88 107.67
  A 0.26 0.26 0.0 0 0 112.27 107.38
  Z
  M 134.45 124.02
  L 134.68 124.00
  A 0.34 0.33 -42.2 0 0 134.71 123.50
  L 131.81 120.52
  A 0.64 0.60 76.5 0 0 131.55 120.35
  Q 130.57 120.01 130.04 120.43
  Q 129.09 121.18 128.34 120.69
  Q 127.24 119.97 126.57 118.43
  A 0.17 0.17 0.0 0 0 126.30 118.36
  L 125.99 118.61
  A 0.30 0.29 -30.8 0 0 125.90 118.95
  Q 126.99 121.68 129.10 123.41
  A 2.38 2.33 70.2 0 0 130.09 123.89
  Q 133.11 124.56 134.27 127.36
  A 0.35 0.35 0.0 0 0 134.88 127.43
  Q 135.41 126.67 134.97 125.96
  Q 134.10 124.58 134.09 124.44
  A 0.38 0.38 0.0 0 1 134.45 124.02
  Z
  M 67.91 143.18
  A 0.51 0.50 -56.9 0 0 68.89 142.97
  Q 68.56 139.70 67.37 130.81
  Q 67.15 129.10 68.36 124.98
  A 0.51 0.50 20.1 0 0 68.07 124.37
  L 67.76 124.24
  A 0.71 0.71 0.0 0 0 66.83 124.61
  L 63.46 132.59
  A 0.49 0.49 0.0 0 0 63.72 133.23
  L 64.07 133.37
  A 0.28 0.27 -66.7 0 0 64.43 133.22
  L 65.33 131.10
  A 0.53 0.53 0.0 0 1 66.34 131.31
  Q 66.25 137.97 67.91 143.18
  Z
  M 98.98 141.91
  Q 98.97 140.63 98.37 139.84
  Q 97.80 139.08 96.95 136.67
  A 1.11 1.11 0.0 0 1 97.02 135.76
  Q 97.82 134.26 96.14 133.13
  A 0.62 0.62 0.0 0 0 95.28 133.99
  Q 95.80 134.76 95.94 135.48
  A 0.72 0.72 0.0 0 1 95.05 136.31
  Q 94.86 136.26 94.65 136.22
  A 0.47 0.47 0.0 0 0 94.21 136.98
  L 96.45 139.73
  A 2.69 2.67 28.6 0 1 97.04 141.71
  L 96.99 142.11
  A 0.71 0.71 0.0 0 1 95.74 142.48
  L 90.21 135.70
  A 0.33 0.33 0.0 0 0 89.64 135.99
  C 90.50 139.11 93.85 139.42 94.23 142.52
  A 1.53 1.52 88.4 0 0 95.63 143.85
  Q 98.98 144.10 98.98 141.91
  Z"
/>
<path fill="#222221" d="
  M 28.63 129.41
  L 30.22 132.57
  A 1.22 1.22 0.0 0 0 31.92 133.08
  L 34.70 131.47
  A 1.11 1.10 -35.4 0 0 34.99 129.79
  Q 32.22 126.61 28.65 127.04
  L 27.19 122.73
  A 0.64 0.63 65.8 0 1 27.48 121.96
  L 30.82 120.03
  A 0.62 0.61 79.0 0 0 31.12 119.58
  Q 31.45 117.27 30.23 116.14
  A 1.51 1.50 -28.2 0 0 28.99 115.77
  L 23.00 116.77
  A 0.55 0.52 -67.3 0 0 22.73 116.89
  L 17.87 120.85
  A 1.42 1.42 0.0 0 0 17.55 122.68
  Q 18.47 124.24 18.66 125.45
  A 1.64 1.63 -36.0 0 1 18.50 126.44
  Q 15.86 131.55 10.78 134.00
  Q 11.09 131.77 11.95 129.48
  Q 16.02 118.66 21.53 108.49
  Q 25.99 100.27 30.21 92.68
  Q 34.63 92.87 36.32 95.94
  A 1.13 1.12 -21.1 0 1 35.59 97.58
  L 31.54 98.54
  A 0.88 0.82 8.6 0 0 31.03 98.89
  Q 26.59 105.22 25.66 111.90
  A 0.34 0.34 0.0 0 0 26.21 112.21
  L 27.60 111.08
  A 0.77 0.76 -49.3 0 1 28.46 111.01
  L 31.96 113.03
  A 0.95 0.94 -71.9 0 0 33.37 112.31
  L 33.58 110.45
  A 0.46 0.45 -75.2 0 1 34.21 110.08
  L 35.87 110.78
  A 0.76 0.76 0.0 0 0 36.64 110.66
  L 41.24 106.91
  A 0.87 0.87 0.0 0 0 40.85 105.38
  L 39.02 105.02
  A 0.47 0.46 17.2 0 1 38.68 104.38
  L 42.21 96.02
  A 0.46 0.46 0.0 0 1 43.10 96.25
  L 42.59 100.82
  A 2.44 2.42 -69.7 0 0 43.62 103.09
  L 48.63 106.58
  A 1.04 1.03 32.3 0 0 50.12 106.25
  L 54.10 99.36
  A 0.52 0.52 0.0 0 1 55.01 99.37
  Q 57.74 104.34 57.47 109.70
  A 0.88 0.88 0.0 0 1 56.79 110.52
  L 50.67 111.97
  A 0.74 0.73 -21.4 0 1 49.87 111.63
  L 49.11 110.31
  A 0.79 0.79 0.0 0 0 47.66 110.89
  L 48.37 113.87
  A 0.63 0.63 0.0 0 1 48.07 114.55
  L 45.79 115.87
  A 0.86 0.85 71.8 0 0 45.37 116.72
  Q 45.52 117.78 46.28 118.91
  A 1.70 1.69 -47.0 0 1 46.34 120.69
  L 45.77 121.67
  A 0.83 0.82 -44.9 0 1 44.34 121.67
  L 43.10 119.53
  A 0.37 0.37 0.0 0 0 42.41 119.67
  L 41.94 123.90
  A 0.79 0.79 0.0 0 1 40.42 124.12
  Q 40.08 123.30 39.33 122.89
  A 0.65 0.65 0.0 0 0 38.46 123.12
  Q 37.57 124.60 36.25 125.56
  A 0.98 0.96 70.5 0 0 35.86 126.40
  Q 36.08 130.67 34.81 135.43
  A 0.73 0.72 83.4 0 1 34.45 135.89
  L 31.39 137.66
  A 1.41 1.41 0.0 0 0 31.29 140.04
  L 32.83 141.11
  A 0.68 0.68 0.0 0 1 32.37 142.35
  L 21.45 141.13
  A 0.68 0.68 0.0 0 1 20.84 140.37
  L 21.15 137.57
  A 0.98 0.96 25.8 0 0 20.87 136.78
  Q 19.49 135.41 18.84 133.58
  A 0.63 0.63 0.0 0 1 19.53 132.75
  C 21.91 133.10 26.43 130.50 28.63 129.41
  Z"
/>
<path fill="#4a4949" d="
  M 123.03 96.57
  Q 126.13 96.70 129.27 96.59
  Q 130.05 96.57 133.72 98.59
  A 0.95 0.86 -28.0 0 0 134.16 98.70
  Q 134.89 98.70 134.85 97.64
  A 0.51 0.51 0.0 0 1 135.45 97.12
  Q 136.46 97.32 137.02 98.02
  A 1.04 1.01 -21.7 0 0 137.91 98.39
  Q 140.41 98.16 141.77 100.17
  A 0.85 0.85 0.0 0 0 143.29 99.90
  L 144.00 97.11
  L 144.00 108.49
  C 143.97 110.07 143.53 111.44 143.38 112.89
  C 143.15 111.39 142.51 110.44 141.03 110.19
  Q 140.05 110.02 138.14 107.86
  C 136.73 106.26 133.75 105.16 131.85 103.90
  Q 126.58 100.37 121.54 96.56
  Q 122.33 96.23 123.03 96.57
  Z"
/>
<path fill="#d4d1cf" d="
  M 112.27 107.38
  A 0.26 0.26 0.0 0 1 111.88 107.67
  L 108.13 105.07
  A 0.62 0.61 -2.1 0 0 107.30 105.96
  L 114.28 114.51
  A 0.11 0.11 0.0 0 1 114.15 114.68
  Q 111.08 113.48 110.10 111.64
  C 108.99 109.57 107.52 107.90 106.86 106.16
  C 106.36 104.84 104.74 103.63 104.63 102.84
  A 0.37 0.37 0.0 0 1 105.16 102.45
  Q 109.30 104.51 110.23 105.00
  Q 111.77 105.81 112.27 107.38
  Z"
/>
<path fill="#aea49f" d="
  M 134.09 124.44
  Q 134.10 124.58 134.97 125.96
  Q 135.41 126.67 134.88 127.43
  A 0.35 0.35 0.0 0 1 134.27 127.36
  Q 133.11 124.56 130.09 123.89
  A 2.38 2.33 70.2 0 1 129.10 123.41
  Q 126.99 121.68 125.90 118.95
  A 0.30 0.29 -30.8 0 1 125.99 118.61
  L 126.30 118.36
  A 0.17 0.17 0.0 0 1 126.57 118.43
  Q 127.24 119.97 128.34 120.69
  Q 129.09 121.18 130.04 120.43
  Q 130.57 120.01 131.55 120.35
  A 0.64 0.60 76.5 0 1 131.81 120.52
  L 134.71 123.50
  A 0.34 0.33 -42.2 0 1 134.68 124.00
  L 134.45 124.02
  A 0.38 0.38 0.0 0 0 134.09 124.44
  Z"
/>
<path fill="#aea49f" d="
  M 136.23 133.76
  Q 135.03 133.96 134.93 134.90
  Q 134.44 135.19 133.87 135.12
  A 1.06 1.06 0.0 0 1 133.13 134.67
  C 131.89 132.84 130.17 133.48 128.74 132.34
  Q 127.04 130.97 124.51 130.07
  A 1.08 1.06 87.0 0 1 123.90 129.51
  Q 122.76 126.97 120.11 126.65
  A 1.77 1.74 68.6 0 1 119.22 126.25
  L 117.96 125.17
  Q 118.29 123.07 116.03 122.14
  A 0.52 0.51 -40.0 0 1 116.12 121.16
  Q 116.46 121.08 116.73 121.15
  Q 116.94 121.20 117.36 121.56
  Q 118.05 122.16 119.55 124.06
  A 4.11 4.02 85.7 0 0 120.61 124.99
  Q 122.94 126.41 123.91 127.89
  A 1.17 1.13 -3.8 0 0 124.35 128.26
  L 131.90 131.92
  A 0.63 0.56 -3.2 0 1 132.10 132.08
  C 133.68 134.10 134.96 132.74 136.23 133.76
  Z"
/>
<path fill="#aea49f" d="
  M 111.46 125.35
  L 115.43 129.70
  A 0.28 0.28 0.0 0 1 115.48 130.01
  Q 115.25 130.53 114.51 129.95
  Q 112.17 128.07 111.66 127.42
  A 1.27 1.26 60.5 0 0 110.24 127.02
  Q 109.21 127.38 108.74 126.39
  A 0.19 0.19 0.0 0 0 108.44 126.32
  L 108.19 126.52
  A 0.28 0.27 -46.6 0 0 108.20 126.96
  Q 109.62 127.94 108.73 128.86
  A 1.60 1.59 -21.9 0 0 108.29 129.88
  Q 108.18 132.21 109.90 133.87
  A 1.97 1.93 -70.4 0 1 110.49 135.15
  L 110.53 135.96
  A 1.27 1.21 -67.0 0 0 110.80 136.68
  L 113.74 140.28
  A 0.28 0.28 0.0 0 1 113.70 140.68
  L 113.12 141.15
  A 0.44 0.44 0.0 0 0 113.02 141.71
  L 113.70 142.88
  A 0.65 0.64 -23.5 0 1 113.33 143.81
  Q 112.90 143.95 112.18 143.85
  Q 110.92 143.35 111.16 141.69
  A 0.86 0.84 88.1 0 1 111.80 140.99
  L 112.18 140.90
  A 0.32 0.32 0.0 0 0 112.28 140.32
  Q 111.05 139.48 110.06 136.36
  A 0.73 0.70 17.4 0 0 109.94 136.14
  L 106.03 131.40
  A 1.00 0.98 -9.7 0 0 105.61 131.11
  Q 105.29 131.00 104.87 131.44
  A 0.51 0.51 0.0 0 1 104.01 131.26
  Q 103.87 130.82 104.23 129.57
  A 0.32 0.31 -54.4 0 1 104.79 129.47
  Q 105.42 130.38 106.30 130.36
  A 0.92 0.91 10.8 0 0 107.13 129.80
  L 108.05 127.64
  A 0.53 0.52 36.8 0 0 107.97 127.12
  L 104.27 122.59
  A 0.42 0.42 0.0 0 1 104.79 121.95
  Q 106.14 122.63 107.63 124.98
  A 0.74 0.74 0.0 0 0 108.97 124.76
  Q 109.01 124.60 108.95 124.06
  A 1.17 1.11 -75.1 0 1 110.74 122.96
  Q 111.88 123.83 111.46 125.35
  Z"
/>
<path fill="#eeecea" d="
  M 117.96 125.17
  L 119.22 126.25
  A 1.77 1.74 68.6 0 0 120.11 126.65
  Q 122.76 126.97 123.90 129.51
  A 1.08 1.06 87.0 0 0 124.51 130.07
  Q 127.04 130.97 128.74 132.34
  C 130.17 133.48 131.89 132.84 133.13 134.67
  A 1.06 1.06 0.0 0 0 133.87 135.12
  Q 134.44 135.19 134.93 134.90
  Q 135.59 135.19 135.82 135.65
  Q 136.08 136.17 135.69 136.57
  Q 133.77 138.57 132.13 138.70
  A 1.10 1.08 12.1 0 0 131.28 139.24
  C 130.51 140.60 129.15 142.86 127.54 143.13
  L 127.29 142.84
  A 0.84 0.83 35.7 0 1 127.15 142.00
  Q 127.60 140.87 126.61 139.62
  A 0.45 0.45 0.0 0 1 127.15 138.94
  Q 129.33 139.99 130.74 137.99
  Q 130.99 137.62 131.51 137.28
  L 132.54 136.60
  A 0.34 0.33 -87.6 0 0 132.14 136.16
  Q 130.48 136.64 129.83 134.53
  A 1.07 1.07 0.0 0 0 127.74 134.69
  Q 127.74 134.73 127.82 135.10
  A 1.13 1.13 0.0 0 1 127.71 135.88
  Q 126.66 137.82 124.78 137.15
  A 0.75 0.75 0.0 0 0 123.87 138.22
  Q 124.96 140.19 124.07 141.64
  A 0.90 0.89 -51.4 0 0 124.19 142.74
  Q 125.33 143.90 127.29 143.62
  L 128.25 144.00
  L 112.36 144.00
  Q 112.27 143.93 112.18 143.85
  Q 112.90 143.95 113.33 143.81
  A 0.65 0.64 -23.5 0 0 113.70 142.88
  L 113.02 141.71
  A 0.44 0.44 0.0 0 1 113.12 141.15
  L 113.70 140.68
  A 0.28 0.28 0.0 0 0 113.74 140.28
  L 110.80 136.68
  A 1.27 1.21 -67.0 0 1 110.53 135.96
  L 110.49 135.15
  A 1.97 1.93 -70.4 0 0 109.90 133.87
  Q 108.18 132.21 108.29 129.88
  A 1.60 1.59 -21.9 0 1 108.73 128.86
  Q 109.62 127.94 108.20 126.96
  A 0.28 0.27 -46.6 0 1 108.19 126.52
  L 108.44 126.32
  A 0.19 0.19 0.0 0 1 108.74 126.39
  Q 109.21 127.38 110.24 127.02
  A 1.27 1.26 60.5 0 1 111.66 127.42
  Q 112.17 128.07 114.51 129.95
  Q 115.25 130.53 115.48 130.01
  A 0.28 0.28 0.0 0 0 115.43 129.70
  L 111.46 125.35
  Q 111.85 124.21 112.48 124.10
  A 0.45 0.45 0.0 0 0 112.86 123.56
  Q 112.79 123.26 112.81 123.17
  A 0.66 0.66 0.0 0 1 113.58 122.67
  Q 115.42 123.04 116.63 123.96
  A 0.59 0.58 17.7 0 1 116.87 124.41
  Q 116.90 125.24 117.96 125.17
  Z"
/>
<path fill="#eeecea" d="
  M 67.91 143.18
  Q 66.25 137.97 66.34 131.31
  A 0.53 0.53 0.0 0 0 65.33 131.10
  L 64.43 133.22
  A 0.28 0.27 -66.7 0 1 64.07 133.37
  L 63.72 133.23
  A 0.49 0.49 0.0 0 1 63.46 132.59
  L 66.83 124.61
  A 0.71 0.71 0.0 0 1 67.76 124.24
  L 68.07 124.37
  A 0.51 0.50 20.1 0 1 68.36 124.98
  Q 67.15 129.10 67.37 130.81
  Q 68.56 139.70 68.89 142.97
  A 0.51 0.50 -56.9 0 1 67.91 143.18
  Z"
/>
<path fill="#aea49f" d="
  M 108.43 144.00
  L 106.60 144.00
  L 104.88 138.77
  A 1.45 1.42 -82.0 0 0 104.32 138.01
  Q 103.78 137.63 103.04 137.48
  A 1.56 1.54 -5.0 0 1 101.92 136.55
  Q 100.79 133.83 99.48 131.83
  Q 98.68 130.60 99.40 128.04
  A 1.92 1.88 -44.4 0 0 99.42 127.10
  L 99.19 126.11
  A 0.51 0.51 0.0 0 1 100.12 125.74
  L 102.74 130.28
  A 0.32 0.32 0.0 0 1 102.33 130.73
  Q 101.60 130.40 100.96 129.39
  A 0.41 0.41 0.0 0 0 100.21 129.72
  Q 101.34 133.78 103.93 136.07
  Q 105.42 137.40 107.47 136.52
  A 0.67 0.66 54.1 0 1 108.18 136.64
  Q 108.72 137.16 108.80 137.88
  A 0.49 0.49 0.0 0 1 108.22 138.41
  L 106.74 138.13
  A 0.57 0.57 0.0 0 0 106.19 139.05
  Q 107.84 141.09 108.43 144.00
  Z"
/>
<path fill="#4a4949" d="
  M 28.63 129.41
  L 28.65 127.04
  Q 32.22 126.61 34.99 129.79
  A 1.11 1.10 -35.4 0 1 34.70 131.47
  L 31.92 133.08
  A 1.22 1.22 0.0 0 1 30.22 132.57
  L 28.63 129.41
  Z"
/>
<path fill="#000000" d="
  M 144.00 132.26
  L 144.00 144.00
  L 128.25 144.00
  L 127.29 143.62
  Q 127.30 143.37 127.54 143.13
  C 129.15 142.86 130.51 140.60 131.28 139.24
  A 1.10 1.08 12.1 0 1 132.13 138.70
  Q 133.77 138.57 135.69 136.57
  Q 136.08 136.17 135.82 135.65
  Q 135.59 135.19 134.93 134.90
  Q 135.03 133.96 136.23 133.76
  L 138.42 134.38
  A 1.07 1.04 34.6 0 0 139.30 134.23
  Q 141.44 132.74 144.00 132.26
  Z"
/>
<path fill="#222221" d="
  M 11.92 144.00
  L 8.98 144.00
  Q 9.74 139.62 12.86 136.86
  Q 13.45 136.33 14.49 133.85
  A 0.28 0.28 0.0 0 1 14.98 133.79
  Q 19.14 139.52 11.92 144.00
  Z"
/>
<path fill="#aea49f" d="
  M 98.98 141.91
  Q 98.98 144.10 95.63 143.85
  A 1.53 1.52 88.4 0 1 94.23 142.52
  C 93.85 139.42 90.50 139.11 89.64 135.99
  A 0.33 0.33 0.0 0 1 90.21 135.70
  L 95.74 142.48
  A 0.71 0.71 0.0 0 0 96.99 142.11
  L 97.04 141.71
  A 2.69 2.67 28.6 0 0 96.45 139.73
  L 94.21 136.98
  A 0.47 0.47 0.0 0 1 94.65 136.22
  Q 94.86 136.26 95.05 136.31
  A 0.72 0.72 0.0 0 0 95.94 135.48
  Q 95.80 134.76 95.28 133.99
  A 0.62 0.62 0.0 0 1 96.14 133.13
  Q 97.82 134.26 97.02 135.76
  A 1.11 1.11 0.0 0 0 96.95 136.67
  Q 97.80 139.08 98.37 139.84
  Q 98.97 140.63 98.98 141.91
  Z"
/>
<path fill="#d4d1cf" d="
  M 127.54 143.13
  Q 127.30 143.37 127.29 143.62
  Q 125.33 143.90 124.19 142.74
  A 0.90 0.89 -51.4 0 1 124.07 141.64
  Q 124.96 140.19 123.87 138.22
  A 0.75 0.75 0.0 0 1 124.78 137.15
  Q 126.66 137.82 127.71 135.88
  A 1.13 1.13 0.0 0 0 127.82 135.10
  Q 127.74 134.73 127.74 134.69
  A 1.07 1.07 0.0 0 1 129.83 134.53
  Q 130.48 136.64 132.14 136.16
  A 0.34 0.33 -87.6 0 1 132.54 136.60
  L 131.51 137.28
  Q 130.99 137.62 130.74 137.99
  Q 129.33 139.99 127.15 138.94
  A 0.45 0.45 0.0 0 0 126.61 139.62
  Q 127.60 140.87 127.15 142.00
  A 0.84 0.83 35.7 0 0 127.29 142.84
  L 127.54 143.13
  Z"
/>
</svg>