<?xml version="1.0" encoding="UTF-8" standalone="no"?>
<!DOCTYPE svg PUBLIC "-//W3C//DTD SVG 1.1//EN" "http://www.w3.org/Graphics/SVG/1.1/DTD/svg11.dtd">
<svg xmlns="http://www.w3.org/2000/svg" version="1.1" viewBox="0.00 0.00 192.00 192.00" width="128" height="128">
<path fill="#1c3068" d="
  M 171.33 20.69
  C 184.15 33.51 191.77 50.97 191.58 69.30
  C 191.41 85.15 184.52 100.00 173.68 111.45
  Q 164.47 121.18 153.97 131.32
  A 0.28 0.28 0.0 0 1 153.49 131.11
  L 153.96 93.94
  A 1.40 1.37 -25.4 0 1 154.27 93.10
  Q 157.56 88.97 158.11 88.15
  C 169.17 71.73 165.76 53.14 152.32 39.69
  C 138.88 26.25 120.29 22.82 103.86 33.87
  Q 103.04 34.42 98.91 37.70
  A 1.40 1.37 -64.6 0 1 98.07 38.01
  L 60.90 38.46
  A 0.28 0.28 0.0 0 1 60.69 37.98
  Q 70.84 27.48 80.57 18.28
  C 92.03 7.45 106.89 0.57 122.73 0.41
  C 141.06 0.23 158.52 7.87 171.33 20.69
  Z"
/>
<path fill="#91b33e" d="
  M 136.45 55.54
  Q 138.34 57.44 138.32 59.69
  Q 137.63 128.56 137.48 133.25
  C 137.33 137.88 132.90 140.61 128.87 139.47
  Q 127.33 139.04 124.04 135.71
  Q 110.76 122.31 104.29 115.93
  A 0.61 0.61 0.0 0 0 103.43 115.93
  Q 92.85 126.59 79.08 140.30
  C 71.74 147.60 60.74 144.63 54.06 137.95
  C 47.38 131.27 44.40 120.28 51.71 112.93
  Q 65.41 99.16 76.07 88.58
  A 0.61 0.61 0.0 0 0 76.07 87.72
  Q 69.69 81.25 56.28 67.97
  Q 52.95 64.68 52.52 63.14
  C 51.38 59.11 54.11 54.68 58.74 54.53
  Q 63.43 54.38 132.30 53.67
  Q 134.55 53.65 136.45 55.54
  Z"
/>
<path fill="#1c3068" d="
  M 39.71 152.35
  C 55.42 168.03 77.16 169.16 93.49 153.75
  Q 99.15 148.41 106.16 141.12
  A 0.61 0.61 0.0 0 1 107.05 141.13
  C 113.17 147.82 119.58 154.99 129.09 155.48
  A 0.32 0.32 0.0 0 1 129.30 156.02
  Q 127.75 157.63 115.82 169.56
  C 103.17 182.22 89.24 190.54 71.42 191.51
  C 52.68 192.53 34.03 184.64 20.73 171.37
  C 7.43 158.10 -0.50 139.47 0.49 120.72
  C 1.42 102.90 9.71 88.95 22.34 76.28
  Q 34.25 64.32 35.85 62.77
  A 0.32 0.32 0.0 0 1 36.39 62.98
  C 36.90 72.49 44.09 78.88 50.79 84.99
  A 0.61 0.61 0.0 0 1 50.80 85.88
  Q 43.53 92.90 38.20 98.57
  C 22.83 114.93 24.00 136.67 39.71 152.35
  Z"
/>
</svg>