<?xml version="1.0" encoding="UTF-8" standalone="no"?>
<!DOCTYPE svg PUBLIC "-//W3C//DTD SVG 1.1//EN" "http://www.w3.org/Graphics/SVG/1.1/DTD/svg11.dtd">
<svg xmlns="http://www.w3.org/2000/svg" version="1.1" viewBox="0.00 0.00 512.00 512.00" width="128" height="128">
<g stroke-width="2.00" fill="none" stroke-linecap="butt">
<path stroke="#f5a588" vector-effect="non-scaling-stroke" d="
  M 277.91 100.65
  A 20.63 20.63 0.0 0 0 257.28 80.02
  A 20.63 20.63 0.0 0 0 236.65 100.65
  A 20.63 20.63 0.0 0 0 257.28 121.28
  A 20.63 20.63 0.0 0 0 277.91 100.65"
/>
<path stroke="#f5a588" vector-effect="non-scaling-stroke" d="
  M 201.30 120.18
  A 20.63 20.63 0.0 0 0 180.67 99.55
  A 20.63 20.63 0.0 0 0 160.04 120.18
  A 20.63 20.63 0.0 0 0 180.67 140.81
  A 20.63 20.63 0.0 0 0 201.30 120.18"
/>
<path stroke="#f5a588" vector-effect="non-scaling-stroke" d="
  M 355.88 122.29
  A 20.64 20.64 0.0 0 0 335.24 101.65
  A 20.64 20.64 0.0 0 0 314.60 122.29
  A 20.64 20.64 0.0 0 0 335.24 142.93
  A 20.64 20.64 0.0 0 0 355.88 122.29"
/>
<path stroke="#f5a588" vector-effect="non-scaling-stroke" d="
  M 142.69 177.22
  A 20.64 20.64 0.0 0 0 122.05 156.58
  A 20.64 20.64 0.0 0 0 101.41 177.22
  A 20.64 20.64 0.0 0 0 122.05 197.86
  A 20.64 20.64 0.0 0 0 142.69 177.22"
/>
<path stroke="#f5a588" vector-effect="non-scaling-stroke" d="
  M 277.34 178.39
  A 20.64 20.64 0.0 0 0 256.70 157.75
  A 20.64 20.64 0.0 0 0 236.06 178.39
  A 20.64 20.64 0.0 0 0 256.70 199.03
  A 20.64 20.64 0.0 0 0 277.34 178.39"
/>
<path stroke="#f5a588" vector-effect="non-scaling-stroke" d="
  M 411.71 179.42
  A 20.63 20.63 0.0 0 0 391.08 158.79
  A 20.63 20.63 0.0 0 0 370.45 179.42
  A 20.63 20.63 0.0 0 0 391.08 200.05
  A 20.63 20.63 0.0 0 0 411.71 179.42"
/>
<path stroke="#f5a588" vector-effect="non-scaling-stroke" d="
  M 209.69 216.62
  A 20.63 20.63 0.0 0 0 189.06 195.99
  A 20.63 20.63 0.0 0 0 168.43 216.62
  A 20.63 20.63 0.0 0 0 189.06 237.25
  A 20.63 20.63 0.0 0 0 209.69 216.62"
/>
<path stroke="#f5a588" vector-effect="non-scaling-stroke" d="
  M 344.39 217.79
  A 20.64 20.64 0.0 0 0 323.75 197.15
  A 20.64 20.64 0.0 0 0 303.11 217.79
  A 20.64 20.64 0.0 0 0 323.75 238.43
  A 20.64 20.64 0.0 0 0 344.39 217.79"
/>
<path stroke="#f5a588" vector-effect="non-scaling-stroke" d="
  M 431.98 255.69
  A 20.63 20.63 0.0 0 0 411.35 235.06
  A 20.63 20.63 0.0 0 0 390.72 255.69
  A 20.63 20.63 0.0 0 0 411.35 276.32
  A 20.63 20.63 0.0 0 0 431.98 255.69"
/>
<path stroke="#f5a588" vector-effect="non-scaling-stroke" d="
  M 276.72 256.03
  A 20.64 20.64 0.0 0 0 256.08 235.39
  A 20.64 20.64 0.0 0 0 235.44 256.03
  A 20.64 20.64 0.0 0 0 256.08 276.67
  A 20.64 20.64 0.0 0 0 276.72 256.03"
/>
<path stroke="#f5a588" vector-effect="non-scaling-stroke" d="
  M 121.30 256.29
  A 20.64 20.64 0.0 0 0 100.66 235.65
  A 20.64 20.64 0.0 0 0 80.02 256.29
  A 20.64 20.64 0.0 0 0 100.66 276.93
  A 20.64 20.64 0.0 0 0 121.30 256.29"
/>
<path stroke="#f5a588" vector-effect="non-scaling-stroke" d="
  M 209.12 294.43
  A 20.63 20.63 0.0 0 0 188.49 273.80
  A 20.63 20.63 0.0 0 0 167.86 294.43
  A 20.63 20.63 0.0 0 0 188.49 315.06
  A 20.63 20.63 0.0 0 0 209.12 294.43"
/>
<path stroke="#f5a588" vector-effect="non-scaling-stroke" d="
  M 343.72 295.41
  A 20.63 20.63 0.0 0 0 323.09 274.78
  A 20.63 20.63 0.0 0 0 302.46 295.41
  A 20.63 20.63 0.0 0 0 323.09 316.04
  A 20.63 20.63 0.0 0 0 343.72 295.41"
/>
<path stroke="#f5a588" vector-effect="non-scaling-stroke" d="
  M 141.49 332.73
  A 20.64 20.64 0.0 0 0 120.85 312.09
  A 20.64 20.64 0.0 0 0 100.21 332.73
  A 20.64 20.64 0.0 0 0 120.85 353.37
  A 20.64 20.64 0.0 0 0 141.49 332.73"
/>
<path stroke="#f5a588" vector-effect="non-scaling-stroke" d="
  M 276.16 333.83
  A 20.63 20.63 0.0 0 0 255.53 313.20
  A 20.63 20.63 0.0 0 0 234.90 333.83
  A 20.63 20.63 0.0 0 0 255.53 354.46
  A 20.63 20.63 0.0 0 0 276.16 333.83"
/>
<path stroke="#f5a588" vector-effect="non-scaling-stroke" d="
  M 410.40 334.88
  A 20.63 20.63 0.0 0 0 389.77 314.25
  A 20.63 20.63 0.0 0 0 369.14 334.88
  A 20.63 20.63 0.0 0 0 389.77 355.51
  A 20.63 20.63 0.0 0 0 410.40 334.88"
/>
<path stroke="#f5a588" vector-effect="non-scaling-stroke" d="
  M 197.58 389.63
  A 20.63 20.63 0.0 0 0 176.95 369.00
  A 20.63 20.63 0.0 0 0 156.32 389.63
  A 20.63 20.63 0.0 0 0 176.95 410.26
  A 20.63 20.63 0.0 0 0 197.58 389.63"
/>
<path stroke="#f5a588" vector-effect="non-scaling-stroke" d="
  M 351.90 391.93
  A 20.64 20.64 0.0 0 0 331.26 371.29
  A 20.64 20.64 0.0 0 0 310.62 391.93
  A 20.64 20.64 0.0 0 0 331.26 412.57
  A 20.64 20.64 0.0 0 0 351.90 391.93"
/>
<path stroke="#f5a588" vector-effect="non-scaling-stroke" d="
  M 275.37 411.34
  A 20.64 20.64 0.0 0 0 254.73 390.70
  A 20.64 20.64 0.0 0 0 234.09 411.34
  A 20.64 20.64 0.0 0 0 254.73 431.98
  A 20.64 20.64 0.0 0 0 275.37 411.34"
/>
</g>
<path fill="#f7f7f7" d="
  M 396.65 0.00
  Q 400.19 0.34 403.74 0.68
  C 460.77 6.13 505.62 51.23 511.27 108.02
  Q 511.63 111.59 512.00 115.16
  L 512.00 396.86
  Q 511.65 400.30 511.33 403.74
  Q 509.33 424.86 500.12 443.96
  C 480.56 484.47 441.39 509.68 396.53 512.00
  L 115.61 512.00
  Q 111.93 511.68 108.26 511.34
  C 78.74 508.53 51.61 494.89 31.63 473.12
  Q 4.87 443.97 0.75 403.74
  Q 0.40 400.41 0.00 397.10
  L 0.00 114.92
  C 3.31 51.90 52.52 3.13 115.20 0.00
  L 396.65 0.00
  Z
  M 277.91 100.65
  A 20.63 20.63 0.0 0 0 257.28 80.02
  A 20.63 20.63 0.0 0 0 236.65 100.65
  A 20.63 20.63 0.0 0 0 257.28 121.28
  A 20.63 20.63 0.0 0 0 277.91 100.65
  Z
  M 201.30 120.18
  A 20.63 20.63 0.0 0 0 180.67 99.55
  A 20.63 20.63 0.0 0 0 160.04 120.18
  A 20.63 20.63 0.0 0 0 180.67 140.81
  A 20.63 20.63 0.0 0 0 201.30 120.18
  Z
  M 355.88 122.29
  A 20.64 20.64 0.0 0 0 335.24 101.65
  A 20.64 20.64 0.0 0 0 314.60 122.29
  A 20.64 20.64 0.0 0 0 335.24 142.93
  A 20.64 20.64 0.0 0 0 355.88 122.29
  Z
  M 142.69 177.22
  A 20.64 20.64 0.0 0 0 122.05 156.58
  A 20.64 20.64 0.0 0 0 101.41 177.22
  A 20.64 20.64 0.0 0 0 122.05 197.86
  A 20.64 20.64 0.0 0 0 142.69 177.22
  Z
  M 277.34 178.39
  A 20.64 20.64 0.0 0 0 256.70 157.75
  A 20.64 20.64 0.0 0 0 236.06 178.39
  A 20.64 20.64 0.0 0 0 256.70 199.03
  A 20.64 20.64 0.0 0 0 277.34 178.39
  Z
  M 411.71 179.42
  A 20.63 20.63 0.0 0 0 391.08 158.79
  A 20.63 20.63 0.0 0 0 370.45 179.42
  A 20.63 20.63 0.0 0 0 391.08 200.05
  A 20.63 20.63 0.0 0 0 411.71 179.42
  Z
  M 209.69 216.62
  A 20.63 20.63 0.0 0 0 189.06 195.99
  A 20.63 20.63 0.0 0 0 168.43 216.62
  A 20.63 20.63 0.0 0 0 189.06 237.25
  A 20.63 20.63 0.0 0 0 209.69 216.62
  Z
  M 344.39 217.79
  A 20.64 20.64 0.0 0 0 323.75 197.15
  A 20.64 20.64 0.0 0 0 303.11 217.79
  A 20.64 20.64 0.0 0 0 323.75 238.43
  A 20.64 20.64 0.0 0 0 344.39 217.79
  Z
  M 431.98 255.69
  A 20.63 20.63 0.0 0 0 411.35 235.06
  A 20.63 20.63 0.0 0 0 390.72 255.69
  A 20.63 20.63 0.0 0 0 411.35 276.32
  A 20.63 20.63 0.0 0 0 431.98 255.69
  Z
  M 276.72 256.03
  A 20.64 20.64 0.0 0 0 256.08 235.39
  A 20.64 20.64 0.0 0 0 235.44 256.03
  A 20.64 20.64 0.0 0 0 256.08 276.67
  A 20.64 20.64 0.0 0 0 276.72 256.03
  Z
  M 121.30 256.29
  A 20.64 20.64 0.0 0 0 100.66 235.65
  A 20.64 20.64 0.0 0 0 80.02 256.29
  A 20.64 20.64 0.0 0 0 100.66 276.93
  A 20.64 20.64 0.0 0 0 121.30 256.29
  Z
  M 209.12 294.43
  A 20.63 20.63 0.0 0 0 188.49 273.80
  A 20.63 20.63 0.0 0 0 167.86 294.43
  A 20.63 20.63 0.0 0 0 188.49 315.06
  A 20.63 20.63 0.0 0 0 209.12 294.43
  Z
  M 343.72 295.41
  A 20.63 20.63 0.0 0 0 323.09 274.78
  A 20.63 20.63 0.0 0 0 302.46 295.41
  A 20.63 20.63 0.0 0 0 323.09 316.04
  A 20.63 20.63 0.0 0 0 343.72 295.41
  Z
  M 141.49 332.73
  A 20.64 20.64 0.0 0 0 120.85 312.09
  A 20.64 20.64 0.0 0 0 100.21 332.73
  A 20.64 20.64 0.0 0 0 120.85 353.37
  A 20.64 20.64 0.0 0 0 141.49 332.73
  Z
  M 276.16 333.83
  A 20.63 20.63 0.0 0 0 255.53 313.20
  A 20.63 20.63 0.0 0 0 234.90 333.83
  A 20.63 20.63 0.0 0 0 255.53 354.46
  A 20.63 20.63 0.0 0 0 276.16 333.83
  Z
  M 410.40 334.88
  A 20.63 20.63 0.0 0 0 389.77 314.25
  A 20.63 20.63 0.0 0 0 369.14 334.88
  A 20.63 20.63 0.0 0 0 389.77 355.51
  A 20.63 20.63 0.0 0 0 410.40 334.88
  Z
  M 197.58 389.63
  A 20.63 20.63 0.0 0 0 176.95 369.00
  A 20.63 20.63 0.0 0 0 156.32 389.63
  A 20.63 20.63 0.0 0 0 176.95 410.26
  A 20.63 20.63 0.0 0 0 197.58 389.63
  Z
  M 351.90 391.93
  A 20.64 20.64 0.0 0 0 331.26 371.29
  A 20.64 20.64 0.0 0 0 310.62 391.93
  A 20.64 20.64 0.0 0 0 331.26 412.57
  A 20.64 20.64 0.0 0 0 351.90 391.93
  Z
  M 275.37 411.34
  A 20.64 20.64 0.0 0 0 254.73 390.70
  A 20.64 20.64 0.0 0 0 234.09 411.34
  A 20.64 20.64 0.0 0 0 254.73 431.98
  A 20.64 20.64 0.0 0 0 275.37 411.34
  Z"
/>
<circle fill="#f35218" cx="257.28" cy="100.65" r="20.63"/>
<circle fill="#f35218" cx="180.67" cy="120.18" r="20.63"/>
<circle fill="#f35218" cx="335.24" cy="122.29" r="20.64"/>
<circle fill="#f35218" cx="122.05" cy="177.22" r="20.64"/>
<circle fill="#f35218" cx="256.70" cy="178.39" r="20.64"/>
<circle fill="#f35218" cx="391.08" cy="179.42" r="20.63"/>
<circle fill="#f35218" cx="189.06" cy="216.62" r="20.63"/>
<circle fill="#f35218" cx="323.75" cy="217.79" r="20.64"/>
<circle fill="#f35218" cx="411.35" cy="255.69" r="20.63"/>
<circle fill="#f35218" cx="256.08" cy="256.03" r="20.64"/>
<circle fill="#f35218" cx="100.66" cy="256.29" r="20.64"/>
<circle fill="#f35218" cx="188.49" cy="294.43" r="20.63"/>
<circle fill="#f35218" cx="323.09" cy="295.41" r="20.63"/>
<circle fill="#f35218" cx="120.85" cy="332.73" r="20.64"/>
<circle fill="#f35218" cx="255.53" cy="333.83" r="20.63"/>
<circle fill="#f35218" cx="389.77" cy="334.88" r="20.63"/>
<circle fill="#f35218" cx="176.95" cy="389.63" r="20.63"/>
<circle fill="#f35218" cx="331.26" cy="391.93" r="20.64"/>
<circle fill="#f35218" cx="254.73" cy="411.34" r="20.64"/>
</svg>