<?xml version="1.0" encoding="UTF-8" standalone="no"?>
<!DOCTYPE svg PUBLIC "-//W3C//DTD SVG 1.1//EN" "http://www.w3.org/Graphics/SVG/1.1/DTD/svg11.dtd">
<svg xmlns="http://www.w3.org/2000/svg" version="1.1" viewBox="0.00 0.00 256.00 256.00" width="128" height="128">
<g stroke-width="2.00" fill="none" stroke-linecap="butt">
<path stroke="#8e8eff" vector-effect="non-scaling-stroke" d="
  M 157.4945 73.8406
  A 24.00 24.00 0.0 0 0 133.2445 50.0932
  L 125.9449 50.1697
  A 24.00 24.00 0.0 0 0 102.1975 74.4197
  L 102.2455 78.9994
  A 24.00 24.00 0.0 0 0 126.4955 102.7468
  L 133.7951 102.6703
  A 24.00 24.00 0.0 0 0 157.5425 78.4203
  L 157.4945 73.8406"
/>
<path stroke="#8e8eff" vector-effect="non-scaling-stroke" d="
  M 102.81 202.33
  L 118.96 215.09
  A 3.12 3.11 -33.7 0 0 121.75 215.64
  Q 123.11 215.24 124.62 214.37
  C 132.93 209.58 139.54 203.60 144.98 195.80
  Q 149.48 189.34 150.00 188.47
  Q 160.21 171.19 158.93 151.00
  Q 158.30 141.09 153.81 133.64
  C 145.52 119.87 129.41 115.52 115.17 122.97
  Q 104.87 128.36 102.24 139.57
  C 100.83 145.55 100.64 154.36 103.86 159.69
  C 108.94 168.07 116.74 172.89 127.00 171.44
  Q 129.40 171.10 133.15 170.02
  A 0.70 0.70 0.0 0 1 134.01 170.91
  Q 132.86 174.53 131.02 176.99
  Q 120.86 190.53 106.15 199.10
  Q 105.42 199.53 102.80 201.78
  A 0.36 0.36 0.0 0 0 102.81 202.33"
/>
</g>
<path fill="#1d1dff" d="
  M 131.49 0.00
  Q 142.56 -0.08 146.98 1.03
  C 153.92 2.78 162.14 4.66 168.63 6.86
  Q 195.88 16.11 216.96 35.89
  C 222.84 41.39 228.76 48.65 233.36 55.15
  Q 252.68 82.44 256.00 116.51
  L 256.00 140.14
  Q 254.56 154.26 251.32 165.01
  Q 240.90 199.61 213.35 224.34
  Q 182.73 251.82 140.19 256.00
  L 116.86 256.00
  C 91.60 253.62 69.52 244.61 49.51 229.15
  C 28.31 212.77 13.05 189.66 5.42 164.06
  Q 4.45 160.83 1.47 148.63
  Q 0.96 146.54 0.67 143.87
  Q 0.41 141.46 0.00 139.07
  L 0.00 120.51
  Q 0.11 112.70 0.94 109.74
  C 3.03 102.39 4.87 94.09 7.02 87.87
  C 20.24 49.65 49.32 20.43 87.55 7.14
  Q 92.49 5.43 97.58 4.22
  C 102.21 3.12 107.34 1.23 112.36 0.58
  Q 114.75 0.27 117.14 0.00
  L 131.49 0.00
  Z
  M 157.4945 73.8406
  A 24.00 24.00 0.0 0 0 133.2445 50.0932
  L 125.9449 50.1697
  A 24.00 24.00 0.0 0 0 102.1975 74.4197
  L 102.2455 78.9994
  A 24.00 24.00 0.0 0 0 126.4955 102.7468
  L 133.7951 102.6703
  A 24.00 24.00 0.0 0 0 157.5425 78.4203
  L 157.4945 73.8406
  Z
  M 102.81 202.33
  L 118.96 215.09
  A 3.12 3.11 -33.7 0 0 121.75 215.64
  Q 123.11 215.24 124.62 214.37
  C 132.93 209.58 139.54 203.60 144.98 195.80
  Q 149.48 189.34 150.00 188.47
  Q 160.21 171.19 158.93 151.00
  Q 158.30 141.09 153.81 133.64
  C 145.52 119.87 129.41 115.52 115.17 122.97
  Q 104.87 128.36 102.24 139.57
  C 100.83 145.55 100.64 154.36 103.86 159.69
  C 108.94 168.07 116.74 172.89 127.00 171.44
  Q 129.40 171.10 133.15 170.02
  A 0.70 0.70 0.0 0 1 134.01 170.91
  Q 132.86 174.53 131.02 176.99
  Q 120.86 190.53 106.15 199.10
  Q 105.42 199.53 102.80 201.78
  A 0.36 0.36 0.0 0 0 102.81 202.33
  Z"
/>
<rect fill="#ffffff" x="-27.65" y="-26.29" transform="translate(129.87,76.42) rotate(-0.6)" width="55.30" height="52.58" rx="24.00"/>
<path fill="#ffffff" d="
  M 102.80 201.78
  Q 105.42 199.53 106.15 199.10
  Q 120.86 190.53 131.02 176.99
  Q 132.86 174.53 134.01 170.91
  A 0.70 0.70 0.0 0 0 133.15 170.02
  Q 129.40 171.10 127.00 171.44
  C 116.74 172.89 108.94 168.07 103.86 159.69
  C 100.64 154.36 100.83 145.55 102.24 139.57
  Q 104.87 128.36 115.17 122.97
  C 129.41 115.52 145.52 119.87 153.81 133.64
  Q 158.30 141.09 158.93 151.00
  Q 160.21 171.19 150.00 188.47
  Q 149.48 189.34 144.98 195.80
  C 139.54 203.60 132.93 209.58 124.62 214.37
  Q 123.11 215.24 121.75 215.64
  A 3.12 3.11 -33.7 0 1 118.96 215.09
  L 102.81 202.33
  A 0.36 0.36 0.0 0 1 102.80 201.78
  Z"
/>
</svg>