<?xml version="1.0" encoding="UTF-8" standalone="no"?>
<!DOCTYPE svg PUBLIC "-//W3C//DTD SVG 1.1//EN" "http://www.w3.org/Graphics/SVG/1.1/DTD/svg11.dtd">
<svg xmlns="http://www.w3.org/2000/svg" version="1.1" viewBox="0.00 0.00 180.00 180.00" width="128" height="128">
<path stroke="#967865" stroke-width="2.00" fill="none" stroke-linecap="butt" vector-effect="non-scaling-stroke" d="
  M 122.21 113.38
  C 116.06 115.35 108.93 115.32 105.04 109.51
  Q 103.32 106.95 103.35 101.14
  Q 103.40 91.96 103.39 87.53
  A 0.64 0.63 -90.0 0 1 104.02 86.89
  L 122.42 86.89
  A 0.48 0.48 0.0 0 0 122.90 86.41
  L 122.90 58.18
  A 0.41 0.40 -0.0 0 0 122.49 57.78
  L 103.80 57.78
  A 0.40 0.40 0.0 0 1 103.40 57.38
  L 103.40 30.49
  A 0.34 0.34 0.0 0 0 103.06 30.15
  L 78.39 30.15
  A 0.67 0.66 -0.8 0 0 77.72 30.83
  Q 77.93 36.69 77.62 42.92
  Q 77.27 49.91 71.79 55.59
  Q 65.82 61.76 56.70 60.81
  A 0.60 0.59 -87.0 0 0 56.05 61.41
  L 56.05 86.49
  A 0.38 0.37 90.0 0 0 56.42 86.87
  L 68.95 86.87
  A 0.40 0.40 0.0 0 1 69.35 87.27
  Q 69.22 104.55 69.44 116.75
  Q 69.70 131.19 79.43 140.96
  C 82.12 143.66 86.37 146.33 89.84 147.14
  Q 105.02 150.71 119.64 145.41
  Q 121.01 144.91 122.51 143.91
  A 0.98 0.98 0.0 0 0 122.94 143.10
  L 122.94 113.91
  A 0.56 0.56 0.0 0 0 122.21 113.38"
/>
<path fill="#ffde92" d="
  M 94.33 0.00
  Q 134.37 2.71 159.38 32.62
  Q 178.17 55.10 180.00 85.58
  L 180.00 94.17
  Q 177.66 127.63 156.08 150.81
  C 132.99 175.61 98.05 185.62 65.56 176.35
  C 28.31 165.72 2.43 133.34 0.00 94.28
  L 0.00 85.67
  C 2.16 47.61 27.00 15.67 62.82 4.11
  Q 72.88 0.86 85.61 0.00
  L 94.33 0.00
  Z
  M 122.21 113.38
  C 116.06 115.35 108.93 115.32 105.04 109.51
  Q 103.32 106.95 103.35 101.14
  Q 103.40 91.96 103.39 87.53
  A 0.64 0.63 -90.0 0 1 104.02 86.89
  L 122.42 86.89
  A 0.48 0.48 0.0 0 0 122.90 86.41
  L 122.90 58.18
  A 0.41 0.40 -0.0 0 0 122.49 57.78
  L 103.80 57.78
  A 0.40 0.40 0.0 0 1 103.40 57.38
  L 103.40 30.49
  A 0.34 0.34 0.0 0 0 103.06 30.15
  L 78.39 30.15
  A 0.67 0.66 -0.8 0 0 77.72 30.83
  Q 77.93 36.69 77.62 42.92
  Q 77.27 49.91 71.79 55.59
  Q 65.82 61.76 56.70 60.81
  A 0.60 0.59 -87.0 0 0 56.05 61.41
  L 56.05 86.49
  A 0.38 0.37 90.0 0 0 56.42 86.87
  L 68.95 86.87
  A 0.40 0.40 0.0 0 1 69.35 87.27
  Q 69.22 104.55 69.44 116.75
  Q 69.70 131.19 79.43 140.96
  C 82.12 143.66 86.37 146.33 89.84 147.14
  Q 105.02 150.71 119.64 145.41
  Q 121.01 144.91 122.51 143.91
  A 0.98 0.98 0.0 0 0 122.94 143.10
  L 122.94 113.91
  A 0.56 0.56 0.0 0 0 122.21 113.38
  Z"
/>
<path fill="#2c1138" d="
  M 122.94 113.91
  L 122.94 143.10
  A 0.98 0.98 0.0 0 1 122.51 143.91
  Q 121.01 144.91 119.64 145.41
  Q 105.02 150.71 89.84 147.14
  C 86.37 146.33 82.12 143.66 79.43 140.96
  Q 69.70 131.19 69.44 116.75
  Q 69.22 104.55 69.35 87.27
  A 0.40 0.40 0.0 0 0 68.95 86.87
  L 56.42 86.87
  A 0.38 0.37 90.0 0 1 56.05 86.49
  L 56.05 61.41
  A 0.60 0.59 -87.0 0 1 56.70 60.81
  Q 65.82 61.76 71.79 55.59
  Q 77.27 49.91 77.62 42.92
  Q 77.93 36.69 77.72 30.83
  A 0.67 0.66 -0.8 0 1 78.39 30.15
  L 103.06 30.15
  A 0.34 0.34 0.0 0 1 103.40 30.49
  L 103.40 57.38
  A 0.40 0.40 0.0 0 0 103.80 57.78
  L 122.49 57.78
  A 0.41 0.40 0.0 0 1 122.90 58.18
  L 122.90 86.41
  A 0.48 0.48 0.0 0 1 122.42 86.89
  L 104.02 86.89
  A 0.64 0.63 90.0 0 0 103.39 87.53
  Q 103.40 91.96 103.35 101.14
  Q 103.32 106.95 105.04 109.51
  C 108.93 115.32 116.06 115.35 122.21 113.38
  A 0.56 0.56 0.0 0 1 122.94 113.91
  Z"
/>
</svg>