<?xml version="1.0" encoding="UTF-8" standalone="no"?>
<!DOCTYPE svg PUBLIC "-//W3C//DTD SVG 1.1//EN" "http://www.w3.org/Graphics/SVG/1.1/DTD/svg11.dtd">
<svg xmlns="http://www.w3.org/2000/svg" version="1.1" viewBox="0.00 0.00 1080.00 1080.00" width="128" height="128">
<g stroke-width="2.00" fill="none" stroke-linecap="butt">
<path stroke="#918121" vector-effect="non-scaling-stroke" d="
  M 484.94 942.22
  Q 490.17 941.95 495.32 942.16
  C 496.89 942.22 498.89 942.88 500.26 942.86
  Q 509.68 942.76 519.00 943.34
  Q 531.01 944.08 540.75 944.45
  Q 546.64 944.68 564.00 944.04
  C 566.02 943.97 568.39 943.38 570.69 943.38
  Q 578.46 943.39 589.23 942.42
  A 3.32 3.31 -74.6 0 0 591.64 941.05
  Q 593.21 938.84 593.62 936.11
  C 594.75 928.48 596.29 920.75 596.95 913.08
  Q 598.22 898.32 598.88 889.75
  Q 600.13 873.59 599.10 844.65
  Q 598.87 838.06 598.28 832.87
  C 597.24 823.81 597.25 816.00 595.62 806.98
  C 593.24 793.79 590.79 783.38 588.78 772.64
  C 586.39 759.80 581.87 747.32 578.29 735.80
  Q 575.25 726.01 570.19 713.81
  Q 564.32 699.66 557.77 686.05
  C 553.47 677.13 547.82 667.19 543.36 659.64
  Q 512.68 607.76 468.60 567.41
  Q 455.50 555.41 446.61 548.40
  Q 405.84 516.23 358.77 495.24
  C 351.43 491.97 343.66 489.24 336.95 486.40
  Q 331.17 483.95 320.28 480.67
  Q 307.66 476.87 301.07 474.76
  Q 293.70 472.40 281.56 470.14
  Q 266.65 467.35 258.79 465.85
  C 253.27 464.79 247.44 464.20 241.51 463.24
  Q 237.24 462.54 228.49 461.99
  Q 221.37 461.55 213.00 461.00
  C 193.59 459.72 175.73 460.67 154.98 462.40
  C 151.14 462.72 146.31 463.57 141.84 463.68"
/>
<path stroke="#91969c" vector-effect="non-scaling-stroke" d="
  M 531.10 431.78
  Q 531.10 432.32 533.36 432.94
  C 544.96 436.13 557.73 438.79 568.78 442.35
  Q 574.93 444.33 581.10 445.80
  Q 588.11 447.48 593.11 449.91
  Q 616.69 461.37 625.28 486.70
  C 629.71 499.73 632.99 514.79 635.84 524.72
  Q 638.78 535.00 640.76 540.60
  A 0.32 0.32 0.0 0 0 641.33 540.66
  Q 641.72 540.03 641.83 539.50
  Q 644.57 526.17 648.58 513.67
  C 652.30 502.11 653.48 491.04 658.06 480.93
  Q 666.59 462.11 684.24 451.77
  Q 689.98 448.42 695.25 446.98
  Q 708.29 443.43 714.18 441.58
  C 724.88 438.23 737.29 435.61 748.79 432.22
  Q 749.94 431.88 749.94 431.42
  Q 749.94 430.96 748.79 430.63
  C 737.28 427.28 724.86 424.70 714.15 421.38
  Q 708.25 419.55 695.20 416.04
  Q 689.93 414.62 684.17 411.29
  Q 666.49 401.01 657.90 382.21
  C 653.29 372.12 652.07 361.05 648.31 349.50
  Q 644.26 337.02 641.48 323.70
  Q 641.37 323.17 640.98 322.54
  A 0.32 0.32 0.0 0 0 640.41 322.60
  Q 638.44 328.21 635.54 338.50
  C 632.72 348.43 629.49 363.51 625.10 376.55
  Q 616.59 401.91 593.05 413.44
  Q 588.06 415.89 581.05 417.59
  Q 574.89 419.08 568.75 421.08
  C 557.71 424.68 544.95 427.38 533.36 430.61
  Q 531.10 431.24 531.10 431.78"
/>
</g>
<path fill="#222c38" d="
  M 484.94 942.22
  Q 490.17 941.95 495.32 942.16
  C 496.89 942.22 498.89 942.88 500.26 942.86
  Q 509.68 942.76 519.00 943.34
  Q 531.01 944.08 540.75 944.45
  Q 546.64 944.68 564.00 944.04
  C 566.02 943.97 568.39 943.38 570.69 943.38
  Q 578.46 943.39 589.23 942.42
  A 3.32 3.31 -74.6 0 0 591.64 941.05
  Q 593.21 938.84 593.62 936.11
  C 594.75 928.48 596.29 920.75 596.95 913.08
  Q 598.22 898.32 598.88 889.75
  Q 600.13 873.59 599.10 844.65
  Q 598.87 838.06 598.28 832.87
  C 597.24 823.81 597.25 816.00 595.62 806.98
  C 593.24 793.79 590.79 783.38 588.78 772.64
  C 586.39 759.80 581.87 747.32 578.29 735.80
  Q 575.25 726.01 570.19 713.81
  Q 564.32 699.66 557.77 686.05
  C 553.47 677.13 547.82 667.19 543.36 659.64
  Q 512.68 607.76 468.60 567.41
  Q 455.50 555.41 446.61 548.40
  Q 405.84 516.23 358.77 495.24
  C 351.43 491.97 343.66 489.24 336.95 486.40
  Q 331.17 483.95 320.28 480.67
  Q 307.66 476.87 301.07 474.76
  Q 293.70 472.40 281.56 470.14
  Q 266.65 467.35 258.79 465.85
  C 253.27 464.79 247.44 464.20 241.51 463.24
  Q 237.24 462.54 228.49 461.99
  Q 221.37 461.55 213.00 461.00
  C 193.59 459.72 175.73 460.67 154.98 462.40
  C 151.14 462.72 146.31 463.57 141.84 463.68
  Q 146.95 443.00 148.55 437.30
  Q 151.65 426.24 158.87 406.28
  C 160.60 401.52 161.96 396.03 163.81 391.80
  Q 173.29 370.10 184.92 347.65
  Q 186.09 345.40 192.78 333.77
  C 196.60 327.13 200.15 322.42 204.62 315.37
  C 208.98 308.50 213.79 302.33 218.77 295.21
  Q 220.94 292.10 225.04 287.59
  C 234.34 277.38 243.10 266.45 252.69 256.95
  Q 264.16 245.58 268.67 241.93
  Q 277.28 234.94 280.39 231.99
  Q 285.83 226.83 292.08 222.04
  Q 316.27 203.51 341.64 189.00
  Q 349.70 184.40 353.34 182.59
  C 361.59 178.49 369.87 173.68 377.93 170.32
  C 384.34 167.65 389.65 164.94 395.28 162.94
  Q 412.49 156.83 432.66 150.71
  C 443.04 147.56 450.75 146.30 462.29 143.71
  Q 467.90 142.45 474.25 141.43
  Q 498.39 137.57 510.77 137.10
  Q 522.41 136.66 552.28 136.67
  C 574.89 136.68 596.49 138.82 617.97 143.63
  C 626.06 145.44 635.88 147.14 644.42 149.65
  Q 663.62 155.30 681.35 161.33
  C 690.05 164.28 697.29 167.89 706.08 171.77
  Q 710.47 173.70 715.73 176.52
  C 725.99 182.01 739.31 188.20 750.13 195.30
  C 757.81 200.34 766.22 204.96 772.33 209.68
  Q 775.47 212.11 790.65 223.61
  Q 796.69 228.19 809.65 239.40
  Q 820.04 248.39 827.66 256.34
  Q 850.62 280.30 870.66 307.54
  Q 874.33 312.53 878.08 318.64
  C 880.89 323.20 884.75 328.13 887.69 333.66
  Q 891.21 340.28 893.95 344.97
  C 897.56 351.14 899.83 356.93 903.28 363.17
  Q 905.06 366.38 906.96 370.50
  C 912.96 383.54 916.02 389.18 919.35 399.30
  C 922.38 408.51 926.88 419.07 928.96 427.03
  Q 934.45 447.94 934.73 449.27
  C 935.54 453.15 936.28 458.11 937.48 463.02
  Q 939.31 470.43 940.27 476.99
  Q 944.30 504.33 944.09 535.33
  Q 944.08 536.38 944.23 538.66
  Q 944.33 540.34 944.40 542.00
  Q 944.96 557.28 943.02 587.30
  Q 942.58 594.14 941.88 598.52
  C 939.54 613.21 936.77 625.52 933.24 639.82
  Q 931.28 647.75 930.02 651.74
  Q 928.90 655.25 926.47 663.54
  Q 921.43 680.71 910.78 704.07
  Q 905.10 716.55 896.79 732.81
  C 888.85 748.34 879.08 763.34 869.31 777.23
  Q 860.19 790.19 847.69 804.45
  Q 831.58 822.83 812.62 840.50
  Q 805.96 846.70 801.88 849.95
  C 796.70 854.06 792.38 858.54 787.21 862.15
  C 781.13 866.40 769.69 875.14 761.68 879.95
  C 753.49 884.89 746.74 889.80 737.81 894.53
  Q 709.81 909.40 680.87 920.83
  C 672.36 924.19 662.01 927.27 652.00 930.61
  Q 647.33 932.16 644.94 932.73
  C 641.23 933.60 638.69 934.46 635.41 935.10
  Q 621.33 937.81 616.60 939.04
  C 612.16 940.18 606.51 940.55 602.35 941.82
  C 597.69 943.24 593.76 943.49 588.73 944.95
  Q 588.04 945.15 584.00 945.33
  Q 576.84 945.64 558.01 945.98
  C 542.87 946.26 525.93 945.59 511.00 945.23
  Q 501.92 945.02 484.94 942.22
  Z
  M 531.10 431.78
  Q 531.10 432.32 533.36 432.94
  C 544.96 436.13 557.73 438.79 568.78 442.35
  Q 574.93 444.33 581.10 445.80
  Q 588.11 447.48 593.11 449.91
  Q 616.69 461.37 625.28 486.70
  C 629.71 499.73 632.99 514.79 635.84 524.72
  Q 638.78 535.00 640.76 540.60
  A 0.32 0.32 0.0 0 0 641.33 540.66
  Q 641.72 540.03 641.83 539.50
  Q 644.57 526.17 648.58 513.67
  C 652.30 502.11 653.48 491.04 658.06 480.93
  Q 666.59 462.11 684.24 451.77
  Q 689.98 448.42 695.25 446.98
  Q 708.29 443.43 714.18 441.58
  C 724.88 438.23 737.29 435.61 748.79 432.22
  Q 749.94 431.88 749.94 431.42
  Q 749.94 430.96 748.79 430.63
  C 737.28 427.28 724.86 424.70 714.15 421.38
  Q 708.25 419.55 695.20 416.04
  Q 689.93 414.62 684.17 411.29
  Q 666.49 401.01 657.90 382.21
  C 653.29 372.12 652.07 361.05 648.31 349.50
  Q 644.26 337.02 641.48 323.70
  Q 641.37 323.17 640.98 322.54
  A 0.32 0.32 0.0 0 0 640.41 322.60
  Q 638.44 328.21 635.54 338.50
  C 632.72 348.43 629.49 363.51 625.10 376.55
  Q 616.59 401.91 593.05 413.44
  Q 588.06 415.89 581.05 417.59
  Q 574.89 419.08 568.75 421.08
  C 557.71 424.68 544.95 427.38 533.36 430.61
  Q 531.10 431.24 531.10 431.78
  Z"
/>
<path fill="#ffffff" d="
  M 749.94 431.42
  Q 749.94 431.88 748.79 432.22
  C 737.29 435.61 724.88 438.23 714.18 441.58
  Q 708.29 443.43 695.25 446.98
  Q 689.98 448.42 684.24 451.77
  Q 666.59 462.11 658.06 480.93
  C 653.48 491.04 652.30 502.11 648.58 513.67
  Q 644.57 526.17 641.83 539.50
  Q 641.72 540.03 641.33 540.66
  A 0.32 0.32 0.0 0 1 640.76 540.60
  Q 638.78 535.00 635.84 524.72
  C 632.99 514.79 629.71 499.73 625.28 486.70
  Q 616.69 461.37 593.11 449.91
  Q 588.11 447.48 581.10 445.80
  Q 574.93 444.33 568.78 442.35
  C 557.73 438.79 544.96 436.13 533.36 432.94
  Q 531.10 432.32 531.10 431.78
  Q 531.10 431.24 533.36 430.61
  C 544.95 427.38 557.71 424.68 568.75 421.08
  Q 574.89 419.08 581.05 417.59
  Q 588.06 415.89 593.05 413.44
  Q 616.59 401.91 625.10 376.55
  C 629.49 363.51 632.72 348.43 635.54 338.50
  Q 638.44 328.21 640.41 322.60
  A 0.32 0.32 0.0 0 1 640.98 322.54
  Q 641.37 323.17 641.48 323.70
  Q 644.26 337.02 648.31 349.50
  C 652.07 361.05 653.29 372.12 657.90 382.21
  Q 666.49 401.01 684.17 411.29
  Q 689.93 414.62 695.20 416.04
  Q 708.25 419.55 714.15 421.38
  C 724.86 424.70 737.28 427.28 748.79 430.63
  Q 749.94 430.96 749.94 431.42
  Z"
/>
<path fill="#ffd60a" d="
  M 484.94 942.22
  Q 472.03 940.41 464.77 938.74
  C 454.03 936.28 442.92 934.46 433.60 931.57
  Q 413.52 925.34 404.52 922.20
  Q 396.68 919.46 373.23 909.49
  Q 354.11 901.36 325.41 883.56
  C 319.53 879.91 316.05 877.98 311.37 874.63
  Q 290.11 859.47 268.28 840.23
  Q 256.37 829.74 248.11 820.77
  Q 232.64 803.97 223.26 792.22
  C 203.83 767.90 188.36 742.13 174.39 713.59
  Q 169.19 702.98 166.92 696.57
  Q 166.24 694.65 162.14 685.06
  Q 160.23 680.60 157.85 673.28
  C 152.29 656.20 149.06 647.58 145.96 633.21
  Q 145.20 629.67 141.43 612.66
  Q 140.32 607.67 139.79 602.63
  Q 139.37 598.64 138.06 593.67
  A 11.60 11.37 -55.2 0 1 137.69 591.49
  Q 137.06 582.37 136.33 576.99
  C 134.04 560.05 134.94 543.98 135.30 527.33
  Q 135.59 513.63 135.95 510.50
  C 137.12 500.38 137.38 492.63 138.98 483.82
  C 139.76 479.53 139.94 474.02 140.88 469.03
  Q 141.40 466.25 141.84 463.68
  C 146.31 463.57 151.14 462.72 154.98 462.40
  C 175.73 460.67 193.59 459.72 213.00 461.00
  Q 221.37 461.55 228.49 461.99
  Q 237.24 462.54 241.51 463.24
  C 247.44 464.20 253.27 464.79 258.79 465.85
  Q 266.65 467.35 281.56 470.14
  Q 293.70 472.40 301.07 474.76
  Q 307.66 476.87 320.28 480.67
  Q 331.17 483.95 336.95 486.40
  C 343.66 489.24 351.43 491.97 358.77 495.24
  Q 405.84 516.23 446.61 548.40
  Q 455.50 555.41 468.60 567.41
  Q 512.68 607.76 543.36 659.64
  C 547.82 667.19 553.47 677.13 557.77 686.05
  Q 564.32 699.66 570.19 713.81
  Q 575.25 726.01 578.29 735.80
  C 581.87 747.32 586.39 759.80 588.78 772.64
  C 590.79 783.38 593.24 793.79 595.62 806.98
  C 597.25 816.00 597.24 823.81 598.28 832.87
  Q 598.87 838.06 599.10 844.65
  Q 600.13 873.59 598.88 889.75
  Q 598.22 898.32 596.95 913.08
  C 596.29 920.75 594.75 928.48 593.62 936.11
  Q 593.21 938.84 591.64 941.05
  A 3.32 3.31 -74.6 0 1 589.23 942.42
  Q 578.46 943.39 570.69 943.38
  C 568.39 943.38 566.02 943.97 564.00 944.04
  Q 546.64 944.68 540.75 944.45
  Q 531.01 944.08 519.00 943.34
  Q 509.68 942.76 500.26 942.86
  C 498.89 942.88 496.89 942.22 495.32 942.16
  Q 490.17 941.95 484.94 942.22
  Z"
/>
</svg>