<?xml version="1.0" encoding="UTF-8" standalone="no"?>
<!DOCTYPE svg PUBLIC "-//W3C//DTD SVG 1.1//EN" "http://www.w3.org/Graphics/SVG/1.1/DTD/svg11.dtd">
<svg xmlns="http://www.w3.org/2000/svg" version="1.1" viewBox="0.00 0.00 256.00 256.00" width="128" height="128">
<path fill="#e01b12" d="
  M 212.74 90.14
  A 84.48 84.48 0.0 0 1 128.26 174.62
  A 84.48 84.48 0.0 0 1 43.78 90.14
  A 84.48 84.48 0.0 0 1 128.26 5.66
  A 84.48 84.48 0.0 0 1 212.74 90.14
  Z
  M 172.39 90.20
  A 44.13 44.13 0.0 0 0 128.26 46.07
  A 44.13 44.13 0.0 0 0 84.13 90.20
  A 44.13 44.13 0.0 0 0 128.26 134.33
  A 44.13 44.13 0.0 0 0 172.39 90.20
  Z"
/>
<path fill="#e01b12" d="
  M 156.95 195.17
  A 1.96 1.95 -70.9 0 1 157.97 197.28
  C 156.99 202.25 154.32 207.09 151.53 211.01
  C 148.51 215.24 146.59 220.16 143.83 224.45
  Q 142.27 226.88 138.56 233.83
  C 135.45 239.67 133.45 243.28 129.77 247.25
  Q 128.48 248.64 128.04 248.69
  A 3.07 3.03 73.0 0 1 125.02 247.06
  Q 113.43 224.81 100.87 203.91
  Q 99.23 201.18 98.25 197.86
  A 2.30 2.29 -21.5 0 1 99.43 195.16
  Q 100.70 194.52 102.75 194.68
  C 112.72 195.45 125.78 195.08 133.42 195.28
  Q 146.14 195.61 155.99 194.82
  Q 156.25 194.80 156.95 195.17
  Z"
/>
</svg>