<?xml version="1.0" encoding="UTF-8" standalone="no"?>
<!DOCTYPE svg PUBLIC "-//W3C//DTD SVG 1.1//EN" "http://www.w3.org/Graphics/SVG/1.1/DTD/svg11.dtd">
<svg xmlns="http://www.w3.org/2000/svg" version="1.1" viewBox="0.00 0.00 256.00 256.00" width="128" height="128">
<g stroke-width="2.00" fill="none" stroke-linecap="butt">
<path stroke="#7b81ff" vector-effect="non-scaling-stroke" d="
  M 256.00 149.50
  Q 249.10 146.13 242.60 149.18
  Q 236.51 152.03 229.50 156.82"
/>
<path stroke="#c3c8ff" vector-effect="non-scaling-stroke" d="
  M 229.50 156.82
  C 230.39 142.91 230.53 130.42 227.47 116.95
  C 226.24 111.51 223.58 106.64 221.63 101.12
  Q 219.64 95.48 216.26 89.70
  Q 211.36 81.29 208.01 75.98
  Q 204.50 70.40 200.82 67.43
  Q 195.85 63.41 181.62 54.39
  Q 172.74 48.76 166.72 46.53
  Q 160.26 44.13 150.93 40.85
  Q 139.77 36.92 129.31 36.90
  Q 124.58 36.89 114.42 38.54
  Q 111.48 39.01 104.80 41.51
  Q 101.87 42.61 95.31 44.85
  Q 92.13 45.94 84.61 49.69
  C 77.01 53.47 71.27 57.61 64.09 62.10
  Q 57.24 66.37 52.22 72.21
  C 44.21 81.52 38.02 91.72 33.38 103.59
  Q 29.05 114.67 28.68 116.51
  Q 25.56 132.07 25.86 147.80"
/>
<path stroke="#7b81ff" vector-effect="non-scaling-stroke" d="
  M 25.86 147.80
  C 19.35 158.97 12.50 166.91 0.00 171.64"
/>
<path stroke="#b8b9ff" vector-effect="non-scaling-stroke" d="
  M 229.50 156.82
  Q 228.33 166.96 226.04 174.28
  Q 225.33 176.54 222.82 183.04
  Q 219.85 190.74 219.30 191.67
  Q 214.91 199.14 205.49 198.86
  C 201.67 198.75 199.56 197.30 196.46 194.76
  Q 189.30 188.90 192.85 180.08
  C 198.55 165.94 203.63 153.71 201.14 138.21"
/>
<path stroke="#bdbff1" vector-effect="non-scaling-stroke" d="
  M 201.14 138.21
  Q 200.09 128.71 198.20 122.07
  C 192.88 103.40 180.14 86.73 162.68 77.46
  Q 154.81 73.29 150.30 71.64
  Q 145.12 69.74 136.70 69.02
  C 125.56 68.07 113.16 68.11 102.98 72.65
  C 90.06 78.41 79.85 87.13 71.39 98.38
  C 68.61 102.10 66.74 105.88 64.16 109.91
  Q 61.97 113.34 60.42 118.94
  Q 57.33 130.12 56.90 141.70"
/>
<path stroke="#bec1ff" vector-effect="non-scaling-stroke" d="
  M 56.90 141.70
  Q 56.36 151.50 58.91 160.63"
/>
<path stroke="#b8b9ff" vector-effect="non-scaling-stroke" d="
  M 58.91 160.63
  C 60.13 165.99 62.21 171.28 64.05 175.81
  Q 65.87 180.31 65.98 182.72
  C 66.38 191.14 62.39 197.13 54.04 198.96
  C 50.06 199.83 44.92 200.01 41.70 197.03
  C 38.57 194.12 36.39 191.22 34.53 187.10
  Q 26.16 168.51 25.86 147.80"
/>
<path stroke="#7578f1" vector-effect="non-scaling-stroke" d="
  M 201.14 138.21
  L 201.38 146.04
  A 0.23 0.22 35.6 0 1 200.94 146.11
  L 199.02 140.12"
/>
<path stroke="#7b80f1" vector-effect="non-scaling-stroke" d="
  M 199.02 140.12
  C 198.12 137.50 198.19 134.62 197.50 132.23
  Q 196.26 127.88 196.39 123.60
  A 1.36 1.36 0.0 0 0 196.04 122.64
  Q 193.54 119.89 193.14 116.05
  A 0.05 0.01 58.3 0 0 193.13 116.02
  L 190.53 110.41
  A 0.81 0.78 -86.5 0 0 190.22 110.05
  Q 186.08 107.27 181.22 104.66
  Q 164.89 95.92 159.81 93.24
  Q 155.68 91.06 150.18 89.88
  Q 136.47 86.92 122.63 87.63
  C 104.63 88.56 85.45 97.57 74.09 111.74
  Q 70.90 115.72 66.79 123.94
  Q 63.80 129.93 60.18 136.62
  Q 58.73 139.32 56.90 141.70"
/>
<path stroke="#767aff" vector-effect="non-scaling-stroke" d="
  M 199.02 140.12
  L 199.34 144.86
  A 2.54 2.41 53.5 0 1 199.23 145.77
  C 196.01 155.58 191.54 161.80 180.63 163.02
  Q 169.13 164.32 157.50 165.76"
/>
<path stroke="#bec1ff" vector-effect="non-scaling-stroke" d="
  M 157.50 165.76
  Q 157.52 159.89 157.02 157.48
  C 155.47 150.10 150.76 142.18 143.31 139.34
  Q 137.47 137.12 133.78 137.07
  Q 118.97 136.87 111.12 149.39
  Q 106.02 157.52 107.49 168.05"
/>
<path stroke="#767aff" vector-effect="non-scaling-stroke" d="
  M 107.49 168.05
  C 93.42 159.59 74.76 157.04 58.91 160.63"
/>
<path stroke="#b8b9ff" vector-effect="non-scaling-stroke" d="
  M 157.50 165.76
  C 156.47 174.09 153.27 180.92 146.33 185.90
  A 4.25 4.12 14.9 0 1 145.47 186.38
  Q 127.45 193.78 114.37 181.70
  C 110.40 178.04 108.32 173.29 107.49 168.05"
/>
</g>
<path fill="#8690ff" d="
  M 218.38 0.00
  Q 224.76 0.25 226.77 0.94
  Q 232.65 2.97 240.43 9.06
  Q 249.40 16.08 253.91 26.62
  Q 256.09 31.73 256.00 38.40
  L 256.00 149.50
  Q 249.10 146.13 242.60 149.18
  Q 236.51 152.03 229.50 156.82
  C 230.39 142.91 230.53 130.42 227.47 116.95
  C 226.24 111.51 223.58 106.64 221.63 101.12
  Q 219.64 95.48 216.26 89.70
  Q 211.36 81.29 208.01 75.98
  Q 204.50 70.40 200.82 67.43
  Q 195.85 63.41 181.62 54.39
  Q 172.74 48.76 166.72 46.53
  Q 160.26 44.13 150.93 40.85
  Q 139.77 36.92 129.31 36.90
  Q 124.58 36.89 114.42 38.54
  Q 111.48 39.01 104.80 41.51
  Q 101.87 42.61 95.31 44.85
  Q 92.13 45.94 84.61 49.69
  C 77.01 53.47 71.27 57.61 64.09 62.10
  Q 57.24 66.37 52.22 72.21
  C 44.21 81.52 38.02 91.72 33.38 103.59
  Q 29.05 114.67 28.68 116.51
  Q 25.56 132.07 25.86 147.80
  C 19.35 158.97 12.50 166.91 0.00 171.64
  L 0.00 42.87
  C 0.19 32.38 2.83 26.01 8.67 17.22
  Q 12.33 11.73 18.01 7.98
  Q 24.57 3.66 30.75 1.01
  Q 32.18 0.40 36.50 0.00
  L 218.38 0.00
  Z"
/>
<path fill="#ffffff" d="
  M 229.50 156.82
  Q 228.33 166.96 226.04 174.28
  Q 225.33 176.54 222.82 183.04
  Q 219.85 190.74 219.30 191.67
  Q 214.91 199.14 205.49 198.86
  C 201.67 198.75 199.56 197.30 196.46 194.76
  Q 189.30 188.90 192.85 180.08
  C 198.55 165.94 203.63 153.71 201.14 138.21
  Q 200.09 128.71 198.20 122.07
  C 192.88 103.40 180.14 86.73 162.68 77.46
  Q 154.81 73.29 150.30 71.64
  Q 145.12 69.74 136.70 69.02
  C 125.56 68.07 113.16 68.11 102.98 72.65
  C 90.06 78.41 79.85 87.13 71.39 98.38
  C 68.61 102.10 66.74 105.88 64.16 109.91
  Q 61.97 113.34 60.42 118.94
  Q 57.33 130.12 56.90 141.70
  Q 56.36 151.50 58.91 160.63
  C 60.13 165.99 62.21 171.28 64.05 175.81
  Q 65.87 180.31 65.98 182.72
  C 66.38 191.14 62.39 197.13 54.04 198.96
  C 50.06 199.83 44.92 200.01 41.70 197.03
  C 38.57 194.12 36.39 191.22 34.53 187.10
  Q 26.16 168.51 25.86 147.80
  Q 25.56 132.07 28.68 116.51
  Q 29.05 114.67 33.38 103.59
  C 38.02 91.72 44.21 81.52 52.22 72.21
  Q 57.24 66.37 64.09 62.10
  C 71.27 57.61 77.01 53.47 84.61 49.69
  Q 92.13 45.94 95.31 44.85
  Q 101.87 42.61 104.80 41.51
  Q 111.48 39.01 114.42 38.54
  Q 124.58 36.89 129.31 36.90
  Q 139.77 36.92 150.93 40.85
  Q 160.26 44.13 166.72 46.53
  Q 172.74 48.76 181.62 54.39
  Q 195.85 63.41 200.82 67.43
  Q 204.50 70.40 208.01 75.98
  Q 211.36 81.29 216.26 89.70
  Q 219.64 95.48 221.63 101.12
  C 223.58 106.64 226.24 111.51 227.47 116.95
  C 230.53 130.42 230.39 142.91 229.50 156.82
  Z"
/>
<path fill="#7a7ee2" d="
  M 201.14 138.21
  L 201.38 146.04
  A 0.23 0.22 35.6 0 1 200.94 146.11
  L 199.02 140.12
  C 198.12 137.50 198.19 134.62 197.50 132.23
  Q 196.26 127.88 196.39 123.60
  A 1.36 1.36 0.0 0 0 196.04 122.64
  Q 193.54 119.89 193.14 116.05
  A 0.05 0.01 58.3 0 0 193.13 116.02
  L 190.53 110.41
  A 0.81 0.78 -86.5 0 0 190.22 110.05
  Q 186.08 107.27 181.22 104.66
  Q 164.89 95.92 159.81 93.24
  Q 155.68 91.06 150.18 89.88
  Q 136.47 86.92 122.63 87.63
  C 104.63 88.56 85.45 97.57 74.09 111.74
  Q 70.90 115.72 66.79 123.94
  Q 63.80 129.93 60.18 136.62
  Q 58.73 139.32 56.90 141.70
  Q 57.33 130.12 60.42 118.94
  Q 61.97 113.34 64.16 109.91
  C 66.74 105.88 68.61 102.10 71.39 98.38
  C 79.85 87.13 90.06 78.41 102.98 72.65
  C 113.16 68.11 125.56 68.07 136.70 69.02
  Q 145.12 69.74 150.30 71.64
  Q 154.81 73.29 162.68 77.46
  C 180.14 86.73 192.88 103.40 198.20 122.07
  Q 200.09 128.71 201.14 138.21
  Z"
/>
<path fill="#7c82ff" d="
  M 199.02 140.12
  L 199.34 144.86
  A 2.54 2.41 53.5 0 1 199.23 145.77
  C 196.01 155.58 191.54 161.80 180.63 163.02
  Q 169.13 164.32 157.50 165.76
  Q 157.52 159.89 157.02 157.48
  C 155.47 150.10 150.76 142.18 143.31 139.34
  Q 137.47 137.12 133.78 137.07
  Q 118.97 136.87 111.12 149.39
  Q 106.02 157.52 107.49 168.05
  C 93.42 159.59 74.76 157.04 58.91 160.63
  Q 56.36 151.50 56.90 141.70
  Q 58.73 139.32 60.18 136.62
  Q 63.80 129.93 66.79 123.94
  Q 70.90 115.72 74.09 111.74
  C 85.45 97.57 104.63 88.56 122.63 87.63
  Q 136.47 86.92 150.18 89.88
  Q 155.68 91.06 159.81 93.24
  Q 164.89 95.92 181.22 104.66
  Q 186.08 107.27 190.22 110.05
  A 0.81 0.78 -86.5 0 1 190.53 110.41
  L 193.13 116.02
  A 0.05 0.01 58.3 0 1 193.14 116.05
  Q 193.54 119.89 196.04 122.64
  A 1.36 1.36 0.0 0 1 196.39 123.60
  Q 196.26 127.88 197.50 132.23
  C 198.19 134.62 198.12 137.50 199.02 140.12
  Z"
/>
<path fill="#ffffff" d="
  M 157.50 165.76
  C 156.47 174.09 153.27 180.92 146.33 185.90
  A 4.25 4.12 14.9 0 1 145.47 186.38
  Q 127.45 193.78 114.37 181.70
  C 110.40 178.04 108.32 173.29 107.49 168.05
  Q 106.02 157.52 111.12 149.39
  Q 118.97 136.87 133.78 137.07
  Q 137.47 137.12 143.31 139.34
  C 150.76 142.18 155.47 150.10 157.02 157.48
  Q 157.52 159.89 157.50 165.76
  Z"
/>
<path fill="#7072ff" d="
  M 229.50 156.82
  Q 236.51 152.03 242.60 149.18
  Q 249.10 146.13 256.00 149.50
  L 256.00 219.99
  L 255.07 226.49
  A 5.67 5.33 -32.0 0 1 254.74 227.74
  Q 251.11 237.22 246.60 242.37
  Q 239.46 250.53 228.00 254.53
  Q 223.90 255.96 214.36 256.00
  L 36.58 256.00
  Q 30.32 255.49 28.80 254.97
  Q 23.22 253.08 15.42 247.18
  Q 10.84 243.70 7.23 237.95
  Q 2.56 230.51 1.18 227.03
  Q 0.60 225.57 0.00 220.09
  L 0.00 171.64
  C 12.50 166.91 19.35 158.97 25.86 147.80
  Q 26.16 168.51 34.53 187.10
  C 36.39 191.22 38.57 194.12 41.70 197.03
  C 44.92 200.01 50.06 199.83 54.04 198.96
  C 62.39 197.13 66.38 191.14 65.98 182.72
  Q 65.87 180.31 64.05 175.81
  C 62.21 171.28 60.13 165.99 58.91 160.63
  C 74.76 157.04 93.42 159.59 107.49 168.05
  C 108.32 173.29 110.40 178.04 114.37 181.70
  Q 127.45 193.78 145.47 186.38
  A 4.25 4.12 14.9 0 0 146.33 185.90
  C 153.27 180.92 156.47 174.09 157.50 165.76
  Q 169.13 164.32 180.63 163.02
  C 191.54 161.80 196.01 155.58 199.23 145.77
  A 2.54 2.41 53.5 0 0 199.34 144.86
  L 199.02 140.12
  L 200.94 146.11
  A 0.23 0.22 35.6 0 0 201.38 146.04
  L 201.14 138.21
  C 203.63 153.71 198.55 165.94 192.85 180.08
  Q 189.30 188.90 196.46 194.76
  C 199.56 197.30 201.67 198.75 205.49 198.86
  Q 214.91 199.14 219.30 191.67
  Q 219.85 190.74 222.82 183.04
  Q 225.33 176.54 226.04 174.28
  Q 228.33 166.96 229.50 156.82
  Z"
/>
</svg>