<?xml version="1.0" encoding="UTF-8" standalone="no"?>
<!DOCTYPE svg PUBLIC "-//W3C//DTD SVG 1.1//EN" "http://www.w3.org/Graphics/SVG/1.1/DTD/svg11.dtd">
<svg xmlns="http://www.w3.org/2000/svg" version="1.1" viewBox="0.00 0.00 256.00 256.00" width="128" height="128">
<path stroke="#506ccd" stroke-width="2.00" fill="none" stroke-linecap="butt" vector-effect="non-scaling-stroke" d="
  M 180.86 108.55
  Q 172.31 121.09 167.34 135.89
  C 164.45 144.50 161.39 152.14 152.86 155.84
  C 146.21 158.73 136.94 161.07 129.78 160.86"
/>
<path fill="#605eba" d="
  M 180.86 108.55
  Q 172.31 121.09 167.34 135.89
  C 164.45 144.50 161.39 152.14 152.86 155.84
  C 146.21 158.73 136.94 161.07 129.78 160.86
  Q 129.75 158.75 128.19 158.85
  Q 115.41 159.68 103.87 158.59
  C 98.11 158.05 93.38 155.29 88.82 150.70
  Q 83.81 145.66 79.08 139.85
  C 71.37 130.41 63.39 121.27 47.69 102.96
  C 44.64 99.40 40.95 94.60 41.11 91.16
  A 1.46 1.45 3.1 0 1 42.66 89.78
  Q 60.02 90.87 81.41 90.29
  C 88.19 90.11 93.95 90.68 98.44 95.32
  Q 101.55 98.53 105.95 102.90
  A 6.76 6.44 -85.6 0 1 106.79 103.93
  Q 109.01 107.30 111.45 110.50
  C 113.99 113.83 117.26 111.29 118.24 108.29
  Q 121.55 98.20 123.87 92.88
  Q 148.09 37.28 153.26 25.39
  Q 155.80 19.54 157.31 18.40
  Q 159.51 16.73 161.97 15.37
  Q 163.24 14.67 167.30 14.55
  Q 192.03 13.82 214.51 14.78
  A 2.01 2.00 88.2 0 1 216.42 16.58
  Q 216.94 21.77 214.49 27.02
  C 210.86 34.81 207.39 43.70 203.89 51.78
  Q 199.78 61.25 188.71 86.61
  Q 187.94 88.37 185.41 93.72
  Q 182.04 100.86 180.86 108.55
  Z"
/>
<path fill="#4079e0" d="
  M 129.78 160.86
  C 136.94 161.07 146.21 158.73 152.86 155.84
  C 161.39 152.14 164.45 144.50 167.34 135.89
  Q 172.31 121.09 180.86 108.55
  Q 181.96 108.50 182.78 108.49
  Q 183.98 108.49 184.67 108.20
  Q 187.64 106.95 190.76 107.29
  C 194.83 107.74 198.36 107.45 201.72 107.37
  C 208.98 107.19 207.79 114.25 206.35 118.59
  Q 204.95 122.79 199.24 136.03
  Q 169.00 206.14 162.03 223.53
  Q 159.82 229.05 156.07 235.57
  Q 152.56 241.65 146.32 242.52
  C 130.51 244.71 113.85 245.22 97.83 243.13
  C 88.78 241.95 83.80 234.59 78.18 227.40
  Q 53.64 195.97 47.09 187.48
  C 45.94 186.00 40.82 179.64 41.52 176.92
  A 2.42 2.08 7.6 0 1 43.91 175.36
  Q 50.89 175.68 57.64 174.51
  A 12.32 12.26 41.2 0 1 60.30 174.34
  Q 72.64 174.85 84.92 175.22
  C 94.48 175.50 98.81 186.45 104.84 192.87
  Q 107.47 195.67 109.89 199.06
  Q 110.36 199.73 112.00 200.01
  C 113.95 200.35 115.81 197.37 116.07 196.03
  Q 116.83 192.19 118.93 188.16
  C 122.56 181.20 124.53 175.54 128.34 167.33
  Q 129.56 164.70 129.78 160.86
  Z"
/>
</svg>