<?xml version="1.0" encoding="UTF-8" standalone="no"?>
<!DOCTYPE svg PUBLIC "-//W3C//DTD SVG 1.1//EN" "http://www.w3.org/Graphics/SVG/1.1/DTD/svg11.dtd">
<svg xmlns="http://www.w3.org/2000/svg" version="1.1" viewBox="0.00 0.00 192.00 192.00" width="128" height="128">
<g stroke-width="2.00" fill="none" stroke-linecap="butt">
<path stroke="#023949" vector-effect="non-scaling-stroke" d="
  M 30.37 47.99
  Q 30.35 48.13 30.34 48.24
  A 0.42 0.42 0.0 0 0 30.75 48.69
  L 54.18 48.90"
/>
<path stroke="#80b4c2" vector-effect="non-scaling-stroke" d="
  M 54.18 48.90
  L 24.43 175.79
  A 0.23 0.23 0.0 0 0 24.48 176.00
  Q 24.66 176.24 25.04 176.16"
/>
<path stroke="#023949" vector-effect="non-scaling-stroke" d="
  M 25.04 176.16
  Q 25.09 176.60 25.34 176.87
  Q 25.55 177.11 26.03 177.11
  Q 45.77 177.23 65.61 177.23
  A 1.44 1.44 0.0 0 0 67.01 176.12
  L 76.85 134.60"
/>
<path stroke="#6b5957" vector-effect="non-scaling-stroke" d="
  M 76.85 134.60
  L 130.25 134.59
  A 0.77 0.76 -90.0 0 1 131.01 135.36
  L 131.01 175.44
  A 0.27 0.27 0.0 0 0 131.51 175.58
  L 180.51 96.60
  A 1.22 1.21 -45.4 0 0 180.51 95.33
  L 131.66 16.58
  A 0.34 0.34 0.0 0 0 131.03 16.76
  L 131.03 56.60
  A 0.60 0.59 -89.5 0 1 130.43 57.20
  L 95.23 56.89"
/>
<path stroke="#023949" vector-effect="non-scaling-stroke" d="
  M 95.23 56.89
  L 96.81 49.74
  A 1.08 1.08 0.0 0 1 97.86 48.90
  L 120.85 48.90
  A 1.37 1.37 0.0 0 0 122.19 47.83
  Q 124.66 36.57 128.60 20.84
  Q 129.13 18.76 128.11 18.67"
/>
<path stroke="#80b4c2" vector-effect="non-scaling-stroke" d="
  M 128.11 18.67
  L 128.64 16.15
  A 0.35 0.35 0.0 0 0 128.30 15.73
  L 38.07 15.73
  A 0.51 0.51 0.0 0 0 37.57 16.13
  L 30.37 47.99"
/>
<path stroke="#818586" vector-effect="non-scaling-stroke" d="
  M 128.11 18.67
  L 121.27 47.54
  A 0.51 0.51 0.0 0 1 120.77 47.94
  L 97.07 47.94
  A 0.78 0.78 0.0 0 0 96.31 48.54
  L 66.25 175.54
  A 0.91 0.89 6.4 0 1 65.37 176.23
  L 25.04 176.16"
/>
<path stroke="#818586" vector-effect="non-scaling-stroke" d="
  M 54.18 48.90
  Q 54.64 48.83 54.52 48.33
  A 0.68 0.68 0.0 0 0 53.85 47.81
  L 30.37 47.99"
/>
<path stroke="#6d2a1b" vector-effect="non-scaling-stroke" d="
  M 76.85 134.60
  L 95.23 56.89"
/>
</g>
<path fill="#006885" d="
  M 192.00 0.00
  L 192.00 192.00
  L 0.00 192.00
  L 0.00 0.00
  L 192.00 0.00
  Z
  M 30.37 47.99
  Q 30.35 48.13 30.34 48.24
  A 0.42 0.42 0.0 0 0 30.75 48.69
  L 54.18 48.90
  L 24.43 175.79
  A 0.23 0.23 0.0 0 0 24.48 176.00
  Q 24.66 176.24 25.04 176.16
  Q 25.09 176.60 25.34 176.87
  Q 25.55 177.11 26.03 177.11
  Q 45.77 177.23 65.61 177.23
  A 1.44 1.44 0.0 0 0 67.01 176.12
  L 76.85 134.60
  L 130.25 134.59
  A 0.77 0.76 -90.0 0 1 131.01 135.36
  L 131.01 175.44
  A 0.27 0.27 0.0 0 0 131.51 175.58
  L 180.51 96.60
  A 1.22 1.21 -45.4 0 0 180.51 95.33
  L 131.66 16.58
  A 0.34 0.34 0.0 0 0 131.03 16.76
  L 131.03 56.60
  A 0.60 0.59 -89.5 0 1 130.43 57.20
  L 95.23 56.89
  L 96.81 49.74
  A 1.08 1.08 0.0 0 1 97.86 48.90
  L 120.85 48.90
  A 1.37 1.37 0.0 0 0 122.19 47.83
  Q 124.66 36.57 128.60 20.84
  Q 129.13 18.76 128.11 18.67
  L 128.64 16.15
  A 0.35 0.35 0.0 0 0 128.30 15.73
  L 38.07 15.73
  A 0.51 0.51 0.0 0 0 37.57 16.13
  L 30.37 47.99
  Z"
/>
<path fill="#ffffff" d="
  M 128.11 18.67
  L 121.27 47.54
  A 0.51 0.51 0.0 0 1 120.77 47.94
  L 97.07 47.94
  A 0.78 0.78 0.0 0 0 96.31 48.54
  L 66.25 175.54
  A 0.91 0.89 6.4 0 1 65.37 176.23
  L 25.04 176.16
  Q 24.66 176.24 24.48 176.00
  A 0.23 0.23 0.0 0 1 24.43 175.79
  L 54.18 48.90
  Q 54.64 48.83 54.52 48.33
  A 0.68 0.68 0.0 0 0 53.85 47.81
  L 30.37 47.99
  L 37.57 16.13
  A 0.51 0.51 0.0 0 1 38.07 15.73
  L 128.30 15.73
  A 0.35 0.35 0.0 0 1 128.64 16.15
  L 128.11 18.67
  Z"
/>
<path fill="#d64a29" d="
  M 76.85 134.60
  L 95.23 56.89
  L 130.43 57.20
  A 0.60 0.59 -89.5 0 0 131.03 56.60
  L 131.03 16.76
  A 0.34 0.34 0.0 0 1 131.66 16.58
  L 180.51 95.33
  A 1.22 1.21 -45.4 0 1 180.51 96.60
  L 131.51 175.58
  A 0.27 0.27 0.0 0 1 131.01 175.44
  L 131.01 135.36
  A 0.77 0.76 -90.0 0 0 130.25 134.59
  L 76.85 134.60
  Z"
/>
<path fill="#030a0c" d="
  M 95.23 56.89
  L 76.85 134.60
  L 67.01 176.12
  A 1.44 1.44 0.0 0 1 65.61 177.23
  Q 45.77 177.23 26.03 177.11
  Q 25.55 177.11 25.34 176.87
  Q 25.09 176.60 25.04 176.16
  L 65.37 176.23
  A 0.91 0.89 6.4 0 0 66.25 175.54
  L 96.31 48.54
  A 0.78 0.78 0.0 0 1 97.07 47.94
  L 120.77 47.94
  A 0.51 0.51 0.0 0 0 121.27 47.54
  L 128.11 18.67
  Q 129.13 18.76 128.60 20.84
  Q 124.66 36.57 122.19 47.83
  A 1.37 1.37 0.0 0 1 120.85 48.90
  L 97.86 48.90
  A 1.08 1.08 0.0 0 0 96.81 49.74
  L 95.23 56.89
  Z"
/>
<path fill="#030a0c" d="
  M 54.18 48.90
  L 30.75 48.69
  A 0.42 0.42 0.0 0 1 30.34 48.24
  Q 30.35 48.13 30.37 47.99
  L 53.85 47.81
  A 0.68 0.68 0.0 0 1 54.52 48.33
  Q 54.64 48.83 54.18 48.90
  Z"
/>
</svg>