<?xml version="1.0" encoding="UTF-8" standalone="no"?>
<!DOCTYPE svg PUBLIC "-//W3C//DTD SVG 1.1//EN" "http://www.w3.org/Graphics/SVG/1.1/DTD/svg11.dtd">
<svg xmlns="http://www.w3.org/2000/svg" version="1.1" viewBox="0.00 0.00 512.00 512.00" width="128" height="128">
<g stroke-width="2.00" fill="none" stroke-linecap="butt">
<path stroke="#91908c" vector-effect="non-scaling-stroke" d="
  M 209.77 256.03
  Q 214.11 251.76 219.18 248.29
  Q 219.52 248.06 219.88 248.11
  Q 220.25 248.16 220.36 247.76
  A 0.99 0.99 0.0 0 1 220.81 247.18
  Q 222.43 246.23 224.03 245.82
  A 5.13 5.06 20.7 0 0 225.52 245.16
  Q 228.19 243.44 229.24 243.00
  C 264.41 228.13 303.52 243.76 318.11 279.13
  Q 322.01 288.60 322.64 296.78
  Q 322.94 300.75 323.14 315.99
  A 0.73 0.72 -5.1 0 1 322.53 316.71
  C 320.75 316.97 318.04 317.15 316.27 317.99
  C 310.69 320.66 309.23 325.11 309.29 331.57
  Q 309.39 342.66 309.26 367.19
  Q 309.23 373.45 310.79 376.62
  Q 313.85 382.87 321.95 382.87
  Q 423.84 382.84 435.70 382.95
  Q 445.81 383.04 449.05 381.22
  Q 455.02 377.85 455.03 369.73
  Q 455.08 348.14 455.09 332.24
  Q 455.09 326.25 454.03 323.94
  C 451.69 318.85 447.92 317.58 442.49 316.71
  A 0.68 0.68 0.0 0 1 441.92 316.04
  Q 442.05 297.92 441.14 286.25
  Q 439.69 267.85 433.65 247.58
  Q 431.00 238.70 423.65 222.27
  Q 421.04 216.44 417.13 209.95
  Q 411.47 200.56 409.71 198.00
  Q 395.33 177.08 376.80 161.22
  Q 363.65 149.96 346.65 140.05
  Q 346.56 140.00 345.91 139.47
  Q 345.46 139.11 345.02 139.14
  A 0.76 0.71 -76.8 0 1 344.38 138.02
  Q 351.16 125.89 353.47 121.41
  A 1.02 1.00 14.4 0 1 354.40 120.87
  C 367.84 121.31 375.03 106.03 367.28 95.53
  C 363.89 90.95 357.56 88.47 352.03 89.59
  C 340.79 91.87 335.78 103.49 341.30 113.40
  C 341.60 113.93 342.38 114.67 342.59 115.20
  A 1.12 1.10 48.4 0 1 342.54 116.15
  L 333.66 132.90
  A 0.62 0.61 -63.2 0 1 332.86 133.17
  Q 318.36 126.48 302.71 122.59
  Q 241.60 107.39 184.21 131.67
  Q 181.52 132.81 179.93 133.81
  A 0.62 0.61 -30.1 0 1 179.06 133.58
  L 169.55 116.00
  A 1.05 1.03 -40.0 0 1 169.66 114.86
  C 177.42 105.23 171.09 91.63 159.54 89.71
  C 148.34 87.85 139.28 98.44 141.89 108.90
  C 143.46 115.23 149.20 121.09 156.47 121.03
  Q 157.96 121.02 158.47 121.14
  A 0.61 0.60 -7.6 0 1 158.87 121.44
  L 168.27 138.68
  A 0.60 0.59 -30.4 0 1 168.06 139.47
  Q 155.01 147.56 153.26 148.76
  Q 131.91 163.41 114.89 183.14
  Q 112.32 186.12 103.15 198.40
  Q 101.37 200.79 99.39 204.30
  C 96.55 209.36 93.22 214.02 90.57 219.40
  Q 82.71 235.36 78.29 249.48
  Q 71.80 270.17 70.32 294.25
  Q 70.16 296.85 70.10 316.04
  A 0.74 0.72 -5.9 0 1 69.51 316.75
  C 67.50 317.16 65.30 317.24 63.21 318.31
  Q 56.78 321.59 56.85 330.25
  Q 56.87 332.53 56.88 370.25
  Q 56.88 377.88 63.06 381.29
  Q 66.15 382.99 74.24 382.95
  Q 105.17 382.80 183.43 382.93
  Q 193.39 382.94 196.41 381.39
  Q 202.71 378.14 202.64 369.01
  Q 202.49 345.90 202.68 332.20
  Q 202.76 325.84 201.18 323.09
  C 198.55 318.54 194.60 317.12 189.68 316.69
  A 0.60 0.60 0.0 0 1 189.13 316.09
  Q 189.10 301.65 189.54 297.02
  Q 190.33 288.84 194.45 279.05
  A 2.00 1.92 57.8 0 0 194.61 278.27
  L 194.61 277.86
  A 2.73 2.65 -33.2 0 1 194.87 276.71
  Q 200.33 265.17 209.89 256.56
  A 0.01 0.01 0.0 0 0 209.89 256.54
  Q 209.78 256.45 209.73 256.36
  A 0.27 0.27 0.0 0 1 209.77 256.03"
/>
<path stroke="#86641e" vector-effect="non-scaling-stroke" d="
  M 162.85 316.81
  L 175.68 316.81
  A 0.40 0.39 -90.0 0 0 176.07 316.41
  C 175.96 307.31 175.77 297.73 177.66 288.97
  Q 180.55 275.60 188.09 263.74
  A 1.65 1.63 -28.4 0 0 188.35 262.89
  Q 188.39 261.77 189.12 260.87
  Q 193.03 256.02 194.71 253.08
  A 4.39 4.03 -11.5 0 1 195.29 252.28
  Q 200.96 246.06 208.97 239.98
  A 0.19 0.10 55.0 0 1 209.16 240.08
  Q 209.18 240.11 209.21 240.13
  A 0.21 0.03 -33.7 0 0 209.38 240.05
  Q 218.04 234.41 219.38 233.61
  Q 230.10 227.24 244.31 225.10"
/>
<path stroke="#8f701a" vector-effect="non-scaling-stroke" d="
  M 244.31 225.10
  Q 275.79 220.76 300.64 237.61
  Q 326.55 255.17 334.32 287.33
  Q 335.75 293.24 336.13 301.82
  Q 336.48 309.44 336.19 316.40
  A 0.38 0.37 1.4 0 0 336.57 316.79
  L 415.16 316.80"
/>
<path stroke="#86641e" vector-effect="non-scaling-stroke" d="
  M 415.16 316.80
  L 428.34 316.69
  A 0.49 0.49 0.0 0 0 428.82 316.21
  Q 429.10 297.52 427.77 283.96
  Q 425.36 259.57 415.53 236.22
  Q 392.86 182.35 341.61 152.39
  Q 326.10 143.33 308.20 137.83
  Q 290.66 132.45 270.82 130.44"
/>
<path stroke="#8f701a" vector-effect="non-scaling-stroke" d="
  M 270.82 130.44
  C 236.78 127.51 202.36 135.36 172.66 151.97
  Q 161.20 158.38 146.98 169.65
  C 143.26 172.60 140.51 175.94 137.42 178.49
  Q 133.58 181.65 130.34 185.24
  Q 123.87 192.38 123.29 193.15
  Q 116.10 202.66 114.43 204.92
  Q 114.20 205.23 114.11 205.78
  A 1.22 1.09 -26.4 0 1 113.92 206.25
  Q 110.18 211.55 104.69 220.42
  C 102.47 224.02 100.84 228.70 98.98 231.56
  A 0.81 0.77 -31.5 0 0 98.86 232.01
  Q 98.87 232.12 98.87 232.23
  A 2.94 2.89 -30.5 0 1 98.59 233.28
  Q 86.45 258.97 84.03 288.03
  Q 82.92 301.38 83.17 316.29
  A 0.51 0.51 0.0 0 0 83.68 316.80
  L 162.85 316.81"
/>
<path stroke="#f1b31f" vector-effect="non-scaling-stroke" d="
  M 270.82 130.44
  L 272.43 130.80
  A 1.12 1.12 0.0 0 1 273.13 131.29
  Q 273.76 132.27 274.64 132.42
  Q 294.17 135.56 313.55 144.48
  Q 370.09 170.51 398.04 227.15
  Q 411.95 255.34 414.53 287.15
  Q 415.61 300.37 415.16 316.80"
/>
<path stroke="#f1b31f" vector-effect="non-scaling-stroke" d="
  M 244.31 225.10
  Q 231.68 225.83 227.55 226.80
  C 190.65 235.39 165.66 266.31 163.08 303.84
  Q 162.76 308.49 162.85 316.81"
/>
<path stroke="#86641e" vector-effect="non-scaling-stroke" d="
  M 177.11 369.78
  L 188.89 369.72
  A 0.57 0.57 0.0 0 0 189.46 369.15
  L 189.46 330.56
  A 0.56 0.56 0.0 0 0 188.90 330.00
  L 177.10 329.94"
/>
<path stroke="#8f701a" vector-effect="non-scaling-stroke" d="
  M 177.10 329.94
  L 70.47 329.99
  A 0.51 0.51 0.0 0 0 69.96 330.50
  L 69.96 369.54
  A 0.23 0.23 0.0 0 0 70.19 369.77
  L 177.11 369.78"
/>
<path stroke="#f1b31f" vector-effect="non-scaling-stroke" d="
  M 177.10 329.94
  L 177.11 369.78"
/>
<path stroke="#86641e" vector-effect="non-scaling-stroke" d="
  M 429.18 369.79
  L 441.41 369.69
  A 0.53 0.53 0.0 0 0 441.93 369.16
  L 441.93 330.55
  A 0.53 0.53 0.0 0 0 441.40 330.02
  L 429.19 329.94"
/>
<path stroke="#8f701a" vector-effect="non-scaling-stroke" d="
  M 429.19 329.94
  L 323.03 329.96
  A 0.61 0.60 90.0 0 0 322.43 330.57
  L 322.43 369.20
  A 0.56 0.56 0.0 0 0 322.99 369.76
  L 429.18 369.79"
/>
<path stroke="#f1b31f" vector-effect="non-scaling-stroke" d="
  M 429.19 329.94
  L 429.18 369.79"
/>
<path stroke="#8f701a" vector-effect="non-scaling-stroke" d="
  M 163.74 180.45
  A 4.90 4.90 0.0 0 0 158.84 175.55
  A 4.90 4.90 0.0 0 0 153.94 180.45
  A 4.90 4.90 0.0 0 0 158.84 185.35
  A 4.90 4.90 0.0 0 0 163.74 180.45"
/>
<path stroke="#8f701a" vector-effect="non-scaling-stroke" d="
  M 145.58 195.58
  A 4.88 4.88 0.0 0 0 140.70 190.70
  A 4.88 4.88 0.0 0 0 135.82 195.58
  A 4.88 4.88 0.0 0 0 140.70 200.46
  A 4.88 4.88 0.0 0 0 145.58 195.58"
/>
<path stroke="#8f701a" vector-effect="non-scaling-stroke" d="
  M 132.36 213.93
  A 4.94 4.94 0.0 0 0 127.42 208.99
  A 4.94 4.94 0.0 0 0 122.48 213.93
  A 4.94 4.94 0.0 0 0 127.42 218.87
  A 4.94 4.94 0.0 0 0 132.36 213.93"
/>
</g>
<path fill="#ffffff" d="
  M 512.00 0.00
  L 512.00 512.00
  L 0.00 512.00
  L 0.00 0.00
  L 512.00 0.00
  Z
  M 209.77 256.03
  Q 214.11 251.76 219.18 248.29
  Q 219.52 248.06 219.88 248.11
  Q 220.25 248.16 220.36 247.76
  A 0.99 0.99 0.0 0 1 220.81 247.18
  Q 222.43 246.23 224.03 245.82
  A 5.13 5.06 20.7 0 0 225.52 245.16
  Q 228.19 243.44 229.24 243.00
  C 264.41 228.13 303.52 243.76 318.11 279.13
  Q 322.01 288.60 322.64 296.78
  Q 322.94 300.75 323.14 315.99
  A 0.73 0.72 -5.1 0 1 322.53 316.71
  C 320.75 316.97 318.04 317.15 316.27 317.99
  C 310.69 320.66 309.23 325.11 309.29 331.57
  Q 309.39 342.66 309.26 367.19
  Q 309.23 373.45 310.79 376.62
  Q 313.85 382.87 321.95 382.87
  Q 423.84 382.84 435.70 382.95
  Q 445.81 383.04 449.05 381.22
  Q 455.02 377.85 455.03 369.73
  Q 455.08 348.14 455.09 332.24
  Q 455.09 326.25 454.03 323.94
  C 451.69 318.85 447.92 317.58 442.49 316.71
  A 0.68 0.68 0.0 0 1 441.92 316.04
  Q 442.05 297.92 441.14 286.25
  Q 439.69 267.85 433.65 247.58
  Q 431.00 238.70 423.65 222.27
  Q 421.04 216.44 417.13 209.95
  Q 411.47 200.56 409.71 198.00
  Q 395.33 177.08 376.80 161.22
  Q 363.65 149.96 346.65 140.05
  Q 346.56 140.00 345.91 139.47
  Q 345.46 139.11 345.02 139.14
  A 0.76 0.71 -76.8 0 1 344.38 138.02
  Q 351.16 125.89 353.47 121.41
  A 1.02 1.00 14.4 0 1 354.40 120.87
  C 367.84 121.31 375.03 106.03 367.28 95.53
  C 363.89 90.95 357.56 88.47 352.03 89.59
  C 340.79 91.87 335.78 103.49 341.30 113.40
  C 341.60 113.93 342.38 114.67 342.59 115.20
  A 1.12 1.10 48.4 0 1 342.54 116.15
  L 333.66 132.90
  A 0.62 0.61 -63.2 0 1 332.86 133.17
  Q 318.36 126.48 302.71 122.59
  Q 241.60 107.39 184.21 131.67
  Q 181.52 132.81 179.93 133.81
  A 0.62 0.61 -30.1 0 1 179.06 133.58
  L 169.55 116.00
  A 1.05 1.03 -40.0 0 1 169.66 114.86
  C 177.42 105.23 171.09 91.63 159.54 89.71
  C 148.34 87.85 139.28 98.44 141.89 108.90
  C 143.46 115.23 149.20 121.09 156.47 121.03
  Q 157.96 121.02 158.47 121.14
  A 0.61 0.60 -7.6 0 1 158.87 121.44
  L 168.27 138.68
  A 0.60 0.59 -30.4 0 1 168.06 139.47
  Q 155.01 147.56 153.26 148.76
  Q 131.91 163.41 114.89 183.14
  Q 112.32 186.12 103.15 198.40
  Q 101.37 200.79 99.39 204.30
  C 96.55 209.36 93.22 214.02 90.57 219.40
  Q 82.71 235.36 78.29 249.48
  Q 71.80 270.17 70.32 294.25
  Q 70.16 296.85 70.10 316.04
  A 0.74 0.72 -5.9 0 1 69.51 316.75
  C 67.50 317.16 65.30 317.24 63.21 318.31
  Q 56.78 321.59 56.85 330.25
  Q 56.87 332.53 56.88 370.25
  Q 56.88 377.88 63.06 381.29
  Q 66.15 382.99 74.24 382.95
  Q 105.17 382.80 183.43 382.93
  Q 193.39 382.94 196.41 381.39
  Q 202.71 378.14 202.64 369.01
  Q 202.49 345.90 202.68 332.20
  Q 202.76 325.84 201.18 323.09
  C 198.55 318.54 194.60 317.12 189.68 316.69
  A 0.60 0.60 0.0 0 1 189.13 316.09
  Q 189.10 301.65 189.54 297.02
  Q 190.33 288.84 194.45 279.05
  A 2.00 1.92 57.8 0 0 194.61 278.27
  L 194.61 277.86
  A 2.73 2.65 -33.2 0 1 194.87 276.71
  Q 200.33 265.17 209.89 256.56
  A 0.01 0.01 0.0 0 0 209.89 256.54
  Q 209.78 256.45 209.73 256.36
  A 0.27 0.27 0.0 0 1 209.77 256.03
  Z"
/>
<path fill="#232119" d="
  M 209.73 256.36
  Q 209.78 256.45 209.89 256.54
  A 0.01 0.01 0.0 0 1 209.89 256.56
  Q 200.33 265.17 194.87 276.71
  A 2.73 2.65 -33.2 0 0 194.61 277.86
  L 194.61 278.27
  A 2.00 1.92 57.8 0 1 194.45 279.05
  Q 190.33 288.84 189.54 297.02
  Q 189.10 301.65 189.13 316.09
  A 0.60 0.60 0.0 0 0 189.68 316.69
  C 194.60 317.12 198.55 318.54 201.18 323.09
  Q 202.76 325.84 202.68 332.20
  Q 202.49 345.90 202.64 369.01
  Q 202.71 378.14 196.41 381.39
  Q 193.39 382.94 183.43 382.93
  Q 105.17 382.80 74.24 382.95
  Q 66.15 382.99 63.06 381.29
  Q 56.88 377.88 56.88 370.25
  Q 56.87 332.53 56.85 330.25
  Q 56.78 321.59 63.21 318.31
  C 65.30 317.24 67.50 317.16 69.51 316.75
  A 0.74 0.72 -5.9 0 0 70.10 316.04
  Q 70.16 296.85 70.32 294.25
  Q 71.80 270.17 78.29 249.48
  Q 82.71 235.36 90.57 219.40
  C 93.22 214.02 96.55 209.36 99.39 204.30
  Q 101.37 200.79 103.15 198.40
  Q 112.32 186.12 114.89 183.14
  Q 131.91 163.41 153.26 148.76
  Q 155.01 147.56 168.06 139.47
  A 0.60 0.59 -30.4 0 0 168.27 138.68
  L 158.87 121.44
  A 0.61 0.60 -7.6 0 0 158.47 121.14
  Q 157.96 121.02 156.47 121.03
  C 149.20 121.09 143.46 115.23 141.89 108.90
  C 139.28 98.44 148.34 87.85 159.54 89.71
  C 171.09 91.63 177.42 105.23 169.66 114.86
  A 1.05 1.03 -40.0 0 0 169.55 116.00
  L 179.06 133.58
  A 0.62 0.61 -30.1 0 0 179.93 133.81
  Q 181.52 132.81 184.21 131.67
  Q 241.60 107.39 302.71 122.59
  Q 318.36 126.48 332.86 133.17
  A 0.62 0.61 -63.2 0 0 333.66 132.90
  L 342.54 116.15
  A 1.12 1.10 48.4 0 0 342.59 115.20
  C 342.38 114.67 341.60 113.93 341.30 113.40
  C 335.78 103.49 340.79 91.87 352.03 89.59
  C 357.56 88.47 363.89 90.95 367.28 95.53
  C 375.03 106.03 367.84 121.31 354.40 120.87
  A 1.02 1.00 14.4 0 0 353.47 121.41
  Q 351.16 125.89 344.38 138.02
  A 0.76 0.71 -76.8 0 0 345.02 139.14
  Q 345.46 139.11 345.91 139.47
  Q 346.56 140.00 346.65 140.05
  Q 363.65 149.96 376.80 161.22
  Q 395.33 177.08 409.71 198.00
  Q 411.47 200.56 417.13 209.95
  Q 421.04 216.44 423.65 222.27
  Q 431.00 238.70 433.65 247.58
  Q 439.69 267.85 441.14 286.25
  Q 442.05 297.92 441.92 316.04
  A 0.68 0.68 0.0 0 0 442.49 316.71
  C 447.92 317.58 451.69 318.85 454.03 323.94
  Q 455.09 326.25 455.09 332.24
  Q 455.08 348.14 455.03 369.73
  Q 455.02 377.85 449.05 381.22
  Q 445.81 383.04 435.70 382.95
  Q 423.84 382.84 321.95 382.87
  Q 313.85 382.87 310.79 376.62
  Q 309.23 373.45 309.26 367.19
  Q 309.39 342.66 309.29 331.57
  C 309.23 325.11 310.69 320.66 316.27 317.99
  C 318.04 317.15 320.75 316.97 322.53 316.71
  A 0.73 0.72 -5.1 0 0 323.14 315.99
  Q 322.94 300.75 322.64 296.78
  Q 322.01 288.60 318.11 279.13
  C 303.52 243.76 264.41 228.13 229.24 243.00
  Q 228.19 243.44 225.52 245.16
  A 5.13 5.06 20.7 0 1 224.03 245.82
  Q 222.43 246.23 220.81 247.18
  A 0.99 0.99 0.0 0 0 220.36 247.76
  Q 220.25 248.16 219.88 248.11
  Q 219.52 248.06 219.18 248.29
  Q 214.11 251.76 209.77 256.03
  A 0.27 0.27 0.0 0 0 209.73 256.36
  Z
  M 162.85 316.81
  L 175.68 316.81
  A 0.40 0.39 -90.0 0 0 176.07 316.41
  C 175.96 307.31 175.77 297.73 177.66 288.97
  Q 180.55 275.60 188.09 263.74
  A 1.65 1.63 -28.4 0 0 188.35 262.89
  Q 188.39 261.77 189.12 260.87
  Q 193.03 256.02 194.71 253.08
  A 4.39 4.03 -11.5 0 1 195.29 252.28
  Q 200.96 246.06 208.97 239.98
  A 0.19 0.10 55.0 0 1 209.16 240.08
  Q 209.18 240.11 209.21 240.13
  A 0.21 0.03 -33.7 0 0 209.38 240.05
  Q 218.04 234.41 219.38 233.61
  Q 230.10 227.24 244.31 225.10
  Q 275.79 220.76 300.64 237.61
  Q 326.55 255.17 334.32 287.33
  Q 335.75 293.24 336.13 301.82
  Q 336.48 309.44 336.19 316.40
  A 0.38 0.37 1.4 0 0 336.57 316.79
  L 415.16 316.80
  L 428.34 316.69
  A 0.49 0.49 0.0 0 0 428.82 316.21
  Q 429.10 297.52 427.77 283.96
  Q 425.36 259.57 415.53 236.22
  Q 392.86 182.35 341.61 152.39
  Q 326.10 143.33 308.20 137.83
  Q 290.66 132.45 270.82 130.44
  C 236.78 127.51 202.36 135.36 172.66 151.97
  Q 161.20 158.38 146.98 169.65
  C 143.26 172.60 140.51 175.94 137.42 178.49
  Q 133.58 181.65 130.34 185.24
  Q 123.87 192.38 123.29 193.15
  Q 116.10 202.66 114.43 204.92
  Q 114.20 205.23 114.11 205.78
  A 1.22 1.09 -26.4 0 1 113.92 206.25
  Q 110.18 211.55 104.69 220.42
  C 102.47 224.02 100.84 228.70 98.98 231.56
  A 0.81 0.77 -31.5 0 0 98.86 232.01
  Q 98.87 232.12 98.87 232.23
  A 2.94 2.89 -30.5 0 1 98.59 233.28
  Q 86.45 258.97 84.03 288.03
  Q 82.92 301.38 83.17 316.29
  A 0.51 0.51 0.0 0 0 83.68 316.80
  L 162.85 316.81
  Z
  M 177.11 369.78
  L 188.89 369.72
  A 0.57 0.57 0.0 0 0 189.46 369.15
  L 189.46 330.56
  A 0.56 0.56 0.0 0 0 188.90 330.00
  L 177.10 329.94
  L 70.47 329.99
  A 0.51 0.51 0.0 0 0 69.96 330.50
  L 69.96 369.54
  A 0.23 0.23 0.0 0 0 70.19 369.77
  L 177.11 369.78
  Z
  M 429.18 369.79
  L 441.41 369.69
  A 0.53 0.53 0.0 0 0 441.93 369.16
  L 441.93 330.55
  A 0.53 0.53 0.0 0 0 441.40 330.02
  L 429.19 329.94
  L 323.03 329.96
  A 0.61 0.60 90.0 0 0 322.43 330.57
  L 322.43 369.20
  A 0.56 0.56 0.0 0 0 322.99 369.76
  L 429.18 369.79
  Z"
/>
<path fill="#fabf1a" d="
  M 270.82 130.44
  L 272.43 130.80
  A 1.12 1.12 0.0 0 1 273.13 131.29
  Q 273.76 132.27 274.64 132.42
  Q 294.17 135.56 313.55 144.48
  Q 370.09 170.51 398.04 227.15
  Q 411.95 255.34 414.53 287.15
  Q 415.61 300.37 415.16 316.80
  L 336.57 316.79
  A 0.38 0.37 1.4 0 1 336.19 316.40
  Q 336.48 309.44 336.13 301.82
  Q 335.75 293.24 334.32 287.33
  Q 326.55 255.17 300.64 237.61
  Q 275.79 220.76 244.31 225.10
  Q 231.68 225.83 227.55 226.80
  C 190.65 235.39 165.66 266.31 163.08 303.84
  Q 162.76 308.49 162.85 316.81
  L 83.68 316.80
  A 0.51 0.51 0.0 0 1 83.17 316.29
  Q 82.92 301.38 84.03 288.03
  Q 86.45 258.97 98.59 233.28
  A 2.94 2.89 -30.5 0 0 98.87 232.23
  Q 98.87 232.12 98.86 232.01
  A 0.81 0.77 -31.5 0 1 98.98 231.56
  C 100.84 228.70 102.47 224.02 104.69 220.42
  Q 110.18 211.55 113.92 206.25
  A 1.22 1.09 -26.4 0 0 114.11 205.78
  Q 114.20 205.23 114.43 204.92
  Q 116.10 202.66 123.29 193.15
  Q 123.87 192.38 130.34 185.24
  Q 133.58 181.65 137.42 178.49
  C 140.51 175.94 143.26 172.60 146.98 169.65
  Q 161.20 158.38 172.66 151.97
  C 202.36 135.36 236.78 127.51 270.82 130.44
  Z
  M 163.74 180.45
  A 4.90 4.90 0.0 0 0 158.84 175.55
  A 4.90 4.90 0.0 0 0 153.94 180.45
  A 4.90 4.90 0.0 0 0 158.84 185.35
  A 4.90 4.90 0.0 0 0 163.74 180.45
  Z
  M 145.58 195.58
  A 4.88 4.88 0.0 0 0 140.70 190.70
  A 4.88 4.88 0.0 0 0 135.82 195.58
  A 4.88 4.88 0.0 0 0 140.70 200.46
  A 4.88 4.88 0.0 0 0 145.58 195.58
  Z
  M 132.36 213.93
  A 4.94 4.94 0.0 0 0 127.42 208.99
  A 4.94 4.94 0.0 0 0 122.48 213.93
  A 4.94 4.94 0.0 0 0 127.42 218.87
  A 4.94 4.94 0.0 0 0 132.36 213.93
  Z"
/>
<path fill="#e8a623" d="
  M 415.16 316.80
  Q 415.61 300.37 414.53 287.15
  Q 411.95 255.34 398.04 227.15
  Q 370.09 170.51 313.55 144.48
  Q 294.17 135.56 274.64 132.42
  Q 273.76 132.27 273.13 131.29
  A 1.12 1.12 0.0 0 0 272.43 130.80
  L 270.82 130.44
  Q 290.66 132.45 308.20 137.83
  Q 326.10 143.33 341.61 152.39
  Q 392.86 182.35 415.53 236.22
  Q 425.36 259.57 427.77 283.96
  Q 429.10 297.52 428.82 316.21
  A 0.49 0.49 0.0 0 1 428.34 316.69
  L 415.16 316.80
  Z"
/>
<circle fill="#232119" cx="158.84" cy="180.45" r="4.90"/>
<circle fill="#232119" cx="140.70" cy="195.58" r="4.88"/>
<circle fill="#232119" cx="127.42" cy="213.93" r="4.94"/>
<path fill="#e8a623" d="
  M 244.31 225.10
  Q 230.10 227.24 219.38 233.61
  Q 218.04 234.41 209.38 240.05
  A 0.21 0.03 -33.7 0 1 209.21 240.13
  Q 209.18 240.11 209.16 240.08
  A 0.19 0.10 55.0 0 0 208.97 239.98
  Q 200.96 246.06 195.29 252.28
  A 4.39 4.03 -11.5 0 0 194.71 253.08
  Q 193.03 256.02 189.12 260.87
  Q 188.39 261.77 188.35 262.89
  A 1.65 1.63 -28.4 0 1 188.09 263.74
  Q 180.55 275.60 177.66 288.97
  C 175.77 297.73 175.96 307.31 176.07 316.41
  A 0.40 0.39 -90.0 0 1 175.68 316.81
  L 162.85 316.81
  Q 162.76 308.49 163.08 303.84
  C 165.66 266.31 190.65 235.39 227.55 226.80
  Q 231.68 225.83 244.31 225.10
  Z"
/>
<path fill="#fabf1a" d="
  M 177.10 329.94
  L 177.11 369.78
  L 70.19 369.77
  A 0.23 0.23 0.0 0 1 69.96 369.54
  L 69.96 330.50
  A 0.51 0.51 0.0 0 1 70.47 329.99
  L 177.10 329.94
  Z"
/>
<path fill="#e8a623" d="
  M 177.11 369.78
  L 177.10 329.94
  L 188.90 330.00
  A 0.56 0.56 0.0 0 1 189.46 330.56
  L 189.46 369.15
  A 0.57 0.57 0.0 0 1 188.89 369.72
  L 177.11 369.78
  Z"
/>
<path fill="#fabf1a" d="
  M 429.19 329.94
  L 429.18 369.79
  L 322.99 369.76
  A 0.56 0.56 0.0 0 1 322.43 369.20
  L 322.43 330.57
  A 0.61 0.60 90.0 0 1 323.03 329.96
  L 429.19 329.94
  Z"
/>
<path fill="#e8a623" d="
  M 429.18 369.79
  L 429.19 329.94
  L 441.40 330.02
  A 0.53 0.53 0.0 0 1 441.93 330.55
  L 441.93 369.16
  A 0.53 0.53 0.0 0 1 441.41 369.69
  L 429.18 369.79
  Z"
/>
</svg>