<?xml version="1.0" encoding="UTF-8" standalone="no"?>
<!DOCTYPE svg PUBLIC "-//W3C//DTD SVG 1.1//EN" "http://www.w3.org/Graphics/SVG/1.1/DTD/svg11.dtd">
<svg xmlns="http://www.w3.org/2000/svg" version="1.1" viewBox="0.00 0.00 512.00 512.00" width="128" height="128">
<g stroke-width="2.00" fill="none" stroke-linecap="butt">
<path stroke="#92b4f8" vector-effect="non-scaling-stroke" d="
  M 430.00 398.76
  L 430.00 347.98
  A 0.60 0.60 0.0 0 0 429.40 347.38
  L 311.22 347.38
  A 0.50 0.50 0.0 0 1 310.72 346.88
  Q 310.78 339.79 312.41 333.69
  C 314.58 325.61 321.97 318.44 329.16 312.41
  Q 335.00 307.50 350.88 296.48
  C 359.98 290.17 372.28 283.24 380.35 277.84
  C 403.66 262.26 428.38 237.33 431.45 208.03
  C 434.59 178.14 423.50 147.43 397.72 131.26
  C 374.08 116.43 344.40 112.64 316.78 116.32
  C 287.86 120.19 261.79 135.15 247.66 160.95
  C 240.64 173.75 237.56 189.16 237.62 203.79
  A 0.34 0.34 0.0 0 0 237.96 204.13
  L 301.23 204.13
  A 0.45 0.44 -90.0 0 0 301.67 203.68
  Q 301.44 191.95 305.13 182.62
  C 315.17 157.25 361.82 156.18 367.80 185.13
  C 371.75 204.27 363.96 218.63 349.40 230.28
  C 337.50 239.82 326.47 245.99 311.10 255.04
  C 302.61 260.04 295.41 265.15 286.93 271.43
  C 261.58 290.21 246.17 317.89 240.74 348.75
  Q 236.56 372.56 236.91 398.81
  A 0.57 0.57 0.0 0 0 237.48 399.37
  L 429.39 399.37
  A 0.61 0.61 0.0 0 0 430.00 398.76"
/>
<path stroke="#92b4f8" vector-effect="non-scaling-stroke" d="
  M 191.82 120.98
  L 136.01 120.98
  A 0.62 0.62 0.0 0 0 135.39 121.57
  C 134.83 133.86 133.99 147.23 124.53 156.24
  C 118.06 162.40 108.70 166.05 100.73 167.48
  Q 85.88 170.15 69.81 169.83
  A 0.44 0.44 0.0 0 0 69.36 170.27
  L 69.36 214.61
  A 0.63 0.63 0.0 0 0 69.99 215.24
  L 126.28 215.24
  A 0.35 0.34 -0.0 0 1 126.63 215.58
  L 126.63 399.03
  A 0.34 0.34 0.0 0 0 126.97 399.37
  L 191.78 399.37
  A 0.35 0.34 0.0 0 0 192.13 399.03
  L 192.13 121.28
  A 0.31 0.30 0.0 0 0 191.82 120.98"
/>
</g>
<path fill="#2469f0" d="
  M 389.39 0.00
  Q 393.45 0.36 397.49 0.79
  C 460.92 7.54 508.10 58.55 512.00 121.80
  L 512.00 390.16
  Q 511.56 393.69 511.19 397.24
  Q 507.68 431.12 487.91 458.70
  Q 478.18 472.26 465.90 482.40
  Q 433.24 509.33 390.20 512.00
  L 121.86 512.00
  Q 120.87 511.83 117.50 511.57
  C 83.34 508.97 51.71 492.15 29.71 466.02
  Q 2.68 433.93 0.00 390.11
  L 0.00 121.69
  Q 0.90 112.13 1.42 108.75
  C 10.51 50.17 58.08 5.44 117.26 0.56
  Q 119.52 0.38 121.74 0.00
  L 389.39 0.00
  Z
  M 430.00 398.76
  L 430.00 347.98
  A 0.60 0.60 0.0 0 0 429.40 347.38
  L 311.22 347.38
  A 0.50 0.50 0.0 0 1 310.72 346.88
  Q 310.78 339.79 312.41 333.69
  C 314.58 325.61 321.97 318.44 329.16 312.41
  Q 335.00 307.50 350.88 296.48
  C 359.98 290.17 372.28 283.24 380.35 277.84
  C 403.66 262.26 428.38 237.33 431.45 208.03
  C 434.59 178.14 423.50 147.43 397.72 131.26
  C 374.08 116.43 344.40 112.64 316.78 116.32
  C 287.86 120.19 261.79 135.15 247.66 160.95
  C 240.64 173.75 237.56 189.16 237.62 203.79
  A 0.34 0.34 0.0 0 0 237.96 204.13
  L 301.23 204.13
  A 0.45 0.44 -90.0 0 0 301.67 203.68
  Q 301.44 191.95 305.13 182.62
  C 315.17 157.25 361.82 156.18 367.80 185.13
  C 371.75 204.27 363.96 218.63 349.40 230.28
  C 337.50 239.82 326.47 245.99 311.10 255.04
  C 302.61 260.04 295.41 265.15 286.93 271.43
  C 261.58 290.21 246.17 317.89 240.74 348.75
  Q 236.56 372.56 236.91 398.81
  A 0.57 0.57 0.0 0 0 237.48 399.37
  L 429.39 399.37
  A 0.61 0.61 0.0 0 0 430.00 398.76
  Z
  M 191.82 120.98
  L 136.01 120.98
  A 0.62 0.62 0.0 0 0 135.39 121.57
  C 134.83 133.86 133.99 147.23 124.53 156.24
  C 118.06 162.40 108.70 166.05 100.73 167.48
  Q 85.88 170.15 69.81 169.83
  A 0.44 0.44 0.0 0 0 69.36 170.27
  L 69.36 214.61
  A 0.63 0.63 0.0 0 0 69.99 215.24
  L 126.28 215.24
  A 0.35 0.34 -0.0 0 1 126.63 215.58
  L 126.63 399.03
  A 0.34 0.34 0.0 0 0 126.97 399.37
  L 191.78 399.37
  A 0.35 0.34 0.0 0 0 192.13 399.03
  L 192.13 121.28
  A 0.31 0.30 0.0 0 0 191.82 120.98
  Z"
/>
<path fill="#ffffff" d="
  M 429.39 399.37
  L 237.48 399.37
  A 0.57 0.57 0.0 0 1 236.91 398.81
  Q 236.56 372.56 240.74 348.75
  C 246.17 317.89 261.58 290.21 286.93 271.43
  C 295.41 265.15 302.61 260.04 311.10 255.04
  C 326.47 245.99 337.50 239.82 349.40 230.28
  C 363.96 218.63 371.75 204.27 367.80 185.13
  C 361.82 156.18 315.17 157.25 305.13 182.62
  Q 301.44 191.95 301.67 203.68
  A 0.45 0.44 -90.0 0 1 301.23 204.13
  L 237.96 204.13
  A 0.34 0.34 0.0 0 1 237.62 203.79
  C 237.56 189.16 240.64 173.75 247.66 160.95
  C 261.79 135.15 287.86 120.19 316.78 116.32
  C 344.40 112.64 374.08 116.43 397.72 131.26
  C 423.50 147.43 434.59 178.14 431.45 208.03
  C 428.38 237.33 403.66 262.26 380.35 277.84
  C 372.28 283.24 359.98 290.17 350.88 296.48
  Q 335.00 307.50 329.16 312.41
  C 321.97 318.44 314.58 325.61 312.41 333.69
  Q 310.78 339.79 310.72 346.88
  A 0.50 0.50 0.0 0 0 311.22 347.38
  L 429.40 347.38
  A 0.60 0.60 0.0 0 1 430.00 347.98
  L 430.00 398.76
  A 0.61 0.61 0.0 0 1 429.39 399.37
  Z"
/>
<path fill="#ffffff" d="
  M 191.82 120.98
  A 0.31 0.30 0.0 0 1 192.13 121.28
  L 192.13 399.03
  A 0.35 0.34 0.0 0 1 191.78 399.37
  L 126.97 399.37
  A 0.34 0.34 0.0 0 1 126.63 399.03
  L 126.63 215.58
  A 0.35 0.34 -0.0 0 0 126.28 215.24
  L 69.99 215.24
  A 0.63 0.63 0.0 0 1 69.36 214.61
  L 69.36 170.27
  A 0.44 0.44 0.0 0 1 69.81 169.83
  Q 85.88 170.15 100.73 167.48
  C 108.70 166.05 118.06 162.40 124.53 156.24
  C 133.99 147.23 134.83 133.86 135.39 121.57
  A 0.62 0.62 0.0 0 1 136.01 120.98
  L 191.82 120.98
  Z"
/>
</svg>