<?xml version="1.0" encoding="UTF-8" standalone="no"?>
<!DOCTYPE svg PUBLIC "-//W3C//DTD SVG 1.1//EN" "http://www.w3.org/Graphics/SVG/1.1/DTD/svg11.dtd">
<svg xmlns="http://www.w3.org/2000/svg" version="1.1" viewBox="0.00 0.00 256.00 256.00" width="128" height="128">
<path fill="#00888c" d="
  M 143.49 0.00
  C 149.64 0.29 156.29 0.01 161.95 2.31
  Q 169.10 5.21 175.64 9.39
  C 188.73 17.74 194.48 30.12 198.56 44.86
  A 1.72 1.71 -21.4 0 1 197.69 46.84
  Q 196.15 47.64 193.49 47.98
  C 187.32 48.77 182.08 49.46 176.52 47.69
  C 171.55 46.10 170.83 38.92 169.19 35.57
  Q 167.71 32.55 166.11 31.59
  Q 159.24 27.49 151.07 25.41
  Q 146.29 24.19 138.35 24.65
  Q 134.89 24.85 118.75 24.51
  Q 110.13 24.32 100.60 29.38
  C 92.27 33.82 89.69 47.31 89.66 55.70
  Q 89.65 61.75 89.26 69.20
  C 89.13 71.73 89.36 79.60 91.15 81.26
  A 1.65 1.64 -45.9 0 0 93.44 81.22
  Q 95.05 79.60 96.65 77.23
  C 98.61 74.34 104.80 73.98 108.03 72.76
  C 117.36 69.23 126.60 68.72 136.25 68.93
  Q 142.73 69.07 147.43 70.38
  Q 157.39 73.16 159.65 73.73
  C 165.83 75.27 169.59 77.19 175.03 80.30
  Q 206.68 98.41 220.20 130.87
  Q 221.01 132.83 221.31 134.22
  Q 222.85 141.34 224.68 148.01
  C 226.31 153.97 226.45 158.09 226.28 163.75
  C 226.04 172.11 226.10 177.01 224.12 183.98
  C 221.49 193.21 219.90 200.71 215.85 208.12
  Q 210.18 218.48 201.74 227.99
  Q 185.56 246.25 162.71 254.74
  Q 159.73 255.85 149.61 256.00
  L 113.01 256.00
  Q 109.13 255.82 105.25 255.73
  C 98.22 255.57 92.25 252.45 86.26 248.60
  Q 77.28 242.82 70.93 237.38
  Q 47.69 217.44 39.34 187.95
  Q 38.43 184.77 37.83 178.36
  C 37.04 170.00 37.80 159.43 37.98 153.00
  Q 38.15 146.68 39.80 140.24
  Q 44.05 123.60 54.69 109.87
  Q 59.75 103.34 60.83 100.88
  Q 63.73 94.31 64.06 88.17
  Q 64.42 81.68 65.24 63.75
  C 65.46 59.05 66.82 53.39 66.78 49.15
  C 66.63 31.77 75.24 16.61 89.73 7.30
  Q 97.42 2.36 104.03 0.78
  Q 105.63 0.40 111.88 0.00
  L 143.49 0.00
  Z
  M 79.78 118.53
  Q 76.86 121.88 72.00 129.03
  C 67.99 134.91 65.26 142.91 63.53 148.24
  Q 59.52 160.59 61.47 172.48
  C 63.49 184.78 69.80 198.98 78.25 209.04
  Q 92.19 225.62 114.80 232.98
  C 122.31 235.43 128.45 234.96 136.94 234.90
  C 147.88 234.84 160.52 229.18 169.17 222.91
  Q 175.86 218.06 184.53 208.73
  Q 187.54 205.48 190.40 200.83
  Q 194.59 194.00 195.30 192.32
  Q 205.56 168.25 197.79 143.20
  C 193.00 127.76 181.65 115.89 168.71 105.84
  Q 162.84 101.29 156.83 99.08
  Q 147.97 95.84 143.68 95.14
  Q 133.23 93.46 120.34 95.09
  Q 113.29 95.98 100.98 101.73
  Q 99.34 102.49 89.92 109.06
  C 85.79 111.93 82.29 115.65 79.78 118.53
  Z"
/>
<path fill="#00888c" d="
  M 151.62 218.60
  C 147.17 220.49 140.80 221.51 134.91 221.59
  C 125.37 221.73 119.29 221.63 111.77 218.82
  C 108.09 217.45 102.84 214.11 99.65 212.13
  C 90.17 206.22 82.98 196.19 78.21 186.31
  C 73.93 177.45 74.72 166.61 75.21 155.76
  Q 75.58 147.52 78.98 141.27
  Q 90.44 120.19 111.88 110.15
  Q 114.67 108.84 119.89 108.00
  C 126.52 106.92 131.07 107.41 139.26 107.39
  C 143.20 107.38 149.20 109.31 153.58 111.74
  Q 164.46 117.78 167.34 119.92
  Q 170.47 122.26 176.46 129.59
  C 179.84 133.72 181.30 138.65 184.19 143.25
  C 187.68 148.78 189.46 158.80 189.34 163.96
  C 189.19 171.03 187.64 179.76 184.06 186.67
  Q 179.66 195.15 178.76 196.54
  Q 176.19 200.45 169.10 207.11
  Q 161.21 214.53 151.62 218.60
  Z
  M 136.39 194.03
  Q 136.99 192.08 136.62 190.49
  C 134.91 183.05 136.32 177.26 139.00 169.48
  Q 140.54 165.03 143.41 161.90
  C 146.11 158.95 149.36 155.57 149.44 151.66
  Q 149.53 147.31 147.63 143.79
  Q 140.29 130.19 123.97 134.47
  C 117.46 136.17 112.11 145.87 113.81 152.46
  A 3.95 3.65 24.3 0 0 114.19 153.36
  C 118.58 160.70 124.96 169.32 125.16 179.61
  A 7.10 6.43 -55.1 0 0 125.33 180.94
  C 126.24 184.70 126.83 186.06 125.68 189.42
  A 2.62 2.41 -37.4 0 0 125.55 190.15
  Q 125.45 193.59 127.89 195.18
  A 1.00 0.94 -26.5 0 0 128.43 195.34
  L 134.63 195.34
  A 1.84 1.83 8.3 0 0 136.39 194.03
  Z"
/>
</svg>