<?xml version="1.0" encoding="UTF-8" standalone="no"?>
<!DOCTYPE svg PUBLIC "-//W3C//DTD SVG 1.1//EN" "http://www.w3.org/Graphics/SVG/1.1/DTD/svg11.dtd">
<svg xmlns="http://www.w3.org/2000/svg" version="1.1" viewBox="0.00 0.00 512.00 512.00" width="128" height="128">
<g stroke-width="2.00" fill="none" stroke-linecap="butt">
<path stroke="#91d3cc" vector-effect="non-scaling-stroke" d="
  M 444.37 125.19
  A 54.31 54.31 0.0 0 0 390.06 70.88
  L 125.16 70.88
  A 54.31 54.31 0.0 0 0 70.85 125.19
  L 70.85 386.81
  A 54.31 54.31 0.0 0 0 125.16 441.12
  L 390.06 441.12
  A 54.31 54.31 0.0 0 0 444.37 386.81
  L 444.37 125.19"
/>
<path stroke="#91d3cc" vector-effect="non-scaling-stroke" d="
  M 90.17 385.89
  A 35.98 35.98 0.0 0 0 126.15 421.87
  L 389.05 421.87
  A 35.98 35.98 0.0 0 0 425.03 385.89
  L 425.03 126.17
  A 35.98 35.98 0.0 0 0 389.05 90.19
  L 126.15 90.19
  A 35.98 35.98 0.0 0 0 90.17 126.17
  L 90.17 385.89"
/>
<path stroke="#91d3cc" vector-effect="non-scaling-stroke" d="
  M 327.76 326.90
  Q 313.65 329.99 300.69 330.61
  C 288.49 331.19 277.12 330.92 266.64 326.13
  C 256.36 321.44 254.52 313.09 254.48 302.50
  Q 254.32 258.93 254.47 216.00
  A 0.28 0.28 0.0 0 1 254.75 215.72
  L 324.64 215.72
  A 0.60 0.59 -90.0 0 0 325.23 215.12
  L 325.23 193.54
  A 0.34 0.33 -90.0 0 0 324.90 193.20
  L 254.74 193.20
  A 0.34 0.33 -90.0 0 1 254.41 192.86
  L 254.41 161.62
  A 0.63 0.63 0.0 0 0 253.78 160.99
  L 226.04 160.99
  A 0.64 0.64 0.0 0 0 225.40 161.63
  L 225.40 192.70
  A 0.49 0.49 0.0 0 1 224.91 193.19
  L 187.22 193.19
  A 0.56 0.55 -90.0 0 0 186.67 193.75
  L 186.67 215.02
  A 0.69 0.68 90.0 0 0 187.35 215.71
  L 224.80 215.71
  A 0.61 0.61 0.0 0 1 225.41 216.32
  Q 225.37 250.18 225.40 292.00
  Q 225.42 308.05 228.86 321.90
  C 231.79 333.67 238.49 342.64 250.08 346.92
  C 263.86 352.00 279.28 352.71 294.01 352.11
  Q 311.04 351.43 327.88 348.53
  A 0.71 0.70 85.2 0 0 328.46 347.83
  L 328.46 327.47
  A 0.58 0.58 0.0 0 0 327.76 326.90"
/>
</g>
<path fill="#23a698" d="
  M 465.49 0.00
  C 490.80 1.53 509.95 20.42 512.00 45.66
  L 512.00 466.22
  C 510.02 491.39 491.04 510.30 465.82 512.00
  L 46.36 512.00
  C 21.18 510.39 2.15 491.64 0.00 466.52
  L 0.00 45.61
  C 2.04 20.36 21.13 1.69 46.41 0.00
  L 465.49 0.00
  Z
  M 444.37 125.19
  A 54.31 54.31 0.0 0 0 390.06 70.88
  L 125.16 70.88
  A 54.31 54.31 0.0 0 0 70.85 125.19
  L 70.85 386.81
  A 54.31 54.31 0.0 0 0 125.16 441.12
  L 390.06 441.12
  A 54.31 54.31 0.0 0 0 444.37 386.81
  L 444.37 125.19
  Z"
/>
<path fill="#ffffff" d="
  M 444.37 386.81
  A 54.31 54.31 0.0 0 1 390.06 441.12
  L 125.16 441.12
  A 54.31 54.31 0.0 0 1 70.85 386.81
  L 70.85 125.19
  A 54.31 54.31 0.0 0 1 125.16 70.88
  L 390.06 70.88
  A 54.31 54.31 0.0 0 1 444.37 125.19
  L 444.37 386.81
  Z
  M 90.17 385.89
  A 35.98 35.98 0.0 0 0 126.15 421.87
  L 389.05 421.87
  A 35.98 35.98 0.0 0 0 425.03 385.89
  L 425.03 126.17
  A 35.98 35.98 0.0 0 0 389.05 90.19
  L 126.15 90.19
  A 35.98 35.98 0.0 0 0 90.17 126.17
  L 90.17 385.89
  Z"
/>
<path fill="#23a698" d="
  M 90.17 385.89
  L 90.17 126.17
  A 35.98 35.98 0.0 0 1 126.15 90.19
  L 389.05 90.19
  A 35.98 35.98 0.0 0 1 425.03 126.17
  L 425.03 385.89
  A 35.98 35.98 0.0 0 1 389.05 421.87
  L 126.15 421.87
  A 35.98 35.98 0.0 0 1 90.17 385.89
  Z
  M 327.76 326.90
  Q 313.65 329.99 300.69 330.61
  C 288.49 331.19 277.12 330.92 266.64 326.13
  C 256.36 321.44 254.52 313.09 254.48 302.50
  Q 254.32 258.93 254.47 216.00
  A 0.28 0.28 0.0 0 1 254.75 215.72
  L 324.64 215.72
  A 0.60 0.59 -90.0 0 0 325.23 215.12
  L 325.23 193.54
  A 0.34 0.33 -90.0 0 0 324.90 193.20
  L 254.74 193.20
  A 0.34 0.33 -90.0 0 1 254.41 192.86
  L 254.41 161.62
  A 0.63 0.63 0.0 0 0 253.78 160.99
  L 226.04 160.99
  A 0.64 0.64 0.0 0 0 225.40 161.63
  L 225.40 192.70
  A 0.49 0.49 0.0 0 1 224.91 193.19
  L 187.22 193.19
  A 0.56 0.55 -90.0 0 0 186.67 193.75
  L 186.67 215.02
  A 0.69 0.68 90.0 0 0 187.35 215.71
  L 224.80 215.71
  A 0.61 0.61 0.0 0 1 225.41 216.32
  Q 225.37 250.18 225.40 292.00
  Q 225.42 308.05 228.86 321.90
  C 231.79 333.67 238.49 342.64 250.08 346.92
  C 263.86 352.00 279.28 352.71 294.01 352.11
  Q 311.04 351.43 327.88 348.53
  A 0.71 0.70 85.2 0 0 328.46 347.83
  L 328.46 327.47
  A 0.58 0.58 0.0 0 0 327.76 326.90
  Z"
/>
<path fill="#ffffff" d="
  M 328.46 327.47
  L 328.46 347.83
  A 0.71 0.70 85.2 0 1 327.88 348.53
  Q 311.04 351.43 294.01 352.11
  C 279.28 352.71 263.86 352.00 250.08 346.92
  C 238.49 342.64 231.79 333.67 228.86 321.90
  Q 225.42 308.05 225.40 292.00
  Q 225.37 250.18 225.41 216.32
  A 0.61 0.61 0.0 0 0 224.80 215.71
  L 187.35 215.71
  A 0.69 0.68 90.0 0 1 186.67 215.02
  L 186.67 193.75
  A 0.56 0.55 -90.0 0 1 187.22 193.19
  L 224.91 193.19
  A 0.49 0.49 0.0 0 0 225.40 192.70
  L 225.40 161.63
  A 0.64 0.64 0.0 0 1 226.04 160.99
  L 253.78 160.99
  A 0.63 0.63 0.0 0 1 254.41 161.62
  L 254.41 192.86
  A 0.34 0.33 90.0 0 0 254.74 193.20
  L 324.90 193.20
  A 0.34 0.33 -90.0 0 1 325.23 193.54
  L 325.23 215.12
  A 0.60 0.59 90.0 0 1 324.64 215.72
  L 254.75 215.72
  A 0.28 0.28 0.0 0 0 254.47 216.00
  Q 254.32 258.93 254.48 302.50
  C 254.52 313.09 256.36 321.44 266.64 326.13
  C 277.12 330.92 288.49 331.19 300.69 330.61
  Q 313.65 329.99 327.76 326.90
  A 0.58 0.58 0.0 0 1 328.46 327.47
  Z"
/>
</svg>