<?xml version="1.0" encoding="UTF-8" standalone="no"?>
<!DOCTYPE svg PUBLIC "-//W3C//DTD SVG 1.1//EN" "http://www.w3.org/Graphics/SVG/1.1/DTD/svg11.dtd">
<svg xmlns="http://www.w3.org/2000/svg" version="1.1" viewBox="0.00 0.00 512.00 512.00" width="128" height="128">
<path stroke="#c15ef9" stroke-opacity="0.769" stroke-width="2.00" fill="none" stroke-linecap="butt" vector-effect="non-scaling-stroke" d="
  M 45.72 364.53
  Q 54.80 370.49 63.17 376.20
  Q 68.73 379.98 72.61 381.73
  C 79.90 385.01 86.80 389.03 95.46 391.29
  C 101.71 392.92 108.58 395.44 115.64 396.91
  A 7.71 7.67 -39.1 0 0 117.34 397.08
  Q 121.43 397.04 123.90 397.53
  C 128.95 398.52 133.61 397.83 138.48 398.93
  A 11.12 11.02 48.8 0 0 141.75 399.16
  Q 147.13 398.74 156.69 397.62
  Q 161.08 397.11 165.00 397.01
  Q 168.64 396.92 171.20 396.17
  Q 176.33 394.66 193.47 389.39
  Q 199.21 387.62 205.59 384.21
  Q 219.94 376.53 225.26 373.28
  Q 226.75 372.37 228.56 370.14"
/>
<path fill="#c15ef9" d="
  M 45.72 364.53
  Q 54.80 370.49 63.17 376.20
  Q 68.73 379.98 72.61 381.73
  C 79.90 385.01 86.80 389.03 95.46 391.29
  C 101.71 392.92 108.58 395.44 115.64 396.91
  A 7.71 7.67 -39.1 0 0 117.34 397.08
  Q 121.43 397.04 123.90 397.53
  C 128.95 398.52 133.61 397.83 138.48 398.93
  A 11.12 11.02 48.8 0 0 141.75 399.16
  Q 147.13 398.74 156.69 397.62
  Q 161.08 397.11 165.00 397.01
  Q 168.64 396.92 171.20 396.17
  Q 176.33 394.66 193.47 389.39
  Q 199.21 387.62 205.59 384.21
  Q 219.94 376.53 225.26 373.28
  Q 226.75 372.37 228.56 370.14
  Q 242.42 360.74 252.96 348.46
  Q 258.38 342.15 263.97 334.69
  Q 265.42 332.76 274.33 316.71
  Q 277.96 310.18 280.12 303.27
  Q 285.99 284.47 286.36 282.58
  C 288.55 271.32 288.97 256.73 288.96 243.41
  Q 288.95 111.60 288.96 78.75
  Q 288.96 71.59 289.22 66.23
  Q 289.78 54.51 289.78 53.75
  Q 289.83 48.49 289.86 38.38
  C 289.90 25.89 295.21 15.41 307.45 11.24
  C 311.27 9.94 316.26 9.64 320.92 9.63
  Q 365.43 9.53 453.01 9.63
  C 458.49 9.64 464.87 10.29 469.65 13.11
  C 475.82 16.77 481.03 22.88 481.96 30.04
  C 482.29 32.53 482.91 34.92 482.92 37.86
  Q 483.11 108.75 482.76 149.50
  C 482.49 181.78 482.78 212.26 482.60 240.50
  Q 482.57 245.27 482.99 262.33
  C 483.37 277.46 482.86 289.49 481.87 302.99
  Q 481.67 305.73 479.55 319.11
  Q 478.37 326.56 476.13 335.04
  Q 472.65 348.15 468.00 360.40
  Q 465.05 368.15 462.40 373.28
  C 459.07 379.71 457.16 384.49 453.84 389.98
  Q 413.17 457.21 341.90 485.86
  Q 328.85 491.11 309.89 495.96
  Q 301.29 498.16 294.98 498.91
  Q 290.64 499.42 284.95 500.41
  C 277.57 501.70 270.37 501.61 262.78 502.07
  Q 256.85 502.43 250.72 501.97
  Q 229.73 500.41 223.51 499.93
  Q 220.61 499.71 218.31 499.17
  Q 211.94 497.67 196.53 494.30
  Q 188.18 492.47 181.30 489.83
  Q 161.82 482.34 159.06 481.18
  Q 154.45 479.25 138.33 470.23
  Q 128.39 464.67 118.64 457.52
  Q 82.69 431.15 59.40 392.61
  Q 53.46 382.77 45.72 364.53
  Z"
/>
<path fill="#c15ef9" fill-opacity="0.537" d="
  M 228.56 370.14
  Q 226.75 372.37 225.26 373.28
  Q 219.94 376.53 205.59 384.21
  Q 199.21 387.62 193.47 389.39
  Q 176.33 394.66 171.20 396.17
  Q 168.64 396.92 165.00 397.01
  Q 161.08 397.11 156.69 397.62
  Q 147.13 398.74 141.75 399.16
  A 11.12 11.02 48.8 0 1 138.48 398.93
  C 133.61 397.83 128.95 398.52 123.90 397.53
  Q 121.43 397.04 117.34 397.08
  A 7.71 7.67 -39.1 0 1 115.64 396.91
  C 108.58 395.44 101.71 392.92 95.46 391.29
  C 86.80 389.03 79.90 385.01 72.61 381.73
  Q 68.73 379.98 63.17 376.20
  Q 54.80 370.49 45.72 364.53
  Q 41.10 351.32 37.52 336.45
  Q 36.01 330.18 35.41 325.90
  Q 34.26 317.74 33.70 315.25
  C 32.88 311.63 32.84 308.11 32.36 303.78
  Q 32.17 302.06 32.13 299.20
  C 31.96 287.54 32.24 274.91 32.30 263.28
  Q 32.49 220.10 32.25 151.79
  Q 32.13 118.82 32.21 100.29
  C 32.24 94.10 33.22 86.80 37.08 81.67
  Q 40.37 77.30 44.99 74.22
  C 50.41 70.61 59.21 70.39 65.50 70.40
  Q 144.34 70.61 145.96 70.62
  C 155.41 70.66 167.62 68.95 175.72 75.55
  Q 187.46 85.12 187.43 100.76
  Q 187.17 245.61 187.42 264.02
  Q 187.48 268.35 188.49 280.57
  C 189.00 286.70 188.85 293.55 190.18 298.57
  Q 192.78 308.44 196.83 320.31
  Q 199.24 327.38 201.93 331.95
  Q 204.77 336.76 207.92 343.07
  Q 210.28 347.77 215.61 354.28
  C 219.70 359.27 223.62 363.43 226.50 367.69
  Q 227.48 369.14 228.56 370.14
  Z"
/>
</svg>