<?xml version="1.0" encoding="UTF-8" standalone="no"?>
<!DOCTYPE svg PUBLIC "-//W3C//DTD SVG 1.1//EN" "http://www.w3.org/Graphics/SVG/1.1/DTD/svg11.dtd">
<svg xmlns="http://www.w3.org/2000/svg" version="1.1" viewBox="0.00 0.00 180.00 180.00" width="128" height="128">
<g stroke-width="2.00" fill="none" stroke-linecap="butt">
<path stroke="#95d9de" vector-effect="non-scaling-stroke" d="
  M 24.61 152.79
  L 172.26 92.46"
/>
<path stroke="#80ccde" vector-effect="non-scaling-stroke" d="
  M 172.26 92.46
  L 175.03 91.38
  A 0.25 0.24 -46.5 0 0 175.02 90.92
  L 170.87 89.55"
/>
<path stroke="#95d9de" vector-effect="non-scaling-stroke" d="
  M 170.87 89.55
  L 137.92 77.60"
/>
<path stroke="#95a770" vector-effect="non-scaling-stroke" d="
  M 137.92 77.60
  Q 136.28 72.76 136.81 68.68"
/>
<path stroke="#95bb99" vector-effect="non-scaling-stroke" d="
  M 136.81 68.68
  Q 134.94 54.99 132.68 47.08
  Q 131.64 43.42 126.98 42.49
  A 1.86 1.76 -42.7 0 0 126.25 42.48
  L 104.16 46.73
  A 0.62 0.62 0.0 0 1 103.46 46.33
  L 100.25 37.45
  A 2.80 2.78 15.4 0 0 99.75 36.58
  C 97.69 34.06 94.51 33.45 91.04 34.24
  Q 84.38 35.77 72.57 38.38
  A 2.78 2.69 -68.2 0 0 71.54 38.84
  Q 68.70 40.91 68.70 44.57
  Q 68.69 48.55 68.57 52.53"
/>
<path stroke="#95d9de" vector-effect="non-scaling-stroke" d="
  M 68.57 52.53
  L 19.10 34.68"
/>
<path stroke="#ffe2bb" vector-effect="non-scaling-stroke" d="
  M 68.57 52.53
  L 68.73 52.94
  A 0.44 0.44 0.0 0 1 68.40 53.53
  Q 54.78 56.26 51.47 56.76
  C 47.30 57.40 44.56 59.26 43.94 63.28
  A 3.68 3.62 44.5 0 0 43.96 64.48
  L 46.49 77.53"
/>
<path stroke="#ffce92" vector-effect="non-scaling-stroke" d="
  M 46.49 77.53
  Q 46.10 79.03 46.87 82.14"
/>
<path stroke="#eaf3ff" vector-effect="non-scaling-stroke" d="
  M 46.87 82.14
  L 32.67 82.25"
/>
<path stroke="#95d9de" vector-effect="non-scaling-stroke" d="
  M 32.67 82.25
  L 14.43 41.22"
/>
<path stroke="#ffb04d" vector-effect="non-scaling-stroke" d="
  M 136.81 68.68
  L 135.14 62.53
  A 0.71 0.70 -12.7 0 0 134.34 62.03
  L 97.84 68.59"
/>
<path stroke="#ffe2bb" vector-effect="non-scaling-stroke" d="
  M 97.84 68.59
  L 84.37 70.90"
/>
<path stroke="#ffb04d" vector-effect="non-scaling-stroke" d="
  M 84.37 70.90
  L 46.49 77.53"
/>
<path stroke="#95bb99" vector-effect="non-scaling-stroke" d="
  M 74.23 51.91
  A 0.46 0.46 0.0 0 0 74.78 52.36
  L 96.70 48.15
  A 0.46 0.46 0.0 0 0 97.05 47.54
  L 94.55 40.64
  A 0.46 0.46 0.0 0 0 94.03 40.34
  L 74.60 44.08
  A 0.46 0.46 0.0 0 0 74.23 44.53
  L 74.23 51.91"
/>
<path stroke="#80ccde" vector-effect="non-scaling-stroke" d="
  M 32.67 82.25
  L 32.66 98.73"
/>
<path stroke="#95d9de" vector-effect="non-scaling-stroke" d="
  M 32.66 98.73
  L 18.76 145.93"
/>
<path stroke="#ffce92" vector-effect="non-scaling-stroke" d="
  M 137.92 77.60
  L 139.71 88.39"
/>
<path stroke="#eac192" vector-effect="non-scaling-stroke" d="
  M 139.71 88.39
  Q 140.04 91.34 138.23 93.22"
/>
<path stroke="#ffce92" vector-effect="non-scaling-stroke" d="
  M 138.23 93.22
  L 49.60 98.16"
/>
<path stroke="#eac192" vector-effect="non-scaling-stroke" d="
  M 49.60 98.16
  L 46.87 82.14"
/>
<path stroke="#ffce92" vector-effect="non-scaling-stroke" d="
  M 84.37 70.90
  C 85.04 75.36 84.97 82.25 91.23 82.34
  Q 97.16 82.42 98.70 77.86
  C 99.44 75.68 98.24 71.34 97.84 68.59"
/>
<path stroke="#eaf3ff" vector-effect="non-scaling-stroke" d="
  M 170.87 89.55
  Q 161.65 90.73 159.24 90.10
  C 156.86 89.49 154.79 89.01 152.20 89.06
  Q 145.99 89.19 139.71 88.39"
/>
<path stroke="#eaf3ff" vector-effect="non-scaling-stroke" d="
  M 49.60 98.16
  Q 41.27 99.27 32.66 98.73"
/>
<path stroke="#eaf3ff" vector-effect="non-scaling-stroke" d="
  M 172.26 92.46
  Q 165.09 91.36 160.88 91.92
  Q 149.73 93.38 138.23 93.22"
/>
</g>
<path fill="#2bb2bc" d="
  M 94.44 0.00
  C 141.12 3.23 176.84 38.72 180.00 85.46
  L 180.00 95.47
  Q 177.13 135.40 147.21 160.46
  Q 129.11 175.62 104.79 180.00
  L 75.34 180.00
  Q 45.51 174.60 24.61 152.79
  L 172.26 92.46
  L 175.03 91.38
  A 0.25 0.24 -46.5 0 0 175.02 90.92
  L 170.87 89.55
  L 137.92 77.60
  Q 136.28 72.76 136.81 68.68
  Q 134.94 54.99 132.68 47.08
  Q 131.64 43.42 126.98 42.49
  A 1.86 1.76 -42.7 0 0 126.25 42.48
  L 104.16 46.73
  A 0.62 0.62 0.0 0 1 103.46 46.33
  L 100.25 37.45
  A 2.80 2.78 15.4 0 0 99.75 36.58
  C 97.69 34.06 94.51 33.45 91.04 34.24
  Q 84.38 35.77 72.57 38.38
  A 2.78 2.69 -68.2 0 0 71.54 38.84
  Q 68.70 40.91 68.70 44.57
  Q 68.69 48.55 68.57 52.53
  L 19.10 34.68
  Q 44.72 3.04 85.49 0.00
  L 94.44 0.00
  Z"
/>
<path fill="#ffffff" d="
  M 19.10 34.68
  L 68.57 52.53
  L 68.73 52.94
  A 0.44 0.44 0.0 0 1 68.40 53.53
  Q 54.78 56.26 51.47 56.76
  C 47.30 57.40 44.56 59.26 43.94 63.28
  A 3.68 3.62 44.5 0 0 43.96 64.48
  L 46.49 77.53
  Q 46.10 79.03 46.87 82.14
  L 32.67 82.25
  L 14.43 41.22
  L 10.55 32.22
  A 0.24 0.24 0.0 0 1 10.85 31.90
  L 19.10 34.68
  Z"
/>
<path fill="#ffc476" d="
  M 136.81 68.68
  L 135.14 62.53
  A 0.71 0.70 -12.7 0 0 134.34 62.03
  L 97.84 68.59
  L 84.37 70.90
  L 46.49 77.53
  L 43.96 64.48
  A 3.68 3.62 44.5 0 1 43.94 63.28
  C 44.56 59.26 47.30 57.40 51.47 56.76
  Q 54.78 56.26 68.40 53.53
  A 0.44 0.44 0.0 0 0 68.73 52.94
  L 68.57 52.53
  Q 68.69 48.55 68.70 44.57
  Q 68.70 40.91 71.54 38.84
  A 2.78 2.69 -68.2 0 1 72.57 38.38
  Q 84.38 35.77 91.04 34.24
  C 94.51 33.45 97.69 34.06 99.75 36.58
  A 2.80 2.78 15.4 0 1 100.25 37.45
  L 103.46 46.33
  A 0.62 0.62 0.0 0 0 104.16 46.73
  L 126.25 42.48
  A 1.86 1.76 -42.7 0 1 126.98 42.49
  Q 131.64 43.42 132.68 47.08
  Q 134.94 54.99 136.81 68.68
  Z
  M 74.23 51.91
  A 0.46 0.46 0.0 0 0 74.78 52.36
  L 96.70 48.15
  A 0.46 0.46 0.0 0 0 97.05 47.54
  L 94.55 40.64
  A 0.46 0.46 0.0 0 0 94.03 40.34
  L 74.60 44.08
  A 0.46 0.46 0.0 0 0 74.23 44.53
  L 74.23 51.91
  Z"
/>
<path fill="#2bb2bc" d="
  M 74.23 51.91
  L 74.23 44.53
  A 0.46 0.46 0.0 0 1 74.60 44.08
  L 94.03 40.34
  A 0.46 0.46 0.0 0 1 94.55 40.64
  L 97.05 47.54
  A 0.46 0.46 0.0 0 1 96.70 48.15
  L 74.78 52.36
  A 0.46 0.46 0.0 0 1 74.23 51.91
  Z"
/>
<path fill="#2bb2bc" d="
  M 32.67 82.25
  L 32.66 98.73
  L 18.76 145.93
  Q 1.82 123.65 0.00 95.74
  L 0.00 85.39
  Q 1.57 61.47 14.43 41.22
  L 32.67 82.25
  Z"
/>
<path fill="#ff9c24" d="
  M 136.81 68.68
  Q 136.28 72.76 137.92 77.60
  L 139.71 88.39
  Q 140.04 91.34 138.23 93.22
  L 49.60 98.16
  L 46.87 82.14
  Q 46.10 79.03 46.49 77.53
  L 84.37 70.90
  C 85.04 75.36 84.97 82.25 91.23 82.34
  Q 97.16 82.42 98.70 77.86
  C 99.44 75.68 98.24 71.34 97.84 68.59
  L 134.34 62.03
  A 0.71 0.70 -12.7 0 1 135.14 62.53
  L 136.81 68.68
  Z"
/>
<path fill="#ffffff" d="
  M 97.84 68.59
  C 98.24 71.34 99.44 75.68 98.70 77.86
  Q 97.16 82.42 91.23 82.34
  C 84.97 82.25 85.04 75.36 84.37 70.90
  L 97.84 68.59
  Z"
/>
<path fill="#ffffff" d="
  M 170.87 89.55
  Q 161.65 90.73 159.24 90.10
  C 156.86 89.49 154.79 89.01 152.20 89.06
  Q 145.99 89.19 139.71 88.39
  L 137.92 77.60
  L 170.87 89.55
  Z"
/>
<path fill="#d4e6ff" d="
  M 46.87 82.14
  L 49.60 98.16
  Q 41.27 99.27 32.66 98.73
  L 32.67 82.25
  L 46.87 82.14
  Z"
/>
<path fill="#d4e6ff" d="
  M 170.87 89.55
  L 175.02 90.92
  A 0.25 0.24 -46.5 0 1 175.03 91.38
  L 172.26 92.46
  Q 165.09 91.36 160.88 91.92
  Q 149.73 93.38 138.23 93.22
  Q 140.04 91.34 139.71 88.39
  Q 145.99 89.19 152.20 89.06
  C 154.79 89.01 156.86 89.49 159.24 90.10
  Q 161.65 90.73 170.87 89.55
  Z"
/>
<path fill="#ffffff" d="
  M 172.26 92.46
  L 24.61 152.79
  L 16.37 155.96
  A 0.26 0.26 0.0 0 1 16.02 155.65
  L 18.76 145.93
  L 32.66 98.73
  Q 41.27 99.27 49.60 98.16
  L 138.23 93.22
  Q 149.73 93.38 160.88 91.92
  Q 165.09 91.36 172.26 92.46
  Z"
/>
</svg>