<?xml version="1.0" encoding="UTF-8" standalone="no"?>
<!DOCTYPE svg PUBLIC "-//W3C//DTD SVG 1.1//EN" "http://www.w3.org/Graphics/SVG/1.1/DTD/svg11.dtd">
<svg xmlns="http://www.w3.org/2000/svg" version="1.1" viewBox="0.00 0.00 128.00 128.00" width="128" height="128">
<g stroke-width="2.00" fill="none" stroke-linecap="butt">
<path stroke="#fef1f7" vector-effect="non-scaling-stroke" d="
  M 39.83 0.00
  Q 41.17 16.05 39.68 32.14"
/>
<path stroke="#ff7fb8" vector-effect="non-scaling-stroke" d="
  M 39.68 32.14
  Q 36.40 28.26 32.88 24.63
  L 32.87 24.63
  A 0.02 0.02 0.0 0 0 32.85 24.66
  L 53.13 50.04
  A 0.88 0.88 0.0 0 1 52.88 51.35
  L 51.97 51.88
  A 1.25 1.24 -34.0 0 1 50.38 51.58
  L 38.40 36.48
  A 0.17 0.17 0.0 0 0 38.22 36.42
  L 38.21 36.42
  A 0.23 0.22 55.5 0 0 38.16 36.71
  L 46.28 51.25
  A 1.54 1.53 49.4 0 1 46.15 52.96
  C 44.84 54.65 44.29 56.17 43.92 58.70
  C 43.31 62.86 41.89 64.97 39.10 68.46
  C 34.14 74.68 36.09 79.19 40.22 84.95
  A 0.70 0.69 62.6 0 0 41.00 85.20
  L 43.43 84.37"
/>
<path stroke="#fef1f7" vector-effect="non-scaling-stroke" d="
  M 43.43 84.37
  Q 45.57 93.41 47.80 102.19
  C 50.18 111.58 50.65 119.14 46.51 128.00"
/>
<path stroke="#fef9fb" vector-effect="non-scaling-stroke" d="
  M 30.13 128.00
  Q 21.62 95.53 13.03 63.12
  C 8.89 47.50 6.33 33.20 4.08 20.38
  Q 3.77 18.61 3.04 17.33
  A 0.49 0.49 0.0 0 0 2.13 17.48
  Q 1.13 22.97 0.97 31.17
  Q 0.43 59.70 0.00 88.26"
/>
<path stroke="#fee9f2" vector-effect="non-scaling-stroke" d="
  M 60.95 0.00
  C 62.58 15.33 65.49 29.83 74.55 42.38"
/>
<path stroke="#ff7bb5" vector-effect="non-scaling-stroke" d="
  M 74.55 42.38
  Q 69.94 41.39 66.16 42.29
  A 1.45 1.45 0.0 0 1 64.72 41.83
  Q 59.69 36.05 54.38 35.56
  A 0.19 0.18 6.8 0 0 54.18 35.71
  L 54.17 35.72
  A 0.24 0.23 -78.2 0 0 54.34 35.99
  C 59.78 37.44 63.04 41.38 66.05 45.73
  C 69.89 51.28 73.97 52.43 80.48 52.69
  C 83.36 52.81 87.49 53.19 88.77 56.23"
/>
<path stroke="#fee9f2" vector-effect="non-scaling-stroke" d="
  M 88.77 56.23
  Q 88.88 57.37 88.46 58.25"
/>
<path stroke="#ff7bb5" vector-effect="non-scaling-stroke" d="
  M 88.46 58.25
  Q 83.86 55.67 80.75 55.62
  Q 75.01 55.52 70.31 52.70
  A 0.32 0.32 0.0 0 0 69.83 52.99
  Q 70.33 59.33 76.27 61.94
  Q 82.14 64.52 87.93 67.31
  Q 90.71 68.65 91.89 73.01"
/>
<path stroke="#fee9f2" vector-effect="non-scaling-stroke" d="
  M 91.89 73.01
  Q 92.90 77.33 95.19 83.14
  Q 100.02 95.44 110.85 100.91
  C 120.24 105.66 124.26 98.19 127.06 90.72
  A 0.11 0.11 0.0 0 1 127.22 90.66
  Q 127.34 90.73 127.48 90.75
  A 0.14 0.14 0.0 0 0 127.63 90.61
  Q 127.56 68.00 127.65 49.85
  C 127.65 48.29 127.21 46.94 127.52 45.32
  A 2.22 1.91 54.8 0 0 127.56 44.91
  L 127.56 0.88
  A 0.46 0.43 24.9 0 0 127.44 0.58
  Q 126.89 0.01 125.91 0.33"
/>
<path stroke="#ffe6f0" vector-effect="non-scaling-stroke" d="
  M 125.91 0.33
  L 125.63 0.00"
/>
<path stroke="#ff7bb5" vector-effect="non-scaling-stroke" d="
  M 43.43 84.37
  C 46.18 83.67 49.54 81.95 50.11 78.93
  C 51.10 73.76 40.68 73.91 44.51 66.10
  Q 46.63 61.79 46.80 57.32
  A 2.34 2.33 84.2 0 1 48.57 55.14
  C 51.60 54.38 54.96 54.27 55.30 50.58
  A 2.11 2.07 -63.8 0 0 54.78 49.00
  L 39.68 32.14"
/>
<path stroke="#ff7bb5" vector-effect="non-scaling-stroke" d="
  M 60.29 49.19
  L 58.83 46.67
  A 3.31 3.24 27.9 0 1 58.42 45.39
  C 58.03 41.72 56.94 38.27 53.22 37.78
  A 0.50 0.49 -84.0 0 0 52.66 38.24
  C 52.37 42.67 54.74 48.98 59.69 50.01
  A 0.56 0.56 0.0 0 0 60.29 49.19"
/>
<path stroke="#ff7bb5" vector-effect="non-scaling-stroke" d="
  M 60.6908 57.4822
  A 3.18 2.47 -13.6 0 0 57.0192 55.8293
  A 3.18 2.47 -13.6 0 0 54.5092 58.9778
  A 3.18 2.47 -13.6 0 0 58.1808 60.6307
  A 3.18 2.47 -13.6 0 0 60.6908 57.4822"
/>
<path stroke="#ff7bb5" vector-effect="non-scaling-stroke" d="
  M 59.74 76.36
  Q 60.60 75.79 68.19 75.22
  Q 72.38 74.90 75.28 71.48
  A 2.25 2.24 71.4 0 0 75.74 70.55
  Q 76.32 67.95 75.56 64.65
  A 0.32 0.31 78.3 0 0 75.20 64.41
  L 75.18 64.42
  A 0.25 0.25 0.0 0 0 74.97 64.71
  Q 76.06 71.30 69.80 73.51
  A 1.87 1.76 30.8 0 1 69.30 73.62
  Q 64.65 74.13 62.10 74.93
  Q 59.80 75.64 59.53 76.17
  A 0.15 0.15 0.0 0 0 59.74 76.36"
/>
<path stroke="#ff7bb5" vector-effect="non-scaling-stroke" d="
  M 84.72 89.32
  Q 91.29 85.31 90.66 77.23
  C 90.15 70.86 84.20 68.21 78.59 65.41
  A 0.51 0.51 0.0 0 0 77.87 65.74
  C 76.12 72.79 84.95 77.80 85.40 84.95
  Q 85.55 87.36 84.41 88.99
  A 0.23 0.23 0.0 0 0 84.72 89.32"
/>
<path stroke="#ff7bb5" vector-effect="non-scaling-stroke" d="
  M 77.70 93.84
  C 71.78 94.88 71.06 91.47 70.52 86.47
  C 70.01 81.74 65.91 78.98 61.27 79.16
  Q 54.57 79.42 49.39 83.97
  A 0.47 0.46 -56.0 0 0 49.54 84.76
  Q 49.70 84.82 50.89 84.59
  A 1.32 1.31 54.5 0 1 51.76 84.74
  L 55.50 86.90
  A 1.00 0.94 87.3 0 1 55.80 87.19
  Q 57.47 89.65 60.39 90.85
  A 2.20 2.14 -35.1 0 0 61.33 91.00
  Q 65.45 90.72 64.67 86.31
  A 0.21 0.20 78.2 0 0 64.42 86.14
  L 64.41 86.14
  A 0.30 0.30 0.0 0 0 64.19 86.52
  Q 64.83 88.38 63.66 89.29
  C 61.62 90.88 59.91 89.62 58.76 87.73
  C 57.36 85.43 60.18 83.21 62.23 83.34
  Q 64.40 83.47 66.80 85.88
  A 2.81 2.73 -80.4 0 1 67.37 86.71
  C 69.54 91.74 71.78 97.50 77.83 94.21
  A 0.20 0.20 0.0 0 0 77.70 93.84"
/>
<path stroke="#ffe2ee" vector-effect="non-scaling-stroke" d="
  M 85.65 0.00
  C 88.01 19.69 93.48 39.57 109.74 52.51
  C 120.59 61.14 124.59 54.30 127.35 44.12
  A 0.87 0.78 -41.8 0 0 127.37 43.94
  L 127.37 1.90
  A 1.01 1.00 -72.4 0 0 126.95 1.08
  L 125.91 0.33"
/>
<path stroke="#ff77b3" vector-effect="non-scaling-stroke" d="
  M 91.89 73.01
  Q 95.78 64.72 88.46 58.25"
/>
<path stroke="#ff77b3" vector-effect="non-scaling-stroke" d="
  M 88.77 56.23
  Q 89.12 55.30 88.70 54.30
  Q 84.72 44.77 74.55 42.38"
/>
</g>
<path fill="#fef5f9" d="
  M 39.83 0.00
  Q 41.17 16.05 39.68 32.14
  Q 36.40 28.26 32.88 24.63
  L 32.87 24.63
  A 0.02 0.02 0.0 0 0 32.85 24.66
  L 53.13 50.04
  A 0.88 0.88 0.0 0 1 52.88 51.35
  L 51.97 51.88
  A 1.25 1.24 -34.0 0 1 50.38 51.58
  L 38.40 36.48
  A 0.17 0.17 0.0 0 0 38.22 36.42
  L 38.21 36.42
  A 0.23 0.22 55.5 0 0 38.16 36.71
  L 46.28 51.25
  A 1.54 1.53 49.4 0 1 46.15 52.96
  C 44.84 54.65 44.29 56.17 43.92 58.70
  C 43.31 62.86 41.89 64.97 39.10 68.46
  C 34.14 74.68 36.09 79.19 40.22 84.95
  A 0.70 0.69 62.6 0 0 41.00 85.20
  L 43.43 84.37
  Q 45.57 93.41 47.80 102.19
  C 50.18 111.58 50.65 119.14 46.51 128.00
  L 30.13 128.00
  Q 21.62 95.53 13.03 63.12
  C 8.89 47.50 6.33 33.20 4.08 20.38
  Q 3.77 18.61 3.04 17.33
  A 0.49 0.49 0.0 0 0 2.13 17.48
  Q 1.13 22.97 0.97 31.17
  Q 0.43 59.70 0.00 88.26
  L 0.00 0.00
  L 39.83 0.00
  Z"
/>
<path fill="#feedf4" d="
  M 60.95 0.00
  C 62.58 15.33 65.49 29.83 74.55 42.38
  Q 69.94 41.39 66.16 42.29
  A 1.45 1.45 0.0 0 1 64.72 41.83
  Q 59.69 36.05 54.38 35.56
  A 0.19 0.18 6.8 0 0 54.18 35.71
  L 54.17 35.72
  A 0.24 0.23 -78.2 0 0 54.34 35.99
  C 59.78 37.44 63.04 41.38 66.05 45.73
  C 69.89 51.28 73.97 52.43 80.48 52.69
  C 83.36 52.81 87.49 53.19 88.77 56.23
  Q 88.88 57.37 88.46 58.25
  Q 83.86 55.67 80.75 55.62
  Q 75.01 55.52 70.31 52.70
  A 0.32 0.32 0.0 0 0 69.83 52.99
  Q 70.33 59.33 76.27 61.94
  Q 82.14 64.52 87.93 67.31
  Q 90.71 68.65 91.89 73.01
  Q 92.90 77.33 95.19 83.14
  Q 100.02 95.44 110.85 100.91
  C 120.24 105.66 124.26 98.19 127.06 90.72
  A 0.11 0.11 0.0 0 1 127.22 90.66
  Q 127.34 90.73 127.48 90.75
  A 0.14 0.14 0.0 0 0 127.63 90.61
  Q 127.56 68.00 127.65 49.85
  C 127.65 48.29 127.21 46.94 127.52 45.32
  A 2.22 1.91 54.8 0 0 127.56 44.91
  L 127.56 0.88
  A 0.46 0.43 24.9 0 0 127.44 0.58
  Q 126.89 0.01 125.91 0.33
  L 125.63 0.00
  L 128.00 0.00
  L 128.00 128.00
  L 46.51 128.00
  C 50.65 119.14 50.18 111.58 47.80 102.19
  Q 45.57 93.41 43.43 84.37
  C 46.18 83.67 49.54 81.95 50.11 78.93
  C 51.10 73.76 40.68 73.91 44.51 66.10
  Q 46.63 61.79 46.80 57.32
  A 2.34 2.33 84.2 0 1 48.57 55.14
  C 51.60 54.38 54.96 54.27 55.30 50.58
  A 2.11 2.07 -63.8 0 0 54.78 49.00
  L 39.68 32.14
  Q 41.17 16.05 39.83 0.00
  L 60.95 0.00
  Z
  M 60.29 49.19
  L 58.83 46.67
  A 3.31 3.24 27.9 0 1 58.42 45.39
  C 58.03 41.72 56.94 38.27 53.22 37.78
  A 0.50 0.49 -84.0 0 0 52.66 38.24
  C 52.37 42.67 54.74 48.98 59.69 50.01
  A 0.56 0.56 0.0 0 0 60.29 49.19
  Z
  M 60.6908 57.4822
  A 3.18 2.47 -13.6 0 0 57.0192 55.8293
  A 3.18 2.47 -13.6 0 0 54.5092 58.9778
  A 3.18 2.47 -13.6 0 0 58.1808 60.6307
  A 3.18 2.47 -13.6 0 0 60.6908 57.4822
  Z
  M 59.74 76.36
  Q 60.60 75.79 68.19 75.22
  Q 72.38 74.90 75.28 71.48
  A 2.25 2.24 71.4 0 0 75.74 70.55
  Q 76.32 67.95 75.56 64.65
  A 0.32 0.31 78.3 0 0 75.20 64.41
  L 75.18 64.42
  A 0.25 0.25 0.0 0 0 74.97 64.71
  Q 76.06 71.30 69.80 73.51
  A 1.87 1.76 30.8 0 1 69.30 73.62
  Q 64.65 74.13 62.10 74.93
  Q 59.80 75.64 59.53 76.17
  A 0.15 0.15 0.0 0 0 59.74 76.36
  Z
  M 84.72 89.32
  Q 91.29 85.31 90.66 77.23
  C 90.15 70.86 84.20 68.21 78.59 65.41
  A 0.51 0.51 0.0 0 0 77.87 65.74
  C 76.12 72.79 84.95 77.80 85.40 84.95
  Q 85.55 87.36 84.41 88.99
  A 0.23 0.23 0.0 0 0 84.72 89.32
  Z
  M 77.70 93.84
  C 71.78 94.88 71.06 91.47 70.52 86.47
  C 70.01 81.74 65.91 78.98 61.27 79.16
  Q 54.57 79.42 49.39 83.97
  A 0.47 0.46 -56.0 0 0 49.54 84.76
  Q 49.70 84.82 50.89 84.59
  A 1.32 1.31 54.5 0 1 51.76 84.74
  L 55.50 86.90
  A 1.00 0.94 87.3 0 1 55.80 87.19
  Q 57.47 89.65 60.39 90.85
  A 2.20 2.14 -35.1 0 0 61.33 91.00
  Q 65.45 90.72 64.67 86.31
  A 0.21 0.20 78.2 0 0 64.42 86.14
  L 64.41 86.14
  A 0.30 0.30 0.0 0 0 64.19 86.52
  Q 64.83 88.38 63.66 89.29
  C 61.62 90.88 59.91 89.62 58.76 87.73
  C 57.36 85.43 60.18 83.21 62.23 83.34
  Q 64.40 83.47 66.80 85.88
  A 2.81 2.73 -80.4 0 1 67.37 86.71
  C 69.54 91.74 71.78 97.50 77.83 94.21
  A 0.20 0.20 0.0 0 0 77.70 93.84
  Z"
/>
<path fill="#fee5f0" d="
  M 85.65 0.00
  C 88.01 19.69 93.48 39.57 109.74 52.51
  C 120.59 61.14 124.59 54.30 127.35 44.12
  A 0.87 0.78 -41.8 0 0 127.37 43.94
  L 127.37 1.90
  A 1.01 1.00 -72.4 0 0 126.95 1.08
  L 125.91 0.33
  Q 126.89 0.01 127.44 0.58
  A 0.46 0.43 24.9 0 1 127.56 0.88
  L 127.56 44.91
  A 2.22 1.91 54.8 0 1 127.52 45.32
  C 127.21 46.94 127.65 48.29 127.65 49.85
  Q 127.56 68.00 127.63 90.61
  A 0.14 0.14 0.0 0 1 127.48 90.75
  Q 127.34 90.73 127.22 90.66
  A 0.11 0.11 0.0 0 0 127.06 90.72
  C 124.26 98.19 120.24 105.66 110.85 100.91
  Q 100.02 95.44 95.19 83.14
  Q 92.90 77.33 91.89 73.01
  Q 95.78 64.72 88.46 58.25
  Q 88.88 57.37 88.77 56.23
  Q 89.12 55.30 88.70 54.30
  Q 84.72 44.77 74.55 42.38
  C 65.49 29.83 62.58 15.33 60.95 0.00
  L 85.65 0.00
  Z"
/>
<path fill="#ffdeec" d="
  M 125.63 0.00
  L 125.91 0.33
  L 126.95 1.08
  A 1.01 1.00 -72.4 0 1 127.37 1.90
  L 127.37 43.94
  A 0.87 0.78 -41.8 0 1 127.35 44.12
  C 124.59 54.30 120.59 61.14 109.74 52.51
  C 93.48 39.57 88.01 19.69 85.65 0.00
  L 125.63 0.00
  Z"
/>
<path fill="#fdfcfd" d="
  M 30.13 128.00
  L 0.00 128.00
  L 0.00 88.26
  Q 0.43 59.70 0.97 31.17
  Q 1.13 22.97 2.13 17.48
  A 0.49 0.49 0.0 0 1 3.04 17.33
  Q 3.77 18.61 4.08 20.38
  C 6.33 33.20 8.89 47.50 13.03 63.12
  Q 21.62 95.53 30.13 128.00
  Z"
/>
<path fill="#ff0876" d="
  M 39.68 32.14
  L 54.78 49.00
  A 2.11 2.07 -63.8 0 1 55.30 50.58
  C 54.96 54.27 51.60 54.38 48.57 55.14
  A 2.34 2.33 84.2 0 0 46.80 57.32
  Q 46.63 61.79 44.51 66.10
  C 40.68 73.91 51.10 73.76 50.11 78.93
  C 49.54 81.95 46.18 83.67 43.43 84.37
  L 41.00 85.20
  A 0.70 0.69 62.6 0 1 40.22 84.95
  C 36.09 79.19 34.14 74.68 39.10 68.46
  C 41.89 64.97 43.31 62.86 43.92 58.70
  C 44.29 56.17 44.84 54.65 46.15 52.96
  A 1.54 1.53 49.4 0 0 46.28 51.25
  L 38.16 36.71
  A 0.23 0.22 55.5 0 1 38.21 36.42
  L 38.22 36.42
  A 0.17 0.17 0.0 0 1 38.40 36.48
  L 50.38 51.58
  A 1.25 1.24 -34.0 0 0 51.97 51.88
  L 52.88 51.35
  A 0.88 0.88 0.0 0 0 53.13 50.04
  L 32.85 24.66
  A 0.02 0.02 0.0 0 1 32.87 24.63
  L 32.88 24.63
  Q 36.40 28.26 39.68 32.14
  Z"
/>
<path fill="#ff0876" d="
  M 74.55 42.38
  Q 84.72 44.77 88.70 54.30
  Q 89.12 55.30 88.77 56.23
  C 87.49 53.19 83.36 52.81 80.48 52.69
  C 73.97 52.43 69.89 51.28 66.05 45.73
  C 63.04 41.38 59.78 37.44 54.34 35.99
  A 0.24 0.23 -78.2 0 1 54.17 35.72
  L 54.18 35.71
  A 0.19 0.18 6.8 0 1 54.38 35.56
  Q 59.69 36.05 64.72 41.83
  A 1.45 1.45 0.0 0 0 66.16 42.29
  Q 69.94 41.39 74.55 42.38
  Z"
/>
<path fill="#ff0876" d="
  M 60.29 49.19
  A 0.56 0.56 0.0 0 1 59.69 50.01
  C 54.74 48.98 52.37 42.67 52.66 38.24
  A 0.50 0.49 -84.0 0 1 53.22 37.78
  C 56.94 38.27 58.03 41.72 58.42 45.39
  A 3.31 3.24 27.9 0 0 58.83 46.67
  L 60.29 49.19
  Z"
/>
<path fill="#ff0876" d="
  M 88.46 58.25
  Q 95.78 64.72 91.89 73.01
  Q 90.71 68.65 87.93 67.31
  Q 82.14 64.52 76.27 61.94
  Q 70.33 59.33 69.83 52.99
  A 0.32 0.32 0.0 0 1 70.31 52.70
  Q 75.01 55.52 80.75 55.62
  Q 83.86 55.67 88.46 58.25
  Z"
/>
<ellipse fill="#ff0876" cx="0.00" cy="0.00" transform="translate(57.60,58.23) rotate(-13.6)" rx="3.18" ry="2.47"/>
<path fill="#ff0876" d="
  M 59.53 76.17
  Q 59.80 75.64 62.10 74.93
  Q 64.65 74.13 69.30 73.62
  A 1.87 1.76 30.8 0 0 69.80 73.51
  Q 76.06 71.30 74.97 64.71
  A 0.25 0.25 0.0 0 1 75.18 64.42
  L 75.20 64.41
  A 0.32 0.31 78.3 0 1 75.56 64.65
  Q 76.32 67.95 75.74 70.55
  A 2.25 2.24 71.4 0 1 75.28 71.48
  Q 72.38 74.90 68.19 75.22
  Q 60.60 75.79 59.74 76.36
  A 0.15 0.15 0.0 0 1 59.53 76.17
  Z"
/>
<path fill="#ff0876" d="
  M 84.72 89.32
  A 0.23 0.23 0.0 0 1 84.41 88.99
  Q 85.55 87.36 85.40 84.95
  C 84.95 77.80 76.12 72.79 77.87 65.74
  A 0.51 0.51 0.0 0 1 78.59 65.41
  C 84.20 68.21 90.15 70.86 90.66 77.23
  Q 91.29 85.31 84.72 89.32
  Z"
/>
<path fill="#ff0876" d="
  M 77.83 94.21
  C 71.78 97.50 69.54 91.74 67.37 86.71
  A 2.81 2.73 -80.4 0 0 66.80 85.88
  Q 64.40 83.47 62.23 83.34
  C 60.18 83.21 57.36 85.43 58.76 87.73
  C 59.91 89.62 61.62 90.88 63.66 89.29
  Q 64.83 88.38 64.19 86.52
  A 0.30 0.30 0.0 0 1 64.41 86.14
  L 64.42 86.14
  A 0.21 0.20 78.2 0 1 64.67 86.31
  Q 65.45 90.72 61.33 91.00
  A 2.20 2.14 -35.1 0 1 60.39 90.85
  Q 57.47 89.65 55.80 87.19
  A 1.00 0.94 87.3 0 0 55.50 86.90
  L 51.76 84.74
  A 1.32 1.31 54.5 0 0 50.89 84.59
  Q 49.70 84.82 49.54 84.76
  A 0.47 0.46 -56.0 0 1 49.39 83.97
  Q 54.57 79.42 61.27 79.16
  C 65.91 78.98 70.01 81.74 70.52 86.47
  C 71.06 91.47 71.78 94.88 77.70 93.84
  A 0.20 0.20 0.0 0 1 77.83 94.21
  Z"
/>
</svg>