<?xml version="1.0" encoding="UTF-8" standalone="no"?>
<!DOCTYPE svg PUBLIC "-//W3C//DTD SVG 1.1//EN" "http://www.w3.org/Graphics/SVG/1.1/DTD/svg11.dtd">
<svg xmlns="http://www.w3.org/2000/svg" version="1.1" viewBox="0.00 0.00 192.00 192.00" width="128" height="128">
<g stroke-width="2.00" fill="none" stroke-linecap="butt">
<path stroke="#888889" vector-effect="non-scaling-stroke" d="
  M 117.71 23.24
  Q 108.12 21.62 100.41 23.13
  A 0.76 0.76 0.0 0 1 99.61 22.76
  Q 99.05 21.74 98.80 21.17
  C 96.11 14.78 84.07 15.02 77.99 15.46
  Q 63.59 16.53 53.51 16.61
  Q 47.67 16.65 42.86 14.66
  A 0.31 0.31 0.0 0 0 42.43 14.97
  C 43.34 27.54 50.91 38.29 58.80 47.82
  A 2.50 2.49 -59.2 0 1 59.32 49.89
  Q 57.10 61.08 56.57 73.76
  Q 56.38 78.41 51.53 78.07
  Q 47.98 77.83 40.70 77.55
  A 1.24 1.22 -15.7 0 1 39.71 77.00
  C 34.08 68.34 13.07 64.26 8.57 75.74
  C 5.92 82.48 10.39 95.81 14.14 102.34
  C 15.06 103.93 17.70 106.58 17.94 108.33
  C 22.19 139.15 44.16 157.81 75.90 152.35
  A 0.91 0.90 74.4 0 1 76.89 152.91
  Q 80.08 161.19 83.84 174.35
  C 85.58 180.45 89.61 183.16 96.18 183.46
  Q 110.67 184.13 123.28 177.82
  C 138.25 170.32 153.41 158.65 161.02 143.55
  C 162.71 140.19 164.27 135.23 164.39 131.87
  Q 165.02 113.56 166.04 95.50
  Q 166.61 85.49 165.68 76.19
  A 2.06 2.04 66.3 0 1 166.34 74.47
  Q 173.89 67.51 178.08 57.81
  C 181.01 51.02 183.34 44.63 184.14 38.67
  C 185.27 30.26 178.58 22.85 171.34 19.68
  Q 164.93 16.88 159.72 16.21
  C 143.81 14.16 132.01 13.41 119.58 8.62
  A 0.64 0.64 0.0 0 0 118.74 9.04
  Q 116.88 15.70 118.28 22.66
  A 0.50 0.49 -0.8 0 1 117.71 23.24"
/>
<path stroke="#876328" vector-effect="non-scaling-stroke" d="
  M 70.60 46.23
  Q 74.48 43.98 78.82 43.66
  A 1.68 1.68 0.0 0 1 80.60 45.06
  L 80.64 45.25
  A 1.59 1.58 82.3 0 1 79.24 47.09
  Q 73.19 47.70 68.81 51.52
  C 66.61 53.44 66.20 54.90 65.75 57.76
  Q 64.96 62.81 64.45 71.85
  Q 64.11 77.67 62.63 80.42
  C 60.34 84.68 56.30 86.74 51.45 86.57
  C 46.32 86.38 39.91 84.80 38.09 91.40
  Q 36.20 98.24 33.58 103.30
  Q 32.54 105.32 28.83 109.16
  A 2.75 2.67 84.0 0 0 28.43 109.67
  C 25.91 113.73 27.67 117.18 29.33 121.27
  C 33.46 131.44 42.50 140.42 52.82 143.18
  Q 66.56 146.85 80.19 142.48
  A 0.69 0.69 0.0 0 1 81.02 142.84
  Q 86.82 155.11 89.71 168.05
  C 91.32 175.28 94.26 175.43 101.38 175.03
  Q 109.95 174.55 116.82 171.58
  C 130.77 165.56 146.16 155.05 153.69 141.13
  C 155.19 138.35 156.58 133.99 156.65 131.33
  Q 157.10 115.19 158.19 98.26
  Q 158.76 89.41 158.35 81.51
  C 157.25 60.08 137.18 48.64 124.50 33.86
  A 4.70 4.67 -14.4 0 0 121.86 32.31
  Q 101.19 28.24 81.72 36.50
  Q 74.68 39.48 70.21 45.81
  A 0.29 0.29 0.0 0 0 70.60 46.23"
/>
<path stroke="#888889" vector-effect="non-scaling-stroke" d="
  M 20.5318 71.8229
  A 4.11 3.84 -48.9 0 0 14.9363 72.3957
  A 4.11 3.84 -48.9 0 0 15.1282 78.0171
  A 4.11 3.84 -48.9 0 0 20.7237 77.4443
  A 4.11 3.84 -48.9 0 0 20.5318 71.8229"
/>
<path stroke="#feda9e" vector-effect="non-scaling-stroke" d="
  M 105.59 97.22
  Q 116.19 98.52 126.11 92.91
  C 136.21 87.19 138.79 75.74 136.04 64.72
  Q 133.42 54.21 126.24 43.96
  C 120.88 36.31 108.59 38.51 101.60 42.11
  C 90.89 47.63 83.64 56.85 82.18 68.94
  C 80.18 85.38 89.89 95.29 105.59 97.22"
/>
<path stroke="#feda9e" vector-effect="non-scaling-stroke" d="
  M 77.45 77.61
  A 9.58 5.92 -77.7 0 0 78.80 71.36"
/>
<path stroke="#876328" vector-effect="non-scaling-stroke" d="
  M 78.80 71.36
  A 9.58 5.95 -78.0 0 0 77.71 66.52
  A 9.53 5.92 -77.9 0 0 72.05 64.32
  A 9.50 5.94 -78.1 0 0 68.42 67.95
  A 9.53 5.92 -78.0 0 0 67.47 79.75
  A 9.54 5.92 -78.0 0 0 71.75 82.70
  A 9.53 5.94 -78.1 0 0 77.45 77.61"
/>
<path stroke="#888889" vector-effect="non-scaling-stroke" d="
  M 78.80 71.36
  C 74.86 68.15 70.70 73.04 73.69 76.80
  Q 74.87 78.29 77.45 77.61"
/>
<path stroke="#876328" vector-effect="non-scaling-stroke" d="
  M 51.9005 98.3685
  A 4.11 3.86 -45.7 0 0 46.2674 98.6141
  A 4.11 3.86 -45.7 0 0 46.1595 104.2515
  A 4.11 3.86 -45.7 0 0 51.7926 104.0059
  A 4.11 3.86 -45.7 0 0 51.9005 98.3685"
/>
<path stroke="#876328" vector-effect="non-scaling-stroke" d="
  M 60.3169 105.1949
  A 2.86 2.63 -47.1 0 0 56.4434 105.4997
  A 2.86 2.63 -47.1 0 0 56.4231 109.3851
  A 2.86 2.63 -47.1 0 0 60.2966 109.0803
  A 2.86 2.63 -47.1 0 0 60.3169 105.1949"
/>
<path stroke="#876328" vector-effect="non-scaling-stroke" d="
  M 50.8081 108.7927
  A 2.85 2.64 -51.4 0 0 46.9668 109.3730
  A 2.85 2.64 -51.4 0 0 47.2519 113.2473
  A 2.85 2.64 -51.4 0 0 51.0932 112.6670
  A 2.85 2.64 -51.4 0 0 50.8081 108.7927"
/>
<path stroke="#876328" vector-effect="non-scaling-stroke" d="
  M 117.16 117.23
  C 119.01 113.96 117.32 109.08 113.16 110.05
  Q 111.95 110.33 109.88 113.59
  Q 105.37 120.69 96.22 123.73
  Q 88.78 126.20 84.75 126.58
  A 3.97 3.96 -4.8 0 0 81.16 130.82
  L 81.20 131.32
  A 4.13 4.13 0.0 0 0 85.87 135.11
  C 98.15 133.45 110.84 128.37 117.16 117.23"
/>
<path stroke="#888889" vector-effect="non-scaling-stroke" d="
  M 108.59 49.71
  Q 116.84 49.11 122.34 56.42
  Q 122.75 56.96 125.17 61.19
  A 1.32 1.31 -33.3 0 0 127.11 61.59
  L 127.16 61.55
  A 1.92 1.92 0.0 0 0 127.78 59.27
  C 124.59 51.56 117.59 45.52 108.91 46.30
  A 2.01 2.01 0.0 0 0 107.09 48.10
  L 107.09 48.16
  A 1.41 1.41 0.0 0 0 108.59 49.71"
/>
<path stroke="#888889" vector-effect="non-scaling-stroke" d="
  M 115.74 79.44
  C 108.83 80.78 109.12 68.14 116.51 70.70
  A 0.42 0.42 0.0 0 0 117.07 70.26
  C 116.64 65.99 113.26 59.90 107.93 62.48
  C 101.28 65.69 100.60 76.90 102.43 82.88
  C 104.04 88.13 109.53 89.82 113.20 85.30
  Q 115.27 82.75 116.24 80.02
  A 0.44 0.44 0.0 0 0 115.74 79.44"
/>
</g>
<path fill="#ffffff" d="
  M 120.22 0.00
  Q 131.87 4.26 144.28 5.57
  Q 154.21 6.63 164.00 8.44
  C 177.77 10.98 189.39 19.63 192.00 33.92
  L 192.00 39.70
  C 189.43 52.90 183.88 68.14 174.38 77.99
  A 2.25 2.24 65.8 0 0 173.75 79.67
  C 174.59 95.62 172.53 114.53 172.35 126.95
  Q 172.23 134.68 171.01 138.98
  C 164.96 160.30 145.17 176.38 126.03 185.79
  Q 115.54 190.95 103.72 192.00
  L 94.91 192.00
  C 83.55 191.08 78.54 184.58 75.55 174.08
  Q 73.87 168.17 71.94 162.08
  A 0.73 0.72 79.8 0 0 71.23 161.58
  Q 65.73 161.78 60.99 161.56
  Q 39.74 160.55 25.26 144.44
  C 17.16 135.43 13.08 124.64 10.68 112.71
  A 7.84 7.55 26.0 0 0 9.88 110.52
  C 8.64 108.26 6.68 105.59 5.48 102.88
  Q 1.47 93.76 0.00 83.74
  L 0.00 77.64
  C 3.16 56.11 29.00 57.00 42.08 67.50
  C 44.68 69.59 45.66 69.63 48.56 69.33
  A 0.45 0.45 0.0 0 0 48.96 68.93
  L 50.88 51.44
  A 1.61 1.58 -61.8 0 0 50.54 50.27
  C 42.70 40.53 36.68 30.50 34.84 17.89
  Q 34.00 12.08 35.79 9.45
  C 38.29 5.78 41.35 5.06 45.68 6.67
  Q 51.65 8.88 60.30 8.12
  Q 75.40 6.78 86.75 6.98
  Q 97.04 7.17 103.75 13.63
  A 1.62 1.62 0.0 0 0 104.92 14.08
  L 108.93 13.99
  A 1.21 1.21 0.0 0 0 110.11 12.81
  Q 110.33 3.36 116.96 0.00
  L 120.22 0.00
  Z
  M 117.71 23.24
  Q 108.12 21.62 100.41 23.13
  A 0.76 0.76 0.0 0 1 99.61 22.76
  Q 99.05 21.74 98.80 21.17
  C 96.11 14.78 84.07 15.02 77.99 15.46
  Q 63.59 16.53 53.51 16.61
  Q 47.67 16.65 42.86 14.66
  A 0.31 0.31 0.0 0 0 42.43 14.97
  C 43.34 27.54 50.91 38.29 58.80 47.82
  A 2.50 2.49 -59.2 0 1 59.32 49.89
  Q 57.10 61.08 56.57 73.76
  Q 56.38 78.41 51.53 78.07
  Q 47.98 77.83 40.70 77.55
  A 1.24 1.22 -15.7 0 1 39.71 77.00
  C 34.08 68.34 13.07 64.26 8.57 75.74
  C 5.92 82.48 10.39 95.81 14.14 102.34
  C 15.06 103.93 17.70 106.58 17.94 108.33
  C 22.19 139.15 44.16 157.81 75.90 152.35
  A 0.91 0.90 74.4 0 1 76.89 152.91
  Q 80.08 161.19 83.84 174.35
  C 85.58 180.45 89.61 183.16 96.18 183.46
  Q 110.67 184.13 123.28 177.82
  C 138.25 170.32 153.41 158.65 161.02 143.55
  C 162.71 140.19 164.27 135.23 164.39 131.87
  Q 165.02 113.56 166.04 95.50
  Q 166.61 85.49 165.68 76.19
  A 2.06 2.04 66.3 0 1 166.34 74.47
  Q 173.89 67.51 178.08 57.81
  C 181.01 51.02 183.34 44.63 184.14 38.67
  C 185.27 30.26 178.58 22.85 171.34 19.68
  Q 164.93 16.88 159.72 16.21
  C 143.81 14.16 132.01 13.41 119.58 8.62
  A 0.64 0.64 0.0 0 0 118.74 9.04
  Q 116.88 15.70 118.28 22.66
  A 0.50 0.49 -0.8 0 1 117.71 23.24
  Z"
/>
<path fill="#111112" d="
  M 117.71 23.24
  A 0.50 0.49 -0.8 0 0 118.28 22.66
  Q 116.88 15.70 118.74 9.04
  A 0.64 0.64 0.0 0 1 119.58 8.62
  C 132.01 13.41 143.81 14.16 159.72 16.21
  Q 164.93 16.88 171.34 19.68
  C 178.58 22.85 185.27 30.26 184.14 38.67
  C 183.34 44.63 181.01 51.02 178.08 57.81
  Q 173.89 67.51 166.34 74.47
  A 2.06 2.04 66.3 0 0 165.68 76.19
  Q 166.61 85.49 166.04 95.50
  Q 165.02 113.56 164.39 131.87
  C 164.27 135.23 162.71 140.19 161.02 143.55
  C 153.41 158.65 138.25 170.32 123.28 177.82
  Q 110.67 184.13 96.18 183.46
  C 89.61 183.16 85.58 180.45 83.84 174.35
  Q 80.08 161.19 76.89 152.91
  A 0.91 0.90 74.4 0 0 75.90 152.35
  C 44.16 157.81 22.19 139.15 17.94 108.33
  C 17.70 106.58 15.06 103.93 14.14 102.34
  C 10.39 95.81 5.92 82.48 8.57 75.74
  C 13.07 64.26 34.08 68.34 39.71 77.00
  A 1.24 1.22 -15.7 0 0 40.70 77.55
  Q 47.98 77.83 51.53 78.07
  Q 56.38 78.41 56.57 73.76
  Q 57.10 61.08 59.32 49.89
  A 2.50 2.49 -59.2 0 0 58.80 47.82
  C 50.91 38.29 43.34 27.54 42.43 14.97
  A 0.31 0.31 0.0 0 1 42.86 14.66
  Q 47.67 16.65 53.51 16.61
  Q 63.59 16.53 77.99 15.46
  C 84.07 15.02 96.11 14.78 98.80 21.17
  Q 99.05 21.74 99.61 22.76
  A 0.76 0.76 0.0 0 0 100.41 23.13
  Q 108.12 21.62 117.71 23.24
  Z
  M 70.60 46.23
  Q 74.48 43.98 78.82 43.66
  A 1.68 1.68 0.0 0 1 80.60 45.06
  L 80.64 45.25
  A 1.59 1.58 82.3 0 1 79.24 47.09
  Q 73.19 47.70 68.81 51.52
  C 66.61 53.44 66.20 54.90 65.75 57.76
  Q 64.96 62.81 64.45 71.85
  Q 64.11 77.67 62.63 80.42
  C 60.34 84.68 56.30 86.74 51.45 86.57
  C 46.32 86.38 39.91 84.80 38.09 91.40
  Q 36.20 98.24 33.58 103.30
  Q 32.54 105.32 28.83 109.16
  A 2.75 2.67 84.0 0 0 28.43 109.67
  C 25.91 113.73 27.67 117.18 29.33 121.27
  C 33.46 131.44 42.50 140.42 52.82 143.18
  Q 66.56 146.85 80.19 142.48
  A 0.69 0.69 0.0 0 1 81.02 142.84
  Q 86.82 155.11 89.71 168.05
  C 91.32 175.28 94.26 175.43 101.38 175.03
  Q 109.95 174.55 116.82 171.58
  C 130.77 165.56 146.16 155.05 153.69 141.13
  C 155.19 138.35 156.58 133.99 156.65 131.33
  Q 157.10 115.19 158.19 98.26
  Q 158.76 89.41 158.35 81.51
  C 157.25 60.08 137.18 48.64 124.50 33.86
  A 4.70 4.67 -14.4 0 0 121.86 32.31
  Q 101.19 28.24 81.72 36.50
  Q 74.68 39.48 70.21 45.81
  A 0.29 0.29 0.0 0 0 70.60 46.23
  Z
  M 20.5318 71.8229
  A 4.11 3.84 -48.9 0 0 14.9363 72.3957
  A 4.11 3.84 -48.9 0 0 15.1282 78.0171
  A 4.11 3.84 -48.9 0 0 20.7237 77.4443
  A 4.11 3.84 -48.9 0 0 20.5318 71.8229
  Z"
/>
<path fill="#fcb43d" d="
  M 70.60 46.23
  A 0.29 0.29 0.0 0 1 70.21 45.81
  Q 74.68 39.48 81.72 36.50
  Q 101.19 28.24 121.86 32.31
  A 4.70 4.67 -14.4 0 1 124.50 33.86
  C 137.18 48.64 157.25 60.08 158.35 81.51
  Q 158.76 89.41 158.19 98.26
  Q 157.10 115.19 156.65 131.33
  C 156.58 133.99 155.19 138.35 153.69 141.13
  C 146.16 155.05 130.77 165.56 116.82 171.58
  Q 109.95 174.55 101.38 175.03
  C 94.26 175.43 91.32 175.28 89.71 168.05
  Q 86.82 155.11 81.02 142.84
  A 0.69 0.69 0.0 0 0 80.19 142.48
  Q 66.56 146.85 52.82 143.18
  C 42.50 140.42 33.46 131.44 29.33 121.27
  C 27.67 117.18 25.91 113.73 28.43 109.67
  A 2.75 2.67 84.0 0 1 28.83 109.16
  Q 32.54 105.32 33.58 103.30
  Q 36.20 98.24 38.09 91.40
  C 39.91 84.80 46.32 86.38 51.45 86.57
  C 56.30 86.74 60.34 84.68 62.63 80.42
  Q 64.11 77.67 64.45 71.85
  Q 64.96 62.81 65.75 57.76
  C 66.20 54.90 66.61 53.44 68.81 51.52
  Q 73.19 47.70 79.24 47.09
  A 1.59 1.58 82.3 0 0 80.64 45.25
  L 80.60 45.06
  A 1.68 1.68 0.0 0 0 78.82 43.66
  Q 74.48 43.98 70.60 46.23
  Z
  M 105.59 97.22
  Q 116.19 98.52 126.11 92.91
  C 136.21 87.19 138.79 75.74 136.04 64.72
  Q 133.42 54.21 126.24 43.96
  C 120.88 36.31 108.59 38.51 101.60 42.11
  C 90.89 47.63 83.64 56.85 82.18 68.94
  C 80.18 85.38 89.89 95.29 105.59 97.22
  Z
  M 77.45 77.61
  A 9.58 5.92 -77.7 0 0 78.80 71.36
  A 9.58 5.95 -78.0 0 0 77.71 66.52
  A 9.53 5.92 -77.9 0 0 72.05 64.32
  A 9.50 5.94 -78.1 0 0 68.42 67.95
  A 9.53 5.92 -78.0 0 0 67.47 79.75
  A 9.54 5.92 -78.0 0 0 71.75 82.70
  A 9.53 5.94 -78.1 0 0 77.45 77.61
  Z
  M 51.9005 98.3685
  A 4.11 3.86 -45.7 0 0 46.2674 98.6141
  A 4.11 3.86 -45.7 0 0 46.1595 104.2515
  A 4.11 3.86 -45.7 0 0 51.7926 104.0059
  A 4.11 3.86 -45.7 0 0 51.9005 98.3685
  Z
  M 60.3169 105.1949
  A 2.86 2.63 -47.1 0 0 56.4434 105.4997
  A 2.86 2.63 -47.1 0 0 56.4231 109.3851
  A 2.86 2.63 -47.1 0 0 60.2966 109.0803
  A 2.86 2.63 -47.1 0 0 60.3169 105.1949
  Z
  M 50.8081 108.7927
  A 2.85 2.64 -51.4 0 0 46.9668 109.3730
  A 2.85 2.64 -51.4 0 0 47.2519 113.2473
  A 2.85 2.64 -51.4 0 0 51.0932 112.6670
  A 2.85 2.64 -51.4 0 0 50.8081 108.7927
  Z
  M 117.16 117.23
  C 119.01 113.96 117.32 109.08 113.16 110.05
  Q 111.95 110.33 109.88 113.59
  Q 105.37 120.69 96.22 123.73
  Q 88.78 126.20 84.75 126.58
  A 3.97 3.96 -4.8 0 0 81.16 130.82
  L 81.20 131.32
  A 4.13 4.13 0.0 0 0 85.87 135.11
  C 98.15 133.45 110.84 128.37 117.16 117.23
  Z"
/>
<path fill="#ffffff" d="
  M 105.59 97.22
  C 89.89 95.29 80.18 85.38 82.18 68.94
  C 83.64 56.85 90.89 47.63 101.60 42.11
  C 108.59 38.51 120.88 36.31 126.24 43.96
  Q 133.42 54.21 136.04 64.72
  C 138.79 75.74 136.21 87.19 126.11 92.91
  Q 116.19 98.52 105.59 97.22
  Z
  M 108.59 49.71
  Q 116.84 49.11 122.34 56.42
  Q 122.75 56.96 125.17 61.19
  A 1.32 1.31 -33.3 0 0 127.11 61.59
  L 127.16 61.55
  A 1.92 1.92 0.0 0 0 127.78 59.27
  C 124.59 51.56 117.59 45.52 108.91 46.30
  A 2.01 2.01 0.0 0 0 107.09 48.10
  L 107.09 48.16
  A 1.41 1.41 0.0 0 0 108.59 49.71
  Z
  M 115.74 79.44
  C 108.83 80.78 109.12 68.14 116.51 70.70
  A 0.42 0.42 0.0 0 0 117.07 70.26
  C 116.64 65.99 113.26 59.90 107.93 62.48
  C 101.28 65.69 100.60 76.90 102.43 82.88
  C 104.04 88.13 109.53 89.82 113.20 85.30
  Q 115.27 82.75 116.24 80.02
  A 0.44 0.44 0.0 0 0 115.74 79.44
  Z"
/>
<path fill="#111112" d="
  M 108.59 49.71
  A 1.41 1.41 0.0 0 1 107.09 48.16
  L 107.09 48.10
  A 2.01 2.01 0.0 0 1 108.91 46.30
  C 117.59 45.52 124.59 51.56 127.78 59.27
  A 1.92 1.92 0.0 0 1 127.16 61.55
  L 127.11 61.59
  A 1.32 1.31 -33.3 0 1 125.17 61.19
  Q 122.75 56.96 122.34 56.42
  Q 116.84 49.11 108.59 49.71
  Z"
/>
<path fill="#111112" d="
  M 116.24 80.02
  Q 115.27 82.75 113.20 85.30
  C 109.53 89.82 104.04 88.13 102.43 82.88
  C 100.60 76.90 101.28 65.69 107.93 62.48
  C 113.26 59.90 116.64 65.99 117.07 70.26
  A 0.42 0.42 0.0 0 1 116.51 70.70
  C 109.12 68.14 108.83 80.78 115.74 79.44
  A 0.44 0.44 0.0 0 1 116.24 80.02
  Z"
/>
<path fill="#111112" d="
  M 78.80 71.36
  C 74.86 68.15 70.70 73.04 73.69 76.80
  Q 74.87 78.29 77.45 77.61
  A 9.53 5.94 -78.1 0 1 71.75 82.70
  A 9.54 5.92 -78.0 0 1 67.47 79.75
  A 9.53 5.92 -78.0 0 1 68.42 67.95
  A 9.50 5.94 -78.1 0 1 72.05 64.32
  A 9.53 5.92 -77.9 0 1 77.71 66.52
  A 9.58 5.95 -78.0 0 1 78.80 71.36
  Z"
/>
<path fill="#ffffff" d="
  M 78.80 71.36
  A 9.58 5.92 -77.7 0 1 77.45 77.61
  Q 74.87 78.29 73.69 76.80
  C 70.70 73.04 74.86 68.15 78.80 71.36
  Z"
/>
<ellipse fill="#ffffff" cx="0.00" cy="0.00" transform="translate(17.83,74.92) rotate(-48.9)" rx="4.11" ry="3.84"/>
<ellipse fill="#111112" cx="0.00" cy="0.00" transform="translate(49.03,101.31) rotate(-45.7)" rx="4.11" ry="3.86"/>
<ellipse fill="#111112" cx="0.00" cy="0.00" transform="translate(58.37,107.29) rotate(-47.1)" rx="2.86" ry="2.63"/>
<ellipse fill="#111112" cx="0.00" cy="0.00" transform="translate(49.03,111.02) rotate(-51.4)" rx="2.85" ry="2.64"/>
<path fill="#111112" d="
  M 113.16 110.05
  C 117.32 109.08 119.01 113.96 117.16 117.23
  C 110.84 128.37 98.15 133.45 85.87 135.11
  A 4.13 4.13 0.0 0 1 81.20 131.32
  L 81.16 130.82
  A 3.97 3.96 -4.8 0 1 84.75 126.58
  Q 88.78 126.20 96.22 123.73
  Q 105.37 120.69 109.88 113.59
  Q 111.95 110.33 113.16 110.05
  Z"
/>
</svg>