<?xml version="1.0" encoding="UTF-8" standalone="no"?>
<!DOCTYPE svg PUBLIC "-//W3C//DTD SVG 1.1//EN" "http://www.w3.org/Graphics/SVG/1.1/DTD/svg11.dtd">
<svg xmlns="http://www.w3.org/2000/svg" version="1.1" viewBox="0.00 0.00 192.00 192.00" width="128" height="128">
<g stroke-width="2.00" fill="none" stroke-linecap="butt">
<path stroke="#e8d48d" stroke-opacity="0.588" vector-effect="non-scaling-stroke" d="
  M 89.49 7.23
  Q 64.95 9.08 45.00 23.00"
/>
<path stroke="#e8d9a0" stroke-opacity="0.588" vector-effect="non-scaling-stroke" d="
  M 45.00 23.00
  C 17.42 42.52 3.19 74.99 7.89 108.54"
/>
<path stroke="#e8c549" stroke-opacity="0.588" vector-effect="non-scaling-stroke" d="
  M 180.68 123.53
  C 192.72 85.56 179.05 45.49 146.55 22.67"
/>
<path stroke="#e8cb64" stroke-opacity="0.588" vector-effect="non-scaling-stroke" d="
  M 146.55 22.67
  Q 135.29 14.99 122.57 10.97"
/>
<path stroke="#e8d17c" stroke-opacity="0.588" vector-effect="non-scaling-stroke" d="
  M 122.57 10.97
  Q 106.25 6.06 89.49 7.23"
/>
<path stroke="#ffe173" vector-effect="non-scaling-stroke" d="
  M 122.57 10.97
  Q 115.11 22.68 110.62 33.08
  C 95.39 68.41 99.71 111.08 116.30 144.85
  Q 122.81 158.10 134.90 176.03"
/>
<path stroke="#d0bd77" stroke-opacity="0.725" vector-effect="non-scaling-stroke" d="
  M 134.90 176.03
  Q 123.15 181.70 110.66 183.76"
/>
<path stroke="#ffe68b" vector-effect="non-scaling-stroke" d="
  M 110.66 183.76
  Q 97.97 166.00 90.05 148.48
  C 73.05 110.90 69.97 68.07 82.27 28.25
  Q 85.52 17.74 89.49 7.23"
/>
<path stroke="#ffda55" vector-effect="non-scaling-stroke" d="
  M 146.55 22.67
  Q 139.66 32.83 136.78 38.54
  C 119.72 72.41 123.45 113.05 143.40 144.79
  Q 148.98 153.66 155.59 162.06"
/>
<path stroke="#d0b863" stroke-opacity="0.725" vector-effect="non-scaling-stroke" d="
  M 155.59 162.06
  Q 146.13 170.56 134.90 176.03"
/>
<path stroke="#d0c084" stroke-opacity="0.725" vector-effect="non-scaling-stroke" d="
  M 110.66 183.76
  Q 89.06 187.32 68.55 180.64"
/>
<path stroke="#ffeba0" vector-effect="non-scaling-stroke" d="
  M 68.55 180.64
  Q 62.28 163.19 55.91 145.87
  Q 41.16 105.72 43.14 62.92
  Q 44.06 43.01 45.00 23.00"
/>
<path stroke="#d0c394" stroke-opacity="0.725" vector-effect="non-scaling-stroke" d="
  M 68.55 180.64
  C 36.07 169.76 12.87 142.48 7.89 108.54"
/>
<path stroke="#d0b44e" stroke-opacity="0.725" vector-effect="non-scaling-stroke" d="
  M 180.68 123.53
  Q 173.11 146.14 155.59 162.06"
/>
</g>
<path fill="#676562" fill-opacity="0.176" d="
  M 28.93 162.01
  C 16.84 150.07 8.91 133.82 5.32 117.66
  C -3.49 78.00 14.79 37.88 49.56 17.55
  Q 70.81 5.13 96.03 5.15
  C 109.35 5.17 119.79 7.41 132.11 12.54
  Q 149.50 19.78 161.60 32.77
  Q 167.09 38.66 174.27 49.24
  Q 180.30 58.13 184.58 71.14
  C 193.02 96.82 188.29 127.83 172.89 149.79
  C 161.39 166.21 143.57 181.27 124.05 186.73
  Q 79.54 199.17 42.19 173.67
  Q 37.47 170.45 28.93 162.01
  Z
  M 89.49 7.23
  Q 64.95 9.08 45.00 23.00
  C 17.42 42.52 3.19 74.99 7.89 108.54
  Q 8.98 131.42 22.31 149.82
  A 0.05 0.05 0.0 0 0 22.40 149.81
  C 22.42 149.76 20.71 147.05 19.70 145.40
  A 0.20 0.20 0.0 0 1 19.76 145.13
  L 19.77 145.12
  A 0.21 0.20 54.3 0 1 20.05 145.17
  Q 24.94 151.85 31.35 159.12
  Q 38.03 166.69 44.55 171.14
  Q 62.58 183.42 83.27 186.54
  Q 91.89 187.84 104.78 187.05
  C 119.73 186.14 132.70 181.78 144.31 173.28
  C 152.88 167.01 159.50 161.63 165.84 154.04
  C 168.20 151.22 170.64 146.86 172.89 143.44
  A 0.22 0.22 0.0 0 1 173.20 143.38
  L 173.21 143.38
  A 0.25 0.25 0.0 0 1 173.28 143.73
  L 170.28 148.05
  A 0.15 0.15 0.0 0 0 170.31 148.26
  L 170.32 148.26
  A 0.14 0.13 32.0 0 0 170.51 148.22
  C 175.84 140.03 179.64 131.60 180.68 123.53
  C 192.72 85.56 179.05 45.49 146.55 22.67
  Q 135.29 14.99 122.57 10.97
  Q 106.25 6.06 89.49 7.23
  Z"
/>
<path fill="#ffe481" d="
  M 122.57 10.97
  Q 115.11 22.68 110.62 33.08
  C 95.39 68.41 99.71 111.08 116.30 144.85
  Q 122.81 158.10 134.90 176.03
  Q 123.15 181.70 110.66 183.76
  Q 97.97 166.00 90.05 148.48
  C 73.05 110.90 69.97 68.07 82.27 28.25
  Q 85.52 17.74 89.49 7.23
  Q 106.25 6.06 122.57 10.97
  Z"
/>
<path fill="#ffe894" d="
  M 89.49 7.23
  Q 85.52 17.74 82.27 28.25
  C 69.97 68.07 73.05 110.90 90.05 148.48
  Q 97.97 166.00 110.66 183.76
  Q 89.06 187.32 68.55 180.64
  Q 62.28 163.19 55.91 145.87
  Q 41.16 105.72 43.14 62.92
  Q 44.06 43.01 45.00 23.00
  Q 64.95 9.08 89.49 7.23
  Z"
/>
<path fill="#ffdd64" d="
  M 146.55 22.67
  Q 139.66 32.83 136.78 38.54
  C 119.72 72.41 123.45 113.05 143.40 144.79
  Q 148.98 153.66 155.59 162.06
  Q 146.13 170.56 134.90 176.03
  Q 122.81 158.10 116.30 144.85
  C 99.71 111.08 95.39 68.41 110.62 33.08
  Q 115.11 22.68 122.57 10.97
  Q 135.29 14.99 146.55 22.67
  Z"
/>
<path fill="#ffedab" d="
  M 68.55 180.64
  C 36.07 169.76 12.87 142.48 7.89 108.54
  C 3.19 74.99 17.42 42.52 45.00 23.00
  Q 44.06 43.01 43.14 62.92
  Q 41.16 105.72 55.91 145.87
  Q 62.28 163.19 68.55 180.64
  Z"
/>
<path fill="#ffd645" d="
  M 180.68 123.53
  Q 173.11 146.14 155.59 162.06
  Q 148.98 153.66 143.40 144.79
  C 123.45 113.05 119.72 72.41 136.78 38.54
  Q 139.66 32.83 146.55 22.67
  C 179.05 45.49 192.72 85.56 180.68 123.53
  Z"
/>
<path fill="#696762" fill-opacity="0.451" d="
  M 68.55 180.64
  Q 89.06 187.32 110.66 183.76
  Q 123.15 181.70 134.90 176.03
  Q 146.13 170.56 155.59 162.06
  Q 173.11 146.14 180.68 123.53
  C 179.64 131.60 175.84 140.03 170.51 148.22
  A 0.14 0.13 32.0 0 1 170.32 148.26
  L 170.31 148.26
  A 0.15 0.15 0.0 0 1 170.28 148.05
  L 173.28 143.73
  A 0.25 0.25 0.0 0 0 173.21 143.38
  L 173.20 143.38
  A 0.22 0.22 0.0 0 0 172.89 143.44
  C 170.64 146.86 168.20 151.22 165.84 154.04
  C 159.50 161.63 152.88 167.01 144.31 173.28
  C 132.70 181.78 119.73 186.14 104.78 187.05
  Q 91.89 187.84 83.27 186.54
  Q 62.58 183.42 44.55 171.14
  Q 38.03 166.69 31.35 159.12
  Q 24.94 151.85 20.05 145.17
  A 0.21 0.20 54.3 0 0 19.77 145.12
  L 19.76 145.13
  A 0.20 0.20 0.0 0 0 19.70 145.40
  C 20.71 147.05 22.42 149.76 22.40 149.81
  A 0.05 0.05 0.0 0 1 22.31 149.82
  Q 8.98 131.42 7.89 108.54
  C 12.87 142.48 36.07 169.76 68.55 180.64
  Z"
/>
</svg>