<?xml version="1.0" encoding="UTF-8" standalone="no"?>
<!DOCTYPE svg PUBLIC "-//W3C//DTD SVG 1.1//EN" "http://www.w3.org/Graphics/SVG/1.1/DTD/svg11.dtd">
<svg xmlns="http://www.w3.org/2000/svg" version="1.1" viewBox="0.00 0.00 128.00 128.00" width="128" height="128">
<path fill="#23d778" d="
  M 85.13 0.00
  Q 96.12 1.98 98.40 12.87
  Q 99.10 16.23 98.49 19.23
  Q 97.94 21.96 97.10 26.34
  A 0.65 0.65 0.0 0 1 96.45 26.87
  Q 86.80 26.79 75.53 26.85
  C 70.11 26.87 68.21 29.92 67.28 35.16
  Q 65.41 45.74 65.28 46.72
  Q 64.45 52.89 62.73 55.41
  C 59.85 59.63 55.24 62.29 50.24 61.94
  C 46.18 61.65 39.99 62.74 36.58 60.92
  Q 31.87 58.40 31.70 52.60
  A 2.34 2.13 -42.3 0 1 31.74 52.18
  L 36.09 27.55
  A 0.62 0.61 5.1 0 0 35.48 26.83
  L 24.73 26.83
  A 0.65 0.65 0.0 0 0 24.09 27.36
  Q 21.08 43.65 19.87 51.54
  C 18.12 63.05 24.89 72.19 36.51 73.77
  Q 38.95 74.10 47.06 74.05
  Q 53.41 74.01 57.39 72.59
  Q 71.41 67.61 76.05 53.30
  C 77.16 49.84 77.77 44.03 78.59 39.41
  A 0.59 0.59 0.0 0 1 79.17 38.91
  L 94.58 38.91
  A 0.44 0.44 0.0 0 1 95.01 39.43
  Q 91.80 56.77 90.56 64.47
  Q 89.09 73.59 87.13 76.92
  C 82.81 84.25 75.48 89.15 66.75 89.11
  Q 43.02 89.00 20.08 89.16
  Q 12.27 89.21 8.63 87.54
  Q 2.00 84.51 0.00 76.14
  L 0.00 71.08
  Q 3.99 49.22 7.80 27.41
  Q 9.89 15.46 12.15 11.50
  Q 17.32 2.42 29.31 0.00
  L 85.13 0.00
  Z"
/>
<path fill="#1957e6" d="
  M 128.00 52.47
  L 128.00 56.35
  Q 124.05 78.20 120.29 100.05
  Q 118.19 112.26 115.94 116.27
  Q 110.71 125.63 98.50 128.00
  L 43.51 128.00
  Q 32.24 126.37 29.66 116.31
  C 28.45 111.61 29.88 107.22 30.58 102.66
  A 0.79 0.78 -85.2 0 1 31.35 102.00
  L 78.92 102.00
  A 7.61 7.38 -51.1 0 0 80.72 101.78
  Q 91.30 99.18 96.69 90.13
  Q 98.81 86.58 99.99 78.87
  Q 100.20 77.54 105.94 45.00
  Q 106.88 39.68 106.99 39.39
  A 0.77 0.77 0.0 0 1 107.75 38.90
  C 109.75 39.01 113.65 38.69 116.39 39.39
  Q 126.18 41.91 128.00 52.47
  Z"
/>
</svg>