<?xml version="1.0" encoding="UTF-8" standalone="no"?>
<!DOCTYPE svg PUBLIC "-//W3C//DTD SVG 1.1//EN" "http://www.w3.org/Graphics/SVG/1.1/DTD/svg11.dtd">
<svg xmlns="http://www.w3.org/2000/svg" version="1.1" viewBox="0.00 0.00 180.00 180.00" width="128" height="128">
<g stroke-width="2.00" fill="none" stroke-linecap="butt">
<path stroke="#808080" vector-effect="non-scaling-stroke" d="
  M 99.00 99.36
  L 99.00 71.51
  A 0.51 0.50 0.0 0 0 98.49 71.01
  L 87.76 71.01
  A 0.68 0.67 -0.0 0 0 87.08 71.68
  Q 87.09 72.60 87.05 95.56
  C 87.03 102.85 88.14 108.03 92.79 112.98
  C 97.92 118.46 103.73 120.16 111.68 119.97
  Q 113.91 119.92 136.74 119.98
  A 0.64 0.63 0.0 0 0 137.38 119.35
  L 137.38 109.47
  A 0.77 0.77 0.0 0 0 136.61 108.70
  L 109.15 108.70
  A 0.23 0.23 0.0 0 1 108.98 108.31
  L 136.82 80.47
  A 0.33 0.33 0.0 0 1 137.38 80.71
  L 137.38 108.25
  A 0.46 0.46 0.0 0 0 137.84 108.71
  L 148.67 108.71
  A 0.63 0.63 0.0 0 0 149.30 108.08
  Q 149.35 92.46 149.26 80.77
  C 149.20 71.82 143.68 64.41 135.43 61.06
  Q 131.85 59.60 124.37 59.73
  Q 120.73 59.79 99.32 59.76
  A 0.33 0.33 0.0 0 0 98.99 60.09
  L 98.99 70.42
  A 0.63 0.63 0.0 0 0 99.62 71.05
  L 128.10 71.05
  A 0.16 0.16 0.0 0 1 128.21 71.32
  L 99.82 99.71
  A 0.49 0.48 67.8 0 1 99.00 99.36"
/>
<path stroke="#808080" vector-effect="non-scaling-stroke" d="
  M 68.88 98.12
  L 44.94 71.34
  A 1.21 1.19 69.1 0 0 44.04 70.93
  L 28.38 70.93
  A 0.30 0.29 69.3 0 0 28.16 71.42
  Q 54.50 100.90 69.40 117.58
  C 74.04 122.77 81.75 119.88 81.78 112.98
  Q 81.84 96.20 81.80 71.31
  A 0.38 0.38 0.0 0 0 81.42 70.93
  L 69.72 70.93
  A 0.45 0.45 0.0 0 0 69.27 71.38
  L 69.27 97.97
  A 0.22 0.22 0.0 0 1 68.88 98.12"
/>
</g>
<path fill="#000000" d="
  M 180.00 0.00
  L 180.00 180.00
  L 0.00 180.00
  L 0.00 0.00
  L 180.00 0.00
  Z
  M 99.00 99.36
  L 99.00 71.51
  A 0.51 0.50 0.0 0 0 98.49 71.01
  L 87.76 71.01
  A 0.68 0.67 -0.0 0 0 87.08 71.68
  Q 87.09 72.60 87.05 95.56
  C 87.03 102.85 88.14 108.03 92.79 112.98
  C 97.92 118.46 103.73 120.16 111.68 119.97
  Q 113.91 119.92 136.74 119.98
  A 0.64 0.63 0.0 0 0 137.38 119.35
  L 137.38 109.47
  A 0.77 0.77 0.0 0 0 136.61 108.70
  L 109.15 108.70
  A 0.23 0.23 0.0 0 1 108.98 108.31
  L 136.82 80.47
  A 0.33 0.33 0.0 0 1 137.38 80.71
  L 137.38 108.25
  A 0.46 0.46 0.0 0 0 137.84 108.71
  L 148.67 108.71
  A 0.63 0.63 0.0 0 0 149.30 108.08
  Q 149.35 92.46 149.26 80.77
  C 149.20 71.82 143.68 64.41 135.43 61.06
  Q 131.85 59.60 124.37 59.73
  Q 120.73 59.79 99.32 59.76
  A 0.33 0.33 0.0 0 0 98.99 60.09
  L 98.99 70.42
  A 0.63 0.63 0.0 0 0 99.62 71.05
  L 128.10 71.05
  A 0.16 0.16 0.0 0 1 128.21 71.32
  L 99.82 99.71
  A 0.49 0.48 67.8 0 1 99.00 99.36
  Z
  M 68.88 98.12
  L 44.94 71.34
  A 1.21 1.19 69.1 0 0 44.04 70.93
  L 28.38 70.93
  A 0.30 0.29 69.3 0 0 28.16 71.42
  Q 54.50 100.90 69.40 117.58
  C 74.04 122.77 81.75 119.88 81.78 112.98
  Q 81.84 96.20 81.80 71.31
  A 0.38 0.38 0.0 0 0 81.42 70.93
  L 69.72 70.93
  A 0.45 0.45 0.0 0 0 69.27 71.38
  L 69.27 97.97
  A 0.22 0.22 0.0 0 1 68.88 98.12
  Z"
/>
<path fill="#ffffff" d="
  M 99.00 99.36
  A 0.49 0.48 67.8 0 0 99.82 99.71
  L 128.21 71.32
  A 0.16 0.16 0.0 0 0 128.10 71.05
  L 99.62 71.05
  A 0.63 0.63 0.0 0 1 98.99 70.42
  L 98.99 60.09
  A 0.33 0.33 0.0 0 1 99.32 59.76
  Q 120.73 59.79 124.37 59.73
  Q 131.85 59.60 135.43 61.06
  C 143.68 64.41 149.20 71.82 149.26 80.77
  Q 149.35 92.46 149.30 108.08
  A 0.63 0.63 0.0 0 1 148.67 108.71
  L 137.84 108.71
  A 0.46 0.46 0.0 0 1 137.38 108.25
  L 137.38 80.71
  A 0.33 0.33 0.0 0 0 136.82 80.47
  L 108.98 108.31
  A 0.23 0.23 0.0 0 0 109.15 108.70
  L 136.61 108.70
  A 0.77 0.77 0.0 0 1 137.38 109.47
  L 137.38 119.35
  A 0.64 0.63 -0.0 0 1 136.74 119.98
  Q 113.91 119.92 111.68 119.97
  C 103.73 120.16 97.92 118.46 92.79 112.98
  C 88.14 108.03 87.03 102.85 87.05 95.56
  Q 87.09 72.60 87.08 71.68
  A 0.68 0.67 0.0 0 1 87.76 71.01
  L 98.49 71.01
  A 0.51 0.50 -0.0 0 1 99.00 71.51
  L 99.00 99.36
  Z"
/>
<path fill="#ffffff" d="
  M 68.88 98.12
  A 0.22 0.22 0.0 0 0 69.27 97.97
  L 69.27 71.38
  A 0.45 0.45 0.0 0 1 69.72 70.93
  L 81.42 70.93
  A 0.38 0.38 0.0 0 1 81.80 71.31
  Q 81.84 96.20 81.78 112.98
  C 81.75 119.88 74.04 122.77 69.40 117.58
  Q 54.50 100.90 28.16 71.42
  A 0.30 0.29 69.3 0 1 28.38 70.93
  L 44.04 70.93
  A 1.21 1.19 69.1 0 1 44.94 71.34
  L 68.88 98.12
  Z"
/>
</svg>