<?xml version="1.0" encoding="UTF-8" standalone="no"?>
<!DOCTYPE svg PUBLIC "-//W3C//DTD SVG 1.1//EN" "http://www.w3.org/Graphics/SVG/1.1/DTD/svg11.dtd">
<svg xmlns="http://www.w3.org/2000/svg" version="1.1" viewBox="0.00 0.00 128.00 128.00" width="128" height="128">
<path fill="#137eda" d="
  M 63.02 4.25
  Q 64.51 4.25 66.41 5.38
  Q 96.19 23.12 109.65 31.14
  Q 111.32 32.13 112.84 34.03
  A 3.30 3.19 -75.6 0 1 113.33 34.89
  Q 114.21 37.22 114.13 41.31
  Q 114.01 46.77 114.00 64.04
  Q 114.00 81.32 114.12 86.77
  Q 114.20 90.86 113.32 93.19
  A 3.30 3.19 75.7 0 1 112.83 94.05
  Q 111.31 95.95 109.64 96.94
  Q 96.18 104.95 66.39 122.68
  Q 64.49 123.81 62.99 123.81
  Q 61.49 123.80 59.59 122.67
  Q 29.81 104.94 16.35 96.92
  Q 14.68 95.93 13.16 94.03
  A 3.30 3.19 -75.6 0 1 12.67 93.17
  Q 11.79 90.84 11.88 86.75
  Q 12.00 81.29 12.00 64.02
  Q 12.01 46.74 11.89 41.28
  Q 11.80 37.20 12.68 34.87
  A 3.30 3.19 75.7 0 1 13.17 34.01
  Q 14.69 32.11 16.36 31.12
  Q 29.83 23.10 59.62 5.38
  Q 61.52 4.25 63.02 4.25
  Z
  M 19.79 64.02
  Q 19.79 73.57 19.63 76.88
  Q 19.21 85.30 19.53 88.29
  A 2.32 2.30 -63.3 0 0 19.84 89.24
  Q 20.59 90.52 22.07 91.41
  Q 42.18 103.55 61.24 114.72
  Q 62.23 115.29 63.02 115.29
  Q 63.81 115.29 64.79 114.72
  Q 83.86 103.55 103.97 91.42
  Q 105.45 90.53 106.20 89.25
  A 2.32 2.30 63.3 0 0 106.51 88.30
  Q 106.83 85.31 106.42 76.88
  Q 106.25 73.58 106.26 64.03
  Q 106.26 54.48 106.42 51.18
  Q 106.84 42.76 106.52 39.77
  A 2.32 2.30 -63.3 0 0 106.21 38.82
  Q 105.46 37.54 103.98 36.65
  Q 83.87 24.51 64.80 13.34
  Q 63.82 12.76 63.03 12.76
  Q 62.24 12.76 61.25 13.34
  Q 42.19 24.50 22.08 36.64
  Q 20.60 37.53 19.85 38.81
  A 2.32 2.30 63.3 0 0 19.53 39.76
  Q 19.21 42.75 19.63 51.17
  Q 19.79 54.47 19.79 64.02
  Z"
/>
<path fill="#137eda" d="
  M 58.16 48.11
  L 51.14 55.12
  A 2.03 2.00 53.8 0 0 50.79 57.48
  Q 56.34 68.00 65.88 74.86
  Q 68.21 76.53 70.39 77.26
  A 2.16 2.16 0.0 0 0 72.61 76.74
  L 78.06 71.29
  A 2.87 2.85 -53.5 0 1 81.40 70.78
  Q 88.11 74.30 92.80 77.59
  C 94.44 78.74 95.19 80.25 94.82 82.41
  C 93.75 88.68 86.22 92.67 80.58 93.53
  A 5.94 5.81 46.9 0 1 78.33 93.43
  Q 69.32 91.30 63.64 88.01
  C 50.27 80.26 39.59 67.20 35.74 51.74
  C 33.51 42.80 38.49 33.01 48.19 31.94
  A 1.83 1.83 0.0 0 1 49.97 32.84
  L 58.27 47.22
  A 0.75 0.74 52.3 0 1 58.16 48.11
  Z"
/>
</svg>