<?xml version="1.0" encoding="UTF-8" standalone="no"?>
<!DOCTYPE svg PUBLIC "-//W3C//DTD SVG 1.1//EN" "http://www.w3.org/Graphics/SVG/1.1/DTD/svg11.dtd">
<svg xmlns="http://www.w3.org/2000/svg" version="1.1" viewBox="0.00 0.00 128.00 128.00" width="128" height="128">
<g stroke-width="2.00" fill="none" stroke-linecap="butt">
<path stroke="#fcdd98" vector-effect="non-scaling-stroke" d="
  M 54.21 0.00
  L 54.22 39.80
  A 0.25 0.24 -67.6 0 1 53.80 39.98
  L 26.18 12.36
  A 0.78 0.78 0.0 0 0 25.07 12.36
  L 12.27 25.15
  A 0.66 0.66 0.0 0 0 12.27 26.08
  L 101.63 115.44
  A 0.81 0.81 0.0 0 0 102.77 115.44
  L 115.48 102.73
  A 0.77 0.76 -45.3 0 0 115.48 101.64
  L 87.93 74.08
  A 0.28 0.28 0.0 0 1 88.13 73.60
  L 127.25 73.60
  A 0.56 0.56 0.0 0 0 127.81 73.04
  L 127.81 54.66
  A 0.52 0.52 0.0 0 0 127.29 54.14
  L 88.06 54.14
  A 0.24 0.24 0.0 0 1 87.89 53.73
  L 115.56 26.05
  A 0.63 0.62 45.3 0 0 115.56 25.16
  L 102.65 12.25
  A 0.64 0.64 0.0 0 0 101.74 12.25
  L 74.07 39.92
  A 0.26 0.26 0.0 0 1 73.63 39.74
  L 73.61 0.00"
/>
<path stroke="#fcdd98" vector-effect="non-scaling-stroke" d="
  M 0.00 73.48
  C 30.50 74.36 52.85 96.73 54.07 127.23
  A 0.62 0.62 0.0 0 0 54.69 127.83
  L 73.12 127.83
  A 0.36 0.36 0.0 0 0 73.48 127.46
  Q 73.05 98.80 53.97 77.79
  Q 32.98 54.68 0.00 54.07"
/>
</g>
<path fill="#ffffff" d="
  M 54.21 0.00
  L 54.22 39.80
  A 0.25 0.24 -67.6 0 1 53.80 39.98
  L 26.18 12.36
  A 0.78 0.78 0.0 0 0 25.07 12.36
  L 12.27 25.15
  A 0.66 0.66 0.0 0 0 12.27 26.08
  L 101.63 115.44
  A 0.81 0.81 0.0 0 0 102.77 115.44
  L 115.48 102.73
  A 0.77 0.76 -45.3 0 0 115.48 101.64
  L 87.93 74.08
  A 0.28 0.28 0.0 0 1 88.13 73.60
  L 127.25 73.60
  A 0.56 0.56 0.0 0 0 127.81 73.04
  L 127.81 54.66
  A 0.52 0.52 0.0 0 0 127.29 54.14
  L 88.06 54.14
  A 0.24 0.24 0.0 0 1 87.89 53.73
  L 115.56 26.05
  A 0.63 0.62 45.3 0 0 115.56 25.16
  L 102.65 12.25
  A 0.64 0.64 0.0 0 0 101.74 12.25
  L 74.07 39.92
  A 0.26 0.26 0.0 0 1 73.63 39.74
  L 73.61 0.00
  L 128.00 0.00
  L 128.00 128.00
  L 0.00 128.00
  L 0.00 73.48
  C 30.50 74.36 52.85 96.73 54.07 127.23
  A 0.62 0.62 0.0 0 0 54.69 127.83
  L 73.12 127.83
  A 0.36 0.36 0.0 0 0 73.48 127.46
  Q 73.05 98.80 53.97 77.79
  Q 32.98 54.68 0.00 54.07
  L 0.00 0.00
  L 54.21 0.00
  Z"
/>
<path fill="#f9bb30" d="
  M 73.61 0.00
  L 73.63 39.74
  A 0.26 0.26 0.0 0 0 74.07 39.92
  L 101.74 12.25
  A 0.64 0.64 0.0 0 1 102.65 12.25
  L 115.56 25.16
  A 0.63 0.62 45.3 0 1 115.56 26.05
  L 87.89 53.73
  A 0.24 0.24 0.0 0 0 88.06 54.14
  L 127.29 54.14
  A 0.52 0.52 0.0 0 1 127.81 54.66
  L 127.81 73.04
  A 0.56 0.56 0.0 0 1 127.25 73.60
  L 88.13 73.60
  A 0.28 0.28 0.0 0 0 87.93 74.08
  L 115.48 101.64
  A 0.77 0.76 -45.3 0 1 115.48 102.73
  L 102.77 115.44
  A 0.81 0.81 0.0 0 1 101.63 115.44
  L 12.27 26.08
  A 0.66 0.66 0.0 0 1 12.27 25.15
  L 25.07 12.36
  A 0.78 0.78 0.0 0 1 26.18 12.36
  L 53.80 39.98
  A 0.25 0.24 -67.6 0 0 54.22 39.80
  L 54.21 0.00
  L 73.61 0.00
  Z"
/>
<path fill="#f9bb30" d="
  M 0.00 73.48
  L 0.00 54.07
  Q 32.98 54.68 53.97 77.79
  Q 73.05 98.80 73.48 127.46
  A 0.36 0.36 0.0 0 1 73.12 127.83
  L 54.69 127.83
  A 0.62 0.62 0.0 0 1 54.07 127.23
  C 52.85 96.73 30.50 74.36 0.00 73.48
  Z"
/>
</svg>