<?xml version="1.0" encoding="UTF-8" standalone="no"?>
<!DOCTYPE svg PUBLIC "-//W3C//DTD SVG 1.1//EN" "http://www.w3.org/Graphics/SVG/1.1/DTD/svg11.dtd">
<svg xmlns="http://www.w3.org/2000/svg" version="1.1" viewBox="0.00 0.00 128.00 128.00" width="128" height="128">
<g stroke-width="2.00" fill="none" stroke-linecap="butt">
<path stroke="#93b9ed" vector-effect="non-scaling-stroke" d="
  M 60.86 64.01
  Q 60.86 64.28 60.68 64.47
  Q 49.36 76.73 33.77 94.17
  C 33.34 94.64 32.73 94.68 32.46 95.10
  A 0.64 0.58 15.2 0 0 33.04 96.00
  Q 75.56 96.02 95.15 96.04
  A 0.83 0.82 -89.9 0 0 95.97 95.22
  Q 96.00 91.24 96.01 64.03
  Q 96.02 36.82 96.00 32.84
  A 0.83 0.82 89.9 0 0 95.18 32.01
  Q 75.59 32.02 33.07 32.00
  A 0.64 0.58 -15.1 0 0 32.49 32.90
  C 32.76 33.32 33.37 33.36 33.80 33.83
  Q 49.37 51.28 60.68 63.55
  Q 60.86 63.75 60.86 64.01"
/>
<path stroke="#93b9ed" vector-effect="non-scaling-stroke" d="
  M 68.68 64.02
  Q 68.68 64.50 68.46 64.74
  Q 66.24 67.17 46.46 89.19
  A 0.27 0.27 0.0 0 0 46.66 89.64
  L 89.43 89.64
  A 0.29 0.29 0.0 0 0 89.72 89.35
  Q 89.70 77.46 89.69 64.00
  Q 89.68 50.54 89.68 38.65
  A 0.29 0.29 0.0 0 0 89.39 38.36
  L 46.62 38.43
  A 0.27 0.27 0.0 0 0 46.42 38.88
  Q 66.23 60.87 68.46 63.29
  Q 68.68 63.54 68.68 64.02"
/>
</g>
<path fill="#ffffff" d="
  M 121.67 24.73
  L 121.67 103.27
  A 18.40 18.40 0.0 0 1 103.27 121.67
  L 24.72 121.67
  A 18.40 18.40 0.0 0 1 6.32 103.27
  L 6.32 24.73
  A 18.40 18.40 0.0 0 1 24.72 6.33
  L 103.27 6.33
  A 18.40 18.40 0.0 0 1 121.67 24.73
  Z
  M 60.86 64.01
  Q 60.86 64.28 60.68 64.47
  Q 49.36 76.73 33.77 94.17
  C 33.34 94.64 32.73 94.68 32.46 95.10
  A 0.64 0.58 15.2 0 0 33.04 96.00
  Q 75.56 96.02 95.15 96.04
  A 0.83 0.82 -89.9 0 0 95.97 95.22
  Q 96.00 91.24 96.01 64.03
  Q 96.02 36.82 96.00 32.84
  A 0.83 0.82 89.9 0 0 95.18 32.01
  Q 75.59 32.02 33.07 32.00
  A 0.64 0.58 -15.1 0 0 32.49 32.90
  C 32.76 33.32 33.37 33.36 33.80 33.83
  Q 49.37 51.28 60.68 63.55
  Q 60.86 63.75 60.86 64.01
  Z"
/>
<path fill="#2672db" d="
  M 96.01 64.03
  Q 96.00 91.24 95.97 95.22
  A 0.83 0.82 -89.9 0 1 95.15 96.04
  Q 75.56 96.02 33.04 96.00
  A 0.64 0.58 15.2 0 1 32.46 95.10
  C 32.73 94.68 33.34 94.64 33.77 94.17
  Q 49.36 76.73 60.68 64.47
  Q 60.86 64.28 60.86 64.01
  Q 60.86 63.75 60.68 63.55
  Q 49.37 51.28 33.80 33.83
  C 33.37 33.36 32.76 33.32 32.49 32.90
  A 0.64 0.58 -15.1 0 1 33.07 32.00
  Q 75.59 32.02 95.18 32.01
  A 0.83 0.82 89.9 0 1 96.00 32.84
  Q 96.02 36.82 96.01 64.03
  Z
  M 68.68 64.02
  Q 68.68 64.50 68.46 64.74
  Q 66.24 67.17 46.46 89.19
  A 0.27 0.27 0.0 0 0 46.66 89.64
  L 89.43 89.64
  A 0.29 0.29 0.0 0 0 89.72 89.35
  Q 89.70 77.46 89.69 64.00
  Q 89.68 50.54 89.68 38.65
  A 0.29 0.29 0.0 0 0 89.39 38.36
  L 46.62 38.43
  A 0.27 0.27 0.0 0 0 46.42 38.88
  Q 66.23 60.87 68.46 63.29
  Q 68.68 63.54 68.68 64.02
  Z"
/>
<path fill="#ffffff" d="
  M 89.69 64.00
  Q 89.70 77.46 89.72 89.35
  A 0.29 0.29 0.0 0 1 89.43 89.64
  L 46.66 89.64
  A 0.27 0.27 0.0 0 1 46.46 89.19
  Q 66.24 67.17 68.46 64.74
  Q 68.68 64.50 68.68 64.02
  Q 68.68 63.54 68.46 63.29
  Q 66.23 60.87 46.42 38.88
  A 0.27 0.27 0.0 0 1 46.62 38.43
  L 89.39 38.36
  A 0.29 0.29 0.0 0 1 89.68 38.65
  Q 89.68 50.54 89.69 64.00
  Z"
/>
</svg>