<?xml version="1.0" encoding="UTF-8" standalone="no"?>
<!DOCTYPE svg PUBLIC "-//W3C//DTD SVG 1.1//EN" "http://www.w3.org/Graphics/SVG/1.1/DTD/svg11.dtd">
<svg xmlns="http://www.w3.org/2000/svg" version="1.1" viewBox="0.00 0.00 256.00 256.00" width="128" height="128">
<g stroke-width="2.00" fill="none" stroke-linecap="butt">
<path stroke="#881809" vector-effect="non-scaling-stroke" d="
  M 165.44 154.99
  Q 165.58 152.06 164.58 149.39
  C 162.71 144.41 159.96 138.44 156.40 134.38
  Q 148.61 125.51 137.70 122.83
  C 129.79 120.88 120.59 123.67 113.40 127.29
  A 4.85 4.31 -76.5 0 0 112.38 128.00
  Q 110.56 129.68 108.01 131.10"
/>
<path stroke="#888888" vector-effect="non-scaling-stroke" d="
  M 144.23 169.36
  A 26.08 26.08 0.0 0 0 118.15 143.28
  A 26.08 26.08 0.0 0 0 92.07 169.36
  A 26.08 26.08 0.0 0 0 118.15 195.44
  A 26.08 26.08 0.0 0 0 144.23 169.36"
/>
<path stroke="#888888" vector-effect="non-scaling-stroke" d="
  M 90.34 156.21
  A 2.87 2.86 -9.1 0 0 92.30 153.51
  C 92.35 148.35 89.56 146.06 84.58 145.01
  C 79.50 143.95 69.42 143.45 64.62 146.87
  Q 59.35 150.62 55.31 155.31
  C 53.91 156.93 50.71 162.36 53.53 163.78
  Q 59.83 166.95 68.77 169.48
  Q 72.38 170.50 73.98 167.47
  C 75.48 164.66 76.36 161.68 78.93 159.98
  C 82.47 157.65 87.13 157.28 90.34 156.21"
/>
<path stroke="#886e09" vector-effect="non-scaling-stroke" d="
  M 56.58 218.51
  L 49.80 223.35
  A 1.97 1.91 0.9 0 0 49.46 223.67
  C 48.30 225.15 48.06 227.92 50.21 228.61
  C 51.60 229.05 54.51 227.69 57.20 226.79
  A 4.15 4.06 -49.6 0 1 59.05 226.62
  Q 63.42 227.24 66.34 224.18
  A 1.64 1.59 16.3 0 1 67.25 223.70
  Q 74.04 222.56 75.71 221.94
  Q 82.64 219.41 88.36 217.61
  C 91.80 216.52 94.33 215.04 97.72 213.50
  C 100.97 212.03 103.94 209.17 106.12 206.48
  C 108.77 203.20 108.51 200.35 104.95 197.52
  Q 100.53 194.01 98.19 192.48
  Q 97.35 191.93 93.54 187.76
  A 5.78 5.68 -79.3 0 1 92.55 186.28
  Q 89.39 179.53 83.76 176.95
  A 5.65 5.54 -25.6 0 0 82.68 176.58
  C 76.38 175.20 69.96 174.47 64.26 172.51
  Q 63.32 172.18 52.03 168.72
  C 47.77 167.41 44.88 164.63 40.22 164.27
  A 1.22 1.21 13.1 0 0 38.98 165.04
  Q 37.91 167.75 39.64 169.69
  C 42.89 173.34 46.79 177.78 50.96 181.19
  Q 58.55 187.41 59.13 187.86
  Q 66.69 193.74 75.34 198.61
  Q 77.03 199.57 78.11 200.63
  Q 80.13 202.60 80.65 202.79
  A 4.25 4.23 -31.9 0 0 81.83 203.06
  L 91.18 203.89
  A 1.47 1.47 0.0 0 1 92.50 205.55
  C 92.11 208.48 89.96 209.30 87.18 210.94
  C 83.32 213.22 79.13 214.86 75.32 217.07
  A 4.63 4.52 23.5 0 1 73.95 217.59
  C 70.89 218.19 66.54 218.87 66.30 222.60
  A 0.73 0.73 0.0 0 1 65.50 223.29
  L 59.48 222.75
  A 1.03 1.03 0.0 0 1 58.57 221.98
  L 57.78 218.95
  A 0.78 0.78 0.0 0 0 56.58 218.51"
/>
<path stroke="#886e09" vector-effect="non-scaling-stroke" d="
  M 78.97 205.10
  L 77.68 203.47
  A 0.21 0.21 0.0 0 0 77.39 203.43
  L 68.82 210.17
  A 2.75 1.14 -38.2 0 0 67.37 212.77
  L 67.50 212.94
  A 2.75 1.14 -38.2 0 0 70.37 212.14
  L 78.93 205.40
  A 0.21 0.21 0.0 0 0 78.97 205.10"
/>
<path stroke="#888888" vector-effect="non-scaling-stroke" d="
  M 136.85 167.32
  A 10.48 10.48 0.0 0 0 126.37 156.84
  A 10.48 10.48 0.0 0 0 115.89 167.32
  A 10.48 10.48 0.0 0 0 126.37 177.80
  A 10.48 10.48 0.0 0 0 136.85 167.32"
/>
</g>
<path fill="#ff1e00" d="
  M 132.62 0.00
  Q 135.50 0.81 137.18 2.08
  Q 152.92 13.96 155.79 34.23
  Q 157.47 46.16 156.27 60.50
  Q 155.79 66.25 156.77 70.86
  A 0.65 0.65 0.0 0 0 158.05 70.83
  Q 158.89 65.73 160.79 61.52
  Q 162.94 56.77 168.33 48.37
  C 174.13 39.35 187.23 27.29 196.92 38.54
  Q 202.89 45.47 203.60 55.20
  C 204.37 65.68 203.52 76.64 199.81 86.60
  Q 198.76 89.41 197.97 92.29
  A 6.77 6.62 68.0 0 1 197.39 93.70
  Q 196.82 94.74 195.68 96.58
  Q 195.61 96.70 195.63 97.12
  Q 195.64 97.45 195.76 97.64
  A 0.59 0.59 0.0 0 0 196.43 97.89
  Q 200.78 96.54 203.70 95.02
  C 208.05 92.76 211.40 92.15 214.97 95.58
  C 219.56 99.99 218.90 107.75 216.34 113.11
  C 212.78 120.55 206.33 127.46 199.98 132.73
  C 190.37 140.69 179.20 147.53 167.37 154.88
  Q 166.70 155.29 165.44 154.99
  Q 165.58 152.06 164.58 149.39
  C 162.71 144.41 159.96 138.44 156.40 134.38
  Q 148.61 125.51 137.70 122.83
  C 129.79 120.88 120.59 123.67 113.40 127.29
  A 4.85 4.31 -76.5 0 0 112.38 128.00
  Q 110.56 129.68 108.01 131.10
  Q 107.69 116.27 106.87 110.48
  Q 104.84 96.17 104.15 87.02
  Q 103.54 78.84 103.57 56.48
  Q 103.60 40.11 107.13 27.31
  C 108.65 21.79 110.49 18.10 112.80 12.54
  C 114.52 8.41 120.07 1.58 125.15 0.00
  L 132.62 0.00
  Z"
/>
<path fill="#111111" d="
  M 165.44 154.99
  Q 164.99 158.69 166.44 162.56
  A 4.30 4.12 -58.5 0 1 166.71 163.81
  Q 167.08 170.23 166.61 175.55
  Q 164.53 198.95 156.51 223.25
  C 153.76 231.57 149.60 238.30 143.39 244.12
  Q 142.17 245.26 136.29 248.83
  Q 132.85 250.91 128.40 251.97
  Q 116.52 254.81 110.26 255.36
  Q 102.26 256.06 87.78 255.44
  Q 74.42 254.88 62.28 249.71
  Q 56.24 247.14 50.24 242.14
  C 44.91 237.70 42.88 232.92 43.71 226.25
  Q 44.28 221.63 45.35 219.88
  Q 46.32 218.28 57.88 200.13
  Q 59.36 197.79 59.87 195.15
  A 1.38 1.37 -76.1 0 0 58.93 193.58
  L 57.22 193.05
  A 1.64 1.60 76.8 0 1 56.50 192.59
  C 54.45 190.31 51.94 187.54 48.85 184.88
  Q 42.33 179.25 35.97 170.98
  Q 33.30 167.50 35.15 163.17
  A 1.66 1.66 0.0 0 1 36.13 162.26
  C 40.91 160.65 43.44 160.96 47.57 162.41
  A 0.83 0.83 0.0 0 0 48.66 161.78
  L 49.42 157.87
  A 2.29 2.25 -22.7 0 1 49.80 156.97
  Q 55.13 149.28 56.83 148.01
  C 61.40 144.60 64.11 141.69 68.14 141.50
  Q 70.40 141.39 70.43 141.39
  Q 74.40 140.57 86.67 141.34
  Q 90.85 141.60 91.54 144.15
  C 92.26 146.76 95.61 145.86 96.66 144.63
  Q 102.57 137.72 107.21 133.20
  Q 108.77 131.69 108.01 131.10
  Q 110.56 129.68 112.38 128.00
  A 4.85 4.31 -76.5 0 1 113.40 127.29
  C 120.59 123.67 129.79 120.88 137.70 122.83
  Q 148.61 125.51 156.40 134.38
  C 159.96 138.44 162.71 144.41 164.58 149.39
  Q 165.58 152.06 165.44 154.99
  Z
  M 144.23 169.36
  A 26.08 26.08 0.0 0 0 118.15 143.28
  A 26.08 26.08 0.0 0 0 92.07 169.36
  A 26.08 26.08 0.0 0 0 118.15 195.44
  A 26.08 26.08 0.0 0 0 144.23 169.36
  Z
  M 90.34 156.21
  A 2.87 2.86 -9.1 0 0 92.30 153.51
  C 92.35 148.35 89.56 146.06 84.58 145.01
  C 79.50 143.95 69.42 143.45 64.62 146.87
  Q 59.35 150.62 55.31 155.31
  C 53.91 156.93 50.71 162.36 53.53 163.78
  Q 59.83 166.95 68.77 169.48
  Q 72.38 170.50 73.98 167.47
  C 75.48 164.66 76.36 161.68 78.93 159.98
  C 82.47 157.65 87.13 157.28 90.34 156.21
  Z
  M 56.58 218.51
  L 49.80 223.35
  A 1.97 1.91 0.9 0 0 49.46 223.67
  C 48.30 225.15 48.06 227.92 50.21 228.61
  C 51.60 229.05 54.51 227.69 57.20 226.79
  A 4.15 4.06 -49.6 0 1 59.05 226.62
  Q 63.42 227.24 66.34 224.18
  A 1.64 1.59 16.3 0 1 67.25 223.70
  Q 74.04 222.56 75.71 221.94
  Q 82.64 219.41 88.36 217.61
  C 91.80 216.52 94.33 215.04 97.72 213.50
  C 100.97 212.03 103.94 209.17 106.12 206.48
  C 108.77 203.20 108.51 200.35 104.95 197.52
  Q 100.53 194.01 98.19 192.48
  Q 97.35 191.93 93.54 187.76
  A 5.78 5.68 -79.3 0 1 92.55 186.28
  Q 89.39 179.53 83.76 176.95
  A 5.65 5.54 -25.6 0 0 82.68 176.58
  C 76.38 175.20 69.96 174.47 64.26 172.51
  Q 63.32 172.18 52.03 168.72
  C 47.77 167.41 44.88 164.63 40.22 164.27
  A 1.22 1.21 13.1 0 0 38.98 165.04
  Q 37.91 167.75 39.64 169.69
  C 42.89 173.34 46.79 177.78 50.96 181.19
  Q 58.55 187.41 59.13 187.86
  Q 66.69 193.74 75.34 198.61
  Q 77.03 199.57 78.11 200.63
  Q 80.13 202.60 80.65 202.79
  A 4.25 4.23 -31.9 0 0 81.83 203.06
  L 91.18 203.89
  A 1.47 1.47 0.0 0 1 92.50 205.55
  C 92.11 208.48 89.96 209.30 87.18 210.94
  C 83.32 213.22 79.13 214.86 75.32 217.07
  A 4.63 4.52 23.5 0 1 73.95 217.59
  C 70.89 218.19 66.54 218.87 66.30 222.60
  A 0.73 0.73 0.0 0 1 65.50 223.29
  L 59.48 222.75
  A 1.03 1.03 0.0 0 1 58.57 221.98
  L 57.78 218.95
  A 0.78 0.78 0.0 0 0 56.58 218.51
  Z
  M 57.0771 168.7138
  A 5.97 1.33 -170.2 0 0 62.7336 171.0406
  A 5.97 1.33 -170.2 0 0 68.8429 170.7462
  A 5.97 1.33 -170.2 0 0 63.1864 168.4194
  A 5.97 1.33 -170.2 0 0 57.0771 168.7138
  Z
  M 78.97 205.10
  L 77.68 203.47
  A 0.21 0.21 0.0 0 0 77.39 203.43
  L 68.82 210.17
  A 2.75 1.14 -38.2 0 0 67.37 212.77
  L 67.50 212.94
  A 2.75 1.14 -38.2 0 0 70.37 212.14
  L 78.93 205.40
  A 0.21 0.21 0.0 0 0 78.97 205.10
  Z"
/>
<path fill="#ffffff" d="
  M 144.23 169.36
  A 26.08 26.08 0.0 0 1 118.15 195.44
  A 26.08 26.08 0.0 0 1 92.07 169.36
  A 26.08 26.08 0.0 0 1 118.15 143.28
  A 26.08 26.08 0.0 0 1 144.23 169.36
  Z
  M 136.85 167.32
  A 10.48 10.48 0.0 0 0 126.37 156.84
  A 10.48 10.48 0.0 0 0 115.89 167.32
  A 10.48 10.48 0.0 0 0 126.37 177.80
  A 10.48 10.48 0.0 0 0 136.85 167.32
  Z"
/>
<path fill="#ffffff" d="
  M 90.34 156.21
  C 87.13 157.28 82.47 157.65 78.93 159.98
  C 76.36 161.68 75.48 164.66 73.98 167.47
  Q 72.38 170.50 68.77 169.48
  Q 59.83 166.95 53.53 163.78
  C 50.71 162.36 53.91 156.93 55.31 155.31
  Q 59.35 150.62 64.62 146.87
  C 69.42 143.45 79.50 143.95 84.58 145.01
  C 89.56 146.06 92.35 148.35 92.30 153.51
  A 2.87 2.86 -9.1 0 1 90.34 156.21
  Z"
/>
<circle fill="#111111" cx="126.37" cy="167.32" r="10.48"/>
<path fill="#ffca01" d="
  M 56.58 218.51
  A 0.78 0.78 0.0 0 1 57.78 218.95
  L 58.57 221.98
  A 1.03 1.03 0.0 0 0 59.48 222.75
  L 65.50 223.29
  A 0.73 0.73 0.0 0 0 66.30 222.60
  C 66.54 218.87 70.89 218.19 73.95 217.59
  A 4.63 4.52 23.5 0 0 75.32 217.07
  C 79.13 214.86 83.32 213.22 87.18 210.94
  C 89.96 209.30 92.11 208.48 92.50 205.55
  A 1.47 1.47 0.0 0 0 91.18 203.89
  L 81.83 203.06
  A 4.25 4.23 -31.9 0 1 80.65 202.79
  Q 80.13 202.60 78.11 200.63
  Q 77.03 199.57 75.34 198.61
  Q 66.69 193.74 59.13 187.86
  Q 58.55 187.41 50.96 181.19
  C 46.79 177.78 42.89 173.34 39.64 169.69
  Q 37.91 167.75 38.98 165.04
  A 1.22 1.21 13.1 0 1 40.22 164.27
  C 44.88 164.63 47.77 167.41 52.03 168.72
  Q 63.32 172.18 64.26 172.51
  C 69.96 174.47 76.38 175.20 82.68 176.58
  A 5.65 5.54 -25.6 0 1 83.76 176.95
  Q 89.39 179.53 92.55 186.28
  A 5.78 5.68 -79.3 0 0 93.54 187.76
  Q 97.35 191.93 98.19 192.48
  Q 100.53 194.01 104.95 197.52
  C 108.51 200.35 108.77 203.20 106.12 206.48
  C 103.94 209.17 100.97 212.03 97.72 213.50
  C 94.33 215.04 91.80 216.52 88.36 217.61
  Q 82.64 219.41 75.71 221.94
  Q 74.04 222.56 67.25 223.70
  A 1.64 1.59 16.3 0 0 66.34 224.18
  Q 63.42 227.24 59.05 226.62
  A 4.15 4.06 -49.6 0 0 57.20 226.79
  C 54.51 227.69 51.60 229.05 50.21 228.61
  C 48.06 227.92 48.30 225.15 49.46 223.67
  A 1.97 1.91 0.9 0 1 49.80 223.35
  L 56.58 218.51
  Z"
/>
<path fill="#ffca01" d="
  M 78.97 205.10
  A 0.21 0.21 0.0 0 1 78.93 205.40
  L 70.37 212.14
  A 2.75 1.14 -38.2 0 1 67.50 212.94
  L 67.37 212.77
  A 2.75 1.14 -38.2 0 1 68.82 210.17
  L 77.39 203.43
  A 0.21 0.21 0.0 0 1 77.68 203.47
  L 78.97 205.10
  Z"
/>
</svg>