<?xml version="1.0" encoding="UTF-8" standalone="no"?>
<!DOCTYPE svg PUBLIC "-//W3C//DTD SVG 1.1//EN" "http://www.w3.org/Graphics/SVG/1.1/DTD/svg11.dtd">
<svg xmlns="http://www.w3.org/2000/svg" version="1.1" viewBox="0.00 0.00 192.00 192.00" width="128" height="128">
<g stroke-width="2.00" fill="none" stroke-linecap="butt">
<path stroke="#0f8250" vector-effect="non-scaling-stroke" d="
  M 177.66 47.14
  C 177.63 49.54 178.08 52.17 178.09 54.29
  Q 178.18 78.15 178.10 96.28
  C 178.01 116.53 163.66 132.57 143.30 133.81
  Q 140.92 133.95 127.97 133.87
  A 0.64 0.64 0.0 0 1 127.33 133.23
  L 127.33 122.24
  A 0.35 0.34 89.2 0 1 127.66 121.89
  C 132.76 121.70 142.70 122.84 148.90 120.79
  Q 159.71 117.20 164.28 106.60
  C 165.89 102.87 166.17 99.15 166.18 94.77
  Q 166.20 69.61 166.10 52.51
  Q 166.07 47.15 162.65 41.16"
/>
<path stroke="#0f8250" vector-effect="non-scaling-stroke" d="
  M 26.13 118.47
  Q 32.06 121.94 37.53 121.94
  Q 62.63 121.97 95.52 121.93
  A 2.90 2.86 -22.2 0 1 97.56 122.77
  L 126.99 152.20
  A 1.72 1.70 -68.0 0 1 127.50 153.42
  L 127.60 161.33"
/>
<path stroke="#0f8250" vector-effect="non-scaling-stroke" d="
  M 103.65 145.85
  L 92.05 134.33
  A 1.36 1.33 -22.1 0 0 91.10 133.94
  L 32.16 133.55"
/>
</g>
<path fill="#1d1d1b" d="
  M 177.66 47.14
  C 177.63 49.54 178.08 52.17 178.09 54.29
  Q 178.18 78.15 178.10 96.28
  C 178.01 116.53 163.66 132.57 143.30 133.81
  Q 140.92 133.95 127.97 133.87
  A 0.64 0.64 0.0 0 1 127.33 133.23
  L 127.33 122.24
  A 0.35 0.34 89.2 0 1 127.66 121.89
  C 132.76 121.70 142.70 122.84 148.90 120.79
  Q 159.71 117.20 164.28 106.60
  C 165.89 102.87 166.17 99.15 166.18 94.77
  Q 166.20 69.61 166.10 52.51
  Q 166.07 47.15 162.65 41.16
  Q 154.96 29.13 141.50 29.15
  Q 88.89 29.22 44.30 29.13
  Q 34.70 29.12 30.88 30.48
  C 21.41 33.87 14.16 42.76 14.16 53.26
  Q 14.17 66.59 14.07 96.00
  Q 14.02 110.61 26.13 118.47
  Q 32.06 121.94 37.53 121.94
  Q 62.63 121.97 95.52 121.93
  A 2.90 2.86 -22.2 0 1 97.56 122.77
  L 126.99 152.20
  A 1.72 1.70 -68.0 0 1 127.50 153.42
  L 127.60 161.33
  L 127.37 168.60
  A 0.35 0.35 0.0 0 1 126.78 168.83
  L 103.65 145.85
  L 92.05 134.33
  A 1.36 1.33 -22.1 0 0 91.10 133.94
  L 32.16 133.55
  Q 29.99 132.80 27.65 132.09
  C 15.57 128.38 6.80 118.59 3.44 106.85
  Q 2.00 101.79 2.15 90.06
  Q 2.32 77.76 2.15 58.31
  Q 2.07 49.10 3.27 44.80
  C 6.84 32.04 16.20 22.32 28.67 18.65
  Q 34.23 17.01 48.51 17.15
  Q 89.56 17.57 130.36 17.10
  Q 145.45 16.92 151.06 18.51
  C 162.69 21.81 173.24 31.12 176.52 43.56
  Q 177.01 45.41 177.66 47.14
  Z"
/>
<path fill="#00e785" d="
  M 162.65 41.16
  Q 166.07 47.15 166.10 52.51
  Q 166.20 69.61 166.18 94.77
  C 166.17 99.15 165.89 102.87 164.28 106.60
  Q 159.71 117.20 148.90 120.79
  C 142.70 122.84 132.76 121.70 127.66 121.89
  A 0.35 0.34 89.2 0 0 127.33 122.24
  L 127.33 133.23
  A 0.64 0.64 0.0 0 0 127.97 133.87
  Q 140.92 133.95 143.30 133.81
  C 163.66 132.57 178.01 116.53 178.10 96.28
  Q 178.18 78.15 178.09 54.29
  C 178.08 52.17 177.63 49.54 177.66 47.14
  Q 190.07 57.01 190.05 72.50
  Q 189.99 115.01 189.99 115.25
  C 189.92 130.16 179.43 142.36 165.08 145.27
  C 159.58 146.39 152.87 145.80 145.60 145.83
  A 0.43 0.42 0.0 0 0 145.17 146.25
  L 145.17 178.02
  A 0.31 0.31 0.0 0 1 144.65 178.24
  L 127.60 161.33
  L 127.50 153.42
  A 1.72 1.70 -68.0 0 0 126.99 152.20
  L 97.56 122.77
  A 2.90 2.86 -22.2 0 0 95.52 121.93
  Q 62.63 121.97 37.53 121.94
  Q 32.06 121.94 26.13 118.47
  Q 26.04 93.37 26.14 68.75
  Q 26.16 63.49 29.88 57.07
  Q 36.21 46.16 47.26 42.54
  Q 51.58 41.13 66.45 41.10
  Q 114.37 40.98 162.65 41.16
  Z"
/>
<path fill="#00e785" d="
  M 103.65 145.85
  Q 80.09 145.82 57.00 145.83
  Q 41.87 145.84 32.16 133.55
  L 91.10 133.94
  A 1.36 1.33 -22.1 0 1 92.05 134.33
  L 103.65 145.85
  Z"
/>
</svg>