<?xml version="1.0" encoding="UTF-8" standalone="no"?>
<!DOCTYPE svg PUBLIC "-//W3C//DTD SVG 1.1//EN" "http://www.w3.org/Graphics/SVG/1.1/DTD/svg11.dtd">
<svg xmlns="http://www.w3.org/2000/svg" version="1.1" viewBox="0.00 0.00 128.00 128.00" width="128" height="128">
<path fill="#30acbf" d="
  M 34.58 18.94
  A 0.12 0.12 0.0 0 0 34.38 18.94
  L 16.13 50.50
  A 2.63 2.63 0.0 0 1 12.36 51.36
  L 12.20 51.26
  A 2.92 2.91 31.3 0 1 11.24 47.35
  L 31.96 11.49
  A 2.82 2.81 14.8 0 1 34.41 10.07
  L 93.82 10.07
  A 2.30 2.29 -14.9 0 1 95.81 11.22
  L 125.40 62.48
  A 3.03 3.03 0.0 0 1 125.40 65.52
  L 95.80 116.79
  A 2.29 2.28 15.0 0 1 93.82 117.93
  L 34.52 117.93
  A 3.02 3.02 0.0 0 1 31.93 116.46
  Q 31.21 115.23 3.03 66.43
  C 1.75 64.20 1.53 62.60 3.80 61.31
  A 1.80 1.80 0.0 0 1 4.68 61.08
  L 20.59 61.08
  A 1.18 1.18 0.0 0 0 21.61 60.49
  L 39.95 28.72
  A 0.48 0.48 0.0 0 0 39.95 28.24
  L 34.58 18.94
  Z
  M 88.10 16.40
  A 0.31 0.31 0.0 0 0 87.83 15.93
  L 40.09 15.93
  A 0.31 0.31 0.0 0 0 39.82 16.40
  L 45.03 25.42
  A 0.31 0.31 0.0 0 0 45.30 25.57
  L 82.62 25.57
  A 0.31 0.31 0.0 0 0 82.89 25.42
  L 88.10 16.40
  Z
  M 99.81 60.88
  L 90.42 44.61
  A 2.62 2.61 -29.2 0 1 91.45 41.00
  L 91.68 40.86
  A 2.79 2.78 -30.6 0 1 95.54 41.85
  L 106.50 60.83
  A 0.49 0.48 -15.0 0 0 106.92 61.07
  L 117.70 61.07
  A 0.09 0.09 0.0 0 0 117.78 60.93
  L 93.76 19.33
  A 0.34 0.34 0.0 0 0 93.17 19.33
  L 79.15 43.61
  A 0.98 0.96 45.5 0 0 79.15 44.58
  L 88.52 60.80
  A 0.55 0.54 74.5 0 0 88.99 61.07
  L 99.70 61.07
  A 0.13 0.13 0.0 0 0 99.81 60.88
  Z
  M 79.19 31.96
  A 0.35 0.35 0.0 0 0 78.88 31.43
  L 49.12 31.43
  A 0.35 0.35 0.0 0 0 48.81 31.96
  L 53.98 40.90
  A 0.35 0.35 0.0 0 0 54.28 41.07
  L 73.72 41.07
  A 0.35 0.35 0.0 0 0 74.02 40.90
  L 79.19 31.96
  Z
  M 43.73 34.79
  A 0.32 0.32 0.0 0 0 43.17 34.79
  L 28.28 60.58
  A 0.32 0.32 0.0 0 0 28.55 61.06
  L 39.05 61.06
  A 0.32 0.32 0.0 0 0 39.32 60.90
  L 48.97 44.19
  A 0.32 0.32 0.0 0 0 48.97 43.87
  L 43.73 34.79
  Z
  M 58.13 46.92
  A 0.37 0.37 0.0 0 0 57.80 47.47
  L 63.70 57.72
  A 0.37 0.37 0.0 0 0 64.34 57.72
  L 70.27 47.49
  A 0.37 0.37 0.0 0 0 69.95 46.94
  L 58.13 46.92
  Z
  M 49.19 55.45
  Q 46.10 60.79 46.18 60.93
  Q 46.27 61.08 52.43 61.09
  Q 58.60 61.10 58.68 60.95
  Q 58.77 60.80 55.69 55.46
  Q 52.62 50.12 52.45 50.12
  Q 52.28 50.12 49.19 55.45
  Z
  M 72.32 55.53
  Q 69.29 60.80 69.37 60.94
  Q 69.46 61.09 75.54 61.09
  Q 81.62 61.08 81.70 60.94
  Q 81.78 60.79 78.74 55.53
  Q 75.69 50.27 75.53 50.27
  Q 75.36 50.27 72.32 55.53
  Z
  M 36.26 111.96
  Q 36.51 112.10 36.55 112.10
  Q 59.00 112.13 88.17 112.06
  A 0.10 0.10 0.0 0 0 88.25 111.91
  L 82.91 102.65
  A 0.50 0.49 -14.4 0 0 82.48 102.40
  Q 63.43 102.42 44.38 102.37
  Q 43.00 102.37 42.10 101.85
  Q 41.19 101.32 40.50 100.14
  Q 30.92 83.67 21.39 67.17
  A 0.50 0.49 74.4 0 0 20.96 66.93
  L 10.27 66.94
  A 0.10 0.10 0.0 0 0 10.18 67.09
  Q 24.73 92.37 36.00 111.79
  Q 36.02 111.82 36.26 111.96
  Z
  M 28.55 66.93
  A 0.32 0.32 0.0 0 0 28.28 67.41
  L 43.31 93.44
  A 0.32 0.32 0.0 0 0 43.87 93.44
  L 49.11 84.36
  A 0.32 0.32 0.0 0 0 49.11 84.04
  L 39.32 67.09
  A 0.32 0.32 0.0 0 0 39.05 66.93
  L 28.55 66.93
  Z
  M 52.27 77.83
  A 0.31 0.31 0.0 0 0 52.80 77.83
  L 58.81 67.39
  A 0.31 0.31 0.0 0 0 58.54 66.92
  L 46.49 66.94
  A 0.31 0.31 0.0 0 0 46.22 67.41
  L 52.27 77.83
  Z
  M 72.23 72.54
  Q 75.32 77.86 75.49 77.86
  Q 75.66 77.86 78.72 72.52
  Q 81.78 67.19 81.70 67.04
  Q 81.61 66.89 75.46 66.91
  Q 69.31 66.93 69.22 67.07
  Q 69.14 67.23 72.23 72.54
  Z
  M 84.15 93.18
  A 0.35 0.35 0.0 0 0 84.75 93.18
  L 99.61 67.45
  A 0.35 0.35 0.0 0 0 99.30 66.93
  L 88.87 66.93
  A 0.35 0.35 0.0 0 0 88.57 67.10
  L 78.93 83.80
  A 0.35 0.35 0.0 0 0 78.93 84.14
  L 84.15 93.18
  Z
  M 93.17 108.76
  A 0.31 0.31 0.0 0 0 93.71 108.76
  L 117.59 67.39
  A 0.31 0.31 0.0 0 0 117.32 66.93
  L 106.82 66.93
  A 0.31 0.31 0.0 0 0 106.55 67.09
  L 87.92 99.36
  A 0.31 0.31 0.0 0 0 87.92 99.66
  L 93.17 108.76
  Z
  M 64.43 70.65
  A 0.42 0.42 0.0 0 0 63.71 70.65
  L 49.11 95.94
  A 0.42 0.42 0.0 0 0 49.47 96.57
  L 78.67 96.57
  A 0.42 0.42 0.0 0 0 79.03 95.94
  L 64.43 70.65
  Z"
/>
</svg>