<?xml version="1.0" encoding="UTF-8" standalone="no"?>
<!DOCTYPE svg PUBLIC "-//W3C//DTD SVG 1.1//EN" "http://www.w3.org/Graphics/SVG/1.1/DTD/svg11.dtd">
<svg xmlns="http://www.w3.org/2000/svg" version="1.1" viewBox="0.00 0.00 128.00 128.00" width="128" height="128">
<g stroke-width="2.00" fill="none" stroke-linecap="butt">
<path stroke="#fb9e86" vector-effect="non-scaling-stroke" d="
  M 28.08 63.67
  Q 28.18 63.66 28.29 63.63
  Q 28.43 63.59 28.47 63.55
  Q 39.74 52.07 42.20 49.54
  A 0.49 0.49 0.0 0 0 42.21 48.87
  Q 35.84 41.90 27.81 42.00
  Q 19.77 42.10 13.58 49.22
  A 0.49 0.49 0.0 0 0 13.61 49.89
  Q 16.13 52.36 27.68 63.56
  Q 27.72 63.60 27.86 63.64
  Q 27.97 63.67 28.08 63.67"
/>
<path stroke="#fb9e86" vector-effect="non-scaling-stroke" d="
  M 31.72 67.80
  L 45.50 81.58
  A 0.62 0.61 44.7 0 0 46.37 81.58
  L 78.06 49.90
  A 0.84 0.84 0.0 0 0 78.10 48.76
  C 74.46 44.49 69.96 41.62 63.96 41.94
  Q 56.42 42.35 50.37 48.37
  Q 41.16 57.54 31.72 67.09
  A 0.51 0.50 -45.4 0 0 31.72 67.80"
/>
<path stroke="#fb9e86" vector-effect="non-scaling-stroke" d="
  M 114.50 49.01
  C 107.35 39.83 96.11 39.96 87.73 47.27
  Q 86.91 47.99 49.95 84.88
  A 0.61 0.60 49.2 0 0 49.90 85.68
  C 54.80 92.01 61.90 95.63 69.40 92.75
  Q 72.59 91.52 79.17 84.94
  Q 97.83 66.25 114.46 49.63
  A 0.48 0.47 49.0 0 0 114.50 49.01"
/>
</g>
<path fill="#fa4616" d="
  M 95.34 0.00
  Q 99.69 0.24 104.00 0.74
  C 112.81 1.75 120.14 7.34 124.43 15.01
  C 127.36 20.24 127.66 26.24 128.00 32.65
  L 128.00 95.26
  Q 127.77 99.65 127.27 104.01
  C 126.22 113.07 120.33 120.55 112.33 124.78
  C 107.41 127.38 101.58 127.65 95.44 128.00
  L 32.74 128.00
  Q 28.35 127.76 24.00 127.26
  C 14.93 126.22 7.45 120.33 3.22 112.33
  C 0.62 107.41 0.35 101.58 0.00 95.44
  L 0.00 32.75
  Q 0.30 28.63 0.84 24.51
  Q 2.64 10.64 14.75 3.70
  C 20.09 0.64 26.65 0.33 32.65 0.00
  L 95.34 0.00
  Z
  M 28.08 63.67
  Q 28.18 63.66 28.29 63.63
  Q 28.43 63.59 28.47 63.55
  Q 39.74 52.07 42.20 49.54
  A 0.49 0.49 0.0 0 0 42.21 48.87
  Q 35.84 41.90 27.81 42.00
  Q 19.77 42.10 13.58 49.22
  A 0.49 0.49 0.0 0 0 13.61 49.89
  Q 16.13 52.36 27.68 63.56
  Q 27.72 63.60 27.86 63.64
  Q 27.97 63.67 28.08 63.67
  Z
  M 31.72 67.80
  L 45.50 81.58
  A 0.62 0.61 44.7 0 0 46.37 81.58
  L 78.06 49.90
  A 0.84 0.84 0.0 0 0 78.10 48.76
  C 74.46 44.49 69.96 41.62 63.96 41.94
  Q 56.42 42.35 50.37 48.37
  Q 41.16 57.54 31.72 67.09
  A 0.51 0.50 -45.4 0 0 31.72 67.80
  Z
  M 114.50 49.01
  C 107.35 39.83 96.11 39.96 87.73 47.27
  Q 86.91 47.99 49.95 84.88
  A 0.61 0.60 49.2 0 0 49.90 85.68
  C 54.80 92.01 61.90 95.63 69.40 92.75
  Q 72.59 91.52 79.17 84.94
  Q 97.83 66.25 114.46 49.63
  A 0.48 0.47 49.0 0 0 114.50 49.01
  Z"
/>
<path fill="#fcf6f5" d="
  M 27.81 42.00
  Q 35.84 41.90 42.21 48.87
  A 0.49 0.49 0.0 0 1 42.20 49.54
  Q 39.74 52.07 28.47 63.55
  Q 28.43 63.59 28.29 63.63
  Q 28.18 63.66 28.08 63.67
  Q 27.97 63.67 27.86 63.64
  Q 27.72 63.60 27.68 63.56
  Q 16.13 52.36 13.61 49.89
  A 0.49 0.49 0.0 0 1 13.58 49.22
  Q 19.77 42.10 27.81 42.00
  Z"
/>
<path fill="#fcf6f5" d="
  M 31.72 67.80
  A 0.51 0.50 -45.4 0 1 31.72 67.09
  Q 41.16 57.54 50.37 48.37
  Q 56.42 42.35 63.96 41.94
  C 69.96 41.62 74.46 44.49 78.10 48.76
  A 0.84 0.84 0.0 0 1 78.06 49.90
  L 46.37 81.58
  A 0.62 0.61 44.7 0 1 45.50 81.58
  L 31.72 67.80
  Z"
/>
<path fill="#fcf6f5" d="
  M 114.50 49.01
  A 0.48 0.47 49.0 0 1 114.46 49.63
  Q 97.83 66.25 79.17 84.94
  Q 72.59 91.52 69.40 92.75
  C 61.90 95.63 54.80 92.01 49.90 85.68
  A 0.61 0.60 49.2 0 1 49.95 84.88
  Q 86.91 47.99 87.73 47.27
  C 96.11 39.96 107.35 39.83 114.50 49.01
  Z"
/>
</svg>