<?xml version="1.0" encoding="UTF-8" standalone="no"?>
<!DOCTYPE svg PUBLIC "-//W3C//DTD SVG 1.1//EN" "http://www.w3.org/Graphics/SVG/1.1/DTD/svg11.dtd">
<svg xmlns="http://www.w3.org/2000/svg" version="1.1" viewBox="0.00 0.00 180.00 180.00" width="128" height="128">
<path stroke="#81858f" stroke-width="2.00" fill="none" stroke-linecap="butt" vector-effect="non-scaling-stroke" d="
  M 89.66 78.80
  Q 89.82 78.80 89.96 78.91
  A 0.14 0.08 24.1 0 1 90.00 78.97
  L 105.74 133.69
  A 0.53 0.52 81.8 0 0 106.24 134.07
  L 126.15 134.07
  A 0.70 0.70 0.0 0 0 126.82 133.57
  L 152.68 46.83
  A 0.47 0.47 0.0 0 0 152.23 46.23
  L 131.44 46.23
  A 0.74 0.74 0.0 0 0 130.72 46.79
  L 115.47 105.37
  A 0.24 0.24 0.0 0 1 115.00 105.37
  L 99.38 46.84
  A 0.82 0.81 86.1 0 0 98.69 46.23
  Q 97.65 46.10 89.76 46.08
  Q 81.87 46.05 80.83 46.18
  A 0.82 0.81 -85.8 0 0 80.14 46.78
  L 64.15 105.21
  A 0.24 0.24 0.0 0 1 63.68 105.21
  L 48.80 46.54
  A 0.74 0.74 0.0 0 0 48.08 45.97
  L 27.29 45.84
  A 0.47 0.47 0.0 0 0 26.84 46.44
  L 52.16 133.34
  A 0.70 0.70 0.0 0 0 52.83 133.84
  L 72.74 133.97
  A 0.53 0.52 -81.5 0 0 73.24 133.59
  L 89.32 78.97
  A 0.14 0.08 -23.7 0 1 89.36 78.91
  Q 89.49 78.80 89.66 78.80"
/>
<path fill="#0f172a" d="
  M 95.00 0.00
  C 141.46 3.37 176.49 38.51 180.00 84.92
  L 180.00 94.99
  C 176.54 141.37 141.50 176.58 95.09 180.00
  L 84.99 180.00
  C 38.58 176.66 3.53 141.45 0.00 95.10
  L 0.00 85.00
  Q 1.97 56.45 18.76 35.00
  Q 43.55 3.33 84.88 0.00
  L 95.00 0.00
  Z
  M 89.66 78.80
  Q 89.82 78.80 89.96 78.91
  A 0.14 0.08 24.1 0 1 90.00 78.97
  L 105.74 133.69
  A 0.53 0.52 81.8 0 0 106.24 134.07
  L 126.15 134.07
  A 0.70 0.70 0.0 0 0 126.82 133.57
  L 152.68 46.83
  A 0.47 0.47 0.0 0 0 152.23 46.23
  L 131.44 46.23
  A 0.74 0.74 0.0 0 0 130.72 46.79
  L 115.47 105.37
  A 0.24 0.24 0.0 0 1 115.00 105.37
  L 99.38 46.84
  A 0.82 0.81 86.1 0 0 98.69 46.23
  Q 97.65 46.10 89.76 46.08
  Q 81.87 46.05 80.83 46.18
  A 0.82 0.81 -85.8 0 0 80.14 46.78
  L 64.15 105.21
  A 0.24 0.24 0.0 0 1 63.68 105.21
  L 48.80 46.54
  A 0.74 0.74 0.0 0 0 48.08 45.97
  L 27.29 45.84
  A 0.47 0.47 0.0 0 0 26.84 46.44
  L 52.16 133.34
  A 0.70 0.70 0.0 0 0 52.83 133.84
  L 72.74 133.97
  A 0.53 0.52 -81.5 0 0 73.24 133.59
  L 89.32 78.97
  A 0.14 0.08 -23.7 0 1 89.36 78.91
  Q 89.49 78.80 89.66 78.80
  Z"
/>
<path fill="#f3f3f3" d="
  M 89.76 46.08
  Q 97.65 46.10 98.69 46.23
  A 0.82 0.81 86.1 0 1 99.38 46.84
  L 115.00 105.37
  A 0.24 0.24 0.0 0 0 115.47 105.37
  L 130.72 46.79
  A 0.74 0.74 0.0 0 1 131.44 46.23
  L 152.23 46.23
  A 0.47 0.47 0.0 0 1 152.68 46.83
  L 126.82 133.57
  A 0.70 0.70 0.0 0 1 126.15 134.07
  L 106.24 134.07
  A 0.53 0.52 81.8 0 1 105.74 133.69
  L 90.00 78.97
  A 0.14 0.08 24.1 0 0 89.96 78.91
  Q 89.82 78.80 89.66 78.80
  Q 89.49 78.80 89.36 78.91
  A 0.14 0.08 -23.7 0 0 89.32 78.97
  L 73.24 133.59
  A 0.53 0.52 -81.5 0 1 72.74 133.97
  L 52.83 133.84
  A 0.70 0.70 0.0 0 1 52.16 133.34
  L 26.84 46.44
  A 0.47 0.47 0.0 0 1 27.29 45.84
  L 48.08 45.97
  A 0.74 0.74 0.0 0 1 48.80 46.54
  L 63.68 105.21
  A 0.24 0.24 0.0 0 0 64.15 105.21
  L 80.14 46.78
  A 0.82 0.81 -85.8 0 1 80.83 46.18
  Q 81.87 46.05 89.76 46.08
  Z"
/>
</svg>