<?xml version="1.0" encoding="UTF-8" standalone="no"?>
<!DOCTYPE svg PUBLIC "-//W3C//DTD SVG 1.1//EN" "http://www.w3.org/Graphics/SVG/1.1/DTD/svg11.dtd">
<svg xmlns="http://www.w3.org/2000/svg" version="1.1" viewBox="0.00 0.00 180.00 180.00" width="128" height="128">
<g stroke-width="2.00" fill="none" stroke-linecap="butt">
<path stroke="#6c8046" vector-effect="non-scaling-stroke" d="
  M 130.55 50.10
  A 6.03 6.03 0.0 0 0 124.76 54.44
  L 104.99 122.32
  A 6.03 6.03 0.0 0 0 110.78 130.04
  L 135.86 130.04
  A 6.03 6.03 0.0 0 0 141.65 125.70
  L 161.41 57.82
  A 6.03 6.03 0.0 0 0 155.62 50.10
  L 130.55 50.10"
/>
<path stroke="#6c8046" vector-effect="non-scaling-stroke" d="
  M 57.01 106.43
  Q 57.01 106.42 57.12 106.28
  A 0.68 0.67 -44.7 0 0 57.13 105.46
  Q 56.88 105.12 55.79 102.70
  Q 54.52 99.88 52.14 98.90
  Q 50.43 98.20 46.85 98.18
  Q 29.31 98.09 25.79 98.23
  C 22.59 98.36 19.49 99.48 18.84 103.00
  C 18.49 104.86 19.72 107.91 20.45 109.56
  Q 23.53 116.59 26.26 123.31
  C 28.16 127.98 29.94 130.07 34.99 130.07
  Q 49.58 130.06 82.75 130.04
  C 87.46 130.04 89.03 127.77 90.33 123.35
  Q 101.36 86.17 104.24 76.70
  Q 105.62 72.16 103.44 69.54
  A 2.95 2.92 85.6 0 0 102.69 68.89
  Q 101.03 67.90 99.62 67.85
  Q 96.65 67.75 75.27 67.73
  C 70.82 67.73 68.74 68.46 67.46 72.72
  Q 59.91 97.93 58.54 102.78
  Q 57.95 104.87 57.19 106.47
  A 0.10 0.09 57.2 0 1 57.01 106.43"
/>
</g>
<path fill="#d7ff8b" d="
  M 180.00 0.00
  L 180.00 180.00
  L 0.00 180.00
  L 0.00 0.00
  L 180.00 0.00
  Z
  M 130.55 50.10
  A 6.03 6.03 0.0 0 0 124.76 54.44
  L 104.99 122.32
  A 6.03 6.03 0.0 0 0 110.78 130.04
  L 135.86 130.04
  A 6.03 6.03 0.0 0 0 141.65 125.70
  L 161.41 57.82
  A 6.03 6.03 0.0 0 0 155.62 50.10
  L 130.55 50.10
  Z
  M 57.01 106.43
  Q 57.01 106.42 57.12 106.28
  A 0.68 0.67 -44.7 0 0 57.13 105.46
  Q 56.88 105.12 55.79 102.70
  Q 54.52 99.88 52.14 98.90
  Q 50.43 98.20 46.85 98.18
  Q 29.31 98.09 25.79 98.23
  C 22.59 98.36 19.49 99.48 18.84 103.00
  C 18.49 104.86 19.72 107.91 20.45 109.56
  Q 23.53 116.59 26.26 123.31
  C 28.16 127.98 29.94 130.07 34.99 130.07
  Q 49.58 130.06 82.75 130.04
  C 87.46 130.04 89.03 127.77 90.33 123.35
  Q 101.36 86.17 104.24 76.70
  Q 105.62 72.16 103.44 69.54
  A 2.95 2.92 85.6 0 0 102.69 68.89
  Q 101.03 67.90 99.62 67.85
  Q 96.65 67.75 75.27 67.73
  C 70.82 67.73 68.74 68.46 67.46 72.72
  Q 59.91 97.93 58.54 102.78
  Q 57.95 104.87 57.19 106.47
  A 0.10 0.09 57.2 0 1 57.01 106.43
  Z"
/>
<path fill="#010101" d="
  M 130.55 50.10
  L 155.62 50.10
  A 6.03 6.03 0.0 0 1 161.41 57.82
  L 141.65 125.70
  A 6.03 6.03 0.0 0 1 135.86 130.04
  L 110.78 130.04
  A 6.03 6.03 0.0 0 1 104.99 122.32
  L 124.76 54.44
  A 6.03 6.03 0.0 0 1 130.55 50.10
  Z"
/>
<path fill="#010101" d="
  M 57.19 106.47
  Q 57.95 104.87 58.54 102.78
  Q 59.91 97.93 67.46 72.72
  C 68.74 68.46 70.82 67.73 75.27 67.73
  Q 96.65 67.75 99.62 67.85
  Q 101.03 67.90 102.69 68.89
  A 2.95 2.92 85.6 0 1 103.44 69.54
  Q 105.62 72.16 104.24 76.70
  Q 101.36 86.17 90.33 123.35
  C 89.03 127.77 87.46 130.04 82.75 130.04
  Q 49.58 130.06 34.99 130.07
  C 29.94 130.07 28.16 127.98 26.26 123.31
  Q 23.53 116.59 20.45 109.56
  C 19.72 107.91 18.49 104.86 18.84 103.00
  C 19.49 99.48 22.59 98.36 25.79 98.23
  Q 29.31 98.09 46.85 98.18
  Q 50.43 98.20 52.14 98.90
  Q 54.52 99.88 55.79 102.70
  Q 56.88 105.12 57.13 105.46
  A 0.68 0.67 -44.7 0 1 57.12 106.28
  Q 57.01 106.42 57.01 106.43
  A 0.10 0.09 57.2 0 0 57.19 106.47
  Z"
/>
</svg>