<?xml version="1.0" encoding="UTF-8" standalone="no"?>
<!DOCTYPE svg PUBLIC "-//W3C//DTD SVG 1.1//EN" "http://www.w3.org/Graphics/SVG/1.1/DTD/svg11.dtd">
<svg xmlns="http://www.w3.org/2000/svg" version="1.1" viewBox="0.00 0.00 256.00 256.00" width="128" height="128">
<g stroke-width="2.00" fill="none" stroke-linecap="butt">
<path stroke="#3b4659" stroke-opacity="0.992" vector-effect="non-scaling-stroke" d="
  M 204.39 24.50
  Q 200.88 25.90 198.45 25.95
  Q 195.21 26.03 188.93 24.76
  A 7.04 6.78 49.9 0 0 187.50 24.61
  Q 185.11 24.61 181.02 25.10
  C 179.81 25.24 179.45 25.03 178.10 24.59
  A 2.63 2.15 -30.2 0 0 177.47 24.49
  L 164.69 24.11
  A 1.60 1.44 47.9 0 1 164.39 24.08
  Q 158.70 23.07 152.98 24.06"
/>
<path stroke="#617081" stroke-opacity="0.996" vector-effect="non-scaling-stroke" d="
  M 152.98 24.06
  Q 144.49 22.90 142.29 22.88
  Q 134.63 22.78 127.07 22.42"
/>
<path stroke="#515d6e" stroke-opacity="0.996" vector-effect="non-scaling-stroke" d="
  M 127.07 22.42
  C 118.71 21.24 109.27 21.33 102.00 20.84
  C 98.70 20.61 96.34 22.36 93.44 23.87
  A 2.08 0.81 -39.0 0 0 93.20 24.02
  Q 87.53 27.80 86.48 27.97
  Q 81.39 28.75 76.85 30.60"
/>
<path stroke="#111321" stroke-opacity="0.996" vector-effect="non-scaling-stroke" d="
  M 76.85 30.60
  Q 72.79 32.40 69.57 35.20
  A 7.12 6.66 8.8 0 1 68.28 36.08
  L 58.63 41.17"
/>
<path stroke="#a9c1dd" vector-effect="non-scaling-stroke" d="
  M 127.07 22.42
  Q 124.25 22.64 117.25 22.49
  Q 112.44 22.39 100.33 23.75
  Q 96.70 24.15 95.35 25.07
  C 91.83 27.44 90.01 32.56 88.56 36.68
  A 2.62 2.56 48.0 0 0 88.50 38.19
  Q 89.36 41.47 89.08 45.53
  A 1.44 1.42 29.1 0 0 89.36 46.49
  Q 90.02 47.38 90.09 48.25
  Q 90.54 54.53 90.20 62.05"
/>
<path stroke="#6f81a0" vector-effect="non-scaling-stroke" d="
  M 90.20 62.05
  Q 89.72 57.12 89.51 52.18
  Q 89.47 51.03 88.69 49.97
  A 0.35 0.35 0.0 0 0 88.06 50.16
  L 87.83 54.95
  A 0.12 0.06 73.2 0 1 87.82 55.00
  Q 86.92 56.94 85.54 56.44
  A 0.62 0.62 0.0 0 0 84.70 57.04
  Q 85.18 70.94 84.85 71.11
  L 84.84 71.11
  A 0.01 0.00 -31.7 0 1 84.83 71.11
  L 84.27 63.69"
/>
<path stroke="#a9c1dd" vector-effect="non-scaling-stroke" d="
  M 84.27 63.69
  C 84.20 61.53 83.87 59.31 83.87 57.14
  C 83.81 60.26 83.23 62.60 83.22 64.09
  Q 83.07 90.23 83.18 94.54
  A 0.15 0.05 -18.0 0 1 83.07 94.62
  Q 83.04 94.63 83.02 94.63
  A 0.12 0.11 80.2 0 1 82.88 94.52
  Q 82.05 66.04 82.37 59.45
  Q 82.77 51.22 82.73 39.66
  Q 82.72 34.82 78.57 32.60
  A 0.20 0.19 -37.4 0 1 78.62 32.24
  Q 78.78 32.21 79.39 32.09
  Q 77.75 32.27 75.84 32.44"
/>
<path stroke="#59647d" vector-effect="non-scaling-stroke" d="
  M 75.84 32.44
  Q 76.76 31.29 76.85 30.60"
/>
<path stroke="#93aac8" stroke-opacity="0.996" vector-effect="non-scaling-stroke" d="
  M 152.98 24.06
  Q 158.27 25.05 163.86 24.62
  A 2.76 2.22 -37.1 0 1 164.50 24.64
  L 174.45 26.27"
/>
<path stroke="#a9c1dd" vector-effect="non-scaling-stroke" d="
  M 174.45 26.27
  C 179.71 27.20 184.92 28.45 190.12 28.91
  Q 201.40 29.92 212.72 30.54"
/>
<path stroke="#93aac8" stroke-opacity="0.996" vector-effect="non-scaling-stroke" d="
  M 212.72 30.54
  C 218.14 32.76 218.82 38.09 219.90 43.25"
/>
<path stroke="#a9c1dd" vector-effect="non-scaling-stroke" d="
  M 219.90 43.25
  L 220.81 77.71"
/>
<path stroke="#93aac8" stroke-opacity="0.996" vector-effect="non-scaling-stroke" d="
  M 220.81 77.71
  Q 220.76 88.89 221.48 100.05
  Q 221.80 105.10 220.62 124.11
  Q 220.92 121.32 220.99 118.51
  A 0.09 0.04 47.4 0 0 220.97 118.46
  Q 220.96 118.45 220.96 118.44
  A 0.03 0.03 0.0 0 0 220.91 118.45
  Q 220.18 122.23 219.46 126.72
  C 218.39 133.34 219.02 141.50 218.80 147.25
  Q 218.64 151.42 215.11 153.69
  A 2.01 2.00 -59.4 0 1 213.91 154.00
  Q 203.35 153.24 198.92 153.50
  Q 197.14 153.60 190.73 153.03
  Q 186.43 152.65 181.52 153.77
  A 3.89 3.77 -51.0 0 1 180.61 153.88
  Q 173.89 153.96 168.09 153.78
  C 164.50 153.67 160.74 154.65 156.98 154.37
  C 151.09 153.93 146.13 154.27 140.02 153.58
  Q 134.96 153.00 129.75 153.25
  Q 121.53 153.66 110.47 154.79"
/>
<path stroke="#7f94b3" vector-effect="non-scaling-stroke" d="
  M 110.47 154.79
  Q 102.99 154.91 95.51 154.83
  Q 90.94 154.78 88.97 149.97
  A 2.24 2.16 -55.3 0 1 88.80 148.94
  Q 89.39 139.42 89.93 132.91
  Q 90.17 129.94 89.94 127.58
  Q 89.52 123.18 89.73 122.26
  Q 90.17 120.40 89.93 109.25
  Q 89.67 96.93 90.20 62.05"
/>
<path stroke="#617081" stroke-opacity="0.996" vector-effect="non-scaling-stroke" d="
  M 182.04 71.80
  L 178.20 74.95
  A 1.05 0.88 -10.2 0 0 177.95 75.25
  Q 175.66 79.44 175.57 84.19
  A 2.00 1.91 -60.3 0 0 175.82 85.19
  Q 176.77 86.90 177.71 90.37
  Q 178.12 91.91 179.56 93.34
  A 0.82 0.67 -5.7 0 0 179.80 93.50
  L 189.19 97.42
  A 0.10 0.08 52.0 0 0 189.23 97.43
  Q 193.04 97.07 196.39 95.02"
/>
<path stroke="#a9c1dd" vector-effect="non-scaling-stroke" d="
  M 196.39 95.02
  Q 200.81 95.27 202.15 90.27
  Q 203.67 84.59 203.40 82.98
  A 9.07 8.51 -61.6 0 0 203.02 81.54
  L 201.54 77.39
  A 1.65 1.47 -77.3 0 0 201.29 76.94
  Q 192.74 66.37 182.04 71.80"
/>
<path stroke="#515d6e" stroke-opacity="0.996" vector-effect="non-scaling-stroke" d="
  M 196.39 95.02
  Q 200.40 93.31 201.04 89.49"
/>
<path stroke="#59647d" vector-effect="non-scaling-stroke" d="
  M 201.04 89.49
  L 201.78 86.05
  A 2.77 2.74 44.8 0 0 201.77 84.89
  Q 201.44 83.47 201.81 81.81
  A 3.27 3.17 -44.1 0 0 201.85 80.53
  Q 201.01 75.66 195.94 72.96"
/>
<path stroke="#515d6e" stroke-opacity="0.996" vector-effect="non-scaling-stroke" d="
  M 195.94 72.96
  Q 189.99 68.83 182.04 71.80"
/>
<path stroke="#111321" stroke-opacity="0.996" vector-effect="non-scaling-stroke" d="
  M 195.94 72.96
  Q 196.95 74.74 198.00 76.27
  C 200.08 79.31 200.36 81.53 200.37 85.02
  A 0.12 0.12 0.0 0 1 200.16 85.09
  C 200.10 85.02 200.17 83.32 200.13 82.39
  Q 200.10 87.37 200.12 87.79
  A 0.17 0.16 -1.8 0 0 200.29 87.94
  L 200.55 87.94
  A 0.32 0.32 0.0 0 0 200.87 87.62
  C 200.87 85.61 200.87 83.62 200.87 81.64
  C 200.91 84.24 200.96 86.86 201.04 89.49"
/>
<path stroke="#7f94b3" vector-effect="non-scaling-stroke" d="
  M 116.95 77.83
  L 116.26 80.74
  A 1.74 1.71 -48.4 0 0 116.31 81.72
  L 117.81 86.07"
/>
<path stroke="#a9c1dd" vector-effect="non-scaling-stroke" d="
  M 117.81 86.07
  Q 116.69 90.69 120.13 92.61
  A 0.09 0.08 -47.9 0 0 120.23 92.60
  Q 120.50 92.40 120.46 92.32
  A 0.12 0.12 0.0 0 1 120.61 92.16
  L 123.74 93.41
  A 0.57 0.56 -81.3 0 1 124.10 93.91
  Q 124.14 94.55 124.56 94.81
  C 127.35 96.61 129.45 97.94 132.21 97.01
  Q 135.75 95.81 141.67 90.84
  A 1.05 1.03 69.9 0 0 142.03 90.05
  L 141.94 84.60
  A 0.45 0.07 72.5 0 0 141.91 84.40
  Q 141.89 84.35 141.88 84.31
  A 0.08 0.04 56.4 0 0 141.77 84.25
  Q 141.56 87.33 141.63 90.19
  A 0.23 0.22 -1.2 0 1 141.40 90.42
  A 0.26 0.26 0.0 0 1 141.13 90.15
  Q 141.30 85.28 141.62 82.75
  Q 142.27 77.53 138.01 75.69
  A 2.70 2.63 -8.9 0 1 137.08 75.03
  Q 135.09 72.86 131.24 70.77
  A 2.05 2.00 -26.1 0 0 130.51 70.53
  Q 123.54 69.61 118.20 75.21
  Q 116.53 76.96 116.95 77.83"
/>
<path stroke="#6f81a0" vector-effect="non-scaling-stroke" d="
  M 117.81 86.07
  Q 118.78 86.92 118.59 88.66
  Q 118.44 90.10 118.78 90.69
  Q 119.37 91.70 120.53 91.74"
/>
<path stroke="#59647d" vector-effect="non-scaling-stroke" d="
  M 120.53 91.74
  Q 122.08 92.24 123.02 91.98"
/>
<path stroke="#515d6e" stroke-opacity="0.996" vector-effect="non-scaling-stroke" d="
  M 123.02 91.98
  Q 123.77 93.24 124.91 93.42
  A 1.26 1.20 -13.2 0 1 125.68 93.87
  Q 127.00 95.53 127.98 95.93
  Q 131.56 97.40 133.70 94.83"
/>
<path stroke="#6f81a0" vector-effect="non-scaling-stroke" d="
  M 133.70 94.83
  L 139.10 91.74
  A 1.41 1.34 -0.8 0 0 139.59 91.26
  Q 140.98 88.95 140.53 87.15
  C 140.15 85.65 141.40 84.21 141.13 82.73
  Q 140.78 80.88 140.76 79.47
  A 2.11 2.00 -61.1 0 0 140.52 78.54
  Q 140.00 77.58 139.33 77.40"
/>
<path stroke="#59647d" vector-effect="non-scaling-stroke" d="
  M 139.33 77.40
  L 135.28 75.36"
/>
<path stroke="#6f81a0" vector-effect="non-scaling-stroke" d="
  M 135.28 75.36
  L 135.82 75.54
  A 0.25 0.24 -13.8 0 0 136.07 75.13
  Q 132.97 72.23 131.41 71.54
  Q 127.35 69.74 123.05 72.80
  A 0.53 0.53 0.0 0 0 123.23 73.74
  Q 123.51 73.80 124.20 72.65
  A 0.15 0.14 -61.5 0 1 124.39 72.59
  Q 124.51 72.65 124.80 72.49
  A 0.18 0.06 -50.7 0 1 124.71 72.74
  Q 122.72 74.05 120.96 75.24
  A 1.64 1.53 -65.5 0 1 120.38 75.48
  Q 118.65 75.82 116.95 77.83"
/>
<path stroke="#2f3753" stroke-opacity="0.996" vector-effect="non-scaling-stroke" d="
  M 135.28 75.36
  L 134.50 74.97
  A 0.19 0.18 88.1 0 0 134.26 75.23
  Q 134.52 75.72 134.85 76.21
  A 1.25 1.12 -28.8 0 1 134.25 77.92
  Q 134.12 77.98 133.97 77.62
  A 0.72 0.72 0.0 0 0 133.36 77.16
  Q 127.77 76.77 126.03 77.27
  Q 121.31 78.63 118.45 79.36
  A 0.73 0.72 76.9 0 0 117.92 80.22
  L 120.53 91.74"
/>
<path stroke="#273044" stroke-opacity="0.996" vector-effect="non-scaling-stroke" d="
  M 133.70 94.83
  Q 133.83 94.65 133.92 94.50
  A 0.24 0.24 0.0 0 0 133.54 94.20
  L 133.35 94.39
  A 0.27 0.27 0.0 0 1 132.90 94.14
  Q 133.23 92.58 134.22 91.26
  Q 136.83 87.76 138.95 84.07"
/>
<path stroke="#2f3753" stroke-opacity="0.996" vector-effect="non-scaling-stroke" d="
  M 139.33 77.40
  L 135.47 77.98
  A 0.22 0.22 0.0 0 0 135.43 78.41
  Q 139.97 79.81 138.95 84.07"
/>
<path stroke="#111321" stroke-opacity="0.996" vector-effect="non-scaling-stroke" d="
  M 138.95 84.07
  Q 138.40 81.67 136.18 80.21"
/>
<path stroke="#111321" stroke-opacity="0.996" vector-effect="non-scaling-stroke" d="
  M 125.06 78.82
  Q 122.45 79.22 120.26 80.74
  A 1.47 1.46 72.7 0 0 119.62 81.97
  Q 119.69 88.58 123.02 91.98"
/>
<path stroke="#424c68" stroke-opacity="0.996" vector-effect="non-scaling-stroke" d="
  M 223.65 48.02
  L 222.88 59.44
  A 2.42 2.28 -33.0 0 1 222.71 60.14
  Q 222.36 60.93 222.30 61.52
  Q 221.82 66.05 222.08 70.69
  Q 222.12 71.44 221.81 72.17
  Q 221.31 73.35 221.90 74.01
  A 0.56 0.56 0.0 0 1 222.04 74.45
  L 221.78 76.31
  A 1.04 0.97 43.0 0 0 221.81 76.73
  Q 222.99 81.06 222.94 82.74
  Q 222.66 92.25 222.89 102.69
  Q 222.89 102.74 222.87 102.81
  Q 222.85 102.88 222.86 102.95
  A 0.05 0.04 -51.5 0 0 222.95 102.93
  Q 223.01 102.11 223.07 101.41
  A 0.05 0.03 76.7 0 1 223.08 101.38
  Q 223.09 101.38 223.10 101.38
  A 0.02 0.02 0.0 0 1 223.13 101.40
  L 223.69 113.31"
/>
<path stroke="#58698b" stroke-opacity="0.996" vector-effect="non-scaling-stroke" d="
  M 222.93 159.87
  Q 221.05 166.72 214.38 167.67
  Q 208.32 168.54 206.15 168.29
  Q 194.05 166.91 184.27 167.44
  C 177.88 167.80 171.01 167.00 164.61 167.87
  A 7.69 7.66 -77.0 0 0 159.28 171.21
  L 158.85 171.85
  A 1.86 1.86 0.0 0 0 160.34 174.74
  L 175.49 175.15"
/>
<path stroke="#93aac8" stroke-opacity="0.996" vector-effect="non-scaling-stroke" d="
  M 175.49 175.15
  Q 169.69 175.16 152.25 175.82
  Q 146.92 176.03 133.28 175.71
  C 126.36 175.56 119.78 174.59 111.25 173.77
  C 104.08 173.08 96.71 174.32 89.27 173.58
  Q 88.53 173.51 87.94 172.99
  A 1.39 1.35 67.5 0 0 87.10 172.63
  Q 76.16 171.92 68.16 171.99
  Q 65.66 172.01 61.43 171.77
  Q 57.36 171.55 54.61 172.24
  Q 54.56 172.25 54.54 172.23
  A 0.13 0.06 41.8 0 1 54.46 172.06
  Q 54.68 172.03 54.76 172.01
  A 0.05 0.05 0.0 0 0 54.74 171.91
  Q 51.58 172.44 50.50 173.24
  C 46.19 176.43 42.24 179.60 43.08 185.88
  Q 44.03 193.03 44.00 211.96"
/>
<path stroke="#8297b5" stroke-opacity="0.996" vector-effect="non-scaling-stroke" d="
  M 44.00 211.96
  L 43.62 207.23
  A 0.16 0.16 0.0 0 0 43.44 207.08
  L 43.43 207.08
  A 0.17 0.16 86.5 0 0 43.28 207.26
  Q 44.18 227.52 42.88 247.77
  Q 42.65 251.38 44.89 256.00"
/>
<path stroke="#8297b5" stroke-opacity="0.996" vector-effect="non-scaling-stroke" d="
  M 32.54 256.00
  Q 33.26 251.27 33.86 246.51
  C 34.80 239.18 36.45 234.95 38.64 227.36
  Q 39.95 222.82 39.91 219.28
  C 39.83 211.76 38.34 203.67 39.00 195.51
  Q 39.42 190.26 39.91 185.06
  Q 40.19 182.10 38.30 181.36"
/>
<path stroke="#58698b" stroke-opacity="0.996" vector-effect="non-scaling-stroke" d="
  M 38.30 181.36
  Q 39.88 177.87 42.74 175.22
  A 1.95 1.92 -73.1 0 1 43.57 174.77
  L 47.01 173.89
  A 0.02 0.02 0.0 0 0 47.01 173.85
  Q 46.57 173.81 46.55 173.79
  A 0.14 0.14 0.0 0 1 46.65 173.55
  Q 47.31 173.54 48.33 172.47
  A 1.26 1.24 -66.3 0 1 49.30 172.08
  Q 50.93 172.16 53.95 171.65
  Q 55.88 171.32 58.62 171.39
  Q 69.56 171.66 80.25 171.91
  Q 84.36 172.00 88.42 171.39
  A 0.60 0.59 -5.4 0 0 88.93 170.78
  Q 88.89 169.71 88.16 167.94
  A 1.29 1.29 0.0 0 1 88.26 166.77
  C 88.82 165.88 90.41 164.26 91.24 162.59
  Q 91.73 161.60 92.82 161.39
  Q 96.41 160.69 99.42 160.65
  C 104.91 160.57 109.85 159.91 115.25 159.36
  Q 116.31 159.25 117.46 158.30
  A 1.20 1.17 -67.2 0 1 118.07 158.04
  L 128.94 156.70
  A 0.09 0.08 42.8 0 0 128.93 156.53
  Q 127.83 156.43 126.42 156.25
  Q 125.40 156.12 118.38 156.87
  L 118.37 156.87
  Q 118.51 156.87 118.56 156.86
  Q 121.63 156.13 124.73 156.41
  A 1.06 1.06 0.0 0 0 125.88 155.50
  L 125.93 155.13
  A 0.93 0.92 -86.8 0 0 124.99 154.07
  Q 119.15 154.22 115.87 154.86
  Q 113.52 155.31 112.24 155.22
  C 108.92 154.97 105.54 155.13 103.58 155.06
  A 0.02 0.02 0.0 0 1 103.57 155.02
  Q 103.60 155.00 103.63 154.98
  A 0.52 0.22 12.1 0 1 103.88 154.93
  L 110.47 154.79"
/>
<path stroke="#8297b5" stroke-opacity="0.996" vector-effect="non-scaling-stroke" d="
  M 220.81 77.71
  Q 220.89 70.63 220.88 63.54
  Q 220.93 64.74 221.07 65.93
  A 0.03 0.03 0.0 0 0 221.11 65.96
  Q 221.13 65.96 221.16 65.95
  A 0.19 0.08 -9.0 0 0 221.32 65.85
  Q 220.92 44.38 220.96 44.33
  Q 221.10 44.18 220.43 41.20
  A 0.10 0.10 0.0 0 0 220.24 41.20
  L 219.90 43.25"
/>
<path stroke="#8297b5" stroke-opacity="0.996" vector-effect="non-scaling-stroke" d="
  M 212.72 30.54
  Q 206.37 29.45 199.95 28.74
  C 195.09 28.21 190.69 28.94 185.97 28.13
  A 4.62 4.42 60.3 0 1 184.96 27.83
  Q 179.91 25.61 174.45 26.27"
/>
<path stroke="#697790" vector-effect="non-scaling-stroke" d="
  M 75.84 32.44
  Q 73.52 33.38 71.52 35.12
  A 4.64 4.35 -77.8 0 1 70.68 35.70
  Q 65.87 38.22 62.92 41.54
  A 3.72 3.72 0.0 0 0 62.32 42.47
  C 59.52 48.80 59.20 54.57 59.42 61.49
  A 4.51 4.45 -39.8 0 1 59.32 62.52
  Q 58.64 65.68 59.10 68.44
  A 2.73 2.69 -66.3 0 0 59.48 69.44
  Q 61.51 72.60 62.21 75.98
  A 6.13 5.98 -64.0 0 0 62.63 77.25
  C 69.65 92.47 68.22 107.80 61.85 122.88
  A 7.13 5.91 -31.5 0 0 61.54 123.79
  Q 61.21 125.13 60.04 131.28
  Q 59.28 135.30 59.36 139.30
  Q 59.67 154.25 59.71 155.01
  Q 59.95 159.50 64.49 158.51
  C 68.10 157.73 71.78 158.37 75.05 157.37
  A 1.41 0.94 11.3 0 0 75.22 157.30
  L 79.90 154.62
  A 1.23 1.21 84.9 0 0 80.46 153.94
  C 83.20 146.03 82.78 138.61 82.59 129.77
  A 2.94 2.81 -37.3 0 1 82.75 128.77
  Q 83.36 127.04 83.17 128.46"
/>
<path stroke="#424c68" stroke-opacity="0.996" vector-effect="non-scaling-stroke" d="
  M 83.17 128.46
  Q 82.19 135.80 82.83 143.40
  A 9.08 8.84 -44.2 0 1 82.78 145.24
  L 82.13 149.94
  A 0.22 0.21 31.0 0 0 82.18 150.12
  Q 82.34 150.30 82.61 150.18
  Q 82.90 150.05 82.88 149.73
  Q 82.79 148.33 83.72 147.24
  A 1.71 1.70 68.1 0 0 84.12 146.29
  L 84.32 144.14"
/>
<path stroke="#2f3753" stroke-opacity="0.996" vector-effect="non-scaling-stroke" d="
  M 84.32 144.14
  C 84.71 142.64 84.36 141.92 84.37 140.36
  Q 84.38 140.37 84.38 140.38
  Q 84.93 145.88 83.40 151.76
  A 0.08 0.07 -79.8 0 0 83.46 151.86
  L 83.80 151.91
  A 0.24 0.24 0.0 0 0 84.07 151.73
  C 84.87 148.27 85.34 144.68 85.38 141.14
  C 85.38 142.20 86.22 144.19 86.83 145.54
  A 0.27 0.27 0.0 0 0 87.32 145.56
  Q 88.22 143.81 88.62 142.14
  L 88.63 142.14
  Q 88.29 145.72 87.83 149.18
  A 1.63 1.62 -62.8 0 0 88.25 150.50
  L 92.68 155.31
  A 0.75 0.72 -16.3 0 0 93.10 155.53
  Q 99.06 156.51 103.91 155.93
  A 0.15 0.15 0.0 0 1 103.98 156.22
  C 102.24 156.89 99.40 157.59 99.60 159.61
  A 0.55 0.55 0.0 0 1 99.13 160.21
  Q 92.96 160.98 91.72 161.62
  Q 86.99 164.05 84.61 164.05
  Q 74.69 164.07 67.26 164.65
  A 0.37 0.37 0.0 0 0 66.92 165.07
  L 67.53 170.07
  A 0.31 0.31 0.0 0 1 67.24 170.43
  Q 57.97 171.09 50.39 171.12
  Q 52.92 171.02 55.47 170.72"
/>
<path stroke="#111321" stroke-opacity="0.996" vector-effect="non-scaling-stroke" d="
  M 55.47 170.72
  L 51.73 168.99"
/>
<path stroke="#697790" vector-effect="non-scaling-stroke" d="
  M 47.59 91.17
  Q 46.58 102.31 47.56 113.96
  A 1.25 1.24 20.0 0 0 47.92 114.73
  L 50.44 117.26
  A 0.83 0.80 -15.8 0 0 50.85 117.48
  Q 54.58 118.29 57.82 116.05
  A 2.11 2.08 89.5 0 0 58.40 115.45
  Q 61.33 110.92 61.39 110.75
  A 12.24 5.36 -72.2 0 0 61.94 109.11
  Q 62.29 108.01 63.37 100.69
  C 64.11 95.65 64.90 87.04 59.80 83.96"
/>
<path stroke="#59647d" vector-effect="non-scaling-stroke" d="
  M 59.80 83.96
  Q 57.82 81.89 56.16 79.58
  Q 55.63 78.85 54.45 79.39
  A 0.24 0.24 0.0 0 1 54.13 79.10
  Q 54.18 78.95 54.62 78.68
  A 0.23 0.22 -54.1 0 1 54.79 78.65
  Q 55.43 78.75 56.21 79.31
  A 0.23 0.23 0.0 0 0 56.55 79.02
  Q 55.57 77.01 54.22 78.05
  A 1.09 1.01 -5.9 0 0 53.92 78.39
  Q 52.57 80.84 50.56 82.36
  Q 48.74 83.74 48.11 85.69
  Q 47.33 88.10 47.59 91.17"
/>
<path stroke="#a9c1dd" vector-effect="non-scaling-stroke" d="
  M 59.80 83.96
  Q 50.45 80.95 47.59 91.17"
/>
<path stroke="#7f94b3" vector-effect="non-scaling-stroke" d="
  M 84.27 63.69
  L 84.40 82.44
  A 0.02 0.02 0.0 0 0 84.42 82.46
  L 84.43 82.47
  A 0.03 0.03 0.0 0 0 84.47 82.44
  C 84.52 79.01 84.62 75.57 84.62 72.14
  C 84.77 78.73 84.64 85.37 84.73 92.00
  Q 84.77 94.99 84.02 101.45
  A 10.94 10.89 -44.9 0 0 84.01 103.87
  Q 84.47 108.17 83.87 112.81
  A 1.77 1.64 -42.8 0 0 83.85 113.07
  L 84.09 135.21"
/>
<path stroke="#93aac8" stroke-opacity="0.996" vector-effect="non-scaling-stroke" d="
  M 84.09 135.21
  L 84.11 119.80
  A 0.24 0.23 -1.2 0 0 83.86 119.57
  L 83.85 119.57
  A 0.26 0.23 -89.8 0 0 83.63 119.82
  L 83.17 128.46"
/>
<path stroke="#6f81a0" vector-effect="non-scaling-stroke" d="
  M 38.30 181.36
  L 37.86 182.34
  A 0.74 0.74 0.0 0 1 36.49 182.30
  Q 35.46 179.59 34.51 179.20"
/>
<path stroke="#7f94b3" vector-effect="non-scaling-stroke" d="
  M 34.51 179.20
  Q 32.08 177.44 31.25 177.38
  Q 27.60 177.08 24.20 178.24"
/>
<path stroke="#6f81a0" vector-effect="non-scaling-stroke" d="
  M 24.20 178.24
  Q 23.53 178.43 24.64 177.54
  A 0.17 0.03 -40.1 0 0 24.76 177.39
  Q 24.70 177.35 24.73 177.23
  A 0.29 0.14 -25.3 0 0 24.32 177.23
  Q 22.46 178.58 18.42 180.68
  A 9.68 9.48 10.1 0 0 16.59 181.93
  Q 11.63 186.29 5.88 189.32
  A 0.23 0.22 -30.4 0 1 5.59 189.25
  L 5.41 188.99
  A 0.09 0.09 0.0 0 1 5.43 188.86
  L 11.36 184.72
  A 0.06 0.05 29.1 0 0 11.32 184.63
  Q 11.28 184.62 11.26 184.64
  Q 5.66 188.15 0.29 192.03"
/>
<path stroke="#273044" stroke-opacity="0.996" vector-effect="non-scaling-stroke" d="
  M 31.89 173.12
  Q 34.91 175.27 38.41 176.28
  A 0.99 0.99 0.0 0 0 39.31 176.09
  L 41.24 174.48
  A 0.03 0.03 0.0 0 1 41.29 174.52
  Q 41.21 174.66 41.18 174.85
  A 0.13 0.13 0.0 0 0 41.39 174.97
  Q 46.41 171.08 48.77 170.46
  Q 50.50 170.00 55.47 170.72"
/>
<path stroke="#58698b" stroke-opacity="0.996" vector-effect="non-scaling-stroke" d="
  M 84.32 144.14
  Q 83.45 139.67 84.09 135.21"
/>
<path stroke="#6f81a0" vector-effect="non-scaling-stroke" d="
  M 256.00 185.20
  Q 251.91 178.87 245.14 175.42"
/>
<path stroke="#7f94b3" vector-effect="non-scaling-stroke" d="
  M 245.14 175.42
  L 232.03 174.92
  A 5.03 4.90 -49.1 0 0 230.74 175.03
  L 225.92 176.10
  A 3.19 3.11 40.0 0 1 225.13 176.16
  L 217.27 175.79
  A 1.10 0.97 -30.1 0 1 217.02 175.74
  Q 215.32 175.04 213.26 175.07
  Q 199.56 175.28 188.17 175.40
  C 184.81 175.43 179.76 174.80 175.49 175.15"
/>
<path stroke="#a9c1dd" vector-effect="non-scaling-stroke" d="
  M 245.14 175.42
  C 253.88 186.03 249.22 197.41 248.70 209.34
  Q 248.03 224.93 248.67 243.78
  A 2.10 2.10 0.0 0 1 247.80 245.54
  Q 244.21 248.10 239.37 248.31
  Q 235.54 248.48 211.00 248.60
  Q 198.48 248.66 100.65 248.62
  C 85.86 248.61 74.08 249.34 61.31 250.11
  C 54.19 250.53 45.97 249.82 45.61 240.47
  Q 45.48 237.29 45.75 230.74
  Q 45.85 228.49 44.77 221.12
  C 44.34 218.18 44.22 215.02 44.00 211.96"
/>
<path stroke="#8297b5" stroke-opacity="0.996" vector-effect="non-scaling-stroke" d="
  M 256.00 247.25
  Q 249.28 249.69 245.88 256.00"
/>
<path stroke="#a9c1dd" vector-effect="non-scaling-stroke" d="
  M 24.20 178.24
  Q 22.69 179.70 18.35 181.84
  Q 15.75 183.13 10.80 188.34
  A 2.28 2.27 76.2 0 0 10.30 189.17
  Q 7.23 198.43 7.21 208.37
  A 0.04 0.03 -14.9 0 1 7.19 208.40
  Q 7.18 208.41 7.18 208.42
  A 0.02 0.02 0.0 0 1 7.14 208.41
  Q 6.40 198.11 10.17 188.53
  A 0.21 0.20 -66.8 0 0 10.07 188.27
  A 0.20 0.20 0.0 0 0 9.82 188.35
  Q 6.18 195.43 6.28 202.76
  Q 6.37 209.61 7.73 225.11
  C 8.16 230.01 7.65 235.14 7.94 239.98
  C 8.40 247.68 13.45 248.69 19.87 249.33
  Q 24.24 249.76 29.74 250.19
  A 1.14 1.14 0.0 0 0 30.94 249.27
  Q 32.66 239.97 31.90 231.22
  C 31.48 226.47 31.19 220.38 32.02 217.47
  Q 34.10 210.15 34.15 207.89
  Q 34.38 197.91 35.47 189.50
  Q 35.65 188.10 35.37 183.28
  A 0.06 0.06 0.0 0 0 35.26 183.25
  Q 35.19 183.37 35.23 183.51
  Q 35.32 183.81 35.31 183.91
  C 34.53 189.94 33.63 195.96 33.63 201.11
  C 33.60 198.67 33.47 196.51 33.91 193.98
  Q 35.27 186.34 34.51 179.20"
/>
<path stroke="#8297b5" stroke-opacity="0.996" vector-effect="non-scaling-stroke" d="
  M 6.91 256.00
  Q 4.13 251.84 0.00 248.99"
/>
</g>
<path fill="#090c12" fill-opacity="0.992" d="
  M 204.39 24.50
  Q 200.88 25.90 198.45 25.95
  Q 195.21 26.03 188.93 24.76
  A 7.04 6.78 49.9 0 0 187.50 24.61
  Q 185.11 24.61 181.02 25.10
  C 179.81 25.24 179.45 25.03 178.10 24.59
  A 2.63 2.15 -30.2 0 0 177.47 24.49
  L 164.69 24.11
  A 1.60 1.44 47.9 0 1 164.39 24.08
  Q 158.70 23.07 152.98 24.06
  Q 144.49 22.90 142.29 22.88
  Q 134.63 22.78 127.07 22.42
  C 118.71 21.24 109.27 21.33 102.00 20.84
  C 98.70 20.61 96.34 22.36 93.44 23.87
  A 2.08 0.81 -39.0 0 0 93.20 24.02
  Q 87.53 27.80 86.48 27.97
  Q 81.39 28.75 76.85 30.60
  Q 72.79 32.40 69.57 35.20
  A 7.12 6.66 8.8 0 1 68.28 36.08
  L 58.63 41.17
  Q 71.05 30.97 79.95 27.92
  Q 87.45 25.34 95.17 21.41
  Q 97.83 20.05 101.25 20.03
  Q 108.96 19.99 132.99 20.63
  Q 137.36 20.75 145.48 21.67
  C 155.08 22.76 164.87 22.68 174.53 22.91
  Q 176.55 22.96 189.44 24.04
  Q 196.82 24.66 204.39 24.50
  Z"
/>
<path fill="#98aeca" d="
  M 127.07 22.42
  Q 124.25 22.64 117.25 22.49
  Q 112.44 22.39 100.33 23.75
  Q 96.70 24.15 95.35 25.07
  C 91.83 27.44 90.01 32.56 88.56 36.68
  A 2.62 2.56 48.0 0 0 88.50 38.19
  Q 89.36 41.47 89.08 45.53
  A 1.44 1.42 29.1 0 0 89.36 46.49
  Q 90.02 47.38 90.09 48.25
  Q 90.54 54.53 90.20 62.05
  Q 89.72 57.12 89.51 52.18
  Q 89.47 51.03 88.69 49.97
  A 0.35 0.35 0.0 0 0 88.06 50.16
  L 87.83 54.95
  A 0.12 0.06 73.2 0 1 87.82 55.00
  Q 86.92 56.94 85.54 56.44
  A 0.62 0.62 0.0 0 0 84.70 57.04
  Q 85.18 70.94 84.85 71.11
  L 84.84 71.11
  A 0.01 0.00 -31.7 0 1 84.83 71.11
  L 84.27 63.69
  C 84.20 61.53 83.87 59.31 83.87 57.14
  C 83.81 60.26 83.23 62.60 83.22 64.09
  Q 83.07 90.23 83.18 94.54
  A 0.15 0.05 -18.0 0 1 83.07 94.62
  Q 83.04 94.63 83.02 94.63
  A 0.12 0.11 80.2 0 1 82.88 94.52
  Q 82.05 66.04 82.37 59.45
  Q 82.77 51.22 82.73 39.66
  Q 82.72 34.82 78.57 32.60
  A 0.20 0.19 -37.4 0 1 78.62 32.24
  Q 78.78 32.21 79.39 32.09
  Q 77.75 32.27 75.84 32.44
  Q 76.76 31.29 76.85 30.60
  Q 81.39 28.75 86.48 27.97
  Q 87.53 27.80 93.20 24.02
  A 2.08 0.81 -39.0 0 1 93.44 23.87
  C 96.34 22.36 98.70 20.61 102.00 20.84
  C 109.27 21.33 118.71 21.24 127.07 22.42
  Z"
/>
<path fill="#b9d4ef" d="
  M 127.07 22.42
  Q 134.63 22.78 142.29 22.88
  Q 144.49 22.90 152.98 24.06
  Q 158.27 25.05 163.86 24.62
  A 2.76 2.22 -37.1 0 1 164.50 24.64
  L 174.45 26.27
  C 179.71 27.20 184.92 28.45 190.12 28.91
  Q 201.40 29.92 212.72 30.54
  C 218.14 32.76 218.82 38.09 219.90 43.25
  L 220.81 77.71
  Q 220.76 88.89 221.48 100.05
  Q 221.80 105.10 220.62 124.11
  Q 220.92 121.32 220.99 118.51
  A 0.09 0.04 47.4 0 0 220.97 118.46
  Q 220.96 118.45 220.96 118.44
  A 0.03 0.03 0.0 0 0 220.91 118.45
  Q 220.18 122.23 219.46 126.72
  C 218.39 133.34 219.02 141.50 218.80 147.25
  Q 218.64 151.42 215.11 153.69
  A 2.01 2.00 -59.4 0 1 213.91 154.00
  Q 203.35 153.24 198.92 153.50
  Q 197.14 153.60 190.73 153.03
  Q 186.43 152.65 181.52 153.77
  A 3.89 3.77 -51.0 0 1 180.61 153.88
  Q 173.89 153.96 168.09 153.78
  C 164.50 153.67 160.74 154.65 156.98 154.37
  C 151.09 153.93 146.13 154.27 140.02 153.58
  Q 134.96 153.00 129.75 153.25
  Q 121.53 153.66 110.47 154.79
  Q 102.99 154.91 95.51 154.83
  Q 90.94 154.78 88.97 149.97
  A 2.24 2.16 -55.3 0 1 88.80 148.94
  Q 89.39 139.42 89.93 132.91
  Q 90.17 129.94 89.94 127.58
  Q 89.52 123.18 89.73 122.26
  Q 90.17 120.40 89.93 109.25
  Q 89.67 96.93 90.20 62.05
  Q 90.54 54.53 90.09 48.25
  Q 90.02 47.38 89.36 46.49
  A 1.44 1.42 29.1 0 1 89.08 45.53
  Q 89.36 41.47 88.50 38.19
  A 2.62 2.56 48.0 0 1 88.56 36.68
  C 90.01 32.56 91.83 27.44 95.35 25.07
  Q 96.70 24.15 100.33 23.75
  Q 112.44 22.39 117.25 22.49
  Q 124.25 22.64 127.07 22.42
  Z
  M 182.04 71.80
  L 178.20 74.95
  A 1.05 0.88 -10.2 0 0 177.95 75.25
  Q 175.66 79.44 175.57 84.19
  A 2.00 1.91 -60.3 0 0 175.82 85.19
  Q 176.77 86.90 177.71 90.37
  Q 178.12 91.91 179.56 93.34
  A 0.82 0.67 -5.7 0 0 179.80 93.50
  L 189.19 97.42
  A 0.10 0.08 52.0 0 0 189.23 97.43
  Q 193.04 97.07 196.39 95.02
  Q 200.81 95.27 202.15 90.27
  Q 203.67 84.59 203.40 82.98
  A 9.07 8.51 -61.6 0 0 203.02 81.54
  L 201.54 77.39
  A 1.65 1.47 -77.3 0 0 201.29 76.94
  Q 192.74 66.37 182.04 71.80
  Z
  M 116.95 77.83
  L 116.26 80.74
  A 1.74 1.71 -48.4 0 0 116.31 81.72
  L 117.81 86.07
  Q 116.69 90.69 120.13 92.61
  A 0.09 0.08 -47.9 0 0 120.23 92.60
  Q 120.50 92.40 120.46 92.32
  A 0.12 0.12 0.0 0 1 120.61 92.16
  L 123.74 93.41
  A 0.57 0.56 -81.3 0 1 124.10 93.91
  Q 124.14 94.55 124.56 94.81
  C 127.35 96.61 129.45 97.94 132.21 97.01
  Q 135.75 95.81 141.67 90.84
  A 1.05 1.03 69.9 0 0 142.03 90.05
  L 141.94 84.60
  A 0.45 0.07 72.5 0 0 141.91 84.40
  Q 141.89 84.35 141.88 84.31
  A 0.08 0.04 56.4 0 0 141.77 84.25
  Q 141.56 87.33 141.63 90.19
  A 0.23 0.22 -1.2 0 1 141.40 90.42
  A 0.26 0.26 0.0 0 1 141.13 90.15
  Q 141.30 85.28 141.62 82.75
  Q 142.27 77.53 138.01 75.69
  A 2.70 2.63 -8.9 0 1 137.08 75.03
  Q 135.09 72.86 131.24 70.77
  A 2.05 2.00 -26.1 0 0 130.51 70.53
  Q 123.54 69.61 118.20 75.21
  Q 116.53 76.96 116.95 77.83
  Z"
/>
<path fill="#6c7fa0" fill-opacity="0.992" d="
  M 204.39 24.50
  C 210.26 24.56 216.79 24.85 220.29 30.21
  C 223.40 34.98 223.72 40.99 223.65 48.02
  L 222.88 59.44
  A 2.42 2.28 -33.0 0 1 222.71 60.14
  Q 222.36 60.93 222.30 61.52
  Q 221.82 66.05 222.08 70.69
  Q 222.12 71.44 221.81 72.17
  Q 221.31 73.35 221.90 74.01
  A 0.56 0.56 0.0 0 1 222.04 74.45
  L 221.78 76.31
  A 1.04 0.97 43.0 0 0 221.81 76.73
  Q 222.99 81.06 222.94 82.74
  Q 222.66 92.25 222.89 102.69
  Q 222.89 102.74 222.87 102.81
  Q 222.85 102.88 222.86 102.95
  A 0.05 0.04 -51.5 0 0 222.95 102.93
  Q 223.01 102.11 223.07 101.41
  A 0.05 0.03 76.7 0 1 223.08 101.38
  Q 223.09 101.38 223.10 101.38
  A 0.02 0.02 0.0 0 1 223.13 101.40
  L 223.69 113.31
  Q 223.84 131.88 223.48 150.50
  Q 223.39 155.31 222.93 159.87
  Q 221.05 166.72 214.38 167.67
  Q 208.32 168.54 206.15 168.29
  Q 194.05 166.91 184.27 167.44
  C 177.88 167.80 171.01 167.00 164.61 167.87
  A 7.69 7.66 -77.0 0 0 159.28 171.21
  L 158.85 171.85
  A 1.86 1.86 0.0 0 0 160.34 174.74
  L 175.49 175.15
  Q 169.69 175.16 152.25 175.82
  Q 146.92 176.03 133.28 175.71
  C 126.36 175.56 119.78 174.59 111.25 173.77
  C 104.08 173.08 96.71 174.32 89.27 173.58
  Q 88.53 173.51 87.94 172.99
  A 1.39 1.35 67.5 0 0 87.10 172.63
  Q 76.16 171.92 68.16 171.99
  Q 65.66 172.01 61.43 171.77
  Q 57.36 171.55 54.61 172.24
  Q 54.56 172.25 54.54 172.23
  A 0.13 0.06 41.8 0 1 54.46 172.06
  Q 54.68 172.03 54.76 172.01
  A 0.05 0.05 0.0 0 0 54.74 171.91
  Q 51.58 172.44 50.50 173.24
  C 46.19 176.43 42.24 179.60 43.08 185.88
  Q 44.03 193.03 44.00 211.96
  L 43.62 207.23
  A 0.16 0.16 0.0 0 0 43.44 207.08
  L 43.43 207.08
  A 0.17 0.16 86.5 0 0 43.28 207.26
  Q 44.18 227.52 42.88 247.77
  Q 42.65 251.38 44.89 256.00
  L 32.54 256.00
  Q 33.26 251.27 33.86 246.51
  C 34.80 239.18 36.45 234.95 38.64 227.36
  Q 39.95 222.82 39.91 219.28
  C 39.83 211.76 38.34 203.67 39.00 195.51
  Q 39.42 190.26 39.91 185.06
  Q 40.19 182.10 38.30 181.36
  Q 39.88 177.87 42.74 175.22
  A 1.95 1.92 -73.1 0 1 43.57 174.77
  L 47.01 173.89
  A 0.02 0.02 0.0 0 0 47.01 173.85
  Q 46.57 173.81 46.55 173.79
  A 0.14 0.14 0.0 0 1 46.65 173.55
  Q 47.31 173.54 48.33 172.47
  A 1.26 1.24 -66.3 0 1 49.30 172.08
  Q 50.93 172.16 53.95 171.65
  Q 55.88 171.32 58.62 171.39
  Q 69.56 171.66 80.25 171.91
  Q 84.36 172.00 88.42 171.39
  A 0.60 0.59 -5.4 0 0 88.93 170.78
  Q 88.89 169.71 88.16 167.94
  A 1.29 1.29 0.0 0 1 88.26 166.77
  C 88.82 165.88 90.41 164.26 91.24 162.59
  Q 91.73 161.60 92.82 161.39
  Q 96.41 160.69 99.42 160.65
  C 104.91 160.57 109.85 159.91 115.25 159.36
  Q 116.31 159.25 117.46 158.30
  A 1.20 1.17 -67.2 0 1 118.07 158.04
  L 128.94 156.70
  A 0.09 0.08 42.8 0 0 128.93 156.53
  Q 127.83 156.43 126.42 156.25
  Q 125.40 156.12 118.38 156.87
  L 118.37 156.87
  Q 118.51 156.87 118.56 156.86
  Q 121.63 156.13 124.73 156.41
  A 1.06 1.06 0.0 0 0 125.88 155.50
  L 125.93 155.13
  A 0.93 0.92 -86.8 0 0 124.99 154.07
  Q 119.15 154.22 115.87 154.86
  Q 113.52 155.31 112.24 155.22
  C 108.92 154.97 105.54 155.13 103.58 155.06
  A 0.02 0.02 0.0 0 1 103.57 155.02
  Q 103.60 155.00 103.63 154.98
  A 0.52 0.22 12.1 0 1 103.88 154.93
  L 110.47 154.79
  Q 121.53 153.66 129.75 153.25
  Q 134.96 153.00 140.02 153.58
  C 146.13 154.27 151.09 153.93 156.98 154.37
  C 160.74 154.65 164.50 153.67 168.09 153.78
  Q 173.89 153.96 180.61 153.88
  A 3.89 3.77 -51.0 0 0 181.52 153.77
  Q 186.43 152.65 190.73 153.03
  Q 197.14 153.60 198.92 153.50
  Q 203.35 153.24 213.91 154.00
  A 2.01 2.00 -59.4 0 0 215.11 153.69
  Q 218.64 151.42 218.80 147.25
  C 219.02 141.50 218.39 133.34 219.46 126.72
  Q 220.18 122.23 220.91 118.45
  A 0.03 0.03 0.0 0 1 220.96 118.44
  Q 220.96 118.45 220.97 118.46
  A 0.09 0.04 47.4 0 1 220.99 118.51
  Q 220.92 121.32 220.62 124.11
  Q 221.80 105.10 221.48 100.05
  Q 220.76 88.89 220.81 77.71
  Q 220.89 70.63 220.88 63.54
  Q 220.93 64.74 221.07 65.93
  A 0.03 0.03 0.0 0 0 221.11 65.96
  Q 221.13 65.96 221.16 65.95
  A 0.19 0.08 -9.0 0 0 221.32 65.85
  Q 220.92 44.38 220.96 44.33
  Q 221.10 44.18 220.43 41.20
  A 0.10 0.10 0.0 0 0 220.24 41.20
  L 219.90 43.25
  C 218.82 38.09 218.14 32.76 212.72 30.54
  Q 206.37 29.45 199.95 28.74
  C 195.09 28.21 190.69 28.94 185.97 28.13
  A 4.62 4.42 60.3 0 1 184.96 27.83
  Q 179.91 25.61 174.45 26.27
  L 164.50 24.64
  A 2.76 2.22 -37.1 0 0 163.86 24.62
  Q 158.27 25.05 152.98 24.06
  Q 158.70 23.07 164.39 24.08
  A 1.60 1.44 47.9 0 0 164.69 24.11
  L 177.47 24.49
  A 2.63 2.15 -30.2 0 1 178.10 24.59
  C 179.45 25.03 179.81 25.24 181.02 25.10
  Q 185.11 24.61 187.50 24.61
  A 7.04 6.78 49.9 0 1 188.93 24.76
  Q 195.21 26.03 198.45 25.95
  Q 200.88 25.90 204.39 24.50
  Z"
/>
<path fill="#98aeca" d="
  M 212.72 30.54
  Q 201.40 29.92 190.12 28.91
  C 184.92 28.45 179.71 27.20 174.45 26.27
  Q 179.91 25.61 184.96 27.83
  A 4.62 4.42 60.3 0 0 185.97 28.13
  C 190.69 28.94 195.09 28.21 199.95 28.74
  Q 206.37 29.45 212.72 30.54
  Z"
/>
<path fill="#191a30" fill-opacity="0.996" d="
  M 76.85 30.60
  Q 76.76 31.29 75.84 32.44
  Q 73.52 33.38 71.52 35.12
  A 4.64 4.35 -77.8 0 1 70.68 35.70
  Q 65.87 38.22 62.92 41.54
  A 3.72 3.72 0.0 0 0 62.32 42.47
  C 59.52 48.80 59.20 54.57 59.42 61.49
  A 4.51 4.45 -39.8 0 1 59.32 62.52
  Q 58.64 65.68 59.10 68.44
  A 2.73 2.69 -66.3 0 0 59.48 69.44
  Q 61.51 72.60 62.21 75.98
  A 6.13 5.98 -64.0 0 0 62.63 77.25
  C 69.65 92.47 68.22 107.80 61.85 122.88
  A 7.13 5.91 -31.5 0 0 61.54 123.79
  Q 61.21 125.13 60.04 131.28
  Q 59.28 135.30 59.36 139.30
  Q 59.67 154.25 59.71 155.01
  Q 59.95 159.50 64.49 158.51
  C 68.10 157.73 71.78 158.37 75.05 157.37
  A 1.41 0.94 11.3 0 0 75.22 157.30
  L 79.90 154.62
  A 1.23 1.21 84.9 0 0 80.46 153.94
  C 83.20 146.03 82.78 138.61 82.59 129.77
  A 2.94 2.81 -37.3 0 1 82.75 128.77
  Q 83.36 127.04 83.17 128.46
  Q 82.19 135.80 82.83 143.40
  A 9.08 8.84 -44.2 0 1 82.78 145.24
  L 82.13 149.94
  A 0.22 0.21 31.0 0 0 82.18 150.12
  Q 82.34 150.30 82.61 150.18
  Q 82.90 150.05 82.88 149.73
  Q 82.79 148.33 83.72 147.24
  A 1.71 1.70 68.1 0 0 84.12 146.29
  L 84.32 144.14
  C 84.71 142.64 84.36 141.92 84.37 140.36
  Q 84.38 140.37 84.38 140.38
  Q 84.93 145.88 83.40 151.76
  A 0.08 0.07 -79.8 0 0 83.46 151.86
  L 83.80 151.91
  A 0.24 0.24 0.0 0 0 84.07 151.73
  C 84.87 148.27 85.34 144.68 85.38 141.14
  C 85.38 142.20 86.22 144.19 86.83 145.54
  A 0.27 0.27 0.0 0 0 87.32 145.56
  Q 88.22 143.81 88.62 142.14
  L 88.63 142.14
  Q 88.29 145.72 87.83 149.18
  A 1.63 1.62 -62.8 0 0 88.25 150.50
  L 92.68 155.31
  A 0.75 0.72 -16.3 0 0 93.10 155.53
  Q 99.06 156.51 103.91 155.93
  A 0.15 0.15 0.0 0 1 103.98 156.22
  C 102.24 156.89 99.40 157.59 99.60 159.61
  A 0.55 0.55 0.0 0 1 99.13 160.21
  Q 92.96 160.98 91.72 161.62
  Q 86.99 164.05 84.61 164.05
  Q 74.69 164.07 67.26 164.65
  A 0.37 0.37 0.0 0 0 66.92 165.07
  L 67.53 170.07
  A 0.31 0.31 0.0 0 1 67.24 170.43
  Q 57.97 171.09 50.39 171.12
  Q 52.92 171.02 55.47 170.72
  L 51.73 168.99
  L 54.25 168.20
  A 2.31 2.31 0.0 0 0 55.84 166.39
  C 56.11 164.82 56.36 163.08 56.29 161.51
  Q 55.56 145.42 56.44 129.68
  A 1.62 1.61 31.3 0 0 56.21 128.75
  C 55.55 127.62 54.31 127.36 53.65 126.32
  Q 51.20 122.38 47.65 118.71
  A 6.29 6.16 -80.6 0 1 46.51 117.08
  Q 44.28 112.54 44.22 103.53
  Q 44.16 94.66 45.81 86.26
  A 7.12 6.94 -23.2 0 1 46.87 83.70
  L 55.30 71.10
  A 1.77 1.77 0.0 0 0 55.57 70.51
  Q 56.63 66.53 55.88 59.56
  Q 54.65 48.08 58.63 41.17
  L 68.28 36.08
  A 7.12 6.66 8.8 0 0 69.57 35.20
  Q 72.79 32.40 76.85 30.60
  Z
  M 47.59 91.17
  Q 46.58 102.31 47.56 113.96
  A 1.25 1.24 20.0 0 0 47.92 114.73
  L 50.44 117.26
  A 0.83 0.80 -15.8 0 0 50.85 117.48
  Q 54.58 118.29 57.82 116.05
  A 2.11 2.08 89.5 0 0 58.40 115.45
  Q 61.33 110.92 61.39 110.75
  A 12.24 5.36 -72.2 0 0 61.94 109.11
  Q 62.29 108.01 63.37 100.69
  C 64.11 95.65 64.90 87.04 59.80 83.96
  Q 57.82 81.89 56.16 79.58
  Q 55.63 78.85 54.45 79.39
  A 0.24 0.24 0.0 0 1 54.13 79.10
  Q 54.18 78.95 54.62 78.68
  A 0.23 0.22 -54.1 0 1 54.79 78.65
  Q 55.43 78.75 56.21 79.31
  A 0.23 0.23 0.0 0 0 56.55 79.02
  Q 55.57 77.01 54.22 78.05
  A 1.09 1.01 -5.9 0 0 53.92 78.39
  Q 52.57 80.84 50.56 82.36
  Q 48.74 83.74 48.11 85.69
  Q 47.33 88.10 47.59 91.17
  Z"
/>
<path fill="#b9d4ef" d="
  M 84.27 63.69
  L 84.40 82.44
  A 0.02 0.02 0.0 0 0 84.42 82.46
  L 84.43 82.47
  A 0.03 0.03 0.0 0 0 84.47 82.44
  C 84.52 79.01 84.62 75.57 84.62 72.14
  C 84.77 78.73 84.64 85.37 84.73 92.00
  Q 84.77 94.99 84.02 101.45
  A 10.94 10.89 -44.9 0 0 84.01 103.87
  Q 84.47 108.17 83.87 112.81
  A 1.77 1.64 -42.8 0 0 83.85 113.07
  L 84.09 135.21
  L 84.11 119.80
  A 0.24 0.23 -1.2 0 0 83.86 119.57
  L 83.85 119.57
  A 0.26 0.23 -89.8 0 0 83.63 119.82
  L 83.17 128.46
  Q 83.36 127.04 82.75 128.77
  A 2.94 2.81 -37.3 0 0 82.59 129.77
  C 82.78 138.61 83.20 146.03 80.46 153.94
  A 1.23 1.21 84.9 0 1 79.90 154.62
  L 75.22 157.30
  A 1.41 0.94 11.3 0 1 75.05 157.37
  C 71.78 158.37 68.10 157.73 64.49 158.51
  Q 59.95 159.50 59.71 155.01
  Q 59.67 154.25 59.36 139.30
  Q 59.28 135.30 60.04 131.28
  Q 61.21 125.13 61.54 123.79
  A 7.13 5.91 -31.5 0 1 61.85 122.88
  C 68.22 107.80 69.65 92.47 62.63 77.25
  A 6.13 5.98 -64.0 0 1 62.21 75.98
  Q 61.51 72.60 59.48 69.44
  A 2.73 2.69 -66.3 0 1 59.10 68.44
  Q 58.64 65.68 59.32 62.52
  A 4.51 4.45 -39.8 0 0 59.42 61.49
  C 59.20 54.57 59.52 48.80 62.32 42.47
  A 3.72 3.72 0.0 0 1 62.92 41.54
  Q 65.87 38.22 70.68 35.70
  A 4.64 4.35 -77.8 0 0 71.52 35.12
  Q 73.52 33.38 75.84 32.44
  Q 77.75 32.27 79.39 32.09
  Q 78.78 32.21 78.62 32.24
  A 0.20 0.19 -37.4 0 0 78.57 32.60
  Q 82.72 34.82 82.73 39.66
  Q 82.77 51.22 82.37 59.45
  Q 82.05 66.04 82.88 94.52
  A 0.12 0.11 80.2 0 0 83.02 94.63
  Q 83.04 94.63 83.07 94.62
  A 0.15 0.05 -18.0 0 0 83.18 94.54
  Q 83.07 90.23 83.22 64.09
  C 83.23 62.60 83.81 60.26 83.87 57.14
  C 83.87 59.31 84.20 61.53 84.27 63.69
  Z"
/>
<path fill="#98aeca" d="
  M 220.81 77.71
  L 219.90 43.25
  L 220.24 41.20
  A 0.10 0.10 0.0 0 1 220.43 41.20
  Q 221.10 44.18 220.96 44.33
  Q 220.92 44.38 221.32 65.85
  A 0.19 0.08 -9.0 0 1 221.16 65.95
  Q 221.13 65.96 221.11 65.96
  A 0.03 0.03 0.0 0 1 221.07 65.93
  Q 220.93 64.74 220.88 63.54
  Q 220.89 70.63 220.81 77.71
  Z"
/>
<path fill="#191a30" fill-opacity="0.996" d="
  M 223.65 48.02
  L 223.69 113.31
  L 223.13 101.40
  A 0.02 0.02 0.0 0 0 223.10 101.38
  Q 223.09 101.38 223.08 101.38
  A 0.05 0.03 76.7 0 0 223.07 101.41
  Q 223.01 102.11 222.95 102.93
  A 0.05 0.04 -51.5 0 1 222.86 102.95
  Q 222.85 102.88 222.87 102.81
  Q 222.89 102.74 222.89 102.69
  Q 222.66 92.25 222.94 82.74
  Q 222.99 81.06 221.81 76.73
  A 1.04 0.97 43.0 0 1 221.78 76.31
  L 222.04 74.45
  A 0.56 0.56 0.0 0 0 221.90 74.01
  Q 221.31 73.35 221.81 72.17
  Q 222.12 71.44 222.08 70.69
  Q 221.82 66.05 222.30 61.52
  Q 222.36 60.93 222.71 60.14
  A 2.42 2.28 -33.0 0 0 222.88 59.44
  L 223.65 48.02
  Z"
/>
<path fill="#455476" fill-opacity="0.996" d="
  M 90.20 62.05
  Q 89.67 96.93 89.93 109.25
  Q 90.17 120.40 89.73 122.26
  Q 89.52 123.18 89.94 127.58
  Q 90.17 129.94 89.93 132.91
  Q 89.39 139.42 88.80 148.94
  A 2.24 2.16 -55.3 0 0 88.97 149.97
  Q 90.94 154.78 95.51 154.83
  Q 102.99 154.91 110.47 154.79
  L 103.88 154.93
  A 0.52 0.22 12.1 0 0 103.63 154.98
  Q 103.60 155.00 103.57 155.02
  A 0.02 0.02 0.0 0 0 103.58 155.06
  C 105.54 155.13 108.92 154.97 112.24 155.22
  Q 113.52 155.31 115.87 154.86
  Q 119.15 154.22 124.99 154.07
  A 0.93 0.92 -86.8 0 1 125.93 155.13
  L 125.88 155.50
  A 1.06 1.06 0.0 0 1 124.73 156.41
  Q 121.63 156.13 118.56 156.86
  Q 118.51 156.87 118.37 156.87
  L 118.38 156.87
  Q 125.40 156.12 126.42 156.25
  Q 127.83 156.43 128.93 156.53
  A 0.09 0.08 42.8 0 1 128.94 156.70
  L 118.07 158.04
  A 1.20 1.17 -67.2 0 0 117.46 158.30
  Q 116.31 159.25 115.25 159.36
  C 109.85 159.91 104.91 160.57 99.42 160.65
  Q 96.41 160.69 92.82 161.39
  Q 91.73 161.60 91.24 162.59
  C 90.41 164.26 88.82 165.88 88.26 166.77
  A 1.29 1.29 0.0 0 0 88.16 167.94
  Q 88.89 169.71 88.93 170.78
  A 0.60 0.59 -5.4 0 1 88.42 171.39
  Q 84.36 172.00 80.25 171.91
  Q 69.56 171.66 58.62 171.39
  Q 55.88 171.32 53.95 171.65
  Q 50.93 172.16 49.30 172.08
  A 1.26 1.24 -66.3 0 0 48.33 172.47
  Q 47.31 173.54 46.65 173.55
  A 0.14 0.14 0.0 0 0 46.55 173.79
  Q 46.57 173.81 47.01 173.85
  A 0.02 0.02 0.0 0 1 47.01 173.89
  L 43.57 174.77
  A 1.95 1.92 -73.1 0 0 42.74 175.22
  Q 39.88 177.87 38.30 181.36
  L 37.86 182.34
  A 0.74 0.74 0.0 0 1 36.49 182.30
  Q 35.46 179.59 34.51 179.20
  Q 32.08 177.44 31.25 177.38
  Q 27.60 177.08 24.20 178.24
  Q 23.53 178.43 24.64 177.54
  A 0.17 0.03 -40.1 0 0 24.76 177.39
  Q 24.70 177.35 24.73 177.23
  A 0.29 0.14 -25.3 0 0 24.32 177.23
  Q 22.46 178.58 18.42 180.68
  A 9.68 9.48 10.1 0 0 16.59 181.93
  Q 11.63 186.29 5.88 189.32
  A 0.23 0.22 -30.4 0 1 5.59 189.25
  L 5.41 188.99
  A 0.09 0.09 0.0 0 1 5.43 188.86
  L 11.36 184.72
  A 0.06 0.05 29.1 0 0 11.32 184.63
  Q 11.28 184.62 11.26 184.64
  Q 5.66 188.15 0.29 192.03
  Q 0.18 187.59 2.81 184.30
  C 8.11 177.67 15.68 174.18 23.86 172.61
  Q 28.23 171.76 31.89 173.12
  Q 34.91 175.27 38.41 176.28
  A 0.99 0.99 0.0 0 0 39.31 176.09
  L 41.24 174.48
  A 0.03 0.03 0.0 0 1 41.29 174.52
  Q 41.21 174.66 41.18 174.85
  A 0.13 0.13 0.0 0 0 41.39 174.97
  Q 46.41 171.08 48.77 170.46
  Q 50.50 170.00 55.47 170.72
  Q 52.92 171.02 50.39 171.12
  Q 57.97 171.09 67.24 170.43
  A 0.31 0.31 0.0 0 0 67.53 170.07
  L 66.92 165.07
  A 0.37 0.37 0.0 0 1 67.26 164.65
  Q 74.69 164.07 84.61 164.05
  Q 86.99 164.05 91.72 161.62
  Q 92.96 160.98 99.13 160.21
  A 0.55 0.55 0.0 0 0 99.60 159.61
  C 99.40 157.59 102.24 156.89 103.98 156.22
  A 0.15 0.15 0.0 0 0 103.91 155.93
  Q 99.06 156.51 93.10 155.53
  A 0.75 0.72 -16.3 0 1 92.68 155.31
  L 88.25 150.50
  A 1.63 1.62 -62.8 0 1 87.83 149.18
  Q 88.29 145.72 88.63 142.14
  L 88.62 142.14
  Q 88.22 143.81 87.32 145.56
  A 0.27 0.27 0.0 0 1 86.83 145.54
  C 86.22 144.19 85.38 142.20 85.38 141.14
  C 85.34 144.68 84.87 148.27 84.07 151.73
  A 0.24 0.24 0.0 0 1 83.80 151.91
  L 83.46 151.86
  A 0.08 0.07 -79.8 0 1 83.40 151.76
  Q 84.93 145.88 84.38 140.38
  Q 84.38 140.37 84.37 140.36
  C 84.36 141.92 84.71 142.64 84.32 144.14
  Q 83.45 139.67 84.09 135.21
  L 83.85 113.07
  A 1.77 1.64 -42.8 0 1 83.87 112.81
  Q 84.47 108.17 84.01 103.87
  A 10.94 10.89 -44.9 0 1 84.02 101.45
  Q 84.77 94.99 84.73 92.00
  C 84.64 85.37 84.77 78.73 84.62 72.14
  C 84.62 75.57 84.52 79.01 84.47 82.44
  A 0.03 0.03 0.0 0 1 84.43 82.47
  L 84.42 82.46
  A 0.02 0.02 0.0 0 1 84.40 82.44
  L 84.27 63.69
  L 84.83 71.11
  A 0.01 0.00 -31.7 0 0 84.84 71.11
  L 84.85 71.11
  Q 85.18 70.94 84.70 57.04
  A 0.62 0.62 0.0 0 1 85.54 56.44
  Q 86.92 56.94 87.82 55.00
  A 0.12 0.06 73.2 0 0 87.83 54.95
  L 88.06 50.16
  A 0.35 0.35 0.0 0 1 88.69 49.97
  Q 89.47 51.03 89.51 52.18
  Q 89.72 57.12 90.20 62.05
  Z"
/>
<path fill="#98aeca" d="
  M 196.39 95.02
  Q 200.40 93.31 201.04 89.49
  L 201.78 86.05
  A 2.77 2.74 44.8 0 0 201.77 84.89
  Q 201.44 83.47 201.81 81.81
  A 3.27 3.17 -44.1 0 0 201.85 80.53
  Q 201.01 75.66 195.94 72.96
  Q 189.99 68.83 182.04 71.80
  Q 192.74 66.37 201.29 76.94
  A 1.65 1.47 -77.3 0 1 201.54 77.39
  L 203.02 81.54
  A 9.07 8.51 -61.6 0 1 203.40 82.98
  Q 203.67 84.59 202.15 90.27
  Q 200.81 95.27 196.39 95.02
  Z"
/>
<path fill="#98aeca" d="
  M 117.81 86.07
  Q 118.78 86.92 118.59 88.66
  Q 118.44 90.10 118.78 90.69
  Q 119.37 91.70 120.53 91.74
  Q 122.08 92.24 123.02 91.98
  Q 123.77 93.24 124.91 93.42
  A 1.26 1.20 -13.2 0 1 125.68 93.87
  Q 127.00 95.53 127.98 95.93
  Q 131.56 97.40 133.70 94.83
  L 139.10 91.74
  A 1.41 1.34 -0.8 0 0 139.59 91.26
  Q 140.98 88.95 140.53 87.15
  C 140.15 85.65 141.40 84.21 141.13 82.73
  Q 140.78 80.88 140.76 79.47
  A 2.11 2.00 -61.1 0 0 140.52 78.54
  Q 140.00 77.58 139.33 77.40
  L 135.28 75.36
  L 135.82 75.54
  A 0.25 0.24 -13.8 0 0 136.07 75.13
  Q 132.97 72.23 131.41 71.54
  Q 127.35 69.74 123.05 72.80
  A 0.53 0.53 0.0 0 0 123.23 73.74
  Q 123.51 73.80 124.20 72.65
  A 0.15 0.14 -61.5 0 1 124.39 72.59
  Q 124.51 72.65 124.80 72.49
  A 0.18 0.06 -50.7 0 1 124.71 72.74
  Q 122.72 74.05 120.96 75.24
  A 1.64 1.53 -65.5 0 1 120.38 75.48
  Q 118.65 75.82 116.95 77.83
  Q 116.53 76.96 118.20 75.21
  Q 123.54 69.61 130.51 70.53
  A 2.05 2.00 -26.1 0 1 131.24 70.77
  Q 135.09 72.86 137.08 75.03
  A 2.70 2.63 -8.9 0 0 138.01 75.69
  Q 142.27 77.53 141.62 82.75
  Q 141.30 85.28 141.13 90.15
  A 0.26 0.26 0.0 0 0 141.40 90.42
  A 0.23 0.22 -1.2 0 0 141.63 90.19
  Q 141.56 87.33 141.77 84.25
  A 0.08 0.04 56.4 0 1 141.88 84.31
  Q 141.89 84.35 141.91 84.40
  A 0.45 0.07 72.5 0 1 141.94 84.60
  L 142.03 90.05
  A 1.05 1.03 69.9 0 1 141.67 90.84
  Q 135.75 95.81 132.21 97.01
  C 129.45 97.94 127.35 96.61 124.56 94.81
  Q 124.14 94.55 124.10 93.91
  A 0.57 0.56 -81.3 0 0 123.74 93.41
  L 120.61 92.16
  A 0.12 0.12 0.0 0 0 120.46 92.32
  Q 120.50 92.40 120.23 92.60
  A 0.09 0.08 -47.9 0 1 120.13 92.61
  Q 116.69 90.69 117.81 86.07
  Z"
/>
<path fill="#090c12" fill-opacity="0.992" d="
  M 195.94 72.96
  Q 196.95 74.74 198.00 76.27
  C 200.08 79.31 200.36 81.53 200.37 85.02
  A 0.12 0.12 0.0 0 1 200.16 85.09
  C 200.10 85.02 200.17 83.32 200.13 82.39
  Q 200.10 87.37 200.12 87.79
  A 0.17 0.16 -1.8 0 0 200.29 87.94
  L 200.55 87.94
  A 0.32 0.32 0.0 0 0 200.87 87.62
  C 200.87 85.61 200.87 83.62 200.87 81.64
  C 200.91 84.24 200.96 86.86 201.04 89.49
  Q 200.40 93.31 196.39 95.02
  Q 193.04 97.07 189.23 97.43
  A 0.10 0.08 52.0 0 1 189.19 97.42
  L 179.80 93.50
  A 0.82 0.67 -5.7 0 1 179.56 93.34
  Q 178.12 91.91 177.71 90.37
  Q 176.77 86.90 175.82 85.19
  A 2.00 1.91 -60.3 0 1 175.57 84.19
  Q 175.66 79.44 177.95 75.25
  A 1.05 0.88 -10.2 0 1 178.20 74.95
  L 182.04 71.80
  Q 189.99 68.83 195.94 72.96
  Z
  M 196.91 89.96
  Q 199.21 86.94 198.89 82.87
  A 1.73 1.73 0.0 0 0 198.51 81.91
  L 195.46 78.15
  A 1.88 1.83 -0.8 0 0 195.09 77.80
  Q 187.79 72.67 182.18 77.91
  Q 180.06 79.90 179.92 80.08
  C 176.74 84.29 183.76 91.98 186.36 94.56
  Q 188.02 96.21 191.02 95.59
  A 2.09 2.08 16.0 0 0 192.11 94.99
  L 196.90 89.98
  A 0.03 0.02 -31.7 0 0 196.91 89.96
  Z"
/>
<path fill="#455476" fill-opacity="0.996" d="
  M 135.28 75.36
  L 134.50 74.97
  A 0.19 0.18 88.1 0 0 134.26 75.23
  Q 134.52 75.72 134.85 76.21
  A 1.25 1.12 -28.8 0 1 134.25 77.92
  Q 134.12 77.98 133.97 77.62
  A 0.72 0.72 0.0 0 0 133.36 77.16
  Q 127.77 76.77 126.03 77.27
  Q 121.31 78.63 118.45 79.36
  A 0.73 0.72 76.9 0 0 117.92 80.22
  L 120.53 91.74
  Q 119.37 91.70 118.78 90.69
  Q 118.44 90.10 118.59 88.66
  Q 118.78 86.92 117.81 86.07
  L 116.31 81.72
  A 1.74 1.71 -48.4 0 1 116.26 80.74
  L 116.95 77.83
  Q 118.65 75.82 120.38 75.48
  A 1.64 1.53 -65.5 0 0 120.96 75.24
  Q 122.72 74.05 124.71 72.74
  A 0.18 0.06 -50.7 0 0 124.80 72.49
  Q 124.51 72.65 124.39 72.59
  A 0.15 0.14 -61.5 0 0 124.20 72.65
  Q 123.51 73.80 123.23 73.74
  A 0.53 0.53 0.0 0 1 123.05 72.80
  Q 127.35 69.74 131.41 71.54
  Q 132.97 72.23 136.07 75.13
  A 0.25 0.24 -13.8 0 1 135.82 75.54
  L 135.28 75.36
  Z"
/>
<path fill="#191a30" fill-opacity="0.996" d="
  M 195.94 72.96
  Q 201.01 75.66 201.85 80.53
  A 3.27 3.17 -44.1 0 1 201.81 81.81
  Q 201.44 83.47 201.77 84.89
  A 2.77 2.74 44.8 0 1 201.78 86.05
  L 201.04 89.49
  C 200.96 86.86 200.91 84.24 200.87 81.64
  C 200.87 83.62 200.87 85.61 200.87 87.62
  A 0.32 0.32 0.0 0 1 200.55 87.94
  L 200.29 87.94
  A 0.17 0.16 -1.8 0 1 200.12 87.79
  Q 200.10 87.37 200.13 82.39
  C 200.17 83.32 200.10 85.02 200.16 85.09
  A 0.12 0.12 0.0 0 0 200.37 85.02
  C 200.36 81.53 200.08 79.31 198.00 76.27
  Q 196.95 74.74 195.94 72.96
  Z"
/>
<path fill="#191a30" fill-opacity="0.996" d="
  M 135.28 75.36
  L 139.33 77.40
  L 135.47 77.98
  A 0.22 0.22 0.0 0 0 135.43 78.41
  Q 139.97 79.81 138.95 84.07
  Q 138.40 81.67 136.18 80.21
  Q 133.59 79.95 129.81 78.69
  Q 128.31 78.20 125.06 78.82
  Q 122.45 79.22 120.26 80.74
  A 1.47 1.46 72.7 0 0 119.62 81.97
  Q 119.69 88.58 123.02 91.98
  Q 122.08 92.24 120.53 91.74
  L 117.92 80.22
  A 0.73 0.72 76.9 0 1 118.45 79.36
  Q 121.31 78.63 126.03 77.27
  Q 127.77 76.77 133.36 77.16
  A 0.72 0.72 0.0 0 1 133.97 77.62
  Q 134.12 77.98 134.25 77.92
  A 1.25 1.12 -28.8 0 0 134.85 76.21
  Q 134.52 75.72 134.26 75.23
  A 0.19 0.18 88.1 0 1 134.50 74.97
  L 135.28 75.36
  Z"
/>
<path fill="#455476" fill-opacity="0.996" d="
  M 133.70 94.83
  Q 133.83 94.65 133.92 94.50
  A 0.24 0.24 0.0 0 0 133.54 94.20
  L 133.35 94.39
  A 0.27 0.27 0.0 0 1 132.90 94.14
  Q 133.23 92.58 134.22 91.26
  Q 136.83 87.76 138.95 84.07
  Q 139.97 79.81 135.43 78.41
  A 0.22 0.22 0.0 0 1 135.47 77.98
  L 139.33 77.40
  Q 140.00 77.58 140.52 78.54
  A 2.11 2.00 -61.1 0 1 140.76 79.47
  Q 140.78 80.88 141.13 82.73
  C 141.40 84.21 140.15 85.65 140.53 87.15
  Q 140.98 88.95 139.59 91.26
  A 1.41 1.34 -0.8 0 1 139.10 91.74
  L 133.70 94.83
  Z"
/>
<path fill="#98aeca" d="
  M 59.80 83.96
  Q 50.45 80.95 47.59 91.17
  Q 47.33 88.10 48.11 85.69
  Q 48.74 83.74 50.56 82.36
  Q 52.57 80.84 53.92 78.39
  A 1.09 1.01 -5.9 0 1 54.22 78.05
  Q 55.57 77.01 56.55 79.02
  A 0.23 0.23 0.0 0 1 56.21 79.31
  Q 55.43 78.75 54.79 78.65
  A 0.23 0.22 -54.1 0 0 54.62 78.68
  Q 54.18 78.95 54.13 79.10
  A 0.24 0.24 0.0 0 0 54.45 79.39
  Q 55.63 78.85 56.16 79.58
  Q 57.82 81.89 59.80 83.96
  Z"
/>
<path fill="#090c12" fill-opacity="0.992" d="
  M 125.06 78.82
  L 121.10 80.96
  A 1.33 1.32 78.2 0 0 120.42 82.01
  Q 120.20 84.82 121.46 88.05
  A 1.63 1.63 0.0 0 0 121.93 88.71
  L 126.01 92.14
  A 2.69 2.69 0.0 0 0 128.78 92.55
  L 132.04 91.16
  A 1.05 1.02 -79.5 0 0 132.42 90.89
  L 136.32 86.58
  A 0.57 0.48 85.3 0 0 136.42 86.44
  Q 137.34 84.75 137.77 82.48
  Q 137.90 81.79 136.18 80.21
  Q 138.40 81.67 138.95 84.07
  Q 136.83 87.76 134.22 91.26
  Q 133.23 92.58 132.90 94.14
  A 0.27 0.27 0.0 0 0 133.35 94.39
  L 133.54 94.20
  A 0.24 0.24 0.0 0 1 133.92 94.50
  Q 133.83 94.65 133.70 94.83
  Q 131.56 97.40 127.98 95.93
  Q 127.00 95.53 125.68 93.87
  A 1.26 1.20 -13.2 0 0 124.91 93.42
  Q 123.77 93.24 123.02 91.98
  Q 119.69 88.58 119.62 81.97
  A 1.47 1.46 72.7 0 1 120.26 80.74
  Q 122.45 79.22 125.06 78.82
  Z"
/>
<path fill="#b9d4ef" d="
  M 59.80 83.96
  C 64.90 87.04 64.11 95.65 63.37 100.69
  Q 62.29 108.01 61.94 109.11
  A 12.24 5.36 -72.2 0 1 61.39 110.75
  Q 61.33 110.92 58.40 115.45
  A 2.11 2.08 89.5 0 1 57.82 116.05
  Q 54.58 118.29 50.85 117.48
  A 0.83 0.80 -15.8 0 1 50.44 117.26
  L 47.92 114.73
  A 1.25 1.24 20.0 0 1 47.56 113.96
  Q 46.58 102.31 47.59 91.17
  Q 50.45 80.95 59.80 83.96
  Z"
/>
<path fill="#6c7fa0" fill-opacity="0.992" d="
  M 84.09 135.21
  Q 83.45 139.67 84.32 144.14
  L 84.12 146.29
  A 1.71 1.70 68.1 0 1 83.72 147.24
  Q 82.79 148.33 82.88 149.73
  Q 82.90 150.05 82.61 150.18
  Q 82.34 150.30 82.18 150.12
  A 0.22 0.21 31.0 0 1 82.13 149.94
  L 82.78 145.24
  A 9.08 8.84 -44.2 0 0 82.83 143.40
  Q 82.19 135.80 83.17 128.46
  L 83.63 119.82
  A 0.26 0.23 -89.8 0 1 83.85 119.57
  L 83.86 119.57
  A 0.24 0.23 -1.2 0 1 84.11 119.80
  L 84.09 135.21
  Z"
/>
<path fill="#455476" fill-opacity="0.996" d="
  M 222.93 159.87
  C 223.14 163.96 222.00 169.14 227.34 170.54
  C 231.41 171.62 237.91 170.32 242.00 170.57
  Q 249.40 171.01 251.93 171.83
  C 255.95 173.13 255.46 178.19 256.00 181.63
  L 256.00 185.20
  Q 251.91 178.87 245.14 175.42
  L 232.03 174.92
  A 5.03 4.90 -49.1 0 0 230.74 175.03
  L 225.92 176.10
  A 3.19 3.11 40.0 0 1 225.13 176.16
  L 217.27 175.79
  A 1.10 0.97 -30.1 0 1 217.02 175.74
  Q 215.32 175.04 213.26 175.07
  Q 199.56 175.28 188.17 175.40
  C 184.81 175.43 179.76 174.80 175.49 175.15
  L 160.34 174.74
  A 1.86 1.86 0.0 0 1 158.85 171.85
  L 159.28 171.21
  A 7.69 7.66 -77.0 0 1 164.61 167.87
  C 171.01 167.00 177.88 167.80 184.27 167.44
  Q 194.05 166.91 206.15 168.29
  Q 208.32 168.54 214.38 167.67
  Q 221.05 166.72 222.93 159.87
  Z"
/>
<path fill="#090c12" fill-opacity="0.992" d="
  M 51.73 168.99
  L 55.47 170.72
  Q 50.50 170.00 48.77 170.46
  Q 46.41 171.08 41.39 174.97
  A 0.13 0.13 0.0 0 1 41.18 174.85
  Q 41.21 174.66 41.29 174.52
  A 0.03 0.03 0.0 0 0 41.24 174.48
  L 39.31 176.09
  A 0.99 0.99 0.0 0 1 38.41 176.28
  Q 34.91 175.27 31.89 173.12
  C 34.05 173.81 35.64 175.07 38.15 174.49
  A 2.43 2.36 20.8 0 0 38.96 174.14
  Q 44.81 170.20 51.73 168.99
  Z"
/>
<path fill="#b9d4ef" d="
  M 175.49 175.15
  C 179.76 174.80 184.81 175.43 188.17 175.40
  Q 199.56 175.28 213.26 175.07
  Q 215.32 175.04 217.02 175.74
  A 1.10 0.97 -30.1 0 0 217.27 175.79
  L 225.13 176.16
  A 3.19 3.11 40.0 0 0 225.92 176.10
  L 230.74 175.03
  A 5.03 4.90 -49.1 0 1 232.03 174.92
  L 245.14 175.42
  C 253.88 186.03 249.22 197.41 248.70 209.34
  Q 248.03 224.93 248.67 243.78
  A 2.10 2.10 0.0 0 1 247.80 245.54
  Q 244.21 248.10 239.37 248.31
  Q 235.54 248.48 211.00 248.60
  Q 198.48 248.66 100.65 248.62
  C 85.86 248.61 74.08 249.34 61.31 250.11
  C 54.19 250.53 45.97 249.82 45.61 240.47
  Q 45.48 237.29 45.75 230.74
  Q 45.85 228.49 44.77 221.12
  C 44.34 218.18 44.22 215.02 44.00 211.96
  Q 44.03 193.03 43.08 185.88
  C 42.24 179.60 46.19 176.43 50.50 173.24
  Q 51.58 172.44 54.74 171.91
  A 0.05 0.05 0.0 0 1 54.76 172.01
  Q 54.68 172.03 54.46 172.06
  A 0.13 0.06 41.8 0 0 54.54 172.23
  Q 54.56 172.25 54.61 172.24
  Q 57.36 171.55 61.43 171.77
  Q 65.66 172.01 68.16 171.99
  Q 76.16 171.92 87.10 172.63
  A 1.39 1.35 67.5 0 1 87.94 172.99
  Q 88.53 173.51 89.27 173.58
  C 96.71 174.32 104.08 173.08 111.25 173.77
  C 119.78 174.59 126.36 175.56 133.28 175.71
  Q 146.92 176.03 152.25 175.82
  Q 169.69 175.16 175.49 175.15
  Z"
/>
<path fill="#98aeca" d="
  M 256.00 185.20
  L 256.00 247.25
  Q 249.28 249.69 245.88 256.00
  L 44.89 256.00
  Q 42.65 251.38 42.88 247.77
  Q 44.18 227.52 43.28 207.26
  A 0.17 0.16 86.5 0 1 43.43 207.08
  L 43.44 207.08
  A 0.16 0.16 0.0 0 1 43.62 207.23
  L 44.00 211.96
  C 44.22 215.02 44.34 218.18 44.77 221.12
  Q 45.85 228.49 45.75 230.74
  Q 45.48 237.29 45.61 240.47
  C 45.97 249.82 54.19 250.53 61.31 250.11
  C 74.08 249.34 85.86 248.61 100.65 248.62
  Q 198.48 248.66 211.00 248.60
  Q 235.54 248.48 239.37 248.31
  Q 244.21 248.10 247.80 245.54
  A 2.10 2.10 0.0 0 0 248.67 243.78
  Q 248.03 224.93 248.70 209.34
  C 249.22 197.41 253.88 186.03 245.14 175.42
  Q 251.91 178.87 256.00 185.20
  Z"
/>
<path fill="#98aeca" d="
  M 24.20 178.24
  Q 22.69 179.70 18.35 181.84
  Q 15.75 183.13 10.80 188.34
  A 2.28 2.27 76.2 0 0 10.30 189.17
  Q 7.23 198.43 7.21 208.37
  A 0.04 0.03 -14.9 0 1 7.19 208.40
  Q 7.18 208.41 7.18 208.42
  A 0.02 0.02 0.0 0 1 7.14 208.41
  Q 6.40 198.11 10.17 188.53
  A 0.21 0.20 -66.8 0 0 10.07 188.27
  A 0.20 0.20 0.0 0 0 9.82 188.35
  Q 6.18 195.43 6.28 202.76
  Q 6.37 209.61 7.73 225.11
  C 8.16 230.01 7.65 235.14 7.94 239.98
  C 8.40 247.68 13.45 248.69 19.87 249.33
  Q 24.24 249.76 29.74 250.19
  A 1.14 1.14 0.0 0 0 30.94 249.27
  Q 32.66 239.97 31.90 231.22
  C 31.48 226.47 31.19 220.38 32.02 217.47
  Q 34.10 210.15 34.15 207.89
  Q 34.38 197.91 35.47 189.50
  Q 35.65 188.10 35.37 183.28
  A 0.06 0.06 0.0 0 0 35.26 183.25
  Q 35.19 183.37 35.23 183.51
  Q 35.32 183.81 35.31 183.91
  C 34.53 189.94 33.63 195.96 33.63 201.11
  C 33.60 198.67 33.47 196.51 33.91 193.98
  Q 35.27 186.34 34.51 179.20
  Q 35.46 179.59 36.49 182.30
  A 0.74 0.74 0.0 0 0 37.86 182.34
  L 38.30 181.36
  Q 40.19 182.10 39.91 185.06
  Q 39.42 190.26 39.00 195.51
  C 38.34 203.67 39.83 211.76 39.91 219.28
  Q 39.95 222.82 38.64 227.36
  C 36.45 234.95 34.80 239.18 33.86 246.51
  Q 33.26 251.27 32.54 256.00
  L 6.91 256.00
  Q 4.13 251.84 0.00 248.99
  L 0.00 193.12
  Q 0.23 192.80 0.29 192.03
  Q 5.66 188.15 11.26 184.64
  Q 11.28 184.62 11.32 184.63
  A 0.06 0.05 29.1 0 1 11.36 184.72
  L 5.43 188.86
  A 0.09 0.09 0.0 0 0 5.41 188.99
  L 5.59 189.25
  A 0.23 0.22 -30.4 0 0 5.88 189.32
  Q 11.63 186.29 16.59 181.93
  A 9.68 9.48 10.1 0 1 18.42 180.68
  Q 22.46 178.58 24.32 177.23
  A 0.29 0.14 -25.3 0 1 24.73 177.23
  Q 24.70 177.35 24.76 177.39
  A 0.17 0.03 -40.1 0 1 24.64 177.54
  Q 23.53 178.43 24.20 178.24
  Z"
/>
<path fill="#b9d4ef" d="
  M 34.51 179.20
  Q 35.27 186.34 33.91 193.98
  C 33.47 196.51 33.60 198.67 33.63 201.11
  C 33.63 195.96 34.53 189.94 35.31 183.91
  Q 35.32 183.81 35.23 183.51
  Q 35.19 183.37 35.26 183.25
  A 0.06 0.06 0.0 0 1 35.37 183.28
  Q 35.65 188.10 35.47 189.50
  Q 34.38 197.91 34.15 207.89
  Q 34.10 210.15 32.02 217.47
  C 31.19 220.38 31.48 226.47 31.90 231.22
  Q 32.66 239.97 30.94 249.27
  A 1.14 1.14 0.0 0 1 29.74 250.19
  Q 24.24 249.76 19.87 249.33
  C 13.45 248.69 8.40 247.68 7.94 239.98
  C 7.65 235.14 8.16 230.01 7.73 225.11
  Q 6.37 209.61 6.28 202.76
  Q 6.18 195.43 9.82 188.35
  A 0.20 0.20 0.0 0 1 10.07 188.27
  A 0.21 0.20 -66.8 0 1 10.17 188.53
  Q 6.40 198.11 7.14 208.41
  A 0.02 0.02 0.0 0 0 7.18 208.42
  Q 7.18 208.41 7.19 208.40
  A 0.04 0.03 -14.9 0 0 7.21 208.37
  Q 7.23 198.43 10.30 189.17
  A 2.28 2.27 76.2 0 1 10.80 188.34
  Q 15.75 183.13 18.35 181.84
  Q 22.69 179.70 24.20 178.24
  Q 27.60 177.08 31.25 177.38
  Q 32.08 177.44 34.51 179.20
  Z"
/>
<path fill="#6c7fa0" fill-opacity="0.992" d="
  M 256.00 247.25
  L 256.00 256.00
  L 245.88 256.00
  Q 249.28 249.69 256.00 247.25
  Z"
/>
<path fill="#6c7fa0" fill-opacity="0.992" d="
  M 6.91 256.00
  L 0.00 256.00
  L 0.00 248.99
  Q 4.13 251.84 6.91 256.00
  Z"
/>
</svg>