<?xml version="1.0" encoding="UTF-8" standalone="no"?>
<!DOCTYPE svg PUBLIC "-//W3C//DTD SVG 1.1//EN" "http://www.w3.org/Graphics/SVG/1.1/DTD/svg11.dtd">
<svg xmlns="http://www.w3.org/2000/svg" version="1.1" viewBox="0.00 0.00 128.00 128.00" width="128" height="128">
<g stroke-width="2.00" fill="none" stroke-linecap="butt">
<path stroke="#808080" vector-effect="non-scaling-stroke" d="
  M 67.78 63.75
  Q 67.78 80.52 67.82 81.46
  A 0.41 0.41 0.0 0 0 68.14 81.85
  Q 72.21 82.71 73.70 79.71
  A 2.23 2.15 61.5 0 0 73.92 78.90
  Q 74.00 77.99 74.00 63.64
  Q 74.00 46.87 73.96 45.92
  A 0.41 0.41 0.0 0 0 73.64 45.54
  Q 69.57 44.68 68.08 47.68
  A 2.23 2.15 61.5 0 0 67.86 48.49
  Q 67.78 49.40 67.78 63.75"
/>
<path stroke="#808080" vector-effect="non-scaling-stroke" d="
  M 39.93 51.64
  Q 40.54 51.64 40.78 52.76
  Q 43.30 64.75 45.98 77.57
  A 3.58 3.52 24.3 0 0 46.41 78.68
  Q 48.97 82.98 54.50 81.85
  A 0.66 0.64 -88.3 0 0 55.00 81.36
  L 62.82 46.86
  A 1.39 1.38 88.9 0 0 61.11 45.21
  L 59.47 45.64
  A 4.82 4.81 -1.1 0 0 56.01 49.23
  L 51.23 70.31
  A 0.31 0.31 0.0 0 1 50.63 70.30
  Q 48.87 60.91 46.43 50.53
  C 45.73 47.53 43.03 45.48 39.93 45.48
  C 36.84 45.47 34.13 47.53 33.43 50.52
  Q 30.98 60.90 29.22 70.29
  A 0.31 0.31 0.0 0 1 28.62 70.30
  L 23.85 49.22
  A 4.82 4.81 1.2 0 0 20.40 45.62
  L 18.76 45.19
  A 1.39 1.38 -88.8 0 0 17.05 46.84
  L 24.84 81.35
  A 0.66 0.64 88.4 0 0 25.34 81.84
  Q 30.87 82.97 33.43 78.67
  A 3.58 3.52 -24.3 0 0 33.86 77.57
  Q 36.55 64.75 39.08 52.76
  Q 39.32 51.64 39.93 51.64"
/>
<path stroke="#808080" vector-effect="non-scaling-stroke" d="
  M 90.72 63.73
  Q 90.72 63.90 90.67 63.98
  Q 83.14 75.23 79.01 81.11
  A 0.56 0.55 17.4 0 0 79.47 81.98
  L 84.50 81.98
  A 2.62 2.61 17.5 0 0 86.64 80.87
  Q 90.61 75.17 94.14 69.81
  Q 94.22 69.69 94.53 69.69
  Q 94.85 69.69 94.93 69.81
  Q 98.46 75.17 102.42 80.87
  A 2.62 2.61 -17.5 0 0 104.56 81.99
  L 109.59 81.99
  A 0.56 0.55 -17.3 0 0 110.05 81.12
  Q 105.93 75.24 98.41 63.98
  Q 98.35 63.90 98.35 63.73
  Q 98.35 63.57 98.41 63.48
  Q 105.93 52.24 110.06 46.36
  A 0.56 0.55 17.4 0 0 109.60 45.49
  L 104.57 45.49
  A 2.62 2.61 17.5 0 0 102.43 46.60
  Q 98.46 52.30 94.93 57.65
  Q 94.85 57.77 94.54 57.77
  Q 94.23 57.77 94.15 57.65
  Q 90.62 52.29 86.65 46.59
  A 2.62 2.61 -17.5 0 0 84.51 45.48
  L 79.48 45.48
  A 0.56 0.55 -17.3 0 0 79.02 46.35
  Q 83.15 52.23 90.67 63.48
  Q 90.72 63.56 90.72 63.73"
/>
</g>
<path fill="#ffffff" d="
  M 128.00 0.00
  L 128.00 128.00
  L 0.00 128.00
  L 0.00 0.00
  L 128.00 0.00
  Z
  M 67.78 63.75
  Q 67.78 80.52 67.82 81.46
  A 0.41 0.41 0.0 0 0 68.14 81.85
  Q 72.21 82.71 73.70 79.71
  A 2.23 2.15 61.5 0 0 73.92 78.90
  Q 74.00 77.99 74.00 63.64
  Q 74.00 46.87 73.96 45.92
  A 0.41 0.41 0.0 0 0 73.64 45.54
  Q 69.57 44.68 68.08 47.68
  A 2.23 2.15 61.5 0 0 67.86 48.49
  Q 67.78 49.40 67.78 63.75
  Z
  M 39.93 51.64
  Q 40.54 51.64 40.78 52.76
  Q 43.30 64.75 45.98 77.57
  A 3.58 3.52 24.3 0 0 46.41 78.68
  Q 48.97 82.98 54.50 81.85
  A 0.66 0.64 -88.3 0 0 55.00 81.36
  L 62.82 46.86
  A 1.39 1.38 88.9 0 0 61.11 45.21
  L 59.47 45.64
  A 4.82 4.81 -1.1 0 0 56.01 49.23
  L 51.23 70.31
  A 0.31 0.31 0.0 0 1 50.63 70.30
  Q 48.87 60.91 46.43 50.53
  C 45.73 47.53 43.03 45.48 39.93 45.48
  C 36.84 45.47 34.13 47.53 33.43 50.52
  Q 30.98 60.90 29.22 70.29
  A 0.31 0.31 0.0 0 1 28.62 70.30
  L 23.85 49.22
  A 4.82 4.81 1.2 0 0 20.40 45.62
  L 18.76 45.19
  A 1.39 1.38 -88.8 0 0 17.05 46.84
  L 24.84 81.35
  A 0.66 0.64 88.4 0 0 25.34 81.84
  Q 30.87 82.97 33.43 78.67
  A 3.58 3.52 -24.3 0 0 33.86 77.57
  Q 36.55 64.75 39.08 52.76
  Q 39.32 51.64 39.93 51.64
  Z
  M 90.72 63.73
  Q 90.72 63.90 90.67 63.98
  Q 83.14 75.23 79.01 81.11
  A 0.56 0.55 17.4 0 0 79.47 81.98
  L 84.50 81.98
  A 2.62 2.61 17.5 0 0 86.64 80.87
  Q 90.61 75.17 94.14 69.81
  Q 94.22 69.69 94.53 69.69
  Q 94.85 69.69 94.93 69.81
  Q 98.46 75.17 102.42 80.87
  A 2.62 2.61 -17.5 0 0 104.56 81.99
  L 109.59 81.99
  A 0.56 0.55 -17.3 0 0 110.05 81.12
  Q 105.93 75.24 98.41 63.98
  Q 98.35 63.90 98.35 63.73
  Q 98.35 63.57 98.41 63.48
  Q 105.93 52.24 110.06 46.36
  A 0.56 0.55 17.4 0 0 109.60 45.49
  L 104.57 45.49
  A 2.62 2.61 17.5 0 0 102.43 46.60
  Q 98.46 52.30 94.93 57.65
  Q 94.85 57.77 94.54 57.77
  Q 94.23 57.77 94.15 57.65
  Q 90.62 52.29 86.65 46.59
  A 2.62 2.61 -17.5 0 0 84.51 45.48
  L 79.48 45.48
  A 0.56 0.55 -17.3 0 0 79.02 46.35
  Q 83.15 52.23 90.67 63.48
  Q 90.72 63.56 90.72 63.73
  Z"
/>
<path fill="#000000" d="
  M 67.78 63.75
  Q 67.78 49.40 67.86 48.49
  A 2.23 2.15 61.5 0 1 68.08 47.68
  Q 69.57 44.68 73.64 45.54
  A 0.41 0.41 0.0 0 1 73.96 45.92
  Q 74.00 46.87 74.00 63.64
  Q 74.00 77.99 73.92 78.90
  A 2.23 2.15 61.5 0 1 73.70 79.71
  Q 72.21 82.71 68.14 81.85
  A 0.41 0.41 0.0 0 1 67.82 81.46
  Q 67.78 80.52 67.78 63.75
  Z"
/>
<path fill="#000000" d="
  M 39.93 45.48
  C 43.03 45.48 45.73 47.53 46.43 50.53
  Q 48.87 60.91 50.63 70.30
  A 0.31 0.31 0.0 0 0 51.23 70.31
  L 56.01 49.23
  A 4.82 4.81 -1.1 0 1 59.47 45.64
  L 61.11 45.21
  A 1.39 1.38 88.9 0 1 62.82 46.86
  L 55.00 81.36
  A 0.66 0.64 -88.3 0 1 54.50 81.85
  Q 48.97 82.98 46.41 78.68
  A 3.58 3.52 24.3 0 1 45.98 77.57
  Q 43.30 64.75 40.78 52.76
  Q 40.54 51.64 39.93 51.64
  Q 39.32 51.64 39.08 52.76
  Q 36.55 64.75 33.86 77.57
  A 3.58 3.52 -24.3 0 1 33.43 78.67
  Q 30.87 82.97 25.34 81.84
  A 0.66 0.64 88.4 0 1 24.84 81.35
  L 17.05 46.84
  A 1.39 1.38 -88.8 0 1 18.76 45.19
  L 20.40 45.62
  A 4.82 4.81 1.2 0 1 23.85 49.22
  L 28.62 70.30
  A 0.31 0.31 0.0 0 0 29.22 70.29
  Q 30.98 60.90 33.43 50.52
  C 34.13 47.53 36.84 45.47 39.93 45.48
  Z"
/>
<path fill="#000000" d="
  M 94.54 57.77
  Q 94.85 57.77 94.93 57.65
  Q 98.46 52.30 102.43 46.60
  A 2.62 2.61 17.5 0 1 104.57 45.49
  L 109.60 45.49
  A 0.56 0.55 17.4 0 1 110.06 46.36
  Q 105.93 52.24 98.41 63.48
  Q 98.35 63.57 98.35 63.73
  Q 98.35 63.90 98.41 63.98
  Q 105.93 75.24 110.05 81.12
  A 0.56 0.55 -17.3 0 1 109.59 81.99
  L 104.56 81.99
  A 2.62 2.61 -17.5 0 1 102.42 80.87
  Q 98.46 75.17 94.93 69.81
  Q 94.85 69.69 94.53 69.69
  Q 94.22 69.69 94.14 69.81
  Q 90.61 75.17 86.64 80.87
  A 2.62 2.61 17.5 0 1 84.50 81.98
  L 79.47 81.98
  A 0.56 0.55 17.4 0 1 79.01 81.11
  Q 83.14 75.23 90.67 63.98
  Q 90.72 63.90 90.72 63.73
  Q 90.72 63.56 90.67 63.48
  Q 83.15 52.23 79.02 46.35
  A 0.56 0.55 -17.3 0 1 79.48 45.48
  L 84.51 45.48
  A 2.62 2.61 -17.5 0 1 86.65 46.59
  Q 90.62 52.29 94.15 57.65
  Q 94.23 57.77 94.54 57.77
  Z"
/>
</svg>