<?xml version="1.0" encoding="UTF-8" standalone="no"?>
<!DOCTYPE svg PUBLIC "-//W3C//DTD SVG 1.1//EN" "http://www.w3.org/Graphics/SVG/1.1/DTD/svg11.dtd">
<svg xmlns="http://www.w3.org/2000/svg" version="1.1" viewBox="0.00 0.00 256.00 256.00" width="128" height="128">
<g stroke-width="2.00" fill="none" stroke-linecap="butt">
<path stroke="#160059" vector-effect="non-scaling-stroke" d="
  M 63.90 0.00
  C 71.18 14.56 77.90 27.19 79.31 41.69
  C 80.75 56.38 76.28 72.23 71.07 88.15
  Q 68.02 97.51 62.86 103.83
  C 55.76 112.55 43.73 115.78 33.28 117.66
  Q 16.68 120.65 0.00 123.11"
/>
<path stroke="#1f016a" vector-effect="non-scaling-stroke" d="
  M 102.94 0.00
  Q 103.90 21.47 100.47 41.46
  Q 95.73 68.99 93.38 86.30
  C 91.24 102.10 85.67 114.77 69.75 120.47
  Q 59.73 124.06 56.37 124.74
  Q 28.13 130.45 0.00 136.59"
/>
<path stroke="#1f016a" vector-effect="non-scaling-stroke" d="
  M 165.55 0.00
  Q 173.06 6.20 177.13 8.54
  Q 209.89 27.41 235.54 46.03
  Q 243.89 52.10 256.00 63.06"
/>
<path stroke="#280176" vector-effect="non-scaling-stroke" d="
  M 256.00 74.08
  Q 243.71 64.41 231.48 54.76
  Q 204.53 33.49 171.52 22.75
  Q 154.37 17.16 136.74 20.74
  C 127.95 22.53 120.17 23.78 115.25 32.10
  Q 112.29 37.11 111.19 39.88
  C 102.85 60.97 100.99 82.69 101.57 105.51"
/>
<path stroke="#8974b8" vector-effect="non-scaling-stroke" d="
  M 101.57 105.51
  L 97.53 115.42"
/>
<path stroke="#8570b8" vector-effect="non-scaling-stroke" d="
  M 97.53 115.42
  Q 93.71 121.57 92.89 127.09"
/>
<path stroke="#280176" vector-effect="non-scaling-stroke" d="
  M 92.89 127.09
  Q 65.14 131.26 41.61 139.12
  Q 27.36 143.88 0.00 154.51"
/>
<path stroke="#33048a" vector-effect="non-scaling-stroke" d="
  M 256.00 90.57
  Q 240.26 79.03 224.74 67.26
  C 207.15 53.92 189.18 45.34 167.97 35.10
  A 1.46 1.43 -39.3 0 0 166.97 35.01
  C 165.88 35.31 165.22 35.73 163.91 35.58
  C 146.88 33.67 133.96 38.09 119.34 46.28"
/>
<path stroke="#8f74be" vector-effect="non-scaling-stroke" d="
  M 119.34 46.28
  Q 111.66 45.16 109.12 50.89
  Q 108.14 53.11 108.45 57.75
  Q 110.08 82.29 101.57 105.51"
/>
<path stroke="#3e0a9f" vector-effect="non-scaling-stroke" d="
  M 256.00 107.47
  Q 246.42 101.01 236.98 94.30
  Q 227.03 87.23 221.26 78.96
  Q 212.68 66.69 206.10 57.18
  A 1.28 1.28 0.0 0 0 205.39 56.66
  Q 197.36 54.33 191.67 60.29
  A 0.52 0.52 0.0 0 0 192.16 61.16
  L 201.83 59.02"
/>
<path stroke="#9578cc" vector-effect="non-scaling-stroke" d="
  M 201.83 59.02
  L 195.29 67.06
  A 4.34 4.34 0.0 0 1 192.59 68.62
  L 183.29 70.10"
/>
<path stroke="#480ca7" vector-effect="non-scaling-stroke" d="
  M 183.29 70.10
  Q 183.25 67.94 181.51 66.56"
/>
<path stroke="#3e0a9f" vector-effect="non-scaling-stroke" d="
  M 181.51 66.56
  C 170.44 65.31 162.80 63.14 150.76 59.64
  Q 142.35 57.20 129.30 55.52"
/>
<path stroke="#9578cc" vector-effect="non-scaling-stroke" d="
  M 129.30 55.52
  C 126.34 52.31 123.53 47.99 119.34 46.28"
/>
<path stroke="#9173cc" vector-effect="non-scaling-stroke" d="
  M 168.98 47.96
  C 169.46 48.23 170.73 51.56 172.11 54.75
  A 0.52 0.52 0.0 0 0 173.11 54.59
  L 173.73 47.40
  A 1.18 1.18 0.0 0 1 174.31 46.48
  L 179.26 43.63
  A 0.35 0.35 0.0 0 0 179.15 42.98
  C 177.23 42.65 173.81 42.41 172.59 41.70
  C 171.36 41.00 169.43 38.16 168.19 36.67
  A 0.35 0.35 0.0 0 0 167.57 36.90
  L 167.59 42.61
  A 1.18 1.18 0.0 0 1 167.08 43.57
  L 161.18 47.71
  A 0.52 0.52 0.0 0 0 161.54 48.65
  C 164.99 48.25 168.51 47.68 168.98 47.96"
/>
<path stroke="#9a7ad3" vector-effect="non-scaling-stroke" d="
  M 129.30 55.52
  L 139.11 67.41"
/>
<path stroke="#a47bda" vector-effect="non-scaling-stroke" d="
  M 139.11 67.41
  L 151.45 84.81"
/>
<path stroke="#aa80e5" vector-effect="non-scaling-stroke" d="
  M 151.45 84.81
  Q 161.39 100.09 168.99 116.72"
/>
<path stroke="#b381f0" vector-effect="non-scaling-stroke" d="
  M 168.99 116.72
  L 174.79 130.51"
/>
<path stroke="#c186f8" vector-effect="non-scaling-stroke" d="
  M 174.79 130.51
  L 180.12 146.29
  A 1.49 1.47 3.7 0 0 180.89 147.15
  L 184.23 148.69"
/>
<path stroke="#ece3ff" vector-effect="non-scaling-stroke" d="
  M 184.23 148.69
  Q 182.91 149.85 180.65 149.23
  A 1.93 1.85 72.8 0 1 179.82 148.77
  Q 169.33 138.99 163.18 127.94
  Q 156.90 116.68 150.61 105.31
  Q 143.47 92.40 129.42 76.53
  A 0.99 0.98 65.3 0 0 128.55 76.20
  Q 125.17 76.64 122.17 78.32
  A 1.41 1.37 -4.4 0 0 121.57 79.00
  Q 116.77 91.29 112.85 98.03
  Q 107.24 107.68 97.53 115.42"
/>
<path stroke="#4d0eae" vector-effect="non-scaling-stroke" d="
  M 181.51 66.56
  C 175.56 72.87 169.34 76.91 160.32 75.45
  Q 151.96 74.11 139.11 67.41"
/>
<path stroke="#4d0eae" vector-effect="non-scaling-stroke" d="
  M 256.00 112.97
  Q 242.98 104.97 229.98 96.91
  Q 220.06 90.76 216.40 80.93"
/>
<path stroke="#9a7ad3" vector-effect="non-scaling-stroke" d="
  M 216.40 80.93
  Q 210.82 75.38 204.09 71.43
  A 2.00 2.00 0.0 0 1 203.11 69.53
  L 204.01 59.09
  A 0.85 0.85 0.0 0 0 202.85 58.23
  Q 202.34 58.44 201.83 59.02"
/>
<path stroke="#a47bda" vector-effect="non-scaling-stroke" d="
  M 216.40 80.93
  L 201.69 79.66
  A 1.42 1.41 -76.1 0 0 200.26 80.53
  C 198.03 85.78 195.60 92.57 194.60 93.38
  A 0.90 0.90 0.0 0 1 193.14 92.74
  L 192.04 78.56
  A 2.46 2.45 10.5 0 0 190.64 76.53
  L 181.31 72.19
  A 0.85 0.85 0.0 0 1 181.28 70.67
  Q 182.09 70.26 183.29 70.10"
/>
<path stroke="#5e14c0" vector-effect="non-scaling-stroke" d="
  M 256.00 125.06
  Q 235.45 115.02 214.92 105.02
  Q 200.03 97.76 184.20 93.03
  Q 180.44 91.91 170.40 89.98
  Q 160.70 88.11 151.45 84.81"
/>
<path stroke="#bd81f8" vector-effect="non-scaling-stroke" d="
  M 184.23 148.69
  L 188.63 150.41"
/>
<path stroke="#c78afb" vector-effect="non-scaling-stroke" d="
  M 188.63 150.41
  L 214.24 160.74"
/>
<path stroke="#e6daff" vector-effect="non-scaling-stroke" d="
  M 214.24 160.74
  Q 205.81 169.07 197.31 175.52
  C 165.44 199.70 124.15 205.83 86.37 193.83
  Q 80.08 191.83 67.66 187.72
  Q 66.10 187.20 65.17 187.34
  A 1.09 1.08 -33.5 0 0 64.76 189.34
  Q 95.44 207.99 131.50 207.49
  Q 145.17 207.30 159.37 203.90
  Q 173.11 200.62 185.33 193.36
  Q 201.15 183.96 213.71 171.32
  Q 214.60 170.42 216.55 169.20"
/>
<path stroke="#d194fd" vector-effect="non-scaling-stroke" d="
  M 216.55 169.20
  Q 216.07 172.17 214.52 173.76
  Q 210.00 178.41 202.34 184.50"
/>
<path stroke="#d79dfe" vector-effect="non-scaling-stroke" d="
  M 202.34 184.50
  Q 189.08 194.73 173.49 201.21"
/>
<path stroke="#d7b1fd" vector-effect="non-scaling-stroke" d="
  M 173.49 201.21
  L 156.46 206.69"
/>
<path stroke="#d79dfe" vector-effect="non-scaling-stroke" d="
  M 156.46 206.69
  L 140.87 209.52"
/>
<path stroke="#d194fd" vector-effect="non-scaling-stroke" d="
  M 140.87 209.52
  L 134.25 210.04"
/>
<path stroke="#c78afb" vector-effect="non-scaling-stroke" d="
  M 134.25 210.04
  L 119.81 209.80"
/>
<path stroke="#bd81f8" vector-effect="non-scaling-stroke" d="
  M 119.81 209.80
  L 112.32 209.01"
/>
<path stroke="#af7cf0" vector-effect="non-scaling-stroke" d="
  M 112.32 209.01
  L 105.57 207.93"
/>
<path stroke="#a67ce5" vector-effect="non-scaling-stroke" d="
  M 105.57 207.93
  Q 90.93 204.97 77.51 198.99"
/>
<path stroke="#a077da" vector-effect="non-scaling-stroke" d="
  M 77.51 198.99
  Q 62.68 192.11 50.32 182.08"
/>
<path stroke="#9675d3" vector-effect="non-scaling-stroke" d="
  M 50.32 182.08
  Q 43.61 176.37 41.74 174.26
  Q 35.05 166.70 43.26 159.93"
/>
<path stroke="#ece3ff" vector-effect="non-scaling-stroke" d="
  M 43.26 159.93
  C 64.87 187.20 100.67 196.21 133.99 190.87"
/>
<path stroke="#af7cf0" vector-effect="non-scaling-stroke" d="
  M 133.99 190.87
  Q 134.32 191.02 134.65 190.83"
/>
<path stroke="#bd81f8" vector-effect="non-scaling-stroke" d="
  M 134.65 190.83
  L 148.20 189.07"
/>
<path stroke="#c78afb" vector-effect="non-scaling-stroke" d="
  M 148.20 189.07
  Q 169.21 184.74 186.71 172.26"
/>
<path stroke="#bd81f8" vector-effect="non-scaling-stroke" d="
  M 186.71 172.26
  Q 187.93 171.69 188.62 170.90
  A 0.39 0.39 0.0 0 0 188.47 170.28
  L 185.21 168.95"
/>
<path stroke="#af7cf0" vector-effect="non-scaling-stroke" d="
  M 185.21 168.95
  L 166.00 160.94"
/>
<path stroke="#a67ce5" vector-effect="non-scaling-stroke" d="
  M 166.00 160.94
  Q 162.94 155.57 161.66 149.04"
/>
<path stroke="#a077da" vector-effect="non-scaling-stroke" d="
  M 161.66 149.04
  Q 158.03 136.93 153.16 125.75"
/>
<path stroke="#9675d3" vector-effect="non-scaling-stroke" d="
  M 153.16 125.75
  Q 141.96 100.09 124.99 78.15
  A 0.20 0.20 0.0 0 0 124.63 78.24
  L 123.79 83.52"
/>
<path stroke="#9173cc" vector-effect="non-scaling-stroke" d="
  M 123.79 83.52
  L 119.77 98.50"
/>
<path stroke="#8b6fbe" vector-effect="non-scaling-stroke" d="
  M 119.77 98.50
  Q 114.79 113.00 106.06 125.46
  Q 102.42 130.66 99.86 131.28
  Q 96.23 132.16 92.89 127.09"
/>
<path stroke="#4d0eae" vector-effect="non-scaling-stroke" d="
  M 153.16 125.75
  C 149.43 123.74 143.36 120.44 142.19 127.33
  Q 141.01 134.29 139.74 138.70
  C 134.18 157.89 107.94 153.31 93.83 150.53"
/>
<path stroke="#9a7ad3" vector-effect="non-scaling-stroke" d="
  M 93.83 150.53
  Q 91.13 149.11 88.47 147.33
  Q 84.70 144.80 83.05 144.42
  C 77.80 143.22 74.73 143.98 69.41 146.70
  Q 56.26 153.42 43.26 159.93"
/>
<path stroke="#4d0eae" vector-effect="non-scaling-stroke" d="
  M 50.32 182.08
  Q 35.46 179.43 21.32 185.13
  Q 16.81 186.96 0.00 193.44"
/>
<path stroke="#3e0a9f" vector-effect="non-scaling-stroke" d="
  M 0.00 177.11
  Q 14.59 172.08 23.47 166.38
  Q 31.99 160.91 39.93 155.81
  Q 59.84 143.04 83.54 142.38
  Q 102.35 141.86 104.35 141.67
  C 115.19 140.65 125.28 137.36 127.96 125.38
  C 129.09 120.27 129.07 114.64 128.30 109.77
  Q 126.21 96.66 123.79 83.52"
/>
<path stroke="#33048a" vector-effect="non-scaling-stroke" d="
  M 0.00 160.22
  Q 19.02 152.81 37.87 145.12
  Q 57.13 137.25 75.03 135.08
  Q 84.81 133.88 91.32 133.31
  C 103.22 132.27 113.16 128.78 116.86 116.18
  Q 119.38 107.61 119.77 98.50"
/>
<path stroke="#6d1ad6" vector-effect="non-scaling-stroke" d="
  M 256.00 136.07
  C 241.86 129.79 229.61 125.31 215.47 123.17
  Q 192.35 119.67 168.99 116.72"
/>
<path stroke="#5e14c0" vector-effect="non-scaling-stroke" d="
  M 161.66 149.04
  C 154.49 149.22 150.72 155.12 147.99 161.05"
/>
<path stroke="#9d73da" vector-effect="non-scaling-stroke" d="
  M 147.99 161.05
  Q 145.58 160.37 142.69 160.83"
/>
<path stroke="#a077da" vector-effect="non-scaling-stroke" d="
  M 142.69 160.83
  Q 124.80 162.44 107.94 156.95"
/>
<path stroke="#a47bda" vector-effect="non-scaling-stroke" d="
  M 107.94 156.95
  Q 100.49 154.48 93.83 150.53"
/>
<path stroke="#841fe9" vector-effect="non-scaling-stroke" d="
  M 256.00 142.50
  C 230.60 134.99 201.52 130.06 174.79 130.51"
/>
<path stroke="#9c2df3" vector-effect="non-scaling-stroke" d="
  M 256.00 159.02
  C 234.00 150.60 211.94 148.91 188.63 150.41"
/>
<path stroke="#6d1ad6" vector-effect="non-scaling-stroke" d="
  M 166.00 160.94
  Q 158.26 163.40 154.05 168.15
  Q 151.34 171.21 148.10 174.37
  A 2.14 2.11 -75.2 0 1 147.24 174.88
  Q 131.54 179.81 121.92 180.32
  Q 110.13 180.94 104.06 180.09
  Q 88.85 177.97 73.43 176.01"
/>
<path stroke="#aa80e5" vector-effect="non-scaling-stroke" d="
  M 73.43 176.01
  L 68.16 172.60"
/>
<path stroke="#5e14c0" vector-effect="non-scaling-stroke" d="
  M 68.16 172.60
  Q 79.76 170.73 87.35 172.25
  Q 98.47 174.47 107.32 175.99
  Q 127.96 179.54 147.32 171.99
  A 1.77 1.72 7.1 0 0 148.06 171.43
  L 149.72 169.22"
/>
<path stroke="#a478e5" vector-effect="non-scaling-stroke" d="
  M 149.72 169.22
  Q 152.07 164.03 147.99 161.05"
/>
<path stroke="#ece3ff" vector-effect="non-scaling-stroke" d="
  M 107.94 156.95
  Q 99.37 156.20 89.46 156.34
  Q 76.24 156.53 69.08 166.70"
/>
<path stroke="#a47bda" vector-effect="non-scaling-stroke" d="
  M 69.08 166.70
  L 64.33 169.25
  A 0.36 0.36 0.0 0 0 64.29 169.86
  L 68.16 172.60"
/>
<path stroke="#b381f0" vector-effect="non-scaling-stroke" d="
  M 73.43 176.01
  Q 101.37 192.43 133.99 190.87"
/>
<path stroke="#af40f9" vector-effect="non-scaling-stroke" d="
  M 256.00 171.37
  L 216.83 167.22"
/>
<path stroke="#c486fb" vector-effect="non-scaling-stroke" d="
  M 216.83 167.22
  Q 216.33 164.09 214.24 160.74"
/>
<path stroke="#e6daff" vector-effect="non-scaling-stroke" d="
  M 142.69 160.83
  Q 125.33 166.28 107.29 163.36
  Q 97.42 161.76 87.57 160.02
  Q 82.86 159.18 79.95 160.11
  Q 78.64 160.52 78.28 161.62"
/>
<path stroke="#a077da" vector-effect="non-scaling-stroke" d="
  M 78.28 161.62
  L 69.08 166.70"
/>
<path stroke="#9d73da" vector-effect="non-scaling-stroke" d="
  M 149.72 169.22
  Q 134.85 175.71 117.75 174.47
  Q 96.39 172.91 78.28 161.62"
/>
<path stroke="#841fe9" vector-effect="non-scaling-stroke" d="
  M 185.21 168.95
  Q 172.97 170.82 166.18 174.60
  Q 159.16 178.50 152.15 182.41
  C 146.91 185.33 140.36 187.64 134.65 190.83"
/>
<path stroke="#ce90fd" vector-effect="non-scaling-stroke" d="
  M 216.83 167.22
  L 216.55 169.20"
/>
<path stroke="#c052fc" vector-effect="non-scaling-stroke" d="
  M 256.00 181.28
  Q 247.31 179.35 238.60 177.58
  Q 232.30 176.31 227.31 176.53
  C 221.45 176.80 217.18 179.28 211.61 182.09
  Q 207.75 184.05 202.34 184.50"
/>
<path stroke="#9c2df3" vector-effect="non-scaling-stroke" d="
  M 186.71 172.26
  Q 177.28 171.99 168.91 176.48
  Q 158.29 182.18 148.20 189.07"
/>
<path stroke="#ce69fe" vector-effect="non-scaling-stroke" d="
  M 256.00 195.33
  C 247.52 190.68 237.86 187.91 228.52 191.23
  C 222.45 193.38 219.04 195.04 214.41 194.63
  Q 211.94 194.40 204.70 193.10
  Q 203.01 192.79 195.68 193.89
  A 0.27 0.27 0.0 0 1 195.45 193.44
  Q 195.84 193.05 196.46 192.78
  A 0.26 0.26 0.0 0 0 196.57 192.42
  L 196.57 192.41
  A 0.22 0.21 -28.5 0 0 196.29 192.33
  L 182.81 198.96"
/>
<path stroke="#c670fc" vector-effect="non-scaling-stroke" d="
  M 182.81 198.96
  L 173.49 201.21"
/>
<path stroke="#5e14c0" vector-effect="non-scaling-stroke" d="
  M 77.51 198.99
  Q 66.83 198.03 56.26 198.63
  C 46.57 199.18 35.32 201.64 24.93 203.42
  Q 16.21 204.93 0.00 204.84"
/>
<path stroke="#db87fe" vector-effect="non-scaling-stroke" d="
  M 255.07 217.30
  C 253.36 211.57 250.27 208.42 244.54 206.28
  C 237.23 203.56 232.23 201.79 225.72 201.47
  Q 224.61 201.42 216.51 201.50
  Q 214.53 201.52 207.01 199.25
  C 199.58 197.02 194.37 197.79 186.46 200.91
  C 175.58 205.21 169.42 207.97 159.93 210.74
  Q 147.84 214.26 130.08 220.07
  Q 127.68 220.85 126.89 220.82
  A 0.24 0.24 0.0 0 1 126.82 220.35
  L 127.11 220.25
  A 0.30 0.30 0.0 0 0 127.05 219.66
  Q 126.51 219.60 125.79 219.97"
/>
<path stroke="#cd7efd" vector-effect="non-scaling-stroke" d="
  M 125.79 219.97
  Q 126.06 219.61 126.39 219.53
  Q 144.38 215.04 163.77 208.88
  Q 169.87 206.95 175.04 204.88
  C 181.24 202.40 186.69 200.82 189.58 197.99
  A 0.20 0.20 0.0 0 0 189.38 197.65
  L 179.55 200.97
  A 0.17 0.17 0.0 0 1 179.42 200.66
  L 182.81 198.96"
/>
<path stroke="#6d1ad6" vector-effect="non-scaling-stroke" d="
  M 105.57 207.93
  L 87.71 212.71"
/>
<path stroke="#8528e0" vector-effect="non-scaling-stroke" d="
  M 87.71 212.71
  L 65.25 215.25"
/>
<path stroke="#7b1fdd" vector-effect="non-scaling-stroke" d="
  M 65.25 215.25
  L 45.90 222.04"
/>
<path stroke="#8528e0" vector-effect="non-scaling-stroke" d="
  M 45.90 222.04
  Q 24.07 222.69 1.80 221.17"
/>
<path stroke="#d38efc" vector-effect="non-scaling-stroke" d="
  M 125.79 219.97
  Q 121.13 221.32 116.47 222.71
  C 107.95 225.26 104.04 227.05 93.41 230.99
  Q 84.61 234.25 80.00 237.13
  C 71.57 242.40 64.90 249.36 57.94 256.00"
/>
<path stroke="#bf67fb" vector-effect="non-scaling-stroke" d="
  M 35.06 254.23
  C 39.61 244.64 43.85 236.74 52.32 230.62"
/>
<path stroke="#c670fc" vector-effect="non-scaling-stroke" d="
  M 52.32 230.62
  L 75.10 228.14
  A 0.23 0.23 0.0 0 1 75.28 228.55
  Q 74.98 228.80 74.41 228.96
  A 0.34 0.33 44.2 0 0 74.42 229.61
  Q 75.66 229.91 83.00 228.54
  Q 85.44 228.09 90.99 225.43
  Q 93.99 223.99 99.68 222.48
  Q 119.38 217.26 124.80 216.21
  Q 130.89 215.02 138.08 212.63
  C 143.14 210.95 150.49 209.67 156.46 206.69"
/>
<path stroke="#e8a6fe" vector-effect="non-scaling-stroke" d="
  M 240.05 243.76
  C 242.42 229.97 240.21 221.07 226.58 214.91
  Q 217.48 210.79 206.91 207.69
  C 196.65 204.67 187.20 204.21 177.80 207.13
  Q 152.50 214.99 130.48 221.23
  C 127.55 222.06 123.03 223.60 120.71 224.70
  Q 103.42 232.85 100.18 234.81
  Q 95.10 237.89 93.03 239.95
  Q 86.31 246.61 82.58 249.02
  Q 77.66 252.20 68.27 256.00"
/>
<path stroke="#f2c1fe" vector-effect="non-scaling-stroke" d="
  M 219.48 254.61
  Q 221.54 248.26 222.02 242.91
  C 223.02 231.79 215.03 224.56 204.91 220.07
  C 195.82 216.03 186.10 215.30 175.95 216.93
  Q 156.65 220.01 140.00 232.12
  Q 136.58 234.60 123.35 244.44
  Q 116.82 249.30 102.14 256.00"
/>
<path stroke="#c052fc" vector-effect="non-scaling-stroke" d="
  M 52.32 230.62
  C 54.44 226.78 58.04 226.67 62.62 226.21
  C 67.63 225.71 74.63 225.38 81.73 223.96
  Q 102.09 219.89 114.66 217.51
  Q 124.79 215.59 140.87 209.52"
/>
<path stroke="#841fe9" vector-effect="non-scaling-stroke" d="
  M 112.32 209.01
  L 102.93 211.78"
/>
<path stroke="#8e28ec" vector-effect="non-scaling-stroke" d="
  M 102.93 211.78
  L 87.71 212.71"
/>
<path stroke="#9c2df3" vector-effect="non-scaling-stroke" d="
  M 119.81 209.80
  Q 111.63 212.79 102.93 211.78"
/>
<path stroke="#af40f9" vector-effect="non-scaling-stroke" d="
  M 25.35 250.33
  Q 29.21 242.75 33.77 235.65
  C 36.50 231.39 41.86 228.55 46.53 226.74
  Q 49.15 225.72 57.06 224.54
  C 82.95 220.68 108.70 216.02 134.25 210.04"
/>
<path stroke="#9c2df3" vector-effect="non-scaling-stroke" d="
  M 45.90 222.04
  Q 52.42 222.03 58.63 220.89
  Q 64.13 219.87 65.25 215.25"
/>
<path stroke="#f9d4ff" vector-effect="non-scaling-stroke" d="
  M 200.05 256.00
  Q 202.16 250.36 202.55 245.86
  C 203.55 234.47 193.35 227.38 182.93 225.21
  C 172.25 222.98 161.46 226.40 152.37 231.71
  Q 147.81 234.37 131.48 244.49
  Q 123.78 249.27 106.74 256.00"
/>
<path stroke="#fce1ff" vector-effect="non-scaling-stroke" d="
  M 183.81 256.00
  C 186.23 248.48 186.08 240.73 178.04 236.87
  C 169.22 232.64 158.21 236.01 149.84 240.17
  Q 134.08 248.00 118.34 256.00"
/>
</g>
<path fill="#11004d" d="
  M 63.90 0.00
  C 71.18 14.56 77.90 27.19 79.31 41.69
  C 80.75 56.38 76.28 72.23 71.07 88.15
  Q 68.02 97.51 62.86 103.83
  C 55.76 112.55 43.73 115.78 33.28 117.66
  Q 16.68 120.65 0.00 123.11
  L 0.00 44.54
  Q 1.13 32.78 6.53 23.77
  Q 19.15 2.74 44.44 0.00
  L 63.90 0.00
  Z"
/>
<path fill="#1b0064" d="
  M 102.94 0.00
  Q 103.90 21.47 100.47 41.46
  Q 95.73 68.99 93.38 86.30
  C 91.24 102.10 85.67 114.77 69.75 120.47
  Q 59.73 124.06 56.37 124.74
  Q 28.13 130.45 0.00 136.59
  L 0.00 123.11
  Q 16.68 120.65 33.28 117.66
  C 43.73 115.78 55.76 112.55 62.86 103.83
  Q 68.02 97.51 71.07 88.15
  C 76.28 72.23 80.75 56.38 79.31 41.69
  C 77.90 27.19 71.18 14.56 63.90 0.00
  L 102.94 0.00
  Z"
/>
<path fill="#220170" d="
  M 165.55 0.00
  Q 173.06 6.20 177.13 8.54
  Q 209.89 27.41 235.54 46.03
  Q 243.89 52.10 256.00 63.06
  L 256.00 74.08
  Q 243.71 64.41 231.48 54.76
  Q 204.53 33.49 171.52 22.75
  Q 154.37 17.16 136.74 20.74
  C 127.95 22.53 120.17 23.78 115.25 32.10
  Q 112.29 37.11 111.19 39.88
  C 102.85 60.97 100.99 82.69 101.57 105.51
  L 97.53 115.42
  Q 93.71 121.57 92.89 127.09
  Q 65.14 131.26 41.61 139.12
  Q 27.36 143.88 0.00 154.51
  L 0.00 136.59
  Q 28.13 130.45 56.37 124.74
  Q 59.73 124.06 69.75 120.47
  C 85.67 114.77 91.24 102.10 93.38 86.30
  Q 95.73 68.99 100.47 41.46
  Q 103.90 21.47 102.94 0.00
  L 165.55 0.00
  Z"
/>
<path fill="#1b0064" d="
  M 211.47 0.00
  C 235.63 2.34 253.66 20.28 256.00 44.45
  L 256.00 63.06
  Q 243.89 52.10 235.54 46.03
  Q 209.89 27.41 177.13 8.54
  Q 173.06 6.20 165.55 0.00
  L 211.47 0.00
  Z"
/>
<path fill="#2d007c" d="
  M 256.00 74.08
  L 256.00 90.57
  Q 240.26 79.03 224.74 67.26
  C 207.15 53.92 189.18 45.34 167.97 35.10
  A 1.46 1.43 -39.3 0 0 166.97 35.01
  C 165.88 35.31 165.22 35.73 163.91 35.58
  C 146.88 33.67 133.96 38.09 119.34 46.28
  Q 111.66 45.16 109.12 50.89
  Q 108.14 53.11 108.45 57.75
  Q 110.08 82.29 101.57 105.51
  C 100.99 82.69 102.85 60.97 111.19 39.88
  Q 112.29 37.11 115.25 32.10
  C 120.17 23.78 127.95 22.53 136.74 20.74
  Q 154.37 17.16 171.52 22.75
  Q 204.53 33.49 231.48 54.76
  Q 243.71 64.41 256.00 74.08
  Z"
/>
<path fill="#390898" d="
  M 256.00 90.57
  L 256.00 107.47
  Q 246.42 101.01 236.98 94.30
  Q 227.03 87.23 221.26 78.96
  Q 212.68 66.69 206.10 57.18
  A 1.28 1.28 0.0 0 0 205.39 56.66
  Q 197.36 54.33 191.67 60.29
  A 0.52 0.52 0.0 0 0 192.16 61.16
  L 201.83 59.02
  L 195.29 67.06
  A 4.34 4.34 0.0 0 1 192.59 68.62
  L 183.29 70.10
  Q 183.25 67.94 181.51 66.56
  C 170.44 65.31 162.80 63.14 150.76 59.64
  Q 142.35 57.20 129.30 55.52
  C 126.34 52.31 123.53 47.99 119.34 46.28
  C 133.96 38.09 146.88 33.67 163.91 35.58
  C 165.22 35.73 165.88 35.31 166.97 35.01
  A 1.46 1.43 -39.3 0 1 167.97 35.10
  C 189.18 45.34 207.15 53.92 224.74 67.26
  Q 240.26 79.03 256.00 90.57
  Z
  M 168.98 47.96
  C 169.46 48.23 170.73 51.56 172.11 54.75
  A 0.52 0.52 0.0 0 0 173.11 54.59
  L 173.73 47.40
  A 1.18 1.18 0.0 0 1 174.31 46.48
  L 179.26 43.63
  A 0.35 0.35 0.0 0 0 179.15 42.98
  C 177.23 42.65 173.81 42.41 172.59 41.70
  C 171.36 41.00 169.43 38.16 168.19 36.67
  A 0.35 0.35 0.0 0 0 167.57 36.90
  L 167.59 42.61
  A 1.18 1.18 0.0 0 1 167.08 43.57
  L 161.18 47.71
  A 0.52 0.52 0.0 0 0 161.54 48.65
  C 164.99 48.25 168.51 47.68 168.98 47.96
  Z"
/>
<path fill="#e8deff" d="
  M 172.59 41.70
  C 173.81 42.41 177.23 42.65 179.15 42.98
  A 0.35 0.35 0.0 0 1 179.26 43.63
  L 174.31 46.48
  A 1.18 1.18 0.0 0 0 173.73 47.40
  L 173.11 54.59
  A 0.52 0.52 0.0 0 1 172.11 54.75
  C 170.73 51.56 169.46 48.23 168.98 47.96
  C 168.51 47.68 164.99 48.25 161.54 48.65
  A 0.52 0.52 0.0 0 1 161.18 47.71
  L 167.08 43.57
  A 1.18 1.18 0.0 0 0 167.59 42.61
  L 167.57 36.90
  A 0.35 0.35 0.0 0 1 168.19 36.67
  C 169.43 38.16 171.36 41.00 172.59 41.70
  Z"
/>
<path fill="#f0e7ff" d="
  M 119.34 46.28
  C 123.53 47.99 126.34 52.31 129.30 55.52
  L 139.11 67.41
  L 151.45 84.81
  Q 161.39 100.09 168.99 116.72
  L 174.79 130.51
  L 180.12 146.29
  A 1.49 1.47 3.7 0 0 180.89 147.15
  L 184.23 148.69
  Q 182.91 149.85 180.65 149.23
  A 1.93 1.85 72.8 0 1 179.82 148.77
  Q 169.33 138.99 163.18 127.94
  Q 156.90 116.68 150.61 105.31
  Q 143.47 92.40 129.42 76.53
  A 0.99 0.98 65.3 0 0 128.55 76.20
  Q 125.17 76.64 122.17 78.32
  A 1.41 1.37 -4.4 0 0 121.57 79.00
  Q 116.77 91.29 112.85 98.03
  Q 107.24 107.68 97.53 115.42
  L 101.57 105.51
  Q 110.08 82.29 108.45 57.75
  Q 108.14 53.11 109.12 50.89
  Q 111.66 45.16 119.34 46.28
  Z"
/>
<path fill="#430ca6" d="
  M 181.51 66.56
  C 175.56 72.87 169.34 76.91 160.32 75.45
  Q 151.96 74.11 139.11 67.41
  L 129.30 55.52
  Q 142.35 57.20 150.76 59.64
  C 162.80 63.14 170.44 65.31 181.51 66.56
  Z"
/>
<path fill="#430ca6" d="
  M 256.00 107.47
  L 256.00 112.97
  Q 242.98 104.97 229.98 96.91
  Q 220.06 90.76 216.40 80.93
  Q 210.82 75.38 204.09 71.43
  A 2.00 2.00 0.0 0 1 203.11 69.53
  L 204.01 59.09
  A 0.85 0.85 0.0 0 0 202.85 58.23
  Q 202.34 58.44 201.83 59.02
  L 192.16 61.16
  A 0.52 0.52 0.0 0 1 191.67 60.29
  Q 197.36 54.33 205.39 56.66
  A 1.28 1.28 0.0 0 1 206.10 57.18
  Q 212.68 66.69 221.26 78.96
  Q 227.03 87.23 236.98 94.30
  Q 246.42 101.01 256.00 107.47
  Z"
/>
<path fill="#f0e7ff" d="
  M 216.40 80.93
  L 201.69 79.66
  A 1.42 1.41 -76.1 0 0 200.26 80.53
  C 198.03 85.78 195.60 92.57 194.60 93.38
  A 0.90 0.90 0.0 0 1 193.14 92.74
  L 192.04 78.56
  A 2.46 2.45 10.5 0 0 190.64 76.53
  L 181.31 72.19
  A 0.85 0.85 0.0 0 1 181.28 70.67
  Q 182.09 70.26 183.29 70.10
  L 192.59 68.62
  A 4.34 4.34 0.0 0 0 195.29 67.06
  L 201.83 59.02
  Q 202.34 58.44 202.85 58.23
  A 0.85 0.85 0.0 0 1 204.01 59.09
  L 203.11 69.53
  A 2.00 2.00 0.0 0 0 204.09 71.43
  Q 210.82 75.38 216.40 80.93
  Z"
/>
<path fill="#570fb5" d="
  M 183.29 70.10
  Q 182.09 70.26 181.28 70.67
  A 0.85 0.85 0.0 0 0 181.31 72.19
  L 190.64 76.53
  A 2.46 2.45 10.5 0 1 192.04 78.56
  L 193.14 92.74
  A 0.90 0.90 0.0 0 0 194.60 93.38
  C 195.60 92.57 198.03 85.78 200.26 80.53
  A 1.42 1.41 -76.1 0 1 201.69 79.66
  L 216.40 80.93
  Q 220.06 90.76 229.98 96.91
  Q 242.98 104.97 256.00 112.97
  L 256.00 125.06
  Q 235.45 115.02 214.92 105.02
  Q 200.03 97.76 184.20 93.03
  Q 180.44 91.91 170.40 89.98
  Q 160.70 88.11 151.45 84.81
  L 139.11 67.41
  Q 151.96 74.11 160.32 75.45
  C 169.34 76.91 175.56 72.87 181.51 66.56
  Q 183.25 67.94 183.29 70.10
  Z"
/>
<path fill="#e8deff" d="
  M 184.23 148.69
  L 188.63 150.41
  L 214.24 160.74
  Q 205.81 169.07 197.31 175.52
  C 165.44 199.70 124.15 205.83 86.37 193.83
  Q 80.08 191.83 67.66 187.72
  Q 66.10 187.20 65.17 187.34
  A 1.09 1.08 -33.5 0 0 64.76 189.34
  Q 95.44 207.99 131.50 207.49
  Q 145.17 207.30 159.37 203.90
  Q 173.11 200.62 185.33 193.36
  Q 201.15 183.96 213.71 171.32
  Q 214.60 170.42 216.55 169.20
  Q 216.07 172.17 214.52 173.76
  Q 210.00 178.41 202.34 184.50
  Q 189.08 194.73 173.49 201.21
  L 156.46 206.69
  L 140.87 209.52
  L 134.25 210.04
  L 119.81 209.80
  L 112.32 209.01
  L 105.57 207.93
  Q 90.93 204.97 77.51 198.99
  Q 62.68 192.11 50.32 182.08
  Q 43.61 176.37 41.74 174.26
  Q 35.05 166.70 43.26 159.93
  C 64.87 187.20 100.67 196.21 133.99 190.87
  Q 134.32 191.02 134.65 190.83
  L 148.20 189.07
  Q 169.21 184.74 186.71 172.26
  Q 187.93 171.69 188.62 170.90
  A 0.39 0.39 0.0 0 0 188.47 170.28
  L 185.21 168.95
  L 166.00 160.94
  Q 162.94 155.57 161.66 149.04
  Q 158.03 136.93 153.16 125.75
  Q 141.96 100.09 124.99 78.15
  A 0.20 0.20 0.0 0 0 124.63 78.24
  L 123.79 83.52
  L 119.77 98.50
  Q 114.79 113.00 106.06 125.46
  Q 102.42 130.66 99.86 131.28
  Q 96.23 132.16 92.89 127.09
  Q 93.71 121.57 97.53 115.42
  Q 107.24 107.68 112.85 98.03
  Q 116.77 91.29 121.57 79.00
  A 1.41 1.37 -4.4 0 1 122.17 78.32
  Q 125.17 76.64 128.55 76.20
  A 0.99 0.98 65.3 0 1 129.42 76.53
  Q 143.47 92.40 150.61 105.31
  Q 156.90 116.68 163.18 127.94
  Q 169.33 138.99 179.82 148.77
  A 1.93 1.85 72.8 0 0 180.65 149.23
  Q 182.91 149.85 184.23 148.69
  Z"
/>
<path fill="#430ca6" d="
  M 153.16 125.75
  C 149.43 123.74 143.36 120.44 142.19 127.33
  Q 141.01 134.29 139.74 138.70
  C 134.18 157.89 107.94 153.31 93.83 150.53
  Q 91.13 149.11 88.47 147.33
  Q 84.70 144.80 83.05 144.42
  C 77.80 143.22 74.73 143.98 69.41 146.70
  Q 56.26 153.42 43.26 159.93
  Q 35.05 166.70 41.74 174.26
  Q 43.61 176.37 50.32 182.08
  Q 35.46 179.43 21.32 185.13
  Q 16.81 186.96 0.00 193.44
  L 0.00 177.11
  Q 14.59 172.08 23.47 166.38
  Q 31.99 160.91 39.93 155.81
  Q 59.84 143.04 83.54 142.38
  Q 102.35 141.86 104.35 141.67
  C 115.19 140.65 125.28 137.36 127.96 125.38
  C 129.09 120.27 129.07 114.64 128.30 109.77
  Q 126.21 96.66 123.79 83.52
  L 124.63 78.24
  A 0.20 0.20 0.0 0 1 124.99 78.15
  Q 141.96 100.09 153.16 125.75
  Z"
/>
<path fill="#390898" d="
  M 0.00 177.11
  L 0.00 160.22
  Q 19.02 152.81 37.87 145.12
  Q 57.13 137.25 75.03 135.08
  Q 84.81 133.88 91.32 133.31
  C 103.22 132.27 113.16 128.78 116.86 116.18
  Q 119.38 107.61 119.77 98.50
  L 123.79 83.52
  Q 126.21 96.66 128.30 109.77
  C 129.07 114.64 129.09 120.27 127.96 125.38
  C 125.28 137.36 115.19 140.65 104.35 141.67
  Q 102.35 141.86 83.54 142.38
  Q 59.84 143.04 39.93 155.81
  Q 31.99 160.91 23.47 166.38
  Q 14.59 172.08 0.00 177.11
  Z"
/>
<path fill="#6419ca" d="
  M 256.00 125.06
  L 256.00 136.07
  C 241.86 129.79 229.61 125.31 215.47 123.17
  Q 192.35 119.67 168.99 116.72
  Q 161.39 100.09 151.45 84.81
  Q 160.70 88.11 170.40 89.98
  Q 180.44 91.91 184.20 93.03
  Q 200.03 97.76 214.92 105.02
  Q 235.45 115.02 256.00 125.06
  Z"
/>
<path fill="#2d007c" d="
  M 0.00 160.22
  L 0.00 154.51
  Q 27.36 143.88 41.61 139.12
  Q 65.14 131.26 92.89 127.09
  Q 96.23 132.16 99.86 131.28
  Q 102.42 130.66 106.06 125.46
  Q 114.79 113.00 119.77 98.50
  Q 119.38 107.61 116.86 116.18
  C 113.16 128.78 103.22 132.27 91.32 133.31
  Q 84.81 133.88 75.03 135.08
  Q 57.13 137.25 37.87 145.12
  Q 19.02 152.81 0.00 160.22
  Z"
/>
<path fill="#570fb5" d="
  M 153.16 125.75
  Q 158.03 136.93 161.66 149.04
  C 154.49 149.22 150.72 155.12 147.99 161.05
  Q 145.58 160.37 142.69 160.83
  Q 124.80 162.44 107.94 156.95
  Q 100.49 154.48 93.83 150.53
  C 107.94 153.31 134.18 157.89 139.74 138.70
  Q 141.01 134.29 142.19 127.33
  C 143.36 120.44 149.43 123.74 153.16 125.75
  Z"
/>
<path fill="#761ae1" d="
  M 256.00 136.07
  L 256.00 142.50
  C 230.60 134.99 201.52 130.06 174.79 130.51
  L 168.99 116.72
  Q 192.35 119.67 215.47 123.17
  C 229.61 125.31 241.86 129.79 256.00 136.07
  Z"
/>
<path fill="#9224f0" d="
  M 256.00 142.50
  L 256.00 159.02
  C 234.00 150.60 211.94 148.91 188.63 150.41
  L 184.23 148.69
  L 180.89 147.15
  A 1.49 1.47 3.7 0 1 180.12 146.29
  L 174.79 130.51
  C 201.52 130.06 230.60 134.99 256.00 142.50
  Z"
/>
<path fill="#6419ca" d="
  M 161.66 149.04
  Q 162.94 155.57 166.00 160.94
  Q 158.26 163.40 154.05 168.15
  Q 151.34 171.21 148.10 174.37
  A 2.14 2.11 -75.2 0 1 147.24 174.88
  Q 131.54 179.81 121.92 180.32
  Q 110.13 180.94 104.06 180.09
  Q 88.85 177.97 73.43 176.01
  L 68.16 172.60
  Q 79.76 170.73 87.35 172.25
  Q 98.47 174.47 107.32 175.99
  Q 127.96 179.54 147.32 171.99
  A 1.77 1.72 7.1 0 0 148.06 171.43
  L 149.72 169.22
  Q 152.07 164.03 147.99 161.05
  C 150.72 155.12 154.49 149.22 161.66 149.04
  Z"
/>
<path fill="#f0e7ff" d="
  M 93.83 150.53
  Q 100.49 154.48 107.94 156.95
  Q 99.37 156.20 89.46 156.34
  Q 76.24 156.53 69.08 166.70
  L 64.33 169.25
  A 0.36 0.36 0.0 0 0 64.29 169.86
  L 68.16 172.60
  L 73.43 176.01
  Q 101.37 192.43 133.99 190.87
  C 100.67 196.21 64.87 187.20 43.26 159.93
  Q 56.26 153.42 69.41 146.70
  C 74.73 143.98 77.80 143.22 83.05 144.42
  Q 84.70 144.80 88.47 147.33
  Q 91.13 149.11 93.83 150.53
  Z"
/>
<path fill="#a536f6" d="
  M 256.00 159.02
  L 256.00 171.37
  L 216.83 167.22
  Q 216.33 164.09 214.24 160.74
  L 188.63 150.41
  C 211.94 148.91 234.00 150.60 256.00 159.02
  Z"
/>
<path fill="#e8deff" d="
  M 107.94 156.95
  Q 124.80 162.44 142.69 160.83
  Q 125.33 166.28 107.29 163.36
  Q 97.42 161.76 87.57 160.02
  Q 82.86 159.18 79.95 160.11
  Q 78.64 160.52 78.28 161.62
  L 69.08 166.70
  Q 76.24 156.53 89.46 156.34
  Q 99.37 156.20 107.94 156.95
  Z"
/>
<path fill="#e3d6ff" d="
  M 142.69 160.83
  Q 145.58 160.37 147.99 161.05
  Q 152.07 164.03 149.72 169.22
  Q 134.85 175.71 117.75 174.47
  Q 96.39 172.91 78.28 161.62
  Q 78.64 160.52 79.95 160.11
  Q 82.86 159.18 87.57 160.02
  Q 97.42 161.76 107.29 163.36
  Q 125.33 166.28 142.69 160.83
  Z"
/>
<path fill="#761ae1" d="
  M 166.00 160.94
  L 185.21 168.95
  Q 172.97 170.82 166.18 174.60
  Q 159.16 178.50 152.15 182.41
  C 146.91 185.33 140.36 187.64 134.65 190.83
  Q 134.32 191.02 133.99 190.87
  Q 101.37 192.43 73.43 176.01
  Q 88.85 177.97 104.06 180.09
  Q 110.13 180.94 121.92 180.32
  Q 131.54 179.81 147.24 174.88
  A 2.14 2.11 -75.2 0 0 148.10 174.37
  Q 151.34 171.21 154.05 168.15
  Q 158.26 163.40 166.00 160.94
  Z"
/>
<path fill="#e3d6ff" d="
  M 214.24 160.74
  Q 216.33 164.09 216.83 167.22
  L 216.55 169.20
  Q 214.60 170.42 213.71 171.32
  Q 201.15 183.96 185.33 193.36
  Q 173.11 200.62 159.37 203.90
  Q 145.17 207.30 131.50 207.49
  Q 95.44 207.99 64.76 189.34
  A 1.09 1.08 -33.5 0 1 65.17 187.34
  Q 66.10 187.20 67.66 187.72
  Q 80.08 191.83 86.37 193.83
  C 124.15 205.83 165.44 199.70 197.31 175.52
  Q 205.81 169.07 214.24 160.74
  Z"
/>
<path fill="#570fb5" d="
  M 149.72 169.22
  L 148.06 171.43
  A 1.77 1.72 7.1 0 1 147.32 171.99
  Q 127.96 179.54 107.32 175.99
  Q 98.47 174.47 87.35 172.25
  Q 79.76 170.73 68.16 172.60
  L 64.29 169.86
  A 0.36 0.36 0.0 0 1 64.33 169.25
  L 69.08 166.70
  L 78.28 161.62
  Q 96.39 172.91 117.75 174.47
  Q 134.85 175.71 149.72 169.22
  Z"
/>
<path fill="#b949fb" d="
  M 256.00 171.37
  L 256.00 181.28
  Q 247.31 179.35 238.60 177.58
  Q 232.30 176.31 227.31 176.53
  C 221.45 176.80 217.18 179.28 211.61 182.09
  Q 207.75 184.05 202.34 184.50
  Q 210.00 178.41 214.52 173.76
  Q 216.07 172.17 216.55 169.20
  L 216.83 167.22
  L 256.00 171.37
  Z"
/>
<path fill="#9224f0" d="
  M 186.71 172.26
  Q 177.28 171.99 168.91 176.48
  Q 158.29 182.18 148.20 189.07
  L 134.65 190.83
  C 140.36 187.64 146.91 185.33 152.15 182.41
  Q 159.16 178.50 166.18 174.60
  Q 172.97 170.82 185.21 168.95
  L 188.47 170.28
  A 0.39 0.39 0.0 0 1 188.62 170.90
  Q 187.93 171.69 186.71 172.26
  Z"
/>
<path fill="#a536f6" d="
  M 186.71 172.26
  Q 169.21 184.74 148.20 189.07
  Q 158.29 182.18 168.91 176.48
  Q 177.28 171.99 186.71 172.26
  Z"
/>
<path fill="#c65bfd" d="
  M 256.00 181.28
  L 256.00 195.33
  C 247.52 190.68 237.86 187.91 228.52 191.23
  C 222.45 193.38 219.04 195.04 214.41 194.63
  Q 211.94 194.40 204.70 193.10
  Q 203.01 192.79 195.68 193.89
  A 0.27 0.27 0.0 0 1 195.45 193.44
  Q 195.84 193.05 196.46 192.78
  A 0.26 0.26 0.0 0 0 196.57 192.42
  L 196.57 192.41
  A 0.22 0.21 -28.5 0 0 196.29 192.33
  L 182.81 198.96
  L 173.49 201.21
  Q 189.08 194.73 202.34 184.50
  Q 207.75 184.05 211.61 182.09
  C 217.18 179.28 221.45 176.80 227.31 176.53
  Q 232.30 176.31 238.60 177.58
  Q 247.31 179.35 256.00 181.28
  Z"
/>
<path fill="#570fb5" d="
  M 50.32 182.08
  Q 62.68 192.11 77.51 198.99
  Q 66.83 198.03 56.26 198.63
  C 46.57 199.18 35.32 201.64 24.93 203.42
  Q 16.21 204.93 0.00 204.84
  L 0.00 193.44
  Q 16.81 186.96 21.32 185.13
  Q 35.46 179.43 50.32 182.08
  Z"
/>
<path fill="#d577fe" d="
  M 256.00 195.33
  L 256.00 211.47
  L 255.07 217.30
  C 253.36 211.57 250.27 208.42 244.54 206.28
  C 237.23 203.56 232.23 201.79 225.72 201.47
  Q 224.61 201.42 216.51 201.50
  Q 214.53 201.52 207.01 199.25
  C 199.58 197.02 194.37 197.79 186.46 200.91
  C 175.58 205.21 169.42 207.97 159.93 210.74
  Q 147.84 214.26 130.08 220.07
  Q 127.68 220.85 126.89 220.82
  A 0.24 0.24 0.0 0 1 126.82 220.35
  L 127.11 220.25
  A 0.30 0.30 0.0 0 0 127.05 219.66
  Q 126.51 219.60 125.79 219.97
  Q 126.06 219.61 126.39 219.53
  Q 144.38 215.04 163.77 208.88
  Q 169.87 206.95 175.04 204.88
  C 181.24 202.40 186.69 200.82 189.58 197.99
  A 0.20 0.20 0.0 0 0 189.38 197.65
  L 179.55 200.97
  A 0.17 0.17 0.0 0 1 179.42 200.66
  L 182.81 198.96
  L 196.29 192.33
  A 0.22 0.21 -28.5 0 1 196.57 192.41
  L 196.57 192.42
  A 0.26 0.26 0.0 0 1 196.46 192.78
  Q 195.84 193.05 195.45 193.44
  A 0.27 0.27 0.0 0 0 195.68 193.89
  Q 203.01 192.79 204.70 193.10
  Q 211.94 194.40 214.41 194.63
  C 219.04 195.04 222.45 193.38 228.52 191.23
  C 237.86 187.91 247.52 190.68 256.00 195.33
  Z"
/>
<path fill="#6419ca" d="
  M 77.51 198.99
  Q 90.93 204.97 105.57 207.93
  L 87.71 212.71
  L 65.25 215.25
  L 45.90 222.04
  Q 24.07 222.69 1.80 221.17
  L 0.00 211.55
  L 0.00 204.84
  Q 16.21 204.93 24.93 203.42
  C 35.32 201.64 46.57 199.18 56.26 198.63
  Q 66.83 198.03 77.51 198.99
  Z"
/>
<path fill="#c584fb" d="
  M 125.79 219.97
  Q 121.13 221.32 116.47 222.71
  C 107.95 225.26 104.04 227.05 93.41 230.99
  Q 84.61 234.25 80.00 237.13
  C 71.57 242.40 64.90 249.36 57.94 256.00
  L 44.52 256.00
  L 35.06 254.23
  C 39.61 244.64 43.85 236.74 52.32 230.62
  L 75.10 228.14
  A 0.23 0.23 0.0 0 1 75.28 228.55
  Q 74.98 228.80 74.41 228.96
  A 0.34 0.33 44.2 0 0 74.42 229.61
  Q 75.66 229.91 83.00 228.54
  Q 85.44 228.09 90.99 225.43
  Q 93.99 223.99 99.68 222.48
  Q 119.38 217.26 124.80 216.21
  Q 130.89 215.02 138.08 212.63
  C 143.14 210.95 150.49 209.67 156.46 206.69
  L 173.49 201.21
  L 182.81 198.96
  L 179.42 200.66
  A 0.17 0.17 0.0 0 0 179.55 200.97
  L 189.38 197.65
  A 0.20 0.20 0.0 0 1 189.58 197.99
  C 186.69 200.82 181.24 202.40 175.04 204.88
  Q 169.87 206.95 163.77 208.88
  Q 144.38 215.04 126.39 219.53
  Q 126.06 219.61 125.79 219.97
  Z"
/>
<path fill="#e197fd" d="
  M 255.07 217.30
  Q 251.93 232.91 240.05 243.76
  C 242.42 229.97 240.21 221.07 226.58 214.91
  Q 217.48 210.79 206.91 207.69
  C 196.65 204.67 187.20 204.21 177.80 207.13
  Q 152.50 214.99 130.48 221.23
  C 127.55 222.06 123.03 223.60 120.71 224.70
  Q 103.42 232.85 100.18 234.81
  Q 95.10 237.89 93.03 239.95
  Q 86.31 246.61 82.58 249.02
  Q 77.66 252.20 68.27 256.00
  L 57.94 256.00
  C 64.90 249.36 71.57 242.40 80.00 237.13
  Q 84.61 234.25 93.41 230.99
  C 104.04 227.05 107.95 225.26 116.47 222.71
  Q 121.13 221.32 125.79 219.97
  Q 126.51 219.60 127.05 219.66
  A 0.30 0.30 0.0 0 1 127.11 220.25
  L 126.82 220.35
  A 0.24 0.24 0.0 0 0 126.89 220.82
  Q 127.68 220.85 130.08 220.07
  Q 147.84 214.26 159.93 210.74
  C 169.42 207.97 175.58 205.21 186.46 200.91
  C 194.37 197.79 199.58 197.02 207.01 199.25
  Q 214.53 201.52 216.51 201.50
  Q 224.61 201.42 225.72 201.47
  C 232.23 201.79 237.23 203.56 244.54 206.28
  C 250.27 208.42 253.36 211.57 255.07 217.30
  Z"
/>
<path fill="#eeb5fe" d="
  M 240.05 243.76
  Q 231.19 251.66 219.48 254.61
  Q 221.54 248.26 222.02 242.91
  C 223.02 231.79 215.03 224.56 204.91 220.07
  C 195.82 216.03 186.10 215.30 175.95 216.93
  Q 156.65 220.01 140.00 232.12
  Q 136.58 234.60 123.35 244.44
  Q 116.82 249.30 102.14 256.00
  L 68.27 256.00
  Q 77.66 252.20 82.58 249.02
  Q 86.31 246.61 93.03 239.95
  Q 95.10 237.89 100.18 234.81
  Q 103.42 232.85 120.71 224.70
  C 123.03 223.60 127.55 222.06 130.48 221.23
  Q 152.50 214.99 177.80 207.13
  C 187.20 204.21 196.65 204.67 206.91 207.69
  Q 217.48 210.79 226.58 214.91
  C 240.21 221.07 242.42 229.97 240.05 243.76
  Z"
/>
<path fill="#c65bfd" d="
  M 156.46 206.69
  C 150.49 209.67 143.14 210.95 138.08 212.63
  Q 130.89 215.02 124.80 216.21
  Q 119.38 217.26 99.68 222.48
  Q 93.99 223.99 90.99 225.43
  Q 85.44 228.09 83.00 228.54
  Q 75.66 229.91 74.42 229.61
  A 0.34 0.33 44.2 0 1 74.41 228.96
  Q 74.98 228.80 75.28 228.55
  A 0.23 0.23 0.0 0 0 75.10 228.14
  L 52.32 230.62
  C 54.44 226.78 58.04 226.67 62.62 226.21
  C 67.63 225.71 74.63 225.38 81.73 223.96
  Q 102.09 219.89 114.66 217.51
  Q 124.79 215.59 140.87 209.52
  L 156.46 206.69
  Z"
/>
<path fill="#761ae1" d="
  M 112.32 209.01
  L 102.93 211.78
  L 87.71 212.71
  L 105.57 207.93
  L 112.32 209.01
  Z"
/>
<path fill="#9224f0" d="
  M 119.81 209.80
  Q 111.63 212.79 102.93 211.78
  L 112.32 209.01
  L 119.81 209.80
  Z"
/>
<path fill="#b949fb" d="
  M 140.87 209.52
  Q 124.79 215.59 114.66 217.51
  Q 102.09 219.89 81.73 223.96
  C 74.63 225.38 67.63 225.71 62.62 226.21
  C 58.04 226.67 54.44 226.78 52.32 230.62
  C 43.85 236.74 39.61 244.64 35.06 254.23
  L 25.35 250.33
  Q 29.21 242.75 33.77 235.65
  C 36.50 231.39 41.86 228.55 46.53 226.74
  Q 49.15 225.72 57.06 224.54
  C 82.95 220.68 108.70 216.02 134.25 210.04
  L 140.87 209.52
  Z"
/>
<path fill="#a536f6" d="
  M 134.25 210.04
  C 108.70 216.02 82.95 220.68 57.06 224.54
  Q 49.15 225.72 46.53 226.74
  C 41.86 228.55 36.50 231.39 33.77 235.65
  Q 29.21 242.75 25.35 250.33
  Q 7.79 240.69 1.80 221.17
  Q 24.07 222.69 45.90 222.04
  Q 52.42 222.03 58.63 220.89
  Q 64.13 219.87 65.25 215.25
  L 87.71 212.71
  L 102.93 211.78
  Q 111.63 212.79 119.81 209.80
  L 134.25 210.04
  Z"
/>
<path fill="#f6ccfe" d="
  M 219.48 254.61
  L 211.56 256.00
  L 200.05 256.00
  Q 202.16 250.36 202.55 245.86
  C 203.55 234.47 193.35 227.38 182.93 225.21
  C 172.25 222.98 161.46 226.40 152.37 231.71
  Q 147.81 234.37 131.48 244.49
  Q 123.78 249.27 106.74 256.00
  L 102.14 256.00
  Q 116.82 249.30 123.35 244.44
  Q 136.58 234.60 140.00 232.12
  Q 156.65 220.01 175.95 216.93
  C 186.10 215.30 195.82 216.03 204.91 220.07
  C 215.03 224.56 223.02 231.79 222.02 242.91
  Q 221.54 248.26 219.48 254.61
  Z"
/>
<path fill="#9224f0" d="
  M 65.25 215.25
  Q 64.13 219.87 58.63 220.89
  Q 52.42 222.03 45.90 222.04
  L 65.25 215.25
  Z"
/>
<path fill="#fbdbff" d="
  M 200.05 256.00
  L 183.81 256.00
  C 186.23 248.48 186.08 240.73 178.04 236.87
  C 169.22 232.64 158.21 236.01 149.84 240.17
  Q 134.08 248.00 118.34 256.00
  L 106.74 256.00
  Q 123.78 249.27 131.48 244.49
  Q 147.81 234.37 152.37 231.71
  C 161.46 226.40 172.25 222.98 182.93 225.21
  C 193.35 227.38 203.55 234.47 202.55 245.86
  Q 202.16 250.36 200.05 256.00
  Z"
/>
<path fill="#fde6fe" d="
  M 183.81 256.00
  L 118.34 256.00
  Q 134.08 248.00 149.84 240.17
  C 158.21 236.01 169.22 232.64 178.04 236.87
  C 186.08 240.73 186.23 248.48 183.81 256.00
  Z"
/>
</svg>