<?xml version="1.0" encoding="UTF-8" standalone="no"?>
<!DOCTYPE svg PUBLIC "-//W3C//DTD SVG 1.1//EN" "http://www.w3.org/Graphics/SVG/1.1/DTD/svg11.dtd">
<svg xmlns="http://www.w3.org/2000/svg" version="1.1" viewBox="0.00 0.00 128.00 128.00" width="128" height="128">
<g stroke-width="2.00" fill="none" stroke-linecap="butt">
<path stroke="#fcb499" vector-effect="non-scaling-stroke" d="
  M 99.23 54.84
  Q 99.23 54.80 99.23 54.77
  A 0.18 0.03 86.9 0 0 99.20 54.62
  L 81.12 41.06
  A 0.26 0.26 0.0 0 0 80.70 41.27
  L 80.70 49.58
  A 0.57 0.56 -0.0 0 1 80.13 50.14
  L 67.29 50.14
  A 0.66 0.66 0.0 0 0 66.63 50.77
  Q 66.61 51.55 66.61 54.85
  Q 66.61 58.15 66.64 58.92
  A 0.66 0.66 0.0 0 0 67.29 59.56
  L 80.13 59.55
  A 0.57 0.56 -0.0 0 1 80.70 60.11
  L 80.70 68.42
  A 0.26 0.26 0.0 0 0 81.12 68.63
  L 99.20 55.06
  A 0.18 0.03 -86.9 0 0 99.23 54.91
  Q 99.23 54.88 99.23 54.84"
/>
<path stroke="#fcb499" vector-effect="non-scaling-stroke" d="
  M 61.9075 50.5482
  A 0.39 0.39 0.0 0 0 61.5182 50.1575
  L 52.8982 50.1425
  A 0.39 0.39 0.0 0 0 52.5075 50.5318
  L 52.4925 59.1518
  A 0.39 0.39 0.0 0 0 52.8818 59.5425
  L 61.5018 59.5575
  A 0.39 0.39 0.0 0 0 61.8925 59.1682
  L 61.9075 50.5482"
/>
<path stroke="#fcb499" vector-effect="non-scaling-stroke" d="
  M 29.27 73.65
  Q 29.27 73.69 29.27 73.72
  A 0.18 0.03 86.9 0 0 29.30 73.87
  L 47.38 87.44
  A 0.26 0.26 0.0 0 0 47.80 87.23
  L 47.80 78.92
  A 0.57 0.56 -0.0 0 1 48.37 78.36
  L 61.21 78.36
  A 0.66 0.66 0.0 0 0 61.87 77.73
  Q 61.89 76.95 61.89 73.65
  Q 61.89 70.35 61.87 69.58
  A 0.66 0.66 0.0 0 0 61.21 68.94
  L 48.37 68.94
  A 0.57 0.56 0.0 0 1 47.80 68.38
  L 47.80 60.07
  A 0.26 0.26 0.0 0 0 47.38 59.86
  L 29.30 73.43
  A 0.18 0.03 -86.9 0 0 29.27 73.58
  Q 29.27 73.61 29.27 73.65"
/>
<path stroke="#fcb499" vector-effect="non-scaling-stroke" d="
  M 75.9925 69.3418
  A 0.40 0.40 0.0 0 0 75.5918 68.9425
  L 66.9918 68.9575
  A 0.40 0.40 0.0 0 0 66.5925 69.3582
  L 66.6075 77.9582
  A 0.40 0.40 0.0 0 0 67.0082 78.3575
  L 75.6082 78.3425
  A 0.40 0.40 0.0 0 0 76.0075 77.9418
  L 75.9925 69.3418"
/>
</g>
<path fill="#f96932" d="
  M 64.26 1.14
  Q 64.39 1.14 64.42 1.19
  Q 70.89 12.25 77.35 23.32
  Q 77.40 23.40 77.55 23.45
  Q 77.71 23.50 77.79 23.46
  Q 89.52 18.30 101.26 13.16
  Q 101.31 13.14 101.42 13.22
  Q 101.53 13.30 101.53 13.36
  Q 100.26 26.11 98.98 38.86
  Q 98.97 38.95 99.07 39.08
  Q 99.16 39.21 99.25 39.23
  Q 111.77 41.96 124.29 44.69
  Q 124.34 44.71 124.39 44.84
  Q 124.43 44.97 124.39 45.01
  Q 115.87 54.58 107.34 64.15
  Q 107.28 64.21 107.28 64.38
  Q 107.28 64.54 107.34 64.60
  Q 115.87 74.17 124.39 83.74
  Q 124.43 83.78 124.38 83.92
  Q 124.34 84.05 124.28 84.06
  Q 111.77 86.80 99.24 89.52
  Q 99.16 89.54 99.06 89.67
  Q 98.97 89.80 98.97 89.88
  Q 100.26 102.64 101.52 115.39
  Q 101.52 115.45 101.41 115.53
  Q 101.30 115.61 101.25 115.59
  Q 89.51 110.44 77.78 105.28
  Q 77.70 105.25 77.54 105.30
  Q 77.39 105.35 77.35 105.42
  Q 70.89 116.49 64.41 127.55
  Q 64.38 127.60 64.25 127.60
  Q 64.11 127.60 64.08 127.55
  Q 57.61 116.49 51.15 105.42
  Q 51.11 105.34 50.95 105.29
  Q 50.80 105.24 50.72 105.28
  Q 38.98 110.44 27.25 115.58
  Q 27.19 115.60 27.08 115.52
  Q 26.97 115.44 26.98 115.38
  Q 28.24 102.63 29.52 89.88
  Q 29.53 89.79 29.44 89.66
  Q 29.34 89.53 29.26 89.51
  Q 16.73 86.79 4.21 84.05
  Q 4.16 84.04 4.12 83.91
  Q 4.07 83.77 4.11 83.73
  Q 12.63 74.16 21.16 64.60
  Q 21.22 64.53 21.22 64.37
  Q 21.22 64.21 21.16 64.14
  Q 12.63 54.58 4.11 45.00
  Q 4.08 44.96 4.12 44.83
  Q 4.16 44.70 4.22 44.68
  Q 16.73 41.95 29.26 39.23
  Q 29.35 39.21 29.44 39.08
  Q 29.54 38.94 29.53 38.86
  Q 28.25 26.10 26.98 13.35
  Q 26.98 13.30 27.09 13.22
  Q 27.20 13.13 27.26 13.16
  Q 38.99 18.30 50.72 23.46
  Q 50.80 23.50 50.96 23.45
  Q 51.11 23.40 51.16 23.32
  Q 57.62 12.25 64.09 1.19
  Q 64.12 1.14 64.26 1.14
  Z
  M 99.23 54.84
  Q 99.23 54.80 99.23 54.77
  A 0.18 0.03 86.9 0 0 99.20 54.62
  L 81.12 41.06
  A 0.26 0.26 0.0 0 0 80.70 41.27
  L 80.70 49.58
  A 0.57 0.56 -0.0 0 1 80.13 50.14
  L 67.29 50.14
  A 0.66 0.66 0.0 0 0 66.63 50.77
  Q 66.61 51.55 66.61 54.85
  Q 66.61 58.15 66.64 58.92
  A 0.66 0.66 0.0 0 0 67.29 59.56
  L 80.13 59.55
  A 0.57 0.56 -0.0 0 1 80.70 60.11
  L 80.70 68.42
  A 0.26 0.26 0.0 0 0 81.12 68.63
  L 99.20 55.06
  A 0.18 0.03 -86.9 0 0 99.23 54.91
  Q 99.23 54.88 99.23 54.84
  Z
  M 61.9075 50.5482
  A 0.39 0.39 0.0 0 0 61.5182 50.1575
  L 52.8982 50.1425
  A 0.39 0.39 0.0 0 0 52.5075 50.5318
  L 52.4925 59.1518
  A 0.39 0.39 0.0 0 0 52.8818 59.5425
  L 61.5018 59.5575
  A 0.39 0.39 0.0 0 0 61.8925 59.1682
  L 61.9075 50.5482
  Z
  M 29.27 73.65
  Q 29.27 73.69 29.27 73.72
  A 0.18 0.03 86.9 0 0 29.30 73.87
  L 47.38 87.44
  A 0.26 0.26 0.0 0 0 47.80 87.23
  L 47.80 78.92
  A 0.57 0.56 -0.0 0 1 48.37 78.36
  L 61.21 78.36
  A 0.66 0.66 0.0 0 0 61.87 77.73
  Q 61.89 76.95 61.89 73.65
  Q 61.89 70.35 61.87 69.58
  A 0.66 0.66 0.0 0 0 61.21 68.94
  L 48.37 68.94
  A 0.57 0.56 0.0 0 1 47.80 68.38
  L 47.80 60.07
  A 0.26 0.26 0.0 0 0 47.38 59.86
  L 29.30 73.43
  A 0.18 0.03 -86.9 0 0 29.27 73.58
  Q 29.27 73.61 29.27 73.65
  Z
  M 75.9925 69.3418
  A 0.40 0.40 0.0 0 0 75.5918 68.9425
  L 66.9918 68.9575
  A 0.40 0.40 0.0 0 0 66.5925 69.3582
  L 66.6075 77.9582
  A 0.40 0.40 0.0 0 0 67.0082 78.3575
  L 75.6082 78.3425
  A 0.40 0.40 0.0 0 0 76.0075 77.9418
  L 75.9925 69.3418
  Z"
/>
<path fill="#ffffff" d="
  M 99.23 54.84
  Q 99.23 54.88 99.23 54.91
  A 0.18 0.03 -86.9 0 1 99.20 55.06
  L 81.12 68.63
  A 0.26 0.26 0.0 0 1 80.70 68.42
  L 80.70 60.11
  A 0.57 0.56 -0.0 0 0 80.13 59.55
  L 67.29 59.56
  A 0.66 0.66 0.0 0 1 66.64 58.92
  Q 66.61 58.15 66.61 54.85
  Q 66.61 51.55 66.63 50.77
  A 0.66 0.66 0.0 0 1 67.29 50.14
  L 80.13 50.14
  A 0.57 0.56 -0.0 0 0 80.70 49.58
  L 80.70 41.27
  A 0.26 0.26 0.0 0 1 81.12 41.06
  L 99.20 54.62
  A 0.18 0.03 86.9 0 1 99.23 54.77
  Q 99.23 54.80 99.23 54.84
  Z"
/>
<rect fill="#ffffff" x="-4.70" y="-4.70" transform="translate(57.20,54.85) rotate(0.1)" width="9.40" height="9.40" rx="0.39"/>
<path fill="#ffffff" d="
  M 61.89 73.65
  Q 61.89 76.95 61.87 77.73
  A 0.66 0.66 0.0 0 1 61.21 78.36
  L 48.37 78.36
  A 0.57 0.56 -0.0 0 0 47.80 78.92
  L 47.80 87.23
  A 0.26 0.26 0.0 0 1 47.38 87.44
  L 29.30 73.87
  A 0.18 0.03 86.9 0 1 29.27 73.72
  Q 29.27 73.69 29.27 73.65
  Q 29.27 73.61 29.27 73.58
  A 0.18 0.03 -86.9 0 1 29.30 73.43
  L 47.38 59.86
  A 0.26 0.26 0.0 0 1 47.80 60.07
  L 47.80 68.38
  A 0.57 0.56 0.0 0 0 48.37 68.94
  L 61.21 68.94
  A 0.66 0.66 0.0 0 1 61.87 69.58
  Q 61.89 70.35 61.89 73.65
  Z"
/>
<rect fill="#ffffff" x="-4.70" y="-4.70" transform="translate(71.30,73.65) rotate(-0.1)" width="9.40" height="9.40" rx="0.40"/>
</svg>