<?xml version="1.0" encoding="UTF-8" standalone="no"?>
<!DOCTYPE svg PUBLIC "-//W3C//DTD SVG 1.1//EN" "http://www.w3.org/Graphics/SVG/1.1/DTD/svg11.dtd">
<svg xmlns="http://www.w3.org/2000/svg" version="1.1" viewBox="0.00 0.00 192.00 192.00" width="128" height="128">
<g stroke-width="2.00" fill="none" stroke-linecap="butt">
<path stroke="#827e7f" vector-effect="non-scaling-stroke" d="
  M 55.39 58.93
  A 0.74 0.74 0.0 0 0 54.14 59.24
  C 52.38 65.81 53.88 71.44 57.16 77.18
  A 2.74 2.74 0.0 0 1 57.04 80.10
  C 44.80 97.79 48.94 119.15 61.99 135.25
  Q 62.82 136.28 64.09 135.79
  A 1.64 1.61 66.3 0 0 64.94 133.54
  C 60.24 124.02 56.00 111.62 57.60 101.77
  C 59.71 88.78 72.07 79.29 85.33 81.41
  Q 88.24 81.88 91.27 82.75
  A 2.04 2.03 -82.6 0 0 93.87 80.75
  Q 93.68 72.39 88.11 66.58
  A 1.56 1.56 0.0 0 1 89.25 63.94
  C 105.15 64.15 114.98 73.62 114.76 89.75
  C 114.68 95.18 112.49 98.42 107.77 100.79
  Q 104.91 102.23 103.96 102.51
  A 3.06 3.03 -73.6 0 0 102.80 103.15
  Q 96.93 108.32 101.61 114.58
  A 4.37 4.25 88.9 0 0 102.55 115.51
  Q 121.61 129.56 143.01 139.32
  A 1.31 1.28 18.8 0 0 144.82 138.46
  Q 144.90 138.10 144.77 137.79
  Q 140.25 126.69 130.16 104.32
  C 129.03 101.81 127.99 98.91 128.27 96.51
  C 130.03 81.80 128.05 69.29 115.65 59.82
  Q 109.54 55.15 96.62 47.86
  Q 77.62 37.14 74.67 15.32
  A 0.92 0.92 0.0 0 0 73.19 14.73
  C 59.10 25.98 54.90 46.30 65.59 61.21
  A 1.86 1.80 27.3 0 1 65.94 62.25
  Q 65.97 63.71 64.48 64.06
  A 1.70 1.64 46.0 0 1 63.62 64.03
  Q 58.78 62.58 55.39 58.93"
/>
<path stroke="#827e7f" vector-effect="non-scaling-stroke" d="
  M 125.36 170.00
  C 129.64 166.09 131.37 160.13 131.25 154.26
  C 131.01 142.45 122.42 134.11 111.43 131.11
  C 95.27 126.69 75.08 119.23 73.36 99.88
  A 1.77 1.76 20.0 0 0 72.85 98.80
  C 71.22 97.19 69.55 98.43 68.83 100.37
  C 65.89 108.36 68.30 116.97 71.86 124.62
  C 76.30 134.15 86.29 142.75 94.98 147.61
  Q 100.18 150.52 112.41 156.54
  C 117.93 159.27 122.54 163.29 123.91 169.54
  A 0.88 0.88 0.0 0 0 125.36 170.00"
/>
</g>
<path fill="#f9f9f9" d="
  M 173.99 0.00
  Q 189.26 2.63 192.00 17.95
  L 192.00 173.95
  Q 189.39 189.26 174.03 192.00
  L 18.03 192.00
  Q 2.75 189.39 0.00 174.05
  L 0.00 18.01
  Q 2.63 2.75 17.94 0.00
  L 173.99 0.00
  Z
  M 55.39 58.93
  A 0.74 0.74 0.0 0 0 54.14 59.24
  C 52.38 65.81 53.88 71.44 57.16 77.18
  A 2.74 2.74 0.0 0 1 57.04 80.10
  C 44.80 97.79 48.94 119.15 61.99 135.25
  Q 62.82 136.28 64.09 135.79
  A 1.64 1.61 66.3 0 0 64.94 133.54
  C 60.24 124.02 56.00 111.62 57.60 101.77
  C 59.71 88.78 72.07 79.29 85.33 81.41
  Q 88.24 81.88 91.27 82.75
  A 2.04 2.03 -82.6 0 0 93.87 80.75
  Q 93.68 72.39 88.11 66.58
  A 1.56 1.56 0.0 0 1 89.25 63.94
  C 105.15 64.15 114.98 73.62 114.76 89.75
  C 114.68 95.18 112.49 98.42 107.77 100.79
  Q 104.91 102.23 103.96 102.51
  A 3.06 3.03 -73.6 0 0 102.80 103.15
  Q 96.93 108.32 101.61 114.58
  A 4.37 4.25 88.9 0 0 102.55 115.51
  Q 121.61 129.56 143.01 139.32
  A 1.31 1.28 18.8 0 0 144.82 138.46
  Q 144.90 138.10 144.77 137.79
  Q 140.25 126.69 130.16 104.32
  C 129.03 101.81 127.99 98.91 128.27 96.51
  C 130.03 81.80 128.05 69.29 115.65 59.82
  Q 109.54 55.15 96.62 47.86
  Q 77.62 37.14 74.67 15.32
  A 0.92 0.92 0.0 0 0 73.19 14.73
  C 59.10 25.98 54.90 46.30 65.59 61.21
  A 1.86 1.80 27.3 0 1 65.94 62.25
  Q 65.97 63.71 64.48 64.06
  A 1.70 1.64 46.0 0 1 63.62 64.03
  Q 58.78 62.58 55.39 58.93
  Z
  M 125.36 170.00
  C 129.64 166.09 131.37 160.13 131.25 154.26
  C 131.01 142.45 122.42 134.11 111.43 131.11
  C 95.27 126.69 75.08 119.23 73.36 99.88
  A 1.77 1.76 20.0 0 0 72.85 98.80
  C 71.22 97.19 69.55 98.43 68.83 100.37
  C 65.89 108.36 68.30 116.97 71.86 124.62
  C 76.30 134.15 86.29 142.75 94.98 147.61
  Q 100.18 150.52 112.41 156.54
  C 117.93 159.27 122.54 163.29 123.91 169.54
  A 0.88 0.88 0.0 0 0 125.36 170.00
  Z"
/>
<path fill="#0b0204" d="
  M 55.39 58.93
  Q 58.78 62.58 63.62 64.03
  A 1.70 1.64 46.0 0 0 64.48 64.06
  Q 65.97 63.71 65.94 62.25
  A 1.86 1.80 27.3 0 0 65.59 61.21
  C 54.90 46.30 59.10 25.98 73.19 14.73
  A 0.92 0.92 0.0 0 1 74.67 15.32
  Q 77.62 37.14 96.62 47.86
  Q 109.54 55.15 115.65 59.82
  C 128.05 69.29 130.03 81.80 128.27 96.51
  C 127.99 98.91 129.03 101.81 130.16 104.32
  Q 140.25 126.69 144.77 137.79
  Q 144.90 138.10 144.82 138.46
  A 1.31 1.28 18.8 0 1 143.01 139.32
  Q 121.61 129.56 102.55 115.51
  A 4.37 4.25 88.9 0 1 101.61 114.58
  Q 96.93 108.32 102.80 103.15
  A 3.06 3.03 -73.6 0 1 103.96 102.51
  Q 104.91 102.23 107.77 100.79
  C 112.49 98.42 114.68 95.18 114.76 89.75
  C 114.98 73.62 105.15 64.15 89.25 63.94
  A 1.56 1.56 0.0 0 0 88.11 66.58
  Q 93.68 72.39 93.87 80.75
  A 2.04 2.03 -82.6 0 1 91.27 82.75
  Q 88.24 81.88 85.33 81.41
  C 72.07 79.29 59.71 88.78 57.60 101.77
  C 56.00 111.62 60.24 124.02 64.94 133.54
  A 1.64 1.61 66.3 0 1 64.09 135.79
  Q 62.82 136.28 61.99 135.25
  C 48.94 119.15 44.80 97.79 57.04 80.10
  A 2.74 2.74 0.0 0 0 57.16 77.18
  C 53.88 71.44 52.38 65.81 54.14 59.24
  A 0.74 0.74 0.0 0 1 55.39 58.93
  Z"
/>
<path fill="#0b0204" d="
  M 125.36 170.00
  A 0.88 0.88 0.0 0 1 123.91 169.54
  C 122.54 163.29 117.93 159.27 112.41 156.54
  Q 100.18 150.52 94.98 147.61
  C 86.29 142.75 76.30 134.15 71.86 124.62
  C 68.30 116.97 65.89 108.36 68.83 100.37
  C 69.55 98.43 71.22 97.19 72.85 98.80
  A 1.77 1.76 20.0 0 1 73.36 99.88
  C 75.08 119.23 95.27 126.69 111.43 131.11
  C 122.42 134.11 131.01 142.45 131.25 154.26
  C 131.37 160.13 129.64 166.09 125.36 170.00
  Z"
/>
</svg>