<?xml version="1.0" encoding="UTF-8" standalone="no"?>
<!DOCTYPE svg PUBLIC "-//W3C//DTD SVG 1.1//EN" "http://www.w3.org/Graphics/SVG/1.1/DTD/svg11.dtd">
<svg xmlns="http://www.w3.org/2000/svg" version="1.1" viewBox="0.00 0.00 128.00 128.00" width="128" height="128">
<path stroke="#a0c8db" stroke-width="2.00" fill="none" stroke-linecap="butt" vector-effect="non-scaling-stroke" d="
  M 64.47 93.50
  Q 64.58 93.50 64.69 93.53
  Q 64.76 93.55 64.85 93.66
  Q 75.22 105.19 90.44 103.40
  C 103.28 101.89 113.38 92.85 113.41 79.26
  Q 113.44 63.27 113.41 50.53
  A 0.42 0.41 90.0 0 0 113.00 50.11
  L 105.37 50.11
  A 0.46 0.45 90.0 0 0 104.92 50.57
  Q 104.87 61.39 104.93 73.18
  C 104.97 80.20 105.42 84.91 101.53 89.66
  C 94.96 97.69 82.65 98.22 74.60 91.98
  C 71.28 89.42 68.93 85.08 68.81 81.21
  Q 68.70 77.69 68.84 50.58
  A 0.53 0.53 0.0 0 0 68.28 50.05
  Q 66.47 50.13 64.46 50.13
  Q 62.45 50.13 60.64 50.05
  A 0.53 0.53 0.0 0 0 60.08 50.58
  Q 60.23 77.69 60.13 81.21
  C 60.01 85.08 57.66 89.42 54.34 91.98
  C 46.29 98.23 33.98 97.70 27.41 89.68
  C 23.52 84.93 23.97 80.22 24.00 73.20
  Q 24.06 61.41 24.00 50.59
  A 0.46 0.45 90.0 0 0 23.55 50.13
  L 15.92 50.13
  A 0.42 0.41 90.0 0 0 15.51 50.55
  Q 15.49 63.29 15.52 79.28
  C 15.56 92.87 25.67 101.91 38.51 103.41
  Q 53.73 105.19 64.09 93.66
  Q 64.18 93.55 64.25 93.53
  Q 64.36 93.50 64.47 93.50"
/>
<path fill="#4797bd" d="
  M 65.14 0.00
  L 94.15 29.03
  A 1.23 1.22 66.8 0 0 95.04 29.39
  Q 107.07 29.30 119.14 29.45
  Q 122.92 29.49 125.43 32.67
  C 126.52 34.05 127.15 35.98 128.00 37.68
  L 128.00 109.90
  Q 127.16 115.84 123.06 118.29
  Q 121.35 119.31 119.33 119.31
  Q 44.57 119.31 12.41 119.33
  Q 7.83 119.33 6.16 118.67
  C 2.41 117.18 0.65 113.07 0.00 109.25
  L 0.00 39.63
  Q 0.71 34.59 3.48 31.74
  Q 4.64 30.55 8.05 29.49
  A 2.77 2.59 -51.7 0 1 8.84 29.37
  L 34.41 29.37
  A 2.22 2.22 0.0 0 0 35.98 28.72
  L 64.78 0.00
  L 65.14 0.00
  Z
  M 64.47 93.50
  Q 64.58 93.50 64.69 93.53
  Q 64.76 93.55 64.85 93.66
  Q 75.22 105.19 90.44 103.40
  C 103.28 101.89 113.38 92.85 113.41 79.26
  Q 113.44 63.27 113.41 50.53
  A 0.42 0.41 90.0 0 0 113.00 50.11
  L 105.37 50.11
  A 0.46 0.45 90.0 0 0 104.92 50.57
  Q 104.87 61.39 104.93 73.18
  C 104.97 80.20 105.42 84.91 101.53 89.66
  C 94.96 97.69 82.65 98.22 74.60 91.98
  C 71.28 89.42 68.93 85.08 68.81 81.21
  Q 68.70 77.69 68.84 50.58
  A 0.53 0.53 0.0 0 0 68.28 50.05
  Q 66.47 50.13 64.46 50.13
  Q 62.45 50.13 60.64 50.05
  A 0.53 0.53 0.0 0 0 60.08 50.58
  Q 60.23 77.69 60.13 81.21
  C 60.01 85.08 57.66 89.42 54.34 91.98
  C 46.29 98.23 33.98 97.70 27.41 89.68
  C 23.52 84.93 23.97 80.22 24.00 73.20
  Q 24.06 61.41 24.00 50.59
  A 0.46 0.45 90.0 0 0 23.55 50.13
  L 15.92 50.13
  A 0.42 0.41 90.0 0 0 15.51 50.55
  Q 15.49 63.29 15.52 79.28
  C 15.56 92.87 25.67 101.91 38.51 103.41
  Q 53.73 105.19 64.09 93.66
  Q 64.18 93.55 64.25 93.53
  Q 64.36 93.50 64.47 93.50
  Z"
/>
<path fill="#f8f8f8" d="
  M 64.46 50.13
  Q 66.47 50.13 68.28 50.05
  A 0.53 0.53 0.0 0 1 68.84 50.58
  Q 68.70 77.69 68.81 81.21
  C 68.93 85.08 71.28 89.42 74.60 91.98
  C 82.65 98.22 94.96 97.69 101.53 89.66
  C 105.42 84.91 104.97 80.20 104.93 73.18
  Q 104.87 61.39 104.92 50.57
  A 0.46 0.45 90.0 0 1 105.37 50.11
  L 113.00 50.11
  A 0.42 0.41 90.0 0 1 113.41 50.53
  Q 113.44 63.27 113.41 79.26
  C 113.38 92.85 103.28 101.89 90.44 103.40
  Q 75.22 105.19 64.85 93.66
  Q 64.76 93.55 64.69 93.53
  Q 64.58 93.50 64.47 93.50
  Q 64.36 93.50 64.25 93.53
  Q 64.18 93.55 64.09 93.66
  Q 53.73 105.19 38.51 103.41
  C 25.67 101.91 15.56 92.87 15.52 79.28
  Q 15.49 63.29 15.51 50.55
  A 0.42 0.41 90.0 0 1 15.92 50.13
  L 23.55 50.13
  A 0.46 0.45 90.0 0 1 24.00 50.59
  Q 24.06 61.41 24.00 73.20
  C 23.97 80.22 23.52 84.93 27.41 89.68
  C 33.98 97.70 46.29 98.23 54.34 91.98
  C 57.66 89.42 60.01 85.08 60.13 81.21
  Q 60.23 77.69 60.08 50.58
  A 0.53 0.53 0.0 0 1 60.64 50.05
  Q 62.45 50.13 64.46 50.13
  Z"
/>
</svg>