<?xml version="1.0" encoding="UTF-8" standalone="no"?>
<!DOCTYPE svg PUBLIC "-//W3C//DTD SVG 1.1//EN" "http://www.w3.org/Graphics/SVG/1.1/DTD/svg11.dtd">
<svg xmlns="http://www.w3.org/2000/svg" version="1.1" viewBox="0.00 0.00 1448.00 1448.00" width="128" height="128">
<path fill="#000000" d="
  M 1190.94 207.51
  A 0.66 0.65 -59.7 0 0 1191.12 208.22
  C 1296.72 301.82 1370.44 427.92 1398.86 565.86
  C 1418.75 662.36 1416.70 763.08 1392.39 858.72
  C 1362.22 977.39 1299.16 1084.89 1210.90 1170.16
  A 0.68 0.67 -35.3 0 0 1210.76 1170.96
  Q 1212.98 1175.40 1215.65 1180.56
  C 1230.29 1208.90 1240.59 1241.61 1240.61 1273.67
  C 1240.65 1325.10 1213.63 1364.65 1169.86 1388.91
  C 1140.48 1405.20 1107.60 1409.68 1074.85 1402.86
  C 1047.13 1397.08 1021.25 1384.24 998.02 1367.95
  Q 971.44 1349.30 948.28 1326.13
  A 1.14 1.13 -30.6 0 0 947.14 1325.84
  Q 844.79 1356.97 737.73 1354.09
  C 589.37 1350.10 447.64 1295.16 333.95 1199.62
  A 1.47 1.44 64.0 0 0 332.99 1199.28
  C 239.96 1201.87 138.92 1178.02 81.08 1098.22
  C 43.37 1046.19 30.97 979.82 37.02 915.96
  Q 45.20 829.61 89.83 755.04
  Q 95.66 745.29 101.67 736.02
  A 1.56 1.55 -30.3 0 0 101.92 735.08
  C 100.98 720.73 100.01 709.28 100.06 696.96
  Q 100.20 662.32 104.17 626.93
  A 2.66 2.63 36.0 0 0 103.94 625.53
  Q 87.56 590.35 75.53 554.24
  C 45.07 462.87 32.13 345.66 106.24 270.54
  C 157.33 218.75 234.28 209.04 302.28 224.74
  A 1.45 1.45 0.0 0 0 303.62 224.37
  C 400.10 131.55 524.46 69.95 656.63 49.64
  C 772.58 31.82 890.06 45.55 999.37 89.24
  A 1.09 1.08 34.7 0 0 1000.50 89.04
  Q 1015.42 75.54 1032.93 65.70
  C 1060.73 50.10 1095.93 46.17 1126.09 54.94
  C 1164.44 66.10 1193.86 95.76 1199.82 135.73
  C 1203.39 159.72 1199.18 184.76 1190.94 207.51
  Z
  M 1151.45 175.22
  C 1157.35 151.19 1154.18 125.06 1133.05 109.68
  C 1115.90 97.20 1093.61 94.72 1073.07 99.84
  C 1063.91 102.11 1057.20 106.12 1048.73 111.20
  A 0.30 0.30 0.0 0 0 1048.75 111.72
  Q 1102.75 138.80 1151.04 175.36
  A 0.26 0.26 0.0 0 0 1151.45 175.22
  Z
  M 400.48 917.04
  Q 396.81 885.63 395.78 855.33
  A 0.83 0.82 10.0 0 0 395.26 854.60
  Q 367.11 843.25 354.72 818.04
  C 338.90 785.86 350.13 746.62 379.78 726.78
  C 409.97 706.58 449.92 711.59 474.19 738.55
  C 490.92 757.12 497.09 783.23 489.90 807.21
  C 483.10 829.87 465.73 846.95 443.27 854.92
  A 0.74 0.74 0.0 0 0 442.77 855.65
  Q 444.44 904.91 453.37 953.89
  A 0.77 0.77 0.0 0 0 453.71 954.40
  Q 523.36 999.43 600.05 1030.18
  Q 686.21 1064.72 777.63 1078.60
  A 1.17 1.14 23.0 0 0 778.71 1078.18
  C 794.81 1057.96 819.21 1047.19 844.95 1051.11
  C 879.20 1056.32 905.19 1084.72 906.83 1119.35
  Q 908.18 1147.68 888.01 1170.91
  A 0.62 0.62 0.0 0 0 887.94 1171.64
  Q 915.95 1218.74 950.79 1260.25
  A 0.69 0.69 0.0 0 0 951.55 1260.46
  C 1061.86 1222.41 1159.53 1150.91 1230.23 1058.37
  C 1301.32 965.33 1343.16 853.89 1350.80 737.02
  C 1358.10 625.29 1333.76 512.69 1279.75 414.28
  C 1217.30 300.50 1121.18 211.14 1003.57 156.68
  A 0.57 0.57 0.0 0 0 1002.86 156.88
  Q 994.20 169.62 987.63 183.30
  A 0.77 0.76 -59.2 0 0 987.86 184.24
  C 1015.40 204.41 1025.79 238.35 1012.32 270.05
  C 996.92 306.31 954.64 323.95 917.97 308.68
  C 868.08 287.92 856.96 222.11 898.26 186.86
  Q 917.05 170.83 943.00 169.38
  A 0.57 0.57 0.0 0 0 943.49 169.04
  Q 950.37 153.62 959.28 139.07
  A 0.29 0.29 0.0 0 0 959.13 138.65
  Q 892.66 114.41 823.60 106.26
  C 621.47 82.41 420.39 166.01 292.83 324.10
  C 219.72 414.71 174.97 523.40 163.33 639.50
  A 2.42 2.40 -56.4 0 0 163.61 640.91
  L 169.74 652.24
  A 0.36 0.36 0.0 0 0 170.31 652.33
  Q 234.78 589.34 316.42 550.85
  A 0.75 0.74 -22.4 0 0 316.81 549.93
  Q 315.64 546.60 315.95 542.24
  Q 317.79 516.32 334.38 497.67
  C 349.87 480.27 372.59 471.37 395.82 473.71
  C 432.95 477.43 461.10 508.77 461.15 546.03
  C 461.18 577.05 440.84 604.96 411.86 614.62
  C 383.70 624.01 355.42 615.95 335.36 594.27
  A 0.73 0.71 -33.4 0 0 334.53 594.11
  Q 255.84 631.66 195.06 693.93
  A 0.89 0.89 0.0 0 0 194.95 695.04
  Q 277.64 824.39 400.19 917.21
  A 0.18 0.18 0.0 0 0 400.48 917.04
  Z
  M 120.12 539.49
  Q 127.09 514.09 128.55 509.31
  Q 169.98 373.29 263.49 266.32
  A 0.17 0.17 0.0 0 0 263.38 266.04
  Q 240.75 263.79 219.50 266.53
  C 169.58 272.97 130.45 299.77 111.03 346.84
  C 99.39 375.05 96.37 407.43 98.49 437.75
  C 100.89 472.20 108.72 506.76 119.78 539.50
  A 0.18 0.18 0.0 0 0 120.12 539.49
  Z
  M 468.64 1019.21
  Q 475.76 1044.15 485.76 1068.24
  A 0.59 0.58 71.2 0 0 486.44 1068.58
  L 493.21 1066.86
  A 2.11 1.83 -49.2 0 1 493.55 1066.81
  C 538.65 1066.23 573.40 1106.09 566.64 1150.16
  C 560.59 1189.53 524.24 1216.96 484.49 1211.21
  C 446.14 1205.67 418.89 1170.89 422.65 1132.33
  Q 425.07 1107.40 443.31 1088.32
  A 0.37 0.37 0.0 0 0 443.39 1087.91
  Q 422.25 1037.31 411.27 982.99
  A 1.81 1.81 0.0 0 0 410.52 981.87
  C 312.76 915.44 228.16 830.61 163.12 732.08
  A 0.61 0.61 0.0 0 0 162.01 732.45
  Q 168.87 846.60 216.45 949.01
  C 296.54 1121.38 455.37 1246.22 640.30 1282.69
  Q 772.22 1308.70 902.22 1275.16
  A 0.28 0.28 0.0 0 0 902.37 1274.71
  Q 871.89 1236.03 846.63 1193.63
  A 0.98 0.96 -22.5 0 0 845.54 1193.19
  C 841.80 1194.19 837.51 1195.59 833.44 1195.50
  C 793.68 1194.53 762.79 1163.47 761.80 1123.85
  A 0.42 0.42 0.0 0 0 761.45 1123.45
  Q 620.94 1100.16 494.33 1032.66
  Q 483.36 1026.81 469.11 1018.84
  A 0.32 0.32 0.0 0 0 468.64 1019.21
  Z
  M 111.10 817.11
  Q 89.42 865.62 83.96 919.43
  Q 78.93 968.95 91.33 1012.93
  Q 110.46 1080.79 170.00 1117.10
  C 186.08 1126.90 205.77 1134.83 224.55 1139.98
  Q 252.55 1147.66 281.26 1150.16
  A 0.21 0.21 0.0 0 0 281.43 1149.80
  Q 274.62 1142.70 268.93 1136.33
  Q 145.99 998.73 111.29 817.13
  A 0.10 0.10 0.0 0 0 111.10 817.11
  Z
  M 997.51 1308.10
  Q 1018.62 1326.96 1043.05 1340.91
  Q 1060.98 1351.14 1079.54 1355.81
  Q 1116.48 1365.10 1148.06 1347.41
  C 1173.55 1333.13 1191.22 1311.29 1193.47 1281.22
  C 1195.41 1255.11 1186.36 1226.93 1174.49 1203.81
  A 0.32 0.32 0.0 0 0 1174.00 1203.71
  Q 1094.20 1269.40 997.58 1307.69
  A 0.24 0.24 0.0 0 0 997.51 1308.10
  Z"
/>
<path fill="#000000" d="
  M 1040.82 465.33
  A 0.29 0.29 0.0 0 0 1041.22 465.37
  Q 1067.30 445.10 1090.26 421.72
  A 0.70 0.69 52.8 0 0 1090.37 420.89
  Q 1085.96 412.97 1085.06 410.88
  Q 1074.14 385.50 1083.67 359.85
  C 1103.86 305.56 1175.37 295.04 1210.18 341.55
  C 1231.60 370.16 1228.50 410.72 1203.29 435.81
  Q 1184.45 454.57 1157.99 457.03
  Q 1142.80 458.44 1126.48 452.26
  A 0.86 0.85 -57.1 0 0 1125.58 452.46
  Q 1099.69 479.14 1070.40 501.88
  A 0.40 0.39 -37.2 0 0 1070.32 502.43
  Q 1110.08 557.88 1135.07 622.15
  Q 1161.01 688.88 1171.31 760.20
  A 1.08 1.08 0.0 0 0 1172.09 761.09
  C 1194.86 767.78 1213.94 785.39 1221.10 808.07
  C 1236.55 857.04 1197.12 905.62 1146.32 901.86
  C 1102.27 898.60 1071.13 856.42 1081.07 813.34
  C 1086.35 790.50 1102.18 772.04 1123.81 762.67
  A 0.31 0.30 74.8 0 0 1123.99 762.35
  Q 1113.04 689.72 1084.39 622.58
  Q 1063.12 572.71 1032.04 529.62
  A 0.46 0.45 55.4 0 0 1031.41 529.50
  C 980.86 563.39 926.50 591.49 870.38 613.49
  Q 810.07 637.13 748.09 649.60
  A 0.80 0.80 0.0 0 0 747.45 650.32
  Q 745.38 681.51 723.32 701.57
  C 706.75 716.63 684.14 722.97 662.08 718.92
  C 611.16 709.57 585.78 650.70 614.81 607.32
  C 636.30 575.20 679.97 564.61 712.86 586.39
  Q 723.98 593.75 731.77 604.16
  A 1.25 1.25 0.0 0 0 733.01 604.64
  Q 795.19 592.45 853.41 569.67
  Q 931.64 539.05 1002.02 492.93
  A 0.49 0.49 0.0 0 0 1002.12 492.20
  C 980.42 467.28 957.21 444.91 930.43 424.62
  C 859.11 370.58 775.30 334.73 687.15 319.73
  A 0.82 0.82 0.0 0 0 686.26 320.21
  C 675.85 343.50 654.59 359.81 629.29 363.15
  C 580.33 369.63 538.98 326.03 548.45 277.38
  C 559.20 222.18 627.51 198.59 668.58 238.49
  Q 682.82 252.33 688.56 272.41
  A 0.94 0.94 0.0 0 0 689.34 273.08
  Q 693.09 273.57 695.50 273.98
  C 795.32 290.88 890.48 332.58 969.79 395.91
  C 995.76 416.65 1018.73 439.70 1040.82 465.33
  Z"
/>
</svg>