<?xml version="1.0" encoding="UTF-8" standalone="no"?>
<!DOCTYPE svg PUBLIC "-//W3C//DTD SVG 1.1//EN" "http://www.w3.org/Graphics/SVG/1.1/DTD/svg11.dtd">
<svg xmlns="http://www.w3.org/2000/svg" version="1.1" viewBox="0.00 0.00 192.00 192.00" width="128" height="128">
<path fill="#000000" d="
  M 2.36 29.18
  L 47.90 29.18
  A 0.35 0.35 0.0 0 1 48.24 29.45
  L 80.11 160.87
  A 0.35 0.35 0.0 0 1 79.77 161.30
  L 34.23 161.30
  A 0.35 0.35 0.0 0 1 33.89 161.03
  L 2.01 29.61
  A 0.35 0.35 0.0 0 1 2.36 29.18
  Z"
/>
<path fill="#000000" d="
  M 73.08 29.17
  L 118.59 29.17
  A 0.37 0.37 0.0 0 1 118.95 29.45
  L 150.80 160.83
  A 0.37 0.37 0.0 0 1 150.44 161.29
  L 104.94 161.29
  A 0.37 0.37 0.0 0 1 104.58 161.01
  L 72.72 29.63
  A 0.37 0.37 0.0 0 1 73.08 29.17
  Z"
/>
<path fill="#000000" d="
  M 189.28 29.60
  L 166.68 122.83
  A 0.34 0.34 0.0 0 1 166.02 122.83
  L 143.42 29.60
  A 0.34 0.34 0.0 0 1 143.75 29.18
  L 188.95 29.18
  A 0.34 0.34 0.0 0 1 189.28 29.60
  Z"
/>
</svg>