<?xml version="1.0" encoding="UTF-8" standalone="no"?>
<!DOCTYPE svg PUBLIC "-//W3C//DTD SVG 1.1//EN" "http://www.w3.org/Graphics/SVG/1.1/DTD/svg11.dtd">
<svg xmlns="http://www.w3.org/2000/svg" version="1.1" viewBox="0.00 0.00 512.00 512.00" width="128" height="128">
<path fill="#8468f6" d="
  M 188.73 131.77
  C 216.60 159.64 234.04 196.40 239.80 235.24
  C 248.13 291.43 229.59 348.91 190.29 390.06
  Q 188.38 392.06 187.56 392.77
  A 0.55 0.54 46.9 0 1 186.82 392.74
  Q 121.18 327.08 55.52 261.43
  C 27.65 233.56 10.21 196.80 4.45 157.96
  C -3.88 101.77 14.66 44.29 53.96 3.14
  Q 55.87 1.14 56.69 0.43
  A 0.55 0.54 46.9 0 1 57.43 0.46
  Q 123.08 66.12 188.73 131.77
  Z"
/>
<path fill="#8468f6" d="
  M 455.86 261.45
  Q 390.21 327.07 324.57 392.71
  A 0.55 0.54 -46.9 0 1 323.82 392.74
  Q 323.00 392.03 321.09 390.03
  C 281.81 348.88 263.28 291.41 271.62 235.23
  C 277.38 196.40 294.83 159.65 322.70 131.79
  Q 388.36 66.17 454.00 0.53
  A 0.55 0.54 -46.9 0 1 454.74 0.50
  Q 455.56 1.21 457.47 3.21
  C 496.75 44.36 515.28 101.83 506.94 158.01
  C 501.18 196.84 483.74 233.59 455.86 261.45
  Z"
/>
<path fill="#8468f6" d="
  M 70.98 510.97
  Q 69.77 509.88 67.87 507.86
  C 11.92 448.49 0.68 359.63 41.12 288.21
  A 0.39 0.39 0.0 0 1 41.74 288.12
  L 168.05 414.42
  A 0.27 0.27 0.0 0 1 168.05 414.80
  L 71.90 510.95
  A 0.67 0.67 0.0 0 1 70.98 510.97
  Z"
/>
<path fill="#8468f6" d="
  M 439.53 510.91
  L 343.43 414.81
  A 0.27 0.27 0.0 0 1 343.43 414.43
  L 469.67 288.19
  A 0.39 0.39 0.0 0 1 470.29 288.28
  C 510.71 359.67 499.48 448.48 443.56 507.82
  Q 441.66 509.84 440.45 510.93
  A 0.67 0.67 0.0 0 1 439.53 510.91
  Z"
/>
</svg>