<?xml version="1.0" encoding="UTF-8" standalone="no"?>
<!DOCTYPE svg PUBLIC "-//W3C//DTD SVG 1.1//EN" "http://www.w3.org/Graphics/SVG/1.1/DTD/svg11.dtd">
<svg xmlns="http://www.w3.org/2000/svg" version="1.1" viewBox="0.00 0.00 256.00 256.00" width="128" height="128">
<path fill="#545bfe" d="
  M 128.30 26.26
  Q 128.32 26.26 128.37 26.31
  C 135.01 32.33 143.62 43.07 140.12 52.11
  Q 137.06 60.02 128.62 63.68
  Q 128.60 63.69 128.33 63.69
  Q 128.09 63.69 128.07 63.68
  Q 119.61 60.05 116.53 52.14
  C 113.00 43.12 121.58 32.36 128.20 26.31
  Q 128.25 26.26 128.30 26.26
  Z"
/>
<path fill="#545bfe" d="
  M 102.88 73.77
  Q 102.26 74.02 101.04 73.78
  C 82.64 70.23 84.16 54.31 90.03 41.15
  Q 90.09 41.01 90.15 40.99
  Q 90.21 40.97 90.34 41.03
  C 103.56 46.77 115.44 57.48 104.27 72.53
  Q 103.53 73.52 102.88 73.77
  Z"
/>
<path fill="#545bfe" d="
  M 166.66 41.02
  Q 166.72 41.05 166.78 41.18
  C 172.64 54.34 174.15 70.26 155.76 73.80
  Q 154.54 74.03 153.92 73.79
  Q 153.27 73.54 152.53 72.54
  C 141.38 57.50 153.26 46.79 166.47 41.06
  Q 166.60 41.00 166.66 41.02
  Z"
/>
<path fill="#545bfe" d="
  M 75.07 79.26
  Q 74.58 79.61 73.48 79.67
  C 56.76 80.60 54.61 66.47 56.83 53.79
  Q 56.85 53.66 56.90 53.63
  Q 56.95 53.60 57.08 53.62
  C 69.78 55.71 82.40 62.41 76.00 77.88
  Q 75.58 78.90 75.07 79.26
  Z"
/>
<path fill="#545bfe" d="
  M 181.72 79.28
  Q 181.21 78.92 180.79 77.90
  C 174.39 62.43 187.02 55.73 199.71 53.64
  Q 199.85 53.62 199.89 53.65
  Q 199.94 53.68 199.96 53.81
  C 202.18 66.49 200.02 80.62 183.31 79.69
  Q 182.20 79.63 181.72 79.28
  Z"
/>
<path fill="#545bfe" d="
  M 128.38 101.02
  Q 127.76 101.02 126.82 100.44
  C 112.67 91.56 119.06 78.80 128.18 69.75
  Q 128.27 69.66 128.33 69.66
  Q 128.39 69.66 128.48 69.75
  C 137.62 78.78 144.05 91.52 129.91 100.43
  Q 128.98 101.02 128.38 101.02
  Z"
/>
<path fill="#545bfe" d="
  M 173.40 77.95
  Q 173.44 77.98 173.46 78.05
  C 175.71 87.51 176.85 102.40 168.18 108.35
  Q 160.59 113.56 150.79 111.66
  Q 150.77 111.66 150.55 111.51
  Q 150.31 111.34 150.30 111.33
  Q 144.95 102.89 147.03 93.93
  C 149.40 83.69 163.68 79.31 173.31 77.95
  Q 173.38 77.94 173.40 77.95
  Z"
/>
<path fill="#545bfe" d="
  M 83.40 77.95
  Q 83.41 77.94 83.49 77.95
  C 93.12 79.32 107.39 83.71 109.75 93.96
  Q 111.83 102.93 106.47 111.36
  Q 106.46 111.37 106.22 111.54
  Q 106.00 111.69 105.98 111.69
  Q 96.17 113.58 88.59 108.36
  C 79.93 102.40 81.08 87.51 83.34 78.06
  Q 83.36 77.98 83.40 77.95
  Z"
/>
<path fill="#545bfe" d="
  M 34.59 85.76
  Q 34.60 85.75 34.67 85.72
  C 43.82 82.42 58.49 79.61 65.38 87.55
  Q 71.42 94.51 70.64 104.47
  Q 70.64 104.49 70.50 104.75
  Q 70.38 104.98 70.36 104.99
  Q 62.58 111.26 53.43 110.20
  C 42.99 109.00 37.02 95.30 34.59 85.89
  Q 34.57 85.81 34.59 85.76
  Z"
/>
<path fill="#545bfe" d="
  M 222.23 85.74
  Q 222.25 85.78 222.23 85.86
  C 219.81 95.27 213.87 108.98 203.42 110.19
  Q 194.28 111.26 186.49 105.01
  Q 186.48 104.99 186.35 104.76
  Q 186.22 104.50 186.22 104.48
  Q 185.42 94.53 191.45 87.57
  C 198.32 79.61 213.00 82.40 222.14 85.69
  Q 222.22 85.72 222.23 85.74
  Z"
/>
<path fill="#545bfe" d="
  M 128.34 137.28
  Q 127.72 137.28 126.79 136.70
  C 112.64 127.78 119.07 115.03 128.22 106.00
  Q 128.31 105.91 128.36 105.91
  Q 128.43 105.91 128.52 106.00
  C 137.64 115.06 144.04 127.82 129.87 136.70
  Q 128.94 137.29 128.34 137.28
  Z"
/>
<path fill="#545bfe" d="
  M 56.60 126.11
  Q 56.54 126.73 55.88 127.61
  C 45.77 140.95 33.61 133.45 25.38 123.55
  Q 25.29 123.45 25.30 123.39
  Q 25.30 123.33 25.40 123.25
  C 35.22 114.92 48.50 109.64 56.14 124.53
  Q 56.65 125.51 56.60 126.11
  Z"
/>
<path fill="#545bfe" d="
  M 200.20 126.10
  Q 200.14 125.48 200.65 124.50
  C 208.25 109.61 221.53 114.86 231.35 123.15
  Q 231.45 123.24 231.46 123.29
  Q 231.46 123.35 231.38 123.46
  C 223.18 133.36 211.05 140.88 200.92 127.57
  Q 200.25 126.70 200.20 126.10
  Z"
/>
<path fill="#545bfe" d="
  M 128.50 158.54
  Q 128.93 158.54 129.16 158.15
  Q 137.48 144.55 151.73 121.16
  A 2.92 2.91 15.5 0 1 154.23 119.75
  L 192.29 119.75
  A 0.60 0.59 -72.9 0 1 192.78 120.68
  L 147.70 187.14
  A 4.05 4.02 -28.1 0 0 147.00 189.41
  L 147.00 229.22
  A 1.52 1.52 0.0 0 1 145.53 230.74
  Q 145.31 230.74 128.50 230.74
  Q 111.69 230.74 111.47 230.74
  A 1.52 1.52 0.0 0 1 110.00 229.22
  L 110.00 189.41
  A 4.05 4.02 28.1 0 0 109.30 187.14
  L 64.22 120.68
  A 0.60 0.59 72.9 0 1 64.71 119.75
  L 102.77 119.75
  A 2.92 2.91 -15.5 0 1 105.27 121.16
  Q 119.52 144.55 127.84 158.15
  Q 128.07 158.54 128.50 158.54
  Z"
/>
<path fill="#545bfe" d="
  M 73.25 149.44
  Q 73.29 149.73 73.29 149.75
  Q 70.62 159.38 62.57 163.86
  C 53.38 168.98 40.54 161.33 33.07 155.10
  Q 33.01 155.05 33.00 155.03
  Q 33.00 154.98 33.04 154.92
  C 38.54 146.89 48.83 136.05 59.06 138.48
  Q 68.03 140.61 73.20 149.16
  Q 73.21 149.18 73.25 149.44
  Z"
/>
<path fill="#545bfe" d="
  M 223.77 155.01
  Q 223.76 155.06 223.70 155.11
  C 216.23 161.34 203.39 168.99 194.20 163.87
  Q 186.14 159.39 183.48 149.76
  Q 183.47 149.74 183.51 149.48
  Q 183.55 149.19 183.56 149.17
  Q 188.74 140.62 197.70 138.49
  C 207.93 136.06 218.22 146.90 223.73 154.92
  Q 223.77 154.99 223.77 155.01
  Z"
/>
<path fill="#545bfe" d="
  M 82.24 163.77
  Q 82.58 164.01 82.77 164.45
  C 88.28 177.45 78.33 183.17 67.52 184.93
  Q 67.39 184.96 67.31 184.90
  Q 67.16 184.79 67.14 184.66
  C 65.24 173.88 67.35 162.60 81.44 163.51
  Q 81.92 163.54 82.24 163.77
  Z"
/>
<path fill="#545bfe" d="
  M 189.49 184.90
  Q 189.41 184.96 189.28 184.94
  C 178.47 183.19 168.51 177.49 174.00 164.47
  Q 174.18 164.04 174.52 163.79
  Q 174.85 163.56 175.32 163.53
  C 189.42 162.60 191.55 173.88 189.66 184.67
  Q 189.64 184.80 189.49 184.90
  Z"
/>
</svg>