<?xml version="1.0" encoding="UTF-8" standalone="no"?>
<!DOCTYPE svg PUBLIC "-//W3C//DTD SVG 1.1//EN" "http://www.w3.org/Graphics/SVG/1.1/DTD/svg11.dtd">
<svg xmlns="http://www.w3.org/2000/svg" version="1.1" viewBox="0.00 0.00 180.00 180.00" width="128" height="128">
<g stroke-width="2.00" fill="none" stroke-linecap="butt">
<path stroke="#1267e5" vector-effect="non-scaling-stroke" d="
  M 126.18 0.00
  Q 115.02 9.15 104.58 15.17
  Q 87.91 24.79 75.52 33.61"
/>
<path stroke="#89b6f6" vector-effect="non-scaling-stroke" d="
  M 75.52 33.61
  Q 56.56 33.13 43.88 46.47"
/>
<path stroke="#1267e5" vector-effect="non-scaling-stroke" d="
  M 43.88 46.47
  Q 41.53 48.20 32.89 55.79
  Q 31.89 56.67 24.68 61.67
  A 4.23 4.21 19.7 0 1 23.42 62.26
  Q 22.41 62.55 21.95 62.85
  Q 18.28 65.23 14.82 66.50
  A 7.88 7.88 0.0 0 0 12.32 67.99
  L 11.11 69.05
  A 1.57 1.54 24.2 0 1 10.05 69.44
  Q 9.44 69.47 8.60 69.19
  A 1.15 1.15 0.0 0 0 7.36 69.52
  C 5.56 71.56 3.59 74.81 0.00 72.72"
/>
<path stroke="#0f59d5" vector-effect="non-scaling-stroke" d="
  M 180.00 11.93
  Q 179.75 15.64 177.96 18.07
  C 175.92 20.82 171.96 21.08 169.63 23.15
  A 0.40 0.40 0.0 0 1 168.96 22.85
  L 168.96 20.91
  A 0.33 0.33 0.0 0 0 168.37 20.72
  C 167.07 22.51 164.64 25.26 162.64 25.29
  Q 161.98 25.30 161.79 24.99
  A 0.31 0.31 0.0 0 0 161.28 24.95
  L 157.46 29.62
  A 0.38 0.38 0.0 0 1 156.80 29.48
  L 156.63 28.83
  A 0.22 0.22 0.0 0 0 156.21 28.83
  Q 156.15 29.04 156.14 29.16
  A 1.00 1.00 0.0 0 1 155.50 30.00
  C 153.77 30.68 152.60 32.53 150.69 30.60
  A 0.38 0.38 0.0 0 0 150.06 30.77
  Q 150.01 30.95 150.08 31.30
  C 150.40 32.75 151.81 32.96 150.65 34.86
  A 0.31 0.30 -42.4 0 1 150.12 34.84
  Q 149.42 33.46 147.83 32.51
  A 0.47 0.47 0.0 0 0 147.12 32.92
  L 147.12 33.56
  A 0.62 0.62 0.0 0 1 146.06 33.99
  Q 145.88 33.79 145.63 33.35
  A 0.27 0.26 -51.6 0 0 145.14 33.41
  C 144.67 35.13 147.05 36.03 145.63 37.87
  A 0.42 0.41 -34.0 0 1 144.90 37.73
  L 143.98 34.29
  A 0.27 0.27 0.0 0 0 143.53 34.17
  L 142.16 35.52
  A 0.31 0.29 -24.2 0 0 142.07 35.73
  L 142.07 39.35
  A 0.45 0.44 -48.6 0 1 141.18 39.41
  L 140.91 37.12
  A 0.23 0.22 60.8 0 0 140.51 37.00
  Q 138.12 40.09 137.82 41.59
  A 0.26 0.26 0.0 0 1 137.36 41.69
  Q 137.26 41.54 136.88 38.60
  A 0.23 0.23 0.0 0 0 136.65 38.40
  L 136.29 38.40
  A 0.11 0.11 0.0 0 0 136.18 38.51
  L 136.18 41.64
  A 0.51 0.51 0.0 0 1 135.19 41.83
  Q 134.82 40.91 134.80 39.78
  A 0.54 0.54 0.0 0 0 133.82 39.47
  Q 132.48 41.30 129.86 41.92
  A 1.49 1.43 13.0 0 0 129.11 42.37
  Q 128.95 42.54 128.85 42.59
  A 0.57 0.57 0.0 0 0 128.90 43.64
  Q 130.70 44.29 131.54 45.43
  A 0.31 0.31 0.0 0 1 131.27 45.92
  Q 130.97 45.89 130.98 45.56
  Q 131.00 45.15 130.31 45.19
  Q 128.08 45.31 126.47 44.50
  A 0.24 0.24 0.0 0 0 126.13 44.78
  L 127.03 48.14
  A 0.49 0.48 -33.6 0 1 126.94 48.56
  L 126.72 48.83
  A 0.46 0.46 0.0 0 1 125.98 48.79
  C 124.72 46.89 123.12 46.79 121.62 48.46
  A 0.68 0.67 -53.2 0 1 120.76 48.59
  Q 120.12 48.19 119.97 47.97
  A 0.47 0.47 0.0 0 0 119.13 48.37
  Q 119.66 50.19 118.20 51.56
  Q 114.39 55.15 109.94 57.84"
/>
<path stroke="#88b0ef" vector-effect="non-scaling-stroke" d="
  M 109.94 57.84
  Q 99.90 35.93 75.52 33.61"
/>
<path stroke="#0c4cc4" vector-effect="non-scaling-stroke" d="
  M 180.00 86.44
  C 160.76 93.33 142.72 104.83 126.71 117.05"
/>
<path stroke="#86a8e5" vector-effect="non-scaling-stroke" d="
  M 126.71 117.05
  L 111.27 101.64
  A 1.33 1.33 0.0 0 0 110.33 101.25
  L 106.47 101.25
  A 0.69 0.68 -24.7 0 1 106.03 101.09
  L 104.01 99.44
  A 0.73 0.73 0.0 0 1 103.89 98.43
  Q 117.90 80.09 109.94 57.84"
/>
<path stroke="#85a3de" vector-effect="non-scaling-stroke" d="
  M 126.71 117.05
  L 145.96 136.06
  A 0.73 0.72 -45.3 0 1 145.96 137.09
  L 137.13 145.93
  A 0.74 0.74 0.0 0 1 136.08 145.92
  L 113.74 123.18"
/>
<path stroke="#86a8e5" vector-effect="non-scaling-stroke" d="
  M 113.74 123.18
  L 101.71 111.12
  A 1.21 1.19 -67.8 0 1 101.36 110.27
  L 101.36 106.60
  A 1.32 1.28 30.9 0 0 101.19 105.96
  Q 100.43 104.67 99.42 103.84
  A 0.82 0.82 0.0 0 0 98.40 103.83
  C 80.70 117.38 56.61 115.15 42.33 97.87"
/>
<path stroke="#88b0ef" vector-effect="non-scaling-stroke" d="
  M 42.33 97.87
  C 30.61 82.10 30.94 61.53 43.88 46.47"
/>
<path stroke="#88b0ef" vector-effect="non-scaling-stroke" d="
  M 101.23 73.35
  A 28.11 28.11 0.0 0 0 73.12 45.24
  A 28.11 28.11 0.0 0 0 45.01 73.35
  A 28.11 28.11 0.0 0 0 73.12 101.46
  A 28.11 28.11 0.0 0 0 101.23 73.35"
/>
<path stroke="#0f59d5" vector-effect="non-scaling-stroke" d="
  M 42.33 97.87
  C 40.11 98.70 35.68 101.05 33.41 99.25
  A 0.72 0.72 0.0 0 0 32.24 99.82
  L 32.24 100.33
  A 0.43 0.43 0.0 0 1 31.52 100.64
  Q 31.18 100.32 30.83 99.57
  A 0.41 0.41 0.0 0 0 30.35 99.35
  L 30.05 99.43
  A 0.27 0.27 0.0 0 0 29.88 99.83
  L 31.06 101.92
  A 0.77 0.77 0.0 0 1 29.82 102.83
  Q 29.49 102.49 28.62 102.35
  A 0.81 0.81 0.0 0 0 27.77 102.76
  Q 27.07 104.03 26.89 105.73
  A 0.12 0.11 2.6 0 1 26.77 105.83
  L 26.52 105.83
  A 0.37 0.36 1.5 0 1 26.15 105.45
  Q 26.21 103.51 24.65 103.36
  A 0.51 0.51 0.0 0 0 24.11 104.01
  L 24.30 104.73
  A 0.47 0.47 0.0 0 1 23.88 105.32
  C 21.05 105.50 19.48 111.69 15.52 108.66
  A 0.46 0.45 30.7 0 0 14.83 108.83
  Q 14.72 109.09 14.62 109.15
  A 0.78 0.78 0.0 0 0 14.21 109.80
  L 14.10 113.05
  A 0.28 0.27 38.6 0 1 13.56 113.11
  L 12.72 110.00
  A 0.37 0.37 0.0 0 0 11.99 110.09
  L 11.99 114.76
  A 0.40 0.40 0.0 0 1 11.20 114.80
  L 10.82 111.09
  A 0.19 0.19 0.0 0 0 10.67 110.92
  L 10.66 110.92
  A 0.24 0.24 0.0 0 0 10.42 111.14
  L 10.13 114.52
  A 0.60 0.60 0.0 0 1 9.35 115.04
  Q 9.02 114.91 9.01 114.75
  A 0.39 0.39 0.0 0 0 8.52 114.38
  L 3.59 115.71
  A 0.65 0.65 0.0 0 0 3.42 116.89
  Q 3.43 116.90 3.73 117.01
  A 0.35 0.35 0.0 0 1 3.85 117.58
  Q 3.24 118.19 2.67 118.08
  A 0.57 0.57 0.0 0 0 2.04 118.87
  Q 2.25 119.34 2.20 119.62
  A 0.33 0.32 -52.2 0 1 1.58 119.70
  L 0.00 116.09"
/>
<path stroke="#0a41b8" vector-effect="non-scaling-stroke" d="
  M 180.00 135.01
  Q 169.93 136.91 161.48 141.77
  Q 143.11 152.34 117.73 167.68
  Q 110.95 171.78 102.08 180.00"
/>
<path stroke="#0c4cc4" vector-effect="non-scaling-stroke" d="
  M 20.94 180.00
  Q 42.46 163.53 65.67 151.72
  Q 74.84 147.06 89.48 140.17
  Q 102.28 134.16 113.74 123.18"
/>
</g>
<path fill="#126dec" d="
  M 126.18 0.00
  Q 115.02 9.15 104.58 15.17
  Q 87.91 24.79 75.52 33.61
  Q 56.56 33.13 43.88 46.47
  Q 41.53 48.20 32.89 55.79
  Q 31.89 56.67 24.68 61.67
  A 4.23 4.21 19.7 0 1 23.42 62.26
  Q 22.41 62.55 21.95 62.85
  Q 18.28 65.23 14.82 66.50
  A 7.88 7.88 0.0 0 0 12.32 67.99
  L 11.11 69.05
  A 1.57 1.54 24.2 0 1 10.05 69.44
  Q 9.44 69.47 8.60 69.19
  A 1.15 1.15 0.0 0 0 7.36 69.52
  C 5.56 71.56 3.59 74.81 0.00 72.72
  L 0.00 0.00
  L 126.18 0.00
  Z"
/>
<path fill="#1161de" d="
  M 180.00 0.00
  L 180.00 11.93
  Q 179.75 15.64 177.96 18.07
  C 175.92 20.82 171.96 21.08 169.63 23.15
  A 0.40 0.40 0.0 0 1 168.96 22.85
  L 168.96 20.91
  A 0.33 0.33 0.0 0 0 168.37 20.72
  C 167.07 22.51 164.64 25.26 162.64 25.29
  Q 161.98 25.30 161.79 24.99
  A 0.31 0.31 0.0 0 0 161.28 24.95
  L 157.46 29.62
  A 0.38 0.38 0.0 0 1 156.80 29.48
  L 156.63 28.83
  A 0.22 0.22 0.0 0 0 156.21 28.83
  Q 156.15 29.04 156.14 29.16
  A 1.00 1.00 0.0 0 1 155.50 30.00
  C 153.77 30.68 152.60 32.53 150.69 30.60
  A 0.38 0.38 0.0 0 0 150.06 30.77
  Q 150.01 30.95 150.08 31.30
  C 150.40 32.75 151.81 32.96 150.65 34.86
  A 0.31 0.30 -42.4 0 1 150.12 34.84
  Q 149.42 33.46 147.83 32.51
  A 0.47 0.47 0.0 0 0 147.12 32.92
  L 147.12 33.56
  A 0.62 0.62 0.0 0 1 146.06 33.99
  Q 145.88 33.79 145.63 33.35
  A 0.27 0.26 -51.6 0 0 145.14 33.41
  C 144.67 35.13 147.05 36.03 145.63 37.87
  A 0.42 0.41 -34.0 0 1 144.90 37.73
  L 143.98 34.29
  A 0.27 0.27 0.0 0 0 143.53 34.17
  L 142.16 35.52
  A 0.31 0.29 -24.2 0 0 142.07 35.73
  L 142.07 39.35
  A 0.45 0.44 -48.6 0 1 141.18 39.41
  L 140.91 37.12
  A 0.23 0.22 60.8 0 0 140.51 37.00
  Q 138.12 40.09 137.82 41.59
  A 0.26 0.26 0.0 0 1 137.36 41.69
  Q 137.26 41.54 136.88 38.60
  A 0.23 0.23 0.0 0 0 136.65 38.40
  L 136.29 38.40
  A 0.11 0.11 0.0 0 0 136.18 38.51
  L 136.18 41.64
  A 0.51 0.51 0.0 0 1 135.19 41.83
  Q 134.82 40.91 134.80 39.78
  A 0.54 0.54 0.0 0 0 133.82 39.47
  Q 132.48 41.30 129.86 41.92
  A 1.49 1.43 13.0 0 0 129.11 42.37
  Q 128.95 42.54 128.85 42.59
  A 0.57 0.57 0.0 0 0 128.90 43.64
  Q 130.70 44.29 131.54 45.43
  A 0.31 0.31 0.0 0 1 131.27 45.92
  Q 130.97 45.89 130.98 45.56
  Q 131.00 45.15 130.31 45.19
  Q 128.08 45.31 126.47 44.50
  A 0.24 0.24 0.0 0 0 126.13 44.78
  L 127.03 48.14
  A 0.49 0.48 -33.6 0 1 126.94 48.56
  L 126.72 48.83
  A 0.46 0.46 0.0 0 1 125.98 48.79
  C 124.72 46.89 123.12 46.79 121.62 48.46
  A 0.68 0.67 -53.2 0 1 120.76 48.59
  Q 120.12 48.19 119.97 47.97
  A 0.47 0.47 0.0 0 0 119.13 48.37
  Q 119.66 50.19 118.20 51.56
  Q 114.39 55.15 109.94 57.84
  Q 99.90 35.93 75.52 33.61
  Q 87.91 24.79 104.58 15.17
  Q 115.02 9.15 126.18 0.00
  L 180.00 0.00
  Z"
/>
<path fill="#0d51cb" d="
  M 180.00 11.93
  L 180.00 86.44
  C 160.76 93.33 142.72 104.83 126.71 117.05
  L 111.27 101.64
  A 1.33 1.33 0.0 0 0 110.33 101.25
  L 106.47 101.25
  A 0.69 0.68 -24.7 0 1 106.03 101.09
  L 104.01 99.44
  A 0.73 0.73 0.0 0 1 103.89 98.43
  Q 117.90 80.09 109.94 57.84
  Q 114.39 55.15 118.20 51.56
  Q 119.66 50.19 119.13 48.37
  A 0.47 0.47 0.0 0 1 119.97 47.97
  Q 120.12 48.19 120.76 48.59
  A 0.68 0.67 -53.2 0 0 121.62 48.46
  C 123.12 46.79 124.72 46.89 125.98 48.79
  A 0.46 0.46 0.0 0 0 126.72 48.83
  L 126.94 48.56
  A 0.49 0.48 -33.6 0 0 127.03 48.14
  L 126.13 44.78
  A 0.24 0.24 0.0 0 1 126.47 44.50
  Q 128.08 45.31 130.31 45.19
  Q 131.00 45.15 130.98 45.56
  Q 130.97 45.89 131.27 45.92
  A 0.31 0.31 0.0 0 0 131.54 45.43
  Q 130.70 44.29 128.90 43.64
  A 0.57 0.57 0.0 0 1 128.85 42.59
  Q 128.95 42.54 129.11 42.37
  A 1.49 1.43 13.0 0 1 129.86 41.92
  Q 132.48 41.30 133.82 39.47
  A 0.54 0.54 0.0 0 1 134.80 39.78
  Q 134.82 40.91 135.19 41.83
  A 0.51 0.51 0.0 0 0 136.18 41.64
  L 136.18 38.51
  A 0.11 0.11 0.0 0 1 136.29 38.40
  L 136.65 38.40
  A 0.23 0.23 0.0 0 1 136.88 38.60
  Q 137.26 41.54 137.36 41.69
  A 0.26 0.26 0.0 0 0 137.82 41.59
  Q 138.12 40.09 140.51 37.00
  A 0.23 0.22 60.8 0 1 140.91 37.12
  L 141.18 39.41
  A 0.45 0.44 -48.6 0 0 142.07 39.35
  L 142.07 35.73
  A 0.31 0.29 -24.2 0 1 142.16 35.52
  L 143.53 34.17
  A 0.27 0.27 0.0 0 1 143.98 34.29
  L 144.90 37.73
  A 0.42 0.41 -34.0 0 0 145.63 37.87
  C 147.05 36.03 144.67 35.13 145.14 33.41
  A 0.27 0.26 -51.6 0 1 145.63 33.35
  Q 145.88 33.79 146.06 33.99
  A 0.62 0.62 0.0 0 0 147.12 33.56
  L 147.12 32.92
  A 0.47 0.47 0.0 0 1 147.83 32.51
  Q 149.42 33.46 150.12 34.84
  A 0.31 0.30 -42.4 0 0 150.65 34.86
  C 151.81 32.96 150.40 32.75 150.08 31.30
  Q 150.01 30.95 150.06 30.77
  A 0.38 0.38 0.0 0 1 150.69 30.60
  C 152.60 32.53 153.77 30.68 155.50 30.00
  A 1.00 1.00 0.0 0 0 156.14 29.16
  Q 156.15 29.04 156.21 28.83
  A 0.22 0.22 0.0 0 1 156.63 28.83
  L 156.80 29.48
  A 0.38 0.38 0.0 0 0 157.46 29.62
  L 161.28 24.95
  A 0.31 0.31 0.0 0 1 161.79 24.99
  Q 161.98 25.30 162.64 25.29
  C 164.64 25.26 167.07 22.51 168.37 20.72
  A 0.33 0.33 0.0 0 1 168.96 20.91
  L 168.96 22.85
  A 0.40 0.40 0.0 0 0 169.63 23.15
  C 171.96 21.08 175.92 20.82 177.96 18.07
  Q 179.75 15.64 180.00 11.93
  Z"
/>
<path fill="#ffffff" d="
  M 75.52 33.61
  Q 99.90 35.93 109.94 57.84
  Q 117.90 80.09 103.89 98.43
  A 0.73 0.73 0.0 0 0 104.01 99.44
  L 106.03 101.09
  A 0.69 0.68 -24.7 0 0 106.47 101.25
  L 110.33 101.25
  A 1.33 1.33 0.0 0 1 111.27 101.64
  L 126.71 117.05
  L 145.96 136.06
  A 0.73 0.72 -45.3 0 1 145.96 137.09
  L 137.13 145.93
  A 0.74 0.74 0.0 0 1 136.08 145.92
  L 113.74 123.18
  L 101.71 111.12
  A 1.21 1.19 -67.8 0 1 101.36 110.27
  L 101.36 106.60
  A 1.32 1.28 30.9 0 0 101.19 105.96
  Q 100.43 104.67 99.42 103.84
  A 0.82 0.82 0.0 0 0 98.40 103.83
  C 80.70 117.38 56.61 115.15 42.33 97.87
  C 30.61 82.10 30.94 61.53 43.88 46.47
  Q 56.56 33.13 75.52 33.61
  Z
  M 101.23 73.35
  A 28.11 28.11 0.0 0 0 73.12 45.24
  A 28.11 28.11 0.0 0 0 45.01 73.35
  A 28.11 28.11 0.0 0 0 73.12 101.46
  A 28.11 28.11 0.0 0 0 101.23 73.35
  Z"
/>
<circle fill="#1161de" cx="73.12" cy="73.35" r="28.11"/>
<path fill="#1161de" d="
  M 43.88 46.47
  C 30.94 61.53 30.61 82.10 42.33 97.87
  C 40.11 98.70 35.68 101.05 33.41 99.25
  A 0.72 0.72 0.0 0 0 32.24 99.82
  L 32.24 100.33
  A 0.43 0.43 0.0 0 1 31.52 100.64
  Q 31.18 100.32 30.83 99.57
  A 0.41 0.41 0.0 0 0 30.35 99.35
  L 30.05 99.43
  A 0.27 0.27 0.0 0 0 29.88 99.83
  L 31.06 101.92
  A 0.77 0.77 0.0 0 1 29.82 102.83
  Q 29.49 102.49 28.62 102.35
  A 0.81 0.81 0.0 0 0 27.77 102.76
  Q 27.07 104.03 26.89 105.73
  A 0.12 0.11 2.6 0 1 26.77 105.83
  L 26.52 105.83
  A 0.37 0.36 1.5 0 1 26.15 105.45
  Q 26.21 103.51 24.65 103.36
  A 0.51 0.51 0.0 0 0 24.11 104.01
  L 24.30 104.73
  A 0.47 0.47 0.0 0 1 23.88 105.32
  C 21.05 105.50 19.48 111.69 15.52 108.66
  A 0.46 0.45 30.7 0 0 14.83 108.83
  Q 14.72 109.09 14.62 109.15
  A 0.78 0.78 0.0 0 0 14.21 109.80
  L 14.10 113.05
  A 0.28 0.27 38.6 0 1 13.56 113.11
  L 12.72 110.00
  A 0.37 0.37 0.0 0 0 11.99 110.09
  L 11.99 114.76
  A 0.40 0.40 0.0 0 1 11.20 114.80
  L 10.82 111.09
  A 0.19 0.19 0.0 0 0 10.67 110.92
  L 10.66 110.92
  A 0.24 0.24 0.0 0 0 10.42 111.14
  L 10.13 114.52
  A 0.60 0.60 0.0 0 1 9.35 115.04
  Q 9.02 114.91 9.01 114.75
  A 0.39 0.39 0.0 0 0 8.52 114.38
  L 3.59 115.71
  A 0.65 0.65 0.0 0 0 3.42 116.89
  Q 3.43 116.90 3.73 117.01
  A 0.35 0.35 0.0 0 1 3.85 117.58
  Q 3.24 118.19 2.67 118.08
  A 0.57 0.57 0.0 0 0 2.04 118.87
  Q 2.25 119.34 2.20 119.62
  A 0.33 0.32 -52.2 0 1 1.58 119.70
  L 0.00 116.09
  L 0.00 72.72
  C 3.59 74.81 5.56 71.56 7.36 69.52
  A 1.15 1.15 0.0 0 1 8.60 69.19
  Q 9.44 69.47 10.05 69.44
  A 1.57 1.54 24.2 0 0 11.11 69.05
  L 12.32 67.99
  A 7.88 7.88 0.0 0 1 14.82 66.50
  Q 18.28 65.23 21.95 62.85
  Q 22.41 62.55 23.42 62.26
  A 4.23 4.21 19.7 0 0 24.68 61.67
  Q 31.89 56.67 32.89 55.79
  Q 41.53 48.20 43.88 46.47
  Z"
/>
<path fill="#0b46bd" d="
  M 180.00 86.44
  L 180.00 135.01
  Q 169.93 136.91 161.48 141.77
  Q 143.11 152.34 117.73 167.68
  Q 110.95 171.78 102.08 180.00
  L 20.94 180.00
  Q 42.46 163.53 65.67 151.72
  Q 74.84 147.06 89.48 140.17
  Q 102.28 134.16 113.74 123.18
  L 136.08 145.92
  A 0.74 0.74 0.0 0 0 137.13 145.93
  L 145.96 137.09
  A 0.73 0.72 -45.3 0 0 145.96 136.06
  L 126.71 117.05
  C 142.72 104.83 160.76 93.33 180.00 86.44
  Z"
/>
<path fill="#0d51cb" d="
  M 42.33 97.87
  C 56.61 115.15 80.70 117.38 98.40 103.83
  A 0.82 0.82 0.0 0 1 99.42 103.84
  Q 100.43 104.67 101.19 105.96
  A 1.32 1.28 30.9 0 1 101.36 106.60
  L 101.36 110.27
  A 1.21 1.19 -67.8 0 0 101.71 111.12
  L 113.74 123.18
  Q 102.28 134.16 89.48 140.17
  Q 74.84 147.06 65.67 151.72
  Q 42.46 163.53 20.94 180.00
  L 0.00 180.00
  L 0.00 116.09
  L 1.58 119.70
  A 0.33 0.32 -52.2 0 0 2.20 119.62
  Q 2.25 119.34 2.04 118.87
  A 0.57 0.57 0.0 0 1 2.67 118.08
  Q 3.24 118.19 3.85 117.58
  A 0.35 0.35 0.0 0 0 3.73 117.01
  Q 3.43 116.90 3.42 116.89
  A 0.65 0.65 0.0 0 1 3.59 115.71
  L 8.52 114.38
  A 0.39 0.39 0.0 0 1 9.01 114.75
  Q 9.02 114.91 9.35 115.04
  A 0.60 0.60 0.0 0 0 10.13 114.52
  L 10.42 111.14
  A 0.24 0.24 0.0 0 1 10.66 110.92
  L 10.67 110.92
  A 0.19 0.19 0.0 0 1 10.82 111.09
  L 11.20 114.80
  A 0.40 0.40 0.0 0 0 11.99 114.76
  L 11.99 110.09
  A 0.37 0.37 0.0 0 1 12.72 110.00
  L 13.56 113.11
  A 0.28 0.27 38.6 0 0 14.10 113.05
  L 14.21 109.80
  A 0.78 0.78 0.0 0 1 14.62 109.15
  Q 14.72 109.09 14.83 108.83
  A 0.46 0.45 30.7 0 1 15.52 108.66
  C 19.48 111.69 21.05 105.50 23.88 105.32
  A 0.47 0.47 0.0 0 0 24.30 104.73
  L 24.11 104.01
  A 0.51 0.51 0.0 0 1 24.65 103.36
  Q 26.21 103.51 26.15 105.45
  A 0.37 0.36 1.5 0 0 26.52 105.83
  L 26.77 105.83
  A 0.12 0.11 2.6 0 0 26.89 105.73
  Q 27.07 104.03 27.77 102.76
  A 0.81 0.81 0.0 0 1 28.62 102.35
  Q 29.49 102.49 29.82 102.83
  A 0.77 0.77 0.0 0 0 31.06 101.92
  L 29.88 99.83
  A 0.27 0.27 0.0 0 1 30.05 99.43
  L 30.35 99.35
  A 0.41 0.41 0.0 0 1 30.83 99.57
  Q 31.18 100.32 31.52 100.64
  A 0.43 0.43 0.0 0 0 32.24 100.33
  L 32.24 99.82
  A 0.72 0.72 0.0 0 1 33.41 99.25
  C 35.68 101.05 40.11 98.70 42.33 97.87
  Z"
/>
<path fill="#093bb2" d="
  M 180.00 135.01
  L 180.00 180.00
  L 102.08 180.00
  Q 110.95 171.78 117.73 167.68
  Q 143.11 152.34 161.48 141.77
  Q 169.93 136.91 180.00 135.01
  Z"
/>
</svg>