<?xml version="1.0" encoding="UTF-8" standalone="no"?>
<!DOCTYPE svg PUBLIC "-//W3C//DTD SVG 1.1//EN" "http://www.w3.org/Graphics/SVG/1.1/DTD/svg11.dtd">
<svg xmlns="http://www.w3.org/2000/svg" version="1.1" viewBox="0.00 0.00 256.00 256.00" width="128" height="128">
<g stroke-width="2.00" fill="none" stroke-linecap="butt">
<path stroke="#632ea3" vector-effect="non-scaling-stroke" d="
  M 128.05 0.00
  Q 114.78 8.13 99.92 22.67
  Q 83.48 38.74 70.84 52.28
  Q 63.64 60.01 57.21 70.05"
/>
<path stroke="#ae96d2" vector-effect="non-scaling-stroke" d="
  M 57.21 70.05
  L 51.35 70.36
  A 0.53 0.52 88.3 0 0 50.85 70.90
  L 50.93 74.23"
/>
<path stroke="#632ea3" vector-effect="non-scaling-stroke" d="
  M 50.93 74.23
  C 33.04 89.49 16.48 108.17 0.00 122.16"
/>
<path stroke="#7432a2" vector-effect="non-scaling-stroke" d="
  M 192.04 0.00
  Q 181.56 12.42 177.68 16.42
  C 163.77 30.78 149.92 45.06 136.53 59.90"
/>
<path stroke="#b497d1" vector-effect="non-scaling-stroke" d="
  M 136.53 59.90
  L 78.44 67.34
  A 0.39 0.39 0.0 0 0 78.14 67.56
  L 74.47 75.23
  A 0.17 0.16 9.1 0 0 74.64 75.46
  L 90.33 73.46"
/>
<path stroke="#7432a2" vector-effect="non-scaling-stroke" d="
  M 90.33 73.46
  L 62.77 102.72"
/>
<path stroke="#b497d1" vector-effect="non-scaling-stroke" d="
  M 62.77 102.72
  L 61.95 70.83
  A 0.80 0.79 -0.7 0 0 61.15 70.06
  L 57.21 70.05"
/>
<path stroke="#8436a0" vector-effect="non-scaling-stroke" d="
  M 238.28 0.00
  Q 223.46 11.32 209.41 25.16
  C 189.99 44.30 171.86 61.48 156.30 82.06"
/>
<path stroke="#bf9ad0" vector-effect="non-scaling-stroke" d="
  M 156.30 82.06
  L 127.79 85.27
  A 0.28 0.28 0.0 0 1 127.52 84.83
  L 144.40 59.53
  A 0.33 0.32 13.5 0 0 144.09 59.03
  L 136.53 59.90"
/>
<path stroke="#94399f" vector-effect="non-scaling-stroke" d="
  M 256.00 23.32
  Q 237.81 40.65 220.28 58.53
  Q 209.91 69.11 201.71 81.46"
/>
<path stroke="#c59bcf" vector-effect="non-scaling-stroke" d="
  M 201.71 81.46
  L 195.49 81.57
  A 0.63 0.63 0.0 0 0 194.87 82.18
  L 193.24 116.41
  A 0.83 0.83 0.0 0 1 192.36 117.20
  Q 160.43 115.52 128.06 115.46"
/>
<path stroke="#8436a0" vector-effect="non-scaling-stroke" d="
  M 128.06 115.46
  C 131.00 106.32 136.10 99.41 142.02 92.01"
/>
<path stroke="#c59bcf" vector-effect="non-scaling-stroke" d="
  M 142.02 92.01
  L 178.61 87.26
  A 0.56 0.55 9.2 0 0 179.03 86.96
  L 182.72 79.24
  A 0.12 0.12 0.0 0 0 182.60 79.06
  L 156.30 82.06"
/>
<path stroke="#a33d9e" vector-effect="non-scaling-stroke" d="
  M 256.00 90.59
  C 243.84 99.51 233.07 110.19 222.72 121.11
  Q 215.60 128.61 209.57 136.94"
/>
<path stroke="#ce9dcf" vector-effect="non-scaling-stroke" d="
  M 209.57 136.94
  L 204.00 136.83
  A 0.51 0.51 0.0 0 1 203.50 136.30
  L 206.07 82.29
  A 0.47 0.47 0.0 0 0 205.64 81.80
  L 201.71 81.46"
/>
<path stroke="#bf9ad0" vector-effect="non-scaling-stroke" d="
  M 142.02 92.01
  L 111.89 95.89
  A 0.46 0.46 0.0 0 1 111.45 95.17
  L 129.02 68.83
  A 0.19 0.18 13.8 0 0 128.84 68.54
  L 90.33 73.46"
/>
<path stroke="#bf9ad0" vector-effect="non-scaling-stroke" d="
  M 128.06 115.46
  Q 95.85 115.51 63.74 117.19
  A 0.51 0.50 -2.3 0 1 63.21 116.71
  L 62.77 102.72"
/>
<path stroke="#d49fce" vector-effect="non-scaling-stroke" d="
  M 209.57 136.94
  Q 212.09 136.68 212.26 139.52
  Q 212.97 151.22 211.95 163.05"
/>
<path stroke="#dda1cd" vector-effect="non-scaling-stroke" d="
  M 211.95 163.05
  L 210.49 173.26
  A 0.76 0.75 5.5 0 1 209.71 173.90
  L 203.15 173.59
  A 0.76 0.76 0.0 0 0 202.36 174.28
  Q 200.72 193.79 182.07 199.39
  Q 178.42 200.49 169.03 200.00"
/>
<path stroke="#d49fce" vector-effect="non-scaling-stroke" d="
  M 169.03 200.00
  L 143.04 199.54"
/>
<path stroke="#ce9dcf" vector-effect="non-scaling-stroke" d="
  M 143.04 199.54
  Q 131.05 199.03 117.61 199.37
  Q 105.26 199.68 78.46 200.04"
/>
<path stroke="#c59bcf" vector-effect="non-scaling-stroke" d="
  M 78.46 200.04
  Q 69.44 199.36 62.48 193.63"
/>
<path stroke="#bf9ad0" vector-effect="non-scaling-stroke" d="
  M 62.48 193.63
  C 56.79 188.41 54.13 182.18 53.66 174.46
  A 0.57 0.56 89.4 0 0 53.12 173.92
  L 46.11 173.59
  A 0.67 0.66 -3.3 0 1 45.49 173.04
  Q 42.44 156.00 43.96 138.25
  A 1.53 1.53 0.0 0 1 45.56 136.85
  L 51.80 137.14
  A 0.74 0.74 0.0 0 0 52.58 136.38
  L 51.96 114.16"
/>
<path stroke="#b497d1" vector-effect="non-scaling-stroke" d="
  M 51.96 114.16
  L 50.93 74.23"
/>
<path stroke="#c59bcf" vector-effect="non-scaling-stroke" d="
  M 118.18 158.73
  A 21.59 21.59 0.0 0 0 96.59 137.14
  A 21.59 21.59 0.0 0 0 75.00 158.73
  A 21.59 21.59 0.0 0 0 96.59 180.32
  A 21.59 21.59 0.0 0 0 118.18 158.73"
/>
<path stroke="#ce9dcf" vector-effect="non-scaling-stroke" d="
  M 181.13 158.73
  A 21.59 21.59 0.0 0 0 159.54 137.14
  A 21.59 21.59 0.0 0 0 137.95 158.73
  A 21.59 21.59 0.0 0 0 159.54 180.32
  A 21.59 21.59 0.0 0 0 181.13 158.73"
/>
<path stroke="#7432a2" vector-effect="non-scaling-stroke" d="
  M 51.96 114.16
  Q 43.18 126.28 35.48 133.98
  C 23.35 146.12 11.34 158.15 0.00 171.06"
/>
<path stroke="#b1409c" vector-effect="non-scaling-stroke" d="
  M 256.00 122.22
  C 236.89 140.46 225.72 151.73 211.95 163.05"
/>
<path stroke="#8436a0" vector-effect="non-scaling-stroke" d="
  M 62.48 193.63
  L 6.20 251.07"
/>
<path stroke="#b1409c" vector-effect="non-scaling-stroke" d="
  M 124.17 256.00
  Q 139.22 238.75 155.31 222.61
  C 161.82 216.09 167.83 209.54 169.03 200.00"
/>
<path stroke="#c59bcf" vector-effect="non-scaling-stroke" d="
  M 108.02 158.72
  A 11.45 11.45 0.0 0 0 96.57 147.27
  A 11.45 11.45 0.0 0 0 85.12 158.72
  A 11.45 11.45 0.0 0 0 96.57 170.17
  A 11.45 11.45 0.0 0 0 108.02 158.72"
/>
<path stroke="#ce9dcf" vector-effect="non-scaling-stroke" d="
  M 170.97 158.71
  A 11.45 11.45 0.0 0 0 159.52 147.26
  A 11.45 11.45 0.0 0 0 148.07 158.71
  A 11.45 11.45 0.0 0 0 159.52 170.16
  A 11.45 11.45 0.0 0 0 170.97 158.71"
/>
<path stroke="#94399f" vector-effect="non-scaling-stroke" d="
  M 78.46 200.04
  Q 70.58 212.28 61.43 221.58
  Q 43.51 239.76 29.60 256.00"
/>
<path stroke="#a33d9e" vector-effect="non-scaling-stroke" d="
  M 143.04 199.54
  Q 126.39 216.15 110.06 232.79
  Q 99.69 243.36 91.97 256.00"
/>
</g>
<path fill="#5c2ca4" d="
  M 128.05 0.00
  Q 114.78 8.13 99.92 22.67
  Q 83.48 38.74 70.84 52.28
  Q 63.64 60.01 57.21 70.05
  L 51.35 70.36
  A 0.53 0.52 88.3 0 0 50.85 70.90
  L 50.93 74.23
  C 33.04 89.49 16.48 108.17 0.00 122.16
  L 0.00 16.09
  Q 3.06 3.14 16.00 0.00
  L 128.05 0.00
  Z"
/>
<path fill="#692fa2" d="
  M 192.04 0.00
  Q 181.56 12.42 177.68 16.42
  C 163.77 30.78 149.92 45.06 136.53 59.90
  L 78.44 67.34
  A 0.39 0.39 0.0 0 0 78.14 67.56
  L 74.47 75.23
  A 0.17 0.16 9.1 0 0 74.64 75.46
  L 90.33 73.46
  L 62.77 102.72
  L 61.95 70.83
  A 0.80 0.79 -0.7 0 0 61.15 70.06
  L 57.21 70.05
  Q 63.64 60.01 70.84 52.28
  Q 83.48 38.74 99.92 22.67
  Q 114.78 8.13 128.05 0.00
  L 192.04 0.00
  Z"
/>
<path fill="#7e34a1" d="
  M 238.28 0.00
  Q 223.46 11.32 209.41 25.16
  C 189.99 44.30 171.86 61.48 156.30 82.06
  L 127.79 85.27
  A 0.28 0.28 0.0 0 1 127.52 84.83
  L 144.40 59.53
  A 0.33 0.32 13.5 0 0 144.09 59.03
  L 136.53 59.90
  C 149.92 45.06 163.77 30.78 177.68 16.42
  Q 181.56 12.42 192.04 0.00
  L 238.28 0.00
  Z"
/>
<path fill="#8a379f" d="
  M 239.94 0.00
  Q 252.87 3.06 256.00 16.01
  L 256.00 23.32
  Q 237.81 40.65 220.28 58.53
  Q 209.91 69.11 201.71 81.46
  L 195.49 81.57
  A 0.63 0.63 0.0 0 0 194.87 82.18
  L 193.24 116.41
  A 0.83 0.83 0.0 0 1 192.36 117.20
  Q 160.43 115.52 128.06 115.46
  C 131.00 106.32 136.10 99.41 142.02 92.01
  L 178.61 87.26
  A 0.56 0.55 9.2 0 0 179.03 86.96
  L 182.72 79.24
  A 0.12 0.12 0.0 0 0 182.60 79.06
  L 156.30 82.06
  C 171.86 61.48 189.99 44.30 209.41 25.16
  Q 223.46 11.32 238.28 0.00
  L 239.94 0.00
  Z"
/>
<path fill="#9d3b9e" d="
  M 256.00 23.32
  L 256.00 90.59
  C 243.84 99.51 233.07 110.19 222.72 121.11
  Q 215.60 128.61 209.57 136.94
  L 204.00 136.83
  A 0.51 0.51 0.0 0 1 203.50 136.30
  L 206.07 82.29
  A 0.47 0.47 0.0 0 0 205.64 81.80
  L 201.71 81.46
  Q 209.91 69.11 220.28 58.53
  Q 237.81 40.65 256.00 23.32
  Z"
/>
<path fill="#ffffff" d="
  M 156.30 82.06
  L 182.60 79.06
  A 0.12 0.12 0.0 0 1 182.72 79.24
  L 179.03 86.96
  A 0.56 0.55 9.2 0 1 178.61 87.26
  L 142.02 92.01
  L 111.89 95.89
  A 0.46 0.46 0.0 0 1 111.45 95.17
  L 129.02 68.83
  A 0.19 0.18 13.8 0 0 128.84 68.54
  L 90.33 73.46
  L 74.64 75.46
  A 0.17 0.16 9.1 0 1 74.47 75.23
  L 78.14 67.56
  A 0.39 0.39 0.0 0 1 78.44 67.34
  L 136.53 59.90
  L 144.09 59.03
  A 0.33 0.32 13.5 0 1 144.40 59.53
  L 127.52 84.83
  A 0.28 0.28 0.0 0 0 127.79 85.27
  L 156.30 82.06
  Z"
/>
<path fill="#7e34a1" d="
  M 142.02 92.01
  C 136.10 99.41 131.00 106.32 128.06 115.46
  Q 95.85 115.51 63.74 117.19
  A 0.51 0.50 -2.3 0 1 63.21 116.71
  L 62.77 102.72
  L 90.33 73.46
  L 128.84 68.54
  A 0.19 0.18 13.8 0 1 129.02 68.83
  L 111.45 95.17
  A 0.46 0.46 0.0 0 0 111.89 95.89
  L 142.02 92.01
  Z"
/>
<path fill="#ffffff" d="
  M 57.21 70.05
  L 61.15 70.06
  A 0.80 0.79 -0.7 0 1 61.95 70.83
  L 62.77 102.72
  L 63.21 116.71
  A 0.51 0.50 -2.3 0 0 63.74 117.19
  Q 95.85 115.51 128.06 115.46
  Q 160.43 115.52 192.36 117.20
  A 0.83 0.83 0.0 0 0 193.24 116.41
  L 194.87 82.18
  A 0.63 0.63 0.0 0 1 195.49 81.57
  L 201.71 81.46
  L 205.64 81.80
  A 0.47 0.47 0.0 0 1 206.07 82.29
  L 203.50 136.30
  A 0.51 0.51 0.0 0 0 204.00 136.83
  L 209.57 136.94
  Q 212.09 136.68 212.26 139.52
  Q 212.97 151.22 211.95 163.05
  L 210.49 173.26
  A 0.76 0.75 5.5 0 1 209.71 173.90
  L 203.15 173.59
  A 0.76 0.76 0.0 0 0 202.36 174.28
  Q 200.72 193.79 182.07 199.39
  Q 178.42 200.49 169.03 200.00
  L 143.04 199.54
  Q 131.05 199.03 117.61 199.37
  Q 105.26 199.68 78.46 200.04
  Q 69.44 199.36 62.48 193.63
  C 56.79 188.41 54.13 182.18 53.66 174.46
  A 0.57 0.56 89.4 0 0 53.12 173.92
  L 46.11 173.59
  A 0.67 0.66 -3.3 0 1 45.49 173.04
  Q 42.44 156.00 43.96 138.25
  A 1.53 1.53 0.0 0 1 45.56 136.85
  L 51.80 137.14
  A 0.74 0.74 0.0 0 0 52.58 136.38
  L 51.96 114.16
  L 50.93 74.23
  L 50.85 70.90
  A 0.53 0.52 88.3 0 1 51.35 70.36
  L 57.21 70.05
  Z
  M 118.18 158.73
  A 21.59 21.59 0.0 0 0 96.59 137.14
  A 21.59 21.59 0.0 0 0 75.00 158.73
  A 21.59 21.59 0.0 0 0 96.59 180.32
  A 21.59 21.59 0.0 0 0 118.18 158.73
  Z
  M 181.13 158.73
  A 21.59 21.59 0.0 0 0 159.54 137.14
  A 21.59 21.59 0.0 0 0 137.95 158.73
  A 21.59 21.59 0.0 0 0 159.54 180.32
  A 21.59 21.59 0.0 0 0 181.13 158.73
  Z"
/>
<path fill="#692fa2" d="
  M 50.93 74.23
  L 51.96 114.16
  Q 43.18 126.28 35.48 133.98
  C 23.35 146.12 11.34 158.15 0.00 171.06
  L 0.00 122.16
  C 16.48 108.17 33.04 89.49 50.93 74.23
  Z"
/>
<path fill="#a83e9d" d="
  M 256.00 90.59
  L 256.00 122.22
  C 236.89 140.46 225.72 151.73 211.95 163.05
  Q 212.97 151.22 212.26 139.52
  Q 212.09 136.68 209.57 136.94
  Q 215.60 128.61 222.72 121.11
  C 233.07 110.19 243.84 99.51 256.00 90.59
  Z"
/>
<path fill="#7e34a1" d="
  M 51.96 114.16
  L 52.58 136.38
  A 0.74 0.74 0.0 0 1 51.80 137.14
  L 45.56 136.85
  A 1.53 1.53 0.0 0 0 43.96 138.25
  Q 42.44 156.00 45.49 173.04
  A 0.67 0.66 -3.3 0 0 46.11 173.59
  L 53.12 173.92
  A 0.57 0.56 89.4 0 1 53.66 174.46
  C 54.13 182.18 56.79 188.41 62.48 193.63
  L 6.20 251.07
  Q 1.52 246.66 0.00 239.96
  L 0.00 171.06
  C 11.34 158.15 23.35 146.12 35.48 133.98
  Q 43.18 126.28 51.96 114.16
  Z"
/>
<path fill="#ba429b" d="
  M 256.00 122.22
  L 256.00 239.93
  Q 252.93 252.86 239.99 256.00
  L 124.17 256.00
  Q 139.22 238.75 155.31 222.61
  C 161.82 216.09 167.83 209.54 169.03 200.00
  Q 178.42 200.49 182.07 199.39
  Q 200.72 193.79 202.36 174.28
  A 0.76 0.76 0.0 0 1 203.15 173.59
  L 209.71 173.90
  A 0.76 0.75 5.5 0 0 210.49 173.26
  L 211.95 163.05
  C 225.72 151.73 236.89 140.46 256.00 122.22
  Z"
/>
<path fill="#8a379f" d="
  M 118.18 158.73
  A 21.59 21.59 0.0 0 1 96.59 180.32
  A 21.59 21.59 0.0 0 1 75.00 158.73
  A 21.59 21.59 0.0 0 1 96.59 137.14
  A 21.59 21.59 0.0 0 1 118.18 158.73
  Z
  M 108.02 158.72
  A 11.45 11.45 0.0 0 0 96.57 147.27
  A 11.45 11.45 0.0 0 0 85.12 158.72
  A 11.45 11.45 0.0 0 0 96.57 170.17
  A 11.45 11.45 0.0 0 0 108.02 158.72
  Z"
/>
<path fill="#9d3b9e" d="
  M 181.13 158.73
  A 21.59 21.59 0.0 0 1 159.54 180.32
  A 21.59 21.59 0.0 0 1 137.95 158.73
  A 21.59 21.59 0.0 0 1 159.54 137.14
  A 21.59 21.59 0.0 0 1 181.13 158.73
  Z
  M 170.97 158.71
  A 11.45 11.45 0.0 0 0 159.52 147.26
  A 11.45 11.45 0.0 0 0 148.07 158.71
  A 11.45 11.45 0.0 0 0 159.52 170.16
  A 11.45 11.45 0.0 0 0 170.97 158.71
  Z"
/>
<circle fill="#ffffff" cx="96.57" cy="158.72" r="11.45"/>
<circle fill="#ffffff" cx="159.52" cy="158.71" r="11.45"/>
<path fill="#8a379f" d="
  M 78.46 200.04
  Q 70.58 212.28 61.43 221.58
  Q 43.51 239.76 29.60 256.00
  L 16.12 256.00
  Q 10.32 254.72 6.20 251.07
  L 62.48 193.63
  Q 69.44 199.36 78.46 200.04
  Z"
/>
<path fill="#9d3b9e" d="
  M 143.04 199.54
  Q 126.39 216.15 110.06 232.79
  Q 99.69 243.36 91.97 256.00
  L 29.60 256.00
  Q 43.51 239.76 61.43 221.58
  Q 70.58 212.28 78.46 200.04
  Q 105.26 199.68 117.61 199.37
  Q 131.05 199.03 143.04 199.54
  Z"
/>
<path fill="#a83e9d" d="
  M 169.03 200.00
  C 167.83 209.54 161.82 216.09 155.31 222.61
  Q 139.22 238.75 124.17 256.00
  L 91.97 256.00
  Q 99.69 243.36 110.06 232.79
  Q 126.39 216.15 143.04 199.54
  L 169.03 200.00
  Z"
/>
</svg>