<?xml version="1.0" encoding="UTF-8" standalone="no"?>
<!DOCTYPE svg PUBLIC "-//W3C//DTD SVG 1.1//EN" "http://www.w3.org/Graphics/SVG/1.1/DTD/svg11.dtd">
<svg xmlns="http://www.w3.org/2000/svg" version="1.1" viewBox="0.00 0.00 512.00 512.00" width="128" height="128">
<g stroke-width="2.00" fill="none" stroke-linecap="butt">
<path stroke="#808080" vector-effect="non-scaling-stroke" d="
  M 114.80 128.48
  A 0.18 0.18 0.0 0 0 114.73 128.83
  L 275.47 197.25
  A 0.69 0.69 0.0 0 1 275.88 197.95
  L 264.48 307.08
  A 0.24 0.24 0.0 0 0 264.91 307.26
  L 417.52 128.81
  A 0.20 0.19 -69.1 0 0 417.38 128.48
  L 114.80 128.48"
/>
<path stroke="#808080" vector-effect="non-scaling-stroke" d="
  M 397.08 383.49
  A 0.18 0.18 0.0 0 0 397.15 383.14
  L 236.50 314.76
  A 0.69 0.69 0.0 0 1 236.09 314.06
  L 247.48 204.99
  A 0.24 0.24 0.0 0 0 247.05 204.81
  L 94.52 383.16
  A 0.20 0.19 -69.1 0 0 94.66 383.49
  L 397.08 383.49"
/>
</g>
<path fill="#000000" d="
  M 471.41 0.00
  C 493.36 2.35 509.71 18.50 512.00 40.46
  L 512.00 471.42
  C 509.79 493.38 493.43 509.61 471.52 512.00
  L 40.58 512.00
  C 18.62 509.79 2.39 493.43 0.00 471.52
  L 0.00 40.57
  C 2.30 18.67 18.54 2.29 40.45 0.00
  L 471.41 0.00
  Z
  M 114.80 128.48
  A 0.18 0.18 0.0 0 0 114.73 128.83
  L 275.47 197.25
  A 0.69 0.69 0.0 0 1 275.88 197.95
  L 264.48 307.08
  A 0.24 0.24 0.0 0 0 264.91 307.26
  L 417.52 128.81
  A 0.20 0.19 -69.1 0 0 417.38 128.48
  L 114.80 128.48
  Z
  M 397.08 383.49
  A 0.18 0.18 0.0 0 0 397.15 383.14
  L 236.50 314.76
  A 0.69 0.69 0.0 0 1 236.09 314.06
  L 247.48 204.99
  A 0.24 0.24 0.0 0 0 247.05 204.81
  L 94.52 383.16
  A 0.20 0.19 -69.1 0 0 94.66 383.49
  L 397.08 383.49
  Z"
/>
<path fill="#ffffff" d="
  M 114.80 128.48
  L 417.38 128.48
  A 0.20 0.19 -69.1 0 1 417.52 128.81
  L 264.91 307.26
  A 0.24 0.24 0.0 0 1 264.48 307.08
  L 275.88 197.95
  A 0.69 0.69 0.0 0 0 275.47 197.25
  L 114.73 128.83
  A 0.18 0.18 0.0 0 1 114.80 128.48
  Z"
/>
<path fill="#ffffff" d="
  M 397.08 383.49
  L 94.66 383.49
  A 0.20 0.19 -69.1 0 1 94.52 383.16
  L 247.05 204.81
  A 0.24 0.24 0.0 0 1 247.48 204.99
  L 236.09 314.06
  A 0.69 0.69 0.0 0 0 236.50 314.76
  L 397.15 383.14
  A 0.18 0.18 0.0 0 1 397.08 383.49
  Z"
/>
</svg>