<?xml version="1.0" encoding="UTF-8" standalone="no"?>
<!DOCTYPE svg PUBLIC "-//W3C//DTD SVG 1.1//EN" "http://www.w3.org/Graphics/SVG/1.1/DTD/svg11.dtd">
<svg xmlns="http://www.w3.org/2000/svg" version="1.1" viewBox="0.00 0.00 256.00 256.00" width="128" height="128">
<g stroke-width="2.00" fill="none" stroke-linecap="butt">
<path stroke="#f29293" vector-effect="non-scaling-stroke" d="
  M 114.06 20.51
  Q 91.77 24.10 69.49 27.82
  C 44.21 32.05 24.00 51.01 16.72 75.08
  C 13.21 86.68 13.10 97.68 15.23 109.26
  Q 17.12 119.54 17.51 122.19
  Q 18.41 128.28 19.56 134.28"
/>
<path stroke="#fcd98e" vector-effect="non-scaling-stroke" d="
  M 19.56 134.28
  Q 20.01 140.93 22.37 152.71
  C 23.59 158.84 24.61 169.92 25.92 176.84
  C 27.38 184.50 28.18 191.36 30.48 197.68
  Q 36.93 215.45 51.24 227.32
  Q 71.39 244.03 98.22 243.04
  Q 104.46 242.81 115.24 240.75
  Q 124.18 239.04 132.67 238.36
  A 1.28 1.11 30.5 0 0 132.94 238.31
  L 138.35 236.89"
/>
<path stroke="#91b6da" vector-effect="non-scaling-stroke" d="
  M 138.35 236.89
  Q 162.08 233.84 185.96 229.80
  Q 199.28 227.54 211.00 220.23
  Q 231.80 207.26 239.71 183.89
  Q 245.12 167.91 242.47 151.75
  Q 240.01 136.74 237.54 121.68"
/>
<path stroke="#84cca4" vector-effect="non-scaling-stroke" d="
  M 237.54 121.68
  Q 231.56 81.09 229.56 70.47
  C 223.31 37.16 195.77 13.93 161.82 13.80
  Q 156.18 13.77 144.09 15.81
  Q 134.71 17.39 126.34 18.32
  C 122.46 18.76 118.21 19.90 114.06 20.51"
/>
<path stroke="#15837f" vector-effect="non-scaling-stroke" d="
  M 237.54 121.68
  L 233.17 128.17
  A 2.31 2.31 0.0 0 1 232.55 128.79
  C 230.43 130.16 228.99 132.01 226.77 133.47
  Q 217.64 139.49 207.34 136.91
  A 4.42 4.19 63.2 0 1 206.45 136.59
  L 199.39 133.25
  A 0.94 0.89 -4.8 0 1 199.03 132.96
  L 194.69 127.31
  A 0.51 0.49 -16.2 0 0 194.35 127.13
  Q 193.84 127.09 193.43 126.00
  A 0.40 0.40 0.0 0 0 192.71 125.95
  Q 192.64 126.08 192.57 126.26"
/>
<path stroke="#84cca4" vector-effect="non-scaling-stroke" d="
  M 192.57 126.26
  Q 189.03 104.86 185.77 83.43
  C 184.54 75.38 182.96 69.45 177.14 64.51
  Q 169.12 57.69 158.18 59.46
  C 147.33 61.21 136.65 63.36 126.20 64.26"
/>
<path stroke="#765f38" vector-effect="non-scaling-stroke" d="
  M 126.20 64.26
  Q 126.56 63.87 127.17 63.85
  A 0.68 0.67 1.0 0 0 127.81 63.24
  L 127.90 62.21
  A 0.96 0.96 0.0 0 1 128.19 61.60
  L 133.56 56.22
  A 1.43 1.30 -12.4 0 0 133.83 55.84
  L 137.15 49.13
  A 2.85 2.65 66.1 0 0 137.36 48.52
  Q 139.36 38.49 133.04 29.93
  C 131.28 27.54 128.26 26.10 126.22 23.97
  A 1.09 0.91 76.9 0 0 125.93 23.75
  L 121.59 21.45
  A 0.95 0.89 -28.5 0 0 121.13 21.33
  Q 118.83 21.28 117.11 20.49
  A 1.61 1.57 -34.3 0 0 116.33 20.35
  L 114.06 20.51"
/>
<path stroke="#91b6da" vector-effect="non-scaling-stroke" d="
  M 192.57 126.26
  Q 195.09 141.97 197.69 157.71
  Q 199.32 167.55 193.63 175.64
  C 188.65 182.73 181.94 184.54 173.43 185.87
  Q 156.79 188.49 140.67 190.88
  Q 138.96 191.13 135.97 191.91
  Q 133.33 192.59 131.26 192.92"
/>
<path stroke="#fcd98e" vector-effect="non-scaling-stroke" d="
  M 131.26 192.92
  Q 114.30 194.79 98.21 197.62
  Q 90.03 199.06 82.97 194.75
  Q 73.58 189.00 71.87 177.90
  Q 68.11 153.61 64.36 129.29"
/>
<path stroke="#f29293" vector-effect="non-scaling-stroke" d="
  M 126.20 64.26
  Q 123.76 64.78 121.25 65.19
  Q 89.29 70.37 84.12 71.13
  Q 74.77 72.49 71.50 74.23
  C 65.00 77.68 60.16 84.34 59.16 91.65
  Q 58.71 94.91 59.65 100.66
  Q 61.97 114.97 64.36 129.29"
/>
<path stroke="#ef6c22" vector-effect="non-scaling-stroke" d="
  M 64.36 129.29
  Q 64.47 130.22 64.21 130.74
  A 0.78 0.78 0.0 0 1 62.82 130.77
  C 59.91 125.29 56.91 123.68 50.17 120.15
  A 4.55 4.43 62.3 0 0 48.67 119.66
  C 37.53 118.10 29.86 121.49 23.39 130.94
  C 22.59 132.10 21.39 132.67 21.44 134.36
  A 0.77 0.76 -2.7 0 1 20.71 135.15
  Q 19.97 135.19 19.56 134.28"
/>
<path stroke="#8e9069" vector-effect="non-scaling-stroke" d="
  M 131.26 192.92
  L 124.05 199.65
  A 3.47 3.35 -5.3 0 0 123.62 200.15
  C 117.62 208.82 117.98 222.19 125.58 229.41
  Q 130.13 233.74 138.35 236.89"
/>
</g>
<path fill="#ffffff" d="
  M 174.62 0.00
  Q 183.06 0.34 185.59 1.60
  Q 191.82 4.72 195.42 6.34
  C 221.41 18.05 237.75 39.17 242.08 67.24
  Q 247.38 101.48 251.34 125.70
  Q 252.20 130.98 254.37 140.57
  C 255.33 144.81 255.63 149.09 256.00 153.42
  L 256.00 178.40
  Q 255.55 183.66 252.67 190.69
  Q 246.67 205.32 239.99 213.50
  Q 226.12 230.51 206.05 238.07
  Q 198.81 240.80 177.83 243.96
  Q 159.98 246.66 131.07 251.36
  Q 121.72 252.88 112.76 255.03
  Q 109.70 255.77 98.62 256.00
  L 80.34 256.00
  Q 72.85 255.74 64.39 251.85
  Q 52.62 246.44 49.53 244.37
  Q 28.05 230.00 19.15 206.50
  Q 15.96 198.07 13.25 178.75
  Q 13.15 178.04 6.82 137.93
  C 5.96 132.50 4.86 127.55 3.81 122.35
  Q 3.80 122.33 1.48 113.15
  Q 0.25 108.29 0.00 103.26
  L 0.00 81.11
  Q 0.74 73.42 4.06 66.35
  Q 8.12 57.69 9.10 55.82
  C 20.45 34.16 40.85 19.41 64.92 15.38
  Q 82.31 12.47 100.66 9.85
  C 107.65 8.85 113.92 7.40 121.04 6.51
  C 129.16 5.50 137.88 3.20 146.46 0.88
  Q 148.79 0.25 156.63 0.00
  L 174.62 0.00
  Z
  M 114.06 20.51
  Q 91.77 24.10 69.49 27.82
  C 44.21 32.05 24.00 51.01 16.72 75.08
  C 13.21 86.68 13.10 97.68 15.23 109.26
  Q 17.12 119.54 17.51 122.19
  Q 18.41 128.28 19.56 134.28
  Q 20.01 140.93 22.37 152.71
  C 23.59 158.84 24.61 169.92 25.92 176.84
  C 27.38 184.50 28.18 191.36 30.48 197.68
  Q 36.93 215.45 51.24 227.32
  Q 71.39 244.03 98.22 243.04
  Q 104.46 242.81 115.24 240.75
  Q 124.18 239.04 132.67 238.36
  A 1.28 1.11 30.5 0 0 132.94 238.31
  L 138.35 236.89
  Q 162.08 233.84 185.96 229.80
  Q 199.28 227.54 211.00 220.23
  Q 231.80 207.26 239.71 183.89
  Q 245.12 167.91 242.47 151.75
  Q 240.01 136.74 237.54 121.68
  Q 231.56 81.09 229.56 70.47
  C 223.31 37.16 195.77 13.93 161.82 13.80
  Q 156.18 13.77 144.09 15.81
  Q 134.71 17.39 126.34 18.32
  C 122.46 18.76 118.21 19.90 114.06 20.51
  Z"
/>
<path fill="#089949" d="
  M 237.54 121.68
  L 233.17 128.17
  A 2.31 2.31 0.0 0 1 232.55 128.79
  C 230.43 130.16 228.99 132.01 226.77 133.47
  Q 217.64 139.49 207.34 136.91
  A 4.42 4.19 63.2 0 1 206.45 136.59
  L 199.39 133.25
  A 0.94 0.89 -4.8 0 1 199.03 132.96
  L 194.69 127.31
  A 0.51 0.49 -16.2 0 0 194.35 127.13
  Q 193.84 127.09 193.43 126.00
  A 0.40 0.40 0.0 0 0 192.71 125.95
  Q 192.64 126.08 192.57 126.26
  Q 189.03 104.86 185.77 83.43
  C 184.54 75.38 182.96 69.45 177.14 64.51
  Q 169.12 57.69 158.18 59.46
  C 147.33 61.21 136.65 63.36 126.20 64.26
  Q 126.56 63.87 127.17 63.85
  A 0.68 0.67 1.0 0 0 127.81 63.24
  L 127.90 62.21
  A 0.96 0.96 0.0 0 1 128.19 61.60
  L 133.56 56.22
  A 1.43 1.30 -12.4 0 0 133.83 55.84
  L 137.15 49.13
  A 2.85 2.65 66.1 0 0 137.36 48.52
  Q 139.36 38.49 133.04 29.93
  C 131.28 27.54 128.26 26.10 126.22 23.97
  A 1.09 0.91 76.9 0 0 125.93 23.75
  L 121.59 21.45
  A 0.95 0.89 -28.5 0 0 121.13 21.33
  Q 118.83 21.28 117.11 20.49
  A 1.61 1.57 -34.3 0 0 116.33 20.35
  L 114.06 20.51
  C 118.21 19.90 122.46 18.76 126.34 18.32
  Q 134.71 17.39 144.09 15.81
  Q 156.18 13.77 161.82 13.80
  C 195.77 13.93 223.31 37.16 229.56 70.47
  Q 231.56 81.09 237.54 121.68
  Z"
/>
<path fill="#e42527" d="
  M 114.06 20.51
  L 116.33 20.35
  A 1.61 1.57 -34.3 0 1 117.11 20.49
  Q 118.83 21.28 121.13 21.33
  A 0.95 0.89 -28.5 0 1 121.59 21.45
  L 125.93 23.75
  A 1.09 0.91 76.9 0 1 126.22 23.97
  C 128.26 26.10 131.28 27.54 133.04 29.93
  Q 139.36 38.49 137.36 48.52
  A 2.85 2.65 66.1 0 1 137.15 49.13
  L 133.83 55.84
  A 1.43 1.30 -12.4 0 1 133.56 56.22
  L 128.19 61.60
  A 0.96 0.96 0.0 0 0 127.90 62.21
  L 127.81 63.24
  A 0.68 0.67 1.0 0 1 127.17 63.85
  Q 126.56 63.87 126.20 64.26
  Q 123.76 64.78 121.25 65.19
  Q 89.29 70.37 84.12 71.13
  Q 74.77 72.49 71.50 74.23
  C 65.00 77.68 60.16 84.34 59.16 91.65
  Q 58.71 94.91 59.65 100.66
  Q 61.97 114.97 64.36 129.29
  Q 64.47 130.22 64.21 130.74
  A 0.78 0.78 0.0 0 1 62.82 130.77
  C 59.91 125.29 56.91 123.68 50.17 120.15
  A 4.55 4.43 62.3 0 0 48.67 119.66
  C 37.53 118.10 29.86 121.49 23.39 130.94
  C 22.59 132.10 21.39 132.67 21.44 134.36
  A 0.77 0.76 -2.7 0 1 20.71 135.15
  Q 19.97 135.19 19.56 134.28
  Q 18.41 128.28 17.51 122.19
  Q 17.12 119.54 15.23 109.26
  C 13.10 97.68 13.21 86.68 16.72 75.08
  C 24.00 51.01 44.21 32.05 69.49 27.82
  Q 91.77 24.10 114.06 20.51
  Z"
/>
<path fill="#ffffff" d="
  M 192.57 126.26
  Q 195.09 141.97 197.69 157.71
  Q 199.32 167.55 193.63 175.64
  C 188.65 182.73 181.94 184.54 173.43 185.87
  Q 156.79 188.49 140.67 190.88
  Q 138.96 191.13 135.97 191.91
  Q 133.33 192.59 131.26 192.92
  Q 114.30 194.79 98.21 197.62
  Q 90.03 199.06 82.97 194.75
  Q 73.58 189.00 71.87 177.90
  Q 68.11 153.61 64.36 129.29
  Q 61.97 114.97 59.65 100.66
  Q 58.71 94.91 59.16 91.65
  C 60.16 84.34 65.00 77.68 71.50 74.23
  Q 74.77 72.49 84.12 71.13
  Q 89.29 70.37 121.25 65.19
  Q 123.76 64.78 126.20 64.26
  C 136.65 63.36 147.33 61.21 158.18 59.46
  Q 169.12 57.69 177.14 64.51
  C 182.96 69.45 184.54 75.38 185.77 83.43
  Q 189.03 104.86 192.57 126.26
  Z"
/>
<path fill="#f9b21d" d="
  M 64.36 129.29
  Q 68.11 153.61 71.87 177.90
  Q 73.58 189.00 82.97 194.75
  Q 90.03 199.06 98.21 197.62
  Q 114.30 194.79 131.26 192.92
  L 124.05 199.65
  A 3.47 3.35 -5.3 0 0 123.62 200.15
  C 117.62 208.82 117.98 222.19 125.58 229.41
  Q 130.13 233.74 138.35 236.89
  L 132.94 238.31
  A 1.28 1.11 30.5 0 1 132.67 238.36
  Q 124.18 239.04 115.24 240.75
  Q 104.46 242.81 98.22 243.04
  Q 71.39 244.03 51.24 227.32
  Q 36.93 215.45 30.48 197.68
  C 28.18 191.36 27.38 184.50 25.92 176.84
  C 24.61 169.92 23.59 158.84 22.37 152.71
  Q 20.01 140.93 19.56 134.28
  Q 19.97 135.19 20.71 135.15
  A 0.77 0.76 -2.7 0 0 21.44 134.36
  C 21.39 132.67 22.59 132.10 23.39 130.94
  C 29.86 121.49 37.53 118.10 48.67 119.66
  A 4.55 4.43 62.3 0 1 50.17 120.15
  C 56.91 123.68 59.91 125.29 62.82 130.77
  A 0.78 0.78 0.0 0 0 64.21 130.74
  Q 64.47 130.22 64.36 129.29
  Z"
/>
<path fill="#226db4" d="
  M 138.35 236.89
  Q 130.13 233.74 125.58 229.41
  C 117.98 222.19 117.62 208.82 123.62 200.15
  A 3.47 3.35 -5.3 0 1 124.05 199.65
  L 131.26 192.92
  Q 133.33 192.59 135.97 191.91
  Q 138.96 191.13 140.67 190.88
  Q 156.79 188.49 173.43 185.87
  C 181.94 184.54 188.65 182.73 193.63 175.64
  Q 199.32 167.55 197.69 157.71
  Q 195.09 141.97 192.57 126.26
  Q 192.64 126.08 192.71 125.95
  A 0.40 0.40 0.0 0 1 193.43 126.00
  Q 193.84 127.09 194.35 127.13
  A 0.51 0.49 -16.2 0 1 194.69 127.31
  L 199.03 132.96
  A 0.94 0.89 -4.8 0 0 199.39 133.25
  L 206.45 136.59
  A 4.42 4.19 63.2 0 0 207.34 136.91
  Q 217.64 139.49 226.77 133.47
  C 228.99 132.01 230.43 130.16 232.55 128.79
  A 2.31 2.31 0.0 0 0 233.17 128.17
  L 237.54 121.68
  Q 240.01 136.74 242.47 151.75
  Q 245.12 167.91 239.71 183.89
  Q 231.80 207.26 211.00 220.23
  Q 199.28 227.54 185.96 229.80
  Q 162.08 233.84 138.35 236.89
  Z"
/>
</svg>