<?xml version="1.0" encoding="UTF-8" standalone="no"?>
<!DOCTYPE svg PUBLIC "-//W3C//DTD SVG 1.1//EN" "http://www.w3.org/Graphics/SVG/1.1/DTD/svg11.dtd">
<svg xmlns="http://www.w3.org/2000/svg" version="1.1" viewBox="0.00 0.00 256.00 256.00" width="128" height="128">
<path fill="#5c6d47" fill-opacity="0.114" d="
  M 202.53 42.60
  Q 199.64 41.41 196.65 41.24
  A 0.08 0.08 0.0 0 1 196.60 41.10
  Q 196.78 40.95 196.88 40.90
  A 0.02 0.02 0.0 0 0 196.88 40.86
  L 190.97 40.67
  A 0.51 0.44 30.8 0 0 190.80 40.70
  Q 189.69 41.17 188.39 40.76
  A 2.78 2.78 0.0 0 0 187.55 40.63
  L 177.12 40.61
  A 2.40 2.28 35.2 0 0 176.44 40.71
  Q 174.60 41.30 170.86 41.09
  A 0.99 0.99 0.0 0 0 169.89 41.70
  Q 169.61 42.37 168.79 42.10
  Q 168.72 42.07 168.64 42.11
  A 0.15 0.02 3.4 0 0 168.83 42.15
  Q 168.97 42.15 169.09 42.18
  A 0.12 0.12 0.0 0 1 169.09 42.41
  L 163.19 43.80
  Q 165.61 42.73 167.76 41.28
  Q 168.17 41.00 169.73 40.86
  A 0.18 0.06 -13.4 0 0 169.95 40.73
  Q 169.83 40.69 169.85 40.61
  A 0.14 0.11 -13.6 0 0 169.64 40.52
  Q 168.95 40.90 168.51 40.84
  A 0.16 0.16 0.0 0 1 168.48 40.53
  C 172.11 39.40 176.30 37.68 180.54 37.60
  C 187.67 37.48 196.46 38.55 202.53 42.60
  Z"
/>
<path fill="#5c6d47" fill-opacity="0.114" d="
  M 79.62 39.67
  C 72.26 38.54 66.56 39.73 59.80 40.61
  C 58.96 40.71 57.89 40.25 57.26 40.46
  Q 57.12 40.51 56.97 40.44
  A 0.13 0.13 0.0 0 1 57.01 40.19
  Q 60.57 39.47 63.67 38.91
  L 63.88 38.88
  C 63.06 38.87 61.60 38.88 59.62 38.88
  C 64.79 37.94 70.61 37.84 75.84 38.11
  Q 79.52 38.30 79.62 39.67
  Z"
/>
<path fill="#63cb96" fill-opacity="0.800" d="
  M 79.62 39.67
  L 85.25 40.55
  A 0.16 0.15 -80.0 0 1 85.38 40.74
  Q 85.35 40.89 85.18 40.97
  A 0.06 0.06 0.0 0 0 85.20 41.09
  Q 88.80 41.57 89.51 41.86
  Q 98.20 45.42 101.87 47.89
  Q 104.72 49.80 109.83 54.97
  C 97.66 47.52 89.90 41.68 76.38 41.86
  Q 63.11 42.04 57.70 43.49
  A 0.14 0.13 -10.4 0 0 57.60 43.63
  L 57.60 43.64
  A 0.22 0.22 0.0 0 0 57.84 43.83
  Q 67.33 43.11 76.86 42.65
  Q 76.88 42.49 76.77 42.77
  A 0.08 0.07 -78.3 0 1 76.70 42.82
  C 62.57 43.36 51.45 43.19 41.06 52.07
  Q 37.38 55.22 32.68 59.25
  A 2.47 1.98 -7.8 0 0 32.33 59.62
  L 26.22 67.41
  Q 26.50 65.47 28.19 63.45
  Q 34.32 56.13 38.10 52.57
  Q 43.69 47.32 50.39 44.31
  A 1.56 1.49 1.3 0 0 51.09 43.67
  Q 51.41 43.07 51.77 42.99
  Q 54.07 42.53 56.75 40.76
  A 0.21 0.21 0.0 0 1 57.01 41.08
  L 56.80 41.29
  A 0.16 0.16 0.0 0 0 56.96 41.55
  L 59.80 40.61
  C 66.56 39.73 72.26 38.54 79.62 39.67
  Z"
/>
<path fill="#ff9797" fill-opacity="0.800" d="
  M 202.53 42.60
  L 216.27 49.81
  A 1.53 1.38 80.0 0 1 216.68 50.13
  Q 218.72 52.44 221.74 55.29
  C 227.09 60.34 231.06 66.57 234.03 73.44
  Q 235.80 77.54 235.87 80.88
  A 0.58 0.58 0.0 0 0 236.04 81.29
  Q 236.29 81.53 236.32 81.76
  Q 237.86 93.87 236.62 105.86
  Q 236.62 105.43 236.55 105.19
  A 0.22 0.22 0.0 0 0 236.12 105.20
  Q 231.98 121.40 219.70 132.49
  Q 206.69 144.25 189.58 146.15
  C 184.80 146.68 179.45 145.99 174.28 146.19
  C 167.60 146.46 162.02 145.01 155.57 145.15
  Q 143.43 145.41 131.73 145.49
  L 131.89 140.33
  A 0.78 0.48 58.3 0 0 131.89 140.16
  L 131.31 124.14
  A 0.13 0.04 61.8 0 0 131.30 124.09
  Q 130.93 122.23 131.30 120.43
  A 1.06 0.96 -42.1 0 0 131.32 120.23
  L 131.04 114.18
  Q 131.26 110.88 131.24 107.50
  Q 131.08 89.38 131.87 83.48
  Q 132.46 79.11 135.19 72.13
  C 139.06 62.22 148.00 53.11 156.57 47.15
  Q 157.86 46.25 159.83 45.37
  Q 161.53 44.61 163.19 43.80
  L 169.09 42.41
  A 0.12 0.12 0.0 0 0 169.09 42.18
  Q 168.97 42.15 168.83 42.15
  A 0.15 0.02 3.4 0 1 168.64 42.11
  Q 168.72 42.07 168.79 42.10
  Q 169.61 42.37 169.89 41.70
  A 0.99 0.99 0.0 0 1 170.86 41.09
  Q 174.60 41.30 176.44 40.71
  A 2.40 2.28 35.2 0 1 177.12 40.61
  L 187.55 40.63
  A 2.78 2.78 0.0 0 1 188.39 40.76
  Q 189.69 41.17 190.80 40.70
  A 0.51 0.44 30.8 0 1 190.97 40.67
  L 196.88 40.86
  A 0.02 0.02 0.0 0 1 196.88 40.90
  Q 196.78 40.95 196.60 41.10
  A 0.08 0.08 0.0 0 0 196.65 41.24
  Q 199.64 41.41 202.53 42.60
  Z"
/>
<path fill="#64cbcb" fill-opacity="0.800" d="
  M 109.83 54.97
  C 118.28 62.99 122.35 71.65 125.20 81.21
  Q 126.10 84.20 125.75 89.74
  Q 125.32 96.66 125.37 100.63
  Q 125.50 109.83 125.47 119.04
  L 125.25 141.77
  L 124.48 144.82
  A 0.38 0.36 -84.0 0 0 124.84 145.30
  Q 124.88 145.30 125.05 145.27
  A 0.12 0.11 -77.6 0 1 125.16 145.45
  Q 124.45 146.42 123.80 146.40
  Q 120.15 146.28 116.44 146.15
  Q 106.15 145.32 95.86 145.90
  Q 89.04 146.29 83.54 146.20
  Q 77.38 146.11 71.21 146.32
  L 63.22 145.67
  A 1.31 0.97 21.5 0 1 63.04 145.64
  Q 37.30 139.71 25.03 116.68
  Q 23.98 114.70 22.94 111.58
  Q 22.07 108.98 21.08 106.37
  Q 21.24 102.50 20.62 98.39
  Q 20.53 99.50 20.38 100.61
  Q 20.50 98.89 20.05 97.38
  A 2.55 2.45 40.5 0 1 19.96 96.47
  Q 20.26 92.68 20.02 90.53
  Q 19.53 86.18 20.32 83.86
  A 0.17 0.09 -28.2 0 1 20.36 83.80
  Q 20.65 83.57 20.82 83.70
  A 0.16 0.15 -40.7 0 1 20.80 83.94
  Q 20.27 84.30 20.28 84.97
  A 0.23 0.20 -48.1 0 0 20.71 84.91
  Q 20.88 82.66 21.10 80.44
  A 0.11 0.11 0.0 0 1 21.32 80.42
  Q 21.40 80.75 21.37 81.11
  Q 21.74 77.45 23.01 73.67
  Q 24.19 70.01 26.22 67.41
  L 32.33 59.62
  A 2.47 1.98 -7.8 0 1 32.68 59.25
  Q 37.38 55.22 41.06 52.07
  C 51.45 43.19 62.57 43.36 76.70 42.82
  A 0.08 0.07 -78.3 0 0 76.77 42.77
  Q 76.88 42.49 76.86 42.65
  Q 67.33 43.11 57.84 43.83
  A 0.22 0.22 0.0 0 1 57.60 43.64
  L 57.60 43.63
  A 0.14 0.13 -10.4 0 1 57.70 43.49
  Q 63.11 42.04 76.38 41.86
  C 89.90 41.68 97.66 47.52 109.83 54.97
  Z"
/>
<path fill="#5c6d47" fill-opacity="0.114" d="
  M 23.01 73.67
  Q 21.74 77.45 21.37 81.11
  Q 21.40 80.75 21.32 80.42
  A 0.11 0.11 0.0 0 0 21.10 80.44
  Q 20.88 82.66 20.71 84.91
  A 0.23 0.20 -48.1 0 1 20.28 84.97
  Q 20.27 84.30 20.80 83.94
  A 0.16 0.15 -40.7 0 0 20.82 83.70
  Q 20.65 83.57 20.36 83.80
  A 0.17 0.09 -28.2 0 0 20.32 83.86
  Q 19.53 86.18 20.02 90.53
  Q 20.26 92.68 19.96 96.47
  A 2.55 2.45 40.5 0 0 20.05 97.38
  Q 20.50 98.89 20.38 100.61
  Q 20.53 99.50 20.62 98.39
  Q 21.24 102.50 21.08 106.37
  Q 18.17 95.68 19.37 83.91
  Q 19.46 83.00 19.20 79.77
  A 1.35 1.31 -30.9 0 1 19.44 78.87
  L 23.01 73.67
  Z"
/>
<path fill="#5c6d47" fill-opacity="0.114" d="
  M 131.04 114.18
  L 131.32 120.23
  A 1.06 0.96 -42.1 0 1 131.30 120.43
  Q 130.93 122.23 131.30 124.09
  A 0.13 0.04 61.8 0 1 131.31 124.14
  L 131.89 140.16
  A 0.78 0.48 58.3 0 1 131.89 140.33
  L 131.73 145.49
  L 128.60 140.77
  A 0.55 0.54 -36.2 0 0 127.80 140.65
  Q 126.97 141.33 126.70 142.51
  A 0.34 0.34 0.0 0 1 126.13 142.67
  L 125.25 141.77
  L 125.47 119.04
  C 125.77 121.56 125.98 124.09 126.12 126.63
  C 126.53 123.01 126.22 118.73 126.12 115.14
  A 0.13 0.13 0.0 0 1 126.38 115.10
  Q 126.97 116.88 127.11 119.17
  Q 127.16 120.01 127.71 120.63
  A 0.52 0.52 0.0 0 0 128.59 120.48
  L 131.04 114.18
  Z"
/>
<path fill="#5c6d47" fill-opacity="0.114" d="
  M 116.44 146.15
  L 114.99 149.15
  A 0.16 0.15 17.4 0 0 115.11 149.37
  Q 115.21 149.39 115.42 149.39
  Q 115.49 149.39 115.52 149.63
  Q 115.59 150.29 116.15 151.04
  A 0.89 0.89 0.0 0 0 117.02 151.38
  L 121.00 150.67
  A 3.56 3.40 40.0 0 1 121.79 150.62
  Q 130.26 151.10 131.55 150.93
  Q 142.98 149.49 146.50 149.74
  Q 156.70 150.47 163.87 150.59
  Q 166.13 150.63 170.07 152.02
  Q 163.12 151.91 156.22 151.56
  Q 149.05 151.19 144.68 151.41
  Q 137.66 151.77 133.12 151.46
  A 0.98 0.97 -87.2 0 0 132.08 152.41
  L 130.92 188.76
  Q 130.91 187.43 130.37 186.40
  A 0.35 0.34 30.3 0 0 129.72 186.57
  L 129.83 189.33
  A 0.38 0.38 0.0 0 1 129.14 189.56
  Q 127.88 187.77 127.54 186.21
  A 0.59 0.59 0.0 0 0 126.38 186.21
  L 125.51 190.42
  L 124.73 165.82
  A 1.68 1.59 -43.4 0 1 124.75 165.46
  Q 125.52 159.64 125.26 154.39
  A 2.82 2.82 0.0 0 0 122.00 151.75
  Q 119.93 152.08 117.26 151.95
  Q 108.05 151.47 99.00 151.19
  Q 95.80 151.08 83.60 152.13
  Q 83.82 151.75 84.12 151.50
  A 0.20 0.19 23.2 0 0 83.98 151.16
  C 83.03 151.18 82.08 151.17 81.12 151.13
  L 81.13 151.13
  Q 82.26 151.33 82.34 150.34
  A 0.54 0.53 87.9 0 1 82.78 149.86
  L 84.85 149.49
  A 0.89 0.89 0.0 0 0 84.73 147.72
  Q 83.80 147.68 81.86 146.65
  A 1.84 1.82 58.6 0 0 81.01 146.44
  L 71.21 146.32
  Q 77.38 146.11 83.54 146.20
  Q 89.04 146.29 95.86 145.90
  Q 106.15 145.32 116.44 146.15
  Z"
/>
<path fill="#63cb96" fill-opacity="0.800" d="
  M 125.51 190.42
  Q 121.59 207.73 105.23 214.74
  C 90.98 220.85 74.19 214.74 65.76 202.23
  C 61.16 195.40 60.10 188.34 60.46 180.47
  Q 60.66 176.16 62.60 171.65
  Q 68.31 158.31 81.94 153.05
  A 0.06 0.02 -28.5 0 0 81.99 152.99
  Q 81.91 152.97 81.88 152.92
  A 0.08 0.07 -17.9 0 1 81.94 152.82
  Q 82.92 152.62 83.60 152.13
  Q 95.80 151.08 99.00 151.19
  Q 108.05 151.47 117.26 151.95
  Q 119.93 152.08 122.00 151.75
  A 2.82 2.82 0.0 0 1 125.26 154.39
  Q 125.52 159.64 124.75 165.46
  A 1.68 1.59 -43.4 0 0 124.73 165.82
  L 125.51 190.42
  Z"
/>
<path fill="#ffcb64" fill-opacity="0.800" d="
  M 170.07 152.02
  Q 170.84 152.15 171.70 152.13
  A 0.10 0.06 26.7 0 1 171.78 152.27
  Q 171.74 152.28 171.69 152.32
  A 0.06 0.06 0.0 0 0 171.73 152.42
  Q 174.81 152.78 177.20 154.09
  Q 182.24 156.86 185.22 159.04
  A 3.24 3.07 83.4 0 1 185.65 159.40
  L 190.07 163.63
  A 0.38 0.37 48.3 0 1 190.04 164.19
  Q 189.64 164.50 190.52 164.78
  Q 190.73 164.84 191.14 165.47
  Q 194.66 170.73 195.13 172.36
  Q 199.87 188.60 192.28 200.82
  C 183.69 214.65 167.18 220.96 151.80 214.72
  Q 134.91 207.86 130.92 188.76
  L 132.08 152.41
  A 0.98 0.97 -87.2 0 1 133.12 151.46
  Q 137.66 151.77 144.68 151.41
  Q 149.05 151.19 156.22 151.56
  Q 163.12 151.91 170.07 152.02
  Z"
/>
</svg>