<?xml version="1.0" encoding="UTF-8" standalone="no"?>
<!DOCTYPE svg PUBLIC "-//W3C//DTD SVG 1.1//EN" "http://www.w3.org/Graphics/SVG/1.1/DTD/svg11.dtd">
<svg xmlns="http://www.w3.org/2000/svg" version="1.1" viewBox="0.00 0.00 180.00 180.00" width="128" height="128">
<g stroke-width="2.00" fill="none" stroke-linecap="butt">
<path stroke="#d63972" vector-effect="non-scaling-stroke" d="
  M 97.46 95.04
  Q 87.56 85.95 76.65 78.19"
/>
<path stroke="#bd2a86" vector-effect="non-scaling-stroke" d="
  M 77.05 29.53
  Q 77.45 16.00 79.32 2.65"
/>
<path stroke="#bc3c8a" vector-effect="non-scaling-stroke" d="
  M 102.05 113.58
  L 92.02 140.20"
/>
<path stroke="#d33d4f" vector-effect="non-scaling-stroke" d="
  M 65.47 91.53
  L 69.79 95.08
  A 0.79 0.78 -61.1 0 1 70.03 95.93
  L 61.70 120.91
  A 0.62 0.61 25.8 0 0 61.95 121.62
  L 70.54 127.50"
/>
<path stroke="#e84b46" vector-effect="non-scaling-stroke" d="
  M 64.56 134.69
  Q 55.78 126.94 51.54 116.04
  A 1.25 1.21 2.3 0 0 50.90 115.37
  L 47.21 113.69"
/>
<path stroke="#e84b46" vector-effect="non-scaling-stroke" d="
  M 38.71 108.41
  L 11.15 92.06"
/>
</g>
<path fill="#e1357e" d="
  M 97.46 95.04
  Q 87.56 85.95 76.65 78.19
  L 116.76 30.06
  A 0.34 0.33 -69.8 0 0 116.51 29.51
  L 77.05 29.53
  Q 77.45 16.00 79.32 2.65
  L 144.27 2.50
  A 1.61 1.60 -13.8 0 1 145.69 3.35
  L 156.52 23.86
  A 0.58 0.55 -39.8 0 1 156.45 24.49
  L 97.46 95.04
  Z"
/>
<path fill="#991e8e" d="
  M 79.32 2.65
  Q 77.45 16.00 77.05 29.53
  L 15.27 29.50
  A 0.35 0.35 0.0 0 1 14.92 29.15
  L 14.92 3.37
  A 0.60 0.60 0.0 0 1 15.52 2.77
  L 79.32 2.65
  Z"
/>
<path fill="#db3c39" d="
  M 65.47 91.53
  L 69.79 95.08
  A 0.79 0.78 -61.1 0 1 70.03 95.93
  L 61.70 120.91
  A 0.62 0.61 25.8 0 0 61.95 121.62
  L 70.54 127.50
  L 64.56 134.69
  Q 55.78 126.94 51.54 116.04
  A 1.25 1.21 2.3 0 0 50.90 115.37
  L 47.21 113.69
  L 38.71 108.41
  L 11.15 92.06
  L 10.95 84.80
  A 1.89 1.88 75.1 0 1 11.95 83.07
  L 32.43 72.26
  A 0.97 0.96 -43.1 0 1 33.39 72.29
  L 65.47 91.53
  Z"
/>
<path fill="#cb3d65" d="
  M 76.65 78.19
  Q 87.56 85.95 97.46 95.04
  L 89.30 104.73
  A 0.91 0.91 0.0 0 0 89.53 106.09
  L 102.05 113.58
  L 92.02 140.20
  L 70.54 127.50
  L 61.95 121.62
  A 0.62 0.61 25.8 0 1 61.70 120.91
  L 70.03 95.93
  A 0.79 0.78 -61.1 0 0 69.79 95.08
  L 65.47 91.53
  L 76.65 78.19
  Z"
/>
<path fill="#f55a52" d="
  M 38.71 108.41
  L 38.58 123.10
  A 0.31 0.31 0.0 0 0 39.12 123.30
  L 47.21 113.69
  L 50.90 115.37
  A 1.25 1.21 2.3 0 1 51.54 116.04
  Q 55.78 126.94 64.56 134.69
  L 35.30 169.79
  A 1.11 1.10 -59.9 0 1 34.07 170.12
  L 11.78 161.69
  A 0.98 0.97 10.5 0 1 11.15 160.78
  L 11.15 92.06
  L 38.71 108.41
  Z"
/>
<path fill="#ac3aae" d="
  M 92.02 140.20
  L 102.05 113.58
  L 172.20 155.75
  A 0.35 0.34 -60.1 0 1 172.32 156.22
  L 159.11 179.10
  A 0.87 0.87 0.0 0 1 157.91 179.42
  L 92.02 140.20
  Z"
/>
</svg>